<svg width="800" version="1.1" x="0" y="0" preserveAspectRatio="none" xmlns:xlink="http://www.w3.org/1999/xlink" height="230" xmlns="http://www.w3.org/2000/svg" viewBox="0 0 800 230"  >
<g label="Query sequence" class="clusterblast-cluster"  >
<text class="clusterblast-acc" x="5" y="20"  >
Query sequence</text>
<line style="stroke-width:1; stroke:grey; " y2="35" x1="10" y1="35" x2="778.0"  />
<polygon locus_tag="cds431_590" id="dummy-1_q0_0_all" class="clusterblast-orf" style="stroke-width:1; fill:white; stroke:black; " description="&lt;b&gt;cds431_590&lt;/b&gt;&lt;br&gt;hypothetical protein&lt;br&gt;Location: 431 - 590" points="87,35 92,30 92,30 92,40 92,40 87,35 "  />
<polygon locus_tag="cds586_2305" id="dummy-1_q1_0_all" class="clusterblast-orf" style="stroke-width:1; fill:#d81515; stroke:black; " description="&lt;b&gt;cds586_2305&lt;/b&gt;&lt;br&gt;hypothetical protein&lt;br&gt;Location: 586 - 2305" points="92,35 97,30 148,30 148,40 97,40 92,35 "  />
<polygon locus_tag="cds2573_2825" id="dummy-1_q2_0_all" class="clusterblast-orf" style="stroke-width:1; fill:white; stroke:black; " description="&lt;b&gt;cds2573_2825&lt;/b&gt;&lt;br&gt;hypothetical protein&lt;br&gt;Location: 2573 - 2825" points="157,40 160,40 165,35 160,30 157,30 157,40 "  />
<polygon locus_tag="cds2845_2980" id="dummy-1_q3_0_all" class="clusterblast-orf" style="stroke-width:1; fill:white; stroke:black; " description="&lt;b&gt;cds2845_2980&lt;/b&gt;&lt;br&gt;hypothetical protein&lt;br&gt;Location: 2845 - 2980" points="166,40 170,35 166,30 166,40 "  />
<polygon locus_tag="cds3278_3767" id="dummy-1_q4_0_all" class="clusterblast-orf" style="stroke-width:1; fill:#4dd815; stroke:black; " description="&lt;b&gt;cds3278_3767&lt;/b&gt;&lt;br&gt;Mobile element protein&lt;br&gt;Location: 3278 - 3767" points="180,40 190,40 195,35 190,30 180,30 180,40 "  />
<polygon locus_tag="cds3844_3964" id="dummy-1_q5_0_all" class="clusterblast-orf" style="stroke-width:1; fill:white; stroke:black; " description="&lt;b&gt;cds3844_3964&lt;/b&gt;&lt;br&gt;hypothetical protein&lt;br&gt;Location: 3844 - 3964" points="198,35 202,30 202,40 198,35 "  />
<polygon locus_tag="cds4002_4215" id="dummy-1_q6_0_all" class="clusterblast-orf" style="stroke-width:1; fill:white; stroke:black; " description="&lt;b&gt;cds4002_4215&lt;/b&gt;&lt;br&gt;hypothetical protein&lt;br&gt;Location: 4002 - 4215" points="203,40 205,40 210,35 205,30 203,30 203,40 "  />
<polygon locus_tag="cds4214_4577" id="dummy-1_q7_0_all" class="clusterblast-orf" style="stroke-width:1; fill:white; stroke:black; " description="&lt;b&gt;cds4214_4577&lt;/b&gt;&lt;br&gt;hypothetical protein&lt;br&gt;Location: 4214 - 4577" points="210,40 217,40 222,35 217,30 210,30 210,40 "  />
<polygon locus_tag="cds4737_5694" id="dummy-1_q8_0_all" class="clusterblast-orf" style="stroke-width:1; fill:#1585d8; stroke:black; " description="&lt;b&gt;cds4737_5694&lt;/b&gt;&lt;br&gt;hypothetical protein&lt;br&gt;Location: 4737 - 5694" points="227,35 232,30 258,30 258,40 232,40 227,35 "  />
<polygon locus_tag="cds5702_6203" id="dummy-1_q9_0_all" class="clusterblast-orf" style="stroke-width:1; fill:#a115d8; stroke:black; " description="&lt;b&gt;cds5702_6203&lt;/b&gt;&lt;br&gt;Lanthionine biosynthesis cyclase LanC&lt;br&gt;Location: 5702 - 6203" points="258,35 263,30 274,30 274,40 263,40 258,35 "  />
<polygon locus_tag="cds6283_9445" id="dummy-1_q10_0_all" class="clusterblast-orf" style="stroke-width:1; fill:#a115d8; stroke:black; " description="&lt;b&gt;cds6283_9445&lt;/b&gt;&lt;br&gt;hypothetical protein&lt;br&gt;Location: 6283 - 9445" points="277,35 282,30 379,30 379,40 282,40 277,35 "  />
<polygon locus_tag="cds9423_9882" id="dummy-1_q11_0_all" class="clusterblast-orf" style="stroke-width:1; fill:#a115d8; stroke:black; " description="&lt;b&gt;cds9423_9882&lt;/b&gt;&lt;br&gt;Lanthionine biosynthesis protein LanB&lt;br&gt;Location: 9423 - 9882" points="379,35 384,30 394,30 394,40 384,40 379,35 "  />
<polygon locus_tag="cds9955_10150" id="dummy-1_q12_0_all" class="clusterblast-orf" style="stroke-width:1; fill:#d86915; stroke:black; " description="&lt;b&gt;cds9955_10150&lt;/b&gt;&lt;br&gt;hypothetical protein&lt;br&gt;Location: 9955 - 10150" points="396,35 401,30 402,30 402,40 401,40 396,35 "  />
<polygon locus_tag="cds10209_10509" id="dummy-1_q13_0_all" class="clusterblast-orf" style="stroke-width:1; fill:#15d831; stroke:black; " description="&lt;b&gt;cds10209_10509&lt;/b&gt;&lt;br&gt;Protein-L-isoaspartate O-methyltransferase (EC 2.1.1.77)&lt;br&gt;Location: 10209 - 10509" points="404,35 409,30 414,30 414,40 409,40 404,35 "  />
<polygon locus_tag="cds10612_11257" id="dummy-1_q14_0_all" class="clusterblast-orf" style="stroke-width:1; fill:#15d831; stroke:black; " description="&lt;b&gt;cds10612_11257&lt;/b&gt;&lt;br&gt;Protein-L-isoaspartate O-methyltransferase (EC 2.1.1.77)&lt;br&gt;Location: 10612 - 11257" points="417,35 422,30 438,30 438,40 422,40 417,35 "  />
<polygon locus_tag="cds11253_11439" id="dummy-1_q15_0_all" class="clusterblast-orf" style="stroke-width:1; fill:#15d831; stroke:black; " description="&lt;b&gt;cds11253_11439&lt;/b&gt;&lt;br&gt;hypothetical protein&lt;br&gt;Location: 11253 - 11439" points="438,35 443,30 444,30 444,40 443,40 438,35 "  />
<polygon locus_tag="cds11435_11978" id="dummy-1_q16_0_all" class="clusterblast-orf" style="stroke-width:1; fill:#1531d8; stroke:black; " description="&lt;b&gt;cds11435_11978&lt;/b&gt;&lt;br&gt;hypothetical protein&lt;br&gt;Location: 11435 - 11978" points="444,35 449,30 462,30 462,40 449,40 444,35 "  />
<polygon locus_tag="cds12452_12575" id="dummy-1_q17_0_all" class="clusterblast-orf" style="stroke-width:1; fill:#d815bc; stroke:black; " description="&lt;b&gt;cds12452_12575&lt;/b&gt;&lt;br&gt;hypothetical protein&lt;br&gt;Location: 12452 - 12575" points="477,35 481,30 481,40 477,35 "  />
<polygon locus_tag="cds12720_13002" id="dummy-1_q18_0_all" class="clusterblast-orf" style="stroke-width:1; fill:white; stroke:black; " description="&lt;b&gt;cds12720_13002&lt;/b&gt;&lt;br&gt;hypothetical protein&lt;br&gt;Location: 12720 - 13002" points="486,35 491,30 495,30 495,40 491,40 486,35 "  />
<polygon locus_tag="cds13039_13375" id="dummy-1_q19_0_all" class="clusterblast-orf" style="stroke-width:1; fill:white; stroke:black; " description="&lt;b&gt;cds13039_13375&lt;/b&gt;&lt;br&gt;hypothetical protein&lt;br&gt;Location: 13039 - 13375" points="496,35 501,30 507,30 507,40 501,40 496,35 "  />
<polygon locus_tag="cds13629_13944" id="dummy-1_q20_0_all" class="clusterblast-orf" style="stroke-width:1; fill:#d8bc15; stroke:black; " description="&lt;b&gt;cds13629_13944&lt;/b&gt;&lt;br&gt;hypothetical protein&lt;br&gt;Location: 13629 - 13944" points="515,40 520,40 525,35 520,30 515,30 515,40 "  />
<polygon locus_tag="cds13971_14223" id="dummy-1_q21_0_all" class="clusterblast-orf" style="stroke-width:1; fill:white; stroke:black; " description="&lt;b&gt;cds13971_14223&lt;/b&gt;&lt;br&gt;hypothetical protein&lt;br&gt;Location: 13971 - 14223" points="526,35 531,30 534,30 534,40 531,40 526,35 "  />
<polygon locus_tag="cds14241_14622" id="dummy-1_q22_0_all" class="clusterblast-orf" style="stroke-width:1; fill:#15d885; stroke:black; " description="&lt;b&gt;cds14241_14622&lt;/b&gt;&lt;br&gt;Putative transcriptional regulator&lt;br&gt;Location: 14241 - 14622" points="535,40 542,40 547,35 542,30 535,30 535,40 "  />
<polygon locus_tag="cds14848_15073" id="dummy-1_q23_0_all" class="clusterblast-orf" style="stroke-width:1; fill:#4d15d8; stroke:black; " description="&lt;b&gt;cds14848_15073&lt;/b&gt;&lt;br&gt;hypothetical protein&lt;br&gt;Location: 14848 - 15073" points="555,40 557,40 562,35 557,30 555,30 555,40 "  />
<polygon locus_tag="cds15149_15965" id="dummy-1_q24_0_all" class="clusterblast-orf" style="stroke-width:1; fill:#d81569; stroke:black; " description="&lt;b&gt;cds15149_15965&lt;/b&gt;&lt;br&gt;hypothetical protein&lt;br&gt;Location: 15149 - 15965" points="564,40 586,40 591,35 586,30 564,30 564,40 "  />
<polygon locus_tag="cds15999_16857" id="dummy-1_q25_0_all" class="clusterblast-orf" style="stroke-width:1; fill:#a1d815; stroke:black; " description="&lt;b&gt;cds15999_16857&lt;/b&gt;&lt;br&gt;hypothetical protein&lt;br&gt;Location: 15999 - 16857" points="592,40 615,40 620,35 615,30 592,30 592,40 "  />
<polygon locus_tag="cds16882_17005" id="dummy-1_q26_0_all" class="clusterblast-orf" style="stroke-width:1; fill:white; stroke:black; " description="&lt;b&gt;cds16882_17005&lt;/b&gt;&lt;br&gt;hypothetical protein&lt;br&gt;Location: 16882 - 17005" points="620,40 624,35 620,30 620,40 "  />
<polygon locus_tag="cds17021_17441" id="dummy-1_q27_0_all" class="clusterblast-orf" style="stroke-width:1; fill:white; stroke:black; " description="&lt;b&gt;cds17021_17441&lt;/b&gt;&lt;br&gt;hypothetical protein&lt;br&gt;Location: 17021 - 17441" points="625,35 630,30 639,30 639,40 630,40 625,35 "  />
<polygon locus_tag="cds17499_17898" id="dummy-1_q28_0_all" class="clusterblast-orf" style="stroke-width:1; fill:white; stroke:black; " description="&lt;b&gt;cds17499_17898&lt;/b&gt;&lt;br&gt;hypothetical protein&lt;br&gt;Location: 17499 - 17898" points="640,40 648,40 653,35 648,30 640,30 640,40 "  />
<polygon locus_tag="cds17988_18333" id="dummy-1_q29_0_all" class="clusterblast-orf" style="stroke-width:1; fill:white; stroke:black; " description="&lt;b&gt;cds17988_18333&lt;/b&gt;&lt;br&gt;hypothetical protein&lt;br&gt;Location: 17988 - 18333" points="656,40 662,40 667,35 662,30 656,30 656,40 "  />
<polygon locus_tag="cds18416_19100" id="dummy-1_q30_0_all" class="clusterblast-orf" style="stroke-width:1; fill:#15d8d8; stroke:black; " description="&lt;b&gt;cds18416_19100&lt;/b&gt;&lt;br&gt;hypothetical protein&lt;br&gt;Location: 18416 - 19100" points="670,40 687,40 692,35 687,30 670,30 670,40 "  />
</g>
<g label="NZ_LJIW01000002" description="NZ_LJIW01000002 (4833038-4858226): Streptomyces malaysiensis strain F913 SMF9... (23% of genes show similarity), lanthipeptide" class="clusterblast-cluster"  >
<text class="clusterblast-acc" x="5" y="70"  >
<a xlink:href="https://antismash-db.secondarymetabolites.org/area.html?record=NZ_LJIW01000002&amp;start=4833038&amp;end=4858226" target="_blank">NZ_LJIW01000002 (4833038-4858226)</a>: Streptomyces malaysiensis strain F913 SMF9... (23% of genes show similarity), lanthipeptide</text>
<line style="stroke-width:1; stroke:grey; " y2="85" x1="10" y1="85" x2="778.0"  />
</g>
<g id="a1_000"  >
<polygon locus_tag="SMF913_RS45195" id="dummy-1_h1_9_0" class="clusterblast-orf" style="stroke-width:1; fill:white; stroke:black; " description="&lt;b&gt;SMF913_RS45195&lt;/b&gt;&lt;br&gt;hypothetical protein&lt;br&gt;Location: 4857191 - 4855536" points="0,85 5,80 53,80 53,90 5,90 0,85 "  />
</g>
<g id="a1_001"  >
<polygon locus_tag="SMF913_RS45190" id="dummy-1_h1_9_1" class="clusterblast-orf" style="stroke-width:1; fill:white; stroke:black; " description="&lt;b&gt;SMF913_RS45190&lt;/b&gt;&lt;br&gt;AAA family ATPase&lt;br&gt;Location: 4855539 - 4851895" points="53,85 58,80 171,80 171,90 58,90 53,85 "  />
</g>
<g id="a1_002"  >
<polygon locus_tag="SMF913_RS45185" id="dummy-1_h1_9_2" class="clusterblast-orf" style="stroke-width:1; fill:white; stroke:black; " description="&lt;b&gt;SMF913_RS45185&lt;/b&gt;&lt;br&gt;hypothetical protein&lt;br&gt;Location: 4851365 - 4850769" points="188,90 203,90 208,85 203,80 188,80 188,90 "  />
</g>
<g id="a1_003"  >
<polygon locus_tag="SMF913_RS45180" id="dummy-1_h1_9_3" class="clusterblast-orf" style="stroke-width:1; fill:white; stroke:black; " description="&lt;b&gt;SMF913_RS45180&lt;/b&gt;&lt;br&gt;ImmA/IrrE family metallo-endopeptidase&lt;br&gt;Location: 4850761 - 4849601" points="208,90 240,90 245,85 240,80 208,80 208,90 "  />
</g>
<g id="a1_004"  >
<polygon locus_tag="SMF913_RS45175" id="dummy-1_h1_9_4" class="clusterblast-orf" style="stroke-width:1; fill:white; stroke:black; " description="&lt;b&gt;SMF913_RS45175&lt;/b&gt;&lt;br&gt;hypothetical protein&lt;br&gt;Location: 4849393 - 4848251" points="252,90 284,90 289,85 284,80 252,80 252,90 "  />
</g>
<g id="a1_005"  >
<polygon locus_tag="SMF913_RS45170" id="dummy-1_h1_9_5" class="clusterblast-orf" style="stroke-width:1; fill:#1585d8; stroke:black; " description="&lt;b&gt;SMF913_RS45170&lt;/b&gt;&lt;br&gt;bacteriocin biosynthesis protein&lt;br&gt;Location: 4848226 - 4847249&lt;br&gt;&lt;br&gt;&lt;b&gt;BlastP hit with cds4737_5694&lt;/b&gt;&lt;br&gt;Percentage identity: 49&lt;br&gt;Percentage coverage: 106&lt;br&gt;BLAST bit score: 292&lt;br&gt;E-value: 6.3e-77" points="290,85 295,80 322,80 322,90 295,90 290,85 "  />
</g>
<g id="a1_006"  >
<polygon locus_tag="SMF913_RS45165" id="dummy-1_h1_9_6" class="clusterblast-orf" style="stroke-width:1; fill:#a115d8; stroke:black; " description="&lt;b&gt;SMF913_RS45165&lt;/b&gt;&lt;br&gt;lanthionine synthetase C family protein&lt;br&gt;Location: 4847219 - 4846071&lt;br&gt;&lt;br&gt;&lt;b&gt;BlastP hit with cds5702_6203&lt;/b&gt;&lt;br&gt;Percentage identity: 67&lt;br&gt;Percentage coverage: 100&lt;br&gt;BLAST bit score: 232&lt;br&gt;E-value: 2.4e-59" points="323,85 328,80 360,80 360,90 328,90 323,85 "  />
</g>
<g id="a1_007"  >
<polygon locus_tag="SMF913_RS45160" id="dummy-1_h1_9_7" class="clusterblast-orf" style="stroke-width:1; fill:#a115d8; stroke:black; " description="&lt;b&gt;SMF913_RS45160&lt;/b&gt;&lt;br&gt;lantibiotic dehydratase&lt;br&gt;Location: 4846074 - 4843039&lt;br&gt;&lt;br&gt;&lt;b&gt;BlastP hit with cds6283_9445&lt;/b&gt;&lt;br&gt;Percentage identity: 61&lt;br&gt;Percentage coverage: 78&lt;br&gt;BLAST bit score: 967&lt;br&gt;E-value: 1.1e-279&lt;br&gt;&lt;br&gt;&lt;b&gt;BlastP hit with cds9423_9882&lt;/b&gt;&lt;br&gt;Percentage identity: 53&lt;br&gt;Percentage coverage: 96&lt;br&gt;BLAST bit score: 160&lt;br&gt;E-value: 1.4e-37" points="360,85 365,80 458,80 458,90 365,90 360,85 "  />
</g>
<g id="a1_008"  >
<polygon locus_tag="SMF913_RS45155" id="dummy-1_h1_9_8" class="clusterblast-orf" style="stroke-width:1; fill:#d86915; stroke:black; " description="&lt;b&gt;SMF913_RS45155&lt;/b&gt;&lt;br&gt;FxLD family lanthipeptide&lt;br&gt;Location: 4842969 - 4842781&lt;br&gt;&lt;br&gt;&lt;b&gt;BlastP hit with cds9955_10150&lt;/b&gt;&lt;br&gt;Percentage identity: 62&lt;br&gt;Percentage coverage: 95&lt;br&gt;BLAST bit score: 76&lt;br&gt;E-value: 1.4e-12" points="460,85 465,80 467,80 467,90 465,90 460,85 "  />
</g>
<g id="a1_009"  >
<polygon locus_tag="SMF913_RS45150" id="dummy-1_h1_9_9" class="clusterblast-orf" style="stroke-width:1; fill:#15d831; stroke:black; " description="&lt;b&gt;SMF913_RS45150&lt;/b&gt;&lt;br&gt;methyltransferase, FxLD system&lt;br&gt;Location: 4842713 - 4841482&lt;br&gt;&lt;br&gt;&lt;b&gt;BlastP hit with cds10209_10509&lt;/b&gt;&lt;br&gt;Percentage identity: 81&lt;br&gt;Percentage coverage: 37&lt;br&gt;BLAST bit score: 68&lt;br&gt;E-value: 3.5e-10&lt;br&gt;&lt;br&gt;&lt;b&gt;BlastP hit with cds10612_11257&lt;/b&gt;&lt;br&gt;Percentage identity: 53&lt;br&gt;Percentage coverage: 74&lt;br&gt;BLAST bit score: 141&lt;br&gt;E-value: 1.2e-31&lt;br&gt;&lt;br&gt;&lt;b&gt;BlastP hit with cds11253_11439&lt;/b&gt;&lt;br&gt;Percentage identity: 62&lt;br&gt;Percentage coverage: 98&lt;br&gt;BLAST bit score: 66&lt;br&gt;E-value: 1.4e-09" points="469,85 474,80 509,80 509,90 474,90 469,85 "  />
</g>
<g id="a1_0010"  >
<polygon locus_tag="SMF913_RS49240" id="dummy-1_h1_9_10" class="clusterblast-orf" style="stroke-width:1; fill:white; stroke:black; " description="&lt;b&gt;SMF913_RS49240&lt;/b&gt;&lt;br&gt;hypothetical protein&lt;br&gt;Location: 4841332 - 4841162" points="513,85 518,80 519,80 519,90 518,90 513,85 "  />
</g>
<g id="a1_0011"  >
<polygon locus_tag="SMF913_RS45145" id="dummy-1_h1_9_11" class="clusterblast-orf" style="stroke-width:1; fill:white; stroke:black; " description="&lt;b&gt;SMF913_RS45145&lt;/b&gt;&lt;br&gt;hypothetical protein&lt;br&gt;Location: 4840934 - 4840572" points="526,85 531,80 538,80 538,90 531,90 526,85 "  />
</g>
<g id="a1_0012"  >
<polygon locus_tag="SMF913_RS45140" id="dummy-1_h1_9_12" class="clusterblast-orf" style="stroke-width:1; fill:white; stroke:black; " description="&lt;b&gt;SMF913_RS45140&lt;/b&gt;&lt;br&gt;hypothetical protein&lt;br&gt;Location: 4840377 - 4839970" points="544,90 553,90 558,85 553,80 544,80 544,90 "  />
</g>
<g id="a1_0013"  >
<polygon locus_tag="SMF913_RS45135" id="dummy-1_h1_9_13" class="clusterblast-orf" style="stroke-width:1; fill:white; stroke:black; " description="&lt;b&gt;SMF913_RS45135&lt;/b&gt;&lt;br&gt;hypothetical protein&lt;br&gt;Location: 4839998 - 4839474" points="557,90 569,90 574,85 569,80 557,80 557,90 "  />
</g>
<g id="a1_0014"  >
<polygon locus_tag="SMF913_RS45130" id="dummy-1_h1_9_14" class="clusterblast-orf" style="stroke-width:1; fill:white; stroke:black; " description="&lt;b&gt;SMF913_RS45130&lt;/b&gt;&lt;br&gt;helix-turn-helix domain-containing protein&lt;br&gt;Location: 4839466 - 4838612" points="574,90 597,90 602,85 597,80 574,80 574,90 "  />
</g>
<g id="a1_0015"  >
<polygon locus_tag="SMF913_RS45125" id="dummy-1_h1_9_15" class="clusterblast-orf" style="stroke-width:1; fill:white; stroke:black; " description="&lt;b&gt;SMF913_RS45125&lt;/b&gt;&lt;br&gt;DUF397 domain-containing protein&lt;br&gt;Location: 4838598 - 4838419" points="602,90 603,90 608,85 603,80 602,80 602,90 "  />
</g>
<g id="a1_0016"  >
<polygon locus_tag="SMF913_RS45120" id="dummy-1_h1_9_16" class="clusterblast-orf" style="stroke-width:1; fill:white; stroke:black; " description="&lt;b&gt;SMF913_RS45120&lt;/b&gt;&lt;br&gt;relaxase/mobilization nuclease domain-containing protein&lt;br&gt;Location: 4838418 - 4836724" points="608,85 613,80 663,80 663,90 613,90 608,85 "  />
</g>
<g id="a1_0017"  >
<polygon locus_tag="SMF913_RS45115" id="dummy-1_h1_9_17" class="clusterblast-orf" style="stroke-width:1; fill:white; stroke:black; " description="&lt;b&gt;SMF913_RS45115&lt;/b&gt;&lt;br&gt;plasmid mobilization relaxosome protein MobC&lt;br&gt;Location: 4836719 - 4836348" points="663,85 668,80 675,80 675,90 668,90 663,85 "  />
</g>
<g id="a1_0018"  >
<polygon locus_tag="SMF913_RS45110" id="dummy-1_h1_9_18" class="clusterblast-orf" style="stroke-width:1; fill:white; stroke:black; " description="&lt;b&gt;SMF913_RS45110&lt;/b&gt;&lt;br&gt;DUF2637 domain-containing protein&lt;br&gt;Location: 4835938 - 4835027" points="688,85 693,80 718,80 718,90 693,90 688,85 "  />
</g>
<g id="a1_0019"  >
<polygon locus_tag="SMF913_RS45105" id="dummy-1_h1_9_19" class="clusterblast-orf" style="stroke-width:1; fill:white; stroke:black; " description="&lt;b&gt;SMF913_RS45105&lt;/b&gt;&lt;br&gt;DUF3631 domain-containing protein&lt;br&gt;Location: 4834870 - 4833584" points="723,85 728,80 765,80 765,90 728,90 723,85 "  />
</g>
<g id="a1_0020"  >
<polygon locus_tag="SMF913_RS45100" id="dummy-1_h1_9_20" class="clusterblast-orf" style="stroke-width:1; fill:white; stroke:black; " description="&lt;b&gt;SMF913_RS45100&lt;/b&gt;&lt;br&gt;hypothetical protein&lt;br&gt;Location: 4833353 - 4833123" points="772,85 777,80 780,80 780,90 777,90 772,85 "  />
</g>
</svg>
