<svg width="800" version="1.1" x="0" y="0" preserveAspectRatio="none" xmlns:xlink="http://www.w3.org/1999/xlink" height="230" xmlns="http://www.w3.org/2000/svg" viewBox="0 0 800 230"  >
<g label="Query sequence" class="clusterblast-cluster"  >
<text class="clusterblast-acc" x="5" y="20"  >
Query sequence</text>
<line style="stroke-width:1; stroke:grey; " y2="35" x1="10" y1="35" x2="778.0"  />
<polygon locus_tag="cds34597_35284" id="dummy-1_q0_0_all" class="clusterblast-orf" style="stroke-width:1; fill:#d81515; stroke:black; " description="&lt;b&gt;cds34597_35284&lt;/b&gt;&lt;br&gt;Glycerol-1-phosphate dehydrogenase [NAD(P)+] (EC 1.1.1.261)&lt;br&gt;Location: 34597 - 35284" points="189,40 205,40 210,35 205,30 189,30 189,40 "  />
<polygon locus_tag="cds35277_35658" id="dummy-1_q1_0_all" class="clusterblast-orf" style="stroke-width:1; fill:#d81515; stroke:black; " description="&lt;b&gt;cds35277_35658&lt;/b&gt;&lt;br&gt;Glycerol-1-phosphate dehydrogenase [NAD(P)+] (EC 1.1.1.261)&lt;br&gt;Location: 35277 - 35658" points="210,40 216,40 221,35 216,30 210,30 210,40 "  />
<polygon locus_tag="cds35688_35808" id="dummy-1_q2_0_all" class="clusterblast-orf" style="stroke-width:1; fill:#3cd815; stroke:black; " description="&lt;b&gt;cds35688_35808&lt;/b&gt;&lt;br&gt;CDP-diacylglycerol--glycerol-3-phosphate 3-phosphatidyltransferase (EC 2.7.8.5)&lt;br&gt;Location: 35688 - 35808" points="222,40 226,35 222,30 222,40 "  />
<polygon locus_tag="cds36004_36418" id="dummy-1_q3_0_all" class="clusterblast-orf" style="stroke-width:1; fill:#3cd815; stroke:black; " description="&lt;b&gt;cds36004_36418&lt;/b&gt;&lt;br&gt;CDP-alcohol phosphatidyltransferase family protein&lt;br&gt;Location: 36004 - 36418" points="232,40 239,40 244,35 239,30 232,30 232,40 "  />
<polygon locus_tag="cds36446_36887" id="dummy-1_q4_0_all" class="clusterblast-orf" style="stroke-width:1; fill:#1563d8; stroke:black; " description="&lt;b&gt;cds36446_36887&lt;/b&gt;&lt;br&gt;Putative glycosyltransferase&lt;br&gt;Location: 36446 - 36887" points="245,40 254,40 259,35 254,30 245,30 245,40 "  />
<polygon locus_tag="cds36841_37093" id="dummy-1_q5_0_all" class="clusterblast-orf" style="stroke-width:1; fill:#1563d8; stroke:black; " description="&lt;b&gt;cds36841_37093&lt;/b&gt;&lt;br&gt;Putative glycosyltransferase&lt;br&gt;Location: 36841 - 37093" points="257,40 260,40 265,35 260,30 257,30 257,40 "  />
<polygon locus_tag="cds37089_37299" id="dummy-1_q6_0_all" class="clusterblast-orf" style="stroke-width:1; fill:#1563d8; stroke:black; " description="&lt;b&gt;cds37089_37299&lt;/b&gt;&lt;br&gt;Putative glycosyltransferase&lt;br&gt;Location: 37089 - 37299" points="265,40 266,40 271,35 266,30 265,30 265,40 "  />
<polygon locus_tag="cds37495_37999" id="dummy-1_q7_0_all" class="clusterblast-orf" style="stroke-width:1; fill:#b115d8; stroke:black; " description="&lt;b&gt;cds37495_37999&lt;/b&gt;&lt;br&gt;O-antigen export system, permease protein&lt;br&gt;Location: 37495 - 37999" points="277,40 287,40 292,35 287,30 277,30 277,40 "  />
<polygon locus_tag="cds37971_38187" id="dummy-1_q8_0_all" class="clusterblast-orf" style="stroke-width:1; fill:#b115d8; stroke:black; " description="&lt;b&gt;cds37971_38187&lt;/b&gt;&lt;br&gt;O-antigen export system, permease protein&lt;br&gt;Location: 37971 - 38187" points="292,40 293,40 298,35 293,30 292,30 292,40 "  />
<polygon locus_tag="cds38162_38315" id="dummy-1_q9_0_all" class="clusterblast-orf" style="stroke-width:1; fill:#b115d8; stroke:black; " description="&lt;b&gt;cds38162_38315&lt;/b&gt;&lt;br&gt;O-antigen export system, permease protein&lt;br&gt;Location: 38162 - 38315" points="297,40 297,40 302,35 297,30 297,30 297,40 "  />
<polygon locus_tag="cds38307_39048" id="dummy-1_q10_0_all" class="clusterblast-orf" style="stroke-width:1; fill:#d88a15; stroke:black; " description="&lt;b&gt;cds38307_39048&lt;/b&gt;&lt;br&gt;ABC transporter, ATP-binding protein&lt;br&gt;Location: 38307 - 39048" points="302,40 319,40 324,35 319,30 302,30 302,40 "  />
<polygon locus_tag="cds39279_39966" id="dummy-1_q11_0_all" class="clusterblast-orf" style="stroke-width:1; fill:white; stroke:black; " description="&lt;b&gt;cds39279_39966&lt;/b&gt;&lt;br&gt;hypothetical protein&lt;br&gt;Location: 39279 - 39966" points="331,35 336,30 352,30 352,40 336,40 331,35 "  />
<polygon locus_tag="cds40004_40364" id="dummy-1_q12_0_all" class="clusterblast-orf" style="stroke-width:1; fill:white; stroke:black; " description="&lt;b&gt;cds40004_40364&lt;/b&gt;&lt;br&gt;hypothetical protein&lt;br&gt;Location: 40004 - 40364" points="353,35 358,30 364,30 364,40 358,40 353,35 "  />
<polygon locus_tag="cds40703_41483" id="dummy-1_q13_0_all" class="clusterblast-orf" style="stroke-width:1; fill:white; stroke:black; " description="&lt;b&gt;cds40703_41483&lt;/b&gt;&lt;br&gt;hypothetical protein&lt;br&gt;Location: 40703 - 41483" points="374,35 379,30 398,30 398,40 379,40 374,35 "  />
<polygon locus_tag="cds41508_42039" id="dummy-1_q14_0_all" class="clusterblast-orf" style="stroke-width:1; fill:#15d863; stroke:black; " description="&lt;b&gt;cds41508_42039&lt;/b&gt;&lt;br&gt;Squalene/phytoene desaturase HopC&lt;br&gt;Location: 41508 - 42039" points="399,40 410,40 415,35 410,30 399,30 399,40 "  />
<polygon locus_tag="cds42817_43798" id="dummy-1_q15_0_all" class="clusterblast-orf" style="stroke-width:1; fill:#3c15d8; stroke:black; " description="&lt;b&gt;cds42817_43798&lt;/b&gt;&lt;br&gt;(2E,6E)-farnesyl diphosphate synthase (EC 2.5.1.10)&lt;br&gt;Location: 42817 - 43798" points="439,40 463,40 468,35 463,30 439,30 439,40 "  />
<polygon locus_tag="cds44293_44977" id="dummy-1_q16_0_all" class="clusterblast-orf" style="stroke-width:1; fill:#d8158a; stroke:black; " description="&lt;b&gt;cds44293_44977&lt;/b&gt;&lt;br&gt;Squalene---hopene cyclase (EC 5.4.99.17) @ Squalene---hopanol cyclase (EC 4.2.1.129)&lt;br&gt;Location: 44293 - 44977" points="483,40 499,40 504,35 499,30 483,30 483,40 "  />
<polygon locus_tag="cds44973_45855" id="dummy-1_q17_0_all" class="clusterblast-orf" style="stroke-width:1; fill:#d8158a; stroke:black; " description="&lt;b&gt;cds44973_45855&lt;/b&gt;&lt;br&gt;Squalene---hopene cyclase (EC 5.4.99.17) @ Squalene---hopanol cyclase (EC 4.2.1.129)&lt;br&gt;Location: 44973 - 45855" points="504,40 526,40 531,35 526,30 504,30 504,40 "  />
<polygon locus_tag="cds45826_46159" id="dummy-1_q18_0_all" class="clusterblast-orf" style="stroke-width:1; fill:#d8158a; stroke:black; " description="&lt;b&gt;cds45826_46159&lt;/b&gt;&lt;br&gt;Squalene---hopene cyclase (EC 5.4.99.17) @ Squalene---hopanol cyclase (EC 4.2.1.129)&lt;br&gt;Location: 45826 - 46159" points="530,40 535,40 540,35 535,30 530,30 530,40 "  />
<polygon locus_tag="cds46158_46665" id="dummy-1_q19_0_all" class="clusterblast-orf" style="stroke-width:1; fill:#b1d815; stroke:black; " description="&lt;b&gt;cds46158_46665&lt;/b&gt;&lt;br&gt;Adenosylhopane nucleosidase, HpnG&lt;br&gt;Location: 46158 - 46665" points="540,40 550,40 555,35 550,30 540,30 540,40 "  />
<polygon locus_tag="cds46755_46869" id="dummy-1_q20_0_all" class="clusterblast-orf" style="stroke-width:1; fill:#15d8d8; stroke:black; " description="&lt;b&gt;cds46755_46869&lt;/b&gt;&lt;br&gt;hypothetical protein&lt;br&gt;Location: 46755 - 46869" points="558,40 561,35 558,30 558,40 "  />
<polygon locus_tag="cds46865_47048" id="dummy-1_q21_0_all" class="clusterblast-orf" style="stroke-width:1; fill:#15d8d8; stroke:black; " description="&lt;b&gt;cds46865_47048&lt;/b&gt;&lt;br&gt;Radical SAM protein required for addition of adenosine to hopane skeleton, HpnH&lt;br&gt;Location: 46865 - 47048" points="561,40 562,40 567,35 562,30 561,30 561,40 "  />
<polygon locus_tag="cds47387_47822" id="dummy-1_q22_0_all" class="clusterblast-orf" style="stroke-width:1; fill:#15d8d8; stroke:black; " description="&lt;b&gt;cds47387_47822&lt;/b&gt;&lt;br&gt;Radical SAM protein required for addition of adenosine to hopane skeleton, HpnH&lt;br&gt;Location: 47387 - 47822" points="577,40 585,40 590,35 585,30 577,30 577,40 "  />
</g>
<g label="NZ_CP023696" description="NZ_CP023696 (6121726-6147439): Streptomyces fradiae ATCC 10745 = DSM 40063 st... (45% of genes show similarity), terpene" class="clusterblast-cluster"  >
<text class="clusterblast-acc" x="5" y="70"  >
<a xlink:href="https://antismash-db.secondarymetabolites.org/area.html?record=NZ_CP023696&amp;start=6121726&amp;end=6147439" target="_blank">NZ_CP023696 (6121726-6147439)</a>: Streptomyces fradiae ATCC 10745 = DSM 40063 st... (45% of genes show similarity), terpene</text>
<line style="stroke-width:1; stroke:grey; " y2="85" x1="10" y1="85" x2="778.0"  />
</g>
<g id="a1_000"  >
<polygon locus_tag="CP974_RS26780" id="dummy-1_h1_1_0" class="clusterblast-orf" style="stroke-width:1; fill:white; stroke:black; " description="&lt;b&gt;CP974_RS26780&lt;/b&gt;&lt;br&gt;N-acetyltransferase&lt;br&gt;Location: 6121727 - 6122266" points="0,85 5,80 16,80 16,90 5,90 0,85 "  />
</g>
<g id="a1_001"  >
<polygon locus_tag="CP974_RS26785" id="dummy-1_h1_1_1" class="clusterblast-orf" style="stroke-width:1; fill:white; stroke:black; " description="&lt;b&gt;CP974_RS26785&lt;/b&gt;&lt;br&gt;cation transporter&lt;br&gt;Location: 6122263 - 6123204" points="16,85 21,80 44,80 44,90 21,90 16,85 "  />
</g>
<g id="a1_002"  >
<polygon locus_tag="CP974_RS26790" id="dummy-1_h1_1_2" class="clusterblast-orf" style="stroke-width:1; fill:white; stroke:black; " description="&lt;b&gt;CP974_RS26790&lt;/b&gt;&lt;br&gt;CDP-alcohol phosphatidyltransferase family protein&lt;br&gt;Location: 6123583 - 6125544" points="56,90 110,90 115,85 110,80 56,80 56,90 "  />
</g>
<g id="a1_003"  >
<polygon locus_tag="CP974_RS26795" id="dummy-1_h1_1_3" class="clusterblast-orf" style="stroke-width:1; fill:white; stroke:black; " description="&lt;b&gt;CP974_RS26795&lt;/b&gt;&lt;br&gt;phosphocholine cytidylyltransferase family protein&lt;br&gt;Location: 6125541 - 6126278" points="115,90 133,90 138,85 133,80 115,80 115,90 "  />
</g>
<g id="a1_004"  >
<polygon locus_tag="CP974_RS26800" id="dummy-1_h1_1_4" class="clusterblast-orf" style="stroke-width:1; fill:#d81515; stroke:black; " description="&lt;b&gt;CP974_RS26800&lt;/b&gt;&lt;br&gt;iron-containing alcohol dehydrogenase family protein&lt;br&gt;Location: 6126266 - 6127327&lt;br&gt;&lt;br&gt;&lt;b&gt;BlastP hit with cds34597_35284&lt;/b&gt;&lt;br&gt;Percentage identity: 88&lt;br&gt;Percentage coverage: 97&lt;br&gt;BLAST bit score: 391&lt;br&gt;E-value: 7.2e-107&lt;br&gt;&lt;br&gt;&lt;b&gt;BlastP hit with cds35277_35658&lt;/b&gt;&lt;br&gt;Percentage identity: 61&lt;br&gt;Percentage coverage: 98&lt;br&gt;BLAST bit score: 142&lt;br&gt;E-value: 3.2e-32" points="137,90 164,90 169,85 164,80 137,80 137,90 "  />
</g>
<g id="a1_005"  >
<polygon locus_tag="CP974_RS26805" id="dummy-1_h1_1_5" class="clusterblast-orf" style="stroke-width:1; fill:#3cd815; stroke:black; " description="&lt;b&gt;CP974_RS26805&lt;/b&gt;&lt;br&gt;CDP-alcohol phosphatidyltransferase family protein&lt;br&gt;Location: 6127305 - 6128084&lt;br&gt;&lt;br&gt;&lt;b&gt;BlastP hit with cds35688_35808&lt;/b&gt;&lt;br&gt;Percentage identity: 88&lt;br&gt;Percentage coverage: 85&lt;br&gt;BLAST bit score: 61&lt;br&gt;E-value: 2.9e-08&lt;br&gt;&lt;br&gt;&lt;b&gt;BlastP hit with cds36004_36418&lt;/b&gt;&lt;br&gt;Percentage identity: 88&lt;br&gt;Percentage coverage: 100&lt;br&gt;BLAST bit score: 227&lt;br&gt;E-value: 1.1e-57" points="169,90 187,90 192,85 187,80 169,80 169,90 "  />
</g>
<g id="a1_006"  >
<polygon locus_tag="CP974_RS26810" id="dummy-1_h1_1_6" class="clusterblast-orf" style="stroke-width:1; fill:#1563d8; stroke:black; " description="&lt;b&gt;CP974_RS26810&lt;/b&gt;&lt;br&gt;glycosyltransferase&lt;br&gt;Location: 6128090 - 6128962&lt;br&gt;&lt;br&gt;&lt;b&gt;BlastP hit with cds36446_36887&lt;/b&gt;&lt;br&gt;Percentage identity: 83&lt;br&gt;Percentage coverage: 82&lt;br&gt;BLAST bit score: 201&lt;br&gt;E-value: 3.9e-50&lt;br&gt;&lt;br&gt;&lt;b&gt;BlastP hit with cds36841_37093&lt;/b&gt;&lt;br&gt;Percentage identity: 88&lt;br&gt;Percentage coverage: 90&lt;br&gt;BLAST bit score: 145&lt;br&gt;E-value: 2.5e-33&lt;br&gt;&lt;br&gt;&lt;b&gt;BlastP hit with cds37089_37299&lt;/b&gt;&lt;br&gt;Percentage identity: 87&lt;br&gt;Percentage coverage: 90&lt;br&gt;BLAST bit score: 126&lt;br&gt;E-value: 7.6e-28" points="193,90 214,90 219,85 214,80 193,80 193,90 "  />
</g>
<g id="a1_007"  >
<polygon locus_tag="CP974_RS26815" id="dummy-1_h1_1_7" class="clusterblast-orf" style="stroke-width:1; fill:#b115d8; stroke:black; " description="&lt;b&gt;CP974_RS26815&lt;/b&gt;&lt;br&gt;ABC transporter permease&lt;br&gt;Location: 6129070 - 6129999&lt;br&gt;&lt;br&gt;&lt;b&gt;BlastP hit with cds37495_37999&lt;/b&gt;&lt;br&gt;Percentage identity: 82&lt;br&gt;Percentage coverage: 72&lt;br&gt;BLAST bit score: 191&lt;br&gt;E-value: 8e-47&lt;br&gt;&lt;br&gt;&lt;b&gt;BlastP hit with cds37971_38187&lt;/b&gt;&lt;br&gt;Percentage identity: 86&lt;br&gt;Percentage coverage: 83&lt;br&gt;BLAST bit score: 110&lt;br&gt;E-value: 5.8e-23&lt;br&gt;&lt;br&gt;&lt;b&gt;BlastP hit with cds38162_38315&lt;/b&gt;&lt;br&gt;Percentage identity: 84&lt;br&gt;Percentage coverage: 100&lt;br&gt;BLAST bit score: 96&lt;br&gt;E-value: 8e-19" points="222,90 245,90 250,85 245,80 222,80 222,90 "  />
</g>
<g id="a1_008"  >
<polygon locus_tag="CP974_RS26820" id="dummy-1_h1_1_8" class="clusterblast-orf" style="stroke-width:1; fill:#d88a15; stroke:black; " description="&lt;b&gt;CP974_RS26820&lt;/b&gt;&lt;br&gt;ABC transporter ATP-binding protein&lt;br&gt;Location: 6130004 - 6130792&lt;br&gt;&lt;br&gt;&lt;b&gt;BlastP hit with cds38307_39048&lt;/b&gt;&lt;br&gt;Percentage identity: 73&lt;br&gt;Percentage coverage: 79&lt;br&gt;BLAST bit score: 260&lt;br&gt;E-value: 1.2e-67" points="251,90 269,90 274,85 269,80 251,80 251,90 "  />
</g>
<g id="a1_009"  >
<polygon locus_tag="CP974_RS26825" id="dummy-1_h1_1_9" class="clusterblast-orf" style="stroke-width:1; fill:white; stroke:black; " description="&lt;b&gt;CP974_RS26825&lt;/b&gt;&lt;br&gt;squalene synthase HpnC&lt;br&gt;Location: 6131275 - 6132216" points="289,90 313,90 318,85 313,80 289,80 289,90 "  />
</g>
<g id="a1_0010"  >
<polygon locus_tag="CP974_RS26830" id="dummy-1_h1_1_10" class="clusterblast-orf" style="stroke-width:1; fill:white; stroke:black; " description="&lt;b&gt;CP974_RS26830&lt;/b&gt;&lt;br&gt;presqualene diphosphate synthase HpnD&lt;br&gt;Location: 6132213 - 6133163" points="318,90 341,90 346,85 341,80 318,80 318,90 "  />
</g>
<g id="a1_0011"  >
<polygon locus_tag="CP974_RS26835" id="dummy-1_h1_1_11" class="clusterblast-orf" style="stroke-width:1; fill:#15d863; stroke:black; " description="&lt;b&gt;CP974_RS26835&lt;/b&gt;&lt;br&gt;NAD(P)-binding protein&lt;br&gt;Location: 6133201 - 6134574&lt;br&gt;&lt;br&gt;&lt;b&gt;BlastP hit with cds41508_42039&lt;/b&gt;&lt;br&gt;Percentage identity: 59&lt;br&gt;Percentage coverage: 99&lt;br&gt;BLAST bit score: 185&lt;br&gt;E-value: 4.6e-45" points="348,90 384,90 389,85 384,80 348,80 348,90 "  />
</g>
<g id="a1_0012"  >
<polygon locus_tag="CP974_RS26840" id="dummy-1_h1_1_12" class="clusterblast-orf" style="stroke-width:1; fill:#3c15d8; stroke:black; " description="&lt;b&gt;CP974_RS26840&lt;/b&gt;&lt;br&gt;polyprenyl synthetase family protein&lt;br&gt;Location: 6134613 - 6135671&lt;br&gt;&lt;br&gt;&lt;b&gt;BlastP hit with cds42817_43798&lt;/b&gt;&lt;br&gt;Percentage identity: 95&lt;br&gt;Percentage coverage: 100&lt;br&gt;BLAST bit score: 606&lt;br&gt;E-value: 1.2e-171" points="390,90 418,90 423,85 418,80 390,80 390,90 "  />
</g>
<g id="a1_0013"  >
<polygon locus_tag="CP974_RS26845" id="dummy-1_h1_1_13" class="clusterblast-orf" style="stroke-width:1; fill:#d8158a; stroke:black; " description="&lt;b&gt;CP974_RS26845&lt;/b&gt;&lt;br&gt;squalene--hopene cyclase&lt;br&gt;Location: 6135846 - 6137972&lt;br&gt;&lt;br&gt;&lt;b&gt;BlastP hit with cds44293_44977&lt;/b&gt;&lt;br&gt;Percentage identity: 73&lt;br&gt;Percentage coverage: 98&lt;br&gt;BLAST bit score: 322&lt;br&gt;E-value: 4.1e-86&lt;br&gt;&lt;br&gt;&lt;b&gt;BlastP hit with cds44973_45855&lt;/b&gt;&lt;br&gt;Percentage identity: 93&lt;br&gt;Percentage coverage: 30&lt;br&gt;BLAST bit score: 178&lt;br&gt;E-value: 7.2e-43&lt;br&gt;&lt;br&gt;&lt;b&gt;BlastP hit with cds45826_46159&lt;/b&gt;&lt;br&gt;Percentage identity: 52&lt;br&gt;Percentage coverage: 93&lt;br&gt;BLAST bit score: 89&lt;br&gt;E-value: 1.6e-16" points="428,90 487,90 492,85 487,80 428,80 428,90 "  />
</g>
<g id="a1_0014"  >
<polygon locus_tag="CP974_RS26850" id="dummy-1_h1_1_14" class="clusterblast-orf" style="stroke-width:1; fill:#b1d815; stroke:black; " description="&lt;b&gt;CP974_RS26850&lt;/b&gt;&lt;br&gt;hypothetical protein&lt;br&gt;Location: 6138390 - 6139037&lt;br&gt;&lt;br&gt;&lt;b&gt;BlastP hit with cds46158_46665&lt;/b&gt;&lt;br&gt;Percentage identity: 45&lt;br&gt;Percentage coverage: 65&lt;br&gt;BLAST bit score: 55&lt;br&gt;E-value: 6.9e-06" points="505,90 520,90 525,85 520,80 505,80 505,90 "  />
</g>
<g id="a1_0015"  >
<polygon locus_tag="CP974_RS26855" id="dummy-1_h1_1_15" class="clusterblast-orf" style="stroke-width:1; fill:#15d8d8; stroke:black; " description="&lt;b&gt;CP974_RS26855&lt;/b&gt;&lt;br&gt;adenosyl-hopene transferase HpnH&lt;br&gt;Location: 6139004 - 6140065&lt;br&gt;&lt;br&gt;&lt;b&gt;BlastP hit with cds46755_46869&lt;/b&gt;&lt;br&gt;Percentage identity: 88&lt;br&gt;Percentage coverage: 89&lt;br&gt;BLAST bit score: 54&lt;br&gt;E-value: 3.4e-06&lt;br&gt;&lt;br&gt;&lt;b&gt;BlastP hit with cds46865_47048&lt;/b&gt;&lt;br&gt;Percentage identity: 85&lt;br&gt;Percentage coverage: 57&lt;br&gt;BLAST bit score: 61&lt;br&gt;E-value: 4.5e-08&lt;br&gt;&lt;br&gt;&lt;b&gt;BlastP hit with cds47387_47822&lt;/b&gt;&lt;br&gt;Percentage identity: 79&lt;br&gt;Percentage coverage: 100&lt;br&gt;BLAST bit score: 243&lt;br&gt;E-value: 1.5e-62" points="524,90 551,90 556,85 551,80 524,80 524,90 "  />
</g>
<g id="a1_0016"  >
<polygon locus_tag="CP974_RS26860" id="dummy-1_h1_1_16" class="clusterblast-orf" style="stroke-width:1; fill:white; stroke:black; " description="&lt;b&gt;CP974_RS26860&lt;/b&gt;&lt;br&gt;aspartate aminotransferase family protein&lt;br&gt;Location: 6140079 - 6141464" points="556,90 593,90 598,85 593,80 556,80 556,90 "  />
</g>
<g id="a1_0017"  >
<polygon locus_tag="CP974_RS26865" id="dummy-1_h1_1_17" class="clusterblast-orf" style="stroke-width:1; fill:white; stroke:black; " description="&lt;b&gt;CP974_RS26865&lt;/b&gt;&lt;br&gt;helix-turn-helix transcriptional regulator&lt;br&gt;Location: 6141523 - 6142134" points="600,90 614,90 619,85 614,80 600,80 600,90 "  />
</g>
<g id="a1_0018"  >
<polygon locus_tag="CP974_RS26870" id="dummy-1_h1_1_18" class="clusterblast-orf" style="stroke-width:1; fill:white; stroke:black; " description="&lt;b&gt;CP974_RS26870&lt;/b&gt;&lt;br&gt;tyrosine-protein phosphatase&lt;br&gt;Location: 6142358 - 6143170" points="625,85 630,80 650,80 650,90 630,90 625,85 "  />
</g>
<g id="a1_0019"  >
<polygon locus_tag="CP974_RS26875" id="dummy-1_h1_1_19" class="clusterblast-orf" style="stroke-width:1; fill:white; stroke:black; " description="&lt;b&gt;CP974_RS26875&lt;/b&gt;&lt;br&gt;M23 family metallopeptidase&lt;br&gt;Location: 6144271 - 6145218" points="683,90 707,90 712,85 707,80 683,80 683,90 "  />
</g>
<g id="a1_0020"  >
<polygon locus_tag="CP974_RS26880" id="dummy-1_h1_1_20" class="clusterblast-orf" style="stroke-width:1; fill:white; stroke:black; " description="&lt;b&gt;CP974_RS26880&lt;/b&gt;&lt;br&gt;SGNH/GDSL hydrolase family protein&lt;br&gt;Location: 6145382 - 6146158" points="717,90 736,90 741,85 736,80 717,80 717,90 "  />
</g>
<g id="a1_0021"  >
<polygon locus_tag="CP974_RS26885" id="dummy-1_h1_1_21" class="clusterblast-orf" style="stroke-width:1; fill:white; stroke:black; " description="&lt;b&gt;CP974_RS26885&lt;/b&gt;&lt;br&gt;MBL fold metallo-hydrolase&lt;br&gt;Location: 6146240 - 6147439" points="743,90 775,90 780,85 775,80 743,80 743,90 "  />
</g>
</svg>
