<svg width="800" version="1.1" x="0" y="0" preserveAspectRatio="none" xmlns:xlink="http://www.w3.org/1999/xlink" height="230" xmlns="http://www.w3.org/2000/svg" viewBox="0 0 800 230"  >
<g label="Query sequence" class="clusterblast-cluster"  >
<text class="clusterblast-acc" x="5" y="20"  >
Query sequence</text>
<line style="stroke-width:1; stroke:grey; " y2="35" x1="10" y1="35" x2="778.0"  />
<polygon locus_tag="cds1_304" id="dummy-1_q0_0_all" class="clusterblast-orf" style="stroke-width:1; fill:white; stroke:black; " description="&lt;b&gt;cds1_304&lt;/b&gt;&lt;br&gt;putative LysR-family transcriptional regulator&lt;br&gt;Location: 1 - 304" points="43,35 48,30 68,30 68,40 48,40 43,35 "  />
<polygon locus_tag="cds1088_1631" id="dummy-1_q1_0_all" class="clusterblast-orf" style="stroke-width:1; fill:#d81515; stroke:black; " description="&lt;b&gt;cds1088_1631&lt;/b&gt;&lt;br&gt;L-2,4-diaminobutyric acid acetyltransferase (EC 2.3.1.178)&lt;br&gt;Location: 1088 - 1631" points="135,40 177,40 182,35 177,30 135,30 135,40 "  />
<polygon locus_tag="cds1765_3034" id="dummy-1_q2_0_all" class="clusterblast-orf" style="stroke-width:1; fill:#4dd815; stroke:black; " description="&lt;b&gt;cds1765_3034&lt;/b&gt;&lt;br&gt;Diaminobutyrate--2-oxoglutarate transaminase (EC 2.6.1.76)&lt;br&gt;Location: 1765 - 3034" points="193,40 296,40 301,35 296,30 193,30 193,40 "  />
<polygon locus_tag="cds3081_3480" id="dummy-1_q3_0_all" class="clusterblast-orf" style="stroke-width:1; fill:#1585d8; stroke:black; " description="&lt;b&gt;cds3081_3480&lt;/b&gt;&lt;br&gt;L-ectoine synthase (EC 4.2.1.108)&lt;br&gt;Location: 3081 - 3480" points="305,40 334,40 339,35 334,30 305,30 305,40 "  />
<polygon locus_tag="cds3485_4343" id="dummy-1_q4_0_all" class="clusterblast-orf" style="stroke-width:1; fill:#d815bc; stroke:black; " description="&lt;b&gt;cds3485_4343&lt;/b&gt;&lt;br&gt;Ectoine hydroxylase&lt;br&gt;Location: 3485 - 4343" points="340,40 408,40 413,35 408,30 340,30 340,40 "  />
<polygon locus_tag="cds4463_5516" id="dummy-1_q5_0_all" class="clusterblast-orf" style="stroke-width:1; fill:#d8bc15; stroke:black; " description="&lt;b&gt;cds4463_5516&lt;/b&gt;&lt;br&gt;Cysteine desulfurase (EC 2.8.1.7)&lt;br&gt;Location: 4463 - 5516" points="423,35 428,30 513,30 513,40 428,40 423,35 "  />
<polygon locus_tag="cds5754_7284" id="dummy-1_q6_0_all" class="clusterblast-orf" style="stroke-width:1; fill:#15d885; stroke:black; " description="&lt;b&gt;cds5754_7284&lt;/b&gt;&lt;br&gt;2,5-dioxovalerate dehydrogenase (EC 1.2.1.26)&lt;br&gt;Location: 5754 - 7284" points="533,35 538,30 663,30 663,40 538,40 533,35 "  />
<polygon locus_tag="cds7389_8160" id="dummy-1_q7_0_all" class="clusterblast-orf" style="stroke-width:1; fill:#4d15d8; stroke:black; " description="&lt;b&gt;cds7389_8160&lt;/b&gt;&lt;br&gt;Transcriptional regulator, IclR family&lt;br&gt;Location: 7389 - 8160" points="672,40 733,40 738,35 733,30 672,30 672,40 "  />
</g>
<g label="NZ_LJIW01000001" description="NZ_LJIW01000001 (3223360-3233765): Streptomyces malaysiensis strain F913 SMF9... (77% of genes show similarity), ectoine" class="clusterblast-cluster"  >
<text class="clusterblast-acc" x="5" y="70"  >
<a xlink:href="https://antismash-db.secondarymetabolites.org/area.html?record=NZ_LJIW01000001&amp;start=3223360&amp;end=3233765" target="_blank">NZ_LJIW01000001 (3223360-3233765)</a>: Streptomyces malaysiensis strain F913 SMF9... (77% of genes show similarity), ectoine</text>
<line style="stroke-width:1; stroke:grey; " y2="85" x1="10" y1="85" x2="778.0"  />
</g>
<g id="a1_000"  >
<polygon locus_tag="SMF913_RS12710" id="dummy-1_h1_9_0" class="clusterblast-orf" style="stroke-width:1; fill:white; stroke:black; " description="&lt;b&gt;SMF913_RS12710&lt;/b&gt;&lt;br&gt;SigE family RNA polymerase sigma factor&lt;br&gt;Location: 3224387 - 3225295" points="0,90 72,90 77,85 72,80 0,80 0,90 "  />
</g>
<g id="a1_001"  >
<polygon locus_tag="SMF913_RS12715" id="dummy-1_h1_9_1" class="clusterblast-orf" style="stroke-width:1; fill:white; stroke:black; " description="&lt;b&gt;SMF913_RS12715&lt;/b&gt;&lt;br&gt;hypothetical protein&lt;br&gt;Location: 3225295 - 3226107" points="77,90 141,90 146,85 141,80 77,80 77,90 "  />
</g>
<g id="a1_002"  >
<polygon locus_tag="SMF913_RS12720" id="dummy-1_h1_9_2" class="clusterblast-orf" style="stroke-width:1; fill:#d81515; stroke:black; " description="&lt;b&gt;SMF913_RS12720&lt;/b&gt;&lt;br&gt;diaminobutyrate acetyltransferase&lt;br&gt;Location: 3226428 - 3226988&lt;br&gt;&lt;br&gt;&lt;b&gt;BlastP hit with cds1088_1631&lt;/b&gt;&lt;br&gt;Percentage identity: 72&lt;br&gt;Percentage coverage: 98&lt;br&gt;BLAST bit score: 261&lt;br&gt;E-value: 6.8e-68" points="173,90 216,90 221,85 216,80 173,80 173,90 "  />
</g>
<g id="a1_003"  >
<polygon locus_tag="SMF913_RS12725" id="dummy-1_h1_9_3" class="clusterblast-orf" style="stroke-width:1; fill:#4dd815; stroke:black; " description="&lt;b&gt;SMF913_RS12725&lt;/b&gt;&lt;br&gt;diaminobutyrate--2-oxoglutarate transaminase&lt;br&gt;Location: 3227058 - 3228320&lt;br&gt;&lt;br&gt;&lt;b&gt;BlastP hit with cds1765_3034&lt;/b&gt;&lt;br&gt;Percentage identity: 88&lt;br&gt;Percentage coverage: 100&lt;br&gt;BLAST bit score: 772&lt;br&gt;E-value: 2.8e-221" points="227,90 330,90 335,85 330,80 227,80 227,90 "  />
</g>
<g id="a1_004"  >
<polygon locus_tag="SMF913_RS12730" id="dummy-1_h1_9_4" class="clusterblast-orf" style="stroke-width:1; fill:#1585d8; stroke:black; " description="&lt;b&gt;SMF913_RS12730&lt;/b&gt;&lt;br&gt;ectoine synthase&lt;br&gt;Location: 3228361 - 3228765&lt;br&gt;&lt;br&gt;&lt;b&gt;BlastP hit with cds3081_3480&lt;/b&gt;&lt;br&gt;Percentage identity: 89&lt;br&gt;Percentage coverage: 100&lt;br&gt;BLAST bit score: 261&lt;br&gt;E-value: 3.8e-68" points="338,90 368,90 373,85 368,80 338,80 338,90 "  />
</g>
<g id="a1_005"  >
<polygon locus_tag="SMF913_RS12735" id="dummy-1_h1_9_5" class="clusterblast-orf" style="stroke-width:1; fill:#d815bc; stroke:black; " description="&lt;b&gt;SMF913_RS12735&lt;/b&gt;&lt;br&gt;ectoine hydroxylase&lt;br&gt;Location: 3228770 - 3229657&lt;br&gt;&lt;br&gt;&lt;b&gt;BlastP hit with cds3485_4343&lt;/b&gt;&lt;br&gt;Percentage identity: 81&lt;br&gt;Percentage coverage: 101&lt;br&gt;BLAST bit score: 477&lt;br&gt;E-value: 9.5e-133" points="373,90 444,90 449,85 444,80 373,80 373,90 "  />
</g>
<g id="a1_006"  >
<polygon locus_tag="SMF913_RS12740" id="dummy-1_h1_9_6" class="clusterblast-orf" style="stroke-width:1; fill:#d8bc15; stroke:black; " description="&lt;b&gt;SMF913_RS12740&lt;/b&gt;&lt;br&gt;aminotransferase class V-fold PLP-dependent enzyme&lt;br&gt;Location: 3229786 - 3230832&lt;br&gt;&lt;br&gt;&lt;b&gt;BlastP hit with cds4463_5516&lt;/b&gt;&lt;br&gt;Percentage identity: 57&lt;br&gt;Percentage coverage: 100&lt;br&gt;BLAST bit score: 362&lt;br&gt;E-value: 4.2e-98" points="460,85 465,80 549,80 549,90 465,90 460,85 "  />
</g>
<g id="a1_007"  >
<polygon locus_tag="SMF913_RS12745" id="dummy-1_h1_9_7" class="clusterblast-orf" style="stroke-width:1; fill:#15d885; stroke:black; " description="&lt;b&gt;SMF913_RS12745&lt;/b&gt;&lt;br&gt;aldehyde dehydrogenase (NADP(+))&lt;br&gt;Location: 3231098 - 3232681&lt;br&gt;&lt;br&gt;&lt;b&gt;BlastP hit with cds5754_7284&lt;/b&gt;&lt;br&gt;Percentage identity: 74&lt;br&gt;Percentage coverage: 100&lt;br&gt;BLAST bit score: 701&lt;br&gt;E-value: 4.2e-200" points="571,85 576,80 706,80 706,90 576,90 571,85 "  />
</g>
<g id="a1_008"  >
<polygon locus_tag="SMF913_RS12750" id="dummy-1_h1_9_8" class="clusterblast-orf" style="stroke-width:1; fill:#4d15d8; stroke:black; " description="&lt;b&gt;SMF913_RS12750&lt;/b&gt;&lt;br&gt;IclR family transcriptional regulator&lt;br&gt;Location: 3232769 - 3233539&lt;br&gt;&lt;br&gt;&lt;b&gt;BlastP hit with cds7389_8160&lt;/b&gt;&lt;br&gt;Percentage identity: 80&lt;br&gt;Percentage coverage: 100&lt;br&gt;BLAST bit score: 406&lt;br&gt;E-value: 1.4e-111" points="714,90 774,90 779,85 774,80 714,80 714,90 "  />
</g>
</svg>
