<svg width="800" version="1.1" x="0" y="0" preserveAspectRatio="none" xmlns:xlink="http://www.w3.org/1999/xlink" height="230" xmlns="http://www.w3.org/2000/svg" viewBox="0 0 800 230"  >
<g label="Query sequence" class="clusterblast-cluster"  >
<text class="clusterblast-acc" x="5" y="20"  >
Query sequence</text>
<line style="stroke-width:1; stroke:grey; " y2="35" x1="10" y1="35" x2="778.0"  />
<polygon locus_tag="cds84_1302" id="dummy-1_q0_0_all" class="clusterblast-orf" style="stroke-width:1; fill:#d81515; stroke:black; " description="&lt;b&gt;cds84_1302&lt;/b&gt;&lt;br&gt;hypothetical protein&lt;br&gt;Location: 84 - 1302" points="173,35 178,30 278,30 278,40 178,40 173,35 "  />
<polygon locus_tag="cds1365_2022" id="dummy-1_q1_0_all" class="clusterblast-orf" style="stroke-width:1; fill:#15d815; stroke:black; " description="&lt;b&gt;cds1365_2022&lt;/b&gt;&lt;br&gt;HAD-superfamily hydrolase subfamily IA, variant 3&lt;br&gt;Location: 1365 - 2022" points="284,35 289,30 341,30 341,40 289,40 284,35 "  />
<polygon locus_tag="cds2113_3148" id="dummy-1_q2_0_all" class="clusterblast-orf" style="stroke-width:1; fill:#1515d8; stroke:black; " description="&lt;b&gt;cds2113_3148&lt;/b&gt;&lt;br&gt;hypothetical protein&lt;br&gt;Location: 2113 - 3148" points="348,35 353,30 438,30 438,40 353,40 348,35 "  />
<polygon locus_tag="cds3225_3630" id="dummy-1_q3_0_all" class="clusterblast-orf" style="stroke-width:1; fill:white; stroke:black; " description="&lt;b&gt;cds3225_3630&lt;/b&gt;&lt;br&gt;hypothetical protein&lt;br&gt;Location: 3225 - 3630" points="445,35 450,30 480,30 480,40 450,40 445,35 "  />
<polygon locus_tag="cds3800_4580" id="dummy-1_q4_0_all" class="clusterblast-orf" style="stroke-width:1; fill:white; stroke:black; " description="&lt;b&gt;cds3800_4580&lt;/b&gt;&lt;br&gt;Hypothetical NagD-like phosphatase, Actinobacterial subfamily&lt;br&gt;Location: 3800 - 4580" points="494,35 499,30 562,30 562,40 499,40 494,35 "  />
<polygon locus_tag="cds4841_5111" id="dummy-1_q5_0_all" class="clusterblast-orf" style="stroke-width:1; fill:white; stroke:black; " description="&lt;b&gt;cds4841_5111&lt;/b&gt;&lt;br&gt;hypothetical protein&lt;br&gt;Location: 4841 - 5111" points="584,40 603,40 608,35 603,30 584,30 584,40 "  />
</g>
<g label="NZ_CP045031" description="NZ_CP045031 (6863223-6874258): Streptomyces sp. C8S0 chromosome (42% of genes show similarity), butyrolactone" class="clusterblast-cluster"  >
<text class="clusterblast-acc" x="5" y="70"  >
<a xlink:href="https://antismash-db.secondarymetabolites.org/area.html?record=NZ_CP045031&amp;start=6863223&amp;end=6874258" target="_blank">NZ_CP045031 (6863223-6874258)</a>: Streptomyces sp. C8S0 chromosome (42% of genes show similarity), butyrolactone</text>
<line style="stroke-width:1; stroke:grey; " y2="85" x1="10" y1="85" x2="778.0"  />
</g>
<g id="a1_000"  >
<polygon locus_tag="F9V55_RS30530" id="dummy-1_h1_1_0" class="clusterblast-orf" style="stroke-width:1; fill:white; stroke:black; " description="&lt;b&gt;F9V55_RS30530&lt;/b&gt;&lt;br&gt;hypothetical protein&lt;br&gt;Location: 6872846 - 6871323" points="0,90 126,90 131,85 126,80 0,80 0,90 "  />
</g>
<g id="a1_001"  >
<polygon locus_tag="F9V55_RS30525" id="dummy-1_h1_1_1" class="clusterblast-orf" style="stroke-width:1; fill:#d81515; stroke:black; " description="&lt;b&gt;F9V55_RS30525&lt;/b&gt;&lt;br&gt;cytochrome P450&lt;br&gt;Location: 6871257 - 6870040&lt;br&gt;&lt;br&gt;&lt;b&gt;BlastP hit with cds84_1302&lt;/b&gt;&lt;br&gt;Percentage identity: 96&lt;br&gt;Percentage coverage: 100&lt;br&gt;BLAST bit score: 797&lt;br&gt;E-value: 4.5e-229" points="137,85 142,80 242,80 242,90 142,90 137,85 "  />
</g>
<g id="a1_002"  >
<polygon locus_tag="F9V55_RS30520" id="dummy-1_h1_1_2" class="clusterblast-orf" style="stroke-width:1; fill:#15d815; stroke:black; " description="&lt;b&gt;F9V55_RS30520&lt;/b&gt;&lt;br&gt;HAD family phosphatase&lt;br&gt;Location: 6869995 - 6869339&lt;br&gt;&lt;br&gt;&lt;b&gt;BlastP hit with cds1365_2022&lt;/b&gt;&lt;br&gt;Percentage identity: 98&lt;br&gt;Percentage coverage: 100&lt;br&gt;BLAST bit score: 450&lt;br&gt;E-value: 1.2e-124" points="246,85 251,80 303,80 303,90 251,90 246,85 "  />
</g>
<g id="a1_003"  >
<polygon locus_tag="F9V55_RS30515" id="dummy-1_h1_1_3" class="clusterblast-orf" style="stroke-width:1; fill:#1515d8; stroke:black; " description="&lt;b&gt;F9V55_RS30515&lt;/b&gt;&lt;br&gt;hypothetical protein&lt;br&gt;Location: 6869258 - 6868224&lt;br&gt;&lt;br&gt;&lt;b&gt;BlastP hit with cds2113_3148&lt;/b&gt;&lt;br&gt;Percentage identity: 92&lt;br&gt;Percentage coverage: 100&lt;br&gt;BLAST bit score: 628&lt;br&gt;E-value: 3.1e-178" points="310,85 315,80 399,80 399,90 315,90 310,85 "  />
</g>
<g id="a1_004"  >
<polygon locus_tag="F9V55_RS30510" id="dummy-1_h1_1_4" class="clusterblast-orf" style="stroke-width:1; fill:white; stroke:black; " description="&lt;b&gt;F9V55_RS30510&lt;/b&gt;&lt;br&gt;hypothetical protein&lt;br&gt;Location: 6867654 - 6867243" points="448,85 453,80 484,80 484,90 453,90 448,85 "  />
</g>
<g id="a1_005"  >
<polygon locus_tag="F9V55_RS30505" id="dummy-1_h1_1_5" class="clusterblast-orf" style="stroke-width:1; fill:white; stroke:black; " description="&lt;b&gt;F9V55_RS30505&lt;/b&gt;&lt;br&gt;hypothetical protein&lt;br&gt;Location: 6865919 - 6865536" points="598,90 626,90 631,85 626,80 598,80 598,90 "  />
</g>
<g id="a1_006"  >
<polygon locus_tag="F9V55_RS30500" id="dummy-1_h1_1_6" class="clusterblast-orf" style="stroke-width:1; fill:white; stroke:black; " description="&lt;b&gt;F9V55_RS30500&lt;/b&gt;&lt;br&gt;hypothetical protein&lt;br&gt;Location: 6865067 - 6863823" points="672,90 775,90 780,85 775,80 672,80 672,90 "  />
</g>
</svg>
