<svg width="800" version="1.1" x="0" y="0" preserveAspectRatio="none" xmlns:xlink="http://www.w3.org/1999/xlink" height="230" xmlns="http://www.w3.org/2000/svg" viewBox="0 0 800 230"  >
<g label="Query sequence" class="clusterblast-cluster"  >
<text class="clusterblast-acc" x="5" y="20"  >
Query sequence</text>
<line style="stroke-width:1; stroke:grey; " y2="35" x1="10" y1="35" x2="778.0"  />
<polygon locus_tag="cds51686_52259" id="dummy-1_q0_0_all" class="clusterblast-orf" style="stroke-width:1; fill:#d81515; stroke:black; " description="&lt;b&gt;cds51686_52259&lt;/b&gt;&lt;br&gt;hypothetical protein&lt;br&gt;Location: 51686 - 52259" points="13,40 48,40 53,35 48,30 13,30 13,40 "  />
<polygon locus_tag="cds52444_53011" id="dummy-1_q1_0_all" class="clusterblast-orf" style="stroke-width:1; fill:#15d815; stroke:black; " description="&lt;b&gt;cds52444_53011&lt;/b&gt;&lt;br&gt;hypothetical protein&lt;br&gt;Location: 52444 - 53011" points="66,40 101,40 106,35 101,30 66,30 66,40 "  />
<polygon locus_tag="cds52967_53468" id="dummy-1_q2_0_all" class="clusterblast-orf" style="stroke-width:1; fill:white; stroke:black; " description="&lt;b&gt;cds52967_53468&lt;/b&gt;&lt;br&gt;hypothetical protein&lt;br&gt;Location: 52967 - 53468" points="103,35 108,30 138,30 138,40 108,40 103,35 "  />
<polygon locus_tag="cds53597_53996" id="dummy-1_q3_0_all" class="clusterblast-orf" style="stroke-width:1; fill:#1597d8; stroke:black; " description="&lt;b&gt;cds53597_53996&lt;/b&gt;&lt;br&gt;Glutamine--fructose-6-phosphate aminotransferase [isomerizing] (EC 2.6.1.16)&lt;br&gt;Location: 53597 - 53996" points="147,35 152,30 174,30 174,40 152,40 147,35 "  />
<polygon locus_tag="cds53959_54220" id="dummy-1_q4_0_all" class="clusterblast-orf" style="stroke-width:1; fill:#1597d8; stroke:black; " description="&lt;b&gt;cds53959_54220&lt;/b&gt;&lt;br&gt;Glutamine--fructose-6-phosphate aminotransferase [isomerizing] (EC 2.6.1.16)&lt;br&gt;Location: 53959 - 54220" points="172,35 177,30 190,30 190,40 177,40 172,35 "  />
<polygon locus_tag="cds54526_54688" id="dummy-1_q5_0_all" class="clusterblast-orf" style="stroke-width:1; fill:white; stroke:black; " description="&lt;b&gt;cds54526_54688&lt;/b&gt;&lt;br&gt;hypothetical protein&lt;br&gt;Location: 54526 - 54688" points="211,40 218,40 223,35 218,30 211,30 211,40 "  />
<polygon locus_tag="cds54718_54949" id="dummy-1_q6_0_all" class="clusterblast-orf" style="stroke-width:1; fill:white; stroke:black; " description="&lt;b&gt;cds54718_54949&lt;/b&gt;&lt;br&gt;hypothetical protein&lt;br&gt;Location: 54718 - 54949" points="225,40 236,40 241,35 236,30 225,30 225,40 "  />
<polygon locus_tag="cds54949_55276" id="dummy-1_q7_0_all" class="clusterblast-orf" style="stroke-width:1; fill:white; stroke:black; " description="&lt;b&gt;cds54949_55276&lt;/b&gt;&lt;br&gt;hypothetical protein&lt;br&gt;Location: 54949 - 55276" points="241,40 259,40 264,35 259,30 241,30 241,40 "  />
<polygon locus_tag="cds55501_55780" id="dummy-1_q8_0_all" class="clusterblast-orf" style="stroke-width:1; fill:#9715d8; stroke:black; " description="&lt;b&gt;cds55501_55780&lt;/b&gt;&lt;br&gt;hypothetical protein&lt;br&gt;Location: 55501 - 55780" points="280,35 285,30 299,30 299,40 285,40 280,35 "  />
<polygon locus_tag="cds55997_56351" id="dummy-1_q9_0_all" class="clusterblast-orf" style="stroke-width:1; fill:#d89715; stroke:black; " description="&lt;b&gt;cds55997_56351&lt;/b&gt;&lt;br&gt;Desferrioxamine E biosynthesis protein DesD @ Siderophore synthetase superfamily, group C @ Siderophore synthetase component, ligase&lt;br&gt;Location: 55997 - 56351" points="314,35 319,30 339,30 339,40 319,40 314,35 "  />
<polygon locus_tag="cds56571_57117" id="dummy-1_q10_0_all" class="clusterblast-orf" style="stroke-width:1; fill:#d89715; stroke:black; " description="&lt;b&gt;cds56571_57117&lt;/b&gt;&lt;br&gt;Desferrioxamine E biosynthesis protein DesD @ Siderophore synthetase superfamily, group C @ Siderophore synthetase component, ligase&lt;br&gt;Location: 56571 - 57117" points="354,35 359,30 392,30 392,40 359,40 354,35 "  />
<polygon locus_tag="cds57230_57779" id="dummy-1_q11_0_all" class="clusterblast-orf" style="stroke-width:1; fill:#d89715; stroke:black; " description="&lt;b&gt;cds57230_57779&lt;/b&gt;&lt;br&gt;Desferrioxamine E biosynthesis protein DesD @ Siderophore synthetase superfamily, group C @ Siderophore synthetase component, ligase&lt;br&gt;Location: 57230 - 57779" points="400,35 405,30 439,30 439,40 405,40 400,35 "  />
<polygon locus_tag="cds57775_58339" id="dummy-1_q12_0_all" class="clusterblast-orf" style="stroke-width:1; fill:#15d897; stroke:black; " description="&lt;b&gt;cds57775_58339&lt;/b&gt;&lt;br&gt;Desferrioxamine E biosynthesis protein DesC @ Siderophore synthetase small component, acetyltransferase&lt;br&gt;Location: 57775 - 58339" points="438,35 443,30 478,30 478,40 443,40 438,35 "  />
<polygon locus_tag="cds58335_58572" id="dummy-1_q13_0_all" class="clusterblast-orf" style="stroke-width:1; fill:#1515d8; stroke:black; " description="&lt;b&gt;cds58335_58572&lt;/b&gt;&lt;br&gt;Desferrioxamine E biosynthesis protein DesB @ Siderophore biosynthesis protein, monooxygenase&lt;br&gt;Location: 58335 - 58572" points="477,35 482,30 494,30 494,40 482,40 477,35 "  />
<polygon locus_tag="cds58715_59477" id="dummy-1_q14_0_all" class="clusterblast-orf" style="stroke-width:1; fill:#1515d8; stroke:black; " description="&lt;b&gt;cds58715_59477&lt;/b&gt;&lt;br&gt;Desferrioxamine E biosynthesis protein DesB @ Siderophore biosynthesis protein, monooxygenase&lt;br&gt;Location: 58715 - 59477" points="504,35 509,30 557,30 557,40 509,40 504,35 "  />
<polygon locus_tag="cds59594_61037" id="dummy-1_q15_0_all" class="clusterblast-orf" style="stroke-width:1; fill:#d81597; stroke:black; " description="&lt;b&gt;cds59594_61037&lt;/b&gt;&lt;br&gt;Desferrioxamine E biosynthesis protein DesA @ Siderophore biosynthesis L-2,4-diaminobutyrate decarboxylase&lt;br&gt;Location: 59594 - 61037" points="565,35 570,30 666,30 666,40 570,40 565,35 "  />
<polygon locus_tag="cds61225_61429" id="dummy-1_q16_0_all" class="clusterblast-orf" style="stroke-width:1; fill:#97d815; stroke:black; " description="&lt;b&gt;cds61225_61429&lt;/b&gt;&lt;br&gt;Hypothetical protein associated with desferrioxamine E biosynthesis&lt;br&gt;Location: 61225 - 61429" points="679,35 684,30 694,30 694,40 684,40 679,35 "  />
<polygon locus_tag="cds61462_62485" id="dummy-1_q17_0_all" class="clusterblast-orf" style="stroke-width:1; fill:#97d815; stroke:black; " description="&lt;b&gt;cds61462_62485&lt;/b&gt;&lt;br&gt;Hypothetical protein associated with desferrioxamine E biosynthesis&lt;br&gt;Location: 61462 - 62485" points="696,35 701,30 767,30 767,40 701,40 696,35 "  />
</g>
<g label="NZ_CP031194" description="NZ_CP031194 (2347366-2358534): Streptomyces paludis strain GSSD-12 chromosome... (90% of genes show similarity), siderophore" class="clusterblast-cluster"  >
<text class="clusterblast-acc" x="5" y="70"  >
<a xlink:href="https://antismash-db.secondarymetabolites.org/area.html?record=NZ_CP031194&amp;start=2347366&amp;end=2358534" target="_blank">NZ_CP031194 (2347366-2358534)</a>: Streptomyces paludis strain GSSD-12 chromosome... (90% of genes show similarity), siderophore</text>
<line style="stroke-width:1; stroke:grey; " y2="85" x1="10" y1="85" x2="778.0"  />
</g>
<g id="a1_000"  >
<polygon locus_tag="DVK44_RS10075" id="dummy-1_h1_9_0" class="clusterblast-orf" style="stroke-width:1; fill:#d81515; stroke:black; " description="&lt;b&gt;DVK44_RS10075&lt;/b&gt;&lt;br&gt;universal stress protein&lt;br&gt;Location: 2358534 - 2358013&lt;br&gt;&lt;br&gt;&lt;b&gt;BlastP hit with cds51686_52259&lt;/b&gt;&lt;br&gt;Percentage identity: 87&lt;br&gt;Percentage coverage: 84&lt;br&gt;BLAST bit score: 279&lt;br&gt;E-value: 1.9e-73" points="0,90 31,90 36,85 31,80 0,80 0,90 "  />
</g>
<g id="a1_001"  >
<polygon locus_tag="DVK44_RS10070" id="dummy-1_h1_9_1" class="clusterblast-orf" style="stroke-width:1; fill:#15d815; stroke:black; " description="&lt;b&gt;DVK44_RS10070&lt;/b&gt;&lt;br&gt;hypothetical protein&lt;br&gt;Location: 2357797 - 2357207&lt;br&gt;&lt;br&gt;&lt;b&gt;BlastP hit with cds52444_53011&lt;/b&gt;&lt;br&gt;Percentage identity: 61&lt;br&gt;Percentage coverage: 82&lt;br&gt;BLAST bit score: 163&lt;br&gt;E-value: 2.6e-38" points="51,90 87,90 92,85 87,80 51,80 51,90 "  />
</g>
<g id="a1_002"  >
<polygon locus_tag="DVK44_RS10065" id="dummy-1_h1_9_2" class="clusterblast-orf" style="stroke-width:1; fill:#1597d8; stroke:black; " description="&lt;b&gt;DVK44_RS10065&lt;/b&gt;&lt;br&gt;glutamine--fructose-6-phosphate transaminase (isomerizing)&lt;br&gt;Location: 2357047 - 2355218&lt;br&gt;&lt;br&gt;&lt;b&gt;BlastP hit with cds53597_53996&lt;/b&gt;&lt;br&gt;Percentage identity: 96&lt;br&gt;Percentage coverage: 100&lt;br&gt;BLAST bit score: 246&lt;br&gt;E-value: 1.3e-63&lt;br&gt;&lt;br&gt;&lt;b&gt;BlastP hit with cds53959_54220&lt;/b&gt;&lt;br&gt;Percentage identity: 82&lt;br&gt;Percentage coverage: 79&lt;br&gt;BLAST bit score: 108&lt;br&gt;E-value: 4.6e-22" points="103,85 108,80 231,80 231,90 108,90 103,85 "  />
</g>
<g id="a1_003"  >
<polygon locus_tag="DVK44_RS10060" id="dummy-1_h1_9_3" class="clusterblast-orf" style="stroke-width:1; fill:#9715d8; stroke:black; " description="&lt;b&gt;DVK44_RS10060&lt;/b&gt;&lt;br&gt;hypothetical protein&lt;br&gt;Location: 2355141 - 2354866&lt;br&gt;&lt;br&gt;&lt;b&gt;BlastP hit with cds55501_55780&lt;/b&gt;&lt;br&gt;Percentage identity: 88&lt;br&gt;Percentage coverage: 100&lt;br&gt;BLAST bit score: 159&lt;br&gt;E-value: 1.4e-37" points="236,85 241,80 256,80 256,90 241,90 236,85 "  />
</g>
<g id="a1_004"  >
<polygon locus_tag="DVK44_RS10055" id="dummy-1_h1_9_4" class="clusterblast-orf" style="stroke-width:1; fill:white; stroke:black; " description="&lt;b&gt;DVK44_RS10055&lt;/b&gt;&lt;br&gt;DUF4429 domain-containing protein&lt;br&gt;Location: 2354777 - 2353812" points="262,85 267,80 329,80 329,90 267,90 262,85 "  />
</g>
<g id="a1_005"  >
<polygon locus_tag="DVK44_RS10050" id="dummy-1_h1_9_5" class="clusterblast-orf" style="stroke-width:1; fill:#d89715; stroke:black; " description="&lt;b&gt;DVK44_RS10050&lt;/b&gt;&lt;br&gt;IucA/IucC family siderophore biosynthesis protein&lt;br&gt;Location: 2353722 - 2351908&lt;br&gt;&lt;br&gt;&lt;b&gt;BlastP hit with cds55997_56351&lt;/b&gt;&lt;br&gt;Percentage identity: 75&lt;br&gt;Percentage coverage: 99&lt;br&gt;BLAST bit score: 180&lt;br&gt;E-value: 9.9e-44&lt;br&gt;&lt;br&gt;&lt;b&gt;BlastP hit with cds56571_57117&lt;/b&gt;&lt;br&gt;Percentage identity: 80&lt;br&gt;Percentage coverage: 86&lt;br&gt;BLAST bit score: 262&lt;br&gt;E-value: 3.1e-68&lt;br&gt;&lt;br&gt;&lt;b&gt;BlastP hit with cds57230_57779&lt;/b&gt;&lt;br&gt;Percentage identity: 73&lt;br&gt;Percentage coverage: 97&lt;br&gt;BLAST bit score: 257&lt;br&gt;E-value: 1.3e-66" points="336,85 341,80 462,80 462,90 341,90 336,85 "  />
</g>
<g id="a1_006"  >
<polygon locus_tag="DVK44_RS10045" id="dummy-1_h1_9_6" class="clusterblast-orf" style="stroke-width:1; fill:#15d897; stroke:black; " description="&lt;b&gt;DVK44_RS10045&lt;/b&gt;&lt;br&gt;acetyltransferase&lt;br&gt;Location: 2351911 - 2351297&lt;br&gt;&lt;br&gt;&lt;b&gt;BlastP hit with cds57775_58339&lt;/b&gt;&lt;br&gt;Percentage identity: 66&lt;br&gt;Percentage coverage: 96&lt;br&gt;BLAST bit score: 235&lt;br&gt;E-value: 3.2e-60" points="462,85 467,80 505,80 505,90 467,90 462,85 "  />
</g>
<g id="a1_007"  >
<polygon locus_tag="DVK44_RS10040" id="dummy-1_h1_9_7" class="clusterblast-orf" style="stroke-width:1; fill:#1515d8; stroke:black; " description="&lt;b&gt;DVK44_RS10040&lt;/b&gt;&lt;br&gt;SidA/IucD/PvdA family monooxygenase&lt;br&gt;Location: 2351300 - 2349990&lt;br&gt;&lt;br&gt;&lt;b&gt;BlastP hit with cds58335_58572&lt;/b&gt;&lt;br&gt;Percentage identity: 82&lt;br&gt;Percentage coverage: 95&lt;br&gt;BLAST bit score: 136&lt;br&gt;E-value: 1.1e-30&lt;br&gt;&lt;br&gt;&lt;b&gt;BlastP hit with cds58715_59477&lt;/b&gt;&lt;br&gt;Percentage identity: 82&lt;br&gt;Percentage coverage: 81&lt;br&gt;BLAST bit score: 353&lt;br&gt;E-value: 1.8e-95" points="505,85 510,80 596,80 596,90 510,90 505,85 "  />
</g>
<g id="a1_008"  >
<polygon locus_tag="DVK44_RS10035" id="dummy-1_h1_9_8" class="clusterblast-orf" style="stroke-width:1; fill:#d81597; stroke:black; " description="&lt;b&gt;DVK44_RS10035&lt;/b&gt;&lt;br&gt;aspartate aminotransferase family protein&lt;br&gt;Location: 2350006 - 2348564&lt;br&gt;&lt;br&gt;&lt;b&gt;BlastP hit with cds59594_61037&lt;/b&gt;&lt;br&gt;Percentage identity: 69&lt;br&gt;Percentage coverage: 100&lt;br&gt;BLAST bit score: 593&lt;br&gt;E-value: 2e-167" points="595,85 600,80 696,80 696,90 600,90 595,85 "  />
</g>
<g id="a1_009"  >
<polygon locus_tag="DVK44_RS10030" id="dummy-1_h1_9_9" class="clusterblast-orf" style="stroke-width:1; fill:#97d815; stroke:black; " description="&lt;b&gt;DVK44_RS10030&lt;/b&gt;&lt;br&gt;siderophore-interacting protein&lt;br&gt;Location: 2348191 - 2347367&lt;br&gt;&lt;br&gt;&lt;b&gt;BlastP hit with cds61225_61429&lt;/b&gt;&lt;br&gt;Percentage identity: 72&lt;br&gt;Percentage coverage: 87&lt;br&gt;BLAST bit score: 91&lt;br&gt;E-value: 4.5e-17&lt;br&gt;&lt;br&gt;&lt;b&gt;BlastP hit with cds61462_62485&lt;/b&gt;&lt;br&gt;Percentage identity: 59&lt;br&gt;Percentage coverage: 43&lt;br&gt;BLAST bit score: 159&lt;br&gt;E-value: 5.2e-37" points="722,85 727,80 780,80 780,90 727,90 722,85 "  />
</g>
</svg>
