<svg width="800" version="1.1" x="0" y="0" preserveAspectRatio="none" xmlns:xlink="http://www.w3.org/1999/xlink" height="230" xmlns="http://www.w3.org/2000/svg" viewBox="0 0 800 230"  >
<g label="Query sequence" class="clusterblast-cluster"  >
<text class="clusterblast-acc" x="5" y="20"  >
Query sequence</text>
<line style="stroke-width:1; stroke:grey; " y2="35" x1="10" y1="35" x2="778.0"  />
<polygon locus_tag="cds59181_59796" id="dummy-1_q0_0_all" class="clusterblast-orf" style="stroke-width:1; fill:white; stroke:black; " description="&lt;b&gt;cds59181_59796&lt;/b&gt;&lt;br&gt;hypothetical protein&lt;br&gt;Location: 59181 - 59796" points="0,40 2,40 7,35 2,30 0,30 0,40 "  />
<polygon locus_tag="cds59873_59990" id="dummy-1_q1_0_all" class="clusterblast-orf" style="stroke-width:1; fill:white; stroke:black; " description="&lt;b&gt;cds59873_59990&lt;/b&gt;&lt;br&gt;hypothetical protein&lt;br&gt;Location: 59873 - 59990" points="8,35 9,30 9,40 8,35 "  />
<polygon locus_tag="cds60121_60550" id="dummy-1_q2_0_all" class="clusterblast-orf" style="stroke-width:1; fill:white; stroke:black; " description="&lt;b&gt;cds60121_60550&lt;/b&gt;&lt;br&gt;hypothetical protein&lt;br&gt;Location: 60121 - 60550" points="11,40 11,40 16,35 11,30 11,30 11,40 "  />
<polygon locus_tag="cds60570_61017" id="dummy-1_q3_0_all" class="clusterblast-orf" style="stroke-width:1; fill:white; stroke:black; " description="&lt;b&gt;cds60570_61017&lt;/b&gt;&lt;br&gt;hypothetical protein&lt;br&gt;Location: 60570 - 61017" points="16,35 21,30 21,30 21,40 21,40 16,35 "  />
<polygon locus_tag="cds61165_62674" id="dummy-1_q4_0_all" class="clusterblast-orf" style="stroke-width:1; fill:white; stroke:black; " description="&lt;b&gt;cds61165_62674&lt;/b&gt;&lt;br&gt;hypothetical protein&lt;br&gt;Location: 61165 - 62674" points="23,35 28,30 41,30 41,40 28,40 23,35 "  />
<polygon locus_tag="cds63049_63430" id="dummy-1_q5_0_all" class="clusterblast-orf" style="stroke-width:1; fill:white; stroke:black; " description="&lt;b&gt;cds63049_63430&lt;/b&gt;&lt;br&gt;Acetyltransferase, GNAT family&lt;br&gt;Location: 63049 - 63430" points="45,40 45,40 50,35 45,30 45,30 45,40 "  />
<polygon locus_tag="cds63441_63690" id="dummy-1_q6_0_all" class="clusterblast-orf" style="stroke-width:1; fill:white; stroke:black; " description="&lt;b&gt;cds63441_63690&lt;/b&gt;&lt;br&gt;hypothetical protein&lt;br&gt;Location: 63441 - 63690" points="50,40 53,35 50,30 50,40 "  />
<polygon locus_tag="cds63762_63906" id="dummy-1_q7_0_all" class="clusterblast-orf" style="stroke-width:1; fill:white; stroke:black; " description="&lt;b&gt;cds63762_63906&lt;/b&gt;&lt;br&gt;hypothetical protein&lt;br&gt;Location: 63762 - 63906" points="54,40 56,35 54,30 54,40 "  />
<polygon locus_tag="cds63955_65119" id="dummy-1_q8_0_all" class="clusterblast-orf" style="stroke-width:1; fill:white; stroke:black; " description="&lt;b&gt;cds63955_65119&lt;/b&gt;&lt;br&gt;hypothetical protein&lt;br&gt;Location: 63955 - 65119" points="56,40 65,40 70,35 65,30 56,30 56,40 "  />
<polygon locus_tag="cds65252_65696" id="dummy-1_q9_0_all" class="clusterblast-orf" style="stroke-width:1; fill:white; stroke:black; " description="&lt;b&gt;cds65252_65696&lt;/b&gt;&lt;br&gt;hypothetical protein&lt;br&gt;Location: 65252 - 65696" points="71,40 72,40 77,35 72,30 71,30 71,40 "  />
<polygon locus_tag="cds65689_65968" id="dummy-1_q10_0_all" class="clusterblast-orf" style="stroke-width:1; fill:white; stroke:black; " description="&lt;b&gt;cds65689_65968&lt;/b&gt;&lt;br&gt;hypothetical protein&lt;br&gt;Location: 65689 - 65968" points="77,40 80,35 77,30 77,40 "  />
<polygon locus_tag="cds66287_66689" id="dummy-1_q11_0_all" class="clusterblast-orf" style="stroke-width:1; fill:white; stroke:black; " description="&lt;b&gt;cds66287_66689&lt;/b&gt;&lt;br&gt;hypothetical protein&lt;br&gt;Location: 66287 - 66689" points="84,35 88,30 88,40 84,35 "  />
<polygon locus_tag="cds66790_67276" id="dummy-1_q12_0_all" class="clusterblast-orf" style="stroke-width:1; fill:white; stroke:black; " description="&lt;b&gt;cds66790_67276&lt;/b&gt;&lt;br&gt;hypothetical protein&lt;br&gt;Location: 66790 - 67276" points="90,40 90,40 95,35 90,30 90,30 90,40 "  />
<polygon locus_tag="cds67616_68006" id="dummy-1_q13_0_all" class="clusterblast-orf" style="stroke-width:1; fill:#d81515; stroke:black; " description="&lt;b&gt;cds67616_68006&lt;/b&gt;&lt;br&gt;N-acetylglutamate kinase (EC 2.7.2.8)&lt;br&gt;Location: 67616 - 68006" points="99,40 99,40 104,35 99,30 99,30 99,40 "  />
<polygon locus_tag="cds68002_69871" id="dummy-1_q14_0_all" class="clusterblast-orf" style="stroke-width:1; fill:white; stroke:black; " description="&lt;b&gt;cds68002_69871&lt;/b&gt;&lt;br&gt;hypothetical protein&lt;br&gt;Location: 68002 - 69871" points="104,40 121,40 126,35 121,30 104,30 104,40 "  />
<polygon locus_tag="cds69966_70908" id="dummy-1_q15_0_all" class="clusterblast-orf" style="stroke-width:1; fill:white; stroke:black; " description="&lt;b&gt;cds69966_70908&lt;/b&gt;&lt;br&gt;Exoenzymes regulatory protein AepA precursor&lt;br&gt;Location: 69966 - 70908" points="127,35 132,30 138,30 138,40 132,40 127,35 "  />
<polygon locus_tag="cds70955_71312" id="dummy-1_q16_0_all" class="clusterblast-orf" style="stroke-width:1; fill:white; stroke:black; " description="&lt;b&gt;cds70955_71312&lt;/b&gt;&lt;br&gt;Exoenzymes regulatory protein AepA precursor&lt;br&gt;Location: 70955 - 71312" points="139,35 143,30 143,40 139,35 "  />
<polygon locus_tag="cds71341_71491" id="dummy-1_q17_0_all" class="clusterblast-orf" style="stroke-width:1; fill:white; stroke:black; " description="&lt;b&gt;cds71341_71491&lt;/b&gt;&lt;br&gt;hypothetical protein&lt;br&gt;Location: 71341 - 71491" points="144,35 145,30 145,40 144,35 "  />
<polygon locus_tag="cds71508_71718" id="dummy-1_q18_0_all" class="clusterblast-orf" style="stroke-width:1; fill:white; stroke:black; " description="&lt;b&gt;cds71508_71718&lt;/b&gt;&lt;br&gt;hypothetical protein&lt;br&gt;Location: 71508 - 71718" points="145,35 148,30 148,40 145,35 "  />
<polygon locus_tag="cds71720_73757" id="dummy-1_q19_0_all" class="clusterblast-orf" style="stroke-width:1; fill:#63d815; stroke:black; " description="&lt;b&gt;cds71720_73757&lt;/b&gt;&lt;br&gt;Siderophore biosynthesis protein, monooxygenase&lt;br&gt;Location: 71720 - 73757" points="148,35 153,30 172,30 172,40 153,40 148,35 "  />
<polygon locus_tag="cds74009_74138" id="dummy-1_q20_0_all" class="clusterblast-orf" style="stroke-width:1; fill:#15b1d8; stroke:black; " description="&lt;b&gt;cds74009_74138&lt;/b&gt;&lt;br&gt;formyltransferase&lt;br&gt;Location: 74009 - 74138" points="175,40 177,35 175,30 175,40 "  />
<polygon locus_tag="cds74146_75028" id="dummy-1_q21_0_all" class="clusterblast-orf" style="stroke-width:1; fill:white; stroke:black; " description="&lt;b&gt;cds74146_75028&lt;/b&gt;&lt;br&gt;hypothetical protein&lt;br&gt;Location: 74146 - 75028" points="177,40 182,40 187,35 182,30 177,30 177,40 "  />
<polygon locus_tag="cds75042_75213" id="dummy-1_q22_0_all" class="clusterblast-orf" style="stroke-width:1; fill:white; stroke:black; " description="&lt;b&gt;cds75042_75213&lt;/b&gt;&lt;br&gt;hypothetical protein&lt;br&gt;Location: 75042 - 75213" points="187,35 189,30 189,40 187,35 "  />
<polygon locus_tag="cds75209_75647" id="dummy-1_q23_0_all" class="clusterblast-orf" style="stroke-width:1; fill:white; stroke:black; " description="&lt;b&gt;cds75209_75647&lt;/b&gt;&lt;br&gt;hypothetical protein&lt;br&gt;Location: 75209 - 75647" points="189,35 194,30 194,30 194,40 194,40 189,35 "  />
<polygon locus_tag="cds75721_76141" id="dummy-1_q24_0_all" class="clusterblast-orf" style="stroke-width:1; fill:#15b1d8; stroke:black; " description="&lt;b&gt;cds75721_76141&lt;/b&gt;&lt;br&gt;formyltransferase&lt;br&gt;Location: 75721 - 76141" points="195,40 195,40 200,35 195,30 195,30 195,40 "  />
<polygon locus_tag="cds76345_76507" id="dummy-1_q25_0_all" class="clusterblast-orf" style="stroke-width:1; fill:#b115d8; stroke:black; " description="&lt;b&gt;cds76345_76507&lt;/b&gt;&lt;br&gt;2-keto-3-deoxy-D-arabino-heptulosonate-7- phosphate synthase I alpha (EC 2.5.1.54)&lt;br&gt;Location: 76345 - 76507" points="203,35 205,30 205,40 203,35 "  />
<polygon locus_tag="cds76503_76929" id="dummy-1_q26_0_all" class="clusterblast-orf" style="stroke-width:1; fill:white; stroke:black; " description="&lt;b&gt;cds76503_76929&lt;/b&gt;&lt;br&gt;2-keto-3-deoxy-D-arabino-heptulosonate-7- phosphate synthase I alpha (EC 2.5.1.54)&lt;br&gt;Location: 76503 - 76929" points="205,35 210,30 210,30 210,40 210,40 205,35 "  />
<polygon locus_tag="cds77011_77440" id="dummy-1_q27_0_all" class="clusterblast-orf" style="stroke-width:1; fill:white; stroke:black; " description="&lt;b&gt;cds77011_77440&lt;/b&gt;&lt;br&gt;hypothetical protein&lt;br&gt;Location: 77011 - 77440" points="211,35 216,30 216,30 216,40 216,40 211,35 "  />
<polygon locus_tag="cds77447_78836" id="dummy-1_q28_0_all" class="clusterblast-orf" style="stroke-width:1; fill:#d86315; stroke:black; " description="&lt;b&gt;cds77447_78836&lt;/b&gt;&lt;br&gt;Uncharacterized MFS-type transporter&lt;br&gt;Location: 77447 - 78836" points="216,35 221,30 232,30 232,40 221,40 216,35 "  />
<polygon locus_tag="cds78832_79615" id="dummy-1_q29_0_all" class="clusterblast-orf" style="stroke-width:1; fill:#15d815; stroke:black; " description="&lt;b&gt;cds78832_79615&lt;/b&gt;&lt;br&gt;hypothetical protein&lt;br&gt;Location: 78832 - 79615" points="232,35 237,30 241,30 241,40 237,40 232,35 "  />
<polygon locus_tag="cds79659_80040" id="dummy-1_q30_0_all" class="clusterblast-orf" style="stroke-width:1; fill:white; stroke:black; " description="&lt;b&gt;cds79659_80040&lt;/b&gt;&lt;br&gt;hypothetical protein&lt;br&gt;Location: 79659 - 80040" points="242,40 246,35 242,30 242,40 "  />
<polygon locus_tag="cds80020_80854" id="dummy-1_q31_0_all" class="clusterblast-orf" style="stroke-width:1; fill:#15d815; stroke:black; " description="&lt;b&gt;cds80020_80854&lt;/b&gt;&lt;br&gt;Polyketide synthase modules and related proteins&lt;br&gt;Location: 80020 - 80854" points="246,35 251,30 256,30 256,40 251,40 246,35 "  />
<polygon locus_tag="cds80886_81741" id="dummy-1_q32_0_all" class="clusterblast-orf" style="stroke-width:1; fill:white; stroke:black; " description="&lt;b&gt;cds80886_81741&lt;/b&gt;&lt;br&gt;hypothetical protein&lt;br&gt;Location: 80886 - 81741" points="256,40 262,40 267,35 262,30 256,30 256,40 "  />
<polygon locus_tag="cds82531_83017" id="dummy-1_q33_0_all" class="clusterblast-orf" style="stroke-width:1; fill:#15d815; stroke:black; " description="&lt;b&gt;cds82531_83017&lt;/b&gt;&lt;br&gt;Polyketide synthase modules and related proteins&lt;br&gt;Location: 82531 - 83017" points="276,35 281,30 282,30 282,40 281,40 276,35 "  />
<polygon locus_tag="cds83040_83280" id="dummy-1_q34_0_all" class="clusterblast-orf" style="stroke-width:1; fill:white; stroke:black; " description="&lt;b&gt;cds83040_83280&lt;/b&gt;&lt;br&gt;hypothetical protein&lt;br&gt;Location: 83040 - 83280" points="282,40 285,35 282,30 282,40 "  />
<polygon locus_tag="cds83368_84646" id="dummy-1_q35_0_all" class="clusterblast-orf" style="stroke-width:1; fill:#15d815; stroke:black; " description="&lt;b&gt;cds83368_84646&lt;/b&gt;&lt;br&gt;Polyketide synthase modules and related proteins&lt;br&gt;Location: 83368 - 84646" points="286,35 291,30 301,30 301,40 291,40 286,35 "  />
<polygon locus_tag="cds84642_85500" id="dummy-1_q36_0_all" class="clusterblast-orf" style="stroke-width:1; fill:#15d815; stroke:black; " description="&lt;b&gt;cds84642_85500&lt;/b&gt;&lt;br&gt;Polyketide synthase modules and related proteins&lt;br&gt;Location: 84642 - 85500" points="301,35 306,30 311,30 311,40 306,40 301,35 "  />
<polygon locus_tag="cds85519_86575" id="dummy-1_q37_0_all" class="clusterblast-orf" style="stroke-width:1; fill:#15d815; stroke:black; " description="&lt;b&gt;cds85519_86575&lt;/b&gt;&lt;br&gt;Polyketide synthase modules and related proteins&lt;br&gt;Location: 85519 - 86575" points="311,35 316,30 324,30 324,40 316,40 311,35 "  />
<polygon locus_tag="cds86685_87099" id="dummy-1_q38_0_all" class="clusterblast-orf" style="stroke-width:1; fill:#15d815; stroke:black; " description="&lt;b&gt;cds86685_87099&lt;/b&gt;&lt;br&gt;hypothetical protein&lt;br&gt;Location: 86685 - 87099" points="325,35 330,30 330,30 330,40 330,40 325,35 "  />
<polygon locus_tag="cds87220_88456" id="dummy-1_q39_0_all" class="clusterblast-orf" style="stroke-width:1; fill:#15d815; stroke:black; " description="&lt;b&gt;cds87220_88456&lt;/b&gt;&lt;br&gt;Siderophore biosynthesis non-ribosomal peptide synthetase modules&lt;br&gt;Location: 87220 - 88456" points="331,35 336,30 346,30 346,40 336,40 331,35 "  />
<polygon locus_tag="cds88822_89554" id="dummy-1_q40_0_all" class="clusterblast-orf" style="stroke-width:1; fill:#1563d8; stroke:black; " description="&lt;b&gt;cds88822_89554&lt;/b&gt;&lt;br&gt;ABC-type Fe3+-siderophore transport system, ATPase component&lt;br&gt;Location: 88822 - 89554" points="350,35 355,30 359,30 359,40 355,40 350,35 "  />
<polygon locus_tag="cds89602_89986" id="dummy-1_q41_0_all" class="clusterblast-orf" style="stroke-width:1; fill:#d815b1; stroke:black; " description="&lt;b&gt;cds89602_89986&lt;/b&gt;&lt;br&gt;ABC-type Fe3+-siderophore transport system, permease component&lt;br&gt;Location: 89602 - 89986" points="360,35 364,30 364,40 360,35 "  />
<polygon locus_tag="cds90595_91204" id="dummy-1_q42_0_all" class="clusterblast-orf" style="stroke-width:1; fill:#d8b115; stroke:black; " description="&lt;b&gt;cds90595_91204&lt;/b&gt;&lt;br&gt;ABC-type Fe3+-siderophore transport system, permease component&lt;br&gt;Location: 90595 - 91204" points="371,35 376,30 379,30 379,40 376,40 371,35 "  />
<polygon locus_tag="cds91613_92624" id="dummy-1_q43_0_all" class="clusterblast-orf" style="stroke-width:1; fill:#15d863; stroke:black; " description="&lt;b&gt;cds91613_92624&lt;/b&gt;&lt;br&gt;ABC Fe(3+) transporter, substrate binding component&lt;br&gt;Location: 91613 - 92624" points="383,35 388,30 395,30 395,40 388,40 383,35 "  />
<polygon locus_tag="cds92693_93542" id="dummy-1_q44_0_all" class="clusterblast-orf" style="stroke-width:1; fill:#1515d8; stroke:black; " description="&lt;b&gt;cds92693_93542&lt;/b&gt;&lt;br&gt;Iron-chelator utilization protein&lt;br&gt;Location: 92693 - 93542" points="396,35 401,30 406,30 406,40 401,40 396,35 "  />
<polygon locus_tag="cds93538_93778" id="dummy-1_q45_0_all" class="clusterblast-orf" style="stroke-width:1; fill:#d81563; stroke:black; " description="&lt;b&gt;cds93538_93778&lt;/b&gt;&lt;br&gt;Isochorismatase of siderophore biosynthesis&lt;br&gt;Location: 93538 - 93778" points="406,35 409,30 409,40 406,35 "  />
<polygon locus_tag="cds93774_94374" id="dummy-1_q46_0_all" class="clusterblast-orf" style="stroke-width:1; fill:#d81563; stroke:black; " description="&lt;b&gt;cds93774_94374&lt;/b&gt;&lt;br&gt;Isochorismatase (EC 3.3.2.1) of siderophore biosynthesis&lt;br&gt;Location: 93774 - 94374" points="409,35 414,30 416,30 416,40 414,40 409,35 "  />
<polygon locus_tag="cds94444_94945" id="dummy-1_q47_0_all" class="clusterblast-orf" style="stroke-width:1; fill:#b1d815; stroke:black; " description="&lt;b&gt;cds94444_94945&lt;/b&gt;&lt;br&gt;2,3-dihydroxybenzoate-AMP ligase (EC 2.7.7.58) of siderophore biosynthesis&lt;br&gt;Location: 94444 - 94945" points="417,35 422,30 423,30 423,40 422,40 417,35 "  />
<polygon locus_tag="cds94914_95301" id="dummy-1_q48_0_all" class="clusterblast-orf" style="stroke-width:1; fill:#b1d815; stroke:black; " description="&lt;b&gt;cds94914_95301&lt;/b&gt;&lt;br&gt;2,3-dihydroxybenzoate-AMP ligase (EC 2.7.7.58) of siderophore biosynthesis&lt;br&gt;Location: 94914 - 95301" points="422,35 427,30 427,30 427,40 427,40 422,35 "  />
<polygon locus_tag="cds95464_95917" id="dummy-1_q49_0_all" class="clusterblast-orf" style="stroke-width:1; fill:#b1d815; stroke:black; " description="&lt;b&gt;cds95464_95917&lt;/b&gt;&lt;br&gt;2,3-dihydroxybenzoate-AMP ligase (EC 2.7.7.58) of siderophore biosynthesis&lt;br&gt;Location: 95464 - 95917" points="429,35 434,30 434,30 434,40 434,40 429,35 "  />
<polygon locus_tag="cds95955_96774" id="dummy-1_q50_0_all" class="clusterblast-orf" style="stroke-width:1; fill:#15d8b1; stroke:black; " description="&lt;b&gt;cds95955_96774&lt;/b&gt;&lt;br&gt;hypothetical protein&lt;br&gt;Location: 95955 - 96774" points="435,35 440,30 444,30 444,40 440,40 435,35 "  />
<polygon locus_tag="cds96788_97241" id="dummy-1_q51_0_all" class="clusterblast-orf" style="stroke-width:1; fill:#15d8b1; stroke:black; " description="&lt;b&gt;cds96788_97241&lt;/b&gt;&lt;br&gt;Isochorismate synthase (EC 5.4.4.2) @ Isochorismate synthase (EC 5.4.4.2) of siderophore biosynthesis&lt;br&gt;Location: 96788 - 97241" points="445,35 450,30 450,30 450,40 450,40 445,35 "  />
<polygon locus_tag="cds97256_98039" id="dummy-1_q52_0_all" class="clusterblast-orf" style="stroke-width:1; fill:#6315d8; stroke:black; " description="&lt;b&gt;cds97256_98039&lt;/b&gt;&lt;br&gt;2,3-dihydro-2,3-dihydroxybenzoate dehydrogenase (EC 1.3.1.28) of siderophore biosynthesis&lt;br&gt;Location: 97256 - 98039" points="450,35 455,30 459,30 459,40 455,40 450,35 "  />
<polygon locus_tag="cds98655_99033" id="dummy-1_q53_0_all" class="clusterblast-orf" style="stroke-width:1; fill:white; stroke:black; " description="&lt;b&gt;cds98655_99033&lt;/b&gt;&lt;br&gt;ABC transport system ATP-binding protein&lt;br&gt;Location: 98655 - 99033" points="467,40 471,35 467,30 467,40 "  />
<polygon locus_tag="cds99035_99266" id="dummy-1_q54_0_all" class="clusterblast-orf" style="stroke-width:1; fill:white; stroke:black; " description="&lt;b&gt;cds99035_99266&lt;/b&gt;&lt;br&gt;Methionine ABC transporter ATP-binding protein&lt;br&gt;Location: 99035 - 99266" points="471,40 474,35 471,30 471,40 "  />
<polygon locus_tag="cds99262_99463" id="dummy-1_q55_0_all" class="clusterblast-orf" style="stroke-width:1; fill:white; stroke:black; " description="&lt;b&gt;cds99262_99463&lt;/b&gt;&lt;br&gt;putative integral membrane protein&lt;br&gt;Location: 99262 - 99463" points="474,40 476,35 474,30 474,40 "  />
<polygon locus_tag="cds99653_100121" id="dummy-1_q56_0_all" class="clusterblast-orf" style="stroke-width:1; fill:white; stroke:black; " description="&lt;b&gt;cds99653_100121&lt;/b&gt;&lt;br&gt;Integral membrane protein&lt;br&gt;Location: 99653 - 100121" points="479,40 479,40 484,35 479,30 479,30 479,40 "  />
<polygon locus_tag="cds100110_101154" id="dummy-1_q57_0_all" class="clusterblast-orf" style="stroke-width:1; fill:white; stroke:black; " description="&lt;b&gt;cds100110_101154&lt;/b&gt;&lt;br&gt;hypothetical protein&lt;br&gt;Location: 100110 - 101154" points="484,40 491,40 496,35 491,30 484,30 484,40 "  />
<polygon locus_tag="cds101224_101452" id="dummy-1_q58_0_all" class="clusterblast-orf" style="stroke-width:1; fill:white; stroke:black; " description="&lt;b&gt;cds101224_101452&lt;/b&gt;&lt;br&gt;hypothetical protein&lt;br&gt;Location: 101224 - 101452" points="497,40 500,35 497,30 497,40 "  />
<polygon locus_tag="cds101576_102338" id="dummy-1_q59_0_all" class="clusterblast-orf" style="stroke-width:1; fill:white; stroke:black; " description="&lt;b&gt;cds101576_102338&lt;/b&gt;&lt;br&gt;hypothetical protein&lt;br&gt;Location: 101576 - 102338" points="501,40 505,40 510,35 505,30 501,30 501,40 "  />
<polygon locus_tag="cds102342_102546" id="dummy-1_q60_0_all" class="clusterblast-orf" style="stroke-width:1; fill:white; stroke:black; " description="&lt;b&gt;cds102342_102546&lt;/b&gt;&lt;br&gt;hypothetical protein&lt;br&gt;Location: 102342 - 102546" points="510,40 513,35 510,30 510,40 "  />
<polygon locus_tag="cds102542_102731" id="dummy-1_q61_0_all" class="clusterblast-orf" style="stroke-width:1; fill:white; stroke:black; " description="&lt;b&gt;cds102542_102731&lt;/b&gt;&lt;br&gt;hypothetical protein&lt;br&gt;Location: 102542 - 102731" points="513,40 515,35 513,30 513,40 "  />
<polygon locus_tag="cds102814_103657" id="dummy-1_q62_0_all" class="clusterblast-orf" style="stroke-width:1; fill:white; stroke:black; " description="&lt;b&gt;cds102814_103657&lt;/b&gt;&lt;br&gt;hypothetical protein&lt;br&gt;Location: 102814 - 103657" points="516,35 521,30 526,30 526,40 521,40 516,35 "  />
<polygon locus_tag="cds103650_103923" id="dummy-1_q63_0_all" class="clusterblast-orf" style="stroke-width:1; fill:white; stroke:black; " description="&lt;b&gt;cds103650_103923&lt;/b&gt;&lt;br&gt;3-oxoacyl-[acyl-carrier-protein] synthase, KASII (EC 2.3.1.179)&lt;br&gt;Location: 103650 - 103923" points="526,40 529,35 526,30 526,40 "  />
<polygon locus_tag="cds104293_105289" id="dummy-1_q64_0_all" class="clusterblast-orf" style="stroke-width:1; fill:white; stroke:black; " description="&lt;b&gt;cds104293_105289&lt;/b&gt;&lt;br&gt;Naringenin-chalcone synthase (EC 2.3.1.74)&lt;br&gt;Location: 104293 - 105289" points="533,40 540,40 545,35 540,30 533,30 533,40 "  />
<polygon locus_tag="cds105336_106914" id="dummy-1_q65_0_all" class="clusterblast-orf" style="stroke-width:1; fill:white; stroke:black; " description="&lt;b&gt;cds105336_106914&lt;/b&gt;&lt;br&gt;hypothetical protein&lt;br&gt;Location: 105336 - 106914" points="546,40 559,40 564,35 559,30 546,30 546,40 "  />
<polygon locus_tag="cds106930_107809" id="dummy-1_q66_0_all" class="clusterblast-orf" style="stroke-width:1; fill:white; stroke:black; " description="&lt;b&gt;cds106930_107809&lt;/b&gt;&lt;br&gt;hypothetical protein&lt;br&gt;Location: 106930 - 107809" points="565,35 570,30 575,30 575,40 570,40 565,35 "  />
<polygon locus_tag="cds107892_108084" id="dummy-1_q67_0_all" class="clusterblast-orf" style="stroke-width:1; fill:white; stroke:black; " description="&lt;b&gt;cds107892_108084&lt;/b&gt;&lt;br&gt;hypothetical protein&lt;br&gt;Location: 107892 - 108084" points="576,40 578,35 576,30 576,40 "  />
<polygon locus_tag="cds108377_109406" id="dummy-1_q68_0_all" class="clusterblast-orf" style="stroke-width:1; fill:white; stroke:black; " description="&lt;b&gt;cds108377_109406&lt;/b&gt;&lt;br&gt;Phage integrase&lt;br&gt;Location: 108377 - 109406" points="582,40 589,40 594,35 589,30 582,30 582,40 "  />
<polygon locus_tag="cds109542_110589" id="dummy-1_q69_0_all" class="clusterblast-orf" style="stroke-width:1; fill:white; stroke:black; " description="&lt;b&gt;cds109542_110589&lt;/b&gt;&lt;br&gt;hypothetical protein&lt;br&gt;Location: 109542 - 110589" points="596,35 601,30 608,30 608,40 601,40 596,35 "  />
<polygon locus_tag="cds110611_112684" id="dummy-1_q70_0_all" class="clusterblast-orf" style="stroke-width:1; fill:white; stroke:black; " description="&lt;b&gt;cds110611_112684&lt;/b&gt;&lt;br&gt;hypothetical protein&lt;br&gt;Location: 110611 - 112684" points="608,40 628,40 633,35 628,30 608,30 608,40 "  />
<polygon locus_tag="cds112714_112894" id="dummy-1_q71_0_all" class="clusterblast-orf" style="stroke-width:1; fill:white; stroke:black; " description="&lt;b&gt;cds112714_112894&lt;/b&gt;&lt;br&gt;hypothetical protein&lt;br&gt;Location: 112714 - 112894" points="633,40 635,35 633,30 633,40 "  />
<polygon locus_tag="cds112890_113967" id="dummy-1_q72_0_all" class="clusterblast-orf" style="stroke-width:1; fill:white; stroke:black; " description="&lt;b&gt;cds112890_113967&lt;/b&gt;&lt;br&gt;hypothetical protein&lt;br&gt;Location: 112890 - 113967" points="635,35 640,30 648,30 648,40 640,40 635,35 "  />
<polygon locus_tag="cds113951_115355" id="dummy-1_q73_0_all" class="clusterblast-orf" style="stroke-width:1; fill:white; stroke:black; " description="&lt;b&gt;cds113951_115355&lt;/b&gt;&lt;br&gt;Serine protease&lt;br&gt;Location: 113951 - 115355" points="648,35 653,30 664,30 664,40 653,40 648,35 "  />
<polygon locus_tag="cds115465_116338" id="dummy-1_q74_0_all" class="clusterblast-orf" style="stroke-width:1; fill:white; stroke:black; " description="&lt;b&gt;cds115465_116338&lt;/b&gt;&lt;br&gt;hypothetical protein&lt;br&gt;Location: 115465 - 116338" points="666,40 671,40 676,35 671,30 666,30 666,40 "  />
<polygon locus_tag="cds116425_116878" id="dummy-1_q75_0_all" class="clusterblast-orf" style="stroke-width:1; fill:white; stroke:black; " description="&lt;b&gt;cds116425_116878&lt;/b&gt;&lt;br&gt;hypothetical protein&lt;br&gt;Location: 116425 - 116878" points="677,40 677,40 682,35 677,30 677,30 677,40 "  />
<polygon locus_tag="cds117115_117316" id="dummy-1_q76_0_all" class="clusterblast-orf" style="stroke-width:1; fill:white; stroke:black; " description="&lt;b&gt;cds117115_117316&lt;/b&gt;&lt;br&gt;Transcriptional regulator, LysR family&lt;br&gt;Location: 117115 - 117316" points="685,35 688,30 688,40 685,35 "  />
<polygon locus_tag="cds117603_119823" id="dummy-1_q77_0_all" class="clusterblast-orf" style="stroke-width:1; fill:white; stroke:black; " description="&lt;b&gt;cds117603_119823&lt;/b&gt;&lt;br&gt;Isocitrate dehydrogenase [NADP] (EC 1.1.1.42); Monomeric isocitrate dehydrogenase [NADP] (EC 1.1.1.42)&lt;br&gt;Location: 117603 - 119823" points="691,40 712,40 717,35 712,30 691,30 691,40 "  />
<polygon locus_tag="cds120420_120690" id="dummy-1_q78_0_all" class="clusterblast-orf" style="stroke-width:1; fill:white; stroke:black; " description="&lt;b&gt;cds120420_120690&lt;/b&gt;&lt;br&gt;Chaperone protein DnaK&lt;br&gt;Location: 120420 - 120690" points="724,40 727,35 724,30 724,40 "  />
<polygon locus_tag="cds120722_121400" id="dummy-1_q79_0_all" class="clusterblast-orf" style="stroke-width:1; fill:white; stroke:black; " description="&lt;b&gt;cds120722_121400&lt;/b&gt;&lt;br&gt;Chaperone protein DnaK&lt;br&gt;Location: 120722 - 121400" points="728,40 731,40 736,35 731,30 728,30 728,40 "  />
<polygon locus_tag="cds121396_121528" id="dummy-1_q80_0_all" class="clusterblast-orf" style="stroke-width:1; fill:white; stroke:black; " description="&lt;b&gt;cds121396_121528&lt;/b&gt;&lt;br&gt;Chaperone protein DnaK&lt;br&gt;Location: 121396 - 121528" points="736,40 737,35 736,30 736,40 "  />
<polygon locus_tag="cds121524_122247" id="dummy-1_q81_0_all" class="clusterblast-orf" style="stroke-width:1; fill:white; stroke:black; " description="&lt;b&gt;cds121524_122247&lt;/b&gt;&lt;br&gt;Chaperone protein DnaK&lt;br&gt;Location: 121524 - 122247" points="737,40 741,40 746,35 741,30 737,30 737,40 "  />
<polygon locus_tag="cds122462_122852" id="dummy-1_q82_0_all" class="clusterblast-orf" style="stroke-width:1; fill:white; stroke:black; " description="&lt;b&gt;cds122462_122852&lt;/b&gt;&lt;br&gt;hypothetical protein&lt;br&gt;Location: 122462 - 122852" points="748,35 753,30 753,30 753,40 753,40 748,35 "  />
<polygon locus_tag="cds122853_123714" id="dummy-1_q83_0_all" class="clusterblast-orf" style="stroke-width:1; fill:white; stroke:black; " description="&lt;b&gt;cds122853_123714&lt;/b&gt;&lt;br&gt;Uncharacterized, RsbU-domain-containing protein SCO7063&lt;br&gt;Location: 122853 - 123714" points="753,40 758,40 763,35 758,30 753,30 753,40 "  />
<polygon locus_tag="cds123753_124983" id="dummy-1_q84_0_all" class="clusterblast-orf" style="stroke-width:1; fill:white; stroke:black; " description="&lt;b&gt;cds123753_124983&lt;/b&gt;&lt;br&gt;hypothetical protein&lt;br&gt;Location: 123753 - 124983" points="764,40 773,40 778,35 773,30 764,30 764,40 "  />
<polygon locus_tag="cds124979_125099" id="dummy-1_q85_0_all" class="clusterblast-orf" style="stroke-width:1; fill:white; stroke:black; " description="&lt;b&gt;cds124979_125099&lt;/b&gt;&lt;br&gt;hypothetical protein&lt;br&gt;Location: 124979 - 125099" points="778,40 780,35 778,30 778,40 "  />
</g>
<g label="BGC0000423" description="BGC0000423_c1: scabichelin (50% of genes show similarity), NRP" class="clusterblast-cluster"  >
<text class="clusterblast-acc" x="5" y="70"  >
<a xlink:href="https://mibig.secondarymetabolites.org/go/BGC0000423/1" target="_blank">BGC0000423</a>:                                                                      scabichelin (50% of genes show similarity), NRP</text>
<line style="stroke-width:1; stroke:grey; " y2="85" x1="10" y1="85" x2="778.0"  />
</g>
<g id="a1_000"  >
<polygon locus_tag="SCAB_85521" id="dummy-1_h1_7_0" class="clusterblast-orf" style="stroke-width:1; fill:#63d815; stroke:black; " description="&lt;b&gt;SCAB_85521&lt;/b&gt;&lt;br&gt;putative peptide N-oxygenase&lt;br&gt;Location: 30020 - 28614&lt;br&gt;&lt;br&gt;&lt;b&gt;BlastP hit with cds71720_73757&lt;/b&gt;&lt;br&gt;Percentage identity: 51&lt;br&gt;Percentage coverage: 54&lt;br&gt;BLAST bit score: 316&lt;br&gt;E-value: 8.7e-86" points="212,85 217,80 229,80 229,90 217,90 212,85 "  />
</g>
<g id="a1_001"  >
<polygon locus_tag="SCAB_85511" id="dummy-1_h1_7_1" class="clusterblast-orf" style="stroke-width:1; fill:#15b1d8; stroke:black; " description="&lt;b&gt;SCAB_85511&lt;/b&gt;&lt;br&gt;putative formyltransferase&lt;br&gt;Location: 28561 - 27614&lt;br&gt;&lt;br&gt;&lt;b&gt;BlastP hit with cds74009_74138&lt;/b&gt;&lt;br&gt;Percentage identity: 79&lt;br&gt;Percentage coverage: 100&lt;br&gt;BLAST bit score: 77&lt;br&gt;E-value: 4.2e-15&lt;br&gt;&lt;br&gt;&lt;b&gt;BlastP hit with cds75721_76141&lt;/b&gt;&lt;br&gt;Percentage identity: 58&lt;br&gt;Percentage coverage: 71&lt;br&gt;BLAST bit score: 110&lt;br&gt;E-value: 1.9e-24" points="229,90 235,90 240,85 235,80 229,80 229,90 "  />
</g>
<g id="a1_002"  >
<polygon locus_tag="SCAB_85501" id="dummy-1_h1_7_2" class="clusterblast-orf" style="stroke-width:1; fill:#1563d8; stroke:black; " description="&lt;b&gt;SCAB_85501&lt;/b&gt;&lt;br&gt;putative siderophore transport system ATP-binding component&lt;br&gt;Location: 27570 - 26656&lt;br&gt;&lt;br&gt;&lt;b&gt;BlastP hit with cds88822_89554&lt;/b&gt;&lt;br&gt;Percentage identity: 60&lt;br&gt;Percentage coverage: 97&lt;br&gt;BLAST bit score: 273&lt;br&gt;E-value: 3e-73" points="241,85 246,80 252,80 252,90 246,90 241,85 "  />
</g>
<g id="a1_003"  >
<polygon locus_tag="SCAB_85491" id="dummy-1_h1_7_3" class="clusterblast-orf" style="stroke-width:1; fill:#d815b1; stroke:black; " description="&lt;b&gt;SCAB_85491&lt;/b&gt;&lt;br&gt;putative siderophore transport system integral membrane component, FecCD family&lt;br&gt;Location: 26651 - 25542&lt;br&gt;&lt;br&gt;&lt;b&gt;BlastP hit with cds89602_89986&lt;/b&gt;&lt;br&gt;Percentage identity: 47&lt;br&gt;Percentage coverage: 87&lt;br&gt;BLAST bit score: 86&lt;br&gt;E-value: 4.7e-17" points="252,85 257,80 265,80 265,90 257,90 252,85 "  />
</g>
<g id="a1_004"  >
<polygon locus_tag="SCAB_85481" id="dummy-1_h1_7_4" class="clusterblast-orf" style="stroke-width:1; fill:white; stroke:black; " description="&lt;b&gt;SCAB_85481&lt;/b&gt;&lt;br&gt;putative siderophore transport system integral membrane component, FecCD family&lt;br&gt;Location: 25259 - 24219" points="268,85 273,80 281,80 281,90 273,90 268,85 "  />
</g>
<g id="a1_005"  >
<polygon locus_tag="SCAB_85471" id="dummy-1_h1_7_5" class="clusterblast-orf" style="stroke-width:1; fill:#15d815; stroke:black; " description="&lt;b&gt;SCAB_85471&lt;/b&gt;&lt;br&gt;putative NRPS/siderophore biosynthesis protein&lt;br&gt;Location: 24022 - 4964&lt;br&gt;&lt;br&gt;&lt;b&gt;BlastP hit with cds82531_83017&lt;/b&gt;&lt;br&gt;Percentage identity: 49&lt;br&gt;Percentage coverage: 101&lt;br&gt;BLAST bit score: 119&lt;br&gt;E-value: 4.8e-27&lt;br&gt;&lt;br&gt;&lt;b&gt;BlastP hit with cds85519_86575&lt;/b&gt;&lt;br&gt;Percentage identity: 54&lt;br&gt;Percentage coverage: 86&lt;br&gt;BLAST bit score: 286&lt;br&gt;E-value: 6.5e-77" points="283,90 503,90 508,85 503,80 283,80 283,90 "  />
</g>
<g id="a1_006"  >
<polygon locus_tag="SCAB_85461" id="dummy-1_h1_7_6" class="clusterblast-orf" style="stroke-width:1; fill:white; stroke:black; " description="&lt;b&gt;SCAB_85461&lt;/b&gt;&lt;br&gt;putative MbtH homolog&lt;br&gt;Location: 4949 - 4740" points="509,90 511,85 509,80 509,90 "  />
</g>
<g id="a1_007"  >
<polygon locus_tag="SCAB_85451" id="dummy-1_h1_7_7" class="clusterblast-orf" style="stroke-width:1; fill:white; stroke:black; " description="&lt;b&gt;SCAB_85451&lt;/b&gt;&lt;br&gt;putative secreted siderophore-binding lipoprotein (transport system associated)&lt;br&gt;Location: 4669 - 3596" points="512,85 517,80 525,80 525,90 517,90 512,85 "  />
</g>
<g id="a1_008"  >
<polygon locus_tag="SCAB_85441" id="dummy-1_h1_7_8" class="clusterblast-orf" style="stroke-width:1; fill:white; stroke:black; " description="&lt;b&gt;SCAB_85441&lt;/b&gt;&lt;br&gt;putative ABC-transport system ATP-binding component&lt;br&gt;Location: 3599 - 1731" points="525,85 530,80 547,80 547,90 530,90 525,85 "  />
</g>
<g id="a1_009"  >
<polygon locus_tag="SCAB_85431" id="dummy-1_h1_7_9" class="clusterblast-orf" style="stroke-width:1; fill:white; stroke:black; " description="&lt;b&gt;SCAB_85431&lt;/b&gt;&lt;br&gt;putative ABC transport system integral membrane component&lt;br&gt;Location: 1734 - 1" points="547,85 552,80 567,80 567,90 552,90 547,85 "  />
</g>
</svg>
