<svg xmlns:xlink="http://www.w3.org/1999/xlink" height="230" y="0" viewBox="0 0 800 230" xmlns="http://www.w3.org/2000/svg" width="800" preserveAspectRatio="none" version="1.1" x="0"  >
<g label="Query sequence" class="clusterblast-cluster"  >
<text y="20" class="clusterblast-acc" x="5"  >
Query sequence</text>
<line x1="10" y1="35" y2="35" style="stroke:grey; stroke-width:1; " x2="778.0"  />
<polygon id="dummy-1_q0_0_all" description="&lt;b&gt;cds162377_162890&lt;/b&gt;&lt;br&gt;DUF742 protein, component of G-protein-coupled receptor (GPCR) system&lt;br&gt;Location: 162377 - 162890" points="13,40 26,40 31,35 26,30 13,30 13,40 " class="clusterblast-orf" style="stroke:black; fill:white; stroke-width:1; " locus_tag="cds162377_162890"  />
<polygon id="dummy-1_q1_0_all" description="&lt;b&gt;cds162936_163461&lt;/b&gt;&lt;br&gt;Small Ras-like GTPase, component of G-protein-coupled receptor (GPCR) system&lt;br&gt;Location: 162936 - 163461" points="33,40 47,40 52,35 47,30 33,30 33,40 " class="clusterblast-orf" style="stroke:black; fill:white; stroke-width:1; " locus_tag="cds162936_163461"  />
<polygon id="dummy-1_q2_0_all" description="&lt;b&gt;cds163590_166761&lt;/b&gt;&lt;br&gt;hypothetical protein&lt;br&gt;Location: 163590 - 166761" points="57,40 166,40 171,35 166,30 57,30 57,40 " class="clusterblast-orf" style="stroke:black; fill:white; stroke-width:1; " locus_tag="cds163590_166761"  />
<polygon id="dummy-1_q3_0_all" description="&lt;b&gt;cds166817_167012&lt;/b&gt;&lt;br&gt;hypothetical protein&lt;br&gt;Location: 166817 - 167012" points="173,35 178,30 180,30 180,40 178,40 173,35 " class="clusterblast-orf" style="stroke:black; fill:white; stroke-width:1; " locus_tag="cds166817_167012"  />
<polygon id="dummy-1_q4_0_all" description="&lt;b&gt;cds167040_168636&lt;/b&gt;&lt;br&gt;Acetyl-coenzyme A carboxyl transferase alpha chain (EC 6.4.1.2) / Acetyl-coenzyme A carboxyl transferase beta chain (EC 6.4.1.2); Propionyl-CoA carboxylase beta chain (EC 6.4.1.3)&lt;br&gt;Location: 167040 - 168636" points="181,35 186,30 239,30 239,40 186,40 181,35 " class="clusterblast-orf" style="stroke:black; fill:white; stroke-width:1; " locus_tag="cds167040_168636"  />
<polygon id="dummy-1_q5_0_all" description="&lt;b&gt;cds169002_169623&lt;/b&gt;&lt;br&gt;Protein yceI precursor&lt;br&gt;Location: 169002 - 169623" points="252,40 269,40 274,35 269,30 252,30 252,40 " class="clusterblast-orf" style="stroke:black; fill:#d81515; stroke-width:1; " locus_tag="cds169002_169623"  />
<polygon id="dummy-1_q6_0_all" description="&lt;b&gt;cds169634_171707&lt;/b&gt;&lt;br&gt;Efflux ABC transporter, permease/ATP-binding protein SCO0742&lt;br&gt;Location: 169634 - 171707" points="275,35 280,30 349,30 349,40 280,40 275,35 " class="clusterblast-orf" style="stroke:black; fill:#77d815; stroke-width:1; " locus_tag="cds169634_171707"  />
<polygon id="dummy-1_q7_0_all" description="&lt;b&gt;cds171966_172392&lt;/b&gt;&lt;br&gt;hypothetical protein&lt;br&gt;Location: 171966 - 172392" points="359,35 364,30 374,30 374,40 364,40 359,35 " class="clusterblast-orf" style="stroke:black; fill:#15d8d8; stroke-width:1; " locus_tag="cds171966_172392"  />
<polygon id="dummy-1_q8_0_all" description="&lt;b&gt;cds172400_172652&lt;/b&gt;&lt;br&gt;hypothetical protein&lt;br&gt;Location: 172400 - 172652" points="374,35 379,30 383,30 383,40 379,40 374,35 " class="clusterblast-orf" style="stroke:black; fill:#7715d8; stroke-width:1; " locus_tag="cds172400_172652"  />
<polygon id="dummy-1_q9_0_all" description="&lt;b&gt;cds172648_174505&lt;/b&gt;&lt;br&gt;Asparagine synthetase [glutamine-hydrolyzing] (EC 6.3.5.4)&lt;br&gt;Location: 172648 - 174505" points="383,35 388,30 450,30 450,40 388,40 383,35 " class="clusterblast-orf" style="stroke:black; fill:#d8a715; stroke-width:1; " locus_tag="cds172648_174505"  />
<polygon id="dummy-1_q10_0_all" description="&lt;b&gt;cds174582_174735&lt;/b&gt;&lt;br&gt;hypothetical protein&lt;br&gt;Location: 174582 - 174735" points="453,35 458,30 458,30 458,40 458,40 453,35 " class="clusterblast-orf" style="stroke:black; fill:#15d846; stroke-width:1; " locus_tag="cds174582_174735"  />
<polygon id="dummy-1_q11_0_all" description="&lt;b&gt;cds174887_176357&lt;/b&gt;&lt;br&gt;hypothetical protein&lt;br&gt;Location: 174887 - 176357" points="464,40 512,40 517,35 512,30 464,30 464,40 " class="clusterblast-orf" style="stroke:black; fill:white; stroke-width:1; " locus_tag="cds174887_176357"  />
<polygon id="dummy-1_q12_0_all" description="&lt;b&gt;cds176454_178128&lt;/b&gt;&lt;br&gt;Ubiquinol-cytochrome C reductase, cytochrome B subunit (EC 1.10.2.2)&lt;br&gt;Location: 176454 - 178128" points="520,40 576,40 581,35 576,30 520,30 520,40 " class="clusterblast-orf" style="stroke:black; fill:white; stroke-width:1; " locus_tag="cds176454_178128"  />
<polygon id="dummy-1_q13_0_all" description="&lt;b&gt;cds178124_179453&lt;/b&gt;&lt;br&gt;putative membrane protein&lt;br&gt;Location: 178124 - 179453" points="580,35 585,30 628,30 628,40 585,40 580,35 " class="clusterblast-orf" style="stroke:black; fill:#1546d8; stroke-width:1; " locus_tag="cds178124_179453"  />
<polygon id="dummy-1_q14_0_all" description="&lt;b&gt;cds179655_181539&lt;/b&gt;&lt;br&gt;putative glycosyl hydrolase&lt;br&gt;Location: 179655 - 181539" points="636,40 699,40 704,35 699,30 636,30 636,40 " class="clusterblast-orf" style="stroke:black; fill:white; stroke-width:1; " locus_tag="cds179655_181539"  />
<polygon id="dummy-1_q15_0_all" description="&lt;b&gt;cds181660_183292&lt;/b&gt;&lt;br&gt;(R)-citramalate synthase (EC 2.3.1.182)&lt;br&gt;Location: 181660 - 183292" points="708,35 713,30 767,30 767,40 713,40 708,35 " class="clusterblast-orf" style="stroke:black; fill:#d815a7; stroke-width:1; " locus_tag="cds181660_183292"  />
</g>
<g label="NZ_JNLT01000024" description="NZ_JNLT01000024 (9930-32744): Streptomyces sp. CNS654 CD02DRAFT scaffold00023... (20% of genes show similarity), lassopeptide" class="clusterblast-cluster"  >
<text y="70" class="clusterblast-acc" x="5"  >
<a xlink:href="https://antismash-db.secondarymetabolites.org/area.html?record=NZ_JNLT01000024&amp;start=9930&amp;end=32744" target="_blank">NZ_JNLT01000024 (9930-32744)</a>: Streptomyces sp. CNS654 CD02DRAFT scaffold00023... (20% of genes show similarity), lassopeptide</text>
<line x1="10" y1="85" y2="85" style="stroke:grey; stroke-width:1; " x2="778.0"  />
</g>
<g id="a1_000"  >
<polygon id="dummy-1_h1_7_0" description="&lt;b&gt;CD02_RS0130625&lt;/b&gt;&lt;br&gt;tetratricopeptide repeat protein&lt;br&gt;Location: 10545 - 11531" points="0,90 30,90 35,85 30,80 0,80 0,90 " class="clusterblast-orf" style="stroke:black; fill:white; stroke-width:1; " locus_tag="CD02_RS0130625"  />
</g>
<g id="a1_001"  >
<polygon id="dummy-1_h1_7_1" description="&lt;b&gt;CD02_RS0130630&lt;/b&gt;&lt;br&gt;hypothetical protein&lt;br&gt;Location: 11528 - 11740" points="35,90 38,90 43,85 38,80 35,80 35,90 " class="clusterblast-orf" style="stroke:black; fill:white; stroke-width:1; " locus_tag="CD02_RS0130630"  />
</g>
<g id="a1_002"  >
<polygon id="dummy-1_h1_7_2" description="&lt;b&gt;CD02_RS0130635&lt;/b&gt;&lt;br&gt;hypothetical protein&lt;br&gt;Location: 11821 - 12018" points="45,90 48,90 53,85 48,80 45,80 45,90 " class="clusterblast-orf" style="stroke:black; fill:white; stroke-width:1; " locus_tag="CD02_RS0130635"  />
</g>
<g id="a1_003"  >
<polygon id="dummy-1_h1_7_3" description="&lt;b&gt;CD02_RS0130640&lt;/b&gt;&lt;br&gt;GNAT family N-acetyltransferase&lt;br&gt;Location: 12063 - 12620" points="54,85 59,80 74,80 74,90 59,90 54,85 " class="clusterblast-orf" style="stroke:black; fill:white; stroke-width:1; " locus_tag="CD02_RS0130640"  />
</g>
<g id="a1_004"  >
<polygon id="dummy-1_h1_7_4" description="&lt;b&gt;CD02_RS0130645&lt;/b&gt;&lt;br&gt;winged helix-turn-helix transcriptional regulator&lt;br&gt;Location: 12621 - 13007" points="74,90 83,90 88,85 83,80 74,80 74,90 " class="clusterblast-orf" style="stroke:black; fill:white; stroke-width:1; " locus_tag="CD02_RS0130645"  />
</g>
<g id="a1_005"  >
<polygon id="dummy-1_h1_7_5" description="&lt;b&gt;CD02_RS0130650&lt;/b&gt;&lt;br&gt;DUF1772 domain-containing protein&lt;br&gt;Location: 13021 - 13467" points="89,85 94,80 105,80 105,90 94,90 89,85 " class="clusterblast-orf" style="stroke:black; fill:white; stroke-width:1; " locus_tag="CD02_RS0130650"  />
</g>
<g id="a1_006"  >
<polygon id="dummy-1_h1_7_6" description="&lt;b&gt;CD02_RS0130655&lt;/b&gt;&lt;br&gt;TetR/AcrR family transcriptional regulator&lt;br&gt;Location: 13559 - 14137" points="108,90 124,90 129,85 124,80 108,80 108,90 " class="clusterblast-orf" style="stroke:black; fill:white; stroke-width:1; " locus_tag="CD02_RS0130655"  />
</g>
<g id="a1_007"  >
<polygon id="dummy-1_h1_7_7" description="&lt;b&gt;CD02_RS0130660&lt;/b&gt;&lt;br&gt;hypothetical protein&lt;br&gt;Location: 14180 - 15304" points="131,85 136,80 171,80 171,90 136,90 131,85 " class="clusterblast-orf" style="stroke:black; fill:white; stroke-width:1; " locus_tag="CD02_RS0130660"  />
</g>
<g id="a1_008"  >
<polygon id="dummy-1_h1_7_8" description="&lt;b&gt;CD02_RS0130665&lt;/b&gt;&lt;br&gt;hypothetical protein&lt;br&gt;Location: 15557 - 16066" points="180,85 185,80 198,80 198,90 185,90 180,85 " class="clusterblast-orf" style="stroke:black; fill:white; stroke-width:1; " locus_tag="CD02_RS0130665"  />
</g>
<g id="a1_009"  >
<polygon id="dummy-1_h1_7_9" description="&lt;b&gt;CD02_RS0130670&lt;/b&gt;&lt;br&gt;SigE family RNA polymerase sigma factor&lt;br&gt;Location: 16059 - 16559" points="198,85 203,80 216,80 216,90 203,90 198,85 " class="clusterblast-orf" style="stroke:black; fill:white; stroke-width:1; " locus_tag="CD02_RS0130670"  />
</g>
<g id="a1_0010"  >
<polygon id="dummy-1_h1_7_10" description="&lt;b&gt;CD02_RS0130675&lt;/b&gt;&lt;br&gt;GNAT family N-acetyltransferase&lt;br&gt;Location: 16698 - 17252" points="221,85 226,80 241,80 241,90 226,90 221,85 " class="clusterblast-orf" style="stroke:black; fill:white; stroke-width:1; " locus_tag="CD02_RS0130675"  />
</g>
<g id="a1_0011"  >
<polygon id="dummy-1_h1_7_11" description="&lt;b&gt;CD02_RS0130680&lt;/b&gt;&lt;br&gt;Uma2 family endonuclease&lt;br&gt;Location: 17465 - 18052" points="249,90 265,90 270,85 265,80 249,80 249,90 " class="clusterblast-orf" style="stroke:black; fill:white; stroke-width:1; " locus_tag="CD02_RS0130680"  />
</g>
<g id="a1_0012"  >
<polygon id="dummy-1_h1_7_12" description="&lt;b&gt;CD02_RS0130685&lt;/b&gt;&lt;br&gt;ABC transporter ATP-binding protein&lt;br&gt;Location: 18115 - 20016&lt;br&gt;&lt;br&gt;&lt;b&gt;BlastP hit with cds169634_171707&lt;/b&gt;&lt;br&gt;Percentage identity: 66&lt;br&gt;Percentage coverage: 83&lt;br&gt;BLAST bit score: 678&lt;br&gt;E-value: 6.8e-193" points="272,85 277,80 341,80 341,90 277,90 272,85 " class="clusterblast-orf" style="stroke:black; fill:#77d815; stroke-width:1; " locus_tag="CD02_RS0130685"  />
</g>
<g id="a1_0013"  >
<polygon id="dummy-1_h1_7_13" description="&lt;b&gt;CD02_RS0130690&lt;/b&gt;&lt;br&gt;lasso peptide biosynthesis B2 protein&lt;br&gt;Location: 19931 - 20440&lt;br&gt;&lt;br&gt;&lt;b&gt;BlastP hit with cds171966_172392&lt;/b&gt;&lt;br&gt;Percentage identity: 59&lt;br&gt;Percentage coverage: 92&lt;br&gt;BLAST bit score: 149&lt;br&gt;E-value: 2.9e-34" points="338,85 343,80 356,80 356,90 343,90 338,85 " class="clusterblast-orf" style="stroke:black; fill:#15d8d8; stroke-width:1; " locus_tag="CD02_RS0130690"  />
</g>
<g id="a1_0014"  >
<polygon id="dummy-1_h1_7_14" description="&lt;b&gt;CD02_RS0130695&lt;/b&gt;&lt;br&gt;lasso peptide biosynthesis PqqD family chaperone&lt;br&gt;Location: 20437 - 20688&lt;br&gt;&lt;br&gt;&lt;b&gt;BlastP hit with cds172400_172652&lt;/b&gt;&lt;br&gt;Percentage identity: 55&lt;br&gt;Percentage coverage: 100&lt;br&gt;BLAST bit score: 94&lt;br&gt;E-value: 6.6e-18" points="356,85 361,80 365,80 365,90 361,90 356,85 " class="clusterblast-orf" style="stroke:black; fill:#7715d8; stroke-width:1; " locus_tag="CD02_RS0130695"  />
</g>
<g id="a1_0015"  >
<polygon id="dummy-1_h1_7_15" description="&lt;b&gt;CD02_RS0130700&lt;/b&gt;&lt;br&gt;asparagine synthetase B family protein&lt;br&gt;Location: 20717 - 22744&lt;br&gt;&lt;br&gt;&lt;b&gt;BlastP hit with cds172648_174505&lt;/b&gt;&lt;br&gt;Percentage identity: 50&lt;br&gt;Percentage coverage: 108&lt;br&gt;BLAST bit score: 586&lt;br&gt;E-value: 3.2e-165" points="366,85 371,80 439,80 439,90 371,90 366,85 " class="clusterblast-orf" style="stroke:black; fill:#d8a715; stroke-width:1; " locus_tag="CD02_RS0130700"  />
</g>
<g id="a1_0016"  >
<polygon id="dummy-1_h1_7_16" description="&lt;b&gt;CD02_RS38355&lt;/b&gt;&lt;br&gt;hypothetical protein&lt;br&gt;Location: 22795 - 22926&lt;br&gt;&lt;br&gt;&lt;b&gt;BlastP hit with cds174582_174735&lt;/b&gt;&lt;br&gt;Percentage identity: 56&lt;br&gt;Percentage coverage: 96&lt;br&gt;BLAST bit score: 53&lt;br&gt;E-value: 5.9e-06" points="441,85 446,80 446,80 446,90 446,90 441,85 " class="clusterblast-orf" style="stroke:black; fill:#15d846; stroke-width:1; " locus_tag="CD02_RS38355"  />
</g>
<g id="a1_0017"  >
<polygon id="dummy-1_h1_7_17" description="&lt;b&gt;CD02_RS0130705&lt;/b&gt;&lt;br&gt;hypothetical protein&lt;br&gt;Location: 23495 - 23941" points="466,85 471,80 482,80 482,90 471,90 466,85 " class="clusterblast-orf" style="stroke:black; fill:white; stroke-width:1; " locus_tag="CD02_RS0130705"  />
</g>
<g id="a1_0018"  >
<polygon id="dummy-1_h1_7_18" description="&lt;b&gt;CD02_RS0130710&lt;/b&gt;&lt;br&gt;chaperonin GroEL&lt;br&gt;Location: 24244 - 25866" points="493,85 498,80 552,80 552,90 498,90 493,85 " class="clusterblast-orf" style="stroke:black; fill:white; stroke-width:1; " locus_tag="CD02_RS0130710"  />
</g>
<g id="a1_0019"  >
<polygon id="dummy-1_h1_7_19" description="&lt;b&gt;CD02_RS0130715&lt;/b&gt;&lt;br&gt;cold-shock protein&lt;br&gt;Location: 26251 - 26457" points="566,85 571,80 573,80 573,90 571,90 566,85 " class="clusterblast-orf" style="stroke:black; fill:white; stroke-width:1; " locus_tag="CD02_RS0130715"  />
</g>
<g id="a1_0020"  >
<polygon id="dummy-1_h1_7_20" description="&lt;b&gt;CD02_RS0130720&lt;/b&gt;&lt;br&gt;MoaD/ThiS family protein&lt;br&gt;Location: 26911 - 27189" points="589,85 594,80 599,80 599,90 594,90 589,85 " class="clusterblast-orf" style="stroke:black; fill:white; stroke-width:1; " locus_tag="CD02_RS0130720"  />
</g>
<g id="a1_0021"  >
<polygon id="dummy-1_h1_7_21" description="&lt;b&gt;CD02_RS0130725&lt;/b&gt;&lt;br&gt;threonine synthase&lt;br&gt;Location: 27225 - 28520" points="601,85 606,80 647,80 647,90 606,90 601,85 " class="clusterblast-orf" style="stroke:black; fill:white; stroke-width:1; " locus_tag="CD02_RS0130725"  />
</g>
<g id="a1_0022"  >
<polygon id="dummy-1_h1_7_22" description="&lt;b&gt;CD02_RS0130730&lt;/b&gt;&lt;br&gt;glucosyl-3-phosphoglycerate synthase&lt;br&gt;Location: 28820 - 29770" points="658,90 687,90 692,85 687,80 658,80 658,90 " class="clusterblast-orf" style="stroke:black; fill:white; stroke-width:1; " locus_tag="CD02_RS0130730"  />
</g>
<g id="a1_0023"  >
<polygon id="dummy-1_h1_7_23" description="&lt;b&gt;CD02_RS0130735&lt;/b&gt;&lt;br&gt;trehalose-6-phosphate synthase&lt;br&gt;Location: 29865 - 31256" points="696,90 741,90 746,85 741,80 696,80 696,90 " class="clusterblast-orf" style="stroke:black; fill:white; stroke-width:1; " locus_tag="CD02_RS0130735"  />
</g>
<g id="a1_0024"  >
<polygon id="dummy-1_h1_7_24" description="&lt;b&gt;CD02_RS0130740&lt;/b&gt;&lt;br&gt;trehalose-phosphatase&lt;br&gt;Location: 31337 - 32188" points="749,85 754,80 779,80 779,90 754,90 749,85 " class="clusterblast-orf" style="stroke:black; fill:white; stroke-width:1; " locus_tag="CD02_RS0130740"  />
</g>
</svg>
