<svg xmlns:xlink="http://www.w3.org/1999/xlink" height="230" y="0" viewBox="0 0 800 230" xmlns="http://www.w3.org/2000/svg" width="800" preserveAspectRatio="none" version="1.1" x="0"  >
<g label="Query sequence" class="clusterblast-cluster"  >
<text y="20" class="clusterblast-acc" x="5"  >
Query sequence</text>
<line x1="10" y1="35" y2="35" style="stroke:grey; stroke-width:1; " x2="778.0"  />
<polygon id="dummy-1_q0_0_all" description="&lt;b&gt;cds321453_322173&lt;/b&gt;&lt;br&gt;putative lipoprotein&lt;br&gt;Location: 321453 - 322173" points="209,35 214,30 215,30 215,40 214,40 209,35 " class="clusterblast-orf" style="stroke:black; fill:white; stroke-width:1; " locus_tag="cds321453_322173"  />
<polygon id="dummy-1_q1_0_all" description="&lt;b&gt;cds322399_324283&lt;/b&gt;&lt;br&gt;Heterodimeric efflux ABC transporter, permease/ATP-binding subunit 1&lt;br&gt;Location: 322399 - 324283" points="216,40 225,40 230,35 225,30 216,30 216,40 " class="clusterblast-orf" style="stroke:black; fill:white; stroke-width:1; " locus_tag="cds322399_324283"  />
<polygon id="dummy-1_q2_0_all" description="&lt;b&gt;cds324279_326079&lt;/b&gt;&lt;br&gt;Heterodimeric efflux ABC transporter, permease/ATP-binding subunit 2&lt;br&gt;Location: 324279 - 326079" points="230,40 238,40 243,35 238,30 230,30 230,40 " class="clusterblast-orf" style="stroke:black; fill:white; stroke-width:1; " locus_tag="cds324279_326079"  />
<polygon id="dummy-1_q3_0_all" description="&lt;b&gt;cds326427_326931&lt;/b&gt;&lt;br&gt;hypothetical protein&lt;br&gt;Location: 326427 - 326931" points="246,35 249,30 249,40 246,35 " class="clusterblast-orf" style="stroke:black; fill:white; stroke-width:1; " locus_tag="cds326427_326931"  />
<polygon id="dummy-1_q4_0_all" description="&lt;b&gt;cds327028_327622&lt;/b&gt;&lt;br&gt;hypothetical protein&lt;br&gt;Location: 327028 - 327622" points="250,40 250,40 255,35 250,30 250,30 250,40 " class="clusterblast-orf" style="stroke:black; fill:white; stroke-width:1; " locus_tag="cds327028_327622"  />
<polygon id="dummy-1_q5_0_all" description="&lt;b&gt;cds327602_328283&lt;/b&gt;&lt;br&gt;hypothetical protein&lt;br&gt;Location: 327602 - 328283" points="254,40 254,40 259,35 254,30 254,30 254,40 " class="clusterblast-orf" style="stroke:black; fill:white; stroke-width:1; " locus_tag="cds327602_328283"  />
<polygon id="dummy-1_q6_0_all" description="&lt;b&gt;cds328287_329082&lt;/b&gt;&lt;br&gt;Integral membrane protein&lt;br&gt;Location: 328287 - 329082" points="259,35 264,30 265,30 265,40 264,40 259,35 " class="clusterblast-orf" style="stroke:black; fill:white; stroke-width:1; " locus_tag="cds328287_329082"  />
<polygon id="dummy-1_q7_0_all" description="&lt;b&gt;cds329275_331789&lt;/b&gt;&lt;br&gt;putative ATP-dependent helicase&lt;br&gt;Location: 329275 - 331789" points="267,40 280,40 285,35 280,30 267,30 267,40 " class="clusterblast-orf" style="stroke:black; fill:white; stroke-width:1; " locus_tag="cds329275_331789"  />
<polygon id="dummy-1_q8_0_all" description="&lt;b&gt;cds331914_332787&lt;/b&gt;&lt;br&gt;Acyl-CoA thioesterase II (EC 3.1.2.-)&lt;br&gt;Location: 331914 - 332787" points="286,40 287,40 292,35 287,30 286,30 286,40 " class="clusterblast-orf" style="stroke:black; fill:white; stroke-width:1; " locus_tag="cds331914_332787"  />
<polygon id="dummy-1_q9_0_all" description="&lt;b&gt;cds332846_333281&lt;/b&gt;&lt;br&gt;hypothetical protein&lt;br&gt;Location: 332846 - 333281" points="293,35 296,30 296,40 293,35 " class="clusterblast-orf" style="stroke:black; fill:white; stroke-width:1; " locus_tag="cds332846_333281"  />
<polygon id="dummy-1_q10_0_all" description="&lt;b&gt;cds333468_334230&lt;/b&gt;&lt;br&gt;hypothetical protein&lt;br&gt;Location: 333468 - 334230" points="297,40 298,40 303,35 298,30 297,30 297,40 " class="clusterblast-orf" style="stroke:black; fill:#d81515; stroke-width:1; " locus_tag="cds333468_334230"  />
<polygon id="dummy-1_q11_0_all" description="&lt;b&gt;cds334255_335239&lt;/b&gt;&lt;br&gt;VlmA&lt;br&gt;Location: 334255 - 335239" points="303,35 308,30 310,30 310,40 308,40 303,35 " class="clusterblast-orf" style="stroke:black; fill:#77d815; stroke-width:1; " locus_tag="cds334255_335239"  />
<polygon id="dummy-1_q12_0_all" description="&lt;b&gt;cds335383_337075&lt;/b&gt;&lt;br&gt;Aldehyde dehydrogenase&lt;br&gt;Location: 335383 - 337075" points="311,40 319,40 324,35 319,30 311,30 311,40 " class="clusterblast-orf" style="stroke:black; fill:#15d8d8; stroke-width:1; " locus_tag="cds335383_337075"  />
<polygon id="dummy-1_q13_0_all" description="&lt;b&gt;cds337091_338228&lt;/b&gt;&lt;br&gt;Butyryl-CoA dehydrogenase (EC 1.3.8.1)&lt;br&gt;Location: 337091 - 338228" points="324,40 327,40 332,35 327,30 324,30 324,40 " class="clusterblast-orf" style="stroke:black; fill:#7715d8; stroke-width:1; " locus_tag="cds337091_338228"  />
<polygon id="dummy-1_q14_0_all" description="&lt;b&gt;cds338243_339566&lt;/b&gt;&lt;br&gt;Aminotransferase, class III&lt;br&gt;Location: 338243 - 339566" points="332,40 337,40 342,35 337,30 332,30 332,40 " class="clusterblast-orf" style="stroke:black; fill:#d84615; stroke-width:1; " locus_tag="cds338243_339566"  />
<polygon id="dummy-1_q15_0_all" description="&lt;b&gt;cds339558_340038&lt;/b&gt;&lt;br&gt;hypothetical protein&lt;br&gt;Location: 339558 - 340038" points="342,40 345,35 342,30 342,40 " class="clusterblast-orf" style="stroke:black; fill:#46d815; stroke-width:1; " locus_tag="cds339558_340038"  />
<polygon id="dummy-1_q16_0_all" description="&lt;b&gt;cds340037_340565&lt;/b&gt;&lt;br&gt;Integral membrane protein&lt;br&gt;Location: 340037 - 340565" points="345,40 349,35 345,30 345,40 " class="clusterblast-orf" style="stroke:black; fill:#15a7d8; stroke-width:1; " locus_tag="cds340037_340565"  />
<polygon id="dummy-1_q17_0_all" description="&lt;b&gt;cds340561_341110&lt;/b&gt;&lt;br&gt;hypothetical protein&lt;br&gt;Location: 340561 - 341110" points="349,40 353,35 349,30 349,40 " class="clusterblast-orf" style="stroke:black; fill:#a715d8; stroke-width:1; " locus_tag="cds340561_341110"  />
<polygon id="dummy-1_q18_0_all" description="&lt;b&gt;cds341111_342071&lt;/b&gt;&lt;br&gt;VlmB&lt;br&gt;Location: 341111 - 342071" points="353,40 355,40 360,35 355,30 353,30 353,40 " class="clusterblast-orf" style="stroke:black; fill:#d87715; stroke-width:1; " locus_tag="cds341111_342071"  />
<polygon id="dummy-1_q19_0_all" description="&lt;b&gt;cds342067_343120&lt;/b&gt;&lt;br&gt;Linoleoyl-CoA desaturase (EC 1.14.19.3)&lt;br&gt;Location: 342067 - 343120" points="360,40 363,40 368,35 363,30 360,30 360,40 " class="clusterblast-orf" style="stroke:black; fill:#15d815; stroke-width:1; " locus_tag="cds342067_343120"  />
<polygon id="dummy-1_q20_0_all" description="&lt;b&gt;cds343116_344115&lt;/b&gt;&lt;br&gt;3-oxoacyl-[acyl-carrier-protein] synthase, KASIII (EC 2.3.1.180)&lt;br&gt;Location: 343116 - 344115" points="368,40 370,40 375,35 370,30 368,30 368,40 " class="clusterblast-orf" style="stroke:black; fill:#1577d8; stroke-width:1; " locus_tag="cds343116_344115"  />
<polygon id="dummy-1_q21_0_all" description="&lt;b&gt;cds344236_344479&lt;/b&gt;&lt;br&gt;Acyl carrier protein&lt;br&gt;Location: 344236 - 344479" points="376,40 378,35 376,30 376,40 " class="clusterblast-orf" style="stroke:black; fill:#d815d8; stroke-width:1; " locus_tag="cds344236_344479"  />
<polygon id="dummy-1_q22_0_all" description="&lt;b&gt;cds344475_345714&lt;/b&gt;&lt;br&gt;3-oxoacyl-[acyl-carrier-protein] synthase, KASII (EC 2.3.1.179)&lt;br&gt;Location: 344475 - 345714" points="378,40 382,40 387,35 382,30 378,30 378,40 " class="clusterblast-orf" style="stroke:black; fill:#d8a715; stroke-width:1; " locus_tag="cds344475_345714"  />
<polygon id="dummy-1_q23_0_all" description="&lt;b&gt;cds345718_347260&lt;/b&gt;&lt;br&gt;hypothetical protein&lt;br&gt;Location: 345718 - 347260" points="387,40 393,40 398,35 393,30 387,30 387,40 " class="clusterblast-orf" style="stroke:black; fill:#15d846; stroke-width:1; " locus_tag="cds345718_347260"  />
<polygon id="dummy-1_q24_0_all" description="&lt;b&gt;cds347256_348003&lt;/b&gt;&lt;br&gt;Phosphoserine phosphatase (EC 3.1.3.3)&lt;br&gt;Location: 347256 - 348003" points="398,40 399,40 404,35 399,30 398,30 398,40 " class="clusterblast-orf" style="stroke:black; fill:#1546d8; stroke-width:1; " locus_tag="cds347256_348003"  />
<polygon id="dummy-1_q25_0_all" description="&lt;b&gt;cds348096_348777&lt;/b&gt;&lt;br&gt;lipolytic enzyme, G-D-S-L&lt;br&gt;Location: 348096 - 348777" points="404,40 404,40 409,35 404,30 404,30 404,40 " class="clusterblast-orf" style="stroke:black; fill:#d815a7; stroke-width:1; " locus_tag="cds348096_348777"  />
<polygon id="dummy-1_q26_0_all" description="&lt;b&gt;cds348776_349586&lt;/b&gt;&lt;br&gt;hypothetical protein&lt;br&gt;Location: 348776 - 349586" points="409,40 410,40 415,35 410,30 409,30 409,40 " class="clusterblast-orf" style="stroke:black; fill:white; stroke-width:1; " locus_tag="cds348776_349586"  />
<polygon id="dummy-1_q27_0_all" description="&lt;b&gt;cds349593_350289&lt;/b&gt;&lt;br&gt;hypothetical protein&lt;br&gt;Location: 349593 - 350289" points="415,35 420,30 420,30 420,40 420,40 415,35 " class="clusterblast-orf" style="stroke:black; fill:#d815a7; stroke-width:1; " locus_tag="cds349593_350289"  />
<polygon id="dummy-1_q28_0_all" description="&lt;b&gt;cds350297_351359&lt;/b&gt;&lt;br&gt;hypothetical protein&lt;br&gt;Location: 350297 - 351359" points="420,35 425,30 428,30 428,40 425,40 420,35 " class="clusterblast-orf" style="stroke:black; fill:#d8d815; stroke-width:1; " locus_tag="cds350297_351359"  />
<polygon id="dummy-1_q29_0_all" description="&lt;b&gt;cds351373_351667&lt;/b&gt;&lt;br&gt;hypothetical protein&lt;br&gt;Location: 351373 - 351667" points="428,35 430,30 430,40 428,35 " class="clusterblast-orf" style="stroke:black; fill:white; stroke-width:1; " locus_tag="cds351373_351667"  />
<polygon id="dummy-1_q30_0_all" description="&lt;b&gt;cds351721_353227&lt;/b&gt;&lt;br&gt;Polyketide synthase modules and related proteins&lt;br&gt;Location: 351721 - 353227" points="431,35 436,30 442,30 442,40 436,40 431,35 " class="clusterblast-orf" style="stroke:black; fill:#15d877; stroke-width:1; " locus_tag="cds351721_353227"  />
<polygon id="dummy-1_q31_0_all" description="&lt;b&gt;cds353223_354399&lt;/b&gt;&lt;br&gt;Butyryl-CoA dehydrogenase (EC 1.3.99.2)&lt;br&gt;Location: 353223 - 354399" points="442,35 447,30 450,30 450,40 447,40 442,35 " class="clusterblast-orf" style="stroke:black; fill:white; stroke-width:1; " locus_tag="cds353223_354399"  />
<polygon id="dummy-1_q32_0_all" description="&lt;b&gt;cds354486_355587&lt;/b&gt;&lt;br&gt;Putative cytochrome P450 hydroxylase&lt;br&gt;Location: 354486 - 355587" points="451,35 456,30 459,30 459,40 456,40 451,35 " class="clusterblast-orf" style="stroke:black; fill:#1515d8; stroke-width:1; " locus_tag="cds354486_355587"  />
<polygon id="dummy-1_q33_0_all" description="&lt;b&gt;cds355662_355788&lt;/b&gt;&lt;br&gt;hypothetical protein&lt;br&gt;Location: 355662 - 355788" points="460,40 461,35 460,30 460,40 " class="clusterblast-orf" style="stroke:black; fill:white; stroke-width:1; " locus_tag="cds355662_355788"  />
<polygon id="dummy-1_q34_0_all" description="&lt;b&gt;cds355835_357365&lt;/b&gt;&lt;br&gt;Methylphosphotriester-DNA--protein-cysteine S-methyltransferase (EC 2.1.1.n11) / DNA-3-methyladenine glycosylase II (EC 3.2.2.21)&lt;br&gt;Location: 355835 - 357365" points="461,35 466,30 472,30 472,40 466,40 461,35 " class="clusterblast-orf" style="stroke:black; fill:#d81577; stroke-width:1; " locus_tag="cds355835_357365"  />
<polygon id="dummy-1_q35_0_all" description="&lt;b&gt;cds357478_358900&lt;/b&gt;&lt;br&gt;hypothetical protein&lt;br&gt;Location: 357478 - 358900" points="473,35 478,30 483,30 483,40 478,40 473,35 " class="clusterblast-orf" style="stroke:black; fill:#a7d815; stroke-width:1; " locus_tag="cds357478_358900"  />
<polygon id="dummy-1_q36_0_all" description="&lt;b&gt;cds359130_360099&lt;/b&gt;&lt;br&gt;hypothetical protein&lt;br&gt;Location: 359130 - 360099" points="485,40 487,40 492,35 487,30 485,30 485,40 " class="clusterblast-orf" style="stroke:black; fill:#15d8a7; stroke-width:1; " locus_tag="cds359130_360099"  />
<polygon id="dummy-1_q37_0_all" description="&lt;b&gt;cds360095_361196&lt;/b&gt;&lt;br&gt;hypothetical protein&lt;br&gt;Location: 360095 - 361196" points="492,40 495,40 500,35 495,30 492,30 492,40 " class="clusterblast-orf" style="stroke:black; fill:#4615d8; stroke-width:1; " locus_tag="cds360095_361196"  />
<polygon id="dummy-1_q38_0_all" description="&lt;b&gt;cds361230_362949&lt;/b&gt;&lt;br&gt;hypothetical protein&lt;br&gt;Location: 361230 - 362949" points="500,40 508,40 513,35 508,30 500,30 500,40 " class="clusterblast-orf" style="stroke:black; fill:#d81546; stroke-width:1; " locus_tag="cds361230_362949"  />
<polygon id="dummy-1_q39_0_all" description="&lt;b&gt;cds362971_363598&lt;/b&gt;&lt;br&gt;Sterol 24-C-methyltransferase (EC 2.1.1.41)&lt;br&gt;Location: 362971 - 363598" points="513,40 513,40 518,35 513,30 513,30 513,40 " class="clusterblast-orf" style="stroke:black; fill:white; stroke-width:1; " locus_tag="cds362971_363598"  />
<polygon id="dummy-1_q40_0_all" description="&lt;b&gt;cds363783_364662&lt;/b&gt;&lt;br&gt;hypothetical protein&lt;br&gt;Location: 363783 - 364662" points="519,35 524,30 526,30 526,40 524,40 519,35 " class="clusterblast-orf" style="stroke:black; fill:white; stroke-width:1; " locus_tag="cds363783_364662"  />
<polygon id="dummy-1_q41_0_all" description="&lt;b&gt;cds364805_365222&lt;/b&gt;&lt;br&gt;Roadblock/LC7 protein&lt;br&gt;Location: 364805 - 365222" points="527,35 530,30 530,40 527,35 " class="clusterblast-orf" style="stroke:black; fill:white; stroke-width:1; " locus_tag="cds364805_365222"  />
<polygon id="dummy-1_q42_0_all" description="&lt;b&gt;cds365342_365771&lt;/b&gt;&lt;br&gt;hypothetical protein&lt;br&gt;Location: 365342 - 365771" points="531,40 534,35 531,30 531,40 " class="clusterblast-orf" style="stroke:black; fill:white; stroke-width:1; " locus_tag="cds365342_365771"  />
<polygon id="dummy-1_q43_0_all" description="&lt;b&gt;cds365878_366505&lt;/b&gt;&lt;br&gt;Small Ras-like GTPase, component of G-protein-coupled receptor (GPCR) system&lt;br&gt;Location: 365878 - 366505" points="535,35 539,30 539,40 535,35 " class="clusterblast-orf" style="stroke:black; fill:white; stroke-width:1; " locus_tag="cds365878_366505"  />
<polygon id="dummy-1_q44_0_all" description="&lt;b&gt;cds366485_366881&lt;/b&gt;&lt;br&gt;DUF742 protein, component of G-protein-coupled receptor (GPCR) system&lt;br&gt;Location: 366485 - 366881" points="539,35 542,30 542,40 539,35 " class="clusterblast-orf" style="stroke:black; fill:white; stroke-width:1; " locus_tag="cds366485_366881"  />
<polygon id="dummy-1_q45_0_all" description="&lt;b&gt;cds366898_367369&lt;/b&gt;&lt;br&gt;Roadblock/LC7 protein, putative GTPase-activating (GAP) component of G-protein-coupled receptor (GPCR) system&lt;br&gt;Location: 366898 - 367369" points="542,35 545,30 545,40 542,35 " class="clusterblast-orf" style="stroke:black; fill:white; stroke-width:1; " locus_tag="cds366898_367369"  />
<polygon id="dummy-1_q46_0_all" description="&lt;b&gt;cds367365_369894&lt;/b&gt;&lt;br&gt;Putative sensor and ATPase, component of G-protein-coupled receptor (GPCR) system&lt;br&gt;Location: 367365 - 369894" points="545,35 550,30 564,30 564,40 550,40 545,35 " class="clusterblast-orf" style="stroke:black; fill:white; stroke-width:1; " locus_tag="cds367365_369894"  />
<polygon id="dummy-1_q47_0_all" description="&lt;b&gt;cds369922_370696&lt;/b&gt;&lt;br&gt;Integral membrane protein&lt;br&gt;Location: 369922 - 370696" points="564,35 569,30 570,30 570,40 569,40 564,35 " class="clusterblast-orf" style="stroke:black; fill:white; stroke-width:1; " locus_tag="cds369922_370696"  />
</g>
<g label="NZ_CP023695" description="NZ_CP023695 (5015035-5121612): Streptomyces alboniger strain ATCC 12461 chrom... (23% of genes show similarity), NRPS,T1PKS,arylpolyene,butyrolactone,ladderane,other" class="clusterblast-cluster"  >
<text y="70" class="clusterblast-acc" x="5"  >
<a xlink:href="https://antismash-db.secondarymetabolites.org/area.html?record=NZ_CP023695&amp;start=5015035&amp;end=5121612" target="_blank">NZ_CP023695 (5015035-5121612)</a>: Streptomyces alboniger strain ATCC 12461 chrom... (23% of genes show similarity), NRPS,T1PKS,arylpolyene,butyrolactone,ladderane,other</text>
<line x1="10" y1="85" y2="85" style="stroke:grey; stroke-width:1; " x2="778.0"  />
</g>
<g id="a1_000"  >
<polygon id="dummy-1_h1_6_0" description="&lt;b&gt;CP975_RS22995&lt;/b&gt;&lt;br&gt;GntR family transcriptional regulator&lt;br&gt;Location: 5121612 - 5120857" points="0,85 5,80 5,80 5,90 5,90 0,85 " class="clusterblast-orf" style="stroke:black; fill:white; stroke-width:1; " locus_tag="CP975_RS22995"  />
</g>
<g id="a1_001"  >
<polygon id="dummy-1_h1_6_1" description="&lt;b&gt;CP975_RS22990&lt;/b&gt;&lt;br&gt;S8 family serine peptidase&lt;br&gt;Location: 5120588 - 5119014" points="7,85 12,80 19,80 19,90 12,90 7,85 " class="clusterblast-orf" style="stroke:black; fill:white; stroke-width:1; " locus_tag="CP975_RS22990"  />
</g>
<g id="a1_002"  >
<polygon id="dummy-1_h1_6_2" description="&lt;b&gt;CP975_RS22985&lt;/b&gt;&lt;br&gt;pyridoxal-phosphate dependent enzyme&lt;br&gt;Location: 5118669 - 5117554" points="21,90 24,90 29,85 24,80 21,80 21,90 " class="clusterblast-orf" style="stroke:black; fill:white; stroke-width:1; " locus_tag="CP975_RS22985"  />
</g>
<g id="a1_003"  >
<polygon id="dummy-1_h1_6_3" description="&lt;b&gt;CP975_RS22980&lt;/b&gt;&lt;br&gt;sigma-70 family RNA polymerase sigma factor&lt;br&gt;Location: 5117503 - 5116901" points="30,90 34,85 30,80 30,90 " class="clusterblast-orf" style="stroke:black; fill:white; stroke-width:1; " locus_tag="CP975_RS22980"  />
</g>
<g id="a1_004"  >
<polygon id="dummy-1_h1_6_4" description="&lt;b&gt;CP975_RS22975&lt;/b&gt;&lt;br&gt;hypothetical protein&lt;br&gt;Location: 5116904 - 5115981" points="34,90 36,90 41,85 36,80 34,80 34,90 " class="clusterblast-orf" style="stroke:black; fill:white; stroke-width:1; " locus_tag="CP975_RS22975"  />
</g>
<g id="a1_005"  >
<polygon id="dummy-1_h1_6_5" description="&lt;b&gt;CP975_RS22970&lt;/b&gt;&lt;br&gt;HAD-IB family hydrolase&lt;br&gt;Location: 5115862 - 5115209&lt;br&gt;&lt;br&gt;&lt;b&gt;BlastP hit with cds347256_348003&lt;/b&gt;&lt;br&gt;Percentage identity: 42&lt;br&gt;Percentage coverage: 79&lt;br&gt;BLAST bit score: 126&lt;br&gt;E-value: 2.7e-27" points="42,85 46,80 46,90 42,85 " class="clusterblast-orf" style="stroke:black; fill:#1546d8; stroke-width:1; " locus_tag="CP975_RS22970"  />
</g>
<g id="a1_006"  >
<polygon id="dummy-1_h1_6_6" description="&lt;b&gt;CP975_RS22965&lt;/b&gt;&lt;br&gt;oxidoreductase&lt;br&gt;Location: 5115222 - 5113999" points="46,85 51,80 55,80 55,90 51,90 46,85 " class="clusterblast-orf" style="stroke:black; fill:white; stroke-width:1; " locus_tag="CP975_RS22965"  />
</g>
<g id="a1_007"  >
<polygon id="dummy-1_h1_6_7" description="&lt;b&gt;CP975_RS22960&lt;/b&gt;&lt;br&gt;TetR/AcrR family transcriptional regulator&lt;br&gt;Location: 5113914 - 5113303" points="56,90 60,85 56,80 56,90 " class="clusterblast-orf" style="stroke:black; fill:white; stroke-width:1; " locus_tag="CP975_RS22960"  />
</g>
<g id="a1_008"  >
<polygon id="dummy-1_h1_6_8" description="&lt;b&gt;CP975_RS22955&lt;/b&gt;&lt;br&gt;gamma-butyrolactone biosynthesis protein&lt;br&gt;Location: 5113326 - 5112304" points="60,85 65,80 68,80 68,90 65,90 60,85 " class="clusterblast-orf" style="stroke:black; fill:white; stroke-width:1; " locus_tag="CP975_RS22955"  />
</g>
<g id="a1_009"  >
<polygon id="dummy-1_h1_6_9" description="&lt;b&gt;CP975_RS22950&lt;/b&gt;&lt;br&gt;TetR family transcriptional regulator&lt;br&gt;Location: 5112070 - 5111417" points="69,90 69,90 74,85 69,80 69,80 69,90 " class="clusterblast-orf" style="stroke:black; fill:white; stroke-width:1; " locus_tag="CP975_RS22950"  />
</g>
<g id="a1_0010"  >
<polygon id="dummy-1_h1_6_10" description="&lt;b&gt;CP975_RS22945&lt;/b&gt;&lt;br&gt;MmgE/PrpD family protein&lt;br&gt;Location: 5111378 - 5109825&lt;br&gt;&lt;br&gt;&lt;b&gt;BlastP hit with cds345718_347260&lt;/b&gt;&lt;br&gt;Percentage identity: 46&lt;br&gt;Percentage coverage: 95&lt;br&gt;BLAST bit score: 371&lt;br&gt;E-value: 1.7e-100" points="74,85 79,80 86,80 86,90 79,90 74,85 " class="clusterblast-orf" style="stroke:black; fill:#15d846; stroke-width:1; " locus_tag="CP975_RS22945"  />
</g>
<g id="a1_0011"  >
<polygon id="dummy-1_h1_6_11" description="&lt;b&gt;CP975_RS22940&lt;/b&gt;&lt;br&gt;nuclear transport factor 2 family protein&lt;br&gt;Location: 5109751 - 5109383" points="86,85 89,80 89,90 86,85 " class="clusterblast-orf" style="stroke:black; fill:white; stroke-width:1; " locus_tag="CP975_RS22940"  />
</g>
<g id="a1_0012"  >
<polygon id="dummy-1_h1_6_12" description="&lt;b&gt;CP975_RS22935&lt;/b&gt;&lt;br&gt;diacylglycerol kinase&lt;br&gt;Location: 5109328 - 5108372&lt;br&gt;&lt;br&gt;&lt;b&gt;BlastP hit with cds359130_360099&lt;/b&gt;&lt;br&gt;Percentage identity: 48&lt;br&gt;Percentage coverage: 96&lt;br&gt;BLAST bit score: 263&lt;br&gt;E-value: 3.2e-68" points="89,85 94,80 96,80 96,90 94,90 89,85 " class="clusterblast-orf" style="stroke:black; fill:#15d8a7; stroke-width:1; " locus_tag="CP975_RS22935"  />
</g>
<g id="a1_0013"  >
<polygon id="dummy-1_h1_6_13" description="&lt;b&gt;CP975_RS22930&lt;/b&gt;&lt;br&gt;cytochrome P450&lt;br&gt;Location: 5108250 - 5107057&lt;br&gt;&lt;br&gt;&lt;b&gt;BlastP hit with cds354486_355587&lt;/b&gt;&lt;br&gt;Percentage identity: 40&lt;br&gt;Percentage coverage: 100&lt;br&gt;BLAST bit score: 228&lt;br&gt;E-value: 7.6e-58" points="97,85 102,80 106,80 106,90 102,90 97,85 " class="clusterblast-orf" style="stroke:black; fill:#1515d8; stroke-width:1; " locus_tag="CP975_RS22930"  />
</g>
<g id="a1_0014"  >
<polygon id="dummy-1_h1_6_14" description="&lt;b&gt;CP975_RS22925&lt;/b&gt;&lt;br&gt;MFS transporter&lt;br&gt;Location: 5106803 - 5105295&lt;br&gt;&lt;br&gt;&lt;b&gt;BlastP hit with cds357478_358900&lt;/b&gt;&lt;br&gt;Percentage identity: 33&lt;br&gt;Percentage coverage: 89&lt;br&gt;BLAST bit score: 147&lt;br&gt;E-value: 2.9e-33" points="108,85 113,80 119,80 119,90 113,90 108,85 " class="clusterblast-orf" style="stroke:black; fill:#a7d815; stroke-width:1; " locus_tag="CP975_RS22925"  />
</g>
<g id="a1_0015"  >
<polygon id="dummy-1_h1_6_15" description="&lt;b&gt;CP975_RS22920&lt;/b&gt;&lt;br&gt;thioesterase&lt;br&gt;Location: 5105298 - 5104537" points="119,85 124,80 124,80 124,90 124,90 119,85 " class="clusterblast-orf" style="stroke:black; fill:white; stroke-width:1; " locus_tag="CP975_RS22920"  />
</g>
<g id="a1_0016"  >
<polygon id="dummy-1_h1_6_16" description="&lt;b&gt;CP975_RS22915&lt;/b&gt;&lt;br&gt;LLM class flavin-dependent oxidoreductase&lt;br&gt;Location: 5104501 - 5103488" points="125,85 130,80 132,80 132,90 130,90 125,85 " class="clusterblast-orf" style="stroke:black; fill:white; stroke-width:1; " locus_tag="CP975_RS22915"  />
</g>
<g id="a1_0017"  >
<polygon id="dummy-1_h1_6_17" description="&lt;b&gt;CP975_RS22910&lt;/b&gt;&lt;br&gt;fatty acid--CoA ligase&lt;br&gt;Location: 5103441 - 5101777" points="132,85 137,80 145,80 145,90 137,90 132,85 " class="clusterblast-orf" style="stroke:black; fill:white; stroke-width:1; " locus_tag="CP975_RS22910"  />
</g>
<g id="a1_0018"  >
<polygon id="dummy-1_h1_6_18" description="&lt;b&gt;CP975_RS22905&lt;/b&gt;&lt;br&gt;type I polyketide synthase&lt;br&gt;Location: 5101764 - 5096032" points="145,85 150,80 187,80 187,90 150,90 145,85 " class="clusterblast-orf" style="stroke:black; fill:white; stroke-width:1; " locus_tag="CP975_RS22905"  />
</g>
<g id="a1_0019"  >
<polygon id="dummy-1_h1_6_19" description="&lt;b&gt;CP975_RS22900&lt;/b&gt;&lt;br&gt;acyl carrier protein&lt;br&gt;Location: 5095998 - 5095663" points="187,85 189,80 189,90 187,85 " class="clusterblast-orf" style="stroke:black; fill:white; stroke-width:1; " locus_tag="CP975_RS22900"  />
</g>
<g id="a1_0020"  >
<polygon id="dummy-1_h1_6_20" description="&lt;b&gt;CP975_RS22895&lt;/b&gt;&lt;br&gt;aldehyde dehydrogenase&lt;br&gt;Location: 5095431 - 5093791&lt;br&gt;&lt;br&gt;&lt;b&gt;BlastP hit with cds335383_337075&lt;/b&gt;&lt;br&gt;Percentage identity: 56&lt;br&gt;Percentage coverage: 94&lt;br&gt;BLAST bit score: 611&lt;br&gt;E-value: 1.1e-172" points="191,90 198,90 203,85 198,80 191,80 191,90 " class="clusterblast-orf" style="stroke:black; fill:#15d8d8; stroke-width:1; " locus_tag="CP975_RS22895"  />
</g>
<g id="a1_0021"  >
<polygon id="dummy-1_h1_6_21" description="&lt;b&gt;CP975_RS22890&lt;/b&gt;&lt;br&gt;acyl-CoA/acyl-ACP dehydrogenase&lt;br&gt;Location: 5093754 - 5092615&lt;br&gt;&lt;br&gt;&lt;b&gt;BlastP hit with cds337091_338228&lt;/b&gt;&lt;br&gt;Percentage identity: 49&lt;br&gt;Percentage coverage: 99&lt;br&gt;BLAST bit score: 337&lt;br&gt;E-value: 2e-90" points="203,90 207,90 212,85 207,80 203,80 203,90 " class="clusterblast-orf" style="stroke:black; fill:#7715d8; stroke-width:1; " locus_tag="CP975_RS22890"  />
</g>
<g id="a1_0022"  >
<polygon id="dummy-1_h1_6_22" description="&lt;b&gt;CP975_RS22885&lt;/b&gt;&lt;br&gt;aspartate aminotransferase family protein&lt;br&gt;Location: 5092562 - 5091261&lt;br&gt;&lt;br&gt;&lt;b&gt;BlastP hit with cds338243_339566&lt;/b&gt;&lt;br&gt;Percentage identity: 58&lt;br&gt;Percentage coverage: 90&lt;br&gt;BLAST bit score: 468&lt;br&gt;E-value: 5.2e-130" points="212,90 217,90 222,85 217,80 212,80 212,90 " class="clusterblast-orf" style="stroke:black; fill:#d84615; stroke-width:1; " locus_tag="CP975_RS22885"  />
</g>
<g id="a1_0023"  >
<polygon id="dummy-1_h1_6_23" description="&lt;b&gt;CP975_RS22880&lt;/b&gt;&lt;br&gt;cyclase&lt;br&gt;Location: 5091258 - 5090776&lt;br&gt;&lt;br&gt;&lt;b&gt;BlastP hit with cds339558_340038&lt;/b&gt;&lt;br&gt;Percentage identity: 50&lt;br&gt;Percentage coverage: 89&lt;br&gt;BLAST bit score: 135&lt;br&gt;E-value: 3.8e-30" points="222,90 225,85 222,80 222,90 " class="clusterblast-orf" style="stroke:black; fill:#46d815; stroke-width:1; " locus_tag="CP975_RS22880"  />
</g>
<g id="a1_0024"  >
<polygon id="dummy-1_h1_6_24" description="&lt;b&gt;CP975_RS22875&lt;/b&gt;&lt;br&gt;hypothetical protein&lt;br&gt;Location: 5090754 - 5090212&lt;br&gt;&lt;br&gt;&lt;b&gt;BlastP hit with cds340037_340565&lt;/b&gt;&lt;br&gt;Percentage identity: 52&lt;br&gt;Percentage coverage: 90&lt;br&gt;BLAST bit score: 154&lt;br&gt;E-value: 1.1e-35" points="225,90 229,85 225,80 225,90 " class="clusterblast-orf" style="stroke:black; fill:#15a7d8; stroke-width:1; " locus_tag="CP975_RS22875"  />
</g>
<g id="a1_0025"  >
<polygon id="dummy-1_h1_6_25" description="&lt;b&gt;CP975_RS22870&lt;/b&gt;&lt;br&gt;flavin reductase&lt;br&gt;Location: 5090215 - 5089661&lt;br&gt;&lt;br&gt;&lt;b&gt;BlastP hit with cds340561_341110&lt;/b&gt;&lt;br&gt;Percentage identity: 34&lt;br&gt;Percentage coverage: 83&lt;br&gt;BLAST bit score: 72&lt;br&gt;E-value: 5.9e-11" points="229,90 233,85 229,80 229,90 " class="clusterblast-orf" style="stroke:black; fill:#a715d8; stroke-width:1; " locus_tag="CP975_RS22870"  />
</g>
<g id="a1_0026"  >
<polygon id="dummy-1_h1_6_26" description="&lt;b&gt;CP975_RS22865&lt;/b&gt;&lt;br&gt;hypothetical protein&lt;br&gt;Location: 5089664 - 5088660&lt;br&gt;&lt;br&gt;&lt;b&gt;BlastP hit with cds341111_342071&lt;/b&gt;&lt;br&gt;Percentage identity: 51&lt;br&gt;Percentage coverage: 97&lt;br&gt;BLAST bit score: 324&lt;br&gt;E-value: 1.2e-86" points="233,90 236,90 241,85 236,80 233,80 233,90 " class="clusterblast-orf" style="stroke:black; fill:#d87715; stroke-width:1; " locus_tag="CP975_RS22865"  />
</g>
<g id="a1_0027"  >
<polygon id="dummy-1_h1_6_27" description="&lt;b&gt;CP975_RS22860&lt;/b&gt;&lt;br&gt;ketoacyl-ACP synthase III&lt;br&gt;Location: 5088663 - 5087641&lt;br&gt;&lt;br&gt;&lt;b&gt;BlastP hit with cds343116_344115&lt;/b&gt;&lt;br&gt;Percentage identity: 59&lt;br&gt;Percentage coverage: 99&lt;br&gt;BLAST bit score: 372&lt;br&gt;E-value: 3.8e-101" points="241,90 243,90 248,85 243,80 241,80 241,90 " class="clusterblast-orf" style="stroke:black; fill:#1577d8; stroke-width:1; " locus_tag="CP975_RS22860"  />
</g>
<g id="a1_0028"  >
<polygon id="dummy-1_h1_6_28" description="&lt;b&gt;CP975_RS22855&lt;/b&gt;&lt;br&gt;acyl carrier protein&lt;br&gt;Location: 5087564 - 5087334" points="249,90 250,85 249,80 249,90 " class="clusterblast-orf" style="stroke:black; fill:white; stroke-width:1; " locus_tag="CP975_RS22855"  />
</g>
<g id="a1_0029"  >
<polygon id="dummy-1_h1_6_29" description="&lt;b&gt;CP975_RS22850&lt;/b&gt;&lt;br&gt;beta-ketoacyl-[acyl-carrier-protein] synthase family protein&lt;br&gt;Location: 5087334 - 5086114&lt;br&gt;&lt;br&gt;&lt;b&gt;BlastP hit with cds344475_345714&lt;/b&gt;&lt;br&gt;Percentage identity: 59&lt;br&gt;Percentage coverage: 98&lt;br&gt;BLAST bit score: 430&lt;br&gt;E-value: 1.9e-118" points="250,90 254,90 259,85 254,80 250,80 250,90 " class="clusterblast-orf" style="stroke:black; fill:#d8a715; stroke-width:1; " locus_tag="CP975_RS22850"  />
</g>
<g id="a1_0030"  >
<polygon id="dummy-1_h1_6_30" description="&lt;b&gt;CP975_RS22845&lt;/b&gt;&lt;br&gt;serine--tRNA ligase&lt;br&gt;Location: 5085985 - 5084708" points="260,90 265,90 270,85 265,80 260,80 260,90 " class="clusterblast-orf" style="stroke:black; fill:white; stroke-width:1; " locus_tag="CP975_RS22845"  />
</g>
<g id="a1_0031"  >
<polygon id="dummy-1_h1_6_31" description="&lt;b&gt;CP975_RS22840&lt;/b&gt;&lt;br&gt;enoyl-ACP reductase FabI&lt;br&gt;Location: 5084625 - 5083861" points="270,85 275,80 276,80 276,90 275,90 270,85 " class="clusterblast-orf" style="stroke:black; fill:white; stroke-width:1; " locus_tag="CP975_RS22840"  />
</g>
<g id="a1_0032"  >
<polygon id="dummy-1_h1_6_32" description="&lt;b&gt;CP975_RS22835&lt;/b&gt;&lt;br&gt;4Fe-4S binding protein&lt;br&gt;Location: 5083864 - 5083541" points="276,85 278,80 278,90 276,85 " class="clusterblast-orf" style="stroke:black; fill:white; stroke-width:1; " locus_tag="CP975_RS22835"  />
</g>
<g id="a1_0033"  >
<polygon id="dummy-1_h1_6_33" description="&lt;b&gt;CP975_RS22830&lt;/b&gt;&lt;br&gt;MFS transporter&lt;br&gt;Location: 5083526 - 5082105" points="278,85 283,80 289,80 289,90 283,90 278,85 " class="clusterblast-orf" style="stroke:black; fill:white; stroke-width:1; " locus_tag="CP975_RS22830"  />
</g>
<g id="a1_0034"  >
<polygon id="dummy-1_h1_6_34" description="&lt;b&gt;CP975_RS22825&lt;/b&gt;&lt;br&gt;acyl-CoA desaturase&lt;br&gt;Location: 5082105 - 5080987&lt;br&gt;&lt;br&gt;&lt;b&gt;BlastP hit with cds342067_343120&lt;/b&gt;&lt;br&gt;Percentage identity: 49&lt;br&gt;Percentage coverage: 95&lt;br&gt;BLAST bit score: 337&lt;br&gt;E-value: 1.9e-90" points="289,85 294,80 297,80 297,90 294,90 289,85 " class="clusterblast-orf" style="stroke:black; fill:#15d815; stroke-width:1; " locus_tag="CP975_RS22825"  />
</g>
<g id="a1_0035"  >
<polygon id="dummy-1_h1_6_35" description="&lt;b&gt;CP975_RS35090&lt;/b&gt;&lt;br&gt;hypothetical protein&lt;br&gt;Location: 5080788 - 5080624" points="298,85 299,80 299,90 298,85 " class="clusterblast-orf" style="stroke:black; fill:white; stroke-width:1; " locus_tag="CP975_RS35090"  />
</g>
<g id="a1_0036"  >
<polygon id="dummy-1_h1_6_36" description="&lt;b&gt;CP975_RS22820&lt;/b&gt;&lt;br&gt;DUF2156 domain-containing protein&lt;br&gt;Location: 5080572 - 5079580&lt;br&gt;&lt;br&gt;&lt;b&gt;BlastP hit with cds334255_335239&lt;/b&gt;&lt;br&gt;Percentage identity: 55&lt;br&gt;Percentage coverage: 95&lt;br&gt;BLAST bit score: 349&lt;br&gt;E-value: 2.6e-94" points="300,85 305,80 307,80 307,90 305,90 300,85 " class="clusterblast-orf" style="stroke:black; fill:#77d815; stroke-width:1; " locus_tag="CP975_RS22820"  />
</g>
<g id="a1_0037"  >
<polygon id="dummy-1_h1_6_37" description="&lt;b&gt;CP975_RS22805&lt;/b&gt;&lt;br&gt;AfsR/SARP family transcriptional regulator&lt;br&gt;Location: 5078736 - 5077945&lt;br&gt;&lt;br&gt;&lt;b&gt;BlastP hit with cds333468_334230&lt;/b&gt;&lt;br&gt;Percentage identity: 41&lt;br&gt;Percentage coverage: 97&lt;br&gt;BLAST bit score: 165&lt;br&gt;E-value: 5.4e-39" points="313,90 314,90 319,85 314,80 313,80 313,90 " class="clusterblast-orf" style="stroke:black; fill:#d81515; stroke-width:1; " locus_tag="CP975_RS22805"  />
</g>
<g id="a1_0038"  >
<polygon id="dummy-1_h1_6_38" description="&lt;b&gt;CP975_RS22800&lt;/b&gt;&lt;br&gt;hypothetical protein&lt;br&gt;Location: 5077773 - 5077342" points="320,90 323,85 320,80 320,90 " class="clusterblast-orf" style="stroke:black; fill:white; stroke-width:1; " locus_tag="CP975_RS22800"  />
</g>
<g id="a1_0039"  >
<polygon id="dummy-1_h1_6_39" description="&lt;b&gt;CP975_RS22795&lt;/b&gt;&lt;br&gt;acyl-CoA carboxylase subunit beta&lt;br&gt;Location: 5077297 - 5075753" points="324,90 330,90 335,85 330,80 324,80 324,90 " class="clusterblast-orf" style="stroke:black; fill:white; stroke-width:1; " locus_tag="CP975_RS22795"  />
</g>
<g id="a1_0040"  >
<polygon id="dummy-1_h1_6_40" description="&lt;b&gt;CP975_RS22790&lt;/b&gt;&lt;br&gt;acyl-CoA carboxylase subunit epsilon&lt;br&gt;Location: 5075732 - 5075550" points="335,90 337,85 335,80 335,90 " class="clusterblast-orf" style="stroke:black; fill:white; stroke-width:1; " locus_tag="CP975_RS22790"  />
</g>
<g id="a1_0041"  >
<polygon id="dummy-1_h1_6_41" description="&lt;b&gt;CP975_RS22785&lt;/b&gt;&lt;br&gt;ornithine carbamoyltransferase&lt;br&gt;Location: 5075479 - 5074496" points="337,85 342,80 344,80 344,90 342,90 337,85 " class="clusterblast-orf" style="stroke:black; fill:white; stroke-width:1; " locus_tag="CP975_RS22785"  />
</g>
<g id="a1_0042"  >
<polygon id="dummy-1_h1_6_42" description="&lt;b&gt;CP975_RS22780&lt;/b&gt;&lt;br&gt;FAD-dependent oxidoreductase&lt;br&gt;Location: 5074305 - 5072818" points="346,85 351,80 357,80 357,90 351,90 346,85 " class="clusterblast-orf" style="stroke:black; fill:white; stroke-width:1; " locus_tag="CP975_RS22780"  />
</g>
<g id="a1_0043"  >
<polygon id="dummy-1_h1_6_43" description="&lt;b&gt;CP975_RS22775&lt;/b&gt;&lt;br&gt;non-ribosomal peptide synthase&lt;br&gt;Location: 5072805 - 5065267" points="357,85 362,80 412,80 412,90 362,90 357,85 " class="clusterblast-orf" style="stroke:black; fill:white; stroke-width:1; " locus_tag="CP975_RS22775"  />
</g>
<g id="a1_0044"  >
<polygon id="dummy-1_h1_6_44" description="&lt;b&gt;CP975_RS22770&lt;/b&gt;&lt;br&gt;MbtH family protein&lt;br&gt;Location: 5065229 - 5065026" points="412,85 414,80 414,90 412,85 " class="clusterblast-orf" style="stroke:black; fill:white; stroke-width:1; " locus_tag="CP975_RS22770"  />
</g>
<g id="a1_0045"  >
<polygon id="dummy-1_h1_6_45" description="&lt;b&gt;CP975_RS22765&lt;/b&gt;&lt;br&gt;beta-ketoacyl-[acyl-carrier-protein] synthase family protein&lt;br&gt;Location: 5064802 - 5063600&lt;br&gt;&lt;br&gt;&lt;b&gt;BlastP hit with cds344475_345714&lt;/b&gt;&lt;br&gt;Percentage identity: 37&lt;br&gt;Percentage coverage: 99&lt;br&gt;BLAST bit score: 194&lt;br&gt;E-value: 2.3e-47" points="415,90 419,90 424,85 419,80 415,80 415,90 " class="clusterblast-orf" style="stroke:black; fill:#d8a715; stroke-width:1; " locus_tag="CP975_RS22765"  />
</g>
<g id="a1_0046"  >
<polygon id="dummy-1_h1_6_46" description="&lt;b&gt;CP975_RS22760&lt;/b&gt;&lt;br&gt;hypothetical protein&lt;br&gt;Location: 5063603 - 5062527" points="424,90 427,90 432,85 427,80 424,80 424,90 " class="clusterblast-orf" style="stroke:black; fill:white; stroke-width:1; " locus_tag="CP975_RS22760"  />
</g>
<g id="a1_0047"  >
<polygon id="dummy-1_h1_6_47" description="&lt;b&gt;CP975_RS22755&lt;/b&gt;&lt;br&gt;NAD(P)/FAD-dependent oxidoreductase&lt;br&gt;Location: 5062473 - 5060791" points="432,90 440,90 445,85 440,80 432,80 432,90 " class="clusterblast-orf" style="stroke:black; fill:white; stroke-width:1; " locus_tag="CP975_RS22755"  />
</g>
<g id="a1_0048"  >
<polygon id="dummy-1_h1_6_48" description="&lt;b&gt;CP975_RS22750&lt;/b&gt;&lt;br&gt;methyltransferase&lt;br&gt;Location: 5060714 - 5060052" points="445,85 450,80 450,80 450,90 450,90 445,85 " class="clusterblast-orf" style="stroke:black; fill:white; stroke-width:1; " locus_tag="CP975_RS22750"  />
</g>
<g id="a1_0049"  >
<polygon id="dummy-1_h1_6_49" description="&lt;b&gt;CP975_RS22745&lt;/b&gt;&lt;br&gt;hypothetical protein&lt;br&gt;Location: 5059992 - 5059234" points="450,85 455,80 456,80 456,90 455,90 450,85 " class="clusterblast-orf" style="stroke:black; fill:white; stroke-width:1; " locus_tag="CP975_RS22745"  />
</g>
<g id="a1_0050"  >
<polygon id="dummy-1_h1_6_50" description="&lt;b&gt;CP975_RS22740&lt;/b&gt;&lt;br&gt;acyl carrier protein&lt;br&gt;Location: 5059025 - 5058741" points="458,90 460,85 458,80 458,90 " class="clusterblast-orf" style="stroke:black; fill:white; stroke-width:1; " locus_tag="CP975_RS22740"  />
</g>
<g id="a1_0051"  >
<polygon id="dummy-1_h1_6_51" description="&lt;b&gt;CP975_RS22735&lt;/b&gt;&lt;br&gt;beta-ketoacyl-[acyl-carrier-protein] synthase family protein&lt;br&gt;Location: 5058713 - 5057487" points="460,90 464,90 469,85 464,80 460,80 460,90 " class="clusterblast-orf" style="stroke:black; fill:white; stroke-width:1; " locus_tag="CP975_RS22735"  />
</g>
<g id="a1_0052"  >
<polygon id="dummy-1_h1_6_52" description="&lt;b&gt;CP975_RS22730&lt;/b&gt;&lt;br&gt;3-oxoacyl-ACP synthase&lt;br&gt;Location: 5057490 - 5056348" points="469,90 472,90 477,85 472,80 469,80 469,90 " class="clusterblast-orf" style="stroke:black; fill:white; stroke-width:1; " locus_tag="CP975_RS22730"  />
</g>
<g id="a1_0053"  >
<polygon id="dummy-1_h1_6_53" description="&lt;b&gt;CP975_RS22725&lt;/b&gt;&lt;br&gt;hypothetical protein&lt;br&gt;Location: 5056351 - 5055350" points="477,90 479,90 484,85 479,80 477,80 477,90 " class="clusterblast-orf" style="stroke:black; fill:white; stroke-width:1; " locus_tag="CP975_RS22725"  />
</g>
<g id="a1_0054"  >
<polygon id="dummy-1_h1_6_54" description="&lt;b&gt;CP975_RS22720&lt;/b&gt;&lt;br&gt;alpha/beta hydrolase&lt;br&gt;Location: 5055353 - 5054472" points="484,90 486,90 491,85 486,80 484,80 484,90 " class="clusterblast-orf" style="stroke:black; fill:white; stroke-width:1; " locus_tag="CP975_RS22720"  />
</g>
<g id="a1_0055"  >
<polygon id="dummy-1_h1_6_55" description="&lt;b&gt;CP975_RS22715&lt;/b&gt;&lt;br&gt;hypothetical protein&lt;br&gt;Location: 5054472 - 5053465" points="491,90 493,90 498,85 493,80 491,80 491,90 " class="clusterblast-orf" style="stroke:black; fill:white; stroke-width:1; " locus_tag="CP975_RS22715"  />
</g>
<g id="a1_0056"  >
<polygon id="dummy-1_h1_6_56" description="&lt;b&gt;CP975_RS22710&lt;/b&gt;&lt;br&gt;hypothetical protein&lt;br&gt;Location: 5053468 - 5052407" points="498,90 501,90 506,85 501,80 498,80 498,90 " class="clusterblast-orf" style="stroke:black; fill:white; stroke-width:1; " locus_tag="CP975_RS22710"  />
</g>
<g id="a1_0057"  >
<polygon id="dummy-1_h1_6_57" description="&lt;b&gt;CP975_RS22705&lt;/b&gt;&lt;br&gt;3-oxoacyl-[acyl-carrier-protein] reductase&lt;br&gt;Location: 5052414 - 5051668" points="506,90 506,90 511,85 506,80 506,80 506,90 " class="clusterblast-orf" style="stroke:black; fill:white; stroke-width:1; " locus_tag="CP975_RS22705"  />
</g>
<g id="a1_0058"  >
<polygon id="dummy-1_h1_6_58" description="&lt;b&gt;CP975_RS22700&lt;/b&gt;&lt;br&gt;isomerase&lt;br&gt;Location: 5051604 - 5050888" points="512,90 512,90 517,85 512,80 512,80 512,90 " class="clusterblast-orf" style="stroke:black; fill:white; stroke-width:1; " locus_tag="CP975_RS22700"  />
</g>
<g id="a1_0059"  >
<polygon id="dummy-1_h1_6_59" description="&lt;b&gt;CP975_RS22695&lt;/b&gt;&lt;br&gt;acyl carrier protein&lt;br&gt;Location: 5050846 - 5050586" points="517,90 519,85 517,80 517,90 " class="clusterblast-orf" style="stroke:black; fill:white; stroke-width:1; " locus_tag="CP975_RS22695"  />
</g>
<g id="a1_0060"  >
<polygon id="dummy-1_h1_6_60" description="&lt;b&gt;CP975_RS22690&lt;/b&gt;&lt;br&gt;hypothetical protein&lt;br&gt;Location: 5050589 - 5050254" points="519,90 522,85 519,80 519,90 " class="clusterblast-orf" style="stroke:black; fill:white; stroke-width:1; " locus_tag="CP975_RS22690"  />
</g>
<g id="a1_0061"  >
<polygon id="dummy-1_h1_6_61" description="&lt;b&gt;CP975_RS22685&lt;/b&gt;&lt;br&gt;DsrE family protein&lt;br&gt;Location: 5050251 - 5049838" points="522,90 525,85 522,80 522,90 " class="clusterblast-orf" style="stroke:black; fill:white; stroke-width:1; " locus_tag="CP975_RS22685"  />
</g>
<g id="a1_0062"  >
<polygon id="dummy-1_h1_6_62" description="&lt;b&gt;CP975_RS22680&lt;/b&gt;&lt;br&gt;hypothetical protein&lt;br&gt;Location: 5049837 - 5049454" points="525,90 528,85 525,80 525,90 " class="clusterblast-orf" style="stroke:black; fill:white; stroke-width:1; " locus_tag="CP975_RS22680"  />
</g>
<g id="a1_0063"  >
<polygon id="dummy-1_h1_6_63" description="&lt;b&gt;CP975_RS22675&lt;/b&gt;&lt;br&gt;hypothetical protein&lt;br&gt;Location: 5049457 - 5048966" points="528,90 531,85 528,80 528,90 " class="clusterblast-orf" style="stroke:black; fill:white; stroke-width:1; " locus_tag="CP975_RS22675"  />
</g>
<g id="a1_0064"  >
<polygon id="dummy-1_h1_6_64" description="&lt;b&gt;CP975_RS22670&lt;/b&gt;&lt;br&gt;hypothetical protein&lt;br&gt;Location: 5048969 - 5048457" points="531,90 535,85 531,80 531,90 " class="clusterblast-orf" style="stroke:black; fill:white; stroke-width:1; " locus_tag="CP975_RS22670"  />
</g>
<g id="a1_0065"  >
<polygon id="dummy-1_h1_6_65" description="&lt;b&gt;CP975_RS22665&lt;/b&gt;&lt;br&gt;hypothetical protein&lt;br&gt;Location: 5048471 - 5047149" points="535,85 540,80 544,80 544,90 540,90 535,85 " class="clusterblast-orf" style="stroke:black; fill:white; stroke-width:1; " locus_tag="CP975_RS22665"  />
</g>
<g id="a1_0066"  >
<polygon id="dummy-1_h1_6_66" description="&lt;b&gt;CP975_RS22660&lt;/b&gt;&lt;br&gt;DUF3995 domain-containing protein&lt;br&gt;Location: 5047015 - 5046458" points="545,85 550,80 550,80 550,90 550,90 545,85 " class="clusterblast-orf" style="stroke:black; fill:white; stroke-width:1; " locus_tag="CP975_RS22660"  />
</g>
<g id="a1_0067"  >
<polygon id="dummy-1_h1_6_67" description="&lt;b&gt;CP975_RS22655&lt;/b&gt;&lt;br&gt;amino acid adenylation domain-containing protein&lt;br&gt;Location: 5046365 - 5034864&lt;br&gt;&lt;br&gt;&lt;b&gt;BlastP hit with cds351721_353227&lt;/b&gt;&lt;br&gt;Percentage identity: 35&lt;br&gt;Percentage coverage: 102&lt;br&gt;BLAST bit score: 217&lt;br&gt;E-value: 2.4e-54" points="550,85 555,80 634,80 634,90 555,90 550,85 " class="clusterblast-orf" style="stroke:black; fill:#15d877; stroke-width:1; " locus_tag="CP975_RS22655"  />
</g>
<g id="a1_0068"  >
<polygon id="dummy-1_h1_6_68" description="&lt;b&gt;CP975_RS22650&lt;/b&gt;&lt;br&gt;hypothetical protein&lt;br&gt;Location: 5034697 - 5033984" points="636,90 636,90 641,85 636,80 636,80 636,90 " class="clusterblast-orf" style="stroke:black; fill:white; stroke-width:1; " locus_tag="CP975_RS22650"  />
</g>
<g id="a1_0069"  >
<polygon id="dummy-1_h1_6_69" description="&lt;b&gt;CP975_RS22645&lt;/b&gt;&lt;br&gt;cation/H(+) antiporter&lt;br&gt;Location: 5033987 - 5032686" points="641,90 645,90 650,85 645,80 641,80 641,90 " class="clusterblast-orf" style="stroke:black; fill:white; stroke-width:1; " locus_tag="CP975_RS22645"  />
</g>
<g id="a1_0070"  >
<polygon id="dummy-1_h1_6_70" description="&lt;b&gt;CP975_RS22640&lt;/b&gt;&lt;br&gt;hypothetical protein&lt;br&gt;Location: 5032616 - 5032320" points="651,85 653,80 653,90 651,85 " class="clusterblast-orf" style="stroke:black; fill:white; stroke-width:1; " locus_tag="CP975_RS22640"  />
</g>
<g id="a1_0071"  >
<polygon id="dummy-1_h1_6_71" description="&lt;b&gt;CP975_RS22635&lt;/b&gt;&lt;br&gt;CBS domain-containing protein&lt;br&gt;Location: 5032268 - 5031912" points="653,85 656,80 656,90 653,85 " class="clusterblast-orf" style="stroke:black; fill:white; stroke-width:1; " locus_tag="CP975_RS22635"  />
</g>
<g id="a1_0072"  >
<polygon id="dummy-1_h1_6_72" description="&lt;b&gt;CP975_RS22630&lt;/b&gt;&lt;br&gt;DEAD/DEAH box helicase&lt;br&gt;Location: 5031860 - 5030385" points="656,85 661,80 667,80 667,90 661,90 656,85 " class="clusterblast-orf" style="stroke:black; fill:white; stroke-width:1; " locus_tag="CP975_RS22630"  />
</g>
<g id="a1_0073"  >
<polygon id="dummy-1_h1_6_73" description="&lt;b&gt;CP975_RS22625&lt;/b&gt;&lt;br&gt;cold-shock protein&lt;br&gt;Location: 5030221 - 5030018" points="668,85 670,80 670,90 668,85 " class="clusterblast-orf" style="stroke:black; fill:white; stroke-width:1; " locus_tag="CP975_RS22625"  />
</g>
<g id="a1_0074"  >
<polygon id="dummy-1_h1_6_74" description="&lt;b&gt;CP975_RS22620&lt;/b&gt;&lt;br&gt;N-6 DNA methylase&lt;br&gt;Location: 5029429 - 5025980" points="674,85 679,80 699,80 699,90 679,90 674,85 " class="clusterblast-orf" style="stroke:black; fill:white; stroke-width:1; " locus_tag="CP975_RS22620"  />
</g>
<g id="a1_0075"  >
<polygon id="dummy-1_h1_6_75" description="&lt;b&gt;CP975_RS22615&lt;/b&gt;&lt;br&gt;DUF234 domain-containing protein&lt;br&gt;Location: 5025741 - 5024462" points="701,85 706,80 711,80 711,90 706,90 701,85 " class="clusterblast-orf" style="stroke:black; fill:white; stroke-width:1; " locus_tag="CP975_RS22615"  />
</g>
<g id="a1_0076"  >
<polygon id="dummy-1_h1_6_76" description="&lt;b&gt;CP975_RS22610&lt;/b&gt;&lt;br&gt;DEAD/DEAH box helicase family protein&lt;br&gt;Location: 5023788 - 5021311" points="715,85 720,80 734,80 734,90 720,90 715,85 " class="clusterblast-orf" style="stroke:black; fill:white; stroke-width:1; " locus_tag="CP975_RS22610"  />
</g>
<g id="a1_0077"  >
<polygon id="dummy-1_h1_6_77" description="&lt;b&gt;CP975_RS22605&lt;/b&gt;&lt;br&gt;site-specific DNA-methyltransferase&lt;br&gt;Location: 5021314 - 5019698" points="734,85 739,80 745,80 745,90 739,90 734,85 " class="clusterblast-orf" style="stroke:black; fill:white; stroke-width:1; " locus_tag="CP975_RS22605"  />
</g>
<g id="a1_0078"  >
<polygon id="dummy-1_h1_6_78" description="&lt;b&gt;CP975_RS22600&lt;/b&gt;&lt;br&gt;hypothetical protein&lt;br&gt;Location: 5018891 - 5018422" points="751,85 755,80 755,90 751,85 " class="clusterblast-orf" style="stroke:black; fill:white; stroke-width:1; " locus_tag="CP975_RS22600"  />
</g>
<g id="a1_0079"  >
<polygon id="dummy-1_h1_6_79" description="&lt;b&gt;CP975_RS22595&lt;/b&gt;&lt;br&gt;redox-regulated ATPase YchF&lt;br&gt;Location: 5017813 - 5016725" points="759,85 764,80 767,80 767,90 764,90 759,85 " class="clusterblast-orf" style="stroke:black; fill:white; stroke-width:1; " locus_tag="CP975_RS22595"  />
</g>
<g id="a1_0080"  >
<polygon id="dummy-1_h1_6_80" description="&lt;b&gt;CP975_RS22590&lt;/b&gt;&lt;br&gt;hypothetical protein&lt;br&gt;Location: 5016295 - 5015837" points="770,90 774,85 770,80 770,90 " class="clusterblast-orf" style="stroke:black; fill:white; stroke-width:1; " locus_tag="CP975_RS22590"  />
</g>
<g id="a1_0081"  >
<polygon id="dummy-1_h1_6_81" description="&lt;b&gt;CP975_RS22585&lt;/b&gt;&lt;br&gt;ROK family protein&lt;br&gt;Location: 5015779 - 5015036" points="774,85 779,80 780,80 780,90 779,90 774,85 " class="clusterblast-orf" style="stroke:black; fill:white; stroke-width:1; " locus_tag="CP975_RS22585"  />
</g>
</svg>
