<svg xmlns:xlink="http://www.w3.org/1999/xlink" height="230" y="0" viewBox="0 0 800 230" xmlns="http://www.w3.org/2000/svg" width="800" preserveAspectRatio="none" version="1.1" x="0"  >
<g label="Query sequence" class="clusterblast-cluster"  >
<text y="20" class="clusterblast-acc" x="5"  >
Query sequence</text>
<line x1="10" y1="35" y2="35" style="stroke:grey; stroke-width:1; " x2="778.0"  />
<polygon id="dummy-1_q0_0_all" description="&lt;b&gt;cds151707_152481&lt;/b&gt;&lt;br&gt;hypothetical protein&lt;br&gt;Location: 151707 - 152481" points="150,40 154,40 159,35 154,30 150,30 150,40 " class="clusterblast-orf" style="stroke:black; fill:white; stroke-width:1; " locus_tag="cds151707_152481"  />
<polygon id="dummy-1_q1_0_all" description="&lt;b&gt;cds152505_156180&lt;/b&gt;&lt;br&gt;putative secreted peptidase&lt;br&gt;Location: 152505 - 156180" points="160,35 165,30 202,30 202,40 165,40 160,35 " class="clusterblast-orf" style="stroke:black; fill:white; stroke-width:1; " locus_tag="cds152505_156180"  />
<polygon id="dummy-1_q2_0_all" description="&lt;b&gt;cds156348_157866&lt;/b&gt;&lt;br&gt;4-aminobutyraldehyde dehydrogenase (EC 1.2.1.19)&lt;br&gt;Location: 156348 - 157866" points="204,35 209,30 221,30 221,40 209,40 204,35 " class="clusterblast-orf" style="stroke:black; fill:#d81515; stroke-width:1; " locus_tag="cds156348_157866"  />
<polygon id="dummy-1_q3_0_all" description="&lt;b&gt;cds157945_158845&lt;/b&gt;&lt;br&gt;4-hydroxy-tetrahydrodipicolinate synthase (EC 4.3.3.7)&lt;br&gt;Location: 157945 - 158845" points="222,35 227,30 232,30 232,40 227,40 222,35 " class="clusterblast-orf" style="stroke:black; fill:white; stroke-width:1; " locus_tag="cds157945_158845"  />
<polygon id="dummy-1_q4_0_all" description="&lt;b&gt;cds158882_160271&lt;/b&gt;&lt;br&gt;hypothetical protein&lt;br&gt;Location: 158882 - 160271" points="233,35 238,30 248,30 248,40 238,40 233,35 " class="clusterblast-orf" style="stroke:black; fill:white; stroke-width:1; " locus_tag="cds158882_160271"  />
<polygon id="dummy-1_q5_0_all" description="&lt;b&gt;cds160450_161131&lt;/b&gt;&lt;br&gt;hypothetical protein&lt;br&gt;Location: 160450 - 161131" points="251,40 253,40 258,35 253,30 251,30 251,40 " class="clusterblast-orf" style="stroke:black; fill:white; stroke-width:1; " locus_tag="cds160450_161131"  />
<polygon id="dummy-1_q6_0_all" description="&lt;b&gt;cds161099_162563&lt;/b&gt;&lt;br&gt;hypothetical protein&lt;br&gt;Location: 161099 - 162563" points="258,35 263,30 275,30 275,40 263,40 258,35 " class="clusterblast-orf" style="stroke:black; fill:white; stroke-width:1; " locus_tag="cds161099_162563"  />
<polygon id="dummy-1_q7_0_all" description="&lt;b&gt;cds162893_163790&lt;/b&gt;&lt;br&gt;hypothetical protein&lt;br&gt;Location: 162893 - 163790" points="278,40 284,40 289,35 284,30 278,30 278,40 " class="clusterblast-orf" style="stroke:black; fill:#15d815; stroke-width:1; " locus_tag="cds162893_163790"  />
<polygon id="dummy-1_q8_0_all" description="&lt;b&gt;cds163827_164742&lt;/b&gt;&lt;br&gt;Endonuclease/exonuclease/phosphatase family protein&lt;br&gt;Location: 163827 - 164742" points="289,40 295,40 300,35 295,30 289,30 289,40 " class="clusterblast-orf" style="stroke:black; fill:#1597d8; stroke-width:1; " locus_tag="cds163827_164742"  />
<polygon id="dummy-1_q9_0_all" description="&lt;b&gt;cds164881_167671&lt;/b&gt;&lt;br&gt;hypothetical protein&lt;br&gt;Location: 164881 - 167671" points="301,40 328,40 333,35 328,30 301,30 301,40 " class="clusterblast-orf" style="stroke:black; fill:white; stroke-width:1; " locus_tag="cds164881_167671"  />
<polygon id="dummy-1_q10_0_all" description="&lt;b&gt;cds167717_168743&lt;/b&gt;&lt;br&gt;Transcriptional regulator, LacI family&lt;br&gt;Location: 167717 - 168743" points="334,35 339,30 345,30 345,40 339,40 334,35 " class="clusterblast-orf" style="stroke:black; fill:#9715d8; stroke-width:1; " locus_tag="cds167717_168743"  />
<polygon id="dummy-1_q11_0_all" description="&lt;b&gt;cds168811_170404&lt;/b&gt;&lt;br&gt;Cyclohexanone monooxygenase (EC 1.14.13.22)&lt;br&gt;Location: 168811 - 170404" points="346,35 351,30 364,30 364,40 351,40 346,35 " class="clusterblast-orf" style="stroke:black; fill:white; stroke-width:1; " locus_tag="cds168811_170404"  />
<polygon id="dummy-1_q12_0_all" description="&lt;b&gt;cds170407_171289&lt;/b&gt;&lt;br&gt;Esterase/lipase&lt;br&gt;Location: 170407 - 171289" points="365,35 370,30 375,30 375,40 370,40 365,35 " class="clusterblast-orf" style="stroke:black; fill:#d89715; stroke-width:1; " locus_tag="cds170407_171289"  />
<polygon id="dummy-1_q13_0_all" description="&lt;b&gt;cds171283_171475&lt;/b&gt;&lt;br&gt;hypothetical protein&lt;br&gt;Location: 171283 - 171475" points="375,40 377,35 375,30 375,40 " class="clusterblast-orf" style="stroke:black; fill:white; stroke-width:1; " locus_tag="cds171283_171475"  />
<polygon id="dummy-1_q14_0_all" description="&lt;b&gt;cds171572_175556&lt;/b&gt;&lt;br&gt;Polyketide synthase modules and related proteins&lt;br&gt;Location: 171572 - 175556" points="378,40 418,40 423,35 418,30 378,30 378,40 " class="clusterblast-orf" style="stroke:black; fill:#15d897; stroke-width:1; " locus_tag="cds171572_175556"  />
<polygon id="dummy-1_q15_0_all" description="&lt;b&gt;cds175591_176923&lt;/b&gt;&lt;br&gt;putative metallopeptidase&lt;br&gt;Location: 175591 - 176923" points="424,40 434,40 439,35 434,30 424,30 424,40 " class="clusterblast-orf" style="stroke:black; fill:#1515d8; stroke-width:1; " locus_tag="cds175591_176923"  />
<polygon id="dummy-1_q16_0_all" description="&lt;b&gt;cds176982_178248&lt;/b&gt;&lt;br&gt;Putative cytochrome P450 hydroxylase&lt;br&gt;Location: 176982 - 178248" points="440,35 445,30 454,30 454,40 445,40 440,35 " class="clusterblast-orf" style="stroke:black; fill:#d81597; stroke-width:1; " locus_tag="cds176982_178248"  />
<polygon id="dummy-1_q17_0_all" description="&lt;b&gt;cds178297_179359&lt;/b&gt;&lt;br&gt;hypothetical protein&lt;br&gt;Location: 178297 - 179359" points="455,35 460,30 467,30 467,40 460,40 455,35 " class="clusterblast-orf" style="stroke:black; fill:white; stroke-width:1; " locus_tag="cds178297_179359"  />
<polygon id="dummy-1_q18_0_all" description="&lt;b&gt;cds179351_179489&lt;/b&gt;&lt;br&gt;hypothetical protein&lt;br&gt;Location: 179351 - 179489" points="467,35 468,30 468,40 467,35 " class="clusterblast-orf" style="stroke:black; fill:white; stroke-width:1; " locus_tag="cds179351_179489"  />
<polygon id="dummy-1_q19_0_all" description="&lt;b&gt;cds179685_180876&lt;/b&gt;&lt;br&gt;hypothetical protein&lt;br&gt;Location: 179685 - 180876" points="471,35 476,30 484,30 484,40 476,40 471,35 " class="clusterblast-orf" style="stroke:black; fill:white; stroke-width:1; " locus_tag="cds179685_180876"  />
<polygon id="dummy-1_q20_0_all" description="&lt;b&gt;cds180890_184280&lt;/b&gt;&lt;br&gt;hypothetical protein&lt;br&gt;Location: 180890 - 184280" points="485,35 490,30 523,30 523,40 490,40 485,35 " class="clusterblast-orf" style="stroke:black; fill:#97d815; stroke-width:1; " locus_tag="cds180890_184280"  />
<polygon id="dummy-1_q21_0_all" description="&lt;b&gt;cds184303_185680&lt;/b&gt;&lt;br&gt;hypothetical protein&lt;br&gt;Location: 184303 - 185680" points="524,35 529,30 539,30 539,40 529,40 524,35 " class="clusterblast-orf" style="stroke:black; fill:white; stroke-width:1; " locus_tag="cds184303_185680"  />
<polygon id="dummy-1_q22_0_all" description="&lt;b&gt;cds185785_187018&lt;/b&gt;&lt;br&gt;Putative cytochrome P450 hydroxylase&lt;br&gt;Location: 185785 - 187018" points="541,35 546,30 555,30 555,40 546,40 541,35 " class="clusterblast-orf" style="stroke:black; fill:#d81597; stroke-width:1; " locus_tag="cds185785_187018"  />
<polygon id="dummy-1_q23_0_all" description="&lt;b&gt;cds187077_188280&lt;/b&gt;&lt;br&gt;Putative cytochrome P450 hydroxylase&lt;br&gt;Location: 187077 - 188280" points="555,35 560,30 569,30 569,40 560,40 555,35 " class="clusterblast-orf" style="stroke:black; fill:#d81597; stroke-width:1; " locus_tag="cds187077_188280"  />
<polygon id="dummy-1_q24_0_all" description="&lt;b&gt;cds188487_189438&lt;/b&gt;&lt;br&gt;Transcriptional regulator, AraC family&lt;br&gt;Location: 188487 - 189438" points="572,40 577,40 582,35 577,30 572,30 572,40 " class="clusterblast-orf" style="stroke:black; fill:white; stroke-width:1; " locus_tag="cds188487_189438"  />
<polygon id="dummy-1_q25_0_all" description="&lt;b&gt;cds189460_191212&lt;/b&gt;&lt;br&gt;hypothetical protein&lt;br&gt;Location: 189460 - 191212" points="583,35 588,30 603,30 603,40 588,40 583,35 " class="clusterblast-orf" style="stroke:black; fill:#97d815; stroke-width:1; " locus_tag="cds189460_191212"  />
<polygon id="dummy-1_q26_0_all" description="&lt;b&gt;cds191228_191510&lt;/b&gt;&lt;br&gt;conserved hypothetical protein; putative coiled- coil domain&lt;br&gt;Location: 191228 - 191510" points="603,35 606,30 606,40 603,35 " class="clusterblast-orf" style="stroke:black; fill:white; stroke-width:1; " locus_tag="cds191228_191510"  />
<polygon id="dummy-1_q27_0_all" description="&lt;b&gt;cds191563_193195&lt;/b&gt;&lt;br&gt;hypothetical protein&lt;br&gt;Location: 191563 - 193195" points="607,35 612,30 625,30 625,40 612,40 607,35 " class="clusterblast-orf" style="stroke:black; fill:white; stroke-width:1; " locus_tag="cds191563_193195"  />
<polygon id="dummy-1_q28_0_all" description="&lt;b&gt;cds193209_193491&lt;/b&gt;&lt;br&gt;hypothetical protein&lt;br&gt;Location: 193209 - 193491" points="626,35 629,30 629,40 626,35 " class="clusterblast-orf" style="stroke:black; fill:white; stroke-width:1; " locus_tag="cds193209_193491"  />
</g>
<g label="NZ_CP050976" description="NZ_CP050976 (701799-772409): Streptomyces sp. RPA4-5 chromosome (6% of genes show similarity), LAP,NRPS,nucleoside,thiopeptide" class="clusterblast-cluster"  >
<text y="70" class="clusterblast-acc" x="5"  >
<a xlink:href="https://antismash-db.secondarymetabolites.org/area.html?record=NZ_CP050976&amp;start=701799&amp;end=772409" target="_blank">NZ_CP050976 (701799-772409)</a>: Streptomyces sp. RPA4-5 chromosome (6% of genes show similarity), LAP,NRPS,nucleoside,thiopeptide</text>
<line x1="10" y1="85" y2="85" style="stroke:grey; stroke-width:1; " x2="778.0"  />
</g>
<g id="a1_000"  >
<polygon id="dummy-1_h1_2_0" description="&lt;b&gt;HEP86_RS03325&lt;/b&gt;&lt;br&gt;PqqD family protein&lt;br&gt;Location: 702387 - 703685" points="0,90 9,90 14,85 9,80 0,80 0,90 " class="clusterblast-orf" style="stroke:black; fill:white; stroke-width:1; " locus_tag="HEP86_RS03325"  />
</g>
<g id="a1_001"  >
<polygon id="dummy-1_h1_2_1" description="&lt;b&gt;HEP86_RS03330&lt;/b&gt;&lt;br&gt;ATP-grasp domain-containing protein&lt;br&gt;Location: 703682 - 704992" points="14,90 24,90 29,85 24,80 14,80 14,90 " class="clusterblast-orf" style="stroke:black; fill:white; stroke-width:1; " locus_tag="HEP86_RS03330"  />
</g>
<g id="a1_002"  >
<polygon id="dummy-1_h1_2_2" description="&lt;b&gt;HEP86_RS03335&lt;/b&gt;&lt;br&gt;hypothetical protein&lt;br&gt;Location: 704999 - 705769" points="29,90 33,90 38,85 33,80 29,80 29,90 " class="clusterblast-orf" style="stroke:black; fill:white; stroke-width:1; " locus_tag="HEP86_RS03335"  />
</g>
<g id="a1_003"  >
<polygon id="dummy-1_h1_2_3" description="&lt;b&gt;HEP86_RS03340&lt;/b&gt;&lt;br&gt;hypothetical protein&lt;br&gt;Location: 705756 - 706565" points="38,90 42,90 47,85 42,80 38,80 38,90 " class="clusterblast-orf" style="stroke:black; fill:white; stroke-width:1; " locus_tag="HEP86_RS03340"  />
</g>
<g id="a1_004"  >
<polygon id="dummy-1_h1_2_4" description="&lt;b&gt;HEP86_RS03345&lt;/b&gt;&lt;br&gt;YbaK/prolyl-tRNA synthetase associated domain-containing protein&lt;br&gt;Location: 706562 - 707131" points="47,90 49,90 54,85 49,80 47,80 47,90 " class="clusterblast-orf" style="stroke:black; fill:white; stroke-width:1; " locus_tag="HEP86_RS03345"  />
</g>
<g id="a1_005"  >
<polygon id="dummy-1_h1_2_5" description="&lt;b&gt;HEP86_RS03350&lt;/b&gt;&lt;br&gt;NAD-dependent epimerase/dehydratase family protein&lt;br&gt;Location: 707285 - 708301" points="56,85 61,80 67,80 67,90 61,90 56,85 " class="clusterblast-orf" style="stroke:black; fill:white; stroke-width:1; " locus_tag="HEP86_RS03350"  />
</g>
<g id="a1_006"  >
<polygon id="dummy-1_h1_2_6" description="&lt;b&gt;HEP86_RS03355&lt;/b&gt;&lt;br&gt;cyclase&lt;br&gt;Location: 708298 - 708738" points="67,85 72,80 72,80 72,90 72,90 67,85 " class="clusterblast-orf" style="stroke:black; fill:white; stroke-width:1; " locus_tag="HEP86_RS03355"  />
</g>
<g id="a1_007"  >
<polygon id="dummy-1_h1_2_7" description="&lt;b&gt;HEP86_RS03360&lt;/b&gt;&lt;br&gt;acyl-CoA/acyl-ACP dehydrogenase&lt;br&gt;Location: 708789 - 709958" points="73,85 78,80 86,80 86,90 78,90 73,85 " class="clusterblast-orf" style="stroke:black; fill:white; stroke-width:1; " locus_tag="HEP86_RS03360"  />
</g>
<g id="a1_008"  >
<polygon id="dummy-1_h1_2_8" description="&lt;b&gt;HEP86_RS03365&lt;/b&gt;&lt;br&gt;hypothetical protein&lt;br&gt;Location: 709951 - 710688" points="86,85 91,80 95,80 95,90 91,90 86,85 " class="clusterblast-orf" style="stroke:black; fill:white; stroke-width:1; " locus_tag="HEP86_RS03365"  />
</g>
<g id="a1_009"  >
<polygon id="dummy-1_h1_2_9" description="&lt;b&gt;HEP86_RS03370&lt;/b&gt;&lt;br&gt;aminotransferase class I/II-fold pyridoxal phosphate-dependent enzyme&lt;br&gt;Location: 710685 - 711803" points="95,85 100,80 107,80 107,90 100,90 95,85 " class="clusterblast-orf" style="stroke:black; fill:white; stroke-width:1; " locus_tag="HEP86_RS03370"  />
</g>
<g id="a1_0010"  >
<polygon id="dummy-1_h1_2_10" description="&lt;b&gt;HEP86_RS03375&lt;/b&gt;&lt;br&gt;radical SAM protein&lt;br&gt;Location: 711800 - 713125" points="107,85 112,80 122,80 122,90 112,90 107,85 " class="clusterblast-orf" style="stroke:black; fill:white; stroke-width:1; " locus_tag="HEP86_RS03375"  />
</g>
<g id="a1_0011"  >
<polygon id="dummy-1_h1_2_11" description="&lt;b&gt;HEP86_RS03380&lt;/b&gt;&lt;br&gt;HAD family hydrolase&lt;br&gt;Location: 713313 - 713930" points="125,85 130,80 132,80 132,90 130,90 125,85 " class="clusterblast-orf" style="stroke:black; fill:white; stroke-width:1; " locus_tag="HEP86_RS03380"  />
</g>
<g id="a1_0012"  >
<polygon id="dummy-1_h1_2_12" description="&lt;b&gt;HEP86_RS03385&lt;/b&gt;&lt;br&gt;ABC transporter permease&lt;br&gt;Location: 713960 - 714742" points="132,85 137,80 141,80 141,90 137,90 132,85 " class="clusterblast-orf" style="stroke:black; fill:white; stroke-width:1; " locus_tag="HEP86_RS03385"  />
</g>
<g id="a1_0013"  >
<polygon id="dummy-1_h1_2_13" description="&lt;b&gt;HEP86_RS03390&lt;/b&gt;&lt;br&gt;ATP-binding cassette domain-containing protein&lt;br&gt;Location: 714739 - 715707" points="141,85 146,80 152,80 152,90 146,90 141,85 " class="clusterblast-orf" style="stroke:black; fill:white; stroke-width:1; " locus_tag="HEP86_RS03390"  />
</g>
<g id="a1_0014"  >
<polygon id="dummy-1_h1_2_14" description="&lt;b&gt;HEP86_RS03395&lt;/b&gt;&lt;br&gt;hypothetical protein&lt;br&gt;Location: 715697 - 716197" points="152,85 157,80 158,80 158,90 157,90 152,85 " class="clusterblast-orf" style="stroke:black; fill:white; stroke-width:1; " locus_tag="HEP86_RS03395"  />
</g>
<g id="a1_0015"  >
<polygon id="dummy-1_h1_2_15" description="&lt;b&gt;HEP86_RS03400&lt;/b&gt;&lt;br&gt;hypothetical protein&lt;br&gt;Location: 716233 - 717276" points="158,85 163,80 170,80 170,90 163,90 158,85 " class="clusterblast-orf" style="stroke:black; fill:white; stroke-width:1; " locus_tag="HEP86_RS03400"  />
</g>
<g id="a1_0016"  >
<polygon id="dummy-1_h1_2_16" description="&lt;b&gt;HEP86_RS03405&lt;/b&gt;&lt;br&gt;tRNA pseudouridine(13) synthase TruD&lt;br&gt;Location: 717858 - 718961" points="177,90 184,90 189,85 184,80 177,80 177,90 " class="clusterblast-orf" style="stroke:black; fill:white; stroke-width:1; " locus_tag="HEP86_RS03405"  />
</g>
<g id="a1_0017"  >
<polygon id="dummy-1_h1_2_17" description="&lt;b&gt;HEP86_RS03410&lt;/b&gt;&lt;br&gt;aminotransferase class III-fold pyridoxal phosphate-dependent enzyme&lt;br&gt;Location: 719060 - 720388" points="190,90 201,90 206,85 201,80 190,80 190,90 " class="clusterblast-orf" style="stroke:black; fill:white; stroke-width:1; " locus_tag="HEP86_RS03410"  />
</g>
<g id="a1_0018"  >
<polygon id="dummy-1_h1_2_18" description="&lt;b&gt;HEP86_RS03415&lt;/b&gt;&lt;br&gt;methyltransferase domain-containing protein&lt;br&gt;Location: 720403 - 721149" points="206,90 209,90 214,85 209,80 206,80 206,90 " class="clusterblast-orf" style="stroke:black; fill:white; stroke-width:1; " locus_tag="HEP86_RS03415"  />
</g>
<g id="a1_0019"  >
<polygon id="dummy-1_h1_2_19" description="&lt;b&gt;HEP86_RS03420&lt;/b&gt;&lt;br&gt;hypothetical protein&lt;br&gt;Location: 721186 - 722607" points="215,90 226,90 231,85 226,80 215,80 215,90 " class="clusterblast-orf" style="stroke:black; fill:white; stroke-width:1; " locus_tag="HEP86_RS03420"  />
</g>
<g id="a1_0020"  >
<polygon id="dummy-1_h1_2_20" description="&lt;b&gt;HEP86_RS03425&lt;/b&gt;&lt;br&gt;hypothetical protein&lt;br&gt;Location: 722604 - 723269" points="231,90 234,90 239,85 234,80 231,80 231,90 " class="clusterblast-orf" style="stroke:black; fill:white; stroke-width:1; " locus_tag="HEP86_RS03425"  />
</g>
<g id="a1_0021"  >
<polygon id="dummy-1_h1_2_21" description="&lt;b&gt;HEP86_RS03430&lt;/b&gt;&lt;br&gt;methyltransferase domain-containing protein&lt;br&gt;Location: 723263 - 724168" points="239,90 244,90 249,85 244,80 239,80 239,90 " class="clusterblast-orf" style="stroke:black; fill:white; stroke-width:1; " locus_tag="HEP86_RS03430"  />
</g>
<g id="a1_0022"  >
<polygon id="dummy-1_h1_2_22" description="&lt;b&gt;HEP86_RS03435&lt;/b&gt;&lt;br&gt;hypothetical protein&lt;br&gt;Location: 724170 - 727343" points="249,90 280,90 285,85 280,80 249,80 249,90 " class="clusterblast-orf" style="stroke:black; fill:white; stroke-width:1; " locus_tag="HEP86_RS03435"  />
</g>
<g id="a1_0023"  >
<polygon id="dummy-1_h1_2_23" description="&lt;b&gt;HEP86_RS03440&lt;/b&gt;&lt;br&gt;GrpB family protein&lt;br&gt;Location: 727377 - 727916" points="286,85 291,80 292,80 292,90 291,90 286,85 " class="clusterblast-orf" style="stroke:black; fill:white; stroke-width:1; " locus_tag="HEP86_RS03440"  />
</g>
<g id="a1_0024"  >
<polygon id="dummy-1_h1_2_24" description="&lt;b&gt;HEP86_RS03445&lt;/b&gt;&lt;br&gt;hypothetical protein&lt;br&gt;Location: 728104 - 729294" points="294,90 303,90 308,85 303,80 294,80 294,90 " class="clusterblast-orf" style="stroke:black; fill:white; stroke-width:1; " locus_tag="HEP86_RS03445"  />
</g>
<g id="a1_0025"  >
<polygon id="dummy-1_h1_2_25" description="&lt;b&gt;HEP86_RS03450&lt;/b&gt;&lt;br&gt;tyrosine-protein phosphatase&lt;br&gt;Location: 729300 - 730088" points="308,90 312,90 317,85 312,80 308,80 308,90 " class="clusterblast-orf" style="stroke:black; fill:white; stroke-width:1; " locus_tag="HEP86_RS03450"  />
</g>
<g id="a1_0026"  >
<polygon id="dummy-1_h1_2_26" description="&lt;b&gt;HEP86_RS03455&lt;/b&gt;&lt;br&gt;GNAT family N-acetyltransferase&lt;br&gt;Location: 730085 - 731137" points="317,90 324,90 329,85 324,80 317,80 317,90 " class="clusterblast-orf" style="stroke:black; fill:white; stroke-width:1; " locus_tag="HEP86_RS03455"  />
</g>
<g id="a1_0027"  >
<polygon id="dummy-1_h1_2_27" description="&lt;b&gt;HEP86_RS03460&lt;/b&gt;&lt;br&gt;hypothetical protein&lt;br&gt;Location: 731134 - 731625" points="329,90 329,90 334,85 329,80 329,80 329,90 " class="clusterblast-orf" style="stroke:black; fill:white; stroke-width:1; " locus_tag="HEP86_RS03460"  />
</g>
<g id="a1_0028"  >
<polygon id="dummy-1_h1_2_28" description="&lt;b&gt;HEP86_RS03465&lt;/b&gt;&lt;br&gt;2OG-Fe(II) oxygenase&lt;br&gt;Location: 731622 - 732248" points="334,90 336,90 341,85 336,80 334,80 334,90 " class="clusterblast-orf" style="stroke:black; fill:white; stroke-width:1; " locus_tag="HEP86_RS03465"  />
</g>
<g id="a1_0029"  >
<polygon id="dummy-1_h1_2_29" description="&lt;b&gt;HEP86_RS03470&lt;/b&gt;&lt;br&gt;nucleoside-diphosphate kinase&lt;br&gt;Location: 732376 - 732834" points="343,85 348,80 348,80 348,90 348,90 343,85 " class="clusterblast-orf" style="stroke:black; fill:white; stroke-width:1; " locus_tag="HEP86_RS03470"  />
</g>
<g id="a1_0030"  >
<polygon id="dummy-1_h1_2_30" description="&lt;b&gt;HEP86_RS03475&lt;/b&gt;&lt;br&gt;helix-turn-helix domain-containing protein&lt;br&gt;Location: 732846 - 733604" points="348,85 353,80 357,80 357,90 353,90 348,85 " class="clusterblast-orf" style="stroke:black; fill:white; stroke-width:1; " locus_tag="HEP86_RS03475"  />
</g>
<g id="a1_0031"  >
<polygon id="dummy-1_h1_2_31" description="&lt;b&gt;HEP86_RS03480&lt;/b&gt;&lt;br&gt;restriction endonuclease&lt;br&gt;Location: 734569 - 734985" points="368,90 368,90 373,85 368,80 368,80 368,90 " class="clusterblast-orf" style="stroke:black; fill:white; stroke-width:1; " locus_tag="HEP86_RS03480"  />
</g>
<g id="a1_0032"  >
<polygon id="dummy-1_h1_2_32" description="&lt;b&gt;HEP86_RS03485&lt;/b&gt;&lt;br&gt;hypothetical protein&lt;br&gt;Location: 735105 - 735809" points="374,85 379,80 382,80 382,90 379,90 374,85 " class="clusterblast-orf" style="stroke:black; fill:white; stroke-width:1; " locus_tag="HEP86_RS03485"  />
</g>
<g id="a1_0033"  >
<polygon id="dummy-1_h1_2_33" description="&lt;b&gt;HEP86_RS03490&lt;/b&gt;&lt;br&gt;SpoIIE family protein phosphatase&lt;br&gt;Location: 736458 - 737501" points="390,90 397,90 402,85 397,80 390,80 390,90 " class="clusterblast-orf" style="stroke:black; fill:white; stroke-width:1; " locus_tag="HEP86_RS03490"  />
</g>
<g id="a1_0034"  >
<polygon id="dummy-1_h1_2_34" description="&lt;b&gt;HEP86_RS03495&lt;/b&gt;&lt;br&gt;winged helix-turn-helix domain-containing protein&lt;br&gt;Location: 737555 - 737890" points="402,85 406,80 406,90 402,85 " class="clusterblast-orf" style="stroke:black; fill:white; stroke-width:1; " locus_tag="HEP86_RS03495"  />
</g>
<g id="a1_0035"  >
<polygon id="dummy-1_h1_2_35" description="&lt;b&gt;HEP86_RS03500&lt;/b&gt;&lt;br&gt;amino acid adenylation domain-containing protein&lt;br&gt;Location: 738195 - 742103&lt;br&gt;&lt;br&gt;&lt;b&gt;BlastP hit with cds171572_175556&lt;/b&gt;&lt;br&gt;Percentage identity: 70&lt;br&gt;Percentage coverage: 96&lt;br&gt;BLAST bit score: 1650&lt;br&gt;E-value: 0.0" points="409,90 449,90 454,85 449,80 409,80 409,90 " class="clusterblast-orf" style="stroke:black; fill:#15d897; stroke-width:1; " locus_tag="HEP86_RS03500"  />
</g>
<g id="a1_0036"  >
<polygon id="dummy-1_h1_2_36" description="&lt;b&gt;HEP86_RS03505&lt;/b&gt;&lt;br&gt;M1 family metallopeptidase&lt;br&gt;Location: 742156 - 743568&lt;br&gt;&lt;br&gt;&lt;b&gt;BlastP hit with cds175591_176923&lt;/b&gt;&lt;br&gt;Percentage identity: 67&lt;br&gt;Percentage coverage: 100&lt;br&gt;BLAST bit score: 617&lt;br&gt;E-value: 9.1e-175" points="455,90 466,90 471,85 466,80 455,80 455,90 " class="clusterblast-orf" style="stroke:black; fill:#1515d8; stroke-width:1; " locus_tag="HEP86_RS03505"  />
</g>
<g id="a1_0037"  >
<polygon id="dummy-1_h1_2_37" description="&lt;b&gt;HEP86_RS03510&lt;/b&gt;&lt;br&gt;hypothetical protein&lt;br&gt;Location: 743668 - 743925" points="472,85 475,80 475,90 472,85 " class="clusterblast-orf" style="stroke:black; fill:white; stroke-width:1; " locus_tag="HEP86_RS03510"  />
</g>
<g id="a1_0038"  >
<polygon id="dummy-1_h1_2_38" description="&lt;b&gt;HEP86_RS03515&lt;/b&gt;&lt;br&gt;hypothetical protein&lt;br&gt;Location: 744117 - 744866" points="477,85 482,80 486,80 486,90 482,90 477,85 " class="clusterblast-orf" style="stroke:black; fill:white; stroke-width:1; " locus_tag="HEP86_RS03515"  />
</g>
<g id="a1_0039"  >
<polygon id="dummy-1_h1_2_39" description="&lt;b&gt;HEP86_RS03520&lt;/b&gt;&lt;br&gt;beta-lactamase family protein&lt;br&gt;Location: 744868 - 745618" points="486,85 491,80 494,80 494,90 491,90 486,85 " class="clusterblast-orf" style="stroke:black; fill:white; stroke-width:1; " locus_tag="HEP86_RS03520"  />
</g>
<g id="a1_0040"  >
<polygon id="dummy-1_h1_2_40" description="&lt;b&gt;HEP86_RS03525&lt;/b&gt;&lt;br&gt;ATP-binding cassette domain-containing protein&lt;br&gt;Location: 745641 - 746363" points="495,90 498,90 503,85 498,80 495,80 495,90 " class="clusterblast-orf" style="stroke:black; fill:white; stroke-width:1; " locus_tag="HEP86_RS03525"  />
</g>
<g id="a1_0041"  >
<polygon id="dummy-1_h1_2_41" description="&lt;b&gt;HEP86_RS03530&lt;/b&gt;&lt;br&gt;hypothetical protein&lt;br&gt;Location: 746411 - 748015" points="504,90 517,90 522,85 517,80 504,80 504,90 " class="clusterblast-orf" style="stroke:black; fill:white; stroke-width:1; " locus_tag="HEP86_RS03530"  />
</g>
<g id="a1_0042"  >
<polygon id="dummy-1_h1_2_42" description="&lt;b&gt;HEP86_RS03535&lt;/b&gt;&lt;br&gt;AMP-binding protein&lt;br&gt;Location: 748161 - 751241" points="524,90 554,90 559,85 554,80 524,80 524,90 " class="clusterblast-orf" style="stroke:black; fill:white; stroke-width:1; " locus_tag="HEP86_RS03535"  />
</g>
<g id="a1_0043"  >
<polygon id="dummy-1_h1_2_43" description="&lt;b&gt;HEP86_RS03540&lt;/b&gt;&lt;br&gt;cytochrome P450&lt;br&gt;Location: 751268 - 752482&lt;br&gt;&lt;br&gt;&lt;b&gt;BlastP hit with cds176982_178248&lt;/b&gt;&lt;br&gt;Percentage identity: 32&lt;br&gt;Percentage coverage: 101&lt;br&gt;BLAST bit score: 166&lt;br&gt;E-value: 5.3e-39&lt;br&gt;&lt;br&gt;&lt;b&gt;BlastP hit with cds185785_187018&lt;/b&gt;&lt;br&gt;Percentage identity: 44&lt;br&gt;Percentage coverage: 91&lt;br&gt;BLAST bit score: 292&lt;br&gt;E-value: 8.1e-77&lt;br&gt;&lt;br&gt;&lt;b&gt;BlastP hit with cds187077_188280&lt;/b&gt;&lt;br&gt;Percentage identity: 36&lt;br&gt;Percentage coverage: 89&lt;br&gt;BLAST bit score: 191&lt;br&gt;E-value: 1.9e-46" points="559,85 564,80 573,80 573,90 564,90 559,85 " class="clusterblast-orf" style="stroke:black; fill:#d81597; stroke-width:1; " locus_tag="HEP86_RS03540"  />
</g>
<g id="a1_0044"  >
<polygon id="dummy-1_h1_2_44" description="&lt;b&gt;HEP86_RS03545&lt;/b&gt;&lt;br&gt;TOMM precursor leader peptide-binding protein&lt;br&gt;Location: 752498 - 754318" points="573,85 578,80 594,80 594,90 578,90 573,85 " class="clusterblast-orf" style="stroke:black; fill:white; stroke-width:1; " locus_tag="HEP86_RS03545"  />
</g>
<g id="a1_0045"  >
<polygon id="dummy-1_h1_2_45" description="&lt;b&gt;HEP86_RS03550&lt;/b&gt;&lt;br&gt;hypothetical protein&lt;br&gt;Location: 754443 - 756338" points="595,85 600,80 617,80 617,90 600,90 595,85 " class="clusterblast-orf" style="stroke:black; fill:white; stroke-width:1; " locus_tag="HEP86_RS03550"  />
</g>
<g id="a1_0046"  >
<polygon id="dummy-1_h1_2_46" description="&lt;b&gt;HEP86_RS03555&lt;/b&gt;&lt;br&gt;SagB/ThcOx family dehydrogenase&lt;br&gt;Location: 756335 - 757666" points="617,85 622,80 632,80 632,90 622,90 617,85 " class="clusterblast-orf" style="stroke:black; fill:white; stroke-width:1; " locus_tag="HEP86_RS03555"  />
</g>
<g id="a1_0047"  >
<polygon id="dummy-1_h1_2_47" description="&lt;b&gt;HEP86_RS03560&lt;/b&gt;&lt;br&gt;hypothetical protein&lt;br&gt;Location: 757717 - 758835" points="633,85 638,80 646,80 646,90 638,90 633,85 " class="clusterblast-orf" style="stroke:black; fill:white; stroke-width:1; " locus_tag="HEP86_RS03560"  />
</g>
<g id="a1_0048"  >
<polygon id="dummy-1_h1_2_48" description="&lt;b&gt;HEP86_RS03565&lt;/b&gt;&lt;br&gt;hypothetical protein&lt;br&gt;Location: 758832 - 759740" points="646,85 651,80 656,80 656,90 651,90 646,85 " class="clusterblast-orf" style="stroke:black; fill:white; stroke-width:1; " locus_tag="HEP86_RS03565"  />
</g>
<g id="a1_0049"  >
<polygon id="dummy-1_h1_2_49" description="&lt;b&gt;HEP86_RS03570&lt;/b&gt;&lt;br&gt;hypothetical protein&lt;br&gt;Location: 759779 - 762409" points="657,85 662,80 687,80 687,90 662,90 657,85 " class="clusterblast-orf" style="stroke:black; fill:white; stroke-width:1; " locus_tag="HEP86_RS03570"  />
</g>
<g id="a1_0050"  >
<polygon id="dummy-1_h1_2_50" description="&lt;b&gt;HEP86_RS03575&lt;/b&gt;&lt;br&gt;GE37468 family thiazolyl peptide&lt;br&gt;Location: 762539 - 762703" points="688,85 690,80 690,90 688,85 " class="clusterblast-orf" style="stroke:black; fill:white; stroke-width:1; " locus_tag="HEP86_RS03575"  />
</g>
<g id="a1_0051"  >
<polygon id="dummy-1_h1_2_51" description="&lt;b&gt;HEP86_RS03580&lt;/b&gt;&lt;br&gt;pyridoxamine 5'-phosphate oxidase family protein&lt;br&gt;Location: 763346 - 763951" points="697,85 702,80 704,80 704,90 702,90 697,85 " class="clusterblast-orf" style="stroke:black; fill:white; stroke-width:1; " locus_tag="HEP86_RS03580"  />
</g>
<g id="a1_0052"  >
<polygon id="dummy-1_h1_2_52" description="&lt;b&gt;HEP86_RS03585&lt;/b&gt;&lt;br&gt;protein kinase&lt;br&gt;Location: 764334 - 765758&lt;br&gt;&lt;br&gt;&lt;b&gt;BlastP hit with cds189460_191212&lt;/b&gt;&lt;br&gt;Percentage identity: 31&lt;br&gt;Percentage coverage: 48&lt;br&gt;BLAST bit score: 109&lt;br&gt;E-value: 1.4e-21" points="709,90 720,90 725,85 720,80 709,80 709,90 " class="clusterblast-orf" style="stroke:black; fill:#97d815; stroke-width:1; " locus_tag="HEP86_RS03585"  />
</g>
<g id="a1_0053"  >
<polygon id="dummy-1_h1_2_53" description="&lt;b&gt;HEP86_RS03590&lt;/b&gt;&lt;br&gt;hypothetical protein&lt;br&gt;Location: 765836 - 766384" points="726,90 727,90 732,85 727,80 726,80 726,90 " class="clusterblast-orf" style="stroke:black; fill:white; stroke-width:1; " locus_tag="HEP86_RS03590"  />
</g>
<g id="a1_0054"  >
<polygon id="dummy-1_h1_2_54" description="&lt;b&gt;HEP86_RS03595&lt;/b&gt;&lt;br&gt;methyltransferase domain-containing protein&lt;br&gt;Location: 766611 - 767366" points="735,90 738,90 743,85 738,80 735,80 735,90 " class="clusterblast-orf" style="stroke:black; fill:white; stroke-width:1; " locus_tag="HEP86_RS03595"  />
</g>
<g id="a1_0055"  >
<polygon id="dummy-1_h1_2_55" description="&lt;b&gt;HEP86_RS03600&lt;/b&gt;&lt;br&gt;hypothetical protein&lt;br&gt;Location: 767643 - 768014" points="747,90 751,85 747,80 747,90 " class="clusterblast-orf" style="stroke:black; fill:white; stroke-width:1; " locus_tag="HEP86_RS03600"  />
</g>
<g id="a1_0056"  >
<polygon id="dummy-1_h1_2_56" description="&lt;b&gt;HEP86_RS03605&lt;/b&gt;&lt;br&gt;e9imm peptide&lt;br&gt;Location: 768122 - 768352" points="752,85 755,80 755,90 752,85 " class="clusterblast-orf" style="stroke:black; fill:white; stroke-width:1; " locus_tag="HEP86_RS03605"  />
</g>
<g id="a1_0057"  >
<polygon id="dummy-1_h1_2_57" description="&lt;b&gt;HEP86_RS03610&lt;/b&gt;&lt;br&gt;IS30 family transposase&lt;br&gt;Location: 768613 - 769746" points="758,85 763,80 771,80 771,90 763,90 758,85 " class="clusterblast-orf" style="stroke:black; fill:white; stroke-width:1; " locus_tag="HEP86_RS03610"  />
</g>
<g id="a1_0058"  >
<polygon id="dummy-1_h1_2_58" description="&lt;b&gt;HEP86_RS03615&lt;/b&gt;&lt;br&gt;hypothetical protein&lt;br&gt;Location: 769879 - 770517" points="772,90 775,90 780,85 775,80 772,80 772,90 " class="clusterblast-orf" style="stroke:black; fill:white; stroke-width:1; " locus_tag="HEP86_RS03615"  />
</g>
</svg>
