<svg xmlns:xlink="http://www.w3.org/1999/xlink" height="230" y="0" viewBox="0 0 800 230" xmlns="http://www.w3.org/2000/svg" width="800" preserveAspectRatio="none" version="1.1" x="0"  >
<g label="Query sequence" class="clusterblast-cluster"  >
<text y="20" class="clusterblast-acc" x="5"  >
Query sequence</text>
<line x1="10" y1="35" y2="35" style="stroke:grey; stroke-width:1; " x2="778.0"  />
<polygon id="dummy-5_q0_0_all" description="&lt;b&gt;cds369150_369912&lt;/b&gt;&lt;br&gt;2,5-diamino-6-ribosylamino-pyrimidinone 5-phosphate reductase (EC 1.1.1.302) homolog&lt;br&gt;Location: 369150 - 369912" points="120,40 144,40 149,35 144,30 120,30 120,40 " class="clusterblast-orf" style="stroke:black; fill:#d81515; stroke-width:1; " locus_tag="cds369150_369912"  />
<polygon id="dummy-5_q1_0_all" description="&lt;b&gt;cds370019_370493&lt;/b&gt;&lt;br&gt;hypothetical protein&lt;br&gt;Location: 370019 - 370493" points="153,40 166,40 171,35 166,30 153,30 153,40 " class="clusterblast-orf" style="stroke:black; fill:#5cd815; stroke-width:1; " locus_tag="cds370019_370493"  />
<polygon id="dummy-5_q2_0_all" description="&lt;b&gt;cds370597_371995&lt;/b&gt;&lt;br&gt;UDP-N-acetylmuramate--L-alanine ligase (EC 6.3.2.8)&lt;br&gt;Location: 370597 - 371995" points="174,40 222,40 227,35 222,30 174,30 174,40 " class="clusterblast-orf" style="stroke:black; fill:#15a3d8; stroke-width:1; " locus_tag="cds370597_371995"  />
<polygon id="dummy-5_q3_0_all" description="&lt;b&gt;cds372000_372414&lt;/b&gt;&lt;br&gt;Peptide-methionine (R)-S-oxide reductase MsrB (EC 1.8.4.12)&lt;br&gt;Location: 372000 - 372414" points="227,40 237,40 242,35 237,30 227,30 227,40 " class="clusterblast-orf" style="stroke:black; fill:#c715d8; stroke-width:1; " locus_tag="cds372000_372414"  />
<polygon id="dummy-5_q4_0_all" description="&lt;b&gt;cds372522_372855&lt;/b&gt;&lt;br&gt;hypothetical protein&lt;br&gt;Location: 372522 - 372855" points="247,40 254,40 259,35 254,30 247,30 247,40 " class="clusterblast-orf" style="stroke:black; fill:white; stroke-width:1; " locus_tag="cds372522_372855"  />
<polygon id="dummy-5_q5_0_all" description="&lt;b&gt;cds372863_373337&lt;/b&gt;&lt;br&gt;hypothetical protein&lt;br&gt;Location: 372863 - 373337" points="259,40 272,40 277,35 272,30 259,30 259,40 " class="clusterblast-orf" style="stroke:black; fill:white; stroke-width:1; " locus_tag="cds372863_373337"  />
<polygon id="dummy-5_q6_0_all" description="&lt;b&gt;cds373375_373594&lt;/b&gt;&lt;br&gt;Peptide-methionine (R)-S-oxide reductase MsrB (EC 1.8.4.12)&lt;br&gt;Location: 373375 - 373594" points="278,40 282,40 287,35 282,30 278,30 278,40 " class="clusterblast-orf" style="stroke:black; fill:#c715d8; stroke-width:1; " locus_tag="cds373375_373594"  />
<polygon id="dummy-5_q7_0_all" description="&lt;b&gt;cds373618_374278&lt;/b&gt;&lt;br&gt;secreted protein&lt;br&gt;Location: 373618 - 374278" points="288,35 293,30 312,30 312,40 293,40 288,35 " class="clusterblast-orf" style="stroke:black; fill:white; stroke-width:1; " locus_tag="cds373618_374278"  />
<polygon id="dummy-5_q8_0_all" description="&lt;b&gt;cds374322_375639&lt;/b&gt;&lt;br&gt;Putative cytochrome P450 hydroxylase&lt;br&gt;Location: 374322 - 375639" points="314,35 319,30 363,30 363,40 319,40 314,35 " class="clusterblast-orf" style="stroke:black; fill:#d88015; stroke-width:1; " locus_tag="cds374322_375639"  />
<polygon id="dummy-5_q9_0_all" description="&lt;b&gt;cds375635_376424&lt;/b&gt;&lt;br&gt;Putative hydrolase&lt;br&gt;Location: 375635 - 376424" points="363,35 368,30 393,30 393,40 368,40 363,35 " class="clusterblast-orf" style="stroke:black; fill:#15d839; stroke-width:1; " locus_tag="cds375635_376424"  />
<polygon id="dummy-5_q10_0_all" description="&lt;b&gt;cds376550_377393&lt;/b&gt;&lt;br&gt;Uncharacterized protein YybG&lt;br&gt;Location: 376550 - 377393" points="397,40 424,40 429,35 424,30 397,30 397,40 " class="clusterblast-orf" style="stroke:black; fill:#1539d8; stroke-width:1; " locus_tag="cds376550_377393"  />
<polygon id="dummy-5_q11_0_all" description="&lt;b&gt;cds377421_378066&lt;/b&gt;&lt;br&gt;Periplasmic chorismate mutase I precursor (EC 5.4.99.5)&lt;br&gt;Location: 377421 - 378066" points="430,35 435,30 454,30 454,40 435,40 430,35 " class="clusterblast-orf" style="stroke:black; fill:white; stroke-width:1; " locus_tag="cds377421_378066"  />
<polygon id="dummy-5_q12_0_all" description="&lt;b&gt;cds378239_380480&lt;/b&gt;&lt;br&gt;Germacradienol/germacrene D synthase (EC 4.2.3.22)&lt;br&gt;Location: 378239 - 380480" points="460,40 539,40 544,35 539,30 460,30 460,40 " class="clusterblast-orf" style="stroke:black; fill:#d81580; stroke-width:1; " locus_tag="cds378239_380480"  />
<polygon id="dummy-5_q13_0_all" description="&lt;b&gt;cds380584_382519&lt;/b&gt;&lt;br&gt;hypothetical protein&lt;br&gt;Location: 380584 - 382519" points="548,40 616,40 621,35 616,30 548,30 548,40 " class="clusterblast-orf" style="stroke:black; fill:#c7d815; stroke-width:1; " locus_tag="cds380584_382519"  />
<polygon id="dummy-5_q14_0_all" description="&lt;b&gt;cds382506_383286&lt;/b&gt;&lt;br&gt;hypothetical protein&lt;br&gt;Location: 382506 - 383286" points="620,35 625,30 649,30 649,40 625,40 620,35 " class="clusterblast-orf" style="stroke:black; fill:#15d8a3; stroke-width:1; " locus_tag="cds382506_383286"  />
<polygon id="dummy-5_q15_0_all" description="&lt;b&gt;cds383297_383555&lt;/b&gt;&lt;br&gt;Transcriptional regulator, LysR family&lt;br&gt;Location: 383297 - 383555" points="650,40 654,40 659,35 654,30 650,30 650,40 " class="clusterblast-orf" style="stroke:black; fill:#5c15d8; stroke-width:1; " locus_tag="cds383297_383555"  />
</g>
<g label="NZ_NNBL01000001" description="NZ_NNBL01000001 (332828-353671): Streptomyces sp. CB01635 scaffold1, whole ge... (36% of genes show similarity), terpene" class="clusterblast-cluster"  >
<text y="70" class="clusterblast-acc" x="5"  >
<a xlink:href="https://antismash-db.secondarymetabolites.org/area.html?record=NZ_NNBL01000001&amp;start=332828&amp;end=353671" target="_blank">NZ_NNBL01000001 (332828-353671)</a>: Streptomyces sp. CB01635 scaffold1, whole ge... (36% of genes show similarity), terpene</text>
<line x1="10" y1="85" y2="85" style="stroke:grey; stroke-width:1; " x2="778.0"  />
</g>
<g id="a5_000"  >
<polygon id="dummy-5_h5_1_0" description="&lt;b&gt;CG723_RS01385&lt;/b&gt;&lt;br&gt;hypothetical protein&lt;br&gt;Location: 332829 - 333371" points="0,90 15,90 20,85 15,80 0,80 0,90 " class="clusterblast-orf" style="stroke:black; fill:white; stroke-width:1; " locus_tag="CG723_RS01385"  />
</g>
<g id="a5_001"  >
<polygon id="dummy-5_h5_1_1" description="&lt;b&gt;CG723_RS01390&lt;/b&gt;&lt;br&gt;cell division protein ZapE&lt;br&gt;Location: 333384 - 334475" points="20,85 25,80 61,80 61,90 25,90 20,85 " class="clusterblast-orf" style="stroke:black; fill:white; stroke-width:1; " locus_tag="CG723_RS01390"  />
</g>
<g id="a5_002"  >
<polygon id="dummy-5_h5_1_2" description="&lt;b&gt;CG723_RS01395&lt;/b&gt;&lt;br&gt;pyrimidine reductase family protein&lt;br&gt;Location: 334513 - 335286&lt;br&gt;&lt;br&gt;&lt;b&gt;BlastP hit with cds369150_369912&lt;/b&gt;&lt;br&gt;Percentage identity: 80&lt;br&gt;Percentage coverage: 96&lt;br&gt;BLAST bit score: 372&lt;br&gt;E-value: 2.9e-101" points="63,90 86,90 91,85 86,80 63,80 63,90 " class="clusterblast-orf" style="stroke:black; fill:#d81515; stroke-width:1; " locus_tag="CG723_RS01395"  />
</g>
<g id="a5_003"  >
<polygon id="dummy-5_h5_1_3" description="&lt;b&gt;CG723_RS01400&lt;/b&gt;&lt;br&gt;indole-3-glycerol phosphate synthase&lt;br&gt;Location: 335431 - 335904&lt;br&gt;&lt;br&gt;&lt;b&gt;BlastP hit with cds370019_370493&lt;/b&gt;&lt;br&gt;Percentage identity: 86&lt;br&gt;Percentage coverage: 100&lt;br&gt;BLAST bit score: 269&lt;br&gt;E-value: 2.8e-70" points="97,90 110,90 115,85 110,80 97,80 97,90 " class="clusterblast-orf" style="stroke:black; fill:#5cd815; stroke-width:1; " locus_tag="CG723_RS01400"  />
</g>
<g id="a5_004"  >
<polygon id="dummy-5_h5_1_4" description="&lt;b&gt;CG723_RS01405&lt;/b&gt;&lt;br&gt;UDP-N-acetylmuramate--L-alanine ligase&lt;br&gt;Location: 336020 - 337414&lt;br&gt;&lt;br&gt;&lt;b&gt;BlastP hit with cds370597_371995&lt;/b&gt;&lt;br&gt;Percentage identity: 90&lt;br&gt;Percentage coverage: 100&lt;br&gt;BLAST bit score: 796&lt;br&gt;E-value: 1.2e-228" points="119,90 166,90 171,85 166,80 119,80 119,90 " class="clusterblast-orf" style="stroke:black; fill:#15a3d8; stroke-width:1; " locus_tag="CG723_RS01405"  />
</g>
<g id="a5_005"  >
<polygon id="dummy-5_h5_1_5" description="&lt;b&gt;CG723_RS01410&lt;/b&gt;&lt;br&gt;peptide-methionine (R)-S-oxide reductase MsrB&lt;br&gt;Location: 337428 - 337835&lt;br&gt;&lt;br&gt;&lt;b&gt;BlastP hit with cds372000_372414&lt;/b&gt;&lt;br&gt;Percentage identity: 92&lt;br&gt;Percentage coverage: 98&lt;br&gt;BLAST bit score: 274&lt;br&gt;E-value: 5.9e-72&lt;br&gt;&lt;br&gt;&lt;b&gt;BlastP hit with cds373375_373594&lt;/b&gt;&lt;br&gt;Percentage identity: 90&lt;br&gt;Percentage coverage: 93&lt;br&gt;BLAST bit score: 141&lt;br&gt;E-value: 4.1e-32" points="172,90 182,90 187,85 182,80 172,80 172,90 " class="clusterblast-orf" style="stroke:black; fill:#c715d8; stroke-width:1; " locus_tag="CG723_RS01410"  />
</g>
<g id="a5_006"  >
<polygon id="dummy-5_h5_1_6" description="&lt;b&gt;CG723_RS01415&lt;/b&gt;&lt;br&gt;hypothetical protein&lt;br&gt;Location: 337855 - 338316" points="188,85 193,80 205,80 205,90 193,90 188,85 " class="clusterblast-orf" style="stroke:black; fill:white; stroke-width:1; " locus_tag="CG723_RS01415"  />
</g>
<g id="a5_007"  >
<polygon id="dummy-5_h5_1_7" description="&lt;b&gt;CG723_RS01420&lt;/b&gt;&lt;br&gt;pentapeptide repeat-containing protein&lt;br&gt;Location: 338522 - 339364&lt;br&gt;&lt;br&gt;&lt;b&gt;BlastP hit with cds376550_377393&lt;/b&gt;&lt;br&gt;Percentage identity: 69&lt;br&gt;Percentage coverage: 95&lt;br&gt;BLAST bit score: 257&lt;br&gt;E-value: 1.5e-66" points="213,90 239,90 244,85 239,80 213,80 213,90 " class="clusterblast-orf" style="stroke:black; fill:#1539d8; stroke-width:1; " locus_tag="CG723_RS01420"  />
</g>
<g id="a5_008"  >
<polygon id="dummy-5_h5_1_8" description="&lt;b&gt;CG723_RS01425&lt;/b&gt;&lt;br&gt;prolyl oligopeptidase family serine peptidase&lt;br&gt;Location: 339387 - 341453" points="245,85 250,80 322,80 322,90 250,90 245,85 " class="clusterblast-orf" style="stroke:black; fill:white; stroke-width:1; " locus_tag="CG723_RS01425"  />
</g>
<g id="a5_009"  >
<polygon id="dummy-5_h5_1_9" description="&lt;b&gt;CG723_RS01430&lt;/b&gt;&lt;br&gt;universal stress protein&lt;br&gt;Location: 341521 - 341991" points="325,85 330,80 342,80 342,90 330,90 325,85 " class="clusterblast-orf" style="stroke:black; fill:white; stroke-width:1; " locus_tag="CG723_RS01430"  />
</g>
<g id="a5_0010"  >
<polygon id="dummy-5_h5_1_10" description="&lt;b&gt;CG723_RS01435&lt;/b&gt;&lt;br&gt;terpene synthase family protein&lt;br&gt;Location: 342136 - 344337&lt;br&gt;&lt;br&gt;&lt;b&gt;BlastP hit with cds378239_380480&lt;/b&gt;&lt;br&gt;Percentage identity: 81&lt;br&gt;Percentage coverage: 96&lt;br&gt;BLAST bit score: 1237&lt;br&gt;E-value: 0.0" points="348,90 425,90 430,85 425,80 348,80 348,90 " class="clusterblast-orf" style="stroke:black; fill:#d81580; stroke-width:1; " locus_tag="CG723_RS01435"  />
</g>
<g id="a5_0011"  >
<polygon id="dummy-5_h5_1_11" description="&lt;b&gt;CG723_RS01440&lt;/b&gt;&lt;br&gt;multicopper oxidase domain-containing protein&lt;br&gt;Location: 344400 - 346289&lt;br&gt;&lt;br&gt;&lt;b&gt;BlastP hit with cds380584_382519&lt;/b&gt;&lt;br&gt;Percentage identity: 80&lt;br&gt;Percentage coverage: 98&lt;br&gt;BLAST bit score: 1045&lt;br&gt;E-value: 2.6e-303" points="433,90 498,90 503,85 498,80 433,80 433,90 " class="clusterblast-orf" style="stroke:black; fill:#c7d815; stroke-width:1; " locus_tag="CG723_RS01440"  />
</g>
<g id="a5_0012"  >
<polygon id="dummy-5_h5_1_12" description="&lt;b&gt;CG723_RS01445&lt;/b&gt;&lt;br&gt;PDZ domain-containing protein&lt;br&gt;Location: 346380 - 346973" points="507,90 524,90 529,85 524,80 507,80 507,90 " class="clusterblast-orf" style="stroke:black; fill:white; stroke-width:1; " locus_tag="CG723_RS01445"  />
</g>
<g id="a5_0013"  >
<polygon id="dummy-5_h5_1_13" description="&lt;b&gt;CG723_RS01450&lt;/b&gt;&lt;br&gt;metallophosphoesterase&lt;br&gt;Location: 346996 - 347793" points="530,85 535,80 560,80 560,90 535,90 530,85 " class="clusterblast-orf" style="stroke:black; fill:white; stroke-width:1; " locus_tag="CG723_RS01450"  />
</g>
<g id="a5_0014"  >
<polygon id="dummy-5_h5_1_14" description="&lt;b&gt;CG723_RS01455&lt;/b&gt;&lt;br&gt;aminopeptidase P family protein&lt;br&gt;Location: 348009 - 349133" points="568,90 605,90 610,85 605,80 568,80 568,90 " class="clusterblast-orf" style="stroke:black; fill:white; stroke-width:1; " locus_tag="CG723_RS01455"  />
</g>
<g id="a5_0015"  >
<polygon id="dummy-5_h5_1_15" description="&lt;b&gt;CG723_RS01460&lt;/b&gt;&lt;br&gt;aminoglycoside phosphotransferase family protein&lt;br&gt;Location: 349139 - 350065" points="610,90 640,90 645,85 640,80 610,80 610,90 " class="clusterblast-orf" style="stroke:black; fill:white; stroke-width:1; " locus_tag="CG723_RS01460"  />
</g>
<g id="a5_0016"  >
<polygon id="dummy-5_h5_1_16" description="&lt;b&gt;CG723_RS01465&lt;/b&gt;&lt;br&gt;malto-oligosyltrehalose trehalohydrolase&lt;br&gt;Location: 350084 - 351832" points="645,85 650,80 711,80 711,90 650,90 645,85 " class="clusterblast-orf" style="stroke:black; fill:white; stroke-width:1; " locus_tag="CG723_RS01465"  />
</g>
<g id="a5_0017"  >
<polygon id="dummy-5_h5_1_17" description="&lt;b&gt;CG723_RS01470&lt;/b&gt;&lt;br&gt;GNAT family N-acetyltransferase&lt;br&gt;Location: 351968 - 352918" points="716,85 721,80 751,80 751,90 721,90 716,85 " class="clusterblast-orf" style="stroke:black; fill:white; stroke-width:1; " locus_tag="CG723_RS01470"  />
</g>
<g id="a5_0018"  >
<polygon id="dummy-5_h5_1_18" description="&lt;b&gt;CG723_RS01475&lt;/b&gt;&lt;br&gt;FHA domain-containing protein&lt;br&gt;Location: 353114 - 353671" points="759,90 775,90 780,85 775,80 759,80 759,90 " class="clusterblast-orf" style="stroke:black; fill:white; stroke-width:1; " locus_tag="CG723_RS01475"  />
</g>
</svg>
