<svg xmlns:xlink="http://www.w3.org/1999/xlink" height="230" y="0" viewBox="0 0 800 230" xmlns="http://www.w3.org/2000/svg" width="800" preserveAspectRatio="none" version="1.1" x="0"  >
<g label="Query sequence" class="clusterblast-cluster"  >
<text y="20" class="clusterblast-acc" x="5"  >
Query sequence</text>
<line x1="10" y1="35" y2="35" style="stroke:grey; stroke-width:1; " x2="778.0"  />
<polygon id="dummy-1_q0_0_all" description="&lt;b&gt;cds60673_62143&lt;/b&gt;&lt;br&gt;Ribosome LSU-associated GTP-binding protein HflX&lt;br&gt;Location: 60673 - 62143" points="16,40 91,40 96,35 91,30 16,30 16,40 " class="clusterblast-orf" style="stroke:black; fill:#d81515; stroke-width:1; " locus_tag="cds60673_62143"  />
<polygon id="dummy-1_q1_0_all" description="&lt;b&gt;cds62238_63465&lt;/b&gt;&lt;br&gt;putative secreted protein&lt;br&gt;Location: 62238 - 63465" points="101,35 106,30 168,30 168,40 106,40 101,35 " class="clusterblast-orf" style="stroke:black; fill:#15d815; stroke-width:1; " locus_tag="cds62238_63465"  />
<polygon id="dummy-1_q2_0_all" description="&lt;b&gt;cds63896_65384&lt;/b&gt;&lt;br&gt;Siderophore biosynthesis diaminobutyrate--2-oxoglutarate aminotransferase (EC 2.6.1.76)&lt;br&gt;Location: 63896 - 65384" points="191,40 267,40 272,35 267,30 191,30 191,40 " class="clusterblast-orf" style="stroke:black; fill:#1597d8; stroke-width:1; " locus_tag="cds63896_65384"  />
<polygon id="dummy-1_q3_0_all" description="&lt;b&gt;cds65451_67620&lt;/b&gt;&lt;br&gt;Siderophore synthetase superfamily, group A @ Siderophore synthetase large component, acetyltransferase&lt;br&gt;Location: 65451 - 67620" points="276,40 389,40 394,35 389,30 276,30 276,40 " class="clusterblast-orf" style="stroke:black; fill:#9715d8; stroke-width:1; " locus_tag="cds65451_67620"  />
<polygon id="dummy-1_q4_0_all" description="&lt;b&gt;cds67644_68493&lt;/b&gt;&lt;br&gt;Siderophore synthetase small component, acetyltransferase&lt;br&gt;Location: 67644 - 68493" points="395,40 436,40 441,35 436,30 395,30 395,40 " class="clusterblast-orf" style="stroke:black; fill:#d89715; stroke-width:1; " locus_tag="cds67644_68493"  />
<polygon id="dummy-1_q5_0_all" description="&lt;b&gt;cds68533_70477&lt;/b&gt;&lt;br&gt;Siderophore synthetase component, ligase&lt;br&gt;Location: 68533 - 70477" points="444,40 544,40 549,35 544,30 444,30 444,40 " class="clusterblast-orf" style="stroke:black; fill:#15d897; stroke-width:1; " locus_tag="cds68533_70477"  />
<polygon id="dummy-1_q6_0_all" description="&lt;b&gt;cds70517_72524&lt;/b&gt;&lt;br&gt;DinG family ATP-dependent helicase YoaA&lt;br&gt;Location: 70517 - 72524" points="552,40 656,40 661,35 656,30 552,30 552,40 " class="clusterblast-orf" style="stroke:black; fill:#1515d8; stroke-width:1; " locus_tag="cds70517_72524"  />
<polygon id="dummy-1_q7_0_all" description="&lt;b&gt;cds72615_73401&lt;/b&gt;&lt;br&gt;SOS-response repressor and protease LexA (EC 3.4.21.88)&lt;br&gt;Location: 72615 - 73401" points="666,35 671,30 709,30 709,40 671,40 666,35 " class="clusterblast-orf" style="stroke:black; fill:#d81597; stroke-width:1; " locus_tag="cds72615_73401"  />
<polygon id="dummy-1_q8_0_all" description="&lt;b&gt;cds73882_74428&lt;/b&gt;&lt;br&gt;Ribonucleotide reductase transcriptional regulator NrdR&lt;br&gt;Location: 73882 - 74428" points="735,40 759,40 764,35 759,30 735,30 735,40 " class="clusterblast-orf" style="stroke:black; fill:#97d815; stroke-width:1; " locus_tag="cds73882_74428"  />
</g>
<g label="NZ_CP045643" description="NZ_CP045643 (2743469-2757798): Streptomyces sp. QMT-28 chromosome, complete g... (100% of genes show similarity), siderophore" class="clusterblast-cluster"  >
<text y="70" class="clusterblast-acc" x="5"  >
<a xlink:href="https://antismash-db.secondarymetabolites.org/area.html?record=NZ_CP045643&amp;start=2743469&amp;end=2757798" target="_blank">NZ_CP045643 (2743469-2757798)</a>: Streptomyces sp. QMT-28 chromosome, complete g... (100% of genes show similarity), siderophore</text>
<line x1="10" y1="85" y2="85" style="stroke:grey; stroke-width:1; " x2="778.0"  />
</g>
<g id="a1_000"  >
<polygon id="dummy-1_h1_1_0" description="&lt;b&gt;GFH48_RS11670&lt;/b&gt;&lt;br&gt;GTPase HflX&lt;br&gt;Location: 2757798 - 2756305&lt;br&gt;&lt;br&gt;&lt;b&gt;BlastP hit with cds60673_62143&lt;/b&gt;&lt;br&gt;Percentage identity: 91&lt;br&gt;Percentage coverage: 99&lt;br&gt;BLAST bit score: 842&lt;br&gt;E-value: 2.5e-242" points="0,90 76,90 81,85 76,80 0,80 0,90 " class="clusterblast-orf" style="stroke:black; fill:#d81515; stroke-width:1; " locus_tag="GFH48_RS11670"  />
</g>
<g id="a1_001"  >
<polygon id="dummy-1_h1_1_1" description="&lt;b&gt;GFH48_RS11665&lt;/b&gt;&lt;br&gt;hypothetical protein&lt;br&gt;Location: 2756150 - 2754921&lt;br&gt;&lt;br&gt;&lt;b&gt;BlastP hit with cds62238_63465&lt;/b&gt;&lt;br&gt;Percentage identity: 67&lt;br&gt;Percentage coverage: 100&lt;br&gt;BLAST bit score: 561&lt;br&gt;E-value: 5.5e-158" points="89,85 94,80 156,80 156,90 94,90 89,85 " class="clusterblast-orf" style="stroke:black; fill:#15d815; stroke-width:1; " locus_tag="GFH48_RS11665"  />
</g>
<g id="a1_002"  >
<polygon id="dummy-1_h1_1_2" description="&lt;b&gt;GFH48_RS11660&lt;/b&gt;&lt;br&gt;aminotransferase class III-fold pyridoxal phosphate-dependent enzyme&lt;br&gt;Location: 2754613 - 2753201&lt;br&gt;&lt;br&gt;&lt;b&gt;BlastP hit with cds63896_65384&lt;/b&gt;&lt;br&gt;Percentage identity: 85&lt;br&gt;Percentage coverage: 90&lt;br&gt;BLAST bit score: 733&lt;br&gt;E-value: 1.7e-209" points="173,90 245,90 250,85 245,80 173,80 173,90 " class="clusterblast-orf" style="stroke:black; fill:#1597d8; stroke-width:1; " locus_tag="GFH48_RS11660"  />
</g>
<g id="a1_003"  >
<polygon id="dummy-1_h1_1_3" description="&lt;b&gt;GFH48_RS11655&lt;/b&gt;&lt;br&gt;iron transporter&lt;br&gt;Location: 2753014 - 2750903&lt;br&gt;&lt;br&gt;&lt;b&gt;BlastP hit with cds65451_67620&lt;/b&gt;&lt;br&gt;Percentage identity: 69&lt;br&gt;Percentage coverage: 100&lt;br&gt;BLAST bit score: 887&lt;br&gt;E-value: 1e-255" points="260,90 370,90 375,85 370,80 260,80 260,90 " class="clusterblast-orf" style="stroke:black; fill:#9715d8; stroke-width:1; " locus_tag="GFH48_RS11655"  />
</g>
<g id="a1_004"  >
<polygon id="dummy-1_h1_1_4" description="&lt;b&gt;GFH48_RS11650&lt;/b&gt;&lt;br&gt;GNAT family N-acetyltransferase&lt;br&gt;Location: 2750863 - 2749883&lt;br&gt;&lt;br&gt;&lt;b&gt;BlastP hit with cds67644_68493&lt;/b&gt;&lt;br&gt;Percentage identity: 80&lt;br&gt;Percentage coverage: 68&lt;br&gt;BLAST bit score: 328&lt;br&gt;E-value: 7.1e-88" points="377,90 425,90 430,85 425,80 377,80 377,90 " class="clusterblast-orf" style="stroke:black; fill:#d89715; stroke-width:1; " locus_tag="GFH48_RS11650"  />
</g>
<g id="a1_005"  >
<polygon id="dummy-1_h1_1_5" description="&lt;b&gt;GFH48_RS11645&lt;/b&gt;&lt;br&gt;IucA/IucC family siderophore biosynthesis protein&lt;br&gt;Location: 2749714 - 2747858&lt;br&gt;&lt;br&gt;&lt;b&gt;BlastP hit with cds68533_70477&lt;/b&gt;&lt;br&gt;Percentage identity: 77&lt;br&gt;Percentage coverage: 85&lt;br&gt;BLAST bit score: 864&lt;br&gt;E-value: 6.3e-249" points="440,90 536,90 541,85 536,80 440,80 440,90 " class="clusterblast-orf" style="stroke:black; fill:#15d897; stroke-width:1; " locus_tag="GFH48_RS11645"  />
</g>
<g id="a1_006"  >
<polygon id="dummy-1_h1_1_6" description="&lt;b&gt;GFH48_RS11640&lt;/b&gt;&lt;br&gt;ATP-dependent helicase&lt;br&gt;Location: 2747745 - 2745784&lt;br&gt;&lt;br&gt;&lt;b&gt;BlastP hit with cds70517_72524&lt;/b&gt;&lt;br&gt;Percentage identity: 91&lt;br&gt;Percentage coverage: 98&lt;br&gt;BLAST bit score: 1171&lt;br&gt;E-value: 0.0" points="547,90 649,90 654,85 649,80 547,80 547,90 " class="clusterblast-orf" style="stroke:black; fill:#1515d8; stroke-width:1; " locus_tag="GFH48_RS11640"  />
</g>
<g id="a1_007"  >
<polygon id="dummy-1_h1_1_7" description="&lt;b&gt;GFH48_RS11635&lt;/b&gt;&lt;br&gt;transcriptional repressor LexA&lt;br&gt;Location: 2745347 - 2744571&lt;br&gt;&lt;br&gt;&lt;b&gt;BlastP hit with cds72615_73401&lt;/b&gt;&lt;br&gt;Percentage identity: 96&lt;br&gt;Percentage coverage: 100&lt;br&gt;BLAST bit score: 487&lt;br&gt;E-value: 6.4e-136" points="677,85 682,80 720,80 720,90 682,90 677,85 " class="clusterblast-orf" style="stroke:black; fill:#d81597; stroke-width:1; " locus_tag="GFH48_RS11635"  />
</g>
<g id="a1_008"  >
<polygon id="dummy-1_h1_1_8" description="&lt;b&gt;GFH48_RS11630&lt;/b&gt;&lt;br&gt;transcriptional repressor NrdR&lt;br&gt;Location: 2744051 - 2743470&lt;br&gt;&lt;br&gt;&lt;b&gt;BlastP hit with cds73882_74428&lt;/b&gt;&lt;br&gt;Percentage identity: 86&lt;br&gt;Percentage coverage: 107&lt;br&gt;BLAST bit score: 307&lt;br&gt;E-value: 8.3e-82" points="748,90 775,90 780,85 775,80 748,80 748,90 " class="clusterblast-orf" style="stroke:black; fill:#97d815; stroke-width:1; " locus_tag="GFH48_RS11630"  />
</g>
</svg>
