<svg xmlns:xlink="http://www.w3.org/1999/xlink" height="230" y="0" viewBox="0 0 800 230" xmlns="http://www.w3.org/2000/svg" width="800" preserveAspectRatio="none" version="1.1" x="0"  >
<g label="Query sequence" class="clusterblast-cluster"  >
<text y="20" class="clusterblast-acc" x="5"  >
Query sequence</text>
<line x1="10" y1="35" y2="35" style="stroke:grey; stroke-width:1; " x2="778.0"  />
<polygon id="dummy-1_q0_0_all" description="&lt;b&gt;cds64331_65033&lt;/b&gt;&lt;br&gt;hypothetical protein&lt;br&gt;Location: 64331 - 65033" points="254,40 254,40 259,35 254,30 254,30 254,40 " class="clusterblast-orf" style="stroke:black; fill:white; stroke-width:1; " locus_tag="cds64331_65033"  />
<polygon id="dummy-1_q1_0_all" description="&lt;b&gt;cds65219_67439&lt;/b&gt;&lt;br&gt;Isocitrate dehydrogenase [NADP] (EC 1.1.1.42); Monomeric isocitrate dehydrogenase [NADP] (EC 1.1.1.42)&lt;br&gt;Location: 65219 - 67439" points="260,40 269,40 274,35 269,30 260,30 260,40 " class="clusterblast-orf" style="stroke:black; fill:white; stroke-width:1; " locus_tag="cds65219_67439"  />
<polygon id="dummy-1_q2_0_all" description="&lt;b&gt;cds67562_69524&lt;/b&gt;&lt;br&gt;Metallopeptidase&lt;br&gt;Location: 67562 - 69524" points="275,40 282,40 287,35 282,30 275,30 275,40 " class="clusterblast-orf" style="stroke:black; fill:white; stroke-width:1; " locus_tag="cds67562_69524"  />
<polygon id="dummy-1_q3_0_all" description="&lt;b&gt;cds69626_70592&lt;/b&gt;&lt;br&gt;Zinc-type alcohol dehydrogenase-like protein&lt;br&gt;Location: 69626 - 70592" points="288,35 293,30 294,30 294,40 293,40 288,35 " class="clusterblast-orf" style="stroke:black; fill:#d81515; stroke-width:1; " locus_tag="cds69626_70592"  />
<polygon id="dummy-1_q4_0_all" description="&lt;b&gt;cds70736_71579&lt;/b&gt;&lt;br&gt;hypothetical protein&lt;br&gt;Location: 70736 - 71579" points="295,40 295,40 300,35 295,30 295,30 295,40 " class="clusterblast-orf" style="stroke:black; fill:white; stroke-width:1; " locus_tag="cds70736_71579"  />
<polygon id="dummy-1_q5_0_all" description="&lt;b&gt;cds71731_72991&lt;/b&gt;&lt;br&gt;hypothetical protein&lt;br&gt;Location: 71731 - 72991" points="301,35 306,30 309,30 309,40 306,40 301,35 " class="clusterblast-orf" style="stroke:black; fill:white; stroke-width:1; " locus_tag="cds71731_72991"  />
<polygon id="dummy-1_q6_0_all" description="&lt;b&gt;cds73241_75293&lt;/b&gt;&lt;br&gt;Ribosome protection-type tetracycline resistance related proteins&lt;br&gt;Location: 73241 - 75293" points="311,35 316,30 324,30 324,40 316,40 311,35 " class="clusterblast-orf" style="stroke:black; fill:white; stroke-width:1; " locus_tag="cds73241_75293"  />
<polygon id="dummy-1_q7_0_all" description="&lt;b&gt;cds75459_76590&lt;/b&gt;&lt;br&gt;HoxN/HupN/NixA family nickel/cobalt transporter&lt;br&gt;Location: 75459 - 76590" points="325,35 330,30 332,30 332,40 330,40 325,35 " class="clusterblast-orf" style="stroke:black; fill:#4dd815; stroke-width:1; " locus_tag="cds75459_76590"  />
<polygon id="dummy-1_q8_0_all" description="&lt;b&gt;cds76853_77354&lt;/b&gt;&lt;br&gt;Inorganic pyrophosphatase (EC 3.6.1.1)&lt;br&gt;Location: 76853 - 77354" points="333,35 337,30 337,40 333,35 " class="clusterblast-orf" style="stroke:black; fill:white; stroke-width:1; " locus_tag="cds76853_77354"  />
<polygon id="dummy-1_q9_0_all" description="&lt;b&gt;cds77418_77916&lt;/b&gt;&lt;br&gt;Acetyltransferase&lt;br&gt;Location: 77418 - 77916" points="337,35 340,30 340,40 337,35 " class="clusterblast-orf" style="stroke:black; fill:white; stroke-width:1; " locus_tag="cds77418_77916"  />
<polygon id="dummy-1_q10_0_all" description="&lt;b&gt;cds77946_79107&lt;/b&gt;&lt;br&gt;Transcription termination factor Rho&lt;br&gt;Location: 77946 - 79107" points="340,35 345,30 348,30 348,40 345,40 340,35 " class="clusterblast-orf" style="stroke:black; fill:white; stroke-width:1; " locus_tag="cds77946_79107"  />
<polygon id="dummy-1_q11_0_all" description="&lt;b&gt;cds79444_80155&lt;/b&gt;&lt;br&gt;SAM-dependent methyltransferase&lt;br&gt;Location: 79444 - 80155" points="350,40 354,35 350,30 350,40 " class="clusterblast-orf" style="stroke:black; fill:white; stroke-width:1; " locus_tag="cds79444_80155"  />
<polygon id="dummy-1_q12_0_all" description="&lt;b&gt;cds80162_81482&lt;/b&gt;&lt;br&gt;hypothetical protein&lt;br&gt;Location: 80162 - 81482" points="354,35 359,30 363,30 363,40 359,40 354,35 " class="clusterblast-orf" style="stroke:black; fill:white; stroke-width:1; " locus_tag="cds80162_81482"  />
<polygon id="dummy-1_q13_0_all" description="&lt;b&gt;cds81491_82778&lt;/b&gt;&lt;br&gt;Crotonyl-CoA carboxylase/reductase, ethylmalonyl-CoA producing&lt;br&gt;Location: 81491 - 82778" points="363,35 368,30 371,30 371,40 368,40 363,35 " class="clusterblast-orf" style="stroke:black; fill:#1585d8; stroke-width:1; " locus_tag="cds81491_82778"  />
<polygon id="dummy-1_q14_0_all" description="&lt;b&gt;cds82810_83851&lt;/b&gt;&lt;br&gt;hypothetical protein&lt;br&gt;Location: 82810 - 83851" points="371,35 376,30 378,30 378,40 376,40 371,35 " class="clusterblast-orf" style="stroke:black; fill:#a115d8; stroke-width:1; " locus_tag="cds82810_83851"  />
<polygon id="dummy-1_q15_0_all" description="&lt;b&gt;cds83880_87930&lt;/b&gt;&lt;br&gt;Modular polyketide synthase&lt;br&gt;Location: 83880 - 87930" points="378,35 383,30 404,30 404,40 383,40 378,35 " class="clusterblast-orf" style="stroke:black; fill:#d81515; stroke-width:1; " locus_tag="cds83880_87930"  />
<polygon id="dummy-1_q16_0_all" description="&lt;b&gt;cds87926_89627&lt;/b&gt;&lt;br&gt;Polyketide synthase modules and related proteins&lt;br&gt;Location: 87926 - 89627" points="404,35 409,30 414,30 414,40 409,40 404,35 " class="clusterblast-orf" style="stroke:black; fill:#d81515; stroke-width:1; " locus_tag="cds87926_89627"  />
<polygon id="dummy-1_q17_0_all" description="&lt;b&gt;cds89895_91350&lt;/b&gt;&lt;br&gt;Uncharacterized MFS-type transporter&lt;br&gt;Location: 89895 - 91350" points="416,40 420,40 425,35 420,30 416,30 416,40 " class="clusterblast-orf" style="stroke:black; fill:#d86915; stroke-width:1; " locus_tag="cds89895_91350"  />
<polygon id="dummy-1_q18_0_all" description="&lt;b&gt;cds91744_92686&lt;/b&gt;&lt;br&gt;hypothetical protein&lt;br&gt;Location: 91744 - 92686" points="428,40 429,40 434,35 429,30 428,30 428,40 " class="clusterblast-orf" style="stroke:black; fill:white; stroke-width:1; " locus_tag="cds91744_92686"  />
<polygon id="dummy-1_q19_0_all" description="&lt;b&gt;cds92787_94011&lt;/b&gt;&lt;br&gt;Transcriptional regulator, CdaR-family&lt;br&gt;Location: 92787 - 94011" points="434,40 437,40 442,35 437,30 434,30 434,40 " class="clusterblast-orf" style="stroke:black; fill:#15d831; stroke-width:1; " locus_tag="cds92787_94011"  />
<polygon id="dummy-1_q20_0_all" description="&lt;b&gt;cds94122_94917&lt;/b&gt;&lt;br&gt;putative hydroxylase&lt;br&gt;Location: 94122 - 94917" points="443,40 443,40 448,35 443,30 443,30 443,40 " class="clusterblast-orf" style="stroke:black; fill:white; stroke-width:1; " locus_tag="cds94122_94917"  />
<polygon id="dummy-1_q21_0_all" description="&lt;b&gt;cds94920_95568&lt;/b&gt;&lt;br&gt;Peptide deformylase (EC 3.5.1.88)&lt;br&gt;Location: 94920 - 95568" points="448,35 452,30 452,40 448,35 " class="clusterblast-orf" style="stroke:black; fill:white; stroke-width:1; " locus_tag="cds94920_95568"  />
<polygon id="dummy-1_q22_0_all" description="&lt;b&gt;cds95709_96516&lt;/b&gt;&lt;br&gt;Acetyltransferase&lt;br&gt;Location: 95709 - 96516" points="453,40 453,40 458,35 453,30 453,30 453,40 " class="clusterblast-orf" style="stroke:black; fill:#1531d8; stroke-width:1; " locus_tag="cds95709_96516"  />
<polygon id="dummy-1_q23_0_all" description="&lt;b&gt;cds96525_96795&lt;/b&gt;&lt;br&gt;hypothetical protein&lt;br&gt;Location: 96525 - 96795" points="458,35 460,30 460,40 458,35 " class="clusterblast-orf" style="stroke:black; fill:white; stroke-width:1; " locus_tag="cds96525_96795"  />
<polygon id="dummy-1_q24_0_all" description="&lt;b&gt;cds96845_97304&lt;/b&gt;&lt;br&gt;Transcriptional regulator, MarR family&lt;br&gt;Location: 96845 - 97304" points="460,35 463,30 463,40 460,35 " class="clusterblast-orf" style="stroke:black; fill:white; stroke-width:1; " locus_tag="cds96845_97304"  />
<polygon id="dummy-1_q25_0_all" description="&lt;b&gt;cds97540_99556&lt;/b&gt;&lt;br&gt;2,4-dienoyl-CoA reductase [NADPH] (EC 1.3.1.34)&lt;br&gt;Location: 97540 - 99556" points="464,40 472,40 477,35 472,30 464,30 464,40 " class="clusterblast-orf" style="stroke:black; fill:#d815bc; stroke-width:1; " locus_tag="cds97540_99556"  />
<polygon id="dummy-1_q26_0_all" description="&lt;b&gt;cds99626_100154&lt;/b&gt;&lt;br&gt;Transcriptional regulator, PadR family&lt;br&gt;Location: 99626 - 100154" points="478,40 481,35 478,30 478,40 " class="clusterblast-orf" style="stroke:black; fill:#d8bc15; stroke-width:1; " locus_tag="cds99626_100154"  />
<polygon id="dummy-1_q27_0_all" description="&lt;b&gt;cds100157_101174&lt;/b&gt;&lt;br&gt;putative sugar hydrolase&lt;br&gt;Location: 100157 - 101174" points="481,35 486,30 487,30 487,40 486,40 481,35 " class="clusterblast-orf" style="stroke:black; fill:#15d885; stroke-width:1; " locus_tag="cds100157_101174"  />
<polygon id="dummy-1_q28_0_all" description="&lt;b&gt;cds101292_101715&lt;/b&gt;&lt;br&gt;Phosphoenolpyruvate-dihydroxyacetone phosphotransferase (EC 2.7.1.121), subunit DhaM; DHA-specific IIA component&lt;br&gt;Location: 101292 - 101715" points="488,35 491,30 491,40 488,35 " class="clusterblast-orf" style="stroke:black; fill:#4d15d8; stroke-width:1; " locus_tag="cds101292_101715"  />
<polygon id="dummy-1_q29_0_all" description="&lt;b&gt;cds101711_102326&lt;/b&gt;&lt;br&gt;Phosphoenolpyruvate-dihydroxyacetone phosphotransferase (EC 2.7.1.121), ADP-binding subunit DhaL&lt;br&gt;Location: 101711 - 102326" points="491,35 495,30 495,40 491,35 " class="clusterblast-orf" style="stroke:black; fill:#d81569; stroke-width:1; " locus_tag="cds101711_102326"  />
<polygon id="dummy-1_q30_0_all" description="&lt;b&gt;cds102379_103366&lt;/b&gt;&lt;br&gt;Phosphoenolpyruvate-dihydroxyacetone phosphotransferase (EC 2.7.1.121), dihydroxyacetone binding subunit DhaK&lt;br&gt;Location: 102379 - 103366" points="495,35 500,30 501,30 501,40 500,40 495,35 " class="clusterblast-orf" style="stroke:black; fill:#a1d815; stroke-width:1; " locus_tag="cds102379_103366"  />
<polygon id="dummy-1_q31_0_all" description="&lt;b&gt;cds103651_104866&lt;/b&gt;&lt;br&gt;hypothetical protein&lt;br&gt;Location: 103651 - 104866" points="503,40 506,40 511,35 506,30 503,30 503,40 " class="clusterblast-orf" style="stroke:black; fill:white; stroke-width:1; " locus_tag="cds103651_104866"  />
<polygon id="dummy-1_q32_0_all" description="&lt;b&gt;cds104862_106245&lt;/b&gt;&lt;br&gt;Glutamine synthetase (EC 6.3.1.2), putative&lt;br&gt;Location: 104862 - 106245" points="511,40 514,40 519,35 514,30 511,30 511,40 " class="clusterblast-orf" style="stroke:black; fill:#15d8d8; stroke-width:1; " locus_tag="cds104862_106245"  />
<polygon id="dummy-1_q33_0_all" description="&lt;b&gt;cds106268_107108&lt;/b&gt;&lt;br&gt;Glutamine amidotransferase, class-II&lt;br&gt;Location: 106268 - 107108" points="520,40 520,40 525,35 520,30 520,30 520,40 " class="clusterblast-orf" style="stroke:black; fill:white; stroke-width:1; " locus_tag="cds106268_107108"  />
</g>
<g label="NC_013929" description="NC_013929 (9288912-9413896): Streptomyces scabiei 87.22, complete genome (24% of genes show similarity), T1PKS,linaridin" class="clusterblast-cluster"  >
<text y="70" class="clusterblast-acc" x="5"  >
<a xlink:href="https://antismash-db.secondarymetabolites.org/area.html?record=NC_013929&amp;start=9288912&amp;end=9413896" target="_blank">NC_013929 (9288912-9413896)</a>: Streptomyces scabiei 87.22, complete genome (24% of genes show similarity), T1PKS,linaridin</text>
<line x1="10" y1="85" y2="85" style="stroke:grey; stroke-width:1; " x2="778.0"  />
</g>
<g id="a1_000"  >
<polygon id="dummy-1_h1_1_0" description="&lt;b&gt;SCAB_RS40025&lt;/b&gt;&lt;br&gt;hypothetical protein&lt;br&gt;Location: 9289902 - 9290486" points="0,85 3,80 3,90 0,85 " class="clusterblast-orf" style="stroke:black; fill:white; stroke-width:1; " locus_tag="SCAB_RS40025"  />
</g>
<g id="a1_001"  >
<polygon id="dummy-1_h1_1_1" description="&lt;b&gt;SCAB_RS40030&lt;/b&gt;&lt;br&gt;ferredoxin reductase&lt;br&gt;Location: 9290682 - 9291401" points="4,85 9,80 9,80 9,90 9,90 4,85 " class="clusterblast-orf" style="stroke:black; fill:white; stroke-width:1; " locus_tag="SCAB_RS40030"  />
</g>
<g id="a1_002"  >
<polygon id="dummy-1_h1_1_2" description="&lt;b&gt;SCAB_RS40035&lt;/b&gt;&lt;br&gt;sulfite oxidase-like oxidoreductase&lt;br&gt;Location: 9291475 - 9292080" points="9,85 13,80 13,90 9,85 " class="clusterblast-orf" style="stroke:black; fill:white; stroke-width:1; " locus_tag="SCAB_RS40035"  />
</g>
<g id="a1_003"  >
<polygon id="dummy-1_h1_1_3" description="&lt;b&gt;SCAB_RS40040&lt;/b&gt;&lt;br&gt;GNAT family N-acetyltransferase&lt;br&gt;Location: 9292273 - 9293013&lt;br&gt;&lt;br&gt;&lt;b&gt;BlastP hit with cds95709_96516&lt;/b&gt;&lt;br&gt;Percentage identity: 67&lt;br&gt;Percentage coverage: 85&lt;br&gt;BLAST bit score: 295&lt;br&gt;E-value: 3.7e-78" points="15,90 19,85 15,80 15,90 " class="clusterblast-orf" style="stroke:black; fill:#1531d8; stroke-width:1; " locus_tag="SCAB_RS40040"  />
</g>
<g id="a1_004"  >
<polygon id="dummy-1_h1_1_4" description="&lt;b&gt;SCAB_RS40045&lt;/b&gt;&lt;br&gt;putative protein N(5)-glutamine methyltransferase&lt;br&gt;Location: 9293230 - 9294006" points="21,90 25,85 21,80 21,90 " class="clusterblast-orf" style="stroke:black; fill:white; stroke-width:1; " locus_tag="SCAB_RS40045"  />
</g>
<g id="a1_005"  >
<polygon id="dummy-1_h1_1_5" description="&lt;b&gt;SCAB_RS40050&lt;/b&gt;&lt;br&gt;NADPH-dependent 2,4-dienoyl-CoA reductase&lt;br&gt;Location: 9294183 - 9296198&lt;br&gt;&lt;br&gt;&lt;b&gt;BlastP hit with cds97540_99556&lt;/b&gt;&lt;br&gt;Percentage identity: 80&lt;br&gt;Percentage coverage: 100&lt;br&gt;BLAST bit score: 1093&lt;br&gt;E-value: 0.0" points="27,90 34,90 39,85 34,80 27,80 27,90 " class="clusterblast-orf" style="stroke:black; fill:#d815bc; stroke-width:1; " locus_tag="SCAB_RS40050"  />
</g>
<g id="a1_006"  >
<polygon id="dummy-1_h1_1_6" description="&lt;b&gt;SCAB_RS40055&lt;/b&gt;&lt;br&gt;PadR family transcriptional regulator&lt;br&gt;Location: 9296257 - 9296835&lt;br&gt;&lt;br&gt;&lt;b&gt;BlastP hit with cds99626_100154&lt;/b&gt;&lt;br&gt;Percentage identity: 76&lt;br&gt;Percentage coverage: 100&lt;br&gt;BLAST bit score: 276&lt;br&gt;E-value: 1.5e-72" points="40,90 43,85 40,80 40,90 " class="clusterblast-orf" style="stroke:black; fill:#d8bc15; stroke-width:1; " locus_tag="SCAB_RS40055"  />
</g>
<g id="a1_007"  >
<polygon id="dummy-1_h1_1_7" description="&lt;b&gt;SCAB_RS40060&lt;/b&gt;&lt;br&gt;flavin reductase family protein&lt;br&gt;Location: 9297006 - 9297632" points="44,90 48,85 44,80 44,90 " class="clusterblast-orf" style="stroke:black; fill:white; stroke-width:1; " locus_tag="SCAB_RS40060"  />
</g>
<g id="a1_008"  >
<polygon id="dummy-1_h1_1_8" description="&lt;b&gt;SCAB_RS40065&lt;/b&gt;&lt;br&gt;hypothetical protein&lt;br&gt;Location: 9297806 - 9298357" points="50,85 53,80 53,90 50,85 " class="clusterblast-orf" style="stroke:black; fill:white; stroke-width:1; " locus_tag="SCAB_RS40065"  />
</g>
<g id="a1_009"  >
<polygon id="dummy-1_h1_1_9" description="&lt;b&gt;SCAB_RS40070&lt;/b&gt;&lt;br&gt;fibronectin type III domain-containing protein&lt;br&gt;Location: 9298543 - 9299502&lt;br&gt;&lt;br&gt;&lt;b&gt;BlastP hit with cds100157_101174&lt;/b&gt;&lt;br&gt;Percentage identity: 57&lt;br&gt;Percentage coverage: 91&lt;br&gt;BLAST bit score: 332&lt;br&gt;E-value: 3.4e-89" points="54,85 59,80 60,80 60,90 59,90 54,85 " class="clusterblast-orf" style="stroke:black; fill:#15d885; stroke-width:1; " locus_tag="SCAB_RS40070"  />
</g>
<g id="a1_0010"  >
<polygon id="dummy-1_h1_1_10" description="&lt;b&gt;SCAB_RS40075&lt;/b&gt;&lt;br&gt;glycoside hydrolase family 75 protein&lt;br&gt;Location: 9299932 - 9300660" points="63,90 63,90 68,85 63,80 63,80 63,90 " class="clusterblast-orf" style="stroke:black; fill:white; stroke-width:1; " locus_tag="SCAB_RS40075"  />
</g>
<g id="a1_0011"  >
<polygon id="dummy-1_h1_1_11" description="&lt;b&gt;SCAB_RS40080&lt;/b&gt;&lt;br&gt;PTS fructose transporter subunit IIA&lt;br&gt;Location: 9300751 - 9301161&lt;br&gt;&lt;br&gt;&lt;b&gt;BlastP hit with cds101292_101715&lt;/b&gt;&lt;br&gt;Percentage identity: 80&lt;br&gt;Percentage coverage: 94&lt;br&gt;BLAST bit score: 168&lt;br&gt;E-value: 6.1e-40" points="68,85 71,80 71,90 68,85 " class="clusterblast-orf" style="stroke:black; fill:#4d15d8; stroke-width:1; " locus_tag="SCAB_RS40080"  />
</g>
<g id="a1_0012"  >
<polygon id="dummy-1_h1_1_12" description="&lt;b&gt;SCAB_RS40085&lt;/b&gt;&lt;br&gt;dihydroxyacetone kinase subunit L&lt;br&gt;Location: 9301154 - 9301771&lt;br&gt;&lt;br&gt;&lt;b&gt;BlastP hit with cds101711_102326&lt;/b&gt;&lt;br&gt;Percentage identity: 84&lt;br&gt;Percentage coverage: 98&lt;br&gt;BLAST bit score: 309&lt;br&gt;E-value: 1.9e-82" points="71,85 75,80 75,90 71,85 " class="clusterblast-orf" style="stroke:black; fill:#d81569; stroke-width:1; " locus_tag="SCAB_RS40085"  />
</g>
<g id="a1_0013"  >
<polygon id="dummy-1_h1_1_13" description="&lt;b&gt;SCAB_RS40090&lt;/b&gt;&lt;br&gt;dihydroxyacetone kinase subunit DhaK&lt;br&gt;Location: 9301856 - 9302848&lt;br&gt;&lt;br&gt;&lt;b&gt;BlastP hit with cds102379_103366&lt;/b&gt;&lt;br&gt;Percentage identity: 91&lt;br&gt;Percentage coverage: 100&lt;br&gt;BLAST bit score: 590&lt;br&gt;E-value: 1.2e-166" points="75,85 80,80 81,80 81,90 80,90 75,85 " class="clusterblast-orf" style="stroke:black; fill:#a1d815; stroke-width:1; " locus_tag="SCAB_RS40090"  />
</g>
<g id="a1_0014"  >
<polygon id="dummy-1_h1_1_14" description="&lt;b&gt;SCAB_RS40100&lt;/b&gt;&lt;br&gt;LuxR family transcriptional regulator&lt;br&gt;Location: 9303982 - 9306753" points="89,85 94,80 106,80 106,90 94,90 89,85 " class="clusterblast-orf" style="stroke:black; fill:white; stroke-width:1; " locus_tag="SCAB_RS40100"  />
</g>
<g id="a1_0015"  >
<polygon id="dummy-1_h1_1_15" description="&lt;b&gt;SCAB_RS40105&lt;/b&gt;&lt;br&gt;malonyl transferase&lt;br&gt;Location: 9307652 - 9308614" points="112,85 117,80 118,80 118,90 117,90 112,85 " class="clusterblast-orf" style="stroke:black; fill:white; stroke-width:1; " locus_tag="SCAB_RS40105"  />
</g>
<g id="a1_0016"  >
<polygon id="dummy-1_h1_1_16" description="&lt;b&gt;SCAB_RS40110&lt;/b&gt;&lt;br&gt;type I polyketide synthase&lt;br&gt;Location: 9308913 - 9317447&lt;br&gt;&lt;br&gt;&lt;b&gt;BlastP hit with cds83880_87930&lt;/b&gt;&lt;br&gt;Percentage identity: 36&lt;br&gt;Percentage coverage: 80&lt;br&gt;BLAST bit score: 470&lt;br&gt;E-value: 5.5e-130" points="120,90 169,90 174,85 169,80 120,80 120,90 " class="clusterblast-orf" style="stroke:black; fill:#d81515; stroke-width:1; " locus_tag="SCAB_RS40110"  />
</g>
<g id="a1_0017"  >
<polygon id="dummy-1_h1_1_17" description="&lt;b&gt;SCAB_RS40115&lt;/b&gt;&lt;br&gt;type I polyketide synthase&lt;br&gt;Location: 9317471 - 9331954&lt;br&gt;&lt;br&gt;&lt;b&gt;BlastP hit with cds83880_87930&lt;/b&gt;&lt;br&gt;Percentage identity: 36&lt;br&gt;Percentage coverage: 87&lt;br&gt;BLAST bit score: 541&lt;br&gt;E-value: 2.5e-151" points="174,90 261,90 266,85 261,80 174,80 174,90 " class="clusterblast-orf" style="stroke:black; fill:#d81515; stroke-width:1; " locus_tag="SCAB_RS40115"  />
</g>
<g id="a1_0018"  >
<polygon id="dummy-1_h1_1_18" description="&lt;b&gt;SCAB_RS40120&lt;/b&gt;&lt;br&gt;type I polyketide synthase&lt;br&gt;Location: 9331969 - 9346881&lt;br&gt;&lt;br&gt;&lt;b&gt;BlastP hit with cds83880_87930&lt;/b&gt;&lt;br&gt;Percentage identity: 40&lt;br&gt;Percentage coverage: 73&lt;br&gt;BLAST bit score: 553&lt;br&gt;E-value: 4.9e-155" points="266,90 355,90 360,85 355,80 266,80 266,90 " class="clusterblast-orf" style="stroke:black; fill:#d81515; stroke-width:1; " locus_tag="SCAB_RS40120"  />
</g>
<g id="a1_0019"  >
<polygon id="dummy-1_h1_1_19" description="&lt;b&gt;SCAB_RS40125&lt;/b&gt;&lt;br&gt;type I polyketide synthase&lt;br&gt;Location: 9346963 - 9358722&lt;br&gt;&lt;br&gt;&lt;b&gt;BlastP hit with cds83880_87930&lt;/b&gt;&lt;br&gt;Percentage identity: 40&lt;br&gt;Percentage coverage: 70&lt;br&gt;BLAST bit score: 543&lt;br&gt;E-value: 5.1e-152" points="361,90 430,90 435,85 430,80 361,80 361,90 " class="clusterblast-orf" style="stroke:black; fill:#d81515; stroke-width:1; " locus_tag="SCAB_RS40125"  />
</g>
<g id="a1_0020"  >
<polygon id="dummy-1_h1_1_20" description="&lt;b&gt;SCAB_RS40130&lt;/b&gt;&lt;br&gt;type I polyketide synthase&lt;br&gt;Location: 9358773 - 9373778&lt;br&gt;&lt;br&gt;&lt;b&gt;BlastP hit with cds83880_87930&lt;/b&gt;&lt;br&gt;Percentage identity: 41&lt;br&gt;Percentage coverage: 72&lt;br&gt;BLAST bit score: 543&lt;br&gt;E-value: 6.7e-152" points="435,90 525,90 530,85 525,80 435,80 435,90 " class="clusterblast-orf" style="stroke:black; fill:#d81515; stroke-width:1; " locus_tag="SCAB_RS40130"  />
</g>
<g id="a1_0021"  >
<polygon id="dummy-1_h1_1_21" description="&lt;b&gt;SCAB_RS40135&lt;/b&gt;&lt;br&gt;type I polyketide synthase&lt;br&gt;Location: 9373816 - 9379965&lt;br&gt;&lt;br&gt;&lt;b&gt;BlastP hit with cds83880_87930&lt;/b&gt;&lt;br&gt;Percentage identity: 38&lt;br&gt;Percentage coverage: 77&lt;br&gt;BLAST bit score: 529&lt;br&gt;E-value: 1.3e-147" points="530,90 564,90 569,85 564,80 530,80 530,90 " class="clusterblast-orf" style="stroke:black; fill:#d81515; stroke-width:1; " locus_tag="SCAB_RS40135"  />
</g>
<g id="a1_0022"  >
<polygon id="dummy-1_h1_1_22" description="&lt;b&gt;SCAB_RS40140&lt;/b&gt;&lt;br&gt;3-hydroxyacyl-CoA dehydrogenase family protein&lt;br&gt;Location: 9380013 - 9380885" points="570,90 570,90 575,85 570,80 570,80 570,90 " class="clusterblast-orf" style="stroke:black; fill:white; stroke-width:1; " locus_tag="SCAB_RS40140"  />
</g>
<g id="a1_0023"  >
<polygon id="dummy-1_h1_1_23" description="&lt;b&gt;SCAB_RS40145&lt;/b&gt;&lt;br&gt;acyl carrier protein&lt;br&gt;Location: 9380891 - 9381160" points="575,90 577,85 575,80 575,90 " class="clusterblast-orf" style="stroke:black; fill:white; stroke-width:1; " locus_tag="SCAB_RS40145"  />
</g>
<g id="a1_0024"  >
<polygon id="dummy-1_h1_1_24" description="&lt;b&gt;SCAB_RS40150&lt;/b&gt;&lt;br&gt;acyl-CoA dehydrogenase family protein&lt;br&gt;Location: 9381153 - 9382268" points="577,90 579,90 584,85 579,80 577,80 577,90 " class="clusterblast-orf" style="stroke:black; fill:white; stroke-width:1; " locus_tag="SCAB_RS40150"  />
</g>
<g id="a1_0025"  >
<polygon id="dummy-1_h1_1_25" description="&lt;b&gt;SCAB_RS40155&lt;/b&gt;&lt;br&gt;HAD-IIIC family phosphatase&lt;br&gt;Location: 9382265 - 9383422" points="584,90 586,90 591,85 586,80 584,80 584,90 " class="clusterblast-orf" style="stroke:black; fill:white; stroke-width:1; " locus_tag="SCAB_RS40155"  />
</g>
<g id="a1_0026"  >
<polygon id="dummy-1_h1_1_26" description="&lt;b&gt;SCAB_RS40160&lt;/b&gt;&lt;br&gt;glycosyltransferase family 1 protein&lt;br&gt;Location: 9383804 - 9385057" points="594,90 597,90 602,85 597,80 594,80 594,90 " class="clusterblast-orf" style="stroke:black; fill:white; stroke-width:1; " locus_tag="SCAB_RS40160"  />
</g>
<g id="a1_0027"  >
<polygon id="dummy-1_h1_1_27" description="&lt;b&gt;SCAB_RS40165&lt;/b&gt;&lt;br&gt;NDP-hexose 2,3-dehydratase family protein&lt;br&gt;Location: 9385413 - 9386915" points="604,90 608,90 613,85 608,80 604,80 604,90 " class="clusterblast-orf" style="stroke:black; fill:white; stroke-width:1; " locus_tag="SCAB_RS40165"  />
</g>
<g id="a1_0028"  >
<polygon id="dummy-1_h1_1_28" description="&lt;b&gt;SCAB_RS40170&lt;/b&gt;&lt;br&gt;Gfo/Idh/MocA family oxidoreductase&lt;br&gt;Location: 9386915 - 9387964" points="613,90 615,90 620,85 615,80 613,80 613,90 " class="clusterblast-orf" style="stroke:black; fill:white; stroke-width:1; " locus_tag="SCAB_RS40170"  />
</g>
<g id="a1_0029"  >
<polygon id="dummy-1_h1_1_29" description="&lt;b&gt;SCAB_RS40175&lt;/b&gt;&lt;br&gt;NAD(P)-dependent oxidoreductase&lt;br&gt;Location: 9387964 - 9388707" points="620,90 620,90 625,85 620,80 620,80 620,90 " class="clusterblast-orf" style="stroke:black; fill:white; stroke-width:1; " locus_tag="SCAB_RS40175"  />
</g>
<g id="a1_0030"  >
<polygon id="dummy-1_h1_1_30" description="&lt;b&gt;SCAB_RS40180&lt;/b&gt;&lt;br&gt;carbamoyltransferase&lt;br&gt;Location: 9388919 - 9390931" points="626,90 634,90 639,85 634,80 626,80 626,90 " class="clusterblast-orf" style="stroke:black; fill:white; stroke-width:1; " locus_tag="SCAB_RS40180"  />
</g>
<g id="a1_0031"  >
<polygon id="dummy-1_h1_1_31" description="&lt;b&gt;SCAB_RS40185&lt;/b&gt;&lt;br&gt;glucose-1-phosphate thymidylyltransferase RfbA&lt;br&gt;Location: 9391119 - 9392027" points="640,90 641,90 646,85 641,80 640,80 640,90 " class="clusterblast-orf" style="stroke:black; fill:white; stroke-width:1; " locus_tag="SCAB_RS40185"  />
</g>
<g id="a1_0032"  >
<polygon id="dummy-1_h1_1_32" description="&lt;b&gt;SCAB_RS40190&lt;/b&gt;&lt;br&gt;dTDP-glucose 4,6-dehydratase&lt;br&gt;Location: 9392024 - 9393004" points="646,90 647,90 652,85 647,80 646,80 646,90 " class="clusterblast-orf" style="stroke:black; fill:white; stroke-width:1; " locus_tag="SCAB_RS40190"  />
</g>
<g id="a1_0033"  >
<polygon id="dummy-1_h1_1_33" description="&lt;b&gt;SCAB_RS40195&lt;/b&gt;&lt;br&gt;class I SAM-dependent methyltransferase&lt;br&gt;Location: 9393121 - 9393789" points="653,85 657,80 657,90 653,85 " class="clusterblast-orf" style="stroke:black; fill:white; stroke-width:1; " locus_tag="SCAB_RS40195"  />
</g>
<g id="a1_0034"  >
<polygon id="dummy-1_h1_1_34" description="&lt;b&gt;SCAB_RS40200&lt;/b&gt;&lt;br&gt;hypothetical protein&lt;br&gt;Location: 9393906 - 9394220" points="658,85 660,80 660,90 658,85 " class="clusterblast-orf" style="stroke:black; fill:white; stroke-width:1; " locus_tag="SCAB_RS40200"  />
</g>
<g id="a1_0035"  >
<polygon id="dummy-1_h1_1_35" description="&lt;b&gt;SCAB_RS40205&lt;/b&gt;&lt;br&gt;thioesterase&lt;br&gt;Location: 9394242 - 9395027" points="660,85 665,80 665,80 665,90 665,90 660,85 " class="clusterblast-orf" style="stroke:black; fill:white; stroke-width:1; " locus_tag="SCAB_RS40205"  />
</g>
<g id="a1_0036"  >
<polygon id="dummy-1_h1_1_36" description="&lt;b&gt;SCAB_RS40210&lt;/b&gt;&lt;br&gt;metallophosphoesterase&lt;br&gt;Location: 9395231 - 9396052" points="666,90 666,90 671,85 666,80 666,80 666,90 " class="clusterblast-orf" style="stroke:black; fill:white; stroke-width:1; " locus_tag="SCAB_RS40210"  />
</g>
<g id="a1_0037"  >
<polygon id="dummy-1_h1_1_37" description="&lt;b&gt;SCAB_RS40215&lt;/b&gt;&lt;br&gt;4'-phosphopantetheinyl transferase superfamily protein&lt;br&gt;Location: 9396049 - 9396729" points="671,90 675,85 671,80 671,90 " class="clusterblast-orf" style="stroke:black; fill:white; stroke-width:1; " locus_tag="SCAB_RS40215"  />
</g>
<g id="a1_0038"  >
<polygon id="dummy-1_h1_1_38" description="&lt;b&gt;SCAB_RS40220&lt;/b&gt;&lt;br&gt;AfsR/SARP family transcriptional regulator&lt;br&gt;Location: 9396845 - 9398950" points="676,90 684,90 689,85 684,80 676,80 676,90 " class="clusterblast-orf" style="stroke:black; fill:white; stroke-width:1; " locus_tag="SCAB_RS40220"  />
</g>
<g id="a1_0039"  >
<polygon id="dummy-1_h1_1_39" description="&lt;b&gt;SCAB_RS40225&lt;/b&gt;&lt;br&gt;hypothetical protein&lt;br&gt;Location: 9399267 - 9399617" points="691,85 694,80 694,90 691,85 " class="clusterblast-orf" style="stroke:black; fill:white; stroke-width:1; " locus_tag="SCAB_RS40225"  />
</g>
<g id="a1_0040"  >
<polygon id="dummy-1_h1_1_40" description="&lt;b&gt;SCAB_RS40230&lt;/b&gt;&lt;br&gt;GNAT family N-acetyltransferase&lt;br&gt;Location: 9399701 - 9400096" points="694,90 697,85 694,80 694,90 " class="clusterblast-orf" style="stroke:black; fill:white; stroke-width:1; " locus_tag="SCAB_RS40230"  />
</g>
<g id="a1_0041"  >
<polygon id="dummy-1_h1_1_41" description="&lt;b&gt;SCAB_RS40235&lt;/b&gt;&lt;br&gt;class I SAM-dependent methyltransferase&lt;br&gt;Location: 9400142 - 9400948" points="697,85 702,80 702,80 702,90 702,90 697,85 " class="clusterblast-orf" style="stroke:black; fill:white; stroke-width:1; " locus_tag="SCAB_RS40235"  />
</g>
<g id="a1_0042"  >
<polygon id="dummy-1_h1_1_42" description="&lt;b&gt;SCAB_RS40240&lt;/b&gt;&lt;br&gt;hypothetical protein&lt;br&gt;Location: 9400945 - 9401136" points="702,85 703,80 703,90 702,85 " class="clusterblast-orf" style="stroke:black; fill:white; stroke-width:1; " locus_tag="SCAB_RS40240"  />
</g>
<g id="a1_0043"  >
<polygon id="dummy-1_h1_1_43" description="&lt;b&gt;SCAB_RS40245&lt;/b&gt;&lt;br&gt;ABC transporter ATP-binding protein&lt;br&gt;Location: 9401216 - 9403108" points="704,85 709,80 716,80 716,90 709,90 704,85 " class="clusterblast-orf" style="stroke:black; fill:white; stroke-width:1; " locus_tag="SCAB_RS40245"  />
</g>
<g id="a1_0044"  >
<polygon id="dummy-1_h1_1_44" description="&lt;b&gt;SCAB_RS40250&lt;/b&gt;&lt;br&gt;hypothetical protein&lt;br&gt;Location: 9403276 - 9403896" points="717,85 721,80 721,90 717,85 " class="clusterblast-orf" style="stroke:black; fill:white; stroke-width:1; " locus_tag="SCAB_RS40250"  />
</g>
<g id="a1_0045"  >
<polygon id="dummy-1_h1_1_45" description="&lt;b&gt;SCAB_RS40255&lt;/b&gt;&lt;br&gt;alpha/beta fold hydrolase&lt;br&gt;Location: 9403893 - 9405812" points="721,85 726,80 733,80 733,90 726,90 721,85 " class="clusterblast-orf" style="stroke:black; fill:white; stroke-width:1; " locus_tag="SCAB_RS40255"  />
</g>
<g id="a1_0046"  >
<polygon id="dummy-1_h1_1_46" description="&lt;b&gt;SCAB_RS47485&lt;/b&gt;&lt;br&gt;hypothetical protein&lt;br&gt;Location: 9405954 - 9406220" points="734,85 735,80 735,90 734,85 " class="clusterblast-orf" style="stroke:black; fill:white; stroke-width:1; " locus_tag="SCAB_RS47485"  />
</g>
<g id="a1_0047"  >
<polygon id="dummy-1_h1_1_47" description="&lt;b&gt;SCAB_RS40265&lt;/b&gt;&lt;br&gt;NAD(P)/FAD-dependent oxidoreductase&lt;br&gt;Location: 9406400 - 9407830" points="737,85 742,80 746,80 746,90 742,90 737,85 " class="clusterblast-orf" style="stroke:black; fill:white; stroke-width:1; " locus_tag="SCAB_RS40265"  />
</g>
<g id="a1_0048"  >
<polygon id="dummy-1_h1_1_48" description="&lt;b&gt;SCAB_RS40270&lt;/b&gt;&lt;br&gt;two-component sensor histidine kinase&lt;br&gt;Location: 9408136 - 9409395" points="748,85 753,80 756,80 756,90 753,90 748,85 " class="clusterblast-orf" style="stroke:black; fill:white; stroke-width:1; " locus_tag="SCAB_RS40270"  />
</g>
<g id="a1_0049"  >
<polygon id="dummy-1_h1_1_49" description="&lt;b&gt;SCAB_RS40275&lt;/b&gt;&lt;br&gt;response regulator transcription factor&lt;br&gt;Location: 9409567 - 9410214" points="757,85 761,80 761,90 757,85 " class="clusterblast-orf" style="stroke:black; fill:white; stroke-width:1; " locus_tag="SCAB_RS40275"  />
</g>
<g id="a1_0050"  >
<polygon id="dummy-1_h1_1_50" description="&lt;b&gt;SCAB_RS40280&lt;/b&gt;&lt;br&gt;helix-turn-helix transcriptional regulator&lt;br&gt;Location: 9410502 - 9410801" points="763,90 764,85 763,80 763,90 " class="clusterblast-orf" style="stroke:black; fill:white; stroke-width:1; " locus_tag="SCAB_RS40280"  />
</g>
<g id="a1_0051"  >
<polygon id="dummy-1_h1_1_51" description="&lt;b&gt;SCAB_RS40285&lt;/b&gt;&lt;br&gt;phytase&lt;br&gt;Location: 9411085 - 9412413" points="766,90 770,90 775,85 770,80 766,80 766,90 " class="clusterblast-orf" style="stroke:black; fill:white; stroke-width:1; " locus_tag="SCAB_RS40285"  />
</g>
<g id="a1_0052"  >
<polygon id="dummy-1_h1_1_52" description="&lt;b&gt;SCAB_RS40290&lt;/b&gt;&lt;br&gt;FadR family transcriptional regulator&lt;br&gt;Location: 9412477 - 9413178" points="775,85 780,80 780,80 780,90 780,90 775,85 " class="clusterblast-orf" style="stroke:black; fill:white; stroke-width:1; " locus_tag="SCAB_RS40290"  />
</g>
</svg>
