<svg xmlns:xlink="http://www.w3.org/1999/xlink" height="230" y="0" viewBox="0 0 800 230" xmlns="http://www.w3.org/2000/svg" width="800" preserveAspectRatio="none" version="1.1" x="0"  >
<g label="Query sequence" class="clusterblast-cluster"  >
<text y="20" class="clusterblast-acc" x="5"  >
Query sequence</text>
<line x1="10" y1="35" y2="35" style="stroke:grey; stroke-width:1; " x2="778.0"  />
<polygon id="dummy-1_q0_0_all" description="&lt;b&gt;cds2_2108&lt;/b&gt;&lt;br&gt;Polyketide synthase modules and related proteins&lt;br&gt;Location: 2 - 2108" points="223,40 241,40 246,35 241,30 223,30 223,40 " class="clusterblast-orf" style="stroke:black; fill:#d81515; stroke-width:1; " locus_tag="cds2_2108"  />
<polygon id="dummy-1_q1_0_all" description="&lt;b&gt;cds2253_11337&lt;/b&gt;&lt;br&gt;Polyketide synthase modules and related proteins&lt;br&gt;Location: 2253 - 11337" points="248,40 340,40 345,35 340,30 248,30 248,40 " class="clusterblast-orf" style="stroke:black; fill:#15d815; stroke-width:1; " locus_tag="cds2253_11337"  />
<polygon id="dummy-1_q2_0_all" description="&lt;b&gt;cds11349_13776&lt;/b&gt;&lt;br&gt;Polyketide synthase&lt;br&gt;Location: 11349 - 13776" points="346,40 367,40 372,35 367,30 346,30 346,40 " class="clusterblast-orf" style="stroke:black; fill:#d81515; stroke-width:1; " locus_tag="cds11349_13776"  />
<polygon id="dummy-1_q3_0_all" description="&lt;b&gt;cds13772_14597&lt;/b&gt;&lt;br&gt;hypothetical protein&lt;br&gt;Location: 13772 - 14597" points="372,40 376,40 381,35 376,30 372,30 372,40 " class="clusterblast-orf" style="stroke:black; fill:#1515d8; stroke-width:1; " locus_tag="cds13772_14597"  />
<polygon id="dummy-1_q4_0_all" description="&lt;b&gt;cds14617_15145&lt;/b&gt;&lt;br&gt;hypothetical protein&lt;br&gt;Location: 14617 - 15145" points="381,40 381,40 386,35 381,30 381,30 381,40 " class="clusterblast-orf" style="stroke:black; fill:#d815d8; stroke-width:1; " locus_tag="cds14617_15145"  />
<polygon id="dummy-1_q5_0_all" description="&lt;b&gt;cds15302_16553&lt;/b&gt;&lt;br&gt;putative non-ribosomal peptide synthetase&lt;br&gt;Location: 15302 - 16553" points="388,40 397,40 402,35 397,30 388,30 388,40 " class="clusterblast-orf" style="stroke:black; fill:white; stroke-width:1; " locus_tag="cds15302_16553"  />
<polygon id="dummy-1_q6_0_all" description="&lt;b&gt;cds16579_16693&lt;/b&gt;&lt;br&gt;hypothetical protein&lt;br&gt;Location: 16579 - 16693" points="402,40 403,35 402,30 402,40 " class="clusterblast-orf" style="stroke:black; fill:white; stroke-width:1; " locus_tag="cds16579_16693"  />
<polygon id="dummy-1_q7_0_all" description="&lt;b&gt;cds16748_18206&lt;/b&gt;&lt;br&gt;hypothetical protein&lt;br&gt;Location: 16748 - 18206" points="404,35 409,30 419,30 419,40 409,40 404,35 " class="clusterblast-orf" style="stroke:black; fill:white; stroke-width:1; " locus_tag="cds16748_18206"  />
<polygon id="dummy-1_q8_0_all" description="&lt;b&gt;cds18314_19517&lt;/b&gt;&lt;br&gt;hypothetical protein&lt;br&gt;Location: 18314 - 19517" points="421,35 426,30 433,30 433,40 426,40 421,35 " class="clusterblast-orf" style="stroke:black; fill:white; stroke-width:1; " locus_tag="cds18314_19517"  />
<polygon id="dummy-1_q9_0_all" description="&lt;b&gt;cds19594_20224&lt;/b&gt;&lt;br&gt;Transcriptional regulator, TetR family&lt;br&gt;Location: 19594 - 20224" points="434,40 436,40 441,35 436,30 434,30 434,40 " class="clusterblast-orf" style="stroke:black; fill:white; stroke-width:1; " locus_tag="cds19594_20224"  />
<polygon id="dummy-1_q10_0_all" description="&lt;b&gt;cds20281_22525&lt;/b&gt;&lt;br&gt;Integral membrane protein&lt;br&gt;Location: 20281 - 22525" points="442,40 461,40 466,35 461,30 442,30 442,40 " class="clusterblast-orf" style="stroke:black; fill:white; stroke-width:1; " locus_tag="cds20281_22525"  />
<polygon id="dummy-1_q11_0_all" description="&lt;b&gt;cds22584_23295&lt;/b&gt;&lt;br&gt;hypothetical protein&lt;br&gt;Location: 22584 - 23295" points="467,35 472,30 474,30 474,40 472,40 467,35 " class="clusterblast-orf" style="stroke:black; fill:white; stroke-width:1; " locus_tag="cds22584_23295"  />
<polygon id="dummy-1_q12_0_all" description="&lt;b&gt;cds23439_24168&lt;/b&gt;&lt;br&gt;hypothetical protein&lt;br&gt;Location: 23439 - 24168" points="476,35 481,30 484,30 484,40 481,40 476,35 " class="clusterblast-orf" style="stroke:black; fill:white; stroke-width:1; " locus_tag="cds23439_24168"  />
<polygon id="dummy-1_q13_0_all" description="&lt;b&gt;cds24334_26824&lt;/b&gt;&lt;br&gt;hypothetical protein&lt;br&gt;Location: 24334 - 26824" points="485,40 507,40 512,35 507,30 485,30 485,40 " class="clusterblast-orf" style="stroke:black; fill:#d8d815; stroke-width:1; " locus_tag="cds24334_26824"  />
<polygon id="dummy-1_q14_0_all" description="&lt;b&gt;cds26820_29322&lt;/b&gt;&lt;br&gt;hypothetical protein&lt;br&gt;Location: 26820 - 29322" points="512,40 534,40 539,35 534,30 512,30 512,40 " class="clusterblast-orf" style="stroke:black; fill:#15d8d8; stroke-width:1; " locus_tag="cds26820_29322"  />
<polygon id="dummy-1_q15_0_all" description="&lt;b&gt;cds29318_29633&lt;/b&gt;&lt;br&gt;Acyl carrier protein&lt;br&gt;Location: 29318 - 29633" points="539,40 542,35 539,30 539,40 " class="clusterblast-orf" style="stroke:black; fill:white; stroke-width:1; " locus_tag="cds29318_29633"  />
<polygon id="dummy-1_q16_0_all" description="&lt;b&gt;cds29629_30883&lt;/b&gt;&lt;br&gt;3-oxoacyl-[acyl-carrier-protein] synthase, KASII (EC 2.3.1.179)&lt;br&gt;Location: 29629 - 30883" points="542,40 551,40 556,35 551,30 542,30 542,40 " class="clusterblast-orf" style="stroke:black; fill:white; stroke-width:1; " locus_tag="cds29629_30883"  />
</g>
<g label="BGC0000990" description="BGC0000990_c1: epothilone (16% of genes show similarity), NRP + Polyketide" class="clusterblast-cluster"  >
<text y="70" class="clusterblast-acc" x="5"  >
<a xlink:href="https://mibig.secondarymetabolites.org/go/BGC0000990/1" target="_blank">BGC0000990</a>:                                                                       epothilone (16% of genes show similarity), NRP + Polyketide</text>
<line x1="10" y1="85" y2="85" style="stroke:grey; stroke-width:1; " x2="778.0"  />
</g>
<g id="a1_000"  >
<polygon id="dummy-1_h1_3_0" description="&lt;b&gt;ADB12488.1&lt;/b&gt;&lt;br&gt;EpoA&lt;br&gt;Location: 437 - 4702&lt;br&gt;&lt;br&gt;&lt;b&gt;BlastP hit with cds11349_13776&lt;/b&gt;&lt;br&gt;Percentage identity: 48&lt;br&gt;Percentage coverage: 66&lt;br&gt;BLAST bit score: 429&lt;br&gt;E-value: 1.1e-119" points="0,90 40,90 45,85 40,80 0,80 0,90 " class="clusterblast-orf" style="stroke:black; fill:#d81515; stroke-width:1; " locus_tag="ADB12488.1"  />
</g>
<g id="a1_001"  >
<polygon id="dummy-1_h1_3_1" description="&lt;b&gt;ADB12489.1&lt;/b&gt;&lt;br&gt;EpoB&lt;br&gt;Location: 4699 - 8931" points="45,90 86,90 91,85 86,80 45,80 45,90 " class="clusterblast-orf" style="stroke:black; fill:white; stroke-width:1; " locus_tag="ADB12489.1"  />
</g>
<g id="a1_002"  >
<polygon id="dummy-1_h1_3_2" description="&lt;b&gt;ADB12490.1&lt;/b&gt;&lt;br&gt;EpoC&lt;br&gt;Location: 9078 - 14576&lt;br&gt;&lt;br&gt;&lt;b&gt;BlastP hit with cds2_2108&lt;/b&gt;&lt;br&gt;Percentage identity: 48&lt;br&gt;Percentage coverage: 51&lt;br&gt;BLAST bit score: 289&lt;br&gt;E-value: 1.2e-77" points="93,90 147,90 152,85 147,80 93,80 93,90 " class="clusterblast-orf" style="stroke:black; fill:#d81515; stroke-width:1; " locus_tag="ADB12490.1"  />
</g>
<g id="a1_003"  >
<polygon id="dummy-1_h1_3_3" description="&lt;b&gt;ADB12491.1&lt;/b&gt;&lt;br&gt;EpoD&lt;br&gt;Location: 14573 - 36346&lt;br&gt;&lt;br&gt;&lt;b&gt;BlastP hit with cds11349_13776&lt;/b&gt;&lt;br&gt;Percentage identity: 47&lt;br&gt;Percentage coverage: 70&lt;br&gt;BLAST bit score: 442&lt;br&gt;E-value: 1.2e-123" points="152,90 381,90 386,85 381,80 152,80 152,90 " class="clusterblast-orf" style="stroke:black; fill:#d81515; stroke-width:1; " locus_tag="ADB12491.1"  />
</g>
<g id="a1_004"  >
<polygon id="dummy-1_h1_3_4" description="&lt;b&gt;ADB12492.1&lt;/b&gt;&lt;br&gt;EpoE&lt;br&gt;Location: 36351 - 47747&lt;br&gt;&lt;br&gt;&lt;b&gt;BlastP hit with cds11349_13776&lt;/b&gt;&lt;br&gt;Percentage identity: 46&lt;br&gt;Percentage coverage: 70&lt;br&gt;BLAST bit score: 426&lt;br&gt;E-value: 7.1e-119" points="386,90 504,90 509,85 504,80 386,80 386,90 " class="clusterblast-orf" style="stroke:black; fill:#d81515; stroke-width:1; " locus_tag="ADB12492.1"  />
</g>
<g id="a1_005"  >
<polygon id="dummy-1_h1_3_5" description="&lt;b&gt;ADB12493.1&lt;/b&gt;&lt;br&gt;EpoF&lt;br&gt;Location: 47762 - 55081" points="509,90 583,90 588,85 583,80 509,80 509,90 " class="clusterblast-orf" style="stroke:black; fill:white; stroke-width:1; " locus_tag="ADB12493.1"  />
</g>
<g id="a1_006"  >
<polygon id="dummy-1_h1_3_6" description="&lt;b&gt;ADB12494.1&lt;/b&gt;&lt;br&gt;EpoK&lt;br&gt;Location: 55196 - 56455" points="589,90 598,90 603,85 598,80 589,80 589,90 " class="clusterblast-orf" style="stroke:black; fill:white; stroke-width:1; " locus_tag="ADB12494.1"  />
</g>
<g id="a1_007"  >
<polygon id="dummy-1_h1_3_7" description="&lt;b&gt;ADB12495.1&lt;/b&gt;&lt;br&gt;hypothetical protein&lt;br&gt;Location: 56633 - 57172" points="605,90 606,90 611,85 606,80 605,80 605,90 " class="clusterblast-orf" style="stroke:black; fill:white; stroke-width:1; " locus_tag="ADB12495.1"  />
</g>
<g id="a1_008"  >
<polygon id="dummy-1_h1_3_8" description="&lt;b&gt;ADB12496.1&lt;/b&gt;&lt;br&gt;hypothetical protein&lt;br&gt;Location: 57202 - 57759" points="611,90 612,90 617,85 612,80 611,80 611,90 " class="clusterblast-orf" style="stroke:black; fill:white; stroke-width:1; " locus_tag="ADB12496.1"  />
</g>
<g id="a1_009"  >
<polygon id="dummy-1_h1_3_9" description="&lt;b&gt;ADB12497.1&lt;/b&gt;&lt;br&gt;hypothetical protein&lt;br&gt;Location: 57847 - 58701" points="618,85 623,80 627,80 627,90 623,90 618,85 " class="clusterblast-orf" style="stroke:black; fill:white; stroke-width:1; " locus_tag="ADB12497.1"  />
</g>
<g id="a1_0010"  >
<polygon id="dummy-1_h1_3_10" description="&lt;b&gt;ADB12498.1&lt;/b&gt;&lt;br&gt;hypothetical protein&lt;br&gt;Location: 58713 - 59180" points="627,85 632,80 632,80 632,90 632,90 627,85 " class="clusterblast-orf" style="stroke:black; fill:white; stroke-width:1; " locus_tag="ADB12498.1"  />
</g>
<g id="a1_0011"  >
<polygon id="dummy-1_h1_3_11" description="&lt;b&gt;ADB12499.1&lt;/b&gt;&lt;br&gt;hypothetical protein&lt;br&gt;Location: 59531 - 59980" points="636,90 636,90 641,85 636,80 636,80 636,90 " class="clusterblast-orf" style="stroke:black; fill:white; stroke-width:1; " locus_tag="ADB12499.1"  />
</g>
<g id="a1_0012"  >
<polygon id="dummy-1_h1_3_12" description="&lt;b&gt;ADB12500.1&lt;/b&gt;&lt;br&gt;cation efflux protein&lt;br&gt;Location: 60188 - 61105" points="643,90 648,90 653,85 648,80 643,80 643,90 " class="clusterblast-orf" style="stroke:black; fill:white; stroke-width:1; " locus_tag="ADB12500.1"  />
</g>
<g id="a1_0013"  >
<polygon id="dummy-1_h1_3_13" description="&lt;b&gt;ADB12501.1&lt;/b&gt;&lt;br&gt;type I restriction-modification system endonuclease&lt;br&gt;Location: 61505 - 61903" points="657,90 657,90 662,85 657,80 657,80 657,90 " class="clusterblast-orf" style="stroke:black; fill:white; stroke-width:1; " locus_tag="ADB12501.1"  />
</g>
<g id="a1_0014"  >
<polygon id="dummy-1_h1_3_14" description="&lt;b&gt;ADB12502.1&lt;/b&gt;&lt;br&gt;hypothetical protein&lt;br&gt;Location: 62141 - 62791" points="664,90 666,90 671,85 666,80 664,80 664,90 " class="clusterblast-orf" style="stroke:black; fill:white; stroke-width:1; " locus_tag="ADB12502.1"  />
</g>
<g id="a1_0015"  >
<polygon id="dummy-1_h1_3_15" description="&lt;b&gt;ADB12503.1&lt;/b&gt;&lt;br&gt;putative iron-sulfur binding oxidoreductase&lt;br&gt;Location: 62812 - 65931" points="671,90 700,90 705,85 700,80 671,80 671,90 " class="clusterblast-orf" style="stroke:black; fill:white; stroke-width:1; " locus_tag="ADB12503.1"  />
</g>
<g id="a1_0016"  >
<polygon id="dummy-1_h1_3_16" description="&lt;b&gt;ADB12504.1&lt;/b&gt;&lt;br&gt;NrfD family oxidoreductase&lt;br&gt;Location: 65935 - 67296" points="705,90 715,90 720,85 715,80 705,80 705,90 " class="clusterblast-orf" style="stroke:black; fill:white; stroke-width:1; " locus_tag="ADB12504.1"  />
</g>
<g id="a1_0017"  >
<polygon id="dummy-1_h1_3_17" description="&lt;b&gt;ADB12505.1&lt;/b&gt;&lt;br&gt;hypothetical protein&lt;br&gt;Location: 67296 - 67832" points="720,90 720,90 725,85 720,80 720,80 720,90 " class="clusterblast-orf" style="stroke:black; fill:white; stroke-width:1; " locus_tag="ADB12505.1"  />
</g>
<g id="a1_0018"  >
<polygon id="dummy-1_h1_3_18" description="&lt;b&gt;ADB12506.1&lt;/b&gt;&lt;br&gt;hypothetical protein&lt;br&gt;Location: 67829 - 68455" points="725,90 727,90 732,85 727,80 725,80 725,90 " class="clusterblast-orf" style="stroke:black; fill:white; stroke-width:1; " locus_tag="ADB12506.1"  />
</g>
<g id="a1_0019"  >
<polygon id="dummy-1_h1_3_19" description="&lt;b&gt;ADB12507.1&lt;/b&gt;&lt;br&gt;hypothetical protein&lt;br&gt;Location: 68452 - 69633" points="732,90 740,90 745,85 740,80 732,80 732,90 " class="clusterblast-orf" style="stroke:black; fill:white; stroke-width:1; " locus_tag="ADB12507.1"  />
</g>
<g id="a1_0020"  >
<polygon id="dummy-1_h1_3_20" description="&lt;b&gt;ADB12508.1&lt;/b&gt;&lt;br&gt;hypothetical protein&lt;br&gt;Location: 69633 - 70001" points="745,90 749,85 745,80 745,90 " class="clusterblast-orf" style="stroke:black; fill:white; stroke-width:1; " locus_tag="ADB12508.1"  />
</g>
<g id="a1_0021"  >
<polygon id="dummy-1_h1_3_21" description="&lt;b&gt;ADB12509.1&lt;/b&gt;&lt;br&gt;hypothetical protein&lt;br&gt;Location: 69998 - 70951" points="749,90 754,90 759,85 754,80 749,80 749,90 " class="clusterblast-orf" style="stroke:black; fill:white; stroke-width:1; " locus_tag="ADB12509.1"  />
</g>
<g id="a1_0022"  >
<polygon id="dummy-1_h1_3_22" description="&lt;b&gt;ADB12510.1&lt;/b&gt;&lt;br&gt;cytochrome c oxidase subunit II&lt;br&gt;Location: 70948 - 72111" points="759,90 767,90 772,85 767,80 759,80 759,90 " class="clusterblast-orf" style="stroke:black; fill:white; stroke-width:1; " locus_tag="ADB12510.1"  />
</g>
<g id="a1_0023"  >
<polygon id="dummy-1_h1_3_23" description="&lt;b&gt;ADB12511.1&lt;/b&gt;&lt;br&gt;cytochrome c oxidase subunit I&lt;br&gt;Location: 72108 - 72852" points="771,90 775,90 780,85 775,80 771,80 771,90 " class="clusterblast-orf" style="stroke:black; fill:white; stroke-width:1; " locus_tag="ADB12511.1"  />
</g>
</svg>
