<svg xmlns="http://www.w3.org/2000/svg" version="1.1" y="0" x="0" preserveAspectRatio="none" xmlns:xlink="http://www.w3.org/1999/xlink" viewBox="0 0 800 230" height="230" width="800"  >
<g label="Query sequence" class="clusterblast-cluster"  >
<text class="clusterblast-acc" y="20" x="5"  >
Query sequence</text>
<line x2="778.0" x1="10" y1="35" y2="35" style="stroke:grey; stroke-width:1; "  />
<polygon locus_tag="cds2_3305" id="dummy-1_q0_0_all" class="clusterblast-orf" description="&lt;b&gt;cds2_3305&lt;/b&gt;&lt;br&gt;hypothetical protein&lt;br&gt;Location: 2 - 3305" style="stroke:black; stroke-width:1; fill:#d81515; " points="250,35 255,30 292,30 292,40 255,40 250,35 "  />
<polygon locus_tag="cds3769_3928" id="dummy-1_q1_0_all" class="clusterblast-orf" description="&lt;b&gt;cds3769_3928&lt;/b&gt;&lt;br&gt;hypothetical protein&lt;br&gt;Location: 3769 - 3928" style="stroke:black; stroke-width:1; fill:white; " points="298,35 300,30 300,40 298,35 "  />
<polygon locus_tag="cds4076_4844" id="dummy-1_q2_0_all" class="clusterblast-orf" description="&lt;b&gt;cds4076_4844&lt;/b&gt;&lt;br&gt;hypothetical protein&lt;br&gt;Location: 4076 - 4844" style="stroke:black; stroke-width:1; fill:#3cd815; " points="302,35 307,30 312,30 312,40 307,40 302,35 "  />
<polygon locus_tag="cds4840_5455" id="dummy-1_q3_0_all" class="clusterblast-orf" description="&lt;b&gt;cds4840_5455&lt;/b&gt;&lt;br&gt;hypothetical protein&lt;br&gt;Location: 4840 - 5455" style="stroke:black; stroke-width:1; fill:#1563d8; " points="312,35 317,30 319,30 319,40 317,40 312,35 "  />
<polygon locus_tag="cds5448_7506" id="dummy-1_q4_0_all" class="clusterblast-orf" description="&lt;b&gt;cds5448_7506&lt;/b&gt;&lt;br&gt;hypothetical protein&lt;br&gt;Location: 5448 - 7506" style="stroke:black; stroke-width:1; fill:#b115d8; " points="319,35 324,30 345,30 345,40 324,40 319,35 "  />
<polygon locus_tag="cds7652_8147" id="dummy-1_q5_0_all" class="clusterblast-orf" description="&lt;b&gt;cds7652_8147&lt;/b&gt;&lt;br&gt;hypothetical protein&lt;br&gt;Location: 7652 - 8147" style="stroke:black; stroke-width:1; fill:#d88a15; " points="347,35 352,30 354,30 354,40 352,40 347,35 "  />
<polygon locus_tag="cds8423_8975" id="dummy-1_q6_0_all" class="clusterblast-orf" description="&lt;b&gt;cds8423_8975&lt;/b&gt;&lt;br&gt;hypothetical protein&lt;br&gt;Location: 8423 - 8975" style="stroke:black; stroke-width:1; fill:#15d863; " points="357,40 359,40 364,35 359,30 357,30 357,40 "  />
<polygon locus_tag="cds8981_9449" id="dummy-1_q7_0_all" class="clusterblast-orf" description="&lt;b&gt;cds8981_9449&lt;/b&gt;&lt;br&gt;nudix hydrolase&lt;br&gt;Location: 8981 - 9449" style="stroke:black; stroke-width:1; fill:#3c15d8; " points="364,35 369,30 370,30 370,40 369,40 364,35 "  />
<polygon locus_tag="cds9460_10177" id="dummy-1_q8_0_all" class="clusterblast-orf" description="&lt;b&gt;cds9460_10177&lt;/b&gt;&lt;br&gt;hypothetical protein&lt;br&gt;Location: 9460 - 10177" style="stroke:black; stroke-width:1; fill:#d8158a; " points="370,35 375,30 379,30 379,40 375,40 370,35 "  />
<polygon locus_tag="cds10257_11004" id="dummy-1_q9_0_all" class="clusterblast-orf" description="&lt;b&gt;cds10257_11004&lt;/b&gt;&lt;br&gt;hypothetical protein&lt;br&gt;Location: 10257 - 11004" style="stroke:black; stroke-width:1; fill:#b1d815; " points="380,40 385,40 390,35 385,30 380,30 380,40 "  />
<polygon locus_tag="cds11331_11874" id="dummy-1_q10_0_all" class="clusterblast-orf" description="&lt;b&gt;cds11331_11874&lt;/b&gt;&lt;br&gt;hypothetical protein&lt;br&gt;Location: 11331 - 11874" style="stroke:black; stroke-width:1; fill:white; " points="394,40 396,40 401,35 396,30 394,30 394,40 "  />
<polygon locus_tag="cds11870_12578" id="dummy-1_q11_0_all" class="clusterblast-orf" description="&lt;b&gt;cds11870_12578&lt;/b&gt;&lt;br&gt;hypothetical protein&lt;br&gt;Location: 11870 - 12578" style="stroke:black; stroke-width:1; fill:white; " points="401,40 405,40 410,35 405,30 401,30 401,40 "  />
<polygon locus_tag="cds12574_13000" id="dummy-1_q12_0_all" class="clusterblast-orf" description="&lt;b&gt;cds12574_13000&lt;/b&gt;&lt;br&gt;hypothetical protein&lt;br&gt;Location: 12574 - 13000" style="stroke:black; stroke-width:1; fill:white; " points="410,40 410,40 415,35 410,30 410,30 410,40 "  />
<polygon locus_tag="cds13052_14255" id="dummy-1_q13_0_all" class="clusterblast-orf" description="&lt;b&gt;cds13052_14255&lt;/b&gt;&lt;br&gt;hypothetical protein&lt;br&gt;Location: 13052 - 14255" style="stroke:black; stroke-width:1; fill:white; " points="416,35 421,30 431,30 431,40 421,40 416,35 "  />
<polygon locus_tag="cds14384_15236" id="dummy-1_q14_0_all" class="clusterblast-orf" description="&lt;b&gt;cds14384_15236&lt;/b&gt;&lt;br&gt;hypothetical protein&lt;br&gt;Location: 14384 - 15236" style="stroke:black; stroke-width:1; fill:white; " points="433,40 438,40 443,35 438,30 433,30 433,40 "  />
<polygon locus_tag="cds15827_16490" id="dummy-1_q15_0_all" class="clusterblast-orf" description="&lt;b&gt;cds15827_16490&lt;/b&gt;&lt;br&gt;hypothetical protein&lt;br&gt;Location: 15827 - 16490" style="stroke:black; stroke-width:1; fill:white; " points="451,40 454,40 459,35 454,30 451,30 451,40 "  />
<polygon locus_tag="cds16859_17264" id="dummy-1_q16_0_all" class="clusterblast-orf" description="&lt;b&gt;cds16859_17264&lt;/b&gt;&lt;br&gt;hypothetical protein&lt;br&gt;Location: 16859 - 17264" style="stroke:black; stroke-width:1; fill:white; " points="464,40 464,40 469,35 464,30 464,30 464,40 "  />
<polygon locus_tag="cds17428_17764" id="dummy-1_q17_0_all" class="clusterblast-orf" description="&lt;b&gt;cds17428_17764&lt;/b&gt;&lt;br&gt;hypothetical protein&lt;br&gt;Location: 17428 - 17764" style="stroke:black; stroke-width:1; fill:white; " points="471,40 475,35 471,30 471,40 "  />
<polygon locus_tag="cds17957_18218" id="dummy-1_q18_0_all" class="clusterblast-orf" description="&lt;b&gt;cds17957_18218&lt;/b&gt;&lt;br&gt;hypothetical protein&lt;br&gt;Location: 17957 - 18218" style="stroke:black; stroke-width:1; fill:white; " points="478,40 481,35 478,30 478,40 "  />
<polygon locus_tag="cds18356_19034" id="dummy-1_q19_0_all" class="clusterblast-orf" description="&lt;b&gt;cds18356_19034&lt;/b&gt;&lt;br&gt;hypothetical protein&lt;br&gt;Location: 18356 - 19034" style="stroke:black; stroke-width:1; fill:white; " points="483,40 487,40 492,35 487,30 483,30 483,40 "  />
<polygon locus_tag="cds19315_19492" id="dummy-1_q20_0_all" class="clusterblast-orf" description="&lt;b&gt;cds19315_19492&lt;/b&gt;&lt;br&gt;hypothetical protein&lt;br&gt;Location: 19315 - 19492" style="stroke:black; stroke-width:1; fill:white; " points="495,40 497,35 495,30 495,40 "  />
<polygon locus_tag="cds19897_21082" id="dummy-1_q21_0_all" class="clusterblast-orf" description="&lt;b&gt;cds19897_21082&lt;/b&gt;&lt;br&gt;Mycobacteriophage Barnyard protein gp56&lt;br&gt;Location: 19897 - 21082" style="stroke:black; stroke-width:1; fill:white; " points="503,40 513,40 518,35 513,30 503,30 503,40 "  />
<polygon locus_tag="cds21150_21297" id="dummy-1_q22_0_all" class="clusterblast-orf" description="&lt;b&gt;cds21150_21297&lt;/b&gt;&lt;br&gt;Resolvase, N-terminal&lt;br&gt;Location: 21150 - 21297" style="stroke:black; stroke-width:1; fill:#15d8d8; " points="518,35 520,30 520,40 518,35 "  />
<polygon locus_tag="cds21335_21647" id="dummy-1_q23_0_all" class="clusterblast-orf" description="&lt;b&gt;cds21335_21647&lt;/b&gt;&lt;br&gt;Resolvase, N-terminal&lt;br&gt;Location: 21335 - 21647" style="stroke:black; stroke-width:1; fill:#15d8d8; " points="521,35 525,30 525,40 521,35 "  />
<polygon locus_tag="cds21643_21979" id="dummy-1_q24_0_all" class="clusterblast-orf" description="&lt;b&gt;cds21643_21979&lt;/b&gt;&lt;br&gt;Resolvase, N-terminal&lt;br&gt;Location: 21643 - 21979" style="stroke:black; stroke-width:1; fill:#15d8d8; " points="525,35 529,30 529,40 525,35 "  />
</g>
<g label="NZ_CP046905" class="clusterblast-cluster" description="NZ_CP046905 (211266-&gt;272801): Streptomyces sp. QHH-9511 chromosome, complete ... (3% of genes show similarity), NRPS"  >
<text class="clusterblast-acc" y="70" x="5"  >
<a xlink:href="https://antismash-db.secondarymetabolites.org/area.html?record=NZ_CP046905&amp;start=211266&amp;end=>272801" target="_blank">NZ_CP046905 (211266->272801)</a>: Streptomyces sp. QHH-9511 chromosome, complete ... (3% of genes show similarity), NRPS</text>
<line x2="778.0" x1="10" y1="85" y2="85" style="stroke:grey; stroke-width:1; "  />
</g>
<g id="a1_000"  >
<polygon locus_tag="GPZ77_RS00975" id="dummy-1_h1_6_0" class="clusterblast-orf" description="&lt;b&gt;GPZ77_RS00975&lt;/b&gt;&lt;br&gt;MFS transporter&lt;br&gt;Location: 211267 - 212493" style="stroke:black; stroke-width:1; fill:white; " points="0,85 5,80 15,80 15,90 5,90 0,85 "  />
</g>
<g id="a1_001"  >
<polygon locus_tag="GPZ77_RS00980" id="dummy-1_h1_6_1" class="clusterblast-orf" description="&lt;b&gt;GPZ77_RS00980&lt;/b&gt;&lt;br&gt;malonic semialdehyde reductase&lt;br&gt;Location: 212593 - 213186" style="stroke:black; stroke-width:1; fill:white; " points="16,85 21,80 24,80 24,90 21,90 16,85 "  />
</g>
<g id="a1_002"  >
<polygon locus_tag="GPZ77_RS00985" id="dummy-1_h1_6_2" class="clusterblast-orf" description="&lt;b&gt;GPZ77_RS00985&lt;/b&gt;&lt;br&gt;MarR family transcriptional regulator&lt;br&gt;Location: 213306 - 213812" style="stroke:black; stroke-width:1; fill:white; " points="25,90 27,90 32,85 27,80 25,80 25,90 "  />
</g>
<g id="a1_003"  >
<polygon locus_tag="GPZ77_RS00990" id="dummy-1_h1_6_3" class="clusterblast-orf" description="&lt;b&gt;GPZ77_RS00990&lt;/b&gt;&lt;br&gt;nitroreductase family deazaflavin-dependent oxidoreductase&lt;br&gt;Location: 214473 - 214910" style="stroke:black; stroke-width:1; fill:white; " points="40,90 41,90 46,85 41,80 40,80 40,90 "  />
</g>
<g id="a1_004"  >
<polygon locus_tag="GPZ77_RS00995" id="dummy-1_h1_6_4" class="clusterblast-orf" description="&lt;b&gt;GPZ77_RS00995&lt;/b&gt;&lt;br&gt;IS5 family transposase&lt;br&gt;Location: 214964 - 215424" style="stroke:black; stroke-width:1; fill:white; " points="46,90 47,90 52,85 47,80 46,80 46,90 "  />
</g>
<g id="a1_005"  >
<polygon locus_tag="GPZ77_RS01000" id="dummy-1_h1_6_5" class="clusterblast-orf" description="&lt;b&gt;GPZ77_RS01000&lt;/b&gt;&lt;br&gt;ZIP family zinc transporter&lt;br&gt;Location: 215787 - 216536" style="stroke:black; stroke-width:1; fill:white; " points="57,90 61,90 66,85 61,80 57,80 57,90 "  />
</g>
<g id="a1_006"  >
<polygon locus_tag="GPZ77_RS01005" id="dummy-1_h1_6_6" class="clusterblast-orf" description="&lt;b&gt;GPZ77_RS01005&lt;/b&gt;&lt;br&gt;hypothetical protein&lt;br&gt;Location: 216852 - 217070" style="stroke:black; stroke-width:1; fill:white; " points="70,90 73,85 70,80 70,90 "  />
</g>
<g id="a1_007"  >
<polygon locus_tag="GPZ77_RS01010" id="dummy-1_h1_6_7" class="clusterblast-orf" description="&lt;b&gt;GPZ77_RS01010&lt;/b&gt;&lt;br&gt;metalloregulator ArsR/SmtB family transcription factor&lt;br&gt;Location: 218297 - 218632" style="stroke:black; stroke-width:1; fill:white; " points="89,90 93,85 89,80 89,90 "  />
</g>
<g id="a1_008"  >
<polygon locus_tag="GPZ77_RS01015" id="dummy-1_h1_6_8" class="clusterblast-orf" description="&lt;b&gt;GPZ77_RS01015&lt;/b&gt;&lt;br&gt;cation transporter&lt;br&gt;Location: 218632 - 219357" style="stroke:black; stroke-width:1; fill:white; " points="93,90 97,90 102,85 97,80 93,80 93,90 "  />
</g>
<g id="a1_009"  >
<polygon locus_tag="GPZ77_RS01020" id="dummy-1_h1_6_9" class="clusterblast-orf" description="&lt;b&gt;GPZ77_RS01020&lt;/b&gt;&lt;br&gt;DHA2 family efflux MFS transporter permease subunit&lt;br&gt;Location: 219591 - 221186" style="stroke:black; stroke-width:1; fill:white; " points="105,90 120,90 125,85 120,80 105,80 105,90 "  />
</g>
<g id="a1_0010"  >
<polygon locus_tag="GPZ77_RS01025" id="dummy-1_h1_6_10" class="clusterblast-orf" description="&lt;b&gt;GPZ77_RS01025&lt;/b&gt;&lt;br&gt;SRPBCC family protein&lt;br&gt;Location: 221404 - 221898" style="stroke:black; stroke-width:1; fill:white; " points="128,85 133,80 134,80 134,90 133,90 128,85 "  />
</g>
<g id="a1_0011"  >
<polygon locus_tag="GPZ77_RS01030" id="dummy-1_h1_6_11" class="clusterblast-orf" description="&lt;b&gt;GPZ77_RS01030&lt;/b&gt;&lt;br&gt;M48 family metalloprotease&lt;br&gt;Location: 221959 - 222828" style="stroke:black; stroke-width:1; fill:white; " points="135,85 140,80 146,80 146,90 140,90 135,85 "  />
</g>
<g id="a1_0012"  >
<polygon locus_tag="GPZ77_RS01035" id="dummy-1_h1_6_12" class="clusterblast-orf" description="&lt;b&gt;GPZ77_RS01035&lt;/b&gt;&lt;br&gt;BlaI/MecI/CopY family transcriptional regulator&lt;br&gt;Location: 222963 - 223328" style="stroke:black; stroke-width:1; fill:white; " points="148,85 152,80 152,90 148,85 "  />
</g>
<g id="a1_0013"  >
<polygon locus_tag="GPZ77_RS01040" id="dummy-1_h1_6_13" class="clusterblast-orf" description="&lt;b&gt;GPZ77_RS01040&lt;/b&gt;&lt;br&gt;acyl-protein synthetase&lt;br&gt;Location: 223464 - 224615" style="stroke:black; stroke-width:1; fill:white; " points="154,90 164,90 169,85 164,80 154,80 154,90 "  />
</g>
<g id="a1_0014"  >
<polygon locus_tag="GPZ77_RS01045" id="dummy-1_h1_6_14" class="clusterblast-orf" description="&lt;b&gt;GPZ77_RS01045&lt;/b&gt;&lt;br&gt;iron-sulfur cluster assembly scaffold protein&lt;br&gt;Location: 224620 - 225018" style="stroke:black; stroke-width:1; fill:white; " points="169,90 169,90 174,85 169,80 169,80 169,90 "  />
</g>
<g id="a1_0015"  >
<polygon locus_tag="GPZ77_RS01050" id="dummy-1_h1_6_15" class="clusterblast-orf" description="&lt;b&gt;GPZ77_RS01050&lt;/b&gt;&lt;br&gt;aminotransferase class V-fold PLP-dependent enzyme&lt;br&gt;Location: 224993 - 226213" style="stroke:black; stroke-width:1; fill:white; " points="173,90 184,90 189,85 184,80 173,80 173,90 "  />
</g>
<g id="a1_0016"  >
<polygon locus_tag="GPZ77_RS01055" id="dummy-1_h1_6_16" class="clusterblast-orf" description="&lt;b&gt;GPZ77_RS01055&lt;/b&gt;&lt;br&gt;hypothetical protein&lt;br&gt;Location: 226301 - 227335" style="stroke:black; stroke-width:1; fill:white; " points="190,90 198,90 203,85 198,80 190,80 190,90 "  />
</g>
<g id="a1_0017"  >
<polygon locus_tag="GPZ77_RS01060" id="dummy-1_h1_6_17" class="clusterblast-orf" description="&lt;b&gt;GPZ77_RS01060&lt;/b&gt;&lt;br&gt;hypothetical protein&lt;br&gt;Location: 227354 - 228208" style="stroke:black; stroke-width:1; fill:white; " points="203,90 209,90 214,85 209,80 203,80 203,90 "  />
</g>
<g id="a1_0018"  >
<polygon locus_tag="GPZ77_RS01065" id="dummy-1_h1_6_18" class="clusterblast-orf" description="&lt;b&gt;GPZ77_RS01065&lt;/b&gt;&lt;br&gt;hypothetical protein&lt;br&gt;Location: 228190 - 229389" style="stroke:black; stroke-width:1; fill:white; " points="214,90 224,90 229,85 224,80 214,80 214,90 "  />
</g>
<g id="a1_0019"  >
<polygon locus_tag="GPZ77_RS01070" id="dummy-1_h1_6_19" class="clusterblast-orf" description="&lt;b&gt;GPZ77_RS01070&lt;/b&gt;&lt;br&gt;acyl carrier protein&lt;br&gt;Location: 229386 - 229694" style="stroke:black; stroke-width:1; fill:white; " points="229,90 233,85 229,80 229,90 "  />
</g>
<g id="a1_0020"  >
<polygon locus_tag="GPZ77_RS01075" id="dummy-1_h1_6_20" class="clusterblast-orf" description="&lt;b&gt;GPZ77_RS01075&lt;/b&gt;&lt;br&gt;AMP-binding protein&lt;br&gt;Location: 229706 - 231385" style="stroke:black; stroke-width:1; fill:white; " points="233,90 250,90 255,85 250,80 233,80 233,90 "  />
</g>
<g id="a1_0021"  >
<polygon locus_tag="GPZ77_RS01080" id="dummy-1_h1_6_21" class="clusterblast-orf" description="&lt;b&gt;GPZ77_RS01080&lt;/b&gt;&lt;br&gt;flavin reductase&lt;br&gt;Location: 231470 - 231907" style="stroke:black; stroke-width:1; fill:white; " points="256,90 256,90 261,85 256,80 256,80 256,90 "  />
</g>
<g id="a1_0022"  >
<polygon locus_tag="GPZ77_RS01085" id="dummy-1_h1_6_22" class="clusterblast-orf" description="&lt;b&gt;GPZ77_RS01085&lt;/b&gt;&lt;br&gt;4'-phosphopantetheinyl transferase superfamily protein&lt;br&gt;Location: 231987 - 232844" style="stroke:black; stroke-width:1; fill:white; " points="262,90 268,90 273,85 268,80 262,80 262,90 "  />
</g>
<g id="a1_0023"  >
<polygon locus_tag="GPZ77_RS01090" id="dummy-1_h1_6_23" class="clusterblast-orf" description="&lt;b&gt;GPZ77_RS01090&lt;/b&gt;&lt;br&gt;AMP-binding protein&lt;br&gt;Location: 232841 - 234520" style="stroke:black; stroke-width:1; fill:white; " points="273,90 289,90 294,85 289,80 273,80 273,90 "  />
</g>
<g id="a1_0024"  >
<polygon locus_tag="GPZ77_RS01095" id="dummy-1_h1_6_24" class="clusterblast-orf" description="&lt;b&gt;GPZ77_RS01095&lt;/b&gt;&lt;br&gt;aminotransferase class I/II-fold pyridoxal phosphate-dependent enzyme&lt;br&gt;Location: 234596 - 235828" style="stroke:black; stroke-width:1; fill:white; " points="295,90 306,90 311,85 306,80 295,80 295,90 "  />
</g>
<g id="a1_0025"  >
<polygon locus_tag="GPZ77_RS01100" id="dummy-1_h1_6_25" class="clusterblast-orf" description="&lt;b&gt;GPZ77_RS01100&lt;/b&gt;&lt;br&gt;acyl-CoA dehydrogenase&lt;br&gt;Location: 235859 - 236980" style="stroke:black; stroke-width:1; fill:white; " points="311,90 320,90 325,85 320,80 311,80 311,90 "  />
</g>
<g id="a1_0026"  >
<polygon locus_tag="GPZ77_RS01105" id="dummy-1_h1_6_26" class="clusterblast-orf" description="&lt;b&gt;GPZ77_RS01105&lt;/b&gt;&lt;br&gt;DNA polymerase subunit beta&lt;br&gt;Location: 237235 - 238050" style="stroke:black; stroke-width:1; fill:white; " points="329,85 334,80 339,80 339,90 334,90 329,85 "  />
</g>
<g id="a1_0027"  >
<polygon locus_tag="GPZ77_RS01110" id="dummy-1_h1_6_27" class="clusterblast-orf" description="&lt;b&gt;GPZ77_RS01110&lt;/b&gt;&lt;br&gt;alpha/beta fold hydrolase&lt;br&gt;Location: 238230 - 238958" style="stroke:black; stroke-width:1; fill:white; " points="341,85 346,80 351,80 351,90 346,90 341,85 "  />
</g>
<g id="a1_0028"  >
<polygon locus_tag="GPZ77_RS01115" id="dummy-1_h1_6_28" class="clusterblast-orf" description="&lt;b&gt;GPZ77_RS01115&lt;/b&gt;&lt;br&gt;ATP-grasp domain-containing protein&lt;br&gt;Location: 238955 - 240250" style="stroke:black; stroke-width:1; fill:white; " points="350,85 355,80 367,80 367,90 355,90 350,85 "  />
</g>
<g id="a1_0029"  >
<polygon locus_tag="GPZ77_RS01120" id="dummy-1_h1_6_29" class="clusterblast-orf" description="&lt;b&gt;GPZ77_RS01120&lt;/b&gt;&lt;br&gt;hypothetical protein&lt;br&gt;Location: 240247 - 241860" style="stroke:black; stroke-width:1; fill:white; " points="367,85 372,80 387,80 387,90 372,90 367,85 "  />
</g>
<g id="a1_0030"  >
<polygon locus_tag="GPZ77_RS01125" id="dummy-1_h1_6_30" class="clusterblast-orf" description="&lt;b&gt;GPZ77_RS01125&lt;/b&gt;&lt;br&gt;cytochrome P450&lt;br&gt;Location: 241857 - 243086" style="stroke:black; stroke-width:1; fill:white; " points="387,85 392,80 403,80 403,90 392,90 387,85 "  />
</g>
<g id="a1_0031"  >
<polygon locus_tag="GPZ77_RS01130" id="dummy-1_h1_6_31" class="clusterblast-orf" description="&lt;b&gt;GPZ77_RS01130&lt;/b&gt;&lt;br&gt;amino acid adenylation domain-containing protein&lt;br&gt;Location: 243113 - 244915" style="stroke:black; stroke-width:1; fill:white; " points="403,85 408,80 426,80 426,90 408,90 403,85 "  />
</g>
<g id="a1_0032"  >
<polygon locus_tag="GPZ77_RS01135" id="dummy-1_h1_6_32" class="clusterblast-orf" description="&lt;b&gt;GPZ77_RS01135&lt;/b&gt;&lt;br&gt;thioesterase&lt;br&gt;Location: 244912 - 245727" style="stroke:black; stroke-width:1; fill:white; " points="426,85 431,80 436,80 436,90 431,90 426,85 "  />
</g>
<g id="a1_0033"  >
<polygon locus_tag="GPZ77_RS01140" id="dummy-1_h1_6_33" class="clusterblast-orf" description="&lt;b&gt;GPZ77_RS01140&lt;/b&gt;&lt;br&gt;MFS transporter&lt;br&gt;Location: 245724 - 247001" style="stroke:black; stroke-width:1; fill:white; " points="436,85 441,80 452,80 452,90 441,90 436,85 "  />
</g>
<g id="a1_0034"  >
<polygon locus_tag="GPZ77_RS01145" id="dummy-1_h1_6_34" class="clusterblast-orf" description="&lt;b&gt;GPZ77_RS01145&lt;/b&gt;&lt;br&gt;MbtH family NRPS accessory protein&lt;br&gt;Location: 246998 - 247207" style="stroke:black; stroke-width:1; fill:white; " points="452,85 455,80 455,90 452,85 "  />
</g>
<g id="a1_0035"  >
<polygon locus_tag="GPZ77_RS01150" id="dummy-1_h1_6_35" class="clusterblast-orf" description="&lt;b&gt;GPZ77_RS01150&lt;/b&gt;&lt;br&gt;amino acid adenylation domain-containing protein&lt;br&gt;Location: 247211 - 253009&lt;br&gt;&lt;br&gt;&lt;b&gt;BlastP hit with cds2_3305&lt;/b&gt;&lt;br&gt;Percentage identity: 35&lt;br&gt;Percentage coverage: 91&lt;br&gt;BLAST bit score: 477&lt;br&gt;E-value: 4.8e-132" style="stroke:black; stroke-width:1; fill:#d81515; " points="455,85 460,80 529,80 529,90 460,90 455,85 "  />
</g>
<g id="a1_0036"  >
<polygon locus_tag="GPZ77_RS01155" id="dummy-1_h1_6_36" class="clusterblast-orf" description="&lt;b&gt;GPZ77_RS01155&lt;/b&gt;&lt;br&gt;hypothetical protein&lt;br&gt;Location: 253275 - 253415" style="stroke:black; stroke-width:1; fill:white; " points="532,90 534,85 532,80 532,90 "  />
</g>
<g id="a1_0037"  >
<polygon locus_tag="GPZ77_RS01160" id="dummy-1_h1_6_37" class="clusterblast-orf" description="&lt;b&gt;GPZ77_RS01160&lt;/b&gt;&lt;br&gt;helix-turn-helix domain-containing protein&lt;br&gt;Location: 253575 - 254777" style="stroke:black; stroke-width:1; fill:white; " points="536,90 546,90 551,85 546,80 536,80 536,90 "  />
</g>
<g id="a1_0038"  >
<polygon locus_tag="GPZ77_RS01165" id="dummy-1_h1_6_38" class="clusterblast-orf" description="&lt;b&gt;GPZ77_RS01165&lt;/b&gt;&lt;br&gt;hypothetical protein&lt;br&gt;Location: 254878 - 255094" style="stroke:black; stroke-width:1; fill:white; " points="552,90 555,85 552,80 552,90 "  />
</g>
<g id="a1_0039"  >
<polygon locus_tag="GPZ77_RS01170" id="dummy-1_h1_6_39" class="clusterblast-orf" description="&lt;b&gt;GPZ77_RS01170&lt;/b&gt;&lt;br&gt;serine hydrolase&lt;br&gt;Location: 255391 - 256521" style="stroke:black; stroke-width:1; fill:white; " points="559,85 564,80 573,80 573,90 564,90 559,85 "  />
</g>
<g id="a1_0040"  >
<polygon locus_tag="GPZ77_RS01175" id="dummy-1_h1_6_40" class="clusterblast-orf" description="&lt;b&gt;GPZ77_RS01175&lt;/b&gt;&lt;br&gt;DUF4185 domain-containing protein&lt;br&gt;Location: 256786 - 257973" style="stroke:black; stroke-width:1; fill:white; " points="576,85 581,80 592,80 592,90 581,90 576,85 "  />
</g>
<g id="a1_0041"  >
<polygon locus_tag="GPZ77_RS01180" id="dummy-1_h1_6_41" class="clusterblast-orf" description="&lt;b&gt;GPZ77_RS01180&lt;/b&gt;&lt;br&gt;esterase&lt;br&gt;Location: 258058 - 259161" style="stroke:black; stroke-width:1; fill:white; " points="593,85 598,80 607,80 607,90 598,90 593,85 "  />
</g>
<g id="a1_0042"  >
<polygon locus_tag="GPZ77_RS01185" id="dummy-1_h1_6_42" class="clusterblast-orf" description="&lt;b&gt;GPZ77_RS01185&lt;/b&gt;&lt;br&gt;hypothetical protein&lt;br&gt;Location: 259272 - 259421" style="stroke:black; stroke-width:1; fill:white; " points="608,90 610,85 608,80 608,90 "  />
</g>
<g id="a1_0043"  >
<polygon locus_tag="GPZ77_RS01190" id="dummy-1_h1_6_43" class="clusterblast-orf" description="&lt;b&gt;GPZ77_RS01190&lt;/b&gt;&lt;br&gt;GNAT family N-acetyltransferase&lt;br&gt;Location: 259755 - 260303" style="stroke:black; stroke-width:1; fill:white; " points="614,85 619,80 621,80 621,90 619,90 614,85 "  />
</g>
<g id="a1_0044"  >
<polygon locus_tag="GPZ77_RS01195" id="dummy-1_h1_6_44" class="clusterblast-orf" description="&lt;b&gt;GPZ77_RS01195&lt;/b&gt;&lt;br&gt;thioesterase&lt;br&gt;Location: 260584 - 261006" style="stroke:black; stroke-width:1; fill:white; " points="625,90 625,90 630,85 625,80 625,80 625,90 "  />
</g>
<g id="a1_0045"  >
<polygon locus_tag="GPZ77_RS01200" id="dummy-1_h1_6_45" class="clusterblast-orf" description="&lt;b&gt;GPZ77_RS01200&lt;/b&gt;&lt;br&gt;DUF3995 domain-containing protein&lt;br&gt;Location: 261328 - 261852" style="stroke:black; stroke-width:1; fill:white; " points="634,85 639,80 641,80 641,90 639,90 634,85 "  />
</g>
<g id="a1_0046"  >
<polygon locus_tag="GPZ77_RS01205" id="dummy-1_h1_6_46" class="clusterblast-orf" description="&lt;b&gt;GPZ77_RS01205&lt;/b&gt;&lt;br&gt;hypothetical protein&lt;br&gt;Location: 261849 - 262205" style="stroke:black; stroke-width:1; fill:white; " points="641,85 645,80 645,90 641,85 "  />
</g>
<g id="a1_0047"  >
<polygon locus_tag="GPZ77_RS01210" id="dummy-1_h1_6_47" class="clusterblast-orf" description="&lt;b&gt;GPZ77_RS01210&lt;/b&gt;&lt;br&gt;sodium:proton antiporter&lt;br&gt;Location: 262698 - 263972" style="stroke:black; stroke-width:1; fill:white; " points="651,90 663,90 668,85 663,80 651,80 651,90 "  />
</g>
<g id="a1_0048"  >
<polygon locus_tag="GPZ77_RS01215" id="dummy-1_h1_6_48" class="clusterblast-orf" description="&lt;b&gt;GPZ77_RS01215&lt;/b&gt;&lt;br&gt;hypothetical protein&lt;br&gt;Location: 264549 - 264829" style="stroke:black; stroke-width:1; fill:white; " points="675,85 678,80 678,90 675,85 "  />
</g>
<g id="a1_0049"  >
<polygon locus_tag="GPZ77_RS01220" id="dummy-1_h1_6_49" class="clusterblast-orf" description="&lt;b&gt;GPZ77_RS01220&lt;/b&gt;&lt;br&gt;protein kinase&lt;br&gt;Location: 264923 - 266728" style="stroke:black; stroke-width:1; fill:white; " points="680,90 698,90 703,85 698,80 680,80 680,90 "  />
</g>
<g id="a1_0050"  >
<polygon locus_tag="GPZ77_RS01225" id="dummy-1_h1_6_50" class="clusterblast-orf" description="&lt;b&gt;GPZ77_RS01225&lt;/b&gt;&lt;br&gt;recombinase family protein&lt;br&gt;Location: 266781 - 267458&lt;br&gt;&lt;br&gt;&lt;b&gt;BlastP hit with cds21150_21297&lt;/b&gt;&lt;br&gt;Percentage identity: 67&lt;br&gt;Percentage coverage: 81&lt;br&gt;BLAST bit score: 55&lt;br&gt;E-value: 1.5e-06&lt;br&gt;&lt;br&gt;&lt;b&gt;BlastP hit with cds21335_21647&lt;/b&gt;&lt;br&gt;Percentage identity: 73&lt;br&gt;Percentage coverage: 58&lt;br&gt;BLAST bit score: 85&lt;br&gt;E-value: 2.9e-15&lt;br&gt;&lt;br&gt;&lt;b&gt;BlastP hit with cds21643_21979&lt;/b&gt;&lt;br&gt;Percentage identity: 91&lt;br&gt;Percentage coverage: 60&lt;br&gt;BLAST bit score: 132&lt;br&gt;E-value: 2.9e-29" style="stroke:black; stroke-width:1; fill:#15d8d8; " points="703,85 708,80 712,80 712,90 708,90 703,85 "  />
</g>
<g id="a1_0051"  >
<polygon locus_tag="GPZ77_RS01230" id="dummy-1_h1_6_51" class="clusterblast-orf" description="&lt;b&gt;GPZ77_RS01230&lt;/b&gt;&lt;br&gt;alpha/beta fold hydrolase&lt;br&gt;Location: 267572 - 268444" style="stroke:black; stroke-width:1; fill:white; " points="713,85 718,80 724,80 724,90 718,90 713,85 "  />
</g>
<g id="a1_0052"  >
<polygon locus_tag="GPZ77_RS01235" id="dummy-1_h1_6_52" class="clusterblast-orf" description="&lt;b&gt;GPZ77_RS01235&lt;/b&gt;&lt;br&gt;SDR family NAD(P)-dependent oxidoreductase&lt;br&gt;Location: 268522 - 269208" style="stroke:black; stroke-width:1; fill:white; " points="725,85 730,80 734,80 734,90 730,90 725,85 "  />
</g>
<g id="a1_0053"  >
<polygon locus_tag="GPZ77_RS01240" id="dummy-1_h1_6_53" class="clusterblast-orf" description="&lt;b&gt;GPZ77_RS01240&lt;/b&gt;&lt;br&gt;TetR family transcriptional regulator&lt;br&gt;Location: 269327 - 269887" style="stroke:black; stroke-width:1; fill:white; " points="735,90 738,90 743,85 738,80 735,80 735,90 "  />
</g>
<g id="a1_0054"  >
<polygon locus_tag="GPZ77_RS01245" id="dummy-1_h1_6_54" class="clusterblast-orf" description="&lt;b&gt;GPZ77_RS01245&lt;/b&gt;&lt;br&gt;Tn3 family transposase&lt;br&gt;Location: 269979 - 270503" style="stroke:black; stroke-width:1; fill:white; " points="744,85 749,80 750,80 750,90 749,90 744,85 "  />
</g>
<g id="a1_0055"  >
<polygon locus_tag="GPZ77_RS01250" id="dummy-1_h1_6_55" class="clusterblast-orf" description="&lt;b&gt;GPZ77_RS01250&lt;/b&gt;&lt;br&gt;Tn3 family transposase&lt;br&gt;Location: 270298 - 270669" style="stroke:black; stroke-width:1; fill:white; " points="748,85 752,80 752,90 748,85 "  />
</g>
<g id="a1_0056"  >
<polygon locus_tag="GPZ77_RS01255" id="dummy-1_h1_6_56" class="clusterblast-orf" description="&lt;b&gt;GPZ77_RS01255&lt;/b&gt;&lt;br&gt;Tn3 family transposase&lt;br&gt;Location: 270704 - 271375" style="stroke:black; stroke-width:1; fill:white; " points="753,85 758,80 761,80 761,90 758,90 753,85 "  />
</g>
<g id="a1_0057"  >
<polygon locus_tag="GPZ77_RS01260" id="dummy-1_h1_6_57" class="clusterblast-orf" description="&lt;b&gt;GPZ77_RS01260&lt;/b&gt;&lt;br&gt;hypothetical protein&lt;br&gt;Location: 272253 - 272801" style="stroke:black; stroke-width:1; fill:white; " points="773,90 775,90 780,85 775,80 773,80 773,90 "  />
</g>
</svg>
