<svg xmlns="http://www.w3.org/2000/svg" version="1.1" y="0" x="0" preserveAspectRatio="none" xmlns:xlink="http://www.w3.org/1999/xlink" viewBox="0 0 800 230" height="230" width="800"  >
<g label="Query sequence" class="clusterblast-cluster"  >
<text class="clusterblast-acc" y="20" x="5"  >
Query sequence</text>
<line x2="778.0" x1="10" y1="35" y2="35" style="stroke:grey; stroke-width:1; "  />
<polygon locus_tag="cds1_9667" id="dummy-1_q0_0_all" class="clusterblast-orf" description="&lt;b&gt;cds1_9667&lt;/b&gt;&lt;br&gt;Polyketide synthase modules and related proteins&lt;br&gt;Location: 1 - 9667" style="stroke:black; stroke-width:1; fill:#d81515; " points="275,40 343,40 348,35 343,30 275,30 275,40 "  />
<polygon locus_tag="cds9663_9888" id="dummy-1_q1_0_all" class="clusterblast-orf" description="&lt;b&gt;cds9663_9888&lt;/b&gt;&lt;br&gt;hypothetical protein&lt;br&gt;Location: 9663 - 9888" style="stroke:black; stroke-width:1; fill:white; " points="348,40 350,35 348,30 348,40 "  />
<polygon locus_tag="cds9863_11093" id="dummy-1_q2_0_all" class="clusterblast-orf" description="&lt;b&gt;cds9863_11093&lt;/b&gt;&lt;br&gt;putative cytochrome P450 hydroxylase&lt;br&gt;Location: 9863 - 11093" style="stroke:black; stroke-width:1; fill:#15d863; " points="350,40 354,40 359,35 354,30 350,30 350,40 "  />
<polygon locus_tag="cds11301_12498" id="dummy-1_q3_0_all" class="clusterblast-orf" description="&lt;b&gt;cds11301_12498&lt;/b&gt;&lt;br&gt;hydroxylase&lt;br&gt;Location: 11301 - 12498" style="stroke:black; stroke-width:1; fill:#1563d8; " points="361,35 366,30 370,30 370,40 366,40 361,35 "  />
<polygon locus_tag="cds12610_18739" id="dummy-1_q4_0_all" class="clusterblast-orf" description="&lt;b&gt;cds12610_18739&lt;/b&gt;&lt;br&gt;hypothetical protein&lt;br&gt;Location: 12610 - 18739" style="stroke:black; stroke-width:1; fill:#d81515; " points="371,35 376,30 417,30 417,40 376,40 371,35 "  />
<polygon locus_tag="cds19100_19430" id="dummy-1_q5_0_all" class="clusterblast-orf" description="&lt;b&gt;cds19100_19430&lt;/b&gt;&lt;br&gt;Possible pectin degradation protein (sugar phosphate isomerase family)&lt;br&gt;Location: 19100 - 19430" style="stroke:black; stroke-width:1; fill:white; " points="420,40 422,35 420,30 420,40 "  />
<polygon locus_tag="cds19431_19986" id="dummy-1_q6_0_all" class="clusterblast-orf" description="&lt;b&gt;cds19431_19986&lt;/b&gt;&lt;br&gt;hypothetical protein&lt;br&gt;Location: 19431 - 19986" style="stroke:black; stroke-width:1; fill:white; " points="422,40 426,35 422,30 422,40 "  />
<polygon locus_tag="cds19982_20729" id="dummy-1_q7_0_all" class="clusterblast-orf" description="&lt;b&gt;cds19982_20729&lt;/b&gt;&lt;br&gt;hypothetical protein&lt;br&gt;Location: 19982 - 20729" style="stroke:black; stroke-width:1; fill:white; " points="426,40 427,40 432,35 427,30 426,30 426,40 "  />
<polygon locus_tag="cds20755_21727" id="dummy-1_q8_0_all" class="clusterblast-orf" description="&lt;b&gt;cds20755_21727&lt;/b&gt;&lt;br&gt;Quinone oxidoreductase (EC 1.6.5.5)&lt;br&gt;Location: 20755 - 21727" style="stroke:black; stroke-width:1; fill:#b115d8; " points="432,40 435,40 440,35 435,30 432,30 432,40 "  />
<polygon locus_tag="cds21786_22062" id="dummy-1_q9_0_all" class="clusterblast-orf" description="&lt;b&gt;cds21786_22062&lt;/b&gt;&lt;br&gt;hypothetical protein&lt;br&gt;Location: 21786 - 22062" style="stroke:black; stroke-width:1; fill:white; " points="440,40 442,35 440,30 440,40 "  />
<polygon locus_tag="cds22058_23327" id="dummy-1_q10_0_all" class="clusterblast-orf" description="&lt;b&gt;cds22058_23327&lt;/b&gt;&lt;br&gt;2-keto-3-deoxy-D-arabino-heptulosonate-7- phosphate synthase II (EC 2.5.1.54)&lt;br&gt;Location: 22058 - 23327" style="stroke:black; stroke-width:1; fill:white; " points="442,40 447,40 452,35 447,30 442,30 442,40 "  />
<polygon locus_tag="cds23502_24279" id="dummy-1_q11_0_all" class="clusterblast-orf" description="&lt;b&gt;cds23502_24279&lt;/b&gt;&lt;br&gt;putative thioesterase&lt;br&gt;Location: 23502 - 24279" style="stroke:black; stroke-width:1; fill:#b1d815; " points="453,35 458,30 459,30 459,40 458,40 453,35 "  />
<polygon locus_tag="cds24309_27006" id="dummy-1_q12_0_all" class="clusterblast-orf" description="&lt;b&gt;cds24309_27006&lt;/b&gt;&lt;br&gt;hypothetical protein&lt;br&gt;Location: 24309 - 27006" style="stroke:black; stroke-width:1; fill:#d81515; " points="459,35 464,30 480,30 480,40 464,40 459,35 "  />
<polygon locus_tag="cds27370_27517" id="dummy-1_q13_0_all" class="clusterblast-orf" description="&lt;b&gt;cds27370_27517&lt;/b&gt;&lt;br&gt;hypothetical protein&lt;br&gt;Location: 27370 - 27517" style="stroke:black; stroke-width:1; fill:white; " points="482,35 483,30 483,40 482,35 "  />
<polygon locus_tag="cds27542_27770" id="dummy-1_q14_0_all" class="clusterblast-orf" description="&lt;b&gt;cds27542_27770&lt;/b&gt;&lt;br&gt;hypothetical protein&lt;br&gt;Location: 27542 - 27770" style="stroke:black; stroke-width:1; fill:white; " points="484,35 485,30 485,40 484,35 "  />
<polygon locus_tag="cds27923_28037" id="dummy-1_q15_0_all" class="clusterblast-orf" description="&lt;b&gt;cds27923_28037&lt;/b&gt;&lt;br&gt;hypothetical protein&lt;br&gt;Location: 27923 - 28037" style="stroke:black; stroke-width:1; fill:white; " points="487,40 487,35 487,30 487,40 "  />
<polygon locus_tag="cds28117_29065" id="dummy-1_q16_0_all" class="clusterblast-orf" description="&lt;b&gt;cds28117_29065&lt;/b&gt;&lt;br&gt;hypothetical protein&lt;br&gt;Location: 28117 - 29065" style="stroke:black; stroke-width:1; fill:white; " points="488,35 493,30 495,30 495,40 493,40 488,35 "  />
<polygon locus_tag="cds29095_29281" id="dummy-1_q17_0_all" class="clusterblast-orf" description="&lt;b&gt;cds29095_29281&lt;/b&gt;&lt;br&gt;hypothetical protein&lt;br&gt;Location: 29095 - 29281" style="stroke:black; stroke-width:1; fill:white; " points="495,35 497,30 497,40 495,35 "  />
<polygon locus_tag="cds29582_30110" id="dummy-1_q18_0_all" class="clusterblast-orf" description="&lt;b&gt;cds29582_30110&lt;/b&gt;&lt;br&gt;Protein of unknown function DUF664&lt;br&gt;Location: 29582 - 30110" style="stroke:black; stroke-width:1; fill:white; " points="499,35 503,30 503,40 499,35 "  />
<polygon locus_tag="cds30153_30225" id="dummy-1_q19_0_all" class="clusterblast-orf" description="&lt;b&gt;cds30153_30225&lt;/b&gt;&lt;br&gt;hypothetical protein&lt;br&gt;Location: 30153 - 30225" style="stroke:black; stroke-width:1; fill:white; " points="503,35 504,30 504,40 503,35 "  />
</g>
<g label="NZ_CP043638" class="clusterblast-cluster" description="NZ_CP043638 (1873822-1977840): Streptomyces sp. INR7 chromosome, complete genome (14% of genes show similarity), NRPS,T1PKS,other"  >
<text class="clusterblast-acc" y="70" x="5"  >
<a xlink:href="https://antismash-db.secondarymetabolites.org/area.html?record=NZ_CP043638&amp;start=1873822&amp;end=1977840" target="_blank">NZ_CP043638 (1873822-1977840)</a>: Streptomyces sp. INR7 chromosome, complete genome (14% of genes show similarity), NRPS,T1PKS,other</text>
<line x2="778.0" x1="10" y1="85" y2="85" style="stroke:grey; stroke-width:1; "  />
</g>
<g id="a1_000"  >
<polygon locus_tag="F1D59_RS08505" id="dummy-1_h1_2_0" class="clusterblast-orf" description="&lt;b&gt;F1D59_RS08505&lt;/b&gt;&lt;br&gt;hypothetical protein&lt;br&gt;Location: 1977840 - 1977061" style="stroke:black; stroke-width:1; fill:white; " points="0,90 0,90 5,85 0,80 0,80 0,90 "  />
</g>
<g id="a1_001"  >
<polygon locus_tag="F1D59_RS08500" id="dummy-1_h1_2_1" class="clusterblast-orf" description="&lt;b&gt;F1D59_RS08500&lt;/b&gt;&lt;br&gt;hypothetical protein&lt;br&gt;Location: 1977061 - 1975895" style="stroke:black; stroke-width:1; fill:white; " points="5,90 9,90 14,85 9,80 5,80 5,90 "  />
</g>
<g id="a1_002"  >
<polygon locus_tag="F1D59_RS08495" id="dummy-1_h1_2_2" class="clusterblast-orf" description="&lt;b&gt;F1D59_RS08495&lt;/b&gt;&lt;br&gt;hypothetical protein&lt;br&gt;Location: 1975890 - 1975021" style="stroke:black; stroke-width:1; fill:white; " points="14,90 16,90 21,85 16,80 14,80 14,90 "  />
</g>
<g id="a1_003"  >
<polygon locus_tag="F1D59_RS08490" id="dummy-1_h1_2_3" class="clusterblast-orf" description="&lt;b&gt;F1D59_RS08490&lt;/b&gt;&lt;br&gt;type IV secretory system conjugative DNA transfer family protein&lt;br&gt;Location: 1975018 - 1973282" style="stroke:black; stroke-width:1; fill:white; " points="21,90 29,90 34,85 29,80 21,80 21,90 "  />
</g>
<g id="a1_004"  >
<polygon locus_tag="F1D59_RS08485" id="dummy-1_h1_2_4" class="clusterblast-orf" description="&lt;b&gt;F1D59_RS08485&lt;/b&gt;&lt;br&gt;hypothetical protein&lt;br&gt;Location: 1973225 - 1972596" style="stroke:black; stroke-width:1; fill:white; " points="34,90 34,90 39,85 34,80 34,80 34,90 "  />
</g>
<g id="a1_005"  >
<polygon locus_tag="F1D59_RS08480" id="dummy-1_h1_2_5" class="clusterblast-orf" description="&lt;b&gt;F1D59_RS08480&lt;/b&gt;&lt;br&gt;hypothetical protein&lt;br&gt;Location: 1972599 - 1971610" style="stroke:black; stroke-width:1; fill:white; " points="39,90 42,90 47,85 42,80 39,80 39,90 "  />
</g>
<g id="a1_006"  >
<polygon locus_tag="F1D59_RS08475" id="dummy-1_h1_2_6" class="clusterblast-orf" description="&lt;b&gt;F1D59_RS08475&lt;/b&gt;&lt;br&gt;DUF4913 domain-containing protein&lt;br&gt;Location: 1971610 - 1971221" style="stroke:black; stroke-width:1; fill:white; " points="47,90 50,85 47,80 47,90 "  />
</g>
<g id="a1_007"  >
<polygon locus_tag="F1D59_RS08470" id="dummy-1_h1_2_7" class="clusterblast-orf" description="&lt;b&gt;F1D59_RS08470&lt;/b&gt;&lt;br&gt;DUF1929 domain-containing protein&lt;br&gt;Location: 1970938 - 1969121" style="stroke:black; stroke-width:1; fill:white; " points="52,90 60,90 65,85 60,80 52,80 52,90 "  />
</g>
<g id="a1_008"  >
<polygon locus_tag="F1D59_RS08465" id="dummy-1_h1_2_8" class="clusterblast-orf" description="&lt;b&gt;F1D59_RS08465&lt;/b&gt;&lt;br&gt;UvrD-helicase domain-containing protein&lt;br&gt;Location: 1968970 - 1966973" style="stroke:black; stroke-width:1; fill:white; " points="67,90 77,90 82,85 77,80 67,80 67,90 "  />
</g>
<g id="a1_009"  >
<polygon locus_tag="F1D59_RS08460" id="dummy-1_h1_2_9" class="clusterblast-orf" description="&lt;b&gt;F1D59_RS08460&lt;/b&gt;&lt;br&gt;helix-turn-helix domain-containing protein&lt;br&gt;Location: 1966971 - 1966159" style="stroke:black; stroke-width:1; fill:white; " points="82,85 87,80 88,80 88,90 87,90 82,85 "  />
</g>
<g id="a1_0010"  >
<polygon locus_tag="F1D59_RS08455" id="dummy-1_h1_2_10" class="clusterblast-orf" description="&lt;b&gt;F1D59_RS08455&lt;/b&gt;&lt;br&gt;SDR family oxidoreductase&lt;br&gt;Location: 1966017 - 1965292" style="stroke:black; stroke-width:1; fill:white; " points="89,90 89,90 94,85 89,80 89,80 89,90 "  />
</g>
<g id="a1_0011"  >
<polygon locus_tag="F1D59_RS08450" id="dummy-1_h1_2_11" class="clusterblast-orf" description="&lt;b&gt;F1D59_RS08450&lt;/b&gt;&lt;br&gt;nuclear transport factor 2 family protein&lt;br&gt;Location: 1965295 - 1964801" style="stroke:black; stroke-width:1; fill:white; " points="94,90 98,85 94,80 94,90 "  />
</g>
<g id="a1_0012"  >
<polygon locus_tag="F1D59_RS08445" id="dummy-1_h1_2_12" class="clusterblast-orf" description="&lt;b&gt;F1D59_RS08445&lt;/b&gt;&lt;br&gt;hypothetical protein&lt;br&gt;Location: 1964732 - 1964232" style="stroke:black; stroke-width:1; fill:white; " points="99,90 102,85 99,80 99,90 "  />
</g>
<g id="a1_0013"  >
<polygon locus_tag="F1D59_RS08440" id="dummy-1_h1_2_13" class="clusterblast-orf" description="&lt;b&gt;F1D59_RS08440&lt;/b&gt;&lt;br&gt;amidinotransferase&lt;br&gt;Location: 1964119 - 1963286" style="stroke:black; stroke-width:1; fill:white; " points="103,90 105,90 110,85 105,80 103,80 103,90 "  />
</g>
<g id="a1_0014"  >
<polygon locus_tag="F1D59_RS08435" id="dummy-1_h1_2_14" class="clusterblast-orf" description="&lt;b&gt;F1D59_RS08435&lt;/b&gt;&lt;br&gt;toxin-antitoxin system HicB family antitoxin&lt;br&gt;Location: 1962808 - 1962269" style="stroke:black; stroke-width:1; fill:white; " points="113,90 117,85 113,80 113,90 "  />
</g>
<g id="a1_0015"  >
<polygon locus_tag="F1D59_RS08430" id="dummy-1_h1_2_15" class="clusterblast-orf" description="&lt;b&gt;F1D59_RS08430&lt;/b&gt;&lt;br&gt;DUF4097 family beta strand repeat protein&lt;br&gt;Location: 1962138 - 1961290" style="stroke:black; stroke-width:1; fill:white; " points="118,90 120,90 125,85 120,80 118,80 118,90 "  />
</g>
<g id="a1_0016"  >
<polygon locus_tag="F1D59_RS08425" id="dummy-1_h1_2_16" class="clusterblast-orf" description="&lt;b&gt;F1D59_RS08425&lt;/b&gt;&lt;br&gt;ATP-binding cassette domain-containing protein&lt;br&gt;Location: 1961244 - 1960231" style="stroke:black; stroke-width:1; fill:white; " points="125,90 128,90 133,85 128,80 125,80 125,90 "  />
</g>
<g id="a1_0017"  >
<polygon locus_tag="F1D59_RS08420" id="dummy-1_h1_2_17" class="clusterblast-orf" description="&lt;b&gt;F1D59_RS08420&lt;/b&gt;&lt;br&gt;ABC transporter permease&lt;br&gt;Location: 1960234 - 1959437" style="stroke:black; stroke-width:1; fill:white; " points="133,90 134,90 139,85 134,80 133,80 133,90 "  />
</g>
<g id="a1_0018"  >
<polygon locus_tag="F1D59_RS08415" id="dummy-1_h1_2_18" class="clusterblast-orf" description="&lt;b&gt;F1D59_RS08415&lt;/b&gt;&lt;br&gt;thioesterase&lt;br&gt;Location: 1959042 - 1958254&lt;br&gt;&lt;br&gt;&lt;b&gt;BlastP hit with cds23502_24279&lt;/b&gt;&lt;br&gt;Percentage identity: 54&lt;br&gt;Percentage coverage: 97&lt;br&gt;BLAST bit score: 284&lt;br&gt;E-value: 1.1e-74" style="stroke:black; stroke-width:1; fill:#b1d815; " points="142,90 143,90 148,85 143,80 142,80 142,90 "  />
</g>
<g id="a1_0019"  >
<polygon locus_tag="F1D59_RS08410" id="dummy-1_h1_2_19" class="clusterblast-orf" description="&lt;b&gt;F1D59_RS08410&lt;/b&gt;&lt;br&gt;amino acid adenylation domain-containing protein&lt;br&gt;Location: 1958076 - 1951519&lt;br&gt;&lt;br&gt;&lt;b&gt;BlastP hit with cds1_9667&lt;/b&gt;&lt;br&gt;Percentage identity: 51&lt;br&gt;Percentage coverage: 67&lt;br&gt;BLAST bit score: 1981&lt;br&gt;E-value: 0.0&lt;br&gt;&lt;br&gt;&lt;b&gt;BlastP hit with cds12610_18739&lt;/b&gt;&lt;br&gt;Percentage identity: 52&lt;br&gt;Percentage coverage: 107&lt;br&gt;BLAST bit score: 1898&lt;br&gt;E-value: 0.0" style="stroke:black; stroke-width:1; fill:#d81515; " points="149,90 194,90 199,85 194,80 149,80 149,90 "  />
</g>
<g id="a1_0020"  >
<polygon locus_tag="F1D59_RS08405" id="dummy-1_h1_2_20" class="clusterblast-orf" description="&lt;b&gt;F1D59_RS08405&lt;/b&gt;&lt;br&gt;amino acid adenylation domain-containing protein&lt;br&gt;Location: 1951508 - 1933944&lt;br&gt;&lt;br&gt;&lt;b&gt;BlastP hit with cds1_9667&lt;/b&gt;&lt;br&gt;Percentage identity: 53&lt;br&gt;Percentage coverage: 101&lt;br&gt;BLAST bit score: 3208&lt;br&gt;E-value: 0.0&lt;br&gt;&lt;br&gt;&lt;b&gt;BlastP hit with cds12610_18739&lt;/b&gt;&lt;br&gt;Percentage identity: 45&lt;br&gt;Percentage coverage: 99&lt;br&gt;BLAST bit score: 1443&lt;br&gt;E-value: 0.0&lt;br&gt;&lt;br&gt;&lt;b&gt;BlastP hit with cds24309_27006&lt;/b&gt;&lt;br&gt;Percentage identity: 37&lt;br&gt;Percentage coverage: 99&lt;br&gt;BLAST bit score: 424&lt;br&gt;E-value: 3e-116" style="stroke:black; stroke-width:1; fill:#d81515; " points="199,90 327,90 332,85 327,80 199,80 199,90 "  />
</g>
<g id="a1_0021"  >
<polygon locus_tag="F1D59_RS08400" id="dummy-1_h1_2_21" class="clusterblast-orf" description="&lt;b&gt;F1D59_RS08400&lt;/b&gt;&lt;br&gt;cytochrome P450&lt;br&gt;Location: 1933941 - 1932709" style="stroke:black; stroke-width:1; fill:white; " points="332,90 336,90 341,85 336,80 332,80 332,90 "  />
</g>
<g id="a1_0022"  >
<polygon locus_tag="F1D59_RS08395" id="dummy-1_h1_2_22" class="clusterblast-orf" description="&lt;b&gt;F1D59_RS08395&lt;/b&gt;&lt;br&gt;cytochrome P450&lt;br&gt;Location: 1932662 - 1931460&lt;br&gt;&lt;br&gt;&lt;b&gt;BlastP hit with cds9863_11093&lt;/b&gt;&lt;br&gt;Percentage identity: 31&lt;br&gt;Percentage coverage: 96&lt;br&gt;BLAST bit score: 146&lt;br&gt;E-value: 4.2e-33" style="stroke:black; stroke-width:1; fill:#15d863; " points="341,90 346,90 351,85 346,80 341,80 341,90 "  />
</g>
<g id="a1_0023"  >
<polygon locus_tag="F1D59_RS08390" id="dummy-1_h1_2_23" class="clusterblast-orf" description="&lt;b&gt;F1D59_RS08390&lt;/b&gt;&lt;br&gt;FAD-dependent monooxygenase&lt;br&gt;Location: 1931298 - 1930084&lt;br&gt;&lt;br&gt;&lt;b&gt;BlastP hit with cds11301_12498&lt;/b&gt;&lt;br&gt;Percentage identity: 67&lt;br&gt;Percentage coverage: 98&lt;br&gt;BLAST bit score: 520&lt;br&gt;E-value: 1.8e-145" style="stroke:black; stroke-width:1; fill:#1563d8; " points="352,90 356,90 361,85 356,80 352,80 352,90 "  />
</g>
<g id="a1_0024"  >
<polygon locus_tag="F1D59_RS08385" id="dummy-1_h1_2_24" class="clusterblast-orf" description="&lt;b&gt;F1D59_RS08385&lt;/b&gt;&lt;br&gt;non-ribosomal peptide synthase&lt;br&gt;Location: 1930087 - 1926878&lt;br&gt;&lt;br&gt;&lt;b&gt;BlastP hit with cds24309_27006&lt;/b&gt;&lt;br&gt;Percentage identity: 55&lt;br&gt;Percentage coverage: 98&lt;br&gt;BLAST bit score: 885&lt;br&gt;E-value: 3.7e-255" style="stroke:black; stroke-width:1; fill:#d81515; " points="361,90 380,90 385,85 380,80 361,80 361,90 "  />
</g>
<g id="a1_0025"  >
<polygon locus_tag="F1D59_RS08380" id="dummy-1_h1_2_25" class="clusterblast-orf" description="&lt;b&gt;F1D59_RS08380&lt;/b&gt;&lt;br&gt;cytochrome P450&lt;br&gt;Location: 1926851 - 1925601" style="stroke:black; stroke-width:1; fill:white; " points="385,90 390,90 395,85 390,80 385,80 385,90 "  />
</g>
<g id="a1_0026"  >
<polygon locus_tag="F1D59_RS08375" id="dummy-1_h1_2_26" class="clusterblast-orf" description="&lt;b&gt;F1D59_RS08375&lt;/b&gt;&lt;br&gt;thioesterase&lt;br&gt;Location: 1925533 - 1924736&lt;br&gt;&lt;br&gt;&lt;b&gt;BlastP hit with cds23502_24279&lt;/b&gt;&lt;br&gt;Percentage identity: 35&lt;br&gt;Percentage coverage: 88&lt;br&gt;BLAST bit score: 136&lt;br&gt;E-value: 4.7e-30" style="stroke:black; stroke-width:1; fill:#b1d815; " points="395,85 400,80 401,80 401,90 400,90 395,85 "  />
</g>
<g id="a1_0027"  >
<polygon locus_tag="F1D59_RS08370" id="dummy-1_h1_2_27" class="clusterblast-orf" description="&lt;b&gt;F1D59_RS08370&lt;/b&gt;&lt;br&gt;alpha/beta fold hydrolase&lt;br&gt;Location: 1924739 - 1922748&lt;br&gt;&lt;br&gt;&lt;b&gt;BlastP hit with cds23502_24279&lt;/b&gt;&lt;br&gt;Percentage identity: 38&lt;br&gt;Percentage coverage: 90&lt;br&gt;BLAST bit score: 151&lt;br&gt;E-value: 1.1e-34" style="stroke:black; stroke-width:1; fill:#b1d815; " points="401,85 406,80 416,80 416,90 406,90 401,85 "  />
</g>
<g id="a1_0028"  >
<polygon locus_tag="F1D59_RS08365" id="dummy-1_h1_2_28" class="clusterblast-orf" description="&lt;b&gt;F1D59_RS08365&lt;/b&gt;&lt;br&gt;type I polyketide synthase&lt;br&gt;Location: 1922757 - 1916059" style="stroke:black; stroke-width:1; fill:white; " points="416,85 421,80 467,80 467,90 421,90 416,85 "  />
</g>
<g id="a1_0029"  >
<polygon locus_tag="F1D59_RS08360" id="dummy-1_h1_2_29" class="clusterblast-orf" description="&lt;b&gt;F1D59_RS08360&lt;/b&gt;&lt;br&gt;SDR family NAD(P)-dependent oxidoreductase&lt;br&gt;Location: 1915278 - 1913971" style="stroke:black; stroke-width:1; fill:white; " points="473,85 478,80 483,80 483,90 478,90 473,85 "  />
</g>
<g id="a1_0030"  >
<polygon locus_tag="F1D59_RS08355" id="dummy-1_h1_2_30" class="clusterblast-orf" description="&lt;b&gt;F1D59_RS08355&lt;/b&gt;&lt;br&gt;acyltransferase domain-containing protein&lt;br&gt;Location: 1912590 - 1909975" style="stroke:black; stroke-width:1; fill:white; " points="493,85 498,80 513,80 513,90 498,90 493,85 "  />
</g>
<g id="a1_0031"  >
<polygon locus_tag="F1D59_RS08350" id="dummy-1_h1_2_31" class="clusterblast-orf" description="&lt;b&gt;F1D59_RS08350&lt;/b&gt;&lt;br&gt;SDR family NAD(P)-dependent oxidoreductase&lt;br&gt;Location: 1909959 - 1908703" style="stroke:black; stroke-width:1; fill:white; " points="513,85 518,80 523,80 523,90 518,90 513,85 "  />
</g>
<g id="a1_0032"  >
<polygon locus_tag="F1D59_RS08345" id="dummy-1_h1_2_32" class="clusterblast-orf" description="&lt;b&gt;F1D59_RS08345&lt;/b&gt;&lt;br&gt;acyltransferase domain-containing protein&lt;br&gt;Location: 1907415 - 1905073" style="stroke:black; stroke-width:1; fill:white; " points="533,85 538,80 550,80 550,90 538,90 533,85 "  />
</g>
<g id="a1_0033"  >
<polygon locus_tag="F1D59_RS08340" id="dummy-1_h1_2_33" class="clusterblast-orf" description="&lt;b&gt;F1D59_RS08340&lt;/b&gt;&lt;br&gt;SDR family NAD(P)-dependent oxidoreductase&lt;br&gt;Location: 1904679 - 1903390" style="stroke:black; stroke-width:1; fill:white; " points="553,85 558,80 563,80 563,90 558,90 553,85 "  />
</g>
<g id="a1_0034"  >
<polygon locus_tag="F1D59_RS08335" id="dummy-1_h1_2_34" class="clusterblast-orf" description="&lt;b&gt;F1D59_RS08335&lt;/b&gt;&lt;br&gt;acyltransferase domain-containing protein&lt;br&gt;Location: 1902510 - 1901593" style="stroke:black; stroke-width:1; fill:white; " points="570,85 575,80 577,80 577,90 575,90 570,85 "  />
</g>
<g id="a1_0035"  >
<polygon locus_tag="F1D59_RS08330" id="dummy-1_h1_2_35" class="clusterblast-orf" description="&lt;b&gt;F1D59_RS08330&lt;/b&gt;&lt;br&gt;hypothetical protein&lt;br&gt;Location: 1901427 - 1901029" style="stroke:black; stroke-width:1; fill:white; " points="578,85 581,80 581,90 578,85 "  />
</g>
<g id="a1_0036"  >
<polygon locus_tag="F1D59_RS08325" id="dummy-1_h1_2_36" class="clusterblast-orf" description="&lt;b&gt;F1D59_RS08325&lt;/b&gt;&lt;br&gt;polyketide synthase&lt;br&gt;Location: 1900701 - 1899970" style="stroke:black; stroke-width:1; fill:white; " points="583,85 588,80 589,80 589,90 588,90 583,85 "  />
</g>
<g id="a1_0037"  >
<polygon locus_tag="F1D59_RS08320" id="dummy-1_h1_2_37" class="clusterblast-orf" description="&lt;b&gt;F1D59_RS08320&lt;/b&gt;&lt;br&gt;acyl carrier protein&lt;br&gt;Location: 1899873 - 1899667" style="stroke:black; stroke-width:1; fill:white; " points="590,85 591,80 591,90 590,85 "  />
</g>
<g id="a1_0038"  >
<polygon locus_tag="F1D59_RS08315" id="dummy-1_h1_2_38" class="clusterblast-orf" description="&lt;b&gt;F1D59_RS08315&lt;/b&gt;&lt;br&gt;acyltransferase domain-containing protein&lt;br&gt;Location: 1899522 - 1898620" style="stroke:black; stroke-width:1; fill:white; " points="592,85 597,80 599,80 599,90 597,90 592,85 "  />
</g>
<g id="a1_0039"  >
<polygon locus_tag="F1D59_RS08310" id="dummy-1_h1_2_39" class="clusterblast-orf" description="&lt;b&gt;F1D59_RS08310&lt;/b&gt;&lt;br&gt;hypothetical protein&lt;br&gt;Location: 1897986 - 1897555" style="stroke:black; stroke-width:1; fill:white; " points="604,85 607,80 607,90 604,85 "  />
</g>
<g id="a1_0040"  >
<polygon locus_tag="F1D59_RS08305" id="dummy-1_h1_2_40" class="clusterblast-orf" description="&lt;b&gt;F1D59_RS08305&lt;/b&gt;&lt;br&gt;cytochrome P450&lt;br&gt;Location: 1897428 - 1896238" style="stroke:black; stroke-width:1; fill:white; " points="608,85 613,80 617,80 617,90 613,90 608,85 "  />
</g>
<g id="a1_0041"  >
<polygon locus_tag="F1D59_RS08300" id="dummy-1_h1_2_41" class="clusterblast-orf" description="&lt;b&gt;F1D59_RS08300&lt;/b&gt;&lt;br&gt;pyridoxal phosphate-dependent aminotransferase&lt;br&gt;Location: 1896210 - 1895047" style="stroke:black; stroke-width:1; fill:white; " points="617,85 622,80 626,80 626,90 622,90 617,85 "  />
</g>
<g id="a1_0042"  >
<polygon locus_tag="F1D59_RS08295" id="dummy-1_h1_2_42" class="clusterblast-orf" description="&lt;b&gt;F1D59_RS08295&lt;/b&gt;&lt;br&gt;LmbU family transcriptional regulator&lt;br&gt;Location: 1894617 - 1893823" style="stroke:black; stroke-width:1; fill:white; " points="629,90 630,90 635,85 630,80 629,80 629,90 "  />
</g>
<g id="a1_0043"  >
<polygon locus_tag="F1D59_RS08290" id="dummy-1_h1_2_43" class="clusterblast-orf" description="&lt;b&gt;F1D59_RS08290&lt;/b&gt;&lt;br&gt;FMN-binding negative transcriptional regulator&lt;br&gt;Location: 1893744 - 1893097" style="stroke:black; stroke-width:1; fill:white; " points="636,85 641,80 641,80 641,90 641,90 636,85 "  />
</g>
<g id="a1_0044"  >
<polygon locus_tag="F1D59_RS08285" id="dummy-1_h1_2_44" class="clusterblast-orf" description="&lt;b&gt;F1D59_RS08285&lt;/b&gt;&lt;br&gt;lysine N(6)-hydroxylase/L-ornithine N(5)-oxygenase family protein&lt;br&gt;Location: 1892862 - 1891498" style="stroke:black; stroke-width:1; fill:white; " points="643,90 648,90 653,85 648,80 643,80 643,90 "  />
</g>
<g id="a1_0045"  >
<polygon locus_tag="F1D59_RS08280" id="dummy-1_h1_2_45" class="clusterblast-orf" description="&lt;b&gt;F1D59_RS08280&lt;/b&gt;&lt;br&gt;MbtH family protein&lt;br&gt;Location: 1891363 - 1891127" style="stroke:black; stroke-width:1; fill:white; " points="654,85 656,80 656,90 654,85 "  />
</g>
<g id="a1_0046"  >
<polygon locus_tag="F1D59_RS08275" id="dummy-1_h1_2_46" class="clusterblast-orf" description="&lt;b&gt;F1D59_RS08275&lt;/b&gt;&lt;br&gt;acetylglutamate kinase&lt;br&gt;Location: 1890702 - 1889746" style="stroke:black; stroke-width:1; fill:white; " points="659,90 661,90 666,85 661,80 659,80 659,90 "  />
</g>
<g id="a1_0047"  >
<polygon locus_tag="F1D59_RS08270" id="dummy-1_h1_2_47" class="clusterblast-orf" description="&lt;b&gt;F1D59_RS08270&lt;/b&gt;&lt;br&gt;MMPL family transporter&lt;br&gt;Location: 1889322 - 1887073" style="stroke:black; stroke-width:1; fill:white; " points="669,90 681,90 686,85 681,80 669,80 669,90 "  />
</g>
<g id="a1_0048"  >
<polygon locus_tag="F1D59_RS08265" id="dummy-1_h1_2_48" class="clusterblast-orf" description="&lt;b&gt;F1D59_RS08265&lt;/b&gt;&lt;br&gt;Lrp/AsnC family transcriptional regulator&lt;br&gt;Location: 1886955 - 1886500" style="stroke:black; stroke-width:1; fill:white; " points="687,85 691,80 691,90 687,85 "  />
</g>
<g id="a1_0049"  >
<polygon locus_tag="F1D59_RS08260" id="dummy-1_h1_2_49" class="clusterblast-orf" description="&lt;b&gt;F1D59_RS08260&lt;/b&gt;&lt;br&gt;asparaginase&lt;br&gt;Location: 1886365 - 1885364" style="stroke:black; stroke-width:1; fill:white; " points="692,90 694,90 699,85 694,80 692,80 692,90 "  />
</g>
<g id="a1_0050"  >
<polygon locus_tag="F1D59_RS08255" id="dummy-1_h1_2_50" class="clusterblast-orf" description="&lt;b&gt;F1D59_RS08255&lt;/b&gt;&lt;br&gt;hypothetical protein&lt;br&gt;Location: 1885299 - 1883584" style="stroke:black; stroke-width:1; fill:white; " points="700,90 708,90 713,85 708,80 700,80 700,90 "  />
</g>
<g id="a1_0051"  >
<polygon locus_tag="F1D59_RS08250" id="dummy-1_h1_2_51" class="clusterblast-orf" description="&lt;b&gt;F1D59_RS08250&lt;/b&gt;&lt;br&gt;methylmalonyl Co-A mutase-associated GTPase MeaB&lt;br&gt;Location: 1883534 - 1882545" style="stroke:black; stroke-width:1; fill:white; " points="713,85 718,80 721,80 721,90 718,90 713,85 "  />
</g>
<g id="a1_0052"  >
<polygon locus_tag="F1D59_RS08245" id="dummy-1_h1_2_52" class="clusterblast-orf" description="&lt;b&gt;F1D59_RS08245&lt;/b&gt;&lt;br&gt;methylmalonyl-CoA mutase&lt;br&gt;Location: 1882534 - 1880348" style="stroke:black; stroke-width:1; fill:white; " points="721,85 726,80 737,80 737,90 726,90 721,85 "  />
</g>
<g id="a1_0053"  >
<polygon locus_tag="F1D59_RS08240" id="dummy-1_h1_2_53" class="clusterblast-orf" description="&lt;b&gt;F1D59_RS08240&lt;/b&gt;&lt;br&gt;methylmalonyl-CoA mutase small subunit&lt;br&gt;Location: 1880351 - 1878486" style="stroke:black; stroke-width:1; fill:white; " points="737,85 742,80 751,80 751,90 742,90 737,85 "  />
</g>
<g id="a1_0054"  >
<polygon locus_tag="F1D59_RS08235" id="dummy-1_h1_2_54" class="clusterblast-orf" description="&lt;b&gt;F1D59_RS08235&lt;/b&gt;&lt;br&gt;ROK family transcriptional regulator&lt;br&gt;Location: 1878502 - 1877261" style="stroke:black; stroke-width:1; fill:white; " points="751,85 756,80 761,80 761,90 756,90 751,85 "  />
</g>
<g id="a1_0055"  >
<polygon locus_tag="F1D59_RS08230" id="dummy-1_h1_2_55" class="clusterblast-orf" description="&lt;b&gt;F1D59_RS08230&lt;/b&gt;&lt;br&gt;TauD/TfdA family dioxygenase&lt;br&gt;Location: 1876322 - 1875414" style="stroke:black; stroke-width:1; fill:white; " points="768,90 770,90 775,85 770,80 768,80 768,90 "  />
</g>
<g id="a1_0056"  >
<polygon locus_tag="F1D59_RS08225" id="dummy-1_h1_2_56" class="clusterblast-orf" description="&lt;b&gt;F1D59_RS08225&lt;/b&gt;&lt;br&gt;NADPH-dependent FMN reductase&lt;br&gt;Location: 1875378 - 1874785" style="stroke:black; stroke-width:1; fill:white; " points="775,90 775,90 780,85 775,80 775,80 775,90 "  />
</g>
</svg>
