<svg xmlns="http://www.w3.org/2000/svg" version="1.1" y="0" x="0" preserveAspectRatio="none" xmlns:xlink="http://www.w3.org/1999/xlink" viewBox="0 0 800 230" height="230" width="800"  >
<g label="Query sequence" class="clusterblast-cluster"  >
<text class="clusterblast-acc" y="20" x="5"  >
Query sequence</text>
<line x2="778.0" x1="10" y1="35" y2="35" style="stroke:grey; stroke-width:1; "  />
<polygon locus_tag="cds3309_3507" id="dummy-1_q0_0_all" class="clusterblast-orf" description="&lt;b&gt;cds3309_3507&lt;/b&gt;&lt;br&gt;excisionase&lt;br&gt;Location: 3309 - 3507" style="stroke:black; stroke-width:1; fill:white; " points="5,35 10,30 12,30 12,40 10,40 5,35 "  />
<polygon locus_tag="cds4165_4513" id="dummy-1_q1_0_all" class="clusterblast-orf" description="&lt;b&gt;cds4165_4513&lt;/b&gt;&lt;br&gt;hypothetical protein&lt;br&gt;Location: 4165 - 4513" style="stroke:black; stroke-width:1; fill:white; " points="34,35 39,30 45,30 45,40 39,40 34,35 "  />
<polygon locus_tag="cds4616_4847" id="dummy-1_q2_0_all" class="clusterblast-orf" description="&lt;b&gt;cds4616_4847&lt;/b&gt;&lt;br&gt;FIG00663192: hypothetical protein&lt;br&gt;Location: 4616 - 4847" style="stroke:black; stroke-width:1; fill:#d81515; " points="49,40 51,40 56,35 51,30 49,30 49,40 "  />
<polygon locus_tag="cds5064_5436" id="dummy-1_q3_0_all" class="clusterblast-orf" description="&lt;b&gt;cds5064_5436&lt;/b&gt;&lt;br&gt;Proline iminopeptidase (EC 3.4.11.5)&lt;br&gt;Location: 5064 - 5436" style="stroke:black; stroke-width:1; fill:white; " points="63,35 68,30 76,30 76,40 68,40 63,35 "  />
<polygon locus_tag="cds5512_5887" id="dummy-1_q4_0_all" class="clusterblast-orf" description="&lt;b&gt;cds5512_5887&lt;/b&gt;&lt;br&gt;hypothetical protein&lt;br&gt;Location: 5512 - 5887" style="stroke:black; stroke-width:1; fill:white; " points="78,40 86,40 91,35 86,30 78,30 78,40 "  />
<polygon locus_tag="cds6092_6638" id="dummy-1_q5_0_all" class="clusterblast-orf" description="&lt;b&gt;cds6092_6638&lt;/b&gt;&lt;br&gt;Acetyltransferase&lt;br&gt;Location: 6092 - 6638" style="stroke:black; stroke-width:1; fill:#63d815; " points="98,35 103,30 116,30 116,40 103,40 98,35 "  />
<polygon locus_tag="cds6634_7849" id="dummy-1_q6_0_all" class="clusterblast-orf" description="&lt;b&gt;cds6634_7849&lt;/b&gt;&lt;br&gt;hypothetical protein&lt;br&gt;Location: 6634 - 7849" style="stroke:black; stroke-width:1; fill:#15b1d8; " points="115,35 120,30 156,30 156,40 120,40 115,35 "  />
<polygon locus_tag="cds8133_8715" id="dummy-1_q7_0_all" class="clusterblast-orf" description="&lt;b&gt;cds8133_8715&lt;/b&gt;&lt;br&gt;hypothetical protein&lt;br&gt;Location: 8133 - 8715" style="stroke:black; stroke-width:1; fill:#b115d8; " points="165,40 179,40 184,35 179,30 165,30 165,40 "  />
<polygon locus_tag="cds8844_9384" id="dummy-1_q8_0_all" class="clusterblast-orf" description="&lt;b&gt;cds8844_9384&lt;/b&gt;&lt;br&gt;hypothetical protein&lt;br&gt;Location: 8844 - 9384" style="stroke:black; stroke-width:1; fill:#d86315; " points="189,40 202,40 207,35 202,30 189,30 189,40 "  />
<polygon locus_tag="cds9380_9989" id="dummy-1_q9_0_all" class="clusterblast-orf" description="&lt;b&gt;cds9380_9989&lt;/b&gt;&lt;br&gt;hypothetical protein&lt;br&gt;Location: 9380 - 9989" style="stroke:black; stroke-width:1; fill:#15d815; " points="206,40 222,40 227,35 222,30 206,30 206,40 "  />
<polygon locus_tag="cds10047_10245" id="dummy-1_q10_0_all" class="clusterblast-orf" description="&lt;b&gt;cds10047_10245&lt;/b&gt;&lt;br&gt;hypothetical protein&lt;br&gt;Location: 10047 - 10245" style="stroke:black; stroke-width:1; fill:#1563d8; " points="228,40 230,40 235,35 230,30 228,30 228,40 "  />
<polygon locus_tag="cds10241_12401" id="dummy-1_q11_0_all" class="clusterblast-orf" description="&lt;b&gt;cds10241_12401&lt;/b&gt;&lt;br&gt;hypothetical protein&lt;br&gt;Location: 10241 - 12401" style="stroke:black; stroke-width:1; fill:#d815b1; " points="235,40 301,40 306,35 301,30 235,30 235,40 "  />
<polygon locus_tag="cds12986_13139" id="dummy-1_q12_0_all" class="clusterblast-orf" description="&lt;b&gt;cds12986_13139&lt;/b&gt;&lt;br&gt;hypothetical protein&lt;br&gt;Location: 12986 - 13139" style="stroke:black; stroke-width:1; fill:white; " points="326,40 326,40 331,35 326,30 326,30 326,40 "  />
<polygon locus_tag="cds13210_16216" id="dummy-1_q13_0_all" class="clusterblast-orf" description="&lt;b&gt;cds13210_16216&lt;/b&gt;&lt;br&gt;Lanthionine biosynthesis protein LanB&lt;br&gt;Location: 13210 - 16216" style="stroke:black; stroke-width:1; fill:#d8b115; " points="333,40 428,40 433,35 428,30 333,30 333,40 "  />
<polygon locus_tag="cds16212_17757" id="dummy-1_q14_0_all" class="clusterblast-orf" description="&lt;b&gt;cds16212_17757&lt;/b&gt;&lt;br&gt;putative lipoprotein&lt;br&gt;Location: 16212 - 17757" style="stroke:black; stroke-width:1; fill:#15d863; " points="433,40 479,40 484,35 479,30 433,30 433,40 "  />
<polygon locus_tag="cds17818_18313" id="dummy-1_q15_0_all" class="clusterblast-orf" description="&lt;b&gt;cds17818_18313&lt;/b&gt;&lt;br&gt;hypothetical protein&lt;br&gt;Location: 17818 - 18313" style="stroke:black; stroke-width:1; fill:#1515d8; " points="486,40 497,40 502,35 497,30 486,30 486,40 "  />
<polygon locus_tag="cds18356_19871" id="dummy-1_q16_0_all" class="clusterblast-orf" description="&lt;b&gt;cds18356_19871&lt;/b&gt;&lt;br&gt;ATP-binding protein&lt;br&gt;Location: 18356 - 19871" style="stroke:black; stroke-width:1; fill:#d81563; " points="504,40 549,40 554,35 549,30 504,30 504,40 "  />
<polygon locus_tag="cds19887_20457" id="dummy-1_q17_0_all" class="clusterblast-orf" description="&lt;b&gt;cds19887_20457&lt;/b&gt;&lt;br&gt;hypothetical protein&lt;br&gt;Location: 19887 - 20457" style="stroke:black; stroke-width:1; fill:#b1d815; " points="554,40 568,40 573,35 568,30 554,30 554,40 "  />
<polygon locus_tag="cds20524_20986" id="dummy-1_q18_0_all" class="clusterblast-orf" description="&lt;b&gt;cds20524_20986&lt;/b&gt;&lt;br&gt;hypothetical protein&lt;br&gt;Location: 20524 - 20986" style="stroke:black; stroke-width:1; fill:white; " points="575,40 586,40 591,35 586,30 575,30 575,40 "  />
<polygon locus_tag="cds21012_21165" id="dummy-1_q19_0_all" class="clusterblast-orf" description="&lt;b&gt;cds21012_21165&lt;/b&gt;&lt;br&gt;hypothetical protein&lt;br&gt;Location: 21012 - 21165" style="stroke:black; stroke-width:1; fill:white; " points="592,40 592,40 597,35 592,30 592,30 592,40 "  />
<polygon locus_tag="cds21232_21451" id="dummy-1_q20_0_all" class="clusterblast-orf" description="&lt;b&gt;cds21232_21451&lt;/b&gt;&lt;br&gt;hypothetical protein&lt;br&gt;Location: 21232 - 21451" style="stroke:black; stroke-width:1; fill:white; " points="599,35 604,30 606,30 606,40 604,40 599,35 "  />
<polygon locus_tag="cds21475_21874" id="dummy-1_q21_0_all" class="clusterblast-orf" description="&lt;b&gt;cds21475_21874&lt;/b&gt;&lt;br&gt;hypothetical protein&lt;br&gt;Location: 21475 - 21874" style="stroke:black; stroke-width:1; fill:white; " points="607,35 612,30 620,30 620,40 612,40 607,35 "  />
<polygon locus_tag="cds21948_22548" id="dummy-1_q22_0_all" class="clusterblast-orf" description="&lt;b&gt;cds21948_22548&lt;/b&gt;&lt;br&gt;hypothetical protein&lt;br&gt;Location: 21948 - 22548" style="stroke:black; stroke-width:1; fill:white; " points="623,35 628,30 642,30 642,40 628,40 623,35 "  />
<polygon locus_tag="cds22665_22893" id="dummy-1_q23_0_all" class="clusterblast-orf" description="&lt;b&gt;cds22665_22893&lt;/b&gt;&lt;br&gt;hypothetical protein&lt;br&gt;Location: 22665 - 22893" style="stroke:black; stroke-width:1; fill:white; " points="646,35 651,30 654,30 654,40 651,40 646,35 "  />
<polygon locus_tag="cds23418_23967" id="dummy-1_q24_0_all" class="clusterblast-orf" description="&lt;b&gt;cds23418_23967&lt;/b&gt;&lt;br&gt;hypothetical protein&lt;br&gt;Location: 23418 - 23967" style="stroke:black; stroke-width:1; fill:white; " points="671,40 684,40 689,35 684,30 671,30 671,40 "  />
<polygon locus_tag="cds23988_24225" id="dummy-1_q25_0_all" class="clusterblast-orf" description="&lt;b&gt;cds23988_24225&lt;/b&gt;&lt;br&gt;hypothetical protein&lt;br&gt;Location: 23988 - 24225" style="stroke:black; stroke-width:1; fill:white; " points="690,40 693,40 698,35 693,30 690,30 690,40 "  />
<polygon locus_tag="cds24238_25393" id="dummy-1_q26_0_all" class="clusterblast-orf" description="&lt;b&gt;cds24238_25393&lt;/b&gt;&lt;br&gt;hypothetical protein&lt;br&gt;Location: 24238 - 25393" style="stroke:black; stroke-width:1; fill:white; " points="698,40 732,40 737,35 732,30 698,30 698,40 "  />
<polygon locus_tag="cds25483_25648" id="dummy-1_q27_0_all" class="clusterblast-orf" description="&lt;b&gt;cds25483_25648&lt;/b&gt;&lt;br&gt;hypothetical protein&lt;br&gt;Location: 25483 - 25648" style="stroke:black; stroke-width:1; fill:white; " points="740,40 740,40 745,35 740,30 740,30 740,40 "  />
<polygon locus_tag="cds25672_26263" id="dummy-1_q28_0_all" class="clusterblast-orf" description="&lt;b&gt;cds25672_26263&lt;/b&gt;&lt;br&gt;hypothetical protein&lt;br&gt;Location: 25672 - 26263" style="stroke:black; stroke-width:1; fill:#15d8b1; " points="746,40 760,40 765,35 760,30 746,30 746,40 "  />
<polygon locus_tag="cds26259_26529" id="dummy-1_q29_0_all" class="clusterblast-orf" description="&lt;b&gt;cds26259_26529&lt;/b&gt;&lt;br&gt;FIG01134596: hypothetical protein&lt;br&gt;Location: 26259 - 26529" style="stroke:black; stroke-width:1; fill:#6315d8; " points="765,40 769,40 774,35 769,30 765,30 765,40 "  />
</g>
<g label="NZ_CP025394" class="clusterblast-cluster" description="NZ_CP025394 (1831360-1854916): Kitasatospora sp. MMS16-BH015 chromosome, comp... (15% of genes show similarity), lanthipeptide"  >
<text class="clusterblast-acc" y="70" x="5"  >
<a xlink:href="https://antismash-db.secondarymetabolites.org/area.html?record=NZ_CP025394&amp;start=1831360&amp;end=1854916" target="_blank">NZ_CP025394 (1831360-1854916)</a>: Kitasatospora sp. MMS16-BH015 chromosome, comp... (15% of genes show similarity), lanthipeptide</text>
<line x2="778.0" x1="10" y1="85" y2="85" style="stroke:grey; stroke-width:1; "  />
</g>
<g id="a1_000"  >
<polygon locus_tag="CFP65_RS07855" id="dummy-1_h1_7_0" class="clusterblast-orf" description="&lt;b&gt;CFP65_RS07855&lt;/b&gt;&lt;br&gt;DUF2029 domain-containing protein&lt;br&gt;Location: 1831361 - 1832674" style="stroke:black; stroke-width:1; fill:white; " points="0,90 38,90 43,85 38,80 0,80 0,90 "  />
</g>
<g id="a1_001"  >
<polygon locus_tag="CFP65_RS07860" id="dummy-1_h1_7_1" class="clusterblast-orf" description="&lt;b&gt;CFP65_RS07860&lt;/b&gt;&lt;br&gt;putative Ig domain-containing protein&lt;br&gt;Location: 1832698 - 1834413" style="stroke:black; stroke-width:1; fill:white; " points="44,85 49,80 101,80 101,90 49,90 44,85 "  />
</g>
<g id="a1_002"  >
<polygon locus_tag="CFP65_RS07865" id="dummy-1_h1_7_2" class="clusterblast-orf" description="&lt;b&gt;CFP65_RS07865&lt;/b&gt;&lt;br&gt;PPOX class F420-dependent oxidoreductase&lt;br&gt;Location: 1834524 - 1834907" style="stroke:black; stroke-width:1; fill:white; " points="104,90 112,90 117,85 112,80 104,80 104,90 "  />
</g>
<g id="a1_003"  >
<polygon locus_tag="CFP65_RS07870" id="dummy-1_h1_7_3" class="clusterblast-orf" description="&lt;b&gt;CFP65_RS07870&lt;/b&gt;&lt;br&gt;hypothetical protein&lt;br&gt;Location: 1835084 - 1835302" style="stroke:black; stroke-width:1; fill:white; " points="123,90 125,90 130,85 125,80 123,80 123,90 "  />
</g>
<g id="a1_004"  >
<polygon locus_tag="CFP65_RS07875" id="dummy-1_h1_7_4" class="clusterblast-orf" description="&lt;b&gt;CFP65_RS07875&lt;/b&gt;&lt;br&gt;esterase&lt;br&gt;Location: 1835456 - 1836568" style="stroke:black; stroke-width:1; fill:white; " points="135,90 167,90 172,85 167,80 135,80 135,90 "  />
</g>
<g id="a1_005"  >
<polygon locus_tag="CFP65_RS07880" id="dummy-1_h1_7_5" class="clusterblast-orf" description="&lt;b&gt;CFP65_RS07880&lt;/b&gt;&lt;br&gt;tetratricopeptide repeat protein&lt;br&gt;Location: 1836670 - 1839849&lt;br&gt;&lt;br&gt;&lt;b&gt;BlastP hit with cds10241_12401&lt;/b&gt;&lt;br&gt;Percentage identity: 35&lt;br&gt;Percentage coverage: 46&lt;br&gt;BLAST bit score: 144&lt;br&gt;E-value: 2.8e-32" style="stroke:black; stroke-width:1; fill:#d815b1; " points="175,85 180,80 281,80 281,90 180,90 175,85 "  />
</g>
<g id="a1_006"  >
<polygon locus_tag="NZ_CP025394_allorf_1840209_1840343" id="dummy-1_h1_7_6" class="clusterblast-orf" description="&lt;b&gt;NZ_CP025394_allorf_1840209_1840343&lt;/b&gt;&lt;br&gt;&lt;br&gt;Location: 1840209 - 1840343" style="stroke:black; stroke-width:1; fill:white; " points="292,90 292,90 297,85 292,80 292,80 292,90 "  />
</g>
<g id="a1_007"  >
<polygon locus_tag="CFP65_RS07885" id="dummy-1_h1_7_7" class="clusterblast-orf" description="&lt;b&gt;CFP65_RS07885&lt;/b&gt;&lt;br&gt;lantibiotic dehydratase&lt;br&gt;Location: 1840576 - 1843902&lt;br&gt;&lt;br&gt;&lt;b&gt;BlastP hit with cds13210_16216&lt;/b&gt;&lt;br&gt;Percentage identity: 33&lt;br&gt;Percentage coverage: 107&lt;br&gt;BLAST bit score: 391&lt;br&gt;E-value: 2.4e-106" style="stroke:black; stroke-width:1; fill:#d8b115; " points="305,90 410,90 415,85 410,80 305,80 305,90 "  />
</g>
<g id="a1_008"  >
<polygon locus_tag="CFP65_RS07890" id="dummy-1_h1_7_8" class="clusterblast-orf" description="&lt;b&gt;CFP65_RS07890&lt;/b&gt;&lt;br&gt;lanthionine synthetase C family protein&lt;br&gt;Location: 1843899 - 1845230&lt;br&gt;&lt;br&gt;&lt;b&gt;BlastP hit with cds16212_17757&lt;/b&gt;&lt;br&gt;Percentage identity: 39&lt;br&gt;Percentage coverage: 37&lt;br&gt;BLAST bit score: 106&lt;br&gt;E-value: 7.9e-21" style="stroke:black; stroke-width:1; fill:#15d863; " points="415,90 454,90 459,85 454,80 415,80 415,90 "  />
</g>
<g id="a1_009"  >
<polygon locus_tag="CFP65_RS07895" id="dummy-1_h1_7_9" class="clusterblast-orf" description="&lt;b&gt;CFP65_RS07895&lt;/b&gt;&lt;br&gt;ABC transporter ATP-binding protein&lt;br&gt;Location: 1845401 - 1847167" style="stroke:black; stroke-width:1; fill:white; " points="464,90 518,90 523,85 518,80 464,80 464,90 "  />
</g>
<g id="a1_0010"  >
<polygon locus_tag="CFP65_RS07900" id="dummy-1_h1_7_10" class="clusterblast-orf" description="&lt;b&gt;CFP65_RS07900&lt;/b&gt;&lt;br&gt;hypothetical protein&lt;br&gt;Location: 1847194 - 1847559" style="stroke:black; stroke-width:1; fill:white; " points="524,85 529,80 536,80 536,90 529,90 524,85 "  />
</g>
<g id="a1_0011"  >
<polygon locus_tag="CFP65_RS07905" id="dummy-1_h1_7_11" class="clusterblast-orf" description="&lt;b&gt;CFP65_RS07905&lt;/b&gt;&lt;br&gt;VOC family protein&lt;br&gt;Location: 1847758 - 1848180" style="stroke:black; stroke-width:1; fill:white; " points="542,90 551,90 556,85 551,80 542,80 542,90 "  />
</g>
<g id="a1_0012"  >
<polygon locus_tag="CFP65_RS07910" id="dummy-1_h1_7_12" class="clusterblast-orf" description="&lt;b&gt;CFP65_RS07910&lt;/b&gt;&lt;br&gt;GNAT family N-acetyltransferase&lt;br&gt;Location: 1848361 - 1849167" style="stroke:black; stroke-width:1; fill:white; " points="562,90 584,90 589,85 584,80 562,80 562,90 "  />
</g>
<g id="a1_0013"  >
<polygon locus_tag="CFP65_RS07915" id="dummy-1_h1_7_13" class="clusterblast-orf" description="&lt;b&gt;CFP65_RS07915&lt;/b&gt;&lt;br&gt;translation initiation factor IF-1&lt;br&gt;Location: 1849231 - 1849455" style="stroke:black; stroke-width:1; fill:white; " points="591,90 594,90 599,85 594,80 591,80 591,90 "  />
</g>
<g id="a1_0014"  >
<polygon locus_tag="CFP65_RS07920" id="dummy-1_h1_7_14" class="clusterblast-orf" description="&lt;b&gt;CFP65_RS07920&lt;/b&gt;&lt;br&gt;SGNH/GDSL hydrolase family protein&lt;br&gt;Location: 1849486 - 1850313" style="stroke:black; stroke-width:1; fill:white; " points="600,85 605,80 627,80 627,90 605,90 600,85 "  />
</g>
<g id="a1_0015"  >
<polygon locus_tag="CFP65_RS07925" id="dummy-1_h1_7_15" class="clusterblast-orf" description="&lt;b&gt;CFP65_RS07925&lt;/b&gt;&lt;br&gt;SRPBCC domain-containing protein&lt;br&gt;Location: 1850469 - 1850951" style="stroke:black; stroke-width:1; fill:white; " points="632,90 643,90 648,85 643,80 632,80 632,90 "  />
</g>
<g id="a1_0016"  >
<polygon locus_tag="CFP65_RS07930" id="dummy-1_h1_7_16" class="clusterblast-orf" description="&lt;b&gt;CFP65_RS07930&lt;/b&gt;&lt;br&gt;GNAT family N-acetyltransferase&lt;br&gt;Location: 1851131 - 1852039" style="stroke:black; stroke-width:1; fill:white; " points="654,90 679,90 684,85 679,80 654,80 654,90 "  />
</g>
<g id="a1_0017"  >
<polygon locus_tag="CFP65_RS07935" id="dummy-1_h1_7_17" class="clusterblast-orf" description="&lt;b&gt;CFP65_RS07935&lt;/b&gt;&lt;br&gt;WYL domain-containing transcriptional regulator&lt;br&gt;Location: 1852229 - 1853248" style="stroke:black; stroke-width:1; fill:white; " points="691,85 696,80 724,80 724,90 696,90 691,85 "  />
</g>
<g id="a1_0018"  >
<polygon locus_tag="CFP65_RS07940" id="dummy-1_h1_7_18" class="clusterblast-orf" description="&lt;b&gt;CFP65_RS07940&lt;/b&gt;&lt;br&gt;alpha/beta hydrolase&lt;br&gt;Location: 1853414 - 1854100" style="stroke:black; stroke-width:1; fill:white; " points="730,90 747,90 752,85 747,80 730,80 730,90 "  />
</g>
<g id="a1_0019"  >
<polygon locus_tag="CFP65_RS07945" id="dummy-1_h1_7_19" class="clusterblast-orf" description="&lt;b&gt;CFP65_RS07945&lt;/b&gt;&lt;br&gt;hypothetical protein&lt;br&gt;Location: 1854353 - 1854916" style="stroke:black; stroke-width:1; fill:white; " points="761,90 775,90 780,85 775,80 761,80 761,90 "  />
</g>
</svg>
