<svg xmlns="http://www.w3.org/2000/svg" version="1.1" y="0" x="0" preserveAspectRatio="none" xmlns:xlink="http://www.w3.org/1999/xlink" viewBox="0 0 800 230" height="230" width="800"  >
<g label="Query sequence" class="clusterblast-cluster"  >
<text class="clusterblast-acc" y="20" x="5"  >
Query sequence</text>
<line x2="778.0" x1="10" y1="35" y2="35" style="stroke:grey; stroke-width:1; "  />
<polygon locus_tag="cds6555_7800" id="dummy-1_q0_0_all" class="clusterblast-orf" description="&lt;b&gt;cds6555_7800&lt;/b&gt;&lt;br&gt;Steroid C27-monooxygenase (EC 1.14.13.141)&lt;br&gt;Location: 6555 - 7800" style="stroke:black; stroke-width:1; fill:#d81515; " points="87,35 92,30 136,30 136,40 92,40 87,35 "  />
<polygon locus_tag="cds8102_9272" id="dummy-1_q1_0_all" class="clusterblast-orf" description="&lt;b&gt;cds8102_9272&lt;/b&gt;&lt;br&gt;Acetyl-CoA acetyltransferase (EC 2.3.1.9)&lt;br&gt;Location: 8102 - 9272" style="stroke:black; stroke-width:1; fill:#33d815; " points="147,40 187,40 192,35 187,30 147,30 147,40 "  />
<polygon locus_tag="cds9761_10172" id="dummy-1_q2_0_all" class="clusterblast-orf" description="&lt;b&gt;cds9761_10172&lt;/b&gt;&lt;br&gt;putative secreted protein&lt;br&gt;Location: 9761 - 10172" style="stroke:black; stroke-width:1; fill:#15abd8; " points="211,35 216,30 227,30 227,40 216,40 211,35 "  />
<polygon locus_tag="cds10554_11496" id="dummy-1_q3_0_all" class="clusterblast-orf" description="&lt;b&gt;cds10554_11496&lt;/b&gt;&lt;br&gt;Substrate-specific component CbrT of predicted cobalamin ECF transporter&lt;br&gt;Location: 10554 - 11496" style="stroke:black; stroke-width:1; fill:#8d15d8; " points="242,35 247,30 278,30 278,40 247,40 242,35 "  />
<polygon locus_tag="cds11488_13186" id="dummy-1_q4_0_all" class="clusterblast-orf" description="&lt;b&gt;cds11488_13186&lt;/b&gt;&lt;br&gt;Duplicated ATPase component CbrU of energizing module of predicted cobalamin ECF transporter&lt;br&gt;Location: 11488 - 13186" style="stroke:black; stroke-width:1; fill:#d86f15; " points="278,35 283,30 344,30 344,40 283,40 278,35 "  />
<polygon locus_tag="cds13182_14352" id="dummy-1_q5_0_all" class="clusterblast-orf" description="&lt;b&gt;cds13182_14352&lt;/b&gt;&lt;br&gt;Transmembrane component CbrV of energizing module of predicted cobalamin ECF transporter&lt;br&gt;Location: 13182 - 14352" style="stroke:black; stroke-width:1; fill:#15d851; " points="343,35 348,30 389,30 389,40 348,40 343,35 "  />
<polygon locus_tag="cds14365_15097" id="dummy-1_q6_0_all" class="clusterblast-orf" description="&lt;b&gt;cds14365_15097&lt;/b&gt;&lt;br&gt;hypothetical protein&lt;br&gt;Location: 14365 - 15097" style="stroke:black; stroke-width:1; fill:#1551d8; " points="389,35 394,30 417,30 417,40 394,40 389,35 "  />
<polygon locus_tag="cds15093_16320" id="dummy-1_q7_0_all" class="clusterblast-orf" description="&lt;b&gt;cds15093_16320&lt;/b&gt;&lt;br&gt;hypothetical protein&lt;br&gt;Location: 15093 - 16320" style="stroke:black; stroke-width:1; fill:#d815c9; " points="417,35 422,30 465,30 465,40 422,40 417,35 "  />
<polygon locus_tag="cds16793_17846" id="dummy-1_q8_0_all" class="clusterblast-orf" description="&lt;b&gt;cds16793_17846&lt;/b&gt;&lt;br&gt;MBL-fold metallo-hydrolase superfamily&lt;br&gt;Location: 16793 - 17846" style="stroke:black; stroke-width:1; fill:#d8c915; " points="483,35 488,30 524,30 524,40 488,40 483,35 "  />
<polygon locus_tag="cds17998_19501" id="dummy-1_q9_0_all" class="clusterblast-orf" description="&lt;b&gt;cds17998_19501&lt;/b&gt;&lt;br&gt;Aldehyde dehydrogenase (EC 1.2.1.3)&lt;br&gt;Location: 17998 - 19501" style="stroke:black; stroke-width:1; fill:#15d8ab; " points="529,40 583,40 588,35 583,30 529,30 529,40 "  />
<polygon locus_tag="cds19500_19740" id="dummy-1_q10_0_all" class="clusterblast-orf" description="&lt;b&gt;cds19500_19740&lt;/b&gt;&lt;br&gt;Ferredoxin&lt;br&gt;Location: 19500 - 19740" style="stroke:black; stroke-width:1; fill:#3315d8; " points="587,40 592,40 597,35 592,30 587,30 587,40 "  />
<polygon locus_tag="cds19856_20489" id="dummy-1_q11_0_all" class="clusterblast-orf" description="&lt;b&gt;cds19856_20489&lt;/b&gt;&lt;br&gt;Transcriptional regulator, AcrR family&lt;br&gt;Location: 19856 - 20489" style="stroke:black; stroke-width:1; fill:#d8156f; " points="601,35 606,30 626,30 626,40 606,40 601,35 "  />
<polygon locus_tag="cds20809_22213" id="dummy-1_q12_0_all" class="clusterblast-orf" description="&lt;b&gt;cds20809_22213&lt;/b&gt;&lt;br&gt;Glycosyltransferase SCO2318&lt;br&gt;Location: 20809 - 22213" style="stroke:black; stroke-width:1; fill:#8dd815; " points="638,40 687,40 692,35 687,30 638,30 638,40 "  />
</g>
<g label="NC_015957" class="clusterblast-cluster" description="NC_015957 (8459430-8479625): Streptomyces violaceusniger Tu 4113, complete se... (70% of genes show similarity), terpene"  >
<text class="clusterblast-acc" y="70" x="5"  >
<a xlink:href="https://antismash-db.secondarymetabolites.org/area.html?record=NC_015957&amp;start=8459430&amp;end=8479625" target="_blank">NC_015957 (8459430-8479625)</a>: Streptomyces violaceusniger Tu 4113, complete se... (70% of genes show similarity), terpene</text>
<line x2="778.0" x1="10" y1="85" y2="85" style="stroke:grey; stroke-width:1; "  />
</g>
<g id="a1_000"  >
<polygon locus_tag="STRVI_RS34725" id="dummy-1_h1_7_0" class="clusterblast-orf" description="&lt;b&gt;STRVI_RS34725&lt;/b&gt;&lt;br&gt;SDR family oxidoreductase&lt;br&gt;Location: 8479625 - 8478882" style="stroke:black; stroke-width:1; fill:white; " points="0,90 23,90 28,85 23,80 0,80 0,90 "  />
</g>
<g id="a1_001"  >
<polygon locus_tag="STRVI_RS34720" id="dummy-1_h1_7_1" class="clusterblast-orf" description="&lt;b&gt;STRVI_RS34720&lt;/b&gt;&lt;br&gt;cytochrome P450&lt;br&gt;Location: 8478846 - 8477614&lt;br&gt;&lt;br&gt;&lt;b&gt;BlastP hit with cds6555_7800&lt;/b&gt;&lt;br&gt;Percentage identity: 78&lt;br&gt;Percentage coverage: 99&lt;br&gt;BLAST bit score: 646&lt;br&gt;E-value: 1.7e-183" style="stroke:black; stroke-width:1; fill:#d81515; " points="30,85 35,80 77,80 77,90 35,90 30,85 "  />
</g>
<g id="a1_002"  >
<polygon locus_tag="STRVI_RS34715" id="dummy-1_h1_7_2" class="clusterblast-orf" description="&lt;b&gt;STRVI_RS34715&lt;/b&gt;&lt;br&gt;steroid 3-ketoacyl-CoA thiolase&lt;br&gt;Location: 8477352 - 8476183&lt;br&gt;&lt;br&gt;&lt;b&gt;BlastP hit with cds8102_9272&lt;/b&gt;&lt;br&gt;Percentage identity: 88&lt;br&gt;Percentage coverage: 100&lt;br&gt;BLAST bit score: 690&lt;br&gt;E-value: 7.5e-197" style="stroke:black; stroke-width:1; fill:#33d815; " points="87,90 127,90 132,85 127,80 87,80 87,90 "  />
</g>
<g id="a1_003"  >
<polygon locus_tag="STRVI_RS34710" id="dummy-1_h1_7_3" class="clusterblast-orf" description="&lt;b&gt;STRVI_RS34710&lt;/b&gt;&lt;br&gt;ECF transporter S component&lt;br&gt;Location: 8476199 - 8475213&lt;br&gt;&lt;br&gt;&lt;b&gt;BlastP hit with cds10554_11496&lt;/b&gt;&lt;br&gt;Percentage identity: 81&lt;br&gt;Percentage coverage: 74&lt;br&gt;BLAST bit score: 371&lt;br&gt;E-value: 6.2e-101" style="stroke:black; stroke-width:1; fill:#8d15d8; " points="132,85 137,80 170,80 170,90 137,90 132,85 "  />
</g>
<g id="a1_004"  >
<polygon locus_tag="STRVI_RS34705" id="dummy-1_h1_7_4" class="clusterblast-orf" description="&lt;b&gt;STRVI_RS34705&lt;/b&gt;&lt;br&gt;energy-coupling factor ABC transporter ATP-binding protein&lt;br&gt;Location: 8474916 - 8473294&lt;br&gt;&lt;br&gt;&lt;b&gt;BlastP hit with cds11488_13186&lt;/b&gt;&lt;br&gt;Percentage identity: 79&lt;br&gt;Percentage coverage: 99&lt;br&gt;BLAST bit score: 809&lt;br&gt;E-value: 2.7e-232" style="stroke:black; stroke-width:1; fill:#d86f15; " points="181,85 186,80 244,80 244,90 186,90 181,85 "  />
</g>
<g id="a1_005"  >
<polygon locus_tag="STRVI_RS51295" id="dummy-1_h1_7_5" class="clusterblast-orf" description="&lt;b&gt;STRVI_RS51295&lt;/b&gt;&lt;br&gt;energy-coupling factor transporter transmembrane protein EcfT&lt;br&gt;Location: 8472751 - 8471714&lt;br&gt;&lt;br&gt;&lt;b&gt;BlastP hit with cds13182_14352&lt;/b&gt;&lt;br&gt;Percentage identity: 83&lt;br&gt;Percentage coverage: 89&lt;br&gt;BLAST bit score: 527&lt;br&gt;E-value: 8.4e-148" style="stroke:black; stroke-width:1; fill:#15d851; " points="265,85 270,80 305,80 305,90 270,90 265,85 "  />
</g>
<g id="a1_006"  >
<polygon locus_tag="STRVI_RS34695" id="dummy-1_h1_7_6" class="clusterblast-orf" description="&lt;b&gt;STRVI_RS34695&lt;/b&gt;&lt;br&gt;hypothetical protein&lt;br&gt;Location: 8471549 - 8470872&lt;br&gt;&lt;br&gt;&lt;b&gt;BlastP hit with cds14365_15097&lt;/b&gt;&lt;br&gt;Percentage identity: 59&lt;br&gt;Percentage coverage: 75&lt;br&gt;BLAST bit score: 197&lt;br&gt;E-value: 1.6e-48" style="stroke:black; stroke-width:1; fill:#1551d8; " points="311,85 316,80 338,80 338,90 316,90 311,85 "  />
</g>
<g id="a1_007"  >
<polygon locus_tag="STRVI_RS34690" id="dummy-1_h1_7_7" class="clusterblast-orf" description="&lt;b&gt;STRVI_RS34690&lt;/b&gt;&lt;br&gt;hypothetical protein&lt;br&gt;Location: 8470494 - 8469184&lt;br&gt;&lt;br&gt;&lt;b&gt;BlastP hit with cds15093_16320&lt;/b&gt;&lt;br&gt;Percentage identity: 53&lt;br&gt;Percentage coverage: 108&lt;br&gt;BLAST bit score: 348&lt;br&gt;E-value: 9.5e-94" style="stroke:black; stroke-width:1; fill:#d815c9; " points="352,85 357,80 403,80 403,90 357,90 352,85 "  />
</g>
<g id="a1_008"  >
<polygon locus_tag="STRVI_RS34685" id="dummy-1_h1_7_8" class="clusterblast-orf" description="&lt;b&gt;STRVI_RS34685&lt;/b&gt;&lt;br&gt;GNAT family N-acetyltransferase&lt;br&gt;Location: 8468859 - 8468338" style="stroke:black; stroke-width:1; fill:white; " points="415,85 420,80 435,80 435,90 420,90 415,85 "  />
</g>
<g id="a1_009"  >
<polygon locus_tag="STRVI_RS34680" id="dummy-1_h1_7_9" class="clusterblast-orf" description="&lt;b&gt;STRVI_RS34680&lt;/b&gt;&lt;br&gt;cytochrome P450&lt;br&gt;Location: 8468261 - 8466741" style="stroke:black; stroke-width:1; fill:white; " points="438,85 443,80 497,80 497,90 443,90 438,85 "  />
</g>
<g id="a1_0010"  >
<polygon locus_tag="STRVI_RS34675" id="dummy-1_h1_7_10" class="clusterblast-orf" description="&lt;b&gt;STRVI_RS34675&lt;/b&gt;&lt;br&gt;MBL fold metallo-hydrolase&lt;br&gt;Location: 8466527 - 8465475&lt;br&gt;&lt;br&gt;&lt;b&gt;BlastP hit with cds16793_17846&lt;/b&gt;&lt;br&gt;Percentage identity: 77&lt;br&gt;Percentage coverage: 99&lt;br&gt;BLAST bit score: 549&lt;br&gt;E-value: 2.4e-154" style="stroke:black; stroke-width:1; fill:#d8c915; " points="505,85 510,80 546,80 546,90 510,90 505,85 "  />
</g>
<g id="a1_0011"  >
<polygon locus_tag="STRVI_RS34670" id="dummy-1_h1_7_11" class="clusterblast-orf" description="&lt;b&gt;STRVI_RS34670&lt;/b&gt;&lt;br&gt;aldehyde dehydrogenase&lt;br&gt;Location: 8465232 - 8463766&lt;br&gt;&lt;br&gt;&lt;b&gt;BlastP hit with cds17998_19501&lt;/b&gt;&lt;br&gt;Percentage identity: 77&lt;br&gt;Percentage coverage: 97&lt;br&gt;BLAST bit score: 759&lt;br&gt;E-value: 1.7e-217" style="stroke:black; stroke-width:1; fill:#15d8ab; " points="555,90 607,90 612,85 607,80 555,80 555,90 "  />
</g>
<g id="a1_0012"  >
<polygon locus_tag="STRVI_RS34665" id="dummy-1_h1_7_12" class="clusterblast-orf" description="&lt;b&gt;STRVI_RS34665&lt;/b&gt;&lt;br&gt;ferredoxin&lt;br&gt;Location: 8463766 - 8463533&lt;br&gt;&lt;br&gt;&lt;b&gt;BlastP hit with cds19500_19740&lt;/b&gt;&lt;br&gt;Percentage identity: 73&lt;br&gt;Percentage coverage: 97&lt;br&gt;BLAST bit score: 121&lt;br&gt;E-value: 4.8e-26" style="stroke:black; stroke-width:1; fill:#3315d8; " points="612,90 616,90 621,85 616,80 612,80 612,90 "  />
</g>
<g id="a1_0013"  >
<polygon locus_tag="STRVI_RS34660" id="dummy-1_h1_7_13" class="clusterblast-orf" description="&lt;b&gt;STRVI_RS34660&lt;/b&gt;&lt;br&gt;response regulator transcription factor&lt;br&gt;Location: 8463504 - 8462920" style="stroke:black; stroke-width:1; fill:white; " points="622,85 627,80 645,80 645,90 627,90 622,85 "  />
</g>
<g id="a1_0014"  >
<polygon locus_tag="STRVI_RS34655" id="dummy-1_h1_7_14" class="clusterblast-orf" description="&lt;b&gt;STRVI_RS34655&lt;/b&gt;&lt;br&gt;TetR/AcrR family transcriptional regulator&lt;br&gt;Location: 8462612 - 8461998&lt;br&gt;&lt;br&gt;&lt;b&gt;BlastP hit with cds19856_20489&lt;/b&gt;&lt;br&gt;Percentage identity: 86&lt;br&gt;Percentage coverage: 98&lt;br&gt;BLAST bit score: 327&lt;br&gt;E-value: 1.2e-87" style="stroke:black; stroke-width:1; fill:#d8156f; " points="657,85 662,80 680,80 680,90 662,90 657,85 "  />
</g>
<g id="a1_0015"  >
<polygon locus_tag="STRVI_RS34650" id="dummy-1_h1_7_15" class="clusterblast-orf" description="&lt;b&gt;STRVI_RS34650&lt;/b&gt;&lt;br&gt;glycosyltransferase family 4 protein&lt;br&gt;Location: 8461579 - 8460242&lt;br&gt;&lt;br&gt;&lt;b&gt;BlastP hit with cds20809_22213&lt;/b&gt;&lt;br&gt;Percentage identity: 80&lt;br&gt;Percentage coverage: 93&lt;br&gt;BLAST bit score: 667&lt;br&gt;E-value: 1.1e-189" style="stroke:black; stroke-width:1; fill:#8dd815; " points="697,90 743,90 748,85 743,80 697,80 697,90 "  />
</g>
<g id="a1_0016"  >
<polygon locus_tag="STRVI_RS34645" id="dummy-1_h1_7_16" class="clusterblast-orf" description="&lt;b&gt;STRVI_RS34645&lt;/b&gt;&lt;br&gt;class I SAM-dependent methyltransferase&lt;br&gt;Location: 8460174 - 8459431" style="stroke:black; stroke-width:1; fill:white; " points="751,90 775,90 780,85 775,80 751,80 751,90 "  />
</g>
</svg>
