<svg xmlns="http://www.w3.org/2000/svg" version="1.1" y="0" x="0" preserveAspectRatio="none" xmlns:xlink="http://www.w3.org/1999/xlink" viewBox="0 0 800 230" height="230" width="800"  >
<g label="Query sequence" class="clusterblast-cluster"  >
<text class="clusterblast-acc" y="20" x="5"  >
Query sequence</text>
<line x2="778.0" x1="10" y1="35" y2="35" style="stroke:grey; stroke-width:1; "  />
<polygon locus_tag="cds1_1051" id="dummy-1_q0_0_all" class="clusterblast-orf" description="&lt;b&gt;cds1_1051&lt;/b&gt;&lt;br&gt;putative decarboxylase&lt;br&gt;Location: 1 - 1051" style="stroke:black; stroke-width:1; fill:#d81515; " points="63,35 68,30 71,30 71,40 68,40 63,35 "  />
<polygon locus_tag="cds1471_2512" id="dummy-1_q1_0_all" class="clusterblast-orf" description="&lt;b&gt;cds1471_2512&lt;/b&gt;&lt;br&gt;D-3-phosphoglycerate dehydrogenase (EC 1.1.1.95)&lt;br&gt;Location: 1471 - 2512" style="stroke:black; stroke-width:1; fill:#63d815; " points="75,40 78,40 83,35 78,30 75,30 75,40 "  />
<polygon locus_tag="cds2665_4075" id="dummy-1_q2_0_all" class="clusterblast-orf" description="&lt;b&gt;cds2665_4075&lt;/b&gt;&lt;br&gt;Amidase family protein SAV 5232&lt;br&gt;Location: 2665 - 4075" style="stroke:black; stroke-width:1; fill:#15cbd8; " points="84,40 91,40 96,35 91,30 84,30 84,40 "  />
<polygon locus_tag="cds4081_4579" id="dummy-1_q3_0_all" class="clusterblast-orf" description="&lt;b&gt;cds4081_4579&lt;/b&gt;&lt;br&gt;hypothetical protein&lt;br&gt;Location: 4081 - 4579" style="stroke:black; stroke-width:1; fill:#7d15d8; " points="96,35 100,30 100,40 96,35 "  />
<polygon locus_tag="cds4778_5612" id="dummy-1_q4_0_all" class="clusterblast-orf" description="&lt;b&gt;cds4778_5612&lt;/b&gt;&lt;br&gt;Ectoine/hydroxyectoine ABC transporter solute-binding protein, EhuB&lt;br&gt;Location: 4778 - 5612" style="stroke:black; stroke-width:1; fill:#d82f15; " points="101,40 103,40 108,35 103,30 101,30 101,40 "  />
<polygon locus_tag="cds5608_6364" id="dummy-1_q5_0_all" class="clusterblast-orf" description="&lt;b&gt;cds5608_6364&lt;/b&gt;&lt;br&gt;Ectoine/hydroxyectoine ABC transporter permease protein, EhuC&lt;br&gt;Location: 5608 - 6364" style="stroke:black; stroke-width:1; fill:#49d815; " points="108,40 109,40 114,35 109,30 108,30 108,40 "  />
<polygon locus_tag="cds6360_7101" id="dummy-1_q6_0_all" class="clusterblast-orf" description="&lt;b&gt;cds6360_7101&lt;/b&gt;&lt;br&gt;Ectoine/hydroxyectoine ABC transporter permease protein, EhuD&lt;br&gt;Location: 6360 - 7101" style="stroke:black; stroke-width:1; fill:#49d815; " points="114,40 115,40 120,35 115,30 114,30 114,40 "  />
<polygon locus_tag="cds7090_7906" id="dummy-1_q7_0_all" class="clusterblast-orf" description="&lt;b&gt;cds7090_7906&lt;/b&gt;&lt;br&gt;Ectoine/hydroxyectoine ABC transporter ATP-binding protein, EhuA&lt;br&gt;Location: 7090 - 7906" style="stroke:black; stroke-width:1; fill:#15b1d8; " points="120,40 122,40 127,35 122,30 120,30 120,40 "  />
<polygon locus_tag="cds8060_8819" id="dummy-1_q8_0_all" class="clusterblast-orf" description="&lt;b&gt;cds8060_8819&lt;/b&gt;&lt;br&gt;Transcriptional regulator, IclR family&lt;br&gt;Location: 8060 - 8819" style="stroke:black; stroke-width:1; fill:#9715d8; " points="128,40 129,40 134,35 129,30 128,30 128,40 "  />
<polygon locus_tag="cds9154_10063" id="dummy-1_q9_0_all" class="clusterblast-orf" description="&lt;b&gt;cds9154_10063&lt;/b&gt;&lt;br&gt;L-threonine kinase in B12 biosynthesis (EC 2.7.1.177)&lt;br&gt;Location: 9154 - 10063" style="stroke:black; stroke-width:1; fill:#d84915; " points="137,35 142,30 144,30 144,40 142,40 137,35 "  />
<polygon locus_tag="cds10059_13410" id="dummy-1_q10_0_all" class="clusterblast-orf" description="&lt;b&gt;cds10059_13410&lt;/b&gt;&lt;br&gt;Polyketide synthase modules and related proteins&lt;br&gt;Location: 10059 - 13410" style="stroke:black; stroke-width:1; fill:#2fd815; " points="144,35 149,30 171,30 171,40 149,40 144,35 "  />
<polygon locus_tag="cds13406_14666" id="dummy-1_q11_0_all" class="clusterblast-orf" description="&lt;b&gt;cds13406_14666&lt;/b&gt;&lt;br&gt;hypothetical protein&lt;br&gt;Location: 13406 - 14666" style="stroke:black; stroke-width:1; fill:#1597d8; " points="171,35 176,30 181,30 181,40 176,40 171,35 "  />
<polygon locus_tag="cds14662_16132" id="dummy-1_q12_0_all" class="clusterblast-orf" description="&lt;b&gt;cds14662_16132&lt;/b&gt;&lt;br&gt;Argininosuccinate lyase (EC 4.3.2.1)&lt;br&gt;Location: 14662 - 16132" style="stroke:black; stroke-width:1; fill:#2fd815; " points="181,35 186,30 193,30 193,40 186,40 181,35 "  />
<polygon locus_tag="cds16128_17211" id="dummy-1_q13_0_all" class="clusterblast-orf" description="&lt;b&gt;cds16128_17211&lt;/b&gt;&lt;br&gt;Cysteine synthase (EC 2.5.1.47)&lt;br&gt;Location: 16128 - 17211" style="stroke:black; stroke-width:1; fill:#1597d8; " points="193,35 198,30 202,30 202,40 198,40 193,35 "  />
<polygon locus_tag="cds17408_18149" id="dummy-1_q14_0_all" class="clusterblast-orf" description="&lt;b&gt;cds17408_18149&lt;/b&gt;&lt;br&gt;Thioesterase in siderophore biosynthesis gene cluster&lt;br&gt;Location: 17408 - 18149" style="stroke:black; stroke-width:1; fill:#b115d8; " points="203,40 204,40 209,35 204,30 203,30 203,40 "  />
<polygon locus_tag="cds18458_20057" id="dummy-1_q15_0_all" class="clusterblast-orf" description="&lt;b&gt;cds18458_20057&lt;/b&gt;&lt;br&gt;2-keto-3-deoxy-D-arabino-heptulosonate-7- phosphate synthase II (EC 2.5.1.54)&lt;br&gt;Location: 18458 - 20057" style="stroke:black; stroke-width:1; fill:#d86315; " points="212,35 217,30 225,30 225,40 217,40 212,35 "  />
<polygon locus_tag="cds20195_21815" id="dummy-1_q16_0_all" class="clusterblast-orf" description="&lt;b&gt;cds20195_21815&lt;/b&gt;&lt;br&gt;Anthranilate synthase, aminase component (EC 4.1.3.27)&lt;br&gt;Location: 20195 - 21815" style="stroke:black; stroke-width:1; fill:#15d815; " points="226,40 234,40 239,35 234,30 226,30 226,40 "  />
<polygon locus_tag="cds21811_22498" id="dummy-1_q17_0_all" class="clusterblast-orf" description="&lt;b&gt;cds21811_22498&lt;/b&gt;&lt;br&gt;Anthranilate synthase, amidotransferase component (EC 4.1.3.27)&lt;br&gt;Location: 21811 - 22498" style="stroke:black; stroke-width:1; fill:#157dd8; " points="239,40 239,40 244,35 239,30 239,30 239,40 "  />
<polygon locus_tag="cds22463_23873" id="dummy-1_q18_0_all" class="clusterblast-orf" description="&lt;b&gt;cds22463_23873&lt;/b&gt;&lt;br&gt;Transcriptional regulator, GntR family domain / Aspartate aminotransferase (EC 2.6.1.1)&lt;br&gt;Location: 22463 - 23873" style="stroke:black; stroke-width:1; fill:#cb15d8; " points="244,35 249,30 255,30 255,40 249,40 244,35 "  />
<polygon locus_tag="cds24137_25193" id="dummy-1_q19_0_all" class="clusterblast-orf" description="&lt;b&gt;cds24137_25193&lt;/b&gt;&lt;br&gt;Anthranilate phosphoribosyltransferase (EC 2.4.2.18)&lt;br&gt;Location: 24137 - 25193" style="stroke:black; stroke-width:1; fill:#d87d15; " points="257,40 261,40 266,35 261,30 257,30 257,40 "  />
<polygon locus_tag="cds25465_26272" id="dummy-1_q20_0_all" class="clusterblast-orf" description="&lt;b&gt;cds25465_26272&lt;/b&gt;&lt;br&gt;Indole-3-glycerol phosphate synthase (EC 4.1.1.48)&lt;br&gt;Location: 25465 - 26272" style="stroke:black; stroke-width:1; fill:#15d82f; " points="268,35 273,30 275,30 275,40 273,40 268,35 "  />
<polygon locus_tag="cds26575_27505" id="dummy-1_q21_0_all" class="clusterblast-orf" description="&lt;b&gt;cds26575_27505&lt;/b&gt;&lt;br&gt;hypothetical protein&lt;br&gt;Location: 26575 - 27505" style="stroke:black; stroke-width:1; fill:#1563d8; " points="277,35 282,30 285,30 285,40 282,40 277,35 "  />
<polygon locus_tag="cds27497_28754" id="dummy-1_q22_0_all" class="clusterblast-orf" description="&lt;b&gt;cds27497_28754&lt;/b&gt;&lt;br&gt;Putative cytochrome P450 hydroxylase&lt;br&gt;Location: 27497 - 28754" style="stroke:black; stroke-width:1; fill:#d815cb; " points="285,35 290,30 295,30 295,40 290,40 285,35 "  />
<polygon locus_tag="cds28893_29781" id="dummy-1_q23_0_all" class="clusterblast-orf" description="&lt;b&gt;cds28893_29781&lt;/b&gt;&lt;br&gt;Efflux ABC transporter, permease protein&lt;br&gt;Location: 28893 - 29781" style="stroke:black; stroke-width:1; fill:#d89715; " points="296,35 301,30 303,30 303,40 301,40 296,35 "  />
<polygon locus_tag="cds29777_41327" id="dummy-1_q24_0_all" class="clusterblast-orf" description="&lt;b&gt;cds29777_41327&lt;/b&gt;&lt;br&gt;Polyketide synthase modules and related proteins&lt;br&gt;Location: 29777 - 41327" style="stroke:black; stroke-width:1; fill:#2fd815; " points="303,35 308,30 396,30 396,40 308,40 303,35 "  />
<polygon locus_tag="cds41355_42237" id="dummy-1_q25_0_all" class="clusterblast-orf" description="&lt;b&gt;cds41355_42237&lt;/b&gt;&lt;br&gt;hypothetical protein&lt;br&gt;Location: 41355 - 42237" style="stroke:black; stroke-width:1; fill:#15d849; " points="396,35 401,30 403,30 403,40 401,40 396,35 "  />
<polygon locus_tag="cds42250_43015" id="dummy-1_q26_0_all" class="clusterblast-orf" description="&lt;b&gt;cds42250_43015&lt;/b&gt;&lt;br&gt;Oxidoreductase, short-chain dehydrogenase/reductase family&lt;br&gt;Location: 42250 - 43015" style="stroke:black; stroke-width:1; fill:#1549d8; " points="403,35 408,30 410,30 410,40 408,40 403,35 "  />
<polygon locus_tag="cds43116_44199" id="dummy-1_q27_0_all" class="clusterblast-orf" description="&lt;b&gt;cds43116_44199&lt;/b&gt;&lt;br&gt;3-oxoacyl-[acyl-carrier-protein] synthase, KASII (EC 2.3.1.179)&lt;br&gt;Location: 43116 - 44199" style="stroke:black; stroke-width:1; fill:#d815b1; " points="410,35 415,30 419,30 419,40 415,40 410,35 "  />
<polygon locus_tag="cds44198_45431" id="dummy-1_q28_0_all" class="clusterblast-orf" description="&lt;b&gt;cds44198_45431&lt;/b&gt;&lt;br&gt;3-oxoacyl-[acyl-carrier-protein] synthase, KASII (EC 2.3.1.179)&lt;br&gt;Location: 44198 - 45431" style="stroke:black; stroke-width:1; fill:#d8b115; " points="419,35 424,30 429,30 429,40 424,40 419,35 "  />
<polygon locus_tag="cds45453_45732" id="dummy-1_q29_0_all" class="clusterblast-orf" description="&lt;b&gt;cds45453_45732&lt;/b&gt;&lt;br&gt;Acyl carrier protein&lt;br&gt;Location: 45453 - 45732" style="stroke:black; stroke-width:1; fill:#15d863; " points="429,35 432,30 432,40 429,35 "  />
<polygon locus_tag="cds46013_46994" id="dummy-1_q30_0_all" class="clusterblast-orf" description="&lt;b&gt;cds46013_46994&lt;/b&gt;&lt;br&gt;Transcriptional regulator, LysR family&lt;br&gt;Location: 46013 - 46994" style="stroke:black; stroke-width:1; fill:#152fd8; " points="434,35 439,30 442,30 442,40 439,40 434,35 "  />
<polygon locus_tag="cds47208_48006" id="dummy-1_q31_0_all" class="clusterblast-orf" description="&lt;b&gt;cds47208_48006&lt;/b&gt;&lt;br&gt;hypothetical protein&lt;br&gt;Location: 47208 - 48006" style="stroke:black; stroke-width:1; fill:#d81597; " points="443,35 448,30 450,30 450,40 448,40 443,35 "  />
<polygon locus_tag="cds48196_50554" id="dummy-1_q32_0_all" class="clusterblast-orf" description="&lt;b&gt;cds48196_50554&lt;/b&gt;&lt;br&gt;Integral membrane protein&lt;br&gt;Location: 48196 - 50554" style="stroke:black; stroke-width:1; fill:#d8cb15; " points="451,35 456,30 470,30 470,40 456,40 451,35 "  />
<polygon locus_tag="cds51109_52660" id="dummy-1_q33_0_all" class="clusterblast-orf" description="&lt;b&gt;cds51109_52660&lt;/b&gt;&lt;br&gt;Tryptophan halogenase&lt;br&gt;Location: 51109 - 52660" style="stroke:black; stroke-width:1; fill:#15d87d; " points="475,40 482,40 487,35 482,30 475,30 475,40 "  />
<polygon locus_tag="cds52811_53327" id="dummy-1_q34_0_all" class="clusterblast-orf" description="&lt;b&gt;cds52811_53327&lt;/b&gt;&lt;br&gt;NADH-FMN oxidoreductase&lt;br&gt;Location: 52811 - 53327" style="stroke:black; stroke-width:1; fill:#1515d8; " points="489,40 493,35 489,30 489,40 "  />
<polygon locus_tag="cds53384_54257" id="dummy-1_q35_0_all" class="clusterblast-orf" description="&lt;b&gt;cds53384_54257&lt;/b&gt;&lt;br&gt;ABC-type antimicrobial peptide transport system, ATPase component&lt;br&gt;Location: 53384 - 54257" style="stroke:black; stroke-width:1; fill:#15b1d8; " points="493,40 495,40 500,35 495,30 493,30 493,40 "  />
<polygon locus_tag="cds54253_56806" id="dummy-1_q36_0_all" class="clusterblast-orf" description="&lt;b&gt;cds54253_56806&lt;/b&gt;&lt;br&gt;hypothetical protein&lt;br&gt;Location: 54253 - 56806" style="stroke:black; stroke-width:1; fill:#d8157d; " points="500,40 516,40 521,35 516,30 500,30 500,40 "  />
<polygon locus_tag="cds56880_58071" id="dummy-1_q37_0_all" class="clusterblast-orf" description="&lt;b&gt;cds56880_58071&lt;/b&gt;&lt;br&gt;hypothetical protein&lt;br&gt;Location: 56880 - 58071" style="stroke:black; stroke-width:1; fill:#cbd815; " points="521,35 526,30 531,30 531,40 526,40 521,35 "  />
<polygon locus_tag="cds58293_59232" id="dummy-1_q38_0_all" class="clusterblast-orf" description="&lt;b&gt;cds58293_59232&lt;/b&gt;&lt;br&gt;Efflux ABC transporter, ATP-binding protein&lt;br&gt;Location: 58293 - 59232" style="stroke:black; stroke-width:1; fill:#15d897; " points="533,35 538,30 540,30 540,40 538,40 533,35 "  />
<polygon locus_tag="cds59266_59485" id="dummy-1_q39_0_all" class="clusterblast-orf" description="&lt;b&gt;cds59266_59485&lt;/b&gt;&lt;br&gt;MbtH-like NRPS chaperone&lt;br&gt;Location: 59266 - 59485" style="stroke:black; stroke-width:1; fill:#2f15d8; " points="541,35 542,30 542,40 541,35 "  />
<polygon locus_tag="cds59641_61225" id="dummy-1_q40_0_all" class="clusterblast-orf" description="&lt;b&gt;cds59641_61225&lt;/b&gt;&lt;br&gt;Polyketide synthase modules and related proteins&lt;br&gt;Location: 59641 - 61225" style="stroke:black; stroke-width:1; fill:#2fd815; " points="544,35 549,30 557,30 557,40 549,40 544,35 "  />
<polygon locus_tag="cds61236_62361" id="dummy-1_q41_0_all" class="clusterblast-orf" description="&lt;b&gt;cds61236_62361&lt;/b&gt;&lt;br&gt;hypothetical protein&lt;br&gt;Location: 61236 - 62361" style="stroke:black; stroke-width:1; fill:#d81563; " points="557,35 562,30 566,30 566,40 562,40 557,35 "  />
<polygon locus_tag="cds62357_63602" id="dummy-1_q42_0_all" class="clusterblast-orf" description="&lt;b&gt;cds62357_63602&lt;/b&gt;&lt;br&gt;hypothetical protein&lt;br&gt;Location: 62357 - 63602" style="stroke:black; stroke-width:1; fill:#b1d815; " points="566,35 571,30 576,30 576,40 571,40 566,35 "  />
<polygon locus_tag="cds63670_64363" id="dummy-1_q43_0_all" class="clusterblast-orf" description="&lt;b&gt;cds63670_64363&lt;/b&gt;&lt;br&gt;Tryptophan 2,3-dioxygenase (EC 1.13.11.11)&lt;br&gt;Location: 63670 - 64363" style="stroke:black; stroke-width:1; fill:#15d8b1; " points="576,35 581,30 582,30 582,40 581,40 576,35 "  />
<polygon locus_tag="cds64614_65631" id="dummy-1_q44_0_all" class="clusterblast-orf" description="&lt;b&gt;cds64614_65631&lt;/b&gt;&lt;br&gt;hypothetical protein&lt;br&gt;Location: 64614 - 65631" style="stroke:black; stroke-width:1; fill:#4915d8; " points="584,40 587,40 592,35 587,30 584,30 584,40 "  />
<polygon locus_tag="cds65661_65952" id="dummy-1_q45_0_all" class="clusterblast-orf" description="&lt;b&gt;cds65661_65952&lt;/b&gt;&lt;br&gt;hypothetical protein&lt;br&gt;Location: 65661 - 65952" style="stroke:black; stroke-width:1; fill:#d81549; " points="592,35 595,30 595,40 592,35 "  />
<polygon locus_tag="cds66047_66704" id="dummy-1_q46_0_all" class="clusterblast-orf" description="&lt;b&gt;cds66047_66704&lt;/b&gt;&lt;br&gt;Two-component transcriptional response regulator, LuxR family&lt;br&gt;Location: 66047 - 66704" style="stroke:black; stroke-width:1; fill:#97d815; " points="595,35 600,30 601,30 601,40 600,40 595,35 "  />
<polygon locus_tag="cds66679_67972" id="dummy-1_q47_0_all" class="clusterblast-orf" description="&lt;b&gt;cds66679_67972&lt;/b&gt;&lt;br&gt;Two-component system sensor histidine kinase&lt;br&gt;Location: 66679 - 67972" style="stroke:black; stroke-width:1; fill:#15d8cb; " points="600,35 605,30 611,30 611,40 605,40 600,35 "  />
<polygon locus_tag="cds68029_68593" id="dummy-1_q48_0_all" class="clusterblast-orf" description="&lt;b&gt;cds68029_68593&lt;/b&gt;&lt;br&gt;hypothetical protein&lt;br&gt;Location: 68029 - 68593" style="stroke:black; stroke-width:1; fill:white; " points="611,35 616,30 616,30 616,40 616,40 611,35 "  />
<polygon locus_tag="cds68685_69285" id="dummy-1_q49_0_all" class="clusterblast-orf" description="&lt;b&gt;cds68685_69285&lt;/b&gt;&lt;br&gt;Chitin binding protein&lt;br&gt;Location: 68685 - 69285" style="stroke:black; stroke-width:1; fill:#6315d8; " points="617,35 622,30 622,30 622,40 622,40 617,35 "  />
<polygon locus_tag="cds69283_69508" id="dummy-1_q50_0_all" class="clusterblast-orf" description="&lt;b&gt;cds69283_69508&lt;/b&gt;&lt;br&gt;hypothetical protein&lt;br&gt;Location: 69283 - 69508" style="stroke:black; stroke-width:1; fill:white; " points="621,40 623,35 621,30 621,40 "  />
<polygon locus_tag="cds69544_70237" id="dummy-1_q51_0_all" class="clusterblast-orf" description="&lt;b&gt;cds69544_70237&lt;/b&gt;&lt;br&gt;Uridine kinase family protein YggC homolog&lt;br&gt;Location: 69544 - 70237" style="stroke:black; stroke-width:1; fill:#d8152f; " points="624,35 629,30 629,30 629,40 629,40 624,35 "  />
<polygon locus_tag="cds70864_71578" id="dummy-1_q52_0_all" class="clusterblast-orf" description="&lt;b&gt;cds70864_71578&lt;/b&gt;&lt;br&gt;Transcriptional regulator, GntR family&lt;br&gt;Location: 70864 - 71578" style="stroke:black; stroke-width:1; fill:#7dd815; " points="634,40 635,40 640,35 635,30 634,30 634,40 "  />
<polygon locus_tag="cds71652_71820" id="dummy-1_q53_0_all" class="clusterblast-orf" description="&lt;b&gt;cds71652_71820&lt;/b&gt;&lt;br&gt;hypothetical protein&lt;br&gt;Location: 71652 - 71820" style="stroke:black; stroke-width:1; fill:white; " points="641,35 642,30 642,40 641,35 "  />
<polygon locus_tag="cds71904_73869" id="dummy-1_q54_0_all" class="clusterblast-orf" description="&lt;b&gt;cds71904_73869&lt;/b&gt;&lt;br&gt;Cellulose synthase catalytic subunit [UDP-forming] (EC 2.4.1.12)&lt;br&gt;Location: 71904 - 73869" style="stroke:black; stroke-width:1; fill:white; " points="643,40 653,40 658,35 653,30 643,30 643,40 "  />
<polygon locus_tag="cds73865_75803" id="dummy-1_q55_0_all" class="clusterblast-orf" description="&lt;b&gt;cds73865_75803&lt;/b&gt;&lt;br&gt;putative secreted protein&lt;br&gt;Location: 73865 - 75803" style="stroke:black; stroke-width:1; fill:white; " points="658,40 669,40 674,35 669,30 658,30 658,40 "  />
<polygon locus_tag="cds76019_77069" id="dummy-1_q56_0_all" class="clusterblast-orf" description="&lt;b&gt;cds76019_77069&lt;/b&gt;&lt;br&gt;Endoglucanase A precursor (EC 3.2.1.4)&lt;br&gt;Location: 76019 - 77069" style="stroke:black; stroke-width:1; fill:white; " points="676,35 681,30 684,30 684,40 681,40 676,35 "  />
<polygon locus_tag="cds77708_77936" id="dummy-1_q57_0_all" class="clusterblast-orf" description="&lt;b&gt;cds77708_77936&lt;/b&gt;&lt;br&gt;hypothetical protein&lt;br&gt;Location: 77708 - 77936" style="stroke:black; stroke-width:1; fill:white; " points="689,40 691,35 689,30 689,40 "  />
<polygon locus_tag="cds78022_78808" id="dummy-1_q58_0_all" class="clusterblast-orf" description="&lt;b&gt;cds78022_78808&lt;/b&gt;&lt;br&gt;hypothetical protein&lt;br&gt;Location: 78022 - 78808" style="stroke:black; stroke-width:1; fill:white; " points="692,40 693,40 698,35 693,30 692,30 692,40 "  />
<polygon locus_tag="cds78918_79602" id="dummy-1_q59_0_all" class="clusterblast-orf" description="&lt;b&gt;cds78918_79602&lt;/b&gt;&lt;br&gt;putative secreted protein&lt;br&gt;Location: 78918 - 79602" style="stroke:black; stroke-width:1; fill:white; " points="699,35 704,30 705,30 705,40 704,40 699,35 "  />
<polygon locus_tag="cds79604_80153" id="dummy-1_q60_0_all" class="clusterblast-orf" description="&lt;b&gt;cds79604_80153&lt;/b&gt;&lt;br&gt;Arginine/ornithine antiporter ArcD&lt;br&gt;Location: 79604 - 80153" style="stroke:black; stroke-width:1; fill:white; " points="705,35 709,30 709,40 705,35 "  />
<polygon locus_tag="cds80269_81049" id="dummy-1_q61_0_all" class="clusterblast-orf" description="&lt;b&gt;cds80269_81049&lt;/b&gt;&lt;br&gt;Hypothetical NagD-like phosphatase, Actinobacterial subfamily&lt;br&gt;Location: 80269 - 81049" style="stroke:black; stroke-width:1; fill:white; " points="710,35 715,30 716,30 716,40 715,40 710,35 "  />
</g>
<g label="NZ_NNBN01000002" class="clusterblast-cluster" description="NZ_NNBN01000002 (486326-584750): Streptomyces sp. CB02613 scaffold2, whole ge... (43% of genes show similarity), NRPS,ladderane"  >
<text class="clusterblast-acc" y="70" x="5"  >
<a xlink:href="https://antismash-db.secondarymetabolites.org/area.html?record=NZ_NNBN01000002&amp;start=486326&amp;end=584750" target="_blank">NZ_NNBN01000002 (486326-584750)</a>: Streptomyces sp. CB02613 scaffold2, whole ge... (43% of genes show similarity), NRPS,ladderane</text>
<line x2="778.0" x1="10" y1="85" y2="85" style="stroke:grey; stroke-width:1; "  />
</g>
<g id="a1_000"  >
<polygon locus_tag="CG717_RS06390" id="dummy-1_h1_5_0" class="clusterblast-orf" description="&lt;b&gt;CG717_RS06390&lt;/b&gt;&lt;br&gt;thioesterase&lt;br&gt;Location: 487337 - 488080&lt;br&gt;&lt;br&gt;&lt;b&gt;BlastP hit with cds17408_18149&lt;/b&gt;&lt;br&gt;Percentage identity: 58&lt;br&gt;Percentage coverage: 98&lt;br&gt;BLAST bit score: 269&lt;br&gt;E-value: 3.4e-70" style="stroke:black; stroke-width:1; fill:#b115d8; " points="0,90 0,90 5,85 0,80 0,80 0,90 "  />
</g>
<g id="a1_001"  >
<polygon locus_tag="CG717_RS06395" id="dummy-1_h1_5_1" class="clusterblast-orf" description="&lt;b&gt;CG717_RS06395&lt;/b&gt;&lt;br&gt;hypothetical protein&lt;br&gt;Location: 488124 - 489596" style="stroke:black; stroke-width:1; fill:white; " points="6,90 13,90 18,85 13,80 6,80 6,90 "  />
</g>
<g id="a1_002"  >
<polygon locus_tag="CG717_RS06400" id="dummy-1_h1_5_2" class="clusterblast-orf" description="&lt;b&gt;CG717_RS06400&lt;/b&gt;&lt;br&gt;4'-phosphopantetheinyl transferase superfamily protein&lt;br&gt;Location: 489642 - 490301" style="stroke:black; stroke-width:1; fill:white; " points="18,90 18,90 23,85 18,80 18,80 18,90 "  />
</g>
<g id="a1_003"  >
<polygon locus_tag="CG717_RS06405" id="dummy-1_h1_5_3" class="clusterblast-orf" description="&lt;b&gt;CG717_RS06405&lt;/b&gt;&lt;br&gt;winged helix-turn-helix transcriptional regulator&lt;br&gt;Location: 490368 - 490703" style="stroke:black; stroke-width:1; fill:white; " points="24,90 27,85 24,80 24,90 "  />
</g>
<g id="a1_004"  >
<polygon locus_tag="CG717_RS06410" id="dummy-1_h1_5_4" class="clusterblast-orf" description="&lt;b&gt;CG717_RS06410&lt;/b&gt;&lt;br&gt;hypothetical protein&lt;br&gt;Location: 490727 - 490960" style="stroke:black; stroke-width:1; fill:white; " points="27,90 29,85 27,80 27,90 "  />
</g>
<g id="a1_005"  >
<polygon locus_tag="CG717_RS06415" id="dummy-1_h1_5_5" class="clusterblast-orf" description="&lt;b&gt;CG717_RS06415&lt;/b&gt;&lt;br&gt;hypothetical protein&lt;br&gt;Location: 490981 - 491742" style="stroke:black; stroke-width:1; fill:white; " points="29,90 30,90 35,85 30,80 29,80 29,90 "  />
</g>
<g id="a1_006"  >
<polygon locus_tag="CG717_RS06420" id="dummy-1_h1_5_6" class="clusterblast-orf" description="&lt;b&gt;CG717_RS06420&lt;/b&gt;&lt;br&gt;ABC transporter ATP-binding protein&lt;br&gt;Location: 491714 - 492508&lt;br&gt;&lt;br&gt;&lt;b&gt;BlastP hit with cds7090_7906&lt;/b&gt;&lt;br&gt;Percentage identity: 35&lt;br&gt;Percentage coverage: 90&lt;br&gt;BLAST bit score: 121&lt;br&gt;E-value: 9.6e-26&lt;br&gt;&lt;br&gt;&lt;b&gt;BlastP hit with cds53384_54257&lt;/b&gt;&lt;br&gt;Percentage identity: 75&lt;br&gt;Percentage coverage: 91&lt;br&gt;BLAST bit score: 383&lt;br&gt;E-value: 2.5e-104" style="stroke:black; stroke-width:1; fill:#15b1d8; " points="35,90 36,90 41,85 36,80 35,80 35,90 "  />
</g>
<g id="a1_007"  >
<polygon locus_tag="CG717_RS06425" id="dummy-1_h1_5_7" class="clusterblast-orf" description="&lt;b&gt;CG717_RS06425&lt;/b&gt;&lt;br&gt;FtsX-like permease family protein&lt;br&gt;Location: 492505 - 495045&lt;br&gt;&lt;br&gt;&lt;b&gt;BlastP hit with cds54253_56806&lt;/b&gt;&lt;br&gt;Percentage identity: 54&lt;br&gt;Percentage coverage: 100&lt;br&gt;BLAST bit score: 802&lt;br&gt;E-value: 2.9e-230" style="stroke:black; stroke-width:1; fill:#d8157d; " points="41,90 57,90 62,85 57,80 41,80 41,90 "  />
</g>
<g id="a1_008"  >
<polygon locus_tag="CG717_RS06430" id="dummy-1_h1_5_8" class="clusterblast-orf" description="&lt;b&gt;CG717_RS06430&lt;/b&gt;&lt;br&gt;tryptophan 7-halogenase&lt;br&gt;Location: 495194 - 496747&lt;br&gt;&lt;br&gt;&lt;b&gt;BlastP hit with cds51109_52660&lt;/b&gt;&lt;br&gt;Percentage identity: 77&lt;br&gt;Percentage coverage: 100&lt;br&gt;BLAST bit score: 868&lt;br&gt;E-value: 4.5e-250" style="stroke:black; stroke-width:1; fill:#15d87d; " points="63,90 70,90 75,85 70,80 63,80 63,90 "  />
</g>
<g id="a1_009"  >
<polygon locus_tag="CG717_RS06435" id="dummy-1_h1_5_9" class="clusterblast-orf" description="&lt;b&gt;CG717_RS06435&lt;/b&gt;&lt;br&gt;flavin reductase family protein&lt;br&gt;Location: 496820 - 497377&lt;br&gt;&lt;br&gt;&lt;b&gt;BlastP hit with cds52811_53327&lt;/b&gt;&lt;br&gt;Percentage identity: 58&lt;br&gt;Percentage coverage: 94&lt;br&gt;BLAST bit score: 185&lt;br&gt;E-value: 5.8e-45" style="stroke:black; stroke-width:1; fill:#1515d8; " points="76,90 80,85 76,80 76,90 "  />
</g>
<g id="a1_0010"  >
<polygon locus_tag="CG717_RS06440" id="dummy-1_h1_5_10" class="clusterblast-orf" description="&lt;b&gt;CG717_RS06440&lt;/b&gt;&lt;br&gt;winged helix-turn-helix transcriptional regulator&lt;br&gt;Location: 497521 - 498354&lt;br&gt;&lt;br&gt;&lt;b&gt;BlastP hit with cds56880_58071&lt;/b&gt;&lt;br&gt;Percentage identity: 48&lt;br&gt;Percentage coverage: 79&lt;br&gt;BLAST bit score: 250&lt;br&gt;E-value: 3.4e-64" style="stroke:black; stroke-width:1; fill:#cbd815; " points="82,85 87,80 88,80 88,90 87,90 82,85 "  />
</g>
<g id="a1_0011"  >
<polygon locus_tag="CG717_RS06445" id="dummy-1_h1_5_11" class="clusterblast-orf" description="&lt;b&gt;CG717_RS06445&lt;/b&gt;&lt;br&gt;ATP-binding cassette domain-containing protein&lt;br&gt;Location: 498394 - 499335&lt;br&gt;&lt;br&gt;&lt;b&gt;BlastP hit with cds58293_59232&lt;/b&gt;&lt;br&gt;Percentage identity: 72&lt;br&gt;Percentage coverage: 99&lt;br&gt;BLAST bit score: 428&lt;br&gt;E-value: 7.2e-118" style="stroke:black; stroke-width:1; fill:#15d897; " points="89,85 94,80 96,80 96,90 94,90 89,85 "  />
</g>
<g id="a1_0012"  >
<polygon locus_tag="CG717_RS06450" id="dummy-1_h1_5_12" class="clusterblast-orf" description="&lt;b&gt;CG717_RS06450&lt;/b&gt;&lt;br&gt;MbtH family protein&lt;br&gt;Location: 499367 - 499585&lt;br&gt;&lt;br&gt;&lt;b&gt;BlastP hit with cds59266_59485&lt;/b&gt;&lt;br&gt;Percentage identity: 72&lt;br&gt;Percentage coverage: 93&lt;br&gt;BLAST bit score: 109&lt;br&gt;E-value: 1.7e-22" style="stroke:black; stroke-width:1; fill:#2f15d8; " points="97,85 98,80 98,90 97,85 "  />
</g>
<g id="a1_0013"  >
<polygon locus_tag="CG717_RS06455" id="dummy-1_h1_5_13" class="clusterblast-orf" description="&lt;b&gt;CG717_RS06455&lt;/b&gt;&lt;br&gt;acyl carrier protein&lt;br&gt;Location: 499691 - 499942" style="stroke:black; stroke-width:1; fill:white; " points="99,85 101,80 101,90 99,85 "  />
</g>
<g id="a1_0014"  >
<polygon locus_tag="CG717_RS06460" id="dummy-1_h1_5_14" class="clusterblast-orf" description="&lt;b&gt;CG717_RS06460&lt;/b&gt;&lt;br&gt;3-hydroxyacyl-CoA dehydrogenase family protein&lt;br&gt;Location: 499942 - 500838" style="stroke:black; stroke-width:1; fill:white; " points="101,85 106,80 108,80 108,90 106,90 101,85 "  />
</g>
<g id="a1_0015"  >
<polygon locus_tag="CG717_RS06465" id="dummy-1_h1_5_15" class="clusterblast-orf" description="&lt;b&gt;CG717_RS06465&lt;/b&gt;&lt;br&gt;hypothetical protein&lt;br&gt;Location: 500838 - 502058" style="stroke:black; stroke-width:1; fill:white; " points="108,85 113,80 118,80 118,90 113,90 108,85 "  />
</g>
<g id="a1_0016"  >
<polygon locus_tag="CG717_RS06470" id="dummy-1_h1_5_16" class="clusterblast-orf" description="&lt;b&gt;CG717_RS06470&lt;/b&gt;&lt;br&gt;acyl-CoA dehydrogenase&lt;br&gt;Location: 502075 - 503232" style="stroke:black; stroke-width:1; fill:white; " points="118,85 123,80 128,80 128,90 123,90 118,85 "  />
</g>
<g id="a1_0017"  >
<polygon locus_tag="CG717_RS06475" id="dummy-1_h1_5_17" class="clusterblast-orf" description="&lt;b&gt;CG717_RS06475&lt;/b&gt;&lt;br&gt;3-oxoacyl-ACP synthase&lt;br&gt;Location: 503279 - 504241" style="stroke:black; stroke-width:1; fill:white; " points="128,85 133,80 136,80 136,90 133,90 128,85 "  />
</g>
<g id="a1_0018"  >
<polygon locus_tag="CG717_RS06480" id="dummy-1_h1_5_18" class="clusterblast-orf" description="&lt;b&gt;CG717_RS06480&lt;/b&gt;&lt;br&gt;cytochrome P450&lt;br&gt;Location: 504238 - 505488&lt;br&gt;&lt;br&gt;&lt;b&gt;BlastP hit with cds27497_28754&lt;/b&gt;&lt;br&gt;Percentage identity: 71&lt;br&gt;Percentage coverage: 97&lt;br&gt;BLAST bit score: 602&lt;br&gt;E-value: 3.8e-170" style="stroke:black; stroke-width:1; fill:#d815cb; " points="136,85 141,80 146,80 146,90 141,90 136,85 "  />
</g>
<g id="a1_0019"  >
<polygon locus_tag="CG717_RS06485" id="dummy-1_h1_5_19" class="clusterblast-orf" description="&lt;b&gt;CG717_RS06485&lt;/b&gt;&lt;br&gt;ABC transporter permease&lt;br&gt;Location: 505515 - 506327&lt;br&gt;&lt;br&gt;&lt;b&gt;BlastP hit with cds28893_29781&lt;/b&gt;&lt;br&gt;Percentage identity: 68&lt;br&gt;Percentage coverage: 81&lt;br&gt;BLAST bit score: 331&lt;br&gt;E-value: 8.7e-89" style="stroke:black; stroke-width:1; fill:#d89715; " points="146,85 151,80 153,80 153,90 151,90 146,85 "  />
</g>
<g id="a1_0020"  >
<polygon locus_tag="CG717_RS06490" id="dummy-1_h1_5_20" class="clusterblast-orf" description="&lt;b&gt;CG717_RS06490&lt;/b&gt;&lt;br&gt;non-ribosomal peptide synthetase&lt;br&gt;Location: 506327 - 518131&lt;br&gt;&lt;br&gt;&lt;b&gt;BlastP hit with cds10059_13410&lt;/b&gt;&lt;br&gt;Percentage identity: 34&lt;br&gt;Percentage coverage: 76&lt;br&gt;BLAST bit score: 329&lt;br&gt;E-value: 1.3e-87&lt;br&gt;&lt;br&gt;&lt;b&gt;BlastP hit with cds29777_41327&lt;/b&gt;&lt;br&gt;Percentage identity: 57&lt;br&gt;Percentage coverage: 105&lt;br&gt;BLAST bit score: 4220&lt;br&gt;E-value: 0.0" style="stroke:black; stroke-width:1; fill:#2fd815; " points="153,85 158,80 248,80 248,90 158,90 153,85 "  />
</g>
<g id="a1_0021"  >
<polygon locus_tag="CG717_RS06495" id="dummy-1_h1_5_21" class="clusterblast-orf" description="&lt;b&gt;CG717_RS06495&lt;/b&gt;&lt;br&gt;2-hydroxychromene-2-carboxylate isomerase&lt;br&gt;Location: 518335 - 519042&lt;br&gt;&lt;br&gt;&lt;b&gt;BlastP hit with cds41355_42237&lt;/b&gt;&lt;br&gt;Percentage identity: 44&lt;br&gt;Percentage coverage: 72&lt;br&gt;BLAST bit score: 176&lt;br&gt;E-value: 3.6e-42" style="stroke:black; stroke-width:1; fill:#15d849; " points="249,85 254,80 255,80 255,90 254,90 249,85 "  />
</g>
<g id="a1_0022"  >
<polygon locus_tag="CG717_RS06500" id="dummy-1_h1_5_22" class="clusterblast-orf" description="&lt;b&gt;CG717_RS06500&lt;/b&gt;&lt;br&gt;3-oxoacyl-[acyl-carrier-protein] reductase&lt;br&gt;Location: 519128 - 519874&lt;br&gt;&lt;br&gt;&lt;b&gt;BlastP hit with cds42250_43015&lt;/b&gt;&lt;br&gt;Percentage identity: 79&lt;br&gt;Percentage coverage: 96&lt;br&gt;BLAST bit score: 381&lt;br&gt;E-value: 4.8e-104" style="stroke:black; stroke-width:1; fill:#1549d8; " points="256,85 261,80 262,80 262,90 261,90 256,85 "  />
</g>
<g id="a1_0023"  >
<polygon locus_tag="CG717_RS06505" id="dummy-1_h1_5_23" class="clusterblast-orf" description="&lt;b&gt;CG717_RS06505&lt;/b&gt;&lt;br&gt;3-oxoacyl-ACP synthase&lt;br&gt;Location: 519877 - 520995&lt;br&gt;&lt;br&gt;&lt;b&gt;BlastP hit with cds43116_44199&lt;/b&gt;&lt;br&gt;Percentage identity: 66&lt;br&gt;Percentage coverage: 101&lt;br&gt;BLAST bit score: 452&lt;br&gt;E-value: 4.1e-125" style="stroke:black; stroke-width:1; fill:#d815b1; " points="262,85 267,80 271,80 271,90 267,90 262,85 "  />
</g>
<g id="a1_0024"  >
<polygon locus_tag="CG717_RS06510" id="dummy-1_h1_5_24" class="clusterblast-orf" description="&lt;b&gt;CG717_RS06510&lt;/b&gt;&lt;br&gt;beta-ketoacyl-[acyl-carrier-protein] synthase family protein&lt;br&gt;Location: 520995 - 522227&lt;br&gt;&lt;br&gt;&lt;b&gt;BlastP hit with cds44198_45431&lt;/b&gt;&lt;br&gt;Percentage identity: 79&lt;br&gt;Percentage coverage: 100&lt;br&gt;BLAST bit score: 660&lt;br&gt;E-value: 1.1e-187" style="stroke:black; stroke-width:1; fill:#d8b115; " points="271,85 276,80 281,80 281,90 276,90 271,85 "  />
</g>
<g id="a1_0025"  >
<polygon locus_tag="CG717_RS06515" id="dummy-1_h1_5_25" class="clusterblast-orf" description="&lt;b&gt;CG717_RS06515&lt;/b&gt;&lt;br&gt;acyl carrier protein&lt;br&gt;Location: 522284 - 522544&lt;br&gt;&lt;br&gt;&lt;b&gt;BlastP hit with cds45453_45732&lt;/b&gt;&lt;br&gt;Percentage identity: 69&lt;br&gt;Percentage coverage: 95&lt;br&gt;BLAST bit score: 114&lt;br&gt;E-value: 6.8e-24" style="stroke:black; stroke-width:1; fill:#15d863; " points="281,85 283,80 283,90 281,85 "  />
</g>
<g id="a1_0026"  >
<polygon locus_tag="CG717_RS06520" id="dummy-1_h1_5_26" class="clusterblast-orf" description="&lt;b&gt;CG717_RS06520&lt;/b&gt;&lt;br&gt;LysR family transcriptional regulator&lt;br&gt;Location: 522610 - 523596&lt;br&gt;&lt;br&gt;&lt;b&gt;BlastP hit with cds46013_46994&lt;/b&gt;&lt;br&gt;Percentage identity: 50&lt;br&gt;Percentage coverage: 98&lt;br&gt;BLAST bit score: 328&lt;br&gt;E-value: 6.2e-88" style="stroke:black; stroke-width:1; fill:#152fd8; " points="284,85 289,80 292,80 292,90 289,90 284,85 "  />
</g>
<g id="a1_0027"  >
<polygon locus_tag="CG717_RS06525" id="dummy-1_h1_5_27" class="clusterblast-orf" description="&lt;b&gt;CG717_RS06525&lt;/b&gt;&lt;br&gt;AfsR/SARP family transcriptional regulator&lt;br&gt;Location: 523725 - 524513&lt;br&gt;&lt;br&gt;&lt;b&gt;BlastP hit with cds47208_48006&lt;/b&gt;&lt;br&gt;Percentage identity: 67&lt;br&gt;Percentage coverage: 97&lt;br&gt;BLAST bit score: 335&lt;br&gt;E-value: 5.4e-90" style="stroke:black; stroke-width:1; fill:#d81597; " points="293,85 298,80 299,80 299,90 298,90 293,85 "  />
</g>
<g id="a1_0028"  >
<polygon locus_tag="CG717_RS06530" id="dummy-1_h1_5_28" class="clusterblast-orf" description="&lt;b&gt;CG717_RS06530&lt;/b&gt;&lt;br&gt;MMPL family transporter&lt;br&gt;Location: 524735 - 526933&lt;br&gt;&lt;br&gt;&lt;b&gt;BlastP hit with cds48196_50554&lt;/b&gt;&lt;br&gt;Percentage identity: 58&lt;br&gt;Percentage coverage: 91&lt;br&gt;BLAST bit score: 712&lt;br&gt;E-value: 4.8e-203" style="stroke:black; stroke-width:1; fill:#d8cb15; " points="301,85 306,80 319,80 319,90 306,90 301,85 "  />
</g>
<g id="a1_0029"  >
<polygon locus_tag="CG717_RS06535" id="dummy-1_h1_5_29" class="clusterblast-orf" description="&lt;b&gt;CG717_RS06535&lt;/b&gt;&lt;br&gt;pyridoxal-phosphate dependent enzyme&lt;br&gt;Location: 527154 - 529406&lt;br&gt;&lt;br&gt;&lt;b&gt;BlastP hit with cds13406_14666&lt;/b&gt;&lt;br&gt;Percentage identity: 41&lt;br&gt;Percentage coverage: 96&lt;br&gt;BLAST bit score: 219&lt;br&gt;E-value: 5.3e-55&lt;br&gt;&lt;br&gt;&lt;b&gt;BlastP hit with cds16128_17211&lt;/b&gt;&lt;br&gt;Percentage identity: 44&lt;br&gt;Percentage coverage: 75&lt;br&gt;BLAST bit score: 201&lt;br&gt;E-value: 9.7e-50" style="stroke:black; stroke-width:1; fill:#1597d8; " points="321,85 326,80 339,80 339,90 326,90 321,85 "  />
</g>
<g id="a1_0030"  >
<polygon locus_tag="CG717_RS06540" id="dummy-1_h1_5_30" class="clusterblast-orf" description="&lt;b&gt;CG717_RS06540&lt;/b&gt;&lt;br&gt;kinase&lt;br&gt;Location: 529428 - 530285&lt;br&gt;&lt;br&gt;&lt;b&gt;BlastP hit with cds9154_10063&lt;/b&gt;&lt;br&gt;Percentage identity: 69&lt;br&gt;Percentage coverage: 94&lt;br&gt;BLAST bit score: 378&lt;br&gt;E-value: 6.4e-103" style="stroke:black; stroke-width:1; fill:#d84915; " points="339,85 344,80 346,80 346,90 344,90 339,85 "  />
</g>
<g id="a1_0031"  >
<polygon locus_tag="CG717_RS06545" id="dummy-1_h1_5_31" class="clusterblast-orf" description="&lt;b&gt;CG717_RS06545&lt;/b&gt;&lt;br&gt;amino acid adenylation domain-containing protein&lt;br&gt;Location: 530357 - 535183&lt;br&gt;&lt;br&gt;&lt;b&gt;BlastP hit with cds10059_13410&lt;/b&gt;&lt;br&gt;Percentage identity: 49&lt;br&gt;Percentage coverage: 100&lt;br&gt;BLAST bit score: 873&lt;br&gt;E-value: 3e-251&lt;br&gt;&lt;br&gt;&lt;b&gt;BlastP hit with cds14662_16132&lt;/b&gt;&lt;br&gt;Percentage identity: 33&lt;br&gt;Percentage coverage: 80&lt;br&gt;BLAST bit score: 155&lt;br&gt;E-value: 1.4e-35" style="stroke:black; stroke-width:1; fill:#2fd815; " points="346,85 351,80 385,80 385,90 351,90 346,85 "  />
</g>
<g id="a1_0032"  >
<polygon locus_tag="CG717_RS06550" id="dummy-1_h1_5_32" class="clusterblast-orf" description="&lt;b&gt;CG717_RS06550&lt;/b&gt;&lt;br&gt;non-ribosomal peptide synthetase&lt;br&gt;Location: 535325 - 539971" style="stroke:black; stroke-width:1; fill:white; " points="386,85 391,80 424,80 424,90 391,90 386,85 "  />
</g>
<g id="a1_0033"  >
<polygon locus_tag="CG717_RS06555" id="dummy-1_h1_5_33" class="clusterblast-orf" description="&lt;b&gt;CG717_RS06555&lt;/b&gt;&lt;br&gt;amino acid adenylation domain-containing protein&lt;br&gt;Location: 540013 - 544146" style="stroke:black; stroke-width:1; fill:white; " points="424,85 429,80 458,80 458,90 429,90 424,85 "  />
</g>
<g id="a1_0034"  >
<polygon locus_tag="CG717_RS06560" id="dummy-1_h1_5_34" class="clusterblast-orf" description="&lt;b&gt;CG717_RS06560&lt;/b&gt;&lt;br&gt;3-hydroxyacyl-CoA dehydrogenase family protein&lt;br&gt;Location: 544139 - 545008" style="stroke:black; stroke-width:1; fill:white; " points="458,85 463,80 465,80 465,90 463,90 458,85 "  />
</g>
<g id="a1_0035"  >
<polygon locus_tag="CG717_RS06565" id="dummy-1_h1_5_35" class="clusterblast-orf" description="&lt;b&gt;CG717_RS06565&lt;/b&gt;&lt;br&gt;polyketide synthase&lt;br&gt;Location: 545130 - 549896" style="stroke:black; stroke-width:1; fill:white; " points="466,85 471,80 504,80 504,90 471,90 466,85 "  />
</g>
<g id="a1_0036"  >
<polygon locus_tag="CG717_RS06570" id="dummy-1_h1_5_36" class="clusterblast-orf" description="&lt;b&gt;CG717_RS06570&lt;/b&gt;&lt;br&gt;amino acid adenylation domain-containing protein&lt;br&gt;Location: 549898 - 551769" style="stroke:black; stroke-width:1; fill:white; " points="504,85 509,80 519,80 519,90 509,90 504,85 "  />
</g>
<g id="a1_0037"  >
<polygon locus_tag="CG717_RS06575" id="dummy-1_h1_5_37" class="clusterblast-orf" description="&lt;b&gt;CG717_RS06575&lt;/b&gt;&lt;br&gt;HAD-IIIC family phosphatase&lt;br&gt;Location: 551805 - 552854" style="stroke:black; stroke-width:1; fill:white; " points="519,85 524,80 528,80 528,90 524,90 519,85 "  />
</g>
<g id="a1_0038"  >
<polygon locus_tag="CG717_RS06580" id="dummy-1_h1_5_38" class="clusterblast-orf" description="&lt;b&gt;CG717_RS06580&lt;/b&gt;&lt;br&gt;acyl-CoA/acyl-ACP dehydrogenase&lt;br&gt;Location: 552851 - 554080" style="stroke:black; stroke-width:1; fill:white; " points="528,85 533,80 538,80 538,90 533,90 528,85 "  />
</g>
<g id="a1_0039"  >
<polygon locus_tag="CG717_RS06585" id="dummy-1_h1_5_39" class="clusterblast-orf" description="&lt;b&gt;CG717_RS06585&lt;/b&gt;&lt;br&gt;acyl carrier protein&lt;br&gt;Location: 554064 - 554336" style="stroke:black; stroke-width:1; fill:white; " points="538,85 540,80 540,90 538,85 "  />
</g>
<g id="a1_0040"  >
<polygon locus_tag="CG717_RS06590" id="dummy-1_h1_5_40" class="clusterblast-orf" description="&lt;b&gt;CG717_RS06590&lt;/b&gt;&lt;br&gt;3-oxoacyl-ACP synthase&lt;br&gt;Location: 554333 - 555415" style="stroke:black; stroke-width:1; fill:white; " points="540,85 545,80 549,80 549,90 545,90 540,85 "  />
</g>
<g id="a1_0041"  >
<polygon locus_tag="CG717_RS06595" id="dummy-1_h1_5_41" class="clusterblast-orf" description="&lt;b&gt;CG717_RS06595&lt;/b&gt;&lt;br&gt;3-deoxy-7-phosphoheptulonate synthase class II&lt;br&gt;Location: 555466 - 556842&lt;br&gt;&lt;br&gt;&lt;b&gt;BlastP hit with cds18458_20057&lt;/b&gt;&lt;br&gt;Percentage identity: 83&lt;br&gt;Percentage coverage: 82&lt;br&gt;BLAST bit score: 723&lt;br&gt;E-value: 1.4e-206" style="stroke:black; stroke-width:1; fill:#d86315; " points="549,85 554,80 560,80 560,90 554,90 549,85 "  />
</g>
<g id="a1_0042"  >
<polygon locus_tag="CG717_RS06600" id="dummy-1_h1_5_42" class="clusterblast-orf" description="&lt;b&gt;CG717_RS06600&lt;/b&gt;&lt;br&gt;anthranilate synthase component I family protein&lt;br&gt;Location: 557047 - 558537&lt;br&gt;&lt;br&gt;&lt;b&gt;BlastP hit with cds20195_21815&lt;/b&gt;&lt;br&gt;Percentage identity: 63&lt;br&gt;Percentage coverage: 100&lt;br&gt;BLAST bit score: 653&lt;br&gt;E-value: 2.4e-185" style="stroke:black; stroke-width:1; fill:#15d815; " points="562,90 569,90 574,85 569,80 562,80 562,90 "  />
</g>
<g id="a1_0043"  >
<polygon locus_tag="CG717_RS06605" id="dummy-1_h1_5_43" class="clusterblast-orf" description="&lt;b&gt;CG717_RS06605&lt;/b&gt;&lt;br&gt;aminodeoxychorismate/anthranilate synthase component II&lt;br&gt;Location: 558567 - 559163&lt;br&gt;&lt;br&gt;&lt;b&gt;BlastP hit with cds21811_22498&lt;/b&gt;&lt;br&gt;Percentage identity: 81&lt;br&gt;Percentage coverage: 83&lt;br&gt;BLAST bit score: 314&lt;br&gt;E-value: 1.1e-83" style="stroke:black; stroke-width:1; fill:#157dd8; " points="574,90 574,90 579,85 574,80 574,80 574,90 "  />
</g>
<g id="a1_0044"  >
<polygon locus_tag="CG717_RS06610" id="dummy-1_h1_5_44" class="clusterblast-orf" description="&lt;b&gt;CG717_RS06610&lt;/b&gt;&lt;br&gt;PLP-dependent aminotransferase family protein&lt;br&gt;Location: 559137 - 560540&lt;br&gt;&lt;br&gt;&lt;b&gt;BlastP hit with cds22463_23873&lt;/b&gt;&lt;br&gt;Percentage identity: 74&lt;br&gt;Percentage coverage: 99&lt;br&gt;BLAST bit score: 657&lt;br&gt;E-value: 1.1e-186" style="stroke:black; stroke-width:1; fill:#cb15d8; " points="579,85 584,80 590,80 590,90 584,90 579,85 "  />
</g>
<g id="a1_0045"  >
<polygon locus_tag="CG717_RS06615" id="dummy-1_h1_5_45" class="clusterblast-orf" description="&lt;b&gt;CG717_RS06615&lt;/b&gt;&lt;br&gt;anthranilate phosphoribosyltransferase&lt;br&gt;Location: 560662 - 561720&lt;br&gt;&lt;br&gt;&lt;b&gt;BlastP hit with cds24137_25193&lt;/b&gt;&lt;br&gt;Percentage identity: 79&lt;br&gt;Percentage coverage: 98&lt;br&gt;BLAST bit score: 500&lt;br&gt;E-value: 1.3e-139" style="stroke:black; stroke-width:1; fill:#d87d15; " points="591,90 594,90 599,85 594,80 591,80 591,90 "  />
</g>
<g id="a1_0046"  >
<polygon locus_tag="CG717_RS06620" id="dummy-1_h1_5_46" class="clusterblast-orf" description="&lt;b&gt;CG717_RS06620&lt;/b&gt;&lt;br&gt;indole-3-glycerol phosphate synthase TrpC&lt;br&gt;Location: 561692 - 562504&lt;br&gt;&lt;br&gt;&lt;b&gt;BlastP hit with cds25465_26272&lt;/b&gt;&lt;br&gt;Percentage identity: 68&lt;br&gt;Percentage coverage: 97&lt;br&gt;BLAST bit score: 338&lt;br&gt;E-value: 5e-91" style="stroke:black; stroke-width:1; fill:#15d82f; " points="599,85 604,80 606,80 606,90 604,90 599,85 "  />
</g>
<g id="a1_0047"  >
<polygon locus_tag="CG717_RS06625" id="dummy-1_h1_5_47" class="clusterblast-orf" description="&lt;b&gt;CG717_RS06625&lt;/b&gt;&lt;br&gt;acyl carrier protein&lt;br&gt;Location: 562669 - 562962" style="stroke:black; stroke-width:1; fill:white; " points="607,85 609,80 609,90 607,85 "  />
</g>
<g id="a1_0048"  >
<polygon locus_tag="CG717_RS06630" id="dummy-1_h1_5_48" class="clusterblast-orf" description="&lt;b&gt;CG717_RS06630&lt;/b&gt;&lt;br&gt;fatty acyl-AMP ligase&lt;br&gt;Location: 562984 - 564750" style="stroke:black; stroke-width:1; fill:white; " points="610,85 615,80 624,80 624,90 615,90 610,85 "  />
</g>
<g id="a1_0049"  >
<polygon locus_tag="CG717_RS06635" id="dummy-1_h1_5_49" class="clusterblast-orf" description="&lt;b&gt;CG717_RS06635&lt;/b&gt;&lt;br&gt;hypothetical protein&lt;br&gt;Location: 564764 - 565288" style="stroke:black; stroke-width:1; fill:white; " points="624,85 628,80 628,90 624,85 "  />
</g>
<g id="a1_0050"  >
<polygon locus_tag="CG717_RS06640" id="dummy-1_h1_5_50" class="clusterblast-orf" description="&lt;b&gt;CG717_RS06640&lt;/b&gt;&lt;br&gt;hypothetical protein&lt;br&gt;Location: 565285 - 566133" style="stroke:black; stroke-width:1; fill:white; " points="628,85 633,80 635,80 635,90 633,90 628,85 "  />
</g>
<g id="a1_0051"  >
<polygon locus_tag="CG717_RS06660" id="dummy-1_h1_5_51" class="clusterblast-orf" description="&lt;b&gt;CG717_RS06660&lt;/b&gt;&lt;br&gt;hypothetical protein&lt;br&gt;Location: 567073 - 567378" style="stroke:black; stroke-width:1; fill:white; " points="643,90 645,85 643,80 643,90 "  />
</g>
<g id="a1_0052"  >
<polygon locus_tag="CG717_RS06665" id="dummy-1_h1_5_52" class="clusterblast-orf" description="&lt;b&gt;CG717_RS06665&lt;/b&gt;&lt;br&gt;sugar kinase&lt;br&gt;Location: 567447 - 568898" style="stroke:black; stroke-width:1; fill:white; " points="646,90 652,90 657,85 652,80 646,80 646,90 "  />
</g>
<g id="a1_0053"  >
<polygon locus_tag="CG717_RS06670" id="dummy-1_h1_5_53" class="clusterblast-orf" description="&lt;b&gt;CG717_RS06670&lt;/b&gt;&lt;br&gt;ABC transporter ATP-binding protein&lt;br&gt;Location: 569054 - 570787" style="stroke:black; stroke-width:1; fill:white; " points="659,90 667,90 672,85 667,80 659,80 659,90 "  />
</g>
<g id="a1_0054"  >
<polygon locus_tag="CG717_RS06675" id="dummy-1_h1_5_54" class="clusterblast-orf" description="&lt;b&gt;CG717_RS06675&lt;/b&gt;&lt;br&gt;ABC transporter ATP-binding protein&lt;br&gt;Location: 570787 - 572715" style="stroke:black; stroke-width:1; fill:white; " points="672,90 683,90 688,85 683,80 672,80 672,90 "  />
</g>
<g id="a1_0055"  >
<polygon locus_tag="CG717_RS06680" id="dummy-1_h1_5_55" class="clusterblast-orf" description="&lt;b&gt;CG717_RS06680&lt;/b&gt;&lt;br&gt;RNA polymerase sigma factor&lt;br&gt;Location: 572731 - 573822" style="stroke:black; stroke-width:1; fill:white; " points="688,85 693,80 697,80 697,90 693,90 688,85 "  />
</g>
<g id="a1_0056"  >
<polygon locus_tag="CG717_RS06685" id="dummy-1_h1_5_56" class="clusterblast-orf" description="&lt;b&gt;CG717_RS06685&lt;/b&gt;&lt;br&gt;DNA primase&lt;br&gt;Location: 574030 - 575961" style="stroke:black; stroke-width:1; fill:white; " points="699,85 704,80 714,80 714,90 704,90 699,85 "  />
</g>
<g id="a1_0057"  >
<polygon locus_tag="CG717_RS06690" id="dummy-1_h1_5_57" class="clusterblast-orf" description="&lt;b&gt;CG717_RS06690&lt;/b&gt;&lt;br&gt;FAD-dependent oxidoreductase&lt;br&gt;Location: 576056 - 577315" style="stroke:black; stroke-width:1; fill:white; " points="715,85 720,80 725,80 725,90 720,90 715,85 "  />
</g>
<g id="a1_0058"  >
<polygon locus_tag="CG717_RS06695" id="dummy-1_h1_5_58" class="clusterblast-orf" description="&lt;b&gt;CG717_RS06695&lt;/b&gt;&lt;br&gt;deoxyguanosinetriphosphate triphosphohydrolase&lt;br&gt;Location: 577461 - 578819" style="stroke:black; stroke-width:1; fill:white; " points="726,85 731,80 737,80 737,90 731,90 726,85 "  />
</g>
<g id="a1_0059"  >
<polygon locus_tag="CG717_RS06700" id="dummy-1_h1_5_59" class="clusterblast-orf" description="&lt;b&gt;CG717_RS06700&lt;/b&gt;&lt;br&gt;sirohydrochlorin chelatase&lt;br&gt;Location: 578872 - 579792" style="stroke:black; stroke-width:1; fill:white; " points="738,85 743,80 745,80 745,90 743,90 738,85 "  />
</g>
<g id="a1_0060"  >
<polygon locus_tag="CG717_RS06705" id="dummy-1_h1_5_60" class="clusterblast-orf" description="&lt;b&gt;CG717_RS06705&lt;/b&gt;&lt;br&gt;hypothetical protein&lt;br&gt;Location: 580011 - 581528" style="stroke:black; stroke-width:1; fill:white; " points="747,90 754,90 759,85 754,80 747,80 747,90 "  />
</g>
<g id="a1_0061"  >
<polygon locus_tag="CG717_RS06710" id="dummy-1_h1_5_61" class="clusterblast-orf" description="&lt;b&gt;CG717_RS06710&lt;/b&gt;&lt;br&gt;hypothetical protein&lt;br&gt;Location: 581667 - 582449" style="stroke:black; stroke-width:1; fill:white; " points="760,90 762,90 767,85 762,80 760,80 760,90 "  />
</g>
<g id="a1_0062"  >
<polygon locus_tag="CG717_RS06715" id="dummy-1_h1_5_62" class="clusterblast-orf" description="&lt;b&gt;CG717_RS06715&lt;/b&gt;&lt;br&gt;gamma-glutamylcyclotransferase&lt;br&gt;Location: 582519 - 582986" style="stroke:black; stroke-width:1; fill:white; " points="767,85 771,80 771,90 767,85 "  />
</g>
<g id="a1_0063"  >
<polygon locus_tag="CG717_RS06720" id="dummy-1_h1_5_63" class="clusterblast-orf" description="&lt;b&gt;CG717_RS06720&lt;/b&gt;&lt;br&gt;divalent-cation tolerance protein CutA&lt;br&gt;Location: 582998 - 583339" style="stroke:black; stroke-width:1; fill:white; " points="771,85 774,80 774,90 771,85 "  />
</g>
<g id="a1_0064"  >
<polygon locus_tag="CG717_RS06725" id="dummy-1_h1_5_64" class="clusterblast-orf" description="&lt;b&gt;CG717_RS06725&lt;/b&gt;&lt;br&gt;NAD(P)H-dependent oxidoreductase&lt;br&gt;Location: 583432 - 584058" style="stroke:black; stroke-width:1; fill:white; " points="774,85 779,80 780,80 780,90 779,90 774,85 "  />
</g>
</svg>
