<svg xmlns="http://www.w3.org/2000/svg" version="1.1" y="0" x="0" preserveAspectRatio="none" xmlns:xlink="http://www.w3.org/1999/xlink" viewBox="0 0 800 230" height="230" width="800"  >
<g label="Query sequence" class="clusterblast-cluster"  >
<text class="clusterblast-acc" y="20" x="5"  >
Query sequence</text>
<line x2="778.0" x1="10" y1="35" y2="35" style="stroke:grey; stroke-width:1; "  />
<polygon locus_tag="cds54995_57341" id="dummy-1_q0_0_all" class="clusterblast-orf" description="&lt;b&gt;cds54995_57341&lt;/b&gt;&lt;br&gt;hypothetical protein&lt;br&gt;Location: 54995 - 57341" style="stroke:black; stroke-width:1; fill:white; " points="16,35 21,30 104,30 104,40 21,40 16,35 "  />
<polygon locus_tag="cds57649_60886" id="dummy-1_q1_0_all" class="clusterblast-orf" description="&lt;b&gt;cds57649_60886&lt;/b&gt;&lt;br&gt;putative large ATP-binding protein&lt;br&gt;Location: 57649 - 60886" style="stroke:black; stroke-width:1; fill:#d81515; " points="115,35 120,30 237,30 237,40 120,40 115,35 "  />
<polygon locus_tag="cds61183_61996" id="dummy-1_q2_0_all" class="clusterblast-orf" description="&lt;b&gt;cds61183_61996&lt;/b&gt;&lt;br&gt;putative SimX4 homolog&lt;br&gt;Location: 61183 - 61996" style="stroke:black; stroke-width:1; fill:#5cd815; " points="248,40 273,40 278,35 273,30 248,30 248,40 "  />
<polygon locus_tag="cds62208_63855" id="dummy-1_q3_0_all" class="clusterblast-orf" description="&lt;b&gt;cds62208_63855&lt;/b&gt;&lt;br&gt;Ubiquinol-cytochrome C reductase, cytochrome B subunit (EC 1.10.2.2)&lt;br&gt;Location: 62208 - 63855" style="stroke:black; stroke-width:1; fill:#15a3d8; " points="286,40 343,40 348,35 343,30 286,30 286,40 "  />
<polygon locus_tag="cds63926_66032" id="dummy-1_q4_0_all" class="clusterblast-orf" description="&lt;b&gt;cds63926_66032&lt;/b&gt;&lt;br&gt;Germacradienol/germacrene D synthase (EC 4.2.3.22)&lt;br&gt;Location: 63926 - 66032" style="stroke:black; stroke-width:1; fill:#c715d8; " points="351,35 356,30 430,30 430,40 356,40 351,35 "  />
<polygon locus_tag="cds66101_66365" id="dummy-1_q5_0_all" class="clusterblast-orf" description="&lt;b&gt;cds66101_66365&lt;/b&gt;&lt;br&gt;hypothetical protein&lt;br&gt;Location: 66101 - 66365" style="stroke:black; stroke-width:1; fill:white; " points="432,40 437,40 442,35 437,30 432,30 432,40 "  />
<polygon locus_tag="cds66377_67727" id="dummy-1_q6_0_all" class="clusterblast-orf" description="&lt;b&gt;cds66377_67727&lt;/b&gt;&lt;br&gt;Uncharacterized MFS-type transporter&lt;br&gt;Location: 66377 - 67727" style="stroke:black; stroke-width:1; fill:#d88015; " points="443,40 488,40 493,35 488,30 443,30 443,40 "  />
<polygon locus_tag="cds67780_69124" id="dummy-1_q7_0_all" class="clusterblast-orf" description="&lt;b&gt;cds67780_69124&lt;/b&gt;&lt;br&gt;6-phospho-beta-glucosidase&lt;br&gt;Location: 67780 - 69124" style="stroke:black; stroke-width:1; fill:#15d839; " points="495,40 540,40 545,35 540,30 495,30 495,40 "  />
<polygon locus_tag="cds69257_69755" id="dummy-1_q8_0_all" class="clusterblast-orf" description="&lt;b&gt;cds69257_69755&lt;/b&gt;&lt;br&gt;hypothetical protein&lt;br&gt;Location: 69257 - 69755" style="stroke:black; stroke-width:1; fill:#1539d8; " points="550,35 555,30 569,30 569,40 555,40 550,35 "  />
<polygon locus_tag="cds69768_70551" id="dummy-1_q9_0_all" class="clusterblast-orf" description="&lt;b&gt;cds69768_70551&lt;/b&gt;&lt;br&gt;Acetyltransferase&lt;br&gt;Location: 69768 - 70551" style="stroke:black; stroke-width:1; fill:#d81580; " points="570,35 575,30 599,30 599,40 575,40 570,35 "  />
<polygon locus_tag="cds70547_71468" id="dummy-1_q10_0_all" class="clusterblast-orf" description="&lt;b&gt;cds70547_71468&lt;/b&gt;&lt;br&gt;quinone oxidoreductase&lt;br&gt;Location: 70547 - 71468" style="stroke:black; stroke-width:1; fill:#c7d815; " points="599,35 604,30 633,30 633,40 604,40 599,35 "  />
<polygon locus_tag="cds71599_73675" id="dummy-1_q11_0_all" class="clusterblast-orf" description="&lt;b&gt;cds71599_73675&lt;/b&gt;&lt;br&gt;Valyl-tRNA synthetase (EC 6.1.1.9)&lt;br&gt;Location: 71599 - 73675" style="stroke:black; stroke-width:1; fill:#15d8a3; " points="638,40 711,40 716,35 711,30 638,30 638,40 "  />
<polygon locus_tag="cds73671_73824" id="dummy-1_q12_0_all" class="clusterblast-orf" description="&lt;b&gt;cds73671_73824&lt;/b&gt;&lt;br&gt;Valyl-tRNA synthetase (EC 6.1.1.9)&lt;br&gt;Location: 73671 - 73824" style="stroke:black; stroke-width:1; fill:#15d8a3; " points="716,40 717,40 722,35 717,30 716,30 716,40 "  />
<polygon locus_tag="cds73843_74011" id="dummy-1_q13_0_all" class="clusterblast-orf" description="&lt;b&gt;cds73843_74011&lt;/b&gt;&lt;br&gt;hypothetical protein&lt;br&gt;Location: 73843 - 74011" style="stroke:black; stroke-width:1; fill:#15d8a3; " points="722,40 724,40 729,35 724,30 722,30 722,40 "  />
<polygon locus_tag="cds74062_74950" id="dummy-1_q14_0_all" class="clusterblast-orf" description="&lt;b&gt;cds74062_74950&lt;/b&gt;&lt;br&gt;hypothetical protein&lt;br&gt;Location: 74062 - 74950" style="stroke:black; stroke-width:1; fill:#5c15d8; " points="731,40 759,40 764,35 759,30 731,30 731,40 "  />
</g>
<g label="NZ_CP030771" class="clusterblast-cluster" description="NZ_CP030771 (7681187-7701996): Streptomyces sp. YIM 121038 chromosome, comple... (56% of genes show similarity), terpene"  >
<text class="clusterblast-acc" y="70" x="5"  >
<a xlink:href="https://antismash-db.secondarymetabolites.org/area.html?record=NZ_CP030771&amp;start=7681187&amp;end=7701996" target="_blank">NZ_CP030771 (7681187-7701996)</a>: Streptomyces sp. YIM 121038 chromosome, comple... (56% of genes show similarity), terpene</text>
<line x2="778.0" x1="10" y1="85" y2="85" style="stroke:grey; stroke-width:1; "  />
</g>
<g id="a1_000"  >
<polygon locus_tag="C9F11_RS32945" id="dummy-1_h1_3_0" class="clusterblast-orf" description="&lt;b&gt;C9F11_RS32945&lt;/b&gt;&lt;br&gt;NACHT domain-containing protein&lt;br&gt;Location: 7681188 - 7684415&lt;br&gt;&lt;br&gt;&lt;b&gt;BlastP hit with cds57649_60886&lt;/b&gt;&lt;br&gt;Percentage identity: 85&lt;br&gt;Percentage coverage: 100&lt;br&gt;BLAST bit score: 1759&lt;br&gt;E-value: 0.0" style="stroke:black; stroke-width:1; fill:#d81515; " points="0,85 5,80 120,80 120,90 5,90 0,85 "  />
</g>
<g id="a1_001"  >
<polygon locus_tag="C9F11_RS32950" id="dummy-1_h1_3_1" class="clusterblast-orf" description="&lt;b&gt;C9F11_RS32950&lt;/b&gt;&lt;br&gt;metallophosphoesterase&lt;br&gt;Location: 7684507 - 7685376&lt;br&gt;&lt;br&gt;&lt;b&gt;BlastP hit with cds61183_61996&lt;/b&gt;&lt;br&gt;Percentage identity: 92&lt;br&gt;Percentage coverage: 98&lt;br&gt;BLAST bit score: 556&lt;br&gt;E-value: 1.2e-156" style="stroke:black; stroke-width:1; fill:#5cd815; " points="124,90 151,90 156,85 151,80 124,80 124,90 "  />
</g>
<g id="a1_002"  >
<polygon locus_tag="C9F11_RS32955" id="dummy-1_h1_3_2" class="clusterblast-orf" description="&lt;b&gt;C9F11_RS32955&lt;/b&gt;&lt;br&gt;response regulator transcription factor&lt;br&gt;Location: 7685402 - 7686028" style="stroke:black; stroke-width:1; fill:white; " points="157,85 162,80 181,80 181,90 162,90 157,85 "  />
</g>
<g id="a1_003"  >
<polygon locus_tag="C9F11_RS32960" id="dummy-1_h1_3_3" class="clusterblast-orf" description="&lt;b&gt;C9F11_RS32960&lt;/b&gt;&lt;br&gt;SDR family oxidoreductase&lt;br&gt;Location: 7686276 - 7687034" style="stroke:black; stroke-width:1; fill:white; " points="190,90 214,90 219,85 214,80 190,80 190,90 "  />
</g>
<g id="a1_004"  >
<polygon locus_tag="C9F11_RS32965" id="dummy-1_h1_3_4" class="clusterblast-orf" description="&lt;b&gt;C9F11_RS32965&lt;/b&gt;&lt;br&gt;galactonate dehydratase&lt;br&gt;Location: 7687105 - 7688253" style="stroke:black; stroke-width:1; fill:white; " points="221,90 259,90 264,85 259,80 221,80 221,90 "  />
</g>
<g id="a1_005"  >
<polygon locus_tag="C9F11_RS32970" id="dummy-1_h1_3_5" class="clusterblast-orf" description="&lt;b&gt;C9F11_RS32970&lt;/b&gt;&lt;br&gt;cytochrome b N-terminal domain-containing protein&lt;br&gt;Location: 7688345 - 7689988&lt;br&gt;&lt;br&gt;&lt;b&gt;BlastP hit with cds62208_63855&lt;/b&gt;&lt;br&gt;Percentage identity: 91&lt;br&gt;Percentage coverage: 100&lt;br&gt;BLAST bit score: 1033&lt;br&gt;E-value: 6.6e-300" style="stroke:black; stroke-width:1; fill:#15a3d8; " points="268,90 324,90 329,85 324,80 268,80 268,90 "  />
</g>
<g id="a1_006"  >
<polygon locus_tag="C9F11_RS32975" id="dummy-1_h1_3_6" class="clusterblast-orf" description="&lt;b&gt;C9F11_RS32975&lt;/b&gt;&lt;br&gt;germacradienol/geosmin synthase&lt;br&gt;Location: 7690000 - 7692234&lt;br&gt;&lt;br&gt;&lt;b&gt;BlastP hit with cds63926_66032&lt;/b&gt;&lt;br&gt;Percentage identity: 80&lt;br&gt;Percentage coverage: 100&lt;br&gt;BLAST bit score: 1172&lt;br&gt;E-value: 0.0" style="stroke:black; stroke-width:1; fill:#c715d8; " points="330,85 335,80 414,80 414,90 335,90 330,85 "  />
</g>
<g id="a1_007"  >
<polygon locus_tag="C9F11_RS32980" id="dummy-1_h1_3_7" class="clusterblast-orf" description="&lt;b&gt;C9F11_RS32980&lt;/b&gt;&lt;br&gt;thioesterase family protein&lt;br&gt;Location: 7692412 - 7692909" style="stroke:black; stroke-width:1; fill:white; " points="420,90 434,90 439,85 434,80 420,80 420,90 "  />
</g>
<g id="a1_008"  >
<polygon locus_tag="C9F11_RS32985" id="dummy-1_h1_3_8" class="clusterblast-orf" description="&lt;b&gt;C9F11_RS32985&lt;/b&gt;&lt;br&gt;6-phospho-beta-glucosidase&lt;br&gt;Location: 7692976 - 7694316&lt;br&gt;&lt;br&gt;&lt;b&gt;BlastP hit with cds67780_69124&lt;/b&gt;&lt;br&gt;Percentage identity: 89&lt;br&gt;Percentage coverage: 100&lt;br&gt;BLAST bit score: 771&lt;br&gt;E-value: 5e-221" style="stroke:black; stroke-width:1; fill:#15d839; " points="441,90 487,90 492,85 487,80 441,80 441,90 "  />
</g>
<g id="a1_009"  >
<polygon locus_tag="C9F11_RS32990" id="dummy-1_h1_3_9" class="clusterblast-orf" description="&lt;b&gt;C9F11_RS32990&lt;/b&gt;&lt;br&gt;FBP domain-containing protein&lt;br&gt;Location: 7694331 - 7694843&lt;br&gt;&lt;br&gt;&lt;b&gt;BlastP hit with cds69257_69755&lt;/b&gt;&lt;br&gt;Percentage identity: 87&lt;br&gt;Percentage coverage: 102&lt;br&gt;BLAST bit score: 295&lt;br&gt;E-value: 3.9e-78" style="stroke:black; stroke-width:1; fill:#1539d8; " points="492,85 497,80 511,80 511,90 497,90 492,85 "  />
</g>
<g id="a1_0010"  >
<polygon locus_tag="C9F11_RS32995" id="dummy-1_h1_3_10" class="clusterblast-orf" description="&lt;b&gt;C9F11_RS32995&lt;/b&gt;&lt;br&gt;GNAT family N-acetyltransferase&lt;br&gt;Location: 7694857 - 7695624&lt;br&gt;&lt;br&gt;&lt;b&gt;BlastP hit with cds69768_70551&lt;/b&gt;&lt;br&gt;Percentage identity: 78&lt;br&gt;Percentage coverage: 99&lt;br&gt;BLAST bit score: 396&lt;br&gt;E-value: 1.5e-108" style="stroke:black; stroke-width:1; fill:#d81580; " points="512,85 517,80 541,80 541,90 517,90 512,85 "  />
</g>
<g id="a1_0011"  >
<polygon locus_tag="C9F11_RS33000" id="dummy-1_h1_3_11" class="clusterblast-orf" description="&lt;b&gt;C9F11_RS33000&lt;/b&gt;&lt;br&gt;zinc-binding dehydrogenase&lt;br&gt;Location: 7695747 - 7696667&lt;br&gt;&lt;br&gt;&lt;b&gt;BlastP hit with cds70547_71468&lt;/b&gt;&lt;br&gt;Percentage identity: 88&lt;br&gt;Percentage coverage: 99&lt;br&gt;BLAST bit score: 513&lt;br&gt;E-value: 1.3e-143" style="stroke:black; stroke-width:1; fill:#c7d815; " points="545,85 550,80 580,80 580,90 550,90 545,85 "  />
</g>
<g id="a1_0012"  >
<polygon locus_tag="C9F11_RS33005" id="dummy-1_h1_3_12" class="clusterblast-orf" description="&lt;b&gt;C9F11_RS33005&lt;/b&gt;&lt;br&gt;phospholipase C, phosphocholine-specific&lt;br&gt;Location: 7696910 - 7698967" style="stroke:black; stroke-width:1; fill:white; " points="589,90 661,90 666,85 661,80 589,80 589,90 "  />
</g>
<g id="a1_0013"  >
<polygon locus_tag="C9F11_RS33010" id="dummy-1_h1_3_13" class="clusterblast-orf" description="&lt;b&gt;C9F11_RS33010&lt;/b&gt;&lt;br&gt;DUF2510 domain-containing protein&lt;br&gt;Location: 7699156 - 7700052&lt;br&gt;&lt;br&gt;&lt;b&gt;BlastP hit with cds74062_74950&lt;/b&gt;&lt;br&gt;Percentage identity: 86&lt;br&gt;Percentage coverage: 101&lt;br&gt;BLAST bit score: 452&lt;br&gt;E-value: 2.6e-125" style="stroke:black; stroke-width:1; fill:#5c15d8; " points="673,90 702,90 707,85 702,80 673,80 673,90 "  />
</g>
<g id="a1_0014"  >
<polygon locus_tag="C9F11_RS33015" id="dummy-1_h1_3_14" class="clusterblast-orf" description="&lt;b&gt;C9F11_RS33015&lt;/b&gt;&lt;br&gt;DMT family transporter&lt;br&gt;Location: 7700165 - 7701085" style="stroke:black; stroke-width:1; fill:white; " points="711,85 716,80 745,80 745,90 716,90 711,85 "  />
</g>
<g id="a1_0015"  >
<polygon locus_tag="C9F11_RS33020" id="dummy-1_h1_3_15" class="clusterblast-orf" description="&lt;b&gt;C9F11_RS33020&lt;/b&gt;&lt;br&gt;phosphatase PAP2 family protein&lt;br&gt;Location: 7701082 - 7701996" style="stroke:black; stroke-width:1; fill:white; " points="745,85 750,80 780,80 780,90 750,90 745,85 "  />
</g>
</svg>
