<svg xmlns="http://www.w3.org/2000/svg" version="1.1" y="0" x="0" preserveAspectRatio="none" xmlns:xlink="http://www.w3.org/1999/xlink" viewBox="0 0 800 230" height="230" width="800"  >
<g label="Query sequence" class="clusterblast-cluster"  >
<text class="clusterblast-acc" y="20" x="5"  >
Query sequence</text>
<line x2="778.0" x1="10" y1="35" y2="35" style="stroke:grey; stroke-width:1; "  />
<polygon locus_tag="cds13520_13667" id="dummy-1_q0_0_all" class="clusterblast-orf" description="&lt;b&gt;cds13520_13667&lt;/b&gt;&lt;br&gt;hypothetical protein&lt;br&gt;Location: 13520 - 13667" style="stroke:black; stroke-width:1; fill:white; " points="58,35 60,30 60,40 58,35 "  />
<polygon locus_tag="cds14010_14856" id="dummy-1_q1_0_all" class="clusterblast-orf" description="&lt;b&gt;cds14010_14856&lt;/b&gt;&lt;br&gt;hypothetical protein&lt;br&gt;Location: 14010 - 14856" style="stroke:black; stroke-width:1; fill:white; " points="63,40 68,40 73,35 68,30 63,30 63,40 "  />
<polygon locus_tag="cds14887_16111" id="dummy-1_q2_0_all" class="clusterblast-orf" description="&lt;b&gt;cds14887_16111&lt;/b&gt;&lt;br&gt;Putative cytochrome P450 hydroxylase&lt;br&gt;Location: 14887 - 16111" style="stroke:black; stroke-width:1; fill:#d81515; " points="73,40 81,40 86,35 81,30 73,30 73,40 "  />
<polygon locus_tag="cds16164_17139" id="dummy-1_q3_0_all" class="clusterblast-orf" description="&lt;b&gt;cds16164_17139&lt;/b&gt;&lt;br&gt;hypothetical protein&lt;br&gt;Location: 16164 - 17139" style="stroke:black; stroke-width:1; fill:white; " points="87,35 92,30 98,30 98,40 92,40 87,35 "  />
<polygon locus_tag="cds17354_17960" id="dummy-1_q4_0_all" class="clusterblast-orf" description="&lt;b&gt;cds17354_17960&lt;/b&gt;&lt;br&gt;hypothetical protein&lt;br&gt;Location: 17354 - 17960" style="stroke:black; stroke-width:1; fill:white; " points="100,40 101,40 106,35 101,30 100,30 100,40 "  />
<polygon locus_tag="cds17953_18997" id="dummy-1_q5_0_all" class="clusterblast-orf" description="&lt;b&gt;cds17953_18997&lt;/b&gt;&lt;br&gt;hypothetical protein&lt;br&gt;Location: 17953 - 18997" style="stroke:black; stroke-width:1; fill:#54d815; " points="106,40 113,40 118,35 113,30 106,30 106,40 "  />
<polygon locus_tag="cds19047_19749" id="dummy-1_q6_0_all" class="clusterblast-orf" description="&lt;b&gt;cds19047_19749&lt;/b&gt;&lt;br&gt;hypothetical protein&lt;br&gt;Location: 19047 - 19749" style="stroke:black; stroke-width:1; fill:white; " points="118,40 121,40 126,35 121,30 118,30 118,40 "  />
<polygon locus_tag="cds19751_20600" id="dummy-1_q7_0_all" class="clusterblast-orf" description="&lt;b&gt;cds19751_20600&lt;/b&gt;&lt;br&gt;hypothetical protein&lt;br&gt;Location: 19751 - 20600" style="stroke:black; stroke-width:1; fill:#15c1d8; " points="126,40 130,40 135,35 130,30 126,30 126,40 "  />
<polygon locus_tag="cds20596_22063" id="dummy-1_q8_0_all" class="clusterblast-orf" description="&lt;b&gt;cds20596_22063&lt;/b&gt;&lt;br&gt;Type II/IV secretion system ATP hydrolase TadA/VirB11/CpaF, TadA subfamily&lt;br&gt;Location: 20596 - 22063" style="stroke:black; stroke-width:1; fill:#8215d8; " points="135,40 146,40 151,35 146,30 135,30 135,40 "  />
<polygon locus_tag="cds22059_22971" id="dummy-1_q9_0_all" class="clusterblast-orf" description="&lt;b&gt;cds22059_22971&lt;/b&gt;&lt;br&gt;hypothetical protein&lt;br&gt;Location: 22059 - 22971" style="stroke:black; stroke-width:1; fill:#d84415; " points="151,40 156,40 161,35 156,30 151,30 151,40 "  />
<polygon locus_tag="cds22967_23867" id="dummy-1_q10_0_all" class="clusterblast-orf" description="&lt;b&gt;cds22967_23867&lt;/b&gt;&lt;br&gt;Type II/IV secretion system protein TadC, associated with Flp pilus assembly&lt;br&gt;Location: 22967 - 23867" style="stroke:black; stroke-width:1; fill:#25d815; " points="161,40 166,40 171,35 166,30 161,30 161,40 "  />
<polygon locus_tag="cds23897_24092" id="dummy-1_q11_0_all" class="clusterblast-orf" description="&lt;b&gt;cds23897_24092&lt;/b&gt;&lt;br&gt;hypothetical protein&lt;br&gt;Location: 23897 - 24092" style="stroke:black; stroke-width:1; fill:white; " points="171,40 173,35 171,30 171,40 "  />
<polygon locus_tag="cds24151_24490" id="dummy-1_q12_0_all" class="clusterblast-orf" description="&lt;b&gt;cds24151_24490&lt;/b&gt;&lt;br&gt;putative TadE-like family protein&lt;br&gt;Location: 24151 - 24490" style="stroke:black; stroke-width:1; fill:#1592d8; " points="174,40 178,35 174,30 174,40 "  />
<polygon locus_tag="cds24486_24933" id="dummy-1_q13_0_all" class="clusterblast-orf" description="&lt;b&gt;cds24486_24933&lt;/b&gt;&lt;br&gt;hypothetical protein&lt;br&gt;Location: 24486 - 24933" style="stroke:black; stroke-width:1; fill:white; " points="178,40 182,35 178,30 178,40 "  />
<polygon locus_tag="cds24929_25397" id="dummy-1_q14_0_all" class="clusterblast-orf" description="&lt;b&gt;cds24929_25397&lt;/b&gt;&lt;br&gt;hypothetical protein&lt;br&gt;Location: 24929 - 25397" style="stroke:black; stroke-width:1; fill:white; " points="182,40 182,40 187,35 182,30 182,30 182,40 "  />
<polygon locus_tag="cds25409_28130" id="dummy-1_q15_0_all" class="clusterblast-orf" description="&lt;b&gt;cds25409_28130&lt;/b&gt;&lt;br&gt;hypothetical protein&lt;br&gt;Location: 25409 - 28130" style="stroke:black; stroke-width:1; fill:white; " points="188,40 212,40 217,35 212,30 188,30 188,40 "  />
<polygon locus_tag="cds28193_28682" id="dummy-1_q16_0_all" class="clusterblast-orf" description="&lt;b&gt;cds28193_28682&lt;/b&gt;&lt;br&gt;IS1647-like transposase&lt;br&gt;Location: 28193 - 28682" style="stroke:black; stroke-width:1; fill:white; " points="218,40 218,40 223,35 218,30 218,30 218,40 "  />
<polygon locus_tag="cds28672_29056" id="dummy-1_q17_0_all" class="clusterblast-orf" description="&lt;b&gt;cds28672_29056&lt;/b&gt;&lt;br&gt;Mobile element protein&lt;br&gt;Location: 28672 - 29056" style="stroke:black; stroke-width:1; fill:white; " points="223,40 227,35 223,30 223,40 "  />
<polygon locus_tag="cds29279_29411" id="dummy-1_q18_0_all" class="clusterblast-orf" description="&lt;b&gt;cds29279_29411&lt;/b&gt;&lt;br&gt;hypothetical protein&lt;br&gt;Location: 29279 - 29411" style="stroke:black; stroke-width:1; fill:white; " points="230,40 231,35 230,30 230,40 "  />
<polygon locus_tag="cds29486_29978" id="dummy-1_q19_0_all" class="clusterblast-orf" description="&lt;b&gt;cds29486_29978&lt;/b&gt;&lt;br&gt;Putative regulatory protein&lt;br&gt;Location: 29486 - 29978" style="stroke:black; stroke-width:1; fill:white; " points="232,35 237,30 237,30 237,40 237,40 232,35 "  />
<polygon locus_tag="cds30014_30320" id="dummy-1_q20_0_all" class="clusterblast-orf" description="&lt;b&gt;cds30014_30320&lt;/b&gt;&lt;br&gt;Putative regulatory protein&lt;br&gt;Location: 30014 - 30320" style="stroke:black; stroke-width:1; fill:white; " points="238,35 241,30 241,40 238,35 "  />
<polygon locus_tag="cds30885_30999" id="dummy-1_q21_0_all" class="clusterblast-orf" description="&lt;b&gt;cds30885_30999&lt;/b&gt;&lt;br&gt;hypothetical protein&lt;br&gt;Location: 30885 - 30999" style="stroke:black; stroke-width:1; fill:white; " points="247,35 248,30 248,40 247,35 "  />
<polygon locus_tag="cds31956_32550" id="dummy-1_q22_0_all" class="clusterblast-orf" description="&lt;b&gt;cds31956_32550&lt;/b&gt;&lt;br&gt;hypothetical protein&lt;br&gt;Location: 31956 - 32550" style="stroke:black; stroke-width:1; fill:#b115d8; " points="259,40 260,40 265,35 260,30 259,30 259,40 "  />
<polygon locus_tag="cds32624_34211" id="dummy-1_q23_0_all" class="clusterblast-orf" description="&lt;b&gt;cds32624_34211&lt;/b&gt;&lt;br&gt;amino acid adenylation domain&lt;br&gt;Location: 32624 - 34211" style="stroke:black; stroke-width:1; fill:#d87315; " points="266,40 278,40 283,35 278,30 266,30 266,40 "  />
<polygon locus_tag="cds34230_34488" id="dummy-1_q24_0_all" class="clusterblast-orf" description="&lt;b&gt;cds34230_34488&lt;/b&gt;&lt;br&gt;Putative peptide synthetase&lt;br&gt;Location: 34230 - 34488" style="stroke:black; stroke-width:1; fill:#15d834; " points="284,40 286,35 284,30 284,40 "  />
<polygon locus_tag="cds34643_35831" id="dummy-1_q25_0_all" class="clusterblast-orf" description="&lt;b&gt;cds34643_35831&lt;/b&gt;&lt;br&gt;hydroxylase&lt;br&gt;Location: 34643 - 35831" style="stroke:black; stroke-width:1; fill:#1563d8; " points="288,40 296,40 301,35 296,30 288,30 288,40 "  />
<polygon locus_tag="cds36016_42415" id="dummy-1_q26_0_all" class="clusterblast-orf" description="&lt;b&gt;cds36016_42415&lt;/b&gt;&lt;br&gt;Polyketide synthase modules and related proteins&lt;br&gt;Location: 36016 - 42415" style="stroke:black; stroke-width:1; fill:#d815d0; " points="303,40 368,40 373,35 368,30 303,30 303,40 "  />
<polygon locus_tag="cds42461_50246" id="dummy-1_q27_0_all" class="clusterblast-orf" description="&lt;b&gt;cds42461_50246&lt;/b&gt;&lt;br&gt;Polyketide synthase modules and related proteins&lt;br&gt;Location: 42461 - 50246" style="stroke:black; stroke-width:1; fill:#d815d0; " points="373,40 453,40 458,35 453,30 373,30 373,40 "  />
<polygon locus_tag="cds50242_59200" id="dummy-1_q28_0_all" class="clusterblast-orf" description="&lt;b&gt;cds50242_59200&lt;/b&gt;&lt;br&gt;Polyketide synthase modules and related proteins&lt;br&gt;Location: 50242 - 59200" style="stroke:black; stroke-width:1; fill:#d815d0; " points="458,40 550,40 555,35 550,30 458,30 458,40 "  />
<polygon locus_tag="cds59689_59983" id="dummy-1_q29_0_all" class="clusterblast-orf" description="&lt;b&gt;cds59689_59983&lt;/b&gt;&lt;br&gt;Stress responsive alpha-beta barrel domain protein&lt;br&gt;Location: 59689 - 59983" style="stroke:black; stroke-width:1; fill:#d8a215; " points="561,40 564,35 561,30 561,40 "  />
<polygon locus_tag="cds59994_61422" id="dummy-1_q30_0_all" class="clusterblast-orf" description="&lt;b&gt;cds59994_61422&lt;/b&gt;&lt;br&gt;Coenzyme F390 synthetase&lt;br&gt;Location: 59994 - 61422" style="stroke:black; stroke-width:1; fill:#15d863; " points="564,40 575,40 580,35 575,30 564,30 564,40 "  />
<polygon locus_tag="cds61421_62495" id="dummy-1_q31_0_all" class="clusterblast-orf" description="&lt;b&gt;cds61421_62495&lt;/b&gt;&lt;br&gt;Branched-chain amino acid aminotransferase (EC 2.6.1.42)&lt;br&gt;Location: 61421 - 62495" style="stroke:black; stroke-width:1; fill:#1534d8; " points="580,40 586,40 591,35 586,30 580,30 580,40 "  />
<polygon locus_tag="cds62481_63114" id="dummy-1_q32_0_all" class="clusterblast-orf" description="&lt;b&gt;cds62481_63114&lt;/b&gt;&lt;br&gt;hypothetical protein&lt;br&gt;Location: 62481 - 63114" style="stroke:black; stroke-width:1; fill:#d815a2; " points="591,40 593,40 598,35 593,30 591,30 591,40 "  />
<polygon locus_tag="cds63113_64100" id="dummy-1_q33_0_all" class="clusterblast-orf" description="&lt;b&gt;cds63113_64100&lt;/b&gt;&lt;br&gt;Ornithine cyclodeaminase (EC 4.3.1.12)&lt;br&gt;Location: 63113 - 64100" style="stroke:black; stroke-width:1; fill:#d8d015; " points="598,40 604,40 609,35 604,30 598,30 598,40 "  />
<polygon locus_tag="cds64149_64443" id="dummy-1_q34_0_all" class="clusterblast-orf" description="&lt;b&gt;cds64149_64443&lt;/b&gt;&lt;br&gt;protein of unknown function DUF1330&lt;br&gt;Location: 64149 - 64443" style="stroke:black; stroke-width:1; fill:#15d892; " points="609,40 612,35 609,30 609,40 "  />
<polygon locus_tag="cds64439_65294" id="dummy-1_q35_0_all" class="clusterblast-orf" description="&lt;b&gt;cds64439_65294&lt;/b&gt;&lt;br&gt;Phenazine biosynthesis protein PhzF like&lt;br&gt;Location: 64439 - 65294" style="stroke:black; stroke-width:1; fill:#2515d8; " points="612,40 617,40 622,35 617,30 612,30 612,40 "  />
<polygon locus_tag="cds65592_65748" id="dummy-1_q36_0_all" class="clusterblast-orf" description="&lt;b&gt;cds65592_65748&lt;/b&gt;&lt;br&gt;hypothetical protein&lt;br&gt;Location: 65592 - 65748" style="stroke:black; stroke-width:1; fill:white; " points="625,40 627,35 625,30 625,40 "  />
<polygon locus_tag="cds65943_66348" id="dummy-1_q37_0_all" class="clusterblast-orf" description="&lt;b&gt;cds65943_66348&lt;/b&gt;&lt;br&gt;hypothetical protein&lt;br&gt;Location: 65943 - 66348" style="stroke:black; stroke-width:1; fill:#d81573; " points="629,40 633,35 629,30 629,40 "  />
<polygon locus_tag="cds66425_66596" id="dummy-1_q38_0_all" class="clusterblast-orf" description="&lt;b&gt;cds66425_66596&lt;/b&gt;&lt;br&gt;hypothetical protein&lt;br&gt;Location: 66425 - 66596" style="stroke:black; stroke-width:1; fill:#d81573; " points="634,40 636,35 634,30 634,40 "  />
<polygon locus_tag="cds66664_66865" id="dummy-1_q39_0_all" class="clusterblast-orf" description="&lt;b&gt;cds66664_66865&lt;/b&gt;&lt;br&gt;hypothetical protein&lt;br&gt;Location: 66664 - 66865" style="stroke:black; stroke-width:1; fill:white; " points="637,35 639,30 639,40 637,35 "  />
<polygon locus_tag="cds66926_67868" id="dummy-1_q40_0_all" class="clusterblast-orf" description="&lt;b&gt;cds66926_67868&lt;/b&gt;&lt;br&gt;Efflux ABC transporter, ATP-binding protein&lt;br&gt;Location: 66926 - 67868" style="stroke:black; stroke-width:1; fill:#b1d815; " points="639,40 645,40 650,35 645,30 639,30 639,40 "  />
<polygon locus_tag="cds67864_68626" id="dummy-1_q41_0_all" class="clusterblast-orf" description="&lt;b&gt;cds67864_68626&lt;/b&gt;&lt;br&gt;Efflux ABC transporter, permease protein&lt;br&gt;Location: 67864 - 68626" style="stroke:black; stroke-width:1; fill:#15d8c1; " points="650,40 653,40 658,35 653,30 650,30 650,40 "  />
<polygon locus_tag="cds68609_71753" id="dummy-1_q42_0_all" class="clusterblast-orf" description="&lt;b&gt;cds68609_71753&lt;/b&gt;&lt;br&gt;Transcriptional regulator, AfsR family&lt;br&gt;Location: 68609 - 71753" style="stroke:black; stroke-width:1; fill:#5415d8; " points="658,35 663,30 692,30 692,40 663,40 658,35 "  />
<polygon locus_tag="cds72083_72353" id="dummy-1_q43_0_all" class="clusterblast-orf" description="&lt;b&gt;cds72083_72353&lt;/b&gt;&lt;br&gt;hypothetical protein&lt;br&gt;Location: 72083 - 72353" style="stroke:black; stroke-width:1; fill:#d815d0; " points="696,40 699,35 696,30 696,40 "  />
<polygon locus_tag="cds72349_73600" id="dummy-1_q44_0_all" class="clusterblast-orf" description="&lt;b&gt;cds72349_73600&lt;/b&gt;&lt;br&gt;Cytochrome P450&lt;br&gt;Location: 72349 - 73600" style="stroke:black; stroke-width:1; fill:#d81544; " points="699,40 707,40 712,35 707,30 699,30 699,40 "  />
<polygon locus_tag="cds73596_74421" id="dummy-1_q45_0_all" class="clusterblast-orf" description="&lt;b&gt;cds73596_74421&lt;/b&gt;&lt;br&gt;Thioesterase in siderophore biosynthesis gene cluster&lt;br&gt;Location: 73596 - 74421" style="stroke:black; stroke-width:1; fill:#82d815; " points="712,40 716,40 721,35 716,30 712,30 712,40 "  />
</g>
<g label="NC_016111" class="clusterblast-cluster" description="NC_016111 (2784744-2856402): Streptomyces cattleya NRRL 8057 = DSM 46488, com... (20% of genes show similarity), NRPS"  >
<text class="clusterblast-acc" y="70" x="5"  >
<a xlink:href="https://antismash-db.secondarymetabolites.org/area.html?record=NC_016111&amp;start=2784744&amp;end=2856402" target="_blank">NC_016111 (2784744-2856402)</a>: Streptomyces cattleya NRRL 8057 = DSM 46488, com... (20% of genes show similarity), NRPS</text>
<line x2="778.0" x1="10" y1="85" y2="85" style="stroke:grey; stroke-width:1; "  />
</g>
<g id="a1_000"  >
<polygon locus_tag="SCAT_RS37355" id="dummy-1_h1_9_0" class="clusterblast-orf" description="&lt;b&gt;SCAT_RS37355&lt;/b&gt;&lt;br&gt;SDR family NAD(P)-dependent oxidoreductase&lt;br&gt;Location: 2856402 - 2855391" style="stroke:black; stroke-width:1; fill:white; " points="0,85 5,80 11,80 11,90 5,90 0,85 "  />
</g>
<g id="a1_001"  >
<polygon locus_tag="SCAT_RS20840" id="dummy-1_h1_9_1" class="clusterblast-orf" description="&lt;b&gt;SCAT_RS20840&lt;/b&gt;&lt;br&gt;tetratricopeptide repeat protein&lt;br&gt;Location: 2855112 - 2852893" style="stroke:black; stroke-width:1; fill:white; " points="14,90 33,90 38,85 33,80 14,80 14,90 "  />
</g>
<g id="a1_002"  >
<polygon locus_tag="SCAT_RS20835" id="dummy-1_h1_9_2" class="clusterblast-orf" description="&lt;b&gt;SCAT_RS20835&lt;/b&gt;&lt;br&gt;hypothetical protein&lt;br&gt;Location: 2852927 - 2851038" style="stroke:black; stroke-width:1; fill:white; " points="37,85 42,80 58,80 58,90 42,90 37,85 "  />
</g>
<g id="a1_003"  >
<polygon locus_tag="SCAT_RS20830" id="dummy-1_h1_9_3" class="clusterblast-orf" description="&lt;b&gt;SCAT_RS20830&lt;/b&gt;&lt;br&gt;hypothetical protein&lt;br&gt;Location: 2850952 - 2850308" style="stroke:black; stroke-width:1; fill:white; " points="59,90 61,90 66,85 61,80 59,80 59,90 "  />
</g>
<g id="a1_004"  >
<polygon locus_tag="SCAT_RS20825" id="dummy-1_h1_9_4" class="clusterblast-orf" description="&lt;b&gt;SCAT_RS20825&lt;/b&gt;&lt;br&gt;methylated-DNA--[protein]-cysteine S-methyltransferase&lt;br&gt;Location: 2850300 - 2849818" style="stroke:black; stroke-width:1; fill:white; " points="66,85 71,80 71,80 71,90 71,90 66,85 "  />
</g>
<g id="a1_005"  >
<polygon locus_tag="SCAT_RS20820" id="dummy-1_h1_9_5" class="clusterblast-orf" description="&lt;b&gt;SCAT_RS20820&lt;/b&gt;&lt;br&gt;DNA-3-methyladenine glycosylase 2 family protein&lt;br&gt;Location: 2849767 - 2848718" style="stroke:black; stroke-width:1; fill:white; " points="72,85 77,80 83,80 83,90 77,90 72,85 "  />
</g>
<g id="a1_006"  >
<polygon locus_tag="SCAT_RS20815" id="dummy-1_h1_9_6" class="clusterblast-orf" description="&lt;b&gt;SCAT_RS20815&lt;/b&gt;&lt;br&gt;hypothetical protein&lt;br&gt;Location: 2848767 - 2848426" style="stroke:black; stroke-width:1; fill:white; " points="83,85 86,80 86,90 83,85 "  />
</g>
<g id="a1_007"  >
<polygon locus_tag="SCAT_RS20810" id="dummy-1_h1_9_7" class="clusterblast-orf" description="&lt;b&gt;SCAT_RS20810&lt;/b&gt;&lt;br&gt;membrane protein&lt;br&gt;Location: 2848209 - 2847211" style="stroke:black; stroke-width:1; fill:white; " points="89,90 95,90 100,85 95,80 89,80 89,90 "  />
</g>
<g id="a1_008"  >
<polygon locus_tag="SCAT_RS20805" id="dummy-1_h1_9_8" class="clusterblast-orf" description="&lt;b&gt;SCAT_RS20805&lt;/b&gt;&lt;br&gt;acyltransferase&lt;br&gt;Location: 2847218 - 2845914" style="stroke:black; stroke-width:1; fill:white; " points="99,90 109,90 114,85 109,80 99,80 99,90 "  />
</g>
<g id="a1_009"  >
<polygon locus_tag="SCAT_RS20800" id="dummy-1_h1_9_9" class="clusterblast-orf" description="&lt;b&gt;SCAT_RS20800&lt;/b&gt;&lt;br&gt;class I SAM-dependent methyltransferase&lt;br&gt;Location: 2845778 - 2845080" style="stroke:black; stroke-width:1; fill:white; " points="115,90 118,90 123,85 118,80 115,80 115,90 "  />
</g>
<g id="a1_0010"  >
<polygon locus_tag="SCAT_RS20795" id="dummy-1_h1_9_10" class="clusterblast-orf" description="&lt;b&gt;SCAT_RS20795&lt;/b&gt;&lt;br&gt;tetratricopeptide repeat protein&lt;br&gt;Location: 2844900 - 2841907" style="stroke:black; stroke-width:1; fill:white; " points="125,90 152,90 157,85 152,80 125,80 125,90 "  />
</g>
<g id="a1_0011"  >
<polygon locus_tag="SCAT_RS20790" id="dummy-1_h1_9_11" class="clusterblast-orf" description="&lt;b&gt;SCAT_RS20790&lt;/b&gt;&lt;br&gt;Dabb family protein&lt;br&gt;Location: 2841706 - 2841362&lt;br&gt;&lt;br&gt;&lt;b&gt;BlastP hit with cds59689_59983&lt;/b&gt;&lt;br&gt;Percentage identity: 59&lt;br&gt;Percentage coverage: 98&lt;br&gt;BLAST bit score: 116&lt;br&gt;E-value: 1.9e-24" style="stroke:black; stroke-width:1; fill:#d8a215; " points="159,90 163,85 159,80 159,90 "  />
</g>
<g id="a1_0012"  >
<polygon locus_tag="SCAT_RS20785" id="dummy-1_h1_9_12" class="clusterblast-orf" description="&lt;b&gt;SCAT_RS20785&lt;/b&gt;&lt;br&gt;phenylacetate--CoA ligase family protein&lt;br&gt;Location: 2841338 - 2839890&lt;br&gt;&lt;br&gt;&lt;b&gt;BlastP hit with cds59994_61422&lt;/b&gt;&lt;br&gt;Percentage identity: 57&lt;br&gt;Percentage coverage: 101&lt;br&gt;BLAST bit score: 542&lt;br&gt;E-value: 4e-152" style="stroke:black; stroke-width:1; fill:#15d863; " points="163,90 174,90 179,85 174,80 163,80 163,90 "  />
</g>
<g id="a1_0013"  >
<polygon locus_tag="SCAT_RS20780" id="dummy-1_h1_9_13" class="clusterblast-orf" description="&lt;b&gt;SCAT_RS20780&lt;/b&gt;&lt;br&gt;branched-chain amino acid transaminase&lt;br&gt;Location: 2839893 - 2838895&lt;br&gt;&lt;br&gt;&lt;b&gt;BlastP hit with cds61421_62495&lt;/b&gt;&lt;br&gt;Percentage identity: 52&lt;br&gt;Percentage coverage: 90&lt;br&gt;BLAST bit score: 309&lt;br&gt;E-value: 3.3e-82" style="stroke:black; stroke-width:1; fill:#1534d8; " points="179,90 185,90 190,85 185,80 179,80 179,90 "  />
</g>
<g id="a1_0014"  >
<polygon locus_tag="SCAT_RS20775" id="dummy-1_h1_9_14" class="clusterblast-orf" description="&lt;b&gt;SCAT_RS20775&lt;/b&gt;&lt;br&gt;hypothetical protein&lt;br&gt;Location: 2838893 - 2838219&lt;br&gt;&lt;br&gt;&lt;b&gt;BlastP hit with cds62481_63114&lt;/b&gt;&lt;br&gt;Percentage identity: 57&lt;br&gt;Percentage coverage: 91&lt;br&gt;BLAST bit score: 179&lt;br&gt;E-value: 3.9e-43" style="stroke:black; stroke-width:1; fill:#d815a2; " points="190,90 192,90 197,85 192,80 190,80 190,90 "  />
</g>
<g id="a1_0015"  >
<polygon locus_tag="SCAT_RS20770" id="dummy-1_h1_9_15" class="clusterblast-orf" description="&lt;b&gt;SCAT_RS20770&lt;/b&gt;&lt;br&gt;ornithine cyclodeaminase family protein&lt;br&gt;Location: 2838225 - 2837224&lt;br&gt;&lt;br&gt;&lt;b&gt;BlastP hit with cds63113_64100&lt;/b&gt;&lt;br&gt;Percentage identity: 54&lt;br&gt;Percentage coverage: 101&lt;br&gt;BLAST bit score: 321&lt;br&gt;E-value: 7.7e-86" style="stroke:black; stroke-width:1; fill:#d8d015; " points="197,90 203,90 208,85 203,80 197,80 197,90 "  />
</g>
<g id="a1_0016"  >
<polygon locus_tag="SCAT_RS20765" id="dummy-1_h1_9_16" class="clusterblast-orf" description="&lt;b&gt;SCAT_RS20765&lt;/b&gt;&lt;br&gt;DUF1330 domain-containing protein&lt;br&gt;Location: 2837153 - 2836866&lt;br&gt;&lt;br&gt;&lt;b&gt;BlastP hit with cds64149_64443&lt;/b&gt;&lt;br&gt;Percentage identity: 47&lt;br&gt;Percentage coverage: 96&lt;br&gt;BLAST bit score: 96&lt;br&gt;E-value: 1.2e-18" style="stroke:black; stroke-width:1; fill:#15d892; " points="209,90 212,85 209,80 209,90 "  />
</g>
<g id="a1_0017"  >
<polygon locus_tag="SCAT_RS20760" id="dummy-1_h1_9_17" class="clusterblast-orf" description="&lt;b&gt;SCAT_RS20760&lt;/b&gt;&lt;br&gt;non-ribosomal peptide synthetase&lt;br&gt;Location: 2836570 - 2834201" style="stroke:black; stroke-width:1; fill:white; " points="215,90 236,90 241,85 236,80 215,80 215,90 "  />
</g>
<g id="a1_0018"  >
<polygon locus_tag="SCAT_RS20755" id="dummy-1_h1_9_18" class="clusterblast-orf" description="&lt;b&gt;SCAT_RS20755&lt;/b&gt;&lt;br&gt;TauD/TfdA family dioxygenase&lt;br&gt;Location: 2834204 - 2833221" style="stroke:black; stroke-width:1; fill:white; " points="241,90 247,90 252,85 247,80 241,80 241,90 "  />
</g>
<g id="a1_0019"  >
<polygon locus_tag="SCAT_RS20750" id="dummy-1_h1_9_19" class="clusterblast-orf" description="&lt;b&gt;SCAT_RS20750&lt;/b&gt;&lt;br&gt;2,3-diaminopropionate biosynthesis protein SbnB&lt;br&gt;Location: 2833173 - 2832139" style="stroke:black; stroke-width:1; fill:white; " points="252,90 259,90 264,85 259,80 252,80 252,90 "  />
</g>
<g id="a1_0020"  >
<polygon locus_tag="SCAT_RS20745" id="dummy-1_h1_9_20" class="clusterblast-orf" description="&lt;b&gt;SCAT_RS20745&lt;/b&gt;&lt;br&gt;2,3-diaminopropionate biosynthesis protein SbnA&lt;br&gt;Location: 2832096 - 2831128" style="stroke:black; stroke-width:1; fill:white; " points="264,90 270,90 275,85 270,80 264,80 264,90 "  />
</g>
<g id="a1_0021"  >
<polygon locus_tag="SCAT_RS20740" id="dummy-1_h1_9_21" class="clusterblast-orf" description="&lt;b&gt;SCAT_RS20740&lt;/b&gt;&lt;br&gt;MbtH family protein&lt;br&gt;Location: 2831108 - 2830893" style="stroke:black; stroke-width:1; fill:white; " points="275,90 277,85 275,80 275,90 "  />
</g>
<g id="a1_0022"  >
<polygon locus_tag="SCAT_RS20735" id="dummy-1_h1_9_22" class="clusterblast-orf" description="&lt;b&gt;SCAT_RS20735&lt;/b&gt;&lt;br&gt;TauD/TfdA family dioxygenase&lt;br&gt;Location: 2830896 - 2829913" style="stroke:black; stroke-width:1; fill:white; " points="277,90 283,90 288,85 283,80 277,80 277,90 "  />
</g>
<g id="a1_0023"  >
<polygon locus_tag="SCAT_RS20730" id="dummy-1_h1_9_23" class="clusterblast-orf" description="&lt;b&gt;SCAT_RS20730&lt;/b&gt;&lt;br&gt;daunorubicin resistance protein DrrA family ABC transporter ATP-binding protein&lt;br&gt;Location: 2829891 - 2828866&lt;br&gt;&lt;br&gt;&lt;b&gt;BlastP hit with cds66926_67868&lt;/b&gt;&lt;br&gt;Percentage identity: 43&lt;br&gt;Percentage coverage: 99&lt;br&gt;BLAST bit score: 233&lt;br&gt;E-value: 2e-59" style="stroke:black; stroke-width:1; fill:#b1d815; " points="288,90 294,90 299,85 294,80 288,80 288,90 "  />
</g>
<g id="a1_0024"  >
<polygon locus_tag="SCAT_RS20725" id="dummy-1_h1_9_24" class="clusterblast-orf" description="&lt;b&gt;SCAT_RS20725&lt;/b&gt;&lt;br&gt;ABC transporter permease&lt;br&gt;Location: 2828869 - 2828060" style="stroke:black; stroke-width:1; fill:white; " points="299,90 303,90 308,85 303,80 299,80 299,90 "  />
</g>
<g id="a1_0025"  >
<polygon locus_tag="SCAT_RS20720" id="dummy-1_h1_9_25" class="clusterblast-orf" description="&lt;b&gt;SCAT_RS20720&lt;/b&gt;&lt;br&gt;response regulator transcription factor&lt;br&gt;Location: 2828037 - 2827375" style="stroke:black; stroke-width:1; fill:white; " points="308,85 313,80 315,80 315,90 313,90 308,85 "  />
</g>
<g id="a1_0026"  >
<polygon locus_tag="SCAT_RS20715" id="dummy-1_h1_9_26" class="clusterblast-orf" description="&lt;b&gt;SCAT_RS20715&lt;/b&gt;&lt;br&gt;two-component sensor histidine kinase&lt;br&gt;Location: 2827378 - 2826047" style="stroke:black; stroke-width:1; fill:white; " points="315,85 320,80 330,80 330,90 320,90 315,85 "  />
</g>
<g id="a1_0027"  >
<polygon locus_tag="SCAT_RS20710" id="dummy-1_h1_9_27" class="clusterblast-orf" description="&lt;b&gt;SCAT_RS20710&lt;/b&gt;&lt;br&gt;non-ribosomal peptide synthetase&lt;br&gt;Location: 2825748 - 2817514&lt;br&gt;&lt;br&gt;&lt;b&gt;BlastP hit with cds42461_50246&lt;/b&gt;&lt;br&gt;Percentage identity: 34&lt;br&gt;Percentage coverage: 103&lt;br&gt;BLAST bit score: 1165&lt;br&gt;E-value: 0.0&lt;br&gt;&lt;br&gt;&lt;b&gt;BlastP hit with cds50242_59200&lt;/b&gt;&lt;br&gt;Percentage identity: 31&lt;br&gt;Percentage coverage: 102&lt;br&gt;BLAST bit score: 1069&lt;br&gt;E-value: 4.5e-310" style="stroke:black; stroke-width:1; fill:#d815d0; " points="333,90 418,90 423,85 418,80 333,80 333,90 "  />
</g>
<g id="a1_0028"  >
<polygon locus_tag="SCAT_RS20705" id="dummy-1_h1_9_28" class="clusterblast-orf" description="&lt;b&gt;SCAT_RS20705&lt;/b&gt;&lt;br&gt;non-ribosomal peptide synthetase&lt;br&gt;Location: 2817454 - 2809643&lt;br&gt;&lt;br&gt;&lt;b&gt;BlastP hit with cds36016_42415&lt;/b&gt;&lt;br&gt;Percentage identity: 36&lt;br&gt;Percentage coverage: 76&lt;br&gt;BLAST bit score: 727&lt;br&gt;E-value: 3e-207&lt;br&gt;&lt;br&gt;&lt;b&gt;BlastP hit with cds42461_50246&lt;/b&gt;&lt;br&gt;Percentage identity: 34&lt;br&gt;Percentage coverage: 102&lt;br&gt;BLAST bit score: 1174&lt;br&gt;E-value: 0.0&lt;br&gt;&lt;br&gt;&lt;b&gt;BlastP hit with cds50242_59200&lt;/b&gt;&lt;br&gt;Percentage identity: 39&lt;br&gt;Percentage coverage: 65&lt;br&gt;BLAST bit score: 1170&lt;br&gt;E-value: 0.0" style="stroke:black; stroke-width:1; fill:#d815d0; " points="423,90 503,90 508,85 503,80 423,80 423,90 "  />
</g>
<g id="a1_0029"  >
<polygon locus_tag="SCAT_RS20700" id="dummy-1_h1_9_29" class="clusterblast-orf" description="&lt;b&gt;SCAT_RS20700&lt;/b&gt;&lt;br&gt;non-ribosomal peptide synthetase&lt;br&gt;Location: 2809643 - 2804016&lt;br&gt;&lt;br&gt;&lt;b&gt;BlastP hit with cds50242_59200&lt;/b&gt;&lt;br&gt;Percentage identity: 50&lt;br&gt;Percentage coverage: 32&lt;br&gt;BLAST bit score: 810&lt;br&gt;E-value: 5e-232&lt;br&gt;&lt;br&gt;&lt;b&gt;BlastP hit with cds72083_72353&lt;/b&gt;&lt;br&gt;Percentage identity: 46&lt;br&gt;Percentage coverage: 64&lt;br&gt;BLAST bit score: 56&lt;br&gt;E-value: 1.6e-06" style="stroke:black; stroke-width:1; fill:#d815d0; " points="508,90 565,90 570,85 565,80 508,80 508,90 "  />
</g>
<g id="a1_0030"  >
<polygon locus_tag="SCAT_RS20695" id="dummy-1_h1_9_30" class="clusterblast-orf" description="&lt;b&gt;SCAT_RS20695&lt;/b&gt;&lt;br&gt;aspartate/glutamate racemase family protein&lt;br&gt;Location: 2803928 - 2803161" style="stroke:black; stroke-width:1; fill:white; " points="571,90 574,90 579,85 574,80 571,80 571,90 "  />
</g>
<g id="a1_0031"  >
<polygon locus_tag="SCAT_RS20690" id="dummy-1_h1_9_31" class="clusterblast-orf" description="&lt;b&gt;SCAT_RS20690&lt;/b&gt;&lt;br&gt;thioesterase&lt;br&gt;Location: 2803174 - 2802398" style="stroke:black; stroke-width:1; fill:white; " points="579,85 584,80 587,80 587,90 584,90 579,85 "  />
</g>
<g id="a1_0032"  >
<polygon locus_tag="SCAT_RS20685" id="dummy-1_h1_9_32" class="clusterblast-orf" description="&lt;b&gt;SCAT_RS20685&lt;/b&gt;&lt;br&gt;FAD-dependent monooxygenase&lt;br&gt;Location: 2802225 - 2801035&lt;br&gt;&lt;br&gt;&lt;b&gt;BlastP hit with cds34643_35831&lt;/b&gt;&lt;br&gt;Percentage identity: 56&lt;br&gt;Percentage coverage: 100&lt;br&gt;BLAST bit score: 428&lt;br&gt;E-value: 5.4e-118" style="stroke:black; stroke-width:1; fill:#1563d8; " points="589,90 597,90 602,85 597,80 589,80 589,90 "  />
</g>
<g id="a1_0033"  >
<polygon locus_tag="SCAT_RS20680" id="dummy-1_h1_9_33" class="clusterblast-orf" description="&lt;b&gt;SCAT_RS20680&lt;/b&gt;&lt;br&gt;chorismate mutase&lt;br&gt;Location: 2801002 - 2800739" style="stroke:black; stroke-width:1; fill:white; " points="603,90 605,85 603,80 603,90 "  />
</g>
<g id="a1_0034"  >
<polygon locus_tag="SCAT_RS20675" id="dummy-1_h1_9_34" class="clusterblast-orf" description="&lt;b&gt;SCAT_RS20675&lt;/b&gt;&lt;br&gt;hypothetical protein&lt;br&gt;Location: 2800658 - 2799519" style="stroke:black; stroke-width:1; fill:white; " points="606,85 611,80 619,80 619,90 611,90 606,85 "  />
</g>
<g id="a1_0035"  >
<polygon locus_tag="SCAT_RS20670" id="dummy-1_h1_9_35" class="clusterblast-orf" description="&lt;b&gt;SCAT_RS20670&lt;/b&gt;&lt;br&gt;methyltransferase domain-containing protein&lt;br&gt;Location: 2799450 - 2798452" style="stroke:black; stroke-width:1; fill:white; " points="619,85 624,80 630,80 630,90 624,90 619,85 "  />
</g>
<g id="a1_0036"  >
<polygon locus_tag="SCAT_RS39215" id="dummy-1_h1_9_36" class="clusterblast-orf" description="&lt;b&gt;SCAT_RS39215&lt;/b&gt;&lt;br&gt;hypothetical protein&lt;br&gt;Location: 2798411 - 2798247" style="stroke:black; stroke-width:1; fill:white; " points="631,85 633,80 633,90 631,85 "  />
</g>
<g id="a1_0037"  >
<polygon locus_tag="SCAT_RS20665" id="dummy-1_h1_9_37" class="clusterblast-orf" description="&lt;b&gt;SCAT_RS20665&lt;/b&gt;&lt;br&gt;DUF4097 family beta strand repeat protein&lt;br&gt;Location: 2798067 - 2797405" style="stroke:black; stroke-width:1; fill:white; " points="634,85 639,80 642,80 642,90 639,90 634,85 "  />
</g>
<g id="a1_0038"  >
<polygon locus_tag="SCAT_RS20660" id="dummy-1_h1_9_38" class="clusterblast-orf" description="&lt;b&gt;SCAT_RS20660&lt;/b&gt;&lt;br&gt;helix-turn-helix domain-containing protein&lt;br&gt;Location: 2797173 - 2796445" style="stroke:black; stroke-width:1; fill:white; " points="644,90 647,90 652,85 647,80 644,80 644,90 "  />
</g>
<g id="a1_0039"  >
<polygon locus_tag="SCAT_RS20655" id="dummy-1_h1_9_39" class="clusterblast-orf" description="&lt;b&gt;SCAT_RS20655&lt;/b&gt;&lt;br&gt;ATP-binding cassette domain-containing protein&lt;br&gt;Location: 2796220 - 2795522" style="stroke:black; stroke-width:1; fill:white; " points="655,90 657,90 662,85 657,80 655,80 655,90 "  />
</g>
<g id="a1_0040"  >
<polygon locus_tag="SCAT_RS20650" id="dummy-1_h1_9_40" class="clusterblast-orf" description="&lt;b&gt;SCAT_RS20650&lt;/b&gt;&lt;br&gt;hypothetical protein&lt;br&gt;Location: 2795525 - 2794764" style="stroke:black; stroke-width:1; fill:white; " points="662,90 665,90 670,85 665,80 662,80 662,90 "  />
</g>
<g id="a1_0041"  >
<polygon locus_tag="SCAT_RS20645" id="dummy-1_h1_9_41" class="clusterblast-orf" description="&lt;b&gt;SCAT_RS20645&lt;/b&gt;&lt;br&gt;class I SAM-dependent methyltransferase&lt;br&gt;Location: 2794725 - 2793946" style="stroke:black; stroke-width:1; fill:white; " points="671,90 674,90 679,85 674,80 671,80 671,90 "  />
</g>
<g id="a1_0042"  >
<polygon locus_tag="SCAT_RS20640" id="dummy-1_h1_9_42" class="clusterblast-orf" description="&lt;b&gt;SCAT_RS20640&lt;/b&gt;&lt;br&gt;N-acetylmuramoyl-L-alanine amidase&lt;br&gt;Location: 2793965 - 2793306" style="stroke:black; stroke-width:1; fill:white; " points="679,85 684,80 686,80 686,90 684,90 679,85 "  />
</g>
<g id="a1_0043"  >
<polygon locus_tag="SCAT_RS20635" id="dummy-1_h1_9_43" class="clusterblast-orf" description="&lt;b&gt;SCAT_RS20635&lt;/b&gt;&lt;br&gt;Sec-independent protein translocase subunit TatA&lt;br&gt;Location: 2793135 - 2792857" style="stroke:black; stroke-width:1; fill:white; " points="688,85 691,80 691,90 688,85 "  />
</g>
<g id="a1_0044"  >
<polygon locus_tag="SCAT_RS20630" id="dummy-1_h1_9_44" class="clusterblast-orf" description="&lt;b&gt;SCAT_RS20630&lt;/b&gt;&lt;br&gt;hypothetical protein&lt;br&gt;Location: 2792652 - 2792404" style="stroke:black; stroke-width:1; fill:white; " points="693,90 696,85 693,80 693,90 "  />
</g>
<g id="a1_0045"  >
<polygon locus_tag="SCAT_RS20625" id="dummy-1_h1_9_45" class="clusterblast-orf" description="&lt;b&gt;SCAT_RS20625&lt;/b&gt;&lt;br&gt;DedA family protein&lt;br&gt;Location: 2792345 - 2791689" style="stroke:black; stroke-width:1; fill:white; " points="697,85 702,80 704,80 704,90 702,90 697,85 "  />
</g>
<g id="a1_0046"  >
<polygon locus_tag="SCAT_RS20620" id="dummy-1_h1_9_46" class="clusterblast-orf" description="&lt;b&gt;SCAT_RS20620&lt;/b&gt;&lt;br&gt;M56 family metallopeptidase&lt;br&gt;Location: 2791603 - 2790593" style="stroke:black; stroke-width:1; fill:white; " points="705,85 710,80 716,80 716,90 710,90 705,85 "  />
</g>
<g id="a1_0047"  >
<polygon locus_tag="SCAT_RS20615" id="dummy-1_h1_9_47" class="clusterblast-orf" description="&lt;b&gt;SCAT_RS20615&lt;/b&gt;&lt;br&gt;BlaI/MecI/CopY family transcriptional regulator&lt;br&gt;Location: 2790596 - 2790192" style="stroke:black; stroke-width:1; fill:white; " points="716,85 720,80 720,90 716,85 "  />
</g>
<g id="a1_0048"  >
<polygon locus_tag="SCAT_RS20610" id="dummy-1_h1_9_48" class="clusterblast-orf" description="&lt;b&gt;SCAT_RS20610&lt;/b&gt;&lt;br&gt;phosphatase PAP2 family protein&lt;br&gt;Location: 2790077 - 2789403" style="stroke:black; stroke-width:1; fill:white; " points="721,90 724,90 729,85 724,80 721,80 721,90 "  />
</g>
<g id="a1_0049"  >
<polygon locus_tag="SCAT_RS20605" id="dummy-1_h1_9_49" class="clusterblast-orf" description="&lt;b&gt;SCAT_RS20605&lt;/b&gt;&lt;br&gt;asparagine synthase (glutamine-hydrolyzing)&lt;br&gt;Location: 2789239 - 2787389" style="stroke:black; stroke-width:1; fill:white; " points="731,85 736,80 751,80 751,90 736,90 731,85 "  />
</g>
<g id="a1_0050"  >
<polygon locus_tag="SCAT_RS20600" id="dummy-1_h1_9_50" class="clusterblast-orf" description="&lt;b&gt;SCAT_RS20600&lt;/b&gt;&lt;br&gt;MerR family transcriptional regulator&lt;br&gt;Location: 2787120 - 2786359" style="stroke:black; stroke-width:1; fill:white; " points="754,90 757,90 762,85 757,80 754,80 754,90 "  />
</g>
<g id="a1_0051"  >
<polygon locus_tag="SCAT_RS20595" id="dummy-1_h1_9_51" class="clusterblast-orf" description="&lt;b&gt;SCAT_RS20595&lt;/b&gt;&lt;br&gt;YbjQ family protein&lt;br&gt;Location: 2785960 - 2785592" style="stroke:black; stroke-width:1; fill:white; " points="766,85 770,80 770,90 766,85 "  />
</g>
<g id="a1_0052"  >
<polygon locus_tag="SCAT_RS20590" id="dummy-1_h1_9_52" class="clusterblast-orf" description="&lt;b&gt;SCAT_RS20590&lt;/b&gt;&lt;br&gt;VTT domain-containing protein&lt;br&gt;Location: 2785455 - 2784745" style="stroke:black; stroke-width:1; fill:white; " points="772,90 775,90 780,85 775,80 772,80 772,90 "  />
</g>
</svg>
