<svg xmlns="http://www.w3.org/2000/svg" version="1.1" y="0" x="0" preserveAspectRatio="none" xmlns:xlink="http://www.w3.org/1999/xlink" viewBox="0 0 800 230" height="230" width="800"  >
<g label="Query sequence" class="clusterblast-cluster"  >
<text class="clusterblast-acc" y="20" x="5"  >
Query sequence</text>
<line x2="778.0" x1="10" y1="35" y2="35" style="stroke:grey; stroke-width:1; "  />
<polygon locus_tag="cds0_4245" id="dummy-1_q0_0_all" class="clusterblast-orf" description="&lt;b&gt;cds0_4245&lt;/b&gt;&lt;br&gt;Polyketide synthase modules and related proteins&lt;br&gt;Location: 0 - 4245" style="stroke:black; stroke-width:1; fill:#d81515; " points="331,35 336,30 389,30 389,40 336,40 331,35 "  />
<polygon locus_tag="cds4786_8566" id="dummy-1_q1_0_all" class="clusterblast-orf" description="&lt;b&gt;cds4786_8566&lt;/b&gt;&lt;br&gt;hypothetical protein&lt;br&gt;Location: 4786 - 8566" style="stroke:black; stroke-width:1; fill:#d81515; " points="397,35 402,30 448,30 448,40 402,40 397,35 "  />
</g>
<g label="NZ_CP029190" class="clusterblast-cluster" description="NZ_CP029190 (2564820-2621797): Streptomyces venezuelae strain ATCC 21782 chro... (5% of genes show similarity), NRPS"  >
<text class="clusterblast-acc" y="70" x="5"  >
<a xlink:href="https://antismash-db.secondarymetabolites.org/area.html?record=NZ_CP029190&amp;start=2564820&amp;end=2621797" target="_blank">NZ_CP029190 (2564820-2621797)</a>: Streptomyces venezuelae strain ATCC 21782 chro... (5% of genes show similarity), NRPS</text>
<line x2="778.0" x1="10" y1="85" y2="85" style="stroke:grey; stroke-width:1; "  />
</g>
<g id="a1_000"  >
<polygon locus_tag="DEJ50_RS11125" id="dummy-1_h1_3_0" class="clusterblast-orf" description="&lt;b&gt;DEJ50_RS11125&lt;/b&gt;&lt;br&gt;transporter substrate-binding domain-containing protein&lt;br&gt;Location: 2564821 - 2565780" style="stroke:black; stroke-width:1; fill:white; " points="0,90 8,90 13,85 8,80 0,80 0,90 "  />
</g>
<g id="a1_001"  >
<polygon locus_tag="DEJ50_RS11130" id="dummy-1_h1_3_1" class="clusterblast-orf" description="&lt;b&gt;DEJ50_RS11130&lt;/b&gt;&lt;br&gt;ABC transporter permease subunit&lt;br&gt;Location: 2565912 - 2566787" style="stroke:black; stroke-width:1; fill:white; " points="14,90 21,90 26,85 21,80 14,80 14,90 "  />
</g>
<g id="a1_002"  >
<polygon locus_tag="DEJ50_RS11135" id="dummy-1_h1_3_2" class="clusterblast-orf" description="&lt;b&gt;DEJ50_RS11135&lt;/b&gt;&lt;br&gt;ATP-binding cassette domain-containing protein&lt;br&gt;Location: 2566787 - 2567554" style="stroke:black; stroke-width:1; fill:white; " points="26,90 32,90 37,85 32,80 26,80 26,90 "  />
</g>
<g id="a1_003"  >
<polygon locus_tag="DEJ50_RS11140" id="dummy-1_h1_3_3" class="clusterblast-orf" description="&lt;b&gt;DEJ50_RS11140&lt;/b&gt;&lt;br&gt;methyltransferase domain-containing protein&lt;br&gt;Location: 2567635 - 2568387" style="stroke:black; stroke-width:1; fill:white; " points="38,85 43,80 48,80 48,90 43,90 38,85 "  />
</g>
<g id="a1_004"  >
<polygon locus_tag="DEJ50_RS11145" id="dummy-1_h1_3_4" class="clusterblast-orf" description="&lt;b&gt;DEJ50_RS11145&lt;/b&gt;&lt;br&gt;CGNR zinc finger domain-containing protein&lt;br&gt;Location: 2568491 - 2569120" style="stroke:black; stroke-width:1; fill:white; " points="50,90 53,90 58,85 53,80 50,80 50,90 "  />
</g>
<g id="a1_005"  >
<polygon locus_tag="DEJ50_RS11150" id="dummy-1_h1_3_5" class="clusterblast-orf" description="&lt;b&gt;DEJ50_RS11150&lt;/b&gt;&lt;br&gt;nickel-type superoxide dismutase maturation protease&lt;br&gt;Location: 2569024 - 2569446" style="stroke:black; stroke-width:1; fill:white; " points="57,85 62,80 63,80 63,90 62,90 57,85 "  />
</g>
<g id="a1_006"  >
<polygon locus_tag="DEJ50_RS11155" id="dummy-1_h1_3_6" class="clusterblast-orf" description="&lt;b&gt;DEJ50_RS11155&lt;/b&gt;&lt;br&gt;superoxide dismutase, Ni&lt;br&gt;Location: 2569621 - 2570016" style="stroke:black; stroke-width:1; fill:white; " points="65,90 66,90 71,85 66,80 65,80 65,90 "  />
</g>
<g id="a1_007"  >
<polygon locus_tag="DEJ50_RS11160" id="dummy-1_h1_3_7" class="clusterblast-orf" description="&lt;b&gt;DEJ50_RS11160&lt;/b&gt;&lt;br&gt;phosphoesterase&lt;br&gt;Location: 2570773 - 2571348" style="stroke:black; stroke-width:1; fill:white; " points="81,90 84,90 89,85 84,80 81,80 81,90 "  />
</g>
<g id="a1_008"  >
<polygon locus_tag="DEJ50_RS11165" id="dummy-1_h1_3_8" class="clusterblast-orf" description="&lt;b&gt;DEJ50_RS11165&lt;/b&gt;&lt;br&gt;metallophosphatase&lt;br&gt;Location: 2571345 - 2572910" style="stroke:black; stroke-width:1; fill:white; " points="89,90 105,90 110,85 105,80 89,80 89,90 "  />
</g>
<g id="a1_009"  >
<polygon locus_tag="DEJ50_RS11170" id="dummy-1_h1_3_9" class="clusterblast-orf" description="&lt;b&gt;DEJ50_RS11170&lt;/b&gt;&lt;br&gt;acyltransferase family protein&lt;br&gt;Location: 2572990 - 2574195" style="stroke:black; stroke-width:1; fill:white; " points="111,85 116,80 128,80 128,90 116,90 111,85 "  />
</g>
<g id="a1_0010"  >
<polygon locus_tag="DEJ50_RS11175" id="dummy-1_h1_3_10" class="clusterblast-orf" description="&lt;b&gt;DEJ50_RS11175&lt;/b&gt;&lt;br&gt;cytochrome P450&lt;br&gt;Location: 2574260 - 2575489" style="stroke:black; stroke-width:1; fill:white; " points="129,85 134,80 146,80 146,90 134,90 129,85 "  />
</g>
<g id="a1_0011"  >
<polygon locus_tag="DEJ50_RS11180" id="dummy-1_h1_3_11" class="clusterblast-orf" description="&lt;b&gt;DEJ50_RS11180&lt;/b&gt;&lt;br&gt;zinc-binding dehydrogenase&lt;br&gt;Location: 2575815 - 2576777" style="stroke:black; stroke-width:1; fill:white; " points="150,90 158,90 163,85 158,80 150,80 150,90 "  />
</g>
<g id="a1_0012"  >
<polygon locus_tag="DEJ50_RS11185" id="dummy-1_h1_3_12" class="clusterblast-orf" description="&lt;b&gt;DEJ50_RS11185&lt;/b&gt;&lt;br&gt;DUF4097 family beta strand repeat protein&lt;br&gt;Location: 2576818 - 2577738" style="stroke:black; stroke-width:1; fill:white; " points="164,85 169,80 176,80 176,90 169,90 164,85 "  />
</g>
<g id="a1_0013"  >
<polygon locus_tag="DEJ50_RS11190" id="dummy-1_h1_3_13" class="clusterblast-orf" description="&lt;b&gt;DEJ50_RS11190&lt;/b&gt;&lt;br&gt;ABC transporter permease&lt;br&gt;Location: 2577909 - 2578697" style="stroke:black; stroke-width:1; fill:white; " points="179,85 184,80 189,80 189,90 184,90 179,85 "  />
</g>
<g id="a1_0014"  >
<polygon locus_tag="DEJ50_RS11195" id="dummy-1_h1_3_14" class="clusterblast-orf" description="&lt;b&gt;DEJ50_RS11195&lt;/b&gt;&lt;br&gt;ATP-binding cassette domain-containing protein&lt;br&gt;Location: 2578694 - 2579683" style="stroke:black; stroke-width:1; fill:white; " points="189,85 194,80 203,80 203,90 194,90 189,85 "  />
</g>
<g id="a1_0015"  >
<polygon locus_tag="DEJ50_RS11200" id="dummy-1_h1_3_15" class="clusterblast-orf" description="&lt;b&gt;DEJ50_RS11200&lt;/b&gt;&lt;br&gt;TetR family transcriptional regulator&lt;br&gt;Location: 2579808 - 2580494" style="stroke:black; stroke-width:1; fill:white; " points="205,90 209,90 214,85 209,80 205,80 205,90 "  />
</g>
<g id="a1_0016"  >
<polygon locus_tag="DEJ50_RS11205" id="dummy-1_h1_3_16" class="clusterblast-orf" description="&lt;b&gt;DEJ50_RS11205&lt;/b&gt;&lt;br&gt;cytochrome P450&lt;br&gt;Location: 2580684 - 2581883" style="stroke:black; stroke-width:1; fill:white; " points="217,85 222,80 233,80 233,90 222,90 217,85 "  />
</g>
<g id="a1_0017"  >
<polygon locus_tag="DEJ50_RS11210" id="dummy-1_h1_3_17" class="clusterblast-orf" description="&lt;b&gt;DEJ50_RS11210&lt;/b&gt;&lt;br&gt;cytochrome P450&lt;br&gt;Location: 2581981 - 2583174" style="stroke:black; stroke-width:1; fill:white; " points="234,85 239,80 251,80 251,90 239,90 234,85 "  />
</g>
<g id="a1_0018"  >
<polygon locus_tag="DEJ50_RS11215" id="dummy-1_h1_3_18" class="clusterblast-orf" description="&lt;b&gt;DEJ50_RS11215&lt;/b&gt;&lt;br&gt;MbtH family NRPS accessory protein&lt;br&gt;Location: 2583212 - 2583430" style="stroke:black; stroke-width:1; fill:white; " points="251,85 254,80 254,90 251,85 "  />
</g>
<g id="a1_0019"  >
<polygon locus_tag="DEJ50_RS11220" id="dummy-1_h1_3_19" class="clusterblast-orf" description="&lt;b&gt;DEJ50_RS11220&lt;/b&gt;&lt;br&gt;amino acid adenylation domain-containing protein&lt;br&gt;Location: 2583427 - 2599770&lt;br&gt;&lt;br&gt;&lt;b&gt;BlastP hit with cds0_4245&lt;/b&gt;&lt;br&gt;Percentage identity: 67&lt;br&gt;Percentage coverage: 100&lt;br&gt;BLAST bit score: 1835&lt;br&gt;E-value: 0.0" style="stroke:black; stroke-width:1; fill:#d81515; " points="254,85 259,80 478,80 478,90 259,90 254,85 "  />
</g>
<g id="a1_0020"  >
<polygon locus_tag="DEJ50_RS11225" id="dummy-1_h1_3_20" class="clusterblast-orf" description="&lt;b&gt;DEJ50_RS11225&lt;/b&gt;&lt;br&gt;SDR family NAD(P)-dependent oxidoreductase&lt;br&gt;Location: 2599854 - 2603753&lt;br&gt;&lt;br&gt;&lt;b&gt;BlastP hit with cds4786_8566&lt;/b&gt;&lt;br&gt;Percentage identity: 68&lt;br&gt;Percentage coverage: 96&lt;br&gt;BLAST bit score: 1622&lt;br&gt;E-value: 0.0" style="stroke:black; stroke-width:1; fill:#d81515; " points="479,85 484,80 532,80 532,90 484,90 479,85 "  />
</g>
<g id="a1_0021"  >
<polygon locus_tag="DEJ50_RS11230" id="dummy-1_h1_3_21" class="clusterblast-orf" description="&lt;b&gt;DEJ50_RS11230&lt;/b&gt;&lt;br&gt;alpha/beta fold hydrolase&lt;br&gt;Location: 2603750 - 2604532" style="stroke:black; stroke-width:1; fill:white; " points="532,85 537,80 543,80 543,90 537,90 532,85 "  />
</g>
<g id="a1_0022"  >
<polygon locus_tag="DEJ50_RS11235" id="dummy-1_h1_3_22" class="clusterblast-orf" description="&lt;b&gt;DEJ50_RS11235&lt;/b&gt;&lt;br&gt;AfsR/SARP family transcriptional regulator&lt;br&gt;Location: 2604934 - 2605695" style="stroke:black; stroke-width:1; fill:white; " points="549,90 554,90 559,85 554,80 549,80 549,90 "  />
</g>
<g id="a1_0023"  >
<polygon locus_tag="DEJ50_RS11240" id="dummy-1_h1_3_23" class="clusterblast-orf" description="&lt;b&gt;DEJ50_RS11240&lt;/b&gt;&lt;br&gt;FAD-dependent oxidoreductase&lt;br&gt;Location: 2605742 - 2607334" style="stroke:black; stroke-width:1; fill:white; " points="560,85 565,80 582,80 582,90 565,90 560,85 "  />
</g>
<g id="a1_0024"  >
<polygon locus_tag="DEJ50_RS11245" id="dummy-1_h1_3_24" class="clusterblast-orf" description="&lt;b&gt;DEJ50_RS11245&lt;/b&gt;&lt;br&gt;prolyl oligopeptidase family serine peptidase&lt;br&gt;Location: 2607618 - 2609909" style="stroke:black; stroke-width:1; fill:white; " points="585,90 612,90 617,85 612,80 585,80 585,90 "  />
</g>
<g id="a1_0025"  >
<polygon locus_tag="DEJ50_RS11250" id="dummy-1_h1_3_25" class="clusterblast-orf" description="&lt;b&gt;DEJ50_RS11250&lt;/b&gt;&lt;br&gt;tetratricopeptide repeat protein&lt;br&gt;Location: 2609991 - 2612948" style="stroke:black; stroke-width:1; fill:white; " points="618,85 623,80 658,80 658,90 623,90 618,85 "  />
</g>
<g id="a1_0026"  >
<polygon locus_tag="DEJ50_RS11255" id="dummy-1_h1_3_26" class="clusterblast-orf" description="&lt;b&gt;DEJ50_RS11255&lt;/b&gt;&lt;br&gt;hypothetical protein&lt;br&gt;Location: 2613138 - 2613350" style="stroke:black; stroke-width:1; fill:white; " points="661,85 664,80 664,90 661,85 "  />
</g>
<g id="a1_0027"  >
<polygon locus_tag="DEJ50_RS11260" id="dummy-1_h1_3_27" class="clusterblast-orf" description="&lt;b&gt;DEJ50_RS11260&lt;/b&gt;&lt;br&gt;4'-phosphopantetheinyl transferase superfamily protein&lt;br&gt;Location: 2613609 - 2614508" style="stroke:black; stroke-width:1; fill:white; " points="667,90 675,90 680,85 675,80 667,80 667,90 "  />
</g>
<g id="a1_0028"  >
<polygon locus_tag="DEJ50_RS11265" id="dummy-1_h1_3_28" class="clusterblast-orf" description="&lt;b&gt;DEJ50_RS11265&lt;/b&gt;&lt;br&gt;flavin reductase family protein&lt;br&gt;Location: 2614620 - 2615153" style="stroke:black; stroke-width:1; fill:white; " points="681,90 684,90 689,85 684,80 681,80 681,90 "  />
</g>
<g id="a1_0029"  >
<polygon locus_tag="DEJ50_RS11270" id="dummy-1_h1_3_29" class="clusterblast-orf" description="&lt;b&gt;DEJ50_RS11270&lt;/b&gt;&lt;br&gt;alpha/beta fold hydrolase&lt;br&gt;Location: 2615371 - 2616186" style="stroke:black; stroke-width:1; fill:white; " points="692,85 697,80 703,80 703,90 697,90 692,85 "  />
</g>
<g id="a1_0030"  >
<polygon locus_tag="DEJ50_RS11275" id="dummy-1_h1_3_30" class="clusterblast-orf" description="&lt;b&gt;DEJ50_RS11275&lt;/b&gt;&lt;br&gt;sulfotransferase family protein&lt;br&gt;Location: 2616284 - 2616982" style="stroke:black; stroke-width:1; fill:white; " points="704,85 709,80 714,80 714,90 709,90 704,85 "  />
</g>
<g id="a1_0031"  >
<polygon locus_tag="DEJ50_RS11280" id="dummy-1_h1_3_31" class="clusterblast-orf" description="&lt;b&gt;DEJ50_RS11280&lt;/b&gt;&lt;br&gt;MbtH family NRPS accessory protein&lt;br&gt;Location: 2617011 - 2617244" style="stroke:black; stroke-width:1; fill:white; " points="714,85 717,80 717,90 714,85 "  />
</g>
<g id="a1_0032"  >
<polygon locus_tag="DEJ50_RS11285" id="dummy-1_h1_3_32" class="clusterblast-orf" description="&lt;b&gt;DEJ50_RS11285&lt;/b&gt;&lt;br&gt;hypothetical protein&lt;br&gt;Location: 2617597 - 2618715" style="stroke:black; stroke-width:1; fill:white; " points="722,90 732,90 737,85 732,80 722,80 722,90 "  />
</g>
<g id="a1_0033"  >
<polygon locus_tag="DEJ50_RS11290" id="dummy-1_h1_3_33" class="clusterblast-orf" description="&lt;b&gt;DEJ50_RS11290&lt;/b&gt;&lt;br&gt;aminodeoxychorismate synthase component I&lt;br&gt;Location: 2618805 - 2620970" style="stroke:black; stroke-width:1; fill:white; " points="739,85 744,80 768,80 768,90 744,90 739,85 "  />
</g>
<g id="a1_0034"  >
<polygon locus_tag="DEJ50_RS11295" id="dummy-1_h1_3_34" class="clusterblast-orf" description="&lt;b&gt;DEJ50_RS11295&lt;/b&gt;&lt;br&gt;methyltransferase domain-containing protein&lt;br&gt;Location: 2621033 - 2621797" style="stroke:black; stroke-width:1; fill:white; " points="769,85 774,80 780,80 780,90 774,90 769,85 "  />
</g>
</svg>
