<svg xmlns="http://www.w3.org/2000/svg" version="1.1" y="0" x="0" preserveAspectRatio="none" xmlns:xlink="http://www.w3.org/1999/xlink" viewBox="0 0 800 230" height="230" width="800"  >
<g label="Query sequence" class="clusterblast-cluster"  >
<text class="clusterblast-acc" y="20" x="5"  >
Query sequence</text>
<line x2="778.0" x1="10" y1="35" y2="35" style="stroke:grey; stroke-width:1; "  />
<polygon locus_tag="cds54108_55341" id="dummy-1_q0_0_all" class="clusterblast-orf" description="&lt;b&gt;cds54108_55341&lt;/b&gt;&lt;br&gt;putative secreted protein&lt;br&gt;Location: 54108 - 55341" style="stroke:black; stroke-width:1; fill:#d81515; " points="2,35 7,30 76,30 76,40 7,40 2,35 "  />
<polygon locus_tag="cds55725_57300" id="dummy-1_q1_0_all" class="clusterblast-orf" description="&lt;b&gt;cds55725_57300&lt;/b&gt;&lt;br&gt;Siderophore biosynthesis diaminobutyrate--2-oxoglutarate aminotransferase (EC 2.6.1.76)&lt;br&gt;Location: 55725 - 57300" style="stroke:black; stroke-width:1; fill:#77d815; " points="99,40 188,40 193,35 188,30 99,30 99,40 "  />
<polygon locus_tag="cds57734_59900" id="dummy-1_q2_0_all" class="clusterblast-orf" description="&lt;b&gt;cds57734_59900&lt;/b&gt;&lt;br&gt;Siderophore synthetase superfamily, group A @ Siderophore synthetase large component, acetyltransferase&lt;br&gt;Location: 57734 - 59900" style="stroke:black; stroke-width:1; fill:#15d8d8; " points="219,40 344,40 349,35 344,30 219,30 219,40 "  />
<polygon locus_tag="cds60028_60889" id="dummy-1_q3_0_all" class="clusterblast-orf" description="&lt;b&gt;cds60028_60889&lt;/b&gt;&lt;br&gt;Siderophore synthetase small component, acetyltransferase&lt;br&gt;Location: 60028 - 60889" style="stroke:black; stroke-width:1; fill:#7715d8; " points="357,40 403,40 408,35 403,30 357,30 357,40 "  />
<polygon locus_tag="cds60950_62819" id="dummy-1_q4_0_all" class="clusterblast-orf" description="&lt;b&gt;cds60950_62819&lt;/b&gt;&lt;br&gt;Siderophore synthetase component, ligase&lt;br&gt;Location: 60950 - 62819" style="stroke:black; stroke-width:1; fill:#d8a715; " points="412,40 519,40 524,35 519,30 412,30 412,40 "  />
<polygon locus_tag="cds62859_64839" id="dummy-1_q5_0_all" class="clusterblast-orf" description="&lt;b&gt;cds62859_64839&lt;/b&gt;&lt;br&gt;DinG family ATP-dependent helicase YoaA&lt;br&gt;Location: 62859 - 64839" style="stroke:black; stroke-width:1; fill:#15d846; " points="527,40 640,40 645,35 640,30 527,30 527,40 "  />
<polygon locus_tag="cds65102_65888" id="dummy-1_q6_0_all" class="clusterblast-orf" description="&lt;b&gt;cds65102_65888&lt;/b&gt;&lt;br&gt;SOS-response repressor and protease LexA (EC 3.4.21.88)&lt;br&gt;Location: 65102 - 65888" style="stroke:black; stroke-width:1; fill:#1546d8; " points="661,35 666,30 708,30 708,40 666,40 661,35 "  />
<polygon locus_tag="cds66518_67061" id="dummy-1_q7_0_all" class="clusterblast-orf" description="&lt;b&gt;cds66518_67061&lt;/b&gt;&lt;br&gt;Ribonucleotide reductase transcriptional regulator NrdR&lt;br&gt;Location: 66518 - 67061" style="stroke:black; stroke-width:1; fill:#d815a7; " points="746,40 774,40 779,35 774,30 746,30 746,40 "  />
</g>
<g label="NZ_AUBE01000020" class="clusterblast-cluster" description="NZ_AUBE01000020 (78618-93218): Streptomyces flavidovirens DSM 40150 G412DRAFT... (88% of genes show similarity), siderophore"  >
<text class="clusterblast-acc" y="70" x="5"  >
<a xlink:href="https://antismash-db.secondarymetabolites.org/area.html?record=NZ_AUBE01000020&amp;start=78618&amp;end=93218" target="_blank">NZ_AUBE01000020 (78618-93218)</a>: Streptomyces flavidovirens DSM 40150 G412DRAFT... (88% of genes show similarity), siderophore</text>
<line x2="778.0" x1="10" y1="85" y2="85" style="stroke:grey; stroke-width:1; "  />
</g>
<g id="a1_000"  >
<polygon locus_tag="G412_RS0123290" id="dummy-1_h1_4_0" class="clusterblast-orf" description="&lt;b&gt;G412_RS0123290&lt;/b&gt;&lt;br&gt;GTPase HflX&lt;br&gt;Location: 92773 - 91274" style="stroke:black; stroke-width:1; fill:white; " points="0,90 84,90 89,85 84,80 0,80 0,90 "  />
</g>
<g id="a1_001"  >
<polygon locus_tag="G412_RS0123285" id="dummy-1_h1_4_1" class="clusterblast-orf" description="&lt;b&gt;G412_RS0123285&lt;/b&gt;&lt;br&gt;hypothetical protein&lt;br&gt;Location: 91165 - 89942&lt;br&gt;&lt;br&gt;&lt;b&gt;BlastP hit with cds54108_55341&lt;/b&gt;&lt;br&gt;Percentage identity: 71&lt;br&gt;Percentage coverage: 100&lt;br&gt;BLAST bit score: 593&lt;br&gt;E-value: 1.7e-167" style="stroke:black; stroke-width:1; fill:#d81515; " points="96,85 101,80 169,80 169,90 101,90 96,85 "  />
</g>
<g id="a1_002"  >
<polygon locus_tag="G412_RS0123280" id="dummy-1_h1_4_2" class="clusterblast-orf" description="&lt;b&gt;G412_RS0123280&lt;/b&gt;&lt;br&gt;diaminobutyrate--2-oxoglutarate transaminase family protein&lt;br&gt;Location: 89639 - 88248&lt;br&gt;&lt;br&gt;&lt;b&gt;BlastP hit with cds55725_57300&lt;/b&gt;&lt;br&gt;Percentage identity: 72&lt;br&gt;Percentage coverage: 100&lt;br&gt;BLAST bit score: 695&lt;br&gt;E-value: 3.1e-198" style="stroke:black; stroke-width:1; fill:#77d815; " points="188,90 266,90 271,85 266,80 188,80 188,90 "  />
</g>
<g id="a1_003"  >
<polygon locus_tag="G412_RS0123275" id="dummy-1_h1_4_3" class="clusterblast-orf" description="&lt;b&gt;G412_RS0123275&lt;/b&gt;&lt;br&gt;iron transporter&lt;br&gt;Location: 88218 - 86311&lt;br&gt;&lt;br&gt;&lt;b&gt;BlastP hit with cds57734_59900&lt;/b&gt;&lt;br&gt;Percentage identity: 61&lt;br&gt;Percentage coverage: 102&lt;br&gt;BLAST bit score: 832&lt;br&gt;E-value: 2.3e-239" style="stroke:black; stroke-width:1; fill:#15d8d8; " points="273,90 382,90 387,85 382,80 273,80 273,90 "  />
</g>
<g id="a1_004"  >
<polygon locus_tag="G412_RS0123270" id="dummy-1_h1_4_4" class="clusterblast-orf" description="&lt;b&gt;G412_RS0123270&lt;/b&gt;&lt;br&gt;acetyltransferase&lt;br&gt;Location: 86269 - 85544&lt;br&gt;&lt;br&gt;&lt;b&gt;BlastP hit with cds60028_60889&lt;/b&gt;&lt;br&gt;Percentage identity: 66&lt;br&gt;Percentage coverage: 99&lt;br&gt;BLAST bit score: 347&lt;br&gt;E-value: 1.1e-93" style="stroke:black; stroke-width:1; fill:#7715d8; " points="390,90 428,90 433,85 428,80 390,80 390,90 "  />
</g>
<g id="a1_005"  >
<polygon locus_tag="G412_RS0123265" id="dummy-1_h1_4_5" class="clusterblast-orf" description="&lt;b&gt;G412_RS0123265&lt;/b&gt;&lt;br&gt;IucA/IucC family siderophore biosynthesis protein&lt;br&gt;Location: 85508 - 83619&lt;br&gt;&lt;br&gt;&lt;b&gt;BlastP hit with cds60950_62819&lt;/b&gt;&lt;br&gt;Percentage identity: 71&lt;br&gt;Percentage coverage: 102&lt;br&gt;BLAST bit score: 914&lt;br&gt;E-value: 5.1e-264" style="stroke:black; stroke-width:1; fill:#d8a715; " points="435,90 544,90 549,85 544,80 435,80 435,90 "  />
</g>
<g id="a1_006"  >
<polygon locus_tag="G412_RS0123260" id="dummy-1_h1_4_6" class="clusterblast-orf" description="&lt;b&gt;G412_RS0123260&lt;/b&gt;&lt;br&gt;ATP-dependent DNA helicase&lt;br&gt;Location: 83563 - 81593&lt;br&gt;&lt;br&gt;&lt;b&gt;BlastP hit with cds62859_64839&lt;/b&gt;&lt;br&gt;Percentage identity: 90&lt;br&gt;Percentage coverage: 99&lt;br&gt;BLAST bit score: 1153&lt;br&gt;E-value: 0.0" style="stroke:black; stroke-width:1; fill:#15d846; " points="552,90 665,90 670,85 665,80 552,80 552,90 "  />
</g>
<g id="a1_007"  >
<polygon locus_tag="G412_RS0123255" id="dummy-1_h1_4_7" class="clusterblast-orf" description="&lt;b&gt;G412_RS0123255&lt;/b&gt;&lt;br&gt;transcriptional repressor LexA&lt;br&gt;Location: 81499 - 80714&lt;br&gt;&lt;br&gt;&lt;b&gt;BlastP hit with cds65102_65888&lt;/b&gt;&lt;br&gt;Percentage identity: 97&lt;br&gt;Percentage coverage: 100&lt;br&gt;BLAST bit score: 500&lt;br&gt;E-value: 9.6e-140" style="stroke:black; stroke-width:1; fill:#1546d8; " points="676,85 681,80 723,80 723,90 681,90 676,85 "  />
</g>
<g id="a1_008"  >
<polygon locus_tag="G412_RS0123250" id="dummy-1_h1_4_8" class="clusterblast-orf" description="&lt;b&gt;G412_RS0123250&lt;/b&gt;&lt;br&gt;transcriptional repressor NrdR&lt;br&gt;Location: 80289 - 79771&lt;br&gt;&lt;br&gt;&lt;b&gt;BlastP hit with cds66518_67061&lt;/b&gt;&lt;br&gt;Percentage identity: 86&lt;br&gt;Percentage coverage: 100&lt;br&gt;BLAST bit score: 293&lt;br&gt;E-value: 1.2e-77" style="stroke:black; stroke-width:1; fill:#d815a7; " points="748,90 775,90 780,85 775,80 748,80 748,90 "  />
</g>
</svg>
