<svg xmlns="http://www.w3.org/2000/svg" version="1.1" y="0" x="0" preserveAspectRatio="none" xmlns:xlink="http://www.w3.org/1999/xlink" viewBox="0 0 800 230" height="230" width="800"  >
<g label="Query sequence" class="clusterblast-cluster"  >
<text class="clusterblast-acc" y="20" x="5"  >
Query sequence</text>
<line x2="778.0" x1="10" y1="35" y2="35" style="stroke:grey; stroke-width:1; "  />
<polygon locus_tag="cds158_842" id="dummy-1_q0_0_all" class="clusterblast-orf" description="&lt;b&gt;cds158_842&lt;/b&gt;&lt;br&gt;Putative phosphatase YieH&lt;br&gt;Location: 158 - 842" style="stroke:black; stroke-width:1; fill:white; " points="0,40 8,40 13,35 8,30 0,30 0,40 "  />
<polygon locus_tag="cds889_2125" id="dummy-1_q1_0_all" class="clusterblast-orf" description="&lt;b&gt;cds889_2125&lt;/b&gt;&lt;br&gt;Putative transmembrane transport protein&lt;br&gt;Location: 889 - 2125" style="stroke:black; stroke-width:1; fill:white; " points="14,40 33,40 38,35 33,30 14,30 14,40 "  />
<polygon locus_tag="cds2096_3248" id="dummy-1_q2_0_all" class="clusterblast-orf" description="&lt;b&gt;cds2096_3248&lt;/b&gt;&lt;br&gt;Deacetylases, including yeast histone deacetylase and acetoin utilization protein&lt;br&gt;Location: 2096 - 3248" style="stroke:black; stroke-width:1; fill:white; " points="38,40 55,40 60,35 55,30 38,30 38,40 "  />
<polygon locus_tag="cds3339_4173" id="dummy-1_q3_0_all" class="clusterblast-orf" description="&lt;b&gt;cds3339_4173&lt;/b&gt;&lt;br&gt;FIG01028991: phosphatase&lt;br&gt;Location: 3339 - 4173" style="stroke:black; stroke-width:1; fill:white; " points="62,40 73,40 78,35 73,30 62,30 62,40 "  />
<polygon locus_tag="cds4302_4512" id="dummy-1_q4_0_all" class="clusterblast-orf" description="&lt;b&gt;cds4302_4512&lt;/b&gt;&lt;br&gt;Excisionase-like protein SCO3328&lt;br&gt;Location: 4302 - 4512" style="stroke:black; stroke-width:1; fill:white; " points="81,40 85,35 81,30 81,40 "  />
<polygon locus_tag="cds5076_6180" id="dummy-1_q5_0_all" class="clusterblast-orf" description="&lt;b&gt;cds5076_6180&lt;/b&gt;&lt;br&gt;UDP-glucose 4-epimerase (EC 5.1.3.2)&lt;br&gt;Location: 5076 - 6180" style="stroke:black; stroke-width:1; fill:white; " points="96,40 113,40 118,35 113,30 96,30 96,40 "  />
<polygon locus_tag="cds6194_7367" id="dummy-1_q6_0_all" class="clusterblast-orf" description="&lt;b&gt;cds6194_7367&lt;/b&gt;&lt;br&gt;Acyltransferase family protein&lt;br&gt;Location: 6194 - 7367" style="stroke:black; stroke-width:1; fill:white; " points="118,40 136,40 141,35 136,30 118,30 118,40 "  />
<polygon locus_tag="cds7510_8755" id="dummy-1_q7_0_all" class="clusterblast-orf" description="&lt;b&gt;cds7510_8755&lt;/b&gt;&lt;br&gt;hypothetical protein&lt;br&gt;Location: 7510 - 8755" style="stroke:black; stroke-width:1; fill:white; " points="144,35 149,30 168,30 168,40 149,40 144,35 "  />
<polygon locus_tag="cds9128_9902" id="dummy-1_q8_0_all" class="clusterblast-orf" description="&lt;b&gt;cds9128_9902&lt;/b&gt;&lt;br&gt;RNA polymerase ECF-type sigma factor&lt;br&gt;Location: 9128 - 9902" style="stroke:black; stroke-width:1; fill:white; " points="176,35 181,30 191,30 191,40 181,40 176,35 "  />
<polygon locus_tag="cds10354_11314" id="dummy-1_q9_0_all" class="clusterblast-orf" description="&lt;b&gt;cds10354_11314&lt;/b&gt;&lt;br&gt;Phosphoserine phosphatase (EC 3.1.3.3)&lt;br&gt;Location: 10354 - 11314" style="stroke:black; stroke-width:1; fill:white; " points="200,35 205,30 218,30 218,40 205,40 200,35 "  />
<polygon locus_tag="cds11445_11721" id="dummy-1_q10_0_all" class="clusterblast-orf" description="&lt;b&gt;cds11445_11721&lt;/b&gt;&lt;br&gt;Glutaredoxin-like domain-containing protein PA3033&lt;br&gt;Location: 11445 - 11721" style="stroke:black; stroke-width:1; fill:white; " points="221,40 221,40 226,35 221,30 221,30 221,40 "  />
<polygon locus_tag="cds12263_13019" id="dummy-1_q11_0_all" class="clusterblast-orf" description="&lt;b&gt;cds12263_13019&lt;/b&gt;&lt;br&gt;Redox-sensing transcriptional repressor Rex&lt;br&gt;Location: 12263 - 13019" style="stroke:black; stroke-width:1; fill:white; " points="237,40 247,40 252,35 247,30 237,30 237,40 "  />
<polygon locus_tag="cds13015_14671" id="dummy-1_q12_0_all" class="clusterblast-orf" description="&lt;b&gt;cds13015_14671&lt;/b&gt;&lt;br&gt;Glutamyl-tRNA reductase (EC 1.2.1.70)&lt;br&gt;Location: 13015 - 14671" style="stroke:black; stroke-width:1; fill:white; " points="252,40 279,40 284,35 279,30 252,30 252,40 "  />
<polygon locus_tag="cds14667_15627" id="dummy-1_q13_0_all" class="clusterblast-orf" description="&lt;b&gt;cds14667_15627&lt;/b&gt;&lt;br&gt;Porphobilinogen deaminase (EC 2.5.1.61)&lt;br&gt;Location: 14667 - 15627" style="stroke:black; stroke-width:1; fill:white; " points="284,40 298,40 303,35 298,30 284,30 284,40 "  />
<polygon locus_tag="cds15854_17294" id="dummy-1_q14_0_all" class="clusterblast-orf" description="&lt;b&gt;cds15854_17294&lt;/b&gt;&lt;br&gt;Uroporphyrinogen-III methyltransferase (EC 2.1.1.107) / Uroporphyrinogen-III synthase (EC 4.2.1.75)&lt;br&gt;Location: 15854 - 17294" style="stroke:black; stroke-width:1; fill:white; " points="307,40 331,40 336,35 331,30 307,30 307,40 "  />
<polygon locus_tag="cds17435_18425" id="dummy-1_q15_0_all" class="clusterblast-orf" description="&lt;b&gt;cds17435_18425&lt;/b&gt;&lt;br&gt;Porphobilinogen synthase (EC 4.2.1.24)&lt;br&gt;Location: 17435 - 18425" style="stroke:black; stroke-width:1; fill:white; " points="338,40 353,40 358,35 353,30 338,30 338,40 "  />
<polygon locus_tag="cds18565_19528" id="dummy-1_q16_0_all" class="clusterblast-orf" description="&lt;b&gt;cds18565_19528&lt;/b&gt;&lt;br&gt;Alcohol dehydrogenase (EC 1.1.1.1)&lt;br&gt;Location: 18565 - 19528" style="stroke:black; stroke-width:1; fill:#d81515; " points="361,40 374,40 379,35 374,30 361,30 361,40 "  />
<polygon locus_tag="cds19564_20455" id="dummy-1_q17_0_all" class="clusterblast-orf" description="&lt;b&gt;cds19564_20455&lt;/b&gt;&lt;br&gt;3-hydroxyisobutyrate dehydrogenase family protein&lt;br&gt;Location: 19564 - 20455" style="stroke:black; stroke-width:1; fill:white; " points="380,35 385,30 398,30 398,40 385,40 380,35 "  />
<polygon locus_tag="cds20630_21161" id="dummy-1_q18_0_all" class="clusterblast-orf" description="&lt;b&gt;cds20630_21161&lt;/b&gt;&lt;br&gt;hypothetical protein&lt;br&gt;Location: 20630 - 21161" style="stroke:black; stroke-width:1; fill:white; " points="401,35 406,30 411,30 411,40 406,40 401,35 "  />
<polygon locus_tag="cds21280_22075" id="dummy-1_q19_0_all" class="clusterblast-orf" description="&lt;b&gt;cds21280_22075&lt;/b&gt;&lt;br&gt;hypothetical protein&lt;br&gt;Location: 21280 - 22075" style="stroke:black; stroke-width:1; fill:white; " points="414,35 419,30 429,30 429,40 419,40 414,35 "  />
<polygon locus_tag="cds22281_23943" id="dummy-1_q20_0_all" class="clusterblast-orf" description="&lt;b&gt;cds22281_23943&lt;/b&gt;&lt;br&gt;hypothetical protein&lt;br&gt;Location: 22281 - 23943" style="stroke:black; stroke-width:1; fill:white; " points="433,40 461,40 466,35 461,30 433,30 433,40 "  />
<polygon locus_tag="cds24242_25463" id="dummy-1_q21_0_all" class="clusterblast-orf" description="&lt;b&gt;cds24242_25463&lt;/b&gt;&lt;br&gt;Aspartate aminotransferase (AspB-44) (EC 2.6.1.1)&lt;br&gt;Location: 24242 - 25463" style="stroke:black; stroke-width:1; fill:white; " points="472,40 491,40 496,35 491,30 472,30 472,40 "  />
<polygon locus_tag="cds25523_27320" id="dummy-1_q22_0_all" class="clusterblast-orf" description="&lt;b&gt;cds25523_27320&lt;/b&gt;&lt;br&gt;Arginyl-tRNA synthetase (EC 6.1.1.19)&lt;br&gt;Location: 25523 - 27320" style="stroke:black; stroke-width:1; fill:white; " points="497,35 502,30 532,30 532,40 502,40 497,35 "  />
<polygon locus_tag="cds27435_27594" id="dummy-1_q23_0_all" class="clusterblast-orf" description="&lt;b&gt;cds27435_27594&lt;/b&gt;&lt;br&gt;hypothetical protein&lt;br&gt;Location: 27435 - 27594" style="stroke:black; stroke-width:1; fill:white; " points="534,35 538,30 538,40 534,35 "  />
<polygon locus_tag="cds27621_29361" id="dummy-1_q24_0_all" class="clusterblast-orf" description="&lt;b&gt;cds27621_29361&lt;/b&gt;&lt;br&gt;Lysyl-tRNA synthetase (class I) (EC 6.1.1.6)&lt;br&gt;Location: 27621 - 29361" style="stroke:black; stroke-width:1; fill:white; " points="538,40 567,40 572,35 567,30 538,30 538,40 "  />
<polygon locus_tag="cds29460_29622" id="dummy-1_q25_0_all" class="clusterblast-orf" description="&lt;b&gt;cds29460_29622&lt;/b&gt;&lt;br&gt;hypothetical protein&lt;br&gt;Location: 29460 - 29622" style="stroke:black; stroke-width:1; fill:white; " points="574,35 577,30 577,40 574,35 "  />
<polygon locus_tag="cds29629_29851" id="dummy-1_q26_0_all" class="clusterblast-orf" description="&lt;b&gt;cds29629_29851&lt;/b&gt;&lt;br&gt;hypothetical protein&lt;br&gt;Location: 29629 - 29851" style="stroke:black; stroke-width:1; fill:white; " points="577,35 582,30 582,30 582,40 582,40 577,35 "  />
<polygon locus_tag="cds29847_30744" id="dummy-1_q27_0_all" class="clusterblast-orf" description="&lt;b&gt;cds29847_30744&lt;/b&gt;&lt;br&gt;hypothetical protein&lt;br&gt;Location: 29847 - 30744" style="stroke:black; stroke-width:1; fill:#33d815; " points="582,35 587,30 599,30 599,40 587,40 582,35 "  />
<polygon locus_tag="cds30740_31697" id="dummy-1_q28_0_all" class="clusterblast-orf" description="&lt;b&gt;cds30740_31697&lt;/b&gt;&lt;br&gt;hypothetical protein&lt;br&gt;Location: 30740 - 31697" style="stroke:black; stroke-width:1; fill:#15abd8; " points="599,35 604,30 618,30 618,40 604,40 599,35 "  />
<polygon locus_tag="cds31750_32548" id="dummy-1_q29_0_all" class="clusterblast-orf" description="&lt;b&gt;cds31750_32548&lt;/b&gt;&lt;br&gt;Acetoacetyl-CoA reductase (EC 1.1.1.36)&lt;br&gt;Location: 31750 - 32548" style="stroke:black; stroke-width:1; fill:#8d15d8; " points="619,35 624,30 635,30 635,40 624,40 619,35 "  />
<polygon locus_tag="cds32750_33017" id="dummy-1_q30_0_all" class="clusterblast-orf" description="&lt;b&gt;cds32750_33017&lt;/b&gt;&lt;br&gt;Acyl carrier protein&lt;br&gt;Location: 32750 - 33017" style="stroke:black; stroke-width:1; fill:#d86f15; " points="639,35 644,30 644,30 644,40 644,40 639,35 "  />
<polygon locus_tag="cds33130_34324" id="dummy-1_q31_0_all" class="clusterblast-orf" description="&lt;b&gt;cds33130_34324&lt;/b&gt;&lt;br&gt;Polyketide chain length factor WhiE-CLF paralog&lt;br&gt;Location: 33130 - 34324" style="stroke:black; stroke-width:1; fill:#15d851; " points="646,35 651,30 669,30 669,40 651,40 646,35 "  />
<polygon locus_tag="cds34320_35592" id="dummy-1_q32_0_all" class="clusterblast-orf" description="&lt;b&gt;cds34320_35592&lt;/b&gt;&lt;br&gt;Polyketide beta-ketoacyl synthase WhiE-KS paralog&lt;br&gt;Location: 34320 - 35592" style="stroke:black; stroke-width:1; fill:#1551d8; " points="669,35 674,30 694,30 694,40 674,40 669,35 "  />
<polygon locus_tag="cds35588_36236" id="dummy-1_q33_0_all" class="clusterblast-orf" description="&lt;b&gt;cds35588_36236&lt;/b&gt;&lt;br&gt;Polyketide cyclase WhiE VII&lt;br&gt;Location: 35588 - 36236" style="stroke:black; stroke-width:1; fill:#d815c9; " points="694,35 699,30 707,30 707,40 699,40 694,35 "  />
<polygon locus_tag="cds36489_36945" id="dummy-1_q34_0_all" class="clusterblast-orf" description="&lt;b&gt;cds36489_36945&lt;/b&gt;&lt;br&gt;hypothetical protein&lt;br&gt;Location: 36489 - 36945" style="stroke:black; stroke-width:1; fill:#d8c915; " points="712,40 716,40 721,35 716,30 712,30 712,40 "  />
<polygon locus_tag="cds37054_37249" id="dummy-1_q35_0_all" class="clusterblast-orf" description="&lt;b&gt;cds37054_37249&lt;/b&gt;&lt;br&gt;Ferredoxin-like protein SCO7676&lt;br&gt;Location: 37054 - 37249" style="stroke:black; stroke-width:1; fill:#15d8ab; " points="723,35 727,30 727,40 723,35 "  />
<polygon locus_tag="cds37251_38487" id="dummy-1_q36_0_all" class="clusterblast-orf" description="&lt;b&gt;cds37251_38487&lt;/b&gt;&lt;br&gt;Putative cytochrome P450 hydroxylase&lt;br&gt;Location: 37251 - 38487" style="stroke:black; stroke-width:1; fill:#3315d8; " points="727,35 732,30 751,30 751,40 732,40 727,35 "  />
<polygon locus_tag="cds38622_39444" id="dummy-1_q37_0_all" class="clusterblast-orf" description="&lt;b&gt;cds38622_39444&lt;/b&gt;&lt;br&gt;Phosphate regulon transcriptional regulatory protein PhoB (SphR)&lt;br&gt;Location: 38622 - 39444" style="stroke:black; stroke-width:1; fill:#d8156f; " points="754,35 759,30 770,30 770,40 759,40 754,35 "  />
<polygon locus_tag="cds39501_39948" id="dummy-1_q38_0_all" class="clusterblast-orf" description="&lt;b&gt;cds39501_39948&lt;/b&gt;&lt;br&gt;hypothetical protein&lt;br&gt;Location: 39501 - 39948" style="stroke:black; stroke-width:1; fill:#8dd815; " points="771,35 776,30 780,30 780,40 776,40 771,35 "  />
</g>
<g label="BGC0000201" class="clusterblast-cluster" description="BGC0000201_c1: auricin (27% of genes show similarity), Polyketide:Type II + Saccharide:Hybrid/tailoring"  >
<text class="clusterblast-acc" y="70" x="5"  >
<a xlink:href="https://mibig.secondarymetabolites.org/go/BGC0000201/1" target="_blank">BGC0000201</a>:                                                                          auricin (27% of genes show similarity), Polyketide:Type II + Saccharide:Hybrid/tailoring</text>
<line x2="778.0" x1="10" y1="85" y2="85" style="stroke:grey; stroke-width:1; "  />
</g>
<g id="a1_000"  >
<polygon locus_tag="AIE41917.1" id="dummy-1_h1_6_0" class="clusterblast-orf" description="&lt;b&gt;AIE41917.1&lt;/b&gt;&lt;br&gt;NDP-D-glucose 3-ketoreductase&lt;br&gt;Location: 26823 - 25858" style="stroke:black; stroke-width:1; fill:white; " points="127,85 132,80 146,80 146,90 132,90 127,85 "  />
</g>
<g id="a1_001"  >
<polygon locus_tag="ACK77745.2" id="dummy-1_h1_6_1" class="clusterblast-orf" description="&lt;b&gt;ACK77745.2&lt;/b&gt;&lt;br&gt;NDP-D-glucose 2,3-dehydratase&lt;br&gt;Location: 25858 - 24461" style="stroke:black; stroke-width:1; fill:white; " points="146,85 151,80 173,80 173,90 151,90 146,85 "  />
</g>
<g id="a1_002"  >
<polygon locus_tag="AAX57201.2" id="dummy-1_h1_6_2" class="clusterblast-orf" description="&lt;b&gt;AAX57201.2&lt;/b&gt;&lt;br&gt;methylmalonyl-CoA carboxyltransferase&lt;br&gt;Location: 21790 - 20228" style="stroke:black; stroke-width:1; fill:white; " points="225,85 230,80 256,80 256,90 230,90 225,85 "  />
</g>
<g id="a1_003"  >
<polygon locus_tag="AAX57200.2" id="dummy-1_h1_6_3" class="clusterblast-orf" description="&lt;b&gt;AAX57200.2&lt;/b&gt;&lt;br&gt;malonyl CoA-acyl carrier protein transacylase&lt;br&gt;Location: 20197 - 19247" style="stroke:black; stroke-width:1; fill:white; " points="256,85 261,80 275,80 275,90 261,90 256,85 "  />
</g>
<g id="a1_004"  >
<polygon locus_tag="AAX57199.2" id="dummy-1_h1_6_4" class="clusterblast-orf" description="&lt;b&gt;AAX57199.2&lt;/b&gt;&lt;br&gt;4'-phosphopantetheinyl transferase&lt;br&gt;Location: 19216 - 18389" style="stroke:black; stroke-width:1; fill:white; " points="276,85 281,80 292,80 292,90 281,90 276,85 "  />
</g>
<g id="a1_005"  >
<polygon locus_tag="AAX57198.1" id="dummy-1_h1_6_5" class="clusterblast-orf" description="&lt;b&gt;AAX57198.1&lt;/b&gt;&lt;br&gt;hypothetical protein&lt;br&gt;Location: 18392 - 18015" style="stroke:black; stroke-width:1; fill:white; " points="292,85 297,80 299,80 299,90 297,90 292,85 "  />
</g>
<g id="a1_006"  >
<polygon locus_tag="AAX57197.2" id="dummy-1_h1_6_6" class="clusterblast-orf" description="&lt;b&gt;AAX57197.2&lt;/b&gt;&lt;br&gt;major facilitator superfamily transporter&lt;br&gt;Location: 17949 - 16474" style="stroke:black; stroke-width:1; fill:white; " points="301,85 306,80 329,80 329,90 306,90 301,85 "  />
</g>
<g id="a1_007"  >
<polygon locus_tag="AAX57196.2" id="dummy-1_h1_6_7" class="clusterblast-orf" description="&lt;b&gt;AAX57196.2&lt;/b&gt;&lt;br&gt;auricin polyketide oxygenase-reductase&lt;br&gt;Location: 16326 - 14002" style="stroke:black; stroke-width:1; fill:white; " points="332,85 337,80 378,80 378,90 337,90 332,85 "  />
</g>
<g id="a1_008"  >
<polygon locus_tag="AAX57195.1" id="dummy-1_h1_6_8" class="clusterblast-orf" description="&lt;b&gt;AAX57195.1&lt;/b&gt;&lt;br&gt;auricin polyketide cyclase/dehydratase&lt;br&gt;Location: 13999 - 13037&lt;br&gt;&lt;br&gt;&lt;b&gt;BlastP hit with cds30740_31697&lt;/b&gt;&lt;br&gt;Percentage identity: 65&lt;br&gt;Percentage coverage: 99&lt;br&gt;BLAST bit score: 403&lt;br&gt;E-value: 3.3e-112" style="stroke:black; stroke-width:1; fill:#15abd8; " points="378,85 383,80 397,80 397,90 383,90 378,85 "  />
</g>
<g id="a1_009"  >
<polygon locus_tag="AAX57194.1" id="dummy-1_h1_6_9" class="clusterblast-orf" description="&lt;b&gt;AAX57194.1&lt;/b&gt;&lt;br&gt;auricin polyketide ketoreductase&lt;br&gt;Location: 13002 - 12217&lt;br&gt;&lt;br&gt;&lt;b&gt;BlastP hit with cds31750_32548&lt;/b&gt;&lt;br&gt;Percentage identity: 79&lt;br&gt;Percentage coverage: 98&lt;br&gt;BLAST bit score: 412&lt;br&gt;E-value: 5.9e-115" style="stroke:black; stroke-width:1; fill:#8d15d8; " points="398,85 403,80 413,80 413,90 403,90 398,85 "  />
</g>
<g id="a1_0010"  >
<polygon locus_tag="AAX57193.2" id="dummy-1_h1_6_10" class="clusterblast-orf" description="&lt;b&gt;AAX57193.2&lt;/b&gt;&lt;br&gt;auricin polyketide acyl carrier protein&lt;br&gt;Location: 12124 - 11840&lt;br&gt;&lt;br&gt;&lt;b&gt;BlastP hit with cds32750_33017&lt;/b&gt;&lt;br&gt;Percentage identity: 58&lt;br&gt;Percentage coverage: 95&lt;br&gt;BLAST bit score: 100&lt;br&gt;E-value: 1.3e-21" style="stroke:black; stroke-width:1; fill:#d86f15; " points="415,85 420,80 420,80 420,90 420,90 415,85 "  />
</g>
<g id="a1_0011"  >
<polygon locus_tag="AAX57192.2" id="dummy-1_h1_6_11" class="clusterblast-orf" description="&lt;b&gt;AAX57192.2&lt;/b&gt;&lt;br&gt;auricin polyketide beta-ketoacyl synthase beta subunit&lt;br&gt;Location: 11742 - 10525&lt;br&gt;&lt;br&gt;&lt;b&gt;BlastP hit with cds33130_34324&lt;/b&gt;&lt;br&gt;Percentage identity: 65&lt;br&gt;Percentage coverage: 102&lt;br&gt;BLAST bit score: 524&lt;br&gt;E-value: 2.1e-148" style="stroke:black; stroke-width:1; fill:#15d851; " points="422,85 427,80 446,80 446,90 427,90 422,85 "  />
</g>
<g id="a1_0012"  >
<polygon locus_tag="AAX57191.1" id="dummy-1_h1_6_12" class="clusterblast-orf" description="&lt;b&gt;AAX57191.1&lt;/b&gt;&lt;br&gt;auricin polyketide beta-ketoacyl synthase alpha subunit&lt;br&gt;Location: 10528 - 9260&lt;br&gt;&lt;br&gt;&lt;b&gt;BlastP hit with cds34320_35592&lt;/b&gt;&lt;br&gt;Percentage identity: 72&lt;br&gt;Percentage coverage: 99&lt;br&gt;BLAST bit score: 609&lt;br&gt;E-value: 5.3e-174" style="stroke:black; stroke-width:1; fill:#1551d8; " points="446,85 451,80 471,80 471,90 451,90 446,85 "  />
</g>
<g id="a1_0013"  >
<polygon locus_tag="AAX57190.1" id="dummy-1_h1_6_13" class="clusterblast-orf" description="&lt;b&gt;AAX57190.1&lt;/b&gt;&lt;br&gt;auricin polyketide cyclase&lt;br&gt;Location: 9222 - 8890&lt;br&gt;&lt;br&gt;&lt;b&gt;BlastP hit with cds35588_36236&lt;/b&gt;&lt;br&gt;Percentage identity: 61&lt;br&gt;Percentage coverage: 49&lt;br&gt;BLAST bit score: 145&lt;br&gt;E-value: 8.4e-35" style="stroke:black; stroke-width:1; fill:#d815c9; " points="472,85 477,80 478,80 478,90 477,90 472,85 "  />
</g>
<g id="a1_0014"  >
<polygon locus_tag="AAX57189.1" id="dummy-1_h1_6_14" class="clusterblast-orf" description="&lt;b&gt;AAX57189.1&lt;/b&gt;&lt;br&gt;TetR family transcriptional regulator&lt;br&gt;Location: 8807 - 8160" style="stroke:black; stroke-width:1; fill:white; " points="480,85 485,80 492,80 492,90 485,90 480,85 "  />
</g>
<g id="a1_0015"  >
<polygon locus_tag="ACK77749.1" id="dummy-1_h1_6_15" class="clusterblast-orf" description="&lt;b&gt;ACK77749.1&lt;/b&gt;&lt;br&gt;putative acetyltransferase&lt;br&gt;Location: 8325 - 7420&lt;br&gt;&lt;br&gt;&lt;b&gt;BlastP hit with cds29847_30744&lt;/b&gt;&lt;br&gt;Percentage identity: 49&lt;br&gt;Percentage coverage: 97&lt;br&gt;BLAST bit score: 257&lt;br&gt;E-value: 2.1e-68" style="stroke:black; stroke-width:1; fill:#33d815; " points="489,85 494,80 507,80 507,90 494,90 489,85 "  />
</g>
<g id="a1_0016"  >
<polygon locus_tag="ACK77748.1" id="dummy-1_h1_6_16" class="clusterblast-orf" description="&lt;b&gt;ACK77748.1&lt;/b&gt;&lt;br&gt;hypothetical protein&lt;br&gt;Location: 7392 - 7198" style="stroke:black; stroke-width:1; fill:white; " points="508,85 511,80 511,90 508,85 "  />
</g>
<g id="a1_0017"  >
<polygon locus_tag="ACK77747.1" id="dummy-1_h1_6_17" class="clusterblast-orf" description="&lt;b&gt;ACK77747.1&lt;/b&gt;&lt;br&gt;hypothetical protein&lt;br&gt;Location: 7190 - 6693" style="stroke:black; stroke-width:1; fill:white; " points="511,85 516,80 521,80 521,90 516,90 511,85 "  />
</g>
<g id="a1_0018"  >
<polygon locus_tag="AAX57188.2" id="dummy-1_h1_6_18" class="clusterblast-orf" description="&lt;b&gt;AAX57188.2&lt;/b&gt;&lt;br&gt;auricin polyketide oxiygenase&lt;br&gt;Location: 7985 - 6519" style="stroke:black; stroke-width:1; fill:white; " points="496,85 501,80 525,80 525,90 501,90 496,85 "  />
</g>
<g id="a1_0019"  >
<polygon locus_tag="AAK59995.3" id="dummy-1_h1_6_19" class="clusterblast-orf" description="&lt;b&gt;AAK59995.3&lt;/b&gt;&lt;br&gt;putative regulatory protein&lt;br&gt;Location: 6248 - 5367" style="stroke:black; stroke-width:1; fill:white; " points="530,85 535,80 547,80 547,90 535,90 530,85 "  />
</g>
<g id="a1_0020"  >
<polygon locus_tag="AAX57187.2" id="dummy-1_h1_6_20" class="clusterblast-orf" description="&lt;b&gt;AAX57187.2&lt;/b&gt;&lt;br&gt;auricin-specific activator&lt;br&gt;Location: 5294 - 4524&lt;br&gt;&lt;br&gt;&lt;b&gt;BlastP hit with cds38622_39444&lt;/b&gt;&lt;br&gt;Percentage identity: 56&lt;br&gt;Percentage coverage: 95&lt;br&gt;BLAST bit score: 271&lt;br&gt;E-value: 1.3e-72" style="stroke:black; stroke-width:1; fill:#d8156f; " points="549,85 554,80 564,80 564,90 554,90 549,85 "  />
</g>
<g id="a1_0021"  >
<polygon locus_tag="ADM72853.2" id="dummy-1_h1_6_21" class="clusterblast-orf" description="&lt;b&gt;ADM72853.2&lt;/b&gt;&lt;br&gt;auricin-specific repressor of TetR family&lt;br&gt;Location: 4296 - 3679" style="stroke:black; stroke-width:1; fill:white; " points="568,90 575,90 580,85 575,80 568,80 568,90 "  />
</g>
<g id="a1_0022"  >
<polygon locus_tag="ACK77744.1" id="dummy-1_h1_6_22" class="clusterblast-orf" description="&lt;b&gt;ACK77744.1&lt;/b&gt;&lt;br&gt;putative NDP-hexose 3,4-dehydratase&lt;br&gt;Location: 4258 - 2954" style="stroke:black; stroke-width:1; fill:white; " points="569,85 574,80 595,80 595,90 574,90 569,85 "  />
</g>
<g id="a1_0023"  >
<polygon locus_tag="ADM72852.2" id="dummy-1_h1_6_23" class="clusterblast-orf" description="&lt;b&gt;ADM72852.2&lt;/b&gt;&lt;br&gt;polyketide cyclase/dehydrase&lt;br&gt;Location: 3395 - 2430" style="stroke:black; stroke-width:1; fill:white; " points="586,85 591,80 605,80 605,90 591,90 586,85 "  />
</g>
<g id="a1_0024"  >
<polygon locus_tag="ADM72851.2" id="dummy-1_h1_6_24" class="clusterblast-orf" description="&lt;b&gt;ADM72851.2&lt;/b&gt;&lt;br&gt;putative acyl carrier protein&lt;br&gt;Location: 2332 - 2063" style="stroke:black; stroke-width:1; fill:white; " points="607,85 612,80 612,80 612,90 612,90 607,85 "  />
</g>
<g id="a1_0025"  >
<polygon locus_tag="ACK77743.1" id="dummy-1_h1_6_25" class="clusterblast-orf" description="&lt;b&gt;ACK77743.1&lt;/b&gt;&lt;br&gt;putative dNDP-glucose 4,6-dehydratase&lt;br&gt;Location: 2957 - 1944" style="stroke:black; stroke-width:1; fill:white; " points="594,85 599,80 614,80 614,90 599,90 594,85 "  />
</g>
<g id="a1_0026"  >
<polygon locus_tag="ACK77742.1" id="dummy-1_h1_6_26" class="clusterblast-orf" description="&lt;b&gt;ACK77742.1&lt;/b&gt;&lt;br&gt;hypothetical protein&lt;br&gt;Location: 1856 - 1620" style="stroke:black; stroke-width:1; fill:white; " points="616,85 621,80 621,80 621,90 621,90 616,85 "  />
</g>
<g id="a1_0027"  >
<polygon locus_tag="ADM72850.2" id="dummy-1_h1_6_27" class="clusterblast-orf" description="&lt;b&gt;ADM72850.2&lt;/b&gt;&lt;br&gt;SARP family transcriptional regulator&lt;br&gt;Location: 1946 - 1125" style="stroke:black; stroke-width:1; fill:white; " points="614,85 619,80 630,80 630,90 619,90 614,85 "  />
</g>
<g id="a1_0028"  >
<polygon locus_tag="ADM72849.2" id="dummy-1_h1_6_28" class="clusterblast-orf" description="&lt;b&gt;ADM72849.2&lt;/b&gt;&lt;br&gt;SARP-family auricin specific regulator&lt;br&gt;Location: 822 - 1" style="stroke:black; stroke-width:1; fill:white; " points="636,85 641,80 652,80 652,90 641,90 636,85 "  />
</g>
</svg>
