<svg xmlns="http://www.w3.org/2000/svg" version="1.1" y="0" x="0" preserveAspectRatio="none" xmlns:xlink="http://www.w3.org/1999/xlink" viewBox="0 0 800 230" height="230" width="800"  >
<g label="Query sequence" class="clusterblast-cluster"  >
<text class="clusterblast-acc" y="20" x="5"  >
Query sequence</text>
<line x2="778.0" x1="10" y1="35" y2="35" style="stroke:grey; stroke-width:1; "  />
<polygon locus_tag="cds46448_49109" id="dummy-1_q0_0_all" class="clusterblast-orf" description="&lt;b&gt;cds46448_49109&lt;/b&gt;&lt;br&gt;Alanyl-tRNA synthetase (EC 6.1.1.7)&lt;br&gt;Location: 46448 - 49109" style="stroke:black; stroke-width:1; fill:white; " points="154,35 159,30 182,30 182,40 159,40 154,35 "  />
<polygon locus_tag="cds49132_49702" id="dummy-1_q1_0_all" class="clusterblast-orf" description="&lt;b&gt;cds49132_49702&lt;/b&gt;&lt;br&gt;acetyltransferase&lt;br&gt;Location: 49132 - 49702" style="stroke:black; stroke-width:1; fill:white; " points="182,35 187,30 188,30 188,40 187,40 182,35 "  />
<polygon locus_tag="cds49701_50778" id="dummy-1_q2_0_all" class="clusterblast-orf" description="&lt;b&gt;cds49701_50778&lt;/b&gt;&lt;br&gt;N(6)-L-threonylcarbamoyladenine synthase (EC 2.3.1.234)&lt;br&gt;Location: 49701 - 50778" style="stroke:black; stroke-width:1; fill:white; " points="188,35 193,30 200,30 200,40 193,40 188,35 "  />
<polygon locus_tag="cds50970_51540" id="dummy-1_q3_0_all" class="clusterblast-orf" description="&lt;b&gt;cds50970_51540&lt;/b&gt;&lt;br&gt;Transcriptional regulator, AcrR family&lt;br&gt;Location: 50970 - 51540" style="stroke:black; stroke-width:1; fill:white; " points="202,35 207,30 208,30 208,40 207,40 202,35 "  />
<polygon locus_tag="cds51641_53024" id="dummy-1_q4_0_all" class="clusterblast-orf" description="&lt;b&gt;cds51641_53024&lt;/b&gt;&lt;br&gt;Glutamyl-tRNA(Gln) amidotransferase subunit A-like protein&lt;br&gt;Location: 51641 - 53024" style="stroke:black; stroke-width:1; fill:white; " points="209,35 214,30 224,30 224,40 214,40 209,35 "  />
<polygon locus_tag="cds53010_53211" id="dummy-1_q5_0_all" class="clusterblast-orf" description="&lt;b&gt;cds53010_53211&lt;/b&gt;&lt;br&gt;hypothetical protein&lt;br&gt;Location: 53010 - 53211" style="stroke:black; stroke-width:1; fill:white; " points="224,35 226,30 226,40 224,35 "  />
<polygon locus_tag="cds53476_54448" id="dummy-1_q6_0_all" class="clusterblast-orf" description="&lt;b&gt;cds53476_54448&lt;/b&gt;&lt;br&gt;MBL-fold metallo-hydrolase superfamily&lt;br&gt;Location: 53476 - 54448" style="stroke:black; stroke-width:1; fill:white; " points="229,40 234,40 239,35 234,30 229,30 229,40 "  />
<polygon locus_tag="cds54523_55585" id="dummy-1_q7_0_all" class="clusterblast-orf" description="&lt;b&gt;cds54523_55585&lt;/b&gt;&lt;br&gt;putative endochitinase&lt;br&gt;Location: 54523 - 55585" style="stroke:black; stroke-width:1; fill:white; " points="240,40 246,40 251,35 246,30 240,30 240,40 "  />
<polygon locus_tag="cds55678_55906" id="dummy-1_q8_0_all" class="clusterblast-orf" description="&lt;b&gt;cds55678_55906&lt;/b&gt;&lt;br&gt;hypothetical protein&lt;br&gt;Location: 55678 - 55906" style="stroke:black; stroke-width:1; fill:white; " points="252,35 255,30 255,40 252,35 "  />
<polygon locus_tag="cds55898_56063" id="dummy-1_q9_0_all" class="clusterblast-orf" description="&lt;b&gt;cds55898_56063&lt;/b&gt;&lt;br&gt;hypothetical protein&lt;br&gt;Location: 55898 - 56063" style="stroke:black; stroke-width:1; fill:white; " points="255,35 257,30 257,40 255,35 "  />
<polygon locus_tag="cds56075_58595" id="dummy-1_q10_0_all" class="clusterblast-orf" description="&lt;b&gt;cds56075_58595&lt;/b&gt;&lt;br&gt;hypothetical protein&lt;br&gt;Location: 56075 - 58595" style="stroke:black; stroke-width:1; fill:white; " points="257,40 279,40 284,35 279,30 257,30 257,40 "  />
<polygon locus_tag="cds58686_59493" id="dummy-1_q11_0_all" class="clusterblast-orf" description="&lt;b&gt;cds58686_59493&lt;/b&gt;&lt;br&gt;Hydrolase, alpha/beta fold family&lt;br&gt;Location: 58686 - 59493" style="stroke:black; stroke-width:1; fill:white; " points="285,40 288,40 293,35 288,30 285,30 285,40 "  />
<polygon locus_tag="cds59719_61069" id="dummy-1_q12_0_all" class="clusterblast-orf" description="&lt;b&gt;cds59719_61069&lt;/b&gt;&lt;br&gt;hypothetical protein&lt;br&gt;Location: 59719 - 61069" style="stroke:black; stroke-width:1; fill:white; " points="296,40 305,40 310,35 305,30 296,30 296,40 "  />
<polygon locus_tag="cds61110_61440" id="dummy-1_q13_0_all" class="clusterblast-orf" description="&lt;b&gt;cds61110_61440&lt;/b&gt;&lt;br&gt;putative anti-sigma factor antagonist&lt;br&gt;Location: 61110 - 61440" style="stroke:black; stroke-width:1; fill:white; " points="311,35 314,30 314,40 311,35 "  />
<polygon locus_tag="cds61552_62929" id="dummy-1_q14_0_all" class="clusterblast-orf" description="&lt;b&gt;cds61552_62929&lt;/b&gt;&lt;br&gt;hypothetical protein&lt;br&gt;Location: 61552 - 62929" style="stroke:black; stroke-width:1; fill:white; " points="315,35 320,30 330,30 330,40 320,40 315,35 "  />
<polygon locus_tag="cds62980_64348" id="dummy-1_q15_0_all" class="clusterblast-orf" description="&lt;b&gt;cds62980_64348&lt;/b&gt;&lt;br&gt;hypothetical protein&lt;br&gt;Location: 62980 - 64348" style="stroke:black; stroke-width:1; fill:white; " points="331,35 336,30 345,30 345,40 336,40 331,35 "  />
<polygon locus_tag="cds64413_65511" id="dummy-1_q16_0_all" class="clusterblast-orf" description="&lt;b&gt;cds64413_65511&lt;/b&gt;&lt;br&gt;hypothetical protein&lt;br&gt;Location: 64413 - 65511" style="stroke:black; stroke-width:1; fill:white; " points="346,35 351,30 358,30 358,40 351,40 346,35 "  />
<polygon locus_tag="cds65576_66326" id="dummy-1_q17_0_all" class="clusterblast-orf" description="&lt;b&gt;cds65576_66326&lt;/b&gt;&lt;br&gt;hypothetical protein&lt;br&gt;Location: 65576 - 66326" style="stroke:black; stroke-width:1; fill:white; " points="359,35 364,30 367,30 367,40 364,40 359,35 "  />
<polygon locus_tag="cds66434_70829" id="dummy-1_q18_0_all" class="clusterblast-orf" description="&lt;b&gt;cds66434_70829&lt;/b&gt;&lt;br&gt;hypothetical protein&lt;br&gt;Location: 66434 - 70829" style="stroke:black; stroke-width:1; fill:white; " points="368,35 373,30 415,30 415,40 373,40 368,35 "  />
<polygon locus_tag="cds71307_71856" id="dummy-1_q19_0_all" class="clusterblast-orf" description="&lt;b&gt;cds71307_71856&lt;/b&gt;&lt;br&gt;hypothetical protein&lt;br&gt;Location: 71307 - 71856" style="stroke:black; stroke-width:1; fill:white; " points="420,35 425,30 426,30 426,40 425,40 420,35 "  />
<polygon locus_tag="cds72608_73751" id="dummy-1_q20_0_all" class="clusterblast-orf" description="&lt;b&gt;cds72608_73751&lt;/b&gt;&lt;br&gt;Xanthine and CO dehydrogenases maturation factor, XdhC/CoxF family&lt;br&gt;Location: 72608 - 73751" style="stroke:black; stroke-width:1; fill:#d81515; " points="434,35 439,30 446,30 446,40 439,40 434,35 "  />
<polygon locus_tag="cds73743_75966" id="dummy-1_q21_0_all" class="clusterblast-orf" description="&lt;b&gt;cds73743_75966&lt;/b&gt;&lt;br&gt;Periplasmic aromatic aldehyde oxidoreductase, molybdenum binding subunit YagR&lt;br&gt;Location: 73743 - 75966" style="stroke:black; stroke-width:1; fill:#77d815; " points="446,35 451,30 470,30 470,40 451,40 446,35 "  />
<polygon locus_tag="cds75962_76955" id="dummy-1_q22_0_all" class="clusterblast-orf" description="&lt;b&gt;cds75962_76955&lt;/b&gt;&lt;br&gt;Periplasmic aromatic aldehyde oxidoreductase, FAD binding subunit YagS&lt;br&gt;Location: 75962 - 76955" style="stroke:black; stroke-width:1; fill:#15d8d8; " points="470,35 475,30 480,30 480,40 475,40 470,35 "  />
<polygon locus_tag="cds76951_77566" id="dummy-1_q23_0_all" class="clusterblast-orf" description="&lt;b&gt;cds76951_77566&lt;/b&gt;&lt;br&gt;Periplasmic aromatic aldehyde oxidoreductase, iron-sulfur subunit YagT&lt;br&gt;Location: 76951 - 77566" style="stroke:black; stroke-width:1; fill:#7715d8; " points="480,35 485,30 487,30 487,40 485,40 480,35 "  />
<polygon locus_tag="cds77628_77961" id="dummy-1_q24_0_all" class="clusterblast-orf" description="&lt;b&gt;cds77628_77961&lt;/b&gt;&lt;br&gt;hypothetical protein&lt;br&gt;Location: 77628 - 77961" style="stroke:black; stroke-width:1; fill:white; " points="488,40 491,35 488,30 488,40 "  />
<polygon locus_tag="cds78028_78607" id="dummy-1_q25_0_all" class="clusterblast-orf" description="&lt;b&gt;cds78028_78607&lt;/b&gt;&lt;br&gt;Transcriptional regulator XdhR, TetR family&lt;br&gt;Location: 78028 - 78607" style="stroke:black; stroke-width:1; fill:white; " points="492,40 493,40 498,35 493,30 492,30 492,40 "  />
<polygon locus_tag="cds78664_79087" id="dummy-1_q26_0_all" class="clusterblast-orf" description="&lt;b&gt;cds78664_79087&lt;/b&gt;&lt;br&gt;Uncharacterized protein SCO1141&lt;br&gt;Location: 78664 - 79087" style="stroke:black; stroke-width:1; fill:white; " points="499,35 503,30 503,40 499,35 "  />
<polygon locus_tag="cds79229_79352" id="dummy-1_q27_0_all" class="clusterblast-orf" description="&lt;b&gt;cds79229_79352&lt;/b&gt;&lt;br&gt;hypothetical protein&lt;br&gt;Location: 79229 - 79352" style="stroke:black; stroke-width:1; fill:white; " points="505,35 506,30 506,40 505,35 "  />
<polygon locus_tag="cds79434_79608" id="dummy-1_q28_0_all" class="clusterblast-orf" description="&lt;b&gt;cds79434_79608&lt;/b&gt;&lt;br&gt;hypothetical protein&lt;br&gt;Location: 79434 - 79608" style="stroke:black; stroke-width:1; fill:white; " points="507,35 509,30 509,40 507,35 "  />
<polygon locus_tag="cds79691_80591" id="dummy-1_q29_0_all" class="clusterblast-orf" description="&lt;b&gt;cds79691_80591&lt;/b&gt;&lt;br&gt;Alkanesulfonate ABC transporter permease protein SsuC&lt;br&gt;Location: 79691 - 80591" style="stroke:black; stroke-width:1; fill:white; " points="510,40 514,40 519,35 514,30 510,30 510,40 "  />
<polygon locus_tag="cds80563_81361" id="dummy-1_q30_0_all" class="clusterblast-orf" description="&lt;b&gt;cds80563_81361&lt;/b&gt;&lt;br&gt;Alkanesulfonate ABC transporter ATP-binding protein SsuB&lt;br&gt;Location: 80563 - 81361" style="stroke:black; stroke-width:1; fill:white; " points="519,40 523,40 528,35 523,30 519,30 519,40 "  />
<polygon locus_tag="cds81412_82459" id="dummy-1_q31_0_all" class="clusterblast-orf" description="&lt;b&gt;cds81412_82459&lt;/b&gt;&lt;br&gt;Alkanesulfonate ABC transporter substrate-binding protein SsuA&lt;br&gt;Location: 81412 - 82459" style="stroke:black; stroke-width:1; fill:white; " points="528,40 534,40 539,35 534,30 528,30 528,40 "  />
<polygon locus_tag="cds82461_83670" id="dummy-1_q32_0_all" class="clusterblast-orf" description="&lt;b&gt;cds82461_83670&lt;/b&gt;&lt;br&gt;FMNH2-dependent alkanesulfonate monooxygenase (EC 1.14.14.5)&lt;br&gt;Location: 82461 - 83670" style="stroke:black; stroke-width:1; fill:white; " points="539,40 547,40 552,35 547,30 539,30 539,40 "  />
<polygon locus_tag="cds83716_84892" id="dummy-1_q33_0_all" class="clusterblast-orf" description="&lt;b&gt;cds83716_84892&lt;/b&gt;&lt;br&gt;Putative oxidoreductase&lt;br&gt;Location: 83716 - 84892" style="stroke:black; stroke-width:1; fill:white; " points="553,40 561,40 566,35 561,30 553,30 553,40 "  />
<polygon locus_tag="cds84957_85356" id="dummy-1_q34_0_all" class="clusterblast-orf" description="&lt;b&gt;cds84957_85356&lt;/b&gt;&lt;br&gt;hypothetical protein&lt;br&gt;Location: 84957 - 85356" style="stroke:black; stroke-width:1; fill:white; " points="566,35 570,30 570,40 566,35 "  />
<polygon locus_tag="cds85722_86949" id="dummy-1_q35_0_all" class="clusterblast-orf" description="&lt;b&gt;cds85722_86949&lt;/b&gt;&lt;br&gt;Alkaline serine exoprotease A precursor (EC 3.4.21.-)&lt;br&gt;Location: 85722 - 86949" style="stroke:black; stroke-width:1; fill:white; " points="574,35 579,30 588,30 588,40 579,40 574,35 "  />
<polygon locus_tag="cds87723_88383" id="dummy-1_q36_0_all" class="clusterblast-orf" description="&lt;b&gt;cds87723_88383&lt;/b&gt;&lt;br&gt;DNA-binding response regulator, LuxR family&lt;br&gt;Location: 87723 - 88383" style="stroke:black; stroke-width:1; fill:white; " points="596,35 601,30 603,30 603,40 601,40 596,35 "  />
<polygon locus_tag="cds88382_90503" id="dummy-1_q37_0_all" class="clusterblast-orf" description="&lt;b&gt;cds88382_90503&lt;/b&gt;&lt;br&gt;hypothetical protein&lt;br&gt;Location: 88382 - 90503" style="stroke:black; stroke-width:1; fill:white; " points="603,35 608,30 626,30 626,40 608,40 603,35 "  />
</g>
<g label="BGC0001060" class="clusterblast-cluster" description="BGC0001060_c1: dynemicin A (3% of genes show similarity), Polyketide"  >
<text class="clusterblast-acc" y="70" x="5"  >
<a xlink:href="https://mibig.secondarymetabolites.org/go/BGC0001060/1" target="_blank">BGC0001060</a>:                                                                      dynemicin A (3% of genes show similarity), Polyketide</text>
<line x2="778.0" x1="10" y1="85" y2="85" style="stroke:grey; stroke-width:1; "  />
</g>
<g id="a1_000"  >
<polygon locus_tag="ACB47031.1" id="dummy-1_h1_5_0" class="clusterblast-orf" description="&lt;b&gt;ACB47031.1&lt;/b&gt;&lt;br&gt;hypothetical protein&lt;br&gt;Location: 2116 - 3345" style="stroke:black; stroke-width:1; fill:white; " points="0,90 8,90 13,85 8,80 0,80 0,90 "  />
</g>
<g id="a1_001"  >
<polygon locus_tag="ACB47032.1" id="dummy-1_h1_5_1" class="clusterblast-orf" description="&lt;b&gt;ACB47032.1&lt;/b&gt;&lt;br&gt;NTP pyrophosphohydrolase&lt;br&gt;Location: 3364 - 4284" style="stroke:black; stroke-width:1; fill:white; " points="13,85 18,80 23,80 23,90 18,90 13,85 "  />
</g>
<g id="a1_002"  >
<polygon locus_tag="ACB47033.1" id="dummy-1_h1_5_2" class="clusterblast-orf" description="&lt;b&gt;ACB47033.1&lt;/b&gt;&lt;br&gt;hypothetical protein&lt;br&gt;Location: 4478 - 6295" style="stroke:black; stroke-width:1; fill:white; " points="25,90 39,90 44,85 39,80 25,80 25,90 "  />
</g>
<g id="a1_003"  >
<polygon locus_tag="ACB47034.1" id="dummy-1_h1_5_3" class="clusterblast-orf" description="&lt;b&gt;ACB47034.1&lt;/b&gt;&lt;br&gt;hypothetical protein&lt;br&gt;Location: 6369 - 7016" style="stroke:black; stroke-width:1; fill:white; " points="45,85 50,80 52,80 52,90 50,90 45,85 "  />
</g>
<g id="a1_004"  >
<polygon locus_tag="ACB47035.1" id="dummy-1_h1_5_4" class="clusterblast-orf" description="&lt;b&gt;ACB47035.1&lt;/b&gt;&lt;br&gt;GntT-like protein&lt;br&gt;Location: 13044 - 13523" style="stroke:black; stroke-width:1; fill:white; " points="117,90 117,90 122,85 117,80 117,80 117,90 "  />
</g>
<g id="a1_005"  >
<polygon locus_tag="ACB47036.1" id="dummy-1_h1_5_5" class="clusterblast-orf" description="&lt;b&gt;ACB47036.1&lt;/b&gt;&lt;br&gt;TobX-like protein&lt;br&gt;Location: 13423 - 13773" style="stroke:black; stroke-width:1; fill:white; " points="121,85 124,80 124,90 121,85 "  />
</g>
<g id="a1_006"  >
<polygon locus_tag="ACB47037.1" id="dummy-1_h1_5_6" class="clusterblast-orf" description="&lt;b&gt;ACB47037.1&lt;/b&gt;&lt;br&gt;unkown protein&lt;br&gt;Location: 14054 - 14521" style="stroke:black; stroke-width:1; fill:white; " points="127,85 132,80 132,80 132,90 132,90 127,85 "  />
</g>
<g id="a1_007"  >
<polygon locus_tag="ACB47038.1" id="dummy-1_h1_5_7" class="clusterblast-orf" description="&lt;b&gt;ACB47038.1&lt;/b&gt;&lt;br&gt;hypothetical protein&lt;br&gt;Location: 14799 - 15254" style="stroke:black; stroke-width:1; fill:white; " points="135,90 135,90 140,85 135,80 135,80 135,90 "  />
</g>
<g id="a1_008"  >
<polygon locus_tag="ACB47039.1" id="dummy-1_h1_5_8" class="clusterblast-orf" description="&lt;b&gt;ACB47039.1&lt;/b&gt;&lt;br&gt;putative tryptophanyl-tRNA synthetase&lt;br&gt;Location: 15598 - 16656" style="stroke:black; stroke-width:1; fill:white; " points="144,90 150,90 155,85 150,80 144,80 144,90 "  />
</g>
<g id="a1_009"  >
<polygon locus_tag="ACB47040.1" id="dummy-1_h1_5_9" class="clusterblast-orf" description="&lt;b&gt;ACB47040.1&lt;/b&gt;&lt;br&gt;putative class Ic arginyl-tRNA synthetase&lt;br&gt;Location: 16939 - 18657" style="stroke:black; stroke-width:1; fill:white; " points="158,90 172,90 177,85 172,80 158,80 158,90 "  />
</g>
<g id="a1_0010"  >
<polygon locus_tag="ACB47041.1" id="dummy-1_h1_5_10" class="clusterblast-orf" description="&lt;b&gt;ACB47041.1&lt;/b&gt;&lt;br&gt;hypothetical protein&lt;br&gt;Location: 18716 - 19150" style="stroke:black; stroke-width:1; fill:white; " points="177,85 182,80 182,80 182,90 182,90 177,85 "  />
</g>
<g id="a1_0011"  >
<polygon locus_tag="ACB47042.1" id="dummy-1_h1_5_11" class="clusterblast-orf" description="&lt;b&gt;ACB47042.1&lt;/b&gt;&lt;br&gt;putative xanthine/CO dehydrogenases maturation factor&lt;br&gt;Location: 19092 - 20252&lt;br&gt;&lt;br&gt;&lt;b&gt;BlastP hit with cds72608_73751&lt;/b&gt;&lt;br&gt;Percentage identity: 55&lt;br&gt;Percentage coverage: 98&lt;br&gt;BLAST bit score: 343&lt;br&gt;E-value: 3.7e-94" style="stroke:black; stroke-width:1; fill:#d81515; " points="181,85 186,80 194,80 194,90 186,90 181,85 "  />
</g>
<g id="a1_0012"  >
<polygon locus_tag="ACB47043.1" id="dummy-1_h1_5_12" class="clusterblast-orf" description="&lt;b&gt;ACB47043.1&lt;/b&gt;&lt;br&gt;hypothetical protein&lt;br&gt;Location: 20194 - 20781" style="stroke:black; stroke-width:1; fill:white; " points="193,85 198,80 199,80 199,90 198,90 193,85 "  />
</g>
<g id="a1_0013"  >
<polygon locus_tag="ACB47044.1" id="dummy-1_h1_5_13" class="clusterblast-orf" description="&lt;b&gt;ACB47044.1&lt;/b&gt;&lt;br&gt;CalR2-like protein&lt;br&gt;Location: 20782 - 22653" style="stroke:black; stroke-width:1; fill:white; " points="200,85 205,80 220,80 220,90 205,90 200,85 "  />
</g>
<g id="a1_0014"  >
<polygon locus_tag="ACB47045.1" id="dummy-1_h1_5_14" class="clusterblast-orf" description="&lt;b&gt;ACB47045.1&lt;/b&gt;&lt;br&gt;DynU15&lt;br&gt;Location: 22855 - 23841" style="stroke:black; stroke-width:1; fill:white; " points="222,90 227,90 232,85 227,80 222,80 222,90 "  />
</g>
<g id="a1_0015"  >
<polygon locus_tag="ACB47046.1" id="dummy-1_h1_5_15" class="clusterblast-orf" description="&lt;b&gt;ACB47046.1&lt;/b&gt;&lt;br&gt;DynU14&lt;br&gt;Location: 23898 - 25796" style="stroke:black; stroke-width:1; fill:white; " points="233,90 248,90 253,85 248,80 233,80 233,90 "  />
</g>
<g id="a1_0016"  >
<polygon locus_tag="ACB47047.1" id="dummy-1_h1_5_16" class="clusterblast-orf" description="&lt;b&gt;ACB47047.1&lt;/b&gt;&lt;br&gt;DynT3&lt;br&gt;Location: 25826 - 26815" style="stroke:black; stroke-width:1; fill:white; " points="254,90 259,90 264,85 259,80 254,80 254,90 "  />
</g>
<g id="a1_0017"  >
<polygon locus_tag="ACB47048.1" id="dummy-1_h1_5_17" class="clusterblast-orf" description="&lt;b&gt;ACB47048.1&lt;/b&gt;&lt;br&gt;DynE8&lt;br&gt;Location: 26849 - 32551" style="stroke:black; stroke-width:1; fill:white; " points="265,90 321,90 326,85 321,80 265,80 265,90 "  />
</g>
<g id="a1_0018"  >
<polygon locus_tag="ACB47049.1" id="dummy-1_h1_5_18" class="clusterblast-orf" description="&lt;b&gt;ACB47049.1&lt;/b&gt;&lt;br&gt;DynE7&lt;br&gt;Location: 32556 - 32990" style="stroke:black; stroke-width:1; fill:white; " points="326,90 330,85 326,80 326,90 "  />
</g>
<g id="a1_0019"  >
<polygon locus_tag="ACB47050.1" id="dummy-1_h1_5_19" class="clusterblast-orf" description="&lt;b&gt;ACB47050.1&lt;/b&gt;&lt;br&gt;DynS6&lt;br&gt;Location: 32987 - 33646" style="stroke:black; stroke-width:1; fill:white; " points="330,90 332,90 337,85 332,80 330,80 330,90 "  />
</g>
<g id="a1_0020"  >
<polygon locus_tag="ACB47051.1" id="dummy-1_h1_5_20" class="clusterblast-orf" description="&lt;b&gt;ACB47051.1&lt;/b&gt;&lt;br&gt;DynU8&lt;br&gt;Location: 33652 - 34326" style="stroke:black; stroke-width:1; fill:white; " points="337,85 342,80 345,80 345,90 342,90 337,85 "  />
</g>
<g id="a1_0021"  >
<polygon locus_tag="ACB47052.1" id="dummy-1_h1_5_21" class="clusterblast-orf" description="&lt;b&gt;ACB47052.1&lt;/b&gt;&lt;br&gt;DynU6&lt;br&gt;Location: 34396 - 35319" style="stroke:black; stroke-width:1; fill:white; " points="345,90 350,90 355,85 350,80 345,80 345,90 "  />
</g>
<g id="a1_0022"  >
<polygon locus_tag="ACB47053.1" id="dummy-1_h1_5_22" class="clusterblast-orf" description="&lt;b&gt;ACB47053.1&lt;/b&gt;&lt;br&gt;DynR2&lt;br&gt;Location: 35283 - 37166" style="stroke:black; stroke-width:1; fill:white; " points="355,85 360,80 375,80 375,90 360,90 355,85 "  />
</g>
<g id="a1_0023"  >
<polygon locus_tag="ACB47054.1" id="dummy-1_h1_5_23" class="clusterblast-orf" description="&lt;b&gt;ACB47054.1&lt;/b&gt;&lt;br&gt;DynR3&lt;br&gt;Location: 37274 - 38638" style="stroke:black; stroke-width:1; fill:white; " points="376,90 386,90 391,85 386,80 376,80 376,90 "  />
</g>
<g id="a1_0024"  >
<polygon locus_tag="ACB47055.1" id="dummy-1_h1_5_24" class="clusterblast-orf" description="&lt;b&gt;ACB47055.1&lt;/b&gt;&lt;br&gt;DynU21&lt;br&gt;Location: 38660 - 39226" style="stroke:black; stroke-width:1; fill:white; " points="391,90 392,90 397,85 392,80 391,80 391,90 "  />
</g>
<g id="a1_0025"  >
<polygon locus_tag="ACB47056.1" id="dummy-1_h1_5_25" class="clusterblast-orf" description="&lt;b&gt;ACB47056.1&lt;/b&gt;&lt;br&gt;unkown protein&lt;br&gt;Location: 39223 - 39798" style="stroke:black; stroke-width:1; fill:white; " points="397,90 398,90 403,85 398,80 397,80 397,90 "  />
</g>
<g id="a1_0026"  >
<polygon locus_tag="ACB47057.1" id="dummy-1_h1_5_26" class="clusterblast-orf" description="&lt;b&gt;ACB47057.1&lt;/b&gt;&lt;br&gt;unkown protein&lt;br&gt;Location: 39828 - 41045" style="stroke:black; stroke-width:1; fill:white; " points="404,85 409,80 417,80 417,90 409,90 404,85 "  />
</g>
<g id="a1_0027"  >
<polygon locus_tag="ACB47058.1" id="dummy-1_h1_5_27" class="clusterblast-orf" description="&lt;b&gt;ACB47058.1&lt;/b&gt;&lt;br&gt;unkown protein&lt;br&gt;Location: 41055 - 41687" style="stroke:black; stroke-width:1; fill:white; " points="417,85 422,80 424,80 424,90 422,90 417,85 "  />
</g>
<g id="a1_0028"  >
<polygon locus_tag="ACB47059.1" id="dummy-1_h1_5_28" class="clusterblast-orf" description="&lt;b&gt;ACB47059.1&lt;/b&gt;&lt;br&gt;PBS lyase HEAT-like repeat protein&lt;br&gt;Location: 41709 - 43034" style="stroke:black; stroke-width:1; fill:white; " points="424,85 429,80 438,80 438,90 429,90 424,85 "  />
</g>
<g id="a1_0029"  >
<polygon locus_tag="ACB47060.1" id="dummy-1_h1_5_29" class="clusterblast-orf" description="&lt;b&gt;ACB47060.1&lt;/b&gt;&lt;br&gt;ketone reductase&lt;br&gt;Location: 43124 - 44674" style="stroke:black; stroke-width:1; fill:white; " points="439,90 451,90 456,85 451,80 439,80 439,90 "  />
</g>
<g id="a1_0030"  >
<polygon locus_tag="ACB47061.1" id="dummy-1_h1_5_30" class="clusterblast-orf" description="&lt;b&gt;ACB47061.1&lt;/b&gt;&lt;br&gt;unkown protein&lt;br&gt;Location: 44713 - 45564" style="stroke:black; stroke-width:1; fill:white; " points="456,90 460,90 465,85 460,80 456,80 456,90 "  />
</g>
<g id="a1_0031"  >
<polygon locus_tag="ACB47062.1" id="dummy-1_h1_5_31" class="clusterblast-orf" description="&lt;b&gt;ACB47062.1&lt;/b&gt;&lt;br&gt;DynR7&lt;br&gt;Location: 45570 - 46421" style="stroke:black; stroke-width:1; fill:white; " points="465,90 469,90 474,85 469,80 465,80 465,90 "  />
</g>
<g id="a1_0032"  >
<polygon locus_tag="ACB47063.1" id="dummy-1_h1_5_32" class="clusterblast-orf" description="&lt;b&gt;ACB47063.1&lt;/b&gt;&lt;br&gt;hypothetical protein&lt;br&gt;Location: 46468 - 47724" style="stroke:black; stroke-width:1; fill:white; " points="475,85 480,80 488,80 488,90 480,90 475,85 "  />
</g>
<g id="a1_0033"  >
<polygon locus_tag="ACB47064.1" id="dummy-1_h1_5_33" class="clusterblast-orf" description="&lt;b&gt;ACB47064.1&lt;/b&gt;&lt;br&gt;FAD-dependent oxidoreductase&lt;br&gt;Location: 47735 - 48871" style="stroke:black; stroke-width:1; fill:white; " points="488,85 493,80 500,80 500,90 493,90 488,85 "  />
</g>
<g id="a1_0034"  >
<polygon locus_tag="ACB47065.1" id="dummy-1_h1_5_34" class="clusterblast-orf" description="&lt;b&gt;ACB47065.1&lt;/b&gt;&lt;br&gt;putative hydroxylase&lt;br&gt;Location: 49086 - 49514" style="stroke:black; stroke-width:1; fill:white; " points="503,90 507,85 503,80 503,90 "  />
</g>
<g id="a1_0035"  >
<polygon locus_tag="ACB47066.1" id="dummy-1_h1_5_35" class="clusterblast-orf" description="&lt;b&gt;ACB47066.1&lt;/b&gt;&lt;br&gt;putative hydroxylase&lt;br&gt;Location: 49551 - 50054" style="stroke:black; stroke-width:1; fill:white; " points="508,90 508,90 513,85 508,80 508,80 508,90 "  />
</g>
<g id="a1_0036"  >
<polygon locus_tag="ACB47067.1" id="dummy-1_h1_5_36" class="clusterblast-orf" description="&lt;b&gt;ACB47067.1&lt;/b&gt;&lt;br&gt;conserved hypothetical protein&lt;br&gt;Location: 50182 - 51078" style="stroke:black; stroke-width:1; fill:white; " points="515,85 520,80 524,80 524,90 520,90 515,85 "  />
</g>
<g id="a1_0037"  >
<polygon locus_tag="ACB47068.1" id="dummy-1_h1_5_37" class="clusterblast-orf" description="&lt;b&gt;ACB47068.1&lt;/b&gt;&lt;br&gt;putative secreted hydrolase&lt;br&gt;Location: 51075 - 52604" style="stroke:black; stroke-width:1; fill:white; " points="524,85 529,80 540,80 540,90 529,90 524,85 "  />
</g>
<g id="a1_0038"  >
<polygon locus_tag="ACB47069.1" id="dummy-1_h1_5_38" class="clusterblast-orf" description="&lt;b&gt;ACB47069.1&lt;/b&gt;&lt;br&gt;putative methyltransferase&lt;br&gt;Location: 52523 - 53635" style="stroke:black; stroke-width:1; fill:white; " points="540,85 545,80 552,80 552,90 545,90 540,85 "  />
</g>
<g id="a1_0039"  >
<polygon locus_tag="ACB47070.1" id="dummy-1_h1_5_39" class="clusterblast-orf" description="&lt;b&gt;ACB47070.1&lt;/b&gt;&lt;br&gt;putative cytochrome P450 hydroxylase&lt;br&gt;Location: 53691 - 54902" style="stroke:black; stroke-width:1; fill:white; " points="552,85 557,80 565,80 565,90 557,90 552,85 "  />
</g>
<g id="a1_0040"  >
<polygon locus_tag="ACB47071.1" id="dummy-1_h1_5_40" class="clusterblast-orf" description="&lt;b&gt;ACB47071.1&lt;/b&gt;&lt;br&gt;putative cytochrome P450 hydroxylase&lt;br&gt;Location: 54945 - 56147" style="stroke:black; stroke-width:1; fill:white; " points="566,85 571,80 578,80 578,90 571,90 566,85 "  />
</g>
<g id="a1_0041"  >
<polygon locus_tag="ACB47072.1" id="dummy-1_h1_5_41" class="clusterblast-orf" description="&lt;b&gt;ACB47072.1&lt;/b&gt;&lt;br&gt;hypothetical protein&lt;br&gt;Location: 56283 - 56723" style="stroke:black; stroke-width:1; fill:white; " points="580,85 585,80 585,80 585,90 585,90 580,85 "  />
</g>
<g id="a1_0042"  >
<polygon locus_tag="ACB47073.1" id="dummy-1_h1_5_42" class="clusterblast-orf" description="&lt;b&gt;ACB47073.1&lt;/b&gt;&lt;br&gt;putative transcriptional regulator&lt;br&gt;Location: 56720 - 57064" style="stroke:black; stroke-width:1; fill:white; " points="585,85 588,80 588,90 585,85 "  />
</g>
<g id="a1_0043"  >
<polygon locus_tag="ACB47074.1" id="dummy-1_h1_5_43" class="clusterblast-orf" description="&lt;b&gt;ACB47074.1&lt;/b&gt;&lt;br&gt;hypothetical protein&lt;br&gt;Location: 57068 - 57439" style="stroke:black; stroke-width:1; fill:white; " points="588,85 592,80 592,90 588,85 "  />
</g>
<g id="a1_0044"  >
<polygon locus_tag="ACB47075.1" id="dummy-1_h1_5_44" class="clusterblast-orf" description="&lt;b&gt;ACB47075.1&lt;/b&gt;&lt;br&gt;putative integral membrane transport protein&lt;br&gt;Location: 57582 - 58391" style="stroke:black; stroke-width:1; fill:white; " points="594,85 599,80 602,80 602,90 599,90 594,85 "  />
</g>
<g id="a1_0045"  >
<polygon locus_tag="ACB47076.1" id="dummy-1_h1_5_45" class="clusterblast-orf" description="&lt;b&gt;ACB47076.1&lt;/b&gt;&lt;br&gt;DynT5&lt;br&gt;Location: 58388 - 59389" style="stroke:black; stroke-width:1; fill:white; " points="602,85 607,80 613,80 613,90 607,90 602,85 "  />
</g>
<g id="a1_0046"  >
<polygon locus_tag="ACB47077.1" id="dummy-1_h1_5_46" class="clusterblast-orf" description="&lt;b&gt;ACB47077.1&lt;/b&gt;&lt;br&gt;hypothetical protein&lt;br&gt;Location: 59513 - 59884" style="stroke:black; stroke-width:1; fill:white; " points="615,85 618,80 618,90 615,85 "  />
</g>
<g id="a1_0047"  >
<polygon locus_tag="ACB47078.1" id="dummy-1_h1_5_47" class="clusterblast-orf" description="&lt;b&gt;ACB47078.1&lt;/b&gt;&lt;br&gt;putative carbon monoxide dehydrogenase large subunit&lt;br&gt;Location: 59911 - 62271" style="stroke:black; stroke-width:1; fill:white; " points="619,85 624,80 644,80 644,90 624,90 619,85 "  />
</g>
<g id="a1_0048"  >
<polygon locus_tag="ACB47079.1" id="dummy-1_h1_5_48" class="clusterblast-orf" description="&lt;b&gt;ACB47079.1&lt;/b&gt;&lt;br&gt;putative carbon monoxide dehydrogenase small subunit&lt;br&gt;Location: 62268 - 62762&lt;br&gt;&lt;br&gt;&lt;b&gt;BlastP hit with cds76951_77566&lt;/b&gt;&lt;br&gt;Percentage identity: 46&lt;br&gt;Percentage coverage: 86&lt;br&gt;BLAST bit score: 135&lt;br&gt;E-value: 1.1e-31" style="stroke:black; stroke-width:1; fill:#7715d8; " points="644,85 649,80 649,80 649,90 649,90 644,85 "  />
</g>
<g id="a1_0049"  >
<polygon locus_tag="ACB47080.1" id="dummy-1_h1_5_49" class="clusterblast-orf" description="&lt;b&gt;ACB47080.1&lt;/b&gt;&lt;br&gt;putative carbon monoxide dehydrogenase medium subunit&lt;br&gt;Location: 62778 - 63656" style="stroke:black; stroke-width:1; fill:white; " points="649,85 654,80 659,80 659,90 654,90 649,85 "  />
</g>
<g id="a1_0050"  >
<polygon locus_tag="ACB47081.1" id="dummy-1_h1_5_50" class="clusterblast-orf" description="&lt;b&gt;ACB47081.1&lt;/b&gt;&lt;br&gt;DynO6&lt;br&gt;Location: 63682 - 64731" style="stroke:black; stroke-width:1; fill:white; " points="659,85 664,80 670,80 670,90 664,90 659,85 "  />
</g>
<g id="a1_0051"  >
<polygon locus_tag="ACB47082.1" id="dummy-1_h1_5_51" class="clusterblast-orf" description="&lt;b&gt;ACB47082.1&lt;/b&gt;&lt;br&gt;putative transmembrane transport protein&lt;br&gt;Location: 64871 - 65890" style="stroke:black; stroke-width:1; fill:white; " points="672,85 677,80 683,80 683,90 677,90 672,85 "  />
</g>
<g id="a1_0052"  >
<polygon locus_tag="ACB47083.1" id="dummy-1_h1_5_52" class="clusterblast-orf" description="&lt;b&gt;ACB47083.1&lt;/b&gt;&lt;br&gt;putative ABC transporter ATP-binding protein&lt;br&gt;Location: 65887 - 66804" style="stroke:black; stroke-width:1; fill:white; " points="683,85 688,80 693,80 693,90 688,90 683,85 "  />
</g>
<g id="a1_0053"  >
<polygon locus_tag="ACB47084.1" id="dummy-1_h1_5_53" class="clusterblast-orf" description="&lt;b&gt;ACB47084.1&lt;/b&gt;&lt;br&gt;putative transmembrane transport protein&lt;br&gt;Location: 66977 - 67972" style="stroke:black; stroke-width:1; fill:white; " points="694,85 699,80 705,80 705,90 699,90 694,85 "  />
</g>
<g id="a1_0054"  >
<polygon locus_tag="ACB47085.1" id="dummy-1_h1_5_54" class="clusterblast-orf" description="&lt;b&gt;ACB47085.1&lt;/b&gt;&lt;br&gt;putative 2-component system sensor kinase&lt;br&gt;Location: 68128 - 68697" style="stroke:black; stroke-width:1; fill:white; " points="707,90 708,90 713,85 708,80 707,80 707,90 "  />
</g>
<g id="a1_0055"  >
<polygon locus_tag="ACB47086.1" id="dummy-1_h1_5_55" class="clusterblast-orf" description="&lt;b&gt;ACB47086.1&lt;/b&gt;&lt;br&gt;hypothetical protein&lt;br&gt;Location: 68795 - 69451" style="stroke:black; stroke-width:1; fill:white; " points="714,90 716,90 721,85 716,80 714,80 714,90 "  />
</g>
<g id="a1_0056"  >
<polygon locus_tag="ACB47087.1" id="dummy-1_h1_5_56" class="clusterblast-orf" description="&lt;b&gt;ACB47087.1&lt;/b&gt;&lt;br&gt;hypothetical protein&lt;br&gt;Location: 69668 - 70093" style="stroke:black; stroke-width:1; fill:white; " points="723,90 723,90 728,85 723,80 723,80 723,90 "  />
</g>
<g id="a1_0057"  >
<polygon locus_tag="ACB47088.1" id="dummy-1_h1_5_57" class="clusterblast-orf" description="&lt;b&gt;ACB47088.1&lt;/b&gt;&lt;br&gt;unkown protein&lt;br&gt;Location: 70161 - 70586" style="stroke:black; stroke-width:1; fill:white; " points="729,90 733,85 729,80 729,90 "  />
</g>
<g id="a1_0058"  >
<polygon locus_tag="ACB47089.1" id="dummy-1_h1_5_58" class="clusterblast-orf" description="&lt;b&gt;ACB47089.1&lt;/b&gt;&lt;br&gt;type I site-specific deoxyribonuclease protein R&lt;br&gt;Location: 71495 - 74911" style="stroke:black; stroke-width:1; fill:white; " points="743,85 748,80 780,80 780,90 748,90 743,85 "  />
</g>
</svg>
