<svg xmlns="http://www.w3.org/2000/svg" version="1.1" y="0" x="0" preserveAspectRatio="none" xmlns:xlink="http://www.w3.org/1999/xlink" viewBox="0 0 800 230" height="230" width="800"  >
<g label="Query sequence" class="clusterblast-cluster"  >
<text class="clusterblast-acc" y="20" x="5"  >
Query sequence</text>
<line x2="778.0" x1="10" y1="35" y2="35" style="stroke:grey; stroke-width:1; "  />
<polygon locus_tag="cds95_2960" id="dummy-1_q0_0_all" class="clusterblast-orf" description="&lt;b&gt;cds95_2960&lt;/b&gt;&lt;br&gt;Polyketide synthase modules and related proteins&lt;br&gt;Location: 95 - 2960" style="stroke:black; stroke-width:1; fill:#d81515; " points="40,35 45,30 101,30 101,40 45,40 40,35 "  />
<polygon locus_tag="cds2992_3817" id="dummy-1_q1_0_all" class="clusterblast-orf" description="&lt;b&gt;cds2992_3817&lt;/b&gt;&lt;br&gt;Oxidoreductase, short-chain dehydrogenase/reductase family&lt;br&gt;Location: 2992 - 3817" style="stroke:black; stroke-width:1; fill:#77d815; " points="102,35 107,30 119,30 119,40 107,40 102,35 "  />
<polygon locus_tag="cds3803_4568" id="dummy-1_q2_0_all" class="clusterblast-orf" description="&lt;b&gt;cds3803_4568&lt;/b&gt;&lt;br&gt;thioesterase&lt;br&gt;Location: 3803 - 4568" style="stroke:black; stroke-width:1; fill:white; " points="119,35 124,30 135,30 135,40 124,40 119,35 "  />
<polygon locus_tag="cds5129_5345" id="dummy-1_q3_0_all" class="clusterblast-orf" description="&lt;b&gt;cds5129_5345&lt;/b&gt;&lt;br&gt;MbtH-like NRPS chaperone&lt;br&gt;Location: 5129 - 5345" style="stroke:black; stroke-width:1; fill:#15d8d8; " points="147,40 147,40 152,35 147,30 147,30 147,40 "  />
<polygon locus_tag="cds5851_9661" id="dummy-1_q4_0_all" class="clusterblast-orf" description="&lt;b&gt;cds5851_9661&lt;/b&gt;&lt;br&gt;Polyketide synthase modules and related proteins&lt;br&gt;Location: 5851 - 9661" style="stroke:black; stroke-width:1; fill:#7715d8; " points="162,40 238,40 243,35 238,30 162,30 162,40 "  />
<polygon locus_tag="cds9716_10475" id="dummy-1_q5_0_all" class="clusterblast-orf" description="&lt;b&gt;cds9716_10475&lt;/b&gt;&lt;br&gt;Thioesterase&lt;br&gt;Location: 9716 - 10475" style="stroke:black; stroke-width:1; fill:#7715d8; " points="244,40 255,40 260,35 255,30 244,30 244,40 "  />
<polygon locus_tag="cds10933_11404" id="dummy-1_q6_0_all" class="clusterblast-orf" description="&lt;b&gt;cds10933_11404&lt;/b&gt;&lt;br&gt;Transposase&lt;br&gt;Location: 10933 - 11404" style="stroke:black; stroke-width:1; fill:white; " points="270,35 275,30 280,30 280,40 275,40 270,35 "  />
<polygon locus_tag="cds11434_11662" id="dummy-1_q7_0_all" class="clusterblast-orf" description="&lt;b&gt;cds11434_11662&lt;/b&gt;&lt;br&gt;Mobile element protein&lt;br&gt;Location: 11434 - 11662" style="stroke:black; stroke-width:1; fill:white; " points="281,35 286,30 286,30 286,40 286,40 281,35 "  />
<polygon locus_tag="cds11844_11979" id="dummy-1_q8_0_all" class="clusterblast-orf" description="&lt;b&gt;cds11844_11979&lt;/b&gt;&lt;br&gt;hypothetical protein&lt;br&gt;Location: 11844 - 11979" style="stroke:black; stroke-width:1; fill:white; " points="289,35 292,30 292,40 289,35 "  />
<polygon locus_tag="cds12432_13326" id="dummy-1_q9_0_all" class="clusterblast-orf" description="&lt;b&gt;cds12432_13326&lt;/b&gt;&lt;br&gt;3-hydroxybutyryl-CoA dehydrogenase (EC 1.1.1.157); 3-hydroxyacyl-CoA dehydrogenase (EC 1.1.1.35)&lt;br&gt;Location: 12432 - 13326" style="stroke:black; stroke-width:1; fill:white; " points="302,35 307,30 321,30 321,40 307,40 302,35 "  />
<polygon locus_tag="cds13346_14405" id="dummy-1_q10_0_all" class="clusterblast-orf" description="&lt;b&gt;cds13346_14405&lt;/b&gt;&lt;br&gt;Polyketide synthase modules and related proteins&lt;br&gt;Location: 13346 - 14405" style="stroke:black; stroke-width:1; fill:white; " points="321,35 326,30 344,30 344,40 326,40 321,35 "  />
<polygon locus_tag="cds14422_15580" id="dummy-1_q11_0_all" class="clusterblast-orf" description="&lt;b&gt;cds14422_15580&lt;/b&gt;&lt;br&gt;hypothetical protein&lt;br&gt;Location: 14422 - 15580" style="stroke:black; stroke-width:1; fill:white; " points="344,35 349,30 369,30 369,40 349,40 344,35 "  />
<polygon locus_tag="cds15576_15861" id="dummy-1_q12_0_all" class="clusterblast-orf" description="&lt;b&gt;cds15576_15861&lt;/b&gt;&lt;br&gt;COG0236: Acyl carrier protein&lt;br&gt;Location: 15576 - 15861" style="stroke:black; stroke-width:1; fill:white; " points="369,35 374,30 375,30 375,40 374,40 369,35 "  />
<polygon locus_tag="cds15875_16880" id="dummy-1_q13_0_all" class="clusterblast-orf" description="&lt;b&gt;cds15875_16880&lt;/b&gt;&lt;br&gt;hypothetical protein&lt;br&gt;Location: 15875 - 16880" style="stroke:black; stroke-width:1; fill:white; " points="375,35 380,30 396,30 396,40 380,40 375,35 "  />
<polygon locus_tag="cds16880_23948" id="dummy-1_q14_0_all" class="clusterblast-orf" description="&lt;b&gt;cds16880_23948&lt;/b&gt;&lt;br&gt;hypothetical protein&lt;br&gt;Location: 16880 - 23948" style="stroke:black; stroke-width:1; fill:white; " points="396,35 401,30 546,30 546,40 401,40 396,35 "  />
<polygon locus_tag="cds23944_33037" id="dummy-1_q15_0_all" class="clusterblast-orf" description="&lt;b&gt;cds23944_33037&lt;/b&gt;&lt;br&gt;Polyketide synthase modules and related proteins&lt;br&gt;Location: 23944 - 33037" style="stroke:black; stroke-width:1; fill:#7715d8; " points="546,35 551,30 739,30 739,40 551,40 546,35 "  />
</g>
<g label="BGC0000450" class="clusterblast-cluster" description="BGC0000450_c1: triostin A (11% of genes show similarity), NRP"  >
<text class="clusterblast-acc" y="70" x="5"  >
<a xlink:href="https://mibig.secondarymetabolites.org/go/BGC0000450/1" target="_blank">BGC0000450</a>:                                                                       triostin A (11% of genes show similarity), NRP</text>
<line x2="778.0" x1="10" y1="85" y2="85" style="stroke:grey; stroke-width:1; "  />
</g>
<g id="a1_000"  >
<polygon locus_tag="BAH04173.1" id="dummy-1_h1_10_0" class="clusterblast-orf" description="&lt;b&gt;BAH04173.1&lt;/b&gt;&lt;br&gt;putative non-ribosomal peptide synthetase&lt;br&gt;Location: 36746 - 34968" style="stroke:black; stroke-width:1; fill:white; " points="0,85 5,80 37,80 37,90 5,90 0,85 "  />
</g>
<g id="a1_001"  >
<polygon locus_tag="BAH04172.1" id="dummy-1_h1_10_1" class="clusterblast-orf" description="&lt;b&gt;BAH04172.1&lt;/b&gt;&lt;br&gt;putative tryptophan 2,3-dioxygenase&lt;br&gt;Location: 34778 - 34035" style="stroke:black; stroke-width:1; fill:white; " points="41,90 52,90 57,85 52,80 41,80 41,90 "  />
</g>
<g id="a1_002"  >
<polygon locus_tag="BAH04171.1" id="dummy-1_h1_10_2" class="clusterblast-orf" description="&lt;b&gt;BAH04171.1&lt;/b&gt;&lt;br&gt;AMP-binding ligase&lt;br&gt;Location: 33956 - 32373" style="stroke:black; stroke-width:1; fill:white; " points="59,85 64,80 92,80 92,90 64,90 59,85 "  />
</g>
<g id="a1_003"  >
<polygon locus_tag="BAH04170.1" id="dummy-1_h1_10_3" class="clusterblast-orf" description="&lt;b&gt;BAH04170.1&lt;/b&gt;&lt;br&gt;putative cytochrome P450&lt;br&gt;Location: 32359 - 31154" style="stroke:black; stroke-width:1; fill:white; " points="93,85 98,80 118,80 118,90 98,90 93,85 "  />
</g>
<g id="a1_004"  >
<polygon locus_tag="BAH04169.1" id="dummy-1_h1_10_4" class="clusterblast-orf" description="&lt;b&gt;BAH04169.1&lt;/b&gt;&lt;br&gt;putative thioesterase&lt;br&gt;Location: 31000 - 30254" style="stroke:black; stroke-width:1; fill:white; " points="121,90 132,90 137,85 132,80 121,80 121,90 "  />
</g>
<g id="a1_005"  >
<polygon locus_tag="BAH04168.1" id="dummy-1_h1_10_5" class="clusterblast-orf" description="&lt;b&gt;BAH04168.1&lt;/b&gt;&lt;br&gt;putative dehydrogenase&lt;br&gt;Location: 30257 - 29169" style="stroke:black; stroke-width:1; fill:white; " points="137,90 155,90 160,85 155,80 137,80 137,90 "  />
</g>
<g id="a1_006"  >
<polygon locus_tag="BAH04167.1" id="dummy-1_h1_10_6" class="clusterblast-orf" description="&lt;b&gt;BAH04167.1&lt;/b&gt;&lt;br&gt;putative FAD-dependent oxidoreductase&lt;br&gt;Location: 29182 - 27803" style="stroke:black; stroke-width:1; fill:white; " points="160,90 184,90 189,85 184,80 160,80 160,90 "  />
</g>
<g id="a1_007"  >
<polygon locus_tag="BAH04166.1" id="dummy-1_h1_10_7" class="clusterblast-orf" description="&lt;b&gt;BAH04166.1&lt;/b&gt;&lt;br&gt;putative oxidoreductase&lt;br&gt;Location: 27406 - 26468" style="stroke:black; stroke-width:1; fill:white; " points="198,85 203,80 218,80 218,90 203,90 198,85 "  />
</g>
<g id="a1_008"  >
<polygon locus_tag="BAH04165.1" id="dummy-1_h1_10_8" class="clusterblast-orf" description="&lt;b&gt;BAH04165.1&lt;/b&gt;&lt;br&gt;UvrA-like protein&lt;br&gt;Location: 26386 - 24008" style="stroke:black; stroke-width:1; fill:white; " points="219,85 224,80 270,80 270,90 224,90 219,85 "  />
</g>
<g id="a1_009"  >
<polygon locus_tag="BAH04164.1" id="dummy-1_h1_10_9" class="clusterblast-orf" description="&lt;b&gt;BAH04164.1&lt;/b&gt;&lt;br&gt;hypothetical protein&lt;br&gt;Location: 23823 - 22438" style="stroke:black; stroke-width:1; fill:white; " points="274,85 279,80 303,80 303,90 279,90 274,85 "  />
</g>
<g id="a1_0010"  >
<polygon locus_tag="BAH04163.1" id="dummy-1_h1_10_10" class="clusterblast-orf" description="&lt;b&gt;BAH04163.1&lt;/b&gt;&lt;br&gt;putative SAM-dependent methyltransferase&lt;br&gt;Location: 22374 - 21676" style="stroke:black; stroke-width:1; fill:white; " points="305,85 310,80 319,80 319,90 310,90 305,85 "  />
</g>
<g id="a1_0011"  >
<polygon locus_tag="BAH04162.1" id="dummy-1_h1_10_11" class="clusterblast-orf" description="&lt;b&gt;BAH04162.1&lt;/b&gt;&lt;br&gt;trsJ&lt;br&gt;Location: 21665 - 13608&lt;br&gt;&lt;br&gt;&lt;b&gt;BlastP hit with cds23944_33037&lt;/b&gt;&lt;br&gt;Percentage identity: 50&lt;br&gt;Percentage coverage: 66&lt;br&gt;BLAST bit score: 1715&lt;br&gt;E-value: 0.0" style="stroke:black; stroke-width:1; fill:#7715d8; " points="320,90 486,90 491,85 486,80 320,80 320,90 "  />
</g>
<g id="a1_0012"  >
<polygon locus_tag="BAH04161.1" id="dummy-1_h1_10_12" class="clusterblast-orf" description="&lt;b&gt;BAH04161.1&lt;/b&gt;&lt;br&gt;putative non-ribosomal peptide synthetase&lt;br&gt;Location: 13600 - 4142" style="stroke:black; stroke-width:1; fill:white; " points="491,90 687,90 692,85 687,80 491,80 491,90 "  />
</g>
<g id="a1_0013"  >
<polygon locus_tag="BAH04160.1" id="dummy-1_h1_10_13" class="clusterblast-orf" description="&lt;b&gt;BAH04160.1&lt;/b&gt;&lt;br&gt;MbtH-like protein&lt;br&gt;Location: 4095 - 3883&lt;br&gt;&lt;br&gt;&lt;b&gt;BlastP hit with cds5129_5345&lt;/b&gt;&lt;br&gt;Percentage identity: 74&lt;br&gt;Percentage coverage: 96&lt;br&gt;BLAST bit score: 121&lt;br&gt;E-value: 5.6e-28" style="stroke:black; stroke-width:1; fill:#15d8d8; " points="693,90 697,85 693,80 693,90 "  />
</g>
<g id="a1_0014"  >
<polygon locus_tag="BAH04159.1" id="dummy-1_h1_10_14" class="clusterblast-orf" description="&lt;b&gt;BAH04159.1&lt;/b&gt;&lt;br&gt;putative DNA-binding response regulator&lt;br&gt;Location: 3739 - 3236" style="stroke:black; stroke-width:1; fill:white; " points="700,90 706,90 711,85 706,80 700,80 700,90 "  />
</g>
<g id="a1_0015"  >
<polygon locus_tag="BAH04158.1" id="dummy-1_h1_10_15" class="clusterblast-orf" description="&lt;b&gt;BAH04158.1&lt;/b&gt;&lt;br&gt;putative esterase&lt;br&gt;Location: 3117 - 1912" style="stroke:black; stroke-width:1; fill:white; " points="713,85 718,80 739,80 739,90 718,90 713,85 "  />
</g>
<g id="a1_0016"  >
<polygon locus_tag="BAH04157.1" id="dummy-1_h1_10_16" class="clusterblast-orf" description="&lt;b&gt;BAH04157.1&lt;/b&gt;&lt;br&gt;putative ABC transporter&lt;br&gt;Location: 1805 - 981" style="stroke:black; stroke-width:1; fill:white; " points="741,85 746,80 759,80 759,90 746,90 741,85 "  />
</g>
<g id="a1_0017"  >
<polygon locus_tag="BAH04156.1" id="dummy-1_h1_10_17" class="clusterblast-orf" description="&lt;b&gt;BAH04156.1&lt;/b&gt;&lt;br&gt;putative ABC transporter&lt;br&gt;Location: 984 - 1" style="stroke:black; stroke-width:1; fill:white; " points="759,85 764,80 780,80 780,90 764,90 759,85 "  />
</g>
</svg>
