<svg xmlns="http://www.w3.org/2000/svg" version="1.1" y="0" x="0" preserveAspectRatio="none" xmlns:xlink="http://www.w3.org/1999/xlink" viewBox="0 0 800 230" height="230" width="800"  >
<g label="Query sequence" class="clusterblast-cluster"  >
<text class="clusterblast-acc" y="20" x="5"  >
Query sequence</text>
<line x2="778.0" x1="10" y1="35" y2="35" style="stroke:grey; stroke-width:1; "  />
<polygon locus_tag="cds2_833" id="dummy-1_q0_0_all" class="clusterblast-orf" description="&lt;b&gt;cds2_833&lt;/b&gt;&lt;br&gt;hypothetical protein&lt;br&gt;Location: 2 - 833" style="stroke:black; stroke-width:1; fill:#d81515; " points="229,40 239,40 244,35 239,30 229,30 229,40 "  />
<polygon locus_tag="cds836_6791" id="dummy-1_q1_0_all" class="clusterblast-orf" description="&lt;b&gt;cds836_6791&lt;/b&gt;&lt;br&gt;Polyketide synthase modules and related proteins&lt;br&gt;Location: 836 - 6791" style="stroke:black; stroke-width:1; fill:#d81515; " points="245,40 348,40 353,35 348,30 245,30 245,40 "  />
<polygon locus_tag="cds6980_10079" id="dummy-1_q2_0_all" class="clusterblast-orf" description="&lt;b&gt;cds6980_10079&lt;/b&gt;&lt;br&gt;Transcriptional regulator, AfsR family&lt;br&gt;Location: 6980 - 10079" style="stroke:black; stroke-width:1; fill:white; " points="356,40 408,40 413,35 408,30 356,30 356,40 "  />
<polygon locus_tag="cds10259_10469" id="dummy-1_q3_0_all" class="clusterblast-orf" description="&lt;b&gt;cds10259_10469&lt;/b&gt;&lt;br&gt;hypothetical protein&lt;br&gt;Location: 10259 - 10469" style="stroke:black; stroke-width:1; fill:white; " points="416,35 420,30 420,40 416,35 "  />
<polygon locus_tag="cds10666_12649" id="dummy-1_q4_0_all" class="clusterblast-orf" description="&lt;b&gt;cds10666_12649&lt;/b&gt;&lt;br&gt;Transcriptional regulator, AfsR family&lt;br&gt;Location: 10666 - 12649" style="stroke:black; stroke-width:1; fill:#15d815; " points="423,40 454,40 459,35 454,30 423,30 423,40 "  />
<polygon locus_tag="cds12849_14694" id="dummy-1_q5_0_all" class="clusterblast-orf" description="&lt;b&gt;cds12849_14694&lt;/b&gt;&lt;br&gt;Multimodular transpeptidase-transglycosylase (EC 2.4.1.129) (EC 3.4.-.-)&lt;br&gt;Location: 12849 - 14694" style="stroke:black; stroke-width:1; fill:white; " points="463,40 491,40 496,35 491,30 463,30 463,40 "  />
<polygon locus_tag="cds14722_15601" id="dummy-1_q6_0_all" class="clusterblast-orf" description="&lt;b&gt;cds14722_15601&lt;/b&gt;&lt;br&gt;Transcriptional regulator, MerR family&lt;br&gt;Location: 14722 - 15601" style="stroke:black; stroke-width:1; fill:white; " points="497,40 508,40 513,35 508,30 497,30 497,40 "  />
<polygon locus_tag="cds15638_15971" id="dummy-1_q7_0_all" class="clusterblast-orf" description="&lt;b&gt;cds15638_15971&lt;/b&gt;&lt;br&gt;hypothetical protein&lt;br&gt;Location: 15638 - 15971" style="stroke:black; stroke-width:1; fill:white; " points="514,35 519,30 520,30 520,40 519,40 514,35 "  />
<polygon locus_tag="cds15992_17636" id="dummy-1_q8_0_all" class="clusterblast-orf" description="&lt;b&gt;cds15992_17636&lt;/b&gt;&lt;br&gt;Integral membrane protein&lt;br&gt;Location: 15992 - 17636" style="stroke:black; stroke-width:1; fill:#1515d8; " points="520,40 545,40 550,35 545,30 520,30 520,40 "  />
</g>
<g label="BGC0001766" class="clusterblast-cluster" description="BGC0001766_c1: salinamide A (14% of genes show similarity), NRP"  >
<text class="clusterblast-acc" y="70" x="5"  >
<a xlink:href="https://mibig.secondarymetabolites.org/go/BGC0001766/1" target="_blank">BGC0001766</a>:                                                                     salinamide A (14% of genes show similarity), NRP</text>
<line x2="778.0" x1="10" y1="85" y2="85" style="stroke:grey; stroke-width:1; "  />
</g>
<g id="a1_000"  >
<polygon locus_tag="DAB41484.1" id="dummy-1_h1_2_0" class="clusterblast-orf" description="&lt;b&gt;DAB41484.1&lt;/b&gt;&lt;br&gt;nonribosomal peptide synthetase/polyketide synthase type I&lt;br&gt;Location: 44697 - 37027" style="stroke:black; stroke-width:1; fill:white; " points="0,90 134,90 139,85 134,80 0,80 0,90 "  />
</g>
<g id="a1_001"  >
<polygon locus_tag="DAB41483.1" id="dummy-1_h1_2_1" class="clusterblast-orf" description="&lt;b&gt;DAB41483.1&lt;/b&gt;&lt;br&gt;LuxR regulatory protein&lt;br&gt;Location: 36951 - 34234" style="stroke:black; stroke-width:1; fill:white; " points="140,90 185,90 190,85 185,80 140,80 140,90 "  />
</g>
<g id="a1_002"  >
<polygon locus_tag="DAB41482.1" id="dummy-1_h1_2_2" class="clusterblast-orf" description="&lt;b&gt;DAB41482.1&lt;/b&gt;&lt;br&gt;acyl carrier protein&lt;br&gt;Location: 34167 - 33925" style="stroke:black; stroke-width:1; fill:white; " points="191,85 195,80 195,90 191,85 "  />
</g>
<g id="a1_003"  >
<polygon locus_tag="DAB41481.1" id="dummy-1_h1_2_3" class="clusterblast-orf" description="&lt;b&gt;DAB41481.1&lt;/b&gt;&lt;br&gt;beta-ketoacyl-ACP synthase III (KSIII)&lt;br&gt;Location: 33914 - 32973" style="stroke:black; stroke-width:1; fill:white; " points="196,85 201,80 213,80 213,90 201,90 196,85 "  />
</g>
<g id="a1_004"  >
<polygon locus_tag="DAB41480.1" id="dummy-1_h1_2_4" class="clusterblast-orf" description="&lt;b&gt;DAB41480.1&lt;/b&gt;&lt;br&gt;cytochrome P450&lt;br&gt;Location: 32976 - 31768" style="stroke:black; stroke-width:1; fill:white; " points="213,85 218,80 235,80 235,90 218,90 213,85 "  />
</g>
<g id="a1_005"  >
<polygon locus_tag="DAB41479.1" id="dummy-1_h1_2_5" class="clusterblast-orf" description="&lt;b&gt;DAB41479.1&lt;/b&gt;&lt;br&gt;nonribosomal peptide synthetase&lt;br&gt;Location: 31411 - 27455" style="stroke:black; stroke-width:1; fill:white; " points="241,90 308,90 313,85 308,80 241,80 241,90 "  />
</g>
<g id="a1_006"  >
<polygon locus_tag="DAB41478.1" id="dummy-1_h1_2_6" class="clusterblast-orf" description="&lt;b&gt;DAB41478.1&lt;/b&gt;&lt;br&gt;nonribosomal peptide synthetase&lt;br&gt;Location: 27458 - 22794" style="stroke:black; stroke-width:1; fill:white; " points="313,90 393,90 398,85 393,80 313,80 313,90 "  />
</g>
<g id="a1_007"  >
<polygon locus_tag="DAB41477.1" id="dummy-1_h1_2_7" class="clusterblast-orf" description="&lt;b&gt;DAB41477.1&lt;/b&gt;&lt;br&gt;nonribosomal peptide synthetase&lt;br&gt;Location: 22797 - 10615&lt;br&gt;&lt;br&gt;&lt;b&gt;BlastP hit with cds2_833&lt;/b&gt;&lt;br&gt;Percentage identity: 47&lt;br&gt;Percentage coverage: 77&lt;br&gt;BLAST bit score: 170&lt;br&gt;E-value: 4.1e-42" style="stroke:black; stroke-width:1; fill:#d81515; " points="398,90 614,90 619,85 614,80 398,80 398,90 "  />
</g>
<g id="a1_008"  >
<polygon locus_tag="DAB41476.1" id="dummy-1_h1_2_8" class="clusterblast-orf" description="&lt;b&gt;DAB41476.1&lt;/b&gt;&lt;br&gt;nonribosomal peptide synthetase&lt;br&gt;Location: 10618 - 6623&lt;br&gt;&lt;br&gt;&lt;b&gt;BlastP hit with cds836_6791&lt;/b&gt;&lt;br&gt;Percentage identity: 50&lt;br&gt;Percentage coverage: 55&lt;br&gt;BLAST bit score: 882&lt;br&gt;E-value: 1.2e-255" style="stroke:black; stroke-width:1; fill:#d81515; " points="619,90 687,90 692,85 687,80 619,80 619,90 "  />
</g>
<g id="a1_009"  >
<polygon locus_tag="DAB41475.1" id="dummy-1_h1_2_9" class="clusterblast-orf" description="&lt;b&gt;DAB41475.1&lt;/b&gt;&lt;br&gt;MbtH-like protein&lt;br&gt;Location: 6582 - 6364" style="stroke:black; stroke-width:1; fill:white; " points="692,90 696,85 692,80 692,90 "  />
</g>
<g id="a1_0010"  >
<polygon locus_tag="DAB41474.1" id="dummy-1_h1_2_10" class="clusterblast-orf" description="&lt;b&gt;DAB41474.1&lt;/b&gt;&lt;br&gt;methyltransferase&lt;br&gt;Location: 6367 - 5333" style="stroke:black; stroke-width:1; fill:white; " points="696,90 710,90 715,85 710,80 696,80 696,90 "  />
</g>
<g id="a1_0011"  >
<polygon locus_tag="DAB41473.1" id="dummy-1_h1_2_11" class="clusterblast-orf" description="&lt;b&gt;DAB41473.1&lt;/b&gt;&lt;br&gt;4-hydroxyphenylpyruvate dioxygenase&lt;br&gt;Location: 5297 - 4215" style="stroke:black; stroke-width:1; fill:white; " points="716,90 731,90 736,85 731,80 716,80 716,90 "  />
</g>
<g id="a1_0012"  >
<polygon locus_tag="DAB41472.1" id="dummy-1_h1_2_12" class="clusterblast-orf" description="&lt;b&gt;DAB41472.1&lt;/b&gt;&lt;br&gt;2-hydroxy-acid oxidase&lt;br&gt;Location: 4218 - 3115" style="stroke:black; stroke-width:1; fill:white; " points="735,90 751,90 756,85 751,80 735,80 735,90 "  />
</g>
<g id="a1_0013"  >
<polygon locus_tag="DAB41471.1" id="dummy-1_h1_2_13" class="clusterblast-orf" description="&lt;b&gt;DAB41471.1&lt;/b&gt;&lt;br&gt;hydroxyphenylglycine aminotransferase&lt;br&gt;Location: 3115 - 1796" style="stroke:black; stroke-width:1; fill:white; " points="756,90 775,90 780,85 775,80 756,80 756,90 "  />
</g>
</svg>
