<svg xmlns="http://www.w3.org/2000/svg" version="1.1" y="0" x="0" preserveAspectRatio="none" xmlns:xlink="http://www.w3.org/1999/xlink" viewBox="0 0 800 50" height="50" width="800"  >
<g label="Query sequence" class="clusterblast-cluster"  >
<text class="clusterblast-acc" y="20" x="5"  >
Query sequence</text>
<line x2="778.0" x1="10" y1="35" y2="35" style="stroke:grey; stroke-width:1; "  />
<polygon locus_tag="cds2_116" id="subclusterblast-1_q0_0_all" class="clusterblast-orf" description="&lt;b&gt;cds2_116&lt;/b&gt;&lt;br&gt;Malonyl CoA-acyl carrier protein transacylase (EC 2.3.1.39)&lt;br&gt;Location: 2 - 116" style="stroke:black; stroke-width:1; fill:white; " points="0,40 1,35 0,30 0,40 "  />
<polygon locus_tag="cds401_13154" id="subclusterblast-1_q1_0_all" class="clusterblast-orf" description="&lt;b&gt;cds401_13154&lt;/b&gt;&lt;br&gt;Modular polyketide synthase&lt;br&gt;Location: 401 - 13154" style="stroke:black; stroke-width:1; fill:white; " points="4,40 126,40 131,35 126,30 4,30 4,40 "  />
<polygon locus_tag="cds13397_29252" id="subclusterblast-1_q2_0_all" class="clusterblast-orf" description="&lt;b&gt;cds13397_29252&lt;/b&gt;&lt;br&gt;Modular polyketide synthase&lt;br&gt;Location: 13397 - 29252" style="stroke:black; stroke-width:1; fill:white; " points="134,40 288,40 293,35 288,30 134,30 134,40 "  />
<polygon locus_tag="cds29252_39518" id="subclusterblast-1_q3_0_all" class="clusterblast-orf" description="&lt;b&gt;cds29252_39518&lt;/b&gt;&lt;br&gt;Modular polyketide synthase&lt;br&gt;Location: 29252 - 39518" style="stroke:black; stroke-width:1; fill:white; " points="293,40 391,40 396,35 391,30 293,30 293,40 "  />
<polygon locus_tag="cds39822_55812" id="subclusterblast-1_q4_0_all" class="clusterblast-orf" description="&lt;b&gt;cds39822_55812&lt;/b&gt;&lt;br&gt;Modular polyketide synthase&lt;br&gt;Location: 39822 - 55812" style="stroke:black; stroke-width:1; fill:white; " points="399,40 554,40 559,35 554,30 399,30 399,40 "  />
<polygon locus_tag="cds55945_68806" id="subclusterblast-1_q5_0_all" class="clusterblast-orf" description="&lt;b&gt;cds55945_68806&lt;/b&gt;&lt;br&gt;Modular polyketide synthase&lt;br&gt;Location: 55945 - 68806" style="stroke:black; stroke-width:1; fill:white; " points="560,40 684,40 689,35 684,30 560,30 560,40 "  />
<polygon locus_tag="cds68876_70622" id="subclusterblast-1_q6_0_all" class="clusterblast-orf" description="&lt;b&gt;cds68876_70622&lt;/b&gt;&lt;br&gt;hypothetical protein&lt;br&gt;Location: 68876 - 70622" style="stroke:black; stroke-width:1; fill:white; " points="690,35 695,30 707,30 707,40 695,40 690,35 "  />
<polygon locus_tag="cds70873_72307" id="subclusterblast-1_q7_0_all" class="clusterblast-orf" description="&lt;b&gt;cds70873_72307&lt;/b&gt;&lt;br&gt;Long-chain-fatty-acid--CoA ligase (EC 6.2.1.3)&lt;br&gt;Location: 70873 - 72307" style="stroke:black; stroke-width:1; fill:white; " points="710,40 719,40 724,35 719,30 710,30 710,40 "  />
<polygon locus_tag="cds72421_73426" id="subclusterblast-1_q8_0_all" class="clusterblast-orf" description="&lt;b&gt;cds72421_73426&lt;/b&gt;&lt;br&gt;hypothetical protein&lt;br&gt;Location: 72421 - 73426" style="stroke:black; stroke-width:1; fill:white; " points="725,40 730,40 735,35 730,30 725,30 725,40 "  />
<polygon locus_tag="cds73425_74697" id="subclusterblast-1_q9_0_all" class="clusterblast-orf" description="&lt;b&gt;cds73425_74697&lt;/b&gt;&lt;br&gt;Putative cytochrome P450 hydroxylase&lt;br&gt;Location: 73425 - 74697" style="stroke:black; stroke-width:1; fill:white; " points="735,40 743,40 748,35 743,30 735,30 735,40 "  />
<polygon locus_tag="cds74799_75918" id="subclusterblast-1_q10_0_all" class="clusterblast-orf" description="&lt;b&gt;cds74799_75918&lt;/b&gt;&lt;br&gt;Agmatinase (EC 3.5.3.11)&lt;br&gt;Location: 74799 - 75918" style="stroke:black; stroke-width:1; fill:white; " points="749,40 755,40 760,35 755,30 749,30 749,40 "  />
<polygon locus_tag="cds76165_76909" id="subclusterblast-1_q11_0_all" class="clusterblast-orf" description="&lt;b&gt;cds76165_76909&lt;/b&gt;&lt;br&gt;thioesterase&lt;br&gt;Location: 76165 - 76909" style="stroke:black; stroke-width:1; fill:white; " points="763,40 765,40 770,35 765,30 763,30 763,40 "  />
<polygon locus_tag="cds77055_77256" id="subclusterblast-1_q12_0_all" class="clusterblast-orf" description="&lt;b&gt;cds77055_77256&lt;/b&gt;&lt;br&gt;hypothetical protein&lt;br&gt;Location: 77055 - 77256" style="stroke:black; stroke-width:1; fill:white; " points="772,35 774,30 774,40 772,35 "  />
<polygon locus_tag="cds77608_77839" id="subclusterblast-1_q13_0_all" class="clusterblast-orf" description="&lt;b&gt;cds77608_77839&lt;/b&gt;&lt;br&gt;hypothetical protein&lt;br&gt;Location: 77608 - 77839" style="stroke:black; stroke-width:1; fill:white; " points="777,40 780,35 777,30 777,40 "  />
</g>
</svg>
