<svg version="1.1" height="230" y="0" xmlns="http://www.w3.org/2000/svg" x="0" preserveAspectRatio="none" xmlns:xlink="http://www.w3.org/1999/xlink" width="800" viewBox="0 0 800 230"  >
<g class="clusterblast-cluster" label="Query sequence"  >
<text class="clusterblast-acc" y="20" x="5"  >
Query sequence</text>
<line x2="778.0" y1="35" x1="10" style="stroke:grey; stroke-width:1; " y2="35"  />
<polygon points="363,35 368,30 370,30 370,40 368,40 363,35 " locus_tag="cds2682_3498" id="dummy-1_q0_0_all" description="&lt;b&gt;cds2682_3498&lt;/b&gt;&lt;br&gt;Transcriptional regulator, AfsR family&lt;br&gt;Location: 2682 - 3498" style="stroke:black; fill:#d81515; stroke-width:1; " class="clusterblast-orf"  />
<polygon points="374,35 379,30 380,30 380,40 379,40 374,35 " locus_tag="cds3899_4532" id="dummy-1_q1_0_all" description="&lt;b&gt;cds3899_4532&lt;/b&gt;&lt;br&gt;Transcriptional regulator, AcrR family&lt;br&gt;Location: 3899 - 4532" style="stroke:black; fill:#15d863; stroke-width:1; " class="clusterblast-orf"  />
<polygon points="380,35 382,30 382,40 380,35 " locus_tag="cds4543_4732" id="dummy-1_q2_0_all" description="&lt;b&gt;cds4543_4732&lt;/b&gt;&lt;br&gt;Acetyl-coenzyme A carboxyl transferase alpha chain (EC 6.4.1.2) / Acetyl-coenzyme A carboxyl transferase beta chain (EC 6.4.1.2); Propionyl-CoA carboxylase beta chain (EC 6.4.1.3)&lt;br&gt;Location: 4543 - 4732" style="stroke:black; fill:#1563d8; stroke-width:1; " class="clusterblast-orf"  />
<polygon points="381,40 393,40 398,35 393,30 381,30 381,40 " locus_tag="cds4687_6469" id="dummy-1_q3_0_all" description="&lt;b&gt;cds4687_6469&lt;/b&gt;&lt;br&gt;hypothetical protein&lt;br&gt;Location: 4687 - 6469" style="stroke:black; fill:white; stroke-width:1; " class="clusterblast-orf"  />
<polygon points="401,40 406,40 411,35 406,30 401,30 401,40 " locus_tag="cds6841_7834" id="dummy-1_q4_0_all" description="&lt;b&gt;cds6841_7834&lt;/b&gt;&lt;br&gt;hypothetical protein&lt;br&gt;Location: 6841 - 7834" style="stroke:black; fill:#b115d8; stroke-width:1; " class="clusterblast-orf"  />
<polygon points="411,35 416,30 416,30 416,40 416,40 411,35 " locus_tag="cds7859_8459" id="dummy-1_q5_0_all" description="&lt;b&gt;cds7859_8459&lt;/b&gt;&lt;br&gt;hypothetical protein&lt;br&gt;Location: 7859 - 8459" style="stroke:black; fill:#b1d815; stroke-width:1; " class="clusterblast-orf"  />
</g>
<g description="NZ_KZ819184 (4102654-4188512): Streptomyces sp. CS207 scaffold00001, whole ge... (9% of genes show similarity), T2PKS,butyrolactone" class="clusterblast-cluster" label="NZ_KZ819184"  >
<text class="clusterblast-acc" y="70" x="5"  >
<a xlink:href="https://antismash-db.secondarymetabolites.org/area.html?record=NZ_KZ819184&amp;start=4102654&amp;end=4188512" target="_blank">NZ_KZ819184 (4102654-4188512)</a>: Streptomyces sp. CS207 scaffold00001, whole ge... (9% of genes show similarity), T2PKS,butyrolactone</text>
<line x2="778.0" y1="85" x1="10" style="stroke:grey; stroke-width:1; " y2="85"  />
</g>
<g id="a1_000"  >
<polygon points="0,90 1,90 6,85 1,80 0,80 0,90 " locus_tag="DBP22_RS19260" id="dummy-1_h1_3_0" description="&lt;b&gt;DBP22_RS19260&lt;/b&gt;&lt;br&gt;gamma-glutamyl-gamma-aminobutyrate hydrolase family protein&lt;br&gt;Location: 4187515 - 4186826" style="stroke:black; fill:white; stroke-width:1; " class="clusterblast-orf"  />
</g>
<g id="a1_001"  >
<polygon points="9,85 14,80 23,80 23,90 14,90 9,85 " locus_tag="DBP22_RS19255" id="dummy-1_h1_3_1" description="&lt;b&gt;DBP22_RS19255&lt;/b&gt;&lt;br&gt;NAD(P)-binding protein&lt;br&gt;Location: 4186524 - 4185007" style="stroke:black; fill:white; stroke-width:1; " class="clusterblast-orf"  />
</g>
<g id="a1_002"  >
<polygon points="23,85 28,80 32,80 32,90 28,90 23,85 " locus_tag="DBP22_RS19250" id="dummy-1_h1_3_2" description="&lt;b&gt;DBP22_RS19250&lt;/b&gt;&lt;br&gt;alpha/beta hydrolase&lt;br&gt;Location: 4184974 - 4183994" style="stroke:black; fill:white; stroke-width:1; " class="clusterblast-orf"  />
</g>
<g id="a1_003"  >
<polygon points="33,85 38,80 40,80 40,90 38,90 33,85 " locus_tag="DBP22_RS19245" id="dummy-1_h1_3_3" description="&lt;b&gt;DBP22_RS19245&lt;/b&gt;&lt;br&gt;NAD(P)H-binding protein&lt;br&gt;Location: 4183955 - 4183119&lt;br&gt;&lt;br&gt;&lt;b&gt;BlastP hit with cds7859_8459&lt;/b&gt;&lt;br&gt;Percentage identity: 34&lt;br&gt;Percentage coverage: 99&lt;br&gt;BLAST bit score: 86&lt;br&gt;E-value: 2.5e-15" style="stroke:black; fill:#b1d815; stroke-width:1; " class="clusterblast-orf"  />
</g>
<g id="a1_004"  >
<polygon points="42,85 47,80 56,80 56,90 47,90 42,85 " locus_tag="DBP22_RS19240" id="dummy-1_h1_3_4" description="&lt;b&gt;DBP22_RS19240&lt;/b&gt;&lt;br&gt;monooxygenase&lt;br&gt;Location: 4182930 - 4181470" style="stroke:black; fill:white; stroke-width:1; " class="clusterblast-orf"  />
</g>
<g id="a1_005"  >
<polygon points="60,85 65,80 73,80 73,90 65,90 60,85 " locus_tag="DBP22_RS19235" id="dummy-1_h1_3_5" description="&lt;b&gt;DBP22_RS19235&lt;/b&gt;&lt;br&gt;MFS transporter&lt;br&gt;Location: 4180987 - 4179560" style="stroke:black; fill:white; stroke-width:1; " class="clusterblast-orf"  />
</g>
<g id="a1_006"  >
<polygon points="75,85 80,80 82,80 82,90 80,90 75,85 " locus_tag="DBP22_RS19230" id="dummy-1_h1_3_6" description="&lt;b&gt;DBP22_RS19230&lt;/b&gt;&lt;br&gt;hemerythrin domain-containing protein&lt;br&gt;Location: 4179356 - 4178625" style="stroke:black; fill:white; stroke-width:1; " class="clusterblast-orf"  />
</g>
<g id="a1_007"  >
<polygon points="84,85 89,80 98,80 98,90 89,90 84,85 " locus_tag="DBP22_RS19225" id="dummy-1_h1_3_7" description="&lt;b&gt;DBP22_RS19225&lt;/b&gt;&lt;br&gt;MFS transporter&lt;br&gt;Location: 4178440 - 4176881" style="stroke:black; fill:white; stroke-width:1; " class="clusterblast-orf"  />
</g>
<g id="a1_008"  >
<polygon points="99,85 104,80 106,80 106,90 104,90 99,85 " locus_tag="DBP22_RS19220" id="dummy-1_h1_3_8" description="&lt;b&gt;DBP22_RS19220&lt;/b&gt;&lt;br&gt;response regulator transcription factor&lt;br&gt;Location: 4176843 - 4176076" style="stroke:black; fill:white; stroke-width:1; " class="clusterblast-orf"  />
</g>
<g id="a1_009"  >
<polygon points="108,85 111,80 111,90 108,85 " locus_tag="DBP22_RS19215" id="dummy-1_h1_3_9" description="&lt;b&gt;DBP22_RS19215&lt;/b&gt;&lt;br&gt;GNAT family N-acetyltransferase&lt;br&gt;Location: 4175900 - 4175496" style="stroke:black; fill:white; stroke-width:1; " class="clusterblast-orf"  />
</g>
<g id="a1_0010"  >
<polygon points="111,85 116,80 123,80 123,90 116,90 111,85 " locus_tag="DBP22_RS19210" id="dummy-1_h1_3_10" description="&lt;b&gt;DBP22_RS19210&lt;/b&gt;&lt;br&gt;adenylosuccinate lyase&lt;br&gt;Location: 4175512 - 4174226" style="stroke:black; fill:white; stroke-width:1; " class="clusterblast-orf"  />
</g>
<g id="a1_0011"  >
<polygon points="124,85 129,80 138,80 138,90 129,90 124,85 " locus_tag="DBP22_RS19205" id="dummy-1_h1_3_11" description="&lt;b&gt;DBP22_RS19205&lt;/b&gt;&lt;br&gt;glutamine synthetase&lt;br&gt;Location: 4174129 - 4172609" style="stroke:black; fill:white; stroke-width:1; " class="clusterblast-orf"  />
</g>
<g id="a1_0012"  >
<polygon points="138,85 143,80 151,80 151,90 143,90 138,85 " locus_tag="DBP22_RS19200" id="dummy-1_h1_3_12" description="&lt;b&gt;DBP22_RS19200&lt;/b&gt;&lt;br&gt;amidase&lt;br&gt;Location: 4172604 - 4171195" style="stroke:black; fill:white; stroke-width:1; " class="clusterblast-orf"  />
</g>
<g id="a1_0013"  >
<polygon points="152,85 157,80 171,80 171,90 157,90 152,85 " locus_tag="DBP22_RS19195" id="dummy-1_h1_3_13" description="&lt;b&gt;DBP22_RS19195&lt;/b&gt;&lt;br&gt;hypothetical protein&lt;br&gt;Location: 4171070 - 4169100" style="stroke:black; fill:white; stroke-width:1; " class="clusterblast-orf"  />
</g>
<g id="a1_0014"  >
<polygon points="171,85 174,80 174,90 171,85 " locus_tag="DBP22_RS19190" id="dummy-1_h1_3_14" description="&lt;b&gt;DBP22_RS19190&lt;/b&gt;&lt;br&gt;4Fe-4S ferredoxin&lt;br&gt;Location: 4169100 - 4168774" style="stroke:black; fill:white; stroke-width:1; " class="clusterblast-orf"  />
</g>
<g id="a1_0015"  >
<polygon points="175,85 180,80 189,80 189,90 180,90 175,85 " locus_tag="DBP22_RS19185" id="dummy-1_h1_3_15" description="&lt;b&gt;DBP22_RS19185&lt;/b&gt;&lt;br&gt;alkaline phosphatase family protein&lt;br&gt;Location: 4168643 - 4167180" style="stroke:black; fill:white; stroke-width:1; " class="clusterblast-orf"  />
</g>
<g id="a1_0016"  >
<polygon points="189,85 194,80 200,80 200,90 194,90 189,85 " locus_tag="DBP22_RS19180" id="dummy-1_h1_3_16" description="&lt;b&gt;DBP22_RS19180&lt;/b&gt;&lt;br&gt;metabolite traffic protein EboE&lt;br&gt;Location: 4167183 - 4166008" style="stroke:black; fill:white; stroke-width:1; " class="clusterblast-orf"  />
</g>
<g id="a1_0017"  >
<polygon points="200,85 205,80 208,80 208,90 205,90 200,85 " locus_tag="DBP22_RS19175" id="dummy-1_h1_3_17" description="&lt;b&gt;DBP22_RS19175&lt;/b&gt;&lt;br&gt;hydrolase TatD&lt;br&gt;Location: 4166004 - 4165129" style="stroke:black; fill:white; stroke-width:1; " class="clusterblast-orf"  />
</g>
<g id="a1_0018"  >
<polygon points="208,85 213,80 213,80 213,90 213,90 208,85 " locus_tag="DBP22_RS19170" id="dummy-1_h1_3_18" description="&lt;b&gt;DBP22_RS19170&lt;/b&gt;&lt;br&gt;sugar phosphate isomerase&lt;br&gt;Location: 4165127 - 4164528" style="stroke:black; fill:white; stroke-width:1; " class="clusterblast-orf"  />
</g>
<g id="a1_0019"  >
<polygon points="213,85 218,80 221,80 221,90 218,90 213,85 " locus_tag="DBP22_RS19165" id="dummy-1_h1_3_19" description="&lt;b&gt;DBP22_RS19165&lt;/b&gt;&lt;br&gt;TIM barrel protein&lt;br&gt;Location: 4164531 - 4163686" style="stroke:black; fill:white; stroke-width:1; " class="clusterblast-orf"  />
</g>
<g id="a1_0020"  >
<polygon points="221,85 226,80 230,80 230,90 226,90 221,85 " locus_tag="DBP22_RS19160" id="dummy-1_h1_3_20" description="&lt;b&gt;DBP22_RS19160&lt;/b&gt;&lt;br&gt;UbiA family prenyltransferase&lt;br&gt;Location: 4163689 - 4162733" style="stroke:black; fill:white; stroke-width:1; " class="clusterblast-orf"  />
</g>
<g id="a1_0021"  >
<polygon points="230,85 235,80 240,80 240,90 235,90 230,85 " locus_tag="DBP22_RS19155" id="dummy-1_h1_3_21" description="&lt;b&gt;DBP22_RS19155&lt;/b&gt;&lt;br&gt;myo-inositol-1-phosphate synthase&lt;br&gt;Location: 4162736 - 4161621" style="stroke:black; fill:white; stroke-width:1; " class="clusterblast-orf"  />
</g>
<g id="a1_0022"  >
<polygon points="243,85 248,80 253,80 253,90 248,90 243,85 " locus_tag="DBP22_RS19150" id="dummy-1_h1_3_22" description="&lt;b&gt;DBP22_RS19150&lt;/b&gt;&lt;br&gt;ScyD/ScyE family protein&lt;br&gt;Location: 4161370 - 4160255" style="stroke:black; fill:white; stroke-width:1; " class="clusterblast-orf"  />
</g>
<g id="a1_0023"  >
<polygon points="256,90 260,90 265,85 260,80 256,80 256,90 " locus_tag="DBP22_RS19145" id="dummy-1_h1_3_23" description="&lt;b&gt;DBP22_RS19145&lt;/b&gt;&lt;br&gt;hydroxyneurosporene methyltransferase&lt;br&gt;Location: 4159897 - 4158926" style="stroke:black; fill:white; stroke-width:1; " class="clusterblast-orf"  />
</g>
<g id="a1_0024"  >
<polygon points="267,85 272,80 281,80 281,90 272,90 267,85 " locus_tag="DBP22_RS19140" id="dummy-1_h1_3_24" description="&lt;b&gt;DBP22_RS19140&lt;/b&gt;&lt;br&gt;FAD-binding protein&lt;br&gt;Location: 4158730 - 4157216" style="stroke:black; fill:white; stroke-width:1; " class="clusterblast-orf"  />
</g>
<g id="a1_0025"  >
<polygon points="282,85 287,80 296,80 296,90 287,90 282,85 " locus_tag="DBP22_RS19135" id="dummy-1_h1_3_25" description="&lt;b&gt;DBP22_RS19135&lt;/b&gt;&lt;br&gt;FAD-dependent oxidoreductase&lt;br&gt;Location: 4157113 - 4155638" style="stroke:black; fill:white; stroke-width:1; " class="clusterblast-orf"  />
</g>
<g id="a1_0026"  >
<polygon points="296,85 301,80 305,80 305,90 301,90 296,85 " locus_tag="DBP22_RS19130" id="dummy-1_h1_3_26" description="&lt;b&gt;DBP22_RS19130&lt;/b&gt;&lt;br&gt;cyclase&lt;br&gt;Location: 4155634 - 4154690" style="stroke:black; fill:white; stroke-width:1; " class="clusterblast-orf"  />
</g>
<g id="a1_0027"  >
<polygon points="305,85 310,80 313,80 313,90 310,90 305,85 " locus_tag="DBP22_RS19125" id="dummy-1_h1_3_27" description="&lt;b&gt;DBP22_RS19125&lt;/b&gt;&lt;br&gt;SDR family NAD(P)-dependent oxidoreductase&lt;br&gt;Location: 4154649 - 4153861" style="stroke:black; fill:white; stroke-width:1; " class="clusterblast-orf"  />
</g>
<g id="a1_0028"  >
<polygon points="313,85 315,80 315,90 313,85 " locus_tag="DBP22_RS19120" id="dummy-1_h1_3_28" description="&lt;b&gt;DBP22_RS19120&lt;/b&gt;&lt;br&gt;acyl carrier protein&lt;br&gt;Location: 4153848 - 4153579" style="stroke:black; fill:white; stroke-width:1; " class="clusterblast-orf"  />
</g>
<g id="a1_0029"  >
<polygon points="316,85 321,80 327,80 327,90 321,90 316,85 " locus_tag="DBP22_RS19115" id="dummy-1_h1_3_29" description="&lt;b&gt;DBP22_RS19115&lt;/b&gt;&lt;br&gt;ketosynthase chain-length factor&lt;br&gt;Location: 4153512 - 4152301" style="stroke:black; fill:white; stroke-width:1; " class="clusterblast-orf"  />
</g>
<g id="a1_0030"  >
<polygon points="327,85 332,80 339,80 339,90 332,90 327,85 " locus_tag="DBP22_RS19110" id="dummy-1_h1_3_30" description="&lt;b&gt;DBP22_RS19110&lt;/b&gt;&lt;br&gt;beta-ketoacyl-[acyl-carrier-protein] synthase family protein&lt;br&gt;Location: 4152304 - 4151033" style="stroke:black; fill:white; stroke-width:1; " class="clusterblast-orf"  />
</g>
<g id="a1_0031"  >
<polygon points="339,85 342,80 342,90 339,85 " locus_tag="DBP22_RS19105" id="dummy-1_h1_3_31" description="&lt;b&gt;DBP22_RS19105&lt;/b&gt;&lt;br&gt;TcmI family type II polyketide cyclase&lt;br&gt;Location: 4151036 - 4150707" style="stroke:black; fill:white; stroke-width:1; " class="clusterblast-orf"  />
</g>
<g id="a1_0032"  >
<polygon points="344,85 349,80 351,80 351,90 349,90 344,85 " locus_tag="DBP22_RS19100" id="dummy-1_h1_3_32" description="&lt;b&gt;DBP22_RS19100&lt;/b&gt;&lt;br&gt;hypothetical protein&lt;br&gt;Location: 4150449 - 4149751" style="stroke:black; fill:white; stroke-width:1; " class="clusterblast-orf"  />
</g>
<g id="a1_0033"  >
<polygon points="351,85 356,80 365,80 365,90 356,90 351,85 " locus_tag="DBP22_RS19095" id="dummy-1_h1_3_33" description="&lt;b&gt;DBP22_RS19095&lt;/b&gt;&lt;br&gt;monooxygenase&lt;br&gt;Location: 4149694 - 4148222" style="stroke:black; fill:white; stroke-width:1; " class="clusterblast-orf"  />
</g>
<g id="a1_0034"  >
<polygon points="367,90 371,85 367,80 367,90 " locus_tag="DBP22_RS19090" id="dummy-1_h1_3_34" description="&lt;b&gt;DBP22_RS19090&lt;/b&gt;&lt;br&gt;nuclear transport factor 2 family protein&lt;br&gt;Location: 4148055 - 4147573" style="stroke:black; fill:white; stroke-width:1; " class="clusterblast-orf"  />
</g>
<g id="a1_0035"  >
<polygon points="373,85 377,80 377,90 373,85 " locus_tag="DBP22_RS19085" id="dummy-1_h1_3_35" description="&lt;b&gt;DBP22_RS19085&lt;/b&gt;&lt;br&gt;pyridoxamine 5'-phosphate oxidase&lt;br&gt;Location: 4147325 - 4146909" style="stroke:black; fill:white; stroke-width:1; " class="clusterblast-orf"  />
</g>
<g id="a1_0036"  >
<polygon points="380,85 381,80 381,90 380,85 " locus_tag="DBP22_RS30120" id="dummy-1_h1_3_36" description="&lt;b&gt;DBP22_RS30120&lt;/b&gt;&lt;br&gt;hypothetical protein&lt;br&gt;Location: 4146623 - 4146477" style="stroke:black; fill:white; stroke-width:1; " class="clusterblast-orf"  />
</g>
<g id="a1_0037"  >
<polygon points="382,85 387,80 395,80 395,90 387,90 382,85 " locus_tag="DBP22_RS19080" id="dummy-1_h1_3_37" description="&lt;b&gt;DBP22_RS19080&lt;/b&gt;&lt;br&gt;hypothetical protein&lt;br&gt;Location: 4146442 - 4144952" style="stroke:black; fill:white; stroke-width:1; " class="clusterblast-orf"  />
</g>
<g id="a1_0038"  >
<polygon points="397,85 402,80 405,80 405,90 402,90 397,85 " locus_tag="DBP22_RS19075" id="dummy-1_h1_3_38" description="&lt;b&gt;DBP22_RS19075&lt;/b&gt;&lt;br&gt;4'-phosphopantetheinyl transferase superfamily protein&lt;br&gt;Location: 4144747 - 4143938" style="stroke:black; fill:white; stroke-width:1; " class="clusterblast-orf"  />
</g>
<g id="a1_0039"  >
<polygon points="406,85 411,80 423,80 423,90 411,90 406,85 " locus_tag="DBP22_RS19070" id="dummy-1_h1_3_39" description="&lt;b&gt;DBP22_RS19070&lt;/b&gt;&lt;br&gt;acyl-CoA dehydrogenase&lt;br&gt;Location: 4143849 - 4141975" style="stroke:black; fill:white; stroke-width:1; " class="clusterblast-orf"  />
</g>
<g id="a1_0040"  >
<polygon points="423,85 428,80 431,80 431,90 428,90 423,85 " locus_tag="DBP22_RS19065" id="dummy-1_h1_3_40" description="&lt;b&gt;DBP22_RS19065&lt;/b&gt;&lt;br&gt;cyclase&lt;br&gt;Location: 4141978 - 4141094" style="stroke:black; fill:white; stroke-width:1; " class="clusterblast-orf"  />
</g>
<g id="a1_0041"  >
<polygon points="434,90 436,85 434,80 434,90 " locus_tag="DBP22_RS19060" id="dummy-1_h1_3_41" description="&lt;b&gt;DBP22_RS19060&lt;/b&gt;&lt;br&gt;hypothetical protein&lt;br&gt;Location: 4140780 - 4140544" style="stroke:black; fill:white; stroke-width:1; " class="clusterblast-orf"  />
</g>
<g id="a1_0042"  >
<polygon points="440,85 445,80 451,80 451,90 445,90 440,85 " locus_tag="DBP22_RS19055" id="dummy-1_h1_3_42" description="&lt;b&gt;DBP22_RS19055&lt;/b&gt;&lt;br&gt;ketosynthase chain-length factor&lt;br&gt;Location: 4140194 - 4138923" style="stroke:black; fill:white; stroke-width:1; " class="clusterblast-orf"  />
</g>
<g id="a1_0043"  >
<polygon points="451,85 456,80 463,80 463,90 456,90 451,85 " locus_tag="DBP22_RS19050" id="dummy-1_h1_3_43" description="&lt;b&gt;DBP22_RS19050&lt;/b&gt;&lt;br&gt;beta-ketoacyl-[acyl-carrier-protein] synthase family protein&lt;br&gt;Location: 4138926 - 4137655" style="stroke:black; fill:white; stroke-width:1; " class="clusterblast-orf"  />
</g>
<g id="a1_0044"  >
<polygon points="463,85 468,80 470,80 470,90 468,90 463,85 " locus_tag="DBP22_RS19045" id="dummy-1_h1_3_44" description="&lt;b&gt;DBP22_RS19045&lt;/b&gt;&lt;br&gt;thioesterase&lt;br&gt;Location: 4137658 - 4136879" style="stroke:black; fill:white; stroke-width:1; " class="clusterblast-orf"  />
</g>
<g id="a1_0045"  >
<polygon points="473,85 478,80 481,80 481,90 478,90 473,85 " locus_tag="DBP22_RS19040" id="dummy-1_h1_3_45" description="&lt;b&gt;DBP22_RS19040&lt;/b&gt;&lt;br&gt;AfsR/SARP family transcriptional regulator&lt;br&gt;Location: 4136621 - 4135800&lt;br&gt;&lt;br&gt;&lt;b&gt;BlastP hit with cds2682_3498&lt;/b&gt;&lt;br&gt;Percentage identity: 50&lt;br&gt;Percentage coverage: 97&lt;br&gt;BLAST bit score: 235&lt;br&gt;E-value: 7.8e-60" style="stroke:black; fill:#d81515; stroke-width:1; " class="clusterblast-orf"  />
</g>
<g id="a1_0046"  >
<polygon points="488,90 492,90 497,85 492,80 488,80 488,90 " locus_tag="DBP22_RS19035" id="dummy-1_h1_3_46" description="&lt;b&gt;DBP22_RS19035&lt;/b&gt;&lt;br&gt;AfsR/SARP family transcriptional regulator&lt;br&gt;Location: 4135003 - 4134062" style="stroke:black; fill:white; stroke-width:1; " class="clusterblast-orf"  />
</g>
<g id="a1_0047"  >
<polygon points="497,85 502,80 504,80 504,90 502,90 497,85 " locus_tag="DBP22_RS19030" id="dummy-1_h1_3_47" description="&lt;b&gt;DBP22_RS19030&lt;/b&gt;&lt;br&gt;AfsR/SARP family transcriptional regulator&lt;br&gt;Location: 4134046 - 4133231&lt;br&gt;&lt;br&gt;&lt;b&gt;BlastP hit with cds2682_3498&lt;/b&gt;&lt;br&gt;Percentage identity: 100&lt;br&gt;Percentage coverage: 100&lt;br&gt;BLAST bit score: 525&lt;br&gt;E-value: 2.9e-147" style="stroke:black; fill:#d81515; stroke-width:1; " class="clusterblast-orf"  />
</g>
<g id="a1_0048"  >
<polygon points="508,85 513,80 514,80 514,90 513,90 508,85 " locus_tag="DBP22_RS19025" id="dummy-1_h1_3_48" description="&lt;b&gt;DBP22_RS19025&lt;/b&gt;&lt;br&gt;helix-turn-helix transcriptional regulator&lt;br&gt;Location: 4132829 - 4132197&lt;br&gt;&lt;br&gt;&lt;b&gt;BlastP hit with cds3899_4532&lt;/b&gt;&lt;br&gt;Percentage identity: 100&lt;br&gt;Percentage coverage: 100&lt;br&gt;BLAST bit score: 415&lt;br&gt;E-value: 4.3e-114" style="stroke:black; fill:#15d863; stroke-width:1; " class="clusterblast-orf"  />
</g>
<g id="a1_0049"  >
<polygon points="514,85 519,80 529,80 529,90 519,90 514,85 " locus_tag="DBP22_RS19020" id="dummy-1_h1_3_49" description="&lt;b&gt;DBP22_RS19020&lt;/b&gt;&lt;br&gt;acyl-CoA carboxylase subunit beta&lt;br&gt;Location: 4132185 - 4130569&lt;br&gt;&lt;br&gt;&lt;b&gt;BlastP hit with cds4543_4732&lt;/b&gt;&lt;br&gt;Percentage identity: 98&lt;br&gt;Percentage coverage: 100&lt;br&gt;BLAST bit score: 125&lt;br&gt;E-value: 1.5e-27" style="stroke:black; fill:#1563d8; stroke-width:1; " class="clusterblast-orf"  />
</g>
<g id="a1_0050"  >
<polygon points="530,85 532,80 532,90 530,85 " locus_tag="DBP22_RS19015" id="dummy-1_h1_3_50" description="&lt;b&gt;DBP22_RS19015&lt;/b&gt;&lt;br&gt;acyl-CoA carboxylase subunit epsilon&lt;br&gt;Location: 4130465 - 4130259" style="stroke:black; fill:white; stroke-width:1; " class="clusterblast-orf"  />
</g>
<g id="a1_0051"  >
<polygon points="535,90 539,90 544,85 539,80 535,80 535,90 " locus_tag="DBP22_RS19010" id="dummy-1_h1_3_51" description="&lt;b&gt;DBP22_RS19010&lt;/b&gt;&lt;br&gt;hypothetical protein&lt;br&gt;Location: 4129962 - 4128970&lt;br&gt;&lt;br&gt;&lt;b&gt;BlastP hit with cds6841_7834&lt;/b&gt;&lt;br&gt;Percentage identity: 100&lt;br&gt;Percentage coverage: 100&lt;br&gt;BLAST bit score: 678&lt;br&gt;E-value: 3.3e-193" style="stroke:black; fill:#b115d8; stroke-width:1; " class="clusterblast-orf"  />
</g>
<g id="a1_0052"  >
<polygon points="544,85 549,80 552,80 552,90 549,90 544,85 " locus_tag="DBP22_RS19005" id="dummy-1_h1_3_52" description="&lt;b&gt;DBP22_RS19005&lt;/b&gt;&lt;br&gt;NAD(P)H-binding protein&lt;br&gt;Location: 4128937 - 4128092&lt;br&gt;&lt;br&gt;&lt;b&gt;BlastP hit with cds7859_8459&lt;/b&gt;&lt;br&gt;Percentage identity: 99&lt;br&gt;Percentage coverage: 100&lt;br&gt;BLAST bit score: 389&lt;br&gt;E-value: 1.4e-106" style="stroke:black; fill:#b1d815; stroke-width:1; " class="clusterblast-orf"  />
</g>
<g id="a1_0053"  >
<polygon points="554,90 555,90 560,85 555,80 554,80 554,90 " locus_tag="DBP22_RS19000" id="dummy-1_h1_3_53" description="&lt;b&gt;DBP22_RS19000&lt;/b&gt;&lt;br&gt;TetR/AcrR family transcriptional regulator&lt;br&gt;Location: 4127934 - 4127248" style="stroke:black; fill:white; stroke-width:1; " class="clusterblast-orf"  />
</g>
<g id="a1_0054"  >
<polygon points="565,90 570,90 575,85 570,80 565,80 565,90 " locus_tag="DBP22_RS18995" id="dummy-1_h1_3_54" description="&lt;b&gt;DBP22_RS18995&lt;/b&gt;&lt;br&gt;Gfo/Idh/MocA family oxidoreductase&lt;br&gt;Location: 4126709 - 4125609" style="stroke:black; fill:white; stroke-width:1; " class="clusterblast-orf"  />
</g>
<g id="a1_0055"  >
<polygon points="576,85 581,80 584,80 584,90 581,90 576,85 " locus_tag="DBP22_RS18990" id="dummy-1_h1_3_55" description="&lt;b&gt;DBP22_RS18990&lt;/b&gt;&lt;br&gt;IS5 family transposase&lt;br&gt;Location: 4125539 - 4124722" style="stroke:black; fill:white; stroke-width:1; " class="clusterblast-orf"  />
</g>
<g id="a1_0056"  >
<polygon points="592,85 597,80 597,80 597,90 597,90 592,85 " locus_tag="DBP22_RS18980" id="dummy-1_h1_3_56" description="&lt;b&gt;DBP22_RS18980&lt;/b&gt;&lt;br&gt;CbrC family protein&lt;br&gt;Location: 4123848 - 4123285" style="stroke:black; fill:white; stroke-width:1; " class="clusterblast-orf"  />
</g>
<g id="a1_0057"  >
<polygon points="598,85 603,80 621,80 621,90 603,90 598,85 " locus_tag="DBP22_RS18975" id="dummy-1_h1_3_57" description="&lt;b&gt;DBP22_RS18975&lt;/b&gt;&lt;br&gt;DEAD/DEAH box helicase family protein&lt;br&gt;Location: 4123119 - 4120735" style="stroke:black; fill:white; stroke-width:1; " class="clusterblast-orf"  />
</g>
<g id="a1_0058"  >
<polygon points="623,85 627,80 627,90 623,85 " locus_tag="DBP22_RS18970" id="dummy-1_h1_3_58" description="&lt;b&gt;DBP22_RS18970&lt;/b&gt;&lt;br&gt;fic family toxin-antitoxin system, toxin component&lt;br&gt;Location: 4120452 - 4120081" style="stroke:black; fill:white; stroke-width:1; " class="clusterblast-orf"  />
</g>
<g id="a1_0059"  >
<polygon points="627,85 629,80 629,90 627,85 " locus_tag="DBP22_RS18965" id="dummy-1_h1_3_59" description="&lt;b&gt;DBP22_RS18965&lt;/b&gt;&lt;br&gt;hypothetical protein&lt;br&gt;Location: 4120084 - 4119800" style="stroke:black; fill:white; stroke-width:1; " class="clusterblast-orf"  />
</g>
<g id="a1_0060"  >
<polygon points="633,90 640,90 645,85 640,80 633,80 633,90 " locus_tag="DBP22_RS18960" id="dummy-1_h1_3_60" description="&lt;b&gt;DBP22_RS18960&lt;/b&gt;&lt;br&gt;hypothetical protein&lt;br&gt;Location: 4119370 - 4118075" style="stroke:black; fill:white; stroke-width:1; " class="clusterblast-orf"  />
</g>
<g id="a1_0061"  >
<polygon points="650,90 652,90 657,85 652,80 650,80 650,90 " locus_tag="DBP22_RS18950" id="dummy-1_h1_3_61" description="&lt;b&gt;DBP22_RS18950&lt;/b&gt;&lt;br&gt;IS5 family transposase&lt;br&gt;Location: 4117601 - 4116784" style="stroke:black; fill:white; stroke-width:1; " class="clusterblast-orf"  />
</g>
<g id="a1_0062"  >
<polygon points="663,85 668,80 672,80 672,90 668,90 663,85 " locus_tag="DBP22_RS18945" id="dummy-1_h1_3_62" description="&lt;b&gt;DBP22_RS18945&lt;/b&gt;&lt;br&gt;hypothetical protein&lt;br&gt;Location: 4116200 - 4115178" style="stroke:black; fill:white; stroke-width:1; " class="clusterblast-orf"  />
</g>
<g id="a1_0063"  >
<polygon points="681,85 684,80 684,90 681,85 " locus_tag="DBP22_RS18940" id="dummy-1_h1_3_63" description="&lt;b&gt;DBP22_RS18940&lt;/b&gt;&lt;br&gt;helicase&lt;br&gt;Location: 4114225 - 4113963" style="stroke:black; fill:white; stroke-width:1; " class="clusterblast-orf"  />
</g>
<g id="a1_0064"  >
<polygon points="686,85 691,80 717,80 717,90 691,90 686,85 " locus_tag="DBP22_RS18935" id="dummy-1_h1_3_64" description="&lt;b&gt;DBP22_RS18935&lt;/b&gt;&lt;br&gt;RHS repeat protein&lt;br&gt;Location: 4113667 - 4110380" style="stroke:black; fill:white; stroke-width:1; " class="clusterblast-orf"  />
</g>
<g id="a1_0065"  >
<polygon points="725,90 730,90 735,85 730,80 725,80 725,90 " locus_tag="DBP22_RS18925" id="dummy-1_h1_3_65" description="&lt;b&gt;DBP22_RS18925&lt;/b&gt;&lt;br&gt;type I-E CRISPR-associated protein Cse1/CasA&lt;br&gt;Location: 4109512 - 4108409" style="stroke:black; fill:white; stroke-width:1; " class="clusterblast-orf"  />
</g>
<g id="a1_0066"  >
<polygon points="735,90 737,90 742,85 737,80 735,80 735,90 " locus_tag="DBP22_RS18920" id="dummy-1_h1_3_66" description="&lt;b&gt;DBP22_RS18920&lt;/b&gt;&lt;br&gt;type I-E CRISPR-associated protein Cse2/CasB&lt;br&gt;Location: 4108412 - 4107704" style="stroke:black; fill:white; stroke-width:1; " class="clusterblast-orf"  />
</g>
<g id="a1_0067"  >
<polygon points="742,90 748,90 753,85 748,80 742,80 742,90 " locus_tag="DBP22_RS18915" id="dummy-1_h1_3_67" description="&lt;b&gt;DBP22_RS18915&lt;/b&gt;&lt;br&gt;type I-E CRISPR-associated protein Cas7/Cse4/CasC&lt;br&gt;Location: 4107707 - 4106511" style="stroke:black; fill:white; stroke-width:1; " class="clusterblast-orf"  />
</g>
<g id="a1_0068"  >
<polygon points="753,90 755,90 760,85 755,80 753,80 753,90 " locus_tag="DBP22_RS18910" id="dummy-1_h1_3_68" description="&lt;b&gt;DBP22_RS18910&lt;/b&gt;&lt;br&gt;type I-E CRISPR-associated protein Cas5/CasD&lt;br&gt;Location: 4106514 - 4105771" style="stroke:black; fill:white; stroke-width:1; " class="clusterblast-orf"  />
</g>
<g id="a1_0069"  >
<polygon points="760,90 762,90 767,85 762,80 760,80 760,90 " locus_tag="DBP22_RS18905" id="dummy-1_h1_3_69" description="&lt;b&gt;DBP22_RS18905&lt;/b&gt;&lt;br&gt;type I-E CRISPR-associated protein Cas6/Cse3/CasE&lt;br&gt;Location: 4105771 - 4104983" style="stroke:black; fill:white; stroke-width:1; " class="clusterblast-orf"  />
</g>
<g id="a1_0070"  >
<polygon points="767,90 771,90 776,85 771,80 767,80 767,90 " locus_tag="DBP22_RS18900" id="dummy-1_h1_3_70" description="&lt;b&gt;DBP22_RS18900&lt;/b&gt;&lt;br&gt;type I-E CRISPR-associated endonuclease Cas1&lt;br&gt;Location: 4104986 - 4104018" style="stroke:black; fill:white; stroke-width:1; " class="clusterblast-orf"  />
</g>
<g id="a1_0071"  >
<polygon points="776,90 780,85 776,80 776,90 " locus_tag="DBP22_RS18895" id="dummy-1_h1_3_71" description="&lt;b&gt;DBP22_RS18895&lt;/b&gt;&lt;br&gt;type I-E CRISPR-associated endoribonuclease Cas2&lt;br&gt;Location: 4104021 - 4103659" style="stroke:black; fill:white; stroke-width:1; " class="clusterblast-orf"  />
</g>
</svg>
