<svg version="1.1" height="230" y="0" xmlns="http://www.w3.org/2000/svg" x="0" preserveAspectRatio="none" xmlns:xlink="http://www.w3.org/1999/xlink" width="800" viewBox="0 0 800 230"  >
<g class="clusterblast-cluster" label="Query sequence"  >
<text class="clusterblast-acc" y="20" x="5"  >
Query sequence</text>
<line x2="778.0" y1="35" x1="10" style="stroke:grey; stroke-width:1; " y2="35"  />
<polygon points="168,40 173,40 178,35 173,30 168,30 168,40 " locus_tag="cds72_759" id="dummy-1_q0_0_all" description="&lt;b&gt;cds72_759&lt;/b&gt;&lt;br&gt;Transcriptional regulator, AcrR family&lt;br&gt;Location: 72 - 759" style="stroke:black; fill:white; stroke-width:1; " class="clusterblast-orf"  />
<polygon points="178,40 180,35 178,30 178,40 " locus_tag="cds763_934" id="dummy-1_q1_0_all" description="&lt;b&gt;cds763_934&lt;/b&gt;&lt;br&gt;hypothetical protein&lt;br&gt;Location: 763 - 934" style="stroke:black; fill:white; stroke-width:1; " class="clusterblast-orf"  />
<polygon points="185,40 194,40 199,35 194,30 185,30 185,40 " locus_tag="cds1284_2385" id="dummy-1_q2_0_all" description="&lt;b&gt;cds1284_2385&lt;/b&gt;&lt;br&gt;oxidoreductase family protein&lt;br&gt;Location: 1284 - 2385" style="stroke:black; fill:white; stroke-width:1; " class="clusterblast-orf"  />
<polygon points="200,40 203,35 200,30 200,40 " locus_tag="cds2487_2685" id="dummy-1_q3_0_all" description="&lt;b&gt;cds2487_2685&lt;/b&gt;&lt;br&gt;Mobile element protein&lt;br&gt;Location: 2487 - 2685" style="stroke:black; fill:#d81515; stroke-width:1; " class="clusterblast-orf"  />
<polygon points="207,35 209,30 209,40 207,35 " locus_tag="cds2966_3107" id="dummy-1_q4_0_all" description="&lt;b&gt;cds2966_3107&lt;/b&gt;&lt;br&gt;hypothetical protein&lt;br&gt;Location: 2966 - 3107" style="stroke:black; fill:white; stroke-width:1; " class="clusterblast-orf"  />
<polygon points="211,35 215,30 215,40 211,35 " locus_tag="cds3267_3570" id="dummy-1_q5_0_all" description="&lt;b&gt;cds3267_3570&lt;/b&gt;&lt;br&gt;hypothetical protein&lt;br&gt;Location: 3267 - 3570" style="stroke:black; fill:#d81515; stroke-width:1; " class="clusterblast-orf"  />
<polygon points="216,40 221,40 226,35 221,30 216,30 216,40 " locus_tag="cds3686_4397" id="dummy-1_q6_0_all" description="&lt;b&gt;cds3686_4397&lt;/b&gt;&lt;br&gt;hypothetical protein&lt;br&gt;Location: 3686 - 4397" style="stroke:black; fill:white; stroke-width:1; " class="clusterblast-orf"  />
<polygon points="230,40 230,40 235,35 230,30 230,30 230,40 " locus_tag="cds4726_5059" id="dummy-1_q7_0_all" description="&lt;b&gt;cds4726_5059&lt;/b&gt;&lt;br&gt;hypothetical protein&lt;br&gt;Location: 4726 - 5059" style="stroke:black; fill:#5cd815; stroke-width:1; " class="clusterblast-orf"  />
<polygon points="235,35 239,30 239,40 235,35 " locus_tag="cds5084_5423" id="dummy-1_q8_0_all" description="&lt;b&gt;cds5084_5423&lt;/b&gt;&lt;br&gt;Mobile element protein&lt;br&gt;Location: 5084 - 5423" style="stroke:black; fill:#d81515; stroke-width:1; " class="clusterblast-orf"  />
<polygon points="244,35 249,30 249,30 249,40 249,40 244,35 " locus_tag="cds5763_6159" id="dummy-1_q9_0_all" description="&lt;b&gt;cds5763_6159&lt;/b&gt;&lt;br&gt;hypothetical protein&lt;br&gt;Location: 5763 - 6159" style="stroke:black; fill:#15a3d8; stroke-width:1; " class="clusterblast-orf"  />
<polygon points="249,35 254,30 254,30 254,40 254,40 249,35 " locus_tag="cds6155_6506" id="dummy-1_q10_0_all" description="&lt;b&gt;cds6155_6506&lt;/b&gt;&lt;br&gt;Protein tyrosine phosphatase (EC 3.1.3.48)&lt;br&gt;Location: 6155 - 6506" style="stroke:black; fill:#15a3d8; stroke-width:1; " class="clusterblast-orf"  />
<polygon points="255,35 260,30 281,30 281,40 260,40 255,35 " locus_tag="cds6597_8523" id="dummy-1_q11_0_all" description="&lt;b&gt;cds6597_8523&lt;/b&gt;&lt;br&gt;hypothetical protein&lt;br&gt;Location: 6597 - 8523" style="stroke:black; fill:#c715d8; stroke-width:1; " class="clusterblast-orf"  />
<polygon points="281,35 286,30 303,30 303,40 286,40 281,35 " locus_tag="cds8519_10214" id="dummy-1_q12_0_all" description="&lt;b&gt;cds8519_10214&lt;/b&gt;&lt;br&gt;Heterodimeric efflux ABC transporter, permease/ATP-binding subunit 1&lt;br&gt;Location: 8519 - 10214" style="stroke:black; fill:#d88015; stroke-width:1; " class="clusterblast-orf"  />
<polygon points="303,35 308,30 325,30 325,40 308,40 303,35 " locus_tag="cds10210_11890" id="dummy-1_q13_0_all" description="&lt;b&gt;cds10210_11890&lt;/b&gt;&lt;br&gt;hypothetical protein&lt;br&gt;Location: 10210 - 11890" style="stroke:black; fill:#15d839; stroke-width:1; " class="clusterblast-orf"  />
<polygon points="326,35 331,30 350,30 350,40 331,40 326,35 " locus_tag="cds11926_13750" id="dummy-1_q14_0_all" description="&lt;b&gt;cds11926_13750&lt;/b&gt;&lt;br&gt;hypothetical protein&lt;br&gt;Location: 11926 - 13750" style="stroke:black; fill:#1539d8; stroke-width:1; " class="clusterblast-orf"  />
<polygon points="350,35 355,30 373,30 373,40 355,40 350,35 " locus_tag="cds13746_15519" id="dummy-1_q15_0_all" description="&lt;b&gt;cds13746_15519&lt;/b&gt;&lt;br&gt;hypothetical protein&lt;br&gt;Location: 13746 - 15519" style="stroke:black; fill:#d81580; stroke-width:1; " class="clusterblast-orf"  />
<polygon points="374,35 379,30 386,30 386,40 379,40 374,35 " locus_tag="cds15550_16444" id="dummy-1_q16_0_all" description="&lt;b&gt;cds15550_16444&lt;/b&gt;&lt;br&gt;hypothetical protein&lt;br&gt;Location: 15550 - 16444" style="stroke:black; fill:#c7d815; stroke-width:1; " class="clusterblast-orf"  />
<polygon points="392,40 406,40 411,35 406,30 392,30 392,40 " locus_tag="cds16944_18369" id="dummy-1_q17_0_all" description="&lt;b&gt;cds16944_18369&lt;/b&gt;&lt;br&gt;Lysine 2,3-aminomutase (EC 5.4.3.2)&lt;br&gt;Location: 16944 - 18369" style="stroke:black; fill:#15d8a3; stroke-width:1; " class="clusterblast-orf"  />
<polygon points="412,40 422,40 427,35 422,30 412,30 412,40 " locus_tag="cds18424_19549" id="dummy-1_q18_0_all" description="&lt;b&gt;cds18424_19549&lt;/b&gt;&lt;br&gt;Aspartate aminotransferase (EC 2.6.1.1)&lt;br&gt;Location: 18424 - 19549" style="stroke:black; fill:#5c15d8; stroke-width:1; " class="clusterblast-orf"  />
<polygon points="427,40 427,40 432,35 427,30 427,30 427,40 " locus_tag="cds19545_19965" id="dummy-1_q19_0_all" description="&lt;b&gt;cds19545_19965&lt;/b&gt;&lt;br&gt;Long-chain-fatty-acid--CoA ligase (EC 6.2.1.3)&lt;br&gt;Location: 19545 - 19965" style="stroke:black; fill:#15d839; stroke-width:1; " class="clusterblast-orf"  />
<polygon points="432,40 434,35 432,30 432,40 " locus_tag="cds19961_20090" id="dummy-1_q20_0_all" description="&lt;b&gt;cds19961_20090&lt;/b&gt;&lt;br&gt;hypothetical protein&lt;br&gt;Location: 19961 - 20090" style="stroke:black; fill:white; stroke-width:1; " class="clusterblast-orf"  />
<polygon points="442,40 445,35 442,30 442,40 " locus_tag="cds20666_20924" id="dummy-1_q21_0_all" description="&lt;b&gt;cds20666_20924&lt;/b&gt;&lt;br&gt;hypothetical protein&lt;br&gt;Location: 20666 - 20924" style="stroke:black; fill:white; stroke-width:1; " class="clusterblast-orf"  />
<polygon points="447,35 448,30 448,40 447,35 " locus_tag="cds21046_21169" id="dummy-1_q22_0_all" description="&lt;b&gt;cds21046_21169&lt;/b&gt;&lt;br&gt;hypothetical protein&lt;br&gt;Location: 21046 - 21169" style="stroke:black; fill:white; stroke-width:1; " class="clusterblast-orf"  />
<polygon points="451,35 456,30 460,30 460,40 456,40 451,35 " locus_tag="cds21394_22075" id="dummy-1_q23_0_all" description="&lt;b&gt;cds21394_22075&lt;/b&gt;&lt;br&gt;hypothetical protein&lt;br&gt;Location: 21394 - 22075" style="stroke:black; fill:white; stroke-width:1; " class="clusterblast-orf"  />
<polygon points="461,35 465,30 465,40 461,35 " locus_tag="cds22083_22386" id="dummy-1_q24_0_all" description="&lt;b&gt;cds22083_22386&lt;/b&gt;&lt;br&gt;hypothetical protein&lt;br&gt;Location: 22083 - 22386" style="stroke:black; fill:white; stroke-width:1; " class="clusterblast-orf"  />
<polygon points="465,35 470,30 518,30 518,40 470,40 465,35 " locus_tag="cds22451_26396" id="dummy-1_q25_0_all" description="&lt;b&gt;cds22451_26396&lt;/b&gt;&lt;br&gt;hypothetical protein&lt;br&gt;Location: 22451 - 26396" style="stroke:black; fill:white; stroke-width:1; " class="clusterblast-orf"  />
<polygon points="518,40 524,40 529,35 524,30 518,30 518,40 " locus_tag="cds26429_27263" id="dummy-1_q26_0_all" description="&lt;b&gt;cds26429_27263&lt;/b&gt;&lt;br&gt;Mobile element protein&lt;br&gt;Location: 26429 - 27263" style="stroke:black; fill:white; stroke-width:1; " class="clusterblast-orf"  />
<polygon points="543,35 548,30 556,30 556,40 548,40 543,35 " locus_tag="cds28288_29251" id="dummy-1_q27_0_all" description="&lt;b&gt;cds28288_29251&lt;/b&gt;&lt;br&gt;putative secreted protein&lt;br&gt;Location: 28288 - 29251" style="stroke:black; fill:white; stroke-width:1; " class="clusterblast-orf"  />
<polygon points="556,40 568,40 573,35 568,30 556,30 556,40 " locus_tag="cds29268_30525" id="dummy-1_q28_0_all" description="&lt;b&gt;cds29268_30525&lt;/b&gt;&lt;br&gt;Transposase and inactivated derivatives, IS30 family&lt;br&gt;Location: 29268 - 30525" style="stroke:black; fill:white; stroke-width:1; " class="clusterblast-orf"  />
<polygon points="576,35 581,30 581,30 581,40 581,40 576,35 " locus_tag="cds30769_31174" id="dummy-1_q29_0_all" description="&lt;b&gt;cds30769_31174&lt;/b&gt;&lt;br&gt;FIG01129264: hypothetical protein&lt;br&gt;Location: 30769 - 31174" style="stroke:black; fill:white; stroke-width:1; " class="clusterblast-orf"  />
<polygon points="584,40 585,40 590,35 585,30 584,30 584,40 " locus_tag="cds31419_31842" id="dummy-1_q30_0_all" description="&lt;b&gt;cds31419_31842&lt;/b&gt;&lt;br&gt;hypothetical protein&lt;br&gt;Location: 31419 - 31842" style="stroke:black; fill:white; stroke-width:1; " class="clusterblast-orf"  />
<polygon points="591,40 596,40 601,35 596,30 591,30 591,40 " locus_tag="cds31913_32684" id="dummy-1_q31_0_all" description="&lt;b&gt;cds31913_32684&lt;/b&gt;&lt;br&gt;Putative transposase for insertion sequence element IS112&lt;br&gt;Location: 31913 - 32684" style="stroke:black; fill:white; stroke-width:1; " class="clusterblast-orf"  />
<polygon points="602,40 606,40 611,35 606,30 602,30 602,40 " locus_tag="cds32758_33409" id="dummy-1_q32_0_all" description="&lt;b&gt;cds32758_33409&lt;/b&gt;&lt;br&gt;hypothetical protein&lt;br&gt;Location: 32758 - 33409" style="stroke:black; fill:white; stroke-width:1; " class="clusterblast-orf"  />
</g>
<g description="NZ_JDUZ01000001 (986431-1045212): Streptomyces sp. PCS3-D2 isolate P1 scaffol... (18% of genes show similarity), NRPS" class="clusterblast-cluster" label="NZ_JDUZ01000001"  >
<text class="clusterblast-acc" y="70" x="5"  >
<a xlink:href="https://antismash-db.secondarymetabolites.org/area.html?record=NZ_JDUZ01000001&amp;start=986431&amp;end=1045212" target="_blank">NZ_JDUZ01000001 (986431-1045212)</a>: Streptomyces sp. PCS3-D2 isolate P1 scaffol... (18% of genes show similarity), NRPS</text>
<line x2="778.0" y1="85" x1="10" style="stroke:grey; stroke-width:1; " y2="85"  />
</g>
<g id="a1_000"  >
<polygon points="0,85 5,80 9,80 9,90 5,90 0,85 " locus_tag="AW27_RS04170" id="dummy-1_h1_10_0" description="&lt;b&gt;AW27_RS04170&lt;/b&gt;&lt;br&gt;pyridoxamine 5'-phosphate oxidase family protein&lt;br&gt;Location: 1045212 - 1044532" style="stroke:black; fill:white; stroke-width:1; " class="clusterblast-orf"  />
</g>
<g id="a1_001"  >
<polygon points="10,85 12,80 12,90 10,85 " locus_tag="AW27_RS35520" id="dummy-1_h1_10_1" description="&lt;b&gt;AW27_RS35520&lt;/b&gt;&lt;br&gt;hypothetical protein&lt;br&gt;Location: 1044448 - 1044287" style="stroke:black; fill:white; stroke-width:1; " class="clusterblast-orf"  />
</g>
<g id="a1_002"  >
<polygon points="14,90 28,90 33,85 28,80 14,80 14,90 " locus_tag="AW27_RS04165" id="dummy-1_h1_10_2" description="&lt;b&gt;AW27_RS04165&lt;/b&gt;&lt;br&gt;MBL fold metallo-hydrolase&lt;br&gt;Location: 1044111 - 1042684" style="stroke:black; fill:white; stroke-width:1; " class="clusterblast-orf"  />
</g>
<g id="a1_003"  >
<polygon points="34,85 39,80 45,80 45,90 39,90 34,85 " locus_tag="AW27_RS04160" id="dummy-1_h1_10_3" description="&lt;b&gt;AW27_RS04160&lt;/b&gt;&lt;br&gt;ABC transporter permease&lt;br&gt;Location: 1042614 - 1041793" style="stroke:black; fill:white; stroke-width:1; " class="clusterblast-orf"  />
</g>
<g id="a1_004"  >
<polygon points="45,85 50,80 57,80 57,90 50,90 45,85 " locus_tag="AW27_RS04155" id="dummy-1_h1_10_4" description="&lt;b&gt;AW27_RS04155&lt;/b&gt;&lt;br&gt;ABC transporter ATP-binding protein&lt;br&gt;Location: 1041796 - 1040876" style="stroke:black; fill:white; stroke-width:1; " class="clusterblast-orf"  />
</g>
<g id="a1_005"  >
<polygon points="60,90 86,90 91,85 86,80 60,80 60,90 " locus_tag="AW27_RS04150" id="dummy-1_h1_10_5" description="&lt;b&gt;AW27_RS04150&lt;/b&gt;&lt;br&gt;hypothetical protein&lt;br&gt;Location: 1040635 - 1038341" style="stroke:black; fill:white; stroke-width:1; " class="clusterblast-orf"  />
</g>
<g id="a1_006"  >
<polygon points="97,90 107,90 112,85 107,80 97,80 97,90 " locus_tag="AW27_RS04145" id="dummy-1_h1_10_6" description="&lt;b&gt;AW27_RS04145&lt;/b&gt;&lt;br&gt;hypothetical protein&lt;br&gt;Location: 1037840 - 1036752" style="stroke:black; fill:white; stroke-width:1; " class="clusterblast-orf"  />
</g>
<g id="a1_007"  >
<polygon points="121,90 122,90 127,85 122,80 121,80 121,90 " locus_tag="AW27_RS04140" id="dummy-1_h1_10_7" description="&lt;b&gt;AW27_RS04140&lt;/b&gt;&lt;br&gt;hypothetical protein&lt;br&gt;Location: 1036046 - 1035591" style="stroke:black; fill:white; stroke-width:1; " class="clusterblast-orf"  />
</g>
<g id="a1_008"  >
<polygon points="131,85 136,80 138,80 138,90 136,90 131,85 " locus_tag="AW27_RS33105" id="dummy-1_h1_10_8" description="&lt;b&gt;AW27_RS33105&lt;/b&gt;&lt;br&gt;hypothetical protein&lt;br&gt;Location: 1035266 - 1034742" style="stroke:black; fill:white; stroke-width:1; " class="clusterblast-orf"  />
</g>
<g id="a1_009"  >
<polygon points="138,85 143,80 150,80 150,90 143,90 138,85 " locus_tag="AW27_RS04130" id="dummy-1_h1_10_9" description="&lt;b&gt;AW27_RS04130&lt;/b&gt;&lt;br&gt;hypothetical protein&lt;br&gt;Location: 1034749 - 1033856" style="stroke:black; fill:white; stroke-width:1; " class="clusterblast-orf"  />
</g>
<g id="a1_0010"  >
<polygon points="151,85 153,80 153,90 151,85 " locus_tag="AW27_RS04125" id="dummy-1_h1_10_10" description="&lt;b&gt;AW27_RS04125&lt;/b&gt;&lt;br&gt;hypothetical protein&lt;br&gt;Location: 1033829 - 1033647" style="stroke:black; fill:white; stroke-width:1; " class="clusterblast-orf"  />
</g>
<g id="a1_0011"  >
<polygon points="154,85 159,80 160,80 160,90 159,90 154,85 " locus_tag="AW27_RS04120" id="dummy-1_h1_10_11" description="&lt;b&gt;AW27_RS04120&lt;/b&gt;&lt;br&gt;Asp23/Gls24 family envelope stress response protein&lt;br&gt;Location: 1033581 - 1033102" style="stroke:black; fill:white; stroke-width:1; " class="clusterblast-orf"  />
</g>
<g id="a1_0012"  >
<polygon points="163,90 165,90 170,85 165,80 163,80 163,90 " locus_tag="AW27_RS04115" id="dummy-1_h1_10_12" description="&lt;b&gt;AW27_RS04115&lt;/b&gt;&lt;br&gt;sigma-70 family RNA polymerase sigma factor&lt;br&gt;Location: 1032879 - 1032355" style="stroke:black; fill:white; stroke-width:1; " class="clusterblast-orf"  />
</g>
<g id="a1_0013"  >
<polygon points="170,90 173,90 178,85 173,80 170,80 170,90 " locus_tag="AW27_RS04110" id="dummy-1_h1_10_13" description="&lt;b&gt;AW27_RS04110&lt;/b&gt;&lt;br&gt;Asp23/Gls24 family envelope stress response protein&lt;br&gt;Location: 1032364 - 1031747" style="stroke:black; fill:white; stroke-width:1; " class="clusterblast-orf"  />
</g>
<g id="a1_0014"  >
<polygon points="178,90 178,90 183,85 178,80 178,80 178,90 " locus_tag="AW27_RS04105" id="dummy-1_h1_10_14" description="&lt;b&gt;AW27_RS04105&lt;/b&gt;&lt;br&gt;hypothetical protein&lt;br&gt;Location: 1031750 - 1031421" style="stroke:black; fill:white; stroke-width:1; " class="clusterblast-orf"  />
</g>
<g id="a1_0015"  >
<polygon points="186,85 191,80 191,80 191,90 191,90 186,85 " locus_tag="AW27_RS04100" id="dummy-1_h1_10_15" description="&lt;b&gt;AW27_RS04100&lt;/b&gt;&lt;br&gt;STAS domain-containing protein&lt;br&gt;Location: 1031154 - 1030774" style="stroke:black; fill:white; stroke-width:1; " class="clusterblast-orf"  />
</g>
<g id="a1_0016"  >
<polygon points="194,85 199,80 219,80 219,90 199,90 194,85 " locus_tag="AW27_RS04095" id="dummy-1_h1_10_16" description="&lt;b&gt;AW27_RS04095&lt;/b&gt;&lt;br&gt;ABC transporter ATP-binding protein&lt;br&gt;Location: 1030526 - 1028676&lt;br&gt;&lt;br&gt;&lt;b&gt;BlastP hit with cds6597_8523&lt;/b&gt;&lt;br&gt;Percentage identity: 85&lt;br&gt;Percentage coverage: 92&lt;br&gt;BLAST bit score: 935&lt;br&gt;E-value: 2.9e-270" style="stroke:black; fill:#c715d8; stroke-width:1; " class="clusterblast-orf"  />
</g>
<g id="a1_0017"  >
<polygon points="219,85 224,80 241,80 241,90 224,90 219,85 " locus_tag="AW27_RS04090" id="dummy-1_h1_10_17" description="&lt;b&gt;AW27_RS04090&lt;/b&gt;&lt;br&gt;ABC transporter ATP-binding protein&lt;br&gt;Location: 1028679 - 1026988&lt;br&gt;&lt;br&gt;&lt;b&gt;BlastP hit with cds8519_10214&lt;/b&gt;&lt;br&gt;Percentage identity: 79&lt;br&gt;Percentage coverage: 100&lt;br&gt;BLAST bit score: 804&lt;br&gt;E-value: 8.8e-231" style="stroke:black; fill:#d88015; stroke-width:1; " class="clusterblast-orf"  />
</g>
<g id="a1_0018"  >
<polygon points="241,85 246,80 262,80 262,90 246,90 241,85 " locus_tag="AW27_RS04085" id="dummy-1_h1_10_18" description="&lt;b&gt;AW27_RS04085&lt;/b&gt;&lt;br&gt;AMP-binding protein&lt;br&gt;Location: 1026991 - 1025393&lt;br&gt;&lt;br&gt;&lt;b&gt;BlastP hit with cds10210_11890&lt;/b&gt;&lt;br&gt;Percentage identity: 73&lt;br&gt;Percentage coverage: 100&lt;br&gt;BLAST bit score: 734&lt;br&gt;E-value: 6.5e-210" style="stroke:black; fill:#15d839; stroke-width:1; " class="clusterblast-orf"  />
</g>
<g id="a1_0019"  >
<polygon points="263,85 268,80 286,80 286,90 268,90 263,85 " locus_tag="AW27_RS04080" id="dummy-1_h1_10_19" description="&lt;b&gt;AW27_RS04080&lt;/b&gt;&lt;br&gt;hypothetical protein&lt;br&gt;Location: 1025360 - 1023603&lt;br&gt;&lt;br&gt;&lt;b&gt;BlastP hit with cds11926_13750&lt;/b&gt;&lt;br&gt;Percentage identity: 77&lt;br&gt;Percentage coverage: 90&lt;br&gt;BLAST bit score: 809&lt;br&gt;E-value: 2.2e-232" style="stroke:black; fill:#1539d8; stroke-width:1; " class="clusterblast-orf"  />
</g>
<g id="a1_0020"  >
<polygon points="286,85 291,80 309,80 309,90 291,90 286,85 " locus_tag="AW27_RS04075" id="dummy-1_h1_10_20" description="&lt;b&gt;AW27_RS04075&lt;/b&gt;&lt;br&gt;hypothetical protein&lt;br&gt;Location: 1023606 - 1021873&lt;br&gt;&lt;br&gt;&lt;b&gt;BlastP hit with cds13746_15519&lt;/b&gt;&lt;br&gt;Percentage identity: 89&lt;br&gt;Percentage coverage: 98&lt;br&gt;BLAST bit score: 1062&lt;br&gt;E-value: 1.9e-308" style="stroke:black; fill:#d81580; stroke-width:1; " class="clusterblast-orf"  />
</g>
<g id="a1_0021"  >
<polygon points="310,85 315,80 317,80 317,90 315,90 310,85 " locus_tag="AW27_RS04070" id="dummy-1_h1_10_21" description="&lt;b&gt;AW27_RS04070&lt;/b&gt;&lt;br&gt;hypothetical protein&lt;br&gt;Location: 1021803 - 1021297&lt;br&gt;&lt;br&gt;&lt;b&gt;BlastP hit with cds15550_16444&lt;/b&gt;&lt;br&gt;Percentage identity: 37&lt;br&gt;Percentage coverage: 99&lt;br&gt;BLAST bit score: 102&lt;br&gt;E-value: 8.7e-20" style="stroke:black; fill:#c7d815; stroke-width:1; " class="clusterblast-orf"  />
</g>
<g id="a1_0022"  >
<polygon points="325,90 338,90 343,85 338,80 325,80 325,90 " locus_tag="AW27_RS04065" id="dummy-1_h1_10_22" description="&lt;b&gt;AW27_RS04065&lt;/b&gt;&lt;br&gt;lysine 2,3-aminomutase&lt;br&gt;Location: 1020705 - 1019314&lt;br&gt;&lt;br&gt;&lt;b&gt;BlastP hit with cds16944_18369&lt;/b&gt;&lt;br&gt;Percentage identity: 87&lt;br&gt;Percentage coverage: 98&lt;br&gt;BLAST bit score: 880&lt;br&gt;E-value: 6.2e-254" style="stroke:black; fill:#15d8a3; stroke-width:1; " class="clusterblast-orf"  />
</g>
<g id="a1_0023"  >
<polygon points="343,90 354,90 359,85 354,80 343,80 343,90 " locus_tag="AW27_RS04060" id="dummy-1_h1_10_23" description="&lt;b&gt;AW27_RS04060&lt;/b&gt;&lt;br&gt;capreomycidine synthase&lt;br&gt;Location: 1019293 - 1018133&lt;br&gt;&lt;br&gt;&lt;b&gt;BlastP hit with cds18424_19549&lt;/b&gt;&lt;br&gt;Percentage identity: 87&lt;br&gt;Percentage coverage: 100&lt;br&gt;BLAST bit score: 664&lt;br&gt;E-value: 7.2e-189" style="stroke:black; fill:#5c15d8; stroke-width:1; " class="clusterblast-orf"  />
</g>
<g id="a1_0024"  >
<polygon points="359,90 378,90 383,85 378,80 359,80 359,90 " locus_tag="AW27_RS04055" id="dummy-1_h1_10_24" description="&lt;b&gt;AW27_RS04055&lt;/b&gt;&lt;br&gt;amino acid adenylation domain-containing protein&lt;br&gt;Location: 1018136 - 1016301&lt;br&gt;&lt;br&gt;&lt;b&gt;BlastP hit with cds10210_11890&lt;/b&gt;&lt;br&gt;Percentage identity: 31&lt;br&gt;Percentage coverage: 100&lt;br&gt;BLAST bit score: 182&lt;br&gt;E-value: 1.2e-43&lt;br&gt;&lt;br&gt;&lt;b&gt;BlastP hit with cds19545_19965&lt;/b&gt;&lt;br&gt;Percentage identity: 75&lt;br&gt;Percentage coverage: 58&lt;br&gt;BLAST bit score: 121&lt;br&gt;E-value: 6.5e-26" style="stroke:black; fill:#15d839; stroke-width:1; " class="clusterblast-orf"  />
</g>
<g id="a1_0025"  >
<polygon points="385,90 394,90 399,85 394,80 385,80 385,90 " locus_tag="AW27_RS04050" id="dummy-1_h1_10_25" description="&lt;b&gt;AW27_RS04050&lt;/b&gt;&lt;br&gt;arginine beta-hydroxylase, Fe(II)/alpha-ketoglutarate-dependent&lt;br&gt;Location: 1016174 - 1015140" style="stroke:black; fill:white; stroke-width:1; " class="clusterblast-orf"  />
</g>
<g id="a1_0026"  >
<polygon points="399,90 404,90 409,85 404,80 399,80 399,90 " locus_tag="AW27_RS04045" id="dummy-1_h1_10_26" description="&lt;b&gt;AW27_RS04045&lt;/b&gt;&lt;br&gt;hypothetical protein&lt;br&gt;Location: 1015132 - 1014383" style="stroke:black; fill:white; stroke-width:1; " class="clusterblast-orf"  />
</g>
<g id="a1_0027"  >
<polygon points="410,90 431,90 436,85 431,80 410,80 410,90 " locus_tag="AW27_RS04040" id="dummy-1_h1_10_27" description="&lt;b&gt;AW27_RS04040&lt;/b&gt;&lt;br&gt;NAD-dependent epimerase/dehydratase family protein&lt;br&gt;Location: 1014314 - 1012287" style="stroke:black; fill:white; stroke-width:1; " class="clusterblast-orf"  />
</g>
<g id="a1_0028"  >
<polygon points="436,90 441,90 446,85 441,80 436,80 436,90 " locus_tag="AW27_RS04035" id="dummy-1_h1_10_28" description="&lt;b&gt;AW27_RS04035&lt;/b&gt;&lt;br&gt;PIG-L family deacetylase&lt;br&gt;Location: 1012290 - 1011586" style="stroke:black; fill:white; stroke-width:1; " class="clusterblast-orf"  />
</g>
<g id="a1_0029"  >
<polygon points="446,90 457,90 462,85 457,80 446,80 446,90 " locus_tag="AW27_RS04030" id="dummy-1_h1_10_29" description="&lt;b&gt;AW27_RS04030&lt;/b&gt;&lt;br&gt;ATP-grasp domain-containing protein&lt;br&gt;Location: 1011593 - 1010361" style="stroke:black; fill:white; stroke-width:1; " class="clusterblast-orf"  />
</g>
<g id="a1_0030"  >
<polygon points="463,90 472,90 477,85 472,80 463,80 463,90 " locus_tag="AW27_RS04025" id="dummy-1_h1_10_30" description="&lt;b&gt;AW27_RS04025&lt;/b&gt;&lt;br&gt;glycosyltransferase family 2 protein&lt;br&gt;Location: 1010303 - 1009224" style="stroke:black; fill:white; stroke-width:1; " class="clusterblast-orf"  />
</g>
<g id="a1_0031"  >
<polygon points="477,85 482,80 499,80 499,90 482,90 477,85 " locus_tag="AW27_RS04020" id="dummy-1_h1_10_31" description="&lt;b&gt;AW27_RS04020&lt;/b&gt;&lt;br&gt;CocE/NonD family hydrolase&lt;br&gt;Location: 1009259 - 1007607" style="stroke:black; fill:white; stroke-width:1; " class="clusterblast-orf"  />
</g>
<g id="a1_0032"  >
<polygon points="499,90 514,90 519,85 514,80 499,80 499,90 " locus_tag="AW27_RS04015" id="dummy-1_h1_10_32" description="&lt;b&gt;AW27_RS04015&lt;/b&gt;&lt;br&gt;AMP-binding protein&lt;br&gt;Location: 1007605 - 1006100&lt;br&gt;&lt;br&gt;&lt;b&gt;BlastP hit with cds10210_11890&lt;/b&gt;&lt;br&gt;Percentage identity: 52&lt;br&gt;Percentage coverage: 100&lt;br&gt;BLAST bit score: 468&lt;br&gt;E-value: 1.1e-129" style="stroke:black; fill:#15d839; stroke-width:1; " class="clusterblast-orf"  />
</g>
<g id="a1_0033"  >
<polygon points="518,90 528,90 533,85 528,80 518,80 518,90 " locus_tag="AW27_RS04010" id="dummy-1_h1_10_33" description="&lt;b&gt;AW27_RS04010&lt;/b&gt;&lt;br&gt;phosphotransferase&lt;br&gt;Location: 1006103 - 1005045" style="stroke:black; fill:white; stroke-width:1; " class="clusterblast-orf"  />
</g>
<g id="a1_0034"  >
<polygon points="532,90 539,90 544,85 539,80 532,80 532,90 " locus_tag="AW27_RS04005" id="dummy-1_h1_10_34" description="&lt;b&gt;AW27_RS04005&lt;/b&gt;&lt;br&gt;alpha/beta fold hydrolase&lt;br&gt;Location: 1005081 - 1004182" style="stroke:black; fill:white; stroke-width:1; " class="clusterblast-orf"  />
</g>
<g id="a1_0035"  >
<polygon points="544,90 549,90 554,85 549,80 544,80 544,90 " locus_tag="AW27_RS04000" id="dummy-1_h1_10_35" description="&lt;b&gt;AW27_RS04000&lt;/b&gt;&lt;br&gt;hypothetical protein&lt;br&gt;Location: 1004192 - 1003440" style="stroke:black; fill:white; stroke-width:1; " class="clusterblast-orf"  />
</g>
<g id="a1_0036"  >
<polygon points="553,85 558,80 561,80 561,90 558,90 553,85 " locus_tag="AW27_RS03995" id="dummy-1_h1_10_36" description="&lt;b&gt;AW27_RS03995&lt;/b&gt;&lt;br&gt;GNAT family N-acetyltransferase&lt;br&gt;Location: 1003464 - 1002889" style="stroke:black; fill:white; stroke-width:1; " class="clusterblast-orf"  />
</g>
<g id="a1_0037"  >
<polygon points="563,85 568,80 569,80 569,90 568,90 563,85 " locus_tag="AW27_RS03990" id="dummy-1_h1_10_37" description="&lt;b&gt;AW27_RS03990&lt;/b&gt;&lt;br&gt;peroxiredoxin&lt;br&gt;Location: 1002748 - 1002266" style="stroke:black; fill:white; stroke-width:1; " class="clusterblast-orf"  />
</g>
<g id="a1_0038"  >
<polygon points="579,90 582,85 579,80 579,90 " locus_tag="AW27_RS03985" id="dummy-1_h1_10_38" description="&lt;b&gt;AW27_RS03985&lt;/b&gt;&lt;br&gt;chaplin&lt;br&gt;Location: 1001569 - 1001330" style="stroke:black; fill:white; stroke-width:1; " class="clusterblast-orf"  />
</g>
<g id="a1_0039"  >
<polygon points="590,85 595,80 601,80 601,90 595,90 590,85 " locus_tag="AW27_RS03980" id="dummy-1_h1_10_39" description="&lt;b&gt;AW27_RS03980&lt;/b&gt;&lt;br&gt;DUF4394 domain-containing protein&lt;br&gt;Location: 1000741 - 999872" style="stroke:black; fill:white; stroke-width:1; " class="clusterblast-orf"  />
</g>
<g id="a1_0040"  >
<polygon points="611,90 626,90 631,85 626,80 611,80 611,90 " locus_tag="AW27_RS03975" id="dummy-1_h1_10_40" description="&lt;b&gt;AW27_RS03975&lt;/b&gt;&lt;br&gt;DUF4331 domain-containing protein&lt;br&gt;Location: 999127 - 997613" style="stroke:black; fill:white; stroke-width:1; " class="clusterblast-orf"  />
</g>
<g id="a1_0041"  >
<polygon points="632,90 645,90 650,85 645,80 632,80 632,90 " locus_tag="AW27_RS03970" id="dummy-1_h1_10_41" description="&lt;b&gt;AW27_RS03970&lt;/b&gt;&lt;br&gt;hypothetical protein&lt;br&gt;Location: 997520 - 996189" style="stroke:black; fill:white; stroke-width:1; " class="clusterblast-orf"  />
</g>
<g id="a1_0042"  >
<polygon points="650,90 667,90 672,85 667,80 650,80 650,90 " locus_tag="AW27_RS03965" id="dummy-1_h1_10_42" description="&lt;b&gt;AW27_RS03965&lt;/b&gt;&lt;br&gt;sulfite exporter TauE/SafE family protein&lt;br&gt;Location: 996192 - 994513" style="stroke:black; fill:white; stroke-width:1; " class="clusterblast-orf"  />
</g>
<g id="a1_0043"  >
<polygon points="675,90 677,90 682,85 677,80 675,80 675,90 " locus_tag="AW27_RS03960" id="dummy-1_h1_10_43" description="&lt;b&gt;AW27_RS03960&lt;/b&gt;&lt;br&gt;tryptophan-rich sensory protein&lt;br&gt;Location: 994314 - 993805" style="stroke:black; fill:white; stroke-width:1; " class="clusterblast-orf"  />
</g>
<g id="a1_0044"  >
<polygon points="682,90 685,85 682,80 682,90 " locus_tag="AW27_RS35515" id="dummy-1_h1_10_44" description="&lt;b&gt;AW27_RS35515&lt;/b&gt;&lt;br&gt;hypothetical protein&lt;br&gt;Location: 993757 - 993590" style="stroke:black; fill:white; stroke-width:1; " class="clusterblast-orf"  />
</g>
<g id="a1_0045"  >
<polygon points="685,90 693,90 698,85 693,80 685,80 685,90 " locus_tag="AW27_RS03955" id="dummy-1_h1_10_45" description="&lt;b&gt;AW27_RS03955&lt;/b&gt;&lt;br&gt;GlxA family transcriptional regulator&lt;br&gt;Location: 993540 - 992560" style="stroke:black; fill:white; stroke-width:1; " class="clusterblast-orf"  />
</g>
<g id="a1_0046"  >
<polygon points="700,90 705,90 710,85 705,80 700,80 700,90 " locus_tag="AW27_RS03950" id="dummy-1_h1_10_46" description="&lt;b&gt;AW27_RS03950&lt;/b&gt;&lt;br&gt;MBL fold metallo-hydrolase&lt;br&gt;Location: 992445 - 991696" style="stroke:black; fill:white; stroke-width:1; " class="clusterblast-orf"  />
</g>
<g id="a1_0047"  >
<polygon points="714,85 719,80 721,80 721,90 719,90 714,85 " locus_tag="AW27_RS33900" id="dummy-1_h1_10_47" description="&lt;b&gt;AW27_RS33900&lt;/b&gt;&lt;br&gt;DUF664 domain-containing protein&lt;br&gt;Location: 991383 - 990830" style="stroke:black; fill:white; stroke-width:1; " class="clusterblast-orf"  />
</g>
<g id="a1_0048"  >
<polygon points="724,90 727,85 724,80 724,90 " locus_tag="AW27_RS03945" id="dummy-1_h1_10_48" description="&lt;b&gt;AW27_RS03945&lt;/b&gt;&lt;br&gt;hypothetical protein&lt;br&gt;Location: 990631 - 990353" style="stroke:black; fill:white; stroke-width:1; " class="clusterblast-orf"  />
</g>
<g id="a1_0049"  >
<polygon points="728,85 733,80 735,80 735,90 733,90 728,85 " locus_tag="AW27_RS03940" id="dummy-1_h1_10_49" description="&lt;b&gt;AW27_RS03940&lt;/b&gt;&lt;br&gt;carboxymuconolactone decarboxylase family protein&lt;br&gt;Location: 990295 - 989795" style="stroke:black; fill:white; stroke-width:1; " class="clusterblast-orf"  />
</g>
<g id="a1_0050"  >
<polygon points="736,90 744,90 749,85 744,80 736,80 736,90 " locus_tag="AW27_RS03935" id="dummy-1_h1_10_50" description="&lt;b&gt;AW27_RS03935&lt;/b&gt;&lt;br&gt;pirin family protein&lt;br&gt;Location: 989694 - 988744" style="stroke:black; fill:white; stroke-width:1; " class="clusterblast-orf"  />
</g>
<g id="a1_0051"  >
<polygon points="749,90 749,90 754,85 749,80 749,80 749,90 " locus_tag="AW27_RS03930" id="dummy-1_h1_10_51" description="&lt;b&gt;AW27_RS03930&lt;/b&gt;&lt;br&gt;N-acetyltransferase&lt;br&gt;Location: 988717 - 988370" style="stroke:black; fill:white; stroke-width:1; " class="clusterblast-orf"  />
</g>
<g id="a1_0052"  >
<polygon points="764,90 765,90 770,85 765,80 764,80 764,90 " locus_tag="AW27_RS03925" id="dummy-1_h1_10_52" description="&lt;b&gt;AW27_RS03925&lt;/b&gt;&lt;br&gt;hypothetical protein&lt;br&gt;Location: 987593 - 987147" style="stroke:black; fill:white; stroke-width:1; " class="clusterblast-orf"  />
</g>
<g id="a1_0053"  >
<polygon points="771,90 775,90 780,85 775,80 771,80 771,90 " locus_tag="AW27_RS03920" id="dummy-1_h1_10_53" description="&lt;b&gt;AW27_RS03920&lt;/b&gt;&lt;br&gt;DUF305 domain-containing protein&lt;br&gt;Location: 987067 - 986432" style="stroke:black; fill:white; stroke-width:1; " class="clusterblast-orf"  />
</g>
</svg>
