<svg version="1.1" height="230" y="0" xmlns="http://www.w3.org/2000/svg" x="0" preserveAspectRatio="none" xmlns:xlink="http://www.w3.org/1999/xlink" width="800" viewBox="0 0 800 230"  >
<g class="clusterblast-cluster" label="Query sequence"  >
<text class="clusterblast-acc" y="20" x="5"  >
Query sequence</text>
<line x2="778.0" y1="35" x1="10" style="stroke:grey; stroke-width:1; " y2="35"  />
<polygon points="174,40 177,40 182,35 177,30 174,30 174,40 " locus_tag="cds13045_14485" id="dummy-1_q0_0_all" description="&lt;b&gt;cds13045_14485&lt;/b&gt;&lt;br&gt;6-phosphogluconate dehydrogenase, decarboxylating (EC 1.1.1.44)&lt;br&gt;Location: 13045 - 14485" style="stroke:black; fill:white; stroke-width:1; " class="clusterblast-orf"  />
<polygon points="186,35 189,30 189,40 186,35 " locus_tag="cds15131_15809" id="dummy-1_q1_0_all" description="&lt;b&gt;cds15131_15809&lt;/b&gt;&lt;br&gt;uncharacterized protein SCO0976&lt;br&gt;Location: 15131 - 15809" style="stroke:black; fill:white; stroke-width:1; " class="clusterblast-orf"  />
<polygon points="189,35 191,30 191,40 189,35 " locus_tag="cds15843_16188" id="dummy-1_q2_0_all" description="&lt;b&gt;cds15843_16188&lt;/b&gt;&lt;br&gt;hypothetical protein&lt;br&gt;Location: 15843 - 16188" style="stroke:black; fill:white; stroke-width:1; " class="clusterblast-orf"  />
<polygon points="191,35 194,30 194,40 191,35 " locus_tag="cds16220_16640" id="dummy-1_q3_0_all" description="&lt;b&gt;cds16220_16640&lt;/b&gt;&lt;br&gt;Aspartate 1-decarboxylase (EC 4.1.1.11)&lt;br&gt;Location: 16220 - 16640" style="stroke:black; fill:white; stroke-width:1; " class="clusterblast-orf"  />
<polygon points="194,35 199,30 219,30 219,40 199,40 194,35 " locus_tag="cds16807_21505" id="dummy-1_q4_0_all" description="&lt;b&gt;cds16807_21505&lt;/b&gt;&lt;br&gt;helicase, C-terminal:DEAD/DEAH box helicase, N-terminal&lt;br&gt;Location: 16807 - 21505" style="stroke:black; fill:white; stroke-width:1; " class="clusterblast-orf"  />
<polygon points="220,35 225,30 236,30 236,40 225,40 220,35 " locus_tag="cds21620_24653" id="dummy-1_q5_0_all" description="&lt;b&gt;cds21620_24653&lt;/b&gt;&lt;br&gt;hypothetical protein&lt;br&gt;Location: 21620 - 24653" style="stroke:black; fill:white; stroke-width:1; " class="clusterblast-orf"  />
<polygon points="238,40 242,40 247,35 242,30 238,30 238,40 " locus_tag="cds24901_26626" id="dummy-1_q6_0_all" description="&lt;b&gt;cds24901_26626&lt;/b&gt;&lt;br&gt;RNA polymerase sigma factor RpoD&lt;br&gt;Location: 24901 - 26626" style="stroke:black; fill:white; stroke-width:1; " class="clusterblast-orf"  />
<polygon points="248,40 257,40 262,35 257,30 248,30 248,40 " locus_tag="cds26802_29388" id="dummy-1_q7_0_all" description="&lt;b&gt;cds26802_29388&lt;/b&gt;&lt;br&gt;hypothetical protein&lt;br&gt;Location: 26802 - 29388" style="stroke:black; fill:white; stroke-width:1; " class="clusterblast-orf"  />
<polygon points="265,40 266,35 265,30 265,40 " locus_tag="cds30113_30314" id="dummy-1_q8_0_all" description="&lt;b&gt;cds30113_30314&lt;/b&gt;&lt;br&gt;Small DUF397-containing protein&lt;br&gt;Location: 30113 - 30314" style="stroke:black; fill:white; stroke-width:1; " class="clusterblast-orf"  />
<polygon points="268,35 268,30 268,40 268,35 " locus_tag="cds30554_30674" id="dummy-1_q9_0_all" description="&lt;b&gt;cds30554_30674&lt;/b&gt;&lt;br&gt;hypothetical protein&lt;br&gt;Location: 30554 - 30674" style="stroke:black; fill:white; stroke-width:1; " class="clusterblast-orf"  />
<polygon points="270,40 274,35 270,30 270,40 " locus_tag="cds30994_31756" id="dummy-1_q10_0_all" description="&lt;b&gt;cds30994_31756&lt;/b&gt;&lt;br&gt;putative thioesterase&lt;br&gt;Location: 30994 - 31756" style="stroke:black; fill:#d81515; stroke-width:1; " class="clusterblast-orf"  />
<polygon points="275,40 307,40 312,35 307,30 275,30 275,40 " locus_tag="cds31983_38943" id="dummy-1_q11_0_all" description="&lt;b&gt;cds31983_38943&lt;/b&gt;&lt;br&gt;Modular polyketide synthase&lt;br&gt;Location: 31983 - 38943" style="stroke:black; fill:#5cd815; stroke-width:1; " class="clusterblast-orf"  />
<polygon points="312,40 342,40 347,35 342,30 312,30 312,40 " locus_tag="cds38908_45460" id="dummy-1_q12_0_all" description="&lt;b&gt;cds38908_45460&lt;/b&gt;&lt;br&gt;Modular polyketide synthase&lt;br&gt;Location: 38908 - 45460" style="stroke:black; fill:#5cd815; stroke-width:1; " class="clusterblast-orf"  />
<polygon points="347,40 354,40 359,35 354,30 347,30 347,40 " locus_tag="cds45456_47736" id="dummy-1_q13_0_all" description="&lt;b&gt;cds45456_47736&lt;/b&gt;&lt;br&gt;Modular polyketide synthase&lt;br&gt;Location: 45456 - 47736" style="stroke:black; fill:#5cd815; stroke-width:1; " class="clusterblast-orf"  />
<polygon points="359,40 360,40 365,35 360,30 359,30 359,40 " locus_tag="cds47723_48875" id="dummy-1_q14_0_all" description="&lt;b&gt;cds47723_48875&lt;/b&gt;&lt;br&gt;Modular polyketide synthase&lt;br&gt;Location: 47723 - 48875" style="stroke:black; fill:#5cd815; stroke-width:1; " class="clusterblast-orf"  />
<polygon points="367,35 372,30 383,30 383,40 372,40 367,35 " locus_tag="cds49206_52260" id="dummy-1_q15_0_all" description="&lt;b&gt;cds49206_52260&lt;/b&gt;&lt;br&gt;Modular polyketide synthase&lt;br&gt;Location: 49206 - 52260" style="stroke:black; fill:#5cd815; stroke-width:1; " class="clusterblast-orf"  />
<polygon points="384,35 389,30 413,30 413,40 389,40 384,35 " locus_tag="cds52463_57797" id="dummy-1_q16_0_all" description="&lt;b&gt;cds52463_57797&lt;/b&gt;&lt;br&gt;Modular polyketide synthase&lt;br&gt;Location: 52463 - 57797" style="stroke:black; fill:#5cd815; stroke-width:1; " class="clusterblast-orf"  />
<polygon points="413,35 418,30 428,30 428,40 418,40 413,35 " locus_tag="cds57783_60666" id="dummy-1_q17_0_all" description="&lt;b&gt;cds57783_60666&lt;/b&gt;&lt;br&gt;Modular polyketide synthase&lt;br&gt;Location: 57783 - 60666" style="stroke:black; fill:#5cd815; stroke-width:1; " class="clusterblast-orf"  />
<polygon points="429,35 434,30 441,30 441,40 434,40 429,35 " locus_tag="cds60838_63124" id="dummy-1_q18_0_all" description="&lt;b&gt;cds60838_63124&lt;/b&gt;&lt;br&gt;Modular polyketide synthase&lt;br&gt;Location: 60838 - 63124" style="stroke:black; fill:#5cd815; stroke-width:1; " class="clusterblast-orf"  />
<polygon points="441,40 443,35 441,30 441,40 " locus_tag="cds63118_63370" id="dummy-1_q19_0_all" description="&lt;b&gt;cds63118_63370&lt;/b&gt;&lt;br&gt;hypothetical protein&lt;br&gt;Location: 63118 - 63370" style="stroke:black; fill:white; stroke-width:1; " class="clusterblast-orf"  />
<polygon points="443,35 448,30 454,30 454,40 448,40 443,35 " locus_tag="cds63511_65497" id="dummy-1_q20_0_all" description="&lt;b&gt;cds63511_65497&lt;/b&gt;&lt;br&gt;Modular polyketide synthase&lt;br&gt;Location: 63511 - 65497" style="stroke:black; fill:#5cd815; stroke-width:1; " class="clusterblast-orf"  />
<polygon points="454,35 459,30 480,30 480,40 459,40 454,35 " locus_tag="cds65531_70370" id="dummy-1_q21_0_all" description="&lt;b&gt;cds65531_70370&lt;/b&gt;&lt;br&gt;Modular polyketide synthase&lt;br&gt;Location: 65531 - 70370" style="stroke:black; fill:#5cd815; stroke-width:1; " class="clusterblast-orf"  />
<polygon points="480,35 485,30 501,30 501,40 485,40 480,35 " locus_tag="cds70404_74247" id="dummy-1_q22_0_all" description="&lt;b&gt;cds70404_74247&lt;/b&gt;&lt;br&gt;Modular polyketide synthase&lt;br&gt;Location: 70404 - 74247" style="stroke:black; fill:#5cd815; stroke-width:1; " class="clusterblast-orf"  />
<polygon points="506,40 506,40 511,35 506,30 506,30 506,40 " locus_tag="cds75267_76173" id="dummy-1_q23_0_all" description="&lt;b&gt;cds75267_76173&lt;/b&gt;&lt;br&gt;hypothetical protein&lt;br&gt;Location: 75267 - 76173" style="stroke:black; fill:white; stroke-width:1; " class="clusterblast-orf"  />
<polygon points="514,35 519,30 520,30 520,40 519,40 514,35 " locus_tag="cds76698_77874" id="dummy-1_q24_0_all" description="&lt;b&gt;cds76698_77874&lt;/b&gt;&lt;br&gt;Aminotransferase, DegT/DnrJ/EryC1/StrS family&lt;br&gt;Location: 76698 - 77874" style="stroke:black; fill:#15a3d8; stroke-width:1; " class="clusterblast-orf"  />
<polygon points="521,40 524,40 529,35 524,30 521,30 521,40 " locus_tag="cds78119_79610" id="dummy-1_q25_0_all" description="&lt;b&gt;cds78119_79610&lt;/b&gt;&lt;br&gt;hypothetical protein&lt;br&gt;Location: 78119 - 79610" style="stroke:black; fill:#c715d8; stroke-width:1; " class="clusterblast-orf"  />
<polygon points="529,40 530,40 535,35 530,30 529,30 529,40 " locus_tag="cds79606_80626" id="dummy-1_q26_0_all" description="&lt;b&gt;cds79606_80626&lt;/b&gt;&lt;br&gt;Uncharacterized oxidoreductase YrpG&lt;br&gt;Location: 79606 - 80626" style="stroke:black; fill:#d88015; stroke-width:1; " class="clusterblast-orf"  />
<polygon points="535,40 535,40 540,35 535,30 535,30 535,40 " locus_tag="cds80619_81600" id="dummy-1_q27_0_all" description="&lt;b&gt;cds80619_81600&lt;/b&gt;&lt;br&gt;dTDP-glucose 4,6-dehydratase (EC 4.2.1.46)&lt;br&gt;Location: 80619 - 81600" style="stroke:black; fill:#15d839; stroke-width:1; " class="clusterblast-orf"  />
<polygon points="541,35 546,30 549,30 549,40 546,40 541,35 " locus_tag="cds81808_83365" id="dummy-1_q28_0_all" description="&lt;b&gt;cds81808_83365&lt;/b&gt;&lt;br&gt;Modular polyketide synthase&lt;br&gt;Location: 81808 - 83365" style="stroke:black; fill:#1539d8; stroke-width:1; " class="clusterblast-orf"  />
<polygon points="549,35 554,30 554,30 554,40 554,40 549,35 " locus_tag="cds83388_84351" id="dummy-1_q29_0_all" description="&lt;b&gt;cds83388_84351&lt;/b&gt;&lt;br&gt;Malonyl CoA-acyl carrier protein transacylase (EC 2.3.1.39)&lt;br&gt;Location: 83388 - 84351" style="stroke:black; fill:#d81580; stroke-width:1; " class="clusterblast-orf"  />
<polygon points="556,40 558,40 563,35 558,30 556,30 556,40 " locus_tag="cds84610_85894" id="dummy-1_q30_0_all" description="&lt;b&gt;cds84610_85894&lt;/b&gt;&lt;br&gt;hypothetical protein&lt;br&gt;Location: 84610 - 85894" style="stroke:black; fill:white; stroke-width:1; " class="clusterblast-orf"  />
<polygon points="563,40 567,35 563,30 563,40 " locus_tag="cds85890_86763" id="dummy-1_q31_0_all" description="&lt;b&gt;cds85890_86763&lt;/b&gt;&lt;br&gt;Glucose-1-phosphate thymidylyltransferase (EC 2.7.7.24)&lt;br&gt;Location: 85890 - 86763" style="stroke:black; fill:#c7d815; stroke-width:1; " class="clusterblast-orf"  />
<polygon points="568,40 571,40 576,35 571,30 568,30 568,40 " locus_tag="cds86877_88443" id="dummy-1_q32_0_all" description="&lt;b&gt;cds86877_88443&lt;/b&gt;&lt;br&gt;Uncharacterized MFS-type transporter&lt;br&gt;Location: 86877 - 88443" style="stroke:black; fill:white; stroke-width:1; " class="clusterblast-orf"  />
<polygon points="577,35 582,30 594,30 594,40 582,40 577,35 " locus_tag="cds88639_91843" id="dummy-1_q33_0_all" description="&lt;b&gt;cds88639_91843&lt;/b&gt;&lt;br&gt;Transcriptional regulator, AfsR family&lt;br&gt;Location: 88639 - 91843" style="stroke:black; fill:white; stroke-width:1; " class="clusterblast-orf"  />
<polygon points="594,35 599,30 602,30 602,40 599,40 594,35 " locus_tag="cds91847_93263" id="dummy-1_q34_0_all" description="&lt;b&gt;cds91847_93263&lt;/b&gt;&lt;br&gt;Similar to glutamate mutase subumit E&lt;br&gt;Location: 91847 - 93263" style="stroke:black; fill:#15d8a3; stroke-width:1; " class="clusterblast-orf"  />
<polygon points="602,35 605,30 605,40 602,35 " locus_tag="cds93259_93781" id="dummy-1_q35_0_all" description="&lt;b&gt;cds93259_93781&lt;/b&gt;&lt;br&gt;hypothetical protein&lt;br&gt;Location: 93259 - 93781" style="stroke:black; fill:#5c15d8; stroke-width:1; " class="clusterblast-orf"  />
</g>
<g description="BGC0001619_c1: ibomycin (25% of genes show similarity), Polyketide" class="clusterblast-cluster" label="BGC0001619"  >
<text class="clusterblast-acc" y="70" x="5"  >
<a xlink:href="https://mibig.secondarymetabolites.org/go/BGC0001619/1" target="_blank">BGC0001619</a>:                                                                         ibomycin (25% of genes show similarity), Polyketide</text>
<line x2="778.0" y1="85" x1="10" style="stroke:grey; stroke-width:1; " y2="85"  />
</g>
<g id="a1_000"  >
<polygon points="0,90 3,85 0,80 0,90 " locus_tag="AKA59111.1" id="dummy-1_h1_9_0" description="&lt;b&gt;AKA59111.1&lt;/b&gt;&lt;br&gt;hypothetical protein&lt;br&gt;Location: 301898 - 301212" style="stroke:black; fill:white; stroke-width:1; " class="clusterblast-orf"  />
</g>
<g id="a1_001"  >
<polygon points="4,90 4,90 9,85 4,80 4,80 4,90 " locus_tag="AKA59110.1" id="dummy-1_h1_9_1" description="&lt;b&gt;AKA59110.1&lt;/b&gt;&lt;br&gt;hypothetical protein&lt;br&gt;Location: 301053 - 300169" style="stroke:black; fill:white; stroke-width:1; " class="clusterblast-orf"  />
</g>
<g id="a1_002"  >
<polygon points="10,90 11,90 16,85 11,80 10,80 10,90 " locus_tag="AKA59109.1" id="dummy-1_h1_9_2" description="&lt;b&gt;AKA59109.1&lt;/b&gt;&lt;br&gt;endochitinase&lt;br&gt;Location: 299921 - 298818" style="stroke:black; fill:white; stroke-width:1; " class="clusterblast-orf"  />
</g>
<g id="a1_003"  >
<polygon points="18,90 20,85 18,80 18,90 " locus_tag="AKA59108.1" id="dummy-1_h1_9_3" description="&lt;b&gt;AKA59108.1&lt;/b&gt;&lt;br&gt;DNA-binding protein&lt;br&gt;Location: 298407 - 297970" style="stroke:black; fill:white; stroke-width:1; " class="clusterblast-orf"  />
</g>
<g id="a1_004"  >
<polygon points="21,85 25,80 25,90 21,85 " locus_tag="AKA59107.1" id="dummy-1_h1_9_4" description="&lt;b&gt;AKA59107.1&lt;/b&gt;&lt;br&gt;two-component system regulator&lt;br&gt;Location: 297843 - 297151" style="stroke:black; fill:white; stroke-width:1; " class="clusterblast-orf"  />
</g>
<g id="a1_005"  >
<polygon points="25,85 29,80 29,90 25,85 " locus_tag="AKA59106.1" id="dummy-1_h1_9_5" description="&lt;b&gt;AKA59106.1&lt;/b&gt;&lt;br&gt;LuxR-family transcriptional regulator&lt;br&gt;Location: 297035 - 296289" style="stroke:black; fill:white; stroke-width:1; " class="clusterblast-orf"  />
</g>
<g id="a1_006"  >
<polygon points="35,85 40,80 50,80 50,90 40,90 35,85 " locus_tag="AKA59105.1" id="dummy-1_h1_9_6" description="&lt;b&gt;AKA59105.1&lt;/b&gt;&lt;br&gt;LuxR-family transcriptional regulator&lt;br&gt;Location: 295309 - 292481" style="stroke:black; fill:white; stroke-width:1; " class="clusterblast-orf"  />
</g>
<g id="a1_007"  >
<polygon points="54,90 61,90 66,85 61,80 54,80 54,90 " locus_tag="AKA59104.1" id="dummy-1_h1_9_7" description="&lt;b&gt;AKA59104.1&lt;/b&gt;&lt;br&gt;LuxR-family transcriptional regulator&lt;br&gt;Location: 291716 - 289431" style="stroke:black; fill:white; stroke-width:1; " class="clusterblast-orf"  />
</g>
<g id="a1_008"  >
<polygon points="66,90 83,90 88,85 83,80 66,80 66,90 " locus_tag="AKV63202.1" id="dummy-1_h1_9_8" description="&lt;b&gt;AKV63202.1&lt;/b&gt;&lt;br&gt;hypothetical protein&lt;br&gt;Location: 289350 - 285352" style="stroke:black; fill:white; stroke-width:1; " class="clusterblast-orf"  />
</g>
<g id="a1_009"  >
<polygon points="92,85 93,80 93,90 92,85 " locus_tag="AKA59103.1" id="dummy-1_h1_9_9" description="&lt;b&gt;AKA59103.1&lt;/b&gt;&lt;br&gt;hypothetical protein&lt;br&gt;Location: 284522 - 284424" style="stroke:black; fill:white; stroke-width:1; " class="clusterblast-orf"  />
</g>
<g id="a1_0010"  >
<polygon points="93,85 98,80 99,80 99,90 98,90 93,85 " locus_tag="AKA59102.1" id="dummy-1_h1_9_10" description="&lt;b&gt;AKA59102.1&lt;/b&gt;&lt;br&gt;glycosyltransferase&lt;br&gt;Location: 284355 - 283159" style="stroke:black; fill:white; stroke-width:1; " class="clusterblast-orf"  />
</g>
<g id="a1_0011"  >
<polygon points="100,85 105,80 106,80 106,90 105,90 100,85 " locus_tag="AKA59101.1" id="dummy-1_h1_9_11" description="&lt;b&gt;AKA59101.1&lt;/b&gt;&lt;br&gt;glycosyltransferase&lt;br&gt;Location: 283079 - 281823" style="stroke:black; fill:white; stroke-width:1; " class="clusterblast-orf"  />
</g>
<g id="a1_0012"  >
<polygon points="106,85 111,80 112,80 112,90 111,90 106,85 " locus_tag="AKA59100.1" id="dummy-1_h1_9_12" description="&lt;b&gt;AKA59100.1&lt;/b&gt;&lt;br&gt;NDP-hexose-3-reductase&lt;br&gt;Location: 281836 - 280820" style="stroke:black; fill:white; stroke-width:1; " class="clusterblast-orf"  />
</g>
<g id="a1_0013"  >
<polygon points="113,85 118,80 120,80 120,90 118,90 113,85 " locus_tag="AKA59099.1" id="dummy-1_h1_9_13" description="&lt;b&gt;AKA59099.1&lt;/b&gt;&lt;br&gt;NDP-hexose-3-dehydratase&lt;br&gt;Location: 280686 - 279376" style="stroke:black; fill:white; stroke-width:1; " class="clusterblast-orf"  />
</g>
<g id="a1_0014"  >
<polygon points="120,85 125,80 126,80 126,90 125,90 120,85 " locus_tag="AKA59098.1" id="dummy-1_h1_9_14" description="&lt;b&gt;AKA59098.1&lt;/b&gt;&lt;br&gt;NDP-hexose 4-ketoreductase&lt;br&gt;Location: 279207 - 278251" style="stroke:black; fill:white; stroke-width:1; " class="clusterblast-orf"  />
</g>
<g id="a1_0015"  >
<polygon points="127,90 129,90 134,85 129,80 127,80 127,90 " locus_tag="AKA59097.1" id="dummy-1_h1_9_15" description="&lt;b&gt;AKA59097.1&lt;/b&gt;&lt;br&gt;glycosyltransferase&lt;br&gt;Location: 278027 - 276753" style="stroke:black; fill:white; stroke-width:1; " class="clusterblast-orf"  />
</g>
<g id="a1_0016"  >
<polygon points="134,85 137,80 137,90 134,85 " locus_tag="AKA59096.1" id="dummy-1_h1_9_16" description="&lt;b&gt;AKA59096.1&lt;/b&gt;&lt;br&gt;LuxR-family response regulator&lt;br&gt;Location: 276712 - 276062" style="stroke:black; fill:white; stroke-width:1; " class="clusterblast-orf"  />
</g>
<g id="a1_0017"  >
<polygon points="137,85 142,80 144,80 144,90 142,90 137,85 " locus_tag="AKA59095.1" id="dummy-1_h1_9_17" description="&lt;b&gt;AKA59095.1&lt;/b&gt;&lt;br&gt;sensor histidine kinase&lt;br&gt;Location: 276058 - 274790" style="stroke:black; fill:white; stroke-width:1; " class="clusterblast-orf"  />
</g>
<g id="a1_0018"  >
<polygon points="145,90 148,85 145,80 145,90 " locus_tag="AKA59094.1" id="dummy-1_h1_9_18" description="&lt;b&gt;AKA59094.1&lt;/b&gt;&lt;br&gt;hypothetical protein&lt;br&gt;Location: 274622 - 274110" style="stroke:black; fill:white; stroke-width:1; " class="clusterblast-orf"  />
</g>
<g id="a1_0019"  >
<polygon points="150,85 155,80 213,80 213,90 155,90 150,85 " locus_tag="AKA59093.1" id="dummy-1_h1_9_19" description="&lt;b&gt;AKA59093.1&lt;/b&gt;&lt;br&gt;type-I PKS&lt;br&gt;Location: 273732 - 261829&lt;br&gt;&lt;br&gt;&lt;b&gt;BlastP hit with cds38908_45460&lt;/b&gt;&lt;br&gt;Percentage identity: 48&lt;br&gt;Percentage coverage: 105&lt;br&gt;BLAST bit score: 1747&lt;br&gt;E-value: 0.0&lt;br&gt;&lt;br&gt;&lt;b&gt;BlastP hit with cds47723_48875&lt;/b&gt;&lt;br&gt;Percentage identity: 46&lt;br&gt;Percentage coverage: 78&lt;br&gt;BLAST bit score: 198&lt;br&gt;E-value: 1.9e-50&lt;br&gt;&lt;br&gt;&lt;b&gt;BlastP hit with cds49206_52260&lt;/b&gt;&lt;br&gt;Percentage identity: 47&lt;br&gt;Percentage coverage: 45&lt;br&gt;BLAST bit score: 336&lt;br&gt;E-value: 1.2e-91&lt;br&gt;&lt;br&gt;&lt;b&gt;BlastP hit with cds52463_57797&lt;/b&gt;&lt;br&gt;Percentage identity: 48&lt;br&gt;Percentage coverage: 105&lt;br&gt;BLAST bit score: 1443&lt;br&gt;E-value: 0.0&lt;br&gt;&lt;br&gt;&lt;b&gt;BlastP hit with cds57783_60666&lt;/b&gt;&lt;br&gt;Percentage identity: 57&lt;br&gt;Percentage coverage: 90&lt;br&gt;BLAST bit score: 894&lt;br&gt;E-value: 1.4e-259&lt;br&gt;&lt;br&gt;&lt;b&gt;BlastP hit with cds63511_65497&lt;/b&gt;&lt;br&gt;Percentage identity: 59&lt;br&gt;Percentage coverage: 100&lt;br&gt;BLAST bit score: 727&lt;br&gt;E-value: 1.6e-209&lt;br&gt;&lt;br&gt;&lt;b&gt;BlastP hit with cds65531_70370&lt;/b&gt;&lt;br&gt;Percentage identity: 50&lt;br&gt;Percentage coverage: 102&lt;br&gt;BLAST bit score: 1338&lt;br&gt;E-value: 0.0" style="stroke:black; fill:#5cd815; stroke-width:1; " class="clusterblast-orf"  />
</g>
<g id="a1_0020"  >
<polygon points="213,85 218,80 289,80 289,90 218,90 213,85 " locus_tag="AKA59092.1" id="dummy-1_h1_9_20" description="&lt;b&gt;AKA59092.1&lt;/b&gt;&lt;br&gt;type-I PKS&lt;br&gt;Location: 261832 - 247541&lt;br&gt;&lt;br&gt;&lt;b&gt;BlastP hit with cds52463_57797&lt;/b&gt;&lt;br&gt;Percentage identity: 52&lt;br&gt;Percentage coverage: 79&lt;br&gt;BLAST bit score: 1170&lt;br&gt;E-value: 0.0&lt;br&gt;&lt;br&gt;&lt;b&gt;BlastP hit with cds57783_60666&lt;/b&gt;&lt;br&gt;Percentage identity: 56&lt;br&gt;Percentage coverage: 91&lt;br&gt;BLAST bit score: 886&lt;br&gt;E-value: 3.9e-257&lt;br&gt;&lt;br&gt;&lt;b&gt;BlastP hit with cds63511_65497&lt;/b&gt;&lt;br&gt;Percentage identity: 59&lt;br&gt;Percentage coverage: 101&lt;br&gt;BLAST bit score: 737&lt;br&gt;E-value: 2e-212&lt;br&gt;&lt;br&gt;&lt;b&gt;BlastP hit with cds65531_70370&lt;/b&gt;&lt;br&gt;Percentage identity: 61&lt;br&gt;Percentage coverage: 42&lt;br&gt;BLAST bit score: 725&lt;br&gt;E-value: 2.5e-208" style="stroke:black; fill:#5cd815; stroke-width:1; " class="clusterblast-orf"  />
</g>
<g id="a1_0021"  >
<polygon points="289,85 294,80 395,80 395,90 294,90 289,85 " locus_tag="AKA59091.1" id="dummy-1_h1_9_21" description="&lt;b&gt;AKA59091.1&lt;/b&gt;&lt;br&gt;type-I PKS&lt;br&gt;Location: 247544 - 227769&lt;br&gt;&lt;br&gt;&lt;b&gt;BlastP hit with cds52463_57797&lt;/b&gt;&lt;br&gt;Percentage identity: 52&lt;br&gt;Percentage coverage: 76&lt;br&gt;BLAST bit score: 1121&lt;br&gt;E-value: 0.0&lt;br&gt;&lt;br&gt;&lt;b&gt;BlastP hit with cds57783_60666&lt;/b&gt;&lt;br&gt;Percentage identity: 58&lt;br&gt;Percentage coverage: 87&lt;br&gt;BLAST bit score: 879&lt;br&gt;E-value: 4.7e-255&lt;br&gt;&lt;br&gt;&lt;b&gt;BlastP hit with cds63511_65497&lt;/b&gt;&lt;br&gt;Percentage identity: 60&lt;br&gt;Percentage coverage: 101&lt;br&gt;BLAST bit score: 735&lt;br&gt;E-value: 5.8e-212&lt;br&gt;&lt;br&gt;&lt;b&gt;BlastP hit with cds70404_74247&lt;/b&gt;&lt;br&gt;Percentage identity: 47&lt;br&gt;Percentage coverage: 43&lt;br&gt;BLAST bit score: 433&lt;br&gt;E-value: 1.6e-120" style="stroke:black; fill:#5cd815; stroke-width:1; " class="clusterblast-orf"  />
</g>
<g id="a1_0022"  >
<polygon points="395,85 400,80 472,80 472,90 400,90 395,85 " locus_tag="AKA59090.1" id="dummy-1_h1_9_22" description="&lt;b&gt;AKA59090.1&lt;/b&gt;&lt;br&gt;type-I PKS&lt;br&gt;Location: 227694 - 213316&lt;br&gt;&lt;br&gt;&lt;b&gt;BlastP hit with cds52463_57797&lt;/b&gt;&lt;br&gt;Percentage identity: 52&lt;br&gt;Percentage coverage: 79&lt;br&gt;BLAST bit score: 1170&lt;br&gt;E-value: 0.0&lt;br&gt;&lt;br&gt;&lt;b&gt;BlastP hit with cds57783_60666&lt;/b&gt;&lt;br&gt;Percentage identity: 53&lt;br&gt;Percentage coverage: 88&lt;br&gt;BLAST bit score: 798&lt;br&gt;E-value: 1.1e-230&lt;br&gt;&lt;br&gt;&lt;b&gt;BlastP hit with cds60838_63124&lt;/b&gt;&lt;br&gt;Percentage identity: 46&lt;br&gt;Percentage coverage: 90&lt;br&gt;BLAST bit score: 470&lt;br&gt;E-value: 5.3e-132&lt;br&gt;&lt;br&gt;&lt;b&gt;BlastP hit with cds63511_65497&lt;/b&gt;&lt;br&gt;Percentage identity: 58&lt;br&gt;Percentage coverage: 99&lt;br&gt;BLAST bit score: 685&lt;br&gt;E-value: 9e-197" style="stroke:black; fill:#5cd815; stroke-width:1; " class="clusterblast-orf"  />
</g>
<g id="a1_0023"  >
<polygon points="530,85 535,80 610,80 610,90 535,90 530,85 " locus_tag="AKA59089.1" id="dummy-1_h1_9_23" description="&lt;b&gt;AKA59089.1&lt;/b&gt;&lt;br&gt;type-I PKS&lt;br&gt;Location: 202438 - 187340&lt;br&gt;&lt;br&gt;&lt;b&gt;BlastP hit with cds31983_38943&lt;/b&gt;&lt;br&gt;Percentage identity: 47&lt;br&gt;Percentage coverage: 90&lt;br&gt;BLAST bit score: 1443&lt;br&gt;E-value: 0.0&lt;br&gt;&lt;br&gt;&lt;b&gt;BlastP hit with cds52463_57797&lt;/b&gt;&lt;br&gt;Percentage identity: 51&lt;br&gt;Percentage coverage: 82&lt;br&gt;BLAST bit score: 1170&lt;br&gt;E-value: 0.0&lt;br&gt;&lt;br&gt;&lt;b&gt;BlastP hit with cds57783_60666&lt;/b&gt;&lt;br&gt;Percentage identity: 51&lt;br&gt;Percentage coverage: 96&lt;br&gt;BLAST bit score: 837&lt;br&gt;E-value: 1.6e-242&lt;br&gt;&lt;br&gt;&lt;b&gt;BlastP hit with cds63511_65497&lt;/b&gt;&lt;br&gt;Percentage identity: 59&lt;br&gt;Percentage coverage: 99&lt;br&gt;BLAST bit score: 695&lt;br&gt;E-value: 8.7e-200&lt;br&gt;&lt;br&gt;&lt;b&gt;BlastP hit with cds65531_70370&lt;/b&gt;&lt;br&gt;Percentage identity: 47&lt;br&gt;Percentage coverage: 110&lt;br&gt;BLAST bit score: 1267&lt;br&gt;E-value: 0.0" style="stroke:black; fill:#5cd815; stroke-width:1; " class="clusterblast-orf"  />
</g>
<g id="a1_0024"  >
<polygon points="610,85 615,80 675,80 675,90 615,90 610,85 " locus_tag="AKA59088.1" id="dummy-1_h1_9_24" description="&lt;b&gt;AKA59088.1&lt;/b&gt;&lt;br&gt;type-I PKS&lt;br&gt;Location: 187340 - 175191&lt;br&gt;&lt;br&gt;&lt;b&gt;BlastP hit with cds52463_57797&lt;/b&gt;&lt;br&gt;Percentage identity: 48&lt;br&gt;Percentage coverage: 81&lt;br&gt;BLAST bit score: 996&lt;br&gt;E-value: 6.4e-290&lt;br&gt;&lt;br&gt;&lt;b&gt;BlastP hit with cds57783_60666&lt;/b&gt;&lt;br&gt;Percentage identity: 49&lt;br&gt;Percentage coverage: 89&lt;br&gt;BLAST bit score: 717&lt;br&gt;E-value: 3.1e-206&lt;br&gt;&lt;br&gt;&lt;b&gt;BlastP hit with cds63511_65497&lt;/b&gt;&lt;br&gt;Percentage identity: 57&lt;br&gt;Percentage coverage: 95&lt;br&gt;BLAST bit score: 650&lt;br&gt;E-value: 2.5e-186" style="stroke:black; fill:#5cd815; stroke-width:1; " class="clusterblast-orf"  />
</g>
<g id="a1_0025"  >
<polygon points="677,85 682,80 684,80 684,90 682,90 677,85 " locus_tag="AKA59087.1" id="dummy-1_h1_9_25" description="&lt;b&gt;AKA59087.1&lt;/b&gt;&lt;br&gt;NDP-hexose 2,3-dehydratase&lt;br&gt;Location: 174776 - 173382&lt;br&gt;&lt;br&gt;&lt;b&gt;BlastP hit with cds78119_79610&lt;/b&gt;&lt;br&gt;Percentage identity: 50&lt;br&gt;Percentage coverage: 94&lt;br&gt;BLAST bit score: 426&lt;br&gt;E-value: 7.4e-119" style="stroke:black; fill:#c715d8; stroke-width:1; " class="clusterblast-orf"  />
</g>
<g id="a1_0026"  >
<polygon points="688,90 692,85 688,80 688,90 " locus_tag="AKA59086.1" id="dummy-1_h1_9_26" description="&lt;b&gt;AKA59086.1&lt;/b&gt;&lt;br&gt;thioesterase&lt;br&gt;Location: 172697 - 171942&lt;br&gt;&lt;br&gt;&lt;b&gt;BlastP hit with cds30994_31756&lt;/b&gt;&lt;br&gt;Percentage identity: 53&lt;br&gt;Percentage coverage: 95&lt;br&gt;BLAST bit score: 240&lt;br&gt;E-value: 3.8e-63" style="stroke:black; fill:#d81515; stroke-width:1; " class="clusterblast-orf"  />
</g>
<g id="a1_0027"  >
<polygon points="694,90 695,90 700,85 695,80 694,80 694,90 " locus_tag="AKA59085.1" id="dummy-1_h1_9_27" description="&lt;b&gt;AKA59085.1&lt;/b&gt;&lt;br&gt;glycosyltransferase&lt;br&gt;Location: 171643 - 170387" style="stroke:black; fill:white; stroke-width:1; " class="clusterblast-orf"  />
</g>
<g id="a1_0028"  >
<polygon points="700,90 701,90 706,85 701,80 700,80 700,90 " locus_tag="AKA59084.1" id="dummy-1_h1_9_28" description="&lt;b&gt;AKA59084.1&lt;/b&gt;&lt;br&gt;ABC transporter&lt;br&gt;Location: 170382 - 169399" style="stroke:black; fill:white; stroke-width:1; " class="clusterblast-orf"  />
</g>
<g id="a1_0029"  >
<polygon points="706,90 710,85 706,80 706,90 " locus_tag="AKA59083.1" id="dummy-1_h1_9_29" description="&lt;b&gt;AKA59083.1&lt;/b&gt;&lt;br&gt;ABC transporter&lt;br&gt;Location: 169402 - 168599" style="stroke:black; fill:white; stroke-width:1; " class="clusterblast-orf"  />
</g>
<g id="a1_0030"  >
<polygon points="712,85 717,80 721,80 721,90 717,90 712,85 " locus_tag="AKA59082.1" id="dummy-1_h1_9_30" description="&lt;b&gt;AKA59082.1&lt;/b&gt;&lt;br&gt;beta-N-acetylhexosaminidase&lt;br&gt;Location: 168209 - 166554" style="stroke:black; fill:white; stroke-width:1; " class="clusterblast-orf"  />
</g>
<g id="a1_0031"  >
<polygon points="722,90 724,90 729,85 724,80 722,80 722,90 " locus_tag="AKA59081.1" id="dummy-1_h1_9_31" description="&lt;b&gt;AKA59081.1&lt;/b&gt;&lt;br&gt;glycosyltransferase&lt;br&gt;Location: 166267 - 165053" style="stroke:black; fill:white; stroke-width:1; " class="clusterblast-orf"  />
</g>
<g id="a1_0032"  >
<polygon points="729,90 729,90 734,85 729,80 729,80 729,90 " locus_tag="AKA59080.1" id="dummy-1_h1_9_32" description="&lt;b&gt;AKA59080.1&lt;/b&gt;&lt;br&gt;NDP-glucose synthase&lt;br&gt;Location: 165045 - 164158&lt;br&gt;&lt;br&gt;&lt;b&gt;BlastP hit with cds85890_86763&lt;/b&gt;&lt;br&gt;Percentage identity: 69&lt;br&gt;Percentage coverage: 99&lt;br&gt;BLAST bit score: 396&lt;br&gt;E-value: 4.8e-110" style="stroke:black; fill:#c7d815; stroke-width:1; " class="clusterblast-orf"  />
</g>
<g id="a1_0033"  >
<polygon points="734,90 735,90 740,85 735,80 734,80 734,90 " locus_tag="AKA59079.1" id="dummy-1_h1_9_33" description="&lt;b&gt;AKA59079.1&lt;/b&gt;&lt;br&gt;glycosyltransferase&lt;br&gt;Location: 164161 - 162908" style="stroke:black; fill:white; stroke-width:1; " class="clusterblast-orf"  />
</g>
<g id="a1_0034"  >
<polygon points="740,90 742,90 747,85 742,80 740,80 740,90 " locus_tag="AKA59078.1" id="dummy-1_h1_9_34" description="&lt;b&gt;AKA59078.1&lt;/b&gt;&lt;br&gt;glycosyltransferase&lt;br&gt;Location: 162911 - 161688" style="stroke:black; fill:white; stroke-width:1; " class="clusterblast-orf"  />
</g>
<g id="a1_0035"  >
<polygon points="748,90 750,90 755,85 750,80 748,80 748,90 " locus_tag="AKA59077.1" id="dummy-1_h1_9_35" description="&lt;b&gt;AKA59077.1&lt;/b&gt;&lt;br&gt;cytochrome P450&lt;br&gt;Location: 161487 - 160216" style="stroke:black; fill:white; stroke-width:1; " class="clusterblast-orf"  />
</g>
<g id="a1_0036"  >
<polygon points="755,85 760,80 760,80 760,90 760,90 755,85 " locus_tag="AKA59076.1" id="dummy-1_h1_9_36" description="&lt;b&gt;AKA59076.1&lt;/b&gt;&lt;br&gt;NDP-glucose 4,6-dehydratase&lt;br&gt;Location: 160137 - 159175&lt;br&gt;&lt;br&gt;&lt;b&gt;BlastP hit with cds80619_81600&lt;/b&gt;&lt;br&gt;Percentage identity: 57&lt;br&gt;Percentage coverage: 96&lt;br&gt;BLAST bit score: 366&lt;br&gt;E-value: 3.5e-101" style="stroke:black; fill:#15d839; stroke-width:1; " class="clusterblast-orf"  />
</g>
<g id="a1_0037"  >
<polygon points="761,85 765,80 765,90 761,85 " locus_tag="AKA59075.1" id="dummy-1_h1_9_37" description="&lt;b&gt;AKA59075.1&lt;/b&gt;&lt;br&gt;4'-phosphopantetheinyl transferase&lt;br&gt;Location: 159086 - 158268" style="stroke:black; fill:white; stroke-width:1; " class="clusterblast-orf"  />
</g>
<g id="a1_0038"  >
<polygon points="765,85 770,80 770,80 770,90 770,90 765,85 " locus_tag="AKA59074.1" id="dummy-1_h1_9_38" description="&lt;b&gt;AKA59074.1&lt;/b&gt;&lt;br&gt;metallophosphoesterase&lt;br&gt;Location: 158193 - 157363" style="stroke:black; fill:white; stroke-width:1; " class="clusterblast-orf"  />
</g>
<g id="a1_0039"  >
<polygon points="776,90 780,85 776,80 776,90 " locus_tag="AKA59073.1" id="dummy-1_h1_9_39" description="&lt;b&gt;AKA59073.1&lt;/b&gt;&lt;br&gt;hydrolase&lt;br&gt;Location: 156227 - 155541" style="stroke:black; fill:white; stroke-width:1; " class="clusterblast-orf"  />
</g>
</svg>
