<svg version="1.1" height="230" y="0" xmlns="http://www.w3.org/2000/svg" x="0" preserveAspectRatio="none" xmlns:xlink="http://www.w3.org/1999/xlink" width="800" viewBox="0 0 800 230"  >
<g class="clusterblast-cluster" label="Query sequence"  >
<text class="clusterblast-acc" y="20" x="5"  >
Query sequence</text>
<line x2="778.0" y1="35" x1="10" style="stroke:grey; stroke-width:1; " y2="35"  />
<polygon points="271,40 284,40 289,35 284,30 271,30 271,40 " locus_tag="cds2_773" id="dummy-1_q0_0_all" description="&lt;b&gt;cds2_773&lt;/b&gt;&lt;br&gt;Thioesterase&lt;br&gt;Location: 2 - 773" style="stroke:black; fill:#d81515; stroke-width:1; " class="clusterblast-orf"  />
<polygon points="289,40 313,40 318,35 313,30 289,30 289,40 " locus_tag="cds769_2041" id="dummy-1_q1_0_all" description="&lt;b&gt;cds769_2041&lt;/b&gt;&lt;br&gt;3-oxoacyl-[acyl-carrier-protein] synthase, KASII (EC 2.3.1.179)&lt;br&gt;Location: 769 - 2041" style="stroke:black; fill:#15d863; stroke-width:1; " class="clusterblast-orf"  />
<polygon points="318,40 342,40 347,35 342,30 318,30 318,40 " locus_tag="cds2037_3303" id="dummy-1_q2_0_all" description="&lt;b&gt;cds2037_3303&lt;/b&gt;&lt;br&gt;Polyketide chain length factor WhiE-CLF paralog&lt;br&gt;Location: 2037 - 3303" style="stroke:black; fill:#1563d8; stroke-width:1; " class="clusterblast-orf"  />
<polygon points="355,35 360,30 360,30 360,40 360,40 355,35 " locus_tag="cds3674_3911" id="dummy-1_q3_0_all" description="&lt;b&gt;cds3674_3911&lt;/b&gt;&lt;br&gt;unknown hypothetical protein&lt;br&gt;Location: 3674 - 3911" style="stroke:black; fill:white; stroke-width:1; " class="clusterblast-orf"  />
<polygon points="367,40 383,40 388,35 383,30 367,30 367,40 " locus_tag="cds4188_5109" id="dummy-1_q4_0_all" description="&lt;b&gt;cds4188_5109&lt;/b&gt;&lt;br&gt;hypothetical protein&lt;br&gt;Location: 4188 - 5109" style="stroke:black; fill:white; stroke-width:1; " class="clusterblast-orf"  />
<polygon points="388,40 425,40 430,35 425,30 388,30 388,40 " locus_tag="cds5105_6947" id="dummy-1_q5_0_all" description="&lt;b&gt;cds5105_6947&lt;/b&gt;&lt;br&gt;hypothetical protein&lt;br&gt;Location: 5105 - 6947" style="stroke:black; fill:white; stroke-width:1; " class="clusterblast-orf"  />
<polygon points="432,40 445,40 450,35 445,30 432,30 432,40 " locus_tag="cds7035_7845" id="dummy-1_q6_0_all" description="&lt;b&gt;cds7035_7845&lt;/b&gt;&lt;br&gt;4'-phosphopantetheinyl transferase&lt;br&gt;Location: 7035 - 7845" style="stroke:black; fill:#b115d8; stroke-width:1; " class="clusterblast-orf"  />
<polygon points="455,40 484,40 489,35 484,30 455,30 455,40 " locus_tag="cds8049_9540" id="dummy-1_q7_0_all" description="&lt;b&gt;cds8049_9540&lt;/b&gt;&lt;br&gt;hypothetical protein&lt;br&gt;Location: 8049 - 9540" style="stroke:black; fill:white; stroke-width:1; " class="clusterblast-orf"  />
<polygon points="490,40 493,35 490,30 490,40 " locus_tag="cds9574_9721" id="dummy-1_q8_0_all" description="&lt;b&gt;cds9574_9721&lt;/b&gt;&lt;br&gt;hypothetical protein&lt;br&gt;Location: 9574 - 9721" style="stroke:black; fill:white; stroke-width:1; " class="clusterblast-orf"  />
<polygon points="499,40 503,40 508,35 503,30 499,30 499,40 " locus_tag="cds9963_10380" id="dummy-1_q9_0_all" description="&lt;b&gt;cds9963_10380&lt;/b&gt;&lt;br&gt;hypothetical protein&lt;br&gt;Location: 9963 - 10380" style="stroke:black; fill:#b1d815; stroke-width:1; " class="clusterblast-orf"  />
</g>
<g description="BGC0001904_c1: fluostatin (9% of genes show similarity), Polyketide" class="clusterblast-cluster" label="BGC0001904"  >
<text class="clusterblast-acc" y="70" x="5"  >
<a xlink:href="https://mibig.secondarymetabolites.org/go/BGC0001904/1" target="_blank">BGC0001904</a>:                                                                       fluostatin (9% of genes show similarity), Polyketide</text>
<line x2="778.0" y1="85" x1="10" style="stroke:grey; stroke-width:1; " y2="85"  />
</g>
<g id="a1_000"  >
<polygon points="0,90 10,90 15,85 10,80 0,80 0,90 " locus_tag="ALJ99879.1" id="dummy-1_h1_5_0" description="&lt;b&gt;ALJ99879.1&lt;/b&gt;&lt;br&gt;FlsR3&lt;br&gt;Location: 34103 - 33414" style="stroke:black; fill:white; stroke-width:1; " class="clusterblast-orf"  />
</g>
<g id="a1_001"  >
<polygon points="16,85 21,80 59,80 59,90 21,90 16,85 " locus_tag="ALJ99878.1" id="dummy-1_h1_5_1" description="&lt;b&gt;ALJ99878.1&lt;/b&gt;&lt;br&gt;FlsU2&lt;br&gt;Location: 33391 - 31523" style="stroke:black; fill:white; stroke-width:1; " class="clusterblast-orf"  />
</g>
<g id="a1_002"  >
<polygon points="58,85 63,80 67,80 67,90 63,90 58,85 " locus_tag="ALJ99877.1" id="dummy-1_h1_5_2" description="&lt;b&gt;ALJ99877.1&lt;/b&gt;&lt;br&gt;FlsV&lt;br&gt;Location: 31526 - 31140" style="stroke:black; fill:white; stroke-width:1; " class="clusterblast-orf"  />
</g>
<g id="a1_003"  >
<polygon points="69,85 74,80 104,80 104,90 74,90 69,85 " locus_tag="ALJ99876.1" id="dummy-1_h1_5_3" description="&lt;b&gt;ALJ99876.1&lt;/b&gt;&lt;br&gt;FlsN4&lt;br&gt;Location: 31077 - 29554" style="stroke:black; fill:white; stroke-width:1; " class="clusterblast-orf"  />
</g>
<g id="a1_004"  >
<polygon points="104,85 109,80 135,80 135,90 109,90 104,85 " locus_tag="ALJ99875.1" id="dummy-1_h1_5_4" description="&lt;b&gt;ALJ99875.1&lt;/b&gt;&lt;br&gt;FlsN3&lt;br&gt;Location: 29546 - 28167" style="stroke:black; fill:white; stroke-width:1; " class="clusterblast-orf"  />
</g>
<g id="a1_005"  >
<polygon points="141,90 165,90 170,85 165,80 141,80 141,90 " locus_tag="ALJ99874.1" id="dummy-1_h1_5_5" description="&lt;b&gt;ALJ99874.1&lt;/b&gt;&lt;br&gt;FlsS&lt;br&gt;Location: 27919 - 26645" style="stroke:black; fill:white; stroke-width:1; " class="clusterblast-orf"  />
</g>
<g id="a1_006"  >
<polygon points="170,90 174,90 179,85 174,80 170,80 170,90 " locus_tag="ALJ99873.1" id="dummy-1_h1_5_6" description="&lt;b&gt;ALJ99873.1&lt;/b&gt;&lt;br&gt;FlsT&lt;br&gt;Location: 26648 - 26247" style="stroke:black; fill:white; stroke-width:1; " class="clusterblast-orf"  />
</g>
<g id="a1_007"  >
<polygon points="179,85 184,80 198,80 198,90 184,90 179,85 " locus_tag="ALJ99872.1" id="dummy-1_h1_5_7" description="&lt;b&gt;ALJ99872.1&lt;/b&gt;&lt;br&gt;FlsN2&lt;br&gt;Location: 26257 - 25436" style="stroke:black; fill:white; stroke-width:1; " class="clusterblast-orf"  />
</g>
<g id="a1_008"  >
<polygon points="198,85 203,80 226,80 226,90 203,90 198,85 " locus_tag="ALJ99871.1" id="dummy-1_h1_5_8" description="&lt;b&gt;ALJ99871.1&lt;/b&gt;&lt;br&gt;FlsN1&lt;br&gt;Location: 25429 - 24218" style="stroke:black; fill:white; stroke-width:1; " class="clusterblast-orf"  />
</g>
<g id="a1_009"  >
<polygon points="234,90 252,90 257,85 252,80 234,80 234,90 " locus_tag="ALJ99870.1" id="dummy-1_h1_5_9" description="&lt;b&gt;ALJ99870.1&lt;/b&gt;&lt;br&gt;FlsR2&lt;br&gt;Location: 23863 - 22838" style="stroke:black; fill:white; stroke-width:1; " class="clusterblast-orf"  />
</g>
<g id="a1_0010"  >
<polygon points="258,90 287,90 292,85 287,80 258,80 258,90 " locus_tag="ALJ99869.1" id="dummy-1_h1_5_10" description="&lt;b&gt;ALJ99869.1&lt;/b&gt;&lt;br&gt;FlsO5&lt;br&gt;Location: 22791 - 21301" style="stroke:black; fill:white; stroke-width:1; " class="clusterblast-orf"  />
</g>
<g id="a1_0011"  >
<polygon points="292,90 305,90 310,85 305,80 292,80 292,90 " locus_tag="ALJ99868.1" id="dummy-1_h1_5_11" description="&lt;b&gt;ALJ99868.1&lt;/b&gt;&lt;br&gt;FlsQ2&lt;br&gt;Location: 21298 - 20543" style="stroke:black; fill:white; stroke-width:1; " class="clusterblast-orf"  />
</g>
<g id="a1_0012"  >
<polygon points="323,85 328,80 341,80 341,90 328,90 323,85 " locus_tag="ALJ99867.1" id="dummy-1_h1_5_12" description="&lt;b&gt;ALJ99867.1&lt;/b&gt;&lt;br&gt;FlsH&lt;br&gt;Location: 19946 - 19167" style="stroke:black; fill:white; stroke-width:1; " class="clusterblast-orf"  />
</g>
<g id="a1_0013"  >
<polygon points="347,90 365,90 370,85 365,80 347,80 347,90 " locus_tag="ALJ99866.1" id="dummy-1_h1_5_13" description="&lt;b&gt;ALJ99866.1&lt;/b&gt;&lt;br&gt;FlsM&lt;br&gt;Location: 18894 - 17887" style="stroke:black; fill:white; stroke-width:1; " class="clusterblast-orf"  />
</g>
<g id="a1_0014"  >
<polygon points="371,90 395,90 400,85 395,80 371,80 371,90 " locus_tag="ALJ99865.1" id="dummy-1_h1_5_14" description="&lt;b&gt;ALJ99865.1&lt;/b&gt;&lt;br&gt;FlsP&lt;br&gt;Location: 17840 - 16608" style="stroke:black; fill:white; stroke-width:1; " class="clusterblast-orf"  />
</g>
<g id="a1_0015"  >
<polygon points="405,90 434,90 439,85 434,80 405,80 405,90 " locus_tag="ALJ99864.1" id="dummy-1_h1_5_15" description="&lt;b&gt;ALJ99864.1&lt;/b&gt;&lt;br&gt;FlsO4&lt;br&gt;Location: 16391 - 14901" style="stroke:black; fill:white; stroke-width:1; " class="clusterblast-orf"  />
</g>
<g id="a1_0016"  >
<polygon points="440,90 453,90 458,85 453,80 440,80 440,90 " locus_tag="ALJ99863.1" id="dummy-1_h1_5_16" description="&lt;b&gt;ALJ99863.1&lt;/b&gt;&lt;br&gt;FlsQ1&lt;br&gt;Location: 14833 - 14063" style="stroke:black; fill:white; stroke-width:1; " class="clusterblast-orf"  />
</g>
<g id="a1_0017"  >
<polygon points="460,85 465,80 485,80 485,90 465,90 460,85 " locus_tag="ALJ99862.1" id="dummy-1_h1_5_17" description="&lt;b&gt;ALJ99862.1&lt;/b&gt;&lt;br&gt;FlsU1&lt;br&gt;Location: 13981 - 12878" style="stroke:black; fill:white; stroke-width:1; " class="clusterblast-orf"  />
</g>
<g id="a1_0018"  >
<polygon points="490,85 495,80 502,80 502,90 495,90 490,85 " locus_tag="ALJ99861.1" id="dummy-1_h1_5_18" description="&lt;b&gt;ALJ99861.1&lt;/b&gt;&lt;br&gt;FlsK&lt;br&gt;Location: 12678 - 12127" style="stroke:black; fill:white; stroke-width:1; " class="clusterblast-orf"  />
</g>
<g id="a1_0019"  >
<polygon points="504,85 509,80 520,80 520,90 509,90 504,85 " locus_tag="ALJ99860.1" id="dummy-1_h1_5_19" description="&lt;b&gt;ALJ99860.1&lt;/b&gt;&lt;br&gt;FlsG&lt;br&gt;Location: 12069 - 11356" style="stroke:black; fill:white; stroke-width:1; " class="clusterblast-orf"  />
</g>
<g id="a1_0020"  >
<polygon points="521,85 526,80 555,80 555,90 526,90 521,85 " locus_tag="ALJ99859.1" id="dummy-1_h1_5_20" description="&lt;b&gt;ALJ99859.1&lt;/b&gt;&lt;br&gt;FlsO1&lt;br&gt;Location: 11314 - 9821" style="stroke:black; fill:white; stroke-width:1; " class="clusterblast-orf"  />
</g>
<g id="a1_0021"  >
<polygon points="558,85 563,80 567,80 567,90 563,90 558,85 " locus_tag="ALJ99858.1" id="dummy-1_h1_5_21" description="&lt;b&gt;ALJ99858.1&lt;/b&gt;&lt;br&gt;FlsL&lt;br&gt;Location: 9695 - 9294&lt;br&gt;&lt;br&gt;&lt;b&gt;BlastP hit with cds9963_10380&lt;/b&gt;&lt;br&gt;Percentage identity: 61&lt;br&gt;Percentage coverage: 96&lt;br&gt;BLAST bit score: 151&lt;br&gt;E-value: 1.3e-36" style="stroke:black; fill:#b1d815; stroke-width:1; " class="clusterblast-orf"  />
</g>
<g id="a1_0022"  >
<polygon points="575,90 585,90 590,85 585,80 575,80 575,90 " locus_tag="ALJ99857.1" id="dummy-1_h1_5_22" description="&lt;b&gt;ALJ99857.1&lt;/b&gt;&lt;br&gt;FlsR1&lt;br&gt;Location: 8924 - 8298" style="stroke:black; fill:white; stroke-width:1; " class="clusterblast-orf"  />
</g>
<g id="a1_0023"  >
<polygon points="599,90 602,90 607,85 602,80 599,80 599,90 " locus_tag="ALJ99856.1" id="dummy-1_h1_5_23" description="&lt;b&gt;ALJ99856.1&lt;/b&gt;&lt;br&gt;FlsI&lt;br&gt;Location: 7895 - 7566" style="stroke:black; fill:white; stroke-width:1; " class="clusterblast-orf"  />
</g>
<g id="a1_0024"  >
<polygon points="606,90 630,90 635,85 630,80 606,80 606,90 " locus_tag="ALJ99855.1" id="dummy-1_h1_5_24" description="&lt;b&gt;ALJ99855.1&lt;/b&gt;&lt;br&gt;FlsA&lt;br&gt;Location: 7569 - 6301&lt;br&gt;&lt;br&gt;&lt;b&gt;BlastP hit with cds769_2041&lt;/b&gt;&lt;br&gt;Percentage identity: 64&lt;br&gt;Percentage coverage: 98&lt;br&gt;BLAST bit score: 511&lt;br&gt;E-value: 1.5e-144" style="stroke:black; fill:#15d863; stroke-width:1; " class="clusterblast-orf"  />
</g>
<g id="a1_0025"  >
<polygon points="635,90 659,90 664,85 659,80 635,80 635,90 " locus_tag="ALJ99854.1" id="dummy-1_h1_5_25" description="&lt;b&gt;ALJ99854.1&lt;/b&gt;&lt;br&gt;FlsB&lt;br&gt;Location: 6301 - 5063&lt;br&gt;&lt;br&gt;&lt;b&gt;BlastP hit with cds2037_3303&lt;/b&gt;&lt;br&gt;Percentage identity: 55&lt;br&gt;Percentage coverage: 95&lt;br&gt;BLAST bit score: 398&lt;br&gt;E-value: 1.1e-110" style="stroke:black; fill:#1563d8; stroke-width:1; " class="clusterblast-orf"  />
</g>
<g id="a1_0026"  >
<polygon points="665,90 666,90 671,85 666,80 665,80 665,90 " locus_tag="ALJ99853.1" id="dummy-1_h1_5_26" description="&lt;b&gt;ALJ99853.1&lt;/b&gt;&lt;br&gt;FlsC&lt;br&gt;Location: 5020 - 4745" style="stroke:black; fill:white; stroke-width:1; " class="clusterblast-orf"  />
</g>
<g id="a1_0027"  >
<polygon points="671,90 684,90 689,85 684,80 671,80 671,90 " locus_tag="ALJ99852.1" id="dummy-1_h1_5_27" description="&lt;b&gt;ALJ99852.1&lt;/b&gt;&lt;br&gt;FlsE&lt;br&gt;Location: 4731 - 3949" style="stroke:black; fill:white; stroke-width:1; " class="clusterblast-orf"  />
</g>
<g id="a1_0028"  >
<polygon points="690,90 707,90 712,85 707,80 690,80 690,90 " locus_tag="ALJ99851.1" id="dummy-1_h1_5_28" description="&lt;b&gt;ALJ99851.1&lt;/b&gt;&lt;br&gt;FlsD&lt;br&gt;Location: 3922 - 2972" style="stroke:black; fill:white; stroke-width:1; " class="clusterblast-orf"  />
</g>
<g id="a1_0029"  >
<polygon points="712,90 741,90 746,85 741,80 712,80 712,90 " locus_tag="ALJ99850.1" id="dummy-1_h1_5_29" description="&lt;b&gt;ALJ99850.1&lt;/b&gt;&lt;br&gt;FlsO3&lt;br&gt;Location: 2975 - 1482" style="stroke:black; fill:white; stroke-width:1; " class="clusterblast-orf"  />
</g>
<g id="a1_0030"  >
<polygon points="746,90 775,90 780,85 775,80 746,80 746,90 " locus_tag="ALJ99849.1" id="dummy-1_h1_5_30" description="&lt;b&gt;ALJ99849.1&lt;/b&gt;&lt;br&gt;FlsO2&lt;br&gt;Location: 1469 - 3" style="stroke:black; fill:white; stroke-width:1; " class="clusterblast-orf"  />
</g>
</svg>
