<svg version="1.1" height="230" y="0" xmlns="http://www.w3.org/2000/svg" x="0" preserveAspectRatio="none" xmlns:xlink="http://www.w3.org/1999/xlink" width="800" viewBox="0 0 800 230"  >
<g class="clusterblast-cluster" label="Query sequence"  >
<text class="clusterblast-acc" y="20" x="5"  >
Query sequence</text>
<line x2="778.0" y1="35" x1="10" style="stroke:grey; stroke-width:1; " y2="35"  />
<polygon points="368,35 373,30 374,30 374,40 373,40 368,35 " locus_tag="cds2682_3498" id="dummy-1_q0_0_all" description="&lt;b&gt;cds2682_3498&lt;/b&gt;&lt;br&gt;Transcriptional regulator, AfsR family&lt;br&gt;Location: 2682 - 3498" style="stroke:black; fill:#d81515; stroke-width:1; " class="clusterblast-orf"  />
<polygon points="377,35 382,30 382,30 382,40 382,40 377,35 " locus_tag="cds3899_4532" id="dummy-1_q1_0_all" description="&lt;b&gt;cds3899_4532&lt;/b&gt;&lt;br&gt;Transcriptional regulator, AcrR family&lt;br&gt;Location: 3899 - 4532" style="stroke:black; fill:#15d863; stroke-width:1; " class="clusterblast-orf"  />
<polygon points="382,35 383,30 383,40 382,35 " locus_tag="cds4543_4732" id="dummy-1_q2_0_all" description="&lt;b&gt;cds4543_4732&lt;/b&gt;&lt;br&gt;Acetyl-coenzyme A carboxyl transferase alpha chain (EC 6.4.1.2) / Acetyl-coenzyme A carboxyl transferase beta chain (EC 6.4.1.2); Propionyl-CoA carboxylase beta chain (EC 6.4.1.3)&lt;br&gt;Location: 4543 - 4732" style="stroke:black; fill:#1563d8; stroke-width:1; " class="clusterblast-orf"  />
<polygon points="383,40 391,40 396,35 391,30 383,30 383,40 " locus_tag="cds4687_6469" id="dummy-1_q3_0_all" description="&lt;b&gt;cds4687_6469&lt;/b&gt;&lt;br&gt;hypothetical protein&lt;br&gt;Location: 4687 - 6469" style="stroke:black; fill:white; stroke-width:1; " class="clusterblast-orf"  />
<polygon points="399,40 401,40 406,35 401,30 399,30 399,40 " locus_tag="cds6841_7834" id="dummy-1_q4_0_all" description="&lt;b&gt;cds6841_7834&lt;/b&gt;&lt;br&gt;hypothetical protein&lt;br&gt;Location: 6841 - 7834" style="stroke:black; fill:#b115d8; stroke-width:1; " class="clusterblast-orf"  />
<polygon points="407,35 411,30 411,40 407,35 " locus_tag="cds7859_8459" id="dummy-1_q5_0_all" description="&lt;b&gt;cds7859_8459&lt;/b&gt;&lt;br&gt;hypothetical protein&lt;br&gt;Location: 7859 - 8459" style="stroke:black; fill:#b1d815; stroke-width:1; " class="clusterblast-orf"  />
</g>
<g description="BGC0000459_c1: griseoviridin / fijimycin A (8% of genes show similarity), NRP:Cyclic depsipeptide + Polyketide:Trans-AT type I" class="clusterblast-cluster" label="BGC0000459"  >
<text class="clusterblast-acc" y="70" x="5"  >
<a xlink:href="https://mibig.secondarymetabolites.org/go/BGC0000459/1" target="_blank">BGC0000459</a>:                                                      griseoviridin / fijimycin A (8% of genes show similarity), NRP:Cyclic depsipeptide + Polyketide:Trans-AT type I</text>
<line x2="778.0" y1="85" x1="10" style="stroke:grey; stroke-width:1; " y2="85"  />
</g>
<g id="a1_000"  >
<polygon points="0,90 3,90 8,85 3,80 0,80 0,90 " locus_tag="AGN74872.1" id="dummy-1_h1_2_0" description="&lt;b&gt;AGN74872.1&lt;/b&gt;&lt;br&gt;SARP-type regulator&lt;br&gt;Location: 1 - 1167" style="stroke:black; fill:white; stroke-width:1; " class="clusterblast-orf"  />
</g>
<g id="a1_001"  >
<polygon points="9,85 14,80 21,80 21,90 14,90 9,85 " locus_tag="AGN74873.1" id="dummy-1_h1_2_1" description="&lt;b&gt;AGN74873.1&lt;/b&gt;&lt;br&gt;major facilitator transporter&lt;br&gt;Location: 1287 - 2879" style="stroke:black; fill:white; stroke-width:1; " class="clusterblast-orf"  />
</g>
<g id="a1_002"  >
<polygon points="23,85 28,80 32,80 32,90 28,90 23,85 " locus_tag="AGN74874.1" id="dummy-1_h1_2_2" description="&lt;b&gt;AGN74874.1&lt;/b&gt;&lt;br&gt;branched-chain amino acid aminotransferase&lt;br&gt;Location: 3197 - 4318" style="stroke:black; fill:white; stroke-width:1; " class="clusterblast-orf"  />
</g>
<g id="a1_003"  >
<polygon points="32,85 37,80 40,80 40,90 37,90 32,85 " locus_tag="AGN74875.1" id="dummy-1_h1_2_3" description="&lt;b&gt;AGN74875.1&lt;/b&gt;&lt;br&gt;methyltransferase&lt;br&gt;Location: 4387 - 5406" style="stroke:black; fill:white; stroke-width:1; " class="clusterblast-orf"  />
</g>
<g id="a1_004"  >
<polygon points="41,85 46,80 100,80 100,90 46,90 41,85 " locus_tag="AGN74876.1" id="dummy-1_h1_2_4" description="&lt;b&gt;AGN74876.1&lt;/b&gt;&lt;br&gt;nonribosomal peptide synthetase&lt;br&gt;Location: 5544 - 13460" style="stroke:black; fill:white; stroke-width:1; " class="clusterblast-orf"  />
</g>
<g id="a1_005"  >
<polygon points="102,90 103,90 108,85 103,80 102,80 102,90 " locus_tag="AGN74877.1" id="dummy-1_h1_2_5" description="&lt;b&gt;AGN74877.1&lt;/b&gt;&lt;br&gt;type ii thioestrerase&lt;br&gt;Location: 13782 - 14528" style="stroke:black; fill:white; stroke-width:1; " class="clusterblast-orf"  />
</g>
<g id="a1_006"  >
<polygon points="108,85 113,80 116,80 116,90 113,90 108,85 " locus_tag="AGN74878.1" id="dummy-1_h1_2_6" description="&lt;b&gt;AGN74878.1&lt;/b&gt;&lt;br&gt;flavin-dependent oxidoreductase&lt;br&gt;Location: 14523 - 15605" style="stroke:black; fill:white; stroke-width:1; " class="clusterblast-orf"  />
</g>
<g id="a1_007"  >
<polygon points="118,85 119,80 119,90 118,85 " locus_tag="AGN74879.1" id="dummy-1_h1_2_7" description="&lt;b&gt;AGN74879.1&lt;/b&gt;&lt;br&gt;hypothetical protein&lt;br&gt;Location: 15839 - 16084" style="stroke:black; fill:white; stroke-width:1; " class="clusterblast-orf"  />
</g>
<g id="a1_008"  >
<polygon points="121,90 128,90 133,85 128,80 121,80 121,90 " locus_tag="AGN74880.1" id="dummy-1_h1_2_8" description="&lt;b&gt;AGN74880.1&lt;/b&gt;&lt;br&gt;3-hydroxypicolinic acid:AMP ligase&lt;br&gt;Location: 16253 - 17875" style="stroke:black; fill:white; stroke-width:1; " class="clusterblast-orf"  />
</g>
<g id="a1_009"  >
<polygon points="133,90 137,90 142,85 137,80 133,80 133,90 " locus_tag="AGN74881.1" id="dummy-1_h1_2_9" description="&lt;b&gt;AGN74881.1&lt;/b&gt;&lt;br&gt;L-lysine 2-aminotransferase&lt;br&gt;Location: 17879 - 19180" style="stroke:black; fill:white; stroke-width:1; " class="clusterblast-orf"  />
</g>
<g id="a1_0010"  >
<polygon points="143,90 144,85 143,80 143,90 " locus_tag="AGN74882.1" id="dummy-1_h1_2_10" description="&lt;b&gt;AGN74882.1&lt;/b&gt;&lt;br&gt;4-oxalocrotonate tautomerase&lt;br&gt;Location: 19234 - 19422" style="stroke:black; fill:white; stroke-width:1; " class="clusterblast-orf"  />
</g>
<g id="a1_0011"  >
<polygon points="145,85 150,80 155,80 155,90 150,90 145,85 " locus_tag="AGN74883.1" id="dummy-1_h1_2_11" description="&lt;b&gt;AGN74883.1&lt;/b&gt;&lt;br&gt;phenylacetyl-CoA dioxygenase&lt;br&gt;Location: 19507 - 20814" style="stroke:black; fill:white; stroke-width:1; " class="clusterblast-orf"  />
</g>
<g id="a1_0012"  >
<polygon points="155,85 157,80 157,90 155,85 " locus_tag="AGN74884.1" id="dummy-1_h1_2_12" description="&lt;b&gt;AGN74884.1&lt;/b&gt;&lt;br&gt;MbtH domain-containing protein&lt;br&gt;Location: 20829 - 21080" style="stroke:black; fill:white; stroke-width:1; " class="clusterblast-orf"  />
</g>
<g id="a1_0013"  >
<polygon points="157,85 162,80 285,80 285,90 162,90 157,85 " locus_tag="AGN74885.1" id="dummy-1_h1_2_13" description="&lt;b&gt;AGN74885.1&lt;/b&gt;&lt;br&gt;nonribosomal peptide synthetase&lt;br&gt;Location: 21154 - 38325" style="stroke:black; fill:white; stroke-width:1; " class="clusterblast-orf"  />
</g>
<g id="a1_0014"  >
<polygon points="285,85 290,80 320,80 320,90 290,90 285,85 " locus_tag="AGN74886.1" id="dummy-1_h1_2_14" description="&lt;b&gt;AGN74886.1&lt;/b&gt;&lt;br&gt;nonribosomal peptide synthetase&lt;br&gt;Location: 38322 - 43025" style="stroke:black; fill:white; stroke-width:1; " class="clusterblast-orf"  />
</g>
<g id="a1_0015"  >
<polygon points="324,90 328,90 333,85 328,80 324,80 324,90 " locus_tag="AGN74887.1" id="dummy-1_h1_2_15" description="&lt;b&gt;AGN74887.1&lt;/b&gt;&lt;br&gt;branched-chain alpha-keto acid dehydrogenase E1 subunit alpha&lt;br&gt;Location: 43579 - 44736" style="stroke:black; fill:white; stroke-width:1; " class="clusterblast-orf"  />
</g>
<g id="a1_0016"  >
<polygon points="333,90 336,90 341,85 336,80 333,80 333,90 " locus_tag="AGN74888.1" id="dummy-1_h1_2_16" description="&lt;b&gt;AGN74888.1&lt;/b&gt;&lt;br&gt;branched-chain alpha-keto acid dehydrogenase E1 subnuit beta&lt;br&gt;Location: 44733 - 45788" style="stroke:black; fill:white; stroke-width:1; " class="clusterblast-orf"  />
</g>
<g id="a1_0017"  >
<polygon points="341,90 346,90 351,85 346,80 341,80 341,90 " locus_tag="AGN74889.1" id="dummy-1_h1_2_17" description="&lt;b&gt;AGN74889.1&lt;/b&gt;&lt;br&gt;branched-chain alpha-keto acid dehydrogenase E2&lt;br&gt;Location: 45794 - 47191" style="stroke:black; fill:white; stroke-width:1; " class="clusterblast-orf"  />
</g>
<g id="a1_0018"  >
<polygon points="353,90 360,90 365,85 360,80 353,80 353,90 " locus_tag="AGN74890.1" id="dummy-1_h1_2_18" description="&lt;b&gt;AGN74890.1&lt;/b&gt;&lt;br&gt;ABC transporter&lt;br&gt;Location: 47430 - 49085" style="stroke:black; fill:white; stroke-width:1; " class="clusterblast-orf"  />
</g>
<g id="a1_0019"  >
<polygon points="366,85 371,80 375,80 375,90 371,90 366,85 " locus_tag="AGN74891.1" id="dummy-1_h1_2_19" description="&lt;b&gt;AGN74891.1&lt;/b&gt;&lt;br&gt;P450-like monooxygenase&lt;br&gt;Location: 49244 - 50434" style="stroke:black; fill:white; stroke-width:1; " class="clusterblast-orf"  />
</g>
<g id="a1_0020"  >
<polygon points="377,90 474,90 479,85 474,80 377,80 377,90 " locus_tag="AGN74892.1" id="dummy-1_h1_2_20" description="&lt;b&gt;AGN74892.1&lt;/b&gt;&lt;br&gt;nonribosomal peptide synthetase/polyketide synthase hybrid protein&lt;br&gt;Location: 50629 - 64296" style="stroke:black; fill:white; stroke-width:1; " class="clusterblast-orf"  />
</g>
<g id="a1_0021"  >
<polygon points="479,90 524,90 529,85 524,80 479,80 479,90 " locus_tag="AGN74893.1" id="dummy-1_h1_2_21" description="&lt;b&gt;AGN74893.1&lt;/b&gt;&lt;br&gt;nonribosomal peptide synthetase/polyketide synthase hybrid protein&lt;br&gt;Location: 64299 - 71039" style="stroke:black; fill:white; stroke-width:1; " class="clusterblast-orf"  />
</g>
<g id="a1_0022"  >
<polygon points="530,90 574,90 579,85 574,80 530,80 530,90 " locus_tag="AGN74894.1" id="dummy-1_h1_2_22" description="&lt;b&gt;AGN74894.1&lt;/b&gt;&lt;br&gt;nonribosomal peptide synthetase/polyketide synthase hybrid protein&lt;br&gt;Location: 71211 - 77717" style="stroke:black; fill:white; stroke-width:1; " class="clusterblast-orf"  />
</g>
<g id="a1_0023"  >
<polygon points="579,90 632,90 637,85 632,80 579,80 579,90 " locus_tag="AGN74895.1" id="dummy-1_h1_2_23" description="&lt;b&gt;AGN74895.1&lt;/b&gt;&lt;br&gt;nonribosomal peptide synthetase/polyketide synthase hybrid protein&lt;br&gt;Location: 77728 - 85563" style="stroke:black; fill:white; stroke-width:1; " class="clusterblast-orf"  />
</g>
<g id="a1_0024"  >
<polygon points="637,90 676,90 681,85 676,80 637,80 637,90 " locus_tag="AGN74896.1" id="dummy-1_h1_2_24" description="&lt;b&gt;AGN74896.1&lt;/b&gt;&lt;br&gt;nonribosomal peptide synthetase/polyketide synthase hybrid protein&lt;br&gt;Location: 85560 - 91424" style="stroke:black; fill:white; stroke-width:1; " class="clusterblast-orf"  />
</g>
<g id="a1_0025"  >
<polygon points="681,90 683,90 688,85 683,80 681,80 681,90 " locus_tag="AGN74897.1" id="dummy-1_h1_2_25" description="&lt;b&gt;AGN74897.1&lt;/b&gt;&lt;br&gt;acyltransferase&lt;br&gt;Location: 91421 - 92371" style="stroke:black; fill:white; stroke-width:1; " class="clusterblast-orf"  />
</g>
<g id="a1_0026"  >
<polygon points="688,90 701,90 706,85 701,80 688,80 688,90 " locus_tag="AGN74898.1" id="dummy-1_h1_2_26" description="&lt;b&gt;AGN74898.1&lt;/b&gt;&lt;br&gt;nonribosomal peptide synthetase&lt;br&gt;Location: 92365 - 94791" style="stroke:black; fill:white; stroke-width:1; " class="clusterblast-orf"  />
</g>
<g id="a1_0027"  >
<polygon points="708,90 713,90 718,85 713,80 708,80 708,90 " locus_tag="AGN74899.1" id="dummy-1_h1_2_27" description="&lt;b&gt;AGN74899.1&lt;/b&gt;&lt;br&gt;major facilitator transporter&lt;br&gt;Location: 95041 - 96435" style="stroke:black; fill:white; stroke-width:1; " class="clusterblast-orf"  />
</g>
<g id="a1_0028"  >
<polygon points="718,85 723,80 725,80 725,90 723,90 718,85 " locus_tag="AGN74900.1" id="dummy-1_h1_2_28" description="&lt;b&gt;AGN74900.1&lt;/b&gt;&lt;br&gt;streptogramin B lyase&lt;br&gt;Location: 96467 - 97360" style="stroke:black; fill:white; stroke-width:1; " class="clusterblast-orf"  />
</g>
<g id="a1_0029"  >
<polygon points="727,85 732,80 735,80 735,90 732,90 727,85 " locus_tag="AGN74901.1" id="dummy-1_h1_2_29" description="&lt;b&gt;AGN74901.1&lt;/b&gt;&lt;br&gt;sarcosine oxidase&lt;br&gt;Location: 97608 - 98756" style="stroke:black; fill:white; stroke-width:1; " class="clusterblast-orf"  />
</g>
<g id="a1_0030"  >
<polygon points="736,85 741,80 743,80 743,90 741,90 736,85 " locus_tag="AGN74902.1" id="dummy-1_h1_2_30" description="&lt;b&gt;AGN74902.1&lt;/b&gt;&lt;br&gt;SARP-type regulator&lt;br&gt;Location: 98866 - 99708&lt;br&gt;&lt;br&gt;&lt;b&gt;BlastP hit with cds2682_3498&lt;/b&gt;&lt;br&gt;Percentage identity: 70&lt;br&gt;Percentage coverage: 101&lt;br&gt;BLAST bit score: 363&lt;br&gt;E-value: 4.2e-100" style="stroke:black; fill:#d81515; stroke-width:1; " class="clusterblast-orf"  />
</g>
<g id="a1_0031"  >
<polygon points="745,85 750,80 750,80 750,90 750,90 745,85 " locus_tag="AGN74903.1" id="dummy-1_h1_2_31" description="&lt;b&gt;AGN74903.1&lt;/b&gt;&lt;br&gt;TetR-type regulator&lt;br&gt;Location: 100098 - 100745&lt;br&gt;&lt;br&gt;&lt;b&gt;BlastP hit with cds3899_4532&lt;/b&gt;&lt;br&gt;Percentage identity: 50&lt;br&gt;Percentage coverage: 91&lt;br&gt;BLAST bit score: 164&lt;br&gt;E-value: 1.7e-40" style="stroke:black; fill:#15d863; stroke-width:1; " class="clusterblast-orf"  />
</g>
<g id="a1_0032"  >
<polygon points="754,90 755,90 760,85 755,80 754,80 754,90 " locus_tag="AGN74904.1" id="dummy-1_h1_2_32" description="&lt;b&gt;AGN74904.1&lt;/b&gt;&lt;br&gt;ketoreductase&lt;br&gt;Location: 101227 - 101991" style="stroke:black; fill:white; stroke-width:1; " class="clusterblast-orf"  />
</g>
<g id="a1_0033"  >
<polygon points="761,90 763,90 768,85 763,80 761,80 761,90 " locus_tag="AGN74905.1" id="dummy-1_h1_2_33" description="&lt;b&gt;AGN74905.1&lt;/b&gt;&lt;br&gt;AfsA-like gamma-butyrolactone biosynthetic protein&lt;br&gt;Location: 102181 - 103149&lt;br&gt;&lt;br&gt;&lt;b&gt;BlastP hit with cds6841_7834&lt;/b&gt;&lt;br&gt;Percentage identity: 54&lt;br&gt;Percentage coverage: 91&lt;br&gt;BLAST bit score: 292&lt;br&gt;E-value: 8.5e-79" style="stroke:black; fill:#b115d8; stroke-width:1; " class="clusterblast-orf"  />
</g>
<g id="a1_0034"  >
<polygon points="768,85 773,80 773,80 773,90 773,90 768,85 " locus_tag="AGN74906.1" id="dummy-1_h1_2_34" description="&lt;b&gt;AGN74906.1&lt;/b&gt;&lt;br&gt;gamma-butyrolactone receptor&lt;br&gt;Location: 103174 - 103857" style="stroke:black; fill:white; stroke-width:1; " class="clusterblast-orf"  />
</g>
<g id="a1_0035"  >
<polygon points="774,85 779,80 780,80 780,90 779,90 774,85 " locus_tag="AGN74907.1" id="dummy-1_h1_2_35" description="&lt;b&gt;AGN74907.1&lt;/b&gt;&lt;br&gt;phosphatase&lt;br&gt;Location: 103982 - 104671" style="stroke:black; fill:white; stroke-width:1; " class="clusterblast-orf"  />
</g>
</svg>
