<svg version="1.1" height="230" y="0" xmlns="http://www.w3.org/2000/svg" x="0" preserveAspectRatio="none" xmlns:xlink="http://www.w3.org/1999/xlink" width="800" viewBox="0 0 800 230"  >
<g class="clusterblast-cluster" label="Query sequence"  >
<text class="clusterblast-acc" y="20" x="5"  >
Query sequence</text>
<line x2="778.0" y1="35" x1="10" style="stroke:grey; stroke-width:1; " y2="35"  />
<polygon points="319,35 324,30 335,30 335,40 324,40 319,35 " locus_tag="cds1_2668" id="dummy-1_q0_0_all" description="&lt;b&gt;cds1_2668&lt;/b&gt;&lt;br&gt;hypothetical protein&lt;br&gt;Location: 1 - 2668" style="stroke:black; fill:#d81515; stroke-width:1; " class="clusterblast-orf"  />
<polygon points="336,35 341,30 353,30 353,40 341,40 336,35 " locus_tag="cds2740_5626" id="dummy-1_q1_0_all" description="&lt;b&gt;cds2740_5626&lt;/b&gt;&lt;br&gt;hypothetical protein&lt;br&gt;Location: 2740 - 5626" style="stroke:black; fill:#5cd815; stroke-width:1; " class="clusterblast-orf"  />
<polygon points="356,40 359,40 364,35 359,30 356,30 356,40 " locus_tag="cds6000_7377" id="dummy-1_q2_0_all" description="&lt;b&gt;cds6000_7377&lt;/b&gt;&lt;br&gt;hypothetical protein&lt;br&gt;Location: 6000 - 7377" style="stroke:black; fill:#15a3d8; stroke-width:1; " class="clusterblast-orf"  />
<polygon points="364,40 366,40 371,35 366,30 364,30 364,40 " locus_tag="cds7373_8498" id="dummy-1_q3_0_all" description="&lt;b&gt;cds7373_8498&lt;/b&gt;&lt;br&gt;hypothetical protein&lt;br&gt;Location: 7373 - 8498" style="stroke:black; fill:#c715d8; stroke-width:1; " class="clusterblast-orf"  />
<polygon points="372,40 374,40 379,35 374,30 372,30 372,40 " locus_tag="cds8552_9734" id="dummy-1_q4_0_all" description="&lt;b&gt;cds8552_9734&lt;/b&gt;&lt;br&gt;Putative cytochrome P450 hydroxylase&lt;br&gt;Location: 8552 - 9734" style="stroke:black; fill:#d88015; stroke-width:1; " class="clusterblast-orf"  />
<polygon points="379,40 380,35 379,30 379,40 " locus_tag="cds9774_9969" id="dummy-1_q5_0_all" description="&lt;b&gt;cds9774_9969&lt;/b&gt;&lt;br&gt;Ferredoxin&lt;br&gt;Location: 9774 - 9969" style="stroke:black; fill:#15d839; stroke-width:1; " class="clusterblast-orf"  />
<polygon points="381,40 381,40 386,35 381,30 381,30 381,40 " locus_tag="cds10031_10802" id="dummy-1_q6_0_all" description="&lt;b&gt;cds10031_10802&lt;/b&gt;&lt;br&gt;hypothetical protein&lt;br&gt;Location: 10031 - 10802" style="stroke:black; fill:#1539d8; stroke-width:1; " class="clusterblast-orf"  />
<polygon points="387,40 396,40 401,35 396,30 387,30 387,40 " locus_tag="cds11007_13218" id="dummy-1_q7_0_all" description="&lt;b&gt;cds11007_13218&lt;/b&gt;&lt;br&gt;Para-aminobenzoate synthase, amidotransferase component (EC 2.6.1.85) / Para-aminobenzoate synthase, aminase component (EC 2.6.1.85)&lt;br&gt;Location: 11007 - 13218" style="stroke:black; fill:#d81580; stroke-width:1; " class="clusterblast-orf"  />
<polygon points="401,40 430,40 435,35 430,30 401,30 401,40 " locus_tag="cds13368_18729" id="dummy-1_q8_0_all" description="&lt;b&gt;cds13368_18729&lt;/b&gt;&lt;br&gt;Modular polyketide synthase&lt;br&gt;Location: 13368 - 18729" style="stroke:black; fill:#c7d815; stroke-width:1; " class="clusterblast-orf"  />
<polygon points="437,40 438,40 443,35 438,30 437,30 437,40 " locus_tag="cds19042_20047" id="dummy-1_q9_0_all" description="&lt;b&gt;cds19042_20047&lt;/b&gt;&lt;br&gt;Efflux ABC transporter, ATP-binding protein&lt;br&gt;Location: 19042 - 20047" style="stroke:black; fill:#15d8a3; stroke-width:1; " class="clusterblast-orf"  />
<polygon points="443,40 444,40 449,35 444,30 443,30 443,40 " locus_tag="cds20138_20987" id="dummy-1_q10_0_all" description="&lt;b&gt;cds20138_20987&lt;/b&gt;&lt;br&gt;Efflux ABC transporter, permease protein&lt;br&gt;Location: 20138 - 20987" style="stroke:black; fill:#5c15d8; stroke-width:1; " class="clusterblast-orf"  />
<polygon points="452,35 457,30 461,30 461,40 457,40 452,35 " locus_tag="cds21566_22904" id="dummy-1_q11_0_all" description="&lt;b&gt;cds21566_22904&lt;/b&gt;&lt;br&gt;Modular polyketide synthase&lt;br&gt;Location: 21566 - 22904" style="stroke:black; fill:#c7d815; stroke-width:1; " class="clusterblast-orf"  />
</g>
<g description="BGC0001491_c1: 67-121C (50% of genes show similarity), Polyketide" class="clusterblast-cluster" label="BGC0001491"  >
<text class="clusterblast-acc" y="70" x="5"  >
<a xlink:href="https://mibig.secondarymetabolites.org/go/BGC0001491/1" target="_blank">BGC0001491</a>:                                                                          67-121C (50% of genes show similarity), Polyketide</text>
<line x2="778.0" y1="85" x1="10" style="stroke:grey; stroke-width:1; " y2="85"  />
</g>
<g id="a1_000"  >
<polygon points="0,85 5,80 11,80 11,90 5,90 0,85 " locus_tag="BG844_00125" id="dummy-1_h1_3_0" description="&lt;b&gt;BG844_00125&lt;/b&gt;&lt;br&gt;AceT2&lt;br&gt;Location: 125822 - 123939" style="stroke:black; fill:white; stroke-width:1; " class="clusterblast-orf"  />
</g>
<g id="a1_001"  >
<polygon points="11,85 16,80 22,80 22,90 16,90 11,85 " locus_tag="BG844_00120" id="dummy-1_h1_3_1" description="&lt;b&gt;BG844_00120&lt;/b&gt;&lt;br&gt;AceT1&lt;br&gt;Location: 123942 - 122212" style="stroke:black; fill:white; stroke-width:1; " class="clusterblast-orf"  />
</g>
<g id="a1_002"  >
<polygon points="23,90 27,85 23,80 23,90 " locus_tag="BG844_00115" id="dummy-1_h1_3_2" description="&lt;b&gt;BG844_00115&lt;/b&gt;&lt;br&gt;hypothetical protein&lt;br&gt;Location: 122099 - 121374" style="stroke:black; fill:white; stroke-width:1; " class="clusterblast-orf"  />
</g>
<g id="a1_003"  >
<polygon points="27,85 32,80 37,80 37,90 32,90 27,85 " locus_tag="BG844_00110" id="dummy-1_h1_3_3" description="&lt;b&gt;BG844_00110&lt;/b&gt;&lt;br&gt;AceR5&lt;br&gt;Location: 121405 - 119831" style="stroke:black; fill:white; stroke-width:1; " class="clusterblast-orf"  />
</g>
<g id="a1_004"  >
<polygon points="39,90 42,90 47,85 42,80 39,80 39,90 " locus_tag="BG844_00105" id="dummy-1_h1_3_4" description="&lt;b&gt;BG844_00105&lt;/b&gt;&lt;br&gt;AceD1&lt;br&gt;Location: 119496 - 118123&lt;br&gt;&lt;br&gt;&lt;b&gt;BlastP hit with cds6000_7377&lt;/b&gt;&lt;br&gt;Percentage identity: 68&lt;br&gt;Percentage coverage: 98&lt;br&gt;BLAST bit score: 629&lt;br&gt;E-value: 3.1e-180" style="stroke:black; fill:#15a3d8; stroke-width:1; " class="clusterblast-orf"  />
</g>
<g id="a1_005"  >
<polygon points="47,90 49,90 54,85 49,80 47,80 47,90 " locus_tag="BG844_00100" id="dummy-1_h1_3_5" description="&lt;b&gt;BG844_00100&lt;/b&gt;&lt;br&gt;AceD2&lt;br&gt;Location: 118126 - 117068&lt;br&gt;&lt;br&gt;&lt;b&gt;BlastP hit with cds7373_8498&lt;/b&gt;&lt;br&gt;Percentage identity: 81&lt;br&gt;Percentage coverage: 93&lt;br&gt;BLAST bit score: 576&lt;br&gt;E-value: 2.6e-164" style="stroke:black; fill:#c715d8; stroke-width:1; " class="clusterblast-orf"  />
</g>
<g id="a1_006"  >
<polygon points="54,90 56,90 61,85 56,80 54,80 54,90 " locus_tag="BG844_00095" id="dummy-1_h1_3_6" description="&lt;b&gt;BG844_00095&lt;/b&gt;&lt;br&gt;AceN&lt;br&gt;Location: 117071 - 115854&lt;br&gt;&lt;br&gt;&lt;b&gt;BlastP hit with cds8552_9734&lt;/b&gt;&lt;br&gt;Percentage identity: 72&lt;br&gt;Percentage coverage: 99&lt;br&gt;BLAST bit score: 581&lt;br&gt;E-value: 1.4e-165" style="stroke:black; fill:#d88015; stroke-width:1; " class="clusterblast-orf"  />
</g>
<g id="a1_007"  >
<polygon points="61,90 63,85 61,80 61,90 " locus_tag="BG844_00090" id="dummy-1_h1_3_7" description="&lt;b&gt;BG844_00090&lt;/b&gt;&lt;br&gt;AceM&lt;br&gt;Location: 115824 - 115633&lt;br&gt;&lt;br&gt;&lt;b&gt;BlastP hit with cds9774_9969&lt;/b&gt;&lt;br&gt;Percentage identity: 64&lt;br&gt;Percentage coverage: 98&lt;br&gt;BLAST bit score: 88&lt;br&gt;E-value: 4.7e-18" style="stroke:black; fill:#15d839; stroke-width:1; " class="clusterblast-orf"  />
</g>
<g id="a1_008"  >
<polygon points="63,90 63,90 68,85 63,80 63,80 63,90 " locus_tag="BG844_00085" id="dummy-1_h1_3_8" description="&lt;b&gt;BG844_00085&lt;/b&gt;&lt;br&gt;AceTE&lt;br&gt;Location: 115572 - 114793&lt;br&gt;&lt;br&gt;&lt;b&gt;BlastP hit with cds10031_10802&lt;/b&gt;&lt;br&gt;Percentage identity: 64&lt;br&gt;Percentage coverage: 96&lt;br&gt;BLAST bit score: 331&lt;br&gt;E-value: 1.3e-90" style="stroke:black; fill:#1539d8; stroke-width:1; " class="clusterblast-orf"  />
</g>
<g id="a1_009"  >
<polygon points="68,90 76,90 81,85 76,80 68,80 68,90 " locus_tag="BG844_00080" id="dummy-1_h1_3_9" description="&lt;b&gt;BG844_00080&lt;/b&gt;&lt;br&gt;PabAB&lt;br&gt;Location: 114755 - 112659&lt;br&gt;&lt;br&gt;&lt;b&gt;BlastP hit with cds11007_13218&lt;/b&gt;&lt;br&gt;Percentage identity: 72&lt;br&gt;Percentage coverage: 96&lt;br&gt;BLAST bit score: 1000&lt;br&gt;E-value: 1.1e-291" style="stroke:black; fill:#d81580; stroke-width:1; " class="clusterblast-orf"  />
</g>
<g id="a1_0010"  >
<polygon points="81,90 106,90 111,85 106,80 81,80 81,90 " locus_tag="BG844_00075" id="dummy-1_h1_3_10" description="&lt;b&gt;BG844_00075&lt;/b&gt;&lt;br&gt;AceP1&lt;br&gt;Location: 112644 - 107797&lt;br&gt;&lt;br&gt;&lt;b&gt;BlastP hit with cds13368_18729&lt;/b&gt;&lt;br&gt;Percentage identity: 56&lt;br&gt;Percentage coverage: 99&lt;br&gt;BLAST bit score: 1739&lt;br&gt;E-value: 0.0" style="stroke:black; fill:#c7d815; stroke-width:1; " class="clusterblast-orf"  />
</g>
<g id="a1_0011"  >
<polygon points="111,85 116,80 117,80 117,90 116,90 111,85 " locus_tag="BG844_00070" id="dummy-1_h1_3_11" description="&lt;b&gt;BG844_00070&lt;/b&gt;&lt;br&gt;AceS&lt;br&gt;Location: 107796 - 106942" style="stroke:black; fill:white; stroke-width:1; " class="clusterblast-orf"  />
</g>
<g id="a1_0012"  >
<polygon points="117,85 122,80 297,80 297,90 122,90 117,85 " locus_tag="BG844_00065" id="dummy-1_h1_3_12" description="&lt;b&gt;BG844_00065&lt;/b&gt;&lt;br&gt;AceP3&lt;br&gt;Location: 106921 - 77891&lt;br&gt;&lt;br&gt;&lt;b&gt;BlastP hit with cds13368_18729&lt;/b&gt;&lt;br&gt;Percentage identity: 53&lt;br&gt;Percentage coverage: 57&lt;br&gt;BLAST bit score: 881&lt;br&gt;E-value: 1.8e-255&lt;br&gt;&lt;br&gt;&lt;b&gt;BlastP hit with cds21566_22904&lt;/b&gt;&lt;br&gt;Percentage identity: 59&lt;br&gt;Percentage coverage: 100&lt;br&gt;BLAST bit score: 464&lt;br&gt;E-value: 1.7e-130" style="stroke:black; fill:#c7d815; stroke-width:1; " class="clusterblast-orf"  />
</g>
<g id="a1_0013"  >
<polygon points="297,85 302,80 390,80 390,90 302,90 297,85 " locus_tag="BG844_00060" id="dummy-1_h1_3_13" description="&lt;b&gt;BG844_00060&lt;/b&gt;&lt;br&gt;AceP2&lt;br&gt;Location: 77846 - 62871&lt;br&gt;&lt;br&gt;&lt;b&gt;BlastP hit with cds13368_18729&lt;/b&gt;&lt;br&gt;Percentage identity: 52&lt;br&gt;Percentage coverage: 51&lt;br&gt;BLAST bit score: 781&lt;br&gt;E-value: 2.5e-225&lt;br&gt;&lt;br&gt;&lt;b&gt;BlastP hit with cds21566_22904&lt;/b&gt;&lt;br&gt;Percentage identity: 51&lt;br&gt;Percentage coverage: 91&lt;br&gt;BLAST bit score: 333&lt;br&gt;E-value: 5.9e-91" style="stroke:black; fill:#c7d815; stroke-width:1; " class="clusterblast-orf"  />
</g>
<g id="a1_0014"  >
<polygon points="391,85 396,80 486,80 486,90 396,90 391,85 " locus_tag="BG844_00055" id="dummy-1_h1_3_14" description="&lt;b&gt;BG844_00055&lt;/b&gt;&lt;br&gt;AceP6&lt;br&gt;Location: 62715 - 47329&lt;br&gt;&lt;br&gt;&lt;b&gt;BlastP hit with cds13368_18729&lt;/b&gt;&lt;br&gt;Percentage identity: 50&lt;br&gt;Percentage coverage: 53&lt;br&gt;BLAST bit score: 807&lt;br&gt;E-value: 5.6e-233&lt;br&gt;&lt;br&gt;&lt;b&gt;BlastP hit with cds21566_22904&lt;/b&gt;&lt;br&gt;Percentage identity: 52&lt;br&gt;Percentage coverage: 85&lt;br&gt;BLAST bit score: 343&lt;br&gt;E-value: 5.7e-94" style="stroke:black; fill:#c7d815; stroke-width:1; " class="clusterblast-orf"  />
</g>
<g id="a1_0015"  >
<polygon points="486,85 491,80 546,80 546,90 491,90 486,85 " locus_tag="BG844_00050" id="dummy-1_h1_3_15" description="&lt;b&gt;BG844_00050&lt;/b&gt;&lt;br&gt;AceP5&lt;br&gt;Location: 47295 - 37738&lt;br&gt;&lt;br&gt;&lt;b&gt;BlastP hit with cds21566_22904&lt;/b&gt;&lt;br&gt;Percentage identity: 55&lt;br&gt;Percentage coverage: 81&lt;br&gt;BLAST bit score: 331&lt;br&gt;E-value: 2.9e-90" style="stroke:black; fill:#c7d815; stroke-width:1; " class="clusterblast-orf"  />
</g>
<g id="a1_0016"  >
<polygon points="546,85 551,80 713,80 713,90 551,90 546,85 " locus_tag="BG844_00045" id="dummy-1_h1_3_16" description="&lt;b&gt;BG844_00045&lt;/b&gt;&lt;br&gt;AceP4&lt;br&gt;Location: 37741 - 10733&lt;br&gt;&lt;br&gt;&lt;b&gt;BlastP hit with cds13368_18729&lt;/b&gt;&lt;br&gt;Percentage identity: 51&lt;br&gt;Percentage coverage: 60&lt;br&gt;BLAST bit score: 893&lt;br&gt;E-value: 7.7e-259&lt;br&gt;&lt;br&gt;&lt;b&gt;BlastP hit with cds21566_22904&lt;/b&gt;&lt;br&gt;Percentage identity: 57&lt;br&gt;Percentage coverage: 81&lt;br&gt;BLAST bit score: 339&lt;br&gt;E-value: 8.2e-93" style="stroke:black; fill:#c7d815; stroke-width:1; " class="clusterblast-orf"  />
</g>
<g id="a1_0017"  >
<polygon points="714,90 716,85 714,80 714,90 " locus_tag="BG844_00040" id="dummy-1_h1_3_17" description="&lt;b&gt;BG844_00040&lt;/b&gt;&lt;br&gt;hypothetical protein&lt;br&gt;Location: 10631 - 10323" style="stroke:black; fill:white; stroke-width:1; " class="clusterblast-orf"  />
</g>
<g id="a1_0018"  >
<polygon points="716,85 721,80 722,80 722,90 721,90 716,85 " locus_tag="BG844_00035" id="dummy-1_h1_3_18" description="&lt;b&gt;BG844_00035&lt;/b&gt;&lt;br&gt;AceD3&lt;br&gt;Location: 10252 - 9224" style="stroke:black; fill:white; stroke-width:1; " class="clusterblast-orf"  />
</g>
<g id="a1_0019"  >
<polygon points="723,85 726,80 726,90 723,85 " locus_tag="BG844_00030" id="dummy-1_h1_3_19" description="&lt;b&gt;BG844_00030&lt;/b&gt;&lt;br&gt;AceR1&lt;br&gt;Location: 9146 - 8571" style="stroke:black; fill:white; stroke-width:1; " class="clusterblast-orf"  />
</g>
<g id="a1_0020"  >
<polygon points="731,85 736,80 747,80 747,90 736,90 731,85 " locus_tag="BG844_00025" id="dummy-1_h1_3_20" description="&lt;b&gt;BG844_00025&lt;/b&gt;&lt;br&gt;AceR2&lt;br&gt;Location: 7898 - 5217" style="stroke:black; fill:white; stroke-width:1; " class="clusterblast-orf"  />
</g>
<g id="a1_0021"  >
<polygon points="747,85 752,80 764,80 764,90 752,90 747,85 " locus_tag="BG844_00020" id="dummy-1_h1_3_21" description="&lt;b&gt;BG844_00020&lt;/b&gt;&lt;br&gt;AceR3&lt;br&gt;Location: 5214 - 2443" style="stroke:black; fill:white; stroke-width:1; " class="clusterblast-orf"  />
</g>
<g id="a1_0022"  >
<polygon points="765,85 770,80 774,80 774,90 770,90 765,85 " locus_tag="BG844_00015" id="dummy-1_h1_3_22" description="&lt;b&gt;BG844_00015&lt;/b&gt;&lt;br&gt;propionyl-CoA carboxylase subunit beta&lt;br&gt;Location: 2293 - 884" style="stroke:black; fill:white; stroke-width:1; " class="clusterblast-orf"  />
</g>
<g id="a1_0023"  >
<polygon points="775,90 775,90 780,85 775,80 775,80 775,90 " locus_tag="BG844_00010" id="dummy-1_h1_3_23" description="&lt;b&gt;BG844_00010&lt;/b&gt;&lt;br&gt;PabC&lt;br&gt;Location: 756 - 1" style="stroke:black; fill:white; stroke-width:1; " class="clusterblast-orf"  />
</g>
</svg>
