<svg version="1.1" height="230" y="0" xmlns="http://www.w3.org/2000/svg" x="0" preserveAspectRatio="none" xmlns:xlink="http://www.w3.org/1999/xlink" width="800" viewBox="0 0 800 230"  >
<g class="clusterblast-cluster" label="Query sequence"  >
<text class="clusterblast-acc" y="20" x="5"  >
Query sequence</text>
<line x2="778.0" y1="35" x1="10" style="stroke:grey; stroke-width:1; " y2="35"  />
<polygon points="186,35 191,30 241,30 241,40 191,40 186,35 " locus_tag="cds1_1489" id="dummy-1_q0_0_all" description="&lt;b&gt;cds1_1489&lt;/b&gt;&lt;br&gt;2-polyprenyl-6-methoxyphenol hydroxylase and related FAD-dependent oxidoreductases&lt;br&gt;Location: 1 - 1489" style="stroke:black; fill:#d81515; stroke-width:1; " class="clusterblast-orf"  />
<polygon points="244,35 249,30 298,30 298,40 249,40 244,35 " locus_tag="cds1591_3067" id="dummy-1_q1_0_all" description="&lt;b&gt;cds1591_3067&lt;/b&gt;&lt;br&gt;2-polyprenyl-6-methoxyphenol hydroxylase and related FAD-dependent oxidoreductases&lt;br&gt;Location: 1591 - 3067" style="stroke:black; fill:#d81515; stroke-width:1; " class="clusterblast-orf"  />
<polygon points="299,35 304,30 319,30 319,40 304,40 299,35 " locus_tag="cds3070_3628" id="dummy-1_q2_0_all" description="&lt;b&gt;cds3070_3628&lt;/b&gt;&lt;br&gt;Aromatase&lt;br&gt;Location: 3070 - 3628" style="stroke:black; fill:#15d815; stroke-width:1; " class="clusterblast-orf"  />
<polygon points="323,40 326,40 331,35 326,30 323,30 323,40 " locus_tag="cds3726_3960" id="dummy-1_q3_0_all" description="&lt;b&gt;cds3726_3960&lt;/b&gt;&lt;br&gt;hypothetical protein&lt;br&gt;Location: 3726 - 3960" style="stroke:black; fill:white; stroke-width:1; " class="clusterblast-orf"  />
<polygon points="335,35 340,30 363,30 363,40 340,40 335,35 " locus_tag="cds4056_4845" id="dummy-1_q4_0_all" description="&lt;b&gt;cds4056_4845&lt;/b&gt;&lt;br&gt;Acetoacetyl-CoA reductase (EC 1.1.1.36)&lt;br&gt;Location: 4056 - 4845" style="stroke:black; fill:#1597d8; stroke-width:1; " class="clusterblast-orf"  />
<polygon points="364,35 369,30 374,30 374,40 369,40 364,35 " locus_tag="cds4857_5127" id="dummy-1_q5_0_all" description="&lt;b&gt;cds4857_5127&lt;/b&gt;&lt;br&gt;Acyl carrier protein&lt;br&gt;Location: 4857 - 5127" style="stroke:black; fill:#9715d8; stroke-width:1; " class="clusterblast-orf"  />
<polygon points="376,35 381,30 421,30 421,40 381,40 376,35 " locus_tag="cds5193_6405" id="dummy-1_q6_0_all" description="&lt;b&gt;cds5193_6405&lt;/b&gt;&lt;br&gt;Polyketide chain length factor WhiE-CLF paralog&lt;br&gt;Location: 5193 - 6405" style="stroke:black; fill:#d89715; stroke-width:1; " class="clusterblast-orf"  />
<polygon points="420,35 425,30 437,30 437,40 425,40 420,35 " locus_tag="cds6401_6848" id="dummy-1_q7_0_all" description="&lt;b&gt;cds6401_6848&lt;/b&gt;&lt;br&gt;Polyketide beta-ketoacyl synthase WhiE-KS paralog&lt;br&gt;Location: 6401 - 6848" style="stroke:black; fill:#15d897; stroke-width:1; " class="clusterblast-orf"  />
<polygon points="437,35 442,30 466,30 466,40 442,40 437,35 " locus_tag="cds6844_7654" id="dummy-1_q8_0_all" description="&lt;b&gt;cds6844_7654&lt;/b&gt;&lt;br&gt;Polyketide beta-ketoacyl synthase WhiE-KS paralog&lt;br&gt;Location: 6844 - 7654" style="stroke:black; fill:#15d897; stroke-width:1; " class="clusterblast-orf"  />
<polygon points="467,35 472,30 479,30 479,40 472,40 467,35 " locus_tag="cds7668_7998" id="dummy-1_q9_0_all" description="&lt;b&gt;cds7668_7998&lt;/b&gt;&lt;br&gt;Polyketide cyclase WhiE VII&lt;br&gt;Location: 7668 - 7998" style="stroke:black; fill:#1515d8; stroke-width:1; " class="clusterblast-orf"  />
<polygon points="488,35 493,30 514,30 514,40 493,40 488,35 " locus_tag="cds8253_8952" id="dummy-1_q10_0_all" description="&lt;b&gt;cds8253_8952&lt;/b&gt;&lt;br&gt;hypothetical protein&lt;br&gt;Location: 8253 - 8952" style="stroke:black; fill:#d81597; stroke-width:1; " class="clusterblast-orf"  />
<polygon points="516,35 521,30 570,30 570,40 521,40 516,35 " locus_tag="cds9008_10481" id="dummy-1_q11_0_all" description="&lt;b&gt;cds9008_10481&lt;/b&gt;&lt;br&gt;2-polyprenyl-6-methoxyphenol hydroxylase and related FAD-dependent oxidoreductases&lt;br&gt;Location: 9008 - 10481" style="stroke:black; fill:#d81515; stroke-width:1; " class="clusterblast-orf"  />
<polygon points="576,40 588,40 593,35 588,30 576,30 576,40 " locus_tag="cds10647_11130" id="dummy-1_q12_0_all" description="&lt;b&gt;cds10647_11130&lt;/b&gt;&lt;br&gt;JadX-like protein&lt;br&gt;Location: 10647 - 11130" style="stroke:black; fill:#97d815; stroke-width:1; " class="clusterblast-orf"  />
</g>
<g description="BGC0000235_c1: kiamycin (40% of genes show similarity), Polyketide" class="clusterblast-cluster" label="BGC0000235"  >
<text class="clusterblast-acc" y="70" x="5"  >
<a xlink:href="https://mibig.secondarymetabolites.org/go/BGC0000235/1" target="_blank">BGC0000235</a>:                                                                         kiamycin (40% of genes show similarity), Polyketide</text>
<line x2="778.0" y1="85" x1="10" style="stroke:grey; stroke-width:1; " y2="85"  />
</g>
<g id="a1_000"  >
<polygon points="0,85 5,80 57,80 57,90 5,90 0,85 " locus_tag="SPW_4235" id="dummy-1_h1_7_0" description="&lt;b&gt;SPW_4235&lt;/b&gt;&lt;br&gt;carboxyl transferase&lt;br&gt;Location: 21325 - 19748" style="stroke:black; fill:white; stroke-width:1; " class="clusterblast-orf"  />
</g>
<g id="a1_001"  >
<polygon points="57,85 62,80 85,80 85,90 62,90 57,85 " locus_tag="SPW_4234" id="dummy-1_h1_7_1" description="&lt;b&gt;SPW_4234&lt;/b&gt;&lt;br&gt;putative short chain dehydrogenase&lt;br&gt;Location: 19742 - 18978" style="stroke:black; fill:white; stroke-width:1; " class="clusterblast-orf"  />
</g>
<g id="a1_002"  >
<polygon points="87,85 92,80 159,80 159,90 92,90 87,85 " locus_tag="SPW_4233" id="dummy-1_h1_7_2" description="&lt;b&gt;SPW_4233&lt;/b&gt;&lt;br&gt;monooxygenase FAD-binding&lt;br&gt;Location: 18940 - 16970&lt;br&gt;&lt;br&gt;&lt;b&gt;BlastP hit with cds1591_3067&lt;/b&gt;&lt;br&gt;Percentage identity: 56&lt;br&gt;Percentage coverage: 78&lt;br&gt;BLAST bit score: 393&lt;br&gt;E-value: 6.9e-109" style="stroke:black; fill:#d81515; stroke-width:1; " class="clusterblast-orf"  />
</g>
<g id="a1_003"  >
<polygon points="159,85 164,80 194,80 194,90 164,90 159,85 " locus_tag="SPW_4232" id="dummy-1_h1_7_3" description="&lt;b&gt;SPW_4232&lt;/b&gt;&lt;br&gt;cyclase/dehydrase&lt;br&gt;Location: 16966 - 15995&lt;br&gt;&lt;br&gt;&lt;b&gt;BlastP hit with cds3070_3628&lt;/b&gt;&lt;br&gt;Percentage identity: 64&lt;br&gt;Percentage coverage: 101&lt;br&gt;BLAST bit score: 224&lt;br&gt;E-value: 1.6e-58" style="stroke:black; fill:#15d815; stroke-width:1; " class="clusterblast-orf"  />
</g>
<g id="a1_004"  >
<polygon points="196,85 201,80 224,80 224,90 201,90 196,85 " locus_tag="SPW_4231" id="dummy-1_h1_7_4" description="&lt;b&gt;SPW_4231&lt;/b&gt;&lt;br&gt;short-chain dehydrogenase/reductase SDR&lt;br&gt;Location: 15959 - 15189&lt;br&gt;&lt;br&gt;&lt;b&gt;BlastP hit with cds4056_4845&lt;/b&gt;&lt;br&gt;Percentage identity: 76&lt;br&gt;Percentage coverage: 97&lt;br&gt;BLAST bit score: 383&lt;br&gt;E-value: 2.2e-106" style="stroke:black; fill:#1597d8; stroke-width:1; " class="clusterblast-orf"  />
</g>
<g id="a1_005"  >
<polygon points="226,85 231,80 236,80 236,90 231,90 226,85 " locus_tag="SPW_4230" id="dummy-1_h1_7_5" description="&lt;b&gt;SPW_4230&lt;/b&gt;&lt;br&gt;acyl carrier protein&lt;br&gt;Location: 15136 - 14867&lt;br&gt;&lt;br&gt;&lt;b&gt;BlastP hit with cds4857_5127&lt;/b&gt;&lt;br&gt;Percentage identity: 62&lt;br&gt;Percentage coverage: 98&lt;br&gt;BLAST bit score: 108&lt;br&gt;E-value: 8e-24" style="stroke:black; fill:#9715d8; stroke-width:1; " class="clusterblast-orf"  />
</g>
<g id="a1_006"  >
<polygon points="238,85 243,80 282,80 282,90 243,90 238,85 " locus_tag="SPW_4229" id="dummy-1_h1_7_6" description="&lt;b&gt;SPW_4229&lt;/b&gt;&lt;br&gt;chain length determinant protein&lt;br&gt;Location: 14809 - 13589&lt;br&gt;&lt;br&gt;&lt;b&gt;BlastP hit with cds5193_6405&lt;/b&gt;&lt;br&gt;Percentage identity: 69&lt;br&gt;Percentage coverage: 100&lt;br&gt;BLAST bit score: 545&lt;br&gt;E-value: 6.8e-155" style="stroke:black; fill:#d89715; stroke-width:1; " class="clusterblast-orf"  />
</g>
<g id="a1_007"  >
<polygon points="282,85 287,80 329,80 329,90 287,90 282,85 " locus_tag="SPW_4228" id="dummy-1_h1_7_7" description="&lt;b&gt;SPW_4228&lt;/b&gt;&lt;br&gt;ketoacyl synthase&lt;br&gt;Location: 13592 - 12312&lt;br&gt;&lt;br&gt;&lt;b&gt;BlastP hit with cds6401_6848&lt;/b&gt;&lt;br&gt;Percentage identity: 81&lt;br&gt;Percentage coverage: 98&lt;br&gt;BLAST bit score: 242&lt;br&gt;E-value: 3.5e-64&lt;br&gt;&lt;br&gt;&lt;b&gt;BlastP hit with cds6844_7654&lt;/b&gt;&lt;br&gt;Percentage identity: 72&lt;br&gt;Percentage coverage: 71&lt;br&gt;BLAST bit score: 275&lt;br&gt;E-value: 8.8e-74" style="stroke:black; fill:#15d897; stroke-width:1; " class="clusterblast-orf"  />
</g>
<g id="a1_008"  >
<polygon points="329,85 334,80 340,80 340,90 334,90 329,85 " locus_tag="SPW_4227" id="dummy-1_h1_7_8" description="&lt;b&gt;SPW_4227&lt;/b&gt;&lt;br&gt;polyketide synthesis cyclase&lt;br&gt;Location: 12315 - 12016&lt;br&gt;&lt;br&gt;&lt;b&gt;BlastP hit with cds7668_7998&lt;/b&gt;&lt;br&gt;Percentage identity: 71&lt;br&gt;Percentage coverage: 90&lt;br&gt;BLAST bit score: 149&lt;br&gt;E-value: 2.3e-36" style="stroke:black; fill:#1515d8; stroke-width:1; " class="clusterblast-orf"  />
</g>
<g id="a1_009"  >
<polygon points="342,85 347,80 397,80 397,90 347,90 342,85 " locus_tag="SPW_4226" id="dummy-1_h1_7_9" description="&lt;b&gt;SPW_4226&lt;/b&gt;&lt;br&gt;monooxygenase FAD-binding&lt;br&gt;Location: 11948 - 10446&lt;br&gt;&lt;br&gt;&lt;b&gt;BlastP hit with cds1_1489&lt;/b&gt;&lt;br&gt;Percentage identity: 56&lt;br&gt;Percentage coverage: 97&lt;br&gt;BLAST bit score: 493&lt;br&gt;E-value: 3.8e-139&lt;br&gt;&lt;br&gt;&lt;b&gt;BlastP hit with cds1591_3067&lt;/b&gt;&lt;br&gt;Percentage identity: 51&lt;br&gt;Percentage coverage: 100&lt;br&gt;BLAST bit score: 462&lt;br&gt;E-value: 1.2e-129&lt;br&gt;&lt;br&gt;&lt;b&gt;BlastP hit with cds9008_10481&lt;/b&gt;&lt;br&gt;Percentage identity: 50&lt;br&gt;Percentage coverage: 100&lt;br&gt;BLAST bit score: 451&lt;br&gt;E-value: 1.2e-126" style="stroke:black; fill:#d81515; stroke-width:1; " class="clusterblast-orf"  />
</g>
<g id="a1_0010"  >
<polygon points="400,85 405,80 435,80 435,90 405,90 400,85 " locus_tag="SPW_4225" id="dummy-1_h1_7_10" description="&lt;b&gt;SPW_4225&lt;/b&gt;&lt;br&gt;O-methyltransferase family protein&lt;br&gt;Location: 10365 - 9430" style="stroke:black; fill:white; stroke-width:1; " class="clusterblast-orf"  />
</g>
<g id="a1_0011"  >
<polygon points="449,85 454,80 501,80 501,90 454,90 449,85 " locus_tag="SPW_4224" id="dummy-1_h1_7_11" description="&lt;b&gt;SPW_4224&lt;/b&gt;&lt;br&gt;putative export protein&lt;br&gt;Location: 9039 - 7627" style="stroke:black; fill:white; stroke-width:1; " class="clusterblast-orf"  />
</g>
<g id="a1_0012"  >
<polygon points="508,90 527,90 532,85 527,80 508,80 508,90 " locus_tag="SPW_4223" id="dummy-1_h1_7_12" description="&lt;b&gt;SPW_4223&lt;/b&gt;&lt;br&gt;TetR family transcriptional regulator&lt;br&gt;Location: 7423 - 6755" style="stroke:black; fill:white; stroke-width:1; " class="clusterblast-orf"  />
</g>
<g id="a1_0013"  >
<polygon points="536,90 557,90 562,85 557,80 536,80 536,90 " locus_tag="SPW_4222" id="dummy-1_h1_7_13" description="&lt;b&gt;SPW_4222&lt;/b&gt;&lt;br&gt;putative short chain oxidoreductase&lt;br&gt;Location: 6664 - 5957" style="stroke:black; fill:white; stroke-width:1; " class="clusterblast-orf"  />
</g>
<g id="a1_0014"  >
<polygon points="563,85 568,80 587,80 587,90 568,90 563,85 " locus_tag="SPW_4221" id="dummy-1_h1_7_14" description="&lt;b&gt;SPW_4221&lt;/b&gt;&lt;br&gt;two component LuxR family transcriptional regulator&lt;br&gt;Location: 5916 - 5251" style="stroke:black; fill:white; stroke-width:1; " class="clusterblast-orf"  />
</g>
<g id="a1_0015"  >
<polygon points="621,90 645,90 650,85 645,80 621,80 621,90 " locus_tag="SPW_4220" id="dummy-1_h1_7_15" description="&lt;b&gt;SPW_4220&lt;/b&gt;&lt;br&gt;putative short-chain dehydrogenase/reductase&lt;br&gt;Location: 4333 - 3551" style="stroke:black; fill:white; stroke-width:1; " class="clusterblast-orf"  />
</g>
<g id="a1_0016"  >
<polygon points="668,90 692,90 697,85 692,80 668,80 668,90 " locus_tag="SPW_4219" id="dummy-1_h1_7_16" description="&lt;b&gt;SPW_4219&lt;/b&gt;&lt;br&gt;putative secreted hydrolase&lt;br&gt;Location: 3054 - 2248" style="stroke:black; fill:white; stroke-width:1; " class="clusterblast-orf"  />
</g>
<g id="a1_0017"  >
<polygon points="700,85 705,80 716,80 716,90 705,90 700,85 " locus_tag="SPW_4218" id="dummy-1_h1_7_17" description="&lt;b&gt;SPW_4218&lt;/b&gt;&lt;br&gt;hypothetical protein&lt;br&gt;Location: 2187 - 1747" style="stroke:black; fill:white; stroke-width:1; " class="clusterblast-orf"  />
</g>
<g id="a1_0018"  >
<polygon points="720,85 725,80 751,80 751,90 725,90 720,85 " locus_tag="SPW_4217" id="dummy-1_h1_7_18" description="&lt;b&gt;SPW_4217&lt;/b&gt;&lt;br&gt;putative SAM-dependent methyltransferase&lt;br&gt;Location: 1630 - 791" style="stroke:black; fill:white; stroke-width:1; " class="clusterblast-orf"  />
</g>
<g id="a1_0019"  >
<polygon points="752,85 757,80 780,80 780,90 757,90 752,85 " locus_tag="SPW_4216" id="dummy-1_h1_7_19" description="&lt;b&gt;SPW_4216&lt;/b&gt;&lt;br&gt;ABC transporter related protein&lt;br&gt;Location: 750 - 1" style="stroke:black; fill:white; stroke-width:1; " class="clusterblast-orf"  />
</g>
</svg>
