<svg version="1.1" height="230" y="0" xmlns="http://www.w3.org/2000/svg" x="0" preserveAspectRatio="none" xmlns:xlink="http://www.w3.org/1999/xlink" width="800" viewBox="0 0 800 230"  >
<g class="clusterblast-cluster" label="Query sequence"  >
<text class="clusterblast-acc" y="20" x="5"  >
Query sequence</text>
<line x2="778.0" y1="35" x1="10" style="stroke:grey; stroke-width:1; " y2="35"  />
<polygon points="30,40 31,40 36,35 31,30 30,30 30,40 " locus_tag="cds78425_78854" id="dummy-3_q0_0_all" description="&lt;b&gt;cds78425_78854&lt;/b&gt;&lt;br&gt;hypothetical protein&lt;br&gt;Location: 78425 - 78854" style="stroke:black; fill:white; stroke-width:1; " class="clusterblast-orf"  />
<polygon points="36,40 40,40 45,35 40,30 36,30 36,40 " locus_tag="cds78850_79507" id="dummy-3_q1_0_all" description="&lt;b&gt;cds78850_79507&lt;/b&gt;&lt;br&gt;hypothetical protein&lt;br&gt;Location: 78850 - 79507" style="stroke:black; fill:white; stroke-width:1; " class="clusterblast-orf"  />
<polygon points="46,35 51,30 55,30 55,40 51,40 46,35 " locus_tag="cds79535_80129" id="dummy-3_q2_0_all" description="&lt;b&gt;cds79535_80129&lt;/b&gt;&lt;br&gt;Transcriptional regulator, AcrR family&lt;br&gt;Location: 79535 - 80129" style="stroke:black; fill:white; stroke-width:1; " class="clusterblast-orf"  />
<polygon points="55,40 61,40 66,35 61,30 55,30 55,40 " locus_tag="cds80174_80921" id="dummy-3_q3_0_all" description="&lt;b&gt;cds80174_80921&lt;/b&gt;&lt;br&gt;Nitroreductase&lt;br&gt;Location: 80174 - 80921" style="stroke:black; fill:white; stroke-width:1; " class="clusterblast-orf"  />
<polygon points="67,40 70,35 67,30 67,40 " locus_tag="cds80997_81168" id="dummy-3_q4_0_all" description="&lt;b&gt;cds80997_81168&lt;/b&gt;&lt;br&gt;LSU ribosomal protein L32p&lt;br&gt;Location: 80997 - 81168" style="stroke:black; fill:white; stroke-width:1; " class="clusterblast-orf"  />
<polygon points="70,40 82,40 87,35 82,30 70,30 70,40 " locus_tag="cds81174_82362" id="dummy-3_q5_0_all" description="&lt;b&gt;cds81174_82362&lt;/b&gt;&lt;br&gt;Zinc-binding GTPase YciC&lt;br&gt;Location: 81174 - 82362" style="stroke:black; fill:white; stroke-width:1; " class="clusterblast-orf"  />
<polygon points="88,40 96,40 101,35 96,30 88,30 88,40 " locus_tag="cds82440_83268" id="dummy-3_q6_0_all" description="&lt;b&gt;cds82440_83268&lt;/b&gt;&lt;br&gt;hypothetical protein&lt;br&gt;Location: 82440 - 83268" style="stroke:black; fill:white; stroke-width:1; " class="clusterblast-orf"  />
<polygon points="102,35 107,30 123,30 123,40 107,40 102,35 " locus_tag="cds83363_84776" id="dummy-3_q7_0_all" description="&lt;b&gt;cds83363_84776&lt;/b&gt;&lt;br&gt;Salicylate synthetase (EC 5.4.4.2)(EC 4.2.99.21) @ Salicylate synthetase (EC 5.4.4.2)(EC 4.2.99.21) of siderophore biosynthesis&lt;br&gt;Location: 83363 - 84776" style="stroke:black; fill:#d81515; stroke-width:1; " class="clusterblast-orf"  />
<polygon points="124,35 129,30 150,30 150,40 129,40 124,35 " locus_tag="cds84834_86610" id="dummy-3_q8_0_all" description="&lt;b&gt;cds84834_86610&lt;/b&gt;&lt;br&gt;Heterodimeric efflux ABC transporter, permease/ATP-binding subunit 2&lt;br&gt;Location: 84834 - 86610" style="stroke:black; fill:#3cd815; stroke-width:1; " class="clusterblast-orf"  />
<polygon points="150,35 155,30 176,30 176,40 155,40 150,35 " locus_tag="cds86606_88427" id="dummy-3_q9_0_all" description="&lt;b&gt;cds86606_88427&lt;/b&gt;&lt;br&gt;Heterodimeric efflux ABC transporter, permease/ATP-binding subunit 1&lt;br&gt;Location: 86606 - 88427" style="stroke:black; fill:#1563d8; stroke-width:1; " class="clusterblast-orf"  />
<polygon points="176,35 181,30 187,30 187,40 181,40 176,35 " locus_tag="cds88423_89152" id="dummy-3_q10_0_all" description="&lt;b&gt;cds88423_89152&lt;/b&gt;&lt;br&gt;hypothetical protein&lt;br&gt;Location: 88423 - 89152" style="stroke:black; fill:#b115d8; stroke-width:1; " class="clusterblast-orf"  />
<polygon points="188,35 193,30 201,30 201,40 193,40 188,35 " locus_tag="cds89246_90086" id="dummy-3_q11_0_all" description="&lt;b&gt;cds89246_90086&lt;/b&gt;&lt;br&gt;Thioesterase in siderophore biosynthesis gene cluster&lt;br&gt;Location: 89246 - 90086" style="stroke:black; fill:#d88a15; stroke-width:1; " class="clusterblast-orf"  />
<polygon points="200,35 205,30 219,30 219,40 205,40 200,35 " locus_tag="cds90082_91333" id="dummy-3_q12_0_all" description="&lt;b&gt;cds90082_91333&lt;/b&gt;&lt;br&gt;putative cytochrome P450&lt;br&gt;Location: 90082 - 91333" style="stroke:black; fill:#15d863; stroke-width:1; " class="clusterblast-orf"  />
<polygon points="219,35 224,30 250,30 250,40 224,40 219,35 " locus_tag="cds91342_93427" id="dummy-3_q13_0_all" description="&lt;b&gt;cds91342_93427&lt;/b&gt;&lt;br&gt;Yersiniabactin synthetase, thiazolinyl reductase component Irp3&lt;br&gt;Location: 91342 - 93427" style="stroke:black; fill:#b115d8; stroke-width:1; " class="clusterblast-orf"  />
<polygon points="249,35 254,30 266,30 266,40 254,40 249,35 " locus_tag="cds93423_94575" id="dummy-3_q14_0_all" description="&lt;b&gt;cds93423_94575&lt;/b&gt;&lt;br&gt;Putative reductoisomerase in siderophore biosynthesis gene cluster&lt;br&gt;Location: 93423 - 94575" style="stroke:black; fill:#3c15d8; stroke-width:1; " class="clusterblast-orf"  />
<polygon points="266,35 271,30 347,30 347,40 271,40 266,35 " locus_tag="cds94571_100100" id="dummy-3_q15_0_all" description="&lt;b&gt;cds94571_100100&lt;/b&gt;&lt;br&gt;iron aquisition yersiniabactin synthesis enzyme (Irp2)&lt;br&gt;Location: 94571 - 100100" style="stroke:black; fill:#d8158a; stroke-width:1; " class="clusterblast-orf"  />
<polygon points="347,35 352,30 447,30 447,40 352,40 347,35 " locus_tag="cds100096_106897" id="dummy-3_q16_0_all" description="&lt;b&gt;cds100096_106897&lt;/b&gt;&lt;br&gt;iron aquisition yersiniabactin synthesis enzyme (Irp2)&lt;br&gt;Location: 100096 - 106897" style="stroke:black; fill:#b1d815; stroke-width:1; " class="clusterblast-orf"  />
<polygon points="451,40 474,40 479,35 474,30 451,30 451,40 " locus_tag="cds107150_109046" id="dummy-3_q17_0_all" description="&lt;b&gt;cds107150_109046&lt;/b&gt;&lt;br&gt;2,3-dihydroxybenzoate-AMP ligase (EC 2.7.7.58) of siderophore biosynthesis&lt;br&gt;Location: 107150 - 109046" style="stroke:black; fill:#15d8d8; stroke-width:1; " class="clusterblast-orf"  />
<polygon points="498,35 503,30 510,30 510,40 503,40 498,35 " locus_tag="cds110356_111217" id="dummy-3_q18_0_all" description="&lt;b&gt;cds110356_111217&lt;/b&gt;&lt;br&gt;ABC transporter, permease protein 2 (cluster 5, nickel/peptides/opines)&lt;br&gt;Location: 110356 - 111217" style="stroke:black; fill:white; stroke-width:1; " class="clusterblast-orf"  />
<polygon points="510,35 515,30 524,30 524,40 515,40 510,35 " locus_tag="cds111213_112164" id="dummy-3_q19_0_all" description="&lt;b&gt;cds111213_112164&lt;/b&gt;&lt;br&gt;ABC transporter, permease protein 1 (cluster 5, nickel/peptides/opines)&lt;br&gt;Location: 111213 - 112164" style="stroke:black; fill:white; stroke-width:1; " class="clusterblast-orf"  />
<polygon points="524,35 529,30 547,30 547,40 529,40 524,35 " locus_tag="cds112160_113747" id="dummy-3_q20_0_all" description="&lt;b&gt;cds112160_113747&lt;/b&gt;&lt;br&gt;ABC transporter, substrate-binding protein (cluster 5, nickel/peptides/opines)&lt;br&gt;Location: 112160 - 113747" style="stroke:black; fill:white; stroke-width:1; " class="clusterblast-orf"  />
<polygon points="549,35 552,30 552,40 549,35 " locus_tag="cds113856_114090" id="dummy-3_q21_0_all" description="&lt;b&gt;cds113856_114090&lt;/b&gt;&lt;br&gt;Ferredoxin-like protein SCO7676&lt;br&gt;Location: 113856 - 114090" style="stroke:black; fill:white; stroke-width:1; " class="clusterblast-orf"  />
<polygon points="556,40 558,40 563,35 558,30 556,30 556,40 " locus_tag="cds114310_114814" id="dummy-3_q22_0_all" description="&lt;b&gt;cds114310_114814&lt;/b&gt;&lt;br&gt;Zinc uptake regulation protein Zur&lt;br&gt;Location: 114310 - 114814" style="stroke:black; fill:white; stroke-width:1; " class="clusterblast-orf"  />
<polygon points="564,40 581,40 586,35 581,30 564,30 564,40 " locus_tag="cds114883_116371" id="dummy-3_q23_0_all" description="&lt;b&gt;cds114883_116371&lt;/b&gt;&lt;br&gt;ABC transporter, substrate-binding protein (cluster 5, nickel/peptides/opines)&lt;br&gt;Location: 114883 - 116371" style="stroke:black; fill:white; stroke-width:1; " class="clusterblast-orf"  />
<polygon points="586,40 607,40 612,35 607,30 586,30 586,40 " locus_tag="cds116367_118134" id="dummy-3_q24_0_all" description="&lt;b&gt;cds116367_118134&lt;/b&gt;&lt;br&gt;ABC transporter, permease protein 1 (cluster 5, nickel/peptides/opines) / ABC transporter, permease protein 2 (cluster 5, nickel/peptides/opines)&lt;br&gt;Location: 116367 - 118134" style="stroke:black; fill:white; stroke-width:1; " class="clusterblast-orf"  />
<polygon points="611,40 620,40 625,35 620,30 611,30 611,40 " locus_tag="cds118102_119062" id="dummy-3_q25_0_all" description="&lt;b&gt;cds118102_119062&lt;/b&gt;&lt;br&gt;Oligopeptide ABC transporter, ATP-binding protein OppD (TC 3.A.1.5.1)&lt;br&gt;Location: 118102 - 119062" style="stroke:black; fill:white; stroke-width:1; " class="clusterblast-orf"  />
<polygon points="625,40 631,40 636,35 631,30 625,30 625,40 " locus_tag="cds119058_119775" id="dummy-3_q26_0_all" description="&lt;b&gt;cds119058_119775&lt;/b&gt;&lt;br&gt;Oligopeptide transport ATP-binding protein OppF (TC 3.A.1.5.1)&lt;br&gt;Location: 119058 - 119775" style="stroke:black; fill:white; stroke-width:1; " class="clusterblast-orf"  />
<polygon points="636,35 641,30 641,30 641,40 641,40 636,35 " locus_tag="cds119767_120127" id="dummy-3_q27_0_all" description="&lt;b&gt;cds119767_120127&lt;/b&gt;&lt;br&gt;hypothetical protein&lt;br&gt;Location: 119767 - 120127" style="stroke:black; fill:white; stroke-width:1; " class="clusterblast-orf"  />
<polygon points="641,35 646,30 648,30 648,40 646,40 641,35 " locus_tag="cds120143_120638" id="dummy-3_q28_0_all" description="&lt;b&gt;cds120143_120638&lt;/b&gt;&lt;br&gt;hypothetical protein&lt;br&gt;Location: 120143 - 120638" style="stroke:black; fill:white; stroke-width:1; " class="clusterblast-orf"  />
<polygon points="650,40 657,40 662,35 657,30 650,30 650,40 " locus_tag="cds120719_121571" id="dummy-3_q29_0_all" description="&lt;b&gt;cds120719_121571&lt;/b&gt;&lt;br&gt;Transcriptional regulator, LysR family&lt;br&gt;Location: 120719 - 121571" style="stroke:black; fill:white; stroke-width:1; " class="clusterblast-orf"  />
<polygon points="664,40 670,40 675,35 670,30 664,30 664,40 " locus_tag="cds121701_122439" id="dummy-3_q30_0_all" description="&lt;b&gt;cds121701_122439&lt;/b&gt;&lt;br&gt;hypothetical protein&lt;br&gt;Location: 121701 - 122439" style="stroke:black; fill:white; stroke-width:1; " class="clusterblast-orf"  />
<polygon points="675,35 680,30 686,30 686,40 680,40 675,35 " locus_tag="cds122475_123216" id="dummy-3_q31_0_all" description="&lt;b&gt;cds122475_123216&lt;/b&gt;&lt;br&gt;hypothetical protein&lt;br&gt;Location: 122475 - 123216" style="stroke:black; fill:white; stroke-width:1; " class="clusterblast-orf"  />
<polygon points="691,40 697,40 702,35 697,30 691,30 691,40 " locus_tag="cds123536_124268" id="dummy-3_q32_0_all" description="&lt;b&gt;cds123536_124268&lt;/b&gt;&lt;br&gt;hypothetical protein&lt;br&gt;Location: 123536 - 124268" style="stroke:black; fill:white; stroke-width:1; " class="clusterblast-orf"  />
<polygon points="703,35 708,30 710,30 710,40 708,40 703,35 " locus_tag="cds124337_124814" id="dummy-3_q33_0_all" description="&lt;b&gt;cds124337_124814&lt;/b&gt;&lt;br&gt;Spore-associated protein A precursor&lt;br&gt;Location: 124337 - 124814" style="stroke:black; fill:white; stroke-width:1; " class="clusterblast-orf"  />
<polygon points="716,40 728,40 733,35 728,30 716,30 716,40 " locus_tag="cds125248_126421" id="dummy-3_q34_0_all" description="&lt;b&gt;cds125248_126421&lt;/b&gt;&lt;br&gt;Alanyl-tRNA synthetase-related protein&lt;br&gt;Location: 125248 - 126421" style="stroke:black; fill:white; stroke-width:1; " class="clusterblast-orf"  />
<polygon points="734,35 739,30 742,30 742,40 739,40 734,35 " locus_tag="cds126442_127042" id="dummy-3_q35_0_all" description="&lt;b&gt;cds126442_127042&lt;/b&gt;&lt;br&gt;Methyltransferase type 12&lt;br&gt;Location: 126442 - 127042" style="stroke:black; fill:white; stroke-width:1; " class="clusterblast-orf"  />
<polygon points="744,40 745,40 750,35 745,30 744,30 744,40 " locus_tag="cds127148_127544" id="dummy-3_q36_0_all" description="&lt;b&gt;cds127148_127544&lt;/b&gt;&lt;br&gt;hypothetical protein&lt;br&gt;Location: 127148 - 127544" style="stroke:black; fill:white; stroke-width:1; " class="clusterblast-orf"  />
</g>
<g description="BGC0000269_c1: SF2575 (4% of genes show similarity), Polyketide:Type II + Saccharide:Hybrid/tailoring" class="clusterblast-cluster" label="BGC0000269"  >
<text class="clusterblast-acc" y="70" x="5"  >
<a xlink:href="https://mibig.secondarymetabolites.org/go/BGC0000269/1" target="_blank">BGC0000269</a>:                                                                           SF2575 (4% of genes show similarity), Polyketide:Type II + Saccharide:Hybrid/tailoring</text>
<line x2="778.0" y1="85" x1="10" style="stroke:grey; stroke-width:1; " y2="85"  />
</g>
<g id="a3_000"  >
<polygon points="0,85 5,80 14,80 14,90 5,90 0,85 " locus_tag="ADE34524.1" id="dummy-3_h3_10_0" description="&lt;b&gt;ADE34524.1&lt;/b&gt;&lt;br&gt;AraC family transcriptional regulator&lt;br&gt;Location: 53255 - 52287" style="stroke:black; fill:white; stroke-width:1; " class="clusterblast-orf"  />
</g>
<g id="a3_001"  >
<polygon points="14,90 15,90 20,85 15,80 14,80 14,90 " locus_tag="ADE34523.1" id="dummy-3_h3_10_1" description="&lt;b&gt;ADE34523.1&lt;/b&gt;&lt;br&gt;hypothetical protein&lt;br&gt;Location: 52236 - 51841" style="stroke:black; fill:white; stroke-width:1; " class="clusterblast-orf"  />
</g>
<g id="a3_002"  >
<polygon points="20,85 25,80 47,80 47,90 25,90 20,85 " locus_tag="ADE34522.1" id="dummy-3_h3_10_2" description="&lt;b&gt;ADE34522.1&lt;/b&gt;&lt;br&gt;hypothetical protein&lt;br&gt;Location: 51838 - 49988" style="stroke:black; fill:white; stroke-width:1; " class="clusterblast-orf"  />
</g>
<g id="a3_003"  >
<polygon points="50,85 55,80 77,80 77,90 55,90 50,85 " locus_tag="ADE34521.1" id="dummy-3_h3_10_3" description="&lt;b&gt;ADE34521.1&lt;/b&gt;&lt;br&gt;ssfD&lt;br&gt;Location: 49791 - 47938" style="stroke:black; fill:white; stroke-width:1; " class="clusterblast-orf"  />
</g>
<g id="a3_004"  >
<polygon points="80,85 84,80 84,90 80,85 " locus_tag="ADE34520.1" id="dummy-3_h3_10_4" description="&lt;b&gt;ADE34520.1&lt;/b&gt;&lt;br&gt;ssfC&lt;br&gt;Location: 47748 - 47491" style="stroke:black; fill:white; stroke-width:1; " class="clusterblast-orf"  />
</g>
<g id="a3_005"  >
<polygon points="85,85 90,80 103,80 103,90 90,90 85,85 " locus_tag="ADE34519.1" id="dummy-3_h3_10_5" description="&lt;b&gt;ADE34519.1&lt;/b&gt;&lt;br&gt;ssfB&lt;br&gt;Location: 47440 - 46202" style="stroke:black; fill:white; stroke-width:1; " class="clusterblast-orf"  />
</g>
<g id="a3_006"  >
<polygon points="103,85 108,80 122,80 122,90 108,90 103,85 " locus_tag="ADE34518.1" id="dummy-3_h3_10_6" description="&lt;b&gt;ADE34518.1&lt;/b&gt;&lt;br&gt;ssfA&lt;br&gt;Location: 46205 - 44931" style="stroke:black; fill:white; stroke-width:1; " class="clusterblast-orf"  />
</g>
<g id="a3_007"  >
<polygon points="135,90 142,90 147,85 142,80 135,80 135,90 " locus_tag="ADE34517.1" id="dummy-3_h3_10_7" description="&lt;b&gt;ADE34517.1&lt;/b&gt;&lt;br&gt;ssfT1&lt;br&gt;Location: 43988 - 43176" style="stroke:black; fill:white; stroke-width:1; " class="clusterblast-orf"  />
</g>
<g id="a3_008"  >
<polygon points="148,85 153,80 163,80 163,90 153,90 148,85 " locus_tag="ADE34516.1" id="dummy-3_h3_10_8" description="&lt;b&gt;ADE34516.1&lt;/b&gt;&lt;br&gt;ssfS2&lt;br&gt;Location: 43112 - 42129" style="stroke:black; fill:white; stroke-width:1; " class="clusterblast-orf"  />
</g>
<g id="a3_009"  >
<polygon points="163,85 168,80 178,80 178,90 168,90 163,85 " locus_tag="ADE34515.1" id="dummy-3_h3_10_9" description="&lt;b&gt;ADE34515.1&lt;/b&gt;&lt;br&gt;ssfS1&lt;br&gt;Location: 42132 - 41065" style="stroke:black; fill:white; stroke-width:1; " class="clusterblast-orf"  />
</g>
<g id="a3_0010"  >
<polygon points="180,85 184,80 184,90 180,85 " locus_tag="ADE34514.1" id="dummy-3_h3_10_10" description="&lt;b&gt;ADE34514.1&lt;/b&gt;&lt;br&gt;ssfX1&lt;br&gt;Location: 40919 - 40698" style="stroke:black; fill:white; stroke-width:1; " class="clusterblast-orf"  />
</g>
<g id="a3_0011"  >
<polygon points="184,85 189,80 208,80 208,90 189,90 184,85 " locus_tag="ADE34513.1" id="dummy-3_h3_10_11" description="&lt;b&gt;ADE34513.1&lt;/b&gt;&lt;br&gt;ssfE&lt;br&gt;Location: 40654 - 39023" style="stroke:black; fill:white; stroke-width:1; " class="clusterblast-orf"  />
</g>
<g id="a3_0012"  >
<polygon points="209,85 214,80 223,80 223,90 214,90 209,85 " locus_tag="ADE34525.1" id="dummy-3_h3_10_12" description="&lt;b&gt;ADE34525.1&lt;/b&gt;&lt;br&gt;ssfF&lt;br&gt;Location: 38976 - 38005" style="stroke:black; fill:white; stroke-width:1; " class="clusterblast-orf"  />
</g>
<g id="a3_0013"  >
<polygon points="226,90 238,90 243,85 238,80 226,80 226,90 " locus_tag="ADE34512.1" id="dummy-3_h3_10_13" description="&lt;b&gt;ADE34512.1&lt;/b&gt;&lt;br&gt;ssfS6&lt;br&gt;Location: 37820 - 36669" style="stroke:black; fill:white; stroke-width:1; " class="clusterblast-orf"  />
</g>
<g id="a3_0014"  >
<polygon points="246,85 251,80 260,80 260,90 251,90 246,85 " locus_tag="ADE34511.1" id="dummy-3_h3_10_14" description="&lt;b&gt;ADE34511.1&lt;/b&gt;&lt;br&gt;ssfS4&lt;br&gt;Location: 36438 - 35503" style="stroke:black; fill:white; stroke-width:1; " class="clusterblast-orf"  />
</g>
<g id="a3_0015"  >
<polygon points="260,85 265,80 280,80 280,90 265,90 260,85 " locus_tag="ADE34510.1" id="dummy-3_h3_10_15" description="&lt;b&gt;ADE34510.1&lt;/b&gt;&lt;br&gt;ssfS3&lt;br&gt;Location: 35506 - 34103" style="stroke:black; fill:white; stroke-width:1; " class="clusterblast-orf"  />
</g>
<g id="a3_0016"  >
<polygon points="281,85 286,80 296,80 296,90 286,90 281,85 " locus_tag="ADE34509.1" id="dummy-3_h3_10_16" description="&lt;b&gt;ADE34509.1&lt;/b&gt;&lt;br&gt;ssfG&lt;br&gt;Location: 34029 - 33010" style="stroke:black; fill:white; stroke-width:1; " class="clusterblast-orf"  />
</g>
<g id="a3_0017"  >
<polygon points="300,90 309,90 314,85 309,80 300,80 300,90 " locus_tag="ADE34508.1" id="dummy-3_h3_10_17" description="&lt;b&gt;ADE34508.1&lt;/b&gt;&lt;br&gt;ssfM1&lt;br&gt;Location: 32774 - 31776" style="stroke:black; fill:white; stroke-width:1; " class="clusterblast-orf"  />
</g>
<g id="a3_0018"  >
<polygon points="319,90 333,90 338,85 333,80 319,80 319,90 " locus_tag="ADE34507.1" id="dummy-3_h3_10_18" description="&lt;b&gt;ADE34507.1&lt;/b&gt;&lt;br&gt;ssfH&lt;br&gt;Location: 31457 - 30132&lt;br&gt;&lt;br&gt;&lt;b&gt;BlastP hit with cds83363_84776&lt;/b&gt;&lt;br&gt;Percentage identity: 46&lt;br&gt;Percentage coverage: 93&lt;br&gt;BLAST bit score: 331&lt;br&gt;E-value: 2.4e-90" style="stroke:black; fill:#d81515; stroke-width:1; " class="clusterblast-orf"  />
</g>
<g id="a3_0019"  >
<polygon points="343,90 356,90 361,85 356,80 343,80 343,90 " locus_tag="ADE34506.1" id="dummy-3_h3_10_19" description="&lt;b&gt;ADE34506.1&lt;/b&gt;&lt;br&gt;ssfI&lt;br&gt;Location: 29816 - 28569" style="stroke:black; fill:white; stroke-width:1; " class="clusterblast-orf"  />
</g>
<g id="a3_0020"  >
<polygon points="362,85 367,80 374,80 374,90 367,90 362,85 " locus_tag="ADE34505.1" id="dummy-3_h3_10_20" description="&lt;b&gt;ADE34505.1&lt;/b&gt;&lt;br&gt;ssfJ&lt;br&gt;Location: 28533 - 27739" style="stroke:black; fill:white; stroke-width:1; " class="clusterblast-orf"  />
</g>
<g id="a3_0021"  >
<polygon points="373,85 378,80 384,80 384,90 378,90 373,85 " locus_tag="ADE34504.1" id="dummy-3_h3_10_21" description="&lt;b&gt;ADE34504.1&lt;/b&gt;&lt;br&gt;ssfK&lt;br&gt;Location: 27748 - 27008" style="stroke:black; fill:white; stroke-width:1; " class="clusterblast-orf"  />
</g>
<g id="a3_0022"  >
<polygon points="385,85 390,80 397,80 397,90 390,90 385,85 " locus_tag="ADE34503.1" id="dummy-3_h3_10_22" description="&lt;b&gt;ADE34503.1&lt;/b&gt;&lt;br&gt;ssfN&lt;br&gt;Location: 26991 - 26113" style="stroke:black; fill:white; stroke-width:1; " class="clusterblast-orf"  />
</g>
<g id="a3_0023"  >
<polygon points="402,85 407,80 412,80 412,90 407,90 402,85 " locus_tag="ADE34502.1" id="dummy-3_h3_10_23" description="&lt;b&gt;ADE34502.1&lt;/b&gt;&lt;br&gt;ssfT2&lt;br&gt;Location: 25766 - 25137" style="stroke:black; fill:white; stroke-width:1; " class="clusterblast-orf"  />
</g>
<g id="a3_0024"  >
<polygon points="413,90 432,90 437,85 432,80 413,80 413,90 " locus_tag="ADE34501.1" id="dummy-3_h3_10_24" description="&lt;b&gt;ADE34501.1&lt;/b&gt;&lt;br&gt;ssfR&lt;br&gt;Location: 25044 - 23407" style="stroke:black; fill:white; stroke-width:1; " class="clusterblast-orf"  />
</g>
<g id="a3_0025"  >
<polygon points="437,85 442,80 450,80 450,90 442,90 437,85 " locus_tag="ADE34500.1" id="dummy-3_h3_10_25" description="&lt;b&gt;ADE34500.1&lt;/b&gt;&lt;br&gt;ssfP&lt;br&gt;Location: 23382 - 22528" style="stroke:black; fill:white; stroke-width:1; " class="clusterblast-orf"  />
</g>
<g id="a3_0026"  >
<polygon points="451,90 469,90 474,85 469,80 451,80 451,90 " locus_tag="ADE34499.1" id="dummy-3_h3_10_26" description="&lt;b&gt;ADE34499.1&lt;/b&gt;&lt;br&gt;ssfO1&lt;br&gt;Location: 22424 - 20880" style="stroke:black; fill:white; stroke-width:1; " class="clusterblast-orf"  />
</g>
<g id="a3_0027"  >
<polygon points="475,90 484,90 489,85 484,80 475,80 475,90 " locus_tag="ADE34498.1" id="dummy-3_h3_10_27" description="&lt;b&gt;ADE34498.1&lt;/b&gt;&lt;br&gt;ssfM2&lt;br&gt;Location: 20843 - 19848" style="stroke:black; fill:white; stroke-width:1; " class="clusterblast-orf"  />
</g>
<g id="a3_0028"  >
<polygon points="493,90 505,90 510,85 505,80 493,80 493,90 " locus_tag="ADE34497.1" id="dummy-3_h3_10_28" description="&lt;b&gt;ADE34497.1&lt;/b&gt;&lt;br&gt;ssfQ&lt;br&gt;Location: 19614 - 18406" style="stroke:black; fill:white; stroke-width:1; " class="clusterblast-orf"  />
</g>
<g id="a3_0029"  >
<polygon points="512,90 522,90 527,85 522,80 512,80 512,90 " locus_tag="ADE34496.1" id="dummy-3_h3_10_29" description="&lt;b&gt;ADE34496.1&lt;/b&gt;&lt;br&gt;ssfX2&lt;br&gt;Location: 18319 - 17303" style="stroke:black; fill:white; stroke-width:1; " class="clusterblast-orf"  />
</g>
<g id="a3_0030"  >
<polygon points="527,90 546,90 551,85 546,80 527,80 527,90 " locus_tag="ADE34495.1" id="dummy-3_h3_10_30" description="&lt;b&gt;ADE34495.1&lt;/b&gt;&lt;br&gt;ssfL1&lt;br&gt;Location: 17254 - 15623&lt;br&gt;&lt;br&gt;&lt;b&gt;BlastP hit with cds107150_109046&lt;/b&gt;&lt;br&gt;Percentage identity: 50&lt;br&gt;Percentage coverage: 72&lt;br&gt;BLAST bit score: 405&lt;br&gt;E-value: 1.7e-112" style="stroke:black; fill:#15d8d8; stroke-width:1; " class="clusterblast-orf"  />
</g>
<g id="a3_0031"  >
<polygon points="553,90 564,90 569,85 564,80 553,80 553,90 " locus_tag="ADE34494.1" id="dummy-3_h3_10_31" description="&lt;b&gt;ADE34494.1&lt;/b&gt;&lt;br&gt;ssfX3&lt;br&gt;Location: 15514 - 14417" style="stroke:black; fill:white; stroke-width:1; " class="clusterblast-orf"  />
</g>
<g id="a3_0032"  >
<polygon points="570,85 575,80 594,80 594,90 575,90 570,85 " locus_tag="ADE34493.1" id="dummy-3_h3_10_32" description="&lt;b&gt;ADE34493.1&lt;/b&gt;&lt;br&gt;ssfL2&lt;br&gt;Location: 14319 - 12718" style="stroke:black; fill:white; stroke-width:1; " class="clusterblast-orf"  />
</g>
<g id="a3_0033"  >
<polygon points="594,85 599,80 609,80 609,90 599,90 594,85 " locus_tag="ADE34492.1" id="dummy-3_h3_10_33" description="&lt;b&gt;ADE34492.1&lt;/b&gt;&lt;br&gt;ssfS5&lt;br&gt;Location: 12715 - 11711" style="stroke:black; fill:white; stroke-width:1; " class="clusterblast-orf"  />
</g>
<g id="a3_0034"  >
<polygon points="610,90 617,90 622,85 617,80 610,80 610,90 " locus_tag="ADE34491.1" id="dummy-3_h3_10_34" description="&lt;b&gt;ADE34491.1&lt;/b&gt;&lt;br&gt;ssfU&lt;br&gt;Location: 11600 - 10815" style="stroke:black; fill:white; stroke-width:1; " class="clusterblast-orf"  />
</g>
<g id="a3_0035"  >
<polygon points="622,90 631,90 636,85 631,80 622,80 622,90 " locus_tag="ADE34490.1" id="dummy-3_h3_10_35" description="&lt;b&gt;ADE34490.1&lt;/b&gt;&lt;br&gt;ssfY1&lt;br&gt;Location: 10774 - 9830" style="stroke:black; fill:white; stroke-width:1; " class="clusterblast-orf"  />
</g>
<g id="a3_0036"  >
<polygon points="637,85 642,80 651,80 651,90 642,90 637,85 " locus_tag="ADE34489.1" id="dummy-3_h3_10_36" description="&lt;b&gt;ADE34489.1&lt;/b&gt;&lt;br&gt;ssfY2&lt;br&gt;Location: 9749 - 8817" style="stroke:black; fill:white; stroke-width:1; " class="clusterblast-orf"  />
</g>
<g id="a3_0037"  >
<polygon points="652,85 657,80 665,80 665,90 657,90 652,85 " locus_tag="ADE34488.1" id="dummy-3_h3_10_37" description="&lt;b&gt;ADE34488.1&lt;/b&gt;&lt;br&gt;ssfY3&lt;br&gt;Location: 8748 - 7873" style="stroke:black; fill:white; stroke-width:1; " class="clusterblast-orf"  />
</g>
<g id="a3_0038"  >
<polygon points="665,85 670,80 680,80 680,90 670,90 665,85 " locus_tag="ADE34487.1" id="dummy-3_h3_10_38" description="&lt;b&gt;ADE34487.1&lt;/b&gt;&lt;br&gt;ssfM3&lt;br&gt;Location: 7876 - 6827" style="stroke:black; fill:white; stroke-width:1; " class="clusterblast-orf"  />
</g>
<g id="a3_0039"  >
<polygon points="684,90 684,90 689,85 684,80 684,80 684,90 " locus_tag="ADE34486.1" id="dummy-3_h3_10_39" description="&lt;b&gt;ADE34486.1&lt;/b&gt;&lt;br&gt;ssfY4&lt;br&gt;Location: 6588 - 6217" style="stroke:black; fill:white; stroke-width:1; " class="clusterblast-orf"  />
</g>
<g id="a3_0040"  >
<polygon points="691,85 696,80 706,80 706,90 696,90 691,85 " locus_tag="ADE34485.1" id="dummy-3_h3_10_40" description="&lt;b&gt;ADE34485.1&lt;/b&gt;&lt;br&gt;ssfV&lt;br&gt;Location: 6079 - 5087" style="stroke:black; fill:white; stroke-width:1; " class="clusterblast-orf"  />
</g>
<g id="a3_0041"  >
<polygon points="706,85 711,80 721,80 721,90 711,90 706,85 " locus_tag="ADE34484.1" id="dummy-3_h3_10_41" description="&lt;b&gt;ADE34484.1&lt;/b&gt;&lt;br&gt;ssfM4&lt;br&gt;Location: 5084 - 4053" style="stroke:black; fill:white; stroke-width:1; " class="clusterblast-orf"  />
</g>
<g id="a3_0042"  >
<polygon points="723,90 743,90 748,85 743,80 723,80 723,90 " locus_tag="ADE34483.1" id="dummy-3_h3_10_42" description="&lt;b&gt;ADE34483.1&lt;/b&gt;&lt;br&gt;ssfO2&lt;br&gt;Location: 3879 - 2224" style="stroke:black; fill:white; stroke-width:1; " class="clusterblast-orf"  />
</g>
<g id="a3_0043"  >
<polygon points="749,85 754,80 754,80 754,90 754,90 749,85 " locus_tag="ADE34482.1" id="dummy-3_h3_10_43" description="&lt;b&gt;ADE34482.1&lt;/b&gt;&lt;br&gt;hypothetical protein&lt;br&gt;Location: 2143 - 1805" style="stroke:black; fill:white; stroke-width:1; " class="clusterblast-orf"  />
</g>
<g id="a3_0044"  >
<polygon points="754,85 759,80 761,80 761,90 759,90 754,85 " locus_tag="ADE34481.1" id="dummy-3_h3_10_44" description="&lt;b&gt;ADE34481.1&lt;/b&gt;&lt;br&gt;SUF system FeS assembly protein&lt;br&gt;Location: 1808 - 1344" style="stroke:black; fill:white; stroke-width:1; " class="clusterblast-orf"  />
</g>
<g id="a3_0045"  >
<polygon points="761,85 766,80 780,80 780,90 766,90 761,85 " locus_tag="ADE34480.1" id="dummy-3_h3_10_45" description="&lt;b&gt;ADE34480.1&lt;/b&gt;&lt;br&gt;cysteine desulferase&lt;br&gt;Location: 1327 - 50" style="stroke:black; fill:white; stroke-width:1; " class="clusterblast-orf"  />
</g>
</svg>
