<svg version="1.1" height="230" y="0" xmlns="http://www.w3.org/2000/svg" x="0" preserveAspectRatio="none" xmlns:xlink="http://www.w3.org/1999/xlink" width="800" viewBox="0 0 800 230"  >
<g class="clusterblast-cluster" label="Query sequence"  >
<text class="clusterblast-acc" y="20" x="5"  >
Query sequence</text>
<line x2="778.0" y1="35" x1="10" style="stroke:grey; stroke-width:1; " y2="35"  />
<polygon points="307,35 312,30 315,30 315,40 312,40 307,35 " locus_tag="cds21937_22537" id="dummy-1_q0_0_all" description="&lt;b&gt;cds21937_22537&lt;/b&gt;&lt;br&gt;Fructose-1,6-bisphosphatase, Mycobacterial type SUP1 (EC 3.1.3.11); Sugar phosphatase SUP1 (EC 3.1.3.23)&lt;br&gt;Location: 21937 - 22537" style="stroke:black; fill:white; stroke-width:1; " class="clusterblast-orf"  />
<polygon points="315,35 320,30 331,30 331,40 320,40 315,35 " locus_tag="cds22567_23776" id="dummy-1_q1_0_all" description="&lt;b&gt;cds22567_23776&lt;/b&gt;&lt;br&gt;Alanine transaminase (EC 2.6.1.2)&lt;br&gt;Location: 22567 - 23776" style="stroke:black; fill:white; stroke-width:1; " class="clusterblast-orf"  />
<polygon points="332,40 335,40 340,35 335,30 332,30 332,40 " locus_tag="cds23863_24511" id="dummy-1_q2_0_all" description="&lt;b&gt;cds23863_24511&lt;/b&gt;&lt;br&gt;Transcriptional regulator, HxlR family / Domain of unknown function&lt;br&gt;Location: 23863 - 24511" style="stroke:black; fill:white; stroke-width:1; " class="clusterblast-orf"  />
<polygon points="341,35 346,30 351,30 351,40 346,40 341,35 " locus_tag="cds24561_25365" id="dummy-1_q3_0_all" description="&lt;b&gt;cds24561_25365&lt;/b&gt;&lt;br&gt;putative secreted protein&lt;br&gt;Location: 24561 - 25365" style="stroke:black; fill:white; stroke-width:1; " class="clusterblast-orf"  />
<polygon points="351,35 356,30 367,30 367,40 356,40 351,35 " locus_tag="cds25364_26648" id="dummy-1_q4_0_all" description="&lt;b&gt;cds25364_26648&lt;/b&gt;&lt;br&gt;putative secreted protein&lt;br&gt;Location: 25364 - 26648" style="stroke:black; fill:white; stroke-width:1; " class="clusterblast-orf"  />
<polygon points="368,35 373,30 387,30 387,40 373,40 368,35 " locus_tag="cds26711_28211" id="dummy-1_q5_0_all" description="&lt;b&gt;cds26711_28211&lt;/b&gt;&lt;br&gt;hypothetical protein&lt;br&gt;Location: 26711 - 28211" style="stroke:black; fill:white; stroke-width:1; " class="clusterblast-orf"  />
<polygon points="389,40 404,40 409,35 404,30 389,30 389,40 " locus_tag="cds28325_29885" id="dummy-1_q6_0_all" description="&lt;b&gt;cds28325_29885&lt;/b&gt;&lt;br&gt;Siderophore synthetase superfamily, group A&lt;br&gt;Location: 28325 - 29885" style="stroke:black; fill:white; stroke-width:1; " class="clusterblast-orf"  />
<polygon points="409,35 411,30 411,40 409,35 " locus_tag="cds29900_30023" id="dummy-1_q7_0_all" description="&lt;b&gt;cds29900_30023&lt;/b&gt;&lt;br&gt;hypothetical protein&lt;br&gt;Location: 29900 - 30023" style="stroke:black; fill:white; stroke-width:1; " class="clusterblast-orf"  />
<polygon points="411,40 417,40 422,35 417,30 411,30 411,40 " locus_tag="cds30034_30949" id="dummy-1_q8_0_all" description="&lt;b&gt;cds30034_30949&lt;/b&gt;&lt;br&gt;hypothetical protein&lt;br&gt;Location: 30034 - 30949" style="stroke:black; fill:#d81515; stroke-width:1; " class="clusterblast-orf"  />
<polygon points="423,35 428,30 444,30 444,40 428,40 423,35 " locus_tag="cds31017_32640" id="dummy-1_q9_0_all" description="&lt;b&gt;cds31017_32640&lt;/b&gt;&lt;br&gt;Malate synthase (EC 2.3.3.9)&lt;br&gt;Location: 31017 - 32640" style="stroke:black; fill:#15d863; stroke-width:1; " class="clusterblast-orf"  />
<polygon points="446,35 451,30 454,30 454,40 451,40 446,35 " locus_tag="cds32824_33445" id="dummy-1_q10_0_all" description="&lt;b&gt;cds32824_33445&lt;/b&gt;&lt;br&gt;Molybdenum cofactor cytidylyltransferase (EC 2.7.7.76)&lt;br&gt;Location: 32824 - 33445" style="stroke:black; fill:#1563d8; stroke-width:1; " class="clusterblast-orf"  />
<polygon points="457,40 461,35 457,30 457,40 " locus_tag="cds33645_33957" id="dummy-1_q11_0_all" description="&lt;b&gt;cds33645_33957&lt;/b&gt;&lt;br&gt;hypothetical protein&lt;br&gt;Location: 33645 - 33957" style="stroke:black; fill:#b115d8; stroke-width:1; " class="clusterblast-orf"  />
<polygon points="462,35 467,30 472,30 472,40 467,40 462,35 " locus_tag="cds34026_34842" id="dummy-1_q12_0_all" description="&lt;b&gt;cds34026_34842&lt;/b&gt;&lt;br&gt;Transcriptional regulator, IclR family&lt;br&gt;Location: 34026 - 34842" style="stroke:black; fill:#b1d815; stroke-width:1; " class="clusterblast-orf"  />
</g>
<g description="BGC0001732_c1: paulomycin (9% of genes show similarity), Other" class="clusterblast-cluster" label="BGC0001732"  >
<text class="clusterblast-acc" y="70" x="5"  >
<a xlink:href="https://mibig.secondarymetabolites.org/go/BGC0001732/1" target="_blank">BGC0001732</a>:                                                                       paulomycin (9% of genes show similarity), Other</text>
<line x2="778.0" y1="85" x1="10" style="stroke:grey; stroke-width:1; " y2="85"  />
</g>
<g id="a1_000"  >
<polygon points="0,90 9,90 14,85 9,80 0,80 0,90 " locus_tag="AIE54221.1" id="dummy-1_h1_1_0" description="&lt;b&gt;AIE54221.1&lt;/b&gt;&lt;br&gt;PauY1&lt;br&gt;Location: 2272 - 3420" style="stroke:black; fill:white; stroke-width:1; " class="clusterblast-orf"  />
</g>
<g id="a1_001"  >
<polygon points="14,85 19,80 25,80 25,90 19,90 14,85 " locus_tag="AIE54222.1" id="dummy-1_h1_1_1" description="&lt;b&gt;AIE54222.1&lt;/b&gt;&lt;br&gt;PauY2&lt;br&gt;Location: 3436 - 4239" style="stroke:black; fill:white; stroke-width:1; " class="clusterblast-orf"  />
</g>
<g id="a1_002"  >
<polygon points="27,90 34,90 39,85 34,80 27,80 27,90 " locus_tag="AIE54223.1" id="dummy-1_h1_1_2" description="&lt;b&gt;AIE54223.1&lt;/b&gt;&lt;br&gt;PauY3&lt;br&gt;Location: 4439 - 5356&lt;br&gt;&lt;br&gt;&lt;b&gt;BlastP hit with cds30034_30949&lt;/b&gt;&lt;br&gt;Percentage identity: 66&lt;br&gt;Percentage coverage: 101&lt;br&gt;BLAST bit score: 394&lt;br&gt;E-value: 1.9e-109" style="stroke:black; fill:#d81515; stroke-width:1; " class="clusterblast-orf"  />
</g>
<g id="a1_003"  >
<polygon points="41,90 44,90 49,85 44,80 41,80 41,90 " locus_tag="AIE54224.1" id="dummy-1_h1_1_3" description="&lt;b&gt;AIE54224.1&lt;/b&gt;&lt;br&gt;PauY4&lt;br&gt;Location: 5538 - 6119" style="stroke:black; fill:white; stroke-width:1; " class="clusterblast-orf"  />
</g>
<g id="a1_004"  >
<polygon points="51,85 56,80 64,80 64,90 56,90 51,85 " locus_tag="AIE54225.1" id="dummy-1_h1_1_4" description="&lt;b&gt;AIE54225.1&lt;/b&gt;&lt;br&gt;PauY5&lt;br&gt;Location: 6303 - 7283" style="stroke:black; fill:white; stroke-width:1; " class="clusterblast-orf"  />
</g>
<g id="a1_005"  >
<polygon points="67,90 77,90 82,85 77,80 67,80 67,90 " locus_tag="AIE54226.1" id="dummy-1_h1_1_5" description="&lt;b&gt;AIE54226.1&lt;/b&gt;&lt;br&gt;PauY6&lt;br&gt;Location: 7538 - 8707" style="stroke:black; fill:white; stroke-width:1; " class="clusterblast-orf"  />
</g>
<g id="a1_006"  >
<polygon points="83,90 88,90 93,85 88,80 83,80 83,90 " locus_tag="AIE54227.1" id="dummy-1_h1_1_6" description="&lt;b&gt;AIE54227.1&lt;/b&gt;&lt;br&gt;PauY7&lt;br&gt;Location: 8800 - 9618" style="stroke:black; fill:white; stroke-width:1; " class="clusterblast-orf"  />
</g>
<g id="a1_007"  >
<polygon points="97,85 102,80 103,80 103,90 102,90 97,85 " locus_tag="AIE54228.1" id="dummy-1_h1_1_7" description="&lt;b&gt;AIE54228.1&lt;/b&gt;&lt;br&gt;PauY8&lt;br&gt;Location: 9868 - 10356" style="stroke:black; fill:white; stroke-width:1; " class="clusterblast-orf"  />
</g>
<g id="a1_008"  >
<polygon points="106,90 120,90 125,85 120,80 106,80 106,90 " locus_tag="AIE54229.1" id="dummy-1_h1_1_8" description="&lt;b&gt;AIE54229.1&lt;/b&gt;&lt;br&gt;PauY9&lt;br&gt;Location: 10636 - 12078" style="stroke:black; fill:white; stroke-width:1; " class="clusterblast-orf"  />
</g>
<g id="a1_009"  >
<polygon points="125,90 148,90 153,85 148,80 125,80 125,90 " locus_tag="AIE54230.1" id="dummy-1_h1_1_9" description="&lt;b&gt;AIE54230.1&lt;/b&gt;&lt;br&gt;PauY10&lt;br&gt;Location: 12127 - 14256" style="stroke:black; fill:white; stroke-width:1; " class="clusterblast-orf"  />
</g>
<g id="a1_0010"  >
<polygon points="156,90 164,90 169,85 164,80 156,80 156,90 " locus_tag="AIE54231.1" id="dummy-1_h1_1_10" description="&lt;b&gt;AIE54231.1&lt;/b&gt;&lt;br&gt;PauY11&lt;br&gt;Location: 14552 - 15529" style="stroke:black; fill:white; stroke-width:1; " class="clusterblast-orf"  />
</g>
<g id="a1_0011"  >
<polygon points="169,90 178,90 183,85 178,80 169,80 169,90 " locus_tag="AIE54232.1" id="dummy-1_h1_1_11" description="&lt;b&gt;AIE54232.1&lt;/b&gt;&lt;br&gt;PauY12&lt;br&gt;Location: 15562 - 16599" style="stroke:black; fill:white; stroke-width:1; " class="clusterblast-orf"  />
</g>
<g id="a1_0012"  >
<polygon points="184,85 189,80 195,80 195,90 189,90 184,85 " locus_tag="AIE54233.1" id="dummy-1_h1_1_12" description="&lt;b&gt;AIE54233.1&lt;/b&gt;&lt;br&gt;PauY13&lt;br&gt;Location: 16713 - 17573" style="stroke:black; fill:white; stroke-width:1; " class="clusterblast-orf"  />
</g>
<g id="a1_0013"  >
<polygon points="201,90 210,90 215,85 210,80 201,80 201,90 " locus_tag="AIE54234.1" id="dummy-1_h1_1_13" description="&lt;b&gt;AIE54234.1&lt;/b&gt;&lt;br&gt;PauY14&lt;br&gt;Location: 18056 - 19144" style="stroke:black; fill:white; stroke-width:1; " class="clusterblast-orf"  />
</g>
<g id="a1_0014"  >
<polygon points="215,90 227,90 232,85 227,80 215,80 215,90 " locus_tag="AIE54235.1" id="dummy-1_h1_1_14" description="&lt;b&gt;AIE54235.1&lt;/b&gt;&lt;br&gt;PauY15&lt;br&gt;Location: 19160 - 20440" style="stroke:black; fill:white; stroke-width:1; " class="clusterblast-orf"  />
</g>
<g id="a1_0015"  >
<polygon points="232,90 244,90 249,85 244,80 232,80 232,90 " locus_tag="AIE54236.1" id="dummy-1_h1_1_15" description="&lt;b&gt;AIE54236.1&lt;/b&gt;&lt;br&gt;PauY16&lt;br&gt;Location: 20440 - 21825" style="stroke:black; fill:white; stroke-width:1; " class="clusterblast-orf"  />
</g>
<g id="a1_0016"  >
<polygon points="250,85 255,80 265,80 265,90 255,90 250,85 " locus_tag="AIE54237.1" id="dummy-1_h1_1_16" description="&lt;b&gt;AIE54237.1&lt;/b&gt;&lt;br&gt;PauY17&lt;br&gt;Location: 21895 - 23064" style="stroke:black; fill:white; stroke-width:1; " class="clusterblast-orf"  />
</g>
<g id="a1_0017"  >
<polygon points="266,85 271,80 291,80 291,90 271,90 266,85 " locus_tag="AIE54238.1" id="dummy-1_h1_1_17" description="&lt;b&gt;AIE54238.1&lt;/b&gt;&lt;br&gt;PauY18&lt;br&gt;Location: 23094 - 25049" style="stroke:black; fill:white; stroke-width:1; " class="clusterblast-orf"  />
</g>
<g id="a1_0018"  >
<polygon points="292,85 297,80 301,80 301,90 297,90 292,85 " locus_tag="AIE54239.1" id="dummy-1_h1_1_18" description="&lt;b&gt;AIE54239.1&lt;/b&gt;&lt;br&gt;PauY19&lt;br&gt;Location: 25169 - 25828" style="stroke:black; fill:white; stroke-width:1; " class="clusterblast-orf"  />
</g>
<g id="a1_0019"  >
<polygon points="303,85 308,80 313,80 313,90 308,90 303,85 " locus_tag="AIE54240.1" id="dummy-1_h1_1_19" description="&lt;b&gt;AIE54240.1&lt;/b&gt;&lt;br&gt;PauY20&lt;br&gt;Location: 26028 - 26813" style="stroke:black; fill:white; stroke-width:1; " class="clusterblast-orf"  />
</g>
<g id="a1_0020"  >
<polygon points="314,85 319,80 329,80 329,90 319,90 314,85 " locus_tag="AIE54241.1" id="dummy-1_h1_1_20" description="&lt;b&gt;AIE54241.1&lt;/b&gt;&lt;br&gt;PauY21&lt;br&gt;Location: 26851 - 28059" style="stroke:black; fill:white; stroke-width:1; " class="clusterblast-orf"  />
</g>
<g id="a1_0021"  >
<polygon points="337,90 345,90 350,85 345,80 337,80 337,90 " locus_tag="AIE54242.1" id="dummy-1_h1_1_21" description="&lt;b&gt;AIE54242.1&lt;/b&gt;&lt;br&gt;PauY22&lt;br&gt;Location: 28689 - 29684" style="stroke:black; fill:white; stroke-width:1; " class="clusterblast-orf"  />
</g>
<g id="a1_0022"  >
<polygon points="350,90 356,90 361,85 356,80 350,80 350,90 " locus_tag="AIE54243.1" id="dummy-1_h1_1_22" description="&lt;b&gt;AIE54243.1&lt;/b&gt;&lt;br&gt;PauY23&lt;br&gt;Location: 29716 - 30585" style="stroke:black; fill:white; stroke-width:1; " class="clusterblast-orf"  />
</g>
<g id="a1_0023"  >
<polygon points="366,90 376,90 381,85 376,80 366,80 366,90 " locus_tag="AIE54244.1" id="dummy-1_h1_1_23" description="&lt;b&gt;AIE54244.1&lt;/b&gt;&lt;br&gt;PauY24&lt;br&gt;Location: 30902 - 32116" style="stroke:black; fill:white; stroke-width:1; " class="clusterblast-orf"  />
</g>
<g id="a1_0024"  >
<polygon points="382,90 391,90 396,85 391,80 382,80 382,90 " locus_tag="AIE54245.1" id="dummy-1_h1_1_24" description="&lt;b&gt;AIE54245.1&lt;/b&gt;&lt;br&gt;PauY25&lt;br&gt;Location: 32173 - 33300" style="stroke:black; fill:white; stroke-width:1; " class="clusterblast-orf"  />
</g>
<g id="a1_0025"  >
<polygon points="397,90 397,90 402,85 397,80 397,80 397,90 " locus_tag="AIE54246.1" id="dummy-1_h1_1_25" description="&lt;b&gt;AIE54246.1&lt;/b&gt;&lt;br&gt;PauY26&lt;br&gt;Location: 33355 - 33792" style="stroke:black; fill:white; stroke-width:1; " class="clusterblast-orf"  />
</g>
<g id="a1_0026"  >
<polygon points="404,85 409,80 425,80 425,90 409,90 404,85 " locus_tag="AIE54247.1" id="dummy-1_h1_1_26" description="&lt;b&gt;AIE54247.1&lt;/b&gt;&lt;br&gt;PauY27&lt;br&gt;Location: 33873 - 35516" style="stroke:black; fill:white; stroke-width:1; " class="clusterblast-orf"  />
</g>
<g id="a1_0027"  >
<polygon points="428,90 433,90 438,85 433,80 428,80 428,90 " locus_tag="AIE54248.1" id="dummy-1_h1_1_27" description="&lt;b&gt;AIE54248.1&lt;/b&gt;&lt;br&gt;PauY28&lt;br&gt;Location: 35825 - 36592" style="stroke:black; fill:white; stroke-width:1; " class="clusterblast-orf"  />
</g>
<g id="a1_0028"  >
<polygon points="440,90 448,90 453,85 448,80 440,80 440,90 " locus_tag="AIE54249.1" id="dummy-1_h1_1_28" description="&lt;b&gt;AIE54249.1&lt;/b&gt;&lt;br&gt;PauY29&lt;br&gt;Location: 36705 - 37754" style="stroke:black; fill:white; stroke-width:1; " class="clusterblast-orf"  />
</g>
<g id="a1_0029"  >
<polygon points="454,90 464,90 469,85 464,80 454,80 454,90 " locus_tag="AIE54250.1" id="dummy-1_h1_1_29" description="&lt;b&gt;AIE54250.1&lt;/b&gt;&lt;br&gt;PauY30&lt;br&gt;Location: 37816 - 38958" style="stroke:black; fill:white; stroke-width:1; " class="clusterblast-orf"  />
</g>
<g id="a1_0030"  >
<polygon points="472,85 477,80 490,80 490,90 477,90 472,85 " locus_tag="AIE54251.1" id="dummy-1_h1_1_30" description="&lt;b&gt;AIE54251.1&lt;/b&gt;&lt;br&gt;PauY31&lt;br&gt;Location: 39249 - 40616" style="stroke:black; fill:white; stroke-width:1; " class="clusterblast-orf"  />
</g>
<g id="a1_0031"  >
<polygon points="493,85 498,80 504,80 504,90 498,90 493,85 " locus_tag="AIE54252.1" id="dummy-1_h1_1_31" description="&lt;b&gt;AIE54252.1&lt;/b&gt;&lt;br&gt;PauY32&lt;br&gt;Location: 40869 - 41741" style="stroke:black; fill:white; stroke-width:1; " class="clusterblast-orf"  />
</g>
<g id="a1_0032"  >
<polygon points="507,90 521,90 526,85 521,80 507,80 507,90 " locus_tag="AIE54253.1" id="dummy-1_h1_1_32" description="&lt;b&gt;AIE54253.1&lt;/b&gt;&lt;br&gt;PauY33&lt;br&gt;Location: 41972 - 43462" style="stroke:black; fill:white; stroke-width:1; " class="clusterblast-orf"  />
</g>
<g id="a1_0033"  >
<polygon points="526,90 540,90 545,85 540,80 526,80 526,90 " locus_tag="AIE54254.1" id="dummy-1_h1_1_33" description="&lt;b&gt;AIE54254.1&lt;/b&gt;&lt;br&gt;Pau34&lt;br&gt;Location: 43467 - 44903" style="stroke:black; fill:white; stroke-width:1; " class="clusterblast-orf"  />
</g>
<g id="a1_0034"  >
<polygon points="544,90 548,85 544,80 544,90 " locus_tag="AIE54255.1" id="dummy-1_h1_1_34" description="&lt;b&gt;AIE54255.1&lt;/b&gt;&lt;br&gt;PauY35&lt;br&gt;Location: 44900 - 45196" style="stroke:black; fill:white; stroke-width:1; " class="clusterblast-orf"  />
</g>
<g id="a1_0035"  >
<polygon points="548,90 553,90 558,85 553,80 548,80 548,90 " locus_tag="AIE54256.1" id="dummy-1_h1_1_35" description="&lt;b&gt;AIE54256.1&lt;/b&gt;&lt;br&gt;PauY36&lt;br&gt;Location: 45189 - 45941" style="stroke:black; fill:white; stroke-width:1; " class="clusterblast-orf"  />
</g>
<g id="a1_0036"  >
<polygon points="558,90 562,90 567,85 562,80 558,80 558,90 " locus_tag="AIE54257.1" id="dummy-1_h1_1_36" description="&lt;b&gt;AIE54257.1&lt;/b&gt;&lt;br&gt;PauY37&lt;br&gt;Location: 45938 - 46687" style="stroke:black; fill:white; stroke-width:1; " class="clusterblast-orf"  />
</g>
<g id="a1_0037"  >
<polygon points="567,90 571,90 576,85 571,80 567,80 567,90 " locus_tag="AIE54258.1" id="dummy-1_h1_1_37" description="&lt;b&gt;AIE54258.1&lt;/b&gt;&lt;br&gt;PauY38&lt;br&gt;Location: 46681 - 47367" style="stroke:black; fill:white; stroke-width:1; " class="clusterblast-orf"  />
</g>
<g id="a1_0038"  >
<polygon points="576,90 586,90 591,85 586,80 576,80 576,90 " locus_tag="AIE54259.1" id="dummy-1_h1_1_38" description="&lt;b&gt;AIE54259.1&lt;/b&gt;&lt;br&gt;PauY39&lt;br&gt;Location: 47397 - 48539" style="stroke:black; fill:white; stroke-width:1; " class="clusterblast-orf"  />
</g>
<g id="a1_0039"  >
<polygon points="591,90 592,90 597,85 592,80 591,80 591,90 " locus_tag="AIE54260.1" id="dummy-1_h1_1_39" description="&lt;b&gt;AIE54260.1&lt;/b&gt;&lt;br&gt;PauY40&lt;br&gt;Location: 48536 - 49006" style="stroke:black; fill:white; stroke-width:1; " class="clusterblast-orf"  />
</g>
<g id="a1_0040"  >
<polygon points="597,90 612,90 617,85 612,80 597,80 597,90 " locus_tag="AIE54261.1" id="dummy-1_h1_1_40" description="&lt;b&gt;AIE54261.1&lt;/b&gt;&lt;br&gt;PauY41&lt;br&gt;Location: 48981 - 50564" style="stroke:black; fill:white; stroke-width:1; " class="clusterblast-orf"  />
</g>
<g id="a1_0041"  >
<polygon points="618,90 627,90 632,85 627,80 618,80 618,90 " locus_tag="AIE54262.1" id="dummy-1_h1_1_41" description="&lt;b&gt;AIE54262.1&lt;/b&gt;&lt;br&gt;PauY42&lt;br&gt;Location: 50681 - 51718" style="stroke:black; fill:white; stroke-width:1; " class="clusterblast-orf"  />
</g>
<g id="a1_0042"  >
<polygon points="632,90 637,90 642,85 637,80 632,80 632,90 " locus_tag="AIE54263.1" id="dummy-1_h1_1_42" description="&lt;b&gt;AIE54263.1&lt;/b&gt;&lt;br&gt;PauY43&lt;br&gt;Location: 51775 - 52548" style="stroke:black; fill:white; stroke-width:1; " class="clusterblast-orf"  />
</g>
<g id="a1_0043"  >
<polygon points="642,90 646,90 651,85 646,80 642,80 642,90 " locus_tag="AIE54264.1" id="dummy-1_h1_1_43" description="&lt;b&gt;AIE54264.1&lt;/b&gt;&lt;br&gt;PauY44&lt;br&gt;Location: 52545 - 53207" style="stroke:black; fill:white; stroke-width:1; " class="clusterblast-orf"  />
</g>
<g id="a1_0044"  >
<polygon points="652,85 657,80 673,80 673,90 657,90 652,85 " locus_tag="AIE54265.1" id="dummy-1_h1_1_44" description="&lt;b&gt;AIE54265.1&lt;/b&gt;&lt;br&gt;PauY45&lt;br&gt;Location: 53297 - 54937&lt;br&gt;&lt;br&gt;&lt;b&gt;BlastP hit with cds31017_32640&lt;/b&gt;&lt;br&gt;Percentage identity: 85&lt;br&gt;Percentage coverage: 101&lt;br&gt;BLAST bit score: 931&lt;br&gt;E-value: 7.7e-271" style="stroke:black; fill:#15d863; stroke-width:1; " class="clusterblast-orf"  />
</g>
<g id="a1_0045"  >
<polygon points="679,90 680,90 685,85 680,80 679,80 679,90 " locus_tag="AIE54266.1" id="dummy-1_h1_1_45" description="&lt;b&gt;AIE54266.1&lt;/b&gt;&lt;br&gt;PauY46&lt;br&gt;Location: 55382 - 55927" style="stroke:black; fill:white; stroke-width:1; " class="clusterblast-orf"  />
</g>
<g id="a1_0046"  >
<polygon points="685,90 693,90 698,85 693,80 685,80 685,90 " locus_tag="AIE54267.1" id="dummy-1_h1_1_46" description="&lt;b&gt;AIE54267.1&lt;/b&gt;&lt;br&gt;PauY47&lt;br&gt;Location: 55927 - 56913" style="stroke:black; fill:white; stroke-width:1; " class="clusterblast-orf"  />
</g>
<g id="a1_0047"  >
<polygon points="698,90 720,90 725,85 720,80 698,80 698,90 " locus_tag="AIE54268.1" id="dummy-1_h1_1_47" description="&lt;b&gt;AIE54268.1&lt;/b&gt;&lt;br&gt;PauY48&lt;br&gt;Location: 56936 - 59047" style="stroke:black; fill:white; stroke-width:1; " class="clusterblast-orf"  />
</g>
<g id="a1_0048"  >
<polygon points="726,85 731,80 733,80 733,90 731,90 726,85 " locus_tag="AIE54269.1" id="dummy-1_h1_1_48" description="&lt;b&gt;AIE54269.1&lt;/b&gt;&lt;br&gt;PauY49&lt;br&gt;Location: 59069 - 59653&lt;br&gt;&lt;br&gt;&lt;b&gt;BlastP hit with cds32824_33445&lt;/b&gt;&lt;br&gt;Percentage identity: 65&lt;br&gt;Percentage coverage: 96&lt;br&gt;BLAST bit score: 238&lt;br&gt;E-value: 9.1e-63" style="stroke:black; fill:#1563d8; stroke-width:1; " class="clusterblast-orf"  />
</g>
<g id="a1_0049"  >
<polygon points="737,90 741,85 737,80 737,90 " locus_tag="AIE54270.1" id="dummy-1_h1_1_49" description="&lt;b&gt;AIE54270.1&lt;/b&gt;&lt;br&gt;PauY50&lt;br&gt;Location: 59935 - 60270&lt;br&gt;&lt;br&gt;&lt;b&gt;BlastP hit with cds33645_33957&lt;/b&gt;&lt;br&gt;Percentage identity: 55&lt;br&gt;Percentage coverage: 94&lt;br&gt;BLAST bit score: 93&lt;br&gt;E-value: 1.8e-19" style="stroke:black; fill:#b115d8; stroke-width:1; " class="clusterblast-orf"  />
</g>
<g id="a1_0050"  >
<polygon points="741,85 746,80 751,80 751,90 746,90 741,85 " locus_tag="AIE54271.1" id="dummy-1_h1_1_50" description="&lt;b&gt;AIE54271.1&lt;/b&gt;&lt;br&gt;PauY51&lt;br&gt;Location: 60277 - 61083&lt;br&gt;&lt;br&gt;&lt;b&gt;BlastP hit with cds34026_34842&lt;/b&gt;&lt;br&gt;Percentage identity: 84&lt;br&gt;Percentage coverage: 99&lt;br&gt;BLAST bit score: 426&lt;br&gt;E-value: 3.1e-119" style="stroke:black; fill:#b1d815; stroke-width:1; " class="clusterblast-orf"  />
</g>
<g id="a1_0051"  >
<polygon points="755,90 767,90 772,85 767,80 755,80 755,90 " locus_tag="AIE54272.1" id="dummy-1_h1_1_51" description="&lt;b&gt;AIE54272.1&lt;/b&gt;&lt;br&gt;PauY52&lt;br&gt;Location: 61338 - 62672" style="stroke:black; fill:white; stroke-width:1; " class="clusterblast-orf"  />
</g>
<g id="a1_0052"  >
<polygon points="774,90 775,90 780,85 775,80 774,80 774,90 " locus_tag="AIE54273.1" id="dummy-1_h1_1_52" description="&lt;b&gt;AIE54273.1&lt;/b&gt;&lt;br&gt;PauY53&lt;br&gt;Location: 62853 - 63281" style="stroke:black; fill:white; stroke-width:1; " class="clusterblast-orf"  />
</g>
</svg>
