<svg version="1.1" height="230" y="0" xmlns="http://www.w3.org/2000/svg" x="0" preserveAspectRatio="none" xmlns:xlink="http://www.w3.org/1999/xlink" width="800" viewBox="0 0 800 230"  >
<g class="clusterblast-cluster" label="Query sequence"  >
<text class="clusterblast-acc" y="20" x="5"  >
Query sequence</text>
<line x2="778.0" y1="35" x1="10" style="stroke:grey; stroke-width:1; " y2="35"  />
<polygon points="318,40 321,35 318,30 318,40 " locus_tag="cds1_583" id="dummy-1_q0_0_all" description="&lt;b&gt;cds1_583&lt;/b&gt;&lt;br&gt;phosphopantetheinyl transferase PptA, putative&lt;br&gt;Location: 1 - 583" style="stroke:black; fill:white; stroke-width:1; " class="clusterblast-orf"  />
<polygon points="322,35 323,30 323,40 322,35 " locus_tag="cds646_844" id="dummy-1_q1_0_all" description="&lt;b&gt;cds646_844&lt;/b&gt;&lt;br&gt;conserved hypothetical protein&lt;br&gt;Location: 646 - 844" style="stroke:black; fill:white; stroke-width:1; " class="clusterblast-orf"  />
<polygon points="323,35 328,30 330,30 330,40 328,40 323,35 " locus_tag="cds942_2172" id="dummy-1_q2_0_all" description="&lt;b&gt;cds942_2172&lt;/b&gt;&lt;br&gt;Crotonyl-CoA carboxylase/reductase, ethylmalonyl-CoA producing&lt;br&gt;Location: 942 - 2172" style="stroke:black; fill:#d81515; stroke-width:1; " class="clusterblast-orf"  />
<polygon points="331,35 336,30 353,30 353,40 336,40 331,35 " locus_tag="cds2203_6199" id="dummy-1_q3_0_all" description="&lt;b&gt;cds2203_6199&lt;/b&gt;&lt;br&gt;Polyketide synthase modules and related proteins&lt;br&gt;Location: 2203 - 6199" style="stroke:black; fill:#15d815; stroke-width:1; " class="clusterblast-orf"  />
<polygon points="353,35 358,30 402,30 402,40 358,40 353,35 " locus_tag="cds6191_14825" id="dummy-1_q4_0_all" description="&lt;b&gt;cds6191_14825&lt;/b&gt;&lt;br&gt;hypothetical protein&lt;br&gt;Location: 6191 - 14825" style="stroke:black; fill:#1597d8; stroke-width:1; " class="clusterblast-orf"  />
<polygon points="405,40 408,40 413,35 408,30 405,30 405,40 " locus_tag="cds15308_16637" id="dummy-1_q5_0_all" description="&lt;b&gt;cds15308_16637&lt;/b&gt;&lt;br&gt;hypothetical protein&lt;br&gt;Location: 15308 - 16637" style="stroke:black; fill:#9715d8; stroke-width:1; " class="clusterblast-orf"  />
<polygon points="413,40 416,35 413,30 413,40 " locus_tag="cds16732_17251" id="dummy-1_q6_0_all" description="&lt;b&gt;cds16732_17251&lt;/b&gt;&lt;br&gt;RNA polymerase sigma factor RpoE&lt;br&gt;Location: 16732 - 17251" style="stroke:black; fill:#d89715; stroke-width:1; " class="clusterblast-orf"  />
<polygon points="417,35 421,30 421,40 417,35 " locus_tag="cds17355_18114" id="dummy-1_q7_0_all" description="&lt;b&gt;cds17355_18114&lt;/b&gt;&lt;br&gt;hypothetical protein&lt;br&gt;Location: 17355 - 18114" style="stroke:black; fill:white; stroke-width:1; " class="clusterblast-orf"  />
<polygon points="427,35 428,30 428,40 427,35 " locus_tag="cds19101_19359" id="dummy-1_q8_0_all" description="&lt;b&gt;cds19101_19359&lt;/b&gt;&lt;br&gt;Transcriptional regulator, MerR family&lt;br&gt;Location: 19101 - 19359" style="stroke:black; fill:white; stroke-width:1; " class="clusterblast-orf"  />
<polygon points="432,35 436,30 436,40 432,35 " locus_tag="cds20023_20797" id="dummy-1_q9_0_all" description="&lt;b&gt;cds20023_20797&lt;/b&gt;&lt;br&gt;Aminodeoxychorismate lyase (EC 4.1.3.38)&lt;br&gt;Location: 20023 - 20797" style="stroke:black; fill:#15d897; stroke-width:1; " class="clusterblast-orf"  />
<polygon points="437,35 441,30 441,40 437,35 " locus_tag="cds20942_21638" id="dummy-1_q10_0_all" description="&lt;b&gt;cds20942_21638&lt;/b&gt;&lt;br&gt;Transcriptional regulator, LuxA family&lt;br&gt;Location: 20942 - 21638" style="stroke:black; fill:#1515d8; stroke-width:1; " class="clusterblast-orf"  />
<polygon points="444,35 449,30 460,30 460,40 449,40 444,35 " locus_tag="cds22129_24958" id="dummy-1_q11_0_all" description="&lt;b&gt;cds22129_24958&lt;/b&gt;&lt;br&gt;hypothetical protein&lt;br&gt;Location: 22129 - 24958" style="stroke:black; fill:#d81597; stroke-width:1; " class="clusterblast-orf"  />
<polygon points="460,35 461,30 461,40 460,35 " locus_tag="cds24961_25132" id="dummy-1_q12_0_all" description="&lt;b&gt;cds24961_25132&lt;/b&gt;&lt;br&gt;hypothetical protein&lt;br&gt;Location: 24961 - 25132" style="stroke:black; fill:#97d815; stroke-width:1; " class="clusterblast-orf"  />
</g>
<g description="BGC0000061_c1: levorin A3 / C06690 / FR-008-III / candicidin A / UNII-AP5PEF5W7U (19% of genes show similarity), Polyketide" class="clusterblast-cluster" label="BGC0000061"  >
<text class="clusterblast-acc" y="70" x="5"  >
<a xlink:href="https://mibig.secondarymetabolites.org/go/BGC0000061/1" target="_blank">BGC0000061</a>:                levorin A3 / C06690 / FR-008-III / candicidin A / UNII-AP5PEF5W7U (19% of genes show similarity), Polyketide</text>
<line x2="778.0" y1="85" x1="10" style="stroke:grey; stroke-width:1; " y2="85"  />
</g>
<g id="a1_000"  >
<polygon points="0,85 5,80 7,80 7,90 5,90 0,85 " locus_tag="AAQ82549.1" id="dummy-1_h1_9_0" description="&lt;b&gt;AAQ82549.1&lt;/b&gt;&lt;br&gt;FscO&lt;br&gt;Location: 574 - 1950" style="stroke:black; fill:white; stroke-width:1; " class="clusterblast-orf"  />
</g>
<g id="a1_001"  >
<polygon points="9,85 14,80 14,80 14,90 14,90 9,85 " locus_tag="AAQ82550.2" id="dummy-1_h1_9_1" description="&lt;b&gt;AAQ82550.2&lt;/b&gt;&lt;br&gt;PabC&lt;br&gt;Location: 2264 - 3037&lt;br&gt;&lt;br&gt;&lt;b&gt;BlastP hit with cds20023_20797&lt;/b&gt;&lt;br&gt;Percentage identity: 72&lt;br&gt;Percentage coverage: 100&lt;br&gt;BLAST bit score: 375&lt;br&gt;E-value: 6e-104" style="stroke:black; fill:#15d897; stroke-width:1; " class="clusterblast-orf"  />
</g>
<g id="a1_002"  >
<polygon points="14,85 18,80 18,90 14,85 " locus_tag="AAQ82551.1" id="dummy-1_h1_9_2" description="&lt;b&gt;AAQ82551.1&lt;/b&gt;&lt;br&gt;FscRI&lt;br&gt;Location: 3150 - 3818&lt;br&gt;&lt;br&gt;&lt;b&gt;BlastP hit with cds20942_21638&lt;/b&gt;&lt;br&gt;Percentage identity: 79&lt;br&gt;Percentage coverage: 96&lt;br&gt;BLAST bit score: 347&lt;br&gt;E-value: 1.2e-95" style="stroke:black; fill:#1515d8; stroke-width:1; " class="clusterblast-orf"  />
</g>
<g id="a1_003"  >
<polygon points="21,85 26,80 37,80 37,90 26,90 21,85 " locus_tag="AAQ82552.1" id="dummy-1_h1_9_3" description="&lt;b&gt;AAQ82552.1&lt;/b&gt;&lt;br&gt;FscRII&lt;br&gt;Location: 4377 - 7205&lt;br&gt;&lt;br&gt;&lt;b&gt;BlastP hit with cds22129_24958&lt;/b&gt;&lt;br&gt;Percentage identity: 77&lt;br&gt;Percentage coverage: 100&lt;br&gt;BLAST bit score: 1349&lt;br&gt;E-value: 0.0" style="stroke:black; fill:#d81597; stroke-width:1; " class="clusterblast-orf"  />
</g>
<g id="a1_004"  >
<polygon points="37,85 42,80 55,80 55,90 42,90 37,85 " locus_tag="AAQ82553.1" id="dummy-1_h1_9_4" description="&lt;b&gt;AAQ82553.1&lt;/b&gt;&lt;br&gt;FscRIII&lt;br&gt;Location: 7210 - 10254&lt;br&gt;&lt;br&gt;&lt;b&gt;BlastP hit with cds24961_25132&lt;/b&gt;&lt;br&gt;Percentage identity: 83&lt;br&gt;Percentage coverage: 96&lt;br&gt;BLAST bit score: 79&lt;br&gt;E-value: 1.9e-15" style="stroke:black; fill:#97d815; stroke-width:1; " class="clusterblast-orf"  />
</g>
<g id="a1_005"  >
<polygon points="55,85 60,80 72,80 72,90 60,90 55,85 " locus_tag="AAQ82554.1" id="dummy-1_h1_9_5" description="&lt;b&gt;AAQ82554.1&lt;/b&gt;&lt;br&gt;FscRIV&lt;br&gt;Location: 10298 - 13315" style="stroke:black; fill:white; stroke-width:1; " class="clusterblast-orf"  />
</g>
<g id="a1_006"  >
<polygon points="73,90 76,90 81,85 76,80 73,80 73,90 " locus_tag="AAQ82555.1" id="dummy-1_h1_9_6" description="&lt;b&gt;AAQ82555.1&lt;/b&gt;&lt;br&gt;FscMI&lt;br&gt;Location: 13522 - 14898" style="stroke:black; fill:white; stroke-width:1; " class="clusterblast-orf"  />
</g>
<g id="a1_007"  >
<polygon points="81,90 82,90 87,85 82,80 81,80 81,90 " locus_tag="AAQ82556.1" id="dummy-1_h1_9_7" description="&lt;b&gt;AAQ82556.1&lt;/b&gt;&lt;br&gt;FscMII&lt;br&gt;Location: 14953 - 16011" style="stroke:black; fill:white; stroke-width:1; " class="clusterblast-orf"  />
</g>
<g id="a1_008"  >
<polygon points="88,90 90,90 95,85 90,80 88,80 88,90 " locus_tag="AAQ82557.1" id="dummy-1_h1_9_8" description="&lt;b&gt;AAQ82557.1&lt;/b&gt;&lt;br&gt;FscP&lt;br&gt;Location: 16106 - 17287" style="stroke:black; fill:white; stroke-width:1; " class="clusterblast-orf"  />
</g>
<g id="a1_009"  >
<polygon points="95,90 96,85 95,80 95,90 " locus_tag="AAQ82558.1" id="dummy-1_h1_9_9" description="&lt;b&gt;AAQ82558.1&lt;/b&gt;&lt;br&gt;FscFE&lt;br&gt;Location: 17334 - 17528" style="stroke:black; fill:white; stroke-width:1; " class="clusterblast-orf"  />
</g>
<g id="a1_0010"  >
<polygon points="96,90 96,90 101,85 96,80 96,80 96,90 " locus_tag="AAQ82559.1" id="dummy-1_h1_9_10" description="&lt;b&gt;AAQ82559.1&lt;/b&gt;&lt;br&gt;FscTE&lt;br&gt;Location: 17556 - 18413" style="stroke:black; fill:white; stroke-width:1; " class="clusterblast-orf"  />
</g>
<g id="a1_0011"  >
<polygon points="102,90 109,90 114,85 109,80 102,80 102,90 " locus_tag="AAQ82560.1" id="dummy-1_h1_9_11" description="&lt;b&gt;AAQ82560.1&lt;/b&gt;&lt;br&gt;PabAB&lt;br&gt;Location: 18610 - 20781" style="stroke:black; fill:white; stroke-width:1; " class="clusterblast-orf"  />
</g>
<g id="a1_0012"  >
<polygon points="115,90 140,90 145,85 140,80 115,80 115,90 " locus_tag="AAQ82561.1" id="dummy-1_h1_9_12" description="&lt;b&gt;AAQ82561.1&lt;/b&gt;&lt;br&gt;FscA&lt;br&gt;Location: 20927 - 26158" style="stroke:black; fill:white; stroke-width:1; " class="clusterblast-orf"  />
</g>
<g id="a1_0013"  >
<polygon points="146,90 147,90 152,85 147,80 146,80 146,90 " locus_tag="AAQ82562.1" id="dummy-1_h1_9_13" description="&lt;b&gt;AAQ82562.1&lt;/b&gt;&lt;br&gt;FscTI&lt;br&gt;Location: 26333 - 27340" style="stroke:black; fill:white; stroke-width:1; " class="clusterblast-orf"  />
</g>
<g id="a1_0014"  >
<polygon points="153,90 157,85 153,80 153,90 " locus_tag="AAQ82563.1" id="dummy-1_h1_9_14" description="&lt;b&gt;AAQ82563.1&lt;/b&gt;&lt;br&gt;FscTII&lt;br&gt;Location: 27561 - 28280" style="stroke:black; fill:white; stroke-width:1; " class="clusterblast-orf"  />
</g>
<g id="a1_0015"  >
<polygon points="161,85 166,80 342,80 342,90 166,90 161,85 " locus_tag="AAQ82564.1" id="dummy-1_h1_9_15" description="&lt;b&gt;AAQ82564.1&lt;/b&gt;&lt;br&gt;FscC&lt;br&gt;Location: 28983 - 60860" style="stroke:black; fill:white; stroke-width:1; " class="clusterblast-orf"  />
</g>
<g id="a1_0016"  >
<polygon points="343,85 348,80 437,80 437,90 348,90 343,85 " locus_tag="AAQ82565.1" id="dummy-1_h1_9_16" description="&lt;b&gt;AAQ82565.1&lt;/b&gt;&lt;br&gt;FscB&lt;br&gt;Location: 60962 - 77587" style="stroke:black; fill:white; stroke-width:1; " class="clusterblast-orf"  />
</g>
<g id="a1_0017"  >
<polygon points="440,85 445,80 475,80 475,90 445,90 440,85 " locus_tag="AAQ82566.1" id="dummy-1_h1_9_17" description="&lt;b&gt;AAQ82566.1&lt;/b&gt;&lt;br&gt;FscF&lt;br&gt;Location: 77983 - 84132" style="stroke:black; fill:white; stroke-width:1; " class="clusterblast-orf"  />
</g>
<g id="a1_0018"  >
<polygon points="475,85 480,80 607,80 607,90 480,90 475,85 " locus_tag="AAQ82567.1" id="dummy-1_h1_9_18" description="&lt;b&gt;AAQ82567.1&lt;/b&gt;&lt;br&gt;FscE&lt;br&gt;Location: 84170 - 107485" style="stroke:black; fill:white; stroke-width:1; " class="clusterblast-orf"  />
</g>
<g id="a1_0019"  >
<polygon points="607,85 612,80 770,80 770,90 612,90 607,85 " locus_tag="AAQ82568.1" id="dummy-1_h1_9_19" description="&lt;b&gt;AAQ82568.1&lt;/b&gt;&lt;br&gt;FscD&lt;br&gt;Location: 107496 - 136148" style="stroke:black; fill:white; stroke-width:1; " class="clusterblast-orf"  />
</g>
<g id="a1_0020"  >
<polygon points="773,85 778,80 780,80 780,90 778,90 773,85 " locus_tag="AAQ82569.1" id="dummy-1_h1_9_20" description="&lt;b&gt;AAQ82569.1&lt;/b&gt;&lt;br&gt;FscMIII&lt;br&gt;Location: 136558 - 137766" style="stroke:black; fill:white; stroke-width:1; " class="clusterblast-orf"  />
</g>
</svg>
