<svg version="1.1" height="50" y="0" xmlns="http://www.w3.org/2000/svg" x="0" preserveAspectRatio="none" xmlns:xlink="http://www.w3.org/1999/xlink" width="800" viewBox="0 0 800 50"  >
<g class="clusterblast-cluster" label="Query sequence"  >
<text class="clusterblast-acc" y="20" x="5"  >
Query sequence</text>
<line x2="778.0" y1="35" x1="10" style="stroke:grey; stroke-width:1; " y2="35"  />
<polygon points="0,40 11,40 16,35 11,30 0,30 0,40 " locus_tag="cds72_759" id="subclusterblast-1_q0_0_all" description="&lt;b&gt;cds72_759&lt;/b&gt;&lt;br&gt;Transcriptional regulator, AcrR family&lt;br&gt;Location: 72 - 759" style="stroke:black; fill:white; stroke-width:1; " class="clusterblast-orf"  />
<polygon points="16,40 20,35 16,30 16,40 " locus_tag="cds763_934" id="subclusterblast-1_q1_0_all" description="&lt;b&gt;cds763_934&lt;/b&gt;&lt;br&gt;hypothetical protein&lt;br&gt;Location: 763 - 934" style="stroke:black; fill:white; stroke-width:1; " class="clusterblast-orf"  />
<polygon points="28,40 49,40 54,35 49,30 28,30 28,40 " locus_tag="cds1284_2385" id="subclusterblast-1_q2_0_all" description="&lt;b&gt;cds1284_2385&lt;/b&gt;&lt;br&gt;oxidoreductase family protein&lt;br&gt;Location: 1284 - 2385" style="stroke:black; fill:white; stroke-width:1; " class="clusterblast-orf"  />
<polygon points="56,40 56,40 61,35 56,30 56,30 56,40 " locus_tag="cds2487_2685" id="subclusterblast-1_q3_0_all" description="&lt;b&gt;cds2487_2685&lt;/b&gt;&lt;br&gt;Mobile element protein&lt;br&gt;Location: 2487 - 2685" style="stroke:black; fill:white; stroke-width:1; " class="clusterblast-orf"  />
<polygon points="67,35 71,30 71,40 67,35 " locus_tag="cds2966_3107" id="subclusterblast-1_q4_0_all" description="&lt;b&gt;cds2966_3107&lt;/b&gt;&lt;br&gt;hypothetical protein&lt;br&gt;Location: 2966 - 3107" style="stroke:black; fill:white; stroke-width:1; " class="clusterblast-orf"  />
<polygon points="74,35 79,30 82,30 82,40 79,40 74,35 " locus_tag="cds3267_3570" id="subclusterblast-1_q5_0_all" description="&lt;b&gt;cds3267_3570&lt;/b&gt;&lt;br&gt;hypothetical protein&lt;br&gt;Location: 3267 - 3570" style="stroke:black; fill:white; stroke-width:1; " class="clusterblast-orf"  />
<polygon points="84,40 96,40 101,35 96,30 84,30 84,40 " locus_tag="cds3686_4397" id="subclusterblast-1_q6_0_all" description="&lt;b&gt;cds3686_4397&lt;/b&gt;&lt;br&gt;hypothetical protein&lt;br&gt;Location: 3686 - 4397" style="stroke:black; fill:white; stroke-width:1; " class="clusterblast-orf"  />
<polygon points="109,40 111,40 116,35 111,30 109,30 109,40 " locus_tag="cds4726_5059" id="subclusterblast-1_q7_0_all" description="&lt;b&gt;cds4726_5059&lt;/b&gt;&lt;br&gt;hypothetical protein&lt;br&gt;Location: 4726 - 5059" style="stroke:black; fill:white; stroke-width:1; " class="clusterblast-orf"  />
<polygon points="117,35 122,30 125,30 125,40 122,40 117,35 " locus_tag="cds5084_5423" id="subclusterblast-1_q8_0_all" description="&lt;b&gt;cds5084_5423&lt;/b&gt;&lt;br&gt;Mobile element protein&lt;br&gt;Location: 5084 - 5423" style="stroke:black; fill:white; stroke-width:1; " class="clusterblast-orf"  />
<polygon points="133,35 138,30 142,30 142,40 138,40 133,35 " locus_tag="cds5763_6159" id="subclusterblast-1_q9_0_all" description="&lt;b&gt;cds5763_6159&lt;/b&gt;&lt;br&gt;hypothetical protein&lt;br&gt;Location: 5763 - 6159" style="stroke:black; fill:white; stroke-width:1; " class="clusterblast-orf"  />
<polygon points="142,35 147,30 150,30 150,40 147,40 142,35 " locus_tag="cds6155_6506" id="subclusterblast-1_q10_0_all" description="&lt;b&gt;cds6155_6506&lt;/b&gt;&lt;br&gt;Protein tyrosine phosphatase (EC 3.1.3.48)&lt;br&gt;Location: 6155 - 6506" style="stroke:black; fill:white; stroke-width:1; " class="clusterblast-orf"  />
<polygon points="152,35 157,30 197,30 197,40 157,40 152,35 " locus_tag="cds6597_8523" id="subclusterblast-1_q11_0_all" description="&lt;b&gt;cds6597_8523&lt;/b&gt;&lt;br&gt;hypothetical protein&lt;br&gt;Location: 6597 - 8523" style="stroke:black; fill:white; stroke-width:1; " class="clusterblast-orf"  />
<polygon points="197,35 202,30 237,30 237,40 202,40 197,35 " locus_tag="cds8519_10214" id="subclusterblast-1_q12_0_all" description="&lt;b&gt;cds8519_10214&lt;/b&gt;&lt;br&gt;Heterodimeric efflux ABC transporter, permease/ATP-binding subunit 1&lt;br&gt;Location: 8519 - 10214" style="stroke:black; fill:white; stroke-width:1; " class="clusterblast-orf"  />
<polygon points="237,35 242,30 276,30 276,40 242,40 237,35 " locus_tag="cds10210_11890" id="subclusterblast-1_q13_0_all" description="&lt;b&gt;cds10210_11890&lt;/b&gt;&lt;br&gt;hypothetical protein&lt;br&gt;Location: 10210 - 11890" style="stroke:black; fill:white; stroke-width:1; " class="clusterblast-orf"  />
<polygon points="277,35 282,30 320,30 320,40 282,40 277,35 " locus_tag="cds11926_13750" id="subclusterblast-1_q14_0_all" description="&lt;b&gt;cds11926_13750&lt;/b&gt;&lt;br&gt;hypothetical protein&lt;br&gt;Location: 11926 - 13750" style="stroke:black; fill:white; stroke-width:1; " class="clusterblast-orf"  />
<polygon points="320,35 325,30 361,30 361,40 325,40 320,35 " locus_tag="cds13746_15519" id="subclusterblast-1_q15_0_all" description="&lt;b&gt;cds13746_15519&lt;/b&gt;&lt;br&gt;hypothetical protein&lt;br&gt;Location: 13746 - 15519" style="stroke:black; fill:white; stroke-width:1; " class="clusterblast-orf"  />
<polygon points="362,35 367,30 383,30 383,40 367,40 362,35 " locus_tag="cds15550_16444" id="subclusterblast-1_q16_0_all" description="&lt;b&gt;cds15550_16444&lt;/b&gt;&lt;br&gt;hypothetical protein&lt;br&gt;Location: 15550 - 16444" style="stroke:black; fill:white; stroke-width:1; " class="clusterblast-orf"  />
<polygon points="394,40 423,40 428,35 423,30 394,30 394,40 " locus_tag="cds16944_18369" id="subclusterblast-1_q17_0_all" description="&lt;b&gt;cds16944_18369&lt;/b&gt;&lt;br&gt;Lysine 2,3-aminomutase (EC 5.4.3.2)&lt;br&gt;Location: 16944 - 18369" style="stroke:black; fill:white; stroke-width:1; " class="clusterblast-orf"  />
<polygon points="429,40 450,40 455,35 450,30 429,30 429,40 " locus_tag="cds18424_19549" id="subclusterblast-1_q18_0_all" description="&lt;b&gt;cds18424_19549&lt;/b&gt;&lt;br&gt;Aspartate aminotransferase (EC 2.6.1.1)&lt;br&gt;Location: 18424 - 19549" style="stroke:black; fill:white; stroke-width:1; " class="clusterblast-orf"  />
<polygon points="455,40 460,40 465,35 460,30 455,30 455,40 " locus_tag="cds19545_19965" id="subclusterblast-1_q19_0_all" description="&lt;b&gt;cds19545_19965&lt;/b&gt;&lt;br&gt;Long-chain-fatty-acid--CoA ligase (EC 6.2.1.3)&lt;br&gt;Location: 19545 - 19965" style="stroke:black; fill:white; stroke-width:1; " class="clusterblast-orf"  />
<polygon points="465,40 468,35 465,30 465,40 " locus_tag="cds19961_20090" id="subclusterblast-1_q20_0_all" description="&lt;b&gt;cds19961_20090&lt;/b&gt;&lt;br&gt;hypothetical protein&lt;br&gt;Location: 19961 - 20090" style="stroke:black; fill:white; stroke-width:1; " class="clusterblast-orf"  />
<polygon points="482,40 483,40 488,35 483,30 482,30 482,40 " locus_tag="cds20666_20924" id="subclusterblast-1_q21_0_all" description="&lt;b&gt;cds20666_20924&lt;/b&gt;&lt;br&gt;hypothetical protein&lt;br&gt;Location: 20666 - 20924" style="stroke:black; fill:white; stroke-width:1; " class="clusterblast-orf"  />
<polygon points="490,35 493,30 493,40 490,35 " locus_tag="cds21046_21169" id="subclusterblast-1_q22_0_all" description="&lt;b&gt;cds21046_21169&lt;/b&gt;&lt;br&gt;hypothetical protein&lt;br&gt;Location: 21046 - 21169" style="stroke:black; fill:white; stroke-width:1; " class="clusterblast-orf"  />
<polygon points="499,35 504,30 515,30 515,40 504,40 499,35 " locus_tag="cds21394_22075" id="subclusterblast-1_q23_0_all" description="&lt;b&gt;cds21394_22075&lt;/b&gt;&lt;br&gt;hypothetical protein&lt;br&gt;Location: 21394 - 22075" style="stroke:black; fill:white; stroke-width:1; " class="clusterblast-orf"  />
<polygon points="515,35 520,30 522,30 522,40 520,40 515,35 " locus_tag="cds22083_22386" id="subclusterblast-1_q24_0_all" description="&lt;b&gt;cds22083_22386&lt;/b&gt;&lt;br&gt;hypothetical protein&lt;br&gt;Location: 22083 - 22386" style="stroke:black; fill:white; stroke-width:1; " class="clusterblast-orf"  />
<polygon points="523,35 528,30 616,30 616,40 528,40 523,35 " locus_tag="cds22451_26396" id="subclusterblast-1_q25_0_all" description="&lt;b&gt;cds22451_26396&lt;/b&gt;&lt;br&gt;hypothetical protein&lt;br&gt;Location: 22451 - 26396" style="stroke:black; fill:white; stroke-width:1; " class="clusterblast-orf"  />
<polygon points="616,40 631,40 636,35 631,30 616,30 616,40 " locus_tag="cds26429_27263" id="subclusterblast-1_q26_0_all" description="&lt;b&gt;cds26429_27263&lt;/b&gt;&lt;br&gt;Mobile element protein&lt;br&gt;Location: 26429 - 27263" style="stroke:black; fill:white; stroke-width:1; " class="clusterblast-orf"  />
<polygon points="660,35 665,30 682,30 682,40 665,40 660,35 " locus_tag="cds28288_29251" id="subclusterblast-1_q27_0_all" description="&lt;b&gt;cds28288_29251&lt;/b&gt;&lt;br&gt;putative secreted protein&lt;br&gt;Location: 28288 - 29251" style="stroke:black; fill:white; stroke-width:1; " class="clusterblast-orf"  />
<polygon points="683,40 707,40 712,35 707,30 683,30 683,40 " locus_tag="cds29268_30525" id="subclusterblast-1_q28_0_all" description="&lt;b&gt;cds29268_30525&lt;/b&gt;&lt;br&gt;Transposase and inactivated derivatives, IS30 family&lt;br&gt;Location: 29268 - 30525" style="stroke:black; fill:white; stroke-width:1; " class="clusterblast-orf"  />
<polygon points="718,35 723,30 727,30 727,40 723,40 718,35 " locus_tag="cds30769_31174" id="subclusterblast-1_q29_0_all" description="&lt;b&gt;cds30769_31174&lt;/b&gt;&lt;br&gt;FIG01129264: hypothetical protein&lt;br&gt;Location: 30769 - 31174" style="stroke:black; fill:white; stroke-width:1; " class="clusterblast-orf"  />
<polygon points="733,40 738,40 743,35 738,30 733,30 733,40 " locus_tag="cds31419_31842" id="subclusterblast-1_q30_0_all" description="&lt;b&gt;cds31419_31842&lt;/b&gt;&lt;br&gt;hypothetical protein&lt;br&gt;Location: 31419 - 31842" style="stroke:black; fill:white; stroke-width:1; " class="clusterblast-orf"  />
<polygon points="745,40 758,40 763,35 758,30 745,30 745,40 " locus_tag="cds31913_32684" id="subclusterblast-1_q31_0_all" description="&lt;b&gt;cds31913_32684&lt;/b&gt;&lt;br&gt;Putative transposase for insertion sequence element IS112&lt;br&gt;Location: 31913 - 32684" style="stroke:black; fill:white; stroke-width:1; " class="clusterblast-orf"  />
<polygon points="765,40 775,40 780,35 775,30 765,30 765,40 " locus_tag="cds32758_33409" id="subclusterblast-1_q32_0_all" description="&lt;b&gt;cds32758_33409&lt;/b&gt;&lt;br&gt;hypothetical protein&lt;br&gt;Location: 32758 - 33409" style="stroke:black; fill:white; stroke-width:1; " class="clusterblast-orf"  />
</g>
</svg>
