<svg preserveAspectRatio="none" width="800" height="230" xmlns:xlink="http://www.w3.org/1999/xlink" xmlns="http://www.w3.org/2000/svg" version="1.1" viewBox="0 0 800 230" x="0" y="0"  >
<g label="Query sequence" class="clusterblast-cluster"  >
<text class="clusterblast-acc" x="5" y="20"  >
Query sequence</text>
<line y1="35" style="stroke:grey; stroke-width:1; " x1="10" y2="35" x2="778.0"  />
<polygon points="60,35 65,30 68,30 68,40 65,40 60,35 " description="&lt;b&gt;cds0_423&lt;/b&gt;&lt;br&gt;hypothetical protein&lt;br&gt;Location: 0 - 423" id="dummy-1_q0_0_all" style="stroke:black; stroke-width:1; fill:white; " locus_tag="cds0_423" class="clusterblast-orf"  />
<polygon points="70,35 75,30 79,30 79,40 75,40 70,35 " description="&lt;b&gt;cds515_998&lt;/b&gt;&lt;br&gt;hypothetical protein&lt;br&gt;Location: 515 - 998" id="dummy-1_q1_0_all" style="stroke:black; stroke-width:1; fill:white; " locus_tag="cds515_998" class="clusterblast-orf"  />
<polygon points="83,40 94,40 99,35 94,30 83,30 83,40 " description="&lt;b&gt;cds1197_2052&lt;/b&gt;&lt;br&gt;Uncharacterized protein with N-terminal Xre-type DNA-binding domain&lt;br&gt;Location: 1197 - 2052" id="dummy-1_q2_0_all" style="stroke:black; stroke-width:1; fill:#d81515; " locus_tag="cds1197_2052" class="clusterblast-orf"  />
<polygon points="99,40 102,35 99,30 99,40 " description="&lt;b&gt;cds2066_2246&lt;/b&gt;&lt;br&gt;Small DUF397-containing protein&lt;br&gt;Location: 2066 - 2246" id="dummy-1_q3_0_all" style="stroke:black; stroke-width:1; fill:white; " locus_tag="cds2066_2246" class="clusterblast-orf"  />
<polygon points="104,35 109,30 113,30 113,40 109,40 104,35 " description="&lt;b&gt;cds2302_2779&lt;/b&gt;&lt;br&gt;tRNA (adenine(37)-N6)-methyltransferase&lt;br&gt;Location: 2302 - 2779" id="dummy-1_q4_0_all" style="stroke:black; stroke-width:1; fill:white; " locus_tag="cds2302_2779" class="clusterblast-orf"  />
<polygon points="114,35 119,30 125,30 125,40 119,40 114,35 " description="&lt;b&gt;cds2830_3439&lt;/b&gt;&lt;br&gt;hypothetical protein&lt;br&gt;Location: 2830 - 3439" id="dummy-1_q5_0_all" style="stroke:black; stroke-width:1; fill:#33d815; " locus_tag="cds2830_3439" class="clusterblast-orf"  />
<polygon points="130,35 135,30 154,30 154,40 135,40 130,35 " description="&lt;b&gt;cds3689_4985&lt;/b&gt;&lt;br&gt;Histidyl-tRNA synthetase (EC 6.1.1.21)&lt;br&gt;Location: 3689 - 4985" id="dummy-1_q6_0_all" style="stroke:black; stroke-width:1; fill:#15abd8; " locus_tag="cds3689_4985" class="clusterblast-orf"  />
<polygon points="155,35 160,30 178,30 178,40 160,40 155,35 " description="&lt;b&gt;cds5034_6270&lt;/b&gt;&lt;br&gt;hypothetical protein&lt;br&gt;Location: 5034 - 6270" id="dummy-1_q7_0_all" style="stroke:black; stroke-width:1; fill:#8d15d8; " locus_tag="cds5034_6270" class="clusterblast-orf"  />
<polygon points="179,35 182,30 182,40 179,35 " description="&lt;b&gt;cds6311_6482&lt;/b&gt;&lt;br&gt;hypothetical protein&lt;br&gt;Location: 6311 - 6482" id="dummy-1_q8_0_all" style="stroke:black; stroke-width:1; fill:white; " locus_tag="cds6311_6482" class="clusterblast-orf"  />
<polygon points="188,40 195,40 200,35 195,30 188,30 188,40 " description="&lt;b&gt;cds6775_7423&lt;/b&gt;&lt;br&gt;HAD-superfamily hydrolase, subfamily IA, variant 1&lt;br&gt;Location: 6775 - 7423" id="dummy-1_q9_0_all" style="stroke:black; stroke-width:1; fill:#d86f15; " locus_tag="cds6775_7423" class="clusterblast-orf"  />
<polygon points="200,35 205,30 225,30 225,40 205,40 200,35 " description="&lt;b&gt;cds7406_8726&lt;/b&gt;&lt;br&gt;hypothetical protein&lt;br&gt;Location: 7406 - 8726" id="dummy-1_q10_0_all" style="stroke:black; stroke-width:1; fill:#15d851; " locus_tag="cds7406_8726" class="clusterblast-orf"  />
<polygon points="226,35 228,30 228,40 226,35 " description="&lt;b&gt;cds8762_8885&lt;/b&gt;&lt;br&gt;hypothetical protein&lt;br&gt;Location: 8762 - 8885" id="dummy-1_q11_0_all" style="stroke:black; stroke-width:1; fill:white; " locus_tag="cds8762_8885" class="clusterblast-orf"  />
<polygon points="229,40 233,40 238,35 233,30 229,30 229,40 " description="&lt;b&gt;cds8941_9418&lt;/b&gt;&lt;br&gt;hypothetical protein&lt;br&gt;Location: 8941 - 9418" id="dummy-1_q12_0_all" style="stroke:black; stroke-width:1; fill:#1551d8; " locus_tag="cds8941_9418" class="clusterblast-orf"  />
<polygon points="238,40 248,40 253,35 248,30 238,30 238,40 " description="&lt;b&gt;cds9414_10221&lt;/b&gt;&lt;br&gt;hypothetical protein&lt;br&gt;Location: 9414 - 10221" id="dummy-1_q13_0_all" style="stroke:black; stroke-width:1; fill:#d815c9; " locus_tag="cds9414_10221" class="clusterblast-orf"  />
<polygon points="253,40 273,40 278,35 273,30 253,30 253,40 " description="&lt;b&gt;cds10217_11543&lt;/b&gt;&lt;br&gt;hypothetical protein&lt;br&gt;Location: 10217 - 11543" id="dummy-1_q14_0_all" style="stroke:black; stroke-width:1; fill:#d8c915; " locus_tag="cds10217_11543" class="clusterblast-orf"  />
<polygon points="279,40 288,40 293,35 288,30 279,30 279,40 " description="&lt;b&gt;cds11594_12308&lt;/b&gt;&lt;br&gt;hypothetical protein&lt;br&gt;Location: 11594 - 12308" id="dummy-1_q15_0_all" style="stroke:black; stroke-width:1; fill:#15d8ab; " locus_tag="cds11594_12308" class="clusterblast-orf"  />
<polygon points="292,40 342,40 347,35 342,30 292,30 292,40 " description="&lt;b&gt;cds12304_15211&lt;/b&gt;&lt;br&gt;Modular polyketide synthase&lt;br&gt;Location: 12304 - 15211" id="dummy-1_q16_0_all" style="stroke:black; stroke-width:1; fill:#3315d8; " locus_tag="cds12304_15211" class="clusterblast-orf"  />
<polygon points="359,35 364,30 364,30 364,40 364,40 359,35 " description="&lt;b&gt;cds15847_16093&lt;/b&gt;&lt;br&gt;hypothetical protein&lt;br&gt;Location: 15847 - 16093" id="dummy-1_q17_0_all" style="stroke:black; stroke-width:1; fill:white; " locus_tag="cds15847_16093" class="clusterblast-orf"  />
<polygon points="368,35 373,30 374,30 374,40 373,40 368,35 " description="&lt;b&gt;cds16294_16621&lt;/b&gt;&lt;br&gt;hypothetical protein&lt;br&gt;Location: 16294 - 16621" id="dummy-1_q18_0_all" style="stroke:black; stroke-width:1; fill:white; " locus_tag="cds16294_16621" class="clusterblast-orf"  />
<polygon points="382,40 383,40 388,35 383,30 382,30 382,40 " description="&lt;b&gt;cds17032_17377&lt;/b&gt;&lt;br&gt;hypothetical protein&lt;br&gt;Location: 17032 - 17377" id="dummy-1_q19_0_all" style="stroke:black; stroke-width:1; fill:white; " locus_tag="cds17032_17377" class="clusterblast-orf"  />
<polygon points="388,40 416,40 421,35 416,30 388,30 388,40 " description="&lt;b&gt;cds17363_19136&lt;/b&gt;&lt;br&gt;Modification methylase XamI (EC 2.1.1.72) (Adenine-specific methyltransferase XamI) (M.XamI)&lt;br&gt;Location: 17363 - 19136" id="dummy-1_q20_0_all" style="stroke:black; stroke-width:1; fill:white; " locus_tag="cds17363_19136" class="clusterblast-orf"  />
<polygon points="446,35 451,30 474,30 474,40 451,40 446,35 " description="&lt;b&gt;cds20411_21896&lt;/b&gt;&lt;br&gt;Integrase&lt;br&gt;Location: 20411 - 21896" id="dummy-1_q21_0_all" style="stroke:black; stroke-width:1; fill:white; " locus_tag="cds20411_21896" class="clusterblast-orf"  />
<polygon points="474,35 479,30 481,30 481,40 479,40 474,35 " description="&lt;b&gt;cds21892_22282&lt;/b&gt;&lt;br&gt;hypothetical protein&lt;br&gt;Location: 21892 - 22282" id="dummy-1_q22_0_all" style="stroke:black; stroke-width:1; fill:white; " locus_tag="cds21892_22282" class="clusterblast-orf"  />
<polygon points="485,35 490,30 492,30 492,40 490,40 485,35 " description="&lt;b&gt;cds22478_22877&lt;/b&gt;&lt;br&gt;hypothetical protein&lt;br&gt;Location: 22478 - 22877" id="dummy-1_q23_0_all" style="stroke:black; stroke-width:1; fill:white; " locus_tag="cds22478_22877" class="clusterblast-orf"  />
<polygon points="492,35 497,30 510,30 510,40 497,40 492,35 " description="&lt;b&gt;cds22873_23815&lt;/b&gt;&lt;br&gt;DNA-methyltransferase&lt;br&gt;Location: 22873 - 23815" id="dummy-1_q24_0_all" style="stroke:black; stroke-width:1; fill:white; " locus_tag="cds22873_23815" class="clusterblast-orf"  />
<polygon points="510,35 515,30 524,30 524,40 515,40 510,35 " description="&lt;b&gt;cds23814_24567&lt;/b&gt;&lt;br&gt;hypothetical protein&lt;br&gt;Location: 23814 - 24567" id="dummy-1_q25_0_all" style="stroke:black; stroke-width:1; fill:white; " locus_tag="cds23814_24567" class="clusterblast-orf"  />
<polygon points="527,35 532,30 534,30 534,40 532,40 527,35 " description="&lt;b&gt;cds24737_25100&lt;/b&gt;&lt;br&gt;hypothetical protein&lt;br&gt;Location: 24737 - 25100" id="dummy-1_q26_0_all" style="stroke:black; stroke-width:1; fill:white; " locus_tag="cds24737_25100" class="clusterblast-orf"  />
<polygon points="536,35 541,30 550,30 550,40 541,40 536,35 " description="&lt;b&gt;cds25177_25945&lt;/b&gt;&lt;br&gt;hypothetical protein&lt;br&gt;Location: 25177 - 25945" id="dummy-1_q27_0_all" style="stroke:black; stroke-width:1; fill:white; " locus_tag="cds25177_25945" class="clusterblast-orf"  />
<polygon points="550,35 555,30 563,30 563,40 555,40 550,35 " description="&lt;b&gt;cds25962_26613&lt;/b&gt;&lt;br&gt;hypothetical protein&lt;br&gt;Location: 25962 - 26613" id="dummy-1_q28_0_all" style="stroke:black; stroke-width:1; fill:white; " locus_tag="cds25962_26613" class="clusterblast-orf"  />
<polygon points="565,35 570,30 577,30 577,40 570,40 565,35 " description="&lt;b&gt;cds26712_27384&lt;/b&gt;&lt;br&gt;hypothetical protein&lt;br&gt;Location: 26712 - 27384" id="dummy-1_q29_0_all" style="stroke:black; stroke-width:1; fill:white; " locus_tag="cds26712_27384" class="clusterblast-orf"  />
<polygon points="579,35 584,30 592,30 592,40 584,40 579,35 " description="&lt;b&gt;cds27489_28185&lt;/b&gt;&lt;br&gt;hypothetical protein&lt;br&gt;Location: 27489 - 28185" id="dummy-1_q30_0_all" style="stroke:black; stroke-width:1; fill:white; " locus_tag="cds27489_28185" class="clusterblast-orf"  />
<polygon points="593,35 598,30 604,30 604,40 598,40 593,35 " description="&lt;b&gt;cds28215_28824&lt;/b&gt;&lt;br&gt;hypothetical protein&lt;br&gt;Location: 28215 - 28824" id="dummy-1_q31_0_all" style="stroke:black; stroke-width:1; fill:white; " locus_tag="cds28215_28824" class="clusterblast-orf"  />
<polygon points="607,35 612,30 613,30 613,40 612,40 607,35 " description="&lt;b&gt;cds28956_29262&lt;/b&gt;&lt;br&gt;hypothetical protein&lt;br&gt;Location: 28956 - 29262" id="dummy-1_q32_0_all" style="stroke:black; stroke-width:1; fill:white; " locus_tag="cds28956_29262" class="clusterblast-orf"  />
<polygon points="617,35 619,30 619,40 617,35 " description="&lt;b&gt;cds29470_29620&lt;/b&gt;&lt;br&gt;hypothetical protein&lt;br&gt;Location: 29470 - 29620" id="dummy-1_q33_0_all" style="stroke:black; stroke-width:1; fill:white; " locus_tag="cds29470_29620" class="clusterblast-orf"  />
<polygon points="620,40 623,35 620,30 620,40 " description="&lt;b&gt;cds29671_29785&lt;/b&gt;&lt;br&gt;hypothetical protein&lt;br&gt;Location: 29671 - 29785" id="dummy-1_q34_0_all" style="stroke:black; stroke-width:1; fill:white; " locus_tag="cds29671_29785" class="clusterblast-orf"  />
<polygon points="628,35 633,30 674,30 674,40 633,40 628,35 " description="&lt;b&gt;cds30061_32524&lt;/b&gt;&lt;br&gt;hypothetical protein&lt;br&gt;Location: 30061 - 32524" id="dummy-1_q35_0_all" style="stroke:black; stroke-width:1; fill:white; " locus_tag="cds30061_32524" class="clusterblast-orf"  />
<polygon points="675,35 680,30 683,30 683,40 680,40 675,35 " description="&lt;b&gt;cds32568_32979&lt;/b&gt;&lt;br&gt;hypothetical protein&lt;br&gt;Location: 32568 - 32979" id="dummy-1_q36_0_all" style="stroke:black; stroke-width:1; fill:white; " locus_tag="cds32568_32979" class="clusterblast-orf"  />
<polygon points="683,35 688,30 691,30 691,40 688,40 683,35 " description="&lt;b&gt;cds32975_33401&lt;/b&gt;&lt;br&gt;putative membrane protein&lt;br&gt;Location: 32975 - 33401" id="dummy-1_q37_0_all" style="stroke:black; stroke-width:1; fill:white; " locus_tag="cds32975_33401" class="clusterblast-orf"  />
<polygon points="691,35 696,30 699,30 699,40 696,40 691,35 " description="&lt;b&gt;cds33400_33805&lt;/b&gt;&lt;br&gt;hypothetical protein&lt;br&gt;Location: 33400 - 33805" id="dummy-1_q38_0_all" style="stroke:black; stroke-width:1; fill:#d8156f; " locus_tag="cds33400_33805" class="clusterblast-orf"  />
<polygon points="699,35 702,30 702,40 699,35 " description="&lt;b&gt;cds33804_34011&lt;/b&gt;&lt;br&gt;hypothetical protein&lt;br&gt;Location: 33804 - 34011" id="dummy-1_q39_0_all" style="stroke:black; stroke-width:1; fill:white; " locus_tag="cds33804_34011" class="clusterblast-orf"  />
<polygon points="703,35 708,30 719,30 719,40 708,40 703,35 " description="&lt;b&gt;cds34023_34905&lt;/b&gt;&lt;br&gt;hypothetical protein&lt;br&gt;Location: 34023 - 34905" id="dummy-1_q40_0_all" style="stroke:black; stroke-width:1; fill:#8dd815; " locus_tag="cds34023_34905" class="clusterblast-orf"  />
</g>
<g label="NZ_ML703337" description="NZ_ML703337 (102841-145742): Nocardiopsis quinghaiensis strain YIM 28A4 Scaff... (37% of genes show similarity), T1PKS" class="clusterblast-cluster"  >
<text class="clusterblast-acc" x="5" y="70"  >
<a xlink:href="https://antismash-db.secondarymetabolites.org/area.html?record=NZ_ML703337&amp;start=102841&amp;end=145742" target="_blank">NZ_ML703337 (102841-145742)</a>: Nocardiopsis quinghaiensis strain YIM 28A4 Scaff... (37% of genes show similarity), T1PKS</text>
<line y1="85" style="stroke:grey; stroke-width:1; " x1="10" y2="85" x2="778.0"  />
</g>
<g id="a1_000"  >
<polygon points="0,85 5,80 14,80 14,90 5,90 0,85 " description="&lt;b&gt;FYX01_RS00485&lt;/b&gt;&lt;br&gt;hypothetical protein&lt;br&gt;Location: 103106 - 103864" id="dummy-1_h1_1_0" style="stroke:black; stroke-width:1; fill:white; " locus_tag="FYX01_RS00485" class="clusterblast-orf"  />
</g>
<g id="a1_001"  >
<polygon points="14,85 19,80 24,80 24,90 19,90 14,85 " description="&lt;b&gt;FYX01_RS00490&lt;/b&gt;&lt;br&gt;hypothetical protein&lt;br&gt;Location: 103864 - 104397" id="dummy-1_h1_1_1" style="stroke:black; stroke-width:1; fill:white; " locus_tag="FYX01_RS00490" class="clusterblast-orf"  />
</g>
<g id="a1_002"  >
<polygon points="26,85 31,80 34,80 34,90 31,90 26,85 " description="&lt;b&gt;FYX01_RS00495&lt;/b&gt;&lt;br&gt;hypothetical protein&lt;br&gt;Location: 104522 - 104926" id="dummy-1_h1_1_2" style="stroke:black; stroke-width:1; fill:white; " locus_tag="FYX01_RS00495" class="clusterblast-orf"  />
</g>
<g id="a1_003"  >
<polygon points="41,85 46,80 51,80 51,90 46,90 41,85 " description="&lt;b&gt;FYX01_RS00500&lt;/b&gt;&lt;br&gt;hypothetical protein&lt;br&gt;Location: 105303 - 105836" id="dummy-1_h1_1_3" style="stroke:black; stroke-width:1; fill:white; " locus_tag="FYX01_RS00500" class="clusterblast-orf"  />
</g>
<g id="a1_004"  >
<polygon points="66,85 71,80 75,80 75,90 71,90 66,85 " description="&lt;b&gt;FYX01_RS00505&lt;/b&gt;&lt;br&gt;ATP-binding protein&lt;br&gt;Location: 106636 - 107115" id="dummy-1_h1_1_4" style="stroke:black; stroke-width:1; fill:white; " locus_tag="FYX01_RS00505" class="clusterblast-orf"  />
</g>
<g id="a1_005"  >
<polygon points="78,90 91,90 96,85 91,80 78,80 78,90 " description="&lt;b&gt;FYX01_RS00510&lt;/b&gt;&lt;br&gt;helix-turn-helix domain-containing protein&lt;br&gt;Location: 107271 - 108206&lt;br&gt;&lt;br&gt;&lt;b&gt;BlastP hit with cds1197_2052&lt;/b&gt;&lt;br&gt;Percentage identity: 31&lt;br&gt;Percentage coverage: 98&lt;br&gt;BLAST bit score: 109&lt;br&gt;E-value: 5.2e-22" id="dummy-1_h1_1_5" style="stroke:black; stroke-width:1; fill:#d81515; " locus_tag="FYX01_RS00510" class="clusterblast-orf"  />
</g>
<g id="a1_006"  >
<polygon points="96,90 99,85 96,80 96,90 " description="&lt;b&gt;FYX01_RS00515&lt;/b&gt;&lt;br&gt;DUF397 domain-containing protein&lt;br&gt;Location: 108203 - 108385" id="dummy-1_h1_1_6" style="stroke:black; stroke-width:1; fill:white; " locus_tag="FYX01_RS00515" class="clusterblast-orf"  />
</g>
<g id="a1_007"  >
<polygon points="106,85 111,80 119,80 119,90 111,90 106,85 " description="&lt;b&gt;FYX01_RS00520&lt;/b&gt;&lt;br&gt;hypothetical protein&lt;br&gt;Location: 108752 - 109450&lt;br&gt;&lt;br&gt;&lt;b&gt;BlastP hit with cds2830_3439&lt;/b&gt;&lt;br&gt;Percentage identity: 66&lt;br&gt;Percentage coverage: 98&lt;br&gt;BLAST bit score: 275&lt;br&gt;E-value: 5.1e-72" id="dummy-1_h1_1_7" style="stroke:black; stroke-width:1; fill:#33d815; " locus_tag="FYX01_RS00520" class="clusterblast-orf"  />
</g>
<g id="a1_008"  >
<polygon points="122,85 127,80 147,80 147,90 127,90 122,85 " description="&lt;b&gt;FYX01_RS00525&lt;/b&gt;&lt;br&gt;histidine--tRNA ligase&lt;br&gt;Location: 109597 - 110892&lt;br&gt;&lt;br&gt;&lt;b&gt;BlastP hit with cds3689_4985&lt;/b&gt;&lt;br&gt;Percentage identity: 81&lt;br&gt;Percentage coverage: 100&lt;br&gt;BLAST bit score: 696&lt;br&gt;E-value: 1.2e-198" id="dummy-1_h1_1_8" style="stroke:black; stroke-width:1; fill:#15abd8; " locus_tag="FYX01_RS00525" class="clusterblast-orf"  />
</g>
<g id="a1_009"  >
<polygon points="147,85 152,80 171,80 171,90 152,90 147,85 " description="&lt;b&gt;FYX01_RS00530&lt;/b&gt;&lt;br&gt;hypothetical protein&lt;br&gt;Location: 110940 - 112175&lt;br&gt;&lt;br&gt;&lt;b&gt;BlastP hit with cds5034_6270&lt;/b&gt;&lt;br&gt;Percentage identity: 83&lt;br&gt;Percentage coverage: 100&lt;br&gt;BLAST bit score: 709&lt;br&gt;E-value: 2.1e-202" id="dummy-1_h1_1_9" style="stroke:black; stroke-width:1; fill:#8d15d8; " locus_tag="FYX01_RS00530" class="clusterblast-orf"  />
</g>
<g id="a1_0010"  >
<polygon points="185,90 207,90 212,85 207,80 185,80 185,90 " description="&lt;b&gt;FYX01_RS00535&lt;/b&gt;&lt;br&gt;pentapeptide repeat-containing protein&lt;br&gt;Location: 112911 - 114371" id="dummy-1_h1_1_10" style="stroke:black; stroke-width:1; fill:white; " locus_tag="FYX01_RS00535" class="clusterblast-orf"  />
</g>
<g id="a1_0011"  >
<polygon points="212,90 219,90 224,85 219,80 212,80 212,90 " description="&lt;b&gt;FYX01_RS00540&lt;/b&gt;&lt;br&gt;HAD family hydrolase&lt;br&gt;Location: 114379 - 115015&lt;br&gt;&lt;br&gt;&lt;b&gt;BlastP hit with cds6775_7423&lt;/b&gt;&lt;br&gt;Percentage identity: 83&lt;br&gt;Percentage coverage: 20&lt;br&gt;BLAST bit score: 82&lt;br&gt;E-value: 3.9e-14" id="dummy-1_h1_1_11" style="stroke:black; stroke-width:1; fill:#d86f15; " locus_tag="FYX01_RS00540" class="clusterblast-orf"  />
</g>
<g id="a1_0012"  >
<polygon points="225,90 237,90 242,85 237,80 225,80 225,90 " description="&lt;b&gt;FYX01_RS00545&lt;/b&gt;&lt;br&gt;phosphotransferase&lt;br&gt;Location: 115052 - 115951" id="dummy-1_h1_1_12" style="stroke:black; stroke-width:1; fill:white; " locus_tag="FYX01_RS00545" class="clusterblast-orf"  />
</g>
<g id="a1_0013"  >
<polygon points="242,85 247,80 269,80 269,90 247,90 242,85 " description="&lt;b&gt;FYX01_RS00550&lt;/b&gt;&lt;br&gt;helix-turn-helix domain-containing protein&lt;br&gt;Location: 115952 - 117400&lt;br&gt;&lt;br&gt;&lt;b&gt;BlastP hit with cds7406_8726&lt;/b&gt;&lt;br&gt;Percentage identity: 78&lt;br&gt;Percentage coverage: 22&lt;br&gt;BLAST bit score: 152&lt;br&gt;E-value: 1.1e-34" id="dummy-1_h1_1_13" style="stroke:black; stroke-width:1; fill:#15d851; " locus_tag="FYX01_RS00550" class="clusterblast-orf"  />
</g>
<g id="a1_0014"  >
<polygon points="270,85 275,80 280,80 280,90 275,90 270,85 " description="&lt;b&gt;FYX01_RS00555&lt;/b&gt;&lt;br&gt;flavoprotein&lt;br&gt;Location: 117407 - 117958" id="dummy-1_h1_1_14" style="stroke:black; stroke-width:1; fill:white; " locus_tag="FYX01_RS00555" class="clusterblast-orf"  />
</g>
<g id="a1_0015"  >
<polygon points="280,85 285,80 303,80 303,90 285,90 280,85 " description="&lt;b&gt;FYX01_RS00560&lt;/b&gt;&lt;br&gt;helix-turn-helix transcriptional regulator&lt;br&gt;Location: 117955 - 119172&lt;br&gt;&lt;br&gt;&lt;b&gt;BlastP hit with cds7406_8726&lt;/b&gt;&lt;br&gt;Percentage identity: 34&lt;br&gt;Percentage coverage: 94&lt;br&gt;BLAST bit score: 148&lt;br&gt;E-value: 1.6e-33" id="dummy-1_h1_1_15" style="stroke:black; stroke-width:1; fill:#15d851; " locus_tag="FYX01_RS00560" class="clusterblast-orf"  />
</g>
<g id="a1_0016"  >
<polygon points="309,90 313,90 318,85 313,80 309,80 309,90 " description="&lt;b&gt;FYX01_RS00565&lt;/b&gt;&lt;br&gt;roadblock/LC7 domain-containing protein&lt;br&gt;Location: 119482 - 119970&lt;br&gt;&lt;br&gt;&lt;b&gt;BlastP hit with cds8941_9418&lt;/b&gt;&lt;br&gt;Percentage identity: 42&lt;br&gt;Percentage coverage: 93&lt;br&gt;BLAST bit score: 92&lt;br&gt;E-value: 2.8e-17" id="dummy-1_h1_1_16" style="stroke:black; stroke-width:1; fill:#1551d8; " locus_tag="FYX01_RS00565" class="clusterblast-orf"  />
</g>
<g id="a1_0017"  >
<polygon points="318,90 328,90 333,85 328,80 318,80 318,90 " description="&lt;b&gt;FYX01_RS00570&lt;/b&gt;&lt;br&gt;DUF742 domain-containing protein&lt;br&gt;Location: 119967 - 120767&lt;br&gt;&lt;br&gt;&lt;b&gt;BlastP hit with cds9414_10221&lt;/b&gt;&lt;br&gt;Percentage identity: 46&lt;br&gt;Percentage coverage: 102&lt;br&gt;BLAST bit score: 201&lt;br&gt;E-value: 1.2e-49" id="dummy-1_h1_1_17" style="stroke:black; stroke-width:1; fill:#d815c9; " locus_tag="FYX01_RS00570" class="clusterblast-orf"  />
</g>
<g id="a1_0018"  >
<polygon points="333,90 353,90 358,85 353,80 333,80 333,90 " description="&lt;b&gt;FYX01_RS00575&lt;/b&gt;&lt;br&gt;hypothetical protein&lt;br&gt;Location: 120764 - 122083&lt;br&gt;&lt;br&gt;&lt;b&gt;BlastP hit with cds10217_11543&lt;/b&gt;&lt;br&gt;Percentage identity: 63&lt;br&gt;Percentage coverage: 101&lt;br&gt;BLAST bit score: 527&lt;br&gt;E-value: 1.6e-147" id="dummy-1_h1_1_18" style="stroke:black; stroke-width:1; fill:#d8c915; " locus_tag="FYX01_RS00575" class="clusterblast-orf"  />
</g>
<g id="a1_0019"  >
<polygon points="359,90 367,90 372,85 367,80 359,80 359,90 " description="&lt;b&gt;FYX01_RS00580&lt;/b&gt;&lt;br&gt;methyltransferase domain-containing protein&lt;br&gt;Location: 122120 - 122845&lt;br&gt;&lt;br&gt;&lt;b&gt;BlastP hit with cds11594_12308&lt;/b&gt;&lt;br&gt;Percentage identity: 45&lt;br&gt;Percentage coverage: 101&lt;br&gt;BLAST bit score: 206&lt;br&gt;E-value: 3.4e-51" id="dummy-1_h1_1_19" style="stroke:black; stroke-width:1; fill:#15d8ab; " locus_tag="FYX01_RS00580" class="clusterblast-orf"  />
</g>
<g id="a1_0020"  >
<polygon points="372,90 422,90 427,85 422,80 372,80 372,90 " description="&lt;b&gt;FYX01_RS00585&lt;/b&gt;&lt;br&gt;acyltransferase domain-containing protein&lt;br&gt;Location: 122842 - 125742&lt;br&gt;&lt;br&gt;&lt;b&gt;BlastP hit with cds12304_15211&lt;/b&gt;&lt;br&gt;Percentage identity: 64&lt;br&gt;Percentage coverage: 99&lt;br&gt;BLAST bit score: 1188&lt;br&gt;E-value: 0.0" id="dummy-1_h1_1_20" style="stroke:black; stroke-width:1; fill:#3315d8; " locus_tag="FYX01_RS00585" class="clusterblast-orf"  />
</g>
<g id="a1_0021"  >
<polygon points="429,90 430,90 435,85 430,80 429,80 429,90 " description="&lt;b&gt;FYX01_RS00590&lt;/b&gt;&lt;br&gt;WhiB family transcriptional regulator&lt;br&gt;Location: 125828 - 126142" id="dummy-1_h1_1_21" style="stroke:black; stroke-width:1; fill:white; " locus_tag="FYX01_RS00590" class="clusterblast-orf"  />
</g>
<g id="a1_0022"  >
<polygon points="436,85 441,80 442,80 442,90 441,90 436,85 " description="&lt;b&gt;FYX01_RS00595&lt;/b&gt;&lt;br&gt;hypothetical protein&lt;br&gt;Location: 126236 - 126535" id="dummy-1_h1_1_22" style="stroke:black; stroke-width:1; fill:white; " locus_tag="FYX01_RS00595" class="clusterblast-orf"  />
</g>
<g id="a1_0023"  >
<polygon points="506,85 511,80 512,80 512,90 511,90 506,85 " description="&lt;b&gt;FYX01_RS00600&lt;/b&gt;&lt;br&gt;type I-E CRISPR-associated endoribonuclease Cas2&lt;br&gt;Location: 129925 - 130257" id="dummy-1_h1_1_23" style="stroke:black; stroke-width:1; fill:white; " locus_tag="FYX01_RS00600" class="clusterblast-orf"  />
</g>
<g id="a1_0024"  >
<polygon points="513,85 518,80 531,80 531,90 518,90 513,85 " description="&lt;b&gt;FYX01_RS00605&lt;/b&gt;&lt;br&gt;type I-E CRISPR-associated endonuclease Cas1&lt;br&gt;Location: 130301 - 131266" id="dummy-1_h1_1_24" style="stroke:black; stroke-width:1; fill:white; " locus_tag="FYX01_RS00605" class="clusterblast-orf"  />
</g>
<g id="a1_0025"  >
<polygon points="531,85 536,80 544,80 544,90 536,90 531,85 " description="&lt;b&gt;FYX01_RS00610&lt;/b&gt;&lt;br&gt;type I-E CRISPR-associated protein Cas6/Cse3/CasE&lt;br&gt;Location: 131263 - 131916" id="dummy-1_h1_1_25" style="stroke:black; stroke-width:1; fill:white; " locus_tag="FYX01_RS00610" class="clusterblast-orf"  />
</g>
<g id="a1_0026"  >
<polygon points="544,85 549,80 560,80 560,90 549,90 544,85 " description="&lt;b&gt;FYX01_RS00615&lt;/b&gt;&lt;br&gt;type I-E CRISPR-associated protein Cas5/CasD&lt;br&gt;Location: 131913 - 132785" id="dummy-1_h1_1_26" style="stroke:black; stroke-width:1; fill:white; " locus_tag="FYX01_RS00615" class="clusterblast-orf"  />
</g>
<g id="a1_0027"  >
<polygon points="560,85 565,80 582,80 582,90 565,90 560,85 " description="&lt;b&gt;FYX01_RS00620&lt;/b&gt;&lt;br&gt;type I-E CRISPR-associated protein Cas7/Cse4/CasC&lt;br&gt;Location: 132782 - 133945" id="dummy-1_h1_1_27" style="stroke:black; stroke-width:1; fill:white; " locus_tag="FYX01_RS00620" class="clusterblast-orf"  />
</g>
<g id="a1_0028"  >
<polygon points="583,85 588,80 596,80 596,90 588,90 583,85 " description="&lt;b&gt;FYX01_RS00625&lt;/b&gt;&lt;br&gt;type I-E CRISPR-associated protein Cse2/CasB&lt;br&gt;Location: 134009 - 134692" id="dummy-1_h1_1_28" style="stroke:black; stroke-width:1; fill:white; " locus_tag="FYX01_RS00625" class="clusterblast-orf"  />
</g>
<g id="a1_0029"  >
<polygon points="596,85 601,80 625,80 625,90 601,90 596,85 " description="&lt;b&gt;FYX01_RS00630&lt;/b&gt;&lt;br&gt;type I-E CRISPR-associated protein Cse1/CasA&lt;br&gt;Location: 134689 - 136248" id="dummy-1_h1_1_29" style="stroke:black; stroke-width:1; fill:white; " locus_tag="FYX01_RS00630" class="clusterblast-orf"  />
</g>
<g id="a1_0030"  >
<polygon points="629,85 634,80 682,80 682,90 634,90 629,85 " description="&lt;b&gt;FYX01_RS00635&lt;/b&gt;&lt;br&gt;CRISPR-associated helicase Cas3'&lt;br&gt;Location: 136448 - 139237" id="dummy-1_h1_1_30" style="stroke:black; stroke-width:1; fill:white; " locus_tag="FYX01_RS00635" class="clusterblast-orf"  />
</g>
<g id="a1_0031"  >
<polygon points="765,85 770,80 780,80 780,90 770,90 765,85 " description="&lt;b&gt;FYX01_RS00640&lt;/b&gt;&lt;br&gt;DUF2637 domain-containing protein&lt;br&gt;Location: 143644 - 144405" id="dummy-1_h1_1_31" style="stroke:black; stroke-width:1; fill:white; " locus_tag="FYX01_RS00640" class="clusterblast-orf"  />
</g>
</svg>
