<svg preserveAspectRatio="none" width="800" height="230" xmlns:xlink="http://www.w3.org/1999/xlink" xmlns="http://www.w3.org/2000/svg" version="1.1" viewBox="0 0 800 230" x="0" y="0"  >
<g label="Query sequence" class="clusterblast-cluster"  >
<text class="clusterblast-acc" x="5" y="20"  >
Query sequence</text>
<line y1="35" style="stroke:grey; stroke-width:1; " x1="10" y2="35" x2="778.0"  />
<polygon points="165,35 170,30 188,30 188,40 170,40 165,35 " description="&lt;b&gt;cds47_1373&lt;/b&gt;&lt;br&gt;ABC transporter-like system, substrate-binding protein (cluster 4, leucine/isoleucine/valine/benzoate)&lt;br&gt;Location: 47 - 1373" id="dummy-1_q0_0_all" style="stroke:black; stroke-width:1; fill:#d81515; " locus_tag="cds47_1373" class="clusterblast-orf"  />
<polygon points="192,40 194,35 192,30 192,40 " description="&lt;b&gt;cds1552_1711&lt;/b&gt;&lt;br&gt;hypothetical protein&lt;br&gt;Location: 1552 - 1711" id="dummy-1_q1_0_all" style="stroke:black; stroke-width:1; fill:white; " locus_tag="cds1552_1711" class="clusterblast-orf"  />
<polygon points="196,40 291,40 296,35 291,30 196,30 196,40 " description="&lt;b&gt;cds1796_7556&lt;/b&gt;&lt;br&gt;Polyketide synthase&lt;br&gt;Location: 1796 - 7556" id="dummy-1_q2_0_all" style="stroke:black; stroke-width:1; fill:#33d815; " locus_tag="cds1796_7556" class="clusterblast-orf"  />
<polygon points="296,40 299,40 304,35 299,30 296,30 296,40 " description="&lt;b&gt;cds7552_7993&lt;/b&gt;&lt;br&gt;4-hydroxybenzoyl-CoA thioesterase family active site&lt;br&gt;Location: 7552 - 7993" id="dummy-1_q3_0_all" style="stroke:black; stroke-width:1; fill:#15abd8; " locus_tag="cds7552_7993" class="clusterblast-orf"  />
<polygon points="310,35 315,30 323,30 323,40 315,40 310,35 " description="&lt;b&gt;cds8369_9110&lt;/b&gt;&lt;br&gt;Transcriptional regulator, AcrR family&lt;br&gt;Location: 8369 - 9110" id="dummy-1_q4_0_all" style="stroke:black; stroke-width:1; fill:#8d15d8; " locus_tag="cds8369_9110" class="clusterblast-orf"  />
<polygon points="323,35 328,30 340,30 340,40 328,40 323,35 " description="&lt;b&gt;cds9106_10063&lt;/b&gt;&lt;br&gt;UnbL&lt;br&gt;Location: 9106 - 10063" id="dummy-1_q5_0_all" style="stroke:black; stroke-width:1; fill:#d86f15; " locus_tag="cds9106_10063" class="clusterblast-orf"  />
<polygon points="340,35 345,30 354,30 354,40 345,40 340,35 " description="&lt;b&gt;cds10082_10880&lt;/b&gt;&lt;br&gt;Transcriptional regulator, AraC family&lt;br&gt;Location: 10082 - 10880" id="dummy-1_q6_0_all" style="stroke:black; stroke-width:1; fill:#15d851; " locus_tag="cds10082_10880" class="clusterblast-orf"  />
<polygon points="363,40 381,40 386,35 381,30 363,30 363,40 " description="&lt;b&gt;cds11400_12708&lt;/b&gt;&lt;br&gt;hypothetical protein&lt;br&gt;Location: 11400 - 12708" id="dummy-1_q7_0_all" style="stroke:black; stroke-width:1; fill:#1551d8; " locus_tag="cds11400_12708" class="clusterblast-orf"  />
<polygon points="387,40 394,40 399,35 394,30 387,30 387,40 " description="&lt;b&gt;cds12787_13423&lt;/b&gt;&lt;br&gt;hypothetical protein&lt;br&gt;Location: 12787 - 13423" id="dummy-1_q8_0_all" style="stroke:black; stroke-width:1; fill:#d815c9; " locus_tag="cds12787_13423" class="clusterblast-orf"  />
<polygon points="400,40 414,40 419,35 414,30 400,30 400,40 " description="&lt;b&gt;cds13508_14579&lt;/b&gt;&lt;br&gt;hypothetical protein&lt;br&gt;Location: 13508 - 14579" id="dummy-1_q9_0_all" style="stroke:black; stroke-width:1; fill:#d8c915; " locus_tag="cds13508_14579" class="clusterblast-orf"  />
<polygon points="419,40 435,40 440,35 435,30 419,30 419,40 " description="&lt;b&gt;cds14566_15805&lt;/b&gt;&lt;br&gt;ABC1 family protein&lt;br&gt;Location: 14566 - 15805" id="dummy-1_q10_0_all" style="stroke:black; stroke-width:1; fill:#15d8ab; " locus_tag="cds14566_15805" class="clusterblast-orf"  />
<polygon points="440,35 445,30 455,30 455,40 445,40 440,35 " description="&lt;b&gt;cds15819_16638&lt;/b&gt;&lt;br&gt;Transcriptional regulator, AraC family&lt;br&gt;Location: 15819 - 16638" id="dummy-1_q11_0_all" style="stroke:black; stroke-width:1; fill:#15d851; " locus_tag="cds15819_16638" class="clusterblast-orf"  />
<polygon points="454,35 459,30 469,30 469,40 459,40 454,35 " description="&lt;b&gt;cds16627_17467&lt;/b&gt;&lt;br&gt;hypothetical protein&lt;br&gt;Location: 16627 - 17467" id="dummy-1_q12_0_all" style="stroke:black; stroke-width:1; fill:white; " locus_tag="cds16627_17467" class="clusterblast-orf"  />
<polygon points="470,35 475,30 493,30 493,40 475,40 470,35 " description="&lt;b&gt;cds17500_18853&lt;/b&gt;&lt;br&gt;hypothetical protein&lt;br&gt;Location: 17500 - 18853" id="dummy-1_q13_0_all" style="stroke:black; stroke-width:1; fill:#3315d8; " locus_tag="cds17500_18853" class="clusterblast-orf"  />
<polygon points="494,35 499,30 515,30 515,40 499,40 494,35 " description="&lt;b&gt;cds18869_20078&lt;/b&gt;&lt;br&gt;hypothetical protein&lt;br&gt;Location: 18869 - 20078" id="dummy-1_q14_0_all" style="stroke:black; stroke-width:1; fill:#15d8ab; " locus_tag="cds18869_20078" class="clusterblast-orf"  />
<polygon points="515,35 520,30 522,30 522,40 520,40 515,35 " description="&lt;b&gt;cds20074_20521&lt;/b&gt;&lt;br&gt;hypothetical protein&lt;br&gt;Location: 20074 - 20521" id="dummy-1_q15_0_all" style="stroke:black; stroke-width:1; fill:white; " locus_tag="cds20074_20521" class="clusterblast-orf"  />
<polygon points="522,35 527,30 549,30 549,40 527,40 522,35 " description="&lt;b&gt;cds20517_22020&lt;/b&gt;&lt;br&gt;hypothetical protein&lt;br&gt;Location: 20517 - 22020" id="dummy-1_q16_0_all" style="stroke:black; stroke-width:1; fill:#d8156f; " locus_tag="cds20517_22020" class="clusterblast-orf"  />
<polygon points="549,35 554,30 571,30 571,40 554,40 549,35 " description="&lt;b&gt;cds22037_23303&lt;/b&gt;&lt;br&gt;hypothetical protein&lt;br&gt;Location: 22037 - 23303" id="dummy-1_q17_0_all" style="stroke:black; stroke-width:1; fill:white; " locus_tag="cds22037_23303" class="clusterblast-orf"  />
<polygon points="576,40 577,40 582,35 577,30 576,30 576,40 " description="&lt;b&gt;cds23574_23952&lt;/b&gt;&lt;br&gt;hypothetical protein&lt;br&gt;Location: 23574 - 23952" id="dummy-1_q18_0_all" style="stroke:black; stroke-width:1; fill:white; " locus_tag="cds23574_23952" class="clusterblast-orf"  />
<polygon points="583,40 595,40 600,35 595,30 583,30 583,40 " description="&lt;b&gt;cds24002_24986&lt;/b&gt;&lt;br&gt;Efflux ABC transporter, ATP-binding protein&lt;br&gt;Location: 24002 - 24986" id="dummy-1_q19_0_all" style="stroke:black; stroke-width:1; fill:#8dd815; " locus_tag="cds24002_24986" class="clusterblast-orf"  />
<polygon points="601,40 609,40 614,35 609,30 601,30 601,40 " description="&lt;b&gt;cds25012_25777&lt;/b&gt;&lt;br&gt;Efflux ABC transporter, permease protein&lt;br&gt;Location: 25012 - 25777" id="dummy-1_q20_0_all" style="stroke:black; stroke-width:1; fill:white; " locus_tag="cds25012_25777" class="clusterblast-orf"  />
</g>
<g label="NZ_QLLT01000003" description="NZ_QLLT01000003 (87940-132655): Kitasatospora sp. SolWspMP-SS2h K353DRAFT sca... (19% of genes show similarity), T1PKS" class="clusterblast-cluster"  >
<text class="clusterblast-acc" x="5" y="70"  >
<a xlink:href="https://antismash-db.secondarymetabolites.org/area.html?record=NZ_QLLT01000003&amp;start=87940&amp;end=132655" target="_blank">NZ_QLLT01000003 (87940-132655)</a>: Kitasatospora sp. SolWspMP-SS2h K353DRAFT sca... (19% of genes show similarity), T1PKS</text>
<line y1="85" style="stroke:grey; stroke-width:1; " x1="10" y2="85" x2="778.0"  />
</g>
<g id="a1_000"  >
<polygon points="0,85 5,80 24,80 24,90 5,90 0,85 " description="&lt;b&gt;K353_RS04710&lt;/b&gt;&lt;br&gt;MFS transporter&lt;br&gt;Location: 132655 - 131240" id="dummy-1_h1_10_0" style="stroke:black; stroke-width:1; fill:white; " locus_tag="K353_RS04710" class="clusterblast-orf"  />
</g>
<g id="a1_001"  >
<polygon points="26,90 37,90 42,85 37,80 26,80 26,90 " description="&lt;b&gt;K353_RS04705&lt;/b&gt;&lt;br&gt;helix-turn-helix domain-containing protein&lt;br&gt;Location: 131145 - 130237" id="dummy-1_h1_10_1" style="stroke:black; stroke-width:1; fill:white; " locus_tag="K353_RS04705" class="clusterblast-orf"  />
</g>
<g id="a1_002"  >
<polygon points="42,85 47,80 53,80 53,90 47,90 42,85 " description="&lt;b&gt;K353_RS04700&lt;/b&gt;&lt;br&gt;TetR/AcrR family transcriptional regulator&lt;br&gt;Location: 130203 - 129610" id="dummy-1_h1_10_2" style="stroke:black; stroke-width:1; fill:white; " locus_tag="K353_RS04700" class="clusterblast-orf"  />
</g>
<g id="a1_003"  >
<polygon points="55,90 63,90 68,85 63,80 55,80 55,90 " description="&lt;b&gt;K353_RS04695&lt;/b&gt;&lt;br&gt;AhpC/TSA family protein&lt;br&gt;Location: 129465 - 128755" id="dummy-1_h1_10_3" style="stroke:black; stroke-width:1; fill:white; " locus_tag="K353_RS04695" class="clusterblast-orf"  />
</g>
<g id="a1_004"  >
<polygon points="73,85 78,80 86,80 86,90 78,90 73,85 " description="&lt;b&gt;K353_RS04690&lt;/b&gt;&lt;br&gt;helix-turn-helix transcriptional regulator&lt;br&gt;Location: 128434 - 127682&lt;br&gt;&lt;br&gt;&lt;b&gt;BlastP hit with cds10082_10880&lt;/b&gt;&lt;br&gt;Percentage identity: 36&lt;br&gt;Percentage coverage: 77&lt;br&gt;BLAST bit score: 126&lt;br&gt;E-value: 5e-27&lt;br&gt;&lt;br&gt;&lt;b&gt;BlastP hit with cds15819_16638&lt;/b&gt;&lt;br&gt;Percentage identity: 50&lt;br&gt;Percentage coverage: 38&lt;br&gt;BLAST bit score: 102&lt;br&gt;E-value: 4.7e-20" id="dummy-1_h1_10_4" style="stroke:black; stroke-width:1; fill:#15d851; " locus_tag="K353_RS04690" class="clusterblast-orf"  />
</g>
<g id="a1_005"  >
<polygon points="95,90 104,90 109,85 104,80 95,80 95,90 " description="&lt;b&gt;K353_RS04685&lt;/b&gt;&lt;br&gt;TIGR03084 family protein&lt;br&gt;Location: 127187 - 126399" id="dummy-1_h1_10_5" style="stroke:black; stroke-width:1; fill:white; " locus_tag="K353_RS04685" class="clusterblast-orf"  />
</g>
<g id="a1_006"  >
<polygon points="112,90 129,90 134,85 129,80 112,80 112,90 " description="&lt;b&gt;K353_RS04680&lt;/b&gt;&lt;br&gt;AarF/ABC1/UbiB kinase family protein&lt;br&gt;Location: 126230 - 124935&lt;br&gt;&lt;br&gt;&lt;b&gt;BlastP hit with cds14566_15805&lt;/b&gt;&lt;br&gt;Percentage identity: 37&lt;br&gt;Percentage coverage: 85&lt;br&gt;BLAST bit score: 187&lt;br&gt;E-value: 2.2e-45&lt;br&gt;&lt;br&gt;&lt;b&gt;BlastP hit with cds18869_20078&lt;/b&gt;&lt;br&gt;Percentage identity: 36&lt;br&gt;Percentage coverage: 103&lt;br&gt;BLAST bit score: 183&lt;br&gt;E-value: 3.1e-44" id="dummy-1_h1_10_6" style="stroke:black; stroke-width:1; fill:#15d8ab; " locus_tag="K353_RS04680" class="clusterblast-orf"  />
</g>
<g id="a1_007"  >
<polygon points="135,90 148,90 153,85 148,80 135,80 135,90 " description="&lt;b&gt;K353_RS04675&lt;/b&gt;&lt;br&gt;NAD-dependent epimerase/dehydratase family protein&lt;br&gt;Location: 124878 - 123847" id="dummy-1_h1_10_7" style="stroke:black; stroke-width:1; fill:white; " locus_tag="K353_RS04675" class="clusterblast-orf"  />
</g>
<g id="a1_008"  >
<polygon points="155,90 163,90 168,85 163,80 155,80 155,90 " description="&lt;b&gt;K353_RS04670&lt;/b&gt;&lt;br&gt;maleylpyruvate isomerase family mycothiol-dependent enzyme&lt;br&gt;Location: 123752 - 122991" id="dummy-1_h1_10_8" style="stroke:black; stroke-width:1; fill:white; " locus_tag="K353_RS04670" class="clusterblast-orf"  />
</g>
<g id="a1_009"  >
<polygon points="171,85 176,80 185,80 185,90 176,90 171,85 " description="&lt;b&gt;K353_RS04665&lt;/b&gt;&lt;br&gt;helix-turn-helix transcriptional regulator&lt;br&gt;Location: 122804 - 122022&lt;br&gt;&lt;br&gt;&lt;b&gt;BlastP hit with cds10082_10880&lt;/b&gt;&lt;br&gt;Percentage identity: 34&lt;br&gt;Percentage coverage: 97&lt;br&gt;BLAST bit score: 123&lt;br&gt;E-value: 2.5e-26" id="dummy-1_h1_10_9" style="stroke:black; stroke-width:1; fill:#15d851; " locus_tag="K353_RS04665" class="clusterblast-orf"  />
</g>
<g id="a1_0010"  >
<polygon points="191,85 196,80 209,80 209,90 196,90 191,85 " description="&lt;b&gt;K353_RS04660&lt;/b&gt;&lt;br&gt;carboxymuconolactone decarboxylase family protein&lt;br&gt;Location: 121680 - 120619" id="dummy-1_h1_10_10" style="stroke:black; stroke-width:1; fill:white; " locus_tag="K353_RS04660" class="clusterblast-orf"  />
</g>
<g id="a1_0011"  >
<polygon points="216,85 221,80 230,80 230,90 221,90 216,85 " description="&lt;b&gt;K353_RS04655&lt;/b&gt;&lt;br&gt;SDR family NAD(P)-dependent oxidoreductase&lt;br&gt;Location: 120260 - 119436" id="dummy-1_h1_10_11" style="stroke:black; stroke-width:1; fill:white; " locus_tag="K353_RS04655" class="clusterblast-orf"  />
</g>
<g id="a1_0012"  >
<polygon points="231,85 236,80 242,80 242,90 236,90 231,85 " description="&lt;b&gt;K353_RS04650&lt;/b&gt;&lt;br&gt;peroxidase-related enzyme&lt;br&gt;Location: 119385 - 118750" id="dummy-1_h1_10_12" style="stroke:black; stroke-width:1; fill:white; " locus_tag="K353_RS04650" class="clusterblast-orf"  />
</g>
<g id="a1_0013"  >
<polygon points="246,85 251,80 273,80 273,90 251,90 246,85 " description="&lt;b&gt;K353_RS04645&lt;/b&gt;&lt;br&gt;NAD(P)-binding protein&lt;br&gt;Location: 118527 - 116980" id="dummy-1_h1_10_13" style="stroke:black; stroke-width:1; fill:white; " locus_tag="K353_RS04645" class="clusterblast-orf"  />
</g>
<g id="a1_0014"  >
<polygon points="278,90 309,90 314,85 309,80 278,80 278,90 " description="&lt;b&gt;K353_RS04640&lt;/b&gt;&lt;br&gt;CRTAC1 family protein&lt;br&gt;Location: 116688 - 114598" id="dummy-1_h1_10_14" style="stroke:black; stroke-width:1; fill:white; " locus_tag="K353_RS04640" class="clusterblast-orf"  />
</g>
<g id="a1_0015"  >
<polygon points="314,90 327,90 332,85 327,80 314,80 314,90 " description="&lt;b&gt;K353_RS04635&lt;/b&gt;&lt;br&gt;enediyne biosynthesis protein&lt;br&gt;Location: 114601 - 113579" id="dummy-1_h1_10_15" style="stroke:black; stroke-width:1; fill:white; " locus_tag="K353_RS04635" class="clusterblast-orf"  />
</g>
<g id="a1_0016"  >
<polygon points="334,90 430,90 435,85 430,80 334,80 334,90 " description="&lt;b&gt;K353_RS04630&lt;/b&gt;&lt;br&gt;SDR family NAD(P)-dependent oxidoreductase&lt;br&gt;Location: 113507 - 107706&lt;br&gt;&lt;br&gt;&lt;b&gt;BlastP hit with cds1796_7556&lt;/b&gt;&lt;br&gt;Percentage identity: 52&lt;br&gt;Percentage coverage: 101&lt;br&gt;BLAST bit score: 1639&lt;br&gt;E-value: 0.0" id="dummy-1_h1_10_16" style="stroke:black; stroke-width:1; fill:#33d815; " locus_tag="K353_RS04630" class="clusterblast-orf"  />
</g>
<g id="a1_0017"  >
<polygon points="435,90 438,90 443,85 438,80 435,80 435,90 " description="&lt;b&gt;K353_RS04625&lt;/b&gt;&lt;br&gt;acyl-CoA thioesterase&lt;br&gt;Location: 107709 - 107233&lt;br&gt;&lt;br&gt;&lt;b&gt;BlastP hit with cds7552_7993&lt;/b&gt;&lt;br&gt;Percentage identity: 67&lt;br&gt;Percentage coverage: 98&lt;br&gt;BLAST bit score: 191&lt;br&gt;E-value: 7e-47" id="dummy-1_h1_10_17" style="stroke:black; stroke-width:1; fill:#15abd8; " locus_tag="K353_RS04625" class="clusterblast-orf"  />
</g>
<g id="a1_0018"  >
<polygon points="443,90 448,90 453,85 448,80 443,80 443,90 " description="&lt;b&gt;K353_RS04620&lt;/b&gt;&lt;br&gt;flavin reductase family protein&lt;br&gt;Location: 107227 - 106658" id="dummy-1_h1_10_18" style="stroke:black; stroke-width:1; fill:white; " locus_tag="K353_RS04620" class="clusterblast-orf"  />
</g>
<g id="a1_0019"  >
<polygon points="456,85 461,80 479,80 479,90 461,90 456,85 " description="&lt;b&gt;K353_RS04615&lt;/b&gt;&lt;br&gt;cytochrome P450&lt;br&gt;Location: 106486 - 105194" id="dummy-1_h1_10_19" style="stroke:black; stroke-width:1; fill:white; " locus_tag="K353_RS04615" class="clusterblast-orf"  />
</g>
<g id="a1_0020"  >
<polygon points="481,85 486,80 498,80 498,90 486,90 481,85 " description="&lt;b&gt;K353_RS04610&lt;/b&gt;&lt;br&gt;DUF1702 family protein&lt;br&gt;Location: 105047 - 104064&lt;br&gt;&lt;br&gt;&lt;b&gt;BlastP hit with cds9106_10063&lt;/b&gt;&lt;br&gt;Percentage identity: 54&lt;br&gt;Percentage coverage: 98&lt;br&gt;BLAST bit score: 313&lt;br&gt;E-value: 2.6e-83" id="dummy-1_h1_10_20" style="stroke:black; stroke-width:1; fill:#d86f15; " locus_tag="K353_RS04610" class="clusterblast-orf"  />
</g>
<g id="a1_0021"  >
<polygon points="502,90 514,90 519,85 514,80 502,80 502,90 " description="&lt;b&gt;K353_RS04605&lt;/b&gt;&lt;br&gt;hypothetical protein&lt;br&gt;Location: 103835 - 102876" id="dummy-1_h1_10_21" style="stroke:black; stroke-width:1; fill:white; " locus_tag="K353_RS04605" class="clusterblast-orf"  />
</g>
<g id="a1_0022"  >
<polygon points="526,85 531,80 546,80 546,90 531,90 526,85 " description="&lt;b&gt;K353_RS04600&lt;/b&gt;&lt;br&gt;glycosyltransferase&lt;br&gt;Location: 102492 - 101353" id="dummy-1_h1_10_22" style="stroke:black; stroke-width:1; fill:white; " locus_tag="K353_RS04600" class="clusterblast-orf"  />
</g>
<g id="a1_0023"  >
<polygon points="549,85 554,80 560,80 560,90 554,90 549,85 " description="&lt;b&gt;K353_RS04595&lt;/b&gt;&lt;br&gt;TetR/AcrR family transcriptional regulator&lt;br&gt;Location: 101158 - 100517&lt;br&gt;&lt;br&gt;&lt;b&gt;BlastP hit with cds8369_9110&lt;/b&gt;&lt;br&gt;Percentage identity: 53&lt;br&gt;Percentage coverage: 86&lt;br&gt;BLAST bit score: 215&lt;br&gt;E-value: 4.5e-54" id="dummy-1_h1_10_23" style="stroke:black; stroke-width:1; fill:#8d15d8; " locus_tag="K353_RS04595" class="clusterblast-orf"  />
</g>
<g id="a1_0024"  >
<polygon points="562,90 581,90 586,85 581,80 562,80 562,90 " description="&lt;b&gt;K353_RS04590&lt;/b&gt;&lt;br&gt;dioxygenase&lt;br&gt;Location: 100437 - 99052" id="dummy-1_h1_10_24" style="stroke:black; stroke-width:1; fill:white; " locus_tag="K353_RS04590" class="clusterblast-orf"  />
</g>
<g id="a1_0025"  >
<polygon points="584,85 589,80 602,80 602,90 589,90 584,85 " description="&lt;b&gt;K353_RS04585&lt;/b&gt;&lt;br&gt;TetR family transcriptional regulator&lt;br&gt;Location: 99137 - 98133" id="dummy-1_h1_10_25" style="stroke:black; stroke-width:1; fill:white; " locus_tag="K353_RS04585" class="clusterblast-orf"  />
</g>
<g id="a1_0026"  >
<polygon points="608,90 636,90 641,85 636,80 608,80 608,90 " description="&lt;b&gt;K353_RS04580&lt;/b&gt;&lt;br&gt;FAD-dependent oxidoreductase&lt;br&gt;Location: 97756 - 95894" id="dummy-1_h1_10_26" style="stroke:black; stroke-width:1; fill:white; " locus_tag="K353_RS04580" class="clusterblast-orf"  />
</g>
<g id="a1_0027"  >
<polygon points="641,90 658,90 663,85 658,80 641,80 641,90 " description="&lt;b&gt;K353_RS04575&lt;/b&gt;&lt;br&gt;PEP-utilizing protein&lt;br&gt;Location: 95893 - 94625" id="dummy-1_h1_10_27" style="stroke:black; stroke-width:1; fill:white; " locus_tag="K353_RS04575" class="clusterblast-orf"  />
</g>
<g id="a1_0028"  >
<polygon points="666,90 671,90 676,85 671,80 666,80 666,90 " description="&lt;b&gt;K353_RS04570&lt;/b&gt;&lt;br&gt;hypothetical protein&lt;br&gt;Location: 94460 - 93870" id="dummy-1_h1_10_28" style="stroke:black; stroke-width:1; fill:white; " locus_tag="K353_RS04570" class="clusterblast-orf"  />
</g>
<g id="a1_0029"  >
<polygon points="676,90 681,90 686,85 681,80 676,80 676,90 " description="&lt;b&gt;K353_RS04565&lt;/b&gt;&lt;br&gt;copper resistance protein CopC&lt;br&gt;Location: 93873 - 93286" id="dummy-1_h1_10_29" style="stroke:black; stroke-width:1; fill:white; " locus_tag="K353_RS04565" class="clusterblast-orf"  />
</g>
<g id="a1_0030"  >
<polygon points="687,85 692,80 697,80 697,90 692,90 687,85 " description="&lt;b&gt;K353_RS04560&lt;/b&gt;&lt;br&gt;alkylhydroperoxidase&lt;br&gt;Location: 93244 - 92696" id="dummy-1_h1_10_30" style="stroke:black; stroke-width:1; fill:white; " locus_tag="K353_RS04560" class="clusterblast-orf"  />
</g>
<g id="a1_0031"  >
<polygon points="701,90 705,90 710,85 705,80 701,80 701,90 " description="&lt;b&gt;K353_RS04555&lt;/b&gt;&lt;br&gt;DUF4383 domain-containing protein&lt;br&gt;Location: 92461 - 91901" id="dummy-1_h1_10_31" style="stroke:black; stroke-width:1; fill:white; " locus_tag="K353_RS04555" class="clusterblast-orf"  />
</g>
<g id="a1_0032"  >
<polygon points="714,90 719,90 724,85 719,80 714,80 714,90 " description="&lt;b&gt;K353_RS04550&lt;/b&gt;&lt;br&gt;sigma-70 family RNA polymerase sigma factor&lt;br&gt;Location: 91705 - 91115" id="dummy-1_h1_10_32" style="stroke:black; stroke-width:1; fill:white; " locus_tag="K353_RS04550" class="clusterblast-orf"  />
</g>
<g id="a1_0033"  >
<polygon points="724,90 728,90 733,85 728,80 724,80 724,90 " description="&lt;b&gt;K353_RS04545&lt;/b&gt;&lt;br&gt;DUF427 domain-containing protein&lt;br&gt;Location: 91100 - 90603" id="dummy-1_h1_10_33" style="stroke:black; stroke-width:1; fill:white; " locus_tag="K353_RS04545" class="clusterblast-orf"  />
</g>
<g id="a1_0034"  >
<polygon points="735,90 747,90 752,85 747,80 735,80 735,90 " description="&lt;b&gt;K353_RS04540&lt;/b&gt;&lt;br&gt;MerR family transcriptional regulator&lt;br&gt;Location: 90519 - 89491" id="dummy-1_h1_10_34" style="stroke:black; stroke-width:1; fill:white; " locus_tag="K353_RS04540" class="clusterblast-orf"  />
</g>
<g id="a1_0035"  >
<polygon points="757,90 775,90 780,85 775,80 757,80 757,90 " description="&lt;b&gt;K353_RS04535&lt;/b&gt;&lt;br&gt;class I SAM-dependent methyltransferase&lt;br&gt;Location: 89251 - 87941" id="dummy-1_h1_10_35" style="stroke:black; stroke-width:1; fill:white; " locus_tag="K353_RS04535" class="clusterblast-orf"  />
</g>
</svg>
