<svg preserveAspectRatio="none" width="800" height="230" xmlns:xlink="http://www.w3.org/1999/xlink" xmlns="http://www.w3.org/2000/svg" version="1.1" viewBox="0 0 800 230" x="0" y="0"  >
<g label="Query sequence" class="clusterblast-cluster"  >
<text class="clusterblast-acc" x="5" y="20"  >
Query sequence</text>
<line y1="35" style="stroke:grey; stroke-width:1; " x1="10" y2="35" x2="778.0"  />
<polygon points="0,40 29,40 34,35 29,30 0,30 0,40 " description="&lt;b&gt;cds124742_125309&lt;/b&gt;&lt;br&gt;Dihydrofolate reductase (EC 1.5.1.3)&lt;br&gt;Location: 124742 - 125309" id="dummy-1_q0_0_all" style="stroke:black; stroke-width:1; fill:#d81515; " locus_tag="cds124742_125309" class="clusterblast-orf"  />
<polygon points="35,35 40,30 58,30 58,40 40,40 35,35 " description="&lt;b&gt;cds125318_125699&lt;/b&gt;&lt;br&gt;Transcriptional regulator, AraC family&lt;br&gt;Location: 125318 - 125699" id="dummy-1_q1_0_all" style="stroke:black; stroke-width:1; fill:white; " locus_tag="cds125318_125699" class="clusterblast-orf"  />
<polygon points="57,40 88,40 93,35 88,30 57,30 57,40 " description="&lt;b&gt;cds125684_126287&lt;/b&gt;&lt;br&gt;hypothetical protein&lt;br&gt;Location: 125684 - 126287" id="dummy-1_q2_0_all" style="stroke:black; stroke-width:1; fill:white; " locus_tag="cds125684_126287" class="clusterblast-orf"  />
<polygon points="94,35 99,30 107,30 107,40 99,40 94,35 " description="&lt;b&gt;cds126296_126506&lt;/b&gt;&lt;br&gt;hypothetical protein&lt;br&gt;Location: 126296 - 126506" id="dummy-1_q3_0_all" style="stroke:black; stroke-width:1; fill:white; " locus_tag="cds126296_126506" class="clusterblast-orf"  />
<polygon points="107,35 112,30 115,30 115,40 112,40 107,35 " description="&lt;b&gt;cds126518_126644&lt;/b&gt;&lt;br&gt;hypothetical protein&lt;br&gt;Location: 126518 - 126644" id="dummy-1_q4_0_all" style="stroke:black; stroke-width:1; fill:white; " locus_tag="cds126518_126644" class="clusterblast-orf"  />
<polygon points="118,35 123,30 150,30 150,40 123,40 118,35 " description="&lt;b&gt;cds126700_127219&lt;/b&gt;&lt;br&gt;hypothetical protein&lt;br&gt;Location: 126700 - 127219" id="dummy-1_q5_0_all" style="stroke:black; stroke-width:1; fill:white; " locus_tag="cds126700_127219" class="clusterblast-orf"  />
<polygon points="149,35 154,30 174,30 174,40 154,40 149,35 " description="&lt;b&gt;cds127215_127626&lt;/b&gt;&lt;br&gt;hypothetical protein&lt;br&gt;Location: 127215 - 127626" id="dummy-1_q6_0_all" style="stroke:black; stroke-width:1; fill:white; " locus_tag="cds127215_127626" class="clusterblast-orf"  />
<polygon points="178,35 183,30 264,30 264,40 183,40 178,35 " description="&lt;b&gt;cds127693_129112&lt;/b&gt;&lt;br&gt;glutamine synthetase family protein&lt;br&gt;Location: 127693 - 129112" id="dummy-1_q7_0_all" style="stroke:black; stroke-width:1; fill:#4dd815; " locus_tag="cds127693_129112" class="clusterblast-orf"  />
<polygon points="264,35 269,30 372,30 372,40 269,40 264,35 " description="&lt;b&gt;cds129108_130905&lt;/b&gt;&lt;br&gt;Siderophore synthetase component, ligase&lt;br&gt;Location: 129108 - 130905" id="dummy-1_q8_0_all" style="stroke:black; stroke-width:1; fill:#1585d8; " locus_tag="cds129108_130905" class="clusterblast-orf"  />
<polygon points="372,35 377,30 481,30 481,40 377,40 372,35 " description="&lt;b&gt;cds130910_132716&lt;/b&gt;&lt;br&gt;Siderophore synthetase component, ligase&lt;br&gt;Location: 130910 - 132716" id="dummy-1_q9_0_all" style="stroke:black; stroke-width:1; fill:#1585d8; " locus_tag="cds130910_132716" class="clusterblast-orf"  />
<polygon points="481,35 486,30 557,30 557,40 486,40 481,35 " description="&lt;b&gt;cds132708_133977&lt;/b&gt;&lt;br&gt;hypothetical protein&lt;br&gt;Location: 132708 - 133977" id="dummy-1_q10_0_all" style="stroke:black; stroke-width:1; fill:#d815bc; " locus_tag="cds132708_133977" class="clusterblast-orf"  />
<polygon points="557,35 562,30 638,30 638,40 562,40 557,35 " description="&lt;b&gt;cds133973_135308&lt;/b&gt;&lt;br&gt;Siderophore biosynthesis protein, monooxygenase&lt;br&gt;Location: 133973 - 135308" id="dummy-1_q11_0_all" style="stroke:black; stroke-width:1; fill:#d8bc15; " locus_tag="cds133973_135308" class="clusterblast-orf"  />
<polygon points="637,35 642,30 733,30 733,40 642,40 637,35 " description="&lt;b&gt;cds135304_136882&lt;/b&gt;&lt;br&gt;Siderophore biosynthesis L-2,4-diaminobutyrate decarboxylase&lt;br&gt;Location: 135304 - 136882" id="dummy-1_q12_0_all" style="stroke:black; stroke-width:1; fill:#15d885; " locus_tag="cds135304_136882" class="clusterblast-orf"  />
<polygon points="745,35 750,30 780,30 780,40 750,40 745,35 " description="&lt;b&gt;cds137084_137669&lt;/b&gt;&lt;br&gt;putative acetyltransferase&lt;br&gt;Location: 137084 - 137669" id="dummy-1_q13_0_all" style="stroke:black; stroke-width:1; fill:#4d15d8; " locus_tag="cds137084_137669" class="clusterblast-orf"  />
</g>
<g label="NZ_QGTF01000003" description="NZ_QGTF01000003 (542064-555858): Nocardiopsis sp. L17-MgMaSL7 Ga0060225 103, ... (77% of genes show similarity), siderophore" class="clusterblast-cluster"  >
<text class="clusterblast-acc" x="5" y="70"  >
<a xlink:href="https://antismash-db.secondarymetabolites.org/area.html?record=NZ_QGTF01000003&amp;start=542064&amp;end=555858" target="_blank">NZ_QGTF01000003 (542064-555858)</a>: Nocardiopsis sp. L17-MgMaSL7 Ga0060225 103, ... (77% of genes show similarity), siderophore</text>
<line y1="85" style="stroke:grey; stroke-width:1; " x1="10" y2="85" x2="778.0"  />
</g>
<g id="a1_000"  >
<polygon points="24,90 123,90 128,85 123,80 24,80 24,90 " description="&lt;b&gt;BDW27_RS07735&lt;/b&gt;&lt;br&gt;2-succinyl-5-enolpyruvyl-6-hydroxy-3- cyclohexene-1-carboxylic-acid synthase&lt;br&gt;Location: 555544 - 553826" id="dummy-1_h1_7_0" style="stroke:black; stroke-width:1; fill:white; " locus_tag="BDW27_RS07735" class="clusterblast-orf"  />
</g>
<g id="a1_001"  >
<polygon points="132,85 137,80 169,80 169,90 137,90 132,85 " description="&lt;b&gt;BDW27_RS07730&lt;/b&gt;&lt;br&gt;Uma2 family endonuclease&lt;br&gt;Location: 553765 - 553148" id="dummy-1_h1_7_1" style="stroke:black; stroke-width:1; fill:white; " locus_tag="BDW27_RS07730" class="clusterblast-orf"  />
</g>
<g id="a1_002"  >
<polygon points="184,90 213,90 218,85 213,80 184,80 184,90 " description="&lt;b&gt;BDW27_RS07725&lt;/b&gt;&lt;br&gt;dihydrofolate reductase&lt;br&gt;Location: 552902 - 552339&lt;br&gt;&lt;br&gt;&lt;b&gt;BlastP hit with cds124742_125309&lt;/b&gt;&lt;br&gt;Percentage identity: 82&lt;br&gt;Percentage coverage: 99&lt;br&gt;BLAST bit score: 311&lt;br&gt;E-value: 6e-83" id="dummy-1_h1_7_2" style="stroke:black; stroke-width:1; fill:#d81515; " locus_tag="BDW27_RS07725" class="clusterblast-orf"  />
</g>
<g id="a1_003"  >
<polygon points="221,85 226,80 307,80 307,90 226,90 221,85 " description="&lt;b&gt;BDW27_RS07720&lt;/b&gt;&lt;br&gt;glutamine synthetase&lt;br&gt;Location: 552282 - 550855&lt;br&gt;&lt;br&gt;&lt;b&gt;BlastP hit with cds127693_129112&lt;/b&gt;&lt;br&gt;Percentage identity: 87&lt;br&gt;Percentage coverage: 100&lt;br&gt;BLAST bit score: 837&lt;br&gt;E-value: 7.8e-241" id="dummy-1_h1_7_3" style="stroke:black; stroke-width:1; fill:#4dd815; " locus_tag="BDW27_RS07720" class="clusterblast-orf"  />
</g>
<g id="a1_004"  >
<polygon points="307,85 312,80 421,80 421,90 312,90 307,85 " description="&lt;b&gt;BDW27_RS07715&lt;/b&gt;&lt;br&gt;IucA/IucC family protein&lt;br&gt;Location: 550858 - 548966&lt;br&gt;&lt;br&gt;&lt;b&gt;BlastP hit with cds129108_130905&lt;/b&gt;&lt;br&gt;Percentage identity: 81&lt;br&gt;Percentage coverage: 99&lt;br&gt;BLAST bit score: 961&lt;br&gt;E-value: 4.6e-278&lt;br&gt;&lt;br&gt;&lt;b&gt;BlastP hit with cds130910_132716&lt;/b&gt;&lt;br&gt;Percentage identity: 47&lt;br&gt;Percentage coverage: 98&lt;br&gt;BLAST bit score: 529&lt;br&gt;E-value: 5.8e-148" id="dummy-1_h1_7_4" style="stroke:black; stroke-width:1; fill:#1585d8; " locus_tag="BDW27_RS07715" class="clusterblast-orf"  />
</g>
<g id="a1_005"  >
<polygon points="423,85 428,80 536,80 536,90 428,90 423,85 " description="&lt;b&gt;BDW27_RS07710&lt;/b&gt;&lt;br&gt;IucA/IucC family protein&lt;br&gt;Location: 548936 - 547065&lt;br&gt;&lt;br&gt;&lt;b&gt;BlastP hit with cds129108_130905&lt;/b&gt;&lt;br&gt;Percentage identity: 48&lt;br&gt;Percentage coverage: 101&lt;br&gt;BLAST bit score: 531&lt;br&gt;E-value: 1.2e-148&lt;br&gt;&lt;br&gt;&lt;b&gt;BlastP hit with cds130910_132716&lt;/b&gt;&lt;br&gt;Percentage identity: 85&lt;br&gt;Percentage coverage: 97&lt;br&gt;BLAST bit score: 1029&lt;br&gt;E-value: 1e-298" id="dummy-1_h1_7_5" style="stroke:black; stroke-width:1; fill:#1585d8; " locus_tag="BDW27_RS07710" class="clusterblast-orf"  />
</g>
<g id="a1_006"  >
<polygon points="536,85 541,80 615,80 615,90 541,90 536,85 " description="&lt;b&gt;BDW27_RS07705&lt;/b&gt;&lt;br&gt;SidA/IucD/PvdA family monooxygenase&lt;br&gt;Location: 547068 - 545749&lt;br&gt;&lt;br&gt;&lt;b&gt;BlastP hit with cds133973_135308&lt;/b&gt;&lt;br&gt;Percentage identity: 75&lt;br&gt;Percentage coverage: 98&lt;br&gt;BLAST bit score: 683&lt;br&gt;E-value: 1.4e-194" id="dummy-1_h1_7_6" style="stroke:black; stroke-width:1; fill:#d8bc15; " locus_tag="BDW27_RS07705" class="clusterblast-orf"  />
</g>
<g id="a1_007"  >
<polygon points="615,85 620,80 709,80 709,90 620,90 615,85 " description="&lt;b&gt;BDW27_RS07700&lt;/b&gt;&lt;br&gt;aspartate aminotransferase family protein&lt;br&gt;Location: 545752 - 544205&lt;br&gt;&lt;br&gt;&lt;b&gt;BlastP hit with cds135304_136882&lt;/b&gt;&lt;br&gt;Percentage identity: 71&lt;br&gt;Percentage coverage: 100&lt;br&gt;BLAST bit score: 689&lt;br&gt;E-value: 2.9e-196" id="dummy-1_h1_7_7" style="stroke:black; stroke-width:1; fill:#15d885; " locus_tag="BDW27_RS07700" class="clusterblast-orf"  />
</g>
<g id="a1_008"  >
<polygon points="719,85 724,80 755,80 755,90 724,90 719,85 " description="&lt;b&gt;BDW27_RS07695&lt;/b&gt;&lt;br&gt;GNAT family N-acetyltransferase&lt;br&gt;Location: 544035 - 543445&lt;br&gt;&lt;br&gt;&lt;b&gt;BlastP hit with cds137084_137669&lt;/b&gt;&lt;br&gt;Percentage identity: 66&lt;br&gt;Percentage coverage: 101&lt;br&gt;BLAST bit score: 276&lt;br&gt;E-value: 1.7e-72" id="dummy-1_h1_7_8" style="stroke:black; stroke-width:1; fill:#4d15d8; " locus_tag="BDW27_RS07695" class="clusterblast-orf"  />
</g>
</svg>
