<svg preserveAspectRatio="none" width="800" height="230" xmlns:xlink="http://www.w3.org/1999/xlink" xmlns="http://www.w3.org/2000/svg" version="1.1" viewBox="0 0 800 230" x="0" y="0"  >
<g label="Query sequence" class="clusterblast-cluster"  >
<text class="clusterblast-acc" x="5" y="20"  >
Query sequence</text>
<line y1="35" style="stroke:grey; stroke-width:1; " x1="10" y2="35" x2="778.0"  />
<polygon points="353,40 357,35 353,30 353,40 " description="&lt;b&gt;cds1_385&lt;/b&gt;&lt;br&gt;hypothetical protein&lt;br&gt;Location: 1 - 385" id="dummy-1_q0_0_all" style="stroke:black; stroke-width:1; fill:#d81515; " locus_tag="cds1_385" class="clusterblast-orf"  />
<polygon points="358,40 422,40 427,35 422,30 358,30 358,40 " description="&lt;b&gt;cds509_6434&lt;/b&gt;&lt;br&gt;Polyketide synthase modules and related proteins&lt;br&gt;Location: 509 - 6434" id="dummy-1_q1_0_all" style="stroke:black; stroke-width:1; fill:#15d8d8; " locus_tag="cds509_6434" class="clusterblast-orf"  />
</g>
<g label="NZ_QQAU01000001" description="NZ_QQAU01000001 (563296-631526): Lentzea flaviverrucosa strain DSM 44664 Ga02... (8% of genes show similarity), NRPS,arylpolyene" class="clusterblast-cluster"  >
<text class="clusterblast-acc" x="5" y="70"  >
<a xlink:href="https://antismash-db.secondarymetabolites.org/area.html?record=NZ_QQAU01000001&amp;start=563296&amp;end=631526" target="_blank">NZ_QQAU01000001 (563296-631526)</a>: Lentzea flaviverrucosa strain DSM 44664 Ga02... (8% of genes show similarity), NRPS,arylpolyene</text>
<line y1="85" style="stroke:grey; stroke-width:1; " x1="10" y2="85" x2="778.0"  />
</g>
<g id="a1_000"  >
<polygon points="0,85 5,80 12,80 12,90 5,90 0,85 " description="&lt;b&gt;DFR72_RS03080&lt;/b&gt;&lt;br&gt;alanine racemase&lt;br&gt;Location: 631526 - 630438" id="dummy-1_h1_7_0" style="stroke:black; stroke-width:1; fill:white; " locus_tag="DFR72_RS03080" class="clusterblast-orf"  />
</g>
<g id="a1_001"  >
<polygon points="12,85 17,80 31,80 31,90 17,90 12,85 " description="&lt;b&gt;DFR72_RS03075&lt;/b&gt;&lt;br&gt;ornithine cyclodeaminase family protein&lt;br&gt;Location: 630441 - 628822" id="dummy-1_h1_7_1" style="stroke:black; stroke-width:1; fill:white; " locus_tag="DFR72_RS03075" class="clusterblast-orf"  />
</g>
<g id="a1_002"  >
<polygon points="31,85 36,80 37,80 37,90 36,90 31,85 " description="&lt;b&gt;DFR72_RS03070&lt;/b&gt;&lt;br&gt;oxidoreductase&lt;br&gt;Location: 628780 - 628310" id="dummy-1_h1_7_2" style="stroke:black; stroke-width:1; fill:white; " locus_tag="DFR72_RS03070" class="clusterblast-orf"  />
</g>
<g id="a1_003"  >
<polygon points="37,90 41,85 37,80 37,90 " description="&lt;b&gt;DFR72_RS03065&lt;/b&gt;&lt;br&gt;helix-turn-helix transcriptional regulator&lt;br&gt;Location: 628244 - 627927" id="dummy-1_h1_7_3" style="stroke:black; stroke-width:1; fill:white; " locus_tag="DFR72_RS03065" class="clusterblast-orf"  />
</g>
<g id="a1_004"  >
<polygon points="41,90 49,90 54,85 49,80 41,80 41,90 " description="&lt;b&gt;DFR72_RS03060&lt;/b&gt;&lt;br&gt;lipase&lt;br&gt;Location: 627930 - 626791" id="dummy-1_h1_7_4" style="stroke:black; stroke-width:1; fill:white; " locus_tag="DFR72_RS03060" class="clusterblast-orf"  />
</g>
<g id="a1_005"  >
<polygon points="56,90 67,90 72,85 67,80 56,80 56,90 " description="&lt;b&gt;DFR72_RS03045&lt;/b&gt;&lt;br&gt;SDR family NAD(P)-dependent oxidoreductase&lt;br&gt;Location: 626586 - 625258" id="dummy-1_h1_7_5" style="stroke:black; stroke-width:1; fill:white; " locus_tag="DFR72_RS03045" class="clusterblast-orf"  />
</g>
<g id="a1_006"  >
<polygon points="72,90 79,90 84,85 79,80 72,80 72,90 " description="&lt;b&gt;DFR72_RS03040&lt;/b&gt;&lt;br&gt;ribonuclease inhibitor&lt;br&gt;Location: 625264 - 624155" id="dummy-1_h1_7_6" style="stroke:black; stroke-width:1; fill:white; " locus_tag="DFR72_RS03040" class="clusterblast-orf"  />
</g>
<g id="a1_007"  >
<polygon points="85,85 90,80 96,80 96,90 90,90 85,85 " description="&lt;b&gt;DFR72_RS03035&lt;/b&gt;&lt;br&gt;hypothetical protein&lt;br&gt;Location: 624083 - 623130" id="dummy-1_h1_7_7" style="stroke:black; stroke-width:1; fill:white; " locus_tag="DFR72_RS03035" class="clusterblast-orf"  />
</g>
<g id="a1_008"  >
<polygon points="96,85 101,80 102,80 102,90 101,90 96,85 " description="&lt;b&gt;DFR72_RS03030&lt;/b&gt;&lt;br&gt;hypothetical protein&lt;br&gt;Location: 623133 - 622672" id="dummy-1_h1_7_8" style="stroke:black; stroke-width:1; fill:white; " locus_tag="DFR72_RS03030" class="clusterblast-orf"  />
</g>
<g id="a1_009"  >
<polygon points="103,85 108,80 108,80 108,90 108,90 103,85 " description="&lt;b&gt;DFR72_RS03025&lt;/b&gt;&lt;br&gt;nuclear transport factor 2 family protein&lt;br&gt;Location: 622506 - 622111" id="dummy-1_h1_7_9" style="stroke:black; stroke-width:1; fill:white; " locus_tag="DFR72_RS03025" class="clusterblast-orf"  />
</g>
<g id="a1_0010"  >
<polygon points="109,90 140,90 145,85 140,80 109,80 109,90 " description="&lt;b&gt;DFR72_RS03020&lt;/b&gt;&lt;br&gt;winged helix-turn-helix domain-containing protein&lt;br&gt;Location: 621992 - 618939" id="dummy-1_h1_7_10" style="stroke:black; stroke-width:1; fill:white; " locus_tag="DFR72_RS03020" class="clusterblast-orf"  />
</g>
<g id="a1_0011"  >
<polygon points="145,85 147,80 147,90 145,85 " description="&lt;b&gt;DFR72_RS03015&lt;/b&gt;&lt;br&gt;hypothetical protein&lt;br&gt;Location: 618921 - 618691" id="dummy-1_h1_7_11" style="stroke:black; stroke-width:1; fill:white; " locus_tag="DFR72_RS03015" class="clusterblast-orf"  />
</g>
<g id="a1_0012"  >
<polygon points="152,90 161,90 166,85 161,80 152,80 152,90 " description="&lt;b&gt;DFR72_RS03010&lt;/b&gt;&lt;br&gt;MFS transporter&lt;br&gt;Location: 618332 - 617076" id="dummy-1_h1_7_12" style="stroke:black; stroke-width:1; fill:white; " locus_tag="DFR72_RS03010" class="clusterblast-orf"  />
</g>
<g id="a1_0013"  >
<polygon points="166,90 173,90 178,85 173,80 166,80 166,90 " description="&lt;b&gt;DFR72_RS03005&lt;/b&gt;&lt;br&gt;branched-chain amino acid aminotransferase&lt;br&gt;Location: 617076 - 616003" id="dummy-1_h1_7_13" style="stroke:black; stroke-width:1; fill:white; " locus_tag="DFR72_RS03005" class="clusterblast-orf"  />
</g>
<g id="a1_0014"  >
<polygon points="179,90 186,90 191,85 186,80 179,80 179,90 " description="&lt;b&gt;DFR72_RS03000&lt;/b&gt;&lt;br&gt;asparagine ligase&lt;br&gt;Location: 615962 - 614946" id="dummy-1_h1_7_14" style="stroke:black; stroke-width:1; fill:white; " locus_tag="DFR72_RS03000" class="clusterblast-orf"  />
</g>
<g id="a1_0015"  >
<polygon points="191,90 200,90 205,85 200,80 191,80 191,90 " description="&lt;b&gt;DFR72_RS02995&lt;/b&gt;&lt;br&gt;alpha-hydroxy-acid oxidizing protein&lt;br&gt;Location: 614949 - 613678" id="dummy-1_h1_7_15" style="stroke:black; stroke-width:1; fill:white; " locus_tag="DFR72_RS02995" class="clusterblast-orf"  />
</g>
<g id="a1_0016"  >
<polygon points="205,90 205,90 210,85 205,80 205,80 205,90 " description="&lt;b&gt;DFR72_RS02990&lt;/b&gt;&lt;br&gt;cobalamin B12-binding domain-containing protein&lt;br&gt;Location: 613676 - 613248" id="dummy-1_h1_7_16" style="stroke:black; stroke-width:1; fill:white; " locus_tag="DFR72_RS02990" class="clusterblast-orf"  />
</g>
<g id="a1_0017"  >
<polygon points="210,90 219,90 224,85 219,80 210,80 210,90 " description="&lt;b&gt;DFR72_RS02985&lt;/b&gt;&lt;br&gt;methylaspartate mutase&lt;br&gt;Location: 613251 - 612043" id="dummy-1_h1_7_17" style="stroke:black; stroke-width:1; fill:white; " locus_tag="DFR72_RS02985" class="clusterblast-orf"  />
</g>
<g id="a1_0018"  >
<polygon points="224,90 227,85 224,80 224,90 " description="&lt;b&gt;DFR72_RS02980&lt;/b&gt;&lt;br&gt;MbtH family protein&lt;br&gt;Location: 612031 - 611822" id="dummy-1_h1_7_18" style="stroke:black; stroke-width:1; fill:white; " locus_tag="DFR72_RS02980" class="clusterblast-orf"  />
</g>
<g id="a1_0019"  >
<polygon points="227,90 277,90 282,85 277,80 227,80 227,90 " description="&lt;b&gt;DFR72_RS02975&lt;/b&gt;&lt;br&gt;non-ribosomal peptide synthetase&lt;br&gt;Location: 611787 - 607051&lt;br&gt;&lt;br&gt;&lt;b&gt;BlastP hit with cds509_6434&lt;/b&gt;&lt;br&gt;Percentage identity: 48&lt;br&gt;Percentage coverage: 76&lt;br&gt;BLAST bit score: 1156&lt;br&gt;E-value: 0.0" id="dummy-1_h1_7_19" style="stroke:black; stroke-width:1; fill:#15d8d8; " locus_tag="DFR72_RS02975" class="clusterblast-orf"  />
</g>
<g id="a1_0020"  >
<polygon points="282,90 382,90 387,85 382,80 282,80 282,90 " description="&lt;b&gt;DFR72_RS02970&lt;/b&gt;&lt;br&gt;amino acid adenylation domain-containing protein&lt;br&gt;Location: 607054 - 597926&lt;br&gt;&lt;br&gt;&lt;b&gt;BlastP hit with cds509_6434&lt;/b&gt;&lt;br&gt;Percentage identity: 45&lt;br&gt;Percentage coverage: 101&lt;br&gt;BLAST bit score: 1419&lt;br&gt;E-value: 0.0" id="dummy-1_h1_7_20" style="stroke:black; stroke-width:1; fill:#15d8d8; " locus_tag="DFR72_RS02970" class="clusterblast-orf"  />
</g>
<g id="a1_0021"  >
<polygon points="387,90 487,90 492,85 487,80 387,80 387,90 " description="&lt;b&gt;DFR72_RS02965&lt;/b&gt;&lt;br&gt;amino acid adenylation domain-containing protein&lt;br&gt;Location: 597916 - 588753&lt;br&gt;&lt;br&gt;&lt;b&gt;BlastP hit with cds509_6434&lt;/b&gt;&lt;br&gt;Percentage identity: 51&lt;br&gt;Percentage coverage: 46&lt;br&gt;BLAST bit score: 821&lt;br&gt;E-value: 1.9e-235" id="dummy-1_h1_7_21" style="stroke:black; stroke-width:1; fill:#15d8d8; " locus_tag="DFR72_RS02965" class="clusterblast-orf"  />
</g>
<g id="a1_0022"  >
<polygon points="501,90 501,90 506,85 501,80 501,80 501,90 " description="&lt;b&gt;DFR72_RS02960&lt;/b&gt;&lt;br&gt;nuclear transport factor 2 family protein&lt;br&gt;Location: 587970 - 587599&lt;br&gt;&lt;br&gt;&lt;b&gt;BlastP hit with cds1_385&lt;/b&gt;&lt;br&gt;Percentage identity: 56&lt;br&gt;Percentage coverage: 88&lt;br&gt;BLAST bit score: 129&lt;br&gt;E-value: 2.8e-28" id="dummy-1_h1_7_22" style="stroke:black; stroke-width:1; fill:#d81515; " locus_tag="DFR72_RS02960" class="clusterblast-orf"  />
</g>
<g id="a1_0023"  >
<polygon points="508,85 513,80 538,80 538,90 513,90 508,85 " description="&lt;b&gt;DFR72_RS02955&lt;/b&gt;&lt;br&gt;EAL domain-containing protein&lt;br&gt;Location: 587399 - 584811" id="dummy-1_h1_7_23" style="stroke:black; stroke-width:1; fill:white; " locus_tag="DFR72_RS02955" class="clusterblast-orf"  />
</g>
<g id="a1_0024"  >
<polygon points="542,90 550,90 555,85 550,80 542,80 542,90 " description="&lt;b&gt;DFR72_RS02950&lt;/b&gt;&lt;br&gt;3-oxoacyl-ACP synthase&lt;br&gt;Location: 584457 - 583297" id="dummy-1_h1_7_24" style="stroke:black; stroke-width:1; fill:white; " locus_tag="DFR72_RS02950" class="clusterblast-orf"  />
</g>
<g id="a1_0025"  >
<polygon points="556,90 560,90 565,85 560,80 556,80 556,90 " description="&lt;b&gt;DFR72_RS02945&lt;/b&gt;&lt;br&gt;endonuclease/exonuclease/phosphatase family protein&lt;br&gt;Location: 583236 - 582430" id="dummy-1_h1_7_25" style="stroke:black; stroke-width:1; fill:white; " locus_tag="DFR72_RS02945" class="clusterblast-orf"  />
</g>
<g id="a1_0026"  >
<polygon points="567,85 572,80 582,80 582,90 572,90 567,85 " description="&lt;b&gt;DFR72_RS02940&lt;/b&gt;&lt;br&gt;hypothetical protein&lt;br&gt;Location: 582248 - 580980" id="dummy-1_h1_7_26" style="stroke:black; stroke-width:1; fill:white; " locus_tag="DFR72_RS02940" class="clusterblast-orf"  />
</g>
<g id="a1_0027"  >
<polygon points="585,90 597,90 602,85 597,80 585,80 585,90 " description="&lt;b&gt;DFR72_RS02935&lt;/b&gt;&lt;br&gt;sugar ABC transporter ATP-binding protein&lt;br&gt;Location: 580766 - 579243" id="dummy-1_h1_7_27" style="stroke:black; stroke-width:1; fill:white; " locus_tag="DFR72_RS02935" class="clusterblast-orf"  />
</g>
<g id="a1_0028"  >
<polygon points="602,90 609,90 614,85 609,80 602,80 602,90 " description="&lt;b&gt;DFR72_RS02930&lt;/b&gt;&lt;br&gt;ABC transporter permease&lt;br&gt;Location: 579246 - 578224" id="dummy-1_h1_7_28" style="stroke:black; stroke-width:1; fill:white; " locus_tag="DFR72_RS02930" class="clusterblast-orf"  />
</g>
<g id="a1_0029"  >
<polygon points="614,90 621,90 626,85 621,80 614,80 614,90 " description="&lt;b&gt;DFR72_RS02925&lt;/b&gt;&lt;br&gt;substrate-binding domain-containing protein&lt;br&gt;Location: 578181 - 577147" id="dummy-1_h1_7_29" style="stroke:black; stroke-width:1; fill:white; " locus_tag="DFR72_RS02925" class="clusterblast-orf"  />
</g>
<g id="a1_0030"  >
<polygon points="627,90 635,90 640,85 635,80 627,80 627,90 " description="&lt;b&gt;DFR72_RS02920&lt;/b&gt;&lt;br&gt;Gfo/Idh/MocA family oxidoreductase&lt;br&gt;Location: 577099 - 575960" id="dummy-1_h1_7_30" style="stroke:black; stroke-width:1; fill:white; " locus_tag="DFR72_RS02920" class="clusterblast-orf"  />
</g>
<g id="a1_0031"  >
<polygon points="640,90 647,90 652,85 647,80 640,80 640,90 " description="&lt;b&gt;DFR72_RS02915&lt;/b&gt;&lt;br&gt;sugar phosphate isomerase/epimerase&lt;br&gt;Location: 575947 - 574940" id="dummy-1_h1_7_31" style="stroke:black; stroke-width:1; fill:white; " locus_tag="DFR72_RS02915" class="clusterblast-orf"  />
</g>
<g id="a1_0032"  >
<polygon points="652,90 661,90 666,85 661,80 652,80 652,90 " description="&lt;b&gt;DFR72_RS02910&lt;/b&gt;&lt;br&gt;ROK family transcriptional regulator&lt;br&gt;Location: 574897 - 573674" id="dummy-1_h1_7_32" style="stroke:black; stroke-width:1; fill:white; " locus_tag="DFR72_RS02910" class="clusterblast-orf"  />
</g>
<g id="a1_0033"  >
<polygon points="669,90 673,85 669,80 669,90 " description="&lt;b&gt;DFR72_RS02905&lt;/b&gt;&lt;br&gt;helix-turn-helix domain-containing protein&lt;br&gt;Location: 573399 - 573124" id="dummy-1_h1_7_33" style="stroke:black; stroke-width:1; fill:white; " locus_tag="DFR72_RS02905" class="clusterblast-orf"  />
</g>
<g id="a1_0034"  >
<polygon points="673,85 678,80 682,80 682,90 678,90 673,85 " description="&lt;b&gt;DFR72_RS02900&lt;/b&gt;&lt;br&gt;peptidoglycan-binding protein&lt;br&gt;Location: 573069 - 572332" id="dummy-1_h1_7_34" style="stroke:black; stroke-width:1; fill:white; " locus_tag="DFR72_RS02900" class="clusterblast-orf"  />
</g>
<g id="a1_0035"  >
<polygon points="683,85 688,80 688,80 688,90 688,90 683,85 " description="&lt;b&gt;DFR72_RS02895&lt;/b&gt;&lt;br&gt;winged helix-turn-helix transcriptional regulator&lt;br&gt;Location: 572180 - 571767" id="dummy-1_h1_7_35" style="stroke:black; stroke-width:1; fill:white; " locus_tag="DFR72_RS02895" class="clusterblast-orf"  />
</g>
<g id="a1_0036"  >
<polygon points="689,90 692,90 697,85 692,80 689,80 689,90 " description="&lt;b&gt;DFR72_RS02890&lt;/b&gt;&lt;br&gt;alpha/beta hydrolase&lt;br&gt;Location: 571710 - 570997" id="dummy-1_h1_7_36" style="stroke:black; stroke-width:1; fill:white; " locus_tag="DFR72_RS02890" class="clusterblast-orf"  />
</g>
<g id="a1_0037"  >
<polygon points="699,85 704,80 706,80 706,90 704,90 699,85 " description="&lt;b&gt;DFR72_RS02885&lt;/b&gt;&lt;br&gt;TetR/AcrR family transcriptional regulator&lt;br&gt;Location: 570849 - 570250" id="dummy-1_h1_7_37" style="stroke:black; stroke-width:1; fill:white; " locus_tag="DFR72_RS02885" class="clusterblast-orf"  />
</g>
<g id="a1_0038"  >
<polygon points="707,90 707,90 712,85 707,80 707,80 707,90 " description="&lt;b&gt;DFR72_RS02880&lt;/b&gt;&lt;br&gt;hypothetical protein&lt;br&gt;Location: 570179 - 569745" id="dummy-1_h1_7_38" style="stroke:black; stroke-width:1; fill:white; " locus_tag="DFR72_RS02880" class="clusterblast-orf"  />
</g>
<g id="a1_0039"  >
<polygon points="713,90 717,90 722,85 717,80 713,80 713,90 " description="&lt;b&gt;DFR72_RS02875&lt;/b&gt;&lt;br&gt;serine/threonine protein kinase&lt;br&gt;Location: 569603 - 568809" id="dummy-1_h1_7_39" style="stroke:black; stroke-width:1; fill:white; " locus_tag="DFR72_RS02875" class="clusterblast-orf"  />
</g>
<g id="a1_0040"  >
<polygon points="735,85 740,80 740,80 740,90 740,90 735,85 " description="&lt;b&gt;DFR72_RS02870&lt;/b&gt;&lt;br&gt;VOC family protein&lt;br&gt;Location: 567708 - 567241" id="dummy-1_h1_7_40" style="stroke:black; stroke-width:1; fill:white; " locus_tag="DFR72_RS02870" class="clusterblast-orf"  />
</g>
<g id="a1_0041"  >
<polygon points="742,90 748,90 753,85 748,80 742,80 742,90 " description="&lt;b&gt;DFR72_RS02865&lt;/b&gt;&lt;br&gt;WYL domain-containing transcriptional regulator&lt;br&gt;Location: 567127 - 566147" id="dummy-1_h1_7_41" style="stroke:black; stroke-width:1; fill:white; " locus_tag="DFR72_RS02865" class="clusterblast-orf"  />
</g>
<g id="a1_0042"  >
<polygon points="753,85 758,80 758,80 758,90 758,90 753,85 " description="&lt;b&gt;DFR72_RS02860&lt;/b&gt;&lt;br&gt;MarR family transcriptional regulator&lt;br&gt;Location: 566142 - 565687" id="dummy-1_h1_7_42" style="stroke:black; stroke-width:1; fill:white; " locus_tag="DFR72_RS02860" class="clusterblast-orf"  />
</g>
<g id="a1_0043"  >
<polygon points="759,90 766,90 771,85 766,80 759,80 759,90 " description="&lt;b&gt;DFR72_RS02855&lt;/b&gt;&lt;br&gt;amidohydrolase family protein&lt;br&gt;Location: 565625 - 564564" id="dummy-1_h1_7_43" style="stroke:black; stroke-width:1; fill:white; " locus_tag="DFR72_RS02855" class="clusterblast-orf"  />
</g>
<g id="a1_0044"  >
<polygon points="772,85 777,80 780,80 780,90 777,90 772,85 " description="&lt;b&gt;DFR72_RS02850&lt;/b&gt;&lt;br&gt;AIM24 family protein&lt;br&gt;Location: 564519 - 563848" id="dummy-1_h1_7_44" style="stroke:black; stroke-width:1; fill:white; " locus_tag="DFR72_RS02850" class="clusterblast-orf"  />
</g>
</svg>
