<svg preserveAspectRatio="none" width="800" height="230" xmlns:xlink="http://www.w3.org/1999/xlink" xmlns="http://www.w3.org/2000/svg" version="1.1" viewBox="0 0 800 230" x="0" y="0"  >
<g label="Query sequence" class="clusterblast-cluster"  >
<text class="clusterblast-acc" x="5" y="20"  >
Query sequence</text>
<line y1="35" style="stroke:grey; stroke-width:1; " x1="10" y2="35" x2="778.0"  />
<polygon points="149,40 151,40 156,35 151,30 149,30 149,40 " description="&lt;b&gt;cds1_424&lt;/b&gt;&lt;br&gt;Transposase&lt;br&gt;Location: 1 - 424" id="dummy-1_q0_0_all" style="stroke:black; stroke-width:1; fill:white; " locus_tag="cds1_424" class="clusterblast-orf"  />
<polygon points="155,35 160,30 163,30 163,40 160,40 155,35 " description="&lt;b&gt;cds388_898&lt;/b&gt;&lt;br&gt;Nudix hydrolase family protein&lt;br&gt;Location: 388 - 898" id="dummy-1_q1_0_all" style="stroke:black; stroke-width:1; fill:white; " locus_tag="cds388_898" class="clusterblast-orf"  />
<polygon points="163,40 171,40 176,35 171,30 163,30 163,40 " description="&lt;b&gt;cds916_1696&lt;/b&gt;&lt;br&gt;Transcriptional regulator KorSA, GntR family&lt;br&gt;Location: 916 - 1696" id="dummy-1_q2_0_all" style="stroke:black; stroke-width:1; fill:white; " locus_tag="cds916_1696" class="clusterblast-orf"  />
<polygon points="178,40 189,40 194,35 189,30 178,30 178,40 " description="&lt;b&gt;cds1844_2837&lt;/b&gt;&lt;br&gt;hypothetical protein&lt;br&gt;Location: 1844 - 2837" id="dummy-1_q3_0_all" style="stroke:black; stroke-width:1; fill:white; " locus_tag="cds1844_2837" class="clusterblast-orf"  />
<polygon points="195,40 199,40 204,35 199,30 195,30 195,40 " description="&lt;b&gt;cds2926_3448&lt;/b&gt;&lt;br&gt;hypothetical protein&lt;br&gt;Location: 2926 - 3448" id="dummy-1_q4_0_all" style="stroke:black; stroke-width:1; fill:white; " locus_tag="cds2926_3448" class="clusterblast-orf"  />
<polygon points="222,35 224,30 224,40 222,35 " description="&lt;b&gt;cds4627_4744&lt;/b&gt;&lt;br&gt;hypothetical protein&lt;br&gt;Location: 4627 - 4744" id="dummy-1_q5_0_all" style="stroke:black; stroke-width:1; fill:white; " locus_tag="cds4627_4744" class="clusterblast-orf"  />
<polygon points="226,40 229,35 226,30 226,40 " description="&lt;b&gt;cds4859_5036&lt;/b&gt;&lt;br&gt;hypothetical protein&lt;br&gt;Location: 4859 - 5036" id="dummy-1_q6_0_all" style="stroke:black; stroke-width:1; fill:white; " locus_tag="cds4859_5036" class="clusterblast-orf"  />
<polygon points="229,40 242,40 247,35 242,30 229,30 229,40 " description="&lt;b&gt;cds5045_6176&lt;/b&gt;&lt;br&gt;hypothetical protein&lt;br&gt;Location: 5045 - 6176" id="dummy-1_q7_0_all" style="stroke:black; stroke-width:1; fill:white; " locus_tag="cds5045_6176" class="clusterblast-orf"  />
<polygon points="247,40 258,40 263,35 258,30 247,30 247,40 " description="&lt;b&gt;cds6179_7151&lt;/b&gt;&lt;br&gt;hypothetical protein&lt;br&gt;Location: 6179 - 7151" id="dummy-1_q8_0_all" style="stroke:black; stroke-width:1; fill:white; " locus_tag="cds6179_7151" class="clusterblast-orf"  />
<polygon points="265,40 268,35 265,30 265,40 " description="&lt;b&gt;cds7283_7463&lt;/b&gt;&lt;br&gt;hypothetical protein&lt;br&gt;Location: 7283 - 7463" id="dummy-1_q9_0_all" style="stroke:black; stroke-width:1; fill:white; " locus_tag="cds7283_7463" class="clusterblast-orf"  />
<polygon points="272,40 282,40 287,35 282,30 272,30 272,40 " description="&lt;b&gt;cds7736_8693&lt;/b&gt;&lt;br&gt;hypothetical protein&lt;br&gt;Location: 7736 - 8693" id="dummy-1_q10_0_all" style="stroke:black; stroke-width:1; fill:white; " locus_tag="cds7736_8693" class="clusterblast-orf"  />
<polygon points="288,40 293,40 298,35 293,30 288,30 288,40 " description="&lt;b&gt;cds8748_9405&lt;/b&gt;&lt;br&gt;hypothetical protein&lt;br&gt;Location: 8748 - 9405" id="dummy-1_q11_0_all" style="stroke:black; stroke-width:1; fill:white; " locus_tag="cds8748_9405" class="clusterblast-orf"  />
<polygon points="299,40 308,40 313,35 308,30 299,30 299,40 " description="&lt;b&gt;cds9416_10337&lt;/b&gt;&lt;br&gt;hypothetical protein&lt;br&gt;Location: 9416 - 10337" id="dummy-1_q12_0_all" style="stroke:black; stroke-width:1; fill:white; " locus_tag="cds9416_10337" class="clusterblast-orf"  />
<polygon points="313,40 349,40 354,35 349,30 313,30 313,40 " description="&lt;b&gt;cds10333_12886&lt;/b&gt;&lt;br&gt;hypothetical protein&lt;br&gt;Location: 10333 - 12886" id="dummy-1_q13_0_all" style="stroke:black; stroke-width:1; fill:white; " locus_tag="cds10333_12886" class="clusterblast-orf"  />
<polygon points="354,40 367,40 372,35 367,30 354,30 354,40 " description="&lt;b&gt;cds12882_14007&lt;/b&gt;&lt;br&gt;hypothetical protein&lt;br&gt;Location: 12882 - 14007" id="dummy-1_q14_0_all" style="stroke:black; stroke-width:1; fill:white; " locus_tag="cds12882_14007" class="clusterblast-orf"  />
<polygon points="372,40 384,40 389,35 384,30 372,30 372,40 " description="&lt;b&gt;cds14044_15121&lt;/b&gt;&lt;br&gt;hypothetical protein&lt;br&gt;Location: 14044 - 15121" id="dummy-1_q15_0_all" style="stroke:black; stroke-width:1; fill:white; " locus_tag="cds14044_15121" class="clusterblast-orf"  />
<polygon points="395,40 413,40 418,35 413,30 395,30 395,40 " description="&lt;b&gt;cds15441_16911&lt;/b&gt;&lt;br&gt;hypothetical protein&lt;br&gt;Location: 15441 - 16911" id="dummy-1_q16_0_all" style="stroke:black; stroke-width:1; fill:#d81515; " locus_tag="cds15441_16911" class="clusterblast-orf"  />
<polygon points="419,40 424,40 429,35 424,30 419,30 419,40 " description="&lt;b&gt;cds16994_17636&lt;/b&gt;&lt;br&gt;dTDP-4-dehydrorhamnose 3,5-epimerase (EC 5.1.3.13)&lt;br&gt;Location: 16994 - 17636" id="dummy-1_q17_0_all" style="stroke:black; stroke-width:1; fill:#15d815; " locus_tag="cds16994_17636" class="clusterblast-orf"  />
<polygon points="430,40 434,40 439,35 434,30 430,30 430,40 " description="&lt;b&gt;cds17645_18248&lt;/b&gt;&lt;br&gt;hypothetical protein&lt;br&gt;Location: 17645 - 18248" id="dummy-1_q18_0_all" style="stroke:black; stroke-width:1; fill:white; " locus_tag="cds17645_18248" class="clusterblast-orf"  />
<polygon points="440,35 443,30 443,40 440,35 " description="&lt;b&gt;cds18302_18485&lt;/b&gt;&lt;br&gt;Mobile element protein&lt;br&gt;Location: 18302 - 18485" id="dummy-1_q19_0_all" style="stroke:black; stroke-width:1; fill:white; " locus_tag="cds18302_18485" class="clusterblast-orf"  />
<polygon points="443,35 447,30 447,40 443,35 " description="&lt;b&gt;cds18489_18762&lt;/b&gt;&lt;br&gt;Putative transposase InsK for insertion sequence element IS150&lt;br&gt;Location: 18489 - 18762" id="dummy-1_q20_0_all" style="stroke:black; stroke-width:1; fill:white; " locus_tag="cds18489_18762" class="clusterblast-orf"  />
<polygon points="448,35 450,30 450,40 448,35 " description="&lt;b&gt;cds18802_18940&lt;/b&gt;&lt;br&gt;hypothetical protein&lt;br&gt;Location: 18802 - 18940" id="dummy-1_q21_0_all" style="stroke:black; stroke-width:1; fill:white; " locus_tag="cds18802_18940" class="clusterblast-orf"  />
<polygon points="452,35 453,30 453,40 452,35 " description="&lt;b&gt;cds19025_19142&lt;/b&gt;&lt;br&gt;hypothetical protein&lt;br&gt;Location: 19025 - 19142" id="dummy-1_q22_0_all" style="stroke:black; stroke-width:1; fill:white; " locus_tag="cds19025_19142" class="clusterblast-orf"  />
<polygon points="454,35 458,30 458,40 454,35 " description="&lt;b&gt;cds19158_19458&lt;/b&gt;&lt;br&gt;transposase for IS3517&lt;br&gt;Location: 19158 - 19458" id="dummy-1_q23_0_all" style="stroke:black; stroke-width:1; fill:white; " locus_tag="cds19158_19458" class="clusterblast-orf"  />
<polygon points="461,35 466,30 474,30 474,40 466,40 461,35 " description="&lt;b&gt;cds19645_20464&lt;/b&gt;&lt;br&gt;Mobile element protein&lt;br&gt;Location: 19645 - 20464" id="dummy-1_q24_0_all" style="stroke:black; stroke-width:1; fill:white; " locus_tag="cds19645_20464" class="clusterblast-orf"  />
<polygon points="474,35 479,30 481,30 481,40 479,40 474,35 " description="&lt;b&gt;cds20466_20892&lt;/b&gt;&lt;br&gt;Transposase&lt;br&gt;Location: 20466 - 20892" id="dummy-1_q25_0_all" style="stroke:black; stroke-width:1; fill:white; " locus_tag="cds20466_20892" class="clusterblast-orf"  />
<polygon points="486,35 491,30 500,30 500,40 491,40 486,35 " description="&lt;b&gt;cds21202_22060&lt;/b&gt;&lt;br&gt;Mobile element protein&lt;br&gt;Location: 21202 - 22060" id="dummy-1_q26_0_all" style="stroke:black; stroke-width:1; fill:white; " locus_tag="cds21202_22060" class="clusterblast-orf"  />
<polygon points="503,35 508,30 520,30 520,40 508,40 503,35 " description="&lt;b&gt;cds22268_23297&lt;/b&gt;&lt;br&gt;hypothetical protein&lt;br&gt;Location: 22268 - 23297" id="dummy-1_q27_0_all" style="stroke:black; stroke-width:1; fill:white; " locus_tag="cds22268_23297" class="clusterblast-orf"  />
<polygon points="522,35 527,30 538,30 538,40 527,40 522,35 " description="&lt;b&gt;cds23460_24462&lt;/b&gt;&lt;br&gt;hypothetical protein&lt;br&gt;Location: 23460 - 24462" id="dummy-1_q28_0_all" style="stroke:black; stroke-width:1; fill:#1515d8; " locus_tag="cds23460_24462" class="clusterblast-orf"  />
<polygon points="538,35 543,30 553,30 553,40 543,40 538,35 " description="&lt;b&gt;cds24458_25418&lt;/b&gt;&lt;br&gt;hypothetical protein&lt;br&gt;Location: 24458 - 25418" id="dummy-1_q29_0_all" style="stroke:black; stroke-width:1; fill:#d815d8; " locus_tag="cds24458_25418" class="clusterblast-orf"  />
<polygon points="554,35 559,30 570,30 570,40 559,40 554,35 " description="&lt;b&gt;cds25495_26476&lt;/b&gt;&lt;br&gt;dTDP-glucose 4,6-dehydratase (EC 4.2.1.46)&lt;br&gt;Location: 25495 - 26476" id="dummy-1_q30_0_all" style="stroke:black; stroke-width:1; fill:#d8d815; " locus_tag="cds25495_26476" class="clusterblast-orf"  />
<polygon points="570,35 575,30 587,30 587,40 575,40 570,35 " description="&lt;b&gt;cds26472_27540&lt;/b&gt;&lt;br&gt;Glucose-1-phosphate thymidylyltransferase (EC 2.7.7.24)&lt;br&gt;Location: 26472 - 27540" id="dummy-1_q31_0_all" style="stroke:black; stroke-width:1; fill:#15d8d8; " locus_tag="cds26472_27540" class="clusterblast-orf"  />
<polygon points="587,35 592,30 606,30 606,40 592,40 587,35 " description="&lt;b&gt;cds27554_28763&lt;/b&gt;&lt;br&gt;hypothetical protein&lt;br&gt;Location: 27554 - 28763" id="dummy-1_q32_0_all" style="stroke:black; stroke-width:1; fill:white; " locus_tag="cds27554_28763" class="clusterblast-orf"  />
<polygon points="607,35 612,30 621,30 621,40 612,40 607,35 " description="&lt;b&gt;cds28806_29700&lt;/b&gt;&lt;br&gt;ABC transporter, ATP-binding protein&lt;br&gt;Location: 28806 - 29700" id="dummy-1_q33_0_all" style="stroke:black; stroke-width:1; fill:white; " locus_tag="cds28806_29700" class="clusterblast-orf"  />
<polygon points="622,35 627,30 630,30 630,40 627,40 622,35 " description="&lt;b&gt;cds29747_30272&lt;/b&gt;&lt;br&gt;hypothetical protein&lt;br&gt;Location: 29747 - 30272" id="dummy-1_q34_0_all" style="stroke:black; stroke-width:1; fill:white; " locus_tag="cds29747_30272" class="clusterblast-orf"  />
</g>
<g label="FJ483966" description="FJ483966_c3: polyketomycin beta-D-amicetose / alpha-L-axenose (45% of genes show similarity), sugar" class="clusterblast-cluster"  >
<text class="clusterblast-acc" x="5" y="70"  >
FJ483966_c3: polyketomycin beta-D-amicetose / alpha-L-axenose (45% of genes show similarity), sugar</text>
<line y1="85" style="stroke:grey; stroke-width:1; " x1="10" y2="85" x2="778.0"  />
</g>
<g id="a1_000"  >
<polygon points="0,85 5,80 15,80 15,90 5,90 0,85 " description="&lt;b&gt;FJ483966_3_pokS9&lt;/b&gt;&lt;br&gt;PokS9&lt;br&gt;Location: 50393 - 49434" id="dummy-1_h1_1_0" style="stroke:black; stroke-width:1; fill:white; " locus_tag="FJ483966_3_pokS9" class="clusterblast-orf"  />
</g>
<g id="a1_001"  >
<polygon points="15,85 20,80 24,80 24,90 20,90 15,85 " description="&lt;b&gt;FJ483966_3_pokS7&lt;/b&gt;&lt;br&gt;PokS7&lt;br&gt;Location: 49437 - 48823&lt;br&gt;&lt;br&gt;&lt;b&gt;BlastP hit with cds16994_17636&lt;/b&gt;&lt;br&gt;Percentage identity: 54&lt;br&gt;Percentage coverage: 90&lt;br&gt;BLAST bit score: 214&lt;br&gt;E-value: 8.89e-73" id="dummy-1_h1_1_1" style="stroke:black; stroke-width:1; fill:#15d815; " locus_tag="FJ483966_3_pokS7" class="clusterblast-orf"  />
</g>
<g id="a1_002"  >
<polygon points="252,85 257,80 268,80 268,90 257,90 252,85 " description="&lt;b&gt;FJ483966_3_pokS2&lt;/b&gt;&lt;br&gt;PokS2&lt;br&gt;Location: 34519 - 33530&lt;br&gt;&lt;br&gt;&lt;b&gt;BlastP hit with cds25495_26476&lt;/b&gt;&lt;br&gt;Percentage identity: 62&lt;br&gt;Percentage coverage: 96&lt;br&gt;BLAST bit score: 415&lt;br&gt;E-value: 5.02e-148" id="dummy-1_h1_1_2" style="stroke:black; stroke-width:1; fill:#d8d815; " locus_tag="FJ483966_3_pokS2" class="clusterblast-orf"  />
</g>
<g id="a1_003"  >
<polygon points="268,85 273,80 285,80 285,90 273,90 268,85 " description="&lt;b&gt;FJ483966_3_pokS1&lt;/b&gt;&lt;br&gt;PokS1&lt;br&gt;Location: 33533 - 32469&lt;br&gt;&lt;br&gt;&lt;b&gt;BlastP hit with cds26472_27540&lt;/b&gt;&lt;br&gt;Percentage identity: 55&lt;br&gt;Percentage coverage: 99&lt;br&gt;BLAST bit score: 402&lt;br&gt;E-value: 3.23e-142" id="dummy-1_h1_1_3" style="stroke:black; stroke-width:1; fill:#15d8d8; " locus_tag="FJ483966_3_pokS1" class="clusterblast-orf"  />
</g>
<g id="a1_004"  >
<polygon points="534,90 552,90 557,85 552,80 534,80 534,90 " description="&lt;b&gt;FJ483966_3_pokS3&lt;/b&gt;&lt;br&gt;PokS3&lt;br&gt;Location: 16772 - 15342&lt;br&gt;&lt;br&gt;&lt;b&gt;BlastP hit with cds15441_16911&lt;/b&gt;&lt;br&gt;Percentage identity: 46&lt;br&gt;Percentage coverage: 91&lt;br&gt;BLAST bit score: 380&lt;br&gt;E-value: 1.18e-129" id="dummy-1_h1_1_4" style="stroke:black; stroke-width:1; fill:#d81515; " locus_tag="FJ483966_3_pokS3" class="clusterblast-orf"  />
</g>
<g id="a1_005"  >
<polygon points="557,90 568,90 573,85 568,80 557,80 557,90 " description="&lt;b&gt;FJ483966_3_pokS4&lt;/b&gt;&lt;br&gt;PokS4&lt;br&gt;Location: 15348 - 14347&lt;br&gt;&lt;br&gt;&lt;b&gt;BlastP hit with cds24458_25418&lt;/b&gt;&lt;br&gt;Percentage identity: 48&lt;br&gt;Percentage coverage: 95&lt;br&gt;BLAST bit score: 270&lt;br&gt;E-value: 6.84e-91" id="dummy-1_h1_1_5" style="stroke:black; stroke-width:1; fill:#d815d8; " locus_tag="FJ483966_3_pokS4" class="clusterblast-orf"  />
</g>
<g id="a1_006"  >
<polygon points="601,85 606,80 622,80 622,90 606,90 601,85 " description="&lt;b&gt;FJ483966_3_pokS5&lt;/b&gt;&lt;br&gt;PokS5&lt;br&gt;Location: 12594 - 11296" id="dummy-1_h1_1_6" style="stroke:black; stroke-width:1; fill:white; " locus_tag="FJ483966_3_pokS5" class="clusterblast-orf"  />
</g>
<g id="a1_007"  >
<polygon points="622,85 627,80 638,80 638,90 627,90 622,85 " description="&lt;b&gt;FJ483966_3_pokS6&lt;/b&gt;&lt;br&gt;PokS6&lt;br&gt;Location: 11291 - 10263" id="dummy-1_h1_1_7" style="stroke:black; stroke-width:1; fill:white; " locus_tag="FJ483966_3_pokS6" class="clusterblast-orf"  />
</g>
<g id="a1_008"  >
<polygon points="638,85 643,80 657,80 657,90 643,90 638,85 " description="&lt;b&gt;FJ483966_3_pokGT1&lt;/b&gt;&lt;br&gt;PokGT1&lt;br&gt;Location: 10266 - 9073" id="dummy-1_h1_1_8" style="stroke:black; stroke-width:1; fill:white; " locus_tag="FJ483966_3_pokGT1" class="clusterblast-orf"  />
</g>
<g id="a1_009"  >
<polygon points="689,90 702,90 707,85 702,80 689,80 689,90 " description="&lt;b&gt;FJ483966_3_pokGT2&lt;/b&gt;&lt;br&gt;PokGT2&lt;br&gt;Location: 7088 - 5940" id="dummy-1_h1_1_9" style="stroke:black; stroke-width:1; fill:white; " locus_tag="FJ483966_3_pokGT2" class="clusterblast-orf"  />
</g>
<g id="a1_0010"  >
<polygon points="760,85 765,80 780,80 780,90 765,90 760,85 " description="&lt;b&gt;FJ483966_3_pokS8&lt;/b&gt;&lt;br&gt;PokS8&lt;br&gt;Location: 2619 - 1372" id="dummy-1_h1_1_10" style="stroke:black; stroke-width:1; fill:white; " locus_tag="FJ483966_3_pokS8" class="clusterblast-orf"  />
</g>
</svg>
