<svg preserveAspectRatio="none" width="800" height="230" xmlns:xlink="http://www.w3.org/1999/xlink" xmlns="http://www.w3.org/2000/svg" version="1.1" viewBox="0 0 800 230" x="0" y="0"  >
<g label="Query sequence" class="clusterblast-cluster"  >
<text class="clusterblast-acc" x="5" y="20"  >
Query sequence</text>
<line y1="35" style="stroke:grey; stroke-width:1; " x1="10" y2="35" x2="778.0"  />
<polygon points="41,35 46,30 97,30 97,40 46,40 41,35 " description="&lt;b&gt;cds5211_6819&lt;/b&gt;&lt;br&gt;hypothetical protein&lt;br&gt;Location: 5211 - 6819" id="dummy-1_q0_0_all" style="stroke:black; stroke-width:1; fill:white; " locus_tag="cds5211_6819" class="clusterblast-orf"  />
<polygon points="103,35 108,30 109,30 109,40 108,40 103,35 " description="&lt;b&gt;cds6989_7178&lt;/b&gt;&lt;br&gt;hypothetical protein&lt;br&gt;Location: 6989 - 7178" id="dummy-1_q1_0_all" style="stroke:black; stroke-width:1; fill:white; " locus_tag="cds6989_7178" class="clusterblast-orf"  />
<polygon points="118,40 134,40 139,35 134,30 118,30 118,40 " description="&lt;b&gt;cds7427_8039&lt;/b&gt;&lt;br&gt;NAD(P)H dehydrogenase (quinone), Type IV (EC 1.6.5.2)&lt;br&gt;Location: 7427 - 8039" id="dummy-1_q2_0_all" style="stroke:black; stroke-width:1; fill:white; " locus_tag="cds7427_8039" class="clusterblast-orf"  />
<polygon points="145,40 222,40 227,35 222,30 145,30 145,40 " description="&lt;b&gt;cds8223_10581&lt;/b&gt;&lt;br&gt;hypothetical protein&lt;br&gt;Location: 8223 - 10581" id="dummy-1_q3_0_all" style="stroke:black; stroke-width:1; fill:white; " locus_tag="cds8223_10581" class="clusterblast-orf"  />
<polygon points="228,35 233,30 261,30 261,40 233,40 228,35 " description="&lt;b&gt;cds10606_11569&lt;/b&gt;&lt;br&gt;hypothetical protein&lt;br&gt;Location: 10606 - 11569" id="dummy-1_q4_0_all" style="stroke:black; stroke-width:1; fill:white; " locus_tag="cds10606_11569" class="clusterblast-orf"  />
<polygon points="263,35 268,30 303,30 303,40 268,40 263,35 " description="&lt;b&gt;cds11607_12765&lt;/b&gt;&lt;br&gt;(E)-4-hydroxy-3-methylbut-2-enyl-diphosphate synthase (flavodoxin) (EC 1.17.7.3)&lt;br&gt;Location: 11607 - 12765" id="dummy-1_q5_0_all" style="stroke:black; stroke-width:1; fill:#d81515; " locus_tag="cds11607_12765" class="clusterblast-orf"  />
<polygon points="303,35 308,30 367,30 367,40 308,40 303,35 " description="&lt;b&gt;cds12761_14624&lt;/b&gt;&lt;br&gt;1-deoxy-D-xylulose 5-phosphate synthase (EC 2.2.1.7)&lt;br&gt;Location: 12761 - 14624" id="dummy-1_q6_0_all" style="stroke:black; stroke-width:1; fill:#77d815; " locus_tag="cds12761_14624" class="clusterblast-orf"  />
<polygon points="370,35 375,30 406,30 406,40 375,40 370,35 " description="&lt;b&gt;cds14692_15736&lt;/b&gt;&lt;br&gt;hypothetical protein&lt;br&gt;Location: 14692 - 15736" id="dummy-1_q7_0_all" style="stroke:black; stroke-width:1; fill:white; " locus_tag="cds14692_15736" class="clusterblast-orf"  />
<polygon points="406,35 411,30 440,30 440,40 411,40 406,35 " description="&lt;b&gt;cds15732_16710&lt;/b&gt;&lt;br&gt;4-hydroxy-3-methylbut-2-enyl diphosphate reductase (EC 1.17.7.4)&lt;br&gt;Location: 15732 - 16710" id="dummy-1_q8_0_all" style="stroke:black; stroke-width:1; fill:white; " locus_tag="cds15732_16710" class="clusterblast-orf"  />
<polygon points="450,40 488,40 493,35 488,30 450,30 450,40 " description="&lt;b&gt;cds17019_18261&lt;/b&gt;&lt;br&gt;hypothetical protein&lt;br&gt;Location: 17019 - 18261" id="dummy-1_q9_0_all" style="stroke:black; stroke-width:1; fill:white; " locus_tag="cds17019_18261" class="clusterblast-orf"  />
<polygon points="498,40 533,40 538,35 533,30 498,30 498,40 " description="&lt;b&gt;cds18385_19555&lt;/b&gt;&lt;br&gt;2-keto-3-deoxy-D-arabino-heptulosonate-7- phosphate synthase II (EC 2.5.1.54)&lt;br&gt;Location: 18385 - 19555" id="dummy-1_q10_0_all" style="stroke:black; stroke-width:1; fill:white; " locus_tag="cds18385_19555" class="clusterblast-orf"  />
<polygon points="539,40 561,40 566,35 561,30 539,30 539,40 " description="&lt;b&gt;cds19584_20355&lt;/b&gt;&lt;br&gt;2,3-dihydro-2,3-dihydroxybenzoate dehydrogenase (EC 1.3.1.28) of siderophore biosynthesis&lt;br&gt;Location: 19584 - 20355" id="dummy-1_q11_0_all" style="stroke:black; stroke-width:1; fill:white; " locus_tag="cds19584_20355" class="clusterblast-orf"  />
<polygon points="568,40 586,40 591,35 586,30 568,30 568,40 " description="&lt;b&gt;cds20406_21087&lt;/b&gt;&lt;br&gt;2-amino-2-deoxy-isochorismate hydrolase PhzD (EC 3.-.-.-)&lt;br&gt;Location: 20406 - 21087" id="dummy-1_q12_0_all" style="stroke:black; stroke-width:1; fill:white; " locus_tag="cds20406_21087" class="clusterblast-orf"  />
<polygon points="591,40 652,40 657,35 652,30 591,30 591,40 " description="&lt;b&gt;cds21086_22976&lt;/b&gt;&lt;br&gt;2-Amino-2-deoxy-isochorismate synthase (EC 2.6.1.86) PhzE&lt;br&gt;Location: 21086 - 22976" id="dummy-1_q13_0_all" style="stroke:black; stroke-width:1; fill:white; " locus_tag="cds21086_22976" class="clusterblast-orf"  />
<polygon points="658,35 663,30 703,30 703,40 663,40 658,35 " description="&lt;b&gt;cds23005_24322&lt;/b&gt;&lt;br&gt;2,3-dehydratase&lt;br&gt;Location: 23005 - 24322" id="dummy-1_q14_0_all" style="stroke:black; stroke-width:1; fill:#15d8d8; " locus_tag="cds23005_24322" class="clusterblast-orf"  />
<polygon points="706,35 711,30 739,30 739,40 711,40 706,35 " description="&lt;b&gt;cds24386_25340&lt;/b&gt;&lt;br&gt;dTDP-glucose 4,6-dehydratase (EC 4.2.1.46)&lt;br&gt;Location: 24386 - 25340" id="dummy-1_q15_0_all" style="stroke:black; stroke-width:1; fill:#7715d8; " locus_tag="cds24386_25340" class="clusterblast-orf"  />
</g>
<g label="AF080235" description="AF080235_c2: landomycin D-olivose / L-rhodinose (16% of genes show similarity), sugar" class="clusterblast-cluster"  >
<text class="clusterblast-acc" x="5" y="70"  >
AF080235_c2: landomycin D-olivose / L-rhodinose (16% of genes show similarity), sugar</text>
<line y1="85" style="stroke:grey; stroke-width:1; " x1="10" y2="85" x2="778.0"  />
</g>
<g id="a1_000"  >
<polygon points="0,85 5,80 43,80 43,90 5,90 0,85 " description="&lt;b&gt;AF080235_2_lanGT4&lt;/b&gt;&lt;br&gt;glycosyl transferase homolog&lt;br&gt;Location: 31314 - 30061" id="dummy-1_h1_7_0" style="stroke:black; stroke-width:1; fill:white; " locus_tag="AF080235_2_lanGT4" class="clusterblast-orf"  />
</g>
<g id="a1_001"  >
<polygon points="117,85 122,80 159,80 159,90 122,90 117,85 " description="&lt;b&gt;AF080235_2_lanGT3&lt;/b&gt;&lt;br&gt;glycosyl transferase homolog&lt;br&gt;Location: 27924 - 26719" id="dummy-1_h1_7_1" style="stroke:black; stroke-width:1; fill:white; " locus_tag="AF080235_2_lanGT3" class="clusterblast-orf"  />
</g>
<g id="a1_002"  >
<polygon points="267,85 272,80 308,80 308,90 272,90 267,85 " description="&lt;b&gt;AF080235_2_lanGT1&lt;/b&gt;&lt;br&gt;glycosyl transferase homolog&lt;br&gt;Location: 23589 - 22417" id="dummy-1_h1_7_2" style="stroke:black; stroke-width:1; fill:white; " locus_tag="AF080235_2_lanGT1" class="clusterblast-orf"  />
</g>
<g id="a1_003"  >
<polygon points="329,85 334,80 368,80 368,90 334,90 329,85 " description="&lt;b&gt;AF080235_2_lanGT2&lt;/b&gt;&lt;br&gt;glycosyl transferase homolog&lt;br&gt;Location: 21808 - 20687" id="dummy-1_h1_7_3" style="stroke:black; stroke-width:1; fill:white; " locus_tag="AF080235_2_lanGT2" class="clusterblast-orf"  />
</g>
<g id="a1_004"  >
<polygon points="470,85 475,80 519,80 519,90 475,90 470,85 " description="&lt;b&gt;AF080235_2_lanS&lt;/b&gt;&lt;br&gt;NDP-hexose 2,3-dehydratase homolog&lt;br&gt;Location: 17727 - 16318&lt;br&gt;&lt;br&gt;&lt;b&gt;BlastP hit with cds23005_24322&lt;/b&gt;&lt;br&gt;Percentage identity: 59&lt;br&gt;Percentage coverage: 97&lt;br&gt;BLAST bit score: 477&lt;br&gt;E-value: 1.23e-168" id="dummy-1_h1_7_4" style="stroke:black; stroke-width:1; fill:#15d8d8; " locus_tag="AF080235_2_lanS" class="clusterblast-orf"  />
</g>
<g id="a1_005"  >
<polygon points="520,85 525,80 547,80 547,90 525,90 520,85 " description="&lt;b&gt;AF080235_2_lanR&lt;/b&gt;&lt;br&gt;4-keto reductase homolog&lt;br&gt;Location: 16278 - 15517" id="dummy-1_h1_7_5" style="stroke:black; stroke-width:1; fill:white; " locus_tag="AF080235_2_lanR" class="clusterblast-orf"  />
</g>
<g id="a1_006"  >
<polygon points="547,85 552,80 592,80 592,90 552,90 547,85 " description="&lt;b&gt;AF080235_2_lanQ&lt;/b&gt;&lt;br&gt;NDP-hexose 3,4-dehydratase homolog&lt;br&gt;Location: 15520 - 14216" id="dummy-1_h1_7_6" style="stroke:black; stroke-width:1; fill:white; " locus_tag="AF080235_2_lanQ" class="clusterblast-orf"  />
</g>
<g id="a1_007"  >
<polygon points="595,85 600,80 629,80 629,90 600,90 595,85 " description="&lt;b&gt;AF080235_2_lanH14&lt;/b&gt;&lt;br&gt;NDP-hexose 4,6-dehydratase homolog&lt;br&gt;Location: 14130 - 13150&lt;br&gt;&lt;br&gt;&lt;b&gt;BlastP hit with cds24386_25340&lt;/b&gt;&lt;br&gt;Percentage identity: 66&lt;br&gt;Percentage coverage: 100&lt;br&gt;BLAST bit score: 443&lt;br&gt;E-value: 2e-159" id="dummy-1_h1_7_7" style="stroke:black; stroke-width:1; fill:#7715d8; " locus_tag="AF080235_2_lanH14" class="clusterblast-orf"  />
</g>
<g id="a1_008"  >
<polygon points="629,85 634,80 666,80 666,90 634,90 629,85 " description="&lt;b&gt;AF080235_2_lanG&lt;/b&gt;&lt;br&gt;NDP-hexose synthetase homolog&lt;br&gt;Location: 13153 - 12086" id="dummy-1_h1_7_8" style="stroke:black; stroke-width:1; fill:white; " locus_tag="AF080235_2_lanG" class="clusterblast-orf"  />
</g>
<g id="a1_009"  >
<polygon points="676,85 681,80 731,80 731,90 681,90 676,85 " description="&lt;b&gt;AF080235_2_lanP1&lt;/b&gt;&lt;br&gt;decarboxylase homolog&lt;br&gt;Location: 11784 - 10210" id="dummy-1_h1_7_9" style="stroke:black; stroke-width:1; fill:white; " locus_tag="AF080235_2_lanP1" class="clusterblast-orf"  />
</g>
<g id="a1_0010"  >
<polygon points="731,85 736,80 751,80 751,90 736,90 731,85 " description="&lt;b&gt;AF080235_2_lanO&lt;/b&gt;&lt;br&gt;reductase homolog&lt;br&gt;Location: 10207 - 9626" id="dummy-1_h1_7_10" style="stroke:black; stroke-width:1; fill:white; " locus_tag="AF080235_2_lanO" class="clusterblast-orf"  />
</g>
<g id="a1_0011"  >
<polygon points="756,85 761,80 780,80 780,90 761,90 756,85 " description="&lt;b&gt;AF080235_2_lanN&lt;/b&gt;&lt;br&gt;reductase homolog&lt;br&gt;Location: 9471 - 8803" id="dummy-1_h1_7_11" style="stroke:black; stroke-width:1; fill:white; " locus_tag="AF080235_2_lanN" class="clusterblast-orf"  />
</g>
</svg>
