<svg preserveAspectRatio="none" xmlns:xlink="http://www.w3.org/1999/xlink" width="800" height="230" y="0" x="0" viewBox="0 0 800 230" xmlns="http://www.w3.org/2000/svg" version="1.1"  >
<g label="Query sequence" class="clusterblast-cluster"  >
<text class="clusterblast-acc" y="20" x="5"  >
Query sequence</text>
<line x2="778.0" y2="35" y1="35" style="stroke:grey; stroke-width:1; " x1="10"  />
<polygon description="&lt;b&gt;cds420404_420791&lt;/b&gt;&lt;br&gt;hypothetical protein&lt;br&gt;Location: 420404 - 420791" class="clusterblast-orf" locus_tag="cds420404_420791" id="dummy-3_q0_0_all" style="fill:#d81515; stroke-width:1; stroke:black; " points="0,40 9,40 14,35 9,30 0,30 0,40 "  />
<polygon description="&lt;b&gt;cds420838_421276&lt;/b&gt;&lt;br&gt;hypothetical protein&lt;br&gt;Location: 420838 - 421276" class="clusterblast-orf" locus_tag="cds420838_421276" id="dummy-3_q1_0_all" style="fill:#56d815; stroke-width:1; stroke:black; " points="16,40 28,40 33,35 28,30 16,30 16,40 "  />
<polygon description="&lt;b&gt;cds421314_422673&lt;/b&gt;&lt;br&gt;anion-transporting ATPase&lt;br&gt;Location: 421314 - 422673" class="clusterblast-orf" locus_tag="cds421314_422673" id="dummy-3_q2_0_all" style="fill:#1597d8; stroke-width:1; stroke:black; " points="34,40 80,40 85,35 80,30 34,30 34,40 "  />
<polygon description="&lt;b&gt;cds422669_423494&lt;/b&gt;&lt;br&gt;hypothetical protein&lt;br&gt;Location: 422669 - 423494" class="clusterblast-orf" locus_tag="cds422669_423494" id="dummy-3_q3_0_all" style="fill:#9715d8; stroke-width:1; stroke:black; " points="85,40 111,40 116,35 111,30 85,30 85,40 "  />
<polygon description="&lt;b&gt;cds423490_424504&lt;/b&gt;&lt;br&gt;Glucokinase (EC 2.7.1.2)&lt;br&gt;Location: 423490 - 424504" class="clusterblast-orf" locus_tag="cds423490_424504" id="dummy-3_q4_0_all" style="fill:#d85615; stroke-width:1; stroke:black; " points="116,40 149,40 154,35 149,30 116,30 116,40 "  />
<polygon description="&lt;b&gt;cds424748_425474&lt;/b&gt;&lt;br&gt;Acyl-CoA:1-acyl-sn-glycerol-3-phosphate acyltransferase (EC 2.3.1.51)&lt;br&gt;Location: 424748 - 425474" class="clusterblast-orf" locus_tag="cds424748_425474" id="dummy-3_q5_0_all" style="fill:#15d815; stroke-width:1; stroke:black; " points="163,40 185,40 190,35 185,30 163,30 163,40 "  />
<polygon description="&lt;b&gt;cds425558_426074&lt;/b&gt;&lt;br&gt;hypothetical protein&lt;br&gt;Location: 425558 - 426074" class="clusterblast-orf" locus_tag="cds425558_426074" id="dummy-3_q6_0_all" style="fill:#1556d8; stroke-width:1; stroke:black; " points="193,35 198,30 213,30 213,40 198,40 193,35 "  />
<polygon description="&lt;b&gt;cds426191_426566&lt;/b&gt;&lt;br&gt;Uncharacterized protein Rv2175c&lt;br&gt;Location: 426191 - 426566" class="clusterblast-orf" locus_tag="cds426191_426566" id="dummy-3_q7_0_all" style="fill:#d815d8; stroke-width:1; stroke:black; " points="217,35 222,30 231,30 231,40 222,40 217,35 "  />
<polygon description="&lt;b&gt;cds426668_428693&lt;/b&gt;&lt;br&gt;Serine/threonine protein kinase&lt;br&gt;Location: 426668 - 428693" class="clusterblast-orf" locus_tag="cds426668_428693" id="dummy-3_q8_0_all" style="fill:#d89715; stroke-width:1; stroke:black; " points="235,40 306,40 311,35 306,30 235,30 235,40 "  />
<polygon description="&lt;b&gt;cds428763_430152&lt;/b&gt;&lt;br&gt;2-keto-3-deoxy-D-arabino-heptulosonate-7- phosphate synthase II (EC 2.5.1.54)&lt;br&gt;Location: 428763 - 430152" class="clusterblast-orf" locus_tag="cds428763_430152" id="dummy-3_q9_0_all" style="fill:#15d856; stroke-width:1; stroke:black; " points="314,35 319,30 366,30 366,40 319,40 314,35 "  />
<polygon description="&lt;b&gt;cds430373_431501&lt;/b&gt;&lt;br&gt;Phytoene synthase (EC 2.5.1.32)&lt;br&gt;Location: 430373 - 431501" class="clusterblast-orf" locus_tag="cds430373_431501" id="dummy-3_q10_0_all" style="fill:#1515d8; stroke-width:1; stroke:black; " points="374,35 379,30 417,30 417,40 379,40 374,35 "  />
<polygon description="&lt;b&gt;cds431497_433342&lt;/b&gt;&lt;br&gt;Integral membrane protein&lt;br&gt;Location: 431497 - 433342" class="clusterblast-orf" locus_tag="cds431497_433342" id="dummy-3_q11_0_all" style="fill:#d81597; stroke-width:1; stroke:black; " points="416,35 421,30 486,30 486,40 421,40 416,35 "  />
<polygon description="&lt;b&gt;cds433409_434987&lt;/b&gt;&lt;br&gt;Phytoene dehydrogenase (EC 1.14.99.-)&lt;br&gt;Location: 433409 - 434987" class="clusterblast-orf" locus_tag="cds433409_434987" id="dummy-3_q12_0_all" style="fill:#d8d815; stroke-width:1; stroke:black; " points="488,35 493,30 547,30 547,40 493,40 488,35 "  />
<polygon description="&lt;b&gt;cds435049_436171&lt;/b&gt;&lt;br&gt;Geranylgeranyl diphosphate synthase (EC 2.5.1.29)&lt;br&gt;Location: 435049 - 436171" class="clusterblast-orf" locus_tag="cds435049_436171" id="dummy-3_q13_0_all" style="fill:#15d897; stroke-width:1; stroke:black; " points="550,35 555,30 592,30 592,40 555,40 550,35 "  />
<polygon description="&lt;b&gt;cds437048_437966&lt;/b&gt;&lt;br&gt;5,10-methylenetetrahydrofolate reductase (EC 1.5.1.20)&lt;br&gt;Location: 437048 - 437966" class="clusterblast-orf" locus_tag="cds437048_437966" id="dummy-3_q14_0_all" style="fill:#5615d8; stroke-width:1; stroke:black; " points="625,40 654,40 659,35 654,30 625,30 625,40 "  />
<polygon description="&lt;b&gt;cds438045_438765&lt;/b&gt;&lt;br&gt;hypothetical protein&lt;br&gt;Location: 438045 - 438765" class="clusterblast-orf" locus_tag="cds438045_438765" id="dummy-3_q15_0_all" style="fill:#d81556; stroke-width:1; stroke:black; " points="662,40 684,40 689,35 684,30 662,30 662,40 "  />
<polygon description="&lt;b&gt;cds439097_440219&lt;/b&gt;&lt;br&gt;Glycosyl transferase, family 2&lt;br&gt;Location: 439097 - 440219" class="clusterblast-orf" locus_tag="cds439097_440219" id="dummy-3_q16_0_all" style="fill:#97d815; stroke-width:1; stroke:black; " points="702,35 707,30 744,30 744,40 707,40 702,35 "  />
<polygon description="&lt;b&gt;cds440399_441179&lt;/b&gt;&lt;br&gt;Lipoprotein LppM&lt;br&gt;Location: 440399 - 441179" class="clusterblast-orf" locus_tag="cds440399_441179" id="dummy-3_q17_0_all" style="fill:#15d8d8; stroke-width:1; stroke:black; " points="751,35 756,30 780,30 780,40 756,40 751,35 "  />
</g>
<g label="NZ_QQBC01000006" description="NZ_QQBC01000006 (162937-183870): Nocardia pseudobrasiliensis strain DSM 44290... (85% of genes show similarity), terpene" class="clusterblast-cluster"  >
<text class="clusterblast-acc" y="70" x="5"  >
<a xlink:href="https://antismash-db.secondarymetabolites.org/area.html?record=NZ_QQBC01000006&amp;start=162937&amp;end=183870" target="_blank">NZ_QQBC01000006 (162937-183870)</a>: Nocardia pseudobrasiliensis strain DSM 44290... (85% of genes show similarity), terpene</text>
<line x2="778.0" y2="85" y1="85" style="stroke:grey; stroke-width:1; " x1="10"  />
</g>
<g id="a3_000"  >
<polygon description="&lt;b&gt;DFR76_RS19765&lt;/b&gt;&lt;br&gt;SRPBCC family protein&lt;br&gt;Location: 162956 - 163393&lt;br&gt;&lt;br&gt;&lt;b&gt;BlastP hit with cds420838_421276&lt;/b&gt;&lt;br&gt;Percentage identity: 86&lt;br&gt;Percentage coverage: 100&lt;br&gt;BLAST bit score: 252&lt;br&gt;E-value: 1.9e-65" class="clusterblast-orf" locus_tag="DFR76_RS19765" id="dummy-3_h3_8_0" style="fill:#56d815; stroke-width:1; stroke:black; " points="3,90 14,90 19,85 14,80 3,80 3,90 "  />
</g>
<g id="a3_001"  >
<polygon description="&lt;b&gt;DFR76_RS19770&lt;/b&gt;&lt;br&gt;ArsA family ATPase&lt;br&gt;Location: 163405 - 164622&lt;br&gt;&lt;br&gt;&lt;b&gt;BlastP hit with cds421314_422673&lt;/b&gt;&lt;br&gt;Percentage identity: 67&lt;br&gt;Percentage coverage: 99&lt;br&gt;BLAST bit score: 564&lt;br&gt;E-value: 9.4e-159" class="clusterblast-orf" locus_tag="DFR76_RS19770" id="dummy-3_h3_8_1" style="fill:#1597d8; stroke-width:1; stroke:black; " points="20,90 60,90 65,85 60,80 20,80 20,90 "  />
</g>
<g id="a3_002"  >
<polygon description="&lt;b&gt;DFR76_RS19775&lt;/b&gt;&lt;br&gt;hypothetical protein&lt;br&gt;Location: 164619 - 164909&lt;br&gt;&lt;br&gt;&lt;b&gt;BlastP hit with cds422669_423494&lt;/b&gt;&lt;br&gt;Percentage identity: 77&lt;br&gt;Percentage coverage: 32&lt;br&gt;BLAST bit score: 143&lt;br&gt;E-value: 2.4e-32" class="clusterblast-orf" locus_tag="DFR76_RS19775" id="dummy-3_h3_8_2" style="fill:#9715d8; stroke-width:1; stroke:black; " points="65,90 71,90 76,85 71,80 65,80 65,90 "  />
</g>
<g id="a3_003"  >
<polygon description="&lt;b&gt;DFR76_RS19780&lt;/b&gt;&lt;br&gt;ROK family protein&lt;br&gt;Location: 165464 - 166555&lt;br&gt;&lt;br&gt;&lt;b&gt;BlastP hit with cds423490_424504&lt;/b&gt;&lt;br&gt;Percentage identity: 87&lt;br&gt;Percentage coverage: 96&lt;br&gt;BLAST bit score: 547&lt;br&gt;E-value: 1.2e-153" class="clusterblast-orf" locus_tag="DFR76_RS19780" id="dummy-3_h3_8_3" style="fill:#d85615; stroke-width:1; stroke:black; " points="97,90 133,90 138,85 133,80 97,80 97,90 "  />
</g>
<g id="a3_004"  >
<polygon description="&lt;b&gt;DFR76_RS19785&lt;/b&gt;&lt;br&gt;1-acyl-sn-glycerol-3-phosphate acyltransferase&lt;br&gt;Location: 166692 - 167417&lt;br&gt;&lt;br&gt;&lt;b&gt;BlastP hit with cds424748_425474&lt;/b&gt;&lt;br&gt;Percentage identity: 91&lt;br&gt;Percentage coverage: 100&lt;br&gt;BLAST bit score: 454&lt;br&gt;E-value: 5.6e-126" class="clusterblast-orf" locus_tag="DFR76_RS19785" id="dummy-3_h3_8_4" style="fill:#15d815; stroke-width:1; stroke:black; " points="143,90 165,90 170,85 165,80 143,80 143,90 "  />
</g>
<g id="a3_005"  >
<polygon description="&lt;b&gt;DFR76_RS19790&lt;/b&gt;&lt;br&gt;polyadenylate-specific 3'-exoribonuclease AS&lt;br&gt;Location: 167499 - 168017&lt;br&gt;&lt;br&gt;&lt;b&gt;BlastP hit with cds425558_426074&lt;/b&gt;&lt;br&gt;Percentage identity: 85&lt;br&gt;Percentage coverage: 94&lt;br&gt;BLAST bit score: 300&lt;br&gt;E-value: 7.3e-80" class="clusterblast-orf" locus_tag="DFR76_RS19790" id="dummy-3_h3_8_5" style="fill:#1556d8; stroke-width:1; stroke:black; " points="173,85 178,80 193,80 193,90 178,90 173,85 "  />
</g>
<g id="a3_006"  >
<polygon description="&lt;b&gt;DFR76_RS19795&lt;/b&gt;&lt;br&gt;3-deoxy-7-phosphoheptulonate synthase class II&lt;br&gt;Location: 168160 - 169545&lt;br&gt;&lt;br&gt;&lt;b&gt;BlastP hit with cds428763_430152&lt;/b&gt;&lt;br&gt;Percentage identity: 90&lt;br&gt;Percentage coverage: 100&lt;br&gt;BLAST bit score: 846&lt;br&gt;E-value: 1.3e-243" class="clusterblast-orf" locus_tag="DFR76_RS19795" id="dummy-3_h3_8_6" style="fill:#15d856; stroke-width:1; stroke:black; " points="198,90 245,90 250,85 245,80 198,80 198,90 "  />
</g>
<g id="a3_007"  >
<polygon description="&lt;b&gt;DFR76_RS19800&lt;/b&gt;&lt;br&gt;hypothetical protein&lt;br&gt;Location: 169542 - 169856" class="clusterblast-orf" locus_tag="DFR76_RS19800" id="dummy-3_h3_8_7" style="fill:white; stroke-width:1; stroke:black; " points="250,90 257,90 262,85 257,80 250,80 250,90 "  />
</g>
<g id="a3_008"  >
<polygon description="&lt;b&gt;DFR76_RS19805&lt;/b&gt;&lt;br&gt;hypothetical protein&lt;br&gt;Location: 169979 - 170296" class="clusterblast-orf" locus_tag="DFR76_RS19805" id="dummy-3_h3_8_8" style="fill:white; stroke-width:1; stroke:black; " points="266,90 273,90 278,85 273,80 266,80 266,90 "  />
</g>
<g id="a3_009"  >
<polygon description="&lt;b&gt;DFR76_RS19810&lt;/b&gt;&lt;br&gt;Stk1 family PASTA domain-containing Ser/Thr kinase&lt;br&gt;Location: 170293 - 172281&lt;br&gt;&lt;br&gt;&lt;b&gt;BlastP hit with cds426668_428693&lt;/b&gt;&lt;br&gt;Percentage identity: 64&lt;br&gt;Percentage coverage: 99&lt;br&gt;BLAST bit score: 785&lt;br&gt;E-value: 3e-225" class="clusterblast-orf" locus_tag="DFR76_RS19810" id="dummy-3_h3_8_9" style="fill:#d89715; stroke-width:1; stroke:black; " points="278,85 283,80 353,80 353,90 283,90 278,85 "  />
</g>
<g id="a3_0010"  >
<polygon description="&lt;b&gt;DFR76_RS19815&lt;/b&gt;&lt;br&gt;transcriptional regulator&lt;br&gt;Location: 172409 - 172777&lt;br&gt;&lt;br&gt;&lt;b&gt;BlastP hit with cds426191_426566&lt;/b&gt;&lt;br&gt;Percentage identity: 85&lt;br&gt;Percentage coverage: 98&lt;br&gt;BLAST bit score: 226&lt;br&gt;E-value: 1.7e-57" class="clusterblast-orf" locus_tag="DFR76_RS19815" id="dummy-3_h3_8_10" style="fill:#d815d8; stroke-width:1; stroke:black; " points="358,90 366,90 371,85 366,80 358,80 358,90 "  />
</g>
<g id="a3_0011"  >
<polygon description="&lt;b&gt;DFR76_RS19820&lt;/b&gt;&lt;br&gt;phytoene/squalene synthase family protein&lt;br&gt;Location: 172938 - 173870&lt;br&gt;&lt;br&gt;&lt;b&gt;BlastP hit with cds430373_431501&lt;/b&gt;&lt;br&gt;Percentage identity: 56&lt;br&gt;Percentage coverage: 95&lt;br&gt;BLAST bit score: 343&lt;br&gt;E-value: 2.2e-92" class="clusterblast-orf" locus_tag="DFR76_RS19820" id="dummy-3_h3_8_11" style="fill:#1515d8; stroke-width:1; stroke:black; " points="377,85 382,80 412,80 412,90 382,90 377,85 "  />
</g>
<g id="a3_0012"  >
<polygon description="&lt;b&gt;DFR76_RS19825&lt;/b&gt;&lt;br&gt;alpha-(1-&gt;6)-mannopyranosyltransferase A&lt;br&gt;Location: 173867 - 175465&lt;br&gt;&lt;br&gt;&lt;b&gt;BlastP hit with cds431497_433342&lt;/b&gt;&lt;br&gt;Percentage identity: 74&lt;br&gt;Percentage coverage: 88&lt;br&gt;BLAST bit score: 758&lt;br&gt;E-value: 6e-217" class="clusterblast-orf" locus_tag="DFR76_RS19825" id="dummy-3_h3_8_12" style="fill:#d81597; stroke-width:1; stroke:black; " points="412,85 417,80 472,80 472,90 417,90 412,85 "  />
</g>
<g id="a3_0013"  >
<polygon description="&lt;b&gt;DFR76_RS19830&lt;/b&gt;&lt;br&gt;phytoene desaturase&lt;br&gt;Location: 175530 - 177098&lt;br&gt;&lt;br&gt;&lt;b&gt;BlastP hit with cds433409_434987&lt;/b&gt;&lt;br&gt;Percentage identity: 75&lt;br&gt;Percentage coverage: 99&lt;br&gt;BLAST bit score: 767&lt;br&gt;E-value: 1.1e-219" class="clusterblast-orf" locus_tag="DFR76_RS19830" id="dummy-3_h3_8_13" style="fill:#d8d815; stroke-width:1; stroke:black; " points="475,85 480,80 534,80 534,90 480,90 475,85 "  />
</g>
<g id="a3_0014"  >
<polygon description="&lt;b&gt;DFR76_RS19835&lt;/b&gt;&lt;br&gt;polyprenyl synthetase family protein&lt;br&gt;Location: 177370 - 178554&lt;br&gt;&lt;br&gt;&lt;b&gt;BlastP hit with cds435049_436171&lt;/b&gt;&lt;br&gt;Percentage identity: 77&lt;br&gt;Percentage coverage: 99&lt;br&gt;BLAST bit score: 542&lt;br&gt;E-value: 3.1e-152" class="clusterblast-orf" locus_tag="DFR76_RS19835" id="dummy-3_h3_8_14" style="fill:#15d897; stroke-width:1; stroke:black; " points="544,85 549,80 588,80 588,90 549,90 544,85 "  />
</g>
<g id="a3_0015"  >
<polygon description="&lt;b&gt;DFR76_RS19840&lt;/b&gt;&lt;br&gt;methylenetetrahydrofolate reductase&lt;br&gt;Location: 178601 - 179599&lt;br&gt;&lt;br&gt;&lt;b&gt;BlastP hit with cds437048_437966&lt;/b&gt;&lt;br&gt;Percentage identity: 84&lt;br&gt;Percentage coverage: 99&lt;br&gt;BLAST bit score: 511&lt;br&gt;E-value: 6.4e-143" class="clusterblast-orf" locus_tag="DFR76_RS19840" id="dummy-3_h3_8_15" style="fill:#5615d8; stroke-width:1; stroke:black; " points="590,90 623,90 628,85 623,80 590,80 590,90 "  />
</g>
<g id="a3_0016"  >
<polygon description="&lt;b&gt;DFR76_RS19845&lt;/b&gt;&lt;br&gt;hypothetical protein&lt;br&gt;Location: 179695 - 180414&lt;br&gt;&lt;br&gt;&lt;b&gt;BlastP hit with cds438045_438765&lt;/b&gt;&lt;br&gt;Percentage identity: 59&lt;br&gt;Percentage coverage: 83&lt;br&gt;BLAST bit score: 231&lt;br&gt;E-value: 9.9e-59" class="clusterblast-orf" locus_tag="DFR76_RS19845" id="dummy-3_h3_8_16" style="fill:#d81556; stroke-width:1; stroke:black; " points="631,90 653,90 658,85 653,80 631,80 631,90 "  />
</g>
<g id="a3_0017"  >
<polygon description="&lt;b&gt;DFR76_RS19850&lt;/b&gt;&lt;br&gt;glycosyltransferase&lt;br&gt;Location: 180416 - 181531&lt;br&gt;&lt;br&gt;&lt;b&gt;BlastP hit with cds439097_440219&lt;/b&gt;&lt;br&gt;Percentage identity: 65&lt;br&gt;Percentage coverage: 98&lt;br&gt;BLAST bit score: 436&lt;br&gt;E-value: 2.4e-120" class="clusterblast-orf" locus_tag="DFR76_RS19850" id="dummy-3_h3_8_17" style="fill:#97d815; stroke-width:1; stroke:black; " points="658,85 663,80 700,80 700,90 663,90 658,85 "  />
</g>
<g id="a3_0018"  >
<polygon description="&lt;b&gt;DFR76_RS19855&lt;/b&gt;&lt;br&gt;DUF3153 domain-containing protein&lt;br&gt;Location: 181929 - 182621&lt;br&gt;&lt;br&gt;&lt;b&gt;BlastP hit with cds440399_441179&lt;/b&gt;&lt;br&gt;Percentage identity: 78&lt;br&gt;Percentage coverage: 85&lt;br&gt;BLAST bit score: 336&lt;br&gt;E-value: 2.4e-90" class="clusterblast-orf" locus_tag="DFR76_RS19855" id="dummy-3_h3_8_18" style="fill:#15d8d8; stroke-width:1; stroke:black; " points="715,85 720,80 741,80 741,90 720,90 715,85 "  />
</g>
<g id="a3_0019"  >
<polygon description="&lt;b&gt;DFR76_RS19860&lt;/b&gt;&lt;br&gt;carotenoid biosynthesis protein&lt;br&gt;Location: 182658 - 183563" class="clusterblast-orf" locus_tag="DFR76_RS19860" id="dummy-3_h3_8_19" style="fill:white; stroke-width:1; stroke:black; " points="742,85 747,80 776,80 776,90 747,90 742,85 "  />
</g>
</svg>
