<svg preserveAspectRatio="none" xmlns:xlink="http://www.w3.org/1999/xlink" width="800" height="230" y="0" x="0" viewBox="0 0 800 230" xmlns="http://www.w3.org/2000/svg" version="1.1"  >
<g label="Query sequence" class="clusterblast-cluster"  >
<text class="clusterblast-acc" y="20" x="5"  >
Query sequence</text>
<line x2="778.0" y2="35" y1="35" style="stroke:grey; stroke-width:1; " x1="10"  />
<polygon description="&lt;b&gt;cds212_458&lt;/b&gt;&lt;br&gt;hypothetical protein&lt;br&gt;Location: 212 - 458" class="clusterblast-orf" locus_tag="cds212_458" id="dummy-1_q0_0_all" style="fill:#d81515; stroke-width:1; stroke:black; " points="92,40 96,35 92,30 92,40 "  />
<polygon description="&lt;b&gt;cds498_2415&lt;/b&gt;&lt;br&gt;DNA primase DnaG&lt;br&gt;Location: 498 - 2415" class="clusterblast-orf" locus_tag="cds498_2415" id="dummy-1_q1_0_all" style="fill:#77d815; stroke-width:1; stroke:black; " points="96,35 101,30 121,30 121,40 101,40 96,35 "  />
<polygon description="&lt;b&gt;cds2524_3115&lt;/b&gt;&lt;br&gt;Transmembrane component BioN of energizing module of biotin ECF transporter&lt;br&gt;Location: 2524 - 3115" class="clusterblast-orf" locus_tag="cds2524_3115" id="dummy-1_q2_0_all" style="fill:#15d8d8; stroke-width:1; stroke:black; " points="123,40 125,40 130,35 125,30 123,30 123,40 "  />
<polygon description="&lt;b&gt;cds3197_3722&lt;/b&gt;&lt;br&gt;Substrate-specific component BioY of biotin ECF transporter&lt;br&gt;Location: 3197 - 3722" class="clusterblast-orf" locus_tag="cds3197_3722" id="dummy-1_q3_0_all" style="fill:#7715d8; stroke-width:1; stroke:black; " points="131,40 133,40 138,35 133,30 131,30 131,40 "  />
<polygon description="&lt;b&gt;cds3718_4393&lt;/b&gt;&lt;br&gt;ATPase component BioM of energizing module of biotin ECF transporter&lt;br&gt;Location: 3718 - 4393" class="clusterblast-orf" locus_tag="cds3718_4393" id="dummy-1_q4_0_all" style="fill:#d83615; stroke-width:1; stroke:black; " points="138,40 142,40 147,35 142,30 138,30 138,40 "  />
<polygon description="&lt;b&gt;cds4406_5156&lt;/b&gt;&lt;br&gt;hypothetical protein&lt;br&gt;Location: 4406 - 5156" class="clusterblast-orf" locus_tag="cds4406_5156" id="dummy-1_q5_0_all" style="fill:#56d815; stroke-width:1; stroke:black; " points="147,35 152,30 157,30 157,40 152,40 147,35 "  />
<polygon description="&lt;b&gt;cds5297_6005&lt;/b&gt;&lt;br&gt;hypothetical protein&lt;br&gt;Location: 5297 - 6005" class="clusterblast-orf" locus_tag="cds5297_6005" id="dummy-1_q6_0_all" style="fill:#15b8d8; stroke-width:1; stroke:black; " points="159,35 164,30 168,30 168,40 164,40 159,35 "  />
<polygon description="&lt;b&gt;cds6131_7385&lt;/b&gt;&lt;br&gt;dNTP triphosphohydrolase, broad substrate specificity&lt;br&gt;Location: 6131 - 7385" class="clusterblast-orf" locus_tag="cds6131_7385" id="dummy-1_q7_0_all" style="fill:#9715d8; stroke-width:1; stroke:black; " points="170,35 175,30 186,30 186,40 175,40 170,35 "  />
<polygon description="&lt;b&gt;cds7388_8084&lt;/b&gt;&lt;br&gt;EpiH/GdmH-related protein&lt;br&gt;Location: 7388 - 8084" class="clusterblast-orf" locus_tag="cds7388_8084" id="dummy-1_q8_0_all" style="fill:#d85615; stroke-width:1; stroke:black; " points="186,35 191,30 195,30 195,40 191,40 186,35 "  />
<polygon description="&lt;b&gt;cds8080_8776&lt;/b&gt;&lt;br&gt;MBL-fold metallo-hydrolase superfamily&lt;br&gt;Location: 8080 - 8776" class="clusterblast-orf" locus_tag="cds8080_8776" id="dummy-1_q9_0_all" style="fill:#36d815; stroke-width:1; stroke:black; " points="195,35 200,30 204,30 204,40 200,40 195,35 "  />
<polygon description="&lt;b&gt;cds8841_10836&lt;/b&gt;&lt;br&gt;FIG00810015: hypothetical protein&lt;br&gt;Location: 8841 - 10836" class="clusterblast-orf" locus_tag="cds8841_10836" id="dummy-1_q10_0_all" style="fill:#1597d8; stroke-width:1; stroke:black; " points="205,40 226,40 231,35 226,30 205,30 205,40 "  />
<polygon description="&lt;b&gt;cds10910_11351&lt;/b&gt;&lt;br&gt;hypothetical protein&lt;br&gt;Location: 10910 - 11351" class="clusterblast-orf" locus_tag="cds10910_11351" id="dummy-1_q11_0_all" style="fill:#b815d8; stroke-width:1; stroke:black; " points="232,40 233,40 238,35 233,30 232,30 232,40 "  />
<polygon description="&lt;b&gt;cds11369_12812&lt;/b&gt;&lt;br&gt;probable sulfite oxidase&lt;br&gt;Location: 11369 - 12812" class="clusterblast-orf" locus_tag="cds11369_12812" id="dummy-1_q12_0_all" style="fill:#d87715; stroke-width:1; stroke:black; " points="238,35 243,30 257,30 257,40 243,40 238,35 "  />
<polygon description="&lt;b&gt;cds12921_26478&lt;/b&gt;&lt;br&gt;Polyketide synthase modules and related proteins&lt;br&gt;Location: 12921 - 26478" class="clusterblast-orf" locus_tag="cds12921_26478" id="dummy-1_q13_0_all" style="fill:#15d815; stroke-width:1; stroke:black; " points="258,35 263,30 435,30 435,40 263,40 258,35 "  />
<polygon description="&lt;b&gt;cds26484_27201&lt;/b&gt;&lt;br&gt;hypothetical protein&lt;br&gt;Location: 26484 - 27201" class="clusterblast-orf" locus_tag="cds26484_27201" id="dummy-1_q14_0_all" style="fill:#1577d8; stroke-width:1; stroke:black; " points="435,35 440,30 444,30 444,40 440,40 435,35 "  />
<polygon description="&lt;b&gt;cds27390_28782&lt;/b&gt;&lt;br&gt;Glycyl-tRNA synthetase (EC 6.1.1.14)&lt;br&gt;Location: 27390 - 28782" class="clusterblast-orf" locus_tag="cds27390_28782" id="dummy-1_q15_0_all" style="fill:#d815d8; stroke-width:1; stroke:black; " points="447,35 452,30 465,30 465,40 452,40 447,35 "  />
<polygon description="&lt;b&gt;cds28854_28971&lt;/b&gt;&lt;br&gt;hypothetical protein&lt;br&gt;Location: 28854 - 28971" class="clusterblast-orf" locus_tag="cds28854_28971" id="dummy-1_q16_0_all" style="fill:white; stroke-width:1; stroke:black; " points="466,40 467,35 466,30 466,40 "  />
<polygon description="&lt;b&gt;cds28983_29379&lt;/b&gt;&lt;br&gt;Transcriptional regulator in glycyl-tRNA synthetase containing cluster&lt;br&gt;Location: 28983 - 29379" class="clusterblast-orf" locus_tag="cds28983_29379" id="dummy-1_q17_0_all" style="fill:#d89715; stroke-width:1; stroke:black; " points="467,40 468,40 473,35 468,30 467,30 467,40 "  />
<polygon description="&lt;b&gt;cds29375_29801&lt;/b&gt;&lt;br&gt;Zinc uptake regulation protein Zur&lt;br&gt;Location: 29375 - 29801" class="clusterblast-orf" locus_tag="cds29375_29801" id="dummy-1_q18_0_all" style="fill:#15d836; stroke-width:1; stroke:black; " points="473,40 473,40 478,35 473,30 473,30 473,40 "  />
<polygon description="&lt;b&gt;cds29921_30890&lt;/b&gt;&lt;br&gt;putative membrane protein&lt;br&gt;Location: 29921 - 30890" class="clusterblast-orf" locus_tag="cds29921_30890" id="dummy-1_q19_0_all" style="fill:#1556d8; stroke-width:1; stroke:black; " points="480,35 485,30 492,30 492,40 485,40 480,35 "  />
<polygon description="&lt;b&gt;cds30993_31611&lt;/b&gt;&lt;br&gt;Transcriptional regulator, AcrR family&lt;br&gt;Location: 30993 - 31611" class="clusterblast-orf" locus_tag="cds30993_31611" id="dummy-1_q20_0_all" style="fill:#d815b8; stroke-width:1; stroke:black; " points="494,40 497,40 502,35 497,30 494,30 494,40 "  />
<polygon description="&lt;b&gt;cds31632_32313&lt;/b&gt;&lt;br&gt;Transcriptional regulator, AcrR family&lt;br&gt;Location: 31632 - 32313" class="clusterblast-orf" locus_tag="cds31632_32313" id="dummy-1_q21_0_all" style="fill:#d8b815; stroke-width:1; stroke:black; " points="502,35 507,30 511,30 511,40 507,40 502,35 "  />
<polygon description="&lt;b&gt;cds32388_32793&lt;/b&gt;&lt;br&gt;FIG025412: hypothetical protein&lt;br&gt;Location: 32388 - 32793" class="clusterblast-orf" locus_tag="cds32388_32793" id="dummy-1_q22_0_all" style="fill:#15d856; stroke-width:1; stroke:black; " points="512,35 517,30 517,30 517,40 517,40 512,35 "  />
<polygon description="&lt;b&gt;cds32789_33584&lt;/b&gt;&lt;br&gt;Trans,polycis-decaprenyl diphosphate synthase (EC 2.5.1.86)&lt;br&gt;Location: 32789 - 33584" class="clusterblast-orf" locus_tag="cds32789_33584" id="dummy-1_q23_0_all" style="fill:#1536d8; stroke-width:1; stroke:black; " points="517,35 522,30 527,30 527,40 522,40 517,35 "  />
<polygon description="&lt;b&gt;cds33656_33830&lt;/b&gt;&lt;br&gt;hypothetical protein&lt;br&gt;Location: 33656 - 33830" class="clusterblast-orf" locus_tag="cds33656_33830" id="dummy-1_q24_0_all" style="fill:white; stroke-width:1; stroke:black; " points="528,35 531,30 531,40 528,35 "  />
<polygon description="&lt;b&gt;cds34156_34933&lt;/b&gt;&lt;br&gt;DNA recombination and repair protein RecO&lt;br&gt;Location: 34156 - 34933" class="clusterblast-orf" locus_tag="cds34156_34933" id="dummy-1_q25_0_all" style="fill:#d81597; stroke-width:1; stroke:black; " points="535,35 540,30 545,30 545,40 540,40 535,35 "  />
<polygon description="&lt;b&gt;cds35027_35219&lt;/b&gt;&lt;br&gt;hypothetical protein&lt;br&gt;Location: 35027 - 35219" class="clusterblast-orf" locus_tag="cds35027_35219" id="dummy-1_q26_0_all" style="fill:white; stroke-width:1; stroke:black; " points="546,40 549,35 546,30 546,40 "  />
<polygon description="&lt;b&gt;cds35296_35794&lt;/b&gt;&lt;br&gt;Methylated-DNA--protein-cysteine methyltransferase (EC 2.1.1.63)&lt;br&gt;Location: 35296 - 35794" class="clusterblast-orf" locus_tag="cds35296_35794" id="dummy-1_q27_0_all" style="fill:#d8d815; stroke-width:1; stroke:black; " points="550,40 551,40 556,35 551,30 550,30 550,40 "  />
<polygon description="&lt;b&gt;cds36082_36283&lt;/b&gt;&lt;br&gt;hypothetical protein&lt;br&gt;Location: 36082 - 36283" class="clusterblast-orf" locus_tag="cds36082_36283" id="dummy-1_q28_0_all" style="fill:#15d877; stroke-width:1; stroke:black; " points="560,40 563,35 560,30 560,40 "  />
<polygon description="&lt;b&gt;cds36481_37936&lt;/b&gt;&lt;br&gt;Amidase family protein MSMEG 4492&lt;br&gt;Location: 36481 - 37936" class="clusterblast-orf" locus_tag="cds36481_37936" id="dummy-1_q29_0_all" style="fill:#1515d8; stroke-width:1; stroke:black; " points="565,40 579,40 584,35 579,30 565,30 565,40 "  />
<polygon description="&lt;b&gt;cds37986_38367&lt;/b&gt;&lt;br&gt;Protein of unknown function DUF1304&lt;br&gt;Location: 37986 - 38367" class="clusterblast-orf" locus_tag="cds37986_38367" id="dummy-1_q30_0_all" style="fill:#d81577; stroke-width:1; stroke:black; " points="585,40 585,40 590,35 585,30 585,30 585,40 "  />
<polygon description="&lt;b&gt;cds38353_39196&lt;/b&gt;&lt;br&gt;Putative DNA-binding protein&lt;br&gt;Location: 38353 - 39196" class="clusterblast-orf" locus_tag="cds38353_39196" id="dummy-1_q31_0_all" style="fill:#b8d815; stroke-width:1; stroke:black; " points="590,35 595,30 601,30 601,40 595,40 590,35 "  />
<polygon description="&lt;b&gt;cds39311_40373&lt;/b&gt;&lt;br&gt;Oxidoreductase&lt;br&gt;Location: 39311 - 40373" class="clusterblast-orf" locus_tag="cds39311_40373" id="dummy-1_q32_0_all" style="fill:#15d897; stroke-width:1; stroke:black; " points="602,40 611,40 616,35 611,30 602,30 602,40 "  />
<polygon description="&lt;b&gt;cds40392_41319&lt;/b&gt;&lt;br&gt;GTP-binding protein Era&lt;br&gt;Location: 40392 - 41319" class="clusterblast-orf" locus_tag="cds40392_41319" id="dummy-1_q33_0_all" style="fill:#3615d8; stroke-width:1; stroke:black; " points="616,35 621,30 628,30 628,40 621,40 616,35 "  />
<polygon description="&lt;b&gt;cds41315_41726&lt;/b&gt;&lt;br&gt;Uncharacterized protein SCO2538&lt;br&gt;Location: 41315 - 41726" class="clusterblast-orf" locus_tag="cds41315_41726" id="dummy-1_q34_0_all" style="fill:#d81556; stroke-width:1; stroke:black; " points="628,35 633,30 634,30 634,40 633,40 628,35 "  />
<polygon description="&lt;b&gt;cds41718_43080&lt;/b&gt;&lt;br&gt;Magnesium and cobalt efflux protein CorC&lt;br&gt;Location: 41718 - 43080" class="clusterblast-orf" locus_tag="cds41718_43080" id="dummy-1_q35_0_all" style="fill:#97d815; stroke-width:1; stroke:black; " points="633,35 638,30 651,30 651,40 638,40 633,35 "  />
<polygon description="&lt;b&gt;cds43076_43631&lt;/b&gt;&lt;br&gt;Metal-dependent hydrolase YbeY, involved in rRNA and/or ribosome maturation and assembly&lt;br&gt;Location: 43076 - 43631" class="clusterblast-orf" locus_tag="cds43076_43631" id="dummy-1_q36_0_all" style="fill:#15d8b8; stroke-width:1; stroke:black; " points="651,35 656,30 658,30 658,40 656,40 651,35 "  />
<polygon description="&lt;b&gt;cds43653_44763&lt;/b&gt;&lt;br&gt;Phosphate starvation-inducible protein PhoH, predicted ATPase&lt;br&gt;Location: 43653 - 44763" class="clusterblast-orf" locus_tag="cds43653_44763" id="dummy-1_q37_0_all" style="fill:#5615d8; stroke-width:1; stroke:black; " points="659,35 664,30 673,30 673,40 664,40 659,35 "  />
<polygon description="&lt;b&gt;cds44880_45810&lt;/b&gt;&lt;br&gt;Transcriptional regulator, LysR family&lt;br&gt;Location: 44880 - 45810" class="clusterblast-orf" locus_tag="cds44880_45810" id="dummy-1_q38_0_all" style="fill:#d81536; stroke-width:1; stroke:black; " points="675,35 680,30 687,30 687,40 680,40 675,35 "  />
</g>
<g label="NZ_AP022565" description="NZ_AP022565 (55047-114896): Mycolicibacterium alvei strain JCM 12272 (33% of genes show similarity), NRPS" class="clusterblast-cluster"  >
<text class="clusterblast-acc" y="70" x="5"  >
<a xlink:href="https://antismash-db.secondarymetabolites.org/area.html?record=NZ_AP022565&amp;start=55047&amp;end=114896" target="_blank">NZ_AP022565 (55047-114896)</a>: Mycolicibacterium alvei strain JCM 12272 (33% of genes show similarity), NRPS</text>
<line x2="778.0" y2="85" y1="85" style="stroke:grey; stroke-width:1; " x1="10"  />
</g>
<g id="a1_000"  >
<polygon description="&lt;b&gt;G6N44_RS00480&lt;/b&gt;&lt;br&gt;deoxyguanosinetriphosphate triphosphohydrolase&lt;br&gt;Location: 114896 - 113622&lt;br&gt;&lt;br&gt;&lt;b&gt;BlastP hit with cds6131_7385&lt;/b&gt;&lt;br&gt;Percentage identity: 67&lt;br&gt;Percentage coverage: 98&lt;br&gt;BLAST bit score: 508&lt;br&gt;E-value: 5.6e-142" class="clusterblast-orf" locus_tag="G6N44_RS00480" id="dummy-1_h1_9_0" style="fill:#9715d8; stroke-width:1; stroke:black; " points="0,85 5,80 16,80 16,90 5,90 0,85 "  />
</g>
<g id="a1_001"  >
<polygon description="&lt;b&gt;G6N44_RS00475&lt;/b&gt;&lt;br&gt;TPM domain-containing protein&lt;br&gt;Location: 113562 - 111523&lt;br&gt;&lt;br&gt;&lt;b&gt;BlastP hit with cds8841_10836&lt;/b&gt;&lt;br&gt;Percentage identity: 47&lt;br&gt;Percentage coverage: 91&lt;br&gt;BLAST bit score: 347&lt;br&gt;E-value: 3.5e-93" class="clusterblast-orf" locus_tag="G6N44_RS00475" id="dummy-1_h1_9_1" style="fill:#1597d8; stroke-width:1; stroke:black; " points="17,90 38,90 43,85 38,80 17,80 17,90 "  />
</g>
<g id="a1_002"  >
<polygon description="&lt;b&gt;G6N44_RS00470&lt;/b&gt;&lt;br&gt;glycine--tRNA ligase&lt;br&gt;Location: 111510 - 110113&lt;br&gt;&lt;br&gt;&lt;b&gt;BlastP hit with cds27390_28782&lt;/b&gt;&lt;br&gt;Percentage identity: 80&lt;br&gt;Percentage coverage: 100&lt;br&gt;BLAST bit score: 791&lt;br&gt;E-value: 3.7e-227" class="clusterblast-orf" locus_tag="G6N44_RS00470" id="dummy-1_h1_9_2" style="fill:#d815d8; stroke-width:1; stroke:black; " points="44,85 49,80 62,80 62,90 49,90 44,85 "  />
</g>
<g id="a1_003"  >
<polygon description="&lt;b&gt;G6N44_RS00465&lt;/b&gt;&lt;br&gt;metalloregulator ArsR/SmtB family transcription factor&lt;br&gt;Location: 110015 - 109647&lt;br&gt;&lt;br&gt;&lt;b&gt;BlastP hit with cds28983_29379&lt;/b&gt;&lt;br&gt;Percentage identity: 75&lt;br&gt;Percentage coverage: 73&lt;br&gt;BLAST bit score: 140&lt;br&gt;E-value: 9.7e-32" class="clusterblast-orf" locus_tag="G6N44_RS00465" id="dummy-1_h1_9_3" style="fill:#d89715; stroke-width:1; stroke:black; " points="63,90 63,90 68,85 63,80 63,80 63,90 "  />
</g>
<g id="a1_004"  >
<polygon description="&lt;b&gt;G6N44_RS00460&lt;/b&gt;&lt;br&gt;transcriptional repressor&lt;br&gt;Location: 109650 - 109252&lt;br&gt;&lt;br&gt;&lt;b&gt;BlastP hit with cds29375_29801&lt;/b&gt;&lt;br&gt;Percentage identity: 74&lt;br&gt;Percentage coverage: 91&lt;br&gt;BLAST bit score: 200&lt;br&gt;E-value: 8.5e-50" class="clusterblast-orf" locus_tag="G6N44_RS00460" id="dummy-1_h1_9_4" style="fill:#15d836; stroke-width:1; stroke:black; " points="68,90 68,90 73,85 68,80 68,80 68,90 "  />
</g>
<g id="a1_005"  >
<polygon description="&lt;b&gt;G6N44_RS00455&lt;/b&gt;&lt;br&gt;NUDIX domain-containing protein&lt;br&gt;Location: 109215 - 108811" class="clusterblast-orf" locus_tag="G6N44_RS00455" id="dummy-1_h1_9_5" style="fill:white; stroke-width:1; stroke:black; " points="74,85 79,80 79,80 79,90 79,90 74,85 "  />
</g>
<g id="a1_006"  >
<polygon description="&lt;b&gt;G6N44_RS00450&lt;/b&gt;&lt;br&gt;hypothetical protein&lt;br&gt;Location: 108814 - 108368&lt;br&gt;&lt;br&gt;&lt;b&gt;BlastP hit with cds32388_32793&lt;/b&gt;&lt;br&gt;Percentage identity: 33&lt;br&gt;Percentage coverage: 96&lt;br&gt;BLAST bit score: 75&lt;br&gt;E-value: 3.9e-12" class="clusterblast-orf" locus_tag="G6N44_RS00450" id="dummy-1_h1_9_6" style="fill:#15d856; stroke-width:1; stroke:black; " points="79,85 84,80 85,80 85,90 84,90 79,85 "  />
</g>
<g id="a1_007"  >
<polygon description="&lt;b&gt;G6N44_RS00445&lt;/b&gt;&lt;br&gt;decaprenyl diphosphate synthase&lt;br&gt;Location: 108366 - 107473&lt;br&gt;&lt;br&gt;&lt;b&gt;BlastP hit with cds32789_33584&lt;/b&gt;&lt;br&gt;Percentage identity: 64&lt;br&gt;Percentage coverage: 94&lt;br&gt;BLAST bit score: 338&lt;br&gt;E-value: 6.4e-91" class="clusterblast-orf" locus_tag="G6N44_RS00445" id="dummy-1_h1_9_7" style="fill:#1536d8; stroke-width:1; stroke:black; " points="85,85 90,80 96,80 96,90 90,90 85,85 "  />
</g>
<g id="a1_008"  >
<polygon description="&lt;b&gt;G6N44_RS00440&lt;/b&gt;&lt;br&gt;DNA repair protein RecO&lt;br&gt;Location: 107537 - 106683&lt;br&gt;&lt;br&gt;&lt;b&gt;BlastP hit with cds34156_34933&lt;/b&gt;&lt;br&gt;Percentage identity: 76&lt;br&gt;Percentage coverage: 94&lt;br&gt;BLAST bit score: 370&lt;br&gt;E-value: 1.5e-100" class="clusterblast-orf" locus_tag="G6N44_RS00440" id="dummy-1_h1_9_8" style="fill:#d81597; stroke-width:1; stroke:black; " points="95,85 100,80 107,80 107,90 100,90 95,85 "  />
</g>
<g id="a1_009"  >
<polygon description="&lt;b&gt;G6N44_RS00435&lt;/b&gt;&lt;br&gt;amidase&lt;br&gt;Location: 106619 - 105168&lt;br&gt;&lt;br&gt;&lt;b&gt;BlastP hit with cds36481_37936&lt;/b&gt;&lt;br&gt;Percentage identity: 58&lt;br&gt;Percentage coverage: 93&lt;br&gt;BLAST bit score: 491&lt;br&gt;E-value: 8.3e-137" class="clusterblast-orf" locus_tag="G6N44_RS00435" id="dummy-1_h1_9_9" style="fill:#1515d8; stroke-width:1; stroke:black; " points="107,90 121,90 126,85 121,80 107,80 107,90 "  />
</g>
<g id="a1_0010"  >
<polygon description="&lt;b&gt;G6N44_RS00430&lt;/b&gt;&lt;br&gt;GTPase Era&lt;br&gt;Location: 105171 - 104272&lt;br&gt;&lt;br&gt;&lt;b&gt;BlastP hit with cds40392_41319&lt;/b&gt;&lt;br&gt;Percentage identity: 76&lt;br&gt;Percentage coverage: 100&lt;br&gt;BLAST bit score: 477&lt;br&gt;E-value: 1e-132" class="clusterblast-orf" locus_tag="G6N44_RS00430" id="dummy-1_h1_9_10" style="fill:#3615d8; stroke-width:1; stroke:black; " points="126,85 131,80 138,80 138,90 131,90 126,85 "  />
</g>
<g id="a1_0011"  >
<polygon description="&lt;b&gt;G6N44_RS00425&lt;/b&gt;&lt;br&gt;cytidine deaminase&lt;br&gt;Location: 104275 - 103958&lt;br&gt;&lt;br&gt;&lt;b&gt;BlastP hit with cds41315_41726&lt;/b&gt;&lt;br&gt;Percentage identity: 66&lt;br&gt;Percentage coverage: 75&lt;br&gt;BLAST bit score: 118&lt;br&gt;E-value: 7e-25" class="clusterblast-orf" locus_tag="G6N44_RS00425" id="dummy-1_h1_9_11" style="fill:#d81556; stroke-width:1; stroke:black; " points="138,85 142,80 142,90 138,85 "  />
</g>
<g id="a1_0012"  >
<polygon description="&lt;b&gt;G6N44_RS00420&lt;/b&gt;&lt;br&gt;DUF21 domain-containing protein&lt;br&gt;Location: 103965 - 102664&lt;br&gt;&lt;br&gt;&lt;b&gt;BlastP hit with cds41718_43080&lt;/b&gt;&lt;br&gt;Percentage identity: 69&lt;br&gt;Percentage coverage: 93&lt;br&gt;BLAST bit score: 532&lt;br&gt;E-value: 4e-149" class="clusterblast-orf" locus_tag="G6N44_RS00420" id="dummy-1_h1_9_12" style="fill:#97d815; stroke-width:1; stroke:black; " points="142,85 147,80 159,80 159,90 147,90 142,85 "  />
</g>
<g id="a1_0013"  >
<polygon description="&lt;b&gt;G6N44_RS00415&lt;/b&gt;&lt;br&gt;rRNA maturation RNase YbeY&lt;br&gt;Location: 102667 - 102131&lt;br&gt;&lt;br&gt;&lt;b&gt;BlastP hit with cds43076_43631&lt;/b&gt;&lt;br&gt;Percentage identity: 78&lt;br&gt;Percentage coverage: 95&lt;br&gt;BLAST bit score: 271&lt;br&gt;E-value: 6.7e-71" class="clusterblast-orf" locus_tag="G6N44_RS00415" id="dummy-1_h1_9_13" style="fill:#15d8b8; stroke-width:1; stroke:black; " points="159,85 164,80 166,80 166,90 164,90 159,85 "  />
</g>
<g id="a1_0014"  >
<polygon description="&lt;b&gt;G6N44_RS00410&lt;/b&gt;&lt;br&gt;PhoH family protein&lt;br&gt;Location: 102134 - 101085&lt;br&gt;&lt;br&gt;&lt;b&gt;BlastP hit with cds43653_44763&lt;/b&gt;&lt;br&gt;Percentage identity: 76&lt;br&gt;Percentage coverage: 94&lt;br&gt;BLAST bit score: 510&lt;br&gt;E-value: 1.3e-142" class="clusterblast-orf" locus_tag="G6N44_RS00410" id="dummy-1_h1_9_14" style="fill:#5615d8; stroke-width:1; stroke:black; " points="166,85 171,80 179,80 179,90 171,90 166,85 "  />
</g>
<g id="a1_0015"  >
<polygon description="&lt;b&gt;G6N44_RS00405&lt;/b&gt;&lt;br&gt;hypothetical protein&lt;br&gt;Location: 100900 - 100133" class="clusterblast-orf" locus_tag="G6N44_RS00405" id="dummy-1_h1_9_15" style="fill:white; stroke-width:1; stroke:black; " points="182,85 187,80 192,80 192,90 187,90 182,85 "  />
</g>
<g id="a1_0016"  >
<polygon description="&lt;b&gt;G6N44_RS00400&lt;/b&gt;&lt;br&gt;16S rRNA (uracil(1498)-N(3))-methyltransferase&lt;br&gt;Location: 100094 - 99345" class="clusterblast-orf" locus_tag="G6N44_RS00400" id="dummy-1_h1_9_16" style="fill:white; stroke-width:1; stroke:black; " points="192,85 197,80 202,80 202,90 197,90 192,85 "  />
</g>
<g id="a1_0017"  >
<polygon description="&lt;b&gt;G6N44_RS00395&lt;/b&gt;&lt;br&gt;molecular chaperone DnaJ&lt;br&gt;Location: 99328 - 98186" class="clusterblast-orf" locus_tag="G6N44_RS00395" id="dummy-1_h1_9_17" style="fill:white; stroke-width:1; stroke:black; " points="202,85 207,80 217,80 217,90 207,90 202,85 "  />
</g>
<g id="a1_0018"  >
<polygon description="&lt;b&gt;G6N44_RS00390&lt;/b&gt;&lt;br&gt;heat-inducible transcriptional repressor HrcA&lt;br&gt;Location: 98143 - 97112" class="clusterblast-orf" locus_tag="G6N44_RS00390" id="dummy-1_h1_9_18" style="fill:white; stroke-width:1; stroke:black; " points="218,85 223,80 231,80 231,90 223,90 218,85 "  />
</g>
<g id="a1_0019"  >
<polygon description="&lt;b&gt;G6N44_RS00385&lt;/b&gt;&lt;br&gt;type II toxin-antitoxin system VapB family antitoxin&lt;br&gt;Location: 96905 - 96591" class="clusterblast-orf" locus_tag="G6N44_RS00385" id="dummy-1_h1_9_19" style="fill:white; stroke-width:1; stroke:black; " points="234,90 238,85 234,80 234,90 "  />
</g>
<g id="a1_0020"  >
<polygon description="&lt;b&gt;G6N44_RS00380&lt;/b&gt;&lt;br&gt;MbtH family NRPS accessory protein&lt;br&gt;Location: 96589 - 96377" class="clusterblast-orf" locus_tag="G6N44_RS00380" id="dummy-1_h1_9_20" style="fill:white; stroke-width:1; stroke:black; " points="238,85 241,80 241,90 238,85 "  />
</g>
<g id="a1_0021"  >
<polygon description="&lt;b&gt;G6N44_RS00375&lt;/b&gt;&lt;br&gt;NADPH-dependent L-lysine N(6)-monooxygenase MbtG&lt;br&gt;Location: 96399 - 95092" class="clusterblast-orf" locus_tag="G6N44_RS00375" id="dummy-1_h1_9_21" style="fill:white; stroke-width:1; stroke:black; " points="241,85 246,80 258,80 258,90 246,90 241,85 "  />
</g>
<g id="a1_0022"  >
<polygon description="&lt;b&gt;G6N44_RS00370&lt;/b&gt;&lt;br&gt;amino acid adenylation domain-containing protein&lt;br&gt;Location: 95095 - 90629" class="clusterblast-orf" locus_tag="G6N44_RS00370" id="dummy-1_h1_9_22" style="fill:white; stroke-width:1; stroke:black; " points="258,85 263,80 316,80 316,90 263,90 258,85 "  />
</g>
<g id="a1_0023"  >
<polygon description="&lt;b&gt;G6N44_RS00365&lt;/b&gt;&lt;br&gt;amino acid adenylation domain-containing protein&lt;br&gt;Location: 90659 - 85200" class="clusterblast-orf" locus_tag="G6N44_RS00365" id="dummy-1_h1_9_23" style="fill:white; stroke-width:1; stroke:black; " points="315,85 320,80 387,80 387,90 320,90 315,85 "  />
</g>
<g id="a1_0024"  >
<polygon description="&lt;b&gt;G6N44_RS00360&lt;/b&gt;&lt;br&gt;mycobactin polyketide synthase MbtD&lt;br&gt;Location: 85207 - 82214" class="clusterblast-orf" locus_tag="G6N44_RS00360" id="dummy-1_h1_9_24" style="fill:white; stroke-width:1; stroke:black; " points="386,85 391,80 425,80 425,90 391,90 386,85 "  />
</g>
<g id="a1_0025"  >
<polygon description="&lt;b&gt;G6N44_RS00355&lt;/b&gt;&lt;br&gt;polyketide synthase&lt;br&gt;Location: 82217 - 80889" class="clusterblast-orf" locus_tag="G6N44_RS00355" id="dummy-1_h1_9_25" style="fill:white; stroke-width:1; stroke:black; " points="425,85 430,80 443,80 443,90 430,90 425,85 "  />
</g>
<g id="a1_0026"  >
<polygon description="&lt;b&gt;G6N44_RS00350&lt;/b&gt;&lt;br&gt;alpha/beta fold hydrolase&lt;br&gt;Location: 80899 - 80153" class="clusterblast-orf" locus_tag="G6N44_RS00350" id="dummy-1_h1_9_26" style="fill:white; stroke-width:1; stroke:black; " points="443,85 448,80 452,80 452,90 448,90 443,85 "  />
</g>
<g id="a1_0027"  >
<polygon description="&lt;b&gt;G6N44_RS00345&lt;/b&gt;&lt;br&gt;AMP-binding protein&lt;br&gt;Location: 80156 - 79425" class="clusterblast-orf" locus_tag="G6N44_RS00345" id="dummy-1_h1_9_27" style="fill:white; stroke-width:1; stroke:black; " points="452,85 457,80 462,80 462,90 457,90 452,85 "  />
</g>
<g id="a1_0028"  >
<polygon description="&lt;b&gt;G6N44_RS00340&lt;/b&gt;&lt;br&gt;amino acid adenylation domain-containing protein&lt;br&gt;Location: 79372 - 75848" class="clusterblast-orf" locus_tag="G6N44_RS00340" id="dummy-1_h1_9_28" style="fill:white; stroke-width:1; stroke:black; " points="462,85 467,80 508,80 508,90 467,90 462,85 "  />
</g>
<g id="a1_0029"  >
<polygon description="&lt;b&gt;G6N44_RS00335&lt;/b&gt;&lt;br&gt;AMP-binding protein&lt;br&gt;Location: 75751 - 74102" class="clusterblast-orf" locus_tag="G6N44_RS00335" id="dummy-1_h1_9_29" style="fill:white; stroke-width:1; stroke:black; " points="510,90 526,90 531,85 526,80 510,80 510,90 "  />
</g>
<g id="a1_0030"  >
<polygon description="&lt;b&gt;G6N44_RS00330&lt;/b&gt;&lt;br&gt;acyltransferase domain-containing protein&lt;br&gt;Location: 74105 - 68897" class="clusterblast-orf" locus_tag="G6N44_RS00330" id="dummy-1_h1_9_30" style="fill:white; stroke-width:1; stroke:black; " points="531,85 536,80 599,80 599,90 536,90 531,85 "  />
</g>
<g id="a1_0031"  >
<polygon description="&lt;b&gt;G6N44_RS00325&lt;/b&gt;&lt;br&gt;coproporphyrinogen III oxidase&lt;br&gt;Location: 68653 - 67481" class="clusterblast-orf" locus_tag="G6N44_RS00325" id="dummy-1_h1_9_31" style="fill:white; stroke-width:1; stroke:black; " points="602,85 607,80 617,80 617,90 607,90 602,85 "  />
</g>
<g id="a1_0032"  >
<polygon description="&lt;b&gt;G6N44_RS00320&lt;/b&gt;&lt;br&gt;nitrite/sulfite reductase&lt;br&gt;Location: 67159 - 65471" class="clusterblast-orf" locus_tag="G6N44_RS00320" id="dummy-1_h1_9_32" style="fill:white; stroke-width:1; stroke:black; " points="622,90 639,90 644,85 639,80 622,80 622,90 "  />
</g>
<g id="a1_0033"  >
<polygon description="&lt;b&gt;G6N44_RS00315&lt;/b&gt;&lt;br&gt;phosphoadenylyl-sulfate reductase&lt;br&gt;Location: 65474 - 64773" class="clusterblast-orf" locus_tag="G6N44_RS00315" id="dummy-1_h1_9_33" style="fill:white; stroke-width:1; stroke:black; " points="644,90 648,90 653,85 648,80 644,80 644,90 "  />
</g>
<g id="a1_0034"  >
<polygon description="&lt;b&gt;G6N44_RS00310&lt;/b&gt;&lt;br&gt;sirohydrochlorin chelatase&lt;br&gt;Location: 64765 - 64052" class="clusterblast-orf" locus_tag="G6N44_RS00310" id="dummy-1_h1_9_34" style="fill:white; stroke-width:1; stroke:black; " points="653,90 657,90 662,85 657,80 653,80 653,90 "  />
</g>
<g id="a1_0035"  >
<polygon description="&lt;b&gt;G6N44_RS00305&lt;/b&gt;&lt;br&gt;MBL fold metallo-hydrolase&lt;br&gt;Location: 63915 - 62536" class="clusterblast-orf" locus_tag="G6N44_RS00305" id="dummy-1_h1_9_35" style="fill:white; stroke-width:1; stroke:black; " points="664,90 677,90 682,85 677,80 664,80 664,90 "  />
</g>
<g id="a1_0036"  >
<polygon description="&lt;b&gt;G6N44_RS00300&lt;/b&gt;&lt;br&gt;FAD-dependent oxidoreductase&lt;br&gt;Location: 62486 - 61275" class="clusterblast-orf" locus_tag="G6N44_RS00300" id="dummy-1_h1_9_36" style="fill:white; stroke-width:1; stroke:black; " points="683,90 693,90 698,85 693,80 683,80 683,90 "  />
</g>
<g id="a1_0037"  >
<polygon description="&lt;b&gt;G6N44_RS00295&lt;/b&gt;&lt;br&gt;DUF2892 domain-containing protein&lt;br&gt;Location: 61275 - 60679" class="clusterblast-orf" locus_tag="G6N44_RS00295" id="dummy-1_h1_9_37" style="fill:white; stroke-width:1; stroke:black; " points="698,90 701,90 706,85 701,80 698,80 698,90 "  />
</g>
<g id="a1_0038"  >
<polygon description="&lt;b&gt;G6N44_RS00290&lt;/b&gt;&lt;br&gt;TSUP family transporter&lt;br&gt;Location: 60682 - 59819" class="clusterblast-orf" locus_tag="G6N44_RS00290" id="dummy-1_h1_9_38" style="fill:white; stroke-width:1; stroke:black; " points="706,90 712,90 717,85 712,80 706,80 706,90 "  />
</g>
<g id="a1_0039"  >
<polygon description="&lt;b&gt;G6N44_RS00285&lt;/b&gt;&lt;br&gt;metal-sensing transcriptional repressor&lt;br&gt;Location: 59749 - 59480" class="clusterblast-orf" locus_tag="G6N44_RS00285" id="dummy-1_h1_9_39" style="fill:white; stroke-width:1; stroke:black; " points="718,90 722,85 718,80 718,90 "  />
</g>
<g id="a1_0040"  >
<polygon description="&lt;b&gt;G6N44_RS00280&lt;/b&gt;&lt;br&gt;TOBE-like domain-containing protein&lt;br&gt;Location: 59359 - 58361&lt;br&gt;&lt;br&gt;&lt;b&gt;BlastP hit with cds3718_4393&lt;/b&gt;&lt;br&gt;Percentage identity: 32&lt;br&gt;Percentage coverage: 98&lt;br&gt;BLAST bit score: 104&lt;br&gt;E-value: 1e-20" class="clusterblast-orf" locus_tag="G6N44_RS00280" id="dummy-1_h1_9_40" style="fill:#d83615; stroke-width:1; stroke:black; " points="723,85 728,80 736,80 736,90 728,90 723,85 "  />
</g>
<g id="a1_0041"  >
<polygon description="&lt;b&gt;G6N44_RS00275&lt;/b&gt;&lt;br&gt;sulfate ABC transporter permease subunit CysW&lt;br&gt;Location: 58338 - 57517" class="clusterblast-orf" locus_tag="G6N44_RS00275" id="dummy-1_h1_9_41" style="fill:white; stroke-width:1; stroke:black; " points="737,85 742,80 747,80 747,90 742,90 737,85 "  />
</g>
<g id="a1_0042"  >
<polygon description="&lt;b&gt;G6N44_RS00270&lt;/b&gt;&lt;br&gt;sulfate ABC transporter permease subunit CysT&lt;br&gt;Location: 57520 - 56657" class="clusterblast-orf" locus_tag="G6N44_RS00270" id="dummy-1_h1_9_42" style="fill:white; stroke-width:1; stroke:black; " points="747,85 752,80 759,80 759,90 752,90 747,85 "  />
</g>
<g id="a1_0043"  >
<polygon description="&lt;b&gt;G6N44_RS00265&lt;/b&gt;&lt;br&gt;sulfate ABC transporter substrate-binding protein&lt;br&gt;Location: 56660 - 55617" class="clusterblast-orf" locus_tag="G6N44_RS00265" id="dummy-1_h1_9_43" style="fill:white; stroke-width:1; stroke:black; " points="758,85 763,80 772,80 772,90 763,90 758,85 "  />
</g>
<g id="a1_0044"  >
<polygon description="&lt;b&gt;G6N44_RS00260&lt;/b&gt;&lt;br&gt;hypothetical protein&lt;br&gt;Location: 55251 - 55048" class="clusterblast-orf" locus_tag="G6N44_RS00260" id="dummy-1_h1_9_44" style="fill:white; stroke-width:1; stroke:black; " points="777,85 780,80 780,90 777,85 "  />
</g>
</svg>
