<svg width="800" viewBox="0 0 800 230" y="0" version="1.1" xmlns:xlink="http://www.w3.org/1999/xlink" preserveAspectRatio="none" height="230" x="0" xmlns="http://www.w3.org/2000/svg"  >
<g class="clusterblast-cluster" label="Query sequence"  >
<text x="5" class="clusterblast-acc" y="20"  >
Query sequence</text>
<line style="stroke:grey; stroke-width:1; " x2="778.0" y1="35" y2="35" x1="10"  />
<polygon points="200,35 205,30 306,30 306,40 205,40 200,35 " class="clusterblast-orf" locus_tag="cds0_3369" description="&lt;b&gt;cds0_3369&lt;/b&gt;&lt;br&gt;omega-3 polyunsaturated fatty acid synthase subunit, PfaA&lt;br&gt;Location: 0 - 3369" style="fill:white; stroke:black; stroke-width:1; " id="dummy-1_q0_0_all"  />
<polygon points="308,35 313,30 358,30 358,40 313,40 308,35 " class="clusterblast-orf" locus_tag="cds3416_5000" description="&lt;b&gt;cds3416_5000&lt;/b&gt;&lt;br&gt;Enoyl-[acyl-carrier-protein] reductase [FMN] (EC 1.3.1.9), inferred for PFA pathway&lt;br&gt;Location: 3416 - 5000" style="fill:white; stroke:black; stroke-width:1; " id="dummy-1_q1_0_all"  />
<polygon points="360,35 365,30 395,30 395,40 365,40 360,35 " class="clusterblast-orf" locus_tag="cds5059_6193" description="&lt;b&gt;cds5059_6193&lt;/b&gt;&lt;br&gt;Polyketide synthase modules and related proteins&lt;br&gt;Location: 5059 - 6193" style="fill:white; stroke:black; stroke-width:1; " id="dummy-1_q2_0_all"  />
<polygon points="398,35 402,30 402,40 398,35 " class="clusterblast-orf" locus_tag="cds6269_6413" description="&lt;b&gt;cds6269_6413&lt;/b&gt;&lt;br&gt;hypothetical protein&lt;br&gt;Location: 6269 - 6413" style="fill:white; stroke:black; stroke-width:1; " id="dummy-1_q3_0_all"  />
<polygon points="409,40 443,40 448,35 443,30 409,30 409,40 " class="clusterblast-orf" locus_tag="cds6616_7870" description="&lt;b&gt;cds6616_7870&lt;/b&gt;&lt;br&gt;hypothetical protein&lt;br&gt;Location: 6616 - 7870" style="fill:white; stroke:black; stroke-width:1; " id="dummy-1_q4_0_all"  />
<polygon points="451,35 456,30 475,30 475,40 456,40 451,35 " class="clusterblast-orf" locus_tag="cds7970_8735" description="&lt;b&gt;cds7970_8735&lt;/b&gt;&lt;br&gt;SAM-dependent methyltransferase&lt;br&gt;Location: 7970 - 8735" style="fill:#d81515; stroke:black; stroke-width:1; " id="dummy-1_q5_0_all"  />
<polygon points="480,40 494,40 499,35 494,30 480,30 480,40 " class="clusterblast-orf" locus_tag="cds8870_9473" description="&lt;b&gt;cds8870_9473&lt;/b&gt;&lt;br&gt;Transcriptional regulator, AcrR family&lt;br&gt;Location: 8870 - 9473" style="fill:#15d8d8; stroke:black; stroke-width:1; " id="dummy-1_q6_0_all"  />
<polygon points="500,35 505,30 545,30 545,40 505,40 500,35 " class="clusterblast-orf" locus_tag="cds9516_10950" description="&lt;b&gt;cds9516_10950&lt;/b&gt;&lt;br&gt;hypothetical protein&lt;br&gt;Location: 9516 - 10950" style="fill:white; stroke:black; stroke-width:1; " id="dummy-1_q7_0_all"  />
<polygon points="548,35 553,30 556,30 556,40 553,40 548,35 " class="clusterblast-orf" locus_tag="cds11037_11292" description="&lt;b&gt;cds11037_11292&lt;/b&gt;&lt;br&gt;hypothetical protein&lt;br&gt;Location: 11037 - 11292" style="fill:white; stroke:black; stroke-width:1; " id="dummy-1_q8_0_all"  />
<polygon points="560,40 560,40 565,35 560,30 560,30 560,40 " class="clusterblast-orf" locus_tag="cds11410_11584" description="&lt;b&gt;cds11410_11584&lt;/b&gt;&lt;br&gt;hypothetical protein&lt;br&gt;Location: 11410 - 11584" style="fill:white; stroke:black; stroke-width:1; " id="dummy-1_q9_0_all"  />
<polygon points="565,40 574,40 579,35 574,30 565,30 565,40 " class="clusterblast-orf" locus_tag="cds11588_12038" description="&lt;b&gt;cds11588_12038&lt;/b&gt;&lt;br&gt;Deoxyribodipyrimidine photolyase (EC 4.1.99.3)&lt;br&gt;Location: 11588 - 12038" style="fill:white; stroke:black; stroke-width:1; " id="dummy-1_q10_0_all"  />
</g>
<g description="BGC0002019_c1: tiancilactone (8% of genes show similarity), Terpene" class="clusterblast-cluster" label="BGC0002019"  >
<text x="5" class="clusterblast-acc" y="70"  >
<a xlink:href="https://mibig.secondarymetabolites.org/go/BGC0002019/1" target="_blank">BGC0002019</a>:                                                                    tiancilactone (8% of genes show similarity), Terpene</text>
<line style="stroke:grey; stroke-width:1; " x2="778.0" y1="85" y2="85" x1="10"  />
</g>
<g id="a1_000"  >
<polygon points="0,90 33,90 38,85 33,80 0,80 0,90 " class="clusterblast-orf" locus_tag="DAC74149.1" description="&lt;b&gt;DAC74149.1&lt;/b&gt;&lt;br&gt;pyridoxal-dependent decarboxylase&lt;br&gt;Location: 24752 - 23541" style="fill:white; stroke:black; stroke-width:1; " id="dummy-1_h1_4_0"  />
</g>
<g id="a1_001"  >
<polygon points="40,90 70,90 75,85 70,80 40,80 40,90 " class="clusterblast-orf" locus_tag="DAC74148.1" description="&lt;b&gt;DAC74148.1&lt;/b&gt;&lt;br&gt;alpha beta hydrolase&lt;br&gt;Location: 23480 - 22341" style="fill:white; stroke:black; stroke-width:1; " id="dummy-1_h1_4_1"  />
</g>
<g id="a1_002"  >
<polygon points="77,85 82,80 103,80 103,90 82,90 77,85 " class="clusterblast-orf" locus_tag="DAC74147.1" description="&lt;b&gt;DAC74147.1&lt;/b&gt;&lt;br&gt;methyltransferase&lt;br&gt;Location: 22277 - 21456" style="fill:white; stroke:black; stroke-width:1; " id="dummy-1_h1_4_2"  />
</g>
<g id="a1_003"  >
<polygon points="104,85 109,80 135,80 135,90 109,90 104,85 " class="clusterblast-orf" locus_tag="DAC74146.1" description="&lt;b&gt;DAC74146.1&lt;/b&gt;&lt;br&gt;NAD-dependent epimerase/dehydratase&lt;br&gt;Location: 21451 - 20456" style="fill:white; stroke:black; stroke-width:1; " id="dummy-1_h1_4_3"  />
</g>
<g id="a1_004"  >
<polygon points="137,85 142,80 162,80 162,90 142,90 137,85 " class="clusterblast-orf" locus_tag="DAC74145.1" description="&lt;b&gt;DAC74145.1&lt;/b&gt;&lt;br&gt;methyltransferase&lt;br&gt;Location: 20397 - 19588&lt;br&gt;&lt;br&gt;&lt;b&gt;BlastP hit with cds7970_8735&lt;/b&gt;&lt;br&gt;Percentage identity: 63&lt;br&gt;Percentage coverage: 99&lt;br&gt;BLAST bit score: 314&lt;br&gt;E-value: 2.1e-85" style="fill:#d81515; stroke:black; stroke-width:1; " id="dummy-1_h1_4_4"  />
</g>
<g id="a1_005"  >
<polygon points="166,85 171,80 192,80 192,90 171,90 166,85 " class="clusterblast-orf" locus_tag="DAC74144.1" description="&lt;b&gt;DAC74144.1&lt;/b&gt;&lt;br&gt;methyltransferase&lt;br&gt;Location: 19473 - 18649" style="fill:white; stroke:black; stroke-width:1; " id="dummy-1_h1_4_5"  />
</g>
<g id="a1_006"  >
<polygon points="196,85 201,80 232,80 232,90 201,90 196,85 " class="clusterblast-orf" locus_tag="DAC74143.1" description="&lt;b&gt;DAC74143.1&lt;/b&gt;&lt;br&gt;cytochrome P450&lt;br&gt;Location: 18527 - 17367" style="fill:white; stroke:black; stroke-width:1; " id="dummy-1_h1_4_6"  />
</g>
<g id="a1_007"  >
<polygon points="237,90 250,90 255,85 250,80 237,80 237,90 " class="clusterblast-orf" locus_tag="DAC74142.1" description="&lt;b&gt;DAC74142.1&lt;/b&gt;&lt;br&gt;TetR family regulator&lt;br&gt;Location: 17222 - 16629&lt;br&gt;&lt;br&gt;&lt;b&gt;BlastP hit with cds8870_9473&lt;/b&gt;&lt;br&gt;Percentage identity: 59&lt;br&gt;Percentage coverage: 98&lt;br&gt;BLAST bit score: 222&lt;br&gt;E-value: 8.6e-58" style="fill:#15d8d8; stroke:black; stroke-width:1; " id="dummy-1_h1_4_7"  />
</g>
<g id="a1_008"  >
<polygon points="257,85 262,80 303,80 303,90 262,90 257,85 " class="clusterblast-orf" locus_tag="DAC74150.1" description="&lt;b&gt;DAC74150.1&lt;/b&gt;&lt;br&gt;tryptophan halogenase&lt;br&gt;Location: 16581 - 15112" style="fill:white; stroke:black; stroke-width:1; " id="dummy-1_h1_4_8"  />
</g>
<g id="a1_009"  >
<polygon points="305,85 310,80 328,80 328,90 310,90 305,85 " class="clusterblast-orf" locus_tag="DAC74141.1" description="&lt;b&gt;DAC74141.1&lt;/b&gt;&lt;br&gt;tryptophan dioxygenase&lt;br&gt;Location: 15055 - 14342" style="fill:white; stroke:black; stroke-width:1; " id="dummy-1_h1_4_9"  />
</g>
<g id="a1_0010"  >
<polygon points="329,85 334,80 355,80 355,90 334,90 329,85 " class="clusterblast-orf" locus_tag="DAC74140.1" description="&lt;b&gt;DAC74140.1&lt;/b&gt;&lt;br&gt;alpha beta hydrolase&lt;br&gt;Location: 14307 - 13459" style="fill:white; stroke:black; stroke-width:1; " id="dummy-1_h1_4_10"  />
</g>
<g id="a1_0011"  >
<polygon points="356,85 361,80 393,80 393,90 361,90 356,85 " class="clusterblast-orf" locus_tag="DAC74139.1" description="&lt;b&gt;DAC74139.1&lt;/b&gt;&lt;br&gt;cytochrome P450&lt;br&gt;Location: 13426 - 12281" style="fill:white; stroke:black; stroke-width:1; " id="dummy-1_h1_4_11"  />
</g>
<g id="a1_0012"  >
<polygon points="398,85 403,80 407,80 407,90 403,90 398,85 " class="clusterblast-orf" locus_tag="DAC74138.1" description="&lt;b&gt;DAC74138.1&lt;/b&gt;&lt;br&gt;peptide carrier protein&lt;br&gt;Location: 12103 - 11828" style="fill:white; stroke:black; stroke-width:1; " id="dummy-1_h1_4_12"  />
</g>
<g id="a1_0013"  >
<polygon points="406,85 411,80 454,80 454,90 411,90 406,85 " class="clusterblast-orf" locus_tag="DAC74137.1" description="&lt;b&gt;DAC74137.1&lt;/b&gt;&lt;br&gt;AMP-dependent synthetase&lt;br&gt;Location: 11841 - 10342" style="fill:white; stroke:black; stroke-width:1; " id="dummy-1_h1_4_13"  />
</g>
<g id="a1_0014"  >
<polygon points="471,90 502,90 507,85 502,80 471,80 471,90 " class="clusterblast-orf" locus_tag="DAC74136.1" description="&lt;b&gt;DAC74136.1&lt;/b&gt;&lt;br&gt;cytochrome P450&lt;br&gt;Location: 9786 - 8644" style="fill:white; stroke:black; stroke-width:1; " id="dummy-1_h1_4_14"  />
</g>
<g id="a1_0015"  >
<polygon points="509,90 530,90 535,85 530,80 509,80 509,90 " class="clusterblast-orf" locus_tag="DAC74135.1" description="&lt;b&gt;DAC74135.1&lt;/b&gt;&lt;br&gt;fumarylacetoacetate-like hydrolase&lt;br&gt;Location: 8598 - 7747" style="fill:white; stroke:black; stroke-width:1; " id="dummy-1_h1_4_15"  />
</g>
<g id="a1_0016"  >
<polygon points="536,90 563,90 568,85 563,80 536,80 536,90 " class="clusterblast-orf" locus_tag="DAC74134.1" description="&lt;b&gt;DAC74134.1&lt;/b&gt;&lt;br&gt;GGPP synthase&lt;br&gt;Location: 7743 - 6712" style="fill:white; stroke:black; stroke-width:1; " id="dummy-1_h1_4_16"  />
</g>
<g id="a1_0017"  >
<polygon points="568,90 595,90 600,85 595,80 568,80 568,90 " class="clusterblast-orf" locus_tag="DAC74133.1" description="&lt;b&gt;DAC74133.1&lt;/b&gt;&lt;br&gt;UbiA-type prenyltransferase&lt;br&gt;Location: 6710 - 5691" style="fill:white; stroke:black; stroke-width:1; " id="dummy-1_h1_4_17"  />
</g>
<g id="a1_0018"  >
<polygon points="601,90 653,90 658,85 653,80 601,80 601,90 " class="clusterblast-orf" locus_tag="DAC74132.1" description="&lt;b&gt;DAC74132.1&lt;/b&gt;&lt;br&gt;type II diterpene synthase&lt;br&gt;Location: 5671 - 3857" style="fill:white; stroke:black; stroke-width:1; " id="dummy-1_h1_4_18"  />
</g>
<g id="a1_0019"  >
<polygon points="659,90 694,90 699,85 694,80 659,80 659,90 " class="clusterblast-orf" locus_tag="DAC74130.1" description="&lt;b&gt;DAC74130.1&lt;/b&gt;&lt;br&gt;FAD-dependent GGPP epoxidase&lt;br&gt;Location: 3830 - 2568" style="fill:white; stroke:black; stroke-width:1; " id="dummy-1_h1_4_19"  />
</g>
<g id="a1_0020"  >
<polygon points="699,90 722,90 727,85 722,80 699,80 699,90 " class="clusterblast-orf" locus_tag="DAC74131.1" description="&lt;b&gt;DAC74131.1&lt;/b&gt;&lt;br&gt;alpha-ketoglutarate-dependent dioxygenase&lt;br&gt;Location: 2542 - 1676" style="fill:white; stroke:black; stroke-width:1; " id="dummy-1_h1_4_20"  />
</g>
<g id="a1_0021"  >
<polygon points="729,85 734,80 736,80 736,90 734,90 729,85 " class="clusterblast-orf" locus_tag="DAC74129.1" description="&lt;b&gt;DAC74129.1&lt;/b&gt;&lt;br&gt;LuxR family regulator&lt;br&gt;Location: 1605 - 1387" style="fill:white; stroke:black; stroke-width:1; " id="dummy-1_h1_4_21"  />
</g>
<g id="a1_0022"  >
<polygon points="739,85 744,80 779,80 779,90 744,90 739,85 " class="clusterblast-orf" locus_tag="DAC74128.1" description="&lt;b&gt;DAC74128.1&lt;/b&gt;&lt;br&gt;Na/H exchanger&lt;br&gt;Location: 1296 - 1" style="fill:white; stroke:black; stroke-width:1; " id="dummy-1_h1_4_22"  />
</g>
</svg>
