<svg width="800" viewBox="0 0 800 230" y="0" version="1.1" xmlns:xlink="http://www.w3.org/1999/xlink" preserveAspectRatio="none" height="230" x="0" xmlns="http://www.w3.org/2000/svg"  >
<g class="clusterblast-cluster" label="Query sequence"  >
<text x="5" class="clusterblast-acc" y="20"  >
Query sequence</text>
<line style="stroke:grey; stroke-width:1; " x2="778.0" y1="35" y2="35" x1="10"  />
<polygon points="329,40 331,40 336,35 331,30 329,30 329,40 " class="clusterblast-orf" locus_tag="cds21933_22590" description="&lt;b&gt;cds21933_22590&lt;/b&gt;&lt;br&gt;putative lipoprotein&lt;br&gt;Location: 21933 - 22590" style="fill:white; stroke:black; stroke-width:1; " id="dummy-2_q0_0_all"  />
<polygon points="336,35 341,30 345,30 345,40 341,40 336,35 " class="clusterblast-orf" locus_tag="cds22624_23593" description="&lt;b&gt;cds22624_23593&lt;/b&gt;&lt;br&gt;NADPH dependent aldo-keto reductase =&gt; YajO&lt;br&gt;Location: 22624 - 23593" style="fill:white; stroke:black; stroke-width:1; " id="dummy-2_q1_0_all"  />
<polygon points="346,35 351,30 351,30 351,40 351,40 346,35 " class="clusterblast-orf" locus_tag="cds23670_24219" description="&lt;b&gt;cds23670_24219&lt;/b&gt;&lt;br&gt;Phosphopantothenoylcysteine decarboxylase (EC 4.1.1.36) homolog&lt;br&gt;Location: 23670 - 24219" style="fill:white; stroke:black; stroke-width:1; " id="dummy-2_q2_0_all"  />
<polygon points="352,35 354,30 354,40 352,35 " class="clusterblast-orf" locus_tag="cds24318_24525" description="&lt;b&gt;cds24318_24525&lt;/b&gt;&lt;br&gt;Ferredoxin&lt;br&gt;Location: 24318 - 24525" style="fill:#d81515; stroke:black; stroke-width:1; " id="dummy-2_q3_0_all"  />
<polygon points="354,35 359,30 366,30 366,40 359,40 354,35 " class="clusterblast-orf" locus_tag="cds24537_25758" description="&lt;b&gt;cds24537_25758&lt;/b&gt;&lt;br&gt;putative cytochrome P450&lt;br&gt;Location: 24537 - 25758" style="fill:#15d8d8; stroke:black; stroke-width:1; " id="dummy-2_q4_0_all"  />
<polygon points="366,40 367,35 366,30 366,40 " class="clusterblast-orf" locus_tag="cds25756_25897" description="&lt;b&gt;cds25756_25897&lt;/b&gt;&lt;br&gt;hypothetical protein&lt;br&gt;Location: 25756 - 25897" style="fill:white; stroke:black; stroke-width:1; " id="dummy-2_q5_0_all"  />
<polygon points="369,40 369,40 374,35 369,30 369,30 369,40 " class="clusterblast-orf" locus_tag="cds26113_26563" description="&lt;b&gt;cds26113_26563&lt;/b&gt;&lt;br&gt;Uncharacterized flavin-binding protein SCO0775&lt;br&gt;Location: 26113 - 26563" style="fill:white; stroke:black; stroke-width:1; " id="dummy-2_q6_0_all"  />
<polygon points="374,35 379,30 386,30 386,40 379,40 374,35 " class="clusterblast-orf" locus_tag="cds26628_27843" description="&lt;b&gt;cds26628_27843&lt;/b&gt;&lt;br&gt;Integral membrane protein&lt;br&gt;Location: 26628 - 27843" style="fill:white; stroke:black; stroke-width:1; " id="dummy-2_q7_0_all"  />
<polygon points="386,40 391,40 396,35 391,30 386,30 386,40 " class="clusterblast-orf" locus_tag="cds27909_28935" description="&lt;b&gt;cds27909_28935&lt;/b&gt;&lt;br&gt;Glutathione S-transferase, omega (EC 2.5.1.18)&lt;br&gt;Location: 27909 - 28935" style="fill:white; stroke:black; stroke-width:1; " id="dummy-2_q8_0_all"  />
<polygon points="398,40 401,35 398,30 398,40 " class="clusterblast-orf" locus_tag="cds29087_29390" description="&lt;b&gt;cds29087_29390&lt;/b&gt;&lt;br&gt;Integral membrane protein&lt;br&gt;Location: 29087 - 29390" style="fill:white; stroke:black; stroke-width:1; " id="dummy-2_q9_0_all"  />
<polygon points="401,35 405,30 405,40 401,35 " class="clusterblast-orf" locus_tag="cds29444_29840" description="&lt;b&gt;cds29444_29840&lt;/b&gt;&lt;br&gt;hypothetical protein&lt;br&gt;Location: 29444 - 29840" style="fill:white; stroke:black; stroke-width:1; " id="dummy-2_q10_0_all"  />
<polygon points="406,35 410,30 410,40 406,35 " class="clusterblast-orf" locus_tag="cds29919_30384" description="&lt;b&gt;cds29919_30384&lt;/b&gt;&lt;br&gt;hypothetical protein&lt;br&gt;Location: 29919 - 30384" style="fill:white; stroke:black; stroke-width:1; " id="dummy-2_q11_0_all"  />
<polygon points="412,40 417,40 422,35 417,30 412,30 412,40 " class="clusterblast-orf" locus_tag="cds30622_31654" description="&lt;b&gt;cds30622_31654&lt;/b&gt;&lt;br&gt;hypothetical protein&lt;br&gt;Location: 30622 - 31654" style="fill:white; stroke:black; stroke-width:1; " id="dummy-2_q12_0_all"  />
<polygon points="423,35 428,30 435,30 435,40 428,40 423,35 " class="clusterblast-orf" locus_tag="cds31762_33007" description="&lt;b&gt;cds31762_33007&lt;/b&gt;&lt;br&gt;P450 cytochrome, component of G-protein-coupled receptor (GPCR) system&lt;br&gt;Location: 31762 - 33007" style="fill:white; stroke:black; stroke-width:1; " id="dummy-2_q13_0_all"  />
<polygon points="435,35 440,30 440,30 440,40 440,40 435,35 " class="clusterblast-orf" locus_tag="cds33003_33552" description="&lt;b&gt;cds33003_33552&lt;/b&gt;&lt;br&gt;Small Ras-like GTPase, component of G-protein-coupled receptor (GPCR) system&lt;br&gt;Location: 33003 - 33552" style="fill:white; stroke:black; stroke-width:1; " id="dummy-2_q14_0_all"  />
<polygon points="441,35 444,30 444,40 441,35 " class="clusterblast-orf" locus_tag="cds33589_33961" description="&lt;b&gt;cds33589_33961&lt;/b&gt;&lt;br&gt;hypothetical protein&lt;br&gt;Location: 33589 - 33961" style="fill:white; stroke:black; stroke-width:1; " id="dummy-2_q15_0_all"  />
<polygon points="444,35 448,30 448,40 444,35 " class="clusterblast-orf" locus_tag="cds33957_34368" description="&lt;b&gt;cds33957_34368&lt;/b&gt;&lt;br&gt;hypothetical protein&lt;br&gt;Location: 33957 - 34368" style="fill:white; stroke:black; stroke-width:1; " id="dummy-2_q16_0_all"  />
<polygon points="448,35 450,30 450,40 448,35 " class="clusterblast-orf" locus_tag="cds34373_34547" description="&lt;b&gt;cds34373_34547&lt;/b&gt;&lt;br&gt;hypothetical protein&lt;br&gt;Location: 34373 - 34547" style="fill:white; stroke:black; stroke-width:1; " id="dummy-2_q17_0_all"  />
</g>
<g description="BGC0002032_c1: pentamycin (13% of genes show similarity), Polyketide" class="clusterblast-cluster" label="BGC0002032"  >
<text x="5" class="clusterblast-acc" y="70"  >
<a xlink:href="https://mibig.secondarymetabolites.org/go/BGC0002032/1" target="_blank">BGC0002032</a>:                                                                       pentamycin (13% of genes show similarity), Polyketide</text>
<line style="stroke:grey; stroke-width:1; " x2="778.0" y1="85" y2="85" x1="10"  />
</g>
<g id="a2_000"  >
<polygon points="0,85 5,80 7,80 7,90 5,90 0,85 " class="clusterblast-orf" locus_tag="DV517_01290" description="&lt;b&gt;DV517_01290&lt;/b&gt;&lt;br&gt;oleoyl-ACP hydrolase&lt;br&gt;Location: 4 - 771" style="fill:white; stroke:black; stroke-width:1; " id="dummy-2_h2_3_0"  />
</g>
<g id="a2_001"  >
<polygon points="8,85 13,80 24,80 24,90 13,90 8,85 " class="clusterblast-orf" locus_tag="DV517_01300" description="&lt;b&gt;DV517_01300&lt;/b&gt;&lt;br&gt;cholesterol oxidase&lt;br&gt;Location: 889 - 2532" style="fill:white; stroke:black; stroke-width:1; " id="dummy-2_h2_3_1"  />
</g>
<g id="a2_002"  >
<polygon points="26,85 31,80 31,80 31,90 31,90 26,85 " class="clusterblast-orf" locus_tag="DV517_01310" description="&lt;b&gt;DV517_01310&lt;/b&gt;&lt;br&gt;hypothetical protein&lt;br&gt;Location: 2735 - 3313" style="fill:white; stroke:black; stroke-width:1; " id="dummy-2_h2_3_2"  />
</g>
<g id="a2_003"  >
<polygon points="35,90 64,90 69,85 64,80 35,80 35,90 " class="clusterblast-orf" locus_tag="DV517_01320" description="&lt;b&gt;DV517_01320&lt;/b&gt;&lt;br&gt;hypothetical protein&lt;br&gt;Location: 3715 - 7281" style="fill:white; stroke:black; stroke-width:1; " id="dummy-2_h2_3_3"  />
</g>
<g id="a2_004"  >
<polygon points="69,85 72,80 72,90 69,85 " class="clusterblast-orf" locus_tag="DV517_01330" description="&lt;b&gt;DV517_01330&lt;/b&gt;&lt;br&gt;ferredoxin&lt;br&gt;Location: 7303 - 7545&lt;br&gt;&lt;br&gt;&lt;b&gt;BlastP hit with cds24318_24525&lt;/b&gt;&lt;br&gt;Percentage identity: 54&lt;br&gt;Percentage coverage: 90&lt;br&gt;BLAST bit score: 74&lt;br&gt;E-value: 5.7e-14" style="fill:#d81515; stroke:black; stroke-width:1; " id="dummy-2_h2_3_4"  />
</g>
<g id="a2_005"  >
<polygon points="72,85 77,80 83,80 83,90 77,90 72,85 " class="clusterblast-orf" locus_tag="DV517_01340" description="&lt;b&gt;DV517_01340&lt;/b&gt;&lt;br&gt;cytochrome P450&lt;br&gt;Location: 7542 - 8756&lt;br&gt;&lt;br&gt;&lt;b&gt;BlastP hit with cds24537_25758&lt;/b&gt;&lt;br&gt;Percentage identity: 55&lt;br&gt;Percentage coverage: 100&lt;br&gt;BLAST bit score: 441&lt;br&gt;E-value: 1.4e-123" style="fill:#15d8d8; stroke:black; stroke-width:1; " id="dummy-2_h2_3_5"  />
</g>
<g id="a2_006"  >
<polygon points="84,85 89,80 95,80 95,90 89,90 84,85 " class="clusterblast-orf" locus_tag="DV517_01350" description="&lt;b&gt;DV517_01350&lt;/b&gt;&lt;br&gt;cytochrome P450&lt;br&gt;Location: 8827 - 10026" style="fill:white; stroke:black; stroke-width:1; " id="dummy-2_h2_3_6"  />
</g>
<g id="a2_007"  >
<polygon points="96,85 101,80 108,80 108,90 101,90 96,85 " class="clusterblast-orf" locus_tag="DV517_01360" description="&lt;b&gt;DV517_01360&lt;/b&gt;&lt;br&gt;crotonyl-CoA carboxylase/reductase&lt;br&gt;Location: 10071 - 11327" style="fill:white; stroke:black; stroke-width:1; " id="dummy-2_h2_3_7"  />
</g>
<g id="a2_008"  >
<polygon points="108,85 113,80 204,80 204,90 113,90 108,85 " class="clusterblast-orf" locus_tag="DV517_01370" description="&lt;b&gt;DV517_01370&lt;/b&gt;&lt;br&gt;hypothetical protein&lt;br&gt;Location: 11386 - 21447" style="fill:white; stroke:black; stroke-width:1; " id="dummy-2_h2_3_8"  />
</g>
<g id="a2_009"  >
<polygon points="205,85 210,80 381,80 381,90 210,90 205,85 " class="clusterblast-orf" locus_tag="DV517_01380" description="&lt;b&gt;DV517_01380&lt;/b&gt;&lt;br&gt;hypothetical protein&lt;br&gt;Location: 21494 - 39955" style="fill:white; stroke:black; stroke-width:1; " id="dummy-2_h2_3_9"  />
</g>
<g id="a2_0010"  >
<polygon points="382,85 387,80 434,80 434,90 387,90 382,85 " class="clusterblast-orf" locus_tag="DV517_01390" description="&lt;b&gt;DV517_01390&lt;/b&gt;&lt;br&gt;hypothetical protein&lt;br&gt;Location: 39991 - 45462" style="fill:white; stroke:black; stroke-width:1; " id="dummy-2_h2_3_10"  />
</g>
<g id="a2_0011"  >
<polygon points="434,85 439,80 538,80 538,90 439,90 434,85 " class="clusterblast-orf" locus_tag="DV517_01400" description="&lt;b&gt;DV517_01400&lt;/b&gt;&lt;br&gt;polyketide synthase&lt;br&gt;Location: 45495 - 56336" style="fill:white; stroke:black; stroke-width:1; " id="dummy-2_h2_3_11"  />
</g>
<g id="a2_0012"  >
<polygon points="538,85 543,80 763,80 763,90 543,90 538,85 " class="clusterblast-orf" locus_tag="DV517_01410" description="&lt;b&gt;DV517_01410&lt;/b&gt;&lt;br&gt;hypothetical protein&lt;br&gt;Location: 56408 - 79930" style="fill:white; stroke:black; stroke-width:1; " id="dummy-2_h2_3_12"  />
</g>
<g id="a2_0013"  >
<polygon points="766,90 773,90 778,85 773,80 766,80 766,90 " class="clusterblast-orf" locus_tag="DV517_01420" description="&lt;b&gt;DV517_01420&lt;/b&gt;&lt;br&gt;cytochrome P450&lt;br&gt;Location: 80215 - 81432" style="fill:white; stroke:black; stroke-width:1; " id="dummy-2_h2_3_13"  />
</g>
<g id="a2_0014"  >
<polygon points="778,90 780,85 778,80 778,90 " class="clusterblast-orf" locus_tag="DV517_01430" description="&lt;b&gt;DV517_01430&lt;/b&gt;&lt;br&gt;ferredoxin&lt;br&gt;Location: 81444 - 81638" style="fill:white; stroke:black; stroke-width:1; " id="dummy-2_h2_3_14"  />
</g>
</svg>
