<svg width="800" viewBox="0 0 800 230" y="0" version="1.1" xmlns:xlink="http://www.w3.org/1999/xlink" preserveAspectRatio="none" height="230" x="0" xmlns="http://www.w3.org/2000/svg"  >
<g class="clusterblast-cluster" label="Query sequence"  >
<text x="5" class="clusterblast-acc" y="20"  >
Query sequence</text>
<line style="stroke:grey; stroke-width:1; " x2="778.0" y1="35" y2="35" x1="10"  />
<polygon points="0,40 2,40 7,35 2,30 0,30 0,40 " class="clusterblast-orf" locus_tag="cds34753_34954" description="&lt;b&gt;cds34753_34954&lt;/b&gt;&lt;br&gt;hypothetical protein&lt;br&gt;Location: 34753 - 34954" style="fill:white; stroke:black; stroke-width:1; " id="dummy-1_q0_0_all"  />
<polygon points="18,40 52,40 57,35 52,30 18,30 18,40 " class="clusterblast-orf" locus_tag="cds35229_36249" description="&lt;b&gt;cds35229_36249&lt;/b&gt;&lt;br&gt;hypothetical protein&lt;br&gt;Location: 35229 - 36249" style="fill:white; stroke:black; stroke-width:1; " id="dummy-1_q1_0_all"  />
<polygon points="61,40 61,40 66,35 61,30 61,30 61,40 " class="clusterblast-orf" locus_tag="cds36354_36504" description="&lt;b&gt;cds36354_36504&lt;/b&gt;&lt;br&gt;hypothetical protein&lt;br&gt;Location: 36354 - 36504" style="fill:white; stroke:black; stroke-width:1; " id="dummy-1_q2_0_all"  />
<polygon points="94,40 146,40 151,35 146,30 94,30 94,40 " class="clusterblast-orf" locus_tag="cds37225_38746" description="&lt;b&gt;cds37225_38746&lt;/b&gt;&lt;br&gt;Na(+)-linked D-alanine glycine permease&lt;br&gt;Location: 37225 - 38746" style="fill:white; stroke:black; stroke-width:1; " id="dummy-1_q3_0_all"  />
<polygon points="158,40 178,40 183,35 178,30 158,30 158,40 " class="clusterblast-orf" locus_tag="cds38933_39584" description="&lt;b&gt;cds38933_39584&lt;/b&gt;&lt;br&gt;Two-component transcriptional response regulator, LuxR family&lt;br&gt;Location: 38933 - 39584" style="fill:white; stroke:black; stroke-width:1; " id="dummy-1_q4_0_all"  />
<polygon points="182,35 187,30 252,30 252,40 187,40 182,35 " class="clusterblast-orf" locus_tag="cds39552_41418" description="&lt;b&gt;cds39552_41418&lt;/b&gt;&lt;br&gt;Heterodimeric efflux ABC transporter, permease/ATP-binding subunit 2&lt;br&gt;Location: 39552 - 41418" style="fill:#d81515; stroke:black; stroke-width:1; " id="dummy-1_q5_0_all"  />
<polygon points="252,35 257,30 322,30 322,40 257,40 252,35 " class="clusterblast-orf" locus_tag="cds41414_43250" description="&lt;b&gt;cds41414_43250&lt;/b&gt;&lt;br&gt;hypothetical protein&lt;br&gt;Location: 41414 - 43250" style="fill:#15d815; stroke:black; stroke-width:1; " id="dummy-1_q6_0_all"  />
<polygon points="328,35 332,30 332,40 328,35 " class="clusterblast-orf" locus_tag="cds43408_43522" description="&lt;b&gt;cds43408_43522&lt;/b&gt;&lt;br&gt;hypothetical protein&lt;br&gt;Location: 43408 - 43522" style="fill:white; stroke:black; stroke-width:1; " id="dummy-1_q7_0_all"  />
<polygon points="335,35 340,30 340,30 340,40 340,40 335,35 " class="clusterblast-orf" locus_tag="cds43607_43721" description="&lt;b&gt;cds43607_43721&lt;/b&gt;&lt;br&gt;hypothetical protein&lt;br&gt;Location: 43607 - 43721" style="fill:white; stroke:black; stroke-width:1; " id="dummy-1_q8_0_all"  />
<polygon points="344,35 349,30 443,30 443,40 349,40 344,35 " class="clusterblast-orf" locus_tag="cds43831_46435" description="&lt;b&gt;cds43831_46435&lt;/b&gt;&lt;br&gt;Lanthionine biosynthesis protein LanL-like protein&lt;br&gt;Location: 43831 - 46435" style="fill:#1515d8; stroke:black; stroke-width:1; " id="dummy-1_q9_0_all"  />
<polygon points="452,40 543,40 548,35 543,30 452,30 452,40 " class="clusterblast-orf" locus_tag="cds46677_49224" description="&lt;b&gt;cds46677_49224&lt;/b&gt;&lt;br&gt;hypothetical protein&lt;br&gt;Location: 46677 - 49224" style="fill:white; stroke:black; stroke-width:1; " id="dummy-1_q10_0_all"  />
<polygon points="555,35 560,30 574,30 574,40 560,40 555,35 " class="clusterblast-orf" locus_tag="cds49392_49893" description="&lt;b&gt;cds49392_49893&lt;/b&gt;&lt;br&gt;Two-component system sensor histidine kinase&lt;br&gt;Location: 49392 - 49893" style="fill:white; stroke:black; stroke-width:1; " id="dummy-1_q11_0_all"  />
<polygon points="572,35 577,30 601,30 601,40 577,40 572,35 " class="clusterblast-orf" locus_tag="cds49847_50618" description="&lt;b&gt;cds49847_50618&lt;/b&gt;&lt;br&gt;Two-component system sensor histidine kinase&lt;br&gt;Location: 49847 - 50618" style="fill:white; stroke:black; stroke-width:1; " id="dummy-1_q12_0_all"  />
<polygon points="605,35 610,30 663,30 663,40 610,40 605,35 " class="clusterblast-orf" locus_tag="cds50727_52248" description="&lt;b&gt;cds50727_52248&lt;/b&gt;&lt;br&gt;Na(+)/H(+) antiporter&lt;br&gt;Location: 50727 - 52248" style="fill:white; stroke:black; stroke-width:1; " id="dummy-1_q13_0_all"  />
<polygon points="667,35 672,30 678,30 678,40 672,40 667,35 " class="clusterblast-orf" locus_tag="cds52356_52656" description="&lt;b&gt;cds52356_52656&lt;/b&gt;&lt;br&gt;hypothetical protein&lt;br&gt;Location: 52356 - 52656" style="fill:white; stroke:black; stroke-width:1; " id="dummy-1_q14_0_all"  />
<polygon points="689,35 694,30 731,30 731,40 694,40 689,35 " class="clusterblast-orf" locus_tag="cds52928_54059" description="&lt;b&gt;cds52928_54059&lt;/b&gt;&lt;br&gt;hypothetical protein&lt;br&gt;Location: 52928 - 54059" style="fill:white; stroke:black; stroke-width:1; " id="dummy-1_q15_0_all"  />
<polygon points="737,40 751,40 756,35 751,30 737,30 737,40 " class="clusterblast-orf" locus_tag="cds54200_54698" description="&lt;b&gt;cds54200_54698&lt;/b&gt;&lt;br&gt;Putative transmembrane transport protein&lt;br&gt;Location: 54200 - 54698" style="fill:white; stroke:black; stroke-width:1; " id="dummy-1_q16_0_all"  />
<polygon points="756,40 759,40 764,35 759,30 756,30 756,40 " class="clusterblast-orf" locus_tag="cds54697_54922" description="&lt;b&gt;cds54697_54922&lt;/b&gt;&lt;br&gt;Uncharacterized transcriptional regulator YozG, Cro/CI family&lt;br&gt;Location: 54697 - 54922" style="fill:white; stroke:black; stroke-width:1; " id="dummy-1_q17_0_all"  />
<polygon points="768,40 775,40 780,35 775,30 768,30 768,40 " class="clusterblast-orf" locus_tag="cds55033_55339" description="&lt;b&gt;cds55033_55339&lt;/b&gt;&lt;br&gt;hypothetical protein&lt;br&gt;Location: 55033 - 55339" style="fill:white; stroke:black; stroke-width:1; " id="dummy-1_q18_0_all"  />
</g>
<g description="BGC0000519_c1: labyrinthopeptin A2 / labyrinthopeptin A1 / labyrinthopeptin A3 (60% of genes show similarity), RiPP:Lanthipeptide" class="clusterblast-cluster" label="BGC0000519"  >
<text x="5" class="clusterblast-acc" y="70"  >
<a xlink:href="https://mibig.secondarymetabolites.org/go/BGC0000519/1" target="_blank">BGC0000519</a>:                  labyrinthopeptin A2 / labyrinthopeptin A1 / labyrinthopeptin A3 (60% of genes show similarity), RiPP:Lanthipeptide</text>
<line style="stroke:grey; stroke-width:1; " x2="778.0" y1="85" y2="85" x1="10"  />
</g>
<g id="a1_000"  >
<polygon points="268,85 273,80 333,80 333,90 273,90 268,85 " class="clusterblast-orf" locus_tag="CAX48975.1" description="&lt;b&gt;CAX48975.1&lt;/b&gt;&lt;br&gt;ABC-transporter&lt;br&gt;Location: 6400 - 4685&lt;br&gt;&lt;br&gt;&lt;b&gt;BlastP hit with cds39552_41418&lt;/b&gt;&lt;br&gt;Percentage identity: 48&lt;br&gt;Percentage coverage: 90&lt;br&gt;BLAST bit score: 402&lt;br&gt;E-value: 1.4e-111" style="fill:#d81515; stroke:black; stroke-width:1; " id="dummy-1_h1_3_0"  />
</g>
<g id="a1_001"  >
<polygon points="333,85 338,80 398,80 398,90 338,90 333,85 " class="clusterblast-orf" locus_tag="CAX48974.1" description="&lt;b&gt;CAX48974.1&lt;/b&gt;&lt;br&gt;ABC-transporter&lt;br&gt;Location: 4688 - 2988&lt;br&gt;&lt;br&gt;&lt;b&gt;BlastP hit with cds41414_43250&lt;/b&gt;&lt;br&gt;Percentage identity: 49&lt;br&gt;Percentage coverage: 93&lt;br&gt;BLAST bit score: 408&lt;br&gt;E-value: 2e-113" style="fill:#15d815; stroke:black; stroke-width:1; " id="dummy-1_h1_3_1"  />
</g>
<g id="a1_002"  >
<polygon points="402,85 406,80 406,90 402,85 " class="clusterblast-orf" locus_tag="CAX48973.1" description="&lt;b&gt;CAX48973.1&lt;/b&gt;&lt;br&gt;labyrinthopeptin A2 prepropeptide&lt;br&gt;Location: 2877 - 2761" style="fill:white; stroke:black; stroke-width:1; " id="dummy-1_h1_3_2"  />
</g>
<g id="a1_003"  >
<polygon points="408,85 412,80 412,90 408,85 " class="clusterblast-orf" locus_tag="CAX48972.1" description="&lt;b&gt;CAX48972.1&lt;/b&gt;&lt;br&gt;labyrinthopeptin A1/A3 prepropeptide&lt;br&gt;Location: 2721 - 2599" style="fill:white; stroke:black; stroke-width:1; " id="dummy-1_h1_3_3"  />
</g>
<g id="a1_004"  >
<polygon points="413,85 418,80 511,80 511,90 418,90 413,85 " class="clusterblast-orf" locus_tag="CAX48971.1" description="&lt;b&gt;CAX48971.1&lt;/b&gt;&lt;br&gt;serine/threonine kinase&lt;br&gt;Location: 2589 - 1&lt;br&gt;&lt;br&gt;&lt;b&gt;BlastP hit with cds43831_46435&lt;/b&gt;&lt;br&gt;Percentage identity: 46&lt;br&gt;Percentage coverage: 102&lt;br&gt;BLAST bit score: 720&lt;br&gt;E-value: 4.3e-207" style="fill:#1515d8; stroke:black; stroke-width:1; " id="dummy-1_h1_3_4"  />
</g>
</svg>
