<svg width="800" viewBox="0 0 800 230" y="0" version="1.1" xmlns:xlink="http://www.w3.org/1999/xlink" preserveAspectRatio="none" height="230" x="0" xmlns="http://www.w3.org/2000/svg"  >
<g class="clusterblast-cluster" label="Query sequence"  >
<text x="5" class="clusterblast-acc" y="20"  >
Query sequence</text>
<line style="stroke:grey; stroke-width:1; " x2="778.0" y1="35" y2="35" x1="10"  />
<polygon points="355,35 360,30 381,30 381,40 360,40 355,35 " class="clusterblast-orf" locus_tag="cds1_4147" description="&lt;b&gt;cds1_4147&lt;/b&gt;&lt;br&gt;Modular polyketide synthase&lt;br&gt;Location: 1 - 4147" style="fill:#d81515; stroke:black; stroke-width:1; " id="dummy-1_q0_0_all"  />
<polygon points="382,35 387,30 387,30 387,40 387,40 382,35 " class="clusterblast-orf" locus_tag="cds4355_5099" description="&lt;b&gt;cds4355_5099&lt;/b&gt;&lt;br&gt;hypothetical protein&lt;br&gt;Location: 4355 - 5099" style="fill:#d81515; stroke:black; stroke-width:1; " id="dummy-1_q1_0_all"  />
<polygon points="393,40 414,40 419,35 414,30 393,30 393,40 " class="clusterblast-orf" locus_tag="cds6100_10123" description="&lt;b&gt;cds6100_10123&lt;/b&gt;&lt;br&gt;hypothetical protein&lt;br&gt;Location: 6100 - 10123" style="fill:white; stroke:black; stroke-width:1; " id="dummy-1_q2_0_all"  />
<polygon points="419,35 424,30 424,30 424,40 424,40 419,35 " class="clusterblast-orf" locus_tag="cds10202_11003" description="&lt;b&gt;cds10202_11003&lt;/b&gt;&lt;br&gt;Modular polyketide synthase&lt;br&gt;Location: 10202 - 11003" style="fill:#d81515; stroke:black; stroke-width:1; " id="dummy-1_q3_0_all"  />
</g>
<g description="BGC0000115_c1: nystatin A1 (27% of genes show similarity), Polyketide:Modular type I + Saccharide:Hybrid/tailoring" class="clusterblast-cluster" label="BGC0000115"  >
<text x="5" class="clusterblast-acc" y="70"  >
<a xlink:href="https://mibig.secondarymetabolites.org/go/BGC0000115/1" target="_blank">BGC0000115</a>:                                                                      nystatin A1 (27% of genes show similarity), Polyketide:Modular type I + Saccharide:Hybrid/tailoring</text>
<line style="stroke:grey; stroke-width:1; " x2="778.0" y1="85" y2="85" x1="10"  />
</g>
<g id="a1_000"  >
<polygon points="0,90 1,90 6,85 1,80 0,80 0,90 " class="clusterblast-orf" locus_tag="AAF71783.1" description="&lt;b&gt;AAF71783.1&lt;/b&gt;&lt;br&gt;ORF2&lt;br&gt;Location: 123468 - 122404" style="fill:white; stroke:black; stroke-width:1; " id="dummy-1_h1_6_0"  />
</g>
<g id="a1_001"  >
<polygon points="7,85 11,80 11,90 7,85 " class="clusterblast-orf" locus_tag="AAF71782.1" description="&lt;b&gt;AAF71782.1&lt;/b&gt;&lt;br&gt;ORF3&lt;br&gt;Location: 122350 - 121589" style="fill:white; stroke:black; stroke-width:1; " id="dummy-1_h1_6_1"  />
</g>
<g id="a1_002"  >
<polygon points="16,85 20,80 20,90 16,85 " class="clusterblast-orf" locus_tag="AAF71781.1" description="&lt;b&gt;AAF71781.1&lt;/b&gt;&lt;br&gt;ORF4&lt;br&gt;Location: 120900 - 120268" style="fill:white; stroke:black; stroke-width:1; " id="dummy-1_h1_6_2"  />
</g>
<g id="a1_003"  >
<polygon points="23,85 28,80 40,80 40,90 28,90 23,85 " class="clusterblast-orf" locus_tag="AAF71780.1" description="&lt;b&gt;AAF71780.1&lt;/b&gt;&lt;br&gt;nysRIII&lt;br&gt;Location: 119816 - 117033" style="fill:white; stroke:black; stroke-width:1; " id="dummy-1_h1_6_3"  />
</g>
<g id="a1_004"  >
<polygon points="40,85 45,80 58,80 58,90 45,90 40,85 " class="clusterblast-orf" locus_tag="AAF71779.1" description="&lt;b&gt;AAF71779.1&lt;/b&gt;&lt;br&gt;nysRII&lt;br&gt;Location: 117043 - 114182" style="fill:white; stroke:black; stroke-width:1; " id="dummy-1_h1_6_4"  />
</g>
<g id="a1_005"  >
<polygon points="58,85 63,80 77,80 77,90 63,90 58,85 " class="clusterblast-orf" locus_tag="AAF71778.1" description="&lt;b&gt;AAF71778.1&lt;/b&gt;&lt;br&gt;nysRI&lt;br&gt;Location: 114158 - 111258" style="fill:white; stroke:black; stroke-width:1; " id="dummy-1_h1_6_5"  />
</g>
<g id="a1_006"  >
<polygon points="79,85 84,80 84,80 84,90 84,90 79,85 " class="clusterblast-orf" locus_tag="AAF71777.1" description="&lt;b&gt;AAF71777.1&lt;/b&gt;&lt;br&gt;nysE&lt;br&gt;Location: 110868 - 110113" style="fill:white; stroke:black; stroke-width:1; " id="dummy-1_h1_6_6"  />
</g>
<g id="a1_007"  >
<polygon points="87,85 92,80 297,80 297,90 92,90 87,85 " class="clusterblast-orf" locus_tag="AAF71776.1" description="&lt;b&gt;AAF71776.1&lt;/b&gt;&lt;br&gt;nysC&lt;br&gt;Location: 109693 - 76403&lt;br&gt;&lt;br&gt;&lt;b&gt;BlastP hit with cds1_4147&lt;/b&gt;&lt;br&gt;Percentage identity: 58&lt;br&gt;Percentage coverage: 103&lt;br&gt;BLAST bit score: 1421&lt;br&gt;E-value: 0.0&lt;br&gt;&lt;br&gt;&lt;b&gt;BlastP hit with cds4355_5099&lt;/b&gt;&lt;br&gt;Percentage identity: 52&lt;br&gt;Percentage coverage: 54&lt;br&gt;BLAST bit score: 106&lt;br&gt;E-value: 8.5e-23" style="fill:#d81515; stroke:black; stroke-width:1; " id="dummy-1_h1_6_7"  />
</g>
<g id="a1_008"  >
<polygon points="297,85 302,80 358,80 358,90 302,90 297,85 " class="clusterblast-orf" locus_tag="AAF71775.1" description="&lt;b&gt;AAF71775.1&lt;/b&gt;&lt;br&gt;nysB&lt;br&gt;Location: 76383 - 66805&lt;br&gt;&lt;br&gt;&lt;b&gt;BlastP hit with cds1_4147&lt;/b&gt;&lt;br&gt;Percentage identity: 51&lt;br&gt;Percentage coverage: 66&lt;br&gt;BLAST bit score: 747&lt;br&gt;E-value: 4e-215" style="fill:#d81515; stroke:black; stroke-width:1; " id="dummy-1_h1_6_8"  />
</g>
<g id="a1_009"  >
<polygon points="358,85 363,80 384,80 384,90 363,90 358,85 " class="clusterblast-orf" locus_tag="AAF71774.1" description="&lt;b&gt;AAF71774.1&lt;/b&gt;&lt;br&gt;nysA&lt;br&gt;Location: 66759 - 62659&lt;br&gt;&lt;br&gt;&lt;b&gt;BlastP hit with cds1_4147&lt;/b&gt;&lt;br&gt;Percentage identity: 55&lt;br&gt;Percentage coverage: 85&lt;br&gt;BLAST bit score: 1128&lt;br&gt;E-value: 0.0" style="fill:#d81515; stroke:black; stroke-width:1; " id="dummy-1_h1_6_9"  />
</g>
<g id="a1_0010"  >
<polygon points="385,90 390,90 395,85 390,80 385,80 385,90 " class="clusterblast-orf" locus_tag="AAF71773.1" description="&lt;b&gt;AAF71773.1&lt;/b&gt;&lt;br&gt;nysDI&lt;br&gt;Location: 62429 - 60909" style="fill:white; stroke:black; stroke-width:1; " id="dummy-1_h1_6_10"  />
</g>
<g id="a1_0011"  >
<polygon points="395,90 397,90 402,85 397,80 395,80 395,90 " class="clusterblast-orf" locus_tag="AAF71772.1" description="&lt;b&gt;AAF71772.1&lt;/b&gt;&lt;br&gt;nysDII&lt;br&gt;Location: 60888 - 59830" style="fill:white; stroke:black; stroke-width:1; " id="dummy-1_h1_6_11"  />
</g>
<g id="a1_0012"  >
<polygon points="402,90 404,90 409,85 404,80 402,80 402,90 " class="clusterblast-orf" locus_tag="AAF71771.1" description="&lt;b&gt;AAF71771.1&lt;/b&gt;&lt;br&gt;nysN&lt;br&gt;Location: 59833 - 58637" style="fill:white; stroke:black; stroke-width:1; " id="dummy-1_h1_6_12"  />
</g>
<g id="a1_0013"  >
<polygon points="410,90 411,85 410,80 410,90 " class="clusterblast-orf" locus_tag="AAF71770.1" description="&lt;b&gt;AAF71770.1&lt;/b&gt;&lt;br&gt;nysM&lt;br&gt;Location: 58572 - 58378" style="fill:white; stroke:black; stroke-width:1; " id="dummy-1_h1_6_13"  />
</g>
<g id="a1_0014"  >
<polygon points="411,85 416,80 419,80 419,90 416,90 411,85 " class="clusterblast-orf" locus_tag="AAF71769.1" description="&lt;b&gt;AAF71769.1&lt;/b&gt;&lt;br&gt;nysL&lt;br&gt;Location: 58279 - 57095" style="fill:white; stroke:black; stroke-width:1; " id="dummy-1_h1_6_14"  />
</g>
<g id="a1_0015"  >
<polygon points="420,85 425,80 459,80 459,90 425,90 420,85 " class="clusterblast-orf" locus_tag="AAF71768.1" description="&lt;b&gt;AAF71768.1&lt;/b&gt;&lt;br&gt;nysK&lt;br&gt;Location: 56947 - 50747&lt;br&gt;&lt;br&gt;&lt;b&gt;BlastP hit with cds1_4147&lt;/b&gt;&lt;br&gt;Percentage identity: 53&lt;br&gt;Percentage coverage: 100&lt;br&gt;BLAST bit score: 1190&lt;br&gt;E-value: 0.0&lt;br&gt;&lt;br&gt;&lt;b&gt;BlastP hit with cds4355_5099&lt;/b&gt;&lt;br&gt;Percentage identity: 49&lt;br&gt;Percentage coverage: 53&lt;br&gt;BLAST bit score: 101&lt;br&gt;E-value: 1.6e-21" style="fill:#d81515; stroke:black; stroke-width:1; " id="dummy-1_h1_6_15"  />
</g>
<g id="a1_0016"  >
<polygon points="459,85 464,80 562,80 562,90 464,90 459,85 " class="clusterblast-orf" locus_tag="AAF71767.1" description="&lt;b&gt;AAF71767.1&lt;/b&gt;&lt;br&gt;nysJ&lt;br&gt;Location: 50691 - 34384&lt;br&gt;&lt;br&gt;&lt;b&gt;BlastP hit with cds1_4147&lt;/b&gt;&lt;br&gt;Percentage identity: 57&lt;br&gt;Percentage coverage: 103&lt;br&gt;BLAST bit score: 1365&lt;br&gt;E-value: 0.0&lt;br&gt;&lt;br&gt;&lt;b&gt;BlastP hit with cds4355_5099&lt;/b&gt;&lt;br&gt;Percentage identity: 47&lt;br&gt;Percentage coverage: 51&lt;br&gt;BLAST bit score: 97&lt;br&gt;E-value: 2.3e-20" style="fill:#d81515; stroke:black; stroke-width:1; " id="dummy-1_h1_6_16"  />
</g>
<g id="a1_0017"  >
<polygon points="563,85 568,80 742,80 742,90 568,90 563,85 " class="clusterblast-orf" locus_tag="AAF71766.1" description="&lt;b&gt;AAF71766.1&lt;/b&gt;&lt;br&gt;nysI&lt;br&gt;Location: 34363 - 5930&lt;br&gt;&lt;br&gt;&lt;b&gt;BlastP hit with cds1_4147&lt;/b&gt;&lt;br&gt;Percentage identity: 56&lt;br&gt;Percentage coverage: 104&lt;br&gt;BLAST bit score: 1357&lt;br&gt;E-value: 0.0&lt;br&gt;&lt;br&gt;&lt;b&gt;BlastP hit with cds4355_5099&lt;/b&gt;&lt;br&gt;Percentage identity: 47&lt;br&gt;Percentage coverage: 53&lt;br&gt;BLAST bit score: 101&lt;br&gt;E-value: 1.6e-21" style="fill:#d81515; stroke:black; stroke-width:1; " id="dummy-1_h1_6_17"  />
</g>
<g id="a1_0018"  >
<polygon points="743,85 748,80 750,80 750,90 748,90 743,85 " class="clusterblast-orf" locus_tag="AAF71765.1" description="&lt;b&gt;AAF71765.1&lt;/b&gt;&lt;br&gt;nysDIII&lt;br&gt;Location: 5748 - 4714" style="fill:white; stroke:black; stroke-width:1; " id="dummy-1_h1_6_18"  />
</g>
<g id="a1_0019"  >
<polygon points="752,90 758,90 763,85 758,80 752,80 752,90 " class="clusterblast-orf" locus_tag="AAF71764.1" description="&lt;b&gt;AAF71764.1&lt;/b&gt;&lt;br&gt;nysH&lt;br&gt;Location: 4416 - 2662" style="fill:white; stroke:black; stroke-width:1; " id="dummy-1_h1_6_19"  />
</g>
<g id="a1_0020"  >
<polygon points="763,90 769,90 774,85 769,80 763,80 763,90 " class="clusterblast-orf" locus_tag="AAF71763.1" description="&lt;b&gt;AAF71763.1&lt;/b&gt;&lt;br&gt;nysG&lt;br&gt;Location: 2684 - 867" style="fill:white; stroke:black; stroke-width:1; " id="dummy-1_h1_6_20"  />
</g>
<g id="a1_0021"  >
<polygon points="775,90 775,90 780,85 775,80 775,80 775,90 " class="clusterblast-orf" locus_tag="AAF71762.1" description="&lt;b&gt;AAF71762.1&lt;/b&gt;&lt;br&gt;nysF&lt;br&gt;Location: 783 - 46" style="fill:white; stroke:black; stroke-width:1; " id="dummy-1_h1_6_21"  />
</g>
</svg>
