<svg width="800" viewBox="0 0 800 230" y="0" version="1.1" xmlns:xlink="http://www.w3.org/1999/xlink" preserveAspectRatio="none" height="230" x="0" xmlns="http://www.w3.org/2000/svg"  >
<g class="clusterblast-cluster" label="Query sequence"  >
<text x="5" class="clusterblast-acc" y="20"  >
Query sequence</text>
<line style="stroke:grey; stroke-width:1; " x2="778.0" y1="35" y2="35" x1="10"  />
<polygon points="344,40 344,40 349,35 344,30 344,30 344,40 " class="clusterblast-orf" locus_tag="cds21933_22590" description="&lt;b&gt;cds21933_22590&lt;/b&gt;&lt;br&gt;putative lipoprotein&lt;br&gt;Location: 21933 - 22590" style="fill:white; stroke:black; stroke-width:1; " id="dummy-2_q0_0_all"  />
<polygon points="349,35 354,30 356,30 356,40 354,40 349,35 " class="clusterblast-orf" locus_tag="cds22624_23593" description="&lt;b&gt;cds22624_23593&lt;/b&gt;&lt;br&gt;NADPH dependent aldo-keto reductase =&gt; YajO&lt;br&gt;Location: 22624 - 23593" style="fill:white; stroke:black; stroke-width:1; " id="dummy-2_q1_0_all"  />
<polygon points="357,35 361,30 361,40 357,35 " class="clusterblast-orf" locus_tag="cds23670_24219" description="&lt;b&gt;cds23670_24219&lt;/b&gt;&lt;br&gt;Phosphopantothenoylcysteine decarboxylase (EC 4.1.1.36) homolog&lt;br&gt;Location: 23670 - 24219" style="fill:white; stroke:black; stroke-width:1; " id="dummy-2_q2_0_all"  />
<polygon points="361,35 363,30 363,40 361,35 " class="clusterblast-orf" locus_tag="cds24318_24525" description="&lt;b&gt;cds24318_24525&lt;/b&gt;&lt;br&gt;Ferredoxin&lt;br&gt;Location: 24318 - 24525" style="fill:#d81515; stroke:black; stroke-width:1; " id="dummy-2_q3_0_all"  />
<polygon points="363,35 368,30 372,30 372,40 368,40 363,35 " class="clusterblast-orf" locus_tag="cds24537_25758" description="&lt;b&gt;cds24537_25758&lt;/b&gt;&lt;br&gt;putative cytochrome P450&lt;br&gt;Location: 24537 - 25758" style="fill:#15d8d8; stroke:black; stroke-width:1; " id="dummy-2_q4_0_all"  />
<polygon points="372,40 373,35 372,30 372,40 " class="clusterblast-orf" locus_tag="cds25756_25897" description="&lt;b&gt;cds25756_25897&lt;/b&gt;&lt;br&gt;hypothetical protein&lt;br&gt;Location: 25756 - 25897" style="fill:white; stroke:black; stroke-width:1; " id="dummy-2_q5_0_all"  />
<polygon points="374,40 377,35 374,30 374,40 " class="clusterblast-orf" locus_tag="cds26113_26563" description="&lt;b&gt;cds26113_26563&lt;/b&gt;&lt;br&gt;Uncharacterized flavin-binding protein SCO0775&lt;br&gt;Location: 26113 - 26563" style="fill:white; stroke:black; stroke-width:1; " id="dummy-2_q6_0_all"  />
<polygon points="378,35 383,30 387,30 387,40 383,40 378,35 " class="clusterblast-orf" locus_tag="cds26628_27843" description="&lt;b&gt;cds26628_27843&lt;/b&gt;&lt;br&gt;Integral membrane protein&lt;br&gt;Location: 26628 - 27843" style="fill:white; stroke:black; stroke-width:1; " id="dummy-2_q7_0_all"  />
<polygon points="387,40 390,40 395,35 390,30 387,30 387,40 " class="clusterblast-orf" locus_tag="cds27909_28935" description="&lt;b&gt;cds27909_28935&lt;/b&gt;&lt;br&gt;Glutathione S-transferase, omega (EC 2.5.1.18)&lt;br&gt;Location: 27909 - 28935" style="fill:white; stroke:black; stroke-width:1; " id="dummy-2_q8_0_all"  />
<polygon points="396,40 398,35 396,30 396,40 " class="clusterblast-orf" locus_tag="cds29087_29390" description="&lt;b&gt;cds29087_29390&lt;/b&gt;&lt;br&gt;Integral membrane protein&lt;br&gt;Location: 29087 - 29390" style="fill:white; stroke:black; stroke-width:1; " id="dummy-2_q9_0_all"  />
<polygon points="398,35 401,30 401,40 398,35 " class="clusterblast-orf" locus_tag="cds29444_29840" description="&lt;b&gt;cds29444_29840&lt;/b&gt;&lt;br&gt;hypothetical protein&lt;br&gt;Location: 29444 - 29840" style="fill:white; stroke:black; stroke-width:1; " id="dummy-2_q10_0_all"  />
<polygon points="402,35 405,30 405,40 402,35 " class="clusterblast-orf" locus_tag="cds29919_30384" description="&lt;b&gt;cds29919_30384&lt;/b&gt;&lt;br&gt;hypothetical protein&lt;br&gt;Location: 29919 - 30384" style="fill:white; stroke:black; stroke-width:1; " id="dummy-2_q11_0_all"  />
<polygon points="407,40 409,40 414,35 409,30 407,30 407,40 " class="clusterblast-orf" locus_tag="cds30622_31654" description="&lt;b&gt;cds30622_31654&lt;/b&gt;&lt;br&gt;hypothetical protein&lt;br&gt;Location: 30622 - 31654" style="fill:white; stroke:black; stroke-width:1; " id="dummy-2_q12_0_all"  />
<polygon points="415,35 420,30 424,30 424,40 420,40 415,35 " class="clusterblast-orf" locus_tag="cds31762_33007" description="&lt;b&gt;cds31762_33007&lt;/b&gt;&lt;br&gt;P450 cytochrome, component of G-protein-coupled receptor (GPCR) system&lt;br&gt;Location: 31762 - 33007" style="fill:white; stroke:black; stroke-width:1; " id="dummy-2_q13_0_all"  />
<polygon points="424,35 428,30 428,40 424,35 " class="clusterblast-orf" locus_tag="cds33003_33552" description="&lt;b&gt;cds33003_33552&lt;/b&gt;&lt;br&gt;Small Ras-like GTPase, component of G-protein-coupled receptor (GPCR) system&lt;br&gt;Location: 33003 - 33552" style="fill:white; stroke:black; stroke-width:1; " id="dummy-2_q14_0_all"  />
<polygon points="428,35 431,30 431,40 428,35 " class="clusterblast-orf" locus_tag="cds33589_33961" description="&lt;b&gt;cds33589_33961&lt;/b&gt;&lt;br&gt;hypothetical protein&lt;br&gt;Location: 33589 - 33961" style="fill:white; stroke:black; stroke-width:1; " id="dummy-2_q15_0_all"  />
<polygon points="431,35 434,30 434,40 431,35 " class="clusterblast-orf" locus_tag="cds33957_34368" description="&lt;b&gt;cds33957_34368&lt;/b&gt;&lt;br&gt;hypothetical protein&lt;br&gt;Location: 33957 - 34368" style="fill:white; stroke:black; stroke-width:1; " id="dummy-2_q16_0_all"  />
<polygon points="434,35 435,30 435,40 434,35 " class="clusterblast-orf" locus_tag="cds34373_34547" description="&lt;b&gt;cds34373_34547&lt;/b&gt;&lt;br&gt;hypothetical protein&lt;br&gt;Location: 34373 - 34547" style="fill:white; stroke:black; stroke-width:1; " id="dummy-2_q17_0_all"  />
</g>
<g description="BGC0001204_c1: versipelostatin (5% of genes show similarity), Polyketide" class="clusterblast-cluster" label="BGC0001204"  >
<text x="5" class="clusterblast-acc" y="70"  >
<a xlink:href="https://mibig.secondarymetabolites.org/go/BGC0001204/1" target="_blank">BGC0001204</a>:                                                                  versipelostatin (5% of genes show similarity), Polyketide</text>
<line style="stroke:grey; stroke-width:1; " x2="778.0" y1="85" y2="85" x1="10"  />
</g>
<g id="a2_000"  >
<polygon points="0,85 3,80 3,90 0,85 " class="clusterblast-orf" locus_tag="BAQ21966.1" description="&lt;b&gt;BAQ21966.1&lt;/b&gt;&lt;br&gt;putative regulator&lt;br&gt;Location: 108225 - 107740" style="fill:white; stroke:black; stroke-width:1; " id="dummy-2_h2_1_0"  />
</g>
<g id="a2_001"  >
<polygon points="3,85 8,80 10,80 10,90 8,90 3,85 " class="clusterblast-orf" locus_tag="BAQ21965.1" description="&lt;b&gt;BAQ21965.1&lt;/b&gt;&lt;br&gt;putative TDP-sugar 4,6-dehydratase&lt;br&gt;Location: 107703 - 106717" style="fill:white; stroke:black; stroke-width:1; " id="dummy-2_h2_1_1"  />
</g>
<g id="a2_002"  >
<polygon points="10,85 15,80 18,80 18,90 15,90 10,85 " class="clusterblast-orf" locus_tag="BAQ21964.1" description="&lt;b&gt;BAQ21964.1&lt;/b&gt;&lt;br&gt;putative glucose-1-phosphate thymidylyltransferase&lt;br&gt;Location: 106720 - 105653" style="fill:white; stroke:black; stroke-width:1; " id="dummy-2_h2_1_2"  />
</g>
<g id="a2_003"  >
<polygon points="18,85 20,80 20,90 18,85 " class="clusterblast-orf" locus_tag="BAQ21963.1" description="&lt;b&gt;BAQ21963.1&lt;/b&gt;&lt;br&gt;hypothetical protein&lt;br&gt;Location: 105631 - 105371" style="fill:white; stroke:black; stroke-width:1; " id="dummy-2_h2_1_3"  />
</g>
<g id="a2_004"  >
<polygon points="25,90 33,90 38,85 33,80 25,80 25,90 " class="clusterblast-orf" locus_tag="BAQ21962.1" description="&lt;b&gt;BAQ21962.1&lt;/b&gt;&lt;br&gt;putative dehydrogenase&lt;br&gt;Location: 104649 - 102880" style="fill:white; stroke:black; stroke-width:1; " id="dummy-2_h2_1_4"  />
</g>
<g id="a2_005"  >
<polygon points="39,90 42,85 39,80 39,90 " class="clusterblast-orf" locus_tag="BAQ21961.1" description="&lt;b&gt;BAQ21961.1&lt;/b&gt;&lt;br&gt;hypothetical protein&lt;br&gt;Location: 102791 - 102297" style="fill:white; stroke:black; stroke-width:1; " id="dummy-2_h2_1_5"  />
</g>
<g id="a2_006"  >
<polygon points="44,90 58,90 63,85 58,80 44,80 44,90 " class="clusterblast-orf" locus_tag="BAQ21960.1" description="&lt;b&gt;BAQ21960.1&lt;/b&gt;&lt;br&gt;putative transcriptional regulator&lt;br&gt;Location: 102055 - 99365" style="fill:white; stroke:black; stroke-width:1; " id="dummy-2_h2_1_6"  />
</g>
<g id="a2_007"  >
<polygon points="66,90 67,85 66,80 66,90 " class="clusterblast-orf" locus_tag="BAQ21959.1" description="&lt;b&gt;BAQ21959.1&lt;/b&gt;&lt;br&gt;hypothetical protein&lt;br&gt;Location: 99046 - 98792" style="fill:white; stroke:black; stroke-width:1; " id="dummy-2_h2_1_7"  />
</g>
<g id="a2_008"  >
<polygon points="68,90 68,90 73,85 68,80 68,80 68,90 " class="clusterblast-orf" locus_tag="BAQ21958.1" description="&lt;b&gt;BAQ21958.1&lt;/b&gt;&lt;br&gt;putative type II thioesterase&lt;br&gt;Location: 98690 - 97962" style="fill:white; stroke:black; stroke-width:1; " id="dummy-2_h2_1_8"  />
</g>
<g id="a2_009"  >
<polygon points="73,90 74,90 79,85 74,80 73,80 73,90 " class="clusterblast-orf" locus_tag="BAQ21957.1" description="&lt;b&gt;BAQ21957.1&lt;/b&gt;&lt;br&gt;putative SARP family regulator&lt;br&gt;Location: 97984 - 97202" style="fill:white; stroke:black; stroke-width:1; " id="dummy-2_h2_1_9"  />
</g>
<g id="a2_0010"  >
<polygon points="79,90 84,90 89,85 84,80 79,80 79,90 " class="clusterblast-orf" locus_tag="BAQ21956.1" description="&lt;b&gt;BAQ21956.1&lt;/b&gt;&lt;br&gt;putative crotonyl-CoA reductase&lt;br&gt;Location: 97176 - 95800" style="fill:white; stroke:black; stroke-width:1; " id="dummy-2_h2_1_10"  />
</g>
<g id="a2_0011"  >
<polygon points="89,90 98,90 103,85 98,80 89,80 89,90 " class="clusterblast-orf" locus_tag="BAQ21955.1" description="&lt;b&gt;BAQ21955.1&lt;/b&gt;&lt;br&gt;putative FKbH-like protein&lt;br&gt;Location: 95798 - 93906" style="fill:white; stroke:black; stroke-width:1; " id="dummy-2_h2_1_11"  />
</g>
<g id="a2_0012"  >
<polygon points="103,90 104,85 103,80 103,90 " class="clusterblast-orf" locus_tag="BAQ21954.1" description="&lt;b&gt;BAQ21954.1&lt;/b&gt;&lt;br&gt;putative acyl carrier protein&lt;br&gt;Location: 93909 - 93682" style="fill:white; stroke:black; stroke-width:1; " id="dummy-2_h2_1_12"  />
</g>
<g id="a2_0013"  >
<polygon points="104,90 105,90 110,85 105,80 104,80 104,90 " class="clusterblast-orf" locus_tag="BAQ21953.1" description="&lt;b&gt;BAQ21953.1&lt;/b&gt;&lt;br&gt;putative acyltransferase&lt;br&gt;Location: 93685 - 92855" style="fill:white; stroke:black; stroke-width:1; " id="dummy-2_h2_1_13"  />
</g>
<g id="a2_0014"  >
<polygon points="110,90 113,90 118,85 113,80 110,80 110,90 " class="clusterblast-orf" locus_tag="BAQ21952.1" description="&lt;b&gt;BAQ21952.1&lt;/b&gt;&lt;br&gt;putative dehydratase&lt;br&gt;Location: 92858 - 91770" style="fill:white; stroke:black; stroke-width:1; " id="dummy-2_h2_1_14"  />
</g>
<g id="a2_0015"  >
<polygon points="119,90 121,90 126,85 121,80 119,80 119,90 " class="clusterblast-orf" locus_tag="BAQ21951.1" description="&lt;b&gt;BAQ21951.1&lt;/b&gt;&lt;br&gt;putative 3-oxoacyl-ACP synthase III&lt;br&gt;Location: 91711 - 90680" style="fill:white; stroke:black; stroke-width:1; " id="dummy-2_h2_1_15"  />
</g>
<g id="a2_0016"  >
<polygon points="126,90 130,90 135,85 130,80 126,80 126,90 " class="clusterblast-orf" locus_tag="BAQ21950.1" description="&lt;b&gt;BAQ21950.1&lt;/b&gt;&lt;br&gt;putative sugar O-methyltransferase&lt;br&gt;Location: 90610 - 89474" style="fill:white; stroke:black; stroke-width:1; " id="dummy-2_h2_1_16"  />
</g>
<g id="a2_0017"  >
<polygon points="135,85 140,80 146,80 146,90 140,90 135,85 " class="clusterblast-orf" locus_tag="BAQ21949.1" description="&lt;b&gt;BAQ21949.1&lt;/b&gt;&lt;br&gt;putative FAD-dependent oxidoreductase&lt;br&gt;Location: 89398 - 87854" style="fill:white; stroke:black; stroke-width:1; " id="dummy-2_h2_1_17"  />
</g>
<g id="a2_0018"  >
<polygon points="146,85 151,80 180,80 180,90 151,90 146,85 " class="clusterblast-orf" locus_tag="BAQ21948.1" description="&lt;b&gt;BAQ21948.1&lt;/b&gt;&lt;br&gt;putative type I polyketide synthase&lt;br&gt;Location: 87861 - 83146" style="fill:white; stroke:black; stroke-width:1; " id="dummy-2_h2_1_18"  />
</g>
<g id="a2_0019"  >
<polygon points="180,85 185,80 259,80 259,90 185,90 180,85 " class="clusterblast-orf" locus_tag="BAQ21947.1" description="&lt;b&gt;BAQ21947.1&lt;/b&gt;&lt;br&gt;putative type I polyketide synthase&lt;br&gt;Location: 83139 - 72286" style="fill:white; stroke:black; stroke-width:1; " id="dummy-2_h2_1_19"  />
</g>
<g id="a2_0020"  >
<polygon points="259,85 264,80 336,80 336,90 264,90 259,85 " class="clusterblast-orf" locus_tag="BAQ21946.1" description="&lt;b&gt;BAQ21946.1&lt;/b&gt;&lt;br&gt;putative type I polyketide synthase&lt;br&gt;Location: 72248 - 61479" style="fill:white; stroke:black; stroke-width:1; " id="dummy-2_h2_1_20"  />
</g>
<g id="a2_0021"  >
<polygon points="337,85 341,80 341,90 337,85 " class="clusterblast-orf" locus_tag="BAQ21945.1" description="&lt;b&gt;BAQ21945.1&lt;/b&gt;&lt;br&gt;[4+2]-cycloaddition catalyzing enzyme&lt;br&gt;Location: 61330 - 60902" style="fill:white; stroke:black; stroke-width:1; " id="dummy-2_h2_1_21"  />
</g>
<g id="a2_0022"  >
<polygon points="342,90 348,90 353,85 348,80 342,80 342,90 " class="clusterblast-orf" locus_tag="BAQ21944.1" description="&lt;b&gt;BAQ21944.1&lt;/b&gt;&lt;br&gt;putative TDP-sugar 2,3-dehydratase&lt;br&gt;Location: 60722 - 59172" style="fill:white; stroke:black; stroke-width:1; " id="dummy-2_h2_1_22"  />
</g>
<g id="a2_0023"  >
<polygon points="353,90 354,90 359,85 354,80 353,80 353,90 " class="clusterblast-orf" locus_tag="BAQ21943.1" description="&lt;b&gt;BAQ21943.1&lt;/b&gt;&lt;br&gt;putative NDP-sugar 4-ketoreductase&lt;br&gt;Location: 59135 - 58386" style="fill:white; stroke:black; stroke-width:1; " id="dummy-2_h2_1_23"  />
</g>
<g id="a2_0024"  >
<polygon points="360,90 362,90 367,85 362,80 360,80 360,90 " class="clusterblast-orf" locus_tag="BAQ21942.1" description="&lt;b&gt;BAQ21942.1&lt;/b&gt;&lt;br&gt;putative TDP-sugar 2,3-reductase&lt;br&gt;Location: 58230 - 57235" style="fill:white; stroke:black; stroke-width:1; " id="dummy-2_h2_1_24"  />
</g>
<g id="a2_0025"  >
<polygon points="368,90 371,90 376,85 371,80 368,80 368,90 " class="clusterblast-orf" locus_tag="BAQ21941.1" description="&lt;b&gt;BAQ21941.1&lt;/b&gt;&lt;br&gt;putative Glycosyl transferase&lt;br&gt;Location: 57139 - 55928" style="fill:white; stroke:black; stroke-width:1; " id="dummy-2_h2_1_25"  />
</g>
<g id="a2_0026"  >
<polygon points="378,85 383,80 541,80 541,90 383,90 378,85 " class="clusterblast-orf" locus_tag="BAQ21940.1" description="&lt;b&gt;BAQ21940.1&lt;/b&gt;&lt;br&gt;putative Type I polyketide synthase&lt;br&gt;Location: 55669 - 33080" style="fill:white; stroke:black; stroke-width:1; " id="dummy-2_h2_1_26"  />
</g>
<g id="a2_0027"  >
<polygon points="541,85 546,80 733,80 733,90 546,90 541,85 " class="clusterblast-orf" locus_tag="BAQ21939.1" description="&lt;b&gt;BAQ21939.1&lt;/b&gt;&lt;br&gt;putative type I polyketide synthase&lt;br&gt;Location: 33078 - 6397" style="fill:white; stroke:black; stroke-width:1; " id="dummy-2_h2_1_27"  />
</g>
<g id="a2_0028"  >
<polygon points="736,90 740,90 745,85 740,80 736,80 736,90 " class="clusterblast-orf" locus_tag="BAQ21938.1" description="&lt;b&gt;BAQ21938.1&lt;/b&gt;&lt;br&gt;putative glycosyltransferase&lt;br&gt;Location: 6043 - 4784" style="fill:white; stroke:black; stroke-width:1; " id="dummy-2_h2_1_28"  />
</g>
<g id="a2_0029"  >
<polygon points="746,85 749,80 749,90 746,85 " class="clusterblast-orf" locus_tag="BAQ21937.1" description="&lt;b&gt;BAQ21937.1&lt;/b&gt;&lt;br&gt;hypothetical protein&lt;br&gt;Location: 4686 - 4246" style="fill:white; stroke:black; stroke-width:1; " id="dummy-2_h2_1_29"  />
</g>
<g id="a2_0030"  >
<polygon points="750,90 753,90 758,85 753,80 750,80 750,90 " class="clusterblast-orf" locus_tag="BAQ21936.1" description="&lt;b&gt;BAQ21936.1&lt;/b&gt;&lt;br&gt;putative 3-oxoacyl-(acyl carrier protein) synthase III&lt;br&gt;Location: 4054 - 3005" style="fill:white; stroke:black; stroke-width:1; " id="dummy-2_h2_1_30"  />
</g>
<g id="a2_0031"  >
<polygon points="758,90 762,85 758,80 758,90 " class="clusterblast-orf" locus_tag="BAQ21935.1" description="&lt;b&gt;BAQ21935.1&lt;/b&gt;&lt;br&gt;putative TDP-sugar 3,5-epimerase&lt;br&gt;Location: 2995 - 2408" style="fill:white; stroke:black; stroke-width:1; " id="dummy-2_h2_1_31"  />
</g>
<g id="a2_0032"  >
<polygon points="762,85 767,80 769,80 769,90 767,90 762,85 " class="clusterblast-orf" locus_tag="BAQ21934.1" description="&lt;b&gt;BAQ21934.1&lt;/b&gt;&lt;br&gt;putative TDP-sugar reductase&lt;br&gt;Location: 2377 - 1511" style="fill:white; stroke:black; stroke-width:1; " id="dummy-2_h2_1_32"  />
</g>
<g id="a2_0033"  >
<polygon points="769,85 771,80 771,90 769,85 " class="clusterblast-orf" locus_tag="BAQ21933.1" description="&lt;b&gt;BAQ21933.1&lt;/b&gt;&lt;br&gt;putative ferredoxin&lt;br&gt;Location: 1478 - 1215&lt;br&gt;&lt;br&gt;&lt;b&gt;BlastP hit with cds24318_24525&lt;/b&gt;&lt;br&gt;Percentage identity: 55&lt;br&gt;Percentage coverage: 99&lt;br&gt;BLAST bit score: 74&lt;br&gt;E-value: 7.5e-14" style="fill:#d81515; stroke:black; stroke-width:1; " id="dummy-2_h2_1_33"  />
</g>
<g id="a2_0034"  >
<polygon points="771,85 776,80 780,80 780,90 776,90 771,85 " class="clusterblast-orf" locus_tag="BAQ21932.1" description="&lt;b&gt;BAQ21932.1&lt;/b&gt;&lt;br&gt;putative cytochrome P450 hydroxylase&lt;br&gt;Location: 1218 - 1&lt;br&gt;&lt;br&gt;&lt;b&gt;BlastP hit with cds24537_25758&lt;/b&gt;&lt;br&gt;Percentage identity: 68&lt;br&gt;Percentage coverage: 98&lt;br&gt;BLAST bit score: 562&lt;br&gt;E-value: 7.1e-160" style="fill:#15d8d8; stroke:black; stroke-width:1; " id="dummy-2_h2_1_34"  />
</g>
</svg>
