<svg width="800" viewBox="0 0 800 230" y="0" version="1.1" xmlns:xlink="http://www.w3.org/1999/xlink" preserveAspectRatio="none" height="230" x="0" xmlns="http://www.w3.org/2000/svg"  >
<g class="clusterblast-cluster" label="Query sequence"  >
<text x="5" class="clusterblast-acc" y="20"  >
Query sequence</text>
<line style="stroke:grey; stroke-width:1; " x2="778.0" y1="35" y2="35" x1="10"  />
<polygon points="216,40 299,40 304,35 299,30 216,30 216,40 " class="clusterblast-orf" locus_tag="cds2_7991" description="&lt;b&gt;cds2_7991&lt;/b&gt;&lt;br&gt;Siderophore biosynthesis non-ribosomal peptide synthetase modules&lt;br&gt;Location: 2 - 7991" style="fill:#d81515; stroke:black; stroke-width:1; " id="dummy-1_q0_0_all"  />
<polygon points="303,40 330,40 335,35 330,30 303,30 303,40 " class="clusterblast-orf" locus_tag="cds7975_10804" description="&lt;b&gt;cds7975_10804&lt;/b&gt;&lt;br&gt;Siderophore biosynthesis non-ribosomal peptide synthetase modules&lt;br&gt;Location: 7975 - 10804" style="fill:#d81515; stroke:black; stroke-width:1; " id="dummy-1_q1_0_all"  />
<polygon points="335,40 378,40 383,35 378,30 335,30 335,40 " class="clusterblast-orf" locus_tag="cds10800_15198" description="&lt;b&gt;cds10800_15198&lt;/b&gt;&lt;br&gt;Siderophore biosynthesis non-ribosomal peptide synthetase modules&lt;br&gt;Location: 10800 - 15198" style="fill:#d81515; stroke:black; stroke-width:1; " id="dummy-1_q2_0_all"  />
<polygon points="383,40 387,40 392,35 387,30 383,30 383,40 " class="clusterblast-orf" locus_tag="cds15202_16021" description="&lt;b&gt;cds15202_16021&lt;/b&gt;&lt;br&gt;Putative hydrolase&lt;br&gt;Location: 15202 - 16021" style="fill:#5cd815; stroke:black; stroke-width:1; " id="dummy-1_q3_0_all"  />
<polygon points="392,40 397,40 402,35 397,30 392,30 392,40 " class="clusterblast-orf" locus_tag="cds16032_16926" description="&lt;b&gt;cds16032_16926&lt;/b&gt;&lt;br&gt;putative phosphotransferase&lt;br&gt;Location: 16032 - 16926" style="fill:#15a3d8; stroke:black; stroke-width:1; " id="dummy-1_q4_0_all"  />
<polygon points="403,35 408,30 423,30 423,40 408,40 403,35 " class="clusterblast-orf" locus_tag="cds16993_18844" description="&lt;b&gt;cds16993_18844&lt;/b&gt;&lt;br&gt;Efflux ABC transporter, permease/ATP-binding protein SCO3235&lt;br&gt;Location: 16993 - 18844" style="fill:#c715d8; stroke:black; stroke-width:1; " id="dummy-1_q5_0_all"  />
<polygon points="424,35 429,30 435,30 435,40 429,40 424,35 " class="clusterblast-orf" locus_tag="cds18883_19885" description="&lt;b&gt;cds18883_19885&lt;/b&gt;&lt;br&gt;putative oxygenase&lt;br&gt;Location: 18883 - 19885" style="fill:#d88015; stroke:black; stroke-width:1; " id="dummy-1_q6_0_all"  />
<polygon points="437,35 442,30 445,30 445,40 442,40 437,35 " class="clusterblast-orf" locus_tag="cds20067_20871" description="&lt;b&gt;cds20067_20871&lt;/b&gt;&lt;br&gt;putative secreted protein&lt;br&gt;Location: 20067 - 20871" style="fill:#15d839; stroke:black; stroke-width:1; " id="dummy-1_q7_0_all"  />
<polygon points="446,35 451,30 459,30 459,40 451,40 446,35 " class="clusterblast-orf" locus_tag="cds20924_22142" description="&lt;b&gt;cds20924_22142&lt;/b&gt;&lt;br&gt;Uncharacterized oxidoreductase&lt;br&gt;Location: 20924 - 22142" style="fill:#1539d8; stroke:black; stroke-width:1; " id="dummy-1_q8_0_all"  />
<polygon points="460,35 464,30 464,40 460,35 " class="clusterblast-orf" locus_tag="cds22172_22541" description="&lt;b&gt;cds22172_22541&lt;/b&gt;&lt;br&gt;3-oxoacyl-[acyl-carrier-protein] synthase, KASIII (EC 2.3.1.180)&lt;br&gt;Location: 22172 - 22541" style="fill:#d81580; stroke:black; stroke-width:1; " id="dummy-1_q9_0_all"  />
<polygon points="464,35 469,30 471,30 471,40 469,40 464,35 " class="clusterblast-orf" locus_tag="cds22573_23158" description="&lt;b&gt;cds22573_23158&lt;/b&gt;&lt;br&gt;3-oxoacyl-[acyl-carrier-protein] synthase, KASIII (EC 2.3.1.180)&lt;br&gt;Location: 22573 - 23158" style="fill:#d81580; stroke:black; stroke-width:1; " id="dummy-1_q10_0_all"  />
<polygon points="471,35 476,30 490,30 490,40 476,40 471,35 " class="clusterblast-orf" locus_tag="cds23154_24882" description="&lt;b&gt;cds23154_24882&lt;/b&gt;&lt;br&gt;hypothetical protein&lt;br&gt;Location: 23154 - 24882" style="fill:#c7d815; stroke:black; stroke-width:1; " id="dummy-1_q11_0_all"  />
<polygon points="491,35 496,30 504,30 504,40 496,40 491,35 " class="clusterblast-orf" locus_tag="cds24996_26217" description="&lt;b&gt;cds24996_26217&lt;/b&gt;&lt;br&gt;3-oxoacyl-[acyl-carrier-protein] synthase, KASII (EC 2.3.1.179)&lt;br&gt;Location: 24996 - 26217" style="fill:#15d8a3; stroke:black; stroke-width:1; " id="dummy-1_q12_0_all"  />
<polygon points="504,35 507,30 507,40 504,35 " class="clusterblast-orf" locus_tag="cds26213_26459" description="&lt;b&gt;cds26213_26459&lt;/b&gt;&lt;br&gt;hypothetical protein&lt;br&gt;Location: 26213 - 26459" style="fill:#5c15d8; stroke:black; stroke-width:1; " id="dummy-1_q13_0_all"  />
<polygon points="507,40 509,35 507,30 507,40 " class="clusterblast-orf" locus_tag="cds26457_26613" description="&lt;b&gt;cds26457_26613&lt;/b&gt;&lt;br&gt;hypothetical protein&lt;br&gt;Location: 26457 - 26613" style="fill:white; stroke:black; stroke-width:1; " id="dummy-1_q14_0_all"  />
<polygon points="509,35 514,30 517,30 517,40 514,40 509,35 " class="clusterblast-orf" locus_tag="cds26677_27349" description="&lt;b&gt;cds26677_27349&lt;/b&gt;&lt;br&gt;hypothetical protein&lt;br&gt;Location: 26677 - 27349" style="fill:white; stroke:black; stroke-width:1; " id="dummy-1_q15_0_all"  />
<polygon points="520,40 524,40 529,35 524,30 520,30 520,40 " class="clusterblast-orf" locus_tag="cds27608_28466" description="&lt;b&gt;cds27608_28466&lt;/b&gt;&lt;br&gt;Transcriptional regulator, AcrR family&lt;br&gt;Location: 27608 - 28466" style="fill:white; stroke:black; stroke-width:1; " id="dummy-1_q16_0_all"  />
<polygon points="530,40 535,40 540,35 535,30 530,30 530,40 " class="clusterblast-orf" locus_tag="cds28550_29444" description="&lt;b&gt;cds28550_29444&lt;/b&gt;&lt;br&gt;beta-keto acid cleavage protein&lt;br&gt;Location: 28550 - 29444" style="fill:white; stroke:black; stroke-width:1; " id="dummy-1_q17_0_all"  />
<polygon points="540,40 543,40 548,35 543,30 540,30 540,40 " class="clusterblast-orf" locus_tag="cds29483_30143" description="&lt;b&gt;cds29483_30143&lt;/b&gt;&lt;br&gt;Carnitine 3-dehydrogenase (EC 1.1.1.108)&lt;br&gt;Location: 29483 - 30143" style="fill:white; stroke:black; stroke-width:1; " id="dummy-1_q18_0_all"  />
<polygon points="547,40 551,35 547,30 547,40 " class="clusterblast-orf" locus_tag="cds30126_30471" description="&lt;b&gt;cds30126_30471&lt;/b&gt;&lt;br&gt;Carnitine 3-dehydrogenase (EC 1.1.1.108)&lt;br&gt;Location: 30126 - 30471" style="fill:white; stroke:black; stroke-width:1; " id="dummy-1_q19_0_all"  />
<polygon points="551,40 551,40 556,35 551,30 551,30 551,40 " class="clusterblast-orf" locus_tag="cds30467_30947" description="&lt;b&gt;cds30467_30947&lt;/b&gt;&lt;br&gt;Carnitine utilization associated thioesterase&lt;br&gt;Location: 30467 - 30947" style="fill:white; stroke:black; stroke-width:1; " id="dummy-1_q20_0_all"  />
<polygon points="558,35 563,30 564,30 564,40 563,40 558,35 " class="clusterblast-orf" locus_tag="cds31086_31593" description="&lt;b&gt;cds31086_31593&lt;/b&gt;&lt;br&gt;SWF/SNF family helicase&lt;br&gt;Location: 31086 - 31593" style="fill:white; stroke:black; stroke-width:1; " id="dummy-1_q21_0_all"  />
</g>
<g description="BGC0000354_c1: friulimicin A / friulimicin B / friulimicin C / friulimicin D (12% of genes show similarity), NRP" class="clusterblast-cluster" label="BGC0000354"  >
<text x="5" class="clusterblast-acc" y="70"  >
<a xlink:href="https://mibig.secondarymetabolites.org/go/BGC0000354/1" target="_blank">BGC0000354</a>:                    friulimicin A / friulimicin B / friulimicin C / friulimicin D (12% of genes show similarity), NRP</text>
<line style="stroke:grey; stroke-width:1; " x2="778.0" y1="85" y2="85" x1="10"  />
</g>
<g id="a1_000"  >
<polygon points="0,85 5,80 15,80 15,90 5,90 0,85 " class="clusterblast-orf" locus_tag="CAM56763.1" description="&lt;b&gt;CAM56763.1&lt;/b&gt;&lt;br&gt;hypothetical protein&lt;br&gt;Location: 1 - 1411" style="fill:white; stroke:black; stroke-width:1; " id="dummy-1_h1_3_0"  />
</g>
<g id="a1_001"  >
<polygon points="17,90 21,90 26,85 21,80 17,80 17,90 " class="clusterblast-orf" locus_tag="CAM56764.1" description="&lt;b&gt;CAM56764.1&lt;/b&gt;&lt;br&gt;putative alkaline phosphatase&lt;br&gt;Location: 1614 - 2438" style="fill:white; stroke:black; stroke-width:1; " id="dummy-1_h1_3_1"  />
</g>
<g id="a1_002"  >
<polygon points="33,90 36,90 41,85 36,80 33,80 33,90 " class="clusterblast-orf" locus_tag="CAM56765.1" description="&lt;b&gt;CAM56765.1&lt;/b&gt;&lt;br&gt;regulatory protein A&lt;br&gt;Location: 3057 - 3785" style="fill:white; stroke:black; stroke-width:1; " id="dummy-1_h1_3_2"  />
</g>
<g id="a1_003"  >
<polygon points="43,90 49,90 54,85 49,80 43,80 43,90 " class="clusterblast-orf" locus_tag="CAM56766.1" description="&lt;b&gt;CAM56766.1&lt;/b&gt;&lt;br&gt;ExpB&lt;br&gt;Location: 3964 - 4917" style="fill:white; stroke:black; stroke-width:1; " id="dummy-1_h1_3_3"  />
</g>
<g id="a1_004"  >
<polygon points="54,90 60,90 65,85 60,80 54,80 54,90 " class="clusterblast-orf" locus_tag="CAM56767.1" description="&lt;b&gt;CAM56767.1&lt;/b&gt;&lt;br&gt;DabA&lt;br&gt;Location: 4914 - 5987" style="fill:white; stroke:black; stroke-width:1; " id="dummy-1_h1_3_4"  />
</g>
<g id="a1_005"  >
<polygon points="65,90 76,90 81,85 76,80 65,80 65,90 " class="clusterblast-orf" locus_tag="CAM56768.1" description="&lt;b&gt;CAM56768.1&lt;/b&gt;&lt;br&gt;DabB&lt;br&gt;Location: 5984 - 7426" style="fill:white; stroke:black; stroke-width:1; " id="dummy-1_h1_3_5"  />
</g>
<g id="a1_006"  >
<polygon points="81,90 90,90 95,85 90,80 81,80 81,90 " class="clusterblast-orf" locus_tag="CAM56769.1" description="&lt;b&gt;CAM56769.1&lt;/b&gt;&lt;br&gt;DabC&lt;br&gt;Location: 7423 - 8646" style="fill:white; stroke:black; stroke-width:1; " id="dummy-1_h1_3_6"  />
</g>
<g id="a1_007"  >
<polygon points="95,90 125,90 130,85 125,80 95,80 95,90 " class="clusterblast-orf" locus_tag="CAD32904.2" description="&lt;b&gt;CAD32904.2&lt;/b&gt;&lt;br&gt;non-ribosomal peptide synthetase A&lt;br&gt;Location: 8643 - 11831" style="fill:white; stroke:black; stroke-width:1; " id="dummy-1_h1_3_7"  />
</g>
<g id="a1_008"  >
<polygon points="130,90 135,90 140,85 135,80 130,80 130,90 " class="clusterblast-orf" locus_tag="CAD32905.1" description="&lt;b&gt;CAD32905.1&lt;/b&gt;&lt;br&gt;hypothetical protein&lt;br&gt;Location: 11828 - 12736" style="fill:white; stroke:black; stroke-width:1; " id="dummy-1_h1_3_8"  />
</g>
<g id="a1_009"  >
<polygon points="140,85 145,80 150,80 150,90 145,90 140,85 " class="clusterblast-orf" locus_tag="CAD32906.1" description="&lt;b&gt;CAD32906.1&lt;/b&gt;&lt;br&gt;regulatory protein B&lt;br&gt;Location: 12792 - 13697" style="fill:white; stroke:black; stroke-width:1; " id="dummy-1_h1_3_9"  />
</g>
<g id="a1_0010"  >
<polygon points="151,85 156,80 160,80 160,90 156,90 151,85 " class="clusterblast-orf" locus_tag="CAD32907.1" description="&lt;b&gt;CAD32907.1&lt;/b&gt;&lt;br&gt;ABC transporter protein&lt;br&gt;Location: 13714 - 14553" style="fill:white; stroke:black; stroke-width:1; " id="dummy-1_h1_3_10"  />
</g>
<g id="a1_0011"  >
<polygon points="160,85 165,80 173,80 173,90 165,90 160,85 " class="clusterblast-orf" locus_tag="CAD32908.1" description="&lt;b&gt;CAD32908.1&lt;/b&gt;&lt;br&gt;glutamate mutase subunit B&lt;br&gt;Location: 14550 - 15797" style="fill:white; stroke:black; stroke-width:1; " id="dummy-1_h1_3_11"  />
</g>
<g id="a1_0012"  >
<polygon points="173,85 178,80 178,80 178,90 178,90 173,85 " class="clusterblast-orf" locus_tag="CAD32909.1" description="&lt;b&gt;CAD32909.1&lt;/b&gt;&lt;br&gt;glutamate mutase subunit A&lt;br&gt;Location: 15794 - 16231" style="fill:white; stroke:black; stroke-width:1; " id="dummy-1_h1_3_12"  />
</g>
<g id="a1_0013"  >
<polygon points="181,90 196,90 201,85 196,80 181,80 181,90 " class="clusterblast-orf" locus_tag="CAD32910.2" description="&lt;b&gt;CAD32910.2&lt;/b&gt;&lt;br&gt;acyl-CoA synthase&lt;br&gt;Location: 16501 - 18267" style="fill:white; stroke:black; stroke-width:1; " id="dummy-1_h1_3_13"  />
</g>
<g id="a1_0014"  >
<polygon points="201,90 213,90 218,85 213,80 201,80 201,90 " class="clusterblast-orf" locus_tag="CAJ18234.2" description="&lt;b&gt;CAJ18234.2&lt;/b&gt;&lt;br&gt;acyl-CoA dehydrogenase&lt;br&gt;Location: 18264 - 19802" style="fill:white; stroke:black; stroke-width:1; " id="dummy-1_h1_3_14"  />
</g>
<g id="a1_0015"  >
<polygon points="218,90 220,90 225,85 220,80 218,80 218,90 " class="clusterblast-orf" locus_tag="CAJ18235.1" description="&lt;b&gt;CAJ18235.1&lt;/b&gt;&lt;br&gt;hypothetical protein&lt;br&gt;Location: 19799 - 20506" style="fill:white; stroke:black; stroke-width:1; " id="dummy-1_h1_3_15"  />
</g>
<g id="a1_0016"  >
<polygon points="226,90 228,85 226,80 226,90 " class="clusterblast-orf" locus_tag="CAJ18236.1" description="&lt;b&gt;CAJ18236.1&lt;/b&gt;&lt;br&gt;acyl carrier protein&lt;br&gt;Location: 20524 - 20790" style="fill:white; stroke:black; stroke-width:1; " id="dummy-1_h1_3_16"  />
</g>
<g id="a1_0017"  >
<polygon points="229,90 328,90 333,85 328,80 229,80 229,90 " class="clusterblast-orf" locus_tag="CAJ18237.2" description="&lt;b&gt;CAJ18237.2&lt;/b&gt;&lt;br&gt;non-ribosomal peptide synthetase B&lt;br&gt;Location: 20826 - 30257&lt;br&gt;&lt;br&gt;&lt;b&gt;BlastP hit with cds10800_15198&lt;/b&gt;&lt;br&gt;Percentage identity: 51&lt;br&gt;Percentage coverage: 78&lt;br&gt;BLAST bit score: 983&lt;br&gt;E-value: 2.7e-286" style="fill:#d81515; stroke:black; stroke-width:1; " id="dummy-1_h1_3_17"  />
</g>
<g id="a1_0018"  >
<polygon points="333,90 548,90 553,85 548,80 333,80 333,90 " class="clusterblast-orf" locus_tag="CAM56770.1" description="&lt;b&gt;CAM56770.1&lt;/b&gt;&lt;br&gt;&lt;br&gt;Location: 30254 - 50239&lt;br&gt;&lt;br&gt;&lt;b&gt;BlastP hit with cds2_7991&lt;/b&gt;&lt;br&gt;Percentage identity: 53&lt;br&gt;Percentage coverage: 101&lt;br&gt;BLAST bit score: 2499&lt;br&gt;E-value: 0.0&lt;br&gt;&lt;br&gt;&lt;b&gt;BlastP hit with cds7975_10804&lt;/b&gt;&lt;br&gt;Percentage identity: 48&lt;br&gt;Percentage coverage: 98&lt;br&gt;BLAST bit score: 793&lt;br&gt;E-value: 4.4e-229&lt;br&gt;&lt;br&gt;&lt;b&gt;BlastP hit with cds10800_15198&lt;/b&gt;&lt;br&gt;Percentage identity: 52&lt;br&gt;Percentage coverage: 84&lt;br&gt;BLAST bit score: 1076&lt;br&gt;E-value: 0.0" style="fill:#d81515; stroke:black; stroke-width:1; " id="dummy-1_h1_3_18"  />
</g>
<g id="a1_0019"  >
<polygon points="553,90 626,90 631,85 626,80 553,80 553,90 " class="clusterblast-orf" locus_tag="CAM56771.1" description="&lt;b&gt;CAM56771.1&lt;/b&gt;&lt;br&gt;&lt;br&gt;Location: 50239 - 57351&lt;br&gt;&lt;br&gt;&lt;b&gt;BlastP hit with cds2_7991&lt;/b&gt;&lt;br&gt;Percentage identity: 52&lt;br&gt;Percentage coverage: 43&lt;br&gt;BLAST bit score: 1041&lt;br&gt;E-value: 2e-303&lt;br&gt;&lt;br&gt;&lt;b&gt;BlastP hit with cds10800_15198&lt;/b&gt;&lt;br&gt;Percentage identity: 51&lt;br&gt;Percentage coverage: 100&lt;br&gt;BLAST bit score: 1302&lt;br&gt;E-value: 0.0" style="fill:#d81515; stroke:black; stroke-width:1; " id="dummy-1_h1_3_19"  />
</g>
<g id="a1_0020"  >
<polygon points="631,90 634,85 631,80 631,90 " class="clusterblast-orf" locus_tag="CAM56772.1" description="&lt;b&gt;CAM56772.1&lt;/b&gt;&lt;br&gt;hypothetical protein&lt;br&gt;Location: 57381 - 57593" style="fill:white; stroke:black; stroke-width:1; " id="dummy-1_h1_3_20"  />
</g>
<g id="a1_0021"  >
<polygon points="635,90 639,90 644,85 639,80 635,80 635,90 " class="clusterblast-orf" locus_tag="CAM56773.1" description="&lt;b&gt;CAM56773.1&lt;/b&gt;&lt;br&gt;LipE&lt;br&gt;Location: 57669 - 58475&lt;br&gt;&lt;br&gt;&lt;b&gt;BlastP hit with cds15202_16021&lt;/b&gt;&lt;br&gt;Percentage identity: 57&lt;br&gt;Percentage coverage: 99&lt;br&gt;BLAST bit score: 309&lt;br&gt;E-value: 5.5e-84" style="fill:#5cd815; stroke:black; stroke-width:1; " id="dummy-1_h1_3_21"  />
</g>
<g id="a1_0022"  >
<polygon points="644,85 649,80 670,80 670,90 649,90 644,85 " class="clusterblast-orf" locus_tag="CAM56774.1" description="&lt;b&gt;CAM56774.1&lt;/b&gt;&lt;br&gt;Mem&lt;br&gt;Location: 58561 - 60852" style="fill:white; stroke:black; stroke-width:1; " id="dummy-1_h1_3_22"  />
</g>
<g id="a1_0023"  >
<polygon points="673,90 679,90 684,85 679,80 673,80 673,90 " class="clusterblast-orf" locus_tag="CAM56775.1" description="&lt;b&gt;CAM56775.1&lt;/b&gt;&lt;br&gt;lysine cyclodeaminase&lt;br&gt;Location: 61160 - 62179" style="fill:white; stroke:black; stroke-width:1; " id="dummy-1_h1_3_23"  />
</g>
<g id="a1_0024"  >
<polygon points="684,85 689,80 691,80 691,90 689,90 684,85 " class="clusterblast-orf" locus_tag="CAM56776.1" description="&lt;b&gt;CAM56776.1&lt;/b&gt;&lt;br&gt;regulatory protein C&lt;br&gt;Location: 62183 - 62827" style="fill:white; stroke:black; stroke-width:1; " id="dummy-1_h1_3_24"  />
</g>
<g id="a1_0025"  >
<polygon points="691,85 696,80 707,80 707,90 696,90 691,85 " class="clusterblast-orf" locus_tag="CAM56777.1" description="&lt;b&gt;CAM56777.1&lt;/b&gt;&lt;br&gt;regulatory protein D&lt;br&gt;Location: 62818 - 64197" style="fill:white; stroke:black; stroke-width:1; " id="dummy-1_h1_3_25"  />
</g>
<g id="a1_0026"  >
<polygon points="707,90 708,90 713,85 708,80 707,80 707,90 " class="clusterblast-orf" locus_tag="CAM56778.1" description="&lt;b&gt;CAM56778.1&lt;/b&gt;&lt;br&gt;hypothetical protein&lt;br&gt;Location: 64196 - 64807" style="fill:white; stroke:black; stroke-width:1; " id="dummy-1_h1_3_26"  />
</g>
<g id="a1_0027"  >
<polygon points="715,90 727,90 732,85 727,80 715,80 715,90 " class="clusterblast-orf" locus_tag="CAM56779.1" description="&lt;b&gt;CAM56779.1&lt;/b&gt;&lt;br&gt;Mem2&lt;br&gt;Location: 64951 - 66540" style="fill:white; stroke:black; stroke-width:1; " id="dummy-1_h1_3_27"  />
</g>
<g id="a1_0028"  >
<polygon points="733,90 735,90 740,85 735,80 733,80 733,90 " class="clusterblast-orf" locus_tag="CAM56780.1" description="&lt;b&gt;CAM56780.1&lt;/b&gt;&lt;br&gt;regulatory protein E&lt;br&gt;Location: 66581 - 67204" style="fill:white; stroke:black; stroke-width:1; " id="dummy-1_h1_3_28"  />
</g>
<g id="a1_0029"  >
<polygon points="740,90 745,90 750,85 745,80 740,80 740,90 " class="clusterblast-orf" locus_tag="CAM56781.1" description="&lt;b&gt;CAM56781.1&lt;/b&gt;&lt;br&gt;hypothetical protein&lt;br&gt;Location: 67201 - 68169" style="fill:white; stroke:black; stroke-width:1; " id="dummy-1_h1_3_29"  />
</g>
<g id="a1_0030"  >
<polygon points="751,90 756,90 761,85 756,80 751,80 751,90 " class="clusterblast-orf" locus_tag="CAM56782.1" description="&lt;b&gt;CAM56782.1&lt;/b&gt;&lt;br&gt;hypothetical protein&lt;br&gt;Location: 68230 - 69102" style="fill:white; stroke:black; stroke-width:1; " id="dummy-1_h1_3_30"  />
</g>
<g id="a1_0031"  >
<polygon points="763,90 771,90 776,85 771,80 763,80 763,90 " class="clusterblast-orf" locus_tag="CAM56783.1" description="&lt;b&gt;CAM56783.1&lt;/b&gt;&lt;br&gt;hypothetical protein&lt;br&gt;Location: 69316 - 70509" style="fill:white; stroke:black; stroke-width:1; " id="dummy-1_h1_3_31"  />
</g>
<g id="a1_0032"  >
<polygon points="777,90 780,85 777,80 777,90 " class="clusterblast-orf" locus_tag="CAM56784.1" description="&lt;b&gt;CAM56784.1&lt;/b&gt;&lt;br&gt;hypothetical protein&lt;br&gt;Location: 70587 - 70820" style="fill:white; stroke:black; stroke-width:1; " id="dummy-1_h1_3_32"  />
</g>
</svg>
