<svg preserveAspectRatio="none" version="1.1" xmlns="http://www.w3.org/2000/svg" y="0" height="230" viewBox="0 0 800 230" x="0" width="800" xmlns:xlink="http://www.w3.org/1999/xlink"  >
<g class="clusterblast-cluster" label="Query sequence"  >
<text class="clusterblast-acc" y="20" x="5"  >
Query sequence</text>
<line x2="778.0" y1="35" style="stroke:grey; stroke-width:1; " x1="10" y2="35"  />
<polygon description="&lt;b&gt;cds163970_164366&lt;/b&gt;&lt;br&gt;hypothetical protein&lt;br&gt;Location: 163970 - 164366" style="stroke:black; fill:#d81515; stroke-width:1; " locus_tag="cds163970_164366" class="clusterblast-orf" id="dummy-2_q0_0_all" points="24,35 29,30 30,30 30,40 29,40 24,35 "  />
<polygon description="&lt;b&gt;cds164472_165072&lt;/b&gt;&lt;br&gt;Methyltransferase type 12&lt;br&gt;Location: 164472 - 165072" style="stroke:black; fill:#77d815; stroke-width:1; " locus_tag="cds164472_165072" class="clusterblast-orf" id="dummy-2_q1_0_all" points="31,40 35,40 40,35 35,30 31,30 31,40 "  />
<polygon description="&lt;b&gt;cds165093_166266&lt;/b&gt;&lt;br&gt;Alanyl-tRNA synthetase-related protein&lt;br&gt;Location: 165093 - 166266" style="stroke:black; fill:#15d8d8; stroke-width:1; " locus_tag="cds165093_166266" class="clusterblast-orf" id="dummy-2_q2_0_all" points="41,35 46,30 58,30 58,40 46,40 41,35 "  />
<polygon description="&lt;b&gt;cds166700_167177&lt;/b&gt;&lt;br&gt;Spore-associated protein A precursor&lt;br&gt;Location: 166700 - 167177" style="stroke:black; fill:#7715d8; stroke-width:1; " locus_tag="cds166700_167177" class="clusterblast-orf" id="dummy-2_q3_0_all" points="65,40 67,40 72,35 67,30 65,30 65,40 "  />
<polygon description="&lt;b&gt;cds167246_167978&lt;/b&gt;&lt;br&gt;hypothetical protein&lt;br&gt;Location: 167246 - 167978" style="stroke:black; fill:#d81515; stroke-width:1; " locus_tag="cds167246_167978" class="clusterblast-orf" id="dummy-2_q4_0_all" points="73,35 78,30 84,30 84,40 78,40 73,35 "  />
<polygon description="&lt;b&gt;cds168298_169039&lt;/b&gt;&lt;br&gt;hypothetical protein&lt;br&gt;Location: 168298 - 169039" style="stroke:black; fill:#d83f15; stroke-width:1; " locus_tag="cds168298_169039" class="clusterblast-orf" id="dummy-2_q5_0_all" points="88,40 94,40 99,35 94,30 88,30 88,40 "  />
<polygon description="&lt;b&gt;cds169075_169813&lt;/b&gt;&lt;br&gt;hypothetical protein&lt;br&gt;Location: 169075 - 169813" style="stroke:black; fill:#4dd815; stroke-width:1; " locus_tag="cds169075_169813" class="clusterblast-orf" id="dummy-2_q6_0_all" points="100,35 105,30 111,30 111,40 105,40 100,35 "  />
<polygon description="&lt;b&gt;cds169943_170795&lt;/b&gt;&lt;br&gt;Transcriptional regulator, LysR family&lt;br&gt;Location: 169943 - 170795" style="stroke:black; fill:#15aed8; stroke-width:1; " locus_tag="cds169943_170795" class="clusterblast-orf" id="dummy-2_q7_0_all" points="113,35 118,30 126,30 126,40 118,40 113,35 "  />
<polygon description="&lt;b&gt;cds170876_171371&lt;/b&gt;&lt;br&gt;hypothetical protein&lt;br&gt;Location: 170876 - 171371" style="stroke:black; fill:#a115d8; stroke-width:1; " locus_tag="cds170876_171371" class="clusterblast-orf" id="dummy-2_q8_0_all" points="127,40 129,40 134,35 129,30 127,30 127,40 "  />
<polygon description="&lt;b&gt;cds171387_171747&lt;/b&gt;&lt;br&gt;hypothetical protein&lt;br&gt;Location: 171387 - 171747" style="stroke:black; fill:#d86915; stroke-width:1; " locus_tag="cds171387_171747" class="clusterblast-orf" id="dummy-2_q9_0_all" points="134,40 135,40 140,35 135,30 134,30 134,40 "  />
<polygon description="&lt;b&gt;cds171739_172456&lt;/b&gt;&lt;br&gt;Oligopeptide transport ATP-binding protein OppF (TC 3.A.1.5.1)&lt;br&gt;Location: 171739 - 172456" style="stroke:black; fill:#23d815; stroke-width:1; " locus_tag="cds171739_172456" class="clusterblast-orf" id="dummy-2_q10_0_all" points="140,35 145,30 150,30 150,40 145,40 140,35 "  />
<polygon description="&lt;b&gt;cds172452_173412&lt;/b&gt;&lt;br&gt;Oligopeptide ABC transporter, ATP-binding protein OppD (TC 3.A.1.5.1)&lt;br&gt;Location: 172452 - 173412" style="stroke:black; fill:#23d815; stroke-width:1; " locus_tag="cds172452_173412" class="clusterblast-orf" id="dummy-2_q11_0_all" points="150,35 155,30 165,30 165,40 155,40 150,35 "  />
<polygon description="&lt;b&gt;cds173380_175147&lt;/b&gt;&lt;br&gt;ABC transporter, permease protein 1 (cluster 5, nickel/peptides/opines) / ABC transporter, permease protein 2 (cluster 5, nickel/peptides/opines)&lt;br&gt;Location: 173380 - 175147" style="stroke:black; fill:#1585d8; stroke-width:1; " locus_tag="cds173380_175147" class="clusterblast-orf" id="dummy-2_q12_0_all" points="164,35 169,30 190,30 190,40 169,40 164,35 "  />
<polygon description="&lt;b&gt;cds175143_176631&lt;/b&gt;&lt;br&gt;ABC transporter, substrate-binding protein (cluster 5, nickel/peptides/opines)&lt;br&gt;Location: 175143 - 176631" style="stroke:black; fill:#ca15d8; stroke-width:1; " locus_tag="cds175143_176631" class="clusterblast-orf" id="dummy-2_q13_0_all" points="190,35 195,30 212,30 212,40 195,40 190,35 "  />
<polygon description="&lt;b&gt;cds176700_177204&lt;/b&gt;&lt;br&gt;Zinc uptake regulation protein Zur&lt;br&gt;Location: 176700 - 177204" style="stroke:black; fill:#d89315; stroke-width:1; " locus_tag="cds176700_177204" class="clusterblast-orf" id="dummy-2_q14_0_all" points="213,35 218,30 221,30 221,40 218,40 213,35 "  />
<polygon description="&lt;b&gt;cds177424_177658&lt;/b&gt;&lt;br&gt;Ferredoxin-like protein SCO7676&lt;br&gt;Location: 177424 - 177658" style="stroke:black; fill:#15d831; stroke-width:1; " locus_tag="cds177424_177658" class="clusterblast-orf" id="dummy-2_q15_0_all" points="224,40 228,35 224,30 224,40 "  />
<polygon description="&lt;b&gt;cds177767_179354&lt;/b&gt;&lt;br&gt;ABC transporter, substrate-binding protein (cluster 5, nickel/peptides/opines)&lt;br&gt;Location: 177767 - 179354" style="stroke:black; fill:#155bd8; stroke-width:1; " locus_tag="cds177767_179354" class="clusterblast-orf" id="dummy-2_q16_0_all" points="229,40 248,40 253,35 248,30 229,30 229,40 "  />
<polygon description="&lt;b&gt;cds179350_180301&lt;/b&gt;&lt;br&gt;ABC transporter, permease protein 1 (cluster 5, nickel/peptides/opines)&lt;br&gt;Location: 179350 - 180301" style="stroke:black; fill:#1585d8; stroke-width:1; " locus_tag="cds179350_180301" class="clusterblast-orf" id="dummy-2_q17_0_all" points="253,40 262,40 267,35 262,30 253,30 253,40 "  />
<polygon description="&lt;b&gt;cds180297_181158&lt;/b&gt;&lt;br&gt;ABC transporter, permease protein 2 (cluster 5, nickel/peptides/opines)&lt;br&gt;Location: 180297 - 181158" style="stroke:black; fill:#1585d8; stroke-width:1; " locus_tag="cds180297_181158" class="clusterblast-orf" id="dummy-2_q18_0_all" points="267,40 275,40 280,35 275,30 267,30 267,40 "  />
<polygon description="&lt;b&gt;cds181154_182735&lt;/b&gt;&lt;br&gt;ABC transporter, ATP-binding protein (cluster 5, nickel/peptides/opines) / ABC transporter, ATP-binding protein (cluster 5, nickel/peptides/opines)&lt;br&gt;Location: 181154 - 182735" style="stroke:black; fill:#23d815; stroke-width:1; " locus_tag="cds181154_182735" class="clusterblast-orf" id="dummy-2_q19_0_all" points="280,40 298,40 303,35 298,30 280,30 280,40 "  />
<polygon description="&lt;b&gt;cds182797_184435&lt;/b&gt;&lt;br&gt;2,3-dihydroxybenzoate-AMP ligase (EC 2.7.7.58) of siderophore biosynthesis&lt;br&gt;Location: 182797 - 184435" style="stroke:black; fill:#d815bc; stroke-width:1; " locus_tag="cds182797_184435" class="clusterblast-orf" id="dummy-2_q20_0_all" points="304,35 309,30 329,30 329,40 309,40 304,35 "  />
<polygon description="&lt;b&gt;cds184616_191417&lt;/b&gt;&lt;br&gt;iron aquisition yersiniabactin synthesis enzyme (Irp2)&lt;br&gt;Location: 184616 - 191417" style="stroke:black; fill:#d8bc15; stroke-width:1; " locus_tag="cds184616_191417" class="clusterblast-orf" id="dummy-2_q21_0_all" points="331,40 428,40 433,35 428,30 331,30 331,40 "  />
<polygon description="&lt;b&gt;cds191413_196942&lt;/b&gt;&lt;br&gt;iron aquisition yersiniabactin synthesis enzyme (Irp2)&lt;br&gt;Location: 191413 - 196942" style="stroke:black; fill:#d8bc15; stroke-width:1; " locus_tag="cds191413_196942" class="clusterblast-orf" id="dummy-2_q22_0_all" points="433,40 510,40 515,35 510,30 433,30 433,40 "  />
<polygon description="&lt;b&gt;cds196938_198090&lt;/b&gt;&lt;br&gt;Putative reductoisomerase in siderophore biosynthesis gene cluster&lt;br&gt;Location: 196938 - 198090" style="stroke:black; fill:#15d85b; stroke-width:1; " locus_tag="cds196938_198090" class="clusterblast-orf" id="dummy-2_q23_0_all" points="515,40 527,40 532,35 527,30 515,30 515,40 "  />
<polygon description="&lt;b&gt;cds198086_200171&lt;/b&gt;&lt;br&gt;Yersiniabactin synthetase, thiazolinyl reductase component Irp3&lt;br&gt;Location: 198086 - 200171" style="stroke:black; fill:#1531d8; stroke-width:1; " locus_tag="cds198086_200171" class="clusterblast-orf" id="dummy-2_q24_0_all" points="532,40 558,40 563,35 558,30 532,30 532,40 "  />
<polygon description="&lt;b&gt;cds200180_201431&lt;/b&gt;&lt;br&gt;putative cytochrome P450&lt;br&gt;Location: 200180 - 201431" style="stroke:black; fill:#d81593; stroke-width:1; " locus_tag="cds200180_201431" class="clusterblast-orf" id="dummy-2_q25_0_all" points="563,40 577,40 582,35 577,30 563,30 563,40 "  />
<polygon description="&lt;b&gt;cds201427_202267&lt;/b&gt;&lt;br&gt;Thioesterase in siderophore biosynthesis gene cluster&lt;br&gt;Location: 201427 - 202267" style="stroke:black; fill:#cad815; stroke-width:1; " locus_tag="cds201427_202267" class="clusterblast-orf" id="dummy-2_q26_0_all" points="582,40 589,40 594,35 589,30 582,30 582,40 "  />
<polygon description="&lt;b&gt;cds202361_203090&lt;/b&gt;&lt;br&gt;hypothetical protein&lt;br&gt;Location: 202361 - 203090" style="stroke:black; fill:#1531d8; stroke-width:1; " locus_tag="cds202361_203090" class="clusterblast-orf" id="dummy-2_q27_0_all" points="596,40 602,40 607,35 602,30 596,30 596,40 "  />
<polygon description="&lt;b&gt;cds203086_204907&lt;/b&gt;&lt;br&gt;Heterodimeric efflux ABC transporter, permease/ATP-binding subunit 1&lt;br&gt;Location: 203086 - 204907" style="stroke:black; fill:#15d885; stroke-width:1; " locus_tag="cds203086_204907" class="clusterblast-orf" id="dummy-2_q28_0_all" points="606,40 629,40 634,35 629,30 606,30 606,40 "  />
<polygon description="&lt;b&gt;cds204903_206679&lt;/b&gt;&lt;br&gt;Heterodimeric efflux ABC transporter, permease/ATP-binding subunit 2&lt;br&gt;Location: 204903 - 206679" style="stroke:black; fill:#15d885; stroke-width:1; " locus_tag="cds204903_206679" class="clusterblast-orf" id="dummy-2_q29_0_all" points="634,40 655,40 660,35 655,30 634,30 634,40 "  />
<polygon description="&lt;b&gt;cds206737_208150&lt;/b&gt;&lt;br&gt;Salicylate synthetase (EC 5.4.4.2)(EC 4.2.99.21) @ Salicylate synthetase (EC 5.4.4.2)(EC 4.2.99.21) of siderophore biosynthesis&lt;br&gt;Location: 206737 - 208150" style="stroke:black; fill:#2315d8; stroke-width:1; " locus_tag="cds206737_208150" class="clusterblast-orf" id="dummy-2_q30_0_all" points="661,40 677,40 682,35 677,30 661,30 661,40 "  />
<polygon description="&lt;b&gt;cds208245_209073&lt;/b&gt;&lt;br&gt;hypothetical protein&lt;br&gt;Location: 208245 - 209073" style="stroke:black; fill:#d81569; stroke-width:1; " locus_tag="cds208245_209073" class="clusterblast-orf" id="dummy-2_q31_0_all" points="683,35 688,30 696,30 696,40 688,40 683,35 "  />
<polygon description="&lt;b&gt;cds209151_210339&lt;/b&gt;&lt;br&gt;Zinc-binding GTPase YciC&lt;br&gt;Location: 209151 - 210339" style="stroke:black; fill:#a1d815; stroke-width:1; " locus_tag="cds209151_210339" class="clusterblast-orf" id="dummy-2_q32_0_all" points="697,35 702,30 714,30 714,40 702,40 697,35 "  />
<polygon description="&lt;b&gt;cds210345_210516&lt;/b&gt;&lt;br&gt;LSU ribosomal protein L32p&lt;br&gt;Location: 210345 - 210516" style="stroke:black; fill:#15d8ae; stroke-width:1; " locus_tag="cds210345_210516" class="clusterblast-orf" id="dummy-2_q33_0_all" points="715,35 717,30 717,40 715,35 "  />
<polygon description="&lt;b&gt;cds210592_211339&lt;/b&gt;&lt;br&gt;Nitroreductase&lt;br&gt;Location: 210592 - 211339" style="stroke:black; fill:#4d15d8; stroke-width:1; " locus_tag="cds210592_211339" class="clusterblast-orf" id="dummy-2_q34_0_all" points="718,35 723,30 729,30 729,40 723,40 718,35 "  />
<polygon description="&lt;b&gt;cds211384_211978&lt;/b&gt;&lt;br&gt;Transcriptional regulator, AcrR family&lt;br&gt;Location: 211384 - 211978" style="stroke:black; fill:#d8153f; stroke-width:1; " locus_tag="cds211384_211978" class="clusterblast-orf" id="dummy-2_q35_0_all" points="730,40 734,40 739,35 734,30 730,30 730,40 "  />
<polygon description="&lt;b&gt;cds212006_212663&lt;/b&gt;&lt;br&gt;hypothetical protein&lt;br&gt;Location: 212006 - 212663" style="stroke:black; fill:white; stroke-width:1; " locus_tag="cds212006_212663" class="clusterblast-orf" id="dummy-2_q36_0_all" points="739,35 744,30 749,30 749,40 744,40 739,35 "  />
<polygon description="&lt;b&gt;cds212659_213088&lt;/b&gt;&lt;br&gt;hypothetical protein&lt;br&gt;Location: 212659 - 213088" style="stroke:black; fill:white; stroke-width:1; " locus_tag="cds212659_213088" class="clusterblast-orf" id="dummy-2_q37_0_all" points="749,35 754,30 755,30 755,40 754,40 749,35 "  />
</g>
<g description="NZ_CP029601 (1927434-1979808): Streptomyces sp. WAC 01438 chromosome, complet... (48% of genes show similarity), NRPS" class="clusterblast-cluster" label="NZ_CP029601"  >
<text class="clusterblast-acc" y="70" x="5"  >
<a xlink:href="https://antismash-db.secondarymetabolites.org/area.html?record=NZ_CP029601&amp;start=1927434&amp;end=1979808" target="_blank">NZ_CP029601 (1927434-1979808)</a>: Streptomyces sp. WAC 01438 chromosome, complet... (48% of genes show similarity), NRPS</text>
<line x2="778.0" y1="85" style="stroke:grey; stroke-width:1; " x1="10" y2="85"  />
</g>
<g id="a2_000"  >
<polygon description="&lt;b&gt;DLM49_RS08490&lt;/b&gt;&lt;br&gt;ABC transporter permease&lt;br&gt;Location: 1979808 - 1978831" style="stroke:black; fill:white; stroke-width:1; " locus_tag="DLM49_RS08490" class="clusterblast-orf" id="dummy-2_h2_2_0" points="0,85 5,80 14,80 14,90 5,90 0,85 "  />
</g>
<g id="a2_001"  >
<polygon description="&lt;b&gt;DLM49_RS08485&lt;/b&gt;&lt;br&gt;ABC transporter substrate-binding protein&lt;br&gt;Location: 1978729 - 1977047" style="stroke:black; fill:white; stroke-width:1; " locus_tag="DLM49_RS08485" class="clusterblast-orf" id="dummy-2_h2_2_1" points="16,85 21,80 41,80 41,90 21,90 16,85 "  />
</g>
<g id="a2_002"  >
<polygon description="&lt;b&gt;DLM49_RS08480&lt;/b&gt;&lt;br&gt;substrate-binding domain-containing protein&lt;br&gt;Location: 1976972 - 1975980" style="stroke:black; fill:white; stroke-width:1; " locus_tag="DLM49_RS08480" class="clusterblast-orf" id="dummy-2_h2_2_2" points="42,85 47,80 57,80 57,90 47,90 42,85 "  />
</g>
<g id="a2_003"  >
<polygon description="&lt;b&gt;DLM49_RS08475&lt;/b&gt;&lt;br&gt;RICIN domain-containing protein&lt;br&gt;Location: 1975451 - 1975317" style="stroke:black; fill:white; stroke-width:1; " locus_tag="DLM49_RS08475" class="clusterblast-orf" id="dummy-2_h2_2_3" points="64,85 66,80 66,90 64,85 "  />
</g>
<g id="a2_004"  >
<polygon description="&lt;b&gt;DLM49_RS36625&lt;/b&gt;&lt;br&gt;hypothetical protein&lt;br&gt;Location: 1974646 - 1974476" style="stroke:black; fill:white; stroke-width:1; " locus_tag="DLM49_RS36625" class="clusterblast-orf" id="dummy-2_h2_2_4" points="76,85 79,80 79,90 76,85 "  />
</g>
<g id="a2_005"  >
<polygon description="&lt;b&gt;DLM49_RS08470&lt;/b&gt;&lt;br&gt;PRC-barrel domain containing protein&lt;br&gt;Location: 1974441 - 1974085" style="stroke:black; fill:white; stroke-width:1; " locus_tag="DLM49_RS08470" class="clusterblast-orf" id="dummy-2_h2_2_5" points="79,85 84,80 85,80 85,90 84,90 79,85 "  />
</g>
<g id="a2_006"  >
<polygon description="&lt;b&gt;DLM49_RS08465&lt;/b&gt;&lt;br&gt;ribonuclease BN&lt;br&gt;Location: 1973833 - 1973000" style="stroke:black; fill:white; stroke-width:1; " locus_tag="DLM49_RS08465" class="clusterblast-orf" id="dummy-2_h2_2_6" points="88,90 96,90 101,85 96,80 88,80 88,90 "  />
</g>
<g id="a2_007"  >
<polygon description="&lt;b&gt;DLM49_RS08460&lt;/b&gt;&lt;br&gt;hypothetical protein&lt;br&gt;Location: 1972902 - 1972642" style="stroke:black; fill:white; stroke-width:1; " locus_tag="DLM49_RS08460" class="clusterblast-orf" id="dummy-2_h2_2_7" points="102,85 106,80 106,90 102,85 "  />
</g>
<g id="a2_008"  >
<polygon description="&lt;b&gt;DLM49_RS08455&lt;/b&gt;&lt;br&gt;hypothetical protein&lt;br&gt;Location: 1972350 - 1971766" style="stroke:black; fill:white; stroke-width:1; " locus_tag="DLM49_RS08455" class="clusterblast-orf" id="dummy-2_h2_2_8" points="111,90 114,90 119,85 114,80 111,80 111,90 "  />
</g>
<g id="a2_009"  >
<polygon description="&lt;b&gt;DLM49_RS08450&lt;/b&gt;&lt;br&gt;STAS domain-containing protein&lt;br&gt;Location: 1971703 - 1971329" style="stroke:black; fill:white; stroke-width:1; " locus_tag="DLM49_RS08450" class="clusterblast-orf" id="dummy-2_h2_2_9" points="120,90 121,90 126,85 121,80 120,80 120,90 "  />
</g>
<g id="a2_0010"  >
<polygon description="&lt;b&gt;DLM49_RS08445&lt;/b&gt;&lt;br&gt;acyl-CoA desaturase&lt;br&gt;Location: 1971196 - 1970156" style="stroke:black; fill:white; stroke-width:1; " locus_tag="DLM49_RS08445" class="clusterblast-orf" id="dummy-2_h2_2_10" points="128,85 133,80 143,80 143,90 133,90 128,85 "  />
</g>
<g id="a2_0011"  >
<polygon description="&lt;b&gt;DLM49_RS08440&lt;/b&gt;&lt;br&gt;hypothetical protein&lt;br&gt;Location: 1969392 - 1969141" style="stroke:black; fill:white; stroke-width:1; " locus_tag="DLM49_RS08440" class="clusterblast-orf" id="dummy-2_h2_2_11" points="155,90 158,85 155,80 155,90 "  />
</g>
<g id="a2_0012"  >
<polygon description="&lt;b&gt;DLM49_RS08435&lt;/b&gt;&lt;br&gt;zinc ABC transporter substrate-binding protein&lt;br&gt;Location: 1969144 - 1968176" style="stroke:black; fill:white; stroke-width:1; " locus_tag="DLM49_RS08435" class="clusterblast-orf" id="dummy-2_h2_2_12" points="158,90 168,90 173,85 168,80 158,80 158,90 "  />
</g>
<g id="a2_0013"  >
<polygon description="&lt;b&gt;DLM49_RS08430&lt;/b&gt;&lt;br&gt;hypothetical protein&lt;br&gt;Location: 1968086 - 1966884" style="stroke:black; fill:white; stroke-width:1; " locus_tag="DLM49_RS08430" class="clusterblast-orf" id="dummy-2_h2_2_13" points="174,90 187,90 192,85 187,80 174,80 174,90 "  />
</g>
<g id="a2_0014"  >
<polygon description="&lt;b&gt;DLM49_RS08425&lt;/b&gt;&lt;br&gt;transcriptional repressor&lt;br&gt;Location: 1966550 - 1966122&lt;br&gt;&lt;br&gt;&lt;b&gt;BlastP hit with cds176700_177204&lt;/b&gt;&lt;br&gt;Percentage identity: 73&lt;br&gt;Percentage coverage: 82&lt;br&gt;BLAST bit score: 201&lt;br&gt;E-value: 4.5e-50" style="stroke:black; fill:#d89315; stroke-width:1; " locus_tag="DLM49_RS08425" class="clusterblast-orf" id="dummy-2_h2_2_14" points="197,85 202,80 203,80 203,90 202,90 197,85 "  />
</g>
<g id="a2_0015"  >
<polygon description="&lt;b&gt;DLM49_RS08420&lt;/b&gt;&lt;br&gt;ferredoxin&lt;br&gt;Location: 1965913 - 1965692&lt;br&gt;&lt;br&gt;&lt;b&gt;BlastP hit with cds177424_177658&lt;/b&gt;&lt;br&gt;Percentage identity: 77&lt;br&gt;Percentage coverage: 95&lt;br&gt;BLAST bit score: 109&lt;br&gt;E-value: 1.8e-22" style="stroke:black; fill:#15d831; stroke-width:1; " locus_tag="DLM49_RS08420" class="clusterblast-orf" id="dummy-2_h2_2_15" points="206,90 210,85 206,80 206,90 "  />
</g>
<g id="a2_0016"  >
<polygon description="&lt;b&gt;DLM49_RS08415&lt;/b&gt;&lt;br&gt;ABC transporter substrate-binding protein&lt;br&gt;Location: 1965516 - 1963930&lt;br&gt;&lt;br&gt;&lt;b&gt;BlastP hit with cds177767_179354&lt;/b&gt;&lt;br&gt;Percentage identity: 84&lt;br&gt;Percentage coverage: 100&lt;br&gt;BLAST bit score: 878&lt;br&gt;E-value: 2.6e-253" style="stroke:black; fill:#155bd8; stroke-width:1; " locus_tag="DLM49_RS08415" class="clusterblast-orf" id="dummy-2_h2_2_16" points="212,90 231,90 236,85 231,80 212,80 212,90 "  />
</g>
<g id="a2_0017"  >
<polygon description="&lt;b&gt;DLM49_RS08410&lt;/b&gt;&lt;br&gt;ABC transporter permease&lt;br&gt;Location: 1963933 - 1962986&lt;br&gt;&lt;br&gt;&lt;b&gt;BlastP hit with cds173380_175147&lt;/b&gt;&lt;br&gt;Percentage identity: 32&lt;br&gt;Percentage coverage: 54&lt;br&gt;BLAST bit score: 85&lt;br&gt;E-value: 2.2e-14&lt;br&gt;&lt;br&gt;&lt;b&gt;BlastP hit with cds179350_180301&lt;/b&gt;&lt;br&gt;Percentage identity: 88&lt;br&gt;Percentage coverage: 99&lt;br&gt;BLAST bit score: 501&lt;br&gt;E-value: 6.8e-140" style="stroke:black; fill:#1585d8; stroke-width:1; " locus_tag="DLM49_RS08410" class="clusterblast-orf" id="dummy-2_h2_2_17" points="236,90 245,90 250,85 245,80 236,80 236,90 "  />
</g>
<g id="a2_0018"  >
<polygon description="&lt;b&gt;DLM49_RS08405&lt;/b&gt;&lt;br&gt;ABC transporter permease subunit&lt;br&gt;Location: 1962989 - 1962126&lt;br&gt;&lt;br&gt;&lt;b&gt;BlastP hit with cds173380_175147&lt;/b&gt;&lt;br&gt;Percentage identity: 34&lt;br&gt;Percentage coverage: 43&lt;br&gt;BLAST bit score: 67&lt;br&gt;E-value: 4.7e-09&lt;br&gt;&lt;br&gt;&lt;b&gt;BlastP hit with cds180297_181158&lt;/b&gt;&lt;br&gt;Percentage identity: 69&lt;br&gt;Percentage coverage: 99&lt;br&gt;BLAST bit score: 332&lt;br&gt;E-value: 5e-89" style="stroke:black; fill:#1585d8; stroke-width:1; " locus_tag="DLM49_RS08405" class="clusterblast-orf" id="dummy-2_h2_2_18" points="250,90 258,90 263,85 258,80 250,80 250,90 "  />
</g>
<g id="a2_0019"  >
<polygon description="&lt;b&gt;DLM49_RS08400&lt;/b&gt;&lt;br&gt;ABC transporter ATP-binding protein&lt;br&gt;Location: 1962129 - 1960555&lt;br&gt;&lt;br&gt;&lt;b&gt;BlastP hit with cds171739_172456&lt;/b&gt;&lt;br&gt;Percentage identity: 39&lt;br&gt;Percentage coverage: 91&lt;br&gt;BLAST bit score: 120&lt;br&gt;E-value: 2.5e-25&lt;br&gt;&lt;br&gt;&lt;b&gt;BlastP hit with cds172452_173412&lt;/b&gt;&lt;br&gt;Percentage identity: 41&lt;br&gt;Percentage coverage: 76&lt;br&gt;BLAST bit score: 127&lt;br&gt;E-value: 2.1e-27&lt;br&gt;&lt;br&gt;&lt;b&gt;BlastP hit with cds181154_182735&lt;/b&gt;&lt;br&gt;Percentage identity: 71&lt;br&gt;Percentage coverage: 102&lt;br&gt;BLAST bit score: 658&lt;br&gt;E-value: 5.6e-187" style="stroke:black; fill:#23d815; stroke-width:1; " locus_tag="DLM49_RS08400" class="clusterblast-orf" id="dummy-2_h2_2_19" points="263,90 281,90 286,85 281,80 263,80 263,90 "  />
</g>
<g id="a2_0020"  >
<polygon description="&lt;b&gt;DLM49_RS08395&lt;/b&gt;&lt;br&gt;(2,3-dihydroxybenzoyl)adenylate synthase&lt;br&gt;Location: 1960479 - 1958815&lt;br&gt;&lt;br&gt;&lt;b&gt;BlastP hit with cds182797_184435&lt;/b&gt;&lt;br&gt;Percentage identity: 84&lt;br&gt;Percentage coverage: 101&lt;br&gt;BLAST bit score: 914&lt;br&gt;E-value: 5.8e-264" style="stroke:black; fill:#d815bc; stroke-width:1; " locus_tag="DLM49_RS08395" class="clusterblast-orf" id="dummy-2_h2_2_20" points="287,85 292,80 312,80 312,90 292,90 287,85 "  />
</g>
<g id="a2_0021"  >
<polygon description="&lt;b&gt;DLM49_RS08390&lt;/b&gt;&lt;br&gt;amino acid adenylation domain-containing protein&lt;br&gt;Location: 1958569 - 1951913&lt;br&gt;&lt;br&gt;&lt;b&gt;BlastP hit with cds184616_191417&lt;/b&gt;&lt;br&gt;Percentage identity: 81&lt;br&gt;Percentage coverage: 99&lt;br&gt;BLAST bit score: 3559&lt;br&gt;E-value: 0.0&lt;br&gt;&lt;br&gt;&lt;b&gt;BlastP hit with cds191413_196942&lt;/b&gt;&lt;br&gt;Percentage identity: 40&lt;br&gt;Percentage coverage: 57&lt;br&gt;BLAST bit score: 596&lt;br&gt;E-value: 9.1e-168" style="stroke:black; fill:#d8bc15; stroke-width:1; " locus_tag="DLM49_RS08390" class="clusterblast-orf" id="dummy-2_h2_2_21" points="316,90 410,90 415,85 410,80 316,80 316,90 "  />
</g>
<g id="a2_0022"  >
<polygon description="&lt;b&gt;DLM49_RS08385&lt;/b&gt;&lt;br&gt;amino acid adenylation domain-containing protein&lt;br&gt;Location: 1951916 - 1946358&lt;br&gt;&lt;br&gt;&lt;b&gt;BlastP hit with cds184616_191417&lt;/b&gt;&lt;br&gt;Percentage identity: 40&lt;br&gt;Percentage coverage: 44&lt;br&gt;BLAST bit score: 572&lt;br&gt;E-value: 1.3e-160&lt;br&gt;&lt;br&gt;&lt;b&gt;BlastP hit with cds191413_196942&lt;/b&gt;&lt;br&gt;Percentage identity: 85&lt;br&gt;Percentage coverage: 101&lt;br&gt;BLAST bit score: 3092&lt;br&gt;E-value: 0.0" style="stroke:black; fill:#d8bc15; stroke-width:1; " locus_tag="DLM49_RS08385" class="clusterblast-orf" id="dummy-2_h2_2_22" points="415,90 493,90 498,85 493,80 415,80 415,90 "  />
</g>
<g id="a2_0023"  >
<polygon description="&lt;b&gt;DLM49_RS08380&lt;/b&gt;&lt;br&gt;NAD(P)H-binding protein&lt;br&gt;Location: 1946361 - 1945207&lt;br&gt;&lt;br&gt;&lt;b&gt;BlastP hit with cds196938_198090&lt;/b&gt;&lt;br&gt;Percentage identity: 86&lt;br&gt;Percentage coverage: 100&lt;br&gt;BLAST bit score: 632&lt;br&gt;E-value: 2.4e-179" style="stroke:black; fill:#15d85b; stroke-width:1; " locus_tag="DLM49_RS08380" class="clusterblast-orf" id="dummy-2_h2_2_23" points="498,90 510,90 515,85 510,80 498,80 498,90 "  />
</g>
<g id="a2_0024"  >
<polygon description="&lt;b&gt;DLM49_RS08375&lt;/b&gt;&lt;br&gt;Gfo/Idh/MocA family oxidoreductase&lt;br&gt;Location: 1945210 - 1943162&lt;br&gt;&lt;br&gt;&lt;b&gt;BlastP hit with cds198086_200171&lt;/b&gt;&lt;br&gt;Percentage identity: 84&lt;br&gt;Percentage coverage: 97&lt;br&gt;BLAST bit score: 1096&lt;br&gt;E-value: 0.0&lt;br&gt;&lt;br&gt;&lt;b&gt;BlastP hit with cds202361_203090&lt;/b&gt;&lt;br&gt;Percentage identity: 48&lt;br&gt;Percentage coverage: 97&lt;br&gt;BLAST bit score: 205&lt;br&gt;E-value: 5.9e-51" style="stroke:black; fill:#1531d8; stroke-width:1; " locus_tag="DLM49_RS08375" class="clusterblast-orf" id="dummy-2_h2_2_24" points="515,90 540,90 545,85 540,80 515,80 515,90 "  />
</g>
<g id="a2_0025"  >
<polygon description="&lt;b&gt;DLM49_RS08370&lt;/b&gt;&lt;br&gt;cytochrome P450&lt;br&gt;Location: 1943154 - 1941883&lt;br&gt;&lt;br&gt;&lt;b&gt;BlastP hit with cds200180_201431&lt;/b&gt;&lt;br&gt;Percentage identity: 85&lt;br&gt;Percentage coverage: 95&lt;br&gt;BLAST bit score: 656&lt;br&gt;E-value: 1.7e-186" style="stroke:black; fill:#d81593; stroke-width:1; " locus_tag="DLM49_RS08370" class="clusterblast-orf" id="dummy-2_h2_2_25" points="545,90 559,90 564,85 559,80 545,80 545,90 "  />
</g>
<g id="a2_0026"  >
<polygon description="&lt;b&gt;DLM49_RS08365&lt;/b&gt;&lt;br&gt;thioesterase&lt;br&gt;Location: 1941886 - 1941017&lt;br&gt;&lt;br&gt;&lt;b&gt;BlastP hit with cds201427_202267&lt;/b&gt;&lt;br&gt;Percentage identity: 80&lt;br&gt;Percentage coverage: 104&lt;br&gt;BLAST bit score: 467&lt;br&gt;E-value: 9.6e-130" style="stroke:black; fill:#cad815; stroke-width:1; " locus_tag="DLM49_RS08365" class="clusterblast-orf" id="dummy-2_h2_2_26" points="564,90 572,90 577,85 572,80 564,80 564,90 "  />
</g>
<g id="a2_0027"  >
<polygon description="&lt;b&gt;DLM49_RS08360&lt;/b&gt;&lt;br&gt;class I SAM-dependent methyltransferase&lt;br&gt;Location: 1940946 - 1940218&lt;br&gt;&lt;br&gt;&lt;b&gt;BlastP hit with cds198086_200171&lt;/b&gt;&lt;br&gt;Percentage identity: 49&lt;br&gt;Percentage coverage: 34&lt;br&gt;BLAST bit score: 196&lt;br&gt;E-value: 7.9e-48&lt;br&gt;&lt;br&gt;&lt;b&gt;BlastP hit with cds202361_203090&lt;/b&gt;&lt;br&gt;Percentage identity: 96&lt;br&gt;Percentage coverage: 100&lt;br&gt;BLAST bit score: 459&lt;br&gt;E-value: 2.3e-127" style="stroke:black; fill:#1531d8; stroke-width:1; " locus_tag="DLM49_RS08360" class="clusterblast-orf" id="dummy-2_h2_2_27" points="578,90 584,90 589,85 584,80 578,80 578,90 "  />
</g>
<g id="a2_0028"  >
<polygon description="&lt;b&gt;DLM49_RS08355&lt;/b&gt;&lt;br&gt;ABC transporter ATP-binding protein&lt;br&gt;Location: 1940221 - 1938350&lt;br&gt;&lt;br&gt;&lt;b&gt;BlastP hit with cds203086_204907&lt;/b&gt;&lt;br&gt;Percentage identity: 84&lt;br&gt;Percentage coverage: 103&lt;br&gt;BLAST bit score: 940&lt;br&gt;E-value: 6.5e-272&lt;br&gt;&lt;br&gt;&lt;b&gt;BlastP hit with cds204903_206679&lt;/b&gt;&lt;br&gt;Percentage identity: 35&lt;br&gt;Percentage coverage: 101&lt;br&gt;BLAST bit score: 260&lt;br&gt;E-value: 2.9e-67" style="stroke:black; fill:#15d885; stroke-width:1; " locus_tag="DLM49_RS08355" class="clusterblast-orf" id="dummy-2_h2_2_28" points="589,90 612,90 617,85 612,80 589,80 589,90 "  />
</g>
<g id="a2_0029"  >
<polygon description="&lt;b&gt;DLM49_RS08350&lt;/b&gt;&lt;br&gt;ABC transporter ATP-binding protein&lt;br&gt;Location: 1938353 - 1936605&lt;br&gt;&lt;br&gt;&lt;b&gt;BlastP hit with cds203086_204907&lt;/b&gt;&lt;br&gt;Percentage identity: 35&lt;br&gt;Percentage coverage: 96&lt;br&gt;BLAST bit score: 241&lt;br&gt;E-value: 1.9e-61&lt;br&gt;&lt;br&gt;&lt;b&gt;BlastP hit with cds204903_206679&lt;/b&gt;&lt;br&gt;Percentage identity: 86&lt;br&gt;Percentage coverage: 100&lt;br&gt;BLAST bit score: 931&lt;br&gt;E-value: 2.9e-269" style="stroke:black; fill:#15d885; stroke-width:1; " locus_tag="DLM49_RS08350" class="clusterblast-orf" id="dummy-2_h2_2_29" points="617,90 638,90 643,85 638,80 617,80 617,90 "  />
</g>
<g id="a2_0030"  >
<polygon description="&lt;b&gt;DLM49_RS08345&lt;/b&gt;&lt;br&gt;salicylate synthase&lt;br&gt;Location: 1936536 - 1935130&lt;br&gt;&lt;br&gt;&lt;b&gt;BlastP hit with cds206737_208150&lt;/b&gt;&lt;br&gt;Percentage identity: 79&lt;br&gt;Percentage coverage: 100&lt;br&gt;BLAST bit score: 693&lt;br&gt;E-value: 1.1e-197" style="stroke:black; fill:#2315d8; stroke-width:1; " locus_tag="DLM49_RS08345" class="clusterblast-orf" id="dummy-2_h2_2_30" points="644,90 660,90 665,85 660,80 644,80 644,90 "  />
</g>
<g id="a2_0031"  >
<polygon description="&lt;b&gt;DLM49_RS08340&lt;/b&gt;&lt;br&gt;cation transporter&lt;br&gt;Location: 1934961 - 1934518" style="stroke:black; fill:white; stroke-width:1; " locus_tag="DLM49_RS08340" class="clusterblast-orf" id="dummy-2_h2_2_31" points="667,85 672,80 674,80 674,90 672,90 667,85 "  />
</g>
<g id="a2_0032"  >
<polygon description="&lt;b&gt;DLM49_RS08335&lt;/b&gt;&lt;br&gt;GTP-binding protein&lt;br&gt;Location: 1934479 - 1933322" style="stroke:black; fill:white; stroke-width:1; " locus_tag="DLM49_RS08335" class="clusterblast-orf" id="dummy-2_h2_2_32" points="675,85 680,80 692,80 692,90 680,90 675,85 "  />
</g>
<g id="a2_0033"  >
<polygon description="&lt;b&gt;DLM49_RS08330&lt;/b&gt;&lt;br&gt;type B 50S ribosomal protein L31&lt;br&gt;Location: 1933322 - 1933068" style="stroke:black; fill:white; stroke-width:1; " locus_tag="DLM49_RS08330" class="clusterblast-orf" id="dummy-2_h2_2_33" points="692,85 696,80 696,90 692,85 "  />
</g>
<g id="a2_0034"  >
<polygon description="&lt;b&gt;DLM49_RS08325&lt;/b&gt;&lt;br&gt;50S ribosomal protein L28&lt;br&gt;Location: 1932939 - 1932703" style="stroke:black; fill:white; stroke-width:1; " locus_tag="DLM49_RS08325" class="clusterblast-orf" id="dummy-2_h2_2_34" points="698,90 701,85 698,80 698,90 "  />
</g>
<g id="a2_0035"  >
<polygon description="&lt;b&gt;DLM49_RS08320&lt;/b&gt;&lt;br&gt;30S ribosomal protein S14&lt;br&gt;Location: 1932703 - 1932398" style="stroke:black; fill:white; stroke-width:1; " locus_tag="DLM49_RS08320" class="clusterblast-orf" id="dummy-2_h2_2_35" points="701,90 701,90 706,85 701,80 701,80 701,90 "  />
</g>
<g id="a2_0036"  >
<polygon description="&lt;b&gt;DLM49_RS08315&lt;/b&gt;&lt;br&gt;class I SAM-dependent methyltransferase&lt;br&gt;Location: 1932306 - 1931476&lt;br&gt;&lt;br&gt;&lt;b&gt;BlastP hit with cds208245_209073&lt;/b&gt;&lt;br&gt;Percentage identity: 74&lt;br&gt;Percentage coverage: 100&lt;br&gt;BLAST bit score: 430&lt;br&gt;E-value: 9.8e-119" style="stroke:black; fill:#d81569; stroke-width:1; " locus_tag="DLM49_RS08315" class="clusterblast-orf" id="dummy-2_h2_2_36" points="707,85 712,80 719,80 719,90 712,90 707,85 "  />
</g>
<g id="a2_0037"  >
<polygon description="&lt;b&gt;DLM49_RS08310&lt;/b&gt;&lt;br&gt;GTP-binding protein&lt;br&gt;Location: 1931401 - 1930213&lt;br&gt;&lt;br&gt;&lt;b&gt;BlastP hit with cds209151_210339&lt;/b&gt;&lt;br&gt;Percentage identity: 94&lt;br&gt;Percentage coverage: 76&lt;br&gt;BLAST bit score: 558&lt;br&gt;E-value: 4.5e-157" style="stroke:black; fill:#a1d815; stroke-width:1; " locus_tag="DLM49_RS08310" class="clusterblast-orf" id="dummy-2_h2_2_37" points="720,85 725,80 738,80 738,90 725,90 720,85 "  />
</g>
<g id="a2_0038"  >
<polygon description="&lt;b&gt;DLM49_RS08305&lt;/b&gt;&lt;br&gt;50S ribosomal protein L32&lt;br&gt;Location: 1930205 - 1930035&lt;br&gt;&lt;br&gt;&lt;b&gt;BlastP hit with cds210345_210516&lt;/b&gt;&lt;br&gt;Percentage identity: 93&lt;br&gt;Percentage coverage: 100&lt;br&gt;BLAST bit score: 104&lt;br&gt;E-value: 4.3e-21" style="stroke:black; fill:#15d8ae; stroke-width:1; " locus_tag="DLM49_RS08305" class="clusterblast-orf" id="dummy-2_h2_2_38" points="738,85 741,80 741,90 738,85 "  />
</g>
<g id="a2_0039"  >
<polygon description="&lt;b&gt;DLM49_RS08300&lt;/b&gt;&lt;br&gt;hypothetical protein&lt;br&gt;Location: 1928530 - 1928090" style="stroke:black; fill:white; stroke-width:1; " locus_tag="DLM49_RS08300" class="clusterblast-orf" id="dummy-2_h2_2_39" points="763,90 765,90 770,85 765,80 763,80 763,90 "  />
</g>
<g id="a2_0040"  >
<polygon description="&lt;b&gt;DLM49_RS08295&lt;/b&gt;&lt;br&gt;hypothetical protein&lt;br&gt;Location: 1928100 - 1927435" style="stroke:black; fill:white; stroke-width:1; " locus_tag="DLM49_RS08295" class="clusterblast-orf" id="dummy-2_h2_2_40" points="770,90 775,90 780,85 775,80 770,80 770,90 "  />
</g>
</svg>
