<svg preserveAspectRatio="none" version="1.1" xmlns="http://www.w3.org/2000/svg" y="0" height="230" viewBox="0 0 800 230" x="0" width="800" xmlns:xlink="http://www.w3.org/1999/xlink"  >
<g class="clusterblast-cluster" label="Query sequence"  >
<text class="clusterblast-acc" y="20" x="5"  >
Query sequence</text>
<line x2="778.0" y1="35" style="stroke:grey; stroke-width:1; " x1="10" y2="35"  />
<polygon description="&lt;b&gt;cds24824_25796&lt;/b&gt;&lt;br&gt;D-3-phosphoglycerate dehydrogenase (EC 1.1.1.95)&lt;br&gt;Location: 24824 - 25796" style="stroke:black; fill:#d81515; stroke-width:1; " locus_tag="cds24824_25796" class="clusterblast-orf" id="dummy-1_q0_0_all" points="3,40 90,40 95,35 90,30 3,30 3,40 "  />
<polygon description="&lt;b&gt;cds25960_26557&lt;/b&gt;&lt;br&gt;putative secreted protein&lt;br&gt;Location: 25960 - 26557" style="stroke:black; fill:#15d815; stroke-width:1; " locus_tag="cds25960_26557" class="clusterblast-orf" id="dummy-1_q1_0_all" points="110,35 115,30 167,30 167,40 115,40 110,35 "  />
<polygon description="&lt;b&gt;cds26563_26779&lt;/b&gt;&lt;br&gt;hypothetical protein&lt;br&gt;Location: 26563 - 26779" style="stroke:black; fill:white; stroke-width:1; " locus_tag="cds26563_26779" class="clusterblast-orf" id="dummy-1_q2_0_all" points="167,40 183,40 188,35 183,30 167,30 167,40 "  />
<polygon description="&lt;b&gt;cds26881_27187&lt;/b&gt;&lt;br&gt;putative small membrane protein&lt;br&gt;Location: 26881 - 27187" style="stroke:black; fill:#1597d8; stroke-width:1; " locus_tag="cds26881_27187" class="clusterblast-orf" id="dummy-1_q3_0_all" points="198,40 222,40 227,35 222,30 198,30 198,40 "  />
<polygon description="&lt;b&gt;cds27263_28130&lt;/b&gt;&lt;br&gt;putative tyrosinase&lt;br&gt;Location: 27263 - 28130" style="stroke:black; fill:#9715d8; stroke-width:1; " locus_tag="cds27263_28130" class="clusterblast-orf" id="dummy-1_q4_0_all" points="234,35 239,30 316,30 316,40 239,40 234,35 "  />
<polygon description="&lt;b&gt;cds28113_28722&lt;/b&gt;&lt;br&gt;tyrosinase co-factor&lt;br&gt;Location: 28113 - 28722" style="stroke:black; fill:#d89715; stroke-width:1; " locus_tag="cds28113_28722" class="clusterblast-orf" id="dummy-1_q5_0_all" points="314,35 319,30 372,30 372,40 319,40 314,35 "  />
<polygon description="&lt;b&gt;cds28831_29347&lt;/b&gt;&lt;br&gt;putative secreted protein&lt;br&gt;Location: 28831 - 29347" style="stroke:black; fill:#15d897; stroke-width:1; " locus_tag="cds28831_29347" class="clusterblast-orf" id="dummy-1_q6_0_all" points="382,35 387,30 431,30 431,40 387,40 382,35 "  />
<polygon description="&lt;b&gt;cds29432_29714&lt;/b&gt;&lt;br&gt;putative membrane protein&lt;br&gt;Location: 29432 - 29714" style="stroke:black; fill:#1515d8; stroke-width:1; " locus_tag="cds29432_29714" class="clusterblast-orf" id="dummy-1_q7_0_all" points="439,35 444,30 466,30 466,40 444,40 439,35 "  />
<polygon description="&lt;b&gt;cds30034_30805&lt;/b&gt;&lt;br&gt;putative secreted protein&lt;br&gt;Location: 30034 - 30805" style="stroke:black; fill:#d81597; stroke-width:1; " locus_tag="cds30034_30805" class="clusterblast-orf" id="dummy-1_q8_0_all" points="496,35 501,30 570,30 570,40 501,40 496,35 "  />
<polygon description="&lt;b&gt;cds31080_31320&lt;/b&gt;&lt;br&gt;putative small membrane protein&lt;br&gt;Location: 31080 - 31320" style="stroke:black; fill:#1597d8; stroke-width:1; " locus_tag="cds31080_31320" class="clusterblast-orf" id="dummy-1_q9_0_all" points="596,35 601,30 618,30 618,40 601,40 596,35 "  />
<polygon description="&lt;b&gt;cds31709_33008&lt;/b&gt;&lt;br&gt;Putative transferase&lt;br&gt;Location: 31709 - 33008" style="stroke:black; fill:#97d815; stroke-width:1; " locus_tag="cds31709_33008" class="clusterblast-orf" id="dummy-1_q10_0_all" points="655,40 773,40 778,35 773,30 655,30 655,40 "  />
</g>
<g description="NZ_KZ819184 (1544416-1555025): Streptomyces sp. CS207 scaffold00001, whole ge... (100% of genes show similarity), melanin" class="clusterblast-cluster" label="NZ_KZ819184"  >
<text class="clusterblast-acc" y="70" x="5"  >
<a xlink:href="https://antismash-db.secondarymetabolites.org/area.html?record=NZ_KZ819184&amp;start=1544416&amp;end=1555025" target="_blank">NZ_KZ819184 (1544416-1555025)</a>: Streptomyces sp. CS207 scaffold00001, whole ge... (100% of genes show similarity), melanin</text>
<line x2="778.0" y1="85" style="stroke:grey; stroke-width:1; " x1="10" y2="85"  />
</g>
<g id="a1_000"  >
<polygon description="&lt;b&gt;DBP22_RS07075&lt;/b&gt;&lt;br&gt;D-2-hydroxyacid dehydrogenase family protein&lt;br&gt;Location: 1553371 - 1552415&lt;br&gt;&lt;br&gt;&lt;b&gt;BlastP hit with cds24824_25796&lt;/b&gt;&lt;br&gt;Percentage identity: 99&lt;br&gt;Percentage coverage: 99&lt;br&gt;BLAST bit score: 609&lt;br&gt;E-value: 1.4e-172" style="stroke:black; fill:#d81515; stroke-width:1; " locus_tag="DBP22_RS07075" class="clusterblast-orf" id="dummy-1_h1_3_0" points="0,90 85,90 90,85 85,80 0,80 0,90 "  />
</g>
<g id="a1_001"  >
<polygon description="&lt;b&gt;DBP22_RS07070&lt;/b&gt;&lt;br&gt;DUF2087 domain-containing protein&lt;br&gt;Location: 1552178 - 1551582&lt;br&gt;&lt;br&gt;&lt;b&gt;BlastP hit with cds25960_26557&lt;/b&gt;&lt;br&gt;Percentage identity: 99&lt;br&gt;Percentage coverage: 100&lt;br&gt;BLAST bit score: 379&lt;br&gt;E-value: 1.9e-103" style="stroke:black; fill:#15d815; stroke-width:1; " locus_tag="DBP22_RS07070" class="clusterblast-orf" id="dummy-1_h1_3_1" points="113,85 118,80 169,80 169,90 118,90 113,85 "  />
</g>
<g id="a1_002"  >
<polygon description="&lt;b&gt;DBP22_RS07065&lt;/b&gt;&lt;br&gt;chaplin&lt;br&gt;Location: 1551257 - 1550952&lt;br&gt;&lt;br&gt;&lt;b&gt;BlastP hit with cds26881_27187&lt;/b&gt;&lt;br&gt;Percentage identity: 100&lt;br&gt;Percentage coverage: 100&lt;br&gt;BLAST bit score: 185&lt;br&gt;E-value: 2e-45&lt;br&gt;&lt;br&gt;&lt;b&gt;BlastP hit with cds31080_31320&lt;/b&gt;&lt;br&gt;Percentage identity: 55&lt;br&gt;Percentage coverage: 99&lt;br&gt;BLAST bit score: 84&lt;br&gt;E-value: 5e-15" style="stroke:black; fill:#1597d8; stroke-width:1; " locus_tag="DBP22_RS07065" class="clusterblast-orf" id="dummy-1_h1_3_2" points="200,90 224,90 229,85 224,80 200,80 200,90 "  />
</g>
<g id="a1_003"  >
<polygon description="&lt;b&gt;DBP22_RS07060&lt;/b&gt;&lt;br&gt;tyrosinase family protein&lt;br&gt;Location: 1550875 - 1550009&lt;br&gt;&lt;br&gt;&lt;b&gt;BlastP hit with cds27263_28130&lt;/b&gt;&lt;br&gt;Percentage identity: 100&lt;br&gt;Percentage coverage: 100&lt;br&gt;BLAST bit score: 617&lt;br&gt;E-value: 5.9e-175" style="stroke:black; fill:#9715d8; stroke-width:1; " locus_tag="DBP22_RS07060" class="clusterblast-orf" id="dummy-1_h1_3_3" points="236,85 241,80 318,80 318,90 241,90 236,85 "  />
</g>
<g id="a1_004"  >
<polygon description="&lt;b&gt;DBP22_RS07055&lt;/b&gt;&lt;br&gt;tyrosinase&lt;br&gt;Location: 1550025 - 1549417&lt;br&gt;&lt;br&gt;&lt;b&gt;BlastP hit with cds28113_28722&lt;/b&gt;&lt;br&gt;Percentage identity: 99&lt;br&gt;Percentage coverage: 54&lt;br&gt;BLAST bit score: 227&lt;br&gt;E-value: 9.3e-58" style="stroke:black; fill:#d89715; stroke-width:1; " locus_tag="DBP22_RS07055" class="clusterblast-orf" id="dummy-1_h1_3_4" points="317,85 322,80 374,80 374,90 322,90 317,85 "  />
</g>
<g id="a1_005"  >
<polygon description="&lt;b&gt;DBP22_RS07050&lt;/b&gt;&lt;br&gt;hypothetical protein&lt;br&gt;Location: 1549307 - 1548792&lt;br&gt;&lt;br&gt;&lt;b&gt;BlastP hit with cds28831_29347&lt;/b&gt;&lt;br&gt;Percentage identity: 100&lt;br&gt;Percentage coverage: 100&lt;br&gt;BLAST bit score: 281&lt;br&gt;E-value: 6e-74" style="stroke:black; fill:#15d897; stroke-width:1; " locus_tag="DBP22_RS07050" class="clusterblast-orf" id="dummy-1_h1_3_5" points="385,85 390,80 434,80 434,90 390,90 385,85 "  />
</g>
<g id="a1_006"  >
<polygon description="&lt;b&gt;DBP22_RS07045&lt;/b&gt;&lt;br&gt;hypothetical protein&lt;br&gt;Location: 1548706 - 1548425&lt;br&gt;&lt;br&gt;&lt;b&gt;BlastP hit with cds29432_29714&lt;/b&gt;&lt;br&gt;Percentage identity: 100&lt;br&gt;Percentage coverage: 100&lt;br&gt;BLAST bit score: 173&lt;br&gt;E-value: 9.6e-42" style="stroke:black; fill:#1515d8; stroke-width:1; " locus_tag="DBP22_RS07045" class="clusterblast-orf" id="dummy-1_h1_3_6" points="442,85 447,80 468,80 468,90 447,90 442,85 "  />
</g>
<g id="a1_007"  >
<polygon description="&lt;b&gt;DBP22_RS07040&lt;/b&gt;&lt;br&gt;hypothetical protein&lt;br&gt;Location: 1548104 - 1547346&lt;br&gt;&lt;br&gt;&lt;b&gt;BlastP hit with cds30034_30805&lt;/b&gt;&lt;br&gt;Percentage identity: 97&lt;br&gt;Percentage coverage: 92&lt;br&gt;BLAST bit score: 282&lt;br&gt;E-value: 3.1e-74" style="stroke:black; fill:#d81597; stroke-width:1; " locus_tag="DBP22_RS07040" class="clusterblast-orf" id="dummy-1_h1_3_7" points="499,85 504,80 571,80 571,90 504,90 499,85 "  />
</g>
<g id="a1_008"  >
<polygon description="&lt;b&gt;DBP22_RS07035&lt;/b&gt;&lt;br&gt;chaplin&lt;br&gt;Location: 1547070 - 1546831&lt;br&gt;&lt;br&gt;&lt;b&gt;BlastP hit with cds26881_27187&lt;/b&gt;&lt;br&gt;Percentage identity: 55&lt;br&gt;Percentage coverage: 77&lt;br&gt;BLAST bit score: 73&lt;br&gt;E-value: 1.1e-11&lt;br&gt;&lt;br&gt;&lt;b&gt;BlastP hit with cds31080_31320&lt;/b&gt;&lt;br&gt;Percentage identity: 100&lt;br&gt;Percentage coverage: 100&lt;br&gt;BLAST bit score: 113&lt;br&gt;E-value: 1e-23" style="stroke:black; fill:#1597d8; stroke-width:1; " locus_tag="DBP22_RS07035" class="clusterblast-orf" id="dummy-1_h1_3_8" points="597,85 602,80 619,80 619,90 602,90 597,85 "  />
</g>
<g id="a1_009"  >
<polygon description="&lt;b&gt;DBP22_RS07030&lt;/b&gt;&lt;br&gt;glycosyltransferase&lt;br&gt;Location: 1546441 - 1545143&lt;br&gt;&lt;br&gt;&lt;b&gt;BlastP hit with cds31709_33008&lt;/b&gt;&lt;br&gt;Percentage identity: 95&lt;br&gt;Percentage coverage: 100&lt;br&gt;BLAST bit score: 785&lt;br&gt;E-value: 2.5e-225" style="stroke:black; fill:#97d815; stroke-width:1; " locus_tag="DBP22_RS07030" class="clusterblast-orf" id="dummy-1_h1_3_9" points="656,90 775,90 780,85 775,80 656,80 656,90 "  />
</g>
</svg>
