<svg preserveAspectRatio="none" version="1.1" xmlns="http://www.w3.org/2000/svg" y="0" height="230" viewBox="0 0 800 230" x="0" width="800" xmlns:xlink="http://www.w3.org/1999/xlink"  >
<g class="clusterblast-cluster" label="Query sequence"  >
<text class="clusterblast-acc" y="20" x="5"  >
Query sequence</text>
<line x2="778.0" y1="35" style="stroke:grey; stroke-width:1; " x1="10" y2="35"  />
<polygon description="&lt;b&gt;cds222226_222817&lt;/b&gt;&lt;br&gt;Transcriptional regulator, AcrR family&lt;br&gt;Location: 222226 - 222817" style="stroke:black; fill:#d81515; stroke-width:1; " locus_tag="cds222226_222817" class="clusterblast-orf" id="dummy-3_q0_0_all" points="272,35 277,30 278,30 278,40 277,40 272,35 "  />
<polygon description="&lt;b&gt;cds222931_223405&lt;/b&gt;&lt;br&gt;COGs COG3558&lt;br&gt;Location: 222931 - 223405" style="stroke:black; fill:#67d815; stroke-width:1; " locus_tag="cds222931_223405" class="clusterblast-orf" id="dummy-3_q1_0_all" points="280,40 280,40 285,35 280,30 280,30 280,40 "  />
<polygon description="&lt;b&gt;cds223529_223880&lt;/b&gt;&lt;br&gt;hypothetical protein&lt;br&gt;Location: 223529 - 223880" style="stroke:black; fill:#15b9d8; stroke-width:1; " locus_tag="cds223529_223880" class="clusterblast-orf" id="dummy-3_q2_0_all" points="286,40 290,35 286,30 286,40 "  />
<polygon description="&lt;b&gt;cds224079_224511&lt;/b&gt;&lt;br&gt;hypothetical protein&lt;br&gt;Location: 224079 - 224511" style="stroke:black; fill:#a515d8; stroke-width:1; " locus_tag="cds224079_224511" class="clusterblast-orf" id="dummy-3_q3_0_all" points="292,40 296,35 292,30 292,40 "  />
<polygon description="&lt;b&gt;cds224566_225784&lt;/b&gt;&lt;br&gt;NADH dehydrogenase (EC 1.6.99.3)&lt;br&gt;Location: 224566 - 225784" style="stroke:black; fill:#d85315; stroke-width:1; " locus_tag="cds224566_225784" class="clusterblast-orf" id="dummy-3_q4_0_all" points="297,35 302,30 310,30 310,40 302,40 297,35 "  />
<polygon description="&lt;b&gt;cds225876_226821&lt;/b&gt;&lt;br&gt;RNA polymerase sigma-70 factor&lt;br&gt;Location: 225876 - 226821" style="stroke:black; fill:#2ad815; stroke-width:1; " locus_tag="cds225876_226821" class="clusterblast-orf" id="dummy-3_q5_0_all" points="311,35 316,30 320,30 320,40 316,40 311,35 "  />
<polygon description="&lt;b&gt;cds226831_226969&lt;/b&gt;&lt;br&gt;hypothetical protein&lt;br&gt;Location: 226831 - 226969" style="stroke:black; fill:white; stroke-width:1; " locus_tag="cds226831_226969" class="clusterblast-orf" id="dummy-3_q6_0_all" points="321,35 322,30 322,40 321,35 "  />
<polygon description="&lt;b&gt;cds227101_229465&lt;/b&gt;&lt;br&gt;Alkaline phosphatase (EC 3.1.3.1)&lt;br&gt;Location: 227101 - 229465" style="stroke:black; fill:#157cd8; stroke-width:1; " locus_tag="cds227101_229465" class="clusterblast-orf" id="dummy-3_q7_0_all" points="323,40 343,40 348,35 343,30 323,30 323,40 "  />
<polygon description="&lt;b&gt;cds229688_230300&lt;/b&gt;&lt;br&gt;Dihydrofolate reductase (EC 1.5.1.3)&lt;br&gt;Location: 229688 - 230300" style="stroke:black; fill:#d815ce; stroke-width:1; " locus_tag="cds229688_230300" class="clusterblast-orf" id="dummy-3_q8_0_all" points="351,40 352,40 357,35 352,30 351,30 351,40 "  />
<polygon description="&lt;b&gt;cds230329_230470&lt;/b&gt;&lt;br&gt;hypothetical protein&lt;br&gt;Location: 230329 - 230470" style="stroke:black; fill:white; stroke-width:1; " locus_tag="cds230329_230470" class="clusterblast-orf" id="dummy-3_q9_0_all" points="357,35 359,30 359,40 357,35 "  />
<polygon description="&lt;b&gt;cds230491_230653&lt;/b&gt;&lt;br&gt;conserved hypothetical protein&lt;br&gt;Location: 230491 - 230653" style="stroke:black; fill:#d89015; stroke-width:1; " locus_tag="cds230491_230653" class="clusterblast-orf" id="dummy-3_q10_0_all" points="359,40 361,35 359,30 359,40 "  />
<polygon description="&lt;b&gt;cds230737_233917&lt;/b&gt;&lt;br&gt;Lanthionine biosynthesis protein LanB&lt;br&gt;Location: 230737 - 233917" style="stroke:black; fill:#15d83e; stroke-width:1; " locus_tag="cds230737_233917" class="clusterblast-orf" id="dummy-3_q11_0_all" points="362,40 390,40 395,35 390,30 362,30 362,40 "  />
<polygon description="&lt;b&gt;cds233913_235332&lt;/b&gt;&lt;br&gt;Lanthionine biosynthesis cyclase LanC&lt;br&gt;Location: 233913 - 235332" style="stroke:black; fill:#153ed8; stroke-width:1; " locus_tag="cds233913_235332" class="clusterblast-orf" id="dummy-3_q12_0_all" points="395,40 405,40 410,35 405,30 395,30 395,40 "  />
<polygon description="&lt;b&gt;cds235346_236273&lt;/b&gt;&lt;br&gt;hypothetical protein&lt;br&gt;Location: 235346 - 236273" style="stroke:black; fill:#d81590; stroke-width:1; " locus_tag="cds235346_236273" class="clusterblast-orf" id="dummy-3_q13_0_all" points="410,35 415,30 420,30 420,40 415,40 410,35 "  />
<polygon description="&lt;b&gt;cds236352_236910&lt;/b&gt;&lt;br&gt;Dihydrofolate reductase (EC 1.5.1.3)&lt;br&gt;Location: 236352 - 236910" style="stroke:black; fill:#d8ce15; stroke-width:1; " locus_tag="cds236352_236910" class="clusterblast-orf" id="dummy-3_q14_0_all" points="420,35 425,30 426,30 426,40 425,40 420,35 "  />
<polygon description="&lt;b&gt;cds237169_238093&lt;/b&gt;&lt;br&gt;Transcriptional regulator, AcrR family&lt;br&gt;Location: 237169 - 238093" style="stroke:black; fill:#15d87c; stroke-width:1; " locus_tag="cds237169_238093" class="clusterblast-orf" id="dummy-3_q15_0_all" points="429,35 434,30 439,30 439,40 434,40 429,35 "  />
<polygon description="&lt;b&gt;cds238308_239376&lt;/b&gt;&lt;br&gt;hypothetical protein&lt;br&gt;Location: 238308 - 239376" style="stroke:black; fill:white; stroke-width:1; " locus_tag="cds238308_239376" class="clusterblast-orf" id="dummy-3_q16_0_all" points="441,40 447,40 452,35 447,30 441,30 441,40 "  />
<polygon description="&lt;b&gt;cds239584_240451&lt;/b&gt;&lt;br&gt;hypothetical protein&lt;br&gt;Location: 239584 - 240451" style="stroke:black; fill:#2a15d8; stroke-width:1; " locus_tag="cds239584_240451" class="clusterblast-orf" id="dummy-3_q17_0_all" points="454,40 458,40 463,35 458,30 454,30 454,40 "  />
<polygon description="&lt;b&gt;cds240569_241835&lt;/b&gt;&lt;br&gt;hypothetical protein&lt;br&gt;Location: 240569 - 241835" style="stroke:black; fill:#d81553; stroke-width:1; " locus_tag="cds240569_241835" class="clusterblast-orf" id="dummy-3_q18_0_all" points="465,35 470,30 478,30 478,40 470,40 465,35 "  />
<polygon description="&lt;b&gt;cds242088_242667&lt;/b&gt;&lt;br&gt;Acetyltransferase, GNAT family&lt;br&gt;Location: 242088 - 242667" style="stroke:black; fill:#a5d815; stroke-width:1; " locus_tag="cds242088_242667" class="clusterblast-orf" id="dummy-3_q19_0_all" points="481,40 482,40 487,35 482,30 481,30 481,40 "  />
<polygon description="&lt;b&gt;cds242715_243378&lt;/b&gt;&lt;br&gt;hypothetical protein&lt;br&gt;Location: 242715 - 243378" style="stroke:black; fill:#15d8b9; stroke-width:1; " locus_tag="cds242715_243378" class="clusterblast-orf" id="dummy-3_q20_0_all" points="487,40 489,40 494,35 489,30 487,30 487,40 "  />
<polygon description="&lt;b&gt;cds243575_244595&lt;/b&gt;&lt;br&gt;Transcriptional regulator, LacI family&lt;br&gt;Location: 243575 - 244595" style="stroke:black; fill:#6715d8; stroke-width:1; " locus_tag="cds243575_244595" class="clusterblast-orf" id="dummy-3_q21_0_all" points="496,40 502,40 507,35 502,30 496,30 496,40 "  />
</g>
<g description="NZ_CP039123 (7801014-7876557): Streptomyces sp. SS52 chromosome, complete genome (30% of genes show similarity), NRPS,lanthipeptide" class="clusterblast-cluster" label="NZ_CP039123"  >
<text class="clusterblast-acc" y="70" x="5"  >
<a xlink:href="https://antismash-db.secondarymetabolites.org/area.html?record=NZ_CP039123&amp;start=7801014&amp;end=7876557" target="_blank">NZ_CP039123 (7801014-7876557)</a>: Streptomyces sp. SS52 chromosome, complete genome (30% of genes show similarity), NRPS,lanthipeptide</text>
<line x2="778.0" y1="85" style="stroke:grey; stroke-width:1; " x1="10" y2="85"  />
</g>
<g id="a3_000"  >
<polygon description="&lt;b&gt;E5N77_RS34865&lt;/b&gt;&lt;br&gt;VOC family protein&lt;br&gt;Location: 7802200 - 7802595" style="stroke:black; fill:white; stroke-width:1; " locus_tag="E5N77_RS34865" class="clusterblast-orf" id="dummy-3_h3_2_0" points="0,85 4,80 4,90 0,85 "  />
</g>
<g id="a3_001"  >
<polygon description="&lt;b&gt;E5N77_RS34870&lt;/b&gt;&lt;br&gt;class I SAM-dependent methyltransferase&lt;br&gt;Location: 7802702 - 7803301" style="stroke:black; fill:white; stroke-width:1; " locus_tag="E5N77_RS34870" class="clusterblast-orf" id="dummy-3_h3_2_1" points="5,90 6,90 11,85 6,80 5,80 5,90 "  />
</g>
<g id="a3_002"  >
<polygon description="&lt;b&gt;E5N77_RS34875&lt;/b&gt;&lt;br&gt;hypothetical protein&lt;br&gt;Location: 7803323 - 7804495" style="stroke:black; fill:white; stroke-width:1; " locus_tag="E5N77_RS34875" class="clusterblast-orf" id="dummy-3_h3_2_2" points="11,85 16,80 24,80 24,90 16,90 11,85 "  />
</g>
<g id="a3_003"  >
<polygon description="&lt;b&gt;E5N77_RS34880&lt;/b&gt;&lt;br&gt;hypothetical protein&lt;br&gt;Location: 7804950 - 7805414" style="stroke:black; fill:white; stroke-width:1; " locus_tag="E5N77_RS34880" class="clusterblast-orf" id="dummy-3_h3_2_3" points="28,90 28,90 33,85 28,80 28,80 28,90 "  />
</g>
<g id="a3_004"  >
<polygon description="&lt;b&gt;E5N77_RS34885&lt;/b&gt;&lt;br&gt;VOC family protein&lt;br&gt;Location: 7805484 - 7806215" style="stroke:black; fill:white; stroke-width:1; " locus_tag="E5N77_RS34885" class="clusterblast-orf" id="dummy-3_h3_2_4" points="34,85 39,80 42,80 42,90 39,90 34,85 "  />
</g>
<g id="a3_005"  >
<polygon description="&lt;b&gt;E5N77_RS34895&lt;/b&gt;&lt;br&gt;alpha/beta hydrolase&lt;br&gt;Location: 7806536 - 7807276" style="stroke:black; fill:white; stroke-width:1; " locus_tag="E5N77_RS34895" class="clusterblast-orf" id="dummy-3_h3_2_5" points="45,90 48,90 53,85 48,80 45,80 45,90 "  />
</g>
<g id="a3_006"  >
<polygon description="&lt;b&gt;E5N77_RS34900&lt;/b&gt;&lt;br&gt;PH domain-containing protein&lt;br&gt;Location: 7807313 - 7808050" style="stroke:black; fill:white; stroke-width:1; " locus_tag="E5N77_RS34900" class="clusterblast-orf" id="dummy-3_h3_2_6" points="53,85 58,80 61,80 61,90 58,90 53,85 "  />
</g>
<g id="a3_007"  >
<polygon description="&lt;b&gt;E5N77_RS34905&lt;/b&gt;&lt;br&gt;LysR family transcriptional regulator&lt;br&gt;Location: 7808181 - 7809017" style="stroke:black; fill:white; stroke-width:1; " locus_tag="E5N77_RS34905" class="clusterblast-orf" id="dummy-3_h3_2_7" points="62,85 67,80 71,80 71,90 67,90 62,85 "  />
</g>
<g id="a3_008"  >
<polygon description="&lt;b&gt;E5N77_RS34910&lt;/b&gt;&lt;br&gt;cupin domain-containing protein&lt;br&gt;Location: 7809114 - 7809608" style="stroke:black; fill:white; stroke-width:1; " locus_tag="E5N77_RS34910" class="clusterblast-orf" id="dummy-3_h3_2_8" points="72,90 72,90 77,85 72,80 72,80 72,90 "  />
</g>
<g id="a3_009"  >
<polygon description="&lt;b&gt;E5N77_RS34915&lt;/b&gt;&lt;br&gt;DoxX family protein&lt;br&gt;Location: 7809620 - 7809979" style="stroke:black; fill:white; stroke-width:1; " locus_tag="E5N77_RS34915" class="clusterblast-orf" id="dummy-3_h3_2_9" points="77,90 81,85 77,80 77,90 "  />
</g>
<g id="a3_0010"  >
<polygon description="&lt;b&gt;E5N77_RS34920&lt;/b&gt;&lt;br&gt;ABC transporter ATP-binding protein&lt;br&gt;Location: 7809972 - 7810673" style="stroke:black; fill:white; stroke-width:1; " locus_tag="E5N77_RS34920" class="clusterblast-orf" id="dummy-3_h3_2_10" points="81,85 86,80 88,80 88,90 86,90 81,85 "  />
</g>
<g id="a3_0011"  >
<polygon description="&lt;b&gt;E5N77_RS34925&lt;/b&gt;&lt;br&gt;ABC transporter ATP-binding protein&lt;br&gt;Location: 7810670 - 7811629" style="stroke:black; fill:white; stroke-width:1; " locus_tag="E5N77_RS34925" class="clusterblast-orf" id="dummy-3_h3_2_11" points="88,85 93,80 98,80 98,90 93,90 88,85 "  />
</g>
<g id="a3_0012"  >
<polygon description="&lt;b&gt;E5N77_RS34930&lt;/b&gt;&lt;br&gt;ABC transporter permease subunit&lt;br&gt;Location: 7811598 - 7813364" style="stroke:black; fill:white; stroke-width:1; " locus_tag="E5N77_RS34930" class="clusterblast-orf" id="dummy-3_h3_2_12" points="98,85 103,80 117,80 117,90 103,90 98,85 "  />
</g>
<g id="a3_0013"  >
<polygon description="&lt;b&gt;E5N77_RS34935&lt;/b&gt;&lt;br&gt;ABC transporter substrate-binding protein&lt;br&gt;Location: 7813361 - 7814848" style="stroke:black; fill:white; stroke-width:1; " locus_tag="E5N77_RS34935" class="clusterblast-orf" id="dummy-3_h3_2_13" points="117,85 122,80 132,80 132,90 122,90 117,85 "  />
</g>
<g id="a3_0014"  >
<polygon description="&lt;b&gt;E5N77_RS34940&lt;/b&gt;&lt;br&gt;transcriptional repressor&lt;br&gt;Location: 7814918 - 7815421" style="stroke:black; fill:white; stroke-width:1; " locus_tag="E5N77_RS34940" class="clusterblast-orf" id="dummy-3_h3_2_14" points="133,85 138,80 138,80 138,90 138,90 133,85 "  />
</g>
<g id="a3_0015"  >
<polygon description="&lt;b&gt;E5N77_RS34945&lt;/b&gt;&lt;br&gt;ferredoxin&lt;br&gt;Location: 7815642 - 7815875" style="stroke:black; fill:white; stroke-width:1; " locus_tag="E5N77_RS34945" class="clusterblast-orf" id="dummy-3_h3_2_15" points="141,90 143,85 141,80 141,90 "  />
</g>
<g id="a3_0016"  >
<polygon description="&lt;b&gt;E5N77_RS34950&lt;/b&gt;&lt;br&gt;ABC transporter substrate-binding protein&lt;br&gt;Location: 7815985 - 7817571" style="stroke:black; fill:white; stroke-width:1; " locus_tag="E5N77_RS34950" class="clusterblast-orf" id="dummy-3_h3_2_16" points="144,90 156,90 161,85 156,80 144,80 144,90 "  />
</g>
<g id="a3_0017"  >
<polygon description="&lt;b&gt;E5N77_RS34955&lt;/b&gt;&lt;br&gt;ABC transporter permease&lt;br&gt;Location: 7817568 - 7818518" style="stroke:black; fill:white; stroke-width:1; " locus_tag="E5N77_RS34955" class="clusterblast-orf" id="dummy-3_h3_2_17" points="161,90 166,90 171,85 166,80 161,80 161,90 "  />
</g>
<g id="a3_0018"  >
<polygon description="&lt;b&gt;E5N77_RS34960&lt;/b&gt;&lt;br&gt;ABC transporter permease subunit&lt;br&gt;Location: 7818515 - 7819375" style="stroke:black; fill:white; stroke-width:1; " locus_tag="E5N77_RS34960" class="clusterblast-orf" id="dummy-3_h3_2_18" points="171,90 175,90 180,85 175,80 171,80 171,90 "  />
</g>
<g id="a3_0019"  >
<polygon description="&lt;b&gt;E5N77_RS34965&lt;/b&gt;&lt;br&gt;ABC transporter ATP-binding protein&lt;br&gt;Location: 7819372 - 7820952" style="stroke:black; fill:white; stroke-width:1; " locus_tag="E5N77_RS34965" class="clusterblast-orf" id="dummy-3_h3_2_19" points="180,90 191,90 196,85 191,80 180,80 180,90 "  />
</g>
<g id="a3_0020"  >
<polygon description="&lt;b&gt;E5N77_RS34970&lt;/b&gt;&lt;br&gt;(2,3-dihydroxybenzoyl)adenylate synthase&lt;br&gt;Location: 7821015 - 7822652" style="stroke:black; fill:white; stroke-width:1; " locus_tag="E5N77_RS34970" class="clusterblast-orf" id="dummy-3_h3_2_20" points="197,85 202,80 214,80 214,90 202,90 197,85 "  />
</g>
<g id="a3_0021"  >
<polygon description="&lt;b&gt;E5N77_RS34975&lt;/b&gt;&lt;br&gt;amino acid adenylation domain-containing protein&lt;br&gt;Location: 7822834 - 7829586" style="stroke:black; fill:white; stroke-width:1; " locus_tag="E5N77_RS34975" class="clusterblast-orf" id="dummy-3_h3_2_21" points="216,90 282,90 287,85 282,80 216,80 216,90 "  />
</g>
<g id="a3_0022"  >
<polygon description="&lt;b&gt;E5N77_RS34980&lt;/b&gt;&lt;br&gt;amino acid adenylation domain-containing protein&lt;br&gt;Location: 7829583 - 7835111" style="stroke:black; fill:white; stroke-width:1; " locus_tag="E5N77_RS34980" class="clusterblast-orf" id="dummy-3_h3_2_22" points="287,90 340,90 345,85 340,80 287,80 287,90 "  />
</g>
<g id="a3_0023"  >
<polygon description="&lt;b&gt;E5N77_RS34985&lt;/b&gt;&lt;br&gt;NAD(P)H-binding protein&lt;br&gt;Location: 7835108 - 7836259" style="stroke:black; fill:white; stroke-width:1; " locus_tag="E5N77_RS34985" class="clusterblast-orf" id="dummy-3_h3_2_23" points="345,90 352,90 357,85 352,80 345,80 345,90 "  />
</g>
<g id="a3_0024"  >
<polygon description="&lt;b&gt;E5N77_RS34990&lt;/b&gt;&lt;br&gt;Gfo/Idh/MocA family oxidoreductase&lt;br&gt;Location: 7836256 - 7838370" style="stroke:black; fill:white; stroke-width:1; " locus_tag="E5N77_RS34990" class="clusterblast-orf" id="dummy-3_h3_2_24" points="357,90 374,90 379,85 374,80 357,80 357,90 "  />
</g>
<g id="a3_0025"  >
<polygon description="&lt;b&gt;E5N77_RS34995&lt;/b&gt;&lt;br&gt;cytochrome P450&lt;br&gt;Location: 7838380 - 7839630" style="stroke:black; fill:white; stroke-width:1; " locus_tag="E5N77_RS34995" class="clusterblast-orf" id="dummy-3_h3_2_25" points="379,90 387,90 392,85 387,80 379,80 379,90 "  />
</g>
<g id="a3_0026"  >
<polygon description="&lt;b&gt;E5N77_RS35000&lt;/b&gt;&lt;br&gt;thioesterase&lt;br&gt;Location: 7839627 - 7840466" style="stroke:black; fill:white; stroke-width:1; " locus_tag="E5N77_RS35000" class="clusterblast-orf" id="dummy-3_h3_2_26" points="392,90 396,90 401,85 396,80 392,80 392,90 "  />
</g>
<g id="a3_0027"  >
<polygon description="&lt;b&gt;E5N77_RS35005&lt;/b&gt;&lt;br&gt;class I SAM-dependent methyltransferase&lt;br&gt;Location: 7840561 - 7841289" style="stroke:black; fill:white; stroke-width:1; " locus_tag="E5N77_RS35005" class="clusterblast-orf" id="dummy-3_h3_2_27" points="402,90 405,90 410,85 405,80 402,80 402,90 "  />
</g>
<g id="a3_0028"  >
<polygon description="&lt;b&gt;E5N77_RS35010&lt;/b&gt;&lt;br&gt;ABC transporter ATP-binding protein&lt;br&gt;Location: 7841286 - 7843106" style="stroke:black; fill:white; stroke-width:1; " locus_tag="E5N77_RS35010" class="clusterblast-orf" id="dummy-3_h3_2_28" points="410,90 424,90 429,85 424,80 410,80 410,90 "  />
</g>
<g id="a3_0029"  >
<polygon description="&lt;b&gt;E5N77_RS35015&lt;/b&gt;&lt;br&gt;ABC transporter ATP-binding protein&lt;br&gt;Location: 7843103 - 7844878" style="stroke:black; fill:white; stroke-width:1; " locus_tag="E5N77_RS35015" class="clusterblast-orf" id="dummy-3_h3_2_29" points="429,90 442,90 447,85 442,80 429,80 429,90 "  />
</g>
<g id="a3_0030"  >
<polygon description="&lt;b&gt;E5N77_RS35020&lt;/b&gt;&lt;br&gt;salicylate synthase&lt;br&gt;Location: 7844937 - 7846340" style="stroke:black; fill:white; stroke-width:1; " locus_tag="E5N77_RS35020" class="clusterblast-orf" id="dummy-3_h3_2_30" points="448,90 458,90 463,85 458,80 448,80 448,90 "  />
</g>
<g id="a3_0031"  >
<polygon description="&lt;b&gt;E5N77_RS35025&lt;/b&gt;&lt;br&gt;class I SAM-dependent methyltransferase&lt;br&gt;Location: 7846436 - 7847263" style="stroke:black; fill:white; stroke-width:1; " locus_tag="E5N77_RS35025" class="clusterblast-orf" id="dummy-3_h3_2_31" points="464,85 469,80 472,80 472,90 469,90 464,85 "  />
</g>
<g id="a3_0032"  >
<polygon description="&lt;b&gt;E5N77_RS35030&lt;/b&gt;&lt;br&gt;GTP-binding protein&lt;br&gt;Location: 7847342 - 7848529" style="stroke:black; fill:white; stroke-width:1; " locus_tag="E5N77_RS35030" class="clusterblast-orf" id="dummy-3_h3_2_32" points="473,85 478,80 485,80 485,90 478,90 473,85 "  />
</g>
<g id="a3_0033"  >
<polygon description="&lt;b&gt;E5N77_RS35035&lt;/b&gt;&lt;br&gt;50S ribosomal protein L32&lt;br&gt;Location: 7848536 - 7848706" style="stroke:black; fill:white; stroke-width:1; " locus_tag="E5N77_RS35035" class="clusterblast-orf" id="dummy-3_h3_2_33" points="486,85 487,80 487,90 486,85 "  />
</g>
<g id="a3_0034"  >
<polygon description="&lt;b&gt;E5N77_RS35040&lt;/b&gt;&lt;br&gt;oxidoreductase&lt;br&gt;Location: 7848785 - 7849474" style="stroke:black; fill:white; stroke-width:1; " locus_tag="E5N77_RS35040" class="clusterblast-orf" id="dummy-3_h3_2_34" points="488,85 493,80 495,80 495,90 493,90 488,85 "  />
</g>
<g id="a3_0035"  >
<polygon description="&lt;b&gt;E5N77_RS35045&lt;/b&gt;&lt;br&gt;TetR/AcrR family transcriptional regulator&lt;br&gt;Location: 7849577 - 7850170" style="stroke:black; fill:white; stroke-width:1; " locus_tag="E5N77_RS35045" class="clusterblast-orf" id="dummy-3_h3_2_35" points="496,90 498,90 503,85 498,80 496,80 496,90 "  />
</g>
<g id="a3_0036"  >
<polygon description="&lt;b&gt;E5N77_RS35050&lt;/b&gt;&lt;br&gt;polysaccharide deacetylase family protein&lt;br&gt;Location: 7850652 - 7851425" style="stroke:black; fill:white; stroke-width:1; " locus_tag="E5N77_RS35050" class="clusterblast-orf" id="dummy-3_h3_2_36" points="508,90 511,90 516,85 511,80 508,80 508,90 "  />
</g>
<g id="a3_0037"  >
<polygon description="&lt;b&gt;E5N77_RS35055&lt;/b&gt;&lt;br&gt;VOC family protein&lt;br&gt;Location: 7851506 - 7851934" style="stroke:black; fill:white; stroke-width:1; " locus_tag="E5N77_RS35055" class="clusterblast-orf" id="dummy-3_h3_2_37" points="517,85 521,80 521,90 517,85 "  />
</g>
<g id="a3_0038"  >
<polygon description="&lt;b&gt;E5N77_RS35060&lt;/b&gt;&lt;br&gt;PadR family transcriptional regulator&lt;br&gt;Location: 7852095 - 7852667" style="stroke:black; fill:white; stroke-width:1; " locus_tag="E5N77_RS35060" class="clusterblast-orf" id="dummy-3_h3_2_38" points="523,90 524,90 529,85 524,80 523,80 523,90 "  />
</g>
<g id="a3_0039"  >
<polygon description="&lt;b&gt;E5N77_RS35065&lt;/b&gt;&lt;br&gt;acyl-CoA dehydrogenase&lt;br&gt;Location: 7852724 - 7854442" style="stroke:black; fill:white; stroke-width:1; " locus_tag="E5N77_RS35065" class="clusterblast-orf" id="dummy-3_h3_2_39" points="529,90 543,90 548,85 543,80 529,80 529,90 "  />
</g>
<g id="a3_0040"  >
<polygon description="&lt;b&gt;E5N77_RS35070&lt;/b&gt;&lt;br&gt;TetR/AcrR family transcriptional regulator&lt;br&gt;Location: 7854501 - 7855091&lt;br&gt;&lt;br&gt;&lt;b&gt;BlastP hit with cds222226_222817&lt;/b&gt;&lt;br&gt;Percentage identity: 100&lt;br&gt;Percentage coverage: 100&lt;br&gt;BLAST bit score: 382&lt;br&gt;E-value: 2.9e-104" style="stroke:black; fill:#d81515; stroke-width:1; " locus_tag="E5N77_RS35070" class="clusterblast-orf" id="dummy-3_h3_2_40" points="548,85 553,80 554,80 554,90 553,90 548,85 "  />
</g>
<g id="a3_0041"  >
<polygon description="&lt;b&gt;E5N77_RS35075&lt;/b&gt;&lt;br&gt;nuclear transport factor 2 family protein&lt;br&gt;Location: 7855206 - 7855679&lt;br&gt;&lt;br&gt;&lt;b&gt;BlastP hit with cds222931_223405&lt;/b&gt;&lt;br&gt;Percentage identity: 100&lt;br&gt;Percentage coverage: 100&lt;br&gt;BLAST bit score: 339&lt;br&gt;E-value: 1.7e-91" style="stroke:black; fill:#67d815; stroke-width:1; " locus_tag="E5N77_RS35075" class="clusterblast-orf" id="dummy-3_h3_2_41" points="556,90 560,85 556,80 556,90 "  />
</g>
<g id="a3_0042"  >
<polygon description="&lt;b&gt;E5N77_RS35080&lt;/b&gt;&lt;br&gt;hypothetical protein&lt;br&gt;Location: 7855803 - 7856153&lt;br&gt;&lt;br&gt;&lt;b&gt;BlastP hit with cds223529_223880&lt;/b&gt;&lt;br&gt;Percentage identity: 97&lt;br&gt;Percentage coverage: 100&lt;br&gt;BLAST bit score: 210&lt;br&gt;E-value: 6.8e-53" style="stroke:black; fill:#15b9d8; stroke-width:1; " locus_tag="E5N77_RS35080" class="clusterblast-orf" id="dummy-3_h3_2_42" points="562,90 565,85 562,80 562,90 "  />
</g>
<g id="a3_0043"  >
<polygon description="&lt;b&gt;E5N77_RS35085&lt;/b&gt;&lt;br&gt;hypothetical protein&lt;br&gt;Location: 7856347 - 7856778&lt;br&gt;&lt;br&gt;&lt;b&gt;BlastP hit with cds224079_224511&lt;/b&gt;&lt;br&gt;Percentage identity: 100&lt;br&gt;Percentage coverage: 100&lt;br&gt;BLAST bit score: 298&lt;br&gt;E-value: 4e-79" style="stroke:black; fill:#a515d8; stroke-width:1; " locus_tag="E5N77_RS35085" class="clusterblast-orf" id="dummy-3_h3_2_43" points="567,90 567,90 572,85 567,80 567,80 567,90 "  />
</g>
<g id="a3_0044"  >
<polygon description="&lt;b&gt;E5N77_RS35090&lt;/b&gt;&lt;br&gt;FAD-dependent oxidoreductase&lt;br&gt;Location: 7856834 - 7858051&lt;br&gt;&lt;br&gt;&lt;b&gt;BlastP hit with cds224566_225784&lt;/b&gt;&lt;br&gt;Percentage identity: 100&lt;br&gt;Percentage coverage: 100&lt;br&gt;BLAST bit score: 789&lt;br&gt;E-value: 2.1e-226" style="stroke:black; fill:#d85315; stroke-width:1; " locus_tag="E5N77_RS35090" class="clusterblast-orf" id="dummy-3_h3_2_44" points="573,85 578,80 585,80 585,90 578,90 573,85 "  />
</g>
<g id="a3_0045"  >
<polygon description="&lt;b&gt;E5N77_RS35095&lt;/b&gt;&lt;br&gt;RNA polymerase subunit sigma-70&lt;br&gt;Location: 7858144 - 7858659&lt;br&gt;&lt;br&gt;&lt;b&gt;BlastP hit with cds225876_226821&lt;/b&gt;&lt;br&gt;Percentage identity: 98&lt;br&gt;Percentage coverage: 54&lt;br&gt;BLAST bit score: 314&lt;br&gt;E-value: 1.2e-83" style="stroke:black; fill:#2ad815; stroke-width:1; " locus_tag="E5N77_RS35095" class="clusterblast-orf" id="dummy-3_h3_2_45" points="586,85 591,80 592,80 592,90 591,90 586,85 "  />
</g>
<g id="a3_0046"  >
<polygon description="&lt;b&gt;E5N77_RS35100&lt;/b&gt;&lt;br&gt;esterase-like activity of phytase family protein&lt;br&gt;Location: 7858982 - 7861324&lt;br&gt;&lt;br&gt;&lt;b&gt;BlastP hit with cds227101_229465&lt;/b&gt;&lt;br&gt;Percentage identity: 99&lt;br&gt;Percentage coverage: 95&lt;br&gt;BLAST bit score: 1490&lt;br&gt;E-value: 0.0" style="stroke:black; fill:#157cd8; stroke-width:1; " locus_tag="E5N77_RS35100" class="clusterblast-orf" id="dummy-3_h3_2_46" points="595,90 615,90 620,85 615,80 595,80 595,90 "  />
</g>
<g id="a3_0047"  >
<polygon description="&lt;b&gt;E5N77_RS35105&lt;/b&gt;&lt;br&gt;dihydrofolate reductase&lt;br&gt;Location: 7861548 - 7862159&lt;br&gt;&lt;br&gt;&lt;b&gt;BlastP hit with cds229688_230300&lt;/b&gt;&lt;br&gt;Percentage identity: 99&lt;br&gt;Percentage coverage: 100&lt;br&gt;BLAST bit score: 414&lt;br&gt;E-value: 5.4e-114" style="stroke:black; fill:#d815ce; stroke-width:1; " locus_tag="E5N77_RS35105" class="clusterblast-orf" id="dummy-3_h3_2_47" points="622,90 623,90 628,85 623,80 622,80 622,90 "  />
</g>
<g id="a3_0048"  >
<polygon description="&lt;b&gt;E5N77_RS35110&lt;/b&gt;&lt;br&gt;class II lantibiotic LanA&lt;br&gt;Location: 7862351 - 7862512&lt;br&gt;&lt;br&gt;&lt;b&gt;BlastP hit with cds230491_230653&lt;/b&gt;&lt;br&gt;Percentage identity: 100&lt;br&gt;Percentage coverage: 100&lt;br&gt;BLAST bit score: 111&lt;br&gt;E-value: 3.3e-23" style="stroke:black; fill:#d89015; stroke-width:1; " locus_tag="E5N77_RS35110" class="clusterblast-orf" id="dummy-3_h3_2_48" points="630,90 632,85 630,80 630,90 "  />
</g>
<g id="a3_0049"  >
<polygon description="&lt;b&gt;E5N77_RS35115&lt;/b&gt;&lt;br&gt;lantibiotic dehydratase&lt;br&gt;Location: 7862597 - 7865776&lt;br&gt;&lt;br&gt;&lt;b&gt;BlastP hit with cds230737_233917&lt;/b&gt;&lt;br&gt;Percentage identity: 98&lt;br&gt;Percentage coverage: 100&lt;br&gt;BLAST bit score: 2052&lt;br&gt;E-value: 0.0" style="stroke:black; fill:#15d83e; stroke-width:1; " locus_tag="E5N77_RS35115" class="clusterblast-orf" id="dummy-3_h3_2_49" points="633,90 661,90 666,85 661,80 633,80 633,90 "  />
</g>
<g id="a3_0050"  >
<polygon description="&lt;b&gt;E5N77_RS35120&lt;/b&gt;&lt;br&gt;lanthionine synthetase C family protein&lt;br&gt;Location: 7865773 - 7867191&lt;br&gt;&lt;br&gt;&lt;b&gt;BlastP hit with cds233913_235332&lt;/b&gt;&lt;br&gt;Percentage identity: 97&lt;br&gt;Percentage coverage: 100&lt;br&gt;BLAST bit score: 920&lt;br&gt;E-value: 5.4e-266" style="stroke:black; fill:#153ed8; stroke-width:1; " locus_tag="E5N77_RS35120" class="clusterblast-orf" id="dummy-3_h3_2_50" points="666,90 676,90 681,85 676,80 666,80 666,90 "  />
</g>
<g id="a3_0051"  >
<polygon description="&lt;b&gt;E5N77_RS35125&lt;/b&gt;&lt;br&gt;hypothetical protein&lt;br&gt;Location: 7867206 - 7868132&lt;br&gt;&lt;br&gt;&lt;b&gt;BlastP hit with cds235346_236273&lt;/b&gt;&lt;br&gt;Percentage identity: 97&lt;br&gt;Percentage coverage: 100&lt;br&gt;BLAST bit score: 572&lt;br&gt;E-value: 1.8e-161" style="stroke:black; fill:#d81590; stroke-width:1; " locus_tag="E5N77_RS35125" class="clusterblast-orf" id="dummy-3_h3_2_51" points="681,85 686,80 691,80 691,90 686,90 681,85 "  />
</g>
<g id="a3_0052"  >
<polygon description="&lt;b&gt;E5N77_RS35130&lt;/b&gt;&lt;br&gt;deaminase&lt;br&gt;Location: 7868207 - 7868764&lt;br&gt;&lt;br&gt;&lt;b&gt;BlastP hit with cds236352_236910&lt;/b&gt;&lt;br&gt;Percentage identity: 97&lt;br&gt;Percentage coverage: 100&lt;br&gt;BLAST bit score: 366&lt;br&gt;E-value: 2e-99" style="stroke:black; fill:#d8ce15; stroke-width:1; " locus_tag="E5N77_RS35130" class="clusterblast-orf" id="dummy-3_h3_2_52" points="692,85 697,80 698,80 698,90 697,90 692,85 "  />
</g>
<g id="a3_0053"  >
<polygon description="&lt;b&gt;E5N77_RS35140&lt;/b&gt;&lt;br&gt;ANTAR domain-containing protein&lt;br&gt;Location: 7869177 - 7870043&lt;br&gt;&lt;br&gt;&lt;b&gt;BlastP hit with cds239584_240451&lt;/b&gt;&lt;br&gt;Percentage identity: 97&lt;br&gt;Percentage coverage: 100&lt;br&gt;BLAST bit score: 558&lt;br&gt;E-value: 3.3e-157" style="stroke:black; fill:#2a15d8; stroke-width:1; " locus_tag="E5N77_RS35140" class="clusterblast-orf" id="dummy-3_h3_2_53" points="702,90 706,90 711,85 706,80 702,80 702,90 "  />
</g>
<g id="a3_0054"  >
<polygon description="&lt;b&gt;E5N77_RS35145&lt;/b&gt;&lt;br&gt;hypothetical protein&lt;br&gt;Location: 7870184 - 7871449&lt;br&gt;&lt;br&gt;&lt;b&gt;BlastP hit with cds240569_241835&lt;/b&gt;&lt;br&gt;Percentage identity: 94&lt;br&gt;Percentage coverage: 99&lt;br&gt;BLAST bit score: 782&lt;br&gt;E-value: 2e-224" style="stroke:black; fill:#d81553; stroke-width:1; " locus_tag="E5N77_RS35145" class="clusterblast-orf" id="dummy-3_h3_2_54" points="713,85 718,80 726,80 726,90 718,90 713,85 "  />
</g>
<g id="a3_0055"  >
<polygon description="&lt;b&gt;E5N77_RS35150&lt;/b&gt;&lt;br&gt;GNAT family N-acetyltransferase&lt;br&gt;Location: 7871712 - 7872290&lt;br&gt;&lt;br&gt;&lt;b&gt;BlastP hit with cds242088_242667&lt;/b&gt;&lt;br&gt;Percentage identity: 97&lt;br&gt;Percentage coverage: 100&lt;br&gt;BLAST bit score: 390&lt;br&gt;E-value: 1e-106" style="stroke:black; fill:#a5d815; stroke-width:1; " locus_tag="E5N77_RS35150" class="clusterblast-orf" id="dummy-3_h3_2_55" points="729,90 730,90 735,85 730,80 729,80 729,90 "  />
</g>
<g id="a3_0056"  >
<polygon description="&lt;b&gt;E5N77_RS35155&lt;/b&gt;&lt;br&gt;hypothetical protein&lt;br&gt;Location: 7872423 - 7873001&lt;br&gt;&lt;br&gt;&lt;b&gt;BlastP hit with cds242715_243378&lt;/b&gt;&lt;br&gt;Percentage identity: 96&lt;br&gt;Percentage coverage: 87&lt;br&gt;BLAST bit score: 378&lt;br&gt;E-value: 6.1e-103" style="stroke:black; fill:#15d8b9; stroke-width:1; " locus_tag="E5N77_RS35155" class="clusterblast-orf" id="dummy-3_h3_2_56" points="736,90 737,90 742,85 737,80 736,80 736,90 "  />
</g>
<g id="a3_0057"  >
<polygon description="&lt;b&gt;E5N77_RS35160&lt;/b&gt;&lt;br&gt;LacI family DNA-binding transcriptional regulator&lt;br&gt;Location: 7873199 - 7874218&lt;br&gt;&lt;br&gt;&lt;b&gt;BlastP hit with cds243575_244595&lt;/b&gt;&lt;br&gt;Percentage identity: 99&lt;br&gt;Percentage coverage: 100&lt;br&gt;BLAST bit score: 643&lt;br&gt;E-value: 9.1e-183" style="stroke:black; fill:#6715d8; stroke-width:1; " locus_tag="E5N77_RS35160" class="clusterblast-orf" id="dummy-3_h3_2_57" points="744,90 750,90 755,85 750,80 744,80 744,90 "  />
</g>
<g id="a3_0058"  >
<polygon description="&lt;b&gt;E5N77_RS35165&lt;/b&gt;&lt;br&gt;beta-glucosidase&lt;br&gt;Location: 7874312 - 7875667" style="stroke:black; fill:white; stroke-width:1; " locus_tag="E5N77_RS35165" class="clusterblast-orf" id="dummy-3_h3_2_58" points="756,85 761,80 770,80 770,90 761,90 756,85 "  />
</g>
<g id="a3_0059"  >
<polygon description="&lt;b&gt;E5N77_RS35170&lt;/b&gt;&lt;br&gt;carbohydrate ABC transporter permease&lt;br&gt;Location: 7875718 - 7876557" style="stroke:black; fill:white; stroke-width:1; " locus_tag="E5N77_RS35170" class="clusterblast-orf" id="dummy-3_h3_2_59" points="771,85 776,80 780,80 780,90 776,90 771,85 "  />
</g>
</svg>
