<svg preserveAspectRatio="none" version="1.1" xmlns="http://www.w3.org/2000/svg" y="0" height="230" viewBox="0 0 800 230" x="0" width="800" xmlns:xlink="http://www.w3.org/1999/xlink"  >
<g class="clusterblast-cluster" label="Query sequence"  >
<text class="clusterblast-acc" y="20" x="5"  >
Query sequence</text>
<line x2="778.0" y1="35" style="stroke:grey; stroke-width:1; " x1="10" y2="35"  />
<polygon description="&lt;b&gt;cds39_843&lt;/b&gt;&lt;br&gt;Modular polyketide synthase&lt;br&gt;Location: 39 - 843" style="stroke:black; fill:#d81515; stroke-width:1; " locus_tag="cds39_843" class="clusterblast-orf" id="dummy-1_q0_0_all" points="313,35 318,30 324,30 324,40 318,40 313,35 "  />
<polygon description="&lt;b&gt;cds859_3640&lt;/b&gt;&lt;br&gt;Modular polyketide synthase&lt;br&gt;Location: 859 - 3640" style="stroke:black; fill:#d81515; stroke-width:1; " locus_tag="cds859_3640" class="clusterblast-orf" id="dummy-1_q1_0_all" points="325,35 330,30 365,30 365,40 330,40 325,35 "  />
<polygon description="&lt;b&gt;cds3629_4616&lt;/b&gt;&lt;br&gt;Modular polyketide synthase&lt;br&gt;Location: 3629 - 4616" style="stroke:black; fill:#d81515; stroke-width:1; " locus_tag="cds3629_4616" class="clusterblast-orf" id="dummy-1_q2_0_all" points="365,35 370,30 379,30 379,40 370,40 365,35 "  />
<polygon description="&lt;b&gt;cds4757_5444&lt;/b&gt;&lt;br&gt;Modular polyketide synthase&lt;br&gt;Location: 4757 - 5444" style="stroke:black; fill:#d81515; stroke-width:1; " locus_tag="cds4757_5444" class="clusterblast-orf" id="dummy-1_q3_0_all" points="381,35 386,30 392,30 392,40 386,40 381,35 "  />
<polygon description="&lt;b&gt;cds5407_9040&lt;/b&gt;&lt;br&gt;Modular polyketide synthase&lt;br&gt;Location: 5407 - 9040" style="stroke:black; fill:#d81515; stroke-width:1; " locus_tag="cds5407_9040" class="clusterblast-orf" id="dummy-1_q4_0_all" points="391,35 396,30 444,30 444,40 396,40 391,35 "  />
<polygon description="&lt;b&gt;cds9078_10593&lt;/b&gt;&lt;br&gt;hypothetical protein&lt;br&gt;Location: 9078 - 10593" style="stroke:black; fill:white; stroke-width:1; " locus_tag="cds9078_10593" class="clusterblast-orf" id="dummy-1_q5_0_all" points="444,40 462,40 467,35 462,30 444,30 444,40 "  />
</g>
<g description="NZ_AP020326 (3274453-3332681): Mycobacterium avium subsp. hominissuis strain ... (7% of genes show similarity), T1PKS,T3PKS" class="clusterblast-cluster" label="NZ_AP020326"  >
<text class="clusterblast-acc" y="70" x="5"  >
<a xlink:href="https://antismash-db.secondarymetabolites.org/area.html?record=NZ_AP020326&amp;start=3274453&amp;end=3332681" target="_blank">NZ_AP020326 (3274453-3332681)</a>: Mycobacterium avium subsp. hominissuis strain ... (7% of genes show similarity), T1PKS,T3PKS</text>
<line x2="778.0" y1="85" style="stroke:grey; stroke-width:1; " x1="10" y2="85"  />
</g>
<g id="a1_000"  >
<polygon description="&lt;b&gt;JPH1_RS15285&lt;/b&gt;&lt;br&gt;hypothetical protein&lt;br&gt;Location: 3276774 - 3277142" style="stroke:black; fill:white; stroke-width:1; " locus_tag="JPH1_RS15285" class="clusterblast-orf" id="dummy-1_h1_8_0" points="0,85 5,80 5,80 5,90 5,90 0,85 "  />
</g>
<g id="a1_001"  >
<polygon description="&lt;b&gt;JPH1_RS15290&lt;/b&gt;&lt;br&gt;hypothetical protein&lt;br&gt;Location: 3277635 - 3278135" style="stroke:black; fill:white; stroke-width:1; " locus_tag="JPH1_RS15290" class="clusterblast-orf" id="dummy-1_h1_8_1" points="12,90 14,90 19,85 14,80 12,80 12,90 "  />
</g>
<g id="a1_002"  >
<polygon description="&lt;b&gt;JPH1_RS15295&lt;/b&gt;&lt;br&gt;gluconate 2-dehydrogenase subunit 3 family protein&lt;br&gt;Location: 3278143 - 3278889" style="stroke:black; fill:white; stroke-width:1; " locus_tag="JPH1_RS15295" class="clusterblast-orf" id="dummy-1_h1_8_2" points="19,90 25,90 30,85 25,80 19,80 19,90 "  />
</g>
<g id="a1_003"  >
<polygon description="&lt;b&gt;JPH1_RS15300&lt;/b&gt;&lt;br&gt;GMC family oxidoreductase&lt;br&gt;Location: 3278889 - 3280586" style="stroke:black; fill:white; stroke-width:1; " locus_tag="JPH1_RS15300" class="clusterblast-orf" id="dummy-1_h1_8_3" points="30,90 50,90 55,85 50,80 30,80 30,90 "  />
</g>
<g id="a1_004"  >
<polygon description="&lt;b&gt;JPH1_RS15305&lt;/b&gt;&lt;br&gt;glycoside hydrolase&lt;br&gt;Location: 3280579 - 3282375" style="stroke:black; fill:white; stroke-width:1; " locus_tag="JPH1_RS15305" class="clusterblast-orf" id="dummy-1_h1_8_4" points="55,90 76,90 81,85 76,80 55,80 55,90 "  />
</g>
<g id="a1_005"  >
<polygon description="&lt;b&gt;JPH1_RS15310&lt;/b&gt;&lt;br&gt;SDR family oxidoreductase&lt;br&gt;Location: 3282406 - 3283428" style="stroke:black; fill:white; stroke-width:1; " locus_tag="JPH1_RS15310" class="clusterblast-orf" id="dummy-1_h1_8_5" points="82,90 92,90 97,85 92,80 82,80 82,90 "  />
</g>
<g id="a1_006"  >
<polygon description="&lt;b&gt;JPH1_RS15315&lt;/b&gt;&lt;br&gt;mandelate racemase&lt;br&gt;Location: 3283425 - 3284531" style="stroke:black; fill:white; stroke-width:1; " locus_tag="JPH1_RS15315" class="clusterblast-orf" id="dummy-1_h1_8_6" points="96,90 108,90 113,85 108,80 96,80 96,90 "  />
</g>
<g id="a1_007"  >
<polygon description="&lt;b&gt;JPH1_RS15320&lt;/b&gt;&lt;br&gt;SDR family oxidoreductase&lt;br&gt;Location: 3284633 - 3285403" style="stroke:black; fill:white; stroke-width:1; " locus_tag="JPH1_RS15320" class="clusterblast-orf" id="dummy-1_h1_8_7" points="114,85 119,80 125,80 125,90 119,90 114,85 "  />
</g>
<g id="a1_008"  >
<polygon description="&lt;b&gt;JPH1_RS15325&lt;/b&gt;&lt;br&gt;mycofactocin-coupled SDR family oxidoreductase&lt;br&gt;Location: 3285419 - 3286231" style="stroke:black; fill:white; stroke-width:1; " locus_tag="JPH1_RS15325" class="clusterblast-orf" id="dummy-1_h1_8_8" points="126,85 131,80 137,80 137,90 131,90 126,85 "  />
</g>
<g id="a1_009"  >
<polygon description="&lt;b&gt;JPH1_RS15330&lt;/b&gt;&lt;br&gt;hypothetical protein&lt;br&gt;Location: 3286238 - 3287227" style="stroke:black; fill:white; stroke-width:1; " locus_tag="JPH1_RS15330" class="clusterblast-orf" id="dummy-1_h1_8_9" points="138,85 143,80 152,80 152,90 143,90 138,85 "  />
</g>
<g id="a1_0010"  >
<polygon description="&lt;b&gt;JPH1_RS15335&lt;/b&gt;&lt;br&gt;sulfotransferase&lt;br&gt;Location: 3287310 - 3288446" style="stroke:black; fill:white; stroke-width:1; " locus_tag="JPH1_RS15335" class="clusterblast-orf" id="dummy-1_h1_8_10" points="153,85 158,80 170,80 170,90 158,90 153,85 "  />
</g>
<g id="a1_0011"  >
<polygon description="&lt;b&gt;JPH1_RS15340&lt;/b&gt;&lt;br&gt;SDR family oxidoreductase&lt;br&gt;Location: 3288451 - 3289344" style="stroke:black; fill:white; stroke-width:1; " locus_tag="JPH1_RS15340" class="clusterblast-orf" id="dummy-1_h1_8_11" points="170,85 175,80 183,80 183,90 175,90 170,85 "  />
</g>
<g id="a1_0012"  >
<polygon description="&lt;b&gt;JPH1_RS15345&lt;/b&gt;&lt;br&gt;LysR family transcriptional regulator&lt;br&gt;Location: 3289495 - 3290448" style="stroke:black; fill:white; stroke-width:1; " locus_tag="JPH1_RS15345" class="clusterblast-orf" id="dummy-1_h1_8_12" points="185,90 194,90 199,85 194,80 185,80 185,90 "  />
</g>
<g id="a1_0013"  >
<polygon description="&lt;b&gt;JPH1_RS15350&lt;/b&gt;&lt;br&gt;ANTAR domain-containing protein&lt;br&gt;Location: 3290641 - 3291330" style="stroke:black; fill:white; stroke-width:1; " locus_tag="JPH1_RS15350" class="clusterblast-orf" id="dummy-1_h1_8_13" points="202,90 207,90 212,85 207,80 202,80 202,90 "  />
</g>
<g id="a1_0014"  >
<polygon description="&lt;b&gt;JPH1_RS15355&lt;/b&gt;&lt;br&gt;ABC-F family ATP-binding cassette domain-containing protein&lt;br&gt;Location: 3291407 - 3293182" style="stroke:black; fill:white; stroke-width:1; " locus_tag="JPH1_RS15355" class="clusterblast-orf" id="dummy-1_h1_8_14" points="213,90 234,90 239,85 234,80 213,80 213,90 "  />
</g>
<g id="a1_0015"  >
<polygon description="&lt;b&gt;JPH1_RS15360&lt;/b&gt;&lt;br&gt;cytochrome P450&lt;br&gt;Location: 3293188 - 3294471" style="stroke:black; fill:white; stroke-width:1; " locus_tag="JPH1_RS15360" class="clusterblast-orf" id="dummy-1_h1_8_15" points="239,90 253,90 258,85 253,80 239,80 239,90 "  />
</g>
<g id="a1_0016"  >
<polygon description="&lt;b&gt;JPH1_RS15365&lt;/b&gt;&lt;br&gt;polyketide synthase&lt;br&gt;Location: 3294454 - 3295515" style="stroke:black; fill:white; stroke-width:1; " locus_tag="JPH1_RS15365" class="clusterblast-orf" id="dummy-1_h1_8_16" points="257,85 262,80 273,80 273,90 262,90 257,85 "  />
</g>
<g id="a1_0017"  >
<polygon description="&lt;b&gt;JPH1_RS15370&lt;/b&gt;&lt;br&gt;acyltransferase domain-containing protein&lt;br&gt;Location: 3295676 - 3298779&lt;br&gt;&lt;br&gt;&lt;b&gt;BlastP hit with cds859_3640&lt;/b&gt;&lt;br&gt;Percentage identity: 44&lt;br&gt;Percentage coverage: 16&lt;br&gt;BLAST bit score: 116&lt;br&gt;E-value: 1.1e-23&lt;br&gt;&lt;br&gt;&lt;b&gt;BlastP hit with cds3629_4616&lt;/b&gt;&lt;br&gt;Percentage identity: 50&lt;br&gt;Percentage coverage: 64&lt;br&gt;BLAST bit score: 185&lt;br&gt;E-value: 1.1e-44" style="stroke:black; fill:#d81515; stroke-width:1; " locus_tag="JPH1_RS15370" class="clusterblast-orf" id="dummy-1_h1_8_17" points="275,85 280,80 320,80 320,90 280,90 275,85 "  />
</g>
<g id="a1_0018"  >
<polygon description="&lt;b&gt;JPH1_RS15375&lt;/b&gt;&lt;br&gt;SDR family NAD(P)-dependent oxidoreductase&lt;br&gt;Location: 3298782 - 3305167&lt;br&gt;&lt;br&gt;&lt;b&gt;BlastP hit with cds39_843&lt;/b&gt;&lt;br&gt;Percentage identity: 57&lt;br&gt;Percentage coverage: 31&lt;br&gt;BLAST bit score: 103&lt;br&gt;E-value: 2.7e-20&lt;br&gt;&lt;br&gt;&lt;b&gt;BlastP hit with cds859_3640&lt;/b&gt;&lt;br&gt;Percentage identity: 41&lt;br&gt;Percentage coverage: 59&lt;br&gt;BLAST bit score: 332&lt;br&gt;E-value: 1.6e-88&lt;br&gt;&lt;br&gt;&lt;b&gt;BlastP hit with cds3629_4616&lt;/b&gt;&lt;br&gt;Percentage identity: 53&lt;br&gt;Percentage coverage: 68&lt;br&gt;BLAST bit score: 207&lt;br&gt;E-value: 2.1e-51&lt;br&gt;&lt;br&gt;&lt;b&gt;BlastP hit with cds4757_5444&lt;/b&gt;&lt;br&gt;Percentage identity: 77&lt;br&gt;Percentage coverage: 69&lt;br&gt;BLAST bit score: 237&lt;br&gt;E-value: 1e-60&lt;br&gt;&lt;br&gt;&lt;b&gt;BlastP hit with cds5407_9040&lt;/b&gt;&lt;br&gt;Percentage identity: 63&lt;br&gt;Percentage coverage: 16&lt;br&gt;BLAST bit score: 242&lt;br&gt;E-value: 2.9e-61" style="stroke:black; fill:#d81515; stroke-width:1; " locus_tag="JPH1_RS15375" class="clusterblast-orf" id="dummy-1_h1_8_18" points="320,85 325,80 414,80 414,90 325,90 320,85 "  />
</g>
<g id="a1_0019"  >
<polygon description="&lt;b&gt;JPH1_RS15380&lt;/b&gt;&lt;br&gt;type I polyketide synthase&lt;br&gt;Location: 3305187 - 3311560&lt;br&gt;&lt;br&gt;&lt;b&gt;BlastP hit with cds39_843&lt;/b&gt;&lt;br&gt;Percentage identity: 57&lt;br&gt;Percentage coverage: 28&lt;br&gt;BLAST bit score: 97&lt;br&gt;E-value: 1.5e-18&lt;br&gt;&lt;br&gt;&lt;b&gt;BlastP hit with cds4757_5444&lt;/b&gt;&lt;br&gt;Percentage identity: 75&lt;br&gt;Percentage coverage: 69&lt;br&gt;BLAST bit score: 233&lt;br&gt;E-value: 1.5e-59&lt;br&gt;&lt;br&gt;&lt;b&gt;BlastP hit with cds5407_9040&lt;/b&gt;&lt;br&gt;Percentage identity: 62&lt;br&gt;Percentage coverage: 16&lt;br&gt;BLAST bit score: 233&lt;br&gt;E-value: 1e-58" style="stroke:black; fill:#d81515; stroke-width:1; " locus_tag="JPH1_RS15380" class="clusterblast-orf" id="dummy-1_h1_8_19" points="414,85 419,80 507,80 507,90 419,90 414,85 "  />
</g>
<g id="a1_0020"  >
<polygon description="&lt;b&gt;JPH1_RS15385&lt;/b&gt;&lt;br&gt;type III polyketide synthase&lt;br&gt;Location: 3311620 - 3312681" style="stroke:black; fill:white; stroke-width:1; " locus_tag="JPH1_RS15385" class="clusterblast-orf" id="dummy-1_h1_8_20" points="508,85 513,80 523,80 523,90 513,90 508,85 "  />
</g>
<g id="a1_0021"  >
<polygon description="&lt;b&gt;JPH1_RS15390&lt;/b&gt;&lt;br&gt;argininosuccinate lyase&lt;br&gt;Location: 3312790 - 3314208" style="stroke:black; fill:white; stroke-width:1; " locus_tag="JPH1_RS15390" class="clusterblast-orf" id="dummy-1_h1_8_21" points="525,85 530,80 545,80 545,90 530,90 525,85 "  />
</g>
<g id="a1_0022"  >
<polygon description="&lt;b&gt;JPH1_RS15395&lt;/b&gt;&lt;br&gt;argininosuccinate synthase&lt;br&gt;Location: 3314243 - 3315439" style="stroke:black; fill:white; stroke-width:1; " locus_tag="JPH1_RS15395" class="clusterblast-orf" id="dummy-1_h1_8_22" points="546,85 551,80 563,80 563,90 551,90 546,85 "  />
</g>
<g id="a1_0023"  >
<polygon description="&lt;b&gt;JPH1_RS15400&lt;/b&gt;&lt;br&gt;arginine repressor&lt;br&gt;Location: 3315467 - 3315961" style="stroke:black; fill:white; stroke-width:1; " locus_tag="JPH1_RS15400" class="clusterblast-orf" id="dummy-1_h1_8_23" points="564,85 569,80 571,80 571,90 569,90 564,85 "  />
</g>
<g id="a1_0024"  >
<polygon description="&lt;b&gt;JPH1_RS15405&lt;/b&gt;&lt;br&gt;ornithine carbamoyltransferase&lt;br&gt;Location: 3315958 - 3316887" style="stroke:black; fill:white; stroke-width:1; " locus_tag="JPH1_RS15405" class="clusterblast-orf" id="dummy-1_h1_8_24" points="571,85 576,80 584,80 584,90 576,90 571,85 "  />
</g>
<g id="a1_0025"  >
<polygon description="&lt;b&gt;JPH1_RS15410&lt;/b&gt;&lt;br&gt;acetylornithine transaminase&lt;br&gt;Location: 3316884 - 3318098" style="stroke:black; fill:white; stroke-width:1; " locus_tag="JPH1_RS15410" class="clusterblast-orf" id="dummy-1_h1_8_25" points="584,85 589,80 602,80 602,90 589,90 584,85 "  />
</g>
<g id="a1_0026"  >
<polygon description="&lt;b&gt;JPH1_RS15415&lt;/b&gt;&lt;br&gt;acetylglutamate kinase&lt;br&gt;Location: 3318193 - 3319080" style="stroke:black; fill:white; stroke-width:1; " locus_tag="JPH1_RS15415" class="clusterblast-orf" id="dummy-1_h1_8_26" points="603,85 608,80 616,80 616,90 608,90 603,85 "  />
</g>
<g id="a1_0027"  >
<polygon description="&lt;b&gt;JPH1_RS15420&lt;/b&gt;&lt;br&gt;bifunctional glutamate N-acetyltransferase/amino-acid acetyltransferase ArgJ&lt;br&gt;Location: 3319077 - 3320291" style="stroke:black; fill:white; stroke-width:1; " locus_tag="JPH1_RS15420" class="clusterblast-orf" id="dummy-1_h1_8_27" points="616,85 621,80 634,80 634,90 621,90 616,85 "  />
</g>
<g id="a1_0028"  >
<polygon description="&lt;b&gt;JPH1_RS15425&lt;/b&gt;&lt;br&gt;N-acetyl-gamma-glutamyl-phosphate reductase&lt;br&gt;Location: 3320288 - 3321331" style="stroke:black; fill:white; stroke-width:1; " locus_tag="JPH1_RS15425" class="clusterblast-orf" id="dummy-1_h1_8_28" points="634,85 639,80 649,80 649,90 639,90 634,85 "  />
</g>
<g id="a1_0029"  >
<polygon description="&lt;b&gt;JPH1_RS15430&lt;/b&gt;&lt;br&gt;phenylalanine--tRNA ligase subunit beta&lt;br&gt;Location: 3321379 - 3323865" style="stroke:black; fill:white; stroke-width:1; " locus_tag="JPH1_RS15430" class="clusterblast-orf" id="dummy-1_h1_8_29" points="650,85 655,80 686,80 686,90 655,90 650,85 "  />
</g>
<g id="a1_0030"  >
<polygon description="&lt;b&gt;JPH1_RS15435&lt;/b&gt;&lt;br&gt;phenylalanine--tRNA ligase subunit alpha&lt;br&gt;Location: 3323865 - 3324893" style="stroke:black; fill:white; stroke-width:1; " locus_tag="JPH1_RS15435" class="clusterblast-orf" id="dummy-1_h1_8_30" points="686,85 691,80 701,80 701,90 691,90 686,85 "  />
</g>
<g id="a1_0031"  >
<polygon description="&lt;b&gt;JPH1_RS15440&lt;/b&gt;&lt;br&gt;hypothetical protein&lt;br&gt;Location: 3325104 - 3325922" style="stroke:black; fill:white; stroke-width:1; " locus_tag="JPH1_RS15440" class="clusterblast-orf" id="dummy-1_h1_8_31" points="704,85 709,80 716,80 716,90 709,90 704,85 "  />
</g>
<g id="a1_0032"  >
<polygon description="&lt;b&gt;JPH1_RS15445&lt;/b&gt;&lt;br&gt;adenylate/guanylate cyclase domain-containing protein&lt;br&gt;Location: 3325932 - 3326852" style="stroke:black; fill:white; stroke-width:1; " locus_tag="JPH1_RS15445" class="clusterblast-orf" id="dummy-1_h1_8_32" points="716,85 721,80 730,80 730,90 721,90 716,85 "  />
</g>
<g id="a1_0033"  >
<polygon description="&lt;b&gt;JPH1_RS15450&lt;/b&gt;&lt;br&gt;DUF2236 domain-containing protein&lt;br&gt;Location: 3327068 - 3328135" style="stroke:black; fill:white; stroke-width:1; " locus_tag="JPH1_RS15450" class="clusterblast-orf" id="dummy-1_h1_8_33" points="733,90 743,90 748,85 743,80 733,80 733,90 "  />
</g>
<g id="a1_0034"  >
<polygon description="&lt;b&gt;JPH1_RS15455&lt;/b&gt;&lt;br&gt;RNA methyltransferase&lt;br&gt;Location: 3328122 - 3328913" style="stroke:black; fill:white; stroke-width:1; " locus_tag="JPH1_RS15455" class="clusterblast-orf" id="dummy-1_h1_8_34" points="748,85 753,80 760,80 760,90 753,90 748,85 "  />
</g>
<g id="a1_0035"  >
<polygon description="&lt;b&gt;JPH1_RS15460&lt;/b&gt;&lt;br&gt;50S ribosomal protein L20&lt;br&gt;Location: 3328944 - 3329339" style="stroke:black; fill:white; stroke-width:1; " locus_tag="JPH1_RS15460" class="clusterblast-orf" id="dummy-1_h1_8_35" points="760,85 765,80 766,80 766,90 765,90 760,85 "  />
</g>
<g id="a1_0036"  >
<polygon description="&lt;b&gt;JPH1_RS15465&lt;/b&gt;&lt;br&gt;50S ribosomal protein L35&lt;br&gt;Location: 3329421 - 3329615" style="stroke:black; fill:white; stroke-width:1; " locus_tag="JPH1_RS15465" class="clusterblast-orf" id="dummy-1_h1_8_36" points="767,85 770,80 770,90 767,85 "  />
</g>
<g id="a1_0037"  >
<polygon description="&lt;b&gt;JPH1_RS15470&lt;/b&gt;&lt;br&gt;translation initiation factor IF-3&lt;br&gt;Location: 3329658 - 3330263" style="stroke:black; fill:white; stroke-width:1; " locus_tag="JPH1_RS15470" class="clusterblast-orf" id="dummy-1_h1_8_37" points="771,85 776,80 780,80 780,90 776,90 771,85 "  />
</g>
</svg>
