<svg preserveAspectRatio="none" version="1.1" xmlns="http://www.w3.org/2000/svg" y="0" height="230" viewBox="0 0 800 230" x="0" width="800" xmlns:xlink="http://www.w3.org/1999/xlink"  >
<g class="clusterblast-cluster" label="Query sequence"  >
<text class="clusterblast-acc" y="20" x="5"  >
Query sequence</text>
<line x2="778.0" y1="35" style="stroke:grey; stroke-width:1; " x1="10" y2="35"  />
<polygon description="&lt;b&gt;cds107211_109296&lt;/b&gt;&lt;br&gt;DNA gyrase subunit B (EC 5.99.1.3)&lt;br&gt;Location: 107211 - 109296" style="stroke:black; fill:#d81515; stroke-width:1; " locus_tag="cds107211_109296" class="clusterblast-orf" id="dummy-1_q0_0_all" points="0,40 32,40 37,35 32,30 0,30 0,40 "  />
<polygon description="&lt;b&gt;cds109338_111933&lt;/b&gt;&lt;br&gt;DNA gyrase subunit A (EC 5.99.1.3)&lt;br&gt;Location: 109338 - 111933" style="stroke:black; fill:#77d815; stroke-width:1; " locus_tag="cds109338_111933" class="clusterblast-orf" id="dummy-1_q1_0_all" points="38,40 80,40 85,35 80,30 38,30 38,40 "  />
<polygon description="&lt;b&gt;cds111951_112674&lt;/b&gt;&lt;br&gt;FIG187021: hypothetical protein&lt;br&gt;Location: 111951 - 112674" style="stroke:black; fill:#15d8d8; stroke-width:1; " locus_tag="cds111951_112674" class="clusterblast-orf" id="dummy-1_q2_0_all" points="86,40 94,40 99,35 94,30 86,30 86,40 "  />
<polygon description="&lt;b&gt;cds112978_117241&lt;/b&gt;&lt;br&gt;hypothetical protein&lt;br&gt;Location: 112978 - 117241" style="stroke:black; fill:#7715d8; stroke-width:1; " locus_tag="cds112978_117241" class="clusterblast-orf" id="dummy-1_q3_0_all" points="104,35 109,30 181,30 181,40 109,40 104,35 "  />
<polygon description="&lt;b&gt;cds117597_118317&lt;/b&gt;&lt;br&gt;hypothetical protein&lt;br&gt;Location: 117597 - 118317" style="stroke:black; fill:#d83a15; stroke-width:1; " locus_tag="cds117597_118317" class="clusterblast-orf" id="dummy-1_q4_0_all" points="188,35 193,30 201,30 201,40 193,40 188,35 "  />
<polygon description="&lt;b&gt;cds118338_118533&lt;/b&gt;&lt;br&gt;Ferredoxin&lt;br&gt;Location: 118338 - 118533" style="stroke:black; fill:#52d815; stroke-width:1; " locus_tag="cds118338_118533" class="clusterblast-orf" id="dummy-1_q5_0_all" points="201,40 205,35 201,30 201,40 "  />
<polygon description="&lt;b&gt;cds118493_119480&lt;/b&gt;&lt;br&gt;methyltransferase, FkbM family domain protein&lt;br&gt;Location: 118493 - 119480" style="stroke:black; fill:#15b4d8; stroke-width:1; " locus_tag="cds118493_119480" class="clusterblast-orf" id="dummy-1_q6_0_all" points="204,40 217,40 222,35 217,30 204,30 204,40 "  />
<polygon description="&lt;b&gt;cds119496_120276&lt;/b&gt;&lt;br&gt;hypothetical protein&lt;br&gt;Location: 119496 - 120276" style="stroke:black; fill:#9b15d8; stroke-width:1; " locus_tag="cds119496_120276" class="clusterblast-orf" id="dummy-1_q7_0_all" points="222,35 227,30 236,30 236,40 227,40 222,35 "  />
<polygon description="&lt;b&gt;cds120284_121073&lt;/b&gt;&lt;br&gt;Transcriptional regulator, GntR family&lt;br&gt;Location: 120284 - 121073" style="stroke:black; fill:#d85e15; stroke-width:1; " locus_tag="cds120284_121073" class="clusterblast-orf" id="dummy-1_q8_0_all" points="236,35 241,30 251,30 251,40 241,40 236,35 "  />
<polygon description="&lt;b&gt;cds121285_121663&lt;/b&gt;&lt;br&gt;putative secreted protein&lt;br&gt;Location: 121285 - 121663" style="stroke:black; fill:#2ed815; stroke-width:1; " locus_tag="cds121285_121663" class="clusterblast-orf" id="dummy-1_q9_0_all" points="255,35 260,30 261,30 261,40 260,40 255,35 "  />
<polygon description="&lt;b&gt;cds122001_122130&lt;/b&gt;&lt;br&gt;Uncharacterized membrane protein Ndas 5239&lt;br&gt;Location: 122001 - 122130" style="stroke:black; fill:#158fd8; stroke-width:1; " locus_tag="cds122001_122130" class="clusterblast-orf" id="dummy-1_q10_0_all" points="268,40 270,35 268,30 268,40 "  />
<polygon description="&lt;b&gt;cds122376_123663&lt;/b&gt;&lt;br&gt;putative membrane protein&lt;br&gt;Location: 122376 - 123663" style="stroke:black; fill:#c015d8; stroke-width:1; " locus_tag="cds122376_123663" class="clusterblast-orf" id="dummy-1_q11_0_all" points="274,40 293,40 298,35 293,30 274,30 274,40 "  />
<polygon description="&lt;b&gt;cds123684_125874&lt;/b&gt;&lt;br&gt;Putative serine/threonine protein kinase&lt;br&gt;Location: 123684 - 125874" style="stroke:black; fill:#d88315; stroke-width:1; " locus_tag="cds123684_125874" class="clusterblast-orf" id="dummy-1_q12_0_all" points="298,35 303,30 338,30 338,40 303,40 298,35 "  />
<polygon description="&lt;b&gt;cds125961_126510&lt;/b&gt;&lt;br&gt;Putative DNA-binding protein&lt;br&gt;Location: 125961 - 126510" style="stroke:black; fill:#15d821; stroke-width:1; " locus_tag="cds125961_126510" class="clusterblast-orf" id="dummy-1_q13_0_all" points="339,35 344,30 349,30 349,40 344,40 339,35 "  />
<polygon description="&lt;b&gt;cds126824_130715&lt;/b&gt;&lt;br&gt;Polyketide synthase modules and related proteins&lt;br&gt;Location: 126824 - 130715" style="stroke:black; fill:#156bd8; stroke-width:1; " locus_tag="cds126824_130715" class="clusterblast-orf" id="dummy-1_q14_0_all" points="355,35 360,30 425,30 425,40 360,40 355,35 "  />
<polygon description="&lt;b&gt;cds130748_130919&lt;/b&gt;&lt;br&gt;hypothetical protein&lt;br&gt;Location: 130748 - 130919" style="stroke:black; fill:white; stroke-width:1; " locus_tag="cds130748_130919" class="clusterblast-orf" id="dummy-1_q15_0_all" points="426,40 429,35 426,30 426,40 "  />
<polygon description="&lt;b&gt;cds130915_131497&lt;/b&gt;&lt;br&gt;NADPH-dependent FMN reductase domain protein&lt;br&gt;Location: 130915 - 131497" style="stroke:black; fill:#d815cc; stroke-width:1; " locus_tag="cds130915_131497" class="clusterblast-orf" id="dummy-1_q16_0_all" points="429,40 435,40 440,35 435,30 429,30 429,40 "  />
<polygon description="&lt;b&gt;cds131633_132248&lt;/b&gt;&lt;br&gt;Serine acetyltransferase (EC 2.3.1.30)&lt;br&gt;Location: 131633 - 132248" style="stroke:black; fill:#d8a715; stroke-width:1; " locus_tag="cds131633_132248" class="clusterblast-orf" id="dummy-1_q17_0_all" points="442,40 448,40 453,35 448,30 442,30 442,40 "  />
<polygon description="&lt;b&gt;cds132498_133428&lt;/b&gt;&lt;br&gt;Cysteine synthase (EC 2.5.1.47)&lt;br&gt;Location: 132498 - 133428" style="stroke:black; fill:#15d846; stroke-width:1; " locus_tag="cds132498_133428" class="clusterblast-orf" id="dummy-1_q18_0_all" points="458,40 470,40 475,35 470,30 458,30 458,40 "  />
<polygon description="&lt;b&gt;cds133424_134708&lt;/b&gt;&lt;br&gt;hypothetical protein&lt;br&gt;Location: 133424 - 134708" style="stroke:black; fill:#1546d8; stroke-width:1; " locus_tag="cds133424_134708" class="clusterblast-orf" id="dummy-1_q19_0_all" points="474,40 493,40 498,35 493,30 474,30 474,40 "  />
<polygon description="&lt;b&gt;cds134704_137194&lt;/b&gt;&lt;br&gt;hypothetical protein&lt;br&gt;Location: 134704 - 137194" style="stroke:black; fill:#d815a7; stroke-width:1; " locus_tag="cds134704_137194" class="clusterblast-orf" id="dummy-1_q20_0_all" points="498,40 538,40 543,35 538,30 498,30 498,40 "  />
<polygon description="&lt;b&gt;cds137190_138195&lt;/b&gt;&lt;br&gt;Cysteine synthase (EC 2.5.1.47)&lt;br&gt;Location: 137190 - 138195" style="stroke:black; fill:#15d846; stroke-width:1; " locus_tag="cds137190_138195" class="clusterblast-orf" id="dummy-1_q21_0_all" points="543,40 556,40 561,35 556,30 543,30 543,40 "  />
<polygon description="&lt;b&gt;cds138185_138395&lt;/b&gt;&lt;br&gt;hypothetical protein&lt;br&gt;Location: 138185 - 138395" style="stroke:black; fill:#d8cc15; stroke-width:1; " locus_tag="cds138185_138395" class="clusterblast-orf" id="dummy-1_q22_0_all" points="561,40 564,35 561,30 561,40 "  />
<polygon description="&lt;b&gt;cds138443_139382&lt;/b&gt;&lt;br&gt;hypothetical protein&lt;br&gt;Location: 138443 - 139382" style="stroke:black; fill:#d815a7; stroke-width:1; " locus_tag="cds138443_139382" class="clusterblast-orf" id="dummy-1_q23_0_all" points="565,40 577,40 582,35 577,30 565,30 565,40 "  />
<polygon description="&lt;b&gt;cds139479_140733&lt;/b&gt;&lt;br&gt;hypothetical protein&lt;br&gt;Location: 139479 - 140733" style="stroke:black; fill:#15d86b; stroke-width:1; " locus_tag="cds139479_140733" class="clusterblast-orf" id="dummy-1_q24_0_all" points="584,40 602,40 607,35 602,30 584,30 584,40 "  />
<polygon description="&lt;b&gt;cds140912_141083&lt;/b&gt;&lt;br&gt;hypothetical protein&lt;br&gt;Location: 140912 - 141083" style="stroke:black; fill:#1521d8; stroke-width:1; " locus_tag="cds140912_141083" class="clusterblast-orf" id="dummy-1_q25_0_all" points="610,40 613,35 610,30 610,40 "  />
<polygon description="&lt;b&gt;cds141079_144091&lt;/b&gt;&lt;br&gt;Transcriptional regulator, AfsR family&lt;br&gt;Location: 141079 - 144091" style="stroke:black; fill:#d81583; stroke-width:1; " locus_tag="cds141079_144091" class="clusterblast-orf" id="dummy-1_q26_0_all" points="613,35 618,30 668,30 668,40 618,40 613,35 "  />
<polygon description="&lt;b&gt;cds144485_145262&lt;/b&gt;&lt;br&gt;(2E,6Z)-farnesyl diphosphate synthase (EC 2.5.1.68)&lt;br&gt;Location: 144485 - 145262" style="stroke:black; fill:#c0d815; stroke-width:1; " locus_tag="cds144485_145262" class="clusterblast-orf" id="dummy-1_q27_0_all" points="675,40 684,40 689,35 684,30 675,30 675,40 "  />
<polygon description="&lt;b&gt;cds145359_146061&lt;/b&gt;&lt;br&gt;Putative regulatory protein&lt;br&gt;Location: 145359 - 146061" style="stroke:black; fill:#15d88f; stroke-width:1; " locus_tag="cds145359_146061" class="clusterblast-orf" id="dummy-1_q28_0_all" points="691,35 696,30 703,30 703,40 696,40 691,35 "  />
<polygon description="&lt;b&gt;cds146143_146260&lt;/b&gt;&lt;br&gt;hypothetical protein&lt;br&gt;Location: 146143 - 146260" style="stroke:black; fill:white; stroke-width:1; " locus_tag="cds146143_146260" class="clusterblast-orf" id="dummy-1_q29_0_all" points="705,40 707,35 705,30 705,40 "  />
<polygon description="&lt;b&gt;cds146446_146980&lt;/b&gt;&lt;br&gt;Peptidyl-prolyl cis-trans isomerase (EC 5.2.1.8)&lt;br&gt;Location: 146446 - 146980" style="stroke:black; fill:#2e15d8; stroke-width:1; " locus_tag="cds146446_146980" class="clusterblast-orf" id="dummy-1_q30_0_all" points="710,40 715,40 720,35 715,30 710,30 710,40 "  />
<polygon description="&lt;b&gt;cds147101_147989&lt;/b&gt;&lt;br&gt;FIG056164: rhomboid family serine protease&lt;br&gt;Location: 147101 - 147989" style="stroke:black; fill:#d8155e; stroke-width:1; " locus_tag="cds147101_147989" class="clusterblast-orf" id="dummy-1_q31_0_all" points="722,40 733,40 738,35 733,30 722,30 722,40 "  />
<polygon description="&lt;b&gt;cds148244_148499&lt;/b&gt;&lt;br&gt;FIG018426: putative septation inhibitor protein&lt;br&gt;Location: 148244 - 148499" style="stroke:black; fill:#9bd815; stroke-width:1; " locus_tag="cds148244_148499" class="clusterblast-orf" id="dummy-1_q32_0_all" points="743,35 747,30 747,40 743,35 "  />
<polygon description="&lt;b&gt;cds148686_149400&lt;/b&gt;&lt;br&gt;FIG215594: Membrane spanning protein&lt;br&gt;Location: 148686 - 149400" style="stroke:black; fill:#15d8b4; stroke-width:1; " locus_tag="cds148686_149400" class="clusterblast-orf" id="dummy-1_q33_0_all" points="751,40 759,40 764,35 759,30 751,30 751,40 "  />
<polygon description="&lt;b&gt;cds149481_149643&lt;/b&gt;&lt;br&gt;Uncharacterized membrane protein SCO3852&lt;br&gt;Location: 149481 - 149643" style="stroke:black; fill:#5215d8; stroke-width:1; " locus_tag="cds149481_149643" class="clusterblast-orf" id="dummy-1_q34_0_all" points="765,40 768,35 765,30 765,40 "  />
<polygon description="&lt;b&gt;cds149639_150278&lt;/b&gt;&lt;br&gt;Para-aminobenzoate synthase, amidotransferase component (EC 2.6.1.85)&lt;br&gt;Location: 149639 - 150278" style="stroke:black; fill:#d8153a; stroke-width:1; " locus_tag="cds149639_150278" class="clusterblast-orf" id="dummy-1_q35_0_all" points="768,40 775,40 780,35 775,30 768,30 768,40 "  />
</g>
<g description="NZ_CP027297 (4104848-4147846): Streptomyces sp. SGAir0924 chromosome, complet... (100% of genes show similarity), NRPS-like" class="clusterblast-cluster" label="NZ_CP027297"  >
<text class="clusterblast-acc" y="70" x="5"  >
<a xlink:href="https://antismash-db.secondarymetabolites.org/area.html?record=NZ_CP027297&amp;start=4104848&amp;end=4147846" target="_blank">NZ_CP027297 (4104848-4147846)</a>: Streptomyces sp. SGAir0924 chromosome, complet... (100% of genes show similarity), NRPS-like</text>
<line x2="778.0" y1="85" style="stroke:grey; stroke-width:1; " x1="10" y2="85"  />
</g>
<g id="a1_000"  >
<polygon description="&lt;b&gt;C1N79_RS18410&lt;/b&gt;&lt;br&gt;DNA topoisomerase (ATP-hydrolyzing) subunit B&lt;br&gt;Location: 4104849 - 4106909&lt;br&gt;&lt;br&gt;&lt;b&gt;BlastP hit with cds107211_109296&lt;/b&gt;&lt;br&gt;Percentage identity: 100&lt;br&gt;Percentage coverage: 99&lt;br&gt;BLAST bit score: 1343&lt;br&gt;E-value: 0.0" style="stroke:black; fill:#d81515; stroke-width:1; " locus_tag="C1N79_RS18410" class="clusterblast-orf" id="dummy-1_h1_1_0" points="0,90 32,90 37,85 32,80 0,80 0,90 "  />
</g>
<g id="a1_001"  >
<polygon description="&lt;b&gt;C1N79_RS18415&lt;/b&gt;&lt;br&gt;DNA gyrase subunit A&lt;br&gt;Location: 4106952 - 4109546&lt;br&gt;&lt;br&gt;&lt;b&gt;BlastP hit with cds109338_111933&lt;/b&gt;&lt;br&gt;Percentage identity: 100&lt;br&gt;Percentage coverage: 100&lt;br&gt;BLAST bit score: 1676&lt;br&gt;E-value: 0.0" style="stroke:black; fill:#77d815; stroke-width:1; " locus_tag="C1N79_RS18415" class="clusterblast-orf" id="dummy-1_h1_1_1" points="38,90 80,90 85,85 80,80 38,80 38,90 "  />
</g>
<g id="a1_002"  >
<polygon description="&lt;b&gt;C1N79_RS18420&lt;/b&gt;&lt;br&gt;DUF3566 domain-containing protein&lt;br&gt;Location: 4109565 - 4110287&lt;br&gt;&lt;br&gt;&lt;b&gt;BlastP hit with cds111951_112674&lt;/b&gt;&lt;br&gt;Percentage identity: 100&lt;br&gt;Percentage coverage: 100&lt;br&gt;BLAST bit score: 436&lt;br&gt;E-value: 1.6e-120" style="stroke:black; fill:#15d8d8; stroke-width:1; " locus_tag="C1N79_RS18420" class="clusterblast-orf" id="dummy-1_h1_1_2" points="86,90 94,90 99,85 94,80 86,80 86,90 "  />
</g>
<g id="a1_003"  >
<polygon description="&lt;b&gt;C1N79_RS18430&lt;/b&gt;&lt;br&gt;hypothetical protein&lt;br&gt;Location: 4110593 - 4114783&lt;br&gt;&lt;br&gt;&lt;b&gt;BlastP hit with cds112978_117241&lt;/b&gt;&lt;br&gt;Percentage identity: 96&lt;br&gt;Percentage coverage: 57&lt;br&gt;BLAST bit score: 1342&lt;br&gt;E-value: 0.0" style="stroke:black; fill:#7715d8; stroke-width:1; " locus_tag="C1N79_RS18430" class="clusterblast-orf" id="dummy-1_h1_1_3" points="104,85 109,80 180,80 180,90 109,90 104,85 "  />
</g>
<g id="a1_004"  >
<polygon description="&lt;b&gt;C1N79_RS18435&lt;/b&gt;&lt;br&gt;hypothetical protein&lt;br&gt;Location: 4115140 - 4115712&lt;br&gt;&lt;br&gt;&lt;b&gt;BlastP hit with cds117597_118317&lt;/b&gt;&lt;br&gt;Percentage identity: 100&lt;br&gt;Percentage coverage: 79&lt;br&gt;BLAST bit score: 374&lt;br&gt;E-value: 5.6e-102" style="stroke:black; fill:#d83a15; stroke-width:1; " locus_tag="C1N79_RS18435" class="clusterblast-orf" id="dummy-1_h1_1_4" points="187,85 192,80 197,80 197,90 192,90 187,85 "  />
</g>
<g id="a1_005"  >
<polygon description="&lt;b&gt;C1N79_RS18440&lt;/b&gt;&lt;br&gt;ferredoxin&lt;br&gt;Location: 4115881 - 4116075&lt;br&gt;&lt;br&gt;&lt;b&gt;BlastP hit with cds118338_118533&lt;/b&gt;&lt;br&gt;Percentage identity: 100&lt;br&gt;Percentage coverage: 100&lt;br&gt;BLAST bit score: 134&lt;br&gt;E-value: 3.4e-30" style="stroke:black; fill:#52d815; stroke-width:1; " locus_tag="C1N79_RS18440" class="clusterblast-orf" id="dummy-1_h1_1_5" points="200,90 203,85 200,80 200,90 "  />
</g>
<g id="a1_006"  >
<polygon description="&lt;b&gt;C1N79_RS18445&lt;/b&gt;&lt;br&gt;FkbM family methyltransferase&lt;br&gt;Location: 4116156 - 4117031&lt;br&gt;&lt;br&gt;&lt;b&gt;BlastP hit with cds118493_119480&lt;/b&gt;&lt;br&gt;Percentage identity: 97&lt;br&gt;Percentage coverage: 89&lt;br&gt;BLAST bit score: 568&lt;br&gt;E-value: 3.6e-160" style="stroke:black; fill:#15b4d8; stroke-width:1; " locus_tag="C1N79_RS18445" class="clusterblast-orf" id="dummy-1_h1_1_6" points="205,90 216,90 221,85 216,80 205,80 205,90 "  />
</g>
<g id="a1_007"  >
<polygon description="&lt;b&gt;C1N79_RS18450&lt;/b&gt;&lt;br&gt;glycosyltransferase&lt;br&gt;Location: 4117048 - 4117827&lt;br&gt;&lt;br&gt;&lt;b&gt;BlastP hit with cds119496_120276&lt;/b&gt;&lt;br&gt;Percentage identity: 99&lt;br&gt;Percentage coverage: 100&lt;br&gt;BLAST bit score: 537&lt;br&gt;E-value: 5.4e-151" style="stroke:black; fill:#9b15d8; stroke-width:1; " locus_tag="C1N79_RS18450" class="clusterblast-orf" id="dummy-1_h1_1_7" points="221,85 226,80 235,80 235,90 226,90 221,85 "  />
</g>
<g id="a1_008"  >
<polygon description="&lt;b&gt;C1N79_RS18455&lt;/b&gt;&lt;br&gt;GntR family transcriptional regulator&lt;br&gt;Location: 4117836 - 4118624&lt;br&gt;&lt;br&gt;&lt;b&gt;BlastP hit with cds120284_121073&lt;/b&gt;&lt;br&gt;Percentage identity: 99&lt;br&gt;Percentage coverage: 100&lt;br&gt;BLAST bit score: 526&lt;br&gt;E-value: 1.3e-147" style="stroke:black; fill:#d85e15; stroke-width:1; " locus_tag="C1N79_RS18455" class="clusterblast-orf" id="dummy-1_h1_1_8" points="235,85 240,80 250,80 250,90 240,90 235,85 "  />
</g>
<g id="a1_009"  >
<polygon description="&lt;b&gt;C1N79_RS18460&lt;/b&gt;&lt;br&gt;hypothetical protein&lt;br&gt;Location: 4118836 - 4119213&lt;br&gt;&lt;br&gt;&lt;b&gt;BlastP hit with cds121285_121663&lt;/b&gt;&lt;br&gt;Percentage identity: 99&lt;br&gt;Percentage coverage: 100&lt;br&gt;BLAST bit score: 238&lt;br&gt;E-value: 3.3e-61" style="stroke:black; fill:#2ed815; stroke-width:1; " locus_tag="C1N79_RS18460" class="clusterblast-orf" id="dummy-1_h1_1_9" points="253,85 258,80 260,80 260,90 258,90 253,85 "  />
</g>
<g id="a1_0010"  >
<polygon description="&lt;b&gt;C1N79_RS18465&lt;/b&gt;&lt;br&gt;hypothetical protein&lt;br&gt;Location: 4119404 - 4119679&lt;br&gt;&lt;br&gt;&lt;b&gt;BlastP hit with cds122001_122130&lt;/b&gt;&lt;br&gt;Percentage identity: 98&lt;br&gt;Percentage coverage: 100&lt;br&gt;BLAST bit score: 81&lt;br&gt;E-value: 2.2e-14" style="stroke:black; fill:#158fd8; stroke-width:1; " locus_tag="C1N79_RS18465" class="clusterblast-orf" id="dummy-1_h1_1_10" points="264,90 264,90 269,85 264,80 264,80 264,90 "  />
</g>
<g id="a1_0011"  >
<polygon description="&lt;b&gt;C1N79_RS18470&lt;/b&gt;&lt;br&gt;hypothetical protein&lt;br&gt;Location: 4119926 - 4121212&lt;br&gt;&lt;br&gt;&lt;b&gt;BlastP hit with cds122376_123663&lt;/b&gt;&lt;br&gt;Percentage identity: 98&lt;br&gt;Percentage coverage: 100&lt;br&gt;BLAST bit score: 807&lt;br&gt;E-value: 4.6e-232" style="stroke:black; fill:#c015d8; stroke-width:1; " locus_tag="C1N79_RS18470" class="clusterblast-orf" id="dummy-1_h1_1_11" points="273,90 291,90 296,85 291,80 273,80 273,90 "  />
</g>
<g id="a1_0012"  >
<polygon description="&lt;b&gt;C1N79_RS18475&lt;/b&gt;&lt;br&gt;serine/threonine protein kinase&lt;br&gt;Location: 4121223 - 4123409&lt;br&gt;&lt;br&gt;&lt;b&gt;BlastP hit with cds123684_125874&lt;/b&gt;&lt;br&gt;Percentage identity: 100&lt;br&gt;Percentage coverage: 42&lt;br&gt;BLAST bit score: 621&lt;br&gt;E-value: 8e-176" style="stroke:black; fill:#d88315; stroke-width:1; " locus_tag="C1N79_RS18475" class="clusterblast-orf" id="dummy-1_h1_1_12" points="297,85 302,80 336,80 336,90 302,90 297,85 "  />
</g>
<g id="a1_0013"  >
<polygon description="&lt;b&gt;C1N79_RS18480&lt;/b&gt;&lt;br&gt;DNA-binding protein&lt;br&gt;Location: 4123496 - 4124044&lt;br&gt;&lt;br&gt;&lt;b&gt;BlastP hit with cds125961_126510&lt;/b&gt;&lt;br&gt;Percentage identity: 100&lt;br&gt;Percentage coverage: 100&lt;br&gt;BLAST bit score: 342&lt;br&gt;E-value: 1.8e-92" style="stroke:black; fill:#15d821; stroke-width:1; " locus_tag="C1N79_RS18480" class="clusterblast-orf" id="dummy-1_h1_1_13" points="338,85 343,80 348,80 348,90 343,90 338,85 "  />
</g>
<g id="a1_0014"  >
<polygon description="&lt;b&gt;C1N79_RS18490&lt;/b&gt;&lt;br&gt;amino acid adenylation domain-containing protein&lt;br&gt;Location: 4124359 - 4128255&lt;br&gt;&lt;br&gt;&lt;b&gt;BlastP hit with cds126824_130715&lt;/b&gt;&lt;br&gt;Percentage identity: 100&lt;br&gt;Percentage coverage: 100&lt;br&gt;BLAST bit score: 2493&lt;br&gt;E-value: 0.0" style="stroke:black; fill:#156bd8; stroke-width:1; " locus_tag="C1N79_RS18490" class="clusterblast-orf" id="dummy-1_h1_1_14" points="353,85 358,80 424,80 424,90 358,90 353,85 "  />
</g>
<g id="a1_0015"  >
<polygon description="&lt;b&gt;C1N79_RS18495&lt;/b&gt;&lt;br&gt;NAD(P)H-dependent oxidoreductase&lt;br&gt;Location: 4128450 - 4129031&lt;br&gt;&lt;br&gt;&lt;b&gt;BlastP hit with cds130915_131497&lt;/b&gt;&lt;br&gt;Percentage identity: 100&lt;br&gt;Percentage coverage: 100&lt;br&gt;BLAST bit score: 375&lt;br&gt;E-value: 3.4e-102" style="stroke:black; fill:#d815cc; stroke-width:1; " locus_tag="C1N79_RS18495" class="clusterblast-orf" id="dummy-1_h1_1_15" points="428,90 433,90 438,85 433,80 428,80 428,90 "  />
</g>
<g id="a1_0016"  >
<polygon description="&lt;b&gt;C1N79_RS18500&lt;/b&gt;&lt;br&gt;serine acetyltransferase&lt;br&gt;Location: 4129152 - 4129766&lt;br&gt;&lt;br&gt;&lt;b&gt;BlastP hit with cds131633_132248&lt;/b&gt;&lt;br&gt;Percentage identity: 100&lt;br&gt;Percentage coverage: 100&lt;br&gt;BLAST bit score: 359&lt;br&gt;E-value: 1.6e-97" style="stroke:black; fill:#d8a715; stroke-width:1; " locus_tag="C1N79_RS18500" class="clusterblast-orf" id="dummy-1_h1_1_16" points="440,90 446,90 451,85 446,80 440,80 440,90 "  />
</g>
<g id="a1_0017"  >
<polygon description="&lt;b&gt;C1N79_RS18505&lt;/b&gt;&lt;br&gt;cysteine synthase&lt;br&gt;Location: 4130062 - 4130997&lt;br&gt;&lt;br&gt;&lt;b&gt;BlastP hit with cds132498_133428&lt;/b&gt;&lt;br&gt;Percentage identity: 90&lt;br&gt;Percentage coverage: 101&lt;br&gt;BLAST bit score: 539&lt;br&gt;E-value: 2.2e-151&lt;br&gt;&lt;br&gt;&lt;b&gt;BlastP hit with cds137190_138195&lt;/b&gt;&lt;br&gt;Percentage identity: 70&lt;br&gt;Percentage coverage: 91&lt;br&gt;BLAST bit score: 411&lt;br&gt;E-value: 7.5e-113" style="stroke:black; fill:#15d846; stroke-width:1; " locus_tag="C1N79_RS18505" class="clusterblast-orf" id="dummy-1_h1_1_17" points="457,90 469,90 474,85 469,80 457,80 457,90 "  />
</g>
<g id="a1_0018"  >
<polygon description="&lt;b&gt;C1N79_RS18510&lt;/b&gt;&lt;br&gt;MFS transporter&lt;br&gt;Location: 4130994 - 4132277&lt;br&gt;&lt;br&gt;&lt;b&gt;BlastP hit with cds133424_134708&lt;/b&gt;&lt;br&gt;Percentage identity: 100&lt;br&gt;Percentage coverage: 100&lt;br&gt;BLAST bit score: 809&lt;br&gt;E-value: 1.2e-232" style="stroke:black; fill:#1546d8; stroke-width:1; " locus_tag="C1N79_RS18510" class="clusterblast-orf" id="dummy-1_h1_1_18" points="474,90 492,90 497,85 492,80 474,80 474,90 "  />
</g>
<g id="a1_0019"  >
<polygon description="&lt;b&gt;C1N79_RS18515&lt;/b&gt;&lt;br&gt;ATP-grasp domain-containing protein&lt;br&gt;Location: 4132274 - 4134763&lt;br&gt;&lt;br&gt;&lt;b&gt;BlastP hit with cds134704_137194&lt;/b&gt;&lt;br&gt;Percentage identity: 99&lt;br&gt;Percentage coverage: 100&lt;br&gt;BLAST bit score: 1636&lt;br&gt;E-value: 0.0&lt;br&gt;&lt;br&gt;&lt;b&gt;BlastP hit with cds138443_139382&lt;/b&gt;&lt;br&gt;Percentage identity: 36&lt;br&gt;Percentage coverage: 105&lt;br&gt;BLAST bit score: 142&lt;br&gt;E-value: 6.1e-32" style="stroke:black; fill:#d815a7; stroke-width:1; " locus_tag="C1N79_RS18515" class="clusterblast-orf" id="dummy-1_h1_1_19" points="497,90 537,90 542,85 537,80 497,80 497,90 "  />
</g>
<g id="a1_0020"  >
<polygon description="&lt;b&gt;C1N79_RS18520&lt;/b&gt;&lt;br&gt;cysteine synthase A&lt;br&gt;Location: 4134760 - 4135764&lt;br&gt;&lt;br&gt;&lt;b&gt;BlastP hit with cds132498_133428&lt;/b&gt;&lt;br&gt;Percentage identity: 59&lt;br&gt;Percentage coverage: 101&lt;br&gt;BLAST bit score: 343&lt;br&gt;E-value: 1.8e-92&lt;br&gt;&lt;br&gt;&lt;b&gt;BlastP hit with cds137190_138195&lt;/b&gt;&lt;br&gt;Percentage identity: 99&lt;br&gt;Percentage coverage: 100&lt;br&gt;BLAST bit score: 647&lt;br&gt;E-value: 6.2e-184" style="stroke:black; fill:#15d846; stroke-width:1; " locus_tag="C1N79_RS18520" class="clusterblast-orf" id="dummy-1_h1_1_20" points="542,90 555,90 560,85 555,80 542,80 542,90 "  />
</g>
<g id="a1_0021"  >
<polygon description="&lt;b&gt;C1N79_RS18525&lt;/b&gt;&lt;br&gt;4-oxalocrotonate tautomerase family protein&lt;br&gt;Location: 4135755 - 4135964&lt;br&gt;&lt;br&gt;&lt;b&gt;BlastP hit with cds138185_138395&lt;/b&gt;&lt;br&gt;Percentage identity: 100&lt;br&gt;Percentage coverage: 100&lt;br&gt;BLAST bit score: 146&lt;br&gt;E-value: 1.2e-33" style="stroke:black; fill:#d8cc15; stroke-width:1; " locus_tag="C1N79_RS18525" class="clusterblast-orf" id="dummy-1_h1_1_21" points="560,90 564,85 560,80 560,90 "  />
</g>
<g id="a1_0022"  >
<polygon description="&lt;b&gt;C1N79_RS18530&lt;/b&gt;&lt;br&gt;hypothetical protein&lt;br&gt;Location: 4136012 - 4136950&lt;br&gt;&lt;br&gt;&lt;b&gt;BlastP hit with cds134704_137194&lt;/b&gt;&lt;br&gt;Percentage identity: 36&lt;br&gt;Percentage coverage: 40&lt;br&gt;BLAST bit score: 148&lt;br&gt;E-value: 2.9e-33&lt;br&gt;&lt;br&gt;&lt;b&gt;BlastP hit with cds138443_139382&lt;/b&gt;&lt;br&gt;Percentage identity: 99&lt;br&gt;Percentage coverage: 100&lt;br&gt;BLAST bit score: 608&lt;br&gt;E-value: 3e-172" style="stroke:black; fill:#d815a7; stroke-width:1; " locus_tag="C1N79_RS18530" class="clusterblast-orf" id="dummy-1_h1_1_22" points="565,90 577,90 582,85 577,80 565,80 565,90 "  />
</g>
<g id="a1_0023"  >
<polygon description="&lt;b&gt;C1N79_RS18535&lt;/b&gt;&lt;br&gt;hypothetical protein&lt;br&gt;Location: 4137048 - 4138301&lt;br&gt;&lt;br&gt;&lt;b&gt;BlastP hit with cds139479_140733&lt;/b&gt;&lt;br&gt;Percentage identity: 98&lt;br&gt;Percentage coverage: 100&lt;br&gt;BLAST bit score: 830&lt;br&gt;E-value: 8.5e-239" style="stroke:black; fill:#15d86b; stroke-width:1; " locus_tag="C1N79_RS18535" class="clusterblast-orf" id="dummy-1_h1_1_23" points="583,90 601,90 606,85 601,80 583,80 583,90 "  />
</g>
<g id="a1_0024"  >
<polygon description="&lt;b&gt;C1N79_RS35955&lt;/b&gt;&lt;br&gt;hypothetical protein&lt;br&gt;Location: 4138481 - 4138651&lt;br&gt;&lt;br&gt;&lt;b&gt;BlastP hit with cds140912_141083&lt;/b&gt;&lt;br&gt;Percentage identity: 100&lt;br&gt;Percentage coverage: 100&lt;br&gt;BLAST bit score: 109&lt;br&gt;E-value: 1.3e-22" style="stroke:black; fill:#1521d8; stroke-width:1; " locus_tag="C1N79_RS35955" class="clusterblast-orf" id="dummy-1_h1_1_24" points="609,90 612,85 609,80 609,90 "  />
</g>
<g id="a1_0025"  >
<polygon description="&lt;b&gt;C1N79_RS18540&lt;/b&gt;&lt;br&gt;tetratricopeptide repeat protein&lt;br&gt;Location: 4138648 - 4141659&lt;br&gt;&lt;br&gt;&lt;b&gt;BlastP hit with cds141079_144091&lt;/b&gt;&lt;br&gt;Percentage identity: 100&lt;br&gt;Percentage coverage: 100&lt;br&gt;BLAST bit score: 1890&lt;br&gt;E-value: 0.0" style="stroke:black; fill:#d81583; stroke-width:1; " locus_tag="C1N79_RS18540" class="clusterblast-orf" id="dummy-1_h1_1_25" points="612,85 617,80 667,80 667,90 617,90 612,85 "  />
</g>
<g id="a1_0026"  >
<polygon description="&lt;b&gt;C1N79_RS18545&lt;/b&gt;&lt;br&gt;isoprenyl transferase&lt;br&gt;Location: 4142054 - 4142830&lt;br&gt;&lt;br&gt;&lt;b&gt;BlastP hit with cds144485_145262&lt;/b&gt;&lt;br&gt;Percentage identity: 100&lt;br&gt;Percentage coverage: 100&lt;br&gt;BLAST bit score: 517&lt;br&gt;E-value: 5.7e-145" style="stroke:black; fill:#c0d815; stroke-width:1; " locus_tag="C1N79_RS18545" class="clusterblast-orf" id="dummy-1_h1_1_26" points="674,90 683,90 688,85 683,80 674,80 674,90 "  />
</g>
<g id="a1_0027"  >
<polygon description="&lt;b&gt;C1N79_RS18550&lt;/b&gt;&lt;br&gt;DUF5324 family protein&lt;br&gt;Location: 4142928 - 4143629&lt;br&gt;&lt;br&gt;&lt;b&gt;BlastP hit with cds145359_146061&lt;/b&gt;&lt;br&gt;Percentage identity: 100&lt;br&gt;Percentage coverage: 100&lt;br&gt;BLAST bit score: 178&lt;br&gt;E-value: 7.5e-43" style="stroke:black; fill:#15d88f; stroke-width:1; " locus_tag="C1N79_RS18550" class="clusterblast-orf" id="dummy-1_h1_1_27" points="690,85 695,80 702,80 702,90 695,90 690,85 "  />
</g>
<g id="a1_0028"  >
<polygon description="&lt;b&gt;C1N79_RS18555&lt;/b&gt;&lt;br&gt;peptidylprolyl isomerase&lt;br&gt;Location: 4144015 - 4144548&lt;br&gt;&lt;br&gt;&lt;b&gt;BlastP hit with cds146446_146980&lt;/b&gt;&lt;br&gt;Percentage identity: 99&lt;br&gt;Percentage coverage: 100&lt;br&gt;BLAST bit score: 364&lt;br&gt;E-value: 4.3e-99" style="stroke:black; fill:#2e15d8; stroke-width:1; " locus_tag="C1N79_RS18555" class="clusterblast-orf" id="dummy-1_h1_1_28" points="709,90 714,90 719,85 714,80 709,80 709,90 "  />
</g>
<g id="a1_0029"  >
<polygon description="&lt;b&gt;C1N79_RS18560&lt;/b&gt;&lt;br&gt;rhomboid family intramembrane serine protease&lt;br&gt;Location: 4144670 - 4145557&lt;br&gt;&lt;br&gt;&lt;b&gt;BlastP hit with cds147101_147989&lt;/b&gt;&lt;br&gt;Percentage identity: 99&lt;br&gt;Percentage coverage: 100&lt;br&gt;BLAST bit score: 586&lt;br&gt;E-value: 1.5e-165" style="stroke:black; fill:#d8155e; stroke-width:1; " locus_tag="C1N79_RS18560" class="clusterblast-orf" id="dummy-1_h1_1_29" points="721,90 732,90 737,85 732,80 721,80 721,90 "  />
</g>
<g id="a1_0030"  >
<polygon description="&lt;b&gt;C1N79_RS18565&lt;/b&gt;&lt;br&gt;cell division protein CrgA&lt;br&gt;Location: 4145813 - 4146067&lt;br&gt;&lt;br&gt;&lt;b&gt;BlastP hit with cds148244_148499&lt;/b&gt;&lt;br&gt;Percentage identity: 100&lt;br&gt;Percentage coverage: 100&lt;br&gt;BLAST bit score: 171&lt;br&gt;E-value: 4.3e-41" style="stroke:black; fill:#9bd815; stroke-width:1; " locus_tag="C1N79_RS18565" class="clusterblast-orf" id="dummy-1_h1_1_30" points="742,85 747,80 747,80 747,90 747,90 742,85 "  />
</g>
<g id="a1_0031"  >
<polygon description="&lt;b&gt;C1N79_RS18570&lt;/b&gt;&lt;br&gt;DUF881 domain-containing protein&lt;br&gt;Location: 4146189 - 4146968&lt;br&gt;&lt;br&gt;&lt;b&gt;BlastP hit with cds148686_149400&lt;/b&gt;&lt;br&gt;Percentage identity: 99&lt;br&gt;Percentage coverage: 100&lt;br&gt;BLAST bit score: 459&lt;br&gt;E-value: 1.7e-127" style="stroke:black; fill:#15d8b4; stroke-width:1; " locus_tag="C1N79_RS18570" class="clusterblast-orf" id="dummy-1_h1_1_31" points="749,90 758,90 763,85 758,80 749,80 749,90 "  />
</g>
<g id="a1_0032"  >
<polygon description="&lt;b&gt;C1N79_RS18575&lt;/b&gt;&lt;br&gt;hypothetical protein&lt;br&gt;Location: 4147050 - 4147211&lt;br&gt;&lt;br&gt;&lt;b&gt;BlastP hit with cds149481_149643&lt;/b&gt;&lt;br&gt;Percentage identity: 100&lt;br&gt;Percentage coverage: 100&lt;br&gt;BLAST bit score: 115&lt;br&gt;E-value: 1.8e-24" style="stroke:black; fill:#5215d8; stroke-width:1; " locus_tag="C1N79_RS18575" class="clusterblast-orf" id="dummy-1_h1_1_32" points="764,90 767,85 764,80 764,90 "  />
</g>
<g id="a1_0033"  >
<polygon description="&lt;b&gt;C1N79_RS18580&lt;/b&gt;&lt;br&gt;aminodeoxychorismate/anthranilate synthase component II&lt;br&gt;Location: 4147208 - 4147846&lt;br&gt;&lt;br&gt;&lt;b&gt;BlastP hit with cds149639_150278&lt;/b&gt;&lt;br&gt;Percentage identity: 100&lt;br&gt;Percentage coverage: 100&lt;br&gt;BLAST bit score: 432&lt;br&gt;E-value: 2e-119" style="stroke:black; fill:#d8153a; stroke-width:1; " locus_tag="C1N79_RS18580" class="clusterblast-orf" id="dummy-1_h1_1_33" points="767,90 774,90 779,85 774,80 767,80 767,90 "  />
</g>
</svg>
