<svg preserveAspectRatio="none" version="1.1" xmlns="http://www.w3.org/2000/svg" y="0" height="230" viewBox="0 0 800 230" x="0" width="800" xmlns:xlink="http://www.w3.org/1999/xlink"  >
<g class="clusterblast-cluster" label="Query sequence"  >
<text class="clusterblast-acc" y="20" x="5"  >
Query sequence</text>
<line x2="778.0" y1="35" style="stroke:grey; stroke-width:1; " x1="10" y2="35"  />
<polygon description="&lt;b&gt;cds39_843&lt;/b&gt;&lt;br&gt;Modular polyketide synthase&lt;br&gt;Location: 39 - 843" style="stroke:black; fill:#d81515; stroke-width:1; " locus_tag="cds39_843" class="clusterblast-orf" id="dummy-1_q0_0_all" points="329,35 334,30 338,30 338,40 334,40 329,35 "  />
<polygon description="&lt;b&gt;cds859_3640&lt;/b&gt;&lt;br&gt;Modular polyketide synthase&lt;br&gt;Location: 859 - 3640" style="stroke:black; fill:#d81515; stroke-width:1; " locus_tag="cds859_3640" class="clusterblast-orf" id="dummy-1_q1_0_all" points="339,35 344,30 370,30 370,40 344,40 339,35 "  />
<polygon description="&lt;b&gt;cds3629_4616&lt;/b&gt;&lt;br&gt;Modular polyketide synthase&lt;br&gt;Location: 3629 - 4616" style="stroke:black; fill:#d81515; stroke-width:1; " locus_tag="cds3629_4616" class="clusterblast-orf" id="dummy-1_q2_0_all" points="370,35 375,30 382,30 382,40 375,40 370,35 "  />
<polygon description="&lt;b&gt;cds4757_5444&lt;/b&gt;&lt;br&gt;Modular polyketide synthase&lt;br&gt;Location: 4757 - 5444" style="stroke:black; fill:#d81515; stroke-width:1; " locus_tag="cds4757_5444" class="clusterblast-orf" id="dummy-1_q3_0_all" points="383,35 388,30 391,30 391,40 388,40 383,35 "  />
<polygon description="&lt;b&gt;cds5407_9040&lt;/b&gt;&lt;br&gt;Modular polyketide synthase&lt;br&gt;Location: 5407 - 9040" style="stroke:black; fill:#d81515; stroke-width:1; " locus_tag="cds5407_9040" class="clusterblast-orf" id="dummy-1_q4_0_all" points="391,35 396,30 432,30 432,40 396,40 391,35 "  />
<polygon description="&lt;b&gt;cds9078_10593&lt;/b&gt;&lt;br&gt;hypothetical protein&lt;br&gt;Location: 9078 - 10593" style="stroke:black; fill:white; stroke-width:1; " locus_tag="cds9078_10593" class="clusterblast-orf" id="dummy-1_q5_0_all" points="433,40 445,40 450,35 445,30 433,30 433,40 "  />
</g>
<g description="NZ_LBMK01000005 (45711-115696): Streptomyces yangpuensis strain fd2-tb scaffo... (12% of genes show similarity), T1PKS" class="clusterblast-cluster" label="NZ_LBMK01000005"  >
<text class="clusterblast-acc" y="70" x="5"  >
<a xlink:href="https://antismash-db.secondarymetabolites.org/area.html?record=NZ_LBMK01000005&amp;start=45711&amp;end=115696" target="_blank">NZ_LBMK01000005 (45711-115696)</a>: Streptomyces yangpuensis strain fd2-tb scaffo... (12% of genes show similarity), T1PKS</text>
<line x2="778.0" y1="85" style="stroke:grey; stroke-width:1; " x1="10" y2="85"  />
</g>
<g id="a1_000"  >
<polygon description="&lt;b&gt;AAT21_RS24210&lt;/b&gt;&lt;br&gt;hypothetical protein&lt;br&gt;Location: 47148 - 47759" style="stroke:black; fill:white; stroke-width:1; " locus_tag="AAT21_RS24210" class="clusterblast-orf" id="dummy-1_h1_3_0" points="0,90 1,90 6,85 1,80 0,80 0,90 "  />
</g>
<g id="a1_001"  >
<polygon description="&lt;b&gt;AAT21_RS24215&lt;/b&gt;&lt;br&gt;phosphoenolpyruvate carboxykinase (GTP)&lt;br&gt;Location: 47944 - 49770" style="stroke:black; fill:white; stroke-width:1; " locus_tag="AAT21_RS24215" class="clusterblast-orf" id="dummy-1_h1_3_1" points="9,85 14,80 29,80 29,90 14,90 9,85 "  />
</g>
<g id="a1_002"  >
<polygon description="&lt;b&gt;AAT21_RS24220&lt;/b&gt;&lt;br&gt;hemolysin III family protein&lt;br&gt;Location: 50084 - 50719" style="stroke:black; fill:white; stroke-width:1; " locus_tag="AAT21_RS24220" class="clusterblast-orf" id="dummy-1_h1_3_2" points="33,90 35,90 40,85 35,80 33,80 33,90 "  />
</g>
<g id="a1_003"  >
<polygon description="&lt;b&gt;AAT21_RS24225&lt;/b&gt;&lt;br&gt;DUF1929 domain-containing protein&lt;br&gt;Location: 50783 - 53137" style="stroke:black; fill:white; stroke-width:1; " locus_tag="AAT21_RS24225" class="clusterblast-orf" id="dummy-1_h1_3_3" points="41,85 46,80 68,80 68,90 46,90 41,85 "  />
</g>
<g id="a1_004"  >
<polygon description="&lt;b&gt;AAT21_RS24230&lt;/b&gt;&lt;br&gt;glycosyltransferase family 2 protein&lt;br&gt;Location: 53238 - 54455" style="stroke:black; fill:white; stroke-width:1; " locus_tag="AAT21_RS24230" class="clusterblast-orf" id="dummy-1_h1_3_4" points="69,85 74,80 83,80 83,90 74,90 69,85 "  />
</g>
<g id="a1_005"  >
<polygon description="&lt;b&gt;AAT21_RS24235&lt;/b&gt;&lt;br&gt;phospholipid carrier-dependent glycosyltransferase&lt;br&gt;Location: 54462 - 56147" style="stroke:black; fill:white; stroke-width:1; " locus_tag="AAT21_RS24235" class="clusterblast-orf" id="dummy-1_h1_3_5" points="83,85 88,80 102,80 102,90 88,90 83,85 "  />
</g>
<g id="a1_006"  >
<polygon description="&lt;b&gt;AAT21_RS24240&lt;/b&gt;&lt;br&gt;glycosyltransferase&lt;br&gt;Location: 56156 - 57472" style="stroke:black; fill:white; stroke-width:1; " locus_tag="AAT21_RS24240" class="clusterblast-orf" id="dummy-1_h1_3_6" points="102,85 107,80 118,80 118,90 107,90 102,85 "  />
</g>
<g id="a1_007"  >
<polygon description="&lt;b&gt;AAT21_RS24245&lt;/b&gt;&lt;br&gt;thioredoxin domain-containing protein&lt;br&gt;Location: 57724 - 59790" style="stroke:black; fill:white; stroke-width:1; " locus_tag="AAT21_RS24245" class="clusterblast-orf" id="dummy-1_h1_3_7" points="120,85 125,80 144,80 144,90 125,90 120,85 "  />
</g>
<g id="a1_008"  >
<polygon description="&lt;b&gt;AAT21_RS34680&lt;/b&gt;&lt;br&gt;hypothetical protein&lt;br&gt;Location: 60352 - 60927" style="stroke:black; fill:white; stroke-width:1; " locus_tag="AAT21_RS34680" class="clusterblast-orf" id="dummy-1_h1_3_8" points="150,85 155,80 157,80 157,90 155,90 150,85 "  />
</g>
<g id="a1_009"  >
<polygon description="&lt;b&gt;AAT21_RS24255&lt;/b&gt;&lt;br&gt;AAA family ATPase&lt;br&gt;Location: 61622 - 63646" style="stroke:black; fill:white; stroke-width:1; " locus_tag="AAT21_RS24255" class="clusterblast-orf" id="dummy-1_h1_3_9" points="165,85 170,80 188,80 188,90 170,90 165,85 "  />
</g>
<g id="a1_0010"  >
<polygon description="&lt;b&gt;AAT21_RS24260&lt;/b&gt;&lt;br&gt;MFS transporter&lt;br&gt;Location: 63812 - 65389" style="stroke:black; fill:white; stroke-width:1; " locus_tag="AAT21_RS24260" class="clusterblast-orf" id="dummy-1_h1_3_10" points="190,85 195,80 208,80 208,90 195,90 190,85 "  />
</g>
<g id="a1_0011"  >
<polygon description="&lt;b&gt;AAT21_RS24265&lt;/b&gt;&lt;br&gt;SDR family NAD(P)-dependent oxidoreductase&lt;br&gt;Location: 65712 - 76319&lt;br&gt;&lt;br&gt;&lt;b&gt;BlastP hit with cds39_843&lt;/b&gt;&lt;br&gt;Percentage identity: 45&lt;br&gt;Percentage coverage: 82&lt;br&gt;BLAST bit score: 174&lt;br&gt;E-value: 1.6e-41&lt;br&gt;&lt;br&gt;&lt;b&gt;BlastP hit with cds859_3640&lt;/b&gt;&lt;br&gt;Percentage identity: 45&lt;br&gt;Percentage coverage: 90&lt;br&gt;BLAST bit score: 555&lt;br&gt;E-value: 6.8e-156&lt;br&gt;&lt;br&gt;&lt;b&gt;BlastP hit with cds3629_4616&lt;/b&gt;&lt;br&gt;Percentage identity: 49&lt;br&gt;Percentage coverage: 75&lt;br&gt;BLAST bit score: 176&lt;br&gt;E-value: 4e-42&lt;br&gt;&lt;br&gt;&lt;b&gt;BlastP hit with cds4757_5444&lt;/b&gt;&lt;br&gt;Percentage identity: 75&lt;br&gt;Percentage coverage: 69&lt;br&gt;BLAST bit score: 232&lt;br&gt;E-value: 3.3e-59&lt;br&gt;&lt;br&gt;&lt;b&gt;BlastP hit with cds5407_9040&lt;/b&gt;&lt;br&gt;Percentage identity: 45&lt;br&gt;Percentage coverage: 98&lt;br&gt;BLAST bit score: 877&lt;br&gt;E-value: 1.7e-252" style="stroke:black; fill:#d81515; stroke-width:1; " locus_tag="AAT21_RS24265" class="clusterblast-orf" id="dummy-1_h1_3_11" points="212,85 217,80 333,80 333,90 217,90 212,85 "  />
</g>
<g id="a1_0012"  >
<polygon description="&lt;b&gt;AAT21_RS38205&lt;/b&gt;&lt;br&gt;hypothetical protein&lt;br&gt;Location: 76256 - 77131&lt;br&gt;&lt;br&gt;&lt;b&gt;BlastP hit with cds39_843&lt;/b&gt;&lt;br&gt;Percentage identity: 55&lt;br&gt;Percentage coverage: 31&lt;br&gt;BLAST bit score: 103&lt;br&gt;E-value: 3.5e-20&lt;br&gt;&lt;br&gt;&lt;b&gt;BlastP hit with cds5407_9040&lt;/b&gt;&lt;br&gt;Percentage identity: 67&lt;br&gt;Percentage coverage: 16&lt;br&gt;BLAST bit score: 263&lt;br&gt;E-value: 1.2e-67" style="stroke:black; fill:#d81515; stroke-width:1; " locus_tag="AAT21_RS38205" class="clusterblast-orf" id="dummy-1_h1_3_12" points="332,85 337,80 342,80 342,90 337,90 332,85 "  />
</g>
<g id="a1_0013"  >
<polygon description="&lt;b&gt;AAT21_RS24270&lt;/b&gt;&lt;br&gt;type I polyketide synthase&lt;br&gt;Location: 77134 - 92034&lt;br&gt;&lt;br&gt;&lt;b&gt;BlastP hit with cds39_843&lt;/b&gt;&lt;br&gt;Percentage identity: 52&lt;br&gt;Percentage coverage: 84&lt;br&gt;BLAST bit score: 223&lt;br&gt;E-value: 1.8e-56&lt;br&gt;&lt;br&gt;&lt;b&gt;BlastP hit with cds859_3640&lt;/b&gt;&lt;br&gt;Percentage identity: 46&lt;br&gt;Percentage coverage: 91&lt;br&gt;BLAST bit score: 601&lt;br&gt;E-value: 1.1e-169&lt;br&gt;&lt;br&gt;&lt;b&gt;BlastP hit with cds3629_4616&lt;/b&gt;&lt;br&gt;Percentage identity: 56&lt;br&gt;Percentage coverage: 67&lt;br&gt;BLAST bit score: 191&lt;br&gt;E-value: 9.2e-47&lt;br&gt;&lt;br&gt;&lt;b&gt;BlastP hit with cds4757_5444&lt;/b&gt;&lt;br&gt;Percentage identity: 79&lt;br&gt;Percentage coverage: 69&lt;br&gt;BLAST bit score: 248&lt;br&gt;E-value: 5.7e-64&lt;br&gt;&lt;br&gt;&lt;b&gt;BlastP hit with cds5407_9040&lt;/b&gt;&lt;br&gt;Percentage identity: 49&lt;br&gt;Percentage coverage: 97&lt;br&gt;BLAST bit score: 958&lt;br&gt;E-value: 7.8e-277" style="stroke:black; fill:#d81515; stroke-width:1; " locus_tag="AAT21_RS24270" class="clusterblast-orf" id="dummy-1_h1_3_13" points="342,85 347,80 513,80 513,90 347,90 342,85 "  />
</g>
<g id="a1_0014"  >
<polygon description="&lt;b&gt;AAT21_RS38210&lt;/b&gt;&lt;br&gt;acyltransferase domain-containing protein&lt;br&gt;Location: 91926 - 95696&lt;br&gt;&lt;br&gt;&lt;b&gt;BlastP hit with cds39_843&lt;/b&gt;&lt;br&gt;Percentage identity: 53&lt;br&gt;Percentage coverage: 63&lt;br&gt;BLAST bit score: 174&lt;br&gt;E-value: 1.2e-41&lt;br&gt;&lt;br&gt;&lt;b&gt;BlastP hit with cds3629_4616&lt;/b&gt;&lt;br&gt;Percentage identity: 45&lt;br&gt;Percentage coverage: 66&lt;br&gt;BLAST bit score: 136&lt;br&gt;E-value: 6e-30&lt;br&gt;&lt;br&gt;&lt;b&gt;BlastP hit with cds5407_9040&lt;/b&gt;&lt;br&gt;Percentage identity: 52&lt;br&gt;Percentage coverage: 26&lt;br&gt;BLAST bit score: 300&lt;br&gt;E-value: 8.8e-79" style="stroke:black; fill:#d81515; stroke-width:1; " locus_tag="AAT21_RS38210" class="clusterblast-orf" id="dummy-1_h1_3_14" points="511,85 516,80 555,80 555,90 516,90 511,85 "  />
</g>
<g id="a1_0015"  >
<polygon description="&lt;b&gt;AAT21_RS24275&lt;/b&gt;&lt;br&gt;long-chain fatty acid--CoA ligase&lt;br&gt;Location: 95802 - 97343" style="stroke:black; fill:white; stroke-width:1; " locus_tag="AAT21_RS24275" class="clusterblast-orf" id="dummy-1_h1_3_15" points="556,85 561,80 573,80 573,90 561,90 556,85 "  />
</g>
<g id="a1_0016"  >
<polygon description="&lt;b&gt;AAT21_RS24280&lt;/b&gt;&lt;br&gt;5-aminolevulinate synthase&lt;br&gt;Location: 97343 - 98629" style="stroke:black; fill:white; stroke-width:1; " locus_tag="AAT21_RS24280" class="clusterblast-orf" id="dummy-1_h1_3_16" points="573,85 578,80 588,80 588,90 578,90 573,85 "  />
</g>
<g id="a1_0017"  >
<polygon description="&lt;b&gt;AAT21_RS24285&lt;/b&gt;&lt;br&gt;long-chain fatty acid--CoA ligase&lt;br&gt;Location: 98685 - 100268" style="stroke:black; fill:white; stroke-width:1; " locus_tag="AAT21_RS24285" class="clusterblast-orf" id="dummy-1_h1_3_17" points="589,85 594,80 607,80 607,90 594,90 589,85 "  />
</g>
<g id="a1_0018"  >
<polygon description="&lt;b&gt;AAT21_RS24290&lt;/b&gt;&lt;br&gt;4'-phosphopantetheinyl transferase superfamily protein&lt;br&gt;Location: 100546 - 101244" style="stroke:black; fill:white; stroke-width:1; " locus_tag="AAT21_RS24290" class="clusterblast-orf" id="dummy-1_h1_3_18" points="610,85 615,80 618,80 618,90 615,90 610,85 "  />
</g>
<g id="a1_0019"  >
<polygon description="&lt;b&gt;AAT21_RS24295&lt;/b&gt;&lt;br&gt;alpha/beta fold hydrolase&lt;br&gt;Location: 101268 - 102167" style="stroke:black; fill:white; stroke-width:1; " locus_tag="AAT21_RS24295" class="clusterblast-orf" id="dummy-1_h1_3_19" points="618,85 623,80 629,80 629,90 623,90 618,85 "  />
</g>
<g id="a1_0020"  >
<polygon description="&lt;b&gt;AAT21_RS24300&lt;/b&gt;&lt;br&gt;hypothetical protein&lt;br&gt;Location: 104028 - 107423" style="stroke:black; fill:white; stroke-width:1; " locus_tag="AAT21_RS24300" class="clusterblast-orf" id="dummy-1_h1_3_20" points="650,90 684,90 689,85 684,80 650,80 650,90 "  />
</g>
<g id="a1_0021"  >
<polygon description="&lt;b&gt;AAT21_RS24305&lt;/b&gt;&lt;br&gt;hypothetical protein&lt;br&gt;Location: 107545 - 107772" style="stroke:black; fill:white; stroke-width:1; " locus_tag="AAT21_RS24305" class="clusterblast-orf" id="dummy-1_h1_3_21" points="690,85 693,80 693,90 690,85 "  />
</g>
<g id="a1_0022"  >
<polygon description="&lt;b&gt;AAT21_RS24310&lt;/b&gt;&lt;br&gt;mycothiol conjugate amidase Mca&lt;br&gt;Location: 107775 - 108656" style="stroke:black; fill:white; stroke-width:1; " locus_tag="AAT21_RS24310" class="clusterblast-orf" id="dummy-1_h1_3_22" points="693,85 698,80 703,80 703,90 698,90 693,85 "  />
</g>
<g id="a1_0023"  >
<polygon description="&lt;b&gt;AAT21_RS24315&lt;/b&gt;&lt;br&gt;DUF4307 domain-containing protein&lt;br&gt;Location: 108772 - 109185" style="stroke:black; fill:white; stroke-width:1; " locus_tag="AAT21_RS24315" class="clusterblast-orf" id="dummy-1_h1_3_23" points="704,90 704,90 709,85 704,80 704,80 704,90 "  />
</g>
<g id="a1_0024"  >
<polygon description="&lt;b&gt;AAT21_RS24320&lt;/b&gt;&lt;br&gt;transcription elongation factor GreA&lt;br&gt;Location: 109327 - 109824" style="stroke:black; fill:white; stroke-width:1; " locus_tag="AAT21_RS24320" class="clusterblast-orf" id="dummy-1_h1_3_24" points="710,90 711,90 716,85 711,80 710,80 710,90 "  />
</g>
<g id="a1_0025"  >
<polygon description="&lt;b&gt;AAT21_RS24325&lt;/b&gt;&lt;br&gt;threonine ammonia-lyase&lt;br&gt;Location: 109930 - 111162" style="stroke:black; fill:white; stroke-width:1; " locus_tag="AAT21_RS24325" class="clusterblast-orf" id="dummy-1_h1_3_25" points="717,85 722,80 731,80 731,90 722,90 717,85 "  />
</g>
<g id="a1_0026"  >
<polygon description="&lt;b&gt;AAT21_RS24330&lt;/b&gt;&lt;br&gt;MarR family transcriptional regulator&lt;br&gt;Location: 111528 - 112049" style="stroke:black; fill:white; stroke-width:1; " locus_tag="AAT21_RS24330" class="clusterblast-orf" id="dummy-1_h1_3_26" points="736,90 736,90 741,85 736,80 736,80 736,90 "  />
</g>
<g id="a1_0027"  >
<polygon description="&lt;b&gt;AAT21_RS24335&lt;/b&gt;&lt;br&gt;hypothetical protein&lt;br&gt;Location: 112106 - 112528" style="stroke:black; fill:white; stroke-width:1; " locus_tag="AAT21_RS24335" class="clusterblast-orf" id="dummy-1_h1_3_27" points="742,90 742,90 747,85 742,80 742,80 742,90 "  />
</g>
<g id="a1_0028"  >
<polygon description="&lt;b&gt;AAT21_RS24340&lt;/b&gt;&lt;br&gt;hypothetical protein&lt;br&gt;Location: 112525 - 112779" style="stroke:black; fill:white; stroke-width:1; " locus_tag="AAT21_RS24340" class="clusterblast-orf" id="dummy-1_h1_3_28" points="747,90 750,85 747,80 747,90 "  />
</g>
<g id="a1_0029"  >
<polygon description="&lt;b&gt;AAT21_RS24345&lt;/b&gt;&lt;br&gt;cystathionine gamma-synthase&lt;br&gt;Location: 113035 - 114192" style="stroke:black; fill:white; stroke-width:1; " locus_tag="AAT21_RS24345" class="clusterblast-orf" id="dummy-1_h1_3_29" points="753,85 758,80 766,80 766,90 758,90 753,85 "  />
</g>
<g id="a1_0030"  >
<polygon description="&lt;b&gt;AAT21_RS24350&lt;/b&gt;&lt;br&gt;hypothetical protein&lt;br&gt;Location: 114269 - 115375" style="stroke:black; fill:white; stroke-width:1; " locus_tag="AAT21_RS24350" class="clusterblast-orf" id="dummy-1_h1_3_30" points="767,90 775,90 780,85 775,80 767,80 767,90 "  />
</g>
</svg>
