<svg preserveAspectRatio="none" version="1.1" xmlns="http://www.w3.org/2000/svg" y="0" height="230" viewBox="0 0 800 230" x="0" width="800" xmlns:xlink="http://www.w3.org/1999/xlink"  >
<g class="clusterblast-cluster" label="Query sequence"  >
<text class="clusterblast-acc" y="20" x="5"  >
Query sequence</text>
<line x2="778.0" y1="35" style="stroke:grey; stroke-width:1; " x1="10" y2="35"  />
<polygon description="&lt;b&gt;cds189365_190280&lt;/b&gt;&lt;br&gt;Protein yceI precursor&lt;br&gt;Location: 189365 - 190280" style="stroke:black; fill:#d81515; stroke-width:1; " locus_tag="cds189365_190280" class="clusterblast-orf" id="dummy-2_q0_0_all" points="0,35 5,30 35,30 35,40 5,40 0,35 "  />
<polygon description="&lt;b&gt;cds190612_190753&lt;/b&gt;&lt;br&gt;hypothetical protein&lt;br&gt;Location: 190612 - 190753" style="stroke:black; fill:white; stroke-width:1; " locus_tag="cds190612_190753" class="clusterblast-orf" id="dummy-2_q1_0_all" points="47,40 47,40 52,35 47,30 47,30 47,40 "  />
<polygon description="&lt;b&gt;cds190817_191651&lt;/b&gt;&lt;br&gt;hypothetical protein&lt;br&gt;Location: 190817 - 191651" style="stroke:black; fill:#56d815; stroke-width:1; " locus_tag="cds190817_191651" class="clusterblast-orf" id="dummy-2_q2_0_all" points="55,35 60,30 87,30 87,40 60,40 55,35 "  />
<polygon description="&lt;b&gt;cds191869_192385&lt;/b&gt;&lt;br&gt;Protein of unknown function DUF664&lt;br&gt;Location: 191869 - 192385" style="stroke:black; fill:#1597d8; stroke-width:1; " locus_tag="cds191869_192385" class="clusterblast-orf" id="dummy-2_q3_0_all" points="95,35 100,30 114,30 114,40 100,40 95,35 "  />
<polygon description="&lt;b&gt;cds192568_193225&lt;/b&gt;&lt;br&gt;hypothetical protein&lt;br&gt;Location: 192568 - 193225" style="stroke:black; fill:#9715d8; stroke-width:1; " locus_tag="cds192568_193225" class="clusterblast-orf" id="dummy-2_q4_0_all" points="121,35 126,30 146,30 146,40 126,40 121,35 "  />
<polygon description="&lt;b&gt;cds193221_194103&lt;/b&gt;&lt;br&gt;Efflux ABC transporter, ATP-binding protein&lt;br&gt;Location: 193221 - 194103" style="stroke:black; fill:#d85615; stroke-width:1; " locus_tag="cds193221_194103" class="clusterblast-orf" id="dummy-2_q5_0_all" points="146,35 151,30 179,30 179,40 151,40 146,35 "  />
<polygon description="&lt;b&gt;cds194235_195114&lt;/b&gt;&lt;br&gt;Oxidoreductase, short-chain dehydrogenase/reductase family&lt;br&gt;Location: 194235 - 195114" style="stroke:black; fill:#15d815; stroke-width:1; " locus_tag="cds194235_195114" class="clusterblast-orf" id="dummy-2_q6_0_all" points="184,35 189,30 218,30 218,40 189,40 184,35 "  />
<polygon description="&lt;b&gt;cds195121_195880&lt;/b&gt;&lt;br&gt;Short-chain dehydrogenase/reductase SDR&lt;br&gt;Location: 195121 - 195880" style="stroke:black; fill:#15d815; stroke-width:1; " locus_tag="cds195121_195880" class="clusterblast-orf" id="dummy-2_q7_0_all" points="218,35 223,30 247,30 247,40 223,40 218,35 "  />
<polygon description="&lt;b&gt;cds195990_196257&lt;/b&gt;&lt;br&gt;hypothetical protein&lt;br&gt;Location: 195990 - 196257" style="stroke:black; fill:#1556d8; stroke-width:1; " locus_tag="cds195990_196257" class="clusterblast-orf" id="dummy-2_q8_0_all" points="251,35 256,30 261,30 261,40 256,40 251,35 "  />
<polygon description="&lt;b&gt;cds196397_197258&lt;/b&gt;&lt;br&gt;Putative DNA-binding protein&lt;br&gt;Location: 196397 - 197258" style="stroke:black; fill:#d815d8; stroke-width:1; " locus_tag="cds196397_197258" class="clusterblast-orf" id="dummy-2_q9_0_all" points="266,40 294,40 299,35 294,30 266,30 266,40 "  />
<polygon description="&lt;b&gt;cds197427_198033&lt;/b&gt;&lt;br&gt;ABC transporter, ATP-binding protein&lt;br&gt;Location: 197427 - 198033" style="stroke:black; fill:#d85615; stroke-width:1; " locus_tag="cds197427_198033" class="clusterblast-orf" id="dummy-2_q10_0_all" points="305,40 323,40 328,35 323,30 305,30 305,40 "  />
<polygon description="&lt;b&gt;cds198029_198857&lt;/b&gt;&lt;br&gt;hypothetical protein&lt;br&gt;Location: 198029 - 198857" style="stroke:black; fill:#d89715; stroke-width:1; " locus_tag="cds198029_198857" class="clusterblast-orf" id="dummy-2_q11_0_all" points="328,40 355,40 360,35 355,30 328,30 328,40 "  />
<polygon description="&lt;b&gt;cds199011_200796&lt;/b&gt;&lt;br&gt;Undecaprenyl diphosphate synthase (EC 2.5.1.31)&lt;br&gt;Location: 199011 - 200796" style="stroke:black; fill:#15d856; stroke-width:1; " locus_tag="cds199011_200796" class="clusterblast-orf" id="dummy-2_q12_0_all" points="366,40 428,40 433,35 428,30 366,30 366,40 "  />
<polygon description="&lt;b&gt;cds200814_202041&lt;/b&gt;&lt;br&gt;Beta-lactamase class C-like and penicillin binding proteins (PBPs) superfamily&lt;br&gt;Location: 200814 - 202041" style="stroke:black; fill:#1515d8; stroke-width:1; " locus_tag="cds200814_202041" class="clusterblast-orf" id="dummy-2_q13_0_all" points="434,35 439,30 480,30 480,40 439,40 434,35 "  />
<polygon description="&lt;b&gt;cds202234_202585&lt;/b&gt;&lt;br&gt;hypothetical protein&lt;br&gt;Location: 202234 - 202585" style="stroke:black; fill:#d81597; stroke-width:1; " locus_tag="cds202234_202585" class="clusterblast-orf" id="dummy-2_q14_0_all" points="488,35 493,30 501,30 501,40 493,40 488,35 "  />
<polygon description="&lt;b&gt;cds202735_203710&lt;/b&gt;&lt;br&gt;Putative oxidoreductase&lt;br&gt;Location: 202735 - 203710" style="stroke:black; fill:#d8d815; stroke-width:1; " locus_tag="cds202735_203710" class="clusterblast-orf" id="dummy-2_q15_0_all" points="507,40 539,40 544,35 539,30 507,30 507,40 "  />
<polygon description="&lt;b&gt;cds203851_205069&lt;/b&gt;&lt;br&gt;Beta-lactamase class C-like and penicillin binding proteins (PBPs) superfamily&lt;br&gt;Location: 203851 - 205069" style="stroke:black; fill:#1515d8; stroke-width:1; " locus_tag="cds203851_205069" class="clusterblast-orf" id="dummy-2_q16_0_all" points="549,35 554,30 595,30 595,40 554,40 549,35 "  />
<polygon description="&lt;b&gt;cds205239_205998&lt;/b&gt;&lt;br&gt;Transcriptional regulator, DeoR family&lt;br&gt;Location: 205239 - 205998" style="stroke:black; fill:#15d897; stroke-width:1; " locus_tag="cds205239_205998" class="clusterblast-orf" id="dummy-2_q17_0_all" points="602,35 607,30 630,30 630,40 607,40 602,35 "  />
<polygon description="&lt;b&gt;cds206046_206430&lt;/b&gt;&lt;br&gt;hypothetical protein&lt;br&gt;Location: 206046 - 206430" style="stroke:black; fill:#5615d8; stroke-width:1; " locus_tag="cds206046_206430" class="clusterblast-orf" id="dummy-2_q18_0_all" points="632,40 642,40 647,35 642,30 632,30 632,40 "  />
<polygon description="&lt;b&gt;cds206426_207170&lt;/b&gt;&lt;br&gt;GDP-mannose pyrophosphatase NudK&lt;br&gt;Location: 206426 - 207170" style="stroke:black; fill:#d81556; stroke-width:1; " locus_tag="cds206426_207170" class="clusterblast-orf" id="dummy-2_q19_0_all" points="647,40 670,40 675,35 670,30 647,30 647,40 "  />
<polygon description="&lt;b&gt;cds207610_208012&lt;/b&gt;&lt;br&gt;putative membrane protein&lt;br&gt;Location: 207610 - 208012" style="stroke:black; fill:#97d815; stroke-width:1; " locus_tag="cds207610_208012" class="clusterblast-orf" id="dummy-2_q20_0_all" points="692,35 697,30 707,30 707,40 697,40 692,35 "  />
<polygon description="&lt;b&gt;cds208363_209941&lt;/b&gt;&lt;br&gt;Putative nucleoside-diphosphate-sugar epimerase&lt;br&gt;Location: 208363 - 209941" style="stroke:black; fill:#15d8d8; stroke-width:1; " locus_tag="cds208363_209941" class="clusterblast-orf" id="dummy-2_q21_0_all" points="720,40 775,40 780,35 775,30 720,30 720,40 "  />
</g>
<g description="NZ_CP042278 (7485676-7507561): Streptomyces sp. WAC06273 strain WAC6273 subst... (90% of genes show similarity), terpene" class="clusterblast-cluster" label="NZ_CP042278"  >
<text class="clusterblast-acc" y="70" x="5"  >
<a xlink:href="https://antismash-db.secondarymetabolites.org/area.html?record=NZ_CP042278&amp;start=7485676&amp;end=7507561" target="_blank">NZ_CP042278 (7485676-7507561)</a>: Streptomyces sp. WAC06273 strain WAC6273 subst... (90% of genes show similarity), terpene</text>
<line x2="778.0" y1="85" style="stroke:grey; stroke-width:1; " x1="10" y2="85"  />
</g>
<g id="a2_000"  >
<polygon description="&lt;b&gt;FKP34_RS33945&lt;/b&gt;&lt;br&gt;YceI family protein&lt;br&gt;Location: 7507108 - 7506194&lt;br&gt;&lt;br&gt;&lt;b&gt;BlastP hit with cds189365_190280&lt;/b&gt;&lt;br&gt;Percentage identity: 100&lt;br&gt;Percentage coverage: 100&lt;br&gt;BLAST bit score: 575&lt;br&gt;E-value: 2.7e-162" style="stroke:black; fill:#d81515; stroke-width:1; " locus_tag="FKP34_RS33945" class="clusterblast-orf" id="dummy-2_h2_4_0" points="1,85 6,80 36,80 36,90 6,90 1,85 "  />
</g>
<g id="a2_001"  >
<polygon description="&lt;b&gt;FKP34_RS33940&lt;/b&gt;&lt;br&gt;PIG-L family deacetylase&lt;br&gt;Location: 7505657 - 7504825&lt;br&gt;&lt;br&gt;&lt;b&gt;BlastP hit with cds190817_191651&lt;/b&gt;&lt;br&gt;Percentage identity: 90&lt;br&gt;Percentage coverage: 21&lt;br&gt;BLAST bit score: 110&lt;br&gt;E-value: 3e-22" style="stroke:black; fill:#56d815; stroke-width:1; " locus_tag="FKP34_RS33940" class="clusterblast-orf" id="dummy-2_h2_4_1" points="56,85 61,80 88,80 88,90 61,90 56,85 "  />
</g>
<g id="a2_002"  >
<polygon description="&lt;b&gt;FKP34_RS33935&lt;/b&gt;&lt;br&gt;DinB family protein&lt;br&gt;Location: 7504606 - 7504091&lt;br&gt;&lt;br&gt;&lt;b&gt;BlastP hit with cds191869_192385&lt;/b&gt;&lt;br&gt;Percentage identity: 99&lt;br&gt;Percentage coverage: 100&lt;br&gt;BLAST bit score: 352&lt;br&gt;E-value: 1.6e-95" style="stroke:black; fill:#1597d8; stroke-width:1; " locus_tag="FKP34_RS33935" class="clusterblast-orf" id="dummy-2_h2_4_2" points="96,85 101,80 115,80 115,90 101,90 96,85 "  />
</g>
<g id="a2_003"  >
<polygon description="&lt;b&gt;FKP34_RS33930&lt;/b&gt;&lt;br&gt;hypothetical protein&lt;br&gt;Location: 7503907 - 7503251&lt;br&gt;&lt;br&gt;&lt;b&gt;BlastP hit with cds192568_193225&lt;/b&gt;&lt;br&gt;Percentage identity: 91&lt;br&gt;Percentage coverage: 100&lt;br&gt;BLAST bit score: 347&lt;br&gt;E-value: 8.7e-94" style="stroke:black; fill:#9715d8; stroke-width:1; " locus_tag="FKP34_RS33930" class="clusterblast-orf" id="dummy-2_h2_4_3" points="122,85 127,80 147,80 147,90 127,90 122,85 "  />
</g>
<g id="a2_004"  >
<polygon description="&lt;b&gt;FKP34_RS33925&lt;/b&gt;&lt;br&gt;ATP-binding cassette domain-containing protein&lt;br&gt;Location: 7503254 - 7502373&lt;br&gt;&lt;br&gt;&lt;b&gt;BlastP hit with cds193221_194103&lt;/b&gt;&lt;br&gt;Percentage identity: 99&lt;br&gt;Percentage coverage: 100&lt;br&gt;BLAST bit score: 566&lt;br&gt;E-value: 1.6e-159&lt;br&gt;&lt;br&gt;&lt;b&gt;BlastP hit with cds197427_198033&lt;/b&gt;&lt;br&gt;Percentage identity: 33&lt;br&gt;Percentage coverage: 97&lt;br&gt;BLAST bit score: 93&lt;br&gt;E-value: 2.7e-17" style="stroke:black; fill:#d85615; stroke-width:1; " locus_tag="FKP34_RS33925" class="clusterblast-orf" id="dummy-2_h2_4_4" points="147,85 152,80 180,80 180,90 152,90 147,85 "  />
</g>
<g id="a2_005"  >
<polygon description="&lt;b&gt;FKP34_RS33920&lt;/b&gt;&lt;br&gt;SDR family oxidoreductase&lt;br&gt;Location: 7502240 - 7501455&lt;br&gt;&lt;br&gt;&lt;b&gt;BlastP hit with cds194235_195114&lt;/b&gt;&lt;br&gt;Percentage identity: 100&lt;br&gt;Percentage coverage: 89&lt;br&gt;BLAST bit score: 490&lt;br&gt;E-value: 1.5e-136&lt;br&gt;&lt;br&gt;&lt;b&gt;BlastP hit with cds195121_195880&lt;/b&gt;&lt;br&gt;Percentage identity: 35&lt;br&gt;Percentage coverage: 98&lt;br&gt;BLAST bit score: 132&lt;br&gt;E-value: 6.6e-29" style="stroke:black; fill:#15d815; stroke-width:1; " locus_tag="FKP34_RS33920" class="clusterblast-orf" id="dummy-2_h2_4_5" points="186,85 191,80 215,80 215,90 191,90 186,85 "  />
</g>
<g id="a2_006"  >
<polygon description="&lt;b&gt;FKP34_RS33915&lt;/b&gt;&lt;br&gt;glucose 1-dehydrogenase&lt;br&gt;Location: 7501354 - 7500596&lt;br&gt;&lt;br&gt;&lt;b&gt;BlastP hit with cds194235_195114&lt;/b&gt;&lt;br&gt;Percentage identity: 35&lt;br&gt;Percentage coverage: 84&lt;br&gt;BLAST bit score: 131&lt;br&gt;E-value: 1e-28&lt;br&gt;&lt;br&gt;&lt;b&gt;BlastP hit with cds195121_195880&lt;/b&gt;&lt;br&gt;Percentage identity: 100&lt;br&gt;Percentage coverage: 100&lt;br&gt;BLAST bit score: 477&lt;br&gt;E-value: 6.4e-133" style="stroke:black; fill:#15d815; stroke-width:1; " locus_tag="FKP34_RS33915" class="clusterblast-orf" id="dummy-2_h2_4_6" points="219,85 224,80 248,80 248,90 224,90 219,85 "  />
</g>
<g id="a2_007"  >
<polygon description="&lt;b&gt;FKP34_RS33910&lt;/b&gt;&lt;br&gt;Atu4866 domain-containing protein&lt;br&gt;Location: 7500482 - 7500216&lt;br&gt;&lt;br&gt;&lt;b&gt;BlastP hit with cds195990_196257&lt;/b&gt;&lt;br&gt;Percentage identity: 100&lt;br&gt;Percentage coverage: 100&lt;br&gt;BLAST bit score: 187&lt;br&gt;E-value: 4.6e-46" style="stroke:black; fill:#1556d8; stroke-width:1; " locus_tag="FKP34_RS33910" class="clusterblast-orf" id="dummy-2_h2_4_7" points="252,85 257,80 262,80 262,90 257,90 252,85 "  />
</g>
<g id="a2_008"  >
<polygon description="&lt;b&gt;FKP34_RS33905&lt;/b&gt;&lt;br&gt;helix-turn-helix domain-containing protein&lt;br&gt;Location: 7500075 - 7499217&lt;br&gt;&lt;br&gt;&lt;b&gt;BlastP hit with cds196397_197258&lt;/b&gt;&lt;br&gt;Percentage identity: 99&lt;br&gt;Percentage coverage: 23&lt;br&gt;BLAST bit score: 131&lt;br&gt;E-value: 9.8e-29" style="stroke:black; fill:#d815d8; stroke-width:1; " locus_tag="FKP34_RS33905" class="clusterblast-orf" id="dummy-2_h2_4_8" points="268,90 295,90 300,85 295,80 268,80 268,90 "  />
</g>
<g id="a2_009"  >
<polygon description="&lt;b&gt;FKP34_RS33900&lt;/b&gt;&lt;br&gt;ATP-binding cassette domain-containing protein&lt;br&gt;Location: 7499047 - 7498442&lt;br&gt;&lt;br&gt;&lt;b&gt;BlastP hit with cds193221_194103&lt;/b&gt;&lt;br&gt;Percentage identity: 33&lt;br&gt;Percentage coverage: 67&lt;br&gt;BLAST bit score: 84&lt;br&gt;E-value: 2.4e-14&lt;br&gt;&lt;br&gt;&lt;b&gt;BlastP hit with cds197427_198033&lt;/b&gt;&lt;br&gt;Percentage identity: 99&lt;br&gt;Percentage coverage: 100&lt;br&gt;BLAST bit score: 415&lt;br&gt;E-value: 4.1e-114" style="stroke:black; fill:#d85615; stroke-width:1; " locus_tag="FKP34_RS33900" class="clusterblast-orf" id="dummy-2_h2_4_9" points="307,90 324,90 329,85 324,80 307,80 307,90 "  />
</g>
<g id="a2_0010"  >
<polygon description="&lt;b&gt;FKP34_RS33895&lt;/b&gt;&lt;br&gt;ABC transporter permease&lt;br&gt;Location: 7498445 - 7497617&lt;br&gt;&lt;br&gt;&lt;b&gt;BlastP hit with cds198029_198857&lt;/b&gt;&lt;br&gt;Percentage identity: 97&lt;br&gt;Percentage coverage: 12&lt;br&gt;BLAST bit score: 64&lt;br&gt;E-value: 2.4e-08" style="stroke:black; fill:#d89715; stroke-width:1; " locus_tag="FKP34_RS33895" class="clusterblast-orf" id="dummy-2_h2_4_10" points="329,90 356,90 361,85 356,80 329,80 329,90 "  />
</g>
<g id="a2_0011"  >
<polygon description="&lt;b&gt;FKP34_RS33890&lt;/b&gt;&lt;br&gt;di-trans,poly-cis-decaprenylcistransferase&lt;br&gt;Location: 7497561 - 7495677&lt;br&gt;&lt;br&gt;&lt;b&gt;BlastP hit with cds199011_200796&lt;/b&gt;&lt;br&gt;Percentage identity: 99&lt;br&gt;Percentage coverage: 22&lt;br&gt;BLAST bit score: 275&lt;br&gt;E-value: 8.8e-72" style="stroke:black; fill:#15d856; stroke-width:1; " locus_tag="FKP34_RS33890" class="clusterblast-orf" id="dummy-2_h2_4_11" points="363,90 429,90 434,85 429,80 363,80 363,90 "  />
</g>
<g id="a2_0012"  >
<polygon description="&lt;b&gt;FKP34_RS33885&lt;/b&gt;&lt;br&gt;serine hydrolase&lt;br&gt;Location: 7495658 - 7494588&lt;br&gt;&lt;br&gt;&lt;b&gt;BlastP hit with cds200814_202041&lt;/b&gt;&lt;br&gt;Percentage identity: 99&lt;br&gt;Percentage coverage: 87&lt;br&gt;BLAST bit score: 715&lt;br&gt;E-value: 3.9e-204&lt;br&gt;&lt;br&gt;&lt;b&gt;BlastP hit with cds203851_205069&lt;/b&gt;&lt;br&gt;Percentage identity: 32&lt;br&gt;Percentage coverage: 82&lt;br&gt;BLAST bit score: 140&lt;br&gt;E-value: 3e-31" style="stroke:black; fill:#1515d8; stroke-width:1; " locus_tag="FKP34_RS33885" class="clusterblast-orf" id="dummy-2_h2_4_12" points="435,85 440,80 476,80 476,90 440,90 435,85 "  />
</g>
<g id="a2_0013"  >
<polygon description="&lt;b&gt;FKP34_RS33880&lt;/b&gt;&lt;br&gt;hypothetical protein&lt;br&gt;Location: 7494239 - 7493889&lt;br&gt;&lt;br&gt;&lt;b&gt;BlastP hit with cds202234_202585&lt;/b&gt;&lt;br&gt;Percentage identity: 99&lt;br&gt;Percentage coverage: 100&lt;br&gt;BLAST bit score: 230&lt;br&gt;E-value: 6.3e-59" style="stroke:black; fill:#d81597; stroke-width:1; " locus_tag="FKP34_RS33880" class="clusterblast-orf" id="dummy-2_h2_4_13" points="489,85 494,80 502,80 502,90 494,90 489,85 "  />
</g>
<g id="a2_0014"  >
<polygon description="&lt;b&gt;FKP34_RS33875&lt;/b&gt;&lt;br&gt;zinc-binding dehydrogenase&lt;br&gt;Location: 7493738 - 7492763" style="stroke:black; fill:white; stroke-width:1; " locus_tag="FKP34_RS33875" class="clusterblast-orf" id="dummy-2_h2_4_14" points="508,90 540,90 545,85 540,80 508,80 508,90 "  />
</g>
<g id="a2_0015"  >
<polygon description="&lt;b&gt;FKP34_RS33870&lt;/b&gt;&lt;br&gt;beta-lactamase family protein&lt;br&gt;Location: 7492621 - 7491403&lt;br&gt;&lt;br&gt;&lt;b&gt;BlastP hit with cds200814_202041&lt;/b&gt;&lt;br&gt;Percentage identity: 36&lt;br&gt;Percentage coverage: 48&lt;br&gt;BLAST bit score: 104&lt;br&gt;E-value: 3.1e-20&lt;br&gt;&lt;br&gt;&lt;b&gt;BlastP hit with cds203851_205069&lt;/b&gt;&lt;br&gt;Percentage identity: 100&lt;br&gt;Percentage coverage: 60&lt;br&gt;BLAST bit score: 477&lt;br&gt;E-value: 1e-132" style="stroke:black; fill:#1515d8; stroke-width:1; " locus_tag="FKP34_RS33870" class="clusterblast-orf" id="dummy-2_h2_4_15" points="550,85 555,80 596,80 596,90 555,90 550,85 "  />
</g>
<g id="a2_0016"  >
<polygon description="&lt;b&gt;FKP34_RS33865&lt;/b&gt;&lt;br&gt;DeoR/GlpR transcriptional regulator&lt;br&gt;Location: 7491232 - 7490475&lt;br&gt;&lt;br&gt;&lt;b&gt;BlastP hit with cds205239_205998&lt;/b&gt;&lt;br&gt;Percentage identity: 100&lt;br&gt;Percentage coverage: 56&lt;br&gt;BLAST bit score: 267&lt;br&gt;E-value: 1e-69" style="stroke:black; fill:#15d897; stroke-width:1; " locus_tag="FKP34_RS33865" class="clusterblast-orf" id="dummy-2_h2_4_16" points="603,85 608,80 632,80 632,90 608,90 603,85 "  />
</g>
<g id="a2_0017"  >
<polygon description="&lt;b&gt;FKP34_RS33860&lt;/b&gt;&lt;br&gt;hypothetical protein&lt;br&gt;Location: 7490426 - 7490043&lt;br&gt;&lt;br&gt;&lt;b&gt;BlastP hit with cds206046_206430&lt;/b&gt;&lt;br&gt;Percentage identity: 100&lt;br&gt;Percentage coverage: 100&lt;br&gt;BLAST bit score: 255&lt;br&gt;E-value: 2e-66" style="stroke:black; fill:#5615d8; stroke-width:1; " locus_tag="FKP34_RS33860" class="clusterblast-orf" id="dummy-2_h2_4_17" points="633,90 643,90 648,85 643,80 633,80 633,90 "  />
</g>
<g id="a2_0018"  >
<polygon description="&lt;b&gt;FKP34_RS33855&lt;/b&gt;&lt;br&gt;NUDIX domain-containing protein&lt;br&gt;Location: 7490046 - 7489303&lt;br&gt;&lt;br&gt;&lt;b&gt;BlastP hit with cds206426_207170&lt;/b&gt;&lt;br&gt;Percentage identity: 100&lt;br&gt;Percentage coverage: 100&lt;br&gt;BLAST bit score: 508&lt;br&gt;E-value: 4.4e-142" style="stroke:black; fill:#d81556; stroke-width:1; " locus_tag="FKP34_RS33855" class="clusterblast-orf" id="dummy-2_h2_4_18" points="648,90 671,90 676,85 671,80 648,80 648,90 "  />
</g>
<g id="a2_0019"  >
<polygon description="&lt;b&gt;FKP34_RS33850&lt;/b&gt;&lt;br&gt;hypothetical protein&lt;br&gt;Location: 7489363 - 7488905" style="stroke:black; fill:white; stroke-width:1; " locus_tag="FKP34_RS33850" class="clusterblast-orf" id="dummy-2_h2_4_19" points="674,85 679,80 691,80 691,90 679,90 674,85 "  />
</g>
<g id="a2_0020"  >
<polygon description="&lt;b&gt;FKP34_RS33845&lt;/b&gt;&lt;br&gt;hypothetical protein&lt;br&gt;Location: 7488862 - 7488473&lt;br&gt;&lt;br&gt;&lt;b&gt;BlastP hit with cds207610_208012&lt;/b&gt;&lt;br&gt;Percentage identity: 94&lt;br&gt;Percentage coverage: 100&lt;br&gt;BLAST bit score: 249&lt;br&gt;E-value: 1.5e-64" style="stroke:black; fill:#97d815; stroke-width:1; " locus_tag="FKP34_RS33845" class="clusterblast-orf" id="dummy-2_h2_4_20" points="693,85 698,80 707,80 707,90 698,90 693,85 "  />
</g>
<g id="a2_0021"  >
<polygon description="&lt;b&gt;FKP34_RS33840&lt;/b&gt;&lt;br&gt;SDR family oxidoreductase&lt;br&gt;Location: 7488121 - 7486610&lt;br&gt;&lt;br&gt;&lt;b&gt;BlastP hit with cds208363_209941&lt;/b&gt;&lt;br&gt;Percentage identity: 100&lt;br&gt;Percentage coverage: 96&lt;br&gt;BLAST bit score: 1028&lt;br&gt;E-value: 2.7e-298" style="stroke:black; fill:#15d8d8; stroke-width:1; " locus_tag="FKP34_RS33840" class="clusterblast-orf" id="dummy-2_h2_4_21" points="721,90 773,90 778,85 773,80 721,80 721,90 "  />
</g>
</svg>
