<svg preserveAspectRatio="none" version="1.1" xmlns="http://www.w3.org/2000/svg" y="0" height="230" viewBox="0 0 800 230" x="0" width="800" xmlns:xlink="http://www.w3.org/1999/xlink"  >
<g class="clusterblast-cluster" label="Query sequence"  >
<text class="clusterblast-acc" y="20" x="5"  >
Query sequence</text>
<line x2="778.0" y1="35" style="stroke:grey; stroke-width:1; " x1="10" y2="35"  />
<polygon description="&lt;b&gt;cds24709_25303&lt;/b&gt;&lt;br&gt;Inhibitor of the KinA pathway to sporulation, predicted exonuclease&lt;br&gt;Location: 24709 - 25303" style="stroke:black; fill:#d81515; stroke-width:1; " locus_tag="cds24709_25303" class="clusterblast-orf" id="dummy-1_q0_0_all" points="122,40 130,40 135,35 130,30 122,30 122,40 "  />
<polygon description="&lt;b&gt;cds25496_26828&lt;/b&gt;&lt;br&gt;Triacylglycerol lipase precursor (EC 3.1.1.3)&lt;br&gt;Location: 25496 - 26828" style="stroke:black; fill:#77d815; stroke-width:1; " locus_tag="cds25496_26828" class="clusterblast-orf" id="dummy-1_q1_0_all" points="140,40 165,40 170,35 165,30 140,30 140,40 "  />
<polygon description="&lt;b&gt;cds26874_28599&lt;/b&gt;&lt;br&gt;hypothetical protein&lt;br&gt;Location: 26874 - 28599" style="stroke:black; fill:#15d8d8; stroke-width:1; " locus_tag="cds26874_28599" class="clusterblast-orf" id="dummy-1_q2_0_all" points="171,35 176,30 211,30 211,40 176,40 171,35 "  />
<polygon description="&lt;b&gt;cds28927_30538&lt;/b&gt;&lt;br&gt;L-Proline/Glycine betaine transporter ProP&lt;br&gt;Location: 28927 - 30538" style="stroke:black; fill:#7715d8; stroke-width:1; " locus_tag="cds28927_30538" class="clusterblast-orf" id="dummy-1_q3_0_all" points="218,40 250,40 255,35 250,30 218,30 218,40 "  />
<polygon description="&lt;b&gt;cds30501_31440&lt;/b&gt;&lt;br&gt;Integral membrane protein&lt;br&gt;Location: 30501 - 31440" style="stroke:black; fill:#d85015; stroke-width:1; " locus_tag="cds30501_31440" class="clusterblast-orf" id="dummy-1_q4_0_all" points="254,35 259,30 276,30 276,40 259,40 254,35 "  />
<polygon description="&lt;b&gt;cds31665_32412&lt;/b&gt;&lt;br&gt;putative lipoprotein&lt;br&gt;Location: 31665 - 32412" style="stroke:black; fill:#3cd815; stroke-width:1; " locus_tag="cds31665_32412" class="clusterblast-orf" id="dummy-1_q5_0_all" points="281,40 293,40 298,35 293,30 281,30 281,40 "  />
<polygon description="&lt;b&gt;cds32419_32908&lt;/b&gt;&lt;br&gt;hypothetical protein&lt;br&gt;Location: 32419 - 32908" style="stroke:black; fill:#159ed8; stroke-width:1; " locus_tag="cds32419_32908" class="clusterblast-orf" id="dummy-1_q6_0_all" points="298,35 303,30 309,30 309,40 303,40 298,35 "  />
<polygon description="&lt;b&gt;cds32924_33932&lt;/b&gt;&lt;br&gt;CrtV-methyltransferase-like protein&lt;br&gt;Location: 32924 - 33932" style="stroke:black; fill:#b115d8; stroke-width:1; " locus_tag="cds32924_33932" class="clusterblast-orf" id="dummy-1_q7_0_all" points="310,35 315,30 333,30 333,40 315,40 310,35 "  />
<polygon description="&lt;b&gt;cds33928_34930&lt;/b&gt;&lt;br&gt;Phytoene synthase (EC 2.5.1.32)&lt;br&gt;Location: 33928 - 34930" style="stroke:black; fill:#d88a15; stroke-width:1; " locus_tag="cds33928_34930" class="clusterblast-orf" id="dummy-1_q8_0_all" points="333,35 338,30 355,30 355,40 338,40 333,35 "  />
<polygon description="&lt;b&gt;cds34926_36444&lt;/b&gt;&lt;br&gt;Squalene/phytoene desaturase HopC&lt;br&gt;Location: 34926 - 36444" style="stroke:black; fill:#15d829; stroke-width:1; " locus_tag="cds34926_36444" class="clusterblast-orf" id="dummy-1_q9_0_all" points="355,35 360,30 390,30 390,40 360,40 355,35 "  />
<polygon description="&lt;b&gt;cds36942_38169&lt;/b&gt;&lt;br&gt;Lycopene beta-cyclase (EC 5.5.1.19)&lt;br&gt;Location: 36942 - 38169" style="stroke:black; fill:#1563d8; stroke-width:1; " locus_tag="cds36942_38169" class="clusterblast-orf" id="dummy-1_q10_0_all" points="401,40 425,40 430,35 425,30 401,30 401,40 "  />
<polygon description="&lt;b&gt;cds38172_38904&lt;/b&gt;&lt;br&gt;CrtT-methyltransferase-like protein&lt;br&gt;Location: 38172 - 38904" style="stroke:black; fill:#d815c5; stroke-width:1; " locus_tag="cds38172_38904" class="clusterblast-orf" id="dummy-1_q11_0_all" points="430,40 441,40 446,35 441,30 430,30 430,40 "  />
<polygon description="&lt;b&gt;cds38900_40472&lt;/b&gt;&lt;br&gt;phi-Carotenoid synthase (EC 1.3.-.- and EC 2.1.1-)&lt;br&gt;Location: 38900 - 40472" style="stroke:black; fill:#d8c515; stroke-width:1; " locus_tag="cds38900_40472" class="clusterblast-orf" id="dummy-1_q12_0_all" points="446,40 477,40 482,35 477,30 446,30 446,40 "  />
<polygon description="&lt;b&gt;cds40616_41483&lt;/b&gt;&lt;br&gt;Putative oxidoreductase&lt;br&gt;Location: 40616 - 41483" style="stroke:black; fill:#15d863; stroke-width:1; " locus_tag="cds40616_41483" class="clusterblast-orf" id="dummy-1_q13_0_all" points="486,35 491,30 505,30 505,40 491,40 486,35 "  />
<polygon description="&lt;b&gt;cds41543_43163&lt;/b&gt;&lt;br&gt;Beta-carotene ketolase&lt;br&gt;Location: 41543 - 43163" style="stroke:black; fill:#1529d8; stroke-width:1; " locus_tag="cds41543_43163" class="clusterblast-orf" id="dummy-1_q14_0_all" points="507,35 512,30 544,30 544,40 512,40 507,35 "  />
<polygon description="&lt;b&gt;cds43155_43656&lt;/b&gt;&lt;br&gt;hypothetical protein&lt;br&gt;Location: 43155 - 43656" style="stroke:black; fill:#d8158a; stroke-width:1; " locus_tag="cds43155_43656" class="clusterblast-orf" id="dummy-1_q15_0_all" points="544,35 549,30 555,30 555,40 549,40 544,35 "  />
<polygon description="&lt;b&gt;cds43973_45137&lt;/b&gt;&lt;br&gt;serine protease precursor&lt;br&gt;Location: 43973 - 45137" style="stroke:black; fill:#b1d815; stroke-width:1; " locus_tag="cds43973_45137" class="clusterblast-orf" id="dummy-1_q16_0_all" points="562,40 584,40 589,35 584,30 562,30 562,40 "  />
<polygon description="&lt;b&gt;cds45227_45665&lt;/b&gt;&lt;br&gt;Integral membrane protein&lt;br&gt;Location: 45227 - 45665" style="stroke:black; fill:#15d89e; stroke-width:1; " locus_tag="cds45227_45665" class="clusterblast-orf" id="dummy-1_q17_0_all" points="591,35 596,30 601,30 601,40 596,40 591,35 "  />
<polygon description="&lt;b&gt;cds45784_47071&lt;/b&gt;&lt;br&gt;Putative transmembrane transport protein&lt;br&gt;Location: 45784 - 47071" style="stroke:black; fill:#3c15d8; stroke-width:1; " locus_tag="cds45784_47071" class="clusterblast-orf" id="dummy-1_q18_0_all" points="604,35 609,30 633,30 633,40 609,40 604,35 "  />
<polygon description="&lt;b&gt;cds47479_47665&lt;/b&gt;&lt;br&gt;hypothetical protein&lt;br&gt;Location: 47479 - 47665" style="stroke:black; fill:white; stroke-width:1; " locus_tag="cds47479_47665" class="clusterblast-orf" id="dummy-1_q19_0_all" points="642,40 642,40 647,35 642,30 642,30 642,40 "  />
<polygon description="&lt;b&gt;cds47841_48147&lt;/b&gt;&lt;br&gt;putative glutamate dehydrogenase/leucine dehydrogenase&lt;br&gt;Location: 47841 - 48147" style="stroke:black; fill:#d81550; stroke-width:1; " locus_tag="cds47841_48147" class="clusterblast-orf" id="dummy-1_q20_0_all" points="651,40 653,40 658,35 653,30 651,30 651,40 "  />
</g>
<g description="NZ_KZ819184 (3584225-3618334): Streptomyces sp. CS207 scaffold00001, whole ge... (64% of genes show similarity), terpene" class="clusterblast-cluster" label="NZ_KZ819184"  >
<text class="clusterblast-acc" y="70" x="5"  >
<a xlink:href="https://antismash-db.secondarymetabolites.org/area.html?record=NZ_KZ819184&amp;start=3584225&amp;end=3618334" target="_blank">NZ_KZ819184 (3584225-3618334)</a>: Streptomyces sp. CS207 scaffold00001, whole ge... (64% of genes show similarity), terpene</text>
<line x2="778.0" y1="85" style="stroke:grey; stroke-width:1; " x1="10" y2="85"  />
</g>
<g id="a1_000"  >
<polygon description="&lt;b&gt;DBP22_RS16535&lt;/b&gt;&lt;br&gt;exonuclease domain-containing protein&lt;br&gt;Location: 3618334 - 3617741&lt;br&gt;&lt;br&gt;&lt;b&gt;BlastP hit with cds24709_25303&lt;/b&gt;&lt;br&gt;Percentage identity: 100&lt;br&gt;Percentage coverage: 100&lt;br&gt;BLAST bit score: 410&lt;br&gt;E-value: 7.6e-113" style="stroke:black; fill:#d81515; stroke-width:1; " locus_tag="DBP22_RS16535" class="clusterblast-orf" id="dummy-1_h1_1_0" points="0,90 8,90 13,85 8,80 0,80 0,90 "  />
</g>
<g id="a1_001"  >
<polygon description="&lt;b&gt;DBP22_RS16530&lt;/b&gt;&lt;br&gt;alpha/beta fold hydrolase&lt;br&gt;Location: 3617547 - 3616216&lt;br&gt;&lt;br&gt;&lt;b&gt;BlastP hit with cds25496_26828&lt;/b&gt;&lt;br&gt;Percentage identity: 93&lt;br&gt;Percentage coverage: 100&lt;br&gt;BLAST bit score: 811&lt;br&gt;E-value: 3.3e-233" style="stroke:black; fill:#77d815; stroke-width:1; " locus_tag="DBP22_RS16530" class="clusterblast-orf" id="dummy-1_h1_1_1" points="17,90 43,90 48,85 43,80 17,80 17,90 "  />
</g>
<g id="a1_002"  >
<polygon description="&lt;b&gt;DBP22_RS16525&lt;/b&gt;&lt;br&gt;hypothetical protein&lt;br&gt;Location: 3616169 - 3614445&lt;br&gt;&lt;br&gt;&lt;b&gt;BlastP hit with cds26874_28599&lt;/b&gt;&lt;br&gt;Percentage identity: 99&lt;br&gt;Percentage coverage: 100&lt;br&gt;BLAST bit score: 1028&lt;br&gt;E-value: 2.2e-298" style="stroke:black; fill:#15d8d8; stroke-width:1; " locus_tag="DBP22_RS16525" class="clusterblast-orf" id="dummy-1_h1_1_2" points="49,85 54,80 88,80 88,90 54,90 49,85 "  />
</g>
<g id="a1_003"  >
<polygon description="&lt;b&gt;DBP22_RS16520&lt;/b&gt;&lt;br&gt;glycine betaine/L-proline transporter ProP&lt;br&gt;Location: 3613994 - 3612507&lt;br&gt;&lt;br&gt;&lt;b&gt;BlastP hit with cds28927_30538&lt;/b&gt;&lt;br&gt;Percentage identity: 99&lt;br&gt;Percentage coverage: 92&lt;br&gt;BLAST bit score: 944&lt;br&gt;E-value: 5.2e-273" style="stroke:black; fill:#7715d8; stroke-width:1; " locus_tag="DBP22_RS16520" class="clusterblast-orf" id="dummy-1_h1_1_3" points="99,90 128,90 133,85 128,80 99,80 99,90 "  />
</g>
<g id="a1_004"  >
<polygon description="&lt;b&gt;DBP22_RS16515&lt;/b&gt;&lt;br&gt;DMT family transporter&lt;br&gt;Location: 3612543 - 3611605&lt;br&gt;&lt;br&gt;&lt;b&gt;BlastP hit with cds30501_31440&lt;/b&gt;&lt;br&gt;Percentage identity: 98&lt;br&gt;Percentage coverage: 100&lt;br&gt;BLAST bit score: 550&lt;br&gt;E-value: 9.7e-155" style="stroke:black; fill:#d85015; stroke-width:1; " locus_tag="DBP22_RS16515" class="clusterblast-orf" id="dummy-1_h1_1_4" points="132,85 137,80 153,80 153,90 137,90 132,85 "  />
</g>
<g id="a1_005"  >
<polygon description="&lt;b&gt;DBP22_RS16510&lt;/b&gt;&lt;br&gt;hypothetical protein&lt;br&gt;Location: 3611379 - 3610633&lt;br&gt;&lt;br&gt;&lt;b&gt;BlastP hit with cds31665_32412&lt;/b&gt;&lt;br&gt;Percentage identity: 98&lt;br&gt;Percentage coverage: 100&lt;br&gt;BLAST bit score: 475&lt;br&gt;E-value: 3.1e-132" style="stroke:black; fill:#3cd815; stroke-width:1; " locus_tag="DBP22_RS16510" class="clusterblast-orf" id="dummy-1_h1_1_5" points="159,90 171,90 176,85 171,80 159,80 159,90 "  />
</g>
<g id="a1_006"  >
<polygon description="&lt;b&gt;DBP22_RS16505&lt;/b&gt;&lt;br&gt;hypothetical protein&lt;br&gt;Location: 3610625 - 3610137&lt;br&gt;&lt;br&gt;&lt;b&gt;BlastP hit with cds32419_32908&lt;/b&gt;&lt;br&gt;Percentage identity: 99&lt;br&gt;Percentage coverage: 100&lt;br&gt;BLAST bit score: 344&lt;br&gt;E-value: 7.1e-93" style="stroke:black; fill:#159ed8; stroke-width:1; " locus_tag="DBP22_RS16505" class="clusterblast-orf" id="dummy-1_h1_1_6" points="176,85 181,80 187,80 187,90 181,90 176,85 "  />
</g>
<g id="a1_007"  >
<polygon description="&lt;b&gt;DBP22_RS16500&lt;/b&gt;&lt;br&gt;Rieske 2Fe-2S domain-containing protein&lt;br&gt;Location: 3610120 - 3609113&lt;br&gt;&lt;br&gt;&lt;b&gt;BlastP hit with cds32924_33932&lt;/b&gt;&lt;br&gt;Percentage identity: 99&lt;br&gt;Percentage coverage: 100&lt;br&gt;BLAST bit score: 688&lt;br&gt;E-value: 3.2e-196" style="stroke:black; fill:#b115d8; stroke-width:1; " locus_tag="DBP22_RS16500" class="clusterblast-orf" id="dummy-1_h1_1_7" points="187,85 192,80 210,80 210,90 192,90 187,85 "  />
</g>
<g id="a1_008"  >
<polygon description="&lt;b&gt;DBP22_RS16495&lt;/b&gt;&lt;br&gt;phytoene/squalene synthase family protein&lt;br&gt;Location: 3609116 - 3608115&lt;br&gt;&lt;br&gt;&lt;b&gt;BlastP hit with cds33928_34930&lt;/b&gt;&lt;br&gt;Percentage identity: 100&lt;br&gt;Percentage coverage: 100&lt;br&gt;BLAST bit score: 630&lt;br&gt;E-value: 7.8e-179" style="stroke:black; fill:#d88a15; stroke-width:1; " locus_tag="DBP22_RS16495" class="clusterblast-orf" id="dummy-1_h1_1_8" points="210,85 215,80 233,80 233,90 215,90 210,85 "  />
</g>
<g id="a1_009"  >
<polygon description="&lt;b&gt;DBP22_RS16490&lt;/b&gt;&lt;br&gt;phytoene desaturase&lt;br&gt;Location: 3608118 - 3606601&lt;br&gt;&lt;br&gt;&lt;b&gt;BlastP hit with cds34926_36444&lt;/b&gt;&lt;br&gt;Percentage identity: 100&lt;br&gt;Percentage coverage: 100&lt;br&gt;BLAST bit score: 991&lt;br&gt;E-value: 3.5e-287" style="stroke:black; fill:#15d829; stroke-width:1; " locus_tag="DBP22_RS16490" class="clusterblast-orf" id="dummy-1_h1_1_9" points="233,85 238,80 268,80 268,90 238,90 233,85 "  />
</g>
<g id="a1_0010"  >
<polygon description="&lt;b&gt;DBP22_RS16485&lt;/b&gt;&lt;br&gt;lycopene cyclase&lt;br&gt;Location: 3606102 - 3604876&lt;br&gt;&lt;br&gt;&lt;b&gt;BlastP hit with cds36942_38169&lt;/b&gt;&lt;br&gt;Percentage identity: 99&lt;br&gt;Percentage coverage: 100&lt;br&gt;BLAST bit score: 812&lt;br&gt;E-value: 2.3e-233" style="stroke:black; fill:#1563d8; stroke-width:1; " locus_tag="DBP22_RS16485" class="clusterblast-orf" id="dummy-1_h1_1_10" points="279,90 302,90 307,85 302,80 279,80 279,90 "  />
</g>
<g id="a1_0011"  >
<polygon description="&lt;b&gt;DBP22_RS16480&lt;/b&gt;&lt;br&gt;methyltransferase domain-containing protein&lt;br&gt;Location: 3604872 - 3604141&lt;br&gt;&lt;br&gt;&lt;b&gt;BlastP hit with cds38172_38904&lt;/b&gt;&lt;br&gt;Percentage identity: 99&lt;br&gt;Percentage coverage: 100&lt;br&gt;BLAST bit score: 480&lt;br&gt;E-value: 1.3e-133" style="stroke:black; fill:#d815c5; stroke-width:1; " locus_tag="DBP22_RS16480" class="clusterblast-orf" id="dummy-1_h1_1_11" points="307,90 319,90 324,85 319,80 307,80 307,90 "  />
</g>
<g id="a1_0012"  >
<polygon description="&lt;b&gt;DBP22_RS16475&lt;/b&gt;&lt;br&gt;FAD-dependent oxidoreductase&lt;br&gt;Location: 3604144 - 3602573&lt;br&gt;&lt;br&gt;&lt;b&gt;BlastP hit with cds38900_40472&lt;/b&gt;&lt;br&gt;Percentage identity: 99&lt;br&gt;Percentage coverage: 100&lt;br&gt;BLAST bit score: 1036&lt;br&gt;E-value: 7.5e-301" style="stroke:black; fill:#d8c515; stroke-width:1; " locus_tag="DBP22_RS16475" class="clusterblast-orf" id="dummy-1_h1_1_12" points="324,90 355,90 360,85 355,80 324,80 324,90 "  />
</g>
<g id="a1_0013"  >
<polygon description="&lt;b&gt;DBP22_RS16470&lt;/b&gt;&lt;br&gt;SDR family oxidoreductase&lt;br&gt;Location: 3602437 - 3601571&lt;br&gt;&lt;br&gt;&lt;b&gt;BlastP hit with cds40616_41483&lt;/b&gt;&lt;br&gt;Percentage identity: 99&lt;br&gt;Percentage coverage: 100&lt;br&gt;BLAST bit score: 541&lt;br&gt;E-value: 5.4e-152" style="stroke:black; fill:#15d863; stroke-width:1; " locus_tag="DBP22_RS16470" class="clusterblast-orf" id="dummy-1_h1_1_13" points="363,85 368,80 383,80 383,90 368,90 363,85 "  />
</g>
<g id="a1_0014"  >
<polygon description="&lt;b&gt;DBP22_RS16465&lt;/b&gt;&lt;br&gt;NAD(P)/FAD-dependent oxidoreductase&lt;br&gt;Location: 3601510 - 3599891&lt;br&gt;&lt;br&gt;&lt;b&gt;BlastP hit with cds41543_43163&lt;/b&gt;&lt;br&gt;Percentage identity: 100&lt;br&gt;Percentage coverage: 100&lt;br&gt;BLAST bit score: 1079&lt;br&gt;E-value: 0.0" style="stroke:black; fill:#1529d8; stroke-width:1; " locus_tag="DBP22_RS16465" class="clusterblast-orf" id="dummy-1_h1_1_14" points="384,85 389,80 421,80 421,90 389,90 384,85 "  />
</g>
<g id="a1_0015"  >
<polygon description="&lt;b&gt;DBP22_RS16460&lt;/b&gt;&lt;br&gt;SRPBCC family protein&lt;br&gt;Location: 3599898 - 3599398&lt;br&gt;&lt;br&gt;&lt;b&gt;BlastP hit with cds43155_43656&lt;/b&gt;&lt;br&gt;Percentage identity: 100&lt;br&gt;Percentage coverage: 100&lt;br&gt;BLAST bit score: 344&lt;br&gt;E-value: 5.6e-93" style="stroke:black; fill:#d8158a; stroke-width:1; " locus_tag="DBP22_RS16460" class="clusterblast-orf" id="dummy-1_h1_1_15" points="421,85 426,80 433,80 433,90 426,90 421,85 "  />
</g>
<g id="a1_0016"  >
<polygon description="&lt;b&gt;DBP22_RS16455&lt;/b&gt;&lt;br&gt;peptidase S1&lt;br&gt;Location: 3599080 - 3597917&lt;br&gt;&lt;br&gt;&lt;b&gt;BlastP hit with cds43973_45137&lt;/b&gt;&lt;br&gt;Percentage identity: 100&lt;br&gt;Percentage coverage: 100&lt;br&gt;BLAST bit score: 759&lt;br&gt;E-value: 1.7e-217" style="stroke:black; fill:#b1d815; stroke-width:1; " locus_tag="DBP22_RS16455" class="clusterblast-orf" id="dummy-1_h1_1_16" points="440,90 461,90 466,85 461,80 440,80 440,90 "  />
</g>
<g id="a1_0017"  >
<polygon description="&lt;b&gt;DBP22_RS16450&lt;/b&gt;&lt;br&gt;hypothetical protein&lt;br&gt;Location: 3597826 - 3597389&lt;br&gt;&lt;br&gt;&lt;b&gt;BlastP hit with cds45227_45665&lt;/b&gt;&lt;br&gt;Percentage identity: 100&lt;br&gt;Percentage coverage: 100&lt;br&gt;BLAST bit score: 237&lt;br&gt;E-value: 8.4e-61" style="stroke:black; fill:#15d89e; stroke-width:1; " locus_tag="DBP22_RS16450" class="clusterblast-orf" id="dummy-1_h1_1_17" points="468,85 473,80 478,80 478,90 473,90 468,85 "  />
</g>
<g id="a1_0018"  >
<polygon description="&lt;b&gt;DBP22_RS16445&lt;/b&gt;&lt;br&gt;cation/H(+) antiporter&lt;br&gt;Location: 3597269 - 3595983&lt;br&gt;&lt;br&gt;&lt;b&gt;BlastP hit with cds45784_47071&lt;/b&gt;&lt;br&gt;Percentage identity: 100&lt;br&gt;Percentage coverage: 100&lt;br&gt;BLAST bit score: 772&lt;br&gt;E-value: 1.6e-221" style="stroke:black; fill:#3c15d8; stroke-width:1; " locus_tag="DBP22_RS16445" class="clusterblast-orf" id="dummy-1_h1_1_18" points="481,85 486,80 511,80 511,90 486,90 481,85 "  />
</g>
<g id="a1_0019"  >
<polygon description="&lt;b&gt;DBP22_RS16440&lt;/b&gt;&lt;br&gt;hypothetical protein&lt;br&gt;Location: 3595213 - 3594152&lt;br&gt;&lt;br&gt;&lt;b&gt;BlastP hit with cds47841_48147&lt;/b&gt;&lt;br&gt;Percentage identity: 98&lt;br&gt;Percentage coverage: 97&lt;br&gt;BLAST bit score: 210&lt;br&gt;E-value: 1e-52" style="stroke:black; fill:#d81550; stroke-width:1; " locus_tag="DBP22_RS16440" class="clusterblast-orf" id="dummy-1_h1_1_19" points="528,90 548,90 553,85 548,80 528,80 528,90 "  />
</g>
<g id="a1_0020"  >
<polygon description="&lt;b&gt;DBP22_RS16435&lt;/b&gt;&lt;br&gt;CAP domain-containing protein&lt;br&gt;Location: 3594129 - 3593515" style="stroke:black; fill:white; stroke-width:1; " locus_tag="DBP22_RS16435" class="clusterblast-orf" id="dummy-1_h1_1_20" points="553,85 558,80 567,80 567,90 558,90 553,85 "  />
</g>
<g id="a1_0021"  >
<polygon description="&lt;b&gt;DBP22_RS16430&lt;/b&gt;&lt;br&gt;hypothetical protein&lt;br&gt;Location: 3593316 - 3593077" style="stroke:black; fill:white; stroke-width:1; " locus_tag="DBP22_RS16430" class="clusterblast-orf" id="dummy-1_h1_1_21" points="572,90 572,90 577,85 572,80 572,80 572,90 "  />
</g>
<g id="a1_0022"  >
<polygon description="&lt;b&gt;DBP22_RS16425&lt;/b&gt;&lt;br&gt;ABC transporter permease&lt;br&gt;Location: 3593026 - 3592262" style="stroke:black; fill:white; stroke-width:1; " locus_tag="DBP22_RS16425" class="clusterblast-orf" id="dummy-1_h1_1_22" points="578,85 583,80 596,80 596,90 583,90 578,85 "  />
</g>
<g id="a1_0023"  >
<polygon description="&lt;b&gt;DBP22_RS16420&lt;/b&gt;&lt;br&gt;ABC transporter ATP-binding protein&lt;br&gt;Location: 3592265 - 3591435" style="stroke:black; fill:white; stroke-width:1; " locus_tag="DBP22_RS16420" class="clusterblast-orf" id="dummy-1_h1_1_23" points="596,85 601,80 615,80 615,90 601,90 596,85 "  />
</g>
<g id="a1_0024"  >
<polygon description="&lt;b&gt;DBP22_RS16415&lt;/b&gt;&lt;br&gt;polyprenyl synthetase family protein&lt;br&gt;Location: 3591164 - 3590121" style="stroke:black; fill:white; stroke-width:1; " locus_tag="DBP22_RS16415" class="clusterblast-orf" id="dummy-1_h1_1_24" points="621,85 626,80 645,80 645,90 626,90 621,85 "  />
</g>
<g id="a1_0025"  >
<polygon description="&lt;b&gt;DBP22_RS30100&lt;/b&gt;&lt;br&gt;hypothetical protein&lt;br&gt;Location: 3589841 - 3589647" style="stroke:black; fill:white; stroke-width:1; " locus_tag="DBP22_RS30100" class="clusterblast-orf" id="dummy-1_h1_1_25" points="651,85 656,80 656,80 656,90 656,90 651,85 "  />
</g>
<g id="a1_0026"  >
<polygon description="&lt;b&gt;DBP22_RS16405&lt;/b&gt;&lt;br&gt;cytochrome c oxidase subunit I&lt;br&gt;Location: 3589365 - 3587712" style="stroke:black; fill:white; stroke-width:1; " locus_tag="DBP22_RS16405" class="clusterblast-orf" id="dummy-1_h1_1_26" points="662,90 695,90 700,85 695,80 662,80 662,90 "  />
</g>
<g id="a1_0027"  >
<polygon description="&lt;b&gt;DBP22_RS16400&lt;/b&gt;&lt;br&gt;cytochrome P450&lt;br&gt;Location: 3587702 - 3586461" style="stroke:black; fill:white; stroke-width:1; " locus_tag="DBP22_RS16400" class="clusterblast-orf" id="dummy-1_h1_1_27" points="700,85 705,80 728,80 728,90 705,90 700,85 "  />
</g>
<g id="a1_0028"  >
<polygon description="&lt;b&gt;DBP22_RS16395&lt;/b&gt;&lt;br&gt;MBL fold metallo-hydrolase&lt;br&gt;Location: 3586257 - 3585382" style="stroke:black; fill:white; stroke-width:1; " locus_tag="DBP22_RS16395" class="clusterblast-orf" id="dummy-1_h1_1_28" points="733,90 748,90 753,85 748,80 733,80 733,90 "  />
</g>
<g id="a1_0029"  >
<polygon description="&lt;b&gt;DBP22_RS16390&lt;/b&gt;&lt;br&gt;hypothetical protein&lt;br&gt;Location: 3585356 - 3584739" style="stroke:black; fill:white; stroke-width:1; " locus_tag="DBP22_RS16390" class="clusterblast-orf" id="dummy-1_h1_1_29" points="754,85 759,80 768,80 768,90 759,90 754,85 "  />
</g>
<g id="a1_0030"  >
<polygon description="&lt;b&gt;DBP22_RS16385&lt;/b&gt;&lt;br&gt;SRPBCC family protein&lt;br&gt;Location: 3584648 - 3584226" style="stroke:black; fill:white; stroke-width:1; " locus_tag="DBP22_RS16385" class="clusterblast-orf" id="dummy-1_h1_1_30" points="770,85 775,80 780,80 780,90 775,90 770,85 "  />
</g>
</svg>
