<svg preserveAspectRatio="none" version="1.1" xmlns="http://www.w3.org/2000/svg" y="0" height="230" viewBox="0 0 800 230" x="0" width="800" xmlns:xlink="http://www.w3.org/1999/xlink"  >
<g class="clusterblast-cluster" label="Query sequence"  >
<text class="clusterblast-acc" y="20" x="5"  >
Query sequence</text>
<line x2="778.0" y1="35" style="stroke:grey; stroke-width:1; " x1="10" y2="35"  />
<polygon description="&lt;b&gt;cds59069_61808&lt;/b&gt;&lt;br&gt;SWF/SNF family helicase&lt;br&gt;Location: 59069 - 61808" style="stroke:black; fill:white; stroke-width:1; " locus_tag="cds59069_61808" class="clusterblast-orf" id="dummy-2_q0_0_all" points="205,40 230,40 235,35 230,30 205,30 205,40 "  />
<polygon description="&lt;b&gt;cds61947_62427&lt;/b&gt;&lt;br&gt;Carnitine utilization associated thioesterase&lt;br&gt;Location: 61947 - 62427" style="stroke:black; fill:white; stroke-width:1; " locus_tag="cds61947_62427" class="clusterblast-orf" id="dummy-2_q1_0_all" points="237,35 242,30 242,30 242,40 242,40 237,35 "  />
<polygon description="&lt;b&gt;cds62423_63410&lt;/b&gt;&lt;br&gt;Carnitine 3-dehydrogenase (EC 1.1.1.108)&lt;br&gt;Location: 62423 - 63410" style="stroke:black; fill:white; stroke-width:1; " locus_tag="cds62423_63410" class="clusterblast-orf" id="dummy-2_q2_0_all" points="242,35 247,30 253,30 253,40 247,40 242,35 "  />
<polygon description="&lt;b&gt;cds63449_64343&lt;/b&gt;&lt;br&gt;beta-keto acid cleavage protein&lt;br&gt;Location: 63449 - 64343" style="stroke:black; fill:white; stroke-width:1; " locus_tag="cds63449_64343" class="clusterblast-orf" id="dummy-2_q3_0_all" points="253,35 258,30 263,30 263,40 258,40 253,35 "  />
<polygon description="&lt;b&gt;cds64427_65285&lt;/b&gt;&lt;br&gt;Transcriptional regulator, AcrR family&lt;br&gt;Location: 64427 - 65285" style="stroke:black; fill:white; stroke-width:1; " locus_tag="cds64427_65285" class="clusterblast-orf" id="dummy-2_q4_0_all" points="264,35 269,30 274,30 274,40 269,40 264,35 "  />
<polygon description="&lt;b&gt;cds65307_66216&lt;/b&gt;&lt;br&gt;hypothetical protein&lt;br&gt;Location: 65307 - 66216" style="stroke:black; fill:white; stroke-width:1; " locus_tag="cds65307_66216" class="clusterblast-orf" id="dummy-2_q5_0_all" points="274,40 279,40 284,35 279,30 274,30 274,40 "  />
<polygon description="&lt;b&gt;cds66280_66436&lt;/b&gt;&lt;br&gt;hypothetical protein&lt;br&gt;Location: 66280 - 66436" style="stroke:black; fill:white; stroke-width:1; " locus_tag="cds66280_66436" class="clusterblast-orf" id="dummy-2_q6_0_all" points="285,35 286,30 286,40 285,35 "  />
<polygon description="&lt;b&gt;cds66434_66680&lt;/b&gt;&lt;br&gt;hypothetical protein&lt;br&gt;Location: 66434 - 66680" style="stroke:black; fill:#d81515; stroke-width:1; " locus_tag="cds66434_66680" class="clusterblast-orf" id="dummy-2_q7_0_all" points="286,40 289,35 286,30 286,40 "  />
<polygon description="&lt;b&gt;cds66676_67897&lt;/b&gt;&lt;br&gt;3-oxoacyl-[acyl-carrier-protein] synthase, KASII (EC 2.3.1.179)&lt;br&gt;Location: 66676 - 67897" style="stroke:black; fill:#5cd815; stroke-width:1; " locus_tag="cds66676_67897" class="clusterblast-orf" id="dummy-2_q8_0_all" points="289,40 297,40 302,35 297,30 289,30 289,40 "  />
<polygon description="&lt;b&gt;cds68011_69739&lt;/b&gt;&lt;br&gt;hypothetical protein&lt;br&gt;Location: 68011 - 69739" style="stroke:black; fill:#15a3d8; stroke-width:1; " locus_tag="cds68011_69739" class="clusterblast-orf" id="dummy-2_q9_0_all" points="304,40 318,40 323,35 318,30 304,30 304,40 "  />
<polygon description="&lt;b&gt;cds69735_70722&lt;/b&gt;&lt;br&gt;3-oxoacyl-[acyl-carrier-protein] synthase, KASIII (EC 2.3.1.180)&lt;br&gt;Location: 69735 - 70722" style="stroke:black; fill:#c715d8; stroke-width:1; " locus_tag="cds69735_70722" class="clusterblast-orf" id="dummy-2_q10_0_all" points="323,40 329,40 334,35 329,30 323,30 323,40 "  />
<polygon description="&lt;b&gt;cds70752_71970&lt;/b&gt;&lt;br&gt;Uncharacterized oxidoreductase&lt;br&gt;Location: 70752 - 71970" style="stroke:black; fill:#d88015; stroke-width:1; " locus_tag="cds70752_71970" class="clusterblast-orf" id="dummy-2_q11_0_all" points="334,40 342,40 347,35 342,30 334,30 334,40 "  />
<polygon description="&lt;b&gt;cds72196_72826&lt;/b&gt;&lt;br&gt;putative secreted protein&lt;br&gt;Location: 72196 - 72826" style="stroke:black; fill:#15d839; stroke-width:1; " locus_tag="cds72196_72826" class="clusterblast-orf" id="dummy-2_q12_0_all" points="350,40 352,40 357,35 352,30 350,30 350,40 "  />
<polygon description="&lt;b&gt;cds73008_74010&lt;/b&gt;&lt;br&gt;putative oxygenase&lt;br&gt;Location: 73008 - 74010" style="stroke:black; fill:#1539d8; stroke-width:1; " locus_tag="cds73008_74010" class="clusterblast-orf" id="dummy-2_q13_0_all" points="359,40 365,40 370,35 365,30 359,30 359,40 "  />
<polygon description="&lt;b&gt;cds74049_75900&lt;/b&gt;&lt;br&gt;Efflux ABC transporter, permease/ATP-binding protein SCO3235&lt;br&gt;Location: 74049 - 75900" style="stroke:black; fill:#d81580; stroke-width:1; " locus_tag="cds74049_75900" class="clusterblast-orf" id="dummy-2_q14_0_all" points="370,40 386,40 391,35 386,30 370,30 370,40 "  />
<polygon description="&lt;b&gt;cds75967_76861&lt;/b&gt;&lt;br&gt;putative phosphotransferase&lt;br&gt;Location: 75967 - 76861" style="stroke:black; fill:#c7d815; stroke-width:1; " locus_tag="cds75967_76861" class="clusterblast-orf" id="dummy-2_q15_0_all" points="391,35 396,30 401,30 401,40 396,40 391,35 "  />
<polygon description="&lt;b&gt;cds76872_77691&lt;/b&gt;&lt;br&gt;Putative hydrolase&lt;br&gt;Location: 76872 - 77691" style="stroke:black; fill:#15d8a3; stroke-width:1; " locus_tag="cds76872_77691" class="clusterblast-orf" id="dummy-2_q16_0_all" points="401,35 406,30 410,30 410,40 406,40 401,35 "  />
<polygon description="&lt;b&gt;cds77695_81508&lt;/b&gt;&lt;br&gt;Siderophore biosynthesis non-ribosomal peptide synthetase modules&lt;br&gt;Location: 77695 - 81508" style="stroke:black; fill:#5c15d8; stroke-width:1; " locus_tag="cds77695_81508" class="clusterblast-orf" id="dummy-2_q17_0_all" points="410,35 415,30 452,30 452,40 415,40 410,35 "  />
<polygon description="&lt;b&gt;cds81570_85737&lt;/b&gt;&lt;br&gt;Siderophore biosynthesis non-ribosomal peptide synthetase modules&lt;br&gt;Location: 81570 - 85737" style="stroke:black; fill:#5c15d8; stroke-width:1; " locus_tag="cds81570_85737" class="clusterblast-orf" id="dummy-2_q18_0_all" points="453,35 458,30 499,30 499,40 458,40 453,35 "  />
<polygon description="&lt;b&gt;cds85721_92561&lt;/b&gt;&lt;br&gt;Siderophore biosynthesis non-ribosomal peptide synthetase modules&lt;br&gt;Location: 85721 - 92561" style="stroke:black; fill:#5c15d8; stroke-width:1; " locus_tag="cds85721_92561" class="clusterblast-orf" id="dummy-2_q19_0_all" points="499,35 504,30 574,30 574,40 504,40 499,35 "  />
</g>
<g description="BGC0000354_c1: friulimicin A / friulimicin B / friulimicin C / friulimicin D (12% of genes show similarity), NRP" class="clusterblast-cluster" label="BGC0000354"  >
<text class="clusterblast-acc" y="70" x="5"  >
<a xlink:href="https://mibig.secondarymetabolites.org/go/BGC0000354/1" target="_blank">BGC0000354</a>:                    friulimicin A / friulimicin B / friulimicin C / friulimicin D (12% of genes show similarity), NRP</text>
<line x2="778.0" y1="85" style="stroke:grey; stroke-width:1; " x1="10" y2="85"  />
</g>
<g id="a2_000"  >
<polygon description="&lt;b&gt;CAM56784.1&lt;/b&gt;&lt;br&gt;hypothetical protein&lt;br&gt;Location: 70820 - 70587" style="stroke:black; fill:white; stroke-width:1; " locus_tag="CAM56784.1" class="clusterblast-orf" id="dummy-2_h2_5_0" points="0,85 2,80 2,90 0,85 "  />
</g>
<g id="a2_001"  >
<polygon description="&lt;b&gt;CAM56783.1&lt;/b&gt;&lt;br&gt;hypothetical protein&lt;br&gt;Location: 70509 - 69316" style="stroke:black; fill:white; stroke-width:1; " locus_tag="CAM56783.1" class="clusterblast-orf" id="dummy-2_h2_5_1" points="3,85 8,80 16,80 16,90 8,90 3,85 "  />
</g>
<g id="a2_002"  >
<polygon description="&lt;b&gt;CAM56782.1&lt;/b&gt;&lt;br&gt;hypothetical protein&lt;br&gt;Location: 69102 - 68230" style="stroke:black; fill:white; stroke-width:1; " locus_tag="CAM56782.1" class="clusterblast-orf" id="dummy-2_h2_5_2" points="18,85 23,80 28,80 28,90 23,90 18,85 "  />
</g>
<g id="a2_003"  >
<polygon description="&lt;b&gt;CAM56781.1&lt;/b&gt;&lt;br&gt;hypothetical protein&lt;br&gt;Location: 68169 - 67201" style="stroke:black; fill:white; stroke-width:1; " locus_tag="CAM56781.1" class="clusterblast-orf" id="dummy-2_h2_5_3" points="29,85 34,80 39,80 39,90 34,90 29,85 "  />
</g>
<g id="a2_004"  >
<polygon description="&lt;b&gt;CAM56780.1&lt;/b&gt;&lt;br&gt;regulatory protein E&lt;br&gt;Location: 67204 - 66581" style="stroke:black; fill:white; stroke-width:1; " locus_tag="CAM56780.1" class="clusterblast-orf" id="dummy-2_h2_5_4" points="39,85 44,80 46,80 46,90 44,90 39,85 "  />
</g>
<g id="a2_005"  >
<polygon description="&lt;b&gt;CAM56779.1&lt;/b&gt;&lt;br&gt;Mem2&lt;br&gt;Location: 66540 - 64951" style="stroke:black; fill:white; stroke-width:1; " locus_tag="CAM56779.1" class="clusterblast-orf" id="dummy-2_h2_5_5" points="47,85 52,80 64,80 64,90 52,90 47,85 "  />
</g>
<g id="a2_006"  >
<polygon description="&lt;b&gt;CAM56778.1&lt;/b&gt;&lt;br&gt;hypothetical protein&lt;br&gt;Location: 64807 - 64196" style="stroke:black; fill:white; stroke-width:1; " locus_tag="CAM56778.1" class="clusterblast-orf" id="dummy-2_h2_5_6" points="66,85 71,80 72,80 72,90 71,90 66,85 "  />
</g>
<g id="a2_007"  >
<polygon description="&lt;b&gt;CAM56777.1&lt;/b&gt;&lt;br&gt;regulatory protein D&lt;br&gt;Location: 64197 - 62818" style="stroke:black; fill:white; stroke-width:1; " locus_tag="CAM56777.1" class="clusterblast-orf" id="dummy-2_h2_5_7" points="72,90 83,90 88,85 83,80 72,80 72,90 "  />
</g>
<g id="a2_008"  >
<polygon description="&lt;b&gt;CAM56776.1&lt;/b&gt;&lt;br&gt;regulatory protein C&lt;br&gt;Location: 62827 - 62183" style="stroke:black; fill:white; stroke-width:1; " locus_tag="CAM56776.1" class="clusterblast-orf" id="dummy-2_h2_5_8" points="88,90 90,90 95,85 90,80 88,80 88,90 "  />
</g>
<g id="a2_009"  >
<polygon description="&lt;b&gt;CAM56775.1&lt;/b&gt;&lt;br&gt;lysine cyclodeaminase&lt;br&gt;Location: 62179 - 61160" style="stroke:black; fill:white; stroke-width:1; " locus_tag="CAM56775.1" class="clusterblast-orf" id="dummy-2_h2_5_9" points="95,85 100,80 106,80 106,90 100,90 95,85 "  />
</g>
<g id="a2_0010"  >
<polygon description="&lt;b&gt;CAM56774.1&lt;/b&gt;&lt;br&gt;Mem&lt;br&gt;Location: 60852 - 58561" style="stroke:black; fill:white; stroke-width:1; " locus_tag="CAM56774.1" class="clusterblast-orf" id="dummy-2_h2_5_10" points="109,90 130,90 135,85 130,80 109,80 109,90 "  />
</g>
<g id="a2_0011"  >
<polygon description="&lt;b&gt;CAM56773.1&lt;/b&gt;&lt;br&gt;LipE&lt;br&gt;Location: 58475 - 57669&lt;br&gt;&lt;br&gt;&lt;b&gt;BlastP hit with cds76872_77691&lt;/b&gt;&lt;br&gt;Percentage identity: 57&lt;br&gt;Percentage coverage: 99&lt;br&gt;BLAST bit score: 308&lt;br&gt;E-value: 9.5e-84" style="stroke:black; fill:#15d8a3; stroke-width:1; " locus_tag="CAM56773.1" class="clusterblast-orf" id="dummy-2_h2_5_11" points="135,85 140,80 144,80 144,90 140,90 135,85 "  />
</g>
<g id="a2_0012"  >
<polygon description="&lt;b&gt;CAM56772.1&lt;/b&gt;&lt;br&gt;hypothetical protein&lt;br&gt;Location: 57593 - 57381" style="stroke:black; fill:white; stroke-width:1; " locus_tag="CAM56772.1" class="clusterblast-orf" id="dummy-2_h2_5_12" points="145,85 148,80 148,90 145,85 "  />
</g>
<g id="a2_0013"  >
<polygon description="&lt;b&gt;CAM56771.1&lt;/b&gt;&lt;br&gt;&lt;br&gt;Location: 57351 - 50239&lt;br&gt;&lt;br&gt;&lt;b&gt;BlastP hit with cds77695_81508&lt;/b&gt;&lt;br&gt;Percentage identity: 50&lt;br&gt;Percentage coverage: 99&lt;br&gt;BLAST bit score: 1079&lt;br&gt;E-value: 0.0&lt;br&gt;&lt;br&gt;&lt;b&gt;BlastP hit with cds81570_85737&lt;/b&gt;&lt;br&gt;Percentage identity: 49&lt;br&gt;Percentage coverage: 93&lt;br&gt;BLAST bit score: 1099&lt;br&gt;E-value: 0.0&lt;br&gt;&lt;br&gt;&lt;b&gt;BlastP hit with cds85721_92561&lt;/b&gt;&lt;br&gt;Percentage identity: 49&lt;br&gt;Percentage coverage: 75&lt;br&gt;BLAST bit score: 1416&lt;br&gt;E-value: 0.0" style="stroke:black; fill:#5c15d8; stroke-width:1; " locus_tag="CAM56771.1" class="clusterblast-orf" id="dummy-2_h2_5_13" points="148,85 153,80 226,80 226,90 153,90 148,85 "  />
</g>
<g id="a2_0014"  >
<polygon description="&lt;b&gt;CAM56770.1&lt;/b&gt;&lt;br&gt;&lt;br&gt;Location: 50239 - 30254&lt;br&gt;&lt;br&gt;&lt;b&gt;BlastP hit with cds77695_81508&lt;/b&gt;&lt;br&gt;Percentage identity: 49&lt;br&gt;Percentage coverage: 82&lt;br&gt;BLAST bit score: 843&lt;br&gt;E-value: 3.8e-244&lt;br&gt;&lt;br&gt;&lt;b&gt;BlastP hit with cds81570_85737&lt;/b&gt;&lt;br&gt;Percentage identity: 51&lt;br&gt;Percentage coverage: 92&lt;br&gt;BLAST bit score: 1183&lt;br&gt;E-value: 0.0&lt;br&gt;&lt;br&gt;&lt;b&gt;BlastP hit with cds85721_92561&lt;/b&gt;&lt;br&gt;Percentage identity: 51&lt;br&gt;Percentage coverage: 101&lt;br&gt;BLAST bit score: 2024&lt;br&gt;E-value: 0.0" style="stroke:black; fill:#5c15d8; stroke-width:1; " locus_tag="CAM56770.1" class="clusterblast-orf" id="dummy-2_h2_5_14" points="226,85 231,80 446,80 446,90 231,90 226,85 "  />
</g>
<g id="a2_0015"  >
<polygon description="&lt;b&gt;CAJ18237.2&lt;/b&gt;&lt;br&gt;non-ribosomal peptide synthetase B&lt;br&gt;Location: 30257 - 20826&lt;br&gt;&lt;br&gt;&lt;b&gt;BlastP hit with cds77695_81508&lt;/b&gt;&lt;br&gt;Percentage identity: 49&lt;br&gt;Percentage coverage: 78&lt;br&gt;BLAST bit score: 808&lt;br&gt;E-value: 1.8e-233" style="stroke:black; fill:#5c15d8; stroke-width:1; " locus_tag="CAJ18237.2" class="clusterblast-orf" id="dummy-2_h2_5_15" points="446,85 451,80 550,80 550,90 451,90 446,85 "  />
</g>
<g id="a2_0016"  >
<polygon description="&lt;b&gt;CAJ18236.1&lt;/b&gt;&lt;br&gt;acyl carrier protein&lt;br&gt;Location: 20790 - 20524" style="stroke:black; fill:white; stroke-width:1; " locus_tag="CAJ18236.1" class="clusterblast-orf" id="dummy-2_h2_5_16" points="551,85 553,80 553,90 551,85 "  />
</g>
<g id="a2_0017"  >
<polygon description="&lt;b&gt;CAJ18235.1&lt;/b&gt;&lt;br&gt;hypothetical protein&lt;br&gt;Location: 20506 - 19799" style="stroke:black; fill:white; stroke-width:1; " locus_tag="CAJ18235.1" class="clusterblast-orf" id="dummy-2_h2_5_17" points="554,85 559,80 561,80 561,90 559,90 554,85 "  />
</g>
<g id="a2_0018"  >
<polygon description="&lt;b&gt;CAJ18234.2&lt;/b&gt;&lt;br&gt;acyl-CoA dehydrogenase&lt;br&gt;Location: 19802 - 18264" style="stroke:black; fill:white; stroke-width:1; " locus_tag="CAJ18234.2" class="clusterblast-orf" id="dummy-2_h2_5_18" points="561,85 566,80 578,80 578,90 566,90 561,85 "  />
</g>
<g id="a2_0019"  >
<polygon description="&lt;b&gt;CAD32910.2&lt;/b&gt;&lt;br&gt;acyl-CoA synthase&lt;br&gt;Location: 18267 - 16501" style="stroke:black; fill:white; stroke-width:1; " locus_tag="CAD32910.2" class="clusterblast-orf" id="dummy-2_h2_5_19" points="578,85 583,80 598,80 598,90 583,90 578,85 "  />
</g>
<g id="a2_0020"  >
<polygon description="&lt;b&gt;CAD32909.1&lt;/b&gt;&lt;br&gt;glutamate mutase subunit A&lt;br&gt;Location: 16231 - 15794" style="stroke:black; fill:white; stroke-width:1; " locus_tag="CAD32909.1" class="clusterblast-orf" id="dummy-2_h2_5_20" points="601,90 601,90 606,85 601,80 601,80 601,90 "  />
</g>
<g id="a2_0021"  >
<polygon description="&lt;b&gt;CAD32908.1&lt;/b&gt;&lt;br&gt;glutamate mutase subunit B&lt;br&gt;Location: 15797 - 14550" style="stroke:black; fill:white; stroke-width:1; " locus_tag="CAD32908.1" class="clusterblast-orf" id="dummy-2_h2_5_21" points="606,90 614,90 619,85 614,80 606,80 606,90 "  />
</g>
<g id="a2_0022"  >
<polygon description="&lt;b&gt;CAD32907.1&lt;/b&gt;&lt;br&gt;ABC transporter protein&lt;br&gt;Location: 14553 - 13714" style="stroke:black; fill:white; stroke-width:1; " locus_tag="CAD32907.1" class="clusterblast-orf" id="dummy-2_h2_5_22" points="619,90 623,90 628,85 623,80 619,80 619,90 "  />
</g>
<g id="a2_0023"  >
<polygon description="&lt;b&gt;CAD32906.1&lt;/b&gt;&lt;br&gt;regulatory protein B&lt;br&gt;Location: 13697 - 12792" style="stroke:black; fill:white; stroke-width:1; " locus_tag="CAD32906.1" class="clusterblast-orf" id="dummy-2_h2_5_23" points="629,90 634,90 639,85 634,80 629,80 629,90 "  />
</g>
<g id="a2_0024"  >
<polygon description="&lt;b&gt;CAD32905.1&lt;/b&gt;&lt;br&gt;hypothetical protein&lt;br&gt;Location: 12736 - 11828" style="stroke:black; fill:white; stroke-width:1; " locus_tag="CAD32905.1" class="clusterblast-orf" id="dummy-2_h2_5_24" points="639,85 644,80 649,80 649,90 644,90 639,85 "  />
</g>
<g id="a2_0025"  >
<polygon description="&lt;b&gt;CAD32904.2&lt;/b&gt;&lt;br&gt;non-ribosomal peptide synthetase A&lt;br&gt;Location: 11831 - 8643" style="stroke:black; fill:white; stroke-width:1; " locus_tag="CAD32904.2" class="clusterblast-orf" id="dummy-2_h2_5_25" points="649,85 654,80 684,80 684,90 654,90 649,85 "  />
</g>
<g id="a2_0026"  >
<polygon description="&lt;b&gt;CAM56769.1&lt;/b&gt;&lt;br&gt;DabC&lt;br&gt;Location: 8646 - 7423" style="stroke:black; fill:white; stroke-width:1; " locus_tag="CAM56769.1" class="clusterblast-orf" id="dummy-2_h2_5_26" points="684,85 689,80 698,80 698,90 689,90 684,85 "  />
</g>
<g id="a2_0027"  >
<polygon description="&lt;b&gt;CAM56768.1&lt;/b&gt;&lt;br&gt;DabB&lt;br&gt;Location: 7426 - 5984" style="stroke:black; fill:white; stroke-width:1; " locus_tag="CAM56768.1" class="clusterblast-orf" id="dummy-2_h2_5_27" points="698,85 703,80 714,80 714,90 703,90 698,85 "  />
</g>
<g id="a2_0028"  >
<polygon description="&lt;b&gt;CAM56767.1&lt;/b&gt;&lt;br&gt;DabA&lt;br&gt;Location: 5987 - 4914" style="stroke:black; fill:white; stroke-width:1; " locus_tag="CAM56767.1" class="clusterblast-orf" id="dummy-2_h2_5_28" points="714,85 719,80 725,80 725,90 719,90 714,85 "  />
</g>
<g id="a2_0029"  >
<polygon description="&lt;b&gt;CAM56766.1&lt;/b&gt;&lt;br&gt;ExpB&lt;br&gt;Location: 4917 - 3964" style="stroke:black; fill:white; stroke-width:1; " locus_tag="CAM56766.1" class="clusterblast-orf" id="dummy-2_h2_5_29" points="725,85 730,80 736,80 736,90 730,90 725,85 "  />
</g>
<g id="a2_0030"  >
<polygon description="&lt;b&gt;CAM56765.1&lt;/b&gt;&lt;br&gt;regulatory protein A&lt;br&gt;Location: 3785 - 3057" style="stroke:black; fill:white; stroke-width:1; " locus_tag="CAM56765.1" class="clusterblast-orf" id="dummy-2_h2_5_30" points="738,85 743,80 746,80 746,90 743,90 738,85 "  />
</g>
<g id="a2_0031"  >
<polygon description="&lt;b&gt;CAM56764.1&lt;/b&gt;&lt;br&gt;putative alkaline phosphatase&lt;br&gt;Location: 2438 - 1614" style="stroke:black; fill:white; stroke-width:1; " locus_tag="CAM56764.1" class="clusterblast-orf" id="dummy-2_h2_5_31" points="753,85 758,80 762,80 762,90 758,90 753,85 "  />
</g>
<g id="a2_0032"  >
<polygon description="&lt;b&gt;CAM56763.1&lt;/b&gt;&lt;br&gt;hypothetical protein&lt;br&gt;Location: 1411 - 1" style="stroke:black; fill:white; stroke-width:1; " locus_tag="CAM56763.1" class="clusterblast-orf" id="dummy-2_h2_5_32" points="764,90 775,90 780,85 775,80 764,80 764,90 "  />
</g>
</svg>
