<svg preserveAspectRatio="none" version="1.1" xmlns="http://www.w3.org/2000/svg" y="0" height="350" viewBox="0 0 800 350" x="0" width="800" xmlns:xlink="http://www.w3.org/1999/xlink"  >
<g class="clusterblast-cluster" label="Query sequence"  >
<text class="clusterblast-acc" y="20" x="5"  >
Query sequence</text>
<line x2="778.0" y1="35" style="stroke:grey; stroke-width:1; " x1="10" y2="35"  />
<polygon description="&lt;b&gt;cds24709_25303&lt;/b&gt;&lt;br&gt;Inhibitor of the KinA pathway to sporulation, predicted exonuclease&lt;br&gt;Location: 24709 - 25303" style="stroke:black; fill:white; stroke-width:1; " locus_tag="cds24709_25303" class="clusterblast-orf" id="knownclusterblast-1_q0_0_all" points="256,40 257,40 262,35 257,30 256,30 256,40 "  />
<polygon description="&lt;b&gt;cds25496_26828&lt;/b&gt;&lt;br&gt;Triacylglycerol lipase precursor (EC 3.1.1.3)&lt;br&gt;Location: 25496 - 26828" style="stroke:black; fill:white; stroke-width:1; " locus_tag="cds25496_26828" class="clusterblast-orf" id="knownclusterblast-1_q1_0_all" points="265,40 275,40 280,35 275,30 265,30 265,40 "  />
<polygon description="&lt;b&gt;cds26874_28599&lt;/b&gt;&lt;br&gt;hypothetical protein&lt;br&gt;Location: 26874 - 28599" style="stroke:black; fill:white; stroke-width:1; " locus_tag="cds26874_28599" class="clusterblast-orf" id="knownclusterblast-1_q2_0_all" points="280,35 285,30 300,30 300,40 285,40 280,35 "  />
<polygon description="&lt;b&gt;cds28927_30538&lt;/b&gt;&lt;br&gt;L-Proline/Glycine betaine transporter ProP&lt;br&gt;Location: 28927 - 30538" style="stroke:black; fill:white; stroke-width:1; " locus_tag="cds28927_30538" class="clusterblast-orf" id="knownclusterblast-1_q3_0_all" points="304,40 317,40 322,35 317,30 304,30 304,40 "  />
<polygon description="&lt;b&gt;cds30501_31440&lt;/b&gt;&lt;br&gt;Integral membrane protein&lt;br&gt;Location: 30501 - 31440" style="stroke:black; fill:white; stroke-width:1; " locus_tag="cds30501_31440" class="clusterblast-orf" id="knownclusterblast-1_q4_0_all" points="322,35 327,30 333,30 333,40 327,40 322,35 "  />
<polygon description="&lt;b&gt;cds31665_32412&lt;/b&gt;&lt;br&gt;putative lipoprotein&lt;br&gt;Location: 31665 - 32412" style="stroke:black; fill:white; stroke-width:1; " locus_tag="cds31665_32412" class="clusterblast-orf" id="knownclusterblast-1_q5_0_all" points="335,40 339,40 344,35 339,30 335,30 335,40 "  />
<polygon description="&lt;b&gt;cds32419_32908&lt;/b&gt;&lt;br&gt;hypothetical protein&lt;br&gt;Location: 32419 - 32908" style="stroke:black; fill:white; stroke-width:1; " locus_tag="cds32419_32908" class="clusterblast-orf" id="knownclusterblast-1_q6_0_all" points="344,35 349,30 349,30 349,40 349,40 344,35 "  />
<polygon description="&lt;b&gt;cds32924_33932&lt;/b&gt;&lt;br&gt;CrtV-methyltransferase-like protein&lt;br&gt;Location: 32924 - 33932" style="stroke:black; fill:#d81515; stroke-width:1; " locus_tag="cds32924_33932" class="clusterblast-orf" id="knownclusterblast-1_q7_0_all" points="350,35 355,30 361,30 361,40 355,40 350,35 "  />
<polygon description="&lt;b&gt;cds33928_34930&lt;/b&gt;&lt;br&gt;Phytoene synthase (EC 2.5.1.32)&lt;br&gt;Location: 33928 - 34930" style="stroke:black; fill:#15d815; stroke-width:1; " locus_tag="cds33928_34930" class="clusterblast-orf" id="knownclusterblast-1_q8_0_all" points="361,35 366,30 372,30 372,40 366,40 361,35 "  />
<polygon description="&lt;b&gt;cds34926_36444&lt;/b&gt;&lt;br&gt;Squalene/phytoene desaturase HopC&lt;br&gt;Location: 34926 - 36444" style="stroke:black; fill:#1515d8; stroke-width:1; " locus_tag="cds34926_36444" class="clusterblast-orf" id="knownclusterblast-1_q9_0_all" points="372,35 377,30 390,30 390,40 377,40 372,35 "  />
<polygon description="&lt;b&gt;cds36942_38169&lt;/b&gt;&lt;br&gt;Lycopene beta-cyclase (EC 5.5.1.19)&lt;br&gt;Location: 36942 - 38169" style="stroke:black; fill:#d815d8; stroke-width:1; " locus_tag="cds36942_38169" class="clusterblast-orf" id="knownclusterblast-1_q10_0_all" points="395,40 405,40 410,35 405,30 395,30 395,40 "  />
<polygon description="&lt;b&gt;cds38172_38904&lt;/b&gt;&lt;br&gt;CrtT-methyltransferase-like protein&lt;br&gt;Location: 38172 - 38904" style="stroke:black; fill:#d8d815; stroke-width:1; " locus_tag="cds38172_38904" class="clusterblast-orf" id="knownclusterblast-1_q11_0_all" points="410,40 413,40 418,35 413,30 410,30 410,40 "  />
<polygon description="&lt;b&gt;cds38900_40472&lt;/b&gt;&lt;br&gt;phi-Carotenoid synthase (EC 1.3.-.- and EC 2.1.1-)&lt;br&gt;Location: 38900 - 40472" style="stroke:black; fill:#15d8d8; stroke-width:1; " locus_tag="cds38900_40472" class="clusterblast-orf" id="knownclusterblast-1_q12_0_all" points="418,40 431,40 436,35 431,30 418,30 418,40 "  />
<polygon description="&lt;b&gt;cds40616_41483&lt;/b&gt;&lt;br&gt;Putative oxidoreductase&lt;br&gt;Location: 40616 - 41483" style="stroke:black; fill:white; stroke-width:1; " locus_tag="cds40616_41483" class="clusterblast-orf" id="knownclusterblast-1_q13_0_all" points="438,35 443,30 447,30 447,40 443,40 438,35 "  />
<polygon description="&lt;b&gt;cds41543_43163&lt;/b&gt;&lt;br&gt;Beta-carotene ketolase&lt;br&gt;Location: 41543 - 43163" style="stroke:black; fill:white; stroke-width:1; " locus_tag="cds41543_43163" class="clusterblast-orf" id="knownclusterblast-1_q14_0_all" points="448,35 453,30 467,30 467,40 453,40 448,35 "  />
<polygon description="&lt;b&gt;cds43155_43656&lt;/b&gt;&lt;br&gt;hypothetical protein&lt;br&gt;Location: 43155 - 43656" style="stroke:black; fill:white; stroke-width:1; " locus_tag="cds43155_43656" class="clusterblast-orf" id="knownclusterblast-1_q15_0_all" points="467,35 472,30 472,30 472,40 472,40 467,35 "  />
<polygon description="&lt;b&gt;cds43973_45137&lt;/b&gt;&lt;br&gt;serine protease precursor&lt;br&gt;Location: 43973 - 45137" style="stroke:black; fill:white; stroke-width:1; " locus_tag="cds43973_45137" class="clusterblast-orf" id="knownclusterblast-1_q16_0_all" points="476,40 484,40 489,35 484,30 476,30 476,40 "  />
<polygon description="&lt;b&gt;cds45227_45665&lt;/b&gt;&lt;br&gt;Integral membrane protein&lt;br&gt;Location: 45227 - 45665" style="stroke:black; fill:white; stroke-width:1; " locus_tag="cds45227_45665" class="clusterblast-orf" id="knownclusterblast-1_q17_0_all" points="490,35 495,30 495,30 495,40 495,40 490,35 "  />
<polygon description="&lt;b&gt;cds45784_47071&lt;/b&gt;&lt;br&gt;Putative transmembrane transport protein&lt;br&gt;Location: 45784 - 47071" style="stroke:black; fill:white; stroke-width:1; " locus_tag="cds45784_47071" class="clusterblast-orf" id="knownclusterblast-1_q18_0_all" points="497,35 502,30 511,30 511,40 502,40 497,35 "  />
<polygon description="&lt;b&gt;cds47479_47665&lt;/b&gt;&lt;br&gt;hypothetical protein&lt;br&gt;Location: 47479 - 47665" style="stroke:black; fill:white; stroke-width:1; " locus_tag="cds47479_47665" class="clusterblast-orf" id="knownclusterblast-1_q19_0_all" points="516,40 518,35 516,30 516,40 "  />
<polygon description="&lt;b&gt;cds47841_48147&lt;/b&gt;&lt;br&gt;putative glutamate dehydrogenase/leucine dehydrogenase&lt;br&gt;Location: 47841 - 48147" style="stroke:black; fill:white; stroke-width:1; " locus_tag="cds47841_48147" class="clusterblast-orf" id="knownclusterblast-1_q20_0_all" points="520,40 524,35 520,30 520,40 "  />
</g>
<g description="BGC0000633_c1: carotenoid (54% of genes show similarity), Terpene" class="clusterblast-cluster" label="BGC0000633"  >
<text class="clusterblast-acc" y="70" x="5"  >
<a xlink:href="https://mibig.secondarymetabolites.org/go/BGC0000633/1" target="_blank">BGC0000633</a>:                                                                       carotenoid (54% of genes show similarity), Terpene</text>
<line x2="778.0" y1="85" style="stroke:grey; stroke-width:1; " x1="10" y2="85"  />
</g>
<g id="a1_000"  >
<polygon description="&lt;b&gt;BAB69148.1&lt;/b&gt;&lt;br&gt;beta-galactosidase&lt;br&gt;Location: 14284 - 12242" style="stroke:black; fill:white; stroke-width:1; " locus_tag="BAB69148.1" class="clusterblast-orf" id="knownclusterblast-1_all_1_1_0" points="308,90 326,90 331,85 326,80 308,80 308,90 "  />
</g>
<g id="a1_001"  >
<polygon description="&lt;b&gt;BAB69147.1&lt;/b&gt;&lt;br&gt;secreted protein&lt;br&gt;Location: 12159 - 10060" style="stroke:black; fill:white; stroke-width:1; " locus_tag="BAB69147.1" class="clusterblast-orf" id="knownclusterblast-1_all_1_1_1" points="332,90 351,90 356,85 351,80 332,80 332,90 "  />
</g>
<g id="a1_002"  >
<polygon description="&lt;b&gt;BAB69146.1&lt;/b&gt;&lt;br&gt;methyltransferase&lt;br&gt;Location: 9839 - 8760&lt;br&gt;&lt;br&gt;&lt;b&gt;BlastP hit with cds32924_33932&lt;/b&gt;&lt;br&gt;Percentage identity: 72&lt;br&gt;Percentage coverage: 96&lt;br&gt;BLAST bit score: 470&lt;br&gt;E-value: 1.8e-132" style="stroke:black; fill:#d81515; stroke-width:1; " locus_tag="BAB69146.1" class="clusterblast-orf" id="knownclusterblast-1_all_1_1_2" points="359,85 364,80 371,80 371,90 364,90 359,85 "  />
</g>
<g id="a1_003"  >
<polygon description="&lt;b&gt;BAB69145.1&lt;/b&gt;&lt;br&gt;phytoene synthase&lt;br&gt;Location: 8763 - 7735&lt;br&gt;&lt;br&gt;&lt;b&gt;BlastP hit with cds33928_34930&lt;/b&gt;&lt;br&gt;Percentage identity: 73&lt;br&gt;Percentage coverage: 98&lt;br&gt;BLAST bit score: 436&lt;br&gt;E-value: 2.8e-122" style="stroke:black; fill:#15d815; stroke-width:1; " locus_tag="BAB69145.1" class="clusterblast-orf" id="knownclusterblast-1_all_1_1_3" points="371,85 376,80 383,80 383,90 376,90 371,85 "  />
</g>
<g id="a1_004"  >
<polygon description="&lt;b&gt;BAB69144.1&lt;/b&gt;&lt;br&gt;phytoene synthase&lt;br&gt;Location: 7738 - 6197&lt;br&gt;&lt;br&gt;&lt;b&gt;BlastP hit with cds34926_36444&lt;/b&gt;&lt;br&gt;Percentage identity: 83&lt;br&gt;Percentage coverage: 101&lt;br&gt;BLAST bit score: 821&lt;br&gt;E-value: 8.1e-238" style="stroke:black; fill:#1515d8; stroke-width:1; " locus_tag="BAB69144.1" class="clusterblast-orf" id="knownclusterblast-1_all_1_1_4" points="383,85 388,80 400,80 400,90 388,90 383,85 "  />
</g>
<g id="a1_005"  >
<polygon description="&lt;b&gt;BAB69143.1&lt;/b&gt;&lt;br&gt;geranylgeranyl pyrophosphase synthase&lt;br&gt;Location: 6200 - 5061" style="stroke:black; fill:white; stroke-width:1; " locus_tag="BAB69143.1" class="clusterblast-orf" id="knownclusterblast-1_all_1_1_5" points="400,85 405,80 413,80 413,90 405,90 400,85 "  />
</g>
<g id="a1_006"  >
<polygon description="&lt;b&gt;BAB69142.1&lt;/b&gt;&lt;br&gt;lycopene cyclase&lt;br&gt;Location: 4799 - 3453&lt;br&gt;&lt;br&gt;&lt;b&gt;BlastP hit with cds36942_38169&lt;/b&gt;&lt;br&gt;Percentage identity: 65&lt;br&gt;Percentage coverage: 98&lt;br&gt;BLAST bit score: 485&lt;br&gt;E-value: 1.1e-136" style="stroke:black; fill:#d815d8; stroke-width:1; " locus_tag="BAB69142.1" class="clusterblast-orf" id="knownclusterblast-1_all_1_1_6" points="416,90 427,90 432,85 427,80 416,80 416,90 "  />
</g>
<g id="a1_007"  >
<polygon description="&lt;b&gt;BAB69141.1&lt;/b&gt;&lt;br&gt;methyltransferase&lt;br&gt;Location: 3409 - 2678&lt;br&gt;&lt;br&gt;&lt;b&gt;BlastP hit with cds38172_38904&lt;/b&gt;&lt;br&gt;Percentage identity: 72&lt;br&gt;Percentage coverage: 100&lt;br&gt;BLAST bit score: 347&lt;br&gt;E-value: 1.6e-95" style="stroke:black; fill:#d8d815; stroke-width:1; " locus_tag="BAB69141.1" class="clusterblast-orf" id="knownclusterblast-1_all_1_1_7" points="432,90 436,90 441,85 436,80 432,80 432,90 "  />
</g>
<g id="a1_008"  >
<polygon description="&lt;b&gt;BAB69140.1&lt;/b&gt;&lt;br&gt;phytoene desaturase&lt;br&gt;Location: 2624 - 1122&lt;br&gt;&lt;br&gt;&lt;b&gt;BlastP hit with cds38900_40472&lt;/b&gt;&lt;br&gt;Percentage identity: 76&lt;br&gt;Percentage coverage: 95&lt;br&gt;BLAST bit score: 745&lt;br&gt;E-value: 4.5e-215" style="stroke:black; fill:#15d8d8; stroke-width:1; " locus_tag="BAB69140.1" class="clusterblast-orf" id="knownclusterblast-1_all_1_1_8" points="441,90 453,90 458,85 453,80 441,80 441,90 "  />
</g>
<g id="a1_009"  >
<polygon description="&lt;b&gt;BAB69139.1&lt;/b&gt;&lt;br&gt;integral membrane protein&lt;br&gt;Location: 967 - 419" style="stroke:black; fill:white; stroke-width:1; " locus_tag="BAB69139.1" class="clusterblast-orf" id="knownclusterblast-1_all_1_1_9" points="460,90 461,90 466,85 461,80 460,80 460,90 "  />
</g>
<g id="a1_0010"  >
<polygon description="&lt;b&gt;BAB69138.1&lt;/b&gt;&lt;br&gt;hypothetical protein&lt;br&gt;Location: 363 - 1" style="stroke:black; fill:white; stroke-width:1; " locus_tag="BAB69138.1" class="clusterblast-orf" id="knownclusterblast-1_all_1_1_10" points="467,85 471,80 471,90 467,85 "  />
</g>
<g description="BGC0001456_c1: isorenieratene (75% of genes show similarity), Terpene" class="clusterblast-cluster" label="BGC0001456"  >
<text class="clusterblast-acc" y="120" x="5"  >
<a xlink:href="https://mibig.secondarymetabolites.org/go/BGC0001456/1" target="_blank">BGC0001456</a>:                                                                   isorenieratene (75% of genes show similarity), Terpene</text>
<line x2="778.0" y1="135" style="stroke:grey; stroke-width:1; " x1="10" y2="135"  />
</g>
<g id="a1_000"  >
<polygon description="&lt;b&gt;crtaV&lt;/b&gt;&lt;br&gt;2Fe-2S ferredoxin&lt;br&gt;Location: 1 - 1017&lt;br&gt;&lt;br&gt;&lt;b&gt;BlastP hit with cds32924_33932&lt;/b&gt;&lt;br&gt;Percentage identity: 70&lt;br&gt;Percentage coverage: 101&lt;br&gt;BLAST bit score: 478&lt;br&gt;E-value: 6.5e-135" style="stroke:black; fill:#d81515; stroke-width:1; " locus_tag="crtaV" class="clusterblast-orf" id="knownclusterblast-1_all_1_2_0" points="334,135 339,130 345,130 345,140 339,140 334,135 "  />
</g>
<g id="a1_001"  >
<polygon description="&lt;b&gt;crtaB&lt;/b&gt;&lt;br&gt;phytoene / squalene synthase&lt;br&gt;Location: 1014 - 2045&lt;br&gt;&lt;br&gt;&lt;b&gt;BlastP hit with cds33928_34930&lt;/b&gt;&lt;br&gt;Percentage identity: 76&lt;br&gt;Percentage coverage: 86&lt;br&gt;BLAST bit score: 417&lt;br&gt;E-value: 2.3e-116" style="stroke:black; fill:#15d815; stroke-width:1; " locus_tag="crtaB" class="clusterblast-orf" id="knownclusterblast-1_all_1_2_1" points="345,135 350,130 357,130 357,140 350,140 345,135 "  />
</g>
<g id="a1_002"  >
<polygon description="&lt;b&gt;crtaI&lt;/b&gt;&lt;br&gt;phytoene desaturase&lt;br&gt;Location: 2042 - 3586&lt;br&gt;&lt;br&gt;&lt;b&gt;BlastP hit with cds34926_36444&lt;/b&gt;&lt;br&gt;Percentage identity: 83&lt;br&gt;Percentage coverage: 99&lt;br&gt;BLAST bit score: 808&lt;br&gt;E-value: 5.4e-234" style="stroke:black; fill:#1515d8; stroke-width:1; " locus_tag="crtaI" class="clusterblast-orf" id="knownclusterblast-1_all_1_2_2" points="357,135 362,130 375,130 375,140 362,140 357,135 "  />
</g>
<g id="a1_003"  >
<polygon description="&lt;b&gt;crtaE&lt;/b&gt;&lt;br&gt;geranylgeranyl pyrophosphate synthase&lt;br&gt;Location: 3583 - 4974" style="stroke:black; fill:white; stroke-width:1; " locus_tag="crtaE" class="clusterblast-orf" id="knownclusterblast-1_all_1_2_3" points="375,135 380,130 390,130 390,140 380,140 375,135 "  />
</g>
<g id="a1_004"  >
<polygon description="&lt;b&gt;crtaQ&lt;/b&gt;&lt;br&gt;RNA polymerase, sigma-24 subunit&lt;br&gt;Location: 5310 - 5930" style="stroke:black; fill:white; stroke-width:1; " locus_tag="crtaQ" class="clusterblast-orf" id="knownclusterblast-1_all_1_2_4" points="394,140 396,140 401,135 396,130 394,130 394,140 "  />
</g>
<g id="a1_005"  >
<polygon description="&lt;b&gt;crtaY&lt;/b&gt;&lt;br&gt;lycopene cyclase&lt;br&gt;Location: 6172 - 7362&lt;br&gt;&lt;br&gt;&lt;b&gt;BlastP hit with cds36942_38169&lt;/b&gt;&lt;br&gt;Percentage identity: 65&lt;br&gt;Percentage coverage: 97&lt;br&gt;BLAST bit score: 485&lt;br&gt;E-value: 8.5e-137" style="stroke:black; fill:#d815d8; stroke-width:1; " locus_tag="crtaY" class="clusterblast-orf" id="knownclusterblast-1_all_1_2_5" points="404,140 413,140 418,135 413,130 404,130 404,140 "  />
</g>
<g id="a1_006"  >
<polygon description="&lt;b&gt;crtaT&lt;/b&gt;&lt;br&gt;methyltransferase&lt;br&gt;Location: 7418 - 8152&lt;br&gt;&lt;br&gt;&lt;b&gt;BlastP hit with cds38172_38904&lt;/b&gt;&lt;br&gt;Percentage identity: 71&lt;br&gt;Percentage coverage: 99&lt;br&gt;BLAST bit score: 332&lt;br&gt;E-value: 7.1e-91" style="stroke:black; fill:#d8d815; stroke-width:1; " locus_tag="crtaT" class="clusterblast-orf" id="knownclusterblast-1_all_1_2_6" points="418,140 422,140 427,135 422,130 418,130 418,140 "  />
</g>
<g id="a1_007"  >
<polygon description="&lt;b&gt;crtaU&lt;/b&gt;&lt;br&gt;isorenieratene synthase&lt;br&gt;Location: 8149 - 9777&lt;br&gt;&lt;br&gt;&lt;b&gt;BlastP hit with cds38900_40472&lt;/b&gt;&lt;br&gt;Percentage identity: 75&lt;br&gt;Percentage coverage: 96&lt;br&gt;BLAST bit score: 758&lt;br&gt;E-value: 8.7e-219" style="stroke:black; fill:#15d8d8; stroke-width:1; " locus_tag="crtaU" class="clusterblast-orf" id="knownclusterblast-1_all_1_2_7" points="427,140 440,140 445,135 440,130 427,130 427,140 "  />
</g>
<g description="BGC0001227_c1: isorenieratene (54% of genes show similarity), Terpene" class="clusterblast-cluster" label="BGC0001227"  >
<text class="clusterblast-acc" y="170" x="5"  >
<a xlink:href="https://mibig.secondarymetabolites.org/go/BGC0001227/1" target="_blank">BGC0001227</a>:                                                                   isorenieratene (54% of genes show similarity), Terpene</text>
<line x2="778.0" y1="185" style="stroke:grey; stroke-width:1; " x1="10" y2="185"  />
</g>
<g id="a1_000"  >
<polygon description="&lt;b&gt;B446_02720&lt;/b&gt;&lt;br&gt;iron-sulfur protein&lt;br&gt;Location: 1 - 1020&lt;br&gt;&lt;br&gt;&lt;b&gt;BlastP hit with cds32924_33932&lt;/b&gt;&lt;br&gt;Percentage identity: 73&lt;br&gt;Percentage coverage: 101&lt;br&gt;BLAST bit score: 506&lt;br&gt;E-value: 3.8e-143" style="stroke:black; fill:#d81515; stroke-width:1; " locus_tag="B446_02720" class="clusterblast-orf" id="knownclusterblast-1_all_1_3_0" points="320,185 325,180 332,180 332,190 325,190 320,185 "  />
</g>
<g id="a1_001"  >
<polygon description="&lt;b&gt;B446_02725&lt;/b&gt;&lt;br&gt;phytoene synthase&lt;br&gt;Location: 1017 - 2033&lt;br&gt;&lt;br&gt;&lt;b&gt;BlastP hit with cds33928_34930&lt;/b&gt;&lt;br&gt;Percentage identity: 69&lt;br&gt;Percentage coverage: 102&lt;br&gt;BLAST bit score: 409&lt;br&gt;E-value: 4.8e-114" style="stroke:black; fill:#15d815; stroke-width:1; " locus_tag="B446_02725" class="clusterblast-orf" id="knownclusterblast-1_all_1_3_1" points="332,185 337,180 343,180 343,190 337,190 332,185 "  />
</g>
<g id="a1_002"  >
<polygon description="&lt;b&gt;B446_02730&lt;/b&gt;&lt;br&gt;phytoene desaturase&lt;br&gt;Location: 2030 - 3532&lt;br&gt;&lt;br&gt;&lt;b&gt;BlastP hit with cds34926_36444&lt;/b&gt;&lt;br&gt;Percentage identity: 78&lt;br&gt;Percentage coverage: 97&lt;br&gt;BLAST bit score: 748&lt;br&gt;E-value: 8.7e-216" style="stroke:black; fill:#1515d8; stroke-width:1; " locus_tag="B446_02730" class="clusterblast-orf" id="knownclusterblast-1_all_1_3_2" points="343,185 348,180 360,180 360,190 348,190 343,185 "  />
</g>
<g id="a1_003"  >
<polygon description="&lt;b&gt;B446_02735&lt;/b&gt;&lt;br&gt;polyprenyl diphosphate synthase&lt;br&gt;Location: 3565 - 4836" style="stroke:black; fill:white; stroke-width:1; " locus_tag="B446_02735" class="clusterblast-orf" id="knownclusterblast-1_all_1_3_3" points="361,185 366,180 375,180 375,190 366,190 361,185 "  />
</g>
<g id="a1_004"  >
<polygon description="&lt;b&gt;B446_02740&lt;/b&gt;&lt;br&gt;lycopene cyclase&lt;br&gt;Location: 5083 - 6279&lt;br&gt;&lt;br&gt;&lt;b&gt;BlastP hit with cds36942_38169&lt;/b&gt;&lt;br&gt;Percentage identity: 61&lt;br&gt;Percentage coverage: 97&lt;br&gt;BLAST bit score: 445&lt;br&gt;E-value: 7.4e-125" style="stroke:black; fill:#d815d8; stroke-width:1; " locus_tag="B446_02740" class="clusterblast-orf" id="knownclusterblast-1_all_1_3_4" points="378,190 387,190 392,185 387,180 378,180 378,190 "  />
</g>
<g id="a1_005"  >
<polygon description="&lt;b&gt;B446_02745&lt;/b&gt;&lt;br&gt;methyltransferase&lt;br&gt;Location: 6491 - 7225&lt;br&gt;&lt;br&gt;&lt;b&gt;BlastP hit with cds38172_38904&lt;/b&gt;&lt;br&gt;Percentage identity: 68&lt;br&gt;Percentage coverage: 100&lt;br&gt;BLAST bit score: 317&lt;br&gt;E-value: 1.4e-86" style="stroke:black; fill:#d8d815; stroke-width:1; " locus_tag="B446_02745" class="clusterblast-orf" id="knownclusterblast-1_all_1_3_5" points="394,190 398,190 403,185 398,180 394,180 394,190 "  />
</g>
<g id="a1_006"  >
<polygon description="&lt;b&gt;B446_02750&lt;/b&gt;&lt;br&gt;beta-carotene desaturase/methylase&lt;br&gt;Location: 7222 - 8856&lt;br&gt;&lt;br&gt;&lt;b&gt;BlastP hit with cds38900_40472&lt;/b&gt;&lt;br&gt;Percentage identity: 71&lt;br&gt;Percentage coverage: 100&lt;br&gt;BLAST bit score: 708&lt;br&gt;E-value: 1e-203" style="stroke:black; fill:#15d8d8; stroke-width:1; " locus_tag="B446_02750" class="clusterblast-orf" id="knownclusterblast-1_all_1_3_6" points="403,190 416,190 421,185 416,180 403,180 403,190 "  />
</g>
<g id="a1_007"  >
<polygon description="&lt;b&gt;B446_02755&lt;/b&gt;&lt;br&gt;hypothetical protein&lt;br&gt;Location: 8897 - 9736" style="stroke:black; fill:white; stroke-width:1; " locus_tag="B446_02755" class="clusterblast-orf" id="knownclusterblast-1_all_1_3_7" points="422,190 426,190 431,185 426,180 422,180 422,190 "  />
</g>
<g id="a1_008"  >
<polygon description="&lt;b&gt;B446_02760&lt;/b&gt;&lt;br&gt;transcriptional regulator&lt;br&gt;Location: 9843 - 10559" style="stroke:black; fill:white; stroke-width:1; " locus_tag="B446_02760" class="clusterblast-orf" id="knownclusterblast-1_all_1_3_8" points="433,190 436,190 441,185 436,180 433,180 433,190 "  />
</g>
<g id="a1_009"  >
<polygon description="&lt;b&gt;B446_02765&lt;/b&gt;&lt;br&gt;hypothetical protein&lt;br&gt;Location: 10586 - 11170" style="stroke:black; fill:white; stroke-width:1; " locus_tag="B446_02765" class="clusterblast-orf" id="knownclusterblast-1_all_1_3_9" points="441,190 443,190 448,185 443,180 441,180 441,190 "  />
</g>
<g id="a1_0010"  >
<polygon description="&lt;b&gt;B446_02770&lt;/b&gt;&lt;br&gt;putative regulatory protein&lt;br&gt;Location: 11074 - 12144" style="stroke:black; fill:white; stroke-width:1; " locus_tag="B446_02770" class="clusterblast-orf" id="knownclusterblast-1_all_1_3_10" points="447,185 452,180 459,180 459,190 452,190 447,185 "  />
</g>
<g description="BGC0000664_c1: isorenieratene (85% of genes show similarity), Terpene" class="clusterblast-cluster" label="BGC0000664"  >
<text class="clusterblast-acc" y="220" x="5"  >
<a xlink:href="https://mibig.secondarymetabolites.org/go/BGC0000664/1" target="_blank">BGC0000664</a>:                                                                   isorenieratene (85% of genes show similarity), Terpene</text>
<line x2="778.0" y1="235" style="stroke:grey; stroke-width:1; " x1="10" y2="235"  />
</g>
<g id="a1_000"  >
<polygon description="&lt;b&gt;SGR_6824&lt;/b&gt;&lt;br&gt;putative lycopene cyclase&lt;br&gt;Location: 1 - 1242&lt;br&gt;&lt;br&gt;&lt;b&gt;BlastP hit with cds36942_38169&lt;/b&gt;&lt;br&gt;Percentage identity: 58&lt;br&gt;Percentage coverage: 100&lt;br&gt;BLAST bit score: 420&lt;br&gt;E-value: 3.3e-117" style="stroke:black; fill:#d815d8; stroke-width:1; " locus_tag="SGR_6824" class="clusterblast-orf" id="knownclusterblast-1_all_1_4_0" points="342,240 351,240 356,235 351,230 342,230 342,240 "  />
</g>
<g id="a1_001"  >
<polygon description="&lt;b&gt;SGR_6825&lt;/b&gt;&lt;br&gt;putative methyltransferase&lt;br&gt;Location: 1239 - 1967&lt;br&gt;&lt;br&gt;&lt;b&gt;BlastP hit with cds38172_38904&lt;/b&gt;&lt;br&gt;Percentage identity: 67&lt;br&gt;Percentage coverage: 99&lt;br&gt;BLAST bit score: 304&lt;br&gt;E-value: 2.1e-82" style="stroke:black; fill:#d8d815; stroke-width:1; " locus_tag="SGR_6825" class="clusterblast-orf" id="knownclusterblast-1_all_1_4_1" points="356,240 359,240 364,235 359,230 356,230 356,240 "  />
</g>
<g id="a1_002"  >
<polygon description="&lt;b&gt;SGR_6826&lt;/b&gt;&lt;br&gt;putative beta-carotene desaturase/methylase&lt;br&gt;Location: 1964 - 3520&lt;br&gt;&lt;br&gt;&lt;b&gt;BlastP hit with cds38900_40472&lt;/b&gt;&lt;br&gt;Percentage identity: 73&lt;br&gt;Percentage coverage: 97&lt;br&gt;BLAST bit score: 728&lt;br&gt;E-value: 5.6e-210" style="stroke:black; fill:#15d8d8; stroke-width:1; " locus_tag="SGR_6826" class="clusterblast-orf" id="knownclusterblast-1_all_1_4_2" points="364,240 377,240 382,235 377,230 364,230 364,240 "  />
</g>
<g id="a1_003"  >
<polygon description="&lt;b&gt;SGR_6827&lt;/b&gt;&lt;br&gt;putative methylesterase&lt;br&gt;Location: 3556 - 4572&lt;br&gt;&lt;br&gt;&lt;b&gt;BlastP hit with cds32924_33932&lt;/b&gt;&lt;br&gt;Percentage identity: 69&lt;br&gt;Percentage coverage: 101&lt;br&gt;BLAST bit score: 479&lt;br&gt;E-value: 5e-135" style="stroke:black; fill:#d81515; stroke-width:1; " locus_tag="SGR_6827" class="clusterblast-orf" id="knownclusterblast-1_all_1_4_3" points="382,235 387,230 394,230 394,240 387,240 382,235 "  />
</g>
<g id="a1_004"  >
<polygon description="&lt;b&gt;SGR_6828&lt;/b&gt;&lt;br&gt;putative phytoene synthase&lt;br&gt;Location: 4569 - 5597&lt;br&gt;&lt;br&gt;&lt;b&gt;BlastP hit with cds33928_34930&lt;/b&gt;&lt;br&gt;Percentage identity: 68&lt;br&gt;Percentage coverage: 99&lt;br&gt;BLAST bit score: 399&lt;br&gt;E-value: 6.5e-111" style="stroke:black; fill:#15d815; stroke-width:1; " locus_tag="SGR_6828" class="clusterblast-orf" id="knownclusterblast-1_all_1_4_4" points="394,235 399,230 406,230 406,240 399,240 394,235 "  />
</g>
<g id="a1_005"  >
<polygon description="&lt;b&gt;SGR_6829&lt;/b&gt;&lt;br&gt;putative phytoene dehydrogenase&lt;br&gt;Location: 5594 - 7117&lt;br&gt;&lt;br&gt;&lt;b&gt;BlastP hit with cds34926_36444&lt;/b&gt;&lt;br&gt;Percentage identity: 80&lt;br&gt;Percentage coverage: 99&lt;br&gt;BLAST bit score: 779&lt;br&gt;E-value: 3.5e-225" style="stroke:black; fill:#1515d8; stroke-width:1; " locus_tag="SGR_6829" class="clusterblast-orf" id="knownclusterblast-1_all_1_4_5" points="405,235 410,230 423,230 423,240 410,240 405,235 "  />
</g>
<g id="a1_006"  >
<polygon description="&lt;b&gt;SGR_6830&lt;/b&gt;&lt;br&gt;putative geranylgeranyl pyrophosphate synthase&lt;br&gt;Location: 7114 - 8391" style="stroke:black; fill:white; stroke-width:1; " locus_tag="SGR_6830" class="clusterblast-orf" id="knownclusterblast-1_all_1_4_6" points="423,235 428,230 437,230 437,240 428,240 423,235 "  />
</g>
<g description="BGC0000649_c1: carotenoid (75% of genes show similarity), Terpene" class="clusterblast-cluster" label="BGC0000649"  >
<text class="clusterblast-acc" y="270" x="5"  >
<a xlink:href="https://mibig.secondarymetabolites.org/go/BGC0000649/1" target="_blank">BGC0000649</a>:                                                                       carotenoid (75% of genes show similarity), Terpene</text>
<line x2="778.0" y1="285" style="stroke:grey; stroke-width:1; " x1="10" y2="285"  />
</g>
<g id="a1_000"  >
<polygon description="&lt;b&gt;AAG28705.1&lt;/b&gt;&lt;br&gt;CrtY&lt;br&gt;Location: 10747 - 9506&lt;br&gt;&lt;br&gt;&lt;b&gt;BlastP hit with cds36942_38169&lt;/b&gt;&lt;br&gt;Percentage identity: 58&lt;br&gt;Percentage coverage: 101&lt;br&gt;BLAST bit score: 420&lt;br&gt;E-value: 3.3e-117" style="stroke:black; fill:#d815d8; stroke-width:1; " locus_tag="AAG28705.1" class="clusterblast-orf" id="knownclusterblast-1_all_1_5_0" points="329,290 338,290 343,285 338,280 329,280 329,290 "  />
</g>
<g id="a1_001"  >
<polygon description="&lt;b&gt;AAG28704.1&lt;/b&gt;&lt;br&gt;CrtT&lt;br&gt;Location: 9509 - 8781&lt;br&gt;&lt;br&gt;&lt;b&gt;BlastP hit with cds38172_38904&lt;/b&gt;&lt;br&gt;Percentage identity: 67&lt;br&gt;Percentage coverage: 99&lt;br&gt;BLAST bit score: 304&lt;br&gt;E-value: 2.1e-82" style="stroke:black; fill:#d8d815; stroke-width:1; " locus_tag="AAG28704.1" class="clusterblast-orf" id="knownclusterblast-1_all_1_5_1" points="343,290 346,290 351,285 346,280 343,280 343,290 "  />
</g>
<g id="a1_002"  >
<polygon description="&lt;b&gt;AAG28703.1&lt;/b&gt;&lt;br&gt;CrtU&lt;br&gt;Location: 8781 - 7228&lt;br&gt;&lt;br&gt;&lt;b&gt;BlastP hit with cds38900_40472&lt;/b&gt;&lt;br&gt;Percentage identity: 72&lt;br&gt;Percentage coverage: 97&lt;br&gt;BLAST bit score: 723&lt;br&gt;E-value: 2.4e-208" style="stroke:black; fill:#15d8d8; stroke-width:1; " locus_tag="AAG28703.1" class="clusterblast-orf" id="knownclusterblast-1_all_1_5_2" points="351,290 364,290 369,285 364,280 351,280 351,290 "  />
</g>
<g id="a1_003"  >
<polygon description="&lt;b&gt;AAG28702.1&lt;/b&gt;&lt;br&gt;CrtV&lt;br&gt;Location: 7178 - 6162&lt;br&gt;&lt;br&gt;&lt;b&gt;BlastP hit with cds32924_33932&lt;/b&gt;&lt;br&gt;Percentage identity: 67&lt;br&gt;Percentage coverage: 101&lt;br&gt;BLAST bit score: 459&lt;br&gt;E-value: 5.3e-129" style="stroke:black; fill:#d81515; stroke-width:1; " locus_tag="AAG28702.1" class="clusterblast-orf" id="knownclusterblast-1_all_1_5_3" points="370,285 375,280 381,280 381,290 375,290 370,285 "  />
</g>
<g id="a1_004"  >
<polygon description="&lt;b&gt;AAG28701.1&lt;/b&gt;&lt;br&gt;CrtB&lt;br&gt;Location: 6165 - 5137&lt;br&gt;&lt;br&gt;&lt;b&gt;BlastP hit with cds33928_34930&lt;/b&gt;&lt;br&gt;Percentage identity: 67&lt;br&gt;Percentage coverage: 93&lt;br&gt;BLAST bit score: 368&lt;br&gt;E-value: 1.2e-101" style="stroke:black; fill:#15d815; stroke-width:1; " locus_tag="AAG28701.1" class="clusterblast-orf" id="knownclusterblast-1_all_1_5_4" points="381,285 386,280 393,280 393,290 386,290 381,285 "  />
</g>
<g id="a1_005"  >
<polygon description="&lt;b&gt;AAG28700.1&lt;/b&gt;&lt;br&gt;CrtI&lt;br&gt;Location: 5140 - 3617&lt;br&gt;&lt;br&gt;&lt;b&gt;BlastP hit with cds34926_36444&lt;/b&gt;&lt;br&gt;Percentage identity: 79&lt;br&gt;Percentage coverage: 99&lt;br&gt;BLAST bit score: 771&lt;br&gt;E-value: 9.6e-223" style="stroke:black; fill:#1515d8; stroke-width:1; " locus_tag="AAG28700.1" class="clusterblast-orf" id="knownclusterblast-1_all_1_5_5" points="393,285 398,280 410,280 410,290 398,290 393,285 "  />
</g>
<g id="a1_006"  >
<polygon description="&lt;b&gt;AAG28699.1&lt;/b&gt;&lt;br&gt;CrtE&lt;br&gt;Location: 3620 - 2343" style="stroke:black; fill:white; stroke-width:1; " locus_tag="AAG28699.1" class="clusterblast-orf" id="knownclusterblast-1_all_1_5_6" points="410,285 415,280 425,280 425,290 415,290 410,285 "  />
</g>
<g id="a1_007"  >
<polygon description="&lt;b&gt;AAG28698.1&lt;/b&gt;&lt;br&gt;FadD&lt;br&gt;Location: 1771 - 149" style="stroke:black; fill:white; stroke-width:1; " locus_tag="AAG28698.1" class="clusterblast-orf" id="knownclusterblast-1_all_1_5_7" points="432,285 437,280 450,280 450,290 437,290 432,285 "  />
</g>
<g description="BGC0001702_c1: nocamycin (7% of genes show similarity), NRP + Polyketide" class="clusterblast-cluster" label="BGC0001702"  >
<text class="clusterblast-acc" y="320" x="5"  >
<a xlink:href="https://mibig.secondarymetabolites.org/go/BGC0001702/1" target="_blank">BGC0001702</a>:                                                                        nocamycin (7% of genes show similarity), NRP + Polyketide</text>
<line x2="778.0" y1="335" style="stroke:grey; stroke-width:1; " x1="10" y2="335"  />
</g>
<g id="a1_000"  >
<polygon description="&lt;b&gt;ARS01461.1&lt;/b&gt;&lt;br&gt;short-chain dehydrogenase&lt;br&gt;Location: 1 - 816" style="stroke:black; fill:white; stroke-width:1; " locus_tag="ARS01461.1" class="clusterblast-orf" id="knownclusterblast-1_all_1_6_0" points="0,335 5,330 9,330 9,340 5,340 0,335 "  />
</g>
<g id="a1_001"  >
<polygon description="&lt;b&gt;ARS01462.1&lt;/b&gt;&lt;br&gt;helicase&lt;br&gt;Location: 924 - 2918" style="stroke:black; fill:white; stroke-width:1; " locus_tag="ARS01462.1" class="clusterblast-orf" id="knownclusterblast-1_all_1_6_1" points="10,340 28,340 33,335 28,330 10,330 10,340 "  />
</g>
<g id="a1_002"  >
<polygon description="&lt;b&gt;ARS01463.1&lt;/b&gt;&lt;br&gt;hypothetical protein&lt;br&gt;Location: 3004 - 4371" style="stroke:black; fill:white; stroke-width:1; " locus_tag="ARS01463.1" class="clusterblast-orf" id="knownclusterblast-1_all_1_6_2" points="34,340 44,340 49,335 44,330 34,330 34,340 "  />
</g>
<g id="a1_003"  >
<polygon description="&lt;b&gt;ARS01464.1&lt;/b&gt;&lt;br&gt;NcmM&lt;br&gt;Location: 4770 - 5444" style="stroke:black; fill:white; stroke-width:1; " locus_tag="ARS01464.1" class="clusterblast-orf" id="knownclusterblast-1_all_1_6_3" points="54,335 59,330 62,330 62,340 59,340 54,335 "  />
</g>
<g id="a1_004"  >
<polygon description="&lt;b&gt;ARS01465.1&lt;/b&gt;&lt;br&gt;NcmL&lt;br&gt;Location: 5461 - 6996" style="stroke:black; fill:white; stroke-width:1; " locus_tag="ARS01465.1" class="clusterblast-orf" id="knownclusterblast-1_all_1_6_4" points="62,335 67,330 79,330 79,340 67,340 62,335 "  />
</g>
<g id="a1_005"  >
<polygon description="&lt;b&gt;ARS01466.1&lt;/b&gt;&lt;br&gt;NcmN&lt;br&gt;Location: 7606 - 10284" style="stroke:black; fill:white; stroke-width:1; " locus_tag="ARS01466.1" class="clusterblast-orf" id="knownclusterblast-1_all_1_6_5" points="86,340 112,340 117,335 112,330 86,330 86,340 "  />
</g>
<g id="a1_006"  >
<polygon description="&lt;b&gt;ARS01467.1&lt;/b&gt;&lt;br&gt;NcmO&lt;br&gt;Location: 10689 - 11843" style="stroke:black; fill:white; stroke-width:1; " locus_tag="ARS01467.1" class="clusterblast-orf" id="knownclusterblast-1_all_1_6_6" points="122,340 130,340 135,335 130,330 122,330 122,340 "  />
</g>
<g id="a1_007"  >
<polygon description="&lt;b&gt;ARS01468.1&lt;/b&gt;&lt;br&gt;NcmP&lt;br&gt;Location: 11858 - 12700" style="stroke:black; fill:white; stroke-width:1; " locus_tag="ARS01468.1" class="clusterblast-orf" id="knownclusterblast-1_all_1_6_7" points="135,340 140,340 145,335 140,330 135,330 135,340 "  />
</g>
<g id="a1_008"  >
<polygon description="&lt;b&gt;ARS01469.1&lt;/b&gt;&lt;br&gt;NcmC&lt;br&gt;Location: 12697 - 13515" style="stroke:black; fill:white; stroke-width:1; " locus_tag="ARS01469.1" class="clusterblast-orf" id="knownclusterblast-1_all_1_6_8" points="145,340 149,340 154,335 149,330 145,330 145,340 "  />
</g>
<g id="a1_009"  >
<polygon description="&lt;b&gt;ARS01470.1&lt;/b&gt;&lt;br&gt;NcmB&lt;br&gt;Location: 13526 - 16840" style="stroke:black; fill:white; stroke-width:1; " locus_tag="ARS01470.1" class="clusterblast-orf" id="knownclusterblast-1_all_1_6_9" points="154,340 187,340 192,335 187,330 154,330 154,340 "  />
</g>
<g id="a1_0010"  >
<polygon description="&lt;b&gt;ARS01471.1&lt;/b&gt;&lt;br&gt;NcmD&lt;br&gt;Location: 16837 - 17652" style="stroke:black; fill:white; stroke-width:1; " locus_tag="ARS01471.1" class="clusterblast-orf" id="knownclusterblast-1_all_1_6_10" points="192,335 197,330 201,330 201,340 197,340 192,335 "  />
</g>
<g id="a1_0011"  >
<polygon description="&lt;b&gt;ARS01472.1&lt;/b&gt;&lt;br&gt;NcmQ&lt;br&gt;Location: 17750 - 18112" style="stroke:black; fill:white; stroke-width:1; " locus_tag="ARS01472.1" class="clusterblast-orf" id="knownclusterblast-1_all_1_6_11" points="202,340 202,340 207,335 202,330 202,330 202,340 "  />
</g>
<g id="a1_0012"  >
<polygon description="&lt;b&gt;ARS01473.1&lt;/b&gt;&lt;br&gt;NcmAI&lt;br&gt;Location: 18426 - 33173" style="stroke:black; fill:white; stroke-width:1; " locus_tag="ARS01473.1" class="clusterblast-orf" id="knownclusterblast-1_all_1_6_12" points="210,340 374,340 379,335 374,330 210,330 210,340 "  />
</g>
<g id="a1_0013"  >
<polygon description="&lt;b&gt;ARS01474.1&lt;/b&gt;&lt;br&gt;NcmAII&lt;br&gt;Location: 33173 - 38533" style="stroke:black; fill:white; stroke-width:1; " locus_tag="ARS01474.1" class="clusterblast-orf" id="knownclusterblast-1_all_1_6_13" points="379,340 435,340 440,335 435,330 379,330 379,340 "  />
</g>
<g id="a1_0014"  >
<polygon description="&lt;b&gt;ARS01475.1&lt;/b&gt;&lt;br&gt;NcmAIII&lt;br&gt;Location: 38533 - 43197" style="stroke:black; fill:white; stroke-width:1; " locus_tag="ARS01475.1" class="clusterblast-orf" id="knownclusterblast-1_all_1_6_14" points="440,340 489,340 494,335 489,330 440,330 440,340 "  />
</g>
<g id="a1_0015"  >
<polygon description="&lt;b&gt;ARS01476.1&lt;/b&gt;&lt;br&gt;NcmAIV&lt;br&gt;Location: 43190 - 48550" style="stroke:black; fill:white; stroke-width:1; " locus_tag="ARS01476.1" class="clusterblast-orf" id="knownclusterblast-1_all_1_6_15" points="493,340 550,340 555,335 550,330 493,330 493,340 "  />
</g>
<g id="a1_0016"  >
<polygon description="&lt;b&gt;ARS01477.1&lt;/b&gt;&lt;br&gt;NcmAV&lt;br&gt;Location: 48552 - 56591" style="stroke:black; fill:white; stroke-width:1; " locus_tag="ARS01477.1" class="clusterblast-orf" id="knownclusterblast-1_all_1_6_16" points="555,340 642,340 647,335 642,330 555,330 555,340 "  />
</g>
<g id="a1_0017"  >
<polygon description="&lt;b&gt;ARS01478.1&lt;/b&gt;&lt;br&gt;NcmE&lt;br&gt;Location: 56684 - 57505" style="stroke:black; fill:white; stroke-width:1; " locus_tag="ARS01478.1" class="clusterblast-orf" id="knownclusterblast-1_all_1_6_17" points="648,340 652,340 657,335 652,330 648,330 648,340 "  />
</g>
<g id="a1_0018"  >
<polygon description="&lt;b&gt;ARS01479.1&lt;/b&gt;&lt;br&gt;NcmF&lt;br&gt;Location: 57502 - 58965" style="stroke:black; fill:white; stroke-width:1; " locus_tag="ARS01479.1" class="clusterblast-orf" id="knownclusterblast-1_all_1_6_18" points="657,340 669,340 674,335 669,330 657,330 657,340 "  />
</g>
<g id="a1_0019"  >
<polygon description="&lt;b&gt;ARS01480.1&lt;/b&gt;&lt;br&gt;NcmG&lt;br&gt;Location: 58971 - 60164" style="stroke:black; fill:white; stroke-width:1; " locus_tag="ARS01480.1" class="clusterblast-orf" id="knownclusterblast-1_all_1_6_19" points="674,340 683,340 688,335 683,330 674,330 674,340 "  />
</g>
<g id="a1_0020"  >
<polygon description="&lt;b&gt;ARS01481.1&lt;/b&gt;&lt;br&gt;NcmH&lt;br&gt;Location: 60410 - 62041" style="stroke:black; fill:white; stroke-width:1; " locus_tag="ARS01481.1" class="clusterblast-orf" id="knownclusterblast-1_all_1_6_20" points="690,335 695,330 709,330 709,340 695,340 690,335 "  />
</g>
<g id="a1_0021"  >
<polygon description="&lt;b&gt;ARS01482.1&lt;/b&gt;&lt;br&gt;NcmI&lt;br&gt;Location: 62038 - 62631" style="stroke:black; fill:white; stroke-width:1; " locus_tag="ARS01482.1" class="clusterblast-orf" id="knownclusterblast-1_all_1_6_21" points="709,335 714,330 716,330 716,340 714,340 709,335 "  />
</g>
<g id="a1_0022"  >
<polygon description="&lt;b&gt;ARS01483.1&lt;/b&gt;&lt;br&gt;NcmJ&lt;br&gt;Location: 62774 - 64915" style="stroke:black; fill:white; stroke-width:1; " locus_tag="ARS01483.1" class="clusterblast-orf" id="knownclusterblast-1_all_1_6_22" points="717,335 722,330 742,330 742,340 722,340 717,335 "  />
</g>
<g id="a1_0023"  >
<polygon description="&lt;b&gt;ARS01484.1&lt;/b&gt;&lt;br&gt;NcmK&lt;br&gt;Location: 65014 - 65655" style="stroke:black; fill:white; stroke-width:1; " locus_tag="ARS01484.1" class="clusterblast-orf" id="knownclusterblast-1_all_1_6_23" points="743,340 745,340 750,335 745,330 743,330 743,340 "  />
</g>
<g id="a1_0024"  >
<polygon description="&lt;b&gt;ARS01485.1&lt;/b&gt;&lt;br&gt;Ohr subfamily peroxiredoxin&lt;br&gt;Location: 65862 - 66254" style="stroke:black; fill:white; stroke-width:1; " locus_tag="ARS01485.1" class="clusterblast-orf" id="knownclusterblast-1_all_1_6_24" points="753,335 757,330 757,340 753,335 "  />
</g>
<g id="a1_0025"  >
<polygon description="&lt;b&gt;ARS01486.1&lt;/b&gt;&lt;br&gt;ubiquinone biosynthesis methyltransferase UbiE&lt;br&gt;Location: 66349 - 67047&lt;br&gt;&lt;br&gt;&lt;b&gt;BlastP hit with cds38172_38904&lt;/b&gt;&lt;br&gt;Percentage identity: 59&lt;br&gt;Percentage coverage: 96&lt;br&gt;BLAST bit score: 252&lt;br&gt;E-value: 9.4e-67" style="stroke:black; fill:#d8d815; stroke-width:1; " locus_tag="ARS01486.1" class="clusterblast-orf" id="knownclusterblast-1_all_1_6_25" points="758,340 761,340 766,335 761,330 758,330 758,340 "  />
</g>
<g id="a1_0026"  >
<polygon description="&lt;b&gt;ARS01487.1&lt;/b&gt;&lt;br&gt;2Fe-2S ferredoxin&lt;br&gt;Location: 67236 - 68204&lt;br&gt;&lt;br&gt;&lt;b&gt;BlastP hit with cds32924_33932&lt;/b&gt;&lt;br&gt;Percentage identity: 64&lt;br&gt;Percentage coverage: 96&lt;br&gt;BLAST bit score: 410&lt;br&gt;E-value: 2.8e-114" style="stroke:black; fill:#d81515; stroke-width:1; " locus_tag="ARS01487.1" class="clusterblast-orf" id="knownclusterblast-1_all_1_6_26" points="768,335 773,330 780,330 780,340 773,340 768,335 "  />
</g>
</svg>
