<svg preserveAspectRatio="none" version="1.1" xmlns="http://www.w3.org/2000/svg" y="0" height="230" viewBox="0 0 800 230" x="0" width="800" xmlns:xlink="http://www.w3.org/1999/xlink"  >
<g class="clusterblast-cluster" label="Query sequence"  >
<text class="clusterblast-acc" y="20" x="5"  >
Query sequence</text>
<line x2="778.0" y1="35" style="stroke:grey; stroke-width:1; " x1="10" y2="35"  />
<polygon description="&lt;b&gt;cds24709_25303&lt;/b&gt;&lt;br&gt;Inhibitor of the KinA pathway to sporulation, predicted exonuclease&lt;br&gt;Location: 24709 - 25303" style="stroke:black; fill:white; stroke-width:1; " locus_tag="cds24709_25303" class="clusterblast-orf" id="dummy-1_q0_0_all" points="256,40 257,40 262,35 257,30 256,30 256,40 "  />
<polygon description="&lt;b&gt;cds25496_26828&lt;/b&gt;&lt;br&gt;Triacylglycerol lipase precursor (EC 3.1.1.3)&lt;br&gt;Location: 25496 - 26828" style="stroke:black; fill:white; stroke-width:1; " locus_tag="cds25496_26828" class="clusterblast-orf" id="dummy-1_q1_0_all" points="265,40 275,40 280,35 275,30 265,30 265,40 "  />
<polygon description="&lt;b&gt;cds26874_28599&lt;/b&gt;&lt;br&gt;hypothetical protein&lt;br&gt;Location: 26874 - 28599" style="stroke:black; fill:white; stroke-width:1; " locus_tag="cds26874_28599" class="clusterblast-orf" id="dummy-1_q2_0_all" points="280,35 285,30 300,30 300,40 285,40 280,35 "  />
<polygon description="&lt;b&gt;cds28927_30538&lt;/b&gt;&lt;br&gt;L-Proline/Glycine betaine transporter ProP&lt;br&gt;Location: 28927 - 30538" style="stroke:black; fill:white; stroke-width:1; " locus_tag="cds28927_30538" class="clusterblast-orf" id="dummy-1_q3_0_all" points="304,40 317,40 322,35 317,30 304,30 304,40 "  />
<polygon description="&lt;b&gt;cds30501_31440&lt;/b&gt;&lt;br&gt;Integral membrane protein&lt;br&gt;Location: 30501 - 31440" style="stroke:black; fill:white; stroke-width:1; " locus_tag="cds30501_31440" class="clusterblast-orf" id="dummy-1_q4_0_all" points="322,35 327,30 333,30 333,40 327,40 322,35 "  />
<polygon description="&lt;b&gt;cds31665_32412&lt;/b&gt;&lt;br&gt;putative lipoprotein&lt;br&gt;Location: 31665 - 32412" style="stroke:black; fill:white; stroke-width:1; " locus_tag="cds31665_32412" class="clusterblast-orf" id="dummy-1_q5_0_all" points="335,40 339,40 344,35 339,30 335,30 335,40 "  />
<polygon description="&lt;b&gt;cds32419_32908&lt;/b&gt;&lt;br&gt;hypothetical protein&lt;br&gt;Location: 32419 - 32908" style="stroke:black; fill:white; stroke-width:1; " locus_tag="cds32419_32908" class="clusterblast-orf" id="dummy-1_q6_0_all" points="344,35 349,30 349,30 349,40 349,40 344,35 "  />
<polygon description="&lt;b&gt;cds32924_33932&lt;/b&gt;&lt;br&gt;CrtV-methyltransferase-like protein&lt;br&gt;Location: 32924 - 33932" style="stroke:black; fill:#d81515; stroke-width:1; " locus_tag="cds32924_33932" class="clusterblast-orf" id="dummy-1_q7_0_all" points="350,35 355,30 361,30 361,40 355,40 350,35 "  />
<polygon description="&lt;b&gt;cds33928_34930&lt;/b&gt;&lt;br&gt;Phytoene synthase (EC 2.5.1.32)&lt;br&gt;Location: 33928 - 34930" style="stroke:black; fill:#15d815; stroke-width:1; " locus_tag="cds33928_34930" class="clusterblast-orf" id="dummy-1_q8_0_all" points="361,35 366,30 372,30 372,40 366,40 361,35 "  />
<polygon description="&lt;b&gt;cds34926_36444&lt;/b&gt;&lt;br&gt;Squalene/phytoene desaturase HopC&lt;br&gt;Location: 34926 - 36444" style="stroke:black; fill:#1515d8; stroke-width:1; " locus_tag="cds34926_36444" class="clusterblast-orf" id="dummy-1_q9_0_all" points="372,35 377,30 390,30 390,40 377,40 372,35 "  />
<polygon description="&lt;b&gt;cds36942_38169&lt;/b&gt;&lt;br&gt;Lycopene beta-cyclase (EC 5.5.1.19)&lt;br&gt;Location: 36942 - 38169" style="stroke:black; fill:#d815d8; stroke-width:1; " locus_tag="cds36942_38169" class="clusterblast-orf" id="dummy-1_q10_0_all" points="395,40 405,40 410,35 405,30 395,30 395,40 "  />
<polygon description="&lt;b&gt;cds38172_38904&lt;/b&gt;&lt;br&gt;CrtT-methyltransferase-like protein&lt;br&gt;Location: 38172 - 38904" style="stroke:black; fill:#d8d815; stroke-width:1; " locus_tag="cds38172_38904" class="clusterblast-orf" id="dummy-1_q11_0_all" points="410,40 413,40 418,35 413,30 410,30 410,40 "  />
<polygon description="&lt;b&gt;cds38900_40472&lt;/b&gt;&lt;br&gt;phi-Carotenoid synthase (EC 1.3.-.- and EC 2.1.1-)&lt;br&gt;Location: 38900 - 40472" style="stroke:black; fill:#15d8d8; stroke-width:1; " locus_tag="cds38900_40472" class="clusterblast-orf" id="dummy-1_q12_0_all" points="418,40 431,40 436,35 431,30 418,30 418,40 "  />
<polygon description="&lt;b&gt;cds40616_41483&lt;/b&gt;&lt;br&gt;Putative oxidoreductase&lt;br&gt;Location: 40616 - 41483" style="stroke:black; fill:white; stroke-width:1; " locus_tag="cds40616_41483" class="clusterblast-orf" id="dummy-1_q13_0_all" points="438,35 443,30 447,30 447,40 443,40 438,35 "  />
<polygon description="&lt;b&gt;cds41543_43163&lt;/b&gt;&lt;br&gt;Beta-carotene ketolase&lt;br&gt;Location: 41543 - 43163" style="stroke:black; fill:white; stroke-width:1; " locus_tag="cds41543_43163" class="clusterblast-orf" id="dummy-1_q14_0_all" points="448,35 453,30 467,30 467,40 453,40 448,35 "  />
<polygon description="&lt;b&gt;cds43155_43656&lt;/b&gt;&lt;br&gt;hypothetical protein&lt;br&gt;Location: 43155 - 43656" style="stroke:black; fill:white; stroke-width:1; " locus_tag="cds43155_43656" class="clusterblast-orf" id="dummy-1_q15_0_all" points="467,35 472,30 472,30 472,40 472,40 467,35 "  />
<polygon description="&lt;b&gt;cds43973_45137&lt;/b&gt;&lt;br&gt;serine protease precursor&lt;br&gt;Location: 43973 - 45137" style="stroke:black; fill:white; stroke-width:1; " locus_tag="cds43973_45137" class="clusterblast-orf" id="dummy-1_q16_0_all" points="476,40 484,40 489,35 484,30 476,30 476,40 "  />
<polygon description="&lt;b&gt;cds45227_45665&lt;/b&gt;&lt;br&gt;Integral membrane protein&lt;br&gt;Location: 45227 - 45665" style="stroke:black; fill:white; stroke-width:1; " locus_tag="cds45227_45665" class="clusterblast-orf" id="dummy-1_q17_0_all" points="490,35 495,30 495,30 495,40 495,40 490,35 "  />
<polygon description="&lt;b&gt;cds45784_47071&lt;/b&gt;&lt;br&gt;Putative transmembrane transport protein&lt;br&gt;Location: 45784 - 47071" style="stroke:black; fill:white; stroke-width:1; " locus_tag="cds45784_47071" class="clusterblast-orf" id="dummy-1_q18_0_all" points="497,35 502,30 511,30 511,40 502,40 497,35 "  />
<polygon description="&lt;b&gt;cds47479_47665&lt;/b&gt;&lt;br&gt;hypothetical protein&lt;br&gt;Location: 47479 - 47665" style="stroke:black; fill:white; stroke-width:1; " locus_tag="cds47479_47665" class="clusterblast-orf" id="dummy-1_q19_0_all" points="516,40 518,35 516,30 516,40 "  />
<polygon description="&lt;b&gt;cds47841_48147&lt;/b&gt;&lt;br&gt;putative glutamate dehydrogenase/leucine dehydrogenase&lt;br&gt;Location: 47841 - 48147" style="stroke:black; fill:white; stroke-width:1; " locus_tag="cds47841_48147" class="clusterblast-orf" id="dummy-1_q20_0_all" points="520,40 524,35 520,30 520,40 "  />
</g>
<g description="BGC0001702_c1: nocamycin (7% of genes show similarity), NRP + Polyketide" class="clusterblast-cluster" label="BGC0001702"  >
<text class="clusterblast-acc" y="70" x="5"  >
<a xlink:href="https://mibig.secondarymetabolites.org/go/BGC0001702/1" target="_blank">BGC0001702</a>:                                                                        nocamycin (7% of genes show similarity), NRP + Polyketide</text>
<line x2="778.0" y1="85" style="stroke:grey; stroke-width:1; " x1="10" y2="85"  />
</g>
<g id="a1_000"  >
<polygon description="&lt;b&gt;ARS01461.1&lt;/b&gt;&lt;br&gt;short-chain dehydrogenase&lt;br&gt;Location: 1 - 816" style="stroke:black; fill:white; stroke-width:1; " locus_tag="ARS01461.1" class="clusterblast-orf" id="dummy-1_h1_6_0" points="0,85 5,80 9,80 9,90 5,90 0,85 "  />
</g>
<g id="a1_001"  >
<polygon description="&lt;b&gt;ARS01462.1&lt;/b&gt;&lt;br&gt;helicase&lt;br&gt;Location: 924 - 2918" style="stroke:black; fill:white; stroke-width:1; " locus_tag="ARS01462.1" class="clusterblast-orf" id="dummy-1_h1_6_1" points="10,90 28,90 33,85 28,80 10,80 10,90 "  />
</g>
<g id="a1_002"  >
<polygon description="&lt;b&gt;ARS01463.1&lt;/b&gt;&lt;br&gt;hypothetical protein&lt;br&gt;Location: 3004 - 4371" style="stroke:black; fill:white; stroke-width:1; " locus_tag="ARS01463.1" class="clusterblast-orf" id="dummy-1_h1_6_2" points="34,90 44,90 49,85 44,80 34,80 34,90 "  />
</g>
<g id="a1_003"  >
<polygon description="&lt;b&gt;ARS01464.1&lt;/b&gt;&lt;br&gt;NcmM&lt;br&gt;Location: 4770 - 5444" style="stroke:black; fill:white; stroke-width:1; " locus_tag="ARS01464.1" class="clusterblast-orf" id="dummy-1_h1_6_3" points="54,85 59,80 62,80 62,90 59,90 54,85 "  />
</g>
<g id="a1_004"  >
<polygon description="&lt;b&gt;ARS01465.1&lt;/b&gt;&lt;br&gt;NcmL&lt;br&gt;Location: 5461 - 6996" style="stroke:black; fill:white; stroke-width:1; " locus_tag="ARS01465.1" class="clusterblast-orf" id="dummy-1_h1_6_4" points="62,85 67,80 79,80 79,90 67,90 62,85 "  />
</g>
<g id="a1_005"  >
<polygon description="&lt;b&gt;ARS01466.1&lt;/b&gt;&lt;br&gt;NcmN&lt;br&gt;Location: 7606 - 10284" style="stroke:black; fill:white; stroke-width:1; " locus_tag="ARS01466.1" class="clusterblast-orf" id="dummy-1_h1_6_5" points="86,90 112,90 117,85 112,80 86,80 86,90 "  />
</g>
<g id="a1_006"  >
<polygon description="&lt;b&gt;ARS01467.1&lt;/b&gt;&lt;br&gt;NcmO&lt;br&gt;Location: 10689 - 11843" style="stroke:black; fill:white; stroke-width:1; " locus_tag="ARS01467.1" class="clusterblast-orf" id="dummy-1_h1_6_6" points="122,90 130,90 135,85 130,80 122,80 122,90 "  />
</g>
<g id="a1_007"  >
<polygon description="&lt;b&gt;ARS01468.1&lt;/b&gt;&lt;br&gt;NcmP&lt;br&gt;Location: 11858 - 12700" style="stroke:black; fill:white; stroke-width:1; " locus_tag="ARS01468.1" class="clusterblast-orf" id="dummy-1_h1_6_7" points="135,90 140,90 145,85 140,80 135,80 135,90 "  />
</g>
<g id="a1_008"  >
<polygon description="&lt;b&gt;ARS01469.1&lt;/b&gt;&lt;br&gt;NcmC&lt;br&gt;Location: 12697 - 13515" style="stroke:black; fill:white; stroke-width:1; " locus_tag="ARS01469.1" class="clusterblast-orf" id="dummy-1_h1_6_8" points="145,90 149,90 154,85 149,80 145,80 145,90 "  />
</g>
<g id="a1_009"  >
<polygon description="&lt;b&gt;ARS01470.1&lt;/b&gt;&lt;br&gt;NcmB&lt;br&gt;Location: 13526 - 16840" style="stroke:black; fill:white; stroke-width:1; " locus_tag="ARS01470.1" class="clusterblast-orf" id="dummy-1_h1_6_9" points="154,90 187,90 192,85 187,80 154,80 154,90 "  />
</g>
<g id="a1_0010"  >
<polygon description="&lt;b&gt;ARS01471.1&lt;/b&gt;&lt;br&gt;NcmD&lt;br&gt;Location: 16837 - 17652" style="stroke:black; fill:white; stroke-width:1; " locus_tag="ARS01471.1" class="clusterblast-orf" id="dummy-1_h1_6_10" points="192,85 197,80 201,80 201,90 197,90 192,85 "  />
</g>
<g id="a1_0011"  >
<polygon description="&lt;b&gt;ARS01472.1&lt;/b&gt;&lt;br&gt;NcmQ&lt;br&gt;Location: 17750 - 18112" style="stroke:black; fill:white; stroke-width:1; " locus_tag="ARS01472.1" class="clusterblast-orf" id="dummy-1_h1_6_11" points="202,90 202,90 207,85 202,80 202,80 202,90 "  />
</g>
<g id="a1_0012"  >
<polygon description="&lt;b&gt;ARS01473.1&lt;/b&gt;&lt;br&gt;NcmAI&lt;br&gt;Location: 18426 - 33173" style="stroke:black; fill:white; stroke-width:1; " locus_tag="ARS01473.1" class="clusterblast-orf" id="dummy-1_h1_6_12" points="210,90 374,90 379,85 374,80 210,80 210,90 "  />
</g>
<g id="a1_0013"  >
<polygon description="&lt;b&gt;ARS01474.1&lt;/b&gt;&lt;br&gt;NcmAII&lt;br&gt;Location: 33173 - 38533" style="stroke:black; fill:white; stroke-width:1; " locus_tag="ARS01474.1" class="clusterblast-orf" id="dummy-1_h1_6_13" points="379,90 435,90 440,85 435,80 379,80 379,90 "  />
</g>
<g id="a1_0014"  >
<polygon description="&lt;b&gt;ARS01475.1&lt;/b&gt;&lt;br&gt;NcmAIII&lt;br&gt;Location: 38533 - 43197" style="stroke:black; fill:white; stroke-width:1; " locus_tag="ARS01475.1" class="clusterblast-orf" id="dummy-1_h1_6_14" points="440,90 489,90 494,85 489,80 440,80 440,90 "  />
</g>
<g id="a1_0015"  >
<polygon description="&lt;b&gt;ARS01476.1&lt;/b&gt;&lt;br&gt;NcmAIV&lt;br&gt;Location: 43190 - 48550" style="stroke:black; fill:white; stroke-width:1; " locus_tag="ARS01476.1" class="clusterblast-orf" id="dummy-1_h1_6_15" points="493,90 550,90 555,85 550,80 493,80 493,90 "  />
</g>
<g id="a1_0016"  >
<polygon description="&lt;b&gt;ARS01477.1&lt;/b&gt;&lt;br&gt;NcmAV&lt;br&gt;Location: 48552 - 56591" style="stroke:black; fill:white; stroke-width:1; " locus_tag="ARS01477.1" class="clusterblast-orf" id="dummy-1_h1_6_16" points="555,90 642,90 647,85 642,80 555,80 555,90 "  />
</g>
<g id="a1_0017"  >
<polygon description="&lt;b&gt;ARS01478.1&lt;/b&gt;&lt;br&gt;NcmE&lt;br&gt;Location: 56684 - 57505" style="stroke:black; fill:white; stroke-width:1; " locus_tag="ARS01478.1" class="clusterblast-orf" id="dummy-1_h1_6_17" points="648,90 652,90 657,85 652,80 648,80 648,90 "  />
</g>
<g id="a1_0018"  >
<polygon description="&lt;b&gt;ARS01479.1&lt;/b&gt;&lt;br&gt;NcmF&lt;br&gt;Location: 57502 - 58965" style="stroke:black; fill:white; stroke-width:1; " locus_tag="ARS01479.1" class="clusterblast-orf" id="dummy-1_h1_6_18" points="657,90 669,90 674,85 669,80 657,80 657,90 "  />
</g>
<g id="a1_0019"  >
<polygon description="&lt;b&gt;ARS01480.1&lt;/b&gt;&lt;br&gt;NcmG&lt;br&gt;Location: 58971 - 60164" style="stroke:black; fill:white; stroke-width:1; " locus_tag="ARS01480.1" class="clusterblast-orf" id="dummy-1_h1_6_19" points="674,90 683,90 688,85 683,80 674,80 674,90 "  />
</g>
<g id="a1_0020"  >
<polygon description="&lt;b&gt;ARS01481.1&lt;/b&gt;&lt;br&gt;NcmH&lt;br&gt;Location: 60410 - 62041" style="stroke:black; fill:white; stroke-width:1; " locus_tag="ARS01481.1" class="clusterblast-orf" id="dummy-1_h1_6_20" points="690,85 695,80 709,80 709,90 695,90 690,85 "  />
</g>
<g id="a1_0021"  >
<polygon description="&lt;b&gt;ARS01482.1&lt;/b&gt;&lt;br&gt;NcmI&lt;br&gt;Location: 62038 - 62631" style="stroke:black; fill:white; stroke-width:1; " locus_tag="ARS01482.1" class="clusterblast-orf" id="dummy-1_h1_6_21" points="709,85 714,80 716,80 716,90 714,90 709,85 "  />
</g>
<g id="a1_0022"  >
<polygon description="&lt;b&gt;ARS01483.1&lt;/b&gt;&lt;br&gt;NcmJ&lt;br&gt;Location: 62774 - 64915" style="stroke:black; fill:white; stroke-width:1; " locus_tag="ARS01483.1" class="clusterblast-orf" id="dummy-1_h1_6_22" points="717,85 722,80 742,80 742,90 722,90 717,85 "  />
</g>
<g id="a1_0023"  >
<polygon description="&lt;b&gt;ARS01484.1&lt;/b&gt;&lt;br&gt;NcmK&lt;br&gt;Location: 65014 - 65655" style="stroke:black; fill:white; stroke-width:1; " locus_tag="ARS01484.1" class="clusterblast-orf" id="dummy-1_h1_6_23" points="743,90 745,90 750,85 745,80 743,80 743,90 "  />
</g>
<g id="a1_0024"  >
<polygon description="&lt;b&gt;ARS01485.1&lt;/b&gt;&lt;br&gt;Ohr subfamily peroxiredoxin&lt;br&gt;Location: 65862 - 66254" style="stroke:black; fill:white; stroke-width:1; " locus_tag="ARS01485.1" class="clusterblast-orf" id="dummy-1_h1_6_24" points="753,85 757,80 757,90 753,85 "  />
</g>
<g id="a1_0025"  >
<polygon description="&lt;b&gt;ARS01486.1&lt;/b&gt;&lt;br&gt;ubiquinone biosynthesis methyltransferase UbiE&lt;br&gt;Location: 66349 - 67047&lt;br&gt;&lt;br&gt;&lt;b&gt;BlastP hit with cds38172_38904&lt;/b&gt;&lt;br&gt;Percentage identity: 59&lt;br&gt;Percentage coverage: 96&lt;br&gt;BLAST bit score: 252&lt;br&gt;E-value: 9.4e-67" style="stroke:black; fill:#d8d815; stroke-width:1; " locus_tag="ARS01486.1" class="clusterblast-orf" id="dummy-1_h1_6_25" points="758,90 761,90 766,85 761,80 758,80 758,90 "  />
</g>
<g id="a1_0026"  >
<polygon description="&lt;b&gt;ARS01487.1&lt;/b&gt;&lt;br&gt;2Fe-2S ferredoxin&lt;br&gt;Location: 67236 - 68204&lt;br&gt;&lt;br&gt;&lt;b&gt;BlastP hit with cds32924_33932&lt;/b&gt;&lt;br&gt;Percentage identity: 64&lt;br&gt;Percentage coverage: 96&lt;br&gt;BLAST bit score: 410&lt;br&gt;E-value: 2.8e-114" style="stroke:black; fill:#d81515; stroke-width:1; " locus_tag="ARS01487.1" class="clusterblast-orf" id="dummy-1_h1_6_26" points="768,85 773,80 780,80 780,90 773,90 768,85 "  />
</g>
</svg>
