<svg preserveAspectRatio="none" version="1.1" xmlns="http://www.w3.org/2000/svg" y="0" height="230" viewBox="0 0 800 230" x="0" width="800" xmlns:xlink="http://www.w3.org/1999/xlink"  >
<g class="clusterblast-cluster" label="Query sequence"  >
<text class="clusterblast-acc" y="20" x="5"  >
Query sequence</text>
<line x2="778.0" y1="35" style="stroke:grey; stroke-width:1; " x1="10" y2="35"  />
<polygon description="&lt;b&gt;cds163970_164366&lt;/b&gt;&lt;br&gt;hypothetical protein&lt;br&gt;Location: 163970 - 164366" style="stroke:black; fill:white; stroke-width:1; " locus_tag="cds163970_164366" class="clusterblast-orf" id="dummy-2_q0_0_all" points="0,35 5,30 6,30 6,40 5,40 0,35 "  />
<polygon description="&lt;b&gt;cds164472_165072&lt;/b&gt;&lt;br&gt;Methyltransferase type 12&lt;br&gt;Location: 164472 - 165072" style="stroke:black; fill:white; stroke-width:1; " locus_tag="cds164472_165072" class="clusterblast-orf" id="dummy-2_q1_0_all" points="8,40 12,40 17,35 12,30 8,30 8,40 "  />
<polygon description="&lt;b&gt;cds165093_166266&lt;/b&gt;&lt;br&gt;Alanyl-tRNA synthetase-related protein&lt;br&gt;Location: 165093 - 166266" style="stroke:black; fill:white; stroke-width:1; " locus_tag="cds165093_166266" class="clusterblast-orf" id="dummy-2_q2_0_all" points="17,35 22,30 36,30 36,40 22,40 17,35 "  />
<polygon description="&lt;b&gt;cds166700_167177&lt;/b&gt;&lt;br&gt;Spore-associated protein A precursor&lt;br&gt;Location: 166700 - 167177" style="stroke:black; fill:white; stroke-width:1; " locus_tag="cds166700_167177" class="clusterblast-orf" id="dummy-2_q3_0_all" points="43,40 46,40 51,35 46,30 43,30 43,40 "  />
<polygon description="&lt;b&gt;cds167246_167978&lt;/b&gt;&lt;br&gt;hypothetical protein&lt;br&gt;Location: 167246 - 167978" style="stroke:black; fill:white; stroke-width:1; " locus_tag="cds167246_167978" class="clusterblast-orf" id="dummy-2_q4_0_all" points="52,35 57,30 63,30 63,40 57,40 52,35 "  />
<polygon description="&lt;b&gt;cds168298_169039&lt;/b&gt;&lt;br&gt;hypothetical protein&lt;br&gt;Location: 168298 - 169039" style="stroke:black; fill:white; stroke-width:1; " locus_tag="cds168298_169039" class="clusterblast-orf" id="dummy-2_q5_0_all" points="68,40 75,40 80,35 75,30 68,30 68,40 "  />
<polygon description="&lt;b&gt;cds169075_169813&lt;/b&gt;&lt;br&gt;hypothetical protein&lt;br&gt;Location: 169075 - 169813" style="stroke:black; fill:white; stroke-width:1; " locus_tag="cds169075_169813" class="clusterblast-orf" id="dummy-2_q6_0_all" points="81,35 86,30 92,30 92,40 86,40 81,35 "  />
<polygon description="&lt;b&gt;cds169943_170795&lt;/b&gt;&lt;br&gt;Transcriptional regulator, LysR family&lt;br&gt;Location: 169943 - 170795" style="stroke:black; fill:white; stroke-width:1; " locus_tag="cds169943_170795" class="clusterblast-orf" id="dummy-2_q7_0_all" points="95,35 100,30 108,30 108,40 100,40 95,35 "  />
<polygon description="&lt;b&gt;cds170876_171371&lt;/b&gt;&lt;br&gt;hypothetical protein&lt;br&gt;Location: 170876 - 171371" style="stroke:black; fill:white; stroke-width:1; " locus_tag="cds170876_171371" class="clusterblast-orf" id="dummy-2_q8_0_all" points="109,40 112,40 117,35 112,30 109,30 109,40 "  />
<polygon description="&lt;b&gt;cds171387_171747&lt;/b&gt;&lt;br&gt;hypothetical protein&lt;br&gt;Location: 171387 - 171747" style="stroke:black; fill:white; stroke-width:1; " locus_tag="cds171387_171747" class="clusterblast-orf" id="dummy-2_q9_0_all" points="117,40 118,40 123,35 118,30 117,30 117,40 "  />
<polygon description="&lt;b&gt;cds171739_172456&lt;/b&gt;&lt;br&gt;Oligopeptide transport ATP-binding protein OppF (TC 3.A.1.5.1)&lt;br&gt;Location: 171739 - 172456" style="stroke:black; fill:white; stroke-width:1; " locus_tag="cds171739_172456" class="clusterblast-orf" id="dummy-2_q10_0_all" points="123,35 128,30 134,30 134,40 128,40 123,35 "  />
<polygon description="&lt;b&gt;cds172452_173412&lt;/b&gt;&lt;br&gt;Oligopeptide ABC transporter, ATP-binding protein OppD (TC 3.A.1.5.1)&lt;br&gt;Location: 172452 - 173412" style="stroke:black; fill:white; stroke-width:1; " locus_tag="cds172452_173412" class="clusterblast-orf" id="dummy-2_q11_0_all" points="134,35 139,30 150,30 150,40 139,40 134,35 "  />
<polygon description="&lt;b&gt;cds173380_175147&lt;/b&gt;&lt;br&gt;ABC transporter, permease protein 1 (cluster 5, nickel/peptides/opines) / ABC transporter, permease protein 2 (cluster 5, nickel/peptides/opines)&lt;br&gt;Location: 173380 - 175147" style="stroke:black; fill:white; stroke-width:1; " locus_tag="cds173380_175147" class="clusterblast-orf" id="dummy-2_q12_0_all" points="149,35 154,30 177,30 177,40 154,40 149,35 "  />
<polygon description="&lt;b&gt;cds175143_176631&lt;/b&gt;&lt;br&gt;ABC transporter, substrate-binding protein (cluster 5, nickel/peptides/opines)&lt;br&gt;Location: 175143 - 176631" style="stroke:black; fill:white; stroke-width:1; " locus_tag="cds175143_176631" class="clusterblast-orf" id="dummy-2_q13_0_all" points="177,35 182,30 201,30 201,40 182,40 177,35 "  />
<polygon description="&lt;b&gt;cds176700_177204&lt;/b&gt;&lt;br&gt;Zinc uptake regulation protein Zur&lt;br&gt;Location: 176700 - 177204" style="stroke:black; fill:white; stroke-width:1; " locus_tag="cds176700_177204" class="clusterblast-orf" id="dummy-2_q14_0_all" points="202,35 207,30 210,30 210,40 207,40 202,35 "  />
<polygon description="&lt;b&gt;cds177424_177658&lt;/b&gt;&lt;br&gt;Ferredoxin-like protein SCO7676&lt;br&gt;Location: 177424 - 177658" style="stroke:black; fill:white; stroke-width:1; " locus_tag="cds177424_177658" class="clusterblast-orf" id="dummy-2_q15_0_all" points="213,40 217,35 213,30 213,40 "  />
<polygon description="&lt;b&gt;cds177767_179354&lt;/b&gt;&lt;br&gt;ABC transporter, substrate-binding protein (cluster 5, nickel/peptides/opines)&lt;br&gt;Location: 177767 - 179354" style="stroke:black; fill:white; stroke-width:1; " locus_tag="cds177767_179354" class="clusterblast-orf" id="dummy-2_q16_0_all" points="219,40 239,40 244,35 239,30 219,30 219,40 "  />
<polygon description="&lt;b&gt;cds179350_180301&lt;/b&gt;&lt;br&gt;ABC transporter, permease protein 1 (cluster 5, nickel/peptides/opines)&lt;br&gt;Location: 179350 - 180301" style="stroke:black; fill:white; stroke-width:1; " locus_tag="cds179350_180301" class="clusterblast-orf" id="dummy-2_q17_0_all" points="244,40 254,40 259,35 254,30 244,30 244,40 "  />
<polygon description="&lt;b&gt;cds180297_181158&lt;/b&gt;&lt;br&gt;ABC transporter, permease protein 2 (cluster 5, nickel/peptides/opines)&lt;br&gt;Location: 180297 - 181158" style="stroke:black; fill:white; stroke-width:1; " locus_tag="cds180297_181158" class="clusterblast-orf" id="dummy-2_q18_0_all" points="259,40 268,40 273,35 268,30 259,30 259,40 "  />
<polygon description="&lt;b&gt;cds181154_182735&lt;/b&gt;&lt;br&gt;ABC transporter, ATP-binding protein (cluster 5, nickel/peptides/opines) / ABC transporter, ATP-binding protein (cluster 5, nickel/peptides/opines)&lt;br&gt;Location: 181154 - 182735" style="stroke:black; fill:white; stroke-width:1; " locus_tag="cds181154_182735" class="clusterblast-orf" id="dummy-2_q19_0_all" points="273,40 293,40 298,35 293,30 273,30 273,40 "  />
<polygon description="&lt;b&gt;cds182797_184435&lt;/b&gt;&lt;br&gt;2,3-dihydroxybenzoate-AMP ligase (EC 2.7.7.58) of siderophore biosynthesis&lt;br&gt;Location: 182797 - 184435" style="stroke:black; fill:#d81515; stroke-width:1; " locus_tag="cds182797_184435" class="clusterblast-orf" id="dummy-2_q20_0_all" points="299,35 304,30 325,30 325,40 304,40 299,35 "  />
<polygon description="&lt;b&gt;cds184616_191417&lt;/b&gt;&lt;br&gt;iron aquisition yersiniabactin synthesis enzyme (Irp2)&lt;br&gt;Location: 184616 - 191417" style="stroke:black; fill:#3cd815; stroke-width:1; " locus_tag="cds184616_191417" class="clusterblast-orf" id="dummy-2_q21_0_all" points="328,40 431,40 436,35 431,30 328,30 328,40 "  />
<polygon description="&lt;b&gt;cds191413_196942&lt;/b&gt;&lt;br&gt;iron aquisition yersiniabactin synthesis enzyme (Irp2)&lt;br&gt;Location: 191413 - 196942" style="stroke:black; fill:#1563d8; stroke-width:1; " locus_tag="cds191413_196942" class="clusterblast-orf" id="dummy-2_q22_0_all" points="435,40 518,40 523,35 518,30 435,30 435,40 "  />
<polygon description="&lt;b&gt;cds196938_198090&lt;/b&gt;&lt;br&gt;Putative reductoisomerase in siderophore biosynthesis gene cluster&lt;br&gt;Location: 196938 - 198090" style="stroke:black; fill:#b115d8; stroke-width:1; " locus_tag="cds196938_198090" class="clusterblast-orf" id="dummy-2_q23_0_all" points="523,40 536,40 541,35 536,30 523,30 523,40 "  />
<polygon description="&lt;b&gt;cds198086_200171&lt;/b&gt;&lt;br&gt;Yersiniabactin synthetase, thiazolinyl reductase component Irp3&lt;br&gt;Location: 198086 - 200171" style="stroke:black; fill:#d88a15; stroke-width:1; " locus_tag="cds198086_200171" class="clusterblast-orf" id="dummy-2_q24_0_all" points="541,40 570,40 575,35 570,30 541,30 541,40 "  />
<polygon description="&lt;b&gt;cds200180_201431&lt;/b&gt;&lt;br&gt;putative cytochrome P450&lt;br&gt;Location: 200180 - 201431" style="stroke:black; fill:#15d863; stroke-width:1; " locus_tag="cds200180_201431" class="clusterblast-orf" id="dummy-2_q25_0_all" points="575,40 590,40 595,35 590,30 575,30 575,40 "  />
<polygon description="&lt;b&gt;cds201427_202267&lt;/b&gt;&lt;br&gt;Thioesterase in siderophore biosynthesis gene cluster&lt;br&gt;Location: 201427 - 202267" style="stroke:black; fill:#3c15d8; stroke-width:1; " locus_tag="cds201427_202267" class="clusterblast-orf" id="dummy-2_q26_0_all" points="594,40 603,40 608,35 603,30 594,30 594,40 "  />
<polygon description="&lt;b&gt;cds202361_203090&lt;/b&gt;&lt;br&gt;hypothetical protein&lt;br&gt;Location: 202361 - 203090" style="stroke:black; fill:#d88a15; stroke-width:1; " locus_tag="cds202361_203090" class="clusterblast-orf" id="dummy-2_q27_0_all" points="609,40 616,40 621,35 616,30 609,30 609,40 "  />
<polygon description="&lt;b&gt;cds203086_204907&lt;/b&gt;&lt;br&gt;Heterodimeric efflux ABC transporter, permease/ATP-binding subunit 1&lt;br&gt;Location: 203086 - 204907" style="stroke:black; fill:#d8158a; stroke-width:1; " locus_tag="cds203086_204907" class="clusterblast-orf" id="dummy-2_q28_0_all" points="621,40 645,40 650,35 645,30 621,30 621,40 "  />
<polygon description="&lt;b&gt;cds204903_206679&lt;/b&gt;&lt;br&gt;Heterodimeric efflux ABC transporter, permease/ATP-binding subunit 2&lt;br&gt;Location: 204903 - 206679" style="stroke:black; fill:#b1d815; stroke-width:1; " locus_tag="cds204903_206679" class="clusterblast-orf" id="dummy-2_q29_0_all" points="650,40 673,40 678,35 673,30 650,30 650,40 "  />
<polygon description="&lt;b&gt;cds206737_208150&lt;/b&gt;&lt;br&gt;Salicylate synthetase (EC 5.4.4.2)(EC 4.2.99.21) @ Salicylate synthetase (EC 5.4.4.2)(EC 4.2.99.21) of siderophore biosynthesis&lt;br&gt;Location: 206737 - 208150" style="stroke:black; fill:#15d8d8; stroke-width:1; " locus_tag="cds206737_208150" class="clusterblast-orf" id="dummy-2_q30_0_all" points="679,40 696,40 701,35 696,30 679,30 679,40 "  />
<polygon description="&lt;b&gt;cds208245_209073&lt;/b&gt;&lt;br&gt;hypothetical protein&lt;br&gt;Location: 208245 - 209073" style="stroke:black; fill:white; stroke-width:1; " locus_tag="cds208245_209073" class="clusterblast-orf" id="dummy-2_q31_0_all" points="703,35 708,30 716,30 716,40 708,40 703,35 "  />
<polygon description="&lt;b&gt;cds209151_210339&lt;/b&gt;&lt;br&gt;Zinc-binding GTPase YciC&lt;br&gt;Location: 209151 - 210339" style="stroke:black; fill:white; stroke-width:1; " locus_tag="cds209151_210339" class="clusterblast-orf" id="dummy-2_q32_0_all" points="717,35 722,30 736,30 736,40 722,40 717,35 "  />
<polygon description="&lt;b&gt;cds210345_210516&lt;/b&gt;&lt;br&gt;LSU ribosomal protein L32p&lt;br&gt;Location: 210345 - 210516" style="stroke:black; fill:white; stroke-width:1; " locus_tag="cds210345_210516" class="clusterblast-orf" id="dummy-2_q33_0_all" points="736,35 739,30 739,40 736,35 "  />
<polygon description="&lt;b&gt;cds210592_211339&lt;/b&gt;&lt;br&gt;Nitroreductase&lt;br&gt;Location: 210592 - 211339" style="stroke:black; fill:white; stroke-width:1; " locus_tag="cds210592_211339" class="clusterblast-orf" id="dummy-2_q34_0_all" points="740,35 745,30 752,30 752,40 745,40 740,35 "  />
<polygon description="&lt;b&gt;cds211384_211978&lt;/b&gt;&lt;br&gt;Transcriptional regulator, AcrR family&lt;br&gt;Location: 211384 - 211978" style="stroke:black; fill:white; stroke-width:1; " locus_tag="cds211384_211978" class="clusterblast-orf" id="dummy-2_q35_0_all" points="753,40 757,40 762,35 757,30 753,30 753,40 "  />
<polygon description="&lt;b&gt;cds212006_212663&lt;/b&gt;&lt;br&gt;hypothetical protein&lt;br&gt;Location: 212006 - 212663" style="stroke:black; fill:white; stroke-width:1; " locus_tag="cds212006_212663" class="clusterblast-orf" id="dummy-2_q36_0_all" points="762,35 767,30 773,30 773,40 767,40 762,35 "  />
<polygon description="&lt;b&gt;cds212659_213088&lt;/b&gt;&lt;br&gt;hypothetical protein&lt;br&gt;Location: 212659 - 213088" style="stroke:black; fill:white; stroke-width:1; " locus_tag="cds212659_213088" class="clusterblast-orf" id="dummy-2_q37_0_all" points="773,35 778,30 780,30 780,40 778,40 773,35 "  />
</g>
<g description="BGC0000324_c1: coelibactin (100% of genes show similarity), NRP" class="clusterblast-cluster" label="BGC0000324"  >
<text class="clusterblast-acc" y="70" x="5"  >
<a xlink:href="https://mibig.secondarymetabolites.org/go/BGC0000324/1" target="_blank">BGC0000324</a>:                                                                      coelibactin (100% of genes show similarity), NRP</text>
<line x2="778.0" y1="85" style="stroke:grey; stroke-width:1; " x1="10" y2="85"  />
</g>
<g id="a2_000"  >
<polygon description="&lt;b&gt;CAC17498.1&lt;/b&gt;&lt;br&gt;putative AMP-binding ligase&lt;br&gt;Location: 1 - 1662&lt;br&gt;&lt;br&gt;&lt;b&gt;BlastP hit with cds182797_184435&lt;/b&gt;&lt;br&gt;Percentage identity: 79&lt;br&gt;Percentage coverage: 101&lt;br&gt;BLAST bit score: 838&lt;br&gt;E-value: 5.3e-243" style="stroke:black; fill:#d81515; stroke-width:1; " locus_tag="CAC17498.1" class="clusterblast-orf" id="dummy-2_h2_1_0" points="190,85 195,80 216,80 216,90 195,90 190,85 "  />
</g>
<g id="a2_001"  >
<polygon description="&lt;b&gt;CAC17499.1&lt;/b&gt;&lt;br&gt;putative non-ribosomal peptide synthase&lt;br&gt;Location: 1823 - 8512&lt;br&gt;&lt;br&gt;&lt;b&gt;BlastP hit with cds184616_191417&lt;/b&gt;&lt;br&gt;Percentage identity: 84&lt;br&gt;Percentage coverage: 100&lt;br&gt;BLAST bit score: 3717&lt;br&gt;E-value: 0.0" style="stroke:black; fill:#3cd815; stroke-width:1; " locus_tag="CAC17499.1" class="clusterblast-orf" id="dummy-2_h2_1_1" points="219,90 320,90 325,85 320,80 219,80 219,90 "  />
</g>
<g id="a2_002"  >
<polygon description="&lt;b&gt;CAC17500.1&lt;/b&gt;&lt;br&gt;putative non-ribosomal peptide synthase&lt;br&gt;Location: 8509 - 14037&lt;br&gt;&lt;br&gt;&lt;b&gt;BlastP hit with cds191413_196942&lt;/b&gt;&lt;br&gt;Percentage identity: 90&lt;br&gt;Percentage coverage: 100&lt;br&gt;BLAST bit score: 3242&lt;br&gt;E-value: 0.0" style="stroke:black; fill:#1563d8; stroke-width:1; " locus_tag="CAC17500.1" class="clusterblast-orf" id="dummy-2_h2_1_2" points="325,90 408,90 413,85 408,80 325,80 325,90 "  />
</g>
<g id="a2_003"  >
<polygon description="&lt;b&gt;CAC17501.1&lt;/b&gt;&lt;br&gt;conserved hypothetical protein&lt;br&gt;Location: 14034 - 15185&lt;br&gt;&lt;br&gt;&lt;b&gt;BlastP hit with cds196938_198090&lt;/b&gt;&lt;br&gt;Percentage identity: 91&lt;br&gt;Percentage coverage: 100&lt;br&gt;BLAST bit score: 670&lt;br&gt;E-value: 2.3e-192" style="stroke:black; fill:#b115d8; stroke-width:1; " locus_tag="CAC17501.1" class="clusterblast-orf" id="dummy-2_h2_1_3" points="413,90 426,90 431,85 426,80 413,80 413,90 "  />
</g>
<g id="a2_004"  >
<polygon description="&lt;b&gt;CAC17502.1&lt;/b&gt;&lt;br&gt;conserved hypothetical protein&lt;br&gt;Location: 15182 - 17215&lt;br&gt;&lt;br&gt;&lt;b&gt;BlastP hit with cds198086_200171&lt;/b&gt;&lt;br&gt;Percentage identity: 87&lt;br&gt;Percentage coverage: 96&lt;br&gt;BLAST bit score: 1094&lt;br&gt;E-value: 0.0&lt;br&gt;&lt;br&gt;&lt;b&gt;BlastP hit with cds202361_203090&lt;/b&gt;&lt;br&gt;Percentage identity: 50&lt;br&gt;Percentage coverage: 97&lt;br&gt;BLAST bit score: 209&lt;br&gt;E-value: 7e-54" style="stroke:black; fill:#d88a15; stroke-width:1; " locus_tag="CAC17502.1" class="clusterblast-orf" id="dummy-2_h2_1_4" points="431,90 458,90 463,85 458,80 431,80 431,90 "  />
</g>
<g id="a2_005"  >
<polygon description="&lt;b&gt;CAC17503.1&lt;/b&gt;&lt;br&gt;putative cytochrome P450&lt;br&gt;Location: 17224 - 18459&lt;br&gt;&lt;br&gt;&lt;b&gt;BlastP hit with cds200180_201431&lt;/b&gt;&lt;br&gt;Percentage identity: 87&lt;br&gt;Percentage coverage: 96&lt;br&gt;BLAST bit score: 672&lt;br&gt;E-value: 5e-193" style="stroke:black; fill:#15d863; stroke-width:1; " locus_tag="CAC17503.1" class="clusterblast-orf" id="dummy-2_h2_1_5" points="464,90 478,90 483,85 478,80 464,80 464,90 "  />
</g>
<g id="a2_006"  >
<polygon description="&lt;b&gt;CAC17504.1&lt;/b&gt;&lt;br&gt;putative thioesterase&lt;br&gt;Location: 18456 - 19289&lt;br&gt;&lt;br&gt;&lt;b&gt;BlastP hit with cds201427_202267&lt;/b&gt;&lt;br&gt;Percentage identity: 88&lt;br&gt;Percentage coverage: 100&lt;br&gt;BLAST bit score: 505&lt;br&gt;E-value: 7.1e-143" style="stroke:black; fill:#3c15d8; stroke-width:1; " locus_tag="CAC17504.1" class="clusterblast-orf" id="dummy-2_h2_1_6" points="483,90 491,90 496,85 491,80 483,80 483,90 "  />
</g>
<g id="a2_007"  >
<polygon description="&lt;b&gt;CAC17505.1&lt;/b&gt;&lt;br&gt;conserved hypothetical protein&lt;br&gt;Location: 19300 - 20028&lt;br&gt;&lt;br&gt;&lt;b&gt;BlastP hit with cds202361_203090&lt;/b&gt;&lt;br&gt;Percentage identity: 98&lt;br&gt;Percentage coverage: 100&lt;br&gt;BLAST bit score: 472&lt;br&gt;E-value: 3.4e-133" style="stroke:black; fill:#d88a15; stroke-width:1; " locus_tag="CAC17505.1" class="clusterblast-orf" id="dummy-2_h2_1_7" points="497,90 503,90 508,85 503,80 497,80 497,90 "  />
</g>
<g id="a2_008"  >
<polygon description="&lt;b&gt;CAC17506.1&lt;/b&gt;&lt;br&gt;putative ABC transporter ATP-binding protein&lt;br&gt;Location: 20061 - 21887&lt;br&gt;&lt;br&gt;&lt;b&gt;BlastP hit with cds203086_204907&lt;/b&gt;&lt;br&gt;Percentage identity: 90&lt;br&gt;Percentage coverage: 97&lt;br&gt;BLAST bit score: 947&lt;br&gt;E-value: 9e-276" style="stroke:black; fill:#d8158a; stroke-width:1; " locus_tag="CAC17506.1" class="clusterblast-orf" id="dummy-2_h2_1_8" points="509,90 533,90 538,85 533,80 509,80 509,90 "  />
</g>
<g id="a2_009"  >
<polygon description="&lt;b&gt;CAC17507.1&lt;/b&gt;&lt;br&gt;putative ABC transporter ATP-binding protein&lt;br&gt;Location: 21884 - 23647&lt;br&gt;&lt;br&gt;&lt;b&gt;BlastP hit with cds204903_206679&lt;/b&gt;&lt;br&gt;Percentage identity: 89&lt;br&gt;Percentage coverage: 100&lt;br&gt;BLAST bit score: 960&lt;br&gt;E-value: 1.7e-279" style="stroke:black; fill:#b1d815; stroke-width:1; " locus_tag="CAC17507.1" class="clusterblast-orf" id="dummy-2_h2_1_9" points="538,90 561,90 566,85 561,80 538,80 538,90 "  />
</g>
<g id="a2_0010"  >
<polygon description="&lt;b&gt;CAC17508.1&lt;/b&gt;&lt;br&gt;putative lyase&lt;br&gt;Location: 23706 - 25121&lt;br&gt;&lt;br&gt;&lt;b&gt;BlastP hit with cds206737_208150&lt;/b&gt;&lt;br&gt;Percentage identity: 85&lt;br&gt;Percentage coverage: 100&lt;br&gt;BLAST bit score: 762&lt;br&gt;E-value: 5.4e-220" style="stroke:black; fill:#15d8d8; stroke-width:1; " locus_tag="CAC17508.1" class="clusterblast-orf" id="dummy-2_h2_1_10" points="566,90 584,90 589,85 584,80 566,80 566,90 "  />
</g>
</svg>
