<svg preserveAspectRatio="none" version="1.1" xmlns="http://www.w3.org/2000/svg" y="0" height="230" viewBox="0 0 800 230" x="0" width="800" xmlns:xlink="http://www.w3.org/1999/xlink"  >
<g class="clusterblast-cluster" label="Query sequence"  >
<text class="clusterblast-acc" y="20" x="5"  >
Query sequence</text>
<line x2="778.0" y1="35" style="stroke:grey; stroke-width:1; " x1="10" y2="35"  />
<polygon description="&lt;b&gt;cds511563_511971&lt;/b&gt;&lt;br&gt;RidA/YER057c/UK114 superfamily protein&lt;br&gt;Location: 511563 - 511971" style="stroke:black; fill:white; stroke-width:1; " locus_tag="cds511563_511971" class="clusterblast-orf" id="dummy-3_q0_0_all" points="75,35 80,30 88,30 88,40 80,40 75,35 "  />
<polygon description="&lt;b&gt;cds512072_512504&lt;/b&gt;&lt;br&gt;Integral membrane protein&lt;br&gt;Location: 512072 - 512504" style="stroke:black; fill:white; stroke-width:1; " locus_tag="cds512072_512504" class="clusterblast-orf" id="dummy-3_q1_0_all" points="91,35 96,30 104,30 104,40 96,40 91,35 "  />
<polygon description="&lt;b&gt;cds512698_513286&lt;/b&gt;&lt;br&gt;Tellurite resistance protein TerB&lt;br&gt;Location: 512698 - 513286" style="stroke:black; fill:white; stroke-width:1; " locus_tag="cds512698_513286" class="clusterblast-orf" id="dummy-3_q2_0_all" points="110,40 123,40 128,35 123,30 110,30 110,40 "  />
<polygon description="&lt;b&gt;cds513344_514256&lt;/b&gt;&lt;br&gt;putative phosphotransferase&lt;br&gt;Location: 513344 - 514256" style="stroke:black; fill:white; stroke-width:1; " locus_tag="cds513344_514256" class="clusterblast-orf" id="dummy-3_q3_0_all" points="130,40 153,40 158,35 153,30 130,30 130,40 "  />
<polygon description="&lt;b&gt;cds514307_515432&lt;/b&gt;&lt;br&gt;1,2-phenylacetyl-CoA epoxidase, subunit E (EC 1.14.13.149)&lt;br&gt;Location: 514307 - 515432" style="stroke:black; fill:white; stroke-width:1; " locus_tag="cds514307_515432" class="clusterblast-orf" id="dummy-3_q4_0_all" points="160,35 165,30 195,30 195,40 165,40 160,35 "  />
<polygon description="&lt;b&gt;cds515431_515938&lt;/b&gt;&lt;br&gt;1,2-phenylacetyl-CoA epoxidase, subunit D (EC 1.14.13.149)&lt;br&gt;Location: 515431 - 515938" style="stroke:black; fill:#d81515; stroke-width:1; " locus_tag="cds515431_515938" class="clusterblast-orf" id="dummy-3_q5_0_all" points="195,35 200,30 210,30 210,40 200,40 195,35 "  />
<polygon description="&lt;b&gt;cds515931_516759&lt;/b&gt;&lt;br&gt;1,2-phenylacetyl-CoA epoxidase, subunit C (EC 1.14.13.149)&lt;br&gt;Location: 515931 - 516759" style="stroke:black; fill:#3cd815; stroke-width:1; " locus_tag="cds515931_516759" class="clusterblast-orf" id="dummy-3_q6_0_all" points="210,35 215,30 236,30 236,40 215,40 210,35 "  />
<polygon description="&lt;b&gt;cds516770_517070&lt;/b&gt;&lt;br&gt;1,2-phenylacetyl-CoA epoxidase, subunit B (EC 1.14.13.149)&lt;br&gt;Location: 516770 - 517070" style="stroke:black; fill:#1563d8; stroke-width:1; " locus_tag="cds516770_517070" class="clusterblast-orf" id="dummy-3_q7_0_all" points="236,35 241,30 245,30 245,40 241,40 236,35 "  />
<polygon description="&lt;b&gt;cds517066_518050&lt;/b&gt;&lt;br&gt;1,2-phenylacetyl-CoA epoxidase, subunit A (EC 1.14.13.149)&lt;br&gt;Location: 517066 - 518050" style="stroke:black; fill:#b115d8; stroke-width:1; " locus_tag="cds517066_518050" class="clusterblast-orf" id="dummy-3_q8_0_all" points="245,35 250,30 275,30 275,40 250,40 245,35 "  />
<polygon description="&lt;b&gt;cds518221_518671&lt;/b&gt;&lt;br&gt;Acyl-coenzyme A thioesterase PaaD (Pse.pu.) (E. coli PaaI)&lt;br&gt;Location: 518221 - 518671" style="stroke:black; fill:white; stroke-width:1; " locus_tag="cds518221_518671" class="clusterblast-orf" id="dummy-3_q9_0_all" points="281,40 290,40 295,35 290,30 281,30 281,40 "  />
<polygon description="&lt;b&gt;cds518667_520014&lt;/b&gt;&lt;br&gt;Phenylacetate-coenzyme A ligase (EC 6.2.1.30)&lt;br&gt;Location: 518667 - 520014" style="stroke:black; fill:white; stroke-width:1; " locus_tag="cds518667_520014" class="clusterblast-orf" id="dummy-3_q10_0_all" points="295,40 331,40 336,35 331,30 295,30 295,40 "  />
<polygon description="&lt;b&gt;cds520141_521440&lt;/b&gt;&lt;br&gt;Flavin-dependent monooxygenase in a prenylated indole derivative biosynthesis cluster&lt;br&gt;Location: 520141 - 521440" style="stroke:black; fill:white; stroke-width:1; " locus_tag="cds520141_521440" class="clusterblast-orf" id="dummy-3_q11_0_all" points="340,40 375,40 380,35 375,30 340,30 340,40 "  />
<polygon description="&lt;b&gt;cds521542_522664&lt;/b&gt;&lt;br&gt;Indole prenyltransferase (EC 2.5.1.-)&lt;br&gt;Location: 521542 - 522664" style="stroke:black; fill:#d88a15; stroke-width:1; " locus_tag="cds521542_522664" class="clusterblast-orf" id="dummy-3_q12_0_all" points="383,35 388,30 418,30 418,40 388,40 383,35 "  />
<polygon description="&lt;b&gt;cds522871_524221&lt;/b&gt;&lt;br&gt;putative cytochrome P450&lt;br&gt;Location: 522871 - 524221" style="stroke:black; fill:#15d863; stroke-width:1; " locus_tag="cds522871_524221" class="clusterblast-orf" id="dummy-3_q13_0_all" points="424,35 429,30 466,30 466,40 429,40 424,35 "  />
<polygon description="&lt;b&gt;cds524236_524794&lt;/b&gt;&lt;br&gt;Small Ras-like GTPase, component of G-protein-coupled receptor (GPCR) system&lt;br&gt;Location: 524236 - 524794" style="stroke:black; fill:#3c15d8; stroke-width:1; " locus_tag="cds524236_524794" class="clusterblast-orf" id="dummy-3_q14_0_all" points="467,35 472,30 484,30 484,40 472,40 467,35 "  />
<polygon description="&lt;b&gt;cds524804_525182&lt;/b&gt;&lt;br&gt;DUF742 protein, component of G-protein-coupled receptor (GPCR) system&lt;br&gt;Location: 524804 - 525182" style="stroke:black; fill:white; stroke-width:1; " locus_tag="cds524804_525182" class="clusterblast-orf" id="dummy-3_q15_0_all" points="484,35 489,30 496,30 496,40 489,40 484,35 "  />
<polygon description="&lt;b&gt;cds525178_525580&lt;/b&gt;&lt;br&gt;Roadblock/LC7 protein, putative GTPase-activating (GAP) component of G-protein-coupled receptor (GPCR) system&lt;br&gt;Location: 525178 - 525580" style="stroke:black; fill:#d8158a; stroke-width:1; " locus_tag="cds525178_525580" class="clusterblast-orf" id="dummy-3_q16_0_all" points="496,35 501,30 508,30 508,40 501,40 496,35 "  />
<polygon description="&lt;b&gt;cds525576_526749&lt;/b&gt;&lt;br&gt;Putative sensor and ATPase, component of G-protein-coupled receptor (GPCR) system&lt;br&gt;Location: 525576 - 526749" style="stroke:black; fill:#b1d815; stroke-width:1; " locus_tag="cds525576_526749" class="clusterblast-orf" id="dummy-3_q17_0_all" points="508,35 513,30 544,30 544,40 513,40 508,35 "  />
<polygon description="&lt;b&gt;cds526828_527071&lt;/b&gt;&lt;br&gt;hypothetical protein&lt;br&gt;Location: 526828 - 527071" style="stroke:black; fill:white; stroke-width:1; " locus_tag="cds526828_527071" class="clusterblast-orf" id="dummy-3_q18_0_all" points="547,40 549,40 554,35 549,30 547,30 547,40 "  />
<polygon description="&lt;b&gt;cds527067_527835&lt;/b&gt;&lt;br&gt;Uncharacterized UPF0721 integral membrane protein&lt;br&gt;Location: 527067 - 527835" style="stroke:black; fill:white; stroke-width:1; " locus_tag="cds527067_527835" class="clusterblast-orf" id="dummy-3_q19_0_all" points="554,40 573,40 578,35 573,30 554,30 554,40 "  />
<polygon description="&lt;b&gt;cds528045_528843&lt;/b&gt;&lt;br&gt;Trypsin-like protease&lt;br&gt;Location: 528045 - 528843" style="stroke:black; fill:white; stroke-width:1; " locus_tag="cds528045_528843" class="clusterblast-orf" id="dummy-3_q20_0_all" points="584,40 604,40 609,35 604,30 584,30 584,40 "  />
<polygon description="&lt;b&gt;cds528960_529791&lt;/b&gt;&lt;br&gt;ABC transporter, ATP-binding protein&lt;br&gt;Location: 528960 - 529791" style="stroke:black; fill:white; stroke-width:1; " locus_tag="cds528960_529791" class="clusterblast-orf" id="dummy-3_q21_0_all" points="612,40 633,40 638,35 633,30 612,30 612,40 "  />
<polygon description="&lt;b&gt;cds529999_530293&lt;/b&gt;&lt;br&gt;putative membrane protein&lt;br&gt;Location: 529999 - 530293" style="stroke:black; fill:#15d8d8; stroke-width:1; " locus_tag="cds529999_530293" class="clusterblast-orf" id="dummy-3_q22_0_all" points="645,35 650,30 654,30 654,40 650,40 645,35 "  />
<polygon description="&lt;b&gt;cds530468_531938&lt;/b&gt;&lt;br&gt;Sialic acid transporter (permease) NanT&lt;br&gt;Location: 530468 - 531938" style="stroke:black; fill:white; stroke-width:1; " locus_tag="cds530468_531938" class="clusterblast-orf" id="dummy-3_q23_0_all" points="659,35 664,30 704,30 704,40 664,40 659,35 "  />
</g>
<g description="BGC0001483_c1: 5-isoprenylindole-3-carboxylate β-D-glycosyl ester (33% of genes show similarity), Other" class="clusterblast-cluster" label="BGC0001483"  >
<text class="clusterblast-acc" y="70" x="5"  >
<a xlink:href="https://mibig.secondarymetabolites.org/go/BGC0001483/1" target="_blank">BGC0001483</a>:                               5-isoprenylindole-3-carboxylate β-D-glycosyl ester (33% of genes show similarity), Other</text>
<line x2="778.0" y1="85" style="stroke:grey; stroke-width:1; " x1="10" y2="85"  />
</g>
<g id="a3_000"  >
<polygon description="&lt;b&gt;ANA09437.1&lt;/b&gt;&lt;br&gt;hypothetical protein&lt;br&gt;Location: 25255 - 23678" style="stroke:black; fill:white; stroke-width:1; " locus_tag="ANA09437.1" class="clusterblast-orf" id="dummy-3_h3_1_0" points="0,90 43,90 48,85 43,80 0,80 0,90 "  />
</g>
<g id="a3_001"  >
<polygon description="&lt;b&gt;ANA09436.1&lt;/b&gt;&lt;br&gt;hypothetical protein&lt;br&gt;Location: 23518 - 22901" style="stroke:black; fill:white; stroke-width:1; " locus_tag="ANA09436.1" class="clusterblast-orf" id="dummy-3_h3_1_1" points="53,90 67,90 72,85 67,80 53,80 53,90 "  />
</g>
<g id="a3_002"  >
<polygon description="&lt;b&gt;ANA09435.1&lt;/b&gt;&lt;br&gt;hypothetical protein&lt;br&gt;Location: 22886 - 21870" style="stroke:black; fill:white; stroke-width:1; " locus_tag="ANA09435.1" class="clusterblast-orf" id="dummy-3_h3_1_2" points="73,90 99,90 104,85 99,80 73,80 73,90 "  />
</g>
<g id="a3_003"  >
<polygon description="&lt;b&gt;ANA09429.1&lt;/b&gt;&lt;br&gt;hypothetical protein&lt;br&gt;Location: 21741 - 21322" style="stroke:black; fill:white; stroke-width:1; " locus_tag="ANA09429.1" class="clusterblast-orf" id="dummy-3_h3_1_3" points="108,90 116,90 121,85 116,80 108,80 108,90 "  />
</g>
<g id="a3_004"  >
<polygon description="&lt;b&gt;ANA09443.1&lt;/b&gt;&lt;br&gt;PriA&lt;br&gt;Location: 21048 - 19675" style="stroke:black; fill:white; stroke-width:1; " locus_tag="ANA09443.1" class="clusterblast-orf" id="dummy-3_h3_1_4" points="129,85 134,80 172,80 172,90 134,90 129,85 "  />
</g>
<g id="a3_005"  >
<polygon description="&lt;b&gt;ANA09444.1&lt;/b&gt;&lt;br&gt;PriB&lt;br&gt;Location: 19626 - 18469&lt;br&gt;&lt;br&gt;&lt;b&gt;BlastP hit with cds521542_522664&lt;/b&gt;&lt;br&gt;Percentage identity: 65&lt;br&gt;Percentage coverage: 97&lt;br&gt;BLAST bit score: 445&lt;br&gt;E-value: 6.8e-125" style="stroke:black; fill:#d88a15; stroke-width:1; " locus_tag="ANA09444.1" class="clusterblast-orf" id="dummy-3_h3_1_5" points="173,85 178,80 209,80 209,90 178,90 173,85 "  />
</g>
<g id="a3_006"  >
<polygon description="&lt;b&gt;ANA09445.1&lt;/b&gt;&lt;br&gt;PriC&lt;br&gt;Location: 18130 - 16784&lt;br&gt;&lt;br&gt;&lt;b&gt;BlastP hit with cds522871_524221&lt;/b&gt;&lt;br&gt;Percentage identity: 69&lt;br&gt;Percentage coverage: 99&lt;br&gt;BLAST bit score: 634&lt;br&gt;E-value: 9.5e-182" style="stroke:black; fill:#15d863; stroke-width:1; " locus_tag="ANA09445.1" class="clusterblast-orf" id="dummy-3_h3_1_6" points="220,85 225,80 261,80 261,90 225,90 220,85 "  />
</g>
<g id="a3_007"  >
<polygon description="&lt;b&gt;ANA09438.1&lt;/b&gt;&lt;br&gt;hypothetical protein&lt;br&gt;Location: 16774 - 16157&lt;br&gt;&lt;br&gt;&lt;b&gt;BlastP hit with cds524236_524794&lt;/b&gt;&lt;br&gt;Percentage identity: 78&lt;br&gt;Percentage coverage: 98&lt;br&gt;BLAST bit score: 282&lt;br&gt;E-value: 6.5e-76" style="stroke:black; fill:#3c15d8; stroke-width:1; " locus_tag="ANA09438.1" class="clusterblast-orf" id="dummy-3_h3_1_7" points="261,85 266,80 281,80 281,90 266,90 261,85 "  />
</g>
<g id="a3_008"  >
<polygon description="&lt;b&gt;ANA09439.1&lt;/b&gt;&lt;br&gt;hypothetical protein&lt;br&gt;Location: 15841 - 15461&lt;br&gt;&lt;br&gt;&lt;b&gt;BlastP hit with cds525178_525580&lt;/b&gt;&lt;br&gt;Percentage identity: 80&lt;br&gt;Percentage coverage: 92&lt;br&gt;BLAST bit score: 203&lt;br&gt;E-value: 1.6e-52" style="stroke:black; fill:#d8158a; stroke-width:1; " locus_tag="ANA09439.1" class="clusterblast-orf" id="dummy-3_h3_1_8" points="290,85 295,80 302,80 302,90 295,90 290,85 "  />
</g>
<g id="a3_009"  >
<polygon description="&lt;b&gt;ANA09440.1&lt;/b&gt;&lt;br&gt;hypothetical protein&lt;br&gt;Location: 15443 - 14313&lt;br&gt;&lt;br&gt;&lt;b&gt;BlastP hit with cds525576_526749&lt;/b&gt;&lt;br&gt;Percentage identity: 56&lt;br&gt;Percentage coverage: 98&lt;br&gt;BLAST bit score: 361&lt;br&gt;E-value: 1.4e-99" style="stroke:black; fill:#b1d815; stroke-width:1; " locus_tag="ANA09440.1" class="clusterblast-orf" id="dummy-3_h3_1_9" points="303,85 308,80 337,80 337,90 308,90 303,85 "  />
</g>
<g id="a3_0010"  >
<polygon description="&lt;b&gt;ANA09441.1&lt;/b&gt;&lt;br&gt;hypothetical protein&lt;br&gt;Location: 13981 - 13760" style="stroke:black; fill:white; stroke-width:1; " locus_tag="ANA09441.1" class="clusterblast-orf" id="dummy-3_h3_1_10" points="348,85 353,80 355,80 355,90 353,90 348,85 "  />
</g>
<g id="a3_0011"  >
<polygon description="&lt;b&gt;ANA09446.1&lt;/b&gt;&lt;br&gt;PriD&lt;br&gt;Location: 13665 - 12289" style="stroke:black; fill:white; stroke-width:1; " locus_tag="ANA09446.1" class="clusterblast-orf" id="dummy-3_h3_1_11" points="357,90 395,90 400,85 395,80 357,80 357,90 "  />
</g>
<g id="a3_0012"  >
<polygon description="&lt;b&gt;ANA09447.1&lt;/b&gt;&lt;br&gt;PriE&lt;br&gt;Location: 12205 - 11108&lt;br&gt;&lt;br&gt;&lt;b&gt;BlastP hit with cds529999_530293&lt;/b&gt;&lt;br&gt;Percentage identity: 48&lt;br&gt;Percentage coverage: 95&lt;br&gt;BLAST bit score: 81&lt;br&gt;E-value: 6.7e-16" style="stroke:black; fill:#15d8d8; stroke-width:1; " locus_tag="ANA09447.1" class="clusterblast-orf" id="dummy-3_h3_1_12" points="403,90 431,90 436,85 431,80 403,80 403,90 "  />
</g>
<g id="a3_0013"  >
<polygon description="&lt;b&gt;ANA09448.1&lt;/b&gt;&lt;br&gt;PriF&lt;br&gt;Location: 10696 - 9962&lt;br&gt;&lt;br&gt;&lt;b&gt;BlastP hit with cds529999_530293&lt;/b&gt;&lt;br&gt;Percentage identity: 54&lt;br&gt;Percentage coverage: 93&lt;br&gt;BLAST bit score: 99&lt;br&gt;E-value: 2.4e-21" style="stroke:black; fill:#15d8d8; stroke-width:1; " locus_tag="ANA09448.1" class="clusterblast-orf" id="dummy-3_h3_1_13" points="449,90 467,90 472,85 467,80 449,80 449,90 "  />
</g>
<g id="a3_0014"  >
<polygon description="&lt;b&gt;ANA09449.1&lt;/b&gt;&lt;br&gt;PriG&lt;br&gt;Location: 9475 - 8159" style="stroke:black; fill:white; stroke-width:1; " locus_tag="ANA09449.1" class="clusterblast-orf" id="dummy-3_h3_1_14" points="487,90 523,90 528,85 523,80 487,80 487,90 "  />
</g>
<g id="a3_0015"  >
<polygon description="&lt;b&gt;ANA09442.1&lt;/b&gt;&lt;br&gt;hypothetical protein&lt;br&gt;Location: 8012 - 7533" style="stroke:black; fill:white; stroke-width:1; " locus_tag="ANA09442.1" class="clusterblast-orf" id="dummy-3_h3_1_15" points="532,90 542,90 547,85 542,80 532,80 532,90 "  />
</g>
<g id="a3_0016"  >
<polygon description="&lt;b&gt;ANA09430.1&lt;/b&gt;&lt;br&gt;hypothetical protein&lt;br&gt;Location: 7463 - 6858" style="stroke:black; fill:white; stroke-width:1; " locus_tag="ANA09430.1" class="clusterblast-orf" id="dummy-3_h3_1_16" points="549,90 563,90 568,85 563,80 549,80 549,90 "  />
</g>
<g id="a3_0017"  >
<polygon description="&lt;b&gt;ANA09431.1&lt;/b&gt;&lt;br&gt;hypothetical protein&lt;br&gt;Location: 6843 - 5902" style="stroke:black; fill:white; stroke-width:1; " locus_tag="ANA09431.1" class="clusterblast-orf" id="dummy-3_h3_1_17" points="568,90 592,90 597,85 592,80 568,80 568,90 "  />
</g>
<g id="a3_0018"  >
<polygon description="&lt;b&gt;ANA09432.1&lt;/b&gt;&lt;br&gt;hypothetical protein&lt;br&gt;Location: 5524 - 4139" style="stroke:black; fill:white; stroke-width:1; " locus_tag="ANA09432.1" class="clusterblast-orf" id="dummy-3_h3_1_18" points="609,90 647,90 652,85 647,80 609,80 609,90 "  />
</g>
<g id="a3_0019"  >
<polygon description="&lt;b&gt;ANA09433.1&lt;/b&gt;&lt;br&gt;hypothetical protein&lt;br&gt;Location: 3976 - 2627" style="stroke:black; fill:white; stroke-width:1; " locus_tag="ANA09433.1" class="clusterblast-orf" id="dummy-3_h3_1_19" points="657,90 693,90 698,85 693,80 657,80 657,90 "  />
</g>
<g id="a3_0020"  >
<polygon description="&lt;b&gt;ANA09434.1&lt;/b&gt;&lt;br&gt;hypothetical protein&lt;br&gt;Location: 2544 - 1" style="stroke:black; fill:white; stroke-width:1; " locus_tag="ANA09434.1" class="clusterblast-orf" id="dummy-3_h3_1_20" points="701,85 706,80 780,80 780,90 706,90 701,85 "  />
</g>
</svg>
