<svg preserveAspectRatio="none" height="230" version="1.1" xmlns:xlink="http://www.w3.org/1999/xlink" width="800" viewBox="0 0 800 230" y="0" x="0" xmlns="http://www.w3.org/2000/svg"  >
<g class="clusterblast-cluster" label="Query sequence"  >
<text class="clusterblast-acc" y="20" x="5"  >
Query sequence</text>
<line x2="778.0" y1="35" style="stroke:grey; stroke-width:1; " x1="10" y2="35"  />
<polygon locus_tag="cds11114_11582" description="&lt;b&gt;cds11114_11582&lt;/b&gt;&lt;br&gt;Transcriptional regulator ArgP, LysR family&lt;br&gt;Location: 11114 - 11582" style="stroke:black; fill:#d81515; stroke-width:1; " id="dummy-1_q0_0_all" points="0,35 5,30 35,30 35,40 5,40 0,35 " class="clusterblast-orf"  />
<polygon locus_tag="cds11658_12087" description="&lt;b&gt;cds11658_12087&lt;/b&gt;&lt;br&gt;hypothetical protein&lt;br&gt;Location: 11658 - 12087" style="stroke:black; fill:white; stroke-width:1; " id="dummy-1_q1_0_all" points="41,40 68,40 73,35 68,30 41,30 41,40 " class="clusterblast-orf"  />
<polygon locus_tag="cds12125_12614" description="&lt;b&gt;cds12125_12614&lt;/b&gt;&lt;br&gt;Arginine exporter protein ArgO&lt;br&gt;Location: 12125 - 12614" style="stroke:black; fill:#15d815; stroke-width:1; " id="dummy-1_q2_0_all" points="76,40 108,40 113,35 108,30 76,30 76,40 " class="clusterblast-orf"  />
<polygon locus_tag="cds12610_12739" description="&lt;b&gt;cds12610_12739&lt;/b&gt;&lt;br&gt;Arginine exporter protein ArgO&lt;br&gt;Location: 12610 - 12739" style="stroke:black; fill:#15d815; stroke-width:1; " id="dummy-1_q3_0_all" points="112,40 117,40 122,35 117,30 112,30 112,40 " class="clusterblast-orf"  />
<polygon locus_tag="cds12789_13113" description="&lt;b&gt;cds12789_13113&lt;/b&gt;&lt;br&gt;Zinc-type alcohol dehydrogenase-like protein&lt;br&gt;Location: 12789 - 13113" style="stroke:black; fill:#1597d8; stroke-width:1; " id="dummy-1_q4_0_all" points="126,35 131,30 150,30 150,40 131,40 126,35 " class="clusterblast-orf"  />
<polygon locus_tag="cds13116_13500" description="&lt;b&gt;cds13116_13500&lt;/b&gt;&lt;br&gt;Zinc-type alcohol dehydrogenase-like protein&lt;br&gt;Location: 13116 - 13500" style="stroke:black; fill:#1597d8; stroke-width:1; " id="dummy-1_q5_0_all" points="150,35 155,30 179,30 179,40 155,40 150,35 " class="clusterblast-orf"  />
<polygon locus_tag="cds13496_13739" description="&lt;b&gt;cds13496_13739&lt;/b&gt;&lt;br&gt;Zinc-type alcohol dehydrogenase-like protein&lt;br&gt;Location: 13496 - 13739" style="stroke:black; fill:#1597d8; stroke-width:1; " id="dummy-1_q6_0_all" points="179,35 184,30 197,30 197,40 184,40 179,35 " class="clusterblast-orf"  />
<polygon locus_tag="cds13906_14122" description="&lt;b&gt;cds13906_14122&lt;/b&gt;&lt;br&gt;hypothetical protein&lt;br&gt;Location: 13906 - 14122" style="stroke:black; fill:white; stroke-width:1; " id="dummy-1_q7_0_all" points="209,35 214,30 226,30 226,40 214,40 209,35 " class="clusterblast-orf"  />
<polygon locus_tag="cds14243_15575" description="&lt;b&gt;cds14243_15575&lt;/b&gt;&lt;br&gt;Transcriptional regulator, AcrR family&lt;br&gt;Location: 14243 - 15575" style="stroke:black; fill:#9715d8; stroke-width:1; " id="dummy-1_q8_0_all" points="235,35 240,30 334,30 334,40 240,40 235,35 " class="clusterblast-orf"  />
<polygon locus_tag="cds15656_16541" description="&lt;b&gt;cds15656_16541&lt;/b&gt;&lt;br&gt;A-factor biosynthesis protein AfsA&lt;br&gt;Location: 15656 - 16541" style="stroke:black; fill:#d89715; stroke-width:1; " id="dummy-1_q9_0_all" points="340,40 402,40 407,35 402,30 340,30 340,40 " class="clusterblast-orf"  />
<polygon locus_tag="cds16554_16758" description="&lt;b&gt;cds16554_16758&lt;/b&gt;&lt;br&gt;hypothetical protein&lt;br&gt;Location: 16554 - 16758" style="stroke:black; fill:#15d897; stroke-width:1; " id="dummy-1_q10_0_all" points="408,40 418,40 423,35 418,30 408,30 408,40 " class="clusterblast-orf"  />
<polygon locus_tag="cds16754_17402" description="&lt;b&gt;cds16754_17402&lt;/b&gt;&lt;br&gt;hypothetical protein&lt;br&gt;Location: 16754 - 17402" style="stroke:black; fill:#15d897; stroke-width:1; " id="dummy-1_q11_0_all" points="423,40 466,40 471,35 466,30 423,30 423,40 " class="clusterblast-orf"  />
<polygon locus_tag="cds17526_18228" description="&lt;b&gt;cds17526_18228&lt;/b&gt;&lt;br&gt;hypothetical protein&lt;br&gt;Location: 17526 - 18228" style="stroke:black; fill:#1515d8; stroke-width:1; " id="dummy-1_q12_0_all" points="480,40 528,40 533,35 528,30 480,30 480,40 " class="clusterblast-orf"  />
<polygon locus_tag="cds18267_18624" description="&lt;b&gt;cds18267_18624&lt;/b&gt;&lt;br&gt;DNA-binding protein&lt;br&gt;Location: 18267 - 18624" style="stroke:black; fill:#d81597; stroke-width:1; " id="dummy-1_q13_0_all" points="536,35 541,30 563,30 563,40 541,40 536,35 " class="clusterblast-orf"  />
<polygon locus_tag="cds18646_19204" description="&lt;b&gt;cds18646_19204&lt;/b&gt;&lt;br&gt;Putative DNA-binding protein&lt;br&gt;Location: 18646 - 19204" style="stroke:black; fill:#d81597; stroke-width:1; " id="dummy-1_q14_0_all" points="564,35 569,30 606,30 606,40 569,40 564,35 " class="clusterblast-orf"  />
<polygon locus_tag="cds19357_20266" description="&lt;b&gt;cds19357_20266&lt;/b&gt;&lt;br&gt;Cinnamyl alcohol dehydrogenase/reductase (EC 1.1.1.195) @ Alcohol dehydrogenase (EC 1.1.1.1)&lt;br&gt;Location: 19357 - 20266" style="stroke:black; fill:#97d815; stroke-width:1; " id="dummy-1_q15_0_all" points="618,40 681,40 686,35 681,30 618,30 618,40 " class="clusterblast-orf"  />
<polygon locus_tag="cds20276_20396" description="&lt;b&gt;cds20276_20396&lt;/b&gt;&lt;br&gt;Alcohol dehydrogenase (EC 1.1.1.1)&lt;br&gt;Location: 20276 - 20396" style="stroke:black; fill:#97d815; stroke-width:1; " id="dummy-1_q16_0_all" points="686,40 690,40 695,35 690,30 686,30 686,40 " class="clusterblast-orf"  />
<polygon locus_tag="cds20362_20608" description="&lt;b&gt;cds20362_20608&lt;/b&gt;&lt;br&gt;hypothetical protein&lt;br&gt;Location: 20362 - 20608" style="stroke:black; fill:white; stroke-width:1; " id="dummy-1_q17_0_all" points="693,35 698,30 711,30 711,40 698,40 693,35 " class="clusterblast-orf"  />
<polygon locus_tag="cds20641_21529" description="&lt;b&gt;cds20641_21529&lt;/b&gt;&lt;br&gt;hypothetical protein&lt;br&gt;Location: 20641 - 21529" style="stroke:black; fill:white; stroke-width:1; " id="dummy-1_q18_0_all" points="714,40 775,40 780,35 775,30 714,30 714,40 " class="clusterblast-orf"  />
</g>
<g class="clusterblast-cluster" description="NZ_CP010833 (7817446-7828391): Streptomyces sp. Tue 6075 strain Tue6075 chrom... (90% of genes show similarity), butyrolactone" label="NZ_CP010833"  >
<text class="clusterblast-acc" y="70" x="5"  >
<a xlink:href="https://antismash-db.secondarymetabolites.org/area.html?record=NZ_CP010833&amp;start=7817446&amp;end=7828391" target="_blank">NZ_CP010833 (7817446-7828391)</a>: Streptomyces sp. Tue 6075 strain Tue6075 chrom... (90% of genes show similarity), butyrolactone</text>
<line x2="778.0" y1="85" style="stroke:grey; stroke-width:1; " x1="10" y2="85"  />
</g>
<g id="a1_000"  >
<polygon locus_tag="TK78_RS34375" description="&lt;b&gt;TK78_RS34375&lt;/b&gt;&lt;br&gt;LysR family transcriptional regulator ArgP&lt;br&gt;Location: 7817967 - 7818908&lt;br&gt;&lt;br&gt;&lt;b&gt;BlastP hit with cds11114_11582&lt;/b&gt;&lt;br&gt;Percentage identity: 88&lt;br&gt;Percentage coverage: 98&lt;br&gt;BLAST bit score: 270&lt;br&gt;E-value: 9.6e-71" style="stroke:black; fill:#d81515; stroke-width:1; " id="dummy-1_h1_8_0" points="42,85 47,80 113,80 113,90 47,90 42,85 " class="clusterblast-orf"  />
</g>
<g id="a1_001"  >
<polygon locus_tag="TK78_RS34380" description="&lt;b&gt;TK78_RS34380&lt;/b&gt;&lt;br&gt;amino acid transporter&lt;br&gt;Location: 7818976 - 7819587&lt;br&gt;&lt;br&gt;&lt;b&gt;BlastP hit with cds12125_12614&lt;/b&gt;&lt;br&gt;Percentage identity: 97&lt;br&gt;Percentage coverage: 41&lt;br&gt;BLAST bit score: 115&lt;br&gt;E-value: 5.4e-24&lt;br&gt;&lt;br&gt;&lt;b&gt;BlastP hit with cds12610_12739&lt;/b&gt;&lt;br&gt;Percentage identity: 95&lt;br&gt;Percentage coverage: 100&lt;br&gt;BLAST bit score: 77&lt;br&gt;E-value: 2.5e-13" style="stroke:black; fill:#15d815; stroke-width:1; " id="dummy-1_h1_8_1" points="118,90 159,90 164,85 159,80 118,80 118,90 " class="clusterblast-orf"  />
</g>
<g id="a1_002"  >
<polygon locus_tag="TK78_RS34385" description="&lt;b&gt;TK78_RS34385&lt;/b&gt;&lt;br&gt;NADP-dependent oxidoreductase&lt;br&gt;Location: 7819638 - 7820570&lt;br&gt;&lt;br&gt;&lt;b&gt;BlastP hit with cds12789_13113&lt;/b&gt;&lt;br&gt;Percentage identity: 96&lt;br&gt;Percentage coverage: 91&lt;br&gt;BLAST bit score: 178&lt;br&gt;E-value: 4.5e-43&lt;br&gt;&lt;br&gt;&lt;b&gt;BlastP hit with cds13116_13500&lt;/b&gt;&lt;br&gt;Percentage identity: 99&lt;br&gt;Percentage coverage: 63&lt;br&gt;BLAST bit score: 160&lt;br&gt;E-value: 8.8e-38&lt;br&gt;&lt;br&gt;&lt;b&gt;BlastP hit with cds13496_13739&lt;/b&gt;&lt;br&gt;Percentage identity: 99&lt;br&gt;Percentage coverage: 92&lt;br&gt;BLAST bit score: 153&lt;br&gt;E-value: 8.8e-36" style="stroke:black; fill:#1597d8; stroke-width:1; " id="dummy-1_h1_8_2" points="167,85 172,80 237,80 237,90 172,90 167,85 " class="clusterblast-orf"  />
</g>
<g id="a1_003"  >
<polygon locus_tag="TK78_RS34390" description="&lt;b&gt;TK78_RS34390&lt;/b&gt;&lt;br&gt;helix-turn-helix domain-containing protein&lt;br&gt;Location: 7820658 - 7821623" style="stroke:black; fill:white; stroke-width:1; " id="dummy-1_h1_8_3" points="244,90 311,90 316,85 311,80 244,80 244,90 " class="clusterblast-orf"  />
</g>
<g id="a1_004"  >
<polygon locus_tag="TK78_RS34395" description="&lt;b&gt;TK78_RS34395&lt;/b&gt;&lt;br&gt;TetR/AcrR family transcriptional regulator&lt;br&gt;Location: 7821648 - 7822286&lt;br&gt;&lt;br&gt;&lt;b&gt;BlastP hit with cds14243_15575&lt;/b&gt;&lt;br&gt;Percentage identity: 99&lt;br&gt;Percentage coverage: 46&lt;br&gt;BLAST bit score: 385&lt;br&gt;E-value: 7.6e-105" style="stroke:black; fill:#9715d8; stroke-width:1; " id="dummy-1_h1_8_4" points="318,85 323,80 366,80 366,90 323,90 318,85 " class="clusterblast-orf"  />
</g>
<g id="a1_005"  >
<polygon locus_tag="TK78_RS34400" description="&lt;b&gt;TK78_RS34400&lt;/b&gt;&lt;br&gt;adhesin&lt;br&gt;Location: 7822447 - 7823391&lt;br&gt;&lt;br&gt;&lt;b&gt;BlastP hit with cds15656_16541&lt;/b&gt;&lt;br&gt;Percentage identity: 95&lt;br&gt;Percentage coverage: 100&lt;br&gt;BLAST bit score: 594&lt;br&gt;E-value: 5.5e-168" style="stroke:black; fill:#d89715; stroke-width:1; " id="dummy-1_h1_8_5" points="378,90 443,90 448,85 443,80 378,80 378,90 " class="clusterblast-orf"  />
</g>
<g id="a1_006"  >
<polygon locus_tag="TK78_RS34405" description="&lt;b&gt;TK78_RS34405&lt;/b&gt;&lt;br&gt;NmrA family NAD(P)-binding protein&lt;br&gt;Location: 7823405 - 7824253&lt;br&gt;&lt;br&gt;&lt;b&gt;BlastP hit with cds16554_16758&lt;/b&gt;&lt;br&gt;Percentage identity: 98&lt;br&gt;Percentage coverage: 90&lt;br&gt;BLAST bit score: 112&lt;br&gt;E-value: 1.4e-23&lt;br&gt;&lt;br&gt;&lt;b&gt;BlastP hit with cds16754_17402&lt;/b&gt;&lt;br&gt;Percentage identity: 94&lt;br&gt;Percentage coverage: 100&lt;br&gt;BLAST bit score: 393&lt;br&gt;E-value: 1.4e-107" style="stroke:black; fill:#15d897; stroke-width:1; " id="dummy-1_h1_8_6" points="450,90 508,90 513,85 508,80 450,80 450,90 " class="clusterblast-orf"  />
</g>
<g id="a1_007"  >
<polygon locus_tag="TK78_RS34410" description="&lt;b&gt;TK78_RS34410&lt;/b&gt;&lt;br&gt;TetR family transcriptional regulator&lt;br&gt;Location: 7824378 - 7825067&lt;br&gt;&lt;br&gt;&lt;b&gt;BlastP hit with cds17526_18228&lt;/b&gt;&lt;br&gt;Percentage identity: 97&lt;br&gt;Percentage coverage: 15&lt;br&gt;BLAST bit score: 65&lt;br&gt;E-value: 7e-09" style="stroke:black; fill:#1515d8; stroke-width:1; " id="dummy-1_h1_8_7" points="522,90 569,90 574,85 569,80 522,80 522,90 " class="clusterblast-orf"  />
</g>
<g id="a1_008"  >
<polygon locus_tag="TK78_RS34415" description="&lt;b&gt;TK78_RS34415&lt;/b&gt;&lt;br&gt;helix-turn-helix transcriptional regulator&lt;br&gt;Location: 7825107 - 7826036&lt;br&gt;&lt;br&gt;&lt;b&gt;BlastP hit with cds18267_18624&lt;/b&gt;&lt;br&gt;Percentage identity: 97&lt;br&gt;Percentage coverage: 100&lt;br&gt;BLAST bit score: 232&lt;br&gt;E-value: 1.7e-59&lt;br&gt;&lt;br&gt;&lt;b&gt;BlastP hit with cds18646_19204&lt;/b&gt;&lt;br&gt;Percentage identity: 97&lt;br&gt;Percentage coverage: 95&lt;br&gt;BLAST bit score: 336&lt;br&gt;E-value: 1.3e-90" style="stroke:black; fill:#d81597; stroke-width:1; " id="dummy-1_h1_8_8" points="577,85 582,80 647,80 647,90 582,90 577,85 " class="clusterblast-orf"  />
</g>
<g id="a1_009"  >
<polygon locus_tag="TK78_RS34420" description="&lt;b&gt;TK78_RS34420&lt;/b&gt;&lt;br&gt;NAD(P)-dependent alcohol dehydrogenase&lt;br&gt;Location: 7826199 - 7827239&lt;br&gt;&lt;br&gt;&lt;b&gt;BlastP hit with cds19357_20266&lt;/b&gt;&lt;br&gt;Percentage identity: 99&lt;br&gt;Percentage coverage: 98&lt;br&gt;BLAST bit score: 588&lt;br&gt;E-value: 4.1e-166&lt;br&gt;&lt;br&gt;&lt;b&gt;BlastP hit with cds20276_20396&lt;/b&gt;&lt;br&gt;Percentage identity: 97&lt;br&gt;Percentage coverage: 100&lt;br&gt;BLAST bit score: 76&lt;br&gt;E-value: 5.1e-13" style="stroke:black; fill:#97d815; stroke-width:1; " id="dummy-1_h1_8_9" points="659,90 732,90 737,85 732,80 659,80 659,90 " class="clusterblast-orf"  />
</g>
</svg>
