<svg preserveAspectRatio="none" height="230" version="1.1" xmlns:xlink="http://www.w3.org/1999/xlink" width="800" viewBox="0 0 800 230" y="0" x="0" xmlns="http://www.w3.org/2000/svg"  >
<g class="clusterblast-cluster" label="Query sequence"  >
<text class="clusterblast-acc" y="20" x="5"  >
Query sequence</text>
<line x2="778.0" y1="35" style="stroke:grey; stroke-width:1; " x1="10" y2="35"  />
<polygon locus_tag="cds119025_119442" description="&lt;b&gt;cds119025_119442&lt;/b&gt;&lt;br&gt;hypothetical protein&lt;br&gt;Location: 119025 - 119442" style="stroke:black; fill:#d81515; stroke-width:1; " id="dummy-1_q0_0_all" points="344,35 348,30 348,40 344,35 " class="clusterblast-orf"  />
<polygon locus_tag="cds119589_119958" description="&lt;b&gt;cds119589_119958&lt;/b&gt;&lt;br&gt;hypothetical protein&lt;br&gt;Location: 119589 - 119958" style="stroke:black; fill:#d81515; stroke-width:1; " id="dummy-1_q1_0_all" points="349,35 352,30 352,40 349,35 " class="clusterblast-orf"  />
<polygon locus_tag="cds120332_120821" description="&lt;b&gt;cds120332_120821&lt;/b&gt;&lt;br&gt;hypothetical protein&lt;br&gt;Location: 120332 - 120821" style="stroke:black; fill:#15d815; stroke-width:1; " id="dummy-1_q2_0_all" points="356,40 360,35 356,30 356,40 " class="clusterblast-orf"  />
<polygon locus_tag="cds120936_122568" description="&lt;b&gt;cds120936_122568&lt;/b&gt;&lt;br&gt;6-phosphogluconate dehydrogenase, decarboxylating (EC 1.1.1.44)&lt;br&gt;Location: 120936 - 122568" style="stroke:black; fill:#1597d8; stroke-width:1; " id="dummy-1_q3_0_all" points="361,40 370,40 375,35 370,30 361,30 361,40 " class="clusterblast-orf"  />
<polygon locus_tag="cds122662_123763" description="&lt;b&gt;cds122662_123763&lt;/b&gt;&lt;br&gt;Predicted dye-decolorizing peroxidase (DyP), encapsulated subgroup&lt;br&gt;Location: 122662 - 123763" style="stroke:black; fill:#9715d8; stroke-width:1; " id="dummy-1_q4_0_all" points="376,40 380,40 385,35 380,30 376,30 376,40 " class="clusterblast-orf"  />
<polygon locus_tag="cds123759_124236" description="&lt;b&gt;cds123759_124236&lt;/b&gt;&lt;br&gt;Encapsulating protein for a DyP-type peroxidase or ferritin-like protein oligomers&lt;br&gt;Location: 123759 - 124236" style="stroke:black; fill:#d89715; stroke-width:1; " id="dummy-1_q5_0_all" points="385,40 389,35 385,30 385,40 " class="clusterblast-orf"  />
<polygon locus_tag="cds124214_124625" description="&lt;b&gt;cds124214_124625&lt;/b&gt;&lt;br&gt;Encapsulating protein for a DyP-type peroxidase or ferritin-like protein oligomers&lt;br&gt;Location: 124214 - 124625" style="stroke:black; fill:#d89715; stroke-width:1; " id="dummy-1_q6_0_all" points="389,40 393,35 389,30 389,40 " class="clusterblast-orf"  />
<polygon locus_tag="cds124621_125623" description="&lt;b&gt;cds124621_125623&lt;/b&gt;&lt;br&gt;Orn/DAP/Arg family decarboxylase&lt;br&gt;Location: 124621 - 125623" style="stroke:black; fill:#15d897; stroke-width:1; " id="dummy-1_q7_0_all" points="393,40 397,40 402,35 397,30 393,30 393,40 " class="clusterblast-orf"  />
<polygon locus_tag="cds125622_125988" description="&lt;b&gt;cds125622_125988&lt;/b&gt;&lt;br&gt;Orn/DAP/Arg family decarboxylase&lt;br&gt;Location: 125622 - 125988" style="stroke:black; fill:#15d897; stroke-width:1; " id="dummy-1_q8_0_all" points="402,40 405,35 402,30 402,40 " class="clusterblast-orf"  />
<polygon locus_tag="cds126025_126313" description="&lt;b&gt;cds126025_126313&lt;/b&gt;&lt;br&gt;hypothetical protein&lt;br&gt;Location: 126025 - 126313" style="stroke:black; fill:white; stroke-width:1; " id="dummy-1_q9_0_all" points="405,35 407,30 407,40 405,35 " class="clusterblast-orf"  />
<polygon locus_tag="cds126423_127275" description="&lt;b&gt;cds126423_127275&lt;/b&gt;&lt;br&gt;Stage II sporulation protein E-like&lt;br&gt;Location: 126423 - 127275" style="stroke:black; fill:#1515d8; stroke-width:1; " id="dummy-1_q10_0_all" points="408,40 411,40 416,35 411,30 408,30 408,40 " class="clusterblast-orf"  />
<polygon locus_tag="cds127356_128178" description="&lt;b&gt;cds127356_128178&lt;/b&gt;&lt;br&gt;Aspartate 1-decarboxylase (EC 4.1.1.11)&lt;br&gt;Location: 127356 - 128178" style="stroke:black; fill:#d81597; stroke-width:1; " id="dummy-1_q11_0_all" points="417,35 422,30 424,30 424,40 422,40 417,35 " class="clusterblast-orf"  />
<polygon locus_tag="cds128237_128480" description="&lt;b&gt;cds128237_128480&lt;/b&gt;&lt;br&gt;hypothetical protein&lt;br&gt;Location: 128237 - 128480" style="stroke:black; fill:white; stroke-width:1; " id="dummy-1_q12_0_all" points="424,35 426,30 426,40 424,35 " class="clusterblast-orf"  />
<polygon locus_tag="cds128868_129126" description="&lt;b&gt;cds128868_129126&lt;/b&gt;&lt;br&gt;Mobile element protein&lt;br&gt;Location: 128868 - 129126" style="stroke:black; fill:#97d815; stroke-width:1; " id="dummy-1_q13_0_all" points="430,35 432,30 432,40 430,35 " class="clusterblast-orf"  />
<polygon locus_tag="cds129217_129469" description="&lt;b&gt;cds129217_129469&lt;/b&gt;&lt;br&gt;hypothetical protein&lt;br&gt;Location: 129217 - 129469" style="stroke:black; fill:white; stroke-width:1; " id="dummy-1_q14_0_all" points="433,35 435,30 435,40 433,35 " class="clusterblast-orf"  />
</g>
<g class="clusterblast-cluster" description="NZ_LIPC01000003 (382329-472802): Streptomyces sp. TSRI0445 scaffold3, whole g... (13% of genes show similarity), NRPS,T1PKS,bacteriocin" label="NZ_LIPC01000003"  >
<text class="clusterblast-acc" y="70" x="5"  >
<a xlink:href="https://antismash-db.secondarymetabolites.org/area.html?record=NZ_LIPC01000003&amp;start=382329&amp;end=472802" target="_blank">NZ_LIPC01000003 (382329-472802)</a>: Streptomyces sp. TSRI0445 scaffold3, whole g... (13% of genes show similarity), NRPS,T1PKS,bacteriocin</text>
<line x2="778.0" y1="85" style="stroke:grey; stroke-width:1; " x1="10" y2="85"  />
</g>
<g id="a1_000"  >
<polygon locus_tag="AMK14_RS19730" description="&lt;b&gt;AMK14_RS19730&lt;/b&gt;&lt;br&gt;hypothetical protein&lt;br&gt;Location: 472334 - 471408&lt;br&gt;&lt;br&gt;&lt;b&gt;BlastP hit with cds119025_119442&lt;/b&gt;&lt;br&gt;Percentage identity: 88&lt;br&gt;Percentage coverage: 90&lt;br&gt;BLAST bit score: 208&lt;br&gt;E-value: 3.1e-52&lt;br&gt;&lt;br&gt;&lt;b&gt;BlastP hit with cds119589_119958&lt;/b&gt;&lt;br&gt;Percentage identity: 79&lt;br&gt;Percentage coverage: 39&lt;br&gt;BLAST bit score: 74&lt;br&gt;E-value: 7.9e-12" style="stroke:black; fill:#d81515; stroke-width:1; " id="dummy-1_h1_1_0" points="0,85 5,80 8,80 8,90 5,90 0,85 " class="clusterblast-orf"  />
</g>
<g id="a1_001"  >
<polygon locus_tag="AMK14_RS19725" description="&lt;b&gt;AMK14_RS19725&lt;/b&gt;&lt;br&gt;hypothetical protein&lt;br&gt;Location: 471177 - 470635&lt;br&gt;&lt;br&gt;&lt;b&gt;BlastP hit with cds120332_120821&lt;/b&gt;&lt;br&gt;Percentage identity: 96&lt;br&gt;Percentage coverage: 85&lt;br&gt;BLAST bit score: 265&lt;br&gt;E-value: 3.2e-69" style="stroke:black; fill:#15d815; stroke-width:1; " id="dummy-1_h1_1_1" points="10,90 14,85 10,80 10,90 " class="clusterblast-orf"  />
</g>
<g id="a1_002"  >
<polygon locus_tag="AMK14_RS19720" description="&lt;b&gt;AMK14_RS19720&lt;/b&gt;&lt;br&gt;NADP-dependent phosphogluconate dehydrogenase&lt;br&gt;Location: 470520 - 469078&lt;br&gt;&lt;br&gt;&lt;b&gt;BlastP hit with cds120936_122568&lt;/b&gt;&lt;br&gt;Percentage identity: 82&lt;br&gt;Percentage coverage: 86&lt;br&gt;BLAST bit score: 702&lt;br&gt;E-value: 3.5e-200" style="stroke:black; fill:#1597d8; stroke-width:1; " id="dummy-1_h1_1_2" points="15,90 23,90 28,85 23,80 15,80 15,90 " class="clusterblast-orf"  />
</g>
<g id="a1_003"  >
<polygon locus_tag="AMK14_RS19715" description="&lt;b&gt;AMK14_RS19715&lt;/b&gt;&lt;br&gt;Dyp-type peroxidase&lt;br&gt;Location: 468902 - 467802&lt;br&gt;&lt;br&gt;&lt;b&gt;BlastP hit with cds122662_123763&lt;/b&gt;&lt;br&gt;Percentage identity: 96&lt;br&gt;Percentage coverage: 100&lt;br&gt;BLAST bit score: 682&lt;br&gt;E-value: 2.5e-194" style="stroke:black; fill:#9715d8; stroke-width:1; " id="dummy-1_h1_1_3" points="29,90 34,90 39,85 34,80 29,80 29,90 " class="clusterblast-orf"  />
</g>
<g id="a1_004"  >
<polygon locus_tag="AMK14_RS19710" description="&lt;b&gt;AMK14_RS19710&lt;/b&gt;&lt;br&gt;bacteriocin family protein&lt;br&gt;Location: 467802 - 467005&lt;br&gt;&lt;br&gt;&lt;b&gt;BlastP hit with cds123759_124236&lt;/b&gt;&lt;br&gt;Percentage identity: 79&lt;br&gt;Percentage coverage: 86&lt;br&gt;BLAST bit score: 201&lt;br&gt;E-value: 7.3e-50&lt;br&gt;&lt;br&gt;&lt;b&gt;BlastP hit with cds124214_124625&lt;/b&gt;&lt;br&gt;Percentage identity: 98&lt;br&gt;Percentage coverage: 80&lt;br&gt;BLAST bit score: 223&lt;br&gt;E-value: 1.2e-56" style="stroke:black; fill:#d89715; stroke-width:1; " id="dummy-1_h1_1_4" points="39,90 41,90 46,85 41,80 39,80 39,90 " class="clusterblast-orf"  />
</g>
<g id="a1_005"  >
<polygon locus_tag="AMK14_RS19705" description="&lt;b&gt;AMK14_RS19705&lt;/b&gt;&lt;br&gt;diaminopimelate decarboxylase&lt;br&gt;Location: 466972 - 465584&lt;br&gt;&lt;br&gt;&lt;b&gt;BlastP hit with cds124621_125623&lt;/b&gt;&lt;br&gt;Percentage identity: 76&lt;br&gt;Percentage coverage: 50&lt;br&gt;BLAST bit score: 222&lt;br&gt;E-value: 6.4e-56&lt;br&gt;&lt;br&gt;&lt;b&gt;BlastP hit with cds125622_125988&lt;/b&gt;&lt;br&gt;Percentage identity: 88&lt;br&gt;Percentage coverage: 106&lt;br&gt;BLAST bit score: 231&lt;br&gt;E-value: 3.9e-59" style="stroke:black; fill:#15d897; stroke-width:1; " id="dummy-1_h1_1_5" points="46,90 53,90 58,85 53,80 46,80 46,90 " class="clusterblast-orf"  />
</g>
<g id="a1_006"  >
<polygon locus_tag="AMK14_RS19695" description="&lt;b&gt;AMK14_RS19695&lt;/b&gt;&lt;br&gt;membrane protein&lt;br&gt;Location: 465034 - 464264&lt;br&gt;&lt;br&gt;&lt;b&gt;BlastP hit with cds126423_127275&lt;/b&gt;&lt;br&gt;Percentage identity: 81&lt;br&gt;Percentage coverage: 90&lt;br&gt;BLAST bit score: 389&lt;br&gt;E-value: 2.6e-106" style="stroke:black; fill:#1515d8; stroke-width:1; " id="dummy-1_h1_1_6" points="63,90 64,90 69,85 64,80 63,80 63,90 " class="clusterblast-orf"  />
</g>
<g id="a1_007"  >
<polygon locus_tag="AMK14_RS19690" description="&lt;b&gt;AMK14_RS19690&lt;/b&gt;&lt;br&gt;N-acetyltransferase&lt;br&gt;Location: 464209 - 463856&lt;br&gt;&lt;br&gt;&lt;b&gt;BlastP hit with cds127356_128178&lt;/b&gt;&lt;br&gt;Percentage identity: 92&lt;br&gt;Percentage coverage: 43&lt;br&gt;BLAST bit score: 221&lt;br&gt;E-value: 1.2e-55" style="stroke:black; fill:#d81597; stroke-width:1; " id="dummy-1_h1_1_7" points="70,85 73,80 73,90 70,85 " class="clusterblast-orf"  />
</g>
<g id="a1_008"  >
<polygon locus_tag="AMK14_RS19685" description="&lt;b&gt;AMK14_RS19685&lt;/b&gt;&lt;br&gt;aspartate 1-decarboxylase&lt;br&gt;Location: 463813 - 463388&lt;br&gt;&lt;br&gt;&lt;b&gt;BlastP hit with cds127356_128178&lt;/b&gt;&lt;br&gt;Percentage identity: 99&lt;br&gt;Percentage coverage: 37&lt;br&gt;BLAST bit score: 195&lt;br&gt;E-value: 6.9e-48" style="stroke:black; fill:#d81597; stroke-width:1; " id="dummy-1_h1_1_8" points="73,85 77,80 77,90 73,85 " class="clusterblast-orf"  />
</g>
<g id="a1_009"  >
<polygon locus_tag="AMK14_RS35225" description="&lt;b&gt;AMK14_RS35225&lt;/b&gt;&lt;br&gt;hypothetical protein&lt;br&gt;Location: 462848 - 462702" style="stroke:black; fill:white; stroke-width:1; " id="dummy-1_h1_1_9" points="82,90 83,85 82,80 82,90 " class="clusterblast-orf"  />
</g>
<g id="a1_0010"  >
<polygon locus_tag="AMK14_RS19675" description="&lt;b&gt;AMK14_RS19675&lt;/b&gt;&lt;br&gt;3-hydroxybutyryl-CoA dehydrogenase&lt;br&gt;Location: 462631 - 462509" style="stroke:black; fill:white; stroke-width:1; " id="dummy-1_h1_1_10" points="84,90 85,85 84,80 84,90 " class="clusterblast-orf"  />
</g>
<g id="a1_0011"  >
<polygon locus_tag="AMK14_RS19670" description="&lt;b&gt;AMK14_RS19670&lt;/b&gt;&lt;br&gt;IS5/IS1182 family transposase&lt;br&gt;Location: 461727 - 461317" style="stroke:black; fill:white; stroke-width:1; " id="dummy-1_h1_1_11" points="91,85 95,80 95,90 91,85 " class="clusterblast-orf"  />
</g>
<g id="a1_0012"  >
<polygon locus_tag="AMK14_RS19665" description="&lt;b&gt;AMK14_RS19665&lt;/b&gt;&lt;br&gt;transposase&lt;br&gt;Location: 461024 - 460330&lt;br&gt;&lt;br&gt;&lt;b&gt;BlastP hit with cds128868_129126&lt;/b&gt;&lt;br&gt;Percentage identity: 76&lt;br&gt;Percentage coverage: 74&lt;br&gt;BLAST bit score: 87&lt;br&gt;E-value: 6.3e-16" style="stroke:black; fill:#97d815; stroke-width:1; " id="dummy-1_h1_1_12" points="98,85 103,80 104,80 104,90 103,90 98,85 " class="clusterblast-orf"  />
</g>
<g id="a1_0013"  >
<polygon locus_tag="AMK14_RS19660" description="&lt;b&gt;AMK14_RS19660&lt;/b&gt;&lt;br&gt;protein kinase&lt;br&gt;Location: 459403 - 458105" style="stroke:black; fill:white; stroke-width:1; " id="dummy-1_h1_1_13" points="112,85 117,80 123,80 123,90 117,90 112,85 " class="clusterblast-orf"  />
</g>
<g id="a1_0014"  >
<polygon locus_tag="AMK14_RS19655" description="&lt;b&gt;AMK14_RS19655&lt;/b&gt;&lt;br&gt;hypothetical protein&lt;br&gt;Location: 458095 - 457448" style="stroke:black; fill:white; stroke-width:1; " id="dummy-1_h1_1_14" points="123,85 128,80 129,80 129,90 128,90 123,85 " class="clusterblast-orf"  />
</g>
<g id="a1_0015"  >
<polygon locus_tag="AMK14_RS19650" description="&lt;b&gt;AMK14_RS19650&lt;/b&gt;&lt;br&gt;hypothetical protein&lt;br&gt;Location: 457253 - 456609" style="stroke:black; fill:white; stroke-width:1; " id="dummy-1_h1_1_15" points="130,90 131,90 136,85 131,80 130,80 130,90 " class="clusterblast-orf"  />
</g>
<g id="a1_0016"  >
<polygon locus_tag="AMK14_RS19645" description="&lt;b&gt;AMK14_RS19645&lt;/b&gt;&lt;br&gt;protein kinase&lt;br&gt;Location: 456594 - 452968" style="stroke:black; fill:white; stroke-width:1; " id="dummy-1_h1_1_16" points="136,90 162,90 167,85 162,80 136,80 136,90 " class="clusterblast-orf"  />
</g>
<g id="a1_0017"  >
<polygon locus_tag="AMK14_RS19640" description="&lt;b&gt;AMK14_RS19640&lt;/b&gt;&lt;br&gt;sel1 repeat family protein&lt;br&gt;Location: 452867 - 452067" style="stroke:black; fill:white; stroke-width:1; " id="dummy-1_h1_1_17" points="168,90 170,90 175,85 170,80 168,80 168,90 " class="clusterblast-orf"  />
</g>
<g id="a1_0018"  >
<polygon locus_tag="AMK14_RS19635" description="&lt;b&gt;AMK14_RS19635&lt;/b&gt;&lt;br&gt;transposase&lt;br&gt;Location: 451875 - 451120" style="stroke:black; fill:white; stroke-width:1; " id="dummy-1_h1_1_18" points="177,90 178,90 183,85 178,80 177,80 177,90 " class="clusterblast-orf"  />
</g>
<g id="a1_0019"  >
<polygon locus_tag="AMK14_RS19630" description="&lt;b&gt;AMK14_RS19630&lt;/b&gt;&lt;br&gt;helix-turn-helix transcriptional regulator&lt;br&gt;Location: 450677 - 449943" style="stroke:black; fill:white; stroke-width:1; " id="dummy-1_h1_1_19" points="187,90 189,90 194,85 189,80 187,80 187,90 " class="clusterblast-orf"  />
</g>
<g id="a1_0020"  >
<polygon locus_tag="AMK14_RS19625" description="&lt;b&gt;AMK14_RS19625&lt;/b&gt;&lt;br&gt;flavin reductase family protein&lt;br&gt;Location: 449968 - 449414" style="stroke:black; fill:white; stroke-width:1; " id="dummy-1_h1_1_20" points="193,85 198,80 198,80 198,90 198,90 193,85 " class="clusterblast-orf"  />
</g>
<g id="a1_0021"  >
<polygon locus_tag="AMK14_RS19620" description="&lt;b&gt;AMK14_RS19620&lt;/b&gt;&lt;br&gt;acyl-CoA thioesterase&lt;br&gt;Location: 449387 - 448935" style="stroke:black; fill:white; stroke-width:1; " id="dummy-1_h1_1_21" points="198,85 202,80 202,90 198,85 " class="clusterblast-orf"  />
</g>
<g id="a1_0022"  >
<polygon locus_tag="AMK14_RS19615" description="&lt;b&gt;AMK14_RS19615&lt;/b&gt;&lt;br&gt;type I polyketide synthase&lt;br&gt;Location: 448855 - 442991" style="stroke:black; fill:white; stroke-width:1; " id="dummy-1_h1_1_22" points="203,85 208,80 254,80 254,90 208,90 203,85 " class="clusterblast-orf"  />
</g>
<g id="a1_0023"  >
<polygon locus_tag="AMK14_RS19610" description="&lt;b&gt;AMK14_RS19610&lt;/b&gt;&lt;br&gt;enediyne biosynthesis protein&lt;br&gt;Location: 442994 - 442020" style="stroke:black; fill:white; stroke-width:1; " id="dummy-1_h1_1_23" points="254,85 259,80 262,80 262,90 259,90 254,85 " class="clusterblast-orf"  />
</g>
<g id="a1_0024"  >
<polygon locus_tag="AMK14_RS19605" description="&lt;b&gt;AMK14_RS19605&lt;/b&gt;&lt;br&gt;CRTAC1 family protein&lt;br&gt;Location: 442014 - 440167" style="stroke:black; fill:white; stroke-width:1; " id="dummy-1_h1_1_24" points="262,85 267,80 278,80 278,90 267,90 262,85 " class="clusterblast-orf"  />
</g>
<g id="a1_0025"  >
<polygon locus_tag="AMK14_RS19600" description="&lt;b&gt;AMK14_RS19600&lt;/b&gt;&lt;br&gt;DUF1702 family protein&lt;br&gt;Location: 440102 - 439080" style="stroke:black; fill:white; stroke-width:1; " id="dummy-1_h1_1_25" points="279,85 284,80 288,80 288,90 284,90 279,85 " class="clusterblast-orf"  />
</g>
<g id="a1_0026"  >
<polygon locus_tag="AMK14_RS19595" description="&lt;b&gt;AMK14_RS19595&lt;/b&gt;&lt;br&gt;DUF899 domain-containing protein&lt;br&gt;Location: 438868 - 438116" style="stroke:black; fill:white; stroke-width:1; " id="dummy-1_h1_1_26" points="290,90 291,90 296,85 291,80 290,80 290,90 " class="clusterblast-orf"  />
</g>
<g id="a1_0027"  >
<polygon locus_tag="AMK14_RS19590" description="&lt;b&gt;AMK14_RS19590&lt;/b&gt;&lt;br&gt;ScyD/ScyE family protein&lt;br&gt;Location: 438055 - 436964" style="stroke:black; fill:white; stroke-width:1; " id="dummy-1_h1_1_27" points="297,85 302,80 306,80 306,90 302,90 297,85 " class="clusterblast-orf"  />
</g>
<g id="a1_0028"  >
<polygon locus_tag="AMK14_RS19585" description="&lt;b&gt;AMK14_RS19585&lt;/b&gt;&lt;br&gt;methyltransferase domain-containing protein&lt;br&gt;Location: 436946 - 436149" style="stroke:black; fill:white; stroke-width:1; " id="dummy-1_h1_1_28" points="306,85 311,80 313,80 313,90 311,90 306,85 " class="clusterblast-orf"  />
</g>
<g id="a1_0029"  >
<polygon locus_tag="AMK14_RS19580" description="&lt;b&gt;AMK14_RS19580&lt;/b&gt;&lt;br&gt;SDR family oxidoreductase&lt;br&gt;Location: 436152 - 435418" style="stroke:black; fill:white; stroke-width:1; " id="dummy-1_h1_1_29" points="313,85 318,80 319,80 319,90 318,90 313,85 " class="clusterblast-orf"  />
</g>
<g id="a1_0030"  >
<polygon locus_tag="AMK14_RS19575" description="&lt;b&gt;AMK14_RS19575&lt;/b&gt;&lt;br&gt;SRPBCC domain-containing protein&lt;br&gt;Location: 435381 - 434911" style="stroke:black; fill:white; stroke-width:1; " id="dummy-1_h1_1_30" points="320,85 324,80 324,90 320,85 " class="clusterblast-orf"  />
</g>
<g id="a1_0031"  >
<polygon locus_tag="AMK14_RS19570" description="&lt;b&gt;AMK14_RS19570&lt;/b&gt;&lt;br&gt;hypothetical protein&lt;br&gt;Location: 434872 - 434420" style="stroke:black; fill:white; stroke-width:1; " id="dummy-1_h1_1_31" points="324,85 328,80 328,90 324,85 " class="clusterblast-orf"  />
</g>
<g id="a1_0032"  >
<polygon locus_tag="AMK14_RS19565" description="&lt;b&gt;AMK14_RS19565&lt;/b&gt;&lt;br&gt;MFS transporter&lt;br&gt;Location: 434295 - 433114" style="stroke:black; fill:white; stroke-width:1; " id="dummy-1_h1_1_32" points="329,85 334,80 339,80 339,90 334,90 329,85 " class="clusterblast-orf"  />
</g>
<g id="a1_0033"  >
<polygon locus_tag="AMK14_RS19560" description="&lt;b&gt;AMK14_RS19560&lt;/b&gt;&lt;br&gt;DUF1428 family protein&lt;br&gt;Location: 433021 - 432587" style="stroke:black; fill:white; stroke-width:1; " id="dummy-1_h1_1_33" points="340,85 344,80 344,90 340,85 " class="clusterblast-orf"  />
</g>
<g id="a1_0034"  >
<polygon locus_tag="AMK14_RS19555" description="&lt;b&gt;AMK14_RS19555&lt;/b&gt;&lt;br&gt;crotonobetainyl-CoA--carnitine CoA-transferase&lt;br&gt;Location: 432121 - 431441" style="stroke:black; fill:white; stroke-width:1; " id="dummy-1_h1_1_34" points="348,90 349,90 354,85 349,80 348,80 348,90 " class="clusterblast-orf"  />
</g>
<g id="a1_0035"  >
<polygon locus_tag="AMK14_RS19550" description="&lt;b&gt;AMK14_RS19550&lt;/b&gt;&lt;br&gt;PBS lyase&lt;br&gt;Location: 431309 - 430113" style="stroke:black; fill:white; stroke-width:1; " id="dummy-1_h1_1_35" points="355,85 360,80 365,80 365,90 360,90 355,85 " class="clusterblast-orf"  />
</g>
<g id="a1_0036"  >
<polygon locus_tag="AMK14_RS19545" description="&lt;b&gt;AMK14_RS19545&lt;/b&gt;&lt;br&gt;AarF/ABC1/UbiB kinase family protein&lt;br&gt;Location: 429966 - 428623" style="stroke:black; fill:white; stroke-width:1; " id="dummy-1_h1_1_36" points="367,90 373,90 378,85 373,80 367,80 367,90 " class="clusterblast-orf"  />
</g>
<g id="a1_0037"  >
<polygon locus_tag="AMK14_RS19540" description="&lt;b&gt;AMK14_RS19540&lt;/b&gt;&lt;br&gt;maleylpyruvate isomerase family mycothiol-dependent enzyme&lt;br&gt;Location: 428555 - 427821" style="stroke:black; fill:white; stroke-width:1; " id="dummy-1_h1_1_37" points="379,85 384,80 385,80 385,90 384,90 379,85 " class="clusterblast-orf"  />
</g>
<g id="a1_0038"  >
<polygon locus_tag="AMK14_RS19535" description="&lt;b&gt;AMK14_RS19535&lt;/b&gt;&lt;br&gt;alkylhydroperoxidase&lt;br&gt;Location: 427787 - 427236" style="stroke:black; fill:white; stroke-width:1; " id="dummy-1_h1_1_38" points="386,85 390,80 390,90 386,85 " class="clusterblast-orf"  />
</g>
<g id="a1_0039"  >
<polygon locus_tag="AMK14_RS19530" description="&lt;b&gt;AMK14_RS19530&lt;/b&gt;&lt;br&gt;hypothetical protein&lt;br&gt;Location: 426839 - 426276" style="stroke:black; fill:white; stroke-width:1; " id="dummy-1_h1_1_39" points="394,90 394,90 399,85 394,80 394,80 394,90 " class="clusterblast-orf"  />
</g>
<g id="a1_0040"  >
<polygon locus_tag="AMK14_RS19525" description="&lt;b&gt;AMK14_RS19525&lt;/b&gt;&lt;br&gt;hypothetical protein&lt;br&gt;Location: 426271 - 425801" style="stroke:black; fill:white; stroke-width:1; " id="dummy-1_h1_1_40" points="399,90 403,85 399,80 399,90 " class="clusterblast-orf"  />
</g>
<g id="a1_0041"  >
<polygon locus_tag="AMK14_RS19520" description="&lt;b&gt;AMK14_RS19520&lt;/b&gt;&lt;br&gt;hypothetical protein&lt;br&gt;Location: 425729 - 425187" style="stroke:black; fill:white; stroke-width:1; " id="dummy-1_h1_1_41" points="403,85 408,80 408,80 408,90 408,90 403,85 " class="clusterblast-orf"  />
</g>
<g id="a1_0042"  >
<polygon locus_tag="AMK14_RS19515" description="&lt;b&gt;AMK14_RS19515&lt;/b&gt;&lt;br&gt;chitinase&lt;br&gt;Location: 424853 - 423981" style="stroke:black; fill:white; stroke-width:1; " id="dummy-1_h1_1_42" points="411,90 414,90 419,85 414,80 411,80 411,90 " class="clusterblast-orf"  />
</g>
<g id="a1_0043"  >
<polygon locus_tag="AMK14_RS19510" description="&lt;b&gt;AMK14_RS19510&lt;/b&gt;&lt;br&gt;spore photoproduct lyase family protein&lt;br&gt;Location: 423828 - 422644" style="stroke:black; fill:white; stroke-width:1; " id="dummy-1_h1_1_43" points="420,90 425,90 430,85 425,80 420,80 420,90 " class="clusterblast-orf"  />
</g>
<g id="a1_0044"  >
<polygon locus_tag="AMK14_RS19505" description="&lt;b&gt;AMK14_RS19505&lt;/b&gt;&lt;br&gt;FadR family transcriptional regulator&lt;br&gt;Location: 422556 - 421762" style="stroke:black; fill:white; stroke-width:1; " id="dummy-1_h1_1_44" points="431,90 433,90 438,85 433,80 431,80 431,90 " class="clusterblast-orf"  />
</g>
<g id="a1_0045"  >
<polygon locus_tag="AMK14_RS19500" description="&lt;b&gt;AMK14_RS19500&lt;/b&gt;&lt;br&gt;sugar ABC transporter substrate-binding protein&lt;br&gt;Location: 421566 - 420250" style="stroke:black; fill:white; stroke-width:1; " id="dummy-1_h1_1_45" points="439,90 446,90 451,85 446,80 439,80 439,90 " class="clusterblast-orf"  />
</g>
<g id="a1_0046"  >
<polygon locus_tag="AMK14_RS19495" description="&lt;b&gt;AMK14_RS19495&lt;/b&gt;&lt;br&gt;sugar ABC transporter permease&lt;br&gt;Location: 420250 - 419261" style="stroke:black; fill:white; stroke-width:1; " id="dummy-1_h1_1_46" points="451,90 454,90 459,85 454,80 451,80 451,90 " class="clusterblast-orf"  />
</g>
<g id="a1_0047"  >
<polygon locus_tag="AMK14_RS19490" description="&lt;b&gt;AMK14_RS19490&lt;/b&gt;&lt;br&gt;carbohydrate ABC transporter permease&lt;br&gt;Location: 419264 - 418419" style="stroke:black; fill:white; stroke-width:1; " id="dummy-1_h1_1_47" points="459,90 462,90 467,85 462,80 459,80 459,90 " class="clusterblast-orf"  />
</g>
<g id="a1_0048"  >
<polygon locus_tag="AMK14_RS19485" description="&lt;b&gt;AMK14_RS19485&lt;/b&gt;&lt;br&gt;D-galactonate dehydratase family protein&lt;br&gt;Location: 418375 - 417161" style="stroke:black; fill:white; stroke-width:1; " id="dummy-1_h1_1_48" points="467,90 473,90 478,85 473,80 467,80 467,90 " class="clusterblast-orf"  />
</g>
<g id="a1_0049"  >
<polygon locus_tag="AMK14_RS19480" description="&lt;b&gt;AMK14_RS19480&lt;/b&gt;&lt;br&gt;cytochrome P450&lt;br&gt;Location: 417137 - 415950" style="stroke:black; fill:white; stroke-width:1; " id="dummy-1_h1_1_49" points="478,85 483,80 488,80 488,90 483,90 478,85 " class="clusterblast-orf"  />
</g>
<g id="a1_0050"  >
<polygon locus_tag="AMK14_RS19475" description="&lt;b&gt;AMK14_RS19475&lt;/b&gt;&lt;br&gt;NADP-dependent oxidoreductase&lt;br&gt;Location: 415889 - 414834" style="stroke:black; fill:white; stroke-width:1; " id="dummy-1_h1_1_50" points="489,85 494,80 498,80 498,90 494,90 489,85 " class="clusterblast-orf"  />
</g>
<g id="a1_0051"  >
<polygon locus_tag="AMK14_RS19470" description="&lt;b&gt;AMK14_RS19470&lt;/b&gt;&lt;br&gt;NAD(P)/FAD-dependent oxidoreductase&lt;br&gt;Location: 414837 - 413110" style="stroke:black; fill:white; stroke-width:1; " id="dummy-1_h1_1_51" points="498,85 503,80 513,80 513,90 503,90 498,85 " class="clusterblast-orf"  />
</g>
<g id="a1_0052"  >
<polygon locus_tag="AMK14_RS19465" description="&lt;b&gt;AMK14_RS19465&lt;/b&gt;&lt;br&gt;NAD(P)/FAD-dependent oxidoreductase&lt;br&gt;Location: 413113 - 411395" style="stroke:black; fill:white; stroke-width:1; " id="dummy-1_h1_1_52" points="513,85 518,80 528,80 528,90 518,90 513,85 " class="clusterblast-orf"  />
</g>
<g id="a1_0053"  >
<polygon locus_tag="AMK14_RS19460" description="&lt;b&gt;AMK14_RS19460&lt;/b&gt;&lt;br&gt;hybrid non-ribosomal peptide synthetase/type I polyketide synthase&lt;br&gt;Location: 411405 - 402010" style="stroke:black; fill:white; stroke-width:1; " id="dummy-1_h1_1_53" points="528,85 533,80 609,80 609,90 533,90 528,85 " class="clusterblast-orf"  />
</g>
<g id="a1_0054"  >
<polygon locus_tag="AMK14_RS19455" description="&lt;b&gt;AMK14_RS19455&lt;/b&gt;&lt;br&gt;sterol desaturase family protein&lt;br&gt;Location: 401950 - 401009" style="stroke:black; fill:white; stroke-width:1; " id="dummy-1_h1_1_54" points="609,85 614,80 618,80 618,90 614,90 609,85 " class="clusterblast-orf"  />
</g>
<g id="a1_0055"  >
<polygon locus_tag="AMK14_RS19450" description="&lt;b&gt;AMK14_RS19450&lt;/b&gt;&lt;br&gt;cysteine desulfurase-like protein&lt;br&gt;Location: 400443 - 399232" style="stroke:black; fill:white; stroke-width:1; " id="dummy-1_h1_1_55" points="623,90 628,90 633,85 628,80 623,80 623,90 " class="clusterblast-orf"  />
</g>
<g id="a1_0056"  >
<polygon locus_tag="AMK14_RS19445" description="&lt;b&gt;AMK14_RS19445&lt;/b&gt;&lt;br&gt;MerR family transcriptional regulator&lt;br&gt;Location: 399157 - 398144" style="stroke:black; fill:white; stroke-width:1; " id="dummy-1_h1_1_56" points="634,85 639,80 642,80 642,90 639,90 634,85 " class="clusterblast-orf"  />
</g>
<g id="a1_0057"  >
<polygon locus_tag="AMK14_RS19440" description="&lt;b&gt;AMK14_RS19440&lt;/b&gt;&lt;br&gt;DUF4383 domain-containing protein&lt;br&gt;Location: 398040 - 397498" style="stroke:black; fill:white; stroke-width:1; " id="dummy-1_h1_1_57" points="643,90 643,90 648,85 643,80 643,80 643,90 " class="clusterblast-orf"  />
</g>
<g id="a1_0058"  >
<polygon locus_tag="AMK14_RS19435" description="&lt;b&gt;AMK14_RS19435&lt;/b&gt;&lt;br&gt;DUF1206 domain-containing protein&lt;br&gt;Location: 397513 - 396671" style="stroke:black; fill:white; stroke-width:1; " id="dummy-1_h1_1_58" points="648,85 653,80 655,80 655,90 653,90 648,85 " class="clusterblast-orf"  />
</g>
<g id="a1_0059"  >
<polygon locus_tag="AMK14_RS19430" description="&lt;b&gt;AMK14_RS19430&lt;/b&gt;&lt;br&gt;fasciclin domain-containing protein&lt;br&gt;Location: 396439 - 395858" style="stroke:black; fill:white; stroke-width:1; " id="dummy-1_h1_1_59" points="657,90 657,90 662,85 657,80 657,80 657,90 " class="clusterblast-orf"  />
</g>
<g id="a1_0060"  >
<polygon locus_tag="AMK14_RS19425" description="&lt;b&gt;AMK14_RS19425&lt;/b&gt;&lt;br&gt;MarR family transcriptional regulator&lt;br&gt;Location: 395817 - 395317" style="stroke:black; fill:white; stroke-width:1; " id="dummy-1_h1_1_60" points="663,90 667,85 663,80 663,90 " class="clusterblast-orf"  />
</g>
<g id="a1_0061"  >
<polygon locus_tag="AMK14_RS19420" description="&lt;b&gt;AMK14_RS19420&lt;/b&gt;&lt;br&gt;MMPL family transporter&lt;br&gt;Location: 395180 - 393093" style="stroke:black; fill:white; stroke-width:1; " id="dummy-1_h1_1_61" points="668,90 681,90 686,85 681,80 668,80 668,90 " class="clusterblast-orf"  />
</g>
<g id="a1_0062"  >
<polygon locus_tag="AMK14_RS19415" description="&lt;b&gt;AMK14_RS19415&lt;/b&gt;&lt;br&gt;hypothetical protein&lt;br&gt;Location: 393083 - 392691" style="stroke:black; fill:white; stroke-width:1; " id="dummy-1_h1_1_62" points="686,85 690,80 690,90 686,85 " class="clusterblast-orf"  />
</g>
<g id="a1_0063"  >
<polygon locus_tag="AMK14_RS19410" description="&lt;b&gt;AMK14_RS19410&lt;/b&gt;&lt;br&gt;DoxX family membrane protein&lt;br&gt;Location: 392478 - 391948" style="stroke:black; fill:white; stroke-width:1; " id="dummy-1_h1_1_63" points="692,85 696,80 696,90 692,85 " class="clusterblast-orf"  />
</g>
<g id="a1_0064"  >
<polygon locus_tag="AMK14_RS19405" description="&lt;b&gt;AMK14_RS19405&lt;/b&gt;&lt;br&gt;NADPH-dependent 2,4-dienoyl-CoA reductase&lt;br&gt;Location: 391733 - 389718" style="stroke:black; fill:white; stroke-width:1; " id="dummy-1_h1_1_64" points="698,90 710,90 715,85 710,80 698,80 698,90 " class="clusterblast-orf"  />
</g>
<g id="a1_0065"  >
<polygon locus_tag="AMK14_RS19400" description="&lt;b&gt;AMK14_RS19400&lt;/b&gt;&lt;br&gt;PadR family transcriptional regulator&lt;br&gt;Location: 389661 - 389128" style="stroke:black; fill:white; stroke-width:1; " id="dummy-1_h1_1_65" points="716,90 716,90 721,85 716,80 716,80 716,90 " class="clusterblast-orf"  />
</g>
<g id="a1_0066"  >
<polygon locus_tag="AMK14_RS19395" description="&lt;b&gt;AMK14_RS19395&lt;/b&gt;&lt;br&gt;hypothetical protein&lt;br&gt;Location: 389053 - 388091" style="stroke:black; fill:white; stroke-width:1; " id="dummy-1_h1_1_66" points="721,85 726,80 730,80 730,90 726,90 721,85 " class="clusterblast-orf"  />
</g>
<g id="a1_0067"  >
<polygon locus_tag="AMK14_RS19390" description="&lt;b&gt;AMK14_RS19390&lt;/b&gt;&lt;br&gt;inositol phosphorylceramide synthase&lt;br&gt;Location: 388094 - 387132" style="stroke:black; fill:white; stroke-width:1; " id="dummy-1_h1_1_67" points="730,85 735,80 738,80 738,90 735,90 730,85 " class="clusterblast-orf"  />
</g>
<g id="a1_0068"  >
<polygon locus_tag="AMK14_RS19385" description="&lt;b&gt;AMK14_RS19385&lt;/b&gt;&lt;br&gt;TetR/AcrR family transcriptional regulator&lt;br&gt;Location: 386968 - 386339" style="stroke:black; fill:white; stroke-width:1; " id="dummy-1_h1_1_68" points="739,90 740,90 745,85 740,80 739,80 739,90 " class="clusterblast-orf"  />
</g>
<g id="a1_0069"  >
<polygon locus_tag="AMK14_RS19380" description="&lt;b&gt;AMK14_RS19380&lt;/b&gt;&lt;br&gt;SDR family oxidoreductase&lt;br&gt;Location: 386146 - 385358" style="stroke:black; fill:white; stroke-width:1; " id="dummy-1_h1_1_69" points="746,90 748,90 753,85 748,80 746,80 746,90 " class="clusterblast-orf"  />
</g>
<g id="a1_0070"  >
<polygon locus_tag="AMK14_RS19375" description="&lt;b&gt;AMK14_RS19375&lt;/b&gt;&lt;br&gt;hypothetical protein&lt;br&gt;Location: 385289 - 384276" style="stroke:black; fill:white; stroke-width:1; " id="dummy-1_h1_1_70" points="754,90 758,90 763,85 758,80 754,80 754,90 " class="clusterblast-orf"  />
</g>
<g id="a1_0071"  >
<polygon locus_tag="AMK14_RS19370" description="&lt;b&gt;AMK14_RS19370&lt;/b&gt;&lt;br&gt;hypothetical protein&lt;br&gt;Location: 384279 - 383380" style="stroke:black; fill:white; stroke-width:1; " id="dummy-1_h1_1_71" points="763,90 765,90 770,85 765,80 763,80 763,90 " class="clusterblast-orf"  />
</g>
<g id="a1_0072"  >
<polygon locus_tag="AMK14_RS19365" description="&lt;b&gt;AMK14_RS19365&lt;/b&gt;&lt;br&gt;NUDIX domain-containing protein&lt;br&gt;Location: 383279 - 382770" style="stroke:black; fill:white; stroke-width:1; " id="dummy-1_h1_1_72" points="771,90 771,90 776,85 771,80 771,80 771,90 " class="clusterblast-orf"  />
</g>
<g id="a1_0073"  >
<polygon locus_tag="AMK14_RS19360" description="&lt;b&gt;AMK14_RS19360&lt;/b&gt;&lt;br&gt;membrane protein&lt;br&gt;Location: 382734 - 382330" style="stroke:black; fill:white; stroke-width:1; " id="dummy-1_h1_1_73" points="776,90 780,85 776,80 776,90 " class="clusterblast-orf"  />
</g>
</svg>
