<svg preserveAspectRatio="none" height="230" version="1.1" xmlns:xlink="http://www.w3.org/1999/xlink" width="800" viewBox="0 0 800 230" y="0" x="0" xmlns="http://www.w3.org/2000/svg"  >
<g class="clusterblast-cluster" label="Query sequence"  >
<text class="clusterblast-acc" y="20" x="5"  >
Query sequence</text>
<line x2="778.0" y1="35" style="stroke:grey; stroke-width:1; " x1="10" y2="35"  />
<polygon locus_tag="cds183147_183873" description="&lt;b&gt;cds183147_183873&lt;/b&gt;&lt;br&gt;S-adenosylmethionine synthetase (EC 2.5.1.6)&lt;br&gt;Location: 183147 - 183873" style="stroke:black; fill:#d81515; stroke-width:1; " id="dummy-2_q0_0_all" points="176,40 187,40 192,35 187,30 176,30 176,40 " class="clusterblast-orf"  />
<polygon locus_tag="cds183869_184355" description="&lt;b&gt;cds183869_184355&lt;/b&gt;&lt;br&gt;S-adenosylmethionine synthetase (EC 2.5.1.6)&lt;br&gt;Location: 183869 - 184355" style="stroke:black; fill:#d81515; stroke-width:1; " id="dummy-2_q1_0_all" points="192,40 198,40 203,35 198,30 192,30 192,40 " class="clusterblast-orf"  />
<polygon locus_tag="cds184505_186368" description="&lt;b&gt;cds184505_186368&lt;/b&gt;&lt;br&gt;Helicase PriA essential for oriC/DnaA-independent DNA replication&lt;br&gt;Location: 184505 - 186368" style="stroke:black; fill:#63d815; stroke-width:1; " id="dummy-2_q2_0_all" points="206,40 242,40 247,35 242,30 206,30 206,40 " class="clusterblast-orf"  />
<polygon locus_tag="cds186355_186649" description="&lt;b&gt;cds186355_186649&lt;/b&gt;&lt;br&gt;Helicase PriA essential for oriC/DnaA-independent DNA replication&lt;br&gt;Location: 186355 - 186649" style="stroke:black; fill:#63d815; stroke-width:1; " id="dummy-2_q3_0_all" points="247,40 248,40 253,35 248,30 247,30 247,40 " class="clusterblast-orf"  />
<polygon locus_tag="cds186620_187106" description="&lt;b&gt;cds186620_187106&lt;/b&gt;&lt;br&gt;hypothetical protein&lt;br&gt;Location: 186620 - 187106" style="stroke:black; fill:#15b1d8; stroke-width:1; " id="dummy-2_q4_0_all" points="252,35 257,30 263,30 263,40 257,40 252,35 " class="clusterblast-orf"  />
<polygon locus_tag="cds187819_188608" description="&lt;b&gt;cds187819_188608&lt;/b&gt;&lt;br&gt;Methionyl-tRNA formyltransferase (EC 2.1.2.9)&lt;br&gt;Location: 187819 - 188608" style="stroke:black; fill:#b115d8; stroke-width:1; " id="dummy-2_q5_0_all" points="279,40 291,40 296,35 291,30 279,30 279,40 " class="clusterblast-orf"  />
<polygon locus_tag="cds188711_190145" description="&lt;b&gt;cds188711_190145&lt;/b&gt;&lt;br&gt;16S rRNA (cytosine(967)-C(5))-methyltransferase (EC 2.1.1.176)&lt;br&gt;Location: 188711 - 190145" style="stroke:black; fill:#d86315; stroke-width:1; " id="dummy-2_q6_0_all" points="298,40 325,40 330,35 325,30 298,30 298,40 " class="clusterblast-orf"  />
<polygon locus_tag="cds190293_190692" description="&lt;b&gt;cds190293_190692&lt;/b&gt;&lt;br&gt;Ribulose-phosphate 3-epimerase (EC 5.1.3.1)&lt;br&gt;Location: 190293 - 190692" style="stroke:black; fill:#15d815; stroke-width:1; " id="dummy-2_q7_0_all" points="333,40 337,40 342,35 337,30 333,30 333,40 " class="clusterblast-orf"  />
<polygon locus_tag="cds190682_190979" description="&lt;b&gt;cds190682_190979&lt;/b&gt;&lt;br&gt;Ribulose-phosphate 3-epimerase (EC 5.1.3.1)&lt;br&gt;Location: 190682 - 190979" style="stroke:black; fill:#15d815; stroke-width:1; " id="dummy-2_q8_0_all" points="342,40 343,40 348,35 343,30 342,30 342,40 " class="clusterblast-orf"  />
<polygon locus_tag="cds191106_191526" description="&lt;b&gt;cds191106_191526&lt;/b&gt;&lt;br&gt;hypothetical protein&lt;br&gt;Location: 191106 - 191526" style="stroke:black; fill:white; stroke-width:1; " id="dummy-2_q9_0_all" points="351,35 356,30 360,30 360,40 356,40 351,35 " class="clusterblast-orf"  />
<polygon locus_tag="cds191545_192109" description="&lt;b&gt;cds191545_192109&lt;/b&gt;&lt;br&gt;Transcriptional regulator&lt;br&gt;Location: 191545 - 192109" style="stroke:black; fill:#1563d8; stroke-width:1; " id="dummy-2_q10_0_all" points="361,40 368,40 373,35 368,30 361,30 361,40 " class="clusterblast-orf"  />
<polygon locus_tag="cds192433_193282" description="&lt;b&gt;cds192433_193282&lt;/b&gt;&lt;br&gt;Pentalenene synthase (EC 4.2.3.7)&lt;br&gt;Location: 192433 - 193282" style="stroke:black; fill:#d815b1; stroke-width:1; " id="dummy-2_q11_0_all" points="380,35 385,30 399,30 399,40 385,40 380,35 " class="clusterblast-orf"  />
<polygon locus_tag="cds193551_195018" description="&lt;b&gt;cds193551_195018&lt;/b&gt;&lt;br&gt;Inosine-5'-monophosphate dehydrogenase (EC 1.1.1.205) / CBS domain&lt;br&gt;Location: 193551 - 195018" style="stroke:black; fill:#d8b115; stroke-width:1; " id="dummy-2_q12_0_all" points="405,40 432,40 437,35 432,30 405,30 405,40 " class="clusterblast-orf"  />
<polygon locus_tag="cds195182_195629" description="&lt;b&gt;cds195182_195629&lt;/b&gt;&lt;br&gt;Aldehyde dehydrogenase&lt;br&gt;Location: 195182 - 195629" style="stroke:black; fill:#15d863; stroke-width:1; " id="dummy-2_q13_0_all" points="440,40 445,40 450,35 445,30 440,30 440,40 " class="clusterblast-orf"  />
<polygon locus_tag="cds195987_196125" description="&lt;b&gt;cds195987_196125&lt;/b&gt;&lt;br&gt;hypothetical protein&lt;br&gt;Location: 195987 - 196125" style="stroke:black; fill:white; stroke-width:1; " id="dummy-2_q14_0_all" points="458,35 461,30 461,40 458,35 " class="clusterblast-orf"  />
<polygon locus_tag="cds196214_196637" description="&lt;b&gt;cds196214_196637&lt;/b&gt;&lt;br&gt;Aldehyde dehydrogenase&lt;br&gt;Location: 196214 - 196637" style="stroke:black; fill:#15d863; stroke-width:1; " id="dummy-2_q15_0_all" points="463,40 467,40 472,35 467,30 463,30 463,40 " class="clusterblast-orf"  />
<polygon locus_tag="cds196660_197212" description="&lt;b&gt;cds196660_197212&lt;/b&gt;&lt;br&gt;Transcriptional regulator, AsnC family&lt;br&gt;Location: 196660 - 197212" style="stroke:black; fill:#1515d8; stroke-width:1; " id="dummy-2_q16_0_all" points="473,40 480,40 485,35 480,30 473,30 473,40 " class="clusterblast-orf"  />
<polygon locus_tag="cds197324_198098" description="&lt;b&gt;cds197324_198098&lt;/b&gt;&lt;br&gt;5-aminopentanamidase (EC 3.5.1.30)&lt;br&gt;Location: 197324 - 198098" style="stroke:black; fill:#d81563; stroke-width:1; " id="dummy-2_q17_0_all" points="487,40 499,40 504,35 499,30 487,30 487,40 " class="clusterblast-orf"  />
<polygon locus_tag="cds198094_198193" description="&lt;b&gt;cds198094_198193&lt;/b&gt;&lt;br&gt;5-aminopentanamidase (EC 3.5.1.30)&lt;br&gt;Location: 198094 - 198193" style="stroke:black; fill:#d81563; stroke-width:1; " id="dummy-2_q18_0_all" points="504,40 506,35 504,30 504,40 " class="clusterblast-orf"  />
<polygon locus_tag="cds198603_199161" description="&lt;b&gt;cds198603_199161&lt;/b&gt;&lt;br&gt;Lysine 2-monooxygenase (EC 1.13.12.2)&lt;br&gt;Location: 198603 - 199161" style="stroke:black; fill:#b1d815; stroke-width:1; " id="dummy-2_q19_0_all" points="515,40 523,40 528,35 523,30 515,30 515,40 " class="clusterblast-orf"  />
<polygon locus_tag="cds199312_199933" description="&lt;b&gt;cds199312_199933&lt;/b&gt;&lt;br&gt;Lysine 2-monooxygenase (EC 1.13.12.2)&lt;br&gt;Location: 199312 - 199933" style="stroke:black; fill:#b1d815; stroke-width:1; " id="dummy-2_q20_0_all" points="531,40 540,40 545,35 540,30 531,30 531,40 " class="clusterblast-orf"  />
<polygon locus_tag="cds199958_200216" description="&lt;b&gt;cds199958_200216&lt;/b&gt;&lt;br&gt;hypothetical protein&lt;br&gt;Location: 199958 - 200216" style="stroke:black; fill:#15d8b1; stroke-width:1; " id="dummy-2_q21_0_all" points="545,35 550,30 551,30 551,40 550,40 545,35 " class="clusterblast-orf"  />
<polygon locus_tag="cds200208_200670" description="&lt;b&gt;cds200208_200670&lt;/b&gt;&lt;br&gt;hypothetical protein&lt;br&gt;Location: 200208 - 200670" style="stroke:black; fill:#15d8b1; stroke-width:1; " id="dummy-2_q22_0_all" points="551,35 556,30 561,30 561,40 556,40 551,35 " class="clusterblast-orf"  />
<polygon locus_tag="cds201509_202433" description="&lt;b&gt;cds201509_202433&lt;/b&gt;&lt;br&gt;Pyrimidine permease&lt;br&gt;Location: 201509 - 202433" style="stroke:black; fill:#6315d8; stroke-width:1; " id="dummy-2_q23_0_all" points="579,35 584,30 599,30 599,40 584,40 579,35 " class="clusterblast-orf"  />
<polygon locus_tag="cds202429_202603" description="&lt;b&gt;cds202429_202603&lt;/b&gt;&lt;br&gt;Pyrimidine permease&lt;br&gt;Location: 202429 - 202603" style="stroke:black; fill:#6315d8; stroke-width:1; " id="dummy-2_q24_0_all" points="599,35 603,30 603,40 599,35 " class="clusterblast-orf"  />
</g>
<g class="clusterblast-cluster" description="NZ_CP058556 (7475407-7512771): Streptomyces sp. CB04723 chromosome, complete ... (53% of genes show similarity), terpene" label="NZ_CP058556"  >
<text class="clusterblast-acc" y="70" x="5"  >
<a xlink:href="https://antismash-db.secondarymetabolites.org/area.html?record=NZ_CP058556&amp;start=7475407&amp;end=7512771" target="_blank">NZ_CP058556 (7475407-7512771)</a>: Streptomyces sp. CB04723 chromosome, complete ... (53% of genes show similarity), terpene</text>
<line x2="778.0" y1="85" style="stroke:grey; stroke-width:1; " x1="10" y2="85"  />
</g>
<g id="a2_000"  >
<polygon locus_tag="HXS80_RS32305" description="&lt;b&gt;HXS80_RS32305&lt;/b&gt;&lt;br&gt;methionine adenosyltransferase&lt;br&gt;Location: 7511788 - 7510580&lt;br&gt;&lt;br&gt;&lt;b&gt;BlastP hit with cds183147_183873&lt;/b&gt;&lt;br&gt;Percentage identity: 98&lt;br&gt;Percentage coverage: 78&lt;br&gt;BLAST bit score: 368&lt;br&gt;E-value: 6.9e-100&lt;br&gt;&lt;br&gt;&lt;b&gt;BlastP hit with cds183869_184355&lt;/b&gt;&lt;br&gt;Percentage identity: 97&lt;br&gt;Percentage coverage: 100&lt;br&gt;BLAST bit score: 316&lt;br&gt;E-value: 1.2e-84" style="stroke:black; fill:#d81515; stroke-width:1; " id="dummy-2_h2_3_0" points="0,90 21,90 26,85 21,80 0,80 0,90 " class="clusterblast-orf"  />
</g>
<g id="a2_001"  >
<polygon locus_tag="HXS80_RS32300" description="&lt;b&gt;HXS80_RS32300&lt;/b&gt;&lt;br&gt;primosomal protein N'&lt;br&gt;Location: 7510471 - 7508327&lt;br&gt;&lt;br&gt;&lt;b&gt;BlastP hit with cds184505_186368&lt;/b&gt;&lt;br&gt;Percentage identity: 70&lt;br&gt;Percentage coverage: 103&lt;br&gt;BLAST bit score: 738&lt;br&gt;E-value: 5e-211&lt;br&gt;&lt;br&gt;&lt;b&gt;BlastP hit with cds186355_186649&lt;/b&gt;&lt;br&gt;Percentage identity: 88&lt;br&gt;Percentage coverage: 100&lt;br&gt;BLAST bit score: 162&lt;br&gt;E-value: 2.3e-38" style="stroke:black; fill:#63d815; stroke-width:1; " id="dummy-2_h2_3_1" points="28,90 70,90 75,85 70,80 28,80 28,90 " class="clusterblast-orf"  />
</g>
<g id="a2_002"  >
<polygon locus_tag="HXS80_RS32295" description="&lt;b&gt;HXS80_RS32295&lt;/b&gt;&lt;br&gt;hypothetical protein&lt;br&gt;Location: 7508190 - 7507624&lt;br&gt;&lt;br&gt;&lt;b&gt;BlastP hit with cds186620_187106&lt;/b&gt;&lt;br&gt;Percentage identity: 81&lt;br&gt;Percentage coverage: 66&lt;br&gt;BLAST bit score: 168&lt;br&gt;E-value: 7e-40" style="stroke:black; fill:#15b1d8; stroke-width:1; " id="dummy-2_h2_3_2" points="78,85 83,80 91,80 91,90 83,90 78,85 " class="clusterblast-orf"  />
</g>
<g id="a2_003"  >
<polygon locus_tag="HXS80_RS32290" description="&lt;b&gt;HXS80_RS32290&lt;/b&gt;&lt;br&gt;methionyl-tRNA formyltransferase&lt;br&gt;Location: 7507355 - 7506423&lt;br&gt;&lt;br&gt;&lt;b&gt;BlastP hit with cds187819_188608&lt;/b&gt;&lt;br&gt;Percentage identity: 93&lt;br&gt;Percentage coverage: 100&lt;br&gt;BLAST bit score: 503&lt;br&gt;E-value: 8.7e-141" style="stroke:black; fill:#b115d8; stroke-width:1; " id="dummy-2_h2_3_3" points="97,90 112,90 117,85 112,80 97,80 97,90 " class="clusterblast-orf"  />
</g>
<g id="a2_004"  >
<polygon locus_tag="HXS80_RS32285" description="&lt;b&gt;HXS80_RS32285&lt;/b&gt;&lt;br&gt;rRNA cytosine-C5-methyltransferase&lt;br&gt;Location: 7506275 - 7504842&lt;br&gt;&lt;br&gt;&lt;b&gt;BlastP hit with cds188711_190145&lt;/b&gt;&lt;br&gt;Percentage identity: 77&lt;br&gt;Percentage coverage: 106&lt;br&gt;BLAST bit score: 725&lt;br&gt;E-value: 3.4e-207" style="stroke:black; fill:#d86315; stroke-width:1; " id="dummy-2_h2_3_4" points="120,90 147,90 152,85 147,80 120,80 120,90 " class="clusterblast-orf"  />
</g>
<g id="a2_005"  >
<polygon locus_tag="HXS80_RS32280" description="&lt;b&gt;HXS80_RS32280&lt;/b&gt;&lt;br&gt;ribulose-phosphate 3-epimerase&lt;br&gt;Location: 7504642 - 7503959&lt;br&gt;&lt;br&gt;&lt;b&gt;BlastP hit with cds190293_190692&lt;/b&gt;&lt;br&gt;Percentage identity: 100&lt;br&gt;Percentage coverage: 33&lt;br&gt;BLAST bit score: 91&lt;br&gt;E-value: 5.2e-17&lt;br&gt;&lt;br&gt;&lt;b&gt;BlastP hit with cds190682_190979&lt;/b&gt;&lt;br&gt;Percentage identity: 93&lt;br&gt;Percentage coverage: 100&lt;br&gt;BLAST bit score: 181&lt;br&gt;E-value: 4.8e-44" style="stroke:black; fill:#15d815; stroke-width:1; " id="dummy-2_h2_3_5" points="156,90 166,90 171,85 166,80 156,80 156,90 " class="clusterblast-orf"  />
</g>
<g id="a2_006"  >
<polygon locus_tag="HXS80_RS32275" description="&lt;b&gt;HXS80_RS32275&lt;/b&gt;&lt;br&gt;sugar-binding domain-containing protein&lt;br&gt;Location: 7503825 - 7502830&lt;br&gt;&lt;br&gt;&lt;b&gt;BlastP hit with cds191545_192109&lt;/b&gt;&lt;br&gt;Percentage identity: 93&lt;br&gt;Percentage coverage: 100&lt;br&gt;BLAST bit score: 329&lt;br&gt;E-value: 1.6e-88" style="stroke:black; fill:#1563d8; stroke-width:1; " id="dummy-2_h2_3_6" points="174,90 191,90 196,85 191,80 174,80 174,90 " class="clusterblast-orf"  />
</g>
<g id="a2_007"  >
<polygon locus_tag="HXS80_RS32270" description="&lt;b&gt;HXS80_RS32270&lt;/b&gt;&lt;br&gt;terpene cyclase&lt;br&gt;Location: 7502771 - 7501698&lt;br&gt;&lt;br&gt;&lt;b&gt;BlastP hit with cds192433_193282&lt;/b&gt;&lt;br&gt;Percentage identity: 92&lt;br&gt;Percentage coverage: 91&lt;br&gt;BLAST bit score: 503&lt;br&gt;E-value: 9.4e-141" style="stroke:black; fill:#d815b1; stroke-width:1; " id="dummy-2_h2_3_7" points="197,85 202,80 221,80 221,90 202,90 197,85 " class="clusterblast-orf"  />
</g>
<g id="a2_008"  >
<polygon locus_tag="HXS80_RS32265" description="&lt;b&gt;HXS80_RS32265&lt;/b&gt;&lt;br&gt;GuaB1 family IMP dehydrogenase-related protein&lt;br&gt;Location: 7501398 - 7499932&lt;br&gt;&lt;br&gt;&lt;b&gt;BlastP hit with cds193551_195018&lt;/b&gt;&lt;br&gt;Percentage identity: 97&lt;br&gt;Percentage coverage: 100&lt;br&gt;BLAST bit score: 922&lt;br&gt;E-value: 1.5e-266" style="stroke:black; fill:#d8b115; stroke-width:1; " id="dummy-2_h2_3_8" points="228,90 255,90 260,85 255,80 228,80 228,90 " class="clusterblast-orf"  />
</g>
<g id="a2_009"  >
<polygon locus_tag="HXS80_RS32260" description="&lt;b&gt;HXS80_RS32260&lt;/b&gt;&lt;br&gt;aldehyde dehydrogenase family protein&lt;br&gt;Location: 7499755 - 7498298&lt;br&gt;&lt;br&gt;&lt;b&gt;BlastP hit with cds195182_195629&lt;/b&gt;&lt;br&gt;Percentage identity: 92&lt;br&gt;Percentage coverage: 87&lt;br&gt;BLAST bit score: 235&lt;br&gt;E-value: 2.5e-60&lt;br&gt;&lt;br&gt;&lt;b&gt;BlastP hit with cds196214_196637&lt;/b&gt;&lt;br&gt;Percentage identity: 95&lt;br&gt;Percentage coverage: 100&lt;br&gt;BLAST bit score: 279&lt;br&gt;E-value: 2.4e-73" style="stroke:black; fill:#15d863; stroke-width:1; " id="dummy-2_h2_3_9" points="264,90 291,90 296,85 291,80 264,80 264,90 " class="clusterblast-orf"  />
</g>
<g id="a2_0010"  >
<polygon locus_tag="HXS80_RS32255" description="&lt;b&gt;HXS80_RS32255&lt;/b&gt;&lt;br&gt;Lrp/AsnC family transcriptional regulator&lt;br&gt;Location: 7498172 - 7497714&lt;br&gt;&lt;br&gt;&lt;b&gt;BlastP hit with cds196660_197212&lt;/b&gt;&lt;br&gt;Percentage identity: 97&lt;br&gt;Percentage coverage: 83&lt;br&gt;BLAST bit score: 289&lt;br&gt;E-value: 1.8e-76" style="stroke:black; fill:#1515d8; stroke-width:1; " id="dummy-2_h2_3_10" points="298,90 303,90 308,85 303,80 298,80 298,90 " class="clusterblast-orf"  />
</g>
<g id="a2_0011"  >
<polygon locus_tag="HXS80_RS32250" description="&lt;b&gt;HXS80_RS32250&lt;/b&gt;&lt;br&gt;carbon-nitrogen hydrolase family protein&lt;br&gt;Location: 7497530 - 7496733&lt;br&gt;&lt;br&gt;&lt;b&gt;BlastP hit with cds197324_198098&lt;/b&gt;&lt;br&gt;Percentage identity: 49&lt;br&gt;Percentage coverage: 89&lt;br&gt;BLAST bit score: 157&lt;br&gt;E-value: 2e-36&lt;br&gt;&lt;br&gt;&lt;b&gt;BlastP hit with cds198094_198193&lt;/b&gt;&lt;br&gt;Percentage identity: 81&lt;br&gt;Percentage coverage: 100&lt;br&gt;BLAST bit score: 56&lt;br&gt;E-value: 4.5e-07" style="stroke:black; fill:#d81563; stroke-width:1; " id="dummy-2_h2_3_11" points="312,90 325,90 330,85 325,80 312,80 312,90 " class="clusterblast-orf"  />
</g>
<g id="a2_0012"  >
<polygon locus_tag="HXS80_RS32245" description="&lt;b&gt;HXS80_RS32245&lt;/b&gt;&lt;br&gt;NAD(P)/FAD-dependent oxidoreductase&lt;br&gt;Location: 7496684 - 7494990&lt;br&gt;&lt;br&gt;&lt;b&gt;BlastP hit with cds198603_199161&lt;/b&gt;&lt;br&gt;Percentage identity: 95&lt;br&gt;Percentage coverage: 92&lt;br&gt;BLAST bit score: 349&lt;br&gt;E-value: 1.9e-94&lt;br&gt;&lt;br&gt;&lt;b&gt;BlastP hit with cds199312_199933&lt;/b&gt;&lt;br&gt;Percentage identity: 97&lt;br&gt;Percentage coverage: 100&lt;br&gt;BLAST bit score: 434&lt;br&gt;E-value: 5.1e-120" style="stroke:black; fill:#b1d815; stroke-width:1; " id="dummy-2_h2_3_12" points="331,90 363,90 368,85 363,80 331,80 331,90 " class="clusterblast-orf"  />
</g>
<g id="a2_0013"  >
<polygon locus_tag="HXS80_RS32240" description="&lt;b&gt;HXS80_RS32240&lt;/b&gt;&lt;br&gt;hypothetical protein&lt;br&gt;Location: 7494970 - 7494260&lt;br&gt;&lt;br&gt;&lt;b&gt;BlastP hit with cds199958_200216&lt;/b&gt;&lt;br&gt;Percentage identity: 88&lt;br&gt;Percentage coverage: 100&lt;br&gt;BLAST bit score: 160&lt;br&gt;E-value: 5.9e-38&lt;br&gt;&lt;br&gt;&lt;b&gt;BlastP hit with cds200208_200670&lt;/b&gt;&lt;br&gt;Percentage identity: 41&lt;br&gt;Percentage coverage: 86&lt;br&gt;BLAST bit score: 56&lt;br&gt;E-value: 3.7e-06" style="stroke:black; fill:#15d8b1; stroke-width:1; " id="dummy-2_h2_3_13" points="369,85 374,80 384,80 384,90 374,90 369,85 " class="clusterblast-orf"  />
</g>
<g id="a2_0014"  >
<polygon locus_tag="HXS80_RS32235" description="&lt;b&gt;HXS80_RS32235&lt;/b&gt;&lt;br&gt;polyprenyl synthetase family protein&lt;br&gt;Location: 7494027 - 7492759" style="stroke:black; fill:white; stroke-width:1; " id="dummy-2_h2_3_14" points="389,90 412,90 417,85 412,80 389,80 389,90 " class="clusterblast-orf"  />
</g>
<g id="a2_0015"  >
<polygon locus_tag="HXS80_RS32230" description="&lt;b&gt;HXS80_RS32230&lt;/b&gt;&lt;br&gt;phytoene desaturase&lt;br&gt;Location: 7492762 - 7491245" style="stroke:black; fill:white; stroke-width:1; " id="dummy-2_h2_3_15" points="417,90 445,90 450,85 445,80 417,80 417,90 " class="clusterblast-orf"  />
</g>
<g id="a2_0016"  >
<polygon locus_tag="HXS80_RS32225" description="&lt;b&gt;HXS80_RS32225&lt;/b&gt;&lt;br&gt;phytoene/squalene synthase family protein&lt;br&gt;Location: 7491248 - 7490232" style="stroke:black; fill:white; stroke-width:1; " id="dummy-2_h2_3_16" points="450,90 468,90 473,85 468,80 450,80 450,90 " class="clusterblast-orf"  />
</g>
<g id="a2_0017"  >
<polygon locus_tag="HXS80_RS32220" description="&lt;b&gt;HXS80_RS32220&lt;/b&gt;&lt;br&gt;Rieske (2Fe-2S) protein&lt;br&gt;Location: 7490235 - 7489228" style="stroke:black; fill:white; stroke-width:1; " id="dummy-2_h2_3_17" points="472,90 490,90 495,85 490,80 472,80 472,90 " class="clusterblast-orf"  />
</g>
<g id="a2_0018"  >
<polygon locus_tag="HXS80_RS32215" description="&lt;b&gt;HXS80_RS32215&lt;/b&gt;&lt;br&gt;FAD-dependent oxidoreductase&lt;br&gt;Location: 7489193 - 7487622" style="stroke:black; fill:white; stroke-width:1; " id="dummy-2_h2_3_18" points="495,85 500,80 530,80 530,90 500,90 495,85 " class="clusterblast-orf"  />
</g>
<g id="a2_0019"  >
<polygon locus_tag="HXS80_RS32210" description="&lt;b&gt;HXS80_RS32210&lt;/b&gt;&lt;br&gt;class I SAM-dependent methyltransferase&lt;br&gt;Location: 7487622 - 7486906" style="stroke:black; fill:white; stroke-width:1; " id="dummy-2_h2_3_19" points="530,85 535,80 546,80 546,90 535,90 530,85 " class="clusterblast-orf"  />
</g>
<g id="a2_0020"  >
<polygon locus_tag="HXS80_RS32205" description="&lt;b&gt;HXS80_RS32205&lt;/b&gt;&lt;br&gt;hypothetical protein&lt;br&gt;Location: 7486909 - 7486577" style="stroke:black; fill:white; stroke-width:1; " id="dummy-2_h2_3_20" points="545,85 550,80 553,80 553,90 550,90 545,85 " class="clusterblast-orf"  />
</g>
<g id="a2_0021"  >
<polygon locus_tag="HXS80_RS32200" description="&lt;b&gt;HXS80_RS32200&lt;/b&gt;&lt;br&gt;lycopene cyclase&lt;br&gt;Location: 7486658 - 7485408" style="stroke:black; fill:white; stroke-width:1; " id="dummy-2_h2_3_21" points="551,85 556,80 578,80 578,90 556,90 551,85 " class="clusterblast-orf"  />
</g>
<g id="a2_0022"  >
<polygon locus_tag="HXS80_RS32195" description="&lt;b&gt;HXS80_RS32195&lt;/b&gt;&lt;br&gt;aldehyde dehydrogenase family protein&lt;br&gt;Location: 7485079 - 7484036" style="stroke:black; fill:white; stroke-width:1; " id="dummy-2_h2_3_22" points="586,90 604,90 609,85 604,80 586,80 586,90 " class="clusterblast-orf"  />
</g>
<g id="a2_0023"  >
<polygon locus_tag="HXS80_RS32190" description="&lt;b&gt;HXS80_RS32190&lt;/b&gt;&lt;br&gt;VOC family protein&lt;br&gt;Location: 7483906 - 7483535" style="stroke:black; fill:white; stroke-width:1; " id="dummy-2_h2_3_23" points="611,85 616,80 620,80 620,90 616,90 611,85 " class="clusterblast-orf"  />
</g>
<g id="a2_0024"  >
<polygon locus_tag="HXS80_RS32185" description="&lt;b&gt;HXS80_RS32185&lt;/b&gt;&lt;br&gt;nitrate reductase&lt;br&gt;Location: 7483427 - 7481937&lt;br&gt;&lt;br&gt;&lt;b&gt;BlastP hit with cds201509_202433&lt;/b&gt;&lt;br&gt;Percentage identity: 99&lt;br&gt;Percentage coverage: 45&lt;br&gt;BLAST bit score: 264&lt;br&gt;E-value: 1.4e-68&lt;br&gt;&lt;br&gt;&lt;b&gt;BlastP hit with cds202429_202603&lt;/b&gt;&lt;br&gt;Percentage identity: 98&lt;br&gt;Percentage coverage: 93&lt;br&gt;BLAST bit score: 103&lt;br&gt;E-value: 7.5e-21" style="stroke:black; fill:#6315d8; stroke-width:1; " id="dummy-2_h2_3_24" points="622,85 627,80 655,80 655,90 627,90 622,85 " class="clusterblast-orf"  />
</g>
<g id="a2_0025"  >
<polygon locus_tag="HXS80_RS32180" description="&lt;b&gt;HXS80_RS32180&lt;/b&gt;&lt;br&gt;MFS transporter&lt;br&gt;Location: 7481555 - 7480329" style="stroke:black; fill:white; stroke-width:1; " id="dummy-2_h2_3_25" points="663,85 668,80 690,80 690,90 668,90 663,85 " class="clusterblast-orf"  />
</g>
<g id="a2_0026"  >
<polygon locus_tag="HXS80_RS32175" description="&lt;b&gt;HXS80_RS32175&lt;/b&gt;&lt;br&gt;ROK family transcriptional regulator&lt;br&gt;Location: 7480102 - 7478912" style="stroke:black; fill:white; stroke-width:1; " id="dummy-2_h2_3_26" points="695,90 716,90 721,85 716,80 695,80 695,90 " class="clusterblast-orf"  />
</g>
<g id="a2_0027"  >
<polygon locus_tag="HXS80_RS32170" description="&lt;b&gt;HXS80_RS32170&lt;/b&gt;&lt;br&gt;chitinase C-terminal domain-containing protein&lt;br&gt;Location: 7478600 - 7476246" style="stroke:black; fill:white; stroke-width:1; " id="dummy-2_h2_3_27" points="728,85 733,80 780,80 780,90 733,90 728,85 " class="clusterblast-orf"  />
</g>
</svg>
