<svg preserveAspectRatio="none" height="230" version="1.1" xmlns:xlink="http://www.w3.org/1999/xlink" width="800" viewBox="0 0 800 230" y="0" x="0" xmlns="http://www.w3.org/2000/svg"  >
<g class="clusterblast-cluster" label="Query sequence"  >
<text class="clusterblast-acc" y="20" x="5"  >
Query sequence</text>
<line x2="778.0" y1="35" style="stroke:grey; stroke-width:1; " x1="10" y2="35"  />
<polygon locus_tag="cds208976_209330" description="&lt;b&gt;cds208976_209330&lt;/b&gt;&lt;br&gt;protein dithiol-disulfide isomerase&lt;br&gt;Location: 208976 - 209330" style="stroke:black; fill:#d81515; stroke-width:1; " id="dummy-1_q0_0_all" points="9,40 32,40 37,35 32,30 9,30 9,40 " class="clusterblast-orf"  />
<polygon locus_tag="cds209284_209686" description="&lt;b&gt;cds209284_209686&lt;/b&gt;&lt;br&gt;protein dithiol-disulfide isomerase&lt;br&gt;Location: 209284 - 209686" style="stroke:black; fill:#d81515; stroke-width:1; " id="dummy-1_q1_0_all" points="33,40 60,40 65,35 60,30 33,30 33,40 " class="clusterblast-orf"  />
<polygon locus_tag="cds209755_210814" description="&lt;b&gt;cds209755_210814&lt;/b&gt;&lt;br&gt;Cysteine desulfurase (EC 2.8.1.7)&lt;br&gt;Location: 209755 - 210814" style="stroke:black; fill:#5cd815; stroke-width:1; " id="dummy-1_q2_0_all" points="70,40 147,40 152,35 147,30 70,30 70,40 " class="clusterblast-orf"  />
<polygon locus_tag="cds210888_211026" description="&lt;b&gt;cds210888_211026&lt;/b&gt;&lt;br&gt;Transcriptional regulator, MarR family&lt;br&gt;Location: 210888 - 211026" style="stroke:black; fill:#15a3d8; stroke-width:1; " id="dummy-1_q3_0_all" points="158,35 163,30 169,30 169,40 163,40 158,35 " class="clusterblast-orf"  />
<polygon locus_tag="cds211097_211517" description="&lt;b&gt;cds211097_211517&lt;/b&gt;&lt;br&gt;NADH:flavin oxidoreductase/NADH oxidase&lt;br&gt;Location: 211097 - 211517" style="stroke:black; fill:#c715d8; stroke-width:1; " id="dummy-1_q4_0_all" points="175,40 202,40 207,35 202,30 175,30 175,40 " class="clusterblast-orf"  />
<polygon locus_tag="cds211587_212622" description="&lt;b&gt;cds211587_212622&lt;/b&gt;&lt;br&gt;hypothetical protein&lt;br&gt;Location: 211587 - 212622" style="stroke:black; fill:#d88015; stroke-width:1; " id="dummy-1_q5_0_all" points="213,35 218,30 293,30 293,40 218,40 213,35 " class="clusterblast-orf"  />
<polygon locus_tag="cds212664_213408" description="&lt;b&gt;cds212664_213408&lt;/b&gt;&lt;br&gt;Ectoine hydroxylase&lt;br&gt;Location: 212664 - 213408" style="stroke:black; fill:#15d839; stroke-width:1; " id="dummy-1_q6_0_all" points="297,35 302,30 355,30 355,40 302,40 297,35 " class="clusterblast-orf"  />
<polygon locus_tag="cds213502_213664" description="&lt;b&gt;cds213502_213664&lt;/b&gt;&lt;br&gt;Ectoine hydroxylase&lt;br&gt;Location: 213502 - 213664" style="stroke:black; fill:#15d839; stroke-width:1; " id="dummy-1_q7_0_all" points="362,35 367,30 375,30 375,40 367,40 362,35 " class="clusterblast-orf"  />
<polygon locus_tag="cds213681_214098" description="&lt;b&gt;cds213681_214098&lt;/b&gt;&lt;br&gt;L-ectoine synthase (EC 4.2.1.108)&lt;br&gt;Location: 213681 - 214098" style="stroke:black; fill:#1539d8; stroke-width:1; " id="dummy-1_q8_0_all" points="376,35 381,30 408,30 408,40 381,40 376,35 " class="clusterblast-orf"  />
<polygon locus_tag="cds214157_214355" description="&lt;b&gt;cds214157_214355&lt;/b&gt;&lt;br&gt;Diaminobutyrate--2-oxoglutarate transaminase (EC 2.6.1.76)&lt;br&gt;Location: 214157 - 214355" style="stroke:black; fill:#d81580; stroke-width:1; " id="dummy-1_q9_0_all" points="413,35 418,30 428,30 428,40 418,40 413,35 " class="clusterblast-orf"  />
<polygon locus_tag="cds214645_215422" description="&lt;b&gt;cds214645_215422&lt;/b&gt;&lt;br&gt;Diaminobutyrate--2-oxoglutarate transaminase (EC 2.6.1.76)&lt;br&gt;Location: 214645 - 215422" style="stroke:black; fill:#d81580; stroke-width:1; " id="dummy-1_q10_0_all" points="451,35 456,30 512,30 512,40 456,40 451,35 " class="clusterblast-orf"  />
<polygon locus_tag="cds215574_216078" description="&lt;b&gt;cds215574_216078&lt;/b&gt;&lt;br&gt;L-2,4-diaminobutyric acid acetyltransferase (EC 2.3.1.178)&lt;br&gt;Location: 215574 - 216078" style="stroke:black; fill:#c7d815; stroke-width:1; " id="dummy-1_q11_0_all" points="523,35 528,30 563,30 563,40 528,40 523,35 " class="clusterblast-orf"  />
<polygon locus_tag="cds216413_216566" description="&lt;b&gt;cds216413_216566&lt;/b&gt;&lt;br&gt;putative aspartate aminotransferase&lt;br&gt;Location: 216413 - 216566" style="stroke:black; fill:#15d8a3; stroke-width:1; " id="dummy-1_q12_0_all" points="589,35 594,30 601,30 601,40 594,40 589,35 " class="clusterblast-orf"  />
<polygon locus_tag="cds216562_217519" description="&lt;b&gt;cds216562_217519&lt;/b&gt;&lt;br&gt;putative aspartate aminotransferase&lt;br&gt;Location: 216562 - 217519" style="stroke:black; fill:#15d8a3; stroke-width:1; " id="dummy-1_q13_0_all" points="600,35 605,30 675,30 675,40 605,40 600,35 " class="clusterblast-orf"  />
<polygon locus_tag="cds217759_218011" description="&lt;b&gt;cds217759_218011&lt;/b&gt;&lt;br&gt;hypothetical protein&lt;br&gt;Location: 217759 - 218011" style="stroke:black; fill:white; stroke-width:1; " id="dummy-1_q14_0_all" points="694,35 699,30 713,30 713,40 699,40 694,35 " class="clusterblast-orf"  />
<polygon locus_tag="cds218263_218755" description="&lt;b&gt;cds218263_218755&lt;/b&gt;&lt;br&gt;Xaa-Pro dipeptidase (EC 3.4.13.9)&lt;br&gt;Location: 218263 - 218755" style="stroke:black; fill:#5c15d8; stroke-width:1; " id="dummy-1_q15_0_all" points="733,40 766,40 771,35 766,30 733,30 733,40 " class="clusterblast-orf"  />
</g>
<g class="clusterblast-cluster" description="NZ_NNBN01000016 (68219-78618): Streptomyces sp. CB02613 scaffold16, whole gen... (100% of genes show similarity), ectoine" label="NZ_NNBN01000016"  >
<text class="clusterblast-acc" y="70" x="5"  >
<a xlink:href="https://antismash-db.secondarymetabolites.org/area.html?record=NZ_NNBN01000016&amp;start=68219&amp;end=78618" target="_blank">NZ_NNBN01000016 (68219-78618)</a>: Streptomyces sp. CB02613 scaffold16, whole gen... (100% of genes show similarity), ectoine</text>
<line x2="778.0" y1="85" style="stroke:grey; stroke-width:1; " x1="10" y2="85"  />
</g>
<g id="a1_000"  >
<polygon locus_tag="CG717_RS31090" description="&lt;b&gt;CG717_RS31090&lt;/b&gt;&lt;br&gt;aminotransferase class V-fold PLP-dependent enzyme&lt;br&gt;Location: 78543 - 77485&lt;br&gt;&lt;br&gt;&lt;b&gt;BlastP hit with cds209755_210814&lt;/b&gt;&lt;br&gt;Percentage identity: 74&lt;br&gt;Percentage coverage: 105&lt;br&gt;BLAST bit score: 443&lt;br&gt;E-value: 2.5e-122" style="stroke:black; fill:#5cd815; stroke-width:1; " id="dummy-1_h1_2_0" points="0,90 77,90 82,85 77,80 0,80 0,90 " class="clusterblast-orf"  />
</g>
<g id="a1_001"  >
<polygon locus_tag="CG717_RS31085" description="&lt;b&gt;CG717_RS31085&lt;/b&gt;&lt;br&gt;winged helix-turn-helix transcriptional regulator&lt;br&gt;Location: 77410 - 76895&lt;br&gt;&lt;br&gt;&lt;b&gt;BlastP hit with cds210888_211026&lt;/b&gt;&lt;br&gt;Percentage identity: 97&lt;br&gt;Percentage coverage: 78&lt;br&gt;BLAST bit score: 68&lt;br&gt;E-value: 2.1e-10" style="stroke:black; fill:#15a3d8; stroke-width:1; " id="dummy-1_h1_2_1" points="88,85 93,80 128,80 128,90 93,90 88,85 " class="clusterblast-orf"  />
</g>
<g id="a1_002"  >
<polygon locus_tag="CG717_RS31080" description="&lt;b&gt;CG717_RS31080&lt;/b&gt;&lt;br&gt;alkene reductase&lt;br&gt;Location: 76696 - 75626&lt;br&gt;&lt;br&gt;&lt;b&gt;BlastP hit with cds211097_211517&lt;/b&gt;&lt;br&gt;Percentage identity: 95&lt;br&gt;Percentage coverage: 78&lt;br&gt;BLAST bit score: 207&lt;br&gt;E-value: 8.9e-52" style="stroke:black; fill:#c715d8; stroke-width:1; " id="dummy-1_h1_2_2" points="143,90 222,90 227,85 222,80 143,80 143,90 " class="clusterblast-orf"  />
</g>
<g id="a1_003"  >
<polygon locus_tag="CG717_RS31075" description="&lt;b&gt;CG717_RS31075&lt;/b&gt;&lt;br&gt;VOC family protein&lt;br&gt;Location: 75650 - 74616&lt;br&gt;&lt;br&gt;&lt;b&gt;BlastP hit with cds211587_212622&lt;/b&gt;&lt;br&gt;Percentage identity: 97&lt;br&gt;Percentage coverage: 100&lt;br&gt;BLAST bit score: 698&lt;br&gt;E-value: 3.2e-199" style="stroke:black; fill:#d88015; stroke-width:1; " id="dummy-1_h1_2_3" points="225,85 230,80 306,80 306,90 230,90 225,85 " class="clusterblast-orf"  />
</g>
<g id="a1_004"  >
<polygon locus_tag="CG717_RS31070" description="&lt;b&gt;CG717_RS31070&lt;/b&gt;&lt;br&gt;ectoine hydroxylase&lt;br&gt;Location: 74515 - 73622&lt;br&gt;&lt;br&gt;&lt;b&gt;BlastP hit with cds212664_213408&lt;/b&gt;&lt;br&gt;Percentage identity: 98&lt;br&gt;Percentage coverage: 64&lt;br&gt;BLAST bit score: 322&lt;br&gt;E-value: 2.6e-86&lt;br&gt;&lt;br&gt;&lt;b&gt;BlastP hit with cds213502_213664&lt;/b&gt;&lt;br&gt;Percentage identity: 94&lt;br&gt;Percentage coverage: 66&lt;br&gt;BLAST bit score: 71&lt;br&gt;E-value: 2.9e-11" style="stroke:black; fill:#15d839; stroke-width:1; " id="dummy-1_h1_2_4" points="313,85 318,80 383,80 383,90 318,90 313,85 " class="clusterblast-orf"  />
</g>
<g id="a1_005"  >
<polygon locus_tag="CG717_RS31065" description="&lt;b&gt;CG717_RS31065&lt;/b&gt;&lt;br&gt;ectoine synthase&lt;br&gt;Location: 73618 - 73220&lt;br&gt;&lt;br&gt;&lt;b&gt;BlastP hit with cds213681_214098&lt;/b&gt;&lt;br&gt;Percentage identity: 97&lt;br&gt;Percentage coverage: 82&lt;br&gt;BLAST bit score: 232&lt;br&gt;E-value: 2e-59" style="stroke:black; fill:#1539d8; stroke-width:1; " id="dummy-1_h1_2_5" points="383,85 388,80 414,80 414,90 388,90 383,85 " class="clusterblast-orf"  />
</g>
<g id="a1_006"  >
<polygon locus_tag="CG717_RS31060" description="&lt;b&gt;CG717_RS31060&lt;/b&gt;&lt;br&gt;diaminobutyrate--2-oxoglutarate transaminase&lt;br&gt;Location: 73130 - 71868&lt;br&gt;&lt;br&gt;&lt;b&gt;BlastP hit with cds214157_214355&lt;/b&gt;&lt;br&gt;Percentage identity: 99&lt;br&gt;Percentage coverage: 100&lt;br&gt;BLAST bit score: 129&lt;br&gt;E-value: 1.4e-28&lt;br&gt;&lt;br&gt;&lt;b&gt;BlastP hit with cds214645_215422&lt;/b&gt;&lt;br&gt;Percentage identity: 100&lt;br&gt;Percentage coverage: 100&lt;br&gt;BLAST bit score: 527&lt;br&gt;E-value: 7.2e-148" style="stroke:black; fill:#d81580; stroke-width:1; " id="dummy-1_h1_2_6" points="421,85 426,80 520,80 520,90 426,90 421,85 " class="clusterblast-orf"  />
</g>
<g id="a1_007"  >
<polygon locus_tag="CG717_RS31055" description="&lt;b&gt;CG717_RS31055&lt;/b&gt;&lt;br&gt;diaminobutyrate acetyltransferase&lt;br&gt;Location: 71714 - 71184&lt;br&gt;&lt;br&gt;&lt;b&gt;BlastP hit with cds215574_216078&lt;/b&gt;&lt;br&gt;Percentage identity: 99&lt;br&gt;Percentage coverage: 98&lt;br&gt;BLAST bit score: 328&lt;br&gt;E-value: 3.2e-88" style="stroke:black; fill:#c7d815; stroke-width:1; " id="dummy-1_h1_2_7" points="532,85 537,80 573,80 573,90 537,90 532,85 " class="clusterblast-orf"  />
</g>
<g id="a1_008"  >
<polygon locus_tag="CG717_RS31050" description="&lt;b&gt;CG717_RS31050&lt;/b&gt;&lt;br&gt;alanine--glyoxylate aminotransferase family protein&lt;br&gt;Location: 70876 - 69770&lt;br&gt;&lt;br&gt;&lt;b&gt;BlastP hit with cds216413_216566&lt;/b&gt;&lt;br&gt;Percentage identity: 96&lt;br&gt;Percentage coverage: 100&lt;br&gt;BLAST bit score: 94&lt;br&gt;E-value: 3e-18&lt;br&gt;&lt;br&gt;&lt;b&gt;BlastP hit with cds216562_217519&lt;/b&gt;&lt;br&gt;Percentage identity: 98&lt;br&gt;Percentage coverage: 100&lt;br&gt;BLAST bit score: 602&lt;br&gt;E-value: 1.7e-170" style="stroke:black; fill:#15d8a3; stroke-width:1; " id="dummy-1_h1_2_8" points="597,85 602,80 683,80 683,90 602,90 597,85 " class="clusterblast-orf"  />
</g>
<g id="a1_009"  >
<polygon locus_tag="CG717_RS31045" description="&lt;b&gt;CG717_RS31045&lt;/b&gt;&lt;br&gt;amidohydrolase family protein&lt;br&gt;Location: 69609 - 68533&lt;br&gt;&lt;br&gt;&lt;b&gt;BlastP hit with cds218263_218755&lt;/b&gt;&lt;br&gt;Percentage identity: 99&lt;br&gt;Percentage coverage: 100&lt;br&gt;BLAST bit score: 329&lt;br&gt;E-value: 1.8e-88" style="stroke:black; fill:#5c15d8; stroke-width:1; " id="dummy-1_h1_2_9" points="696,90 775,90 780,85 775,80 696,80 696,90 " class="clusterblast-orf"  />
</g>
</svg>
