<svg preserveAspectRatio="none" height="230" version="1.1" xmlns:xlink="http://www.w3.org/1999/xlink" width="800" viewBox="0 0 800 230" y="0" x="0" xmlns="http://www.w3.org/2000/svg"  >
<g class="clusterblast-cluster" label="Query sequence"  >
<text class="clusterblast-acc" y="20" x="5"  >
Query sequence</text>
<line x2="778.0" y1="35" style="stroke:grey; stroke-width:1; " x1="10" y2="35"  />
<polygon locus_tag="cds55970_56540" description="&lt;b&gt;cds55970_56540&lt;/b&gt;&lt;br&gt;Polysaccharide deacetylase&lt;br&gt;Location: 55970 - 56540" style="stroke:black; fill:white; stroke-width:1; " id="dummy-2_q0_0_all" points="0,40 40,40 45,35 40,30 0,30 0,40 " class="clusterblast-orf"  />
<polygon locus_tag="cds56536_56692" description="&lt;b&gt;cds56536_56692&lt;/b&gt;&lt;br&gt;Glycosyl transferase, group 1&lt;br&gt;Location: 56536 - 56692" style="stroke:black; fill:white; stroke-width:1; " id="dummy-2_q1_0_all" points="45,40 52,40 57,35 52,30 45,30 45,40 " class="clusterblast-orf"  />
<polygon locus_tag="cds56789_56909" description="&lt;b&gt;cds56789_56909&lt;/b&gt;&lt;br&gt;hypothetical protein&lt;br&gt;Location: 56789 - 56909" style="stroke:black; fill:white; stroke-width:1; " id="dummy-2_q2_0_all" points="64,35 69,30 74,30 74,40 69,40 64,35 " class="clusterblast-orf"  />
<polygon locus_tag="cds57419_57668" description="&lt;b&gt;cds57419_57668&lt;/b&gt;&lt;br&gt;Glycosyl transferase, group 1&lt;br&gt;Location: 57419 - 57668" style="stroke:black; fill:white; stroke-width:1; " id="dummy-2_q3_0_all" points="114,40 128,40 133,35 128,30 114,30 114,40 " class="clusterblast-orf"  />
<polygon locus_tag="cds57826_58633" description="&lt;b&gt;cds57826_58633&lt;/b&gt;&lt;br&gt;hypothetical protein&lt;br&gt;Location: 57826 - 58633" style="stroke:black; fill:white; stroke-width:1; " id="dummy-2_q4_0_all" points="146,35 151,30 209,30 209,40 151,40 146,35 " class="clusterblast-orf"  />
<polygon locus_tag="cds58665_59145" description="&lt;b&gt;cds58665_59145&lt;/b&gt;&lt;br&gt;hypothetical protein&lt;br&gt;Location: 58665 - 59145" style="stroke:black; fill:white; stroke-width:1; " id="dummy-2_q5_0_all" points="211,40 244,40 249,35 244,30 211,30 211,40 " class="clusterblast-orf"  />
<polygon locus_tag="cds59141_59531" description="&lt;b&gt;cds59141_59531&lt;/b&gt;&lt;br&gt;hypothetical protein&lt;br&gt;Location: 59141 - 59531" style="stroke:black; fill:white; stroke-width:1; " id="dummy-2_q6_0_all" points="249,40 274,40 279,35 274,30 249,30 249,40 " class="clusterblast-orf"  />
<polygon locus_tag="cds59622_59787" description="&lt;b&gt;cds59622_59787&lt;/b&gt;&lt;br&gt;putative secreted protein&lt;br&gt;Location: 59622 - 59787" style="stroke:black; fill:white; stroke-width:1; " id="dummy-2_q7_0_all" points="286,40 294,40 299,35 294,30 286,30 286,40 " class="clusterblast-orf"  />
<polygon locus_tag="cds59771_59903" description="&lt;b&gt;cds59771_59903&lt;/b&gt;&lt;br&gt;Putative secreted protein&lt;br&gt;Location: 59771 - 59903" style="stroke:black; fill:#d81515; stroke-width:1; " id="dummy-2_q8_0_all" points="298,40 303,40 308,35 303,30 298,30 298,40 " class="clusterblast-orf"  />
<polygon locus_tag="cds59968_60835" description="&lt;b&gt;cds59968_60835&lt;/b&gt;&lt;br&gt;putative tyrosinase&lt;br&gt;Location: 59968 - 60835" style="stroke:black; fill:#15d815; stroke-width:1; " id="dummy-2_q9_0_all" points="313,35 318,30 381,30 381,40 318,40 313,35 " class="clusterblast-orf"  />
<polygon locus_tag="cds60854_61337" description="&lt;b&gt;cds60854_61337&lt;/b&gt;&lt;br&gt;putative tyrosinase co-factor protein&lt;br&gt;Location: 60854 - 61337" style="stroke:black; fill:#1515d8; stroke-width:1; " id="dummy-2_q10_0_all" points="383,35 388,30 421,30 421,40 388,40 383,35 " class="clusterblast-orf"  />
<polygon locus_tag="cds61381_62920" description="&lt;b&gt;cds61381_62920&lt;/b&gt;&lt;br&gt;Cytochrome P450&lt;br&gt;Location: 61381 - 62920" style="stroke:black; fill:white; stroke-width:1; " id="dummy-2_q11_0_all" points="424,40 540,40 545,35 540,30 424,30 424,40 " class="clusterblast-orf"  />
<polygon locus_tag="cds63175_63331" description="&lt;b&gt;cds63175_63331&lt;/b&gt;&lt;br&gt;putative secreted protein&lt;br&gt;Location: 63175 - 63331" style="stroke:black; fill:white; stroke-width:1; " id="dummy-2_q12_0_all" points="564,40 572,40 577,35 572,30 564,30 564,40 " class="clusterblast-orf"  />
<polygon locus_tag="cds63339_63720" description="&lt;b&gt;cds63339_63720&lt;/b&gt;&lt;br&gt;putative secreted protein&lt;br&gt;Location: 63339 - 63720" style="stroke:black; fill:white; stroke-width:1; " id="dummy-2_q13_0_all" points="577,40 602,40 607,35 602,30 577,30 577,40 " class="clusterblast-orf"  />
<polygon locus_tag="cds63716_64457" description="&lt;b&gt;cds63716_64457&lt;/b&gt;&lt;br&gt;hypothetical protein&lt;br&gt;Location: 63716 - 64457" style="stroke:black; fill:white; stroke-width:1; " id="dummy-2_q14_0_all" points="607,40 660,40 665,35 660,30 607,30 607,40 " class="clusterblast-orf"  />
<polygon locus_tag="cds64733_65048" description="&lt;b&gt;cds64733_65048&lt;/b&gt;&lt;br&gt;Uncharacterized, RsbU-domain-containing protein SCO0767&lt;br&gt;Location: 64733 - 65048" style="stroke:black; fill:white; stroke-width:1; " id="dummy-2_q15_0_all" points="686,40 706,40 711,35 706,30 686,30 686,40 " class="clusterblast-orf"  />
<polygon locus_tag="cds65195_65642" description="&lt;b&gt;cds65195_65642&lt;/b&gt;&lt;br&gt;Uncharacterized, RsbU-domain-containing protein SCO0767&lt;br&gt;Location: 65195 - 65642" style="stroke:black; fill:white; stroke-width:1; " id="dummy-2_q16_0_all" points="723,40 753,40 758,35 753,30 723,30 723,40 " class="clusterblast-orf"  />
<polygon locus_tag="cds65688_65931" description="&lt;b&gt;cds65688_65931&lt;/b&gt;&lt;br&gt;Uncharacterized, RsbU-domain-containing protein SCO0767&lt;br&gt;Location: 65688 - 65931" style="stroke:black; fill:white; stroke-width:1; " id="dummy-2_q17_0_all" points="761,40 775,40 780,35 775,30 761,30 761,40 " class="clusterblast-orf"  />
</g>
<g class="clusterblast-cluster" description="BGC0000911_c1: melanin (100% of genes show similarity), Other" label="BGC0000911"  >
<text class="clusterblast-acc" y="70" x="5"  >
<a xlink:href="https://mibig.secondarymetabolites.org/go/BGC0000911/1" target="_blank">BGC0000911</a>:                                                                          melanin (100% of genes show similarity), Other</text>
<line x2="778.0" y1="85" style="stroke:grey; stroke-width:1; " x1="10" y2="85"  />
</g>
<g id="a2_000"  >
<polygon locus_tag="SGR_527" description="&lt;b&gt;SGR_527&lt;/b&gt;&lt;br&gt;putative tyrosinase&lt;br&gt;Location: 1 - 864&lt;br&gt;&lt;br&gt;&lt;b&gt;BlastP hit with cds59968_60835&lt;/b&gt;&lt;br&gt;Percentage identity: 64&lt;br&gt;Percentage coverage: 103&lt;br&gt;BLAST bit score: 356&lt;br&gt;E-value: 4.2e-98" style="stroke:black; fill:#15d815; stroke-width:1; " id="dummy-2_h2_1_0" points="339,85 344,80 407,80 407,90 344,90 339,85 " class="clusterblast-orf"  />
</g>
<g id="a2_001"  >
<polygon locus_tag="SGR_528" description="&lt;b&gt;SGR_528&lt;/b&gt;&lt;br&gt;putative tyrosinase co-factor protein&lt;br&gt;Location: 884 - 1288&lt;br&gt;&lt;br&gt;&lt;b&gt;BlastP hit with cds60854_61337&lt;/b&gt;&lt;br&gt;Percentage identity: 63&lt;br&gt;Percentage coverage: 86&lt;br&gt;BLAST bit score: 137&lt;br&gt;E-value: 1.7e-32" style="stroke:black; fill:#1515d8; stroke-width:1; " id="dummy-2_h2_1_1" points="408,85 413,80 440,80 440,90 413,90 408,85 " class="clusterblast-orf"  />
</g>
</svg>
