<svg preserveAspectRatio="none" height="230" version="1.1" xmlns:xlink="http://www.w3.org/1999/xlink" width="800" viewBox="0 0 800 230" y="0" x="0" xmlns="http://www.w3.org/2000/svg"  >
<g class="clusterblast-cluster" label="Query sequence"  >
<text class="clusterblast-acc" y="20" x="5"  >
Query sequence</text>
<line x2="778.0" y1="35" style="stroke:grey; stroke-width:1; " x1="10" y2="35"  />
<polygon locus_tag="cds130574_130772" description="&lt;b&gt;cds130574_130772&lt;/b&gt;&lt;br&gt;hypothetical protein&lt;br&gt;Location: 130574 - 130772" style="stroke:black; fill:white; stroke-width:1; " id="dummy-1_q0_0_all" points="81,40 87,40 92,35 87,30 81,30 81,40 " class="clusterblast-orf"  />
<polygon locus_tag="cds131116_131293" description="&lt;b&gt;cds131116_131293&lt;/b&gt;&lt;br&gt;hypothetical protein&lt;br&gt;Location: 131116 - 131293" style="stroke:black; fill:white; stroke-width:1; " id="dummy-1_q1_0_all" points="110,40 114,40 119,35 114,30 110,30 110,40 " class="clusterblast-orf"  />
<polygon locus_tag="cds131945_132374" description="&lt;b&gt;cds131945_132374&lt;/b&gt;&lt;br&gt;hypothetical protein&lt;br&gt;Location: 131945 - 132374" style="stroke:black; fill:white; stroke-width:1; " id="dummy-1_q2_0_all" points="154,40 172,40 177,35 172,30 154,30 154,40 " class="clusterblast-orf"  />
<polygon locus_tag="cds132479_133913" description="&lt;b&gt;cds132479_133913&lt;/b&gt;&lt;br&gt;Glutamine--fructose-6-phosphate aminotransferase [isomerizing] (EC 2.6.1.16)&lt;br&gt;Location: 132479 - 133913" style="stroke:black; fill:white; stroke-width:1; " id="dummy-1_q3_0_all" points="183,35 188,30 259,30 259,40 188,40 183,35 " class="clusterblast-orf"  />
<polygon locus_tag="cds133906_134362" description="&lt;b&gt;cds133906_134362&lt;/b&gt;&lt;br&gt;Glutamine--fructose-6-phosphate aminotransferase [isomerizing] (EC 2.6.1.16)&lt;br&gt;Location: 133906 - 134362" style="stroke:black; fill:white; stroke-width:1; " id="dummy-1_q4_0_all" points="258,35 263,30 283,30 283,40 263,40 258,35 " class="clusterblast-orf"  />
<polygon locus_tag="cds134379_134655" description="&lt;b&gt;cds134379_134655&lt;/b&gt;&lt;br&gt;hypothetical protein&lt;br&gt;Location: 134379 - 134655" style="stroke:black; fill:white; stroke-width:1; " id="dummy-1_q5_0_all" points="284,35 289,30 298,30 298,40 289,40 284,35 " class="clusterblast-orf"  />
<polygon locus_tag="cds134740_137236" description="&lt;b&gt;cds134740_137236&lt;/b&gt;&lt;br&gt;Desferrioxamine E biosynthesis protein DesD @ Siderophore synthetase superfamily, group C @ Siderophore synthetase component, ligase&lt;br&gt;Location: 134740 - 137236" style="stroke:black; fill:#d81515; stroke-width:1; " id="dummy-1_q6_0_all" points="303,35 308,30 436,30 436,40 308,40 303,35 " class="clusterblast-orf"  />
<polygon locus_tag="cds137543_138077" description="&lt;b&gt;cds137543_138077&lt;/b&gt;&lt;br&gt;Desferrioxamine E biosynthesis protein DesC @ Siderophore synthetase small component, acetyltransferase&lt;br&gt;Location: 137543 - 138077" style="stroke:black; fill:#15d863; stroke-width:1; " id="dummy-1_q7_0_all" points="452,35 457,30 480,30 480,40 457,40 452,35 " class="clusterblast-orf"  />
<polygon locus_tag="cds138073_138208" description="&lt;b&gt;cds138073_138208&lt;/b&gt;&lt;br&gt;Desferrioxamine E biosynthesis protein DesB @ Siderophore biosynthesis protein, monooxygenase&lt;br&gt;Location: 138073 - 138208" style="stroke:black; fill:#1563d8; stroke-width:1; " id="dummy-1_q8_0_all" points="480,35 485,30 487,30 487,40 485,40 480,35 " class="clusterblast-orf"  />
<polygon locus_tag="cds138357_138486" description="&lt;b&gt;cds138357_138486&lt;/b&gt;&lt;br&gt;Desferrioxamine E biosynthesis protein DesB @ Siderophore biosynthesis protein, monooxygenase&lt;br&gt;Location: 138357 - 138486" style="stroke:black; fill:#1563d8; stroke-width:1; " id="dummy-1_q9_0_all" points="495,35 500,30 502,30 502,40 500,40 495,35 " class="clusterblast-orf"  />
<polygon locus_tag="cds138533_139205" description="&lt;b&gt;cds138533_139205&lt;/b&gt;&lt;br&gt;Desferrioxamine E biosynthesis protein DesB @ Siderophore biosynthesis protein, monooxygenase&lt;br&gt;Location: 138533 - 139205" style="stroke:black; fill:#1563d8; stroke-width:1; " id="dummy-1_q10_0_all" points="505,35 510,30 540,30 540,40 510,40 505,35 " class="clusterblast-orf"  />
<polygon locus_tag="cds139251_140811" description="&lt;b&gt;cds139251_140811&lt;/b&gt;&lt;br&gt;Desferrioxamine E biosynthesis protein DesA @ Siderophore biosynthesis L-2,4-diaminobutyrate decarboxylase&lt;br&gt;Location: 139251 - 140811" style="stroke:black; fill:#b115d8; stroke-width:1; " id="dummy-1_q11_0_all" points="543,35 548,30 626,30 626,40 548,40 543,35 " class="clusterblast-orf"  />
<polygon locus_tag="cds140937_141126" description="&lt;b&gt;cds140937_141126&lt;/b&gt;&lt;br&gt;Hypothetical protein associated with desferrioxamine E biosynthesis&lt;br&gt;Location: 140937 - 141126" style="stroke:black; fill:#b1d815; stroke-width:1; " id="dummy-1_q12_0_all" points="633,35 638,30 643,30 643,40 638,40 633,35 " class="clusterblast-orf"  />
<polygon locus_tag="cds141215_141416" description="&lt;b&gt;cds141215_141416&lt;/b&gt;&lt;br&gt;Hypothetical protein associated with desferrioxamine E biosynthesis&lt;br&gt;Location: 141215 - 141416" style="stroke:black; fill:white; stroke-width:1; " id="dummy-1_q13_0_all" points="647,35 652,30 658,30 658,40 652,40 647,35 " class="clusterblast-orf"  />
<polygon locus_tag="cds141390_141666" description="&lt;b&gt;cds141390_141666&lt;/b&gt;&lt;br&gt;hypothetical protein&lt;br&gt;Location: 141390 - 141666" style="stroke:black; fill:white; stroke-width:1; " id="dummy-1_q14_0_all" points="657,40 666,40 671,35 666,30 657,30 657,40 " class="clusterblast-orf"  />
<polygon locus_tag="cds141662_141776" description="&lt;b&gt;cds141662_141776&lt;/b&gt;&lt;br&gt;hypothetical protein&lt;br&gt;Location: 141662 - 141776" style="stroke:black; fill:white; stroke-width:1; " id="dummy-1_q15_0_all" points="671,40 672,40 677,35 672,30 671,30 671,40 " class="clusterblast-orf"  />
<polygon locus_tag="cds141984_142182" description="&lt;b&gt;cds141984_142182&lt;/b&gt;&lt;br&gt;GCN5-related N-acetyltransferase&lt;br&gt;Location: 141984 - 142182" style="stroke:black; fill:white; stroke-width:1; " id="dummy-1_q16_0_all" points="688,35 693,30 699,30 699,40 693,40 688,35 " class="clusterblast-orf"  />
</g>
<g class="clusterblast-cluster" description="BGC0001870_c1: putrebactin / avaroferrin (40% of genes show similarity), Other" label="BGC0001870"  >
<text class="clusterblast-acc" y="70" x="5"  >
<a xlink:href="https://mibig.secondarymetabolites.org/go/BGC0001870/1" target="_blank">BGC0001870</a>:                                                        putrebactin / avaroferrin (40% of genes show similarity), Other</text>
<line x2="778.0" y1="85" style="stroke:grey; stroke-width:1; " x1="10" y2="85"  />
</g>
<g id="a1_000"  >
<polygon locus_tag="Xbud_00370" description="&lt;b&gt;Xbud_00370&lt;/b&gt;&lt;br&gt;desferrioxamine siderophore biosynthesis protein dfoC&lt;br&gt;Location: 14658 - 12253&lt;br&gt;&lt;br&gt;&lt;b&gt;BlastP hit with cds134740_137236&lt;/b&gt;&lt;br&gt;Percentage identity: 49&lt;br&gt;Percentage coverage: 58&lt;br&gt;BLAST bit score: 500&lt;br&gt;E-value: 6.8e-141" style="stroke:black; fill:#d81515; stroke-width:1; " id="dummy-1_h1_6_0" points="0,85 5,80 127,80 127,90 5,90 0,85 " class="clusterblast-orf"  />
</g>
<g id="a1_001"  >
<polygon locus_tag="Xbud_00369" description="&lt;b&gt;Xbud_00369&lt;/b&gt;&lt;br&gt;L-lysine 6-monooxygenase involved in desferrioxamine biosynthesis&lt;br&gt;Location: 12253 - 10934&lt;br&gt;&lt;br&gt;&lt;b&gt;BlastP hit with cds138533_139205&lt;/b&gt;&lt;br&gt;Percentage identity: 51&lt;br&gt;Percentage coverage: 89&lt;br&gt;BLAST bit score: 187&lt;br&gt;E-value: 2e-47" style="stroke:black; fill:#1563d8; stroke-width:1; " id="dummy-1_h1_6_1" points="127,85 132,80 198,80 198,90 132,90 127,85 " class="clusterblast-orf"  />
</g>
<g id="a1_002"  >
<polygon locus_tag="Xbud_00368" description="&lt;b&gt;Xbud_00368&lt;/b&gt;&lt;br&gt;putative decarboxylase involved in desferrioxamine biosynthesis&lt;br&gt;Location: 10907 - 9291&lt;br&gt;&lt;br&gt;&lt;b&gt;BlastP hit with cds139251_140811&lt;/b&gt;&lt;br&gt;Percentage identity: 58&lt;br&gt;Percentage coverage: 60&lt;br&gt;BLAST bit score: 368&lt;br&gt;E-value: 1.9e-101" style="stroke:black; fill:#b115d8; stroke-width:1; " id="dummy-1_h1_6_2" points="199,85 204,80 285,80 285,90 204,90 199,85 " class="clusterblast-orf"  />
</g>
<g id="a1_003"  >
<polygon locus_tag="Xbud_00367" description="&lt;b&gt;Xbud_00367&lt;/b&gt;&lt;br&gt;putative iron transport-related membrane protein&lt;br&gt;Location: 8872 - 8105" style="stroke:black; fill:white; stroke-width:1; " id="dummy-1_h1_6_3" points="307,85 312,80 348,80 348,90 312,90 307,85 " class="clusterblast-orf"  />
</g>
<g id="a1_004"  >
<polygon locus_tag="Xbud_00366" description="&lt;b&gt;Xbud_00366&lt;/b&gt;&lt;br&gt;hypothetical protein&lt;br&gt;Location: 8103 - 7288" style="stroke:black; fill:white; stroke-width:1; " id="dummy-1_h1_6_4" points="348,85 353,80 392,80 392,90 353,90 348,85 " class="clusterblast-orf"  />
</g>
<g id="a1_005"  >
<polygon locus_tag="Xbud_00365" description="&lt;b&gt;Xbud_00365&lt;/b&gt;&lt;br&gt;putative ferrichrome ABC transporter permease&lt;br&gt;Location: 7288 - 6236" style="stroke:black; fill:white; stroke-width:1; " id="dummy-1_h1_6_5" points="392,85 397,80 448,80 448,90 397,90 392,85 " class="clusterblast-orf"  />
</g>
<g id="a1_006"  >
<polygon locus_tag="Xbud_00364" description="&lt;b&gt;Xbud_00364&lt;/b&gt;&lt;br&gt;hypothetical protein&lt;br&gt;Location: 6231 - 5221" style="stroke:black; fill:white; stroke-width:1; " id="dummy-1_h1_6_6" points="448,85 453,80 502,80 502,90 453,90 448,85 " class="clusterblast-orf"  />
</g>
<g id="a1_007"  >
<polygon locus_tag="Xbud_00363" description="&lt;b&gt;Xbud_00363&lt;/b&gt;&lt;br&gt;putative lipoprotein&lt;br&gt;Location: 5234 - 4176" style="stroke:black; fill:white; stroke-width:1; " id="dummy-1_h1_6_7" points="501,85 506,80 557,80 557,90 506,90 501,85 " class="clusterblast-orf"  />
</g>
<g id="a1_008"  >
<polygon locus_tag="Xbud_00362" description="&lt;b&gt;Xbud_00362&lt;/b&gt;&lt;br&gt;ferric alcaligin siderophore receptor&lt;br&gt;Location: 4108 - 1895" style="stroke:black; fill:white; stroke-width:1; " id="dummy-1_h1_6_8" points="561,85 566,80 679,80 679,90 566,90 561,85 " class="clusterblast-orf"  />
</g>
<g id="a1_009"  >
<polygon locus_tag="Xbud_00361" description="&lt;b&gt;Xbud_00361&lt;/b&gt;&lt;br&gt;desferrioxamine siderophore biosynthesis protein dfoC&lt;br&gt;Location: 1812 - 1&lt;br&gt;&lt;br&gt;&lt;b&gt;BlastP hit with cds134740_137236&lt;/b&gt;&lt;br&gt;Percentage identity: 49&lt;br&gt;Percentage coverage: 60&lt;br&gt;BLAST bit score: 516&lt;br&gt;E-value: 7e-146" style="stroke:black; fill:#d81515; stroke-width:1; " id="dummy-1_h1_6_9" points="683,85 688,80 780,80 780,90 688,90 683,85 " class="clusterblast-orf"  />
</g>
</svg>
