<svg preserveAspectRatio="none" height="230" version="1.1" xmlns:xlink="http://www.w3.org/1999/xlink" width="800" viewBox="0 0 800 230" y="0" x="0" xmlns="http://www.w3.org/2000/svg"  >
<g class="clusterblast-cluster" label="Query sequence"  >
<text class="clusterblast-acc" y="20" x="5"  >
Query sequence</text>
<line x2="778.0" y1="35" style="stroke:grey; stroke-width:1; " x1="10" y2="35"  />
<polygon locus_tag="cds11080_11572" description="&lt;b&gt;cds11080_11572&lt;/b&gt;&lt;br&gt;Phosphoribosylformylglycinamidine synthase, synthetase subunit (EC 6.3.5.3)&lt;br&gt;Location: 11080 - 11572" style="stroke:black; fill:white; stroke-width:1; " id="dummy-1_q0_0_all" points="233,40 236,35 233,30 233,40 " class="clusterblast-orf"  />
<polygon locus_tag="cds11582_12266" description="&lt;b&gt;cds11582_12266&lt;/b&gt;&lt;br&gt;Phosphoribosylformylglycinamidine synthase, synthetase subunit (EC 6.3.5.3)&lt;br&gt;Location: 11582 - 12266" style="stroke:black; fill:white; stroke-width:1; " id="dummy-1_q1_0_all" points="236,40 240,35 236,30 236,40 " class="clusterblast-orf"  />
<polygon locus_tag="cds12398_12512" description="&lt;b&gt;cds12398_12512&lt;/b&gt;&lt;br&gt;FIG01123734: hypothetical protein&lt;br&gt;Location: 12398 - 12512" style="stroke:black; fill:white; stroke-width:1; " id="dummy-1_q2_0_all" points="241,40 241,35 241,30 241,40 " class="clusterblast-orf"  />
<polygon locus_tag="cds12556_12886" description="&lt;b&gt;cds12556_12886&lt;/b&gt;&lt;br&gt;hypothetical protein&lt;br&gt;Location: 12556 - 12886" style="stroke:black; fill:white; stroke-width:1; " id="dummy-1_q3_0_all" points="242,40 244,35 242,30 242,40 " class="clusterblast-orf"  />
<polygon locus_tag="cds12933_13395" description="&lt;b&gt;cds12933_13395&lt;/b&gt;&lt;br&gt;secreted peptidase&lt;br&gt;Location: 12933 - 13395" style="stroke:black; fill:white; stroke-width:1; " id="dummy-1_q4_0_all" points="244,40 247,35 244,30 244,40 " class="clusterblast-orf"  />
<polygon locus_tag="cds13391_13718" description="&lt;b&gt;cds13391_13718&lt;/b&gt;&lt;br&gt;FIG01124241: hypothetical protein&lt;br&gt;Location: 13391 - 13718" style="stroke:black; fill:white; stroke-width:1; " id="dummy-1_q5_0_all" points="247,40 249,35 247,30 247,40 " class="clusterblast-orf"  />
<polygon locus_tag="cds13831_14629" description="&lt;b&gt;cds13831_14629&lt;/b&gt;&lt;br&gt;Uncharacterized domain SCO4084.N / Uncharacterized protein MSMEG 5817&lt;br&gt;Location: 13831 - 14629" style="stroke:black; fill:white; stroke-width:1; " id="dummy-1_q6_0_all" points="250,40 250,40 255,35 250,30 250,30 250,40 " class="clusterblast-orf"  />
<polygon locus_tag="cds14712_14991" description="&lt;b&gt;cds14712_14991&lt;/b&gt;&lt;br&gt;hypothetical protein&lt;br&gt;Location: 14712 - 14991" style="stroke:black; fill:white; stroke-width:1; " id="dummy-1_q7_0_all" points="255,40 257,35 255,30 255,40 " class="clusterblast-orf"  />
<polygon locus_tag="cds15084_15564" description="&lt;b&gt;cds15084_15564&lt;/b&gt;&lt;br&gt;hypothetical protein&lt;br&gt;Location: 15084 - 15564" style="stroke:black; fill:white; stroke-width:1; " id="dummy-1_q8_0_all" points="257,40 260,35 257,30 257,40 " class="clusterblast-orf"  />
<polygon locus_tag="cds15638_15773" description="&lt;b&gt;cds15638_15773&lt;/b&gt;&lt;br&gt;hypothetical protein&lt;br&gt;Location: 15638 - 15773" style="stroke:black; fill:white; stroke-width:1; " id="dummy-1_q9_0_all" points="261,35 262,30 262,40 261,35 " class="clusterblast-orf"  />
<polygon locus_tag="cds15769_16177" description="&lt;b&gt;cds15769_16177&lt;/b&gt;&lt;br&gt;hypothetical protein&lt;br&gt;Location: 15769 - 16177" style="stroke:black; fill:white; stroke-width:1; " id="dummy-1_q10_0_all" points="262,35 264,30 264,40 262,35 " class="clusterblast-orf"  />
<polygon locus_tag="cds16206_16830" description="&lt;b&gt;cds16206_16830&lt;/b&gt;&lt;br&gt;Amidophosphoribosyltransferase (EC 2.4.2.14)&lt;br&gt;Location: 16206 - 16830" style="stroke:black; fill:white; stroke-width:1; " id="dummy-1_q11_0_all" points="264,40 268,35 264,30 264,40 " class="clusterblast-orf"  />
<polygon locus_tag="cds16915_17053" description="&lt;b&gt;cds16915_17053&lt;/b&gt;&lt;br&gt;hypothetical protein&lt;br&gt;Location: 16915 - 17053" style="stroke:black; fill:white; stroke-width:1; " id="dummy-1_q12_0_all" points="269,35 269,30 269,40 269,35 " class="clusterblast-orf"  />
<polygon locus_tag="cds17071_17425" description="&lt;b&gt;cds17071_17425&lt;/b&gt;&lt;br&gt;Amidophosphoribosyltransferase (EC 2.4.2.14)&lt;br&gt;Location: 17071 - 17425" style="stroke:black; fill:white; stroke-width:1; " id="dummy-1_q13_0_all" points="270,40 272,35 270,30 270,40 " class="clusterblast-orf"  />
<polygon locus_tag="cds17500_18496" description="&lt;b&gt;cds17500_18496&lt;/b&gt;&lt;br&gt;Phosphoribosylformylglycinamidine cyclo-ligase (EC 6.3.3.1)&lt;br&gt;Location: 17500 - 18496" style="stroke:black; fill:white; stroke-width:1; " id="dummy-1_q14_0_all" points="272,40 273,40 278,35 273,30 272,30 272,40 " class="clusterblast-orf"  />
<polygon locus_tag="cds18695_18953" description="&lt;b&gt;cds18695_18953&lt;/b&gt;&lt;br&gt;Uncharacterized protein SCO4088&lt;br&gt;Location: 18695 - 18953" style="stroke:black; fill:white; stroke-width:1; " id="dummy-1_q15_0_all" points="280,35 281,30 281,40 280,35 " class="clusterblast-orf"  />
<polygon locus_tag="cds19234_19906" description="&lt;b&gt;cds19234_19906&lt;/b&gt;&lt;br&gt;Branched-chain amino acid dehydrogenase [deaminating] (EC 1.4.1.9)(EC 1.4.1.23)&lt;br&gt;Location: 19234 - 19906" style="stroke:black; fill:white; stroke-width:1; " id="dummy-1_q16_0_all" points="283,35 287,30 287,40 283,35 " class="clusterblast-orf"  />
<polygon locus_tag="cds20040_20157" description="&lt;b&gt;cds20040_20157&lt;/b&gt;&lt;br&gt;hypothetical protein&lt;br&gt;Location: 20040 - 20157" style="stroke:black; fill:white; stroke-width:1; " id="dummy-1_q17_0_all" points="288,40 289,35 288,30 288,40 " class="clusterblast-orf"  />
<polygon locus_tag="cds20491_21109" description="&lt;b&gt;cds20491_21109&lt;/b&gt;&lt;br&gt;hypothetical protein&lt;br&gt;Location: 20491 - 21109" style="stroke:black; fill:white; stroke-width:1; " id="dummy-1_q18_0_all" points="291,40 294,35 291,30 291,40 " class="clusterblast-orf"  />
<polygon locus_tag="cds21123_21354" description="&lt;b&gt;cds21123_21354&lt;/b&gt;&lt;br&gt;hypothetical protein&lt;br&gt;Location: 21123 - 21354" style="stroke:black; fill:white; stroke-width:1; " id="dummy-1_q19_0_all" points="294,40 296,35 294,30 294,40 " class="clusterblast-orf"  />
<polygon locus_tag="cds21750_21873" description="&lt;b&gt;cds21750_21873&lt;/b&gt;&lt;br&gt;hypothetical protein&lt;br&gt;Location: 21750 - 21873" style="stroke:black; fill:white; stroke-width:1; " id="dummy-1_q20_0_all" points="298,40 299,35 298,30 298,40 " class="clusterblast-orf"  />
<polygon locus_tag="cds22006_22213" description="&lt;b&gt;cds22006_22213&lt;/b&gt;&lt;br&gt;Putative DNA-binding protein&lt;br&gt;Location: 22006 - 22213" style="stroke:black; fill:white; stroke-width:1; " id="dummy-1_q21_0_all" points="300,40 301,35 300,30 300,40 " class="clusterblast-orf"  />
<polygon locus_tag="cds22372_22651" description="&lt;b&gt;cds22372_22651&lt;/b&gt;&lt;br&gt;hypothetical protein&lt;br&gt;Location: 22372 - 22651" style="stroke:black; fill:white; stroke-width:1; " id="dummy-1_q22_0_all" points="302,35 304,30 304,40 302,35 " class="clusterblast-orf"  />
<polygon locus_tag="cds23292_25761" description="&lt;b&gt;cds23292_25761&lt;/b&gt;&lt;br&gt;ATP-dependent helicase HrpA&lt;br&gt;Location: 23292 - 25761" style="stroke:black; fill:white; stroke-width:1; " id="dummy-1_q23_0_all" points="308,35 313,30 323,30 323,40 313,40 308,35 " class="clusterblast-orf"  />
<polygon locus_tag="cds25857_27333" description="&lt;b&gt;cds25857_27333&lt;/b&gt;&lt;br&gt;ATP-dependent helicase HrpA&lt;br&gt;Location: 25857 - 27333" style="stroke:black; fill:white; stroke-width:1; " id="dummy-1_q24_0_all" points="324,35 329,30 333,30 333,40 329,40 324,35 " class="clusterblast-orf"  />
<polygon locus_tag="cds27465_27876" description="&lt;b&gt;cds27465_27876&lt;/b&gt;&lt;br&gt;hypothetical protein&lt;br&gt;Location: 27465 - 27876" style="stroke:black; fill:white; stroke-width:1; " id="dummy-1_q25_0_all" points="334,40 336,35 334,30 334,40 " class="clusterblast-orf"  />
<polygon locus_tag="cds27944_28739" description="&lt;b&gt;cds27944_28739&lt;/b&gt;&lt;br&gt;hypothetical protein&lt;br&gt;Location: 27944 - 28739" style="stroke:black; fill:white; stroke-width:1; " id="dummy-1_q26_0_all" points="336,40 336,40 341,35 336,30 336,30 336,40 " class="clusterblast-orf"  />
<polygon locus_tag="cds28752_28875" description="&lt;b&gt;cds28752_28875&lt;/b&gt;&lt;br&gt;hypothetical protein&lt;br&gt;Location: 28752 - 28875" style="stroke:black; fill:white; stroke-width:1; " id="dummy-1_q27_0_all" points="341,35 342,30 342,40 341,35 " class="clusterblast-orf"  />
<polygon locus_tag="cds29933_30344" description="&lt;b&gt;cds29933_30344&lt;/b&gt;&lt;br&gt;hypothetical protein&lt;br&gt;Location: 29933 - 30344" style="stroke:black; fill:white; stroke-width:1; " id="dummy-1_q28_0_all" points="349,40 351,35 349,30 349,40 " class="clusterblast-orf"  />
<polygon locus_tag="cds30473_30665" description="&lt;b&gt;cds30473_30665&lt;/b&gt;&lt;br&gt;hypothetical protein&lt;br&gt;Location: 30473 - 30665" style="stroke:black; fill:#d81515; stroke-width:1; " id="dummy-1_q29_0_all" points="352,40 353,35 352,30 352,40 " class="clusterblast-orf"  />
<polygon locus_tag="cds30646_31738" description="&lt;b&gt;cds30646_31738&lt;/b&gt;&lt;br&gt;Long-chain-fatty-acid--CoA ligase (EC 6.2.1.3)&lt;br&gt;Location: 30646 - 31738" style="stroke:black; fill:#d81515; stroke-width:1; " id="dummy-1_q30_0_all" points="353,40 355,40 360,35 355,30 353,30 353,40 " class="clusterblast-orf"  />
<polygon locus_tag="cds31974_32178" description="&lt;b&gt;cds31974_32178&lt;/b&gt;&lt;br&gt;hypothetical protein&lt;br&gt;Location: 31974 - 32178" style="stroke:black; fill:white; stroke-width:1; " id="dummy-1_q31_0_all" points="361,35 363,30 363,40 361,35 " class="clusterblast-orf"  />
<polygon locus_tag="cds32178_32748" description="&lt;b&gt;cds32178_32748&lt;/b&gt;&lt;br&gt;hypothetical protein&lt;br&gt;Location: 32178 - 32748" style="stroke:black; fill:white; stroke-width:1; " id="dummy-1_q32_0_all" points="363,35 366,30 366,40 363,35 " class="clusterblast-orf"  />
<polygon locus_tag="cds32838_33564" description="&lt;b&gt;cds32838_33564&lt;/b&gt;&lt;br&gt;hypothetical protein&lt;br&gt;Location: 32838 - 33564" style="stroke:black; fill:white; stroke-width:1; " id="dummy-1_q33_0_all" points="367,35 371,30 371,40 367,35 " class="clusterblast-orf"  />
<polygon locus_tag="cds33880_34450" description="&lt;b&gt;cds33880_34450&lt;/b&gt;&lt;br&gt;hypothetical protein&lt;br&gt;Location: 33880 - 34450" style="stroke:black; fill:white; stroke-width:1; " id="dummy-1_q34_0_all" points="373,35 377,30 377,40 373,35 " class="clusterblast-orf"  />
<polygon locus_tag="cds34629_34881" description="&lt;b&gt;cds34629_34881&lt;/b&gt;&lt;br&gt;hypothetical protein&lt;br&gt;Location: 34629 - 34881" style="stroke:black; fill:white; stroke-width:1; " id="dummy-1_q35_0_all" points="378,35 379,30 379,40 378,35 " class="clusterblast-orf"  />
<polygon locus_tag="cds34949_36047" description="&lt;b&gt;cds34949_36047&lt;/b&gt;&lt;br&gt;Long-chain-fatty-acid--CoA ligase (EC 6.2.1.3)&lt;br&gt;Location: 34949 - 36047" style="stroke:black; fill:#d81515; stroke-width:1; " id="dummy-1_q36_0_all" points="380,40 381,40 386,35 381,30 380,30 380,40 " class="clusterblast-orf"  />
<polygon locus_tag="cds36084_36468" description="&lt;b&gt;cds36084_36468&lt;/b&gt;&lt;br&gt;hypothetical protein&lt;br&gt;Location: 36084 - 36468" style="stroke:black; fill:#d81515; stroke-width:1; " id="dummy-1_q37_0_all" points="387,40 389,35 387,30 387,40 " class="clusterblast-orf"  />
<polygon locus_tag="cds36460_36898" description="&lt;b&gt;cds36460_36898&lt;/b&gt;&lt;br&gt;hypothetical protein&lt;br&gt;Location: 36460 - 36898" style="stroke:black; fill:white; stroke-width:1; " id="dummy-1_q38_0_all" points="389,35 392,30 392,40 389,35 " class="clusterblast-orf"  />
<polygon locus_tag="cds36896_37640" description="&lt;b&gt;cds36896_37640&lt;/b&gt;&lt;br&gt;Polyketide synthase modules and related proteins&lt;br&gt;Location: 36896 - 37640" style="stroke:black; fill:#d81515; stroke-width:1; " id="dummy-1_q39_0_all" points="392,40 396,35 392,30 392,40 " class="clusterblast-orf"  />
<polygon locus_tag="cds37636_37816" description="&lt;b&gt;cds37636_37816&lt;/b&gt;&lt;br&gt;hypothetical protein&lt;br&gt;Location: 37636 - 37816" style="stroke:black; fill:white; stroke-width:1; " id="dummy-1_q40_0_all" points="396,40 397,35 396,30 396,40 " class="clusterblast-orf"  />
<polygon locus_tag="cds37803_38232" description="&lt;b&gt;cds37803_38232&lt;/b&gt;&lt;br&gt;Long-chain-fatty-acid--CoA ligase (EC 6.2.1.3)&lt;br&gt;Location: 37803 - 38232" style="stroke:black; fill:#d81515; stroke-width:1; " id="dummy-1_q41_0_all" points="397,40 400,35 397,30 397,40 " class="clusterblast-orf"  />
<polygon locus_tag="cds38248_38599" description="&lt;b&gt;cds38248_38599&lt;/b&gt;&lt;br&gt;Long-chain-fatty-acid--CoA ligase (EC 6.2.1.3)&lt;br&gt;Location: 38248 - 38599" style="stroke:black; fill:#d81515; stroke-width:1; " id="dummy-1_q42_0_all" points="400,40 402,35 400,30 400,40 " class="clusterblast-orf"  />
<polygon locus_tag="cds38646_38985" description="&lt;b&gt;cds38646_38985&lt;/b&gt;&lt;br&gt;hypothetical protein&lt;br&gt;Location: 38646 - 38985" style="stroke:black; fill:white; stroke-width:1; " id="dummy-1_q43_0_all" points="402,35 404,30 404,40 402,35 " class="clusterblast-orf"  />
<polygon locus_tag="cds38995_39217" description="&lt;b&gt;cds38995_39217&lt;/b&gt;&lt;br&gt;hypothetical protein&lt;br&gt;Location: 38995 - 39217" style="stroke:black; fill:#d81515; stroke-width:1; " id="dummy-1_q44_0_all" points="404,40 406,35 404,30 404,40 " class="clusterblast-orf"  />
<polygon locus_tag="cds39304_41053" description="&lt;b&gt;cds39304_41053&lt;/b&gt;&lt;br&gt;hypothetical protein&lt;br&gt;Location: 39304 - 41053" style="stroke:black; fill:#d81515; stroke-width:1; " id="dummy-1_q45_0_all" points="406,40 412,40 417,35 412,30 406,30 406,40 " class="clusterblast-orf"  />
<polygon locus_tag="cds41049_41451" description="&lt;b&gt;cds41049_41451&lt;/b&gt;&lt;br&gt;Long-chain-fatty-acid--CoA ligase (EC 6.2.1.3)&lt;br&gt;Location: 41049 - 41451" style="stroke:black; fill:#d81515; stroke-width:1; " id="dummy-1_q46_0_all" points="417,40 420,35 417,30 417,40 " class="clusterblast-orf"  />
<polygon locus_tag="cds41420_42347" description="&lt;b&gt;cds41420_42347&lt;/b&gt;&lt;br&gt;hypothetical protein&lt;br&gt;Location: 41420 - 42347" style="stroke:black; fill:#d81515; stroke-width:1; " id="dummy-1_q47_0_all" points="419,40 420,40 425,35 420,30 419,30 419,40 " class="clusterblast-orf"  />
<polygon locus_tag="cds42376_42520" description="&lt;b&gt;cds42376_42520&lt;/b&gt;&lt;br&gt;hypothetical protein&lt;br&gt;Location: 42376 - 42520" style="stroke:black; fill:white; stroke-width:1; " id="dummy-1_q48_0_all" points="425,35 426,30 426,40 425,35 " class="clusterblast-orf"  />
<polygon locus_tag="cds42678_43737" description="&lt;b&gt;cds42678_43737&lt;/b&gt;&lt;br&gt;hypothetical protein&lt;br&gt;Location: 42678 - 43737" style="stroke:black; fill:white; stroke-width:1; " id="dummy-1_q49_0_all" points="427,35 432,30 434,30 434,40 432,40 427,35 " class="clusterblast-orf"  />
<polygon locus_tag="cds43855_44812" description="&lt;b&gt;cds43855_44812&lt;/b&gt;&lt;br&gt;Polyketide synthase modules and related proteins&lt;br&gt;Location: 43855 - 44812" style="stroke:black; fill:#d81515; stroke-width:1; " id="dummy-1_q50_0_all" points="434,40 435,40 440,35 435,30 434,30 434,40 " class="clusterblast-orf"  />
<polygon locus_tag="cds44922_45960" description="&lt;b&gt;cds44922_45960&lt;/b&gt;&lt;br&gt;Polyketide synthase modules and related proteins&lt;br&gt;Location: 44922 - 45960" style="stroke:black; fill:#d81515; stroke-width:1; " id="dummy-1_q51_0_all" points="441,40 442,40 447,35 442,30 441,30 441,40 " class="clusterblast-orf"  />
<polygon locus_tag="cds46075_48595" description="&lt;b&gt;cds46075_48595&lt;/b&gt;&lt;br&gt;Siderophore biosynthesis non-ribosomal peptide synthetase modules&lt;br&gt;Location: 46075 - 48595" style="stroke:black; fill:#d81515; stroke-width:1; " id="dummy-1_q52_0_all" points="448,40 459,40 464,35 459,30 448,30 448,40 " class="clusterblast-orf"  />
<polygon locus_tag="cds48548_51185" description="&lt;b&gt;cds48548_51185&lt;/b&gt;&lt;br&gt;Polyketide synthase modules and related proteins&lt;br&gt;Location: 48548 - 51185" style="stroke:black; fill:#d81515; stroke-width:1; " id="dummy-1_q53_0_all" points="463,40 475,40 480,35 475,30 463,30 463,40 " class="clusterblast-orf"  />
<polygon locus_tag="cds51186_52017" description="&lt;b&gt;cds51186_52017&lt;/b&gt;&lt;br&gt;Long-chain-fatty-acid--CoA ligase (EC 6.2.1.3)&lt;br&gt;Location: 51186 - 52017" style="stroke:black; fill:#d81515; stroke-width:1; " id="dummy-1_q54_0_all" points="480,40 480,40 485,35 480,30 480,30 480,40 " class="clusterblast-orf"  />
<polygon locus_tag="cds51995_52109" description="&lt;b&gt;cds51995_52109&lt;/b&gt;&lt;br&gt;Siderophore biosynthesis non-ribosomal peptide synthetase modules&lt;br&gt;Location: 51995 - 52109" style="stroke:black; fill:#d81515; stroke-width:1; " id="dummy-1_q55_0_all" points="484,40 485,35 484,30 484,40 " class="clusterblast-orf"  />
<polygon locus_tag="cds52137_52686" description="&lt;b&gt;cds52137_52686&lt;/b&gt;&lt;br&gt;hypothetical protein&lt;br&gt;Location: 52137 - 52686" style="stroke:black; fill:white; stroke-width:1; " id="dummy-1_q56_0_all" points="485,35 489,30 489,40 485,35 " class="clusterblast-orf"  />
<polygon locus_tag="cds52736_53486" description="&lt;b&gt;cds52736_53486&lt;/b&gt;&lt;br&gt;hypothetical protein&lt;br&gt;Location: 52736 - 53486" style="stroke:black; fill:#d81515; stroke-width:1; " id="dummy-1_q57_0_all" points="489,40 489,40 494,35 489,30 489,30 489,40 " class="clusterblast-orf"  />
<polygon locus_tag="cds53797_53965" description="&lt;b&gt;cds53797_53965&lt;/b&gt;&lt;br&gt;hypothetical protein&lt;br&gt;Location: 53797 - 53965" style="stroke:black; fill:white; stroke-width:1; " id="dummy-1_q58_0_all" points="496,35 497,30 497,40 496,35 " class="clusterblast-orf"  />
<polygon locus_tag="cds53985_54339" description="&lt;b&gt;cds53985_54339&lt;/b&gt;&lt;br&gt;hypothetical protein&lt;br&gt;Location: 53985 - 54339" style="stroke:black; fill:white; stroke-width:1; " id="dummy-1_q59_0_all" points="497,35 499,30 499,40 497,35 " class="clusterblast-orf"  />
<polygon locus_tag="cds54419_55037" description="&lt;b&gt;cds54419_55037&lt;/b&gt;&lt;br&gt;Long-chain-fatty-acid--CoA ligase (EC 6.2.1.3)&lt;br&gt;Location: 54419 - 55037" style="stroke:black; fill:#d81515; stroke-width:1; " id="dummy-1_q60_0_all" points="499,40 503,35 499,30 499,40 " class="clusterblast-orf"  />
<polygon locus_tag="cds55304_55874" description="&lt;b&gt;cds55304_55874&lt;/b&gt;&lt;br&gt;Siderophore biosynthesis non-ribosomal peptide synthetase modules&lt;br&gt;Location: 55304 - 55874" style="stroke:black; fill:#d81515; stroke-width:1; " id="dummy-1_q61_0_all" points="505,40 508,35 505,30 505,40 " class="clusterblast-orf"  />
<polygon locus_tag="cds55896_57171" description="&lt;b&gt;cds55896_57171&lt;/b&gt;&lt;br&gt;hypothetical protein&lt;br&gt;Location: 55896 - 57171" style="stroke:black; fill:#d81515; stroke-width:1; " id="dummy-1_q62_0_all" points="509,40 511,40 516,35 511,30 509,30 509,40 " class="clusterblast-orf"  />
<polygon locus_tag="cds57167_58145" description="&lt;b&gt;cds57167_58145&lt;/b&gt;&lt;br&gt;Polyketide synthase modules and related proteins&lt;br&gt;Location: 57167 - 58145" style="stroke:black; fill:#d81515; stroke-width:1; " id="dummy-1_q63_0_all" points="516,40 517,40 522,35 517,30 516,30 516,40 " class="clusterblast-orf"  />
<polygon locus_tag="cds58243_59206" description="&lt;b&gt;cds58243_59206&lt;/b&gt;&lt;br&gt;Polyketide synthase modules and related proteins&lt;br&gt;Location: 58243 - 59206" style="stroke:black; fill:#d81515; stroke-width:1; " id="dummy-1_q64_0_all" points="523,40 524,40 529,35 524,30 523,30 523,40 " class="clusterblast-orf"  />
<polygon locus_tag="cds59478_60921" description="&lt;b&gt;cds59478_60921&lt;/b&gt;&lt;br&gt;Long-chain-fatty-acid--CoA ligase (EC 6.2.1.3)&lt;br&gt;Location: 59478 - 60921" style="stroke:black; fill:#d81515; stroke-width:1; " id="dummy-1_q65_0_all" points="531,40 534,40 539,35 534,30 531,30 531,40 " class="clusterblast-orf"  />
<polygon locus_tag="cds61102_62062" description="&lt;b&gt;cds61102_62062&lt;/b&gt;&lt;br&gt;Siderophore biosynthesis non-ribosomal peptide synthetase modules&lt;br&gt;Location: 61102 - 62062" style="stroke:black; fill:#d81515; stroke-width:1; " id="dummy-1_q66_0_all" points="541,40 541,40 546,35 541,30 541,30 541,40 " class="clusterblast-orf"  />
</g>
<g class="clusterblast-cluster" description="BGC0000291_c1: A54145 (6% of genes show similarity), NRP" label="BGC0000291"  >
<text class="clusterblast-acc" y="70" x="5"  >
<a xlink:href="https://mibig.secondarymetabolites.org/go/BGC0000291/1" target="_blank">BGC0000291</a>:                                                                           A54145 (6% of genes show similarity), NRP</text>
<line x2="778.0" y1="85" style="stroke:grey; stroke-width:1; " x1="10" y2="85"  />
</g>
<g id="a1_000"  >
<polygon locus_tag="AAZ23044.1" description="&lt;b&gt;AAZ23044.1&lt;/b&gt;&lt;br&gt;hypothetical protein&lt;br&gt;Location: 1 - 851" style="stroke:black; fill:white; stroke-width:1; " id="dummy-1_h1_8_0" points="0,90 0,90 5,85 0,80 0,80 0,90 " class="clusterblast-orf"  />
</g>
<g id="a1_001"  >
<polygon locus_tag="AAZ23045.1" description="&lt;b&gt;AAZ23045.1&lt;/b&gt;&lt;br&gt;probable p-aminobenzoyl-glutamate transporter&lt;br&gt;Location: 848 - 2473" style="stroke:black; fill:white; stroke-width:1; " id="dummy-1_h1_8_1" points="5,90 10,90 15,85 10,80 5,80 5,90 " class="clusterblast-orf"  />
</g>
<g id="a1_002"  >
<polygon locus_tag="AAZ23046.1" description="&lt;b&gt;AAZ23046.1&lt;/b&gt;&lt;br&gt;probable histidine ammonia-lyase&lt;br&gt;Location: 3365 - 4900" style="stroke:black; fill:white; stroke-width:1; " id="dummy-1_h1_8_2" points="20,85 25,80 30,80 30,90 25,90 20,85 " class="clusterblast-orf"  />
</g>
<g id="a1_003"  >
<polygon locus_tag="AAZ23047.1" description="&lt;b&gt;AAZ23047.1&lt;/b&gt;&lt;br&gt;transcriptional regulator&lt;br&gt;Location: 5048 - 5815" style="stroke:black; fill:white; stroke-width:1; " id="dummy-1_h1_8_3" points="31,90 35,85 31,80 31,90 " class="clusterblast-orf"  />
</g>
<g id="a1_004"  >
<polygon locus_tag="AAZ23048.1" description="&lt;b&gt;AAZ23048.1&lt;/b&gt;&lt;br&gt;probable hydrolase&lt;br&gt;Location: 6739 - 7635" style="stroke:black; fill:white; stroke-width:1; " id="dummy-1_h1_8_4" points="41,90 41,90 46,85 41,80 41,80 41,90 " class="clusterblast-orf"  />
</g>
<g id="a1_005"  >
<polygon locus_tag="AAZ23049.1" description="&lt;b&gt;AAZ23049.1&lt;/b&gt;&lt;br&gt;possible oxidoreductase&lt;br&gt;Location: 8966 - 10024" style="stroke:black; fill:white; stroke-width:1; " id="dummy-1_h1_8_5" points="55,90 56,90 61,85 56,80 55,80 55,90 " class="clusterblast-orf"  />
</g>
<g id="a1_006"  >
<polygon locus_tag="AAZ23050.1" description="&lt;b&gt;AAZ23050.1&lt;/b&gt;&lt;br&gt;hypothetical protein&lt;br&gt;Location: 10027 - 10467" style="stroke:black; fill:white; stroke-width:1; " id="dummy-1_h1_8_6" points="61,90 64,85 61,80 61,90 " class="clusterblast-orf"  />
</g>
<g id="a1_007"  >
<polygon locus_tag="AAZ23051.1" description="&lt;b&gt;AAZ23051.1&lt;/b&gt;&lt;br&gt;probable sugar kinase&lt;br&gt;Location: 11363 - 12862" style="stroke:black; fill:white; stroke-width:1; " id="dummy-1_h1_8_7" points="69,85 74,80 79,80 79,90 74,90 69,85 " class="clusterblast-orf"  />
</g>
<g id="a1_008"  >
<polygon locus_tag="AAZ23052.1" description="&lt;b&gt;AAZ23052.1&lt;/b&gt;&lt;br&gt;probable dehydrogenase&lt;br&gt;Location: 13059 - 15098" style="stroke:black; fill:white; stroke-width:1; " id="dummy-1_h1_8_8" points="80,85 85,80 92,80 92,90 85,90 80,85 " class="clusterblast-orf"  />
</g>
<g id="a1_009"  >
<polygon locus_tag="AAZ23053.1" description="&lt;b&gt;AAZ23053.1&lt;/b&gt;&lt;br&gt;probable sugar isomerase&lt;br&gt;Location: 15190 - 16359" style="stroke:black; fill:white; stroke-width:1; " id="dummy-1_h1_8_9" points="93,85 98,80 100,80 100,90 98,90 93,85 " class="clusterblast-orf"  />
</g>
<g id="a1_0010"  >
<polygon locus_tag="AAZ23054.1" description="&lt;b&gt;AAZ23054.1&lt;/b&gt;&lt;br&gt;hypothetical protein&lt;br&gt;Location: 18507 - 19304" style="stroke:black; fill:white; stroke-width:1; " id="dummy-1_h1_8_10" points="113,90 113,90 118,85 113,80 113,80 113,90 " class="clusterblast-orf"  />
</g>
<g id="a1_0011"  >
<polygon locus_tag="AAZ23055.1" description="&lt;b&gt;AAZ23055.1&lt;/b&gt;&lt;br&gt;hypothetical protein&lt;br&gt;Location: 19323 - 20366" style="stroke:black; fill:white; stroke-width:1; " id="dummy-1_h1_8_11" points="118,85 123,80 125,80 125,90 123,90 118,85 " class="clusterblast-orf"  />
</g>
<g id="a1_0012"  >
<polygon locus_tag="AAZ23056.1" description="&lt;b&gt;AAZ23056.1&lt;/b&gt;&lt;br&gt;hypothetical protein&lt;br&gt;Location: 20753 - 21838" style="stroke:black; fill:white; stroke-width:1; " id="dummy-1_h1_8_12" points="127,85 132,80 134,80 134,90 132,90 127,85 " class="clusterblast-orf"  />
</g>
<g id="a1_0013"  >
<polygon locus_tag="AAZ23057.1" description="&lt;b&gt;AAZ23057.1&lt;/b&gt;&lt;br&gt;probable integral membrane protein&lt;br&gt;Location: 21918 - 23210" style="stroke:black; fill:white; stroke-width:1; " id="dummy-1_h1_8_13" points="134,85 139,80 142,80 142,90 139,90 134,85 " class="clusterblast-orf"  />
</g>
<g id="a1_0014"  >
<polygon locus_tag="AAZ23058.1" description="&lt;b&gt;AAZ23058.1&lt;/b&gt;&lt;br&gt;probable secreted protein&lt;br&gt;Location: 23207 - 24364" style="stroke:black; fill:white; stroke-width:1; " id="dummy-1_h1_8_14" points="142,85 147,80 149,80 149,90 147,90 142,85 " class="clusterblast-orf"  />
</g>
<g id="a1_0015"  >
<polygon locus_tag="AAZ23059.1" description="&lt;b&gt;AAZ23059.1&lt;/b&gt;&lt;br&gt;probable putative response regulator&lt;br&gt;Location: 24542 - 25225" style="stroke:black; fill:white; stroke-width:1; " id="dummy-1_h1_8_15" points="151,85 155,80 155,90 151,85 " class="clusterblast-orf"  />
</g>
<g id="a1_0016"  >
<polygon locus_tag="AAZ23060.1" description="&lt;b&gt;AAZ23060.1&lt;/b&gt;&lt;br&gt;probable sensor kinase&lt;br&gt;Location: 25222 - 26619" style="stroke:black; fill:white; stroke-width:1; " id="dummy-1_h1_8_16" points="155,85 160,80 163,80 163,90 160,90 155,85 " class="clusterblast-orf"  />
</g>
<g id="a1_0017"  >
<polygon locus_tag="AAZ23061.1" description="&lt;b&gt;AAZ23061.1&lt;/b&gt;&lt;br&gt;probable D-aminoacylase&lt;br&gt;Location: 26669 - 28321" style="stroke:black; fill:white; stroke-width:1; " id="dummy-1_h1_8_17" points="164,85 169,80 174,80 174,90 169,90 164,85 " class="clusterblast-orf"  />
</g>
<g id="a1_0018"  >
<polygon locus_tag="AAZ23062.1" description="&lt;b&gt;AAZ23062.1&lt;/b&gt;&lt;br&gt;possible permease&lt;br&gt;Location: 28359 - 29798" style="stroke:black; fill:white; stroke-width:1; " id="dummy-1_h1_8_18" points="174,85 179,80 183,80 183,90 179,90 174,85 " class="clusterblast-orf"  />
</g>
<g id="a1_0019"  >
<polygon locus_tag="AAZ23063.1" description="&lt;b&gt;AAZ23063.1&lt;/b&gt;&lt;br&gt;probable decarboxylase&lt;br&gt;Location: 29795 - 31207" style="stroke:black; fill:white; stroke-width:1; " id="dummy-1_h1_8_19" points="183,85 188,80 192,80 192,90 188,90 183,85 " class="clusterblast-orf"  />
</g>
<g id="a1_0020"  >
<polygon locus_tag="AAZ23064.1" description="&lt;b&gt;AAZ23064.1&lt;/b&gt;&lt;br&gt;possible DNA-binding protein&lt;br&gt;Location: 31333 - 33018" style="stroke:black; fill:white; stroke-width:1; " id="dummy-1_h1_8_20" points="192,85 197,80 203,80 203,90 197,90 192,85 " class="clusterblast-orf"  />
</g>
<g id="a1_0021"  >
<polygon locus_tag="AAZ23065.1" description="&lt;b&gt;AAZ23065.1&lt;/b&gt;&lt;br&gt;hypothetical protein&lt;br&gt;Location: 33118 - 34419" style="stroke:black; fill:white; stroke-width:1; " id="dummy-1_h1_8_21" points="203,85 208,80 211,80 211,90 208,90 203,85 " class="clusterblast-orf"  />
</g>
<g id="a1_0022"  >
<polygon locus_tag="AAZ23066.1" description="&lt;b&gt;AAZ23066.1&lt;/b&gt;&lt;br&gt;hypothetical protein&lt;br&gt;Location: 34423 - 35001" style="stroke:black; fill:white; stroke-width:1; " id="dummy-1_h1_8_22" points="211,90 215,85 211,80 211,90 " class="clusterblast-orf"  />
</g>
<g id="a1_0023"  >
<polygon locus_tag="AAZ23067.1" description="&lt;b&gt;AAZ23067.1&lt;/b&gt;&lt;br&gt;hypothetical protein&lt;br&gt;Location: 34950 - 35426" style="stroke:black; fill:white; stroke-width:1; " id="dummy-1_h1_8_23" points="215,90 218,85 215,80 215,90 " class="clusterblast-orf"  />
</g>
<g id="a1_0024"  >
<polygon locus_tag="AAZ23068.1" description="&lt;b&gt;AAZ23068.1&lt;/b&gt;&lt;br&gt;hypothetical protein&lt;br&gt;Location: 35510 - 36931" style="stroke:black; fill:white; stroke-width:1; " id="dummy-1_h1_8_24" points="218,85 223,80 227,80 227,90 223,90 218,85 " class="clusterblast-orf"  />
</g>
<g id="a1_0025"  >
<polygon locus_tag="AAZ23069.1" description="&lt;b&gt;AAZ23069.1&lt;/b&gt;&lt;br&gt;hypothetical protein&lt;br&gt;Location: 37360 - 38181" style="stroke:black; fill:white; stroke-width:1; " id="dummy-1_h1_8_25" points="229,90 229,90 234,85 229,80 229,80 229,90 " class="clusterblast-orf"  />
</g>
<g id="a1_0026"  >
<polygon locus_tag="AAZ23070.1" description="&lt;b&gt;AAZ23070.1&lt;/b&gt;&lt;br&gt;possible response regulator&lt;br&gt;Location: 38233 - 38958" style="stroke:black; fill:white; stroke-width:1; " id="dummy-1_h1_8_26" points="235,85 239,80 239,90 235,85 " class="clusterblast-orf"  />
</g>
<g id="a1_0027"  >
<polygon locus_tag="AAZ23071.1" description="&lt;b&gt;AAZ23071.1&lt;/b&gt;&lt;br&gt;possible sensor kinase&lt;br&gt;Location: 38955 - 39803" style="stroke:black; fill:white; stroke-width:1; " id="dummy-1_h1_8_27" points="239,85 244,80 244,80 244,90 244,90 239,85 " class="clusterblast-orf"  />
</g>
<g id="a1_0028"  >
<polygon locus_tag="AAZ23072.1" description="&lt;b&gt;AAZ23072.1&lt;/b&gt;&lt;br&gt;hypothetical protein&lt;br&gt;Location: 39941 - 40651" style="stroke:black; fill:white; stroke-width:1; " id="dummy-1_h1_8_28" points="245,90 245,90 250,85 245,80 245,80 245,90 " class="clusterblast-orf"  />
</g>
<g id="a1_0029"  >
<polygon locus_tag="AAZ23073.1" description="&lt;b&gt;AAZ23073.1&lt;/b&gt;&lt;br&gt;hypothetical protein&lt;br&gt;Location: 40648 - 42957" style="stroke:black; fill:white; stroke-width:1; " id="dummy-1_h1_8_29" points="250,90 259,90 264,85 259,80 250,80 250,90 " class="clusterblast-orf"  />
</g>
<g id="a1_0030"  >
<polygon locus_tag="AAZ23074.1" description="&lt;b&gt;AAZ23074.1&lt;/b&gt;&lt;br&gt;acyl-CoA ligase&lt;br&gt;Location: 43616 - 45814" style="stroke:black; fill:white; stroke-width:1; " id="dummy-1_h1_8_30" points="268,90 276,90 281,85 276,80 268,80 268,90 " class="clusterblast-orf"  />
</g>
<g id="a1_0031"  >
<polygon locus_tag="AAZ23075.1" description="&lt;b&gt;AAZ23075.1&lt;/b&gt;&lt;br&gt;peptide synthetase&lt;br&gt;Location: 45924 - 64802&lt;br&gt;&lt;br&gt;&lt;b&gt;BlastP hit with cds37803_38232&lt;/b&gt;&lt;br&gt;Percentage identity: 55&lt;br&gt;Percentage coverage: 89&lt;br&gt;BLAST bit score: 116&lt;br&gt;E-value: 3.6e-26&lt;br&gt;&lt;br&gt;&lt;b&gt;BlastP hit with cds43855_44812&lt;/b&gt;&lt;br&gt;Percentage identity: 49&lt;br&gt;Percentage coverage: 84&lt;br&gt;BLAST bit score: 231&lt;br&gt;E-value: 1.7e-60&lt;br&gt;&lt;br&gt;&lt;b&gt;BlastP hit with cds44922_45960&lt;/b&gt;&lt;br&gt;Percentage identity: 59&lt;br&gt;Percentage coverage: 100&lt;br&gt;BLAST bit score: 349&lt;br&gt;E-value: 6.1e-96&lt;br&gt;&lt;br&gt;&lt;b&gt;BlastP hit with cds46075_48595&lt;/b&gt;&lt;br&gt;Percentage identity: 48&lt;br&gt;Percentage coverage: 71&lt;br&gt;BLAST bit score: 466&lt;br&gt;E-value: 8.4e-131&lt;br&gt;&lt;br&gt;&lt;b&gt;BlastP hit with cds51186_52017&lt;/b&gt;&lt;br&gt;Percentage identity: 46&lt;br&gt;Percentage coverage: 91&lt;br&gt;BLAST bit score: 208&lt;br&gt;E-value: 1.8e-53&lt;br&gt;&lt;br&gt;&lt;b&gt;BlastP hit with cds51995_52109&lt;/b&gt;&lt;br&gt;Percentage identity: 53&lt;br&gt;Percentage coverage: 92&lt;br&gt;BLAST bit score: 49&lt;br&gt;E-value: 1.8e-06&lt;br&gt;&lt;br&gt;&lt;b&gt;BlastP hit with cds54419_55037&lt;/b&gt;&lt;br&gt;Percentage identity: 56&lt;br&gt;Percentage coverage: 82&lt;br&gt;BLAST bit score: 173&lt;br&gt;E-value: 2.7e-43&lt;br&gt;&lt;br&gt;&lt;b&gt;BlastP hit with cds55304_55874&lt;/b&gt;&lt;br&gt;Percentage identity: 51&lt;br&gt;Percentage coverage: 48&lt;br&gt;BLAST bit score: 73&lt;br&gt;E-value: 4.6e-13&lt;br&gt;&lt;br&gt;&lt;b&gt;BlastP hit with cds57167_58145&lt;/b&gt;&lt;br&gt;Percentage identity: 55&lt;br&gt;Percentage coverage: 92&lt;br&gt;BLAST bit score: 297&lt;br&gt;E-value: 2.6e-80&lt;br&gt;&lt;br&gt;&lt;b&gt;BlastP hit with cds59478_60921&lt;/b&gt;&lt;br&gt;Percentage identity: 48&lt;br&gt;Percentage coverage: 78&lt;br&gt;BLAST bit score: 282&lt;br&gt;E-value: 1.7e-75" style="stroke:black; fill:#d81515; stroke-width:1; " id="dummy-1_h1_8_31" points="282,90 393,90 398,85 393,80 282,80 282,90 " class="clusterblast-orf"  />
</g>
<g id="a1_0032"  >
<polygon locus_tag="AAZ23076.1" description="&lt;b&gt;AAZ23076.1&lt;/b&gt;&lt;br&gt;peptide synthetase&lt;br&gt;Location: 64799 - 71230&lt;br&gt;&lt;br&gt;&lt;b&gt;BlastP hit with cds43855_44812&lt;/b&gt;&lt;br&gt;Percentage identity: 51&lt;br&gt;Percentage coverage: 94&lt;br&gt;BLAST bit score: 238&lt;br&gt;E-value: 1.8e-62&lt;br&gt;&lt;br&gt;&lt;b&gt;BlastP hit with cds46075_48595&lt;/b&gt;&lt;br&gt;Percentage identity: 47&lt;br&gt;Percentage coverage: 74&lt;br&gt;BLAST bit score: 468&lt;br&gt;E-value: 1.7e-131&lt;br&gt;&lt;br&gt;&lt;b&gt;BlastP hit with cds51186_52017&lt;/b&gt;&lt;br&gt;Percentage identity: 48&lt;br&gt;Percentage coverage: 88&lt;br&gt;BLAST bit score: 220&lt;br&gt;E-value: 2.6e-57&lt;br&gt;&lt;br&gt;&lt;b&gt;BlastP hit with cds57167_58145&lt;/b&gt;&lt;br&gt;Percentage identity: 48&lt;br&gt;Percentage coverage: 98&lt;br&gt;BLAST bit score: 253&lt;br&gt;E-value: 3.3e-67&lt;br&gt;&lt;br&gt;&lt;b&gt;BlastP hit with cds58243_59206&lt;/b&gt;&lt;br&gt;Percentage identity: 50&lt;br&gt;Percentage coverage: 91&lt;br&gt;BLAST bit score: 233&lt;br&gt;E-value: 4.6e-61&lt;br&gt;&lt;br&gt;&lt;b&gt;BlastP hit with cds59478_60921&lt;/b&gt;&lt;br&gt;Percentage identity: 55&lt;br&gt;Percentage coverage: 61&lt;br&gt;BLAST bit score: 278&lt;br&gt;E-value: 2.4e-74" style="stroke:black; fill:#d81515; stroke-width:1; " id="dummy-1_h1_8_32" points="398,90 433,90 438,85 433,80 398,80 398,90 " class="clusterblast-orf"  />
</g>
<g id="a1_0033"  >
<polygon locus_tag="AAZ23077.1" description="&lt;b&gt;AAZ23077.1&lt;/b&gt;&lt;br&gt;peptide synthetase&lt;br&gt;Location: 71227 - 86967&lt;br&gt;&lt;br&gt;&lt;b&gt;BlastP hit with cds38248_38599&lt;/b&gt;&lt;br&gt;Percentage identity: 47&lt;br&gt;Percentage coverage: 76&lt;br&gt;BLAST bit score: 66&lt;br&gt;E-value: 2.7e-11&lt;br&gt;&lt;br&gt;&lt;b&gt;BlastP hit with cds41049_41451&lt;/b&gt;&lt;br&gt;Percentage identity: 51&lt;br&gt;Percentage coverage: 55&lt;br&gt;BLAST bit score: 72&lt;br&gt;E-value: 7.3e-13&lt;br&gt;&lt;br&gt;&lt;b&gt;BlastP hit with cds43855_44812&lt;/b&gt;&lt;br&gt;Percentage identity: 51&lt;br&gt;Percentage coverage: 93&lt;br&gt;BLAST bit score: 276&lt;br&gt;E-value: 4.7e-74&lt;br&gt;&lt;br&gt;&lt;b&gt;BlastP hit with cds46075_48595&lt;/b&gt;&lt;br&gt;Percentage identity: 50&lt;br&gt;Percentage coverage: 72&lt;br&gt;BLAST bit score: 507&lt;br&gt;E-value: 5.6e-143&lt;br&gt;&lt;br&gt;&lt;b&gt;BlastP hit with cds48548_51185&lt;/b&gt;&lt;br&gt;Percentage identity: 47&lt;br&gt;Percentage coverage: 77&lt;br&gt;BLAST bit score: 509&lt;br&gt;E-value: 1.2e-143&lt;br&gt;&lt;br&gt;&lt;b&gt;BlastP hit with cds51995_52109&lt;/b&gt;&lt;br&gt;Percentage identity: 61&lt;br&gt;Percentage coverage: 97&lt;br&gt;BLAST bit score: 56&lt;br&gt;E-value: 8.8e-09&lt;br&gt;&lt;br&gt;&lt;b&gt;BlastP hit with cds54419_55037&lt;/b&gt;&lt;br&gt;Percentage identity: 52&lt;br&gt;Percentage coverage: 100&lt;br&gt;BLAST bit score: 178&lt;br&gt;E-value: 1.1e-44&lt;br&gt;&lt;br&gt;&lt;b&gt;BlastP hit with cds55304_55874&lt;/b&gt;&lt;br&gt;Percentage identity: 56&lt;br&gt;Percentage coverage: 49&lt;br&gt;BLAST bit score: 85&lt;br&gt;E-value: 9.1e-17&lt;br&gt;&lt;br&gt;&lt;b&gt;BlastP hit with cds57167_58145&lt;/b&gt;&lt;br&gt;Percentage identity: 57&lt;br&gt;Percentage coverage: 94&lt;br&gt;BLAST bit score: 305&lt;br&gt;E-value: 7.3e-83&lt;br&gt;&lt;br&gt;&lt;b&gt;BlastP hit with cds58243_59206&lt;/b&gt;&lt;br&gt;Percentage identity: 49&lt;br&gt;Percentage coverage: 95&lt;br&gt;BLAST bit score: 258&lt;br&gt;E-value: 1.3e-68&lt;br&gt;&lt;br&gt;&lt;b&gt;BlastP hit with cds59478_60921&lt;/b&gt;&lt;br&gt;Percentage identity: 47&lt;br&gt;Percentage coverage: 78&lt;br&gt;BLAST bit score: 265&lt;br&gt;E-value: 1.2e-70&lt;br&gt;&lt;br&gt;&lt;b&gt;BlastP hit with cds61102_62062&lt;/b&gt;&lt;br&gt;Percentage identity: 46&lt;br&gt;Percentage coverage: 87&lt;br&gt;BLAST bit score: 212&lt;br&gt;E-value: 1.1e-54" style="stroke:black; fill:#d81515; stroke-width:1; " id="dummy-1_h1_8_33" points="438,90 530,90 535,85 530,80 438,80 438,90 " class="clusterblast-orf"  />
</g>
<g id="a1_0034"  >
<polygon locus_tag="AAZ23078.1" description="&lt;b&gt;AAZ23078.1&lt;/b&gt;&lt;br&gt;peptide synthetase&lt;br&gt;Location: 86967 - 94121&lt;br&gt;&lt;br&gt;&lt;b&gt;BlastP hit with cds41049_41451&lt;/b&gt;&lt;br&gt;Percentage identity: 65&lt;br&gt;Percentage coverage: 45&lt;br&gt;BLAST bit score: 82&lt;br&gt;E-value: 5.4e-16&lt;br&gt;&lt;br&gt;&lt;b&gt;BlastP hit with cds43855_44812&lt;/b&gt;&lt;br&gt;Percentage identity: 53&lt;br&gt;Percentage coverage: 86&lt;br&gt;BLAST bit score: 264&lt;br&gt;E-value: 1.8e-70&lt;br&gt;&lt;br&gt;&lt;b&gt;BlastP hit with cds46075_48595&lt;/b&gt;&lt;br&gt;Percentage identity: 48&lt;br&gt;Percentage coverage: 73&lt;br&gt;BLAST bit score: 482&lt;br&gt;E-value: 1.9e-135&lt;br&gt;&lt;br&gt;&lt;b&gt;BlastP hit with cds51186_52017&lt;/b&gt;&lt;br&gt;Percentage identity: 48&lt;br&gt;Percentage coverage: 87&lt;br&gt;BLAST bit score: 206&lt;br&gt;E-value: 6.7e-53&lt;br&gt;&lt;br&gt;&lt;b&gt;BlastP hit with cds51995_52109&lt;/b&gt;&lt;br&gt;Percentage identity: 65&lt;br&gt;Percentage coverage: 92&lt;br&gt;BLAST bit score: 53&lt;br&gt;E-value: 9.7e-08&lt;br&gt;&lt;br&gt;&lt;b&gt;BlastP hit with cds54419_55037&lt;/b&gt;&lt;br&gt;Percentage identity: 47&lt;br&gt;Percentage coverage: 100&lt;br&gt;BLAST bit score: 157&lt;br&gt;E-value: 2.7e-38&lt;br&gt;&lt;br&gt;&lt;b&gt;BlastP hit with cds55304_55874&lt;/b&gt;&lt;br&gt;Percentage identity: 47&lt;br&gt;Percentage coverage: 52&lt;br&gt;BLAST bit score: 78&lt;br&gt;E-value: 1.4e-14&lt;br&gt;&lt;br&gt;&lt;b&gt;BlastP hit with cds57167_58145&lt;/b&gt;&lt;br&gt;Percentage identity: 54&lt;br&gt;Percentage coverage: 95&lt;br&gt;BLAST bit score: 297&lt;br&gt;E-value: 2.6e-80&lt;br&gt;&lt;br&gt;&lt;b&gt;BlastP hit with cds59478_60921&lt;/b&gt;&lt;br&gt;Percentage identity: 52&lt;br&gt;Percentage coverage: 79&lt;br&gt;BLAST bit score: 314&lt;br&gt;E-value: 4e-85" style="stroke:black; fill:#d81515; stroke-width:1; " id="dummy-1_h1_8_34" points="535,90 574,90 579,85 574,80 535,80 535,90 " class="clusterblast-orf"  />
</g>
<g id="a1_0035"  >
<polygon locus_tag="AAZ23079.1" description="&lt;b&gt;AAZ23079.1&lt;/b&gt;&lt;br&gt;hypothetical protein&lt;br&gt;Location: 94118 - 94360" style="stroke:black; fill:white; stroke-width:1; " id="dummy-1_h1_8_35" points="579,90 580,85 579,80 579,90 " class="clusterblast-orf"  />
</g>
<g id="a1_0036"  >
<polygon locus_tag="AAZ23080.1" description="&lt;b&gt;AAZ23080.1&lt;/b&gt;&lt;br&gt;possible thioesterase&lt;br&gt;Location: 94443 - 95237" style="stroke:black; fill:white; stroke-width:1; " id="dummy-1_h1_8_36" points="581,90 581,90 586,85 581,80 581,80 581,90 " class="clusterblast-orf"  />
</g>
<g id="a1_0037"  >
<polygon locus_tag="AAZ23081.1" description="&lt;b&gt;AAZ23081.1&lt;/b&gt;&lt;br&gt;hypothetical protein&lt;br&gt;Location: 95249 - 96244" style="stroke:black; fill:white; stroke-width:1; " id="dummy-1_h1_8_37" points="586,90 587,90 592,85 587,80 586,80 586,90 " class="clusterblast-orf"  />
</g>
<g id="a1_0038"  >
<polygon locus_tag="AAZ23082.1" description="&lt;b&gt;AAZ23082.1&lt;/b&gt;&lt;br&gt;possible O-methyltransferase&lt;br&gt;Location: 96241 - 97029" style="stroke:black; fill:white; stroke-width:1; " id="dummy-1_h1_8_38" points="592,90 592,90 597,85 592,80 592,80 592,90 " class="clusterblast-orf"  />
</g>
<g id="a1_0039"  >
<polygon locus_tag="AAZ23083.1" description="&lt;b&gt;AAZ23083.1&lt;/b&gt;&lt;br&gt;possible hydrolase&lt;br&gt;Location: 97099 - 98058" style="stroke:black; fill:white; stroke-width:1; " id="dummy-1_h1_8_39" points="597,90 598,90 603,85 598,80 597,80 597,90 " class="clusterblast-orf"  />
</g>
<g id="a1_0040"  >
<polygon locus_tag="AAZ23084.1" description="&lt;b&gt;AAZ23084.1&lt;/b&gt;&lt;br&gt;possible ABC transporter&lt;br&gt;Location: 98058 - 99119" style="stroke:black; fill:white; stroke-width:1; " id="dummy-1_h1_8_40" points="603,90 605,90 610,85 605,80 603,80 603,90 " class="clusterblast-orf"  />
</g>
<g id="a1_0041"  >
<polygon locus_tag="AAZ23085.1" description="&lt;b&gt;AAZ23085.1&lt;/b&gt;&lt;br&gt;possible ABC transporter permease&lt;br&gt;Location: 99116 - 99964" style="stroke:black; fill:white; stroke-width:1; " id="dummy-1_h1_8_41" points="610,90 610,90 615,85 610,80 610,80 610,90 " class="clusterblast-orf"  />
</g>
<g id="a1_0042"  >
<polygon locus_tag="AAZ23086.1" description="&lt;b&gt;AAZ23086.1&lt;/b&gt;&lt;br&gt;hypothetical protein&lt;br&gt;Location: 100029 - 100649" style="stroke:black; fill:white; stroke-width:1; " id="dummy-1_h1_8_42" points="615,85 619,80 619,90 615,85 " class="clusterblast-orf"  />
</g>
<g id="a1_0043"  >
<polygon locus_tag="AAZ23087.1" description="&lt;b&gt;AAZ23087.1&lt;/b&gt;&lt;br&gt;possible methyltransferase&lt;br&gt;Location: 101479 - 102537" style="stroke:black; fill:white; stroke-width:1; " id="dummy-1_h1_8_43" points="624,90 626,90 631,85 626,80 624,80 624,90 " class="clusterblast-orf"  />
</g>
<g id="a1_0044"  >
<polygon locus_tag="AAZ23088.1" description="&lt;b&gt;AAZ23088.1&lt;/b&gt;&lt;br&gt;possible regulator&lt;br&gt;Location: 104185 - 105123" style="stroke:black; fill:white; stroke-width:1; " id="dummy-1_h1_8_44" points="641,90 642,90 647,85 642,80 641,80 641,90 " class="clusterblast-orf"  />
</g>
<g id="a1_0045"  >
<polygon locus_tag="AAZ23089.1" description="&lt;b&gt;AAZ23089.1&lt;/b&gt;&lt;br&gt;hypothetical protein&lt;br&gt;Location: 105287 - 105697" style="stroke:black; fill:white; stroke-width:1; " id="dummy-1_h1_8_45" points="648,90 650,85 648,80 648,90 " class="clusterblast-orf"  />
</g>
<g id="a1_0046"  >
<polygon locus_tag="AAZ23090.1" description="&lt;b&gt;AAZ23090.1&lt;/b&gt;&lt;br&gt;hypothetical protein&lt;br&gt;Location: 105694 - 105879" style="stroke:black; fill:white; stroke-width:1; " id="dummy-1_h1_8_46" points="650,85 651,80 651,90 650,85 " class="clusterblast-orf"  />
</g>
<g id="a1_0047"  >
<polygon locus_tag="AAZ23091.1" description="&lt;b&gt;AAZ23091.1&lt;/b&gt;&lt;br&gt;possible transposase&lt;br&gt;Location: 106395 - 107252" style="stroke:black; fill:white; stroke-width:1; " id="dummy-1_h1_8_47" points="654,85 659,80 660,80 660,90 659,90 654,85 " class="clusterblast-orf"  />
</g>
<g id="a1_0048"  >
<polygon locus_tag="AAZ23092.1" description="&lt;b&gt;AAZ23092.1&lt;/b&gt;&lt;br&gt;possible protein kinase&lt;br&gt;Location: 110701 - 112812" style="stroke:black; fill:white; stroke-width:1; " id="dummy-1_h1_8_48" points="681,85 686,80 694,80 694,90 686,90 681,85 " class="clusterblast-orf"  />
</g>
<g id="a1_0049"  >
<polygon locus_tag="AAZ23093.1" description="&lt;b&gt;AAZ23093.1&lt;/b&gt;&lt;br&gt;hypothetical protein&lt;br&gt;Location: 112824 - 113243" style="stroke:black; fill:white; stroke-width:1; " id="dummy-1_h1_8_49" points="694,85 696,80 696,90 694,85 " class="clusterblast-orf"  />
</g>
<g id="a1_0050"  >
<polygon locus_tag="AAZ23094.1" description="&lt;b&gt;AAZ23094.1&lt;/b&gt;&lt;br&gt;possible transposase&lt;br&gt;Location: 113931 - 114662" style="stroke:black; fill:white; stroke-width:1; " id="dummy-1_h1_8_50" points="701,85 705,80 705,90 701,85 " class="clusterblast-orf"  />
</g>
<g id="a1_0051"  >
<polygon locus_tag="AAZ23095.1" description="&lt;b&gt;AAZ23095.1&lt;/b&gt;&lt;br&gt;possible DNA helicase&lt;br&gt;Location: 118101 - 119465" style="stroke:black; fill:white; stroke-width:1; " id="dummy-1_h1_8_51" points="726,90 730,90 735,85 730,80 726,80 726,90 " class="clusterblast-orf"  />
</g>
<g id="a1_0052"  >
<polygon locus_tag="AAZ23096.1" description="&lt;b&gt;AAZ23096.1&lt;/b&gt;&lt;br&gt;hypothetical protein&lt;br&gt;Location: 118989 - 120017" style="stroke:black; fill:white; stroke-width:1; " id="dummy-1_h1_8_52" points="732,85 737,80 738,80 738,90 737,90 732,85 " class="clusterblast-orf"  />
</g>
<g id="a1_0053"  >
<polygon locus_tag="AAZ23097.1" description="&lt;b&gt;AAZ23097.1&lt;/b&gt;&lt;br&gt;hypothetical protein&lt;br&gt;Location: 120066 - 120731" style="stroke:black; fill:white; stroke-width:1; " id="dummy-1_h1_8_53" points="738,85 743,80 743,80 743,90 743,90 738,85 " class="clusterblast-orf"  />
</g>
<g id="a1_0054"  >
<polygon locus_tag="AAZ23098.1" description="&lt;b&gt;AAZ23098.1&lt;/b&gt;&lt;br&gt;hypothetical protein&lt;br&gt;Location: 121573 - 121971" style="stroke:black; fill:white; stroke-width:1; " id="dummy-1_h1_8_54" points="748,90 750,85 748,80 748,90 " class="clusterblast-orf"  />
</g>
<g id="a1_0055"  >
<polygon locus_tag="AAZ23099.1" description="&lt;b&gt;AAZ23099.1&lt;/b&gt;&lt;br&gt;probable transposase&lt;br&gt;Location: 122339 - 123214" style="stroke:black; fill:white; stroke-width:1; " id="dummy-1_h1_8_55" points="752,85 757,80 758,80 758,90 757,90 752,85 " class="clusterblast-orf"  />
</g>
<g id="a1_0056"  >
<polygon locus_tag="AAZ23100.1" description="&lt;b&gt;AAZ23100.1&lt;/b&gt;&lt;br&gt;hypothetical protein&lt;br&gt;Location: 123359 - 123673" style="stroke:black; fill:white; stroke-width:1; " id="dummy-1_h1_8_56" points="759,90 761,85 759,80 759,90 " class="clusterblast-orf"  />
</g>
<g id="a1_0057"  >
<polygon locus_tag="AAZ23101.1" description="&lt;b&gt;AAZ23101.1&lt;/b&gt;&lt;br&gt;possible transposase&lt;br&gt;Location: 123917 - 124387" style="stroke:black; fill:white; stroke-width:1; " id="dummy-1_h1_8_57" points="762,90 765,85 762,80 762,90 " class="clusterblast-orf"  />
</g>
<g id="a1_0058"  >
<polygon locus_tag="AAZ23102.1" description="&lt;b&gt;AAZ23102.1&lt;/b&gt;&lt;br&gt;possible transposase&lt;br&gt;Location: 124378 - 124752" style="stroke:black; fill:white; stroke-width:1; " id="dummy-1_h1_8_58" points="765,90 767,85 765,80 765,90 " class="clusterblast-orf"  />
</g>
<g id="a1_0059"  >
<polygon locus_tag="AAZ23103.1" description="&lt;b&gt;AAZ23103.1&lt;/b&gt;&lt;br&gt;hypothetical protein&lt;br&gt;Location: 125782 - 126729" style="stroke:black; fill:white; stroke-width:1; " id="dummy-1_h1_8_59" points="774,90 775,90 780,85 775,80 774,80 774,90 " class="clusterblast-orf"  />
</g>
</svg>
