<svg preserveAspectRatio="none" height="230" version="1.1" xmlns:xlink="http://www.w3.org/1999/xlink" width="800" viewBox="0 0 800 230" y="0" x="0" xmlns="http://www.w3.org/2000/svg"  >
<g class="clusterblast-cluster" label="Query sequence"  >
<text class="clusterblast-acc" y="20" x="5"  >
Query sequence</text>
<line x2="778.0" y1="35" style="stroke:grey; stroke-width:1; " x1="10" y2="35"  />
<polygon locus_tag="cds51667_52195" description="&lt;b&gt;cds51667_52195&lt;/b&gt;&lt;br&gt;hypothetical protein&lt;br&gt;Location: 51667 - 52195" style="stroke:black; fill:white; stroke-width:1; " id="dummy-1_q0_0_all" points="0,40 2,40 7,35 2,30 0,30 0,40 " class="clusterblast-orf"  />
<polygon locus_tag="cds52677_55413" description="&lt;b&gt;cds52677_55413&lt;/b&gt;&lt;br&gt;hypothetical protein&lt;br&gt;Location: 52677 - 55413" style="stroke:black; fill:white; stroke-width:1; " id="dummy-1_q1_0_all" points="13,40 44,40 49,35 44,30 13,30 13,40 " class="clusterblast-orf"  />
<polygon locus_tag="cds55470_56229" description="&lt;b&gt;cds55470_56229&lt;/b&gt;&lt;br&gt;Putative glycosyltransferase&lt;br&gt;Location: 55470 - 56229" style="stroke:black; fill:white; stroke-width:1; " id="dummy-1_q2_0_all" points="50,40 55,40 60,35 55,30 50,30 50,40 " class="clusterblast-orf"  />
<polygon locus_tag="cds56435_56621" description="&lt;b&gt;cds56435_56621&lt;/b&gt;&lt;br&gt;FIG01133374: hypothetical protein&lt;br&gt;Location: 56435 - 56621" style="stroke:black; fill:white; stroke-width:1; " id="dummy-1_q3_0_all" points="63,40 65,35 63,30 63,40 " class="clusterblast-orf"  />
<polygon locus_tag="cds56895_57075" description="&lt;b&gt;cds56895_57075&lt;/b&gt;&lt;br&gt;hypothetical protein&lt;br&gt;Location: 56895 - 57075" style="stroke:black; fill:white; stroke-width:1; " id="dummy-1_q4_0_all" points="69,40 71,35 69,30 69,40 " class="clusterblast-orf"  />
<polygon locus_tag="cds57202_58480" description="&lt;b&gt;cds57202_58480&lt;/b&gt;&lt;br&gt;hypothetical protein&lt;br&gt;Location: 57202 - 58480" style="stroke:black; fill:white; stroke-width:1; " id="dummy-1_q5_0_all" points="73,40 85,40 90,35 85,30 73,30 73,40 " class="clusterblast-orf"  />
<polygon locus_tag="cds58473_58959" description="&lt;b&gt;cds58473_58959&lt;/b&gt;&lt;br&gt;putative UDP-glucose 4-epimerase&lt;br&gt;Location: 58473 - 58959" style="stroke:black; fill:#d81515; stroke-width:1; " id="dummy-1_q6_0_all" points="90,40 91,40 96,35 91,30 90,30 90,40 " class="clusterblast-orf"  />
<polygon locus_tag="cds59013_60153" description="&lt;b&gt;cds59013_60153&lt;/b&gt;&lt;br&gt;putative mannose-1-phosphate guanyltransferase&lt;br&gt;Location: 59013 - 60153" style="stroke:black; fill:#54d815; stroke-width:1; " id="dummy-1_q7_0_all" points="97,40 107,40 112,35 107,30 97,30 97,40 " class="clusterblast-orf"  />
<polygon locus_tag="cds60181_60637" description="&lt;b&gt;cds60181_60637&lt;/b&gt;&lt;br&gt;hypothetical protein&lt;br&gt;Location: 60181 - 60637" style="stroke:black; fill:#15c1d8; stroke-width:1; " id="dummy-1_q8_0_all" points="113,40 114,40 119,35 114,30 113,30 113,40 " class="clusterblast-orf"  />
<polygon locus_tag="cds60633_61572" description="&lt;b&gt;cds60633_61572&lt;/b&gt;&lt;br&gt;Phage-related protein, tail component&lt;br&gt;Location: 60633 - 61572" style="stroke:black; fill:white; stroke-width:1; " id="dummy-1_q9_0_all" points="119,40 126,40 131,35 126,30 119,30 119,40 " class="clusterblast-orf"  />
<polygon locus_tag="cds61710_61839" description="&lt;b&gt;cds61710_61839&lt;/b&gt;&lt;br&gt;endo alpha-1,4 polygalactosaminidase&lt;br&gt;Location: 61710 - 61839" style="stroke:black; fill:white; stroke-width:1; " id="dummy-1_q10_0_all" points="133,40 135,35 133,30 133,40 " class="clusterblast-orf"  />
<polygon locus_tag="cds61835_62117" description="&lt;b&gt;cds61835_62117&lt;/b&gt;&lt;br&gt;putative endo alpha-1,4 polygalactosaminidase&lt;br&gt;Location: 61835 - 62117" style="stroke:black; fill:white; stroke-width:1; " id="dummy-1_q11_0_all" points="134,40 138,35 134,30 134,40 " class="clusterblast-orf"  />
<polygon locus_tag="cds62572_63277" description="&lt;b&gt;cds62572_63277&lt;/b&gt;&lt;br&gt;hypothetical protein&lt;br&gt;Location: 62572 - 63277" style="stroke:black; fill:white; stroke-width:1; " id="dummy-1_q12_0_all" points="144,35 149,30 154,30 154,40 149,40 144,35 " class="clusterblast-orf"  />
<polygon locus_tag="cds63327_63651" description="&lt;b&gt;cds63327_63651&lt;/b&gt;&lt;br&gt;putative secreted hydrolase&lt;br&gt;Location: 63327 - 63651" style="stroke:black; fill:white; stroke-width:1; " id="dummy-1_q13_0_all" points="154,40 154,40 159,35 154,30 154,30 154,40 " class="clusterblast-orf"  />
<polygon locus_tag="cds63679_64639" description="&lt;b&gt;cds63679_64639&lt;/b&gt;&lt;br&gt;FIG01124006: hypothetical protein&lt;br&gt;Location: 63679 - 64639" style="stroke:black; fill:white; stroke-width:1; " id="dummy-1_q14_0_all" points="159,40 167,40 172,35 167,30 159,30 159,40 " class="clusterblast-orf"  />
<polygon locus_tag="cds64705_64903" description="&lt;b&gt;cds64705_64903&lt;/b&gt;&lt;br&gt;hypothetical protein&lt;br&gt;Location: 64705 - 64903" style="stroke:black; fill:white; stroke-width:1; " id="dummy-1_q15_0_all" points="173,40 175,35 173,30 173,40 " class="clusterblast-orf"  />
<polygon locus_tag="cds64971_65124" description="&lt;b&gt;cds64971_65124&lt;/b&gt;&lt;br&gt;hypothetical protein&lt;br&gt;Location: 64971 - 65124" style="stroke:black; fill:white; stroke-width:1; " id="dummy-1_q16_0_all" points="176,40 178,35 176,30 176,40 " class="clusterblast-orf"  />
<polygon locus_tag="cds65173_65614" description="&lt;b&gt;cds65173_65614&lt;/b&gt;&lt;br&gt;hypothetical protein&lt;br&gt;Location: 65173 - 65614" style="stroke:black; fill:white; stroke-width:1; " id="dummy-1_q17_0_all" points="179,40 180,40 185,35 180,30 179,30 179,40 " class="clusterblast-orf"  />
<polygon locus_tag="cds65942_66179" description="&lt;b&gt;cds65942_66179&lt;/b&gt;&lt;br&gt;hypothetical protein&lt;br&gt;Location: 65942 - 66179" style="stroke:black; fill:white; stroke-width:1; " id="dummy-1_q18_0_all" points="189,35 192,30 192,40 189,35 " class="clusterblast-orf"  />
<polygon locus_tag="cds66370_66919" description="&lt;b&gt;cds66370_66919&lt;/b&gt;&lt;br&gt;hypothetical protein&lt;br&gt;Location: 66370 - 66919" style="stroke:black; fill:white; stroke-width:1; " id="dummy-1_q19_0_all" points="195,35 200,30 202,30 202,40 200,40 195,35 " class="clusterblast-orf"  />
<polygon locus_tag="cds67098_67743" description="&lt;b&gt;cds67098_67743&lt;/b&gt;&lt;br&gt;hypothetical protein&lt;br&gt;Location: 67098 - 67743" style="stroke:black; fill:white; stroke-width:1; " id="dummy-1_q20_0_all" points="204,40 208,40 213,35 208,30 204,30 204,40 " class="clusterblast-orf"  />
<polygon locus_tag="cds67739_68648" description="&lt;b&gt;cds67739_68648&lt;/b&gt;&lt;br&gt;Transcriptional regulator, PaaX family&lt;br&gt;Location: 67739 - 68648" style="stroke:black; fill:white; stroke-width:1; " id="dummy-1_q21_0_all" points="213,40 220,40 225,35 220,30 213,30 213,40 " class="clusterblast-orf"  />
<polygon locus_tag="cds68675_68780" description="&lt;b&gt;cds68675_68780&lt;/b&gt;&lt;br&gt;hypothetical protein&lt;br&gt;Location: 68675 - 68780" style="stroke:black; fill:white; stroke-width:1; " id="dummy-1_q22_0_all" points="225,40 227,35 225,30 225,40 " class="clusterblast-orf"  />
<polygon locus_tag="cds68789_69215" description="&lt;b&gt;cds68789_69215&lt;/b&gt;&lt;br&gt;hypothetical protein&lt;br&gt;Location: 68789 - 69215" style="stroke:black; fill:white; stroke-width:1; " id="dummy-1_q23_0_all" points="227,40 227,40 232,35 227,30 227,30 227,40 " class="clusterblast-orf"  />
<polygon locus_tag="cds69446_69641" description="&lt;b&gt;cds69446_69641&lt;/b&gt;&lt;br&gt;hypothetical protein&lt;br&gt;Location: 69446 - 69641" style="stroke:black; fill:white; stroke-width:1; " id="dummy-1_q24_0_all" points="235,35 238,30 238,40 235,35 " class="clusterblast-orf"  />
<polygon locus_tag="cds69637_70069" description="&lt;b&gt;cds69637_70069&lt;/b&gt;&lt;br&gt;Thioesterase in siderophore biosynthesis gene cluster&lt;br&gt;Location: 69637 - 70069" style="stroke:black; fill:#8215d8; stroke-width:1; " id="dummy-1_q25_0_all" points="238,35 243,30 244,30 244,40 243,40 238,35 " class="clusterblast-orf"  />
<polygon locus_tag="cds70065_70320" description="&lt;b&gt;cds70065_70320&lt;/b&gt;&lt;br&gt;Butyryl-CoA dehydrogenase (EC 1.3.99.2)&lt;br&gt;Location: 70065 - 70320" style="stroke:black; fill:#d84415; stroke-width:1; " id="dummy-1_q26_0_all" points="244,35 247,30 247,40 244,35 " class="clusterblast-orf"  />
<polygon locus_tag="cds70280_71246" description="&lt;b&gt;cds70280_71246&lt;/b&gt;&lt;br&gt;Acyl-CoA dehydrogenase&lt;br&gt;Location: 70280 - 71246" style="stroke:black; fill:#d84415; stroke-width:1; " id="dummy-1_q27_0_all" points="246,35 251,30 259,30 259,40 251,40 246,35 " class="clusterblast-orf"  />
<polygon locus_tag="cds71327_71489" description="&lt;b&gt;cds71327_71489&lt;/b&gt;&lt;br&gt;hypothetical protein&lt;br&gt;Location: 71327 - 71489" style="stroke:black; fill:white; stroke-width:1; " id="dummy-1_q28_0_all" points="260,35 263,30 263,40 260,35 " class="clusterblast-orf"  />
<polygon locus_tag="cds71485_72805" description="&lt;b&gt;cds71485_72805&lt;/b&gt;&lt;br&gt;Polyketide synthase modules and related proteins&lt;br&gt;Location: 71485 - 72805" style="stroke:black; fill:#25d815; stroke-width:1; " id="dummy-1_q29_0_all" points="262,35 267,30 280,30 280,40 267,40 262,35 " class="clusterblast-orf"  />
<polygon locus_tag="cds73066_73312" description="&lt;b&gt;cds73066_73312&lt;/b&gt;&lt;br&gt;hypothetical protein&lt;br&gt;Location: 73066 - 73312" style="stroke:black; fill:white; stroke-width:1; " id="dummy-1_q30_0_all" points="283,40 287,35 283,30 283,40 " class="clusterblast-orf"  />
<polygon locus_tag="cds73439_73556" description="&lt;b&gt;cds73439_73556&lt;/b&gt;&lt;br&gt;Long-chain-fatty-acid--CoA ligase (EC 6.2.1.3)&lt;br&gt;Location: 73439 - 73556" style="stroke:black; fill:#25d815; stroke-width:1; " id="dummy-1_q31_0_all" points="288,35 290,30 290,40 288,35 " class="clusterblast-orf"  />
<polygon locus_tag="cds73716_74460" description="&lt;b&gt;cds73716_74460&lt;/b&gt;&lt;br&gt;Polyketide synthase modules and related proteins&lt;br&gt;Location: 73716 - 74460" style="stroke:black; fill:#25d815; stroke-width:1; " id="dummy-1_q32_0_all" points="292,35 297,30 302,30 302,40 297,40 292,35 " class="clusterblast-orf"  />
<polygon locus_tag="cds74517_74829" description="&lt;b&gt;cds74517_74829&lt;/b&gt;&lt;br&gt;Siderophore biosynthesis non-ribosomal peptide synthetase modules&lt;br&gt;Location: 74517 - 74829" style="stroke:black; fill:#1592d8; stroke-width:1; " id="dummy-1_q33_0_all" points="303,35 307,30 307,40 303,35 " class="clusterblast-orf"  />
<polygon locus_tag="cds74825_75167" description="&lt;b&gt;cds74825_75167&lt;/b&gt;&lt;br&gt;hypothetical protein&lt;br&gt;Location: 74825 - 75167" style="stroke:black; fill:#1592d8; stroke-width:1; " id="dummy-1_q34_0_all" points="307,35 311,30 311,40 307,35 " class="clusterblast-orf"  />
<polygon locus_tag="cds75641_80114" description="&lt;b&gt;cds75641_80114&lt;/b&gt;&lt;br&gt;hypothetical protein&lt;br&gt;Location: 75641 - 80114" style="stroke:black; fill:#1592d8; stroke-width:1; " id="dummy-1_q35_0_all" points="318,35 323,30 377,30 377,40 323,40 318,35 " class="clusterblast-orf"  />
<polygon locus_tag="cds80085_81150" description="&lt;b&gt;cds80085_81150&lt;/b&gt;&lt;br&gt;hypothetical protein&lt;br&gt;Location: 80085 - 81150" style="stroke:black; fill:white; stroke-width:1; " id="dummy-1_q36_0_all" points="377,40 386,40 391,35 386,30 377,30 377,40 " class="clusterblast-orf"  />
<polygon locus_tag="cds81299_81608" description="&lt;b&gt;cds81299_81608&lt;/b&gt;&lt;br&gt;Polyketide synthase modules and related proteins&lt;br&gt;Location: 81299 - 81608" style="stroke:black; fill:#1592d8; stroke-width:1; " id="dummy-1_q37_0_all" points="393,35 397,30 397,40 393,35 " class="clusterblast-orf"  />
<polygon locus_tag="cds81574_81994" description="&lt;b&gt;cds81574_81994&lt;/b&gt;&lt;br&gt;Malonyl CoA-acyl carrier protein transacylase (EC 2.3.1.39)&lt;br&gt;Location: 81574 - 81994" style="stroke:black; fill:#1592d8; stroke-width:1; " id="dummy-1_q38_0_all" points="396,35 401,30 402,30 402,40 401,40 396,35 " class="clusterblast-orf"  />
<polygon locus_tag="cds82044_82179" description="&lt;b&gt;cds82044_82179&lt;/b&gt;&lt;br&gt;N-methyl-L-amino-acid oxidase (EC 1.5.3.2); N-methyl-L-tryptophan oxidase (EC 1.5.3.-)&lt;br&gt;Location: 82044 - 82179" style="stroke:black; fill:#b115d8; stroke-width:1; " id="dummy-1_q39_0_all" points="403,35 404,30 404,40 403,35 " class="clusterblast-orf"  />
<polygon locus_tag="cds82172_83234" description="&lt;b&gt;cds82172_83234&lt;/b&gt;&lt;br&gt;hypothetical protein&lt;br&gt;Location: 82172 - 83234" style="stroke:black; fill:#b115d8; stroke-width:1; " id="dummy-1_q40_0_all" points="404,35 409,30 418,30 418,40 409,40 404,35 " class="clusterblast-orf"  />
<polygon locus_tag="cds83230_84190" description="&lt;b&gt;cds83230_84190&lt;/b&gt;&lt;br&gt;hypothetical protein&lt;br&gt;Location: 83230 - 84190" style="stroke:black; fill:#d87315; stroke-width:1; " id="dummy-1_q41_0_all" points="418,35 423,30 431,30 431,40 423,40 418,35 " class="clusterblast-orf"  />
<polygon locus_tag="cds84259_84511" description="&lt;b&gt;cds84259_84511&lt;/b&gt;&lt;br&gt;hypothetical protein&lt;br&gt;Location: 84259 - 84511" style="stroke:black; fill:#d87315; stroke-width:1; " id="dummy-1_q42_0_all" points="432,35 435,30 435,40 432,35 " class="clusterblast-orf"  />
<polygon locus_tag="cds84869_85103" description="&lt;b&gt;cds84869_85103&lt;/b&gt;&lt;br&gt;hypothetical protein&lt;br&gt;Location: 84869 - 85103" style="stroke:black; fill:#15d834; stroke-width:1; " id="dummy-1_q43_0_all" points="440,40 443,35 440,30 440,40 " class="clusterblast-orf"  />
<polygon locus_tag="cds85099_85579" description="&lt;b&gt;cds85099_85579&lt;/b&gt;&lt;br&gt;hypothetical protein&lt;br&gt;Location: 85099 - 85579" style="stroke:black; fill:white; stroke-width:1; " id="dummy-1_q44_0_all" points="443,40 444,40 449,35 444,30 443,30 443,40 " class="clusterblast-orf"  />
<polygon locus_tag="cds85535_86789" description="&lt;b&gt;cds85535_86789&lt;/b&gt;&lt;br&gt;2,3-dihydroxybenzoate-AMP ligase (EC 2.7.7.58) of siderophore biosynthesis / Salicylate synthetase (EC 5.4.4.2)(EC 4.2.99.21) of siderophore biosynthesis&lt;br&gt;Location: 85535 - 86789" style="stroke:black; fill:#1563d8; stroke-width:1; " id="dummy-1_q45_0_all" points="449,40 460,40 465,35 460,30 449,30 449,40 " class="clusterblast-orf"  />
<polygon locus_tag="cds86793_88206" description="&lt;b&gt;cds86793_88206&lt;/b&gt;&lt;br&gt;hypothetical protein&lt;br&gt;Location: 86793 - 88206" style="stroke:black; fill:#d815d0; stroke-width:1; " id="dummy-1_q46_0_all" points="466,40 479,40 484,35 479,30 466,30 466,40 " class="clusterblast-orf"  />
<polygon locus_tag="cds88174_89311" description="&lt;b&gt;cds88174_89311&lt;/b&gt;&lt;br&gt;Putative hydroxylase&lt;br&gt;Location: 88174 - 89311" style="stroke:black; fill:#d8a215; stroke-width:1; " id="dummy-1_q47_0_all" points="484,35 489,30 499,30 499,40 489,40 484,35 " class="clusterblast-orf"  />
<polygon locus_tag="cds89534_89756" description="&lt;b&gt;cds89534_89756&lt;/b&gt;&lt;br&gt;hypothetical protein&lt;br&gt;Location: 89534 - 89756" style="stroke:black; fill:white; stroke-width:1; " id="dummy-1_q48_0_all" points="502,35 505,30 505,40 502,35 " class="clusterblast-orf"  />
<polygon locus_tag="cds89809_90637" description="&lt;b&gt;cds89809_90637&lt;/b&gt;&lt;br&gt;EhpF&lt;br&gt;Location: 89809 - 90637" style="stroke:black; fill:#15d863; stroke-width:1; " id="dummy-1_q49_0_all" points="506,40 511,40 516,35 511,30 506,30 506,40 " class="clusterblast-orf"  />
<polygon locus_tag="cds90888_92085" description="&lt;b&gt;cds90888_92085&lt;/b&gt;&lt;br&gt;Aldehyde dehydrogenase (EC 1.2.1.3)&lt;br&gt;Location: 90888 - 92085" style="stroke:black; fill:#1534d8; stroke-width:1; " id="dummy-1_q50_0_all" points="520,40 531,40 536,35 531,30 520,30 520,40 " class="clusterblast-orf"  />
<polygon locus_tag="cds92109_93270" description="&lt;b&gt;cds92109_93270&lt;/b&gt;&lt;br&gt;hypothetical protein&lt;br&gt;Location: 92109 - 93270" style="stroke:black; fill:#d815a2; stroke-width:1; " id="dummy-1_q51_0_all" points="536,35 541,30 551,30 551,40 541,40 536,35 " class="clusterblast-orf"  />
<polygon locus_tag="cds93220_94801" description="&lt;b&gt;cds93220_94801&lt;/b&gt;&lt;br&gt;Aminotransferase, class III&lt;br&gt;Location: 93220 - 94801" style="stroke:black; fill:#d8d015; stroke-width:1; " id="dummy-1_q52_0_all" points="551,35 556,30 572,30 572,40 556,40 551,35 " class="clusterblast-orf"  />
<polygon locus_tag="cds95301_96045" description="&lt;b&gt;cds95301_96045&lt;/b&gt;&lt;br&gt;hypothetical protein&lt;br&gt;Location: 95301 - 96045" style="stroke:black; fill:white; stroke-width:1; " id="dummy-1_q53_0_all" points="578,35 583,30 588,30 588,40 583,40 578,35 " class="clusterblast-orf"  />
<polygon locus_tag="cds96161_96593" description="&lt;b&gt;cds96161_96593&lt;/b&gt;&lt;br&gt;secreted FAD-binding protein&lt;br&gt;Location: 96161 - 96593" style="stroke:black; fill:#15d892; stroke-width:1; " id="dummy-1_q54_0_all" points="590,40 590,40 595,35 590,30 590,30 590,40 " class="clusterblast-orf"  />
<polygon locus_tag="cds96597_97656" description="&lt;b&gt;cds96597_97656&lt;/b&gt;&lt;br&gt;hypothetical protein&lt;br&gt;Location: 96597 - 97656" style="stroke:black; fill:#2515d8; stroke-width:1; " id="dummy-1_q55_0_all" points="596,40 605,40 610,35 605,30 596,30 596,40 " class="clusterblast-orf"  />
<polygon locus_tag="cds97831_98326" description="&lt;b&gt;cds97831_98326&lt;/b&gt;&lt;br&gt;hypothetical protein&lt;br&gt;Location: 97831 - 98326" style="stroke:black; fill:#d81573; stroke-width:1; " id="dummy-1_q56_0_all" points="612,35 617,30 618,30 618,40 617,40 612,35 " class="clusterblast-orf"  />
<polygon locus_tag="cds98361_98577" description="&lt;b&gt;cds98361_98577&lt;/b&gt;&lt;br&gt;hypothetical protein&lt;br&gt;Location: 98361 - 98577" style="stroke:black; fill:white; stroke-width:1; " id="dummy-1_q57_0_all" points="619,40 622,35 619,30 619,40 " class="clusterblast-orf"  />
<polygon locus_tag="cds98590_99400" description="&lt;b&gt;cds98590_99400&lt;/b&gt;&lt;br&gt;ABC transporter, ATP-binding protein (cluster 8, B12/iron complex)&lt;br&gt;Location: 98590 - 99400" style="stroke:black; fill:#b1d815; stroke-width:1; " id="dummy-1_q58_0_all" points="622,35 627,30 633,30 633,40 627,40 622,35 " class="clusterblast-orf"  />
<polygon locus_tag="cds99396_99690" description="&lt;b&gt;cds99396_99690&lt;/b&gt;&lt;br&gt;ABC transporter, permease protein (cluster 8, B12/iron complex)&lt;br&gt;Location: 99396 - 99690" style="stroke:black; fill:#15d8c1; stroke-width:1; " id="dummy-1_q59_0_all" points="633,35 637,30 637,40 633,35 " class="clusterblast-orf"  />
<polygon locus_tag="cds99653_99938" description="&lt;b&gt;cds99653_99938&lt;/b&gt;&lt;br&gt;ABC transporter, permease protein (cluster 8, B12/iron complex)&lt;br&gt;Location: 99653 - 99938" style="stroke:black; fill:#15d8c1; stroke-width:1; " id="dummy-1_q60_0_all" points="636,35 640,30 640,40 636,35 " class="clusterblast-orf"  />
<polygon locus_tag="cds99934_100501" description="&lt;b&gt;cds99934_100501&lt;/b&gt;&lt;br&gt;ABC transporter, permease protein (cluster 8, B12/iron complex)&lt;br&gt;Location: 99934 - 100501" style="stroke:black; fill:#15d8c1; stroke-width:1; " id="dummy-1_q61_0_all" points="640,35 645,30 647,30 647,40 645,40 640,35 " class="clusterblast-orf"  />
<polygon locus_tag="cds100509_100674" description="&lt;b&gt;cds100509_100674&lt;/b&gt;&lt;br&gt;ABC transporter, substrate-binding protein (cluster 8, B12/iron complex)&lt;br&gt;Location: 100509 - 100674" style="stroke:black; fill:#5415d8; stroke-width:1; " id="dummy-1_q62_0_all" points="647,35 650,30 650,40 647,35 " class="clusterblast-orf"  />
<polygon locus_tag="cds100684_101341" description="&lt;b&gt;cds100684_101341&lt;/b&gt;&lt;br&gt;ABC transporter, substrate-binding protein (cluster 8, B12/iron complex)&lt;br&gt;Location: 100684 - 101341" style="stroke:black; fill:#5415d8; stroke-width:1; " id="dummy-1_q63_0_all" points="650,35 655,30 658,30 658,40 655,40 650,35 " class="clusterblast-orf"  />
<polygon locus_tag="cds101368_101482" description="&lt;b&gt;cds101368_101482&lt;/b&gt;&lt;br&gt;hypothetical protein&lt;br&gt;Location: 101368 - 101482" style="stroke:black; fill:white; stroke-width:1; " id="dummy-1_q64_0_all" points="659,40 660,35 659,30 659,40 " class="clusterblast-orf"  />
<polygon locus_tag="cds101786_102155" description="&lt;b&gt;cds101786_102155&lt;/b&gt;&lt;br&gt;ABC transporter, ATP-binding protein (cluster 8, B12/iron complex)&lt;br&gt;Location: 101786 - 102155" style="stroke:black; fill:#d81544; stroke-width:1; " id="dummy-1_q65_0_all" points="664,40 664,40 669,35 664,30 664,30 664,40 " class="clusterblast-orf"  />
<polygon locus_tag="cds102151_103078" description="&lt;b&gt;cds102151_103078&lt;/b&gt;&lt;br&gt;ABC transporter, ATP-binding protein (cluster 8, B12/iron complex)&lt;br&gt;Location: 102151 - 103078" style="stroke:black; fill:#d81544; stroke-width:1; " id="dummy-1_q66_0_all" points="669,40 676,40 681,35 676,30 669,30 669,40 " class="clusterblast-orf"  />
<polygon locus_tag="cds103086_103653" description="&lt;b&gt;cds103086_103653&lt;/b&gt;&lt;br&gt;ABC transporter, ATP-binding protein (cluster 8, B12/iron complex)&lt;br&gt;Location: 103086 - 103653" style="stroke:black; fill:#d81544; stroke-width:1; " id="dummy-1_q67_0_all" points="682,40 684,40 689,35 684,30 682,30 682,40 " class="clusterblast-orf"  />
<polygon locus_tag="cds103625_104378" description="&lt;b&gt;cds103625_104378&lt;/b&gt;&lt;br&gt;ABC transporter, ATP-binding protein (cluster 8, B12/iron complex)&lt;br&gt;Location: 103625 - 104378" style="stroke:black; fill:#d81544; stroke-width:1; " id="dummy-1_q68_0_all" points="689,40 694,40 699,35 694,30 689,30 689,40 " class="clusterblast-orf"  />
<polygon locus_tag="cds104403_105132" description="&lt;b&gt;cds104403_105132&lt;/b&gt;&lt;br&gt;ABC transporter, ATP-binding protein (cluster 8, B12/iron complex)&lt;br&gt;Location: 104403 - 105132" style="stroke:black; fill:#d81544; stroke-width:1; " id="dummy-1_q69_0_all" points="699,40 704,40 709,35 704,30 699,30 699,40 " class="clusterblast-orf"  />
<polygon locus_tag="cds105282_105585" description="&lt;b&gt;cds105282_105585&lt;/b&gt;&lt;br&gt;Transcriptional regulator, AcrR family&lt;br&gt;Location: 105282 - 105585" style="stroke:black; fill:#82d815; stroke-width:1; " id="dummy-1_q70_0_all" points="711,35 715,30 715,40 711,35 " class="clusterblast-orf"  />
<polygon locus_tag="cds106317_107037" description="&lt;b&gt;cds106317_107037&lt;/b&gt;&lt;br&gt;Putative sensor-like histidine kinase&lt;br&gt;Location: 106317 - 107037" style="stroke:black; fill:white; stroke-width:1; " id="dummy-1_q71_0_all" points="724,40 729,40 734,35 729,30 724,30 724,40 " class="clusterblast-orf"  />
<polygon locus_tag="cds107239_108799" description="&lt;b&gt;cds107239_108799&lt;/b&gt;&lt;br&gt;Putative sensor-like histidine kinase&lt;br&gt;Location: 107239 - 108799" style="stroke:black; fill:white; stroke-width:1; " id="dummy-1_q72_0_all" points="737,40 752,40 757,35 752,30 737,30 737,40 " class="clusterblast-orf"  />
<polygon locus_tag="cds108795_109200" description="&lt;b&gt;cds108795_109200&lt;/b&gt;&lt;br&gt;Roadblock/LC7 family protein&lt;br&gt;Location: 108795 - 109200" style="stroke:black; fill:white; stroke-width:1; " id="dummy-1_q73_0_all" points="757,40 758,40 763,35 758,30 757,30 757,40 " class="clusterblast-orf"  />
<polygon locus_tag="cds109248_109608" description="&lt;b&gt;cds109248_109608&lt;/b&gt;&lt;br&gt;Benzoate ABC transporter, substrate-binding protein&lt;br&gt;Location: 109248 - 109608" style="stroke:black; fill:white; stroke-width:1; " id="dummy-1_q74_0_all" points="763,40 763,40 768,35 763,30 763,30 763,40 " class="clusterblast-orf"  />
<polygon locus_tag="cds109701_109833" description="&lt;b&gt;cds109701_109833&lt;/b&gt;&lt;br&gt;hypothetical protein&lt;br&gt;Location: 109701 - 109833" style="stroke:black; fill:white; stroke-width:1; " id="dummy-1_q75_0_all" points="769,35 771,30 771,40 769,35 " class="clusterblast-orf"  />
<polygon locus_tag="cds109869_110478" description="&lt;b&gt;cds109869_110478&lt;/b&gt;&lt;br&gt;Benzoate ABC transporter, substrate-binding protein&lt;br&gt;Location: 109869 - 110478" style="stroke:black; fill:white; stroke-width:1; " id="dummy-1_q76_0_all" points="772,40 775,40 780,35 775,30 772,30 772,40 " class="clusterblast-orf"  />
</g>
<g class="clusterblast-cluster" description="BGC0002010_c1: streptophenazine B / streptophenazine C / streptophenazine F /... (7% of genes show similarity), NRP + Polyketide" label="BGC0002010"  >
<text class="clusterblast-acc" y="70" x="5"  >
<a xlink:href="https://mibig.secondarymetabolites.org/go/BGC0002010/1" target="_blank">BGC0002010</a>: streptophenazine B / streptophenazine C / streptophenazine F / streptophenazine G / streptophenazine H (7% of genes show similarity), NRP + Polyketide</text>
<line x2="778.0" y1="85" style="stroke:grey; stroke-width:1; " x1="10" y2="85"  />
</g>
<g id="a1_000"  >
<polygon locus_tag="D581_RS0125600" description="&lt;b&gt;D581_RS0125600&lt;/b&gt;&lt;br&gt;TetR/AcrR family transcriptional regulator&lt;br&gt;Location: 36734 - 36111" style="stroke:black; fill:white; stroke-width:1; " id="dummy-1_h1_5_0" points="146,90 149,90 154,85 149,80 146,80 146,90 " class="clusterblast-orf"  />
</g>
<g id="a1_001"  >
<polygon locus_tag="D581_RS0125595" description="&lt;b&gt;D581_RS0125595&lt;/b&gt;&lt;br&gt;FAD-dependent oxidoreductase&lt;br&gt;Location: 35772 - 33427" style="stroke:black; fill:white; stroke-width:1; " id="dummy-1_h1_5_1" points="159,90 185,90 190,85 185,80 159,80 159,90 " class="clusterblast-orf"  />
</g>
<g id="a1_002"  >
<polygon locus_tag="D581_RS0125590" description="&lt;b&gt;D581_RS0125590&lt;/b&gt;&lt;br&gt;MFS transporter&lt;br&gt;Location: 33307 - 31757" style="stroke:black; fill:white; stroke-width:1; " id="dummy-1_h1_5_2" points="191,90 207,90 212,85 207,80 191,80 191,90 " class="clusterblast-orf"  />
</g>
<g id="a1_003"  >
<polygon locus_tag="D581_RS0125585" description="&lt;b&gt;D581_RS0125585&lt;/b&gt;&lt;br&gt;class I SAM-dependent methyltransferase&lt;br&gt;Location: 31549 - 30707" style="stroke:black; fill:white; stroke-width:1; " id="dummy-1_h1_5_3" points="215,90 221,90 226,85 221,80 215,80 215,90 " class="clusterblast-orf"  />
</g>
<g id="a1_004"  >
<polygon locus_tag="D581_RS0125580" description="&lt;b&gt;D581_RS0125580&lt;/b&gt;&lt;br&gt;hypothetical protein&lt;br&gt;Location: 30621 - 28081" style="stroke:black; fill:white; stroke-width:1; " id="dummy-1_h1_5_4" points="227,90 256,90 261,85 256,80 227,80 227,90 " class="clusterblast-orf"  />
</g>
<g id="a1_005"  >
<polygon locus_tag="D581_RS01000000137740" description="&lt;b&gt;D581_RS01000000137740&lt;/b&gt;&lt;br&gt;hypothetical protein&lt;br&gt;Location: 28046 - 27753" style="stroke:black; fill:white; stroke-width:1; " id="dummy-1_h1_5_5" points="261,85 265,80 265,90 261,85 " class="clusterblast-orf"  />
</g>
<g id="a1_006"  >
<polygon locus_tag="D581_RS0125570" description="&lt;b&gt;D581_RS0125570&lt;/b&gt;&lt;br&gt;hypothetical protein&lt;br&gt;Location: 27694 - 26660" style="stroke:black; fill:white; stroke-width:1; " id="dummy-1_h1_5_6" points="266,85 271,80 280,80 280,90 271,90 266,85 " class="clusterblast-orf"  />
</g>
<g id="a1_007"  >
<polygon locus_tag="D581_RS0125565" description="&lt;b&gt;D581_RS0125565&lt;/b&gt;&lt;br&gt;hypothetical protein&lt;br&gt;Location: 26325 - 25825" style="stroke:black; fill:white; stroke-width:1; " id="dummy-1_h1_5_7" points="284,90 286,90 291,85 286,80 284,80 284,90 " class="clusterblast-orf"  />
</g>
<g id="a1_008"  >
<polygon locus_tag="D581_RS0125560" description="&lt;b&gt;D581_RS0125560&lt;/b&gt;&lt;br&gt;hypothetical protein&lt;br&gt;Location: 25772 - 24597" style="stroke:black; fill:white; stroke-width:1; " id="dummy-1_h1_5_8" points="291,90 302,90 307,85 302,80 291,80 291,90 " class="clusterblast-orf"  />
</g>
<g id="a1_009"  >
<polygon locus_tag="D581_RS0125555" description="&lt;b&gt;D581_RS0125555&lt;/b&gt;&lt;br&gt;isochorismatase family protein&lt;br&gt;Location: 24574 - 23951" style="stroke:black; fill:white; stroke-width:1; " id="dummy-1_h1_5_9" points="307,90 310,90 315,85 310,80 307,80 307,90 " class="clusterblast-orf"  />
</g>
<g id="a1_0010"  >
<polygon locus_tag="D581_RS0125550" description="&lt;b&gt;D581_RS0125550&lt;/b&gt;&lt;br&gt;phenazine-specific anthranilate synthase&lt;br&gt;Location: 23945 - 22071" style="stroke:black; fill:white; stroke-width:1; " id="dummy-1_h1_5_10" points="316,90 335,90 340,85 335,80 316,80 316,90 " class="clusterblast-orf"  />
</g>
<g id="a1_0011"  >
<polygon locus_tag="D581_RS0125545" description="&lt;b&gt;D581_RS0125545&lt;/b&gt;&lt;br&gt;PhzF family phenazine biosynthesis isomerase&lt;br&gt;Location: 22003 - 21152" style="stroke:black; fill:white; stroke-width:1; " id="dummy-1_h1_5_11" points="341,90 348,90 353,85 348,80 341,80 341,90 " class="clusterblast-orf"  />
</g>
<g id="a1_0012"  >
<polygon locus_tag="D581_RS0125540" description="&lt;b&gt;D581_RS0125540&lt;/b&gt;&lt;br&gt;pyridoxamine 5'-phosphate oxidase&lt;br&gt;Location: 21068 - 20406" style="stroke:black; fill:white; stroke-width:1; " id="dummy-1_h1_5_12" points="354,90 357,90 362,85 357,80 354,80 354,90 " class="clusterblast-orf"  />
</g>
<g id="a1_0013"  >
<polygon locus_tag="D581_RS01000000137735" description="&lt;b&gt;D581_RS01000000137735&lt;/b&gt;&lt;br&gt;amino acid adenylation domain-containing protein&lt;br&gt;Location: 20319 - 18682" style="stroke:black; fill:white; stroke-width:1; " id="dummy-1_h1_5_13" points="364,90 380,90 385,85 380,80 364,80 364,90 " class="clusterblast-orf"  />
</g>
<g id="a1_0014"  >
<polygon locus_tag="D581_RS0125530" description="&lt;b&gt;D581_RS0125530&lt;/b&gt;&lt;br&gt;FAD-binding oxidoreductase&lt;br&gt;Location: 18649 - 17273" style="stroke:black; fill:white; stroke-width:1; " id="dummy-1_h1_5_14" points="386,90 399,90 404,85 399,80 386,80 386,90 " class="clusterblast-orf"  />
</g>
<g id="a1_0015"  >
<polygon locus_tag="D581_RS01000000137730" description="&lt;b&gt;D581_RS01000000137730&lt;/b&gt;&lt;br&gt;hypothetical protein&lt;br&gt;Location: 17200 - 16925" style="stroke:black; fill:white; stroke-width:1; " id="dummy-1_h1_5_15" points="405,85 409,80 409,90 405,85 " class="clusterblast-orf"  />
</g>
<g id="a1_0016"  >
<polygon locus_tag="D581_RS0125520" description="&lt;b&gt;D581_RS0125520&lt;/b&gt;&lt;br&gt;phenazine antibiotic biosynthesis protein&lt;br&gt;Location: 16739 - 15630&lt;br&gt;&lt;br&gt;&lt;b&gt;BlastP hit with cds89809_90637&lt;/b&gt;&lt;br&gt;Percentage identity: 49&lt;br&gt;Percentage coverage: 100&lt;br&gt;BLAST bit score: 256&lt;br&gt;E-value: 4.3e-68" style="stroke:black; fill:#15d863; stroke-width:1; " id="dummy-1_h1_5_16" points="411,90 421,90 426,85 421,80 411,80 411,90 " class="clusterblast-orf"  />
</g>
<g id="a1_0017"  >
<polygon locus_tag="D581_RS0125515" description="&lt;b&gt;D581_RS0125515&lt;/b&gt;&lt;br&gt;aldehyde dehydrogenase family protein&lt;br&gt;Location: 15630 - 14185&lt;br&gt;&lt;br&gt;&lt;b&gt;BlastP hit with cds90888_92085&lt;/b&gt;&lt;br&gt;Percentage identity: 52&lt;br&gt;Percentage coverage: 66&lt;br&gt;BLAST bit score: 254&lt;br&gt;E-value: 3.1e-67" style="stroke:black; fill:#1534d8; stroke-width:1; " id="dummy-1_h1_5_17" points="426,90 440,90 445,85 440,80 426,80 426,90 " class="clusterblast-orf"  />
</g>
<g id="a1_0018"  >
<polygon locus_tag="D581_RS0125510" description="&lt;b&gt;D581_RS0125510&lt;/b&gt;&lt;br&gt;hypothetical protein&lt;br&gt;Location: 14019 - 13690" style="stroke:black; fill:white; stroke-width:1; " id="dummy-1_h1_5_18" points="447,90 447,90 452,85 447,80 447,80 447,90 " class="clusterblast-orf"  />
</g>
<g id="a1_0019"  >
<polygon locus_tag="D581_RS01000000137725" description="&lt;b&gt;D581_RS01000000137725&lt;/b&gt;&lt;br&gt;type I polyketide synthase&lt;br&gt;Location: 13697 - 10956" style="stroke:black; fill:white; stroke-width:1; " id="dummy-1_h1_5_19" points="451,90 483,90 488,85 483,80 451,80 451,90 " class="clusterblast-orf"  />
</g>
<g id="a1_0020"  >
<polygon locus_tag="D581_RS01000000137720" description="&lt;b&gt;D581_RS01000000137720&lt;/b&gt;&lt;br&gt;thioesterase&lt;br&gt;Location: 10959 - 10165" style="stroke:black; fill:white; stroke-width:1; " id="dummy-1_h1_5_20" points="488,90 493,90 498,85 493,80 488,80 488,90 " class="clusterblast-orf"  />
</g>
<g id="a1_0021"  >
<polygon locus_tag="D581_RS0125495" description="&lt;b&gt;D581_RS0125495&lt;/b&gt;&lt;br&gt;aldo/keto reductase&lt;br&gt;Location: 10098 - 9043" style="stroke:black; fill:white; stroke-width:1; " id="dummy-1_h1_5_21" points="499,90 508,90 513,85 508,80 499,80 499,90 " class="clusterblast-orf"  />
</g>
<g id="a1_0022"  >
<polygon locus_tag="D581_RS01000000137715" description="&lt;b&gt;D581_RS01000000137715&lt;/b&gt;&lt;br&gt;type I polyketide synthase&lt;br&gt;Location: 9041 - 6585" style="stroke:black; fill:white; stroke-width:1; " id="dummy-1_h1_5_22" points="513,90 541,90 546,85 541,80 513,80 513,90 " class="clusterblast-orf"  />
</g>
<g id="a1_0023"  >
<polygon locus_tag="D581_RS0125485" description="&lt;b&gt;D581_RS0125485&lt;/b&gt;&lt;br&gt;crotonyl-CoA carboxylase/reductase&lt;br&gt;Location: 6499 - 5249" style="stroke:black; fill:white; stroke-width:1; " id="dummy-1_h1_5_23" points="547,90 558,90 563,85 558,80 547,80 547,90 " class="clusterblast-orf"  />
</g>
<g id="a1_0024"  >
<polygon locus_tag="D581_RS0125480" description="&lt;b&gt;D581_RS0125480&lt;/b&gt;&lt;br&gt;fatty acyl-AMP ligase&lt;br&gt;Location: 5252 - 3450" style="stroke:black; fill:white; stroke-width:1; " id="dummy-1_h1_5_24" points="563,90 582,90 587,85 582,80 563,80 563,90 " class="clusterblast-orf"  />
</g>
<g id="a1_0025"  >
<polygon locus_tag="D581_RS0125475" description="&lt;b&gt;D581_RS0125475&lt;/b&gt;&lt;br&gt;LysR family transcriptional regulator&lt;br&gt;Location: 3313 - 2432" style="stroke:black; fill:white; stroke-width:1; " id="dummy-1_h1_5_25" points="589,90 596,90 601,85 596,80 589,80 589,90 " class="clusterblast-orf"  />
</g>
<g id="a1_0026"  >
<polygon locus_tag="D581_RS01000000137710" description="&lt;b&gt;D581_RS01000000137710&lt;/b&gt;&lt;br&gt;cytochrome ubiquinol oxidase subunit I&lt;br&gt;Location: 2373 - 1054" style="stroke:black; fill:white; stroke-width:1; " id="dummy-1_h1_5_26" points="602,90 614,90 619,85 614,80 602,80 602,90 " class="clusterblast-orf"  />
</g>
<g id="a1_0027"  >
<polygon locus_tag="D581_RS0125465" description="&lt;b&gt;D581_RS0125465&lt;/b&gt;&lt;br&gt;cytochrome d ubiquinol oxidase subunit II&lt;br&gt;Location: 990 - 1" style="stroke:black; fill:white; stroke-width:1; " id="dummy-1_h1_5_27" points="620,90 628,90 633,85 628,80 620,80 620,90 " class="clusterblast-orf"  />
</g>
</svg>
