<svg preserveAspectRatio="none" height="230" version="1.1" xmlns:xlink="http://www.w3.org/1999/xlink" width="800" viewBox="0 0 800 230" y="0" x="0" xmlns="http://www.w3.org/2000/svg"  >
<g class="clusterblast-cluster" label="Query sequence"  >
<text class="clusterblast-acc" y="20" x="5"  >
Query sequence</text>
<line x2="778.0" y1="35" style="stroke:grey; stroke-width:1; " x1="10" y2="35"  />
<polygon locus_tag="cds476512_477196" description="&lt;b&gt;cds476512_477196&lt;/b&gt;&lt;br&gt;putative secreted protein&lt;br&gt;Location: 476512 - 477196" style="stroke:black; fill:white; stroke-width:1; " id="dummy-1_q0_0_all" points="23,40 27,40 32,35 27,30 23,30 23,40 " class="clusterblast-orf"  />
<polygon locus_tag="cds477484_478198" description="&lt;b&gt;cds477484_478198&lt;/b&gt;&lt;br&gt;FIG01121868: Possible membrane protein, Rv0205&lt;br&gt;Location: 477484 - 478198" style="stroke:black; fill:white; stroke-width:1; " id="dummy-1_q1_0_all" points="36,40 41,40 46,35 41,30 36,30 36,40 " class="clusterblast-orf"  />
<polygon locus_tag="cds478218_478755" description="&lt;b&gt;cds478218_478755&lt;/b&gt;&lt;br&gt;FIG01121868: Possible membrane protein, Rv0205&lt;br&gt;Location: 478218 - 478755" style="stroke:black; fill:white; stroke-width:1; " id="dummy-1_q2_0_all" points="47,40 49,40 54,35 49,30 47,30 47,40 " class="clusterblast-orf"  />
<polygon locus_tag="cds478847_479381" description="&lt;b&gt;cds478847_479381&lt;/b&gt;&lt;br&gt;Alkyl hydroperoxide reductase AhpD (EC 1.11.1.15)&lt;br&gt;Location: 478847 - 479381" style="stroke:black; fill:white; stroke-width:1; " id="dummy-1_q3_0_all" points="56,35 61,30 63,30 63,40 61,40 56,35 " class="clusterblast-orf"  />
<polygon locus_tag="cds479388_479949" description="&lt;b&gt;cds479388_479949&lt;/b&gt;&lt;br&gt;Alkyl hydroperoxide reductase protein C (EC 1.11.1.15)&lt;br&gt;Location: 479388 - 479949" style="stroke:black; fill:white; stroke-width:1; " id="dummy-1_q4_0_all" points="63,35 68,30 71,30 71,40 68,40 63,35 " class="clusterblast-orf"  />
<polygon locus_tag="cds480226_480466" description="&lt;b&gt;cds480226_480466&lt;/b&gt;&lt;br&gt;hypothetical protein&lt;br&gt;Location: 480226 - 480466" style="stroke:black; fill:white; stroke-width:1; " id="dummy-1_q5_0_all" points="75,35 78,30 78,40 75,35 " class="clusterblast-orf"  />
<polygon locus_tag="cds480639_481074" description="&lt;b&gt;cds480639_481074&lt;/b&gt;&lt;br&gt;Hydrogen peroxide-inducible genes activator =&gt; OxyR&lt;br&gt;Location: 480639 - 481074" style="stroke:black; fill:white; stroke-width:1; " id="dummy-1_q6_0_all" points="81,40 82,40 87,35 82,30 81,30 81,40 " class="clusterblast-orf"  />
<polygon locus_tag="cds481494_482412" description="&lt;b&gt;cds481494_482412&lt;/b&gt;&lt;br&gt;ABC transporter, fused permease protein&lt;br&gt;Location: 481494 - 482412" style="stroke:black; fill:white; stroke-width:1; " id="dummy-1_q7_0_all" points="93,35 98,30 106,30 106,40 98,40 93,35 " class="clusterblast-orf"  />
<polygon locus_tag="cds482408_483554" description="&lt;b&gt;cds482408_483554&lt;/b&gt;&lt;br&gt;ABC transporter, fused permease protein&lt;br&gt;Location: 482408 - 483554" style="stroke:black; fill:white; stroke-width:1; " id="dummy-1_q8_0_all" points="106,35 111,30 122,30 122,40 111,40 106,35 " class="clusterblast-orf"  />
<polygon locus_tag="cds483550_484237" description="&lt;b&gt;cds483550_484237&lt;/b&gt;&lt;br&gt;ABC-type antimicrobial peptide transport system, ATPase component&lt;br&gt;Location: 483550 - 484237" style="stroke:black; fill:white; stroke-width:1; " id="dummy-1_q9_0_all" points="122,35 127,30 131,30 131,40 127,40 122,35 " class="clusterblast-orf"  />
<polygon locus_tag="cds484233_484758" description="&lt;b&gt;cds484233_484758&lt;/b&gt;&lt;br&gt;Transcriptional regulator, PadR family&lt;br&gt;Location: 484233 - 484758" style="stroke:black; fill:white; stroke-width:1; " id="dummy-1_q10_0_all" points="131,35 136,30 139,30 139,40 136,40 131,35 " class="clusterblast-orf"  />
<polygon locus_tag="cds484870_485119" description="&lt;b&gt;cds484870_485119&lt;/b&gt;&lt;br&gt;Uncharacterized protein BT 4195&lt;br&gt;Location: 484870 - 485119" style="stroke:black; fill:white; stroke-width:1; " id="dummy-1_q11_0_all" points="140,35 144,30 144,40 140,35 " class="clusterblast-orf"  />
<polygon locus_tag="cds485155_485314" description="&lt;b&gt;cds485155_485314&lt;/b&gt;&lt;br&gt;Membrane protease family protein BA0301&lt;br&gt;Location: 485155 - 485314" style="stroke:black; fill:white; stroke-width:1; " id="dummy-1_q12_0_all" points="144,35 147,30 147,40 144,35 " class="clusterblast-orf"  />
<polygon locus_tag="cds485376_485697" description="&lt;b&gt;cds485376_485697&lt;/b&gt;&lt;br&gt;hypothetical protein&lt;br&gt;Location: 485376 - 485697" style="stroke:black; fill:white; stroke-width:1; " id="dummy-1_q13_0_all" points="148,40 152,35 148,30 148,40 " class="clusterblast-orf"  />
<polygon locus_tag="cds485754_486063" description="&lt;b&gt;cds485754_486063&lt;/b&gt;&lt;br&gt;Membrane protease family protein BA0301&lt;br&gt;Location: 485754 - 486063" style="stroke:black; fill:white; stroke-width:1; " id="dummy-1_q14_0_all" points="153,35 157,30 157,40 153,35 " class="clusterblast-orf"  />
<polygon locus_tag="cds486819_486924" description="&lt;b&gt;cds486819_486924&lt;/b&gt;&lt;br&gt;hypothetical protein&lt;br&gt;Location: 486819 - 486924" style="stroke:black; fill:white; stroke-width:1; " id="dummy-1_q15_0_all" points="168,35 169,30 169,40 168,35 " class="clusterblast-orf"  />
<polygon locus_tag="cds487113_487215" description="&lt;b&gt;cds487113_487215&lt;/b&gt;&lt;br&gt;hypothetical protein&lt;br&gt;Location: 487113 - 487215" style="stroke:black; fill:white; stroke-width:1; " id="dummy-1_q16_0_all" points="172,35 173,30 173,40 172,35 " class="clusterblast-orf"  />
<polygon locus_tag="cds487230_487617" description="&lt;b&gt;cds487230_487617&lt;/b&gt;&lt;br&gt;hypothetical protein&lt;br&gt;Location: 487230 - 487617" style="stroke:black; fill:white; stroke-width:1; " id="dummy-1_q17_0_all" points="174,35 179,30 179,30 179,40 179,40 174,35 " class="clusterblast-orf"  />
<polygon locus_tag="cds487724_488603" description="&lt;b&gt;cds487724_488603&lt;/b&gt;&lt;br&gt;Multimodular transpeptidase-transglycosylase (EC 2.4.1.129) (EC 3.4.-.-)&lt;br&gt;Location: 487724 - 488603" style="stroke:black; fill:white; stroke-width:1; " id="dummy-1_q18_0_all" points="181,40 188,40 193,35 188,30 181,30 181,40 " class="clusterblast-orf"  />
<polygon locus_tag="cds488695_489535" description="&lt;b&gt;cds488695_489535&lt;/b&gt;&lt;br&gt;Uncharacterized, RsbU-domain-containing protein SCO5040&lt;br&gt;Location: 488695 - 489535" style="stroke:black; fill:white; stroke-width:1; " id="dummy-1_q19_0_all" points="194,35 199,30 206,30 206,40 199,40 194,35 " class="clusterblast-orf"  />
<polygon locus_tag="cds489682_490603" description="&lt;b&gt;cds489682_490603&lt;/b&gt;&lt;br&gt;Uncharacterized, RsbU-domain-containing protein SCO5040&lt;br&gt;Location: 489682 - 490603" style="stroke:black; fill:white; stroke-width:1; " id="dummy-1_q20_0_all" points="208,35 213,30 221,30 221,40 213,40 208,35 " class="clusterblast-orf"  />
<polygon locus_tag="cds490658_490802" description="&lt;b&gt;cds490658_490802&lt;/b&gt;&lt;br&gt;hypothetical protein&lt;br&gt;Location: 490658 - 490802" style="stroke:black; fill:white; stroke-width:1; " id="dummy-1_q21_0_all" points="222,35 224,30 224,40 222,35 " class="clusterblast-orf"  />
<polygon locus_tag="cds490985_491669" description="&lt;b&gt;cds490985_491669&lt;/b&gt;&lt;br&gt;hypothetical protein&lt;br&gt;Location: 490985 - 491669" style="stroke:black; fill:white; stroke-width:1; " id="dummy-1_q22_0_all" points="227,35 232,30 236,30 236,40 232,40 227,35 " class="clusterblast-orf"  />
<polygon locus_tag="cds491725_492127" description="&lt;b&gt;cds491725_492127&lt;/b&gt;&lt;br&gt;Fumarate hydratase class II (EC 4.2.1.2)&lt;br&gt;Location: 491725 - 492127" style="stroke:black; fill:white; stroke-width:1; " id="dummy-1_q23_0_all" points="237,35 242,30 243,30 243,40 242,40 237,35 " class="clusterblast-orf"  />
<polygon locus_tag="cds492126_492924" description="&lt;b&gt;cds492126_492924&lt;/b&gt;&lt;br&gt;Fumarate hydratase class II (EC 4.2.1.2)&lt;br&gt;Location: 492126 - 492924" style="stroke:black; fill:white; stroke-width:1; " id="dummy-1_q24_0_all" points="243,35 248,30 254,30 254,40 248,40 243,35 " class="clusterblast-orf"  />
<polygon locus_tag="cds492926_493052" description="&lt;b&gt;cds492926_493052&lt;/b&gt;&lt;br&gt;Fumarate hydratase class II (EC 4.2.1.2)&lt;br&gt;Location: 492926 - 493052" style="stroke:black; fill:white; stroke-width:1; " id="dummy-1_q25_0_all" points="254,35 256,30 256,40 254,35 " class="clusterblast-orf"  />
<polygon locus_tag="cds493248_494055" description="&lt;b&gt;cds493248_494055&lt;/b&gt;&lt;br&gt;hypothetical protein&lt;br&gt;Location: 493248 - 494055" style="stroke:black; fill:white; stroke-width:1; " id="dummy-1_q26_0_all" points="258,40 265,40 270,35 265,30 258,30 258,40 " class="clusterblast-orf"  />
<polygon locus_tag="cds494129_494801" description="&lt;b&gt;cds494129_494801&lt;/b&gt;&lt;br&gt;hypothetical protein&lt;br&gt;Location: 494129 - 494801" style="stroke:black; fill:white; stroke-width:1; " id="dummy-1_q27_0_all" points="271,40 275,40 280,35 275,30 271,30 271,40 " class="clusterblast-orf"  />
<polygon locus_tag="cds494840_497363" description="&lt;b&gt;cds494840_497363&lt;/b&gt;&lt;br&gt;Polyketide synthase modules and related proteins&lt;br&gt;Location: 494840 - 497363" style="stroke:black; fill:#d81515; stroke-width:1; " id="dummy-1_q28_0_all" points="281,35 286,30 316,30 316,40 286,40 281,35 " class="clusterblast-orf"  />
<polygon locus_tag="cds497603_498503" description="&lt;b&gt;cds497603_498503&lt;/b&gt;&lt;br&gt;Putative dehydrogenase&lt;br&gt;Location: 497603 - 498503" style="stroke:black; fill:#15d815; stroke-width:1; " id="dummy-1_q29_0_all" points="320,35 325,30 332,30 332,40 325,40 320,35 " class="clusterblast-orf"  />
<polygon locus_tag="cds498499_499048" description="&lt;b&gt;cds498499_499048&lt;/b&gt;&lt;br&gt;putative thioesterase&lt;br&gt;Location: 498499 - 499048" style="stroke:black; fill:#d81515; stroke-width:1; " id="dummy-1_q30_0_all" points="332,35 337,30 340,30 340,40 337,40 332,35 " class="clusterblast-orf"  />
<polygon locus_tag="cds499044_499239" description="&lt;b&gt;cds499044_499239&lt;/b&gt;&lt;br&gt;putative thioesterase&lt;br&gt;Location: 499044 - 499239" style="stroke:black; fill:#d81515; stroke-width:1; " id="dummy-1_q31_0_all" points="340,35 343,30 343,40 340,35 " class="clusterblast-orf"  />
<polygon locus_tag="cds499268_499988" description="&lt;b&gt;cds499268_499988&lt;/b&gt;&lt;br&gt;Aspartyl aminopeptidase (EC 3.4.11.21)&lt;br&gt;Location: 499268 - 499988" style="stroke:black; fill:white; stroke-width:1; " id="dummy-1_q32_0_all" points="343,35 348,30 353,30 353,40 348,40 343,35 " class="clusterblast-orf"  />
<polygon locus_tag="cds499969_500260" description="&lt;b&gt;cds499969_500260&lt;/b&gt;&lt;br&gt;Aspartyl aminopeptidase (EC 3.4.11.21)&lt;br&gt;Location: 499969 - 500260" style="stroke:black; fill:white; stroke-width:1; " id="dummy-1_q33_0_all" points="353,35 357,30 357,40 353,35 " class="clusterblast-orf"  />
<polygon locus_tag="cds500250_501834" description="&lt;b&gt;cds500250_501834&lt;/b&gt;&lt;br&gt;Polyketide synthase modules and related proteins&lt;br&gt;Location: 500250 - 501834" style="stroke:black; fill:white; stroke-width:1; " id="dummy-1_q34_0_all" points="357,35 362,30 379,30 379,40 362,40 357,35 " class="clusterblast-orf"  />
<polygon locus_tag="cds501830_502301" description="&lt;b&gt;cds501830_502301&lt;/b&gt;&lt;br&gt;Polyketide synthase modules and related proteins&lt;br&gt;Location: 501830 - 502301" style="stroke:black; fill:white; stroke-width:1; " id="dummy-1_q35_0_all" points="379,35 384,30 386,30 386,40 384,40 379,35 " class="clusterblast-orf"  />
<polygon locus_tag="cds502251_505773" description="&lt;b&gt;cds502251_505773&lt;/b&gt;&lt;br&gt;Polyketide synthase modules and related proteins&lt;br&gt;Location: 502251 - 505773" style="stroke:black; fill:white; stroke-width:1; " id="dummy-1_q36_0_all" points="385,35 390,30 435,30 435,40 390,40 385,35 " class="clusterblast-orf"  />
<polygon locus_tag="cds505778_506363" description="&lt;b&gt;cds505778_506363&lt;/b&gt;&lt;br&gt;Polyketide synthase modules and related proteins&lt;br&gt;Location: 505778 - 506363" style="stroke:black; fill:white; stroke-width:1; " id="dummy-1_q37_0_all" points="435,35 440,30 443,30 443,40 440,40 435,35 " class="clusterblast-orf"  />
<polygon locus_tag="cds506359_506599" description="&lt;b&gt;cds506359_506599&lt;/b&gt;&lt;br&gt;Malonyl CoA-acyl carrier protein transacylase (EC 2.3.1.39)&lt;br&gt;Location: 506359 - 506599" style="stroke:black; fill:white; stroke-width:1; " id="dummy-1_q38_0_all" points="443,35 447,30 447,40 443,35 " class="clusterblast-orf"  />
<polygon locus_tag="cds506625_507126" description="&lt;b&gt;cds506625_507126&lt;/b&gt;&lt;br&gt;Polyketide synthase&lt;br&gt;Location: 506625 - 507126" style="stroke:black; fill:white; stroke-width:1; " id="dummy-1_q39_0_all" points="447,35 452,30 454,30 454,40 452,40 447,35 " class="clusterblast-orf"  />
<polygon locus_tag="cds507110_508607" description="&lt;b&gt;cds507110_508607&lt;/b&gt;&lt;br&gt;Polyketide synthase&lt;br&gt;Location: 507110 - 508607" style="stroke:black; fill:white; stroke-width:1; " id="dummy-1_q40_0_all" points="454,35 459,30 475,30 475,40 459,40 454,35 " class="clusterblast-orf"  />
<polygon locus_tag="cds508760_509084" description="&lt;b&gt;cds508760_509084&lt;/b&gt;&lt;br&gt;Polyketide synthase&lt;br&gt;Location: 508760 - 509084" style="stroke:black; fill:#1515d8; stroke-width:1; " id="dummy-1_q41_0_all" points="477,35 482,30 482,30 482,40 482,40 477,35 " class="clusterblast-orf"  />
<polygon locus_tag="cds509118_510942" description="&lt;b&gt;cds509118_510942&lt;/b&gt;&lt;br&gt;Uncharacterized MFS-type transporter&lt;br&gt;Location: 509118 - 510942" style="stroke:black; fill:white; stroke-width:1; " id="dummy-1_q42_0_all" points="482,35 487,30 508,30 508,40 487,40 482,35 " class="clusterblast-orf"  />
<polygon locus_tag="cds511012_512014" description="&lt;b&gt;cds511012_512014&lt;/b&gt;&lt;br&gt;Transcriptional regulator, LuxR family&lt;br&gt;Location: 511012 - 512014" style="stroke:black; fill:white; stroke-width:1; " id="dummy-1_q43_0_all" points="509,40 518,40 523,35 518,30 509,30 509,40 " class="clusterblast-orf"  />
<polygon locus_tag="cds512100_513708" description="&lt;b&gt;cds512100_513708&lt;/b&gt;&lt;br&gt;Fumarate hydratase class I (EC 4.2.1.2)&lt;br&gt;Location: 512100 - 513708" style="stroke:black; fill:white; stroke-width:1; " id="dummy-1_q44_0_all" points="524,35 529,30 547,30 547,40 529,40 524,35 " class="clusterblast-orf"  />
<polygon locus_tag="cds514116_514680" description="&lt;b&gt;cds514116_514680&lt;/b&gt;&lt;br&gt;hypothetical protein&lt;br&gt;Location: 514116 - 514680" style="stroke:black; fill:white; stroke-width:1; " id="dummy-1_q45_0_all" points="553,40 555,40 560,35 555,30 553,30 553,40 " class="clusterblast-orf"  />
<polygon locus_tag="cds515060_515222" description="&lt;b&gt;cds515060_515222&lt;/b&gt;&lt;br&gt;Transcriptional regulator, WhiB family&lt;br&gt;Location: 515060 - 515222" style="stroke:black; fill:white; stroke-width:1; " id="dummy-1_q46_0_all" points="566,40 568,35 566,30 566,40 " class="clusterblast-orf"  />
<polygon locus_tag="cds515300_516341" description="&lt;b&gt;cds515300_516341&lt;/b&gt;&lt;br&gt;Fructose-1,6-bisphosphatase, GlpX type (EC 3.1.3.11)&lt;br&gt;Location: 515300 - 516341" style="stroke:black; fill:white; stroke-width:1; " id="dummy-1_q47_0_all" points="569,35 574,30 584,30 584,40 574,40 569,35 " class="clusterblast-orf"  />
<polygon locus_tag="cds516533_517040" description="&lt;b&gt;cds516533_517040&lt;/b&gt;&lt;br&gt;putative secreted protein&lt;br&gt;Location: 516533 - 517040" style="stroke:black; fill:white; stroke-width:1; " id="dummy-1_q48_0_all" points="587,40 589,40 594,35 589,30 587,30 587,40 " class="clusterblast-orf"  />
<polygon locus_tag="cds517148_517739" description="&lt;b&gt;cds517148_517739&lt;/b&gt;&lt;br&gt;hypothetical protein&lt;br&gt;Location: 517148 - 517739" style="stroke:black; fill:white; stroke-width:1; " id="dummy-1_q49_0_all" points="595,35 600,30 604,30 604,40 600,40 595,35 " class="clusterblast-orf"  />
<polygon locus_tag="cds517877_518126" description="&lt;b&gt;cds517877_518126&lt;/b&gt;&lt;br&gt;Exodeoxyribonuclease VII small subunit (EC 3.1.11.6)&lt;br&gt;Location: 517877 - 518126" style="stroke:black; fill:white; stroke-width:1; " id="dummy-1_q50_0_all" points="605,35 609,30 609,40 605,35 " class="clusterblast-orf"  />
<polygon locus_tag="cds518150_519431" description="&lt;b&gt;cds518150_519431&lt;/b&gt;&lt;br&gt;Exodeoxyribonuclease VII large subunit (EC 3.1.11.6)&lt;br&gt;Location: 518150 - 519431" style="stroke:black; fill:white; stroke-width:1; " id="dummy-1_q51_0_all" points="609,35 614,30 627,30 627,40 614,40 609,35 " class="clusterblast-orf"  />
<polygon locus_tag="cds519519_520728" description="&lt;b&gt;cds519519_520728&lt;/b&gt;&lt;br&gt;Amino acid permease-associated region&lt;br&gt;Location: 519519 - 520728" style="stroke:black; fill:white; stroke-width:1; " id="dummy-1_q52_0_all" points="629,35 634,30 646,30 646,40 634,40 629,35 " class="clusterblast-orf"  />
<polygon locus_tag="cds520709_521123" description="&lt;b&gt;cds520709_521123&lt;/b&gt;&lt;br&gt;hypothetical protein&lt;br&gt;Location: 520709 - 521123" style="stroke:black; fill:white; stroke-width:1; " id="dummy-1_q53_0_all" points="645,35 650,30 651,30 651,40 650,40 645,35 " class="clusterblast-orf"  />
<polygon locus_tag="cds521230_522187" description="&lt;b&gt;cds521230_522187&lt;/b&gt;&lt;br&gt;4-hydroxy-3-methylbut-2-enyl diphosphate reductase (EC 1.17.7.4)&lt;br&gt;Location: 521230 - 522187" style="stroke:black; fill:white; stroke-width:1; " id="dummy-1_q54_0_all" points="653,40 661,40 666,35 661,30 653,30 653,40 " class="clusterblast-orf"  />
<polygon locus_tag="cds522553_522748" description="&lt;b&gt;cds522553_522748&lt;/b&gt;&lt;br&gt;Polyphosphate glucokinase (EC 2.7.1.63)&lt;br&gt;Location: 522553 - 522748" style="stroke:black; fill:white; stroke-width:1; " id="dummy-1_q55_0_all" points="671,40 674,35 671,30 671,40 " class="clusterblast-orf"  />
<polygon locus_tag="cds522792_522975" description="&lt;b&gt;cds522792_522975&lt;/b&gt;&lt;br&gt;Polyphosphate glucokinase (EC 2.7.1.63)&lt;br&gt;Location: 522792 - 522975" style="stroke:black; fill:white; stroke-width:1; " id="dummy-1_q56_0_all" points="675,40 677,35 675,30 675,40 " class="clusterblast-orf"  />
<polygon locus_tag="cds523040_523598" description="&lt;b&gt;cds523040_523598&lt;/b&gt;&lt;br&gt;hypothetical protein&lt;br&gt;Location: 523040 - 523598" style="stroke:black; fill:white; stroke-width:1; " id="dummy-1_q57_0_all" points="678,35 683,30 686,30 686,40 683,40 678,35 " class="clusterblast-orf"  />
<polygon locus_tag="cds523918_525007" description="&lt;b&gt;cds523918_525007&lt;/b&gt;&lt;br&gt;GTP-binding and nucleic acid-binding protein YchF&lt;br&gt;Location: 523918 - 525007" style="stroke:black; fill:white; stroke-width:1; " id="dummy-1_q58_0_all" points="691,40 701,40 706,35 701,30 691,30 691,40 " class="clusterblast-orf"  />
<polygon locus_tag="cds525253_525739" description="&lt;b&gt;cds525253_525739&lt;/b&gt;&lt;br&gt;DEXX-box atpase&lt;br&gt;Location: 525253 - 525739" style="stroke:black; fill:white; stroke-width:1; " id="dummy-1_q59_0_all" points="709,40 711,40 716,35 711,30 709,30 709,40 " class="clusterblast-orf"  />
<polygon locus_tag="cds525702_526674" description="&lt;b&gt;cds525702_526674&lt;/b&gt;&lt;br&gt;DEXX-box atpase&lt;br&gt;Location: 525702 - 526674" style="stroke:black; fill:white; stroke-width:1; " id="dummy-1_q60_0_all" points="716,40 724,40 729,35 724,30 716,30 716,40 " class="clusterblast-orf"  />
<polygon locus_tag="cds526778_528605" description="&lt;b&gt;cds526778_528605&lt;/b&gt;&lt;br&gt;hypothetical protein&lt;br&gt;Location: 526778 - 528605" style="stroke:black; fill:white; stroke-width:1; " id="dummy-1_q61_0_all" points="731,40 752,40 757,35 752,30 731,30 731,40 " class="clusterblast-orf"  />
</g>
<g class="clusterblast-cluster" description="BGC0001297_c1: WS9326 (10% of genes show similarity), NRP" label="BGC0001297"  >
<text class="clusterblast-acc" y="70" x="5"  >
<a xlink:href="https://mibig.secondarymetabolites.org/go/BGC0001297/1" target="_blank">BGC0001297</a>:                                                                           WS9326 (10% of genes show similarity), NRP</text>
<line x2="778.0" y1="85" style="stroke:grey; stroke-width:1; " x1="10" y2="85"  />
</g>
<g id="a1_000"  >
<polygon locus_tag="ALG65296.1" description="&lt;b&gt;ALG65296.1&lt;/b&gt;&lt;br&gt;Cal40&lt;br&gt;Location: 49 - 891" style="stroke:black; fill:white; stroke-width:1; " id="dummy-1_h1_3_0" points="0,85 5,80 11,80 11,90 5,90 0,85 " class="clusterblast-orf"  />
</g>
<g id="a1_001"  >
<polygon locus_tag="ALG65297.1" description="&lt;b&gt;ALG65297.1&lt;/b&gt;&lt;br&gt;Cal39&lt;br&gt;Location: 929 - 1885" style="stroke:black; fill:white; stroke-width:1; " id="dummy-1_h1_3_1" points="12,85 17,80 25,80 25,90 17,90 12,85 " class="clusterblast-orf"  />
</g>
<g id="a1_002"  >
<polygon locus_tag="ALG65298.1" description="&lt;b&gt;ALG65298.1&lt;/b&gt;&lt;br&gt;Cal38&lt;br&gt;Location: 1989 - 2525" style="stroke:black; fill:white; stroke-width:1; " id="dummy-1_h1_3_2" points="27,85 32,80 34,80 34,90 32,90 27,85 " class="clusterblast-orf"  />
</g>
<g id="a1_003"  >
<polygon locus_tag="ALG65299.1" description="&lt;b&gt;ALG65299.1&lt;/b&gt;&lt;br&gt;Cal37&lt;br&gt;Location: 2525 - 3271" style="stroke:black; fill:white; stroke-width:1; " id="dummy-1_h1_3_3" points="34,85 39,80 45,80 45,90 39,90 34,85 " class="clusterblast-orf"  />
</g>
<g id="a1_004"  >
<polygon locus_tag="ALG65300.1" description="&lt;b&gt;ALG65300.1&lt;/b&gt;&lt;br&gt;Cal36&lt;br&gt;Location: 3345 - 3824" style="stroke:black; fill:white; stroke-width:1; " id="dummy-1_h1_3_4" points="46,85 51,80 53,80 53,90 51,90 46,85 " class="clusterblast-orf"  />
</g>
<g id="a1_005"  >
<polygon locus_tag="ALG65301.1" description="&lt;b&gt;ALG65301.1&lt;/b&gt;&lt;br&gt;Cal35&lt;br&gt;Location: 3818 - 4219" style="stroke:black; fill:white; stroke-width:1; " id="dummy-1_h1_3_5" points="53,85 58,80 58,80 58,90 58,90 53,85 " class="clusterblast-orf"  />
</g>
<g id="a1_006"  >
<polygon locus_tag="ALG65302.1" description="&lt;b&gt;ALG65302.1&lt;/b&gt;&lt;br&gt;Cal34&lt;br&gt;Location: 4216 - 4479" style="stroke:black; fill:white; stroke-width:1; " id="dummy-1_h1_3_6" points="58,85 62,80 62,90 58,85 " class="clusterblast-orf"  />
</g>
<g id="a1_007"  >
<polygon locus_tag="ALG65303.1" description="&lt;b&gt;ALG65303.1&lt;/b&gt;&lt;br&gt;Cal33&lt;br&gt;Location: 4599 - 5714" style="stroke:black; fill:white; stroke-width:1; " id="dummy-1_h1_3_7" points="64,85 69,80 79,80 79,90 69,90 64,85 " class="clusterblast-orf"  />
</g>
<g id="a1_008"  >
<polygon locus_tag="ALG65304.1" description="&lt;b&gt;ALG65304.1&lt;/b&gt;&lt;br&gt;Cal32&lt;br&gt;Location: 5815 - 6759" style="stroke:black; fill:white; stroke-width:1; " id="dummy-1_h1_3_8" points="81,85 86,80 94,80 94,90 86,90 81,85 " class="clusterblast-orf"  />
</g>
<g id="a1_009"  >
<polygon locus_tag="ALG65305.1" description="&lt;b&gt;ALG65305.1&lt;/b&gt;&lt;br&gt;Cal31&lt;br&gt;Location: 6759 - 7898" style="stroke:black; fill:white; stroke-width:1; " id="dummy-1_h1_3_9" points="94,85 99,80 110,80 110,90 99,90 94,85 " class="clusterblast-orf"  />
</g>
<g id="a1_0010"  >
<polygon locus_tag="ALG65306.1" description="&lt;b&gt;ALG65306.1&lt;/b&gt;&lt;br&gt;Cal30&lt;br&gt;Location: 7895 - 9145" style="stroke:black; fill:white; stroke-width:1; " id="dummy-1_h1_3_10" points="110,85 115,80 128,80 128,90 115,90 110,85 " class="clusterblast-orf"  />
</g>
<g id="a1_0011"  >
<polygon locus_tag="ALG65307.1" description="&lt;b&gt;ALG65307.1&lt;/b&gt;&lt;br&gt;Cal29&lt;br&gt;Location: 9267 - 9527" style="stroke:black; fill:white; stroke-width:1; " id="dummy-1_h1_3_11" points="129,85 133,80 133,90 129,85 " class="clusterblast-orf"  />
</g>
<g id="a1_0012"  >
<polygon locus_tag="ALG65308.1" description="&lt;b&gt;ALG65308.1&lt;/b&gt;&lt;br&gt;Cal28&lt;br&gt;Location: 9670 - 11394" style="stroke:black; fill:white; stroke-width:1; " id="dummy-1_h1_3_12" points="135,85 140,80 159,80 159,90 140,90 135,85 " class="clusterblast-orf"  />
</g>
<g id="a1_0013"  >
<polygon locus_tag="ALG65309.1" description="&lt;b&gt;ALG65309.1&lt;/b&gt;&lt;br&gt;Cal27&lt;br&gt;Location: 11480 - 12205" style="stroke:black; fill:white; stroke-width:1; " id="dummy-1_h1_3_13" points="161,85 166,80 171,80 171,90 166,90 161,85 " class="clusterblast-orf"  />
</g>
<g id="a1_0014"  >
<polygon locus_tag="ALG65310.1" description="&lt;b&gt;ALG65310.1&lt;/b&gt;&lt;br&gt;Cal26&lt;br&gt;Location: 12234 - 13235" style="stroke:black; fill:white; stroke-width:1; " id="dummy-1_h1_3_14" points="171,85 176,80 185,80 185,90 176,90 171,85 " class="clusterblast-orf"  />
</g>
<g id="a1_0015"  >
<polygon locus_tag="ALG65311.1" description="&lt;b&gt;ALG65311.1&lt;/b&gt;&lt;br&gt;Cal25&lt;br&gt;Location: 13252 - 14076" style="stroke:black; fill:white; stroke-width:1; " id="dummy-1_h1_3_15" points="186,85 191,80 197,80 197,90 191,90 186,85 " class="clusterblast-orf"  />
</g>
<g id="a1_0016"  >
<polygon locus_tag="ALG65312.1" description="&lt;b&gt;ALG65312.1&lt;/b&gt;&lt;br&gt;Cal24&lt;br&gt;Location: 14497 - 15699" style="stroke:black; fill:white; stroke-width:1; " id="dummy-1_h1_3_16" points="203,85 208,80 220,80 220,90 208,90 203,85 " class="clusterblast-orf"  />
</g>
<g id="a1_0017"  >
<polygon locus_tag="ALG65313.1" description="&lt;b&gt;ALG65313.1&lt;/b&gt;&lt;br&gt;Cal23&lt;br&gt;Location: 15696 - 17498" style="stroke:black; fill:white; stroke-width:1; " id="dummy-1_h1_3_17" points="220,85 225,80 245,80 245,90 225,90 220,85 " class="clusterblast-orf"  />
</g>
<g id="a1_0018"  >
<polygon locus_tag="ALG65314.1" description="&lt;b&gt;ALG65314.1&lt;/b&gt;&lt;br&gt;Cal22&lt;br&gt;Location: 17542 - 20478&lt;br&gt;&lt;br&gt;&lt;b&gt;BlastP hit with cds494840_497363&lt;/b&gt;&lt;br&gt;Percentage identity: 46&lt;br&gt;Percentage coverage: 99&lt;br&gt;BLAST bit score: 539&lt;br&gt;E-value: 1e-152" style="stroke:black; fill:#d81515; stroke-width:1; " id="dummy-1_h1_3_18" points="246,85 251,80 287,80 287,90 251,90 246,85 " class="clusterblast-orf"  />
</g>
<g id="a1_0019"  >
<polygon locus_tag="ALG65315.1" description="&lt;b&gt;ALG65315.1&lt;/b&gt;&lt;br&gt;Cal21&lt;br&gt;Location: 20503 - 21330&lt;br&gt;&lt;br&gt;&lt;b&gt;BlastP hit with cds497603_498503&lt;/b&gt;&lt;br&gt;Percentage identity: 76&lt;br&gt;Percentage coverage: 85&lt;br&gt;BLAST bit score: 379&lt;br&gt;E-value: 6.3e-105" style="stroke:black; fill:#15d815; stroke-width:1; " id="dummy-1_h1_3_19" points="288,85 293,80 299,80 299,90 293,90 288,85 " class="clusterblast-orf"  />
</g>
<g id="a1_0020"  >
<polygon locus_tag="ALG65316.1" description="&lt;b&gt;ALG65316.1&lt;/b&gt;&lt;br&gt;Cal20&lt;br&gt;Location: 21378 - 22079&lt;br&gt;&lt;br&gt;&lt;b&gt;BlastP hit with cds498499_499048&lt;/b&gt;&lt;br&gt;Percentage identity: 60&lt;br&gt;Percentage coverage: 87&lt;br&gt;BLAST bit score: 198&lt;br&gt;E-value: 1.2e-50" style="stroke:black; fill:#d81515; stroke-width:1; " id="dummy-1_h1_3_20" points="300,85 305,80 310,80 310,90 305,90 300,85 " class="clusterblast-orf"  />
</g>
<g id="a1_0021"  >
<polygon locus_tag="ALG65317.1" description="&lt;b&gt;ALG65317.1&lt;/b&gt;&lt;br&gt;Cal19&lt;br&gt;Location: 22137 - 27815" style="stroke:black; fill:white; stroke-width:1; " id="dummy-1_h1_3_21" points="311,85 316,80 391,80 391,90 316,90 311,85 " class="clusterblast-orf"  />
</g>
<g id="a1_0022"  >
<polygon locus_tag="ALG65318.1" description="&lt;b&gt;ALG65318.1&lt;/b&gt;&lt;br&gt;Cal18&lt;br&gt;Location: 27812 - 35542" style="stroke:black; fill:white; stroke-width:1; " id="dummy-1_h1_3_22" points="391,85 396,80 500,80 500,90 396,90 391,85 " class="clusterblast-orf"  />
</g>
<g id="a1_0023"  >
<polygon locus_tag="ALG65319.1" description="&lt;b&gt;ALG65319.1&lt;/b&gt;&lt;br&gt;Cal17&lt;br&gt;Location: 35546 - 43249&lt;br&gt;&lt;br&gt;&lt;b&gt;BlastP hit with cds494840_497363&lt;/b&gt;&lt;br&gt;Percentage identity: 46&lt;br&gt;Percentage coverage: 62&lt;br&gt;BLAST bit score: 386&lt;br&gt;E-value: 8.4e-107" style="stroke:black; fill:#d81515; stroke-width:1; " id="dummy-1_h1_3_23" points="500,85 505,80 608,80 608,90 505,90 500,85 " class="clusterblast-orf"  />
</g>
<g id="a1_0024"  >
<polygon locus_tag="ALG65320.1" description="&lt;b&gt;ALG65320.1&lt;/b&gt;&lt;br&gt;Cal16&lt;br&gt;Location: 43526 - 44749" style="stroke:black; fill:white; stroke-width:1; " id="dummy-1_h1_3_24" points="612,90 624,90 629,85 624,80 612,80 612,90 " class="clusterblast-orf"  />
</g>
<g id="a1_0025"  >
<polygon locus_tag="ALG65321.1" description="&lt;b&gt;ALG65321.1&lt;/b&gt;&lt;br&gt;Cal15&lt;br&gt;Location: 44755 - 44952" style="stroke:black; fill:white; stroke-width:1; " id="dummy-1_h1_3_25" points="629,90 632,85 629,80 629,90 " class="clusterblast-orf"  />
</g>
<g id="a1_0026"  >
<polygon locus_tag="ALG65322.1" description="&lt;b&gt;ALG65322.1&lt;/b&gt;&lt;br&gt;Cal14&lt;br&gt;Location: 45084 - 45857" style="stroke:black; fill:white; stroke-width:1; " id="dummy-1_h1_3_26" points="634,90 640,90 645,85 640,80 634,80 634,90 " class="clusterblast-orf"  />
</g>
<g id="a1_0027"  >
<polygon locus_tag="ALG65323.1" description="&lt;b&gt;ALG65323.1&lt;/b&gt;&lt;br&gt;Cal13&lt;br&gt;Location: 45928 - 46872" style="stroke:black; fill:white; stroke-width:1; " id="dummy-1_h1_3_27" points="646,85 651,80 659,80 659,90 651,90 646,85 " class="clusterblast-orf"  />
</g>
<g id="a1_0028"  >
<polygon locus_tag="ALG65324.1" description="&lt;b&gt;ALG65324.1&lt;/b&gt;&lt;br&gt;Cal12&lt;br&gt;Location: 46869 - 47291" style="stroke:black; fill:white; stroke-width:1; " id="dummy-1_h1_3_28" points="659,85 664,80 665,80 665,90 664,90 659,85 " class="clusterblast-orf"  />
</g>
<g id="a1_0029"  >
<polygon locus_tag="ALG65325.1" description="&lt;b&gt;ALG65325.1&lt;/b&gt;&lt;br&gt;Cal11&lt;br&gt;Location: 47291 - 47701" style="stroke:black; fill:white; stroke-width:1; " id="dummy-1_h1_3_29" points="665,85 670,80 671,80 671,90 670,90 665,85 " class="clusterblast-orf"  />
</g>
<g id="a1_0030"  >
<polygon locus_tag="ALG65326.1" description="&lt;b&gt;ALG65326.1&lt;/b&gt;&lt;br&gt;Cal10&lt;br&gt;Location: 47701 - 48072" style="stroke:black; fill:white; stroke-width:1; " id="dummy-1_h1_3_30" points="671,85 676,80 676,80 676,90 676,90 671,85 " class="clusterblast-orf"  />
</g>
<g id="a1_0031"  >
<polygon locus_tag="ALG65327.1" description="&lt;b&gt;ALG65327.1&lt;/b&gt;&lt;br&gt;Cal9&lt;br&gt;Location: 48072 - 48323" style="stroke:black; fill:white; stroke-width:1; " id="dummy-1_h1_3_31" points="676,85 680,80 680,90 676,85 " class="clusterblast-orf"  />
</g>
<g id="a1_0032"  >
<polygon locus_tag="ALG65328.1" description="&lt;b&gt;ALG65328.1&lt;/b&gt;&lt;br&gt;Cal8&lt;br&gt;Location: 48540 - 49781" style="stroke:black; fill:white; stroke-width:1; " id="dummy-1_h1_3_32" points="683,90 695,90 700,85 695,80 683,80 683,90 " class="clusterblast-orf"  />
</g>
<g id="a1_0033"  >
<polygon locus_tag="ALG65329.1" description="&lt;b&gt;ALG65329.1&lt;/b&gt;&lt;br&gt;Cal7&lt;br&gt;Location: 49778 - 50782" style="stroke:black; fill:white; stroke-width:1; " id="dummy-1_h1_3_33" points="700,90 709,90 714,85 709,80 700,80 700,90 " class="clusterblast-orf"  />
</g>
<g id="a1_0034"  >
<polygon locus_tag="ALG65330.1" description="&lt;b&gt;ALG65330.1&lt;/b&gt;&lt;br&gt;Cal6&lt;br&gt;Location: 50852 - 51811" style="stroke:black; fill:white; stroke-width:1; " id="dummy-1_h1_3_34" points="715,90 724,90 729,85 724,80 715,80 715,90 " class="clusterblast-orf"  />
</g>
<g id="a1_0035"  >
<polygon locus_tag="ALG65331.1" description="&lt;b&gt;ALG65331.1&lt;/b&gt;&lt;br&gt;Cal5&lt;br&gt;Location: 51908 - 52696" style="stroke:black; fill:white; stroke-width:1; " id="dummy-1_h1_3_35" points="730,85 735,80 741,80 741,90 735,90 730,85 " class="clusterblast-orf"  />
</g>
<g id="a1_0036"  >
<polygon locus_tag="ALG65332.1" description="&lt;b&gt;ALG65332.1&lt;/b&gt;&lt;br&gt;Cal4&lt;br&gt;Location: 52701 - 52919" style="stroke:black; fill:white; stroke-width:1; " id="dummy-1_h1_3_36" points="741,85 745,80 745,90 741,85 " class="clusterblast-orf"  />
</g>
<g id="a1_0037"  >
<polygon locus_tag="ALG65333.1" description="&lt;b&gt;ALG65333.1&lt;/b&gt;&lt;br&gt;Cal3&lt;br&gt;Location: 52967 - 53206" style="stroke:black; fill:white; stroke-width:1; " id="dummy-1_h1_3_37" points="745,85 749,80 749,90 745,85 " class="clusterblast-orf"  />
</g>
<g id="a1_0038"  >
<polygon locus_tag="ALG65334.1" description="&lt;b&gt;ALG65334.1&lt;/b&gt;&lt;br&gt;Cal2&lt;br&gt;Location: 53526 - 54170" style="stroke:black; fill:white; stroke-width:1; " id="dummy-1_h1_3_38" points="753,85 758,80 762,80 762,90 758,90 753,85 " class="clusterblast-orf"  />
</g>
<g id="a1_0039"  >
<polygon locus_tag="ALG65335.1" description="&lt;b&gt;ALG65335.1&lt;/b&gt;&lt;br&gt;Cal1&lt;br&gt;Location: 54161 - 55402" style="stroke:black; fill:white; stroke-width:1; " id="dummy-1_h1_3_39" points="762,85 767,80 780,80 780,90 767,90 762,85 " class="clusterblast-orf"  />
</g>
</svg>
