<svg preserveAspectRatio="none" height="230" version="1.1" xmlns:xlink="http://www.w3.org/1999/xlink" width="800" viewBox="0 0 800 230" y="0" x="0" xmlns="http://www.w3.org/2000/svg"  >
<g class="clusterblast-cluster" label="Query sequence"  >
<text class="clusterblast-acc" y="20" x="5"  >
Query sequence</text>
<line x2="778.0" y1="35" style="stroke:grey; stroke-width:1; " x1="10" y2="35"  />
<polygon locus_tag="cds211615_212560" description="&lt;b&gt;cds211615_212560&lt;/b&gt;&lt;br&gt;Putative membrane transport protein&lt;br&gt;Location: 211615 - 212560" style="stroke:black; fill:white; stroke-width:1; " id="dummy-2_q0_0_all" points="147,35 152,30 156,30 156,40 152,40 147,35 " class="clusterblast-orf"  />
<polygon locus_tag="cds213173_213827" description="&lt;b&gt;cds213173_213827&lt;/b&gt;&lt;br&gt;Transcriptional regulator, AcrR family&lt;br&gt;Location: 213173 - 213827" style="stroke:black; fill:white; stroke-width:1; " id="dummy-2_q1_0_all" points="162,40 163,40 168,35 163,30 162,30 162,40 " class="clusterblast-orf"  />
<polygon locus_tag="cds214117_215017" description="&lt;b&gt;cds214117_215017&lt;/b&gt;&lt;br&gt;FIG01122448: hypothetical protein&lt;br&gt;Location: 214117 - 215017" style="stroke:black; fill:white; stroke-width:1; " id="dummy-2_q2_0_all" points="171,35 176,30 179,30 179,40 176,40 171,35 " class="clusterblast-orf"  />
<polygon locus_tag="cds215124_215349" description="&lt;b&gt;cds215124_215349&lt;/b&gt;&lt;br&gt;lipoprotein&lt;br&gt;Location: 215124 - 215349" style="stroke:black; fill:white; stroke-width:1; " id="dummy-2_q3_0_all" points="180,40 183,35 180,30 180,40 " class="clusterblast-orf"  />
<polygon locus_tag="cds215345_216302" description="&lt;b&gt;cds215345_216302&lt;/b&gt;&lt;br&gt;lipoprotein&lt;br&gt;Location: 215345 - 216302" style="stroke:black; fill:white; stroke-width:1; " id="dummy-2_q4_0_all" points="182,40 186,40 191,35 186,30 182,30 182,40 " class="clusterblast-orf"  />
<polygon locus_tag="cds216532_218785" description="&lt;b&gt;cds216532_218785&lt;/b&gt;&lt;br&gt;hypothetical protein&lt;br&gt;Location: 216532 - 218785" style="stroke:black; fill:white; stroke-width:1; " id="dummy-2_q5_0_all" points="194,40 210,40 215,35 210,30 194,30 194,40 " class="clusterblast-orf"  />
<polygon locus_tag="cds218791_220444" description="&lt;b&gt;cds218791_220444&lt;/b&gt;&lt;br&gt;Poly-gamma-glutamate synthase subunit PgsB/CapB (EC 6.3.2.-)&lt;br&gt;Location: 218791 - 220444" style="stroke:black; fill:white; stroke-width:1; " id="dummy-2_q6_0_all" points="215,40 225,40 230,35 225,30 215,30 215,40 " class="clusterblast-orf"  />
<polygon locus_tag="cds220787_220922" description="&lt;b&gt;cds220787_220922&lt;/b&gt;&lt;br&gt;Poly-gamma-glutamate synthase subunit PgsC/CapC (EC 6.3.2.-)&lt;br&gt;Location: 220787 - 220922" style="stroke:black; fill:white; stroke-width:1; " id="dummy-2_q7_0_all" points="234,40 235,35 234,30 234,40 " class="clusterblast-orf"  />
<polygon locus_tag="cds221351_222032" description="&lt;b&gt;cds221351_222032&lt;/b&gt;&lt;br&gt;secreted protein&lt;br&gt;Location: 221351 - 222032" style="stroke:black; fill:white; stroke-width:1; " id="dummy-2_q8_0_all" points="239,40 240,40 245,35 240,30 239,30 239,40 " class="clusterblast-orf"  />
<polygon locus_tag="cds222284_222641" description="&lt;b&gt;cds222284_222641&lt;/b&gt;&lt;br&gt;hypothetical protein&lt;br&gt;Location: 222284 - 222641" style="stroke:black; fill:white; stroke-width:1; " id="dummy-2_q9_0_all" points="248,40 251,35 248,30 248,40 " class="clusterblast-orf"  />
<polygon locus_tag="cds222849_223143" description="&lt;b&gt;cds222849_223143&lt;/b&gt;&lt;br&gt;hypothetical protein&lt;br&gt;Location: 222849 - 223143" style="stroke:black; fill:white; stroke-width:1; " id="dummy-2_q10_0_all" points="253,35 256,30 256,40 253,35 " class="clusterblast-orf"  />
<polygon locus_tag="cds223229_223382" description="&lt;b&gt;cds223229_223382&lt;/b&gt;&lt;br&gt;hypothetical protein&lt;br&gt;Location: 223229 - 223382" style="stroke:black; fill:white; stroke-width:1; " id="dummy-2_q11_0_all" points="257,35 258,30 258,40 257,35 " class="clusterblast-orf"  />
<polygon locus_tag="cds223387_224578" description="&lt;b&gt;cds223387_224578&lt;/b&gt;&lt;br&gt;hypothetical protein&lt;br&gt;Location: 223387 - 224578" style="stroke:black; fill:white; stroke-width:1; " id="dummy-2_q12_0_all" points="258,40 264,40 269,35 264,30 258,30 258,40 " class="clusterblast-orf"  />
<polygon locus_tag="cds224532_224811" description="&lt;b&gt;cds224532_224811&lt;/b&gt;&lt;br&gt;hypothetical protein&lt;br&gt;Location: 224532 - 224811" style="stroke:black; fill:white; stroke-width:1; " id="dummy-2_q13_0_all" points="269,35 272,30 272,40 269,35 " class="clusterblast-orf"  />
<polygon locus_tag="cds224870_225371" description="&lt;b&gt;cds224870_225371&lt;/b&gt;&lt;br&gt;Putative cytochrome P450 hydroxylase&lt;br&gt;Location: 224870 - 225371" style="stroke:black; fill:white; stroke-width:1; " id="dummy-2_q14_0_all" points="272,40 272,40 277,35 272,30 272,30 272,40 " class="clusterblast-orf"  />
<polygon locus_tag="cds225412_225766" description="&lt;b&gt;cds225412_225766&lt;/b&gt;&lt;br&gt;Putative cytochrome P450 hydroxylase&lt;br&gt;Location: 225412 - 225766" style="stroke:black; fill:white; stroke-width:1; " id="dummy-2_q15_0_all" points="277,40 281,35 277,30 277,40 " class="clusterblast-orf"  />
<polygon locus_tag="cds226073_226373" description="&lt;b&gt;cds226073_226373&lt;/b&gt;&lt;br&gt;hypothetical protein&lt;br&gt;Location: 226073 - 226373" style="stroke:black; fill:white; stroke-width:1; " id="dummy-2_q16_0_all" points="283,40 286,35 283,30 283,40 " class="clusterblast-orf"  />
<polygon locus_tag="cds227085_227670" description="&lt;b&gt;cds227085_227670&lt;/b&gt;&lt;br&gt;Efflux ABC transporter, ATP-binding protein&lt;br&gt;Location: 227085 - 227670" style="stroke:black; fill:#d81515; stroke-width:1; " id="dummy-2_q17_0_all" points="293,35 298,30 298,30 298,40 298,40 293,35 " class="clusterblast-orf"  />
<polygon locus_tag="cds227675_227804" description="&lt;b&gt;cds227675_227804&lt;/b&gt;&lt;br&gt;MbtH-like NRPS chaperone&lt;br&gt;Location: 227675 - 227804" style="stroke:black; fill:#77d815; stroke-width:1; " id="dummy-2_q18_0_all" points="299,35 300,30 300,40 299,35 " class="clusterblast-orf"  />
<polygon locus_tag="cds227900_228326" description="&lt;b&gt;cds227900_228326&lt;/b&gt;&lt;br&gt;Putative cytochrome P450 hydroxylase&lt;br&gt;Location: 227900 - 228326" style="stroke:black; fill:#15d8d8; stroke-width:1; " id="dummy-2_q19_0_all" points="301,35 305,30 305,40 301,35 " class="clusterblast-orf"  />
<polygon locus_tag="cds228405_229881" description="&lt;b&gt;cds228405_229881&lt;/b&gt;&lt;br&gt;Putative cytochrome P450 hydroxylase&lt;br&gt;Location: 228405 - 229881" style="stroke:black; fill:#15d8d8; stroke-width:1; " id="dummy-2_q20_0_all" points="305,35 310,30 319,30 319,40 310,40 305,35 " class="clusterblast-orf"  />
<polygon locus_tag="cds230506_231097" description="&lt;b&gt;cds230506_231097&lt;/b&gt;&lt;br&gt;hypothetical protein&lt;br&gt;Location: 230506 - 231097" style="stroke:black; fill:#7715d8; stroke-width:1; " id="dummy-2_q21_0_all" points="325,35 330,30 331,30 331,40 330,40 325,35 " class="clusterblast-orf"  />
<polygon locus_tag="cds231114_232017" description="&lt;b&gt;cds231114_232017&lt;/b&gt;&lt;br&gt;Polyketide synthase modules and related proteins&lt;br&gt;Location: 231114 - 232017" style="stroke:black; fill:#7715d8; stroke-width:1; " id="dummy-2_q22_0_all" points="331,35 336,30 339,30 339,40 336,40 331,35 " class="clusterblast-orf"  />
<polygon locus_tag="cds232013_232628" description="&lt;b&gt;cds232013_232628&lt;/b&gt;&lt;br&gt;Long-chain-fatty-acid--CoA ligase (EC 6.2.1.3)&lt;br&gt;Location: 232013 - 232628" style="stroke:black; fill:#7715d8; stroke-width:1; " id="dummy-2_q23_0_all" points="339,35 344,30 345,30 345,40 344,40 339,35 " class="clusterblast-orf"  />
<polygon locus_tag="cds232690_233482" description="&lt;b&gt;cds232690_233482&lt;/b&gt;&lt;br&gt;Siderophore biosynthesis non-ribosomal peptide synthetase modules @ Bacillibactin synthetase component F (EC 2.7.7.-)&lt;br&gt;Location: 232690 - 233482" style="stroke:black; fill:#7715d8; stroke-width:1; " id="dummy-2_q24_0_all" points="346,35 351,30 353,30 353,40 351,40 346,35 " class="clusterblast-orf"  />
<polygon locus_tag="cds233530_233929" description="&lt;b&gt;cds233530_233929&lt;/b&gt;&lt;br&gt;Long-chain-fatty-acid--CoA ligase (EC 6.2.1.3)&lt;br&gt;Location: 233530 - 233929" style="stroke:black; fill:#7715d8; stroke-width:1; " id="dummy-2_q25_0_all" points="354,35 357,30 357,40 354,35 " class="clusterblast-orf"  />
<polygon locus_tag="cds234024_234636" description="&lt;b&gt;cds234024_234636&lt;/b&gt;&lt;br&gt;hypothetical protein&lt;br&gt;Location: 234024 - 234636" style="stroke:black; fill:white; stroke-width:1; " id="dummy-2_q26_0_all" points="358,40 359,40 364,35 359,30 358,30 358,40 " class="clusterblast-orf"  />
<polygon locus_tag="cds234939_236670" description="&lt;b&gt;cds234939_236670&lt;/b&gt;&lt;br&gt;Polyketide synthase modules and related proteins&lt;br&gt;Location: 234939 - 236670" style="stroke:black; fill:#7715d8; stroke-width:1; " id="dummy-2_q27_0_all" points="367,35 372,30 383,30 383,40 372,40 367,35 " class="clusterblast-orf"  />
<polygon locus_tag="cds236679_237309" description="&lt;b&gt;cds236679_237309&lt;/b&gt;&lt;br&gt;hypothetical protein&lt;br&gt;Location: 236679 - 237309" style="stroke:black; fill:white; stroke-width:1; " id="dummy-2_q28_0_all" points="383,40 384,40 389,35 384,30 383,30 383,40 " class="clusterblast-orf"  />
<polygon locus_tag="cds237374_237722" description="&lt;b&gt;cds237374_237722&lt;/b&gt;&lt;br&gt;hypothetical protein&lt;br&gt;Location: 237374 - 237722" style="stroke:black; fill:white; stroke-width:1; " id="dummy-2_q29_0_all" points="390,40 393,35 390,30 390,40 " class="clusterblast-orf"  />
<polygon locus_tag="cds237740_237965" description="&lt;b&gt;cds237740_237965&lt;/b&gt;&lt;br&gt;Long-chain-fatty-acid--CoA ligase (EC 6.2.1.3)&lt;br&gt;Location: 237740 - 237965" style="stroke:black; fill:white; stroke-width:1; " id="dummy-2_q30_0_all" points="393,35 395,30 395,40 393,35 " class="clusterblast-orf"  />
<polygon locus_tag="cds238002_238332" description="&lt;b&gt;cds238002_238332&lt;/b&gt;&lt;br&gt;Long-chain-fatty-acid--CoA ligase (EC 6.2.1.3)&lt;br&gt;Location: 238002 - 238332" style="stroke:black; fill:#7715d8; stroke-width:1; " id="dummy-2_q31_0_all" points="396,35 399,30 399,40 396,35 " class="clusterblast-orf"  />
<polygon locus_tag="cds238364_238892" description="&lt;b&gt;cds238364_238892&lt;/b&gt;&lt;br&gt;Long-chain-fatty-acid--CoA ligase (EC 6.2.1.3)&lt;br&gt;Location: 238364 - 238892" style="stroke:black; fill:#7715d8; stroke-width:1; " id="dummy-2_q32_0_all" points="399,35 404,30 404,30 404,40 404,40 399,35 " class="clusterblast-orf"  />
<polygon locus_tag="cds238858_240286" description="&lt;b&gt;cds238858_240286&lt;/b&gt;&lt;br&gt;hypothetical protein&lt;br&gt;Location: 238858 - 240286" style="stroke:black; fill:#7715d8; stroke-width:1; " id="dummy-2_q33_0_all" points="404,35 409,30 417,30 417,40 409,40 404,35 " class="clusterblast-orf"  />
<polygon locus_tag="cds240350_241157" description="&lt;b&gt;cds240350_241157&lt;/b&gt;&lt;br&gt;Polyketide synthase modules and related proteins&lt;br&gt;Location: 240350 - 241157" style="stroke:black; fill:white; stroke-width:1; " id="dummy-2_q34_0_all" points="418,35 423,30 425,30 425,40 423,40 418,35 " class="clusterblast-orf"  />
<polygon locus_tag="cds241407_241995" description="&lt;b&gt;cds241407_241995&lt;/b&gt;&lt;br&gt;hypothetical protein&lt;br&gt;Location: 241407 - 241995" style="stroke:black; fill:white; stroke-width:1; " id="dummy-2_q35_0_all" points="428,35 433,30 433,30 433,40 433,40 428,35 " class="clusterblast-orf"  />
<polygon locus_tag="cds242022_243297" description="&lt;b&gt;cds242022_243297&lt;/b&gt;&lt;br&gt;Polyketide synthase modules and related proteins&lt;br&gt;Location: 242022 - 243297" style="stroke:black; fill:#d87715; stroke-width:1; " id="dummy-2_q36_0_all" points="434,35 439,30 446,30 446,40 439,40 434,35 " class="clusterblast-orf"  />
<polygon locus_tag="cds243293_244115" description="&lt;b&gt;cds243293_244115&lt;/b&gt;&lt;br&gt;hypothetical protein&lt;br&gt;Location: 243293 - 244115" style="stroke:black; fill:white; stroke-width:1; " id="dummy-2_q37_0_all" points="446,35 451,30 453,30 453,40 451,40 446,35 " class="clusterblast-orf"  />
<polygon locus_tag="cds244512_245958" description="&lt;b&gt;cds244512_245958&lt;/b&gt;&lt;br&gt;hypothetical protein&lt;br&gt;Location: 244512 - 245958" style="stroke:black; fill:white; stroke-width:1; " id="dummy-2_q38_0_all" points="457,35 462,30 471,30 471,40 462,40 457,35 " class="clusterblast-orf"  />
<polygon locus_tag="cds245989_246175" description="&lt;b&gt;cds245989_246175&lt;/b&gt;&lt;br&gt;2,3-diaminopropionate for siderophore biosynthesis protein SbnA&lt;br&gt;Location: 245989 - 246175" style="stroke:black; fill:#15d815; stroke-width:1; " id="dummy-2_q39_0_all" points="471,35 473,30 473,40 471,35 " class="clusterblast-orf"  />
<polygon locus_tag="cds246204_246456" description="&lt;b&gt;cds246204_246456&lt;/b&gt;&lt;br&gt;2,3-diaminopropionate for siderophore biosynthesis protein SbnB&lt;br&gt;Location: 246204 - 246456" style="stroke:black; fill:#1577d8; stroke-width:1; " id="dummy-2_q40_0_all" points="473,35 475,30 475,40 473,35 " class="clusterblast-orf"  />
<polygon locus_tag="cds246484_246937" description="&lt;b&gt;cds246484_246937&lt;/b&gt;&lt;br&gt;hypothetical protein&lt;br&gt;Location: 246484 - 246937" style="stroke:black; fill:white; stroke-width:1; " id="dummy-2_q41_0_all" points="476,40 480,35 476,30 476,40 " class="clusterblast-orf"  />
<polygon locus_tag="cds246954_247317" description="&lt;b&gt;cds246954_247317&lt;/b&gt;&lt;br&gt;2,3-diaminopropionate for siderophore biosynthesis protein SbnB&lt;br&gt;Location: 246954 - 247317" style="stroke:black; fill:#1577d8; stroke-width:1; " id="dummy-2_q42_0_all" points="480,35 483,30 483,40 480,35 " class="clusterblast-orf"  />
<polygon locus_tag="cds247370_248027" description="&lt;b&gt;cds247370_248027&lt;/b&gt;&lt;br&gt;acyl-CoA dehydrogenase-like&lt;br&gt;Location: 247370 - 248027" style="stroke:black; fill:white; stroke-width:1; " id="dummy-2_q43_0_all" points="484,35 489,30 490,30 490,40 489,40 484,35 " class="clusterblast-orf"  />
<polygon locus_tag="cds248074_250378" description="&lt;b&gt;cds248074_250378&lt;/b&gt;&lt;br&gt;hypothetical protein&lt;br&gt;Location: 248074 - 250378" style="stroke:black; fill:white; stroke-width:1; " id="dummy-2_q44_0_all" points="491,35 496,30 512,30 512,40 496,40 491,35 " class="clusterblast-orf"  />
<polygon locus_tag="cds250407_250599" description="&lt;b&gt;cds250407_250599&lt;/b&gt;&lt;br&gt;Diaminopimelate decarboxylase (EC 4.1.1.20)&lt;br&gt;Location: 250407 - 250599" style="stroke:black; fill:white; stroke-width:1; " id="dummy-2_q45_0_all" points="513,35 514,30 514,40 513,35 " class="clusterblast-orf"  />
<polygon locus_tag="cds250556_251150" description="&lt;b&gt;cds250556_251150&lt;/b&gt;&lt;br&gt;Diaminopimelate decarboxylase (EC 4.1.1.20)&lt;br&gt;Location: 250556 - 251150" style="stroke:black; fill:white; stroke-width:1; " id="dummy-2_q46_0_all" points="514,35 519,30 519,30 519,40 519,40 514,35 " class="clusterblast-orf"  />
<polygon locus_tag="cds251258_252314" description="&lt;b&gt;cds251258_252314&lt;/b&gt;&lt;br&gt;hypothetical protein&lt;br&gt;Location: 251258 - 252314" style="stroke:black; fill:white; stroke-width:1; " id="dummy-2_q47_0_all" points="521,35 526,30 530,30 530,40 526,40 521,35 " class="clusterblast-orf"  />
<polygon locus_tag="cds252292_252988" description="&lt;b&gt;cds252292_252988&lt;/b&gt;&lt;br&gt;hypothetical protein&lt;br&gt;Location: 252292 - 252988" style="stroke:black; fill:white; stroke-width:1; " id="dummy-2_q48_0_all" points="530,35 535,30 537,30 537,40 535,40 530,35 " class="clusterblast-orf"  />
<polygon locus_tag="cds253182_254253" description="&lt;b&gt;cds253182_254253&lt;/b&gt;&lt;br&gt;hypothetical protein&lt;br&gt;Location: 253182 - 254253" style="stroke:black; fill:white; stroke-width:1; " id="dummy-2_q49_0_all" points="539,35 544,30 549,30 549,40 544,40 539,35 " class="clusterblast-orf"  />
<polygon locus_tag="cds254294_254411" description="&lt;b&gt;cds254294_254411&lt;/b&gt;&lt;br&gt;hypothetical protein&lt;br&gt;Location: 254294 - 254411" style="stroke:black; fill:white; stroke-width:1; " id="dummy-2_q50_0_all" points="549,35 550,30 550,40 549,35 " class="clusterblast-orf"  />
<polygon locus_tag="cds254407_254890" description="&lt;b&gt;cds254407_254890&lt;/b&gt;&lt;br&gt;hypothetical protein&lt;br&gt;Location: 254407 - 254890" style="stroke:black; fill:white; stroke-width:1; " id="dummy-2_q51_0_all" points="550,35 555,30 555,30 555,40 555,40 550,35 " class="clusterblast-orf"  />
<polygon locus_tag="cds255267_255636" description="&lt;b&gt;cds255267_255636&lt;/b&gt;&lt;br&gt;Aspartate racemase (EC 5.1.1.13)&lt;br&gt;Location: 255267 - 255636" style="stroke:black; fill:white; stroke-width:1; " id="dummy-2_q52_0_all" points="558,40 562,35 558,30 558,40 " class="clusterblast-orf"  />
<polygon locus_tag="cds255632_256565" description="&lt;b&gt;cds255632_256565&lt;/b&gt;&lt;br&gt;Aspartate racemase (EC 5.1.1.13)&lt;br&gt;Location: 255632 - 256565" style="stroke:black; fill:white; stroke-width:1; " id="dummy-2_q53_0_all" points="562,40 565,40 570,35 565,30 562,30 562,40 " class="clusterblast-orf"  />
<polygon locus_tag="cds256673_257405" description="&lt;b&gt;cds256673_257405&lt;/b&gt;&lt;br&gt;2-keto-3-deoxy-D-arabino-heptulosonate-7- phosphate synthase II (EC 2.5.1.54)&lt;br&gt;Location: 256673 - 257405" style="stroke:black; fill:#d815d8; stroke-width:1; " id="dummy-2_q54_0_all" points="571,35 576,30 578,30 578,40 576,40 571,35 " class="clusterblast-orf"  />
<polygon locus_tag="cds257371_257944" description="&lt;b&gt;cds257371_257944&lt;/b&gt;&lt;br&gt;2-keto-3-deoxy-D-arabino-heptulosonate-7- phosphate synthase II (EC 2.5.1.54)&lt;br&gt;Location: 257371 - 257944" style="stroke:black; fill:#d815d8; stroke-width:1; " id="dummy-2_q55_0_all" points="578,35 583,30 583,30 583,40 583,40 578,35 " class="clusterblast-orf"  />
<polygon locus_tag="cds258255_258480" description="&lt;b&gt;cds258255_258480&lt;/b&gt;&lt;br&gt;hypothetical protein&lt;br&gt;Location: 258255 - 258480" style="stroke:black; fill:white; stroke-width:1; " id="dummy-2_q56_0_all" points="586,35 588,30 588,40 586,35 " class="clusterblast-orf"  />
<polygon locus_tag="cds258650_259553" description="&lt;b&gt;cds258650_259553&lt;/b&gt;&lt;br&gt;Anthranilate synthase, aminase component (EC 4.1.3.27)&lt;br&gt;Location: 258650 - 259553" style="stroke:black; fill:white; stroke-width:1; " id="dummy-2_q57_0_all" points="590,40 594,40 599,35 594,30 590,30 590,40 " class="clusterblast-orf"  />
<polygon locus_tag="cds259504_259828" description="&lt;b&gt;cds259504_259828&lt;/b&gt;&lt;br&gt;Anthranilate synthase, aminase component (EC 4.1.3.27)&lt;br&gt;Location: 259504 - 259828" style="stroke:black; fill:#d8d815; stroke-width:1; " id="dummy-2_q58_0_all" points="598,40 601,35 598,30 598,40 " class="clusterblast-orf"  />
<polygon locus_tag="cds259909_260524" description="&lt;b&gt;cds259909_260524&lt;/b&gt;&lt;br&gt;Anthranilate synthase, amidotransferase component (EC 4.1.3.27) @ Para-aminobenzoate synthase, amidotransferase component (EC 2.6.1.85)&lt;br&gt;Location: 259909 - 260524" style="stroke:black; fill:#15d877; stroke-width:1; " id="dummy-2_q59_0_all" points="602,40 603,40 608,35 603,30 602,30 602,40 " class="clusterblast-orf"  />
<polygon locus_tag="cds260501_260663" description="&lt;b&gt;cds260501_260663&lt;/b&gt;&lt;br&gt;Transcriptional regulator, GntR family domain / Aspartate aminotransferase (EC 2.6.1.1)&lt;br&gt;Location: 260501 - 260663" style="stroke:black; fill:#1515d8; stroke-width:1; " id="dummy-2_q60_0_all" points="608,35 609,30 609,40 608,35 " class="clusterblast-orf"  />
<polygon locus_tag="cds260864_261245" description="&lt;b&gt;cds260864_261245&lt;/b&gt;&lt;br&gt;Transcriptional regulator, GntR family domain / Aspartate aminotransferase (EC 2.6.1.1)&lt;br&gt;Location: 260864 - 261245" style="stroke:black; fill:#1515d8; stroke-width:1; " id="dummy-2_q61_0_all" points="611,35 615,30 615,40 611,35 " class="clusterblast-orf"  />
<polygon locus_tag="cds261587_261737" description="&lt;b&gt;cds261587_261737&lt;/b&gt;&lt;br&gt;Transcriptional regulator, GntR family domain / Aspartate aminotransferase (EC 2.6.1.1)&lt;br&gt;Location: 261587 - 261737" style="stroke:black; fill:#1515d8; stroke-width:1; " id="dummy-2_q62_0_all" points="618,35 619,30 619,40 618,35 " class="clusterblast-orf"  />
<polygon locus_tag="cds262111_262594" description="&lt;b&gt;cds262111_262594&lt;/b&gt;&lt;br&gt;Anthranilate phosphoribosyltransferase (EC 2.4.2.18)&lt;br&gt;Location: 262111 - 262594" style="stroke:black; fill:white; stroke-width:1; " id="dummy-2_q63_0_all" points="623,40 627,35 623,30 623,40 " class="clusterblast-orf"  />
<polygon locus_tag="cds262590_262917" description="&lt;b&gt;cds262590_262917&lt;/b&gt;&lt;br&gt;Anthranilate phosphoribosyltransferase (EC 2.4.2.18)&lt;br&gt;Location: 262590 - 262917" style="stroke:black; fill:#d81577; stroke-width:1; " id="dummy-2_q64_0_all" points="627,40 630,35 627,30 627,40 " class="clusterblast-orf"  />
<polygon locus_tag="cds262907_263081" description="&lt;b&gt;cds262907_263081&lt;/b&gt;&lt;br&gt;Anthranilate phosphoribosyltransferase (EC 2.4.2.18)&lt;br&gt;Location: 262907 - 263081" style="stroke:black; fill:white; stroke-width:1; " id="dummy-2_q65_0_all" points="630,40 632,35 630,30 630,40 " class="clusterblast-orf"  />
</g>
<g class="clusterblast-cluster" description="BGC0000315_c1: CDA1b / CDA2a / CDA2b / CDA3a / CDA3b / CDA4a / CDA4b (15% of genes show similarity), NRP:Ca+-dependent lipopeptide" label="BGC0000315"  >
<text class="clusterblast-acc" y="70" x="5"  >
<a xlink:href="https://mibig.secondarymetabolites.org/go/BGC0000315/1" target="_blank">BGC0000315</a>:                            CDA1b / CDA2a / CDA2b / CDA3a / CDA3b / CDA4a / CDA4b (15% of genes show similarity), NRP:Ca+-dependent lipopeptide</text>
<line x2="778.0" y1="85" style="stroke:grey; stroke-width:1; " x1="10" y2="85"  />
</g>
<g id="a2_000"  >
<polygon locus_tag="CAB38893.1" description="&lt;b&gt;CAB38893.1&lt;/b&gt;&lt;br&gt;acyl carrier protein&lt;br&gt;Location: 82872 - 82627" style="stroke:black; fill:white; stroke-width:1; " id="dummy-2_h2_4_0" points="0,90 2,85 0,80 0,90 " class="clusterblast-orf"  />
</g>
<g id="a2_001"  >
<polygon locus_tag="CAB38892.1" description="&lt;b&gt;CAB38892.1&lt;/b&gt;&lt;br&gt;3-Oxoacyl-[acyl carrier protein] synthase II (fabF3)&lt;br&gt;Location: 82630 - 81410" style="stroke:black; fill:white; stroke-width:1; " id="dummy-2_h2_4_1" points="2,90 8,90 13,85 8,80 2,80 2,90 " class="clusterblast-orf"  />
</g>
<g id="a2_002"  >
<polygon locus_tag="CAB38891.1" description="&lt;b&gt;CAB38891.1&lt;/b&gt;&lt;br&gt;Hexanoyl-S-ACP oxidase/epoxidase (hxcO)&lt;br&gt;Location: 81360 - 79558" style="stroke:black; fill:white; stroke-width:1; " id="dummy-2_h2_4_2" points="14,90 26,90 31,85 26,80 14,80 14,90 " class="clusterblast-orf"  />
</g>
<g id="a2_003"  >
<polygon locus_tag="CAB38890.1" description="&lt;b&gt;CAB38890.1&lt;/b&gt;&lt;br&gt;3-Oxoacyl-[acyl carrier protein] synthase III (fabH4)&lt;br&gt;Location: 79561 - 78569" style="stroke:black; fill:white; stroke-width:1; " id="dummy-2_h2_4_3" points="31,90 35,90 40,85 35,80 31,80 31,90 " class="clusterblast-orf"  />
</g>
<g id="a2_004"  >
<polygon locus_tag="CAB38889.1" description="&lt;b&gt;CAB38889.1&lt;/b&gt;&lt;br&gt;Hexenoyl-S-ACP Monooxygenase (hcmO)&lt;br&gt;Location: 78522 - 77260" style="stroke:black; fill:white; stroke-width:1; " id="dummy-2_h2_4_4" points="40,90 47,90 52,85 47,80 40,80 40,90 " class="clusterblast-orf"  />
</g>
<g id="a2_005"  >
<polygon locus_tag="CAB38888.1" description="&lt;b&gt;CAB38888.1&lt;/b&gt;&lt;br&gt;putative secreted protein&lt;br&gt;Location: 77192 - 76395" style="stroke:black; fill:white; stroke-width:1; " id="dummy-2_h2_4_5" points="53,90 55,90 60,85 55,80 53,80 53,90 " class="clusterblast-orf"  />
</g>
<g id="a2_006"  >
<polygon locus_tag="CAB38887.1" description="&lt;b&gt;CAB38887.1&lt;/b&gt;&lt;br&gt;putative myo-inositol phosphate synthase&lt;br&gt;Location: 76345 - 75179" style="stroke:black; fill:white; stroke-width:1; " id="dummy-2_h2_4_6" points="61,90 67,90 72,85 67,80 61,80 61,90 " class="clusterblast-orf"  />
</g>
<g id="a2_007"  >
<polygon locus_tag="CAB38886.1" description="&lt;b&gt;CAB38886.1&lt;/b&gt;&lt;br&gt;puitative transferase&lt;br&gt;Location: 75182 - 74307" style="stroke:black; fill:white; stroke-width:1; " id="dummy-2_h2_4_7" points="72,90 75,90 80,85 75,80 72,80 72,90 " class="clusterblast-orf"  />
</g>
<g id="a2_008"  >
<polygon locus_tag="CAB38885.1" description="&lt;b&gt;CAB38885.1&lt;/b&gt;&lt;br&gt;putaive isomerase&lt;br&gt;Location: 74310 - 73438" style="stroke:black; fill:white; stroke-width:1; " id="dummy-2_h2_4_8" points="80,90 83,90 88,85 83,80 80,80 80,90 " class="clusterblast-orf"  />
</g>
<g id="a2_009"  >
<polygon locus_tag="CAB38884.1" description="&lt;b&gt;CAB38884.1&lt;/b&gt;&lt;br&gt;conserved hypothetical protein&lt;br&gt;Location: 73441 - 72731" style="stroke:black; fill:white; stroke-width:1; " id="dummy-2_h2_4_9" points="88,90 90,90 95,85 90,80 88,80 88,90 " class="clusterblast-orf"  />
</g>
<g id="a2_0010"  >
<polygon locus_tag="CAB38883.1" description="&lt;b&gt;CAB38883.1&lt;/b&gt;&lt;br&gt;conserved hypothetical protein&lt;br&gt;Location: 72734 - 71865" style="stroke:black; fill:white; stroke-width:1; " id="dummy-2_h2_4_10" points="95,90 98,90 103,85 98,80 95,80 95,90 " class="clusterblast-orf"  />
</g>
<g id="a2_0011"  >
<polygon locus_tag="CAB38882.1" description="&lt;b&gt;CAB38882.1&lt;/b&gt;&lt;br&gt;hypothetical protein&lt;br&gt;Location: 71858 - 70698" style="stroke:black; fill:white; stroke-width:1; " id="dummy-2_h2_4_11" points="103,90 109,90 114,85 109,80 103,80 103,90 " class="clusterblast-orf"  />
</g>
<g id="a2_0012"  >
<polygon locus_tag="CAB38881.1" description="&lt;b&gt;CAB38881.1&lt;/b&gt;&lt;br&gt;conserved hypothetical protein&lt;br&gt;Location: 70686 - 69298" style="stroke:black; fill:white; stroke-width:1; " id="dummy-2_h2_4_12" points="114,90 122,90 127,85 122,80 114,80 114,90 " class="clusterblast-orf"  />
</g>
<g id="a2_0013"  >
<polygon locus_tag="CAB38880.1" description="&lt;b&gt;CAB38880.1&lt;/b&gt;&lt;br&gt;Asparagine oxygenase (AsnO)&lt;br&gt;Location: 69240 - 68239" style="stroke:black; fill:white; stroke-width:1; " id="dummy-2_h2_4_13" points="128,90 132,90 137,85 132,80 128,80 128,90 " class="clusterblast-orf"  />
</g>
<g id="a2_0014"  >
<polygon locus_tag="CAB38879.1" description="&lt;b&gt;CAB38879.1&lt;/b&gt;&lt;br&gt;putative ABC transporter&lt;br&gt;Location: 68199 - 66352" style="stroke:black; fill:white; stroke-width:1; " id="dummy-2_h2_4_14" points="138,90 150,90 155,85 150,80 138,80 138,90 " class="clusterblast-orf"  />
</g>
<g id="a2_0015"  >
<polygon locus_tag="CAB38878.1" description="&lt;b&gt;CAB38878.1&lt;/b&gt;&lt;br&gt;3-hydroxyasparagine phosphotransferase (HasP)&lt;br&gt;Location: 66276 - 65374" style="stroke:black; fill:white; stroke-width:1; " id="dummy-2_h2_4_15" points="156,85 161,80 164,80 164,90 161,90 156,85 " class="clusterblast-orf"  />
</g>
<g id="a2_0016"  >
<polygon locus_tag="CAB38877.1" description="&lt;b&gt;CAB38877.1&lt;/b&gt;&lt;br&gt;putative type II thioesterase&lt;br&gt;Location: 65362 - 64544" style="stroke:black; fill:white; stroke-width:1; " id="dummy-2_h2_4_16" points="164,85 169,80 172,80 172,90 169,90 164,85 " class="clusterblast-orf"  />
</g>
<g id="a2_0017"  >
<polygon locus_tag="CAD55498.1" description="&lt;b&gt;CAD55498.1&lt;/b&gt;&lt;br&gt;CDA peptide synthetase III (CdaPs3)&lt;br&gt;Location: 64540 - 57287&lt;br&gt;&lt;br&gt;&lt;b&gt;BlastP hit with cds231114_232017&lt;/b&gt;&lt;br&gt;Percentage identity: 47&lt;br&gt;Percentage coverage: 86&lt;br&gt;BLAST bit score: 206&lt;br&gt;E-value: 7.3e-53&lt;br&gt;&lt;br&gt;&lt;b&gt;BlastP hit with cds232690_233482&lt;/b&gt;&lt;br&gt;Percentage identity: 53&lt;br&gt;Percentage coverage: 68&lt;br&gt;BLAST bit score: 179&lt;br&gt;E-value: 6.4e-45&lt;br&gt;&lt;br&gt;&lt;b&gt;BlastP hit with cds233530_233929&lt;/b&gt;&lt;br&gt;Percentage identity: 59&lt;br&gt;Percentage coverage: 53&lt;br&gt;BLAST bit score: 82&lt;br&gt;E-value: 5.4e-16&lt;br&gt;&lt;br&gt;&lt;b&gt;BlastP hit with cds234939_236670&lt;/b&gt;&lt;br&gt;Percentage identity: 54&lt;br&gt;Percentage coverage: 73&lt;br&gt;BLAST bit score: 409&lt;br&gt;E-value: 1.1e-113&lt;br&gt;&lt;br&gt;&lt;b&gt;BlastP hit with cds238002_238332&lt;/b&gt;&lt;br&gt;Percentage identity: 56&lt;br&gt;Percentage coverage: 97&lt;br&gt;BLAST bit score: 113&lt;br&gt;E-value: 3.1e-25&lt;br&gt;&lt;br&gt;&lt;b&gt;BlastP hit with cds238364_238892&lt;/b&gt;&lt;br&gt;Percentage identity: 46&lt;br&gt;Percentage coverage: 79&lt;br&gt;BLAST bit score: 98&lt;br&gt;E-value: 9.6e-21" style="stroke:black; fill:#7715d8; stroke-width:1; " id="dummy-2_h2_4_17" points="172,85 177,80 240,80 240,90 177,90 172,85 " class="clusterblast-orf"  />
</g>
<g id="a2_0018"  >
<polygon locus_tag="CAB38517.1" description="&lt;b&gt;CAB38517.1&lt;/b&gt;&lt;br&gt;CDA peptide synthetase II (CdaPs2)&lt;br&gt;Location: 57287 - 46275&lt;br&gt;&lt;br&gt;&lt;b&gt;BlastP hit with cds231114_232017&lt;/b&gt;&lt;br&gt;Percentage identity: 52&lt;br&gt;Percentage coverage: 82&lt;br&gt;BLAST bit score: 221&lt;br&gt;E-value: 1.7e-57&lt;br&gt;&lt;br&gt;&lt;b&gt;BlastP hit with cds232690_233482&lt;/b&gt;&lt;br&gt;Percentage identity: 53&lt;br&gt;Percentage coverage: 65&lt;br&gt;BLAST bit score: 173&lt;br&gt;E-value: 4.6e-43&lt;br&gt;&lt;br&gt;&lt;b&gt;BlastP hit with cds233530_233929&lt;/b&gt;&lt;br&gt;Percentage identity: 53&lt;br&gt;Percentage coverage: 59&lt;br&gt;BLAST bit score: 85&lt;br&gt;E-value: 6.3e-17&lt;br&gt;&lt;br&gt;&lt;b&gt;BlastP hit with cds234939_236670&lt;/b&gt;&lt;br&gt;Percentage identity: 49&lt;br&gt;Percentage coverage: 80&lt;br&gt;BLAST bit score: 382&lt;br&gt;E-value: 1.1e-105&lt;br&gt;&lt;br&gt;&lt;b&gt;BlastP hit with cds238002_238332&lt;/b&gt;&lt;br&gt;Percentage identity: 59&lt;br&gt;Percentage coverage: 85&lt;br&gt;BLAST bit score: 101&lt;br&gt;E-value: 7e-22" style="stroke:black; fill:#7715d8; stroke-width:1; " id="dummy-2_h2_4_18" points="240,85 245,80 344,80 344,90 245,90 240,85 " class="clusterblast-orf"  />
</g>
<g id="a2_0019"  >
<polygon locus_tag="CAB38518.1" description="&lt;b&gt;CAB38518.1&lt;/b&gt;&lt;br&gt;CDA peptide synthetase I (CdaPs1)&lt;br&gt;Location: 46278 - 23887&lt;br&gt;&lt;br&gt;&lt;b&gt;BlastP hit with cds231114_232017&lt;/b&gt;&lt;br&gt;Percentage identity: 50&lt;br&gt;Percentage coverage: 80&lt;br&gt;BLAST bit score: 215&lt;br&gt;E-value: 1.2e-55&lt;br&gt;&lt;br&gt;&lt;b&gt;BlastP hit with cds232690_233482&lt;/b&gt;&lt;br&gt;Percentage identity: 55&lt;br&gt;Percentage coverage: 67&lt;br&gt;BLAST bit score: 191&lt;br&gt;E-value: 2.1e-48&lt;br&gt;&lt;br&gt;&lt;b&gt;BlastP hit with cds233530_233929&lt;/b&gt;&lt;br&gt;Percentage identity: 59&lt;br&gt;Percentage coverage: 53&lt;br&gt;BLAST bit score: 86&lt;br&gt;E-value: 3.7e-17&lt;br&gt;&lt;br&gt;&lt;b&gt;BlastP hit with cds234939_236670&lt;/b&gt;&lt;br&gt;Percentage identity: 48&lt;br&gt;Percentage coverage: 77&lt;br&gt;BLAST bit score: 374&lt;br&gt;E-value: 3e-103&lt;br&gt;&lt;br&gt;&lt;b&gt;BlastP hit with cds238002_238332&lt;/b&gt;&lt;br&gt;Percentage identity: 52&lt;br&gt;Percentage coverage: 100&lt;br&gt;BLAST bit score: 114&lt;br&gt;E-value: 1.4e-25&lt;br&gt;&lt;br&gt;&lt;b&gt;BlastP hit with cds238364_238892&lt;/b&gt;&lt;br&gt;Percentage identity: 48&lt;br&gt;Percentage coverage: 84&lt;br&gt;BLAST bit score: 126&lt;br&gt;E-value: 3.3e-29" style="stroke:black; fill:#7715d8; stroke-width:1; " id="dummy-2_h2_4_19" points="344,85 349,80 555,80 555,90 349,90 344,85 " class="clusterblast-orf"  />
</g>
<g id="a2_0020"  >
<polygon locus_tag="CAB38519.1" description="&lt;b&gt;CAB38519.1&lt;/b&gt;&lt;br&gt;4-hydroxymandelic acid synthase (HmaS)&lt;br&gt;Location: 23618 - 22503" style="stroke:black; fill:white; stroke-width:1; " id="dummy-2_h2_4_20" points="557,90 563,90 568,85 563,80 557,80 557,90 " class="clusterblast-orf"  />
</g>
<g id="a2_0021"  >
<polygon locus_tag="CAB38520.1" description="&lt;b&gt;CAB38520.1&lt;/b&gt;&lt;br&gt;4-hydroxymandelate oxidase (Hmo)&lt;br&gt;Location: 22353 - 21220" style="stroke:black; fill:white; stroke-width:1; " id="dummy-2_h2_4_21" points="569,90 575,90 580,85 575,80 569,80 569,90 " class="clusterblast-orf"  />
</g>
<g id="a2_0022"  >
<polygon locus_tag="CAD55497.1" description="&lt;b&gt;CAD55497.1&lt;/b&gt;&lt;br&gt;4-hydroxyphenylglycine aminotransferase (hpgT)&lt;br&gt;Location: 21223 - 19889" style="stroke:black; fill:white; stroke-width:1; " id="dummy-2_h2_4_22" points="580,90 587,90 592,85 587,80 580,80 580,90 " class="clusterblast-orf"  />
</g>
<g id="a2_0023"  >
<polygon locus_tag="CAB38597.1" description="&lt;b&gt;CAB38597.1&lt;/b&gt;&lt;br&gt;two component system response regulator (absA2)&lt;br&gt;Location: 19899 - 19231" style="stroke:black; fill:white; stroke-width:1; " id="dummy-2_h2_4_23" points="592,85 597,80 599,80 599,90 597,90 592,85 " class="clusterblast-orf"  />
</g>
<g id="a2_0024"  >
<polygon locus_tag="CAB38596.1" description="&lt;b&gt;CAB38596.1&lt;/b&gt;&lt;br&gt;two component sensor kinase (absA1)&lt;br&gt;Location: 19212 - 17497" style="stroke:black; fill:white; stroke-width:1; " id="dummy-2_h2_4_24" points="599,85 604,80 615,80 615,90 604,90 599,85 " class="clusterblast-orf"  />
</g>
<g id="a2_0025"  >
<polygon locus_tag="CAB38595.1" description="&lt;b&gt;CAB38595.1&lt;/b&gt;&lt;br&gt;putative ABC transporter ATP-binding protein&lt;br&gt;Location: 17360 - 16407" style="stroke:black; fill:white; stroke-width:1; " id="dummy-2_h2_4_25" points="616,90 620,90 625,85 620,80 616,80 616,90 " class="clusterblast-orf"  />
</g>
<g id="a2_0026"  >
<polygon locus_tag="CAB38594.1" description="&lt;b&gt;CAB38594.1&lt;/b&gt;&lt;br&gt;putative ABC transporter integral membrane protein&lt;br&gt;Location: 16400 - 15606" style="stroke:black; fill:white; stroke-width:1; " id="dummy-2_h2_4_26" points="625,90 628,90 633,85 628,80 625,80 625,90 " class="clusterblast-orf"  />
</g>
<g id="a2_0027"  >
<polygon locus_tag="CAB38593.1" description="&lt;b&gt;CAB38593.1&lt;/b&gt;&lt;br&gt;putative secreted protein&lt;br&gt;Location: 15451 - 14996" style="stroke:black; fill:white; stroke-width:1; " id="dummy-2_h2_4_27" points="634,90 638,85 634,80 634,90 " class="clusterblast-orf"  />
</g>
<g id="a2_0028"  >
<polygon locus_tag="CAB38592.1" description="&lt;b&gt;CAB38592.1&lt;/b&gt;&lt;br&gt;putative oxidoreductase&lt;br&gt;Location: 14898 - 14044" style="stroke:black; fill:white; stroke-width:1; " id="dummy-2_h2_4_28" points="639,90 642,90 647,85 642,80 639,80 639,90 " class="clusterblast-orf"  />
</g>
<g id="a2_0029"  >
<polygon locus_tag="CAB38591.1" description="&lt;b&gt;CAB38591.1&lt;/b&gt;&lt;br&gt;putative secreted protein&lt;br&gt;Location: 13951 - 13523" style="stroke:black; fill:white; stroke-width:1; " id="dummy-2_h2_4_29" points="648,90 652,85 648,80 648,90 " class="clusterblast-orf"  />
</g>
<g id="a2_0030"  >
<polygon locus_tag="CAB38590.1" description="&lt;b&gt;CAB38590.1&lt;/b&gt;&lt;br&gt;putative lipase (putative secreted protein)&lt;br&gt;Location: 13315 - 12140" style="stroke:black; fill:white; stroke-width:1; " id="dummy-2_h2_4_30" points="654,90 660,90 665,85 660,80 654,80 654,90 " class="clusterblast-orf"  />
</g>
<g id="a2_0031"  >
<polygon locus_tag="CAB38589.1" description="&lt;b&gt;CAB38589.1&lt;/b&gt;&lt;br&gt;putative small conserved hypothetical protein&lt;br&gt;Location: 12017 - 11802" style="stroke:black; fill:white; stroke-width:1; " id="dummy-2_h2_4_31" points="666,90 668,85 666,80 666,90 " class="clusterblast-orf"  />
</g>
<g id="a2_0032"  >
<polygon locus_tag="CAB38588.1" description="&lt;b&gt;CAB38588.1&lt;/b&gt;&lt;br&gt;putative transcriptional regulator&lt;br&gt;Location: 11740 - 9824" style="stroke:black; fill:white; stroke-width:1; " id="dummy-2_h2_4_32" points="669,85 674,80 687,80 687,90 674,90 669,85 " class="clusterblast-orf"  />
</g>
<g id="a2_0033"  >
<polygon locus_tag="CAB38587.1" description="&lt;b&gt;CAB38587.1&lt;/b&gt;&lt;br&gt;putative integral membrane ATPase&lt;br&gt;Location: 9079 - 6689" style="stroke:black; fill:white; stroke-width:1; " id="dummy-2_h2_4_33" points="694,85 699,80 717,80 717,90 699,90 694,85 " class="clusterblast-orf"  />
</g>
<g id="a2_0034"  >
<polygon locus_tag="CAB38586.1" description="&lt;b&gt;CAB38586.1&lt;/b&gt;&lt;br&gt;2-oxogluterate-3-methyltransferase (glmT)&lt;br&gt;Location: 6396 - 5380" style="stroke:black; fill:white; stroke-width:1; " id="dummy-2_h2_4_34" points="719,90 724,90 729,85 724,80 719,80 719,90 " class="clusterblast-orf"  />
</g>
<g id="a2_0035"  >
<polygon locus_tag="CAB38585.1" description="&lt;b&gt;CAB38585.1&lt;/b&gt;&lt;br&gt;probable anthranilate synthase component I (trpE2)&lt;br&gt;Location: 5383 - 3848&lt;br&gt;&lt;br&gt;&lt;b&gt;BlastP hit with cds259504_259828&lt;/b&gt;&lt;br&gt;Percentage identity: 52&lt;br&gt;Percentage coverage: 99&lt;br&gt;BLAST bit score: 99&lt;br&gt;E-value: 3.4e-21" style="stroke:black; fill:#d8d815; stroke-width:1; " id="dummy-2_h2_4_35" points="729,90 738,90 743,85 738,80 729,80 729,90 " class="clusterblast-orf"  />
</g>
<g id="a2_0036"  >
<polygon locus_tag="CAB38584.1" description="&lt;b&gt;CAB38584.1&lt;/b&gt;&lt;br&gt;probable anthranilate synthase component II (trpG)&lt;br&gt;Location: 3851 - 3249&lt;br&gt;&lt;br&gt;&lt;b&gt;BlastP hit with cds259909_260524&lt;/b&gt;&lt;br&gt;Percentage identity: 48&lt;br&gt;Percentage coverage: 91&lt;br&gt;BLAST bit score: 140&lt;br&gt;E-value: 2.6e-33" style="stroke:black; fill:#15d877; stroke-width:1; " id="dummy-2_h2_4_36" points="743,90 744,90 749,85 744,80 743,80 743,90 " class="clusterblast-orf"  />
</g>
<g id="a2_0037"  >
<polygon locus_tag="CAB38583.1" description="&lt;b&gt;CAB38583.1&lt;/b&gt;&lt;br&gt;probable anthranilate phosphoribotransferase (trpD2)&lt;br&gt;Location: 3232 - 2225" style="stroke:black; fill:white; stroke-width:1; " id="dummy-2_h2_4_37" points="749,90 754,90 759,85 754,80 749,80 749,90 " class="clusterblast-orf"  />
</g>
<g id="a2_0038"  >
<polygon locus_tag="CAB38582.1" description="&lt;b&gt;CAB38582.1&lt;/b&gt;&lt;br&gt;putative indoleglycerol phosphate synthase (trpC2)&lt;br&gt;Location: 2228 - 1452" style="stroke:black; fill:white; stroke-width:1; " id="dummy-2_h2_4_38" points="759,90 761,90 766,85 761,80 759,80 759,90 " class="clusterblast-orf"  />
</g>
<g id="a2_0039"  >
<polygon locus_tag="CAB38581.1" description="&lt;b&gt;CAB38581.1&lt;/b&gt;&lt;br&gt;putative 2-dehydro-3-deoxyheptonate aldolase&lt;br&gt;Location: 1455 - 1&lt;br&gt;&lt;br&gt;&lt;b&gt;BlastP hit with cds256673_257405&lt;/b&gt;&lt;br&gt;Percentage identity: 51&lt;br&gt;Percentage coverage: 97&lt;br&gt;BLAST bit score: 235&lt;br&gt;E-value: 1.2e-61&lt;br&gt;&lt;br&gt;&lt;b&gt;BlastP hit with cds257371_257944&lt;/b&gt;&lt;br&gt;Percentage identity: 56&lt;br&gt;Percentage coverage: 49&lt;br&gt;BLAST bit score: 107&lt;br&gt;E-value: 2.2e-23" style="stroke:black; fill:#d815d8; stroke-width:1; " id="dummy-2_h2_4_39" points="766,90 775,90 780,85 775,80 766,80 766,90 " class="clusterblast-orf"  />
</g>
</svg>
