<svg preserveAspectRatio="none" height="150" version="1.1" xmlns:xlink="http://www.w3.org/1999/xlink" width="800" viewBox="0 0 800 150" y="0" x="0" xmlns="http://www.w3.org/2000/svg"  >
<g class="clusterblast-cluster" label="Query sequence"  >
<text class="clusterblast-acc" y="20" x="5"  >
Query sequence</text>
<line x2="778.0" y1="35" style="stroke:grey; stroke-width:1; " x1="10" y2="35"  />
<polygon locus_tag="cds1_14389" description="&lt;b&gt;cds1_14389&lt;/b&gt;&lt;br&gt;Polyketide synthase modules and related proteins&lt;br&gt;Location: 1 - 14389" style="stroke:black; fill:white; stroke-width:1; " id="subclusterblast-1_q0_0_all" points="0,40 163,40 168,35 163,30 0,30 0,40 " class="clusterblast-orf"  />
<polygon locus_tag="cds14364_14883" description="&lt;b&gt;cds14364_14883&lt;/b&gt;&lt;br&gt;Polyketide synthase modules and related proteins&lt;br&gt;Location: 14364 - 14883" style="stroke:black; fill:white; stroke-width:1; " id="subclusterblast-1_q1_0_all" points="168,40 169,40 174,35 169,30 168,30 168,40 " class="clusterblast-orf"  />
<polygon locus_tag="cds14882_15092" description="&lt;b&gt;cds14882_15092&lt;/b&gt;&lt;br&gt;Polyketide synthase modules and related proteins&lt;br&gt;Location: 14882 - 15092" style="stroke:black; fill:white; stroke-width:1; " id="subclusterblast-1_q2_0_all" points="174,40 176,35 174,30 174,40 " class="clusterblast-orf"  />
<polygon locus_tag="cds15118_17008" description="&lt;b&gt;cds15118_17008&lt;/b&gt;&lt;br&gt;Polyketide synthase modules and related proteins&lt;br&gt;Location: 15118 - 17008" style="stroke:black; fill:#d81515; stroke-width:1; " id="subclusterblast-1_q3_0_all" points="176,40 193,40 198,35 193,30 176,30 176,40 " class="clusterblast-orf"  />
<polygon locus_tag="cds17102_17543" description="&lt;b&gt;cds17102_17543&lt;/b&gt;&lt;br&gt;Polyketide synthase modules and related proteins&lt;br&gt;Location: 17102 - 17543" style="stroke:black; fill:white; stroke-width:1; " id="subclusterblast-1_q4_0_all" points="200,40 200,40 205,35 200,30 200,30 200,40 " class="clusterblast-orf"  />
<polygon locus_tag="cds17539_17803" description="&lt;b&gt;cds17539_17803&lt;/b&gt;&lt;br&gt;CDA peptide synthetase I&lt;br&gt;Location: 17539 - 17803" style="stroke:black; fill:white; stroke-width:1; " id="subclusterblast-1_q5_0_all" points="205,40 208,35 205,30 205,40 " class="clusterblast-orf"  />
<polygon locus_tag="cds17817_18369" description="&lt;b&gt;cds17817_18369&lt;/b&gt;&lt;br&gt;CDA peptide synthetase I&lt;br&gt;Location: 17817 - 18369" style="stroke:black; fill:white; stroke-width:1; " id="subclusterblast-1_q6_0_all" points="208,40 209,40 214,35 209,30 208,30 208,40 " class="clusterblast-orf"  />
<polygon locus_tag="cds18383_18755" description="&lt;b&gt;cds18383_18755&lt;/b&gt;&lt;br&gt;CDA peptide synthetase I&lt;br&gt;Location: 18383 - 18755" style="stroke:black; fill:white; stroke-width:1; " id="subclusterblast-1_q7_0_all" points="215,40 219,35 215,30 215,40 " class="clusterblast-orf"  />
<polygon locus_tag="cds18880_19345" description="&lt;b&gt;cds18880_19345&lt;/b&gt;&lt;br&gt;CDA peptide synthetase I&lt;br&gt;Location: 18880 - 19345" style="stroke:black; fill:white; stroke-width:1; " id="subclusterblast-1_q8_0_all" points="220,40 221,40 226,35 221,30 220,30 220,40 " class="clusterblast-orf"  />
<polygon locus_tag="cds19341_21867" description="&lt;b&gt;cds19341_21867&lt;/b&gt;&lt;br&gt;CDA peptide synthetase I&lt;br&gt;Location: 19341 - 21867" style="stroke:black; fill:white; stroke-width:1; " id="subclusterblast-1_q9_0_all" points="226,40 250,40 255,35 250,30 226,30 226,40 " class="clusterblast-orf"  />
<polygon locus_tag="cds21863_22793" description="&lt;b&gt;cds21863_22793&lt;/b&gt;&lt;br&gt;CDA peptide synthetase I&lt;br&gt;Location: 21863 - 22793" style="stroke:black; fill:white; stroke-width:1; " id="subclusterblast-1_q10_0_all" points="255,40 261,40 266,35 261,30 255,30 255,40 " class="clusterblast-orf"  />
<polygon locus_tag="cds23042_23405" description="&lt;b&gt;cds23042_23405&lt;/b&gt;&lt;br&gt;CDA peptide synthetase I&lt;br&gt;Location: 23042 - 23405" style="stroke:black; fill:#d81515; stroke-width:1; " id="subclusterblast-1_q11_0_all" points="269,40 273,35 269,30 269,40 " class="clusterblast-orf"  />
<polygon locus_tag="cds23601_23937" description="&lt;b&gt;cds23601_23937&lt;/b&gt;&lt;br&gt;hypothetical protein&lt;br&gt;Location: 23601 - 23937" style="stroke:black; fill:white; stroke-width:1; " id="subclusterblast-1_q12_0_all" points="276,35 279,30 279,40 276,35 " class="clusterblast-orf"  />
<polygon locus_tag="cds24056_26354" description="&lt;b&gt;cds24056_26354&lt;/b&gt;&lt;br&gt;CDA peptide synthetase I&lt;br&gt;Location: 24056 - 26354" style="stroke:black; fill:white; stroke-width:1; " id="subclusterblast-1_q13_0_all" points="281,40 303,40 308,35 303,30 281,30 281,40 " class="clusterblast-orf"  />
<polygon locus_tag="cds26350_29560" description="&lt;b&gt;cds26350_29560&lt;/b&gt;&lt;br&gt;CDA peptide synthetase I&lt;br&gt;Location: 26350 - 29560" style="stroke:black; fill:white; stroke-width:1; " id="subclusterblast-1_q14_0_all" points="308,40 340,40 345,35 340,30 308,30 308,40 " class="clusterblast-orf"  />
<polygon locus_tag="cds29541_30897" description="&lt;b&gt;cds29541_30897&lt;/b&gt;&lt;br&gt;CDA peptide synthetase I&lt;br&gt;Location: 29541 - 30897" style="stroke:black; fill:white; stroke-width:1; " id="subclusterblast-1_q15_0_all" points="345,40 356,40 361,35 356,30 345,30 345,40 " class="clusterblast-orf"  />
<polygon locus_tag="cds30954_31257" description="&lt;b&gt;cds30954_31257&lt;/b&gt;&lt;br&gt;Polyketide synthase modules and related proteins&lt;br&gt;Location: 30954 - 31257" style="stroke:black; fill:#d81515; stroke-width:1; " id="subclusterblast-1_q16_0_all" points="362,40 365,35 362,30 362,40 " class="clusterblast-orf"  />
<polygon locus_tag="cds31291_31741" description="&lt;b&gt;cds31291_31741&lt;/b&gt;&lt;br&gt;CDA peptide synthetase I&lt;br&gt;Location: 31291 - 31741" style="stroke:black; fill:white; stroke-width:1; " id="subclusterblast-1_q17_0_all" points="365,40 366,40 371,35 366,30 365,30 365,40 " class="clusterblast-orf"  />
<polygon locus_tag="cds31833_32910" description="&lt;b&gt;cds31833_32910&lt;/b&gt;&lt;br&gt;CDA peptide synthetase I&lt;br&gt;Location: 31833 - 32910" style="stroke:black; fill:white; stroke-width:1; " id="subclusterblast-1_q18_0_all" points="372,40 379,40 384,35 379,30 372,30 372,40 " class="clusterblast-orf"  />
<polygon locus_tag="cds32941_33079" description="&lt;b&gt;cds32941_33079&lt;/b&gt;&lt;br&gt;hypothetical protein&lt;br&gt;Location: 32941 - 33079" style="stroke:black; fill:white; stroke-width:1; " id="subclusterblast-1_q19_0_all" points="385,40 386,35 385,30 385,40 " class="clusterblast-orf"  />
<polygon locus_tag="cds33175_34168" description="&lt;b&gt;cds33175_34168&lt;/b&gt;&lt;br&gt;Polyketide synthase modules and related proteins&lt;br&gt;Location: 33175 - 34168" style="stroke:black; fill:white; stroke-width:1; " id="subclusterblast-1_q20_0_all" points="388,40 394,40 399,35 394,30 388,30 388,40 " class="clusterblast-orf"  />
<polygon locus_tag="cds34164_36450" description="&lt;b&gt;cds34164_36450&lt;/b&gt;&lt;br&gt;Polyketide synthase modules and related proteins&lt;br&gt;Location: 34164 - 36450" style="stroke:black; fill:#d81515; stroke-width:1; " id="subclusterblast-1_q21_0_all" points="399,40 421,40 426,35 421,30 399,30 399,40 " class="clusterblast-orf"  />
<polygon locus_tag="cds36628_37132" description="&lt;b&gt;cds36628_37132&lt;/b&gt;&lt;br&gt;hypothetical protein&lt;br&gt;Location: 36628 - 37132" style="stroke:black; fill:white; stroke-width:1; " id="subclusterblast-1_q22_0_all" points="428,35 433,30 434,30 434,40 433,40 428,35 " class="clusterblast-orf"  />
<polygon locus_tag="cds37371_43191" description="&lt;b&gt;cds37371_43191&lt;/b&gt;&lt;br&gt;Polyketide synthase modules and related proteins&lt;br&gt;Location: 37371 - 43191" style="stroke:black; fill:white; stroke-width:1; " id="subclusterblast-1_q23_0_all" points="437,40 500,40 505,35 500,30 437,30 437,40 " class="clusterblast-orf"  />
<polygon locus_tag="cds43320_44043" description="&lt;b&gt;cds43320_44043&lt;/b&gt;&lt;br&gt;Polyketide synthase modules and related proteins&lt;br&gt;Location: 43320 - 44043" style="stroke:black; fill:white; stroke-width:1; " id="subclusterblast-1_q24_0_all" points="506,40 510,40 515,35 510,30 506,30 506,40 " class="clusterblast-orf"  />
<polygon locus_tag="cds44419_44653" description="&lt;b&gt;cds44419_44653&lt;/b&gt;&lt;br&gt;hypothetical protein&lt;br&gt;Location: 44419 - 44653" style="stroke:black; fill:white; stroke-width:1; " id="subclusterblast-1_q25_0_all" points="519,35 522,30 522,40 519,35 " class="clusterblast-orf"  />
<polygon locus_tag="cds44729_45593" description="&lt;b&gt;cds44729_45593&lt;/b&gt;&lt;br&gt;putative non-ribosomal peptide synthetase&lt;br&gt;Location: 44729 - 45593" style="stroke:black; fill:white; stroke-width:1; " id="subclusterblast-1_q26_0_all" points="523,40 528,40 533,35 528,30 523,30 523,40 " class="clusterblast-orf"  />
<polygon locus_tag="cds45589_45892" description="&lt;b&gt;cds45589_45892&lt;/b&gt;&lt;br&gt;Long-chain-fatty-acid--CoA ligase (EC 6.2.1.3)&lt;br&gt;Location: 45589 - 45892" style="stroke:black; fill:white; stroke-width:1; " id="subclusterblast-1_q27_0_all" points="533,40 536,35 533,30 533,40 " class="clusterblast-orf"  />
<polygon locus_tag="cds46042_46231" description="&lt;b&gt;cds46042_46231&lt;/b&gt;&lt;br&gt;Polyketide synthase modules and related proteins&lt;br&gt;Location: 46042 - 46231" style="stroke:black; fill:white; stroke-width:1; " id="subclusterblast-1_q28_0_all" points="538,40 540,35 538,30 538,40 " class="clusterblast-orf"  />
<polygon locus_tag="cds46756_47461" description="&lt;b&gt;cds46756_47461&lt;/b&gt;&lt;br&gt;Polyketide synthase modules and related proteins&lt;br&gt;Location: 46756 - 47461" style="stroke:black; fill:white; stroke-width:1; " id="subclusterblast-1_q29_0_all" points="546,40 550,40 555,35 550,30 546,30 546,40 " class="clusterblast-orf"  />
<polygon locus_tag="cds47430_47574" description="&lt;b&gt;cds47430_47574&lt;/b&gt;&lt;br&gt;Polyketide synthase modules and related proteins&lt;br&gt;Location: 47430 - 47574" style="stroke:black; fill:white; stroke-width:1; " id="subclusterblast-1_q30_0_all" points="554,40 556,35 554,30 554,40 " class="clusterblast-orf"  />
<polygon locus_tag="cds47593_47932" description="&lt;b&gt;cds47593_47932&lt;/b&gt;&lt;br&gt;Polyketide synthase modules and related proteins&lt;br&gt;Location: 47593 - 47932" style="stroke:black; fill:#d81515; stroke-width:1; " id="subclusterblast-1_q31_0_all" points="556,40 560,35 556,30 556,40 " class="clusterblast-orf"  />
<polygon locus_tag="cds47897_48647" description="&lt;b&gt;cds47897_48647&lt;/b&gt;&lt;br&gt;Polyketide synthase modules and related proteins&lt;br&gt;Location: 47897 - 48647" style="stroke:black; fill:white; stroke-width:1; " id="subclusterblast-1_q32_0_all" points="560,40 563,40 568,35 563,30 560,30 560,40 " class="clusterblast-orf"  />
<polygon locus_tag="cds48654_49578" description="&lt;b&gt;cds48654_49578&lt;/b&gt;&lt;br&gt;iron(III) dicitrate transport permease&lt;br&gt;Location: 48654 - 49578" style="stroke:black; fill:white; stroke-width:1; " id="subclusterblast-1_q33_0_all" points="569,35 574,30 579,30 579,40 574,40 569,35 " class="clusterblast-orf"  />
<polygon locus_tag="cds49826_50471" description="&lt;b&gt;cds49826_50471&lt;/b&gt;&lt;br&gt;Siderophore-interacting protein&lt;br&gt;Location: 49826 - 50471" style="stroke:black; fill:white; stroke-width:1; " id="subclusterblast-1_q34_0_all" points="582,40 585,40 590,35 585,30 582,30 582,40 " class="clusterblast-orf"  />
<polygon locus_tag="cds50523_50679" description="&lt;b&gt;cds50523_50679&lt;/b&gt;&lt;br&gt;FIG01123293: hypothetical protein&lt;br&gt;Location: 50523 - 50679" style="stroke:black; fill:white; stroke-width:1; " id="subclusterblast-1_q35_0_all" points="590,40 592,35 590,30 590,40 " class="clusterblast-orf"  />
<polygon locus_tag="cds50741_50867" description="&lt;b&gt;cds50741_50867&lt;/b&gt;&lt;br&gt;Putative hydrolase&lt;br&gt;Location: 50741 - 50867" style="stroke:black; fill:#15d8d8; stroke-width:1; " id="subclusterblast-1_q36_0_all" points="593,40 594,35 593,30 593,40 " class="clusterblast-orf"  />
<polygon locus_tag="cds50875_51394" description="&lt;b&gt;cds50875_51394&lt;/b&gt;&lt;br&gt;Putative hydrolase&lt;br&gt;Location: 50875 - 51394" style="stroke:black; fill:white; stroke-width:1; " id="subclusterblast-1_q37_0_all" points="594,40 596,40 601,35 596,30 594,30 594,40 " class="clusterblast-orf"  />
<polygon locus_tag="cds51390_52524" description="&lt;b&gt;cds51390_52524&lt;/b&gt;&lt;br&gt;Efflux ABC transporter, permease/ATP-binding protein&lt;br&gt;Location: 51390 - 52524" style="stroke:black; fill:white; stroke-width:1; " id="subclusterblast-1_q38_0_all" points="600,40 609,40 614,35 609,30 600,30 600,40 " class="clusterblast-orf"  />
<polygon locus_tag="cds52520_53108" description="&lt;b&gt;cds52520_53108&lt;/b&gt;&lt;br&gt;Efflux ABC transporter, permease/ATP-binding protein&lt;br&gt;Location: 52520 - 53108" style="stroke:black; fill:white; stroke-width:1; " id="subclusterblast-1_q39_0_all" points="614,40 616,40 621,35 616,30 614,30 614,40 " class="clusterblast-orf"  />
<polygon locus_tag="cds53100_53610" description="&lt;b&gt;cds53100_53610&lt;/b&gt;&lt;br&gt;ABC transporter related&lt;br&gt;Location: 53100 - 53610" style="stroke:black; fill:white; stroke-width:1; " id="subclusterblast-1_q40_0_all" points="620,40 621,40 626,35 621,30 620,30 620,40 " class="clusterblast-orf"  />
<polygon locus_tag="cds53740_54397" description="&lt;b&gt;cds53740_54397&lt;/b&gt;&lt;br&gt;ABC transporter related&lt;br&gt;Location: 53740 - 54397" style="stroke:black; fill:white; stroke-width:1; " id="subclusterblast-1_q41_0_all" points="628,40 631,40 636,35 631,30 628,30 628,40 " class="clusterblast-orf"  />
<polygon locus_tag="cds54450_54888" description="&lt;b&gt;cds54450_54888&lt;/b&gt;&lt;br&gt;ABC transporter related&lt;br&gt;Location: 54450 - 54888" style="stroke:black; fill:white; stroke-width:1; " id="subclusterblast-1_q42_0_all" points="636,40 636,40 641,35 636,30 636,30 636,40 " class="clusterblast-orf"  />
<polygon locus_tag="cds54934_55513" description="&lt;b&gt;cds54934_55513&lt;/b&gt;&lt;br&gt;DUF1794&lt;br&gt;Location: 54934 - 55513" style="stroke:black; fill:white; stroke-width:1; " id="subclusterblast-1_q43_0_all" points="642,40 644,40 649,35 644,30 642,30 642,40 " class="clusterblast-orf"  />
<polygon locus_tag="cds55585_56014" description="&lt;b&gt;cds55585_56014&lt;/b&gt;&lt;br&gt;hypothetical protein&lt;br&gt;Location: 55585 - 56014" style="stroke:black; fill:white; stroke-width:1; " id="subclusterblast-1_q44_0_all" points="650,40 650,40 655,35 650,30 650,30 650,40 " class="clusterblast-orf"  />
<polygon locus_tag="cds56065_56452" description="&lt;b&gt;cds56065_56452&lt;/b&gt;&lt;br&gt;Lactoylglutathione lyase and related lyases&lt;br&gt;Location: 56065 - 56452" style="stroke:black; fill:white; stroke-width:1; " id="subclusterblast-1_q45_0_all" points="655,40 655,40 660,35 655,30 655,30 655,40 " class="clusterblast-orf"  />
<polygon locus_tag="cds56552_56696" description="&lt;b&gt;cds56552_56696&lt;/b&gt;&lt;br&gt;hypothetical protein&lt;br&gt;Location: 56552 - 56696" style="stroke:black; fill:white; stroke-width:1; " id="subclusterblast-1_q46_0_all" points="661,40 663,35 661,30 661,40 " class="clusterblast-orf"  />
<polygon locus_tag="cds56812_57175" description="&lt;b&gt;cds56812_57175&lt;/b&gt;&lt;br&gt;Fructokinase (EC 2.7.1.4)&lt;br&gt;Location: 56812 - 57175" style="stroke:black; fill:white; stroke-width:1; " id="subclusterblast-1_q47_0_all" points="664,35 668,30 668,40 664,35 " class="clusterblast-orf"  />
<polygon locus_tag="cds57171_57642" description="&lt;b&gt;cds57171_57642&lt;/b&gt;&lt;br&gt;Fructokinase (EC 2.7.1.4)&lt;br&gt;Location: 57171 - 57642" style="stroke:black; fill:white; stroke-width:1; " id="subclusterblast-1_q48_0_all" points="668,35 673,30 674,30 674,40 673,40 668,35 " class="clusterblast-orf"  />
<polygon locus_tag="cds57687_58284" description="&lt;b&gt;cds57687_58284&lt;/b&gt;&lt;br&gt;Sorbitol dehydrogenase (EC 1.1.1.14)&lt;br&gt;Location: 57687 - 58284" style="stroke:black; fill:white; stroke-width:1; " id="subclusterblast-1_q49_0_all" points="674,35 679,30 681,30 681,40 679,40 674,35 " class="clusterblast-orf"  />
<polygon locus_tag="cds58304_58727" description="&lt;b&gt;cds58304_58727&lt;/b&gt;&lt;br&gt;Sorbitol dehydrogenase (EC 1.1.1.14)&lt;br&gt;Location: 58304 - 58727" style="stroke:black; fill:white; stroke-width:1; " id="subclusterblast-1_q50_0_all" points="681,35 686,30 686,30 686,40 686,40 681,35 " class="clusterblast-orf"  />
<polygon locus_tag="cds58723_58951" description="&lt;b&gt;cds58723_58951&lt;/b&gt;&lt;br&gt;Various polyols ABC transporter, permease protein 2&lt;br&gt;Location: 58723 - 58951" style="stroke:black; fill:white; stroke-width:1; " id="subclusterblast-1_q51_0_all" points="686,35 689,30 689,40 686,35 " class="clusterblast-orf"  />
<polygon locus_tag="cds58947_59625" description="&lt;b&gt;cds58947_59625&lt;/b&gt;&lt;br&gt;Various polyols ABC transporter, permease protein 2&lt;br&gt;Location: 58947 - 59625" style="stroke:black; fill:white; stroke-width:1; " id="subclusterblast-1_q52_0_all" points="689,35 694,30 697,30 697,40 694,40 689,35 " class="clusterblast-orf"  />
<polygon locus_tag="cds59602_60028" description="&lt;b&gt;cds59602_60028&lt;/b&gt;&lt;br&gt;Various polyols ABC transporter, permease protein 1&lt;br&gt;Location: 59602 - 60028" style="stroke:black; fill:white; stroke-width:1; " id="subclusterblast-1_q53_0_all" points="697,35 701,30 701,40 697,35 " class="clusterblast-orf"  />
<polygon locus_tag="cds60018_60564" description="&lt;b&gt;cds60018_60564&lt;/b&gt;&lt;br&gt;Various polyols ABC transporter, permease protein 1&lt;br&gt;Location: 60018 - 60564" style="stroke:black; fill:white; stroke-width:1; " id="subclusterblast-1_q54_0_all" points="701,35 706,30 708,30 708,40 706,40 701,35 " class="clusterblast-orf"  />
<polygon locus_tag="cds60560_60779" description="&lt;b&gt;cds60560_60779&lt;/b&gt;&lt;br&gt;Various polyols ABC transporter, substrate-binding protein&lt;br&gt;Location: 60560 - 60779" style="stroke:black; fill:white; stroke-width:1; " id="subclusterblast-1_q55_0_all" points="708,35 710,30 710,40 708,35 " class="clusterblast-orf"  />
<polygon locus_tag="cds60775_61441" description="&lt;b&gt;cds60775_61441&lt;/b&gt;&lt;br&gt;Various polyols ABC transporter, substrate-binding protein&lt;br&gt;Location: 60775 - 61441" style="stroke:black; fill:white; stroke-width:1; " id="subclusterblast-1_q56_0_all" points="710,35 715,30 718,30 718,40 715,40 710,35 " class="clusterblast-orf"  />
<polygon locus_tag="cds61630_61786" description="&lt;b&gt;cds61630_61786&lt;/b&gt;&lt;br&gt;Various polyols ABC transporter, substrate-binding protein&lt;br&gt;Location: 61630 - 61786" style="stroke:black; fill:white; stroke-width:1; " id="subclusterblast-1_q57_0_all" points="720,35 722,30 722,40 720,35 " class="clusterblast-orf"  />
<polygon locus_tag="cds62004_62133" description="&lt;b&gt;cds62004_62133&lt;/b&gt;&lt;br&gt;hypothetical protein&lt;br&gt;Location: 62004 - 62133" style="stroke:black; fill:white; stroke-width:1; " id="subclusterblast-1_q58_0_all" points="725,40 726,35 725,30 725,40 " class="clusterblast-orf"  />
<polygon locus_tag="cds62129_63332" description="&lt;b&gt;cds62129_63332&lt;/b&gt;&lt;br&gt;Transposase&lt;br&gt;Location: 62129 - 63332" style="stroke:black; fill:white; stroke-width:1; " id="subclusterblast-1_q59_0_all" points="726,40 735,40 740,35 735,30 726,30 726,40 " class="clusterblast-orf"  />
<polygon locus_tag="cds63453_64215" description="&lt;b&gt;cds63453_64215&lt;/b&gt;&lt;br&gt;Transcriptional regulator, DeoR family&lt;br&gt;Location: 63453 - 64215" style="stroke:black; fill:white; stroke-width:1; " id="subclusterblast-1_q60_0_all" points="742,35 747,30 750,30 750,40 747,40 742,35 " class="clusterblast-orf"  />
<polygon locus_tag="cds64636_65029" description="&lt;b&gt;cds64636_65029&lt;/b&gt;&lt;br&gt;Phenylpropionate dioxygenase and related ring-hydroxylating dioxygenases, large terminal subunit&lt;br&gt;Location: 64636 - 65029" style="stroke:black; fill:white; stroke-width:1; " id="subclusterblast-1_q61_0_all" points="755,35 760,30 760,30 760,40 760,40 755,35 " class="clusterblast-orf"  />
<polygon locus_tag="cds65025_65529" description="&lt;b&gt;cds65025_65529&lt;/b&gt;&lt;br&gt;Phenylpropionate dioxygenase and related ring-hydroxylating dioxygenases, large terminal subunit&lt;br&gt;Location: 65025 - 65529" style="stroke:black; fill:white; stroke-width:1; " id="subclusterblast-1_q62_0_all" points="760,35 765,30 766,30 766,40 765,40 760,35 " class="clusterblast-orf"  />
<polygon locus_tag="cds65686_66388" description="&lt;b&gt;cds65686_66388&lt;/b&gt;&lt;br&gt;hypothetical protein&lt;br&gt;Location: 65686 - 66388" style="stroke:black; fill:white; stroke-width:1; " id="subclusterblast-1_q63_0_all" points="768,35 773,30 776,30 776,40 773,40 768,35 " class="clusterblast-orf"  />
<polygon locus_tag="cds66466_66709" description="&lt;b&gt;cds66466_66709&lt;/b&gt;&lt;br&gt;hypothetical protein&lt;br&gt;Location: 66466 - 66709" style="stroke:black; fill:white; stroke-width:1; " id="subclusterblast-1_q64_0_all" points="777,35 780,30 780,40 777,35 " class="clusterblast-orf"  />
</g>
<g class="clusterblast-cluster" description="Y16952_c3: balhimycin beta-hydroxytyrosine (66% of genes show similarity), BHT" label="Y16952"  >
<text class="clusterblast-acc" y="70" x="5"  >
Y16952_c3: balhimycin beta-hydroxytyrosine (66% of genes show similarity), BHT</text>
<line x2="778.0" y1="85" style="stroke:grey; stroke-width:1; " x1="10" y2="85"  />
</g>
<g id="a1_000"  >
<polygon locus_tag="Y16952_3_bhp" description="&lt;b&gt;Y16952_3_bhp&lt;/b&gt;&lt;br&gt;putative hydrolase&lt;br&gt;Location: 48610 - 49464&lt;br&gt;&lt;br&gt;&lt;b&gt;BlastP hit with cds50741_50867&lt;/b&gt;&lt;br&gt;Percentage identity: 56&lt;br&gt;Percentage coverage: 100&lt;br&gt;BLAST bit score: 49&lt;br&gt;E-value: 5.94e-11" style="stroke:black; fill:#15d8d8; stroke-width:1; " id="subclusterblast-1_all_1_1_0" points="367,90 372,90 377,85 372,80 367,80 367,90 " class="clusterblast-orf"  />
</g>
<g id="a1_001"  >
<polygon locus_tag="Y16952_3_bpsD" description="&lt;b&gt;Y16952_3_bpsD&lt;/b&gt;&lt;br&gt;peptide synthetase&lt;br&gt;Location: 49530 - 51275&lt;br&gt;&lt;br&gt;&lt;b&gt;BlastP hit with cds15118_17008&lt;/b&gt;&lt;br&gt;Percentage identity: 48&lt;br&gt;Percentage coverage: 47&lt;br&gt;BLAST bit score: 210&lt;br&gt;E-value: 1.37e-61&lt;br&gt;&lt;br&gt;&lt;b&gt;BlastP hit with cds23042_23405&lt;/b&gt;&lt;br&gt;Percentage identity: 55&lt;br&gt;Percentage coverage: 70&lt;br&gt;BLAST bit score: 72&lt;br&gt;E-value: 1.72e-17&lt;br&gt;&lt;br&gt;&lt;b&gt;BlastP hit with cds30954_31257&lt;/b&gt;&lt;br&gt;Percentage identity: 53&lt;br&gt;Percentage coverage: 86&lt;br&gt;BLAST bit score: 84&lt;br&gt;E-value: 3.16e-22&lt;br&gt;&lt;br&gt;&lt;b&gt;BlastP hit with cds47593_47932&lt;/b&gt;&lt;br&gt;Percentage identity: 46&lt;br&gt;Percentage coverage: 51&lt;br&gt;BLAST bit score: 45&lt;br&gt;E-value: 4.24e-08" style="stroke:black; fill:#d81515; stroke-width:1; " id="subclusterblast-1_all_1_1_1" points="378,90 393,90 398,85 393,80 378,80 378,90 " class="clusterblast-orf"  />
</g>
<g id="a1_002"  >
<polygon locus_tag="Y16952_3_oxyD" description="&lt;b&gt;Y16952_3_oxyD&lt;/b&gt;&lt;br&gt;putative P450 monooxygenase&lt;br&gt;Location: 51289 - 52479" style="stroke:black; fill:white; stroke-width:1; " id="subclusterblast-1_all_1_1_2" points="398,90 407,90 412,85 407,80 398,80 398,90 " class="clusterblast-orf"  />
</g>
<g class="clusterblast-cluster" description="HE589771_c3: vancomycin beta-hydroxytyrosine (66% of genes show similarity), BHT" label="HE589771"  >
<text class="clusterblast-acc" y="120" x="5"  >
HE589771_c3: vancomycin beta-hydroxytyrosine (66% of genes show similarity), BHT</text>
<line x2="778.0" y1="135" style="stroke:grey; stroke-width:1; " x1="10" y2="135"  />
</g>
<g id="a1_000"  >
<polygon locus_tag="HE589771_3_vhp" description="&lt;b&gt;HE589771_3_vhp&lt;/b&gt;&lt;br&gt;vancomycin putative hydrolase&lt;br&gt;Location: 50074 - 50904&lt;br&gt;&lt;br&gt;&lt;b&gt;BlastP hit with cds50741_50867&lt;/b&gt;&lt;br&gt;Percentage identity: 48&lt;br&gt;Percentage coverage: 98&lt;br&gt;BLAST bit score: 42&lt;br&gt;E-value: 2.8e-08" style="stroke:black; fill:#15d8d8; stroke-width:1; " id="subclusterblast-1_all_1_2_0" points="367,140 372,140 377,135 372,130 367,130 367,140 " class="clusterblast-orf"  />
</g>
<g id="a1_001"  >
<polygon locus_tag="HE589771_3_vpsD" description="&lt;b&gt;HE589771_3_vpsD&lt;/b&gt;&lt;br&gt;non-ribosomal peptide synthetase D&lt;br&gt;Location: 50901 - 52664&lt;br&gt;&lt;br&gt;&lt;b&gt;BlastP hit with cds23042_23405&lt;/b&gt;&lt;br&gt;Percentage identity: 53&lt;br&gt;Percentage coverage: 79&lt;br&gt;BLAST bit score: 71&lt;br&gt;E-value: 2.67e-17&lt;br&gt;&lt;br&gt;&lt;b&gt;BlastP hit with cds30954_31257&lt;/b&gt;&lt;br&gt;Percentage identity: 51&lt;br&gt;Percentage coverage: 86&lt;br&gt;BLAST bit score: 78&lt;br&gt;E-value: 6.13e-20&lt;br&gt;&lt;br&gt;&lt;b&gt;BlastP hit with cds34164_36450&lt;/b&gt;&lt;br&gt;Percentage identity: 46&lt;br&gt;Percentage coverage: 57&lt;br&gt;BLAST bit score: 298&lt;br&gt;E-value: 1.94e-93" style="stroke:black; fill:#d81515; stroke-width:1; " id="subclusterblast-1_all_1_2_1" points="377,140 393,140 398,135 393,130 377,130 377,140 " class="clusterblast-orf"  />
</g>
<g id="a1_002"  >
<polygon locus_tag="HE589771_3_oxyD" description="&lt;b&gt;HE589771_3_oxyD&lt;/b&gt;&lt;br&gt;P450 monooxygenase D&lt;br&gt;Location: 52679 - 53869" style="stroke:black; fill:white; stroke-width:1; " id="subclusterblast-1_all_1_2_2" points="398,140 407,140 412,135 407,130 398,130 398,140 " class="clusterblast-orf"  />
</g>
</svg>
