<svg preserveAspectRatio="none" x="0" xmlns="http://www.w3.org/2000/svg" version="1.1" xmlns:xlink="http://www.w3.org/1999/xlink" viewBox="0 0 800 230" width="800" height="230" y="0"  >
<g label="Query sequence" class="clusterblast-cluster"  >
<text x="5" y="20" class="clusterblast-acc"  >
Query sequence</text>
<line style="stroke:grey; stroke-width:1; " y1="35" x2="778.0" y2="35" x1="10"  />
<polygon id="dummy-1_q0_0_all" points="305,40 309,35 305,30 305,40 " style="fill:white; stroke:black; stroke-width:1; " description="&lt;b&gt;cds1_190&lt;/b&gt;&lt;br&gt;hypothetical protein&lt;br&gt;Location: 1 - 190" class="clusterblast-orf" locus_tag="cds1_190"  />
<polygon id="dummy-1_q1_0_all" points="309,40 327,40 332,35 327,30 309,30 309,40 " style="fill:#d81515; stroke:black; stroke-width:1; " description="&lt;b&gt;cds186_1413&lt;/b&gt;&lt;br&gt;Uncharacterized MFS-type transporter&lt;br&gt;Location: 186 - 1413" class="clusterblast-orf" locus_tag="cds186_1413"  />
<polygon id="dummy-1_q2_0_all" points="333,40 342,40 347,35 342,30 333,30 333,40 " style="fill:#4dd815; stroke:black; stroke-width:1; " description="&lt;b&gt;cds1458_2208&lt;/b&gt;&lt;br&gt;hypothetical protein&lt;br&gt;Location: 1458 - 2208" class="clusterblast-orf" locus_tag="cds1458_2208"  />
<polygon id="dummy-1_q3_0_all" points="349,40 372,40 377,35 372,30 349,30 349,40 " style="fill:#1585d8; stroke:black; stroke-width:1; " description="&lt;b&gt;cds2276_3734&lt;/b&gt;&lt;br&gt;Putative oxidoreductase&lt;br&gt;Location: 2276 - 3734" class="clusterblast-orf" locus_tag="cds2276_3734"  />
<polygon id="dummy-1_q4_0_all" points="379,40 382,40 387,35 382,30 379,30 379,40 " style="fill:#d815bc; stroke:black; stroke-width:1; " description="&lt;b&gt;cds3885_4287&lt;/b&gt;&lt;br&gt;RidA/YER057c/UK114 superfamily protein&lt;br&gt;Location: 3885 - 4287" class="clusterblast-orf" locus_tag="cds3885_4287"  />
<polygon id="dummy-1_q5_0_all" points="392,35 397,30 402,30 402,40 397,40 392,35 " style="fill:#d8bc15; stroke:black; stroke-width:1; " description="&lt;b&gt;cds4536_5061&lt;/b&gt;&lt;br&gt;Phosphopantothenoylcysteine decarboxylase (EC 4.1.1.36) / Phosphopantothenoylcysteine synthetase (EC 6.3.2.5)&lt;br&gt;Location: 4536 - 5061" class="clusterblast-orf" locus_tag="cds4536_5061"  />
<polygon id="dummy-1_q6_0_all" points="402,35 407,30 408,30 408,40 407,40 402,35 " style="fill:white; stroke:black; stroke-width:1; " description="&lt;b&gt;cds5057_5375&lt;/b&gt;&lt;br&gt;hypothetical protein&lt;br&gt;Location: 5057 - 5375" class="clusterblast-orf" locus_tag="cds5057_5375"  />
<polygon id="dummy-1_q7_0_all" points="409,40 466,40 471,35 466,30 409,30 409,40 " style="fill:#15d885; stroke:black; stroke-width:1; " description="&lt;b&gt;cds5426_8705&lt;/b&gt;&lt;br&gt;Polyketide synthase modules and related proteins&lt;br&gt;Location: 5426 - 8705" class="clusterblast-orf" locus_tag="cds5426_8705"  />
<polygon id="dummy-1_q8_0_all" points="471,40 474,35 471,30 471,40 " style="fill:#4d15d8; stroke:black; stroke-width:1; " description="&lt;b&gt;cds8701_8842&lt;/b&gt;&lt;br&gt;Choline dehydrogenase (EC 1.1.99.1)&lt;br&gt;Location: 8701 - 8842" class="clusterblast-orf" locus_tag="cds8701_8842"  />
</g>
<g label="NZ_CP045740" description="NZ_CP045740 (2042812-2083703): Streptomyces sp. SUK 48 chromosome, complete g... (19% of genes show similarity), NRPS" class="clusterblast-cluster"  >
<text x="5" y="70" class="clusterblast-acc"  >
<a xlink:href="https://antismash-db.secondarymetabolites.org/area.html?record=NZ_CP045740&amp;start=2042812&amp;end=2083703" target="_blank">NZ_CP045740 (2042812-2083703)</a>: Streptomyces sp. SUK 48 chromosome, complete g... (19% of genes show similarity), NRPS</text>
<line style="stroke:grey; stroke-width:1; " y1="85" x2="778.0" y2="85" x1="10"  />
</g>
<g id="a1_000"  >
<polygon id="dummy-1_h1_2_0" points="0,90 14,90 19,85 14,80 0,80 0,90 " style="fill:white; stroke:black; stroke-width:1; " description="&lt;b&gt;GHR20_RS08805&lt;/b&gt;&lt;br&gt;phytanoyl-CoA dioxygenase family protein&lt;br&gt;Location: 2083703 - 2082672" class="clusterblast-orf" locus_tag="GHR20_RS08805"  />
</g>
<g id="a1_001"  >
<polygon id="dummy-1_h1_2_1" points="19,90 39,90 44,85 39,80 19,80 19,90 " style="fill:white; stroke:black; stroke-width:1; " description="&lt;b&gt;GHR20_RS08800&lt;/b&gt;&lt;br&gt;hypothetical protein&lt;br&gt;Location: 2082675 - 2081389" class="clusterblast-orf" locus_tag="GHR20_RS08800"  />
</g>
<g id="a1_002"  >
<polygon id="dummy-1_h1_2_2" points="44,90 62,90 67,85 62,80 44,80 44,90 " style="fill:white; stroke:black; stroke-width:1; " description="&lt;b&gt;GHR20_RS08795&lt;/b&gt;&lt;br&gt;type III PLP-dependent enzyme&lt;br&gt;Location: 2081392 - 2080139" class="clusterblast-orf" locus_tag="GHR20_RS08795"  />
</g>
<g id="a1_003"  >
<polygon id="dummy-1_h1_2_3" points="68,90 72,90 77,85 72,80 68,80 68,90 " style="fill:white; stroke:black; stroke-width:1; " description="&lt;b&gt;GHR20_RS08790&lt;/b&gt;&lt;br&gt;GNAT family N-acetyltransferase&lt;br&gt;Location: 2080137 - 2079619" class="clusterblast-orf" locus_tag="GHR20_RS08790"  />
</g>
<g id="a1_004"  >
<polygon id="dummy-1_h1_2_4" points="77,90 96,90 101,85 96,80 77,80 77,90 " style="fill:white; stroke:black; stroke-width:1; " description="&lt;b&gt;GHR20_RS08785&lt;/b&gt;&lt;br&gt;MFS transporter&lt;br&gt;Location: 2079619 - 2078396" class="clusterblast-orf" locus_tag="GHR20_RS08785"  />
</g>
<g id="a1_005"  >
<polygon id="dummy-1_h1_2_5" points="101,90 104,85 101,80 101,90 " style="fill:white; stroke:black; stroke-width:1; " description="&lt;b&gt;GHR20_RS08780&lt;/b&gt;&lt;br&gt;hypothetical protein&lt;br&gt;Location: 2078399 - 2078229" class="clusterblast-orf" locus_tag="GHR20_RS08780"  />
</g>
<g id="a1_006"  >
<polygon id="dummy-1_h1_2_6" points="103,85 108,80 127,80 127,90 108,90 103,85 " style="fill:white; stroke:black; stroke-width:1; " description="&lt;b&gt;GHR20_RS08775&lt;/b&gt;&lt;br&gt;hypothetical protein&lt;br&gt;Location: 2078254 - 2077007" class="clusterblast-orf" locus_tag="GHR20_RS08775"  />
</g>
<g id="a1_007"  >
<polygon id="dummy-1_h1_2_7" points="126,85 131,80 157,80 157,90 131,90 126,85 " style="fill:white; stroke:black; stroke-width:1; " description="&lt;b&gt;GHR20_RS08770&lt;/b&gt;&lt;br&gt;AAA family ATPase&lt;br&gt;Location: 2077061 - 2075421" class="clusterblast-orf" locus_tag="GHR20_RS08770"  />
</g>
<g id="a1_008"  >
<polygon id="dummy-1_h1_2_8" points="168,90 186,90 191,85 186,80 168,80 168,90 " style="fill:white; stroke:black; stroke-width:1; " description="&lt;b&gt;GHR20_RS08765&lt;/b&gt;&lt;br&gt;hypothetical protein&lt;br&gt;Location: 2074845 - 2073664" class="clusterblast-orf" locus_tag="GHR20_RS08765"  />
</g>
<g id="a1_009"  >
<polygon id="dummy-1_h1_2_9" points="192,90 205,90 210,85 205,80 192,80 192,90 " style="fill:white; stroke:black; stroke-width:1; " description="&lt;b&gt;GHR20_RS08760&lt;/b&gt;&lt;br&gt;methyltransferase domain-containing protein&lt;br&gt;Location: 2073604 - 2072681" class="clusterblast-orf" locus_tag="GHR20_RS08760"  />
</g>
<g id="a1_0010"  >
<polygon id="dummy-1_h1_2_10" points="215,90 227,90 232,85 227,80 215,80 215,90 " style="fill:white; stroke:black; stroke-width:1; " description="&lt;b&gt;GHR20_RS08755&lt;/b&gt;&lt;br&gt;hypothetical protein&lt;br&gt;Location: 2072396 - 2071524" class="clusterblast-orf" locus_tag="GHR20_RS08755"  />
</g>
<g id="a1_0011"  >
<polygon id="dummy-1_h1_2_11" points="233,90 237,90 242,85 237,80 233,80 233,90 " style="fill:white; stroke:black; stroke-width:1; " description="&lt;b&gt;GHR20_RS08750&lt;/b&gt;&lt;br&gt;oxidoreductase&lt;br&gt;Location: 2071453 - 2070989" class="clusterblast-orf" locus_tag="GHR20_RS08750"  />
</g>
<g id="a1_0012"  >
<polygon id="dummy-1_h1_2_12" points="248,90 266,90 271,85 266,80 248,80 248,90 " style="fill:#d81515; stroke:black; stroke-width:1; " description="&lt;b&gt;GHR20_RS08745&lt;/b&gt;&lt;br&gt;MFS transporter&lt;br&gt;Location: 2070670 - 2069447&lt;br&gt;&lt;br&gt;&lt;b&gt;BlastP hit with cds186_1413&lt;/b&gt;&lt;br&gt;Percentage identity: 81&lt;br&gt;Percentage coverage: 100&lt;br&gt;BLAST bit score: 608&lt;br&gt;E-value: 3.9e-172" class="clusterblast-orf" locus_tag="GHR20_RS08745"  />
</g>
<g id="a1_0013"  >
<polygon id="dummy-1_h1_2_13" points="275,90 284,90 289,85 284,80 275,80 275,90 " style="fill:#4dd815; stroke:black; stroke-width:1; " description="&lt;b&gt;GHR20_RS08740&lt;/b&gt;&lt;br&gt;methyltransferase&lt;br&gt;Location: 2069281 - 2068532&lt;br&gt;&lt;br&gt;&lt;b&gt;BlastP hit with cds1458_2208&lt;/b&gt;&lt;br&gt;Percentage identity: 74&lt;br&gt;Percentage coverage: 100&lt;br&gt;BLAST bit score: 378&lt;br&gt;E-value: 5.2e-103" class="clusterblast-orf" locus_tag="GHR20_RS08740"  />
</g>
<g id="a1_0014"  >
<polygon id="dummy-1_h1_2_14" points="291,90 314,90 319,85 314,80 291,80 291,90 " style="fill:#1585d8; stroke:black; stroke-width:1; " description="&lt;b&gt;GHR20_RS08735&lt;/b&gt;&lt;br&gt;FAD-dependent oxidoreductase&lt;br&gt;Location: 2068402 - 2066945&lt;br&gt;&lt;br&gt;&lt;b&gt;BlastP hit with cds2276_3734&lt;/b&gt;&lt;br&gt;Percentage identity: 82&lt;br&gt;Percentage coverage: 100&lt;br&gt;BLAST bit score: 808&lt;br&gt;E-value: 4e-232" class="clusterblast-orf" locus_tag="GHR20_RS08735"  />
</g>
<g id="a1_0015"  >
<polygon id="dummy-1_h1_2_15" points="321,90 324,90 329,85 324,80 321,80 321,90 " style="fill:#d815bc; stroke:black; stroke-width:1; " description="&lt;b&gt;GHR20_RS08730&lt;/b&gt;&lt;br&gt;RidA family protein&lt;br&gt;Location: 2066826 - 2066419&lt;br&gt;&lt;br&gt;&lt;b&gt;BlastP hit with cds3885_4287&lt;/b&gt;&lt;br&gt;Percentage identity: 86&lt;br&gt;Percentage coverage: 98&lt;br&gt;BLAST bit score: 226&lt;br&gt;E-value: 1.4e-57" class="clusterblast-orf" locus_tag="GHR20_RS08730"  />
</g>
<g id="a1_0016"  >
<polygon id="dummy-1_h1_2_16" points="332,85 337,80 343,80 343,90 337,90 332,85 " style="fill:#d8bc15; stroke:black; stroke-width:1; " description="&lt;b&gt;GHR20_RS08725&lt;/b&gt;&lt;br&gt;flavoprotein&lt;br&gt;Location: 2066293 - 2065718&lt;br&gt;&lt;br&gt;&lt;b&gt;BlastP hit with cds4536_5061&lt;/b&gt;&lt;br&gt;Percentage identity: 81&lt;br&gt;Percentage coverage: 96&lt;br&gt;BLAST bit score: 286&lt;br&gt;E-value: 1.5e-75" class="clusterblast-orf" locus_tag="GHR20_RS08725"  />
</g>
<g id="a1_0017"  >
<polygon id="dummy-1_h1_2_17" points="347,90 404,90 409,85 404,80 347,80 347,90 " style="fill:#15d885; stroke:black; stroke-width:1; " description="&lt;b&gt;GHR20_RS08720&lt;/b&gt;&lt;br&gt;amino acid adenylation domain-containing protein&lt;br&gt;Location: 2065496 - 2062224&lt;br&gt;&lt;br&gt;&lt;b&gt;BlastP hit with cds5426_8705&lt;/b&gt;&lt;br&gt;Percentage identity: 80&lt;br&gt;Percentage coverage: 99&lt;br&gt;BLAST bit score: 1744&lt;br&gt;E-value: 0.0" class="clusterblast-orf" locus_tag="GHR20_RS08720"  />
</g>
<g id="a1_0018"  >
<polygon id="dummy-1_h1_2_18" points="409,90 436,90 441,85 436,80 409,80 409,90 " style="fill:#4d15d8; stroke:black; stroke-width:1; " description="&lt;b&gt;GHR20_RS08715&lt;/b&gt;&lt;br&gt;glucose-methanol-choline oxidoreductase&lt;br&gt;Location: 2062227 - 2060563&lt;br&gt;&lt;br&gt;&lt;b&gt;BlastP hit with cds8701_8842&lt;/b&gt;&lt;br&gt;Percentage identity: 82&lt;br&gt;Percentage coverage: 106&lt;br&gt;BLAST bit score: 75&lt;br&gt;E-value: 1.4e-12" class="clusterblast-orf" locus_tag="GHR20_RS08715"  />
</g>
<g id="a1_0019"  >
<polygon id="dummy-1_h1_2_19" points="458,90 467,90 472,85 467,80 458,80 458,90 " style="fill:white; stroke:black; stroke-width:1; " description="&lt;b&gt;GHR20_RS08710&lt;/b&gt;&lt;br&gt;alpha/beta fold hydrolase&lt;br&gt;Location: 2059649 - 2058924" class="clusterblast-orf" locus_tag="GHR20_RS08710"  />
</g>
<g id="a1_0020"  >
<polygon id="dummy-1_h1_2_20" points="472,90 489,90 494,85 489,80 472,80 472,90 " style="fill:white; stroke:black; stroke-width:1; " description="&lt;b&gt;GHR20_RS08705&lt;/b&gt;&lt;br&gt;acyl-CoA dehydrogenase&lt;br&gt;Location: 2058919 - 2057777" class="clusterblast-orf" locus_tag="GHR20_RS08705"  />
</g>
<g id="a1_0021"  >
<polygon id="dummy-1_h1_2_21" points="496,90 502,90 507,85 502,80 496,80 496,90 " style="fill:white; stroke:black; stroke-width:1; " description="&lt;b&gt;GHR20_RS08700&lt;/b&gt;&lt;br&gt;helix-turn-helix domain-containing protein&lt;br&gt;Location: 2057688 - 2057086" class="clusterblast-orf" locus_tag="GHR20_RS08700"  />
</g>
<g id="a1_0022"  >
<polygon id="dummy-1_h1_2_22" points="509,85 514,80 528,80 528,90 514,90 509,85 " style="fill:white; stroke:black; stroke-width:1; " description="&lt;b&gt;GHR20_RS08695&lt;/b&gt;&lt;br&gt;FAD-binding protein&lt;br&gt;Location: 2056995 - 2056021" class="clusterblast-orf" locus_tag="GHR20_RS08695"  />
</g>
<g id="a1_0023"  >
<polygon id="dummy-1_h1_2_23" points="530,90 530,90 535,85 530,80 530,80 530,90 " style="fill:white; stroke:black; stroke-width:1; " description="&lt;b&gt;GHR20_RS08690&lt;/b&gt;&lt;br&gt;hypothetical protein&lt;br&gt;Location: 2055899 - 2055627" class="clusterblast-orf" locus_tag="GHR20_RS08690"  />
</g>
<g id="a1_0024"  >
<polygon id="dummy-1_h1_2_24" points="535,85 540,80 542,80 542,90 540,90 535,85 " style="fill:white; stroke:black; stroke-width:1; " description="&lt;b&gt;GHR20_RS08685&lt;/b&gt;&lt;br&gt;monooxygenase&lt;br&gt;Location: 2055616 - 2055284" class="clusterblast-orf" locus_tag="GHR20_RS08685"  />
</g>
<g id="a1_0025"  >
<polygon id="dummy-1_h1_2_25" points="545,85 550,80 574,80 574,90 550,90 545,85 " style="fill:white; stroke:black; stroke-width:1; " description="&lt;b&gt;GHR20_RS08680&lt;/b&gt;&lt;br&gt;UDP-N-acetylglucosamine 1-carboxyvinyltransferase&lt;br&gt;Location: 2055094 - 2053565" class="clusterblast-orf" locus_tag="GHR20_RS08680"  />
</g>
<g id="a1_0026"  >
<polygon id="dummy-1_h1_2_26" points="577,85 582,80 586,80 586,90 582,90 577,85 " style="fill:white; stroke:black; stroke-width:1; " description="&lt;b&gt;GHR20_RS08675&lt;/b&gt;&lt;br&gt;AsnC family transcriptional regulator&lt;br&gt;Location: 2053427 - 2052957" class="clusterblast-orf" locus_tag="GHR20_RS08675"  />
</g>
<g id="a1_0027"  >
<polygon id="dummy-1_h1_2_27" points="589,90 593,90 598,85 593,80 589,80 589,90 " style="fill:white; stroke:black; stroke-width:1; " description="&lt;b&gt;GHR20_RS08670&lt;/b&gt;&lt;br&gt;rhodanese-like domain-containing protein&lt;br&gt;Location: 2052802 - 2052326" class="clusterblast-orf" locus_tag="GHR20_RS08670"  />
</g>
<g id="a1_0028"  >
<polygon id="dummy-1_h1_2_28" points="599,85 604,80 617,80 617,90 604,90 599,85 " style="fill:white; stroke:black; stroke-width:1; " description="&lt;b&gt;GHR20_RS08665&lt;/b&gt;&lt;br&gt;DUF4232 domain-containing protein&lt;br&gt;Location: 2052257 - 2051316" class="clusterblast-orf" locus_tag="GHR20_RS08665"  />
</g>
<g id="a1_0029"  >
<polygon id="dummy-1_h1_2_29" points="619,85 624,80 627,80 627,90 624,90 619,85 " style="fill:white; stroke:black; stroke-width:1; " description="&lt;b&gt;GHR20_RS08660&lt;/b&gt;&lt;br&gt;pantetheine-phosphate adenylyltransferase&lt;br&gt;Location: 2051241 - 2050816" class="clusterblast-orf" locus_tag="GHR20_RS08660"  />
</g>
<g id="a1_0030"  >
<polygon id="dummy-1_h1_2_30" points="633,90 680,90 685,85 680,80 633,80 633,90 " style="fill:white; stroke:black; stroke-width:1; " description="&lt;b&gt;GHR20_RS08655&lt;/b&gt;&lt;br&gt;aconitate hydratase AcnA&lt;br&gt;Location: 2050471 - 2047754" class="clusterblast-orf" locus_tag="GHR20_RS08655"  />
</g>
<g id="a1_0031"  >
<polygon id="dummy-1_h1_2_31" points="688,85 693,80 740,80 740,90 693,90 688,85 " style="fill:white; stroke:black; stroke-width:1; " description="&lt;b&gt;GHR20_RS08650&lt;/b&gt;&lt;br&gt;SpoIIE family protein phosphatase&lt;br&gt;Location: 2047601 - 2044881" class="clusterblast-orf" locus_tag="GHR20_RS08650"  />
</g>
<g id="a1_0032"  >
<polygon id="dummy-1_h1_2_32" points="741,85 746,80 751,80 751,90 746,90 741,85 " style="fill:white; stroke:black; stroke-width:1; " description="&lt;b&gt;GHR20_RS08645&lt;/b&gt;&lt;br&gt;GNAT family N-acetyltransferase&lt;br&gt;Location: 2044816 - 2044310" class="clusterblast-orf" locus_tag="GHR20_RS08645"  />
</g>
<g id="a1_0033"  >
<polygon id="dummy-1_h1_2_33" points="752,85 757,80 769,80 769,90 757,90 752,85 " style="fill:white; stroke:black; stroke-width:1; " description="&lt;b&gt;GHR20_RS08640&lt;/b&gt;&lt;br&gt;hypothetical protein&lt;br&gt;Location: 2044266 - 2043364" class="clusterblast-orf" locus_tag="GHR20_RS08640"  />
</g>
<g id="a1_0034"  >
<polygon id="dummy-1_h1_2_34" points="769,85 774,80 774,80 774,90 774,90 769,85 " style="fill:white; stroke:black; stroke-width:1; " description="&lt;b&gt;GHR20_RS08635&lt;/b&gt;&lt;br&gt;DUF397 domain-containing protein&lt;br&gt;Location: 2043367 - 2043125" class="clusterblast-orf" locus_tag="GHR20_RS08635"  />
</g>
<g id="a1_0035"  >
<polygon id="dummy-1_h1_2_35" points="775,85 780,80 780,80 780,90 780,90 775,85 " style="fill:white; stroke:black; stroke-width:1; " description="&lt;b&gt;GHR20_RS08630&lt;/b&gt;&lt;br&gt;DUF397 domain-containing protein&lt;br&gt;Location: 2043058 - 2042813" class="clusterblast-orf" locus_tag="GHR20_RS08630"  />
</g>
</svg>
