<svg preserveAspectRatio="none" x="0" xmlns="http://www.w3.org/2000/svg" version="1.1" xmlns:xlink="http://www.w3.org/1999/xlink" viewBox="0 0 800 230" width="800" height="230" y="0"  >
<g label="Query sequence" class="clusterblast-cluster"  >
<text x="5" y="20" class="clusterblast-acc"  >
Query sequence</text>
<line style="stroke:grey; stroke-width:1; " y1="35" x2="778.0" y2="35" x1="10"  />
<polygon id="dummy-1_q0_0_all" points="285,40 383,40 388,35 383,30 285,30 285,40 " style="fill:#d81515; stroke:black; stroke-width:1; " description="&lt;b&gt;cds0_1155&lt;/b&gt;&lt;br&gt;hypothetical protein&lt;br&gt;Location: 0 - 1155" class="clusterblast-orf" locus_tag="cds0_1155"  />
<polygon id="dummy-1_q1_0_all" points="393,35 398,30 470,30 470,40 398,40 393,35 " style="fill:#15d815; stroke:black; stroke-width:1; " description="&lt;b&gt;cds1208_2069&lt;/b&gt;&lt;br&gt;putative tyrosinase&lt;br&gt;Location: 1208 - 2069" class="clusterblast-orf" locus_tag="cds1208_2069"  />
<polygon id="dummy-1_q2_0_all" points="472,35 477,30 496,30 496,40 477,40 472,35 " style="fill:#1515d8; stroke:black; stroke-width:1; " description="&lt;b&gt;cds2088_2358&lt;/b&gt;&lt;br&gt;Tyrosinase cofactor&lt;br&gt;Location: 2088 - 2358" class="clusterblast-orf" locus_tag="cds2088_2358"  />
</g>
<g label="NZ_CP034279" description="NZ_CP034279 (761169-769891): Streptomyces ficellus strain NRRL 8067 chromosom... (28% of genes show similarity), melanin" class="clusterblast-cluster"  >
<text x="5" y="70" class="clusterblast-acc"  >
<a xlink:href="https://antismash-db.secondarymetabolites.org/area.html?record=NZ_CP034279&amp;start=761169&amp;end=769891" target="_blank">NZ_CP034279 (761169-769891)</a>: Streptomyces ficellus strain NRRL 8067 chromosom... (28% of genes show similarity), melanin</text>
<line style="stroke:grey; stroke-width:1; " y1="85" x2="778.0" y2="85" x1="10"  />
</g>
<g id="a1_000"  >
<polygon id="dummy-1_h1_4_0" points="0,85 5,80 218,80 218,90 5,90 0,85 " style="fill:white; stroke:black; stroke-width:1; " description="&lt;b&gt;EIZ62_RS03285&lt;/b&gt;&lt;br&gt;tetratricopeptide repeat protein&lt;br&gt;Location: 761170 - 763608" class="clusterblast-orf" locus_tag="EIZ62_RS03285"  />
</g>
<g id="a1_001"  >
<polygon id="dummy-1_h1_4_1" points="249,85 254,80 323,80 323,90 254,90 249,85 " style="fill:#15d815; stroke:black; stroke-width:1; " description="&lt;b&gt;EIZ62_RS03290&lt;/b&gt;&lt;br&gt;tyrosinase family protein&lt;br&gt;Location: 763959 - 764786&lt;br&gt;&lt;br&gt;&lt;b&gt;BlastP hit with cds1208_2069&lt;/b&gt;&lt;br&gt;Percentage identity: 84&lt;br&gt;Percentage coverage: 94&lt;br&gt;BLAST bit score: 507&lt;br&gt;E-value: 8.6e-142" class="clusterblast-orf" locus_tag="EIZ62_RS03290"  />
</g>
<g id="a1_002"  >
<polygon id="dummy-1_h1_4_2" points="325,85 330,80 360,80 360,90 330,90 325,85 " style="fill:#1515d8; stroke:black; stroke-width:1; " description="&lt;b&gt;EIZ62_RS03295&lt;/b&gt;&lt;br&gt;tyrosinase&lt;br&gt;Location: 764810 - 765205&lt;br&gt;&lt;br&gt;&lt;b&gt;BlastP hit with cds2088_2358&lt;/b&gt;&lt;br&gt;Percentage identity: 66&lt;br&gt;Percentage coverage: 99&lt;br&gt;BLAST bit score: 104&lt;br&gt;E-value: 6.8e-21" class="clusterblast-orf" locus_tag="EIZ62_RS03295"  />
</g>
<g id="a1_003"  >
<polygon id="dummy-1_h1_4_3" points="387,85 392,80 454,80 454,90 392,90 387,85 " style="fill:white; stroke:black; stroke-width:1; " description="&lt;b&gt;EIZ62_RS03300&lt;/b&gt;&lt;br&gt;succinate dehydrogenase/fumarate reductase iron-sulfur subunit&lt;br&gt;Location: 765498 - 766250" class="clusterblast-orf" locus_tag="EIZ62_RS03300"  />
</g>
<g id="a1_004"  >
<polygon id="dummy-1_h1_4_4" points="454,85 459,80 628,80 628,90 459,90 454,85 " style="fill:white; stroke:black; stroke-width:1; " description="&lt;b&gt;EIZ62_RS03305&lt;/b&gt;&lt;br&gt;fumarate reductase/succinate dehydrogenase flavoprotein subunit&lt;br&gt;Location: 766247 - 768193" class="clusterblast-orf" locus_tag="EIZ62_RS03305"  />
</g>
<g id="a1_005"  >
<polygon id="dummy-1_h1_4_5" points="628,85 633,80 691,80 691,90 633,90 628,85 " style="fill:white; stroke:black; stroke-width:1; " description="&lt;b&gt;EIZ62_RS03310&lt;/b&gt;&lt;br&gt;succinate dehydrogenase&lt;br&gt;Location: 768195 - 768899" class="clusterblast-orf" locus_tag="EIZ62_RS03310"  />
</g>
<g id="a1_006"  >
<polygon id="dummy-1_h1_4_6" points="699,90 774,90 779,85 774,80 699,80 699,90 " style="fill:white; stroke:black; stroke-width:1; " description="&lt;b&gt;EIZ62_RS03315&lt;/b&gt;&lt;br&gt;LysR family transcriptional regulator&lt;br&gt;Location: 768995 - 769891" class="clusterblast-orf" locus_tag="EIZ62_RS03315"  />
</g>
</svg>
