<svg preserveAspectRatio="none" x="0" xmlns="http://www.w3.org/2000/svg" version="1.1" xmlns:xlink="http://www.w3.org/1999/xlink" viewBox="0 0 800 230" width="800" height="230" y="0"  >
<g label="Query sequence" class="clusterblast-cluster"  >
<text x="5" y="20" class="clusterblast-acc"  >
Query sequence</text>
<line style="stroke:grey; stroke-width:1; " y1="35" x2="778.0" y2="35" x1="10"  />
<polygon id="dummy-1_q0_0_all" points="344,35 349,30 358,30 358,40 349,40 344,35 " style="fill:#d81515; stroke:black; stroke-width:1; " description="&lt;b&gt;cds2_1229&lt;/b&gt;&lt;br&gt;Siderophore biosynthesis non-ribosomal peptide synthetase modules&lt;br&gt;Location: 2 - 1229" class="clusterblast-orf" locus_tag="cds2_1229"  />
<polygon id="dummy-1_q1_0_all" points="358,35 363,30 367,30 367,40 363,40 358,35 " style="fill:#77d815; stroke:black; stroke-width:1; " description="&lt;b&gt;cds1230_2016&lt;/b&gt;&lt;br&gt;ABC-type Fe3+-siderophore transport system, ATPase component&lt;br&gt;Location: 1230 - 2016" class="clusterblast-orf" locus_tag="cds1230_2016"  />
<polygon id="dummy-1_q2_0_all" points="367,35 372,30 378,30 378,40 372,40 367,35 " style="fill:#15d8d8; stroke:black; stroke-width:1; " description="&lt;b&gt;cds2012_3008&lt;/b&gt;&lt;br&gt;ABC-type Fe3+-siderophore transport system, permease 2 component&lt;br&gt;Location: 2012 - 3008" class="clusterblast-orf" locus_tag="cds2012_3008"  />
<polygon id="dummy-1_q3_0_all" points="378,35 383,30 390,30 390,40 383,40 378,35 " style="fill:#15d8d8; stroke:black; stroke-width:1; " description="&lt;b&gt;cds3004_4024&lt;/b&gt;&lt;br&gt;ABC-type Fe3+-siderophore transport system, permease component&lt;br&gt;Location: 3004 - 4024" class="clusterblast-orf" locus_tag="cds3004_4024"  />
<polygon id="dummy-1_q4_0_all" points="390,35 395,30 401,30 401,40 395,40 390,35 " style="fill:#7715d8; stroke:black; stroke-width:1; " description="&lt;b&gt;cds4020_5028&lt;/b&gt;&lt;br&gt;ABC Fe(3+) transporter, substrate binding component&lt;br&gt;Location: 4020 - 5028" class="clusterblast-orf" locus_tag="cds4020_5028"  />
<polygon id="dummy-1_q5_0_all" points="402,35 407,30 411,30 411,40 407,40 402,35 " style="fill:#d8a715; stroke:black; stroke-width:1; " description="&lt;b&gt;cds5097_5946&lt;/b&gt;&lt;br&gt;Iron-chelator utilization protein&lt;br&gt;Location: 5097 - 5946" class="clusterblast-orf" locus_tag="cds5097_5946"  />
<polygon id="dummy-1_q6_0_all" points="411,35 414,30 414,40 411,35 " style="fill:#15d846; stroke:black; stroke-width:1; " description="&lt;b&gt;cds5942_6182&lt;/b&gt;&lt;br&gt;Isochorismatase of siderophore biosynthesis&lt;br&gt;Location: 5942 - 6182" class="clusterblast-orf" locus_tag="cds5942_6182"  />
<polygon id="dummy-1_q7_0_all" points="414,35 419,30 422,30 422,40 419,40 414,35 " style="fill:#1546d8; stroke:black; stroke-width:1; " description="&lt;b&gt;cds6178_6847&lt;/b&gt;&lt;br&gt;Isochorismatase (EC 3.3.2.1) of siderophore biosynthesis&lt;br&gt;Location: 6178 - 6847" class="clusterblast-orf" locus_tag="cds6178_6847"  />
<polygon id="dummy-1_q8_0_all" points="422,35 427,30 435,30 435,40 427,40 422,35 " style="fill:#d815a7; stroke:black; stroke-width:1; " description="&lt;b&gt;cds6849_8055&lt;/b&gt;&lt;br&gt;2,3-dihydroxybenzoate-AMP ligase (EC 2.7.7.58) of siderophore biosynthesis&lt;br&gt;Location: 6849 - 8055" class="clusterblast-orf" locus_tag="cds6849_8055"  />
</g>
<g label="NZ_CP008953" description="NZ_CP008953 (4531236-4599825): Amycolatopsis japonica strain DSM 44213 chromo... (15% of genes show similarity), NRPS" class="clusterblast-cluster"  >
<text x="5" y="70" class="clusterblast-acc"  >
<a xlink:href="https://antismash-db.secondarymetabolites.org/area.html?record=NZ_CP008953&amp;start=4531236&amp;end=4599825" target="_blank">NZ_CP008953 (4531236-4599825)</a>: Amycolatopsis japonica strain DSM 44213 chromo... (15% of genes show similarity), NRPS</text>
<line style="stroke:grey; stroke-width:1; " y1="85" x2="778.0" y2="85" x1="10"  />
</g>
<g id="a1_000"  >
<polygon id="dummy-1_h1_5_0" points="0,90 5,90 10,85 5,80 0,80 0,90 " style="fill:white; stroke:black; stroke-width:1; " description="&lt;b&gt;AJAP_RS21045&lt;/b&gt;&lt;br&gt;peptidase&lt;br&gt;Location: 4531237 - 4532136" class="clusterblast-orf" locus_tag="AJAP_RS21045"  />
</g>
<g id="a1_001"  >
<polygon id="dummy-1_h1_5_1" points="9,85 14,80 14,80 14,90 14,90 9,85 " style="fill:white; stroke:black; stroke-width:1; " description="&lt;b&gt;AJAP_RS21050&lt;/b&gt;&lt;br&gt;VOC family protein&lt;br&gt;Location: 4532114 - 4532497" class="clusterblast-orf" locus_tag="AJAP_RS21050"  />
</g>
<g id="a1_002"  >
<polygon id="dummy-1_h1_5_2" points="18,85 23,80 37,80 37,90 23,90 18,85 " style="fill:white; stroke:black; stroke-width:1; " description="&lt;b&gt;AJAP_RS21055&lt;/b&gt;&lt;br&gt;choice-of-anchor A family protein&lt;br&gt;Location: 4532866 - 4534509" class="clusterblast-orf" locus_tag="AJAP_RS21055"  />
</g>
<g id="a1_003"  >
<polygon id="dummy-1_h1_5_3" points="39,90 45,90 50,85 45,80 39,80 39,90 " style="fill:white; stroke:black; stroke-width:1; " description="&lt;b&gt;AJAP_RS21060&lt;/b&gt;&lt;br&gt;permease&lt;br&gt;Location: 4534686 - 4535648" class="clusterblast-orf" locus_tag="AJAP_RS21060"  />
</g>
<g id="a1_004"  >
<polygon id="dummy-1_h1_5_4" points="50,90 52,90 57,85 52,80 50,80 50,90 " style="fill:white; stroke:black; stroke-width:1; " description="&lt;b&gt;AJAP_RS21065&lt;/b&gt;&lt;br&gt;TIGR03943 family protein&lt;br&gt;Location: 4535645 - 4536292" class="clusterblast-orf" locus_tag="AJAP_RS21065"  />
</g>
<g id="a1_005"  >
<polygon id="dummy-1_h1_5_5" points="57,85 62,80 67,80 67,90 62,90 57,85 " style="fill:white; stroke:black; stroke-width:1; " description="&lt;b&gt;AJAP_RS21070&lt;/b&gt;&lt;br&gt;helix-turn-helix transcriptional regulator&lt;br&gt;Location: 4536293 - 4537201" class="clusterblast-orf" locus_tag="AJAP_RS21070"  />
</g>
<g id="a1_006"  >
<polygon id="dummy-1_h1_5_6" points="70,90 89,90 94,85 89,80 70,80 70,90 " style="fill:white; stroke:black; stroke-width:1; " description="&lt;b&gt;AJAP_RS21075&lt;/b&gt;&lt;br&gt;metallophosphoesterase&lt;br&gt;Location: 4537397 - 4539520" class="clusterblast-orf" locus_tag="AJAP_RS21075"  />
</g>
<g id="a1_007"  >
<polygon id="dummy-1_h1_5_7" points="99,90 108,90 113,85 108,80 99,80 99,90 " style="fill:white; stroke:black; stroke-width:1; " description="&lt;b&gt;AJAP_RS21080&lt;/b&gt;&lt;br&gt;MFS transporter&lt;br&gt;Location: 4540009 - 4541223" class="clusterblast-orf" locus_tag="AJAP_RS21080"  />
</g>
<g id="a1_008"  >
<polygon id="dummy-1_h1_5_8" points="113,90 118,90 123,85 118,80 113,80 113,90 " style="fill:white; stroke:black; stroke-width:1; " description="&lt;b&gt;AJAP_RS21085&lt;/b&gt;&lt;br&gt;hypothetical protein&lt;br&gt;Location: 4541220 - 4542119" class="clusterblast-orf" locus_tag="AJAP_RS21085"  />
</g>
<g id="a1_009"  >
<polygon id="dummy-1_h1_5_9" points="123,90 130,90 135,85 130,80 123,80 123,90 " style="fill:white; stroke:black; stroke-width:1; " description="&lt;b&gt;AJAP_RS21090&lt;/b&gt;&lt;br&gt;hypothetical protein&lt;br&gt;Location: 4542116 - 4543144" class="clusterblast-orf" locus_tag="AJAP_RS21090"  />
</g>
<g id="a1_0010"  >
<polygon id="dummy-1_h1_5_10" points="135,90 143,90 148,85 143,80 135,80 135,90 " style="fill:white; stroke:black; stroke-width:1; " description="&lt;b&gt;AJAP_RS21095&lt;/b&gt;&lt;br&gt;ATP-binding protein&lt;br&gt;Location: 4543153 - 4544256" class="clusterblast-orf" locus_tag="AJAP_RS21095"  />
</g>
<g id="a1_0011"  >
<polygon id="dummy-1_h1_5_11" points="147,90 155,90 160,85 155,80 147,80 147,90 " style="fill:white; stroke:black; stroke-width:1; " description="&lt;b&gt;AJAP_RS21100&lt;/b&gt;&lt;br&gt;hypothetical protein&lt;br&gt;Location: 4544249 - 4545319" class="clusterblast-orf" locus_tag="AJAP_RS21100"  />
</g>
<g id="a1_0012"  >
<polygon id="dummy-1_h1_5_12" points="159,90 162,90 167,85 162,80 159,80 159,90 " style="fill:white; stroke:black; stroke-width:1; " description="&lt;b&gt;AJAP_RS21105&lt;/b&gt;&lt;br&gt;response regulator transcription factor&lt;br&gt;Location: 4545298 - 4545954" class="clusterblast-orf" locus_tag="AJAP_RS21105"  />
</g>
<g id="a1_0013"  >
<polygon id="dummy-1_h1_5_13" points="168,90 169,90 174,85 169,80 168,80 168,90 " style="fill:white; stroke:black; stroke-width:1; " description="&lt;b&gt;AJAP_RS21110&lt;/b&gt;&lt;br&gt;hypothetical protein&lt;br&gt;Location: 4546037 - 4546576" class="clusterblast-orf" locus_tag="AJAP_RS21110"  />
</g>
<g id="a1_0014"  >
<polygon id="dummy-1_h1_5_14" points="176,90 178,90 183,85 178,80 176,80 176,90 " style="fill:white; stroke:black; stroke-width:1; " description="&lt;b&gt;AJAP_RS21115&lt;/b&gt;&lt;br&gt;hypothetical protein&lt;br&gt;Location: 4546720 - 4547343" class="clusterblast-orf" locus_tag="AJAP_RS21115"  />
</g>
<g id="a1_0015"  >
<polygon id="dummy-1_h1_5_15" points="184,90 184,90 189,85 184,80 184,80 184,90 " style="fill:white; stroke:black; stroke-width:1; " description="&lt;b&gt;AJAP_RS21120&lt;/b&gt;&lt;br&gt;SRPBCC family protein&lt;br&gt;Location: 4547453 - 4547884" class="clusterblast-orf" locus_tag="AJAP_RS21120"  />
</g>
<g id="a1_0016"  >
<polygon id="dummy-1_h1_5_16" points="190,85 195,80 202,80 202,90 195,90 190,85 " style="fill:white; stroke:black; stroke-width:1; " description="&lt;b&gt;AJAP_RS21125&lt;/b&gt;&lt;br&gt;3-deoxy-7-phosphoheptulonate synthase&lt;br&gt;Location: 4548019 - 4549056" class="clusterblast-orf" locus_tag="AJAP_RS21125"  />
</g>
<g id="a1_0017"  >
<polygon id="dummy-1_h1_5_17" points="202,85 207,80 218,80 218,90 207,90 202,85 " style="fill:white; stroke:black; stroke-width:1; " description="&lt;b&gt;AJAP_RS21130&lt;/b&gt;&lt;br&gt;DHA2 family efflux MFS transporter permease subunit&lt;br&gt;Location: 4549043 - 4550449" class="clusterblast-orf" locus_tag="AJAP_RS21130"  />
</g>
<g id="a1_0018"  >
<polygon id="dummy-1_h1_5_18" points="218,85 223,80 331,80 331,90 223,90 218,85 " style="fill:#d81515; stroke:black; stroke-width:1; " description="&lt;b&gt;AJAP_RS21135&lt;/b&gt;&lt;br&gt;non-ribosomal peptide synthetase&lt;br&gt;Location: 4550446 - 4560351&lt;br&gt;&lt;br&gt;&lt;b&gt;BlastP hit with cds2_1229&lt;/b&gt;&lt;br&gt;Percentage identity: 72&lt;br&gt;Percentage coverage: 98&lt;br&gt;BLAST bit score: 567&lt;br&gt;E-value: 7.7e-160" class="clusterblast-orf" locus_tag="AJAP_RS21135"  />
</g>
<g id="a1_0019"  >
<polygon id="dummy-1_h1_5_19" points="331,85 336,80 339,80 339,90 336,90 331,85 " style="fill:#77d815; stroke:black; stroke-width:1; " description="&lt;b&gt;AJAP_RS21140&lt;/b&gt;&lt;br&gt;ABC transporter ATP-binding protein&lt;br&gt;Location: 4560345 - 4561121&lt;br&gt;&lt;br&gt;&lt;b&gt;BlastP hit with cds1230_2016&lt;/b&gt;&lt;br&gt;Percentage identity: 83&lt;br&gt;Percentage coverage: 98&lt;br&gt;BLAST bit score: 430&lt;br&gt;E-value: 1.6e-118" class="clusterblast-orf" locus_tag="AJAP_RS21140"  />
</g>
<g id="a1_0020"  >
<polygon id="dummy-1_h1_5_20" points="339,85 344,80 350,80 350,90 344,90 339,85 " style="fill:#15d8d8; stroke:black; stroke-width:1; " description="&lt;b&gt;AJAP_RS21145&lt;/b&gt;&lt;br&gt;iron chelate uptake ABC transporter family permease subunit&lt;br&gt;Location: 4561118 - 4562098&lt;br&gt;&lt;br&gt;&lt;b&gt;BlastP hit with cds2012_3008&lt;/b&gt;&lt;br&gt;Percentage identity: 72&lt;br&gt;Percentage coverage: 98&lt;br&gt;BLAST bit score: 414&lt;br&gt;E-value: 1.1e-113" class="clusterblast-orf" locus_tag="AJAP_RS21145"  />
</g>
<g id="a1_0021"  >
<polygon id="dummy-1_h1_5_21" points="351,85 356,80 362,80 362,90 356,90 351,85 " style="fill:#15d8d8; stroke:black; stroke-width:1; " description="&lt;b&gt;AJAP_RS21150&lt;/b&gt;&lt;br&gt;iron ABC transporter permease&lt;br&gt;Location: 4562137 - 4563120&lt;br&gt;&lt;br&gt;&lt;b&gt;BlastP hit with cds3004_4024&lt;/b&gt;&lt;br&gt;Percentage identity: 62&lt;br&gt;Percentage coverage: 95&lt;br&gt;BLAST bit score: 313&lt;br&gt;E-value: 2.8e-83" class="clusterblast-orf" locus_tag="AJAP_RS21150"  />
</g>
<g id="a1_0022"  >
<polygon id="dummy-1_h1_5_22" points="362,85 367,80 373,80 373,90 367,90 362,85 " style="fill:#7715d8; stroke:black; stroke-width:1; " description="&lt;b&gt;AJAP_RS21155&lt;/b&gt;&lt;br&gt;ABC transporter substrate-binding protein&lt;br&gt;Location: 4563117 - 4564121&lt;br&gt;&lt;br&gt;&lt;b&gt;BlastP hit with cds4020_5028&lt;/b&gt;&lt;br&gt;Percentage identity: 66&lt;br&gt;Percentage coverage: 101&lt;br&gt;BLAST bit score: 438&lt;br&gt;E-value: 5.8e-121" class="clusterblast-orf" locus_tag="AJAP_RS21155"  />
</g>
<g id="a1_0023"  >
<polygon id="dummy-1_h1_5_23" points="374,85 379,80 383,80 383,90 379,90 374,85 " style="fill:#d8a715; stroke:black; stroke-width:1; " description="&lt;b&gt;AJAP_RS21160&lt;/b&gt;&lt;br&gt;siderophore-interacting protein&lt;br&gt;Location: 4564149 - 4565003&lt;br&gt;&lt;br&gt;&lt;b&gt;BlastP hit with cds5097_5946&lt;/b&gt;&lt;br&gt;Percentage identity: 73&lt;br&gt;Percentage coverage: 100&lt;br&gt;BLAST bit score: 439&lt;br&gt;E-value: 2.8e-121" class="clusterblast-orf" locus_tag="AJAP_RS21160"  />
</g>
<g id="a1_0024"  >
<polygon id="dummy-1_h1_5_24" points="383,85 386,80 386,90 383,85 " style="fill:#15d846; stroke:black; stroke-width:1; " description="&lt;b&gt;AJAP_RS21165&lt;/b&gt;&lt;br&gt;acyl carrier protein&lt;br&gt;Location: 4565000 - 4565233&lt;br&gt;&lt;br&gt;&lt;b&gt;BlastP hit with cds5942_6182&lt;/b&gt;&lt;br&gt;Percentage identity: 66&lt;br&gt;Percentage coverage: 92&lt;br&gt;BLAST bit score: 103&lt;br&gt;E-value: 1e-20" class="clusterblast-orf" locus_tag="AJAP_RS21165"  />
</g>
<g id="a1_0025"  >
<polygon id="dummy-1_h1_5_25" points="386,85 391,80 394,80 394,90 391,90 386,85 " style="fill:#1546d8; stroke:black; stroke-width:1; " description="&lt;b&gt;AJAP_RS21170&lt;/b&gt;&lt;br&gt;isochorismatase family protein&lt;br&gt;Location: 4565230 - 4565895&lt;br&gt;&lt;br&gt;&lt;b&gt;BlastP hit with cds6178_6847&lt;/b&gt;&lt;br&gt;Percentage identity: 79&lt;br&gt;Percentage coverage: 100&lt;br&gt;BLAST bit score: 337&lt;br&gt;E-value: 7e-91" class="clusterblast-orf" locus_tag="AJAP_RS21170"  />
</g>
<g id="a1_0026"  >
<polygon id="dummy-1_h1_5_26" points="394,85 399,80 412,80 412,90 399,90 394,85 " style="fill:#d815a7; stroke:black; stroke-width:1; " description="&lt;b&gt;AJAP_RS21175&lt;/b&gt;&lt;br&gt;AMP-binding protein&lt;br&gt;Location: 4565898 - 4567520&lt;br&gt;&lt;br&gt;&lt;b&gt;BlastP hit with cds6849_8055&lt;/b&gt;&lt;br&gt;Percentage identity: 86&lt;br&gt;Percentage coverage: 101&lt;br&gt;BLAST bit score: 679&lt;br&gt;E-value: 1.8e-193" class="clusterblast-orf" locus_tag="AJAP_RS21175"  />
</g>
<g id="a1_0027"  >
<polygon id="dummy-1_h1_5_27" points="412,85 417,80 426,80 426,90 417,90 412,85 " style="fill:white; stroke:black; stroke-width:1; " description="&lt;b&gt;AJAP_RS21180&lt;/b&gt;&lt;br&gt;isochorismate synthase&lt;br&gt;Location: 4567517 - 4568710" class="clusterblast-orf" locus_tag="AJAP_RS21180"  />
</g>
<g id="a1_0028"  >
<polygon id="dummy-1_h1_5_28" points="427,85 432,80 436,80 436,90 432,90 427,85 " style="fill:white; stroke:black; stroke-width:1; " description="&lt;b&gt;AJAP_RS21185&lt;/b&gt;&lt;br&gt;2,3-dihydro-2,3-dihydroxybenzoate dehydrogenase&lt;br&gt;Location: 4568841 - 4569590" class="clusterblast-orf" locus_tag="AJAP_RS21185"  />
</g>
<g id="a1_0029"  >
<polygon id="dummy-1_h1_5_29" points="443,85 448,80 448,80 448,90 448,90 443,85 " style="fill:white; stroke:black; stroke-width:1; " description="&lt;b&gt;AJAP_RS21190&lt;/b&gt;&lt;br&gt;GerMN domain-containing protein&lt;br&gt;Location: 4570222 - 4570683" class="clusterblast-orf" locus_tag="AJAP_RS21190"  />
</g>
<g id="a1_0030"  >
<polygon id="dummy-1_h1_5_30" points="448,85 453,80 464,80 464,90 453,90 448,85 " style="fill:white; stroke:black; stroke-width:1; " description="&lt;b&gt;AJAP_RS21195&lt;/b&gt;&lt;br&gt;HAMP domain-containing histidine kinase&lt;br&gt;Location: 4570680 - 4572086" class="clusterblast-orf" locus_tag="AJAP_RS21195"  />
</g>
<g id="a1_0031"  >
<polygon id="dummy-1_h1_5_31" points="464,85 469,80 472,80 472,90 469,90 464,85 " style="fill:white; stroke:black; stroke-width:1; " description="&lt;b&gt;AJAP_RS21200&lt;/b&gt;&lt;br&gt;response regulator&lt;br&gt;Location: 4572083 - 4572775" class="clusterblast-orf" locus_tag="AJAP_RS21200"  />
</g>
<g id="a1_0032"  >
<polygon id="dummy-1_h1_5_32" points="474,90 475,90 480,85 475,80 474,80 474,90 " style="fill:white; stroke:black; stroke-width:1; " description="&lt;b&gt;AJAP_RS21205&lt;/b&gt;&lt;br&gt;D-alanyl-D-alanine carboxypeptidase&lt;br&gt;Location: 4572972 - 4573472" class="clusterblast-orf" locus_tag="AJAP_RS21205"  />
</g>
<g id="a1_0033"  >
<polygon id="dummy-1_h1_5_33" points="480,85 485,80 491,80 491,90 485,90 480,85 " style="fill:white; stroke:black; stroke-width:1; " description="&lt;b&gt;AJAP_RS21210&lt;/b&gt;&lt;br&gt;NAD(P)H-binding protein&lt;br&gt;Location: 4573462 - 4574463" class="clusterblast-orf" locus_tag="AJAP_RS21210"  />
</g>
<g id="a1_0034"  >
<polygon id="dummy-1_h1_5_34" points="492,90 498,90 503,85 498,80 492,80 492,90 " style="fill:white; stroke:black; stroke-width:1; " description="&lt;b&gt;AJAP_RS21215&lt;/b&gt;&lt;br&gt;helix-turn-helix domain-containing protein&lt;br&gt;Location: 4574563 - 4575483" class="clusterblast-orf" locus_tag="AJAP_RS21215"  />
</g>
<g id="a1_0035"  >
<polygon id="dummy-1_h1_5_35" points="505,90 511,90 516,85 511,80 505,80 505,90 " style="fill:white; stroke:black; stroke-width:1; " description="&lt;b&gt;AJAP_RS21220&lt;/b&gt;&lt;br&gt;hypothetical protein&lt;br&gt;Location: 4575717 - 4576622" class="clusterblast-orf" locus_tag="AJAP_RS21220"  />
</g>
<g id="a1_0036"  >
<polygon id="dummy-1_h1_5_36" points="516,85 521,80 525,80 525,90 521,90 516,85 " style="fill:white; stroke:black; stroke-width:1; " description="&lt;b&gt;AJAP_RS21225&lt;/b&gt;&lt;br&gt;SGNH/GDSL hydrolase family protein&lt;br&gt;Location: 4576619 - 4577440" class="clusterblast-orf" locus_tag="AJAP_RS21225"  />
</g>
<g id="a1_0037"  >
<polygon id="dummy-1_h1_5_37" points="525,85 530,80 539,80 539,90 530,90 525,85 " style="fill:white; stroke:black; stroke-width:1; " description="&lt;b&gt;AJAP_RS21230&lt;/b&gt;&lt;br&gt;acetyl-CoA carboxylase&lt;br&gt;Location: 4577451 - 4578707" class="clusterblast-orf" locus_tag="AJAP_RS21230"  />
</g>
<g id="a1_0038"  >
<polygon id="dummy-1_h1_5_38" points="539,85 544,80 555,80 555,90 544,90 539,85 " style="fill:white; stroke:black; stroke-width:1; " description="&lt;b&gt;AJAP_RS21235&lt;/b&gt;&lt;br&gt;acyl-CoA synthetase&lt;br&gt;Location: 4578700 - 4580115" class="clusterblast-orf" locus_tag="AJAP_RS21235"  />
</g>
<g id="a1_0039"  >
<polygon id="dummy-1_h1_5_39" points="555,85 560,80 570,80 570,90 560,90 555,85 " style="fill:white; stroke:black; stroke-width:1; " description="&lt;b&gt;AJAP_RS21240&lt;/b&gt;&lt;br&gt;DeoR family transcriptional regulator&lt;br&gt;Location: 4580127 - 4581404" class="clusterblast-orf" locus_tag="AJAP_RS21240"  />
</g>
<g id="a1_0040"  >
<polygon id="dummy-1_h1_5_40" points="572,90 575,90 580,85 575,80 572,80 572,90 " style="fill:white; stroke:black; stroke-width:1; " description="&lt;b&gt;AJAP_RS21245&lt;/b&gt;&lt;br&gt;FadR family transcriptional regulator&lt;br&gt;Location: 4581550 - 4582254" class="clusterblast-orf" locus_tag="AJAP_RS21245"  />
</g>
<g id="a1_0041"  >
<polygon id="dummy-1_h1_5_41" points="582,85 587,80 595,80 595,90 587,90 582,85 " style="fill:white; stroke:black; stroke-width:1; " description="&lt;b&gt;AJAP_RS21250&lt;/b&gt;&lt;br&gt;PLP-dependent aminotransferase family protein&lt;br&gt;Location: 4582450 - 4583604" class="clusterblast-orf" locus_tag="AJAP_RS21250"  />
</g>
<g id="a1_0042"  >
<polygon id="dummy-1_h1_5_42" points="597,90 601,85 597,80 597,90 " style="fill:white; stroke:black; stroke-width:1; " description="&lt;b&gt;AJAP_RS21255&lt;/b&gt;&lt;br&gt;hypothetical protein&lt;br&gt;Location: 4583740 - 4584090" class="clusterblast-orf" locus_tag="AJAP_RS21255"  />
</g>
<g id="a1_0043"  >
<polygon id="dummy-1_h1_5_43" points="601,85 606,80 614,80 614,90 606,90 601,85 " style="fill:white; stroke:black; stroke-width:1; " description="&lt;b&gt;AJAP_RS21260&lt;/b&gt;&lt;br&gt;FAD-binding protein&lt;br&gt;Location: 4584087 - 4585310" class="clusterblast-orf" locus_tag="AJAP_RS21260"  />
</g>
<g id="a1_0044"  >
<polygon id="dummy-1_h1_5_44" points="615,90 624,90 629,85 624,80 615,80 615,90 " style="fill:white; stroke:black; stroke-width:1; " description="&lt;b&gt;AJAP_RS21265&lt;/b&gt;&lt;br&gt;arsenic transporter&lt;br&gt;Location: 4585382 - 4586620" class="clusterblast-orf" locus_tag="AJAP_RS21265"  />
</g>
<g id="a1_0045"  >
<polygon id="dummy-1_h1_5_45" points="629,90 633,90 638,85 633,80 629,80 629,90 " style="fill:white; stroke:black; stroke-width:1; " description="&lt;b&gt;AJAP_RS21270&lt;/b&gt;&lt;br&gt;IclR family transcriptional regulator&lt;br&gt;Location: 4586633 - 4587403" class="clusterblast-orf" locus_tag="AJAP_RS21270"  />
</g>
<g id="a1_0046"  >
<polygon id="dummy-1_h1_5_46" points="639,90 647,90 652,85 647,80 639,80 639,90 " style="fill:white; stroke:black; stroke-width:1; " description="&lt;b&gt;AJAP_RS21275&lt;/b&gt;&lt;br&gt;4-hydroxybenzoate 3-monooxygenase&lt;br&gt;Location: 4587436 - 4588611" class="clusterblast-orf" locus_tag="AJAP_RS21275"  />
</g>
<g id="a1_0047"  >
<polygon id="dummy-1_h1_5_47" points="653,90 653,90 658,85 653,80 653,80 653,90 " style="fill:white; stroke:black; stroke-width:1; " description="&lt;b&gt;AJAP_RS21280&lt;/b&gt;&lt;br&gt;hypothetical protein&lt;br&gt;Location: 4588696 - 4589181" class="clusterblast-orf" locus_tag="AJAP_RS21280"  />
</g>
<g id="a1_0048"  >
<polygon id="dummy-1_h1_5_48" points="659,85 664,80 665,80 665,90 664,90 659,85 " style="fill:white; stroke:black; stroke-width:1; " description="&lt;b&gt;AJAP_RS21285&lt;/b&gt;&lt;br&gt;TetR/AcrR family transcriptional regulator&lt;br&gt;Location: 4589220 - 4589795" class="clusterblast-orf" locus_tag="AJAP_RS21285"  />
</g>
<g id="a1_0049"  >
<polygon id="dummy-1_h1_5_49" points="667,90 667,90 672,85 667,80 667,80 667,90 " style="fill:white; stroke:black; stroke-width:1; " description="&lt;b&gt;AJAP_RS21290&lt;/b&gt;&lt;br&gt;hypothetical protein&lt;br&gt;Location: 4589900 - 4590409" class="clusterblast-orf" locus_tag="AJAP_RS21290"  />
</g>
<g id="a1_0050"  >
<polygon id="dummy-1_h1_5_50" points="672,85 677,80 685,80 685,90 677,90 672,85 " style="fill:white; stroke:black; stroke-width:1; " description="&lt;b&gt;AJAP_RS21295&lt;/b&gt;&lt;br&gt;cytochrome P450&lt;br&gt;Location: 4590332 - 4591480" class="clusterblast-orf" locus_tag="AJAP_RS21295"  />
</g>
<g id="a1_0051"  >
<polygon id="dummy-1_h1_5_51" points="685,85 690,80 692,80 692,90 690,90 685,85 " style="fill:white; stroke:black; stroke-width:1; " description="&lt;b&gt;AJAP_RS21300&lt;/b&gt;&lt;br&gt;helix-turn-helix domain-containing protein&lt;br&gt;Location: 4591495 - 4592145" class="clusterblast-orf" locus_tag="AJAP_RS21300"  />
</g>
<g id="a1_0052"  >
<polygon id="dummy-1_h1_5_52" points="692,85 697,80 712,80 712,90 697,90 692,85 " style="fill:white; stroke:black; stroke-width:1; " description="&lt;b&gt;AJAP_RS21305&lt;/b&gt;&lt;br&gt;sugar phosphate isomerase/epimerase and 4-hydroxyphenylpyruvate domain-containing protein&lt;br&gt;Location: 4592150 - 4593919" class="clusterblast-orf" locus_tag="AJAP_RS21305"  />
</g>
<g id="a1_0053"  >
<polygon id="dummy-1_h1_5_53" points="712,85 717,80 722,80 722,90 717,90 712,85 " style="fill:white; stroke:black; stroke-width:1; " description="&lt;b&gt;AJAP_RS21310&lt;/b&gt;&lt;br&gt;shikimate dehydrogenase&lt;br&gt;Location: 4593909 - 4594757" class="clusterblast-orf" locus_tag="AJAP_RS21310"  />
</g>
<g id="a1_0054"  >
<polygon id="dummy-1_h1_5_54" points="723,90 725,90 730,85 725,80 723,80 723,90 " style="fill:white; stroke:black; stroke-width:1; " description="&lt;b&gt;AJAP_RS21315&lt;/b&gt;&lt;br&gt;TetR family transcriptional regulator&lt;br&gt;Location: 4594870 - 4595511" class="clusterblast-orf" locus_tag="AJAP_RS21315"  />
</g>
<g id="a1_0055"  >
<polygon id="dummy-1_h1_5_55" points="732,90 742,90 747,85 742,80 732,80 732,90 " style="fill:white; stroke:black; stroke-width:1; " description="&lt;b&gt;AJAP_RS21320&lt;/b&gt;&lt;br&gt;MHS family MFS transporter&lt;br&gt;Location: 4595634 - 4596998" class="clusterblast-orf" locus_tag="AJAP_RS21320"  />
</g>
<g id="a1_0056"  >
<polygon id="dummy-1_h1_5_56" points="746,85 751,80 753,80 753,90 751,90 746,85 " style="fill:white; stroke:black; stroke-width:1; " description="&lt;b&gt;AJAP_RS21325&lt;/b&gt;&lt;br&gt;TetR family transcriptional regulator&lt;br&gt;Location: 4596896 - 4597471" class="clusterblast-orf" locus_tag="AJAP_RS21325"  />
</g>
<g id="a1_0057"  >
<polygon id="dummy-1_h1_5_57" points="753,90 759,90 764,85 759,80 753,80 753,90 " style="fill:white; stroke:black; stroke-width:1; " description="&lt;b&gt;AJAP_RS21330&lt;/b&gt;&lt;br&gt;SDR family NAD(P)-dependent oxidoreductase&lt;br&gt;Location: 4597470 - 4598447" class="clusterblast-orf" locus_tag="AJAP_RS21330"  />
</g>
<g id="a1_0058"  >
<polygon id="dummy-1_h1_5_58" points="764,85 769,80 780,80 780,90 769,90 764,85 " style="fill:white; stroke:black; stroke-width:1; " description="&lt;b&gt;AJAP_RS21335&lt;/b&gt;&lt;br&gt;PepSY domain-containing protein&lt;br&gt;Location: 4598437 - 4599825" class="clusterblast-orf" locus_tag="AJAP_RS21335"  />
</g>
</svg>
