<svg preserveAspectRatio="none" x="0" xmlns="http://www.w3.org/2000/svg" version="1.1" xmlns:xlink="http://www.w3.org/1999/xlink" viewBox="0 0 800 230" width="800" height="230" y="0"  >
<g label="Query sequence" class="clusterblast-cluster"  >
<text x="5" y="20" class="clusterblast-acc"  >
Query sequence</text>
<line style="stroke:grey; stroke-width:1; " y1="35" x2="778.0" y2="35" x1="10"  />
<polygon id="dummy-1_q0_0_all" points="225,35 230,30 263,30 263,40 230,40 225,35 " style="fill:#d81515; stroke:black; stroke-width:1; " description="&lt;b&gt;cds2_944&lt;/b&gt;&lt;br&gt;MBL-fold metallo-hydrolase superfamily&lt;br&gt;Location: 2 - 944" class="clusterblast-orf" locus_tag="cds2_944"  />
<polygon id="dummy-1_q1_0_all" points="271,35 276,30 326,30 326,40 276,40 271,35 " style="fill:#77d815; stroke:black; stroke-width:1; " description="&lt;b&gt;cds1158_2511&lt;/b&gt;&lt;br&gt;hypothetical protein&lt;br&gt;Location: 1158 - 2511" class="clusterblast-orf" locus_tag="cds1158_2511"  />
<polygon id="dummy-1_q2_0_all" points="326,35 331,30 372,30 372,40 331,40 326,35 " style="fill:#15d8d8; stroke:black; stroke-width:1; " description="&lt;b&gt;cds2527_3652&lt;/b&gt;&lt;br&gt;hypothetical protein&lt;br&gt;Location: 2527 - 3652" class="clusterblast-orf" locus_tag="cds2527_3652"  />
<polygon id="dummy-1_q3_0_all" points="380,35 385,30 438,30 438,40 385,40 380,35 " style="fill:#7715d8; stroke:black; stroke-width:1; " description="&lt;b&gt;cds3851_5306&lt;/b&gt;&lt;br&gt;P450 cytochrome, component of G-protein-coupled receptor (GPCR) system&lt;br&gt;Location: 3851 - 5306" class="clusterblast-orf" locus_tag="cds3851_5306"  />
<polygon id="dummy-1_q4_0_all" points="438,35 443,30 464,30 464,40 443,40 438,35 " style="fill:#d8a715; stroke:black; stroke-width:1; " description="&lt;b&gt;cds5302_5953&lt;/b&gt;&lt;br&gt;Small Ras-like GTPase, component of G-protein-coupled receptor (GPCR) system&lt;br&gt;Location: 5302 - 5953" class="clusterblast-orf" locus_tag="cds5302_5953"  />
<polygon id="dummy-1_q5_0_all" points="464,35 469,30 478,30 478,40 469,40 464,35 " style="fill:#15d846; stroke:black; stroke-width:1; " description="&lt;b&gt;cds5933_6296&lt;/b&gt;&lt;br&gt;multi-component regulatory system-10&lt;br&gt;Location: 5933 - 6296" class="clusterblast-orf" locus_tag="cds5933_6296"  />
<polygon id="dummy-1_q6_0_all" points="478,35 483,30 495,30 495,40 483,40 478,35 " style="fill:#1546d8; stroke:black; stroke-width:1; " description="&lt;b&gt;cds6292_6703&lt;/b&gt;&lt;br&gt;Roadblock/LC7 protein, putative GTPase-activating (GAP) component of G-protein-coupled receptor (GPCR) system&lt;br&gt;Location: 6292 - 6703" class="clusterblast-orf" locus_tag="cds6292_6703"  />
<polygon id="dummy-1_q7_0_all" points="494,35 499,30 555,30 555,40 499,40 494,35 " style="fill:#d815a7; stroke:black; stroke-width:1; " description="&lt;b&gt;cds6699_8205&lt;/b&gt;&lt;br&gt;Putative sensor and ATPase, component of G-protein-coupled receptor (GPCR) system&lt;br&gt;Location: 6699 - 8205" class="clusterblast-orf" locus_tag="cds6699_8205"  />
</g>
<g label="NZ_CP023696" description="NZ_CP023696 (310809-&gt;330174): Streptomyces fradiae ATCC 10745 = DSM 40063 str... (36% of genes show similarity), terpene" class="clusterblast-cluster"  >
<text x="5" y="70" class="clusterblast-acc"  >
<a xlink:href="https://antismash-db.secondarymetabolites.org/area.html?record=NZ_CP023696&amp;start=310809&amp;end=>330174" target="_blank">NZ_CP023696 (310809->330174)</a>: Streptomyces fradiae ATCC 10745 = DSM 40063 str... (36% of genes show similarity), terpene</text>
<line style="stroke:grey; stroke-width:1; " y1="85" x2="778.0" y2="85" x1="10"  />
</g>
<g id="a1_000"  >
<polygon id="dummy-1_h1_2_0" points="0,85 5,80 27,80 27,90 5,90 0,85 " style="fill:white; stroke:black; stroke-width:1; " description="&lt;b&gt;CP974_RS01325&lt;/b&gt;&lt;br&gt;helix-turn-helix domain-containing protein&lt;br&gt;Location: 310810 - 311502" class="clusterblast-orf" locus_tag="CP974_RS01325"  />
</g>
<g id="a1_001"  >
<polygon id="dummy-1_h1_2_1" points="36,90 49,90 54,85 49,80 36,80 36,90 " style="fill:white; stroke:black; stroke-width:1; " description="&lt;b&gt;CP974_RS01330&lt;/b&gt;&lt;br&gt;Crp/Fnr family transcriptional regulator&lt;br&gt;Location: 311712 - 312167" class="clusterblast-orf" locus_tag="CP974_RS01330"  />
</g>
<g id="a1_002"  >
<polygon id="dummy-1_h1_2_2" points="59,90 78,90 83,85 78,80 59,80 59,90 " style="fill:white; stroke:black; stroke-width:1; " description="&lt;b&gt;CP974_RS01335&lt;/b&gt;&lt;br&gt;CBS domain-containing protein&lt;br&gt;Location: 312275 - 312889" class="clusterblast-orf" locus_tag="CP974_RS01335"  />
</g>
<g id="a1_003"  >
<polygon id="dummy-1_h1_2_3" points="96,85 101,80 108,80 108,90 101,90 96,85 " style="fill:white; stroke:black; stroke-width:1; " description="&lt;b&gt;CP974_RS01340&lt;/b&gt;&lt;br&gt;DUF1876 domain-containing protein&lt;br&gt;Location: 313198 - 313500" class="clusterblast-orf" locus_tag="CP974_RS01340"  />
</g>
<g id="a1_004"  >
<polygon id="dummy-1_h1_2_4" points="119,90 150,90 155,85 150,80 119,80 119,90 " style="fill:white; stroke:black; stroke-width:1; " description="&lt;b&gt;CP974_RS01345&lt;/b&gt;&lt;br&gt;universal stress protein&lt;br&gt;Location: 313777 - 314658" class="clusterblast-orf" locus_tag="CP974_RS01345"  />
</g>
<g id="a1_005"  >
<polygon id="dummy-1_h1_2_5" points="160,90 197,90 202,85 197,80 160,80 160,90 " style="fill:white; stroke:black; stroke-width:1; " description="&lt;b&gt;CP974_RS01350&lt;/b&gt;&lt;br&gt;pyruvate, phosphate dikinase&lt;br&gt;Location: 314785 - 315828" class="clusterblast-orf" locus_tag="CP974_RS01350"  />
</g>
<g id="a1_006"  >
<polygon id="dummy-1_h1_2_6" points="203,85 208,80 214,80 214,90 208,90 203,85 " style="fill:white; stroke:black; stroke-width:1; " description="&lt;b&gt;CP974_RS01355&lt;/b&gt;&lt;br&gt;hypothetical protein&lt;br&gt;Location: 315866 - 316147" class="clusterblast-orf" locus_tag="CP974_RS01355"  />
</g>
<g id="a1_007"  >
<polygon id="dummy-1_h1_2_7" points="219,85 224,80 236,80 236,90 224,90 219,85 " style="fill:white; stroke:black; stroke-width:1; " description="&lt;b&gt;CP974_RS01360&lt;/b&gt;&lt;br&gt;TSUP family transporter&lt;br&gt;Location: 316263 - 316676" class="clusterblast-orf" locus_tag="CP974_RS01360"  />
</g>
<g id="a1_008"  >
<polygon id="dummy-1_h1_2_8" points="249,85 254,80 264,80 264,90 254,90 249,85 " style="fill:white; stroke:black; stroke-width:1; " description="&lt;b&gt;CP974_RS01365&lt;/b&gt;&lt;br&gt;TSUP family transporter&lt;br&gt;Location: 317016 - 317375" class="clusterblast-orf" locus_tag="CP974_RS01365"  />
</g>
<g id="a1_009"  >
<polygon id="dummy-1_h1_2_9" points="264,85 269,80 313,80 313,90 269,90 264,85 " style="fill:#d81515; stroke:black; stroke-width:1; " description="&lt;b&gt;CP974_RS01370&lt;/b&gt;&lt;br&gt;MBL fold metallo-hydrolase&lt;br&gt;Location: 317372 - 318583&lt;br&gt;&lt;br&gt;&lt;b&gt;BlastP hit with cds2_944&lt;/b&gt;&lt;br&gt;Percentage identity: 73&lt;br&gt;Percentage coverage: 84&lt;br&gt;BLAST bit score: 366&lt;br&gt;E-value: 2e-99" class="clusterblast-orf" locus_tag="CP974_RS01370"  />
</g>
<g id="a1_0010"  >
<polygon id="dummy-1_h1_2_10" points="322,85 327,80 376,80 376,90 327,90 322,85 " style="fill:#77d815; stroke:black; stroke-width:1; " description="&lt;b&gt;CP974_RS01375&lt;/b&gt;&lt;br&gt;cytochrome P450&lt;br&gt;Location: 318823 - 320160&lt;br&gt;&lt;br&gt;&lt;b&gt;BlastP hit with cds1158_2511&lt;/b&gt;&lt;br&gt;Percentage identity: 73&lt;br&gt;Percentage coverage: 98&lt;br&gt;BLAST bit score: 658&lt;br&gt;E-value: 3.6e-187" class="clusterblast-orf" locus_tag="CP974_RS01375"  />
</g>
<g id="a1_0011"  >
<polygon id="dummy-1_h1_2_11" points="377,85 382,80 421,80 421,90 382,90 377,85 " style="fill:#15d8d8; stroke:black; stroke-width:1; " description="&lt;b&gt;CP974_RS01380&lt;/b&gt;&lt;br&gt;terpene synthase&lt;br&gt;Location: 320186 - 321283&lt;br&gt;&lt;br&gt;&lt;b&gt;BlastP hit with cds2527_3652&lt;/b&gt;&lt;br&gt;Percentage identity: 81&lt;br&gt;Percentage coverage: 99&lt;br&gt;BLAST bit score: 630&lt;br&gt;E-value: 1.2e-178" class="clusterblast-orf" locus_tag="CP974_RS01380"  />
</g>
<g id="a1_0012"  >
<polygon id="dummy-1_h1_2_12" points="436,85 441,80 487,80 487,90 441,90 436,85 " style="fill:#7715d8; stroke:black; stroke-width:1; " description="&lt;b&gt;CP974_RS01385&lt;/b&gt;&lt;br&gt;cytochrome P450&lt;br&gt;Location: 321638 - 322915&lt;br&gt;&lt;br&gt;&lt;b&gt;BlastP hit with cds3851_5306&lt;/b&gt;&lt;br&gt;Percentage identity: 80&lt;br&gt;Percentage coverage: 88&lt;br&gt;BLAST bit score: 690&lt;br&gt;E-value: 1.6e-196" class="clusterblast-orf" locus_tag="CP974_RS01385"  />
</g>
<g id="a1_0013"  >
<polygon id="dummy-1_h1_2_13" points="487,85 492,80 513,80 513,90 492,90 487,85 " style="fill:#d8a715; stroke:black; stroke-width:1; " description="&lt;b&gt;CP974_RS01390&lt;/b&gt;&lt;br&gt;ATP-binding protein&lt;br&gt;Location: 322912 - 323562&lt;br&gt;&lt;br&gt;&lt;b&gt;BlastP hit with cds5302_5953&lt;/b&gt;&lt;br&gt;Percentage identity: 92&lt;br&gt;Percentage coverage: 100&lt;br&gt;BLAST bit score: 384&lt;br&gt;E-value: 4.9e-105" class="clusterblast-orf" locus_tag="CP974_RS01390"  />
</g>
<g id="a1_0014"  >
<polygon id="dummy-1_h1_2_14" points="512,85 517,80 527,80 527,90 517,90 512,85 " style="fill:#15d846; stroke:black; stroke-width:1; " description="&lt;b&gt;CP974_RS01395&lt;/b&gt;&lt;br&gt;DUF742 domain-containing protein&lt;br&gt;Location: 323543 - 323905&lt;br&gt;&lt;br&gt;&lt;b&gt;BlastP hit with cds5933_6296&lt;/b&gt;&lt;br&gt;Percentage identity: 87&lt;br&gt;Percentage coverage: 100&lt;br&gt;BLAST bit score: 204&lt;br&gt;E-value: 5e-51" class="clusterblast-orf" locus_tag="CP974_RS01395"  />
</g>
<g id="a1_0015"  >
<polygon id="dummy-1_h1_2_15" points="527,85 532,80 543,80 543,90 532,90 527,85 " style="fill:#1546d8; stroke:black; stroke-width:1; " description="&lt;b&gt;CP974_RS01400&lt;/b&gt;&lt;br&gt;roadblock/LC7 domain-containing protein&lt;br&gt;Location: 323902 - 324312&lt;br&gt;&lt;br&gt;&lt;b&gt;BlastP hit with cds6292_6703&lt;/b&gt;&lt;br&gt;Percentage identity: 94&lt;br&gt;Percentage coverage: 100&lt;br&gt;BLAST bit score: 253&lt;br&gt;E-value: 1.4e-65" class="clusterblast-orf" locus_tag="CP974_RS01400"  />
</g>
<g id="a1_0016"  >
<polygon id="dummy-1_h1_2_16" points="543,85 548,80 604,80 604,90 548,90 543,85 " style="fill:#d815a7; stroke:black; stroke-width:1; " description="&lt;b&gt;CP974_RS01405&lt;/b&gt;&lt;br&gt;sensor histidine kinase&lt;br&gt;Location: 324309 - 325805&lt;br&gt;&lt;br&gt;&lt;b&gt;BlastP hit with cds6699_8205&lt;/b&gt;&lt;br&gt;Percentage identity: 84&lt;br&gt;Percentage coverage: 100&lt;br&gt;BLAST bit score: 710&lt;br&gt;E-value: 1.5e-202" class="clusterblast-orf" locus_tag="CP974_RS01405"  />
</g>
<g id="a1_0017"  >
<polygon id="dummy-1_h1_2_17" points="623,90 633,90 638,85 633,80 623,80 623,90 " style="fill:white; stroke:black; stroke-width:1; " description="&lt;b&gt;CP974_RS01410&lt;/b&gt;&lt;br&gt;hypothetical protein&lt;br&gt;Location: 326300 - 326670" class="clusterblast-orf" locus_tag="CP974_RS01410"  />
</g>
<g id="a1_0018"  >
<polygon id="dummy-1_h1_2_18" points="641,85 646,80 656,80 656,90 646,90 641,85 " style="fill:white; stroke:black; stroke-width:1; " description="&lt;b&gt;CP974_RS01415&lt;/b&gt;&lt;br&gt;hypothetical protein&lt;br&gt;Location: 326726 - 327112" class="clusterblast-orf" locus_tag="CP974_RS01415"  />
</g>
<g id="a1_0019"  >
<polygon id="dummy-1_h1_2_19" points="664,85 669,80 710,80 710,90 669,90 664,85 " style="fill:white; stroke:black; stroke-width:1; " description="&lt;b&gt;CP974_RS01420&lt;/b&gt;&lt;br&gt;hypothetical protein&lt;br&gt;Location: 327301 - 328440" class="clusterblast-orf" locus_tag="CP974_RS01420"  />
</g>
<g id="a1_0020"  >
<polygon id="dummy-1_h1_2_20" points="722,90 765,90 770,85 765,80 722,80 722,90 " style="fill:white; stroke:black; stroke-width:1; " description="&lt;b&gt;CP974_RS01425&lt;/b&gt;&lt;br&gt;cytochrome P450&lt;br&gt;Location: 328742 - 329944" class="clusterblast-orf" locus_tag="CP974_RS01425"  />
</g>
<g id="a1_0021"  >
<polygon id="dummy-1_h1_2_21" points="776,90 780,85 776,80 776,90 " style="fill:white; stroke:black; stroke-width:1; " description="&lt;b&gt;CP974_RS01430&lt;/b&gt;&lt;br&gt;transporter&lt;br&gt;Location: 330088 - 330174" class="clusterblast-orf" locus_tag="CP974_RS01430"  />
</g>
</svg>
