<svg preserveAspectRatio="none" x="0" xmlns="http://www.w3.org/2000/svg" version="1.1" xmlns:xlink="http://www.w3.org/1999/xlink" viewBox="0 0 800 230" width="800" height="230" y="0"  >
<g label="Query sequence" class="clusterblast-cluster"  >
<text x="5" y="20" class="clusterblast-acc"  >
Query sequence</text>
<line style="stroke:grey; stroke-width:1; " y1="35" x2="778.0" y2="35" x1="10"  />
<polygon id="dummy-1_q0_0_all" points="371,35 376,30 376,30 376,40 376,40 371,35 " style="fill:#d81515; stroke:black; stroke-width:1; " description="&lt;b&gt;cds162_369&lt;/b&gt;&lt;br&gt;MbtH-like NRPS chaperone&lt;br&gt;Location: 162 - 369" class="clusterblast-orf" locus_tag="cds162_369"  />
<polygon id="dummy-1_q1_0_all" points="377,35 382,30 408,30 408,40 382,40 377,35 " style="fill:#15d8d8; stroke:black; stroke-width:1; " description="&lt;b&gt;cds411_1836&lt;/b&gt;&lt;br&gt;Polyketide synthase modules and related proteins&lt;br&gt;Location: 411 - 1836" class="clusterblast-orf" locus_tag="cds411_1836"  />
</g>
<g label="BGC0000997" description="BGC0000997_c1: glidobactin (10% of genes show similarity), NRP + Polyketide" class="clusterblast-cluster"  >
<text x="5" y="70" class="clusterblast-acc"  >
<a xlink:href="https://mibig.secondarymetabolites.org/go/BGC0000997/1" target="_blank">BGC0000997</a>:                                                                      glidobactin (10% of genes show similarity), NRP + Polyketide</text>
<line style="stroke:grey; stroke-width:1; " y1="85" x2="778.0" y2="85" x1="10"  />
</g>
<g id="a1_000"  >
<polygon id="dummy-1_h1_3_0" points="0,90 16,90 21,85 16,80 0,80 0,90 " style="fill:white; stroke:black; stroke-width:1; " description="&lt;b&gt;CAL80832.1&lt;/b&gt;&lt;br&gt;HTH AraC-type regulator&lt;br&gt;Location: 35505 - 34537" class="clusterblast-orf" locus_tag="CAL80832.1"  />
</g>
<g id="a1_001"  >
<polygon id="dummy-1_h1_3_1" points="21,85 26,80 32,80 32,90 26,90 21,85 " style="fill:white; stroke:black; stroke-width:1; " description="&lt;b&gt;CAL80831.1&lt;/b&gt;&lt;br&gt;carboxymuconolactone decarboxylase&lt;br&gt;Location: 34549 - 34037" class="clusterblast-orf" locus_tag="CAL80831.1"  />
</g>
<g id="a1_002"  >
<polygon id="dummy-1_h1_3_2" points="37,85 42,80 55,80 55,90 42,90 37,85 " style="fill:white; stroke:black; stroke-width:1; " description="&lt;b&gt;CAL80830.1&lt;/b&gt;&lt;br&gt;dehydrogenase-related protein&lt;br&gt;Location: 33811 - 32975" class="clusterblast-orf" locus_tag="CAL80830.1"  />
</g>
<g id="a1_003"  >
<polygon id="dummy-1_h1_3_3" points="60,90 71,90 76,85 71,80 60,80 60,90 " style="fill:white; stroke:black; stroke-width:1; " description="&lt;b&gt;CAL80829.1&lt;/b&gt;&lt;br&gt;hypothetical protein&lt;br&gt;Location: 32759 - 32040" class="clusterblast-orf" locus_tag="CAL80829.1"  />
</g>
<g id="a1_004"  >
<polygon id="dummy-1_h1_3_4" points="77,85 82,80 83,80 83,90 82,90 77,85 " style="fill:white; stroke:black; stroke-width:1; " description="&lt;b&gt;CAL80828.1&lt;/b&gt;&lt;br&gt;conserved hypothetical protein&lt;br&gt;Location: 32009 - 31719" class="clusterblast-orf" locus_tag="CAL80828.1"  />
</g>
<g id="a1_005"  >
<polygon id="dummy-1_h1_3_5" points="102,85 107,80 125,80 125,90 107,90 102,85 " style="fill:white; stroke:black; stroke-width:1; " description="&lt;b&gt;CAL80827.1&lt;/b&gt;&lt;br&gt;LysR:LysR substrate binding domain&lt;br&gt;Location: 30856 - 29822" class="clusterblast-orf" locus_tag="CAL80827.1"  />
</g>
<g id="a1_006"  >
<polygon id="dummy-1_h1_3_6" points="127,85 132,80 159,80 159,90 132,90 127,85 " style="fill:white; stroke:black; stroke-width:1; " description="&lt;b&gt;CAL80826.1&lt;/b&gt;&lt;br&gt;2-nitrodioxygenase-like&lt;br&gt;Location: 29721 - 28303" class="clusterblast-orf" locus_tag="CAL80826.1"  />
</g>
<g id="a1_007"  >
<polygon id="dummy-1_h1_3_7" points="160,85 165,80 168,80 168,90 165,90 160,85 " style="fill:white; stroke:black; stroke-width:1; " description="&lt;b&gt;CAL80825.1&lt;/b&gt;&lt;br&gt;ketosteroid isomerase-related protein&lt;br&gt;Location: 28239 - 27874" class="clusterblast-orf" locus_tag="CAL80825.1"  />
</g>
<g id="a1_008"  >
<polygon id="dummy-1_h1_3_8" points="169,85 174,80 241,80 241,90 174,90 169,85 " style="fill:#15d8d8; stroke:black; stroke-width:1; " description="&lt;b&gt;CAL80824.1&lt;/b&gt;&lt;br&gt;NRPS module protein&lt;br&gt;Location: 27836 - 24585&lt;br&gt;&lt;br&gt;&lt;b&gt;BlastP hit with cds411_1836&lt;/b&gt;&lt;br&gt;Percentage identity: 46&lt;br&gt;Percentage coverage: 97&lt;br&gt;BLAST bit score: 344&lt;br&gt;E-value: 2.7e-94" class="clusterblast-orf" locus_tag="CAL80824.1"  />
</g>
<g id="a1_009"  >
<polygon id="dummy-1_h1_3_9" points="241,85 246,80 246,80 246,90 246,90 241,85 " style="fill:#d81515; stroke:black; stroke-width:1; " description="&lt;b&gt;CAL80823.1&lt;/b&gt;&lt;br&gt;MbtH-like protein&lt;br&gt;Location: 24580 - 24359&lt;br&gt;&lt;br&gt;&lt;b&gt;BlastP hit with cds162_369&lt;/b&gt;&lt;br&gt;Percentage identity: 56&lt;br&gt;Percentage coverage: 93&lt;br&gt;BLAST bit score: 82&lt;br&gt;E-value: 3.6e-16" class="clusterblast-orf" locus_tag="CAL80823.1"  />
</g>
<g id="a1_0010"  >
<polygon id="dummy-1_h1_3_10" points="246,85 251,80 275,80 275,90 251,90 246,85 " style="fill:white; stroke:black; stroke-width:1; " description="&lt;b&gt;CAL80822.1&lt;/b&gt;&lt;br&gt;major facilitator superfamily transporter&lt;br&gt;Location: 24375 - 23065" class="clusterblast-orf" locus_tag="CAL80822.1"  />
</g>
<g id="a1_0011"  >
<polygon id="dummy-1_h1_3_11" points="275,85 280,80 552,80 552,90 280,90 275,85 " style="fill:white; stroke:black; stroke-width:1; " description="&lt;b&gt;CAL80821.1&lt;/b&gt;&lt;br&gt;sylD-like NRPS/PKS&lt;br&gt;Location: 23068 - 10523" class="clusterblast-orf" locus_tag="CAL80821.1"  />
</g>
<g id="a1_0012"  >
<polygon id="dummy-1_h1_3_12" points="553,85 558,80 572,80 572,90 558,90 553,85 " style="fill:white; stroke:black; stroke-width:1; " description="&lt;b&gt;CAL80820.1&lt;/b&gt;&lt;br&gt;conserved protein&lt;br&gt;Location: 10488 - 9628" class="clusterblast-orf" locus_tag="CAL80820.1"  />
</g>
<g id="a1_0013"  >
<polygon id="dummy-1_h1_3_13" points="580,85 585,80 603,80 603,90 585,90 580,85 " style="fill:white; stroke:black; stroke-width:1; " description="&lt;b&gt;CAL80819.1&lt;/b&gt;&lt;br&gt;LysR-type regulator&lt;br&gt;Location: 9239 - 8226" class="clusterblast-orf" locus_tag="CAL80819.1"  />
</g>
<g id="a1_0014"  >
<polygon id="dummy-1_h1_3_14" points="611,85 616,80 658,80 658,90 616,90 611,85 " style="fill:white; stroke:black; stroke-width:1; " description="&lt;b&gt;CAL80818.1&lt;/b&gt;&lt;br&gt;two-component hybrid sensor/regulator&lt;br&gt;Location: 7873 - 5753" class="clusterblast-orf" locus_tag="CAL80818.1"  />
</g>
<g id="a1_0015"  >
<polygon id="dummy-1_h1_3_15" points="660,85 665,80 687,80 687,90 665,90 660,85 " style="fill:white; stroke:black; stroke-width:1; " description="&lt;b&gt;CAL80817.1&lt;/b&gt;&lt;br&gt;imidazolonepropionase&lt;br&gt;Location: 5645 - 4419" class="clusterblast-orf" locus_tag="CAL80817.1"  />
</g>
<g id="a1_0016"  >
<polygon id="dummy-1_h1_3_16" points="687,85 692,80 708,80 708,90 692,90 687,85 " style="fill:white; stroke:black; stroke-width:1; " description="&lt;b&gt;CAL80816.1&lt;/b&gt;&lt;br&gt;formiminoglutamase&lt;br&gt;Location: 4422 - 3466" class="clusterblast-orf" locus_tag="CAL80816.1"  />
</g>
<g id="a1_0017"  >
<polygon id="dummy-1_h1_3_17" points="708,85 713,80 742,80 742,90 713,90 708,85 " style="fill:white; stroke:black; stroke-width:1; " description="&lt;b&gt;CAL80815.1&lt;/b&gt;&lt;br&gt;histidine ammonia-lyase&lt;br&gt;Location: 3469 - 1922" class="clusterblast-orf" locus_tag="CAL80815.1"  />
</g>
<g id="a1_0018"  >
<polygon id="dummy-1_h1_3_18" points="742,85 747,80 780,80 780,90 747,90 742,85 " style="fill:white; stroke:black; stroke-width:1; " description="&lt;b&gt;CAL80814.1&lt;/b&gt;&lt;br&gt;urocanase&lt;br&gt;Location: 1925 - 237" class="clusterblast-orf" locus_tag="CAL80814.1"  />
</g>
</svg>
