<svg preserveAspectRatio="none" x="0" xmlns="http://www.w3.org/2000/svg" version="1.1" xmlns:xlink="http://www.w3.org/1999/xlink" viewBox="0 0 800 230" width="800" height="230" y="0"  >
<g label="Query sequence" class="clusterblast-cluster"  >
<text x="5" y="20" class="clusterblast-acc"  >
Query sequence</text>
<line style="stroke:grey; stroke-width:1; " y1="35" x2="778.0" y2="35" x1="10"  />
<polygon id="dummy-1_q0_0_all" points="1,35 6,30 219,30 219,40 6,40 1,35 " style="fill:white; stroke:black; stroke-width:1; " description="&lt;b&gt;cds211_1705&lt;/b&gt;&lt;br&gt;Putative regulatory protein&lt;br&gt;Location: 211 - 1705" class="clusterblast-orf" locus_tag="cds211_1705"  />
<polygon id="dummy-1_q1_0_all" points="253,40 411,40 416,35 411,30 253,30 253,40 " style="fill:white; stroke:black; stroke-width:1; " description="&lt;b&gt;cds1936_3052&lt;/b&gt;&lt;br&gt;hypothetical protein&lt;br&gt;Location: 1936 - 3052" class="clusterblast-orf" locus_tag="cds1936_3052"  />
<polygon id="dummy-1_q2_0_all" points="454,40 776,40 781,35 776,30 454,30 454,40 " style="fill:#d81515; stroke:black; stroke-width:1; " description="&lt;b&gt;cds3310_5551&lt;/b&gt;&lt;br&gt;Germacradienol/germacrene D synthase (EC 4.2.3.22)&lt;br&gt;Location: 3310 - 5551" class="clusterblast-orf" locus_tag="cds3310_5551"  />
</g>
<g label="BGC0001181" description="BGC0001181_c1: geosmin (100% of genes show similarity), Terpene" class="clusterblast-cluster"  >
<text x="5" y="70" class="clusterblast-acc"  >
<a xlink:href="https://mibig.secondarymetabolites.org/go/BGC0001181/1" target="_blank">BGC0001181</a>:                                                                          geosmin (100% of genes show similarity), Terpene</text>
<line style="stroke:grey; stroke-width:1; " y1="85" x2="778.0" y2="85" x1="10"  />
</g>
<g id="a1_000"  >
<polygon id="dummy-1_h1_1_0" points="230,90 544,90 549,85 544,80 230,80 230,90 " style="fill:#d81515; stroke:black; stroke-width:1; " description="&lt;b&gt;CAB41566.1&lt;/b&gt;&lt;br&gt;putative cyclase&lt;br&gt;Location: 1 - 2181&lt;br&gt;&lt;br&gt;&lt;b&gt;BlastP hit with cds3310_5551&lt;/b&gt;&lt;br&gt;Percentage identity: 67&lt;br&gt;Percentage coverage: 94&lt;br&gt;BLAST bit score: 968&lt;br&gt;E-value: 6e-282" class="clusterblast-orf" locus_tag="CAB41566.1"  />
</g>
</svg>
