<svg preserveAspectRatio="none" xmlns:xlink="http://www.w3.org/1999/xlink" version="1.1" xmlns="http://www.w3.org/2000/svg" height="230" viewBox="0 0 800 230" width="800" x="0" y="0"  >
<g class="clusterblast-cluster" label="Query sequence"  >
<text class="clusterblast-acc" x="5" y="20"  >
Query sequence</text>
<line x2="778.0" x1="10" y2="35" y1="35" style="stroke:grey; stroke-width:1; "  />
<polygon description="&lt;b&gt;cds594224_595154&lt;/b&gt;&lt;br&gt;Transcriptional regulator, LysR family&lt;br&gt;Location: 594224 - 595154" points="166,40 173,40 178,35 173,30 166,30 166,40 " locus_tag="cds594224_595154" id="dummy-4_q0_0_all" class="clusterblast-orf" style="stroke:black; fill:#d81515; stroke-width:1; "  />
<polygon description="&lt;b&gt;cds595271_597458&lt;/b&gt;&lt;br&gt;Phosphate starvation-inducible protein PhoH, predicted ATPase&lt;br&gt;Location: 595271 - 597458" points="180,40 204,40 209,35 204,30 180,30 180,40 " locus_tag="cds595271_597458" id="dummy-4_q1_0_all" class="clusterblast-orf" style="stroke:black; fill:#77d815; stroke-width:1; "  />
<polygon description="&lt;b&gt;cds597480_598035&lt;/b&gt;&lt;br&gt;Metal-dependent hydrolase YbeY, involved in rRNA and/or ribosome maturation and assembly&lt;br&gt;Location: 597480 - 598035" points="209,40 211,40 216,35 211,30 209,30 209,40 " locus_tag="cds597480_598035" id="dummy-4_q2_0_all" class="clusterblast-orf" style="stroke:black; fill:#15d8d8; stroke-width:1; "  />
<polygon description="&lt;b&gt;cds598031_599393&lt;/b&gt;&lt;br&gt;Magnesium and cobalt efflux protein CorC&lt;br&gt;Location: 598031 - 599393" points="216,40 229,40 234,35 229,30 216,30 216,40 " locus_tag="cds598031_599393" id="dummy-4_q3_0_all" class="clusterblast-orf" style="stroke:black; fill:#7715d8; stroke-width:1; "  />
<polygon description="&lt;b&gt;cds599385_599796&lt;/b&gt;&lt;br&gt;Uncharacterized protein SCO2538&lt;br&gt;Location: 599385 - 599796" points="234,40 235,40 240,35 235,30 234,30 234,40 " locus_tag="cds599385_599796" id="dummy-4_q4_0_all" class="clusterblast-orf" style="stroke:black; fill:#d84615; stroke-width:1; "  />
<polygon description="&lt;b&gt;cds599792_600719&lt;/b&gt;&lt;br&gt;GTP-binding protein Era&lt;br&gt;Location: 599792 - 600719" points="240,40 247,40 252,35 247,30 240,30 240,40 " locus_tag="cds599792_600719" id="dummy-4_q5_0_all" class="clusterblast-orf" style="stroke:black; fill:#46d815; stroke-width:1; "  />
<polygon description="&lt;b&gt;cds600737_600854&lt;/b&gt;&lt;br&gt;Oxidoreductase&lt;br&gt;Location: 600737 - 600854" points="252,35 254,30 254,40 252,35 " locus_tag="cds600737_600854" id="dummy-4_q6_0_all" class="clusterblast-orf" style="stroke:black; fill:#15a7d8; stroke-width:1; "  />
<polygon description="&lt;b&gt;cds601082_601463&lt;/b&gt;&lt;br&gt;Protein of unknown function DUF1304&lt;br&gt;Location: 601082 - 601463" points="257,35 262,30 262,30 262,40 262,40 257,35 " locus_tag="cds601082_601463" id="dummy-4_q7_0_all" class="clusterblast-orf" style="stroke:black; fill:#a715d8; stroke-width:1; "  />
<polygon description="&lt;b&gt;cds601591_601723&lt;/b&gt;&lt;br&gt;hypothetical protein&lt;br&gt;Location: 601591 - 601723" points="263,40 265,35 263,30 263,40 " locus_tag="cds601591_601723" id="dummy-4_q8_0_all" class="clusterblast-orf" style="stroke:black; fill:white; stroke-width:1; "  />
<polygon description="&lt;b&gt;cds601957_603382&lt;/b&gt;&lt;br&gt;Amidase family protein MSMEG 4492&lt;br&gt;Location: 601957 - 603382" points="268,35 273,30 287,30 287,40 273,40 268,35 " locus_tag="cds601957_603382" id="dummy-4_q9_0_all" class="clusterblast-orf" style="stroke:black; fill:#d87715; stroke-width:1; "  />
<polygon description="&lt;b&gt;cds603557_603812&lt;/b&gt;&lt;br&gt;hypothetical protein&lt;br&gt;Location: 603557 - 603812" points="290,35 293,30 293,40 290,35 " locus_tag="cds603557_603812" id="dummy-4_q10_0_all" class="clusterblast-orf" style="stroke:black; fill:#15d815; stroke-width:1; "  />
<polygon description="&lt;b&gt;cds603980_604715&lt;/b&gt;&lt;br&gt;hypothetical protein&lt;br&gt;Location: 603980 - 604715" points="295,35 300,30 305,30 305,40 300,40 295,35 " locus_tag="cds603980_604715" id="dummy-4_q11_0_all" class="clusterblast-orf" style="stroke:black; fill:#1577d8; stroke-width:1; "  />
<polygon description="&lt;b&gt;cds604711_605209&lt;/b&gt;&lt;br&gt;Methylated-DNA--protein-cysteine methyltransferase (EC 2.1.1.63)&lt;br&gt;Location: 604711 - 605209" points="305,35 310,30 311,30 311,40 310,40 305,35 " locus_tag="cds604711_605209" id="dummy-4_q12_0_all" class="clusterblast-orf" style="stroke:black; fill:#d815d8; stroke-width:1; "  />
<polygon description="&lt;b&gt;cds605591_606368&lt;/b&gt;&lt;br&gt;DNA recombination and repair protein RecO&lt;br&gt;Location: 605591 - 606368" points="317,40 322,40 327,35 322,30 317,30 317,40 " locus_tag="cds605591_606368" id="dummy-4_q13_0_all" class="clusterblast-orf" style="stroke:black; fill:#d8a715; stroke-width:1; "  />
<polygon description="&lt;b&gt;cds606490_607285&lt;/b&gt;&lt;br&gt;Trans,polycis-decaprenyl diphosphate synthase (EC 2.5.1.86)&lt;br&gt;Location: 606490 - 607285" points="328,40 334,40 339,35 334,30 328,30 328,40 " locus_tag="cds606490_607285" id="dummy-4_q14_0_all" class="clusterblast-orf" style="stroke:black; fill:#15d846; stroke-width:1; "  />
<polygon description="&lt;b&gt;cds607281_607686&lt;/b&gt;&lt;br&gt;FIG025412: hypothetical protein&lt;br&gt;Location: 607281 - 607686" points="339,40 339,40 344,35 339,30 339,30 339,40 " locus_tag="cds607281_607686" id="dummy-4_q15_0_all" class="clusterblast-orf" style="stroke:black; fill:#1546d8; stroke-width:1; "  />
<polygon description="&lt;b&gt;cds607761_608442&lt;/b&gt;&lt;br&gt;Transcriptional regulator, AcrR family&lt;br&gt;Location: 607761 - 608442" points="345,40 349,40 354,35 349,30 345,30 345,40 " locus_tag="cds607761_608442" id="dummy-4_q16_0_all" class="clusterblast-orf" style="stroke:black; fill:#d815a7; stroke-width:1; "  />
<polygon description="&lt;b&gt;cds608463_609081&lt;/b&gt;&lt;br&gt;Transcriptional regulator, AcrR family&lt;br&gt;Location: 608463 - 609081" points="355,35 360,30 363,30 363,40 360,40 355,35 " locus_tag="cds608463_609081" id="dummy-4_q17_0_all" class="clusterblast-orf" style="stroke:black; fill:#d8d815; stroke-width:1; "  />
<polygon description="&lt;b&gt;cds609186_610155&lt;/b&gt;&lt;br&gt;putative membrane protein&lt;br&gt;Location: 609186 - 610155" points="364,40 372,40 377,35 372,30 364,30 364,40 " locus_tag="cds609186_610155" id="dummy-4_q18_0_all" class="clusterblast-orf" style="stroke:black; fill:#15d877; stroke-width:1; "  />
<polygon description="&lt;b&gt;cds610264_610687&lt;/b&gt;&lt;br&gt;Zinc uptake regulation protein Zur&lt;br&gt;Location: 610264 - 610687" points="379,35 384,30 384,30 384,40 384,40 379,35 " locus_tag="cds610264_610687" id="dummy-4_q19_0_all" class="clusterblast-orf" style="stroke:black; fill:#1515d8; stroke-width:1; "  />
<polygon description="&lt;b&gt;cds610686_611082&lt;/b&gt;&lt;br&gt;Transcriptional regulator in glycyl-tRNA synthetase containing cluster&lt;br&gt;Location: 610686 - 611082" points="384,35 389,30 389,30 389,40 389,40 384,35 " locus_tag="cds610686_611082" id="dummy-4_q20_0_all" class="clusterblast-orf" style="stroke:black; fill:#d81577; stroke-width:1; "  />
<polygon description="&lt;b&gt;cds611094_611211&lt;/b&gt;&lt;br&gt;hypothetical protein&lt;br&gt;Location: 611094 - 611211" points="390,35 391,30 391,40 390,35 " locus_tag="cds611094_611211" id="dummy-4_q21_0_all" class="clusterblast-orf" style="stroke:black; fill:white; stroke-width:1; "  />
<polygon description="&lt;b&gt;cds611283_612675&lt;/b&gt;&lt;br&gt;Glycyl-tRNA synthetase (EC 6.1.1.14)&lt;br&gt;Location: 611283 - 612675" points="392,40 406,40 411,35 406,30 392,30 392,40 " locus_tag="cds611283_612675" id="dummy-4_q22_0_all" class="clusterblast-orf" style="stroke:black; fill:#a7d815; stroke-width:1; "  />
<polygon description="&lt;b&gt;cds612864_613581&lt;/b&gt;&lt;br&gt;hypothetical protein&lt;br&gt;Location: 612864 - 613581" points="413,40 418,40 423,35 418,30 413,30 413,40 " locus_tag="cds612864_613581" id="dummy-4_q23_0_all" class="clusterblast-orf" style="stroke:black; fill:#15d8a7; stroke-width:1; "  />
<polygon description="&lt;b&gt;cds613587_627609&lt;/b&gt;&lt;br&gt;Polyketide synthase modules and related proteins&lt;br&gt;Location: 613587 - 627609" points="423,40 604,40 609,35 604,30 423,30 423,40 " locus_tag="cds613587_627609" id="dummy-4_q24_0_all" class="clusterblast-orf" style="stroke:black; fill:#4615d8; stroke-width:1; "  />
<polygon description="&lt;b&gt;cds627714_627978&lt;/b&gt;&lt;br&gt;hypothetical protein&lt;br&gt;Location: 627714 - 627978" points="610,40 614,35 610,30 610,40 " locus_tag="cds627714_627978" id="dummy-4_q25_0_all" class="clusterblast-orf" style="stroke:black; fill:#d81546; stroke-width:1; "  />
</g>
<g description="NZ_CP020809 (2540769-2599563): Mycobacterium dioxanotrophicus strain PH-06 ch... (25% of genes show similarity), NRPS" class="clusterblast-cluster" label="NZ_CP020809"  >
<text class="clusterblast-acc" x="5" y="70"  >
<a xlink:href="https://antismash-db.secondarymetabolites.org/area.html?record=NZ_CP020809&amp;start=2540769&amp;end=2599563" target="_blank">NZ_CP020809 (2540769-2599563)</a>: Mycobacterium dioxanotrophicus strain PH-06 ch... (25% of genes show similarity), NRPS</text>
<line x2="778.0" x1="10" y2="85" y1="85" style="stroke:grey; stroke-width:1; "  />
</g>
<g id="a4_000"  >
<polygon description="&lt;b&gt;BTO20_RS12310&lt;/b&gt;&lt;br&gt;hypothetical protein&lt;br&gt;Location: 2540770 - 2541693" points="0,85 5,80 12,80 12,90 5,90 0,85 " locus_tag="BTO20_RS12310" id="dummy-4_h4_9_0" class="clusterblast-orf" style="stroke:black; fill:white; stroke-width:1; "  />
</g>
<g id="a4_001"  >
<polygon description="&lt;b&gt;BTO20_RS12315&lt;/b&gt;&lt;br&gt;TQXA domain-containing protein&lt;br&gt;Location: 2542060 - 2543250" points="17,90 27,90 32,85 27,80 17,80 17,90 " locus_tag="BTO20_RS12315" id="dummy-4_h4_9_1" class="clusterblast-orf" style="stroke:black; fill:white; stroke-width:1; "  />
</g>
<g id="a4_002"  >
<polygon description="&lt;b&gt;BTO20_RS12320&lt;/b&gt;&lt;br&gt;glycoside hydrolase family 15 protein&lt;br&gt;Location: 2543258 - 2545285" points="33,85 38,80 59,80 59,90 38,90 33,85 " locus_tag="BTO20_RS12320" id="dummy-4_h4_9_2" class="clusterblast-orf" style="stroke:black; fill:white; stroke-width:1; "  />
</g>
<g id="a4_003"  >
<polygon description="&lt;b&gt;BTO20_RS12325&lt;/b&gt;&lt;br&gt;hypothetical protein&lt;br&gt;Location: 2545392 - 2545598" points="61,90 64,85 61,80 61,90 " locus_tag="BTO20_RS12325" id="dummy-4_h4_9_3" class="clusterblast-orf" style="stroke:black; fill:white; stroke-width:1; "  />
</g>
<g id="a4_004"  >
<polygon description="&lt;b&gt;BTO20_RS12330&lt;/b&gt;&lt;br&gt;sulfate ABC transporter substrate-binding protein&lt;br&gt;Location: 2545968 - 2547008" points="68,90 77,90 82,85 77,80 68,80 68,90 " locus_tag="BTO20_RS12330" id="dummy-4_h4_9_4" class="clusterblast-orf" style="stroke:black; fill:white; stroke-width:1; "  />
</g>
<g id="a4_005"  >
<polygon description="&lt;b&gt;BTO20_RS12335&lt;/b&gt;&lt;br&gt;sulfate ABC transporter permease subunit CysT&lt;br&gt;Location: 2547005 - 2547871" points="82,90 89,90 94,85 89,80 82,80 82,90 " locus_tag="BTO20_RS12335" id="dummy-4_h4_9_5" class="clusterblast-orf" style="stroke:black; fill:white; stroke-width:1; "  />
</g>
<g id="a4_006"  >
<polygon description="&lt;b&gt;BTO20_RS12340&lt;/b&gt;&lt;br&gt;sulfate ABC transporter permease subunit CysW&lt;br&gt;Location: 2547868 - 2548689" points="94,90 100,90 105,85 100,80 94,80 94,90 " locus_tag="BTO20_RS12340" id="dummy-4_h4_9_6" class="clusterblast-orf" style="stroke:black; fill:white; stroke-width:1; "  />
</g>
<g id="a4_007"  >
<polygon description="&lt;b&gt;BTO20_RS12345&lt;/b&gt;&lt;br&gt;sulfate ABC transporter ATP-binding protein&lt;br&gt;Location: 2548711 - 2549760" points="105,90 114,90 119,85 114,80 105,80 105,90 " locus_tag="BTO20_RS12345" id="dummy-4_h4_9_7" class="clusterblast-orf" style="stroke:black; fill:white; stroke-width:1; "  />
</g>
<g id="a4_008"  >
<polygon description="&lt;b&gt;BTO20_RS12350&lt;/b&gt;&lt;br&gt;metal-sensitive transcriptional regulator&lt;br&gt;Location: 2549766 - 2550035" points="119,85 122,80 122,90 119,85 " locus_tag="BTO20_RS12350" id="dummy-4_h4_9_8" class="clusterblast-orf" style="stroke:black; fill:white; stroke-width:1; "  />
</g>
<g id="a4_009"  >
<polygon description="&lt;b&gt;BTO20_RS12355&lt;/b&gt;&lt;br&gt;sulfite exporter TauE/SafE family protein&lt;br&gt;Location: 2550102 - 2550968" points="123,85 128,80 135,80 135,90 128,90 123,85 " locus_tag="BTO20_RS12355" id="dummy-4_h4_9_9" class="clusterblast-orf" style="stroke:black; fill:white; stroke-width:1; "  />
</g>
<g id="a4_0010"  >
<polygon description="&lt;b&gt;BTO20_RS12360&lt;/b&gt;&lt;br&gt;NAD(P)/FAD-dependent oxidoreductase&lt;br&gt;Location: 2550974 - 2552182" points="135,85 140,80 151,80 151,90 140,90 135,85 " locus_tag="BTO20_RS12360" id="dummy-4_h4_9_10" class="clusterblast-orf" style="stroke:black; fill:white; stroke-width:1; "  />
</g>
<g id="a4_0011"  >
<polygon description="&lt;b&gt;BTO20_RS12365&lt;/b&gt;&lt;br&gt;MBL fold metallo-hydrolase&lt;br&gt;Location: 2552200 - 2553576" points="151,85 156,80 169,80 169,90 156,90 151,85 " locus_tag="BTO20_RS12365" id="dummy-4_h4_9_11" class="clusterblast-orf" style="stroke:black; fill:white; stroke-width:1; "  />
</g>
<g id="a4_0012"  >
<polygon description="&lt;b&gt;BTO20_RS12370&lt;/b&gt;&lt;br&gt;sirohydrochlorin chelatase&lt;br&gt;Location: 2553923 - 2554657" points="174,85 179,80 184,80 184,90 179,90 174,85 " locus_tag="BTO20_RS12370" id="dummy-4_h4_9_12" class="clusterblast-orf" style="stroke:black; fill:white; stroke-width:1; "  />
</g>
<g id="a4_0013"  >
<polygon description="&lt;b&gt;BTO20_RS12375&lt;/b&gt;&lt;br&gt;phosphoadenylyl-sulfate reductase&lt;br&gt;Location: 2554636 - 2555370" points="183,85 188,80 193,80 193,90 188,90 183,85 " locus_tag="BTO20_RS12375" id="dummy-4_h4_9_13" class="clusterblast-orf" style="stroke:black; fill:white; stroke-width:1; "  />
</g>
<g id="a4_0014"  >
<polygon description="&lt;b&gt;BTO20_RS12380&lt;/b&gt;&lt;br&gt;nitrite/sulfite reductase&lt;br&gt;Location: 2555400 - 2557082" points="194,85 199,80 216,80 216,90 199,90 194,85 " locus_tag="BTO20_RS12380" id="dummy-4_h4_9_14" class="clusterblast-orf" style="stroke:black; fill:white; stroke-width:1; "  />
</g>
<g id="a4_0015"  >
<polygon description="&lt;b&gt;BTO20_RS12385&lt;/b&gt;&lt;br&gt;coproporphyrinogen III oxidase&lt;br&gt;Location: 2557408 - 2558553" points="220,90 230,90 235,85 230,80 220,80 220,90 " locus_tag="BTO20_RS12385" id="dummy-4_h4_9_15" class="clusterblast-orf" style="stroke:black; fill:white; stroke-width:1; "  />
</g>
<g id="a4_0016"  >
<polygon description="&lt;b&gt;BTO20_RS12390&lt;/b&gt;&lt;br&gt;salicylate synthase&lt;br&gt;Location: 2558623 - 2559972" points="236,90 249,90 254,85 249,80 236,80 236,90 " locus_tag="BTO20_RS12390" id="dummy-4_h4_9_16" class="clusterblast-orf" style="stroke:black; fill:white; stroke-width:1; "  />
</g>
<g id="a4_0017"  >
<polygon description="&lt;b&gt;BTO20_RS12395&lt;/b&gt;&lt;br&gt;AMP-binding protein&lt;br&gt;Location: 2560040 - 2561704" points="255,85 260,80 277,80 277,90 260,90 255,85 " locus_tag="BTO20_RS12395" id="dummy-4_h4_9_17" class="clusterblast-orf" style="stroke:black; fill:white; stroke-width:1; "  />
</g>
<g id="a4_0018"  >
<polygon description="&lt;b&gt;BTO20_RS12400&lt;/b&gt;&lt;br&gt;non-ribosomal peptide synthetase&lt;br&gt;Location: 2561811 - 2565284" points="279,90 320,90 325,85 320,80 279,80 279,90 " locus_tag="BTO20_RS12400" id="dummy-4_h4_9_18" class="clusterblast-orf" style="stroke:black; fill:white; stroke-width:1; "  />
</g>
<g id="a4_0019"  >
<polygon description="&lt;b&gt;BTO20_RS12405&lt;/b&gt;&lt;br&gt;thioesterase&lt;br&gt;Location: 2565281 - 2566027" points="325,90 330,90 335,85 330,80 325,80 325,90 " locus_tag="BTO20_RS12405" id="dummy-4_h4_9_19" class="clusterblast-orf" style="stroke:black; fill:white; stroke-width:1; "  />
</g>
<g id="a4_0020"  >
<polygon description="&lt;b&gt;BTO20_RS12410&lt;/b&gt;&lt;br&gt;polyketide synthase&lt;br&gt;Location: 2566017 - 2567339" points="334,90 347,90 352,85 347,80 334,80 334,90 " locus_tag="BTO20_RS12410" id="dummy-4_h4_9_20" class="clusterblast-orf" style="stroke:black; fill:white; stroke-width:1; "  />
</g>
<g id="a4_0021"  >
<polygon description="&lt;b&gt;BTO20_RS12415&lt;/b&gt;&lt;br&gt;mycobactin polyketide synthase MbtD&lt;br&gt;Location: 2567339 - 2570272" points="352,90 386,90 391,85 386,80 352,80 352,90 " locus_tag="BTO20_RS12415" id="dummy-4_h4_9_21" class="clusterblast-orf" style="stroke:black; fill:white; stroke-width:1; "  />
</g>
<g id="a4_0022"  >
<polygon description="&lt;b&gt;BTO20_RS12420&lt;/b&gt;&lt;br&gt;non-ribosomal peptide synthetase&lt;br&gt;Location: 2570265 - 2575679" points="391,90 458,90 463,85 458,80 391,80 391,90 " locus_tag="BTO20_RS12420" id="dummy-4_h4_9_22" class="clusterblast-orf" style="stroke:black; fill:white; stroke-width:1; "  />
</g>
<g id="a4_0023"  >
<polygon description="&lt;b&gt;BTO20_RS12425&lt;/b&gt;&lt;br&gt;non-ribosomal peptide synthetase&lt;br&gt;Location: 2575676 - 2580064" points="463,90 516,90 521,85 516,80 463,80 463,90 " locus_tag="BTO20_RS12425" id="dummy-4_h4_9_23" class="clusterblast-orf" style="stroke:black; fill:white; stroke-width:1; "  />
</g>
<g id="a4_0024"  >
<polygon description="&lt;b&gt;BTO20_RS12430&lt;/b&gt;&lt;br&gt;SidA/IucD/PvdA family monooxygenase&lt;br&gt;Location: 2580061 - 2581341" points="521,90 533,90 538,85 533,80 521,80 521,90 " locus_tag="BTO20_RS12430" id="dummy-4_h4_9_24" class="clusterblast-orf" style="stroke:black; fill:white; stroke-width:1; "  />
</g>
<g id="a4_0025"  >
<polygon description="&lt;b&gt;BTO20_RS12435&lt;/b&gt;&lt;br&gt;MbtH family protein&lt;br&gt;Location: 2581382 - 2581594" points="538,90 541,85 538,80 538,90 " locus_tag="BTO20_RS12435" id="dummy-4_h4_9_25" class="clusterblast-orf" style="stroke:black; fill:white; stroke-width:1; "  />
</g>
<g id="a4_0026"  >
<polygon description="&lt;b&gt;BTO20_RS12440&lt;/b&gt;&lt;br&gt;type II toxin-antitoxin system VapB family antitoxin&lt;br&gt;Location: 2581609 - 2581920" points="541,85 545,80 545,90 541,85 " locus_tag="BTO20_RS12440" id="dummy-4_h4_9_26" class="clusterblast-orf" style="stroke:black; fill:white; stroke-width:1; "  />
</g>
<g id="a4_0027"  >
<polygon description="&lt;b&gt;BTO20_RS12445&lt;/b&gt;&lt;br&gt;heat-inducible transcriptional repressor HrcA&lt;br&gt;Location: 2582093 - 2583124" points="548,90 556,90 561,85 556,80 548,80 548,90 " locus_tag="BTO20_RS12445" id="dummy-4_h4_9_27" class="clusterblast-orf" style="stroke:black; fill:white; stroke-width:1; "  />
</g>
<g id="a4_0028"  >
<polygon description="&lt;b&gt;BTO20_RS12450&lt;/b&gt;&lt;br&gt;molecular chaperone DnaJ&lt;br&gt;Location: 2583146 - 2584297" points="562,90 572,90 577,85 572,80 562,80 562,90 " locus_tag="BTO20_RS12450" id="dummy-4_h4_9_28" class="clusterblast-orf" style="stroke:black; fill:white; stroke-width:1; "  />
</g>
<g id="a4_0029"  >
<polygon description="&lt;b&gt;BTO20_RS12455&lt;/b&gt;&lt;br&gt;16S rRNA (uracil(1498)-N(3))-methyltransferase&lt;br&gt;Location: 2584313 - 2585062" points="577,90 582,90 587,85 582,80 577,80 577,90 " locus_tag="BTO20_RS12455" id="dummy-4_h4_9_29" class="clusterblast-orf" style="stroke:black; fill:white; stroke-width:1; "  />
</g>
<g id="a4_0030"  >
<polygon description="&lt;b&gt;BTO20_RS12460&lt;/b&gt;&lt;br&gt;hypothetical protein&lt;br&gt;Location: 2585256 - 2585423" points="590,90 592,85 590,80 590,90 " locus_tag="BTO20_RS12460" id="dummy-4_h4_9_30" class="clusterblast-orf" style="stroke:black; fill:white; stroke-width:1; "  />
</g>
<g id="a4_0031"  >
<polygon description="&lt;b&gt;BTO20_RS12465&lt;/b&gt;&lt;br&gt;phosphate starvation-inducible protein PhoH&lt;br&gt;Location: 2585586 - 2587709&lt;br&gt;&lt;br&gt;&lt;b&gt;BlastP hit with cds595271_597458&lt;/b&gt;&lt;br&gt;Percentage identity: 78&lt;br&gt;Percentage coverage: 97&lt;br&gt;BLAST bit score: 1093&lt;br&gt;E-value: 0.0" points="594,90 617,90 622,85 617,80 594,80 594,90 " locus_tag="BTO20_RS12465" id="dummy-4_h4_9_31" class="clusterblast-orf" style="stroke:black; fill:#77d815; stroke-width:1; "  />
</g>
<g id="a4_0032"  >
<polygon description="&lt;b&gt;BTO20_RS12470&lt;/b&gt;&lt;br&gt;rRNA maturation RNase YbeY&lt;br&gt;Location: 2587706 - 2588242&lt;br&gt;&lt;br&gt;&lt;b&gt;BlastP hit with cds597480_598035&lt;/b&gt;&lt;br&gt;Percentage identity: 75&lt;br&gt;Percentage coverage: 95&lt;br&gt;BLAST bit score: 264&lt;br&gt;E-value: 6.3e-69" points="622,90 624,90 629,85 624,80 622,80 622,90 " locus_tag="BTO20_RS12470" id="dummy-4_h4_9_32" class="clusterblast-orf" style="stroke:black; fill:#15d8d8; stroke-width:1; "  />
</g>
<g id="a4_0033"  >
<polygon description="&lt;b&gt;BTO20_RS12475&lt;/b&gt;&lt;br&gt;HlyC/CorC family transporter&lt;br&gt;Location: 2588239 - 2589570&lt;br&gt;&lt;br&gt;&lt;b&gt;BlastP hit with cds598031_599393&lt;/b&gt;&lt;br&gt;Percentage identity: 68&lt;br&gt;Percentage coverage: 92&lt;br&gt;BLAST bit score: 527&lt;br&gt;E-value: 9.7e-148" points="629,90 642,90 647,85 642,80 629,80 629,90 " locus_tag="BTO20_RS12475" id="dummy-4_h4_9_33" class="clusterblast-orf" style="stroke:black; fill:#7715d8; stroke-width:1; "  />
</g>
<g id="a4_0034"  >
<polygon description="&lt;b&gt;BTO20_RS12480&lt;/b&gt;&lt;br&gt;cytidine deaminase&lt;br&gt;Location: 2589557 - 2589874&lt;br&gt;&lt;br&gt;&lt;b&gt;BlastP hit with cds599385_599796&lt;/b&gt;&lt;br&gt;Percentage identity: 67&lt;br&gt;Percentage coverage: 75&lt;br&gt;BLAST bit score: 119&lt;br&gt;E-value: 2.4e-25" points="647,90 651,85 647,80 647,90 " locus_tag="BTO20_RS12480" id="dummy-4_h4_9_34" class="clusterblast-orf" style="stroke:black; fill:#d84615; stroke-width:1; "  />
</g>
<g id="a4_0035"  >
<polygon description="&lt;b&gt;BTO20_RS12485&lt;/b&gt;&lt;br&gt;GTPase Era&lt;br&gt;Location: 2589871 - 2590779&lt;br&gt;&lt;br&gt;&lt;b&gt;BlastP hit with cds599792_600719&lt;/b&gt;&lt;br&gt;Percentage identity: 74&lt;br&gt;Percentage coverage: 99&lt;br&gt;BLAST bit score: 468&lt;br&gt;E-value: 3.7e-130" points="651,90 658,90 663,85 658,80 651,80 651,90 " locus_tag="BTO20_RS12485" id="dummy-4_h4_9_35" class="clusterblast-orf" style="stroke:black; fill:#46d815; stroke-width:1; "  />
</g>
<g id="a4_0036"  >
<polygon description="&lt;b&gt;BTO20_RS12490&lt;/b&gt;&lt;br&gt;hypothetical protein&lt;br&gt;Location: 2590783 - 2591445" points="663,85 668,80 672,80 672,90 668,90 663,85 " locus_tag="BTO20_RS12490" id="dummy-4_h4_9_36" class="clusterblast-orf" style="stroke:black; fill:white; stroke-width:1; "  />
</g>
<g id="a4_0037"  >
<polygon description="&lt;b&gt;BTO20_RS12495&lt;/b&gt;&lt;br&gt;amidase&lt;br&gt;Location: 2591666 - 2593114&lt;br&gt;&lt;br&gt;&lt;b&gt;BlastP hit with cds601957_603382&lt;/b&gt;&lt;br&gt;Percentage identity: 53&lt;br&gt;Percentage coverage: 98&lt;br&gt;BLAST bit score: 443&lt;br&gt;E-value: 1.9e-122" points="675,85 680,80 694,80 694,90 680,90 675,85 " locus_tag="BTO20_RS12495" id="dummy-4_h4_9_37" class="clusterblast-orf" style="stroke:black; fill:#d87715; stroke-width:1; "  />
</g>
<g id="a4_0038"  >
<polygon description="&lt;b&gt;BTO20_RS12500&lt;/b&gt;&lt;br&gt;DNA repair protein RecO&lt;br&gt;Location: 2593178 - 2594020&lt;br&gt;&lt;br&gt;&lt;b&gt;BlastP hit with cds605591_606368&lt;/b&gt;&lt;br&gt;Percentage identity: 76&lt;br&gt;Percentage coverage: 94&lt;br&gt;BLAST bit score: 371&lt;br&gt;E-value: 5.1e-101" points="695,90 701,90 706,85 701,80 695,80 695,90 " locus_tag="BTO20_RS12500" id="dummy-4_h4_9_38" class="clusterblast-orf" style="stroke:black; fill:#d8a715; stroke-width:1; "  />
</g>
<g id="a4_0039"  >
<polygon description="&lt;b&gt;BTO20_RS12505&lt;/b&gt;&lt;br&gt;decaprenyl diphosphate synthase&lt;br&gt;Location: 2593968 - 2594852&lt;br&gt;&lt;br&gt;&lt;b&gt;BlastP hit with cds606490_607285&lt;/b&gt;&lt;br&gt;Percentage identity: 63&lt;br&gt;Percentage coverage: 94&lt;br&gt;BLAST bit score: 334&lt;br&gt;E-value: 7.1e-90" points="705,90 712,90 717,85 712,80 705,80 705,90 " locus_tag="BTO20_RS12505" id="dummy-4_h4_9_39" class="clusterblast-orf" style="stroke:black; fill:#15d846; stroke-width:1; "  />
</g>
<g id="a4_0040"  >
<polygon description="&lt;b&gt;BTO20_RS12510&lt;/b&gt;&lt;br&gt;hypothetical protein&lt;br&gt;Location: 2594849 - 2595295&lt;br&gt;&lt;br&gt;&lt;b&gt;BlastP hit with cds607281_607686&lt;/b&gt;&lt;br&gt;Percentage identity: 35&lt;br&gt;Percentage coverage: 112&lt;br&gt;BLAST bit score: 83&lt;br&gt;E-value: 1.9e-14" points="717,90 718,90 723,85 718,80 717,80 717,90 " locus_tag="BTO20_RS12510" id="dummy-4_h4_9_40" class="clusterblast-orf" style="stroke:black; fill:#1546d8; stroke-width:1; "  />
</g>
<g id="a4_0041"  >
<polygon description="&lt;b&gt;BTO20_RS12515&lt;/b&gt;&lt;br&gt;NUDIX domain-containing protein&lt;br&gt;Location: 2595292 - 2595699" points="723,90 723,90 728,85 723,80 723,80 723,90 " locus_tag="BTO20_RS12515" id="dummy-4_h4_9_41" class="clusterblast-orf" style="stroke:black; fill:white; stroke-width:1; "  />
</g>
<g id="a4_0042"  >
<polygon description="&lt;b&gt;BTO20_RS12520&lt;/b&gt;&lt;br&gt;transcriptional repressor&lt;br&gt;Location: 2595688 - 2596086&lt;br&gt;&lt;br&gt;&lt;b&gt;BlastP hit with cds610264_610687&lt;/b&gt;&lt;br&gt;Percentage identity: 71&lt;br&gt;Percentage coverage: 90&lt;br&gt;BLAST bit score: 180&lt;br&gt;E-value: 9e-44" points="728,85 733,80 733,80 733,90 733,90 728,85 " locus_tag="BTO20_RS12520" id="dummy-4_h4_9_42" class="clusterblast-orf" style="stroke:black; fill:#1515d8; stroke-width:1; "  />
</g>
<g id="a4_0043"  >
<polygon description="&lt;b&gt;BTO20_RS12525&lt;/b&gt;&lt;br&gt;winged helix-turn-helix transcriptional regulator&lt;br&gt;Location: 2596083 - 2596472&lt;br&gt;&lt;br&gt;&lt;b&gt;BlastP hit with cds610686_611082&lt;/b&gt;&lt;br&gt;Percentage identity: 79&lt;br&gt;Percentage coverage: 73&lt;br&gt;BLAST bit score: 148&lt;br&gt;E-value: 6.1e-34" points="733,85 738,80 738,80 738,90 738,90 733,85 " locus_tag="BTO20_RS12525" id="dummy-4_h4_9_43" class="clusterblast-orf" style="stroke:black; fill:#d81577; stroke-width:1; "  />
</g>
<g id="a4_0044"  >
<polygon description="&lt;b&gt;BTO20_RS12530&lt;/b&gt;&lt;br&gt;glycine--tRNA ligase&lt;br&gt;Location: 2596560 - 2597945&lt;br&gt;&lt;br&gt;&lt;b&gt;BlastP hit with cds611283_612675&lt;/b&gt;&lt;br&gt;Percentage identity: 83&lt;br&gt;Percentage coverage: 99&lt;br&gt;BLAST bit score: 814&lt;br&gt;E-value: 4.1e-234" points="740,90 753,90 758,85 753,80 740,80 740,90 " locus_tag="BTO20_RS12530" id="dummy-4_h4_9_44" class="clusterblast-orf" style="stroke:black; fill:#a7d815; stroke-width:1; "  />
</g>
<g id="a4_0045"  >
<polygon description="&lt;b&gt;BTO20_RS12535&lt;/b&gt;&lt;br&gt;hypothetical protein&lt;br&gt;Location: 2598094 - 2598541" points="760,85 765,80 766,80 766,90 765,90 760,85 " locus_tag="BTO20_RS12535" id="dummy-4_h4_9_45" class="clusterblast-orf" style="stroke:black; fill:white; stroke-width:1; "  />
</g>
<g id="a4_0046"  >
<polygon description="&lt;b&gt;BTO20_RS12540&lt;/b&gt;&lt;br&gt;alcohol dehydrogenase catalytic domain-containing protein&lt;br&gt;Location: 2598538 - 2599563" points="766,85 771,80 780,80 780,90 771,90 766,85 " locus_tag="BTO20_RS12540" id="dummy-4_h4_9_46" class="clusterblast-orf" style="stroke:black; fill:white; stroke-width:1; "  />
</g>
</svg>
