<svg preserveAspectRatio="none" xmlns:xlink="http://www.w3.org/1999/xlink" version="1.1" xmlns="http://www.w3.org/2000/svg" height="230" viewBox="0 0 800 230" width="800" x="0" y="0"  >
<g class="clusterblast-cluster" label="Query sequence"  >
<text class="clusterblast-acc" x="5" y="20"  >
Query sequence</text>
<line x2="778.0" x1="10" y2="35" y1="35" style="stroke:grey; stroke-width:1; "  />
<polygon description="&lt;b&gt;cds112882_113350&lt;/b&gt;&lt;br&gt;hypothetical protein&lt;br&gt;Location: 112882 - 113350" points="101,35 106,30 107,30 107,40 106,40 101,35 " locus_tag="cds112882_113350" id="dummy-2_q0_0_all" class="clusterblast-orf" style="stroke:black; fill:#d81515; stroke-width:1; "  />
<polygon description="&lt;b&gt;cds113385_113508&lt;/b&gt;&lt;br&gt;hypothetical protein&lt;br&gt;Location: 113385 - 113508" points="107,40 109,35 107,30 107,40 " locus_tag="cds113385_113508" id="dummy-2_q1_0_all" class="clusterblast-orf" style="stroke:black; fill:white; stroke-width:1; "  />
<polygon description="&lt;b&gt;cds113720_115328&lt;/b&gt;&lt;br&gt;hypothetical protein&lt;br&gt;Location: 113720 - 115328" points="112,35 117,30 133,30 133,40 117,40 112,35 " locus_tag="cds113720_115328" id="dummy-2_q2_0_all" class="clusterblast-orf" style="stroke:black; fill:#77d815; stroke-width:1; "  />
<polygon description="&lt;b&gt;cds115573_117232&lt;/b&gt;&lt;br&gt;DNA repair helicase&lt;br&gt;Location: 115573 - 117232" points="136,40 153,40 158,35 153,30 136,30 136,40 " locus_tag="cds115573_117232" id="dummy-2_q3_0_all" class="clusterblast-orf" style="stroke:black; fill:#15d8d8; stroke-width:1; "  />
<polygon description="&lt;b&gt;cds117275_117950&lt;/b&gt;&lt;br&gt;putative membrane protein&lt;br&gt;Location: 117275 - 117950" points="159,40 163,40 168,35 163,30 159,30 159,40 " locus_tag="cds117275_117950" id="dummy-2_q4_0_all" class="clusterblast-orf" style="stroke:black; fill:#7715d8; stroke-width:1; "  />
<polygon description="&lt;b&gt;cds117994_118633&lt;/b&gt;&lt;br&gt;COG1280: Putative threonine efflux protein&lt;br&gt;Location: 117994 - 118633" points="169,40 172,40 177,35 172,30 169,30 169,40 " locus_tag="cds117994_118633" id="dummy-2_q5_0_all" class="clusterblast-orf" style="stroke:black; fill:#d83a15; stroke-width:1; "  />
<polygon description="&lt;b&gt;cds118688_120098&lt;/b&gt;&lt;br&gt;putative metallopeptidase&lt;br&gt;Location: 118688 - 120098" points="178,40 192,40 197,35 192,30 178,30 178,40 " locus_tag="cds118688_120098" id="dummy-2_q6_0_all" class="clusterblast-orf" style="stroke:black; fill:#52d815; stroke-width:1; "  />
<polygon description="&lt;b&gt;cds120165_120810&lt;/b&gt;&lt;br&gt;Threonine efflux protein&lt;br&gt;Location: 120165 - 120810" points="197,40 201,40 206,35 201,30 197,30 197,40 " locus_tag="cds120165_120810" id="dummy-2_q7_0_all" class="clusterblast-orf" style="stroke:black; fill:#d83a15; stroke-width:1; "  />
<polygon description="&lt;b&gt;cds120894_122070&lt;/b&gt;&lt;br&gt;Glutamine-dependent 2-keto-4-methylthiobutyrate transaminase&lt;br&gt;Location: 120894 - 122070" points="207,35 212,30 223,30 223,40 212,40 207,35 " locus_tag="cds120894_122070" id="dummy-2_q8_0_all" class="clusterblast-orf" style="stroke:black; fill:#15b4d8; stroke-width:1; "  />
<polygon description="&lt;b&gt;cds122244_122511&lt;/b&gt;&lt;br&gt;hypothetical protein&lt;br&gt;Location: 122244 - 122511" points="225,40 229,35 225,30 225,40 " locus_tag="cds122244_122511" id="dummy-2_q9_0_all" class="clusterblast-orf" style="stroke:black; fill:#9b15d8; stroke-width:1; "  />
<polygon description="&lt;b&gt;cds122639_123566&lt;/b&gt;&lt;br&gt;hypothetical protein&lt;br&gt;Location: 122639 - 123566" points="230,35 235,30 243,30 243,40 235,40 230,35 " locus_tag="cds122639_123566" id="dummy-2_q10_0_all" class="clusterblast-orf" style="stroke:black; fill:#d85e15; stroke-width:1; "  />
<polygon description="&lt;b&gt;cds123594_124182&lt;/b&gt;&lt;br&gt;Acetyltransferase&lt;br&gt;Location: 123594 - 124182" points="243,40 246,40 251,35 246,30 243,30 243,40 " locus_tag="cds123594_124182" id="dummy-2_q11_0_all" class="clusterblast-orf" style="stroke:black; fill:#2ed815; stroke-width:1; "  />
<polygon description="&lt;b&gt;cds124338_125529&lt;/b&gt;&lt;br&gt;hypothetical protein&lt;br&gt;Location: 124338 - 125529" points="253,40 264,40 269,35 264,30 253,30 253,40 " locus_tag="cds124338_125529" id="dummy-2_q12_0_all" class="clusterblast-orf" style="stroke:black; fill:#158fd8; stroke-width:1; "  />
<polygon description="&lt;b&gt;cds125585_125828&lt;/b&gt;&lt;br&gt;hypothetical protein&lt;br&gt;Location: 125585 - 125828" points="270,40 273,35 270,30 270,40 " locus_tag="cds125585_125828" id="dummy-2_q13_0_all" class="clusterblast-orf" style="stroke:black; fill:#c015d8; stroke-width:1; "  />
<polygon description="&lt;b&gt;cds125824_126259&lt;/b&gt;&lt;br&gt;hypothetical protein&lt;br&gt;Location: 125824 - 126259" points="273,40 273,40 278,35 273,30 273,30 273,40 " locus_tag="cds125824_126259" id="dummy-2_q14_0_all" class="clusterblast-orf" style="stroke:black; fill:white; stroke-width:1; "  />
<polygon description="&lt;b&gt;cds126312_126846&lt;/b&gt;&lt;br&gt;hypothetical protein&lt;br&gt;Location: 126312 - 126846" points="279,40 281,40 286,35 281,30 279,30 279,40 " locus_tag="cds126312_126846" id="dummy-2_q15_0_all" class="clusterblast-orf" style="stroke:black; fill:#d88315; stroke-width:1; "  />
<polygon description="&lt;b&gt;cds126962_128051&lt;/b&gt;&lt;br&gt;2-keto-3-deoxy-D-arabino-heptulosonate-7- phosphate synthase I alpha (EC 2.5.1.54)&lt;br&gt;Location: 126962 - 128051" points="288,35 293,30 302,30 302,40 293,40 288,35 " locus_tag="cds126962_128051" id="dummy-2_q16_0_all" class="clusterblast-orf" style="stroke:black; fill:#15d821; stroke-width:1; "  />
<polygon description="&lt;b&gt;cds128319_128466&lt;/b&gt;&lt;br&gt;hypothetical protein&lt;br&gt;Location: 128319 - 128466" points="306,35 308,30 308,40 306,35 " locus_tag="cds128319_128466" id="dummy-2_q17_0_all" class="clusterblast-orf" style="stroke:black; fill:white; stroke-width:1; "  />
<polygon description="&lt;b&gt;cds128521_129409&lt;/b&gt;&lt;br&gt;probable oxidoreductase/Short-chain dehydrogenase&lt;br&gt;Location: 128521 - 129409" points="309,35 314,30 320,30 320,40 314,40 309,35 " locus_tag="cds128521_129409" id="dummy-2_q18_0_all" class="clusterblast-orf" style="stroke:black; fill:#156bd8; stroke-width:1; "  />
<polygon description="&lt;b&gt;cds129561_129726&lt;/b&gt;&lt;br&gt;hypothetical protein&lt;br&gt;Location: 129561 - 129726" points="322,40 325,35 322,30 322,40 " locus_tag="cds129561_129726" id="dummy-2_q19_0_all" class="clusterblast-orf" style="stroke:black; fill:#d815cc; stroke-width:1; "  />
<polygon description="&lt;b&gt;cds129719_130379&lt;/b&gt;&lt;br&gt;hypothetical protein&lt;br&gt;Location: 129719 - 130379" points="324,40 328,40 333,35 328,30 324,30 324,40 " locus_tag="cds129719_130379" id="dummy-2_q20_0_all" class="clusterblast-orf" style="stroke:black; fill:#d8a715; stroke-width:1; "  />
<polygon description="&lt;b&gt;cds130439_135266&lt;/b&gt;&lt;br&gt;Phenyloxazoline synthase (EC 6.3.2.-) [mycobactin] siderophore @ Phenyloxazoline synthase siderophore, Irp2-like&lt;br&gt;Location: 130439 - 135266" points="334,35 339,30 398,30 398,40 339,40 334,35 " locus_tag="cds130439_135266" id="dummy-2_q21_0_all" class="clusterblast-orf" style="stroke:black; fill:#15d846; stroke-width:1; "  />
<polygon description="&lt;b&gt;cds135414_137034&lt;/b&gt;&lt;br&gt;2,3-dihydroxybenzoate-AMP ligase (EC 2.7.7.58) of siderophore biosynthesis&lt;br&gt;Location: 135414 - 137034" points="400,40 417,40 422,35 417,30 400,30 400,40 " locus_tag="cds135414_137034" id="dummy-2_q22_0_all" class="clusterblast-orf" style="stroke:black; fill:#1546d8; stroke-width:1; "  />
<polygon description="&lt;b&gt;cds137266_137410&lt;/b&gt;&lt;br&gt;Salicylate synthetase (EC 5.4.4.2)(EC 4.2.99.21) @ Salicylate synthetase (EC 5.4.4.2)(EC 4.2.99.21) of siderophore biosynthesis&lt;br&gt;Location: 137266 - 137410" points="425,35 427,30 427,40 425,35 " locus_tag="cds137266_137410" id="dummy-2_q23_0_all" class="clusterblast-orf" style="stroke:black; fill:#d815a7; stroke-width:1; "  />
<polygon description="&lt;b&gt;cds137535_138891&lt;/b&gt;&lt;br&gt;Salicylate synthetase (EC 5.4.4.2)(EC 4.2.99.21) @ Salicylate synthetase (EC 5.4.4.2)(EC 4.2.99.21) of siderophore biosynthesis&lt;br&gt;Location: 137535 - 138891" points="428,35 433,30 446,30 446,40 433,40 428,35 " locus_tag="cds137535_138891" id="dummy-2_q24_0_all" class="clusterblast-orf" style="stroke:black; fill:#d815a7; stroke-width:1; "  />
<polygon description="&lt;b&gt;cds139090_141811&lt;/b&gt;&lt;br&gt;Glycerol-3-phosphate acyltransferase (EC 2.3.1.15)&lt;br&gt;Location: 139090 - 141811" points="449,40 480,40 485,35 480,30 449,30 449,40 " locus_tag="cds139090_141811" id="dummy-2_q25_0_all" class="clusterblast-orf" style="stroke:black; fill:#d8cc15; stroke-width:1; "  />
<polygon description="&lt;b&gt;cds141807_143376&lt;/b&gt;&lt;br&gt;Phosphoserine phosphatase (EC 3.1.3.3) / Acyl-CoA:1-acyl-sn-glycerol-3-phosphate acyltransferase (EC 2.3.1.51)&lt;br&gt;Location: 141807 - 143376" points="485,40 501,40 506,35 501,30 485,30 485,40 " locus_tag="cds141807_143376" id="dummy-2_q26_0_all" class="clusterblast-orf" style="stroke:black; fill:#15d86b; stroke-width:1; "  />
<polygon description="&lt;b&gt;cds143399_144119&lt;/b&gt;&lt;br&gt;Dolichol-phosphate mannosyltransferase (EC 2.4.1.83) in lipid-linked oligosaccharide synthesis cluster&lt;br&gt;Location: 143399 - 144119" points="506,35 511,30 516,30 516,40 511,40 506,35 " locus_tag="cds143399_144119" id="dummy-2_q27_0_all" class="clusterblast-orf" style="stroke:black; fill:#1521d8; stroke-width:1; "  />
<polygon description="&lt;b&gt;cds144252_144429&lt;/b&gt;&lt;br&gt;hypothetical protein&lt;br&gt;Location: 144252 - 144429" points="518,35 520,30 520,40 518,35 " locus_tag="cds144252_144429" id="dummy-2_q28_0_all" class="clusterblast-orf" style="stroke:black; fill:#d81583; stroke-width:1; "  />
<polygon description="&lt;b&gt;cds144991_145657&lt;/b&gt;&lt;br&gt;Transcriptional regulator, AcrR family&lt;br&gt;Location: 144991 - 145657" points="528,35 533,30 536,30 536,40 533,40 528,35 " locus_tag="cds144991_145657" id="dummy-2_q29_0_all" class="clusterblast-orf" style="stroke:black; fill:#c0d815; stroke-width:1; "  />
<polygon description="&lt;b&gt;cds147042_147642&lt;/b&gt;&lt;br&gt;hypothetical protein&lt;br&gt;Location: 147042 - 147642" points="555,40 558,40 563,35 558,30 555,30 555,40 " locus_tag="cds147042_147642" id="dummy-2_q30_0_all" class="clusterblast-orf" style="stroke:black; fill:#15d88f; stroke-width:1; "  />
<polygon description="&lt;b&gt;cds147794_148817&lt;/b&gt;&lt;br&gt;Fatty acid desaturase occurring in virulence cluster&lt;br&gt;Location: 147794 - 148817" points="565,40 573,40 578,35 573,30 565,30 565,40 " locus_tag="cds147794_148817" id="dummy-2_q31_0_all" class="clusterblast-orf" style="stroke:black; fill:#2e15d8; stroke-width:1; "  />
<polygon description="&lt;b&gt;cds149068_150220&lt;/b&gt;&lt;br&gt;tRNA-dihydrouridine synthase DusB&lt;br&gt;Location: 149068 - 150220" points="582,40 592,40 597,35 592,30 582,30 582,40 " locus_tag="cds149068_150220" id="dummy-2_q32_0_all" class="clusterblast-orf" style="stroke:black; fill:#d8155e; stroke-width:1; "  />
<polygon description="&lt;b&gt;cds150329_152828&lt;/b&gt;&lt;br&gt;Cell envelope-associated transcriptional attenuator LytR-CpsA-Psr, subfamily A1&lt;br&gt;Location: 150329 - 152828" points="599,40 627,40 632,35 627,30 599,30 599,40 " locus_tag="cds150329_152828" id="dummy-2_q33_0_all" class="clusterblast-orf" style="stroke:black; fill:#9bd815; stroke-width:1; "  />
<polygon description="&lt;b&gt;cds152929_153601&lt;/b&gt;&lt;br&gt;Phosphate transport system regulatory protein PhoU&lt;br&gt;Location: 152929 - 153601" points="633,40 637,40 642,35 637,30 633,30 633,40 " locus_tag="cds152929_153601" id="dummy-2_q34_0_all" class="clusterblast-orf" style="stroke:black; fill:#15d8b4; stroke-width:1; "  />
<polygon description="&lt;b&gt;cds153730_155365&lt;/b&gt;&lt;br&gt;Uncharacterized MFS-type transporter&lt;br&gt;Location: 153730 - 155365" points="644,35 649,30 666,30 666,40 649,40 644,35 " locus_tag="cds153730_155365" id="dummy-2_q35_0_all" class="clusterblast-orf" style="stroke:black; fill:#5215d8; stroke-width:1; "  />
<polygon description="&lt;b&gt;cds155578_156355&lt;/b&gt;&lt;br&gt;Phosphate ABC transporter, ATP-binding protein PstB (TC 3.A.1.7.1)&lt;br&gt;Location: 155578 - 156355" points="668,35 673,30 679,30 679,40 673,40 668,35 " locus_tag="cds155578_156355" id="dummy-2_q36_0_all" class="clusterblast-orf" style="stroke:black; fill:#d8153a; stroke-width:1; "  />
</g>
<g description="NZ_QGTL01000003 (605403-666394): Nocardia neocaledoniensis strain DSM 44717 G... (49% of genes show similarity), NRPS" class="clusterblast-cluster" label="NZ_QGTL01000003"  >
<text class="clusterblast-acc" x="5" y="70"  >
<a xlink:href="https://antismash-db.secondarymetabolites.org/area.html?record=NZ_QGTL01000003&amp;start=605403&amp;end=666394" target="_blank">NZ_QGTL01000003 (605403-666394)</a>: Nocardia neocaledoniensis strain DSM 44717 G... (49% of genes show similarity), NRPS</text>
<line x2="778.0" x1="10" y2="85" y1="85" style="stroke:grey; stroke-width:1; "  />
</g>
<g id="a2_000"  >
<polygon description="&lt;b&gt;DFR69_RS10890&lt;/b&gt;&lt;br&gt;hypothetical protein&lt;br&gt;Location: 607630 - 608139" points="0,85 5,80 6,80 6,90 5,90 0,85 " locus_tag="DFR69_RS10890" id="dummy-2_h2_6_0" class="clusterblast-orf" style="stroke:black; fill:white; stroke-width:1; "  />
</g>
<g id="a2_001"  >
<polygon description="&lt;b&gt;DFR69_RS10895&lt;/b&gt;&lt;br&gt;hypothetical protein&lt;br&gt;Location: 608249 - 609106&lt;br&gt;&lt;br&gt;&lt;b&gt;BlastP hit with cds124338_125529&lt;/b&gt;&lt;br&gt;Percentage identity: 60&lt;br&gt;Percentage coverage: 45&lt;br&gt;BLAST bit score: 189&lt;br&gt;E-value: 5.5e-46" points="8,90 14,90 19,85 14,80 8,80 8,90 " locus_tag="DFR69_RS10895" id="dummy-2_h2_6_1" class="clusterblast-orf" style="stroke:black; fill:#158fd8; stroke-width:1; "  />
</g>
<g id="a2_002"  >
<polygon description="&lt;b&gt;DFR69_RS10900&lt;/b&gt;&lt;br&gt;M1 family metallopeptidase&lt;br&gt;Location: 609111 - 610502&lt;br&gt;&lt;br&gt;&lt;b&gt;BlastP hit with cds118688_120098&lt;/b&gt;&lt;br&gt;Percentage identity: 70&lt;br&gt;Percentage coverage: 94&lt;br&gt;BLAST bit score: 647&lt;br&gt;E-value: 8.7e-184" points="19,85 24,80 38,80 38,90 24,90 19,85 " locus_tag="DFR69_RS10900" id="dummy-2_h2_6_2" class="clusterblast-orf" style="stroke:black; fill:#52d815; stroke-width:1; "  />
</g>
<g id="a2_003"  >
<polygon description="&lt;b&gt;DFR69_RS10905&lt;/b&gt;&lt;br&gt;DUF3239 domain-containing protein&lt;br&gt;Location: 610636 - 611301&lt;br&gt;&lt;br&gt;&lt;b&gt;BlastP hit with cds117275_117950&lt;/b&gt;&lt;br&gt;Percentage identity: 60&lt;br&gt;Percentage coverage: 98&lt;br&gt;BLAST bit score: 250&lt;br&gt;E-value: 1.1e-64" points="39,85 44,80 48,80 48,90 44,90 39,85 " locus_tag="DFR69_RS10905" id="dummy-2_h2_6_3" class="clusterblast-orf" style="stroke:black; fill:#7715d8; stroke-width:1; "  />
</g>
<g id="a2_004"  >
<polygon description="&lt;b&gt;DFR69_RS10910&lt;/b&gt;&lt;br&gt;DEAD/DEAH box helicase&lt;br&gt;Location: 611397 - 613064&lt;br&gt;&lt;br&gt;&lt;b&gt;BlastP hit with cds115573_117232&lt;/b&gt;&lt;br&gt;Percentage identity: 93&lt;br&gt;Percentage coverage: 100&lt;br&gt;BLAST bit score: 1028&lt;br&gt;E-value: 2.1e-298" points="50,85 55,80 72,80 72,90 55,90 50,85 " locus_tag="DFR69_RS10910" id="dummy-2_h2_6_4" class="clusterblast-orf" style="stroke:black; fill:#15d8d8; stroke-width:1; "  />
</g>
<g id="a2_005"  >
<polygon description="&lt;b&gt;DFR69_RS10915&lt;/b&gt;&lt;br&gt;LysE family translocator&lt;br&gt;Location: 613388 - 614032&lt;br&gt;&lt;br&gt;&lt;b&gt;BlastP hit with cds117994_118633&lt;/b&gt;&lt;br&gt;Percentage identity: 34&lt;br&gt;Percentage coverage: 87&lt;br&gt;BLAST bit score: 80&lt;br&gt;E-value: 2.5e-13&lt;br&gt;&lt;br&gt;&lt;b&gt;BlastP hit with cds120165_120810&lt;/b&gt;&lt;br&gt;Percentage identity: 74&lt;br&gt;Percentage coverage: 100&lt;br&gt;BLAST bit score: 303&lt;br&gt;E-value: 1.4e-80" points="76,90 80,90 85,85 80,80 76,80 76,90 " locus_tag="DFR69_RS10915" id="dummy-2_h2_6_5" class="clusterblast-orf" style="stroke:black; fill:#d83a15; stroke-width:1; "  />
</g>
<g id="a2_006"  >
<polygon description="&lt;b&gt;DFR69_RS10920&lt;/b&gt;&lt;br&gt;trimeric intracellular cation channel family protein&lt;br&gt;Location: 614137 - 614814" points="86,90 90,90 95,85 90,80 86,80 86,90 " locus_tag="DFR69_RS10920" id="dummy-2_h2_6_6" class="clusterblast-orf" style="stroke:black; fill:white; stroke-width:1; "  />
</g>
<g id="a2_007"  >
<polygon description="&lt;b&gt;DFR69_RS10925&lt;/b&gt;&lt;br&gt;pyridoxal phosphate-dependent aminotransferase&lt;br&gt;Location: 614877 - 616055&lt;br&gt;&lt;br&gt;&lt;b&gt;BlastP hit with cds120894_122070&lt;/b&gt;&lt;br&gt;Percentage identity: 81&lt;br&gt;Percentage coverage: 99&lt;br&gt;BLAST bit score: 632&lt;br&gt;E-value: 2.4e-179" points="96,85 101,80 112,80 112,90 101,90 96,85 " locus_tag="DFR69_RS10925" id="dummy-2_h2_6_7" class="clusterblast-orf" style="stroke:black; fill:#15b4d8; stroke-width:1; "  />
</g>
<g id="a2_008"  >
<polygon description="&lt;b&gt;DFR69_RS10930&lt;/b&gt;&lt;br&gt;hypothetical protein&lt;br&gt;Location: 616230 - 616445" points="114,90 117,85 114,80 114,90 " locus_tag="DFR69_RS10930" id="dummy-2_h2_6_8" class="clusterblast-orf" style="stroke:black; fill:white; stroke-width:1; "  />
</g>
<g id="a2_009"  >
<polygon description="&lt;b&gt;DFR69_RS10935&lt;/b&gt;&lt;br&gt;RNA polymerase sigma factor SigJ&lt;br&gt;Location: 616495 - 617388&lt;br&gt;&lt;br&gt;&lt;b&gt;BlastP hit with cds122639_123566&lt;/b&gt;&lt;br&gt;Percentage identity: 65&lt;br&gt;Percentage coverage: 99&lt;br&gt;BLAST bit score: 367&lt;br&gt;E-value: 1.1e-99" points="117,85 122,80 129,80 129,90 122,90 117,85 " locus_tag="DFR69_RS10935" id="dummy-2_h2_6_9" class="clusterblast-orf" style="stroke:black; fill:#d85e15; stroke-width:1; "  />
</g>
<g id="a2_0010"  >
<polygon description="&lt;b&gt;DFR69_RS10940&lt;/b&gt;&lt;br&gt;GNAT family N-acetyltransferase&lt;br&gt;Location: 617456 - 618031&lt;br&gt;&lt;br&gt;&lt;b&gt;BlastP hit with cds123594_124182&lt;/b&gt;&lt;br&gt;Percentage identity: 62&lt;br&gt;Percentage coverage: 96&lt;br&gt;BLAST bit score: 237&lt;br&gt;E-value: 8.7e-61" points="130,90 133,90 138,85 133,80 130,80 130,90 " locus_tag="DFR69_RS10940" id="dummy-2_h2_6_10" class="clusterblast-orf" style="stroke:black; fill:#2ed815; stroke-width:1; "  />
</g>
<g id="a2_0011"  >
<polygon description="&lt;b&gt;DFR69_RS10945&lt;/b&gt;&lt;br&gt;class I SAM-dependent methyltransferase&lt;br&gt;Location: 618127 - 618696&lt;br&gt;&lt;br&gt;&lt;b&gt;BlastP hit with cds126312_126846&lt;/b&gt;&lt;br&gt;Percentage identity: 45&lt;br&gt;Percentage coverage: 101&lt;br&gt;BLAST bit score: 148&lt;br&gt;E-value: 6.3e-34" points="139,90 142,90 147,85 142,80 139,80 139,90 " locus_tag="DFR69_RS10945" id="dummy-2_h2_6_11" class="clusterblast-orf" style="stroke:black; fill:#d88315; stroke-width:1; "  />
</g>
<g id="a2_0012"  >
<polygon description="&lt;b&gt;DFR69_RS10950&lt;/b&gt;&lt;br&gt;ATP-dependent helicase HrpB&lt;br&gt;Location: 618710 - 621289" points="147,85 152,80 181,80 181,90 152,90 147,85 " locus_tag="DFR69_RS10950" id="dummy-2_h2_6_12" class="clusterblast-orf" style="stroke:black; fill:white; stroke-width:1; "  />
</g>
<g id="a2_0013"  >
<polygon description="&lt;b&gt;DFR69_RS10955&lt;/b&gt;&lt;br&gt;hypothetical protein&lt;br&gt;Location: 621368 - 621652" points="182,90 186,85 182,80 182,90 " locus_tag="DFR69_RS10955" id="dummy-2_h2_6_13" class="clusterblast-orf" style="stroke:black; fill:white; stroke-width:1; "  />
</g>
<g id="a2_0014"  >
<polygon description="&lt;b&gt;DFR69_RS10960&lt;/b&gt;&lt;br&gt;3-deoxy-7-phosphoheptulonate synthase&lt;br&gt;Location: 621725 - 622813&lt;br&gt;&lt;br&gt;&lt;b&gt;BlastP hit with cds126962_128051&lt;/b&gt;&lt;br&gt;Percentage identity: 88&lt;br&gt;Percentage coverage: 100&lt;br&gt;BLAST bit score: 643&lt;br&gt;E-value: 9.7e-183" points="187,85 192,80 201,80 201,90 192,90 187,85 " locus_tag="DFR69_RS10960" id="dummy-2_h2_6_14" class="clusterblast-orf" style="stroke:black; fill:#15d821; stroke-width:1; "  />
</g>
<g id="a2_0015"  >
<polygon description="&lt;b&gt;DFR69_RS10965&lt;/b&gt;&lt;br&gt;NAD(P)H-binding protein&lt;br&gt;Location: 623117 - 623932" points="205,90 211,90 216,85 211,80 205,80 205,90 " locus_tag="DFR69_RS10965" id="dummy-2_h2_6_15" class="clusterblast-orf" style="stroke:black; fill:white; stroke-width:1; "  />
</g>
<g id="a2_0016"  >
<polygon description="&lt;b&gt;DFR69_RS10970&lt;/b&gt;&lt;br&gt;carboxymuconolactone decarboxylase family protein&lt;br&gt;Location: 623937 - 624407" points="216,85 221,80 223,80 223,90 221,90 216,85 " locus_tag="DFR69_RS10970" id="dummy-2_h2_6_16" class="clusterblast-orf" style="stroke:black; fill:white; stroke-width:1; "  />
</g>
<g id="a2_0017"  >
<polygon description="&lt;b&gt;DFR69_RS10975&lt;/b&gt;&lt;br&gt;SDR family NAD(P)-dependent oxidoreductase&lt;br&gt;Location: 624497 - 625360&lt;br&gt;&lt;br&gt;&lt;b&gt;BlastP hit with cds128521_129409&lt;/b&gt;&lt;br&gt;Percentage identity: 71&lt;br&gt;Percentage coverage: 96&lt;br&gt;BLAST bit score: 393&lt;br&gt;E-value: 1.4e-107" points="224,85 229,80 235,80 235,90 229,90 224,85 " locus_tag="DFR69_RS10975" id="dummy-2_h2_6_17" class="clusterblast-orf" style="stroke:black; fill:#156bd8; stroke-width:1; "  />
</g>
<g id="a2_0018"  >
<polygon description="&lt;b&gt;DFR69_RS10980&lt;/b&gt;&lt;br&gt;amino acid adenylation domain-containing protein&lt;br&gt;Location: 625404 - 627323&lt;br&gt;&lt;br&gt;&lt;b&gt;BlastP hit with cds130439_135266&lt;/b&gt;&lt;br&gt;Percentage identity: 79&lt;br&gt;Percentage coverage: 35&lt;br&gt;BLAST bit score: 894&lt;br&gt;E-value: 1.8e-257" points="236,85 241,80 261,80 261,90 241,90 236,85 " locus_tag="DFR69_RS10980" id="dummy-2_h2_6_18" class="clusterblast-orf" style="stroke:black; fill:#15d846; stroke-width:1; "  />
</g>
<g id="a2_0019"  >
<polygon description="&lt;b&gt;DFR69_RS10985&lt;/b&gt;&lt;br&gt;non-ribosomal peptide synthetase&lt;br&gt;Location: 627657 - 629282&lt;br&gt;&lt;br&gt;&lt;b&gt;BlastP hit with cds130439_135266&lt;/b&gt;&lt;br&gt;Percentage identity: 56&lt;br&gt;Percentage coverage: 45&lt;br&gt;BLAST bit score: 682&lt;br&gt;E-value: 8.4e-194" points="266,85 271,80 287,80 287,90 271,90 266,85 " locus_tag="DFR69_RS10985" id="dummy-2_h2_6_19" class="clusterblast-orf" style="stroke:black; fill:#15d846; stroke-width:1; "  />
</g>
<g id="a2_0020"  >
<polygon description="&lt;b&gt;DFR69_RS10990&lt;/b&gt;&lt;br&gt;AMP-binding protein&lt;br&gt;Location: 629460 - 631076&lt;br&gt;&lt;br&gt;&lt;b&gt;BlastP hit with cds135414_137034&lt;/b&gt;&lt;br&gt;Percentage identity: 82&lt;br&gt;Percentage coverage: 98&lt;br&gt;BLAST bit score: 874&lt;br&gt;E-value: 5.1e-252" points="290,90 306,90 311,85 306,80 290,80 290,90 " locus_tag="DFR69_RS10990" id="dummy-2_h2_6_20" class="clusterblast-orf" style="stroke:black; fill:#1546d8; stroke-width:1; "  />
</g>
<g id="a2_0021"  >
<polygon description="&lt;b&gt;DFR69_RS10995&lt;/b&gt;&lt;br&gt;salicylate synthase&lt;br&gt;Location: 631131 - 632444&lt;br&gt;&lt;br&gt;&lt;b&gt;BlastP hit with cds137266_137410&lt;/b&gt;&lt;br&gt;Percentage identity: 76&lt;br&gt;Percentage coverage: 81&lt;br&gt;BLAST bit score: 63&lt;br&gt;E-value: 7.1e-09&lt;br&gt;&lt;br&gt;&lt;b&gt;BlastP hit with cds137535_138891&lt;/b&gt;&lt;br&gt;Percentage identity: 76&lt;br&gt;Percentage coverage: 99&lt;br&gt;BLAST bit score: 666&lt;br&gt;E-value: 1.3e-189" points="312,85 317,80 329,80 329,90 317,90 312,85 " locus_tag="DFR69_RS10995" id="dummy-2_h2_6_21" class="clusterblast-orf" style="stroke:black; fill:#d815a7; stroke-width:1; "  />
</g>
<g id="a2_0022"  >
<polygon description="&lt;b&gt;DFR69_RS11000&lt;/b&gt;&lt;br&gt;glycerol-3-phosphate 1-O-acyltransferase&lt;br&gt;Location: 632611 - 635040&lt;br&gt;&lt;br&gt;&lt;b&gt;BlastP hit with cds139090_141811&lt;/b&gt;&lt;br&gt;Percentage identity: 65&lt;br&gt;Percentage coverage: 98&lt;br&gt;BLAST bit score: 1078&lt;br&gt;E-value: 0.0" points="332,90 359,90 364,85 359,80 332,80 332,90 " locus_tag="DFR69_RS11000" id="dummy-2_h2_6_22" class="clusterblast-orf" style="stroke:black; fill:#d8cc15; stroke-width:1; "  />
</g>
<g id="a2_0023"  >
<polygon description="&lt;b&gt;DFR69_RS11005&lt;/b&gt;&lt;br&gt;1-acylglycerol-3-phosphate O-acyltransferase&lt;br&gt;Location: 635040 - 636455&lt;br&gt;&lt;br&gt;&lt;b&gt;BlastP hit with cds141807_143376&lt;/b&gt;&lt;br&gt;Percentage identity: 63&lt;br&gt;Percentage coverage: 90&lt;br&gt;BLAST bit score: 592&lt;br&gt;E-value: 3.7e-167" points="364,90 378,90 383,85 378,80 364,80 364,90 " locus_tag="DFR69_RS11005" id="dummy-2_h2_6_23" class="clusterblast-orf" style="stroke:black; fill:#15d86b; stroke-width:1; "  />
</g>
<g id="a2_0024"  >
<polygon description="&lt;b&gt;DFR69_RS11010&lt;/b&gt;&lt;br&gt;Dyp-type peroxidase&lt;br&gt;Location: 636488 - 637684" points="383,85 388,80 399,80 399,90 388,90 383,85 " locus_tag="DFR69_RS11010" id="dummy-2_h2_6_24" class="clusterblast-orf" style="stroke:black; fill:white; stroke-width:1; "  />
</g>
<g id="a2_0025"  >
<polygon description="&lt;b&gt;DFR69_RS11015&lt;/b&gt;&lt;br&gt;copper chaperone PCu(A)C&lt;br&gt;Location: 637677 - 638222" points="399,85 404,80 406,80 406,90 404,90 399,85 " locus_tag="DFR69_RS11015" id="dummy-2_h2_6_25" class="clusterblast-orf" style="stroke:black; fill:white; stroke-width:1; "  />
</g>
<g id="a2_0026"  >
<polygon description="&lt;b&gt;DFR69_RS11020&lt;/b&gt;&lt;br&gt;hypothetical protein&lt;br&gt;Location: 638271 - 638822" points="407,85 412,80 414,80 414,90 412,90 407,85 " locus_tag="DFR69_RS11020" id="dummy-2_h2_6_26" class="clusterblast-orf" style="stroke:black; fill:white; stroke-width:1; "  />
</g>
<g id="a2_0027"  >
<polygon description="&lt;b&gt;DFR69_RS11025&lt;/b&gt;&lt;br&gt;hypothetical protein&lt;br&gt;Location: 639015 - 639416" points="417,90 417,90 422,85 417,80 417,80 417,90 " locus_tag="DFR69_RS11025" id="dummy-2_h2_6_27" class="clusterblast-orf" style="stroke:black; fill:white; stroke-width:1; "  />
</g>
<g id="a2_0028"  >
<polygon description="&lt;b&gt;DFR69_RS11030&lt;/b&gt;&lt;br&gt;polyprenol monophosphomannose synthase&lt;br&gt;Location: 639474 - 640175&lt;br&gt;&lt;br&gt;&lt;b&gt;BlastP hit with cds143399_144119&lt;/b&gt;&lt;br&gt;Percentage identity: 93&lt;br&gt;Percentage coverage: 97&lt;br&gt;BLAST bit score: 428&lt;br&gt;E-value: 5.5e-118" points="423,85 428,80 432,80 432,90 428,90 423,85 " locus_tag="DFR69_RS11030" id="dummy-2_h2_6_28" class="clusterblast-orf" style="stroke:black; fill:#1521d8; stroke-width:1; "  />
</g>
<g id="a2_0029"  >
<polygon description="&lt;b&gt;DFR69_RS11035&lt;/b&gt;&lt;br&gt;hypothetical protein&lt;br&gt;Location: 640320 - 641003" points="434,85 439,80 443,80 443,90 439,90 434,85 " locus_tag="DFR69_RS11035" id="dummy-2_h2_6_29" class="clusterblast-orf" style="stroke:black; fill:white; stroke-width:1; "  />
</g>
<g id="a2_0030"  >
<polygon description="&lt;b&gt;DFR69_RS11040&lt;/b&gt;&lt;br&gt;hypothetical protein&lt;br&gt;Location: 641145 - 641453" points="445,90 449,85 445,80 445,90 " locus_tag="DFR69_RS11040" id="dummy-2_h2_6_30" class="clusterblast-orf" style="stroke:black; fill:white; stroke-width:1; "  />
</g>
<g id="a2_0031"  >
<polygon description="&lt;b&gt;DFR69_RS11045&lt;/b&gt;&lt;br&gt;hypothetical protein&lt;br&gt;Location: 641453 - 642733" points="449,90 461,90 466,85 461,80 449,80 449,90 " locus_tag="DFR69_RS11045" id="dummy-2_h2_6_31" class="clusterblast-orf" style="stroke:black; fill:white; stroke-width:1; "  />
</g>
<g id="a2_0032"  >
<polygon description="&lt;b&gt;DFR69_RS11050&lt;/b&gt;&lt;br&gt;hypothetical protein&lt;br&gt;Location: 642744 - 643775" points="466,90 475,90 480,85 475,80 466,80 466,90 " locus_tag="DFR69_RS11050" id="dummy-2_h2_6_32" class="clusterblast-orf" style="stroke:black; fill:white; stroke-width:1; "  />
</g>
<g id="a2_0033"  >
<polygon description="&lt;b&gt;DFR69_RS11060&lt;/b&gt;&lt;br&gt;TetR/AcrR family transcriptional regulator&lt;br&gt;Location: 644006 - 644635" points="483,90 487,90 492,85 487,80 483,80 483,90 " locus_tag="DFR69_RS11060" id="dummy-2_h2_6_33" class="clusterblast-orf" style="stroke:black; fill:white; stroke-width:1; "  />
</g>
<g id="a2_0034"  >
<polygon description="&lt;b&gt;DFR69_RS11065&lt;/b&gt;&lt;br&gt;AMP-binding protein&lt;br&gt;Location: 644661 - 646394" points="492,90 510,90 515,85 510,80 492,80 492,90 " locus_tag="DFR69_RS11065" id="dummy-2_h2_6_34" class="clusterblast-orf" style="stroke:black; fill:white; stroke-width:1; "  />
</g>
<g id="a2_0035"  >
<polygon description="&lt;b&gt;DFR69_RS11070&lt;/b&gt;&lt;br&gt;ATP-grasp domain-containing protein&lt;br&gt;Location: 646391 - 649573" points="515,90 552,90 557,85 552,80 515,80 515,90 " locus_tag="DFR69_RS11070" id="dummy-2_h2_6_35" class="clusterblast-orf" style="stroke:black; fill:white; stroke-width:1; "  />
</g>
<g id="a2_0036"  >
<polygon description="&lt;b&gt;DFR69_RS11075&lt;/b&gt;&lt;br&gt;MHS family MFS transporter&lt;br&gt;Location: 649722 - 651122" points="559,90 573,90 578,85 573,80 559,80 559,90 " locus_tag="DFR69_RS11075" id="dummy-2_h2_6_36" class="clusterblast-orf" style="stroke:black; fill:white; stroke-width:1; "  />
</g>
<g id="a2_0037"  >
<polygon description="&lt;b&gt;DFR69_RS11080&lt;/b&gt;&lt;br&gt;SDR family oxidoreductase&lt;br&gt;Location: 651133 - 651954" points="578,90 584,90 589,85 584,80 578,80 578,90 " locus_tag="DFR69_RS11080" id="dummy-2_h2_6_37" class="clusterblast-orf" style="stroke:black; fill:white; stroke-width:1; "  />
</g>
<g id="a2_0038"  >
<polygon description="&lt;b&gt;DFR69_RS11085&lt;/b&gt;&lt;br&gt;acyl-CoA dehydrogenase&lt;br&gt;Location: 651971 - 653182" points="589,90 600,90 605,85 600,80 589,80 589,90 " locus_tag="DFR69_RS11085" id="dummy-2_h2_6_38" class="clusterblast-orf" style="stroke:black; fill:white; stroke-width:1; "  />
</g>
<g id="a2_0039"  >
<polygon description="&lt;b&gt;DFR69_RS11090&lt;/b&gt;&lt;br&gt;NADPH:quinone oxidoreductase family protein&lt;br&gt;Location: 653182 - 654171" points="605,90 613,90 618,85 613,80 605,80 605,90 " locus_tag="DFR69_RS11090" id="dummy-2_h2_6_39" class="clusterblast-orf" style="stroke:black; fill:white; stroke-width:1; "  />
</g>
<g id="a2_0040"  >
<polygon description="&lt;b&gt;DFR69_RS11095&lt;/b&gt;&lt;br&gt;TetR/AcrR family transcriptional regulator&lt;br&gt;Location: 654221 - 654871" points="619,90 623,90 628,85 623,80 619,80 619,90 " locus_tag="DFR69_RS11095" id="dummy-2_h2_6_40" class="clusterblast-orf" style="stroke:black; fill:white; stroke-width:1; "  />
</g>
<g id="a2_0041"  >
<polygon description="&lt;b&gt;DFR69_RS11100&lt;/b&gt;&lt;br&gt;hypothetical protein&lt;br&gt;Location: 654881 - 655900" points="628,85 633,80 641,80 641,90 633,90 628,85 " locus_tag="DFR69_RS11100" id="dummy-2_h2_6_41" class="clusterblast-orf" style="stroke:black; fill:white; stroke-width:1; "  />
</g>
<g id="a2_0042"  >
<polygon description="&lt;b&gt;DFR69_RS11120&lt;/b&gt;&lt;br&gt;TetR/AcrR family transcriptional regulator&lt;br&gt;Location: 656580 - 657251&lt;br&gt;&lt;br&gt;&lt;b&gt;BlastP hit with cds144991_145657&lt;/b&gt;&lt;br&gt;Percentage identity: 77&lt;br&gt;Percentage coverage: 100&lt;br&gt;BLAST bit score: 334&lt;br&gt;E-value: 7.7e-90" points="650,85 655,80 659,80 659,90 655,90 650,85 " locus_tag="DFR69_RS11120" id="dummy-2_h2_6_42" class="clusterblast-orf" style="stroke:black; fill:#c0d815; stroke-width:1; "  />
</g>
<g id="a2_0043"  >
<polygon description="&lt;b&gt;DFR69_RS11130&lt;/b&gt;&lt;br&gt;DUF937 domain-containing protein&lt;br&gt;Location: 658228 - 658821&lt;br&gt;&lt;br&gt;&lt;b&gt;BlastP hit with cds147042_147642&lt;/b&gt;&lt;br&gt;Percentage identity: 61&lt;br&gt;Percentage coverage: 67&lt;br&gt;BLAST bit score: 151&lt;br&gt;E-value: 1.1e-34" points="672,90 675,90 680,85 675,80 672,80 672,90 " locus_tag="DFR69_RS11130" id="dummy-2_h2_6_43" class="clusterblast-orf" style="stroke:black; fill:#15d88f; stroke-width:1; "  />
</g>
<g id="a2_0044"  >
<polygon description="&lt;b&gt;DFR69_RS11135&lt;/b&gt;&lt;br&gt;acyl-ACP desaturase&lt;br&gt;Location: 659049 - 660005&lt;br&gt;&lt;br&gt;&lt;b&gt;BlastP hit with cds147794_148817&lt;/b&gt;&lt;br&gt;Percentage identity: 92&lt;br&gt;Percentage coverage: 93&lt;br&gt;BLAST bit score: 602&lt;br&gt;E-value: 3.1e-170" points="683,90 691,90 696,85 691,80 683,80 683,90 " locus_tag="DFR69_RS11135" id="dummy-2_h2_6_44" class="clusterblast-orf" style="stroke:black; fill:#2e15d8; stroke-width:1; "  />
</g>
<g id="a2_0045"  >
<polygon description="&lt;b&gt;DFR69_RS11140&lt;/b&gt;&lt;br&gt;hypothetical protein&lt;br&gt;Location: 660065 - 660652" points="697,85 702,80 705,80 705,90 702,90 697,85 " locus_tag="DFR69_RS11140" id="dummy-2_h2_6_45" class="clusterblast-orf" style="stroke:black; fill:white; stroke-width:1; "  />
</g>
<g id="a2_0046"  >
<polygon description="&lt;b&gt;DFR69_RS11145&lt;/b&gt;&lt;br&gt;tRNA dihydrouridine synthase DusB&lt;br&gt;Location: 660944 - 662086&lt;br&gt;&lt;br&gt;&lt;b&gt;BlastP hit with cds149068_150220&lt;/b&gt;&lt;br&gt;Percentage identity: 84&lt;br&gt;Percentage coverage: 98&lt;br&gt;BLAST bit score: 653&lt;br&gt;E-value: 1e-185" points="708,90 719,90 724,85 719,80 708,80 708,90 " locus_tag="DFR69_RS11145" id="dummy-2_h2_6_46" class="clusterblast-orf" style="stroke:black; fill:#d8155e; stroke-width:1; "  />
</g>
<g id="a2_0047"  >
<polygon description="&lt;b&gt;DFR69_RS11150&lt;/b&gt;&lt;br&gt;LCP family protein&lt;br&gt;Location: 662270 - 664324&lt;br&gt;&lt;br&gt;&lt;b&gt;BlastP hit with cds150329_152828&lt;/b&gt;&lt;br&gt;Percentage identity: 51&lt;br&gt;Percentage coverage: 101&lt;br&gt;BLAST bit score: 653&lt;br&gt;E-value: 2.8e-185" points="726,90 748,90 753,85 748,80 726,80 726,90 " locus_tag="DFR69_RS11150" id="dummy-2_h2_6_47" class="clusterblast-orf" style="stroke:black; fill:#9bd815; stroke-width:1; "  />
</g>
<g id="a2_0048"  >
<polygon description="&lt;b&gt;DFR69_RS11155&lt;/b&gt;&lt;br&gt;phosphate signaling complex protein PhoU&lt;br&gt;Location: 664415 - 665080&lt;br&gt;&lt;br&gt;&lt;b&gt;BlastP hit with cds152929_153601&lt;/b&gt;&lt;br&gt;Percentage identity: 75&lt;br&gt;Percentage coverage: 98&lt;br&gt;BLAST bit score: 316&lt;br&gt;E-value: 2.9e-84" points="755,90 759,90 764,85 759,80 755,80 755,90 " locus_tag="DFR69_RS11155" id="dummy-2_h2_6_48" class="clusterblast-orf" style="stroke:black; fill:#15d8b4; stroke-width:1; "  />
</g>
<g id="a2_0049"  >
<polygon description="&lt;b&gt;DFR69_RS33925&lt;/b&gt;&lt;br&gt;hypothetical protein&lt;br&gt;Location: 665246 - 665446" points="766,90 768,85 766,80 766,90 " locus_tag="DFR69_RS33925" id="dummy-2_h2_6_49" class="clusterblast-orf" style="stroke:black; fill:white; stroke-width:1; "  />
</g>
<g id="a2_0050"  >
<polygon description="&lt;b&gt;DFR69_RS11160&lt;/b&gt;&lt;br&gt;phosphate ABC transporter ATP-binding protein&lt;br&gt;Location: 665507 - 666283&lt;br&gt;&lt;br&gt;&lt;b&gt;BlastP hit with cds155578_156355&lt;/b&gt;&lt;br&gt;Percentage identity: 94&lt;br&gt;Percentage coverage: 100&lt;br&gt;BLAST bit score: 486&lt;br&gt;E-value: 1.9e-135" points="769,85 774,80 780,80 780,90 774,90 769,85 " locus_tag="DFR69_RS11160" id="dummy-2_h2_6_50" class="clusterblast-orf" style="stroke:black; fill:#d8153a; stroke-width:1; "  />
</g>
</svg>
