<svg preserveAspectRatio="none" xmlns:xlink="http://www.w3.org/1999/xlink" version="1.1" xmlns="http://www.w3.org/2000/svg" height="230" viewBox="0 0 800 230" width="800" x="0" y="0"  >
<g class="clusterblast-cluster" label="Query sequence"  >
<text class="clusterblast-acc" x="5" y="20"  >
Query sequence</text>
<line x2="778.0" x1="10" y2="35" y1="35" style="stroke:grey; stroke-width:1; "  />
<polygon description="&lt;b&gt;cds152762_154199&lt;/b&gt;&lt;br&gt;hypothetical protein&lt;br&gt;Location: 152762 - 154199" points="293,35 298,30 299,30 299,40 298,40 293,35 " locus_tag="cds152762_154199" id="dummy-1_q0_0_all" class="clusterblast-orf" style="stroke:black; fill:white; stroke-width:1; "  />
<polygon description="&lt;b&gt;cds154232_154349&lt;/b&gt;&lt;br&gt;hypothetical protein&lt;br&gt;Location: 154232 - 154349" points="299,40 300,35 299,30 299,40 " locus_tag="cds154232_154349" id="dummy-1_q1_0_all" class="clusterblast-orf" style="stroke:black; fill:white; stroke-width:1; "  />
<polygon description="&lt;b&gt;cds154358_158129&lt;/b&gt;&lt;br&gt;hypothetical protein&lt;br&gt;Location: 154358 - 158129" points="300,40 311,40 316,35 311,30 300,30 300,40 " locus_tag="cds154358_158129" id="dummy-1_q2_0_all" class="clusterblast-orf" style="stroke:black; fill:white; stroke-width:1; "  />
<polygon description="&lt;b&gt;cds158337_159276&lt;/b&gt;&lt;br&gt;putative esterase&lt;br&gt;Location: 158337 - 159276" points="316,35 320,30 320,40 316,35 " locus_tag="cds158337_159276" id="dummy-1_q3_0_all" class="clusterblast-orf" style="stroke:black; fill:white; stroke-width:1; "  />
<polygon description="&lt;b&gt;cds159339_160080&lt;/b&gt;&lt;br&gt;hypothetical protein&lt;br&gt;Location: 159339 - 160080" points="321,40 324,35 321,30 321,40 " locus_tag="cds159339_160080" id="dummy-1_q4_0_all" class="clusterblast-orf" style="stroke:black; fill:white; stroke-width:1; "  />
<polygon description="&lt;b&gt;cds160111_160378&lt;/b&gt;&lt;br&gt;hypothetical protein&lt;br&gt;Location: 160111 - 160378" points="324,40 325,35 324,30 324,40 " locus_tag="cds160111_160378" id="dummy-1_q5_0_all" class="clusterblast-orf" style="stroke:black; fill:white; stroke-width:1; "  />
<polygon description="&lt;b&gt;cds160564_161923&lt;/b&gt;&lt;br&gt;hypothetical protein&lt;br&gt;Location: 160564 - 161923" points="326,40 327,40 332,35 327,30 326,30 326,40 " locus_tag="cds160564_161923" id="dummy-1_q6_0_all" class="clusterblast-orf" style="stroke:black; fill:white; stroke-width:1; "  />
<polygon description="&lt;b&gt;cds161925_163167&lt;/b&gt;&lt;br&gt;Putative esterase&lt;br&gt;Location: 161925 - 163167" points="332,35 337,30 337,30 337,40 337,40 332,35 " locus_tag="cds161925_163167" id="dummy-1_q7_0_all" class="clusterblast-orf" style="stroke:black; fill:white; stroke-width:1; "  />
<polygon description="&lt;b&gt;cds163253_163352&lt;/b&gt;&lt;br&gt;hypothetical protein&lt;br&gt;Location: 163253 - 163352" points="337,35 338,30 338,40 337,35 " locus_tag="cds163253_163352" id="dummy-1_q8_0_all" class="clusterblast-orf" style="stroke:black; fill:white; stroke-width:1; "  />
<polygon description="&lt;b&gt;cds163575_165387&lt;/b&gt;&lt;br&gt;Cutinase&lt;br&gt;Location: 163575 - 165387" points="339,40 341,40 346,35 341,30 339,30 339,40 " locus_tag="cds163575_165387" id="dummy-1_q9_0_all" class="clusterblast-orf" style="stroke:black; fill:white; stroke-width:1; "  />
<polygon description="&lt;b&gt;cds165383_165680&lt;/b&gt;&lt;br&gt;hypothetical protein&lt;br&gt;Location: 165383 - 165680" points="346,35 347,30 347,40 346,35 " locus_tag="cds165383_165680" id="dummy-1_q10_0_all" class="clusterblast-orf" style="stroke:black; fill:white; stroke-width:1; "  />
<polygon description="&lt;b&gt;cds165820_166294&lt;/b&gt;&lt;br&gt;Transcriptional regulator MSMEG 0538, MarR family&lt;br&gt;Location: 165820 - 166294" points="348,40 350,35 348,30 348,40 " locus_tag="cds165820_166294" id="dummy-1_q11_0_all" class="clusterblast-orf" style="stroke:black; fill:white; stroke-width:1; "  />
<polygon description="&lt;b&gt;cds166290_166668&lt;/b&gt;&lt;br&gt;hypothetical protein&lt;br&gt;Location: 166290 - 166668" points="350,40 352,35 350,30 350,40 " locus_tag="cds166290_166668" id="dummy-1_q12_0_all" class="clusterblast-orf" style="stroke:black; fill:white; stroke-width:1; "  />
<polygon description="&lt;b&gt;cds166678_167494&lt;/b&gt;&lt;br&gt;hypothetical protein&lt;br&gt;Location: 166678 - 167494" points="352,35 355,30 355,40 352,35 " locus_tag="cds166678_167494" id="dummy-1_q13_0_all" class="clusterblast-orf" style="stroke:black; fill:white; stroke-width:1; "  />
<polygon description="&lt;b&gt;cds167691_168624&lt;/b&gt;&lt;br&gt;Transcriptional regulator, LysR family&lt;br&gt;Location: 167691 - 168624" points="356,40 360,35 356,30 356,40 " locus_tag="cds167691_168624" id="dummy-1_q14_0_all" class="clusterblast-orf" style="stroke:black; fill:white; stroke-width:1; "  />
<polygon description="&lt;b&gt;cds168711_170373&lt;/b&gt;&lt;br&gt;Long-chain-fatty-acid--CoA ligase (EC 6.2.1.3)&lt;br&gt;Location: 168711 - 170373" points="360,40 362,40 367,35 362,30 360,30 360,40 " locus_tag="cds168711_170373" id="dummy-1_q15_0_all" class="clusterblast-orf" style="stroke:black; fill:white; stroke-width:1; "  />
<polygon description="&lt;b&gt;cds170513_171767&lt;/b&gt;&lt;br&gt;FIG022199: FAD-binding protein&lt;br&gt;Location: 170513 - 171767" points="368,40 368,40 373,35 368,30 368,30 368,40 " locus_tag="cds170513_171767" id="dummy-1_q16_0_all" class="clusterblast-orf" style="stroke:black; fill:white; stroke-width:1; "  />
<polygon description="&lt;b&gt;cds171763_172363&lt;/b&gt;&lt;br&gt;lipolytic enzyme, G-D-S-L&lt;br&gt;Location: 171763 - 172363" points="373,40 376,35 373,30 373,40 " locus_tag="cds171763_172363" id="dummy-1_q17_0_all" class="clusterblast-orf" style="stroke:black; fill:white; stroke-width:1; "  />
<polygon description="&lt;b&gt;cds172396_178732&lt;/b&gt;&lt;br&gt;omega-3 polyunsaturated fatty acid synthase subunit, PfaA&lt;br&gt;Location: 172396 - 178732" points="376,40 398,40 403,35 398,30 376,30 376,40 " locus_tag="cds172396_178732" id="dummy-1_q18_0_all" class="clusterblast-orf" style="stroke:black; fill:white; stroke-width:1; "  />
<polygon description="&lt;b&gt;cds178728_180939&lt;/b&gt;&lt;br&gt;omega-3 polyunsaturated fatty acid synthase subunit, PfaC&lt;br&gt;Location: 178728 - 180939" points="402,40 407,40 412,35 407,30 402,30 402,40 " locus_tag="cds178728_180939" id="dummy-1_q19_0_all" class="clusterblast-orf" style="stroke:black; fill:white; stroke-width:1; "  />
<polygon description="&lt;b&gt;cds180935_182504&lt;/b&gt;&lt;br&gt;Enoyl-[acyl-carrier-protein] reductase [FMN] (EC 1.3.1.9), inferred for PFA pathway&lt;br&gt;Location: 180935 - 182504" points="412,40 413,40 418,35 413,30 412,30 412,40 " locus_tag="cds180935_182504" id="dummy-1_q20_0_all" class="clusterblast-orf" style="stroke:black; fill:white; stroke-width:1; "  />
<polygon description="&lt;b&gt;cds182500_184183&lt;/b&gt;&lt;br&gt;Acetyl-coenzyme A carboxyl transferase beta chain (EC 6.4.1.2)&lt;br&gt;Location: 182500 - 184183" points="418,40 421,40 426,35 421,30 418,30 418,40 " locus_tag="cds182500_184183" id="dummy-1_q21_0_all" class="clusterblast-orf" style="stroke:black; fill:#d81515; stroke-width:1; "  />
<polygon description="&lt;b&gt;cds184179_184764&lt;/b&gt;&lt;br&gt;Biotin carboxyl carrier protein of acetyl-CoA carboxylase&lt;br&gt;Location: 184179 - 184764" points="425,40 428,35 425,30 425,40 " locus_tag="cds184179_184764" id="dummy-1_q22_0_all" class="clusterblast-orf" style="stroke:black; fill:#15d863; stroke-width:1; "  />
<polygon description="&lt;b&gt;cds184760_186137&lt;/b&gt;&lt;br&gt;Biotin carboxylase of acetyl-CoA carboxylase (EC 6.3.4.14)&lt;br&gt;Location: 184760 - 186137" points="428,40 429,40 434,35 429,30 428,30 428,40 " locus_tag="cds184760_186137" id="dummy-1_q23_0_all" class="clusterblast-orf" style="stroke:black; fill:#1563d8; stroke-width:1; "  />
<polygon description="&lt;b&gt;cds186195_187038&lt;/b&gt;&lt;br&gt;ABC transporter, permease protein 2 (cluster 1, maltose/g3p/polyamine/iron)&lt;br&gt;Location: 186195 - 187038" points="434,35 438,30 438,40 434,35 " locus_tag="cds186195_187038" id="dummy-1_q24_0_all" class="clusterblast-orf" style="stroke:black; fill:white; stroke-width:1; "  />
<polygon description="&lt;b&gt;cds187027_187936&lt;/b&gt;&lt;br&gt;ABC transporter, permease protein 1 (cluster 1, maltose/g3p/polyamine/iron)&lt;br&gt;Location: 187027 - 187936" points="438,35 441,30 441,40 438,35 " locus_tag="cds187027_187936" id="dummy-1_q25_0_all" class="clusterblast-orf" style="stroke:black; fill:white; stroke-width:1; "  />
<polygon description="&lt;b&gt;cds187990_188860&lt;/b&gt;&lt;br&gt;hypothetical protein&lt;br&gt;Location: 187990 - 188860" points="442,35 445,30 445,40 442,35 " locus_tag="cds187990_188860" id="dummy-1_q26_0_all" class="clusterblast-orf" style="stroke:black; fill:white; stroke-width:1; "  />
<polygon description="&lt;b&gt;cds188871_190239&lt;/b&gt;&lt;br&gt;Glycerol-3-phosphate ABC transporter, substrate-binding protein UgpB&lt;br&gt;Location: 188871 - 190239" points="445,35 450,30 451,30 451,40 450,40 445,35 " locus_tag="cds188871_190239" id="dummy-1_q27_0_all" class="clusterblast-orf" style="stroke:black; fill:white; stroke-width:1; "  />
<polygon description="&lt;b&gt;cds190271_191402&lt;/b&gt;&lt;br&gt;Glycerol-3-phosphate ABC transporter, ATP-binding protein UgpC (TC 3.A.1.1.3)&lt;br&gt;Location: 190271 - 191402" points="451,35 456,30 456,30 456,40 456,40 451,35 " locus_tag="cds190271_191402" id="dummy-1_q28_0_all" class="clusterblast-orf" style="stroke:black; fill:white; stroke-width:1; "  />
<polygon description="&lt;b&gt;cds191412_192303&lt;/b&gt;&lt;br&gt;FIG00660572: hypothetical protein&lt;br&gt;Location: 191412 - 192303" points="456,35 460,30 460,40 456,35 " locus_tag="cds191412_192303" id="dummy-1_q29_0_all" class="clusterblast-orf" style="stroke:black; fill:white; stroke-width:1; "  />
<polygon description="&lt;b&gt;cds192302_192827&lt;/b&gt;&lt;br&gt;hypothetical protein&lt;br&gt;Location: 192302 - 192827" points="460,35 462,30 462,40 460,35 " locus_tag="cds192302_192827" id="dummy-1_q30_0_all" class="clusterblast-orf" style="stroke:black; fill:white; stroke-width:1; "  />
<polygon description="&lt;b&gt;cds192841_194002&lt;/b&gt;&lt;br&gt;Acyl-CoA dehydrogenase&lt;br&gt;Location: 192841 - 194002" points="462,35 467,30 467,30 467,40 467,40 462,35 " locus_tag="cds192841_194002" id="dummy-1_q31_0_all" class="clusterblast-orf" style="stroke:black; fill:white; stroke-width:1; "  />
<polygon description="&lt;b&gt;cds194143_195076&lt;/b&gt;&lt;br&gt;Flavodoxin reductases (ferredoxin-NADPH reductases) family 1; Vanillate O-demethylase oxidoreductase (EC 1.14.13.-)&lt;br&gt;Location: 194143 - 195076" points="468,40 471,35 468,30 468,40 " locus_tag="cds194143_195076" id="dummy-1_q32_0_all" class="clusterblast-orf" style="stroke:black; fill:white; stroke-width:1; "  />
<polygon description="&lt;b&gt;cds195175_195877&lt;/b&gt;&lt;br&gt;hypothetical protein&lt;br&gt;Location: 195175 - 195877" points="472,40 475,35 472,30 472,40 " locus_tag="cds195175_195877" id="dummy-1_q33_0_all" class="clusterblast-orf" style="stroke:black; fill:white; stroke-width:1; "  />
<polygon description="&lt;b&gt;cds196085_196553&lt;/b&gt;&lt;br&gt;hypothetical protein&lt;br&gt;Location: 196085 - 196553" points="476,40 478,35 476,30 476,40 " locus_tag="cds196085_196553" id="dummy-1_q34_0_all" class="clusterblast-orf" style="stroke:black; fill:white; stroke-width:1; "  />
<polygon description="&lt;b&gt;cds196609_197452&lt;/b&gt;&lt;br&gt;Acyl-[acyl-carrier-protein] desaturase, chloroplast precursor (EC 1.14.19.2)&lt;br&gt;Location: 196609 - 197452" points="478,35 482,30 482,40 478,35 " locus_tag="cds196609_197452" id="dummy-1_q35_0_all" class="clusterblast-orf" style="stroke:black; fill:#b115d8; stroke-width:1; "  />
<polygon description="&lt;b&gt;cds197467_198301&lt;/b&gt;&lt;br&gt;Cyclopropane-fatty-acyl-phospholipid synthase (EC 2.1.1.79)&lt;br&gt;Location: 197467 - 198301" points="482,35 485,30 485,40 482,35 " locus_tag="cds197467_198301" id="dummy-1_q36_0_all" class="clusterblast-orf" style="stroke:black; fill:#b1d815; stroke-width:1; "  />
<polygon description="&lt;b&gt;cds198297_198558&lt;/b&gt;&lt;br&gt;Acyl carrier protein&lt;br&gt;Location: 198297 - 198558" points="485,35 486,30 486,40 485,35 " locus_tag="cds198297_198558" id="dummy-1_q37_0_all" class="clusterblast-orf" style="stroke:black; fill:white; stroke-width:1; "  />
</g>
<g description="BGC0000093_c1: meilingmycin (2% of genes show similarity), Polyketide" class="clusterblast-cluster" label="BGC0000093"  >
<text class="clusterblast-acc" x="5" y="70"  >
<a xlink:href="https://mibig.secondarymetabolites.org/go/BGC0000093/1" target="_blank">BGC0000093</a>:                                                                     meilingmycin (2% of genes show similarity), Polyketide</text>
<line x2="778.0" x1="10" y2="85" y1="85" style="stroke:grey; stroke-width:1; "  />
</g>
<g id="a1_000"  >
<polygon description="&lt;b&gt;ADC45599.1&lt;/b&gt;&lt;br&gt;hypothetical protein&lt;br&gt;Location: 184824 - 183922" points="0,85 3,80 3,90 0,85 " locus_tag="ADC45599.1" id="dummy-1_h1_3_0" class="clusterblast-orf" style="stroke:black; fill:white; stroke-width:1; "  />
</g>
<g id="a1_001"  >
<polygon description="&lt;b&gt;ADC45598.1&lt;/b&gt;&lt;br&gt;carbohydrate kinase&lt;br&gt;Location: 183905 - 182934" points="3,85 7,80 7,90 3,85 " locus_tag="ADC45598.1" id="dummy-1_h1_3_1" class="clusterblast-orf" style="stroke:black; fill:white; stroke-width:1; "  />
</g>
<g id="a1_002"  >
<polygon description="&lt;b&gt;ADC45597.1&lt;/b&gt;&lt;br&gt;LacI-family transcriptional regulator&lt;br&gt;Location: 182726 - 181698" points="8,90 8,90 13,85 8,80 8,80 8,90 " locus_tag="ADC45597.1" id="dummy-1_h1_3_2" class="clusterblast-orf" style="stroke:black; fill:white; stroke-width:1; "  />
</g>
<g id="a1_003"  >
<polygon description="&lt;b&gt;ADC45596.1&lt;/b&gt;&lt;br&gt;TetR-family transcriptional regulator&lt;br&gt;Location: 181693 - 181085" points="13,85 15,80 15,90 13,85 " locus_tag="ADC45596.1" id="dummy-1_h1_3_3" class="clusterblast-orf" style="stroke:black; fill:white; stroke-width:1; "  />
</g>
<g id="a1_004"  >
<polygon description="&lt;b&gt;ADC45595.1&lt;/b&gt;&lt;br&gt;extracellular solute-binding protein&lt;br&gt;Location: 180837 - 179275" points="16,90 18,90 23,85 18,80 16,80 16,90 " locus_tag="ADC45595.1" id="dummy-1_h1_3_4" class="clusterblast-orf" style="stroke:black; fill:white; stroke-width:1; "  />
</g>
<g id="a1_005"  >
<polygon description="&lt;b&gt;ADC45594.1&lt;/b&gt;&lt;br&gt;transporter&lt;br&gt;Location: 179278 - 178322" points="23,90 27,85 23,80 23,90 " locus_tag="ADC45594.1" id="dummy-1_h1_3_5" class="clusterblast-orf" style="stroke:black; fill:white; stroke-width:1; "  />
</g>
<g id="a1_006"  >
<polygon description="&lt;b&gt;ADC45593.1&lt;/b&gt;&lt;br&gt;ABC transporter&lt;br&gt;Location: 178325 - 176490" points="27,90 30,90 35,85 30,80 27,80 27,90 " locus_tag="ADC45593.1" id="dummy-1_h1_3_6" class="clusterblast-orf" style="stroke:black; fill:white; stroke-width:1; "  />
</g>
<g id="a1_007"  >
<polygon description="&lt;b&gt;ADC45592.1&lt;/b&gt;&lt;br&gt;ABC transporter&lt;br&gt;Location: 176493 - 175618" points="35,90 38,85 35,80 35,90 " locus_tag="ADC45592.1" id="dummy-1_h1_3_7" class="clusterblast-orf" style="stroke:black; fill:white; stroke-width:1; "  />
</g>
<g id="a1_008"  >
<polygon description="&lt;b&gt;ADC45591.1&lt;/b&gt;&lt;br&gt;beta-glucosidase&lt;br&gt;Location: 175621 - 174404" points="38,90 38,90 43,85 38,80 38,80 38,90 " locus_tag="ADC45591.1" id="dummy-1_h1_3_8" class="clusterblast-orf" style="stroke:black; fill:white; stroke-width:1; "  />
</g>
<g id="a1_009"  >
<polygon description="&lt;b&gt;ADC45590.1&lt;/b&gt;&lt;br&gt;beta-glucuronidase precursor&lt;br&gt;Location: 174362 - 172569" points="44,90 46,90 51,85 46,80 44,80 44,90 " locus_tag="ADC45590.1" id="dummy-1_h1_3_9" class="clusterblast-orf" style="stroke:black; fill:white; stroke-width:1; "  />
</g>
<g id="a1_0010"  >
<polygon description="&lt;b&gt;ADC45589.1&lt;/b&gt;&lt;br&gt;short-chain dehydrogenase/reductase SDR&lt;br&gt;Location: 172498 - 171713" points="52,90 55,85 52,80 52,90 " locus_tag="ADC45589.1" id="dummy-1_h1_3_10" class="clusterblast-orf" style="stroke:black; fill:white; stroke-width:1; "  />
</g>
<g id="a1_0011"  >
<polygon description="&lt;b&gt;ADC45588.1&lt;/b&gt;&lt;br&gt;hydrolase&lt;br&gt;Location: 171655 - 167960" points="55,90 66,90 71,85 66,80 55,80 55,90 " locus_tag="ADC45588.1" id="dummy-1_h1_3_11" class="clusterblast-orf" style="stroke:black; fill:white; stroke-width:1; "  />
</g>
<g id="a1_0012"  >
<polygon description="&lt;b&gt;ADC45587.1&lt;/b&gt;&lt;br&gt;C5-O-methyltransferase&lt;br&gt;Location: 167947 - 167087" points="71,85 74,80 74,90 71,85 " locus_tag="ADC45587.1" id="dummy-1_h1_3_12" class="clusterblast-orf" style="stroke:black; fill:white; stroke-width:1; "  />
</g>
<g id="a1_0013"  >
<polygon description="&lt;b&gt;ADC45586.1&lt;/b&gt;&lt;br&gt;modular polyketide synthase&lt;br&gt;Location: 167044 - 154052" points="75,85 80,80 129,80 129,90 80,90 75,85 " locus_tag="ADC45586.1" id="dummy-1_h1_3_13" class="clusterblast-orf" style="stroke:black; fill:white; stroke-width:1; "  />
</g>
<g id="a1_0014"  >
<polygon description="&lt;b&gt;ADC45585.1&lt;/b&gt;&lt;br&gt;hypothetical protein&lt;br&gt;Location: 153836 - 152139" points="130,85 135,80 137,80 137,90 135,90 130,85 " locus_tag="ADC45585.1" id="dummy-1_h1_3_14" class="clusterblast-orf" style="stroke:black; fill:white; stroke-width:1; "  />
</g>
<g id="a1_0015"  >
<polygon description="&lt;b&gt;ADC45584.1&lt;/b&gt;&lt;br&gt;monooxygenase&lt;br&gt;Location: 152142 - 150307" points="137,85 142,80 145,80 145,90 142,90 137,85 " locus_tag="ADC45584.1" id="dummy-1_h1_3_15" class="clusterblast-orf" style="stroke:black; fill:white; stroke-width:1; "  />
</g>
<g id="a1_0016"  >
<polygon description="&lt;b&gt;ADC45583.1&lt;/b&gt;&lt;br&gt;sugar-binding transcriptional regulator&lt;br&gt;Location: 150152 - 149148" points="146,85 150,80 150,90 146,85 " locus_tag="ADC45583.1" id="dummy-1_h1_3_16" class="clusterblast-orf" style="stroke:black; fill:white; stroke-width:1; "  />
</g>
<g id="a1_0017"  >
<polygon description="&lt;b&gt;ADC45582.1&lt;/b&gt;&lt;br&gt;hypothetical protein&lt;br&gt;Location: 148932 - 145963" points="151,90 159,90 164,85 159,80 151,80 151,90 " locus_tag="ADC45582.1" id="dummy-1_h1_3_17" class="clusterblast-orf" style="stroke:black; fill:white; stroke-width:1; "  />
</g>
<g id="a1_0018"  >
<polygon description="&lt;b&gt;ADC45581.1&lt;/b&gt;&lt;br&gt;glycoside hydrolase&lt;br&gt;Location: 145820 - 144519" points="164,90 165,90 170,85 165,80 164,80 164,90 " locus_tag="ADC45581.1" id="dummy-1_h1_3_18" class="clusterblast-orf" style="stroke:black; fill:white; stroke-width:1; "  />
</g>
<g id="a1_0019"  >
<polygon description="&lt;b&gt;ADC45580.1&lt;/b&gt;&lt;br&gt;transmembrane transport protein&lt;br&gt;Location: 144553 - 143354" points="169,85 174,80 175,80 175,90 174,90 169,85 " locus_tag="ADC45580.1" id="dummy-1_h1_3_19" class="clusterblast-orf" style="stroke:black; fill:white; stroke-width:1; "  />
</g>
<g id="a1_0020"  >
<polygon description="&lt;b&gt;ADC45579.1&lt;/b&gt;&lt;br&gt;hypothetical protein&lt;br&gt;Location: 143357 - 142827" points="175,85 177,80 177,90 175,85 " locus_tag="ADC45579.1" id="dummy-1_h1_3_20" class="clusterblast-orf" style="stroke:black; fill:white; stroke-width:1; "  />
</g>
<g id="a1_0021"  >
<polygon description="&lt;b&gt;ADC45578.1&lt;/b&gt;&lt;br&gt;lysine/ornithine decarboxylase&lt;br&gt;Location: 142818 - 141628" points="177,85 182,80 182,80 182,90 182,90 177,85 " locus_tag="ADC45578.1" id="dummy-1_h1_3_21" class="clusterblast-orf" style="stroke:black; fill:white; stroke-width:1; "  />
</g>
<g id="a1_0022"  >
<polygon description="&lt;b&gt;ADC45577.1&lt;/b&gt;&lt;br&gt;hypothetical protein&lt;br&gt;Location: 141583 - 140258" points="182,85 187,80 188,80 188,90 187,90 182,85 " locus_tag="ADC45577.1" id="dummy-1_h1_3_22" class="clusterblast-orf" style="stroke:black; fill:white; stroke-width:1; "  />
</g>
<g id="a1_0023"  >
<polygon description="&lt;b&gt;ADC45576.1&lt;/b&gt;&lt;br&gt;hypothetical protein&lt;br&gt;Location: 140276 - 139224" points="188,85 192,80 192,90 188,85 " locus_tag="ADC45576.1" id="dummy-1_h1_3_23" class="clusterblast-orf" style="stroke:black; fill:white; stroke-width:1; "  />
</g>
<g id="a1_0024"  >
<polygon description="&lt;b&gt;ADC45575.1&lt;/b&gt;&lt;br&gt;hydrolase&lt;br&gt;Location: 138866 - 137355" points="193,90 195,90 200,85 195,80 193,80 193,90 " locus_tag="ADC45575.1" id="dummy-1_h1_3_24" class="clusterblast-orf" style="stroke:black; fill:white; stroke-width:1; "  />
</g>
<g id="a1_0025"  >
<polygon description="&lt;b&gt;ADC45574.1&lt;/b&gt;&lt;br&gt;flavin-dependent oxidoreductase&lt;br&gt;Location: 137323 - 136478" points="200,85 204,80 204,90 200,85 " locus_tag="ADC45574.1" id="dummy-1_h1_3_25" class="clusterblast-orf" style="stroke:black; fill:white; stroke-width:1; "  />
</g>
<g id="a1_0026"  >
<polygon description="&lt;b&gt;ADC45573.1&lt;/b&gt;&lt;br&gt;aldoketoreductase&lt;br&gt;Location: 136407 - 135388" points="204,85 208,80 208,90 204,85 " locus_tag="ADC45573.1" id="dummy-1_h1_3_26" class="clusterblast-orf" style="stroke:black; fill:white; stroke-width:1; "  />
</g>
<g id="a1_0027"  >
<polygon description="&lt;b&gt;ADC45572.1&lt;/b&gt;&lt;br&gt;TetR-family transcriptional regulator&lt;br&gt;Location: 135198 - 134605" points="209,90 211,85 209,80 209,90 " locus_tag="ADC45572.1" id="dummy-1_h1_3_27" class="clusterblast-orf" style="stroke:black; fill:white; stroke-width:1; "  />
</g>
<g id="a1_0028"  >
<polygon description="&lt;b&gt;ADC45571.1&lt;/b&gt;&lt;br&gt;hypothetical protein&lt;br&gt;Location: 134603 - 133941" points="211,85 214,80 214,90 211,85 " locus_tag="ADC45571.1" id="dummy-1_h1_3_28" class="clusterblast-orf" style="stroke:black; fill:white; stroke-width:1; "  />
</g>
<g id="a1_0029"  >
<polygon description="&lt;b&gt;ADC45570.1&lt;/b&gt;&lt;br&gt;transcriptional regulator&lt;br&gt;Location: 133751 - 133101" points="215,90 218,85 215,80 215,90 " locus_tag="ADC45570.1" id="dummy-1_h1_3_29" class="clusterblast-orf" style="stroke:black; fill:white; stroke-width:1; "  />
</g>
<g id="a1_0030"  >
<polygon description="&lt;b&gt;ADC45569.1&lt;/b&gt;&lt;br&gt;hypothetical protein&lt;br&gt;Location: 132940 - 132620" points="218,90 220,85 218,80 218,90 " locus_tag="ADC45569.1" id="dummy-1_h1_3_30" class="clusterblast-orf" style="stroke:black; fill:white; stroke-width:1; "  />
</g>
<g id="a1_0031"  >
<polygon description="&lt;b&gt;ADC45568.1&lt;/b&gt;&lt;br&gt;rhamnosidase&lt;br&gt;Location: 132380 - 129165" points="221,90 229,90 234,85 229,80 221,80 221,90 " locus_tag="ADC45568.1" id="dummy-1_h1_3_31" class="clusterblast-orf" style="stroke:black; fill:white; stroke-width:1; "  />
</g>
<g id="a1_0032"  >
<polygon description="&lt;b&gt;ADC45567.1&lt;/b&gt;&lt;br&gt;acyl-CoA dehydrogenase&lt;br&gt;Location: 129095 - 127932" points="235,85 240,80 240,80 240,90 240,90 235,85 " locus_tag="ADC45567.1" id="dummy-1_h1_3_32" class="clusterblast-orf" style="stroke:black; fill:white; stroke-width:1; "  />
</g>
<g id="a1_0033"  >
<polygon description="&lt;b&gt;ADC45566.1&lt;/b&gt;&lt;br&gt;L-carnitine dehydratase&lt;br&gt;Location: 127887 - 126703" points="240,85 245,80 245,80 245,90 245,90 240,85 " locus_tag="ADC45566.1" id="dummy-1_h1_3_33" class="clusterblast-orf" style="stroke:black; fill:white; stroke-width:1; "  />
</g>
<g id="a1_0034"  >
<polygon description="&lt;b&gt;ADC45565.1&lt;/b&gt;&lt;br&gt;LysR-family transcriptional regulator&lt;br&gt;Location: 126582 - 125629" points="245,90 249,85 245,80 245,90 " locus_tag="ADC45565.1" id="dummy-1_h1_3_34" class="clusterblast-orf" style="stroke:black; fill:white; stroke-width:1; "  />
</g>
<g id="a1_0035"  >
<polygon description="&lt;b&gt;ADC45564.1&lt;/b&gt;&lt;br&gt;hydrolase&lt;br&gt;Location: 125549 - 124725" points="250,90 253,85 250,80 250,90 " locus_tag="ADC45564.1" id="dummy-1_h1_3_35" class="clusterblast-orf" style="stroke:black; fill:white; stroke-width:1; "  />
</g>
<g id="a1_0036"  >
<polygon description="&lt;b&gt;ADC45563.1&lt;/b&gt;&lt;br&gt;sulfopyruvate decarboxylase alpha subunit&lt;br&gt;Location: 124613 - 124077" points="254,90 256,85 254,80 254,90 " locus_tag="ADC45563.1" id="dummy-1_h1_3_36" class="clusterblast-orf" style="stroke:black; fill:white; stroke-width:1; "  />
</g>
<g id="a1_0037"  >
<polygon description="&lt;b&gt;ADC45562.1&lt;/b&gt;&lt;br&gt;sulfopyruvate decarboxylase beta subunit&lt;br&gt;Location: 124077 - 123478" points="256,90 258,85 256,80 256,90 " locus_tag="ADC45562.1" id="dummy-1_h1_3_37" class="clusterblast-orf" style="stroke:black; fill:white; stroke-width:1; "  />
</g>
<g id="a1_0038"  >
<polygon description="&lt;b&gt;ADC45561.1&lt;/b&gt;&lt;br&gt;hypothetical protein&lt;br&gt;Location: 123400 - 122516" points="259,90 262,85 259,80 259,90 " locus_tag="ADC45561.1" id="dummy-1_h1_3_38" class="clusterblast-orf" style="stroke:black; fill:white; stroke-width:1; "  />
</g>
<g id="a1_0039"  >
<polygon description="&lt;b&gt;ADC45560.1&lt;/b&gt;&lt;br&gt;citrate lyase beta subunit&lt;br&gt;Location: 122463 - 121600" points="263,90 266,85 263,80 263,90 " locus_tag="ADC45560.1" id="dummy-1_h1_3_39" class="clusterblast-orf" style="stroke:black; fill:white; stroke-width:1; "  />
</g>
<g id="a1_0040"  >
<polygon description="&lt;b&gt;ADC45559.1&lt;/b&gt;&lt;br&gt;acetyl-xylan esterase&lt;br&gt;Location: 121447 - 120722" points="267,90 270,85 267,80 267,90 " locus_tag="ADC45559.1" id="dummy-1_h1_3_40" class="clusterblast-orf" style="stroke:black; fill:white; stroke-width:1; "  />
</g>
<g id="a1_0041"  >
<polygon description="&lt;b&gt;ADC45558.1&lt;/b&gt;&lt;br&gt;transcriptional regulator&lt;br&gt;Location: 120278 - 119490" points="272,90 275,85 272,80 272,90 " locus_tag="ADC45558.1" id="dummy-1_h1_3_41" class="clusterblast-orf" style="stroke:black; fill:white; stroke-width:1; "  />
</g>
<g id="a1_0042"  >
<polygon description="&lt;b&gt;ADC45557.1&lt;/b&gt;&lt;br&gt;isomerase&lt;br&gt;Location: 119445 - 118276" points="275,85 280,80 280,80 280,90 280,90 275,85 " locus_tag="ADC45557.1" id="dummy-1_h1_3_42" class="clusterblast-orf" style="stroke:black; fill:white; stroke-width:1; "  />
</g>
<g id="a1_0043"  >
<polygon description="&lt;b&gt;ADC45556.1&lt;/b&gt;&lt;br&gt;2-hydroxycyclohexanecarboxyl-CoA dehyrogenase&lt;br&gt;Location: 118279 - 117383" points="280,85 284,80 284,90 280,85 " locus_tag="ADC45556.1" id="dummy-1_h1_3_43" class="clusterblast-orf" style="stroke:black; fill:white; stroke-width:1; "  />
</g>
<g id="a1_0044"  >
<polygon description="&lt;b&gt;ADC45555.1&lt;/b&gt;&lt;br&gt;sugar transporter&lt;br&gt;Location: 117386 - 115938" points="284,85 289,80 290,80 290,90 289,90 284,85 " locus_tag="ADC45555.1" id="dummy-1_h1_3_44" class="clusterblast-orf" style="stroke:black; fill:white; stroke-width:1; "  />
</g>
<g id="a1_0045"  >
<polygon description="&lt;b&gt;ADC45554.1&lt;/b&gt;&lt;br&gt;aldose 1-epimerase&lt;br&gt;Location: 115772 - 114915" points="291,90 295,85 291,80 291,90 " locus_tag="ADC45554.1" id="dummy-1_h1_3_45" class="clusterblast-orf" style="stroke:black; fill:white; stroke-width:1; "  />
</g>
<g id="a1_0046"  >
<polygon description="&lt;b&gt;ADC45553.1&lt;/b&gt;&lt;br&gt;aldehyde dehydrogenase&lt;br&gt;Location: 114931 - 113420" points="294,85 299,80 301,80 301,90 299,90 294,85 " locus_tag="ADC45553.1" id="dummy-1_h1_3_46" class="clusterblast-orf" style="stroke:black; fill:white; stroke-width:1; "  />
</g>
<g id="a1_0047"  >
<polygon description="&lt;b&gt;ADC45552.1&lt;/b&gt;&lt;br&gt;hypothetical protein&lt;br&gt;Location: 113391 - 112882" points="301,85 303,80 303,90 301,85 " locus_tag="ADC45552.1" id="dummy-1_h1_3_47" class="clusterblast-orf" style="stroke:black; fill:white; stroke-width:1; "  />
</g>
<g id="a1_0048"  >
<polygon description="&lt;b&gt;ADC45551.1&lt;/b&gt;&lt;br&gt;dimethylmenaquinone methyltransferase&lt;br&gt;Location: 112885 - 112100" points="303,85 306,80 306,90 303,85 " locus_tag="ADC45551.1" id="dummy-1_h1_3_48" class="clusterblast-orf" style="stroke:black; fill:white; stroke-width:1; "  />
</g>
<g id="a1_0049"  >
<polygon description="&lt;b&gt;ADC45550.1&lt;/b&gt;&lt;br&gt;anion/cation symporter&lt;br&gt;Location: 111825 - 110464" points="308,90 308,90 313,85 308,80 308,80 308,90 " locus_tag="ADC45550.1" id="dummy-1_h1_3_49" class="clusterblast-orf" style="stroke:black; fill:white; stroke-width:1; "  />
</g>
<g id="a1_0050"  >
<polygon description="&lt;b&gt;ADC45549.1&lt;/b&gt;&lt;br&gt;5-carboxymethyl-2-hydroxymuconate delta-isomerase&lt;br&gt;Location: 110284 - 109505" points="314,90 317,85 314,80 314,90 " locus_tag="ADC45549.1" id="dummy-1_h1_3_50" class="clusterblast-orf" style="stroke:black; fill:white; stroke-width:1; "  />
</g>
<g id="a1_0051"  >
<polygon description="&lt;b&gt;ADC45548.1&lt;/b&gt;&lt;br&gt;mandelate racemase&lt;br&gt;Location: 109508 - 108318" points="317,90 317,90 322,85 317,80 317,80 317,90 " locus_tag="ADC45548.1" id="dummy-1_h1_3_51" class="clusterblast-orf" style="stroke:black; fill:white; stroke-width:1; "  />
</g>
<g id="a1_0052"  >
<polygon description="&lt;b&gt;ADC45547.1&lt;/b&gt;&lt;br&gt;glyoxylate carboligase&lt;br&gt;Location: 108287 - 106518" points="323,85 328,80 330,80 330,90 328,90 323,85 " locus_tag="ADC45547.1" id="dummy-1_h1_3_52" class="clusterblast-orf" style="stroke:black; fill:white; stroke-width:1; "  />
</g>
<g id="a1_0053"  >
<polygon description="&lt;b&gt;ADC45546.1&lt;/b&gt;&lt;br&gt;2-hydroxy-3-oxopropionate reductase&lt;br&gt;Location: 106452 - 105556" points="330,85 334,80 334,90 330,85 " locus_tag="ADC45546.1" id="dummy-1_h1_3_53" class="clusterblast-orf" style="stroke:black; fill:white; stroke-width:1; "  />
</g>
<g id="a1_0054"  >
<polygon description="&lt;b&gt;ADC45545.1&lt;/b&gt;&lt;br&gt;hydroxypyruvate isomerase&lt;br&gt;Location: 105486 - 104656" points="334,85 338,80 338,90 334,85 " locus_tag="ADC45545.1" id="dummy-1_h1_3_54" class="clusterblast-orf" style="stroke:black; fill:white; stroke-width:1; "  />
</g>
<g id="a1_0055"  >
<polygon description="&lt;b&gt;ADC45544.1&lt;/b&gt;&lt;br&gt;hypothetical protein&lt;br&gt;Location: 104656 - 104276" points="338,85 339,80 339,90 338,85 " locus_tag="ADC45544.1" id="dummy-1_h1_3_55" class="clusterblast-orf" style="stroke:black; fill:white; stroke-width:1; "  />
</g>
<g id="a1_0056"  >
<polygon description="&lt;b&gt;ADC45543.1&lt;/b&gt;&lt;br&gt;hypothetical protein&lt;br&gt;Location: 103896 - 103666" points="341,90 342,85 341,80 341,90 " locus_tag="ADC45543.1" id="dummy-1_h1_3_56" class="clusterblast-orf" style="stroke:black; fill:white; stroke-width:1; "  />
</g>
<g id="a1_0057"  >
<polygon description="&lt;b&gt;ADC45542.1&lt;/b&gt;&lt;br&gt;Na+/solute symporter&lt;br&gt;Location: 103669 - 102173" points="342,90 343,90 348,85 343,80 342,80 342,90 " locus_tag="ADC45542.1" id="dummy-1_h1_3_57" class="clusterblast-orf" style="stroke:black; fill:white; stroke-width:1; "  />
</g>
<g id="a1_0058"  >
<polygon description="&lt;b&gt;ADC45541.1&lt;/b&gt;&lt;br&gt;beta-lactamase-like protein&lt;br&gt;Location: 102113 - 100671" points="349,85 354,80 355,80 355,90 354,90 349,85 " locus_tag="ADC45541.1" id="dummy-1_h1_3_58" class="clusterblast-orf" style="stroke:black; fill:white; stroke-width:1; "  />
</g>
<g id="a1_0059"  >
<polygon description="&lt;b&gt;ADC45540.1&lt;/b&gt;&lt;br&gt;hypothetical protein&lt;br&gt;Location: 100469 - 99318" points="355,85 360,80 360,80 360,90 360,90 355,85 " locus_tag="ADC45540.1" id="dummy-1_h1_3_59" class="clusterblast-orf" style="stroke:black; fill:white; stroke-width:1; "  />
</g>
<g id="a1_0060"  >
<polygon description="&lt;b&gt;ADC45539.1&lt;/b&gt;&lt;br&gt;LuxR-family transcriptional regulator&lt;br&gt;Location: 99015 - 96121" points="362,90 369,90 374,85 369,80 362,80 362,90 " locus_tag="ADC45539.1" id="dummy-1_h1_3_60" class="clusterblast-orf" style="stroke:black; fill:white; stroke-width:1; "  />
</g>
<g id="a1_0061"  >
<polygon description="&lt;b&gt;ADC45538.1&lt;/b&gt;&lt;br&gt;modular polyketide synthase&lt;br&gt;Location: 96074 - 78606" points="374,90 443,90 448,85 443,80 374,80 374,90 " locus_tag="ADC45538.1" id="dummy-1_h1_3_61" class="clusterblast-orf" style="stroke:black; fill:white; stroke-width:1; "  />
</g>
<g id="a1_0062"  >
<polygon description="&lt;b&gt;ADC45537.1&lt;/b&gt;&lt;br&gt;hypothetical protein&lt;br&gt;Location: 78601 - 77846" points="448,90 451,85 448,80 448,90 " locus_tag="ADC45537.1" id="dummy-1_h1_3_62" class="clusterblast-orf" style="stroke:black; fill:white; stroke-width:1; "  />
</g>
<g id="a1_0063"  >
<polygon description="&lt;b&gt;AAP13848.2&lt;/b&gt;&lt;br&gt;C5-ketoreductase&lt;br&gt;Location: 77679 - 76867" points="452,90 455,85 452,80 452,90 " locus_tag="AAP13848.2" id="dummy-1_h1_3_63" class="clusterblast-orf" style="stroke:black; fill:white; stroke-width:1; "  />
</g>
<g id="a1_0064"  >
<polygon description="&lt;b&gt;ADC45536.1&lt;/b&gt;&lt;br&gt;reductase&lt;br&gt;Location: 76829 - 76029" points="455,85 459,80 459,90 455,85 " locus_tag="ADC45536.1" id="dummy-1_h1_3_64" class="clusterblast-orf" style="stroke:black; fill:white; stroke-width:1; "  />
</g>
<g id="a1_0065"  >
<polygon description="&lt;b&gt;ADC45535.1&lt;/b&gt;&lt;br&gt;modular polyketide synthase&lt;br&gt;Location: 75769 - 59936" points="460,90 522,90 527,85 522,80 460,80 460,90 " locus_tag="ADC45535.1" id="dummy-1_h1_3_65" class="clusterblast-orf" style="stroke:black; fill:white; stroke-width:1; "  />
</g>
<g id="a1_0066"  >
<polygon description="&lt;b&gt;AAM97314.1&lt;/b&gt;&lt;br&gt;cytochrome P450 hydroxylase&lt;br&gt;Location: 59859 - 58480" points="527,90 528,90 533,85 528,80 527,80 527,90 " locus_tag="AAM97314.1" id="dummy-1_h1_3_66" class="clusterblast-orf" style="stroke:black; fill:white; stroke-width:1; "  />
</g>
<g id="a1_0067"  >
<polygon description="&lt;b&gt;AAM97313.1&lt;/b&gt;&lt;br&gt;post-polyketide modification protein&lt;br&gt;Location: 58421 - 57429" points="533,85 537,80 537,90 533,85 " locus_tag="AAM97313.1" id="dummy-1_h1_3_67" class="clusterblast-orf" style="stroke:black; fill:white; stroke-width:1; "  />
</g>
<g id="a1_0068"  >
<polygon description="&lt;b&gt;ADC45534.1&lt;/b&gt;&lt;br&gt;modular polyketide synthase&lt;br&gt;Location: 57415 - 39452" points="537,85 542,80 613,80 613,90 542,90 537,85 " locus_tag="ADC45534.1" id="dummy-1_h1_3_68" class="clusterblast-orf" style="stroke:black; fill:white; stroke-width:1; "  />
</g>
<g id="a1_0069"  >
<polygon description="&lt;b&gt;ADC45533.1&lt;/b&gt;&lt;br&gt;hypothetical protein&lt;br&gt;Location: 39195 - 38044" points="614,85 619,80 619,80 619,90 619,90 614,85 " locus_tag="ADC45533.1" id="dummy-1_h1_3_69" class="clusterblast-orf" style="stroke:black; fill:white; stroke-width:1; "  />
</g>
<g id="a1_0070"  >
<polygon description="&lt;b&gt;ADC45532.1&lt;/b&gt;&lt;br&gt;heavy metal translocating P-type ATPase&lt;br&gt;Location: 37849 - 37274" points="620,90 622,85 620,80 620,90 " locus_tag="ADC45532.1" id="dummy-1_h1_3_70" class="clusterblast-orf" style="stroke:black; fill:white; stroke-width:1; "  />
</g>
<g id="a1_0071"  >
<polygon description="&lt;b&gt;ADC45531.1&lt;/b&gt;&lt;br&gt;hypothetical protein&lt;br&gt;Location: 37263 - 36139" points="622,90 622,90 627,85 622,80 622,80 622,90 " locus_tag="ADC45531.1" id="dummy-1_h1_3_71" class="clusterblast-orf" style="stroke:black; fill:white; stroke-width:1; "  />
</g>
<g id="a1_0072"  >
<polygon description="&lt;b&gt;ADC45530.1&lt;/b&gt;&lt;br&gt;two-component system response regulator&lt;br&gt;Location: 36115 - 35423" points="627,85 630,80 630,90 627,85 " locus_tag="ADC45530.1" id="dummy-1_h1_3_72" class="clusterblast-orf" style="stroke:black; fill:white; stroke-width:1; "  />
</g>
<g id="a1_0073"  >
<polygon description="&lt;b&gt;ADC45529.1&lt;/b&gt;&lt;br&gt;two-component system histidine kinase&lt;br&gt;Location: 35426 - 33753" points="630,85 635,80 637,80 637,90 635,90 630,85 " locus_tag="ADC45529.1" id="dummy-1_h1_3_73" class="clusterblast-orf" style="stroke:black; fill:white; stroke-width:1; "  />
</g>
<g id="a1_0074"  >
<polygon description="&lt;b&gt;ADC45528.1&lt;/b&gt;&lt;br&gt;hypothetical protein&lt;br&gt;Location: 33654 - 32668" points="637,90 637,90 642,85 637,80 637,80 637,90 " locus_tag="ADC45528.1" id="dummy-1_h1_3_74" class="clusterblast-orf" style="stroke:black; fill:white; stroke-width:1; "  />
</g>
<g id="a1_0075"  >
<polygon description="&lt;b&gt;ADC45527.1&lt;/b&gt;&lt;br&gt;gluconate transporter&lt;br&gt;Location: 32580 - 31153" points="642,90 643,90 648,85 643,80 642,80 642,90 " locus_tag="ADC45527.1" id="dummy-1_h1_3_75" class="clusterblast-orf" style="stroke:black; fill:white; stroke-width:1; "  />
</g>
<g id="a1_0076"  >
<polygon description="&lt;b&gt;ADC45526.1&lt;/b&gt;&lt;br&gt;hypothetical protein&lt;br&gt;Location: 31071 - 27238" points="648,90 660,90 665,85 660,80 648,80 648,90 " locus_tag="ADC45526.1" id="dummy-1_h1_3_76" class="clusterblast-orf" style="stroke:black; fill:white; stroke-width:1; "  />
</g>
<g id="a1_0077"  >
<polygon description="&lt;b&gt;ADC45525.1&lt;/b&gt;&lt;br&gt;alpha-glucuronidase&lt;br&gt;Location: 27209 - 25161" points="665,85 670,80 673,80 673,90 670,90 665,85 " locus_tag="ADC45525.1" id="dummy-1_h1_3_77" class="clusterblast-orf" style="stroke:black; fill:white; stroke-width:1; "  />
</g>
<g id="a1_0078"  >
<polygon description="&lt;b&gt;ADC45524.1&lt;/b&gt;&lt;br&gt;hypothetical protein&lt;br&gt;Location: 25007 - 24504" points="674,90 676,85 674,80 674,90 " locus_tag="ADC45524.1" id="dummy-1_h1_3_78" class="clusterblast-orf" style="stroke:black; fill:white; stroke-width:1; "  />
</g>
<g id="a1_0079"  >
<polygon description="&lt;b&gt;ADC45523.1&lt;/b&gt;&lt;br&gt;secreted amidase&lt;br&gt;Location: 24429 - 22816" points="676,90 678,90 683,85 678,80 676,80 676,90 " locus_tag="ADC45523.1" id="dummy-1_h1_3_79" class="clusterblast-orf" style="stroke:black; fill:white; stroke-width:1; "  />
</g>
<g id="a1_0080"  >
<polygon description="&lt;b&gt;ADC45522.1&lt;/b&gt;&lt;br&gt;acyl-[acyl-carrier protein] desaturase&lt;br&gt;Location: 22801 - 21929&lt;br&gt;&lt;br&gt;&lt;b&gt;BlastP hit with cds196609_197452&lt;/b&gt;&lt;br&gt;Percentage identity: 46&lt;br&gt;Percentage coverage: 91&lt;br&gt;BLAST bit score: 235&lt;br&gt;E-value: 8e-62" points="683,85 687,80 687,90 683,85 " locus_tag="ADC45522.1" id="dummy-1_h1_3_80" class="clusterblast-orf" style="stroke:black; fill:#b115d8; stroke-width:1; "  />
</g>
<g id="a1_0081"  >
<polygon description="&lt;b&gt;ADC45521.1&lt;/b&gt;&lt;br&gt;cyclopropane-fatty-acyl-phospholipid synthase&lt;br&gt;Location: 21932 - 21063&lt;br&gt;&lt;br&gt;&lt;b&gt;BlastP hit with cds197467_198301&lt;/b&gt;&lt;br&gt;Percentage identity: 55&lt;br&gt;Percentage coverage: 98&lt;br&gt;BLAST bit score: 303&lt;br&gt;E-value: 3.1e-82" points="687,85 691,80 691,90 687,85 " locus_tag="ADC45521.1" id="dummy-1_h1_3_81" class="clusterblast-orf" style="stroke:black; fill:#b1d815; stroke-width:1; "  />
</g>
<g id="a1_0082"  >
<polygon description="&lt;b&gt;ADC45520.1&lt;/b&gt;&lt;br&gt;acyl carrier protein&lt;br&gt;Location: 21066 - 20776" points="691,85 692,80 692,90 691,85 " locus_tag="ADC45520.1" id="dummy-1_h1_3_82" class="clusterblast-orf" style="stroke:black; fill:white; stroke-width:1; "  />
</g>
<g id="a1_0083"  >
<polygon description="&lt;b&gt;ADC45519.1&lt;/b&gt;&lt;br&gt;thioesterase&lt;br&gt;Location: 20779 - 20249" points="692,85 694,80 694,90 692,85 " locus_tag="ADC45519.1" id="dummy-1_h1_3_83" class="clusterblast-orf" style="stroke:black; fill:white; stroke-width:1; "  />
</g>
<g id="a1_0084"  >
<polygon description="&lt;b&gt;ADC45518.1&lt;/b&gt;&lt;br&gt;hypothetical protein&lt;br&gt;Location: 20252 - 19386" points="694,85 698,80 698,90 694,85 " locus_tag="ADC45518.1" id="dummy-1_h1_3_84" class="clusterblast-orf" style="stroke:black; fill:white; stroke-width:1; "  />
</g>
<g id="a1_0085"  >
<polygon description="&lt;b&gt;ADC45517.1&lt;/b&gt;&lt;br&gt;AMP-dependent synthetase and ligase&lt;br&gt;Location: 19389 - 17671" points="698,85 703,80 705,80 705,90 703,90 698,85 " locus_tag="ADC45517.1" id="dummy-1_h1_3_85" class="clusterblast-orf" style="stroke:black; fill:white; stroke-width:1; "  />
</g>
<g id="a1_0086"  >
<polygon description="&lt;b&gt;ADC45516.1&lt;/b&gt;&lt;br&gt;modular polyketide synthase&lt;br&gt;Location: 17425 - 10556" points="706,90 730,90 735,85 730,80 706,80 706,90 " locus_tag="ADC45516.1" id="dummy-1_h1_3_86" class="clusterblast-orf" style="stroke:black; fill:white; stroke-width:1; "  />
</g>
<g id="a1_0087"  >
<polygon description="&lt;b&gt;ADC45515.1&lt;/b&gt;&lt;br&gt;modular polyketide synthase&lt;br&gt;Location: 10563 - 4699" points="735,90 755,90 760,85 755,80 735,80 735,90 " locus_tag="ADC45515.1" id="dummy-1_h1_3_87" class="clusterblast-orf" style="stroke:black; fill:white; stroke-width:1; "  />
</g>
<g id="a1_0088"  >
<polygon description="&lt;b&gt;ADC45514.1&lt;/b&gt;&lt;br&gt;cytochrome P450&lt;br&gt;Location: 4683 - 3487" points="760,85 765,80 765,80 765,90 765,90 760,85 " locus_tag="ADC45514.1" id="dummy-1_h1_3_88" class="clusterblast-orf" style="stroke:black; fill:white; stroke-width:1; "  />
</g>
<g id="a1_0089"  >
<polygon description="&lt;b&gt;ADC45513.1&lt;/b&gt;&lt;br&gt;LysR-family transcriptional regulator&lt;br&gt;Location: 3331 - 2432" points="765,85 769,80 769,90 765,85 " locus_tag="ADC45513.1" id="dummy-1_h1_3_89" class="clusterblast-orf" style="stroke:black; fill:white; stroke-width:1; "  />
</g>
<g id="a1_0090"  >
<polygon description="&lt;b&gt;ADC45512.1&lt;/b&gt;&lt;br&gt;intracellular protease/amidase&lt;br&gt;Location: 2280 - 1603" points="770,90 773,85 770,80 770,90 " locus_tag="ADC45512.1" id="dummy-1_h1_3_90" class="clusterblast-orf" style="stroke:black; fill:white; stroke-width:1; "  />
</g>
<g id="a1_0091"  >
<polygon description="&lt;b&gt;ADC45511.1&lt;/b&gt;&lt;br&gt;Na+/H+ antiporter&lt;br&gt;Location: 1337 - 1" points="774,90 775,90 780,85 775,80 774,80 774,90 " locus_tag="ADC45511.1" id="dummy-1_h1_3_91" class="clusterblast-orf" style="stroke:black; fill:white; stroke-width:1; "  />
</g>
</svg>
