<svg preserveAspectRatio="none" xmlns:xlink="http://www.w3.org/1999/xlink" version="1.1" xmlns="http://www.w3.org/2000/svg" height="230" viewBox="0 0 800 230" width="800" x="0" y="0"  >
<g class="clusterblast-cluster" label="Query sequence"  >
<text class="clusterblast-acc" x="5" y="20"  >
Query sequence</text>
<line x2="778.0" x1="10" y2="35" y1="35" style="stroke:grey; stroke-width:1; "  />
<polygon description="&lt;b&gt;cds594224_595154&lt;/b&gt;&lt;br&gt;Transcriptional regulator, LysR family&lt;br&gt;Location: 594224 - 595154" points="217,40 222,40 227,35 222,30 217,30 217,40 " locus_tag="cds594224_595154" id="dummy-4_q0_0_all" class="clusterblast-orf" style="stroke:black; fill:white; stroke-width:1; "  />
<polygon description="&lt;b&gt;cds595271_597458&lt;/b&gt;&lt;br&gt;Phosphate starvation-inducible protein PhoH, predicted ATPase&lt;br&gt;Location: 595271 - 597458" points="228,40 245,40 250,35 245,30 228,30 228,40 " locus_tag="cds595271_597458" id="dummy-4_q1_0_all" class="clusterblast-orf" style="stroke:black; fill:white; stroke-width:1; "  />
<polygon description="&lt;b&gt;cds597480_598035&lt;/b&gt;&lt;br&gt;Metal-dependent hydrolase YbeY, involved in rRNA and/or ribosome maturation and assembly&lt;br&gt;Location: 597480 - 598035" points="251,40 251,40 256,35 251,30 251,30 251,40 " locus_tag="cds597480_598035" id="dummy-4_q2_0_all" class="clusterblast-orf" style="stroke:black; fill:white; stroke-width:1; "  />
<polygon description="&lt;b&gt;cds598031_599393&lt;/b&gt;&lt;br&gt;Magnesium and cobalt efflux protein CorC&lt;br&gt;Location: 598031 - 599393" points="256,40 265,40 270,35 265,30 256,30 256,40 " locus_tag="cds598031_599393" id="dummy-4_q3_0_all" class="clusterblast-orf" style="stroke:black; fill:white; stroke-width:1; "  />
<polygon description="&lt;b&gt;cds599385_599796&lt;/b&gt;&lt;br&gt;Uncharacterized protein SCO2538&lt;br&gt;Location: 599385 - 599796" points="270,40 274,35 270,30 270,40 " locus_tag="cds599385_599796" id="dummy-4_q4_0_all" class="clusterblast-orf" style="stroke:black; fill:white; stroke-width:1; "  />
<polygon description="&lt;b&gt;cds599792_600719&lt;/b&gt;&lt;br&gt;GTP-binding protein Era&lt;br&gt;Location: 599792 - 600719" points="274,40 279,40 284,35 279,30 274,30 274,40 " locus_tag="cds599792_600719" id="dummy-4_q5_0_all" class="clusterblast-orf" style="stroke:black; fill:white; stroke-width:1; "  />
<polygon description="&lt;b&gt;cds600737_600854&lt;/b&gt;&lt;br&gt;Oxidoreductase&lt;br&gt;Location: 600737 - 600854" points="284,35 285,30 285,40 284,35 " locus_tag="cds600737_600854" id="dummy-4_q6_0_all" class="clusterblast-orf" style="stroke:black; fill:white; stroke-width:1; "  />
<polygon description="&lt;b&gt;cds601082_601463&lt;/b&gt;&lt;br&gt;Protein of unknown function DUF1304&lt;br&gt;Location: 601082 - 601463" points="287,35 291,30 291,40 287,35 " locus_tag="cds601082_601463" id="dummy-4_q7_0_all" class="clusterblast-orf" style="stroke:black; fill:white; stroke-width:1; "  />
<polygon description="&lt;b&gt;cds601591_601723&lt;/b&gt;&lt;br&gt;hypothetical protein&lt;br&gt;Location: 601591 - 601723" points="293,40 294,35 293,30 293,40 " locus_tag="cds601591_601723" id="dummy-4_q8_0_all" class="clusterblast-orf" style="stroke:black; fill:white; stroke-width:1; "  />
<polygon description="&lt;b&gt;cds601957_603382&lt;/b&gt;&lt;br&gt;Amidase family protein MSMEG 4492&lt;br&gt;Location: 601957 - 603382" points="296,35 301,30 311,30 311,40 301,40 296,35 " locus_tag="cds601957_603382" id="dummy-4_q9_0_all" class="clusterblast-orf" style="stroke:black; fill:white; stroke-width:1; "  />
<polygon description="&lt;b&gt;cds603557_603812&lt;/b&gt;&lt;br&gt;hypothetical protein&lt;br&gt;Location: 603557 - 603812" points="313,35 315,30 315,40 313,35 " locus_tag="cds603557_603812" id="dummy-4_q10_0_all" class="clusterblast-orf" style="stroke:black; fill:white; stroke-width:1; "  />
<polygon description="&lt;b&gt;cds603980_604715&lt;/b&gt;&lt;br&gt;hypothetical protein&lt;br&gt;Location: 603980 - 604715" points="317,35 322,30 324,30 324,40 322,40 317,35 " locus_tag="cds603980_604715" id="dummy-4_q11_0_all" class="clusterblast-orf" style="stroke:black; fill:#d81515; stroke-width:1; "  />
<polygon description="&lt;b&gt;cds604711_605209&lt;/b&gt;&lt;br&gt;Methylated-DNA--protein-cysteine methyltransferase (EC 2.1.1.63)&lt;br&gt;Location: 604711 - 605209" points="324,35 329,30 330,30 330,40 329,40 324,35 " locus_tag="cds604711_605209" id="dummy-4_q12_0_all" class="clusterblast-orf" style="stroke:black; fill:#15d8d8; stroke-width:1; "  />
<polygon description="&lt;b&gt;cds605591_606368&lt;/b&gt;&lt;br&gt;DNA recombination and repair protein RecO&lt;br&gt;Location: 605591 - 606368" points="333,40 336,40 341,35 336,30 333,30 333,40 " locus_tag="cds605591_606368" id="dummy-4_q13_0_all" class="clusterblast-orf" style="stroke:black; fill:white; stroke-width:1; "  />
<polygon description="&lt;b&gt;cds606490_607285&lt;/b&gt;&lt;br&gt;Trans,polycis-decaprenyl diphosphate synthase (EC 2.5.1.86)&lt;br&gt;Location: 606490 - 607285" points="343,40 346,40 351,35 346,30 343,30 343,40 " locus_tag="cds606490_607285" id="dummy-4_q14_0_all" class="clusterblast-orf" style="stroke:black; fill:white; stroke-width:1; "  />
<polygon description="&lt;b&gt;cds607281_607686&lt;/b&gt;&lt;br&gt;FIG025412: hypothetical protein&lt;br&gt;Location: 607281 - 607686" points="351,40 355,35 351,30 351,40 " locus_tag="cds607281_607686" id="dummy-4_q15_0_all" class="clusterblast-orf" style="stroke:black; fill:white; stroke-width:1; "  />
<polygon description="&lt;b&gt;cds607761_608442&lt;/b&gt;&lt;br&gt;Transcriptional regulator, AcrR family&lt;br&gt;Location: 607761 - 608442" points="356,40 357,40 362,35 357,30 356,30 356,40 " locus_tag="cds607761_608442" id="dummy-4_q16_0_all" class="clusterblast-orf" style="stroke:black; fill:white; stroke-width:1; "  />
<polygon description="&lt;b&gt;cds608463_609081&lt;/b&gt;&lt;br&gt;Transcriptional regulator, AcrR family&lt;br&gt;Location: 608463 - 609081" points="363,35 368,30 369,30 369,40 368,40 363,35 " locus_tag="cds608463_609081" id="dummy-4_q17_0_all" class="clusterblast-orf" style="stroke:black; fill:white; stroke-width:1; "  />
<polygon description="&lt;b&gt;cds609186_610155&lt;/b&gt;&lt;br&gt;putative membrane protein&lt;br&gt;Location: 609186 - 610155" points="370,40 375,40 380,35 375,30 370,30 370,40 " locus_tag="cds609186_610155" id="dummy-4_q18_0_all" class="clusterblast-orf" style="stroke:black; fill:white; stroke-width:1; "  />
<polygon description="&lt;b&gt;cds610264_610687&lt;/b&gt;&lt;br&gt;Zinc uptake regulation protein Zur&lt;br&gt;Location: 610264 - 610687" points="381,35 385,30 385,40 381,35 " locus_tag="cds610264_610687" id="dummy-4_q19_0_all" class="clusterblast-orf" style="stroke:black; fill:white; stroke-width:1; "  />
<polygon description="&lt;b&gt;cds610686_611082&lt;/b&gt;&lt;br&gt;Transcriptional regulator in glycyl-tRNA synthetase containing cluster&lt;br&gt;Location: 610686 - 611082" points="385,35 389,30 389,40 385,35 " locus_tag="cds610686_611082" id="dummy-4_q20_0_all" class="clusterblast-orf" style="stroke:black; fill:white; stroke-width:1; "  />
<polygon description="&lt;b&gt;cds611094_611211&lt;/b&gt;&lt;br&gt;hypothetical protein&lt;br&gt;Location: 611094 - 611211" points="390,35 391,30 391,40 390,35 " locus_tag="cds611094_611211" id="dummy-4_q21_0_all" class="clusterblast-orf" style="stroke:black; fill:white; stroke-width:1; "  />
<polygon description="&lt;b&gt;cds611283_612675&lt;/b&gt;&lt;br&gt;Glycyl-tRNA synthetase (EC 6.1.1.14)&lt;br&gt;Location: 611283 - 612675" points="391,40 401,40 406,35 401,30 391,30 391,40 " locus_tag="cds611283_612675" id="dummy-4_q22_0_all" class="clusterblast-orf" style="stroke:black; fill:white; stroke-width:1; "  />
<polygon description="&lt;b&gt;cds612864_613581&lt;/b&gt;&lt;br&gt;hypothetical protein&lt;br&gt;Location: 612864 - 613581" points="408,40 410,40 415,35 410,30 408,30 408,40 " locus_tag="cds612864_613581" id="dummy-4_q23_0_all" class="clusterblast-orf" style="stroke:black; fill:white; stroke-width:1; "  />
<polygon description="&lt;b&gt;cds613587_627609&lt;/b&gt;&lt;br&gt;Polyketide synthase modules and related proteins&lt;br&gt;Location: 613587 - 627609" points="415,40 553,40 558,35 553,30 415,30 415,40 " locus_tag="cds613587_627609" id="dummy-4_q24_0_all" class="clusterblast-orf" style="stroke:black; fill:white; stroke-width:1; "  />
<polygon description="&lt;b&gt;cds627714_627978&lt;/b&gt;&lt;br&gt;hypothetical protein&lt;br&gt;Location: 627714 - 627978" points="559,40 562,35 559,30 559,40 " locus_tag="cds627714_627978" id="dummy-4_q25_0_all" class="clusterblast-orf" style="stroke:black; fill:white; stroke-width:1; "  />
</g>
<g description="BGC0000075_c1: hygrocin A / hygrocin B (6% of genes show similarity), Polyketide" class="clusterblast-cluster" label="BGC0000075"  >
<text class="clusterblast-acc" x="5" y="70"  >
<a xlink:href="https://mibig.secondarymetabolites.org/go/BGC0000075/1" target="_blank">BGC0000075</a>:                                                          hygrocin A / hygrocin B (6% of genes show similarity), Polyketide</text>
<line x2="778.0" x1="10" y2="85" y1="85" style="stroke:grey; stroke-width:1; "  />
</g>
<g id="a4_000"  >
<polygon description="&lt;b&gt;AFV30240.1&lt;/b&gt;&lt;br&gt;TetR family transcriptional regulator&lt;br&gt;Location: 1 - 582" points="0,85 5,80 5,80 5,90 5,90 0,85 " locus_tag="AFV30240.1" id="dummy-4_h4_1_0" class="clusterblast-orf" style="stroke:black; fill:white; stroke-width:1; "  />
</g>
<g id="a4_001"  >
<polygon description="&lt;b&gt;AFV30241.1&lt;/b&gt;&lt;br&gt;fumarate reductase/succinate dehydrogenase flavoprotein domain protein&lt;br&gt;Location: 762 - 2588" points="7,90 21,90 26,85 21,80 7,80 7,90 " locus_tag="AFV30241.1" id="dummy-4_h4_1_1" class="clusterblast-orf" style="stroke:black; fill:white; stroke-width:1; "  />
</g>
<g id="a4_002"  >
<polygon description="&lt;b&gt;AFV30242.1&lt;/b&gt;&lt;br&gt;NHL repeat containing protein&lt;br&gt;Location: 2612 - 4306" points="26,90 38,90 43,85 38,80 26,80 26,90 " locus_tag="AFV30242.1" id="dummy-4_h4_1_2" class="clusterblast-orf" style="stroke:black; fill:white; stroke-width:1; "  />
</g>
<g id="a4_003"  >
<polygon description="&lt;b&gt;AFV30243.1&lt;/b&gt;&lt;br&gt;alcohol dehydrogenas&lt;br&gt;Location: 4327 - 5301" points="44,85 49,80 54,80 54,90 49,90 44,85 " locus_tag="AFV30243.1" id="dummy-4_h4_1_3" class="clusterblast-orf" style="stroke:black; fill:white; stroke-width:1; "  />
</g>
<g id="a4_004"  >
<polygon description="&lt;b&gt;AFV30244.1&lt;/b&gt;&lt;br&gt;nitroreductase&lt;br&gt;Location: 5520 - 6149" points="56,90 57,90 62,85 57,80 56,80 56,90 " locus_tag="AFV30244.1" id="dummy-4_h4_1_4" class="clusterblast-orf" style="stroke:black; fill:white; stroke-width:1; "  />
</g>
<g id="a4_005"  >
<polygon description="&lt;b&gt;AFV30245.1&lt;/b&gt;&lt;br&gt;LuxR family transcriptional regulator&lt;br&gt;Location: 6685 - 9609" points="68,90 92,90 97,85 92,80 68,80 68,90 " locus_tag="AFV30245.1" id="dummy-4_h4_1_5" class="clusterblast-orf" style="stroke:black; fill:white; stroke-width:1; "  />
</g>
<g id="a4_006"  >
<polygon description="&lt;b&gt;AFV30246.1&lt;/b&gt;&lt;br&gt;FAD-binding monooxygenase&lt;br&gt;Location: 9642 - 11234" points="98,85 103,80 114,80 114,90 103,90 98,85 " locus_tag="AFV30246.1" id="dummy-4_h4_1_6" class="clusterblast-orf" style="stroke:black; fill:white; stroke-width:1; "  />
</g>
<g id="a4_007"  >
<polygon description="&lt;b&gt;AFV30247.1&lt;/b&gt;&lt;br&gt;polyketide synthase&lt;br&gt;Location: 11393 - 27940" points="116,90 279,90 284,85 279,80 116,80 116,90 " locus_tag="AFV30247.1" id="dummy-4_h4_1_7" class="clusterblast-orf" style="stroke:black; fill:white; stroke-width:1; "  />
</g>
<g id="a4_008"  >
<polygon description="&lt;b&gt;AFV30248.1&lt;/b&gt;&lt;br&gt;polyketide synthase&lt;br&gt;Location: 27967 - 34623" points="285,90 348,90 353,85 348,80 285,80 285,90 " locus_tag="AFV30248.1" id="dummy-4_h4_1_8" class="clusterblast-orf" style="stroke:black; fill:white; stroke-width:1; "  />
</g>
<g id="a4_009"  >
<polygon description="&lt;b&gt;AFV30249.1&lt;/b&gt;&lt;br&gt;polyketide synthase&lt;br&gt;Location: 34708 - 40260" points="353,90 405,90 410,85 405,80 353,80 353,90 " locus_tag="AFV30249.1" id="dummy-4_h4_1_9" class="clusterblast-orf" style="stroke:black; fill:white; stroke-width:1; "  />
</g>
<g id="a4_0010"  >
<polygon description="&lt;b&gt;AFV30250.1&lt;/b&gt;&lt;br&gt;polyketide synthase&lt;br&gt;Location: 40281 - 46865" points="410,90 472,90 477,85 472,80 410,80 410,90 " locus_tag="AFV30250.1" id="dummy-4_h4_1_10" class="clusterblast-orf" style="stroke:black; fill:white; stroke-width:1; "  />
</g>
<g id="a4_0011"  >
<polygon description="&lt;b&gt;AFV30251.1&lt;/b&gt;&lt;br&gt;polyketide synthase&lt;br&gt;Location: 46865 - 55399" points="477,90 560,90 565,85 560,80 477,80 477,90 " locus_tag="AFV30251.1" id="dummy-4_h4_1_11" class="clusterblast-orf" style="stroke:black; fill:white; stroke-width:1; "  />
</g>
<g id="a4_0012"  >
<polygon description="&lt;b&gt;AFV30252.1&lt;/b&gt;&lt;br&gt;amide synthase&lt;br&gt;Location: 55396 - 56280" points="565,90 569,90 574,85 569,80 565,80 565,90 " locus_tag="AFV30252.1" id="dummy-4_h4_1_12" class="clusterblast-orf" style="stroke:black; fill:white; stroke-width:1; "  />
</g>
<g id="a4_0013"  >
<polygon description="&lt;b&gt;AFV30253.1&lt;/b&gt;&lt;br&gt;putative FMN-binding monoxygenase&lt;br&gt;Location: 56293 - 57519" points="574,90 581,90 586,85 581,80 574,80 574,90 " locus_tag="AFV30253.1" id="dummy-4_h4_1_13" class="clusterblast-orf" style="stroke:black; fill:white; stroke-width:1; "  />
</g>
<g id="a4_0014"  >
<polygon description="&lt;b&gt;AFV30254.1&lt;/b&gt;&lt;br&gt;cytochrome P450&lt;br&gt;Location: 57570 - 58769" points="587,90 594,90 599,85 594,80 587,80 587,90 " locus_tag="AFV30254.1" id="dummy-4_h4_1_14" class="clusterblast-orf" style="stroke:black; fill:white; stroke-width:1; "  />
</g>
<g id="a4_0015"  >
<polygon description="&lt;b&gt;AFV30255.1&lt;/b&gt;&lt;br&gt;2OG-Fe(II) oxygenase&lt;br&gt;Location: 58770 - 59450" points="599,85 604,80 606,80 606,90 604,90 599,85 " locus_tag="AFV30255.1" id="dummy-4_h4_1_15" class="clusterblast-orf" style="stroke:black; fill:white; stroke-width:1; "  />
</g>
<g id="a4_0016"  >
<polygon description="&lt;b&gt;AFV30256.1&lt;/b&gt;&lt;br&gt;hypothetical protein&lt;br&gt;Location: 59539 - 60267&lt;br&gt;&lt;br&gt;&lt;b&gt;BlastP hit with cds603980_604715&lt;/b&gt;&lt;br&gt;Percentage identity: 72&lt;br&gt;Percentage coverage: 99&lt;br&gt;BLAST bit score: 363&lt;br&gt;E-value: 3.8e-100" points="607,85 612,80 614,80 614,90 612,90 607,85 " locus_tag="AFV30256.1" id="dummy-4_h4_1_16" class="clusterblast-orf" style="stroke:black; fill:#d81515; stroke-width:1; "  />
</g>
<g id="a4_0017"  >
<polygon description="&lt;b&gt;AFV30257.1&lt;/b&gt;&lt;br&gt;putative methylated-DNA-protein-cysteine S-methyltransferase&lt;br&gt;Location: 60335 - 60841&lt;br&gt;&lt;br&gt;&lt;b&gt;BlastP hit with cds604711_605209&lt;/b&gt;&lt;br&gt;Percentage identity: 63&lt;br&gt;Percentage coverage: 102&lt;br&gt;BLAST bit score: 205&lt;br&gt;E-value: 5.2e-53" points="615,85 620,80 620,80 620,90 620,90 615,85 " locus_tag="AFV30257.1" id="dummy-4_h4_1_17" class="clusterblast-orf" style="stroke:black; fill:#15d8d8; stroke-width:1; "  />
</g>
<g id="a4_0018"  >
<polygon description="&lt;b&gt;AFV30258.1&lt;/b&gt;&lt;br&gt;hypothetical protein&lt;br&gt;Location: 60954 - 61580" points="621,85 626,80 628,80 628,90 626,90 621,85 " locus_tag="AFV30258.1" id="dummy-4_h4_1_18" class="clusterblast-orf" style="stroke:black; fill:white; stroke-width:1; "  />
</g>
<g id="a4_0019"  >
<polygon description="&lt;b&gt;AFV30259.1&lt;/b&gt;&lt;br&gt;putative integral membrane sensor protein&lt;br&gt;Location: 61710 - 64433" points="629,85 634,80 657,80 657,90 634,90 629,85 " locus_tag="AFV30259.1" id="dummy-4_h4_1_19" class="clusterblast-orf" style="stroke:black; fill:white; stroke-width:1; "  />
</g>
<g id="a4_0020"  >
<polygon description="&lt;b&gt;AFV30260.1&lt;/b&gt;&lt;br&gt;putative protease B precursor&lt;br&gt;Location: 64613 - 65563" points="659,90 663,90 668,85 663,80 659,80 659,90 " locus_tag="AFV30260.1" id="dummy-4_h4_1_20" class="clusterblast-orf" style="stroke:black; fill:white; stroke-width:1; "  />
</g>
<g id="a4_0021"  >
<polygon description="&lt;b&gt;AFV30261.1&lt;/b&gt;&lt;br&gt;FAD-dependent pyridine nucleotide-disulfide oxidoreductase&lt;br&gt;Location: 65868 - 66923" points="671,85 676,80 682,80 682,90 676,90 671,85 " locus_tag="AFV30261.1" id="dummy-4_h4_1_21" class="clusterblast-orf" style="stroke:black; fill:white; stroke-width:1; "  />
</g>
<g id="a4_0022"  >
<polygon description="&lt;b&gt;AFV30262.1&lt;/b&gt;&lt;br&gt;putative integral-membrane protein&lt;br&gt;Location: 67301 - 68119" points="686,90 689,90 694,85 689,80 686,80 686,90 " locus_tag="AFV30262.1" id="dummy-4_h4_1_22" class="clusterblast-orf" style="stroke:black; fill:white; stroke-width:1; "  />
</g>
<g id="a4_0023"  >
<polygon description="&lt;b&gt;AFV30263.1&lt;/b&gt;&lt;br&gt;putative ECF-family sigma factor&lt;br&gt;Location: 68304 - 68936" points="696,90 698,90 703,85 698,80 696,80 696,90 " locus_tag="AFV30263.1" id="dummy-4_h4_1_23" class="clusterblast-orf" style="stroke:black; fill:white; stroke-width:1; "  />
</g>
<g id="a4_0024"  >
<polygon description="&lt;b&gt;AFV30270.1&lt;/b&gt;&lt;br&gt;phosphatase&lt;br&gt;Location: 69067 - 69762" points="704,85 709,80 711,80 711,90 709,90 704,85 " locus_tag="AFV30270.1" id="dummy-4_h4_1_24" class="clusterblast-orf" style="stroke:black; fill:white; stroke-width:1; "  />
</g>
<g id="a4_0025"  >
<polygon description="&lt;b&gt;AFV30264.1&lt;/b&gt;&lt;br&gt;oxidoreductase&lt;br&gt;Location: 69958 - 71046" points="713,85 718,80 724,80 724,90 718,90 713,85 " locus_tag="AFV30264.1" id="dummy-4_h4_1_25" class="clusterblast-orf" style="stroke:black; fill:white; stroke-width:1; "  />
</g>
<g id="a4_0026"  >
<polygon description="&lt;b&gt;AFV30265.1&lt;/b&gt;&lt;br&gt;AHBA synthase&lt;br&gt;Location: 71088 - 72254" points="725,85 730,80 736,80 736,90 730,90 725,85 " locus_tag="AFV30265.1" id="dummy-4_h4_1_26" class="clusterblast-orf" style="stroke:black; fill:white; stroke-width:1; "  />
</g>
<g id="a4_0027"  >
<polygon description="&lt;b&gt;AFV30266.1&lt;/b&gt;&lt;br&gt;aDHQ dehydratase&lt;br&gt;Location: 72469 - 72915" points="739,90 743,85 739,80 739,90 " locus_tag="AFV30266.1" id="dummy-4_h4_1_27" class="clusterblast-orf" style="stroke:black; fill:white; stroke-width:1; "  />
</g>
<g id="a4_0028"  >
<polygon description="&lt;b&gt;AFV30267.1&lt;/b&gt;&lt;br&gt;kinase&lt;br&gt;Location: 73021 - 73899" points="744,90 748,90 753,85 748,80 744,80 744,90 " locus_tag="AFV30267.1" id="dummy-4_h4_1_28" class="clusterblast-orf" style="stroke:black; fill:white; stroke-width:1; "  />
</g>
<g id="a4_0029"  >
<polygon description="&lt;b&gt;AFV30268.1&lt;/b&gt;&lt;br&gt;MerR family transcriptional regulator&lt;br&gt;Location: 74058 - 74909" points="755,90 759,90 764,85 759,80 755,80 755,90 " locus_tag="AFV30268.1" id="dummy-4_h4_1_29" class="clusterblast-orf" style="stroke:black; fill:white; stroke-width:1; "  />
</g>
<g id="a4_0030"  >
<polygon description="&lt;b&gt;AFV30269.1&lt;/b&gt;&lt;br&gt;hypothetical protein&lt;br&gt;Location: 75063 - 76475" points="765,85 770,80 780,80 780,90 770,90 765,85 " locus_tag="AFV30269.1" id="dummy-4_h4_1_30" class="clusterblast-orf" style="stroke:black; fill:white; stroke-width:1; "  />
</g>
</svg>
