<svg preserveAspectRatio="none" xmlns:xlink="http://www.w3.org/1999/xlink" version="1.1" xmlns="http://www.w3.org/2000/svg" height="50" viewBox="0 0 800 50" width="800" x="0" y="0"  >
<g class="clusterblast-cluster" label="Query sequence"  >
<text class="clusterblast-acc" x="5" y="20"  >
Query sequence</text>
<line x2="778.0" x1="10" y2="35" y1="35" style="stroke:grey; stroke-width:1; "  />
<polygon description="&lt;b&gt;cds45849_46056&lt;/b&gt;&lt;br&gt;Small DUF397-containing protein&lt;br&gt;Location: 45849 - 46056" points="0,40 1,35 0,30 0,40 " locus_tag="cds45849_46056" id="subclusterblast-1_q0_0_all" class="clusterblast-orf" style="stroke:black; fill:white; stroke-width:1; "  />
<polygon description="&lt;b&gt;cds46082_46196&lt;/b&gt;&lt;br&gt;hypothetical protein&lt;br&gt;Location: 46082 - 46196" points="2,35 3,30 3,40 2,35 " locus_tag="cds46082_46196" id="subclusterblast-1_q1_0_all" class="clusterblast-orf" style="stroke:black; fill:white; stroke-width:1; "  />
<polygon description="&lt;b&gt;cds46589_47999&lt;/b&gt;&lt;br&gt;hypothetical protein&lt;br&gt;Location: 46589 - 47999" points="6,40 13,40 18,35 13,30 6,30 6,40 " locus_tag="cds46589_47999" id="subclusterblast-1_q2_0_all" class="clusterblast-orf" style="stroke:black; fill:white; stroke-width:1; "  />
<polygon description="&lt;b&gt;cds48052_49411&lt;/b&gt;&lt;br&gt;hypothetical protein&lt;br&gt;Location: 48052 - 49411" points="18,35 23,30 30,30 30,40 23,40 18,35 " locus_tag="cds48052_49411" id="subclusterblast-1_q3_0_all" class="clusterblast-orf" style="stroke:black; fill:white; stroke-width:1; "  />
<polygon description="&lt;b&gt;cds49506_49668&lt;/b&gt;&lt;br&gt;hypothetical protein&lt;br&gt;Location: 49506 - 49668" points="31,35 32,30 32,40 31,35 " locus_tag="cds49506_49668" id="subclusterblast-1_q4_0_all" class="clusterblast-orf" style="stroke:black; fill:white; stroke-width:1; "  />
<polygon description="&lt;b&gt;cds49727_49874&lt;/b&gt;&lt;br&gt;hypothetical protein&lt;br&gt;Location: 49727 - 49874" points="33,40 34,35 33,30 33,40 " locus_tag="cds49727_49874" id="subclusterblast-1_q5_0_all" class="clusterblast-orf" style="stroke:black; fill:white; stroke-width:1; "  />
<polygon description="&lt;b&gt;cds49963_50434&lt;/b&gt;&lt;br&gt;hypothetical protein&lt;br&gt;Location: 49963 - 50434" points="35,35 39,30 39,40 35,35 " locus_tag="cds49963_50434" id="subclusterblast-1_q6_0_all" class="clusterblast-orf" style="stroke:black; fill:white; stroke-width:1; "  />
<polygon description="&lt;b&gt;cds50699_50828&lt;/b&gt;&lt;br&gt;hypothetical protein&lt;br&gt;Location: 50699 - 50828" points="41,35 42,30 42,40 41,35 " locus_tag="cds50699_50828" id="subclusterblast-1_q7_0_all" class="clusterblast-orf" style="stroke:black; fill:white; stroke-width:1; "  />
<polygon description="&lt;b&gt;cds50811_51018&lt;/b&gt;&lt;br&gt;hypothetical protein&lt;br&gt;Location: 50811 - 51018" points="42,35 44,30 44,40 42,35 " locus_tag="cds50811_51018" id="subclusterblast-1_q8_0_all" class="clusterblast-orf" style="stroke:black; fill:white; stroke-width:1; "  />
<polygon description="&lt;b&gt;cds51163_52180&lt;/b&gt;&lt;br&gt;putative esterase&lt;br&gt;Location: 51163 - 52180" points="45,35 50,30 53,30 53,40 50,40 45,35 " locus_tag="cds51163_52180" id="subclusterblast-1_q9_0_all" class="clusterblast-orf" style="stroke:black; fill:white; stroke-width:1; "  />
<polygon description="&lt;b&gt;cds52183_53125&lt;/b&gt;&lt;br&gt;Fatty acid desaturase occurring in virulence cluster&lt;br&gt;Location: 52183 - 53125" points="53,35 58,30 61,30 61,40 58,40 53,35 " locus_tag="cds52183_53125" id="subclusterblast-1_q10_0_all" class="clusterblast-orf" style="stroke:black; fill:white; stroke-width:1; "  />
<polygon description="&lt;b&gt;cds53161_54340&lt;/b&gt;&lt;br&gt;probable triacylglycerol lipase( EC:3.1.1.3 )&lt;br&gt;Location: 53161 - 54340" points="62,35 67,30 72,30 72,40 67,40 62,35 " locus_tag="cds53161_54340" id="subclusterblast-1_q11_0_all" class="clusterblast-orf" style="stroke:black; fill:white; stroke-width:1; "  />
<polygon description="&lt;b&gt;cds54379_54526&lt;/b&gt;&lt;br&gt;hypothetical protein&lt;br&gt;Location: 54379 - 54526" points="72,40 73,35 72,30 72,40 " locus_tag="cds54379_54526" id="subclusterblast-1_q12_0_all" class="clusterblast-orf" style="stroke:black; fill:white; stroke-width:1; "  />
<polygon description="&lt;b&gt;cds54527_54659&lt;/b&gt;&lt;br&gt;hypothetical protein&lt;br&gt;Location: 54527 - 54659" points="73,40 74,35 73,30 73,40 " locus_tag="cds54527_54659" id="subclusterblast-1_q13_0_all" class="clusterblast-orf" style="stroke:black; fill:white; stroke-width:1; "  />
<polygon description="&lt;b&gt;cds54703_55963&lt;/b&gt;&lt;br&gt;Transcriptional regulator&lt;br&gt;Location: 54703 - 55963" points="75,40 81,40 86,35 81,30 75,30 75,40 " locus_tag="cds54703_55963" id="subclusterblast-1_q14_0_all" class="clusterblast-orf" style="stroke:black; fill:white; stroke-width:1; "  />
<polygon description="&lt;b&gt;cds56132_56927&lt;/b&gt;&lt;br&gt;hypothetical protein&lt;br&gt;Location: 56132 - 56927" points="87,40 89,40 94,35 89,30 87,30 87,40 " locus_tag="cds56132_56927" id="subclusterblast-1_q15_0_all" class="clusterblast-orf" style="stroke:black; fill:white; stroke-width:1; "  />
<polygon description="&lt;b&gt;cds57012_58023&lt;/b&gt;&lt;br&gt;Putative transmembrane protein&lt;br&gt;Location: 57012 - 58023" points="94,40 98,40 103,35 98,30 94,30 94,40 " locus_tag="cds57012_58023" id="subclusterblast-1_q16_0_all" class="clusterblast-orf" style="stroke:black; fill:white; stroke-width:1; "  />
<polygon description="&lt;b&gt;cds58024_59758&lt;/b&gt;&lt;br&gt;hypothetical protein&lt;br&gt;Location: 58024 - 59758" points="103,35 108,30 118,30 118,40 108,40 103,35 " locus_tag="cds58024_59758" id="subclusterblast-1_q17_0_all" class="clusterblast-orf" style="stroke:black; fill:white; stroke-width:1; "  />
<polygon description="&lt;b&gt;cds59842_60919&lt;/b&gt;&lt;br&gt;hypothetical protein&lt;br&gt;Location: 59842 - 60919" points="118,40 123,40 128,35 123,30 118,30 118,40 " locus_tag="cds59842_60919" id="subclusterblast-1_q18_0_all" class="clusterblast-orf" style="stroke:black; fill:white; stroke-width:1; "  />
<polygon description="&lt;b&gt;cds61033_62017&lt;/b&gt;&lt;br&gt;Fatty acid desaturase occurring in virulence cluster&lt;br&gt;Location: 61033 - 62017" points="129,35 134,30 137,30 137,40 134,40 129,35 " locus_tag="cds61033_62017" id="subclusterblast-1_q19_0_all" class="clusterblast-orf" style="stroke:black; fill:white; stroke-width:1; "  />
<polygon description="&lt;b&gt;cds62004_62712&lt;/b&gt;&lt;br&gt;hypothetical protein&lt;br&gt;Location: 62004 - 62712" points="137,35 142,30 143,30 143,40 142,40 137,35 " locus_tag="cds62004_62712" id="subclusterblast-1_q20_0_all" class="clusterblast-orf" style="stroke:black; fill:white; stroke-width:1; "  />
<polygon description="&lt;b&gt;cds62708_63650&lt;/b&gt;&lt;br&gt;Lysophospholipase (EC 3.1.1.5)&lt;br&gt;Location: 62708 - 63650" points="143,35 148,30 151,30 151,40 148,40 143,35 " locus_tag="cds62708_63650" id="subclusterblast-1_q21_0_all" class="clusterblast-orf" style="stroke:black; fill:white; stroke-width:1; "  />
<polygon description="&lt;b&gt;cds63909_64434&lt;/b&gt;&lt;br&gt;hypothetical protein&lt;br&gt;Location: 63909 - 64434" points="153,40 153,40 158,35 153,30 153,30 153,40 " locus_tag="cds63909_64434" id="subclusterblast-1_q22_0_all" class="clusterblast-orf" style="stroke:black; fill:white; stroke-width:1; "  />
<polygon description="&lt;b&gt;cds64430_64763&lt;/b&gt;&lt;br&gt;hypothetical protein&lt;br&gt;Location: 64430 - 64763" points="157,40 160,35 157,30 157,40 " locus_tag="cds64430_64763" id="subclusterblast-1_q23_0_all" class="clusterblast-orf" style="stroke:black; fill:white; stroke-width:1; "  />
<polygon description="&lt;b&gt;cds64812_65472&lt;/b&gt;&lt;br&gt;hypothetical protein&lt;br&gt;Location: 64812 - 65472" points="161,40 161,40 166,35 161,30 161,30 161,40 " locus_tag="cds64812_65472" id="subclusterblast-1_q24_0_all" class="clusterblast-orf" style="stroke:black; fill:white; stroke-width:1; "  />
<polygon description="&lt;b&gt;cds65662_67765&lt;/b&gt;&lt;br&gt;Long-chain-fatty-acid--CoA ligase (EC 6.2.1.3)&lt;br&gt;Location: 65662 - 67765" points="168,35 173,30 186,30 186,40 173,40 168,35 " locus_tag="cds65662_67765" id="subclusterblast-1_q25_0_all" class="clusterblast-orf" style="stroke:black; fill:white; stroke-width:1; "  />
<polygon description="&lt;b&gt;cds67869_68574&lt;/b&gt;&lt;br&gt;hypothetical protein&lt;br&gt;Location: 67869 - 68574" points="187,35 192,30 193,30 193,40 192,40 187,35 " locus_tag="cds67869_68574" id="subclusterblast-1_q26_0_all" class="clusterblast-orf" style="stroke:black; fill:white; stroke-width:1; "  />
<polygon description="&lt;b&gt;cds68570_70706&lt;/b&gt;&lt;br&gt;Maltose phosphorylase (EC 2.4.1.8) / Trehalose phosphorylase (EC 2.4.1.64)&lt;br&gt;Location: 68570 - 70706" points="193,35 198,30 211,30 211,40 198,40 193,35 " locus_tag="cds68570_70706" id="subclusterblast-1_q27_0_all" class="clusterblast-orf" style="stroke:black; fill:white; stroke-width:1; "  />
<polygon description="&lt;b&gt;cds70792_71359&lt;/b&gt;&lt;br&gt;hypothetical protein&lt;br&gt;Location: 70792 - 71359" points="212,35 216,30 216,40 212,35 " locus_tag="cds70792_71359" id="subclusterblast-1_q28_0_all" class="clusterblast-orf" style="stroke:black; fill:white; stroke-width:1; "  />
<polygon description="&lt;b&gt;cds71588_71849&lt;/b&gt;&lt;br&gt;hypothetical protein&lt;br&gt;Location: 71588 - 71849" points="218,40 221,35 218,30 218,40 " locus_tag="cds71588_71849" id="subclusterblast-1_q29_0_all" class="clusterblast-orf" style="stroke:black; fill:white; stroke-width:1; "  />
<polygon description="&lt;b&gt;cds71913_72045&lt;/b&gt;&lt;br&gt;hypothetical protein&lt;br&gt;Location: 71913 - 72045" points="221,40 222,35 221,30 221,40 " locus_tag="cds71913_72045" id="subclusterblast-1_q30_0_all" class="clusterblast-orf" style="stroke:black; fill:white; stroke-width:1; "  />
<polygon description="&lt;b&gt;cds72201_73374&lt;/b&gt;&lt;br&gt;Uncharacterized MFS-type transporter&lt;br&gt;Location: 72201 - 73374" points="224,40 228,40 233,35 228,30 224,30 224,40 " locus_tag="cds72201_73374" id="subclusterblast-1_q31_0_all" class="clusterblast-orf" style="stroke:black; fill:white; stroke-width:1; "  />
<polygon description="&lt;b&gt;cds73733_74336&lt;/b&gt;&lt;br&gt;Transcriptional regulator, AcrR family&lt;br&gt;Location: 73733 - 74336" points="237,35 242,30 242,30 242,40 242,40 237,35 " locus_tag="cds73733_74336" id="subclusterblast-1_q32_0_all" class="clusterblast-orf" style="stroke:black; fill:white; stroke-width:1; "  />
<polygon description="&lt;b&gt;cds74403_74994&lt;/b&gt;&lt;br&gt;putative membrane protein&lt;br&gt;Location: 74403 - 74994" points="242,40 242,40 247,35 242,30 242,30 242,40 " locus_tag="cds74403_74994" id="subclusterblast-1_q33_0_all" class="clusterblast-orf" style="stroke:black; fill:white; stroke-width:1; "  />
<polygon description="&lt;b&gt;cds75009_75600&lt;/b&gt;&lt;br&gt;Transcriptional regulator, PadR family&lt;br&gt;Location: 75009 - 75600" points="247,35 252,30 252,30 252,40 252,40 247,35 " locus_tag="cds75009_75600" id="subclusterblast-1_q34_0_all" class="clusterblast-orf" style="stroke:black; fill:white; stroke-width:1; "  />
<polygon description="&lt;b&gt;cds75622_77434&lt;/b&gt;&lt;br&gt;Flavodoxin reductases (ferredoxin-NADPH reductases) family 1; Vanillate O-demethylase oxidoreductase (EC 1.14.13.-)&lt;br&gt;Location: 75622 - 77434" points="253,35 258,30 268,30 268,40 258,40 253,35 " locus_tag="cds75622_77434" id="subclusterblast-1_q35_0_all" class="clusterblast-orf" style="stroke:black; fill:white; stroke-width:1; "  />
<polygon description="&lt;b&gt;cds77788_94123&lt;/b&gt;&lt;br&gt;Siderophore biosynthesis non-ribosomal peptide synthetase modules&lt;br&gt;Location: 77788 - 94123" points="271,40 405,40 410,35 405,30 271,30 271,40 " locus_tag="cds77788_94123" id="subclusterblast-1_q36_0_all" class="clusterblast-orf" style="stroke:black; fill:white; stroke-width:1; "  />
<polygon description="&lt;b&gt;cds94127_94394&lt;/b&gt;&lt;br&gt;hypothetical protein&lt;br&gt;Location: 94127 - 94394" points="410,35 412,30 412,40 410,35 " locus_tag="cds94127_94394" id="subclusterblast-1_q37_0_all" class="clusterblast-orf" style="stroke:black; fill:white; stroke-width:1; "  />
<polygon description="&lt;b&gt;cds94562_95957&lt;/b&gt;&lt;br&gt;Probable NreB protein&lt;br&gt;Location: 94562 - 95957" points="414,40 420,40 425,35 420,30 414,30 414,40 " locus_tag="cds94562_95957" id="subclusterblast-1_q38_0_all" class="clusterblast-orf" style="stroke:black; fill:white; stroke-width:1; "  />
<polygon description="&lt;b&gt;cds96004_96238&lt;/b&gt;&lt;br&gt;hypothetical protein&lt;br&gt;Location: 96004 - 96238" points="426,35 428,30 428,40 426,35 " locus_tag="cds96004_96238" id="subclusterblast-1_q39_0_all" class="clusterblast-orf" style="stroke:black; fill:white; stroke-width:1; "  />
<polygon description="&lt;b&gt;cds96240_97509&lt;/b&gt;&lt;br&gt;hypothetical protein&lt;br&gt;Location: 96240 - 97509" points="428,35 433,30 439,30 439,40 433,40 428,35 " locus_tag="cds96240_97509" id="subclusterblast-1_q40_0_all" class="clusterblast-orf" style="stroke:black; fill:white; stroke-width:1; "  />
<polygon description="&lt;b&gt;cds97532_98387&lt;/b&gt;&lt;br&gt;hypothetical protein&lt;br&gt;Location: 97532 - 98387" points="439,35 444,30 446,30 446,40 444,40 439,35 " locus_tag="cds97532_98387" id="subclusterblast-1_q41_0_all" class="clusterblast-orf" style="stroke:black; fill:white; stroke-width:1; "  />
<polygon description="&lt;b&gt;cds98454_99996&lt;/b&gt;&lt;br&gt;hypothetical protein&lt;br&gt;Location: 98454 - 99996" points="447,35 452,30 460,30 460,40 452,40 447,35 " locus_tag="cds98454_99996" id="subclusterblast-1_q42_0_all" class="clusterblast-orf" style="stroke:black; fill:white; stroke-width:1; "  />
<polygon description="&lt;b&gt;cds100038_101253&lt;/b&gt;&lt;br&gt;hypothetical protein&lt;br&gt;Location: 100038 - 101253" points="460,35 465,30 470,30 470,40 465,40 460,35 " locus_tag="cds100038_101253" id="subclusterblast-1_q43_0_all" class="clusterblast-orf" style="stroke:black; fill:white; stroke-width:1; "  />
<polygon description="&lt;b&gt;cds101249_102782&lt;/b&gt;&lt;br&gt;hypothetical protein&lt;br&gt;Location: 101249 - 102782" points="470,35 475,30 483,30 483,40 475,40 470,35 " locus_tag="cds101249_102782" id="subclusterblast-1_q44_0_all" class="clusterblast-orf" style="stroke:black; fill:white; stroke-width:1; "  />
<polygon description="&lt;b&gt;cds102778_103453&lt;/b&gt;&lt;br&gt;HAD-superfamily hydrolase subfamily IA, variant 3&lt;br&gt;Location: 102778 - 103453" points="483,35 488,30 489,30 489,40 488,40 483,35 " locus_tag="cds102778_103453" id="subclusterblast-1_q45_0_all" class="clusterblast-orf" style="stroke:black; fill:white; stroke-width:1; "  />
<polygon description="&lt;b&gt;cds103449_104442&lt;/b&gt;&lt;br&gt;A-factor biosynthesis protein AfsA&lt;br&gt;Location: 103449 - 104442" points="489,35 494,30 497,30 497,40 494,40 489,35 " locus_tag="cds103449_104442" id="subclusterblast-1_q46_0_all" class="clusterblast-orf" style="stroke:black; fill:white; stroke-width:1; "  />
<polygon description="&lt;b&gt;cds104454_105471&lt;/b&gt;&lt;br&gt;hypothetical protein&lt;br&gt;Location: 104454 - 105471" points="498,40 501,40 506,35 501,30 498,30 498,40 " locus_tag="cds104454_105471" id="subclusterblast-1_q47_0_all" class="clusterblast-orf" style="stroke:black; fill:white; stroke-width:1; "  />
<polygon description="&lt;b&gt;cds105446_106109&lt;/b&gt;&lt;br&gt;Two-component transcriptional response regulator, LuxR family&lt;br&gt;Location: 105446 - 106109" points="506,35 511,30 512,30 512,40 511,40 506,35 " locus_tag="cds105446_106109" id="subclusterblast-1_q48_0_all" class="clusterblast-orf" style="stroke:black; fill:white; stroke-width:1; "  />
<polygon description="&lt;b&gt;cds106105_107935&lt;/b&gt;&lt;br&gt;Two-component system sensor histidine kinase&lt;br&gt;Location: 106105 - 107935" points="512,35 517,30 527,30 527,40 517,40 512,35 " locus_tag="cds106105_107935" id="subclusterblast-1_q49_0_all" class="clusterblast-orf" style="stroke:black; fill:white; stroke-width:1; "  />
<polygon description="&lt;b&gt;cds108132_108444&lt;/b&gt;&lt;br&gt;hypothetical protein&lt;br&gt;Location: 108132 - 108444" points="529,35 531,30 531,40 529,35 " locus_tag="cds108132_108444" id="subclusterblast-1_q50_0_all" class="clusterblast-orf" style="stroke:black; fill:white; stroke-width:1; "  />
<polygon description="&lt;b&gt;cds108659_109814&lt;/b&gt;&lt;br&gt;hypothetical protein&lt;br&gt;Location: 108659 - 109814" points="533,35 538,30 543,30 543,40 538,40 533,35 " locus_tag="cds108659_109814" id="subclusterblast-1_q51_0_all" class="clusterblast-orf" style="stroke:black; fill:white; stroke-width:1; "  />
<polygon description="&lt;b&gt;cds109860_111129&lt;/b&gt;&lt;br&gt;2-methylisoborneol synthase (EC 4.2.3.118)&lt;br&gt;Location: 109860 - 111129" points="544,35 549,30 554,30 554,40 549,40 544,35 " locus_tag="cds109860_111129" id="subclusterblast-1_q52_0_all" class="clusterblast-orf" style="stroke:black; fill:white; stroke-width:1; "  />
<polygon description="&lt;b&gt;cds111344_111770&lt;/b&gt;&lt;br&gt;Putative transmembrane protein&lt;br&gt;Location: 111344 - 111770" points="556,40 560,35 556,30 556,40 " locus_tag="cds111344_111770" id="subclusterblast-1_q53_0_all" class="clusterblast-orf" style="stroke:black; fill:white; stroke-width:1; "  />
<polygon description="&lt;b&gt;cds111836_117305&lt;/b&gt;&lt;br&gt;Acyl-CoA carboxylase-like protein, carboxylase domain Tfu 1530.N / Acyl-CoA carboxylase-like protein, carboxyltransferase domain Tfu 1530.C&lt;br&gt;Location: 111836 - 117305" points="560,35 565,30 607,30 607,40 565,40 560,35 " locus_tag="cds111836_117305" id="subclusterblast-1_q54_0_all" class="clusterblast-orf" style="stroke:black; fill:white; stroke-width:1; "  />
<polygon description="&lt;b&gt;cds117778_118564&lt;/b&gt;&lt;br&gt;hypothetical protein&lt;br&gt;Location: 117778 - 118564" points="611,35 616,30 617,30 617,40 616,40 611,35 " locus_tag="cds117778_118564" id="subclusterblast-1_q55_0_all" class="clusterblast-orf" style="stroke:black; fill:white; stroke-width:1; "  />
<polygon description="&lt;b&gt;cds118599_119676&lt;/b&gt;&lt;br&gt;Transcriptional regulator, AraC family&lt;br&gt;Location: 118599 - 119676" points="618,35 623,30 627,30 627,40 623,40 618,35 " locus_tag="cds118599_119676" id="subclusterblast-1_q56_0_all" class="clusterblast-orf" style="stroke:black; fill:white; stroke-width:1; "  />
<polygon description="&lt;b&gt;cds120020_120275&lt;/b&gt;&lt;br&gt;hypothetical protein&lt;br&gt;Location: 120020 - 120275" points="630,40 632,35 630,30 630,40 " locus_tag="cds120020_120275" id="subclusterblast-1_q57_0_all" class="clusterblast-orf" style="stroke:black; fill:white; stroke-width:1; "  />
<polygon description="&lt;b&gt;cds120587_121829&lt;/b&gt;&lt;br&gt;putative secreted protein&lt;br&gt;Location: 120587 - 121829" points="635,40 640,40 645,35 640,30 635,30 635,40 " locus_tag="cds120587_121829" id="subclusterblast-1_q58_0_all" class="clusterblast-orf" style="stroke:black; fill:white; stroke-width:1; "  />
<polygon description="&lt;b&gt;cds121852_122164&lt;/b&gt;&lt;br&gt;hypothetical protein&lt;br&gt;Location: 121852 - 122164" points="645,40 648,35 645,30 645,40 " locus_tag="cds121852_122164" id="subclusterblast-1_q59_0_all" class="clusterblast-orf" style="stroke:black; fill:white; stroke-width:1; "  />
<polygon description="&lt;b&gt;cds122444_123434&lt;/b&gt;&lt;br&gt;Integral membrane protein TerC&lt;br&gt;Location: 122444 - 123434" points="650,40 654,40 659,35 654,30 650,30 650,40 " locus_tag="cds122444_123434" id="subclusterblast-1_q60_0_all" class="clusterblast-orf" style="stroke:black; fill:white; stroke-width:1; "  />
<polygon description="&lt;b&gt;cds123562_124135&lt;/b&gt;&lt;br&gt;putative conserved transmembrane protein&lt;br&gt;Location: 123562 - 124135" points="660,40 660,40 665,35 660,30 660,30 660,40 " locus_tag="cds123562_124135" id="subclusterblast-1_q61_0_all" class="clusterblast-orf" style="stroke:black; fill:white; stroke-width:1; "  />
<polygon description="&lt;b&gt;cds124143_124458&lt;/b&gt;&lt;br&gt;hypothetical protein&lt;br&gt;Location: 124143 - 124458" points="665,40 668,35 665,30 665,40 " locus_tag="cds124143_124458" id="subclusterblast-1_q62_0_all" class="clusterblast-orf" style="stroke:black; fill:white; stroke-width:1; "  />
<polygon description="&lt;b&gt;cds124607_124811&lt;/b&gt;&lt;br&gt;hypothetical protein&lt;br&gt;Location: 124607 - 124811" points="669,40 671,35 669,30 669,40 " locus_tag="cds124607_124811" id="subclusterblast-1_q63_0_all" class="clusterblast-orf" style="stroke:black; fill:white; stroke-width:1; "  />
<polygon description="&lt;b&gt;cds124887_125841&lt;/b&gt;&lt;br&gt;Mercury resistance probable Hg transport protein&lt;br&gt;Location: 124887 - 125841" points="671,35 676,30 679,30 679,40 676,40 671,35 " locus_tag="cds124887_125841" id="subclusterblast-1_q64_0_all" class="clusterblast-orf" style="stroke:black; fill:white; stroke-width:1; "  />
<polygon description="&lt;b&gt;cds125850_126399&lt;/b&gt;&lt;br&gt;Soluble secreted antigen MPT53 precursor&lt;br&gt;Location: 125850 - 126399" points="679,35 684,30 684,30 684,40 684,40 679,35 " locus_tag="cds125850_126399" id="subclusterblast-1_q65_0_all" class="clusterblast-orf" style="stroke:black; fill:white; stroke-width:1; "  />
<polygon description="&lt;b&gt;cds126504_127170&lt;/b&gt;&lt;br&gt;Transcriptional regulator, ArsR family =&gt; implicated in bedaquiline tolerance&lt;br&gt;Location: 126504 - 127170" points="685,35 690,30 691,30 691,40 690,40 685,35 " locus_tag="cds126504_127170" id="subclusterblast-1_q66_0_all" class="clusterblast-orf" style="stroke:black; fill:white; stroke-width:1; "  />
<polygon description="&lt;b&gt;cds127305_128559&lt;/b&gt;&lt;br&gt;Uncharacterized MFS-type transporter&lt;br&gt;Location: 127305 - 128559" points="692,40 697,40 702,35 697,30 692,30 692,40 " locus_tag="cds127305_128559" id="subclusterblast-1_q67_0_all" class="clusterblast-orf" style="stroke:black; fill:white; stroke-width:1; "  />
<polygon description="&lt;b&gt;cds128654_129071&lt;/b&gt;&lt;br&gt;Transcriptional regulator, MerR family&lt;br&gt;Location: 128654 - 129071" points="703,35 707,30 707,40 703,35 " locus_tag="cds128654_129071" id="subclusterblast-1_q68_0_all" class="clusterblast-orf" style="stroke:black; fill:white; stroke-width:1; "  />
<polygon description="&lt;b&gt;cds129067_129460&lt;/b&gt;&lt;br&gt;hypothetical protein&lt;br&gt;Location: 129067 - 129460" points="707,35 710,30 710,40 707,35 " locus_tag="cds129067_129460" id="subclusterblast-1_q69_0_all" class="clusterblast-orf" style="stroke:black; fill:white; stroke-width:1; "  />
<polygon description="&lt;b&gt;cds129606_130653&lt;/b&gt;&lt;br&gt;hypothetical protein&lt;br&gt;Location: 129606 - 130653" points="711,35 716,30 720,30 720,40 716,40 711,35 " locus_tag="cds129606_130653" id="subclusterblast-1_q70_0_all" class="clusterblast-orf" style="stroke:black; fill:white; stroke-width:1; "  />
<polygon description="&lt;b&gt;cds130649_131597&lt;/b&gt;&lt;br&gt;hypothetical protein&lt;br&gt;Location: 130649 - 131597" points="720,35 725,30 728,30 728,40 725,40 720,35 " locus_tag="cds130649_131597" id="subclusterblast-1_q71_0_all" class="clusterblast-orf" style="stroke:black; fill:white; stroke-width:1; "  />
<polygon description="&lt;b&gt;cds131829_132102&lt;/b&gt;&lt;br&gt;hypothetical protein&lt;br&gt;Location: 131829 - 132102" points="730,35 733,30 733,40 730,35 " locus_tag="cds131829_132102" id="subclusterblast-1_q72_0_all" class="clusterblast-orf" style="stroke:black; fill:white; stroke-width:1; "  />
<polygon description="&lt;b&gt;cds132495_132858&lt;/b&gt;&lt;br&gt;hypothetical protein&lt;br&gt;Location: 132495 - 132858" points="736,35 739,30 739,40 736,35 " locus_tag="cds132495_132858" id="subclusterblast-1_q73_0_all" class="clusterblast-orf" style="stroke:black; fill:white; stroke-width:1; "  />
<polygon description="&lt;b&gt;cds132935_133658&lt;/b&gt;&lt;br&gt;Transcriptional regulator, AraC family&lt;br&gt;Location: 132935 - 133658" points="740,35 745,30 746,30 746,40 745,40 740,35 " locus_tag="cds132935_133658" id="subclusterblast-1_q74_0_all" class="clusterblast-orf" style="stroke:black; fill:white; stroke-width:1; "  />
<polygon description="&lt;b&gt;cds133672_134641&lt;/b&gt;&lt;br&gt;Transcriptional regulator, LysR family&lt;br&gt;Location: 133672 - 134641" points="746,35 751,30 754,30 754,40 751,40 746,35 " locus_tag="cds133672_134641" id="subclusterblast-1_q75_0_all" class="clusterblast-orf" style="stroke:black; fill:white; stroke-width:1; "  />
<polygon description="&lt;b&gt;cds134741_136127&lt;/b&gt;&lt;br&gt;Uncharacterized MFS-type transporter&lt;br&gt;Location: 134741 - 136127" points="755,40 762,40 767,35 762,30 755,30 755,40 " locus_tag="cds134741_136127" id="subclusterblast-1_q76_0_all" class="clusterblast-orf" style="stroke:black; fill:white; stroke-width:1; "  />
<polygon description="&lt;b&gt;cds136123_136885&lt;/b&gt;&lt;br&gt;3-hydroxybutyrate dehydrogenase (EC 1.1.1.30)&lt;br&gt;Location: 136123 - 136885" points="767,40 768,40 773,35 768,30 767,30 767,40 " locus_tag="cds136123_136885" id="subclusterblast-1_q77_0_all" class="clusterblast-orf" style="stroke:black; fill:white; stroke-width:1; "  />
<polygon description="&lt;b&gt;cds136881_137643&lt;/b&gt;&lt;br&gt;Acetoacetyl-CoA synthetase (EC 6.2.1.16)&lt;br&gt;Location: 136881 - 137643" points="773,40 775,40 780,35 775,30 773,30 773,40 " locus_tag="cds136881_137643" id="subclusterblast-1_q78_0_all" class="clusterblast-orf" style="stroke:black; fill:white; stroke-width:1; "  />
</g>
</svg>
