<svg xmlns:xlink="http://www.w3.org/1999/xlink" width="800" preserveAspectRatio="none" y="0" viewBox="0 0 800 230" xmlns="http://www.w3.org/2000/svg" height="230" version="1.1" x="0"  >
<g label="Query sequence" class="clusterblast-cluster"  >
<text y="20" class="clusterblast-acc" x="5"  >
Query sequence</text>
<line x1="10" y2="35" style="stroke-width:1; stroke:grey; " y1="35" x2="778.0"  />
<polygon id="dummy-1_q0_0_all" locus_tag="cds2_764" style="fill:#d81515; stroke-width:1; stroke:black; " points="283,35 288,30 290,30 290,40 288,40 283,35 " class="clusterblast-orf" description="&lt;b&gt;cds2_764&lt;/b&gt;&lt;br&gt;3-oxoacyl-[acyl-carrier-protein] synthase, KASII (EC 2.3.1.179)&lt;br&gt;Location: 2 - 764"  />
<polygon id="dummy-1_q1_0_all" locus_tag="cds760_1726" style="fill:#67d815; stroke-width:1; stroke:black; " points="290,35 295,30 298,30 298,40 295,40 290,35 " class="clusterblast-orf" description="&lt;b&gt;cds760_1726&lt;/b&gt;&lt;br&gt;hypothetical protein&lt;br&gt;Location: 760 - 1726"  />
<polygon id="dummy-1_q2_0_all" locus_tag="cds1722_2526" style="fill:#15b9d8; stroke-width:1; stroke:black; " points="298,35 303,30 305,30 305,40 303,40 298,35 " class="clusterblast-orf" description="&lt;b&gt;cds1722_2526&lt;/b&gt;&lt;br&gt;hydrolase&lt;br&gt;Location: 1722 - 2526"  />
<polygon id="dummy-1_q3_0_all" locus_tag="cds2522_3809" style="fill:#a515d8; stroke-width:1; stroke:black; " points="305,35 310,30 317,30 317,40 310,40 305,35 " class="clusterblast-orf" description="&lt;b&gt;cds2522_3809&lt;/b&gt;&lt;br&gt;3-oxoacyl-[acyl-carrier-protein] synthase, KASII (EC 2.3.1.179)&lt;br&gt;Location: 2522 - 3809"  />
<polygon id="dummy-1_q4_0_all" locus_tag="cds3851_4253" style="fill:#d85315; stroke-width:1; stroke:black; " points="317,35 321,30 321,40 317,35 " class="clusterblast-orf" description="&lt;b&gt;cds3851_4253&lt;/b&gt;&lt;br&gt;Acyl carrier protein&lt;br&gt;Location: 3851 - 4253"  />
<polygon id="dummy-1_q5_0_all" locus_tag="cds4327_5056" style="fill:#2ad815; stroke-width:1; stroke:black; " points="322,40 323,40 328,35 323,30 322,30 322,40 " class="clusterblast-orf" description="&lt;b&gt;cds4327_5056&lt;/b&gt;&lt;br&gt;hypothetical protein&lt;br&gt;Location: 4327 - 5056"  />
<polygon id="dummy-1_q6_0_all" locus_tag="cds5052_5292" style="fill:#157cd8; stroke-width:1; stroke:black; " points="328,40 330,35 328,30 328,40 " class="clusterblast-orf" description="&lt;b&gt;cds5052_5292&lt;/b&gt;&lt;br&gt;hypothetical protein&lt;br&gt;Location: 5052 - 5292"  />
<polygon id="dummy-1_q7_0_all" locus_tag="cds5391_6183" style="fill:#d815ce; stroke-width:1; stroke:black; " points="331,40 333,40 338,35 333,30 331,30 331,40 " class="clusterblast-orf" description="&lt;b&gt;cds5391_6183&lt;/b&gt;&lt;br&gt;ABC transporter, ATP-binding protein&lt;br&gt;Location: 5391 - 6183"  />
<polygon id="dummy-1_q8_0_all" locus_tag="cds6182_7967" style="fill:#d89015; stroke-width:1; stroke:black; " points="338,40 349,40 354,35 349,30 338,30 338,40 " class="clusterblast-orf" description="&lt;b&gt;cds6182_7967&lt;/b&gt;&lt;br&gt;ABC transporter, fused permease protein&lt;br&gt;Location: 6182 - 7967"  />
<polygon id="dummy-1_q9_0_all" locus_tag="cds8008_8689" style="fill:white; stroke-width:1; stroke:black; " points="355,40 356,40 361,35 356,30 355,30 355,40 " class="clusterblast-orf" description="&lt;b&gt;cds8008_8689&lt;/b&gt;&lt;br&gt;hypothetical protein&lt;br&gt;Location: 8008 - 8689"  />
<polygon id="dummy-1_q10_0_all" locus_tag="cds8838_9540" style="fill:#15d83e; stroke-width:1; stroke:black; " points="362,35 367,30 369,30 369,40 367,40 362,35 " class="clusterblast-orf" description="&lt;b&gt;cds8838_9540&lt;/b&gt;&lt;br&gt;hypothetical protein&lt;br&gt;Location: 8838 - 9540"  />
<polygon id="dummy-1_q11_0_all" locus_tag="cds9536_9779" style="fill:#15d83e; stroke-width:1; stroke:black; " points="369,35 371,30 371,40 369,35 " class="clusterblast-orf" description="&lt;b&gt;cds9536_9779&lt;/b&gt;&lt;br&gt;hypothetical protein&lt;br&gt;Location: 9536 - 9779"  />
<polygon id="dummy-1_q12_0_all" locus_tag="cds10277_11225" style="fill:#153ed8; stroke-width:1; stroke:black; " points="375,40 379,40 384,35 379,30 375,30 375,40 " class="clusterblast-orf" description="&lt;b&gt;cds10277_11225&lt;/b&gt;&lt;br&gt;Tryptophan halogenase&lt;br&gt;Location: 10277 - 11225"  />
<polygon id="dummy-1_q13_0_all" locus_tag="cds11378_11705" style="fill:#153ed8; stroke-width:1; stroke:black; " points="385,40 388,35 385,30 385,40 " class="clusterblast-orf" description="&lt;b&gt;cds11378_11705&lt;/b&gt;&lt;br&gt;hypothetical protein&lt;br&gt;Location: 11378 - 11705"  />
<polygon id="dummy-1_q14_0_all" locus_tag="cds12170_12509" style="fill:#d81590; stroke-width:1; stroke:black; " points="392,40 395,35 392,30 392,40 " class="clusterblast-orf" description="&lt;b&gt;cds12170_12509&lt;/b&gt;&lt;br&gt;hypothetical protein&lt;br&gt;Location: 12170 - 12509"  />
<polygon id="dummy-1_q15_0_all" locus_tag="cds12505_12814" style="fill:#d81590; stroke-width:1; stroke:black; " points="395,40 398,35 395,30 395,40 " class="clusterblast-orf" description="&lt;b&gt;cds12505_12814&lt;/b&gt;&lt;br&gt;hypothetical protein&lt;br&gt;Location: 12505 - 12814"  />
<polygon id="dummy-1_q16_0_all" locus_tag="cds12810_13536" style="fill:#d81590; stroke-width:1; stroke:black; " points="398,40 399,40 404,35 399,30 398,30 398,40 " class="clusterblast-orf" description="&lt;b&gt;cds12810_13536&lt;/b&gt;&lt;br&gt;Nitrilotriacetate monooxygenase component B (EC 1.14.13.-)&lt;br&gt;Location: 12810 - 13536"  />
<polygon id="dummy-1_q17_0_all" locus_tag="cds13655_14126" style="fill:#d8ce15; stroke-width:1; stroke:black; " points="406,35 410,30 410,40 406,35 " class="clusterblast-orf" description="&lt;b&gt;cds13655_14126&lt;/b&gt;&lt;br&gt;Putative regulatory protein&lt;br&gt;Location: 13655 - 14126"  />
<polygon id="dummy-1_q18_0_all" locus_tag="cds14185_14644" style="fill:white; stroke-width:1; stroke:black; " points="410,40 414,35 410,30 410,40 " class="clusterblast-orf" description="&lt;b&gt;cds14185_14644&lt;/b&gt;&lt;br&gt;hypothetical protein&lt;br&gt;Location: 14185 - 14644"  />
<polygon id="dummy-1_q19_0_all" locus_tag="cds14726_15062" style="fill:#15d87c; stroke-width:1; stroke:black; " points="415,35 418,30 418,40 415,35 " class="clusterblast-orf" description="&lt;b&gt;cds14726_15062&lt;/b&gt;&lt;br&gt;hypothetical protein&lt;br&gt;Location: 14726 - 15062"  />
<polygon id="dummy-1_q20_0_all" locus_tag="cds15153_15345" style="fill:white; stroke-width:1; stroke:black; " points="419,35 421,30 421,40 419,35 " class="clusterblast-orf" description="&lt;b&gt;cds15153_15345&lt;/b&gt;&lt;br&gt;hypothetical protein&lt;br&gt;Location: 15153 - 15345"  />
<polygon id="dummy-1_q21_0_all" locus_tag="cds15499_15694" style="fill:#2a15d8; stroke-width:1; stroke:black; " points="422,40 424,35 422,30 422,40 " class="clusterblast-orf" description="&lt;b&gt;cds15499_15694&lt;/b&gt;&lt;br&gt;hypothetical protein&lt;br&gt;Location: 15499 - 15694"  />
<polygon id="dummy-1_q22_0_all" locus_tag="cds15847_16201" style="fill:#d81553; stroke-width:1; stroke:black; " points="425,40 428,35 425,30 425,40 " class="clusterblast-orf" description="&lt;b&gt;cds15847_16201&lt;/b&gt;&lt;br&gt;FIG01128766: hypothetical protein&lt;br&gt;Location: 15847 - 16201"  />
<polygon id="dummy-1_q23_0_all" locus_tag="cds16220_16436" style="fill:#d81553; stroke-width:1; stroke:black; " points="429,40 431,35 429,30 429,40 " class="clusterblast-orf" description="&lt;b&gt;cds16220_16436&lt;/b&gt;&lt;br&gt;FIG01128766: hypothetical protein&lt;br&gt;Location: 16220 - 16436"  />
<polygon id="dummy-1_q24_0_all" locus_tag="cds16822_17998" style="fill:#d81553; stroke-width:1; stroke:black; " points="434,40 440,40 445,35 440,30 434,30 434,40 " class="clusterblast-orf" description="&lt;b&gt;cds16822_17998&lt;/b&gt;&lt;br&gt;TOMM biosynthesis cyclodehydratase (protein C) / TOMM biosynthesis docking scaffold (protein D)&lt;br&gt;Location: 16822 - 17998"  />
<polygon id="dummy-1_q25_0_all" locus_tag="cds18017_18146" style="fill:white; stroke-width:1; stroke:black; " points="445,35 446,30 446,40 445,35 " class="clusterblast-orf" description="&lt;b&gt;cds18017_18146&lt;/b&gt;&lt;br&gt;hypothetical protein&lt;br&gt;Location: 18017 - 18146"  />
<polygon id="dummy-1_q26_0_all" locus_tag="cds18325_18526" style="fill:white; stroke-width:1; stroke:black; " points="448,40 449,35 448,30 448,40 " class="clusterblast-orf" description="&lt;b&gt;cds18325_18526&lt;/b&gt;&lt;br&gt;hypothetical protein&lt;br&gt;Location: 18325 - 18526"  />
<polygon id="dummy-1_q27_0_all" locus_tag="cds18609_20751" style="fill:#a5d815; stroke-width:1; stroke:black; " points="450,40 464,40 469,35 464,30 450,30 450,40 " class="clusterblast-orf" description="&lt;b&gt;cds18609_20751&lt;/b&gt;&lt;br&gt;Two-component system sensor histidine kinase&lt;br&gt;Location: 18609 - 20751"  />
<polygon id="dummy-1_q28_0_all" locus_tag="cds20852_21047" style="fill:white; stroke-width:1; stroke:black; " points="470,40 472,35 470,30 470,40 " class="clusterblast-orf" description="&lt;b&gt;cds20852_21047&lt;/b&gt;&lt;br&gt;hypothetical protein&lt;br&gt;Location: 20852 - 21047"  />
<polygon id="dummy-1_q29_0_all" locus_tag="cds21047_21767" style="fill:#15d8b9; stroke-width:1; stroke:black; " points="472,35 477,30 479,30 479,40 477,40 472,35 " class="clusterblast-orf" description="&lt;b&gt;cds21047_21767&lt;/b&gt;&lt;br&gt;hypothetical protein&lt;br&gt;Location: 21047 - 21767"  />
<polygon id="dummy-1_q30_0_all" locus_tag="cds21763_21883" style="fill:white; stroke-width:1; stroke:black; " points="478,35 480,30 480,40 478,35 " class="clusterblast-orf" description="&lt;b&gt;cds21763_21883&lt;/b&gt;&lt;br&gt;hypothetical protein&lt;br&gt;Location: 21763 - 21883"  />
<polygon id="dummy-1_q31_0_all" locus_tag="cds21914_22793" style="fill:#6715d8; stroke-width:1; stroke:black; " points="480,40 483,40 488,35 483,30 480,30 480,40 " class="clusterblast-orf" description="&lt;b&gt;cds21914_22793&lt;/b&gt;&lt;br&gt;hypothetical protein&lt;br&gt;Location: 21914 - 22793"  />
<polygon id="dummy-1_q32_0_all" locus_tag="cds23182_23758" style="fill:white; stroke-width:1; stroke:black; " points="491,35 496,30 496,30 496,40 496,40 491,35 " class="clusterblast-orf" description="&lt;b&gt;cds23182_23758&lt;/b&gt;&lt;br&gt;RNA methyltransferase&lt;br&gt;Location: 23182 - 23758"  />
</g>
<g label="NZ_CP023701" description="NZ_CP023701 (3767226-3853956): Streptomyces subrutilus strain ATCC 27467 chro... (20% of genes show similarity), NRPS,ladderane" class="clusterblast-cluster"  >
<text y="70" class="clusterblast-acc" x="5"  >
<a xlink:href="https://antismash-db.secondarymetabolites.org/area.html?record=NZ_CP023701&amp;start=3767226&amp;end=3853956" target="_blank">NZ_CP023701 (3767226-3853956)</a>: Streptomyces subrutilus strain ATCC 27467 chro... (20% of genes show similarity), NRPS,ladderane</text>
<line x1="10" y2="85" style="stroke-width:1; stroke:grey; " y1="85" x2="778.0"  />
</g>
<g id="a1_000"  >
<polygon id="dummy-1_h1_5_0" locus_tag="CP968_RS16810" style="fill:white; stroke-width:1; stroke:black; " points="0,90 2,90 7,85 2,80 0,80 0,90 " class="clusterblast-orf" description="&lt;b&gt;CP968_RS16810&lt;/b&gt;&lt;br&gt;rhomboid family intramembrane serine protease&lt;br&gt;Location: 3853956 - 3853075"  />
</g>
<g id="a1_001"  >
<polygon id="dummy-1_h1_5_1" locus_tag="CP968_RS16805" style="fill:white; stroke-width:1; stroke:black; " points="8,85 11,80 11,90 8,85 " class="clusterblast-orf" description="&lt;b&gt;CP968_RS16805&lt;/b&gt;&lt;br&gt;cell division protein CrgA&lt;br&gt;Location: 3852959 - 3852705"  />
</g>
<g id="a1_002"  >
<polygon id="dummy-1_h1_5_2" locus_tag="CP968_RS16800" style="fill:white; stroke-width:1; stroke:black; " points="12,90 14,90 19,85 14,80 12,80 12,90 " class="clusterblast-orf" description="&lt;b&gt;CP968_RS16800&lt;/b&gt;&lt;br&gt;DUF881 domain-containing protein&lt;br&gt;Location: 3852613 - 3851840"  />
</g>
<g id="a1_003"  >
<polygon id="dummy-1_h1_5_3" locus_tag="CP968_RS16795" style="fill:white; stroke-width:1; stroke:black; " points="18,90 20,90 25,85 20,80 18,80 18,90 " class="clusterblast-orf" description="&lt;b&gt;CP968_RS16795&lt;/b&gt;&lt;br&gt;class E sortase&lt;br&gt;Location: 3851868 - 3851116"  />
</g>
<g id="a1_004"  >
<polygon id="dummy-1_h1_5_4" locus_tag="CP968_RS34110" style="fill:white; stroke-width:1; stroke:black; " points="26,90 28,85 26,80 26,90 " class="clusterblast-orf" description="&lt;b&gt;CP968_RS34110&lt;/b&gt;&lt;br&gt;hypothetical protein&lt;br&gt;Location: 3850963 - 3850787"  />
</g>
<g id="a1_005"  >
<polygon id="dummy-1_h1_5_5" locus_tag="CP968_RS16790" style="fill:white; stroke-width:1; stroke:black; " points="28,90 29,90 34,85 29,80 28,80 28,90 " class="clusterblast-orf" description="&lt;b&gt;CP968_RS16790&lt;/b&gt;&lt;br&gt;aminodeoxychorismate/anthranilate synthase component II&lt;br&gt;Location: 3850790 - 3850152"  />
</g>
<g id="a1_006"  >
<polygon id="dummy-1_h1_5_6" locus_tag="CP968_RS16785" style="fill:white; stroke-width:1; stroke:black; " points="33,90 36,90 41,85 36,80 33,80 33,90 " class="clusterblast-orf" description="&lt;b&gt;CP968_RS16785&lt;/b&gt;&lt;br&gt;class E sortase&lt;br&gt;Location: 3850257 - 3849316"  />
</g>
<g id="a1_007"  >
<polygon id="dummy-1_h1_5_7" locus_tag="CP968_RS16780" style="fill:white; stroke-width:1; stroke:black; " points="42,90 43,90 48,85 43,80 42,80 42,90 " class="clusterblast-orf" description="&lt;b&gt;CP968_RS16780&lt;/b&gt;&lt;br&gt;class E sortase&lt;br&gt;Location: 3849233 - 3848535"  />
</g>
<g id="a1_008"  >
<polygon id="dummy-1_h1_5_8" locus_tag="CP968_RS16775" style="fill:white; stroke-width:1; stroke:black; " points="50,85 55,80 68,80 68,90 55,90 50,85 " class="clusterblast-orf" description="&lt;b&gt;CP968_RS16775&lt;/b&gt;&lt;br&gt;Stk1 family PASTA domain-containing Ser/Thr kinase&lt;br&gt;Location: 3848360 - 3846321"  />
</g>
<g id="a1_009"  >
<polygon id="dummy-1_h1_5_9" locus_tag="CP968_RS16765" style="fill:white; stroke-width:1; stroke:black; " points="70,85 75,80 83,80 83,90 75,90 70,85 " class="clusterblast-orf" description="&lt;b&gt;CP968_RS16765&lt;/b&gt;&lt;br&gt;penicillin-binding protein 2&lt;br&gt;Location: 3846134 - 3844671"  />
</g>
<g id="a1_0010"  >
<polygon id="dummy-1_h1_5_10" locus_tag="CP968_RS16760" style="fill:white; stroke-width:1; stroke:black; " points="83,85 88,80 96,80 96,90 88,90 83,85 " class="clusterblast-orf" description="&lt;b&gt;CP968_RS16760&lt;/b&gt;&lt;br&gt;FtsW/RodA/SpoVE family cell cycle protein&lt;br&gt;Location: 3844674 - 3843250"  />
</g>
<g id="a1_0011"  >
<polygon id="dummy-1_h1_5_11" locus_tag="CP968_RS16755" style="fill:white; stroke-width:1; stroke:black; " points="96,85 101,80 110,80 110,90 101,90 96,85 " class="clusterblast-orf" description="&lt;b&gt;CP968_RS16755&lt;/b&gt;&lt;br&gt;serine/threonine-protein phosphatase&lt;br&gt;Location: 3843218 - 3841722"  />
</g>
<g id="a1_0012"  >
<polygon id="dummy-1_h1_5_12" locus_tag="CP968_RS16750" style="fill:white; stroke-width:1; stroke:black; " points="110,85 115,80 115,80 115,90 115,90 110,85 " class="clusterblast-orf" description="&lt;b&gt;CP968_RS16750&lt;/b&gt;&lt;br&gt;FHA domain-containing protein&lt;br&gt;Location: 3841628 - 3841128"  />
</g>
<g id="a1_0013"  >
<polygon id="dummy-1_h1_5_13" locus_tag="CP968_RS16745" style="fill:white; stroke-width:1; stroke:black; " points="115,85 120,80 122,80 122,90 120,90 115,85 " class="clusterblast-orf" description="&lt;b&gt;CP968_RS16745&lt;/b&gt;&lt;br&gt;DUF3662 domain-containing protein&lt;br&gt;Location: 3841117 - 3840293"  />
</g>
<g id="a1_0014"  >
<polygon id="dummy-1_h1_5_14" locus_tag="CP968_RS16735" style="fill:white; stroke-width:1; stroke:black; " points="127,85 132,80 133,80 133,90 132,90 127,85 " class="clusterblast-orf" description="&lt;b&gt;CP968_RS16735&lt;/b&gt;&lt;br&gt;response regulator&lt;br&gt;Location: 3839744 - 3839064"  />
</g>
<g id="a1_0015"  >
<polygon id="dummy-1_h1_5_15" locus_tag="CP968_RS16730" style="fill:white; stroke-width:1; stroke:black; " points="133,85 138,80 144,80 144,90 138,90 133,85 " class="clusterblast-orf" description="&lt;b&gt;CP968_RS16730&lt;/b&gt;&lt;br&gt;sensor histidine kinase&lt;br&gt;Location: 3839062 - 3837884"  />
</g>
<g id="a1_0016"  >
<polygon id="dummy-1_h1_5_16" locus_tag="CP968_RS16725" style="fill:white; stroke-width:1; stroke:black; " points="144,85 149,80 164,80 164,90 149,90 144,85 " class="clusterblast-orf" description="&lt;b&gt;CP968_RS16725&lt;/b&gt;&lt;br&gt;MMPL family transporter&lt;br&gt;Location: 3837879 - 3835666"  />
</g>
<g id="a1_0017"  >
<polygon id="dummy-1_h1_5_17" locus_tag="CP968_RS16720" style="fill:white; stroke-width:1; stroke:black; " points="166,85 171,80 174,80 174,90 171,90 166,85 " class="clusterblast-orf" description="&lt;b&gt;CP968_RS16720&lt;/b&gt;&lt;br&gt;kinase&lt;br&gt;Location: 3835479 - 3834544"  />
</g>
<g id="a1_0018"  >
<polygon id="dummy-1_h1_5_18" locus_tag="CP968_RS16715" style="fill:white; stroke-width:1; stroke:black; " points="174,85 179,80 204,80 204,90 179,90 174,85 " class="clusterblast-orf" description="&lt;b&gt;CP968_RS16715&lt;/b&gt;&lt;br&gt;amino acid adenylation domain-containing protein&lt;br&gt;Location: 3834547 - 3831209"  />
</g>
<g id="a1_0019"  >
<polygon id="dummy-1_h1_5_19" locus_tag="CP968_RS16710" style="fill:white; stroke-width:1; stroke:black; " points="207,85 212,80 218,80 218,90 212,90 207,85 " class="clusterblast-orf" description="&lt;b&gt;CP968_RS16710&lt;/b&gt;&lt;br&gt;ATP-grasp domain-containing protein&lt;br&gt;Location: 3830844 - 3829645"  />
</g>
<g id="a1_0020"  >
<polygon id="dummy-1_h1_5_20" locus_tag="CP968_RS16705" style="fill:white; stroke-width:1; stroke:black; " points="218,85 223,80 231,80 231,90 223,90 218,85 " class="clusterblast-orf" description="&lt;b&gt;CP968_RS16705&lt;/b&gt;&lt;br&gt;argininosuccinate lyase&lt;br&gt;Location: 3829648 - 3828164"  />
</g>
<g id="a1_0021"  >
<polygon id="dummy-1_h1_5_21" locus_tag="CP968_RS16700" style="fill:white; stroke-width:1; stroke:black; " points="231,85 236,80 241,80 241,90 236,90 231,85 " class="clusterblast-orf" description="&lt;b&gt;CP968_RS16700&lt;/b&gt;&lt;br&gt;pyridoxal-phosphate dependent enzyme&lt;br&gt;Location: 3828167 - 3827091"  />
</g>
<g id="a1_0022"  >
<polygon id="dummy-1_h1_5_22" locus_tag="CP968_RS16695" style="fill:white; stroke-width:1; stroke:black; " points="243,90 244,90 249,85 244,80 243,80 243,90 " class="clusterblast-orf" description="&lt;b&gt;CP968_RS16695&lt;/b&gt;&lt;br&gt;thioesterase&lt;br&gt;Location: 3826912 - 3826178"  />
</g>
<g id="a1_0023"  >
<polygon id="dummy-1_h1_5_23" locus_tag="CP968_RS16690" style="fill:white; stroke-width:1; stroke:black; " points="249,85 254,80 261,80 261,90 254,90 249,85 " class="clusterblast-orf" description="&lt;b&gt;CP968_RS16690&lt;/b&gt;&lt;br&gt;3-deoxy-7-phosphoheptulonate synthase class II&lt;br&gt;Location: 3826212 - 3824836"  />
</g>
<g id="a1_0024"  >
<polygon id="dummy-1_h1_5_24" locus_tag="CP968_RS16685" style="fill:white; stroke-width:1; stroke:black; " points="262,90 272,90 277,85 272,80 262,80 262,90 " class="clusterblast-orf" description="&lt;b&gt;CP968_RS16685&lt;/b&gt;&lt;br&gt;anthranilate synthase component I family protein&lt;br&gt;Location: 3824788 - 3823100"  />
</g>
<g id="a1_0025"  >
<polygon id="dummy-1_h1_5_25" locus_tag="CP968_RS16680" style="fill:white; stroke-width:1; stroke:black; " points="277,90 277,90 282,85 277,80 277,80 277,90 " class="clusterblast-orf" description="&lt;b&gt;CP968_RS16680&lt;/b&gt;&lt;br&gt;C26 family cysteine hydrolase domain-containing family&lt;br&gt;Location: 3823103 - 3822516"  />
</g>
<g id="a1_0026"  >
<polygon id="dummy-1_h1_5_26" locus_tag="CP968_RS16675" style="fill:white; stroke-width:1; stroke:black; " points="282,85 287,80 295,80 295,90 287,90 282,85 " class="clusterblast-orf" description="&lt;b&gt;CP968_RS16675&lt;/b&gt;&lt;br&gt;aminotransferase class I/II-fold pyridoxal phosphate-dependent enzyme&lt;br&gt;Location: 3822529 - 3821114"  />
</g>
<g id="a1_0027"  >
<polygon id="dummy-1_h1_5_27" locus_tag="CP968_RS16670" style="fill:white; stroke-width:1; stroke:black; " points="296,90 301,90 306,85 301,80 296,80 296,90 " class="clusterblast-orf" description="&lt;b&gt;CP968_RS16670&lt;/b&gt;&lt;br&gt;anthranilate phosphoribosyltransferase&lt;br&gt;Location: 3821007 - 3819895"  />
</g>
<g id="a1_0028"  >
<polygon id="dummy-1_h1_5_28" locus_tag="CP968_RS16665" style="fill:white; stroke-width:1; stroke:black; " points="305,85 310,80 313,80 313,90 310,90 305,85 " class="clusterblast-orf" description="&lt;b&gt;CP968_RS16665&lt;/b&gt;&lt;br&gt;indole-3-glycerol phosphate synthase TrpC&lt;br&gt;Location: 3819965 - 3819108"  />
</g>
<g id="a1_0029"  >
<polygon id="dummy-1_h1_5_29" locus_tag="CP968_RS16660" style="fill:white; stroke-width:1; stroke:black; " points="315,85 320,80 323,80 323,90 320,90 315,85 " class="clusterblast-orf" description="&lt;b&gt;CP968_RS16660&lt;/b&gt;&lt;br&gt;TauD/TfdA family dioxygenase&lt;br&gt;Location: 3818909 - 3817983"  />
</g>
<g id="a1_0030"  >
<polygon id="dummy-1_h1_5_30" locus_tag="CP968_RS16655" style="fill:white; stroke-width:1; stroke:black; " points="323,85 328,80 335,80 335,90 328,90 323,85 " class="clusterblast-orf" description="&lt;b&gt;CP968_RS16655&lt;/b&gt;&lt;br&gt;cytochrome P450&lt;br&gt;Location: 3817981 - 3816641"  />
</g>
<g id="a1_0031"  >
<polygon id="dummy-1_h1_5_31" locus_tag="CP968_RS16650" style="fill:white; stroke-width:1; stroke:black; " points="335,85 340,80 343,80 343,90 340,90 335,85 " class="clusterblast-orf" description="&lt;b&gt;CP968_RS16650&lt;/b&gt;&lt;br&gt;ABC transporter permease&lt;br&gt;Location: 3816614 - 3815739"  />
</g>
<g id="a1_0032"  >
<polygon id="dummy-1_h1_5_32" locus_tag="CP968_RS16645" style="fill:white; stroke-width:1; stroke:black; " points="343,85 348,80 443,80 443,90 348,90 343,85 " class="clusterblast-orf" description="&lt;b&gt;CP968_RS16645&lt;/b&gt;&lt;br&gt;amino acid adenylation domain-containing protein&lt;br&gt;Location: 3815742 - 3804682"  />
</g>
<g id="a1_0033"  >
<polygon id="dummy-1_h1_5_33" locus_tag="CP968_RS16640" style="fill:white; stroke-width:1; stroke:black; " points="444,85 449,80 450,80 450,90 449,90 444,85 " class="clusterblast-orf" description="&lt;b&gt;CP968_RS16640&lt;/b&gt;&lt;br&gt;2-hydroxychromene-2-carboxylate isomerase&lt;br&gt;Location: 3804532 - 3803828"  />
</g>
<g id="a1_0034"  >
<polygon id="dummy-1_h1_5_34" locus_tag="CP968_RS16635" style="fill:white; stroke-width:1; stroke:black; " points="451,85 456,80 458,80 458,90 456,90 451,85 " class="clusterblast-orf" description="&lt;b&gt;CP968_RS16635&lt;/b&gt;&lt;br&gt;3-oxoacyl-[acyl-carrier-protein] reductase&lt;br&gt;Location: 3803733 - 3802987"  />
</g>
<g id="a1_0035"  >
<polygon id="dummy-1_h1_5_35" locus_tag="CP968_RS16630" style="fill:#d81515; stroke-width:1; stroke:black; " points="459,85 464,80 469,80 469,90 464,90 459,85 " class="clusterblast-orf" description="&lt;b&gt;CP968_RS16630&lt;/b&gt;&lt;br&gt;3-oxoacyl-ACP synthase&lt;br&gt;Location: 3802842 - 3801748&lt;br&gt;&lt;br&gt;&lt;b&gt;BlastP hit with cds2_764&lt;/b&gt;&lt;br&gt;Percentage identity: 68&lt;br&gt;Percentage coverage: 92&lt;br&gt;BLAST bit score: 308&lt;br&gt;E-value: 5.2e-82"  />
</g>
<g id="a1_0036"  >
<polygon id="dummy-1_h1_5_36" locus_tag="CP968_RS16625" style="fill:#a515d8; stroke-width:1; stroke:black; " points="469,85 474,80 480,80 480,90 474,90 469,85 " class="clusterblast-orf" description="&lt;b&gt;CP968_RS16625&lt;/b&gt;&lt;br&gt;beta-ketoacyl-[acyl-carrier-protein] synthase family protein&lt;br&gt;Location: 3801748 - 3800516&lt;br&gt;&lt;br&gt;&lt;b&gt;BlastP hit with cds2522_3809&lt;/b&gt;&lt;br&gt;Percentage identity: 79&lt;br&gt;Percentage coverage: 94&lt;br&gt;BLAST bit score: 636&lt;br&gt;E-value: 2.4e-180"  />
</g>
<g id="a1_0037"  >
<polygon id="dummy-1_h1_5_37" locus_tag="CP968_RS16620" style="fill:#d85315; stroke-width:1; stroke:black; " points="480,85 483,80 483,90 480,85 " class="clusterblast-orf" description="&lt;b&gt;CP968_RS16620&lt;/b&gt;&lt;br&gt;acyl carrier protein&lt;br&gt;Location: 3800484 - 3800203&lt;br&gt;&lt;br&gt;&lt;b&gt;BlastP hit with cds3851_4253&lt;/b&gt;&lt;br&gt;Percentage identity: 64&lt;br&gt;Percentage coverage: 64&lt;br&gt;BLAST bit score: 101&lt;br&gt;E-value: 5.1e-20"  />
</g>
<g id="a1_0038"  >
<polygon id="dummy-1_h1_5_38" locus_tag="CP968_RS16615" style="fill:white; stroke-width:1; stroke:black; " points="484,85 489,80 493,80 493,90 489,90 484,85 " class="clusterblast-orf" description="&lt;b&gt;CP968_RS16615&lt;/b&gt;&lt;br&gt;LysR family transcriptional regulator&lt;br&gt;Location: 3800065 - 3799043"  />
</g>
<g id="a1_0039"  >
<polygon id="dummy-1_h1_5_39" locus_tag="CP968_RS16610" style="fill:#15d83e; stroke-width:1; stroke:black; " points="495,85 500,80 502,80 502,90 500,90 495,85 " class="clusterblast-orf" description="&lt;b&gt;CP968_RS16610&lt;/b&gt;&lt;br&gt;AfsR/SARP family transcriptional regulator&lt;br&gt;Location: 3798813 - 3798073&lt;br&gt;&lt;br&gt;&lt;b&gt;BlastP hit with cds8838_9540&lt;/b&gt;&lt;br&gt;Percentage identity: 67&lt;br&gt;Percentage coverage: 62&lt;br&gt;BLAST bit score: 184&lt;br&gt;E-value: 1e-44"  />
</g>
<g id="a1_0040"  >
<polygon id="dummy-1_h1_5_40" locus_tag="CP968_RS16605" style="fill:#153ed8; stroke-width:1; stroke:black; " points="505,90 514,90 519,85 514,80 505,80 505,90 " class="clusterblast-orf" description="&lt;b&gt;CP968_RS16605&lt;/b&gt;&lt;br&gt;tryptophan 7-halogenase&lt;br&gt;Location: 3797711 - 3796158&lt;br&gt;&lt;br&gt;&lt;b&gt;BlastP hit with cds10277_11225&lt;/b&gt;&lt;br&gt;Percentage identity: 83&lt;br&gt;Percentage coverage: 97&lt;br&gt;BLAST bit score: 539&lt;br&gt;E-value: 1.7e-151&lt;br&gt;&lt;br&gt;&lt;b&gt;BlastP hit with cds11378_11705&lt;/b&gt;&lt;br&gt;Percentage identity: 51&lt;br&gt;Percentage coverage: 103&lt;br&gt;BLAST bit score: 91&lt;br&gt;E-value: 5.6e-17"  />
</g>
<g id="a1_0041"  >
<polygon id="dummy-1_h1_5_41" locus_tag="CP968_RS16600" style="fill:#d81590; stroke-width:1; stroke:black; " points="520,90 526,90 531,85 526,80 520,80 520,90 " class="clusterblast-orf" description="&lt;b&gt;CP968_RS16600&lt;/b&gt;&lt;br&gt;sodium:proton exchanger&lt;br&gt;Location: 3796123 - 3794813&lt;br&gt;&lt;br&gt;&lt;b&gt;BlastP hit with cds12170_12509&lt;/b&gt;&lt;br&gt;Percentage identity: 56&lt;br&gt;Percentage coverage: 79&lt;br&gt;BLAST bit score: 86&lt;br&gt;E-value: 1.9e-15&lt;br&gt;&lt;br&gt;&lt;b&gt;BlastP hit with cds12505_12814&lt;/b&gt;&lt;br&gt;Percentage identity: 47&lt;br&gt;Percentage coverage: 91&lt;br&gt;BLAST bit score: 85&lt;br&gt;E-value: 3.8e-15"  />
</g>
<g id="a1_0042"  >
<polygon id="dummy-1_h1_5_42" locus_tag="CP968_RS16595" style="fill:#d81590; stroke-width:1; stroke:black; " points="531,90 531,90 536,85 531,80 531,80 531,90 " class="clusterblast-orf" description="&lt;b&gt;CP968_RS16595&lt;/b&gt;&lt;br&gt;flavin reductase family protein&lt;br&gt;Location: 3794816 - 3794298&lt;br&gt;&lt;br&gt;&lt;b&gt;BlastP hit with cds12810_13536&lt;/b&gt;&lt;br&gt;Percentage identity: 64&lt;br&gt;Percentage coverage: 67&lt;br&gt;BLAST bit score: 197&lt;br&gt;E-value: 1.2e-48"  />
</g>
<g id="a1_0043"  >
<polygon id="dummy-1_h1_5_43" locus_tag="CP968_RS16590" style="fill:#d815ce; stroke-width:1; stroke:black; " points="537,90 539,90 544,85 539,80 537,80 537,90 " class="clusterblast-orf" description="&lt;b&gt;CP968_RS16590&lt;/b&gt;&lt;br&gt;ATP-binding cassette domain-containing protein&lt;br&gt;Location: 3794223 - 3793426&lt;br&gt;&lt;br&gt;&lt;b&gt;BlastP hit with cds5391_6183&lt;/b&gt;&lt;br&gt;Percentage identity: 69&lt;br&gt;Percentage coverage: 99&lt;br&gt;BLAST bit score: 352&lt;br&gt;E-value: 2.5e-95"  />
</g>
<g id="a1_0044"  >
<polygon id="dummy-1_h1_5_44" locus_tag="CP968_RS16585" style="fill:#d89015; stroke-width:1; stroke:black; " points="544,90 562,90 567,85 562,80 544,80 544,90 " class="clusterblast-orf" description="&lt;b&gt;CP968_RS16585&lt;/b&gt;&lt;br&gt;FtsX-like permease family protein&lt;br&gt;Location: 3793429 - 3790862&lt;br&gt;&lt;br&gt;&lt;b&gt;BlastP hit with cds6182_7967&lt;/b&gt;&lt;br&gt;Percentage identity: 49&lt;br&gt;Percentage coverage: 47&lt;br&gt;BLAST bit score: 202&lt;br&gt;E-value: 9.4e-50"  />
</g>
<g id="a1_0045"  >
<polygon id="dummy-1_h1_5_45" locus_tag="CP968_RS16580" style="fill:#d8ce15; stroke-width:1; stroke:black; " points="568,85 573,80 576,80 576,90 573,90 568,85 " class="clusterblast-orf" description="&lt;b&gt;CP968_RS16580&lt;/b&gt;&lt;br&gt;helix-turn-helix domain-containing protein&lt;br&gt;Location: 3790756 - 3789836&lt;br&gt;&lt;br&gt;&lt;b&gt;BlastP hit with cds13655_14126&lt;/b&gt;&lt;br&gt;Percentage identity: 61&lt;br&gt;Percentage coverage: 96&lt;br&gt;BLAST bit score: 170&lt;br&gt;E-value: 1.4e-40"  />
</g>
<g id="a1_0046"  >
<polygon id="dummy-1_h1_5_46" locus_tag="CP968_RS16575" style="fill:white; stroke-width:1; stroke:black; " points="577,85 582,80 586,80 586,90 582,90 577,85 " class="clusterblast-orf" description="&lt;b&gt;CP968_RS16575&lt;/b&gt;&lt;br&gt;ATP-binding cassette domain-containing protein&lt;br&gt;Location: 3789721 - 3788789"  />
</g>
<g id="a1_0047"  >
<polygon id="dummy-1_h1_5_47" locus_tag="CP968_RS16570" style="fill:white; stroke-width:1; stroke:black; " points="586,85 588,80 588,90 586,85 " class="clusterblast-orf" description="&lt;b&gt;CP968_RS16570&lt;/b&gt;&lt;br&gt;MbtH family NRPS accessory protein&lt;br&gt;Location: 3788745 - 3788527"  />
</g>
<g id="a1_0048"  >
<polygon id="dummy-1_h1_5_48" locus_tag="CP968_RS16565" style="fill:white; stroke-width:1; stroke:black; " points="590,85 595,80 604,80 604,90 595,90 590,85 " class="clusterblast-orf" description="&lt;b&gt;CP968_RS16565&lt;/b&gt;&lt;br&gt;amino acid adenylation domain-containing protein&lt;br&gt;Location: 3788289 - 3786733"  />
</g>
<g id="a1_0049"  >
<polygon id="dummy-1_h1_5_49" locus_tag="CP968_RS16560" style="fill:white; stroke-width:1; stroke:black; " points="605,85 610,80 612,80 612,90 610,90 605,85 " class="clusterblast-orf" description="&lt;b&gt;CP968_RS16560&lt;/b&gt;&lt;br&gt;4'-phosphopantetheinyl transferase superfamily protein&lt;br&gt;Location: 3786620 - 3785859"  />
</g>
<g id="a1_0050"  >
<polygon id="dummy-1_h1_5_50" locus_tag="CP968_RS16555" style="fill:white; stroke-width:1; stroke:black; " points="612,85 617,80 620,80 620,90 617,90 612,85 " class="clusterblast-orf" description="&lt;b&gt;CP968_RS16555&lt;/b&gt;&lt;br&gt;alpha/beta hydrolase fold domain-containing protein&lt;br&gt;Location: 3785862 - 3784993"  />
</g>
<g id="a1_0051"  >
<polygon id="dummy-1_h1_5_51" locus_tag="CP968_RS16550" style="fill:white; stroke-width:1; stroke:black; " points="620,85 625,80 626,80 626,90 625,90 620,85 " class="clusterblast-orf" description="&lt;b&gt;CP968_RS16550&lt;/b&gt;&lt;br&gt;tryptophan 2,3-dioxygenase&lt;br&gt;Location: 3785011 - 3784319"  />
</g>
<g id="a1_0052"  >
<polygon id="dummy-1_h1_5_52" locus_tag="CP968_RS16545" style="fill:white; stroke-width:1; stroke:black; " points="629,90 631,85 629,80 629,90 " class="clusterblast-orf" description="&lt;b&gt;CP968_RS16545&lt;/b&gt;&lt;br&gt;hypothetical protein&lt;br&gt;Location: 3783988 - 3783794"  />
</g>
<g id="a1_0053"  >
<polygon id="dummy-1_h1_5_53" locus_tag="CP968_RS16540" style="fill:#d81553; stroke-width:1; stroke:black; " points="630,90 647,90 652,85 647,80 630,80 630,90 " class="clusterblast-orf" description="&lt;b&gt;CP968_RS16540&lt;/b&gt;&lt;br&gt;TOMM precursor leader peptide-binding protein&lt;br&gt;Location: 3783797 - 3781455&lt;br&gt;&lt;br&gt;&lt;b&gt;BlastP hit with cds16220_16436&lt;/b&gt;&lt;br&gt;Percentage identity: 52&lt;br&gt;Percentage coverage: 68&lt;br&gt;BLAST bit score: 59&lt;br&gt;E-value: 1.5e-07&lt;br&gt;&lt;br&gt;&lt;b&gt;BlastP hit with cds16822_17998&lt;/b&gt;&lt;br&gt;Percentage identity: 59&lt;br&gt;Percentage coverage: 103&lt;br&gt;BLAST bit score: 396&lt;br&gt;E-value: 2.9e-108"  />
</g>
<g id="a1_0054"  >
<polygon id="dummy-1_h1_5_54" locus_tag="CP968_RS16535" style="fill:#a5d815; stroke-width:1; stroke:black; " points="652,90 658,90 663,85 658,80 652,80 652,90 " class="clusterblast-orf" description="&lt;b&gt;CP968_RS16535&lt;/b&gt;&lt;br&gt;two-component sensor histidine kinase&lt;br&gt;Location: 3781370 - 3780135&lt;br&gt;&lt;br&gt;&lt;b&gt;BlastP hit with cds18609_20751&lt;/b&gt;&lt;br&gt;Percentage identity: 60&lt;br&gt;Percentage coverage: 51&lt;br&gt;BLAST bit score: 392&lt;br&gt;E-value: 7.7e-107"  />
</g>
<g id="a1_0055"  >
<polygon id="dummy-1_h1_5_55" locus_tag="CP968_RS16530" style="fill:white; stroke-width:1; stroke:black; " points="664,90 665,90 670,85 665,80 664,80 664,90 " class="clusterblast-orf" description="&lt;b&gt;CP968_RS16530&lt;/b&gt;&lt;br&gt;response regulator&lt;br&gt;Location: 3780039 - 3779431"  />
</g>
<g id="a1_0056"  >
<polygon id="dummy-1_h1_5_56" locus_tag="CP968_RS34105" style="fill:#15d8b9; stroke-width:1; stroke:black; " points="671,85 676,80 676,80 676,90 676,90 671,85 " class="clusterblast-orf" description="&lt;b&gt;CP968_RS34105&lt;/b&gt;&lt;br&gt;NADH oxidase&lt;br&gt;Location: 3779297 - 3778698&lt;br&gt;&lt;br&gt;&lt;b&gt;BlastP hit with cds21047_21767&lt;/b&gt;&lt;br&gt;Percentage identity: 54&lt;br&gt;Percentage coverage: 40&lt;br&gt;BLAST bit score: 80&lt;br&gt;E-value: 2.2e-13"  />
</g>
<g id="a1_0057"  >
<polygon id="dummy-1_h1_5_57" locus_tag="CP968_RS16525" style="fill:#15d83e; stroke-width:1; stroke:black; " points="678,85 683,80 685,80 685,90 683,90 678,85 " class="clusterblast-orf" description="&lt;b&gt;CP968_RS16525&lt;/b&gt;&lt;br&gt;AfsR/SARP family transcriptional regulator&lt;br&gt;Location: 3778533 - 3777745&lt;br&gt;&lt;br&gt;&lt;b&gt;BlastP hit with cds8838_9540&lt;/b&gt;&lt;br&gt;Percentage identity: 40&lt;br&gt;Percentage coverage: 62&lt;br&gt;BLAST bit score: 81&lt;br&gt;E-value: 1.2e-13"  />
</g>
<g id="a1_0058"  >
<polygon id="dummy-1_h1_5_58" locus_tag="CP968_RS16520" style="fill:white; stroke-width:1; stroke:black; " points="687,90 697,90 702,85 697,80 687,80 687,90 " class="clusterblast-orf" description="&lt;b&gt;CP968_RS16520&lt;/b&gt;&lt;br&gt;sensor histidine kinase&lt;br&gt;Location: 3777525 - 3775855"  />
</g>
<g id="a1_0059"  >
<polygon id="dummy-1_h1_5_59" locus_tag="CP968_RS16515" style="fill:white; stroke-width:1; stroke:black; " points="702,90 703,90 708,85 703,80 702,80 702,90 " class="clusterblast-orf" description="&lt;b&gt;CP968_RS16515&lt;/b&gt;&lt;br&gt;response regulator&lt;br&gt;Location: 3775834 - 3775187"  />
</g>
<g id="a1_0060"  >
<polygon id="dummy-1_h1_5_60" locus_tag="CP968_RS16510" style="fill:white; stroke-width:1; stroke:black; " points="708,90 716,90 721,85 716,80 708,80 708,90 " class="clusterblast-orf" description="&lt;b&gt;CP968_RS16510&lt;/b&gt;&lt;br&gt;DUF2252 family protein&lt;br&gt;Location: 3775133 - 3773733"  />
</g>
<g id="a1_0061"  >
<polygon id="dummy-1_h1_5_61" locus_tag="CP968_RS16505" style="fill:white; stroke-width:1; stroke:black; " points="722,90 725,90 730,85 725,80 722,80 722,90 " class="clusterblast-orf" description="&lt;b&gt;CP968_RS16505&lt;/b&gt;&lt;br&gt;J domain-containing protein&lt;br&gt;Location: 3773629 - 3772757"  />
</g>
<g id="a1_0062"  >
<polygon id="dummy-1_h1_5_62" locus_tag="CP968_RS16500" style="fill:white; stroke-width:1; stroke:black; " points="731,90 734,85 731,80 731,90 " class="clusterblast-orf" description="&lt;b&gt;CP968_RS16500&lt;/b&gt;&lt;br&gt;rhodanese-like domain-containing protein&lt;br&gt;Location: 3772588 - 3772244"  />
</g>
<g id="a1_0063"  >
<polygon id="dummy-1_h1_5_63" locus_tag="CP968_RS16495" style="fill:white; stroke-width:1; stroke:black; " points="735,85 740,80 745,80 745,90 740,90 735,85 " class="clusterblast-orf" description="&lt;b&gt;CP968_RS16495&lt;/b&gt;&lt;br&gt;acyl-CoA dehydrogenase&lt;br&gt;Location: 3772197 - 3771055"  />
</g>
<g id="a1_0064"  >
<polygon id="dummy-1_h1_5_64" locus_tag="CP968_RS16490" style="fill:white; stroke-width:1; stroke:black; " points="746,85 751,80 756,80 756,90 751,90 746,85 " class="clusterblast-orf" description="&lt;b&gt;CP968_RS16490&lt;/b&gt;&lt;br&gt;2Fe-2S iron-sulfur cluster binding domain-containing protein&lt;br&gt;Location: 3770955 - 3769840"  />
</g>
<g id="a1_0065"  >
<polygon id="dummy-1_h1_5_65" locus_tag="CP968_RS16485" style="fill:white; stroke-width:1; stroke:black; " points="756,85 761,80 761,80 761,90 761,90 756,85 " class="clusterblast-orf" description="&lt;b&gt;CP968_RS16485&lt;/b&gt;&lt;br&gt;phenylacetate-CoA oxygenase subunit PaaJ&lt;br&gt;Location: 3769839 - 3769291"  />
</g>
<g id="a1_0066"  >
<polygon id="dummy-1_h1_5_66" locus_tag="CP968_RS16480" style="fill:white; stroke-width:1; stroke:black; " points="761,85 766,80 767,80 767,90 766,90 761,85 " class="clusterblast-orf" description="&lt;b&gt;CP968_RS16480&lt;/b&gt;&lt;br&gt;phenylacetate-CoA oxygenase subunit PaaC&lt;br&gt;Location: 3769294 - 3768602"  />
</g>
<g id="a1_0067"  >
<polygon id="dummy-1_h1_5_67" locus_tag="CP968_RS16475" style="fill:white; stroke-width:1; stroke:black; " points="768,85 770,80 770,90 768,85 " class="clusterblast-orf" description="&lt;b&gt;CP968_RS16475&lt;/b&gt;&lt;br&gt;1,2-phenylacetyl-CoA epoxidase subunit B&lt;br&gt;Location: 3768512 - 3768228"  />
</g>
<g id="a1_0068"  >
<polygon id="dummy-1_h1_5_68" locus_tag="CP968_RS16470" style="fill:white; stroke-width:1; stroke:black; " points="770,85 775,80 780,80 780,90 775,90 770,85 " class="clusterblast-orf" description="&lt;b&gt;CP968_RS16470&lt;/b&gt;&lt;br&gt;1,2-phenylacetyl-CoA epoxidase subunit A&lt;br&gt;Location: 3768231 - 3767227"  />
</g>
</svg>
