<svg xmlns:xlink="http://www.w3.org/1999/xlink" width="800" preserveAspectRatio="none" y="0" viewBox="0 0 800 230" xmlns="http://www.w3.org/2000/svg" height="230" version="1.1" x="0"  >
<g label="Query sequence" class="clusterblast-cluster"  >
<text y="20" class="clusterblast-acc" x="5"  >
Query sequence</text>
<line x1="10" y2="35" style="stroke-width:1; stroke:grey; " y1="35" x2="778.0"  />
<polygon id="dummy-1_q0_0_all" locus_tag="cds56781_57294" style="fill:#d81515; stroke-width:1; stroke:black; " points="84,35 89,30 114,30 114,40 89,40 84,35 " class="clusterblast-orf" description="&lt;b&gt;cds56781_57294&lt;/b&gt;&lt;br&gt;Ribonucleotide reductase transcriptional regulator NrdR&lt;br&gt;Location: 56781 - 57294"  />
<polygon id="dummy-1_q1_0_all" locus_tag="cds57817_58036" style="fill:#4dd815; stroke-width:1; stroke:black; " points="146,40 154,40 159,35 154,30 146,30 146,40 " class="clusterblast-orf" description="&lt;b&gt;cds57817_58036&lt;/b&gt;&lt;br&gt;SOS-response repressor and protease LexA (EC 3.4.21.88)&lt;br&gt;Location: 57817 - 58036"  />
<polygon id="dummy-1_q2_0_all" locus_tag="cds58067_58616" style="fill:#4dd815; stroke-width:1; stroke:black; " points="161,40 188,40 193,35 188,30 161,30 161,40 " class="clusterblast-orf" description="&lt;b&gt;cds58067_58616&lt;/b&gt;&lt;br&gt;SOS-response repressor and protease LexA (EC 3.4.21.88)&lt;br&gt;Location: 58067 - 58616"  />
<polygon id="dummy-1_q3_0_all" locus_tag="cds58740_59022" style="fill:#1585d8; stroke-width:1; stroke:black; " points="201,35 206,30 218,30 218,40 206,40 201,35 " class="clusterblast-orf" description="&lt;b&gt;cds58740_59022&lt;/b&gt;&lt;br&gt;DinG family ATP-dependent helicase YoaA&lt;br&gt;Location: 58740 - 59022"  />
<polygon id="dummy-1_q4_0_all" locus_tag="cds59158_60400" style="fill:#1585d8; stroke-width:1; stroke:black; " points="226,35 231,30 300,30 300,40 231,40 226,35 " class="clusterblast-orf" description="&lt;b&gt;cds59158_60400&lt;/b&gt;&lt;br&gt;DinG family ATP-dependent helicase YoaA&lt;br&gt;Location: 59158 - 60400"  />
<polygon id="dummy-1_q5_0_all" locus_tag="cds60748_60949" style="fill:#d815bc; stroke-width:1; stroke:black; " points="321,35 326,30 333,30 333,40 326,40 321,35 " class="clusterblast-orf" description="&lt;b&gt;cds60748_60949&lt;/b&gt;&lt;br&gt;Siderophore synthetase component, ligase&lt;br&gt;Location: 60748 - 60949"  />
<polygon id="dummy-1_q6_0_all" locus_tag="cds60918_62478" style="fill:#d815bc; stroke-width:1; stroke:black; " points="331,35 336,30 424,30 424,40 336,40 331,35 " class="clusterblast-orf" description="&lt;b&gt;cds60918_62478&lt;/b&gt;&lt;br&gt;Siderophore synthetase component, ligase&lt;br&gt;Location: 60918 - 62478"  />
<polygon id="dummy-1_q7_0_all" locus_tag="cds62741_63200" style="fill:#d8bc15; stroke-width:1; stroke:black; " points="440,35 445,30 468,30 468,40 445,40 440,35 " class="clusterblast-orf" description="&lt;b&gt;cds62741_63200&lt;/b&gt;&lt;br&gt;Siderophore synthetase small component, acetyltransferase&lt;br&gt;Location: 62741 - 63200"  />
<polygon id="dummy-1_q8_0_all" locus_tag="cds63570_64104" style="fill:#15d885; stroke-width:1; stroke:black; " points="490,35 495,30 522,30 522,40 495,40 490,35 " class="clusterblast-orf" description="&lt;b&gt;cds63570_64104&lt;/b&gt;&lt;br&gt;Siderophore synthetase superfamily, group A @ Siderophore synthetase large component, acetyltransferase&lt;br&gt;Location: 63570 - 64104"  />
<polygon id="dummy-1_q9_0_all" locus_tag="cds64193_66002" style="fill:white; stroke-width:1; stroke:black; " points="527,40 630,40 635,35 630,30 527,30 527,40 " class="clusterblast-orf" description="&lt;b&gt;cds64193_66002&lt;/b&gt;&lt;br&gt;hypothetical protein&lt;br&gt;Location: 64193 - 66002"  />
<polygon id="dummy-1_q10_0_all" locus_tag="cds66006_66168" style="fill:#4d15d8; stroke-width:1; stroke:black; " points="635,35 640,30 645,30 645,40 640,40 635,35 " class="clusterblast-orf" description="&lt;b&gt;cds66006_66168&lt;/b&gt;&lt;br&gt;Siderophore biosynthesis diaminobutyrate--2-oxoglutarate aminotransferase (EC 2.6.1.76)&lt;br&gt;Location: 66006 - 66168"  />
<polygon id="dummy-1_q11_0_all" locus_tag="cds66231_67029" style="fill:#4d15d8; stroke-width:1; stroke:black; " points="649,35 654,30 696,30 696,40 654,40 649,35 " class="clusterblast-orf" description="&lt;b&gt;cds66231_67029&lt;/b&gt;&lt;br&gt;Siderophore biosynthesis diaminobutyrate--2-oxoglutarate aminotransferase (EC 2.6.1.76)&lt;br&gt;Location: 66231 - 67029"  />
</g>
<g label="NZ_WWGD01000001" description="NZ_WWGD01000001 (55587-70352): Streptomyces sp. SID8378 SID8378.c1, whole gen... (77% of genes show similarity), siderophore" class="clusterblast-cluster"  >
<text y="70" class="clusterblast-acc" x="5"  >
<a xlink:href="https://antismash-db.secondarymetabolites.org/area.html?record=NZ_WWGD01000001&amp;start=55587&amp;end=70352" target="_blank">NZ_WWGD01000001 (55587-70352)</a>: Streptomyces sp. SID8378 SID8378.c1, whole gen... (77% of genes show similarity), siderophore</text>
<line x1="10" y2="85" style="stroke-width:1; stroke:grey; " y1="85" x2="778.0"  />
</g>
<g id="a1_000"  >
<polygon id="dummy-1_h1_4_0" locus_tag="GTY72_RS00275" style="fill:#d81515; stroke-width:1; stroke:black; " points="0,85 5,80 30,80 30,90 5,90 0,85 " class="clusterblast-orf" description="&lt;b&gt;GTY72_RS00275&lt;/b&gt;&lt;br&gt;transcriptional repressor NrdR&lt;br&gt;Location: 69320 - 68808&lt;br&gt;&lt;br&gt;&lt;b&gt;BlastP hit with cds56781_57294&lt;/b&gt;&lt;br&gt;Percentage identity: 100&lt;br&gt;Percentage coverage: 100&lt;br&gt;BLAST bit score: 337&lt;br&gt;E-value: 5.4e-91"  />
</g>
<g id="a1_001"  >
<polygon id="dummy-1_h1_4_1" locus_tag="GTY72_RS00270" style="fill:#4dd815; stroke-width:1; stroke:black; " points="62,90 104,90 109,85 104,80 62,80 62,90 " class="clusterblast-orf" description="&lt;b&gt;GTY72_RS00270&lt;/b&gt;&lt;br&gt;transcriptional repressor LexA&lt;br&gt;Location: 68282 - 67485&lt;br&gt;&lt;br&gt;&lt;b&gt;BlastP hit with cds57817_58036&lt;/b&gt;&lt;br&gt;Percentage identity: 100&lt;br&gt;Percentage coverage: 82&lt;br&gt;BLAST bit score: 117&lt;br&gt;E-value: 4.8e-25&lt;br&gt;&lt;br&gt;&lt;b&gt;BlastP hit with cds58067_58616&lt;/b&gt;&lt;br&gt;Percentage identity: 100&lt;br&gt;Percentage coverage: 100&lt;br&gt;BLAST bit score: 366&lt;br&gt;E-value: 1.2e-99"  />
</g>
<g id="a1_002"  >
<polygon id="dummy-1_h1_4_2" locus_tag="GTY72_RS00265" style="fill:#1585d8; stroke-width:1; stroke:black; " points="117,85 122,80 234,80 234,90 122,90 117,85 " class="clusterblast-orf" description="&lt;b&gt;GTY72_RS00265&lt;/b&gt;&lt;br&gt;ATP-dependent DNA helicase&lt;br&gt;Location: 67361 - 65391&lt;br&gt;&lt;br&gt;&lt;b&gt;BlastP hit with cds58740_59022&lt;/b&gt;&lt;br&gt;Percentage identity: 100&lt;br&gt;Percentage coverage: 100&lt;br&gt;BLAST bit score: 178&lt;br&gt;E-value: 3e-43&lt;br&gt;&lt;br&gt;&lt;b&gt;BlastP hit with cds59158_60400&lt;/b&gt;&lt;br&gt;Percentage identity: 100&lt;br&gt;Percentage coverage: 93&lt;br&gt;BLAST bit score: 744&lt;br&gt;E-value: 4.6e-213"  />
</g>
<g id="a1_003"  >
<polygon id="dummy-1_h1_4_3" locus_tag="GTY72_RS00260" style="fill:#d815bc; stroke-width:1; stroke:black; " points="237,85 242,80 355,80 355,90 242,90 237,85 " class="clusterblast-orf" description="&lt;b&gt;GTY72_RS00260&lt;/b&gt;&lt;br&gt;IucA/IucC family siderophore biosynthesis protein&lt;br&gt;Location: 65352 - 63373&lt;br&gt;&lt;br&gt;&lt;b&gt;BlastP hit with cds60748_60949&lt;/b&gt;&lt;br&gt;Percentage identity: 99&lt;br&gt;Percentage coverage: 100&lt;br&gt;BLAST bit score: 141&lt;br&gt;E-value: 3.7e-32&lt;br&gt;&lt;br&gt;&lt;b&gt;BlastP hit with cds60918_62478&lt;/b&gt;&lt;br&gt;Percentage identity: 94&lt;br&gt;Percentage coverage: 83&lt;br&gt;BLAST bit score: 753&lt;br&gt;E-value: 9.6e-216"  />
</g>
<g id="a1_004"  >
<polygon id="dummy-1_h1_4_4" locus_tag="GTY72_RS00255" style="fill:#d8bc15; stroke-width:1; stroke:black; " points="359,85 364,80 402,80 402,90 364,90 359,85 " class="clusterblast-orf" description="&lt;b&gt;GTY72_RS00255&lt;/b&gt;&lt;br&gt;acetyltransferase&lt;br&gt;Location: 63312 - 62587&lt;br&gt;&lt;br&gt;&lt;b&gt;BlastP hit with cds62741_63200&lt;/b&gt;&lt;br&gt;Percentage identity: 91&lt;br&gt;Percentage coverage: 101&lt;br&gt;BLAST bit score: 278&lt;br&gt;E-value: 3.5e-73"  />
</g>
<g id="a1_005"  >
<polygon id="dummy-1_h1_4_5" locus_tag="GTY72_RS00250" style="fill:#15d885; stroke-width:1; stroke:black; " points="408,85 413,80 522,80 522,90 413,90 408,85 " class="clusterblast-orf" description="&lt;b&gt;GTY72_RS00250&lt;/b&gt;&lt;br&gt;iron transporter&lt;br&gt;Location: 62483 - 60588&lt;br&gt;&lt;br&gt;&lt;b&gt;BlastP hit with cds63570_64104&lt;/b&gt;&lt;br&gt;Percentage identity: 96&lt;br&gt;Percentage coverage: 58&lt;br&gt;BLAST bit score: 201&lt;br&gt;E-value: 4.8e-50"  />
</g>
<g id="a1_006"  >
<polygon id="dummy-1_h1_4_6" locus_tag="GTY72_RS00245" style="fill:#4d15d8; stroke-width:1; stroke:black; " points="523,85 528,80 607,80 607,90 528,90 523,85 " class="clusterblast-orf" description="&lt;b&gt;GTY72_RS00245&lt;/b&gt;&lt;br&gt;diaminobutyrate--2-oxoglutarate transaminase family protein&lt;br&gt;Location: 60559 - 59165&lt;br&gt;&lt;br&gt;&lt;b&gt;BlastP hit with cds66006_66168&lt;/b&gt;&lt;br&gt;Percentage identity: 98&lt;br&gt;Percentage coverage: 96&lt;br&gt;BLAST bit score: 103&lt;br&gt;E-value: 6.9e-21&lt;br&gt;&lt;br&gt;&lt;b&gt;BlastP hit with cds66231_67029&lt;/b&gt;&lt;br&gt;Percentage identity: 68&lt;br&gt;Percentage coverage: 48&lt;br&gt;BLAST bit score: 134&lt;br&gt;E-value: 1.8e-29"  />
</g>
<g id="a1_007"  >
<polygon id="dummy-1_h1_4_7" locus_tag="GTY72_RS00240" style="fill:white; stroke-width:1; stroke:black; " points="628,90 693,90 698,85 693,80 628,80 628,90 " class="clusterblast-orf" description="&lt;b&gt;GTY72_RS00240&lt;/b&gt;&lt;br&gt;hypothetical protein&lt;br&gt;Location: 58809 - 57643"  />
</g>
<g id="a1_008"  >
<polygon id="dummy-1_h1_4_8" locus_tag="GTY72_RS00235" style="fill:white; stroke-width:1; stroke:black; " points="709,90 775,90 780,85 775,80 709,80 709,90 " class="clusterblast-orf" description="&lt;b&gt;GTY72_RS00235&lt;/b&gt;&lt;br&gt;hypothetical protein&lt;br&gt;Location: 57446 - 56274"  />
</g>
</svg>
