<svg xmlns:xlink="http://www.w3.org/1999/xlink" width="800" preserveAspectRatio="none" y="0" viewBox="0 0 800 230" xmlns="http://www.w3.org/2000/svg" height="230" version="1.1" x="0"  >
<g label="Query sequence" class="clusterblast-cluster"  >
<text y="20" class="clusterblast-acc" x="5"  >
Query sequence</text>
<line x1="10" y2="35" style="stroke-width:1; stroke:grey; " y1="35" x2="778.0"  />
<polygon id="dummy-1_q0_0_all" locus_tag="cds6456_7245" style="fill:white; stroke-width:1; stroke:black; " points="0,40 48,40 53,35 48,30 0,30 0,40 " class="clusterblast-orf" description="&lt;b&gt;cds6456_7245&lt;/b&gt;&lt;br&gt;hypothetical protein&lt;br&gt;Location: 6456 - 7245"  />
<polygon id="dummy-1_q1_0_all" locus_tag="cds7897_8326" style="fill:white; stroke-width:1; stroke:black; " points="96,40 120,40 125,35 120,30 96,30 96,40 " class="clusterblast-orf" description="&lt;b&gt;cds7897_8326&lt;/b&gt;&lt;br&gt;hypothetical protein&lt;br&gt;Location: 7897 - 8326"  />
<polygon id="dummy-1_q2_0_all" locus_tag="cds8431_9865" style="fill:white; stroke-width:1; stroke:black; " points="132,35 137,30 228,30 228,40 137,40 132,35 " class="clusterblast-orf" description="&lt;b&gt;cds8431_9865&lt;/b&gt;&lt;br&gt;Glutamine--fructose-6-phosphate aminotransferase [isomerizing] (EC 2.6.1.16)&lt;br&gt;Location: 8431 - 9865"  />
<polygon id="dummy-1_q3_0_all" locus_tag="cds9858_10257" style="fill:white; stroke-width:1; stroke:black; " points="227,35 232,30 254,30 254,40 232,40 227,35 " class="clusterblast-orf" description="&lt;b&gt;cds9858_10257&lt;/b&gt;&lt;br&gt;Glutamine--fructose-6-phosphate aminotransferase [isomerizing] (EC 2.6.1.16)&lt;br&gt;Location: 9858 - 10257"  />
<polygon id="dummy-1_q4_0_all" locus_tag="cds10331_10607" style="fill:white; stroke-width:1; stroke:black; " points="259,35 264,30 277,30 277,40 264,40 259,35 " class="clusterblast-orf" description="&lt;b&gt;cds10331_10607&lt;/b&gt;&lt;br&gt;hypothetical protein&lt;br&gt;Location: 10331 - 10607"  />
<polygon id="dummy-1_q5_0_all" locus_tag="cds10692_13188" style="fill:#d81515; stroke-width:1; stroke:black; " points="283,35 288,30 450,30 450,40 288,40 283,35 " class="clusterblast-orf" description="&lt;b&gt;cds10692_13188&lt;/b&gt;&lt;br&gt;Desferrioxamine E biosynthesis protein DesD @ Siderophore synthetase superfamily, group C @ Siderophore synthetase component, ligase&lt;br&gt;Location: 10692 - 13188"  />
<polygon id="dummy-1_q6_0_all" locus_tag="cds13495_14029" style="fill:#15d863; stroke-width:1; stroke:black; " points="470,35 475,30 506,30 506,40 475,40 470,35 " class="clusterblast-orf" description="&lt;b&gt;cds13495_14029&lt;/b&gt;&lt;br&gt;Desferrioxamine E biosynthesis protein DesC @ Siderophore synthetase small component, acetyltransferase&lt;br&gt;Location: 13495 - 14029"  />
<polygon id="dummy-1_q7_0_all" locus_tag="cds14025_14160" style="fill:#1563d8; stroke-width:1; stroke:black; " points="506,35 511,30 515,30 515,40 511,40 506,35 " class="clusterblast-orf" description="&lt;b&gt;cds14025_14160&lt;/b&gt;&lt;br&gt;Desferrioxamine E biosynthesis protein DesB @ Siderophore biosynthesis protein, monooxygenase&lt;br&gt;Location: 14025 - 14160"  />
<polygon id="dummy-1_q8_0_all" locus_tag="cds14309_14438" style="fill:#1563d8; stroke-width:1; stroke:black; " points="525,35 530,30 533,30 533,40 530,40 525,35 " class="clusterblast-orf" description="&lt;b&gt;cds14309_14438&lt;/b&gt;&lt;br&gt;Desferrioxamine E biosynthesis protein DesB @ Siderophore biosynthesis protein, monooxygenase&lt;br&gt;Location: 14309 - 14438"  />
<polygon id="dummy-1_q9_0_all" locus_tag="cds14485_15157" style="fill:#1563d8; stroke-width:1; stroke:black; " points="536,35 541,30 581,30 581,40 541,40 536,35 " class="clusterblast-orf" description="&lt;b&gt;cds14485_15157&lt;/b&gt;&lt;br&gt;Desferrioxamine E biosynthesis protein DesB @ Siderophore biosynthesis protein, monooxygenase&lt;br&gt;Location: 14485 - 15157"  />
<polygon id="dummy-1_q10_0_all" locus_tag="cds15203_16763" style="fill:#b115d8; stroke-width:1; stroke:black; " points="584,35 589,30 689,30 689,40 589,40 584,35 " class="clusterblast-orf" description="&lt;b&gt;cds15203_16763&lt;/b&gt;&lt;br&gt;Desferrioxamine E biosynthesis protein DesA @ Siderophore biosynthesis L-2,4-diaminobutyrate decarboxylase&lt;br&gt;Location: 15203 - 16763"  />
<polygon id="dummy-1_q11_0_all" locus_tag="cds16889_17078" style="fill:#b1d815; stroke-width:1; stroke:black; " points="697,35 702,30 710,30 710,40 702,40 697,35 " class="clusterblast-orf" description="&lt;b&gt;cds16889_17078&lt;/b&gt;&lt;br&gt;Hypothetical protein associated with desferrioxamine E biosynthesis&lt;br&gt;Location: 16889 - 17078"  />
<polygon id="dummy-1_q12_0_all" locus_tag="cds17167_17368" style="fill:white; stroke-width:1; stroke:black; " points="716,35 721,30 729,30 729,40 721,40 716,35 " class="clusterblast-orf" description="&lt;b&gt;cds17167_17368&lt;/b&gt;&lt;br&gt;Hypothetical protein associated with desferrioxamine E biosynthesis&lt;br&gt;Location: 17167 - 17368"  />
<polygon id="dummy-1_q13_0_all" locus_tag="cds17342_17618" style="fill:white; stroke-width:1; stroke:black; " points="727,40 741,40 746,35 741,30 727,30 727,40 " class="clusterblast-orf" description="&lt;b&gt;cds17342_17618&lt;/b&gt;&lt;br&gt;hypothetical protein&lt;br&gt;Location: 17342 - 17618"  />
<polygon id="dummy-1_q14_0_all" locus_tag="cds17614_17728" style="fill:white; stroke-width:1; stroke:black; " points="745,40 748,40 753,35 748,30 745,30 745,40 " class="clusterblast-orf" description="&lt;b&gt;cds17614_17728&lt;/b&gt;&lt;br&gt;hypothetical protein&lt;br&gt;Location: 17614 - 17728"  />
<polygon id="dummy-1_q15_0_all" locus_tag="cds17936_18134" style="fill:white; stroke-width:1; stroke:black; " points="767,35 772,30 780,30 780,40 772,40 767,35 " class="clusterblast-orf" description="&lt;b&gt;cds17936_18134&lt;/b&gt;&lt;br&gt;GCN5-related N-acetyltransferase&lt;br&gt;Location: 17936 - 18134"  />
</g>
<g label="BGC0001453" description="BGC0001453_c1: desferrioxamine (66% of genes show similarity), Other" class="clusterblast-cluster"  >
<text y="70" class="clusterblast-acc" x="5"  >
<a xlink:href="https://mibig.secondarymetabolites.org/go/BGC0001453/1" target="_blank">BGC0001453</a>:                                                                  desferrioxamine (66% of genes show similarity), Other</text>
<line x1="10" y2="85" style="stroke-width:1; stroke:grey; " y1="85" x2="778.0"  />
</g>
<g id="a1_000"  >
<polygon id="dummy-1_h1_3_0" locus_tag="desaD" style="fill:#d81515; stroke-width:1; stroke:black; " points="148,85 153,80 268,80 268,90 153,90 148,85 " class="clusterblast-orf" description="&lt;b&gt;desaD&lt;/b&gt;&lt;br&gt;NTP-dependent siderophore synthetase&lt;br&gt;Location: 7234 - 5435&lt;br&gt;&lt;br&gt;&lt;b&gt;BlastP hit with cds10692_13188&lt;/b&gt;&lt;br&gt;Percentage identity: 73&lt;br&gt;Percentage coverage: 60&lt;br&gt;BLAST bit score: 751&lt;br&gt;E-value: 1.3e-216"  />
</g>
<g id="a1_001"  >
<polygon id="dummy-1_h1_3_1" locus_tag="desaC" style="fill:#15d863; stroke-width:1; stroke:black; " points="268,85 273,80 305,80 305,90 273,90 268,85 " class="clusterblast-orf" description="&lt;b&gt;desaC&lt;/b&gt;&lt;br&gt;N-acetyltransferase&lt;br&gt;Location: 5438 - 4887&lt;br&gt;&lt;br&gt;&lt;b&gt;BlastP hit with cds13495_14029&lt;/b&gt;&lt;br&gt;Percentage identity: 61&lt;br&gt;Percentage coverage: 79&lt;br&gt;BLAST bit score: 170&lt;br&gt;E-value: 2e-42"  />
</g>
<g id="a1_002"  >
<polygon id="dummy-1_h1_3_2" locus_tag="desaB" style="fill:#1563d8; stroke-width:1; stroke:black; " points="304,85 309,80 391,80 391,90 309,90 304,85 " class="clusterblast-orf" description="&lt;b&gt;desaB&lt;/b&gt;&lt;br&gt;FAD-dependent monooxygenase&lt;br&gt;Location: 4890 - 3598&lt;br&gt;&lt;br&gt;&lt;b&gt;BlastP hit with cds14025_14160&lt;/b&gt;&lt;br&gt;Percentage identity: 79&lt;br&gt;Percentage coverage: 95&lt;br&gt;BLAST bit score: 74&lt;br&gt;E-value: 6.3e-14&lt;br&gt;&lt;br&gt;&lt;b&gt;BlastP hit with cds14309_14438&lt;/b&gt;&lt;br&gt;Percentage identity: 60&lt;br&gt;Percentage coverage: 100&lt;br&gt;BLAST bit score: 51&lt;br&gt;E-value: 3.2e-07&lt;br&gt;&lt;br&gt;&lt;b&gt;BlastP hit with cds14485_15157&lt;/b&gt;&lt;br&gt;Percentage identity: 64&lt;br&gt;Percentage coverage: 96&lt;br&gt;BLAST bit score: 257&lt;br&gt;E-value: 1.6e-68"  />
</g>
<g id="a1_003"  >
<polygon id="dummy-1_h1_3_3" locus_tag="desaA" style="fill:#b115d8; stroke-width:1; stroke:black; " points="390,85 395,80 486,80 486,90 395,90 390,85 " class="clusterblast-orf" description="&lt;b&gt;desaA&lt;/b&gt;&lt;br&gt;pyridoxal 5-phosfate (PLP)-dependen lysine decarboxylase&lt;br&gt;Location: 3614 - 2172&lt;br&gt;&lt;br&gt;&lt;b&gt;BlastP hit with cds15203_16763&lt;/b&gt;&lt;br&gt;Percentage identity: 83&lt;br&gt;Percentage coverage: 58&lt;br&gt;BLAST bit score: 497&lt;br&gt;E-value: 3.6e-140"  />
</g>
<g id="a1_004"  >
<polygon id="dummy-1_h1_3_4" locus_tag="desaF" style="fill:white; stroke-width:1; stroke:black; " points="498,85 503,80 535,80 535,90 503,90 498,85 " class="clusterblast-orf" description="&lt;b&gt;desaF&lt;/b&gt;&lt;br&gt;siderophore-interacting protein&lt;br&gt;Location: 1997 - 1440"  />
</g>
<g id="a1_005"  >
<polygon id="dummy-1_h1_3_5" locus_tag="desaE" style="fill:white; stroke-width:1; stroke:black; " points="561,85 566,80 631,80 631,90 566,90 561,85 " class="clusterblast-orf" description="&lt;b&gt;desaE&lt;/b&gt;&lt;br&gt;ABC transporter substrate-binding protein&lt;br&gt;Location: 1050 - 1"  />
</g>
</svg>
