<svg xmlns:xlink="http://www.w3.org/1999/xlink" width="800" preserveAspectRatio="none" y="0" viewBox="0 0 800 230" xmlns="http://www.w3.org/2000/svg" height="230" version="1.1" x="0"  >
<g label="Query sequence" class="clusterblast-cluster"  >
<text y="20" class="clusterblast-acc" x="5"  >
Query sequence</text>
<line x1="10" y2="35" style="stroke-width:1; stroke:grey; " y1="35" x2="778.0"  />
<polygon id="dummy-1_q0_0_all" locus_tag="cds318860_320687" style="fill:white; stroke-width:1; stroke:black; " points="0,35 5,30 27,30 27,40 5,40 0,35 " class="clusterblast-orf" description="&lt;b&gt;cds318860_320687&lt;/b&gt;&lt;br&gt;hypothetical protein&lt;br&gt;Location: 318860 - 320687"  />
<polygon id="dummy-1_q1_0_all" locus_tag="cds320791_321763" style="fill:white; stroke-width:1; stroke:black; " points="29,35 34,30 43,30 43,40 34,40 29,35 " class="clusterblast-orf" description="&lt;b&gt;cds320791_321763&lt;/b&gt;&lt;br&gt;DEXX-box atpase&lt;br&gt;Location: 320791 - 321763"  />
<polygon id="dummy-1_q2_0_all" locus_tag="cds321726_322218" style="fill:white; stroke-width:1; stroke:black; " points="43,35 48,30 50,30 50,40 48,40 43,35 " class="clusterblast-orf" description="&lt;b&gt;cds321726_322218&lt;/b&gt;&lt;br&gt;DEXX-box atpase&lt;br&gt;Location: 321726 - 322218"  />
<polygon id="dummy-1_q3_0_all" locus_tag="cds322477_323548" style="fill:white; stroke-width:1; stroke:black; " points="54,35 59,30 70,30 70,40 59,40 54,35 " class="clusterblast-orf" description="&lt;b&gt;cds322477_323548&lt;/b&gt;&lt;br&gt;GTP-binding and nucleic acid-binding protein YchF&lt;br&gt;Location: 322477 - 323548"  />
<polygon id="dummy-1_q4_0_all" locus_tag="cds323778_324642" style="fill:white; stroke-width:1; stroke:black; " points="73,40 81,40 86,35 81,30 73,30 73,40 " class="clusterblast-orf" description="&lt;b&gt;cds323778_324642&lt;/b&gt;&lt;br&gt;hypothetical protein&lt;br&gt;Location: 323778 - 324642"  />
<polygon id="dummy-1_q5_0_all" locus_tag="cds324717_324912" style="fill:white; stroke-width:1; stroke:black; " points="87,35 90,30 90,40 87,35 " class="clusterblast-orf" description="&lt;b&gt;cds324717_324912&lt;/b&gt;&lt;br&gt;Polyphosphate glucokinase (EC 2.7.1.63)&lt;br&gt;Location: 324717 - 324912"  />
<polygon id="dummy-1_q6_0_all" locus_tag="cds324932_326189" style="fill:white; stroke-width:1; stroke:black; " points="91,35 96,30 109,30 109,40 96,40 91,35 " class="clusterblast-orf" description="&lt;b&gt;cds324932_326189&lt;/b&gt;&lt;br&gt;4-hydroxy-3-methylbut-2-enyl diphosphate reductase (EC 1.17.7.4)&lt;br&gt;Location: 324932 - 326189"  />
<polygon id="dummy-1_q7_0_all" locus_tag="cds326363_327002" style="fill:white; stroke-width:1; stroke:black; " points="112,40 117,40 122,35 117,30 112,30 112,40 " class="clusterblast-orf" description="&lt;b&gt;cds326363_327002&lt;/b&gt;&lt;br&gt;Amino acid permease-associated region&lt;br&gt;Location: 326363 - 327002"  />
<polygon id="dummy-1_q8_0_all" locus_tag="cds326959_327952" style="fill:white; stroke-width:1; stroke:black; " points="121,40 131,40 136,35 131,30 121,30 121,40 " class="clusterblast-orf" description="&lt;b&gt;cds326959_327952&lt;/b&gt;&lt;br&gt;Amino acid permease-associated region&lt;br&gt;Location: 326959 - 327952"  />
<polygon id="dummy-1_q9_0_all" locus_tag="cds328040_329321" style="fill:white; stroke-width:1; stroke:black; " points="137,40 151,40 156,35 151,30 137,30 137,40 " class="clusterblast-orf" description="&lt;b&gt;cds328040_329321&lt;/b&gt;&lt;br&gt;Exodeoxyribonuclease VII large subunit (EC 3.1.11.6)&lt;br&gt;Location: 328040 - 329321"  />
<polygon id="dummy-1_q10_0_all" locus_tag="cds329345_329594" style="fill:white; stroke-width:1; stroke:black; " points="157,40 160,35 157,30 157,40 " class="clusterblast-orf" description="&lt;b&gt;cds329345_329594&lt;/b&gt;&lt;br&gt;Exodeoxyribonuclease VII small subunit (EC 3.1.11.6)&lt;br&gt;Location: 329345 - 329594"  />
<polygon id="dummy-1_q11_0_all" locus_tag="cds329732_330323" style="fill:white; stroke-width:1; stroke:black; " points="162,40 166,40 171,35 166,30 162,30 162,40 " class="clusterblast-orf" description="&lt;b&gt;cds329732_330323&lt;/b&gt;&lt;br&gt;hypothetical protein&lt;br&gt;Location: 329732 - 330323"  />
<polygon id="dummy-1_q12_0_all" locus_tag="cds330431_330938" style="fill:white; stroke-width:1; stroke:black; " points="173,35 178,30 180,30 180,40 178,40 173,35 " class="clusterblast-orf" description="&lt;b&gt;cds330431_330938&lt;/b&gt;&lt;br&gt;putative secreted protein&lt;br&gt;Location: 330431 - 330938"  />
<polygon id="dummy-1_q13_0_all" locus_tag="cds331130_331805" style="fill:white; stroke-width:1; stroke:black; " points="183,40 188,40 193,35 188,30 183,30 183,40 " class="clusterblast-orf" description="&lt;b&gt;cds331130_331805&lt;/b&gt;&lt;br&gt;Fructose-1,6-bisphosphatase, GlpX type (EC 3.1.3.11)&lt;br&gt;Location: 331130 - 331805"  />
<polygon id="dummy-1_q14_0_all" locus_tag="cds331804_332170" style="fill:white; stroke-width:1; stroke:black; " points="193,40 194,40 199,35 194,30 193,30 193,40 " class="clusterblast-orf" description="&lt;b&gt;cds331804_332170&lt;/b&gt;&lt;br&gt;Fructose-1,6-bisphosphatase, GlpX type (EC 3.1.3.11)&lt;br&gt;Location: 331804 - 332170"  />
<polygon id="dummy-1_q15_0_all" locus_tag="cds332248_332410" style="fill:white; stroke-width:1; stroke:black; " points="200,35 203,30 203,40 200,35 " class="clusterblast-orf" description="&lt;b&gt;cds332248_332410&lt;/b&gt;&lt;br&gt;Transcriptional regulator, WhiB family&lt;br&gt;Location: 332248 - 332410"  />
<polygon id="dummy-1_q16_0_all" locus_tag="cds332389_332602" style="fill:white; stroke-width:1; stroke:black; " points="202,40 205,35 202,30 202,40 " class="clusterblast-orf" description="&lt;b&gt;cds332389_332602&lt;/b&gt;&lt;br&gt;hypothetical protein&lt;br&gt;Location: 332389 - 332602"  />
<polygon id="dummy-1_q17_0_all" locus_tag="cds332762_333485" style="fill:white; stroke-width:1; stroke:black; " points="208,35 213,30 219,30 219,40 213,40 208,35 " class="clusterblast-orf" description="&lt;b&gt;cds332762_333485&lt;/b&gt;&lt;br&gt;hypothetical protein&lt;br&gt;Location: 332762 - 333485"  />
<polygon id="dummy-1_q18_0_all" locus_tag="cds333644_335366" style="fill:white; stroke-width:1; stroke:black; " points="221,40 242,40 247,35 242,30 221,30 221,40 " class="clusterblast-orf" description="&lt;b&gt;cds333644_335366&lt;/b&gt;&lt;br&gt;Fumarate hydratase class I (EC 4.2.1.2)&lt;br&gt;Location: 333644 - 335366"  />
<polygon id="dummy-1_q19_0_all" locus_tag="cds335452_336454" style="fill:white; stroke-width:1; stroke:black; " points="248,35 253,30 263,30 263,40 253,40 248,35 " class="clusterblast-orf" description="&lt;b&gt;cds335452_336454&lt;/b&gt;&lt;br&gt;Transcriptional regulator, LuxR family&lt;br&gt;Location: 335452 - 336454"  />
<polygon id="dummy-1_q20_0_all" locus_tag="cds336726_337122" style="fill:white; stroke-width:1; stroke:black; " points="267,40 268,40 273,35 268,30 267,30 267,40 " class="clusterblast-orf" description="&lt;b&gt;cds336726_337122&lt;/b&gt;&lt;br&gt;Uncharacterized MFS-type transporter&lt;br&gt;Location: 336726 - 337122"  />
<polygon id="dummy-1_q21_0_all" locus_tag="cds337118_338348" style="fill:white; stroke-width:1; stroke:black; " points="273,40 286,40 291,35 286,30 273,30 273,40 " class="clusterblast-orf" description="&lt;b&gt;cds337118_338348&lt;/b&gt;&lt;br&gt;Uncharacterized MFS-type transporter&lt;br&gt;Location: 337118 - 338348"  />
<polygon id="dummy-1_q22_0_all" locus_tag="cds338382_338706" style="fill:#d81515; stroke-width:1; stroke:black; " points="292,40 292,40 297,35 292,30 292,30 292,40 " class="clusterblast-orf" description="&lt;b&gt;cds338382_338706&lt;/b&gt;&lt;br&gt;Polyketide synthase&lt;br&gt;Location: 338382 - 338706"  />
<polygon id="dummy-1_q23_0_all" locus_tag="cds338859_340845" style="fill:white; stroke-width:1; stroke:black; " points="299,40 324,40 329,35 324,30 299,30 299,40 " class="clusterblast-orf" description="&lt;b&gt;cds338859_340845&lt;/b&gt;&lt;br&gt;Polyketide synthase&lt;br&gt;Location: 338859 - 340845"  />
<polygon id="dummy-1_q24_0_all" locus_tag="cds340871_341111" style="fill:white; stroke-width:1; stroke:black; " points="329,40 333,35 329,30 329,40 " class="clusterblast-orf" description="&lt;b&gt;cds340871_341111&lt;/b&gt;&lt;br&gt;Malonyl CoA-acyl carrier protein transacylase (EC 2.3.1.39)&lt;br&gt;Location: 340871 - 341111"  />
<polygon id="dummy-1_q25_0_all" locus_tag="cds341107_341692" style="fill:white; stroke-width:1; stroke:black; " points="333,40 336,40 341,35 336,30 333,30 333,40 " class="clusterblast-orf" description="&lt;b&gt;cds341107_341692&lt;/b&gt;&lt;br&gt;Polyketide synthase modules and related proteins&lt;br&gt;Location: 341107 - 341692"  />
<polygon id="dummy-1_q26_0_all" locus_tag="cds341697_344262" style="fill:white; stroke-width:1; stroke:black; " points="342,40 375,40 380,35 375,30 342,30 342,40 " class="clusterblast-orf" description="&lt;b&gt;cds341697_344262&lt;/b&gt;&lt;br&gt;Polyketide synthase modules and related proteins&lt;br&gt;Location: 341697 - 344262"  />
<polygon id="dummy-1_q27_0_all" locus_tag="cds344542_345217" style="fill:white; stroke-width:1; stroke:black; " points="384,40 389,40 394,35 389,30 384,30 384,40 " class="clusterblast-orf" description="&lt;b&gt;cds344542_345217&lt;/b&gt;&lt;br&gt;Polyketide synthase modules and related proteins&lt;br&gt;Location: 344542 - 345217"  />
<polygon id="dummy-1_q28_0_all" locus_tag="cds345167_345638" style="fill:white; stroke-width:1; stroke:black; " points="394,40 396,40 401,35 396,30 394,30 394,40 " class="clusterblast-orf" description="&lt;b&gt;cds345167_345638&lt;/b&gt;&lt;br&gt;Polyketide synthase modules and related proteins&lt;br&gt;Location: 345167 - 345638"  />
<polygon id="dummy-1_q29_0_all" locus_tag="cds345634_347218" style="fill:white; stroke-width:1; stroke:black; " points="401,40 419,40 424,35 419,30 401,30 401,40 " class="clusterblast-orf" description="&lt;b&gt;cds345634_347218&lt;/b&gt;&lt;br&gt;Polyketide synthase modules and related proteins&lt;br&gt;Location: 345634 - 347218"  />
<polygon id="dummy-1_q30_0_all" locus_tag="cds347208_347499" style="fill:white; stroke-width:1; stroke:black; " points="424,40 428,35 424,30 424,40 " class="clusterblast-orf" description="&lt;b&gt;cds347208_347499&lt;/b&gt;&lt;br&gt;Aspartyl aminopeptidase (EC 3.4.11.21)&lt;br&gt;Location: 347208 - 347499"  />
<polygon id="dummy-1_q31_0_all" locus_tag="cds347480_348200" style="fill:white; stroke-width:1; stroke:black; " points="428,40 434,40 439,35 434,30 428,30 428,40 " class="clusterblast-orf" description="&lt;b&gt;cds347480_348200&lt;/b&gt;&lt;br&gt;Aspartyl aminopeptidase (EC 3.4.11.21)&lt;br&gt;Location: 347480 - 348200"  />
<polygon id="dummy-1_q32_0_all" locus_tag="cds348229_348424" style="fill:#77d815; stroke-width:1; stroke:black; " points="439,40 442,35 439,30 439,40 " class="clusterblast-orf" description="&lt;b&gt;cds348229_348424&lt;/b&gt;&lt;br&gt;putative thioesterase&lt;br&gt;Location: 348229 - 348424"  />
<polygon id="dummy-1_q33_0_all" locus_tag="cds348420_348969" style="fill:#77d815; stroke-width:1; stroke:black; " points="442,40 445,40 450,35 445,30 442,30 442,40 " class="clusterblast-orf" description="&lt;b&gt;cds348420_348969&lt;/b&gt;&lt;br&gt;putative thioesterase&lt;br&gt;Location: 348420 - 348969"  />
<polygon id="dummy-1_q34_0_all" locus_tag="cds348965_349865" style="fill:#15d8d8; stroke-width:1; stroke:black; " points="450,40 459,40 464,35 459,30 450,30 450,40 " class="clusterblast-orf" description="&lt;b&gt;cds348965_349865&lt;/b&gt;&lt;br&gt;Putative dehydrogenase&lt;br&gt;Location: 348965 - 349865"  />
<polygon id="dummy-1_q35_0_all" locus_tag="cds350105_351890" style="fill:#77d815; stroke-width:1; stroke:black; " points="467,40 489,40 494,35 489,30 467,30 467,40 " class="clusterblast-orf" description="&lt;b&gt;cds350105_351890&lt;/b&gt;&lt;br&gt;Polyketide synthase modules and related proteins&lt;br&gt;Location: 350105 - 351890"  />
<polygon id="dummy-1_q36_0_all" locus_tag="cds351954_352284" style="fill:white; stroke-width:1; stroke:black; " points="495,35 500,30 500,30 500,40 500,40 495,35 " class="clusterblast-orf" description="&lt;b&gt;cds351954_352284&lt;/b&gt;&lt;br&gt;hypothetical protein&lt;br&gt;Location: 351954 - 352284"  />
<polygon id="dummy-1_q37_0_all" locus_tag="cds352409_352592" style="fill:#77d815; stroke-width:1; stroke:black; " points="502,40 505,35 502,30 502,40 " class="clusterblast-orf" description="&lt;b&gt;cds352409_352592&lt;/b&gt;&lt;br&gt;Polyketide synthase modules and related proteins&lt;br&gt;Location: 352409 - 352592"  />
<polygon id="dummy-1_q38_0_all" locus_tag="cds352666_353338" style="fill:white; stroke-width:1; stroke:black; " points="506,35 511,30 516,30 516,40 511,40 506,35 " class="clusterblast-orf" description="&lt;b&gt;cds352666_353338&lt;/b&gt;&lt;br&gt;hypothetical protein&lt;br&gt;Location: 352666 - 353338"  />
<polygon id="dummy-1_q39_0_all" locus_tag="cds353412_353751" style="fill:white; stroke-width:1; stroke:black; " points="517,35 522,30 522,30 522,40 522,40 517,35 " class="clusterblast-orf" description="&lt;b&gt;cds353412_353751&lt;/b&gt;&lt;br&gt;hypothetical protein&lt;br&gt;Location: 353412 - 353751"  />
<polygon id="dummy-1_q40_0_all" locus_tag="cds354338_355751" style="fill:white; stroke-width:1; stroke:black; " points="531,40 547,40 552,35 547,30 531,30 531,40 " class="clusterblast-orf" description="&lt;b&gt;cds354338_355751&lt;/b&gt;&lt;br&gt;Fumarate hydratase class II (EC 4.2.1.2)&lt;br&gt;Location: 354338 - 355751"  />
<polygon id="dummy-1_q41_0_all" locus_tag="cds355796_356450" style="fill:white; stroke-width:1; stroke:black; " points="553,40 557,40 562,35 557,30 553,30 553,40 " class="clusterblast-orf" description="&lt;b&gt;cds355796_356450&lt;/b&gt;&lt;br&gt;hypothetical protein&lt;br&gt;Location: 355796 - 356450"  />
<polygon id="dummy-1_q42_0_all" locus_tag="cds356659_356773" style="fill:white; stroke-width:1; stroke:black; " points="566,40 567,35 566,30 566,40 " class="clusterblast-orf" description="&lt;b&gt;cds356659_356773&lt;/b&gt;&lt;br&gt;hypothetical protein&lt;br&gt;Location: 356659 - 356773"  />
<polygon id="dummy-1_q43_0_all" locus_tag="cds356866_357847" style="fill:white; stroke-width:1; stroke:black; " points="569,40 578,40 583,35 578,30 569,30 569,40 " class="clusterblast-orf" description="&lt;b&gt;cds356866_357847&lt;/b&gt;&lt;br&gt;Uncharacterized, RsbU-domain-containing protein SCO5040&lt;br&gt;Location: 356866 - 357847"  />
<polygon id="dummy-1_q44_0_all" locus_tag="cds357935_358775" style="fill:#7715d8; stroke-width:1; stroke:black; " points="585,40 592,40 597,35 592,30 585,30 585,40 " class="clusterblast-orf" description="&lt;b&gt;cds357935_358775&lt;/b&gt;&lt;br&gt;Uncharacterized, RsbU-domain-containing protein SCO5040&lt;br&gt;Location: 357935 - 358775"  />
<polygon id="dummy-1_q45_0_all" locus_tag="cds358867_359746" style="fill:white; stroke-width:1; stroke:black; " points="599,35 604,30 612,30 612,40 604,40 599,35 " class="clusterblast-orf" description="&lt;b&gt;cds358867_359746&lt;/b&gt;&lt;br&gt;Multimodular transpeptidase-transglycosylase (EC 2.4.1.129) (EC 3.4.-.-)&lt;br&gt;Location: 358867 - 359746"  />
<polygon id="dummy-1_q46_0_all" locus_tag="cds359853_360240" style="fill:white; stroke-width:1; stroke:black; " points="613,40 614,40 619,35 614,30 613,30 613,40 " class="clusterblast-orf" description="&lt;b&gt;cds359853_360240&lt;/b&gt;&lt;br&gt;hypothetical protein&lt;br&gt;Location: 359853 - 360240"  />
<polygon id="dummy-1_q47_0_all" locus_tag="cds360255_360357" style="fill:white; stroke-width:1; stroke:black; " points="619,40 621,35 619,30 619,40 " class="clusterblast-orf" description="&lt;b&gt;cds360255_360357&lt;/b&gt;&lt;br&gt;hypothetical protein&lt;br&gt;Location: 360255 - 360357"  />
<polygon id="dummy-1_q48_0_all" locus_tag="cds361406_361646" style="fill:white; stroke-width:1; stroke:black; " points="637,40 640,35 637,30 637,40 " class="clusterblast-orf" description="&lt;b&gt;cds361406_361646&lt;/b&gt;&lt;br&gt;Membrane protease family protein BA0301&lt;br&gt;Location: 361406 - 361646"  />
<polygon id="dummy-1_q49_0_all" locus_tag="cds361771_362092" style="fill:white; stroke-width:1; stroke:black; " points="642,35 647,30 647,30 647,40 647,40 642,35 " class="clusterblast-orf" description="&lt;b&gt;cds361771_362092&lt;/b&gt;&lt;br&gt;hypothetical protein&lt;br&gt;Location: 361771 - 362092"  />
<polygon id="dummy-1_q50_0_all" locus_tag="cds362154_362313" style="fill:white; stroke-width:1; stroke:black; " points="648,40 650,35 648,30 648,40 " class="clusterblast-orf" description="&lt;b&gt;cds362154_362313&lt;/b&gt;&lt;br&gt;Membrane protease family protein BA0301&lt;br&gt;Location: 362154 - 362313"  />
<polygon id="dummy-1_q51_0_all" locus_tag="cds362349_362598" style="fill:white; stroke-width:1; stroke:black; " points="651,40 655,35 651,30 651,40 " class="clusterblast-orf" description="&lt;b&gt;cds362349_362598&lt;/b&gt;&lt;br&gt;Uncharacterized protein BT 4195&lt;br&gt;Location: 362349 - 362598"  />
<polygon id="dummy-1_q52_0_all" locus_tag="cds362710_363235" style="fill:white; stroke-width:1; stroke:black; " points="656,40 659,40 664,35 659,30 656,30 656,40 " class="clusterblast-orf" description="&lt;b&gt;cds362710_363235&lt;/b&gt;&lt;br&gt;Transcriptional regulator, PadR family&lt;br&gt;Location: 362710 - 363235"  />
<polygon id="dummy-1_q53_0_all" locus_tag="cds363231_363918" style="fill:white; stroke-width:1; stroke:black; " points="664,40 669,40 674,35 669,30 664,30 664,40 " class="clusterblast-orf" description="&lt;b&gt;cds363231_363918&lt;/b&gt;&lt;br&gt;ABC-type antimicrobial peptide transport system, ATPase component&lt;br&gt;Location: 363231 - 363918"  />
<polygon id="dummy-1_q54_0_all" locus_tag="cds363914_365060" style="fill:white; stroke-width:1; stroke:black; " points="674,40 686,40 691,35 686,30 674,30 674,40 " class="clusterblast-orf" description="&lt;b&gt;cds363914_365060&lt;/b&gt;&lt;br&gt;ABC transporter, fused permease protein&lt;br&gt;Location: 363914 - 365060"  />
<polygon id="dummy-1_q55_0_all" locus_tag="cds365011_365290" style="fill:white; stroke-width:1; stroke:black; " points="691,40 695,35 691,30 691,40 " class="clusterblast-orf" description="&lt;b&gt;cds365011_365290&lt;/b&gt;&lt;br&gt;ABC transporter, fused permease protein&lt;br&gt;Location: 365011 - 365290"  />
<polygon id="dummy-1_q56_0_all" locus_tag="cds365247_365973" style="fill:white; stroke-width:1; stroke:black; " points="694,40 700,40 705,35 700,30 694,30 694,40 " class="clusterblast-orf" description="&lt;b&gt;cds365247_365973&lt;/b&gt;&lt;br&gt;ABC transporter, fused permease protein&lt;br&gt;Location: 365247 - 365973"  />
<polygon id="dummy-1_q57_0_all" locus_tag="cds366393_366819" style="fill:white; stroke-width:1; stroke:black; " points="711,35 716,30 718,30 718,40 716,40 711,35 " class="clusterblast-orf" description="&lt;b&gt;cds366393_366819&lt;/b&gt;&lt;br&gt;Hydrogen peroxide-inducible genes activator =&gt; OxyR&lt;br&gt;Location: 366393 - 366819"  />
<polygon id="dummy-1_q58_0_all" locus_tag="cds367001_367241" style="fill:white; stroke-width:1; stroke:black; " points="720,40 724,35 720,30 720,40 " class="clusterblast-orf" description="&lt;b&gt;cds367001_367241&lt;/b&gt;&lt;br&gt;hypothetical protein&lt;br&gt;Location: 367001 - 367241"  />
<polygon id="dummy-1_q59_0_all" locus_tag="cds367518_368079" style="fill:white; stroke-width:1; stroke:black; " points="728,40 732,40 737,35 732,30 728,30 728,40 " class="clusterblast-orf" description="&lt;b&gt;cds367518_368079&lt;/b&gt;&lt;br&gt;Alkyl hydroperoxide reductase protein C (EC 1.11.1.15)&lt;br&gt;Location: 367518 - 368079"  />
<polygon id="dummy-1_q60_0_all" locus_tag="cds368086_368620" style="fill:white; stroke-width:1; stroke:black; " points="737,40 740,40 745,35 740,30 737,30 737,40 " class="clusterblast-orf" description="&lt;b&gt;cds368086_368620&lt;/b&gt;&lt;br&gt;Alkyl hydroperoxide reductase AhpD (EC 1.11.1.15)&lt;br&gt;Location: 368086 - 368620"  />
<polygon id="dummy-1_q61_0_all" locus_tag="cds368713_369250" style="fill:white; stroke-width:1; stroke:black; " points="746,35 751,30 754,30 754,40 751,40 746,35 " class="clusterblast-orf" description="&lt;b&gt;cds368713_369250&lt;/b&gt;&lt;br&gt;FIG01121868: Possible membrane protein, Rv0205&lt;br&gt;Location: 368713 - 369250"  />
<polygon id="dummy-1_q62_0_all" locus_tag="cds369270_369984" style="fill:white; stroke-width:1; stroke:black; " points="754,35 759,30 765,30 765,40 759,40 754,35 " class="clusterblast-orf" description="&lt;b&gt;cds369270_369984&lt;/b&gt;&lt;br&gt;FIG01121868: Possible membrane protein, Rv0205&lt;br&gt;Location: 369270 - 369984"  />
<polygon id="dummy-1_q63_0_all" locus_tag="cds370272_370956" style="fill:white; stroke-width:1; stroke:black; " points="769,35 774,30 780,30 780,40 774,40 769,35 " class="clusterblast-orf" description="&lt;b&gt;cds370272_370956&lt;/b&gt;&lt;br&gt;putative secreted protein&lt;br&gt;Location: 370272 - 370956"  />
</g>
<g label="BGC0000993" description="BGC0000993_c1: FR901228 (9% of genes show similarity), NRP:Cyclic depsipeptide + Polyketide:Modular type I" class="clusterblast-cluster"  >
<text y="70" class="clusterblast-acc" x="5"  >
<a xlink:href="https://mibig.secondarymetabolites.org/go/BGC0000993/1" target="_blank">BGC0000993</a>:                                                                         FR901228 (9% of genes show similarity), NRP:Cyclic depsipeptide + Polyketide:Modular type I</text>
<line x1="10" y2="85" style="stroke-width:1; stroke:grey; " y1="85" x2="778.0"  />
</g>
<g id="a1_000"  >
<polygon id="dummy-1_h1_4_0" locus_tag="ABP57738.1" style="fill:white; stroke-width:1; stroke:black; " points="87,90 89,90 94,85 89,80 87,80 87,90 " class="clusterblast-orf" description="&lt;b&gt;ABP57738.1&lt;/b&gt;&lt;br&gt;16S rRNA pseudouridine synthase&lt;br&gt;Location: 1 - 454"  />
</g>
<g id="a1_001"  >
<polygon id="dummy-1_h1_4_1" locus_tag="ABP57739.1" style="fill:white; stroke-width:1; stroke:black; " points="94,90 96,90 101,85 96,80 94,80 94,90 " class="clusterblast-orf" description="&lt;b&gt;ABP57739.1&lt;/b&gt;&lt;br&gt;MutT/nudix family phosphohydrolase&lt;br&gt;Location: 466 - 957"  />
</g>
<g id="a1_002"  >
<polygon id="dummy-1_h1_4_2" locus_tag="ABP57740.1" style="fill:white; stroke-width:1; stroke:black; " points="101,90 105,90 110,85 105,80 101,80 101,90 " class="clusterblast-orf" description="&lt;b&gt;ABP57740.1&lt;/b&gt;&lt;br&gt;transcription elongation factor GreB&lt;br&gt;Location: 972 - 1544"  />
</g>
<g id="a1_003"  >
<polygon id="dummy-1_h1_4_3" locus_tag="ABP57741.1" style="fill:white; stroke-width:1; stroke:black; " points="111,85 115,80 115,90 111,85 " class="clusterblast-orf" description="&lt;b&gt;ABP57741.1&lt;/b&gt;&lt;br&gt;DepK&lt;br&gt;Location: 1616 - 1873"  />
</g>
<g id="a1_004"  >
<polygon id="dummy-1_h1_4_4" locus_tag="ABP57742.1" style="fill:white; stroke-width:1; stroke:black; " points="116,85 121,80 123,80 123,90 121,90 116,85 " class="clusterblast-orf" description="&lt;b&gt;ABP57742.1&lt;/b&gt;&lt;br&gt;DepL&lt;br&gt;Location: 1971 - 2438"  />
</g>
<g id="a1_005"  >
<polygon id="dummy-1_h1_4_5" locus_tag="ABP57743.1" style="fill:white; stroke-width:1; stroke:black; " points="124,90 137,90 142,85 137,80 124,80 124,90 " class="clusterblast-orf" description="&lt;b&gt;ABP57743.1&lt;/b&gt;&lt;br&gt;DepM&lt;br&gt;Location: 2513 - 3682"  />
</g>
<g id="a1_006"  >
<polygon id="dummy-1_h1_4_6" locus_tag="ABP57744.1" style="fill:white; stroke-width:1; stroke:black; " points="154,90 157,85 154,80 154,90 " class="clusterblast-orf" description="&lt;b&gt;ABP57744.1&lt;/b&gt;&lt;br&gt;DepN&lt;br&gt;Location: 4469 - 4666"  />
</g>
<g id="a1_007"  >
<polygon id="dummy-1_h1_4_7" locus_tag="ABP57745.1" style="fill:white; stroke-width:1; stroke:black; " points="162,90 233,90 238,85 233,80 162,80 162,90 " class="clusterblast-orf" description="&lt;b&gt;ABP57745.1&lt;/b&gt;&lt;br&gt;DepA&lt;br&gt;Location: 5034 - 10127"  />
</g>
<g id="a1_008"  >
<polygon id="dummy-1_h1_4_8" locus_tag="ABP57746.1" style="fill:white; stroke-width:1; stroke:black; " points="238,90 303,90 308,85 303,80 238,80 238,90 " class="clusterblast-orf" description="&lt;b&gt;ABP57746.1&lt;/b&gt;&lt;br&gt;DepB&lt;br&gt;Location: 10127 - 14788"  />
</g>
<g id="a1_009"  >
<polygon id="dummy-1_h1_4_9" locus_tag="ABP57747.1" style="fill:#d81515; stroke-width:1; stroke:black; " points="308,90 356,90 361,85 356,80 308,80 308,90 " class="clusterblast-orf" description="&lt;b&gt;ABP57747.1&lt;/b&gt;&lt;br&gt;DepC&lt;br&gt;Location: 14785 - 18336&lt;br&gt;&lt;br&gt;&lt;b&gt;BlastP hit with cds338382_338706&lt;/b&gt;&lt;br&gt;Percentage identity: 47&lt;br&gt;Percentage coverage: 73&lt;br&gt;BLAST bit score: 66&lt;br&gt;E-value: 3.2e-11"  />
</g>
<g id="a1_0010"  >
<polygon id="dummy-1_h1_4_10" locus_tag="ABP57748.1" style="fill:white; stroke-width:1; stroke:black; " points="361,90 494,90 499,85 494,80 361,80 361,90 " class="clusterblast-orf" description="&lt;b&gt;ABP57748.1&lt;/b&gt;&lt;br&gt;DepD&lt;br&gt;Location: 18333 - 27506"  />
</g>
<g id="a1_0011"  >
<polygon id="dummy-1_h1_4_11" locus_tag="ABP57749.1" style="fill:#77d815; stroke-width:1; stroke:black; " points="499,90 579,90 584,85 579,80 499,80 499,90 " class="clusterblast-orf" description="&lt;b&gt;ABP57749.1&lt;/b&gt;&lt;br&gt;DepE&lt;br&gt;Location: 27503 - 33181&lt;br&gt;&lt;br&gt;&lt;b&gt;BlastP hit with cds350105_351890&lt;/b&gt;&lt;br&gt;Percentage identity: 46&lt;br&gt;Percentage coverage: 60&lt;br&gt;BLAST bit score: 256&lt;br&gt;E-value: 1.2e-67"  />
</g>
<g id="a1_0012"  >
<polygon id="dummy-1_h1_4_12" locus_tag="ABP57750.1" style="fill:white; stroke-width:1; stroke:black; " points="584,90 596,90 601,85 596,80 584,80 584,90 " class="clusterblast-orf" description="&lt;b&gt;ABP57750.1&lt;/b&gt;&lt;br&gt;DepF&lt;br&gt;Location: 33178 - 34350"  />
</g>
<g id="a1_0013"  >
<polygon id="dummy-1_h1_4_13" locus_tag="ABP57751.1" style="fill:white; stroke-width:1; stroke:black; " points="601,90 610,90 615,85 610,80 601,80 601,90 " class="clusterblast-orf" description="&lt;b&gt;ABP57751.1&lt;/b&gt;&lt;br&gt;DepG&lt;br&gt;Location: 34347 - 35312"  />
</g>
<g id="a1_0014"  >
<polygon id="dummy-1_h1_4_14" locus_tag="ABP57752.1" style="fill:white; stroke-width:1; stroke:black; " points="615,90 625,90 630,85 625,80 615,80 615,90 " class="clusterblast-orf" description="&lt;b&gt;ABP57752.1&lt;/b&gt;&lt;br&gt;DepH&lt;br&gt;Location: 35309 - 36268"  />
</g>
<g id="a1_0015"  >
<polygon id="dummy-1_h1_4_15" locus_tag="ABP57753.1" style="fill:white; stroke-width:1; stroke:black; " points="631,90 639,90 644,85 639,80 631,80 631,90 " class="clusterblast-orf" description="&lt;b&gt;ABP57753.1&lt;/b&gt;&lt;br&gt;DepI&lt;br&gt;Location: 36324 - 37238"  />
</g>
<g id="a1_0016"  >
<polygon id="dummy-1_h1_4_16" locus_tag="ABP57754.1" style="fill:white; stroke-width:1; stroke:black; " points="644,90 651,90 656,85 651,80 644,80 644,90 " class="clusterblast-orf" description="&lt;b&gt;ABP57754.1&lt;/b&gt;&lt;br&gt;DepJ&lt;br&gt;Location: 37235 - 37999"  />
</g>
<g id="a1_0017"  >
<polygon id="dummy-1_h1_4_17" locus_tag="ABP57755.1" style="fill:white; stroke-width:1; stroke:black; " points="657,85 662,80 671,80 671,90 662,90 657,85 " class="clusterblast-orf" description="&lt;b&gt;ABP57755.1&lt;/b&gt;&lt;br&gt;hydrogen peroxid-inducible genes activator OxyR&lt;br&gt;Location: 38068 - 39006"  />
</g>
<g id="a1_0018"  >
<polygon id="dummy-1_h1_4_18" locus_tag="ABP57756.1" style="fill:white; stroke-width:1; stroke:black; " points="671,85 675,80 675,90 671,85 " class="clusterblast-orf" description="&lt;b&gt;ABP57756.1&lt;/b&gt;&lt;br&gt;cell division topological specificity factor MinE&lt;br&gt;Location: 39010 - 39267"  />
</g>
<g id="a1_0019"  >
<polygon id="dummy-1_h1_4_19" locus_tag="ABP57757.1" style="fill:white; stroke-width:1; stroke:black; " points="675,85 680,80 687,80 687,90 680,90 675,85 " class="clusterblast-orf" description="&lt;b&gt;ABP57757.1&lt;/b&gt;&lt;br&gt;septum site-determining protein MinD&lt;br&gt;Location: 39271 - 40083"  />
</g>
<g id="a1_0020"  >
<polygon id="dummy-1_h1_4_20" locus_tag="ABP57758.1" style="fill:white; stroke-width:1; stroke:black; " points="687,85 692,80 692,80 692,90 692,90 687,85 " class="clusterblast-orf" description="&lt;b&gt;ABP57758.1&lt;/b&gt;&lt;br&gt;septum formation inhibitor MinC&lt;br&gt;Location: 40110 - 40434"  />
</g>
</svg>
