<svg xmlns:xlink="http://www.w3.org/1999/xlink" width="800" preserveAspectRatio="none" y="0" viewBox="0 0 800 230" xmlns="http://www.w3.org/2000/svg" height="230" version="1.1" x="0"  >
<g label="Query sequence" class="clusterblast-cluster"  >
<text y="20" class="clusterblast-acc" x="5"  >
Query sequence</text>
<line x1="10" y2="35" style="stroke-width:1; stroke:grey; " y1="35" x2="778.0"  />
<polygon id="dummy-1_q0_0_all" locus_tag="cds5_842" style="fill:white; stroke-width:1; stroke:black; " points="312,35 317,30 320,30 320,40 317,40 312,35 " class="clusterblast-orf" description="&lt;b&gt;cds5_842&lt;/b&gt;&lt;br&gt;hypothetical protein&lt;br&gt;Location: 5 - 842"  />
<polygon id="dummy-1_q1_0_all" locus_tag="cds876_1401" style="fill:#d81515; stroke-width:1; stroke:black; " points="320,35 325,30 325,30 325,40 325,40 320,35 " class="clusterblast-orf" description="&lt;b&gt;cds876_1401&lt;/b&gt;&lt;br&gt;hypothetical protein&lt;br&gt;Location: 876 - 1401"  />
<polygon id="dummy-1_q2_0_all" locus_tag="cds1445_1610" style="fill:#15d863; stroke-width:1; stroke:black; " points="325,35 327,30 327,40 325,35 " class="clusterblast-orf" description="&lt;b&gt;cds1445_1610&lt;/b&gt;&lt;br&gt;MbtH-like NRPS chaperone&lt;br&gt;Location: 1445 - 1610"  />
<polygon id="dummy-1_q3_0_all" locus_tag="cds1762_1909" style="fill:white; stroke-width:1; stroke:black; " points="328,35 329,30 329,40 328,35 " class="clusterblast-orf" description="&lt;b&gt;cds1762_1909&lt;/b&gt;&lt;br&gt;hypothetical protein&lt;br&gt;Location: 1762 - 1909"  />
<polygon id="dummy-1_q4_0_all" locus_tag="cds1905_2529" style="fill:#1563d8; stroke-width:1; stroke:black; " points="329,35 334,30 335,30 335,40 334,40 329,35 " class="clusterblast-orf" description="&lt;b&gt;cds1905_2529&lt;/b&gt;&lt;br&gt;Long-chain-fatty-acid--CoA ligase (EC 6.2.1.3)&lt;br&gt;Location: 1905 - 2529"  />
<polygon id="dummy-1_q5_0_all" locus_tag="cds2758_2971" style="fill:#1563d8; stroke-width:1; stroke:black; " points="337,35 339,30 339,40 337,35 " class="clusterblast-orf" description="&lt;b&gt;cds2758_2971&lt;/b&gt;&lt;br&gt;Long-chain-fatty-acid--CoA ligase (EC 6.2.1.3)&lt;br&gt;Location: 2758 - 2971"  />
<polygon id="dummy-1_q6_0_all" locus_tag="cds3786_5700" style="fill:#b115d8; stroke-width:1; stroke:black; " points="346,40 358,40 363,35 358,30 346,30 346,40 " class="clusterblast-orf" description="&lt;b&gt;cds3786_5700&lt;/b&gt;&lt;br&gt;hypothetical protein&lt;br&gt;Location: 3786 - 5700"  />
<polygon id="dummy-1_q7_0_all" locus_tag="cds5678_6653" style="fill:#b115d8; stroke-width:1; stroke:black; " points="363,40 367,40 372,35 367,30 363,30 363,40 " class="clusterblast-orf" description="&lt;b&gt;cds5678_6653&lt;/b&gt;&lt;br&gt;hypothetical protein&lt;br&gt;Location: 5678 - 6653"  />
<polygon id="dummy-1_q8_0_all" locus_tag="cds6746_7190" style="fill:#b115d8; stroke-width:1; stroke:black; " points="373,40 377,35 373,30 373,40 " class="clusterblast-orf" description="&lt;b&gt;cds6746_7190&lt;/b&gt;&lt;br&gt;hypothetical protein&lt;br&gt;Location: 6746 - 7190"  />
<polygon id="dummy-1_q9_0_all" locus_tag="cds7186_9676" style="fill:white; stroke-width:1; stroke:black; " points="377,40 394,40 399,35 394,30 377,30 377,40 " class="clusterblast-orf" description="&lt;b&gt;cds7186_9676&lt;/b&gt;&lt;br&gt;hypothetical protein&lt;br&gt;Location: 7186 - 9676"  />
<polygon id="dummy-1_q10_0_all" locus_tag="cds9672_9777" style="fill:white; stroke-width:1; stroke:black; " points="399,40 400,35 399,30 399,40 " class="clusterblast-orf" description="&lt;b&gt;cds9672_9777&lt;/b&gt;&lt;br&gt;hypothetical protein&lt;br&gt;Location: 9672 - 9777"  />
<polygon id="dummy-1_q11_0_all" locus_tag="cds9781_10627" style="fill:#b115d8; stroke-width:1; stroke:black; " points="400,40 403,40 408,35 403,30 400,30 400,40 " class="clusterblast-orf" description="&lt;b&gt;cds9781_10627&lt;/b&gt;&lt;br&gt;Polyketide synthase modules and related proteins&lt;br&gt;Location: 9781 - 10627"  />
<polygon id="dummy-1_q12_0_all" locus_tag="cds10599_11067" style="fill:#b115d8; stroke-width:1; stroke:black; " points="408,40 412,35 408,30 408,40 " class="clusterblast-orf" description="&lt;b&gt;cds10599_11067&lt;/b&gt;&lt;br&gt;hypothetical protein&lt;br&gt;Location: 10599 - 11067"  />
<polygon id="dummy-1_q13_0_all" locus_tag="cds11113_11608" style="fill:#b115d8; stroke-width:1; stroke:black; " points="412,40 412,40 417,35 412,30 412,30 412,40 " class="clusterblast-orf" description="&lt;b&gt;cds11113_11608&lt;/b&gt;&lt;br&gt;Long-chain-fatty-acid--CoA ligase (EC 6.2.1.3)&lt;br&gt;Location: 11113 - 11608"  />
<polygon id="dummy-1_q14_0_all" locus_tag="cds11604_14121" style="fill:white; stroke-width:1; stroke:black; " points="417,40 434,40 439,35 434,30 417,30 417,40 " class="clusterblast-orf" description="&lt;b&gt;cds11604_14121&lt;/b&gt;&lt;br&gt;Siderophore biosynthesis non-ribosomal peptide synthetase modules&lt;br&gt;Location: 11604 - 14121"  />
<polygon id="dummy-1_q15_0_all" locus_tag="cds14256_14961" style="fill:#b115d8; stroke-width:1; stroke:black; " points="440,40 442,40 447,35 442,30 440,30 440,40 " class="clusterblast-orf" description="&lt;b&gt;cds14256_14961&lt;/b&gt;&lt;br&gt;hypothetical protein&lt;br&gt;Location: 14256 - 14961"  />
<polygon id="dummy-1_q16_0_all" locus_tag="cds15146_15863" style="fill:#b115d8; stroke-width:1; stroke:black; " points="449,40 450,40 455,35 450,30 449,30 449,40 " class="clusterblast-orf" description="&lt;b&gt;cds15146_15863&lt;/b&gt;&lt;br&gt;hypothetical protein&lt;br&gt;Location: 15146 - 15863"  />
<polygon id="dummy-1_q17_0_all" locus_tag="cds15859_16357" style="fill:#b115d8; stroke-width:1; stroke:black; " points="455,40 459,35 455,30 455,40 " class="clusterblast-orf" description="&lt;b&gt;cds15859_16357&lt;/b&gt;&lt;br&gt;hypothetical protein&lt;br&gt;Location: 15859 - 16357"  />
<polygon id="dummy-1_q18_0_all" locus_tag="cds16491_16653" style="fill:white; stroke-width:1; stroke:black; " points="461,35 462,30 462,40 461,35 " class="clusterblast-orf" description="&lt;b&gt;cds16491_16653&lt;/b&gt;&lt;br&gt;hypothetical protein&lt;br&gt;Location: 16491 - 16653"  />
<polygon id="dummy-1_q19_0_all" locus_tag="cds16700_17195" style="fill:#b1d815; stroke-width:1; stroke:black; " points="462,40 462,40 467,35 462,30 462,30 462,40 " class="clusterblast-orf" description="&lt;b&gt;cds16700_17195&lt;/b&gt;&lt;br&gt;hypothetical protein&lt;br&gt;Location: 16700 - 17195"  />
</g>
<g label="BGC0000429" description="BGC0000429_c1: RP-1776 (8% of genes show similarity), Polyketide + NRP:Cyclic depsipeptide" class="clusterblast-cluster"  >
<text y="70" class="clusterblast-acc" x="5"  >
<a xlink:href="https://mibig.secondarymetabolites.org/go/BGC0000429/1" target="_blank">BGC0000429</a>:                                                                          RP-1776 (8% of genes show similarity), Polyketide + NRP:Cyclic depsipeptide</text>
<line x1="10" y2="85" style="stroke-width:1; stroke:grey; " y1="85" x2="778.0"  />
</g>
<g id="a1_000"  >
<polygon id="dummy-1_h1_10_0" locus_tag="AEA30245.1" style="fill:white; stroke-width:1; stroke:black; " points="0,85 3,80 3,90 0,85 " class="clusterblast-orf" description="&lt;b&gt;AEA30245.1&lt;/b&gt;&lt;br&gt;putative SMR-type multi-drug efflux transporter&lt;br&gt;Location: 148 - 561"  />
</g>
<g id="a1_001"  >
<polygon id="dummy-1_h1_10_1" locus_tag="AEA30244.1" style="fill:white; stroke-width:1; stroke:black; " points="4,85 7,80 7,90 4,85 " class="clusterblast-orf" description="&lt;b&gt;AEA30244.1&lt;/b&gt;&lt;br&gt;putative SMR-type multi-drug efflux transporter&lt;br&gt;Location: 662 - 982"  />
</g>
<g id="a1_002"  >
<polygon id="dummy-1_h1_10_2" locus_tag="AEA30246.1" style="fill:white; stroke-width:1; stroke:black; " points="8,85 12,80 12,90 8,85 " class="clusterblast-orf" description="&lt;b&gt;AEA30246.1&lt;/b&gt;&lt;br&gt;putative cytosine/adenosine deaminase&lt;br&gt;Location: 1093 - 1572"  />
</g>
<g id="a1_003"  >
<polygon id="dummy-1_h1_10_3" locus_tag="AEA30247.1" style="fill:white; stroke-width:1; stroke:black; " points="14,85 19,80 24,80 24,90 19,90 14,85 " class="clusterblast-orf" description="&lt;b&gt;AEA30247.1&lt;/b&gt;&lt;br&gt;putative oxidoreductase&lt;br&gt;Location: 1723 - 2841"  />
</g>
<g id="a1_004"  >
<polygon id="dummy-1_h1_10_4" locus_tag="AEA30248.1" style="fill:white; stroke-width:1; stroke:black; " points="24,85 29,80 30,80 30,90 29,90 24,85 " class="clusterblast-orf" description="&lt;b&gt;AEA30248.1&lt;/b&gt;&lt;br&gt;putative isomerase&lt;br&gt;Location: 2843 - 3499"  />
</g>
<g id="a1_005"  >
<polygon id="dummy-1_h1_10_5" locus_tag="AEA30249.1" style="fill:white; stroke-width:1; stroke:black; " points="32,90 32,90 37,85 32,80 32,80 32,90 " class="clusterblast-orf" description="&lt;b&gt;AEA30249.1&lt;/b&gt;&lt;br&gt;putative N-acetyltransferase&lt;br&gt;Location: 3724 - 4341"  />
</g>
<g id="a1_006"  >
<polygon id="dummy-1_h1_10_6" locus_tag="AEA30250.1" style="fill:white; stroke-width:1; stroke:black; " points="37,85 41,80 41,90 37,85 " class="clusterblast-orf" description="&lt;b&gt;AEA30250.1&lt;/b&gt;&lt;br&gt;hypothetical protein&lt;br&gt;Location: 4330 - 4737"  />
</g>
<g id="a1_007"  >
<polygon id="dummy-1_h1_10_7" locus_tag="AEA30251.1" style="fill:white; stroke-width:1; stroke:black; " points="42,90 45,90 50,85 45,80 42,80 42,90 " class="clusterblast-orf" description="&lt;b&gt;AEA30251.1&lt;/b&gt;&lt;br&gt;putative DNA-binding protein&lt;br&gt;Location: 4894 - 5730"  />
</g>
<g id="a1_008"  >
<polygon id="dummy-1_h1_10_8" locus_tag="AEA30252.1" style="fill:white; stroke-width:1; stroke:black; " points="50,90 52,85 50,80 50,90 " class="clusterblast-orf" description="&lt;b&gt;AEA30252.1&lt;/b&gt;&lt;br&gt;hypothetical protein&lt;br&gt;Location: 5727 - 5963"  />
</g>
<g id="a1_009"  >
<polygon id="dummy-1_h1_10_9" locus_tag="AEA30253.1" style="fill:white; stroke-width:1; stroke:black; " points="53,90 61,90 66,85 61,80 53,80 53,90 " class="clusterblast-orf" description="&lt;b&gt;AEA30253.1&lt;/b&gt;&lt;br&gt;putative integrin-like protein&lt;br&gt;Location: 6119 - 7495"  />
</g>
<g id="a1_0010"  >
<polygon id="dummy-1_h1_10_10" locus_tag="AEA30254.1" style="fill:white; stroke-width:1; stroke:black; " points="68,85 73,80 82,80 82,90 73,90 68,85 " class="clusterblast-orf" description="&lt;b&gt;AEA30254.1&lt;/b&gt;&lt;br&gt;putative carboxyltransferase&lt;br&gt;Location: 7755 - 9338"  />
</g>
<g id="a1_0011"  >
<polygon id="dummy-1_h1_10_11" locus_tag="AEA30255.1" style="fill:white; stroke-width:1; stroke:black; " points="82,85 87,80 92,80 92,90 87,90 82,85 " class="clusterblast-orf" description="&lt;b&gt;AEA30255.1&lt;/b&gt;&lt;br&gt;putative isoprenyl diphosphate synthase&lt;br&gt;Location: 9332 - 10375"  />
</g>
<g id="a1_0012"  >
<polygon id="dummy-1_h1_10_12" locus_tag="AEA30256.1" style="fill:white; stroke-width:1; stroke:black; " points="97,90 101,90 106,85 101,80 97,80 97,90 " class="clusterblast-orf" description="&lt;b&gt;AEA30256.1&lt;/b&gt;&lt;br&gt;putative ACP-acyltransferase&lt;br&gt;Location: 11015 - 11932"  />
</g>
<g id="a1_0013"  >
<polygon id="dummy-1_h1_10_13" locus_tag="AEA30257.1" style="fill:white; stroke-width:1; stroke:black; " points="106,90 119,90 124,85 119,80 106,80 106,90 " class="clusterblast-orf" description="&lt;b&gt;AEA30257.1&lt;/b&gt;&lt;br&gt;putative ABC1-family protein kinase&lt;br&gt;Location: 11985 - 13949"  />
</g>
<g id="a1_0014"  >
<polygon id="dummy-1_h1_10_14" locus_tag="AEA30258.1" style="fill:#15d863; stroke-width:1; stroke:black; " points="125,85 127,80 127,90 125,85 " class="clusterblast-orf" description="&lt;b&gt;AEA30258.1&lt;/b&gt;&lt;br&gt;putative MbtH-like protein&lt;br&gt;Location: 14040 - 14261&lt;br&gt;&lt;br&gt;&lt;b&gt;BlastP hit with cds1445_1610&lt;/b&gt;&lt;br&gt;Percentage identity: 68&lt;br&gt;Percentage coverage: 98&lt;br&gt;BLAST bit score: 89&lt;br&gt;E-value: 1.8e-18"  />
</g>
<g id="a1_0015"  >
<polygon id="dummy-1_h1_10_15" locus_tag="AEA30259.1" style="fill:white; stroke-width:1; stroke:black; " points="130,90 133,85 130,80 130,90 " class="clusterblast-orf" description="&lt;b&gt;AEA30259.1&lt;/b&gt;&lt;br&gt;putative acyl carrier protein&lt;br&gt;Location: 14696 - 14950"  />
</g>
<g id="a1_0016"  >
<polygon id="dummy-1_h1_10_16" locus_tag="AEA30260.1" style="fill:white; stroke-width:1; stroke:black; " points="133,90 140,90 145,85 140,80 133,80 133,90 " class="clusterblast-orf" description="&lt;b&gt;AEA30260.1&lt;/b&gt;&lt;br&gt;putative 3-oxoacyl-ACP synthase II&lt;br&gt;Location: 15003 - 16259"  />
</g>
<g id="a1_0017"  >
<polygon id="dummy-1_h1_10_17" locus_tag="AEA30261.1" style="fill:white; stroke-width:1; stroke:black; " points="144,90 150,90 155,85 150,80 144,80 144,90 " class="clusterblast-orf" description="&lt;b&gt;AEA30261.1&lt;/b&gt;&lt;br&gt;putative 3-oxoacyl-ACP synthase II&lt;br&gt;Location: 16256 - 17389"  />
</g>
<g id="a1_0018"  >
<polygon id="dummy-1_h1_10_18" locus_tag="AEA30262.1" style="fill:white; stroke-width:1; stroke:black; " points="155,90 158,90 163,85 158,80 155,80 155,90 " class="clusterblast-orf" description="&lt;b&gt;AEA30262.1&lt;/b&gt;&lt;br&gt;putative 3-oxoacyl-ACP synthase I&lt;br&gt;Location: 17386 - 18348"  />
</g>
<g id="a1_0019"  >
<polygon id="dummy-1_h1_10_19" locus_tag="AEA30263.1" style="fill:white; stroke-width:1; stroke:black; " points="164,90 166,90 171,85 166,80 164,80 164,90 " class="clusterblast-orf" description="&lt;b&gt;AEA30263.1&lt;/b&gt;&lt;br&gt;putative hydrolase&lt;br&gt;Location: 18393 - 19211"  />
</g>
<g id="a1_0020"  >
<polygon id="dummy-1_h1_10_20" locus_tag="AEA30264.1" style="fill:white; stroke-width:1; stroke:black; " points="171,90 175,90 180,85 175,80 171,80 171,90 " class="clusterblast-orf" description="&lt;b&gt;AEA30264.1&lt;/b&gt;&lt;br&gt;putative thioesterase&lt;br&gt;Location: 19217 - 20257"  />
</g>
<g id="a1_0021"  >
<polygon id="dummy-1_h1_10_21" locus_tag="AEA30265.1" style="fill:white; stroke-width:1; stroke:black; " points="181,90 186,90 191,85 186,80 181,80 181,90 " class="clusterblast-orf" description="&lt;b&gt;AEA30265.1&lt;/b&gt;&lt;br&gt;putative 3-oxoacyl-ACP synthase I&lt;br&gt;Location: 20286 - 21389"  />
</g>
<g id="a1_0022"  >
<polygon id="dummy-1_h1_10_22" locus_tag="AEA30266.1" style="fill:white; stroke-width:1; stroke:black; " points="191,90 193,85 191,80 191,90 " class="clusterblast-orf" description="&lt;b&gt;AEA30266.1&lt;/b&gt;&lt;br&gt;putative acyl carrier protein&lt;br&gt;Location: 21449 - 21697"  />
</g>
<g id="a1_0023"  >
<polygon id="dummy-1_h1_10_23" locus_tag="AEA30267.1" style="fill:white; stroke-width:1; stroke:black; " points="194,90 197,85 194,80 194,90 " class="clusterblast-orf" description="&lt;b&gt;AEA30267.1&lt;/b&gt;&lt;br&gt;putative dehydratase&lt;br&gt;Location: 21751 - 22140"  />
</g>
<g id="a1_0024"  >
<polygon id="dummy-1_h1_10_24" locus_tag="AEA30268.1" style="fill:white; stroke-width:1; stroke:black; " points="197,90 197,90 202,85 197,80 197,80 197,90 " class="clusterblast-orf" description="&lt;b&gt;AEA30268.1&lt;/b&gt;&lt;br&gt;putative 3-hydroxyacyl-ACP dehydratase&lt;br&gt;Location: 22137 - 22625"  />
</g>
<g id="a1_0025"  >
<polygon id="dummy-1_h1_10_25" locus_tag="AEA30269.1" style="fill:white; stroke-width:1; stroke:black; " points="202,90 204,90 209,85 204,80 202,80 202,90 " class="clusterblast-orf" description="&lt;b&gt;AEA30269.1&lt;/b&gt;&lt;br&gt;putative 3-oxoacyl-ACP reductase&lt;br&gt;Location: 22647 - 23393"  />
</g>
<g id="a1_0026"  >
<polygon id="dummy-1_h1_10_26" locus_tag="AEA30270.1" style="fill:white; stroke-width:1; stroke:black; " points="209,90 210,90 215,85 210,80 209,80 209,90 " class="clusterblast-orf" description="&lt;b&gt;AEA30270.1&lt;/b&gt;&lt;br&gt;putative isomerase&lt;br&gt;Location: 23435 - 24145"  />
</g>
<g id="a1_0027"  >
<polygon id="dummy-1_h1_10_27" locus_tag="AEA30271.1" style="fill:white; stroke-width:1; stroke:black; " points="216,90 226,90 231,85 226,80 216,80 216,90 " class="clusterblast-orf" description="&lt;b&gt;AEA30271.1&lt;/b&gt;&lt;br&gt;putative oxidoreductase&lt;br&gt;Location: 24243 - 25910"  />
</g>
<g id="a1_0028"  >
<polygon id="dummy-1_h1_10_28" locus_tag="AEA30272.1" style="fill:#b115d8; stroke-width:1; stroke:black; " points="233,90 356,90 361,85 356,80 233,80 233,90 " class="clusterblast-orf" description="&lt;b&gt;AEA30272.1&lt;/b&gt;&lt;br&gt;peptide synthetase&lt;br&gt;Location: 26089 - 40332&lt;br&gt;&lt;br&gt;&lt;b&gt;BlastP hit with cds6746_7190&lt;/b&gt;&lt;br&gt;Percentage identity: 57&lt;br&gt;Percentage coverage: 43&lt;br&gt;BLAST bit score: 54&lt;br&gt;E-value: 1.3e-07&lt;br&gt;&lt;br&gt;&lt;b&gt;BlastP hit with cds11113_11608&lt;/b&gt;&lt;br&gt;Percentage identity: 55&lt;br&gt;Percentage coverage: 95&lt;br&gt;BLAST bit score: 166&lt;br&gt;E-value: 2.7e-41&lt;br&gt;&lt;br&gt;&lt;b&gt;BlastP hit with cds15146_15863&lt;/b&gt;&lt;br&gt;Percentage identity: 59&lt;br&gt;Percentage coverage: 45&lt;br&gt;BLAST bit score: 127&lt;br&gt;E-value: 3.4e-29"  />
</g>
<g id="a1_0029"  >
<polygon id="dummy-1_h1_10_29" locus_tag="AEA30273.1" style="fill:#b115d8; stroke-width:1; stroke:black; " points="361,90 484,90 489,85 484,80 361,80 361,90 " class="clusterblast-orf" description="&lt;b&gt;AEA30273.1&lt;/b&gt;&lt;br&gt;peptide synthetase&lt;br&gt;Location: 40329 - 54515&lt;br&gt;&lt;br&gt;&lt;b&gt;BlastP hit with cds5678_6653&lt;/b&gt;&lt;br&gt;Percentage identity: 56&lt;br&gt;Percentage coverage: 66&lt;br&gt;BLAST bit score: 225&lt;br&gt;E-value: 9.6e-59&lt;br&gt;&lt;br&gt;&lt;b&gt;BlastP hit with cds6746_7190&lt;/b&gt;&lt;br&gt;Percentage identity: 48&lt;br&gt;Percentage coverage: 61&lt;br&gt;BLAST bit score: 66&lt;br&gt;E-value: 4.4e-11&lt;br&gt;&lt;br&gt;&lt;b&gt;BlastP hit with cds11113_11608&lt;/b&gt;&lt;br&gt;Percentage identity: 56&lt;br&gt;Percentage coverage: 91&lt;br&gt;BLAST bit score: 168&lt;br&gt;E-value: 1.2e-41&lt;br&gt;&lt;br&gt;&lt;b&gt;BlastP hit with cds15146_15863&lt;/b&gt;&lt;br&gt;Percentage identity: 60&lt;br&gt;Percentage coverage: 42&lt;br&gt;BLAST bit score: 129&lt;br&gt;E-value: 6.9e-30"  />
</g>
<g id="a1_0030"  >
<polygon id="dummy-1_h1_10_30" locus_tag="AEA30274.1" style="fill:#b115d8; stroke-width:1; stroke:black; " points="489,90 589,90 594,85 589,80 489,80 489,90 " class="clusterblast-orf" description="&lt;b&gt;AEA30274.1&lt;/b&gt;&lt;br&gt;peptide synthetase&lt;br&gt;Location: 54509 - 66241&lt;br&gt;&lt;br&gt;&lt;b&gt;BlastP hit with cds11113_11608&lt;/b&gt;&lt;br&gt;Percentage identity: 48&lt;br&gt;Percentage coverage: 90&lt;br&gt;BLAST bit score: 133&lt;br&gt;E-value: 3.3e-31&lt;br&gt;&lt;br&gt;&lt;b&gt;BlastP hit with cds15146_15863&lt;/b&gt;&lt;br&gt;Percentage identity: 57&lt;br&gt;Percentage coverage: 42&lt;br&gt;BLAST bit score: 118&lt;br&gt;E-value: 1.2e-26"  />
</g>
<g id="a1_0031"  >
<polygon id="dummy-1_h1_10_31" locus_tag="AEA30275.1" style="fill:white; stroke-width:1; stroke:black; " points="595,90 601,90 606,85 601,80 595,80 595,90 " class="clusterblast-orf" description="&lt;b&gt;AEA30275.1&lt;/b&gt;&lt;br&gt;P450 monooxygenase&lt;br&gt;Location: 66281 - 67552"  />
</g>
<g id="a1_0032"  >
<polygon id="dummy-1_h1_10_32" locus_tag="AEA30276.1" style="fill:white; stroke-width:1; stroke:black; " points="606,90 608,90 613,85 608,80 606,80 606,90 " class="clusterblast-orf" description="&lt;b&gt;AEA30276.1&lt;/b&gt;&lt;br&gt;putative type II thioesterase&lt;br&gt;Location: 67549 - 68322"  />
</g>
<g id="a1_0033"  >
<polygon id="dummy-1_h1_10_33" locus_tag="AEA30277.1" style="fill:white; stroke-width:1; stroke:black; " points="613,85 618,80 618,80 618,90 618,90 613,85 " class="clusterblast-orf" description="&lt;b&gt;AEA30277.1&lt;/b&gt;&lt;br&gt;hypothetical protein&lt;br&gt;Location: 68342 - 68863"  />
</g>
<g id="a1_0034"  >
<polygon id="dummy-1_h1_10_34" locus_tag="AEA30278.1" style="fill:white; stroke-width:1; stroke:black; " points="622,90 625,90 630,85 625,80 622,80 622,90 " class="clusterblast-orf" description="&lt;b&gt;AEA30278.1&lt;/b&gt;&lt;br&gt;putative ABC transporter&lt;br&gt;Location: 69263 - 70240"  />
</g>
<g id="a1_0035"  >
<polygon id="dummy-1_h1_10_35" locus_tag="AEA30279.1" style="fill:white; stroke-width:1; stroke:black; " points="630,90 632,90 637,85 632,80 630,80 630,90 " class="clusterblast-orf" description="&lt;b&gt;AEA30279.1&lt;/b&gt;&lt;br&gt;putative ABC transporter&lt;br&gt;Location: 70237 - 71025"  />
</g>
<g id="a1_0036"  >
<polygon id="dummy-1_h1_10_36" locus_tag="AEA30280.1" style="fill:white; stroke-width:1; stroke:black; " points="639,90 643,90 648,85 643,80 639,80 639,90 " class="clusterblast-orf" description="&lt;b&gt;AEA30280.1&lt;/b&gt;&lt;br&gt;O-methyltransferase&lt;br&gt;Location: 71195 - 72223"  />
</g>
<g id="a1_0037"  >
<polygon id="dummy-1_h1_10_37" locus_tag="AEA30281.1" style="fill:white; stroke-width:1; stroke:black; " points="648,90 651,90 656,85 651,80 648,80 648,90 " class="clusterblast-orf" description="&lt;b&gt;AEA30281.1&lt;/b&gt;&lt;br&gt;putative ABC transporter&lt;br&gt;Location: 72237 - 73031"  />
</g>
<g id="a1_0038"  >
<polygon id="dummy-1_h1_10_38" locus_tag="AEA30282.1" style="fill:white; stroke-width:1; stroke:black; " points="656,90 661,90 666,85 661,80 656,80 656,90 " class="clusterblast-orf" description="&lt;b&gt;AEA30282.1&lt;/b&gt;&lt;br&gt;flavin-dependent monooxygenase&lt;br&gt;Location: 73116 - 74186"  />
</g>
<g id="a1_0039"  >
<polygon id="dummy-1_h1_10_39" locus_tag="AEA30283.1" style="fill:white; stroke-width:1; stroke:black; " points="666,90 666,90 671,85 666,80 666,80 666,90 " class="clusterblast-orf" description="&lt;b&gt;AEA30283.1&lt;/b&gt;&lt;br&gt;putative flavin reductase&lt;br&gt;Location: 74223 - 74789"  />
</g>
<g id="a1_0040"  >
<polygon id="dummy-1_h1_10_40" locus_tag="AEA30284.1" style="fill:white; stroke-width:1; stroke:black; " points="672,85 677,80 684,80 684,90 677,90 672,85 " class="clusterblast-orf" description="&lt;b&gt;AEA30284.1&lt;/b&gt;&lt;br&gt;glutamate mutase subunit B&lt;br&gt;Location: 74880 - 76196"  />
</g>
<g id="a1_0041"  >
<polygon id="dummy-1_h1_10_41" locus_tag="AEA30285.1" style="fill:white; stroke-width:1; stroke:black; " points="684,85 688,80 688,90 684,85 " class="clusterblast-orf" description="&lt;b&gt;AEA30285.1&lt;/b&gt;&lt;br&gt;glutamate mutase subunit A&lt;br&gt;Location: 76193 - 76663"  />
</g>
<g id="a1_0042"  >
<polygon id="dummy-1_h1_10_42" locus_tag="AEA30286.1" style="fill:white; stroke-width:1; stroke:black; " points="694,85 699,80 701,80 701,90 699,90 694,85 " class="clusterblast-orf" description="&lt;b&gt;AEA30286.1&lt;/b&gt;&lt;br&gt;putative IclR-family transcriptional regulator&lt;br&gt;Location: 77324 - 78055"  />
</g>
<g id="a1_0043"  >
<polygon id="dummy-1_h1_10_43" locus_tag="AEA30287.1" style="fill:white; stroke-width:1; stroke:black; " points="707,85 712,80 724,80 724,90 712,90 707,85 " class="clusterblast-orf" description="&lt;b&gt;AEA30287.1&lt;/b&gt;&lt;br&gt;putative AfsR-like transcriptional regulator&lt;br&gt;Location: 78748 - 80688"  />
</g>
<g id="a1_0044"  >
<polygon id="dummy-1_h1_10_44" locus_tag="AEA30288.1" style="fill:white; stroke-width:1; stroke:black; " points="725,85 730,80 731,80 731,90 730,90 725,85 " class="clusterblast-orf" description="&lt;b&gt;AEA30288.1&lt;/b&gt;&lt;br&gt;putative IclR-family transcriptional regulator&lt;br&gt;Location: 80717 - 81394"  />
</g>
<g id="a1_0045"  >
<polygon id="dummy-1_h1_10_45" locus_tag="AEA30289.1" style="fill:white; stroke-width:1; stroke:black; " points="735,85 740,80 742,80 742,90 740,90 735,85 " class="clusterblast-orf" description="&lt;b&gt;AEA30289.1&lt;/b&gt;&lt;br&gt;putative LuxR-family transcriptional regulator&lt;br&gt;Location: 81812 - 82651"  />
</g>
<g id="a1_0046"  >
<polygon id="dummy-1_h1_10_46" locus_tag="AEA30290.1" style="fill:white; stroke-width:1; stroke:black; " points="743,85 748,80 751,80 751,90 748,90 743,85 " class="clusterblast-orf" description="&lt;b&gt;AEA30290.1&lt;/b&gt;&lt;br&gt;putative LuxR-family transcriptional regulator&lt;br&gt;Location: 82799 - 83590"  />
</g>
<g id="a1_0047"  >
<polygon id="dummy-1_h1_10_47" locus_tag="AEA30291.1" style="fill:white; stroke-width:1; stroke:black; " points="761,85 766,80 771,80 771,90 766,90 761,85 " class="clusterblast-orf" description="&lt;b&gt;AEA30291.1&lt;/b&gt;&lt;br&gt;putative DNA-binding protein&lt;br&gt;Location: 84713 - 85858"  />
</g>
<g id="a1_0048"  >
<polygon id="dummy-1_h1_10_48" locus_tag="AEA30292.1" style="fill:white; stroke-width:1; stroke:black; " points="777,90 780,85 777,80 777,90 " class="clusterblast-orf" description="&lt;b&gt;AEA30292.1&lt;/b&gt;&lt;br&gt;putative DNA polymerase III&lt;br&gt;Location: 86556 - 86806"  />
</g>
</svg>
