<svg xmlns:xlink="http://www.w3.org/1999/xlink" width="800" preserveAspectRatio="none" y="0" viewBox="0 0 800 100" xmlns="http://www.w3.org/2000/svg" height="100" version="1.1" x="0"  >
<g label="Query sequence" class="clusterblast-cluster"  >
<text y="20" class="clusterblast-acc" x="5"  >
Query sequence</text>
<line x1="10" y2="35" style="stroke-width:1; stroke:grey; " y1="35" x2="778.0"  />
<polygon id="subclusterblast-1_q0_0_all" locus_tag="cds180_1686" style="fill:white; stroke-width:1; stroke:black; " points="6,40 42,40 47,35 42,30 6,30 6,40 " class="clusterblast-orf" description="&lt;b&gt;cds180_1686&lt;/b&gt;&lt;br&gt;Polyketide synthase modules and related proteins&lt;br&gt;Location: 180 - 1686"  />
<polygon id="subclusterblast-1_q1_0_all" locus_tag="cds1743_2376" style="fill:white; stroke-width:1; stroke:black; " points="48,40 60,40 65,35 60,30 48,30 48,40 " class="clusterblast-orf" description="&lt;b&gt;cds1743_2376&lt;/b&gt;&lt;br&gt;Tryptophan 2,3-dioxygenase (EC 1.13.11.11)&lt;br&gt;Location: 1743 - 2376"  />
<polygon id="subclusterblast-1_q2_0_all" locus_tag="cds2380_3280" style="fill:#d81515; stroke-width:1; stroke:black; " points="66,40 85,40 90,35 85,30 66,30 66,40 " class="clusterblast-orf" description="&lt;b&gt;cds2380_3280&lt;/b&gt;&lt;br&gt;hypothetical protein&lt;br&gt;Location: 2380 - 3280"  />
<polygon id="subclusterblast-1_q3_0_all" locus_tag="cds3276_4134" style="fill:#15d815; stroke-width:1; stroke:black; " points="90,40 108,40 113,35 108,30 90,30 90,40 " class="clusterblast-orf" description="&lt;b&gt;cds3276_4134&lt;/b&gt;&lt;br&gt;Tryptophan 2,3-dioxygenase (EC 1.13.11.11)&lt;br&gt;Location: 3276 - 4134"  />
<polygon id="subclusterblast-1_q4_0_all" locus_tag="cds4189_5452" style="fill:#1515d8; stroke-width:1; stroke:black; " points="114,40 143,40 148,35 143,30 114,30 114,40 " class="clusterblast-orf" description="&lt;b&gt;cds4189_5452&lt;/b&gt;&lt;br&gt;Kynureninase (EC 3.7.1.3)&lt;br&gt;Location: 4189 - 5452"  />
<polygon id="subclusterblast-1_q5_0_all" locus_tag="cds5518_6562" style="fill:white; stroke-width:1; stroke:black; " points="150,40 173,40 178,35 173,30 150,30 150,40 " class="clusterblast-orf" description="&lt;b&gt;cds5518_6562&lt;/b&gt;&lt;br&gt;hypothetical protein&lt;br&gt;Location: 5518 - 6562"  />
<polygon id="subclusterblast-1_q6_0_all" locus_tag="cds6558_7866" style="fill:white; stroke-width:1; stroke:black; " points="178,40 208,40 213,35 208,30 178,30 178,40 " class="clusterblast-orf" description="&lt;b&gt;cds6558_7866&lt;/b&gt;&lt;br&gt;Putative cytochrome P450 hydroxylase&lt;br&gt;Location: 6558 - 7866"  />
<polygon id="subclusterblast-1_q7_0_all" locus_tag="cds7935_8127" style="fill:white; stroke-width:1; stroke:black; " points="215,35 220,30 220,30 220,40 220,40 215,35 " class="clusterblast-orf" description="&lt;b&gt;cds7935_8127&lt;/b&gt;&lt;br&gt;Ferredoxin&lt;br&gt;Location: 7935 - 8127"  />
<polygon id="subclusterblast-1_q8_0_all" locus_tag="cds8170_8821" style="fill:white; stroke-width:1; stroke:black; " points="221,35 226,30 239,30 239,40 226,40 221,35 " class="clusterblast-orf" description="&lt;b&gt;cds8170_8821&lt;/b&gt;&lt;br&gt;hypothetical protein&lt;br&gt;Location: 8170 - 8821"  />
<polygon id="subclusterblast-1_q9_0_all" locus_tag="cds9002_9809" style="fill:white; stroke-width:1; stroke:black; " points="244,35 249,30 265,30 265,40 249,40 244,35 " class="clusterblast-orf" description="&lt;b&gt;cds9002_9809&lt;/b&gt;&lt;br&gt;Transcriptional regulator, AcrR family&lt;br&gt;Location: 9002 - 9809"  />
<polygon id="subclusterblast-1_q10_0_all" locus_tag="cds9961_10831" style="fill:white; stroke-width:1; stroke:black; " points="269,40 288,40 293,35 288,30 269,30 269,40 " class="clusterblast-orf" description="&lt;b&gt;cds9961_10831&lt;/b&gt;&lt;br&gt;hypothetical protein&lt;br&gt;Location: 9961 - 10831"  />
<polygon id="subclusterblast-1_q11_0_all" locus_tag="cds10908_11892" style="fill:white; stroke-width:1; stroke:black; " points="295,40 316,40 321,35 316,30 295,30 295,40 " class="clusterblast-orf" description="&lt;b&gt;cds10908_11892&lt;/b&gt;&lt;br&gt;Efflux ABC transporter, ATP-binding protein&lt;br&gt;Location: 10908 - 11892"  />
<polygon id="subclusterblast-1_q12_0_all" locus_tag="cds11881_12649" style="fill:white; stroke-width:1; stroke:black; " points="321,40 337,40 342,35 337,30 321,30 321,40 " class="clusterblast-orf" description="&lt;b&gt;cds11881_12649&lt;/b&gt;&lt;br&gt;Efflux ABC transporter, permease protein&lt;br&gt;Location: 11881 - 12649"  />
<polygon id="subclusterblast-1_q13_0_all" locus_tag="cds12747_15009" style="fill:white; stroke-width:1; stroke:black; " points="344,40 400,40 405,35 400,30 344,30 344,40 " class="clusterblast-orf" description="&lt;b&gt;cds12747_15009&lt;/b&gt;&lt;br&gt;Excinuclease ABC subunit A paralog of unknown function&lt;br&gt;Location: 12747 - 15009"  />
<polygon id="subclusterblast-1_q14_0_all" locus_tag="cds15049_15172" style="fill:white; stroke-width:1; stroke:black; " points="406,35 410,30 410,40 406,35 " class="clusterblast-orf" description="&lt;b&gt;cds15049_15172&lt;/b&gt;&lt;br&gt;hypothetical protein&lt;br&gt;Location: 15049 - 15172"  />
<polygon id="subclusterblast-1_q15_0_all" locus_tag="cds15537_15813" style="fill:white; stroke-width:1; stroke:black; " points="419,35 424,30 427,30 427,40 424,40 419,35 " class="clusterblast-orf" description="&lt;b&gt;cds15537_15813&lt;/b&gt;&lt;br&gt;hypothetical protein&lt;br&gt;Location: 15537 - 15813"  />
<polygon id="subclusterblast-1_q16_0_all" locus_tag="cds15813_16158" style="fill:white; stroke-width:1; stroke:black; " points="427,35 432,30 436,30 436,40 432,40 427,35 " class="clusterblast-orf" description="&lt;b&gt;cds15813_16158&lt;/b&gt;&lt;br&gt;hypothetical protein&lt;br&gt;Location: 15813 - 16158"  />
<polygon id="subclusterblast-1_q17_0_all" locus_tag="cds16176_16653" style="fill:white; stroke-width:1; stroke:black; " points="437,35 442,30 449,30 449,40 442,40 437,35 " class="clusterblast-orf" description="&lt;b&gt;cds16176_16653&lt;/b&gt;&lt;br&gt;hypothetical protein&lt;br&gt;Location: 16176 - 16653"  />
<polygon id="subclusterblast-1_q18_0_all" locus_tag="cds16795_18097" style="fill:white; stroke-width:1; stroke:black; " points="453,35 458,30 488,30 488,40 458,40 453,35 " class="clusterblast-orf" description="&lt;b&gt;cds16795_18097&lt;/b&gt;&lt;br&gt;hypothetical protein&lt;br&gt;Location: 16795 - 18097"  />
<polygon id="subclusterblast-1_q19_0_all" locus_tag="cds18154_19003" style="fill:white; stroke-width:1; stroke:black; " points="490,35 495,30 513,30 513,40 495,40 490,35 " class="clusterblast-orf" description="&lt;b&gt;cds18154_19003&lt;/b&gt;&lt;br&gt;FIG100068: Hypothetical protein&lt;br&gt;Location: 18154 - 19003"  />
<polygon id="subclusterblast-1_q20_0_all" locus_tag="cds19024_19351" style="fill:white; stroke-width:1; stroke:black; " points="513,40 517,40 522,35 517,30 513,30 513,40 " class="clusterblast-orf" description="&lt;b&gt;cds19024_19351&lt;/b&gt;&lt;br&gt;hypothetical protein&lt;br&gt;Location: 19024 - 19351"  />
<polygon id="subclusterblast-1_q21_0_all" locus_tag="cds19460_21677" style="fill:white; stroke-width:1; stroke:black; " points="525,35 530,30 584,30 584,40 530,40 525,35 " class="clusterblast-orf" description="&lt;b&gt;cds19460_21677&lt;/b&gt;&lt;br&gt;FIG100068: Hypothetical protein&lt;br&gt;Location: 19460 - 21677"  />
<polygon id="subclusterblast-1_q22_0_all" locus_tag="cds21708_23433" style="fill:white; stroke-width:1; stroke:black; " points="585,35 590,30 632,30 632,40 590,40 585,35 " class="clusterblast-orf" description="&lt;b&gt;cds21708_23433&lt;/b&gt;&lt;br&gt;FIG100068: Hypothetical protein&lt;br&gt;Location: 21708 - 23433"  />
<polygon id="subclusterblast-1_q23_0_all" locus_tag="cds23470_23905" style="fill:white; stroke-width:1; stroke:black; " points="633,35 638,30 644,30 644,40 638,40 633,35 " class="clusterblast-orf" description="&lt;b&gt;cds23470_23905&lt;/b&gt;&lt;br&gt;FIG098404: Hypothetical protein&lt;br&gt;Location: 23470 - 23905"  />
<polygon id="subclusterblast-1_q24_0_all" locus_tag="cds24084_25020" style="fill:white; stroke-width:1; stroke:black; " points="649,35 654,30 674,30 674,40 654,40 649,35 " class="clusterblast-orf" description="&lt;b&gt;cds24084_25020&lt;/b&gt;&lt;br&gt;FIG098404: Hypothetical protein&lt;br&gt;Location: 24084 - 25020"  />
<polygon id="subclusterblast-1_q25_0_all" locus_tag="cds25453_25810" style="fill:white; stroke-width:1; stroke:black; " points="686,35 691,30 696,30 696,40 691,40 686,35 " class="clusterblast-orf" description="&lt;b&gt;cds25453_25810&lt;/b&gt;&lt;br&gt;hypothetical protein&lt;br&gt;Location: 25453 - 25810"  />
<polygon id="subclusterblast-1_q26_0_all" locus_tag="cds25902_26094" style="fill:white; stroke-width:1; stroke:black; " points="698,35 703,30 703,30 703,40 703,40 698,35 " class="clusterblast-orf" description="&lt;b&gt;cds25902_26094&lt;/b&gt;&lt;br&gt;hypothetical protein&lt;br&gt;Location: 25902 - 26094"  />
<polygon id="subclusterblast-1_q27_0_all" locus_tag="cds26399_26525" style="fill:white; stroke-width:1; stroke:black; " points="711,40 715,35 711,30 711,40 " class="clusterblast-orf" description="&lt;b&gt;cds26399_26525&lt;/b&gt;&lt;br&gt;UDP-N-acetylmuramoylalanyl-D-glutamate--2,6- diaminopimelate ligase (EC 6.3.2.13)&lt;br&gt;Location: 26399 - 26525"  />
<polygon id="subclusterblast-1_q28_0_all" locus_tag="cds26521_27697" style="fill:white; stroke-width:1; stroke:black; " points="715,40 741,40 746,35 741,30 715,30 715,40 " class="clusterblast-orf" description="&lt;b&gt;cds26521_27697&lt;/b&gt;&lt;br&gt;UDP-N-acetylmuramoyl-dipeptide--2,6- diaminopimelate ligase (EC 6.3.2.13)&lt;br&gt;Location: 26521 - 27697"  />
<polygon id="subclusterblast-1_q29_0_all" locus_tag="cds27728_27902" style="fill:white; stroke-width:1; stroke:black; " points="747,40 747,40 752,35 747,30 747,30 747,40 " class="clusterblast-orf" description="&lt;b&gt;cds27728_27902&lt;/b&gt;&lt;br&gt;UDP-N-acetylmuramoyl-dipeptide--2,6- diaminopimelate ligase (EC 6.3.2.13)&lt;br&gt;Location: 27728 - 27902"  />
<polygon id="subclusterblast-1_q30_0_all" locus_tag="cds28173_28506" style="fill:white; stroke-width:1; stroke:black; " points="759,40 763,40 768,35 763,30 759,30 759,40 " class="clusterblast-orf" description="&lt;b&gt;cds28173_28506&lt;/b&gt;&lt;br&gt;hypothetical protein&lt;br&gt;Location: 28173 - 28506"  />
<polygon id="subclusterblast-1_q31_0_all" locus_tag="cds28502_28691" style="fill:white; stroke-width:1; stroke:black; " points="768,40 768,40 773,35 768,30 768,30 768,40 " class="clusterblast-orf" description="&lt;b&gt;cds28502_28691&lt;/b&gt;&lt;br&gt;hypothetical protein&lt;br&gt;Location: 28502 - 28691"  />
</g>
<g label="HM038106" description="HM038106_c1: actinomycin 4-methyl-3-hydroxyanthranilic acid (100% of genes show similarity), 4-MHA" class="clusterblast-cluster"  >
<text y="70" class="clusterblast-acc" x="5"  >
HM038106_c1: actinomycin 4-methyl-3-hydroxyanthranilic acid (100% of genes show similarity), 4-MHA</text>
<line x1="10" y2="85" style="stroke-width:1; stroke:grey; " y1="85" x2="778.0"  />
</g>
<g id="a1_000"  >
<polygon id="subclusterblast-1_all_1_1_0" locus_tag="HM038106_1_acmK" style="fill:#1515d8; stroke-width:1; stroke:black; " points="0,85 5,80 24,80 24,90 5,90 0,85 " class="clusterblast-orf" description="&lt;b&gt;HM038106_1_acmK&lt;/b&gt;&lt;br&gt;kynureninase&lt;br&gt;Location: 10548 - 11447&lt;br&gt;&lt;br&gt;&lt;b&gt;BlastP hit with cds4189_5452&lt;/b&gt;&lt;br&gt;Percentage identity: 77&lt;br&gt;Percentage coverage: 71&lt;br&gt;BLAST bit score: 438&lt;br&gt;E-value: 4.59e-156"  />
</g>
<g id="a1_001"  >
<polygon id="subclusterblast-1_all_1_1_1" locus_tag="HM038106_1_acmF" style="fill:#d81515; stroke-width:1; stroke:black; " points="697,90 716,90 721,85 716,80 697,80 697,90 " class="clusterblast-orf" description="&lt;b&gt;HM038106_1_acmF&lt;/b&gt;&lt;br&gt;aryl formamidase&lt;br&gt;Location: 36480 - 37394&lt;br&gt;&lt;br&gt;&lt;b&gt;BlastP hit with cds2380_3280&lt;/b&gt;&lt;br&gt;Percentage identity: 78&lt;br&gt;Percentage coverage: 95&lt;br&gt;BLAST bit score: 372&lt;br&gt;E-value: 3.7e-132"  />
</g>
<g id="a1_002"  >
<polygon id="subclusterblast-1_all_1_1_2" locus_tag="HM038106_1_acmG" style="fill:#15d815; stroke-width:1; stroke:black; " points="721,90 739,90 744,85 739,80 721,80 721,90 " class="clusterblast-orf" description="&lt;b&gt;HM038106_1_acmG&lt;/b&gt;&lt;br&gt;tryptophan 2,3-dioxygenase&lt;br&gt;Location: 37391 - 38233&lt;br&gt;&lt;br&gt;&lt;b&gt;BlastP hit with cds3276_4134&lt;/b&gt;&lt;br&gt;Percentage identity: 75&lt;br&gt;Percentage coverage: 100&lt;br&gt;BLAST bit score: 420&lt;br&gt;E-value: 1.73e-151"  />
</g>
<g id="a1_003"  >
<polygon id="subclusterblast-1_all_1_1_3" locus_tag="HM038106_1_acmH" style="fill:#1515d8; stroke-width:1; stroke:black; " points="746,90 775,90 780,85 775,80 746,80 746,90 " class="clusterblast-orf" description="&lt;b&gt;HM038106_1_acmH&lt;/b&gt;&lt;br&gt;kynureninase&lt;br&gt;Location: 38294 - 39556&lt;br&gt;&lt;br&gt;&lt;b&gt;BlastP hit with cds4189_5452&lt;/b&gt;&lt;br&gt;Percentage identity: 80&lt;br&gt;Percentage coverage: 100&lt;br&gt;BLAST bit score: 635&lt;br&gt;E-value: 0.0"  />
</g>
</svg>
