<svg y="0" preserveAspectRatio="none" viewBox="0 0 800 230" xmlns="http://www.w3.org/2000/svg" xmlns:xlink="http://www.w3.org/1999/xlink" version="1.1" x="0" width="800" height="230"  >
<g class="clusterblast-cluster" label="Query sequence"  >
<text y="20" class="clusterblast-acc" x="5"  >
Query sequence</text>
<line y1="35" y2="35" x2="778.0" style="stroke-width:1; stroke:grey; " x1="10"  />
<polygon class="clusterblast-orf" id="dummy-1_q0_0_all" style="stroke-width:1; stroke:black; fill:white; " points="117,35 118,30 118,40 117,35 " description="&lt;b&gt;cds2_86&lt;/b&gt;&lt;br&gt;hypothetical protein&lt;br&gt;Location: 2 - 86" locus_tag="cds2_86"  />
<polygon class="clusterblast-orf" id="dummy-1_q1_0_all" style="stroke-width:1; stroke:black; fill:#d81515; " points="118,35 123,30 127,30 127,40 123,40 118,35 " description="&lt;b&gt;cds82_1111&lt;/b&gt;&lt;br&gt;AcrA1&lt;br&gt;Location: 82 - 1111" locus_tag="cds82_1111"  />
<polygon class="clusterblast-orf" id="dummy-1_q2_0_all" style="stroke-width:1; stroke:black; fill:#77d815; " points="129,40 130,40 135,35 130,30 129,30 129,40 " description="&lt;b&gt;cds1287_1950&lt;/b&gt;&lt;br&gt;hypothetical protein&lt;br&gt;Location: 1287 - 1950" locus_tag="cds1287_1950"  />
<polygon class="clusterblast-orf" id="dummy-1_q3_0_all" style="stroke-width:1; stroke:black; fill:#15d8d8; " points="135,35 140,30 143,30 143,40 140,40 135,35 " description="&lt;b&gt;cds1970_2834&lt;/b&gt;&lt;br&gt;ABC transporter, permease protein&lt;br&gt;Location: 1970 - 2834" locus_tag="cds1970_2834"  />
<polygon class="clusterblast-orf" id="dummy-1_q4_0_all" style="stroke-width:1; stroke:black; fill:#7715d8; " points="143,35 148,30 150,30 150,40 148,40 143,35 " description="&lt;b&gt;cds2830_3646&lt;/b&gt;&lt;br&gt;ABC transporter, permease protein&lt;br&gt;Location: 2830 - 3646" locus_tag="cds2830_3646"  />
<polygon class="clusterblast-orf" id="dummy-1_q5_0_all" style="stroke-width:1; stroke:black; fill:#d83a15; " points="150,35 155,30 159,30 159,40 155,40 150,35 " description="&lt;b&gt;cds3642_4638&lt;/b&gt;&lt;br&gt;Efflux ABC transporter, ATP-binding protein&lt;br&gt;Location: 3642 - 4638" locus_tag="cds3642_4638"  />
<polygon class="clusterblast-orf" id="dummy-1_q6_0_all" style="stroke-width:1; stroke:black; fill:#52d815; " points="161,40 169,40 174,35 169,30 161,30 161,40 " description="&lt;b&gt;cds4922_6398&lt;/b&gt;&lt;br&gt;putative aldehyde dehydrogenase&lt;br&gt;Location: 4922 - 6398" locus_tag="cds4922_6398"  />
<polygon class="clusterblast-orf" id="dummy-1_q7_0_all" style="stroke-width:1; stroke:black; fill:#15b4d8; " points="174,35 179,30 185,30 185,40 179,40 174,35 " description="&lt;b&gt;cds6409_7651&lt;/b&gt;&lt;br&gt;Transcriptional regulator, AcrR family / Transcriptional regulator, AcrR family&lt;br&gt;Location: 6409 - 7651" locus_tag="cds6409_7651"  />
<polygon class="clusterblast-orf" id="dummy-1_q8_0_all" style="stroke-width:1; stroke:black; fill:#9b15d8; " points="186,40 188,40 193,35 188,30 186,30 186,40 " description="&lt;b&gt;cds7791_8586&lt;/b&gt;&lt;br&gt;Probable enoyl-CoA hydratase paaG (EC 4.2.1.17)&lt;br&gt;Location: 7791 - 8586" locus_tag="cds7791_8586"  />
<polygon class="clusterblast-orf" id="dummy-1_q9_0_all" style="stroke-width:1; stroke:black; fill:#d85e15; " points="194,35 198,30 198,40 194,35 " description="&lt;b&gt;cds8697_9069&lt;/b&gt;&lt;br&gt;Transcriptional regulator, MerR family&lt;br&gt;Location: 8697 - 9069" locus_tag="cds8697_9069"  />
<polygon class="clusterblast-orf" id="dummy-1_q10_0_all" style="stroke-width:1; stroke:black; fill:#2ed815; " points="198,40 201,40 206,35 201,30 198,30 198,40 " description="&lt;b&gt;cds9128_10010&lt;/b&gt;&lt;br&gt;Polysaccharide deacetylase family protein&lt;br&gt;Location: 9128 - 10010" locus_tag="cds9128_10010"  />
<polygon class="clusterblast-orf" id="dummy-1_q11_0_all" style="stroke-width:1; stroke:black; fill:#158fd8; " points="207,35 212,30 218,30 218,40 212,40 207,35 " description="&lt;b&gt;cds10112_11351&lt;/b&gt;&lt;br&gt;Manganese transport protein MntH&lt;br&gt;Location: 10112 - 11351" locus_tag="cds10112_11351"  />
<polygon class="clusterblast-orf" id="dummy-1_q12_0_all" style="stroke-width:1; stroke:black; fill:#c015d8; " points="220,35 225,30 229,30 229,40 225,40 220,35 " description="&lt;b&gt;cds11524_12637&lt;/b&gt;&lt;br&gt;Antigen 85-B precursor (85B) (Extracellular alpha-antigen) (Antigen 85 complex B) (Ag85B) (Mycolyl transferase 85B) (EC 2.3.1.-)&lt;br&gt;Location: 11524 - 12637" locus_tag="cds11524_12637"  />
<polygon class="clusterblast-orf" id="dummy-1_q13_0_all" style="stroke-width:1; stroke:black; fill:#d88315; " points="230,35 235,30 355,30 355,40 235,40 230,35 " description="&lt;b&gt;cds12752_26876&lt;/b&gt;&lt;br&gt;Siderophore biosynthesis non-ribosomal peptide synthetase modules&lt;br&gt;Location: 12752 - 26876" locus_tag="cds12752_26876"  />
<polygon class="clusterblast-orf" id="dummy-1_q14_0_all" style="stroke-width:1; stroke:black; fill:#d88315; " points="357,35 362,30 441,30 441,40 362,40 357,35 " description="&lt;b&gt;cds27089_36494&lt;/b&gt;&lt;br&gt;Siderophore biosynthesis non-ribosomal peptide synthetase modules&lt;br&gt;Location: 27089 - 36494" locus_tag="cds27089_36494"  />
<polygon class="clusterblast-orf" id="dummy-1_q15_0_all" style="stroke-width:1; stroke:black; fill:#15d821; " points="443,35 448,30 452,30 452,40 448,40 443,35 " description="&lt;b&gt;cds36727_37750&lt;/b&gt;&lt;br&gt;hypothetical protein&lt;br&gt;Location: 36727 - 37750" locus_tag="cds36727_37750"  />
<polygon class="clusterblast-orf" id="dummy-1_q16_0_all" style="stroke-width:1; stroke:black; fill:#156bd8; " points="452,35 457,30 459,30 459,40 457,40 452,35 " description="&lt;b&gt;cds37764_38586&lt;/b&gt;&lt;br&gt;Putative peptidase&lt;br&gt;Location: 37764 - 38586" locus_tag="cds37764_38586"  />
<polygon class="clusterblast-orf" id="dummy-1_q17_0_all" style="stroke-width:1; stroke:black; fill:#d815cc; " points="462,40 466,40 471,35 466,30 462,30 462,40 " description="&lt;b&gt;cds38911_39949&lt;/b&gt;&lt;br&gt;putative oxidoreductase, nitronate monooxygenase family&lt;br&gt;Location: 38911 - 39949" locus_tag="cds38911_39949"  />
<polygon class="clusterblast-orf" id="dummy-1_q18_0_all" style="stroke-width:1; stroke:black; fill:#d8a715; " points="472,40 475,35 472,30 472,40 " description="&lt;b&gt;cds40010_40403&lt;/b&gt;&lt;br&gt;hypothetical protein&lt;br&gt;Location: 40010 - 40403" locus_tag="cds40010_40403"  />
<polygon class="clusterblast-orf" id="dummy-1_q19_0_all" style="stroke-width:1; stroke:black; fill:#15d846; " points="477,35 482,30 484,30 484,40 482,40 477,35 " description="&lt;b&gt;cds40579_41365&lt;/b&gt;&lt;br&gt;hypothetical protein&lt;br&gt;Location: 40579 - 41365" locus_tag="cds40579_41365"  />
<polygon class="clusterblast-orf" id="dummy-1_q20_0_all" style="stroke-width:1; stroke:black; fill:#1546d8; " points="485,35 490,30 491,30 491,40 490,40 485,35 " description="&lt;b&gt;cds41454_42216&lt;/b&gt;&lt;br&gt;hypothetical protein&lt;br&gt;Location: 41454 - 42216" locus_tag="cds41454_42216"  />
<polygon class="clusterblast-orf" id="dummy-1_q21_0_all" style="stroke-width:1; stroke:black; fill:#d815a7; " points="492,35 497,30 503,30 503,40 497,40 492,35 " description="&lt;b&gt;cds42266_43517&lt;/b&gt;&lt;br&gt;ABC transporter, substrate-binding protein BBta 7080 family&lt;br&gt;Location: 42266 - 43517" locus_tag="cds42266_43517"  />
<polygon class="clusterblast-orf" id="dummy-1_q22_0_all" style="stroke-width:1; stroke:black; fill:#d8cc15; " points="503,35 508,30 512,30 512,40 508,40 503,35 " description="&lt;b&gt;cds43506_44562&lt;/b&gt;&lt;br&gt;Branched-chain amino acid transport system permease protein LivM (TC 3.A.1.4.1)&lt;br&gt;Location: 43506 - 44562" locus_tag="cds43506_44562"  />
<polygon class="clusterblast-orf" id="dummy-1_q23_0_all" style="stroke-width:1; stroke:black; fill:#15d86b; " points="512,35 517,30 520,30 520,40 517,40 512,35 " description="&lt;b&gt;cds44558_45446&lt;/b&gt;&lt;br&gt;ABC transporter, permease protein 1 BBta 7078&lt;br&gt;Location: 44558 - 45446" locus_tag="cds44558_45446"  />
<polygon class="clusterblast-orf" id="dummy-1_q24_0_all" style="stroke-width:1; stroke:black; fill:#d83a15; " points="520,35 525,30 527,30 527,40 525,40 520,35 " description="&lt;b&gt;cds45442_46228&lt;/b&gt;&lt;br&gt;Branched-chain amino acid ABC transporter, ATP-binding protein LivF (TC 3.A.1.4.1)&lt;br&gt;Location: 45442 - 46228" locus_tag="cds45442_46228"  />
<polygon class="clusterblast-orf" id="dummy-1_q25_0_all" style="stroke-width:1; stroke:black; fill:#d83a15; " points="527,35 532,30 534,30 534,40 532,40 527,35 " description="&lt;b&gt;cds46244_47003&lt;/b&gt;&lt;br&gt;Branched-chain amino acid transport ATP-binding protein LivG (TC 3.A.1.4.1)&lt;br&gt;Location: 46244 - 47003" locus_tag="cds46244_47003"  />
<polygon class="clusterblast-orf" id="dummy-1_q26_0_all" style="stroke-width:1; stroke:black; fill:#1521d8; " points="536,40 542,40 547,35 542,30 536,30 536,40 " description="&lt;b&gt;cds47227_48514&lt;/b&gt;&lt;br&gt;hypothetical protein&lt;br&gt;Location: 47227 - 48514" locus_tag="cds47227_48514"  />
<polygon class="clusterblast-orf" id="dummy-1_q27_0_all" style="stroke-width:1; stroke:black; fill:#d81583; " points="548,35 553,30 562,30 562,40 553,40 548,35 " description="&lt;b&gt;cds48608_50228&lt;/b&gt;&lt;br&gt;Long-chain-fatty-acid--CoA ligase (EC 6.2.1.3)&lt;br&gt;Location: 48608 - 50228" locus_tag="cds48608_50228"  />
<polygon class="clusterblast-orf" id="dummy-1_q28_0_all" style="stroke-width:1; stroke:black; fill:#c0d815; " points="564,40 565,40 570,35 565,30 564,30 564,40 " description="&lt;b&gt;cds50411_51059&lt;/b&gt;&lt;br&gt;Transcriptional regulator, TetR family&lt;br&gt;Location: 50411 - 51059" locus_tag="cds50411_51059"  />
<polygon class="clusterblast-orf" id="dummy-1_q29_0_all" style="stroke-width:1; stroke:black; fill:#15d88f; " points="571,40 576,40 581,35 576,30 571,30 571,40 " description="&lt;b&gt;cds51232_52351&lt;/b&gt;&lt;br&gt;hypothetical protein&lt;br&gt;Location: 51232 - 52351" locus_tag="cds51232_52351"  />
<polygon class="clusterblast-orf" id="dummy-1_q30_0_all" style="stroke-width:1; stroke:black; fill:#2e15d8; " points="581,40 588,40 593,35 588,30 581,30 581,40 " description="&lt;b&gt;cds52350_53721&lt;/b&gt;&lt;br&gt;Lipase 1 (EC 3.1.1.3)&lt;br&gt;Location: 52350 - 53721" locus_tag="cds52350_53721"  />
<polygon class="clusterblast-orf" id="dummy-1_q31_0_all" style="stroke-width:1; stroke:black; fill:#d8155e; " points="596,35 601,30 608,30 608,40 601,40 596,35 " description="&lt;b&gt;cds54061_55357&lt;/b&gt;&lt;br&gt;Transcriptional regulator&lt;br&gt;Location: 54061 - 55357" locus_tag="cds54061_55357"  />
<polygon class="clusterblast-orf" id="dummy-1_q32_0_all" style="stroke-width:1; stroke:black; fill:#9bd815; " points="609,35 614,30 624,30 624,40 614,40 609,35 " description="&lt;b&gt;cds55546_57184&lt;/b&gt;&lt;br&gt;CoA ligase @ Long-chain fatty-acid-CoA ligase (EC 6.2.1.3), Mycobacterial subgroup FadD14&lt;br&gt;Location: 55546 - 57184" locus_tag="cds55546_57184"  />
<polygon class="clusterblast-orf" id="dummy-1_q33_0_all" style="stroke-width:1; stroke:black; fill:#15d8b4; " points="628,40 636,40 641,35 636,30 628,30 628,40 " description="&lt;b&gt;cds57612_59148&lt;/b&gt;&lt;br&gt;Cyclohexanone monooxygenase (EC 1.14.13.22)&lt;br&gt;Location: 57612 - 59148" locus_tag="cds57612_59148"  />
<polygon class="clusterblast-orf" id="dummy-1_q34_0_all" style="stroke-width:1; stroke:black; fill:#5215d8; " points="642,40 642,40 647,35 642,30 642,30 642,40 " description="&lt;b&gt;cds59181_59841&lt;/b&gt;&lt;br&gt;hypothetical protein&lt;br&gt;Location: 59181 - 59841" locus_tag="cds59181_59841"  />
<polygon class="clusterblast-orf" id="dummy-1_q35_0_all" style="stroke-width:1; stroke:black; fill:#d8153a; " points="647,40 651,40 656,35 651,30 647,30 647,40 " description="&lt;b&gt;cds59834_60845&lt;/b&gt;&lt;br&gt;Transcriptional regulator, MerR family, with HEAT domain&lt;br&gt;Location: 59834 - 60845" locus_tag="cds59834_60845"  />
<polygon class="clusterblast-orf" id="dummy-1_q36_0_all" style="stroke-width:1; stroke:black; fill:white; " points="660,40 662,35 660,30 660,40 " description="&lt;b&gt;cds61291_61453&lt;/b&gt;&lt;br&gt;hypothetical protein&lt;br&gt;Location: 61291 - 61453" locus_tag="cds61291_61453"  />
</g>
<g class="clusterblast-cluster" description="NZ_CP017839 (7999629-8087958): Nocardia seriolae strain EM150506 chromosome, ... (26% of genes show similarity), NRPS,terpene" label="NZ_CP017839"  >
<text y="70" class="clusterblast-acc" x="5"  >
<a xlink:href="https://antismash-db.secondarymetabolites.org/area.html?record=NZ_CP017839&amp;start=7999629&amp;end=8087958" target="_blank">NZ_CP017839 (7999629-8087958)</a>: Nocardia seriolae strain EM150506 chromosome, ... (26% of genes show similarity), NRPS,terpene</text>
<line y1="85" y2="85" x2="778.0" style="stroke-width:1; stroke:grey; " x1="10"  />
</g>
<g id="a1_000"  >
<polygon class="clusterblast-orf" id="dummy-1_h1_4_0" style="stroke-width:1; stroke:black; fill:white; " points="0,85 5,80 7,80 7,90 5,90 0,85 " description="&lt;b&gt;NS506_RS37085&lt;/b&gt;&lt;br&gt;30S ribosomal protein S3&lt;br&gt;Location: 7999882 - 8000688" locus_tag="NS506_RS37085"  />
</g>
<g id="a1_001"  >
<polygon class="clusterblast-orf" id="dummy-1_h1_4_1" style="stroke-width:1; stroke:black; fill:white; " points="7,85 10,80 10,90 7,85 " description="&lt;b&gt;NS506_RS37090&lt;/b&gt;&lt;br&gt;50S ribosomal protein L22&lt;br&gt;Location: 8000689 - 8001090" locus_tag="NS506_RS37090"  />
</g>
<g id="a1_002"  >
<polygon class="clusterblast-orf" id="dummy-1_h1_4_2" style="stroke-width:1; stroke:black; fill:white; " points="10,85 13,80 13,90 10,85 " description="&lt;b&gt;NS506_RS37095&lt;/b&gt;&lt;br&gt;30S ribosomal protein S19&lt;br&gt;Location: 8001087 - 8001368" locus_tag="NS506_RS37095"  />
</g>
<g id="a1_003"  >
<polygon class="clusterblast-orf" id="dummy-1_h1_4_3" style="stroke-width:1; stroke:black; fill:white; " points="13,85 18,80 20,80 20,90 18,90 13,85 " description="&lt;b&gt;NS506_RS37100&lt;/b&gt;&lt;br&gt;50S ribosomal protein L2&lt;br&gt;Location: 8001383 - 8002213" locus_tag="NS506_RS37100"  />
</g>
<g id="a1_004"  >
<polygon class="clusterblast-orf" id="dummy-1_h1_4_4" style="stroke-width:1; stroke:black; fill:white; " points="20,85 23,80 23,90 20,85 " description="&lt;b&gt;NS506_RS37105&lt;/b&gt;&lt;br&gt;50S ribosomal protein L23&lt;br&gt;Location: 8002246 - 8002551" locus_tag="NS506_RS37105"  />
</g>
<g id="a1_005"  >
<polygon class="clusterblast-orf" id="dummy-1_h1_4_5" style="stroke-width:1; stroke:black; fill:white; " points="23,85 28,80 29,80 29,90 28,90 23,85 " description="&lt;b&gt;NS506_RS37110&lt;/b&gt;&lt;br&gt;50S ribosomal protein L4&lt;br&gt;Location: 8002548 - 8003219" locus_tag="NS506_RS37110"  />
</g>
<g id="a1_006"  >
<polygon class="clusterblast-orf" id="dummy-1_h1_4_6" style="stroke-width:1; stroke:black; fill:white; " points="29,85 34,80 35,80 35,90 34,90 29,85 " description="&lt;b&gt;NS506_RS37115&lt;/b&gt;&lt;br&gt;50S ribosomal protein L3&lt;br&gt;Location: 8003216 - 8003881" locus_tag="NS506_RS37115"  />
</g>
<g id="a1_007"  >
<polygon class="clusterblast-orf" id="dummy-1_h1_4_7" style="stroke-width:1; stroke:black; fill:white; " points="35,85 38,80 38,90 35,85 " description="&lt;b&gt;NS506_RS37120&lt;/b&gt;&lt;br&gt;30S ribosomal protein S10&lt;br&gt;Location: 8003896 - 8004201" locus_tag="NS506_RS37120"  />
</g>
<g id="a1_008"  >
<polygon class="clusterblast-orf" id="dummy-1_h1_4_8" style="stroke-width:1; stroke:black; fill:white; " points="42,85 46,80 46,90 42,85 " description="&lt;b&gt;NS506_RS37125&lt;/b&gt;&lt;br&gt;hypothetical protein&lt;br&gt;Location: 8004708 - 8005139" locus_tag="NS506_RS37125"  />
</g>
<g id="a1_009"  >
<polygon class="clusterblast-orf" id="dummy-1_h1_4_9" style="stroke-width:1; stroke:black; fill:white; " points="48,85 53,80 53,80 53,90 53,90 48,85 " description="&lt;b&gt;NS506_RS37130&lt;/b&gt;&lt;br&gt;hypothetical protein&lt;br&gt;Location: 8005392 - 8005946" locus_tag="NS506_RS37130"  />
</g>
<g id="a1_0010"  >
<polygon class="clusterblast-orf" id="dummy-1_h1_4_10" style="stroke-width:1; stroke:black; fill:white; " points="54,90 58,85 54,80 54,90 " description="&lt;b&gt;NS506_RS37135&lt;/b&gt;&lt;br&gt;DUF4442 domain-containing protein&lt;br&gt;Location: 8006002 - 8006478" locus_tag="NS506_RS37135"  />
</g>
<g id="a1_0011"  >
<polygon class="clusterblast-orf" id="dummy-1_h1_4_11" style="stroke-width:1; stroke:black; fill:white; " points="58,85 63,80 63,80 63,90 63,90 58,85 " description="&lt;b&gt;NS506_RS37140&lt;/b&gt;&lt;br&gt;hypothetical protein&lt;br&gt;Location: 8006487 - 8007101" locus_tag="NS506_RS37140"  />
</g>
<g id="a1_0012"  >
<polygon class="clusterblast-orf" id="dummy-1_h1_4_12" style="stroke-width:1; stroke:black; fill:white; " points="67,85 72,80 78,80 78,90 72,90 67,85 " description="&lt;b&gt;NS506_RS37145&lt;/b&gt;&lt;br&gt;IS4 family transposase&lt;br&gt;Location: 8007535 - 8008764" locus_tag="NS506_RS37145"  />
</g>
<g id="a1_0013"  >
<polygon class="clusterblast-orf" id="dummy-1_h1_4_13" style="stroke-width:1; stroke:black; fill:white; " points="79,90 80,90 85,85 80,80 79,80 79,90 " description="&lt;b&gt;NS506_RS37150&lt;/b&gt;&lt;br&gt;hypothetical protein&lt;br&gt;Location: 8008870 - 8009538" locus_tag="NS506_RS37150"  />
</g>
<g id="a1_0014"  >
<polygon class="clusterblast-orf" id="dummy-1_h1_4_14" style="stroke-width:1; stroke:black; fill:white; " points="86,90 92,90 97,85 92,80 86,80 86,90 " description="&lt;b&gt;NS506_RS37155&lt;/b&gt;&lt;br&gt;lycopene cyclase&lt;br&gt;Location: 8009630 - 8010844" locus_tag="NS506_RS37155"  />
</g>
<g id="a1_0015"  >
<polygon class="clusterblast-orf" id="dummy-1_h1_4_15" style="stroke-width:1; stroke:black; fill:#d81515; " points="96,85 101,80 105,80 105,90 101,90 96,85 " description="&lt;b&gt;NS506_RS37160&lt;/b&gt;&lt;br&gt;SDR family oxidoreductase&lt;br&gt;Location: 8010810 - 8011838&lt;br&gt;&lt;br&gt;&lt;b&gt;BlastP hit with cds82_1111&lt;/b&gt;&lt;br&gt;Percentage identity: 78&lt;br&gt;Percentage coverage: 100&lt;br&gt;BLAST bit score: 557&lt;br&gt;E-value: 6.6e-157" locus_tag="NS506_RS37160"  />
</g>
<g id="a1_0016"  >
<polygon class="clusterblast-orf" id="dummy-1_h1_4_16" style="stroke-width:1; stroke:black; fill:#15d8d8; " points="106,85 111,80 114,80 114,90 111,90 106,85 " description="&lt;b&gt;NS506_RS37165&lt;/b&gt;&lt;br&gt;ABC transporter permease&lt;br&gt;Location: 8011942 - 8012796&lt;br&gt;&lt;br&gt;&lt;b&gt;BlastP hit with cds1970_2834&lt;/b&gt;&lt;br&gt;Percentage identity: 73&lt;br&gt;Percentage coverage: 97&lt;br&gt;BLAST bit score: 398&lt;br&gt;E-value: 7.4e-109" locus_tag="NS506_RS37165"  />
</g>
<g id="a1_0017"  >
<polygon class="clusterblast-orf" id="dummy-1_h1_4_17" style="stroke-width:1; stroke:black; fill:#7715d8; " points="114,85 119,80 121,80 121,90 119,90 114,85 " description="&lt;b&gt;NS506_RS37170&lt;/b&gt;&lt;br&gt;antibiotic transporter&lt;br&gt;Location: 8012805 - 8013614&lt;br&gt;&lt;br&gt;&lt;b&gt;BlastP hit with cds2830_3646&lt;/b&gt;&lt;br&gt;Percentage identity: 81&lt;br&gt;Percentage coverage: 99&lt;br&gt;BLAST bit score: 421&lt;br&gt;E-value: 7.7e-116" locus_tag="NS506_RS37170"  />
</g>
<g id="a1_0018"  >
<polygon class="clusterblast-orf" id="dummy-1_h1_4_18" style="stroke-width:1; stroke:black; fill:#d83a15; " points="121,85 126,80 130,80 130,90 126,90 121,85 " description="&lt;b&gt;NS506_RS37175&lt;/b&gt;&lt;br&gt;daunorubicin resistance protein DrrA family ABC transporter ATP-binding protein&lt;br&gt;Location: 8013611 - 8014639&lt;br&gt;&lt;br&gt;&lt;b&gt;BlastP hit with cds3642_4638&lt;/b&gt;&lt;br&gt;Percentage identity: 88&lt;br&gt;Percentage coverage: 99&lt;br&gt;BLAST bit score: 560&lt;br&gt;E-value: 9.9e-158&lt;br&gt;&lt;br&gt;&lt;b&gt;BlastP hit with cds46244_47003&lt;/b&gt;&lt;br&gt;Percentage identity: 31&lt;br&gt;Percentage coverage: 91&lt;br&gt;BLAST bit score: 94&lt;br&gt;E-value: 1.2e-17" locus_tag="NS506_RS37175"  />
</g>
<g id="a1_0019"  >
<polygon class="clusterblast-orf" id="dummy-1_h1_4_19" style="stroke-width:1; stroke:black; fill:#52d815; " points="133,90 141,90 146,85 141,80 133,80 133,90 " description="&lt;b&gt;NS506_RS37180&lt;/b&gt;&lt;br&gt;aldehyde dehydrogenase family protein&lt;br&gt;Location: 8014973 - 8016454&lt;br&gt;&lt;br&gt;&lt;b&gt;BlastP hit with cds4922_6398&lt;/b&gt;&lt;br&gt;Percentage identity: 71&lt;br&gt;Percentage coverage: 101&lt;br&gt;BLAST bit score: 684&lt;br&gt;E-value: 8.8e-195" locus_tag="NS506_RS37180"  />
</g>
<g id="a1_0020"  >
<polygon class="clusterblast-orf" id="dummy-1_h1_4_20" style="stroke-width:1; stroke:black; fill:#15b4d8; " points="146,85 151,80 158,80 158,90 151,90 146,85 " description="&lt;b&gt;NS506_RS37185&lt;/b&gt;&lt;br&gt;TetR/AcrR family transcriptional regulator&lt;br&gt;Location: 8016474 - 8017724&lt;br&gt;&lt;br&gt;&lt;b&gt;BlastP hit with cds6409_7651&lt;/b&gt;&lt;br&gt;Percentage identity: 85&lt;br&gt;Percentage coverage: 100&lt;br&gt;BLAST bit score: 658&lt;br&gt;E-value: 3.3e-187" locus_tag="NS506_RS37185"  />
</g>
<g id="a1_0021"  >
<polygon class="clusterblast-orf" id="dummy-1_h1_4_21" style="stroke-width:1; stroke:black; fill:#9b15d8; " points="159,90 161,90 166,85 161,80 159,80 159,90 " description="&lt;b&gt;NS506_RS37190&lt;/b&gt;&lt;br&gt;enoyl-CoA hydratase/isomerase family protein&lt;br&gt;Location: 8017853 - 8018647&lt;br&gt;&lt;br&gt;&lt;b&gt;BlastP hit with cds7791_8586&lt;/b&gt;&lt;br&gt;Percentage identity: 77&lt;br&gt;Percentage coverage: 100&lt;br&gt;BLAST bit score: 374&lt;br&gt;E-value: 6.2e-102" locus_tag="NS506_RS37190"  />
</g>
<g id="a1_0022"  >
<polygon class="clusterblast-orf" id="dummy-1_h1_4_22" style="stroke-width:1; stroke:black; fill:#158fd8; " points="166,85 171,80 177,80 177,90 171,90 166,85 " description="&lt;b&gt;NS506_RS37195&lt;/b&gt;&lt;br&gt;Nramp family divalent metal transporter&lt;br&gt;Location: 8018672 - 8019910&lt;br&gt;&lt;br&gt;&lt;b&gt;BlastP hit with cds10112_11351&lt;/b&gt;&lt;br&gt;Percentage identity: 80&lt;br&gt;Percentage coverage: 100&lt;br&gt;BLAST bit score: 620&lt;br&gt;E-value: 1e-175" locus_tag="NS506_RS37195"  />
</g>
<g id="a1_0023"  >
<polygon class="clusterblast-orf" id="dummy-1_h1_4_23" style="stroke-width:1; stroke:black; fill:#c015d8; " points="178,85 183,80 187,80 187,90 183,90 178,85 " description="&lt;b&gt;NS506_RS37200&lt;/b&gt;&lt;br&gt;esterase family protein&lt;br&gt;Location: 8020053 - 8021045&lt;br&gt;&lt;br&gt;&lt;b&gt;BlastP hit with cds11524_12637&lt;/b&gt;&lt;br&gt;Percentage identity: 80&lt;br&gt;Percentage coverage: 89&lt;br&gt;BLAST bit score: 566&lt;br&gt;E-value: 2.6e-159" locus_tag="NS506_RS37200"  />
</g>
<g id="a1_0024"  >
<polygon class="clusterblast-orf" id="dummy-1_h1_4_24" style="stroke-width:1; stroke:black; fill:#d88315; " points="189,85 194,80 313,80 313,90 194,90 189,85 " description="&lt;b&gt;NS506_RS37205&lt;/b&gt;&lt;br&gt;amino acid adenylation domain-containing protein&lt;br&gt;Location: 8021306 - 8035309&lt;br&gt;&lt;br&gt;&lt;b&gt;BlastP hit with cds12752_26876&lt;/b&gt;&lt;br&gt;Percentage identity: 70&lt;br&gt;Percentage coverage: 102&lt;br&gt;BLAST bit score: 6256&lt;br&gt;E-value: 0.0&lt;br&gt;&lt;br&gt;&lt;b&gt;BlastP hit with cds27089_36494&lt;/b&gt;&lt;br&gt;Percentage identity: 36&lt;br&gt;Percentage coverage: 114&lt;br&gt;BLAST bit score: 1591&lt;br&gt;E-value: 0.0" locus_tag="NS506_RS37205"  />
</g>
<g id="a1_0025"  >
<polygon class="clusterblast-orf" id="dummy-1_h1_4_25" style="stroke-width:1; stroke:black; fill:white; " points="315,85 320,80 425,80 425,90 320,90 315,85 " description="&lt;b&gt;NS506_RS37210&lt;/b&gt;&lt;br&gt;amino acid adenylation domain-containing protein&lt;br&gt;Location: 8035525 - 8047983" locus_tag="NS506_RS37210"  />
</g>
<g id="a1_0026"  >
<polygon class="clusterblast-orf" id="dummy-1_h1_4_26" style="stroke-width:1; stroke:black; fill:#d88315; " points="428,85 433,80 471,80 471,90 433,90 428,85 " description="&lt;b&gt;NS506_RS41665&lt;/b&gt;&lt;br&gt;non-ribosomal peptide synthetase&lt;br&gt;Location: 8048228 - 8053129&lt;br&gt;&lt;br&gt;&lt;b&gt;BlastP hit with cds27089_36494&lt;/b&gt;&lt;br&gt;Percentage identity: 79&lt;br&gt;Percentage coverage: 52&lt;br&gt;BLAST bit score: 2483&lt;br&gt;E-value: 0.0" locus_tag="NS506_RS41665"  />
</g>
<g id="a1_0027"  >
<polygon class="clusterblast-orf" id="dummy-1_h1_4_27" style="stroke-width:1; stroke:black; fill:white; " points="481,85 486,80 487,80 487,90 486,90 481,85 " description="&lt;b&gt;NS506_RS41670&lt;/b&gt;&lt;br&gt;hypothetical protein&lt;br&gt;Location: 8054303 - 8054929" locus_tag="NS506_RS41670"  />
</g>
<g id="a1_0028"  >
<polygon class="clusterblast-orf" id="dummy-1_h1_4_28" style="stroke-width:1; stroke:black; fill:#d88315; " points="489,85 494,80 511,80 511,90 494,90 489,85 " description="&lt;b&gt;NS506_RS41675&lt;/b&gt;&lt;br&gt;amino acid adenylation domain-containing protein&lt;br&gt;Location: 8055146 - 8057626&lt;br&gt;&lt;br&gt;&lt;b&gt;BlastP hit with cds27089_36494&lt;/b&gt;&lt;br&gt;Percentage identity: 81&lt;br&gt;Percentage coverage: 26&lt;br&gt;BLAST bit score: 1289&lt;br&gt;E-value: 0.0" locus_tag="NS506_RS41675"  />
</g>
<g id="a1_0029"  >
<polygon class="clusterblast-orf" id="dummy-1_h1_4_29" style="stroke-width:1; stroke:black; fill:#15d821; " points="513,85 518,80 522,80 522,90 518,90 513,85 " description="&lt;b&gt;NS506_RS37225&lt;/b&gt;&lt;br&gt;helix-turn-helix transcriptional regulator&lt;br&gt;Location: 8057850 - 8058830&lt;br&gt;&lt;br&gt;&lt;b&gt;BlastP hit with cds36727_37750&lt;/b&gt;&lt;br&gt;Percentage identity: 83&lt;br&gt;Percentage coverage: 96&lt;br&gt;BLAST bit score: 532&lt;br&gt;E-value: 2.3e-149" locus_tag="NS506_RS37225"  />
</g>
<g id="a1_0030"  >
<polygon class="clusterblast-orf" id="dummy-1_h1_4_30" style="stroke-width:1; stroke:black; fill:#156bd8; " points="522,85 527,80 530,80 530,90 527,90 522,85 " description="&lt;b&gt;NS506_RS37230&lt;/b&gt;&lt;br&gt;M23 family metallopeptidase&lt;br&gt;Location: 8058890 - 8059729&lt;br&gt;&lt;br&gt;&lt;b&gt;BlastP hit with cds37764_38586&lt;/b&gt;&lt;br&gt;Percentage identity: 67&lt;br&gt;Percentage coverage: 101&lt;br&gt;BLAST bit score: 350&lt;br&gt;E-value: 1.3e-94" locus_tag="NS506_RS37230"  />
</g>
<g id="a1_0031"  >
<polygon class="clusterblast-orf" id="dummy-1_h1_4_31" style="stroke-width:1; stroke:black; fill:white; " points="531,90 535,90 540,85 535,80 531,80 531,90 " description="&lt;b&gt;NS506_RS37235&lt;/b&gt;&lt;br&gt;nitronate monooxygenase&lt;br&gt;Location: 8059928 - 8060970" locus_tag="NS506_RS37235"  />
</g>
<g id="a1_0032"  >
<polygon class="clusterblast-orf" id="dummy-1_h1_4_32" style="stroke-width:1; stroke:black; fill:#d8a715; " points="541,90 544,85 541,80 541,90 " description="&lt;b&gt;NS506_RS37240&lt;/b&gt;&lt;br&gt;hypothetical protein&lt;br&gt;Location: 8061028 - 8061420&lt;br&gt;&lt;br&gt;&lt;b&gt;BlastP hit with cds40010_40403&lt;/b&gt;&lt;br&gt;Percentage identity: 89&lt;br&gt;Percentage coverage: 100&lt;br&gt;BLAST bit score: 237&lt;br&gt;E-value: 9.9e-61" locus_tag="NS506_RS37240"  />
</g>
<g id="a1_0033"  >
<polygon class="clusterblast-orf" id="dummy-1_h1_4_33" style="stroke-width:1; stroke:black; fill:white; " points="545,85 550,80 558,80 558,90 550,90 545,85 " description="&lt;b&gt;NS506_RS37245&lt;/b&gt;&lt;br&gt;serine/threonine protein kinase&lt;br&gt;Location: 8061475 - 8062998" locus_tag="NS506_RS37245"  />
</g>
<g id="a1_0034"  >
<polygon class="clusterblast-orf" id="dummy-1_h1_4_34" style="stroke-width:1; stroke:black; fill:white; " points="560,90 564,85 560,80 560,90 " description="&lt;b&gt;NS506_RS37250&lt;/b&gt;&lt;br&gt;EF-hand domain-containing protein&lt;br&gt;Location: 8063179 - 8063646" locus_tag="NS506_RS37250"  />
</g>
<g id="a1_0035"  >
<polygon class="clusterblast-orf" id="dummy-1_h1_4_35" style="stroke-width:1; stroke:black; fill:#d81583; " points="564,85 569,80 579,80 579,90 569,90 564,85 " description="&lt;b&gt;NS506_RS37255&lt;/b&gt;&lt;br&gt;acyl-CoA synthetase&lt;br&gt;Location: 8063648 - 8065267&lt;br&gt;&lt;br&gt;&lt;b&gt;BlastP hit with cds48608_50228&lt;/b&gt;&lt;br&gt;Percentage identity: 77&lt;br&gt;Percentage coverage: 100&lt;br&gt;BLAST bit score: 826&lt;br&gt;E-value: 2.1e-237" locus_tag="NS506_RS37255"  />
</g>
<g id="a1_0036"  >
<polygon class="clusterblast-orf" id="dummy-1_h1_4_36" style="stroke-width:1; stroke:black; fill:white; " points="580,85 583,80 583,90 580,85 " description="&lt;b&gt;NS506_RS37260&lt;/b&gt;&lt;br&gt;MarR family transcriptional regulator&lt;br&gt;Location: 8065419 - 8065763" locus_tag="NS506_RS37260"  />
</g>
<g id="a1_0037"  >
<polygon class="clusterblast-orf" id="dummy-1_h1_4_37" style="stroke-width:1; stroke:black; fill:white; " points="583,90 586,85 583,80 583,90 " description="&lt;b&gt;NS506_RS37265&lt;/b&gt;&lt;br&gt;hypothetical protein&lt;br&gt;Location: 8065802 - 8066158" locus_tag="NS506_RS37265"  />
</g>
<g id="a1_0038"  >
<polygon class="clusterblast-orf" id="dummy-1_h1_4_38" style="stroke-width:1; stroke:black; fill:white; " points="587,90 590,85 587,80 587,90 " description="&lt;b&gt;NS506_RS37270&lt;/b&gt;&lt;br&gt;nuclear transport factor 2 family protein&lt;br&gt;Location: 8066218 - 8066598" locus_tag="NS506_RS37270"  />
</g>
<g id="a1_0039"  >
<polygon class="clusterblast-orf" id="dummy-1_h1_4_39" style="stroke-width:1; stroke:black; fill:#9bd815; " points="591,85 596,80 605,80 605,90 596,90 591,85 " description="&lt;b&gt;NS506_RS37275&lt;/b&gt;&lt;br&gt;long-chain fatty acid--CoA ligase&lt;br&gt;Location: 8066672 - 8068309&lt;br&gt;&lt;br&gt;&lt;b&gt;BlastP hit with cds55546_57184&lt;/b&gt;&lt;br&gt;Percentage identity: 88&lt;br&gt;Percentage coverage: 100&lt;br&gt;BLAST bit score: 997&lt;br&gt;E-value: 6.8e-289" locus_tag="NS506_RS37275"  />
</g>
<g id="a1_0040"  >
<polygon class="clusterblast-orf" id="dummy-1_h1_4_40" style="stroke-width:1; stroke:black; fill:#15d8b4; " points="610,90 618,90 623,85 618,80 610,80 610,90 " description="&lt;b&gt;NS506_RS37280&lt;/b&gt;&lt;br&gt;NAD(P)/FAD-dependent oxidoreductase&lt;br&gt;Location: 8068850 - 8070319&lt;br&gt;&lt;br&gt;&lt;b&gt;BlastP hit with cds57612_59148&lt;/b&gt;&lt;br&gt;Percentage identity: 85&lt;br&gt;Percentage coverage: 94&lt;br&gt;BLAST bit score: 873&lt;br&gt;E-value: 8.2e-252" locus_tag="NS506_RS37280"  />
</g>
<g id="a1_0041"  >
<polygon class="clusterblast-orf" id="dummy-1_h1_4_41" style="stroke-width:1; stroke:black; fill:white; " points="624,90 628,85 624,80 624,90 " description="&lt;b&gt;NS506_RS37285&lt;/b&gt;&lt;br&gt;DUF5313 family protein&lt;br&gt;Location: 8070404 - 8070835" locus_tag="NS506_RS37285"  />
</g>
<g id="a1_0042"  >
<polygon class="clusterblast-orf" id="dummy-1_h1_4_42" style="stroke-width:1; stroke:black; fill:white; " points="630,85 635,80 636,80 636,90 635,90 630,85 " description="&lt;b&gt;NS506_RS37295&lt;/b&gt;&lt;br&gt;hypothetical protein&lt;br&gt;Location: 8071098 - 8071730" locus_tag="NS506_RS37295"  />
</g>
<g id="a1_0043"  >
<polygon class="clusterblast-orf" id="dummy-1_h1_4_43" style="stroke-width:1; stroke:black; fill:white; " points="650,85 655,80 659,80 659,90 655,90 650,85 " description="&lt;b&gt;NS506_RS37300&lt;/b&gt;&lt;br&gt;IS3 family transposase&lt;br&gt;Location: 8073369 - 8074304" locus_tag="NS506_RS37300"  />
</g>
<g id="a1_0044"  >
<polygon class="clusterblast-orf" id="dummy-1_h1_4_44" style="stroke-width:1; stroke:black; fill:white; " points="659,85 662,80 662,90 659,85 " description="&lt;b&gt;NS506_RS37305&lt;/b&gt;&lt;br&gt;transposase&lt;br&gt;Location: 8074304 - 8074636" locus_tag="NS506_RS37305"  />
</g>
<g id="a1_0045"  >
<polygon class="clusterblast-orf" id="dummy-1_h1_4_45" style="stroke-width:1; stroke:black; fill:white; " points="662,90 662,90 667,85 662,80 662,80 662,90 " description="&lt;b&gt;NS506_RS37310&lt;/b&gt;&lt;br&gt;hypothetical protein&lt;br&gt;Location: 8074694 - 8075203" locus_tag="NS506_RS37310"  />
</g>
<g id="a1_0046"  >
<polygon class="clusterblast-orf" id="dummy-1_h1_4_46" style="stroke-width:1; stroke:black; fill:white; " points="667,90 670,85 667,80 667,90 " description="&lt;b&gt;NS506_RS37315&lt;/b&gt;&lt;br&gt;transposase&lt;br&gt;Location: 8075268 - 8075591" locus_tag="NS506_RS37315"  />
</g>
<g id="a1_0047"  >
<polygon class="clusterblast-orf" id="dummy-1_h1_4_47" style="stroke-width:1; stroke:black; fill:white; " points="670,90 673,90 678,85 673,80 670,80 670,90 " description="&lt;b&gt;NS506_RS37320&lt;/b&gt;&lt;br&gt;IS3 family transposase&lt;br&gt;Location: 8075591 - 8076517" locus_tag="NS506_RS37320"  />
</g>
<g id="a1_0048"  >
<polygon class="clusterblast-orf" id="dummy-1_h1_4_48" style="stroke-width:1; stroke:black; fill:white; " points="681,85 683,80 683,90 681,85 " description="&lt;b&gt;NS506_RS37325&lt;/b&gt;&lt;br&gt;hypothetical protein&lt;br&gt;Location: 8076846 - 8077031" locus_tag="NS506_RS37325"  />
</g>
<g id="a1_0049"  >
<polygon class="clusterblast-orf" id="dummy-1_h1_4_49" style="stroke-width:1; stroke:black; fill:white; " points="683,85 686,80 686,90 683,85 " description="&lt;b&gt;NS506_RS37330&lt;/b&gt;&lt;br&gt;hypothetical protein&lt;br&gt;Location: 8077064 - 8077396" locus_tag="NS506_RS37330"  />
</g>
<g id="a1_0050"  >
<polygon class="clusterblast-orf" id="dummy-1_h1_4_50" style="stroke-width:1; stroke:black; fill:white; " points="686,85 690,80 690,90 686,85 " description="&lt;b&gt;NS506_RS37335&lt;/b&gt;&lt;br&gt;hypothetical protein&lt;br&gt;Location: 8077393 - 8077809" locus_tag="NS506_RS37335"  />
</g>
<g id="a1_0051"  >
<polygon class="clusterblast-orf" id="dummy-1_h1_4_51" style="stroke-width:1; stroke:black; fill:white; " points="689,85 691,80 691,90 689,85 " description="&lt;b&gt;NS506_RS37340&lt;/b&gt;&lt;br&gt;hypothetical protein&lt;br&gt;Location: 8077779 - 8077988" locus_tag="NS506_RS37340"  />
</g>
<g id="a1_0052"  >
<polygon class="clusterblast-orf" id="dummy-1_h1_4_52" style="stroke-width:1; stroke:black; fill:white; " points="691,85 694,80 694,90 691,85 " description="&lt;b&gt;NS506_RS37345&lt;/b&gt;&lt;br&gt;hypothetical protein&lt;br&gt;Location: 8077988 - 8078290" locus_tag="NS506_RS37345"  />
</g>
<g id="a1_0053"  >
<polygon class="clusterblast-orf" id="dummy-1_h1_4_53" style="stroke-width:1; stroke:black; fill:white; " points="694,85 696,80 696,90 694,85 " description="&lt;b&gt;NS506_RS37350&lt;/b&gt;&lt;br&gt;hypothetical protein&lt;br&gt;Location: 8078287 - 8078553" locus_tag="NS506_RS37350"  />
</g>
<g id="a1_0054"  >
<polygon class="clusterblast-orf" id="dummy-1_h1_4_54" style="stroke-width:1; stroke:black; fill:white; " points="696,85 699,80 699,90 696,85 " description="&lt;b&gt;NS506_RS37355&lt;/b&gt;&lt;br&gt;hypothetical protein&lt;br&gt;Location: 8078550 - 8078822" locus_tag="NS506_RS37355"  />
</g>
<g id="a1_0055"  >
<polygon class="clusterblast-orf" id="dummy-1_h1_4_55" style="stroke-width:1; stroke:black; fill:white; " points="699,85 701,80 701,90 699,85 " description="&lt;b&gt;NS506_RS37360&lt;/b&gt;&lt;br&gt;hypothetical protein&lt;br&gt;Location: 8078819 - 8079106" locus_tag="NS506_RS37360"  />
</g>
<g id="a1_0056"  >
<polygon class="clusterblast-orf" id="dummy-1_h1_4_56" style="stroke-width:1; stroke:black; fill:white; " points="701,85 705,80 705,90 701,85 " description="&lt;b&gt;NS506_RS37365&lt;/b&gt;&lt;br&gt;hypothetical protein&lt;br&gt;Location: 8079103 - 8079525" locus_tag="NS506_RS37365"  />
</g>
<g id="a1_0057"  >
<polygon class="clusterblast-orf" id="dummy-1_h1_4_57" style="stroke-width:1; stroke:black; fill:white; " points="705,85 708,80 708,90 705,85 " description="&lt;b&gt;NS506_RS37370&lt;/b&gt;&lt;br&gt;hypothetical protein&lt;br&gt;Location: 8079584 - 8079859" locus_tag="NS506_RS37370"  />
</g>
<g id="a1_0058"  >
<polygon class="clusterblast-orf" id="dummy-1_h1_4_58" style="stroke-width:1; stroke:black; fill:white; " points="708,85 712,80 712,90 708,85 " description="&lt;b&gt;NS506_RS37375&lt;/b&gt;&lt;br&gt;single-stranded DNA-binding protein&lt;br&gt;Location: 8079868 - 8080350" locus_tag="NS506_RS37375"  />
</g>
<g id="a1_0059"  >
<polygon class="clusterblast-orf" id="dummy-1_h1_4_59" style="stroke-width:1; stroke:black; fill:white; " points="714,85 719,80 722,80 722,90 719,90 714,85 " description="&lt;b&gt;NS506_RS37380&lt;/b&gt;&lt;br&gt;hypothetical protein&lt;br&gt;Location: 8080523 - 8081464" locus_tag="NS506_RS37380"  />
</g>
<g id="a1_0060"  >
<polygon class="clusterblast-orf" id="dummy-1_h1_4_60" style="stroke-width:1; stroke:black; fill:white; " points="722,85 726,80 726,90 722,85 " description="&lt;b&gt;NS506_RS37385&lt;/b&gt;&lt;br&gt;hypothetical protein&lt;br&gt;Location: 8081497 - 8081946" locus_tag="NS506_RS37385"  />
</g>
<g id="a1_0061"  >
<polygon class="clusterblast-orf" id="dummy-1_h1_4_61" style="stroke-width:1; stroke:black; fill:white; " points="726,85 731,80 734,80 734,90 731,90 726,85 " description="&lt;b&gt;NS506_RS37390&lt;/b&gt;&lt;br&gt;helix-turn-helix domain-containing protein&lt;br&gt;Location: 8081943 - 8082839" locus_tag="NS506_RS37390"  />
</g>
<g id="a1_0062"  >
<polygon class="clusterblast-orf" id="dummy-1_h1_4_62" style="stroke-width:1; stroke:black; fill:white; " points="734,85 736,80 736,90 734,85 " description="&lt;b&gt;NS506_RS41350&lt;/b&gt;&lt;br&gt;hypothetical protein&lt;br&gt;Location: 8082836 - 8083012" locus_tag="NS506_RS41350"  />
</g>
<g id="a1_0063"  >
<polygon class="clusterblast-orf" id="dummy-1_h1_4_63" style="stroke-width:1; stroke:black; fill:white; " points="736,85 741,80 753,80 753,90 741,90 736,85 " description="&lt;b&gt;NS506_RS37395&lt;/b&gt;&lt;br&gt;hypothetical protein&lt;br&gt;Location: 8083009 - 8084913" locus_tag="NS506_RS37395"  />
</g>
<g id="a1_0064"  >
<polygon class="clusterblast-orf" id="dummy-1_h1_4_64" style="stroke-width:1; stroke:black; fill:white; " points="754,85 755,80 755,90 754,85 " description="&lt;b&gt;NS506_RS41355&lt;/b&gt;&lt;br&gt;hypothetical protein&lt;br&gt;Location: 8085072 - 8085242" locus_tag="NS506_RS41355"  />
</g>
<g id="a1_0065"  >
<polygon class="clusterblast-orf" id="dummy-1_h1_4_65" style="stroke-width:1; stroke:black; fill:white; " points="755,85 760,80 762,80 762,90 760,90 755,85 " description="&lt;b&gt;NS506_RS37400&lt;/b&gt;&lt;br&gt;hypothetical protein&lt;br&gt;Location: 8085244 - 8085999" locus_tag="NS506_RS37400"  />
</g>
<g id="a1_0066"  >
<polygon class="clusterblast-orf" id="dummy-1_h1_4_66" style="stroke-width:1; stroke:black; fill:white; " points="762,85 764,80 764,90 762,85 " description="&lt;b&gt;NS506_RS37405&lt;/b&gt;&lt;br&gt;hypothetical protein&lt;br&gt;Location: 8085992 - 8086237" locus_tag="NS506_RS37405"  />
</g>
<g id="a1_0067"  >
<polygon class="clusterblast-orf" id="dummy-1_h1_4_67" style="stroke-width:1; stroke:black; fill:white; " points="770,90 775,90 780,85 775,80 770,80 770,90 " description="&lt;b&gt;NS506_RS37410&lt;/b&gt;&lt;br&gt;IS630 family transposase&lt;br&gt;Location: 8086873 - 8087958" locus_tag="NS506_RS37410"  />
</g>
</svg>
