<svg y="0" preserveAspectRatio="none" viewBox="0 0 800 230" xmlns="http://www.w3.org/2000/svg" xmlns:xlink="http://www.w3.org/1999/xlink" version="1.1" x="0" width="800" height="230"  >
<g class="clusterblast-cluster" label="Query sequence"  >
<text y="20" class="clusterblast-acc" x="5"  >
Query sequence</text>
<line y1="35" y2="35" x2="778.0" style="stroke-width:1; stroke:grey; " x1="10"  />
<polygon class="clusterblast-orf" id="dummy-1_q0_0_all" style="stroke-width:1; stroke:black; fill:#d81515; " points="21,40 31,40 36,35 31,30 21,30 21,40 " description="&lt;b&gt;cds49111_49987&lt;/b&gt;&lt;br&gt;hypothetical protein&lt;br&gt;Location: 49111 - 49987" locus_tag="cds49111_49987"  />
<polygon class="clusterblast-orf" id="dummy-1_q1_0_all" style="stroke-width:1; stroke:black; fill:#6ed815; " points="36,40 39,35 36,30 36,40 " description="&lt;b&gt;cds49983_50196&lt;/b&gt;&lt;br&gt;hypothetical protein&lt;br&gt;Location: 49983 - 50196" locus_tag="cds49983_50196"  />
<polygon class="clusterblast-orf" id="dummy-1_q2_0_all" style="stroke-width:1; stroke:black; fill:#15c8d8; " points="42,35 47,30 65,30 65,40 47,40 42,35 " description="&lt;b&gt;cds50340_51699&lt;/b&gt;&lt;br&gt;hypothetical protein&lt;br&gt;Location: 50340 - 51699" locus_tag="cds50340_51699"  />
<polygon class="clusterblast-orf" id="dummy-1_q3_0_all" style="stroke-width:1; stroke:black; fill:#15c8d8; " points="66,35 71,30 71,30 71,40 71,40 66,35 " description="&lt;b&gt;cds51789_52080&lt;/b&gt;&lt;br&gt;hypothetical protein&lt;br&gt;Location: 51789 - 52080" locus_tag="cds51789_52080"  />
<polygon class="clusterblast-orf" id="dummy-1_q4_0_all" style="stroke-width:1; stroke:black; fill:white; " points="72,35 75,30 75,40 72,35 " description="&lt;b&gt;cds52122_52269&lt;/b&gt;&lt;br&gt;hypothetical protein&lt;br&gt;Location: 52122 - 52269" locus_tag="cds52122_52269"  />
<polygon class="clusterblast-orf" id="dummy-1_q5_0_all" style="stroke-width:1; stroke:black; fill:white; " points="75,35 80,30 81,30 81,40 80,40 75,35 " description="&lt;b&gt;cds52283_52664&lt;/b&gt;&lt;br&gt;hypothetical protein&lt;br&gt;Location: 52283 - 52664" locus_tag="cds52283_52664"  />
<polygon class="clusterblast-orf" id="dummy-1_q6_0_all" style="stroke-width:1; stroke:black; fill:#9015d8; " points="84,35 89,30 101,30 101,40 89,40 84,35 " description="&lt;b&gt;cds52855_53857&lt;/b&gt;&lt;br&gt;hypothetical protein&lt;br&gt;Location: 52855 - 53857" locus_tag="cds52855_53857"  />
<polygon class="clusterblast-orf" id="dummy-1_q7_0_all" style="stroke-width:1; stroke:black; fill:white; " points="108,35 111,30 111,40 108,35 " description="&lt;b&gt;cds54234_54420&lt;/b&gt;&lt;br&gt;hypothetical protein&lt;br&gt;Location: 54234 - 54420" locus_tag="cds54234_54420"  />
<polygon class="clusterblast-orf" id="dummy-1_q8_0_all" style="stroke-width:1; stroke:black; fill:white; " points="112,35 114,30 114,40 112,35 " description="&lt;b&gt;cds54502_54631&lt;/b&gt;&lt;br&gt;hypothetical protein&lt;br&gt;Location: 54502 - 54631" locus_tag="cds54502_54631"  />
<polygon class="clusterblast-orf" id="dummy-1_q9_0_all" style="stroke-width:1; stroke:black; fill:white; " points="119,40 142,40 147,35 142,30 119,30 119,40 " description="&lt;b&gt;cds54871_56557&lt;/b&gt;&lt;br&gt;Peptidoglycan lipid II flippase MurJ&lt;br&gt;Location: 54871 - 56557" locus_tag="cds54871_56557"  />
<polygon class="clusterblast-orf" id="dummy-1_q10_0_all" style="stroke-width:1; stroke:black; fill:#d83715; " points="147,35 152,30 162,30 162,40 152,40 147,35 " description="&lt;b&gt;cds56570_57470&lt;/b&gt;&lt;br&gt;hypothetical protein&lt;br&gt;Location: 56570 - 57470" locus_tag="cds56570_57470"  />
<polygon class="clusterblast-orf" id="dummy-1_q11_0_all" style="stroke-width:1; stroke:black; fill:#4dd815; " points="163,35 168,30 174,30 174,40 168,40 163,35 " description="&lt;b&gt;cds57527_58124&lt;/b&gt;&lt;br&gt;Transcriptional regulator, AcrR family&lt;br&gt;Location: 57527 - 58124" locus_tag="cds57527_58124"  />
<polygon class="clusterblast-orf" id="dummy-1_q12_0_all" style="stroke-width:1; stroke:black; fill:#15a6d8; " points="175,35 180,30 191,30 191,40 180,40 175,35 " description="&lt;b&gt;cds58182_59184&lt;/b&gt;&lt;br&gt;hypothetical protein&lt;br&gt;Location: 58182 - 59184" locus_tag="cds58182_59184"  />
<polygon class="clusterblast-orf" id="dummy-1_q13_0_all" style="stroke-width:1; stroke:black; fill:white; " points="194,40 198,35 194,30 194,40 " description="&lt;b&gt;cds59316_59562&lt;/b&gt;&lt;br&gt;hypothetical protein&lt;br&gt;Location: 59316 - 59562" locus_tag="cds59316_59562"  />
<polygon class="clusterblast-orf" id="dummy-1_q14_0_all" style="stroke-width:1; stroke:black; fill:#b115d8; " points="198,40 208,40 213,35 208,30 198,30 198,40 " description="&lt;b&gt;cds59584_60433&lt;/b&gt;&lt;br&gt;putative secreted hydrolase&lt;br&gt;Location: 59584 - 60433" locus_tag="cds59584_60433"  />
<polygon class="clusterblast-orf" id="dummy-1_q15_0_all" style="stroke-width:1; stroke:black; fill:#d85815; " points="213,40 216,40 221,35 216,30 213,30 213,40 " description="&lt;b&gt;cds60468_60945&lt;/b&gt;&lt;br&gt;hypothetical protein&lt;br&gt;Location: 60468 - 60945" locus_tag="cds60468_60945"  />
<polygon class="clusterblast-orf" id="dummy-1_q16_0_all" style="stroke-width:1; stroke:black; fill:#2bd815; " points="223,40 226,40 231,35 226,30 223,30 223,40 " description="&lt;b&gt;cds61031_61532&lt;/b&gt;&lt;br&gt;hypothetical protein&lt;br&gt;Location: 61031 - 61532" locus_tag="cds61031_61532"  />
<polygon class="clusterblast-orf" id="dummy-1_q17_0_all" style="stroke-width:1; stroke:black; fill:#1585d8; " points="233,40 239,40 244,35 239,30 233,30 233,40 " description="&lt;b&gt;cds61657_62308&lt;/b&gt;&lt;br&gt;putative transcriptional regulator, TetR family&lt;br&gt;Location: 61657 - 62308" locus_tag="cds61657_62308"  />
<polygon class="clusterblast-orf" id="dummy-1_q18_0_all" style="stroke-width:1; stroke:black; fill:#d315d8; " points="244,40 254,40 259,35 254,30 244,30 244,40 " description="&lt;b&gt;cds62307_63162&lt;/b&gt;&lt;br&gt;3-hydroxybutyryl-CoA dehydrogenase (EC 1.1.1.157); 3-hydroxyacyl-CoA dehydrogenase (EC 1.1.1.35)&lt;br&gt;Location: 62307 - 63162" locus_tag="cds62307_63162"  />
<polygon class="clusterblast-orf" id="dummy-1_q19_0_all" style="stroke-width:1; stroke:black; fill:#d87915; " points="259,35 264,30 286,30 286,40 264,40 259,35 " description="&lt;b&gt;cds63184_64753&lt;/b&gt;&lt;br&gt;glycoside hydrolase&lt;br&gt;Location: 63184 - 64753" locus_tag="cds63184_64753"  />
<polygon class="clusterblast-orf" id="dummy-1_q20_0_all" style="stroke-width:1; stroke:black; fill:#15d820; " points="288,40 300,40 305,35 300,30 288,30 288,40 " description="&lt;b&gt;cds64898_65888&lt;/b&gt;&lt;br&gt;Polysaccharide deacetylase&lt;br&gt;Location: 64898 - 65888" locus_tag="cds64898_65888"  />
<polygon class="clusterblast-orf" id="dummy-1_q21_0_all" style="stroke-width:1; stroke:black; fill:#1563d8; " points="305,35 310,30 328,30 328,40 310,40 305,35 " description="&lt;b&gt;cds65894_67262&lt;/b&gt;&lt;br&gt;Pyridoxal phosphate (PLP)-dependent aspartate aminotransferase&lt;br&gt;Location: 65894 - 67262" locus_tag="cds65894_67262"  />
<polygon class="clusterblast-orf" id="dummy-1_q22_0_all" style="stroke-width:1; stroke:black; fill:#d815bc; " points="328,35 333,30 435,30 435,40 333,40 328,35 " description="&lt;b&gt;cds67258_73600&lt;/b&gt;&lt;br&gt;Polyketide synthase modules and related proteins&lt;br&gt;Location: 67258 - 73600" locus_tag="cds67258_73600"  />
<polygon class="clusterblast-orf" id="dummy-1_q23_0_all" style="stroke-width:1; stroke:black; fill:#d89b15; " points="436,35 441,30 447,30 447,40 441,40 436,35 " description="&lt;b&gt;cds73655_74285&lt;/b&gt;&lt;br&gt;puromycin N-acetyltransferase, putative&lt;br&gt;Location: 73655 - 74285" locus_tag="cds73655_74285"  />
<polygon class="clusterblast-orf" id="dummy-1_q24_0_all" style="stroke-width:1; stroke:black; fill:#15d842; " points="453,40 453,40 458,35 453,30 453,30 453,40 " description="&lt;b&gt;cds74628_74928&lt;/b&gt;&lt;br&gt;hypothetical protein&lt;br&gt;Location: 74628 - 74928" locus_tag="cds74628_74928"  />
<polygon class="clusterblast-orf" id="dummy-1_q25_0_all" style="stroke-width:1; stroke:black; fill:#1542d8; " points="459,35 464,30 466,30 466,40 464,40 459,35 " description="&lt;b&gt;cds75028_75439&lt;/b&gt;&lt;br&gt;hypothetical protein&lt;br&gt;Location: 75028 - 75439" locus_tag="cds75028_75439"  />
<polygon class="clusterblast-orf" id="dummy-1_q26_0_all" style="stroke-width:1; stroke:black; fill:#d8159b; " points="466,35 471,30 473,30 473,40 471,40 466,35 " description="&lt;b&gt;cds75438_75819&lt;/b&gt;&lt;br&gt;hypothetical protein&lt;br&gt;Location: 75438 - 75819" locus_tag="cds75438_75819"  />
<polygon class="clusterblast-orf" id="dummy-1_q27_0_all" style="stroke-width:1; stroke:black; fill:#d8bc15; " points="477,35 482,30 504,30 504,40 482,40 477,35 " description="&lt;b&gt;cds76073_77639&lt;/b&gt;&lt;br&gt;Adenylate cyclase (EC 4.6.1.1)&lt;br&gt;Location: 76073 - 77639" locus_tag="cds76073_77639"  />
<polygon class="clusterblast-orf" id="dummy-1_q28_0_all" style="stroke-width:1; stroke:black; fill:#15d863; " points="505,40 518,40 523,35 518,30 505,30 505,40 " description="&lt;b&gt;cds77743_78763&lt;/b&gt;&lt;br&gt;hypothetical protein&lt;br&gt;Location: 77743 - 78763" locus_tag="cds77743_78763"  />
<polygon class="clusterblast-orf" id="dummy-1_q29_0_all" style="stroke-width:1; stroke:black; fill:#1520d8; " points="524,40 529,40 534,35 529,30 524,30 524,40 " description="&lt;b&gt;cds78842_79424&lt;/b&gt;&lt;br&gt;stress protein&lt;br&gt;Location: 78842 - 79424" locus_tag="cds78842_79424"  />
<polygon class="clusterblast-orf" id="dummy-1_q30_0_all" style="stroke-width:1; stroke:black; fill:#d81579; " points="534,35 539,30 576,30 576,40 539,40 534,35 " description="&lt;b&gt;cds79433_81911&lt;/b&gt;&lt;br&gt;Xylulose-5-phosphate phosphoketolase (EC 4.1.2.9) @ Fructose-6-phosphate phosphoketolase (EC 4.1.2.22)&lt;br&gt;Location: 79433 - 81911" locus_tag="cds79433_81911"  />
<polygon class="clusterblast-orf" id="dummy-1_q31_0_all" style="stroke-width:1; stroke:black; fill:white; " points="582,40 585,35 582,30 582,40 " description="&lt;b&gt;cds82288_82426&lt;/b&gt;&lt;br&gt;hypothetical protein&lt;br&gt;Location: 82288 - 82426" locus_tag="cds82288_82426"  />
<polygon class="clusterblast-orf" id="dummy-1_q32_0_all" style="stroke-width:1; stroke:black; fill:#d3d815; " points="585,35 590,30 595,30 595,40 590,40 585,35 " description="&lt;b&gt;cds82458_83061&lt;/b&gt;&lt;br&gt;Transcriptional regulator, TetR family&lt;br&gt;Location: 82458 - 83061" locus_tag="cds82458_83061"  />
<polygon class="clusterblast-orf" id="dummy-1_q33_0_all" style="stroke-width:1; stroke:black; fill:#15d885; " points="596,40 611,40 616,35 611,30 596,30 596,40 " description="&lt;b&gt;cds83131_84274&lt;/b&gt;&lt;br&gt;Acyl-CoA dehydrogenase, short-chain specific (EC 1.3.8.1)&lt;br&gt;Location: 83131 - 84274" locus_tag="cds83131_84274"  />
<polygon class="clusterblast-orf" id="dummy-1_q34_0_all" style="stroke-width:1; stroke:black; fill:#2b15d8; " points="616,35 619,30 619,40 616,35 " description="&lt;b&gt;cds84287_84479&lt;/b&gt;&lt;br&gt;hypothetical protein&lt;br&gt;Location: 84287 - 84479" locus_tag="cds84287_84479"  />
<polygon class="clusterblast-orf" id="dummy-1_q35_0_all" style="stroke-width:1; stroke:black; fill:#d81558; " points="622,35 627,30 632,30 632,40 627,40 622,35 " description="&lt;b&gt;cds84640_85207&lt;/b&gt;&lt;br&gt;hypothetical protein&lt;br&gt;Location: 84640 - 85207" locus_tag="cds84640_85207"  />
<polygon class="clusterblast-orf" id="dummy-1_q36_0_all" style="stroke-width:1; stroke:black; fill:white; " points="632,40 635,35 632,30 632,40 " description="&lt;b&gt;cds85230_85392&lt;/b&gt;&lt;br&gt;hypothetical protein&lt;br&gt;Location: 85230 - 85392" locus_tag="cds85230_85392"  />
<polygon class="clusterblast-orf" id="dummy-1_q37_0_all" style="stroke-width:1; stroke:black; fill:white; " points="639,40 653,40 658,35 653,30 639,30 639,40 " description="&lt;b&gt;cds85631_86783&lt;/b&gt;&lt;br&gt;Beta-lactamase class C-like and penicillin binding proteins (PBPs) superfamily&lt;br&gt;Location: 85631 - 86783" locus_tag="cds85631_86783"  />
<polygon class="clusterblast-orf" id="dummy-1_q38_0_all" style="stroke-width:1; stroke:black; fill:#b1d815; " points="661,35 666,30 675,30 675,40 666,40 661,35 " description="&lt;b&gt;cds86918_87788&lt;/b&gt;&lt;br&gt;Transcriptional regulator, LysR family&lt;br&gt;Location: 86918 - 87788" locus_tag="cds86918_87788"  />
<polygon class="clusterblast-orf" id="dummy-1_q39_0_all" style="stroke-width:1; stroke:black; fill:#15d8a6; " points="676,40 686,40 691,35 686,30 676,30 676,40 " description="&lt;b&gt;cds87858_88746&lt;/b&gt;&lt;br&gt;Dihydrodipicolinate synthase family&lt;br&gt;Location: 87858 - 88746" locus_tag="cds87858_88746"  />
<polygon class="clusterblast-orf" id="dummy-1_q40_0_all" style="stroke-width:1; stroke:black; fill:white; " points="692,35 696,30 696,40 692,35 " description="&lt;b&gt;cds88764_88992&lt;/b&gt;&lt;br&gt;hypothetical protein&lt;br&gt;Location: 88764 - 88992" locus_tag="cds88764_88992"  />
<polygon class="clusterblast-orf" id="dummy-1_q41_0_all" style="stroke-width:1; stroke:black; fill:#4d15d8; " points="697,35 702,30 704,30 704,40 702,40 697,35 " description="&lt;b&gt;cds89094_89481&lt;/b&gt;&lt;br&gt;LSU ribosomal protein L7p/L12p (P1/P2)&lt;br&gt;Location: 89094 - 89481" locus_tag="cds89094_89481"  />
<polygon class="clusterblast-orf" id="dummy-1_q42_0_all" style="stroke-width:1; stroke:black; fill:#d81537; " points="705,35 707,30 707,40 705,35 " description="&lt;b&gt;cds89522_89690&lt;/b&gt;&lt;br&gt;hypothetical protein&lt;br&gt;Location: 89522 - 89690" locus_tag="cds89522_89690"  />
<polygon class="clusterblast-orf" id="dummy-1_q43_0_all" style="stroke-width:1; stroke:black; fill:#90d815; " points="712,40 723,40 728,35 723,30 712,30 712,40 " description="&lt;b&gt;cds89968_90877&lt;/b&gt;&lt;br&gt;hypothetical protein&lt;br&gt;Location: 89968 - 90877" locus_tag="cds89968_90877"  />
<polygon class="clusterblast-orf" id="dummy-1_q44_0_all" style="stroke-width:1; stroke:black; fill:#15d8c8; " points="728,40 738,40 743,35 738,30 728,30 728,40 " description="&lt;b&gt;cds90878_91772&lt;/b&gt;&lt;br&gt;Oxidoreductase, short-chain dehydrogenase/reductase family&lt;br&gt;Location: 90878 - 91772" locus_tag="cds90878_91772"  />
<polygon class="clusterblast-orf" id="dummy-1_q45_0_all" style="stroke-width:1; stroke:black; fill:#6e15d8; " points="743,40 753,40 758,35 753,30 743,30 743,40 " description="&lt;b&gt;cds91773_92694&lt;/b&gt;&lt;br&gt;hypothetical protein&lt;br&gt;Location: 91773 - 92694" locus_tag="cds91773_92694"  />
</g>
<g class="clusterblast-cluster" description="NC_016887 (3477801-3523919): Nocardia cyriacigeorgica GUH-2, complete genome (7% of genes show similarity), T1PKS" label="NC_016887"  >
<text y="70" class="clusterblast-acc" x="5"  >
<a xlink:href="https://antismash-db.secondarymetabolites.org/area.html?record=NC_016887&amp;start=3477801&amp;end=3523919" target="_blank">NC_016887 (3477801-3523919)</a>: Nocardia cyriacigeorgica GUH-2, complete genome (7% of genes show similarity), T1PKS</text>
<line y1="85" y2="85" x2="778.0" style="stroke-width:1; stroke:grey; " x1="10"  />
</g>
<g id="a1_000"  >
<polygon class="clusterblast-orf" id="dummy-1_h1_8_0" style="stroke-width:1; stroke:black; fill:white; " points="0,90 2,90 7,85 2,80 0,80 0,90 " description="&lt;b&gt;NOCYR_RS15585&lt;/b&gt;&lt;br&gt;VOC family protein&lt;br&gt;Location: 3477802 - 3478254" locus_tag="NOCYR_RS15585"  />
</g>
<g id="a1_001"  >
<polygon class="clusterblast-orf" id="dummy-1_h1_8_1" style="stroke-width:1; stroke:black; fill:white; " points="8,90 10,90 15,85 10,80 8,80 8,90 " description="&lt;b&gt;NOCYR_RS15590&lt;/b&gt;&lt;br&gt;nuclear transport factor 2 family protein&lt;br&gt;Location: 3478316 - 3478741" locus_tag="NOCYR_RS15590"  />
</g>
<g id="a1_002"  >
<polygon class="clusterblast-orf" id="dummy-1_h1_8_2" style="stroke-width:1; stroke:black; fill:white; " points="17,90 20,90 25,85 20,80 17,80 17,90 " description="&lt;b&gt;NOCYR_RS15595&lt;/b&gt;&lt;br&gt;nuclear transport factor 2 family protein&lt;br&gt;Location: 3478820 - 3479296" locus_tag="NOCYR_RS15595"  />
</g>
<g id="a1_003"  >
<polygon class="clusterblast-orf" id="dummy-1_h1_8_3" style="stroke-width:1; stroke:black; fill:white; " points="27,90 78,90 83,85 78,80 27,80 27,90 " description="&lt;b&gt;NOCYR_RS15600&lt;/b&gt;&lt;br&gt;protein kinase&lt;br&gt;Location: 3479406 - 3482726" locus_tag="NOCYR_RS15600"  />
</g>
<g id="a1_004"  >
<polygon class="clusterblast-orf" id="dummy-1_h1_8_4" style="stroke-width:1; stroke:black; fill:white; " points="83,85 88,80 112,80 112,90 88,90 83,85 " description="&lt;b&gt;NOCYR_RS15605&lt;/b&gt;&lt;br&gt;DUF3556 domain-containing protein&lt;br&gt;Location: 3482715 - 3484463" locus_tag="NOCYR_RS15605"  />
</g>
<g id="a1_005"  >
<polygon class="clusterblast-orf" id="dummy-1_h1_8_5" style="stroke-width:1; stroke:black; fill:white; " points="115,85 120,80 140,80 140,90 120,90 115,85 " description="&lt;b&gt;NOCYR_RS15610&lt;/b&gt;&lt;br&gt;multidrug efflux MFS transporter&lt;br&gt;Location: 3484648 - 3486132" locus_tag="NOCYR_RS15610"  />
</g>
<g id="a1_006"  >
<polygon class="clusterblast-orf" id="dummy-1_h1_8_6" style="stroke-width:1; stroke:black; fill:white; " points="144,85 149,80 162,80 162,90 149,90 144,85 " description="&lt;b&gt;NOCYR_RS15615&lt;/b&gt;&lt;br&gt;hypothetical protein&lt;br&gt;Location: 3486354 - 3487409" locus_tag="NOCYR_RS15615"  />
</g>
<g id="a1_007"  >
<polygon class="clusterblast-orf" id="dummy-1_h1_8_7" style="stroke-width:1; stroke:black; fill:white; " points="164,85 169,80 179,80 179,90 169,90 164,85 " description="&lt;b&gt;NOCYR_RS15620&lt;/b&gt;&lt;br&gt;LysR family transcriptional regulator&lt;br&gt;Location: 3487531 - 3488421" locus_tag="NOCYR_RS15620"  />
</g>
<g id="a1_008"  >
<polygon class="clusterblast-orf" id="dummy-1_h1_8_8" style="stroke-width:1; stroke:black; fill:white; " points="180,90 191,90 196,85 191,80 180,80 180,90 " description="&lt;b&gt;NOCYR_RS15625&lt;/b&gt;&lt;br&gt;EamA family transporter&lt;br&gt;Location: 3488501 - 3489448" locus_tag="NOCYR_RS15625"  />
</g>
<g id="a1_009"  >
<polygon class="clusterblast-orf" id="dummy-1_h1_8_9" style="stroke-width:1; stroke:black; fill:white; " points="196,90 202,90 207,85 202,80 196,80 196,90 " description="&lt;b&gt;NOCYR_RS15630&lt;/b&gt;&lt;br&gt;NAD(P)H-binding protein&lt;br&gt;Location: 3489445 - 3490077" locus_tag="NOCYR_RS15630"  />
</g>
<g id="a1_0010"  >
<polygon class="clusterblast-orf" id="dummy-1_h1_8_10" style="stroke-width:1; stroke:black; fill:white; " points="208,90 218,90 223,85 218,80 208,80 208,90 " description="&lt;b&gt;NOCYR_RS15635&lt;/b&gt;&lt;br&gt;hypothetical protein&lt;br&gt;Location: 3490107 - 3491045" locus_tag="NOCYR_RS15635"  />
</g>
<g id="a1_0011"  >
<polygon class="clusterblast-orf" id="dummy-1_h1_8_11" style="stroke-width:1; stroke:black; fill:white; " points="225,90 237,90 242,85 237,80 225,80 225,90 " description="&lt;b&gt;NOCYR_RS15640&lt;/b&gt;&lt;br&gt;Carminomycin 4-O-methyltransferase (COMT)&lt;br&gt;Location: 3491130 - 3492152" locus_tag="NOCYR_RS15640"  />
</g>
<g id="a1_0012"  >
<polygon class="clusterblast-orf" id="dummy-1_h1_8_12" style="stroke-width:1; stroke:black; fill:white; " points="242,85 247,80 250,80 250,90 247,90 242,85 " description="&lt;b&gt;NOCYR_RS15645&lt;/b&gt;&lt;br&gt;nitroreductase family deazaflavin-dependent oxidoreductase&lt;br&gt;Location: 3492161 - 3492625" locus_tag="NOCYR_RS15645"  />
</g>
<g id="a1_0013"  >
<polygon class="clusterblast-orf" id="dummy-1_h1_8_13" style="stroke-width:1; stroke:black; fill:white; " points="250,85 255,80 260,80 260,90 255,90 250,85 " description="&lt;b&gt;NOCYR_RS15650&lt;/b&gt;&lt;br&gt;helix-turn-helix transcriptional regulator&lt;br&gt;Location: 3492630 - 3493217" locus_tag="NOCYR_RS15650"  />
</g>
<g id="a1_0014"  >
<polygon class="clusterblast-orf" id="dummy-1_h1_8_14" style="stroke-width:1; stroke:black; fill:white; " points="267,90 276,90 281,85 276,80 267,80 267,90 " description="&lt;b&gt;NOCYR_RS15655&lt;/b&gt;&lt;br&gt;LLM class F420-dependent oxidoreductase&lt;br&gt;Location: 3493600 - 3494463" locus_tag="NOCYR_RS15655"  />
</g>
<g id="a1_0015"  >
<polygon class="clusterblast-orf" id="dummy-1_h1_8_15" style="stroke-width:1; stroke:black; fill:white; " points="281,85 286,80 292,80 292,90 286,90 281,85 " description="&lt;b&gt;NOCYR_RS15660&lt;/b&gt;&lt;br&gt;TetR family transcriptional regulator&lt;br&gt;Location: 3494466 - 3495104" locus_tag="NOCYR_RS15660"  />
</g>
<g id="a1_0016"  >
<polygon class="clusterblast-orf" id="dummy-1_h1_8_16" style="stroke-width:1; stroke:black; fill:white; " points="294,85 299,80 312,80 312,90 299,90 294,85 " description="&lt;b&gt;NOCYR_RS15665&lt;/b&gt;&lt;br&gt;hypothetical protein&lt;br&gt;Location: 3495205 - 3496275" locus_tag="NOCYR_RS15665"  />
</g>
<g id="a1_0017"  >
<polygon class="clusterblast-orf" id="dummy-1_h1_8_17" style="stroke-width:1; stroke:black; fill:#1563d8; " points="312,85 317,80 336,80 336,90 317,90 312,85 " description="&lt;b&gt;NOCYR_RS15670&lt;/b&gt;&lt;br&gt;aminotransferase class I/II-fold pyridoxal phosphate-dependent enzyme&lt;br&gt;Location: 3496272 - 3497693&lt;br&gt;&lt;br&gt;&lt;b&gt;BlastP hit with cds65894_67262&lt;/b&gt;&lt;br&gt;Percentage identity: 69&lt;br&gt;Percentage coverage: 104&lt;br&gt;BLAST bit score: 642&lt;br&gt;E-value: 2.7e-182" locus_tag="NOCYR_RS15670"  />
</g>
<g id="a1_0018"  >
<polygon class="clusterblast-orf" id="dummy-1_h1_8_18" style="stroke-width:1; stroke:black; fill:#d815bc; " points="336,85 341,80 444,80 444,90 341,90 336,85 " description="&lt;b&gt;NOCYR_RS15675&lt;/b&gt;&lt;br&gt;type I polyketide synthase&lt;br&gt;Location: 3497690 - 3504085&lt;br&gt;&lt;br&gt;&lt;b&gt;BlastP hit with cds67258_73600&lt;/b&gt;&lt;br&gt;Percentage identity: 76&lt;br&gt;Percentage coverage: 100&lt;br&gt;BLAST bit score: 3176&lt;br&gt;E-value: 0.0" locus_tag="NOCYR_RS15675"  />
</g>
<g id="a1_0019"  >
<polygon class="clusterblast-orf" id="dummy-1_h1_8_19" style="stroke-width:1; stroke:black; fill:#d89b15; " points="446,85 451,80 456,80 456,90 451,90 446,85 " description="&lt;b&gt;NOCYR_RS15680&lt;/b&gt;&lt;br&gt;GNAT family N-acetyltransferase&lt;br&gt;Location: 3504194 - 3504772&lt;br&gt;&lt;br&gt;&lt;b&gt;BlastP hit with cds73655_74285&lt;/b&gt;&lt;br&gt;Percentage identity: 57&lt;br&gt;Percentage coverage: 89&lt;br&gt;BLAST bit score: 231&lt;br&gt;E-value: 8.7e-59" locus_tag="NOCYR_RS15680"  />
</g>
<g id="a1_0020"  >
<polygon class="clusterblast-orf" id="dummy-1_h1_8_20" style="stroke-width:1; stroke:black; fill:white; " points="463,85 468,80 493,80 493,90 468,90 463,85 " description="&lt;b&gt;NOCYR_RS15685&lt;/b&gt;&lt;br&gt;hypothetical protein&lt;br&gt;Location: 3505217 - 3506956" locus_tag="NOCYR_RS15685"  />
</g>
<g id="a1_0021"  >
<polygon class="clusterblast-orf" id="dummy-1_h1_8_21" style="stroke-width:1; stroke:black; fill:white; " points="504,90 507,90 512,85 507,80 504,80 504,90 " description="&lt;b&gt;NOCYR_RS15690&lt;/b&gt;&lt;br&gt;DUF4254 domain-containing protein&lt;br&gt;Location: 3507612 - 3508130" locus_tag="NOCYR_RS15690"  />
</g>
<g id="a1_0022"  >
<polygon class="clusterblast-orf" id="dummy-1_h1_8_22" style="stroke-width:1; stroke:black; fill:white; " points="513,85 518,80 528,80 528,90 518,90 513,85 " description="&lt;b&gt;NOCYR_RS15695&lt;/b&gt;&lt;br&gt;hypothetical protein&lt;br&gt;Location: 3508150 - 3509022" locus_tag="NOCYR_RS15695"  />
</g>
<g id="a1_0023"  >
<polygon class="clusterblast-orf" id="dummy-1_h1_8_23" style="stroke-width:1; stroke:black; fill:white; " points="528,85 533,80 538,80 538,90 533,90 528,85 " description="&lt;b&gt;NOCYR_RS15700&lt;/b&gt;&lt;br&gt;TetR/AcrR family transcriptional regulator&lt;br&gt;Location: 3509050 - 3509634" locus_tag="NOCYR_RS15700"  />
</g>
<g id="a1_0024"  >
<polygon class="clusterblast-orf" id="dummy-1_h1_8_24" style="stroke-width:1; stroke:black; fill:white; " points="541,90 546,90 551,85 546,80 541,80 541,90 " description="&lt;b&gt;NOCYR_RS15705&lt;/b&gt;&lt;br&gt;DUF2867 domain-containing protein&lt;br&gt;Location: 3509789 - 3510388" locus_tag="NOCYR_RS15705"  />
</g>
<g id="a1_0025"  >
<polygon class="clusterblast-orf" id="dummy-1_h1_8_25" style="stroke-width:1; stroke:black; fill:white; " points="554,85 559,80 563,80 563,90 559,90 554,85 " description="&lt;b&gt;NOCYR_RS15710&lt;/b&gt;&lt;br&gt;DUF1992 domain-containing protein&lt;br&gt;Location: 3510610 - 3511095" locus_tag="NOCYR_RS15710"  />
</g>
<g id="a1_0026"  >
<polygon class="clusterblast-orf" id="dummy-1_h1_8_26" style="stroke-width:1; stroke:black; fill:white; " points="563,85 568,80 576,80 576,90 568,90 563,85 " description="&lt;b&gt;NOCYR_RS15715&lt;/b&gt;&lt;br&gt;hypothetical protein&lt;br&gt;Location: 3511135 - 3511860" locus_tag="NOCYR_RS15715"  />
</g>
<g id="a1_0027"  >
<polygon class="clusterblast-orf" id="dummy-1_h1_8_27" style="stroke-width:1; stroke:black; fill:white; " points="576,85 581,80 585,80 585,90 581,90 576,85 " description="&lt;b&gt;NOCYR_RS15720&lt;/b&gt;&lt;br&gt;PadR family transcriptional regulator&lt;br&gt;Location: 3511860 - 3512441" locus_tag="NOCYR_RS15720"  />
</g>
<g id="a1_0028"  >
<polygon class="clusterblast-orf" id="dummy-1_h1_8_28" style="stroke-width:1; stroke:black; fill:white; " points="588,85 593,80 594,80 594,90 593,90 588,85 " description="&lt;b&gt;NOCYR_RS15725&lt;/b&gt;&lt;br&gt;hypothetical protein&lt;br&gt;Location: 3512578 - 3512928" locus_tag="NOCYR_RS15725"  />
</g>
<g id="a1_0029"  >
<polygon class="clusterblast-orf" id="dummy-1_h1_8_29" style="stroke-width:1; stroke:black; fill:white; " points="596,85 601,80 609,80 609,90 601,90 596,85 " description="&lt;b&gt;NOCYR_RS15730&lt;/b&gt;&lt;br&gt;alpha/beta fold hydrolase&lt;br&gt;Location: 3513042 - 3513863" locus_tag="NOCYR_RS15730"  />
</g>
<g id="a1_0030"  >
<polygon class="clusterblast-orf" id="dummy-1_h1_8_30" style="stroke-width:1; stroke:black; fill:white; " points="611,85 616,80 637,80 637,90 616,90 611,85 " description="&lt;b&gt;NOCYR_RS15735&lt;/b&gt;&lt;br&gt;AIM24 family protein&lt;br&gt;Location: 3513953 - 3515488" locus_tag="NOCYR_RS15735"  />
</g>
<g id="a1_0031"  >
<polygon class="clusterblast-orf" id="dummy-1_h1_8_31" style="stroke-width:1; stroke:black; fill:white; " points="640,85 645,80 653,80 653,90 645,90 640,85 " description="&lt;b&gt;NOCYR_RS15740&lt;/b&gt;&lt;br&gt;glucosamine-6-phosphate deaminase&lt;br&gt;Location: 3515657 - 3516436" locus_tag="NOCYR_RS15740"  />
</g>
<g id="a1_0032"  >
<polygon class="clusterblast-orf" id="dummy-1_h1_8_32" style="stroke-width:1; stroke:black; fill:white; " points="653,85 658,80 673,80 673,90 658,90 653,85 " description="&lt;b&gt;NOCYR_RS15745&lt;/b&gt;&lt;br&gt;amidohydrolase family protein&lt;br&gt;Location: 3516424 - 3517617" locus_tag="NOCYR_RS15745"  />
</g>
<g id="a1_0033"  >
<polygon class="clusterblast-orf" id="dummy-1_h1_8_33" style="stroke-width:1; stroke:black; fill:white; " points="673,85 678,80 695,80 695,90 678,90 673,85 " description="&lt;b&gt;NOCYR_RS15750&lt;/b&gt;&lt;br&gt;PTS transporter subunit EIIC&lt;br&gt;Location: 3517638 - 3518924" locus_tag="NOCYR_RS15750"  />
</g>
<g id="a1_0034"  >
<polygon class="clusterblast-orf" id="dummy-1_h1_8_34" style="stroke-width:1; stroke:black; fill:white; " points="699,90 703,85 699,80 699,90 " description="&lt;b&gt;NOCYR_RS15755&lt;/b&gt;&lt;br&gt;PTS transporter subunit EIIB&lt;br&gt;Location: 3519143 - 3519373" locus_tag="NOCYR_RS15755"  />
</g>
<g id="a1_0035"  >
<polygon class="clusterblast-orf" id="dummy-1_h1_8_35" style="stroke-width:1; stroke:black; fill:white; " points="703,90 706,90 711,85 706,80 703,80 703,90 " description="&lt;b&gt;NOCYR_RS15760&lt;/b&gt;&lt;br&gt;PTS glucose transporter subunit IIA&lt;br&gt;Location: 3519370 - 3519840" locus_tag="NOCYR_RS15760"  />
</g>
<g id="a1_0036"  >
<polygon class="clusterblast-orf" id="dummy-1_h1_8_36" style="stroke-width:1; stroke:black; fill:white; " points="711,85 716,80 723,80 723,90 716,90 711,85 " description="&lt;b&gt;NOCYR_RS15765&lt;/b&gt;&lt;br&gt;GntR family transcriptional regulator&lt;br&gt;Location: 3519857 - 3520594" locus_tag="NOCYR_RS15765"  />
</g>
<g id="a1_0037"  >
<polygon class="clusterblast-orf" id="dummy-1_h1_8_37" style="stroke-width:1; stroke:black; fill:white; " points="726,85 731,80 749,80 749,90 731,90 726,85 " description="&lt;b&gt;NOCYR_RS15770&lt;/b&gt;&lt;br&gt;MFS transporter&lt;br&gt;Location: 3520749 - 3522143" locus_tag="NOCYR_RS15770"  />
</g>
<g id="a1_0038"  >
<polygon class="clusterblast-orf" id="dummy-1_h1_8_38" style="stroke-width:1; stroke:black; fill:white; " points="751,90 759,90 764,85 759,80 751,80 751,90 " description="&lt;b&gt;NOCYR_RS15775&lt;/b&gt;&lt;br&gt;TetR/AcrR family transcriptional regulator C-terminal domain-containing protein&lt;br&gt;Location: 3522261 - 3523010" locus_tag="NOCYR_RS15775"  />
</g>
<g id="a1_0039"  >
<polygon class="clusterblast-orf" id="dummy-1_h1_8_39" style="stroke-width:1; stroke:black; fill:white; " points="764,85 769,80 780,80 780,90 769,90 764,85 " description="&lt;b&gt;NOCYR_RS15780&lt;/b&gt;&lt;br&gt;helix-turn-helix domain-containing protein&lt;br&gt;Location: 3523023 - 3523919" locus_tag="NOCYR_RS15780"  />
</g>
</svg>
