<svg y="0" preserveAspectRatio="none" viewBox="0 0 800 230" xmlns="http://www.w3.org/2000/svg" xmlns:xlink="http://www.w3.org/1999/xlink" version="1.1" x="0" width="800" height="230"  >
<g class="clusterblast-cluster" label="Query sequence"  >
<text y="20" class="clusterblast-acc" x="5"  >
Query sequence</text>
<line y1="35" y2="35" x2="778.0" style="stroke-width:1; stroke:grey; " x1="10"  />
<polygon class="clusterblast-orf" id="dummy-1_q0_0_all" style="stroke-width:1; stroke:black; fill:#d81515; " points="143,40 171,40 176,35 171,30 143,30 143,40 " description="&lt;b&gt;cds209_2042&lt;/b&gt;&lt;br&gt;Translation initiation factor 2&lt;br&gt;Location: 209 - 2042" locus_tag="cds209_2042"  />
<polygon class="clusterblast-orf" id="dummy-1_q1_0_all" style="stroke-width:1; stroke:black; fill:#77d815; " points="178,40 179,40 184,35 179,30 178,30 178,40 " description="&lt;b&gt;cds2165_2468&lt;/b&gt;&lt;br&gt;YlxP-like protein&lt;br&gt;Location: 2165 - 2468" locus_tag="cds2165_2468"  />
<polygon class="clusterblast-orf" id="dummy-1_q2_0_all" style="stroke-width:1; stroke:black; fill:#15d8d8; " points="184,40 187,40 192,35 187,30 184,30 184,40 " description="&lt;b&gt;cds2492_2942&lt;/b&gt;&lt;br&gt;Ribosome-binding factor A&lt;br&gt;Location: 2492 - 2942" locus_tag="cds2492_2942"  />
<polygon class="clusterblast-orf" id="dummy-1_q3_0_all" style="stroke-width:1; stroke:black; fill:#7715d8; " points="194,40 209,40 214,35 209,30 194,30 194,40 " description="&lt;b&gt;cds3027_4128&lt;/b&gt;&lt;br&gt;Cyclic-di-AMP phosphodiesterase MSMEG 2630&lt;br&gt;Location: 3027 - 4128" locus_tag="cds3027_4128"  />
<polygon class="clusterblast-orf" id="dummy-1_q4_0_all" style="stroke-width:1; stroke:black; fill:#d85015; " points="220,40 278,40 283,35 278,30 220,30 220,40 " description="&lt;b&gt;cds4461_7932&lt;/b&gt;&lt;br&gt;Polyketide synthase modules and related proteins @ Long-chain fatty-acid-CoA ligase (EC 6.2.1.3), Mycobacterial subgroup FadD9&lt;br&gt;Location: 4461 - 7932" locus_tag="cds4461_7932"  />
<polygon class="clusterblast-orf" id="dummy-1_q5_0_all" style="stroke-width:1; stroke:black; fill:#3cd815; " points="282,35 287,30 298,30 298,40 287,40 282,35 " description="&lt;b&gt;cds7911_8784&lt;/b&gt;&lt;br&gt;Transcriptional regulator, Xre family&lt;br&gt;Location: 7911 - 8784" locus_tag="cds7911_8784"  />
<polygon class="clusterblast-orf" id="dummy-1_q6_0_all" style="stroke-width:1; stroke:black; fill:#159ed8; " points="298,35 303,30 307,30 307,40 303,40 298,35 " description="&lt;b&gt;cds8780_9302&lt;/b&gt;&lt;br&gt;hypothetical protein&lt;br&gt;Location: 8780 - 9302" locus_tag="cds8780_9302"  />
<polygon class="clusterblast-orf" id="dummy-1_q7_0_all" style="stroke-width:1; stroke:black; fill:#b115d8; " points="307,35 311,30 311,40 307,35 " description="&lt;b&gt;cds9282_9501&lt;/b&gt;&lt;br&gt;hypothetical protein&lt;br&gt;Location: 9282 - 9501" locus_tag="cds9282_9501"  />
<polygon class="clusterblast-orf" id="dummy-1_q8_0_all" style="stroke-width:1; stroke:black; fill:white; " points="317,40 321,40 326,35 321,30 317,30 317,40 " description="&lt;b&gt;cds9834_10335&lt;/b&gt;&lt;br&gt;hypothetical protein&lt;br&gt;Location: 9834 - 10335" locus_tag="cds9834_10335"  />
<polygon class="clusterblast-orf" id="dummy-1_q9_0_all" style="stroke-width:1; stroke:black; fill:white; " points="327,40 329,35 327,30 327,40 " description="&lt;b&gt;cds10415_10532&lt;/b&gt;&lt;br&gt;hypothetical protein&lt;br&gt;Location: 10415 - 10532" locus_tag="cds10415_10532"  />
<polygon class="clusterblast-orf" id="dummy-1_q10_0_all" style="stroke-width:1; stroke:black; fill:white; " points="331,40 354,40 359,35 354,30 331,30 331,40 " description="&lt;b&gt;cds10595_12149&lt;/b&gt;&lt;br&gt;hypothetical protein&lt;br&gt;Location: 10595 - 12149" locus_tag="cds10595_12149"  />
<polygon class="clusterblast-orf" id="dummy-1_q11_0_all" style="stroke-width:1; stroke:black; fill:#d88a15; " points="359,35 364,30 372,30 372,40 364,40 359,35 " description="&lt;b&gt;cds12179_12869&lt;/b&gt;&lt;br&gt;hypothetical protein&lt;br&gt;Location: 12179 - 12869" locus_tag="cds12179_12869"  />
<polygon class="clusterblast-orf" id="dummy-1_q12_0_all" style="stroke-width:1; stroke:black; fill:white; " points="374,40 374,40 379,35 374,30 374,30 374,40 " description="&lt;b&gt;cds13027_13252&lt;/b&gt;&lt;br&gt;hypothetical protein&lt;br&gt;Location: 13027 - 13252" locus_tag="cds13027_13252"  />
<polygon class="clusterblast-orf" id="dummy-1_q13_0_all" style="stroke-width:1; stroke:black; fill:#15d829; " points="382,40 384,40 389,35 384,30 382,30 382,40 " description="&lt;b&gt;cds13420_13858&lt;/b&gt;&lt;br&gt;putative membrane protein&lt;br&gt;Location: 13420 - 13858" locus_tag="cds13420_13858"  />
<polygon class="clusterblast-orf" id="dummy-1_q14_0_all" style="stroke-width:1; stroke:black; fill:white; " points="396,35 399,30 399,40 396,35 " description="&lt;b&gt;cds14232_14406&lt;/b&gt;&lt;br&gt;hypothetical protein&lt;br&gt;Location: 14232 - 14406" locus_tag="cds14232_14406"  />
<polygon class="clusterblast-orf" id="dummy-1_q15_0_all" style="stroke-width:1; stroke:black; fill:#1563d8; " points="400,40 421,40 426,35 421,30 400,30 400,40 " description="&lt;b&gt;cds14454_15858&lt;/b&gt;&lt;br&gt;putative DNA-damage-inducible protein F&lt;br&gt;Location: 14454 - 15858" locus_tag="cds14454_15858"  />
<polygon class="clusterblast-orf" id="dummy-1_q16_0_all" style="stroke-width:1; stroke:black; fill:#d815c5; " points="426,35 431,30 446,30 446,40 431,40 426,35 " description="&lt;b&gt;cds15854_16982&lt;/b&gt;&lt;br&gt;3-ketosteroid-9-alpha-monooxygenase, oxygenase component (EC 1.14.13.142)&lt;br&gt;Location: 15854 - 16982" locus_tag="cds15854_16982"  />
<polygon class="clusterblast-orf" id="dummy-1_q17_0_all" style="stroke-width:1; stroke:black; fill:#d8c515; " points="447,35 452,30 457,30 457,40 452,40 447,35 " description="&lt;b&gt;cds17023_17584&lt;/b&gt;&lt;br&gt;hypothetical protein&lt;br&gt;Location: 17023 - 17584" locus_tag="cds17023_17584"  />
<polygon class="clusterblast-orf" id="dummy-1_q18_0_all" style="stroke-width:1; stroke:black; fill:#15d863; " points="459,40 483,40 488,35 483,30 459,30 459,40 " description="&lt;b&gt;cds17721_19317&lt;/b&gt;&lt;br&gt;DnaK protein (heat shock protein), HSP70/DnaK family&lt;br&gt;Location: 17721 - 19317" locus_tag="cds17721_19317"  />
<polygon class="clusterblast-orf" id="dummy-1_q19_0_all" style="stroke-width:1; stroke:black; fill:#1529d8; " points="488,40 538,40 543,35 538,30 488,30 488,40 " description="&lt;b&gt;cds19327_22351&lt;/b&gt;&lt;br&gt;hypothetical protein&lt;br&gt;Location: 19327 - 22351" locus_tag="cds19327_22351"  />
<polygon class="clusterblast-orf" id="dummy-1_q20_0_all" style="stroke-width:1; stroke:black; fill:#d8158a; " points="546,40 559,40 564,35 559,30 546,30 546,40 " description="&lt;b&gt;cds22542_23502&lt;/b&gt;&lt;br&gt;putative SimX4 homolog&lt;br&gt;Location: 22542 - 23502" locus_tag="cds22542_23502"  />
<polygon class="clusterblast-orf" id="dummy-1_q21_0_all" style="stroke-width:1; stroke:black; fill:#b1d815; " points="566,40 583,40 588,35 583,30 566,30 566,40 " description="&lt;b&gt;cds23620_24847&lt;/b&gt;&lt;br&gt;Xanthine and CO dehydrogenases maturation factor, XdhC/CoxF family&lt;br&gt;Location: 23620 - 24847" locus_tag="cds23620_24847"  />
<polygon class="clusterblast-orf" id="dummy-1_q22_0_all" style="stroke-width:1; stroke:black; fill:#15d89e; " points="589,35 592,30 592,40 589,35 " description="&lt;b&gt;cds24906_25050&lt;/b&gt;&lt;br&gt;hypothetical protein&lt;br&gt;Location: 24906 - 25050" locus_tag="cds24906_25050"  />
<polygon class="clusterblast-orf" id="dummy-1_q23_0_all" style="stroke-width:1; stroke:black; fill:#3c15d8; " points="595,35 600,30 621,30 621,40 600,40 595,35 " description="&lt;b&gt;cds25222_26665&lt;/b&gt;&lt;br&gt;hypothetical protein&lt;br&gt;Location: 25222 - 26665" locus_tag="cds25222_26665"  />
<polygon class="clusterblast-orf" id="dummy-1_q24_0_all" style="stroke-width:1; stroke:black; fill:white; " points="623,40 626,35 623,30 623,40 " description="&lt;b&gt;cds26822_26987&lt;/b&gt;&lt;br&gt;hypothetical protein&lt;br&gt;Location: 26822 - 26987" locus_tag="cds26822_26987"  />
<polygon class="clusterblast-orf" id="dummy-1_q25_0_all" style="stroke-width:1; stroke:black; fill:#d81550; " points="627,35 632,30 636,30 636,40 632,40 627,35 " description="&lt;b&gt;cds27016_27529&lt;/b&gt;&lt;br&gt;AclJ&lt;br&gt;Location: 27016 - 27529" locus_tag="cds27016_27529"  />
</g>
<g class="clusterblast-cluster" description="NZ_CP041695 (4596294-4639507): Nocardia otitidiscaviarum strain NEB252 chromo... (45% of genes show similarity), NRPS-like" label="NZ_CP041695"  >
<text y="70" class="clusterblast-acc" x="5"  >
<a xlink:href="https://antismash-db.secondarymetabolites.org/area.html?record=NZ_CP041695&amp;start=4596294&amp;end=4639507" target="_blank">NZ_CP041695 (4596294-4639507)</a>: Nocardia otitidiscaviarum strain NEB252 chromo... (45% of genes show similarity), NRPS-like</text>
<line y1="85" y2="85" x2="778.0" style="stroke-width:1; stroke:grey; " x1="10"  />
</g>
<g id="a1_000"  >
<polygon class="clusterblast-orf" id="dummy-1_h1_1_0" style="stroke-width:1; stroke:black; fill:white; " points="0,85 5,80 19,80 19,90 5,90 0,85 " description="&lt;b&gt;FOH10_RS20730&lt;/b&gt;&lt;br&gt;sensor histidine kinase&lt;br&gt;Location: 4639507 - 4638404" locus_tag="FOH10_RS20730"  />
</g>
<g id="a1_001"  >
<polygon class="clusterblast-orf" id="dummy-1_h1_1_1" style="stroke-width:1; stroke:black; fill:white; " points="23,90 25,90 30,85 25,80 23,80 23,90 " description="&lt;b&gt;FOH10_RS20725&lt;/b&gt;&lt;br&gt;hypothetical protein&lt;br&gt;Location: 4638216 - 4637815" locus_tag="FOH10_RS20725"  />
</g>
<g id="a1_002"  >
<polygon class="clusterblast-orf" id="dummy-1_h1_1_2" style="stroke-width:1; stroke:black; fill:white; " points="30,85 35,80 39,80 39,90 35,90 30,85 " description="&lt;b&gt;FOH10_RS20720&lt;/b&gt;&lt;br&gt;nuclear transport factor 2 family protein&lt;br&gt;Location: 4637796 - 4637317" locus_tag="FOH10_RS20720"  />
</g>
<g id="a1_003"  >
<polygon class="clusterblast-orf" id="dummy-1_h1_1_3" style="stroke-width:1; stroke:black; fill:white; " points="41,90 49,90 54,85 49,80 41,80 41,90 " description="&lt;b&gt;FOH10_RS20715&lt;/b&gt;&lt;br&gt;sporulation protein&lt;br&gt;Location: 4637224 - 4636466" locus_tag="FOH10_RS20715"  />
</g>
<g id="a1_004"  >
<polygon class="clusterblast-orf" id="dummy-1_h1_1_4" style="stroke-width:1; stroke:black; fill:white; " points="55,90 70,90 75,85 70,80 55,80 55,90 " description="&lt;b&gt;FOH10_RS20710&lt;/b&gt;&lt;br&gt;dihydrodipicolinate reductase&lt;br&gt;Location: 4636413 - 4635334" locus_tag="FOH10_RS20710"  />
</g>
<g id="a1_005"  >
<polygon class="clusterblast-orf" id="dummy-1_h1_1_5" style="stroke-width:1; stroke:black; fill:white; " points="75,90 79,90 84,85 79,80 75,80 75,90 " description="&lt;b&gt;FOH10_RS20705&lt;/b&gt;&lt;br&gt;carboxymuconolactone decarboxylase family protein&lt;br&gt;Location: 4635337 - 4634846" locus_tag="FOH10_RS20705"  />
</g>
<g id="a1_006"  >
<polygon class="clusterblast-orf" id="dummy-1_h1_1_6" style="stroke-width:1; stroke:black; fill:white; " points="92,85 97,80 106,80 106,90 97,90 92,85 " description="&lt;b&gt;FOH10_RS20700&lt;/b&gt;&lt;br&gt;peroxide stress protein YaaA&lt;br&gt;Location: 4634365 - 4633622" locus_tag="FOH10_RS20700"  />
</g>
<g id="a1_007"  >
<polygon class="clusterblast-orf" id="dummy-1_h1_1_7" style="stroke-width:1; stroke:black; fill:white; " points="107,90 134,90 139,85 134,80 107,80 107,90 " description="&lt;b&gt;FOH10_RS20695&lt;/b&gt;&lt;br&gt;proline--tRNA ligase&lt;br&gt;Location: 4633563 - 4631806" locus_tag="FOH10_RS20695"  />
</g>
<g id="a1_008"  >
<polygon class="clusterblast-orf" id="dummy-1_h1_1_8" style="stroke-width:1; stroke:black; fill:white; " points="141,85 146,80 150,80 150,90 146,90 141,85 " description="&lt;b&gt;FOH10_RS20690&lt;/b&gt;&lt;br&gt;nitroreductase family deazaflavin-dependent oxidoreductase&lt;br&gt;Location: 4631660 - 4631178" locus_tag="FOH10_RS20690"  />
</g>
<g id="a1_009"  >
<polygon class="clusterblast-orf" id="dummy-1_h1_1_9" style="stroke-width:1; stroke:black; fill:white; " points="152,85 157,80 163,80 163,90 157,90 152,85 " description="&lt;b&gt;FOH10_RS20685&lt;/b&gt;&lt;br&gt;TetR family transcriptional regulator&lt;br&gt;Location: 4631081 - 4630461" locus_tag="FOH10_RS20685"  />
</g>
<g id="a1_0010"  >
<polygon class="clusterblast-orf" id="dummy-1_h1_1_10" style="stroke-width:1; stroke:black; fill:white; " points="167,85 172,80 187,80 187,90 172,90 167,85 " description="&lt;b&gt;FOH10_RS20680&lt;/b&gt;&lt;br&gt;hypothetical protein&lt;br&gt;Location: 4630207 - 4629131" locus_tag="FOH10_RS20680"  />
</g>
<g id="a1_0011"  >
<polygon class="clusterblast-orf" id="dummy-1_h1_1_11" style="stroke-width:1; stroke:black; fill:white; " points="200,85 205,80 208,80 208,90 205,90 200,85 " description="&lt;b&gt;FOH10_RS20675&lt;/b&gt;&lt;br&gt;DUF4439 domain-containing protein&lt;br&gt;Location: 4628389 - 4627958" locus_tag="FOH10_RS20675"  />
</g>
<g id="a1_0012"  >
<polygon class="clusterblast-orf" id="dummy-1_h1_1_12" style="stroke-width:1; stroke:black; fill:white; " points="208,85 213,80 217,80 217,90 213,90 208,85 " description="&lt;b&gt;FOH10_RS20670&lt;/b&gt;&lt;br&gt;hypothetical protein&lt;br&gt;Location: 4627961 - 4627482" locus_tag="FOH10_RS20670"  />
</g>
<g id="a1_0013"  >
<polygon class="clusterblast-orf" id="dummy-1_h1_1_13" style="stroke-width:1; stroke:black; fill:white; " points="224,90 230,90 235,85 230,80 224,80 224,90 " description="&lt;b&gt;FOH10_RS20665&lt;/b&gt;&lt;br&gt;ribosome maturation factor RimP&lt;br&gt;Location: 4627074 - 4626436" locus_tag="FOH10_RS20665"  />
</g>
<g id="a1_0014"  >
<polygon class="clusterblast-orf" id="dummy-1_h1_1_14" style="stroke-width:1; stroke:black; fill:white; " points="235,90 249,90 254,85 249,80 235,80 235,90 " description="&lt;b&gt;FOH10_RS20660&lt;/b&gt;&lt;br&gt;transcription termination/antitermination protein NusA&lt;br&gt;Location: 4626439 - 4625408" locus_tag="FOH10_RS20660"  />
</g>
<g id="a1_0015"  >
<polygon class="clusterblast-orf" id="dummy-1_h1_1_15" style="stroke-width:1; stroke:black; fill:white; " points="255,90 257,90 262,85 257,80 255,80 255,90 " description="&lt;b&gt;FOH10_RS20655&lt;/b&gt;&lt;br&gt;YlxR family protein&lt;br&gt;Location: 4625342 - 4624944" locus_tag="FOH10_RS20655"  />
</g>
<g id="a1_0016"  >
<polygon class="clusterblast-orf" id="dummy-1_h1_1_16" style="stroke-width:1; stroke:black; fill:#d81515; " points="264,90 311,90 316,85 311,80 264,80 264,90 " description="&lt;b&gt;FOH10_RS20650&lt;/b&gt;&lt;br&gt;translation initiation factor IF-2&lt;br&gt;Location: 4624828 - 4621985&lt;br&gt;&lt;br&gt;&lt;b&gt;BlastP hit with cds209_2042&lt;/b&gt;&lt;br&gt;Percentage identity: 100&lt;br&gt;Percentage coverage: 100&lt;br&gt;BLAST bit score: 1153&lt;br&gt;E-value: 0.0" locus_tag="FOH10_RS20650"  />
</g>
<g id="a1_0017"  >
<polygon class="clusterblast-orf" id="dummy-1_h1_1_17" style="stroke-width:1; stroke:black; fill:#77d815; " points="318,90 319,90 324,85 319,80 318,80 318,90 " description="&lt;b&gt;FOH10_RS20645&lt;/b&gt;&lt;br&gt;DUF503 domain-containing protein&lt;br&gt;Location: 4621847 - 4621557&lt;br&gt;&lt;br&gt;&lt;b&gt;BlastP hit with cds2165_2468&lt;/b&gt;&lt;br&gt;Percentage identity: 98&lt;br&gt;Percentage coverage: 96&lt;br&gt;BLAST bit score: 192&lt;br&gt;E-value: 2.1e-47" locus_tag="FOH10_RS20645"  />
</g>
<g id="a1_0018"  >
<polygon class="clusterblast-orf" id="dummy-1_h1_1_18" style="stroke-width:1; stroke:black; fill:#15d8d8; " points="324,90 327,90 332,85 327,80 324,80 324,90 " description="&lt;b&gt;FOH10_RS20640&lt;/b&gt;&lt;br&gt;30S ribosome-binding factor RbfA&lt;br&gt;Location: 4621532 - 4621083&lt;br&gt;&lt;br&gt;&lt;b&gt;BlastP hit with cds2492_2942&lt;/b&gt;&lt;br&gt;Percentage identity: 100&lt;br&gt;Percentage coverage: 100&lt;br&gt;BLAST bit score: 275&lt;br&gt;E-value: 2.9e-72" locus_tag="FOH10_RS20640"  />
</g>
<g id="a1_0019"  >
<polygon class="clusterblast-orf" id="dummy-1_h1_1_19" style="stroke-width:1; stroke:black; fill:#7715d8; " points="335,90 348,90 353,85 348,80 335,80 335,90 " description="&lt;b&gt;FOH10_RS20635&lt;/b&gt;&lt;br&gt;bifunctional oligoribonuclease/PAP phosphatase NrnA&lt;br&gt;Location: 4620937 - 4619897&lt;br&gt;&lt;br&gt;&lt;b&gt;BlastP hit with cds3027_4128&lt;/b&gt;&lt;br&gt;Percentage identity: 99&lt;br&gt;Percentage coverage: 95&lt;br&gt;BLAST bit score: 670&lt;br&gt;E-value: 7.5e-191" locus_tag="FOH10_RS20635"  />
</g>
<g id="a1_0020"  >
<polygon class="clusterblast-orf" id="dummy-1_h1_1_20" style="stroke-width:1; stroke:black; fill:#d85015; " points="359,90 417,90 422,85 417,80 359,80 359,90 " description="&lt;b&gt;FOH10_RS20630&lt;/b&gt;&lt;br&gt;thioester reductase domain-containing protein&lt;br&gt;Location: 4619564 - 4616094&lt;br&gt;&lt;br&gt;&lt;b&gt;BlastP hit with cds4461_7932&lt;/b&gt;&lt;br&gt;Percentage identity: 97&lt;br&gt;Percentage coverage: 100&lt;br&gt;BLAST bit score: 2179&lt;br&gt;E-value: 0.0" locus_tag="FOH10_RS20630"  />
</g>
<g id="a1_0021"  >
<polygon class="clusterblast-orf" id="dummy-1_h1_1_21" style="stroke-width:1; stroke:black; fill:#3cd815; " points="422,85 427,80 437,80 437,90 427,90 422,85 " description="&lt;b&gt;FOH10_RS20625&lt;/b&gt;&lt;br&gt;helix-turn-helix domain-containing protein&lt;br&gt;Location: 4616105 - 4615245&lt;br&gt;&lt;br&gt;&lt;b&gt;BlastP hit with cds7911_8784&lt;/b&gt;&lt;br&gt;Percentage identity: 91&lt;br&gt;Percentage coverage: 99&lt;br&gt;BLAST bit score: 515&lt;br&gt;E-value: 3.2e-144" locus_tag="FOH10_RS20625"  />
</g>
<g id="a1_0022"  >
<polygon class="clusterblast-orf" id="dummy-1_h1_1_22" style="stroke-width:1; stroke:black; fill:#159ed8; " points="437,85 442,80 447,80 447,90 442,90 437,85 " description="&lt;b&gt;FOH10_RS20620&lt;/b&gt;&lt;br&gt;hypothetical protein&lt;br&gt;Location: 4615248 - 4614727&lt;br&gt;&lt;br&gt;&lt;b&gt;BlastP hit with cds8780_9302&lt;/b&gt;&lt;br&gt;Percentage identity: 91&lt;br&gt;Percentage coverage: 94&lt;br&gt;BLAST bit score: 315&lt;br&gt;E-value: 3.8e-84" locus_tag="FOH10_RS20620"  />
</g>
<g id="a1_0023"  >
<polygon class="clusterblast-orf" id="dummy-1_h1_1_23" style="stroke-width:1; stroke:black; fill:#d88a15; " points="457,85 462,80 464,80 464,90 462,90 457,85 " description="&lt;b&gt;FOH10_RS20615&lt;/b&gt;&lt;br&gt;isochorismatase family protein&lt;br&gt;Location: 4614138 - 4613779&lt;br&gt;&lt;br&gt;&lt;b&gt;BlastP hit with cds12179_12869&lt;/b&gt;&lt;br&gt;Percentage identity: 86&lt;br&gt;Percentage coverage: 31&lt;br&gt;BLAST bit score: 121&lt;br&gt;E-value: 1.1e-25" locus_tag="FOH10_RS20615"  />
</g>
<g id="a1_0024"  >
<polygon class="clusterblast-orf" id="dummy-1_h1_1_24" style="stroke-width:1; stroke:black; fill:white; " points="467,90 487,90 492,85 487,80 467,80 467,90 " description="&lt;b&gt;FOH10_RS20610&lt;/b&gt;&lt;br&gt;2OG-Fe(II) oxygenase&lt;br&gt;Location: 4613590 - 4612235" locus_tag="FOH10_RS20610"  />
</g>
<g id="a1_0025"  >
<polygon class="clusterblast-orf" id="dummy-1_h1_1_25" style="stroke-width:1; stroke:black; fill:#15d829; " points="494,90 495,90 500,85 495,80 494,80 494,90 " description="&lt;b&gt;FOH10_RS20605&lt;/b&gt;&lt;br&gt;DUF2628 domain-containing protein&lt;br&gt;Location: 4612123 - 4611752&lt;br&gt;&lt;br&gt;&lt;b&gt;BlastP hit with cds13420_13858&lt;/b&gt;&lt;br&gt;Percentage identity: 100&lt;br&gt;Percentage coverage: 79&lt;br&gt;BLAST bit score: 233&lt;br&gt;E-value: 9.3e-60" locus_tag="FOH10_RS20605"  />
</g>
<g id="a1_0026"  >
<polygon class="clusterblast-orf" id="dummy-1_h1_1_26" style="stroke-width:1; stroke:black; fill:white; " points="502,90 502,90 507,85 502,80 502,80 502,90 " description="&lt;b&gt;FOH10_RS20600&lt;/b&gt;&lt;br&gt;hypothetical protein&lt;br&gt;Location: 4611642 - 4611391" locus_tag="FOH10_RS20600"  />
</g>
<g id="a1_0027"  >
<polygon class="clusterblast-orf" id="dummy-1_h1_1_27" style="stroke-width:1; stroke:black; fill:#1563d8; " points="510,90 530,90 535,85 530,80 510,80 510,90 " description="&lt;b&gt;FOH10_RS20595&lt;/b&gt;&lt;br&gt;MATE family efflux transporter&lt;br&gt;Location: 4611234 - 4609816&lt;br&gt;&lt;br&gt;&lt;b&gt;BlastP hit with cds14454_15858&lt;/b&gt;&lt;br&gt;Percentage identity: 94&lt;br&gt;Percentage coverage: 99&lt;br&gt;BLAST bit score: 813&lt;br&gt;E-value: 1.2e-233" locus_tag="FOH10_RS20595"  />
</g>
<g id="a1_0028"  >
<polygon class="clusterblast-orf" id="dummy-1_h1_1_28" style="stroke-width:1; stroke:black; fill:white; " points="537,85 542,80 549,80 549,90 542,90 537,85 " description="&lt;b&gt;FOH10_RS20590&lt;/b&gt;&lt;br&gt;hypothetical protein&lt;br&gt;Location: 4609757 - 4609059" locus_tag="FOH10_RS20590"  />
</g>
<g id="a1_0029"  >
<polygon class="clusterblast-orf" id="dummy-1_h1_1_29" style="stroke-width:1; stroke:black; fill:#d815c5; " points="552,85 557,80 573,80 573,90 557,90 552,85 " description="&lt;b&gt;FOH10_RS20585&lt;/b&gt;&lt;br&gt;Rieske 2Fe-2S domain-containing protein&lt;br&gt;Location: 4608874 - 4607747&lt;br&gt;&lt;br&gt;&lt;b&gt;BlastP hit with cds15854_16982&lt;/b&gt;&lt;br&gt;Percentage identity: 97&lt;br&gt;Percentage coverage: 100&lt;br&gt;BLAST bit score: 791&lt;br&gt;E-value: 3.9e-227" locus_tag="FOH10_RS20585"  />
</g>
<g id="a1_0030"  >
<polygon class="clusterblast-orf" id="dummy-1_h1_1_30" style="stroke-width:1; stroke:black; fill:#d8c515; " points="574,85 579,80 582,80 582,90 579,90 574,85 " description="&lt;b&gt;FOH10_RS20580&lt;/b&gt;&lt;br&gt;nucleotide exchange factor GrpE&lt;br&gt;Location: 4607705 - 4607217&lt;br&gt;&lt;br&gt;&lt;b&gt;BlastP hit with cds17023_17584&lt;/b&gt;&lt;br&gt;Percentage identity: 94&lt;br&gt;Percentage coverage: 87&lt;br&gt;BLAST bit score: 280&lt;br&gt;E-value: 8.5e-74" locus_tag="FOH10_RS20580"  />
</g>
<g id="a1_0031"  >
<polygon class="clusterblast-orf" id="dummy-1_h1_1_31" style="stroke-width:1; stroke:black; fill:#15d863; " points="585,90 610,90 615,85 610,80 585,80 585,90 " description="&lt;b&gt;FOH10_RS20575&lt;/b&gt;&lt;br&gt;Hsp70 family protein&lt;br&gt;Location: 4607094 - 4605412&lt;br&gt;&lt;br&gt;&lt;b&gt;BlastP hit with cds17721_19317&lt;/b&gt;&lt;br&gt;Percentage identity: 99&lt;br&gt;Percentage coverage: 100&lt;br&gt;BLAST bit score: 1017&lt;br&gt;E-value: 6.2e-295" locus_tag="FOH10_RS20575"  />
</g>
<g id="a1_0032"  >
<polygon class="clusterblast-orf" id="dummy-1_h1_1_32" style="stroke-width:1; stroke:black; fill:#1529d8; " points="615,90 652,90 657,85 652,80 615,80 615,90 " description="&lt;b&gt;FOH10_RS34895&lt;/b&gt;&lt;br&gt;fibronectin type III domain-containing protein&lt;br&gt;Location: 4605401 - 4603086&lt;br&gt;&lt;br&gt;&lt;b&gt;BlastP hit with cds19327_22351&lt;/b&gt;&lt;br&gt;Percentage identity: 69&lt;br&gt;Percentage coverage: 100&lt;br&gt;BLAST bit score: 1114&lt;br&gt;E-value: 0.0" locus_tag="FOH10_RS34895"  />
</g>
<g id="a1_0033"  >
<polygon class="clusterblast-orf" id="dummy-1_h1_1_33" style="stroke-width:1; stroke:black; fill:#d8158a; " points="660,90 672,90 677,85 672,80 660,80 660,90 " description="&lt;b&gt;FOH10_RS20565&lt;/b&gt;&lt;br&gt;metallophosphoesterase&lt;br&gt;Location: 4602940 - 4601981&lt;br&gt;&lt;br&gt;&lt;b&gt;BlastP hit with cds22542_23502&lt;/b&gt;&lt;br&gt;Percentage identity: 99&lt;br&gt;Percentage coverage: 100&lt;br&gt;BLAST bit score: 687&lt;br&gt;E-value: 6.8e-196" locus_tag="FOH10_RS20565"  />
</g>
<g id="a1_0034"  >
<polygon class="clusterblast-orf" id="dummy-1_h1_1_34" style="stroke-width:1; stroke:black; fill:#b1d815; " points="679,90 695,90 700,85 695,80 679,80 679,90 " description="&lt;b&gt;FOH10_RS20560&lt;/b&gt;&lt;br&gt;XdhC family protein&lt;br&gt;Location: 4601861 - 4600701&lt;br&gt;&lt;br&gt;&lt;b&gt;BlastP hit with cds23620_24847&lt;/b&gt;&lt;br&gt;Percentage identity: 81&lt;br&gt;Percentage coverage: 100&lt;br&gt;BLAST bit score: 595&lt;br&gt;E-value: 4.5e-168" locus_tag="FOH10_RS20560"  />
</g>
<g id="a1_0035"  >
<polygon class="clusterblast-orf" id="dummy-1_h1_1_35" style="stroke-width:1; stroke:black; fill:#15d89e; " points="701,85 703,80 703,90 701,85 " description="&lt;b&gt;FOH10_RS34890&lt;/b&gt;&lt;br&gt;hypothetical protein&lt;br&gt;Location: 4600659 - 4600516&lt;br&gt;&lt;br&gt;&lt;b&gt;BlastP hit with cds24906_25050&lt;/b&gt;&lt;br&gt;Percentage identity: 94&lt;br&gt;Percentage coverage: 100&lt;br&gt;BLAST bit score: 79&lt;br&gt;E-value: 1.2e-13" locus_tag="FOH10_RS34890"  />
</g>
<g id="a1_0036"  >
<polygon class="clusterblast-orf" id="dummy-1_h1_1_36" style="stroke-width:1; stroke:black; fill:#3c15d8; " points="706,85 711,80 732,80 732,90 711,90 706,85 " description="&lt;b&gt;FOH10_RS20555&lt;/b&gt;&lt;br&gt;DUF1254 domain-containing protein&lt;br&gt;Location: 4600343 - 4598901&lt;br&gt;&lt;br&gt;&lt;b&gt;BlastP hit with cds25222_26665&lt;/b&gt;&lt;br&gt;Percentage identity: 93&lt;br&gt;Percentage coverage: 91&lt;br&gt;BLAST bit score: 865&lt;br&gt;E-value: 2.1e-249" locus_tag="FOH10_RS20555"  />
</g>
<g id="a1_0037"  >
<polygon class="clusterblast-orf" id="dummy-1_h1_1_37" style="stroke-width:1; stroke:black; fill:white; " points="735,85 740,80 744,80 744,90 740,90 735,85 " description="&lt;b&gt;FOH10_RS20550&lt;/b&gt;&lt;br&gt;hypothetical protein&lt;br&gt;Location: 4598766 - 4598281" locus_tag="FOH10_RS20550"  />
</g>
<g id="a1_0038"  >
<polygon class="clusterblast-orf" id="dummy-1_h1_1_38" style="stroke-width:1; stroke:black; fill:white; " points="744,90 747,85 744,80 744,90 " description="&lt;b&gt;FOH10_RS20545&lt;/b&gt;&lt;br&gt;hypothetical protein&lt;br&gt;Location: 4598236 - 4598085" locus_tag="FOH10_RS20545"  />
</g>
<g id="a1_0039"  >
<polygon class="clusterblast-orf" id="dummy-1_h1_1_39" style="stroke-width:1; stroke:black; fill:#d81550; " points="748,85 753,80 757,80 757,90 753,90 748,85 " description="&lt;b&gt;FOH10_RS20540&lt;/b&gt;&lt;br&gt;nitroreductase family deazaflavin-dependent oxidoreductase&lt;br&gt;Location: 4598055 - 4597543&lt;br&gt;&lt;br&gt;&lt;b&gt;BlastP hit with cds27016_27529&lt;/b&gt;&lt;br&gt;Percentage identity: 91&lt;br&gt;Percentage coverage: 100&lt;br&gt;BLAST bit score: 333&lt;br&gt;E-value: 1e-89" locus_tag="FOH10_RS20540"  />
</g>
<g id="a1_0040"  >
<polygon class="clusterblast-orf" id="dummy-1_h1_1_40" style="stroke-width:1; stroke:black; fill:white; " points="759,85 764,80 766,80 766,90 764,90 759,85 " description="&lt;b&gt;FOH10_RS20535&lt;/b&gt;&lt;br&gt;hypothetical protein&lt;br&gt;Location: 4597454 - 4597053" locus_tag="FOH10_RS20535"  />
</g>
<g id="a1_0041"  >
<polygon class="clusterblast-orf" id="dummy-1_h1_1_41" style="stroke-width:1; stroke:black; fill:white; " points="766,90 775,90 780,85 775,80 766,80 766,90 " description="&lt;b&gt;FOH10_RS20530&lt;/b&gt;&lt;br&gt;hypothetical protein&lt;br&gt;Location: 4597041 - 4596295" locus_tag="FOH10_RS20530"  />
</g>
</svg>
