<svg y="0" preserveAspectRatio="none" viewBox="0 0 800 230" xmlns="http://www.w3.org/2000/svg" xmlns:xlink="http://www.w3.org/1999/xlink" version="1.1" x="0" width="800" height="230"  >
<g class="clusterblast-cluster" label="Query sequence"  >
<text y="20" class="clusterblast-acc" x="5"  >
Query sequence</text>
<line y1="35" y2="35" x2="778.0" style="stroke-width:1; stroke:grey; " x1="10"  />
<polygon class="clusterblast-orf" id="dummy-2_q0_0_all" style="stroke-width:1; stroke:black; fill:white; " points="105,35 109,30 109,40 105,35 " description="&lt;b&gt;cds261795_262086&lt;/b&gt;&lt;br&gt;hypothetical protein&lt;br&gt;Location: 261795 - 262086" locus_tag="cds261795_262086"  />
<polygon class="clusterblast-orf" id="dummy-2_q1_0_all" style="stroke-width:1; stroke:black; fill:white; " points="111,35 116,30 119,30 119,40 116,40 111,35 " description="&lt;b&gt;cds262290_262881&lt;/b&gt;&lt;br&gt;Phage major tail protein&lt;br&gt;Location: 262290 - 262881" locus_tag="cds262290_262881"  />
<polygon class="clusterblast-orf" id="dummy-2_q2_0_all" style="stroke-width:1; stroke:black; fill:white; " points="120,35 125,30 126,30 126,40 125,40 120,35 " description="&lt;b&gt;cds262957_263395&lt;/b&gt;&lt;br&gt;hypothetical protein&lt;br&gt;Location: 262957 - 263395" locus_tag="cds262957_263395"  />
<polygon class="clusterblast-orf" id="dummy-2_q3_0_all" style="stroke-width:1; stroke:black; fill:white; " points="137,35 142,30 149,30 149,40 142,40 137,35 " description="&lt;b&gt;cds264211_265138&lt;/b&gt;&lt;br&gt;hypothetical protein&lt;br&gt;Location: 264211 - 265138" locus_tag="cds264211_265138"  />
<polygon class="clusterblast-orf" id="dummy-2_q4_0_all" style="stroke-width:1; stroke:black; fill:white; " points="152,35 154,30 154,40 152,35 " description="&lt;b&gt;cds265358_265493&lt;/b&gt;&lt;br&gt;hypothetical protein&lt;br&gt;Location: 265358 - 265493" locus_tag="cds265358_265493"  />
<polygon class="clusterblast-orf" id="dummy-2_q5_0_all" style="stroke-width:1; stroke:black; fill:white; " points="161,35 165,30 165,40 161,35 " description="&lt;b&gt;cds266073_266307&lt;/b&gt;&lt;br&gt;hypothetical protein&lt;br&gt;Location: 266073 - 266307" locus_tag="cds266073_266307"  />
<polygon class="clusterblast-orf" id="dummy-2_q6_0_all" style="stroke-width:1; stroke:black; fill:#d81515; " points="172,35 177,30 200,30 200,40 177,40 172,35 " description="&lt;b&gt;cds266877_269007&lt;/b&gt;&lt;br&gt;hypothetical protein&lt;br&gt;Location: 266877 - 269007" locus_tag="cds266877_269007"  />
<polygon class="clusterblast-orf" id="dummy-2_q7_0_all" style="stroke-width:1; stroke:black; fill:#67d815; " points="200,35 205,30 208,30 208,40 205,40 200,35 " description="&lt;b&gt;cds269009_269630&lt;/b&gt;&lt;br&gt;hypothetical protein&lt;br&gt;Location: 269009 - 269630" locus_tag="cds269009_269630"  />
<polygon class="clusterblast-orf" id="dummy-2_q8_0_all" style="stroke-width:1; stroke:black; fill:#15b9d8; " points="212,35 216,30 216,40 212,35 " description="&lt;b&gt;cds269914_270211&lt;/b&gt;&lt;br&gt;hypothetical protein&lt;br&gt;Location: 269914 - 270211" locus_tag="cds269914_270211"  />
<polygon class="clusterblast-orf" id="dummy-2_q9_0_all" style="stroke-width:1; stroke:black; fill:#8615d8; " points="216,35 219,30 219,40 216,35 " description="&lt;b&gt;cds270211_270421&lt;/b&gt;&lt;br&gt;hypothetical protein&lt;br&gt;Location: 270211 - 270421" locus_tag="cds270211_270421"  />
<polygon class="clusterblast-orf" id="dummy-2_q10_0_all" style="stroke-width:1; stroke:black; fill:white; " points="220,35 221,30 221,40 220,35 " description="&lt;b&gt;cds270484_270607&lt;/b&gt;&lt;br&gt;hypothetical protein&lt;br&gt;Location: 270484 - 270607" locus_tag="cds270484_270607"  />
<polygon class="clusterblast-orf" id="dummy-2_q11_0_all" style="stroke-width:1; stroke:black; fill:white; " points="226,35 228,30 228,40 226,35 " description="&lt;b&gt;cds270971_271142&lt;/b&gt;&lt;br&gt;hypothetical protein&lt;br&gt;Location: 270971 - 271142" locus_tag="cds270971_271142"  />
<polygon class="clusterblast-orf" id="dummy-2_q12_0_all" style="stroke-width:1; stroke:black; fill:#d83415; " points="228,35 231,30 231,40 228,35 " description="&lt;b&gt;cds271141_271339&lt;/b&gt;&lt;br&gt;hypothetical protein&lt;br&gt;Location: 271141 - 271339" locus_tag="cds271141_271339"  />
<polygon class="clusterblast-orf" id="dummy-2_q13_0_all" style="stroke-width:1; stroke:black; fill:#49d815; " points="233,40 239,40 244,35 239,30 233,30 233,40 " description="&lt;b&gt;cds271504_272311&lt;/b&gt;&lt;br&gt;transcriptional regulator, XRE family&lt;br&gt;Location: 271504 - 272311" locus_tag="cds271504_272311"  />
<polygon class="clusterblast-orf" id="dummy-2_q14_0_all" style="stroke-width:1; stroke:black; fill:#159bd8; " points="244,40 246,35 244,30 244,40 " description="&lt;b&gt;cds272303_272501&lt;/b&gt;&lt;br&gt;hypothetical protein&lt;br&gt;Location: 272303 - 272501" locus_tag="cds272303_272501"  />
<polygon class="clusterblast-orf" id="dummy-2_q15_0_all" style="stroke-width:1; stroke:black; fill:#a515d8; " points="247,35 252,30 256,30 256,40 252,40 247,35 " description="&lt;b&gt;cds272521_273193&lt;/b&gt;&lt;br&gt;hypothetical protein&lt;br&gt;Location: 272521 - 273193" locus_tag="cds272521_273193"  />
<polygon class="clusterblast-orf" id="dummy-2_q16_0_all" style="stroke-width:1; stroke:black; fill:#d85315; " points="256,35 261,30 265,30 265,40 261,40 256,35 " description="&lt;b&gt;cds273194_273932&lt;/b&gt;&lt;br&gt;hypothetical protein&lt;br&gt;Location: 273194 - 273932" locus_tag="cds273194_273932"  />
<polygon class="clusterblast-orf" id="dummy-2_q17_0_all" style="stroke-width:1; stroke:black; fill:#2ad815; " points="268,35 273,30 275,30 275,40 273,40 268,35 " description="&lt;b&gt;cds274124_274682&lt;/b&gt;&lt;br&gt;hypothetical protein&lt;br&gt;Location: 274124 - 274682" locus_tag="cds274124_274682"  />
<polygon class="clusterblast-orf" id="dummy-2_q18_0_all" style="stroke-width:1; stroke:black; fill:#157cd8; " points="277,40 281,35 277,30 277,40 " description="&lt;b&gt;cds274813_275077&lt;/b&gt;&lt;br&gt;hypothetical protein&lt;br&gt;Location: 274813 - 275077" locus_tag="cds274813_275077"  />
<polygon class="clusterblast-orf" id="dummy-2_q19_0_all" style="stroke-width:1; stroke:black; fill:#c415d8; " points="282,35 285,30 285,40 282,35 " description="&lt;b&gt;cds275180_275414&lt;/b&gt;&lt;br&gt;hypothetical protein&lt;br&gt;Location: 275180 - 275414" locus_tag="cds275180_275414"  />
<polygon class="clusterblast-orf" id="dummy-2_q20_0_all" style="stroke-width:1; stroke:black; fill:#d87215; " points="294,40 296,40 301,35 296,30 294,30 294,40 " description="&lt;b&gt;cds276086_276644&lt;/b&gt;&lt;br&gt;hypothetical protein&lt;br&gt;Location: 276086 - 276644" locus_tag="cds276086_276644"  />
<polygon class="clusterblast-orf" id="dummy-2_q21_0_all" style="stroke-width:1; stroke:black; fill:#15d81f; " points="303,35 308,30 311,30 311,40 308,40 303,35 " description="&lt;b&gt;cds276795_277374&lt;/b&gt;&lt;br&gt;Transcriptional regulator, AcrR family&lt;br&gt;Location: 276795 - 277374" locus_tag="cds276795_277374"  />
<polygon class="clusterblast-orf" id="dummy-2_q22_0_all" style="stroke-width:1; stroke:black; fill:#155dd8; " points="312,35 317,30 328,30 328,40 317,40 312,35 " description="&lt;b&gt;cds277453_278665&lt;/b&gt;&lt;br&gt;hypothetical protein&lt;br&gt;Location: 277453 - 278665" locus_tag="cds277453_278665"  />
<polygon class="clusterblast-orf" id="dummy-2_q23_0_all" style="stroke-width:1; stroke:black; fill:#d815ce; " points="330,40 338,40 343,35 338,30 330,30 330,40 " description="&lt;b&gt;cds278781_279819&lt;/b&gt;&lt;br&gt;3-oxoacyl-[acyl-carrier-protein] synthase, KASIII (EC 2.3.1.180)&lt;br&gt;Location: 278781 - 279819" locus_tag="cds278781_279819"  />
<polygon class="clusterblast-orf" id="dummy-2_q24_0_all" style="stroke-width:1; stroke:black; fill:#d89015; " points="343,40 350,40 355,35 350,30 343,30 343,40 " description="&lt;b&gt;cds279821_280700&lt;/b&gt;&lt;br&gt;hypothetical protein&lt;br&gt;Location: 279821 - 280700" locus_tag="cds279821_280700"  />
<polygon class="clusterblast-orf" id="dummy-2_q25_0_all" style="stroke-width:1; stroke:black; fill:#15d83e; " points="356,40 361,40 366,35 361,30 356,30 356,40 " description="&lt;b&gt;cds280809_281562&lt;/b&gt;&lt;br&gt;Glycosyl transferase, family 2&lt;br&gt;Location: 280809 - 281562" locus_tag="cds280809_281562"  />
<polygon class="clusterblast-orf" id="dummy-2_q26_0_all" style="stroke-width:1; stroke:black; fill:#153ed8; " points="366,40 382,40 387,35 382,30 366,30 366,40 " description="&lt;b&gt;cds281558_283115&lt;/b&gt;&lt;br&gt;CoA ligase&lt;br&gt;Location: 281558 - 283115" locus_tag="cds281558_283115"  />
<polygon class="clusterblast-orf" id="dummy-2_q27_0_all" style="stroke-width:1; stroke:black; fill:#d815af; " points="390,35 395,30 413,30 413,40 395,40 390,35 " description="&lt;b&gt;cds283342_285097&lt;/b&gt;&lt;br&gt;hypothetical protein&lt;br&gt;Location: 283342 - 285097" locus_tag="cds283342_285097"  />
<polygon class="clusterblast-orf" id="dummy-2_q28_0_all" style="stroke-width:1; stroke:black; fill:#d8af15; " points="414,35 419,30 430,30 430,40 419,40 414,35 " description="&lt;b&gt;cds285165_286365&lt;/b&gt;&lt;br&gt;L,D-transpeptidase =&gt; LprQ&lt;br&gt;Location: 285165 - 286365" locus_tag="cds285165_286365"  />
<polygon class="clusterblast-orf" id="dummy-2_q29_0_all" style="stroke-width:1; stroke:black; fill:#15d85d; " points="431,35 436,30 448,30 448,40 436,40 431,35 " description="&lt;b&gt;cds286470_287709&lt;/b&gt;&lt;br&gt;UDP-N-acetylenolpyruvoylglucosamine reductase (EC 1.3.1.98)&lt;br&gt;Location: 286470 - 287709" locus_tag="cds286470_287709"  />
<polygon class="clusterblast-orf" id="dummy-2_q30_0_all" style="stroke-width:1; stroke:black; fill:#151fd8; " points="448,40 450,40 455,35 450,30 448,30 448,40 " description="&lt;b&gt;cds287750_288236&lt;/b&gt;&lt;br&gt;hypothetical protein&lt;br&gt;Location: 287750 - 288236" locus_tag="cds287750_288236"  />
<polygon class="clusterblast-orf" id="dummy-2_q31_0_all" style="stroke-width:1; stroke:black; fill:#d81590; " points="455,40 457,40 462,35 457,30 455,30 455,40 " description="&lt;b&gt;cds288267_288783&lt;/b&gt;&lt;br&gt;hypothetical protein&lt;br&gt;Location: 288267 - 288783" locus_tag="cds288267_288783"  />
<polygon class="clusterblast-orf" id="dummy-2_q32_0_all" style="stroke-width:1; stroke:black; fill:#d8ce15; " points="461,40 467,40 472,35 467,30 461,30 461,40 " description="&lt;b&gt;cds288752_289550&lt;/b&gt;&lt;br&gt;Uncharacterized protein SCO4203&lt;br&gt;Location: 288752 - 289550" locus_tag="cds288752_289550"  />
<polygon class="clusterblast-orf" id="dummy-2_q33_0_all" style="stroke-width:1; stroke:black; fill:#15d87c; " points="475,35 480,30 495,30 495,40 480,40 475,35 " description="&lt;b&gt;cds289761_291267&lt;/b&gt;&lt;br&gt;hypothetical protein&lt;br&gt;Location: 289761 - 291267" locus_tag="cds289761_291267"  />
<polygon class="clusterblast-orf" id="dummy-2_q34_0_all" style="stroke-width:1; stroke:black; fill:#2a15d8; " points="496,35 501,30 504,30 504,40 501,40 496,35 " description="&lt;b&gt;cds291369_291972&lt;/b&gt;&lt;br&gt;hypothetical protein&lt;br&gt;Location: 291369 - 291972" locus_tag="cds291369_291972"  />
<polygon class="clusterblast-orf" id="dummy-2_q35_0_all" style="stroke-width:1; stroke:black; fill:#d81572; " points="505,40 521,40 526,35 521,30 505,30 505,40 " description="&lt;b&gt;cds292084_293626&lt;/b&gt;&lt;br&gt;hypothetical protein&lt;br&gt;Location: 292084 - 293626" locus_tag="cds292084_293626"  />
<polygon class="clusterblast-orf" id="dummy-2_q36_0_all" style="stroke-width:1; stroke:black; fill:#c4d815; " points="530,35 535,30 539,30 539,40 535,40 530,35 " description="&lt;b&gt;cds293967_294627&lt;/b&gt;&lt;br&gt;Deoxyribose-phosphate aldolase (EC 4.1.2.4)&lt;br&gt;Location: 293967 - 294627" locus_tag="cds293967_294627"  />
<polygon class="clusterblast-orf" id="dummy-2_q37_0_all" style="stroke-width:1; stroke:black; fill:#15d89b; " points="540,40 542,40 547,35 542,30 540,30 540,40 " description="&lt;b&gt;cds294698_295259&lt;/b&gt;&lt;br&gt;Acetyltransferase&lt;br&gt;Location: 294698 - 295259" locus_tag="cds294698_295259"  />
<polygon class="clusterblast-orf" id="dummy-2_q38_0_all" style="stroke-width:1; stroke:black; fill:#4915d8; " points="548,40 555,40 560,35 555,30 548,30 548,40 " description="&lt;b&gt;cds295317_296205&lt;/b&gt;&lt;br&gt;Formyltetrahydrofolate deformylase (EC 3.5.1.10)&lt;br&gt;Location: 295317 - 296205" locus_tag="cds295317_296205"  />
<polygon class="clusterblast-orf" id="dummy-2_q39_0_all" style="stroke-width:1; stroke:black; fill:#d81553; " points="562,35 567,30 576,30 576,40 567,40 562,35 " description="&lt;b&gt;cds296370_297384&lt;/b&gt;&lt;br&gt;Putative hydrolase&lt;br&gt;Location: 296370 - 297384" locus_tag="cds296370_297384"  />
<polygon class="clusterblast-orf" id="dummy-2_q40_0_all" style="stroke-width:1; stroke:black; fill:#d81553; " points="579,35 584,30 592,30 592,40 584,40 579,35 " description="&lt;b&gt;cds297630_298653&lt;/b&gt;&lt;br&gt;Putative hydrolase&lt;br&gt;Location: 297630 - 298653" locus_tag="cds297630_298653"  />
<polygon class="clusterblast-orf" id="dummy-2_q41_0_all" style="stroke-width:1; stroke:black; fill:#a5d815; " points="594,35 598,30 598,40 594,35 " description="&lt;b&gt;cds298792_299089&lt;/b&gt;&lt;br&gt;hypothetical protein&lt;br&gt;Location: 298792 - 299089" locus_tag="cds298792_299089"  />
<polygon class="clusterblast-orf" id="dummy-2_q42_0_all" style="stroke-width:1; stroke:black; fill:#15d8b9; " points="606,35 611,30 615,30 615,40 611,40 606,35 " description="&lt;b&gt;cds299695_300355&lt;/b&gt;&lt;br&gt;hypothetical protein&lt;br&gt;Location: 299695 - 300355" locus_tag="cds299695_300355"  />
<polygon class="clusterblast-orf" id="dummy-2_q43_0_all" style="stroke-width:1; stroke:black; fill:#6715d8; " points="615,35 620,30 622,30 622,40 620,40 615,35 " description="&lt;b&gt;cds300351_300891&lt;/b&gt;&lt;br&gt;XRE family transcriptional regulator SCO4198&lt;br&gt;Location: 300351 - 300891" locus_tag="cds300351_300891"  />
<polygon class="clusterblast-orf" id="dummy-2_q44_0_all" style="stroke-width:1; stroke:black; fill:#d81534; " points="624,35 629,30 641,30 641,40 629,40 624,35 " description="&lt;b&gt;cds301016_302357&lt;/b&gt;&lt;br&gt;Putative transmembrane protein&lt;br&gt;Location: 301016 - 302357" locus_tag="cds301016_302357"  />
<polygon class="clusterblast-orf" id="dummy-2_q45_0_all" style="stroke-width:1; stroke:black; fill:white; " points="642,35 643,30 643,40 642,35 " description="&lt;b&gt;cds302385_302508&lt;/b&gt;&lt;br&gt;hypothetical protein&lt;br&gt;Location: 302385 - 302508" locus_tag="cds302385_302508"  />
<polygon class="clusterblast-orf" id="dummy-2_q46_0_all" style="stroke-width:1; stroke:black; fill:#86d815; " points="643,40 647,40 652,35 647,30 643,30 643,40 " description="&lt;b&gt;cds302506_303199&lt;/b&gt;&lt;br&gt;Transcriptional regulator, AcrR family&lt;br&gt;Location: 302506 - 303199" locus_tag="cds302506_303199"  />
<polygon class="clusterblast-orf" id="dummy-2_q47_0_all" style="stroke-width:1; stroke:black; fill:#15d8d8; " points="655,40 669,40 674,35 669,30 655,30 655,40 " description="&lt;b&gt;cds303410_304856&lt;/b&gt;&lt;br&gt;ABC1 family protein&lt;br&gt;Location: 303410 - 304856" locus_tag="cds303410_304856"  />
</g>
<g class="clusterblast-cluster" description="NZ_LR134352 (6288263-6347235): Nocardia asteroides strain NCTC11293 chromosome 1 (9% of genes show similarity), NRPS" label="NZ_LR134352"  >
<text y="70" class="clusterblast-acc" x="5"  >
<a xlink:href="https://antismash-db.secondarymetabolites.org/area.html?record=NZ_LR134352&amp;start=6288263&amp;end=6347235" target="_blank">NZ_LR134352 (6288263-6347235)</a>: Nocardia asteroides strain NCTC11293 chromosome 1 (9% of genes show similarity), NRPS</text>
<line y1="85" y2="85" x2="778.0" style="stroke-width:1; stroke:grey; " x1="10"  />
</g>
<g id="a2_000"  >
<polygon class="clusterblast-orf" id="dummy-2_h2_4_0" style="stroke-width:1; stroke:black; fill:white; " points="0,90 6,90 11,85 6,80 0,80 0,90 " description="&lt;b&gt;EL493_RS29025&lt;/b&gt;&lt;br&gt;helix-turn-helix domain-containing protein&lt;br&gt;Location: 6288264 - 6289121" locus_tag="EL493_RS29025"  />
</g>
<g id="a2_001"  >
<polygon class="clusterblast-orf" id="dummy-2_h2_4_1" style="stroke-width:1; stroke:black; fill:white; " points="11,85 16,80 20,80 20,90 16,90 11,85 " description="&lt;b&gt;EL493_RS29030&lt;/b&gt;&lt;br&gt;hydroxylase&lt;br&gt;Location: 6289125 - 6289814" locus_tag="EL493_RS29030"  />
</g>
<g id="a2_002"  >
<polygon class="clusterblast-orf" id="dummy-2_h2_4_2" style="stroke-width:1; stroke:black; fill:white; " points="20,85 25,80 34,80 34,90 25,90 20,85 " description="&lt;b&gt;EL493_RS29035&lt;/b&gt;&lt;br&gt;alpha/beta fold hydrolase&lt;br&gt;Location: 6289843 - 6290904" locus_tag="EL493_RS29035"  />
</g>
<g id="a2_003"  >
<polygon class="clusterblast-orf" id="dummy-2_h2_4_3" style="stroke-width:1; stroke:black; fill:white; " points="40,90 59,90 64,85 59,80 40,80 40,90 " description="&lt;b&gt;EL493_RS29040&lt;/b&gt;&lt;br&gt;DEAD/DEAH box helicase&lt;br&gt;Location: 6291342 - 6293105" locus_tag="EL493_RS29040"  />
</g>
<g id="a2_004"  >
<polygon class="clusterblast-orf" id="dummy-2_h2_4_4" style="stroke-width:1; stroke:black; fill:white; " points="72,90 83,90 88,85 83,80 72,80 72,90 " description="&lt;b&gt;EL493_RS29045&lt;/b&gt;&lt;br&gt;PQQ-binding-like beta-propeller repeat protein&lt;br&gt;Location: 6293714 - 6294952" locus_tag="EL493_RS29045"  />
</g>
<g id="a2_005"  >
<polygon class="clusterblast-orf" id="dummy-2_h2_4_5" style="stroke-width:1; stroke:black; fill:white; " points="88,90 92,90 97,85 92,80 88,80 88,90 " description="&lt;b&gt;EL493_RS29050&lt;/b&gt;&lt;br&gt;acid phosphatase&lt;br&gt;Location: 6294989 - 6295606" locus_tag="EL493_RS29050"  />
</g>
<g id="a2_006"  >
<polygon class="clusterblast-orf" id="dummy-2_h2_4_6" style="stroke-width:1; stroke:black; fill:white; " points="97,90 98,90 103,85 98,80 97,80 97,90 " description="&lt;b&gt;EL493_RS29055&lt;/b&gt;&lt;br&gt;GNAT family N-acetyltransferase&lt;br&gt;Location: 6295603 - 6296088" locus_tag="EL493_RS29055"  />
</g>
<g id="a2_007"  >
<polygon class="clusterblast-orf" id="dummy-2_h2_4_7" style="stroke-width:1; stroke:black; fill:white; " points="103,90 107,90 112,85 107,80 103,80 103,90 " description="&lt;b&gt;EL493_RS29060&lt;/b&gt;&lt;br&gt;endonuclease V&lt;br&gt;Location: 6296094 - 6296771" locus_tag="EL493_RS29060"  />
</g>
<g id="a2_008"  >
<polygon class="clusterblast-orf" id="dummy-2_h2_4_8" style="stroke-width:1; stroke:black; fill:white; " points="112,85 117,80 118,80 118,90 117,90 112,85 " description="&lt;b&gt;EL493_RS29065&lt;/b&gt;&lt;br&gt;hypothetical protein&lt;br&gt;Location: 6296772 - 6297227" locus_tag="EL493_RS29065"  />
</g>
<g id="a2_009"  >
<polygon class="clusterblast-orf" id="dummy-2_h2_4_9" style="stroke-width:1; stroke:black; fill:white; " points="119,90 127,90 132,85 127,80 119,80 119,90 " description="&lt;b&gt;EL493_RS29070&lt;/b&gt;&lt;br&gt;diacylglycerol kinase&lt;br&gt;Location: 6297321 - 6298265" locus_tag="EL493_RS29070"  />
</g>
<g id="a2_0010"  >
<polygon class="clusterblast-orf" id="dummy-2_h2_4_10" style="stroke-width:1; stroke:black; fill:white; " points="135,90 138,85 135,80 135,90 " description="&lt;b&gt;EL493_RS29075&lt;/b&gt;&lt;br&gt;WhiB family transcriptional regulator&lt;br&gt;Location: 6298517 - 6298771" locus_tag="EL493_RS29075"  />
</g>
<g id="a2_0011"  >
<polygon class="clusterblast-orf" id="dummy-2_h2_4_11" style="stroke-width:1; stroke:black; fill:white; " points="140,85 145,80 160,80 160,90 145,90 140,85 " description="&lt;b&gt;EL493_RS29080&lt;/b&gt;&lt;br&gt;histidine kinase N-terminal domain-containing protein&lt;br&gt;Location: 6298884 - 6300398" locus_tag="EL493_RS29080"  />
</g>
<g id="a2_0012"  >
<polygon class="clusterblast-orf" id="dummy-2_h2_4_12" style="stroke-width:1; stroke:black; fill:white; " points="160,85 163,80 163,90 160,85 " description="&lt;b&gt;EL493_RS29085&lt;/b&gt;&lt;br&gt;biotin/lipoyl-binding carrier protein&lt;br&gt;Location: 6300429 - 6300644" locus_tag="EL493_RS29085"  />
</g>
<g id="a2_0013"  >
<polygon class="clusterblast-orf" id="dummy-2_h2_4_13" style="stroke-width:1; stroke:black; fill:white; " points="167,85 171,80 171,90 167,85 " description="&lt;b&gt;EL493_RS29090&lt;/b&gt;&lt;br&gt;mycothiol system anti-sigma-R factor&lt;br&gt;Location: 6300935 - 6301213" locus_tag="EL493_RS29090"  />
</g>
<g id="a2_0014"  >
<polygon class="clusterblast-orf" id="dummy-2_h2_4_14" style="stroke-width:1; stroke:black; fill:white; " points="171,85 176,80 181,80 181,90 176,90 171,85 " description="&lt;b&gt;EL493_RS29095&lt;/b&gt;&lt;br&gt;sigma-70 family RNA polymerase sigma factor&lt;br&gt;Location: 6301210 - 6301953" locus_tag="EL493_RS29095"  />
</g>
<g id="a2_0015"  >
<polygon class="clusterblast-orf" id="dummy-2_h2_4_15" style="stroke-width:1; stroke:black; fill:white; " points="182,90 184,90 189,85 184,80 182,80 182,90 " description="&lt;b&gt;EL493_RS29100&lt;/b&gt;&lt;br&gt;Cys-tRNA(Pro) deacylase&lt;br&gt;Location: 6302085 - 6302588" locus_tag="EL493_RS29100"  />
</g>
<g id="a2_0016"  >
<polygon class="clusterblast-orf" id="dummy-2_h2_4_16" style="stroke-width:1; stroke:black; fill:white; " points="190,90 194,85 190,80 190,90 " description="&lt;b&gt;EL493_RS29105&lt;/b&gt;&lt;br&gt;hypothetical protein&lt;br&gt;Location: 6302676 - 6302987" locus_tag="EL493_RS29105"  />
</g>
<g id="a2_0017"  >
<polygon class="clusterblast-orf" id="dummy-2_h2_4_17" style="stroke-width:1; stroke:black; fill:white; " points="195,85 200,80 205,80 205,90 200,90 195,85 " description="&lt;b&gt;EL493_RS29110&lt;/b&gt;&lt;br&gt;SOS response-associated peptidase&lt;br&gt;Location: 6303036 - 6303815" locus_tag="EL493_RS29110"  />
</g>
<g id="a2_0018"  >
<polygon class="clusterblast-orf" id="dummy-2_h2_4_18" style="stroke-width:1; stroke:black; fill:white; " points="206,90 219,90 224,85 219,80 206,80 206,90 " description="&lt;b&gt;EL493_RS29115&lt;/b&gt;&lt;br&gt;3-phosphoshikimate 1-carboxyvinyltransferase&lt;br&gt;Location: 6303900 - 6305210" locus_tag="EL493_RS29115"  />
</g>
<g id="a2_0019"  >
<polygon class="clusterblast-orf" id="dummy-2_h2_4_19" style="stroke-width:1; stroke:black; fill:white; " points="224,90 232,90 237,85 232,80 224,80 224,90 " description="&lt;b&gt;EL493_RS29120&lt;/b&gt;&lt;br&gt;ribosome small subunit-dependent GTPase A&lt;br&gt;Location: 6305252 - 6306208" locus_tag="EL493_RS29120"  />
</g>
<g id="a2_0020"  >
<polygon class="clusterblast-orf" id="dummy-2_h2_4_20" style="stroke-width:1; stroke:black; fill:white; " points="237,85 242,80 249,80 249,90 242,90 237,85 " description="&lt;b&gt;EL493_RS29125&lt;/b&gt;&lt;br&gt;Ig-like domain repeat protein&lt;br&gt;Location: 6306236 - 6307105" locus_tag="EL493_RS29125"  />
</g>
<g id="a2_0021"  >
<polygon class="clusterblast-orf" id="dummy-2_h2_4_21" style="stroke-width:1; stroke:black; fill:white; " points="251,90 251,90 256,85 251,80 251,80 251,90 " description="&lt;b&gt;EL493_RS29130&lt;/b&gt;&lt;br&gt;hypothetical protein&lt;br&gt;Location: 6307304 - 6307621" locus_tag="EL493_RS29130"  />
</g>
<g id="a2_0022"  >
<polygon class="clusterblast-orf" id="dummy-2_h2_4_22" style="stroke-width:1; stroke:black; fill:white; " points="257,90 266,90 271,85 266,80 257,80 257,90 " description="&lt;b&gt;EL493_RS29135&lt;/b&gt;&lt;br&gt;AMP-binding protein&lt;br&gt;Location: 6307746 - 6308828" locus_tag="EL493_RS29135"  />
</g>
<g id="a2_0023"  >
<polygon class="clusterblast-orf" id="dummy-2_h2_4_23" style="stroke-width:1; stroke:black; fill:white; " points="271,90 285,90 290,85 285,80 271,80 271,90 " description="&lt;b&gt;EL493_RS29140&lt;/b&gt;&lt;br&gt;aldehyde dehydrogenase family protein&lt;br&gt;Location: 6308828 - 6310198" locus_tag="EL493_RS29140"  />
</g>
<g id="a2_0024"  >
<polygon class="clusterblast-orf" id="dummy-2_h2_4_24" style="stroke-width:1; stroke:black; fill:white; " points="290,90 291,90 296,85 291,80 290,80 290,90 " description="&lt;b&gt;EL493_RS29145&lt;/b&gt;&lt;br&gt;winged helix-turn-helix transcriptional regulator&lt;br&gt;Location: 6310261 - 6310707" locus_tag="EL493_RS29145"  />
</g>
<g id="a2_0025"  >
<polygon class="clusterblast-orf" id="dummy-2_h2_4_25" style="stroke-width:1; stroke:black; fill:white; " points="298,90 299,90 304,85 299,80 298,80 298,90 " description="&lt;b&gt;EL493_RS29150&lt;/b&gt;&lt;br&gt;hypothetical protein&lt;br&gt;Location: 6310803 - 6311252" locus_tag="EL493_RS29150"  />
</g>
<g id="a2_0026"  >
<polygon class="clusterblast-orf" id="dummy-2_h2_4_26" style="stroke-width:1; stroke:black; fill:white; " points="304,90 308,85 304,80 304,90 " description="&lt;b&gt;EL493_RS29155&lt;/b&gt;&lt;br&gt;antibiotic biosynthesis monooxygenase&lt;br&gt;Location: 6311264 - 6311572" locus_tag="EL493_RS29155"  />
</g>
<g id="a2_0027"  >
<polygon class="clusterblast-orf" id="dummy-2_h2_4_27" style="stroke-width:1; stroke:black; fill:white; " points="309,85 313,80 313,90 309,85 " description="&lt;b&gt;EL493_RS29160&lt;/b&gt;&lt;br&gt;helix-turn-helix transcriptional regulator&lt;br&gt;Location: 6311659 - 6311994" locus_tag="EL493_RS29160"  />
</g>
<g id="a2_0028"  >
<polygon class="clusterblast-orf" id="dummy-2_h2_4_28" style="stroke-width:1; stroke:black; fill:white; " points="314,90 331,90 336,85 331,80 314,80 314,90 " description="&lt;b&gt;EL493_RS29165&lt;/b&gt;&lt;br&gt;ABC transporter substrate-binding protein&lt;br&gt;Location: 6312077 - 6313681" locus_tag="EL493_RS29165"  />
</g>
<g id="a2_0029"  >
<polygon class="clusterblast-orf" id="dummy-2_h2_4_29" style="stroke-width:1; stroke:black; fill:white; " points="336,90 344,90 349,85 344,80 336,80 336,90 " description="&lt;b&gt;EL493_RS29170&lt;/b&gt;&lt;br&gt;ABC transporter permease&lt;br&gt;Location: 6313711 - 6314664" locus_tag="EL493_RS29170"  />
</g>
<g id="a2_0030"  >
<polygon class="clusterblast-orf" id="dummy-2_h2_4_30" style="stroke-width:1; stroke:black; fill:white; " points="349,90 354,90 359,85 354,80 349,80 349,90 " description="&lt;b&gt;EL493_RS29175&lt;/b&gt;&lt;br&gt;ABC transporter permease&lt;br&gt;Location: 6314657 - 6315478" locus_tag="EL493_RS29175"  />
</g>
<g id="a2_0031"  >
<polygon class="clusterblast-orf" id="dummy-2_h2_4_31" style="stroke-width:1; stroke:black; fill:white; " points="359,90 366,90 371,85 366,80 359,80 359,90 " description="&lt;b&gt;EL493_RS29180&lt;/b&gt;&lt;br&gt;ABC transporter ATP-binding protein&lt;br&gt;Location: 6315475 - 6316359" locus_tag="EL493_RS29180"  />
</g>
<g id="a2_0032"  >
<polygon class="clusterblast-orf" id="dummy-2_h2_4_32" style="stroke-width:1; stroke:black; fill:white; " points="371,90 375,90 380,85 375,80 371,80 371,90 " description="&lt;b&gt;EL493_RS29185&lt;/b&gt;&lt;br&gt;ATP-binding cassette domain-containing protein&lt;br&gt;Location: 6316359 - 6317006" locus_tag="EL493_RS29185"  />
</g>
<g id="a2_0033"  >
<polygon class="clusterblast-orf" id="dummy-2_h2_4_33" style="stroke-width:1; stroke:black; fill:white; " points="380,90 393,90 398,85 393,80 380,80 380,90 " description="&lt;b&gt;EL493_RS29190&lt;/b&gt;&lt;br&gt;FAD-binding oxidoreductase&lt;br&gt;Location: 6317055 - 6318419" locus_tag="EL493_RS29190"  />
</g>
<g id="a2_0034"  >
<polygon class="clusterblast-orf" id="dummy-2_h2_4_34" style="stroke-width:1; stroke:black; fill:white; " points="401,90 406,90 411,85 406,80 401,80 401,90 " description="&lt;b&gt;EL493_RS29195&lt;/b&gt;&lt;br&gt;hypothetical protein&lt;br&gt;Location: 6318641 - 6319354" locus_tag="EL493_RS29195"  />
</g>
<g id="a2_0035"  >
<polygon class="clusterblast-orf" id="dummy-2_h2_4_35" style="stroke-width:1; stroke:black; fill:#155dd8; " points="411,85 416,80 428,80 428,90 416,90 411,85 " description="&lt;b&gt;EL493_RS29200&lt;/b&gt;&lt;br&gt;cytochrome P450&lt;br&gt;Location: 6319412 - 6320623&lt;br&gt;&lt;br&gt;&lt;b&gt;BlastP hit with cds277453_278665&lt;/b&gt;&lt;br&gt;Percentage identity: 80&lt;br&gt;Percentage coverage: 100&lt;br&gt;BLAST bit score: 629&lt;br&gt;E-value: 1.6e-178" locus_tag="EL493_RS29200"  />
</g>
<g id="a2_0036"  >
<polygon class="clusterblast-orf" id="dummy-2_h2_4_36" style="stroke-width:1; stroke:black; fill:#d815ce; " points="428,90 437,90 442,85 437,80 428,80 428,90 " description="&lt;b&gt;EL493_RS29205&lt;/b&gt;&lt;br&gt;3-oxoacyl-ACP synthase&lt;br&gt;Location: 6320698 - 6321726&lt;br&gt;&lt;br&gt;&lt;b&gt;BlastP hit with cds278781_279819&lt;/b&gt;&lt;br&gt;Percentage identity: 79&lt;br&gt;Percentage coverage: 100&lt;br&gt;BLAST bit score: 527&lt;br&gt;E-value: 9.7e-148" locus_tag="EL493_RS29205"  />
</g>
<g id="a2_0037"  >
<polygon class="clusterblast-orf" id="dummy-2_h2_4_37" style="stroke-width:1; stroke:black; fill:#d89015; " points="442,90 449,90 454,85 449,80 442,80 442,90 " description="&lt;b&gt;EL493_RS29210&lt;/b&gt;&lt;br&gt;hypothetical protein&lt;br&gt;Location: 6321733 - 6322599&lt;br&gt;&lt;br&gt;&lt;b&gt;BlastP hit with cds279821_280700&lt;/b&gt;&lt;br&gt;Percentage identity: 56&lt;br&gt;Percentage coverage: 99&lt;br&gt;BLAST bit score: 291&lt;br&gt;E-value: 7.6e-77" locus_tag="EL493_RS29210"  />
</g>
<g id="a2_0038"  >
<polygon class="clusterblast-orf" id="dummy-2_h2_4_38" style="stroke-width:1; stroke:black; fill:white; " points="455,90 458,85 455,80 455,90 " description="&lt;b&gt;EL493_RS29215&lt;/b&gt;&lt;br&gt;hypothetical protein&lt;br&gt;Location: 6322719 - 6322958" locus_tag="EL493_RS29215"  />
</g>
<g id="a2_0039"  >
<polygon class="clusterblast-orf" id="dummy-2_h2_4_39" style="stroke-width:1; stroke:black; fill:white; " points="459,90 467,90 472,85 467,80 459,80 459,90 " description="&lt;b&gt;EL493_RS29220&lt;/b&gt;&lt;br&gt;NAD-dependent epimerase/dehydratase family protein&lt;br&gt;Location: 6322990 - 6324009" locus_tag="EL493_RS29220"  />
</g>
<g id="a2_0040"  >
<polygon class="clusterblast-orf" id="dummy-2_h2_4_40" style="stroke-width:1; stroke:black; fill:#15d83e; " points="473,90 477,90 482,85 477,80 473,80 473,90 " description="&lt;b&gt;EL493_RS29225&lt;/b&gt;&lt;br&gt;glycosyltransferase&lt;br&gt;Location: 6324027 - 6324764&lt;br&gt;&lt;br&gt;&lt;b&gt;BlastP hit with cds280809_281562&lt;/b&gt;&lt;br&gt;Percentage identity: 76&lt;br&gt;Percentage coverage: 98&lt;br&gt;BLAST bit score: 397&lt;br&gt;E-value: 1.1e-108" locus_tag="EL493_RS29225"  />
</g>
<g id="a2_0041"  >
<polygon class="clusterblast-orf" id="dummy-2_h2_4_41" style="stroke-width:1; stroke:black; fill:#153ed8; " points="482,90 497,90 502,85 497,80 482,80 482,90 " description="&lt;b&gt;EL493_RS29230&lt;/b&gt;&lt;br&gt;acyl--CoA ligase&lt;br&gt;Location: 6324761 - 6326278&lt;br&gt;&lt;br&gt;&lt;b&gt;BlastP hit with cds281558_283115&lt;/b&gt;&lt;br&gt;Percentage identity: 69&lt;br&gt;Percentage coverage: 99&lt;br&gt;BLAST bit score: 675&lt;br&gt;E-value: 3.3e-192" locus_tag="EL493_RS29230"  />
</g>
<g id="a2_0042"  >
<polygon class="clusterblast-orf" id="dummy-2_h2_4_42" style="stroke-width:1; stroke:black; fill:#d815af; " points="502,85 507,80 520,80 520,90 507,90 502,85 " description="&lt;b&gt;EL493_RS29235&lt;/b&gt;&lt;br&gt;hypothetical protein&lt;br&gt;Location: 6326286 - 6327596&lt;br&gt;&lt;br&gt;&lt;b&gt;BlastP hit with cds283342_285097&lt;/b&gt;&lt;br&gt;Percentage identity: 38&lt;br&gt;Percentage coverage: 98&lt;br&gt;BLAST bit score: 317&lt;br&gt;E-value: 2e-84" locus_tag="EL493_RS29235"  />
</g>
<g id="a2_0043"  >
<polygon class="clusterblast-orf" id="dummy-2_h2_4_43" style="stroke-width:1; stroke:black; fill:white; " points="522,90 525,85 522,80 522,90 " description="&lt;b&gt;EL493_RS29240&lt;/b&gt;&lt;br&gt;hypothetical protein&lt;br&gt;Location: 6327752 - 6328030" locus_tag="EL493_RS29240"  />
</g>
<g id="a2_0044"  >
<polygon class="clusterblast-orf" id="dummy-2_h2_4_44" style="stroke-width:1; stroke:black; fill:white; " points="525,90 525,90 530,85 525,80 525,80 525,90 " description="&lt;b&gt;EL493_RS29245&lt;/b&gt;&lt;br&gt;hypothetical protein&lt;br&gt;Location: 6328027 - 6328350" locus_tag="EL493_RS29245"  />
</g>
<g id="a2_0045"  >
<polygon class="clusterblast-orf" id="dummy-2_h2_4_45" style="stroke-width:1; stroke:black; fill:white; " points="530,90 534,90 539,85 534,80 530,80 530,90 " description="&lt;b&gt;EL493_RS29250&lt;/b&gt;&lt;br&gt;pentapeptide repeat-containing protein&lt;br&gt;Location: 6328408 - 6329085" locus_tag="EL493_RS29250"  />
</g>
<g id="a2_0046"  >
<polygon class="clusterblast-orf" id="dummy-2_h2_4_46" style="stroke-width:1; stroke:black; fill:white; " points="540,90 546,90 551,85 546,80 540,80 540,90 " description="&lt;b&gt;EL493_RS29255&lt;/b&gt;&lt;br&gt;peptidase inhibitor family I36 protein&lt;br&gt;Location: 6329165 - 6329941" locus_tag="EL493_RS29255"  />
</g>
<g id="a2_0047"  >
<polygon class="clusterblast-orf" id="dummy-2_h2_4_47" style="stroke-width:1; stroke:black; fill:white; " points="551,85 556,80 556,80 556,90 556,90 551,85 " description="&lt;b&gt;EL493_RS29260&lt;/b&gt;&lt;br&gt;type II toxin-antitoxin system VapC family toxin&lt;br&gt;Location: 6329945 - 6330349" locus_tag="EL493_RS29260"  />
</g>
<g id="a2_0048"  >
<polygon class="clusterblast-orf" id="dummy-2_h2_4_48" style="stroke-width:1; stroke:black; fill:white; " points="556,85 560,80 560,90 556,85 " description="&lt;b&gt;EL493_RS29265&lt;/b&gt;&lt;br&gt;hypothetical protein&lt;br&gt;Location: 6330346 - 6330612" locus_tag="EL493_RS29265"  />
</g>
<g id="a2_0049"  >
<polygon class="clusterblast-orf" id="dummy-2_h2_4_49" style="stroke-width:1; stroke:black; fill:white; " points="561,85 566,80 598,80 598,90 566,90 561,85 " description="&lt;b&gt;EL493_RS29270&lt;/b&gt;&lt;br&gt;preprotein translocase subunit SecA&lt;br&gt;Location: 6330698 - 6333496" locus_tag="EL493_RS29270"  />
</g>
<g id="a2_0050"  >
<polygon class="clusterblast-orf" id="dummy-2_h2_4_50" style="stroke-width:1; stroke:black; fill:white; " points="600,90 615,90 620,85 615,80 600,80 600,90 " description="&lt;b&gt;EL493_RS29275&lt;/b&gt;&lt;br&gt;wax ester/triacylglycerol synthase family O-acyltransferase&lt;br&gt;Location: 6333690 - 6335153" locus_tag="EL493_RS29275"  />
</g>
<g id="a2_0051"  >
<polygon class="clusterblast-orf" id="dummy-2_h2_4_51" style="stroke-width:1; stroke:black; fill:white; " points="620,90 622,90 627,85 622,80 620,80 620,90 " description="&lt;b&gt;EL493_RS29280&lt;/b&gt;&lt;br&gt;hypothetical protein&lt;br&gt;Location: 6335164 - 6335706" locus_tag="EL493_RS29280"  />
</g>
<g id="a2_0052"  >
<polygon class="clusterblast-orf" id="dummy-2_h2_4_52" style="stroke-width:1; stroke:black; fill:white; " points="629,90 639,90 644,85 639,80 629,80 629,90 " description="&lt;b&gt;EL493_RS29285&lt;/b&gt;&lt;br&gt;ferredoxin reductase&lt;br&gt;Location: 6335824 - 6336954" locus_tag="EL493_RS29285"  />
</g>
<g id="a2_0053"  >
<polygon class="clusterblast-orf" id="dummy-2_h2_4_53" style="stroke-width:1; stroke:black; fill:white; " points="646,90 660,90 665,85 660,80 646,80 646,90 " description="&lt;b&gt;EL493_RS29290&lt;/b&gt;&lt;br&gt;fatty acid desaturase&lt;br&gt;Location: 6337146 - 6338546" locus_tag="EL493_RS29290"  />
</g>
<g id="a2_0054"  >
<polygon class="clusterblast-orf" id="dummy-2_h2_4_54" style="stroke-width:1; stroke:black; fill:white; " points="666,90 677,90 682,85 677,80 666,80 666,90 " description="&lt;b&gt;EL493_RS29295&lt;/b&gt;&lt;br&gt;fatty acid desaturase&lt;br&gt;Location: 6338646 - 6339890" locus_tag="EL493_RS29295"  />
</g>
<g id="a2_0055"  >
<polygon class="clusterblast-orf" id="dummy-2_h2_4_55" style="stroke-width:1; stroke:black; fill:white; " points="683,90 686,90 691,85 686,80 683,80 683,90 " description="&lt;b&gt;EL493_RS29300&lt;/b&gt;&lt;br&gt;5,6-dimethylbenzimidazole synthase&lt;br&gt;Location: 6339913 - 6340548" locus_tag="EL493_RS29300"  />
</g>
<g id="a2_0056"  >
<polygon class="clusterblast-orf" id="dummy-2_h2_4_56" style="stroke-width:1; stroke:black; fill:white; " points="692,85 697,80 701,80 701,90 697,90 692,85 " description="&lt;b&gt;EL493_RS29305&lt;/b&gt;&lt;br&gt;ribosome-associated translation inhibitor RaiA&lt;br&gt;Location: 6340600 - 6341298" locus_tag="EL493_RS29305"  />
</g>
<g id="a2_0057"  >
<polygon class="clusterblast-orf" id="dummy-2_h2_4_57" style="stroke-width:1; stroke:black; fill:white; " points="703,85 708,80 712,80 712,90 708,90 703,85 " description="&lt;b&gt;EL493_RS29310&lt;/b&gt;&lt;br&gt;ComF family protein&lt;br&gt;Location: 6341482 - 6342126" locus_tag="EL493_RS29310"  />
</g>
<g id="a2_0058"  >
<polygon class="clusterblast-orf" id="dummy-2_h2_4_58" style="stroke-width:1; stroke:black; fill:white; " points="712,85 717,80 736,80 736,90 717,90 712,85 " description="&lt;b&gt;EL493_RS29315&lt;/b&gt;&lt;br&gt;MtrAB system accessory protein LpqB&lt;br&gt;Location: 6342161 - 6343969" locus_tag="EL493_RS29315"  />
</g>
<g id="a2_0059"  >
<polygon class="clusterblast-orf" id="dummy-2_h2_4_59" style="stroke-width:1; stroke:black; fill:white; " points="736,85 741,80 759,80 759,90 741,90 736,85 " description="&lt;b&gt;EL493_RS29320&lt;/b&gt;&lt;br&gt;HAMP domain-containing histidine kinase&lt;br&gt;Location: 6343966 - 6345711" locus_tag="EL493_RS29320"  />
</g>
<g id="a2_0060"  >
<polygon class="clusterblast-orf" id="dummy-2_h2_4_60" style="stroke-width:1; stroke:black; fill:white; " points="761,85 766,80 770,80 770,90 766,90 761,85 " description="&lt;b&gt;EL493_RS29325&lt;/b&gt;&lt;br&gt;response regulator transcription factor&lt;br&gt;Location: 6345833 - 6346510" locus_tag="EL493_RS29325"  />
</g>
<g id="a2_0061"  >
<polygon class="clusterblast-orf" id="dummy-2_h2_4_61" style="stroke-width:1; stroke:black; fill:white; " points="771,85 776,80 780,80 780,90 776,90 771,85 " description="&lt;b&gt;EL493_RS29330&lt;/b&gt;&lt;br&gt;dTMP kinase&lt;br&gt;Location: 6346588 - 6347235" locus_tag="EL493_RS29330"  />
</g>
</svg>
