<svg y="0" preserveAspectRatio="none" viewBox="0 0 800 230" xmlns="http://www.w3.org/2000/svg" xmlns:xlink="http://www.w3.org/1999/xlink" version="1.1" x="0" width="800" height="230"  >
<g class="clusterblast-cluster" label="Query sequence"  >
<text y="20" class="clusterblast-acc" x="5"  >
Query sequence</text>
<line y1="35" y2="35" x2="778.0" style="stroke-width:1; stroke:grey; " x1="10"  />
<polygon class="clusterblast-orf" id="dummy-1_q0_0_all" style="stroke-width:1; stroke:black; fill:#d81515; " points="4,40 14,40 19,35 14,30 4,30 4,40 " description="&lt;b&gt;cds49111_49987&lt;/b&gt;&lt;br&gt;hypothetical protein&lt;br&gt;Location: 49111 - 49987" locus_tag="cds49111_49987"  />
<polygon class="clusterblast-orf" id="dummy-1_q1_0_all" style="stroke-width:1; stroke:black; fill:#6ed815; " points="19,40 23,35 19,30 19,40 " description="&lt;b&gt;cds49983_50196&lt;/b&gt;&lt;br&gt;hypothetical protein&lt;br&gt;Location: 49983 - 50196" locus_tag="cds49983_50196"  />
<polygon class="clusterblast-orf" id="dummy-1_q2_0_all" style="stroke-width:1; stroke:black; fill:#15c8d8; " points="26,35 31,30 50,30 50,40 31,40 26,35 " description="&lt;b&gt;cds50340_51699&lt;/b&gt;&lt;br&gt;hypothetical protein&lt;br&gt;Location: 50340 - 51699" locus_tag="cds50340_51699"  />
<polygon class="clusterblast-orf" id="dummy-1_q3_0_all" style="stroke-width:1; stroke:black; fill:#15c8d8; " points="51,35 56,30 56,30 56,40 56,40 51,35 " description="&lt;b&gt;cds51789_52080&lt;/b&gt;&lt;br&gt;hypothetical protein&lt;br&gt;Location: 51789 - 52080" locus_tag="cds51789_52080"  />
<polygon class="clusterblast-orf" id="dummy-1_q4_0_all" style="stroke-width:1; stroke:black; fill:white; " points="57,35 60,30 60,40 57,35 " description="&lt;b&gt;cds52122_52269&lt;/b&gt;&lt;br&gt;hypothetical protein&lt;br&gt;Location: 52122 - 52269" locus_tag="cds52122_52269"  />
<polygon class="clusterblast-orf" id="dummy-1_q5_0_all" style="stroke-width:1; stroke:black; fill:white; " points="60,35 65,30 67,30 67,40 65,40 60,35 " description="&lt;b&gt;cds52283_52664&lt;/b&gt;&lt;br&gt;hypothetical protein&lt;br&gt;Location: 52283 - 52664" locus_tag="cds52283_52664"  />
<polygon class="clusterblast-orf" id="dummy-1_q6_0_all" style="stroke-width:1; stroke:black; fill:#9015d8; " points="70,35 75,30 88,30 88,40 75,40 70,35 " description="&lt;b&gt;cds52855_53857&lt;/b&gt;&lt;br&gt;hypothetical protein&lt;br&gt;Location: 52855 - 53857" locus_tag="cds52855_53857"  />
<polygon class="clusterblast-orf" id="dummy-1_q7_0_all" style="stroke-width:1; stroke:black; fill:white; " points="95,35 98,30 98,40 95,35 " description="&lt;b&gt;cds54234_54420&lt;/b&gt;&lt;br&gt;hypothetical protein&lt;br&gt;Location: 54234 - 54420" locus_tag="cds54234_54420"  />
<polygon class="clusterblast-orf" id="dummy-1_q8_0_all" style="stroke-width:1; stroke:black; fill:white; " points="99,35 102,30 102,40 99,35 " description="&lt;b&gt;cds54502_54631&lt;/b&gt;&lt;br&gt;hypothetical protein&lt;br&gt;Location: 54502 - 54631" locus_tag="cds54502_54631"  />
<polygon class="clusterblast-orf" id="dummy-1_q9_0_all" style="stroke-width:1; stroke:black; fill:white; " points="106,40 131,40 136,35 131,30 106,30 106,40 " description="&lt;b&gt;cds54871_56557&lt;/b&gt;&lt;br&gt;Peptidoglycan lipid II flippase MurJ&lt;br&gt;Location: 54871 - 56557" locus_tag="cds54871_56557"  />
<polygon class="clusterblast-orf" id="dummy-1_q10_0_all" style="stroke-width:1; stroke:black; fill:#d83715; " points="136,35 141,30 152,30 152,40 141,40 136,35 " description="&lt;b&gt;cds56570_57470&lt;/b&gt;&lt;br&gt;hypothetical protein&lt;br&gt;Location: 56570 - 57470" locus_tag="cds56570_57470"  />
<polygon class="clusterblast-orf" id="dummy-1_q11_0_all" style="stroke-width:1; stroke:black; fill:#4dd815; " points="153,35 158,30 163,30 163,40 158,40 153,35 " description="&lt;b&gt;cds57527_58124&lt;/b&gt;&lt;br&gt;Transcriptional regulator, AcrR family&lt;br&gt;Location: 57527 - 58124" locus_tag="cds57527_58124"  />
<polygon class="clusterblast-orf" id="dummy-1_q12_0_all" style="stroke-width:1; stroke:black; fill:#15a6d8; " points="164,35 169,30 182,30 182,40 169,40 164,35 " description="&lt;b&gt;cds58182_59184&lt;/b&gt;&lt;br&gt;hypothetical protein&lt;br&gt;Location: 58182 - 59184" locus_tag="cds58182_59184"  />
<polygon class="clusterblast-orf" id="dummy-1_q13_0_all" style="stroke-width:1; stroke:black; fill:white; " points="184,40 184,40 189,35 184,30 184,30 184,40 " description="&lt;b&gt;cds59316_59562&lt;/b&gt;&lt;br&gt;hypothetical protein&lt;br&gt;Location: 59316 - 59562" locus_tag="cds59316_59562"  />
<polygon class="clusterblast-orf" id="dummy-1_q14_0_all" style="stroke-width:1; stroke:black; fill:#b115d8; " points="189,40 199,40 204,35 199,30 189,30 189,40 " description="&lt;b&gt;cds59584_60433&lt;/b&gt;&lt;br&gt;putative secreted hydrolase&lt;br&gt;Location: 59584 - 60433" locus_tag="cds59584_60433"  />
<polygon class="clusterblast-orf" id="dummy-1_q15_0_all" style="stroke-width:1; stroke:black; fill:#d85815; " points="205,40 208,40 213,35 208,30 205,30 205,40 " description="&lt;b&gt;cds60468_60945&lt;/b&gt;&lt;br&gt;hypothetical protein&lt;br&gt;Location: 60468 - 60945" locus_tag="cds60468_60945"  />
<polygon class="clusterblast-orf" id="dummy-1_q16_0_all" style="stroke-width:1; stroke:black; fill:#2bd815; " points="215,40 219,40 224,35 219,30 215,30 215,40 " description="&lt;b&gt;cds61031_61532&lt;/b&gt;&lt;br&gt;hypothetical protein&lt;br&gt;Location: 61031 - 61532" locus_tag="cds61031_61532"  />
<polygon class="clusterblast-orf" id="dummy-1_q17_0_all" style="stroke-width:1; stroke:black; fill:#1585d8; " points="226,40 232,40 237,35 232,30 226,30 226,40 " description="&lt;b&gt;cds61657_62308&lt;/b&gt;&lt;br&gt;putative transcriptional regulator, TetR family&lt;br&gt;Location: 61657 - 62308" locus_tag="cds61657_62308"  />
<polygon class="clusterblast-orf" id="dummy-1_q18_0_all" style="stroke-width:1; stroke:black; fill:#d315d8; " points="237,40 248,40 253,35 248,30 237,30 237,40 " description="&lt;b&gt;cds62307_63162&lt;/b&gt;&lt;br&gt;3-hydroxybutyryl-CoA dehydrogenase (EC 1.1.1.157); 3-hydroxyacyl-CoA dehydrogenase (EC 1.1.1.35)&lt;br&gt;Location: 62307 - 63162" locus_tag="cds62307_63162"  />
<polygon class="clusterblast-orf" id="dummy-1_q19_0_all" style="stroke-width:1; stroke:black; fill:#d87915; " points="253,35 258,30 281,30 281,40 258,40 253,35 " description="&lt;b&gt;cds63184_64753&lt;/b&gt;&lt;br&gt;glycoside hydrolase&lt;br&gt;Location: 63184 - 64753" locus_tag="cds63184_64753"  />
<polygon class="clusterblast-orf" id="dummy-1_q20_0_all" style="stroke-width:1; stroke:black; fill:#15d820; " points="283,40 296,40 301,35 296,30 283,30 283,40 " description="&lt;b&gt;cds64898_65888&lt;/b&gt;&lt;br&gt;Polysaccharide deacetylase&lt;br&gt;Location: 64898 - 65888" locus_tag="cds64898_65888"  />
<polygon class="clusterblast-orf" id="dummy-1_q21_0_all" style="stroke-width:1; stroke:black; fill:#1563d8; " points="301,35 306,30 325,30 325,40 306,40 301,35 " description="&lt;b&gt;cds65894_67262&lt;/b&gt;&lt;br&gt;Pyridoxal phosphate (PLP)-dependent aspartate aminotransferase&lt;br&gt;Location: 65894 - 67262" locus_tag="cds65894_67262"  />
<polygon class="clusterblast-orf" id="dummy-1_q22_0_all" style="stroke-width:1; stroke:black; fill:#d815bc; " points="325,35 330,30 437,30 437,40 330,40 325,35 " description="&lt;b&gt;cds67258_73600&lt;/b&gt;&lt;br&gt;Polyketide synthase modules and related proteins&lt;br&gt;Location: 67258 - 73600" locus_tag="cds67258_73600"  />
<polygon class="clusterblast-orf" id="dummy-1_q23_0_all" style="stroke-width:1; stroke:black; fill:#d89b15; " points="438,35 443,30 450,30 450,40 443,40 438,35 " description="&lt;b&gt;cds73655_74285&lt;/b&gt;&lt;br&gt;puromycin N-acetyltransferase, putative&lt;br&gt;Location: 73655 - 74285" locus_tag="cds73655_74285"  />
<polygon class="clusterblast-orf" id="dummy-1_q24_0_all" style="stroke-width:1; stroke:black; fill:#15d842; " points="456,40 456,40 461,35 456,30 456,30 456,40 " description="&lt;b&gt;cds74628_74928&lt;/b&gt;&lt;br&gt;hypothetical protein&lt;br&gt;Location: 74628 - 74928" locus_tag="cds74628_74928"  />
<polygon class="clusterblast-orf" id="dummy-1_q25_0_all" style="stroke-width:1; stroke:black; fill:#1542d8; " points="463,35 468,30 470,30 470,40 468,40 463,35 " description="&lt;b&gt;cds75028_75439&lt;/b&gt;&lt;br&gt;hypothetical protein&lt;br&gt;Location: 75028 - 75439" locus_tag="cds75028_75439"  />
<polygon class="clusterblast-orf" id="dummy-1_q26_0_all" style="stroke-width:1; stroke:black; fill:#d8159b; " points="470,35 475,30 477,30 477,40 475,40 470,35 " description="&lt;b&gt;cds75438_75819&lt;/b&gt;&lt;br&gt;hypothetical protein&lt;br&gt;Location: 75438 - 75819" locus_tag="cds75438_75819"  />
<polygon class="clusterblast-orf" id="dummy-1_q27_0_all" style="stroke-width:1; stroke:black; fill:#d8bc15; " points="481,35 486,30 509,30 509,40 486,40 481,35 " description="&lt;b&gt;cds76073_77639&lt;/b&gt;&lt;br&gt;Adenylate cyclase (EC 4.6.1.1)&lt;br&gt;Location: 76073 - 77639" locus_tag="cds76073_77639"  />
<polygon class="clusterblast-orf" id="dummy-1_q28_0_all" style="stroke-width:1; stroke:black; fill:#15d863; " points="511,40 524,40 529,35 524,30 511,30 511,40 " description="&lt;b&gt;cds77743_78763&lt;/b&gt;&lt;br&gt;hypothetical protein&lt;br&gt;Location: 77743 - 78763" locus_tag="cds77743_78763"  />
<polygon class="clusterblast-orf" id="dummy-1_q29_0_all" style="stroke-width:1; stroke:black; fill:#1520d8; " points="530,40 536,40 541,35 536,30 530,30 530,40 " description="&lt;b&gt;cds78842_79424&lt;/b&gt;&lt;br&gt;stress protein&lt;br&gt;Location: 78842 - 79424" locus_tag="cds78842_79424"  />
<polygon class="clusterblast-orf" id="dummy-1_q30_0_all" style="stroke-width:1; stroke:black; fill:#d81579; " points="541,35 546,30 585,30 585,40 546,40 541,35 " description="&lt;b&gt;cds79433_81911&lt;/b&gt;&lt;br&gt;Xylulose-5-phosphate phosphoketolase (EC 4.1.2.9) @ Fructose-6-phosphate phosphoketolase (EC 4.1.2.22)&lt;br&gt;Location: 79433 - 81911" locus_tag="cds79433_81911"  />
<polygon class="clusterblast-orf" id="dummy-1_q31_0_all" style="stroke-width:1; stroke:black; fill:white; " points="591,40 594,35 591,30 591,40 " description="&lt;b&gt;cds82288_82426&lt;/b&gt;&lt;br&gt;hypothetical protein&lt;br&gt;Location: 82288 - 82426" locus_tag="cds82288_82426"  />
<polygon class="clusterblast-orf" id="dummy-1_q32_0_all" style="stroke-width:1; stroke:black; fill:#d3d815; " points="594,35 599,30 605,30 605,40 599,40 594,35 " description="&lt;b&gt;cds82458_83061&lt;/b&gt;&lt;br&gt;Transcriptional regulator, TetR family&lt;br&gt;Location: 82458 - 83061" locus_tag="cds82458_83061"  />
<polygon class="clusterblast-orf" id="dummy-1_q33_0_all" style="stroke-width:1; stroke:black; fill:#15d885; " points="606,40 621,40 626,35 621,30 606,30 606,40 " description="&lt;b&gt;cds83131_84274&lt;/b&gt;&lt;br&gt;Acyl-CoA dehydrogenase, short-chain specific (EC 1.3.8.1)&lt;br&gt;Location: 83131 - 84274" locus_tag="cds83131_84274"  />
<polygon class="clusterblast-orf" id="dummy-1_q34_0_all" style="stroke-width:1; stroke:black; fill:#2b15d8; " points="627,35 630,30 630,40 627,35 " description="&lt;b&gt;cds84287_84479&lt;/b&gt;&lt;br&gt;hypothetical protein&lt;br&gt;Location: 84287 - 84479" locus_tag="cds84287_84479"  />
<polygon class="clusterblast-orf" id="dummy-1_q35_0_all" style="stroke-width:1; stroke:black; fill:#d81558; " points="633,35 638,30 643,30 643,40 638,40 633,35 " description="&lt;b&gt;cds84640_85207&lt;/b&gt;&lt;br&gt;hypothetical protein&lt;br&gt;Location: 84640 - 85207" locus_tag="cds84640_85207"  />
<polygon class="clusterblast-orf" id="dummy-1_q36_0_all" style="stroke-width:1; stroke:black; fill:white; " points="643,40 646,35 643,30 643,40 " description="&lt;b&gt;cds85230_85392&lt;/b&gt;&lt;br&gt;hypothetical protein&lt;br&gt;Location: 85230 - 85392" locus_tag="cds85230_85392"  />
<polygon class="clusterblast-orf" id="dummy-1_q37_0_all" style="stroke-width:1; stroke:black; fill:white; " points="650,40 666,40 671,35 666,30 650,30 650,40 " description="&lt;b&gt;cds85631_86783&lt;/b&gt;&lt;br&gt;Beta-lactamase class C-like and penicillin binding proteins (PBPs) superfamily&lt;br&gt;Location: 85631 - 86783" locus_tag="cds85631_86783"  />
<polygon class="clusterblast-orf" id="dummy-1_q38_0_all" style="stroke-width:1; stroke:black; fill:#b1d815; " points="673,35 678,30 689,30 689,40 678,40 673,35 " description="&lt;b&gt;cds86918_87788&lt;/b&gt;&lt;br&gt;Transcriptional regulator, LysR family&lt;br&gt;Location: 86918 - 87788" locus_tag="cds86918_87788"  />
<polygon class="clusterblast-orf" id="dummy-1_q39_0_all" style="stroke-width:1; stroke:black; fill:#15d8a6; " points="690,40 701,40 706,35 701,30 690,30 690,40 " description="&lt;b&gt;cds87858_88746&lt;/b&gt;&lt;br&gt;Dihydrodipicolinate synthase family&lt;br&gt;Location: 87858 - 88746" locus_tag="cds87858_88746"  />
<polygon class="clusterblast-orf" id="dummy-1_q40_0_all" style="stroke-width:1; stroke:black; fill:white; " points="706,35 710,30 710,40 706,35 " description="&lt;b&gt;cds88764_88992&lt;/b&gt;&lt;br&gt;hypothetical protein&lt;br&gt;Location: 88764 - 88992" locus_tag="cds88764_88992"  />
<polygon class="clusterblast-orf" id="dummy-1_q41_0_all" style="stroke-width:1; stroke:black; fill:#4d15d8; " points="712,35 717,30 719,30 719,40 717,40 712,35 " description="&lt;b&gt;cds89094_89481&lt;/b&gt;&lt;br&gt;LSU ribosomal protein L7p/L12p (P1/P2)&lt;br&gt;Location: 89094 - 89481" locus_tag="cds89094_89481"  />
<polygon class="clusterblast-orf" id="dummy-1_q42_0_all" style="stroke-width:1; stroke:black; fill:#d81537; " points="719,35 722,30 722,40 719,35 " description="&lt;b&gt;cds89522_89690&lt;/b&gt;&lt;br&gt;hypothetical protein&lt;br&gt;Location: 89522 - 89690" locus_tag="cds89522_89690"  />
<polygon class="clusterblast-orf" id="dummy-1_q43_0_all" style="stroke-width:1; stroke:black; fill:#90d815; " points="727,40 738,40 743,35 738,30 727,30 727,40 " description="&lt;b&gt;cds89968_90877&lt;/b&gt;&lt;br&gt;hypothetical protein&lt;br&gt;Location: 89968 - 90877" locus_tag="cds89968_90877"  />
<polygon class="clusterblast-orf" id="dummy-1_q44_0_all" style="stroke-width:1; stroke:black; fill:#15d8c8; " points="743,40 754,40 759,35 754,30 743,30 743,40 " description="&lt;b&gt;cds90878_91772&lt;/b&gt;&lt;br&gt;Oxidoreductase, short-chain dehydrogenase/reductase family&lt;br&gt;Location: 90878 - 91772" locus_tag="cds90878_91772"  />
<polygon class="clusterblast-orf" id="dummy-1_q45_0_all" style="stroke-width:1; stroke:black; fill:#6e15d8; " points="759,40 771,40 776,35 771,30 759,30 759,40 " description="&lt;b&gt;cds91773_92694&lt;/b&gt;&lt;br&gt;hypothetical protein&lt;br&gt;Location: 91773 - 92694" locus_tag="cds91773_92694"  />
</g>
<g class="clusterblast-cluster" description="NZ_CP017839 (2413578-2459929): Nocardia seriolae strain EM150506 chromosome, ... (24% of genes show similarity), T1PKS" label="NZ_CP017839"  >
<text y="70" class="clusterblast-acc" x="5"  >
<a xlink:href="https://antismash-db.secondarymetabolites.org/area.html?record=NZ_CP017839&amp;start=2413578&amp;end=2459929" target="_blank">NZ_CP017839 (2413578-2459929)</a>: Nocardia seriolae strain EM150506 chromosome, ... (24% of genes show similarity), T1PKS</text>
<line y1="85" y2="85" x2="778.0" style="stroke-width:1; stroke:grey; " x1="10"  />
</g>
<g id="a1_000"  >
<polygon class="clusterblast-orf" id="dummy-1_h1_4_0" style="stroke-width:1; stroke:black; fill:white; " points="0,85 5,80 14,80 14,90 5,90 0,85 " description="&lt;b&gt;NS506_RS11050&lt;/b&gt;&lt;br&gt;LLM class flavin-dependent oxidoreductase&lt;br&gt;Location: 2414222 - 2415028" locus_tag="NS506_RS11050"  />
</g>
<g id="a1_001"  >
<polygon class="clusterblast-orf" id="dummy-1_h1_4_1" style="stroke-width:1; stroke:black; fill:white; " points="17,90 47,90 52,85 47,80 17,80 17,90 " description="&lt;b&gt;NS506_RS11055&lt;/b&gt;&lt;br&gt;NAD-dependent DNA ligase LigA&lt;br&gt;Location: 2415198 - 2417183" locus_tag="NS506_RS11055"  />
</g>
<g id="a1_002"  >
<polygon class="clusterblast-orf" id="dummy-1_h1_4_2" style="stroke-width:1; stroke:black; fill:white; " points="53,90 68,90 73,85 68,80 53,80 53,90 " description="&lt;b&gt;NS506_RS11060&lt;/b&gt;&lt;br&gt;IS630 family transposase&lt;br&gt;Location: 2417260 - 2418345" locus_tag="NS506_RS11060"  />
</g>
<g id="a1_003"  >
<polygon class="clusterblast-orf" id="dummy-1_h1_4_3" style="stroke-width:1; stroke:black; fill:white; " points="75,90 101,90 106,85 101,80 75,80 75,90 " description="&lt;b&gt;NS506_RS11065&lt;/b&gt;&lt;br&gt;hypothetical protein&lt;br&gt;Location: 2418479 - 2420221" locus_tag="NS506_RS11065"  />
</g>
<g id="a1_004"  >
<polygon class="clusterblast-orf" id="dummy-1_h1_4_4" style="stroke-width:1; stroke:black; fill:white; " points="112,90 117,90 122,85 117,80 112,80 112,90 " description="&lt;b&gt;NS506_RS11070&lt;/b&gt;&lt;br&gt;TerD family protein&lt;br&gt;Location: 2420552 - 2421127" locus_tag="NS506_RS11070"  />
</g>
<g id="a1_005"  >
<polygon class="clusterblast-orf" id="dummy-1_h1_4_5" style="stroke-width:1; stroke:black; fill:white; " points="121,85 126,80 138,80 138,90 126,90 121,85 " description="&lt;b&gt;NS506_RS11075&lt;/b&gt;&lt;br&gt;cysteine synthase family protein&lt;br&gt;Location: 2421109 - 2422065" locus_tag="NS506_RS11075"  />
</g>
<g id="a1_006"  >
<polygon class="clusterblast-orf" id="dummy-1_h1_4_6" style="stroke-width:1; stroke:black; fill:white; " points="140,85 145,80 154,80 154,90 145,90 140,85 " description="&lt;b&gt;NS506_RS11080&lt;/b&gt;&lt;br&gt;SGNH/GDSL hydrolase family protein&lt;br&gt;Location: 2422150 - 2422953" locus_tag="NS506_RS11080"  />
</g>
<g id="a1_007"  >
<polygon class="clusterblast-orf" id="dummy-1_h1_4_7" style="stroke-width:1; stroke:black; fill:white; " points="155,85 160,80 163,80 163,90 160,90 155,85 " description="&lt;b&gt;NS506_RS11085&lt;/b&gt;&lt;br&gt;nuclear transport factor 2 family protein&lt;br&gt;Location: 2423030 - 2423446" locus_tag="NS506_RS11085"  />
</g>
<g id="a1_008"  >
<polygon class="clusterblast-orf" id="dummy-1_h1_4_8" style="stroke-width:1; stroke:black; fill:white; " points="166,85 171,80 197,80 197,90 171,90 166,85 " description="&lt;b&gt;NS506_RS11090&lt;/b&gt;&lt;br&gt;oleate hydratase&lt;br&gt;Location: 2423611 - 2425374" locus_tag="NS506_RS11090"  />
</g>
<g id="a1_009"  >
<polygon class="clusterblast-orf" id="dummy-1_h1_4_9" style="stroke-width:1; stroke:black; fill:#d315d8; " points="198,85 203,80 213,80 213,90 203,90 198,85 " description="&lt;b&gt;NS506_RS11095&lt;/b&gt;&lt;br&gt;3-hydroxyacyl-CoA dehydrogenase&lt;br&gt;Location: 2425433 - 2426287&lt;br&gt;&lt;br&gt;&lt;b&gt;BlastP hit with cds62307_63162&lt;/b&gt;&lt;br&gt;Percentage identity: 81&lt;br&gt;Percentage coverage: 100&lt;br&gt;BLAST bit score: 465&lt;br&gt;E-value: 3.7e-129" locus_tag="NS506_RS11095"  />
</g>
<g id="a1_0010"  >
<polygon class="clusterblast-orf" id="dummy-1_h1_4_10" style="stroke-width:1; stroke:black; fill:#1585d8; " points="213,85 218,80 224,80 224,90 218,90 213,85 " description="&lt;b&gt;NS506_RS11100&lt;/b&gt;&lt;br&gt;TetR/AcrR family transcriptional regulator&lt;br&gt;Location: 2426284 - 2426877&lt;br&gt;&lt;br&gt;&lt;b&gt;BlastP hit with cds61657_62308&lt;/b&gt;&lt;br&gt;Percentage identity: 70&lt;br&gt;Percentage coverage: 92&lt;br&gt;BLAST bit score: 254&lt;br&gt;E-value: 7.6e-66" locus_tag="NS506_RS11100"  />
</g>
<g id="a1_0011"  >
<polygon class="clusterblast-orf" id="dummy-1_h1_4_11" style="stroke-width:1; stroke:black; fill:white; " points="226,90 262,90 267,85 262,80 226,80 226,90 " description="&lt;b&gt;NS506_RS11105&lt;/b&gt;&lt;br&gt;molybdopterin-dependent oxidoreductase&lt;br&gt;Location: 2427036 - 2429324" locus_tag="NS506_RS11105"  />
</g>
<g id="a1_0012"  >
<polygon class="clusterblast-orf" id="dummy-1_h1_4_12" style="stroke-width:1; stroke:black; fill:white; " points="279,85 284,80 295,80 295,90 284,90 279,85 " description="&lt;b&gt;NS506_RS11110&lt;/b&gt;&lt;br&gt;LysR family transcriptional regulator&lt;br&gt;Location: 2430019 - 2430897" locus_tag="NS506_RS11110"  />
</g>
<g id="a1_0013"  >
<polygon class="clusterblast-orf" id="dummy-1_h1_4_13" style="stroke-width:1; stroke:black; fill:white; " points="297,90 314,90 319,85 314,80 297,80 297,90 " description="&lt;b&gt;NS506_RS11115&lt;/b&gt;&lt;br&gt;MFS transporter&lt;br&gt;Location: 2431001 - 2432251" locus_tag="NS506_RS11115"  />
</g>
<g id="a1_0014"  >
<polygon class="clusterblast-orf" id="dummy-1_h1_4_14" style="stroke-width:1; stroke:black; fill:#1563d8; " points="318,85 323,80 342,80 342,90 323,90 318,85 " description="&lt;b&gt;NS506_RS11120&lt;/b&gt;&lt;br&gt;aminotransferase class I/II-fold pyridoxal phosphate-dependent enzyme&lt;br&gt;Location: 2432224 - 2433582&lt;br&gt;&lt;br&gt;&lt;b&gt;BlastP hit with cds65894_67262&lt;/b&gt;&lt;br&gt;Percentage identity: 80&lt;br&gt;Percentage coverage: 99&lt;br&gt;BLAST bit score: 698&lt;br&gt;E-value: 5.5e-199" locus_tag="NS506_RS11120"  />
</g>
<g id="a1_0015"  >
<polygon class="clusterblast-orf" id="dummy-1_h1_4_15" style="stroke-width:1; stroke:black; fill:#d815bc; " points="342,85 347,80 455,80 455,90 347,90 342,85 " description="&lt;b&gt;NS506_RS11125&lt;/b&gt;&lt;br&gt;type I polyketide synthase&lt;br&gt;Location: 2433579 - 2439929&lt;br&gt;&lt;br&gt;&lt;b&gt;BlastP hit with cds67258_73600&lt;/b&gt;&lt;br&gt;Percentage identity: 75&lt;br&gt;Percentage coverage: 100&lt;br&gt;BLAST bit score: 3087&lt;br&gt;E-value: 0.0" locus_tag="NS506_RS11125"  />
</g>
<g id="a1_0016"  >
<polygon class="clusterblast-orf" id="dummy-1_h1_4_16" style="stroke-width:1; stroke:black; fill:#d89b15; " points="457,85 462,80 467,80 467,90 462,90 457,85 " description="&lt;b&gt;NS506_RS11130&lt;/b&gt;&lt;br&gt;GNAT family N-acetyltransferase&lt;br&gt;Location: 2440061 - 2440645&lt;br&gt;&lt;br&gt;&lt;b&gt;BlastP hit with cds73655_74285&lt;/b&gt;&lt;br&gt;Percentage identity: 61&lt;br&gt;Percentage coverage: 92&lt;br&gt;BLAST bit score: 247&lt;br&gt;E-value: 9e-64" locus_tag="NS506_RS11130"  />
</g>
<g id="a1_0017"  >
<polygon class="clusterblast-orf" id="dummy-1_h1_4_17" style="stroke-width:1; stroke:black; fill:white; " points="473,90 487,90 492,85 487,80 473,80 473,90 " description="&lt;b&gt;NS506_RS11135&lt;/b&gt;&lt;br&gt;TerD family protein&lt;br&gt;Location: 2440958 - 2442052" locus_tag="NS506_RS11135"  />
</g>
<g id="a1_0018"  >
<polygon class="clusterblast-orf" id="dummy-1_h1_4_18" style="stroke-width:1; stroke:black; fill:white; " points="493,85 498,80 517,80 517,90 498,90 493,85 " description="&lt;b&gt;NS506_RS11140&lt;/b&gt;&lt;br&gt;TerD family protein&lt;br&gt;Location: 2442065 - 2443423" locus_tag="NS506_RS11140"  />
</g>
<g id="a1_0019"  >
<polygon class="clusterblast-orf" id="dummy-1_h1_4_19" style="stroke-width:1; stroke:black; fill:white; " points="518,85 523,80 524,80 524,90 523,90 518,85 " description="&lt;b&gt;NS506_RS38635&lt;/b&gt;&lt;br&gt;hypothetical protein&lt;br&gt;Location: 2443480 - 2443823" locus_tag="NS506_RS38635"  />
</g>
<g id="a1_0020"  >
<polygon class="clusterblast-orf" id="dummy-1_h1_4_20" style="stroke-width:1; stroke:black; fill:white; " points="525,85 530,80 532,80 532,90 530,90 525,85 " description="&lt;b&gt;NS506_RS11145&lt;/b&gt;&lt;br&gt;hypothetical protein&lt;br&gt;Location: 2443900 - 2444295" locus_tag="NS506_RS11145"  />
</g>
<g id="a1_0021"  >
<polygon class="clusterblast-orf" id="dummy-1_h1_4_21" style="stroke-width:1; stroke:black; fill:white; " points="535,90 545,90 550,85 545,80 535,80 535,90 " description="&lt;b&gt;NS506_RS11150&lt;/b&gt;&lt;br&gt;class I SAM-dependent methyltransferase&lt;br&gt;Location: 2444450 - 2445331" locus_tag="NS506_RS11150"  />
</g>
<g id="a1_0022"  >
<polygon class="clusterblast-orf" id="dummy-1_h1_4_22" style="stroke-width:1; stroke:black; fill:white; " points="555,90 558,85 555,80 555,90 " description="&lt;b&gt;NS506_RS40530&lt;/b&gt;&lt;br&gt;hypothetical protein&lt;br&gt;Location: 2445589 - 2445753" locus_tag="NS506_RS40530"  />
</g>
<g id="a1_0023"  >
<polygon class="clusterblast-orf" id="dummy-1_h1_4_23" style="stroke-width:1; stroke:black; fill:white; " points="559,85 564,80 578,80 578,90 564,90 559,85 " description="&lt;b&gt;NS506_RS11155&lt;/b&gt;&lt;br&gt;DUF2236 domain-containing protein&lt;br&gt;Location: 2445843 - 2446880" locus_tag="NS506_RS11155"  />
</g>
<g id="a1_0024"  >
<polygon class="clusterblast-orf" id="dummy-1_h1_4_24" style="stroke-width:1; stroke:black; fill:#90d815; " points="580,90 593,90 598,85 593,80 580,80 580,90 " description="&lt;b&gt;NS506_RS11160&lt;/b&gt;&lt;br&gt;alpha/beta hydrolase fold domain-containing protein&lt;br&gt;Location: 2447007 - 2448005&lt;br&gt;&lt;br&gt;&lt;b&gt;BlastP hit with cds89968_90877&lt;/b&gt;&lt;br&gt;Percentage identity: 80&lt;br&gt;Percentage coverage: 97&lt;br&gt;BLAST bit score: 469&lt;br&gt;E-value: 2.1e-130" locus_tag="NS506_RS11160"  />
</g>
<g id="a1_0025"  >
<polygon class="clusterblast-orf" id="dummy-1_h1_4_25" style="stroke-width:1; stroke:black; fill:#15d8c8; " points="598,90 609,90 614,85 609,80 598,80 598,90 " description="&lt;b&gt;NS506_RS11165&lt;/b&gt;&lt;br&gt;SDR family NAD(P)-dependent oxidoreductase&lt;br&gt;Location: 2448007 - 2448906&lt;br&gt;&lt;br&gt;&lt;b&gt;BlastP hit with cds90878_91772&lt;/b&gt;&lt;br&gt;Percentage identity: 81&lt;br&gt;Percentage coverage: 95&lt;br&gt;BLAST bit score: 454&lt;br&gt;E-value: 6.9e-126" locus_tag="NS506_RS11165"  />
</g>
<g id="a1_0026"  >
<polygon class="clusterblast-orf" id="dummy-1_h1_4_26" style="stroke-width:1; stroke:black; fill:#6e15d8; " points="614,90 625,90 630,85 625,80 614,80 614,90 " description="&lt;b&gt;NS506_RS11170&lt;/b&gt;&lt;br&gt;reductase&lt;br&gt;Location: 2448908 - 2449828&lt;br&gt;&lt;br&gt;&lt;b&gt;BlastP hit with cds91773_92694&lt;/b&gt;&lt;br&gt;Percentage identity: 87&lt;br&gt;Percentage coverage: 100&lt;br&gt;BLAST bit score: 549&lt;br&gt;E-value: 2.1e-154" locus_tag="NS506_RS11170"  />
</g>
<g id="a1_0027"  >
<polygon class="clusterblast-orf" id="dummy-1_h1_4_27" style="stroke-width:1; stroke:black; fill:white; " points="630,90 651,90 656,85 651,80 630,80 630,90 " description="&lt;b&gt;NS506_RS11175&lt;/b&gt;&lt;br&gt;NAD(P)/FAD-dependent oxidoreductase&lt;br&gt;Location: 2449825 - 2451288" locus_tag="NS506_RS11175"  />
</g>
<g id="a1_0028"  >
<polygon class="clusterblast-orf" id="dummy-1_h1_4_28" style="stroke-width:1; stroke:black; fill:white; " points="658,90 666,90 671,85 666,80 658,80 658,90 " description="&lt;b&gt;NS506_RS11180&lt;/b&gt;&lt;br&gt;MerR family transcriptional regulator&lt;br&gt;Location: 2451396 - 2452160" locus_tag="NS506_RS11180"  />
</g>
<g id="a1_0029"  >
<polygon class="clusterblast-orf" id="dummy-1_h1_4_29" style="stroke-width:1; stroke:black; fill:#4d15d8; " points="673,85 678,80 679,80 679,90 678,90 673,85 " description="&lt;b&gt;NS506_RS11185&lt;/b&gt;&lt;br&gt;50S ribosomal protein L7/L12&lt;br&gt;Location: 2452239 - 2452622&lt;br&gt;&lt;br&gt;&lt;b&gt;BlastP hit with cds89094_89481&lt;/b&gt;&lt;br&gt;Percentage identity: 70&lt;br&gt;Percentage coverage: 100&lt;br&gt;BLAST bit score: 160&lt;br&gt;E-value: 8.8e-38" locus_tag="NS506_RS11185"  />
</g>
<g id="a1_0030"  >
<polygon class="clusterblast-orf" id="dummy-1_h1_4_30" style="stroke-width:1; stroke:black; fill:white; " points="680,85 685,80 688,80 688,90 685,90 680,85 " description="&lt;b&gt;NS506_RS11190&lt;/b&gt;&lt;br&gt;thioesterase family protein&lt;br&gt;Location: 2452664 - 2453077" locus_tag="NS506_RS11190"  />
</g>
<g id="a1_0031"  >
<polygon class="clusterblast-orf" id="dummy-1_h1_4_31" style="stroke-width:1; stroke:black; fill:white; " points="688,85 693,80 694,80 694,90 693,90 688,85 " description="&lt;b&gt;NS506_RS11195&lt;/b&gt;&lt;br&gt;acyl-CoA thioesterase&lt;br&gt;Location: 2453077 - 2453460" locus_tag="NS506_RS11195"  />
</g>
<g id="a1_0032"  >
<polygon class="clusterblast-orf" id="dummy-1_h1_4_32" style="stroke-width:1; stroke:black; fill:white; " points="697,90 709,90 714,85 709,80 697,80 697,90 " description="&lt;b&gt;NS506_RS11200&lt;/b&gt;&lt;br&gt;GlxA family transcriptional regulator&lt;br&gt;Location: 2453592 - 2454548" locus_tag="NS506_RS11200"  />
</g>
<g id="a1_0033"  >
<polygon class="clusterblast-orf" id="dummy-1_h1_4_33" style="stroke-width:1; stroke:black; fill:white; " points="714,90 722,90 727,85 722,80 714,80 714,90 " description="&lt;b&gt;NS506_RS11205&lt;/b&gt;&lt;br&gt;DJ-1/PfpI family protein&lt;br&gt;Location: 2454564 - 2455295" locus_tag="NS506_RS11205"  />
</g>
<g id="a1_0034"  >
<polygon class="clusterblast-orf" id="dummy-1_h1_4_34" style="stroke-width:1; stroke:black; fill:white; " points="727,90 743,90 748,85 743,80 727,80 727,90 " description="&lt;b&gt;NS506_RS11210&lt;/b&gt;&lt;br&gt;cytochrome P450&lt;br&gt;Location: 2455292 - 2456509" locus_tag="NS506_RS11210"  />
</g>
<g id="a1_0035"  >
<polygon class="clusterblast-orf" id="dummy-1_h1_4_35" style="stroke-width:1; stroke:black; fill:white; " points="748,85 753,80 764,80 764,90 753,90 748,85 " description="&lt;b&gt;NS506_RS11215&lt;/b&gt;&lt;br&gt;hexose kinase&lt;br&gt;Location: 2456498 - 2457412" locus_tag="NS506_RS11215"  />
</g>
<g id="a1_0036"  >
<polygon class="clusterblast-orf" id="dummy-1_h1_4_36" style="stroke-width:1; stroke:black; fill:white; " points="769,90 775,90 780,85 775,80 769,80 769,90 " description="&lt;b&gt;NS506_RS11220&lt;/b&gt;&lt;br&gt;extracellular solute-binding protein&lt;br&gt;Location: 2457671 - 2458270" locus_tag="NS506_RS11220"  />
</g>
</svg>
