<svg y="0" preserveAspectRatio="none" viewBox="0 0 800 230" xmlns="http://www.w3.org/2000/svg" xmlns:xlink="http://www.w3.org/1999/xlink" version="1.1" x="0" width="800" height="230"  >
<g class="clusterblast-cluster" label="Query sequence"  >
<text y="20" class="clusterblast-acc" x="5"  >
Query sequence</text>
<line y1="35" y2="35" x2="778.0" style="stroke-width:1; stroke:grey; " x1="10"  />
<polygon class="clusterblast-orf" id="dummy-1_q0_0_all" style="stroke-width:1; stroke:black; fill:white; " points="173,40 175,35 173,30 173,40 " description="&lt;b&gt;cds168742_168952&lt;/b&gt;&lt;br&gt;hypothetical protein&lt;br&gt;Location: 168742 - 168952" locus_tag="cds168742_168952"  />
<polygon class="clusterblast-orf" id="dummy-1_q1_0_all" style="stroke-width:1; stroke:black; fill:white; " points="175,35 180,30 181,30 181,40 180,40 175,35 " description="&lt;b&gt;cds169031_169718&lt;/b&gt;&lt;br&gt;Two-component transcriptional response regulator SCO5283, OmpR family&lt;br&gt;Location: 169031 - 169718" locus_tag="cds169031_169718"  />
<polygon class="clusterblast-orf" id="dummy-1_q2_0_all" style="stroke-width:1; stroke:black; fill:white; " points="182,40 185,40 190,35 185,30 182,30 182,40 " description="&lt;b&gt;cds169836_170670&lt;/b&gt;&lt;br&gt;putative secreted protein&lt;br&gt;Location: 169836 - 170670" locus_tag="cds169836_170670"  />
<polygon class="clusterblast-orf" id="dummy-1_q3_0_all" style="stroke-width:1; stroke:black; fill:white; " points="189,35 194,30 195,30 195,40 194,40 189,35 " description="&lt;b&gt;cds170666_171350&lt;/b&gt;&lt;br&gt;Arsenate reductase (EC 1.20.4.4) thioredoxin-coupled, LMWP family&lt;br&gt;Location: 170666 - 171350" locus_tag="cds170666_171350"  />
<polygon class="clusterblast-orf" id="dummy-1_q4_0_all" style="stroke-width:1; stroke:black; fill:white; " points="196,35 201,30 202,30 202,40 201,40 196,35 " description="&lt;b&gt;cds171382_172078&lt;/b&gt;&lt;br&gt;Arsenical resistance operon repressor / Arsenate reductase (EC 1.20.4.4) thioredoxin-coupled, LMWP family&lt;br&gt;Location: 171382 - 172078" locus_tag="cds171382_172078"  />
<polygon class="clusterblast-orf" id="dummy-1_q5_0_all" style="stroke-width:1; stroke:black; fill:white; " points="203,40 207,35 203,30 203,40 " description="&lt;b&gt;cds172179_172722&lt;/b&gt;&lt;br&gt;hypothetical protein&lt;br&gt;Location: 172179 - 172722" locus_tag="cds172179_172722"  />
<polygon class="clusterblast-orf" id="dummy-1_q6_0_all" style="stroke-width:1; stroke:black; fill:white; " points="209,40 209,40 214,35 209,30 209,30 209,40 " description="&lt;b&gt;cds172885_173479&lt;/b&gt;&lt;br&gt;Copper metallochaperone PCu(A)C, inserts Cu(I) into cytochrome oxidase subunit II&lt;br&gt;Location: 172885 - 173479" locus_tag="cds172885_173479"  />
<polygon class="clusterblast-orf" id="dummy-1_q7_0_all" style="stroke-width:1; stroke:black; fill:white; " points="214,40 219,40 224,35 219,30 214,30 214,40 " description="&lt;b&gt;cds173471_174677&lt;/b&gt;&lt;br&gt;Putative Dyp-type peroxidase, associated with bacterial analog of Cox17 protein&lt;br&gt;Location: 173471 - 174677" locus_tag="cds173471_174677"  />
<polygon class="clusterblast-orf" id="dummy-1_q8_0_all" style="stroke-width:1; stroke:black; fill:white; " points="226,40 229,35 226,30 226,40 " description="&lt;b&gt;cds174851_175187&lt;/b&gt;&lt;br&gt;Protein of unknown function UPF0060&lt;br&gt;Location: 174851 - 175187" locus_tag="cds174851_175187"  />
<polygon class="clusterblast-orf" id="dummy-1_q9_0_all" style="stroke-width:1; stroke:black; fill:white; " points="230,35 235,30 235,30 235,40 235,40 230,35 " description="&lt;b&gt;cds175356_175971&lt;/b&gt;&lt;br&gt;Transcriptional regulator, AcrR family&lt;br&gt;Location: 175356 - 175971" locus_tag="cds175356_175971"  />
<polygon class="clusterblast-orf" id="dummy-1_q10_0_all" style="stroke-width:1; stroke:black; fill:white; " points="236,40 243,40 248,35 243,30 236,30 236,40 " description="&lt;b&gt;cds176080_177499&lt;/b&gt;&lt;br&gt;Uncharacterized MFS-type transporter&lt;br&gt;Location: 176080 - 177499" locus_tag="cds176080_177499"  />
<polygon class="clusterblast-orf" id="dummy-1_q11_0_all" style="stroke-width:1; stroke:black; fill:white; " points="248,40 249,40 254,35 249,30 248,30 248,40 " description="&lt;b&gt;cds177495_178191&lt;/b&gt;&lt;br&gt;putative secreted protein&lt;br&gt;Location: 177495 - 178191" locus_tag="cds177495_178191"  />
<polygon class="clusterblast-orf" id="dummy-1_q12_0_all" style="stroke-width:1; stroke:black; fill:white; " points="255,40 256,35 255,30 255,40 " description="&lt;b&gt;cds178305_178428&lt;/b&gt;&lt;br&gt;hypothetical protein&lt;br&gt;Location: 178305 - 178428" locus_tag="cds178305_178428"  />
<polygon class="clusterblast-orf" id="dummy-1_q13_0_all" style="stroke-width:1; stroke:black; fill:white; " points="257,40 260,40 265,35 260,30 257,30 257,40 " description="&lt;b&gt;cds178472_179366&lt;/b&gt;&lt;br&gt;hypothetical protein&lt;br&gt;Location: 178472 - 179366" locus_tag="cds178472_179366"  />
<polygon class="clusterblast-orf" id="dummy-1_q14_0_all" style="stroke-width:1; stroke:black; fill:white; " points="265,35 268,30 268,40 265,35 " description="&lt;b&gt;cds179431_179782&lt;/b&gt;&lt;br&gt;Integral membrane protein&lt;br&gt;Location: 179431 - 179782" locus_tag="cds179431_179782"  />
<polygon class="clusterblast-orf" id="dummy-1_q15_0_all" style="stroke-width:1; stroke:black; fill:white; " points="272,40 276,40 281,35 276,30 272,30 272,40 " description="&lt;b&gt;cds180276_181269&lt;/b&gt;&lt;br&gt;ADP-heptose--lipooligosaccharide heptosyltransferase II&lt;br&gt;Location: 180276 - 181269" locus_tag="cds180276_181269"  />
<polygon class="clusterblast-orf" id="dummy-1_q16_0_all" style="stroke-width:1; stroke:black; fill:white; " points="281,35 284,30 284,40 281,35 " description="&lt;b&gt;cds181283_181595&lt;/b&gt;&lt;br&gt;Transcriptional regulator, ArsR family&lt;br&gt;Location: 181283 - 181595" locus_tag="cds181283_181595"  />
<polygon class="clusterblast-orf" id="dummy-1_q17_0_all" style="stroke-width:1; stroke:black; fill:white; " points="286,40 286,40 291,35 286,30 286,30 286,40 " description="&lt;b&gt;cds181799_182480&lt;/b&gt;&lt;br&gt;hypothetical protein&lt;br&gt;Location: 181799 - 182480" locus_tag="cds181799_182480"  />
<polygon class="clusterblast-orf" id="dummy-1_q18_0_all" style="stroke-width:1; stroke:black; fill:white; " points="294,40 298,40 303,35 298,30 294,30 294,40 " description="&lt;b&gt;cds182765_183785&lt;/b&gt;&lt;br&gt;hypothetical protein&lt;br&gt;Location: 182765 - 183785" locus_tag="cds182765_183785"  />
<polygon class="clusterblast-orf" id="dummy-1_q19_0_all" style="stroke-width:1; stroke:black; fill:white; " points="302,35 304,30 304,40 302,35 " description="&lt;b&gt;cds183735_183936&lt;/b&gt;&lt;br&gt;hypothetical protein&lt;br&gt;Location: 183735 - 183936" locus_tag="cds183735_183936"  />
<polygon class="clusterblast-orf" id="dummy-1_q20_0_all" style="stroke-width:1; stroke:black; fill:white; " points="307,40 310,35 307,30 307,40 " description="&lt;b&gt;cds184251_184587&lt;/b&gt;&lt;br&gt;FIG00820327: hypothetical protein&lt;br&gt;Location: 184251 - 184587" locus_tag="cds184251_184587"  />
<polygon class="clusterblast-orf" id="dummy-1_q21_0_all" style="stroke-width:1; stroke:black; fill:white; " points="310,35 315,30 325,30 325,40 315,40 310,35 " description="&lt;b&gt;cds184614_186351&lt;/b&gt;&lt;br&gt;Cytochrome c oxidase polypeptide I (EC 1.9.3.1)&lt;br&gt;Location: 184614 - 186351" locus_tag="cds184614_186351"  />
<polygon class="clusterblast-orf" id="dummy-1_q22_0_all" style="stroke-width:1; stroke:black; fill:#d81515; " points="326,35 331,30 334,30 334,40 331,40 326,35 " description="&lt;b&gt;cds186470_187358&lt;/b&gt;&lt;br&gt;Efflux ABC transporter, permease protein&lt;br&gt;Location: 186470 - 187358" locus_tag="cds186470_187358"  />
<polygon class="clusterblast-orf" id="dummy-1_q23_0_all" style="stroke-width:1; stroke:black; fill:#15d863; " points="334,35 339,30 343,30 343,40 339,40 334,35 " description="&lt;b&gt;cds187424_188411&lt;/b&gt;&lt;br&gt;Efflux ABC transporter, ATP-binding protein&lt;br&gt;Location: 187424 - 188411" locus_tag="cds187424_188411"  />
<polygon class="clusterblast-orf" id="dummy-1_q24_0_all" style="stroke-width:1; stroke:black; fill:white; " points="343,35 348,30 460,30 460,40 348,40 343,35 " description="&lt;b&gt;cds188407_202033&lt;/b&gt;&lt;br&gt;Polyketide synthase modules and related proteins&lt;br&gt;Location: 188407 - 202033" locus_tag="cds188407_202033"  />
<polygon class="clusterblast-orf" id="dummy-1_q25_0_all" style="stroke-width:1; stroke:black; fill:white; " points="464,35 469,30 479,30 479,40 469,40 464,35 " description="&lt;b&gt;cds202457_204152&lt;/b&gt;&lt;br&gt;Apolipoprotein N-acyltransferase (EC 2.3.1.-) in lipid-linked oligosaccharide synthesis cluster&lt;br&gt;Location: 202457 - 204152" locus_tag="cds202457_204152"  />
<polygon class="clusterblast-orf" id="dummy-1_q26_0_all" style="stroke-width:1; stroke:black; fill:white; " points="483,35 488,30 498,30 498,40 488,40 483,35 " description="&lt;b&gt;cds204712_206365&lt;/b&gt;&lt;br&gt;Exoenzymes regulatory protein AepA in lipid-linked oligosaccharide synthesis cluster&lt;br&gt;Location: 204712 - 206365" locus_tag="cds204712_206365"  />
<polygon class="clusterblast-orf" id="dummy-1_q27_0_all" style="stroke-width:1; stroke:black; fill:white; " points="499,40 499,40 504,35 499,30 499,30 499,40 " description="&lt;b&gt;cds206545_207040&lt;/b&gt;&lt;br&gt;O-antigen flippase Wzx&lt;br&gt;Location: 206545 - 207040" locus_tag="cds206545_207040"  />
<polygon class="clusterblast-orf" id="dummy-1_q28_0_all" style="stroke-width:1; stroke:black; fill:#1563d8; " points="505,35 510,30 511,30 511,40 510,40 505,35 " description="&lt;b&gt;cds207224_207914&lt;/b&gt;&lt;br&gt;Two-component transcriptional response regulator, LuxR family&lt;br&gt;Location: 207224 - 207914" locus_tag="cds207224_207914"  />
<polygon class="clusterblast-orf" id="dummy-1_q29_0_all" style="stroke-width:1; stroke:black; fill:white; " points="511,35 516,30 522,30 522,40 516,40 511,35 " description="&lt;b&gt;cds207918_209157&lt;/b&gt;&lt;br&gt;Two-component system sensor histidine kinase&lt;br&gt;Location: 207918 - 209157" locus_tag="cds207918_209157"  />
<polygon class="clusterblast-orf" id="dummy-1_q30_0_all" style="stroke-width:1; stroke:black; fill:white; " points="523,40 524,40 529,35 524,30 523,30 523,40 " description="&lt;b&gt;cds209281_210049&lt;/b&gt;&lt;br&gt;putative membrane protein&lt;br&gt;Location: 209281 - 210049" locus_tag="cds209281_210049"  />
<polygon class="clusterblast-orf" id="dummy-1_q31_0_all" style="stroke-width:1; stroke:black; fill:white; " points="530,35 535,30 541,30 541,40 535,40 530,35 " description="&lt;b&gt;cds210114_211368&lt;/b&gt;&lt;br&gt;Transcriptional regulator, AcrR family&lt;br&gt;Location: 210114 - 211368" locus_tag="cds210114_211368"  />
<polygon class="clusterblast-orf" id="dummy-1_q32_0_all" style="stroke-width:1; stroke:black; fill:#b115d8; " points="542,40 551,40 556,35 551,30 542,30 542,40 " description="&lt;b&gt;cds211526_213083&lt;/b&gt;&lt;br&gt;TldD family protein, Actinobacterial subgroup&lt;br&gt;Location: 211526 - 213083" locus_tag="cds211526_213083"  />
<polygon class="clusterblast-orf" id="dummy-1_q33_0_all" style="stroke-width:1; stroke:black; fill:#b1d815; " points="556,40 563,40 568,35 563,30 556,30 556,40 " description="&lt;b&gt;cds213079_214486&lt;/b&gt;&lt;br&gt;TldE/PmbA family protein, Actinobacterial subgroup&lt;br&gt;Location: 213079 - 214486" locus_tag="cds213079_214486"  />
<polygon class="clusterblast-orf" id="dummy-1_q34_0_all" style="stroke-width:1; stroke:black; fill:white; " points="568,40 570,35 568,30 568,40 " description="&lt;b&gt;cds214495_214702&lt;/b&gt;&lt;br&gt;peptidase S1 and S6, chymotrypsin/Hap( EC:3.4.21.- )&lt;br&gt;Location: 214495 - 214702" locus_tag="cds214495_214702"  />
<polygon class="clusterblast-orf" id="dummy-1_q35_0_all" style="stroke-width:1; stroke:black; fill:white; " points="570,35 572,30 572,40 570,35 " description="&lt;b&gt;cds214709_214979&lt;/b&gt;&lt;br&gt;hypothetical protein&lt;br&gt;Location: 214709 - 214979" locus_tag="cds214709_214979"  />
<polygon class="clusterblast-orf" id="dummy-1_q36_0_all" style="stroke-width:1; stroke:black; fill:white; " points="573,40 574,40 579,35 574,30 573,30 573,40 " description="&lt;b&gt;cds215057_215825&lt;/b&gt;&lt;br&gt;Methionine aminopeptidase (EC 3.4.11.18)&lt;br&gt;Location: 215057 - 215825" locus_tag="cds215057_215825"  />
<polygon class="clusterblast-orf" id="dummy-1_q37_0_all" style="stroke-width:1; stroke:black; fill:white; " points="580,35 585,30 586,30 586,40 585,40 580,35 " description="&lt;b&gt;cds215903_216623&lt;/b&gt;&lt;br&gt;hypothetical protein&lt;br&gt;Location: 215903 - 216623" locus_tag="cds215903_216623"  />
<polygon class="clusterblast-orf" id="dummy-1_q38_0_all" style="stroke-width:1; stroke:black; fill:white; " points="587,40 587,40 592,35 587,30 587,30 587,40 " description="&lt;b&gt;cds216740_217325&lt;/b&gt;&lt;br&gt;Transcriptional regulator, PadR family&lt;br&gt;Location: 216740 - 217325" locus_tag="cds216740_217325"  />
<polygon class="clusterblast-orf" id="dummy-1_q39_0_all" style="stroke-width:1; stroke:black; fill:white; " points="592,40 596,35 592,30 592,40 " description="&lt;b&gt;cds217334_217718&lt;/b&gt;&lt;br&gt;hypothetical protein&lt;br&gt;Location: 217334 - 217718" locus_tag="cds217334_217718"  />
<polygon class="clusterblast-orf" id="dummy-1_q40_0_all" style="stroke-width:1; stroke:black; fill:white; " points="597,35 601,30 601,40 597,35 " description="&lt;b&gt;cds217890_218307&lt;/b&gt;&lt;br&gt;hypothetical protein&lt;br&gt;Location: 217890 - 218307" locus_tag="cds217890_218307"  />
<polygon class="clusterblast-orf" id="dummy-1_q41_0_all" style="stroke-width:1; stroke:black; fill:white; " points="602,35 606,30 606,40 602,35 " description="&lt;b&gt;cds218416_218947&lt;/b&gt;&lt;br&gt;hypothetical protein&lt;br&gt;Location: 218416 - 218947" locus_tag="cds218416_218947"  />
</g>
<g class="clusterblast-cluster" description="BGC0000033_c1: calicheamicin (4% of genes show similarity), Polyketide" label="BGC0000033"  >
<text y="70" class="clusterblast-acc" x="5"  >
<a xlink:href="https://mibig.secondarymetabolites.org/go/BGC0000033/1" target="_blank">BGC0000033</a>:                                                                    calicheamicin (4% of genes show similarity), Polyketide</text>
<line y1="85" y2="85" x2="778.0" style="stroke-width:1; stroke:grey; " x1="10"  />
</g>
<g id="a1_000"  >
<polygon class="clusterblast-orf" id="dummy-1_h1_1_0" style="stroke-width:1; stroke:black; fill:white; " points="0,90 5,90 10,85 5,80 0,80 0,90 " description="&lt;b&gt;AAM70365.1&lt;/b&gt;&lt;br&gt;CalG4&lt;br&gt;Location: 90348 - 89143" locus_tag="AAM70365.1"  />
</g>
<g id="a1_001"  >
<polygon class="clusterblast-orf" id="dummy-1_h1_1_1" style="stroke-width:1; stroke:black; fill:white; " points="12,90 20,90 25,85 20,80 12,80 12,90 " description="&lt;b&gt;AAM94801.1&lt;/b&gt;&lt;br&gt;CalU22&lt;br&gt;Location: 88853 - 87351" locus_tag="AAM94801.1"  />
</g>
<g id="a1_002"  >
<polygon class="clusterblast-orf" id="dummy-1_h1_1_2" style="stroke-width:1; stroke:black; fill:white; " points="26,90 26,90 31,85 26,80 26,80 26,90 " description="&lt;b&gt;AAM70363.1&lt;/b&gt;&lt;br&gt;CalU21&lt;br&gt;Location: 87271 - 86678" locus_tag="AAM70363.1"  />
</g>
<g id="a1_003"  >
<polygon class="clusterblast-orf" id="dummy-1_h1_1_3" style="stroke-width:1; stroke:black; fill:white; " points="31,90 31,90 36,85 31,80 31,80 31,90 " description="&lt;b&gt;AAM70362.1&lt;/b&gt;&lt;br&gt;CalU20&lt;br&gt;Location: 86669 - 86118" locus_tag="AAM70362.1"  />
</g>
<g id="a1_004"  >
<polygon class="clusterblast-orf" id="dummy-1_h1_1_4" style="stroke-width:1; stroke:black; fill:white; " points="37,90 38,90 43,85 38,80 37,80 37,90 " description="&lt;b&gt;AAM70361.1&lt;/b&gt;&lt;br&gt;CalU19&lt;br&gt;Location: 85998 - 85300" locus_tag="AAM70361.1"  />
</g>
<g id="a1_005"  >
<polygon class="clusterblast-orf" id="dummy-1_h1_1_5" style="stroke-width:1; stroke:black; fill:white; " points="44,85 49,80 54,80 54,90 49,90 44,85 " description="&lt;b&gt;AAM94800.1&lt;/b&gt;&lt;br&gt;CalE10&lt;br&gt;Location: 85229 - 84045" locus_tag="AAM94800.1"  />
</g>
<g id="a1_006"  >
<polygon class="clusterblast-orf" id="dummy-1_h1_1_6" style="stroke-width:1; stroke:black; fill:white; " points="55,85 60,80 68,80 68,90 60,90 55,85 " description="&lt;b&gt;AAM70359.1&lt;/b&gt;&lt;br&gt;CalS14&lt;br&gt;Location: 83886 - 82456" locus_tag="AAM70359.1"  />
</g>
<g id="a1_007"  >
<polygon class="clusterblast-orf" id="dummy-1_h1_1_7" style="stroke-width:1; stroke:black; fill:white; " points="68,85 71,80 71,90 68,85 " description="&lt;b&gt;AAM70358.1&lt;/b&gt;&lt;br&gt;CalU18&lt;br&gt;Location: 82371 - 82105" locus_tag="AAM70358.1"  />
</g>
<g id="a1_008"  >
<polygon class="clusterblast-orf" id="dummy-1_h1_1_8" style="stroke-width:1; stroke:black; fill:white; " points="71,85 76,80 79,80 79,90 76,90 71,85 " description="&lt;b&gt;AAM70357.1&lt;/b&gt;&lt;br&gt;CalU17&lt;br&gt;Location: 82102 - 81152" locus_tag="AAM70357.1"  />
</g>
<g id="a1_009"  >
<polygon class="clusterblast-orf" id="dummy-1_h1_1_9" style="stroke-width:1; stroke:black; fill:white; " points="79,85 84,80 88,80 88,90 84,90 79,85 " description="&lt;b&gt;AAM70356.1&lt;/b&gt;&lt;br&gt;CalO6&lt;br&gt;Location: 81147 - 80077" locus_tag="AAM70356.1"  />
</g>
<g id="a1_0010"  >
<polygon class="clusterblast-orf" id="dummy-1_h1_1_10" style="stroke-width:1; stroke:black; fill:white; " points="88,85 93,80 121,80 121,90 93,90 88,85 " description="&lt;b&gt;AAM70355.1&lt;/b&gt;&lt;br&gt;CalO5&lt;br&gt;Location: 80046 - 76231" locus_tag="AAM70355.1"  />
</g>
<g id="a1_0011"  >
<polygon class="clusterblast-orf" id="dummy-1_h1_1_11" style="stroke-width:1; stroke:black; fill:white; " points="122,85 127,80 131,80 131,90 127,90 122,85 " description="&lt;b&gt;AAM70354.1&lt;/b&gt;&lt;br&gt;CalO4&lt;br&gt;Location: 76186 - 75152" locus_tag="AAM70354.1"  />
</g>
<g id="a1_0012"  >
<polygon class="clusterblast-orf" id="dummy-1_h1_1_12" style="stroke-width:1; stroke:black; fill:white; " points="131,85 136,80 142,80 142,90 136,90 131,85 " description="&lt;b&gt;AAM70353.1&lt;/b&gt;&lt;br&gt;CalO3&lt;br&gt;Location: 75102 - 73840" locus_tag="AAM70353.1"  />
</g>
<g id="a1_0013"  >
<polygon class="clusterblast-orf" id="dummy-1_h1_1_13" style="stroke-width:1; stroke:black; fill:white; " points="142,85 147,80 153,80 153,90 147,90 142,85 " description="&lt;b&gt;AAM94799.1&lt;/b&gt;&lt;br&gt;CalO2&lt;br&gt;Location: 73799 - 72606" locus_tag="AAM94799.1"  />
</g>
<g id="a1_0014"  >
<polygon class="clusterblast-orf" id="dummy-1_h1_1_14" style="stroke-width:1; stroke:black; fill:white; " points="153,85 158,80 163,80 163,90 158,90 153,85 " description="&lt;b&gt;AAM94798.1&lt;/b&gt;&lt;br&gt;CalG3&lt;br&gt;Location: 72522 - 71392" locus_tag="AAM94798.1"  />
</g>
<g id="a1_0015"  >
<polygon class="clusterblast-orf" id="dummy-1_h1_1_15" style="stroke-width:1; stroke:black; fill:white; " points="164,85 169,80 173,80 173,90 169,90 164,85 " description="&lt;b&gt;AAM94797.1&lt;/b&gt;&lt;br&gt;CalS13&lt;br&gt;Location: 71351 - 70221" locus_tag="AAM94797.1"  />
</g>
<g id="a1_0016"  >
<polygon class="clusterblast-orf" id="dummy-1_h1_1_16" style="stroke-width:1; stroke:black; fill:white; " points="175,90 179,90 184,85 179,80 175,80 175,90 " description="&lt;b&gt;AAM70349.1&lt;/b&gt;&lt;br&gt;CalS12&lt;br&gt;Location: 70024 - 69032" locus_tag="AAM70349.1"  />
</g>
<g id="a1_0017"  >
<polygon class="clusterblast-orf" id="dummy-1_h1_1_17" style="stroke-width:1; stroke:black; fill:white; " points="184,90 189,90 194,85 189,80 184,80 184,90 " description="&lt;b&gt;AAM70348.1&lt;/b&gt;&lt;br&gt;CalG2&lt;br&gt;Location: 68981 - 67788" locus_tag="AAM70348.1"  />
</g>
<g id="a1_0018"  >
<polygon class="clusterblast-orf" id="dummy-1_h1_1_18" style="stroke-width:1; stroke:black; fill:white; " points="195,85 200,80 206,80 206,90 200,90 195,85 " description="&lt;b&gt;AAM70347.1&lt;/b&gt;&lt;br&gt;CalR9&lt;br&gt;Location: 67705 - 66458" locus_tag="AAM70347.1"  />
</g>
<g id="a1_0019"  >
<polygon class="clusterblast-orf" id="dummy-1_h1_1_19" style="stroke-width:1; stroke:black; fill:white; " points="206,85 211,80 220,80 220,90 211,90 206,85 " description="&lt;b&gt;AAM70346.1&lt;/b&gt;&lt;br&gt;CalT7&lt;br&gt;Location: 66461 - 64779" locus_tag="AAM70346.1"  />
</g>
<g id="a1_0020"  >
<polygon class="clusterblast-orf" id="dummy-1_h1_1_20" style="stroke-width:1; stroke:black; fill:white; " points="221,90 226,90 231,85 226,80 221,80 221,90 " description="&lt;b&gt;AAM70345.1&lt;/b&gt;&lt;br&gt;IS&lt;br&gt;Location: 64685 - 63477" locus_tag="AAM70345.1"  />
</g>
<g id="a1_0021"  >
<polygon class="clusterblast-orf" id="dummy-1_h1_1_21" style="stroke-width:1; stroke:black; fill:white; " points="232,85 237,80 243,80 243,90 237,90 232,85 " description="&lt;b&gt;AAM94796.1&lt;/b&gt;&lt;br&gt;CalE9&lt;br&gt;Location: 63463 - 62177" locus_tag="AAM94796.1"  />
</g>
<g id="a1_0022"  >
<polygon class="clusterblast-orf" id="dummy-1_h1_1_22" style="stroke-width:1; stroke:black; fill:white; " points="244,90 248,90 253,85 248,80 244,80 244,90 " description="&lt;b&gt;AAM70343.1&lt;/b&gt;&lt;br&gt;CalO1&lt;br&gt;Location: 61975 - 60938" locus_tag="AAM70343.1"  />
</g>
<g id="a1_0023"  >
<polygon class="clusterblast-orf" id="dummy-1_h1_1_23" style="stroke-width:1; stroke:black; fill:white; " points="254,90 263,90 268,85 263,80 254,80 254,90 " description="&lt;b&gt;AAM70342.1&lt;/b&gt;&lt;br&gt;CalT6&lt;br&gt;Location: 60914 - 59208" locus_tag="AAM70342.1"  />
</g>
<g id="a1_0024"  >
<polygon class="clusterblast-orf" id="dummy-1_h1_1_24" style="stroke-width:1; stroke:black; fill:#15d863; " points="269,90 273,90 278,85 273,80 269,80 269,90 " description="&lt;b&gt;AAM70341.1&lt;/b&gt;&lt;br&gt;CalT5&lt;br&gt;Location: 59091 - 58105&lt;br&gt;&lt;br&gt;&lt;b&gt;BlastP hit with cds187424_188411&lt;/b&gt;&lt;br&gt;Percentage identity: 46&lt;br&gt;Percentage coverage: 95&lt;br&gt;BLAST bit score: 262&lt;br&gt;E-value: 1.2e-69" locus_tag="AAM70341.1"  />
</g>
<g id="a1_0025"  >
<polygon class="clusterblast-orf" id="dummy-1_h1_1_25" style="stroke-width:1; stroke:black; fill:white; " points="278,90 280,90 285,85 280,80 278,80 278,90 " description="&lt;b&gt;AAM70340.1&lt;/b&gt;&lt;br&gt;CalT4&lt;br&gt;Location: 58108 - 57266" locus_tag="AAM70340.1"  />
</g>
<g id="a1_0026"  >
<polygon class="clusterblast-orf" id="dummy-1_h1_1_26" style="stroke-width:1; stroke:black; fill:white; " points="288,85 292,80 292,90 288,85 " description="&lt;b&gt;AAM70339.1&lt;/b&gt;&lt;br&gt;CalU16&lt;br&gt;Location: 56959 - 56411" locus_tag="AAM70339.1"  />
</g>
<g id="a1_0027"  >
<polygon class="clusterblast-orf" id="dummy-1_h1_1_27" style="stroke-width:1; stroke:black; fill:white; " points="293,85 297,80 297,90 293,85 " description="&lt;b&gt;AAM70338.1&lt;/b&gt;&lt;br&gt;CalC&lt;br&gt;Location: 56402 - 55857" locus_tag="AAM70338.1"  />
</g>
<g id="a1_0028"  >
<polygon class="clusterblast-orf" id="dummy-1_h1_1_28" style="stroke-width:1; stroke:black; fill:white; " points="299,85 304,80 306,80 306,90 304,90 299,85 " description="&lt;b&gt;AAM70337.1&lt;/b&gt;&lt;br&gt;CalS11&lt;br&gt;Location: 55677 - 54904" locus_tag="AAM70337.1"  />
</g>
<g id="a1_0029"  >
<polygon class="clusterblast-orf" id="dummy-1_h1_1_29" style="stroke-width:1; stroke:black; fill:white; " points="307,90 313,90 318,85 313,80 307,80 307,90 " description="&lt;b&gt;AAM70336.1&lt;/b&gt;&lt;br&gt;CalG1&lt;br&gt;Location: 54689 - 53511" locus_tag="AAM70336.1"  />
</g>
<g id="a1_0030"  >
<polygon class="clusterblast-orf" id="dummy-1_h1_1_30" style="stroke-width:1; stroke:black; fill:white; " points="318,85 321,80 321,90 318,85 " description="&lt;b&gt;AAM70335.1&lt;/b&gt;&lt;br&gt;CalR8&lt;br&gt;Location: 53453 - 53061" locus_tag="AAM70335.1"  />
</g>
<g id="a1_0031"  >
<polygon class="clusterblast-orf" id="dummy-1_h1_1_31" style="stroke-width:1; stroke:black; fill:white; " points="322,90 324,90 329,85 324,80 322,80 322,90 " description="&lt;b&gt;AAM70334.1&lt;/b&gt;&lt;br&gt;CalS10&lt;br&gt;Location: 52950 - 52213" locus_tag="AAM70334.1"  />
</g>
<g id="a1_0032"  >
<polygon class="clusterblast-orf" id="dummy-1_h1_1_32" style="stroke-width:1; stroke:black; fill:white; " points="331,85 336,80 339,80 339,90 336,90 331,85 " description="&lt;b&gt;AAM70333.1&lt;/b&gt;&lt;br&gt;CalS9&lt;br&gt;Location: 51993 - 51004" locus_tag="AAM70333.1"  />
</g>
<g id="a1_0033"  >
<polygon class="clusterblast-orf" id="dummy-1_h1_1_33" style="stroke-width:1; stroke:black; fill:white; " points="339,85 344,80 351,80 351,90 344,90 339,85 " description="&lt;b&gt;AAM70332.1&lt;/b&gt;&lt;br&gt;CalS8&lt;br&gt;Location: 50997 - 49636" locus_tag="AAM70332.1"  />
</g>
<g id="a1_0034"  >
<polygon class="clusterblast-orf" id="dummy-1_h1_1_34" style="stroke-width:1; stroke:black; fill:white; " points="352,85 357,80 359,80 359,90 357,90 352,85 " description="&lt;b&gt;AAM70331.1&lt;/b&gt;&lt;br&gt;CalR7&lt;br&gt;Location: 49559 - 48717" locus_tag="AAM70331.1"  />
</g>
<g id="a1_0035"  >
<polygon class="clusterblast-orf" id="dummy-1_h1_1_35" style="stroke-width:1; stroke:black; fill:white; " points="362,90 365,90 370,85 365,80 362,80 362,90 " description="&lt;b&gt;AAM70330.1&lt;/b&gt;&lt;br&gt;CalU15&lt;br&gt;Location: 48416 - 47448" locus_tag="AAM70330.1"  />
</g>
<g id="a1_0036"  >
<polygon class="clusterblast-orf" id="dummy-1_h1_1_36" style="stroke-width:1; stroke:black; fill:white; " points="370,90 382,90 387,85 382,80 370,80 370,90 " description="&lt;b&gt;AAM70329.1&lt;/b&gt;&lt;br&gt;CalU14&lt;br&gt;Location: 47426 - 45471" locus_tag="AAM70329.1"  />
</g>
<g id="a1_0037"  >
<polygon class="clusterblast-orf" id="dummy-1_h1_1_37" style="stroke-width:1; stroke:black; fill:white; " points="387,90 390,90 395,85 390,80 387,80 387,90 " description="&lt;b&gt;AAM94795.1&lt;/b&gt;&lt;br&gt;CalT3&lt;br&gt;Location: 45474 - 44509" locus_tag="AAM94795.1"  />
</g>
<g id="a1_0038"  >
<polygon class="clusterblast-orf" id="dummy-1_h1_1_38" style="stroke-width:1; stroke:black; fill:white; " points="395,90 440,90 445,85 440,80 395,80 395,90 " description="&lt;b&gt;AAM94794.1&lt;/b&gt;&lt;br&gt;CalE8&lt;br&gt;Location: 44512 - 38753" locus_tag="AAM94794.1"  />
</g>
<g id="a1_0039"  >
<polygon class="clusterblast-orf" id="dummy-1_h1_1_39" style="stroke-width:1; stroke:black; fill:white; " points="445,90 449,85 445,80 445,90 " description="&lt;b&gt;AAM94793.1&lt;/b&gt;&lt;br&gt;CalE7&lt;br&gt;Location: 38756 - 38310" locus_tag="AAM94793.1"  />
</g>
<g id="a1_0040"  >
<polygon class="clusterblast-orf" id="dummy-1_h1_1_40" style="stroke-width:1; stroke:black; fill:white; " points="449,90 454,90 459,85 454,80 449,80 449,90 " description="&lt;b&gt;AAM94792.1&lt;/b&gt;&lt;br&gt;CalE6&lt;br&gt;Location: 38313 - 37168" locus_tag="AAM94792.1"  />
</g>
<g id="a1_0041"  >
<polygon class="clusterblast-orf" id="dummy-1_h1_1_41" style="stroke-width:1; stroke:black; fill:white; " points="459,90 460,90 465,85 460,80 459,80 459,90 " description="&lt;b&gt;AAM94791.1&lt;/b&gt;&lt;br&gt;CalU13&lt;br&gt;Location: 37111 - 36452" locus_tag="AAM94791.1"  />
</g>
<g id="a1_0042"  >
<polygon class="clusterblast-orf" id="dummy-1_h1_1_42" style="stroke-width:1; stroke:black; fill:white; " points="465,85 470,80 471,80 471,90 470,90 465,85 " description="&lt;b&gt;AAM94790.1&lt;/b&gt;&lt;br&gt;CalU12&lt;br&gt;Location: 36411 - 35749" locus_tag="AAM94790.1"  />
</g>
<g id="a1_0043"  >
<polygon class="clusterblast-orf" id="dummy-1_h1_1_43" style="stroke-width:1; stroke:black; fill:white; " points="472,90 475,90 480,85 475,80 472,80 472,90 " description="&lt;b&gt;AAM94789.1&lt;/b&gt;&lt;br&gt;CalS7&lt;br&gt;Location: 35580 - 34687" locus_tag="AAM94789.1"  />
</g>
<g id="a1_0044"  >
<polygon class="clusterblast-orf" id="dummy-1_h1_1_44" style="stroke-width:1; stroke:black; fill:white; " points="481,90 484,90 489,85 484,80 481,80 481,90 " description="&lt;b&gt;AAM94788.1&lt;/b&gt;&lt;br&gt;CalE5&lt;br&gt;Location: 34553 - 33669" locus_tag="AAM94788.1"  />
</g>
<g id="a1_0045"  >
<polygon class="clusterblast-orf" id="dummy-1_h1_1_45" style="stroke-width:1; stroke:black; fill:white; " points="489,90 491,90 496,85 491,80 489,80 489,90 " description="&lt;b&gt;AAM94787.1&lt;/b&gt;&lt;br&gt;CalU11&lt;br&gt;Location: 33672 - 32854" locus_tag="AAM94787.1"  />
</g>
<g id="a1_0046"  >
<polygon class="clusterblast-orf" id="dummy-1_h1_1_46" style="stroke-width:1; stroke:black; fill:white; " points="496,90 502,90 507,85 502,80 496,80 496,90 " description="&lt;b&gt;AAM94786.1&lt;/b&gt;&lt;br&gt;CalE4&lt;br&gt;Location: 32797 - 31589" locus_tag="AAM94786.1"  />
</g>
<g id="a1_0047"  >
<polygon class="clusterblast-orf" id="dummy-1_h1_1_47" style="stroke-width:1; stroke:black; fill:#b115d8; " points="507,90 515,90 520,85 515,80 507,80 507,90 " description="&lt;b&gt;AAM94785.1&lt;/b&gt;&lt;br&gt;CalR6&lt;br&gt;Location: 31592 - 30069&lt;br&gt;&lt;br&gt;&lt;b&gt;BlastP hit with cds211526_213083&lt;/b&gt;&lt;br&gt;Percentage identity: 57&lt;br&gt;Percentage coverage: 97&lt;br&gt;BLAST bit score: 555&lt;br&gt;E-value: 8.5e-158" locus_tag="AAM94785.1"  />
</g>
<g id="a1_0048"  >
<polygon class="clusterblast-orf" id="dummy-1_h1_1_48" style="stroke-width:1; stroke:black; fill:#b1d815; " points="520,90 527,90 532,85 527,80 520,80 520,90 " description="&lt;b&gt;AAM94784.1&lt;/b&gt;&lt;br&gt;CalR5&lt;br&gt;Location: 30072 - 28696&lt;br&gt;&lt;br&gt;&lt;b&gt;BlastP hit with cds213079_214486&lt;/b&gt;&lt;br&gt;Percentage identity: 47&lt;br&gt;Percentage coverage: 99&lt;br&gt;BLAST bit score: 376&lt;br&gt;E-value: 8.3e-104" locus_tag="AAM94784.1"  />
</g>
<g id="a1_0049"  >
<polygon class="clusterblast-orf" id="dummy-1_h1_1_49" style="stroke-width:1; stroke:black; fill:white; " points="535,90 541,90 546,85 541,80 535,80 535,90 " description="&lt;b&gt;AAM94783.1&lt;/b&gt;&lt;br&gt;CalU10&lt;br&gt;Location: 28304 - 27102" locus_tag="AAM94783.1"  />
</g>
<g id="a1_0050"  >
<polygon class="clusterblast-orf" id="dummy-1_h1_1_50" style="stroke-width:1; stroke:black; fill:white; " points="547,90 563,90 568,85 563,80 547,80 547,90 " description="&lt;b&gt;AAM94782.1&lt;/b&gt;&lt;br&gt;CalR4&lt;br&gt;Location: 26896 - 24503" locus_tag="AAM94782.1"  />
</g>
<g id="a1_0051"  >
<polygon class="clusterblast-orf" id="dummy-1_h1_1_51" style="stroke-width:1; stroke:black; fill:white; " points="568,90 576,90 581,85 576,80 568,80 568,90 " description="&lt;b&gt;AAM94781.1&lt;/b&gt;&lt;br&gt;CalT2&lt;br&gt;Location: 24506 - 22968" locus_tag="AAM94781.1"  />
</g>
<g id="a1_0052"  >
<polygon class="clusterblast-orf" id="dummy-1_h1_1_52" style="stroke-width:1; stroke:black; fill:white; " points="582,85 587,80 595,80 595,90 587,90 582,85 " description="&lt;b&gt;AAM94780.1&lt;/b&gt;&lt;br&gt;CalR3&lt;br&gt;Location: 22826 - 21423" locus_tag="AAM94780.1"  />
</g>
<g id="a1_0053"  >
<polygon class="clusterblast-orf" id="dummy-1_h1_1_53" style="stroke-width:1; stroke:black; fill:white; " points="595,85 600,80 600,80 600,90 600,90 595,85 " description="&lt;b&gt;AAM94779.1&lt;/b&gt;&lt;br&gt;CalU9&lt;br&gt;Location: 21426 - 20791" locus_tag="AAM94779.1"  />
</g>
<g id="a1_0054"  >
<polygon class="clusterblast-orf" id="dummy-1_h1_1_54" style="stroke-width:1; stroke:black; fill:white; " points="600,85 605,80 608,80 608,90 605,90 600,85 " description="&lt;b&gt;AAM94778.1&lt;/b&gt;&lt;br&gt;CalE3&lt;br&gt;Location: 20794 - 19901" locus_tag="AAM94778.1"  />
</g>
<g id="a1_0055"  >
<polygon class="clusterblast-orf" id="dummy-1_h1_1_55" style="stroke-width:1; stroke:black; fill:white; " points="608,85 613,80 624,80 624,90 613,90 608,85 " description="&lt;b&gt;AAM94777.1&lt;/b&gt;&lt;br&gt;CalR2&lt;br&gt;Location: 19825 - 17960" locus_tag="AAM94777.1"  />
</g>
<g id="a1_0056"  >
<polygon class="clusterblast-orf" id="dummy-1_h1_1_56" style="stroke-width:1; stroke:black; fill:white; " points="627,90 629,90 634,85 629,80 627,80 627,90 " description="&lt;b&gt;AAM94776.1&lt;/b&gt;&lt;br&gt;CalS6&lt;br&gt;Location: 17672 - 16890" locus_tag="AAM94776.1"  />
</g>
<g id="a1_0057"  >
<polygon class="clusterblast-orf" id="dummy-1_h1_1_57" style="stroke-width:1; stroke:black; fill:white; " points="633,85 638,80 639,80 639,90 638,90 633,85 " description="&lt;b&gt;AAM94775.1&lt;/b&gt;&lt;br&gt;CalU8&lt;br&gt;Location: 16962 - 16249" locus_tag="AAM94775.1"  />
</g>
<g id="a1_0058"  >
<polygon class="clusterblast-orf" id="dummy-1_h1_1_58" style="stroke-width:1; stroke:black; fill:white; " points="641,90 645,90 650,85 645,80 641,80 641,90 " description="&lt;b&gt;AAM94774.1&lt;/b&gt;&lt;br&gt;CalS5&lt;br&gt;Location: 16092 - 15028" locus_tag="AAM94774.1"  />
</g>
<g id="a1_0059"  >
<polygon class="clusterblast-orf" id="dummy-1_h1_1_59" style="stroke-width:1; stroke:black; fill:white; " points="650,85 655,80 658,80 658,90 655,90 650,85 " description="&lt;b&gt;AAM94773.1&lt;/b&gt;&lt;br&gt;CalE2&lt;br&gt;Location: 15017 - 14103" locus_tag="AAM94773.1"  />
</g>
<g id="a1_0060"  >
<polygon class="clusterblast-orf" id="dummy-1_h1_1_60" style="stroke-width:1; stroke:black; fill:white; " points="659,85 664,80 669,80 669,90 664,90 659,85 " description="&lt;b&gt;AAM94772.1&lt;/b&gt;&lt;br&gt;CalS4&lt;br&gt;Location: 13918 - 12764" locus_tag="AAM94772.1"  />
</g>
<g id="a1_0061"  >
<polygon class="clusterblast-orf" id="dummy-1_h1_1_61" style="stroke-width:1; stroke:black; fill:white; " points="672,90 675,85 672,80 672,90 " description="&lt;b&gt;AAM94771.1&lt;/b&gt;&lt;br&gt;CalU7&lt;br&gt;Location: 12490 - 12161" locus_tag="AAM94771.1"  />
</g>
<g id="a1_0062"  >
<polygon class="clusterblast-orf" id="dummy-1_h1_1_62" style="stroke-width:1; stroke:black; fill:white; " points="675,85 680,80 684,80 684,90 680,90 675,85 " description="&lt;b&gt;AAM94770.1&lt;/b&gt;&lt;br&gt;CalS3&lt;br&gt;Location: 12109 - 11078" locus_tag="AAM94770.1"  />
</g>
<g id="a1_0063"  >
<polygon class="clusterblast-orf" id="dummy-1_h1_1_63" style="stroke-width:1; stroke:black; fill:white; " points="684,85 689,80 692,80 692,90 689,90 684,85 " description="&lt;b&gt;AAM94769.1&lt;/b&gt;&lt;br&gt;CalS2&lt;br&gt;Location: 11081 - 10158" locus_tag="AAM94769.1"  />
</g>
<g id="a1_0064"  >
<polygon class="clusterblast-orf" id="dummy-1_h1_1_64" style="stroke-width:1; stroke:black; fill:white; " points="693,90 693,90 698,85 693,80 693,80 693,90 " description="&lt;b&gt;AAM94768.1&lt;/b&gt;&lt;br&gt;CalS1&lt;br&gt;Location: 9987 - 9415" locus_tag="AAM94768.1"  />
</g>
<g id="a1_0065"  >
<polygon class="clusterblast-orf" id="dummy-1_h1_1_65" style="stroke-width:1; stroke:black; fill:white; " points="699,85 704,80 707,80 707,90 704,90 699,85 " description="&lt;b&gt;AAM94767.1&lt;/b&gt;&lt;br&gt;CalU6&lt;br&gt;Location: 9382 - 8447" locus_tag="AAM94767.1"  />
</g>
<g id="a1_0066"  >
<polygon class="clusterblast-orf" id="dummy-1_h1_1_66" style="stroke-width:1; stroke:black; fill:white; " points="708,90 708,90 713,85 708,80 708,80 708,90 " description="&lt;b&gt;AAM94766.1&lt;/b&gt;&lt;br&gt;CalR1&lt;br&gt;Location: 8285 - 7665" locus_tag="AAM94766.1"  />
</g>
<g id="a1_0067"  >
<polygon class="clusterblast-orf" id="dummy-1_h1_1_67" style="stroke-width:1; stroke:black; fill:white; " points="714,90 723,90 728,85 723,80 714,80 714,90 " description="&lt;b&gt;AAM94765.1&lt;/b&gt;&lt;br&gt;CalT1&lt;br&gt;Location: 7595 - 6006" locus_tag="AAM94765.1"  />
</g>
<g id="a1_0068"  >
<polygon class="clusterblast-orf" id="dummy-1_h1_1_68" style="stroke-width:1; stroke:black; fill:white; " points="728,85 733,80 736,80 736,90 733,90 728,85 " description="&lt;b&gt;AAM94764.1&lt;/b&gt;&lt;br&gt;CalU5&lt;br&gt;Location: 5941 - 5045" locus_tag="AAM94764.1"  />
</g>
<g id="a1_0069"  >
<polygon class="clusterblast-orf" id="dummy-1_h1_1_69" style="stroke-width:1; stroke:black; fill:white; " points="736,85 741,80 747,80 747,90 741,90 736,85 " description="&lt;b&gt;AAM94763.1&lt;/b&gt;&lt;br&gt;CalE1&lt;br&gt;Location: 5048 - 3723" locus_tag="AAM94763.1"  />
</g>
<g id="a1_0070"  >
<polygon class="clusterblast-orf" id="dummy-1_h1_1_70" style="stroke-width:1; stroke:black; fill:white; " points="747,85 752,80 754,80 754,90 752,90 747,85 " description="&lt;b&gt;AAM94762.1&lt;/b&gt;&lt;br&gt;CalU4&lt;br&gt;Location: 3726 - 2932" locus_tag="AAM94762.1"  />
</g>
<g id="a1_0071"  >
<polygon class="clusterblast-orf" id="dummy-1_h1_1_71" style="stroke-width:1; stroke:black; fill:white; " points="754,85 759,80 763,80 763,90 759,90 754,85 " description="&lt;b&gt;AAM94761.1&lt;/b&gt;&lt;br&gt;CalU3&lt;br&gt;Location: 2935 - 1874" locus_tag="AAM94761.1"  />
</g>
<g id="a1_0072"  >
<polygon class="clusterblast-orf" id="dummy-1_h1_1_72" style="stroke-width:1; stroke:black; fill:white; " points="764,85 769,80 772,80 772,90 769,90 764,85 " description="&lt;b&gt;AAM94760.1&lt;/b&gt;&lt;br&gt;CalU2&lt;br&gt;Location: 1827 - 880" locus_tag="AAM94760.1"  />
</g>
<g id="a1_0073"  >
<polygon class="clusterblast-orf" id="dummy-1_h1_1_73" style="stroke-width:1; stroke:black; fill:white; " points="772,85 777,80 780,80 780,90 777,90 772,85 " description="&lt;b&gt;AAM94759.1&lt;/b&gt;&lt;br&gt;CalU1&lt;br&gt;Location: 873 - 1" locus_tag="AAM94759.1"  />
</g>
</svg>
