<svg y="0" preserveAspectRatio="none" viewBox="0 0 800 230" xmlns="http://www.w3.org/2000/svg" xmlns:xlink="http://www.w3.org/1999/xlink" version="1.1" x="0" width="800" height="230"  >
<g class="clusterblast-cluster" label="Query sequence"  >
<text y="20" class="clusterblast-acc" x="5"  >
Query sequence</text>
<line y1="35" y2="35" x2="778.0" style="stroke-width:1; stroke:grey; " x1="10"  />
<polygon class="clusterblast-orf" id="dummy-1_q0_0_all" style="stroke-width:1; stroke:black; fill:white; " points="48,35 53,30 69,30 69,40 53,40 48,35 " description="&lt;b&gt;cds152760_154197&lt;/b&gt;&lt;br&gt;hypothetical protein&lt;br&gt;Location: 152760 - 154197" locus_tag="cds152760_154197"  />
<polygon class="clusterblast-orf" id="dummy-1_q1_0_all" style="stroke-width:1; stroke:black; fill:white; " points="70,40 72,35 70,30 70,40 " description="&lt;b&gt;cds154230_154347&lt;/b&gt;&lt;br&gt;hypothetical protein&lt;br&gt;Location: 154230 - 154347" locus_tag="cds154230_154347"  />
<polygon class="clusterblast-orf" id="dummy-1_q2_0_all" style="stroke-width:1; stroke:black; fill:white; " points="72,40 123,40 128,35 123,30 72,30 72,40 " description="&lt;b&gt;cds154356_158127&lt;/b&gt;&lt;br&gt;hypothetical protein&lt;br&gt;Location: 154356 - 158127" locus_tag="cds154356_158127"  />
<polygon class="clusterblast-orf" id="dummy-1_q3_0_all" style="stroke-width:1; stroke:black; fill:white; " points="131,35 136,30 145,30 145,40 136,40 131,35 " description="&lt;b&gt;cds158335_159274&lt;/b&gt;&lt;br&gt;putative esterase&lt;br&gt;Location: 158335 - 159274" locus_tag="cds158335_159274"  />
<polygon class="clusterblast-orf" id="dummy-1_q4_0_all" style="stroke-width:1; stroke:black; fill:white; " points="146,40 152,40 157,35 152,30 146,30 146,40 " description="&lt;b&gt;cds159337_160078&lt;/b&gt;&lt;br&gt;hypothetical protein&lt;br&gt;Location: 159337 - 160078" locus_tag="cds159337_160078"  />
<polygon class="clusterblast-orf" id="dummy-1_q5_0_all" style="stroke-width:1; stroke:black; fill:white; " points="157,40 157,40 162,35 157,30 157,30 157,40 " description="&lt;b&gt;cds160091_160376&lt;/b&gt;&lt;br&gt;hypothetical protein&lt;br&gt;Location: 160091 - 160376" locus_tag="cds160091_160376"  />
<polygon class="clusterblast-orf" id="dummy-1_q6_0_all" style="stroke-width:1; stroke:black; fill:white; " points="164,40 180,40 185,35 180,30 164,30 164,40 " description="&lt;b&gt;cds160562_161921&lt;/b&gt;&lt;br&gt;hypothetical protein&lt;br&gt;Location: 160562 - 161921" locus_tag="cds160562_161921"  />
<polygon class="clusterblast-orf" id="dummy-1_q7_0_all" style="stroke-width:1; stroke:black; fill:white; " points="185,35 190,30 203,30 203,40 190,40 185,35 " description="&lt;b&gt;cds161923_163165&lt;/b&gt;&lt;br&gt;Putative esterase&lt;br&gt;Location: 161923 - 163165" locus_tag="cds161923_163165"  />
<polygon class="clusterblast-orf" id="dummy-1_q8_0_all" style="stroke-width:1; stroke:black; fill:white; " points="204,35 206,30 206,40 204,35 " description="&lt;b&gt;cds163251_163350&lt;/b&gt;&lt;br&gt;hypothetical protein&lt;br&gt;Location: 163251 - 163350" locus_tag="cds163251_163350"  />
<polygon class="clusterblast-orf" id="dummy-1_q9_0_all" style="stroke-width:1; stroke:black; fill:white; " points="209,40 231,40 236,35 231,30 209,30 209,40 " description="&lt;b&gt;cds163573_165385&lt;/b&gt;&lt;br&gt;Cutinase&lt;br&gt;Location: 163573 - 165385" locus_tag="cds163573_165385"  />
<polygon class="clusterblast-orf" id="dummy-1_q10_0_all" style="stroke-width:1; stroke:black; fill:white; " points="236,35 241,30 241,30 241,40 241,40 236,35 " description="&lt;b&gt;cds165381_165678&lt;/b&gt;&lt;br&gt;hypothetical protein&lt;br&gt;Location: 165381 - 165678" locus_tag="cds165381_165678"  />
<polygon class="clusterblast-orf" id="dummy-1_q11_0_all" style="stroke-width:1; stroke:black; fill:white; " points="243,40 245,40 250,35 245,30 243,30 243,40 " description="&lt;b&gt;cds165818_166292&lt;/b&gt;&lt;br&gt;Transcriptional regulator MSMEG 0538, MarR family&lt;br&gt;Location: 165818 - 166292" locus_tag="cds165818_166292"  />
<polygon class="clusterblast-orf" id="dummy-1_q12_0_all" style="stroke-width:1; stroke:black; fill:white; " points="250,40 250,40 255,35 250,30 250,30 250,40 " description="&lt;b&gt;cds166288_166666&lt;/b&gt;&lt;br&gt;hypothetical protein&lt;br&gt;Location: 166288 - 166666" locus_tag="cds166288_166666"  />
<polygon class="clusterblast-orf" id="dummy-1_q13_0_all" style="stroke-width:1; stroke:black; fill:white; " points="256,35 261,30 268,30 268,40 261,40 256,35 " description="&lt;b&gt;cds166676_167492&lt;/b&gt;&lt;br&gt;hypothetical protein&lt;br&gt;Location: 166676 - 167492" locus_tag="cds166676_167492"  />
<polygon class="clusterblast-orf" id="dummy-1_q14_0_all" style="stroke-width:1; stroke:black; fill:white; " points="271,40 280,40 285,35 280,30 271,30 271,40 " description="&lt;b&gt;cds167689_168622&lt;/b&gt;&lt;br&gt;Transcriptional regulator, LysR family&lt;br&gt;Location: 167689 - 168622" locus_tag="cds167689_168622"  />
<polygon class="clusterblast-orf" id="dummy-1_q15_0_all" style="stroke-width:1; stroke:black; fill:white; " points="286,40 306,40 311,35 306,30 286,30 286,40 " description="&lt;b&gt;cds168709_170371&lt;/b&gt;&lt;br&gt;Long-chain-fatty-acid--CoA ligase (EC 6.2.1.3)&lt;br&gt;Location: 168709 - 170371" locus_tag="cds168709_170371"  />
<polygon class="clusterblast-orf" id="dummy-1_q16_0_all" style="stroke-width:1; stroke:black; fill:white; " points="313,40 327,40 332,35 327,30 313,30 313,40 " description="&lt;b&gt;cds170511_171765&lt;/b&gt;&lt;br&gt;FIG022199: FAD-binding protein&lt;br&gt;Location: 170511 - 171765" locus_tag="cds170511_171765"  />
<polygon class="clusterblast-orf" id="dummy-1_q17_0_all" style="stroke-width:1; stroke:black; fill:white; " points="331,40 335,40 340,35 335,30 331,30 331,40 " description="&lt;b&gt;cds171761_172361&lt;/b&gt;&lt;br&gt;lipolytic enzyme, G-D-S-L&lt;br&gt;Location: 171761 - 172361" locus_tag="cds171761_172361"  />
<polygon class="clusterblast-orf" id="dummy-1_q18_0_all" style="stroke-width:1; stroke:black; fill:white; " points="341,40 431,40 436,35 431,30 341,30 341,40 " description="&lt;b&gt;cds172394_178730&lt;/b&gt;&lt;br&gt;omega-3 polyunsaturated fatty acid synthase subunit, PfaA&lt;br&gt;Location: 172394 - 178730" locus_tag="cds172394_178730"  />
<polygon class="clusterblast-orf" id="dummy-1_q19_0_all" style="stroke-width:1; stroke:black; fill:white; " points="435,40 463,40 468,35 463,30 435,30 435,40 " description="&lt;b&gt;cds178726_180937&lt;/b&gt;&lt;br&gt;omega-3 polyunsaturated fatty acid synthase subunit, PfaC&lt;br&gt;Location: 178726 - 180937" locus_tag="cds178726_180937"  />
<polygon class="clusterblast-orf" id="dummy-1_q20_0_all" style="stroke-width:1; stroke:black; fill:white; " points="468,40 487,40 492,35 487,30 468,30 468,40 " description="&lt;b&gt;cds180933_182502&lt;/b&gt;&lt;br&gt;Enoyl-[acyl-carrier-protein] reductase [FMN] (EC 1.3.1.9), inferred for PFA pathway&lt;br&gt;Location: 180933 - 182502" locus_tag="cds180933_182502"  />
<polygon class="clusterblast-orf" id="dummy-1_q21_0_all" style="stroke-width:1; stroke:black; fill:#d81515; " points="492,40 512,40 517,35 512,30 492,30 492,40 " description="&lt;b&gt;cds182498_184181&lt;/b&gt;&lt;br&gt;Acetyl-coenzyme A carboxyl transferase beta chain (EC 6.4.1.2)&lt;br&gt;Location: 182498 - 184181" locus_tag="cds182498_184181"  />
<polygon class="clusterblast-orf" id="dummy-1_q22_0_all" style="stroke-width:1; stroke:black; fill:#15d863; " points="517,40 521,40 526,35 521,30 517,30 517,40 " description="&lt;b&gt;cds184177_184762&lt;/b&gt;&lt;br&gt;Biotin carboxyl carrier protein of acetyl-CoA carboxylase&lt;br&gt;Location: 184177 - 184762" locus_tag="cds184177_184762"  />
<polygon class="clusterblast-orf" id="dummy-1_q23_0_all" style="stroke-width:1; stroke:black; fill:#1563d8; " points="525,40 541,40 546,35 541,30 525,30 525,40 " description="&lt;b&gt;cds184758_186135&lt;/b&gt;&lt;br&gt;Biotin carboxylase of acetyl-CoA carboxylase (EC 6.3.4.14)&lt;br&gt;Location: 184758 - 186135" locus_tag="cds184758_186135"  />
<polygon class="clusterblast-orf" id="dummy-1_q24_0_all" style="stroke-width:1; stroke:black; fill:white; " points="547,35 552,30 559,30 559,40 552,40 547,35 " description="&lt;b&gt;cds186193_187036&lt;/b&gt;&lt;br&gt;ABC transporter, permease protein 2 (cluster 1, maltose/g3p/polyamine/iron)&lt;br&gt;Location: 186193 - 187036" locus_tag="cds186193_187036"  />
<polygon class="clusterblast-orf" id="dummy-1_q25_0_all" style="stroke-width:1; stroke:black; fill:white; " points="559,35 564,30 573,30 573,40 564,40 559,35 " description="&lt;b&gt;cds187025_187934&lt;/b&gt;&lt;br&gt;ABC transporter, permease protein 1 (cluster 1, maltose/g3p/polyamine/iron)&lt;br&gt;Location: 187025 - 187934" locus_tag="cds187025_187934"  />
<polygon class="clusterblast-orf" id="dummy-1_q26_0_all" style="stroke-width:1; stroke:black; fill:white; " points="574,35 579,30 587,30 587,40 579,40 574,35 " description="&lt;b&gt;cds187988_188858&lt;/b&gt;&lt;br&gt;hypothetical protein&lt;br&gt;Location: 187988 - 188858" locus_tag="cds187988_188858"  />
<polygon class="clusterblast-orf" id="dummy-1_q27_0_all" style="stroke-width:1; stroke:black; fill:white; " points="587,35 592,30 607,30 607,40 592,40 587,35 " description="&lt;b&gt;cds188869_190237&lt;/b&gt;&lt;br&gt;Glycerol-3-phosphate ABC transporter, substrate-binding protein UgpB&lt;br&gt;Location: 188869 - 190237" locus_tag="cds188869_190237"  />
<polygon class="clusterblast-orf" id="dummy-1_q28_0_all" style="stroke-width:1; stroke:black; fill:white; " points="608,35 613,30 625,30 625,40 613,40 608,35 " description="&lt;b&gt;cds190269_191400&lt;/b&gt;&lt;br&gt;Glycerol-3-phosphate ABC transporter, ATP-binding protein UgpC (TC 3.A.1.1.3)&lt;br&gt;Location: 190269 - 191400" locus_tag="cds190269_191400"  />
<polygon class="clusterblast-orf" id="dummy-1_q29_0_all" style="stroke-width:1; stroke:black; fill:white; " points="625,35 630,30 638,30 638,40 630,40 625,35 " description="&lt;b&gt;cds191410_192301&lt;/b&gt;&lt;br&gt;FIG00660572: hypothetical protein&lt;br&gt;Location: 191410 - 192301" locus_tag="cds191410_192301"  />
<polygon class="clusterblast-orf" id="dummy-1_q30_0_all" style="stroke-width:1; stroke:black; fill:white; " points="638,35 643,30 646,30 646,40 643,40 638,35 " description="&lt;b&gt;cds192300_192825&lt;/b&gt;&lt;br&gt;hypothetical protein&lt;br&gt;Location: 192300 - 192825" locus_tag="cds192300_192825"  />
<polygon class="clusterblast-orf" id="dummy-1_q31_0_all" style="stroke-width:1; stroke:black; fill:white; " points="646,35 651,30 663,30 663,40 651,40 646,35 " description="&lt;b&gt;cds192839_194000&lt;/b&gt;&lt;br&gt;Acyl-CoA dehydrogenase&lt;br&gt;Location: 192839 - 194000" locus_tag="cds192839_194000"  />
<polygon class="clusterblast-orf" id="dummy-1_q32_0_all" style="stroke-width:1; stroke:black; fill:white; " points="666,40 674,40 679,35 674,30 666,30 666,40 " description="&lt;b&gt;cds194141_195074&lt;/b&gt;&lt;br&gt;Flavodoxin reductases (ferredoxin-NADPH reductases) family 1; Vanillate O-demethylase oxidoreductase (EC 1.14.13.-)&lt;br&gt;Location: 194141 - 195074" locus_tag="cds194141_195074"  />
<polygon class="clusterblast-orf" id="dummy-1_q33_0_all" style="stroke-width:1; stroke:black; fill:white; " points="681,40 686,40 691,35 686,30 681,30 681,40 " description="&lt;b&gt;cds195173_195875&lt;/b&gt;&lt;br&gt;hypothetical protein&lt;br&gt;Location: 195173 - 195875" locus_tag="cds195173_195875"  />
<polygon class="clusterblast-orf" id="dummy-1_q34_0_all" style="stroke-width:1; stroke:black; fill:white; " points="695,40 697,40 702,35 697,30 695,30 695,40 " description="&lt;b&gt;cds196083_196551&lt;/b&gt;&lt;br&gt;hypothetical protein&lt;br&gt;Location: 196083 - 196551" locus_tag="cds196083_196551"  />
<polygon class="clusterblast-orf" id="dummy-1_q35_0_all" style="stroke-width:1; stroke:black; fill:#b115d8; " points="702,35 707,30 715,30 715,40 707,40 702,35 " description="&lt;b&gt;cds196607_197450&lt;/b&gt;&lt;br&gt;Acyl-[acyl-carrier-protein] desaturase, chloroplast precursor (EC 1.14.19.2)&lt;br&gt;Location: 196607 - 197450" locus_tag="cds196607_197450"  />
<polygon class="clusterblast-orf" id="dummy-1_q36_0_all" style="stroke-width:1; stroke:black; fill:#b1d815; " points="715,35 720,30 728,30 728,40 720,40 715,35 " description="&lt;b&gt;cds197465_198299&lt;/b&gt;&lt;br&gt;Cyclopropane-fatty-acyl-phospholipid synthase (EC 2.1.1.79)&lt;br&gt;Location: 197465 - 198299" locus_tag="cds197465_198299"  />
<polygon class="clusterblast-orf" id="dummy-1_q37_0_all" style="stroke-width:1; stroke:black; fill:white; " points="728,35 731,30 731,40 728,35 " description="&lt;b&gt;cds198295_198556&lt;/b&gt;&lt;br&gt;Acyl carrier protein&lt;br&gt;Location: 198295 - 198556" locus_tag="cds198295_198556"  />
</g>
<g class="clusterblast-cluster" description="BGC0000279_c1: xantholipin (4% of genes show similarity), Polyketide" label="BGC0000279"  >
<text y="70" class="clusterblast-acc" x="5"  >
<a xlink:href="https://mibig.secondarymetabolites.org/go/BGC0000279/1" target="_blank">BGC0000279</a>:                                                                      xantholipin (4% of genes show similarity), Polyketide</text>
<line y1="85" y2="85" x2="778.0" style="stroke-width:1; stroke:grey; " x1="10"  />
</g>
<g id="a1_000"  >
<polygon class="clusterblast-orf" id="dummy-1_h1_8_0" style="stroke-width:1; stroke:black; fill:white; " points="0,90 0,90 5,85 0,80 0,80 0,90 " description="&lt;b&gt;ADE22323.1&lt;/b&gt;&lt;br&gt;putative polyketide cyclase&lt;br&gt;Location: 52255 - 51917" locus_tag="ADE22323.1"  />
</g>
<g id="a1_001"  >
<polygon class="clusterblast-orf" id="dummy-1_h1_8_1" style="stroke-width:1; stroke:black; fill:white; " points="5,90 8,85 5,80 5,90 " description="&lt;b&gt;ADE22322.1&lt;/b&gt;&lt;br&gt;acyl carrier protein&lt;br&gt;Location: 51920 - 51660" locus_tag="ADE22322.1"  />
</g>
<g id="a1_002"  >
<polygon class="clusterblast-orf" id="dummy-1_h1_8_2" style="stroke-width:1; stroke:black; fill:white; " points="8,90 15,90 20,85 15,80 8,80 8,90 " description="&lt;b&gt;ADE22321.1&lt;/b&gt;&lt;br&gt;3-oxoacyl-ACP reductase&lt;br&gt;Location: 51663 - 50908" locus_tag="ADE22321.1"  />
</g>
<g id="a1_003"  >
<polygon class="clusterblast-orf" id="dummy-1_h1_8_3" style="stroke-width:1; stroke:black; fill:white; " points="20,90 20,90 25,85 20,80 20,80 20,90 " description="&lt;b&gt;ADE22320.1&lt;/b&gt;&lt;br&gt;hypothetical protein&lt;br&gt;Location: 50908 - 50528" locus_tag="ADE22320.1"  />
</g>
<g id="a1_004"  >
<polygon class="clusterblast-orf" id="dummy-1_h1_8_4" style="stroke-width:1; stroke:black; fill:white; " points="26,90 27,90 32,85 27,80 26,80 26,90 " description="&lt;b&gt;ADE22319.1&lt;/b&gt;&lt;br&gt;putative monooxygenase&lt;br&gt;Location: 50513 - 50067" locus_tag="ADE22319.1"  />
</g>
<g id="a1_005"  >
<polygon class="clusterblast-orf" id="dummy-1_h1_8_5" style="stroke-width:1; stroke:black; fill:white; " points="33,85 38,80 54,80 54,90 38,90 33,85 " description="&lt;b&gt;ADE22318.1&lt;/b&gt;&lt;br&gt;oxidase-like protein&lt;br&gt;Location: 50014 - 48596" locus_tag="ADE22318.1"  />
</g>
<g id="a1_006"  >
<polygon class="clusterblast-orf" id="dummy-1_h1_8_6" style="stroke-width:1; stroke:black; fill:white; " points="54,85 59,80 60,80 60,90 59,90 54,85 " description="&lt;b&gt;ADE22317.1&lt;/b&gt;&lt;br&gt;CurD-like protein&lt;br&gt;Location: 48584 - 48198" locus_tag="ADE22317.1"  />
</g>
<g id="a1_007"  >
<polygon class="clusterblast-orf" id="dummy-1_h1_8_7" style="stroke-width:1; stroke:black; fill:white; " points="63,90 64,90 69,85 64,80 63,80 63,90 " description="&lt;b&gt;ADE22316.1&lt;/b&gt;&lt;br&gt;putative polyketide cyclase&lt;br&gt;Location: 48014 - 47580" locus_tag="ADE22316.1"  />
</g>
<g id="a1_008"  >
<polygon class="clusterblast-orf" id="dummy-1_h1_8_8" style="stroke-width:1; stroke:black; fill:white; " points="69,90 83,90 88,85 83,80 69,80 69,90 " description="&lt;b&gt;ADE22315.1&lt;/b&gt;&lt;br&gt;putative polyketide beta-ketoacyl synthase alpha&lt;br&gt;Location: 47583 - 46306" locus_tag="ADE22315.1"  />
</g>
<g id="a1_009"  >
<polygon class="clusterblast-orf" id="dummy-1_h1_8_9" style="stroke-width:1; stroke:black; fill:white; " points="88,90 103,90 108,85 103,80 88,80 88,90 " description="&lt;b&gt;ADE22314.1&lt;/b&gt;&lt;br&gt;putative polyketide beta-ketoacyl synthase beta&lt;br&gt;Location: 46303 - 45017" locus_tag="ADE22314.1"  />
</g>
<g id="a1_0010"  >
<polygon class="clusterblast-orf" id="dummy-1_h1_8_10" style="stroke-width:1; stroke:black; fill:white; " points="109,90 111,90 116,85 111,80 109,80 109,90 " description="&lt;b&gt;ADE22313.1&lt;/b&gt;&lt;br&gt;putative polyketide cyclase&lt;br&gt;Location: 44909 - 44442" locus_tag="ADE22313.1"  />
</g>
<g id="a1_0011"  >
<polygon class="clusterblast-orf" id="dummy-1_h1_8_11" style="stroke-width:1; stroke:black; fill:white; " points="116,90 118,90 123,85 118,80 116,80 116,90 " description="&lt;b&gt;ADE22312.1&lt;/b&gt;&lt;br&gt;putative monooxygenase&lt;br&gt;Location: 44431 - 43970" locus_tag="ADE22312.1"  />
</g>
<g id="a1_0012"  >
<polygon class="clusterblast-orf" id="dummy-1_h1_8_12" style="stroke-width:1; stroke:black; fill:white; " points="124,90 130,90 135,85 130,80 124,80 124,90 " description="&lt;b&gt;ADE22311.1&lt;/b&gt;&lt;br&gt;putative 3-oxoacyl-ACP reductase&lt;br&gt;Location: 43946 - 43194" locus_tag="ADE22311.1"  />
</g>
<g id="a1_0013"  >
<polygon class="clusterblast-orf" id="dummy-1_h1_8_13" style="stroke-width:1; stroke:black; fill:white; " points="135,90 135,90 140,85 135,80 135,80 135,90 " description="&lt;b&gt;ADE22310.1&lt;/b&gt;&lt;br&gt;putative monooxygenase&lt;br&gt;Location: 43194 - 42847" locus_tag="ADE22310.1"  />
</g>
<g id="a1_0014"  >
<polygon class="clusterblast-orf" id="dummy-1_h1_8_14" style="stroke-width:1; stroke:black; fill:white; " points="140,90 144,85 140,80 140,90 " description="&lt;b&gt;ADE22309.1&lt;/b&gt;&lt;br&gt;putative monooxygenase&lt;br&gt;Location: 42857 - 42546" locus_tag="ADE22309.1"  />
</g>
<g id="a1_0015"  >
<polygon class="clusterblast-orf" id="dummy-1_h1_8_15" style="stroke-width:1; stroke:black; fill:#d81515; " points="146,90 166,90 171,85 166,80 146,80 146,90 " description="&lt;b&gt;ADE22308.1&lt;/b&gt;&lt;br&gt;carboxyl transferase&lt;br&gt;Location: 42468 - 40774&lt;br&gt;&lt;br&gt;&lt;b&gt;BlastP hit with cds182498_184181&lt;/b&gt;&lt;br&gt;Percentage identity: 52&lt;br&gt;Percentage coverage: 98&lt;br&gt;BLAST bit score: 519&lt;br&gt;E-value: 5.6e-147" locus_tag="ADE22308.1"  />
</g>
<g id="a1_0016"  >
<polygon class="clusterblast-orf" id="dummy-1_h1_8_16" style="stroke-width:1; stroke:black; fill:white; " points="172,90 175,90 180,85 175,80 172,80 172,90 " description="&lt;b&gt;ADE22307.1&lt;/b&gt;&lt;br&gt;biotin carboxyl carrier protein&lt;br&gt;Location: 40714 - 40190" locus_tag="ADE22307.1"  />
</g>
<g id="a1_0017"  >
<polygon class="clusterblast-orf" id="dummy-1_h1_8_17" style="stroke-width:1; stroke:black; fill:#1563d8; " points="180,90 195,90 200,85 195,80 180,80 180,90 " description="&lt;b&gt;ADE22306.1&lt;/b&gt;&lt;br&gt;biotin carboxylase&lt;br&gt;Location: 40187 - 38844&lt;br&gt;&lt;br&gt;&lt;b&gt;BlastP hit with cds184758_186135&lt;/b&gt;&lt;br&gt;Percentage identity: 64&lt;br&gt;Percentage coverage: 96&lt;br&gt;BLAST bit score: 550&lt;br&gt;E-value: 3.1e-156" locus_tag="ADE22306.1"  />
</g>
<g id="a1_0018"  >
<polygon class="clusterblast-orf" id="dummy-1_h1_8_18" style="stroke-width:1; stroke:black; fill:white; " points="202,85 207,80 217,80 217,90 207,90 202,85 " description="&lt;b&gt;ADE22305.1&lt;/b&gt;&lt;br&gt;putative transcriptional regulator&lt;br&gt;Location: 38722 - 37715" locus_tag="ADE22305.1"  />
</g>
<g id="a1_0019"  >
<polygon class="clusterblast-orf" id="dummy-1_h1_8_19" style="stroke-width:1; stroke:black; fill:white; " points="217,90 226,90 231,85 226,80 217,80 217,90 " description="&lt;b&gt;ADE22304.1&lt;/b&gt;&lt;br&gt;putative oxidoreductase&lt;br&gt;Location: 37667 - 36759" locus_tag="ADE22304.1"  />
</g>
<g id="a1_0020"  >
<polygon class="clusterblast-orf" id="dummy-1_h1_8_20" style="stroke-width:1; stroke:black; fill:white; " points="234,85 239,80 244,80 244,90 239,90 234,85 " description="&lt;b&gt;ADE22303.1&lt;/b&gt;&lt;br&gt;putative short-chain dehydrogenase/reductase SDR&lt;br&gt;Location: 36554 - 35868" locus_tag="ADE22303.1"  />
</g>
<g id="a1_0021"  >
<polygon class="clusterblast-orf" id="dummy-1_h1_8_21" style="stroke-width:1; stroke:black; fill:white; " points="245,85 250,80 269,80 269,90 250,90 245,85 " description="&lt;b&gt;ADE22302.1&lt;/b&gt;&lt;br&gt;putative FAD-binding monooxygenase&lt;br&gt;Location: 35798 - 34203" locus_tag="ADE22302.1"  />
</g>
<g id="a1_0022"  >
<polygon class="clusterblast-orf" id="dummy-1_h1_8_22" style="stroke-width:1; stroke:black; fill:white; " points="270,85 275,80 286,80 286,90 275,90 270,85 " description="&lt;b&gt;ADE22301.1&lt;/b&gt;&lt;br&gt;putative methyltransferase&lt;br&gt;Location: 34118 - 33084" locus_tag="ADE22301.1"  />
</g>
<g id="a1_0023"  >
<polygon class="clusterblast-orf" id="dummy-1_h1_8_23" style="stroke-width:1; stroke:black; fill:white; " points="291,90 310,90 315,85 310,80 291,80 291,90 " description="&lt;b&gt;ADE22300.1&lt;/b&gt;&lt;br&gt;putative FAD-binding monooxygenase&lt;br&gt;Location: 32742 - 31120" locus_tag="ADE22300.1"  />
</g>
<g id="a1_0024"  >
<polygon class="clusterblast-orf" id="dummy-1_h1_8_24" style="stroke-width:1; stroke:black; fill:white; " points="315,90 325,90 330,85 325,80 315,80 315,90 " description="&lt;b&gt;ADE22299.1&lt;/b&gt;&lt;br&gt;putative O-methyltransferase&lt;br&gt;Location: 31105 - 30083" locus_tag="ADE22299.1"  />
</g>
<g id="a1_0025"  >
<polygon class="clusterblast-orf" id="dummy-1_h1_8_25" style="stroke-width:1; stroke:black; fill:white; " points="331,85 336,80 338,80 338,90 336,90 331,85 " description="&lt;b&gt;ADE22298.1&lt;/b&gt;&lt;br&gt;putative transcriptional regulator&lt;br&gt;Location: 30061 - 29600" locus_tag="ADE22298.1"  />
</g>
<g id="a1_0026"  >
<polygon class="clusterblast-orf" id="dummy-1_h1_8_26" style="stroke-width:1; stroke:black; fill:white; " points="340,90 342,90 347,85 342,80 340,80 340,90 " description="&lt;b&gt;ADE22297.1&lt;/b&gt;&lt;br&gt;hypothetical protein&lt;br&gt;Location: 29473 - 28985" locus_tag="ADE22297.1"  />
</g>
<g id="a1_0027"  >
<polygon class="clusterblast-orf" id="dummy-1_h1_8_27" style="stroke-width:1; stroke:black; fill:white; " points="348,90 363,90 368,85 363,80 348,80 348,90 " description="&lt;b&gt;ADE22296.1&lt;/b&gt;&lt;br&gt;putative integral membrane ion antiporter&lt;br&gt;Location: 28888 - 27593" locus_tag="ADE22296.1"  />
</g>
<g id="a1_0028"  >
<polygon class="clusterblast-orf" id="dummy-1_h1_8_28" style="stroke-width:1; stroke:black; fill:white; " points="369,85 374,80 382,80 382,90 374,90 369,85 " description="&lt;b&gt;ADE22295.1&lt;/b&gt;&lt;br&gt;putative F420-dependent reductase&lt;br&gt;Location: 27508 - 26651" locus_tag="ADE22295.1"  />
</g>
<g id="a1_0029"  >
<polygon class="clusterblast-orf" id="dummy-1_h1_8_29" style="stroke-width:1; stroke:black; fill:white; " points="390,85 395,80 405,80 405,90 395,90 390,85 " description="&lt;b&gt;ADE22294.1&lt;/b&gt;&lt;br&gt;putative O-methyltransferase&lt;br&gt;Location: 26086 - 25067" locus_tag="ADE22294.1"  />
</g>
<g id="a1_0030"  >
<polygon class="clusterblast-orf" id="dummy-1_h1_8_30" style="stroke-width:1; stroke:black; fill:white; " points="405,85 410,80 429,80 429,90 410,90 405,85 " description="&lt;b&gt;ADE22293.1&lt;/b&gt;&lt;br&gt;putative peptide transporter&lt;br&gt;Location: 25070 - 23469" locus_tag="ADE22293.1"  />
</g>
<g id="a1_0031"  >
<polygon class="clusterblast-orf" id="dummy-1_h1_8_31" style="stroke-width:1; stroke:black; fill:white; " points="429,85 434,80 450,80 450,90 434,90 429,85 " description="&lt;b&gt;ADE22292.1&lt;/b&gt;&lt;br&gt;putative non-heme halogenase&lt;br&gt;Location: 23472 - 22057" locus_tag="ADE22292.1"  />
</g>
<g id="a1_0032"  >
<polygon class="clusterblast-orf" id="dummy-1_h1_8_32" style="stroke-width:1; stroke:black; fill:white; " points="455,90 459,90 464,85 459,80 455,80 455,90 " description="&lt;b&gt;ADE22291.1&lt;/b&gt;&lt;br&gt;putative lactoylglutathione lyase&lt;br&gt;Location: 21707 - 21147" locus_tag="ADE22291.1"  />
</g>
<g id="a1_0033"  >
<polygon class="clusterblast-orf" id="dummy-1_h1_8_33" style="stroke-width:1; stroke:black; fill:white; " points="465,85 470,80 482,80 482,90 470,90 465,85 " description="&lt;b&gt;ADE22290.1&lt;/b&gt;&lt;br&gt;FAD-binding monooxygenase&lt;br&gt;Location: 21086 - 19908" locus_tag="ADE22290.1"  />
</g>
<g id="a1_0034"  >
<polygon class="clusterblast-orf" id="dummy-1_h1_8_34" style="stroke-width:1; stroke:black; fill:white; " points="485,85 490,80 517,80 517,90 490,90 485,85 " description="&lt;b&gt;ADE22289.1&lt;/b&gt;&lt;br&gt;putative antibiotic transporter&lt;br&gt;Location: 19728 - 17599" locus_tag="ADE22289.1"  />
</g>
<g id="a1_0035"  >
<polygon class="clusterblast-orf" id="dummy-1_h1_8_35" style="stroke-width:1; stroke:black; fill:white; " points="517,85 521,80 521,90 517,85 " description="&lt;b&gt;ADE22288.1&lt;/b&gt;&lt;br&gt;putative 3Fe-S ferredoxin&lt;br&gt;Location: 17602 - 17333" locus_tag="ADE22288.1"  />
</g>
<g id="a1_0036"  >
<polygon class="clusterblast-orf" id="dummy-1_h1_8_36" style="stroke-width:1; stroke:black; fill:white; " points="521,85 526,80 539,80 539,90 526,90 521,85 " description="&lt;b&gt;ADE22287.1&lt;/b&gt;&lt;br&gt;putative cytochrome P450 hydroxylase&lt;br&gt;Location: 17316 - 16114" locus_tag="ADE22287.1"  />
</g>
<g id="a1_0037"  >
<polygon class="clusterblast-orf" id="dummy-1_h1_8_37" style="stroke-width:1; stroke:black; fill:white; " points="540,85 545,80 550,80 550,90 545,90 540,85 " description="&lt;b&gt;ADE22286.1&lt;/b&gt;&lt;br&gt;putative transcriptional regulator&lt;br&gt;Location: 16075 - 15392" locus_tag="ADE22286.1"  />
</g>
<g id="a1_0038"  >
<polygon class="clusterblast-orf" id="dummy-1_h1_8_38" style="stroke-width:1; stroke:black; fill:white; " points="550,85 555,80 577,80 577,90 555,90 550,85 " description="&lt;b&gt;ADE22285.1&lt;/b&gt;&lt;br&gt;putative asparagine synthase&lt;br&gt;Location: 15386 - 13542" locus_tag="ADE22285.1"  />
</g>
<g id="a1_0039"  >
<polygon class="clusterblast-orf" id="dummy-1_h1_8_39" style="stroke-width:1; stroke:black; fill:white; " points="577,85 582,80 595,80 595,90 582,90 577,85 " description="&lt;b&gt;ADE22284.1&lt;/b&gt;&lt;br&gt;putative inactive gylcosyltransferase&lt;br&gt;Location: 13554 - 12379" locus_tag="ADE22284.1"  />
</g>
<g id="a1_0040"  >
<polygon class="clusterblast-orf" id="dummy-1_h1_8_40" style="stroke-width:1; stroke:black; fill:white; " points="597,85 602,80 621,80 621,90 602,90 597,85 " description="&lt;b&gt;ADE22283.1&lt;/b&gt;&lt;br&gt;putative spore coat protein&lt;br&gt;Location: 12211 - 10592" locus_tag="ADE22283.1"  />
</g>
<g id="a1_0041"  >
<polygon class="clusterblast-orf" id="dummy-1_h1_8_41" style="stroke-width:1; stroke:black; fill:white; " points="621,85 626,80 632,80 632,90 626,90 621,85 " description="&lt;b&gt;ADE22282.1&lt;/b&gt;&lt;br&gt;hypothetical protein&lt;br&gt;Location: 10595 - 9867" locus_tag="ADE22282.1"  />
</g>
<g id="a1_0042"  >
<polygon class="clusterblast-orf" id="dummy-1_h1_8_42" style="stroke-width:1; stroke:black; fill:white; " points="633,90 646,90 651,85 646,80 633,80 633,90 " description="&lt;b&gt;ADE22281.1&lt;/b&gt;&lt;br&gt;putative dehydrogenase&lt;br&gt;Location: 9803 - 8580" locus_tag="ADE22281.1"  />
</g>
<g id="a1_0043"  >
<polygon class="clusterblast-orf" id="dummy-1_h1_8_43" style="stroke-width:1; stroke:black; fill:white; " points="651,90 653,90 658,85 653,80 651,80 651,90 " description="&lt;b&gt;ADE22280.1&lt;/b&gt;&lt;br&gt;putative oxygenase&lt;br&gt;Location: 8583 - 8146" locus_tag="ADE22280.1"  />
</g>
<g id="a1_0044"  >
<polygon class="clusterblast-orf" id="dummy-1_h1_8_44" style="stroke-width:1; stroke:black; fill:white; " points="660,90 673,90 678,85 673,80 660,80 660,90 " description="&lt;b&gt;ADE22279.1&lt;/b&gt;&lt;br&gt;S-adenosylmethionine synthetase&lt;br&gt;Location: 8037 - 6817" locus_tag="ADE22279.1"  />
</g>
<g id="a1_0045"  >
<polygon class="clusterblast-orf" id="dummy-1_h1_8_45" style="stroke-width:1; stroke:black; fill:white; " points="678,90 688,90 693,85 688,80 678,80 678,90 " description="&lt;b&gt;ADE22278.1&lt;/b&gt;&lt;br&gt;carbohydrate kinase&lt;br&gt;Location: 6791 - 5799" locus_tag="ADE22278.1"  />
</g>
<g id="a1_0046"  >
<polygon class="clusterblast-orf" id="dummy-1_h1_8_46" style="stroke-width:1; stroke:black; fill:white; " points="693,90 740,90 745,85 740,80 693,80 693,90 " description="&lt;b&gt;ADE22277.1&lt;/b&gt;&lt;br&gt;methionine synthase&lt;br&gt;Location: 5802 - 2305" locus_tag="ADE22277.1"  />
</g>
<g id="a1_0047"  >
<polygon class="clusterblast-orf" id="dummy-1_h1_8_47" style="stroke-width:1; stroke:black; fill:white; " points="745,90 754,90 759,85 754,80 745,80 745,90 " description="&lt;b&gt;ADE22276.1&lt;/b&gt;&lt;br&gt;5,10-methylenetetrahydrofolate reductase&lt;br&gt;Location: 2299 - 1397" locus_tag="ADE22276.1"  />
</g>
<g id="a1_0048"  >
<polygon class="clusterblast-orf" id="dummy-1_h1_8_48" style="stroke-width:1; stroke:black; fill:white; " points="758,90 775,90 780,85 775,80 758,80 758,90 " description="&lt;b&gt;ADE22275.1&lt;/b&gt;&lt;br&gt;putative adenosylhomocysteinase&lt;br&gt;Location: 1419 - 1" locus_tag="ADE22275.1"  />
</g>
</svg>
