<svg y="0" preserveAspectRatio="none" viewBox="0 0 800 230" xmlns="http://www.w3.org/2000/svg" xmlns:xlink="http://www.w3.org/1999/xlink" version="1.1" x="0" width="800" height="230"  >
<g class="clusterblast-cluster" label="Query sequence"  >
<text y="20" class="clusterblast-acc" x="5"  >
Query sequence</text>
<line y1="35" y2="35" x2="778.0" style="stroke-width:1; stroke:grey; " x1="10"  />
<polygon class="clusterblast-orf" id="dummy-1_q0_0_all" style="stroke-width:1; stroke:black; fill:white; " points="0,35 5,30 24,30 24,40 5,40 0,35 " description="&lt;b&gt;cds152760_154197&lt;/b&gt;&lt;br&gt;hypothetical protein&lt;br&gt;Location: 152760 - 154197" locus_tag="cds152760_154197"  />
<polygon class="clusterblast-orf" id="dummy-1_q1_0_all" style="stroke-width:1; stroke:black; fill:white; " points="25,40 27,35 25,30 25,40 " description="&lt;b&gt;cds154230_154347&lt;/b&gt;&lt;br&gt;hypothetical protein&lt;br&gt;Location: 154230 - 154347" locus_tag="cds154230_154347"  />
<polygon class="clusterblast-orf" id="dummy-1_q2_0_all" style="stroke-width:1; stroke:black; fill:white; " points="27,40 86,40 91,35 86,30 27,30 27,40 " description="&lt;b&gt;cds154356_158127&lt;/b&gt;&lt;br&gt;hypothetical protein&lt;br&gt;Location: 154356 - 158127" locus_tag="cds154356_158127"  />
<polygon class="clusterblast-orf" id="dummy-1_q3_0_all" style="stroke-width:1; stroke:black; fill:white; " points="95,35 100,30 111,30 111,40 100,40 95,35 " description="&lt;b&gt;cds158335_159274&lt;/b&gt;&lt;br&gt;putative esterase&lt;br&gt;Location: 158335 - 159274" locus_tag="cds158335_159274"  />
<polygon class="clusterblast-orf" id="dummy-1_q4_0_all" style="stroke-width:1; stroke:black; fill:white; " points="112,40 119,40 124,35 119,30 112,30 112,40 " description="&lt;b&gt;cds159337_160078&lt;/b&gt;&lt;br&gt;hypothetical protein&lt;br&gt;Location: 159337 - 160078" locus_tag="cds159337_160078"  />
<polygon class="clusterblast-orf" id="dummy-1_q5_0_all" style="stroke-width:1; stroke:black; fill:white; " points="125,40 129,35 125,30 125,40 " description="&lt;b&gt;cds160091_160376&lt;/b&gt;&lt;br&gt;hypothetical protein&lt;br&gt;Location: 160091 - 160376" locus_tag="cds160091_160376"  />
<polygon class="clusterblast-orf" id="dummy-1_q6_0_all" style="stroke-width:1; stroke:black; fill:white; " points="133,40 151,40 156,35 151,30 133,30 133,40 " description="&lt;b&gt;cds160562_161921&lt;/b&gt;&lt;br&gt;hypothetical protein&lt;br&gt;Location: 160562 - 161921" locus_tag="cds160562_161921"  />
<polygon class="clusterblast-orf" id="dummy-1_q7_0_all" style="stroke-width:1; stroke:black; fill:white; " points="156,35 161,30 177,30 177,40 161,40 156,35 " description="&lt;b&gt;cds161923_163165&lt;/b&gt;&lt;br&gt;Putative esterase&lt;br&gt;Location: 161923 - 163165" locus_tag="cds161923_163165"  />
<polygon class="clusterblast-orf" id="dummy-1_q8_0_all" style="stroke-width:1; stroke:black; fill:white; " points="178,35 180,30 180,40 178,35 " description="&lt;b&gt;cds163251_163350&lt;/b&gt;&lt;br&gt;hypothetical protein&lt;br&gt;Location: 163251 - 163350" locus_tag="cds163251_163350"  />
<polygon class="clusterblast-orf" id="dummy-1_q9_0_all" style="stroke-width:1; stroke:black; fill:white; " points="184,40 210,40 215,35 210,30 184,30 184,40 " description="&lt;b&gt;cds163573_165385&lt;/b&gt;&lt;br&gt;Cutinase&lt;br&gt;Location: 163573 - 165385" locus_tag="cds163573_165385"  />
<polygon class="clusterblast-orf" id="dummy-1_q10_0_all" style="stroke-width:1; stroke:black; fill:white; " points="215,35 220,30 220,30 220,40 220,40 215,35 " description="&lt;b&gt;cds165381_165678&lt;/b&gt;&lt;br&gt;hypothetical protein&lt;br&gt;Location: 165381 - 165678" locus_tag="cds165381_165678"  />
<polygon class="clusterblast-orf" id="dummy-1_q11_0_all" style="stroke-width:1; stroke:black; fill:white; " points="222,40 225,40 230,35 225,30 222,30 222,40 " description="&lt;b&gt;cds165818_166292&lt;/b&gt;&lt;br&gt;Transcriptional regulator MSMEG 0538, MarR family&lt;br&gt;Location: 165818 - 166292" locus_tag="cds165818_166292"  />
<polygon class="clusterblast-orf" id="dummy-1_q12_0_all" style="stroke-width:1; stroke:black; fill:white; " points="230,40 232,40 237,35 232,30 230,30 230,40 " description="&lt;b&gt;cds166288_166666&lt;/b&gt;&lt;br&gt;hypothetical protein&lt;br&gt;Location: 166288 - 166666" locus_tag="cds166288_166666"  />
<polygon class="clusterblast-orf" id="dummy-1_q13_0_all" style="stroke-width:1; stroke:black; fill:white; " points="237,35 242,30 251,30 251,40 242,40 237,35 " description="&lt;b&gt;cds166676_167492&lt;/b&gt;&lt;br&gt;hypothetical protein&lt;br&gt;Location: 166676 - 167492" locus_tag="cds166676_167492"  />
<polygon class="clusterblast-orf" id="dummy-1_q14_0_all" style="stroke-width:1; stroke:black; fill:white; " points="254,40 265,40 270,35 265,30 254,30 254,40 " description="&lt;b&gt;cds167689_168622&lt;/b&gt;&lt;br&gt;Transcriptional regulator, LysR family&lt;br&gt;Location: 167689 - 168622" locus_tag="cds167689_168622"  />
<polygon class="clusterblast-orf" id="dummy-1_q15_0_all" style="stroke-width:1; stroke:black; fill:white; " points="271,40 295,40 300,35 295,30 271,30 271,40 " description="&lt;b&gt;cds168709_170371&lt;/b&gt;&lt;br&gt;Long-chain-fatty-acid--CoA ligase (EC 6.2.1.3)&lt;br&gt;Location: 168709 - 170371" locus_tag="cds168709_170371"  />
<polygon class="clusterblast-orf" id="dummy-1_q16_0_all" style="stroke-width:1; stroke:black; fill:white; " points="302,40 318,40 323,35 318,30 302,30 302,40 " description="&lt;b&gt;cds170511_171765&lt;/b&gt;&lt;br&gt;FIG022199: FAD-binding protein&lt;br&gt;Location: 170511 - 171765" locus_tag="cds170511_171765"  />
<polygon class="clusterblast-orf" id="dummy-1_q17_0_all" style="stroke-width:1; stroke:black; fill:white; " points="323,40 329,40 334,35 329,30 323,30 323,40 " description="&lt;b&gt;cds171761_172361&lt;/b&gt;&lt;br&gt;lipolytic enzyme, G-D-S-L&lt;br&gt;Location: 171761 - 172361" locus_tag="cds171761_172361"  />
<polygon class="clusterblast-orf" id="dummy-1_q18_0_all" style="stroke-width:1; stroke:black; fill:white; " points="334,40 437,40 442,35 437,30 334,30 334,40 " description="&lt;b&gt;cds172394_178730&lt;/b&gt;&lt;br&gt;omega-3 polyunsaturated fatty acid synthase subunit, PfaA&lt;br&gt;Location: 172394 - 178730" locus_tag="cds172394_178730"  />
<polygon class="clusterblast-orf" id="dummy-1_q19_0_all" style="stroke-width:1; stroke:black; fill:white; " points="442,40 475,40 480,35 475,30 442,30 442,40 " description="&lt;b&gt;cds178726_180937&lt;/b&gt;&lt;br&gt;omega-3 polyunsaturated fatty acid synthase subunit, PfaC&lt;br&gt;Location: 178726 - 180937" locus_tag="cds178726_180937"  />
<polygon class="clusterblast-orf" id="dummy-1_q20_0_all" style="stroke-width:1; stroke:black; fill:white; " points="480,40 501,40 506,35 501,30 480,30 480,40 " description="&lt;b&gt;cds180933_182502&lt;/b&gt;&lt;br&gt;Enoyl-[acyl-carrier-protein] reductase [FMN] (EC 1.3.1.9), inferred for PFA pathway&lt;br&gt;Location: 180933 - 182502" locus_tag="cds180933_182502"  />
<polygon class="clusterblast-orf" id="dummy-1_q21_0_all" style="stroke-width:1; stroke:black; fill:#d81515; " points="506,40 530,40 535,35 530,30 506,30 506,40 " description="&lt;b&gt;cds182498_184181&lt;/b&gt;&lt;br&gt;Acetyl-coenzyme A carboxyl transferase beta chain (EC 6.4.1.2)&lt;br&gt;Location: 182498 - 184181" locus_tag="cds182498_184181"  />
<polygon class="clusterblast-orf" id="dummy-1_q22_0_all" style="stroke-width:1; stroke:black; fill:#15d863; " points="535,40 540,40 545,35 540,30 535,30 535,40 " description="&lt;b&gt;cds184177_184762&lt;/b&gt;&lt;br&gt;Biotin carboxyl carrier protein of acetyl-CoA carboxylase&lt;br&gt;Location: 184177 - 184762" locus_tag="cds184177_184762"  />
<polygon class="clusterblast-orf" id="dummy-1_q23_0_all" style="stroke-width:1; stroke:black; fill:#1563d8; " points="545,40 563,40 568,35 563,30 545,30 545,40 " description="&lt;b&gt;cds184758_186135&lt;/b&gt;&lt;br&gt;Biotin carboxylase of acetyl-CoA carboxylase (EC 6.3.4.14)&lt;br&gt;Location: 184758 - 186135" locus_tag="cds184758_186135"  />
<polygon class="clusterblast-orf" id="dummy-1_q24_0_all" style="stroke-width:1; stroke:black; fill:white; " points="569,35 574,30 583,30 583,40 574,40 569,35 " description="&lt;b&gt;cds186193_187036&lt;/b&gt;&lt;br&gt;ABC transporter, permease protein 2 (cluster 1, maltose/g3p/polyamine/iron)&lt;br&gt;Location: 186193 - 187036" locus_tag="cds186193_187036"  />
<polygon class="clusterblast-orf" id="dummy-1_q25_0_all" style="stroke-width:1; stroke:black; fill:white; " points="583,35 588,30 599,30 599,40 588,40 583,35 " description="&lt;b&gt;cds187025_187934&lt;/b&gt;&lt;br&gt;ABC transporter, permease protein 1 (cluster 1, maltose/g3p/polyamine/iron)&lt;br&gt;Location: 187025 - 187934" locus_tag="cds187025_187934"  />
<polygon class="clusterblast-orf" id="dummy-1_q26_0_all" style="stroke-width:1; stroke:black; fill:white; " points="600,35 605,30 614,30 614,40 605,40 600,35 " description="&lt;b&gt;cds187988_188858&lt;/b&gt;&lt;br&gt;hypothetical protein&lt;br&gt;Location: 187988 - 188858" locus_tag="cds187988_188858"  />
<polygon class="clusterblast-orf" id="dummy-1_q27_0_all" style="stroke-width:1; stroke:black; fill:white; " points="615,35 620,30 638,30 638,40 620,40 615,35 " description="&lt;b&gt;cds188869_190237&lt;/b&gt;&lt;br&gt;Glycerol-3-phosphate ABC transporter, substrate-binding protein UgpB&lt;br&gt;Location: 188869 - 190237" locus_tag="cds188869_190237"  />
<polygon class="clusterblast-orf" id="dummy-1_q28_0_all" style="stroke-width:1; stroke:black; fill:white; " points="639,35 644,30 658,30 658,40 644,40 639,35 " description="&lt;b&gt;cds190269_191400&lt;/b&gt;&lt;br&gt;Glycerol-3-phosphate ABC transporter, ATP-binding protein UgpC (TC 3.A.1.1.3)&lt;br&gt;Location: 190269 - 191400" locus_tag="cds190269_191400"  />
<polygon class="clusterblast-orf" id="dummy-1_q29_0_all" style="stroke-width:1; stroke:black; fill:white; " points="658,35 663,30 673,30 673,40 663,40 658,35 " description="&lt;b&gt;cds191410_192301&lt;/b&gt;&lt;br&gt;FIG00660572: hypothetical protein&lt;br&gt;Location: 191410 - 192301" locus_tag="cds191410_192301"  />
<polygon class="clusterblast-orf" id="dummy-1_q30_0_all" style="stroke-width:1; stroke:black; fill:white; " points="673,35 678,30 682,30 682,40 678,40 673,35 " description="&lt;b&gt;cds192300_192825&lt;/b&gt;&lt;br&gt;hypothetical protein&lt;br&gt;Location: 192300 - 192825" locus_tag="cds192300_192825"  />
<polygon class="clusterblast-orf" id="dummy-1_q31_0_all" style="stroke-width:1; stroke:black; fill:white; " points="682,35 687,30 702,30 702,40 687,40 682,35 " description="&lt;b&gt;cds192839_194000&lt;/b&gt;&lt;br&gt;Acyl-CoA dehydrogenase&lt;br&gt;Location: 192839 - 194000" locus_tag="cds192839_194000"  />
<polygon class="clusterblast-orf" id="dummy-1_q32_0_all" style="stroke-width:1; stroke:black; fill:white; " points="704,40 715,40 720,35 715,30 704,30 704,40 " description="&lt;b&gt;cds194141_195074&lt;/b&gt;&lt;br&gt;Flavodoxin reductases (ferredoxin-NADPH reductases) family 1; Vanillate O-demethylase oxidoreductase (EC 1.14.13.-)&lt;br&gt;Location: 194141 - 195074" locus_tag="cds194141_195074"  />
<polygon class="clusterblast-orf" id="dummy-1_q33_0_all" style="stroke-width:1; stroke:black; fill:white; " points="722,40 729,40 734,35 729,30 722,30 722,40 " description="&lt;b&gt;cds195173_195875&lt;/b&gt;&lt;br&gt;hypothetical protein&lt;br&gt;Location: 195173 - 195875" locus_tag="cds195173_195875"  />
<polygon class="clusterblast-orf" id="dummy-1_q34_0_all" style="stroke-width:1; stroke:black; fill:white; " points="738,40 741,40 746,35 741,30 738,30 738,40 " description="&lt;b&gt;cds196083_196551&lt;/b&gt;&lt;br&gt;hypothetical protein&lt;br&gt;Location: 196083 - 196551" locus_tag="cds196083_196551"  />
<polygon class="clusterblast-orf" id="dummy-1_q35_0_all" style="stroke-width:1; stroke:black; fill:#b115d8; " points="746,35 751,30 761,30 761,40 751,40 746,35 " description="&lt;b&gt;cds196607_197450&lt;/b&gt;&lt;br&gt;Acyl-[acyl-carrier-protein] desaturase, chloroplast precursor (EC 1.14.19.2)&lt;br&gt;Location: 196607 - 197450" locus_tag="cds196607_197450"  />
<polygon class="clusterblast-orf" id="dummy-1_q36_0_all" style="stroke-width:1; stroke:black; fill:#b1d815; " points="761,35 766,30 775,30 775,40 766,40 761,35 " description="&lt;b&gt;cds197465_198299&lt;/b&gt;&lt;br&gt;Cyclopropane-fatty-acyl-phospholipid synthase (EC 2.1.1.79)&lt;br&gt;Location: 197465 - 198299" locus_tag="cds197465_198299"  />
<polygon class="clusterblast-orf" id="dummy-1_q37_0_all" style="stroke-width:1; stroke:black; fill:white; " points="775,35 780,30 780,30 780,40 780,40 775,35 " description="&lt;b&gt;cds198295_198556&lt;/b&gt;&lt;br&gt;Acyl carrier protein&lt;br&gt;Location: 198295 - 198556" locus_tag="cds198295_198556"  />
</g>
<g class="clusterblast-cluster" description="BGC0001922_c1: isoindolinomycin (5% of genes show similarity), Polyketide" label="BGC0001922"  >
<text y="70" class="clusterblast-acc" x="5"  >
<a xlink:href="https://mibig.secondarymetabolites.org/go/BGC0001922/1" target="_blank">BGC0001922</a>:                                                                 isoindolinomycin (5% of genes show similarity), Polyketide</text>
<line y1="85" y2="85" x2="778.0" style="stroke-width:1; stroke:grey; " x1="10"  />
</g>
<g id="a1_000"  >
<polygon class="clusterblast-orf" id="dummy-1_h1_10_0" style="stroke-width:1; stroke:black; fill:white; " points="68,85 73,80 86,80 86,90 73,90 68,85 " description="&lt;b&gt;BBE36487.1&lt;/b&gt;&lt;br&gt;methyltransferase&lt;br&gt;Location: 37780 - 36734" locus_tag="BBE36487.1"  />
</g>
<g id="a1_001"  >
<polygon class="clusterblast-orf" id="dummy-1_h1_10_1" style="stroke-width:1; stroke:black; fill:white; " points="86,85 91,80 100,80 100,90 91,90 86,85 " description="&lt;b&gt;BBE36486.1&lt;/b&gt;&lt;br&gt;hypothetical protein&lt;br&gt;Location: 36709 - 35870" locus_tag="BBE36486.1"  />
</g>
<g id="a1_002"  >
<polygon class="clusterblast-orf" id="dummy-1_h1_10_2" style="stroke-width:1; stroke:black; fill:white; " points="101,85 106,80 117,80 117,90 106,90 101,85 " description="&lt;b&gt;BBE36485.1&lt;/b&gt;&lt;br&gt;quinone reductase&lt;br&gt;Location: 35824 - 34883" locus_tag="BBE36485.1"  />
</g>
<g id="a1_003"  >
<polygon class="clusterblast-orf" id="dummy-1_h1_10_3" style="stroke-width:1; stroke:black; fill:white; " points="117,85 122,80 122,80 122,90 122,90 117,85 " description="&lt;b&gt;BBE36484.1&lt;/b&gt;&lt;br&gt;hypothetical protein&lt;br&gt;Location: 34886 - 34605" locus_tag="BBE36484.1"  />
</g>
<g id="a1_004"  >
<polygon class="clusterblast-orf" id="dummy-1_h1_10_4" style="stroke-width:1; stroke:black; fill:white; " points="122,85 127,80 135,80 135,90 127,90 122,85 " description="&lt;b&gt;BBE36483.1&lt;/b&gt;&lt;br&gt;abhydrolase&lt;br&gt;Location: 34568 - 33825" locus_tag="BBE36483.1"  />
</g>
<g id="a1_005"  >
<polygon class="clusterblast-orf" id="dummy-1_h1_10_5" style="stroke-width:1; stroke:black; fill:white; " points="136,85 141,80 141,80 141,90 141,90 136,85 " description="&lt;b&gt;BBE36482.1&lt;/b&gt;&lt;br&gt;antibiotic biosynthesis monooxygenase&lt;br&gt;Location: 33778 - 33458" locus_tag="BBE36482.1"  />
</g>
<g id="a1_006"  >
<polygon class="clusterblast-orf" id="dummy-1_h1_10_6" style="stroke-width:1; stroke:black; fill:white; " points="142,85 147,80 147,80 147,90 147,90 142,85 " description="&lt;b&gt;BBE36481.1&lt;/b&gt;&lt;br&gt;antibiotic biosynthesis monooxygenase&lt;br&gt;Location: 33437 - 33114" locus_tag="BBE36481.1"  />
</g>
<g id="a1_007"  >
<polygon class="clusterblast-orf" id="dummy-1_h1_10_7" style="stroke-width:1; stroke:black; fill:white; " points="148,85 153,80 173,80 173,90 153,90 148,85 " description="&lt;b&gt;BBE36480.1&lt;/b&gt;&lt;br&gt;dioxygenase&lt;br&gt;Location: 33072 - 31597" locus_tag="BBE36480.1"  />
</g>
<g id="a1_008"  >
<polygon class="clusterblast-orf" id="dummy-1_h1_10_8" style="stroke-width:1; stroke:black; fill:white; " points="180,90 183,90 188,85 183,80 180,80 180,90 " description="&lt;b&gt;BBE36479.1&lt;/b&gt;&lt;br&gt;hypothetical protein&lt;br&gt;Location: 31166 - 30747" locus_tag="BBE36479.1"  />
</g>
<g id="a1_009"  >
<polygon class="clusterblast-orf" id="dummy-1_h1_10_9" style="stroke-width:1; stroke:black; fill:white; " points="192,90 208,90 213,85 208,80 192,80 192,90 " description="&lt;b&gt;BBE36478.1&lt;/b&gt;&lt;br&gt;glycosyl transferase&lt;br&gt;Location: 30495 - 29257" locus_tag="BBE36478.1"  />
</g>
<g id="a1_0010"  >
<polygon class="clusterblast-orf" id="dummy-1_h1_10_10" style="stroke-width:1; stroke:black; fill:white; " points="213,90 222,90 227,85 222,80 213,80 213,90 " description="&lt;b&gt;BBE36477.1&lt;/b&gt;&lt;br&gt;dTDP-4-ketoreductase&lt;br&gt;Location: 29257 - 28460" locus_tag="BBE36477.1"  />
</g>
<g id="a1_0011"  >
<polygon class="clusterblast-orf" id="dummy-1_h1_10_11" style="stroke-width:1; stroke:black; fill:white; " points="226,90 239,90 244,85 239,80 226,80 226,90 " description="&lt;b&gt;BBE36476.1&lt;/b&gt;&lt;br&gt;dTDP-2,3-ketoreductase&lt;br&gt;Location: 28463 - 27459" locus_tag="BBE36476.1"  />
</g>
<g id="a1_0012"  >
<polygon class="clusterblast-orf" id="dummy-1_h1_10_12" style="stroke-width:1; stroke:black; fill:white; " points="249,90 277,90 282,85 277,80 249,80 249,90 " description="&lt;b&gt;BBE36475.1&lt;/b&gt;&lt;br&gt;regulatory protein&lt;br&gt;Location: 27139 - 25223" locus_tag="BBE36475.1"  />
</g>
<g id="a1_0013"  >
<polygon class="clusterblast-orf" id="dummy-1_h1_10_13" style="stroke-width:1; stroke:black; fill:white; " points="284,90 300,90 305,85 300,80 284,80 284,90 " description="&lt;b&gt;BBE36474.1&lt;/b&gt;&lt;br&gt;tryptophan halogenase&lt;br&gt;Location: 25059 - 23830" locus_tag="BBE36474.1"  />
</g>
<g id="a1_0014"  >
<polygon class="clusterblast-orf" id="dummy-1_h1_10_14" style="stroke-width:1; stroke:black; fill:white; " points="306,90 310,85 306,80 306,90 " description="&lt;b&gt;BBE36473.1&lt;/b&gt;&lt;br&gt;acyl carrier protein&lt;br&gt;Location: 23792 - 23538" locus_tag="BBE36473.1"  />
</g>
<g id="a1_0015"  >
<polygon class="clusterblast-orf" id="dummy-1_h1_10_15" style="stroke-width:1; stroke:black; fill:white; " points="311,90 324,90 329,85 324,80 311,80 311,90 " description="&lt;b&gt;BBE36472.1&lt;/b&gt;&lt;br&gt;methyltransferase&lt;br&gt;Location: 23489 - 22443" locus_tag="BBE36472.1"  />
</g>
<g id="a1_0016"  >
<polygon class="clusterblast-orf" id="dummy-1_h1_10_16" style="stroke-width:1; stroke:black; fill:white; " points="330,90 334,85 330,80 330,90 " description="&lt;b&gt;BBE36471.1&lt;/b&gt;&lt;br&gt;acyl carrier protein&lt;br&gt;Location: 22409 - 22158" locus_tag="BBE36471.1"  />
</g>
<g id="a1_0017"  >
<polygon class="clusterblast-orf" id="dummy-1_h1_10_17" style="stroke-width:1; stroke:black; fill:white; " points="334,90 337,90 342,85 337,80 334,80 334,90 " description="&lt;b&gt;BBE36470.1&lt;/b&gt;&lt;br&gt;polyketide cyclase&lt;br&gt;Location: 22158 - 21688" locus_tag="BBE36470.1"  />
</g>
<g id="a1_0018"  >
<polygon class="clusterblast-orf" id="dummy-1_h1_10_18" style="stroke-width:1; stroke:black; fill:white; " points="342,90 363,90 368,85 363,80 342,80 342,90 " description="&lt;b&gt;BBE36469.1&lt;/b&gt;&lt;br&gt;amino acid adenylation domain-containing protein&lt;br&gt;Location: 21678 - 20146" locus_tag="BBE36469.1"  />
</g>
<g id="a1_0019"  >
<polygon class="clusterblast-orf" id="dummy-1_h1_10_19" style="stroke-width:1; stroke:black; fill:white; " points="371,90 372,90 377,85 372,80 371,80 371,90 " description="&lt;b&gt;BBE36468.1&lt;/b&gt;&lt;br&gt;polyketide cyclase&lt;br&gt;Location: 19968 - 19618" locus_tag="BBE36468.1"  />
</g>
<g id="a1_0020"  >
<polygon class="clusterblast-orf" id="dummy-1_h1_10_20" style="stroke-width:1; stroke:black; fill:white; " points="377,90 379,90 384,85 379,80 377,80 377,90 " description="&lt;b&gt;BBE36467.1&lt;/b&gt;&lt;br&gt;polyketide cyclase&lt;br&gt;Location: 19600 - 19208" locus_tag="BBE36467.1"  />
</g>
<g id="a1_0021"  >
<polygon class="clusterblast-orf" id="dummy-1_h1_10_21" style="stroke-width:1; stroke:black; fill:white; " points="384,90 401,90 406,85 401,80 384,80 384,90 " description="&lt;b&gt;BBE36466.1&lt;/b&gt;&lt;br&gt;beta-ketoacyl synthase&lt;br&gt;Location: 19206 - 17947" locus_tag="BBE36466.1"  />
</g>
<g id="a1_0022"  >
<polygon class="clusterblast-orf" id="dummy-1_h1_10_22" style="stroke-width:1; stroke:black; fill:white; " points="406,90 421,90 426,85 421,80 406,80 406,90 " description="&lt;b&gt;BBE36465.1&lt;/b&gt;&lt;br&gt;beta-ketoacyl synthase&lt;br&gt;Location: 17944 - 16718" locus_tag="BBE36465.1"  />
</g>
<g id="a1_0023"  >
<polygon class="clusterblast-orf" id="dummy-1_h1_10_23" style="stroke-width:1; stroke:black; fill:white; " points="427,90 428,90 433,85 428,80 427,80 427,90 " description="&lt;b&gt;BBE36464.1&lt;/b&gt;&lt;br&gt;monooxygenase&lt;br&gt;Location: 16661 - 16341" locus_tag="BBE36464.1"  />
</g>
<g id="a1_0024"  >
<polygon class="clusterblast-orf" id="dummy-1_h1_10_24" style="stroke-width:1; stroke:black; fill:#d81515; " points="433,90 457,90 462,85 457,80 433,80 433,90 " description="&lt;b&gt;BBE36463.1&lt;/b&gt;&lt;br&gt;acetyl-CoA carboxylase&lt;br&gt;Location: 16339 - 14624&lt;br&gt;&lt;br&gt;&lt;b&gt;BlastP hit with cds182498_184181&lt;/b&gt;&lt;br&gt;Percentage identity: 46&lt;br&gt;Percentage coverage: 98&lt;br&gt;BLAST bit score: 442&lt;br&gt;E-value: 1.1e-123" locus_tag="BBE36463.1"  />
</g>
<g id="a1_0025"  >
<polygon class="clusterblast-orf" id="dummy-1_h1_10_25" style="stroke-width:1; stroke:black; fill:white; " points="462,90 465,90 470,85 465,80 462,80 462,90 " description="&lt;b&gt;BBE36462.1&lt;/b&gt;&lt;br&gt;biotin carboxyl carrier&lt;br&gt;Location: 14637 - 14176" locus_tag="BBE36462.1"  />
</g>
<g id="a1_0026"  >
<polygon class="clusterblast-orf" id="dummy-1_h1_10_26" style="stroke-width:1; stroke:black; fill:#1563d8; " points="470,90 488,90 493,85 488,80 470,80 470,90 " description="&lt;b&gt;BBE36461.1&lt;/b&gt;&lt;br&gt;pyruvate carboxylase&lt;br&gt;Location: 14168 - 12819&lt;br&gt;&lt;br&gt;&lt;b&gt;BlastP hit with cds184758_186135&lt;/b&gt;&lt;br&gt;Percentage identity: 62&lt;br&gt;Percentage coverage: 96&lt;br&gt;BLAST bit score: 535&lt;br&gt;E-value: 6.1e-152" locus_tag="BBE36461.1"  />
</g>
<g id="a1_0027"  >
<polygon class="clusterblast-orf" id="dummy-1_h1_10_27" style="stroke-width:1; stroke:black; fill:white; " points="493,90 501,90 506,85 501,80 493,80 493,90 " description="&lt;b&gt;BBE36460.1&lt;/b&gt;&lt;br&gt;thioesterase&lt;br&gt;Location: 12814 - 12053" locus_tag="BBE36460.1"  />
</g>
<g id="a1_0028"  >
<polygon class="clusterblast-orf" id="dummy-1_h1_10_28" style="stroke-width:1; stroke:black; fill:white; " points="506,90 524,90 529,85 524,80 506,80 506,90 " description="&lt;b&gt;BBE36459.1&lt;/b&gt;&lt;br&gt;Na:H Exchanger&lt;br&gt;Location: 12056 - 10701" locus_tag="BBE36459.1"  />
</g>
<g id="a1_0029"  >
<polygon class="clusterblast-orf" id="dummy-1_h1_10_29" style="stroke-width:1; stroke:black; fill:white; " points="529,90 539,90 544,85 539,80 529,80 529,90 " description="&lt;b&gt;BBE36458.1&lt;/b&gt;&lt;br&gt;monooxygenase&lt;br&gt;Location: 10680 - 9844" locus_tag="BBE36458.1"  />
</g>
<g id="a1_0030"  >
<polygon class="clusterblast-orf" id="dummy-1_h1_10_30" style="stroke-width:1; stroke:black; fill:white; " points="544,90 557,90 562,85 557,80 544,80 544,90 " description="&lt;b&gt;BBE36457.1&lt;/b&gt;&lt;br&gt;dTDP-1-glucose synthase&lt;br&gt;Location: 9847 - 8774" locus_tag="BBE36457.1"  />
</g>
<g id="a1_0031"  >
<polygon class="clusterblast-orf" id="dummy-1_h1_10_31" style="stroke-width:1; stroke:black; fill:white; " points="564,90 582,90 587,85 582,80 564,80 564,90 " description="&lt;b&gt;BBE36456.1&lt;/b&gt;&lt;br&gt;dTDP-2,3-dehydratase&lt;br&gt;Location: 8671 - 7265" locus_tag="BBE36456.1"  />
</g>
<g id="a1_0032"  >
<polygon class="clusterblast-orf" id="dummy-1_h1_10_32" style="stroke-width:1; stroke:black; fill:white; " points="588,90 606,90 611,85 606,80 588,80 588,90 " description="&lt;b&gt;BBE36455.1&lt;/b&gt;&lt;br&gt;oxidase&lt;br&gt;Location: 7226 - 5868" locus_tag="BBE36455.1"  />
</g>
<g id="a1_0033"  >
<polygon class="clusterblast-orf" id="dummy-1_h1_10_33" style="stroke-width:1; stroke:black; fill:white; " points="613,90 620,90 625,85 620,80 613,80 613,90 " description="&lt;b&gt;BBE36454.1&lt;/b&gt;&lt;br&gt;regulatory protein&lt;br&gt;Location: 5790 - 5059" locus_tag="BBE36454.1"  />
</g>
<g id="a1_0034"  >
<polygon class="clusterblast-orf" id="dummy-1_h1_10_34" style="stroke-width:1; stroke:black; fill:white; " points="626,85 631,80 639,80 639,90 631,90 626,85 " description="&lt;b&gt;BBE36453.1&lt;/b&gt;&lt;br&gt;dehydrogenase&lt;br&gt;Location: 5009 - 4227" locus_tag="BBE36453.1"  />
</g>
<g id="a1_0035"  >
<polygon class="clusterblast-orf" id="dummy-1_h1_10_35" style="stroke-width:1; stroke:black; fill:white; " points="641,90 653,90 658,85 653,80 641,80 641,90 " description="&lt;b&gt;BBE36452.1&lt;/b&gt;&lt;br&gt;methyltransferase&lt;br&gt;Location: 4119 - 3103" locus_tag="BBE36452.1"  />
</g>
<g id="a1_0036"  >
<polygon class="clusterblast-orf" id="dummy-1_h1_10_36" style="stroke-width:1; stroke:black; fill:white; " points="659,85 664,80 677,80 677,90 664,90 659,85 " description="&lt;b&gt;BBE36451.1&lt;/b&gt;&lt;br&gt;aminotransferase&lt;br&gt;Location: 3085 - 2006" locus_tag="BBE36451.1"  />
</g>
<g id="a1_0037"  >
<polygon class="clusterblast-orf" id="dummy-1_h1_10_37" style="stroke-width:1; stroke:black; fill:white; " points="678,85 683,80 702,80 702,90 683,90 678,85 " description="&lt;b&gt;BBE36450.1&lt;/b&gt;&lt;br&gt;transporter&lt;br&gt;Location: 1943 - 519" locus_tag="BBE36450.1"  />
</g>
<g id="a1_0038"  >
<polygon class="clusterblast-orf" id="dummy-1_h1_10_38" style="stroke-width:1; stroke:black; fill:white; " points="706,85 711,80 711,80 711,90 711,90 706,85 " description="&lt;b&gt;BBE36449.1&lt;/b&gt;&lt;br&gt;hypothetical protein&lt;br&gt;Location: 333 - 1" locus_tag="BBE36449.1"  />
</g>
</svg>
