<svg xmlns:xlink="http://www.w3.org/1999/xlink" x="0" xmlns="http://www.w3.org/2000/svg" version="1.1" preserveAspectRatio="none" viewBox="0 0 800 230" y="0" height="230" width="800"  >
<g class="clusterblast-cluster" label="Query sequence"  >
<text x="5" class="clusterblast-acc" y="20"  >
Query sequence</text>
<line y2="35" x2="778.0" x1="10" style="stroke-width:1; stroke:grey; " y1="35"  />
<polygon id="dummy-1_q0_0_all" style="fill:white; stroke:black; stroke-width:1; " locus_tag="cds70956_72090" class="clusterblast-orf" description="&lt;b&gt;cds70956_72090&lt;/b&gt;&lt;br&gt;hypothetical protein&lt;br&gt;Location: 70956 - 72090" points="309,35 314,30 324,30 324,40 314,40 309,35 "  />
<polygon id="dummy-1_q1_0_all" style="fill:#d81515; stroke:black; stroke-width:1; " locus_tag="cds72291_73725" class="clusterblast-orf" description="&lt;b&gt;cds72291_73725&lt;/b&gt;&lt;br&gt;FIG00814329: hypothetical protein&lt;br&gt;Location: 72291 - 73725" points="326,40 340,40 345,35 340,30 326,30 326,40 "  />
<polygon id="dummy-1_q2_0_all" style="fill:white; stroke:black; stroke-width:1; " locus_tag="cds73819_74548" class="clusterblast-orf" description="&lt;b&gt;cds73819_74548&lt;/b&gt;&lt;br&gt;FIG01123369: hypothetical protein&lt;br&gt;Location: 73819 - 74548" points="346,35 351,30 356,30 356,40 351,40 346,35 "  />
<polygon id="dummy-1_q3_0_all" style="fill:white; stroke:black; stroke-width:1; " locus_tag="cds74647_75418" class="clusterblast-orf" description="&lt;b&gt;cds74647_75418&lt;/b&gt;&lt;br&gt;hypothetical protein&lt;br&gt;Location: 74647 - 75418" points="357,40 363,40 368,35 363,30 357,30 357,40 "  />
<polygon id="dummy-1_q4_0_all" style="fill:white; stroke:black; stroke-width:1; " locus_tag="cds75446_75566" class="clusterblast-orf" description="&lt;b&gt;cds75446_75566&lt;/b&gt;&lt;br&gt;hypothetical protein&lt;br&gt;Location: 75446 - 75566" points="368,40 369,35 368,30 368,40 "  />
<polygon id="dummy-1_q5_0_all" style="fill:#4dd815; stroke:black; stroke-width:1; " locus_tag="cds75617_77063" class="clusterblast-orf" description="&lt;b&gt;cds75617_77063&lt;/b&gt;&lt;br&gt;Siderophore synthetase superfamily, group A&lt;br&gt;Location: 75617 - 77063" points="370,35 375,30 389,30 389,40 375,40 370,35 "  />
<polygon id="dummy-1_q6_0_all" style="fill:#1585d8; stroke:black; stroke-width:1; " locus_tag="cds77085_78429" class="clusterblast-orf" description="&lt;b&gt;cds77085_78429&lt;/b&gt;&lt;br&gt;hypothetical protein&lt;br&gt;Location: 77085 - 78429" points="390,40 402,40 407,35 402,30 390,30 390,40 "  />
<polygon id="dummy-1_q7_0_all" style="fill:#d815bc; stroke:black; stroke-width:1; " locus_tag="cds78418_79420" class="clusterblast-orf" description="&lt;b&gt;cds78418_79420&lt;/b&gt;&lt;br&gt;hypothetical protein&lt;br&gt;Location: 78418 - 79420" points="407,35 412,30 420,30 420,40 412,40 407,35 "  />
<polygon id="dummy-1_q8_0_all" style="fill:#d8bc15; stroke:black; stroke-width:1; " locus_tag="cds79453_81724" class="clusterblast-orf" description="&lt;b&gt;cds79453_81724&lt;/b&gt;&lt;br&gt;hypothetical protein&lt;br&gt;Location: 79453 - 81724" points="421,35 426,30 451,30 451,40 426,40 421,35 "  />
<polygon id="dummy-1_q9_0_all" style="fill:#15d885; stroke:black; stroke-width:1; " locus_tag="cds81827_82697" class="clusterblast-orf" description="&lt;b&gt;cds81827_82697&lt;/b&gt;&lt;br&gt;hypothetical protein&lt;br&gt;Location: 81827 - 82697" points="452,35 457,30 464,30 464,40 457,40 452,35 "  />
<polygon id="dummy-1_q10_0_all" style="fill:#4d15d8; stroke:black; stroke-width:1; " locus_tag="cds82877_83225" class="clusterblast-orf" description="&lt;b&gt;cds82877_83225&lt;/b&gt;&lt;br&gt;hypothetical protein&lt;br&gt;Location: 82877 - 83225" points="466,35 471,30 471,30 471,40 471,40 466,35 "  />
</g>
<g class="clusterblast-cluster" label="NZ_QLTT01000004" description="NZ_QLTT01000004 (312046-371091): Lechevalieria atacamensis strain DSM 45479 G... (10% of genes show similarity), NRPS,siderophore"  >
<text x="5" class="clusterblast-acc" y="70"  >
<a xlink:href="https://antismash-db.secondarymetabolites.org/area.html?record=NZ_QLTT01000004&amp;start=312046&amp;end=371091" target="_blank">NZ_QLTT01000004 (312046-371091)</a>: Lechevalieria atacamensis strain DSM 45479 G... (10% of genes show similarity), NRPS,siderophore</text>
<line y2="85" x2="778.0" x1="10" style="stroke-width:1; stroke:grey; " y1="85"  />
</g>
<g id="a1_000"  >
<polygon id="dummy-1_h1_4_0" style="fill:white; stroke:black; stroke-width:1; " locus_tag="C8D87_RS20660" class="clusterblast-orf" description="&lt;b&gt;C8D87_RS20660&lt;/b&gt;&lt;br&gt;hypothetical protein&lt;br&gt;Location: 371091 - 370798" points="0,85 3,80 3,90 0,85 "  />
</g>
<g id="a1_001"  >
<polygon id="dummy-1_h1_4_1" style="fill:white; stroke:black; stroke-width:1; " locus_tag="C8D87_RS20655" class="clusterblast-orf" description="&lt;b&gt;C8D87_RS20655&lt;/b&gt;&lt;br&gt;GcvT family protein&lt;br&gt;Location: 370801 - 368351" points="3,85 8,80 36,80 36,90 8,90 3,85 "  />
</g>
<g id="a1_002"  >
<polygon id="dummy-1_h1_4_2" style="fill:white; stroke:black; stroke-width:1; " locus_tag="C8D87_RS20650" class="clusterblast-orf" description="&lt;b&gt;C8D87_RS20650&lt;/b&gt;&lt;br&gt;MBL fold metallo-hydrolase&lt;br&gt;Location: 368316 - 367711" points="36,85 41,80 44,80 44,90 41,90 36,85 "  />
</g>
<g id="a1_003"  >
<polygon id="dummy-1_h1_4_3" style="fill:white; stroke:black; stroke-width:1; " locus_tag="C8D87_RS20645" class="clusterblast-orf" description="&lt;b&gt;C8D87_RS20645&lt;/b&gt;&lt;br&gt;S-(hydroxymethyl)mycothiol dehydrogenase&lt;br&gt;Location: 367714 - 366629" points="44,85 49,80 58,80 58,90 49,90 44,85 "  />
</g>
<g id="a1_004"  >
<polygon id="dummy-1_h1_4_4" style="fill:white; stroke:black; stroke-width:1; " locus_tag="C8D87_RS20640" class="clusterblast-orf" description="&lt;b&gt;C8D87_RS20640&lt;/b&gt;&lt;br&gt;serine hydroxymethyltransferase&lt;br&gt;Location: 366611 - 365265" points="59,85 64,80 76,80 76,90 64,90 59,85 "  />
</g>
<g id="a1_005"  >
<polygon id="dummy-1_h1_4_5" style="fill:white; stroke:black; stroke-width:1; " locus_tag="C8D87_RS20635" class="clusterblast-orf" description="&lt;b&gt;C8D87_RS20635&lt;/b&gt;&lt;br&gt;IclR family transcriptional regulator&lt;br&gt;Location: 365120 - 364338" points="78,85 83,80 89,80 89,90 83,90 78,85 "  />
</g>
<g id="a1_006"  >
<polygon id="dummy-1_h1_4_6" style="fill:white; stroke:black; stroke-width:1; " locus_tag="C8D87_RS20630" class="clusterblast-orf" description="&lt;b&gt;C8D87_RS20630&lt;/b&gt;&lt;br&gt;bifunctional 3-phenylpropionate/cinnamic acid dioxygenase ferredoxin subunit&lt;br&gt;Location: 364218 - 363901" points="90,90 94,85 90,80 90,90 "  />
</g>
<g id="a1_007"  >
<polygon id="dummy-1_h1_4_7" style="fill:white; stroke:black; stroke-width:1; " locus_tag="C8D87_RS20625" class="clusterblast-orf" description="&lt;b&gt;C8D87_RS20625&lt;/b&gt;&lt;br&gt;FAD-dependent oxidoreductase&lt;br&gt;Location: 363904 - 362735" points="94,90 105,90 110,85 105,80 94,80 94,90 "  />
</g>
<g id="a1_008"  >
<polygon id="dummy-1_h1_4_8" style="fill:white; stroke:black; stroke-width:1; " locus_tag="C8D87_RS20620" class="clusterblast-orf" description="&lt;b&gt;C8D87_RS20620&lt;/b&gt;&lt;br&gt;FtsX-like permease family protein&lt;br&gt;Location: 362638 - 360101" points="111,85 116,80 145,80 145,90 116,90 111,85 "  />
</g>
<g id="a1_009"  >
<polygon id="dummy-1_h1_4_9" style="fill:white; stroke:black; stroke-width:1; " locus_tag="C8D87_RS20615" class="clusterblast-orf" description="&lt;b&gt;C8D87_RS20615&lt;/b&gt;&lt;br&gt;ABC transporter ATP-binding protein&lt;br&gt;Location: 360075 - 359383" points="145,85 150,80 154,80 154,90 150,90 145,85 "  />
</g>
<g id="a1_0010"  >
<polygon id="dummy-1_h1_4_10" style="fill:white; stroke:black; stroke-width:1; " locus_tag="C8D87_RS20610" class="clusterblast-orf" description="&lt;b&gt;C8D87_RS20610&lt;/b&gt;&lt;br&gt;response regulator transcription factor&lt;br&gt;Location: 359208 - 358558" points="156,85 161,80 165,80 165,90 161,90 156,85 "  />
</g>
<g id="a1_0011"  >
<polygon id="dummy-1_h1_4_11" style="fill:white; stroke:black; stroke-width:1; " locus_tag="C8D87_RS20605" class="clusterblast-orf" description="&lt;b&gt;C8D87_RS20605&lt;/b&gt;&lt;br&gt;sensor domain-containing protein&lt;br&gt;Location: 358570 - 357371" points="165,85 170,80 181,80 181,90 170,90 165,85 "  />
</g>
<g id="a1_0012"  >
<polygon id="dummy-1_h1_4_12" style="fill:white; stroke:black; stroke-width:1; " locus_tag="C8D87_RS20600" class="clusterblast-orf" description="&lt;b&gt;C8D87_RS20600&lt;/b&gt;&lt;br&gt;enduracididine biosynthesis enzyme MppR&lt;br&gt;Location: 357277 - 356477" points="182,85 187,80 193,80 193,90 187,90 182,85 "  />
</g>
<g id="a1_0013"  >
<polygon id="dummy-1_h1_4_13" style="fill:white; stroke:black; stroke-width:1; " locus_tag="C8D87_RS20595" class="clusterblast-orf" description="&lt;b&gt;C8D87_RS20595&lt;/b&gt;&lt;br&gt;aminotransferase class I/II-fold pyridoxal phosphate-dependent enzyme&lt;br&gt;Location: 356480 - 355332" points="193,85 198,80 208,80 208,90 198,90 193,85 "  />
</g>
<g id="a1_0014"  >
<polygon id="dummy-1_h1_4_14" style="fill:white; stroke:black; stroke-width:1; " locus_tag="C8D87_RS20590" class="clusterblast-orf" description="&lt;b&gt;C8D87_RS20590&lt;/b&gt;&lt;br&gt;enduracididine biosynthesis enzyme MppP&lt;br&gt;Location: 355335 - 354187" points="208,85 213,80 223,80 223,90 213,90 208,85 "  />
</g>
<g id="a1_0015"  >
<polygon id="dummy-1_h1_4_15" style="fill:white; stroke:black; stroke-width:1; " locus_tag="C8D87_RS20585" class="clusterblast-orf" description="&lt;b&gt;C8D87_RS20585&lt;/b&gt;&lt;br&gt;MFS transporter&lt;br&gt;Location: 354150 - 352933" points="223,85 228,80 239,80 239,90 228,90 223,85 "  />
</g>
<g id="a1_0016"  >
<polygon id="dummy-1_h1_4_16" style="fill:white; stroke:black; stroke-width:1; " locus_tag="C8D87_RS20580" class="clusterblast-orf" description="&lt;b&gt;C8D87_RS20580&lt;/b&gt;&lt;br&gt;serine hydrolase&lt;br&gt;Location: 352909 - 351719" points="240,85 245,80 255,80 255,90 245,90 240,85 "  />
</g>
<g id="a1_0017"  >
<polygon id="dummy-1_h1_4_17" style="fill:white; stroke:black; stroke-width:1; " locus_tag="C8D87_RS20575" class="clusterblast-orf" description="&lt;b&gt;C8D87_RS20575&lt;/b&gt;&lt;br&gt;amino acid adenylation domain-containing protein&lt;br&gt;Location: 351722 - 339504" points="255,85 260,80 417,80 417,90 260,90 255,85 "  />
</g>
<g id="a1_0018"  >
<polygon id="dummy-1_h1_4_18" style="fill:white; stroke:black; stroke-width:1; " locus_tag="C8D87_RS20570" class="clusterblast-orf" description="&lt;b&gt;C8D87_RS20570&lt;/b&gt;&lt;br&gt;amino acid adenylation domain-containing protein&lt;br&gt;Location: 339502 - 330185" points="417,85 422,80 540,80 540,90 422,90 417,85 "  />
</g>
<g id="a1_0019"  >
<polygon id="dummy-1_h1_4_19" style="fill:white; stroke:black; stroke-width:1; " locus_tag="C8D87_RS20565" class="clusterblast-orf" description="&lt;b&gt;C8D87_RS20565&lt;/b&gt;&lt;br&gt;methyltransferase domain-containing protein&lt;br&gt;Location: 329780 - 328791" points="545,90 553,90 558,85 553,80 545,80 545,90 "  />
</g>
<g id="a1_0020"  >
<polygon id="dummy-1_h1_4_20" style="fill:white; stroke:black; stroke-width:1; " locus_tag="C8D87_RS20560" class="clusterblast-orf" description="&lt;b&gt;C8D87_RS20560&lt;/b&gt;&lt;br&gt;histidinol-phosphate transaminase&lt;br&gt;Location: 328777 - 327716" points="558,90 568,90 573,85 568,80 558,80 558,90 "  />
</g>
<g id="a1_0021"  >
<polygon id="dummy-1_h1_4_21" style="fill:white; stroke:black; stroke-width:1; " locus_tag="C8D87_RS20555" class="clusterblast-orf" description="&lt;b&gt;C8D87_RS20555&lt;/b&gt;&lt;br&gt;MbtH family protein&lt;br&gt;Location: 327699 - 327493" points="573,90 575,85 573,80 573,90 "  />
</g>
<g id="a1_0022"  >
<polygon id="dummy-1_h1_4_22" style="fill:white; stroke:black; stroke-width:1; " locus_tag="C8D87_RS20550" class="clusterblast-orf" description="&lt;b&gt;C8D87_RS20550&lt;/b&gt;&lt;br&gt;winged helix-turn-helix transcriptional regulator&lt;br&gt;Location: 327489 - 326596" points="576,85 581,80 587,80 587,90 581,90 576,85 "  />
</g>
<g id="a1_0023"  >
<polygon id="dummy-1_h1_4_23" style="fill:white; stroke:black; stroke-width:1; " locus_tag="C8D87_RS20540" class="clusterblast-orf" description="&lt;b&gt;C8D87_RS20540&lt;/b&gt;&lt;br&gt;hypothetical protein&lt;br&gt;Location: 325229 - 324372" points="605,90 612,90 617,85 612,80 605,80 605,90 "  />
</g>
<g id="a1_0024"  >
<polygon id="dummy-1_h1_4_24" style="fill:#4dd815; stroke:black; stroke-width:1; " locus_tag="C8D87_RS20535" class="clusterblast-orf" description="&lt;b&gt;C8D87_RS20535&lt;/b&gt;&lt;br&gt;IucA/IucC family siderophore biosynthesis protein&lt;br&gt;Location: 324375 - 322942&lt;br&gt;&lt;br&gt;&lt;b&gt;BlastP hit with cds75617_77063&lt;/b&gt;&lt;br&gt;Percentage identity: 81&lt;br&gt;Percentage coverage: 100&lt;br&gt;BLAST bit score: 810&lt;br&gt;E-value: 1e-232" points="617,85 622,80 636,80 636,90 622,90 617,85 "  />
</g>
<g id="a1_0025"  >
<polygon id="dummy-1_h1_4_25" style="fill:#1585d8; stroke:black; stroke-width:1; " locus_tag="C8D87_RS20530" class="clusterblast-orf" description="&lt;b&gt;C8D87_RS20530&lt;/b&gt;&lt;br&gt;IucA/IucC family siderophore biosynthesis protein&lt;br&gt;Location: 322919 - 321546&lt;br&gt;&lt;br&gt;&lt;b&gt;BlastP hit with cds77085_78429&lt;/b&gt;&lt;br&gt;Percentage identity: 73&lt;br&gt;Percentage coverage: 102&lt;br&gt;BLAST bit score: 659&lt;br&gt;E-value: 2.8e-187" points="636,90 649,90 654,85 649,80 636,80 636,90 "  />
</g>
<g id="a1_0026"  >
<polygon id="dummy-1_h1_4_26" style="fill:#d815bc; stroke:black; stroke-width:1; " locus_tag="C8D87_RS20525" class="clusterblast-orf" description="&lt;b&gt;C8D87_RS20525&lt;/b&gt;&lt;br&gt;transcriptional regulator&lt;br&gt;Location: 321538 - 320525&lt;br&gt;&lt;br&gt;&lt;b&gt;BlastP hit with cds78418_79420&lt;/b&gt;&lt;br&gt;Percentage identity: 77&lt;br&gt;Percentage coverage: 100&lt;br&gt;BLAST bit score: 530&lt;br&gt;E-value: 1.1e-148" points="654,85 659,80 668,80 668,90 659,90 654,85 "  />
</g>
<g id="a1_0027"  >
<polygon id="dummy-1_h1_4_27" style="fill:#4d15d8; stroke:black; stroke-width:1; " locus_tag="C8D87_RS20520" class="clusterblast-orf" description="&lt;b&gt;C8D87_RS20520&lt;/b&gt;&lt;br&gt;hypothetical protein&lt;br&gt;Location: 320452 - 320162&lt;br&gt;&lt;br&gt;&lt;b&gt;BlastP hit with cds82877_83225&lt;/b&gt;&lt;br&gt;Percentage identity: 84&lt;br&gt;Percentage coverage: 83&lt;br&gt;BLAST bit score: 155&lt;br&gt;E-value: 2.6e-36" points="668,85 672,80 672,90 668,85 "  />
</g>
<g id="a1_0028"  >
<polygon id="dummy-1_h1_4_28" style="fill:white; stroke:black; stroke-width:1; " locus_tag="C8D87_RS20515" class="clusterblast-orf" description="&lt;b&gt;C8D87_RS20515&lt;/b&gt;&lt;br&gt;NUDIX hydrolase&lt;br&gt;Location: 320087 - 319395" points="673,90 677,90 682,85 677,80 673,80 673,90 "  />
</g>
<g id="a1_0029"  >
<polygon id="dummy-1_h1_4_29" style="fill:white; stroke:black; stroke-width:1; " locus_tag="C8D87_RS20510" class="clusterblast-orf" description="&lt;b&gt;C8D87_RS20510&lt;/b&gt;&lt;br&gt;cobalamin-binding protein&lt;br&gt;Location: 319395 - 318535" points="682,90 689,90 694,85 689,80 682,80 682,90 "  />
</g>
<g id="a1_0030"  >
<polygon id="dummy-1_h1_4_30" style="fill:white; stroke:black; stroke-width:1; " locus_tag="C8D87_RS20505" class="clusterblast-orf" description="&lt;b&gt;C8D87_RS20505&lt;/b&gt;&lt;br&gt;D-cysteine desulfhydrase family protein&lt;br&gt;Location: 318544 - 317573" points="694,90 701,90 706,85 701,80 694,80 694,90 "  />
</g>
<g id="a1_0031"  >
<polygon id="dummy-1_h1_4_31" style="fill:white; stroke:black; stroke-width:1; " locus_tag="C8D87_RS20500" class="clusterblast-orf" description="&lt;b&gt;C8D87_RS20500&lt;/b&gt;&lt;br&gt;hypothetical protein&lt;br&gt;Location: 317506 - 317126" points="707,90 707,90 712,85 707,80 707,80 707,90 "  />
</g>
<g id="a1_0032"  >
<polygon id="dummy-1_h1_4_32" style="fill:white; stroke:black; stroke-width:1; " locus_tag="C8D87_RS20495" class="clusterblast-orf" description="&lt;b&gt;C8D87_RS20495&lt;/b&gt;&lt;br&gt;GTP pyrophosphokinase family protein&lt;br&gt;Location: 316990 - 316433" points="714,90 717,90 722,85 717,80 714,80 714,90 "  />
</g>
<g id="a1_0033"  >
<polygon id="dummy-1_h1_4_33" style="fill:white; stroke:black; stroke-width:1; " locus_tag="C8D87_RS20490" class="clusterblast-orf" description="&lt;b&gt;C8D87_RS20490&lt;/b&gt;&lt;br&gt;hypothetical protein&lt;br&gt;Location: 316409 - 316014" points="722,85 727,80 727,80 727,90 727,90 722,85 "  />
</g>
<g id="a1_0034"  >
<polygon id="dummy-1_h1_4_34" style="fill:white; stroke:black; stroke-width:1; " locus_tag="C8D87_RS20485" class="clusterblast-orf" description="&lt;b&gt;C8D87_RS20485&lt;/b&gt;&lt;br&gt;MFS transporter&lt;br&gt;Location: 316015 - 314879" points="727,90 737,90 742,85 737,80 727,80 727,90 "  />
</g>
<g id="a1_0035"  >
<polygon id="dummy-1_h1_4_35" style="fill:white; stroke:black; stroke-width:1; " locus_tag="C8D87_RS20480" class="clusterblast-orf" description="&lt;b&gt;C8D87_RS20480&lt;/b&gt;&lt;br&gt;MerR family transcriptional regulator&lt;br&gt;Location: 314892 - 314071" points="742,85 747,80 753,80 753,90 747,90 742,85 "  />
</g>
<g id="a1_0036"  >
<polygon id="dummy-1_h1_4_36" style="fill:white; stroke:black; stroke-width:1; " locus_tag="C8D87_RS20475" class="clusterblast-orf" description="&lt;b&gt;C8D87_RS20475&lt;/b&gt;&lt;br&gt;MEDS domain-containing protein&lt;br&gt;Location: 313969 - 313046" points="754,90 761,90 766,85 761,80 754,80 754,90 "  />
</g>
<g id="a1_0037"  >
<polygon id="dummy-1_h1_4_37" style="fill:white; stroke:black; stroke-width:1; " locus_tag="C8D87_RS20470" class="clusterblast-orf" description="&lt;b&gt;C8D87_RS20470&lt;/b&gt;&lt;br&gt;DUF742 domain-containing protein&lt;br&gt;Location: 312982 - 312476" points="767,90 769,90 774,85 769,80 767,80 767,90 "  />
</g>
<g id="a1_0038"  >
<polygon id="dummy-1_h1_4_38" style="fill:white; stroke:black; stroke-width:1; " locus_tag="C8D87_RS20465" class="clusterblast-orf" description="&lt;b&gt;C8D87_RS20465&lt;/b&gt;&lt;br&gt;DUF1049 domain-containing protein&lt;br&gt;Location: 312331 - 312047" points="776,90 780,85 776,80 776,90 "  />
</g>
</svg>
