<svg xmlns:xlink="http://www.w3.org/1999/xlink" x="0" xmlns="http://www.w3.org/2000/svg" version="1.1" preserveAspectRatio="none" viewBox="0 0 800 230" y="0" height="230" width="800"  >
<g class="clusterblast-cluster" label="Query sequence"  >
<text x="5" class="clusterblast-acc" y="20"  >
Query sequence</text>
<line y2="35" x2="778.0" x1="10" style="stroke-width:1; stroke:grey; " y1="35"  />
<polygon id="dummy-1_q0_0_all" style="fill:#d81515; stroke:black; stroke-width:1; " locus_tag="cds66868_68077" class="clusterblast-orf" description="&lt;b&gt;cds66868_68077&lt;/b&gt;&lt;br&gt;Uncharacterized MFS-type transporter&lt;br&gt;Location: 66868 - 68077" points="19,35 24,30 39,30 39,40 24,40 19,35 "  />
<polygon id="dummy-1_q1_0_all" style="fill:#6cd815; stroke:black; stroke-width:1; " locus_tag="cds68162_69143" class="clusterblast-orf" description="&lt;b&gt;cds68162_69143&lt;/b&gt;&lt;br&gt;hypothetical protein&lt;br&gt;Location: 68162 - 69143" points="41,40 52,40 57,35 52,30 41,30 41,40 "  />
<polygon id="dummy-1_q2_0_all" style="fill:#15c3d8; stroke:black; stroke-width:1; " locus_tag="cds69135_70203" class="clusterblast-orf" description="&lt;b&gt;cds69135_70203&lt;/b&gt;&lt;br&gt;hypothetical protein&lt;br&gt;Location: 69135 - 70203" points="57,40 70,40 75,35 70,30 57,30 57,40 "  />
<polygon id="dummy-1_q3_0_all" style="fill:#9715d8; stroke:black; stroke-width:1; " locus_tag="cds70199_70970" class="clusterblast-orf" description="&lt;b&gt;cds70199_70970&lt;/b&gt;&lt;br&gt;ABC transporter (iron.B12.siderophore.hemin) , ATP-binding component&lt;br&gt;Location: 70199 - 70970" points="75,40 82,40 87,35 82,30 75,30 75,40 "  />
<polygon id="dummy-1_q4_0_all" style="fill:#d84115; stroke:black; stroke-width:1; " locus_tag="cds71018_71819" class="clusterblast-orf" description="&lt;b&gt;cds71018_71819&lt;/b&gt;&lt;br&gt;hypothetical protein&lt;br&gt;Location: 71018 - 71819" points="88,40 96,40 101,35 96,30 88,30 88,40 "  />
<polygon id="dummy-1_q5_0_all" style="fill:#41d815; stroke:black; stroke-width:1; " locus_tag="cds71815_72862" class="clusterblast-orf" description="&lt;b&gt;cds71815_72862&lt;/b&gt;&lt;br&gt;Pyridoxal-5'-phosphate-dependent enzyme beta superfamily (fold type II)&lt;br&gt;Location: 71815 - 72862" points="101,40 114,40 119,35 114,30 101,30 101,40 "  />
<polygon id="dummy-1_q6_0_all" style="fill:#1597d8; stroke:black; stroke-width:1; " locus_tag="cds72858_73044" class="clusterblast-orf" description="&lt;b&gt;cds72858_73044&lt;/b&gt;&lt;br&gt;hypothetical protein&lt;br&gt;Location: 72858 - 73044" points="119,35 122,30 122,40 119,35 "  />
<polygon id="dummy-1_q7_0_all" style="fill:white; stroke:black; stroke-width:1; " locus_tag="cds73068_73392" class="clusterblast-orf" description="&lt;b&gt;cds73068_73392&lt;/b&gt;&lt;br&gt;hypothetical protein&lt;br&gt;Location: 73068 - 73392" points="122,40 123,40 128,35 123,30 122,30 122,40 "  />
<polygon id="dummy-1_q8_0_all" style="fill:white; stroke:black; stroke-width:1; " locus_tag="cds73460_76034" class="clusterblast-orf" description="&lt;b&gt;cds73460_76034&lt;/b&gt;&lt;br&gt;hypothetical protein&lt;br&gt;Location: 73460 - 76034" points="129,40 166,40 171,35 166,30 129,30 129,40 "  />
<polygon id="dummy-1_q9_0_all" style="fill:#c315d8; stroke:black; stroke-width:1; " locus_tag="cds76035_76431" class="clusterblast-orf" description="&lt;b&gt;cds76035_76431&lt;/b&gt;&lt;br&gt;tRNA (adenine(37)-N6)-methyltransferase&lt;br&gt;Location: 76035 - 76431" points="171,35 176,30 178,30 178,40 176,40 171,35 "  />
<polygon id="dummy-1_q10_0_all" style="fill:#d86c15; stroke:black; stroke-width:1; " locus_tag="cds76430_77828" class="clusterblast-orf" description="&lt;b&gt;cds76430_77828&lt;/b&gt;&lt;br&gt;UPF0061 protein YdiU&lt;br&gt;Location: 76430 - 77828" points="178,35 183,30 201,30 201,40 183,40 178,35 "  />
<polygon id="dummy-1_q11_0_all" style="fill:white; stroke:black; stroke-width:1; " locus_tag="cds78225_78870" class="clusterblast-orf" description="&lt;b&gt;cds78225_78870&lt;/b&gt;&lt;br&gt;hypothetical protein&lt;br&gt;Location: 78225 - 78870" points="208,40 213,40 218,35 213,30 208,30 208,40 "  />
<polygon id="dummy-1_q12_0_all" style="fill:#15d815; stroke:black; stroke-width:1; " locus_tag="cds78945_79392" class="clusterblast-orf" description="&lt;b&gt;cds78945_79392&lt;/b&gt;&lt;br&gt;hypothetical protein&lt;br&gt;Location: 78945 - 79392" points="220,40 222,40 227,35 222,30 220,30 220,40 "  />
<polygon id="dummy-1_q13_0_all" style="fill:#156cd8; stroke:black; stroke-width:1; " locus_tag="cds79428_79797" class="clusterblast-orf" description="&lt;b&gt;cds79428_79797&lt;/b&gt;&lt;br&gt;HNH nuclease&lt;br&gt;Location: 79428 - 79797" points="228,35 233,30 234,30 234,40 233,40 228,35 "  />
<polygon id="dummy-1_q14_0_all" style="fill:#d815c3; stroke:black; stroke-width:1; " locus_tag="cds79780_80710" class="clusterblast-orf" description="&lt;b&gt;cds79780_80710&lt;/b&gt;&lt;br&gt;hypothetical protein&lt;br&gt;Location: 79780 - 80710" points="233,35 238,30 249,30 249,40 238,40 233,35 "  />
<polygon id="dummy-1_q15_0_all" style="fill:white; stroke:black; stroke-width:1; " locus_tag="cds80819_81803" class="clusterblast-orf" description="&lt;b&gt;cds80819_81803&lt;/b&gt;&lt;br&gt;C4-dicarboxylate transporter/malic acid transport protein&lt;br&gt;Location: 80819 - 81803" points="251,40 262,40 267,35 262,30 251,30 251,40 "  />
<polygon id="dummy-1_q16_0_all" style="fill:white; stroke:black; stroke-width:1; " locus_tag="cds81843_83457" class="clusterblast-orf" description="&lt;b&gt;cds81843_83457&lt;/b&gt;&lt;br&gt;hypothetical protein&lt;br&gt;Location: 81843 - 83457" points="268,40 289,40 294,35 289,30 268,30 268,40 "  />
<polygon id="dummy-1_q17_0_all" style="fill:#d89715; stroke:black; stroke-width:1; " locus_tag="cds83502_84087" class="clusterblast-orf" description="&lt;b&gt;cds83502_84087&lt;/b&gt;&lt;br&gt;Transcriptional regulator, TetR family&lt;br&gt;Location: 83502 - 84087" points="295,40 300,40 305,35 300,30 295,30 295,40 "  />
<polygon id="dummy-1_q18_0_all" style="fill:#15d841; stroke:black; stroke-width:1; " locus_tag="cds84083_85223" class="clusterblast-orf" description="&lt;b&gt;cds84083_85223&lt;/b&gt;&lt;br&gt;hypothetical protein&lt;br&gt;Location: 84083 - 85223" points="305,40 319,40 324,35 319,30 305,30 305,40 "  />
<polygon id="dummy-1_q19_0_all" style="fill:white; stroke:black; stroke-width:1; " locus_tag="cds85276_85684" class="clusterblast-orf" description="&lt;b&gt;cds85276_85684&lt;/b&gt;&lt;br&gt;probable regulatory protein&lt;br&gt;Location: 85276 - 85684" points="324,35 329,30 331,30 331,40 329,40 324,35 "  />
<polygon id="dummy-1_q20_0_all" style="fill:white; stroke:black; stroke-width:1; " locus_tag="cds85821_86358" class="clusterblast-orf" description="&lt;b&gt;cds85821_86358&lt;/b&gt;&lt;br&gt;RsbT co-antagonist protein RsbRA&lt;br&gt;Location: 85821 - 86358" points="333,40 337,40 342,35 337,30 333,30 333,40 "  />
<polygon id="dummy-1_q21_0_all" style="fill:#1541d8; stroke:black; stroke-width:1; " locus_tag="cds86341_91786" class="clusterblast-orf" description="&lt;b&gt;cds86341_91786&lt;/b&gt;&lt;br&gt;Siderophore biosynthesis non-ribosomal peptide synthetase modules&lt;br&gt;Location: 86341 - 91786" points="342,40 427,40 432,35 427,30 342,30 342,40 "  />
<polygon id="dummy-1_q22_0_all" style="fill:#d81597; stroke:black; stroke-width:1; " locus_tag="cds91782_93015" class="clusterblast-orf" description="&lt;b&gt;cds91782_93015&lt;/b&gt;&lt;br&gt;hypothetical protein&lt;br&gt;Location: 91782 - 93015" points="432,40 448,40 453,35 448,30 432,30 432,40 "  />
<polygon id="dummy-1_q23_0_all" style="fill:#d8c315; stroke:black; stroke-width:1; " locus_tag="cds93046_93391" class="clusterblast-orf" description="&lt;b&gt;cds93046_93391&lt;/b&gt;&lt;br&gt;Histone protein Lsr2&lt;br&gt;Location: 93046 - 93391" points="453,35 458,30 459,30 459,40 458,40 453,35 "  />
<polygon id="dummy-1_q24_0_all" style="fill:white; stroke:black; stroke-width:1; " locus_tag="cds93667_94918" class="clusterblast-orf" description="&lt;b&gt;cds93667_94918&lt;/b&gt;&lt;br&gt;hypothetical protein&lt;br&gt;Location: 93667 - 94918" points="463,40 479,40 484,35 479,30 463,30 463,40 "  />
<polygon id="dummy-1_q25_0_all" style="fill:white; stroke:black; stroke-width:1; " locus_tag="cds95067_95499" class="clusterblast-orf" description="&lt;b&gt;cds95067_95499&lt;/b&gt;&lt;br&gt;hypothetical protein&lt;br&gt;Location: 95067 - 95499" points="487,35 492,30 494,30 494,40 492,40 487,35 "  />
<polygon id="dummy-1_q26_0_all" style="fill:white; stroke:black; stroke-width:1; " locus_tag="cds95736_95967" class="clusterblast-orf" description="&lt;b&gt;cds95736_95967&lt;/b&gt;&lt;br&gt;hypothetical protein&lt;br&gt;Location: 95736 - 95967" points="498,35 502,30 502,40 498,35 "  />
<polygon id="dummy-1_q27_0_all" style="fill:#15d86c; stroke:black; stroke-width:1; " locus_tag="cds96206_96410" class="clusterblast-orf" description="&lt;b&gt;cds96206_96410&lt;/b&gt;&lt;br&gt;Cold shock protein of CSP family&lt;br&gt;Location: 96206 - 96410" points="505,35 509,30 509,40 505,35 "  />
<polygon id="dummy-1_q28_0_all" style="fill:white; stroke:black; stroke-width:1; " locus_tag="cds96459_97317" class="clusterblast-orf" description="&lt;b&gt;cds96459_97317&lt;/b&gt;&lt;br&gt;hypothetical protein&lt;br&gt;Location: 96459 - 97317" points="510,35 515,30 524,30 524,40 515,40 510,35 "  />
<polygon id="dummy-1_q29_0_all" style="fill:white; stroke:black; stroke-width:1; " locus_tag="cds97634_97871" class="clusterblast-orf" description="&lt;b&gt;cds97634_97871&lt;/b&gt;&lt;br&gt;hypothetical protein&lt;br&gt;Location: 97634 - 97871" points="529,35 533,30 533,40 529,35 "  />
<polygon id="dummy-1_q30_0_all" style="fill:white; stroke:black; stroke-width:1; " locus_tag="cds97867_97996" class="clusterblast-orf" description="&lt;b&gt;cds97867_97996&lt;/b&gt;&lt;br&gt;hypothetical protein&lt;br&gt;Location: 97867 - 97996" points="533,35 535,30 535,40 533,35 "  />
<polygon id="dummy-1_q31_0_all" style="fill:#1515d8; stroke:black; stroke-width:1; " locus_tag="cds98032_98608" class="clusterblast-orf" description="&lt;b&gt;cds98032_98608&lt;/b&gt;&lt;br&gt;FIG01201438: hypothetical protein&lt;br&gt;Location: 98032 - 98608" points="536,40 540,40 545,35 540,30 536,30 536,40 "  />
<polygon id="dummy-1_q32_0_all" style="fill:white; stroke:black; stroke-width:1; " locus_tag="cds98710_99562" class="clusterblast-orf" description="&lt;b&gt;cds98710_99562&lt;/b&gt;&lt;br&gt;RsbT co-antagonist protein RsbRA&lt;br&gt;Location: 98710 - 99562" points="547,40 556,40 561,35 556,30 547,30 547,40 "  />
<polygon id="dummy-1_q33_0_all" style="fill:white; stroke:black; stroke-width:1; " locus_tag="cds99674_99839" class="clusterblast-orf" description="&lt;b&gt;cds99674_99839&lt;/b&gt;&lt;br&gt;hypothetical protein&lt;br&gt;Location: 99674 - 99839" points="563,40 566,35 563,30 563,40 "  />
<polygon id="dummy-1_q34_0_all" style="fill:white; stroke:black; stroke-width:1; " locus_tag="cds99975_100191" class="clusterblast-orf" description="&lt;b&gt;cds99975_100191&lt;/b&gt;&lt;br&gt;hypothetical protein&lt;br&gt;Location: 99975 - 100191" points="568,35 571,30 571,40 568,35 "  />
<polygon id="dummy-1_q35_0_all" style="fill:#d8156c; stroke:black; stroke-width:1; " locus_tag="cds100187_101228" class="clusterblast-orf" description="&lt;b&gt;cds100187_101228&lt;/b&gt;&lt;br&gt;Linoleoyl-CoA desaturase (EC 1.14.19.3)&lt;br&gt;Location: 100187 - 101228" points="571,35 576,30 589,30 589,40 576,40 571,35 "  />
<polygon id="dummy-1_q36_0_all" style="fill:#c3d815; stroke:black; stroke-width:1; " locus_tag="cds101228_102452" class="clusterblast-orf" description="&lt;b&gt;cds101228_102452&lt;/b&gt;&lt;br&gt;FIG01121868: Possible membrane protein, Rv0205&lt;br&gt;Location: 101228 - 102452" points="589,35 594,30 609,30 609,40 594,40 589,35 "  />
<polygon id="dummy-1_q37_0_all" style="fill:white; stroke:black; stroke-width:1; " locus_tag="cds102448_102607" class="clusterblast-orf" description="&lt;b&gt;cds102448_102607&lt;/b&gt;&lt;br&gt;hypothetical protein&lt;br&gt;Location: 102448 - 102607" points="609,35 612,30 612,40 609,35 "  />
<polygon id="dummy-1_q38_0_all" style="fill:#15d897; stroke:black; stroke-width:1; " locus_tag="cds102603_103233" class="clusterblast-orf" description="&lt;b&gt;cds102603_103233&lt;/b&gt;&lt;br&gt;hypothetical protein&lt;br&gt;Location: 102603 - 103233" points="611,35 616,30 622,30 622,40 616,40 611,35 "  />
<polygon id="dummy-1_q39_0_all" style="fill:white; stroke:black; stroke-width:1; " locus_tag="cds103352_103544" class="clusterblast-orf" description="&lt;b&gt;cds103352_103544&lt;/b&gt;&lt;br&gt;hypothetical protein&lt;br&gt;Location: 103352 - 103544" points="624,35 627,30 627,40 624,35 "  />
<polygon id="dummy-1_q40_0_all" style="fill:white; stroke:black; stroke-width:1; " locus_tag="cds103563_103689" class="clusterblast-orf" description="&lt;b&gt;cds103563_103689&lt;/b&gt;&lt;br&gt;hypothetical protein&lt;br&gt;Location: 103563 - 103689" points="627,35 629,30 629,40 627,35 "  />
<polygon id="dummy-1_q41_0_all" style="fill:#4115d8; stroke:black; stroke-width:1; " locus_tag="cds103819_104518" class="clusterblast-orf" description="&lt;b&gt;cds103819_104518&lt;/b&gt;&lt;br&gt;hypothetical protein&lt;br&gt;Location: 103819 - 104518" points="632,40 638,40 643,35 638,30 632,30 632,40 "  />
<polygon id="dummy-1_q42_0_all" style="fill:#d81541; stroke:black; stroke-width:1; " locus_tag="cds104514_104670" class="clusterblast-orf" description="&lt;b&gt;cds104514_104670&lt;/b&gt;&lt;br&gt;hypothetical protein&lt;br&gt;Location: 104514 - 104670" points="643,40 646,35 643,30 643,40 "  />
<polygon id="dummy-1_q43_0_all" style="fill:#97d815; stroke:black; stroke-width:1; " locus_tag="cds104666_105533" class="clusterblast-orf" description="&lt;b&gt;cds104666_105533&lt;/b&gt;&lt;br&gt;Transglutaminase-like domain&lt;br&gt;Location: 104666 - 105533" points="646,40 655,40 660,35 655,30 646,30 646,40 "  />
<polygon id="dummy-1_q44_0_all" style="fill:#15d8c3; stroke:black; stroke-width:1; " locus_tag="cds105905_106085" class="clusterblast-orf" description="&lt;b&gt;cds105905_106085&lt;/b&gt;&lt;br&gt;hypothetical protein&lt;br&gt;Location: 105905 - 106085" points="666,35 669,30 669,40 666,35 "  />
<polygon id="dummy-1_q45_0_all" style="fill:#6c15d8; stroke:black; stroke-width:1; " locus_tag="cds106410_107634" class="clusterblast-orf" description="&lt;b&gt;cds106410_107634&lt;/b&gt;&lt;br&gt;magnesium or manganese-dependent protein phosphatase&lt;br&gt;Location: 106410 - 107634" points="675,40 690,40 695,35 690,30 675,30 675,40 "  />
<polygon id="dummy-1_q46_0_all" style="fill:white; stroke:black; stroke-width:1; " locus_tag="cds107644_107857" class="clusterblast-orf" description="&lt;b&gt;cds107644_107857&lt;/b&gt;&lt;br&gt;hypothetical protein&lt;br&gt;Location: 107644 - 107857" points="695,40 699,35 695,30 695,40 "  />
<polygon id="dummy-1_q47_0_all" style="fill:white; stroke:black; stroke-width:1; " locus_tag="cds108018_108414" class="clusterblast-orf" description="&lt;b&gt;cds108018_108414&lt;/b&gt;&lt;br&gt;hypothetical protein&lt;br&gt;Location: 108018 - 108414" points="701,40 703,40 708,35 703,30 701,30 701,40 "  />
<polygon id="dummy-1_q48_0_all" style="fill:white; stroke:black; stroke-width:1; " locus_tag="cds108420_108777" class="clusterblast-orf" description="&lt;b&gt;cds108420_108777&lt;/b&gt;&lt;br&gt;hypothetical protein&lt;br&gt;Location: 108420 - 108777" points="708,40 709,40 714,35 709,30 708,30 708,40 "  />
<polygon id="dummy-1_q49_0_all" style="fill:white; stroke:black; stroke-width:1; " locus_tag="cds108824_109973" class="clusterblast-orf" description="&lt;b&gt;cds108824_109973&lt;/b&gt;&lt;br&gt;hypothetical protein&lt;br&gt;Location: 108824 - 109973" points="715,35 720,30 734,30 734,40 720,40 715,35 "  />
<polygon id="dummy-1_q50_0_all" style="fill:white; stroke:black; stroke-width:1; " locus_tag="cds109975_110455" class="clusterblast-orf" description="&lt;b&gt;cds109975_110455&lt;/b&gt;&lt;br&gt;TrkA, Potassium channel&lt;br&gt;Location: 109975 - 110455" points="734,35 739,30 742,30 742,40 739,40 734,35 "  />
<polygon id="dummy-1_q51_0_all" style="fill:white; stroke:black; stroke-width:1; " locus_tag="cds110555_111563" class="clusterblast-orf" description="&lt;b&gt;cds110555_111563&lt;/b&gt;&lt;br&gt;Dinucleotide-utilizing enzymes involved in molybdopterin and thiamine biosynthesis family 2&lt;br&gt;Location: 110555 - 111563" points="743,35 748,30 760,30 760,40 748,40 743,35 "  />
</g>
<g class="clusterblast-cluster" label="NZ_WPNZ01000002" description="NZ_WPNZ01000002 (300259-347340): Streptomyces sp. p1417 Scaffold2, whole geno... (13% of genes show similarity), NRPS"  >
<text x="5" class="clusterblast-acc" y="70"  >
<a xlink:href="https://antismash-db.secondarymetabolites.org/area.html?record=NZ_WPNZ01000002&amp;start=300259&amp;end=347340" target="_blank">NZ_WPNZ01000002 (300259-347340)</a>: Streptomyces sp. p1417 Scaffold2, whole geno... (13% of genes show similarity), NRPS</text>
<line y2="85" x2="778.0" x1="10" style="stroke-width:1; stroke:grey; " y1="85"  />
</g>
<g id="a1_000"  >
<polygon id="dummy-1_h1_7_0" style="fill:white; stroke:black; stroke-width:1; " locus_tag="GPA10_RS05565" class="clusterblast-orf" description="&lt;b&gt;GPA10_RS05565&lt;/b&gt;&lt;br&gt;peptidase M28&lt;br&gt;Location: 300260 - 302842" points="0,90 37,90 42,85 37,80 0,80 0,90 "  />
</g>
<g id="a1_001"  >
<polygon id="dummy-1_h1_7_1" style="fill:white; stroke:black; stroke-width:1; " locus_tag="GPA10_RS05570" class="clusterblast-orf" description="&lt;b&gt;GPA10_RS05570&lt;/b&gt;&lt;br&gt;methyltransferase domain-containing protein&lt;br&gt;Location: 302903 - 304060" points="43,85 48,80 62,80 62,90 48,90 43,85 "  />
</g>
<g id="a1_002"  >
<polygon id="dummy-1_h1_7_2" style="fill:white; stroke:black; stroke-width:1; " locus_tag="GPA10_RS05575" class="clusterblast-orf" description="&lt;b&gt;GPA10_RS05575&lt;/b&gt;&lt;br&gt;ATP-grasp ribosomal peptide maturase&lt;br&gt;Location: 304057 - 305004" points="62,85 67,80 78,80 78,90 67,90 62,85 "  />
</g>
<g id="a1_003"  >
<polygon id="dummy-1_h1_7_3" style="fill:white; stroke:black; stroke-width:1; " locus_tag="GPA10_RS05580" class="clusterblast-orf" description="&lt;b&gt;GPA10_RS05580&lt;/b&gt;&lt;br&gt;hypothetical protein&lt;br&gt;Location: 305006 - 305239" points="78,85 82,80 82,90 78,85 "  />
</g>
<g id="a1_004"  >
<polygon id="dummy-1_h1_7_4" style="fill:white; stroke:black; stroke-width:1; " locus_tag="GPA10_RS05585" class="clusterblast-orf" description="&lt;b&gt;GPA10_RS05585&lt;/b&gt;&lt;br&gt;NUDIX domain-containing protein&lt;br&gt;Location: 305290 - 305745" points="83,85 88,80 90,80 90,90 88,90 83,85 "  />
</g>
<g id="a1_005"  >
<polygon id="dummy-1_h1_7_5" style="fill:white; stroke:black; stroke-width:1; " locus_tag="GPA10_RS05590" class="clusterblast-orf" description="&lt;b&gt;GPA10_RS05590&lt;/b&gt;&lt;br&gt;hypothetical protein&lt;br&gt;Location: 305751 - 306299" points="90,85 95,80 100,80 100,90 95,90 90,85 "  />
</g>
<g id="a1_006"  >
<polygon id="dummy-1_h1_7_6" style="fill:white; stroke:black; stroke-width:1; " locus_tag="GPA10_RS05595" class="clusterblast-orf" description="&lt;b&gt;GPA10_RS05595&lt;/b&gt;&lt;br&gt;helix-turn-helix domain-containing protein&lt;br&gt;Location: 306406 - 307242" points="101,90 110,90 115,85 110,80 101,80 101,90 "  />
</g>
<g id="a1_007"  >
<polygon id="dummy-1_h1_7_7" style="fill:white; stroke:black; stroke-width:1; " locus_tag="GPA10_RS05600" class="clusterblast-orf" description="&lt;b&gt;GPA10_RS05600&lt;/b&gt;&lt;br&gt;DUF397 domain-containing protein&lt;br&gt;Location: 307239 - 307448" points="115,90 119,85 115,80 115,90 "  />
</g>
<g id="a1_008"  >
<polygon id="dummy-1_h1_7_8" style="fill:white; stroke:black; stroke-width:1; " locus_tag="GPA10_RS05605" class="clusterblast-orf" description="&lt;b&gt;GPA10_RS05605&lt;/b&gt;&lt;br&gt;Ohr family peroxiredoxin&lt;br&gt;Location: 307532 - 307960" points="120,85 125,80 127,80 127,90 125,90 120,85 "  />
</g>
<g id="a1_009"  >
<polygon id="dummy-1_h1_7_9" style="fill:white; stroke:black; stroke-width:1; " locus_tag="GPA10_RS05610" class="clusterblast-orf" description="&lt;b&gt;GPA10_RS05610&lt;/b&gt;&lt;br&gt;zinc-binding dehydrogenase&lt;br&gt;Location: 308083 - 309117" points="129,85 134,80 146,80 146,90 134,90 129,85 "  />
</g>
<g id="a1_0010"  >
<polygon id="dummy-1_h1_7_10" style="fill:white; stroke:black; stroke-width:1; " locus_tag="GPA10_RS05615" class="clusterblast-orf" description="&lt;b&gt;GPA10_RS05615&lt;/b&gt;&lt;br&gt;MarR family transcriptional regulator&lt;br&gt;Location: 309252 - 309725" points="148,90 151,90 156,85 151,80 148,80 148,90 "  />
</g>
<g id="a1_0011"  >
<polygon id="dummy-1_h1_7_11" style="fill:white; stroke:black; stroke-width:1; " locus_tag="GPA10_RS05620" class="clusterblast-orf" description="&lt;b&gt;GPA10_RS05620&lt;/b&gt;&lt;br&gt;hypothetical protein&lt;br&gt;Location: 309986 - 310765" points="161,85 166,80 174,80 174,90 166,90 161,85 "  />
</g>
<g id="a1_0012"  >
<polygon id="dummy-1_h1_7_12" style="fill:white; stroke:black; stroke-width:1; " locus_tag="GPA10_RS05625" class="clusterblast-orf" description="&lt;b&gt;GPA10_RS05625&lt;/b&gt;&lt;br&gt;PucR family transcriptional regulator&lt;br&gt;Location: 310862 - 312082" points="175,85 180,80 195,80 195,90 180,90 175,85 "  />
</g>
<g id="a1_0013"  >
<polygon id="dummy-1_h1_7_13" style="fill:white; stroke:black; stroke-width:1; " locus_tag="GPA10_RS05630" class="clusterblast-orf" description="&lt;b&gt;GPA10_RS05630&lt;/b&gt;&lt;br&gt;DUF3068 domain-containing protein&lt;br&gt;Location: 312669 - 313697" points="205,90 217,90 222,85 217,80 205,80 205,90 "  />
</g>
<g id="a1_0014"  >
<polygon id="dummy-1_h1_7_14" style="fill:white; stroke:black; stroke-width:1; " locus_tag="GPA10_RS05635" class="clusterblast-orf" description="&lt;b&gt;GPA10_RS05635&lt;/b&gt;&lt;br&gt;glycosyltransferase&lt;br&gt;Location: 313892 - 315082" points="225,90 240,90 245,85 240,80 225,80 225,90 "  />
</g>
<g id="a1_0015"  >
<polygon id="dummy-1_h1_7_15" style="fill:white; stroke:black; stroke-width:1; " locus_tag="GPA10_RS05640" class="clusterblast-orf" description="&lt;b&gt;GPA10_RS05640&lt;/b&gt;&lt;br&gt;methyltransferase domain-containing protein&lt;br&gt;Location: 315094 - 315798" points="245,90 252,90 257,85 252,80 245,80 245,90 "  />
</g>
<g id="a1_0016"  >
<polygon id="dummy-1_h1_7_16" style="fill:white; stroke:black; stroke-width:1; " locus_tag="GPA10_RS05645" class="clusterblast-orf" description="&lt;b&gt;GPA10_RS05645&lt;/b&gt;&lt;br&gt;DUF3367 domain-containing protein&lt;br&gt;Location: 315795 - 320243" points="257,90 326,90 331,85 326,80 257,80 257,90 "  />
</g>
<g id="a1_0017"  >
<polygon id="dummy-1_h1_7_17" style="fill:white; stroke:black; stroke-width:1; " locus_tag="GPA10_RS05650" class="clusterblast-orf" description="&lt;b&gt;GPA10_RS05650&lt;/b&gt;&lt;br&gt;condensation protein&lt;br&gt;Location: 320240 - 321640" points="331,90 349,90 354,85 349,80 331,80 331,90 "  />
</g>
<g id="a1_0018"  >
<polygon id="dummy-1_h1_7_18" style="fill:white; stroke:black; stroke-width:1; " locus_tag="GPA10_RS05655" class="clusterblast-orf" description="&lt;b&gt;GPA10_RS05655&lt;/b&gt;&lt;br&gt;methyltransferase domain-containing protein&lt;br&gt;Location: 321715 - 322419" points="355,90 362,90 367,85 362,80 355,80 355,90 "  />
</g>
<g id="a1_0019"  >
<polygon id="dummy-1_h1_7_19" style="fill:white; stroke:black; stroke-width:1; " locus_tag="GPA10_RS05660" class="clusterblast-orf" description="&lt;b&gt;GPA10_RS05660&lt;/b&gt;&lt;br&gt;hypothetical protein&lt;br&gt;Location: 322446 - 323354" points="367,90 377,90 382,85 377,80 367,80 367,90 "  />
</g>
<g id="a1_0020"  >
<polygon id="dummy-1_h1_7_20" style="fill:white; stroke:black; stroke-width:1; " locus_tag="GPA10_RS05665" class="clusterblast-orf" description="&lt;b&gt;GPA10_RS05665&lt;/b&gt;&lt;br&gt;hypothetical protein&lt;br&gt;Location: 323354 - 323593" points="382,90 386,85 382,80 382,90 "  />
</g>
<g id="a1_0021"  >
<polygon id="dummy-1_h1_7_21" style="fill:white; stroke:black; stroke-width:1; " locus_tag="GPA10_RS05670" class="clusterblast-orf" description="&lt;b&gt;GPA10_RS05670&lt;/b&gt;&lt;br&gt;FkbM family methyltransferase&lt;br&gt;Location: 323638 - 324414" points="387,90 395,90 400,85 395,80 387,80 387,90 "  />
</g>
<g id="a1_0022"  >
<polygon id="dummy-1_h1_7_22" style="fill:white; stroke:black; stroke-width:1; " locus_tag="GPA10_RS05675" class="clusterblast-orf" description="&lt;b&gt;GPA10_RS05675&lt;/b&gt;&lt;br&gt;hypothetical protein&lt;br&gt;Location: 324534 - 325148" points="402,90 407,90 412,85 407,80 402,80 402,90 "  />
</g>
<g id="a1_0023"  >
<polygon id="dummy-1_h1_7_23" style="fill:white; stroke:black; stroke-width:1; " locus_tag="GPA10_RS05680" class="clusterblast-orf" description="&lt;b&gt;GPA10_RS05680&lt;/b&gt;&lt;br&gt;ATP-binding protein&lt;br&gt;Location: 325218 - 325616" points="413,85 418,80 420,80 420,90 418,90 413,85 "  />
</g>
<g id="a1_0024"  >
<polygon id="dummy-1_h1_7_24" style="fill:white; stroke:black; stroke-width:1; " locus_tag="GPA10_RS05685" class="clusterblast-orf" description="&lt;b&gt;GPA10_RS05685&lt;/b&gt;&lt;br&gt;GntR family transcriptional regulator&lt;br&gt;Location: 325772 - 326491" points="422,85 427,80 434,80 434,90 427,90 422,85 "  />
</g>
<g id="a1_0025"  >
<polygon id="dummy-1_h1_7_25" style="fill:white; stroke:black; stroke-width:1; " locus_tag="GPA10_RS05690" class="clusterblast-orf" description="&lt;b&gt;GPA10_RS05690&lt;/b&gt;&lt;br&gt;DUF1152 domain-containing protein&lt;br&gt;Location: 326460 - 327701" points="434,90 449,90 454,85 449,80 434,80 434,90 "  />
</g>
<g id="a1_0026"  >
<polygon id="dummy-1_h1_7_26" style="fill:white; stroke:black; stroke-width:1; " locus_tag="GPA10_RS05695" class="clusterblast-orf" description="&lt;b&gt;GPA10_RS05695&lt;/b&gt;&lt;br&gt;hypothetical protein&lt;br&gt;Location: 327828 - 327971" points="456,90 459,85 456,80 456,90 "  />
</g>
<g id="a1_0027"  >
<polygon id="dummy-1_h1_7_27" style="fill:white; stroke:black; stroke-width:1; " locus_tag="GPA10_RS05700" class="clusterblast-orf" description="&lt;b&gt;GPA10_RS05700&lt;/b&gt;&lt;br&gt;AMP-binding protein&lt;br&gt;Location: 328044 - 329630" points="460,85 465,80 486,80 486,90 465,90 460,85 "  />
</g>
<g id="a1_0028"  >
<polygon id="dummy-1_h1_7_28" style="fill:white; stroke:black; stroke-width:1; " locus_tag="GPA10_RS05705" class="clusterblast-orf" description="&lt;b&gt;GPA10_RS05705&lt;/b&gt;&lt;br&gt;hypothetical protein&lt;br&gt;Location: 330074 - 330469" points="493,90 495,90 500,85 495,80 493,80 493,90 "  />
</g>
<g id="a1_0029"  >
<polygon id="dummy-1_h1_7_29" style="fill:white; stroke:black; stroke-width:1; " locus_tag="GPA10_RS05710" class="clusterblast-orf" description="&lt;b&gt;GPA10_RS05710&lt;/b&gt;&lt;br&gt;hypothetical protein&lt;br&gt;Location: 330513 - 331067" points="501,90 505,90 510,85 505,80 501,80 501,90 "  />
</g>
<g id="a1_0030"  >
<polygon id="dummy-1_h1_7_30" style="fill:white; stroke:black; stroke-width:1; " locus_tag="GPA10_RS05715" class="clusterblast-orf" description="&lt;b&gt;GPA10_RS05715&lt;/b&gt;&lt;br&gt;MFS transporter&lt;br&gt;Location: 331107 - 332552" points="511,85 516,80 534,80 534,90 516,90 511,85 "  />
</g>
<g id="a1_0031"  >
<polygon id="dummy-1_h1_7_31" style="fill:white; stroke:black; stroke-width:1; " locus_tag="GPA10_RS05720" class="clusterblast-orf" description="&lt;b&gt;GPA10_RS05720&lt;/b&gt;&lt;br&gt;rod shape-determining protein&lt;br&gt;Location: 332672 - 333709" points="536,90 549,90 554,85 549,80 536,80 536,90 "  />
</g>
<g id="a1_0032"  >
<polygon id="dummy-1_h1_7_32" style="fill:white; stroke:black; stroke-width:1; " locus_tag="GPA10_RS05725" class="clusterblast-orf" description="&lt;b&gt;GPA10_RS05725&lt;/b&gt;&lt;br&gt;GAF domain-containing protein&lt;br&gt;Location: 334245 - 335753" points="563,90 583,90 588,85 583,80 563,80 563,90 "  />
</g>
<g id="a1_0033"  >
<polygon id="dummy-1_h1_7_33" style="fill:white; stroke:black; stroke-width:1; " locus_tag="GPA10_RS05730" class="clusterblast-orf" description="&lt;b&gt;GPA10_RS05730&lt;/b&gt;&lt;br&gt;hypothetical protein&lt;br&gt;Location: 335877 - 336539" points="590,85 595,80 601,80 601,90 595,90 590,85 "  />
</g>
<g id="a1_0034"  >
<polygon id="dummy-1_h1_7_34" style="fill:#d81515; stroke:black; stroke-width:1; " locus_tag="GPA10_RS05735" class="clusterblast-orf" description="&lt;b&gt;GPA10_RS05735&lt;/b&gt;&lt;br&gt;MFS transporter&lt;br&gt;Location: 336658 - 337956&lt;br&gt;&lt;br&gt;&lt;b&gt;BlastP hit with cds66868_68077&lt;/b&gt;&lt;br&gt;Percentage identity: 60&lt;br&gt;Percentage coverage: 103&lt;br&gt;BLAST bit score: 413&lt;br&gt;E-value: 2.4e-113" points="603,85 608,80 624,80 624,90 608,90 603,85 "  />
</g>
<g id="a1_0035"  >
<polygon id="dummy-1_h1_7_35" style="fill:#6cd815; stroke:black; stroke-width:1; " locus_tag="GPA10_RS05740" class="clusterblast-orf" description="&lt;b&gt;GPA10_RS05740&lt;/b&gt;&lt;br&gt;ABC transporter substrate-binding protein&lt;br&gt;Location: 338278 - 339333&lt;br&gt;&lt;br&gt;&lt;b&gt;BlastP hit with cds68162_69143&lt;/b&gt;&lt;br&gt;Percentage identity: 51&lt;br&gt;Percentage coverage: 106&lt;br&gt;BLAST bit score: 328&lt;br&gt;E-value: 8.2e-88" points="629,90 642,90 647,85 642,80 629,80 629,90 "  />
</g>
<g id="a1_0036"  >
<polygon id="dummy-1_h1_7_36" style="fill:#15c3d8; stroke:black; stroke-width:1; " locus_tag="GPA10_RS05745" class="clusterblast-orf" description="&lt;b&gt;GPA10_RS05745&lt;/b&gt;&lt;br&gt;iron chelate uptake ABC transporter family permease subunit&lt;br&gt;Location: 339377 - 340507&lt;br&gt;&lt;br&gt;&lt;b&gt;BlastP hit with cds69135_70203&lt;/b&gt;&lt;br&gt;Percentage identity: 71&lt;br&gt;Percentage coverage: 88&lt;br&gt;BLAST bit score: 399&lt;br&gt;E-value: 2.4e-109" points="648,90 661,90 666,85 661,80 648,80 648,90 "  />
</g>
<g id="a1_0037"  >
<polygon id="dummy-1_h1_7_37" style="fill:#9715d8; stroke:black; stroke-width:1; " locus_tag="GPA10_RS05750" class="clusterblast-orf" description="&lt;b&gt;GPA10_RS05750&lt;/b&gt;&lt;br&gt;ATP-binding cassette domain-containing protein&lt;br&gt;Location: 340525 - 341292&lt;br&gt;&lt;br&gt;&lt;b&gt;BlastP hit with cds70199_70970&lt;/b&gt;&lt;br&gt;Percentage identity: 68&lt;br&gt;Percentage coverage: 95&lt;br&gt;BLAST bit score: 331&lt;br&gt;E-value: 9.9e-89" points="667,90 674,90 679,85 674,80 667,80 667,90 "  />
</g>
<g id="a1_0038"  >
<polygon id="dummy-1_h1_7_38" style="fill:#d84115; stroke:black; stroke-width:1; " locus_tag="GPA10_RS05755" class="clusterblast-orf" description="&lt;b&gt;GPA10_RS05755&lt;/b&gt;&lt;br&gt;hypothetical protein&lt;br&gt;Location: 341657 - 342481&lt;br&gt;&lt;br&gt;&lt;b&gt;BlastP hit with cds71018_71819&lt;/b&gt;&lt;br&gt;Percentage identity: 70&lt;br&gt;Percentage coverage: 100&lt;br&gt;BLAST bit score: 368&lt;br&gt;E-value: 5.8e-100" points="685,90 694,90 699,85 694,80 685,80 685,90 "  />
</g>
<g id="a1_0039"  >
<polygon id="dummy-1_h1_7_39" style="fill:white; stroke:black; stroke-width:1; " locus_tag="GPA10_RS05760" class="clusterblast-orf" description="&lt;b&gt;GPA10_RS05760&lt;/b&gt;&lt;br&gt;GHMP kinase&lt;br&gt;Location: 342517 - 343614" points="700,90 713,90 718,85 713,80 700,80 700,90 "  />
</g>
<g id="a1_0040"  >
<polygon id="dummy-1_h1_7_40" style="fill:#41d815; stroke:black; stroke-width:1; " locus_tag="GPA10_RS05765" class="clusterblast-orf" description="&lt;b&gt;GPA10_RS05765&lt;/b&gt;&lt;br&gt;pyridoxal-phosphate dependent enzyme&lt;br&gt;Location: 343514 - 344623&lt;br&gt;&lt;br&gt;&lt;b&gt;BlastP hit with cds71815_72862&lt;/b&gt;&lt;br&gt;Percentage identity: 66&lt;br&gt;Percentage coverage: 97&lt;br&gt;BLAST bit score: 442&lt;br&gt;E-value: 3.2e-122" points="716,90 729,90 734,85 729,80 716,80 716,90 "  />
</g>
<g id="a1_0041"  >
<polygon id="dummy-1_h1_7_41" style="fill:white; stroke:black; stroke-width:1; " locus_tag="GPA10_RS05770" class="clusterblast-orf" description="&lt;b&gt;GPA10_RS05770&lt;/b&gt;&lt;br&gt;hypothetical protein&lt;br&gt;Location: 345169 - 346011" points="744,90 752,90 757,85 752,80 744,80 744,90 "  />
</g>
<g id="a1_0042"  >
<polygon id="dummy-1_h1_7_42" style="fill:white; stroke:black; stroke-width:1; " locus_tag="GPA10_RS05775" class="clusterblast-orf" description="&lt;b&gt;GPA10_RS05775&lt;/b&gt;&lt;br&gt;hypothetical protein&lt;br&gt;Location: 346169 - 346726" points="760,90 764,90 769,85 764,80 760,80 760,90 "  />
</g>
<g id="a1_0043"  >
<polygon id="dummy-1_h1_7_43" style="fill:white; stroke:black; stroke-width:1; " locus_tag="GPA10_RS05780" class="clusterblast-orf" description="&lt;b&gt;GPA10_RS05780&lt;/b&gt;&lt;br&gt;hypothetical protein&lt;br&gt;Location: 346822 - 347340" points="771,85 776,80 780,80 780,90 776,90 771,85 "  />
</g>
</svg>
