<svg xmlns:xlink="http://www.w3.org/1999/xlink" x="0" xmlns="http://www.w3.org/2000/svg" version="1.1" preserveAspectRatio="none" viewBox="0 0 800 230" y="0" height="230" width="800"  >
<g class="clusterblast-cluster" label="Query sequence"  >
<text x="5" class="clusterblast-acc" y="20"  >
Query sequence</text>
<line y2="35" x2="778.0" x1="10" style="stroke-width:1; stroke:grey; " y1="35"  />
<polygon id="dummy-2_q0_0_all" style="fill:white; stroke:black; stroke-width:1; " locus_tag="cds146421_146604" class="clusterblast-orf" description="&lt;b&gt;cds146421_146604&lt;/b&gt;&lt;br&gt;hypothetical protein&lt;br&gt;Location: 146421 - 146604" points="0,35 1,30 1,40 0,35 "  />
<polygon id="dummy-2_q1_0_all" style="fill:white; stroke:black; stroke-width:1; " locus_tag="cds146709_147366" class="clusterblast-orf" description="&lt;b&gt;cds146709_147366&lt;/b&gt;&lt;br&gt;Two-component transcriptional response regulator, LuxR family&lt;br&gt;Location: 146709 - 147366" points="2,35 7,30 7,30 7,40 7,40 2,35 "  />
<polygon id="dummy-2_q2_0_all" style="fill:white; stroke:black; stroke-width:1; " locus_tag="cds147353_148556" class="clusterblast-orf" description="&lt;b&gt;cds147353_148556&lt;/b&gt;&lt;br&gt;Two-component system sensor histidine kinase&lt;br&gt;Location: 147353 - 148556" points="7,35 12,30 16,30 16,40 12,40 7,35 "  />
<polygon id="dummy-2_q3_0_all" style="fill:white; stroke:black; stroke-width:1; " locus_tag="cds148868_149429" class="clusterblast-orf" description="&lt;b&gt;cds148868_149429&lt;/b&gt;&lt;br&gt;hypothetical protein&lt;br&gt;Location: 148868 - 149429" points="18,35 22,30 22,40 18,35 "  />
<polygon id="dummy-2_q4_0_all" style="fill:white; stroke:black; stroke-width:1; " locus_tag="cds149584_150532" class="clusterblast-orf" description="&lt;b&gt;cds149584_150532&lt;/b&gt;&lt;br&gt;hypothetical protein&lt;br&gt;Location: 149584 - 150532" points="23,35 28,30 30,30 30,40 28,40 23,35 "  />
<polygon id="dummy-2_q5_0_all" style="fill:white; stroke:black; stroke-width:1; " locus_tag="cds150550_151642" class="clusterblast-orf" description="&lt;b&gt;cds150550_151642&lt;/b&gt;&lt;br&gt;Transcriptional regulator, AraC family&lt;br&gt;Location: 150550 - 151642" points="31,40 34,40 39,35 34,30 31,30 31,40 "  />
<polygon id="dummy-2_q6_0_all" style="fill:white; stroke:black; stroke-width:1; " locus_tag="cds151717_152020" class="clusterblast-orf" description="&lt;b&gt;cds151717_152020&lt;/b&gt;&lt;br&gt;hypothetical protein&lt;br&gt;Location: 151717 - 152020" points="39,35 42,30 42,40 39,35 "  />
<polygon id="dummy-2_q7_0_all" style="fill:white; stroke:black; stroke-width:1; " locus_tag="cds152162_152537" class="clusterblast-orf" description="&lt;b&gt;cds152162_152537&lt;/b&gt;&lt;br&gt;hypothetical protein&lt;br&gt;Location: 152162 - 152537" points="43,35 46,30 46,40 43,35 "  />
<polygon id="dummy-2_q8_0_all" style="fill:white; stroke:black; stroke-width:1; " locus_tag="cds152918_154055" class="clusterblast-orf" description="&lt;b&gt;cds152918_154055&lt;/b&gt;&lt;br&gt;Beta-lactamase class C-like and penicillin binding proteins (PBPs) superfamily&lt;br&gt;Location: 152918 - 154055" points="48,40 52,40 57,35 52,30 48,30 48,40 "  />
<polygon id="dummy-2_q9_0_all" style="fill:white; stroke:black; stroke-width:1; " locus_tag="cds154366_155536" class="clusterblast-orf" description="&lt;b&gt;cds154366_155536&lt;/b&gt;&lt;br&gt;hypothetical protein&lt;br&gt;Location: 154366 - 155536" points="59,40 63,40 68,35 63,30 59,30 59,40 "  />
<polygon id="dummy-2_q10_0_all" style="fill:white; stroke:black; stroke-width:1; " locus_tag="cds156018_156147" class="clusterblast-orf" description="&lt;b&gt;cds156018_156147&lt;/b&gt;&lt;br&gt;hypothetical protein&lt;br&gt;Location: 156018 - 156147" points="72,40 73,35 72,30 72,40 "  />
<polygon id="dummy-2_q11_0_all" style="fill:white; stroke:black; stroke-width:1; " locus_tag="cds156193_156343" class="clusterblast-orf" description="&lt;b&gt;cds156193_156343&lt;/b&gt;&lt;br&gt;hypothetical protein&lt;br&gt;Location: 156193 - 156343" points="73,40 74,35 73,30 73,40 "  />
<polygon id="dummy-2_q12_0_all" style="fill:white; stroke:black; stroke-width:1; " locus_tag="cds156348_157137" class="clusterblast-orf" description="&lt;b&gt;cds156348_157137&lt;/b&gt;&lt;br&gt;SAM-dependent methyltransferase&lt;br&gt;Location: 156348 - 157137" points="74,35 79,30 80,30 80,40 79,40 74,35 "  />
<polygon id="dummy-2_q13_0_all" style="fill:white; stroke:black; stroke-width:1; " locus_tag="cds157192_157579" class="clusterblast-orf" description="&lt;b&gt;cds157192_157579&lt;/b&gt;&lt;br&gt;Anthranilate synthase, aminase component (EC 4.1.3.27)&lt;br&gt;Location: 157192 - 157579" points="81,35 83,30 83,40 81,35 "  />
<polygon id="dummy-2_q14_0_all" style="fill:white; stroke:black; stroke-width:1; " locus_tag="cds157789_157924" class="clusterblast-orf" description="&lt;b&gt;cds157789_157924&lt;/b&gt;&lt;br&gt;hypothetical protein&lt;br&gt;Location: 157789 - 157924" points="85,40 86,35 85,30 85,40 "  />
<polygon id="dummy-2_q15_0_all" style="fill:white; stroke:black; stroke-width:1; " locus_tag="cds158292_158472" class="clusterblast-orf" description="&lt;b&gt;cds158292_158472&lt;/b&gt;&lt;br&gt;hypothetical protein&lt;br&gt;Location: 158292 - 158472" points="89,35 90,30 90,40 89,35 "  />
<polygon id="dummy-2_q16_0_all" style="fill:white; stroke:black; stroke-width:1; " locus_tag="cds158498_159578" class="clusterblast-orf" description="&lt;b&gt;cds158498_159578&lt;/b&gt;&lt;br&gt;hypothetical protein&lt;br&gt;Location: 158498 - 159578" points="90,40 93,40 98,35 93,30 90,30 90,40 "  />
<polygon id="dummy-2_q17_0_all" style="fill:white; stroke:black; stroke-width:1; " locus_tag="cds159631_159760" class="clusterblast-orf" description="&lt;b&gt;cds159631_159760&lt;/b&gt;&lt;br&gt;hypothetical protein&lt;br&gt;Location: 159631 - 159760" points="99,40 100,35 99,30 99,40 "  />
<polygon id="dummy-2_q18_0_all" style="fill:white; stroke:black; stroke-width:1; " locus_tag="cds159756_161232" class="clusterblast-orf" description="&lt;b&gt;cds159756_161232&lt;/b&gt;&lt;br&gt;Aldehyde dehydrogenase (EC 1.2.1.3)&lt;br&gt;Location: 159756 - 161232" points="100,40 106,40 111,35 106,30 100,30 100,40 "  />
<polygon id="dummy-2_q19_0_all" style="fill:white; stroke:black; stroke-width:1; " locus_tag="cds161279_161492" class="clusterblast-orf" description="&lt;b&gt;cds161279_161492&lt;/b&gt;&lt;br&gt;hypothetical protein&lt;br&gt;Location: 161279 - 161492" points="111,40 113,35 111,30 111,40 "  />
<polygon id="dummy-2_q20_0_all" style="fill:white; stroke:black; stroke-width:1; " locus_tag="cds161565_161826" class="clusterblast-orf" description="&lt;b&gt;cds161565_161826&lt;/b&gt;&lt;br&gt;hypothetical protein&lt;br&gt;Location: 161565 - 161826" points="113,40 115,35 113,30 113,40 "  />
<polygon id="dummy-2_q21_0_all" style="fill:white; stroke:black; stroke-width:1; " locus_tag="cds162050_163673" class="clusterblast-orf" description="&lt;b&gt;cds162050_163673&lt;/b&gt;&lt;br&gt;hypothetical protein&lt;br&gt;Location: 162050 - 163673" points="117,40 124,40 129,35 124,30 117,30 117,40 "  />
<polygon id="dummy-2_q22_0_all" style="fill:white; stroke:black; stroke-width:1; " locus_tag="cds163677_164904" class="clusterblast-orf" description="&lt;b&gt;cds163677_164904&lt;/b&gt;&lt;br&gt;Putative cytochrome P450 hydroxylase&lt;br&gt;Location: 163677 - 164904" points="129,40 133,40 138,35 133,30 129,30 129,40 "  />
<polygon id="dummy-2_q23_0_all" style="fill:white; stroke:black; stroke-width:1; " locus_tag="cds164900_165905" class="clusterblast-orf" description="&lt;b&gt;cds164900_165905&lt;/b&gt;&lt;br&gt;hypothetical protein&lt;br&gt;Location: 164900 - 165905" points="138,40 141,40 146,35 141,30 138,30 138,40 "  />
<polygon id="dummy-2_q24_0_all" style="fill:white; stroke:black; stroke-width:1; " locus_tag="cds166109_166397" class="clusterblast-orf" description="&lt;b&gt;cds166109_166397&lt;/b&gt;&lt;br&gt;hypothetical protein&lt;br&gt;Location: 166109 - 166397" points="148,40 150,35 148,30 148,40 "  />
<polygon id="dummy-2_q25_0_all" style="fill:white; stroke:black; stroke-width:1; " locus_tag="cds166393_166951" class="clusterblast-orf" description="&lt;b&gt;cds166393_166951&lt;/b&gt;&lt;br&gt;hypothetical protein&lt;br&gt;Location: 166393 - 166951" points="150,40 154,35 150,30 150,40 "  />
<polygon id="dummy-2_q26_0_all" style="fill:white; stroke:black; stroke-width:1; " locus_tag="cds166985_169184" class="clusterblast-orf" description="&lt;b&gt;cds166985_169184&lt;/b&gt;&lt;br&gt;hypothetical protein&lt;br&gt;Location: 166985 - 169184" points="154,40 166,40 171,35 166,30 154,30 154,40 "  />
<polygon id="dummy-2_q27_0_all" style="fill:white; stroke:black; stroke-width:1; " locus_tag="cds169249_169711" class="clusterblast-orf" description="&lt;b&gt;cds169249_169711&lt;/b&gt;&lt;br&gt;AclJ&lt;br&gt;Location: 169249 - 169711" points="171,35 175,30 175,40 171,35 "  />
<polygon id="dummy-2_q28_0_all" style="fill:#d81515; stroke:black; stroke-width:1; " locus_tag="cds169757_170759" class="clusterblast-orf" description="&lt;b&gt;cds169757_170759&lt;/b&gt;&lt;br&gt;Zinc-type alcohol dehydrogenase-like protein&lt;br&gt;Location: 169757 - 170759" points="175,35 180,30 182,30 182,40 180,40 175,35 "  />
<polygon id="dummy-2_q29_0_all" style="fill:#77d815; stroke:black; stroke-width:1; " locus_tag="cds170763_171360" class="clusterblast-orf" description="&lt;b&gt;cds170763_171360&lt;/b&gt;&lt;br&gt;hypothetical protein&lt;br&gt;Location: 170763 - 171360" points="182,35 187,30 187,30 187,40 187,40 182,35 "  />
<polygon id="dummy-2_q30_0_all" style="fill:white; stroke:black; stroke-width:1; " locus_tag="cds171421_172120" class="clusterblast-orf" description="&lt;b&gt;cds171421_172120&lt;/b&gt;&lt;br&gt;Transcriptional regulator, AcrR family&lt;br&gt;Location: 171421 - 172120" points="187,40 188,40 193,35 188,30 187,30 187,40 "  />
<polygon id="dummy-2_q31_0_all" style="fill:white; stroke:black; stroke-width:1; " locus_tag="cds172160_172379" class="clusterblast-orf" description="&lt;b&gt;cds172160_172379&lt;/b&gt;&lt;br&gt;hypothetical protein&lt;br&gt;Location: 172160 - 172379" points="193,35 195,30 195,40 193,35 "  />
<polygon id="dummy-2_q32_0_all" style="fill:white; stroke:black; stroke-width:1; " locus_tag="cds172559_175343" class="clusterblast-orf" description="&lt;b&gt;cds172559_175343&lt;/b&gt;&lt;br&gt;Phosphoribosylformylglycinamidine synthase, synthetase subunit (EC 6.3.5.3)&lt;br&gt;Location: 172559 - 175343" points="196,40 212,40 217,35 212,30 196,30 196,40 "  />
<polygon id="dummy-2_q33_0_all" style="fill:white; stroke:black; stroke-width:1; " locus_tag="cds175339_176008" class="clusterblast-orf" description="&lt;b&gt;cds175339_176008&lt;/b&gt;&lt;br&gt;Phosphoribosylformylglycinamidine synthase, glutamine amidotransferase subunit (EC 6.3.5.3)&lt;br&gt;Location: 175339 - 176008" points="217,40 217,40 222,35 217,30 217,30 217,40 "  />
<polygon id="dummy-2_q34_0_all" style="fill:white; stroke:black; stroke-width:1; " locus_tag="cds176083_177190" class="clusterblast-orf" description="&lt;b&gt;cds176083_177190&lt;/b&gt;&lt;br&gt;hypothetical protein&lt;br&gt;Location: 176083 - 177190" points="222,40 226,40 231,35 226,30 222,30 222,40 "  />
<polygon id="dummy-2_q35_0_all" style="fill:#15d8d8; stroke:black; stroke-width:1; " locus_tag="cds178265_180722" class="clusterblast-orf" description="&lt;b&gt;cds178265_180722&lt;/b&gt;&lt;br&gt;Putative sensor and ATPase, component of G-protein-coupled receptor (GPCR) system&lt;br&gt;Location: 178265 - 180722" points="239,40 252,40 257,35 252,30 239,30 239,40 "  />
<polygon id="dummy-2_q36_0_all" style="fill:#7715d8; stroke:black; stroke-width:1; " locus_tag="cds180747_181185" class="clusterblast-orf" description="&lt;b&gt;cds180747_181185&lt;/b&gt;&lt;br&gt;Roadblock/LC7 protein, putative GTPase-activating (GAP) component of G-protein-coupled receptor (GPCR) system&lt;br&gt;Location: 180747 - 181185" points="258,40 261,35 258,30 258,40 "  />
<polygon id="dummy-2_q37_0_all" style="fill:#d82e15; stroke:black; stroke-width:1; " locus_tag="cds181181_181562" class="clusterblast-orf" description="&lt;b&gt;cds181181_181562&lt;/b&gt;&lt;br&gt;hypothetical protein&lt;br&gt;Location: 181181 - 181562" points="261,40 264,35 261,30 261,40 "  />
<polygon id="dummy-2_q38_0_all" style="fill:#5ed815; stroke:black; stroke-width:1; " locus_tag="cds181542_182136" class="clusterblast-orf" description="&lt;b&gt;cds181542_182136&lt;/b&gt;&lt;br&gt;Small Ras-like GTPase, component of G-protein-coupled receptor (GPCR) system&lt;br&gt;Location: 181542 - 182136" points="263,40 263,40 268,35 263,30 263,30 263,40 "  />
<polygon id="dummy-2_q39_0_all" style="fill:#15c0d8; stroke:black; stroke-width:1; " locus_tag="cds182194_183556" class="clusterblast-orf" description="&lt;b&gt;cds182194_183556&lt;/b&gt;&lt;br&gt;Tryptophanase (EC 4.1.99.1)&lt;br&gt;Location: 182194 - 183556" points="268,35 273,30 279,30 279,40 273,40 268,35 "  />
<polygon id="dummy-2_q40_0_all" style="fill:#8f15d8; stroke:black; stroke-width:1; " locus_tag="cds183567_184662" class="clusterblast-orf" description="&lt;b&gt;cds183567_184662&lt;/b&gt;&lt;br&gt;Indole prenyltransferase (EC 2.5.1.-)&lt;br&gt;Location: 183567 - 184662" points="279,35 284,30 287,30 287,40 284,40 279,35 "  />
<polygon id="dummy-2_q41_0_all" style="fill:#d84615; stroke:black; stroke-width:1; " locus_tag="cds185036_185993" class="clusterblast-orf" description="&lt;b&gt;cds185036_185993&lt;/b&gt;&lt;br&gt;putative secreted protein&lt;br&gt;Location: 185036 - 185993" points="290,35 295,30 297,30 297,40 295,40 290,35 "  />
<polygon id="dummy-2_q42_0_all" style="fill:#46d815; stroke:black; stroke-width:1; " locus_tag="cds185968_187303" class="clusterblast-orf" description="&lt;b&gt;cds185968_187303&lt;/b&gt;&lt;br&gt;hypothetical protein&lt;br&gt;Location: 185968 - 187303" points="297,35 302,30 307,30 307,40 302,40 297,35 "  />
<polygon id="dummy-2_q43_0_all" style="fill:#15a7d8; stroke:black; stroke-width:1; " locus_tag="cds187302_188127" class="clusterblast-orf" description="&lt;b&gt;cds187302_188127&lt;/b&gt;&lt;br&gt;Glycosyltransferase&lt;br&gt;Location: 187302 - 188127" points="307,35 312,30 313,30 313,40 312,40 307,35 "  />
<polygon id="dummy-2_q44_0_all" style="fill:#a715d8; stroke:black; stroke-width:1; " locus_tag="cds188364_189807" class="clusterblast-orf" description="&lt;b&gt;cds188364_189807&lt;/b&gt;&lt;br&gt;Undecaprenyl-phosphate galactosephosphotransferase (EC 2.7.8.6)&lt;br&gt;Location: 188364 - 189807" points="315,40 321,40 326,35 321,30 315,30 315,40 "  />
<polygon id="dummy-2_q45_0_all" style="fill:#d85e15; stroke:black; stroke-width:1; " locus_tag="cds189785_191027" class="clusterblast-orf" description="&lt;b&gt;cds189785_191027&lt;/b&gt;&lt;br&gt;hypothetical protein&lt;br&gt;Location: 189785 - 191027" points="325,40 330,40 335,35 330,30 325,30 325,40 "  />
<polygon id="dummy-2_q46_0_all" style="fill:#2ed815; stroke:black; stroke-width:1; " locus_tag="cds191004_192105" class="clusterblast-orf" description="&lt;b&gt;cds191004_192105&lt;/b&gt;&lt;br&gt;Glycosyl transferase, group 1&lt;br&gt;Location: 191004 - 192105" points="335,35 340,30 343,30 343,40 340,40 335,35 "  />
<polygon id="dummy-2_q47_0_all" style="fill:#2ed815; stroke:black; stroke-width:1; " locus_tag="cds192101_193163" class="clusterblast-orf" description="&lt;b&gt;cds192101_193163&lt;/b&gt;&lt;br&gt;Glycosyl transferase, group 1&lt;br&gt;Location: 192101 - 193163" points="343,35 348,30 351,30 351,40 348,40 343,35 "  />
<polygon id="dummy-2_q48_0_all" style="fill:#158fd8; stroke:black; stroke-width:1; " locus_tag="cds193159_194560" class="clusterblast-orf" description="&lt;b&gt;cds193159_194560&lt;/b&gt;&lt;br&gt;Polysaccharide biosynthesis protein&lt;br&gt;Location: 193159 - 194560" points="351,35 356,30 361,30 361,40 356,40 351,35 "  />
<polygon id="dummy-2_q49_0_all" style="fill:#c015d8; stroke:black; stroke-width:1; " locus_tag="cds194556_195807" class="clusterblast-orf" description="&lt;b&gt;cds194556_195807&lt;/b&gt;&lt;br&gt;hypothetical protein&lt;br&gt;Location: 194556 - 195807" points="361,35 366,30 371,30 371,40 366,40 361,35 "  />
<polygon id="dummy-2_q50_0_all" style="fill:white; stroke:black; stroke-width:1; " locus_tag="cds195803_196532" class="clusterblast-orf" description="&lt;b&gt;cds195803_196532&lt;/b&gt;&lt;br&gt;hypothetical protein&lt;br&gt;Location: 195803 - 196532" points="371,35 376,30 376,30 376,40 376,40 371,35 "  />
<polygon id="dummy-2_q51_0_all" style="fill:#d87715; stroke:black; stroke-width:1; " locus_tag="cds196528_197383" class="clusterblast-orf" description="&lt;b&gt;cds196528_197383&lt;/b&gt;&lt;br&gt;hypothetical protein&lt;br&gt;Location: 196528 - 197383" points="376,35 381,30 383,30 383,40 381,40 376,35 "  />
<polygon id="dummy-2_q52_0_all" style="fill:#2ed815; stroke:black; stroke-width:1; " locus_tag="cds197379_198414" class="clusterblast-orf" description="&lt;b&gt;cds197379_198414&lt;/b&gt;&lt;br&gt;hypothetical protein&lt;br&gt;Location: 197379 - 198414" points="382,35 387,30 390,30 390,40 387,40 382,35 "  />
<polygon id="dummy-2_q53_0_all" style="fill:#15d815; stroke:black; stroke-width:1; " locus_tag="cds198395_199571" class="clusterblast-orf" description="&lt;b&gt;cds198395_199571&lt;/b&gt;&lt;br&gt;hypothetical protein&lt;br&gt;Location: 198395 - 199571" points="390,35 395,30 399,30 399,40 395,40 390,35 "  />
<polygon id="dummy-2_q54_0_all" style="fill:#1577d8; stroke:black; stroke-width:1; " locus_tag="cds199561_200506" class="clusterblast-orf" description="&lt;b&gt;cds199561_200506&lt;/b&gt;&lt;br&gt;Polysaccharide deacetylase&lt;br&gt;Location: 199561 - 200506" points="399,35 404,30 406,30 406,40 404,40 399,35 "  />
<polygon id="dummy-2_q55_0_all" style="fill:#d815d8; stroke:black; stroke-width:1; " locus_tag="cds200502_201330" class="clusterblast-orf" description="&lt;b&gt;cds200502_201330&lt;/b&gt;&lt;br&gt;hypothetical protein&lt;br&gt;Location: 200502 - 201330" points="406,35 411,30 412,30 412,40 411,40 406,35 "  />
<polygon id="dummy-2_q56_0_all" style="fill:#d88f15; stroke:black; stroke-width:1; " locus_tag="cds201466_202627" class="clusterblast-orf" description="&lt;b&gt;cds201466_202627&lt;/b&gt;&lt;br&gt;UDP-N-acetylglucosamine 2-epimerase (EC 5.1.3.14)&lt;br&gt;Location: 201466 - 202627" points="413,40 417,40 422,35 417,30 413,30 413,40 "  />
<polygon id="dummy-2_q57_0_all" style="fill:#15d82e; stroke:black; stroke-width:1; " locus_tag="cds202659_203580" class="clusterblast-orf" description="&lt;b&gt;cds202659_203580&lt;/b&gt;&lt;br&gt;hypothetical protein&lt;br&gt;Location: 202659 - 203580" points="422,35 427,30 429,30 429,40 427,40 422,35 "  />
<polygon id="dummy-2_q58_0_all" style="fill:#155ed8; stroke:black; stroke-width:1; " locus_tag="cds203564_204125" class="clusterblast-orf" description="&lt;b&gt;cds203564_204125&lt;/b&gt;&lt;br&gt;hypothetical protein&lt;br&gt;Location: 203564 - 204125" points="429,35 433,30 433,40 429,35 "  />
<polygon id="dummy-2_q59_0_all" style="fill:#d815c0; stroke:black; stroke-width:1; " locus_tag="cds204574_207604" class="clusterblast-orf" description="&lt;b&gt;cds204574_207604&lt;/b&gt;&lt;br&gt;Transcriptional regulator, AfsR family&lt;br&gt;Location: 204574 - 207604" points="437,40 454,40 459,35 454,30 437,30 437,40 "  />
<polygon id="dummy-2_q60_0_all" style="fill:#d8a715; stroke:black; stroke-width:1; " locus_tag="cds207705_210702" class="clusterblast-orf" description="&lt;b&gt;cds207705_210702&lt;/b&gt;&lt;br&gt;hypothetical protein&lt;br&gt;Location: 207705 - 210702" points="460,40 478,40 483,35 478,30 460,30 460,40 "  />
<polygon id="dummy-2_q61_0_all" style="fill:#15d846; stroke:black; stroke-width:1; " locus_tag="cds210915_211593" class="clusterblast-orf" description="&lt;b&gt;cds210915_211593&lt;/b&gt;&lt;br&gt;putative thioesterase&lt;br&gt;Location: 210915 - 211593" points="484,40 484,40 489,35 484,30 484,30 484,40 "  />
<polygon id="dummy-2_q62_0_all" style="fill:#1546d8; stroke:black; stroke-width:1; " locus_tag="cds211589_214748" class="clusterblast-orf" description="&lt;b&gt;cds211589_214748&lt;/b&gt;&lt;br&gt;Polyketide synthase modules and related proteins&lt;br&gt;Location: 211589 - 214748" points="489,40 508,40 513,35 508,30 489,30 489,40 "  />
<polygon id="dummy-2_q63_0_all" style="fill:#1546d8; stroke:black; stroke-width:1; " locus_tag="cds214762_217972" class="clusterblast-orf" description="&lt;b&gt;cds214762_217972&lt;/b&gt;&lt;br&gt;Polyketide synthase modules and related proteins&lt;br&gt;Location: 214762 - 217972" points="513,40 532,40 537,35 532,30 513,30 513,40 "  />
<polygon id="dummy-2_q64_0_all" style="fill:#d815a7; stroke:black; stroke-width:1; " locus_tag="cds217968_220920" class="clusterblast-orf" description="&lt;b&gt;cds217968_220920&lt;/b&gt;&lt;br&gt;Polyketide synthase modules and related proteins&lt;br&gt;Location: 217968 - 220920" points="537,40 554,40 559,35 554,30 537,30 537,40 "  />
<polygon id="dummy-2_q65_0_all" style="fill:#1546d8; stroke:black; stroke-width:1; " locus_tag="cds220916_226646" class="clusterblast-orf" description="&lt;b&gt;cds220916_226646&lt;/b&gt;&lt;br&gt;hypothetical protein&lt;br&gt;Location: 220916 - 226646" points="559,40 597,40 602,35 597,30 559,30 559,40 "  />
<polygon id="dummy-2_q66_0_all" style="fill:#d8c015; stroke:black; stroke-width:1; " locus_tag="cds226645_227992" class="clusterblast-orf" description="&lt;b&gt;cds226645_227992&lt;/b&gt;&lt;br&gt;hypothetical protein&lt;br&gt;Location: 226645 - 227992" points="602,40 608,40 613,35 608,30 602,30 602,40 "  />
<polygon id="dummy-2_q67_0_all" style="fill:#15d85e; stroke:black; stroke-width:1; " locus_tag="cds228013_228190" class="clusterblast-orf" description="&lt;b&gt;cds228013_228190&lt;/b&gt;&lt;br&gt;MbtH-like NRPS chaperone&lt;br&gt;Location: 228013 - 228190" points="613,40 614,35 613,30 613,40 "  />
<polygon id="dummy-2_q68_0_all" style="fill:#152ed8; stroke:black; stroke-width:1; " locus_tag="cds228186_228414" class="clusterblast-orf" description="&lt;b&gt;cds228186_228414&lt;/b&gt;&lt;br&gt;hypothetical protein&lt;br&gt;Location: 228186 - 228414" points="614,40 616,35 614,30 614,40 "  />
<polygon id="dummy-2_q69_0_all" style="fill:#d8158f; stroke:black; stroke-width:1; " locus_tag="cds228413_229736" class="clusterblast-orf" description="&lt;b&gt;cds228413_229736&lt;/b&gt;&lt;br&gt;hypothetical protein&lt;br&gt;Location: 228413 - 229736" points="616,40 621,40 626,35 621,30 616,30 616,40 "  />
<polygon id="dummy-2_q70_0_all" style="fill:#d8158f; stroke:black; stroke-width:1; " locus_tag="cds229732_230749" class="clusterblast-orf" description="&lt;b&gt;cds229732_230749&lt;/b&gt;&lt;br&gt;hypothetical protein&lt;br&gt;Location: 229732 - 230749" points="626,40 628,40 633,35 628,30 626,30 626,40 "  />
<polygon id="dummy-2_q71_0_all" style="fill:#d8d815; stroke:black; stroke-width:1; " locus_tag="cds230759_232613" class="clusterblast-orf" description="&lt;b&gt;cds230759_232613&lt;/b&gt;&lt;br&gt;Polyketide synthase modules and related proteins&lt;br&gt;Location: 230759 - 232613" points="633,40 642,40 647,35 642,30 633,30 633,40 "  />
<polygon id="dummy-2_q72_0_all" style="fill:#15d877; stroke:black; stroke-width:1; " locus_tag="cds232626_232851" class="clusterblast-orf" description="&lt;b&gt;cds232626_232851&lt;/b&gt;&lt;br&gt;hypothetical protein&lt;br&gt;Location: 232626 - 232851" points="647,40 649,35 647,30 647,40 "  />
<polygon id="dummy-2_q73_0_all" style="fill:#1515d8; stroke:black; stroke-width:1; " locus_tag="cds232847_233264" class="clusterblast-orf" description="&lt;b&gt;cds232847_233264&lt;/b&gt;&lt;br&gt;hypothetical protein&lt;br&gt;Location: 232847 - 233264" points="649,40 652,35 649,30 649,40 "  />
<polygon id="dummy-2_q74_0_all" style="fill:#d81577; stroke:black; stroke-width:1; " locus_tag="cds233245_234070" class="clusterblast-orf" description="&lt;b&gt;cds233245_234070&lt;/b&gt;&lt;br&gt;Methionine aminopeptidase (EC 3.4.11.18)&lt;br&gt;Location: 233245 - 234070" points="652,35 657,30 658,30 658,40 657,40 652,35 "  />
<polygon id="dummy-2_q75_0_all" style="fill:#c0d815; stroke:black; stroke-width:1; " locus_tag="cds234193_234748" class="clusterblast-orf" description="&lt;b&gt;cds234193_234748&lt;/b&gt;&lt;br&gt;hypothetical protein&lt;br&gt;Location: 234193 - 234748" points="659,40 663,35 659,30 659,40 "  />
<polygon id="dummy-2_q76_0_all" style="fill:#15d88f; stroke:black; stroke-width:1; " locus_tag="cds234852_235320" class="clusterblast-orf" description="&lt;b&gt;cds234852_235320&lt;/b&gt;&lt;br&gt;Quercetin 2,3-dioxygenase (EC 1.13.11.24)&lt;br&gt;Location: 234852 - 235320" points="664,40 668,35 664,30 664,40 "  />
<polygon id="dummy-2_q77_0_all" style="fill:#2e15d8; stroke:black; stroke-width:1; " locus_tag="cds235360_235555" class="clusterblast-orf" description="&lt;b&gt;cds235360_235555&lt;/b&gt;&lt;br&gt;Ferredoxin-like protein SCO7676&lt;br&gt;Location: 235360 - 235555" points="668,35 669,30 669,40 668,35 "  />
<polygon id="dummy-2_q78_0_all" style="fill:#d8155e; stroke:black; stroke-width:1; " locus_tag="cds235551_236766" class="clusterblast-orf" description="&lt;b&gt;cds235551_236766&lt;/b&gt;&lt;br&gt;Putative cytochrome P450 hydroxylase&lt;br&gt;Location: 235551 - 236766" points="669,35 674,30 678,30 678,40 674,40 669,35 "  />
<polygon id="dummy-2_q79_0_all" style="fill:#a7d815; stroke:black; stroke-width:1; " locus_tag="cds236840_237479" class="clusterblast-orf" description="&lt;b&gt;cds236840_237479&lt;/b&gt;&lt;br&gt;Transcriptional regulator, AcrR family&lt;br&gt;Location: 236840 - 237479" points="679,40 679,40 684,35 679,30 679,30 679,40 "  />
<polygon id="dummy-2_q80_0_all" style="fill:#15d8a7; stroke:black; stroke-width:1; " locus_tag="cds237475_237772" class="clusterblast-orf" description="&lt;b&gt;cds237475_237772&lt;/b&gt;&lt;br&gt;hypothetical protein&lt;br&gt;Location: 237475 - 237772" points="684,35 686,30 686,40 684,35 "  />
<polygon id="dummy-2_q81_0_all" style="fill:#4615d8; stroke:black; stroke-width:1; " locus_tag="cds237768_238221" class="clusterblast-orf" description="&lt;b&gt;cds237768_238221&lt;/b&gt;&lt;br&gt;hypothetical protein&lt;br&gt;Location: 237768 - 238221" points="686,35 689,30 689,40 686,35 "  />
<polygon id="dummy-2_q82_0_all" style="fill:#d81546; stroke:black; stroke-width:1; " locus_tag="cds238217_238997" class="clusterblast-orf" description="&lt;b&gt;cds238217_238997&lt;/b&gt;&lt;br&gt;Oxidoreductase, short-chain dehydrogenase/reductase family&lt;br&gt;Location: 238217 - 238997" points="689,35 694,30 695,30 695,40 694,40 689,35 "  />
<polygon id="dummy-2_q83_0_all" style="fill:#8fd815; stroke:black; stroke-width:1; " locus_tag="cds238996_240145" class="clusterblast-orf" description="&lt;b&gt;cds238996_240145&lt;/b&gt;&lt;br&gt;hypothetical protein&lt;br&gt;Location: 238996 - 240145" points="695,35 700,30 704,30 704,40 700,40 695,35 "  />
<polygon id="dummy-2_q84_0_all" style="fill:#15d8c0; stroke:black; stroke-width:1; " locus_tag="cds240141_241200" class="clusterblast-orf" description="&lt;b&gt;cds240141_241200&lt;/b&gt;&lt;br&gt;hypothetical protein&lt;br&gt;Location: 240141 - 241200" points="704,35 709,30 712,30 712,40 709,40 704,35 "  />
<polygon id="dummy-2_q85_0_all" style="fill:#5e15d8; stroke:black; stroke-width:1; " locus_tag="cds241260_243036" class="clusterblast-orf" description="&lt;b&gt;cds241260_243036&lt;/b&gt;&lt;br&gt;Sulfate adenylyltransferase subunit 1 (EC 2.7.7.4) / Adenylylsulfate kinase (EC 2.7.1.25)&lt;br&gt;Location: 241260 - 243036" points="712,35 717,30 726,30 726,40 717,40 712,35 "  />
<polygon id="dummy-2_q86_0_all" style="fill:white; stroke:black; stroke-width:1; " locus_tag="cds243035_243923" class="clusterblast-orf" description="&lt;b&gt;cds243035_243923&lt;/b&gt;&lt;br&gt;Sulfate adenylyltransferase subunit 2 (EC 2.7.7.4)&lt;br&gt;Location: 243035 - 243923" points="726,35 731,30 732,30 732,40 731,40 726,35 "  />
<polygon id="dummy-2_q87_0_all" style="fill:white; stroke:black; stroke-width:1; " locus_tag="cds243919_244585" class="clusterblast-orf" description="&lt;b&gt;cds243919_244585&lt;/b&gt;&lt;br&gt;3'(2'),5'-bisphosphate nucleotidase (EC 3.1.3.7)&lt;br&gt;Location: 243919 - 244585" points="732,35 737,30 737,30 737,40 737,40 732,35 "  />
<polygon id="dummy-2_q88_0_all" style="fill:white; stroke:black; stroke-width:1; " locus_tag="cds244622_245273" class="clusterblast-orf" description="&lt;b&gt;cds244622_245273&lt;/b&gt;&lt;br&gt;hypothetical protein&lt;br&gt;Location: 244622 - 245273" points="737,40 737,40 742,35 737,30 737,30 737,40 "  />
<polygon id="dummy-2_q89_0_all" style="fill:white; stroke:black; stroke-width:1; " locus_tag="cds245259_245793" class="clusterblast-orf" description="&lt;b&gt;cds245259_245793&lt;/b&gt;&lt;br&gt;Cysteine dioxygenase (EC 1.13.11.20)&lt;br&gt;Location: 245259 - 245793" points="742,35 746,30 746,40 742,35 "  />
<polygon id="dummy-2_q90_0_all" style="fill:white; stroke:black; stroke-width:1; " locus_tag="cds245813_246812" class="clusterblast-orf" description="&lt;b&gt;cds245813_246812&lt;/b&gt;&lt;br&gt;Putative membrane protein YeiH&lt;br&gt;Location: 245813 - 246812" points="746,35 751,30 754,30 754,40 751,40 746,35 "  />
<polygon id="dummy-2_q91_0_all" style="fill:#d8152e; stroke:black; stroke-width:1; " locus_tag="cds246875_247778" class="clusterblast-orf" description="&lt;b&gt;cds246875_247778&lt;/b&gt;&lt;br&gt;Transcriptional regulator, LysR family&lt;br&gt;Location: 246875 - 247778" points="754,35 759,30 761,30 761,40 759,40 754,35 "  />
<polygon id="dummy-2_q92_0_all" style="fill:white; stroke:black; stroke-width:1; " locus_tag="cds247794_248415" class="clusterblast-orf" description="&lt;b&gt;cds247794_248415&lt;/b&gt;&lt;br&gt;hypothetical protein&lt;br&gt;Location: 247794 - 248415" points="761,35 766,30 766,30 766,40 766,40 761,35 "  />
<polygon id="dummy-2_q93_0_all" style="fill:white; stroke:black; stroke-width:1; " locus_tag="cds248503_250222" class="clusterblast-orf" description="&lt;b&gt;cds248503_250222&lt;/b&gt;&lt;br&gt;subtilisin-like protease&lt;br&gt;Location: 248503 - 250222" points="767,35 772,30 780,30 780,40 772,40 767,35 "  />
</g>
<g class="clusterblast-cluster" label="NZ_KB913037" description="NZ_KB913037 (1145125-1203092): Amycolatopsis balhimycina FH 1894 strain DSM 4... (22% of genes show similarity), NRPS,PKS-like,T1PKS"  >
<text x="5" class="clusterblast-acc" y="70"  >
<a xlink:href="https://antismash-db.secondarymetabolites.org/area.html?record=NZ_KB913037&amp;start=1145125&amp;end=1203092" target="_blank">NZ_KB913037 (1145125-1203092)</a>: Amycolatopsis balhimycina FH 1894 strain DSM 4... (22% of genes show similarity), NRPS,PKS-like,T1PKS</text>
<line y2="85" x2="778.0" x1="10" style="stroke-width:1; stroke:grey; " y1="85"  />
</g>
<g id="a2_000"  >
<polygon id="dummy-2_h2_10_0" style="fill:white; stroke:black; stroke-width:1; " locus_tag="A3CE_RS0104620" class="clusterblast-orf" description="&lt;b&gt;A3CE_RS0104620&lt;/b&gt;&lt;br&gt;TetR/AcrR family transcriptional regulator&lt;br&gt;Location: 1203092 - 1202469" points="173,90 177,85 173,80 173,90 "  />
</g>
<g id="a2_001"  >
<polygon id="dummy-2_h2_10_1" style="fill:white; stroke:black; stroke-width:1; " locus_tag="A3CE_RS0104615" class="clusterblast-orf" description="&lt;b&gt;A3CE_RS0104615&lt;/b&gt;&lt;br&gt;GntR family transcriptional regulator&lt;br&gt;Location: 1202387 - 1201659" points="178,85 183,80 183,80 183,90 183,90 178,85 "  />
</g>
<g id="a2_002"  >
<polygon id="dummy-2_h2_10_2" style="fill:white; stroke:black; stroke-width:1; " locus_tag="A3CE_RS0104610" class="clusterblast-orf" description="&lt;b&gt;A3CE_RS0104610&lt;/b&gt;&lt;br&gt;MFS transporter&lt;br&gt;Location: 1201581 - 1200307" points="184,90 188,90 193,85 188,80 184,80 184,90 "  />
</g>
<g id="a2_003"  >
<polygon id="dummy-2_h2_10_3" style="fill:white; stroke:black; stroke-width:1; " locus_tag="A3CE_RS56125" class="clusterblast-orf" description="&lt;b&gt;A3CE_RS56125&lt;/b&gt;&lt;br&gt;hypothetical protein&lt;br&gt;Location: 1200308 - 1200177" points="193,90 194,85 193,80 193,90 "  />
</g>
<g id="a2_004"  >
<polygon id="dummy-2_h2_10_4" style="fill:white; stroke:black; stroke-width:1; " locus_tag="A3CE_RS0104600" class="clusterblast-orf" description="&lt;b&gt;A3CE_RS0104600&lt;/b&gt;&lt;br&gt;acyclic terpene utilization AtuA family protein&lt;br&gt;Location: 1200171 - 1198804" points="195,90 200,90 205,85 200,80 195,80 195,90 "  />
</g>
<g id="a2_005"  >
<polygon id="dummy-2_h2_10_5" style="fill:white; stroke:black; stroke-width:1; " locus_tag="A3CE_RS0104595" class="clusterblast-orf" description="&lt;b&gt;A3CE_RS0104595&lt;/b&gt;&lt;br&gt;DUF4387 domain-containing protein&lt;br&gt;Location: 1198811 - 1198482" points="205,90 207,85 205,80 205,90 "  />
</g>
<g id="a2_006"  >
<polygon id="dummy-2_h2_10_6" style="fill:white; stroke:black; stroke-width:1; " locus_tag="A3CE_RS0104590" class="clusterblast-orf" description="&lt;b&gt;A3CE_RS0104590&lt;/b&gt;&lt;br&gt;alpha/beta hydrolase&lt;br&gt;Location: 1198485 - 1197679" points="207,90 208,90 213,85 208,80 207,80 207,90 "  />
</g>
<g id="a2_007"  >
<polygon id="dummy-2_h2_10_7" style="fill:white; stroke:black; stroke-width:1; " locus_tag="A3CE_RS57310" class="clusterblast-orf" description="&lt;b&gt;A3CE_RS57310&lt;/b&gt;&lt;br&gt;hypothetical protein&lt;br&gt;Location: 1197334 - 1197164" points="216,85 217,80 217,90 216,85 "  />
</g>
<g id="a2_008"  >
<polygon id="dummy-2_h2_10_8" style="fill:white; stroke:black; stroke-width:1; " locus_tag="A3CE_RS0104580" class="clusterblast-orf" description="&lt;b&gt;A3CE_RS0104580&lt;/b&gt;&lt;br&gt;NADP-dependent oxidoreductase&lt;br&gt;Location: 1196963 - 1196049" points="219,85 224,80 225,80 225,90 224,90 219,85 "  />
</g>
<g id="a2_009"  >
<polygon id="dummy-2_h2_10_9" style="fill:white; stroke:black; stroke-width:1; " locus_tag="A3CE_RS0104575" class="clusterblast-orf" description="&lt;b&gt;A3CE_RS0104575&lt;/b&gt;&lt;br&gt;PPOX class F420-dependent oxidoreductase&lt;br&gt;Location: 1196033 - 1195626" points="226,85 229,80 229,90 226,85 "  />
</g>
<g id="a2_0010"  >
<polygon id="dummy-2_h2_10_10" style="fill:white; stroke:black; stroke-width:1; " locus_tag="A3CE_RS0104570" class="clusterblast-orf" description="&lt;b&gt;A3CE_RS0104570&lt;/b&gt;&lt;br&gt;DHA2 family efflux MFS transporter permease subunit&lt;br&gt;Location: 1195608 - 1194151" points="229,85 234,80 240,80 240,90 234,90 229,85 "  />
</g>
<g id="a2_0011"  >
<polygon id="dummy-2_h2_10_11" style="fill:white; stroke:black; stroke-width:1; " locus_tag="A3CE_RS0104565" class="clusterblast-orf" description="&lt;b&gt;A3CE_RS0104565&lt;/b&gt;&lt;br&gt;TetR/AcrR family transcriptional regulator&lt;br&gt;Location: 1194058 - 1193387" points="240,90 240,90 245,85 240,80 240,80 240,90 "  />
</g>
<g id="a2_0012"  >
<polygon id="dummy-2_h2_10_12" style="fill:white; stroke:black; stroke-width:1; " locus_tag="A3CE_RS56120" class="clusterblast-orf" description="&lt;b&gt;A3CE_RS56120&lt;/b&gt;&lt;br&gt;hypothetical protein&lt;br&gt;Location: 1193364 - 1192864" points="246,90 249,85 246,80 246,90 "  />
</g>
<g id="a2_0013"  >
<polygon id="dummy-2_h2_10_13" style="fill:white; stroke:black; stroke-width:1; " locus_tag="A3CE_RS0104560" class="clusterblast-orf" description="&lt;b&gt;A3CE_RS0104560&lt;/b&gt;&lt;br&gt;class I SAM-dependent methyltransferase&lt;br&gt;Location: 1192835 - 1191897" points="250,85 255,80 257,80 257,90 255,90 250,85 "  />
</g>
<g id="a2_0014"  >
<polygon id="dummy-2_h2_10_14" style="fill:white; stroke:black; stroke-width:1; " locus_tag="A3CE_RS0104555" class="clusterblast-orf" description="&lt;b&gt;A3CE_RS0104555&lt;/b&gt;&lt;br&gt;MarR family transcriptional regulator&lt;br&gt;Location: 1191827 - 1191357" points="257,85 261,80 261,90 257,85 "  />
</g>
<g id="a2_0015"  >
<polygon id="dummy-2_h2_10_15" style="fill:white; stroke:black; stroke-width:1; " locus_tag="A3CE_RS50145" class="clusterblast-orf" description="&lt;b&gt;A3CE_RS50145&lt;/b&gt;&lt;br&gt;hypothetical protein&lt;br&gt;Location: 1191308 - 1190751" points="261,90 265,85 261,80 261,90 "  />
</g>
<g id="a2_0016"  >
<polygon id="dummy-2_h2_10_16" style="fill:white; stroke:black; stroke-width:1; " locus_tag="A3CE_RS0104545" class="clusterblast-orf" description="&lt;b&gt;A3CE_RS0104545&lt;/b&gt;&lt;br&gt;ATPase&lt;br&gt;Location: 1190020 - 1187324" points="271,90 286,90 291,85 286,80 271,80 271,90 "  />
</g>
<g id="a2_0017"  >
<polygon id="dummy-2_h2_10_17" style="fill:#d8a715; stroke:black; stroke-width:1; " locus_tag="A3CE_RS53305" class="clusterblast-orf" description="&lt;b&gt;A3CE_RS53305&lt;/b&gt;&lt;br&gt;winged helix-turn-helix domain-containing protein&lt;br&gt;Location: 1185772 - 1183619&lt;br&gt;&lt;br&gt;&lt;b&gt;BlastP hit with cds207705_210702&lt;/b&gt;&lt;br&gt;Percentage identity: 40&lt;br&gt;Percentage coverage: 64&lt;br&gt;BLAST bit score: 354&lt;br&gt;E-value: 3.3e-95" points="303,90 314,90 319,85 314,80 303,80 303,90 "  />
</g>
<g id="a2_0018"  >
<polygon id="dummy-2_h2_10_18" style="fill:white; stroke:black; stroke-width:1; " locus_tag="A3CE_RS50135" class="clusterblast-orf" description="&lt;b&gt;A3CE_RS50135&lt;/b&gt;&lt;br&gt;non-ribosomal peptide synthetase&lt;br&gt;Location: 1183471 - 1181636" points="320,90 329,90 334,85 329,80 320,80 320,90 "  />
</g>
<g id="a2_0019"  >
<polygon id="dummy-2_h2_10_19" style="fill:#1546d8; stroke:black; stroke-width:1; " locus_tag="A3CE_RS0104530" class="clusterblast-orf" description="&lt;b&gt;A3CE_RS0104530&lt;/b&gt;&lt;br&gt;non-ribosomal peptide synthetase&lt;br&gt;Location: 1181571 - 1178404&lt;br&gt;&lt;br&gt;&lt;b&gt;BlastP hit with cds214762_217972&lt;/b&gt;&lt;br&gt;Percentage identity: 43&lt;br&gt;Percentage coverage: 101&lt;br&gt;BLAST bit score: 804&lt;br&gt;E-value: 9.7e-231" points="334,90 353,90 358,85 353,80 334,80 334,90 "  />
</g>
<g id="a2_0020"  >
<polygon id="dummy-2_h2_10_20" style="fill:#d815a7; stroke:black; stroke-width:1; " locus_tag="A3CE_RS0104525" class="clusterblast-orf" description="&lt;b&gt;A3CE_RS0104525&lt;/b&gt;&lt;br&gt;type I polyketide synthase&lt;br&gt;Location: 1178407 - 1175498&lt;br&gt;&lt;br&gt;&lt;b&gt;BlastP hit with cds217968_220920&lt;/b&gt;&lt;br&gt;Percentage identity: 56&lt;br&gt;Percentage coverage: 101&lt;br&gt;BLAST bit score: 979&lt;br&gt;E-value: 2.7e-283" points="358,90 375,90 380,85 375,80 358,80 358,90 "  />
</g>
<g id="a2_0021"  >
<polygon id="dummy-2_h2_10_21" style="fill:#15d85e; stroke:black; stroke-width:1; " locus_tag="A3CE_RS0104520" class="clusterblast-orf" description="&lt;b&gt;A3CE_RS0104520&lt;/b&gt;&lt;br&gt;MbtH family protein&lt;br&gt;Location: 1175501 - 1175319&lt;br&gt;&lt;br&gt;&lt;b&gt;BlastP hit with cds228013_228190&lt;/b&gt;&lt;br&gt;Percentage identity: 66&lt;br&gt;Percentage coverage: 91&lt;br&gt;BLAST bit score: 92&lt;br&gt;E-value: 1.8e-17" points="380,90 381,85 380,80 380,90 "  />
</g>
<g id="a2_0022"  >
<polygon id="dummy-2_h2_10_22" style="fill:#1546d8; stroke:black; stroke-width:1; " locus_tag="A3CE_RS0104515" class="clusterblast-orf" description="&lt;b&gt;A3CE_RS0104515&lt;/b&gt;&lt;br&gt;hypothetical protein&lt;br&gt;Location: 1175296 - 1169279&lt;br&gt;&lt;br&gt;&lt;b&gt;BlastP hit with cds220916_226646&lt;/b&gt;&lt;br&gt;Percentage identity: 43&lt;br&gt;Percentage coverage: 106&lt;br&gt;BLAST bit score: 1419&lt;br&gt;E-value: 0.0" points="381,90 422,90 427,85 422,80 381,80 381,90 "  />
</g>
<g id="a2_0023"  >
<polygon id="dummy-2_h2_10_23" style="fill:#d8c015; stroke:black; stroke-width:1; " locus_tag="A3CE_RS0104510" class="clusterblast-orf" description="&lt;b&gt;A3CE_RS0104510&lt;/b&gt;&lt;br&gt;MFS transporter&lt;br&gt;Location: 1169236 - 1167857&lt;br&gt;&lt;br&gt;&lt;b&gt;BlastP hit with cds226645_227992&lt;/b&gt;&lt;br&gt;Percentage identity: 54&lt;br&gt;Percentage coverage: 97&lt;br&gt;BLAST bit score: 428&lt;br&gt;E-value: 1e-117" points="427,90 432,90 437,85 432,80 427,80 427,90 "  />
</g>
<g id="a2_0024"  >
<polygon id="dummy-2_h2_10_24" style="fill:#152ed8; stroke:black; stroke-width:1; " locus_tag="A3CE_RS0104505" class="clusterblast-orf" description="&lt;b&gt;A3CE_RS0104505&lt;/b&gt;&lt;br&gt;acyl carrier protein&lt;br&gt;Location: 1167860 - 1167612&lt;br&gt;&lt;br&gt;&lt;b&gt;BlastP hit with cds228186_228414&lt;/b&gt;&lt;br&gt;Percentage identity: 59&lt;br&gt;Percentage coverage: 95&lt;br&gt;BLAST bit score: 83&lt;br&gt;E-value: 1.1e-14" points="437,90 439,85 437,80 437,90 "  />
</g>
<g id="a2_0025"  >
<polygon id="dummy-2_h2_10_25" style="fill:#d8158f; stroke:black; stroke-width:1; " locus_tag="A3CE_RS0104500" class="clusterblast-orf" description="&lt;b&gt;A3CE_RS0104500&lt;/b&gt;&lt;br&gt;hypothetical protein&lt;br&gt;Location: 1166142 - 1165126&lt;br&gt;&lt;br&gt;&lt;b&gt;BlastP hit with cds229732_230749&lt;/b&gt;&lt;br&gt;Percentage identity: 64&lt;br&gt;Percentage coverage: 99&lt;br&gt;BLAST bit score: 437&lt;br&gt;E-value: 9.9e-121" points="450,90 453,90 458,85 453,80 450,80 450,90 "  />
</g>
<g id="a2_0026"  >
<polygon id="dummy-2_h2_10_26" style="fill:#d8d815; stroke:black; stroke-width:1; " locus_tag="A3CE_RS0104495" class="clusterblast-orf" description="&lt;b&gt;A3CE_RS0104495&lt;/b&gt;&lt;br&gt;HAD-IIIC family phosphatase&lt;br&gt;Location: 1165113 - 1163272&lt;br&gt;&lt;br&gt;&lt;b&gt;BlastP hit with cds230759_232613&lt;/b&gt;&lt;br&gt;Percentage identity: 55&lt;br&gt;Percentage coverage: 99&lt;br&gt;BLAST bit score: 626&lt;br&gt;E-value: 3.6e-177" points="458,90 467,90 472,85 467,80 458,80 458,90 "  />
</g>
<g id="a2_0027"  >
<polygon id="dummy-2_h2_10_27" style="fill:#15d877; stroke:black; stroke-width:1; " locus_tag="A3CE_RS0104490" class="clusterblast-orf" description="&lt;b&gt;A3CE_RS0104490&lt;/b&gt;&lt;br&gt;acyl carrier protein&lt;br&gt;Location: 1163279 - 1163043&lt;br&gt;&lt;br&gt;&lt;b&gt;BlastP hit with cds232626_232851&lt;/b&gt;&lt;br&gt;Percentage identity: 55&lt;br&gt;Percentage coverage: 93&lt;br&gt;BLAST bit score: 67&lt;br&gt;E-value: 5.9e-10" points="472,90 474,85 472,80 472,90 "  />
</g>
<g id="a2_0028"  >
<polygon id="dummy-2_h2_10_28" style="fill:#1515d8; stroke:black; stroke-width:1; " locus_tag="A3CE_RS0104485" class="clusterblast-orf" description="&lt;b&gt;A3CE_RS0104485&lt;/b&gt;&lt;br&gt;VOC family protein&lt;br&gt;Location: 1163046 - 1162633&lt;br&gt;&lt;br&gt;&lt;b&gt;BlastP hit with cds232847_233264&lt;/b&gt;&lt;br&gt;Percentage identity: 66&lt;br&gt;Percentage coverage: 97&lt;br&gt;BLAST bit score: 176&lt;br&gt;E-value: 2.2e-42" points="473,90 477,85 473,80 473,90 "  />
</g>
<g id="a2_0029"  >
<polygon id="dummy-2_h2_10_29" style="fill:white; stroke:black; stroke-width:1; " locus_tag="A3CE_RS56115" class="clusterblast-orf" description="&lt;b&gt;A3CE_RS56115&lt;/b&gt;&lt;br&gt;helix-turn-helix domain-containing protein&lt;br&gt;Location: 1162422 - 1162330" points="478,85 479,80 479,90 478,85 "  />
</g>
<g id="a2_0030"  >
<polygon id="dummy-2_h2_10_30" style="fill:white; stroke:black; stroke-width:1; " locus_tag="A3CE_RS0104475" class="clusterblast-orf" description="&lt;b&gt;A3CE_RS0104475&lt;/b&gt;&lt;br&gt;hypothetical protein&lt;br&gt;Location: 1162090 - 1161809" points="481,90 483,85 481,80 481,90 "  />
</g>
<g id="a2_0031"  >
<polygon id="dummy-2_h2_10_31" style="fill:white; stroke:black; stroke-width:1; " locus_tag="A3CE_RS0104470" class="clusterblast-orf" description="&lt;b&gt;A3CE_RS0104470&lt;/b&gt;&lt;br&gt;hypothetical protein&lt;br&gt;Location: 1161759 - 1161388" points="483,90 486,85 483,80 483,90 "  />
</g>
<g id="a2_0032"  >
<polygon id="dummy-2_h2_10_32" style="fill:white; stroke:black; stroke-width:1; " locus_tag="A3CE_RS56110" class="clusterblast-orf" description="&lt;b&gt;A3CE_RS56110&lt;/b&gt;&lt;br&gt;hypothetical protein&lt;br&gt;Location: 1161294 - 1160908" points="487,85 490,80 490,90 487,85 "  />
</g>
<g id="a2_0033"  >
<polygon id="dummy-2_h2_10_33" style="fill:white; stroke:black; stroke-width:1; " locus_tag="A3CE_RS57305" class="clusterblast-orf" description="&lt;b&gt;A3CE_RS57305&lt;/b&gt;&lt;br&gt;ferredoxin-NADP reductase&lt;br&gt;Location: 1160865 - 1160576" points="490,90 492,85 490,80 490,90 "  />
</g>
<g id="a2_0034"  >
<polygon id="dummy-2_h2_10_34" style="fill:white; stroke:black; stroke-width:1; " locus_tag="A3CE_RS50130" class="clusterblast-orf" description="&lt;b&gt;A3CE_RS50130&lt;/b&gt;&lt;br&gt;pyridoxamine 5'-phosphate oxidase family protein&lt;br&gt;Location: 1160552 - 1160019" points="492,85 496,80 496,90 492,85 "  />
</g>
<g id="a2_0035"  >
<polygon id="dummy-2_h2_10_35" style="fill:white; stroke:black; stroke-width:1; " locus_tag="A3CE_RS50125" class="clusterblast-orf" description="&lt;b&gt;A3CE_RS50125&lt;/b&gt;&lt;br&gt;helix-turn-helix transcriptional regulator&lt;br&gt;Location: 1159550 - 1159140" points="500,85 503,80 503,90 500,85 "  />
</g>
<g id="a2_0036"  >
<polygon id="dummy-2_h2_10_36" style="fill:white; stroke:black; stroke-width:1; " locus_tag="A3CE_RS0104445" class="clusterblast-orf" description="&lt;b&gt;A3CE_RS0104445&lt;/b&gt;&lt;br&gt;hypothetical protein&lt;br&gt;Location: 1158797 - 1158582" points="505,85 507,80 507,90 505,85 "  />
</g>
<g id="a2_0037"  >
<polygon id="dummy-2_h2_10_37" style="fill:white; stroke:black; stroke-width:1; " locus_tag="A3CE_RS56105" class="clusterblast-orf" description="&lt;b&gt;A3CE_RS56105&lt;/b&gt;&lt;br&gt;hypothetical protein&lt;br&gt;Location: 1157710 - 1157453" points="514,85 516,80 516,90 514,85 "  />
</g>
<g id="a2_0038"  >
<polygon id="dummy-2_h2_10_38" style="fill:white; stroke:black; stroke-width:1; " locus_tag="A3CE_RS50120" class="clusterblast-orf" description="&lt;b&gt;A3CE_RS50120&lt;/b&gt;&lt;br&gt;IS630 family transposase&lt;br&gt;Location: 1157233 - 1156124" points="517,85 522,80 525,80 525,90 522,90 517,85 "  />
</g>
<g id="a2_0039"  >
<polygon id="dummy-2_h2_10_39" style="fill:white; stroke:black; stroke-width:1; " locus_tag="A3CE_RS0104435" class="clusterblast-orf" description="&lt;b&gt;A3CE_RS0104435&lt;/b&gt;&lt;br&gt;hypothetical protein&lt;br&gt;Location: 1156006 - 1155674" points="526,90 529,85 526,80 526,90 "  />
</g>
<g id="a2_0040"  >
<polygon id="dummy-2_h2_10_40" style="fill:white; stroke:black; stroke-width:1; " locus_tag="A3CE_RS0104430" class="clusterblast-orf" description="&lt;b&gt;A3CE_RS0104430&lt;/b&gt;&lt;br&gt;hypothetical protein&lt;br&gt;Location: 1155148 - 1153781" points="533,90 538,90 543,85 538,80 533,80 533,90 "  />
</g>
<g id="a2_0041"  >
<polygon id="dummy-2_h2_10_41" style="fill:white; stroke:black; stroke-width:1; " locus_tag="A3CE_RS56100" class="clusterblast-orf" description="&lt;b&gt;A3CE_RS56100&lt;/b&gt;&lt;br&gt;hypothetical protein&lt;br&gt;Location: 1153749 - 1153450" points="543,90 546,85 543,80 543,90 "  />
</g>
<g id="a2_0042"  >
<polygon id="dummy-2_h2_10_42" style="fill:white; stroke:black; stroke-width:1; " locus_tag="A3CE_RS56095" class="clusterblast-orf" description="&lt;b&gt;A3CE_RS56095&lt;/b&gt;&lt;br&gt;hypothetical protein&lt;br&gt;Location: 1153035 - 1152364" points="549,85 554,80 554,80 554,90 554,90 549,85 "  />
</g>
<g id="a2_0043"  >
<polygon id="dummy-2_h2_10_43" style="fill:white; stroke:black; stroke-width:1; " locus_tag="A3CE_RS0104425" class="clusterblast-orf" description="&lt;b&gt;A3CE_RS0104425&lt;/b&gt;&lt;br&gt;hypothetical protein&lt;br&gt;Location: 1152238 - 1149527" points="555,85 560,80 575,80 575,90 560,90 555,85 "  />
</g>
<g id="a2_0044"  >
<polygon id="dummy-2_h2_10_44" style="fill:white; stroke:black; stroke-width:1; " locus_tag="A3CE_RS56090" class="clusterblast-orf" description="&lt;b&gt;A3CE_RS56090&lt;/b&gt;&lt;br&gt;hypothetical protein&lt;br&gt;Location: 1149090 - 1147333" points="578,85 583,80 592,80 592,90 583,90 578,85 "  />
</g>
<g id="a2_0045"  >
<polygon id="dummy-2_h2_10_45" style="fill:white; stroke:black; stroke-width:1; " locus_tag="A3CE_RS57300" class="clusterblast-orf" description="&lt;b&gt;A3CE_RS57300&lt;/b&gt;&lt;br&gt;hypothetical protein&lt;br&gt;Location: 1147010 - 1146735" points="594,90 596,85 594,80 594,90 "  />
</g>
<g id="a2_0046"  >
<polygon id="dummy-2_h2_10_46" style="fill:white; stroke:black; stroke-width:1; " locus_tag="A3CE_RS56085" class="clusterblast-orf" description="&lt;b&gt;A3CE_RS56085&lt;/b&gt;&lt;br&gt;hypothetical protein&lt;br&gt;Location: 1146581 - 1146198" points="597,90 600,85 597,80 597,90 "  />
</g>
<g id="a2_0047"  >
<polygon id="dummy-2_h2_10_47" style="fill:white; stroke:black; stroke-width:1; " locus_tag="A3CE_RS0104400" class="clusterblast-orf" description="&lt;b&gt;A3CE_RS0104400&lt;/b&gt;&lt;br&gt;MoxR family ATPase&lt;br&gt;Location: 1146175 - 1145899" points="600,85 602,80 602,90 600,85 "  />
</g>
<g id="a2_0048"  >
<polygon id="dummy-2_h2_10_48" style="fill:white; stroke:black; stroke-width:1; " locus_tag="A3CE_RS54750" class="clusterblast-orf" description="&lt;b&gt;A3CE_RS54750&lt;/b&gt;&lt;br&gt;low temperature requirement protein A&lt;br&gt;Location: 1145922 - 1145667" points="602,90 604,85 602,80 602,90 "  />
</g>
<g id="a2_0049"  >
<polygon id="dummy-2_h2_10_49" style="fill:white; stroke:black; stroke-width:1; " locus_tag="A3CE_RS56080" class="clusterblast-orf" description="&lt;b&gt;A3CE_RS56080&lt;/b&gt;&lt;br&gt;hypothetical protein&lt;br&gt;Location: 1145641 - 1145354" points="604,85 606,80 606,90 604,85 "  />
</g>
</svg>
