<svg xmlns:xlink="http://www.w3.org/1999/xlink" x="0" xmlns="http://www.w3.org/2000/svg" version="1.1" preserveAspectRatio="none" viewBox="0 0 800 230" y="0" height="230" width="800"  >
<g class="clusterblast-cluster" label="Query sequence"  >
<text x="5" class="clusterblast-acc" y="20"  >
Query sequence</text>
<line y2="35" x2="778.0" x1="10" style="stroke-width:1; stroke:grey; " y1="35"  />
<polygon id="dummy-1_q0_0_all" style="fill:white; stroke:black; stroke-width:1; " locus_tag="cds39386_40331" class="clusterblast-orf" description="&lt;b&gt;cds39386_40331&lt;/b&gt;&lt;br&gt;hypothetical protein&lt;br&gt;Location: 39386 - 40331" points="105,35 110,30 123,30 123,40 110,40 105,35 "  />
<polygon id="dummy-1_q1_0_all" style="fill:#d81515; stroke:black; stroke-width:1; " locus_tag="cds40341_41196" class="clusterblast-orf" description="&lt;b&gt;cds40341_41196&lt;/b&gt;&lt;br&gt;Short-chain type dehydrogenase/reductase&lt;br&gt;Location: 40341 - 41196" points="123,35 128,30 139,30 139,40 128,40 123,35 "  />
<polygon id="dummy-1_q2_0_all" style="fill:white; stroke:black; stroke-width:1; " locus_tag="cds41192_41948" class="clusterblast-orf" description="&lt;b&gt;cds41192_41948&lt;/b&gt;&lt;br&gt;Oxidoreductase, short-chain dehydrogenase/reductase family&lt;br&gt;Location: 41192 - 41948" points="139,35 144,30 154,30 154,40 144,40 139,35 "  />
<polygon id="dummy-1_q3_0_all" style="fill:white; stroke:black; stroke-width:1; " locus_tag="cds42017_42785" class="clusterblast-orf" description="&lt;b&gt;cds42017_42785&lt;/b&gt;&lt;br&gt;Probable enoyl-CoA hydratase EchA20 (EC 4.2.1.17)&lt;br&gt;Location: 42017 - 42785" points="155,40 165,40 170,35 165,30 155,30 155,40 "  />
<polygon id="dummy-1_q4_0_all" style="fill:white; stroke:black; stroke-width:1; " locus_tag="cds42759_43557" class="clusterblast-orf" description="&lt;b&gt;cds42759_43557&lt;/b&gt;&lt;br&gt;CoA-transferase subunit alpha, IpdA&lt;br&gt;Location: 42759 - 43557" points="169,40 179,40 184,35 179,30 169,30 169,40 "  />
<polygon id="dummy-1_q5_0_all" style="fill:white; stroke:black; stroke-width:1; " locus_tag="cds43553_44267" class="clusterblast-orf" description="&lt;b&gt;cds43553_44267&lt;/b&gt;&lt;br&gt;CoA-transferase subunit beta, IpdB&lt;br&gt;Location: 43553 - 44267" points="184,40 193,40 198,35 193,30 184,30 184,40 "  />
<polygon id="dummy-1_q6_0_all" style="fill:white; stroke:black; stroke-width:1; " locus_tag="cds44263_45313" class="clusterblast-orf" description="&lt;b&gt;cds44263_45313&lt;/b&gt;&lt;br&gt;Monooxygenase IpdC&lt;br&gt;Location: 44263 - 45313" points="198,40 213,40 218,35 213,30 198,30 198,40 "  />
<polygon id="dummy-1_q7_0_all" style="fill:white; stroke:black; stroke-width:1; " locus_tag="cds45296_46442" class="clusterblast-orf" description="&lt;b&gt;cds45296_46442&lt;/b&gt;&lt;br&gt;3-ketoacyl-CoA thiolase (EC 2.3.1.16) @ Acetyl-CoA acetyltransferase (EC 2.3.1.9)&lt;br&gt;Location: 45296 - 46442" points="218,35 223,30 239,30 239,40 223,40 218,35 "  />
<polygon id="dummy-1_q8_0_all" style="fill:white; stroke:black; stroke-width:1; " locus_tag="cds46455_47052" class="clusterblast-orf" description="&lt;b&gt;cds46455_47052&lt;/b&gt;&lt;br&gt;Transcriptional regulator, AcrR family&lt;br&gt;Location: 46455 - 47052" points="240,35 245,30 251,30 251,40 245,40 240,35 "  />
<polygon id="dummy-1_q9_0_all" style="fill:white; stroke:black; stroke-width:1; " locus_tag="cds47066_47810" class="clusterblast-orf" description="&lt;b&gt;cds47066_47810&lt;/b&gt;&lt;br&gt;Oxidoreductase, short-chain dehydrogenase/reductase family&lt;br&gt;Location: 47066 - 47810" points="251,35 256,30 265,30 265,40 256,40 251,35 "  />
<polygon id="dummy-1_q10_0_all" style="fill:white; stroke:black; stroke-width:1; " locus_tag="cds47806_48880" class="clusterblast-orf" description="&lt;b&gt;cds47806_48880&lt;/b&gt;&lt;br&gt;Acyl-CoA dehydrogenase, long-chain specific (EC 1.3.8.8)&lt;br&gt;Location: 47806 - 48880" points="265,35 270,30 286,30 286,40 270,40 265,35 "  />
<polygon id="dummy-1_q11_0_all" style="fill:white; stroke:black; stroke-width:1; " locus_tag="cds48922_50398" class="clusterblast-orf" description="&lt;b&gt;cds48922_50398&lt;/b&gt;&lt;br&gt;3-[(3aS,4S,7aS)-7a-methyl-1,5-dioxo-octahydro- 1H-inden-4-yl]propanoyl:CoA ligase (EC 6.2.1.41) @ Long-chain fatty-acid-CoA ligase (EC 6.2.1.3), Mycobacterial subgroup FadD3&lt;br&gt;Location: 48922 - 50398" points="287,40 310,40 315,35 310,30 287,30 287,40 "  />
<polygon id="dummy-1_q12_0_all" style="fill:white; stroke:black; stroke-width:1; " locus_tag="cds50394_51225" class="clusterblast-orf" description="&lt;b&gt;cds50394_51225&lt;/b&gt;&lt;br&gt;Enoyl-CoA hydratase (EC 4.2.1.17)&lt;br&gt;Location: 50394 - 51225" points="315,40 325,40 330,35 325,30 315,30 315,40 "  />
<polygon id="dummy-1_q13_0_all" style="fill:white; stroke:black; stroke-width:1; " locus_tag="cds51224_52316" class="clusterblast-orf" description="&lt;b&gt;cds51224_52316&lt;/b&gt;&lt;br&gt;Acyl-CoA dehydrogenase (EC 1.3.8.1), Mycobacterial subgroup FadE31&lt;br&gt;Location: 51224 - 52316" points="330,40 346,40 351,35 346,30 330,30 330,40 "  />
<polygon id="dummy-1_q14_0_all" style="fill:white; stroke:black; stroke-width:1; " locus_tag="cds52312_53116" class="clusterblast-orf" description="&lt;b&gt;cds52312_53116&lt;/b&gt;&lt;br&gt;Acyl-CoA dehydrogenase (EC 1.3.8.1), Mycobacterial subgroup FadE32&lt;br&gt;Location: 52312 - 53116" points="351,40 361,40 366,35 361,30 351,30 351,40 "  />
<polygon id="dummy-1_q15_0_all" style="fill:white; stroke:black; stroke-width:1; " locus_tag="cds53112_54135" class="clusterblast-orf" description="&lt;b&gt;cds53112_54135&lt;/b&gt;&lt;br&gt;Acyl-CoA dehydrogenase (EC 1.3.8.1), Mycobacterial subgroup FadE33&lt;br&gt;Location: 53112 - 54135" points="366,40 381,40 386,35 381,30 366,30 366,40 "  />
<polygon id="dummy-1_q16_0_all" style="fill:white; stroke:black; stroke-width:1; " locus_tag="cds54144_54564" class="clusterblast-orf" description="&lt;b&gt;cds54144_54564&lt;/b&gt;&lt;br&gt;Transcriptional regulator, MerR family&lt;br&gt;Location: 54144 - 54564" points="386,35 391,30 394,30 394,40 391,40 386,35 "  />
<polygon id="dummy-1_q17_0_all" style="fill:white; stroke:black; stroke-width:1; " locus_tag="cds54606_55422" class="clusterblast-orf" description="&lt;b&gt;cds54606_55422&lt;/b&gt;&lt;br&gt;SAM-dependent methyltransferase&lt;br&gt;Location: 54606 - 55422" points="395,40 405,40 410,35 405,30 395,30 395,40 "  />
<polygon id="dummy-1_q18_0_all" style="fill:white; stroke:black; stroke-width:1; " locus_tag="cds55407_55896" class="clusterblast-orf" description="&lt;b&gt;cds55407_55896&lt;/b&gt;&lt;br&gt;Flavin-dependent monooxygenase, reductase subunit HsaB (EC 1.5.1.36)&lt;br&gt;Location: 55407 - 55896" points="410,35 415,30 419,30 419,40 415,40 410,35 "  />
<polygon id="dummy-1_q19_0_all" style="fill:white; stroke:black; stroke-width:1; " locus_tag="cds55943_56846" class="clusterblast-orf" description="&lt;b&gt;cds55943_56846&lt;/b&gt;&lt;br&gt;Iron-dependent extradiol dioxygenase (EC 1.13.11.25)&lt;br&gt;Location: 55943 - 56846" points="420,35 425,30 437,30 437,40 425,40 420,35 "  />
<polygon id="dummy-1_q20_0_all" style="fill:white; stroke:black; stroke-width:1; " locus_tag="cds56845_57655" class="clusterblast-orf" description="&lt;b&gt;cds56845_57655&lt;/b&gt;&lt;br&gt;4,5-9,10-diseco-3-hydroxy-5,9,17-trioxoandrosta- 1(10),2-diene-4-oate hydrolase (EC 3.7.1.17)&lt;br&gt;Location: 56845 - 57655" points="437,35 442,30 453,30 453,40 442,40 437,35 "  />
<polygon id="dummy-1_q21_0_all" style="fill:white; stroke:black; stroke-width:1; " locus_tag="cds57665_58832" class="clusterblast-orf" description="&lt;b&gt;cds57665_58832&lt;/b&gt;&lt;br&gt;Flavin-dependent monooxygenase, oxygenase subunit HsaA (EC 1.14.14.12)&lt;br&gt;Location: 57665 - 58832" points="453,35 458,30 475,30 475,40 458,40 453,35 "  />
<polygon id="dummy-1_q22_0_all" style="fill:white; stroke:black; stroke-width:1; " locus_tag="cds58828_59839" class="clusterblast-orf" description="&lt;b&gt;cds58828_59839&lt;/b&gt;&lt;br&gt;4-hydroxy-2-oxovalerate aldolase (EC 4.1.3.39)&lt;br&gt;Location: 58828 - 59839" points="475,35 480,30 494,30 494,40 480,40 475,35 "  />
<polygon id="dummy-1_q23_0_all" style="fill:white; stroke:black; stroke-width:1; " locus_tag="cds59804_60683" class="clusterblast-orf" description="&lt;b&gt;cds59804_60683&lt;/b&gt;&lt;br&gt;Acetaldehyde dehydrogenase, acetylating, (EC 1.2.1.10) in gene cluster for degradation of phenols, cresols, catechol&lt;br&gt;Location: 59804 - 60683" points="494,35 499,30 510,30 510,40 499,40 494,35 "  />
<polygon id="dummy-1_q24_0_all" style="fill:white; stroke:black; stroke-width:1; " locus_tag="cds60693_61464" class="clusterblast-orf" description="&lt;b&gt;cds60693_61464&lt;/b&gt;&lt;br&gt;2-keto-4-pentenoate hydratase (EC 4.2.1.80)&lt;br&gt;Location: 60693 - 61464" points="511,35 516,30 525,30 525,40 516,40 511,35 "  />
<polygon id="dummy-1_q25_0_all" style="fill:white; stroke:black; stroke-width:1; " locus_tag="cds61457_62915" class="clusterblast-orf" description="&lt;b&gt;cds61457_62915&lt;/b&gt;&lt;br&gt;fumarate reductase/succinate dehydrogenase flavoprotein, N-terminal:FAD dependent oxidoreductase&lt;br&gt;Location: 61457 - 62915" points="525,35 530,30 553,30 553,40 530,40 525,35 "  />
<polygon id="dummy-1_q26_0_all" style="fill:white; stroke:black; stroke-width:1; " locus_tag="cds63046_64618" class="clusterblast-orf" description="&lt;b&gt;cds63046_64618&lt;/b&gt;&lt;br&gt;3-oxosteroid 1-dehydrogenase (EC 1.3.99.4)&lt;br&gt;Location: 63046 - 64618" points="555,40 580,40 585,35 580,30 555,30 555,40 "  />
<polygon id="dummy-1_q27_0_all" style="fill:white; stroke:black; stroke-width:1; " locus_tag="cds64614_65751" class="clusterblast-orf" description="&lt;b&gt;cds64614_65751&lt;/b&gt;&lt;br&gt;3-ketosteroid-9-alpha-monooxygenase, oxygenase component (EC 1.14.13.142)&lt;br&gt;Location: 64614 - 65751" points="585,40 602,40 607,35 602,30 585,30 585,40 "  />
<polygon id="dummy-1_q28_0_all" style="fill:white; stroke:black; stroke-width:1; " locus_tag="cds65747_65987" class="clusterblast-orf" description="&lt;b&gt;cds65747_65987&lt;/b&gt;&lt;br&gt;hypothetical protein&lt;br&gt;Location: 65747 - 65987" points="607,40 611,35 607,30 607,40 "  />
<polygon id="dummy-1_q29_0_all" style="fill:white; stroke:black; stroke-width:1; " locus_tag="cds65979_66948" class="clusterblast-orf" description="&lt;b&gt;cds65979_66948&lt;/b&gt;&lt;br&gt;Putative oxidoreductase&lt;br&gt;Location: 65979 - 66948" points="611,40 625,40 630,35 625,30 611,30 611,40 "  />
<polygon id="dummy-1_q30_0_all" style="fill:#15d8d8; stroke:black; stroke-width:1; " locus_tag="cds66958_67792" class="clusterblast-orf" description="&lt;b&gt;cds66958_67792&lt;/b&gt;&lt;br&gt;FIG00999917: Enoyl-CoA hydratase&lt;br&gt;Location: 66958 - 67792" points="630,40 641,40 646,35 641,30 630,30 630,40 "  />
<polygon id="dummy-1_q31_0_all" style="fill:white; stroke:black; stroke-width:1; " locus_tag="cds67771_68914" class="clusterblast-orf" description="&lt;b&gt;cds67771_68914&lt;/b&gt;&lt;br&gt;Sterol carrier protein IgrF&lt;br&gt;Location: 67771 - 68914" points="645,35 650,30 667,30 667,40 650,40 645,35 "  />
<polygon id="dummy-1_q32_0_all" style="fill:white; stroke:black; stroke-width:1; " locus_tag="cds68910_69294" class="clusterblast-orf" description="&lt;b&gt;cds68910_69294&lt;/b&gt;&lt;br&gt;Enoyl coenzyme A hydratase IgrE&lt;br&gt;Location: 68910 - 69294" points="667,35 672,30 674,30 674,40 672,40 667,35 "  />
</g>
<g class="clusterblast-cluster" label="BGC0001140" description="BGC0001140_c1: platensimycin / platencin (5% of genes show similarity), Terpene"  >
<text x="5" class="clusterblast-acc" y="70"  >
<a xlink:href="https://mibig.secondarymetabolites.org/go/BGC0001140/1" target="_blank">BGC0001140</a>:                                                        platensimycin / platencin (5% of genes show similarity), Terpene</text>
<line y2="85" x2="778.0" x1="10" style="stroke-width:1; stroke:grey; " y1="85"  />
</g>
<g id="a1_000"  >
<polygon id="dummy-1_h1_2_0" style="fill:white; stroke:black; stroke-width:1; " locus_tag="ACS13712.1" class="clusterblast-orf" description="&lt;b&gt;ACS13712.1&lt;/b&gt;&lt;br&gt;PtmO9&lt;br&gt;Location: 45606 - 45271" points="0,85 5,80 6,80 6,90 5,90 0,85 "  />
</g>
<g id="a1_001"  >
<polygon id="dummy-1_h1_2_1" style="fill:white; stroke:black; stroke-width:1; " locus_tag="ACS13711.1" class="clusterblast-orf" description="&lt;b&gt;ACS13711.1&lt;/b&gt;&lt;br&gt;PtmP4&lt;br&gt;Location: 45247 - 43625" points="6,85 11,80 37,80 37,90 11,90 6,85 "  />
</g>
<g id="a1_002"  >
<polygon id="dummy-1_h1_2_2" style="fill:white; stroke:black; stroke-width:1; " locus_tag="ACS13710.1" class="clusterblast-orf" description="&lt;b&gt;ACS13710.1&lt;/b&gt;&lt;br&gt;PtmP3&lt;br&gt;Location: 43507 - 42293" points="39,85 44,80 63,80 63,90 44,90 39,85 "  />
</g>
<g id="a1_003"  >
<polygon id="dummy-1_h1_2_3" style="fill:white; stroke:black; stroke-width:1; " locus_tag="ACO31297.1" class="clusterblast-orf" description="&lt;b&gt;ACO31297.1&lt;/b&gt;&lt;br&gt;PtmA3&lt;br&gt;Location: 42125 - 40542" points="66,85 71,80 96,80 96,90 71,90 66,85 "  />
</g>
<g id="a1_004"  >
<polygon id="dummy-1_h1_2_4" style="fill:white; stroke:black; stroke-width:1; " locus_tag="ACO31296.1" class="clusterblast-orf" description="&lt;b&gt;ACO31296.1&lt;/b&gt;&lt;br&gt;PtmU4&lt;br&gt;Location: 40503 - 38713" points="97,85 102,80 131,80 131,90 102,90 97,85 "  />
</g>
<g id="a1_005"  >
<polygon id="dummy-1_h1_2_5" style="fill:white; stroke:black; stroke-width:1; " locus_tag="ACO31295.1" class="clusterblast-orf" description="&lt;b&gt;ACO31295.1&lt;/b&gt;&lt;br&gt;PtmO8&lt;br&gt;Location: 38716 - 37880" points="131,85 136,80 147,80 147,90 136,90 131,85 "  />
</g>
<g id="a1_006"  >
<polygon id="dummy-1_h1_2_6" style="fill:white; stroke:black; stroke-width:1; " locus_tag="ACO31294.1" class="clusterblast-orf" description="&lt;b&gt;ACO31294.1&lt;/b&gt;&lt;br&gt;PtmR1&lt;br&gt;Location: 37588 - 36872" points="152,90 161,90 166,85 161,80 152,80 152,90 "  />
</g>
<g id="a1_007"  >
<polygon id="dummy-1_h1_2_7" style="fill:#d81515; stroke:black; stroke-width:1; " locus_tag="ACO31293.1" class="clusterblast-orf" description="&lt;b&gt;ACO31293.1&lt;/b&gt;&lt;br&gt;PtmO7&lt;br&gt;Location: 36839 - 35934&lt;br&gt;&lt;br&gt;&lt;b&gt;BlastP hit with cds40341_41196&lt;/b&gt;&lt;br&gt;Percentage identity: 56&lt;br&gt;Percentage coverage: 100&lt;br&gt;BLAST bit score: 274&lt;br&gt;E-value: 1.6e-73" points="166,85 171,80 184,80 184,90 171,90 166,85 "  />
</g>
<g id="a1_008"  >
<polygon id="dummy-1_h1_2_8" style="fill:white; stroke:black; stroke-width:1; " locus_tag="ACO31292.1" class="clusterblast-orf" description="&lt;b&gt;ACO31292.1&lt;/b&gt;&lt;br&gt;PtmP2&lt;br&gt;Location: 35919 - 34675" points="184,85 189,80 208,80 208,90 189,90 184,85 "  />
</g>
<g id="a1_009"  >
<polygon id="dummy-1_h1_2_9" style="fill:white; stroke:black; stroke-width:1; " locus_tag="ACO31291.1" class="clusterblast-orf" description="&lt;b&gt;ACO31291.1&lt;/b&gt;&lt;br&gt;PtmP1&lt;br&gt;Location: 34603 - 33179" points="209,90 231,90 236,85 231,80 209,80 209,90 "  />
</g>
<g id="a1_0010"  >
<polygon id="dummy-1_h1_2_10" style="fill:white; stroke:black; stroke-width:1; " locus_tag="ACO31290.1" class="clusterblast-orf" description="&lt;b&gt;ACO31290.1&lt;/b&gt;&lt;br&gt;PtmC&lt;br&gt;Location: 33093 - 32218" points="238,85 243,80 254,80 254,90 243,90 238,85 "  />
</g>
<g id="a1_0011"  >
<polygon id="dummy-1_h1_2_11" style="fill:white; stroke:black; stroke-width:1; " locus_tag="ACO31289.1" class="clusterblast-orf" description="&lt;b&gt;ACO31289.1&lt;/b&gt;&lt;br&gt;PtmB3&lt;br&gt;Location: 32159 - 30969" points="255,85 260,80 278,80 278,90 260,90 255,85 "  />
</g>
<g id="a1_0012"  >
<polygon id="dummy-1_h1_2_12" style="fill:white; stroke:black; stroke-width:1; " locus_tag="ACO31288.1" class="clusterblast-orf" description="&lt;b&gt;ACO31288.1&lt;/b&gt;&lt;br&gt;PtmB2&lt;br&gt;Location: 30963 - 29857" points="278,85 283,80 299,80 299,90 283,90 278,85 "  />
</g>
<g id="a1_0013"  >
<polygon id="dummy-1_h1_2_13" style="fill:white; stroke:black; stroke-width:1; " locus_tag="ACO31287.1" class="clusterblast-orf" description="&lt;b&gt;ACO31287.1&lt;/b&gt;&lt;br&gt;PtmB1&lt;br&gt;Location: 29805 - 28972" points="300,85 305,80 316,80 316,90 305,90 300,85 "  />
</g>
<g id="a1_0014"  >
<polygon id="dummy-1_h1_2_14" style="fill:white; stroke:black; stroke-width:1; " locus_tag="ACO31286.1" class="clusterblast-orf" description="&lt;b&gt;ACO31286.1&lt;/b&gt;&lt;br&gt;PtmM3&lt;br&gt;Location: 28894 - 27131" points="318,85 323,80 351,80 351,90 323,90 318,85 "  />
</g>
<g id="a1_0015"  >
<polygon id="dummy-1_h1_2_15" style="fill:white; stroke:black; stroke-width:1; " locus_tag="ACO31285.1" class="clusterblast-orf" description="&lt;b&gt;ACO31285.1&lt;/b&gt;&lt;br&gt;PtmM2&lt;br&gt;Location: 27144 - 26044" points="351,85 356,80 372,80 372,90 356,90 351,85 "  />
</g>
<g id="a1_0016"  >
<polygon id="dummy-1_h1_2_16" style="fill:white; stroke:black; stroke-width:1; " locus_tag="ACO31284.1" class="clusterblast-orf" description="&lt;b&gt;ACO31284.1&lt;/b&gt;&lt;br&gt;PtmM1&lt;br&gt;Location: 26036 - 24690" points="372,85 377,80 398,80 398,90 377,90 372,85 "  />
</g>
<g id="a1_0017"  >
<polygon id="dummy-1_h1_2_17" style="fill:white; stroke:black; stroke-width:1; " locus_tag="ACO31283.1" class="clusterblast-orf" description="&lt;b&gt;ACO31283.1&lt;/b&gt;&lt;br&gt;PtmT4&lt;br&gt;Location: 24690 - 23644" points="398,85 403,80 418,80 418,90 403,90 398,85 "  />
</g>
<g id="a1_0018"  >
<polygon id="dummy-1_h1_2_18" style="fill:white; stroke:black; stroke-width:1; " locus_tag="ACO31282.1" class="clusterblast-orf" description="&lt;b&gt;ACO31282.1&lt;/b&gt;&lt;br&gt;PtmO6&lt;br&gt;Location: 23587 - 22745" points="419,85 424,80 435,80 435,90 424,90 419,85 "  />
</g>
<g id="a1_0019"  >
<polygon id="dummy-1_h1_2_19" style="fill:white; stroke:black; stroke-width:1; " locus_tag="ACO31281.1" class="clusterblast-orf" description="&lt;b&gt;ACO31281.1&lt;/b&gt;&lt;br&gt;PtmR3&lt;br&gt;Location: 22657 - 21590" points="436,85 441,80 457,80 457,90 441,90 436,85 "  />
</g>
<g id="a1_0020"  >
<polygon id="dummy-1_h1_2_20" style="fill:white; stroke:black; stroke-width:1; " locus_tag="ACO31280.1" class="clusterblast-orf" description="&lt;b&gt;ACO31280.1&lt;/b&gt;&lt;br&gt;PtmO5&lt;br&gt;Location: 21593 - 20301" points="457,85 462,80 481,80 481,90 462,90 457,85 "  />
</g>
<g id="a1_0021"  >
<polygon id="dummy-1_h1_2_21" style="fill:white; stroke:black; stroke-width:1; " locus_tag="ACO31279.1" class="clusterblast-orf" description="&lt;b&gt;ACO31279.1&lt;/b&gt;&lt;br&gt;PtmT3&lt;br&gt;Location: 20260 - 19331" points="482,85 487,80 500,80 500,90 487,90 482,85 "  />
</g>
<g id="a1_0022"  >
<polygon id="dummy-1_h1_2_22" style="fill:white; stroke:black; stroke-width:1; " locus_tag="ACO31278.1" class="clusterblast-orf" description="&lt;b&gt;ACO31278.1&lt;/b&gt;&lt;br&gt;PtmO4&lt;br&gt;Location: 19334 - 18168" points="500,85 505,80 522,80 522,90 505,90 500,85 "  />
</g>
<g id="a1_0023"  >
<polygon id="dummy-1_h1_2_23" style="fill:white; stroke:black; stroke-width:1; " locus_tag="ACO31277.1" class="clusterblast-orf" description="&lt;b&gt;ACO31277.1&lt;/b&gt;&lt;br&gt;PtmO3&lt;br&gt;Location: 18168 - 17311" points="522,85 527,80 538,80 538,90 527,90 522,85 "  />
</g>
<g id="a1_0024"  >
<polygon id="dummy-1_h1_2_24" style="fill:white; stroke:black; stroke-width:1; " locus_tag="ACO31276.1" class="clusterblast-orf" description="&lt;b&gt;ACO31276.1&lt;/b&gt;&lt;br&gt;PtmT2&lt;br&gt;Location: 17173 - 15572" points="541,90 566,90 571,85 566,80 541,80 541,90 "  />
</g>
<g id="a1_0025"  >
<polygon id="dummy-1_h1_2_25" style="fill:white; stroke:black; stroke-width:1; " locus_tag="ACO31275.1" class="clusterblast-orf" description="&lt;b&gt;ACO31275.1&lt;/b&gt;&lt;br&gt;PtmO2&lt;br&gt;Location: 15572 - 14250" points="571,90 591,90 596,85 591,80 571,80 571,90 "  />
</g>
<g id="a1_0026"  >
<polygon id="dummy-1_h1_2_26" style="fill:white; stroke:black; stroke-width:1; " locus_tag="ACO31274.1" class="clusterblast-orf" description="&lt;b&gt;ACO31274.1&lt;/b&gt;&lt;br&gt;PtmT1&lt;br&gt;Location: 14253 - 13327" points="596,90 609,90 614,85 609,80 596,80 596,90 "  />
</g>
<g id="a1_0027"  >
<polygon id="dummy-1_h1_2_27" style="fill:#15d8d8; stroke:black; stroke-width:1; " locus_tag="ACO31273.1" class="clusterblast-orf" description="&lt;b&gt;ACO31273.1&lt;/b&gt;&lt;br&gt;PtmH&lt;br&gt;Location: 13262 - 12408&lt;br&gt;&lt;br&gt;&lt;b&gt;BlastP hit with cds66958_67792&lt;/b&gt;&lt;br&gt;Percentage identity: 49&lt;br&gt;Percentage coverage: 103&lt;br&gt;BLAST bit score: 256&lt;br&gt;E-value: 5.7e-68" points="615,90 626,90 631,85 626,80 615,80 615,90 "  />
</g>
<g id="a1_0028"  >
<polygon id="dummy-1_h1_2_28" style="fill:white; stroke:black; stroke-width:1; " locus_tag="ACO31272.1" class="clusterblast-orf" description="&lt;b&gt;ACO31272.1&lt;/b&gt;&lt;br&gt;PtmU3&lt;br&gt;Location: 12326 - 11244" points="633,90 649,90 654,85 649,80 633,80 633,90 "  />
</g>
<g id="a1_0029"  >
<polygon id="dummy-1_h1_2_29" style="fill:white; stroke:black; stroke-width:1; " locus_tag="ACO31271.1" class="clusterblast-orf" description="&lt;b&gt;ACO31271.1&lt;/b&gt;&lt;br&gt;PtmA2&lt;br&gt;Location: 11215 - 9647" points="654,90 679,90 684,85 679,80 654,80 654,90 "  />
</g>
<g id="a1_0030"  >
<polygon id="dummy-1_h1_2_30" style="fill:white; stroke:black; stroke-width:1; " locus_tag="ACO31270.1" class="clusterblast-orf" description="&lt;b&gt;ACO31270.1&lt;/b&gt;&lt;br&gt;PtmD&lt;br&gt;Location: 9645 - 8488" points="684,90 701,90 706,85 701,80 684,80 684,90 "  />
</g>
<g id="a1_0031"  >
<polygon id="dummy-1_h1_2_31" style="fill:white; stroke:black; stroke-width:1; " locus_tag="ACO31269.1" class="clusterblast-orf" description="&lt;b&gt;ACO31269.1&lt;/b&gt;&lt;br&gt;PtmR2&lt;br&gt;Location: 8488 - 8087" points="706,90 709,90 714,85 709,80 706,80 706,90 "  />
</g>
<g id="a1_0032"  >
<polygon id="dummy-1_h1_2_32" style="fill:white; stroke:black; stroke-width:1; " locus_tag="ACO31268.1" class="clusterblast-orf" description="&lt;b&gt;ACO31268.1&lt;/b&gt;&lt;br&gt;PtmU2&lt;br&gt;Location: 8041 - 7331" points="715,85 720,80 728,80 728,90 720,90 715,85 "  />
</g>
<g id="a1_0033"  >
<polygon id="dummy-1_h1_2_33" style="fill:white; stroke:black; stroke-width:1; " locus_tag="ACO31267.1" class="clusterblast-orf" description="&lt;b&gt;ACO31267.1&lt;/b&gt;&lt;br&gt;PtmA1&lt;br&gt;Location: 7334 - 6030" points="728,85 733,80 753,80 753,90 733,90 728,85 "  />
</g>
<g id="a1_0034"  >
<polygon id="dummy-1_h1_2_34" style="fill:white; stroke:black; stroke-width:1; " locus_tag="ACO31266.1" class="clusterblast-orf" description="&lt;b&gt;ACO31266.1&lt;/b&gt;&lt;br&gt;PtmU1&lt;br&gt;Location: 5943 - 5389" points="754,90 760,90 765,85 760,80 754,80 754,90 "  />
</g>
<g id="a1_0035"  >
<polygon id="dummy-1_h1_2_35" style="fill:white; stroke:black; stroke-width:1; " locus_tag="ACO31265.1" class="clusterblast-orf" description="&lt;b&gt;ACO31265.1&lt;/b&gt;&lt;br&gt;Ptm01&lt;br&gt;Location: 5392 - 4628" points="765,90 775,90 780,85 775,80 765,80 765,90 "  />
</g>
</svg>
