<svg xmlns:xlink="http://www.w3.org/1999/xlink" x="0" xmlns="http://www.w3.org/2000/svg" version="1.1" preserveAspectRatio="none" viewBox="0 0 800 230" y="0" height="230" width="800"  >
<g class="clusterblast-cluster" label="Query sequence"  >
<text x="5" class="clusterblast-acc" y="20"  >
Query sequence</text>
<line y2="35" x2="778.0" x1="10" style="stroke-width:1; stroke:grey; " y1="35"  />
<polygon id="dummy-1_q0_0_all" style="fill:white; stroke:black; stroke-width:1; " locus_tag="cds2_13985" class="clusterblast-orf" description="&lt;b&gt;cds2_13985&lt;/b&gt;&lt;br&gt;Siderophore biosynthesis non-ribosomal peptide synthetase modules&lt;br&gt;Location: 2 - 13985" points="0,35 5,30 84,30 84,40 5,40 0,35 "  />
<polygon id="dummy-1_q1_0_all" style="fill:white; stroke:black; stroke-width:1; " locus_tag="cds13997_27584" class="clusterblast-orf" description="&lt;b&gt;cds13997_27584&lt;/b&gt;&lt;br&gt;Polyketide synthase modules and related proteins&lt;br&gt;Location: 13997 - 27584" points="84,35 89,30 167,30 167,40 89,40 84,35 "  />
<polygon id="dummy-1_q2_0_all" style="fill:white; stroke:black; stroke-width:1; " locus_tag="cds27664_28987" class="clusterblast-orf" description="&lt;b&gt;cds27664_28987&lt;/b&gt;&lt;br&gt;hypothetical protein&lt;br&gt;Location: 27664 - 28987" points="167,35 172,30 175,30 175,40 172,40 167,35 "  />
<polygon id="dummy-1_q3_0_all" style="fill:white; stroke:black; stroke-width:1; " locus_tag="cds29348_29552" class="clusterblast-orf" description="&lt;b&gt;cds29348_29552&lt;/b&gt;&lt;br&gt;MbtH-like NRPS chaperone&lt;br&gt;Location: 29348 - 29552" points="178,35 179,30 179,40 178,35 "  />
<polygon id="dummy-1_q4_0_all" style="fill:white; stroke:black; stroke-width:1; " locus_tag="cds29859_29988" class="clusterblast-orf" description="&lt;b&gt;cds29859_29988&lt;/b&gt;&lt;br&gt;hypothetical protein&lt;br&gt;Location: 29859 - 29988" points="181,40 181,35 181,30 181,40 "  />
<polygon id="dummy-1_q5_0_all" style="fill:white; stroke:black; stroke-width:1; " locus_tag="cds30265_31150" class="clusterblast-orf" description="&lt;b&gt;cds30265_31150&lt;/b&gt;&lt;br&gt;hypothetical protein&lt;br&gt;Location: 30265 - 31150" points="183,35 188,30 189,30 189,40 188,40 183,35 "  />
<polygon id="dummy-1_q6_0_all" style="fill:white; stroke:black; stroke-width:1; " locus_tag="cds31350_31677" class="clusterblast-orf" description="&lt;b&gt;cds31350_31677&lt;/b&gt;&lt;br&gt;hypothetical protein&lt;br&gt;Location: 31350 - 31677" points="190,40 192,35 190,30 190,40 "  />
<polygon id="dummy-1_q7_0_all" style="fill:white; stroke:black; stroke-width:1; " locus_tag="cds31932_33468" class="clusterblast-orf" description="&lt;b&gt;cds31932_33468&lt;/b&gt;&lt;br&gt;Uncharacterized MFS-type transporter&lt;br&gt;Location: 31932 - 33468" points="193,40 198,40 203,35 198,30 193,30 193,40 "  />
<polygon id="dummy-1_q8_0_all" style="fill:white; stroke:black; stroke-width:1; " locus_tag="cds33531_33738" class="clusterblast-orf" description="&lt;b&gt;cds33531_33738&lt;/b&gt;&lt;br&gt;hypothetical protein&lt;br&gt;Location: 33531 - 33738" points="203,35 204,30 204,40 203,35 "  />
<polygon id="dummy-1_q9_0_all" style="fill:white; stroke:black; stroke-width:1; " locus_tag="cds34065_36612" class="clusterblast-orf" description="&lt;b&gt;cds34065_36612&lt;/b&gt;&lt;br&gt;hypothetical protein&lt;br&gt;Location: 34065 - 36612" points="206,35 211,30 222,30 222,40 211,40 206,35 "  />
<polygon id="dummy-1_q10_0_all" style="fill:white; stroke:black; stroke-width:1; " locus_tag="cds36670_36946" class="clusterblast-orf" description="&lt;b&gt;cds36670_36946&lt;/b&gt;&lt;br&gt;hypothetical protein&lt;br&gt;Location: 36670 - 36946" points="222,35 224,30 224,40 222,35 "  />
<polygon id="dummy-1_q11_0_all" style="fill:white; stroke:black; stroke-width:1; " locus_tag="cds37530_40515" class="clusterblast-orf" description="&lt;b&gt;cds37530_40515&lt;/b&gt;&lt;br&gt;Transcriptional regulator, AfsR family&lt;br&gt;Location: 37530 - 40515" points="227,40 240,40 245,35 240,30 227,30 227,40 "  />
<polygon id="dummy-1_q12_0_all" style="fill:#d81515; stroke:black; stroke-width:1; " locus_tag="cds40603_42016" class="clusterblast-orf" description="&lt;b&gt;cds40603_42016&lt;/b&gt;&lt;br&gt;hypothetical protein&lt;br&gt;Location: 40603 - 42016" points="246,35 251,30 254,30 254,40 251,40 246,35 "  />
<polygon id="dummy-1_q13_0_all" style="fill:white; stroke:black; stroke-width:1; " locus_tag="cds42320_42587" class="clusterblast-orf" description="&lt;b&gt;cds42320_42587&lt;/b&gt;&lt;br&gt;hypothetical protein&lt;br&gt;Location: 42320 - 42587" points="256,35 258,30 258,40 256,35 "  />
<polygon id="dummy-1_q14_0_all" style="fill:#33d815; stroke:black; stroke-width:1; " locus_tag="cds42761_43505" class="clusterblast-orf" description="&lt;b&gt;cds42761_43505&lt;/b&gt;&lt;br&gt;hypothetical protein&lt;br&gt;Location: 42761 - 43505" points="259,35 264,30 264,30 264,40 264,40 259,35 "  />
<polygon id="dummy-1_q15_0_all" style="fill:#15abd8; stroke:black; stroke-width:1; " locus_tag="cds43501_44563" class="clusterblast-orf" description="&lt;b&gt;cds43501_44563&lt;/b&gt;&lt;br&gt;FkbH like protein&lt;br&gt;Location: 43501 - 44563" points="263,35 268,30 270,30 270,40 268,40 263,35 "  />
<polygon id="dummy-1_q16_0_all" style="fill:#8d15d8; stroke:black; stroke-width:1; " locus_tag="cds44559_45699" class="clusterblast-orf" description="&lt;b&gt;cds44559_45699&lt;/b&gt;&lt;br&gt;Acyl-CoA dehydrogenase&lt;br&gt;Location: 44559 - 45699" points="270,35 275,30 277,30 277,40 275,40 270,35 "  />
<polygon id="dummy-1_q17_0_all" style="fill:#d86f15; stroke:black; stroke-width:1; " locus_tag="cds45710_45962" class="clusterblast-orf" description="&lt;b&gt;cds45710_45962&lt;/b&gt;&lt;br&gt;Acyl carrier protein&lt;br&gt;Location: 45710 - 45962" points="277,35 278,30 278,40 277,35 "  />
<polygon id="dummy-1_q18_0_all" style="fill:#15d851; stroke:black; stroke-width:1; " locus_tag="cds46007_46859" class="clusterblast-orf" description="&lt;b&gt;cds46007_46859&lt;/b&gt;&lt;br&gt;3-hydroxybutyryl-CoA dehydrogenase (EC 1.1.1.157)&lt;br&gt;Location: 46007 - 46859" points="279,35 284,30 284,30 284,40 284,40 279,35 "  />
<polygon id="dummy-1_q19_0_all" style="fill:#1551d8; stroke:black; stroke-width:1; " locus_tag="cds46966_49777" class="clusterblast-orf" description="&lt;b&gt;cds46966_49777&lt;/b&gt;&lt;br&gt;Polyketide synthase modules and related proteins&lt;br&gt;Location: 46966 - 49777" points="285,35 290,30 302,30 302,40 290,40 285,35 "  />
<polygon id="dummy-1_q20_0_all" style="fill:#d815c9; stroke:black; stroke-width:1; " locus_tag="cds49784_58556" class="clusterblast-orf" description="&lt;b&gt;cds49784_58556&lt;/b&gt;&lt;br&gt;Modular polyketide synthase&lt;br&gt;Location: 49784 - 58556" points="302,35 307,30 355,30 355,40 307,40 302,35 "  />
<polygon id="dummy-1_q21_0_all" style="fill:#d815c9; stroke:black; stroke-width:1; " locus_tag="cds58585_64930" class="clusterblast-orf" description="&lt;b&gt;cds58585_64930&lt;/b&gt;&lt;br&gt;Modular polyketide synthase&lt;br&gt;Location: 58585 - 64930" points="355,35 360,30 393,30 393,40 360,40 355,35 "  />
<polygon id="dummy-1_q22_0_all" style="fill:#d815c9; stroke:black; stroke-width:1; " locus_tag="cds64994_87098" class="clusterblast-orf" description="&lt;b&gt;cds64994_87098&lt;/b&gt;&lt;br&gt;Modular polyketide synthase&lt;br&gt;Location: 64994 - 87098" points="394,35 399,30 528,30 528,40 399,40 394,35 "  />
<polygon id="dummy-1_q23_0_all" style="fill:#d815c9; stroke:black; stroke-width:1; " locus_tag="cds87121_91582" class="clusterblast-orf" description="&lt;b&gt;cds87121_91582&lt;/b&gt;&lt;br&gt;Modular polyketide synthase&lt;br&gt;Location: 87121 - 91582" points="528,35 533,30 555,30 555,40 533,40 528,35 "  />
<polygon id="dummy-1_q24_0_all" style="fill:#d815c9; stroke:black; stroke-width:1; " locus_tag="cds91581_97008" class="clusterblast-orf" description="&lt;b&gt;cds91581_97008&lt;/b&gt;&lt;br&gt;Modular polyketide synthase&lt;br&gt;Location: 91581 - 97008" points="555,35 560,30 588,30 588,40 560,40 555,35 "  />
<polygon id="dummy-1_q25_0_all" style="fill:#d815c9; stroke:black; stroke-width:1; " locus_tag="cds97054_108757" class="clusterblast-orf" description="&lt;b&gt;cds97054_108757&lt;/b&gt;&lt;br&gt;Modular polyketide synthase&lt;br&gt;Location: 97054 - 108757" points="588,35 593,30 659,30 659,40 593,40 588,35 "  />
<polygon id="dummy-1_q26_0_all" style="fill:white; stroke:black; stroke-width:1; " locus_tag="cds108859_109033" class="clusterblast-orf" description="&lt;b&gt;cds108859_109033&lt;/b&gt;&lt;br&gt;hypothetical protein&lt;br&gt;Location: 108859 - 109033" points="660,35 661,30 661,40 660,35 "  />
<polygon id="dummy-1_q27_0_all" style="fill:#d8c915; stroke:black; stroke-width:1; " locus_tag="cds109137_110064" class="clusterblast-orf" description="&lt;b&gt;cds109137_110064&lt;/b&gt;&lt;br&gt;hypothetical protein&lt;br&gt;Location: 109137 - 110064" points="662,40 662,40 667,35 662,30 662,30 662,40 "  />
<polygon id="dummy-1_q28_0_all" style="fill:#15d8ab; stroke:black; stroke-width:1; " locus_tag="cds110161_111829" class="clusterblast-orf" description="&lt;b&gt;cds110161_111829&lt;/b&gt;&lt;br&gt;Lysine 2-monooxygenase (EC 1.13.12.2)&lt;br&gt;Location: 110161 - 111829" points="668,40 673,40 678,35 673,30 668,30 668,40 "  />
<polygon id="dummy-1_q29_0_all" style="fill:#3315d8; stroke:black; stroke-width:1; " locus_tag="cds111879_112731" class="clusterblast-orf" description="&lt;b&gt;cds111879_112731&lt;/b&gt;&lt;br&gt;5-aminopentanamidase (EC 3.5.1.30)&lt;br&gt;Location: 111879 - 112731" points="678,35 683,30 684,30 684,40 683,40 678,35 "  />
<polygon id="dummy-1_q30_0_all" style="fill:white; stroke:black; stroke-width:1; " locus_tag="cds112740_113340" class="clusterblast-orf" description="&lt;b&gt;cds112740_113340&lt;/b&gt;&lt;br&gt;putative membrane protein&lt;br&gt;Location: 112740 - 113340" points="684,35 687,30 687,40 684,35 "  />
<polygon id="dummy-1_q31_0_all" style="fill:white; stroke:black; stroke-width:1; " locus_tag="cds114058_115420" class="clusterblast-orf" description="&lt;b&gt;cds114058_115420&lt;/b&gt;&lt;br&gt;hypothetical protein&lt;br&gt;Location: 114058 - 115420" points="692,35 697,30 700,30 700,40 697,40 692,35 "  />
<polygon id="dummy-1_q32_0_all" style="fill:#d8156f; stroke:black; stroke-width:1; " locus_tag="cds115515_117621" class="clusterblast-orf" description="&lt;b&gt;cds115515_117621&lt;/b&gt;&lt;br&gt;putative secreted protein&lt;br&gt;Location: 115515 - 117621" points="700,35 705,30 713,30 713,40 705,40 700,35 "  />
<polygon id="dummy-1_q33_0_all" style="fill:#8dd815; stroke:black; stroke-width:1; " locus_tag="cds117802_118711" class="clusterblast-orf" description="&lt;b&gt;cds117802_118711&lt;/b&gt;&lt;br&gt;putative secreted protein&lt;br&gt;Location: 117802 - 118711" points="714,40 715,40 720,35 715,30 714,30 714,40 "  />
<polygon id="dummy-1_q34_0_all" style="fill:white; stroke:black; stroke-width:1; " locus_tag="cds118789_119341" class="clusterblast-orf" description="&lt;b&gt;cds118789_119341&lt;/b&gt;&lt;br&gt;hypothetical protein&lt;br&gt;Location: 118789 - 119341" points="720,35 724,30 724,40 720,35 "  />
<polygon id="dummy-1_q35_0_all" style="fill:white; stroke:black; stroke-width:1; " locus_tag="cds119648_121844" class="clusterblast-orf" description="&lt;b&gt;cds119648_121844&lt;/b&gt;&lt;br&gt;putative secreted protein&lt;br&gt;Location: 119648 - 121844" points="725,35 730,30 739,30 739,40 730,40 725,35 "  />
<polygon id="dummy-1_q36_0_all" style="fill:white; stroke:black; stroke-width:1; " locus_tag="cds121937_122951" class="clusterblast-orf" description="&lt;b&gt;cds121937_122951&lt;/b&gt;&lt;br&gt;Transcriptional regulator, LacI family&lt;br&gt;Location: 121937 - 122951" points="739,35 744,30 746,30 746,40 744,40 739,35 "  />
<polygon id="dummy-1_q37_0_all" style="fill:white; stroke:black; stroke-width:1; " locus_tag="cds122989_126082" class="clusterblast-orf" description="&lt;b&gt;cds122989_126082&lt;/b&gt;&lt;br&gt;beta-galactosidase (EC 3.2.1.23)&lt;br&gt;Location: 122989 - 126082" points="746,35 751,30 765,30 765,40 751,40 746,35 "  />
<polygon id="dummy-1_q38_0_all" style="fill:white; stroke:black; stroke-width:1; " locus_tag="cds126316_126967" class="clusterblast-orf" description="&lt;b&gt;cds126316_126967&lt;/b&gt;&lt;br&gt;Putative phosphatase YfbT&lt;br&gt;Location: 126316 - 126967" points="766,35 770,30 770,40 766,35 "  />
<polygon id="dummy-1_q39_0_all" style="fill:white; stroke:black; stroke-width:1; " locus_tag="cds126963_127239" class="clusterblast-orf" description="&lt;b&gt;cds126963_127239&lt;/b&gt;&lt;br&gt;hypothetical protein&lt;br&gt;Location: 126963 - 127239" points="770,35 772,30 772,40 770,35 "  />
<polygon id="dummy-1_q40_0_all" style="fill:white; stroke:black; stroke-width:1; " locus_tag="cds127252_127954" class="clusterblast-orf" description="&lt;b&gt;cds127252_127954&lt;/b&gt;&lt;br&gt;Flavodoxin reductases (ferredoxin-NADPH reductases) family 1&lt;br&gt;Location: 127252 - 127954" points="772,35 776,30 776,40 772,35 "  />
<polygon id="dummy-1_q41_0_all" style="fill:white; stroke:black; stroke-width:1; " locus_tag="cds127962_128562" class="clusterblast-orf" description="&lt;b&gt;cds127962_128562&lt;/b&gt;&lt;br&gt;hypothetical protein&lt;br&gt;Location: 127962 - 128562" points="776,35 780,30 780,40 776,35 "  />
</g>
<g class="clusterblast-cluster" label="BGC0001491" description="BGC0001491_c1: 67-121C (25% of genes show similarity), Polyketide"  >
<text x="5" class="clusterblast-acc" y="70"  >
<a xlink:href="https://mibig.secondarymetabolites.org/go/BGC0001491/1" target="_blank">BGC0001491</a>:                                                                          67-121C (25% of genes show similarity), Polyketide</text>
<line y2="85" x2="778.0" x1="10" style="stroke-width:1; stroke:grey; " y1="85"  />
</g>
<g id="a1_000"  >
<polygon id="dummy-1_h1_9_0" style="fill:white; stroke:black; stroke-width:1; " locus_tag="BG844_00125" class="clusterblast-orf" description="&lt;b&gt;BG844_00125&lt;/b&gt;&lt;br&gt;AceT2&lt;br&gt;Location: 125822 - 123939" points="8,85 13,80 19,80 19,90 13,90 8,85 "  />
</g>
<g id="a1_001"  >
<polygon id="dummy-1_h1_9_1" style="fill:white; stroke:black; stroke-width:1; " locus_tag="BG844_00120" class="clusterblast-orf" description="&lt;b&gt;BG844_00120&lt;/b&gt;&lt;br&gt;AceT1&lt;br&gt;Location: 123942 - 122212" points="19,85 24,80 30,80 30,90 24,90 19,85 "  />
</g>
<g id="a1_002"  >
<polygon id="dummy-1_h1_9_2" style="fill:white; stroke:black; stroke-width:1; " locus_tag="BG844_00115" class="clusterblast-orf" description="&lt;b&gt;BG844_00115&lt;/b&gt;&lt;br&gt;hypothetical protein&lt;br&gt;Location: 122099 - 121374" points="30,90 30,90 35,85 30,80 30,80 30,90 "  />
</g>
<g id="a1_003"  >
<polygon id="dummy-1_h1_9_3" style="fill:white; stroke:black; stroke-width:1; " locus_tag="BG844_00110" class="clusterblast-orf" description="&lt;b&gt;BG844_00110&lt;/b&gt;&lt;br&gt;AceR5&lt;br&gt;Location: 121405 - 119831" points="35,85 40,80 44,80 44,90 40,90 35,85 "  />
</g>
<g id="a1_004"  >
<polygon id="dummy-1_h1_9_4" style="fill:white; stroke:black; stroke-width:1; " locus_tag="BG844_00105" class="clusterblast-orf" description="&lt;b&gt;BG844_00105&lt;/b&gt;&lt;br&gt;AceD1&lt;br&gt;Location: 119496 - 118123" points="46,90 50,90 55,85 50,80 46,80 46,90 "  />
</g>
<g id="a1_005"  >
<polygon id="dummy-1_h1_9_5" style="fill:white; stroke:black; stroke-width:1; " locus_tag="BG844_00100" class="clusterblast-orf" description="&lt;b&gt;BG844_00100&lt;/b&gt;&lt;br&gt;AceD2&lt;br&gt;Location: 118126 - 117068" points="54,90 56,90 61,85 56,80 54,80 54,90 "  />
</g>
<g id="a1_006"  >
<polygon id="dummy-1_h1_9_6" style="fill:white; stroke:black; stroke-width:1; " locus_tag="BG844_00095" class="clusterblast-orf" description="&lt;b&gt;BG844_00095&lt;/b&gt;&lt;br&gt;AceN&lt;br&gt;Location: 117071 - 115854" points="61,90 63,90 68,85 63,80 61,80 61,90 "  />
</g>
<g id="a1_007"  >
<polygon id="dummy-1_h1_9_7" style="fill:white; stroke:black; stroke-width:1; " locus_tag="BG844_00090" class="clusterblast-orf" description="&lt;b&gt;BG844_00090&lt;/b&gt;&lt;br&gt;AceM&lt;br&gt;Location: 115824 - 115633" points="68,90 70,85 68,80 68,90 "  />
</g>
<g id="a1_008"  >
<polygon id="dummy-1_h1_9_8" style="fill:white; stroke:black; stroke-width:1; " locus_tag="BG844_00085" class="clusterblast-orf" description="&lt;b&gt;BG844_00085&lt;/b&gt;&lt;br&gt;AceTE&lt;br&gt;Location: 115572 - 114793" points="70,90 70,90 75,85 70,80 70,80 70,90 "  />
</g>
<g id="a1_009"  >
<polygon id="dummy-1_h1_9_9" style="fill:white; stroke:black; stroke-width:1; " locus_tag="BG844_00080" class="clusterblast-orf" description="&lt;b&gt;BG844_00080&lt;/b&gt;&lt;br&gt;PabAB&lt;br&gt;Location: 114755 - 112659" points="75,90 83,90 88,85 83,80 75,80 75,90 "  />
</g>
<g id="a1_0010"  >
<polygon id="dummy-1_h1_9_10" style="fill:#d815c9; stroke:black; stroke-width:1; " locus_tag="BG844_00075" class="clusterblast-orf" description="&lt;b&gt;BG844_00075&lt;/b&gt;&lt;br&gt;AceP1&lt;br&gt;Location: 112644 - 107797&lt;br&gt;&lt;br&gt;&lt;b&gt;BlastP hit with cds58585_64930&lt;/b&gt;&lt;br&gt;Percentage identity: 54&lt;br&gt;Percentage coverage: 45&lt;br&gt;BLAST bit score: 885&lt;br&gt;E-value: 1.9e-256&lt;br&gt;&lt;br&gt;&lt;b&gt;BlastP hit with cds87121_91582&lt;/b&gt;&lt;br&gt;Percentage identity: 55&lt;br&gt;Percentage coverage: 63&lt;br&gt;BLAST bit score: 883&lt;br&gt;E-value: 5.1e-256&lt;br&gt;&lt;br&gt;&lt;b&gt;BlastP hit with cds91581_97008&lt;/b&gt;&lt;br&gt;Percentage identity: 51&lt;br&gt;Percentage coverage: 53&lt;br&gt;BLAST bit score: 837&lt;br&gt;E-value: 3e-242" points="88,90 112,90 117,85 112,80 88,80 88,90 "  />
</g>
<g id="a1_0011"  >
<polygon id="dummy-1_h1_9_11" style="fill:white; stroke:black; stroke-width:1; " locus_tag="BG844_00070" class="clusterblast-orf" description="&lt;b&gt;BG844_00070&lt;/b&gt;&lt;br&gt;AceS&lt;br&gt;Location: 107796 - 106942" points="117,85 122,80 122,80 122,90 122,90 117,85 "  />
</g>
<g id="a1_0012"  >
<polygon id="dummy-1_h1_9_12" style="fill:#d815c9; stroke:black; stroke-width:1; " locus_tag="BG844_00065" class="clusterblast-orf" description="&lt;b&gt;BG844_00065&lt;/b&gt;&lt;br&gt;AceP3&lt;br&gt;Location: 106921 - 77891&lt;br&gt;&lt;br&gt;&lt;b&gt;BlastP hit with cds64994_87098&lt;/b&gt;&lt;br&gt;Percentage identity: 49&lt;br&gt;Percentage coverage: 100&lt;br&gt;BLAST bit score: 5816&lt;br&gt;E-value: 0.0&lt;br&gt;&lt;br&gt;&lt;b&gt;BlastP hit with cds91581_97008&lt;/b&gt;&lt;br&gt;Percentage identity: 49&lt;br&gt;Percentage coverage: 96&lt;br&gt;BLAST bit score: 1446&lt;br&gt;E-value: 0.0&lt;br&gt;&lt;br&gt;&lt;b&gt;BlastP hit with cds97054_108757&lt;/b&gt;&lt;br&gt;Percentage identity: 46&lt;br&gt;Percentage coverage: 100&lt;br&gt;BLAST bit score: 2852&lt;br&gt;E-value: 0.0" points="122,85 127,80 299,80 299,90 127,90 122,85 "  />
</g>
<g id="a1_0013"  >
<polygon id="dummy-1_h1_9_13" style="fill:#d815c9; stroke:black; stroke-width:1; " locus_tag="BG844_00060" class="clusterblast-orf" description="&lt;b&gt;BG844_00060&lt;/b&gt;&lt;br&gt;AceP2&lt;br&gt;Location: 77846 - 62871&lt;br&gt;&lt;br&gt;&lt;b&gt;BlastP hit with cds49784_58556&lt;/b&gt;&lt;br&gt;Percentage identity: 47&lt;br&gt;Percentage coverage: 76&lt;br&gt;BLAST bit score: 1632&lt;br&gt;E-value: 0.0&lt;br&gt;&lt;br&gt;&lt;b&gt;BlastP hit with cds58585_64930&lt;/b&gt;&lt;br&gt;Percentage identity: 51&lt;br&gt;Percentage coverage: 96&lt;br&gt;BLAST bit score: 1767&lt;br&gt;E-value: 0.0&lt;br&gt;&lt;br&gt;&lt;b&gt;BlastP hit with cds64994_87098&lt;/b&gt;&lt;br&gt;Percentage identity: 49&lt;br&gt;Percentage coverage: 51&lt;br&gt;BLAST bit score: 2906&lt;br&gt;E-value: 0.0&lt;br&gt;&lt;br&gt;&lt;b&gt;BlastP hit with cds87121_91582&lt;/b&gt;&lt;br&gt;Percentage identity: 47&lt;br&gt;Percentage coverage: 64&lt;br&gt;BLAST bit score: 730&lt;br&gt;E-value: 4.2e-210&lt;br&gt;&lt;br&gt;&lt;b&gt;BlastP hit with cds97054_108757&lt;/b&gt;&lt;br&gt;Percentage identity: 47&lt;br&gt;Percentage coverage: 96&lt;br&gt;BLAST bit score: 2755&lt;br&gt;E-value: 0.0" points="299,85 304,80 390,80 390,90 304,90 299,85 "  />
</g>
<g id="a1_0014"  >
<polygon id="dummy-1_h1_9_14" style="fill:#d815c9; stroke:black; stroke-width:1; " locus_tag="BG844_00055" class="clusterblast-orf" description="&lt;b&gt;BG844_00055&lt;/b&gt;&lt;br&gt;AceP6&lt;br&gt;Location: 62715 - 47329&lt;br&gt;&lt;br&gt;&lt;b&gt;BlastP hit with cds64994_87098&lt;/b&gt;&lt;br&gt;Percentage identity: 47&lt;br&gt;Percentage coverage: 73&lt;br&gt;BLAST bit score: 3900&lt;br&gt;E-value: 0.0&lt;br&gt;&lt;br&gt;&lt;b&gt;BlastP hit with cds87121_91582&lt;/b&gt;&lt;br&gt;Percentage identity: 48&lt;br&gt;Percentage coverage: 100&lt;br&gt;BLAST bit score: 1137&lt;br&gt;E-value: 0.0&lt;br&gt;&lt;br&gt;&lt;b&gt;BlastP hit with cds91581_97008&lt;/b&gt;&lt;br&gt;Percentage identity: 47&lt;br&gt;Percentage coverage: 97&lt;br&gt;BLAST bit score: 1307&lt;br&gt;E-value: 0.0&lt;br&gt;&lt;br&gt;&lt;b&gt;BlastP hit with cds97054_108757&lt;/b&gt;&lt;br&gt;Percentage identity: 51&lt;br&gt;Percentage coverage: 61&lt;br&gt;BLAST bit score: 2035&lt;br&gt;E-value: 0.0" points="391,85 396,80 484,80 484,90 396,90 391,85 "  />
</g>
<g id="a1_0015"  >
<polygon id="dummy-1_h1_9_15" style="fill:#d815c9; stroke:black; stroke-width:1; " locus_tag="BG844_00050" class="clusterblast-orf" description="&lt;b&gt;BG844_00050&lt;/b&gt;&lt;br&gt;AceP5&lt;br&gt;Location: 47295 - 37738&lt;br&gt;&lt;br&gt;&lt;b&gt;BlastP hit with cds64994_87098&lt;/b&gt;&lt;br&gt;Percentage identity: 46&lt;br&gt;Percentage coverage: 51&lt;br&gt;BLAST bit score: 2625&lt;br&gt;E-value: 0.0" points="484,85 489,80 542,80 542,90 489,90 484,85 "  />
</g>
<g id="a1_0016"  >
<polygon id="dummy-1_h1_9_16" style="fill:#d815c9; stroke:black; stroke-width:1; " locus_tag="BG844_00045" class="clusterblast-orf" description="&lt;b&gt;BG844_00045&lt;/b&gt;&lt;br&gt;AceP4&lt;br&gt;Location: 37741 - 10733&lt;br&gt;&lt;br&gt;&lt;b&gt;BlastP hit with cds49784_58556&lt;/b&gt;&lt;br&gt;Percentage identity: 49&lt;br&gt;Percentage coverage: 74&lt;br&gt;BLAST bit score: 1735&lt;br&gt;E-value: 0.0&lt;br&gt;&lt;br&gt;&lt;b&gt;BlastP hit with cds58585_64930&lt;/b&gt;&lt;br&gt;Percentage identity: 53&lt;br&gt;Percentage coverage: 66&lt;br&gt;BLAST bit score: 1261&lt;br&gt;E-value: 0.0&lt;br&gt;&lt;br&gt;&lt;b&gt;BlastP hit with cds64994_87098&lt;/b&gt;&lt;br&gt;Percentage identity: 46&lt;br&gt;Percentage coverage: 86&lt;br&gt;BLAST bit score: 4410&lt;br&gt;E-value: 0.0&lt;br&gt;&lt;br&gt;&lt;b&gt;BlastP hit with cds87121_91582&lt;/b&gt;&lt;br&gt;Percentage identity: 52&lt;br&gt;Percentage coverage: 98&lt;br&gt;BLAST bit score: 1246&lt;br&gt;E-value: 0.0&lt;br&gt;&lt;br&gt;&lt;b&gt;BlastP hit with cds91581_97008&lt;/b&gt;&lt;br&gt;Percentage identity: 49&lt;br&gt;Percentage coverage: 96&lt;br&gt;BLAST bit score: 1435&lt;br&gt;E-value: 0.0&lt;br&gt;&lt;br&gt;&lt;b&gt;BlastP hit with cds97054_108757&lt;/b&gt;&lt;br&gt;Percentage identity: 53&lt;br&gt;Percentage coverage: 67&lt;br&gt;BLAST bit score: 2347&lt;br&gt;E-value: 0.0" points="542,85 547,80 706,80 706,90 547,90 542,85 "  />
</g>
<g id="a1_0017"  >
<polygon id="dummy-1_h1_9_17" style="fill:white; stroke:black; stroke-width:1; " locus_tag="BG844_00040" class="clusterblast-orf" description="&lt;b&gt;BG844_00040&lt;/b&gt;&lt;br&gt;hypothetical protein&lt;br&gt;Location: 10631 - 10323" points="707,90 709,85 707,80 707,90 "  />
</g>
<g id="a1_0018"  >
<polygon id="dummy-1_h1_9_18" style="fill:white; stroke:black; stroke-width:1; " locus_tag="BG844_00035" class="clusterblast-orf" description="&lt;b&gt;BG844_00035&lt;/b&gt;&lt;br&gt;AceD3&lt;br&gt;Location: 10252 - 9224" points="709,85 714,80 715,80 715,90 714,90 709,85 "  />
</g>
<g id="a1_0019"  >
<polygon id="dummy-1_h1_9_19" style="fill:white; stroke:black; stroke-width:1; " locus_tag="BG844_00030" class="clusterblast-orf" description="&lt;b&gt;BG844_00030&lt;/b&gt;&lt;br&gt;AceR1&lt;br&gt;Location: 9146 - 8571" points="716,85 719,80 719,90 716,85 "  />
</g>
<g id="a1_0020"  >
<polygon id="dummy-1_h1_9_20" style="fill:white; stroke:black; stroke-width:1; " locus_tag="BG844_00025" class="clusterblast-orf" description="&lt;b&gt;BG844_00025&lt;/b&gt;&lt;br&gt;AceR2&lt;br&gt;Location: 7898 - 5217" points="723,85 728,80 740,80 740,90 728,90 723,85 "  />
</g>
<g id="a1_0021"  >
<polygon id="dummy-1_h1_9_21" style="fill:white; stroke:black; stroke-width:1; " locus_tag="BG844_00020" class="clusterblast-orf" description="&lt;b&gt;BG844_00020&lt;/b&gt;&lt;br&gt;AceR3&lt;br&gt;Location: 5214 - 2443" points="740,85 745,80 756,80 756,90 745,90 740,85 "  />
</g>
<g id="a1_0022"  >
<polygon id="dummy-1_h1_9_22" style="fill:white; stroke:black; stroke-width:1; " locus_tag="BG844_00015" class="clusterblast-orf" description="&lt;b&gt;BG844_00015&lt;/b&gt;&lt;br&gt;propionyl-CoA carboxylase subunit beta&lt;br&gt;Location: 2293 - 884" points="757,85 762,80 766,80 766,90 762,90 757,85 "  />
</g>
<g id="a1_0023"  >
<polygon id="dummy-1_h1_9_23" style="fill:white; stroke:black; stroke-width:1; " locus_tag="BG844_00010" class="clusterblast-orf" description="&lt;b&gt;BG844_00010&lt;/b&gt;&lt;br&gt;PabC&lt;br&gt;Location: 756 - 1" points="767,90 771,85 767,80 767,90 "  />
</g>
</svg>
