<svg xmlns:xlink="http://www.w3.org/1999/xlink" preserveAspectRatio="none" width="800" xmlns="http://www.w3.org/2000/svg" version="1.1" x="0" viewBox="0 0 800 230" height="230" y="0"  >
<g label="Query sequence" class="clusterblast-cluster"  >
<text x="5" y="20" class="clusterblast-acc"  >
Query sequence</text>
<line x2="778.0" style="stroke-width:1; stroke:grey; " y1="35" x1="10" y2="35"  />
<polygon locus_tag="cds2_1364" id="dummy-1_q0_0_all" points="374,35 379,30 381,30 381,40 379,40 374,35 " style="stroke-width:1; fill:#d81515; stroke:black; " class="clusterblast-orf" description="&lt;b&gt;cds2_1364&lt;/b&gt;&lt;br&gt;Siderophore biosynthesis non-ribosomal peptide synthetase modules&lt;br&gt;Location: 2 - 1364"  />
<polygon locus_tag="cds1365_6027" id="dummy-1_q1_0_all" points="381,35 386,30 405,30 405,40 386,40 381,35 " style="stroke-width:1; fill:#d81515; stroke:black; " class="clusterblast-orf" description="&lt;b&gt;cds1365_6027&lt;/b&gt;&lt;br&gt;Polyketide synthase modules and related proteins&lt;br&gt;Location: 1365 - 6027"  />
</g>
<g label="NZ_CP011341" class="clusterblast-cluster" description="NZ_CP011341 (3999658-4147060): Rhodococcus aetherivorans strain IcdP1 chromos... (9% of genes show similarity), NRPS"  >
<text x="5" y="70" class="clusterblast-acc"  >
<a xlink:href="https://antismash-db.secondarymetabolites.org/area.html?record=NZ_CP011341&amp;start=3999658&amp;end=4147060" target="_blank">NZ_CP011341 (3999658-4147060)</a>: Rhodococcus aetherivorans strain IcdP1 chromos... (9% of genes show similarity), NRPS</text>
<line x2="778.0" style="stroke-width:1; stroke:grey; " y1="85" x1="10" y2="85"  />
</g>
<g id="a1_000"  >
<polygon locus_tag="AAT18_RS18090" id="dummy-1_h1_3_0" points="0,85 5,80 6,80 6,90 5,90 0,85 " style="stroke-width:1; fill:white; stroke:black; " class="clusterblast-orf" description="&lt;b&gt;AAT18_RS18090&lt;/b&gt;&lt;br&gt;preprotein translocase subunit SecY&lt;br&gt;Location: 3999659 - 4000972"  />
</g>
<g id="a1_001"  >
<polygon locus_tag="AAT18_RS18095" id="dummy-1_h1_3_1" points="8,85 10,80 10,90 8,85 " style="stroke-width:1; fill:white; stroke:black; " class="clusterblast-orf" description="&lt;b&gt;AAT18_RS18095&lt;/b&gt;&lt;br&gt;50S ribosomal protein L15&lt;br&gt;Location: 4001220 - 4001663"  />
</g>
<g id="a1_002"  >
<polygon locus_tag="AAT18_RS18100" id="dummy-1_h1_3_2" points="10,85 11,80 11,90 10,85 " style="stroke-width:1; fill:white; stroke:black; " class="clusterblast-orf" description="&lt;b&gt;AAT18_RS18100&lt;/b&gt;&lt;br&gt;50S ribosomal protein L30&lt;br&gt;Location: 4001660 - 4001860"  />
</g>
<g id="a1_003"  >
<polygon locus_tag="AAT18_RS18105" id="dummy-1_h1_3_3" points="11,85 15,80 15,90 11,85 " style="stroke-width:1; fill:white; stroke:black; " class="clusterblast-orf" description="&lt;b&gt;AAT18_RS18105&lt;/b&gt;&lt;br&gt;30S ribosomal protein S5&lt;br&gt;Location: 4001860 - 4002510"  />
</g>
<g id="a1_004"  >
<polygon locus_tag="AAT18_RS18110" id="dummy-1_h1_3_4" points="15,85 17,80 17,90 15,85 " style="stroke-width:1; fill:white; stroke:black; " class="clusterblast-orf" description="&lt;b&gt;AAT18_RS18110&lt;/b&gt;&lt;br&gt;50S ribosomal protein L18&lt;br&gt;Location: 4002542 - 4002949"  />
</g>
<g id="a1_005"  >
<polygon locus_tag="AAT18_RS18115" id="dummy-1_h1_3_5" points="17,85 20,80 20,90 17,85 " style="stroke-width:1; fill:white; stroke:black; " class="clusterblast-orf" description="&lt;b&gt;AAT18_RS18115&lt;/b&gt;&lt;br&gt;50S ribosomal protein L6&lt;br&gt;Location: 4002952 - 4003491"  />
</g>
<g id="a1_006"  >
<polygon locus_tag="AAT18_RS18120" id="dummy-1_h1_3_6" points="20,85 22,80 22,90 20,85 " style="stroke-width:1; fill:white; stroke:black; " class="clusterblast-orf" description="&lt;b&gt;AAT18_RS18120&lt;/b&gt;&lt;br&gt;30S ribosomal protein S8&lt;br&gt;Location: 4003506 - 4003904"  />
</g>
<g id="a1_007"  >
<polygon locus_tag="AAT18_RS18125" id="dummy-1_h1_3_7" points="23,85 24,80 24,90 23,85 " style="stroke-width:1; fill:white; stroke:black; " class="clusterblast-orf" description="&lt;b&gt;AAT18_RS18125&lt;/b&gt;&lt;br&gt;type Z 30S ribosomal protein S14&lt;br&gt;Location: 4004083 - 4004268"  />
</g>
<g id="a1_008"  >
<polygon locus_tag="AAT18_RS18130" id="dummy-1_h1_3_8" points="24,85 27,80 27,90 24,85 " style="stroke-width:1; fill:white; stroke:black; " class="clusterblast-orf" description="&lt;b&gt;AAT18_RS18130&lt;/b&gt;&lt;br&gt;50S ribosomal protein L5&lt;br&gt;Location: 4004273 - 4004839"  />
</g>
<g id="a1_009"  >
<polygon locus_tag="AAT18_RS18135" id="dummy-1_h1_3_9" points="27,85 29,80 29,90 27,85 " style="stroke-width:1; fill:white; stroke:black; " class="clusterblast-orf" description="&lt;b&gt;AAT18_RS18135&lt;/b&gt;&lt;br&gt;50S ribosomal protein L24&lt;br&gt;Location: 4004841 - 4005158"  />
</g>
<g id="a1_0010"  >
<polygon locus_tag="AAT18_RS18140" id="dummy-1_h1_3_10" points="29,85 31,80 31,90 29,85 " style="stroke-width:1; fill:white; stroke:black; " class="clusterblast-orf" description="&lt;b&gt;AAT18_RS18140&lt;/b&gt;&lt;br&gt;50S ribosomal protein L14&lt;br&gt;Location: 4005158 - 4005526"  />
</g>
<g id="a1_0011"  >
<polygon locus_tag="AAT18_RS18145" id="dummy-1_h1_3_11" points="32,85 33,80 33,90 32,85 " style="stroke-width:1; fill:white; stroke:black; " class="clusterblast-orf" description="&lt;b&gt;AAT18_RS18145&lt;/b&gt;&lt;br&gt;30S ribosomal protein S17&lt;br&gt;Location: 4005733 - 4006017"  />
</g>
<g id="a1_0012"  >
<polygon locus_tag="AAT18_RS18150" id="dummy-1_h1_3_12" points="33,85 34,80 34,90 33,85 " style="stroke-width:1; fill:white; stroke:black; " class="clusterblast-orf" description="&lt;b&gt;AAT18_RS18150&lt;/b&gt;&lt;br&gt;50S ribosomal protein L29&lt;br&gt;Location: 4006014 - 4006250"  />
</g>
<g id="a1_0013"  >
<polygon locus_tag="AAT18_RS18155" id="dummy-1_h1_3_13" points="34,85 37,80 37,90 34,85 " style="stroke-width:1; fill:white; stroke:black; " class="clusterblast-orf" description="&lt;b&gt;AAT18_RS18155&lt;/b&gt;&lt;br&gt;50S ribosomal protein L16&lt;br&gt;Location: 4006250 - 4006666"  />
</g>
<g id="a1_0014"  >
<polygon locus_tag="AAT18_RS18160" id="dummy-1_h1_3_14" points="37,85 41,80 41,90 37,85 " style="stroke-width:1; fill:white; stroke:black; " class="clusterblast-orf" description="&lt;b&gt;AAT18_RS18160&lt;/b&gt;&lt;br&gt;30S ribosomal protein S3&lt;br&gt;Location: 4006670 - 4007467"  />
</g>
<g id="a1_0015"  >
<polygon locus_tag="AAT18_RS18165" id="dummy-1_h1_3_15" points="41,85 43,80 43,90 41,85 " style="stroke-width:1; fill:white; stroke:black; " class="clusterblast-orf" description="&lt;b&gt;AAT18_RS18165&lt;/b&gt;&lt;br&gt;50S ribosomal protein L22&lt;br&gt;Location: 4007467 - 4007892"  />
</g>
<g id="a1_0016"  >
<polygon locus_tag="AAT18_RS18170" id="dummy-1_h1_3_16" points="43,85 45,80 45,90 43,85 " style="stroke-width:1; fill:white; stroke:black; " class="clusterblast-orf" description="&lt;b&gt;AAT18_RS18170&lt;/b&gt;&lt;br&gt;30S ribosomal protein S19&lt;br&gt;Location: 4007889 - 4008170"  />
</g>
<g id="a1_0017"  >
<polygon locus_tag="AAT18_RS18175" id="dummy-1_h1_3_17" points="45,85 49,80 49,90 45,85 " style="stroke-width:1; fill:white; stroke:black; " class="clusterblast-orf" description="&lt;b&gt;AAT18_RS18175&lt;/b&gt;&lt;br&gt;50S ribosomal protein L2&lt;br&gt;Location: 4008190 - 4009023"  />
</g>
<g id="a1_0018"  >
<polygon locus_tag="AAT18_RS18180" id="dummy-1_h1_3_18" points="49,85 51,80 51,90 49,85 " style="stroke-width:1; fill:white; stroke:black; " class="clusterblast-orf" description="&lt;b&gt;AAT18_RS18180&lt;/b&gt;&lt;br&gt;50S ribosomal protein L23&lt;br&gt;Location: 4009061 - 4009366"  />
</g>
<g id="a1_0019"  >
<polygon locus_tag="AAT18_RS18185" id="dummy-1_h1_3_19" points="51,85 54,80 54,90 51,85 " style="stroke-width:1; fill:white; stroke:black; " class="clusterblast-orf" description="&lt;b&gt;AAT18_RS18185&lt;/b&gt;&lt;br&gt;50S ribosomal protein L4&lt;br&gt;Location: 4009363 - 4010046"  />
</g>
<g id="a1_0020"  >
<polygon locus_tag="AAT18_RS18190" id="dummy-1_h1_3_20" points="54,85 58,80 58,90 54,85 " style="stroke-width:1; fill:white; stroke:black; " class="clusterblast-orf" description="&lt;b&gt;AAT18_RS18190&lt;/b&gt;&lt;br&gt;50S ribosomal protein L3&lt;br&gt;Location: 4010043 - 4010696"  />
</g>
<g id="a1_0021"  >
<polygon locus_tag="AAT18_RS18195" id="dummy-1_h1_3_21" points="58,85 60,80 60,90 58,85 " style="stroke-width:1; fill:white; stroke:black; " class="clusterblast-orf" description="&lt;b&gt;AAT18_RS18195&lt;/b&gt;&lt;br&gt;30S ribosomal protein S10&lt;br&gt;Location: 4010742 - 4011047"  />
</g>
<g id="a1_0022"  >
<polygon locus_tag="AAT18_RS18200" id="dummy-1_h1_3_22" points="62,85 67,80 70,80 70,90 67,90 62,85 " style="stroke-width:1; fill:white; stroke:black; " class="clusterblast-orf" description="&lt;b&gt;AAT18_RS18200&lt;/b&gt;&lt;br&gt;amidase&lt;br&gt;Location: 4011482 - 4012996"  />
</g>
<g id="a1_0023"  >
<polygon locus_tag="AAT18_RS18205" id="dummy-1_h1_3_23" points="72,90 75,85 72,80 72,90 " style="stroke-width:1; fill:white; stroke:black; " class="clusterblast-orf" description="&lt;b&gt;AAT18_RS18205&lt;/b&gt;&lt;br&gt;GntR family transcriptional regulator&lt;br&gt;Location: 4013289 - 4013984"  />
</g>
<g id="a1_0024"  >
<polygon locus_tag="AAT18_RS18210" id="dummy-1_h1_3_24" points="76,90 76,90 81,85 76,80 76,80 76,90 " style="stroke-width:1; fill:white; stroke:black; " class="clusterblast-orf" description="&lt;b&gt;AAT18_RS18210&lt;/b&gt;&lt;br&gt;daunorubicin resistance protein DrrA family ABC transporter ATP-binding protein&lt;br&gt;Location: 4014116 - 4015117"  />
</g>
<g id="a1_0025"  >
<polygon locus_tag="AAT18_RS18215" id="dummy-1_h1_3_25" points="81,90 81,90 86,85 81,80 81,80 81,90 " style="stroke-width:1; fill:white; stroke:black; " class="clusterblast-orf" description="&lt;b&gt;AAT18_RS18215&lt;/b&gt;&lt;br&gt;ABC transporter permease&lt;br&gt;Location: 4015114 - 4015965"  />
</g>
<g id="a1_0026"  >
<polygon locus_tag="AAT18_RS18220" id="dummy-1_h1_3_26" points="86,90 90,85 86,80 86,90 " style="stroke-width:1; fill:white; stroke:black; " class="clusterblast-orf" description="&lt;b&gt;AAT18_RS18220&lt;/b&gt;&lt;br&gt;ABC transporter permease&lt;br&gt;Location: 4015973 - 4016830"  />
</g>
<g id="a1_0027"  >
<polygon locus_tag="AAT18_RS18225" id="dummy-1_h1_3_27" points="91,90 91,90 96,85 91,80 91,80 91,90 " style="stroke-width:1; fill:white; stroke:black; " class="clusterblast-orf" description="&lt;b&gt;AAT18_RS18225&lt;/b&gt;&lt;br&gt;alpha/beta fold hydrolase&lt;br&gt;Location: 4016949 - 4017923"  />
</g>
<g id="a1_0028"  >
<polygon locus_tag="AAT18_RS18230" id="dummy-1_h1_3_28" points="97,85 102,80 102,80 102,90 102,90 97,85 " style="stroke-width:1; fill:white; stroke:black; " class="clusterblast-orf" description="&lt;b&gt;AAT18_RS18230&lt;/b&gt;&lt;br&gt;esterase family protein&lt;br&gt;Location: 4017998 - 4019026"  />
</g>
<g id="a1_0029"  >
<polygon locus_tag="AAT18_RS18235" id="dummy-1_h1_3_29" points="103,85 108,80 175,80 175,90 108,90 103,85 " style="stroke-width:1; fill:white; stroke:black; " class="clusterblast-orf" description="&lt;b&gt;AAT18_RS18235&lt;/b&gt;&lt;br&gt;amino acid adenylation domain-containing protein&lt;br&gt;Location: 4019169 - 4032832"  />
</g>
<g id="a1_0030"  >
<polygon locus_tag="AAT18_RS18240" id="dummy-1_h1_3_30" points="176,85 181,80 207,80 207,90 181,90 176,85 " style="stroke-width:1; fill:#d81515; stroke:black; " class="clusterblast-orf" description="&lt;b&gt;AAT18_RS18240&lt;/b&gt;&lt;br&gt;non-ribosomal peptide synthetase&lt;br&gt;Location: 4033060 - 4038876&lt;br&gt;&lt;br&gt;&lt;b&gt;BlastP hit with cds1365_6027&lt;/b&gt;&lt;br&gt;Percentage identity: 39&lt;br&gt;Percentage coverage: 87&lt;br&gt;BLAST bit score: 701&lt;br&gt;E-value: 2.2e-199"  />
</g>
<g id="a1_0031"  >
<polygon locus_tag="AAT18_RS18245" id="dummy-1_h1_3_31" points="210,85 215,80 274,80 274,90 215,90 210,85 " style="stroke-width:1; fill:#d81515; stroke:black; " class="clusterblast-orf" description="&lt;b&gt;AAT18_RS18245&lt;/b&gt;&lt;br&gt;non-ribosomal peptide synthetase&lt;br&gt;Location: 4039482 - 4051559&lt;br&gt;&lt;br&gt;&lt;b&gt;BlastP hit with cds1365_6027&lt;/b&gt;&lt;br&gt;Percentage identity: 43&lt;br&gt;Percentage coverage: 70&lt;br&gt;BLAST bit score: 732&lt;br&gt;E-value: 6.8e-209"  />
</g>
<g id="a1_0032"  >
<polygon locus_tag="AAT18_RS18250" id="dummy-1_h1_3_32" points="275,85 280,80 315,80 315,90 280,90 275,85 " style="stroke-width:1; fill:#d81515; stroke:black; " class="clusterblast-orf" description="&lt;b&gt;AAT18_RS18250&lt;/b&gt;&lt;br&gt;non-ribosomal peptide synthetase&lt;br&gt;Location: 4051777 - 4059192&lt;br&gt;&lt;br&gt;&lt;b&gt;BlastP hit with cds1365_6027&lt;/b&gt;&lt;br&gt;Percentage identity: 41&lt;br&gt;Percentage coverage: 85&lt;br&gt;BLAST bit score: 755&lt;br&gt;E-value: 7.5e-216"  />
</g>
<g id="a1_0033"  >
<polygon locus_tag="AAT18_RS27685" id="dummy-1_h1_3_33" points="320,85 325,80 328,80 328,90 325,90 320,85 " style="stroke-width:1; fill:#d81515; stroke:black; " class="clusterblast-orf" description="&lt;b&gt;AAT18_RS27685&lt;/b&gt;&lt;br&gt;non-ribosomal peptide synthetase&lt;br&gt;Location: 4060275 - 4061741&lt;br&gt;&lt;br&gt;&lt;b&gt;BlastP hit with cds2_1364&lt;/b&gt;&lt;br&gt;Percentage identity: 42&lt;br&gt;Percentage coverage: 97&lt;br&gt;BLAST bit score: 332&lt;br&gt;E-value: 7.9e-89"  />
</g>
<g id="a1_0034"  >
<polygon locus_tag="AAT18_RS18255" id="dummy-1_h1_3_34" points="328,85 333,80 472,80 472,90 333,90 328,85 " style="stroke-width:1; fill:#d81515; stroke:black; " class="clusterblast-orf" description="&lt;b&gt;AAT18_RS18255&lt;/b&gt;&lt;br&gt;non-ribosomal peptide synthetase&lt;br&gt;Location: 4061669 - 4088947&lt;br&gt;&lt;br&gt;&lt;b&gt;BlastP hit with cds2_1364&lt;/b&gt;&lt;br&gt;Percentage identity: 42&lt;br&gt;Percentage coverage: 97&lt;br&gt;BLAST bit score: 342&lt;br&gt;E-value: 4.5e-92&lt;br&gt;&lt;br&gt;&lt;b&gt;BlastP hit with cds1365_6027&lt;/b&gt;&lt;br&gt;Percentage identity: 41&lt;br&gt;Percentage coverage: 103&lt;br&gt;BLAST bit score: 1039&lt;br&gt;E-value: 2.6e-301"  />
</g>
<g id="a1_0035"  >
<polygon locus_tag="AAT18_RS18260" id="dummy-1_h1_3_35" points="473,85 478,80 502,80 502,90 478,90 473,85 " style="stroke-width:1; fill:#d81515; stroke:black; " class="clusterblast-orf" description="&lt;b&gt;AAT18_RS18260&lt;/b&gt;&lt;br&gt;non-ribosomal peptide synthetase&lt;br&gt;Location: 4089092 - 4094710&lt;br&gt;&lt;br&gt;&lt;b&gt;BlastP hit with cds1365_6027&lt;/b&gt;&lt;br&gt;Percentage identity: 39&lt;br&gt;Percentage coverage: 84&lt;br&gt;BLAST bit score: 737&lt;br&gt;E-value: 3.6e-210"  />
</g>
<g id="a1_0036"  >
<polygon locus_tag="AAT18_RS18265" id="dummy-1_h1_3_36" points="503,85 508,80 583,80 583,90 508,90 503,85 " style="stroke-width:1; fill:#d81515; stroke:black; " class="clusterblast-orf" description="&lt;b&gt;AAT18_RS18265&lt;/b&gt;&lt;br&gt;non-ribosomal peptide synthetase&lt;br&gt;Location: 4094860 - 4109883&lt;br&gt;&lt;br&gt;&lt;b&gt;BlastP hit with cds1365_6027&lt;/b&gt;&lt;br&gt;Percentage identity: 37&lt;br&gt;Percentage coverage: 101&lt;br&gt;BLAST bit score: 755&lt;br&gt;E-value: 7.5e-216"  />
</g>
<g id="a1_0037"  >
<polygon locus_tag="AAT18_RS18270" id="dummy-1_h1_3_37" points="584,85 586,80 586,90 584,85 " style="stroke-width:1; fill:white; stroke:black; " class="clusterblast-orf" description="&lt;b&gt;AAT18_RS18270&lt;/b&gt;&lt;br&gt;hypothetical protein&lt;br&gt;Location: 4110173 - 4110520"  />
</g>
<g id="a1_0038"  >
<polygon locus_tag="AAT18_RS18275" id="dummy-1_h1_3_38" points="587,85 592,80 597,80 597,90 592,90 587,85 " style="stroke-width:1; fill:white; stroke:black; " class="clusterblast-orf" description="&lt;b&gt;AAT18_RS18275&lt;/b&gt;&lt;br&gt;acetoacetate--CoA ligase&lt;br&gt;Location: 4110598 - 4112562"  />
</g>
<g id="a1_0039"  >
<polygon locus_tag="AAT18_RS18280" id="dummy-1_h1_3_39" points="597,85 601,80 601,90 597,85 " style="stroke-width:1; fill:white; stroke:black; " class="clusterblast-orf" description="&lt;b&gt;AAT18_RS18280&lt;/b&gt;&lt;br&gt;CoA ester lyase&lt;br&gt;Location: 4112559 - 4113400"  />
</g>
<g id="a1_0040"  >
<polygon locus_tag="AAT18_RS18285" id="dummy-1_h1_3_40" points="602,85 607,80 607,80 607,90 607,90 602,85 " style="stroke-width:1; fill:white; stroke:black; " class="clusterblast-orf" description="&lt;b&gt;AAT18_RS18285&lt;/b&gt;&lt;br&gt;CoA ester lyase&lt;br&gt;Location: 4113540 - 4114418"  />
</g>
<g id="a1_0041"  >
<polygon locus_tag="AAT18_RS18290" id="dummy-1_h1_3_41" points="607,85 609,80 609,90 607,85 " style="stroke-width:1; fill:white; stroke:black; " class="clusterblast-orf" description="&lt;b&gt;AAT18_RS18290&lt;/b&gt;&lt;br&gt;MaoC family dehydratase&lt;br&gt;Location: 4114428 - 4114922"  />
</g>
<g id="a1_0042"  >
<polygon locus_tag="AAT18_RS18295" id="dummy-1_h1_3_42" points="609,85 614,80 616,80 616,90 614,90 609,85 " style="stroke-width:1; fill:white; stroke:black; " class="clusterblast-orf" description="&lt;b&gt;AAT18_RS18295&lt;/b&gt;&lt;br&gt;isovaleryl-CoA dehydrogenase&lt;br&gt;Location: 4114919 - 4116079"  />
</g>
<g id="a1_0043"  >
<polygon locus_tag="AAT18_RS18300" id="dummy-1_h1_3_43" points="616,85 621,80 627,80 627,90 621,90 616,85 " style="stroke-width:1; fill:white; stroke:black; " class="clusterblast-orf" description="&lt;b&gt;AAT18_RS18300&lt;/b&gt;&lt;br&gt;acetyl/propionyl/methylcrotonyl-CoA carboxylase subunit alpha&lt;br&gt;Location: 4116089 - 4118194"  />
</g>
<g id="a1_0044"  >
<polygon locus_tag="AAT18_RS18305" id="dummy-1_h1_3_44" points="627,85 632,80 635,80 635,90 632,90 627,85 " style="stroke-width:1; fill:white; stroke:black; " class="clusterblast-orf" description="&lt;b&gt;AAT18_RS18305&lt;/b&gt;&lt;br&gt;methylcrotonoyl-CoA carboxylase&lt;br&gt;Location: 4118233 - 4119786"  />
</g>
<g id="a1_0045"  >
<polygon locus_tag="AAT18_RS18310" id="dummy-1_h1_3_45" points="636,90 639,85 636,80 636,90 " style="stroke-width:1; fill:white; stroke:black; " class="clusterblast-orf" description="&lt;b&gt;AAT18_RS18310&lt;/b&gt;&lt;br&gt;TetR/AcrR family transcriptional regulator&lt;br&gt;Location: 4119955 - 4120593"  />
</g>
<g id="a1_0046"  >
<polygon locus_tag="AAT18_RS18315" id="dummy-1_h1_3_46" points="640,85 641,80 641,90 640,85 " style="stroke-width:1; fill:white; stroke:black; " class="clusterblast-orf" description="&lt;b&gt;AAT18_RS18315&lt;/b&gt;&lt;br&gt;GlsB/YeaQ/YmgE family stress response membrane protein&lt;br&gt;Location: 4120647 - 4120913"  />
</g>
<g id="a1_0047"  >
<polygon locus_tag="AAT18_RS18320" id="dummy-1_h1_3_47" points="642,85 647,80 648,80 648,90 647,90 642,85 " style="stroke-width:1; fill:white; stroke:black; " class="clusterblast-orf" description="&lt;b&gt;AAT18_RS18320&lt;/b&gt;&lt;br&gt;NDMA-dependent alcohol dehydrogenase&lt;br&gt;Location: 4121069 - 4122181"  />
</g>
<g id="a1_0048"  >
<polygon locus_tag="AAT18_RS18325" id="dummy-1_h1_3_48" points="648,85 653,80 656,80 656,90 653,90 648,85 " style="stroke-width:1; fill:white; stroke:black; " class="clusterblast-orf" description="&lt;b&gt;AAT18_RS18325&lt;/b&gt;&lt;br&gt;aldehyde dehydrogenase family protein&lt;br&gt;Location: 4122216 - 4123715"  />
</g>
<g id="a1_0049"  >
<polygon locus_tag="AAT18_RS18330" id="dummy-1_h1_3_49" points="657,85 662,80 665,80 665,90 662,90 657,85 " style="stroke-width:1; fill:white; stroke:black; " class="clusterblast-orf" description="&lt;b&gt;AAT18_RS18330&lt;/b&gt;&lt;br&gt;Fis family transcriptional regulator&lt;br&gt;Location: 4123816 - 4125459"  />
</g>
<g id="a1_0050"  >
<polygon locus_tag="AAT18_RS18335" id="dummy-1_h1_3_50" points="665,85 670,80 674,80 674,90 670,90 665,85 " style="stroke-width:1; fill:white; stroke:black; " class="clusterblast-orf" description="&lt;b&gt;AAT18_RS18335&lt;/b&gt;&lt;br&gt;AMP-binding protein&lt;br&gt;Location: 4125456 - 4127114"  />
</g>
<g id="a1_0051"  >
<polygon locus_tag="AAT18_RS18340" id="dummy-1_h1_3_51" points="675,85 680,80 682,80 682,90 680,90 675,85 " style="stroke-width:1; fill:white; stroke:black; " class="clusterblast-orf" description="&lt;b&gt;AAT18_RS18340&lt;/b&gt;&lt;br&gt;MHS family MFS transporter&lt;br&gt;Location: 4127281 - 4128611"  />
</g>
<g id="a1_0052"  >
<polygon locus_tag="AAT18_RS18345" id="dummy-1_h1_3_52" points="683,90 686,85 683,80 683,90 " style="stroke-width:1; fill:white; stroke:black; " class="clusterblast-orf" description="&lt;b&gt;AAT18_RS18345&lt;/b&gt;&lt;br&gt;protein phosphatase&lt;br&gt;Location: 4128893 - 4129324"  />
</g>
<g id="a1_0053"  >
<polygon locus_tag="AAT18_RS18350" id="dummy-1_h1_3_53" points="686,85 689,80 689,90 686,85 " style="stroke-width:1; fill:white; stroke:black; " class="clusterblast-orf" description="&lt;b&gt;AAT18_RS18350&lt;/b&gt;&lt;br&gt;hypothetical protein&lt;br&gt;Location: 4129338 - 4129886"  />
</g>
<g id="a1_0054"  >
<polygon locus_tag="AAT18_RS18355" id="dummy-1_h1_3_54" points="689,85 693,80 693,90 689,85 " style="stroke-width:1; fill:white; stroke:black; " class="clusterblast-orf" description="&lt;b&gt;AAT18_RS18355&lt;/b&gt;&lt;br&gt;ethanolamine ammonia-lyase subunit EutC&lt;br&gt;Location: 4130008 - 4130771"  />
</g>
<g id="a1_0055"  >
<polygon locus_tag="AAT18_RS18360" id="dummy-1_h1_3_55" points="693,85 698,80 701,80 701,90 698,90 693,85 " style="stroke-width:1; fill:white; stroke:black; " class="clusterblast-orf" description="&lt;b&gt;AAT18_RS18360&lt;/b&gt;&lt;br&gt;ethanolamine ammonia-lyase subunit EutB&lt;br&gt;Location: 4130768 - 4132183"  />
</g>
<g id="a1_0056"  >
<polygon locus_tag="AAT18_RS18365" id="dummy-1_h1_3_56" points="701,85 706,80 708,80 708,90 706,90 701,85 " style="stroke-width:1; fill:white; stroke:black; " class="clusterblast-orf" description="&lt;b&gt;AAT18_RS18365&lt;/b&gt;&lt;br&gt;ethanolamine permease&lt;br&gt;Location: 4132180 - 4133640"  />
</g>
<g id="a1_0057"  >
<polygon locus_tag="AAT18_RS18370" id="dummy-1_h1_3_57" points="709,85 712,80 712,90 709,85 " style="stroke-width:1; fill:white; stroke:black; " class="clusterblast-orf" description="&lt;b&gt;AAT18_RS18370&lt;/b&gt;&lt;br&gt;DUF779 domain-containing protein&lt;br&gt;Location: 4133757 - 4134293"  />
</g>
<g id="a1_0058"  >
<polygon locus_tag="AAT18_RS18375" id="dummy-1_h1_3_58" points="713,85 718,80 721,80 721,90 718,90 713,85 " style="stroke-width:1; fill:white; stroke:black; " class="clusterblast-orf" description="&lt;b&gt;AAT18_RS18375&lt;/b&gt;&lt;br&gt;aldehyde dehydrogenase family protein&lt;br&gt;Location: 4134458 - 4135981"  />
</g>
<g id="a1_0059"  >
<polygon locus_tag="AAT18_RS18380" id="dummy-1_h1_3_59" points="721,85 726,80 728,80 728,90 726,90 721,85 " style="stroke-width:1; fill:white; stroke:black; " class="clusterblast-orf" description="&lt;b&gt;AAT18_RS18380&lt;/b&gt;&lt;br&gt;transcriptional regulator&lt;br&gt;Location: 4136083 - 4137384"  />
</g>
<g id="a1_0060"  >
<polygon locus_tag="AAT18_RS18385" id="dummy-1_h1_3_60" points="729,85 734,80 736,80 736,90 734,90 729,85 " style="stroke-width:1; fill:white; stroke:black; " class="clusterblast-orf" description="&lt;b&gt;AAT18_RS18385&lt;/b&gt;&lt;br&gt;mycofactocin system GMC family oxidoreductase MftG&lt;br&gt;Location: 4137434 - 4138921"  />
</g>
<g id="a1_0061"  >
<polygon locus_tag="AAT18_RS18390" id="dummy-1_h1_3_61" points="737,85 742,80 744,80 744,90 742,90 737,85 " style="stroke-width:1; fill:white; stroke:black; " class="clusterblast-orf" description="&lt;b&gt;AAT18_RS18390&lt;/b&gt;&lt;br&gt;mycofactocin system glycosyltransferase&lt;br&gt;Location: 4138940 - 4140328"  />
</g>
<g id="a1_0062"  >
<polygon locus_tag="AAT18_RS18395" id="dummy-1_h1_3_62" points="744,85 747,80 747,90 744,85 " style="stroke-width:1; fill:white; stroke:black; " class="clusterblast-orf" description="&lt;b&gt;AAT18_RS18395&lt;/b&gt;&lt;br&gt;mycofactocin biosynthesis peptidyl-dipeptidase MftE&lt;br&gt;Location: 4140325 - 4141011"  />
</g>
<g id="a1_0063"  >
<polygon locus_tag="AAT18_RS18400" id="dummy-1_h1_3_63" points="747,85 750,80 750,90 747,85 " style="stroke-width:1; fill:white; stroke:black; " class="clusterblast-orf" description="&lt;b&gt;AAT18_RS18400&lt;/b&gt;&lt;br&gt;SRPBCC domain-containing protein&lt;br&gt;Location: 4141008 - 4141448"  />
</g>
<g id="a1_0064"  >
<polygon locus_tag="AAT18_RS18405" id="dummy-1_h1_3_64" points="750,85 753,80 753,90 750,85 " style="stroke-width:1; fill:white; stroke:black; " class="clusterblast-orf" description="&lt;b&gt;AAT18_RS18405&lt;/b&gt;&lt;br&gt;CGNR zinc finger domain-containing protein&lt;br&gt;Location: 4141448 - 4142011"  />
</g>
<g id="a1_0065"  >
<polygon locus_tag="AAT18_RS18410" id="dummy-1_h1_3_65" points="753,90 756,85 753,80 753,90 " style="stroke-width:1; fill:white; stroke:black; " class="clusterblast-orf" description="&lt;b&gt;AAT18_RS18410&lt;/b&gt;&lt;br&gt;deaminase&lt;br&gt;Location: 4142126 - 4142668"  />
</g>
<g id="a1_0066"  >
<polygon locus_tag="AAT18_RS18415" id="dummy-1_h1_3_66" points="756,85 761,80 762,80 762,90 761,90 756,85 " style="stroke-width:1; fill:white; stroke:black; " class="clusterblast-orf" description="&lt;b&gt;AAT18_RS18415&lt;/b&gt;&lt;br&gt;endonuclease/exonuclease/phosphatase family protein&lt;br&gt;Location: 4142674 - 4143684"  />
</g>
<g id="a1_0067"  >
<polygon locus_tag="AAT18_RS18420" id="dummy-1_h1_3_67" points="762,85 763,80 763,90 762,85 " style="stroke-width:1; fill:white; stroke:black; " class="clusterblast-orf" description="&lt;b&gt;AAT18_RS18420&lt;/b&gt;&lt;br&gt;hypothetical protein&lt;br&gt;Location: 4143678 - 4143947"  />
</g>
<g id="a1_0068"  >
<polygon locus_tag="AAT18_RS18425" id="dummy-1_h1_3_68" points="764,85 766,80 766,90 764,85 " style="stroke-width:1; fill:white; stroke:black; " class="clusterblast-orf" description="&lt;b&gt;AAT18_RS18425&lt;/b&gt;&lt;br&gt;YtxH domain-containing protein&lt;br&gt;Location: 4144171 - 4144524"  />
</g>
<g id="a1_0069"  >
<polygon locus_tag="AAT18_RS18430" id="dummy-1_h1_3_69" points="766,85 768,80 768,90 766,85 " style="stroke-width:1; fill:white; stroke:black; " class="clusterblast-orf" description="&lt;b&gt;AAT18_RS18430&lt;/b&gt;&lt;br&gt;hypothetical protein&lt;br&gt;Location: 4144583 - 4144810"  />
</g>
<g id="a1_0070"  >
<polygon locus_tag="AAT18_RS18435" id="dummy-1_h1_3_70" points="771,90 772,90 777,85 772,80 771,80 771,90 " style="stroke-width:1; fill:white; stroke:black; " class="clusterblast-orf" description="&lt;b&gt;AAT18_RS18435&lt;/b&gt;&lt;br&gt;hypothetical protein&lt;br&gt;Location: 4145455 - 4146561"  />
</g>
<g id="a1_0071"  >
<polygon locus_tag="AAT18_RS18440" id="dummy-1_h1_3_71" points="778,90 780,85 778,80 778,90 " style="stroke-width:1; fill:white; stroke:black; " class="clusterblast-orf" description="&lt;b&gt;AAT18_RS18440&lt;/b&gt;&lt;br&gt;hypothetical protein&lt;br&gt;Location: 4146716 - 4147060"  />
</g>
</svg>
