<svg xmlns:xlink="http://www.w3.org/1999/xlink" preserveAspectRatio="none" width="800" xmlns="http://www.w3.org/2000/svg" version="1.1" x="0" viewBox="0 0 800 230" height="230" y="0"  >
<g label="Query sequence" class="clusterblast-cluster"  >
<text x="5" y="20" class="clusterblast-acc"  >
Query sequence</text>
<line x2="778.0" style="stroke-width:1; stroke:grey; " y1="35" x1="10" y2="35"  />
<polygon locus_tag="cds32_164" id="dummy-1_q0_0_all" points="319,35 324,30 324,30 324,40 324,40 319,35 " style="stroke-width:1; fill:#d81515; stroke:black; " class="clusterblast-orf" description="&lt;b&gt;cds32_164&lt;/b&gt;&lt;br&gt;Lanthionine precursor peptide LanA&lt;br&gt;Location: 32 - 164"  />
<polygon locus_tag="cds209_3068" id="dummy-1_q1_0_all" points="325,35 330,30 428,30 428,40 330,40 325,35 " style="stroke-width:1; fill:#15d815; stroke:black; " class="clusterblast-orf" description="&lt;b&gt;cds209_3068&lt;/b&gt;&lt;br&gt;Lanthionine biosynthesis protein LanL&lt;br&gt;Location: 209 - 3068"  />
<polygon locus_tag="cds3286_3964" id="dummy-1_q2_0_all" points="436,35 441,30 461,30 461,40 441,40 436,35 " style="stroke-width:1; fill:#1515d8; stroke:black; " class="clusterblast-orf" description="&lt;b&gt;cds3286_3964&lt;/b&gt;&lt;br&gt;Transcriptional regulator, ArsR family&lt;br&gt;Location: 3286 - 3964"  />
</g>
<g label="NZ_JNLT01000003" class="clusterblast-cluster" description="NZ_JNLT01000003 (293527-316338): Streptomyces sp. CNS654 CD02DRAFT scaffold00... (15% of genes show similarity), lanthipeptide"  >
<text x="5" y="70" class="clusterblast-acc"  >
<a xlink:href="https://antismash-db.secondarymetabolites.org/area.html?record=NZ_JNLT01000003&amp;start=293527&amp;end=316338" target="_blank">NZ_JNLT01000003 (293527-316338)</a>: Streptomyces sp. CNS654 CD02DRAFT scaffold00... (15% of genes show similarity), lanthipeptide</text>
<line x2="778.0" style="stroke-width:1; stroke:grey; " y1="85" x1="10" y2="85"  />
</g>
<g id="a1_000"  >
<polygon locus_tag="CD02_RS0108645" id="dummy-1_h1_1_0" points="0,90 11,90 16,85 11,80 0,80 0,90 " style="stroke-width:1; fill:white; stroke:black; " class="clusterblast-orf" description="&lt;b&gt;CD02_RS0108645&lt;/b&gt;&lt;br&gt;hypothetical protein&lt;br&gt;Location: 294612 - 295079"  />
</g>
<g id="a1_001"  >
<polygon locus_tag="CD02_RS0108650" id="dummy-1_h1_1_1" points="20,85 25,80 59,80 59,90 25,90 20,85 " style="stroke-width:1; fill:white; stroke:black; " class="clusterblast-orf" description="&lt;b&gt;CD02_RS0108650&lt;/b&gt;&lt;br&gt;succinyldiaminopimelate transaminase&lt;br&gt;Location: 295178 - 296272"  />
</g>
<g id="a1_002"  >
<polygon locus_tag="CD02_RS0108655" id="dummy-1_h1_1_2" points="63,85 68,80 75,80 75,90 68,90 63,85 " style="stroke-width:1; fill:white; stroke:black; " class="clusterblast-orf" description="&lt;b&gt;CD02_RS0108655&lt;/b&gt;&lt;br&gt;ferredoxin family protein&lt;br&gt;Location: 296378 - 296698"  />
</g>
<g id="a1_003"  >
<polygon locus_tag="CD02_RS0108660" id="dummy-1_h1_1_3" points="79,90 110,90 115,85 110,80 79,80 79,90 " style="stroke-width:1; fill:white; stroke:black; " class="clusterblast-orf" description="&lt;b&gt;CD02_RS0108660&lt;/b&gt;&lt;br&gt;GNAT family N-acetyltransferase&lt;br&gt;Location: 296816 - 297811"  />
</g>
<g id="a1_004"  >
<polygon locus_tag="CD02_RS0108665" id="dummy-1_h1_1_4" points="118,90 145,90 150,85 145,80 118,80 118,90 " style="stroke-width:1; fill:white; stroke:black; " class="clusterblast-orf" description="&lt;b&gt;CD02_RS0108665&lt;/b&gt;&lt;br&gt;tetratricopeptide repeat protein&lt;br&gt;Location: 297909 - 298790"  />
</g>
<g id="a1_005"  >
<polygon locus_tag="CD02_RS0108670" id="dummy-1_h1_1_5" points="161,90 178,90 183,85 178,80 161,80 161,90 " style="stroke-width:1; fill:white; stroke:black; " class="clusterblast-orf" description="&lt;b&gt;CD02_RS0108670&lt;/b&gt;&lt;br&gt;response regulator transcription factor&lt;br&gt;Location: 299094 - 299699"  />
</g>
<g id="a1_006"  >
<polygon locus_tag="CD02_RS0108675" id="dummy-1_h1_1_6" points="181,85 186,80 248,80 248,90 186,90 181,85 " style="stroke-width:1; fill:white; stroke:black; " class="clusterblast-orf" description="&lt;b&gt;CD02_RS0108675&lt;/b&gt;&lt;br&gt;ABC transporter ATP-binding protein&lt;br&gt;Location: 299668 - 301518"  />
</g>
<g id="a1_007"  >
<polygon locus_tag="CD02_RS0108680" id="dummy-1_h1_1_7" points="248,85 253,80 311,80 311,90 253,90 248,85 " style="stroke-width:1; fill:white; stroke:black; " class="clusterblast-orf" description="&lt;b&gt;CD02_RS0108680&lt;/b&gt;&lt;br&gt;ABC transporter ATP-binding protein&lt;br&gt;Location: 301515 - 303257"  />
</g>
<g id="a1_008"  >
<polygon locus_tag="CD02_RS0108685" id="dummy-1_h1_1_8" points="314,85 319,80 319,80 319,90 319,90 314,85 " style="stroke-width:1; fill:#d81515; stroke:black; " class="clusterblast-orf" description="&lt;b&gt;CD02_RS0108685&lt;/b&gt;&lt;br&gt;SapB/AmfS family lantipeptide&lt;br&gt;Location: 303351 - 303482&lt;br&gt;&lt;br&gt;&lt;b&gt;BlastP hit with cds32_164&lt;/b&gt;&lt;br&gt;Percentage identity: 100&lt;br&gt;Percentage coverage: 100&lt;br&gt;BLAST bit score: 85&lt;br&gt;E-value: 1.6e-15"  />
</g>
<g id="a1_009"  >
<polygon locus_tag="CD02_RS0108690" id="dummy-1_h1_1_9" points="320,85 325,80 422,80 422,90 325,90 320,85 " style="stroke-width:1; fill:#15d815; stroke:black; " class="clusterblast-orf" description="&lt;b&gt;CD02_RS0108690&lt;/b&gt;&lt;br&gt;protein kinase/lanthionine synthetase C family protein&lt;br&gt;Location: 303528 - 306338&lt;br&gt;&lt;br&gt;&lt;b&gt;BlastP hit with cds209_3068&lt;/b&gt;&lt;br&gt;Percentage identity: 95&lt;br&gt;Percentage coverage: 100&lt;br&gt;BLAST bit score: 1612&lt;br&gt;E-value: 0.0"  />
</g>
<g id="a1_0010"  >
<polygon locus_tag="CD02_RS0108695" id="dummy-1_h1_1_10" points="429,85 434,80 465,80 465,90 434,90 429,85 " style="stroke-width:1; fill:#1515d8; stroke:black; " class="clusterblast-orf" description="&lt;b&gt;CD02_RS0108695&lt;/b&gt;&lt;br&gt;winged helix-turn-helix transcriptional regulator&lt;br&gt;Location: 306557 - 307537&lt;br&gt;&lt;br&gt;&lt;b&gt;BlastP hit with cds3286_3964&lt;/b&gt;&lt;br&gt;Percentage identity: 99&lt;br&gt;Percentage coverage: 100&lt;br&gt;BLAST bit score: 447&lt;br&gt;E-value: 8.3e-124"  />
</g>
<g id="a1_0011"  >
<polygon locus_tag="CD02_RS0108700" id="dummy-1_h1_1_11" points="471,90 511,90 516,85 511,80 471,80 471,90 " style="stroke-width:1; fill:white; stroke:black; " class="clusterblast-orf" description="&lt;b&gt;CD02_RS0108700&lt;/b&gt;&lt;br&gt;membrane protein&lt;br&gt;Location: 307714 - 308967"  />
</g>
<g id="a1_0012"  >
<polygon locus_tag="CD02_RS0108705" id="dummy-1_h1_1_12" points="516,90 532,90 537,85 532,80 516,80 516,90 " style="stroke-width:1; fill:white; stroke:black; " class="clusterblast-orf" description="&lt;b&gt;CD02_RS0108705&lt;/b&gt;&lt;br&gt;sugar O-acetyltransferase&lt;br&gt;Location: 308964 - 309548"  />
</g>
<g id="a1_0013"  >
<polygon locus_tag="CD02_RS0108710" id="dummy-1_h1_1_13" points="541,85 546,80 559,80 559,90 546,90 541,85 " style="stroke-width:1; fill:white; stroke:black; " class="clusterblast-orf" description="&lt;b&gt;CD02_RS0108710&lt;/b&gt;&lt;br&gt;DUF4265 domain-containing protein&lt;br&gt;Location: 309648 - 310154"  />
</g>
<g id="a1_0014"  >
<polygon locus_tag="CD02_RS0108715" id="dummy-1_h1_1_14" points="570,90 629,90 634,85 629,80 570,80 570,90 " style="stroke-width:1; fill:white; stroke:black; " class="clusterblast-orf" description="&lt;b&gt;CD02_RS0108715&lt;/b&gt;&lt;br&gt;hypothetical protein&lt;br&gt;Location: 310465 - 312228"  />
</g>
<g id="a1_0015"  >
<polygon locus_tag="CD02_RS0108720" id="dummy-1_h1_1_15" points="637,85 642,80 710,80 710,90 642,90 637,85 " style="stroke-width:1; fill:white; stroke:black; " class="clusterblast-orf" description="&lt;b&gt;CD02_RS0108720&lt;/b&gt;&lt;br&gt;hypothetical protein&lt;br&gt;Location: 312337 - 314361"  />
</g>
<g id="a1_0016"  >
<polygon locus_tag="CD02_RS36950" id="dummy-1_h1_1_16" points="710,90 712,90 717,85 712,80 710,80 710,90 " style="stroke-width:1; fill:white; stroke:black; " class="clusterblast-orf" description="&lt;b&gt;CD02_RS36950&lt;/b&gt;&lt;br&gt;hypothetical protein&lt;br&gt;Location: 314360 - 314557"  />
</g>
<g id="a1_0017"  >
<polygon locus_tag="CD02_RS0108725" id="dummy-1_h1_1_17" points="726,85 731,80 743,80 743,90 731,90 726,85 " style="stroke-width:1; fill:white; stroke:black; " class="clusterblast-orf" description="&lt;b&gt;CD02_RS0108725&lt;/b&gt;&lt;br&gt;hypothetical protein&lt;br&gt;Location: 314792 - 315265"  />
</g>
<g id="a1_0018"  >
<polygon locus_tag="CD02_RS0108730" id="dummy-1_h1_1_18" points="743,85 748,80 780,80 780,90 748,90 743,85 " style="stroke-width:1; fill:white; stroke:black; " class="clusterblast-orf" description="&lt;b&gt;CD02_RS0108730&lt;/b&gt;&lt;br&gt;N-acetyl-1-D-myo-inositol-2-amino-2-deoxy-alpha- D-glucopyranoside deacetylase&lt;br&gt;Location: 315262 - 316284"  />
</g>
</svg>
