<svg xmlns:xlink="http://www.w3.org/1999/xlink" preserveAspectRatio="none" width="800" xmlns="http://www.w3.org/2000/svg" version="1.1" x="0" viewBox="0 0 800 230" height="230" y="0"  >
<g label="Query sequence" class="clusterblast-cluster"  >
<text x="5" y="20" class="clusterblast-acc"  >
Query sequence</text>
<line x2="778.0" style="stroke-width:1; stroke:grey; " y1="35" x1="10" y2="35"  />
<polygon locus_tag="cds78_1275" id="dummy-1_q0_0_all" points="364,35 369,30 375,30 375,40 369,40 364,35 " style="stroke-width:1; fill:#d81515; stroke:black; " class="clusterblast-orf" description="&lt;b&gt;cds78_1275&lt;/b&gt;&lt;br&gt;Amidohydrolase&lt;br&gt;Location: 78 - 1275"  />
<polygon locus_tag="cds1411_5512" id="dummy-1_q1_0_all" points="376,40 410,40 415,35 410,30 376,30 376,40 " style="stroke-width:1; fill:#15d8d8; stroke:black; " class="clusterblast-orf" description="&lt;b&gt;cds1411_5512&lt;/b&gt;&lt;br&gt;Siderophore biosynthesis non-ribosomal peptide synthetase modules&lt;br&gt;Location: 1411 - 5512"  />
</g>
<g label="NZ_KZ679082" class="clusterblast-cluster" description="NZ_KZ679082 (169293-251500): Streptomyces sp. CS149 scaffold00001, whole geno... (3% of genes show similarity), NRPS"  >
<text x="5" y="70" class="clusterblast-acc"  >
<a xlink:href="https://antismash-db.secondarymetabolites.org/area.html?record=NZ_KZ679082&amp;start=169293&amp;end=251500" target="_blank">NZ_KZ679082 (169293-251500)</a>: Streptomyces sp. CS149 scaffold00001, whole geno... (3% of genes show similarity), NRPS</text>
<line x2="778.0" style="stroke-width:1; stroke:grey; " y1="85" x1="10" y2="85"  />
</g>
<g id="a1_000"  >
<polygon locus_tag="C6W96_RS00785" id="dummy-1_h1_5_0" points="0,85 5,80 9,80 9,90 5,90 0,85 " style="stroke-width:1; fill:white; stroke:black; " class="clusterblast-orf" description="&lt;b&gt;C6W96_RS00785&lt;/b&gt;&lt;br&gt;xanthine dehydrogenase family protein subunit M&lt;br&gt;Location: 169294 - 170295"  />
</g>
<g id="a1_001"  >
<polygon locus_tag="C6W96_RS00790" id="dummy-1_h1_5_1" points="9,85 14,80 14,80 14,90 14,90 9,85 " style="stroke-width:1; fill:white; stroke:black; " class="clusterblast-orf" description="&lt;b&gt;C6W96_RS00790&lt;/b&gt;&lt;br&gt;2Fe-2S iron-sulfur cluster binding domain-containing protein&lt;br&gt;Location: 170292 - 170852"  />
</g>
<g id="a1_002"  >
<polygon locus_tag="C6W96_RS00795" id="dummy-1_h1_5_2" points="15,85 19,80 19,90 15,85 " style="stroke-width:1; fill:white; stroke:black; " class="clusterblast-orf" description="&lt;b&gt;C6W96_RS00795&lt;/b&gt;&lt;br&gt;hypothetical protein&lt;br&gt;Location: 170920 - 171309"  />
</g>
<g id="a1_003"  >
<polygon locus_tag="C6W96_RS00800" id="dummy-1_h1_5_3" points="20,90 23,85 20,80 20,90 " style="stroke-width:1; fill:white; stroke:black; " class="clusterblast-orf" description="&lt;b&gt;C6W96_RS00800&lt;/b&gt;&lt;br&gt;hypothetical protein&lt;br&gt;Location: 171465 - 171806"  />
</g>
<g id="a1_004"  >
<polygon locus_tag="C6W96_RS00805" id="dummy-1_h1_5_4" points="24,90 28,90 33,85 28,80 24,80 24,90 " style="stroke-width:1; fill:white; stroke:black; " class="clusterblast-orf" description="&lt;b&gt;C6W96_RS00805&lt;/b&gt;&lt;br&gt;cation diffusion facilitator family transporter&lt;br&gt;Location: 171871 - 172785"  />
</g>
<g id="a1_005"  >
<polygon locus_tag="C6W96_RS00810" id="dummy-1_h1_5_5" points="34,90 36,90 41,85 36,80 34,80 34,90 " style="stroke-width:1; fill:white; stroke:black; " class="clusterblast-orf" description="&lt;b&gt;C6W96_RS00810&lt;/b&gt;&lt;br&gt;VOC family protein&lt;br&gt;Location: 172895 - 173707"  />
</g>
<g id="a1_006"  >
<polygon locus_tag="C6W96_RS00815" id="dummy-1_h1_5_6" points="41,85 46,80 47,80 47,90 46,90 41,85 " style="stroke-width:1; fill:white; stroke:black; " class="clusterblast-orf" description="&lt;b&gt;C6W96_RS00815&lt;/b&gt;&lt;br&gt;hypothetical protein&lt;br&gt;Location: 173714 - 174253"  />
</g>
<g id="a1_007"  >
<polygon locus_tag="C6W96_RS00820" id="dummy-1_h1_5_7" points="49,90 52,85 49,80 49,90 " style="stroke-width:1; fill:white; stroke:black; " class="clusterblast-orf" description="&lt;b&gt;C6W96_RS00820&lt;/b&gt;&lt;br&gt;VOC family protein&lt;br&gt;Location: 174463 - 174843"  />
</g>
<g id="a1_008"  >
<polygon locus_tag="C6W96_RS00825" id="dummy-1_h1_5_8" points="52,85 57,80 57,80 57,90 57,90 52,85 " style="stroke-width:1; fill:white; stroke:black; " class="clusterblast-orf" description="&lt;b&gt;C6W96_RS00825&lt;/b&gt;&lt;br&gt;GNAT family N-acetyltransferase&lt;br&gt;Location: 174821 - 175333"  />
</g>
<g id="a1_009"  >
<polygon locus_tag="C6W96_RS00830" id="dummy-1_h1_5_9" points="57,85 61,80 61,90 57,85 " style="stroke-width:1; fill:white; stroke:black; " class="clusterblast-orf" description="&lt;b&gt;C6W96_RS00830&lt;/b&gt;&lt;br&gt;DUF1992 domain-containing protein&lt;br&gt;Location: 175371 - 175775"  />
</g>
<g id="a1_0010"  >
<polygon locus_tag="C6W96_RS00835" id="dummy-1_h1_5_10" points="63,90 64,90 69,85 64,80 63,80 63,90 " style="stroke-width:1; fill:white; stroke:black; " class="clusterblast-orf" description="&lt;b&gt;C6W96_RS00835&lt;/b&gt;&lt;br&gt;hypothetical protein&lt;br&gt;Location: 175995 - 176573"  />
</g>
<g id="a1_0011"  >
<polygon locus_tag="C6W96_RS00840" id="dummy-1_h1_5_11" points="69,90 73,85 69,80 69,90 " style="stroke-width:1; fill:white; stroke:black; " class="clusterblast-orf" description="&lt;b&gt;C6W96_RS00840&lt;/b&gt;&lt;br&gt;hypothetical protein&lt;br&gt;Location: 176570 - 177067"  />
</g>
<g id="a1_0012"  >
<polygon locus_tag="C6W96_RS00845" id="dummy-1_h1_5_12" points="74,85 79,80 82,80 82,90 79,90 74,85 " style="stroke-width:1; fill:white; stroke:black; " class="clusterblast-orf" description="&lt;b&gt;C6W96_RS00845&lt;/b&gt;&lt;br&gt;tyrosine-protein phosphatase&lt;br&gt;Location: 177164 - 177961"  />
</g>
<g id="a1_0013"  >
<polygon locus_tag="C6W96_RS00850" id="dummy-1_h1_5_13" points="82,85 87,80 87,80 87,90 87,90 82,85 " style="stroke-width:1; fill:white; stroke:black; " class="clusterblast-orf" description="&lt;b&gt;C6W96_RS00850&lt;/b&gt;&lt;br&gt;hypothetical protein&lt;br&gt;Location: 178028 - 178546"  />
</g>
<g id="a1_0014"  >
<polygon locus_tag="C6W96_RS00855" id="dummy-1_h1_5_14" points="90,90 102,90 107,85 102,80 90,80 90,90 " style="stroke-width:1; fill:white; stroke:black; " class="clusterblast-orf" description="&lt;b&gt;C6W96_RS00855&lt;/b&gt;&lt;br&gt;methylmalonyl-CoA mutase small subunit&lt;br&gt;Location: 178813 - 180675"  />
</g>
<g id="a1_0015"  >
<polygon locus_tag="C6W96_RS00860" id="dummy-1_h1_5_15" points="107,90 124,90 129,85 124,80 107,80 107,90 " style="stroke-width:1; fill:white; stroke:black; " class="clusterblast-orf" description="&lt;b&gt;C6W96_RS00860&lt;/b&gt;&lt;br&gt;methylmalonyl-CoA mutase&lt;br&gt;Location: 180675 - 182918"  />
</g>
<g id="a1_0016"  >
<polygon locus_tag="C6W96_RS00865" id="dummy-1_h1_5_16" points="129,90 133,90 138,85 133,80 129,80 129,90 " style="stroke-width:1; fill:white; stroke:black; " class="clusterblast-orf" description="&lt;b&gt;C6W96_RS00865&lt;/b&gt;&lt;br&gt;methylmalonyl Co-A mutase-associated GTPase MeaB&lt;br&gt;Location: 182931 - 183935"  />
</g>
<g id="a1_0017"  >
<polygon locus_tag="C6W96_RS00870" id="dummy-1_h1_5_17" points="139,85 144,80 147,80 147,90 144,90 139,85 " style="stroke-width:1; fill:white; stroke:black; " class="clusterblast-orf" description="&lt;b&gt;C6W96_RS00870&lt;/b&gt;&lt;br&gt;ABC transporter ATP-binding protein&lt;br&gt;Location: 184041 - 184832"  />
</g>
<g id="a1_0018"  >
<polygon locus_tag="C6W96_RS00875" id="dummy-1_h1_5_18" points="148,90 153,90 158,85 153,80 148,80 148,90 " style="stroke-width:1; fill:white; stroke:black; " class="clusterblast-orf" description="&lt;b&gt;C6W96_RS00875&lt;/b&gt;&lt;br&gt;iron-siderophore ABC transporter substrate-binding protein&lt;br&gt;Location: 184982 - 185989"  />
</g>
<g id="a1_0019"  >
<polygon locus_tag="C6W96_RS00880" id="dummy-1_h1_5_19" points="159,85 164,80 170,80 170,90 164,90 159,85 " style="stroke-width:1; fill:#d81515; stroke:black; " class="clusterblast-orf" description="&lt;b&gt;C6W96_RS00880&lt;/b&gt;&lt;br&gt;M20 family metallopeptidase&lt;br&gt;Location: 186066 - 187262&lt;br&gt;&lt;br&gt;&lt;b&gt;BlastP hit with cds78_1275&lt;/b&gt;&lt;br&gt;Percentage identity: 99&lt;br&gt;Percentage coverage: 100&lt;br&gt;BLAST bit score: 780&lt;br&gt;E-value: 5.6e-224"  />
</g>
<g id="a1_0020"  >
<polygon locus_tag="C6W96_RS00885" id="dummy-1_h1_5_20" points="171,90 237,90 242,85 237,80 171,80 171,90 " style="stroke-width:1; fill:#15d8d8; stroke:black; " class="clusterblast-orf" description="&lt;b&gt;C6W96_RS00885&lt;/b&gt;&lt;br&gt;non-ribosomal peptide synthetase&lt;br&gt;Location: 187399 - 194895&lt;br&gt;&lt;br&gt;&lt;b&gt;BlastP hit with cds1411_5512&lt;/b&gt;&lt;br&gt;Percentage identity: 96&lt;br&gt;Percentage coverage: 101&lt;br&gt;BLAST bit score: 2513&lt;br&gt;E-value: 0.0"  />
</g>
<g id="a1_0021"  >
<polygon locus_tag="C6W96_RS00890" id="dummy-1_h1_5_21" points="242,90 245,85 242,80 242,90 " style="stroke-width:1; fill:white; stroke:black; " class="clusterblast-orf" description="&lt;b&gt;C6W96_RS00890&lt;/b&gt;&lt;br&gt;MbtH family protein&lt;br&gt;Location: 194901 - 195116"  />
</g>
<g id="a1_0022"  >
<polygon locus_tag="C6W96_RS00895" id="dummy-1_h1_5_22" points="244,90 253,90 258,85 253,80 244,80 244,90 " style="stroke-width:1; fill:white; stroke:black; " class="clusterblast-orf" description="&lt;b&gt;C6W96_RS00895&lt;/b&gt;&lt;br&gt;DHA2 family efflux MFS transporter permease subunit&lt;br&gt;Location: 195113 - 196579"  />
</g>
<g id="a1_0023"  >
<polygon locus_tag="C6W96_RS00900" id="dummy-1_h1_5_23" points="259,85 264,80 272,80 272,90 264,90 259,85 " style="stroke-width:1; fill:white; stroke:black; " class="clusterblast-orf" description="&lt;b&gt;C6W96_RS00900&lt;/b&gt;&lt;br&gt;enterochelin esterase&lt;br&gt;Location: 196659 - 197972"  />
</g>
<g id="a1_0024"  >
<polygon locus_tag="C6W96_RS00905" id="dummy-1_h1_5_24" points="272,85 277,80 293,80 293,90 277,90 272,85 " style="stroke-width:1; fill:white; stroke:black; " class="clusterblast-orf" description="&lt;b&gt;C6W96_RS00905&lt;/b&gt;&lt;br&gt;Fe(3+)-hydroxamate ABC transporter permease FhuB&lt;br&gt;Location: 197969 - 200278"  />
</g>
<g id="a1_0025"  >
<polygon locus_tag="C6W96_RS00910" id="dummy-1_h1_5_25" points="294,90 297,90 302,85 297,80 294,80 294,90 " style="stroke-width:1; fill:white; stroke:black; " class="clusterblast-orf" description="&lt;b&gt;C6W96_RS00910&lt;/b&gt;&lt;br&gt;2,3-dihydro-2,3-dihydroxybenzoate dehydrogenase&lt;br&gt;Location: 200378 - 201208"  />
</g>
<g id="a1_0026"  >
<polygon locus_tag="C6W96_RS00915" id="dummy-1_h1_5_26" points="303,90 310,90 315,85 310,80 303,80 303,90 " style="stroke-width:1; fill:white; stroke:black; " class="clusterblast-orf" description="&lt;b&gt;C6W96_RS00915&lt;/b&gt;&lt;br&gt;isochorismate synthase DhbC&lt;br&gt;Location: 201305 - 202510"  />
</g>
<g id="a1_0027"  >
<polygon locus_tag="C6W96_RS00920" id="dummy-1_h1_5_27" points="315,90 325,90 330,85 325,80 315,80 315,90 " style="stroke-width:1; fill:white; stroke:black; " class="clusterblast-orf" description="&lt;b&gt;C6W96_RS00920&lt;/b&gt;&lt;br&gt;(2,3-dihydroxybenzoyl)adenylate synthase&lt;br&gt;Location: 202507 - 204144"  />
</g>
<g id="a1_0028"  >
<polygon locus_tag="C6W96_RS00925" id="dummy-1_h1_5_28" points="330,90 331,90 336,85 331,80 330,80 330,90 " style="stroke-width:1; fill:white; stroke:black; " class="clusterblast-orf" description="&lt;b&gt;C6W96_RS00925&lt;/b&gt;&lt;br&gt;isochorismatase family protein&lt;br&gt;Location: 204174 - 204806"  />
</g>
<g id="a1_0029"  >
<polygon locus_tag="C6W96_RS00930" id="dummy-1_h1_5_29" points="336,90 339,85 336,80 336,90 " style="stroke-width:1; fill:white; stroke:black; " class="clusterblast-orf" description="&lt;b&gt;C6W96_RS00930&lt;/b&gt;&lt;br&gt;isochorismatase&lt;br&gt;Location: 204803 - 205051"  />
</g>
<g id="a1_0030"  >
<polygon locus_tag="C6W96_RS00935" id="dummy-1_h1_5_30" points="341,85 346,80 356,80 356,90 346,90 341,85 " style="stroke-width:1; fill:white; stroke:black; " class="clusterblast-orf" description="&lt;b&gt;C6W96_RS00935&lt;/b&gt;&lt;br&gt;alpha-D-glucose phosphate-specific phosphoglucomutase&lt;br&gt;Location: 205239 - 206882"  />
</g>
<g id="a1_0031"  >
<polygon locus_tag="C6W96_RS00940" id="dummy-1_h1_5_31" points="358,85 363,80 369,80 369,90 363,90 358,85 " style="stroke-width:1; fill:white; stroke:black; " class="clusterblast-orf" description="&lt;b&gt;C6W96_RS00940&lt;/b&gt;&lt;br&gt;chitinase&lt;br&gt;Location: 207121 - 208188"  />
</g>
<g id="a1_0032"  >
<polygon locus_tag="C6W96_RS00945" id="dummy-1_h1_5_32" points="371,85 376,80 376,80 376,90 376,90 371,85 " style="stroke-width:1; fill:white; stroke:black; " class="clusterblast-orf" description="&lt;b&gt;C6W96_RS00945&lt;/b&gt;&lt;br&gt;hypothetical protein&lt;br&gt;Location: 208451 - 208983"  />
</g>
<g id="a1_0033"  >
<polygon locus_tag="C6W96_RS00950" id="dummy-1_h1_5_33" points="377,85 379,80 379,90 377,85 " style="stroke-width:1; fill:white; stroke:black; " class="clusterblast-orf" description="&lt;b&gt;C6W96_RS00950&lt;/b&gt;&lt;br&gt;malate synthase A&lt;br&gt;Location: 209063 - 209242"  />
</g>
<g id="a1_0034"  >
<polygon locus_tag="C6W96_RS00955" id="dummy-1_h1_5_34" points="380,85 385,80 385,80 385,90 385,90 380,85 " style="stroke-width:1; fill:white; stroke:black; " class="clusterblast-orf" description="&lt;b&gt;C6W96_RS00955&lt;/b&gt;&lt;br&gt;hypothetical protein&lt;br&gt;Location: 209438 - 209893"  />
</g>
<g id="a1_0035"  >
<polygon locus_tag="C6W96_RS00960" id="dummy-1_h1_5_35" points="387,90 391,90 396,85 391,80 387,80 387,90 " style="stroke-width:1; fill:white; stroke:black; " class="clusterblast-orf" description="&lt;b&gt;C6W96_RS00960&lt;/b&gt;&lt;br&gt;DUF3048 domain-containing protein&lt;br&gt;Location: 210162 - 211121"  />
</g>
<g id="a1_0036"  >
<polygon locus_tag="C6W96_RS00965" id="dummy-1_h1_5_36" points="397,85 402,80 413,80 413,90 402,90 397,85 " style="stroke-width:1; fill:white; stroke:black; " class="clusterblast-orf" description="&lt;b&gt;C6W96_RS00965&lt;/b&gt;&lt;br&gt;family 16 glycosylhydrolase&lt;br&gt;Location: 211189 - 212925"  />
</g>
<g id="a1_0037"  >
<polygon locus_tag="C6W96_RS00970" id="dummy-1_h1_5_37" points="417,90 433,90 438,85 433,80 417,80 417,90 " style="stroke-width:1; fill:white; stroke:black; " class="clusterblast-orf" description="&lt;b&gt;C6W96_RS00970&lt;/b&gt;&lt;br&gt;discoidin domain-containing protein&lt;br&gt;Location: 213275 - 215467"  />
</g>
<g id="a1_0038"  >
<polygon locus_tag="C6W96_RS00975" id="dummy-1_h1_5_38" points="439,85 444,80 452,80 452,90 444,90 439,85 " style="stroke-width:1; fill:white; stroke:black; " class="clusterblast-orf" description="&lt;b&gt;C6W96_RS00975&lt;/b&gt;&lt;br&gt;phosphopyruvate hydratase&lt;br&gt;Location: 215661 - 216962"  />
</g>
<g id="a1_0039"  >
<polygon locus_tag="C6W96_RS00980" id="dummy-1_h1_5_39" points="454,90 458,85 454,80 454,90 " style="stroke-width:1; fill:white; stroke:black; " class="clusterblast-orf" description="&lt;b&gt;C6W96_RS00980&lt;/b&gt;&lt;br&gt;MarR family transcriptional regulator&lt;br&gt;Location: 217162 - 217584"  />
</g>
<g id="a1_0040"  >
<polygon locus_tag="C6W96_RS00985" id="dummy-1_h1_5_40" points="459,90 464,90 469,85 464,80 459,80 459,90 " style="stroke-width:1; fill:white; stroke:black; " class="clusterblast-orf" description="&lt;b&gt;C6W96_RS00985&lt;/b&gt;&lt;br&gt;enterochelin esterase&lt;br&gt;Location: 217712 - 218803"  />
</g>
<g id="a1_0041"  >
<polygon locus_tag="C6W96_RS00990" id="dummy-1_h1_5_41" points="470,85 475,80 486,80 486,90 475,90 470,85 " style="stroke-width:1; fill:white; stroke:black; " class="clusterblast-orf" description="&lt;b&gt;C6W96_RS00990&lt;/b&gt;&lt;br&gt;ABC transporter ATP-binding protein&lt;br&gt;Location: 218864 - 220564"  />
</g>
<g id="a1_0042"  >
<polygon locus_tag="C6W96_RS00995" id="dummy-1_h1_5_42" points="486,85 491,80 590,80 590,90 491,90 486,85 " style="stroke-width:1; fill:white; stroke:black; " class="clusterblast-orf" description="&lt;b&gt;C6W96_RS00995&lt;/b&gt;&lt;br&gt;non-ribosomal peptide synthetase&lt;br&gt;Location: 220570 - 231558"  />
</g>
<g id="a1_0043"  >
<polygon locus_tag="C6W96_RS01000" id="dummy-1_h1_5_43" points="591,85 596,80 608,80 608,90 596,90 591,85 " style="stroke-width:1; fill:white; stroke:black; " class="clusterblast-orf" description="&lt;b&gt;C6W96_RS01000&lt;/b&gt;&lt;br&gt;ABC transporter ATP-binding protein&lt;br&gt;Location: 231618 - 233405"  />
</g>
<g id="a1_0044"  >
<polygon locus_tag="C6W96_RS01005" id="dummy-1_h1_5_44" points="608,85 613,80 618,80 618,90 613,90 608,85 " style="stroke-width:1; fill:white; stroke:black; " class="clusterblast-orf" description="&lt;b&gt;C6W96_RS01005&lt;/b&gt;&lt;br&gt;iron-siderophore ABC transporter substrate-binding protein&lt;br&gt;Location: 233452 - 234504"  />
</g>
<g id="a1_0045"  >
<polygon locus_tag="C6W96_RS01010" id="dummy-1_h1_5_45" points="620,85 625,80 628,80 628,90 625,90 620,85 " style="stroke-width:1; fill:white; stroke:black; " class="clusterblast-orf" description="&lt;b&gt;C6W96_RS01010&lt;/b&gt;&lt;br&gt;ABC transporter ATP-binding protein&lt;br&gt;Location: 234679 - 235521"  />
</g>
<g id="a1_0046"  >
<polygon locus_tag="C6W96_RS01015" id="dummy-1_h1_5_46" points="628,85 633,80 638,80 638,90 633,90 628,85 " style="stroke-width:1; fill:white; stroke:black; " class="clusterblast-orf" description="&lt;b&gt;C6W96_RS01015&lt;/b&gt;&lt;br&gt;iron chelate uptake ABC transporter family permease subunit&lt;br&gt;Location: 235559 - 236620"  />
</g>
<g id="a1_0047"  >
<polygon locus_tag="C6W96_RS01020" id="dummy-1_h1_5_47" points="639,85 644,80 649,80 649,90 644,90 639,85 " style="stroke-width:1; fill:white; stroke:black; " class="clusterblast-orf" description="&lt;b&gt;C6W96_RS01020&lt;/b&gt;&lt;br&gt;iron ABC transporter permease&lt;br&gt;Location: 236674 - 237732"  />
</g>
<g id="a1_0048"  >
<polygon locus_tag="C6W96_RS01025" id="dummy-1_h1_5_48" points="650,85 655,80 663,80 663,90 655,90 650,85 " style="stroke-width:1; fill:white; stroke:black; " class="clusterblast-orf" description="&lt;b&gt;C6W96_RS01025&lt;/b&gt;&lt;br&gt;SidA/IucD/PvdA family monooxygenase&lt;br&gt;Location: 237844 - 239199"  />
</g>
<g id="a1_0049"  >
<polygon locus_tag="C6W96_RS01030" id="dummy-1_h1_5_49" points="666,90 672,90 677,85 672,80 666,80 666,90 " style="stroke-width:1; fill:white; stroke:black; " class="clusterblast-orf" description="&lt;b&gt;C6W96_RS01030&lt;/b&gt;&lt;br&gt;NAD-dependent epimerase/dehydratase family protein&lt;br&gt;Location: 239579 - 240694"  />
</g>
<g id="a1_0050"  >
<polygon locus_tag="C6W96_RS01035" id="dummy-1_h1_5_50" points="677,85 682,80 687,80 687,90 682,90 677,85 " style="stroke-width:1; fill:white; stroke:black; " class="clusterblast-orf" description="&lt;b&gt;C6W96_RS01035&lt;/b&gt;&lt;br&gt;HAMP domain-containing histidine kinase&lt;br&gt;Location: 240675 - 241781"  />
</g>
<g id="a1_0051"  >
<polygon locus_tag="C6W96_RS01040" id="dummy-1_h1_5_51" points="687,85 692,80 695,80 695,90 692,90 687,85 " style="stroke-width:1; fill:white; stroke:black; " class="clusterblast-orf" description="&lt;b&gt;C6W96_RS01040&lt;/b&gt;&lt;br&gt;response regulator transcription factor&lt;br&gt;Location: 241778 - 242575"  />
</g>
<g id="a1_0052"  >
<polygon locus_tag="C6W96_RS01045" id="dummy-1_h1_5_52" points="696,90 698,90 703,85 698,80 696,80 696,90 " style="stroke-width:1; fill:white; stroke:black; " class="clusterblast-orf" description="&lt;b&gt;C6W96_RS01045&lt;/b&gt;&lt;br&gt;glycosyltransferase family 2 protein&lt;br&gt;Location: 242700 - 243461"  />
</g>
<g id="a1_0053"  >
<polygon locus_tag="C6W96_RS01050" id="dummy-1_h1_5_53" points="703,90 704,90 709,85 704,80 703,80 703,90 " style="stroke-width:1; fill:white; stroke:black; " class="clusterblast-orf" description="&lt;b&gt;C6W96_RS01050&lt;/b&gt;&lt;br&gt;DUF2064 domain-containing protein&lt;br&gt;Location: 243458 - 244120"  />
</g>
<g id="a1_0054"  >
<polygon locus_tag="C6W96_RS01055" id="dummy-1_h1_5_54" points="709,90 712,90 717,85 712,80 709,80 709,90 " style="stroke-width:1; fill:white; stroke:black; " class="clusterblast-orf" description="&lt;b&gt;C6W96_RS01055&lt;/b&gt;&lt;br&gt;class I SAM-dependent methyltransferase&lt;br&gt;Location: 244117 - 244959"  />
</g>
<g id="a1_0055"  >
<polygon locus_tag="C6W96_RS01065" id="dummy-1_h1_5_55" points="721,85 726,80 733,80 733,90 726,90 721,85 " style="stroke-width:1; fill:white; stroke:black; " class="clusterblast-orf" description="&lt;b&gt;C6W96_RS01065&lt;/b&gt;&lt;br&gt;molybdopterin-dependent oxidoreductase&lt;br&gt;Location: 245354 - 246625"  />
</g>
<g id="a1_0056"  >
<polygon locus_tag="C6W96_RS01070" id="dummy-1_h1_5_56" points="735,90 744,90 749,85 744,80 735,80 735,90 " style="stroke-width:1; fill:white; stroke:black; " class="clusterblast-orf" description="&lt;b&gt;C6W96_RS01070&lt;/b&gt;&lt;br&gt;hypothetical protein&lt;br&gt;Location: 246804 - 248243"  />
</g>
<g id="a1_0057"  >
<polygon locus_tag="C6W96_RS01075" id="dummy-1_h1_5_57" points="749,85 754,80 765,80 765,90 754,90 749,85 " style="stroke-width:1; fill:white; stroke:black; " class="clusterblast-orf" description="&lt;b&gt;C6W96_RS01075&lt;/b&gt;&lt;br&gt;ABC transporter permease&lt;br&gt;Location: 248276 - 249937"  />
</g>
<g id="a1_0058"  >
<polygon locus_tag="C6W96_RS01080" id="dummy-1_h1_5_58" points="765,85 770,80 773,80 773,90 770,90 765,85 " style="stroke-width:1; fill:white; stroke:black; " class="clusterblast-orf" description="&lt;b&gt;C6W96_RS01080&lt;/b&gt;&lt;br&gt;ABC transporter ATP-binding protein&lt;br&gt;Location: 249934 - 250866"  />
</g>
<g id="a1_0059"  >
<polygon locus_tag="C6W96_RS01085" id="dummy-1_h1_5_59" points="775,90 775,90 780,85 775,80 775,80 775,90 " style="stroke-width:1; fill:white; stroke:black; " class="clusterblast-orf" description="&lt;b&gt;C6W96_RS01085&lt;/b&gt;&lt;br&gt;MarR family transcriptional regulator&lt;br&gt;Location: 250991 - 251500"  />
</g>
</svg>
