<svg xmlns:xlink="http://www.w3.org/1999/xlink" preserveAspectRatio="none" width="800" xmlns="http://www.w3.org/2000/svg" version="1.1" x="0" viewBox="0 0 800 230" height="230" y="0"  >
<g label="Query sequence" class="clusterblast-cluster"  >
<text x="5" y="20" class="clusterblast-acc"  >
Query sequence</text>
<line x2="778.0" style="stroke-width:1; stroke:grey; " y1="35" x1="10" y2="35"  />
<polygon locus_tag="cds0_609" id="dummy-1_q0_0_all" points="112,35 117,30 132,30 132,40 117,40 112,35 " style="stroke-width:1; fill:#d81515; stroke:black; " class="clusterblast-orf" description="&lt;b&gt;cds0_609&lt;/b&gt;&lt;br&gt;hypothetical protein&lt;br&gt;Location: 0 - 609"  />
<polygon locus_tag="cds1182_1689" id="dummy-1_q1_0_all" points="150,35 155,30 167,30 167,40 155,40 150,35 " style="stroke-width:1; fill:#56d815; stroke:black; " class="clusterblast-orf" description="&lt;b&gt;cds1182_1689&lt;/b&gt;&lt;br&gt;putative DNA topology modulation protein FlaR&lt;br&gt;Location: 1182 - 1689"  />
<polygon locus_tag="cds1897_2203" id="dummy-1_q2_0_all" points="174,40 179,40 184,35 179,30 174,30 174,40 " style="stroke-width:1; fill:#1597d8; stroke:black; " class="clusterblast-orf" description="&lt;b&gt;cds1897_2203&lt;/b&gt;&lt;br&gt;Mobile element protein&lt;br&gt;Location: 1897 - 2203"  />
<polygon locus_tag="cds2199_2610" id="dummy-1_q3_0_all" points="184,40 192,40 197,35 192,30 184,30 184,40 " style="stroke-width:1; fill:#1597d8; stroke:black; " class="clusterblast-orf" description="&lt;b&gt;cds2199_2610&lt;/b&gt;&lt;br&gt;Transposase&lt;br&gt;Location: 2199 - 2610"  />
<polygon locus_tag="cds2634_3654" id="dummy-1_q4_0_all" points="198,35 203,30 231,30 231,40 203,40 198,35 " style="stroke-width:1; fill:#9715d8; stroke:black; " class="clusterblast-orf" description="&lt;b&gt;cds2634_3654&lt;/b&gt;&lt;br&gt;O-methyltransferase clustered with LanBC&lt;br&gt;Location: 2634 - 3654"  />
<polygon locus_tag="cds3635_4862" id="dummy-1_q5_0_all" points="230,35 235,30 271,30 271,40 235,40 230,35 " style="stroke-width:1; fill:#d85615; stroke:black; " class="clusterblast-orf" description="&lt;b&gt;cds3635_4862&lt;/b&gt;&lt;br&gt;Lanthionine biosynthesis cyclase LanC&lt;br&gt;Location: 3635 - 4862"  />
<polygon locus_tag="cds4858_7876" id="dummy-1_q6_0_all" points="270,35 275,30 369,30 369,40 275,40 270,35 " style="stroke-width:1; fill:#15d815; stroke:black; " class="clusterblast-orf" description="&lt;b&gt;cds4858_7876&lt;/b&gt;&lt;br&gt;Lanthionine biosynthesis protein LanB&lt;br&gt;Location: 4858 - 7876"  />
<polygon locus_tag="cds8013_8211" id="dummy-1_q7_0_all" points="374,35 379,30 380,30 380,40 379,40 374,35 " style="stroke-width:1; fill:#1556d8; stroke:black; " class="clusterblast-orf" description="&lt;b&gt;cds8013_8211&lt;/b&gt;&lt;br&gt;putative lantibiotic precursor&lt;br&gt;Location: 8013 - 8211"  />
<polygon locus_tag="cds8263_9502" id="dummy-1_q8_0_all" points="382,35 387,30 422,30 422,40 387,40 382,35 " style="stroke-width:1; fill:#d815d8; stroke:black; " class="clusterblast-orf" description="&lt;b&gt;cds8263_9502&lt;/b&gt;&lt;br&gt;Protein-L-isoaspartate O-methyltransferase (EC 2.1.1.77)&lt;br&gt;Location: 8263 - 9502"  />
<polygon locus_tag="cds9656_10322" id="dummy-1_q9_0_all" points="427,35 432,30 449,30 449,40 432,40 427,35 " style="stroke-width:1; fill:#d89715; stroke:black; " class="clusterblast-orf" description="&lt;b&gt;cds9656_10322&lt;/b&gt;&lt;br&gt;hypothetical protein&lt;br&gt;Location: 9656 - 10322"  />
<polygon locus_tag="cds10318_10519" id="dummy-1_q10_0_all" points="449,35 454,30 456,30 456,40 454,40 449,35 " style="stroke-width:1; fill:#15d856; stroke:black; " class="clusterblast-orf" description="&lt;b&gt;cds10318_10519&lt;/b&gt;&lt;br&gt;hypothetical protein&lt;br&gt;Location: 10318 - 10519"  />
<polygon locus_tag="cds10563_11028" id="dummy-1_q11_0_all" points="457,35 462,30 472,30 472,40 462,40 457,35 " style="stroke-width:1; fill:#1515d8; stroke:black; " class="clusterblast-orf" description="&lt;b&gt;cds10563_11028&lt;/b&gt;&lt;br&gt;hypothetical protein&lt;br&gt;Location: 10563 - 11028"  />
<polygon locus_tag="cds11021_11480" id="dummy-1_q12_0_all" points="472,35 477,30 487,30 487,40 477,40 472,35 " style="stroke-width:1; fill:#d81597; stroke:black; " class="clusterblast-orf" description="&lt;b&gt;cds11021_11480&lt;/b&gt;&lt;br&gt;hypothetical protein&lt;br&gt;Location: 11021 - 11480"  />
<polygon locus_tag="cds11519_11993" id="dummy-1_q13_0_all" points="488,35 493,30 504,30 504,40 493,40 488,35 " style="stroke-width:1; fill:#d8d815; stroke:black; " class="clusterblast-orf" description="&lt;b&gt;cds11519_11993&lt;/b&gt;&lt;br&gt;hypothetical protein&lt;br&gt;Location: 11519 - 11993"  />
<polygon locus_tag="cds12156_13560" id="dummy-1_q14_0_all" points="509,40 550,40 555,35 550,30 509,30 509,40 " style="stroke-width:1; fill:#15d897; stroke:black; " class="clusterblast-orf" description="&lt;b&gt;cds12156_13560&lt;/b&gt;&lt;br&gt;Putative regulatory protein&lt;br&gt;Location: 12156 - 13560"  />
<polygon locus_tag="cds13556_14444" id="dummy-1_q15_0_all" points="555,40 579,40 584,35 579,30 555,30 555,40 " style="stroke-width:1; fill:#5615d8; stroke:black; " class="clusterblast-orf" description="&lt;b&gt;cds13556_14444&lt;/b&gt;&lt;br&gt;hypothetical protein&lt;br&gt;Location: 13556 - 14444"  />
<polygon locus_tag="cds14533_14821" id="dummy-1_q16_0_all" points="587,35 592,30 596,30 596,40 592,40 587,35 " style="stroke-width:1; fill:#d81556; stroke:black; " class="clusterblast-orf" description="&lt;b&gt;cds14533_14821&lt;/b&gt;&lt;br&gt;hypothetical protein&lt;br&gt;Location: 14533 - 14821"  />
<polygon locus_tag="cds14912_15572" id="dummy-1_q17_0_all" points="599,40 616,40 621,35 616,30 599,30 599,40 " style="stroke-width:1; fill:#97d815; stroke:black; " class="clusterblast-orf" description="&lt;b&gt;cds14912_15572&lt;/b&gt;&lt;br&gt;hypothetical protein&lt;br&gt;Location: 14912 - 15572"  />
<polygon locus_tag="cds15568_17014" id="dummy-1_q18_0_all" points="621,40 663,40 668,35 663,30 621,30 621,40 " style="stroke-width:1; fill:#15d8d8; stroke:black; " class="clusterblast-orf" description="&lt;b&gt;cds15568_17014&lt;/b&gt;&lt;br&gt;Integrase&lt;br&gt;Location: 15568 - 17014"  />
</g>
<g label="NZ_CP020563" class="clusterblast-cluster" description="NZ_CP020563 (3910392-3935661): Kitasatospora albolonga strain YIM 101047 chro... (45% of genes show similarity), lanthipeptide"  >
<text x="5" y="70" class="clusterblast-acc"  >
<a xlink:href="https://antismash-db.secondarymetabolites.org/area.html?record=NZ_CP020563&amp;start=3910392&amp;end=3935661" target="_blank">NZ_CP020563 (3910392-3935661)</a>: Kitasatospora albolonga strain YIM 101047 chro... (45% of genes show similarity), lanthipeptide</text>
<line x2="778.0" style="stroke-width:1; stroke:grey; " y1="85" x1="10" y2="85"  />
</g>
<g id="a1_000"  >
<polygon locus_tag="B7C62_RS17080" id="dummy-1_h1_4_0" points="0,90 8,90 13,85 8,80 0,80 0,90 " style="stroke-width:1; fill:white; stroke:black; " class="clusterblast-orf" description="&lt;b&gt;B7C62_RS17080&lt;/b&gt;&lt;br&gt;hypothetical protein&lt;br&gt;Location: 3935159 - 3934731"  />
</g>
<g id="a1_001"  >
<polygon locus_tag="B7C62_RS17075" id="dummy-1_h1_4_1" points="15,90 23,90 28,85 23,80 15,80 15,90 " style="stroke-width:1; fill:white; stroke:black; " class="clusterblast-orf" description="&lt;b&gt;B7C62_RS17075&lt;/b&gt;&lt;br&gt;hypothetical protein&lt;br&gt;Location: 3934689 - 3934294"  />
</g>
<g id="a1_002"  >
<polygon locus_tag="B7C62_RS17070" id="dummy-1_h1_4_2" points="28,90 43,90 48,85 43,80 28,80 28,90 " style="stroke-width:1; fill:white; stroke:black; " class="clusterblast-orf" description="&lt;b&gt;B7C62_RS17070&lt;/b&gt;&lt;br&gt;hypothetical protein&lt;br&gt;Location: 3934297 - 3933689"  />
</g>
<g id="a1_003"  >
<polygon locus_tag="B7C62_RS17065" id="dummy-1_h1_4_3" points="54,90 59,90 64,85 59,80 54,80 54,90 " style="stroke-width:1; fill:white; stroke:black; " class="clusterblast-orf" description="&lt;b&gt;B7C62_RS17065&lt;/b&gt;&lt;br&gt;hypothetical protein&lt;br&gt;Location: 3933478 - 3933200"  />
</g>
<g id="a1_004"  >
<polygon locus_tag="B7C62_RS17060" id="dummy-1_h1_4_4" points="63,90 81,90 86,85 81,80 63,80 63,90 " style="stroke-width:1; fill:white; stroke:black; " class="clusterblast-orf" description="&lt;b&gt;B7C62_RS17060&lt;/b&gt;&lt;br&gt;hypothetical protein&lt;br&gt;Location: 3933203 - 3932499"  />
</g>
<g id="a1_005"  >
<polygon locus_tag="B7C62_RS17055" id="dummy-1_h1_4_5" points="113,90 253,90 258,85 253,80 113,80 113,90 " style="stroke-width:1; fill:white; stroke:black; " class="clusterblast-orf" description="&lt;b&gt;B7C62_RS17055&lt;/b&gt;&lt;br&gt;relaxase domain-containing protein&lt;br&gt;Location: 3931687 - 3927251"  />
</g>
<g id="a1_006"  >
<polygon locus_tag="B7C62_RS35210" id="dummy-1_h1_4_6" points="259,85 264,80 282,80 282,90 264,90 259,85 " style="stroke-width:1; fill:white; stroke:black; " class="clusterblast-orf" description="&lt;b&gt;B7C62_RS35210&lt;/b&gt;&lt;br&gt;SpoIIE family protein phosphatase&lt;br&gt;Location: 3927211 - 3926522"  />
</g>
<g id="a1_007"  >
<polygon locus_tag="B7C62_RS35570" id="dummy-1_h1_4_7" points="283,85 288,80 291,80 291,90 288,90 283,85 " style="stroke-width:1; fill:white; stroke:black; " class="clusterblast-orf" description="&lt;b&gt;B7C62_RS35570&lt;/b&gt;&lt;br&gt;hypothetical protein&lt;br&gt;Location: 3926481 - 3926230"  />
</g>
<g id="a1_008"  >
<polygon locus_tag="B7C62_RS17040" id="dummy-1_h1_4_8" points="310,85 315,80 343,80 343,90 315,90 310,85 " style="stroke-width:1; fill:#9715d8; stroke:black; " class="clusterblast-orf" description="&lt;b&gt;B7C62_RS17040&lt;/b&gt;&lt;br&gt;methyltransferase&lt;br&gt;Location: 3925661 - 3924666&lt;br&gt;&lt;br&gt;&lt;b&gt;BlastP hit with cds2634_3654&lt;/b&gt;&lt;br&gt;Percentage identity: 78&lt;br&gt;Percentage coverage: 99&lt;br&gt;BLAST bit score: 525&lt;br&gt;E-value: 4.7e-147"  />
</g>
<g id="a1_009"  >
<polygon locus_tag="B7C62_RS17035" id="dummy-1_h1_4_9" points="342,85 347,80 382,80 382,90 347,90 342,85 " style="stroke-width:1; fill:#d85615; stroke:black; " class="clusterblast-orf" description="&lt;b&gt;B7C62_RS17035&lt;/b&gt;&lt;br&gt;lanthionine synthetase C family protein&lt;br&gt;Location: 3924684 - 3923455&lt;br&gt;&lt;br&gt;&lt;b&gt;BlastP hit with cds3635_4862&lt;/b&gt;&lt;br&gt;Percentage identity: 90&lt;br&gt;Percentage coverage: 99&lt;br&gt;BLAST bit score: 759&lt;br&gt;E-value: 1.8e-217"  />
</g>
<g id="a1_0010"  >
<polygon locus_tag="B7C62_RS17030" id="dummy-1_h1_4_10" points="382,85 387,80 482,80 482,90 387,90 382,85 " style="stroke-width:1; fill:#15d815; stroke:black; " class="clusterblast-orf" description="&lt;b&gt;B7C62_RS17030&lt;/b&gt;&lt;br&gt;lantibiotic dehydratase&lt;br&gt;Location: 3923458 - 3920393&lt;br&gt;&lt;br&gt;&lt;b&gt;BlastP hit with cds4858_7876&lt;/b&gt;&lt;br&gt;Percentage identity: 87&lt;br&gt;Percentage coverage: 100&lt;br&gt;BLAST bit score: 1732&lt;br&gt;E-value: 0.0"  />
</g>
<g id="a1_0011"  >
<polygon locus_tag="B7C62_RS17025" id="dummy-1_h1_4_11" points="485,85 490,80 492,80 492,90 490,90 485,85 " style="stroke-width:1; fill:#1556d8; stroke:black; " class="clusterblast-orf" description="&lt;b&gt;B7C62_RS17025&lt;/b&gt;&lt;br&gt;FxLD family lantipeptide&lt;br&gt;Location: 3920299 - 3920102&lt;br&gt;&lt;br&gt;&lt;b&gt;BlastP hit with cds8013_8211&lt;/b&gt;&lt;br&gt;Percentage identity: 91&lt;br&gt;Percentage coverage: 100&lt;br&gt;BLAST bit score: 121&lt;br&gt;E-value: 2.3e-26"  />
</g>
<g id="a1_0012"  >
<polygon locus_tag="B7C62_RS17020" id="dummy-1_h1_4_12" points="494,85 499,80 534,80 534,90 499,90 494,85 " style="stroke-width:1; fill:#d815d8; stroke:black; " class="clusterblast-orf" description="&lt;b&gt;B7C62_RS17020&lt;/b&gt;&lt;br&gt;methyltransferase, FxLD system&lt;br&gt;Location: 3920049 - 3918811&lt;br&gt;&lt;br&gt;&lt;b&gt;BlastP hit with cds8263_9502&lt;/b&gt;&lt;br&gt;Percentage identity: 95&lt;br&gt;Percentage coverage: 100&lt;br&gt;BLAST bit score: 791&lt;br&gt;E-value: 4.3e-227"  />
</g>
<g id="a1_0013"  >
<polygon locus_tag="B7C62_RS17015" id="dummy-1_h1_4_13" points="539,85 544,80 560,80 560,90 544,90 539,85 " style="stroke-width:1; fill:#d89715; stroke:black; " class="clusterblast-orf" description="&lt;b&gt;B7C62_RS17015&lt;/b&gt;&lt;br&gt;hypothetical protein&lt;br&gt;Location: 3918675 - 3918010&lt;br&gt;&lt;br&gt;&lt;b&gt;BlastP hit with cds9656_10322&lt;/b&gt;&lt;br&gt;Percentage identity: 39&lt;br&gt;Percentage coverage: 95&lt;br&gt;BLAST bit score: 122&lt;br&gt;E-value: 6e-26"  />
</g>
<g id="a1_0014"  >
<polygon locus_tag="B7C62_RS17010" id="dummy-1_h1_4_14" points="560,85 565,80 576,80 576,90 565,90 560,85 " style="stroke-width:1; fill:white; stroke:black; " class="clusterblast-orf" description="&lt;b&gt;B7C62_RS17010&lt;/b&gt;&lt;br&gt;hypothetical protein&lt;br&gt;Location: 3918013 - 3917540"  />
</g>
<g id="a1_0015"  >
<polygon locus_tag="B7C62_RS17005" id="dummy-1_h1_4_15" points="584,85 589,80 629,80 629,90 589,90 584,85 " style="stroke-width:1; fill:white; stroke:black; " class="clusterblast-orf" description="&lt;b&gt;B7C62_RS17005&lt;/b&gt;&lt;br&gt;GntR family transcriptional regulator&lt;br&gt;Location: 3917273 - 3915903"  />
</g>
<g id="a1_0016"  >
<polygon locus_tag="B7C62_RS17000" id="dummy-1_h1_4_16" points="635,85 640,80 650,80 650,90 640,90 635,85 " style="stroke-width:1; fill:#d81597; stroke:black; " class="clusterblast-orf" description="&lt;b&gt;B7C62_RS17000&lt;/b&gt;&lt;br&gt;hypothetical protein&lt;br&gt;Location: 3915736 - 3915281&lt;br&gt;&lt;br&gt;&lt;b&gt;BlastP hit with cds11021_11480&lt;/b&gt;&lt;br&gt;Percentage identity: 71&lt;br&gt;Percentage coverage: 98&lt;br&gt;BLAST bit score: 210&lt;br&gt;E-value: 1.5e-52"  />
</g>
<g id="a1_0017"  >
<polygon locus_tag="B7C62_RS16995" id="dummy-1_h1_4_17" points="651,85 656,80 664,80 664,90 656,90 651,85 " style="stroke-width:1; fill:#d8d815; stroke:black; " class="clusterblast-orf" description="&lt;b&gt;B7C62_RS16995&lt;/b&gt;&lt;br&gt;ATP-binding protein&lt;br&gt;Location: 3915241 - 3914828&lt;br&gt;&lt;br&gt;&lt;b&gt;BlastP hit with cds11519_11993&lt;/b&gt;&lt;br&gt;Percentage identity: 91&lt;br&gt;Percentage coverage: 87&lt;br&gt;BLAST bit score: 259&lt;br&gt;E-value: 1.7e-67"  />
</g>
<g id="a1_0018"  >
<polygon locus_tag="B7C62_RS16990" id="dummy-1_h1_4_18" points="672,90 713,90 718,85 713,80 672,80 672,90 " style="stroke-width:1; fill:#15d897; stroke:black; " class="clusterblast-orf" description="&lt;b&gt;B7C62_RS16990&lt;/b&gt;&lt;br&gt;helix-turn-helix domain-containing protein&lt;br&gt;Location: 3914604 - 3913201&lt;br&gt;&lt;br&gt;&lt;b&gt;BlastP hit with cds12156_13560&lt;/b&gt;&lt;br&gt;Percentage identity: 94&lt;br&gt;Percentage coverage: 100&lt;br&gt;BLAST bit score: 855&lt;br&gt;E-value: 2.1e-246"  />
</g>
<g id="a1_0019"  >
<polygon locus_tag="B7C62_RS16985" id="dummy-1_h1_4_19" points="717,90 741,90 746,85 741,80 717,80 717,90 " style="stroke-width:1; fill:#5615d8; stroke:black; " class="clusterblast-orf" description="&lt;b&gt;B7C62_RS16985&lt;/b&gt;&lt;br&gt;aminoglycoside phosphotransferase family protein&lt;br&gt;Location: 3913204 - 3912317&lt;br&gt;&lt;br&gt;&lt;b&gt;BlastP hit with cds13556_14444&lt;/b&gt;&lt;br&gt;Percentage identity: 91&lt;br&gt;Percentage coverage: 100&lt;br&gt;BLAST bit score: 550&lt;br&gt;E-value: 1.2e-154"  />
</g>
<g id="a1_0020"  >
<polygon locus_tag="B7C62_RS16980" id="dummy-1_h1_4_20" points="753,85 758,80 763,80 763,90 758,90 753,85 " style="stroke-width:1; fill:white; stroke:black; " class="clusterblast-orf" description="&lt;b&gt;B7C62_RS16980&lt;/b&gt;&lt;br&gt;hypothetical protein&lt;br&gt;Location: 3912108 - 3911806"  />
</g>
<g id="a1_0021"  >
<polygon locus_tag="B7C62_RS16975" id="dummy-1_h1_4_21" points="763,85 768,80 779,80 779,90 768,90 763,85 " style="stroke-width:1; fill:white; stroke:black; " class="clusterblast-orf" description="&lt;b&gt;B7C62_RS16975&lt;/b&gt;&lt;br&gt;hypothetical protein&lt;br&gt;Location: 3911809 - 3911306"  />
</g>
</svg>
