<svg xmlns:xlink="http://www.w3.org/1999/xlink" preserveAspectRatio="none" width="800" xmlns="http://www.w3.org/2000/svg" version="1.1" x="0" viewBox="0 0 800 230" height="230" y="0"  >
<g label="Query sequence" class="clusterblast-cluster"  >
<text x="5" y="20" class="clusterblast-acc"  >
Query sequence</text>
<line x2="778.0" style="stroke-width:1; stroke:grey; " y1="35" x1="10" y2="35"  />
<polygon locus_tag="cds1_11311" id="dummy-1_q0_0_all" points="282,40 370,40 375,35 370,30 282,30 282,40 " style="stroke-width:1; fill:#d81515; stroke:black; " class="clusterblast-orf" description="&lt;b&gt;cds1_11311&lt;/b&gt;&lt;br&gt;Polyketide synthase modules and related proteins&lt;br&gt;Location: 1 - 11311"  />
<polygon locus_tag="cds11307_22911" id="dummy-1_q1_0_all" points="375,40 465,40 470,35 465,30 375,30 375,40 " style="stroke-width:1; fill:#d81515; stroke:black; " class="clusterblast-orf" description="&lt;b&gt;cds11307_22911&lt;/b&gt;&lt;br&gt;Polyketide synthase modules and related proteins&lt;br&gt;Location: 11307 - 22911"  />
<polygon locus_tag="cds22907_24167" id="dummy-1_q2_0_all" points="470,40 475,40 480,35 475,30 470,30 470,40 " style="stroke-width:1; fill:#77d815; stroke:black; " class="clusterblast-orf" description="&lt;b&gt;cds22907_24167&lt;/b&gt;&lt;br&gt;transcriptional regulator, Crp/Fnr family&lt;br&gt;Location: 22907 - 24167"  />
<polygon locus_tag="cds24228_25269" id="dummy-1_q3_0_all" points="481,40 484,40 489,35 484,30 481,30 481,40 " style="stroke-width:1; fill:#15d8d8; stroke:black; " class="clusterblast-orf" description="&lt;b&gt;cds24228_25269&lt;/b&gt;&lt;br&gt;Polyketide synthase modules and related proteins&lt;br&gt;Location: 24228 - 25269"  />
<polygon locus_tag="cds25282_26230" id="dummy-1_q4_0_all" points="489,40 492,40 497,35 492,30 489,30 489,40 " style="stroke-width:1; fill:#7715d8; stroke:black; " class="clusterblast-orf" description="&lt;b&gt;cds25282_26230&lt;/b&gt;&lt;br&gt;SyrP-like protein&lt;br&gt;Location: 25282 - 26230"  />
</g>
<g label="NZ_CP050974" class="clusterblast-cluster" description="NZ_CP050974 (8172268-8267326): Streptomyces sp. RLB1-33 chromosome, complete ... (11% of genes show similarity), NRPS,siderophore"  >
<text x="5" y="70" class="clusterblast-acc"  >
<a xlink:href="https://antismash-db.secondarymetabolites.org/area.html?record=NZ_CP050974&amp;start=8172268&amp;end=8267326" target="_blank">NZ_CP050974 (8172268-8267326)</a>: Streptomyces sp. RLB1-33 chromosome, complete ... (11% of genes show similarity), NRPS,siderophore</text>
<line x2="778.0" style="stroke-width:1; stroke:grey; " y1="85" x1="10" y2="85"  />
</g>
<g id="a1_000"  >
<polygon locus_tag="HEP84_RS37240" id="dummy-1_h1_8_0" points="0,85 5,80 7,80 7,90 5,90 0,85 " style="stroke-width:1; fill:white; stroke:black; " class="clusterblast-orf" description="&lt;b&gt;HEP84_RS37240&lt;/b&gt;&lt;br&gt;ADP-ribosylglycohydrolase family protein&lt;br&gt;Location: 8267326 - 8266421"  />
</g>
<g id="a1_001"  >
<polygon locus_tag="HEP84_RS37235" id="dummy-1_h1_8_1" points="7,85 12,80 12,80 12,90 12,90 7,85 " style="stroke-width:1; fill:white; stroke:black; " class="clusterblast-orf" description="&lt;b&gt;HEP84_RS37235&lt;/b&gt;&lt;br&gt;histidine phosphatase family protein&lt;br&gt;Location: 8266431 - 8265748"  />
</g>
<g id="a1_002"  >
<polygon locus_tag="HEP84_RS37230" id="dummy-1_h1_8_2" points="13,85 18,80 18,80 18,90 18,90 13,85 " style="stroke-width:1; fill:white; stroke:black; " class="clusterblast-orf" description="&lt;b&gt;HEP84_RS37230&lt;/b&gt;&lt;br&gt;YdbC family protein&lt;br&gt;Location: 8265641 - 8265036"  />
</g>
<g id="a1_003"  >
<polygon locus_tag="HEP84_RS37225" id="dummy-1_h1_8_3" points="20,90 24,85 20,80 20,90 " style="stroke-width:1; fill:white; stroke:black; " class="clusterblast-orf" description="&lt;b&gt;HEP84_RS37225&lt;/b&gt;&lt;br&gt;TerD family protein&lt;br&gt;Location: 8264880 - 8264347"  />
</g>
<g id="a1_004"  >
<polygon locus_tag="HEP84_RS37220" id="dummy-1_h1_8_4" points="25,85 30,80 49,80 49,90 30,90 25,85 " style="stroke-width:1; fill:white; stroke:black; " class="clusterblast-orf" description="&lt;b&gt;HEP84_RS37220&lt;/b&gt;&lt;br&gt;vitamin B12-dependent ribonucleotide reductase&lt;br&gt;Location: 8264240 - 8261346"  />
</g>
<g id="a1_005"  >
<polygon locus_tag="HEP84_RS37215" id="dummy-1_h1_8_5" points="50,85 55,80 55,80 55,90 55,90 50,85 " style="stroke-width:1; fill:white; stroke:black; " class="clusterblast-orf" description="&lt;b&gt;HEP84_RS37215&lt;/b&gt;&lt;br&gt;transcriptional repressor NrdR&lt;br&gt;Location: 8261194 - 8260610"  />
</g>
<g id="a1_006"  >
<polygon locus_tag="HEP84_RS37210" id="dummy-1_h1_8_6" points="59,90 60,90 65,85 60,80 59,80 59,90 " style="stroke-width:1; fill:white; stroke:black; " class="clusterblast-orf" description="&lt;b&gt;HEP84_RS37210&lt;/b&gt;&lt;br&gt;transcriptional repressor LexA&lt;br&gt;Location: 8260091 - 8259315"  />
</g>
<g id="a1_007"  >
<polygon locus_tag="HEP84_RS37205" id="dummy-1_h1_8_7" points="70,85 75,80 87,80 87,90 75,90 70,85 " style="stroke-width:1; fill:white; stroke:black; " class="clusterblast-orf" description="&lt;b&gt;HEP84_RS37205&lt;/b&gt;&lt;br&gt;ATP-dependent DNA helicase&lt;br&gt;Location: 8258705 - 8256693"  />
</g>
<g id="a1_008"  >
<polygon locus_tag="HEP84_RS37200" id="dummy-1_h1_8_8" points="88,85 93,80 102,80 102,90 93,90 88,85 " style="stroke-width:1; fill:white; stroke:black; " class="clusterblast-orf" description="&lt;b&gt;HEP84_RS37200&lt;/b&gt;&lt;br&gt;IucA/IucC family siderophore biosynthesis protein&lt;br&gt;Location: 8256598 - 8254877"  />
</g>
<g id="a1_009"  >
<polygon locus_tag="HEP84_RS37195" id="dummy-1_h1_8_9" points="105,85 110,80 111,80 111,90 110,90 105,85 " style="stroke-width:1; fill:white; stroke:black; " class="clusterblast-orf" description="&lt;b&gt;HEP84_RS37195&lt;/b&gt;&lt;br&gt;GNAT family N-acetyltransferase&lt;br&gt;Location: 8254478 - 8253741"  />
</g>
<g id="a1_0010"  >
<polygon locus_tag="HEP84_RS37190" id="dummy-1_h1_8_10" points="113,85 118,80 129,80 129,90 118,90 113,85 " style="stroke-width:1; fill:white; stroke:black; " class="clusterblast-orf" description="&lt;b&gt;HEP84_RS37190&lt;/b&gt;&lt;br&gt;iron transporter&lt;br&gt;Location: 8253531 - 8251567"  />
</g>
<g id="a1_0011"  >
<polygon locus_tag="HEP84_RS37185" id="dummy-1_h1_8_11" points="131,85 136,80 142,80 142,90 136,90 131,85 " style="stroke-width:1; fill:white; stroke:black; " class="clusterblast-orf" description="&lt;b&gt;HEP84_RS37185&lt;/b&gt;&lt;br&gt;diaminobutyrate--2-oxoglutarate transaminase family protein&lt;br&gt;Location: 8251326 - 8249929"  />
</g>
<g id="a1_0012"  >
<polygon locus_tag="HEP84_RS37180" id="dummy-1_h1_8_12" points="146,85 150,80 150,90 146,85 " style="stroke-width:1; fill:white; stroke:black; " class="clusterblast-orf" description="&lt;b&gt;HEP84_RS37180&lt;/b&gt;&lt;br&gt;flavin reductase family protein&lt;br&gt;Location: 8249498 - 8248962"  />
</g>
<g id="a1_0013"  >
<polygon locus_tag="HEP84_RS37175" id="dummy-1_h1_8_13" points="152,90 215,90 220,85 215,80 152,80 152,90 " style="stroke-width:1; fill:#d81515; stroke:black; " class="clusterblast-orf" description="&lt;b&gt;HEP84_RS37175&lt;/b&gt;&lt;br&gt;amino acid adenylation domain-containing protein&lt;br&gt;Location: 8248756 - 8240477&lt;br&gt;&lt;br&gt;&lt;b&gt;BlastP hit with cds1_11311&lt;/b&gt;&lt;br&gt;Percentage identity: 34&lt;br&gt;Percentage coverage: 83&lt;br&gt;BLAST bit score: 1156&lt;br&gt;E-value: 0.0&lt;br&gt;&lt;br&gt;&lt;b&gt;BlastP hit with cds11307_22911&lt;/b&gt;&lt;br&gt;Percentage identity: 34&lt;br&gt;Percentage coverage: 81&lt;br&gt;BLAST bit score: 1174&lt;br&gt;E-value: 0.0"  />
</g>
<g id="a1_0014"  >
<polygon locus_tag="HEP84_RS37170" id="dummy-1_h1_8_14" points="230,90 235,90 240,85 235,80 230,80 230,90 " style="stroke-width:1; fill:white; stroke:black; " class="clusterblast-orf" description="&lt;b&gt;HEP84_RS37170&lt;/b&gt;&lt;br&gt;non-ribosomal peptide synthetase&lt;br&gt;Location: 8239296 - 8237956"  />
</g>
<g id="a1_0015"  >
<polygon locus_tag="HEP84_RS37165" id="dummy-1_h1_8_15" points="252,90 255,85 252,80 252,90 " style="stroke-width:1; fill:white; stroke:black; " class="clusterblast-orf" description="&lt;b&gt;HEP84_RS37165&lt;/b&gt;&lt;br&gt;CDA peptide synthetase III&lt;br&gt;Location: 8236551 - 8236234"  />
</g>
<g id="a1_0016"  >
<polygon locus_tag="HEP84_RS37160" id="dummy-1_h1_8_16" points="265,90 274,90 279,85 274,80 265,80 265,90 " style="stroke-width:1; fill:white; stroke:black; " class="clusterblast-orf" description="&lt;b&gt;HEP84_RS37160&lt;/b&gt;&lt;br&gt;amino acid adenylation domain-containing protein&lt;br&gt;Location: 8234922 - 8233261"  />
</g>
<g id="a1_0017"  >
<polygon locus_tag="HEP84_RS37155" id="dummy-1_h1_8_17" points="280,90 288,90 293,85 288,80 280,80 280,90 " style="stroke-width:1; fill:white; stroke:black; " class="clusterblast-orf" description="&lt;b&gt;HEP84_RS37155&lt;/b&gt;&lt;br&gt;non-ribosomal peptide synthetase&lt;br&gt;Location: 8233110 - 8231590"  />
</g>
<g id="a1_0018"  >
<polygon locus_tag="HEP84_RS37150" id="dummy-1_h1_8_18" points="304,90 307,85 304,80 304,90 " style="stroke-width:1; fill:white; stroke:black; " class="clusterblast-orf" description="&lt;b&gt;HEP84_RS37150&lt;/b&gt;&lt;br&gt;hypothetical protein&lt;br&gt;Location: 8230158 - 8229835"  />
</g>
<g id="a1_0019"  >
<polygon locus_tag="HEP84_RS37145" id="dummy-1_h1_8_19" points="308,90 315,90 320,85 315,80 308,80 308,90 " style="stroke-width:1; fill:white; stroke:black; " class="clusterblast-orf" description="&lt;b&gt;HEP84_RS37145&lt;/b&gt;&lt;br&gt;peptide synthetase&lt;br&gt;Location: 8229762 - 8228305"  />
</g>
<g id="a1_0020"  >
<polygon locus_tag="HEP84_RS37140" id="dummy-1_h1_8_20" points="320,90 335,90 340,85 335,80 320,80 320,90 " style="stroke-width:1; fill:white; stroke:black; " class="clusterblast-orf" description="&lt;b&gt;HEP84_RS37140&lt;/b&gt;&lt;br&gt;AMP-binding protein&lt;br&gt;Location: 8228303 - 8225853"  />
</g>
<g id="a1_0021"  >
<polygon locus_tag="HEP84_RS37135" id="dummy-1_h1_8_21" points="341,90 415,90 420,85 415,80 341,80 341,90 " style="stroke-width:1; fill:#d81515; stroke:black; " class="clusterblast-orf" description="&lt;b&gt;HEP84_RS37135&lt;/b&gt;&lt;br&gt;amino acid adenylation domain-containing protein&lt;br&gt;Location: 8225762 - 8216037&lt;br&gt;&lt;br&gt;&lt;b&gt;BlastP hit with cds1_11311&lt;/b&gt;&lt;br&gt;Percentage identity: 62&lt;br&gt;Percentage coverage: 90&lt;br&gt;BLAST bit score: 3783&lt;br&gt;E-value: 0.0&lt;br&gt;&lt;br&gt;&lt;b&gt;BlastP hit with cds11307_22911&lt;/b&gt;&lt;br&gt;Percentage identity: 50&lt;br&gt;Percentage coverage: 79&lt;br&gt;BLAST bit score: 2651&lt;br&gt;E-value: 0.0"  />
</g>
<g id="a1_0022"  >
<polygon locus_tag="HEP84_RS37130" id="dummy-1_h1_8_22" points="420,90 466,90 471,85 466,80 420,80 420,90 " style="stroke-width:1; fill:#d81515; stroke:black; " class="clusterblast-orf" description="&lt;b&gt;HEP84_RS37130&lt;/b&gt;&lt;br&gt;amino acid adenylation domain-containing protein&lt;br&gt;Location: 8216040 - 8209819&lt;br&gt;&lt;br&gt;&lt;b&gt;BlastP hit with cds1_11311&lt;/b&gt;&lt;br&gt;Percentage identity: 50&lt;br&gt;Percentage coverage: 53&lt;br&gt;BLAST bit score: 1728&lt;br&gt;E-value: 0.0&lt;br&gt;&lt;br&gt;&lt;b&gt;BlastP hit with cds11307_22911&lt;/b&gt;&lt;br&gt;Percentage identity: 51&lt;br&gt;Percentage coverage: 52&lt;br&gt;BLAST bit score: 1862&lt;br&gt;E-value: 0.0"  />
</g>
<g id="a1_0023"  >
<polygon locus_tag="HEP84_RS37125" id="dummy-1_h1_8_23" points="471,90 500,90 505,85 500,80 471,80 471,90 " style="stroke-width:1; fill:white; stroke:black; " class="clusterblast-orf" description="&lt;b&gt;HEP84_RS37125&lt;/b&gt;&lt;br&gt;amino acid adenylation domain-containing protein&lt;br&gt;Location: 8209816 - 8205758"  />
</g>
<g id="a1_0024"  >
<polygon locus_tag="HEP84_RS37120" id="dummy-1_h1_8_24" points="505,90 511,90 516,85 511,80 505,80 505,90 " style="stroke-width:1; fill:#77d815; stroke:black; " class="clusterblast-orf" description="&lt;b&gt;HEP84_RS37120&lt;/b&gt;&lt;br&gt;MFS transporter&lt;br&gt;Location: 8205703 - 8204408&lt;br&gt;&lt;br&gt;&lt;b&gt;BlastP hit with cds22907_24167&lt;/b&gt;&lt;br&gt;Percentage identity: 57&lt;br&gt;Percentage coverage: 99&lt;br&gt;BLAST bit score: 418&lt;br&gt;E-value: 5.9e-115"  />
</g>
<g id="a1_0025"  >
<polygon locus_tag="HEP84_RS37115" id="dummy-1_h1_8_25" points="516,90 519,90 524,85 519,80 516,80 516,90 " style="stroke-width:1; fill:#15d8d8; stroke:black; " class="clusterblast-orf" description="&lt;b&gt;HEP84_RS37115&lt;/b&gt;&lt;br&gt;LLM class flavin-dependent oxidoreductase&lt;br&gt;Location: 8204386 - 8203346&lt;br&gt;&lt;br&gt;&lt;b&gt;BlastP hit with cds24228_25269&lt;/b&gt;&lt;br&gt;Percentage identity: 86&lt;br&gt;Percentage coverage: 100&lt;br&gt;BLAST bit score: 615&lt;br&gt;E-value: 2.7e-174"  />
</g>
<g id="a1_0026"  >
<polygon locus_tag="HEP84_RS37110" id="dummy-1_h1_8_26" points="525,90 528,90 533,85 528,80 525,80 525,90 " style="stroke-width:1; fill:#7715d8; stroke:black; " class="clusterblast-orf" description="&lt;b&gt;HEP84_RS37110&lt;/b&gt;&lt;br&gt;hypothetical protein&lt;br&gt;Location: 8203304 - 8202360&lt;br&gt;&lt;br&gt;&lt;b&gt;BlastP hit with cds25282_26230&lt;/b&gt;&lt;br&gt;Percentage identity: 82&lt;br&gt;Percentage coverage: 99&lt;br&gt;BLAST bit score: 543&lt;br&gt;E-value: 1.6e-152"  />
</g>
<g id="a1_0027"  >
<polygon locus_tag="HEP84_RS37105" id="dummy-1_h1_8_27" points="534,85 539,80 549,80 549,90 539,90 534,85 " style="stroke-width:1; fill:white; stroke:black; " class="clusterblast-orf" description="&lt;b&gt;HEP84_RS37105&lt;/b&gt;&lt;br&gt;hypothetical protein&lt;br&gt;Location: 8202197 - 8200332"  />
</g>
<g id="a1_0028"  >
<polygon locus_tag="HEP84_RS37100" id="dummy-1_h1_8_28" points="554,85 559,80 560,80 560,90 559,90 554,85 " style="stroke-width:1; fill:white; stroke:black; " class="clusterblast-orf" description="&lt;b&gt;HEP84_RS37100&lt;/b&gt;&lt;br&gt;response regulator&lt;br&gt;Location: 8199695 - 8199048"  />
</g>
<g id="a1_0029"  >
<polygon locus_tag="HEP84_RS37095" id="dummy-1_h1_8_29" points="560,85 565,80 570,80 570,90 565,90 560,85 " style="stroke-width:1; fill:white; stroke:black; " class="clusterblast-orf" description="&lt;b&gt;HEP84_RS37095&lt;/b&gt;&lt;br&gt;sensor histidine kinase&lt;br&gt;Location: 8199063 - 8197840"  />
</g>
<g id="a1_0030"  >
<polygon locus_tag="HEP84_RS37090" id="dummy-1_h1_8_30" points="571,90 572,90 577,85 572,80 571,80 571,90 " style="stroke-width:1; fill:white; stroke:black; " class="clusterblast-orf" description="&lt;b&gt;HEP84_RS37090&lt;/b&gt;&lt;br&gt;ATP-binding cassette domain-containing protein&lt;br&gt;Location: 8197729 - 8196962"  />
</g>
<g id="a1_0031"  >
<polygon locus_tag="HEP84_RS37085" id="dummy-1_h1_8_31" points="577,90 591,90 596,85 591,80 577,80 577,90 " style="stroke-width:1; fill:white; stroke:black; " class="clusterblast-orf" description="&lt;b&gt;HEP84_RS37085&lt;/b&gt;&lt;br&gt;FtsX-like permease family protein&lt;br&gt;Location: 8196962 - 8194578"  />
</g>
<g id="a1_0032"  >
<polygon locus_tag="HEP84_RS37080" id="dummy-1_h1_8_32" points="598,90 599,90 604,85 599,80 598,80 598,90 " style="stroke-width:1; fill:white; stroke:black; " class="clusterblast-orf" description="&lt;b&gt;HEP84_RS37080&lt;/b&gt;&lt;br&gt;alpha/beta fold hydrolase&lt;br&gt;Location: 8194412 - 8193627"  />
</g>
<g id="a1_0033"  >
<polygon locus_tag="HEP84_RS37075" id="dummy-1_h1_8_33" points="605,90 614,90 619,85 614,80 605,80 605,90 " style="stroke-width:1; fill:white; stroke:black; " class="clusterblast-orf" description="&lt;b&gt;HEP84_RS37075&lt;/b&gt;&lt;br&gt;AMP-binding protein&lt;br&gt;Location: 8193579 - 8191816"  />
</g>
<g id="a1_0034"  >
<polygon locus_tag="HEP84_RS37070" id="dummy-1_h1_8_34" points="619,90 624,90 629,85 624,80 619,80 619,90 " style="stroke-width:1; fill:white; stroke:black; " class="clusterblast-orf" description="&lt;b&gt;HEP84_RS37070&lt;/b&gt;&lt;br&gt;acyl-CoA dehydrogenase&lt;br&gt;Location: 8191819 - 8190611"  />
</g>
<g id="a1_0035"  >
<polygon locus_tag="HEP84_RS37065" id="dummy-1_h1_8_35" points="629,90 633,85 629,80 629,90 " style="stroke-width:1; fill:white; stroke:black; " class="clusterblast-orf" description="&lt;b&gt;HEP84_RS37065&lt;/b&gt;&lt;br&gt;hypothetical protein&lt;br&gt;Location: 8190570 - 8190133"  />
</g>
<g id="a1_0036"  >
<polygon locus_tag="HEP84_RS37060" id="dummy-1_h1_8_36" points="633,90 641,90 646,85 641,80 633,80 633,90 " style="stroke-width:1; fill:white; stroke:black; " class="clusterblast-orf" description="&lt;b&gt;HEP84_RS37060&lt;/b&gt;&lt;br&gt;acyl-CoA dehydrogenase&lt;br&gt;Location: 8190136 - 8188484"  />
</g>
<g id="a1_0037"  >
<polygon locus_tag="HEP84_RS37055" id="dummy-1_h1_8_37" points="647,90 649,85 647,80 647,90 " style="stroke-width:1; fill:white; stroke:black; " class="clusterblast-orf" description="&lt;b&gt;HEP84_RS37055&lt;/b&gt;&lt;br&gt;acyl carrier protein&lt;br&gt;Location: 8188404 - 8188120"  />
</g>
<g id="a1_0038"  >
<polygon locus_tag="HEP84_RS37050" id="dummy-1_h1_8_38" points="651,85 652,80 652,90 651,85 " style="stroke-width:1; fill:white; stroke:black; " class="clusterblast-orf" description="&lt;b&gt;HEP84_RS37050&lt;/b&gt;&lt;br&gt;MbtH family NRPS accessory protein&lt;br&gt;Location: 8187986 - 8187768"  />
</g>
<g id="a1_0039"  >
<polygon locus_tag="HEP84_RS37045" id="dummy-1_h1_8_39" points="655,90 660,90 665,85 660,80 655,80 655,90 " style="stroke-width:1; fill:white; stroke:black; " class="clusterblast-orf" description="&lt;b&gt;HEP84_RS37045&lt;/b&gt;&lt;br&gt;hypothetical protein&lt;br&gt;Location: 8187438 - 8186209"  />
</g>
<g id="a1_0040"  >
<polygon locus_tag="HEP84_RS37040" id="dummy-1_h1_8_40" points="667,85 672,80 679,80 679,90 672,90 667,85 " style="stroke-width:1; fill:white; stroke:black; " class="clusterblast-orf" description="&lt;b&gt;HEP84_RS37040&lt;/b&gt;&lt;br&gt;GTPase HflX&lt;br&gt;Location: 8186008 - 8184512"  />
</g>
<g id="a1_0041"  >
<polygon locus_tag="HEP84_RS37035" id="dummy-1_h1_8_41" points="681,85 686,80 693,80 693,90 686,90 681,85 " style="stroke-width:1; fill:white; stroke:black; " class="clusterblast-orf" description="&lt;b&gt;HEP84_RS37035&lt;/b&gt;&lt;br&gt;M1 family metallopeptidase&lt;br&gt;Location: 8184297 - 8182816"  />
</g>
<g id="a1_0042"  >
<polygon locus_tag="HEP84_RS37030" id="dummy-1_h1_8_42" points="694,85 699,80 712,80 712,90 699,90 694,85 " style="stroke-width:1; fill:white; stroke:black; " class="clusterblast-orf" description="&lt;b&gt;HEP84_RS37030&lt;/b&gt;&lt;br&gt;HD domain-containing protein&lt;br&gt;Location: 8182748 - 8180436"  />
</g>
<g id="a1_0043"  >
<polygon locus_tag="HEP84_RS37025" id="dummy-1_h1_8_43" points="714,85 719,80 722,80 722,90 719,90 714,85 " style="stroke-width:1; fill:white; stroke:black; " class="clusterblast-orf" description="&lt;b&gt;HEP84_RS37025&lt;/b&gt;&lt;br&gt;diaminopimelate epimerase&lt;br&gt;Location: 8180199 - 8179330"  />
</g>
<g id="a1_0044"  >
<polygon locus_tag="HEP84_RS37020" id="dummy-1_h1_8_44" points="722,85 727,80 727,80 727,90 727,90 722,85 " style="stroke-width:1; fill:white; stroke:black; " class="clusterblast-orf" description="&lt;b&gt;HEP84_RS37020&lt;/b&gt;&lt;br&gt;hypothetical protein&lt;br&gt;Location: 8179264 - 8178674"  />
</g>
<g id="a1_0045"  >
<polygon locus_tag="HEP84_RS37015" id="dummy-1_h1_8_45" points="728,85 733,80 735,80 735,90 733,90 728,85 " style="stroke-width:1; fill:white; stroke:black; " class="clusterblast-orf" description="&lt;b&gt;HEP84_RS37015&lt;/b&gt;&lt;br&gt;tRNA (adenosine(37)-N6)-dimethylallyltransferase MiaA&lt;br&gt;Location: 8178571 - 8177633"  />
</g>
<g id="a1_0046"  >
<polygon locus_tag="HEP84_RS37010" id="dummy-1_h1_8_46" points="737,90 739,85 737,80 737,90 " style="stroke-width:1; fill:white; stroke:black; " class="clusterblast-orf" description="&lt;b&gt;HEP84_RS37010&lt;/b&gt;&lt;br&gt;hypothetical protein&lt;br&gt;Location: 8177449 - 8177156"  />
</g>
<g id="a1_0047"  >
<polygon locus_tag="HEP84_RS37005" id="dummy-1_h1_8_47" points="740,90 742,85 740,80 740,90 " style="stroke-width:1; fill:white; stroke:black; " class="clusterblast-orf" description="&lt;b&gt;HEP84_RS37005&lt;/b&gt;&lt;br&gt;antitoxin&lt;br&gt;Location: 8177131 - 8176868"  />
</g>
<g id="a1_0048"  >
<polygon locus_tag="HEP84_RS37000" id="dummy-1_h1_8_48" points="743,85 748,80 749,80 749,90 748,90 743,85 " style="stroke-width:1; fill:white; stroke:black; " class="clusterblast-orf" description="&lt;b&gt;HEP84_RS37000&lt;/b&gt;&lt;br&gt;hypothetical protein&lt;br&gt;Location: 8176717 - 8175998"  />
</g>
<g id="a1_0049"  >
<polygon locus_tag="HEP84_RS36995" id="dummy-1_h1_8_49" points="749,85 754,80 762,80 762,90 754,90 749,85 " style="stroke-width:1; fill:white; stroke:black; " class="clusterblast-orf" description="&lt;b&gt;HEP84_RS36995&lt;/b&gt;&lt;br&gt;tRNA (N6-isopentenyl adenosine(37)-C2)-methylthiotransferase MiaB&lt;br&gt;Location: 8175949 - 8174420"  />
</g>
<g id="a1_0050"  >
<polygon locus_tag="HEP84_RS36990" id="dummy-1_h1_8_50" points="763,90 771,90 776,85 771,80 763,80 763,90 " style="stroke-width:1; fill:white; stroke:black; " class="clusterblast-orf" description="&lt;b&gt;HEP84_RS36990&lt;/b&gt;&lt;br&gt;protein kinase&lt;br&gt;Location: 8174304 - 8172640"  />
</g>
<g id="a1_0051"  >
<polygon locus_tag="HEP84_RS36985" id="dummy-1_h1_8_51" points="777,90 779,85 777,80 777,90 " style="stroke-width:1; fill:white; stroke:black; " class="clusterblast-orf" description="&lt;b&gt;HEP84_RS36985&lt;/b&gt;&lt;br&gt;hypothetical protein&lt;br&gt;Location: 8172622 - 8172269"  />
</g>
</svg>
