<svg xmlns:xlink="http://www.w3.org/1999/xlink" preserveAspectRatio="none" width="800" xmlns="http://www.w3.org/2000/svg" version="1.1" x="0" viewBox="0 0 800 230" height="230" y="0"  >
<g label="Query sequence" class="clusterblast-cluster"  >
<text x="5" y="20" class="clusterblast-acc"  >
Query sequence</text>
<line x2="778.0" style="stroke-width:1; stroke:grey; " y1="35" x1="10" y2="35"  />
<polygon locus_tag="cds1_11311" id="dummy-1_q0_0_all" points="264,40 367,40 372,35 367,30 264,30 264,40 " style="stroke-width:1; fill:#d81515; stroke:black; " class="clusterblast-orf" description="&lt;b&gt;cds1_11311&lt;/b&gt;&lt;br&gt;Polyketide synthase modules and related proteins&lt;br&gt;Location: 1 - 11311"  />
<polygon locus_tag="cds11307_22911" id="dummy-1_q1_0_all" points="372,40 479,40 484,35 479,30 372,30 372,40 " style="stroke-width:1; fill:#d81515; stroke:black; " class="clusterblast-orf" description="&lt;b&gt;cds11307_22911&lt;/b&gt;&lt;br&gt;Polyketide synthase modules and related proteins&lt;br&gt;Location: 11307 - 22911"  />
<polygon locus_tag="cds22907_24167" id="dummy-1_q2_0_all" points="484,40 491,40 496,35 491,30 484,30 484,40 " style="stroke-width:1; fill:#77d815; stroke:black; " class="clusterblast-orf" description="&lt;b&gt;cds22907_24167&lt;/b&gt;&lt;br&gt;transcriptional regulator, Crp/Fnr family&lt;br&gt;Location: 22907 - 24167"  />
<polygon locus_tag="cds24228_25269" id="dummy-1_q3_0_all" points="496,40 501,40 506,35 501,30 496,30 496,40 " style="stroke-width:1; fill:#15d8d8; stroke:black; " class="clusterblast-orf" description="&lt;b&gt;cds24228_25269&lt;/b&gt;&lt;br&gt;Polyketide synthase modules and related proteins&lt;br&gt;Location: 24228 - 25269"  />
<polygon locus_tag="cds25282_26230" id="dummy-1_q4_0_all" points="506,40 510,40 515,35 510,30 506,30 506,40 " style="stroke-width:1; fill:#7715d8; stroke:black; " class="clusterblast-orf" description="&lt;b&gt;cds25282_26230&lt;/b&gt;&lt;br&gt;SyrP-like protein&lt;br&gt;Location: 25282 - 26230"  />
</g>
<g label="NZ_JADG01000003" class="clusterblast-cluster" description="NZ_JADG01000003 (144085-225361): Actinomadura oligospora ATCC 43269 P696DRAFT... (8% of genes show similarity), NRPS"  >
<text x="5" y="70" class="clusterblast-acc"  >
<a xlink:href="https://antismash-db.secondarymetabolites.org/area.html?record=NZ_JADG01000003&amp;start=144085&amp;end=225361" target="_blank">NZ_JADG01000003 (144085-225361)</a>: Actinomadura oligospora ATCC 43269 P696DRAFT... (8% of genes show similarity), NRPS</text>
<line x2="778.0" style="stroke-width:1; stroke:grey; " y1="85" x1="10" y2="85"  />
</g>
<g id="a1_000"  >
<polygon locus_tag="P696_RS0100715" id="dummy-1_h1_9_0" points="0,90 4,90 9,85 4,80 0,80 0,90 " style="stroke-width:1; fill:white; stroke:black; " class="clusterblast-orf" description="&lt;b&gt;P696_RS0100715&lt;/b&gt;&lt;br&gt;type I glyceraldehyde-3-phosphate dehydrogenase&lt;br&gt;Location: 144086 - 145090"  />
</g>
<g id="a1_001"  >
<polygon locus_tag="P696_RS0100720" id="dummy-1_h1_9_1" points="10,90 17,90 22,85 17,80 10,80 10,90 " style="stroke-width:1; fill:white; stroke:black; " class="clusterblast-orf" description="&lt;b&gt;P696_RS0100720&lt;/b&gt;&lt;br&gt;phosphoglycerate kinase&lt;br&gt;Location: 145220 - 146407"  />
</g>
<g id="a1_002"  >
<polygon locus_tag="P696_RS0100725" id="dummy-1_h1_9_2" points="22,90 25,90 30,85 25,80 22,80 22,90 " style="stroke-width:1; fill:white; stroke:black; " class="clusterblast-orf" description="&lt;b&gt;P696_RS0100725&lt;/b&gt;&lt;br&gt;triose-phosphate isomerase&lt;br&gt;Location: 146413 - 147213"  />
</g>
<g id="a1_003"  >
<polygon locus_tag="P696_RS0100730" id="dummy-1_h1_9_3" points="31,90 33,85 31,80 31,90 " style="stroke-width:1; fill:white; stroke:black; " class="clusterblast-orf" description="&lt;b&gt;P696_RS0100730&lt;/b&gt;&lt;br&gt;preprotein translocase subunit SecG&lt;br&gt;Location: 147395 - 147628"  />
</g>
<g id="a1_004"  >
<polygon locus_tag="P696_RS0100735" id="dummy-1_h1_9_4" points="35,90 38,85 35,80 35,90 " style="stroke-width:1; fill:white; stroke:black; " class="clusterblast-orf" description="&lt;b&gt;P696_RS0100735&lt;/b&gt;&lt;br&gt;RNA polymerase-binding protein RbpA&lt;br&gt;Location: 147755 - 148126"  />
</g>
<g id="a1_005"  >
<polygon locus_tag="P696_RS42295" id="dummy-1_h1_9_5" points="39,85 44,80 52,80 52,90 44,90 39,85 " style="stroke-width:1; fill:white; stroke:black; " class="clusterblast-orf" description="&lt;b&gt;P696_RS42295&lt;/b&gt;&lt;br&gt;acyltransferase&lt;br&gt;Location: 148189 - 149559"  />
</g>
<g id="a1_006"  >
<polygon locus_tag="P696_RS0100745" id="dummy-1_h1_9_6" points="55,90 62,90 67,85 62,80 55,80 55,90 " style="stroke-width:1; fill:white; stroke:black; " class="clusterblast-orf" description="&lt;b&gt;P696_RS0100745&lt;/b&gt;&lt;br&gt;serine hydroxymethyltransferase&lt;br&gt;Location: 149876 - 151147"  />
</g>
<g id="a1_007"  >
<polygon locus_tag="P696_RS0100750" id="dummy-1_h1_9_7" points="68,90 69,90 74,85 69,80 68,80 68,90 " style="stroke-width:1; fill:white; stroke:black; " class="clusterblast-orf" description="&lt;b&gt;P696_RS0100750&lt;/b&gt;&lt;br&gt;sigma-70 family RNA polymerase sigma factor&lt;br&gt;Location: 151272 - 151808"  />
</g>
<g id="a1_008"  >
<polygon locus_tag="P696_RS0100755" id="dummy-1_h1_9_8" points="74,90 77,90 82,85 77,80 74,80 74,90 " style="stroke-width:1; fill:white; stroke:black; " class="clusterblast-orf" description="&lt;b&gt;P696_RS0100755&lt;/b&gt;&lt;br&gt;hypothetical protein&lt;br&gt;Location: 151805 - 152701"  />
</g>
<g id="a1_009"  >
<polygon locus_tag="P696_RS0100760" id="dummy-1_h1_9_9" points="82,85 87,80 90,80 90,90 87,90 82,85 " style="stroke-width:1; fill:white; stroke:black; " class="clusterblast-orf" description="&lt;b&gt;P696_RS0100760&lt;/b&gt;&lt;br&gt;class I SAM-dependent methyltransferase&lt;br&gt;Location: 152686 - 153522"  />
</g>
<g id="a1_0010"  >
<polygon locus_tag="P696_RS0100765" id="dummy-1_h1_9_10" points="91,90 92,90 97,85 92,80 91,80 91,90 " style="stroke-width:1; fill:white; stroke:black; " class="clusterblast-orf" description="&lt;b&gt;P696_RS0100765&lt;/b&gt;&lt;br&gt;TetR/AcrR family transcriptional regulator&lt;br&gt;Location: 153597 - 154244"  />
</g>
<g id="a1_0011"  >
<polygon locus_tag="P696_RS0100770" id="dummy-1_h1_9_11" points="97,85 102,80 105,80 105,90 102,90 97,85 " style="stroke-width:1; fill:white; stroke:black; " class="clusterblast-orf" description="&lt;b&gt;P696_RS0100770&lt;/b&gt;&lt;br&gt;class I SAM-dependent methyltransferase&lt;br&gt;Location: 154252 - 155034"  />
</g>
<g id="a1_0012"  >
<polygon locus_tag="P696_RS0100775" id="dummy-1_h1_9_12" points="105,85 110,80 115,80 115,90 110,90 105,85 " style="stroke-width:1; fill:white; stroke:black; " class="clusterblast-orf" description="&lt;b&gt;P696_RS0100775&lt;/b&gt;&lt;br&gt;GNAT family N-acetyltransferase&lt;br&gt;Location: 155074 - 156153"  />
</g>
<g id="a1_0013"  >
<polygon locus_tag="P696_RS42300" id="dummy-1_h1_9_13" points="117,90 118,90 123,85 118,80 117,80 117,90 " style="stroke-width:1; fill:white; stroke:black; " class="clusterblast-orf" description="&lt;b&gt;P696_RS42300&lt;/b&gt;&lt;br&gt;GNAT family N-acetyltransferase&lt;br&gt;Location: 156350 - 156937"  />
</g>
<g id="a1_0014"  >
<polygon locus_tag="P696_RS0100785" id="dummy-1_h1_9_14" points="123,90 132,90 137,85 132,80 123,80 123,90 " style="stroke-width:1; fill:white; stroke:black; " class="clusterblast-orf" description="&lt;b&gt;P696_RS0100785&lt;/b&gt;&lt;br&gt;FAD-dependent oxidoreductase&lt;br&gt;Location: 156964 - 158412"  />
</g>
<g id="a1_0015"  >
<polygon locus_tag="P696_RS0100790" id="dummy-1_h1_9_15" points="137,90 138,90 143,85 138,80 137,80 137,90 " style="stroke-width:1; fill:white; stroke:black; " class="clusterblast-orf" description="&lt;b&gt;P696_RS0100790&lt;/b&gt;&lt;br&gt;class I SAM-dependent methyltransferase&lt;br&gt;Location: 158431 - 159036"  />
</g>
<g id="a1_0016"  >
<polygon locus_tag="P696_RS42305" id="dummy-1_h1_9_16" points="144,85 149,80 153,80 153,90 149,90 144,85 " style="stroke-width:1; fill:white; stroke:black; " class="clusterblast-orf" description="&lt;b&gt;P696_RS42305&lt;/b&gt;&lt;br&gt;hypothetical protein&lt;br&gt;Location: 159164 - 160051"  />
</g>
<g id="a1_0017"  >
<polygon locus_tag="P696_RS42310" id="dummy-1_h1_9_17" points="153,85 158,80 171,80 171,90 158,90 153,85 " style="stroke-width:1; fill:white; stroke:black; " class="clusterblast-orf" description="&lt;b&gt;P696_RS42310&lt;/b&gt;&lt;br&gt;AfsR/SARP family transcriptional regulator&lt;br&gt;Location: 160115 - 161959"  />
</g>
<g id="a1_0018"  >
<polygon locus_tag="P696_RS0100805" id="dummy-1_h1_9_18" points="174,90 178,90 183,85 178,80 174,80 174,90 " style="stroke-width:1; fill:white; stroke:black; " class="clusterblast-orf" description="&lt;b&gt;P696_RS0100805&lt;/b&gt;&lt;br&gt;helix-turn-helix transcriptional regulator&lt;br&gt;Location: 162251 - 163243"  />
</g>
<g id="a1_0019"  >
<polygon locus_tag="P696_RS0100810" id="dummy-1_h1_9_19" points="186,90 198,90 203,85 198,80 186,80 186,90 " style="stroke-width:1; fill:white; stroke:black; " class="clusterblast-orf" description="&lt;b&gt;P696_RS0100810&lt;/b&gt;&lt;br&gt;AMP-binding protein&lt;br&gt;Location: 163512 - 165326"  />
</g>
<g id="a1_0020"  >
<polygon locus_tag="P696_RS42315" id="dummy-1_h1_9_20" points="204,90 209,90 214,85 209,80 204,80 204,90 " style="stroke-width:1; fill:white; stroke:black; " class="clusterblast-orf" description="&lt;b&gt;P696_RS42315&lt;/b&gt;&lt;br&gt;2,3-diaminopropionate biosynthesis protein SbnA&lt;br&gt;Location: 165440 - 166474"  />
</g>
<g id="a1_0021"  >
<polygon locus_tag="P696_RS0100820" id="dummy-1_h1_9_21" points="215,90 217,85 215,80 215,90 " style="stroke-width:1; fill:white; stroke:black; " class="clusterblast-orf" description="&lt;b&gt;P696_RS0100820&lt;/b&gt;&lt;br&gt;MbtH family NRPS accessory protein&lt;br&gt;Location: 166535 - 166753"  />
</g>
<g id="a1_0022"  >
<polygon locus_tag="P696_RS0100825" id="dummy-1_h1_9_22" points="218,90 261,90 266,85 261,80 218,80 218,90 " style="stroke-width:1; fill:white; stroke:black; " class="clusterblast-orf" description="&lt;b&gt;P696_RS0100825&lt;/b&gt;&lt;br&gt;non-ribosomal peptide synthetase&lt;br&gt;Location: 166874 - 171841"  />
</g>
<g id="a1_0023"  >
<polygon locus_tag="P696_RS0100830" id="dummy-1_h1_9_23" points="266,90 456,90 461,85 456,80 266,80 266,90 " style="stroke-width:1; fill:#d81515; stroke:black; " class="clusterblast-orf" description="&lt;b&gt;P696_RS0100830&lt;/b&gt;&lt;br&gt;non-ribosomal peptide synthetase&lt;br&gt;Location: 171838 - 192225&lt;br&gt;&lt;br&gt;&lt;b&gt;BlastP hit with cds1_11311&lt;/b&gt;&lt;br&gt;Percentage identity: 34&lt;br&gt;Percentage coverage: 105&lt;br&gt;BLAST bit score: 1517&lt;br&gt;E-value: 0.0&lt;br&gt;&lt;br&gt;&lt;b&gt;BlastP hit with cds11307_22911&lt;/b&gt;&lt;br&gt;Percentage identity: 35&lt;br&gt;Percentage coverage: 83&lt;br&gt;BLAST bit score: 1387&lt;br&gt;E-value: 0.0"  />
</g>
<g id="a1_0024"  >
<polygon locus_tag="P696_RS42320" id="dummy-1_h1_9_24" points="462,90 469,90 474,85 469,80 462,80 462,90 " style="stroke-width:1; fill:#77d815; stroke:black; " class="clusterblast-orf" description="&lt;b&gt;P696_RS42320&lt;/b&gt;&lt;br&gt;MFS transporter&lt;br&gt;Location: 192306 - 193562&lt;br&gt;&lt;br&gt;&lt;b&gt;BlastP hit with cds22907_24167&lt;/b&gt;&lt;br&gt;Percentage identity: 38&lt;br&gt;Percentage coverage: 92&lt;br&gt;BLAST bit score: 217&lt;br&gt;E-value: 2e-54"  />
</g>
<g id="a1_0025"  >
<polygon locus_tag="P696_RS0100840" id="dummy-1_h1_9_25" points="475,90 479,90 484,85 479,80 475,80 475,90 " style="stroke-width:1; fill:#7715d8; stroke:black; " class="clusterblast-orf" description="&lt;b&gt;P696_RS0100840&lt;/b&gt;&lt;br&gt;TauD/TfdA family dioxygenase&lt;br&gt;Location: 193614 - 194555&lt;br&gt;&lt;br&gt;&lt;b&gt;BlastP hit with cds25282_26230&lt;/b&gt;&lt;br&gt;Percentage identity: 67&lt;br&gt;Percentage coverage: 98&lt;br&gt;BLAST bit score: 427&lt;br&gt;E-value: 1.2e-117"  />
</g>
<g id="a1_0026"  >
<polygon locus_tag="P696_RS0100845" id="dummy-1_h1_9_26" points="485,90 489,90 494,85 489,80 485,80 485,90 " style="stroke-width:1; fill:#7715d8; stroke:black; " class="clusterblast-orf" description="&lt;b&gt;P696_RS0100845&lt;/b&gt;&lt;br&gt;TauD/TfdA family dioxygenase&lt;br&gt;Location: 194647 - 195630&lt;br&gt;&lt;br&gt;&lt;b&gt;BlastP hit with cds25282_26230&lt;/b&gt;&lt;br&gt;Percentage identity: 41&lt;br&gt;Percentage coverage: 95&lt;br&gt;BLAST bit score: 217&lt;br&gt;E-value: 1.5e-54"  />
</g>
<g id="a1_0027"  >
<polygon locus_tag="P696_RS0100850" id="dummy-1_h1_9_27" points="494,90 497,90 502,85 497,80 494,80 494,90 " style="stroke-width:1; fill:white; stroke:black; " class="clusterblast-orf" description="&lt;b&gt;P696_RS0100850&lt;/b&gt;&lt;br&gt;thioesterase&lt;br&gt;Location: 195634 - 196407"  />
</g>
<g id="a1_0028"  >
<polygon locus_tag="P696_RS0100855" id="dummy-1_h1_9_28" points="502,90 554,90 559,85 554,80 502,80 502,90 " style="stroke-width:1; fill:white; stroke:black; " class="clusterblast-orf" description="&lt;b&gt;P696_RS0100855&lt;/b&gt;&lt;br&gt;non-ribosomal peptide synthetase&lt;br&gt;Location: 196400 - 202420"  />
</g>
<g id="a1_0029"  >
<polygon locus_tag="P696_RS42325" id="dummy-1_h1_9_29" points="560,90 568,90 573,85 568,80 560,80 560,90 " style="stroke-width:1; fill:white; stroke:black; " class="clusterblast-orf" description="&lt;b&gt;P696_RS42325&lt;/b&gt;&lt;br&gt;cation:proton antiporter&lt;br&gt;Location: 202485 - 203813"  />
</g>
<g id="a1_0030"  >
<polygon locus_tag="P696_RS42330" id="dummy-1_h1_9_30" points="573,90 574,90 579,85 574,80 573,80 573,90 " style="stroke-width:1; fill:white; stroke:black; " class="clusterblast-orf" description="&lt;b&gt;P696_RS42330&lt;/b&gt;&lt;br&gt;NAD(P)H-dependent oxidoreductase&lt;br&gt;Location: 203818 - 204507"  />
</g>
<g id="a1_0031"  >
<polygon locus_tag="P696_RS42335" id="dummy-1_h1_9_31" points="579,90 591,90 596,85 591,80 579,80 579,90 " style="stroke-width:1; fill:white; stroke:black; " class="clusterblast-orf" description="&lt;b&gt;P696_RS42335&lt;/b&gt;&lt;br&gt;fatty acyl-AMP ligase&lt;br&gt;Location: 204516 - 206228"  />
</g>
<g id="a1_0032"  >
<polygon locus_tag="P696_RS42340" id="dummy-1_h1_9_32" points="596,90 608,90 613,85 608,80 596,80 596,90 " style="stroke-width:1; fill:white; stroke:black; " class="clusterblast-orf" description="&lt;b&gt;P696_RS42340&lt;/b&gt;&lt;br&gt;acyl-CoA dehydrogenase family protein&lt;br&gt;Location: 206225 - 207973"  />
</g>
<g id="a1_0033"  >
<polygon locus_tag="P696_RS42345" id="dummy-1_h1_9_33" points="613,90 624,90 629,85 624,80 613,80 613,90 " style="stroke-width:1; fill:white; stroke:black; " class="clusterblast-orf" description="&lt;b&gt;P696_RS42345&lt;/b&gt;&lt;br&gt;acyl-CoA dehydrogenase&lt;br&gt;Location: 207970 - 209691"  />
</g>
<g id="a1_0034"  >
<polygon locus_tag="P696_RS42350" id="dummy-1_h1_9_34" points="630,90 633,85 630,80 630,90 " style="stroke-width:1; fill:white; stroke:black; " class="clusterblast-orf" description="&lt;b&gt;P696_RS42350&lt;/b&gt;&lt;br&gt;acyl carrier protein&lt;br&gt;Location: 209741 - 210082"  />
</g>
<g id="a1_0035"  >
<polygon locus_tag="P696_RS0100890" id="dummy-1_h1_9_35" points="633,90 643,90 648,85 643,80 633,80 633,90 " style="stroke-width:1; fill:white; stroke:black; " class="clusterblast-orf" description="&lt;b&gt;P696_RS0100890&lt;/b&gt;&lt;br&gt;tryptophan 7-halogenase&lt;br&gt;Location: 210093 - 211685"  />
</g>
<g id="a1_0036"  >
<polygon locus_tag="P696_RS42355" id="dummy-1_h1_9_36" points="650,90 654,85 650,80 650,90 " style="stroke-width:1; fill:white; stroke:black; " class="clusterblast-orf" description="&lt;b&gt;P696_RS42355&lt;/b&gt;&lt;br&gt;winged helix-turn-helix transcriptional regulator&lt;br&gt;Location: 211846 - 212232"  />
</g>
<g id="a1_0037"  >
<polygon locus_tag="P696_RS0100900" id="dummy-1_h1_9_37" points="654,90 656,85 654,80 654,90 " style="stroke-width:1; fill:white; stroke:black; " class="clusterblast-orf" description="&lt;b&gt;P696_RS0100900&lt;/b&gt;&lt;br&gt;hypothetical protein&lt;br&gt;Location: 212232 - 212522"  />
</g>
<g id="a1_0038"  >
<polygon locus_tag="P696_RS0100905" id="dummy-1_h1_9_38" points="657,90 657,90 662,85 657,80 657,80 657,90 " style="stroke-width:1; fill:white; stroke:black; " class="clusterblast-orf" description="&lt;b&gt;P696_RS0100905&lt;/b&gt;&lt;br&gt;hypothetical protein&lt;br&gt;Location: 212648 - 213070"  />
</g>
<g id="a1_0039"  >
<polygon locus_tag="P696_RS42360" id="dummy-1_h1_9_39" points="662,90 681,90 686,85 681,80 662,80 662,90 " style="stroke-width:1; fill:white; stroke:black; " class="clusterblast-orf" description="&lt;b&gt;P696_RS42360&lt;/b&gt;&lt;br&gt;MMPL family transporter&lt;br&gt;Location: 213103 - 215595"  />
</g>
<g id="a1_0040"  >
<polygon locus_tag="P696_RS42365" id="dummy-1_h1_9_40" points="690,85 695,80 695,80 695,90 695,90 690,85 " style="stroke-width:1; fill:white; stroke:black; " class="clusterblast-orf" description="&lt;b&gt;P696_RS42365&lt;/b&gt;&lt;br&gt;hypothetical protein&lt;br&gt;Location: 216048 - 216605"  />
</g>
<g id="a1_0041"  >
<polygon locus_tag="P696_RS0100925" id="dummy-1_h1_9_41" points="704,90 708,85 704,80 704,90 " style="stroke-width:1; fill:white; stroke:black; " class="clusterblast-orf" description="&lt;b&gt;P696_RS0100925&lt;/b&gt;&lt;br&gt;MmcQ/YjbR family DNA-binding protein&lt;br&gt;Location: 217477 - 217872"  />
</g>
<g id="a1_0042"  >
<polygon locus_tag="P696_RS53830" id="dummy-1_h1_9_42" points="709,85 711,80 711,90 709,85 " style="stroke-width:1; fill:white; stroke:black; " class="clusterblast-orf" description="&lt;b&gt;P696_RS53830&lt;/b&gt;&lt;br&gt;helix-turn-helix domain-containing protein&lt;br&gt;Location: 218012 - 218260"  />
</g>
<g id="a1_0043"  >
<polygon locus_tag="P696_RS0100930" id="dummy-1_h1_9_43" points="713,85 718,80 724,80 724,90 718,90 713,85 " style="stroke-width:1; fill:white; stroke:black; " class="clusterblast-orf" description="&lt;b&gt;P696_RS0100930&lt;/b&gt;&lt;br&gt;site-2 protease family protein&lt;br&gt;Location: 218395 - 219540"  />
</g>
<g id="a1_0044"  >
<polygon locus_tag="P696_RS55510" id="dummy-1_h1_9_44" points="727,85 729,80 729,90 727,85 " style="stroke-width:1; fill:white; stroke:black; " class="clusterblast-orf" description="&lt;b&gt;P696_RS55510&lt;/b&gt;&lt;br&gt;hypothetical protein&lt;br&gt;Location: 219918 - 220055"  />
</g>
<g id="a1_0045"  >
<polygon locus_tag="P696_RS56760" id="dummy-1_h1_9_45" points="732,85 735,80 735,90 732,85 " style="stroke-width:1; fill:white; stroke:black; " class="clusterblast-orf" description="&lt;b&gt;P696_RS56760&lt;/b&gt;&lt;br&gt;transposase family protein&lt;br&gt;Location: 220417 - 220713"  />
</g>
<g id="a1_0046"  >
<polygon locus_tag="P696_RS0100945" id="dummy-1_h1_9_46" points="735,85 740,80 759,80 759,90 740,90 735,85 " style="stroke-width:1; fill:white; stroke:black; " class="clusterblast-orf" description="&lt;b&gt;P696_RS0100945&lt;/b&gt;&lt;br&gt;FtsX-like permease family protein&lt;br&gt;Location: 220752 - 223223"  />
</g>
<g id="a1_0047"  >
<polygon locus_tag="P696_RS0100950" id="dummy-1_h1_9_47" points="760,85 765,80 767,80 767,90 765,90 760,85 " style="stroke-width:1; fill:white; stroke:black; " class="clusterblast-orf" description="&lt;b&gt;P696_RS0100950&lt;/b&gt;&lt;br&gt;ABC transporter ATP-binding protein&lt;br&gt;Location: 223282 - 224028"  />
</g>
<g id="a1_0048"  >
<polygon locus_tag="P696_RS56765" id="dummy-1_h1_9_48" points="768,85 771,80 771,90 768,85 " style="stroke-width:1; fill:white; stroke:black; " class="clusterblast-orf" description="&lt;b&gt;P696_RS56765&lt;/b&gt;&lt;br&gt;hypothetical protein&lt;br&gt;Location: 224141 - 224452"  />
</g>
<g id="a1_0049"  >
<polygon locus_tag="P696_RS51900" id="dummy-1_h1_9_49" points="770,85 775,80 780,80 780,90 775,90 770,85 " style="stroke-width:1; fill:white; stroke:black; " class="clusterblast-orf" description="&lt;b&gt;P696_RS51900&lt;/b&gt;&lt;br&gt;SDR family oxidoreductase&lt;br&gt;Location: 224407 - 225361"  />
</g>
</svg>
