<svg xmlns:xlink="http://www.w3.org/1999/xlink" preserveAspectRatio="none" width="800" xmlns="http://www.w3.org/2000/svg" version="1.1" x="0" viewBox="0 0 800 230" height="230" y="0"  >
<g label="Query sequence" class="clusterblast-cluster"  >
<text x="5" y="20" class="clusterblast-acc"  >
Query sequence</text>
<line x2="778.0" style="stroke-width:1; stroke:grey; " y1="35" x1="10" y2="35"  />
<polygon locus_tag="cds2_1355" id="dummy-1_q0_0_all" points="363,35 368,30 378,30 378,40 368,40 363,35 " style="stroke-width:1; fill:#d81515; stroke:black; " class="clusterblast-orf" description="&lt;b&gt;cds2_1355&lt;/b&gt;&lt;br&gt;Long-chain-fatty-acid--CoA ligase (EC 6.2.1.3)&lt;br&gt;Location: 2 - 1355"  />
<polygon locus_tag="cds1351_4735" id="dummy-1_q1_0_all" points="378,35 383,30 416,30 416,40 383,40 378,35 " style="stroke-width:1; fill:#d81515; stroke:black; " class="clusterblast-orf" description="&lt;b&gt;cds1351_4735&lt;/b&gt;&lt;br&gt;Polyketide synthase modules and related proteins&lt;br&gt;Location: 1351 - 4735"  />
</g>
<g label="NZ_KB912942" class="clusterblast-cluster" description="NZ_KB912942 (80499-150840): Amycolatopsis benzoatilytica AK 16/65 AmybeDRAFT ... (5% of genes show similarity), NRPS"  >
<text x="5" y="70" class="clusterblast-acc"  >
<a xlink:href="https://antismash-db.secondarymetabolites.org/area.html?record=NZ_KB912942&amp;start=80499&amp;end=150840" target="_blank">NZ_KB912942 (80499-150840)</a>: Amycolatopsis benzoatilytica AK 16/65 AmybeDRAFT ... (5% of genes show similarity), NRPS</text>
<line x2="778.0" style="stroke-width:1; stroke:grey; " y1="85" x1="10" y2="85"  />
</g>
<g id="a1_000"  >
<polygon locus_tag="AMYBE_RS0100700" id="dummy-1_h1_7_0" points="0,90 1,90 6,85 1,80 0,80 0,90 " style="stroke-width:1; fill:white; stroke:black; " class="clusterblast-orf" description="&lt;b&gt;AMYBE_RS0100700&lt;/b&gt;&lt;br&gt;helix-turn-helix transcriptional regulator&lt;br&gt;Location: 150840 - 150232"  />
</g>
<g id="a1_001"  >
<polygon locus_tag="AMYBE_RS0100695" id="dummy-1_h1_7_1" points="13,85 18,80 30,80 30,90 18,90 13,85 " style="stroke-width:1; fill:white; stroke:black; " class="clusterblast-orf" description="&lt;b&gt;AMYBE_RS0100695&lt;/b&gt;&lt;br&gt;NAD(P)/FAD-dependent oxidoreductase&lt;br&gt;Location: 149591 - 148131"  />
</g>
<g id="a1_002"  >
<polygon locus_tag="AMYBE_RS0100690" id="dummy-1_h1_7_2" points="30,90 32,90 37,85 32,80 30,80 30,90 " style="stroke-width:1; fill:white; stroke:black; " class="clusterblast-orf" description="&lt;b&gt;AMYBE_RS0100690&lt;/b&gt;&lt;br&gt;TetR/AcrR family transcriptional regulator&lt;br&gt;Location: 148059 - 147460"  />
</g>
<g id="a1_003"  >
<polygon locus_tag="AMYBE_RS0100685" id="dummy-1_h1_7_3" points="39,90 41,90 46,85 41,80 39,80 39,90 " style="stroke-width:1; fill:white; stroke:black; " class="clusterblast-orf" description="&lt;b&gt;AMYBE_RS0100685&lt;/b&gt;&lt;br&gt;hypothetical protein&lt;br&gt;Location: 147290 - 146676"  />
</g>
<g id="a1_004"  >
<polygon locus_tag="AMYBE_RS0100680" id="dummy-1_h1_7_4" points="52,85 54,80 54,90 52,85 " style="stroke-width:1; fill:white; stroke:black; " class="clusterblast-orf" description="&lt;b&gt;AMYBE_RS0100680&lt;/b&gt;&lt;br&gt;DUF3618 domain-containing protein&lt;br&gt;Location: 146112 - 145891"  />
</g>
<g id="a1_005"  >
<polygon locus_tag="AMYBE_RS0100670" id="dummy-1_h1_7_5" points="58,90 66,90 71,85 66,80 58,80 58,90 " style="stroke-width:1; fill:white; stroke:black; " class="clusterblast-orf" description="&lt;b&gt;AMYBE_RS0100670&lt;/b&gt;&lt;br&gt;helix-turn-helix domain-containing protein&lt;br&gt;Location: 145587 - 144382"  />
</g>
<g id="a1_006"  >
<polygon locus_tag="AMYBE_RS0100665" id="dummy-1_h1_7_6" points="72,90 75,85 72,80 72,90 " style="stroke-width:1; fill:white; stroke:black; " class="clusterblast-orf" description="&lt;b&gt;AMYBE_RS0100665&lt;/b&gt;&lt;br&gt;hypothetical protein&lt;br&gt;Location: 144319 - 144032"  />
</g>
<g id="a1_007"  >
<polygon locus_tag="AMYBE_RS0100655" id="dummy-1_h1_7_7" points="77,90 77,90 82,85 77,80 77,80 77,90 " style="stroke-width:1; fill:white; stroke:black; " class="clusterblast-orf" description="&lt;b&gt;AMYBE_RS0100655&lt;/b&gt;&lt;br&gt;hypothetical protein&lt;br&gt;Location: 143839 - 143369"  />
</g>
<g id="a1_008"  >
<polygon locus_tag="AMYBE_RS40770" id="dummy-1_h1_7_8" points="85,90 87,90 92,85 87,80 85,80 85,90 " style="stroke-width:1; fill:white; stroke:black; " class="clusterblast-orf" description="&lt;b&gt;AMYBE_RS40770&lt;/b&gt;&lt;br&gt;phosphotransferase&lt;br&gt;Location: 143167 - 142490"  />
</g>
<g id="a1_009"  >
<polygon locus_tag="AMYBE_RS0100645" id="dummy-1_h1_7_9" points="96,90 99,85 96,80 96,90 " style="stroke-width:1; fill:white; stroke:black; " class="clusterblast-orf" description="&lt;b&gt;AMYBE_RS0100645&lt;/b&gt;&lt;br&gt;hypothetical protein&lt;br&gt;Location: 142101 - 141871"  />
</g>
<g id="a1_0010"  >
<polygon locus_tag="AMYBE_RS0100640" id="dummy-1_h1_7_10" points="100,85 103,80 103,90 100,85 " style="stroke-width:1; fill:white; stroke:black; " class="clusterblast-orf" description="&lt;b&gt;AMYBE_RS0100640&lt;/b&gt;&lt;br&gt;hypothetical protein&lt;br&gt;Location: 141803 - 141495"  />
</g>
<g id="a1_0011"  >
<polygon locus_tag="AMYBE_RS0100635" id="dummy-1_h1_7_11" points="104,85 109,80 113,80 113,90 109,90 104,85 " style="stroke-width:1; fill:white; stroke:black; " class="clusterblast-orf" description="&lt;b&gt;AMYBE_RS0100635&lt;/b&gt;&lt;br&gt;SDR family oxidoreductase&lt;br&gt;Location: 141373 - 140615"  />
</g>
<g id="a1_0012"  >
<polygon locus_tag="AMYBE_RS0100630" id="dummy-1_h1_7_12" points="114,85 119,80 120,80 120,90 119,90 114,85 " style="stroke-width:1; fill:white; stroke:black; " class="clusterblast-orf" description="&lt;b&gt;AMYBE_RS0100630&lt;/b&gt;&lt;br&gt;dihydrofolate reductase family protein&lt;br&gt;Location: 140543 - 139953"  />
</g>
<g id="a1_0013"  >
<polygon locus_tag="AMYBE_RS0100625" id="dummy-1_h1_7_13" points="120,85 125,80 129,80 129,90 125,90 120,85 " style="stroke-width:1; fill:white; stroke:black; " class="clusterblast-orf" description="&lt;b&gt;AMYBE_RS0100625&lt;/b&gt;&lt;br&gt;metalloregulator ArsR/SmtB family transcription factor&lt;br&gt;Location: 139956 - 139150"  />
</g>
<g id="a1_0014"  >
<polygon locus_tag="AMYBE_RS0100620" id="dummy-1_h1_7_14" points="129,85 133,80 133,90 129,85 " style="stroke-width:1; fill:white; stroke:black; " class="clusterblast-orf" description="&lt;b&gt;AMYBE_RS0100620&lt;/b&gt;&lt;br&gt;hypothetical protein&lt;br&gt;Location: 139130 - 138846"  />
</g>
<g id="a1_0015"  >
<polygon locus_tag="AMYBE_RS0100615" id="dummy-1_h1_7_15" points="135,85 140,80 142,80 142,90 140,90 135,85 " style="stroke-width:1; fill:white; stroke:black; " class="clusterblast-orf" description="&lt;b&gt;AMYBE_RS0100615&lt;/b&gt;&lt;br&gt;response regulator transcription factor&lt;br&gt;Location: 138643 - 137987"  />
</g>
<g id="a1_0016"  >
<polygon locus_tag="AMYBE_RS0100610" id="dummy-1_h1_7_16" points="142,85 147,80 156,80 156,90 147,90 142,85 " style="stroke-width:1; fill:white; stroke:black; " class="clusterblast-orf" description="&lt;b&gt;AMYBE_RS0100610&lt;/b&gt;&lt;br&gt;two-component sensor histidine kinase&lt;br&gt;Location: 137990 - 136728"  />
</g>
<g id="a1_0017"  >
<polygon locus_tag="AMYBE_RS0100605" id="dummy-1_h1_7_17" points="157,90 161,85 157,80 157,90 " style="stroke-width:1; fill:white; stroke:black; " class="clusterblast-orf" description="&lt;b&gt;AMYBE_RS0100605&lt;/b&gt;&lt;br&gt;hypothetical protein&lt;br&gt;Location: 136595 - 136287"  />
</g>
<g id="a1_0018"  >
<polygon locus_tag="AMYBE_RS0100600" id="dummy-1_h1_7_18" points="161,90 163,85 161,80 161,90 " style="stroke-width:1; fill:white; stroke:black; " class="clusterblast-orf" description="&lt;b&gt;AMYBE_RS0100600&lt;/b&gt;&lt;br&gt;hypothetical protein&lt;br&gt;Location: 136268 - 136053"  />
</g>
<g id="a1_0019"  >
<polygon locus_tag="AMYBE_RS0100595" id="dummy-1_h1_7_19" points="165,85 170,80 173,80 173,90 170,90 165,85 " style="stroke-width:1; fill:white; stroke:black; " class="clusterblast-orf" description="&lt;b&gt;AMYBE_RS0100595&lt;/b&gt;&lt;br&gt;ABC transporter permease&lt;br&gt;Location: 135960 - 135160"  />
</g>
<g id="a1_0020"  >
<polygon locus_tag="AMYBE_RS0100590" id="dummy-1_h1_7_20" points="173,85 178,80 184,80 184,90 178,90 173,85 " style="stroke-width:1; fill:white; stroke:black; " class="clusterblast-orf" description="&lt;b&gt;AMYBE_RS0100590&lt;/b&gt;&lt;br&gt;daunorubicin resistance protein DrrA family ABC transporter ATP-binding protein&lt;br&gt;Location: 135163 - 134204"  />
</g>
<g id="a1_0021"  >
<polygon locus_tag="AMYBE_RS0100585" id="dummy-1_h1_7_21" points="184,85 189,80 193,80 193,90 189,90 184,85 " style="stroke-width:1; fill:white; stroke:black; " class="clusterblast-orf" description="&lt;b&gt;AMYBE_RS0100585&lt;/b&gt;&lt;br&gt;enoyl-ACP reductase FabI&lt;br&gt;Location: 134211 - 133381"  />
</g>
<g id="a1_0022"  >
<polygon locus_tag="AMYBE_RS0100580" id="dummy-1_h1_7_22" points="194,90 197,85 194,80 194,90 " style="stroke-width:1; fill:white; stroke:black; " class="clusterblast-orf" description="&lt;b&gt;AMYBE_RS0100580&lt;/b&gt;&lt;br&gt;hypothetical protein&lt;br&gt;Location: 133272 - 133057"  />
</g>
<g id="a1_0023"  >
<polygon locus_tag="AMYBE_RS0100575" id="dummy-1_h1_7_23" points="197,85 202,80 208,80 208,90 202,90 197,85 " style="stroke-width:1; fill:white; stroke:black; " class="clusterblast-orf" description="&lt;b&gt;AMYBE_RS0100575&lt;/b&gt;&lt;br&gt;TauD/TfdA family dioxygenase&lt;br&gt;Location: 133053 - 132073"  />
</g>
<g id="a1_0024"  >
<polygon locus_tag="AMYBE_RS0100570" id="dummy-1_h1_7_24" points="208,85 213,80 216,80 216,90 213,90 208,85 " style="stroke-width:1; fill:white; stroke:black; " class="clusterblast-orf" description="&lt;b&gt;AMYBE_RS0100570&lt;/b&gt;&lt;br&gt;thioesterase&lt;br&gt;Location: 132044 - 131277"  />
</g>
<g id="a1_0025"  >
<polygon locus_tag="AMYBE_RS0100565" id="dummy-1_h1_7_25" points="218,85 221,80 221,90 218,85 " style="stroke-width:1; fill:white; stroke:black; " class="clusterblast-orf" description="&lt;b&gt;AMYBE_RS0100565&lt;/b&gt;&lt;br&gt;MbtH family protein&lt;br&gt;Location: 131114 - 130905"  />
</g>
<g id="a1_0026"  >
<polygon locus_tag="AMYBE_RS40765" id="dummy-1_h1_7_26" points="221,85 226,80 264,80 264,90 226,90 221,85 " style="stroke-width:1; fill:#d81515; stroke:black; " class="clusterblast-orf" description="&lt;b&gt;AMYBE_RS40765&lt;/b&gt;&lt;br&gt;non-ribosomal peptide synthetase&lt;br&gt;Location: 130908 - 126997&lt;br&gt;&lt;br&gt;&lt;b&gt;BlastP hit with cds2_1355&lt;/b&gt;&lt;br&gt;Percentage identity: 48&lt;br&gt;Percentage coverage: 98&lt;br&gt;BLAST bit score: 379&lt;br&gt;E-value: 4.3e-103"  />
</g>
<g id="a1_0027"  >
<polygon locus_tag="AMYBE_RS0100555" id="dummy-1_h1_7_27" points="264,85 269,80 385,80 385,90 269,90 264,85 " style="stroke-width:1; fill:#d81515; stroke:black; " class="clusterblast-orf" description="&lt;b&gt;AMYBE_RS0100555&lt;/b&gt;&lt;br&gt;non-ribosomal peptide synthetase&lt;br&gt;Location: 127000 - 116075&lt;br&gt;&lt;br&gt;&lt;b&gt;BlastP hit with cds2_1355&lt;/b&gt;&lt;br&gt;Percentage identity: 47&lt;br&gt;Percentage coverage: 98&lt;br&gt;BLAST bit score: 382&lt;br&gt;E-value: 5e-104&lt;br&gt;&lt;br&gt;&lt;b&gt;BlastP hit with cds1351_4735&lt;/b&gt;&lt;br&gt;Percentage identity: 46&lt;br&gt;Percentage coverage: 100&lt;br&gt;BLAST bit score: 892&lt;br&gt;E-value: 4.9e-257"  />
</g>
<g id="a1_0028"  >
<polygon locus_tag="AMYBE_RS40760" id="dummy-1_h1_7_28" points="385,85 390,80 505,80 505,90 390,90 385,85 " style="stroke-width:1; fill:#d81515; stroke:black; " class="clusterblast-orf" description="&lt;b&gt;AMYBE_RS40760&lt;/b&gt;&lt;br&gt;non-ribosomal peptide synthetase&lt;br&gt;Location: 116073 - 105226&lt;br&gt;&lt;br&gt;&lt;b&gt;BlastP hit with cds1351_4735&lt;/b&gt;&lt;br&gt;Percentage identity: 43&lt;br&gt;Percentage coverage: 101&lt;br&gt;BLAST bit score: 748&lt;br&gt;E-value: 1.1e-213"  />
</g>
<g id="a1_0029"  >
<polygon locus_tag="AMYBE_RS0100545" id="dummy-1_h1_7_29" points="505,85 510,80 519,80 519,90 510,90 505,85 " style="stroke-width:1; fill:white; stroke:black; " class="clusterblast-orf" description="&lt;b&gt;AMYBE_RS0100545&lt;/b&gt;&lt;br&gt;beta-ketoacyl-ACP synthase II&lt;br&gt;Location: 105211 - 103955"  />
</g>
<g id="a1_0030"  >
<polygon locus_tag="AMYBE_RS40755" id="dummy-1_h1_7_30" points="520,85 525,80 539,80 539,90 525,90 520,85 " style="stroke-width:1; fill:white; stroke:black; " class="clusterblast-orf" description="&lt;b&gt;AMYBE_RS40755&lt;/b&gt;&lt;br&gt;thiamine pyrophosphate-binding protein&lt;br&gt;Location: 103925 - 102228"  />
</g>
<g id="a1_0031"  >
<polygon locus_tag="AMYBE_RS40750" id="dummy-1_h1_7_31" points="539,85 544,80 569,80 569,90 544,90 539,85 " style="stroke-width:1; fill:white; stroke:black; " class="clusterblast-orf" description="&lt;b&gt;AMYBE_RS40750&lt;/b&gt;&lt;br&gt;aldehyde dehydrogenase family protein&lt;br&gt;Location: 102194 - 99480"  />
</g>
<g id="a1_0032"  >
<polygon locus_tag="AMYBE_RS40745" id="dummy-1_h1_7_32" points="573,90 575,90 580,85 575,80 573,80 573,90 " style="stroke-width:1; fill:white; stroke:black; " class="clusterblast-orf" description="&lt;b&gt;AMYBE_RS40745&lt;/b&gt;&lt;br&gt;YqcI/YcgG family protein&lt;br&gt;Location: 99133 - 98480"  />
</g>
<g id="a1_0033"  >
<polygon locus_tag="AMYBE_RS0100525" id="dummy-1_h1_7_33" points="583,85 588,80 593,80 593,90 588,90 583,85 " style="stroke-width:1; fill:white; stroke:black; " class="clusterblast-orf" description="&lt;b&gt;AMYBE_RS0100525&lt;/b&gt;&lt;br&gt;2,3-diaminopropionate biosynthesis protein SbnA&lt;br&gt;Location: 98223 - 97276"  />
</g>
<g id="a1_0034"  >
<polygon locus_tag="AMYBE_RS0100520" id="dummy-1_h1_7_34" points="594,85 599,80 606,80 606,90 599,90 594,85 " style="stroke-width:1; fill:white; stroke:black; " class="clusterblast-orf" description="&lt;b&gt;AMYBE_RS0100520&lt;/b&gt;&lt;br&gt;2,3-diaminopropionate biosynthesis protein SbnB&lt;br&gt;Location: 97221 - 96187"  />
</g>
<g id="a1_0035"  >
<polygon locus_tag="AMYBE_RS0100515" id="dummy-1_h1_7_35" points="617,90 621,85 617,80 617,90 " style="stroke-width:1; fill:white; stroke:black; " class="clusterblast-orf" description="&lt;b&gt;AMYBE_RS0100515&lt;/b&gt;&lt;br&gt;MaoC family dehydratase&lt;br&gt;Location: 95195 - 94761"  />
</g>
<g id="a1_0036"  >
<polygon locus_tag="AMYBE_RS0100510" id="dummy-1_h1_7_36" points="621,90 621,90 626,85 621,80 621,80 621,90 " style="stroke-width:1; fill:white; stroke:black; " class="clusterblast-orf" description="&lt;b&gt;AMYBE_RS0100510&lt;/b&gt;&lt;br&gt;MaoC family dehydratase N-terminal domain-containing protein&lt;br&gt;Location: 94764 - 94327"  />
</g>
<g id="a1_0037"  >
<polygon locus_tag="AMYBE_RS0100505" id="dummy-1_h1_7_37" points="628,85 633,80 638,80 638,90 633,90 628,85 " style="stroke-width:1; fill:white; stroke:black; " class="clusterblast-orf" description="&lt;b&gt;AMYBE_RS0100505&lt;/b&gt;&lt;br&gt;MBL fold metallo-hydrolase&lt;br&gt;Location: 94134 - 93244"  />
</g>
<g id="a1_0038"  >
<polygon locus_tag="AMYBE_RS0100500" id="dummy-1_h1_7_38" points="640,90 644,90 649,85 644,80 640,80 640,90 " style="stroke-width:1; fill:white; stroke:black; " class="clusterblast-orf" description="&lt;b&gt;AMYBE_RS0100500&lt;/b&gt;&lt;br&gt;LysR family transcriptional regulator&lt;br&gt;Location: 93124 - 92243"  />
</g>
<g id="a1_0039"  >
<polygon locus_tag="AMYBE_RS0100495" id="dummy-1_h1_7_39" points="650,90 652,85 650,80 650,90 " style="stroke-width:1; fill:white; stroke:black; " class="clusterblast-orf" description="&lt;b&gt;AMYBE_RS0100495&lt;/b&gt;&lt;br&gt;hypothetical protein&lt;br&gt;Location: 92212 - 92030"  />
</g>
<g id="a1_0040"  >
<polygon locus_tag="AMYBE_RS0100490" id="dummy-1_h1_7_40" points="654,90 655,90 660,85 655,80 654,80 654,90 " style="stroke-width:1; fill:white; stroke:black; " class="clusterblast-orf" description="&lt;b&gt;AMYBE_RS0100490&lt;/b&gt;&lt;br&gt;hypothetical protein&lt;br&gt;Location: 91819 - 91283"  />
</g>
<g id="a1_0041"  >
<polygon locus_tag="AMYBE_RS0100485" id="dummy-1_h1_7_41" points="660,90 660,90 665,85 660,80 660,80 660,90 " style="stroke-width:1; fill:white; stroke:black; " class="clusterblast-orf" description="&lt;b&gt;AMYBE_RS0100485&lt;/b&gt;&lt;br&gt;thioredoxin-dependent thiol peroxidase&lt;br&gt;Location: 91268 - 90792"  />
</g>
<g id="a1_0042"  >
<polygon locus_tag="AMYBE_RS0100480" id="dummy-1_h1_7_42" points="666,85 671,80 685,80 685,90 671,90 666,85 " style="stroke-width:1; fill:white; stroke:black; " class="clusterblast-orf" description="&lt;b&gt;AMYBE_RS0100480&lt;/b&gt;&lt;br&gt;HAMP domain-containing histidine kinase&lt;br&gt;Location: 90735 - 88984"  />
</g>
<g id="a1_0043"  >
<polygon locus_tag="AMYBE_RS0100475" id="dummy-1_h1_7_43" points="685,85 690,80 693,80 693,90 690,90 685,85 " style="stroke-width:1; fill:white; stroke:black; " class="clusterblast-orf" description="&lt;b&gt;AMYBE_RS0100475&lt;/b&gt;&lt;br&gt;response regulator transcription factor&lt;br&gt;Location: 88994 - 88308"  />
</g>
<g id="a1_0044"  >
<polygon locus_tag="AMYBE_RS0100470" id="dummy-1_h1_7_44" points="695,85 700,80 702,80 702,90 700,90 695,85 " style="stroke-width:1; fill:white; stroke:black; " class="clusterblast-orf" description="&lt;b&gt;AMYBE_RS0100470&lt;/b&gt;&lt;br&gt;RdgB/HAM1 family non-canonical purine NTP pyrophosphatase&lt;br&gt;Location: 88138 - 87533"  />
</g>
<g id="a1_0045"  >
<polygon locus_tag="AMYBE_RS0100465" id="dummy-1_h1_7_45" points="701,85 706,80 710,80 710,90 706,90 701,85 " style="stroke-width:1; fill:white; stroke:black; " class="clusterblast-orf" description="&lt;b&gt;AMYBE_RS0100465&lt;/b&gt;&lt;br&gt;ribonuclease PH&lt;br&gt;Location: 87536 - 86760"  />
</g>
<g id="a1_0046"  >
<polygon locus_tag="AMYBE_RS0100460" id="dummy-1_h1_7_46" points="711,85 716,80 720,80 720,90 716,90 711,85 " style="stroke-width:1; fill:white; stroke:black; " class="clusterblast-orf" description="&lt;b&gt;AMYBE_RS0100460&lt;/b&gt;&lt;br&gt;MBL fold metallo-hydrolase&lt;br&gt;Location: 86675 - 85908"  />
</g>
<g id="a1_0047"  >
<polygon locus_tag="AMYBE_RS0100455" id="dummy-1_h1_7_47" points="720,85 725,80 729,80 729,90 725,90 720,85 " style="stroke-width:1; fill:white; stroke:black; " class="clusterblast-orf" description="&lt;b&gt;AMYBE_RS0100455&lt;/b&gt;&lt;br&gt;glutamate racemase&lt;br&gt;Location: 85871 - 85071"  />
</g>
<g id="a1_0048"  >
<polygon locus_tag="AMYBE_RS0100450" id="dummy-1_h1_7_48" points="729,85 734,80 736,80 736,90 734,90 729,85 " style="stroke-width:1; fill:white; stroke:black; " class="clusterblast-orf" description="&lt;b&gt;AMYBE_RS0100450&lt;/b&gt;&lt;br&gt;rhomboid family intramembrane serine protease&lt;br&gt;Location: 85074 - 84430"  />
</g>
<g id="a1_0049"  >
<polygon locus_tag="AMYBE_RS0100445" id="dummy-1_h1_7_49" points="738,85 743,80 749,80 749,90 743,90 738,85 " style="stroke-width:1; fill:white; stroke:black; " class="clusterblast-orf" description="&lt;b&gt;AMYBE_RS0100445&lt;/b&gt;&lt;br&gt;cysteine synthase&lt;br&gt;Location: 84244 - 83294"  />
</g>
<g id="a1_0050"  >
<polygon locus_tag="AMYBE_RS0100440" id="dummy-1_h1_7_50" points="749,85 752,80 752,90 749,85 " style="stroke-width:1; fill:white; stroke:black; " class="clusterblast-orf" description="&lt;b&gt;AMYBE_RS0100440&lt;/b&gt;&lt;br&gt;MoaD/ThiS family protein&lt;br&gt;Location: 83289 - 83011"  />
</g>
<g id="a1_0051"  >
<polygon locus_tag="AMYBE_RS0100435" id="dummy-1_h1_7_51" points="752,85 757,80 757,80 757,90 757,90 752,85 " style="stroke-width:1; fill:white; stroke:black; " class="clusterblast-orf" description="&lt;b&gt;AMYBE_RS0100435&lt;/b&gt;&lt;br&gt;M67 family metallopeptidase&lt;br&gt;Location: 82946 - 82539"  />
</g>
<g id="a1_0052"  >
<polygon locus_tag="AMYBE_RS0100430" id="dummy-1_h1_7_52" points="759,85 764,80 770,80 770,90 764,90 759,85 " style="stroke-width:1; fill:white; stroke:black; " class="clusterblast-orf" description="&lt;b&gt;AMYBE_RS0100430&lt;/b&gt;&lt;br&gt;P1 family peptidase&lt;br&gt;Location: 82362 - 81373"  />
</g>
<g id="a1_0053"  >
<polygon locus_tag="AMYBE_RS0100425" id="dummy-1_h1_7_53" points="770,85 775,80 776,80 776,90 775,90 770,85 " style="stroke-width:1; fill:white; stroke:black; " class="clusterblast-orf" description="&lt;b&gt;AMYBE_RS0100425&lt;/b&gt;&lt;br&gt;DUF2017 domain-containing protein&lt;br&gt;Location: 81353 - 80796"  />
</g>
<g id="a1_0054"  >
<polygon locus_tag="AMYBE_RS0100420" id="dummy-1_h1_7_54" points="776,85 780,80 780,90 776,85 " style="stroke-width:1; fill:white; stroke:black; " class="clusterblast-orf" description="&lt;b&gt;AMYBE_RS0100420&lt;/b&gt;&lt;br&gt;ATP-dependent Clp protease adapter ClpS&lt;br&gt;Location: 80799 - 80500"  />
</g>
</svg>
