<svg xmlns:xlink="http://www.w3.org/1999/xlink" preserveAspectRatio="none" width="800" xmlns="http://www.w3.org/2000/svg" version="1.1" x="0" viewBox="0 0 800 230" height="230" y="0"  >
<g label="Query sequence" class="clusterblast-cluster"  >
<text x="5" y="20" class="clusterblast-acc"  >
Query sequence</text>
<line x2="778.0" style="stroke-width:1; stroke:grey; " y1="35" x1="10" y2="35"  />
<polygon locus_tag="cds721_1804" id="dummy-1_q0_0_all" points="41,40 57,40 62,35 57,30 41,30 41,40 " style="stroke-width:1; fill:#d81515; stroke:black; " class="clusterblast-orf" description="&lt;b&gt;cds721_1804&lt;/b&gt;&lt;br&gt;ABC transporter, substrate-binding protein (cluster 2, ribose/xylose/arabinose/galactose)&lt;br&gt;Location: 721 - 1804"  />
<polygon locus_tag="cds1960_3667" id="dummy-1_q1_0_all" points="65,40 93,40 98,35 93,30 65,30 65,40 " style="stroke-width:1; fill:#63d815; stroke:black; " class="clusterblast-orf" description="&lt;b&gt;cds1960_3667&lt;/b&gt;&lt;br&gt;ABC transporter, ATP-binding protein (cluster 2, ribose/xylose/arabinose/galactose) / ABC transporter, ATP-binding protein (cluster 2, ribose/xylose/arabinose/galactose)&lt;br&gt;Location: 1960 - 3667"  />
<polygon locus_tag="cds3663_4638" id="dummy-1_q2_0_all" points="98,40 112,40 117,35 112,30 98,30 98,40 " style="stroke-width:1; fill:#15b1d8; stroke:black; " class="clusterblast-orf" description="&lt;b&gt;cds3663_4638&lt;/b&gt;&lt;br&gt;ABC transporter, permease protein (cluster 2, ribose/xylose/arabinose/galactose)&lt;br&gt;Location: 3663 - 4638"  />
<polygon locus_tag="cds4634_5684" id="dummy-1_q3_0_all" points="117,40 133,40 138,35 133,30 117,30 117,40 " style="stroke-width:1; fill:#15b1d8; stroke:black; " class="clusterblast-orf" description="&lt;b&gt;cds4634_5684&lt;/b&gt;&lt;br&gt;ABC transporter, permease protein (cluster 2, ribose/xylose/arabinose/galactose)&lt;br&gt;Location: 4634 - 5684"  />
<polygon locus_tag="cds5730_6762" id="dummy-1_q4_0_all" points="139,40 154,40 159,35 154,30 139,30 139,40 " style="stroke-width:1; fill:#8a15d8; stroke:black; " class="clusterblast-orf" description="&lt;b&gt;cds5730_6762&lt;/b&gt;&lt;br&gt;Transcriptional regulator, LacI family&lt;br&gt;Location: 5730 - 6762"  />
<polygon locus_tag="cds6812_7880" id="dummy-1_q5_0_all" points="160,40 176,40 181,35 176,30 160,30 160,40 " style="stroke-width:1; fill:#d83c15; stroke:black; " class="clusterblast-orf" description="&lt;b&gt;cds6812_7880&lt;/b&gt;&lt;br&gt;Aldose 1-epimerase&lt;br&gt;Location: 6812 - 7880"  />
<polygon locus_tag="cds7903_8740" id="dummy-1_q6_0_all" points="181,40 192,40 197,35 192,30 181,30 181,40 " style="stroke-width:1; fill:#3cd815; stroke:black; " class="clusterblast-orf" description="&lt;b&gt;cds7903_8740&lt;/b&gt;&lt;br&gt;hypothetical protein&lt;br&gt;Location: 7903 - 8740"  />
<polygon locus_tag="cds9032_9449" id="dummy-1_q7_0_all" points="203,40 206,40 211,35 206,30 203,30 203,40 " style="stroke-width:1; fill:#158ad8; stroke:black; " class="clusterblast-orf" description="&lt;b&gt;cds9032_9449&lt;/b&gt;&lt;br&gt;hypothetical protein&lt;br&gt;Location: 9032 - 9449"  />
<polygon locus_tag="cds9480_10653" id="dummy-1_q8_0_all" points="212,40 230,40 235,35 230,30 212,30 212,40 " style="stroke-width:1; fill:#b115d8; stroke:black; " class="clusterblast-orf" description="&lt;b&gt;cds9480_10653&lt;/b&gt;&lt;br&gt;DNA gyrase subunit B (EC 5.99.1.3)&lt;br&gt;Location: 9480 - 10653"  />
<polygon locus_tag="cds10728_11262" id="dummy-1_q9_0_all" points="236,35 241,30 247,30 247,40 241,40 236,35 " style="stroke-width:1; fill:#d86315; stroke:black; " class="clusterblast-orf" description="&lt;b&gt;cds10728_11262&lt;/b&gt;&lt;br&gt;calcium binding protein&lt;br&gt;Location: 10728 - 11262"  />
<polygon locus_tag="cds11546_12329" id="dummy-1_q10_0_all" points="252,40 262,40 267,35 262,30 252,30 252,40 " style="stroke-width:1; fill:#15d815; stroke:black; " class="clusterblast-orf" description="&lt;b&gt;cds11546_12329&lt;/b&gt;&lt;br&gt;Transcriptional regulator, AraC family&lt;br&gt;Location: 11546 - 12329"  />
<polygon locus_tag="cds12318_13407" id="dummy-1_q11_0_all" points="267,35 272,30 288,30 288,40 272,40 267,35 " style="stroke-width:1; fill:#1563d8; stroke:black; " class="clusterblast-orf" description="&lt;b&gt;cds12318_13407&lt;/b&gt;&lt;br&gt;HTH-type transcriptional activator tipA&lt;br&gt;Location: 12318 - 13407"  />
<polygon locus_tag="cds13721_14756" id="dummy-1_q12_0_all" points="295,40 310,40 315,35 310,30 295,30 295,40 " style="stroke-width:1; fill:#d815d8; stroke:black; " class="clusterblast-orf" description="&lt;b&gt;cds13721_14756&lt;/b&gt;&lt;br&gt;ABC transporter, substrate-binding protein (cluster 8, B12/iron complex)&lt;br&gt;Location: 13721 - 14756"  />
<polygon locus_tag="cds14752_15796" id="dummy-1_q13_0_all" points="315,40 330,40 335,35 330,30 315,30 315,40 " style="stroke-width:1; fill:#d88a15; stroke:black; " class="clusterblast-orf" description="&lt;b&gt;cds14752_15796&lt;/b&gt;&lt;br&gt;transport system permease protein&lt;br&gt;Location: 14752 - 15796"  />
<polygon locus_tag="cds15792_16845" id="dummy-1_q14_0_all" points="335,40 350,40 355,35 350,30 335,30 335,40 " style="stroke-width:1; fill:#15d83c; stroke:black; " class="clusterblast-orf" description="&lt;b&gt;cds15792_16845&lt;/b&gt;&lt;br&gt;transport system permease protein&lt;br&gt;Location: 15792 - 16845"  />
<polygon locus_tag="cds16841_17732" id="dummy-1_q15_0_all" points="355,40 368,40 373,35 368,30 355,30 355,40 " style="stroke-width:1; fill:#153cd8; stroke:black; " class="clusterblast-orf" description="&lt;b&gt;cds16841_17732&lt;/b&gt;&lt;br&gt;ABC-type Fe3+-siderophore transport system, ATPase component&lt;br&gt;Location: 16841 - 17732"  />
<polygon locus_tag="cds18876_19137" id="dummy-1_q16_0_all" points="395,35 400,30 400,30 400,40 400,40 395,35 " style="stroke-width:1; fill:white; stroke:black; " class="clusterblast-orf" description="&lt;b&gt;cds18876_19137&lt;/b&gt;&lt;br&gt;hypothetical protein&lt;br&gt;Location: 18876 - 19137"  />
<polygon locus_tag="cds19149_20370" id="dummy-1_q17_0_all" points="400,40 419,40 424,35 419,30 400,30 400,40 " style="stroke-width:1; fill:#d815b1; stroke:black; " class="clusterblast-orf" description="&lt;b&gt;cds19149_20370&lt;/b&gt;&lt;br&gt;Cytochrome P450&lt;br&gt;Location: 19149 - 20370"  />
<polygon locus_tag="cds20404_21523" id="dummy-1_q18_0_all" points="425,40 442,40 447,35 442,30 425,30 425,40 " style="stroke-width:1; fill:#d8b115; stroke:black; " class="clusterblast-orf" description="&lt;b&gt;cds20404_21523&lt;/b&gt;&lt;br&gt;1,3,6,8-tetrahydroxynaphthalene synthase (EC 2.3.1.233)&lt;br&gt;Location: 20404 - 21523"  />
<polygon locus_tag="cds21621_22812" id="dummy-1_q19_0_all" points="449,40 467,40 472,35 467,30 449,30 449,40 " style="stroke-width:1; fill:#15d863; stroke:black; " class="clusterblast-orf" description="&lt;b&gt;cds21621_22812&lt;/b&gt;&lt;br&gt;Peptidase S8 and S53, subtilisin, kexin, sedolisin&lt;br&gt;Location: 21621 - 22812"  />
<polygon locus_tag="cds23087_27317" id="dummy-1_q20_0_all" points="477,40 555,40 560,35 555,30 477,30 477,40 " style="stroke-width:1; fill:#1515d8; stroke:black; " class="clusterblast-orf" description="&lt;b&gt;cds23087_27317&lt;/b&gt;&lt;br&gt;APHP domain protein&lt;br&gt;Location: 23087 - 27317"  />
<polygon locus_tag="cds27496_28450" id="dummy-1_q21_0_all" points="563,40 577,40 582,35 577,30 563,30 563,40 " style="stroke-width:1; fill:#d8158a; stroke:black; " class="clusterblast-orf" description="&lt;b&gt;cds27496_28450&lt;/b&gt;&lt;br&gt;Transcriptional regulator, LacI family&lt;br&gt;Location: 27496 - 28450"  />
<polygon locus_tag="cds28530_28848" id="dummy-1_q22_0_all" points="583,40 584,40 589,35 584,30 583,30 583,40 " style="stroke-width:1; fill:#d8d815; stroke:black; " class="clusterblast-orf" description="&lt;b&gt;cds28530_28848&lt;/b&gt;&lt;br&gt;hypothetical protein&lt;br&gt;Location: 28530 - 28848"  />
<polygon locus_tag="cds28984_29920" id="dummy-1_q23_0_all" points="592,40 605,40 610,35 605,30 592,30 592,40 " style="stroke-width:1; fill:#15d88a; stroke:black; " class="clusterblast-orf" description="&lt;b&gt;cds28984_29920&lt;/b&gt;&lt;br&gt;Inner membrane protein YihY, formerly thought to be RNase BN&lt;br&gt;Location: 28984 - 29920"  />
<polygon locus_tag="cds29944_30772" id="dummy-1_q24_0_all" points="611,35 616,30 627,30 627,40 616,40 611,35 " style="stroke-width:1; fill:#3c15d8; stroke:black; " class="clusterblast-orf" description="&lt;b&gt;cds29944_30772&lt;/b&gt;&lt;br&gt;hypothetical protein&lt;br&gt;Location: 29944 - 30772"  />
<polygon locus_tag="cds30977_31859" id="dummy-1_q25_0_all" points="631,40 643,40 648,35 643,30 631,30 631,40 " style="stroke-width:1; fill:#d81563; stroke:black; " class="clusterblast-orf" description="&lt;b&gt;cds30977_31859&lt;/b&gt;&lt;br&gt;FIG01124607: hypothetical protein&lt;br&gt;Location: 30977 - 31859"  />
<polygon locus_tag="cds31888_32314" id="dummy-1_q26_0_all" points="649,35 654,30 657,30 657,40 654,40 649,35 " style="stroke-width:1; fill:#b1d815; stroke:black; " class="clusterblast-orf" description="&lt;b&gt;cds31888_32314&lt;/b&gt;&lt;br&gt;hypothetical protein&lt;br&gt;Location: 31888 - 32314"  />
<polygon locus_tag="cds32455_33028" id="dummy-1_q27_0_all" points="660,40 666,40 671,35 666,30 660,30 660,40 " style="stroke-width:1; fill:#15d8b1; stroke:black; " class="clusterblast-orf" description="&lt;b&gt;cds32455_33028&lt;/b&gt;&lt;br&gt;PadR-like family transcriptional regulator&lt;br&gt;Location: 32455 - 33028"  />
<polygon locus_tag="cds33106_33715" id="dummy-1_q28_0_all" points="673,40 679,40 684,35 679,30 673,30 673,40 " style="stroke-width:1; fill:#6315d8; stroke:black; " class="clusterblast-orf" description="&lt;b&gt;cds33106_33715&lt;/b&gt;&lt;br&gt;Transcriptional regulator, ArsR family&lt;br&gt;Location: 33106 - 33715"  />
<polygon locus_tag="cds33711_35145" id="dummy-1_q29_0_all" points="684,40 707,40 712,35 707,30 684,30 684,40 " style="stroke-width:1; fill:#d8153c; stroke:black; " class="clusterblast-orf" description="&lt;b&gt;cds33711_35145&lt;/b&gt;&lt;br&gt;Uncharacterized MFS-type transporter&lt;br&gt;Location: 33711 - 35145"  />
<polygon locus_tag="cds35128_36061" id="dummy-1_q30_0_all" points="712,40 725,40 730,35 725,30 712,30 712,40 " style="stroke-width:1; fill:#8ad815; stroke:black; " class="clusterblast-orf" description="&lt;b&gt;cds35128_36061&lt;/b&gt;&lt;br&gt;Fructokinase (EC 2.7.1.4)&lt;br&gt;Location: 35128 - 36061"  />
<polygon locus_tag="cds36161_36482" id="dummy-1_q31_0_all" points="732,40 733,40 738,35 733,30 732,30 732,40 " style="stroke-width:1; fill:#15d8d8; stroke:black; " class="clusterblast-orf" description="&lt;b&gt;cds36161_36482&lt;/b&gt;&lt;br&gt;3-oxoacyl-[acyl-carrier-protein] synthase, KASIII (EC 2.3.1.180)&lt;br&gt;Location: 36161 - 36482"  />
</g>
<g label="NZ_CP029361" class="clusterblast-cluster" description="NZ_CP029361 (7102493-7143612): Streptomyces globisporus strain TFH56 chromoso... (84% of genes show similarity), T3PKS"  >
<text x="5" y="70" class="clusterblast-acc"  >
<a xlink:href="https://antismash-db.secondarymetabolites.org/area.html?record=NZ_CP029361&amp;start=7102493&amp;end=7143612" target="_blank">NZ_CP029361 (7102493-7143612)</a>: Streptomyces globisporus strain TFH56 chromoso... (84% of genes show similarity), T3PKS</text>
<line x2="778.0" style="stroke-width:1; stroke:grey; " y1="85" x1="10" y2="85"  />
</g>
<g id="a1_000"  >
<polygon locus_tag="DIJ69_RS32100" id="dummy-1_h1_10_0" points="0,90 16,90 21,85 16,80 0,80 0,90 " style="stroke-width:1; fill:#d81515; stroke:black; " class="clusterblast-orf" description="&lt;b&gt;DIJ69_RS32100&lt;/b&gt;&lt;br&gt;ABC transporter substrate-binding protein&lt;br&gt;Location: 7103104 - 7104186&lt;br&gt;&lt;br&gt;&lt;b&gt;BlastP hit with cds721_1804&lt;/b&gt;&lt;br&gt;Percentage identity: 99&lt;br&gt;Percentage coverage: 100&lt;br&gt;BLAST bit score: 621&lt;br&gt;E-value: 5.1e-176"  />
</g>
<g id="a1_001"  >
<polygon locus_tag="DIJ69_RS32105" id="dummy-1_h1_10_1" points="23,90 52,90 57,85 52,80 23,80 23,90 " style="stroke-width:1; fill:#63d815; stroke:black; " class="clusterblast-orf" description="&lt;b&gt;DIJ69_RS32105&lt;/b&gt;&lt;br&gt;sugar ABC transporter ATP-binding protein&lt;br&gt;Location: 7104321 - 7106033&lt;br&gt;&lt;br&gt;&lt;b&gt;BlastP hit with cds1960_3667&lt;/b&gt;&lt;br&gt;Percentage identity: 96&lt;br&gt;Percentage coverage: 101&lt;br&gt;BLAST bit score: 972&lt;br&gt;E-value: 1.9e-281"  />
</g>
<g id="a1_002"  >
<polygon locus_tag="DIJ69_RS32110" id="dummy-1_h1_10_2" points="57,90 71,90 76,85 71,80 57,80 57,90 " style="stroke-width:1; fill:#15b1d8; stroke:black; " class="clusterblast-orf" description="&lt;b&gt;DIJ69_RS32110&lt;/b&gt;&lt;br&gt;ABC transporter permease&lt;br&gt;Location: 7106030 - 7107004&lt;br&gt;&lt;br&gt;&lt;b&gt;BlastP hit with cds3663_4638&lt;/b&gt;&lt;br&gt;Percentage identity: 99&lt;br&gt;Percentage coverage: 100&lt;br&gt;BLAST bit score: 541&lt;br&gt;E-value: 4.7e-152&lt;br&gt;&lt;br&gt;&lt;b&gt;BlastP hit with cds4634_5684&lt;/b&gt;&lt;br&gt;Percentage identity: 36&lt;br&gt;Percentage coverage: 93&lt;br&gt;BLAST bit score: 136&lt;br&gt;E-value: 3.7e-30"  />
</g>
<g id="a1_003"  >
<polygon locus_tag="DIJ69_RS32115" id="dummy-1_h1_10_3" points="75,90 91,90 96,85 91,80 75,80 75,90 " style="stroke-width:1; fill:#15b1d8; stroke:black; " class="clusterblast-orf" description="&lt;b&gt;DIJ69_RS32115&lt;/b&gt;&lt;br&gt;ABC transporter permease&lt;br&gt;Location: 7107001 - 7108050&lt;br&gt;&lt;br&gt;&lt;b&gt;BlastP hit with cds3663_4638&lt;/b&gt;&lt;br&gt;Percentage identity: 36&lt;br&gt;Percentage coverage: 107&lt;br&gt;BLAST bit score: 141&lt;br&gt;E-value: 1.8e-31&lt;br&gt;&lt;br&gt;&lt;b&gt;BlastP hit with cds4634_5684&lt;/b&gt;&lt;br&gt;Percentage identity: 98&lt;br&gt;Percentage coverage: 100&lt;br&gt;BLAST bit score: 613&lt;br&gt;E-value: 1.4e-173"  />
</g>
<g id="a1_004"  >
<polygon locus_tag="DIJ69_RS32120" id="dummy-1_h1_10_4" points="97,90 112,90 117,85 112,80 97,80 97,90 " style="stroke-width:1; fill:#8a15d8; stroke:black; " class="clusterblast-orf" description="&lt;b&gt;DIJ69_RS32120&lt;/b&gt;&lt;br&gt;LacI family DNA-binding transcriptional regulator&lt;br&gt;Location: 7108097 - 7109128&lt;br&gt;&lt;br&gt;&lt;b&gt;BlastP hit with cds5730_6762&lt;/b&gt;&lt;br&gt;Percentage identity: 99&lt;br&gt;Percentage coverage: 99&lt;br&gt;BLAST bit score: 657&lt;br&gt;E-value: 8.1e-187"  />
</g>
<g id="a1_005"  >
<polygon locus_tag="DIJ69_RS32125" id="dummy-1_h1_10_5" points="118,90 134,90 139,85 134,80 118,80 118,90 " style="stroke-width:1; fill:#d83c15; stroke:black; " class="clusterblast-orf" description="&lt;b&gt;DIJ69_RS32125&lt;/b&gt;&lt;br&gt;galactose mutarotase&lt;br&gt;Location: 7109186 - 7110250&lt;br&gt;&lt;br&gt;&lt;b&gt;BlastP hit with cds6812_7880&lt;/b&gt;&lt;br&gt;Percentage identity: 91&lt;br&gt;Percentage coverage: 99&lt;br&gt;BLAST bit score: 673&lt;br&gt;E-value: 8.6e-192"  />
</g>
<g id="a1_006"  >
<polygon locus_tag="DIJ69_RS32130" id="dummy-1_h1_10_6" points="140,85 145,80 199,80 199,90 145,90 140,85 " style="stroke-width:1; fill:white; stroke:black; " class="clusterblast-orf" description="&lt;b&gt;DIJ69_RS32130&lt;/b&gt;&lt;br&gt;alpha-amylase&lt;br&gt;Location: 7110285 - 7113314"  />
</g>
<g id="a1_007"  >
<polygon locus_tag="DIJ69_RS32135" id="dummy-1_h1_10_7" points="203,90 206,90 211,85 206,80 203,80 203,90 " style="stroke-width:1; fill:#158ad8; stroke:black; " class="clusterblast-orf" description="&lt;b&gt;DIJ69_RS32135&lt;/b&gt;&lt;br&gt;acyl-CoA thioesterase&lt;br&gt;Location: 7113524 - 7113940&lt;br&gt;&lt;br&gt;&lt;b&gt;BlastP hit with cds9032_9449&lt;/b&gt;&lt;br&gt;Percentage identity: 97&lt;br&gt;Percentage coverage: 100&lt;br&gt;BLAST bit score: 273&lt;br&gt;E-value: 1.3e-71"  />
</g>
<g id="a1_008"  >
<polygon locus_tag="DIJ69_RS32140" id="dummy-1_h1_10_8" points="213,85 218,80 223,80 223,90 218,90 213,85 " style="stroke-width:1; fill:#d86315; stroke:black; " class="clusterblast-orf" description="&lt;b&gt;DIJ69_RS32140&lt;/b&gt;&lt;br&gt;calcium-binding protein&lt;br&gt;Location: 7114049 - 7114582&lt;br&gt;&lt;br&gt;&lt;b&gt;BlastP hit with cds10728_11262&lt;/b&gt;&lt;br&gt;Percentage identity: 94&lt;br&gt;Percentage coverage: 100&lt;br&gt;BLAST bit score: 336&lt;br&gt;E-value: 2.1e-90"  />
</g>
<g id="a1_009"  >
<polygon locus_tag="DIJ69_RS32145" id="dummy-1_h1_10_9" points="229,90 239,90 244,85 239,80 229,80 229,90 " style="stroke-width:1; fill:#15d815; stroke:black; " class="clusterblast-orf" description="&lt;b&gt;DIJ69_RS32145&lt;/b&gt;&lt;br&gt;helix-turn-helix transcriptional regulator&lt;br&gt;Location: 7114864 - 7115637&lt;br&gt;&lt;br&gt;&lt;b&gt;BlastP hit with cds11546_12329&lt;/b&gt;&lt;br&gt;Percentage identity: 89&lt;br&gt;Percentage coverage: 98&lt;br&gt;BLAST bit score: 457&lt;br&gt;E-value: 7.1e-127"  />
</g>
<g id="a1_0010"  >
<polygon locus_tag="DIJ69_RS32150" id="dummy-1_h1_10_10" points="247,90 263,90 268,85 263,80 247,80 247,90 " style="stroke-width:1; fill:#d815d8; stroke:black; " class="clusterblast-orf" description="&lt;b&gt;DIJ69_RS32150&lt;/b&gt;&lt;br&gt;iron-siderophore ABC transporter substrate-binding protein&lt;br&gt;Location: 7115816 - 7116850&lt;br&gt;&lt;br&gt;&lt;b&gt;BlastP hit with cds13721_14756&lt;/b&gt;&lt;br&gt;Percentage identity: 97&lt;br&gt;Percentage coverage: 100&lt;br&gt;BLAST bit score: 662&lt;br&gt;E-value: 1.9e-188"  />
</g>
<g id="a1_0011"  >
<polygon locus_tag="DIJ69_RS32155" id="dummy-1_h1_10_11" points="267,90 283,90 288,85 283,80 267,80 267,90 " style="stroke-width:1; fill:#d88a15; stroke:black; " class="clusterblast-orf" description="&lt;b&gt;DIJ69_RS32155&lt;/b&gt;&lt;br&gt;iron ABC transporter permease&lt;br&gt;Location: 7116847 - 7117890&lt;br&gt;&lt;br&gt;&lt;b&gt;BlastP hit with cds14752_15796&lt;/b&gt;&lt;br&gt;Percentage identity: 99&lt;br&gt;Percentage coverage: 100&lt;br&gt;BLAST bit score: 595&lt;br&gt;E-value: 2.9e-168"  />
</g>
<g id="a1_0012"  >
<polygon locus_tag="DIJ69_RS32160" id="dummy-1_h1_10_12" points="288,90 303,90 308,85 303,80 288,80 288,90 " style="stroke-width:1; fill:#15d83c; stroke:black; " class="clusterblast-orf" description="&lt;b&gt;DIJ69_RS32160&lt;/b&gt;&lt;br&gt;iron ABC transporter permease&lt;br&gt;Location: 7117887 - 7118939&lt;br&gt;&lt;br&gt;&lt;b&gt;BlastP hit with cds15792_16845&lt;/b&gt;&lt;br&gt;Percentage identity: 95&lt;br&gt;Percentage coverage: 100&lt;br&gt;BLAST bit score: 412&lt;br&gt;E-value: 4.6e-113"  />
</g>
<g id="a1_0013"  >
<polygon locus_tag="DIJ69_RS32165" id="dummy-1_h1_10_13" points="308,90 321,90 326,85 321,80 308,80 308,90 " style="stroke-width:1; fill:#153cd8; stroke:black; " class="clusterblast-orf" description="&lt;b&gt;DIJ69_RS32165&lt;/b&gt;&lt;br&gt;ABC transporter ATP-binding protein&lt;br&gt;Location: 7118936 - 7119823&lt;br&gt;&lt;br&gt;&lt;b&gt;BlastP hit with cds16841_17732&lt;/b&gt;&lt;br&gt;Percentage identity: 97&lt;br&gt;Percentage coverage: 100&lt;br&gt;BLAST bit score: 558&lt;br&gt;E-value: 3.4e-157"  />
</g>
<g id="a1_0014"  >
<polygon locus_tag="DIJ69_RS32170" id="dummy-1_h1_10_14" points="324,85 329,80 348,80 348,90 329,90 324,85 " style="stroke-width:1; fill:white; stroke:black; " class="clusterblast-orf" description="&lt;b&gt;DIJ69_RS32170&lt;/b&gt;&lt;br&gt;Dyp-type peroxidase&lt;br&gt;Location: 7119754 - 7120971"  />
</g>
<g id="a1_0015"  >
<polygon locus_tag="DIJ69_RS32175" id="dummy-1_h1_10_15" points="353,90 372,90 377,85 372,80 353,80 353,90 " style="stroke-width:1; fill:#d815b1; stroke:black; " class="clusterblast-orf" description="&lt;b&gt;DIJ69_RS32175&lt;/b&gt;&lt;br&gt;cytochrome P450&lt;br&gt;Location: 7121239 - 7122459&lt;br&gt;&lt;br&gt;&lt;b&gt;BlastP hit with cds19149_20370&lt;/b&gt;&lt;br&gt;Percentage identity: 98&lt;br&gt;Percentage coverage: 100&lt;br&gt;BLAST bit score: 790&lt;br&gt;E-value: 5.5e-227"  />
</g>
<g id="a1_0016"  >
<polygon locus_tag="DIJ69_RS32180" id="dummy-1_h1_10_16" points="378,90 394,90 399,85 394,80 378,80 378,90 " style="stroke-width:1; fill:#d8b115; stroke:black; " class="clusterblast-orf" description="&lt;b&gt;DIJ69_RS32180&lt;/b&gt;&lt;br&gt;type III polyketide synthase&lt;br&gt;Location: 7122494 - 7123612&lt;br&gt;&lt;br&gt;&lt;b&gt;BlastP hit with cds20404_21523&lt;/b&gt;&lt;br&gt;Percentage identity: 97&lt;br&gt;Percentage coverage: 100&lt;br&gt;BLAST bit score: 725&lt;br&gt;E-value: 2e-207"  />
</g>
<g id="a1_0017"  >
<polygon locus_tag="DIJ69_RS32185" id="dummy-1_h1_10_17" points="401,90 420,90 425,85 420,80 401,80 401,90 " style="stroke-width:1; fill:#15d863; stroke:black; " class="clusterblast-orf" description="&lt;b&gt;DIJ69_RS32185&lt;/b&gt;&lt;br&gt;S8 family peptidase&lt;br&gt;Location: 7123712 - 7124902&lt;br&gt;&lt;br&gt;&lt;b&gt;BlastP hit with cds21621_22812&lt;/b&gt;&lt;br&gt;Percentage identity: 96&lt;br&gt;Percentage coverage: 100&lt;br&gt;BLAST bit score: 738&lt;br&gt;E-value: 2.4e-211"  />
</g>
<g id="a1_0018"  >
<polygon locus_tag="DIJ69_RS32190" id="dummy-1_h1_10_18" points="429,90 507,90 512,85 507,80 429,80 429,90 " style="stroke-width:1; fill:#1515d8; stroke:black; " class="clusterblast-orf" description="&lt;b&gt;DIJ69_RS32190&lt;/b&gt;&lt;br&gt;Secreted glycosyl hydrolase&lt;br&gt;Location: 7125118 - 7129407&lt;br&gt;&lt;br&gt;&lt;b&gt;BlastP hit with cds23087_27317&lt;/b&gt;&lt;br&gt;Percentage identity: 96&lt;br&gt;Percentage coverage: 100&lt;br&gt;BLAST bit score: 2584&lt;br&gt;E-value: 0.0"  />
</g>
<g id="a1_0019"  >
<polygon locus_tag="DIJ69_RS32195" id="dummy-1_h1_10_19" points="515,90 529,90 534,85 529,80 515,80 515,90 " style="stroke-width:1; fill:#d8158a; stroke:black; " class="clusterblast-orf" description="&lt;b&gt;DIJ69_RS32195&lt;/b&gt;&lt;br&gt;LacI family DNA-binding transcriptional regulator&lt;br&gt;Location: 7129533 - 7130540&lt;br&gt;&lt;br&gt;&lt;b&gt;BlastP hit with cds27496_28450&lt;/b&gt;&lt;br&gt;Percentage identity: 99&lt;br&gt;Percentage coverage: 100&lt;br&gt;BLAST bit score: 618&lt;br&gt;E-value: 2.9e-175"  />
</g>
<g id="a1_0020"  >
<polygon locus_tag="DIJ69_RS32200" id="dummy-1_h1_10_20" points="536,90 537,90 542,85 537,80 536,80 536,90 " style="stroke-width:1; fill:#d8d815; stroke:black; " class="clusterblast-orf" description="&lt;b&gt;DIJ69_RS32200&lt;/b&gt;&lt;br&gt;hypothetical protein&lt;br&gt;Location: 7130621 - 7130938&lt;br&gt;&lt;br&gt;&lt;b&gt;BlastP hit with cds28530_28848&lt;/b&gt;&lt;br&gt;Percentage identity: 96&lt;br&gt;Percentage coverage: 100&lt;br&gt;BLAST bit score: 197&lt;br&gt;E-value: 7e-49"  />
</g>
<g id="a1_0021"  >
<polygon locus_tag="DIJ69_RS32205" id="dummy-1_h1_10_21" points="545,90 558,90 563,85 558,80 545,80 545,90 " style="stroke-width:1; fill:#15d88a; stroke:black; " class="clusterblast-orf" description="&lt;b&gt;DIJ69_RS32205&lt;/b&gt;&lt;br&gt;YihY/virulence factor BrkB family protein&lt;br&gt;Location: 7131076 - 7132008&lt;br&gt;&lt;br&gt;&lt;b&gt;BlastP hit with cds28984_29920&lt;/b&gt;&lt;br&gt;Percentage identity: 98&lt;br&gt;Percentage coverage: 99&lt;br&gt;BLAST bit score: 580&lt;br&gt;E-value: 8.7e-164"  />
</g>
<g id="a1_0022"  >
<polygon locus_tag="DIJ69_RS32210" id="dummy-1_h1_10_22" points="564,85 569,80 580,80 580,90 569,90 564,85 " style="stroke-width:1; fill:#3c15d8; stroke:black; " class="clusterblast-orf" description="&lt;b&gt;DIJ69_RS32210&lt;/b&gt;&lt;br&gt;peptidyl-Asp metallopeptidase&lt;br&gt;Location: 7132041 - 7132868&lt;br&gt;&lt;br&gt;&lt;b&gt;BlastP hit with cds29944_30772&lt;/b&gt;&lt;br&gt;Percentage identity: 96&lt;br&gt;Percentage coverage: 100&lt;br&gt;BLAST bit score: 524&lt;br&gt;E-value: 8.5e-147"  />
</g>
<g id="a1_0023"  >
<polygon locus_tag="DIJ69_RS32215" id="dummy-1_h1_10_23" points="584,90 596,90 601,85 596,80 584,80 584,90 " style="stroke-width:1; fill:#d81563; stroke:black; " class="clusterblast-orf" description="&lt;b&gt;DIJ69_RS32215&lt;/b&gt;&lt;br&gt;ABC transporter substrate-binding protein&lt;br&gt;Location: 7133083 - 7133955&lt;br&gt;&lt;br&gt;&lt;b&gt;BlastP hit with cds30977_31859&lt;/b&gt;&lt;br&gt;Percentage identity: 93&lt;br&gt;Percentage coverage: 99&lt;br&gt;BLAST bit score: 548&lt;br&gt;E-value: 3.5e-154"  />
</g>
<g id="a1_0024"  >
<polygon locus_tag="DIJ69_RS32220" id="dummy-1_h1_10_24" points="602,85 607,80 610,80 610,90 607,90 602,85 " style="stroke-width:1; fill:#b1d815; stroke:black; " class="clusterblast-orf" description="&lt;b&gt;DIJ69_RS32220&lt;/b&gt;&lt;br&gt;nuclear transport factor 2 family protein&lt;br&gt;Location: 7133984 - 7134409&lt;br&gt;&lt;br&gt;&lt;b&gt;BlastP hit with cds31888_32314&lt;/b&gt;&lt;br&gt;Percentage identity: 97&lt;br&gt;Percentage coverage: 100&lt;br&gt;BLAST bit score: 269&lt;br&gt;E-value: 2.5e-70"  />
</g>
<g id="a1_0025"  >
<polygon locus_tag="DIJ69_RS32225" id="dummy-1_h1_10_25" points="612,90 618,90 623,85 618,80 612,80 612,90 " style="stroke-width:1; fill:#15d8b1; stroke:black; " class="clusterblast-orf" description="&lt;b&gt;DIJ69_RS32225&lt;/b&gt;&lt;br&gt;PadR family transcriptional regulator&lt;br&gt;Location: 7134527 - 7135096&lt;br&gt;&lt;br&gt;&lt;b&gt;BlastP hit with cds32455_33028&lt;/b&gt;&lt;br&gt;Percentage identity: 94&lt;br&gt;Percentage coverage: 100&lt;br&gt;BLAST bit score: 351&lt;br&gt;E-value: 5.2e-95"  />
</g>
<g id="a1_0026"  >
<polygon locus_tag="DIJ69_RS32230" id="dummy-1_h1_10_26" points="625,90 632,90 637,85 632,80 625,80 625,90 " style="stroke-width:1; fill:#6315d8; stroke:black; " class="clusterblast-orf" description="&lt;b&gt;DIJ69_RS32230&lt;/b&gt;&lt;br&gt;helix-turn-helix transcriptional regulator&lt;br&gt;Location: 7135176 - 7135784&lt;br&gt;&lt;br&gt;&lt;b&gt;BlastP hit with cds33106_33715&lt;/b&gt;&lt;br&gt;Percentage identity: 96&lt;br&gt;Percentage coverage: 100&lt;br&gt;BLAST bit score: 375&lt;br&gt;E-value: 3.6e-102"  />
</g>
<g id="a1_0027"  >
<polygon locus_tag="DIJ69_RS32235" id="dummy-1_h1_10_27" points="637,90 661,90 666,85 661,80 637,80 637,90 " style="stroke-width:1; fill:#d8153c; stroke:black; " class="clusterblast-orf" description="&lt;b&gt;DIJ69_RS32235&lt;/b&gt;&lt;br&gt;MFS transporter&lt;br&gt;Location: 7135781 - 7137259&lt;br&gt;&lt;br&gt;&lt;b&gt;BlastP hit with cds33711_35145&lt;/b&gt;&lt;br&gt;Percentage identity: 91&lt;br&gt;Percentage coverage: 103&lt;br&gt;BLAST bit score: 753&lt;br&gt;E-value: 1.1e-215"  />
</g>
<g id="a1_0028"  >
<polygon locus_tag="DIJ69_RS32240" id="dummy-1_h1_10_28" points="665,90 678,90 683,85 678,80 665,80 665,90 " style="stroke-width:1; fill:#8ad815; stroke:black; " class="clusterblast-orf" description="&lt;b&gt;DIJ69_RS32240&lt;/b&gt;&lt;br&gt;carbohydrate kinase&lt;br&gt;Location: 7137243 - 7138175&lt;br&gt;&lt;br&gt;&lt;b&gt;BlastP hit with cds35128_36061&lt;/b&gt;&lt;br&gt;Percentage identity: 93&lt;br&gt;Percentage coverage: 100&lt;br&gt;BLAST bit score: 566&lt;br&gt;E-value: 2.2e-159"  />
</g>
<g id="a1_0029"  >
<polygon locus_tag="DIJ69_RS32245" id="dummy-1_h1_10_29" points="687,90 702,90 707,85 702,80 687,80 687,90 " style="stroke-width:1; fill:#15d8d8; stroke:black; " class="clusterblast-orf" description="&lt;b&gt;DIJ69_RS32245&lt;/b&gt;&lt;br&gt;beta-ketoacyl-ACP synthase 3&lt;br&gt;Location: 7138375 - 7139409&lt;br&gt;&lt;br&gt;&lt;b&gt;BlastP hit with cds36161_36482&lt;/b&gt;&lt;br&gt;Percentage identity: 93&lt;br&gt;Percentage coverage: 69&lt;br&gt;BLAST bit score: 138&lt;br&gt;E-value: 3e-31"  />
</g>
<g id="a1_0030"  >
<polygon locus_tag="DIJ69_RS32250" id="dummy-1_h1_10_30" points="707,90 727,90 732,85 727,80 707,80 707,90 " style="stroke-width:1; fill:white; stroke:black; " class="clusterblast-orf" description="&lt;b&gt;DIJ69_RS32250&lt;/b&gt;&lt;br&gt;beta-ketoacyl-[acyl-carrier-protein] synthase family protein&lt;br&gt;Location: 7139393 - 7140649"  />
</g>
<g id="a1_0031"  >
<polygon locus_tag="DIJ69_RS32255" id="dummy-1_h1_10_31" points="733,90 767,90 772,85 767,80 733,80 733,90 " style="stroke-width:1; fill:white; stroke:black; " class="clusterblast-orf" description="&lt;b&gt;DIJ69_RS32255&lt;/b&gt;&lt;br&gt;acyl-CoA oxidase&lt;br&gt;Location: 7140711 - 7142735"  />
</g>
<g id="a1_0032"  >
<polygon locus_tag="DIJ69_RS32260" id="dummy-1_h1_10_32" points="774,90 775,90 780,85 775,80 774,80 774,90 " style="stroke-width:1; fill:white; stroke:black; " class="clusterblast-orf" description="&lt;b&gt;DIJ69_RS32260&lt;/b&gt;&lt;br&gt;acyl carrier protein&lt;br&gt;Location: 7142830 - 7143105"  />
</g>
</svg>
