<svg xmlns:xlink="http://www.w3.org/1999/xlink" preserveAspectRatio="none" width="800" xmlns="http://www.w3.org/2000/svg" version="1.1" x="0" viewBox="0 0 800 230" height="230" y="0"  >
<g label="Query sequence" class="clusterblast-cluster"  >
<text x="5" y="20" class="clusterblast-acc"  >
Query sequence</text>
<line x2="778.0" style="stroke-width:1; stroke:grey; " y1="35" x1="10" y2="35"  />
<polygon locus_tag="cds1_652" id="dummy-1_q0_0_all" points="211,35 216,30 232,30 232,40 216,40 211,35 " style="stroke-width:1; fill:#d81515; stroke:black; " class="clusterblast-orf" description="&lt;b&gt;cds1_652&lt;/b&gt;&lt;br&gt;(2E,6E)-farnesyl diphosphate synthase (EC 2.5.1.10)&lt;br&gt;Location: 1 - 652"  />
<polygon locus_tag="cds648_2034" id="dummy-1_q1_0_all" points="232,35 237,30 276,30 276,40 237,40 232,35 " style="stroke-width:1; fill:#3cd815; stroke:black; " class="clusterblast-orf" description="&lt;b&gt;cds648_2034&lt;/b&gt;&lt;br&gt;Squalene/phytoene desaturase HopC&lt;br&gt;Location: 648 - 2034"  />
<polygon locus_tag="cds2152_3094" id="dummy-1_q2_0_all" points="279,35 284,30 309,30 309,40 284,40 279,35 " style="stroke-width:1; fill:#1563d8; stroke:black; " class="clusterblast-orf" description="&lt;b&gt;cds2152_3094&lt;/b&gt;&lt;br&gt;Phytoene synthase (EC 2.5.1.32)&lt;br&gt;Location: 2152 - 3094"  />
<polygon locus_tag="cds3102_4014" id="dummy-1_q3_0_all" points="310,35 315,30 339,30 339,40 315,40 310,35 " style="stroke-width:1; fill:#1563d8; stroke:black; " class="clusterblast-orf" description="&lt;b&gt;cds3102_4014&lt;/b&gt;&lt;br&gt;Squalene synthase (EC 2.5.1.21)&lt;br&gt;Location: 3102 - 4014"  />
<polygon locus_tag="cds4436_5222" id="dummy-1_q4_0_all" points="352,35 357,30 377,30 377,40 357,40 352,35 " style="stroke-width:1; fill:#b115d8; stroke:black; " class="clusterblast-orf" description="&lt;b&gt;cds4436_5222&lt;/b&gt;&lt;br&gt;ABC transporter, ATP-binding protein&lt;br&gt;Location: 4436 - 5222"  />
<polygon locus_tag="cds5214_6144" id="dummy-1_q5_0_all" points="377,35 382,30 407,30 407,40 382,40 377,35 " style="stroke-width:1; fill:#d88a15; stroke:black; " class="clusterblast-orf" description="&lt;b&gt;cds5214_6144&lt;/b&gt;&lt;br&gt;O-antigen export system, permease protein&lt;br&gt;Location: 5214 - 6144"  />
<polygon locus_tag="cds6245_7130" id="dummy-1_q6_0_all" points="410,35 415,30 438,30 438,40 415,40 410,35 " style="stroke-width:1; fill:#15d863; stroke:black; " class="clusterblast-orf" description="&lt;b&gt;cds6245_7130&lt;/b&gt;&lt;br&gt;Putative glycosyltransferase&lt;br&gt;Location: 6245 - 7130"  />
<polygon locus_tag="cds7126_7906" id="dummy-1_q7_0_all" points="438,35 443,30 463,30 463,40 443,40 438,35 " style="stroke-width:1; fill:#3c15d8; stroke:black; " class="clusterblast-orf" description="&lt;b&gt;cds7126_7906&lt;/b&gt;&lt;br&gt;CDP-alcohol phosphatidyltransferase family protein&lt;br&gt;Location: 7126 - 7906"  />
<polygon locus_tag="cds7883_8945" id="dummy-1_q8_0_all" points="462,35 467,30 496,30 496,40 467,40 462,35 " style="stroke-width:1; fill:#d8158a; stroke:black; " class="clusterblast-orf" description="&lt;b&gt;cds7883_8945&lt;/b&gt;&lt;br&gt;Glycerol-1-phosphate dehydrogenase [NAD(P)+] (EC 1.1.1.261)&lt;br&gt;Location: 7883 - 8945"  />
<polygon locus_tag="cds8932_9670" id="dummy-1_q9_0_all" points="495,35 500,30 519,30 519,40 500,40 495,35 " style="stroke-width:1; fill:#b1d815; stroke:black; " class="clusterblast-orf" description="&lt;b&gt;cds8932_9670&lt;/b&gt;&lt;br&gt;putative nucleotide sugar-1-phosphate transferase&lt;br&gt;Location: 8932 - 9670"  />
<polygon locus_tag="cds9666_11232" id="dummy-1_q10_0_all" points="519,35 524,30 569,30 569,40 524,40 519,35 " style="stroke-width:1; fill:#15d8d8; stroke:black; " class="clusterblast-orf" description="&lt;b&gt;cds9666_11232&lt;/b&gt;&lt;br&gt;hypothetical protein&lt;br&gt;Location: 9666 - 11232"  />
</g>
<g label="NZ_KQ947986" class="clusterblast-cluster" description="NZ_KQ947986 (303882-330561): Streptomyces curacoi strain DSM 40107 PRJNA29921... (50% of genes show similarity), terpene"  >
<text x="5" y="70" class="clusterblast-acc"  >
<a xlink:href="https://antismash-db.secondarymetabolites.org/area.html?record=NZ_KQ947986&amp;start=303882&amp;end=330561" target="_blank">NZ_KQ947986 (303882-330561)</a>: Streptomyces curacoi strain DSM 40107 PRJNA29921... (50% of genes show similarity), terpene</text>
<line x2="778.0" style="stroke-width:1; stroke:grey; " y1="85" x1="10" y2="85"  />
</g>
<g id="a1_000"  >
<polygon locus_tag="AQI70_RS11130" id="dummy-1_h1_9_0" points="0,90 20,90 25,85 20,80 0,80 0,90 " style="stroke-width:1; fill:white; stroke:black; " class="clusterblast-orf" description="&lt;b&gt;AQI70_RS11130&lt;/b&gt;&lt;br&gt;tyrosine-protein phosphatase&lt;br&gt;Location: 305883 - 306680"  />
</g>
<g id="a1_001"  >
<polygon locus_tag="AQI70_RS11135" id="dummy-1_h1_9_1" points="29,85 32,80 32,90 29,85 " style="stroke-width:1; fill:white; stroke:black; " class="clusterblast-orf" description="&lt;b&gt;AQI70_RS11135&lt;/b&gt;&lt;br&gt;hypothetical protein&lt;br&gt;Location: 306797 - 306916"  />
</g>
<g id="a1_002"  >
<polygon locus_tag="AQI70_RS11140" id="dummy-1_h1_9_2" points="32,85 37,80 51,80 51,90 37,90 32,85 " style="stroke-width:1; fill:white; stroke:black; " class="clusterblast-orf" description="&lt;b&gt;AQI70_RS11140&lt;/b&gt;&lt;br&gt;helix-turn-helix domain-containing protein&lt;br&gt;Location: 306913 - 307491"  />
</g>
<g id="a1_003"  >
<polygon locus_tag="AQI70_RS11145" id="dummy-1_h1_9_3" points="56,85 61,80 100,80 100,90 61,90 56,85 " style="stroke-width:1; fill:white; stroke:black; " class="clusterblast-orf" description="&lt;b&gt;AQI70_RS11145&lt;/b&gt;&lt;br&gt;aspartate aminotransferase family protein&lt;br&gt;Location: 307662 - 309047"  />
</g>
<g id="a1_004"  >
<polygon locus_tag="AQI70_RS11150" id="dummy-1_h1_9_4" points="100,85 105,80 163,80 163,90 105,90 100,85 " style="stroke-width:1; fill:white; stroke:black; " class="clusterblast-orf" description="&lt;b&gt;AQI70_RS11150&lt;/b&gt;&lt;br&gt;1-deoxy-D-xylulose-5-phosphate synthase&lt;br&gt;Location: 309044 - 311002"  />
</g>
<g id="a1_005"  >
<polygon locus_tag="AQI70_RS11155" id="dummy-1_h1_9_5" points="164,85 169,80 201,80 201,90 169,90 164,85 " style="stroke-width:1; fill:white; stroke:black; " class="clusterblast-orf" description="&lt;b&gt;AQI70_RS11155&lt;/b&gt;&lt;br&gt;flavodoxin-dependent (E)-4-hydroxy-3-methylbut-2-enyl-diphosphate synthase&lt;br&gt;Location: 311034 - 312209"  />
</g>
<g id="a1_006"  >
<polygon locus_tag="AQI70_RS11160" id="dummy-1_h1_9_6" points="201,85 206,80 234,80 234,90 206,90 201,85 " style="stroke-width:1; fill:white; stroke:black; " class="clusterblast-orf" description="&lt;b&gt;AQI70_RS11160&lt;/b&gt;&lt;br&gt;adenosyl-hopene transferase HpnH&lt;br&gt;Location: 312214 - 313236"  />
</g>
<g id="a1_007"  >
<polygon locus_tag="AQI70_RS11165" id="dummy-1_h1_9_7" points="234,85 239,80 254,80 254,90 239,90 234,85 " style="stroke-width:1; fill:white; stroke:black; " class="clusterblast-orf" description="&lt;b&gt;AQI70_RS11165&lt;/b&gt;&lt;br&gt;1-hydroxy-2-methyl-2-butenyl 4-diphosphate reductase&lt;br&gt;Location: 313242 - 313883"  />
</g>
<g id="a1_008"  >
<polygon locus_tag="AQI70_RS11170" id="dummy-1_h1_9_8" points="254,85 259,80 318,80 318,90 259,90 254,85 " style="stroke-width:1; fill:white; stroke:black; " class="clusterblast-orf" description="&lt;b&gt;AQI70_RS11170&lt;/b&gt;&lt;br&gt;squalene--hopene cyclase&lt;br&gt;Location: 313883 - 315871"  />
</g>
<g id="a1_009"  >
<polygon locus_tag="AQI70_RS11175" id="dummy-1_h1_9_9" points="322,85 327,80 358,80 358,90 327,90 322,85 " style="stroke-width:1; fill:#d81515; stroke:black; " class="clusterblast-orf" description="&lt;b&gt;AQI70_RS11175&lt;/b&gt;&lt;br&gt;polyprenyl synthetase family protein&lt;br&gt;Location: 316012 - 317148&lt;br&gt;&lt;br&gt;&lt;b&gt;BlastP hit with cds1_652&lt;/b&gt;&lt;br&gt;Percentage identity: 81&lt;br&gt;Percentage coverage: 74&lt;br&gt;BLAST bit score: 252&lt;br&gt;E-value: 2.9e-65"  />
</g>
<g id="a1_0010"  >
<polygon locus_tag="AQI70_RS11180" id="dummy-1_h1_9_10" points="358,85 363,80 404,80 404,90 363,90 358,85 " style="stroke-width:1; fill:#3cd815; stroke:black; " class="clusterblast-orf" description="&lt;b&gt;AQI70_RS11180&lt;/b&gt;&lt;br&gt;FAD-dependent oxidoreductase&lt;br&gt;Location: 317148 - 318575&lt;br&gt;&lt;br&gt;&lt;b&gt;BlastP hit with cds648_2034&lt;/b&gt;&lt;br&gt;Percentage identity: 76&lt;br&gt;Percentage coverage: 98&lt;br&gt;BLAST bit score: 659&lt;br&gt;E-value: 2.9e-187"  />
</g>
<g id="a1_0011"  >
<polygon locus_tag="AQI70_RS11185" id="dummy-1_h1_9_11" points="408,85 413,80 439,80 439,90 413,90 408,85 " style="stroke-width:1; fill:#1563d8; stroke:black; " class="clusterblast-orf" description="&lt;b&gt;AQI70_RS11185&lt;/b&gt;&lt;br&gt;presqualene diphosphate synthase HpnD&lt;br&gt;Location: 318715 - 319665&lt;br&gt;&lt;br&gt;&lt;b&gt;BlastP hit with cds2152_3094&lt;/b&gt;&lt;br&gt;Percentage identity: 85&lt;br&gt;Percentage coverage: 98&lt;br&gt;BLAST bit score: 513&lt;br&gt;E-value: 1.7e-143"  />
</g>
<g id="a1_0012"  >
<polygon locus_tag="AQI70_RS11190" id="dummy-1_h1_9_12" points="438,85 443,80 467,80 467,90 443,90 438,85 " style="stroke-width:1; fill:#1563d8; stroke:black; " class="clusterblast-orf" description="&lt;b&gt;AQI70_RS11190&lt;/b&gt;&lt;br&gt;squalene synthase HpnC&lt;br&gt;Location: 319662 - 320561&lt;br&gt;&lt;br&gt;&lt;b&gt;BlastP hit with cds2152_3094&lt;/b&gt;&lt;br&gt;Percentage identity: 32&lt;br&gt;Percentage coverage: 84&lt;br&gt;BLAST bit score: 98&lt;br&gt;E-value: 1.3e-18&lt;br&gt;&lt;br&gt;&lt;b&gt;BlastP hit with cds3102_4014&lt;/b&gt;&lt;br&gt;Percentage identity: 79&lt;br&gt;Percentage coverage: 94&lt;br&gt;BLAST bit score: 430&lt;br&gt;E-value: 1.9e-118"  />
</g>
<g id="a1_0013"  >
<polygon locus_tag="AQI70_RS11195" id="dummy-1_h1_9_13" points="479,85 484,80 504,80 504,90 484,90 479,85 " style="stroke-width:1; fill:#b115d8; stroke:black; " class="clusterblast-orf" description="&lt;b&gt;AQI70_RS11195&lt;/b&gt;&lt;br&gt;ABC transporter ATP-binding protein&lt;br&gt;Location: 320948 - 321730&lt;br&gt;&lt;br&gt;&lt;b&gt;BlastP hit with cds4436_5222&lt;/b&gt;&lt;br&gt;Percentage identity: 87&lt;br&gt;Percentage coverage: 97&lt;br&gt;BLAST bit score: 431&lt;br&gt;E-value: 5.5e-119"  />
</g>
<g id="a1_0014"  >
<polygon locus_tag="AQI70_RS11200" id="dummy-1_h1_9_14" points="504,85 509,80 534,80 534,90 509,90 504,85 " style="stroke-width:1; fill:#d88a15; stroke:black; " class="clusterblast-orf" description="&lt;b&gt;AQI70_RS11200&lt;/b&gt;&lt;br&gt;ABC transporter permease&lt;br&gt;Location: 321723 - 322658&lt;br&gt;&lt;br&gt;&lt;b&gt;BlastP hit with cds5214_6144&lt;/b&gt;&lt;br&gt;Percentage identity: 80&lt;br&gt;Percentage coverage: 101&lt;br&gt;BLAST bit score: 504&lt;br&gt;E-value: 6e-141"  />
</g>
<g id="a1_0015"  >
<polygon locus_tag="AQI70_RS11205" id="dummy-1_h1_9_15" points="537,85 542,80 566,80 566,90 542,90 537,85 " style="stroke-width:1; fill:#15d863; stroke:black; " class="clusterblast-orf" description="&lt;b&gt;AQI70_RS11205&lt;/b&gt;&lt;br&gt;glycosyltransferase family 2 protein&lt;br&gt;Location: 322755 - 323651&lt;br&gt;&lt;br&gt;&lt;b&gt;BlastP hit with cds6245_7130&lt;/b&gt;&lt;br&gt;Percentage identity: 87&lt;br&gt;Percentage coverage: 99&lt;br&gt;BLAST bit score: 533&lt;br&gt;E-value: 1.2e-149"  />
</g>
<g id="a1_0016"  >
<polygon locus_tag="AQI70_RS11210" id="dummy-1_h1_9_16" points="566,85 571,80 591,80 591,90 571,90 566,85 " style="stroke-width:1; fill:#3c15d8; stroke:black; " class="clusterblast-orf" description="&lt;b&gt;AQI70_RS11210&lt;/b&gt;&lt;br&gt;CDP-alcohol phosphatidyltransferase family protein&lt;br&gt;Location: 323657 - 324436&lt;br&gt;&lt;br&gt;&lt;b&gt;BlastP hit with cds7126_7906&lt;/b&gt;&lt;br&gt;Percentage identity: 87&lt;br&gt;Percentage coverage: 100&lt;br&gt;BLAST bit score: 431&lt;br&gt;E-value: 7.1e-119"  />
</g>
<g id="a1_0017"  >
<polygon locus_tag="AQI70_RS11215" id="dummy-1_h1_9_17" points="590,85 595,80 624,80 624,90 595,90 590,85 " style="stroke-width:1; fill:#d8158a; stroke:black; " class="clusterblast-orf" description="&lt;b&gt;AQI70_RS11215&lt;/b&gt;&lt;br&gt;iron-containing alcohol dehydrogenase family protein&lt;br&gt;Location: 324414 - 325475&lt;br&gt;&lt;br&gt;&lt;b&gt;BlastP hit with cds7883_8945&lt;/b&gt;&lt;br&gt;Percentage identity: 78&lt;br&gt;Percentage coverage: 100&lt;br&gt;BLAST bit score: 559&lt;br&gt;E-value: 2.4e-157"  />
</g>
<g id="a1_0018"  >
<polygon locus_tag="AQI70_RS11220" id="dummy-1_h1_9_18" points="623,85 628,80 647,80 647,90 628,90 623,85 " style="stroke-width:1; fill:#b1d815; stroke:black; " class="clusterblast-orf" description="&lt;b&gt;AQI70_RS11220&lt;/b&gt;&lt;br&gt;phosphocholine cytidylyltransferase family protein&lt;br&gt;Location: 325463 - 326215&lt;br&gt;&lt;br&gt;&lt;b&gt;BlastP hit with cds8932_9670&lt;/b&gt;&lt;br&gt;Percentage identity: 80&lt;br&gt;Percentage coverage: 102&lt;br&gt;BLAST bit score: 396&lt;br&gt;E-value: 2.4e-108"  />
</g>
<g id="a1_0019"  >
<polygon locus_tag="AQI70_RS11225" id="dummy-1_h1_9_19" points="647,85 652,80 705,80 705,90 652,90 647,85 " style="stroke-width:1; fill:#15d8d8; stroke:black; " class="clusterblast-orf" description="&lt;b&gt;AQI70_RS11225&lt;/b&gt;&lt;br&gt;CDP-alcohol phosphatidyltransferase family protein&lt;br&gt;Location: 326212 - 328017&lt;br&gt;&lt;br&gt;&lt;b&gt;BlastP hit with cds9666_11232&lt;/b&gt;&lt;br&gt;Percentage identity: 76&lt;br&gt;Percentage coverage: 101&lt;br&gt;BLAST bit score: 710&lt;br&gt;E-value: 1.2e-202"  />
</g>
<g id="a1_0020"  >
<polygon locus_tag="AQI70_RS11230" id="dummy-1_h1_9_20" points="714,90 740,90 745,85 740,80 714,80 714,90 " style="stroke-width:1; fill:white; stroke:black; " class="clusterblast-orf" description="&lt;b&gt;AQI70_RS11230&lt;/b&gt;&lt;br&gt;UDP-glucose 4-epimerase GalE&lt;br&gt;Location: 328299 - 329270"  />
</g>
<g id="a1_0021"  >
<polygon locus_tag="AQI70_RS11235" id="dummy-1_h1_9_21" points="750,90 775,90 780,85 775,80 750,80 750,90 " style="stroke-width:1; fill:white; stroke:black; " class="clusterblast-orf" description="&lt;b&gt;AQI70_RS11235&lt;/b&gt;&lt;br&gt;cation transporter&lt;br&gt;Location: 329427 - 330368"  />
</g>
</svg>
