<svg xmlns:xlink="http://www.w3.org/1999/xlink" preserveAspectRatio="none" width="800" xmlns="http://www.w3.org/2000/svg" version="1.1" x="0" viewBox="0 0 800 230" height="230" y="0"  >
<g label="Query sequence" class="clusterblast-cluster"  >
<text x="5" y="20" class="clusterblast-acc"  >
Query sequence</text>
<line x2="778.0" style="stroke-width:1; stroke:grey; " y1="35" x1="10" y2="35"  />
<polygon locus_tag="cds157_676" id="dummy-1_q0_0_all" points="250,35 255,30 258,30 258,40 255,40 250,35 " style="stroke-width:1; fill:#d81515; stroke:black; " class="clusterblast-orf" description="&lt;b&gt;cds157_676&lt;/b&gt;&lt;br&gt;hypothetical protein&lt;br&gt;Location: 157 - 676"  />
<polygon locus_tag="cds724_12910" id="dummy-1_q1_0_all" points="258,35 263,30 443,30 443,40 263,40 258,35 " style="stroke-width:1; fill:#77d815; stroke:black; " class="clusterblast-orf" description="&lt;b&gt;cds724_12910&lt;/b&gt;&lt;br&gt;Polyketide synthase modules and related proteins&lt;br&gt;Location: 724 - 12910"  />
<polygon locus_tag="cds13071_13617" id="dummy-1_q2_0_all" points="446,40 449,40 454,35 449,30 446,30 446,40 " style="stroke-width:1; fill:#15d8d8; stroke:black; " class="clusterblast-orf" description="&lt;b&gt;cds13071_13617&lt;/b&gt;&lt;br&gt;hypothetical protein&lt;br&gt;Location: 13071 - 13617"  />
<polygon locus_tag="cds13726_14056" id="dummy-1_q3_0_all" points="456,35 461,30 461,30 461,40 461,40 456,35 " style="stroke-width:1; fill:#7715d8; stroke:black; " class="clusterblast-orf" description="&lt;b&gt;cds13726_14056&lt;/b&gt;&lt;br&gt;Heme-degrading protein MhuD (no EC)&lt;br&gt;Location: 13726 - 14056"  />
<polygon locus_tag="cds14572_15391" id="dummy-1_q4_0_all" points="468,40 476,40 481,35 476,30 468,30 468,40 " style="stroke-width:1; fill:#d8a715; stroke:black; " class="clusterblast-orf" description="&lt;b&gt;cds14572_15391&lt;/b&gt;&lt;br&gt;Teicoplanin resistance protein VanJ, possibly via undecaprenol-phosphate recycling&lt;br&gt;Location: 14572 - 15391"  />
<polygon locus_tag="cds15387_15507" id="dummy-1_q5_0_all" points="481,40 483,35 481,30 481,40 " style="stroke-width:1; fill:white; stroke:black; " class="clusterblast-orf" description="&lt;b&gt;cds15387_15507&lt;/b&gt;&lt;br&gt;hypothetical protein&lt;br&gt;Location: 15387 - 15507"  />
<polygon locus_tag="cds15673_16783" id="dummy-1_q6_0_all" points="485,40 497,40 502,35 497,30 485,30 485,40 " style="stroke-width:1; fill:#15d846; stroke:black; " class="clusterblast-orf" description="&lt;b&gt;cds15673_16783&lt;/b&gt;&lt;br&gt;ABC transporter, permease protein (cluster 8, B12/iron complex)&lt;br&gt;Location: 15673 - 16783"  />
<polygon locus_tag="cds16782_17565" id="dummy-1_q7_0_all" points="502,40 509,40 514,35 509,30 502,30 502,40 " style="stroke-width:1; fill:#1546d8; stroke:black; " class="clusterblast-orf" description="&lt;b&gt;cds16782_17565&lt;/b&gt;&lt;br&gt;Iron ABC transporter, ATP-binding protein&lt;br&gt;Location: 16782 - 17565"  />
<polygon locus_tag="cds17579_18602" id="dummy-1_q8_0_all" points="514,40 525,40 530,35 525,30 514,30 514,40 " style="stroke-width:1; fill:#d815a7; stroke:black; " class="clusterblast-orf" description="&lt;b&gt;cds17579_18602&lt;/b&gt;&lt;br&gt;Vitamin B12 ABC transporter, substrate-binding protein BtuF; ABC transporter, substrate-binding protein (cluster 8, B12/iron complex)&lt;br&gt;Location: 17579 - 18602"  />
</g>
<g label="NC_010572" class="clusterblast-cluster" description="NC_010572 (&lt;275248-326653): Streptomyces griseus subsp. griseus NBRC 13350, c... (21% of genes show similarity), NRPS,T1PKS"  >
<text x="5" y="70" class="clusterblast-acc"  >
<a xlink:href="https://antismash-db.secondarymetabolites.org/area.html?record=NC_010572&amp;start=<275248&amp;end=326653" target="_blank">NC_010572 (<275248-326653)</a>: Streptomyces griseus subsp. griseus NBRC 13350, c... (21% of genes show similarity), NRPS,T1PKS</text>
<line x2="778.0" style="stroke-width:1; stroke:grey; " y1="85" x1="10" y2="85"  />
</g>
<g id="a1_000"  >
<polygon locus_tag="SGR_RS01360" id="dummy-1_h1_8_0" points="0,85 5,80 7,80 7,90 5,90 0,85 " style="stroke-width:1; fill:white; stroke:black; " class="clusterblast-orf" description="&lt;b&gt;SGR_RS01360&lt;/b&gt;&lt;br&gt;DinB family protein&lt;br&gt;Location: 326653 - 326141"  />
</g>
<g id="a1_001"  >
<polygon locus_tag="SGR_RS01355" id="dummy-1_h1_8_1" points="9,90 17,90 22,85 17,80 9,80 9,90 " style="stroke-width:1; fill:white; stroke:black; " class="clusterblast-orf" description="&lt;b&gt;SGR_RS01355&lt;/b&gt;&lt;br&gt;aminoglycoside N-acetyltransferase AAC(3)-Xa&lt;br&gt;Location: 326047 - 325193"  />
</g>
<g id="a1_002"  >
<polygon locus_tag="SGR_RS01350" id="dummy-1_h1_8_2" points="22,85 27,80 59,80 59,90 27,90 22,85 " style="stroke-width:1; fill:white; stroke:black; " class="clusterblast-orf" description="&lt;b&gt;SGR_RS01350&lt;/b&gt;&lt;br&gt;polysaccharide lyase 8 family protein&lt;br&gt;Location: 325170 - 322753"  />
</g>
<g id="a1_003"  >
<polygon locus_tag="SGR_RS01345" id="dummy-1_h1_8_3" points="65,90 77,90 82,85 77,80 65,80 65,90 " style="stroke-width:1; fill:white; stroke:black; " class="clusterblast-orf" description="&lt;b&gt;SGR_RS01345&lt;/b&gt;&lt;br&gt;DeoR/GlpR family transcriptional regulator&lt;br&gt;Location: 322350 - 321214"  />
</g>
<g id="a1_004"  >
<polygon locus_tag="SGR_RS01340" id="dummy-1_h1_8_4" points="85,90 100,90 105,85 100,80 85,80 85,90 " style="stroke-width:1; fill:white; stroke:black; " class="clusterblast-orf" description="&lt;b&gt;SGR_RS01340&lt;/b&gt;&lt;br&gt;sugar ABC transporter substrate-binding protein&lt;br&gt;Location: 320990 - 319683"  />
</g>
<g id="a1_005"  >
<polygon locus_tag="SGR_RS01335" id="dummy-1_h1_8_5" points="107,90 117,90 122,85 117,80 107,80 107,90 " style="stroke-width:1; fill:white; stroke:black; " class="clusterblast-orf" description="&lt;b&gt;SGR_RS01335&lt;/b&gt;&lt;br&gt;sugar ABC transporter permease&lt;br&gt;Location: 319599 - 318589"  />
</g>
<g id="a1_006"  >
<polygon locus_tag="SGR_RS01330" id="dummy-1_h1_8_6" points="122,90 131,90 136,85 131,80 122,80 122,90 " style="stroke-width:1; fill:white; stroke:black; " class="clusterblast-orf" description="&lt;b&gt;SGR_RS01330&lt;/b&gt;&lt;br&gt;carbohydrate ABC transporter permease&lt;br&gt;Location: 318592 - 317672"  />
</g>
<g id="a1_007"  >
<polygon locus_tag="SGR_RS01325" id="dummy-1_h1_8_7" points="136,90 146,90 151,85 146,80 136,80 136,90 " style="stroke-width:1; fill:white; stroke:black; " class="clusterblast-orf" description="&lt;b&gt;SGR_RS01325&lt;/b&gt;&lt;br&gt;hydroxyacid dehydrogenase&lt;br&gt;Location: 317675 - 316638"  />
</g>
<g id="a1_008"  >
<polygon locus_tag="SGR_RS01320" id="dummy-1_h1_8_8" points="153,85 158,80 166,80 166,90 158,90 153,85 " style="stroke-width:1; fill:white; stroke:black; " class="clusterblast-orf" description="&lt;b&gt;SGR_RS01320&lt;/b&gt;&lt;br&gt;class II fructose-bisphosphate aldolase family protein&lt;br&gt;Location: 316564 - 315695"  />
</g>
<g id="a1_009"  >
<polygon locus_tag="SGR_RS01315" id="dummy-1_h1_8_9" points="167,85 172,80 180,80 180,90 172,90 167,85 " style="stroke-width:1; fill:white; stroke:black; " class="clusterblast-orf" description="&lt;b&gt;SGR_RS01315&lt;/b&gt;&lt;br&gt;SIS domain-containing protein&lt;br&gt;Location: 315645 - 314758"  />
</g>
<g id="a1_0010"  >
<polygon locus_tag="SGR_RS01310" id="dummy-1_h1_8_10" points="183,85 188,80 226,80 226,90 188,90 183,85 " style="stroke-width:1; fill:white; stroke:black; " class="clusterblast-orf" description="&lt;b&gt;SGR_RS01310&lt;/b&gt;&lt;br&gt;hypothetical protein&lt;br&gt;Location: 314568 - 311710"  />
</g>
<g id="a1_0011"  >
<polygon locus_tag="SGR_RS01305" id="dummy-1_h1_8_11" points="226,85 231,80 243,80 243,90 231,90 226,85 " style="stroke-width:1; fill:white; stroke:black; " class="clusterblast-orf" description="&lt;b&gt;SGR_RS01305&lt;/b&gt;&lt;br&gt;AAA family ATPase&lt;br&gt;Location: 311713 - 310583"  />
</g>
<g id="a1_0012"  >
<polygon locus_tag="SGR_RS01300" id="dummy-1_h1_8_12" points="245,85 250,80 266,80 266,90 250,90 245,85 " style="stroke-width:1; fill:white; stroke:black; " class="clusterblast-orf" description="&lt;b&gt;SGR_RS01300&lt;/b&gt;&lt;br&gt;VWA domain-containing protein&lt;br&gt;Location: 310479 - 309088"  />
</g>
<g id="a1_0013"  >
<polygon locus_tag="SGR_RS01295" id="dummy-1_h1_8_13" points="266,85 271,80 288,80 288,90 271,90 266,85 " style="stroke-width:1; fill:white; stroke:black; " class="clusterblast-orf" description="&lt;b&gt;SGR_RS01295&lt;/b&gt;&lt;br&gt;hypothetical protein&lt;br&gt;Location: 309091 - 307658"  />
</g>
<g id="a1_0014"  >
<polygon locus_tag="SGR_RS01290" id="dummy-1_h1_8_14" points="287,85 292,80 295,80 295,90 292,90 287,85 " style="stroke-width:1; fill:#d81515; stroke:black; " class="clusterblast-orf" description="&lt;b&gt;SGR_RS01290&lt;/b&gt;&lt;br&gt;hypothetical protein&lt;br&gt;Location: 307688 - 307185&lt;br&gt;&lt;br&gt;&lt;b&gt;BlastP hit with cds157_676&lt;/b&gt;&lt;br&gt;Percentage identity: 89&lt;br&gt;Percentage coverage: 97&lt;br&gt;BLAST bit score: 294&lt;br&gt;E-value: 5.3e-78"  />
</g>
<g id="a1_0015"  >
<polygon locus_tag="SGR_RS01285" id="dummy-1_h1_8_15" points="297,85 302,80 488,80 488,90 302,90 297,85 " style="stroke-width:1; fill:#77d815; stroke:black; " class="clusterblast-orf" description="&lt;b&gt;SGR_RS01285&lt;/b&gt;&lt;br&gt;hybrid non-ribosomal peptide synthetase/type I polyketide synthase&lt;br&gt;Location: 307047 - 294490&lt;br&gt;&lt;br&gt;&lt;b&gt;BlastP hit with cds724_12910&lt;/b&gt;&lt;br&gt;Percentage identity: 77&lt;br&gt;Percentage coverage: 104&lt;br&gt;BLAST bit score: 5989&lt;br&gt;E-value: 0.0"  />
</g>
<g id="a1_0016"  >
<polygon locus_tag="SGR_RS01280" id="dummy-1_h1_8_16" points="490,90 493,90 498,85 493,80 490,80 490,90 " style="stroke-width:1; fill:#15d8d8; stroke:black; " class="clusterblast-orf" description="&lt;b&gt;SGR_RS01280&lt;/b&gt;&lt;br&gt;kinase&lt;br&gt;Location: 294334 - 293789&lt;br&gt;&lt;br&gt;&lt;b&gt;BlastP hit with cds13071_13617&lt;/b&gt;&lt;br&gt;Percentage identity: 91&lt;br&gt;Percentage coverage: 100&lt;br&gt;BLAST bit score: 327&lt;br&gt;E-value: 1e-87"  />
</g>
<g id="a1_0017"  >
<polygon locus_tag="SGR_RS01275" id="dummy-1_h1_8_17" points="500,85 505,80 505,80 505,90 505,90 500,85 " style="stroke-width:1; fill:#7715d8; stroke:black; " class="clusterblast-orf" description="&lt;b&gt;SGR_RS01275&lt;/b&gt;&lt;br&gt;antibiotic biosynthesis monooxygenase&lt;br&gt;Location: 293673 - 293347&lt;br&gt;&lt;br&gt;&lt;b&gt;BlastP hit with cds13726_14056&lt;/b&gt;&lt;br&gt;Percentage identity: 96&lt;br&gt;Percentage coverage: 99&lt;br&gt;BLAST bit score: 208&lt;br&gt;E-value: 4.1e-52"  />
</g>
<g id="a1_0018"  >
<polygon locus_tag="SGR_RS01270" id="dummy-1_h1_8_18" points="505,85 510,80 522,80 522,90 510,90 505,85 " style="stroke-width:1; fill:white; stroke:black; " class="clusterblast-orf" description="&lt;b&gt;SGR_RS01270&lt;/b&gt;&lt;br&gt;HAMP domain-containing histidine kinase&lt;br&gt;Location: 293350 - 292244"  />
</g>
<g id="a1_0019"  >
<polygon locus_tag="SGR_RS01265" id="dummy-1_h1_8_19" points="524,85 529,80 535,80 535,90 529,90 524,85 " style="stroke-width:1; fill:white; stroke:black; " class="clusterblast-orf" description="&lt;b&gt;SGR_RS01265&lt;/b&gt;&lt;br&gt;response regulator transcription factor&lt;br&gt;Location: 292059 - 291373"  />
</g>
<g id="a1_0020"  >
<polygon locus_tag="SGR_RS01260" id="dummy-1_h1_8_20" points="538,90 547,90 552,85 547,80 538,80 538,90 " style="stroke-width:1; fill:#d8a715; stroke:black; " class="clusterblast-orf" description="&lt;b&gt;SGR_RS01260&lt;/b&gt;&lt;br&gt;endonuclease/exonuclease/phosphatase family protein&lt;br&gt;Location: 291172 - 290246&lt;br&gt;&lt;br&gt;&lt;b&gt;BlastP hit with cds14572_15391&lt;/b&gt;&lt;br&gt;Percentage identity: 83&lt;br&gt;Percentage coverage: 100&lt;br&gt;BLAST bit score: 447&lt;br&gt;E-value: 1e-123"  />
</g>
<g id="a1_0021"  >
<polygon locus_tag="SGR_RS01255" id="dummy-1_h1_8_21" points="557,90 569,90 574,85 569,80 557,80 557,90 " style="stroke-width:1; fill:#15d846; stroke:black; " class="clusterblast-orf" description="&lt;b&gt;SGR_RS01255&lt;/b&gt;&lt;br&gt;iron ABC transporter permease&lt;br&gt;Location: 289923 - 288814&lt;br&gt;&lt;br&gt;&lt;b&gt;BlastP hit with cds15673_16783&lt;/b&gt;&lt;br&gt;Percentage identity: 95&lt;br&gt;Percentage coverage: 100&lt;br&gt;BLAST bit score: 635&lt;br&gt;E-value: 2.7e-180"  />
</g>
<g id="a1_0022"  >
<polygon locus_tag="SGR_RS01250" id="dummy-1_h1_8_22" points="574,90 581,90 586,85 581,80 574,80 574,90 " style="stroke-width:1; fill:#1546d8; stroke:black; " class="clusterblast-orf" description="&lt;b&gt;SGR_RS01250&lt;/b&gt;&lt;br&gt;ABC transporter ATP-binding protein&lt;br&gt;Location: 288814 - 288032&lt;br&gt;&lt;br&gt;&lt;b&gt;BlastP hit with cds16782_17565&lt;/b&gt;&lt;br&gt;Percentage identity: 94&lt;br&gt;Percentage coverage: 100&lt;br&gt;BLAST bit score: 477&lt;br&gt;E-value: 1.1e-132"  />
</g>
<g id="a1_0023"  >
<polygon locus_tag="SGR_RS01245" id="dummy-1_h1_8_23" points="586,90 596,90 601,85 596,80 586,80 586,90 " style="stroke-width:1; fill:#d815a7; stroke:black; " class="clusterblast-orf" description="&lt;b&gt;SGR_RS01245&lt;/b&gt;&lt;br&gt;ABC transporter substrate-binding protein&lt;br&gt;Location: 288015 - 286993&lt;br&gt;&lt;br&gt;&lt;b&gt;BlastP hit with cds17579_18602&lt;/b&gt;&lt;br&gt;Percentage identity: 92&lt;br&gt;Percentage coverage: 100&lt;br&gt;BLAST bit score: 647&lt;br&gt;E-value: 8.3e-184"  />
</g>
<g id="a1_0024"  >
<polygon locus_tag="SGR_RS01240" id="dummy-1_h1_8_24" points="602,85 607,80 615,80 615,90 607,90 602,85 " style="stroke-width:1; fill:white; stroke:black; " class="clusterblast-orf" description="&lt;b&gt;SGR_RS01240&lt;/b&gt;&lt;br&gt;NAD-dependent protein deacetylase&lt;br&gt;Location: 286955 - 286065"  />
</g>
<g id="a1_0025"  >
<polygon locus_tag="SGR_RS01235" id="dummy-1_h1_8_25" points="620,90 623,90 628,85 623,80 620,80 620,90 " style="stroke-width:1; fill:white; stroke:black; " class="clusterblast-orf" description="&lt;b&gt;SGR_RS01235&lt;/b&gt;&lt;br&gt;snapalysin family zinc-dependent metalloprotease&lt;br&gt;Location: 285786 - 285208"  />
</g>
<g id="a1_0026"  >
<polygon locus_tag="SGR_RS01230" id="dummy-1_h1_8_26" points="630,85 635,80 648,80 648,90 635,90 630,85 " style="stroke-width:1; fill:white; stroke:black; " class="clusterblast-orf" description="&lt;b&gt;SGR_RS01230&lt;/b&gt;&lt;br&gt;lipase&lt;br&gt;Location: 285089 - 283905"  />
</g>
<g id="a1_0027"  >
<polygon locus_tag="SGR_RS01225" id="dummy-1_h1_8_27" points="649,85 654,80 658,80 658,90 654,90 649,85 " style="stroke-width:1; fill:white; stroke:black; " class="clusterblast-orf" description="&lt;b&gt;SGR_RS01225&lt;/b&gt;&lt;br&gt;TetR/AcrR family transcriptional regulator&lt;br&gt;Location: 283832 - 283260"  />
</g>
<g id="a1_0028"  >
<polygon locus_tag="SGR_RS01220" id="dummy-1_h1_8_28" points="659,90 662,90 667,85 662,80 659,80 659,90 " style="stroke-width:1; fill:white; stroke:black; " class="clusterblast-orf" description="&lt;b&gt;SGR_RS01220&lt;/b&gt;&lt;br&gt;FBP domain-containing protein&lt;br&gt;Location: 283175 - 282684"  />
</g>
<g id="a1_0029"  >
<polygon locus_tag="SGR_RS01215" id="dummy-1_h1_8_29" points="672,90 686,90 691,85 686,80 672,80 672,90 " style="stroke-width:1; fill:white; stroke:black; " class="clusterblast-orf" description="&lt;b&gt;SGR_RS01215&lt;/b&gt;&lt;br&gt;cytochrome P450&lt;br&gt;Location: 282351 - 281101"  />
</g>
<g id="a1_0030"  >
<polygon locus_tag="SGR_RS01210" id="dummy-1_h1_8_30" points="691,90 694,85 691,80 691,90 " style="stroke-width:1; fill:white; stroke:black; " class="clusterblast-orf" description="&lt;b&gt;SGR_RS01210&lt;/b&gt;&lt;br&gt;ferredoxin&lt;br&gt;Location: 281095 - 280898"  />
</g>
<g id="a1_0031"  >
<polygon locus_tag="SGR_RS01205" id="dummy-1_h1_8_31" points="695,85 700,80 703,80 703,90 700,90 695,85 " style="stroke-width:1; fill:white; stroke:black; " class="clusterblast-orf" description="&lt;b&gt;SGR_RS01205&lt;/b&gt;&lt;br&gt;TerB family tellurite resistance protein&lt;br&gt;Location: 280821 - 280270"  />
</g>
<g id="a1_0032"  >
<polygon locus_tag="SGR_RS01200" id="dummy-1_h1_8_32" points="706,85 711,80 715,80 715,90 711,90 706,85 " style="stroke-width:1; fill:white; stroke:black; " class="clusterblast-orf" description="&lt;b&gt;SGR_RS01200&lt;/b&gt;&lt;br&gt;DedA family protein&lt;br&gt;Location: 280124 - 279468"  />
</g>
<g id="a1_0033"  >
<polygon locus_tag="SGR_RS01190" id="dummy-1_h1_8_33" points="730,85 735,80 743,80 743,90 735,90 730,85 " style="stroke-width:1; fill:white; stroke:black; " class="clusterblast-orf" description="&lt;b&gt;SGR_RS01190&lt;/b&gt;&lt;br&gt;alpha/beta hydrolase&lt;br&gt;Location: 278538 - 277666"  />
</g>
<g id="a1_0034"  >
<polygon locus_tag="SGR_RS01185" id="dummy-1_h1_8_34" points="746,90 749,90 754,85 749,80 746,80 746,90 " style="stroke-width:1; fill:white; stroke:black; " class="clusterblast-orf" description="&lt;b&gt;SGR_RS01185&lt;/b&gt;&lt;br&gt;hypothetical protein&lt;br&gt;Location: 277466 - 276957"  />
</g>
<g id="a1_0035"  >
<polygon locus_tag="SGR_RS01180" id="dummy-1_h1_8_35" points="759,90 771,90 776,85 771,80 759,80 759,90 " style="stroke-width:1; fill:white; stroke:black; " class="clusterblast-orf" description="&lt;b&gt;SGR_RS01180&lt;/b&gt;&lt;br&gt;amino acid ABC transporter substrate-binding protein&lt;br&gt;Location: 276595 - 275486"  />
</g>
<g id="a1_0036"  >
<polygon locus_tag="SGR_RS35995" id="dummy-1_h1_8_36" points="777,85 780,80 780,90 777,85 " style="stroke-width:1; fill:white; stroke:black; " class="clusterblast-orf" description="&lt;b&gt;SGR_RS35995&lt;/b&gt;&lt;br&gt;transposase&lt;br&gt;Location: 275431 - 275249"  />
</g>
</svg>
