<svg xmlns:xlink="http://www.w3.org/1999/xlink" preserveAspectRatio="none" width="800" xmlns="http://www.w3.org/2000/svg" version="1.1" x="0" viewBox="0 0 800 230" height="230" y="0"  >
<g label="Query sequence" class="clusterblast-cluster"  >
<text x="5" y="20" class="clusterblast-acc"  >
Query sequence</text>
<line x2="778.0" style="stroke-width:1; stroke:grey; " y1="35" x1="10" y2="35"  />
<polygon locus_tag="cds0_14175" id="dummy-1_q0_0_all" points="360,40 411,40 416,35 411,30 360,30 360,40 " style="stroke-width:1; fill:#d81515; stroke:black; " class="clusterblast-orf" description="&lt;b&gt;cds0_14175&lt;/b&gt;&lt;br&gt;Polyketide synthase modules and related proteins&lt;br&gt;Location: 0 - 14175"  />
<polygon locus_tag="cds14171_14894" id="dummy-1_q1_0_all" points="416,40 419,35 416,30 416,40 " style="stroke-width:1; fill:#d81515; stroke:black; " class="clusterblast-orf" description="&lt;b&gt;cds14171_14894&lt;/b&gt;&lt;br&gt;CDA peptide synthetase I&lt;br&gt;Location: 14171 - 14894"  />
</g>
<g label="NZ_LT629798" class="clusterblast-cluster" description="NZ_LT629798 (1504529-1701350): Pseudomonas corrugata strain LMG 2172 chromoso... (7% of genes show similarity), NRPS,hserlactone"  >
<text x="5" y="70" class="clusterblast-acc"  >
<a xlink:href="https://antismash-db.secondarymetabolites.org/area.html?record=NZ_LT629798&amp;start=1504529&amp;end=1701350" target="_blank">NZ_LT629798 (1504529-1701350)</a>: Pseudomonas corrugata strain LMG 2172 chromoso... (7% of genes show similarity), NRPS,hserlactone</text>
<line x2="778.0" style="stroke-width:1; stroke:grey; " y1="85" x1="10" y2="85"  />
</g>
<g id="a1_000"  >
<polygon locus_tag="BLU14_RS07095" id="dummy-1_h1_8_0" points="0,90 0,90 5,85 0,80 0,80 0,90 " style="stroke-width:1; fill:white; stroke:black; " class="clusterblast-orf" description="&lt;b&gt;BLU14_RS07095&lt;/b&gt;&lt;br&gt;MFS transporter&lt;br&gt;Location: 1504530 - 1505852"  />
</g>
<g id="a1_001"  >
<polygon locus_tag="BLU14_RS07100" id="dummy-1_h1_8_1" points="5,90 9,85 5,80 5,90 " style="stroke-width:1; fill:white; stroke:black; " class="clusterblast-orf" description="&lt;b&gt;BLU14_RS07100&lt;/b&gt;&lt;br&gt;fumarylacetoacetate hydrolase&lt;br&gt;Location: 1506010 - 1507002"  />
</g>
<g id="a1_002"  >
<polygon locus_tag="BLU14_RS07105" id="dummy-1_h1_8_2" points="9,90 11,90 16,85 11,80 9,80 9,90 " style="stroke-width:1; fill:white; stroke:black; " class="clusterblast-orf" description="&lt;b&gt;BLU14_RS07105&lt;/b&gt;&lt;br&gt;aldehyde dehydrogenase (NADP(+))&lt;br&gt;Location: 1507016 - 1508596"  />
</g>
<g id="a1_003"  >
<polygon locus_tag="BLU14_RS07110" id="dummy-1_h1_8_3" points="17,85 22,80 39,80 39,90 22,90 17,85 " style="stroke-width:1; fill:white; stroke:black; " class="clusterblast-orf" description="&lt;b&gt;BLU14_RS07110&lt;/b&gt;&lt;br&gt;right-handed parallel beta-helix repeat-containing protein&lt;br&gt;Location: 1508895 - 1514480"  />
</g>
<g id="a1_004"  >
<polygon locus_tag="BLU14_RS07115" id="dummy-1_h1_8_4" points="41,90 42,85 41,80 41,90 " style="stroke-width:1; fill:white; stroke:black; " class="clusterblast-orf" description="&lt;b&gt;BLU14_RS07115&lt;/b&gt;&lt;br&gt;membrane protein&lt;br&gt;Location: 1514861 - 1515304"  />
</g>
<g id="a1_005"  >
<polygon locus_tag="BLU14_RS07120" id="dummy-1_h1_8_5" points="43,90 43,90 48,85 43,80 43,80 43,90 " style="stroke-width:1; fill:white; stroke:black; " class="clusterblast-orf" description="&lt;b&gt;BLU14_RS07120&lt;/b&gt;&lt;br&gt;coproporphyrinogen III oxidase&lt;br&gt;Location: 1515448 - 1516707"  />
</g>
<g id="a1_006"  >
<polygon locus_tag="BLU14_RS07125" id="dummy-1_h1_8_6" points="48,90 49,90 54,85 49,80 48,80 48,90 " style="stroke-width:1; fill:white; stroke:black; " class="clusterblast-orf" description="&lt;b&gt;BLU14_RS07125&lt;/b&gt;&lt;br&gt;oxygen-independent coproporphyrinogen III oxidase&lt;br&gt;Location: 1516704 - 1518092"  />
</g>
<g id="a1_007"  >
<polygon locus_tag="BLU14_RS07130" id="dummy-1_h1_8_7" points="54,85 55,80 55,90 54,85 " style="stroke-width:1; fill:white; stroke:black; " class="clusterblast-orf" description="&lt;b&gt;BLU14_RS07130&lt;/b&gt;&lt;br&gt;hypothetical protein&lt;br&gt;Location: 1518269 - 1518475"  />
</g>
<g id="a1_008"  >
<polygon locus_tag="BLU14_RS07135" id="dummy-1_h1_8_8" points="55,85 60,80 61,80 61,90 60,90 55,85 " style="stroke-width:1; fill:white; stroke:black; " class="clusterblast-orf" description="&lt;b&gt;BLU14_RS07135&lt;/b&gt;&lt;br&gt;AdeC/AdeK/OprM family multidrug efflux complex outer membrane factor&lt;br&gt;Location: 1518482 - 1519906"  />
</g>
<g id="a1_009"  >
<polygon locus_tag="BLU14_RS07140" id="dummy-1_h1_8_9" points="61,85 64,80 64,90 61,85 " style="stroke-width:1; fill:white; stroke:black; " class="clusterblast-orf" description="&lt;b&gt;BLU14_RS07140&lt;/b&gt;&lt;br&gt;helix-turn-helix transcriptional regulator&lt;br&gt;Location: 1519994 - 1520821"  />
</g>
<g id="a1_0010"  >
<polygon locus_tag="BLU14_RS07145" id="dummy-1_h1_8_10" points="66,85 71,80 71,80 71,90 71,90 66,85 " style="stroke-width:1; fill:white; stroke:black; " class="clusterblast-orf" description="&lt;b&gt;BLU14_RS07145&lt;/b&gt;&lt;br&gt;FAD-dependent monooxygenase&lt;br&gt;Location: 1521314 - 1522501"  />
</g>
<g id="a1_0011"  >
<polygon locus_tag="BLU14_RS07150" id="dummy-1_h1_8_11" points="72,85 77,80 101,80 101,90 77,90 72,85 " style="stroke-width:1; fill:white; stroke:black; " class="clusterblast-orf" description="&lt;b&gt;BLU14_RS07150&lt;/b&gt;&lt;br&gt;non-ribosomal peptide synthetase&lt;br&gt;Location: 1522712 - 1529977"  />
</g>
<g id="a1_0012"  >
<polygon locus_tag="BLU14_RS07155" id="dummy-1_h1_8_12" points="101,85 106,80 106,80 106,90 106,90 101,85 " style="stroke-width:1; fill:white; stroke:black; " class="clusterblast-orf" description="&lt;b&gt;BLU14_RS07155&lt;/b&gt;&lt;br&gt;glycosyltransferase&lt;br&gt;Location: 1530072 - 1531334"  />
</g>
<g id="a1_0013"  >
<polygon locus_tag="BLU14_RS07160" id="dummy-1_h1_8_13" points="111,85 116,80 165,80 165,90 116,90 111,85 " style="stroke-width:1; fill:#d81515; stroke:black; " class="clusterblast-orf" description="&lt;b&gt;BLU14_RS07160&lt;/b&gt;&lt;br&gt;non-ribosomal peptide synthetase&lt;br&gt;Location: 1532439 - 1546022&lt;br&gt;&lt;br&gt;&lt;b&gt;BlastP hit with cds0_14175&lt;/b&gt;&lt;br&gt;Percentage identity: 34&lt;br&gt;Percentage coverage: 80&lt;br&gt;BLAST bit score: 1525&lt;br&gt;E-value: 0.0"  />
</g>
<g id="a1_0014"  >
<polygon locus_tag="BLU14_RS07165" id="dummy-1_h1_8_14" points="165,85 170,80 229,80 229,90 170,90 165,85 " style="stroke-width:1; fill:#d81515; stroke:black; " class="clusterblast-orf" description="&lt;b&gt;BLU14_RS07165&lt;/b&gt;&lt;br&gt;non-ribosomal peptide synthetase&lt;br&gt;Location: 1546026 - 1562153&lt;br&gt;&lt;br&gt;&lt;b&gt;BlastP hit with cds0_14175&lt;/b&gt;&lt;br&gt;Percentage identity: 34&lt;br&gt;Percentage coverage: 93&lt;br&gt;BLAST bit score: 1805&lt;br&gt;E-value: 0.0&lt;br&gt;&lt;br&gt;&lt;b&gt;BlastP hit with cds14171_14894&lt;/b&gt;&lt;br&gt;Percentage identity: 32&lt;br&gt;Percentage coverage: 90&lt;br&gt;BLAST bit score: 91&lt;br&gt;E-value: 1.2e-16"  />
</g>
<g id="a1_0015"  >
<polygon locus_tag="BLU14_RS07170" id="dummy-1_h1_8_15" points="230,90 234,85 230,80 230,90 " style="stroke-width:1; fill:white; stroke:black; " class="clusterblast-orf" description="&lt;b&gt;BLU14_RS07170&lt;/b&gt;&lt;br&gt;cupin-like domain-containing protein&lt;br&gt;Location: 1562516 - 1563520"  />
</g>
<g id="a1_0016"  >
<polygon locus_tag="BLU14_RS07175" id="dummy-1_h1_8_16" points="234,90 235,90 240,85 235,80 234,80 234,90 " style="stroke-width:1; fill:white; stroke:black; " class="clusterblast-orf" description="&lt;b&gt;BLU14_RS07175&lt;/b&gt;&lt;br&gt;MFS transporter&lt;br&gt;Location: 1563517 - 1564887"  />
</g>
<g id="a1_0017"  >
<polygon locus_tag="BLU14_RS07180" id="dummy-1_h1_8_17" points="240,90 243,85 240,80 240,90 " style="stroke-width:1; fill:white; stroke:black; " class="clusterblast-orf" description="&lt;b&gt;BLU14_RS07180&lt;/b&gt;&lt;br&gt;aspartyl/asparaginyl beta-hydroxylase domain-containing protein&lt;br&gt;Location: 1565005 - 1565616"  />
</g>
<g id="a1_0018"  >
<polygon locus_tag="BLU14_RS07185" id="dummy-1_h1_8_18" points="243,85 247,80 247,90 243,85 " style="stroke-width:1; fill:white; stroke:black; " class="clusterblast-orf" description="&lt;b&gt;BLU14_RS07185&lt;/b&gt;&lt;br&gt;helix-turn-helix transcriptional regulator&lt;br&gt;Location: 1565781 - 1566575"  />
</g>
<g id="a1_0019"  >
<polygon locus_tag="BLU14_RS07190" id="dummy-1_h1_8_19" points="247,90 248,85 247,80 247,90 " style="stroke-width:1; fill:white; stroke:black; " class="clusterblast-orf" description="&lt;b&gt;BLU14_RS07190&lt;/b&gt;&lt;br&gt;DUF1656 domain-containing protein&lt;br&gt;Location: 1566702 - 1566890"  />
</g>
<g id="a1_0020"  >
<polygon locus_tag="BLU14_RS07195" id="dummy-1_h1_8_20" points="248,90 252,85 248,80 248,90 " style="stroke-width:1; fill:white; stroke:black; " class="clusterblast-orf" description="&lt;b&gt;BLU14_RS07195&lt;/b&gt;&lt;br&gt;HlyD family secretion protein&lt;br&gt;Location: 1566901 - 1567809"  />
</g>
<g id="a1_0021"  >
<polygon locus_tag="BLU14_RS07200" id="dummy-1_h1_8_21" points="252,90 254,90 259,85 254,80 252,80 252,90 " style="stroke-width:1; fill:white; stroke:black; " class="clusterblast-orf" description="&lt;b&gt;BLU14_RS07200&lt;/b&gt;&lt;br&gt;FUSC family protein&lt;br&gt;Location: 1567827 - 1569752"  />
</g>
<g id="a1_0022"  >
<polygon locus_tag="BLU14_RS07210" id="dummy-1_h1_8_22" points="261,90 261,85 261,80 261,90 " style="stroke-width:1; fill:white; stroke:black; " class="clusterblast-orf" description="&lt;b&gt;BLU14_RS07210&lt;/b&gt;&lt;br&gt;ParD-like family protein&lt;br&gt;Location: 1570090 - 1570296"  />
</g>
<g id="a1_0023"  >
<polygon locus_tag="BLU14_RS07215" id="dummy-1_h1_8_23" points="261,90 265,85 261,80 261,90 " style="stroke-width:1; fill:white; stroke:black; " class="clusterblast-orf" description="&lt;b&gt;BLU14_RS07215&lt;/b&gt;&lt;br&gt;type I methionyl aminopeptidase&lt;br&gt;Location: 1570299 - 1571078"  />
</g>
<g id="a1_0024"  >
<polygon locus_tag="BLU14_RS07220" id="dummy-1_h1_8_24" points="265,85 270,80 271,80 271,90 270,90 265,85 " style="stroke-width:1; fill:white; stroke:black; " class="clusterblast-orf" description="&lt;b&gt;BLU14_RS07220&lt;/b&gt;&lt;br&gt;methyl-accepting chemotaxis protein&lt;br&gt;Location: 1571165 - 1572790"  />
</g>
<g id="a1_0025"  >
<polygon locus_tag="BLU14_RS07225" id="dummy-1_h1_8_25" points="274,85 278,80 278,90 274,85 " style="stroke-width:1; fill:white; stroke:black; " class="clusterblast-orf" description="&lt;b&gt;BLU14_RS07225&lt;/b&gt;&lt;br&gt;DMT family transporter&lt;br&gt;Location: 1573405 - 1574361"  />
</g>
<g id="a1_0026"  >
<polygon locus_tag="BLU14_RS07230" id="dummy-1_h1_8_26" points="278,85 280,80 280,90 278,85 " style="stroke-width:1; fill:white; stroke:black; " class="clusterblast-orf" description="&lt;b&gt;BLU14_RS07230&lt;/b&gt;&lt;br&gt;TetR/AcrR family transcriptional regulator&lt;br&gt;Location: 1574358 - 1574930"  />
</g>
<g id="a1_0027"  >
<polygon locus_tag="BLU14_RS07235" id="dummy-1_h1_8_27" points="281,85 285,80 285,90 281,85 " style="stroke-width:1; fill:white; stroke:black; " class="clusterblast-orf" description="&lt;b&gt;BLU14_RS07235&lt;/b&gt;&lt;br&gt;hypothetical protein&lt;br&gt;Location: 1575221 - 1576090"  />
</g>
<g id="a1_0028"  >
<polygon locus_tag="BLU14_RS07240" id="dummy-1_h1_8_28" points="284,85 288,80 288,90 284,85 " style="stroke-width:1; fill:white; stroke:black; " class="clusterblast-orf" description="&lt;b&gt;BLU14_RS07240&lt;/b&gt;&lt;br&gt;alpha/beta hydrolase&lt;br&gt;Location: 1576087 - 1576863"  />
</g>
<g id="a1_0029"  >
<polygon locus_tag="BLU14_RS07245" id="dummy-1_h1_8_29" points="288,85 292,80 292,90 288,85 " style="stroke-width:1; fill:white; stroke:black; " class="clusterblast-orf" description="&lt;b&gt;BLU14_RS07245&lt;/b&gt;&lt;br&gt;nitronate monooxygenase&lt;br&gt;Location: 1576882 - 1577871"  />
</g>
<g id="a1_0030"  >
<polygon locus_tag="BLU14_RS07250" id="dummy-1_h1_8_30" points="292,85 293,80 293,90 292,85 " style="stroke-width:1; fill:white; stroke:black; " class="clusterblast-orf" description="&lt;b&gt;BLU14_RS07250&lt;/b&gt;&lt;br&gt;antibiotic biosynthesis monooxygenase&lt;br&gt;Location: 1577933 - 1578301"  />
</g>
<g id="a1_0031"  >
<polygon locus_tag="BLU14_RS07255" id="dummy-1_h1_8_31" points="293,85 296,80 296,90 293,85 " style="stroke-width:1; fill:white; stroke:black; " class="clusterblast-orf" description="&lt;b&gt;BLU14_RS07255&lt;/b&gt;&lt;br&gt;flavin reductase family protein&lt;br&gt;Location: 1578330 - 1578890"  />
</g>
<g id="a1_0032"  >
<polygon locus_tag="BLU14_RS07260" id="dummy-1_h1_8_32" points="296,85 300,80 300,90 296,85 " style="stroke-width:1; fill:white; stroke:black; " class="clusterblast-orf" description="&lt;b&gt;BLU14_RS07260&lt;/b&gt;&lt;br&gt;LLM class flavin-dependent oxidoreductase&lt;br&gt;Location: 1578887 - 1580056"  />
</g>
<g id="a1_0033"  >
<polygon locus_tag="BLU14_RS07265" id="dummy-1_h1_8_33" points="300,85 303,80 303,90 300,85 " style="stroke-width:1; fill:white; stroke:black; " class="clusterblast-orf" description="&lt;b&gt;BLU14_RS07265&lt;/b&gt;&lt;br&gt;RraA family protein&lt;br&gt;Location: 1580097 - 1580804"  />
</g>
<g id="a1_0034"  >
<polygon locus_tag="BLU14_RS07270" id="dummy-1_h1_8_34" points="303,85 308,80 308,80 308,90 308,90 303,85 " style="stroke-width:1; fill:white; stroke:black; " class="clusterblast-orf" description="&lt;b&gt;BLU14_RS07270&lt;/b&gt;&lt;br&gt;isocitrate/isopropylmalate dehydrogenase family protein&lt;br&gt;Location: 1580801 - 1581991"  />
</g>
<g id="a1_0035"  >
<polygon locus_tag="BLU14_RS07275" id="dummy-1_h1_8_35" points="308,85 312,80 312,90 308,85 " style="stroke-width:1; fill:white; stroke:black; " class="clusterblast-orf" description="&lt;b&gt;BLU14_RS07275&lt;/b&gt;&lt;br&gt;aldolase catalytic domain-containing protein&lt;br&gt;Location: 1581991 - 1583013"  />
</g>
<g id="a1_0036"  >
<polygon locus_tag="BLU14_RS07280" id="dummy-1_h1_8_36" points="313,85 317,80 317,90 313,85 " style="stroke-width:1; fill:white; stroke:black; " class="clusterblast-orf" description="&lt;b&gt;BLU14_RS07280&lt;/b&gt;&lt;br&gt;LysR family transcriptional regulator&lt;br&gt;Location: 1583335 - 1584255"  />
</g>
<g id="a1_0037"  >
<polygon locus_tag="BLU14_RS07285" id="dummy-1_h1_8_37" points="317,85 322,80 322,80 322,90 322,90 317,85 " style="stroke-width:1; fill:white; stroke:black; " class="clusterblast-orf" description="&lt;b&gt;BLU14_RS07285&lt;/b&gt;&lt;br&gt;MFS transporter&lt;br&gt;Location: 1584346 - 1585536"  />
</g>
<g id="a1_0038"  >
<polygon locus_tag="BLU14_RS07290" id="dummy-1_h1_8_38" points="322,85 326,80 326,90 322,85 " style="stroke-width:1; fill:white; stroke:black; " class="clusterblast-orf" description="&lt;b&gt;BLU14_RS07290&lt;/b&gt;&lt;br&gt;zinc-dependent alcohol dehydrogenase family protein&lt;br&gt;Location: 1585533 - 1586534"  />
</g>
<g id="a1_0039"  >
<polygon locus_tag="BLU14_RS07295" id="dummy-1_h1_8_39" points="326,85 331,80 339,80 339,90 331,90 326,85 " style="stroke-width:1; fill:white; stroke:black; " class="clusterblast-orf" description="&lt;b&gt;BLU14_RS07295&lt;/b&gt;&lt;br&gt;efflux RND transporter permease subunit&lt;br&gt;Location: 1586613 - 1589786"  />
</g>
<g id="a1_0040"  >
<polygon locus_tag="BLU14_RS07300" id="dummy-1_h1_8_40" points="339,85 344,80 344,80 344,90 344,90 339,85 " style="stroke-width:1; fill:white; stroke:black; " class="clusterblast-orf" description="&lt;b&gt;BLU14_RS07300&lt;/b&gt;&lt;br&gt;efflux RND transporter periplasmic adaptor subunit&lt;br&gt;Location: 1589786 - 1590952"  />
</g>
<g id="a1_0041"  >
<polygon locus_tag="BLU14_RS07305" id="dummy-1_h1_8_41" points="344,85 348,80 348,90 344,85 " style="stroke-width:1; fill:white; stroke:black; " class="clusterblast-orf" description="&lt;b&gt;BLU14_RS07305&lt;/b&gt;&lt;br&gt;acyltransferase&lt;br&gt;Location: 1590981 - 1592129"  />
</g>
<g id="a1_0042"  >
<polygon locus_tag="BLU14_RS07310" id="dummy-1_h1_8_42" points="349,85 354,80 354,80 354,90 354,90 349,85 " style="stroke-width:1; fill:white; stroke:black; " class="clusterblast-orf" description="&lt;b&gt;BLU14_RS07310&lt;/b&gt;&lt;br&gt;serine hydrolase&lt;br&gt;Location: 1592309 - 1593490"  />
</g>
<g id="a1_0043"  >
<polygon locus_tag="BLU14_RS07315" id="dummy-1_h1_8_43" points="354,90 358,85 354,80 354,90 " style="stroke-width:1; fill:white; stroke:black; " class="clusterblast-orf" description="&lt;b&gt;BLU14_RS07315&lt;/b&gt;&lt;br&gt;LysR family transcriptional regulator&lt;br&gt;Location: 1593621 - 1594499"  />
</g>
<g id="a1_0044"  >
<polygon locus_tag="BLU14_RS07320" id="dummy-1_h1_8_44" points="358,85 362,80 362,90 358,85 " style="stroke-width:1; fill:white; stroke:black; " class="clusterblast-orf" description="&lt;b&gt;BLU14_RS07320&lt;/b&gt;&lt;br&gt;AraC family transcriptional regulator&lt;br&gt;Location: 1594515 - 1595438"  />
</g>
<g id="a1_0045"  >
<polygon locus_tag="BLU14_RS07325" id="dummy-1_h1_8_45" points="362,90 363,85 362,80 362,90 " style="stroke-width:1; fill:white; stroke:black; " class="clusterblast-orf" description="&lt;b&gt;BLU14_RS07325&lt;/b&gt;&lt;br&gt;carboxymuconolactone decarboxylase family protein&lt;br&gt;Location: 1595547 - 1595888"  />
</g>
<g id="a1_0046"  >
<polygon locus_tag="BLU14_RS07330" id="dummy-1_h1_8_46" points="368,85 373,80 373,80 373,90 373,90 368,85 " style="stroke-width:1; fill:white; stroke:black; " class="clusterblast-orf" description="&lt;b&gt;BLU14_RS07330&lt;/b&gt;&lt;br&gt;alpha/beta fold hydrolase&lt;br&gt;Location: 1597090 - 1598301"  />
</g>
<g id="a1_0047"  >
<polygon locus_tag="BLU14_RS07335" id="dummy-1_h1_8_47" points="373,85 377,80 377,90 373,85 " style="stroke-width:1; fill:white; stroke:black; " class="clusterblast-orf" description="&lt;b&gt;BLU14_RS07335&lt;/b&gt;&lt;br&gt;chlorinating enzyme&lt;br&gt;Location: 1598361 - 1599296"  />
</g>
<g id="a1_0048"  >
<polygon locus_tag="BLU14_RS07340" id="dummy-1_h1_8_48" points="377,85 382,80 384,80 384,90 382,90 377,85 " style="stroke-width:1; fill:white; stroke:black; " class="clusterblast-orf" description="&lt;b&gt;BLU14_RS07340&lt;/b&gt;&lt;br&gt;amino acid adenylation domain-containing protein&lt;br&gt;Location: 1599314 - 1601158"  />
</g>
<g id="a1_0049"  >
<polygon locus_tag="BLU14_RS07345" id="dummy-1_h1_8_49" points="386,90 390,85 386,80 386,90 " style="stroke-width:1; fill:white; stroke:black; " class="clusterblast-orf" description="&lt;b&gt;BLU14_RS07345&lt;/b&gt;&lt;br&gt;TauD/TfdA family dioxygenase&lt;br&gt;Location: 1601506 - 1602567"  />
</g>
<g id="a1_0050"  >
<polygon locus_tag="BLU14_RS07350" id="dummy-1_h1_8_50" points="390,90 392,90 397,85 392,80 390,80 390,90 " style="stroke-width:1; fill:white; stroke:black; " class="clusterblast-orf" description="&lt;b&gt;BLU14_RS07350&lt;/b&gt;&lt;br&gt;cyclic peptide export ABC transporter&lt;br&gt;Location: 1602602 - 1604299"  />
</g>
<g id="a1_0051"  >
<polygon locus_tag="BLU14_RS07355" id="dummy-1_h1_8_51" points="398,90 509,90 514,85 509,80 398,80 398,90 " style="stroke-width:1; fill:#d81515; stroke:black; " class="clusterblast-orf" description="&lt;b&gt;BLU14_RS07355&lt;/b&gt;&lt;br&gt;non-ribosomal peptide synthase/polyketide synthase&lt;br&gt;Location: 1604610 - 1633661&lt;br&gt;&lt;br&gt;&lt;b&gt;BlastP hit with cds0_14175&lt;/b&gt;&lt;br&gt;Percentage identity: 32&lt;br&gt;Percentage coverage: 100&lt;br&gt;BLAST bit score: 1536&lt;br&gt;E-value: 0.0&lt;br&gt;&lt;br&gt;&lt;b&gt;BlastP hit with cds14171_14894&lt;/b&gt;&lt;br&gt;Percentage identity: 31&lt;br&gt;Percentage coverage: 91&lt;br&gt;BLAST bit score: 88&lt;br&gt;E-value: 1.1e-15"  />
</g>
<g id="a1_0052"  >
<polygon locus_tag="BLU14_RS07360" id="dummy-1_h1_8_52" points="515,90 561,90 566,85 561,80 515,80 515,90 " style="stroke-width:1; fill:#d81515; stroke:black; " class="clusterblast-orf" description="&lt;b&gt;BLU14_RS07360&lt;/b&gt;&lt;br&gt;amino acid adenylation domain-containing protein&lt;br&gt;Location: 1633907 - 1646815&lt;br&gt;&lt;br&gt;&lt;b&gt;BlastP hit with cds0_14175&lt;/b&gt;&lt;br&gt;Percentage identity: 32&lt;br&gt;Percentage coverage: 92&lt;br&gt;BLAST bit score: 1571&lt;br&gt;E-value: 0.0"  />
</g>
<g id="a1_0053"  >
<polygon locus_tag="BLU14_RS07365" id="dummy-1_h1_8_53" points="571,90 689,90 694,85 689,80 571,80 571,90 " style="stroke-width:1; fill:#d81515; stroke:black; " class="clusterblast-orf" description="&lt;b&gt;BLU14_RS07365&lt;/b&gt;&lt;br&gt;non-ribosomal peptide synthetase&lt;br&gt;Location: 1647946 - 1678842&lt;br&gt;&lt;br&gt;&lt;b&gt;BlastP hit with cds0_14175&lt;/b&gt;&lt;br&gt;Percentage identity: 36&lt;br&gt;Percentage coverage: 91&lt;br&gt;BLAST bit score: 1981&lt;br&gt;E-value: 0.0"  />
</g>
<g id="a1_0054"  >
<polygon locus_tag="BLU14_RS07370" id="dummy-1_h1_8_54" points="694,90 694,90 699,85 694,80 694,80 694,90 " style="stroke-width:1; fill:white; stroke:black; " class="clusterblast-orf" description="&lt;b&gt;BLU14_RS07370&lt;/b&gt;&lt;br&gt;macrolide transporter subunit MacA&lt;br&gt;Location: 1678921 - 1680072"  />
</g>
<g id="a1_0055"  >
<polygon locus_tag="BLU14_RS07375" id="dummy-1_h1_8_55" points="699,90 701,90 706,85 701,80 699,80 699,90 " style="stroke-width:1; fill:white; stroke:black; " class="clusterblast-orf" description="&lt;b&gt;BLU14_RS07375&lt;/b&gt;&lt;br&gt;MacB family efflux pump subunit&lt;br&gt;Location: 1680075 - 1682036"  />
</g>
<g id="a1_0056"  >
<polygon locus_tag="BLU14_RS07380" id="dummy-1_h1_8_56" points="708,85 713,80 713,80 713,90 713,90 708,85 " style="stroke-width:1; fill:white; stroke:black; " class="clusterblast-orf" description="&lt;b&gt;BLU14_RS07380&lt;/b&gt;&lt;br&gt;diaminobutyrate--2-oxoglutarate transaminase family protein&lt;br&gt;Location: 1682329 - 1683669"  />
</g>
<g id="a1_0057"  >
<polygon locus_tag="BLU14_RS07385" id="dummy-1_h1_8_57" points="714,90 715,90 720,85 715,80 714,80 714,90 " style="stroke-width:1; fill:white; stroke:black; " class="clusterblast-orf" description="&lt;b&gt;BLU14_RS07385&lt;/b&gt;&lt;br&gt;efflux transporter outer membrane subunit&lt;br&gt;Location: 1684010 - 1685437"  />
</g>
<g id="a1_0058"  >
<polygon locus_tag="BLU14_RS07390" id="dummy-1_h1_8_58" points="720,90 724,85 720,80 720,90 " style="stroke-width:1; fill:white; stroke:black; " class="clusterblast-orf" description="&lt;b&gt;BLU14_RS07390&lt;/b&gt;&lt;br&gt;efflux RND transporter periplasmic adaptor subunit&lt;br&gt;Location: 1685446 - 1686540"  />
</g>
<g id="a1_0059"  >
<polygon locus_tag="BLU14_RS07395" id="dummy-1_h1_8_59" points="724,90 732,90 737,85 732,80 724,80 724,90 " style="stroke-width:1; fill:white; stroke:black; " class="clusterblast-orf" description="&lt;b&gt;BLU14_RS07395&lt;/b&gt;&lt;br&gt;efflux RND transporter permease subunit&lt;br&gt;Location: 1686537 - 1689620"  />
</g>
<g id="a1_0060"  >
<polygon locus_tag="BLU14_RS07400" id="dummy-1_h1_8_60" points="737,85 740,80 740,90 737,85 " style="stroke-width:1; fill:white; stroke:black; " class="clusterblast-orf" description="&lt;b&gt;BLU14_RS07400&lt;/b&gt;&lt;br&gt;helix-turn-helix transcriptional regulator&lt;br&gt;Location: 1689678 - 1690544"  />
</g>
<g id="a1_0061"  >
<polygon locus_tag="BLU14_RS07405" id="dummy-1_h1_8_61" points="740,85 744,80 744,90 740,85 " style="stroke-width:1; fill:white; stroke:black; " class="clusterblast-orf" description="&lt;b&gt;BLU14_RS07405&lt;/b&gt;&lt;br&gt;hypothetical protein&lt;br&gt;Location: 1690577 - 1691350"  />
</g>
<g id="a1_0062"  >
<polygon locus_tag="BLU14_RS07410" id="dummy-1_h1_8_62" points="746,90 748,85 746,80 746,90 " style="stroke-width:1; fill:white; stroke:black; " class="clusterblast-orf" description="&lt;b&gt;BLU14_RS07410&lt;/b&gt;&lt;br&gt;LysE family transporter&lt;br&gt;Location: 1691940 - 1692539"  />
</g>
<g id="a1_0063"  >
<polygon locus_tag="BLU14_RS07415" id="dummy-1_h1_8_63" points="749,85 752,80 752,90 749,85 " style="stroke-width:1; fill:white; stroke:black; " class="clusterblast-orf" description="&lt;b&gt;BLU14_RS07415&lt;/b&gt;&lt;br&gt;LuxR family transcriptional regulator&lt;br&gt;Location: 1692626 - 1693354"  />
</g>
<g id="a1_0064"  >
<polygon locus_tag="BLU14_RS07420" id="dummy-1_h1_8_64" points="753,85 758,80 764,80 764,90 758,90 753,85 " style="stroke-width:1; fill:white; stroke:black; " class="clusterblast-orf" description="&lt;b&gt;BLU14_RS07420&lt;/b&gt;&lt;br&gt;excinuclease ABC subunit UvrA&lt;br&gt;Location: 1693708 - 1696365"  />
</g>
<g id="a1_0065"  >
<polygon locus_tag="BLU14_RS07425" id="dummy-1_h1_8_65" points="764,90 765,90 770,85 765,80 764,80 764,90 " style="stroke-width:1; fill:white; stroke:black; " class="clusterblast-orf" description="&lt;b&gt;BLU14_RS07425&lt;/b&gt;&lt;br&gt;hypothetical protein&lt;br&gt;Location: 1696553 - 1698031"  />
</g>
<g id="a1_0066"  >
<polygon locus_tag="BLU14_RS07430" id="dummy-1_h1_8_66" points="771,90 775,90 780,85 775,80 771,80 771,90 " style="stroke-width:1; fill:white; stroke:black; " class="clusterblast-orf" description="&lt;b&gt;BLU14_RS07430&lt;/b&gt;&lt;br&gt;regulatory protein NosR&lt;br&gt;Location: 1698202 - 1700376"  />
</g>
</svg>
