<svg xmlns:xlink="http://www.w3.org/1999/xlink" preserveAspectRatio="none" width="800" xmlns="http://www.w3.org/2000/svg" version="1.1" x="0" viewBox="0 0 800 230" height="230" y="0"  >
<g label="Query sequence" class="clusterblast-cluster"  >
<text x="5" y="20" class="clusterblast-acc"  >
Query sequence</text>
<line x2="778.0" style="stroke-width:1; stroke:grey; " y1="35" x1="10" y2="35"  />
<polygon locus_tag="cds0_1431" id="dummy-1_q0_0_all" points="362,35 367,30 378,30 378,40 367,40 362,35 " style="stroke-width:1; fill:#d81515; stroke:black; " class="clusterblast-orf" description="&lt;b&gt;cds0_1431&lt;/b&gt;&lt;br&gt;Polymyxin transporter PmxC&lt;br&gt;Location: 0 - 1431"  />
<polygon locus_tag="cds1427_1643" id="dummy-1_q1_0_all" points="378,35 380,30 380,40 378,35 " style="stroke-width:1; fill:#15d815; stroke:black; " class="clusterblast-orf" description="&lt;b&gt;cds1427_1643&lt;/b&gt;&lt;br&gt;MbtH-like NRPS chaperone&lt;br&gt;Location: 1427 - 1643"  />
<polygon locus_tag="cds1648_4987" id="dummy-1_q2_0_all" points="380,35 385,30 417,30 417,40 385,40 380,35 " style="stroke-width:1; fill:#1515d8; stroke:black; " class="clusterblast-orf" description="&lt;b&gt;cds1648_4987&lt;/b&gt;&lt;br&gt;Siderophore biosynthesis non-ribosomal peptide synthetase modules&lt;br&gt;Location: 1648 - 4987"  />
</g>
<g label="BGC0001657" class="clusterblast-cluster" description="BGC0001657_c1: lysocin (14% of genes show similarity), NRP"  >
<text x="5" y="70" class="clusterblast-acc"  >
<a xlink:href="https://mibig.secondarymetabolites.org/go/BGC0001657/1" target="_blank">BGC0001657</a>:                                                                          lysocin (14% of genes show similarity), NRP</text>
<line x2="778.0" style="stroke-width:1; stroke:grey; " y1="85" x1="10" y2="85"  />
</g>
<g id="a1_000"  >
<polygon locus_tag="BAV56288.1" id="dummy-1_h1_2_0" points="0,85 5,80 24,80 24,90 5,90 0,85 " style="stroke-width:1; fill:white; stroke:black; " class="clusterblast-orf" description="&lt;b&gt;BAV56288.1&lt;/b&gt;&lt;br&gt;hypothetical protein&lt;br&gt;Location: 71744 - 69543"  />
</g>
<g id="a1_001"  >
<polygon locus_tag="BAV56287.1" id="dummy-1_h1_2_1" points="25,85 30,80 43,80 43,90 30,90 25,85 " style="stroke-width:1; fill:white; stroke:black; " class="clusterblast-orf" description="&lt;b&gt;BAV56287.1&lt;/b&gt;&lt;br&gt;hypothetical protein&lt;br&gt;Location: 69437 - 67839"  />
</g>
<g id="a1_002"  >
<polygon locus_tag="BAV56286.1" id="dummy-1_h1_2_2" points="43,85 47,80 47,90 43,85 " style="stroke-width:1; fill:white; stroke:black; " class="clusterblast-orf" description="&lt;b&gt;BAV56286.1&lt;/b&gt;&lt;br&gt;hypothetical protein&lt;br&gt;Location: 67842 - 67462"  />
</g>
<g id="a1_003"  >
<polygon locus_tag="BAV56285.1" id="dummy-1_h1_2_3" points="49,85 53,80 53,90 49,85 " style="stroke-width:1; fill:white; stroke:black; " class="clusterblast-orf" description="&lt;b&gt;BAV56285.1&lt;/b&gt;&lt;br&gt;hypothetical protein&lt;br&gt;Location: 67288 - 66920"  />
</g>
<g id="a1_004"  >
<polygon locus_tag="BAV56284.1" id="dummy-1_h1_2_4" points="55,90 64,90 69,85 64,80 55,80 55,90 " style="stroke-width:1; fill:white; stroke:black; " class="clusterblast-orf" description="&lt;b&gt;BAV56284.1&lt;/b&gt;&lt;br&gt;hypothetical protein&lt;br&gt;Location: 66771 - 65515"  />
</g>
<g id="a1_005"  >
<polygon locus_tag="BAV56283.1" id="dummy-1_h1_2_5" points="70,85 75,80 81,80 81,90 75,90 70,85 " style="stroke-width:1; fill:white; stroke:black; " class="clusterblast-orf" description="&lt;b&gt;BAV56283.1&lt;/b&gt;&lt;br&gt;hypothetical protein&lt;br&gt;Location: 65392 - 64376"  />
</g>
<g id="a1_006"  >
<polygon locus_tag="BAV56282.1" id="dummy-1_h1_2_6" points="82,85 86,80 86,90 82,85 " style="stroke-width:1; fill:white; stroke:black; " class="clusterblast-orf" description="&lt;b&gt;BAV56282.1&lt;/b&gt;&lt;br&gt;hypothetical protein&lt;br&gt;Location: 64286 - 63987"  />
</g>
<g id="a1_007"  >
<polygon locus_tag="BAV56281.1" id="dummy-1_h1_2_7" points="88,85 93,80 102,80 102,90 93,90 88,85 " style="stroke-width:1; fill:white; stroke:black; " class="clusterblast-orf" description="&lt;b&gt;BAV56281.1&lt;/b&gt;&lt;br&gt;hypothetical protein&lt;br&gt;Location: 63795 - 62566"  />
</g>
<g id="a1_008"  >
<polygon locus_tag="BAV56280.1" id="dummy-1_h1_2_8" points="104,90 105,90 110,85 105,80 104,80 104,90 " style="stroke-width:1; fill:white; stroke:black; " class="clusterblast-orf" description="&lt;b&gt;BAV56280.1&lt;/b&gt;&lt;br&gt;hypothetical protein&lt;br&gt;Location: 62351 - 61818"  />
</g>
<g id="a1_009"  >
<polygon locus_tag="BAV56279.1" id="dummy-1_h1_2_9" points="111,85 116,80 117,80 117,90 116,90 111,85 " style="stroke-width:1; fill:white; stroke:black; " class="clusterblast-orf" description="&lt;b&gt;BAV56279.1&lt;/b&gt;&lt;br&gt;hypothetical protein&lt;br&gt;Location: 61691 - 61137"  />
</g>
<g id="a1_0010"  >
<polygon locus_tag="BAV56278.1" id="dummy-1_h1_2_10" points="118,85 123,80 129,80 129,90 123,90 118,85 " style="stroke-width:1; fill:white; stroke:black; " class="clusterblast-orf" description="&lt;b&gt;BAV56278.1&lt;/b&gt;&lt;br&gt;hypothetical protein&lt;br&gt;Location: 61045 - 60119"  />
</g>
<g id="a1_0011"  >
<polygon locus_tag="BAV56277.1" id="dummy-1_h1_2_11" points="132,85 137,80 140,80 140,90 137,90 132,85 " style="stroke-width:1; fill:white; stroke:black; " class="clusterblast-orf" description="&lt;b&gt;BAV56277.1&lt;/b&gt;&lt;br&gt;hypothetical protein&lt;br&gt;Location: 59840 - 59070"  />
</g>
<g id="a1_0012"  >
<polygon locus_tag="BAV56276.1" id="dummy-1_h1_2_12" points="144,85 149,80 150,80 150,90 149,90 144,85 " style="stroke-width:1; fill:white; stroke:black; " class="clusterblast-orf" description="&lt;b&gt;BAV56276.1&lt;/b&gt;&lt;br&gt;hypothetical protein&lt;br&gt;Location: 58721 - 58218"  />
</g>
<g id="a1_0013"  >
<polygon locus_tag="BAV56275.1" id="dummy-1_h1_2_13" points="150,90 154,85 150,80 150,90 " style="stroke-width:1; fill:white; stroke:black; " class="clusterblast-orf" description="&lt;b&gt;BAV56275.1&lt;/b&gt;&lt;br&gt;hypothetical protein&lt;br&gt;Location: 58186 - 57818"  />
</g>
<g id="a1_0014"  >
<polygon locus_tag="BAV56274.1" id="dummy-1_h1_2_14" points="155,90 163,90 168,85 163,80 155,80 155,90 " style="stroke-width:1; fill:white; stroke:black; " class="clusterblast-orf" description="&lt;b&gt;BAV56274.1&lt;/b&gt;&lt;br&gt;hypothetical protein&lt;br&gt;Location: 57773 - 56547"  />
</g>
<g id="a1_0015"  >
<polygon locus_tag="BAV56273.1" id="dummy-1_h1_2_15" points="174,90 193,90 198,85 193,80 174,80 174,90 " style="stroke-width:1; fill:white; stroke:black; " class="clusterblast-orf" description="&lt;b&gt;BAV56273.1&lt;/b&gt;&lt;br&gt;hypothetical protein&lt;br&gt;Location: 56023 - 53843"  />
</g>
<g id="a1_0016"  >
<polygon locus_tag="BAV56272.1" id="dummy-1_h1_2_16" points="202,85 204,80 204,90 202,85 " style="stroke-width:1; fill:#15d815; stroke:black; " class="clusterblast-orf" description="&lt;b&gt;BAV56272.1&lt;/b&gt;&lt;br&gt;hypothetical protein&lt;br&gt;Location: 53546 - 53328&lt;br&gt;&lt;br&gt;&lt;b&gt;BlastP hit with cds1427_1643&lt;/b&gt;&lt;br&gt;Percentage identity: 55&lt;br&gt;Percentage coverage: 92&lt;br&gt;BLAST bit score: 78&lt;br&gt;E-value: 4.2e-15"  />
</g>
<g id="a1_0017"  >
<polygon locus_tag="BAV56271.1" id="dummy-1_h1_2_17" points="205,85 210,80 422,80 422,90 210,90 205,85 " style="stroke-width:1; fill:#1515d8; stroke:black; " class="clusterblast-orf" description="&lt;b&gt;BAV56271.1&lt;/b&gt;&lt;br&gt;&lt;br&gt;Location: 53263 - 33746&lt;br&gt;&lt;br&gt;&lt;b&gt;BlastP hit with cds1648_4987&lt;/b&gt;&lt;br&gt;Percentage identity: 52&lt;br&gt;Percentage coverage: 100&lt;br&gt;BLAST bit score: 993&lt;br&gt;E-value: 2e-289"  />
</g>
<g id="a1_0018"  >
<polygon locus_tag="BAV56270.1" id="dummy-1_h1_2_18" points="422,85 427,80 730,80 730,90 427,90 422,85 " style="stroke-width:1; fill:#1515d8; stroke:black; " class="clusterblast-orf" description="&lt;b&gt;BAV56270.1&lt;/b&gt;&lt;br&gt;&lt;br&gt;Location: 33765 - 5995&lt;br&gt;&lt;br&gt;&lt;b&gt;BlastP hit with cds1648_4987&lt;/b&gt;&lt;br&gt;Percentage identity: 58&lt;br&gt;Percentage coverage: 61&lt;br&gt;BLAST bit score: 665&lt;br&gt;E-value: 1.6e-190"  />
</g>
<g id="a1_0019"  >
<polygon locus_tag="BAV56269.1" id="dummy-1_h1_2_19" points="731,85 736,80 751,80 751,90 736,90 731,85 " style="stroke-width:1; fill:white; stroke:black; " class="clusterblast-orf" description="&lt;b&gt;BAV56269.1&lt;/b&gt;&lt;br&gt;hypothetical protein&lt;br&gt;Location: 5920 - 4160"  />
</g>
<g id="a1_0020"  >
<polygon locus_tag="BAV56268.1" id="dummy-1_h1_2_20" points="761,85 766,80 779,80 779,90 766,90 761,85 " style="stroke-width:1; fill:white; stroke:black; " class="clusterblast-orf" description="&lt;b&gt;BAV56268.1&lt;/b&gt;&lt;br&gt;hypothetical protein&lt;br&gt;Location: 3240 - 1564"  />
</g>
</svg>
