<svg xmlns:xlink="http://www.w3.org/1999/xlink" preserveAspectRatio="none" width="800" xmlns="http://www.w3.org/2000/svg" version="1.1" x="0" viewBox="0 0 800 230" height="230" y="0"  >
<g label="Query sequence" class="clusterblast-cluster"  >
<text x="5" y="20" class="clusterblast-acc"  >
Query sequence</text>
<line x2="778.0" style="stroke-width:1; stroke:grey; " y1="35" x1="10" y2="35"  />
<polygon locus_tag="cds1_11311" id="dummy-1_q0_0_all" points="248,40 365,40 370,35 365,30 248,30 248,40 " style="stroke-width:1; fill:#d81515; stroke:black; " class="clusterblast-orf" description="&lt;b&gt;cds1_11311&lt;/b&gt;&lt;br&gt;Polyketide synthase modules and related proteins&lt;br&gt;Location: 1 - 11311"  />
<polygon locus_tag="cds11307_22911" id="dummy-1_q1_0_all" points="370,40 490,40 495,35 490,30 370,30 370,40 " style="stroke-width:1; fill:#d81515; stroke:black; " class="clusterblast-orf" description="&lt;b&gt;cds11307_22911&lt;/b&gt;&lt;br&gt;Polyketide synthase modules and related proteins&lt;br&gt;Location: 11307 - 22911"  />
<polygon locus_tag="cds22907_24167" id="dummy-1_q2_0_all" points="495,40 504,40 509,35 504,30 495,30 495,40 " style="stroke-width:1; fill:white; stroke:black; " class="clusterblast-orf" description="&lt;b&gt;cds22907_24167&lt;/b&gt;&lt;br&gt;transcriptional regulator, Crp/Fnr family&lt;br&gt;Location: 22907 - 24167"  />
<polygon locus_tag="cds24228_25269" id="dummy-1_q3_0_all" points="509,40 516,40 521,35 516,30 509,30 509,40 " style="stroke-width:1; fill:#15d815; stroke:black; " class="clusterblast-orf" description="&lt;b&gt;cds24228_25269&lt;/b&gt;&lt;br&gt;Polyketide synthase modules and related proteins&lt;br&gt;Location: 24228 - 25269"  />
<polygon locus_tag="cds25282_26230" id="dummy-1_q4_0_all" points="521,40 526,40 531,35 526,30 521,30 521,40 " style="stroke-width:1; fill:#1515d8; stroke:black; " class="clusterblast-orf" description="&lt;b&gt;cds25282_26230&lt;/b&gt;&lt;br&gt;SyrP-like protein&lt;br&gt;Location: 25282 - 26230"  />
</g>
<g label="BGC0001448" class="clusterblast-cluster" description="BGC0001448_c1: malacidin A / malacidin B (5% of genes show similarity), NRP:Ca+-dependent lipopeptide"  >
<text x="5" y="70" class="clusterblast-acc"  >
<a xlink:href="https://mibig.secondarymetabolites.org/go/BGC0001448/1" target="_blank">BGC0001448</a>:                                                        malacidin A / malacidin B (5% of genes show similarity), NRP:Ca+-dependent lipopeptide</text>
<line x2="778.0" style="stroke-width:1; stroke:grey; " y1="85" x1="10" y2="85"  />
</g>
<g id="a1_000"  >
<polygon locus_tag="ARU08060.1" id="dummy-1_h1_8_0" points="0,85 4,80 4,90 0,85 " style="stroke-width:1; fill:white; stroke:black; " class="clusterblast-orf" description="&lt;b&gt;ARU08060.1&lt;/b&gt;&lt;br&gt;hypothetical protein&lt;br&gt;Location: 1 - 459"  />
</g>
<g id="a1_001"  >
<polygon locus_tag="ARU08061.1" id="dummy-1_h1_8_1" points="4,85 9,80 13,80 13,90 9,90 4,85 " style="stroke-width:1; fill:white; stroke:black; " class="clusterblast-orf" description="&lt;b&gt;ARU08061.1&lt;/b&gt;&lt;br&gt;hypothetical protein&lt;br&gt;Location: 459 - 1232"  />
</g>
<g id="a1_002"  >
<polygon locus_tag="ARU08062.1" id="dummy-1_h1_8_2" points="13,85 18,80 23,80 23,90 18,90 13,85 " style="stroke-width:1; fill:white; stroke:black; " class="clusterblast-orf" description="&lt;b&gt;ARU08062.1&lt;/b&gt;&lt;br&gt;hypothetical protein&lt;br&gt;Location: 1271 - 2197"  />
</g>
<g id="a1_003"  >
<polygon locus_tag="ARU08063.1" id="dummy-1_h1_8_3" points="26,90 55,90 60,85 55,80 26,80 26,90 " style="stroke-width:1; fill:white; stroke:black; " class="clusterblast-orf" description="&lt;b&gt;ARU08063.1&lt;/b&gt;&lt;br&gt;mlcA&lt;br&gt;Location: 2471 - 5602"  />
</g>
<g id="a1_004"  >
<polygon locus_tag="ARU08064.1" id="dummy-1_h1_8_4" points="60,90 64,90 69,85 64,80 60,80 60,90 " style="stroke-width:1; fill:white; stroke:black; " class="clusterblast-orf" description="&lt;b&gt;ARU08064.1&lt;/b&gt;&lt;br&gt;mlcB&lt;br&gt;Location: 5593 - 6489"  />
</g>
<g id="a1_005"  >
<polygon locus_tag="ARU08065.1" id="dummy-1_h1_8_5" points="70,90 75,90 80,85 75,80 70,80 70,90 " style="stroke-width:1; fill:#1515d8; stroke:black; " class="clusterblast-orf" description="&lt;b&gt;ARU08065.1&lt;/b&gt;&lt;br&gt;mlcC&lt;br&gt;Location: 6507 - 7445&lt;br&gt;&lt;br&gt;&lt;b&gt;BlastP hit with cds25282_26230&lt;/b&gt;&lt;br&gt;Percentage identity: 63&lt;br&gt;Percentage coverage: 97&lt;br&gt;BLAST bit score: 405&lt;br&gt;E-value: 8.6e-113"  />
</g>
<g id="a1_006"  >
<polygon locus_tag="ARU08066.1" id="dummy-1_h1_8_6" points="80,85 85,80 89,80 89,90 85,90 80,85 " style="stroke-width:1; fill:white; stroke:black; " class="clusterblast-orf" description="&lt;b&gt;ARU08066.1&lt;/b&gt;&lt;br&gt;mlcD&lt;br&gt;Location: 7504 - 8319"  />
</g>
<g id="a1_007"  >
<polygon locus_tag="ARU08067.1" id="dummy-1_h1_8_7" points="89,85 94,80 102,80 102,90 94,90 89,85 " style="stroke-width:1; fill:white; stroke:black; " class="clusterblast-orf" description="&lt;b&gt;ARU08067.1&lt;/b&gt;&lt;br&gt;mlcE&lt;br&gt;Location: 8316 - 9533"  />
</g>
<g id="a1_008"  >
<polygon locus_tag="ARU08068.1" id="dummy-1_h1_8_8" points="102,85 107,80 108,80 108,90 107,90 102,85 " style="stroke-width:1; fill:white; stroke:black; " class="clusterblast-orf" description="&lt;b&gt;ARU08068.1&lt;/b&gt;&lt;br&gt;mlcF&lt;br&gt;Location: 9539 - 10012"  />
</g>
<g id="a1_009"  >
<polygon locus_tag="ARU08069.1" id="dummy-1_h1_8_9" points="110,90 124,90 129,85 124,80 110,80 110,90 " style="stroke-width:1; fill:white; stroke:black; " class="clusterblast-orf" description="&lt;b&gt;ARU08069.1&lt;/b&gt;&lt;br&gt;mlcG&lt;br&gt;Location: 10224 - 11987"  />
</g>
<g id="a1_0010"  >
<polygon locus_tag="ARU08070.1" id="dummy-1_h1_8_10" points="129,90 139,90 144,85 139,80 129,80 129,90 " style="stroke-width:1; fill:white; stroke:black; " class="clusterblast-orf" description="&lt;b&gt;ARU08070.1&lt;/b&gt;&lt;br&gt;mlcH&lt;br&gt;Location: 11987 - 13420"  />
</g>
<g id="a1_0011"  >
<polygon locus_tag="ARU08071.1" id="dummy-1_h1_8_11" points="144,90 156,90 161,85 156,80 144,80 144,90 " style="stroke-width:1; fill:white; stroke:black; " class="clusterblast-orf" description="&lt;b&gt;ARU08071.1&lt;/b&gt;&lt;br&gt;mlcI&lt;br&gt;Location: 13417 - 15012"  />
</g>
<g id="a1_0012"  >
<polygon locus_tag="ARU08072.1" id="dummy-1_h1_8_12" points="162,90 164,85 162,80 162,90 " style="stroke-width:1; fill:white; stroke:black; " class="clusterblast-orf" description="&lt;b&gt;ARU08072.1&lt;/b&gt;&lt;br&gt;mlcJ&lt;br&gt;Location: 15023 - 15292"  />
</g>
<g id="a1_0013"  >
<polygon locus_tag="ARU08073.1" id="dummy-1_h1_8_13" points="165,90 259,90 264,85 259,80 165,80 165,90 " style="stroke-width:1; fill:white; stroke:black; " class="clusterblast-orf" description="&lt;b&gt;ARU08073.1&lt;/b&gt;&lt;br&gt;mlcK&lt;br&gt;Location: 15319 - 24513"  />
</g>
<g id="a1_0014"  >
<polygon locus_tag="ARU08074.1" id="dummy-1_h1_8_14" points="264,90 441,90 446,85 441,80 264,80 264,90 " style="stroke-width:1; fill:#d81515; stroke:black; " class="clusterblast-orf" description="&lt;b&gt;ARU08074.1&lt;/b&gt;&lt;br&gt;mlcL&lt;br&gt;Location: 24510 - 41396&lt;br&gt;&lt;br&gt;&lt;b&gt;BlastP hit with cds1_11311&lt;/b&gt;&lt;br&gt;Percentage identity: 51&lt;br&gt;Percentage coverage: 101&lt;br&gt;BLAST bit score: 3231&lt;br&gt;E-value: 0.0&lt;br&gt;&lt;br&gt;&lt;b&gt;BlastP hit with cds11307_22911&lt;/b&gt;&lt;br&gt;Percentage identity: 52&lt;br&gt;Percentage coverage: 79&lt;br&gt;BLAST bit score: 2825&lt;br&gt;E-value: 0.0"  />
</g>
<g id="a1_0015"  >
<polygon locus_tag="ARU08075.1" id="dummy-1_h1_8_15" points="446,90 515,90 520,85 515,80 446,80 446,90 " style="stroke-width:1; fill:white; stroke:black; " class="clusterblast-orf" description="&lt;b&gt;ARU08075.1&lt;/b&gt;&lt;br&gt;mlcM&lt;br&gt;Location: 41401 - 48243"  />
</g>
<g id="a1_0016"  >
<polygon locus_tag="ARU08076.1" id="dummy-1_h1_8_16" points="520,85 525,80 533,80 533,90 525,90 520,85 " style="stroke-width:1; fill:white; stroke:black; " class="clusterblast-orf" description="&lt;b&gt;ARU08076.1&lt;/b&gt;&lt;br&gt;hypothetical protein&lt;br&gt;Location: 48218 - 49435"  />
</g>
<g id="a1_0017"  >
<polygon locus_tag="ARU08077.1" id="dummy-1_h1_8_17" points="533,85 536,80 536,90 533,85 " style="stroke-width:1; fill:white; stroke:black; " class="clusterblast-orf" description="&lt;b&gt;ARU08077.1&lt;/b&gt;&lt;br&gt;hypothetical protein&lt;br&gt;Location: 49495 - 49689"  />
</g>
<g id="a1_0018"  >
<polygon locus_tag="ARU08078.1" id="dummy-1_h1_8_18" points="536,85 541,80 543,80 543,90 541,90 536,85 " style="stroke-width:1; fill:white; stroke:black; " class="clusterblast-orf" description="&lt;b&gt;ARU08078.1&lt;/b&gt;&lt;br&gt;hypothetical protein&lt;br&gt;Location: 49752 - 50345"  />
</g>
<g id="a1_0019"  >
<polygon locus_tag="ARU08079.1" id="dummy-1_h1_8_19" points="545,90 546,90 551,85 546,80 545,80 545,90 " style="stroke-width:1; fill:white; stroke:black; " class="clusterblast-orf" description="&lt;b&gt;ARU08079.1&lt;/b&gt;&lt;br&gt;hypothetical protein&lt;br&gt;Location: 50606 - 51100"  />
</g>
<g id="a1_0020"  >
<polygon locus_tag="ARU08080.1" id="dummy-1_h1_8_20" points="552,90 556,90 561,85 556,80 552,80 552,90 " style="stroke-width:1; fill:white; stroke:black; " class="clusterblast-orf" description="&lt;b&gt;ARU08080.1&lt;/b&gt;&lt;br&gt;hypothetical protein&lt;br&gt;Location: 51182 - 52045"  />
</g>
<g id="a1_0021"  >
<polygon locus_tag="ARU08081.1" id="dummy-1_h1_8_21" points="561,85 565,80 565,90 561,85 " style="stroke-width:1; fill:white; stroke:black; " class="clusterblast-orf" description="&lt;b&gt;ARU08081.1&lt;/b&gt;&lt;br&gt;hypothetical protein&lt;br&gt;Location: 52042 - 52446"  />
</g>
<g id="a1_0022"  >
<polygon locus_tag="ARU08082.1" id="dummy-1_h1_8_22" points="566,85 571,80 575,80 575,90 571,90 566,85 " style="stroke-width:1; fill:white; stroke:black; " class="clusterblast-orf" description="&lt;b&gt;ARU08082.1&lt;/b&gt;&lt;br&gt;mlcN&lt;br&gt;Location: 52469 - 53380"  />
</g>
<g id="a1_0023"  >
<polygon locus_tag="ARU08083.1" id="dummy-1_h1_8_23" points="575,85 580,80 585,80 585,90 580,90 575,85 " style="stroke-width:1; fill:white; stroke:black; " class="clusterblast-orf" description="&lt;b&gt;ARU08083.1&lt;/b&gt;&lt;br&gt;mlcO&lt;br&gt;Location: 53377 - 54312"  />
</g>
<g id="a1_0024"  >
<polygon locus_tag="ARU08084.1" id="dummy-1_h1_8_24" points="586,85 591,80 595,80 595,90 591,90 586,85 " style="stroke-width:1; fill:white; stroke:black; " class="clusterblast-orf" description="&lt;b&gt;ARU08084.1&lt;/b&gt;&lt;br&gt;mlcP&lt;br&gt;Location: 54377 - 55243"  />
</g>
<g id="a1_0025"  >
<polygon locus_tag="ARU08085.1" id="dummy-1_h1_8_25" points="595,90 598,85 595,80 595,90 " style="stroke-width:1; fill:white; stroke:black; " class="clusterblast-orf" description="&lt;b&gt;ARU08085.1&lt;/b&gt;&lt;br&gt;hypothetical protein&lt;br&gt;Location: 55242 - 55457"  />
</g>
<g id="a1_0026"  >
<polygon locus_tag="ARU08086.1" id="dummy-1_h1_8_26" points="598,85 603,80 610,80 610,90 603,90 598,85 " style="stroke-width:1; fill:white; stroke:black; " class="clusterblast-orf" description="&lt;b&gt;ARU08086.1&lt;/b&gt;&lt;br&gt;mlcQ&lt;br&gt;Location: 55515 - 56600"  />
</g>
<g id="a1_0027"  >
<polygon locus_tag="ARU08087.1" id="dummy-1_h1_8_27" points="610,85 615,80 619,80 619,90 615,90 610,85 " style="stroke-width:1; fill:white; stroke:black; " class="clusterblast-orf" description="&lt;b&gt;ARU08087.1&lt;/b&gt;&lt;br&gt;mlcR&lt;br&gt;Location: 56597 - 57397"  />
</g>
<g id="a1_0028"  >
<polygon locus_tag="ARU08088.1" id="dummy-1_h1_8_28" points="619,85 624,80 643,80 643,90 624,90 619,85 " style="stroke-width:1; fill:white; stroke:black; " class="clusterblast-orf" description="&lt;b&gt;ARU08088.1&lt;/b&gt;&lt;br&gt;mlcS&lt;br&gt;Location: 57408 - 59663"  />
</g>
<g id="a1_0029"  >
<polygon locus_tag="ARU08089.1" id="dummy-1_h1_8_29" points="643,85 648,80 662,80 662,90 648,90 643,85 " style="stroke-width:1; fill:white; stroke:black; " class="clusterblast-orf" description="&lt;b&gt;ARU08089.1&lt;/b&gt;&lt;br&gt;mlcT&lt;br&gt;Location: 59660 - 61381"  />
</g>
<g id="a1_0030"  >
<polygon locus_tag="ARU08090.1" id="dummy-1_h1_8_30" points="668,90 671,85 668,80 668,90 " style="stroke-width:1; fill:white; stroke:black; " class="clusterblast-orf" description="&lt;b&gt;ARU08090.1&lt;/b&gt;&lt;br&gt;mlcU&lt;br&gt;Location: 62005 - 62271"  />
</g>
<g id="a1_0031"  >
<polygon locus_tag="ARU08091.1" id="dummy-1_h1_8_31" points="672,90 675,85 672,80 672,90 " style="stroke-width:1; fill:white; stroke:black; " class="clusterblast-orf" description="&lt;b&gt;ARU08091.1&lt;/b&gt;&lt;br&gt;mlcV&lt;br&gt;Location: 62354 - 62572"  />
</g>
<g id="a1_0032"  >
<polygon locus_tag="ARU08092.1" id="dummy-1_h1_8_32" points="676,90 677,90 682,85 677,80 676,80 676,90 " style="stroke-width:1; fill:white; stroke:black; " class="clusterblast-orf" description="&lt;b&gt;ARU08092.1&lt;/b&gt;&lt;br&gt;hypothetical protein&lt;br&gt;Location: 62712 - 63257"  />
</g>
<g id="a1_0033"  >
<polygon locus_tag="ARU08093.1" id="dummy-1_h1_8_33" points="682,90 685,90 690,85 685,80 682,80 682,90 " style="stroke-width:1; fill:white; stroke:black; " class="clusterblast-orf" description="&lt;b&gt;ARU08093.1&lt;/b&gt;&lt;br&gt;mlcW&lt;br&gt;Location: 63298 - 63984"  />
</g>
<g id="a1_0034"  >
<polygon locus_tag="ARU08094.1" id="dummy-1_h1_8_34" points="690,90 694,90 699,85 694,80 690,80 690,90 " style="stroke-width:1; fill:white; stroke:black; " class="clusterblast-orf" description="&lt;b&gt;ARU08094.1&lt;/b&gt;&lt;br&gt;hypothetical protein&lt;br&gt;Location: 64023 - 64817"  />
</g>
<g id="a1_0035"  >
<polygon locus_tag="ARU08095.1" id="dummy-1_h1_8_35" points="699,90 704,90 709,85 704,80 699,80 699,90 " style="stroke-width:1; fill:white; stroke:black; " class="clusterblast-orf" description="&lt;b&gt;ARU08095.1&lt;/b&gt;&lt;br&gt;mlcX&lt;br&gt;Location: 64814 - 65797"  />
</g>
<g id="a1_0036"  >
<polygon locus_tag="ARU08096.1" id="dummy-1_h1_8_36" points="716,90 744,90 749,85 744,80 716,80 716,90 " style="stroke-width:1; fill:white; stroke:black; " class="clusterblast-orf" description="&lt;b&gt;ARU08096.1&lt;/b&gt;&lt;br&gt;mlcY&lt;br&gt;Location: 66442 - 69489"  />
</g>
<g id="a1_0037"  >
<polygon locus_tag="ARU08097.1" id="dummy-1_h1_8_37" points="753,85 758,80 765,80 765,90 758,90 753,85 " style="stroke-width:1; fill:white; stroke:black; " class="clusterblast-orf" description="&lt;b&gt;ARU08097.1&lt;/b&gt;&lt;br&gt;hypothetical protein&lt;br&gt;Location: 69828 - 70919"  />
</g>
<g id="a1_0038"  >
<polygon locus_tag="ARU08098.1" id="dummy-1_h1_8_38" points="765,85 770,80 780,80 780,90 770,90 765,85 " style="stroke-width:1; fill:white; stroke:black; " class="clusterblast-orf" description="&lt;b&gt;ARU08098.1&lt;/b&gt;&lt;br&gt;hypothetical protein&lt;br&gt;Location: 70916 - 72298"  />
</g>
</svg>
