<svg xmlns:xlink="http://www.w3.org/1999/xlink" preserveAspectRatio="none" width="800" xmlns="http://www.w3.org/2000/svg" version="1.1" x="0" viewBox="0 0 800 230" height="230" y="0"  >
<g label="Query sequence" class="clusterblast-cluster"  >
<text x="5" y="20" class="clusterblast-acc"  >
Query sequence</text>
<line x2="778.0" style="stroke-width:1; stroke:grey; " y1="35" x1="10" y2="35"  />
<polygon locus_tag="cds107_1316" id="dummy-1_q0_0_all" points="280,35 285,30 299,30 299,40 285,40 280,35 " style="stroke-width:1; fill:#d81515; stroke:black; " class="clusterblast-orf" description="&lt;b&gt;cds107_1316&lt;/b&gt;&lt;br&gt;Polyketide chain length factor WhiE-CLF paralog&lt;br&gt;Location: 107 - 1316"  />
<polygon locus_tag="cds1312_2581" id="dummy-1_q1_0_all" points="298,35 303,30 317,30 317,40 303,40 298,35 " style="stroke-width:1; fill:#33d815; stroke:black; " class="clusterblast-orf" description="&lt;b&gt;cds1312_2581&lt;/b&gt;&lt;br&gt;Polyketide beta-ketoacyl synthase WhiE-KS paralog&lt;br&gt;Location: 1312 - 2581"  />
<polygon locus_tag="cds2577_3558" id="dummy-1_q2_0_all" points="317,35 322,30 332,30 332,40 322,40 317,35 " style="stroke-width:1; fill:#15abd8; stroke:black; " class="clusterblast-orf" description="&lt;b&gt;cds2577_3558&lt;/b&gt;&lt;br&gt;dTDP-glucose 4,6-dehydratase (EC 4.2.1.46)&lt;br&gt;Location: 2577 - 3558"  />
<polygon locus_tag="cds3554_4622" id="dummy-1_q3_0_all" points="332,35 337,30 348,30 348,40 337,40 332,35 " style="stroke-width:1; fill:#8d15d8; stroke:black; " class="clusterblast-orf" description="&lt;b&gt;cds3554_4622&lt;/b&gt;&lt;br&gt;Glucose-1-phosphate thymidylyltransferase (EC 2.7.7.24)&lt;br&gt;Location: 3554 - 4622"  />
<polygon locus_tag="cds4798_5557" id="dummy-1_q4_0_all" points="351,40 357,40 362,35 357,30 351,30 351,40 " style="stroke-width:1; fill:#d86f15; stroke:black; " class="clusterblast-orf" description="&lt;b&gt;cds4798_5557&lt;/b&gt;&lt;br&gt;Macrocin O-methyltransferase (EC 2.1.1.101)&lt;br&gt;Location: 4798 - 5557"  />
<polygon locus_tag="cds5529_6474" id="dummy-1_q5_0_all" points="362,35 367,30 376,30 376,40 367,40 362,35 " style="stroke-width:1; fill:#15d851; stroke:black; " class="clusterblast-orf" description="&lt;b&gt;cds5529_6474&lt;/b&gt;&lt;br&gt;hypothetical protein&lt;br&gt;Location: 5529 - 6474"  />
<polygon locus_tag="cds6902_7931" id="dummy-1_q6_0_all" points="382,40 392,40 397,35 392,30 382,30 382,40 " style="stroke-width:1; fill:#1551d8; stroke:black; " class="clusterblast-orf" description="&lt;b&gt;cds6902_7931&lt;/b&gt;&lt;br&gt;hypothetical protein&lt;br&gt;Location: 6902 - 7931"  />
<polygon locus_tag="cds7939_8695" id="dummy-1_q7_0_all" points="398,40 404,40 409,35 404,30 398,30 398,40 " style="stroke-width:1; fill:#d815c9; stroke:black; " class="clusterblast-orf" description="&lt;b&gt;cds7939_8695&lt;/b&gt;&lt;br&gt;hypothetical protein&lt;br&gt;Location: 7939 - 8695"  />
<polygon locus_tag="cds8705_9731" id="dummy-1_q8_0_all" points="409,40 419,40 424,35 419,30 409,30 409,40 " style="stroke-width:1; fill:#d8c915; stroke:black; " class="clusterblast-orf" description="&lt;b&gt;cds8705_9731&lt;/b&gt;&lt;br&gt;O-methyltransferase, family 2&lt;br&gt;Location: 8705 - 9731"  />
<polygon locus_tag="cds9771_10944" id="dummy-1_q9_0_all" points="425,40 438,40 443,35 438,30 425,30 425,40 " style="stroke-width:1; fill:#15d8ab; stroke:black; " class="clusterblast-orf" description="&lt;b&gt;cds9771_10944&lt;/b&gt;&lt;br&gt;hypothetical protein&lt;br&gt;Location: 9771 - 10944"  />
<polygon locus_tag="cds10956_12465" id="dummy-1_q10_0_all" points="443,40 460,40 465,35 460,30 443,30 443,40 " style="stroke-width:1; fill:#3315d8; stroke:black; " class="clusterblast-orf" description="&lt;b&gt;cds10956_12465&lt;/b&gt;&lt;br&gt;Rifampin monooxygenase&lt;br&gt;Location: 10956 - 12465"  />
<polygon locus_tag="cds12471_13452" id="dummy-1_q11_0_all" points="465,40 475,40 480,35 475,30 465,30 465,40 " style="stroke-width:1; fill:#d8156f; stroke:black; " class="clusterblast-orf" description="&lt;b&gt;cds12471_13452&lt;/b&gt;&lt;br&gt;Potassium channel beta chain&lt;br&gt;Location: 12471 - 13452"  />
<polygon locus_tag="cds13481_14711" id="dummy-1_q12_0_all" points="480,40 494,40 499,35 494,30 480,30 480,40 " style="stroke-width:1; fill:#8dd815; stroke:black; " class="clusterblast-orf" description="&lt;b&gt;cds13481_14711&lt;/b&gt;&lt;br&gt;hypothetical protein&lt;br&gt;Location: 13481 - 14711"  />
</g>
<g label="BGC0001061" class="clusterblast-cluster" description="BGC0001061_c1: polyketomycin (11% of genes show similarity), Polyketide:Iterative type I + Polyketide:Type II + Saccharide:Hybrid/tailoring"  >
<text x="5" y="70" class="clusterblast-acc"  >
<a xlink:href="https://mibig.secondarymetabolites.org/go/BGC0001061/1" target="_blank">BGC0001061</a>:                                                                    polyketomycin (11% of genes show similarity), Polyketide:Iterative type I + Polyketide:Type II + Saccharide:Hybrid/tailoring</text>
<line x2="778.0" style="stroke-width:1; stroke:grey; " y1="85" x1="10" y2="85"  />
</g>
<g id="a1_000"  >
<polygon locus_tag="ACN64858.1" id="dummy-1_h1_7_0" points="0,85 4,80 4,90 0,85 " style="stroke-width:1; fill:white; stroke:black; " class="clusterblast-orf" description="&lt;b&gt;ACN64858.1&lt;/b&gt;&lt;br&gt;PokX1&lt;br&gt;Location: 52164 - 51876"  />
</g>
<g id="a1_001"  >
<polygon locus_tag="ACN64857.1" id="dummy-1_h1_7_1" points="8,85 13,80 22,80 22,90 13,90 8,85 " style="stroke-width:1; fill:white; stroke:black; " class="clusterblast-orf" description="&lt;b&gt;ACN64857.1&lt;/b&gt;&lt;br&gt;PokU3&lt;br&gt;Location: 51608 - 50634"  />
</g>
<g id="a1_002"  >
<polygon locus_tag="ACN64856.1" id="dummy-1_h1_7_2" points="26,85 31,80 40,80 40,90 31,90 26,85 " style="stroke-width:1; fill:white; stroke:black; " class="clusterblast-orf" description="&lt;b&gt;ACN64856.1&lt;/b&gt;&lt;br&gt;PokS9&lt;br&gt;Location: 50393 - 49434"  />
</g>
<g id="a1_003"  >
<polygon locus_tag="ACN64855.1" id="dummy-1_h1_7_3" points="40,85 45,80 49,80 49,90 45,90 40,85 " style="stroke-width:1; fill:white; stroke:black; " class="clusterblast-orf" description="&lt;b&gt;ACN64855.1&lt;/b&gt;&lt;br&gt;PokS7&lt;br&gt;Location: 49437 - 48823"  />
</g>
<g id="a1_004"  >
<polygon locus_tag="ACN64854.1" id="dummy-1_h1_7_4" points="49,85 54,80 72,80 72,90 54,90 49,85 " style="stroke-width:1; fill:#3315d8; stroke:black; " class="clusterblast-orf" description="&lt;b&gt;ACN64854.1&lt;/b&gt;&lt;br&gt;PokO4&lt;br&gt;Location: 48826 - 47306&lt;br&gt;&lt;br&gt;&lt;b&gt;BlastP hit with cds10956_12465&lt;/b&gt;&lt;br&gt;Percentage identity: 48&lt;br&gt;Percentage coverage: 101&lt;br&gt;BLAST bit score: 395&lt;br&gt;E-value: 1.1e-109"  />
</g>
<g id="a1_005"  >
<polygon locus_tag="ACN64853.1" id="dummy-1_h1_7_5" points="78,90 97,90 102,85 97,80 78,80 78,90 " style="stroke-width:1; fill:white; stroke:black; " class="clusterblast-orf" description="&lt;b&gt;ACN64853.1&lt;/b&gt;&lt;br&gt;PokO2&lt;br&gt;Location: 46937 - 45312"  />
</g>
<g id="a1_006"  >
<polygon locus_tag="ACN64852.1" id="dummy-1_h1_7_6" points="102,90 108,90 113,85 108,80 102,80 102,90 " style="stroke-width:1; fill:white; stroke:black; " class="clusterblast-orf" description="&lt;b&gt;ACN64852.1&lt;/b&gt;&lt;br&gt;PokT2&lt;br&gt;Location: 45302 - 44547"  />
</g>
<g id="a1_007"  >
<polygon locus_tag="ACN64851.1" id="dummy-1_h1_7_7" points="114,90 123,90 128,85 123,80 114,80 114,90 " style="stroke-width:1; fill:white; stroke:black; " class="clusterblast-orf" description="&lt;b&gt;ACN64851.1&lt;/b&gt;&lt;br&gt;PokC3&lt;br&gt;Location: 44497 - 43553"  />
</g>
<g id="a1_008"  >
<polygon locus_tag="ACN64850.1" id="dummy-1_h1_7_8" points="128,90 145,90 150,85 145,80 128,80 128,90 " style="stroke-width:1; fill:white; stroke:black; " class="clusterblast-orf" description="&lt;b&gt;ACN64850.1&lt;/b&gt;&lt;br&gt;PokL&lt;br&gt;Location: 43560 - 42073"  />
</g>
<g id="a1_009"  >
<polygon locus_tag="ACN64849.1" id="dummy-1_h1_7_9" points="150,90 150,90 155,85 150,80 150,80 150,90 " style="stroke-width:1; fill:white; stroke:black; " class="clusterblast-orf" description="&lt;b&gt;ACN64849.1&lt;/b&gt;&lt;br&gt;PokO3&lt;br&gt;Location: 42076 - 41747"  />
</g>
<g id="a1_0010"  >
<polygon locus_tag="ACN64848.1" id="dummy-1_h1_7_10" points="157,85 162,80 163,80 163,90 162,90 157,85 " style="stroke-width:1; fill:white; stroke:black; " class="clusterblast-orf" description="&lt;b&gt;ACN64848.1&lt;/b&gt;&lt;br&gt;PokC1&lt;br&gt;Location: 41663 - 41211"  />
</g>
<g id="a1_0011"  >
<polygon locus_tag="ACN64847.1" id="dummy-1_h1_7_11" points="165,85 170,80 182,80 182,90 170,90 165,85 " style="stroke-width:1; fill:white; stroke:black; " class="clusterblast-orf" description="&lt;b&gt;ACN64847.1&lt;/b&gt;&lt;br&gt;PokMT3&lt;br&gt;Location: 41092 - 39977"  />
</g>
<g id="a1_0012"  >
<polygon locus_tag="ACN64846.1" id="dummy-1_h1_7_12" points="182,85 187,80 194,80 194,90 187,90 182,85 " style="stroke-width:1; fill:white; stroke:black; " class="clusterblast-orf" description="&lt;b&gt;ACN64846.1&lt;/b&gt;&lt;br&gt;PokC2&lt;br&gt;Location: 39971 - 39186"  />
</g>
<g id="a1_0013"  >
<polygon locus_tag="ACN64845.1" id="dummy-1_h1_7_13" points="194,85 199,80 212,80 212,90 199,90 194,85 " style="stroke-width:1; fill:white; stroke:black; " class="clusterblast-orf" description="&lt;b&gt;ACN64845.1&lt;/b&gt;&lt;br&gt;PokO1&lt;br&gt;Location: 39179 - 37950"  />
</g>
<g id="a1_0014"  >
<polygon locus_tag="ACN64844.1" id="dummy-1_h1_7_14" points="212,85 217,80 224,80 224,90 217,90 212,85 " style="stroke-width:1; fill:white; stroke:black; " class="clusterblast-orf" description="&lt;b&gt;ACN64844.1&lt;/b&gt;&lt;br&gt;PokT1&lt;br&gt;Location: 37938 - 37159"  />
</g>
<g id="a1_0015"  >
<polygon locus_tag="ACN64843.1" id="dummy-1_h1_7_15" points="231,90 241,90 246,85 241,80 231,80 231,90 " style="stroke-width:1; fill:white; stroke:black; " class="clusterblast-orf" description="&lt;b&gt;ACN64843.1&lt;/b&gt;&lt;br&gt;PokMT2&lt;br&gt;Location: 36714 - 35677"  />
</g>
<g id="a1_0016"  >
<polygon locus_tag="ACN64842.1" id="dummy-1_h1_7_16" points="248,85 253,80 260,80 260,90 253,90 248,85 " style="stroke-width:1; fill:white; stroke:black; " class="clusterblast-orf" description="&lt;b&gt;ACN64842.1&lt;/b&gt;&lt;br&gt;PokR2&lt;br&gt;Location: 35525 - 34713"  />
</g>
<g id="a1_0017"  >
<polygon locus_tag="ACN64841.1" id="dummy-1_h1_7_17" points="263,85 268,80 278,80 278,90 268,90 263,85 " style="stroke-width:1; fill:#15abd8; stroke:black; " class="clusterblast-orf" description="&lt;b&gt;ACN64841.1&lt;/b&gt;&lt;br&gt;PokS2&lt;br&gt;Location: 34519 - 33530&lt;br&gt;&lt;br&gt;&lt;b&gt;BlastP hit with cds2577_3558&lt;/b&gt;&lt;br&gt;Percentage identity: 63&lt;br&gt;Percentage coverage: 96&lt;br&gt;BLAST bit score: 408&lt;br&gt;E-value: 8.1e-114"  />
</g>
<g id="a1_0018"  >
<polygon locus_tag="ACN64840.1" id="dummy-1_h1_7_18" points="278,85 283,80 294,80 294,90 283,90 278,85 " style="stroke-width:1; fill:#8d15d8; stroke:black; " class="clusterblast-orf" description="&lt;b&gt;ACN64840.1&lt;/b&gt;&lt;br&gt;PokS1&lt;br&gt;Location: 33533 - 32469&lt;br&gt;&lt;br&gt;&lt;b&gt;BlastP hit with cds3554_4622&lt;/b&gt;&lt;br&gt;Percentage identity: 56&lt;br&gt;Percentage coverage: 75&lt;br&gt;BLAST bit score: 301&lt;br&gt;E-value: 2e-81"  />
</g>
<g id="a1_0019"  >
<polygon locus_tag="ACN64839.1" id="dummy-1_h1_7_19" points="294,85 299,80 315,80 315,90 299,90 294,85 " style="stroke-width:1; fill:white; stroke:black; " class="clusterblast-orf" description="&lt;b&gt;ACN64839.1&lt;/b&gt;&lt;br&gt;PokAC2&lt;br&gt;Location: 32454 - 31042"  />
</g>
<g id="a1_0020"  >
<polygon locus_tag="ACN64838.1" id="dummy-1_h1_7_20" points="315,85 320,80 323,80 323,90 320,90 315,85 " style="stroke-width:1; fill:white; stroke:black; " class="clusterblast-orf" description="&lt;b&gt;ACN64838.1&lt;/b&gt;&lt;br&gt;PokAC3&lt;br&gt;Location: 31035 - 30499"  />
</g>
<g id="a1_0021"  >
<polygon locus_tag="ACN64837.1" id="dummy-1_h1_7_21" points="324,85 329,80 350,80 350,90 329,90 324,85 " style="stroke-width:1; fill:white; stroke:black; " class="clusterblast-orf" description="&lt;b&gt;ACN64837.1&lt;/b&gt;&lt;br&gt;PokAC1&lt;br&gt;Location: 30494 - 28755"  />
</g>
<g id="a1_0022"  >
<polygon locus_tag="ACN64836.1" id="dummy-1_h1_7_22" points="349,85 353,80 353,90 349,85 " style="stroke-width:1; fill:white; stroke:black; " class="clusterblast-orf" description="&lt;b&gt;ACN64836.1&lt;/b&gt;&lt;br&gt;PokP3&lt;br&gt;Location: 28758 - 28501"  />
</g>
<g id="a1_0023"  >
<polygon locus_tag="ACN64835.1" id="dummy-1_h1_7_23" points="354,85 359,80 372,80 372,90 359,90 354,85 " style="stroke-width:1; fill:#d81515; stroke:black; " class="clusterblast-orf" description="&lt;b&gt;ACN64835.1&lt;/b&gt;&lt;br&gt;PokP2&lt;br&gt;Location: 28460 - 27237&lt;br&gt;&lt;br&gt;&lt;b&gt;BlastP hit with cds107_1316&lt;/b&gt;&lt;br&gt;Percentage identity: 57&lt;br&gt;Percentage coverage: 101&lt;br&gt;BLAST bit score: 403&lt;br&gt;E-value: 5.4e-112"  />
</g>
<g id="a1_0024"  >
<polygon locus_tag="ACN64834.1" id="dummy-1_h1_7_24" points="372,85 377,80 391,80 391,90 377,90 372,85 " style="stroke-width:1; fill:#33d815; stroke:black; " class="clusterblast-orf" description="&lt;b&gt;ACN64834.1&lt;/b&gt;&lt;br&gt;PokP1&lt;br&gt;Location: 27240 - 25972&lt;br&gt;&lt;br&gt;&lt;b&gt;BlastP hit with cds1312_2581&lt;/b&gt;&lt;br&gt;Percentage identity: 72&lt;br&gt;Percentage coverage: 99&lt;br&gt;BLAST bit score: 606&lt;br&gt;E-value: 4.4e-173"  />
</g>
<g id="a1_0025"  >
<polygon locus_tag="ACN64833.1" id="dummy-1_h1_7_25" points="394,90 405,90 410,85 405,80 394,80 394,90 " style="stroke-width:1; fill:white; stroke:black; " class="clusterblast-orf" description="&lt;b&gt;ACN64833.1&lt;/b&gt;&lt;br&gt;PokMT1&lt;br&gt;Location: 25763 - 24720"  />
</g>
<g id="a1_0026"  >
<polygon locus_tag="ACN64832.1" id="dummy-1_h1_7_26" points="411,90 421,90 426,85 421,80 411,80 411,90 " style="stroke-width:1; fill:white; stroke:black; " class="clusterblast-orf" description="&lt;b&gt;ACN64832.1&lt;/b&gt;&lt;br&gt;PokM2&lt;br&gt;Location: 24665 - 23637"  />
</g>
<g id="a1_0027"  >
<polygon locus_tag="ACN64831.1" id="dummy-1_h1_7_27" points="426,90 499,90 504,85 499,80 426,80 426,90 " style="stroke-width:1; fill:white; stroke:black; " class="clusterblast-orf" description="&lt;b&gt;ACN64831.1&lt;/b&gt;&lt;br&gt;PokM1&lt;br&gt;Location: 23640 - 18421"  />
</g>
<g id="a1_0028"  >
<polygon locus_tag="ACN64830.1" id="dummy-1_h1_7_28" points="504,90 524,90 529,85 524,80 504,80 504,90 " style="stroke-width:1; fill:white; stroke:black; " class="clusterblast-orf" description="&lt;b&gt;ACN64830.1&lt;/b&gt;&lt;br&gt;PokM3&lt;br&gt;Location: 18424 - 16769"  />
</g>
<g id="a1_0029"  >
<polygon locus_tag="ACN64829.1" id="dummy-1_h1_7_29" points="529,90 545,90 550,85 545,80 529,80 529,90 " style="stroke-width:1; fill:white; stroke:black; " class="clusterblast-orf" description="&lt;b&gt;ACN64829.1&lt;/b&gt;&lt;br&gt;PokS3&lt;br&gt;Location: 16772 - 15342"  />
</g>
<g id="a1_0030"  >
<polygon locus_tag="ACN64828.1" id="dummy-1_h1_7_30" points="550,90 560,90 565,85 560,80 550,80 550,90 " style="stroke-width:1; fill:white; stroke:black; " class="clusterblast-orf" description="&lt;b&gt;ACN64828.1&lt;/b&gt;&lt;br&gt;PokS4&lt;br&gt;Location: 15348 - 14347"  />
</g>
<g id="a1_0031"  >
<polygon locus_tag="ACN64827.1" id="dummy-1_h1_7_31" points="565,90 568,90 573,85 568,80 565,80 565,90 " style="stroke-width:1; fill:white; stroke:black; " class="clusterblast-orf" description="&lt;b&gt;ACN64827.1&lt;/b&gt;&lt;br&gt;PokU2&lt;br&gt;Location: 14350 - 13829"  />
</g>
<g id="a1_0032"  >
<polygon locus_tag="ACN64826.1" id="dummy-1_h1_7_32" points="573,90 585,90 590,85 585,80 573,80 573,90 " style="stroke-width:1; fill:white; stroke:black; " class="clusterblast-orf" description="&lt;b&gt;ACN64826.1&lt;/b&gt;&lt;br&gt;PokU2&lt;br&gt;Location: 13832 - 12678"  />
</g>
<g id="a1_0033"  >
<polygon locus_tag="ACN64825.1" id="dummy-1_h1_7_33" points="591,85 596,80 611,80 611,90 596,90 591,85 " style="stroke-width:1; fill:white; stroke:black; " class="clusterblast-orf" description="&lt;b&gt;ACN64825.1&lt;/b&gt;&lt;br&gt;PokS5&lt;br&gt;Location: 12594 - 11296"  />
</g>
<g id="a1_0034"  >
<polygon locus_tag="ACN64824.1" id="dummy-1_h1_7_34" points="611,85 616,80 626,80 626,90 616,90 611,85 " style="stroke-width:1; fill:white; stroke:black; " class="clusterblast-orf" description="&lt;b&gt;ACN64824.1&lt;/b&gt;&lt;br&gt;PokS6&lt;br&gt;Location: 11291 - 10263"  />
</g>
<g id="a1_0035"  >
<polygon locus_tag="ACN64823.1" id="dummy-1_h1_7_35" points="626,85 631,80 644,80 644,90 631,90 626,85 " style="stroke-width:1; fill:white; stroke:black; " class="clusterblast-orf" description="&lt;b&gt;ACN64823.1&lt;/b&gt;&lt;br&gt;PokGT1&lt;br&gt;Location: 10266 - 9073"  />
</g>
<g id="a1_0036"  >
<polygon locus_tag="ACN64822.1" id="dummy-1_h1_7_36" points="647,90 656,90 661,85 656,80 647,80 647,90 " style="stroke-width:1; fill:white; stroke:black; " class="clusterblast-orf" description="&lt;b&gt;ACN64822.1&lt;/b&gt;&lt;br&gt;PokABC1&lt;br&gt;Location: 8839 - 7907"  />
</g>
<g id="a1_0037"  >
<polygon locus_tag="ACN64821.1" id="dummy-1_h1_7_37" points="661,90 668,90 673,85 668,80 661,80 661,90 " style="stroke-width:1; fill:white; stroke:black; " class="clusterblast-orf" description="&lt;b&gt;ACN64821.1&lt;/b&gt;&lt;br&gt;PokABC2&lt;br&gt;Location: 7910 - 7101"  />
</g>
<g id="a1_0038"  >
<polygon locus_tag="ACN64820.1" id="dummy-1_h1_7_38" points="674,90 686,90 691,85 686,80 674,80 674,90 " style="stroke-width:1; fill:white; stroke:black; " class="clusterblast-orf" description="&lt;b&gt;ACN64820.1&lt;/b&gt;&lt;br&gt;PokGT2&lt;br&gt;Location: 7088 - 5940"  />
</g>
<g id="a1_0039"  >
<polygon locus_tag="ACN64819.1" id="dummy-1_h1_7_39" points="691,85 696,80 739,80 739,90 696,90 691,85 " style="stroke-width:1; fill:white; stroke:black; " class="clusterblast-orf" description="&lt;b&gt;ACN64819.1&lt;/b&gt;&lt;br&gt;PokR1&lt;br&gt;Location: 5897 - 2700"  />
</g>
<g id="a1_0040"  >
<polygon locus_tag="ACN64818.1" id="dummy-1_h1_7_40" points="740,85 745,80 759,80 759,90 745,90 740,85 " style="stroke-width:1; fill:white; stroke:black; " class="clusterblast-orf" description="&lt;b&gt;ACN64818.1&lt;/b&gt;&lt;br&gt;PokS8&lt;br&gt;Location: 2619 - 1372"  />
</g>
<g id="a1_0041"  >
<polygon locus_tag="ACN64817.1" id="dummy-1_h1_7_41" points="759,85 764,80 774,80 774,90 764,90 759,85 " style="stroke-width:1; fill:white; stroke:black; " class="clusterblast-orf" description="&lt;b&gt;ACN64817.1&lt;/b&gt;&lt;br&gt;PokR3&lt;br&gt;Location: 1375 - 395"  />
</g>
<g id="a1_0042"  >
<polygon locus_tag="ACN64816.1" id="dummy-1_h1_7_42" points="774,85 779,80 780,80 780,90 779,90 774,85 " style="stroke-width:1; fill:white; stroke:black; " class="clusterblast-orf" description="&lt;b&gt;ACN64816.1&lt;/b&gt;&lt;br&gt;PokSAMS&lt;br&gt;Location: 358 - 1"  />
</g>
</svg>
