<svg xmlns:xlink="http://www.w3.org/1999/xlink" preserveAspectRatio="none" width="800" xmlns="http://www.w3.org/2000/svg" version="1.1" x="0" viewBox="0 0 800 250" height="250" y="0"  >
<g label="Query sequence" class="clusterblast-cluster"  >
<text x="5" y="20" class="clusterblast-acc"  >
Query sequence</text>
<line x2="778.0" style="stroke-width:1; stroke:grey; " y1="35" x1="10" y2="35"  />
<polygon locus_tag="cds69_867" id="subclusterblast-1_q0_0_all" points="226,35 231,30 234,30 234,40 231,40 226,35 " style="stroke-width:1; fill:white; stroke:black; " class="clusterblast-orf" description="&lt;b&gt;cds69_867&lt;/b&gt;&lt;br&gt;Transcriptional regulator, AraC family&lt;br&gt;Location: 69 - 867"  />
<polygon locus_tag="cds1222_2149" id="subclusterblast-1_q1_0_all" points="237,35 242,30 246,30 246,40 242,40 237,35 " style="stroke-width:1; fill:white; stroke:black; " class="clusterblast-orf" description="&lt;b&gt;cds1222_2149&lt;/b&gt;&lt;br&gt;hypothetical protein&lt;br&gt;Location: 1222 - 2149"  />
<polygon locus_tag="cds2228_2351" id="subclusterblast-1_q2_0_all" points="247,35 248,30 248,40 247,35 " style="stroke-width:1; fill:white; stroke:black; " class="clusterblast-orf" description="&lt;b&gt;cds2228_2351&lt;/b&gt;&lt;br&gt;hypothetical protein&lt;br&gt;Location: 2228 - 2351"  />
<polygon locus_tag="cds2425_3304" id="subclusterblast-1_q3_0_all" points="249,35 254,30 257,30 257,40 254,40 249,35 " style="stroke-width:1; fill:white; stroke:black; " class="clusterblast-orf" description="&lt;b&gt;cds2425_3304&lt;/b&gt;&lt;br&gt;Short-chain dehydrogenase/reductase SDR&lt;br&gt;Location: 2425 - 3304"  />
<polygon locus_tag="cds3300_3936" id="subclusterblast-1_q4_0_all" points="257,35 262,30 263,30 263,40 262,40 257,35 " style="stroke-width:1; fill:white; stroke:black; " class="clusterblast-orf" description="&lt;b&gt;cds3300_3936&lt;/b&gt;&lt;br&gt;Uncharacterized peroxidase-related&lt;br&gt;Location: 3300 - 3936"  />
<polygon locus_tag="cds4192_5740" id="subclusterblast-1_q5_0_all" points="265,35 270,30 280,30 280,40 270,40 265,35 " style="stroke-width:1; fill:white; stroke:black; " class="clusterblast-orf" description="&lt;b&gt;cds4192_5740&lt;/b&gt;&lt;br&gt;Oxidoreductase, GMC family&lt;br&gt;Location: 4192 - 5740"  />
<polygon locus_tag="cds6022_8002" id="subclusterblast-1_q6_0_all" points="283,40 297,40 302,35 297,30 283,30 283,40 " style="stroke-width:1; fill:#d81515; stroke:black; " class="clusterblast-orf" description="&lt;b&gt;cds6022_8002&lt;/b&gt;&lt;br&gt;UnbV&lt;br&gt;Location: 6022 - 8002"  />
<polygon locus_tag="cds7998_9018" id="subclusterblast-1_q7_0_all" points="302,40 307,40 312,35 307,30 302,30 302,40 " style="stroke-width:1; fill:#4dd815; stroke:black; " class="clusterblast-orf" description="&lt;b&gt;cds7998_9018&lt;/b&gt;&lt;br&gt;UnbU&lt;br&gt;Location: 7998 - 9018"  />
<polygon locus_tag="cds9014_14900" id="subclusterblast-1_q8_0_all" points="312,40 363,40 368,35 363,30 312,30 312,40 " style="stroke-width:1; fill:#1585d8; stroke:black; " class="clusterblast-orf" description="&lt;b&gt;cds9014_14900&lt;/b&gt;&lt;br&gt;Polyketide synthase&lt;br&gt;Location: 9014 - 14900"  />
<polygon locus_tag="cds14896_15373" id="subclusterblast-1_q9_0_all" points="368,40 372,35 368,30 368,40 " style="stroke-width:1; fill:#d815bc; stroke:black; " class="clusterblast-orf" description="&lt;b&gt;cds14896_15373&lt;/b&gt;&lt;br&gt;4-hydroxybenzoyl-CoA thioesterase family active site&lt;br&gt;Location: 14896 - 15373"  />
<polygon locus_tag="cds15378_15948" id="subclusterblast-1_q10_0_all" points="372,40 373,40 378,35 373,30 372,30 372,40 " style="stroke-width:1; fill:#d8bc15; stroke:black; " class="clusterblast-orf" description="&lt;b&gt;cds15378_15948&lt;/b&gt;&lt;br&gt;NADH-FMN oxidoreductase&lt;br&gt;Location: 15378 - 15948"  />
<polygon locus_tag="cds16102_17500" id="subclusterblast-1_q11_0_all" points="379,35 384,30 393,30 393,40 384,40 379,35 " style="stroke-width:1; fill:#15d885; stroke:black; " class="clusterblast-orf" description="&lt;b&gt;cds16102_17500&lt;/b&gt;&lt;br&gt;Cytochrome P450-related protein&lt;br&gt;Location: 16102 - 17500"  />
<polygon locus_tag="cds17496_18480" id="subclusterblast-1_q12_0_all" points="393,35 398,30 402,30 402,40 398,40 393,35 " style="stroke-width:1; fill:#4d15d8; stroke:black; " class="clusterblast-orf" description="&lt;b&gt;cds17496_18480&lt;/b&gt;&lt;br&gt;UnbL&lt;br&gt;Location: 17496 - 18480"  />
<polygon locus_tag="cds18746_19715" id="subclusterblast-1_q13_0_all" points="405,40 409,40 414,35 409,30 405,30 405,40 " style="stroke-width:1; fill:white; stroke:black; " class="clusterblast-orf" description="&lt;b&gt;cds18746_19715&lt;/b&gt;&lt;br&gt;hypothetical protein&lt;br&gt;Location: 18746 - 19715"  />
<polygon locus_tag="cds19762_20413" id="subclusterblast-1_q14_0_all" points="414,35 419,30 421,30 421,40 419,40 414,35 " style="stroke-width:1; fill:white; stroke:black; " class="clusterblast-orf" description="&lt;b&gt;cds19762_20413&lt;/b&gt;&lt;br&gt;Transcriptional regulator, AcrR family&lt;br&gt;Location: 19762 - 20413"  />
<polygon locus_tag="cds20493_21879" id="subclusterblast-1_q15_0_all" points="421,40 430,40 435,35 430,30 421,30 421,40 " style="stroke-width:1; fill:white; stroke:black; " class="clusterblast-orf" description="&lt;b&gt;cds20493_21879&lt;/b&gt;&lt;br&gt;Lignostilbene-alpha,beta-dioxygenase and related enzymes&lt;br&gt;Location: 20493 - 21879"  />
<polygon locus_tag="cds22005_23379" id="subclusterblast-1_q16_0_all" points="436,35 441,30 449,30 449,40 441,40 436,35 " style="stroke-width:1; fill:white; stroke:black; " class="clusterblast-orf" description="&lt;b&gt;cds22005_23379&lt;/b&gt;&lt;br&gt;Uncharacterized MFS-type transporter&lt;br&gt;Location: 22005 - 23379"  />
<polygon locus_tag="cds23673_24030" id="subclusterblast-1_q17_0_all" points="452,35 455,30 455,40 452,35 " style="stroke-width:1; fill:white; stroke:black; " class="clusterblast-orf" description="&lt;b&gt;cds23673_24030&lt;/b&gt;&lt;br&gt;Transcriptional regulator, ArsR family&lt;br&gt;Location: 23673 - 24030"  />
<polygon locus_tag="cds24026_24473" id="subclusterblast-1_q18_0_all" points="455,35 460,30 460,30 460,40 460,40 455,35 " style="stroke-width:1; fill:white; stroke:black; " class="clusterblast-orf" description="&lt;b&gt;cds24026_24473&lt;/b&gt;&lt;br&gt;hypothetical protein&lt;br&gt;Location: 24026 - 24473"  />
<polygon locus_tag="cds24944_25286" id="subclusterblast-1_q19_0_all" points="464,40 467,35 464,30 464,40 " style="stroke-width:1; fill:white; stroke:black; " class="clusterblast-orf" description="&lt;b&gt;cds24944_25286&lt;/b&gt;&lt;br&gt;Glyoxalase/bleomycin resistance protein/dioxygenase&lt;br&gt;Location: 24944 - 25286"  />
<polygon locus_tag="cds25476_25980" id="subclusterblast-1_q20_0_all" points="469,35 474,30 474,30 474,40 474,40 469,35 " style="stroke-width:1; fill:white; stroke:black; " class="clusterblast-orf" description="&lt;b&gt;cds25476_25980&lt;/b&gt;&lt;br&gt;hypothetical protein&lt;br&gt;Location: 25476 - 25980"  />
<polygon locus_tag="cds26084_26357" id="subclusterblast-1_q21_0_all" points="475,35 478,30 478,40 475,35 " style="stroke-width:1; fill:white; stroke:black; " class="clusterblast-orf" description="&lt;b&gt;cds26084_26357&lt;/b&gt;&lt;br&gt;Gfa-like protein&lt;br&gt;Location: 26084 - 26357"  />
<polygon locus_tag="cds26758_26998" id="subclusterblast-1_q22_0_all" points="481,35 484,30 484,40 481,35 " style="stroke-width:1; fill:white; stroke:black; " class="clusterblast-orf" description="&lt;b&gt;cds26758_26998&lt;/b&gt;&lt;br&gt;hypothetical protein&lt;br&gt;Location: 26758 - 26998"  />
<polygon locus_tag="cds27017_28490" id="subclusterblast-1_q23_0_all" points="484,40 493,40 498,35 493,30 484,30 484,40 " style="stroke-width:1; fill:white; stroke:black; " class="clusterblast-orf" description="&lt;b&gt;cds27017_28490&lt;/b&gt;&lt;br&gt;hypothetical protein&lt;br&gt;Location: 27017 - 28490"  />
<polygon locus_tag="cds28486_30304" id="subclusterblast-1_q24_0_all" points="498,40 510,40 515,35 510,30 498,30 498,40 " style="stroke-width:1; fill:white; stroke:black; " class="clusterblast-orf" description="&lt;b&gt;cds28486_30304&lt;/b&gt;&lt;br&gt;hypothetical protein&lt;br&gt;Location: 28486 - 30304"  />
<polygon locus_tag="cds30300_32460" id="subclusterblast-1_q25_0_all" points="515,40 531,40 536,35 531,30 515,30 515,40 " style="stroke-width:1; fill:white; stroke:black; " class="clusterblast-orf" description="&lt;b&gt;cds30300_32460&lt;/b&gt;&lt;br&gt;hypothetical protein&lt;br&gt;Location: 30300 - 32460"  />
<polygon locus_tag="cds32456_32936" id="subclusterblast-1_q26_0_all" points="536,40 536,40 541,35 536,30 536,30 536,40 " style="stroke-width:1; fill:white; stroke:black; " class="clusterblast-orf" description="&lt;b&gt;cds32456_32936&lt;/b&gt;&lt;br&gt;hypothetical protein&lt;br&gt;Location: 32456 - 32936"  />
<polygon locus_tag="cds32939_33422" id="subclusterblast-1_q27_0_all" points="541,35 545,30 545,40 541,35 " style="stroke-width:1; fill:white; stroke:black; " class="clusterblast-orf" description="&lt;b&gt;cds32939_33422&lt;/b&gt;&lt;br&gt;FKBP-type peptidyl-prolyl cis-trans isomerase SlyD (EC 5.2.1.8)&lt;br&gt;Location: 32939 - 33422"  />
<polygon locus_tag="cds33754_34261" id="subclusterblast-1_q28_0_all" points="548,40 548,40 553,35 548,30 548,30 548,40 " style="stroke-width:1; fill:white; stroke:black; " class="clusterblast-orf" description="&lt;b&gt;cds33754_34261&lt;/b&gt;&lt;br&gt;hypothetical protein&lt;br&gt;Location: 33754 - 34261"  />
</g>
<g label="AY271660" class="clusterblast-cluster" description="AY271660_c2: maduropeptin enediyne (58% of genes show similarity), enediyne"  >
<text x="5" y="70" class="clusterblast-acc"  >
AY271660_c2: maduropeptin enediyne (58% of genes show similarity), enediyne</text>
<line x2="778.0" style="stroke-width:1; stroke:grey; " y1="85" x1="10" y2="85"  />
</g>
<g id="a1_000"  >
<polygon locus_tag="AY271660_2_mdpE2" id="subclusterblast-1_all_1_1_0" points="292,90 297,90 302,85 297,80 292,80 292,90 " style="stroke-width:1; fill:white; stroke:black; " class="clusterblast-orf" description="&lt;b&gt;AY271660_2_mdpE2&lt;/b&gt;&lt;br&gt;unknown&lt;br&gt;Location: 75173 - 74178"  />
</g>
<g id="a1_001"  >
<polygon locus_tag="AY271660_2_mdpE3" id="subclusterblast-1_all_1_1_1" points="305,90 309,90 314,85 309,80 305,80 305,90 " style="stroke-width:1; fill:#4d15d8; stroke:black; " class="clusterblast-orf" description="&lt;b&gt;AY271660_2_mdpE3&lt;/b&gt;&lt;br&gt;hypothetical protein&lt;br&gt;Location: 73849 - 72947&lt;br&gt;&lt;br&gt;&lt;b&gt;BlastP hit with cds17496_18480&lt;/b&gt;&lt;br&gt;Percentage identity: 53&lt;br&gt;Percentage coverage: 91&lt;br&gt;BLAST bit score: 293&lt;br&gt;E-value: 1.21e-100"  />
</g>
<g id="a1_002"  >
<polygon locus_tag="AY271660_2_mdpE4" id="subclusterblast-1_all_1_1_2" points="314,90 328,90 333,85 328,80 314,80 314,90 " style="stroke-width:1; fill:#d81515; stroke:black; " class="clusterblast-orf" description="&lt;b&gt;AY271660_2_mdpE4&lt;/b&gt;&lt;br&gt;unknown&lt;br&gt;Location: 72943 - 70907&lt;br&gt;&lt;br&gt;&lt;b&gt;BlastP hit with cds6022_8002&lt;/b&gt;&lt;br&gt;Percentage identity: 49&lt;br&gt;Percentage coverage: 99&lt;br&gt;BLAST bit score: 593&lt;br&gt;E-value: 0.0"  />
</g>
<g id="a1_003"  >
<polygon locus_tag="AY271660_2_mdpE5" id="subclusterblast-1_all_1_1_3" points="333,90 338,90 343,85 338,80 333,80 333,90 " style="stroke-width:1; fill:#4dd815; stroke:black; " class="clusterblast-orf" description="&lt;b&gt;AY271660_2_mdpE5&lt;/b&gt;&lt;br&gt;unknown&lt;br&gt;Location: 70900 - 69908&lt;br&gt;&lt;br&gt;&lt;b&gt;BlastP hit with cds7998_9018&lt;/b&gt;&lt;br&gt;Percentage identity: 54&lt;br&gt;Percentage coverage: 87&lt;br&gt;BLAST bit score: 315&lt;br&gt;E-value: 1.45e-108"  />
</g>
<g id="a1_004"  >
<polygon locus_tag="AY271660_2_mdpE" id="subclusterblast-1_all_1_1_4" points="343,90 394,90 399,85 394,80 343,80 343,90 " style="stroke-width:1; fill:#1585d8; stroke:black; " class="clusterblast-orf" description="&lt;b&gt;AY271660_2_mdpE&lt;/b&gt;&lt;br&gt;enediyne polyketide synthase&lt;br&gt;Location: 69911 - 64077&lt;br&gt;&lt;br&gt;&lt;b&gt;BlastP hit with cds9014_14900&lt;/b&gt;&lt;br&gt;Percentage identity: 56&lt;br&gt;Percentage coverage: 101&lt;br&gt;BLAST bit score: 1857&lt;br&gt;E-value: 0.0"  />
</g>
<g id="a1_005"  >
<polygon locus_tag="AY271660_2_mdpE10" id="subclusterblast-1_all_1_1_5" points="399,90 403,85 399,80 399,90 " style="stroke-width:1; fill:#d815bc; stroke:black; " class="clusterblast-orf" description="&lt;b&gt;AY271660_2_mdpE10&lt;/b&gt;&lt;br&gt;type II thioesterase&lt;br&gt;Location: 64072 - 63614&lt;br&gt;&lt;br&gt;&lt;b&gt;BlastP hit with cds14896_15373&lt;/b&gt;&lt;br&gt;Percentage identity: 76&lt;br&gt;Percentage coverage: 88&lt;br&gt;BLAST bit score: 228&lt;br&gt;E-value: 1.76e-79"  />
</g>
<g id="a1_006"  >
<polygon locus_tag="AY271660_2_mdpE6" id="subclusterblast-1_all_1_1_6" points="403,90 403,90 408,85 403,80 403,80 403,90 " style="stroke-width:1; fill:#d8bc15; stroke:black; " class="clusterblast-orf" description="&lt;b&gt;AY271660_2_mdpE6&lt;/b&gt;&lt;br&gt;flavin reductase&lt;br&gt;Location: 63617 - 63066&lt;br&gt;&lt;br&gt;&lt;b&gt;BlastP hit with cds15378_15948&lt;/b&gt;&lt;br&gt;Percentage identity: 56&lt;br&gt;Percentage coverage: 83&lt;br&gt;BLAST bit score: 126&lt;br&gt;E-value: 1.27e-38"  />
</g>
<g id="a1_007"  >
<polygon locus_tag="AY271660_2_mdpE7" id="subclusterblast-1_all_1_1_7" points="408,90 416,90 421,85 416,80 408,80 408,90 " style="stroke-width:1; fill:#15d885; stroke:black; " class="clusterblast-orf" description="&lt;b&gt;AY271660_2_mdpE7&lt;/b&gt;&lt;br&gt;putative P450 hydroxylase&lt;br&gt;Location: 63069 - 61675&lt;br&gt;&lt;br&gt;&lt;b&gt;BlastP hit with cds16102_17500&lt;/b&gt;&lt;br&gt;Percentage identity: 63&lt;br&gt;Percentage coverage: 97&lt;br&gt;BLAST bit score: 525&lt;br&gt;E-value: 0.0"  />
</g>
<g id="a1_008"  >
<polygon locus_tag="AY271660_2_mdpE9" id="subclusterblast-1_all_1_1_8" points="446,90 447,90 452,85 447,80 446,80 446,90 " style="stroke-width:1; fill:white; stroke:black; " class="clusterblast-orf" description="&lt;b&gt;AY271660_2_mdpE9&lt;/b&gt;&lt;br&gt;unknown&lt;br&gt;Location: 59077 - 58508"  />
</g>
<g id="a1_009"  >
<polygon locus_tag="AY271660_2_mdpE8" id="subclusterblast-1_all_1_1_9" points="452,90 463,90 468,85 463,80 452,80 452,90 " style="stroke-width:1; fill:white; stroke:black; " class="clusterblast-orf" description="&lt;b&gt;AY271660_2_mdpE8&lt;/b&gt;&lt;br&gt;oxidoreductase&lt;br&gt;Location: 58511 - 56853"  />
</g>
<g id="a1_0010"  >
<polygon locus_tag="AY271660_2_mdpM" id="subclusterblast-1_all_1_1_10" points="468,90 473,90 478,85 473,80 468,80 468,90 " style="stroke-width:1; fill:white; stroke:black; " class="clusterblast-orf" description="&lt;b&gt;AY271660_2_mdpM&lt;/b&gt;&lt;br&gt;unknown&lt;br&gt;Location: 56839 - 55742"  />
</g>
<g id="a1_0011"  >
<polygon locus_tag="AY271660_2_mdpE11" id="subclusterblast-1_all_1_1_11" points="479,90 482,90 487,85 482,80 479,80 479,90 " style="stroke-width:1; fill:white; stroke:black; " class="clusterblast-orf" description="&lt;b&gt;AY271660_2_mdpE11&lt;/b&gt;&lt;br&gt;unknown&lt;br&gt;Location: 55667 - 54864"  />
</g>
<g label="AY117439" class="clusterblast-cluster" description="AY117439_c3: neocarzinostatin enediyne (58% of genes show similarity), enediyne"  >
<text x="5" y="120" class="clusterblast-acc"  >
AY117439_c3: neocarzinostatin enediyne (58% of genes show similarity), enediyne</text>
<line x2="778.0" style="stroke-width:1; stroke:grey; " y1="135" x1="10" y2="135"  />
</g>
<g id="a1_000"  >
<polygon locus_tag="AY117439_3_ncsE1" id="subclusterblast-1_all_1_2_0" points="297,140 301,135 297,130 297,140 " style="stroke-width:1; fill:white; stroke:black; " class="clusterblast-orf" description="&lt;b&gt;AY117439_3_ncsE1&lt;/b&gt;&lt;br&gt;unknown&lt;br&gt;Location: 64068 - 63625"  />
</g>
<g id="a1_001"  >
<polygon locus_tag="AY117439_3_ncsE2" id="subclusterblast-1_all_1_2_1" points="302,140 307,140 312,135 307,130 302,130 302,140 " style="stroke-width:1; fill:white; stroke:black; " class="clusterblast-orf" description="&lt;b&gt;AY117439_3_ncsE2&lt;/b&gt;&lt;br&gt;unknown&lt;br&gt;Location: 63522 - 62542"  />
</g>
<g id="a1_002"  >
<polygon locus_tag="AY117439_3_ncsE3" id="subclusterblast-1_all_1_2_2" points="313,140 317,140 322,135 317,130 313,130 313,140 " style="stroke-width:1; fill:#4d15d8; stroke:black; " class="clusterblast-orf" description="&lt;b&gt;AY117439_3_ncsE3&lt;/b&gt;&lt;br&gt;unknown&lt;br&gt;Location: 62458 - 61472&lt;br&gt;&lt;br&gt;&lt;b&gt;BlastP hit with cds17496_18480&lt;/b&gt;&lt;br&gt;Percentage identity: 54&lt;br&gt;Percentage coverage: 98&lt;br&gt;BLAST bit score: 327&lt;br&gt;E-value: 1.84e-113"  />
</g>
<g id="a1_003"  >
<polygon locus_tag="AY117439_3_ncsE4" id="subclusterblast-1_all_1_2_3" points="322,140 335,140 340,135 335,130 322,130 322,140 " style="stroke-width:1; fill:#d81515; stroke:black; " class="clusterblast-orf" description="&lt;b&gt;AY117439_3_ncsE4&lt;/b&gt;&lt;br&gt;unknown&lt;br&gt;Location: 61475 - 59565&lt;br&gt;&lt;br&gt;&lt;b&gt;BlastP hit with cds6022_8002&lt;/b&gt;&lt;br&gt;Percentage identity: 47&lt;br&gt;Percentage coverage: 99&lt;br&gt;BLAST bit score: 577&lt;br&gt;E-value: 0.0"  />
</g>
<g id="a1_004"  >
<polygon locus_tag="AY117439_3_ncsE5" id="subclusterblast-1_all_1_2_4" points="340,140 346,140 351,135 346,130 340,130 340,140 " style="stroke-width:1; fill:#4dd815; stroke:black; " class="clusterblast-orf" description="&lt;b&gt;AY117439_3_ncsE5&lt;/b&gt;&lt;br&gt;putative transporter&lt;br&gt;Location: 59568 - 58474&lt;br&gt;&lt;br&gt;&lt;b&gt;BlastP hit with cds7998_9018&lt;/b&gt;&lt;br&gt;Percentage identity: 56&lt;br&gt;Percentage coverage: 90&lt;br&gt;BLAST bit score: 317&lt;br&gt;E-value: 7.69e-109"  />
</g>
<g id="a1_005"  >
<polygon locus_tag="AY117439_3_ncsE" id="subclusterblast-1_all_1_2_5" points="351,140 402,140 407,135 402,130 351,130 351,140 " style="stroke-width:1; fill:#1585d8; stroke:black; " class="clusterblast-orf" description="&lt;b&gt;AY117439_3_ncsE&lt;/b&gt;&lt;br&gt;warhead-forming iterative polyketide synthase&lt;br&gt;Location: 58477 - 52544&lt;br&gt;&lt;br&gt;&lt;b&gt;BlastP hit with cds9014_14900&lt;/b&gt;&lt;br&gt;Percentage identity: 53&lt;br&gt;Percentage coverage: 101&lt;br&gt;BLAST bit score: 1817&lt;br&gt;E-value: 0.0"  />
</g>
<g id="a1_006"  >
<polygon locus_tag="AY117439_3_ncsE10" id="subclusterblast-1_all_1_2_6" points="407,140 407,140 412,135 407,130 407,130 407,140 " style="stroke-width:1; fill:#d815bc; stroke:black; " class="clusterblast-orf" description="&lt;b&gt;AY117439_3_ncsE10&lt;/b&gt;&lt;br&gt;thioesterase&lt;br&gt;Location: 52554 - 52093&lt;br&gt;&lt;br&gt;&lt;b&gt;BlastP hit with cds14896_15373&lt;/b&gt;&lt;br&gt;Percentage identity: 77&lt;br&gt;Percentage coverage: 89&lt;br&gt;BLAST bit score: 231&lt;br&gt;E-value: 4.43e-81"  />
</g>
<g id="a1_007"  >
<polygon locus_tag="AY117439_3_ncsE6" id="subclusterblast-1_all_1_2_7" points="412,140 412,140 417,135 412,130 412,130 412,140 " style="stroke-width:1; fill:#d8bc15; stroke:black; " class="clusterblast-orf" description="&lt;b&gt;AY117439_3_ncsE6&lt;/b&gt;&lt;br&gt;monooxygenase&lt;br&gt;Location: 52096 - 51548&lt;br&gt;&lt;br&gt;&lt;b&gt;BlastP hit with cds15378_15948&lt;/b&gt;&lt;br&gt;Percentage identity: 52&lt;br&gt;Percentage coverage: 83&lt;br&gt;BLAST bit score: 134&lt;br&gt;E-value: 1.5e-41"  />
</g>
<g id="a1_008"  >
<polygon locus_tag="AY117439_3_ncsE7" id="subclusterblast-1_all_1_2_8" points="417,140 425,140 430,135 425,130 417,130 417,140 " style="stroke-width:1; fill:#15d885; stroke:black; " class="clusterblast-orf" description="&lt;b&gt;AY117439_3_ncsE7&lt;/b&gt;&lt;br&gt;cytochrome P-450&lt;br&gt;Location: 51551 - 50199&lt;br&gt;&lt;br&gt;&lt;b&gt;BlastP hit with cds16102_17500&lt;/b&gt;&lt;br&gt;Percentage identity: 56&lt;br&gt;Percentage coverage: 95&lt;br&gt;BLAST bit score: 446&lt;br&gt;E-value: 4.93e-156"  />
</g>
<g id="a1_009"  >
<polygon locus_tag="AY117439_3_ncsE8" id="subclusterblast-1_all_1_2_9" points="451,140 452,140 457,135 452,130 451,130 451,140 " style="stroke-width:1; fill:white; stroke:black; " class="clusterblast-orf" description="&lt;b&gt;AY117439_3_ncsE8&lt;/b&gt;&lt;br&gt;unknown&lt;br&gt;Location: 47969 - 47370"  />
</g>
<g id="a1_0010"  >
<polygon locus_tag="AY117439_3_ncsE9" id="subclusterblast-1_all_1_2_10" points="457,140 468,140 473,135 468,130 457,130 457,140 " style="stroke-width:1; fill:white; stroke:black; " class="clusterblast-orf" description="&lt;b&gt;AY117439_3_ncsE9&lt;/b&gt;&lt;br&gt;oxidoreductase&lt;br&gt;Location: 47373 - 45715"  />
</g>
<g id="a1_0011"  >
<polygon locus_tag="AY117439_3_ncsE11" id="subclusterblast-1_all_1_2_11" points="474,140 477,140 482,135 477,130 474,130 474,140 " style="stroke-width:1; fill:white; stroke:black; " class="clusterblast-orf" description="&lt;b&gt;AY117439_3_ncsE11&lt;/b&gt;&lt;br&gt;unknown&lt;br&gt;Location: 45578 - 44775"  />
</g>
<g label="AY048670" class="clusterblast-cluster" description="AY048670_c3: C-1027 enediyne (58% of genes show similarity), enediyne"  >
<text x="5" y="170" class="clusterblast-acc"  >
AY048670_c3: C-1027 enediyne (58% of genes show similarity), enediyne</text>
<line x2="778.0" style="stroke-width:1; stroke:grey; " y1="185" x1="10" y2="185"  />
</g>
<g id="a1_000"  >
<polygon locus_tag="AY048670_3_sgcE1" id="subclusterblast-1_all_1_3_0" points="297,190 301,185 297,180 297,190 " style="stroke-width:1; fill:white; stroke:black; " class="clusterblast-orf" description="&lt;b&gt;AY048670_3_sgcE1&lt;/b&gt;&lt;br&gt;hypothetical protein&lt;br&gt;Location: 76316 - 75873"  />
</g>
<g id="a1_001"  >
<polygon locus_tag="AY048670_3_sgcE2" id="subclusterblast-1_all_1_3_1" points="303,190 305,190 310,185 305,180 303,180 303,190 " style="stroke-width:1; fill:white; stroke:black; " class="clusterblast-orf" description="&lt;b&gt;AY048670_3_sgcE2&lt;/b&gt;&lt;br&gt;hypothetical protein&lt;br&gt;Location: 75688 - 74942"  />
</g>
<g id="a1_002"  >
<polygon locus_tag="AY048670_3_sgcE3" id="subclusterblast-1_all_1_3_2" points="313,190 317,190 322,185 317,180 313,180 313,190 " style="stroke-width:1; fill:#4d15d8; stroke:black; " class="clusterblast-orf" description="&lt;b&gt;AY048670_3_sgcE3&lt;/b&gt;&lt;br&gt;hypothetical protein&lt;br&gt;Location: 74611 - 73625&lt;br&gt;&lt;br&gt;&lt;b&gt;BlastP hit with cds17496_18480&lt;/b&gt;&lt;br&gt;Percentage identity: 52&lt;br&gt;Percentage coverage: 98&lt;br&gt;BLAST bit score: 325&lt;br&gt;E-value: 7.41e-113"  />
</g>
<g id="a1_003"  >
<polygon locus_tag="AY048670_3_sgcE4" id="subclusterblast-1_all_1_3_3" points="322,190 336,190 341,185 336,180 322,180 322,190 " style="stroke-width:1; fill:#d81515; stroke:black; " class="clusterblast-orf" description="&lt;b&gt;AY048670_3_sgcE4&lt;/b&gt;&lt;br&gt;unknown&lt;br&gt;Location: 73628 - 71700&lt;br&gt;&lt;br&gt;&lt;b&gt;BlastP hit with cds6022_8002&lt;/b&gt;&lt;br&gt;Percentage identity: 47&lt;br&gt;Percentage coverage: 100&lt;br&gt;BLAST bit score: 574&lt;br&gt;E-value: 0.0"  />
</g>
<g id="a1_004"  >
<polygon locus_tag="AY048670_3_sgcE5" id="subclusterblast-1_all_1_3_4" points="341,190 347,190 352,185 347,180 341,180 341,190 " style="stroke-width:1; fill:#4dd815; stroke:black; " class="clusterblast-orf" description="&lt;b&gt;AY048670_3_sgcE5&lt;/b&gt;&lt;br&gt;unknown&lt;br&gt;Location: 71703 - 70573&lt;br&gt;&lt;br&gt;&lt;b&gt;BlastP hit with cds7998_9018&lt;/b&gt;&lt;br&gt;Percentage identity: 54&lt;br&gt;Percentage coverage: 90&lt;br&gt;BLAST bit score: 312&lt;br&gt;E-value: 8.12e-107"  />
</g>
<g id="a1_005"  >
<polygon locus_tag="AY048670_3_sgcE" id="subclusterblast-1_all_1_3_5" points="352,190 402,190 407,185 402,180 352,180 352,190 " style="stroke-width:1; fill:#1585d8; stroke:black; " class="clusterblast-orf" description="&lt;b&gt;AY048670_3_sgcE&lt;/b&gt;&lt;br&gt;polyketide synthase&lt;br&gt;Location: 70576 - 64757&lt;br&gt;&lt;br&gt;&lt;b&gt;BlastP hit with cds9014_14900&lt;/b&gt;&lt;br&gt;Percentage identity: 56&lt;br&gt;Percentage coverage: 100&lt;br&gt;BLAST bit score: 1951&lt;br&gt;E-value: 0.0"  />
</g>
<g id="a1_006"  >
<polygon locus_tag="AY048670_3_sgcE6" id="subclusterblast-1_all_1_3_6" points="408,190 408,190 413,185 408,180 408,180 408,190 " style="stroke-width:1; fill:#d8bc15; stroke:black; " class="clusterblast-orf" description="&lt;b&gt;AY048670_3_sgcE6&lt;/b&gt;&lt;br&gt;oxidoreductase&lt;br&gt;Location: 64676 - 64128&lt;br&gt;&lt;br&gt;&lt;b&gt;BlastP hit with cds15378_15948&lt;/b&gt;&lt;br&gt;Percentage identity: 52&lt;br&gt;Percentage coverage: 90&lt;br&gt;BLAST bit score: 144&lt;br&gt;E-value: 6.98e-46"  />
</g>
<g id="a1_007"  >
<polygon locus_tag="AY048670_3_sgcE7" id="subclusterblast-1_all_1_3_7" points="413,190 421,190 426,185 421,180 413,180 413,190 " style="stroke-width:1; fill:#15d885; stroke:black; " class="clusterblast-orf" description="&lt;b&gt;AY048670_3_sgcE7&lt;/b&gt;&lt;br&gt;P450 hydroxylase&lt;br&gt;Location: 64131 - 62782&lt;br&gt;&lt;br&gt;&lt;b&gt;BlastP hit with cds16102_17500&lt;/b&gt;&lt;br&gt;Percentage identity: 59&lt;br&gt;Percentage coverage: 95&lt;br&gt;BLAST bit score: 500&lt;br&gt;E-value: 1.44e-177"  />
</g>
<g id="a1_008"  >
<polygon locus_tag="AY048670_3_sgcE8" id="subclusterblast-1_all_1_3_8" points="446,190 447,190 452,185 447,180 446,180 446,190 " style="stroke-width:1; fill:white; stroke:black; " class="clusterblast-orf" description="&lt;b&gt;AY048670_3_sgcE8&lt;/b&gt;&lt;br&gt;putative regulatory protein&lt;br&gt;Location: 60677 - 60087"  />
</g>
<g id="a1_009"  >
<polygon locus_tag="AY048670_3_sgcE9" id="subclusterblast-1_all_1_3_9" points="452,190 463,190 468,185 463,180 452,180 452,190 " style="stroke-width:1; fill:white; stroke:black; " class="clusterblast-orf" description="&lt;b&gt;AY048670_3_sgcE9&lt;/b&gt;&lt;br&gt;oxidoreductase&lt;br&gt;Location: 60090 - 58435"  />
</g>
<g id="a1_0010"  >
<polygon locus_tag="AY048670_3_sgcE10" id="subclusterblast-1_all_1_3_10" points="469,190 469,190 474,185 469,180 469,180 469,190 " style="stroke-width:1; fill:#d815bc; stroke:black; " class="clusterblast-orf" description="&lt;b&gt;AY048670_3_sgcE10&lt;/b&gt;&lt;br&gt;regulatory protein-like protein&lt;br&gt;Location: 58298 - 57828&lt;br&gt;&lt;br&gt;&lt;b&gt;BlastP hit with cds14896_15373&lt;/b&gt;&lt;br&gt;Percentage identity: 79&lt;br&gt;Percentage coverage: 90&lt;br&gt;BLAST bit score: 241&lt;br&gt;E-value: 9.17e-85"  />
</g>
<g id="a1_0011"  >
<polygon locus_tag="AY048670_3_sgcE11" id="subclusterblast-1_all_1_3_11" points="475,190 477,190 482,185 477,180 475,180 475,190 " style="stroke-width:1; fill:white; stroke:black; " class="clusterblast-orf" description="&lt;b&gt;AY048670_3_sgcE11&lt;/b&gt;&lt;br&gt;unknown&lt;br&gt;Location: 57725 - 56922"  />
</g>
<g label="AF497482" class="clusterblast-cluster" description="AF497482_c2: calicheamicin enediyne (38% of genes show similarity), enediyne"  >
<text x="5" y="220" class="clusterblast-acc"  >
AF497482_c2: calicheamicin enediyne (38% of genes show similarity), enediyne</text>
<line x2="778.0" style="stroke-width:1; stroke:grey; " y1="235" x1="10" y2="235"  />
</g>
<g id="a1_000"  >
<polygon locus_tag="AF497482_2_calE10" id="subclusterblast-1_all_1_4_0" points="0,235 5,230 11,230 11,240 5,240 0,235 " style="stroke-width:1; fill:white; stroke:black; " class="clusterblast-orf" description="&lt;b&gt;AF497482_2_calE10&lt;/b&gt;&lt;br&gt;CalE10&lt;br&gt;Location: 85229 - 84045"  />
</g>
<g id="a1_001"  >
<polygon locus_tag="AF497482_2_calE9" id="subclusterblast-1_all_1_4_1" points="208,235 213,230 220,230 220,240 213,240 208,235 " style="stroke-width:1; fill:white; stroke:black; " class="clusterblast-orf" description="&lt;b&gt;AF497482_2_calE9&lt;/b&gt;&lt;br&gt;CalE9&lt;br&gt;Location: 63463 - 62177"  />
</g>
<g id="a1_002"  >
<polygon locus_tag="AF497482_2_calU15" id="subclusterblast-1_all_1_4_2" points="352,240 356,240 361,235 356,230 352,230 352,240 " style="stroke-width:1; fill:#4d15d8; stroke:black; " class="clusterblast-orf" description="&lt;b&gt;AF497482_2_calU15&lt;/b&gt;&lt;br&gt;CalU15&lt;br&gt;Location: 48416 - 47448&lt;br&gt;&lt;br&gt;&lt;b&gt;BlastP hit with cds17496_18480&lt;/b&gt;&lt;br&gt;Percentage identity: 54&lt;br&gt;Percentage coverage: 98&lt;br&gt;BLAST bit score: 299&lt;br&gt;E-value: 1.98e-102"  />
</g>
<g id="a1_003"  >
<polygon locus_tag="AF497482_2_calU14" id="subclusterblast-1_all_1_4_3" points="361,240 375,240 380,235 375,230 361,230 361,240 " style="stroke-width:1; fill:#d81515; stroke:black; " class="clusterblast-orf" description="&lt;b&gt;AF497482_2_calU14&lt;/b&gt;&lt;br&gt;CalU14&lt;br&gt;Location: 47426 - 45471&lt;br&gt;&lt;br&gt;&lt;b&gt;BlastP hit with cds6022_8002&lt;/b&gt;&lt;br&gt;Percentage identity: 49&lt;br&gt;Percentage coverage: 99&lt;br&gt;BLAST bit score: 580&lt;br&gt;E-value: 0.0"  />
</g>
<g id="a1_004"  >
<polygon locus_tag="AF497482_2_calT3" id="subclusterblast-1_all_1_4_4" points="380,240 384,240 389,235 384,230 380,230 380,240 " style="stroke-width:1; fill:#4dd815; stroke:black; " class="clusterblast-orf" description="&lt;b&gt;AF497482_2_calT3&lt;/b&gt;&lt;br&gt;CalT3&lt;br&gt;Location: 45474 - 44509&lt;br&gt;&lt;br&gt;&lt;b&gt;BlastP hit with cds7998_9018&lt;/b&gt;&lt;br&gt;Percentage identity: 57&lt;br&gt;Percentage coverage: 90&lt;br&gt;BLAST bit score: 326&lt;br&gt;E-value: 7.53e-113"  />
</g>
<g id="a1_005"  >
<polygon locus_tag="AF497482_2_calE8" id="subclusterblast-1_all_1_4_5" points="389,240 439,240 444,235 439,230 389,230 389,240 " style="stroke-width:1; fill:#1585d8; stroke:black; " class="clusterblast-orf" description="&lt;b&gt;AF497482_2_calE8&lt;/b&gt;&lt;br&gt;CalE8&lt;br&gt;Location: 44512 - 38753&lt;br&gt;&lt;br&gt;&lt;b&gt;BlastP hit with cds9014_14900&lt;/b&gt;&lt;br&gt;Percentage identity: 53&lt;br&gt;Percentage coverage: 98&lt;br&gt;BLAST bit score: 1626&lt;br&gt;E-value: 0.0"  />
</g>
<g id="a1_006"  >
<polygon locus_tag="AF497482_2_calE7" id="subclusterblast-1_all_1_4_6" points="444,240 444,240 449,235 444,230 444,230 444,240 " style="stroke-width:1; fill:#d815bc; stroke:black; " class="clusterblast-orf" description="&lt;b&gt;AF497482_2_calE7&lt;/b&gt;&lt;br&gt;CalE7&lt;br&gt;Location: 38756 - 38310&lt;br&gt;&lt;br&gt;&lt;b&gt;BlastP hit with cds14896_15373&lt;/b&gt;&lt;br&gt;Percentage identity: 69&lt;br&gt;Percentage coverage: 90&lt;br&gt;BLAST bit score: 210&lt;br&gt;E-value: 1.15e-72"  />
</g>
<g id="a1_007"  >
<polygon locus_tag="AF497482_2_calE6" id="subclusterblast-1_all_1_4_7" points="448,240 454,240 459,235 454,230 448,230 448,240 " style="stroke-width:1; fill:white; stroke:black; " class="clusterblast-orf" description="&lt;b&gt;AF497482_2_calE6&lt;/b&gt;&lt;br&gt;CalE6&lt;br&gt;Location: 38313 - 37168"  />
</g>
<g id="a1_008"  >
<polygon locus_tag="AF497482_2_calE5" id="subclusterblast-1_all_1_4_8" points="484,240 488,240 493,235 488,230 484,230 484,240 " style="stroke-width:1; fill:white; stroke:black; " class="clusterblast-orf" description="&lt;b&gt;AF497482_2_calE5&lt;/b&gt;&lt;br&gt;CalE5&lt;br&gt;Location: 34553 - 33669"  />
</g>
<g id="a1_009"  >
<polygon locus_tag="AF497482_2_calE4" id="subclusterblast-1_all_1_4_9" points="501,240 508,240 513,235 508,230 501,230 501,240 " style="stroke-width:1; fill:white; stroke:black; " class="clusterblast-orf" description="&lt;b&gt;AF497482_2_calE4&lt;/b&gt;&lt;br&gt;CalE4&lt;br&gt;Location: 32797 - 31589"  />
</g>
<g id="a1_0010"  >
<polygon locus_tag="AF497482_2_calE3" id="subclusterblast-1_all_1_4_10" points="616,235 621,230 625,230 625,240 621,240 616,235 " style="stroke-width:1; fill:white; stroke:black; " class="clusterblast-orf" description="&lt;b&gt;AF497482_2_calE3&lt;/b&gt;&lt;br&gt;CalE3&lt;br&gt;Location: 20794 - 19901"  />
</g>
<g id="a1_0011"  >
<polygon locus_tag="AF497482_2_calE2" id="subclusterblast-1_all_1_4_11" points="671,235 676,230 680,230 680,240 676,240 671,235 " style="stroke-width:1; fill:white; stroke:black; " class="clusterblast-orf" description="&lt;b&gt;AF497482_2_calE2&lt;/b&gt;&lt;br&gt;CalE2&lt;br&gt;Location: 15017 - 14103"  />
</g>
<g id="a1_0012"  >
<polygon locus_tag="AF497482_2_calE1" id="subclusterblast-1_all_1_4_12" points="767,235 772,230 780,230 780,240 772,240 767,235 " style="stroke-width:1; fill:white; stroke:black; " class="clusterblast-orf" description="&lt;b&gt;AF497482_2_calE1&lt;/b&gt;&lt;br&gt;CalE1&lt;br&gt;Location: 5048 - 3723"  />
</g>
</svg>
