<svg version="1.1" height="230" viewBox="0 0 800 230" width="800" xmlns="http://www.w3.org/2000/svg" y="0" xmlns:xlink="http://www.w3.org/1999/xlink" preserveAspectRatio="none" x="0"  >
<g class="clusterblast-cluster" label="Query sequence"  >
<text class="clusterblast-acc" y="20" x="5"  >
Query sequence</text>
<line style="stroke-width:1; stroke:grey; " x2="778.0" x1="10" y1="35" y2="35"  />
<polygon style="fill:white; stroke-width:1; stroke:black; " locus_tag="cds164105_164360" description="&lt;b&gt;cds164105_164360&lt;/b&gt;&lt;br&gt;Not trehalose-6-phosphate phosphatase&lt;br&gt;Location: 164105 - 164360" class="clusterblast-orf" id="dummy-1_q0_0_all" points="0,40 6,40 11,35 6,30 0,30 0,40 "  />
<polygon style="fill:#d81515; stroke-width:1; stroke:black; " locus_tag="cds164772_165219" description="&lt;b&gt;cds164772_165219&lt;/b&gt;&lt;br&gt;Siderophore biosynthesis diaminobutyrate--2-oxoglutarate aminotransferase (EC 2.6.1.76)&lt;br&gt;Location: 164772 - 165219" class="clusterblast-orf" id="dummy-1_q1_0_all" points="30,40 44,40 49,35 44,30 30,30 30,40 "  />
<polygon style="fill:#d81515; stroke-width:1; stroke:black; " locus_tag="cds165215_165788" description="&lt;b&gt;cds165215_165788&lt;/b&gt;&lt;br&gt;Siderophore biosynthesis diaminobutyrate--2-oxoglutarate aminotransferase (EC 2.6.1.76)&lt;br&gt;Location: 165215 - 165788" class="clusterblast-orf" id="dummy-1_q2_0_all" points="49,40 70,40 75,35 70,30 49,30 49,40 "  />
<polygon style="fill:#15d815; stroke-width:1; stroke:black; " locus_tag="cds166340_167660" description="&lt;b&gt;cds166340_167660&lt;/b&gt;&lt;br&gt;Siderophore biosynthesis L-2,4-diaminobutyrate decarboxylase&lt;br&gt;Location: 166340 - 167660" class="clusterblast-orf" id="dummy-1_q3_0_all" points="99,40 153,40 158,35 153,30 99,30 99,40 "  />
<polygon style="fill:#1597d8; stroke-width:1; stroke:black; " locus_tag="cds167870_169037" description="&lt;b&gt;cds167870_169037&lt;/b&gt;&lt;br&gt;Siderophore biosynthesis protein, monooxygenase&lt;br&gt;Location: 167870 - 169037" class="clusterblast-orf" id="dummy-1_q4_0_all" points="167,40 214,40 219,35 214,30 167,30 167,40 "  />
<polygon style="fill:#9715d8; stroke-width:1; stroke:black; " locus_tag="cds169085_169871" description="&lt;b&gt;cds169085_169871&lt;/b&gt;&lt;br&gt;Siderophore synthetase superfamily, group A @ Siderophore synthetase large component, acetyltransferase&lt;br&gt;Location: 169085 - 169871" class="clusterblast-orf" id="dummy-1_q5_0_all" points="221,40 251,40 256,35 251,30 221,30 221,40 "  />
<polygon style="fill:#9715d8; stroke-width:1; stroke:black; " locus_tag="cds169867_170707" description="&lt;b&gt;cds169867_170707&lt;/b&gt;&lt;br&gt;Siderophore synthetase superfamily, group A @ Siderophore synthetase large component, acetyltransferase&lt;br&gt;Location: 169867 - 170707" class="clusterblast-orf" id="dummy-1_q6_0_all" points="256,40 288,40 293,35 288,30 256,30 256,40 "  />
<polygon style="fill:#d89715; stroke-width:1; stroke:black; " locus_tag="cds170797_171043" description="&lt;b&gt;cds170797_171043&lt;/b&gt;&lt;br&gt;Siderophore synthetase small component, acetyltransferase&lt;br&gt;Location: 170797 - 171043" class="clusterblast-orf" id="dummy-1_q7_0_all" points="297,40 303,40 308,35 303,30 297,30 297,40 "  />
<polygon style="fill:#d89715; stroke-width:1; stroke:black; " locus_tag="cds171231_171345" description="&lt;b&gt;cds171231_171345&lt;/b&gt;&lt;br&gt;hypothetical protein&lt;br&gt;Location: 171231 - 171345" class="clusterblast-orf" id="dummy-1_q8_0_all" points="316,40 316,40 321,35 316,30 316,30 316,40 "  />
<polygon style="fill:#15d897; stroke-width:1; stroke:black; " locus_tag="cds171361_172483" description="&lt;b&gt;cds171361_172483&lt;/b&gt;&lt;br&gt;hypothetical protein&lt;br&gt;Location: 171361 - 172483" class="clusterblast-orf" id="dummy-1_q9_0_all" points="322,40 367,40 372,35 367,30 322,30 322,40 "  />
<polygon style="fill:white; stroke-width:1; stroke:black; " locus_tag="cds172476_172890" description="&lt;b&gt;cds172476_172890&lt;/b&gt;&lt;br&gt;hypothetical protein&lt;br&gt;Location: 172476 - 172890" class="clusterblast-orf" id="dummy-1_q10_0_all" points="371,40 385,40 390,35 385,30 371,30 371,40 "  />
<polygon style="fill:#15d815; stroke-width:1; stroke:black; " locus_tag="cds173139_174717" description="&lt;b&gt;cds173139_174717&lt;/b&gt;&lt;br&gt;hypothetical protein&lt;br&gt;Location: 173139 - 174717" class="clusterblast-orf" id="dummy-1_q11_0_all" points="401,40 466,40 471,35 466,30 401,30 401,40 "  />
<polygon style="fill:#1515d8; stroke-width:1; stroke:black; " locus_tag="cds175159_175843" description="&lt;b&gt;cds175159_175843&lt;/b&gt;&lt;br&gt;hypothetical protein&lt;br&gt;Location: 175159 - 175843" class="clusterblast-orf" id="dummy-1_q12_0_all" points="490,40 516,40 521,35 516,30 490,30 490,40 "  />
<polygon style="fill:#1515d8; stroke-width:1; stroke:black; " locus_tag="cds176011_176788" description="&lt;b&gt;cds176011_176788&lt;/b&gt;&lt;br&gt;Siderophore synthetase component, ligase&lt;br&gt;Location: 176011 - 176788" class="clusterblast-orf" id="dummy-1_q13_0_all" points="528,40 558,40 563,35 558,30 528,30 528,40 "  />
<polygon style="fill:#d81597; stroke-width:1; stroke:black; " locus_tag="cds176784_178656" description="&lt;b&gt;cds176784_178656&lt;/b&gt;&lt;br&gt;Ferric hydroxamate ABC transporter (TC 3.A.1.14.3), periplasmic substrate binding protein FhuD&lt;br&gt;Location: 176784 - 178656" class="clusterblast-orf" id="dummy-1_q14_0_all" points="562,40 641,40 646,35 641,30 562,30 562,40 "  />
<polygon style="fill:#97d815; stroke-width:1; stroke:black; " locus_tag="cds178777_179197" description="&lt;b&gt;cds178777_179197&lt;/b&gt;&lt;br&gt;hypothetical protein&lt;br&gt;Location: 178777 - 179197" class="clusterblast-orf" id="dummy-1_q15_0_all" points="651,40 665,40 670,35 665,30 651,30 651,40 "  />
<polygon style="fill:#97d815; stroke-width:1; stroke:black; " locus_tag="cds179187_180291" description="&lt;b&gt;cds179187_180291&lt;/b&gt;&lt;br&gt;hypothetical protein&lt;br&gt;Location: 179187 - 180291" class="clusterblast-orf" id="dummy-1_q16_0_all" points="669,40 713,40 718,35 713,30 669,30 669,40 "  />
<polygon style="fill:#97d815; stroke-width:1; stroke:black; " locus_tag="cds180275_181271" description="&lt;b&gt;cds180275_181271&lt;/b&gt;&lt;br&gt;hypothetical protein&lt;br&gt;Location: 180275 - 181271" class="clusterblast-orf" id="dummy-1_q17_0_all" points="717,40 757,40 762,35 757,30 717,30 717,40 "  />
<polygon style="fill:white; stroke-width:1; stroke:black; " locus_tag="cds181466_181685" description="&lt;b&gt;cds181466_181685&lt;/b&gt;&lt;br&gt;hypothetical protein&lt;br&gt;Location: 181466 - 181685" class="clusterblast-orf" id="dummy-1_q18_0_all" points="770,40 775,40 780,35 775,30 770,30 770,40 "  />
</g>
<g class="clusterblast-cluster" description="NZ_CP040244 (2560688-2575322): Streptomyces exfoliatus strain A1013Y chromoso... (54% of genes show similarity), siderophore" label="NZ_CP040244"  >
<text class="clusterblast-acc" y="70" x="5"  >
<a xlink:href="https://antismash-db.secondarymetabolites.org/area.html?record=NZ_CP040244&amp;start=2560688&amp;end=2575322" target="_blank">NZ_CP040244 (2560688-2575322)</a>: Streptomyces exfoliatus strain A1013Y chromoso... (54% of genes show similarity), siderophore</text>
<line style="stroke-width:1; stroke:grey; " x2="778.0" x1="10" y1="85" y2="85"  />
</g>
<g id="a1_000"  >
<polygon style="fill:#d81597; stroke-width:1; stroke:black; " locus_tag="FDM97_RS11945" description="&lt;b&gt;FDM97_RS11945&lt;/b&gt;&lt;br&gt;iron-siderophore ABC transporter substrate-binding protein&lt;br&gt;Location: 2560689 - 2561684&lt;br&gt;&lt;br&gt;&lt;b&gt;BlastP hit with cds176784_178656&lt;/b&gt;&lt;br&gt;Percentage identity: 39&lt;br&gt;Percentage coverage: 46&lt;br&gt;BLAST bit score: 201&lt;br&gt;E-value: 2.9e-49" class="clusterblast-orf" id="dummy-1_h1_8_0" points="65,90 104,90 109,85 104,80 65,80 65,90 "  />
</g>
<g id="a1_001"  >
<polygon style="fill:#97d815; stroke-width:1; stroke:black; " locus_tag="FDM97_RS11950" description="&lt;b&gt;FDM97_RS11950&lt;/b&gt;&lt;br&gt;iron ABC transporter permease&lt;br&gt;Location: 2561684 - 2563762&lt;br&gt;&lt;br&gt;&lt;b&gt;BlastP hit with cds178777_179197&lt;/b&gt;&lt;br&gt;Percentage identity: 59&lt;br&gt;Percentage coverage: 80&lt;br&gt;BLAST bit score: 116&lt;br&gt;E-value: 1.6e-24&lt;br&gt;&lt;br&gt;&lt;b&gt;BlastP hit with cds179187_180291&lt;/b&gt;&lt;br&gt;Percentage identity: 33&lt;br&gt;Percentage coverage: 80&lt;br&gt;BLAST bit score: 84&lt;br&gt;E-value: 1.8e-14&lt;br&gt;&lt;br&gt;&lt;b&gt;BlastP hit with cds180275_181271&lt;/b&gt;&lt;br&gt;Percentage identity: 41&lt;br&gt;Percentage coverage: 51&lt;br&gt;BLAST bit score: 64&lt;br&gt;E-value: 1.7e-08" class="clusterblast-orf" id="dummy-1_h1_8_1" points="109,90 196,90 201,85 196,80 109,80 109,90 "  />
</g>
<g id="a1_002"  >
<polygon style="fill:white; stroke-width:1; stroke:black; " locus_tag="FDM97_RS11955" description="&lt;b&gt;FDM97_RS11955&lt;/b&gt;&lt;br&gt;MFS transporter&lt;br&gt;Location: 2563769 - 2565334" class="clusterblast-orf" id="dummy-1_h1_8_2" points="202,85 207,80 271,80 271,90 207,90 202,85 "  />
</g>
<g id="a1_003"  >
<polygon style="fill:#1515d8; stroke-width:1; stroke:black; " locus_tag="FDM97_RS11960" description="&lt;b&gt;FDM97_RS11960&lt;/b&gt;&lt;br&gt;IucA/IucC family siderophore biosynthesis protein&lt;br&gt;Location: 2565501 - 2567312&lt;br&gt;&lt;br&gt;&lt;b&gt;BlastP hit with cds175159_175843&lt;/b&gt;&lt;br&gt;Percentage identity: 45&lt;br&gt;Percentage coverage: 78&lt;br&gt;BLAST bit score: 121&lt;br&gt;E-value: 8.1e-26&lt;br&gt;&lt;br&gt;&lt;b&gt;BlastP hit with cds176011_176788&lt;/b&gt;&lt;br&gt;Percentage identity: 73&lt;br&gt;Percentage coverage: 100&lt;br&gt;BLAST bit score: 407&lt;br&gt;E-value: 1.1e-111" class="clusterblast-orf" id="dummy-1_h1_8_3" points="278,90 354,90 359,85 354,80 278,80 278,90 "  />
</g>
<g id="a1_004"  >
<polygon style="fill:#15d815; stroke-width:1; stroke:black; " locus_tag="FDM97_RS11965" description="&lt;b&gt;FDM97_RS11965&lt;/b&gt;&lt;br&gt;aminotransferase class V-fold PLP-dependent enzyme&lt;br&gt;Location: 2567375 - 2568862&lt;br&gt;&lt;br&gt;&lt;b&gt;BlastP hit with cds166340_167660&lt;/b&gt;&lt;br&gt;Percentage identity: 35&lt;br&gt;Percentage coverage: 86&lt;br&gt;BLAST bit score: 116&lt;br&gt;E-value: 6.6e-24&lt;br&gt;&lt;br&gt;&lt;b&gt;BlastP hit with cds173139_174717&lt;/b&gt;&lt;br&gt;Percentage identity: 53&lt;br&gt;Percentage coverage: 60&lt;br&gt;BLAST bit score: 245&lt;br&gt;E-value: 1.5e-62" class="clusterblast-orf" id="dummy-1_h1_8_4" points="362,90 422,90 427,85 422,80 362,80 362,90 "  />
</g>
<g id="a1_005"  >
<polygon style="fill:#9715d8; stroke-width:1; stroke:black; " locus_tag="FDM97_RS11970" description="&lt;b&gt;FDM97_RS11970&lt;/b&gt;&lt;br&gt;siderophore synthetase&lt;br&gt;Location: 2568859 - 2570712&lt;br&gt;&lt;br&gt;&lt;b&gt;BlastP hit with cds169085_169871&lt;/b&gt;&lt;br&gt;Percentage identity: 42&lt;br&gt;Percentage coverage: 97&lt;br&gt;BLAST bit score: 149&lt;br&gt;E-value: 5.4e-34&lt;br&gt;&lt;br&gt;&lt;b&gt;BlastP hit with cds169867_170707&lt;/b&gt;&lt;br&gt;Percentage identity: 44&lt;br&gt;Percentage coverage: 97&lt;br&gt;BLAST bit score: 142&lt;br&gt;E-value: 5.4e-32" class="clusterblast-orf" id="dummy-1_h1_8_5" points="427,90 505,90 510,85 505,80 427,80 427,90 "  />
</g>
<g id="a1_006"  >
<polygon style="fill:white; stroke-width:1; stroke:black; " locus_tag="FDM97_RS11975" description="&lt;b&gt;FDM97_RS11975&lt;/b&gt;&lt;br&gt;acetyltransferase&lt;br&gt;Location: 2570709 - 2571293" class="clusterblast-orf" id="dummy-1_h1_8_6" points="509,90 530,90 535,85 530,80 509,80 509,90 "  />
</g>
<g id="a1_007"  >
<polygon style="fill:#1597d8; stroke-width:1; stroke:black; " locus_tag="FDM97_RS11980" description="&lt;b&gt;FDM97_RS11980&lt;/b&gt;&lt;br&gt;SidA/IucD/PvdA family monooxygenase&lt;br&gt;Location: 2571290 - 2572606&lt;br&gt;&lt;br&gt;&lt;b&gt;BlastP hit with cds167870_169037&lt;/b&gt;&lt;br&gt;Percentage identity: 32&lt;br&gt;Percentage coverage: 101&lt;br&gt;BLAST bit score: 136&lt;br&gt;E-value: 4.1e-30" class="clusterblast-orf" id="dummy-1_h1_8_7" points="535,90 589,90 594,85 589,80 535,80 535,90 "  />
</g>
<g id="a1_008"  >
<polygon style="fill:white; stroke-width:1; stroke:black; " locus_tag="FDM97_RS11985" description="&lt;b&gt;FDM97_RS11985&lt;/b&gt;&lt;br&gt;siderophore-interacting protein&lt;br&gt;Location: 2572721 - 2573557" class="clusterblast-orf" id="dummy-1_h1_8_8" points="599,85 604,80 636,80 636,90 604,90 599,85 "  />
</g>
<g id="a1_009"  >
<polygon style="fill:white; stroke-width:1; stroke:black; " locus_tag="FDM97_RS11990" description="&lt;b&gt;FDM97_RS11990&lt;/b&gt;&lt;br&gt;5'-3' exonuclease&lt;br&gt;Location: 2573631 - 2574536" class="clusterblast-orf" id="dummy-1_h1_8_9" points="639,85 644,80 679,80 679,90 644,90 639,85 "  />
</g>
<g id="a1_0010"  >
<polygon style="fill:white; stroke-width:1; stroke:black; " locus_tag="FDM97_RS11995" description="&lt;b&gt;FDM97_RS11995&lt;/b&gt;&lt;br&gt;helix-turn-helix transcriptional regulator&lt;br&gt;Location: 2574771 - 2575322" class="clusterblast-orf" id="dummy-1_h1_8_10" points="690,90 709,90 714,85 709,80 690,80 690,90 "  />
</g>
</svg>
