<svg version="1.1" height="230" viewBox="0 0 800 230" width="800" xmlns="http://www.w3.org/2000/svg" y="0" xmlns:xlink="http://www.w3.org/1999/xlink" preserveAspectRatio="none" x="0"  >
<g class="clusterblast-cluster" label="Query sequence"  >
<text class="clusterblast-acc" y="20" x="5"  >
Query sequence</text>
<line style="stroke-width:1; stroke:grey; " x2="778.0" x1="10" y1="35" y2="35"  />
<polygon style="fill:white; stroke-width:1; stroke:black; " locus_tag="cds0_270" description="&lt;b&gt;cds0_270&lt;/b&gt;&lt;br&gt;hypothetical protein&lt;br&gt;Location: 0 - 270" class="clusterblast-orf" id="dummy-1_q0_0_all" points="343,35 348,30 348,30 348,40 348,40 343,35 "  />
<polygon style="fill:white; stroke-width:1; stroke:black; " locus_tag="cds531_1311" description="&lt;b&gt;cds531_1311&lt;/b&gt;&lt;br&gt;Hypothetical NagD-like phosphatase, Actinobacterial subfamily&lt;br&gt;Location: 531 - 1311" class="clusterblast-orf" id="dummy-1_q1_0_all" points="353,40 362,40 367,35 362,30 353,30 353,40 "  />
<polygon style="fill:white; stroke-width:1; stroke:black; " locus_tag="cds1359_1527" description="&lt;b&gt;cds1359_1527&lt;/b&gt;&lt;br&gt;hypothetical protein&lt;br&gt;Location: 1359 - 1527" class="clusterblast-orf" id="dummy-1_q2_0_all" points="368,35 371,30 371,40 368,35 "  />
<polygon style="fill:white; stroke-width:1; stroke:black; " locus_tag="cds1591_1870" description="&lt;b&gt;cds1591_1870&lt;/b&gt;&lt;br&gt;hypothetical protein&lt;br&gt;Location: 1591 - 1870" class="clusterblast-orf" id="dummy-1_q3_0_all" points="372,35 377,30 378,30 378,40 377,40 372,35 "  />
<polygon style="fill:#d81515; stroke-width:1; stroke:black; " locus_tag="cds1963_2998" description="&lt;b&gt;cds1963_2998&lt;/b&gt;&lt;br&gt;hypothetical protein&lt;br&gt;Location: 1963 - 2998" class="clusterblast-orf" id="dummy-1_q4_0_all" points="379,40 394,40 399,35 394,30 379,30 379,40 "  />
<polygon style="fill:#15d815; stroke-width:1; stroke:black; " locus_tag="cds3089_3746" description="&lt;b&gt;cds3089_3746&lt;/b&gt;&lt;br&gt;HAD-superfamily hydrolase subfamily IA, variant 3&lt;br&gt;Location: 3089 - 3746" class="clusterblast-orf" id="dummy-1_q5_0_all" points="400,40 408,40 413,35 408,30 400,30 400,40 "  />
<polygon style="fill:#1515d8; stroke-width:1; stroke:black; " locus_tag="cds3809_5027" description="&lt;b&gt;cds3809_5027&lt;/b&gt;&lt;br&gt;hypothetical protein&lt;br&gt;Location: 3809 - 5027" class="clusterblast-orf" id="dummy-1_q6_0_all" points="414,40 432,40 437,35 432,30 414,30 414,40 "  />
</g>
<g class="clusterblast-cluster" description="NZ_CP020555 (4022866-4064646): Streptomyces sp. Sge12 chromosome, complete ge... (8% of genes show similarity), NRPS-like,butyrolactone" label="NZ_CP020555"  >
<text class="clusterblast-acc" y="70" x="5"  >
<a xlink:href="https://antismash-db.secondarymetabolites.org/area.html?record=NZ_CP020555&amp;start=4022866&amp;end=4064646" target="_blank">NZ_CP020555 (4022866-4064646)</a>: Streptomyces sp. Sge12 chromosome, complete ge... (8% of genes show similarity), NRPS-like,butyrolactone</text>
<line style="stroke-width:1; stroke:grey; " x2="778.0" x1="10" y1="85" y2="85"  />
</g>
<g id="a1_000"  >
<polygon style="fill:white; stroke-width:1; stroke:black; " locus_tag="B6R96_RS18115" description="&lt;b&gt;B6R96_RS18115&lt;/b&gt;&lt;br&gt;decarboxylating 6-phosphogluconate dehydrogenase&lt;br&gt;Location: 4064646 - 4063771" class="clusterblast-orf" id="dummy-1_h1_6_0" points="0,90 11,90 16,85 11,80 0,80 0,90 "  />
</g>
<g id="a1_001"  >
<polygon style="fill:white; stroke-width:1; stroke:black; " locus_tag="B6R96_RS18110" description="&lt;b&gt;B6R96_RS18110&lt;/b&gt;&lt;br&gt;DNA replication/repair protein RecF&lt;br&gt;Location: 4063687 - 4062551" class="clusterblast-orf" id="dummy-1_h1_6_1" points="17,90 34,90 39,85 34,80 17,80 17,90 "  />
</g>
<g id="a1_002"  >
<polygon style="fill:white; stroke-width:1; stroke:black; " locus_tag="B6R96_RS18105" description="&lt;b&gt;B6R96_RS18105&lt;/b&gt;&lt;br&gt;DUF721 domain-containing protein&lt;br&gt;Location: 4062554 - 4062021" class="clusterblast-orf" id="dummy-1_h1_6_2" points="39,90 44,90 49,85 44,80 39,80 39,90 "  />
</g>
<g id="a1_003"  >
<polygon style="fill:white; stroke-width:1; stroke:black; " locus_tag="B6R96_RS18100" description="&lt;b&gt;B6R96_RS18100&lt;/b&gt;&lt;br&gt;DNA topoisomerase (ATP-hydrolyzing) subunit B&lt;br&gt;Location: 4061602 - 4059581" class="clusterblast-orf" id="dummy-1_h1_6_3" points="56,90 89,90 94,85 89,80 56,80 56,90 "  />
</g>
<g id="a1_004"  >
<polygon style="fill:white; stroke-width:1; stroke:black; " locus_tag="B6R96_RS18095" description="&lt;b&gt;B6R96_RS18095&lt;/b&gt;&lt;br&gt;DNA gyrase subunit A&lt;br&gt;Location: 4059537 - 4056931" class="clusterblast-orf" id="dummy-1_h1_6_4" points="95,90 139,90 144,85 139,80 95,80 95,90 "  />
</g>
<g id="a1_005"  >
<polygon style="fill:white; stroke-width:1; stroke:black; " locus_tag="B6R96_RS18090" description="&lt;b&gt;B6R96_RS18090&lt;/b&gt;&lt;br&gt;DUF3566 domain-containing protein&lt;br&gt;Location: 4056843 - 4056295" class="clusterblast-orf" id="dummy-1_h1_6_5" points="145,90 150,90 155,85 150,80 145,80 145,90 "  />
</g>
<g id="a1_006"  >
<polygon style="fill:white; stroke-width:1; stroke:black; " locus_tag="B6R96_RS18080" description="&lt;b&gt;B6R96_RS18080&lt;/b&gt;&lt;br&gt;hypothetical protein&lt;br&gt;Location: 4056075 - 4055812" class="clusterblast-orf" id="dummy-1_h1_6_6" points="160,90 164,85 160,80 160,90 "  />
</g>
<g id="a1_007"  >
<polygon style="fill:white; stroke-width:1; stroke:black; " locus_tag="B6R96_RS18075" description="&lt;b&gt;B6R96_RS18075&lt;/b&gt;&lt;br&gt;hypothetical protein&lt;br&gt;Location: 4055722 - 4054379" class="clusterblast-orf" id="dummy-1_h1_6_7" points="166,90 186,90 191,85 186,80 166,80 166,90 "  />
</g>
<g id="a1_008"  >
<polygon style="fill:white; stroke-width:1; stroke:black; " locus_tag="B6R96_RS18070" description="&lt;b&gt;B6R96_RS18070&lt;/b&gt;&lt;br&gt;serine/threonine protein kinase&lt;br&gt;Location: 4054392 - 4053073" class="clusterblast-orf" id="dummy-1_h1_6_8" points="191,85 196,80 216,80 216,90 196,90 191,85 "  />
</g>
<g id="a1_009"  >
<polygon style="fill:white; stroke-width:1; stroke:black; " locus_tag="B6R96_RS18065" description="&lt;b&gt;B6R96_RS18065&lt;/b&gt;&lt;br&gt;transcriptional regulator&lt;br&gt;Location: 4053028 - 4052480" class="clusterblast-orf" id="dummy-1_h1_6_9" points="216,85 221,80 227,80 227,90 221,90 216,85 "  />
</g>
<g id="a1_0010"  >
<polygon style="fill:#d81515; stroke-width:1; stroke:black; " locus_tag="B6R96_RS18055" description="&lt;b&gt;B6R96_RS18055&lt;/b&gt;&lt;br&gt;hypothetical protein&lt;br&gt;Location: 4051700 - 4050687&lt;br&gt;&lt;br&gt;&lt;b&gt;BlastP hit with cds1963_2998&lt;/b&gt;&lt;br&gt;Percentage identity: 55&lt;br&gt;Percentage coverage: 94&lt;br&gt;BLAST bit score: 337&lt;br&gt;E-value: 1.9e-90" class="clusterblast-orf" id="dummy-1_h1_6_10" points="241,90 255,90 260,85 255,80 241,80 241,90 "  />
</g>
<g id="a1_0011"  >
<polygon style="fill:#15d815; stroke-width:1; stroke:black; " locus_tag="B6R96_RS18050" description="&lt;b&gt;B6R96_RS18050&lt;/b&gt;&lt;br&gt;HAD family phosphatase&lt;br&gt;Location: 4050632 - 4049988&lt;br&gt;&lt;br&gt;&lt;b&gt;BlastP hit with cds3089_3746&lt;/b&gt;&lt;br&gt;Percentage identity: 65&lt;br&gt;Percentage coverage: 98&lt;br&gt;BLAST bit score: 302&lt;br&gt;E-value: 4.2e-80" class="clusterblast-orf" id="dummy-1_h1_6_11" points="261,90 268,90 273,85 268,80 261,80 261,90 "  />
</g>
<g id="a1_0012"  >
<polygon style="fill:#1515d8; stroke-width:1; stroke:black; " locus_tag="B6R96_RS18045" description="&lt;b&gt;B6R96_RS18045&lt;/b&gt;&lt;br&gt;cytochrome P450&lt;br&gt;Location: 4049960 - 4048752&lt;br&gt;&lt;br&gt;&lt;b&gt;BlastP hit with cds3809_5027&lt;/b&gt;&lt;br&gt;Percentage identity: 65&lt;br&gt;Percentage coverage: 99&lt;br&gt;BLAST bit score: 544&lt;br&gt;E-value: 9e-153" class="clusterblast-orf" id="dummy-1_h1_6_12" points="274,90 291,90 296,85 291,80 274,80 274,90 "  />
</g>
<g id="a1_0013"  >
<polygon style="fill:white; stroke-width:1; stroke:black; " locus_tag="B6R96_RS18040" description="&lt;b&gt;B6R96_RS18040&lt;/b&gt;&lt;br&gt;hypothetical protein&lt;br&gt;Location: 4048674 - 4047163" class="clusterblast-orf" id="dummy-1_h1_6_13" points="298,85 303,80 326,80 326,90 303,90 298,85 "  />
</g>
<g id="a1_0014"  >
<polygon style="fill:white; stroke-width:1; stroke:black; " locus_tag="B6R96_RS18035" description="&lt;b&gt;B6R96_RS18035&lt;/b&gt;&lt;br&gt;MFS transporter&lt;br&gt;Location: 4046970 - 4045402" class="clusterblast-orf" id="dummy-1_h1_6_14" points="330,85 335,80 359,80 359,90 335,90 330,85 "  />
</g>
<g id="a1_0015"  >
<polygon style="fill:white; stroke-width:1; stroke:black; " locus_tag="B6R96_RS18030" description="&lt;b&gt;B6R96_RS18030&lt;/b&gt;&lt;br&gt;helix-turn-helix transcriptional regulator&lt;br&gt;Location: 4045283 - 4044972" class="clusterblast-orf" id="dummy-1_h1_6_15" points="361,90 362,90 367,85 362,80 361,80 361,90 "  />
</g>
<g id="a1_0016"  >
<polygon style="fill:white; stroke-width:1; stroke:black; " locus_tag="B6R96_RS18025" description="&lt;b&gt;B6R96_RS18025&lt;/b&gt;&lt;br&gt;non-ribosomal peptide synthetase&lt;br&gt;Location: 4044854 - 4042029" class="clusterblast-orf" id="dummy-1_h1_6_16" points="369,90 417,90 422,85 417,80 369,80 369,90 "  />
</g>
<g id="a1_0017"  >
<polygon style="fill:white; stroke-width:1; stroke:black; " locus_tag="B6R96_RS18020" description="&lt;b&gt;B6R96_RS18020&lt;/b&gt;&lt;br&gt;NAD(P)-dependent oxidoreductase&lt;br&gt;Location: 4042035 - 4041109" class="clusterblast-orf" id="dummy-1_h1_6_17" points="422,90 434,90 439,85 434,80 422,80 422,90 "  />
</g>
<g id="a1_0018"  >
<polygon style="fill:white; stroke-width:1; stroke:black; " locus_tag="B6R96_RS18015" description="&lt;b&gt;B6R96_RS18015&lt;/b&gt;&lt;br&gt;methyltransferase&lt;br&gt;Location: 4041097 - 4040066" class="clusterblast-orf" id="dummy-1_h1_6_18" points="439,90 453,90 458,85 453,80 439,80 439,90 "  />
</g>
<g id="a1_0019"  >
<polygon style="fill:white; stroke-width:1; stroke:black; " locus_tag="B6R96_RS18010" description="&lt;b&gt;B6R96_RS18010&lt;/b&gt;&lt;br&gt;FAD-dependent oxidoreductase&lt;br&gt;Location: 4040016 - 4038586" class="clusterblast-orf" id="dummy-1_h1_6_19" points="459,90 481,90 486,85 481,80 459,80 459,90 "  />
</g>
<g id="a1_0020"  >
<polygon style="fill:white; stroke-width:1; stroke:black; " locus_tag="B6R96_RS18005" description="&lt;b&gt;B6R96_RS18005&lt;/b&gt;&lt;br&gt;amidinotransferase&lt;br&gt;Location: 4038523 - 4037657" class="clusterblast-orf" id="dummy-1_h1_6_20" points="487,85 492,80 503,80 503,90 492,90 487,85 "  />
</g>
<g id="a1_0021"  >
<polygon style="fill:white; stroke-width:1; stroke:black; " locus_tag="B6R96_RS18000" description="&lt;b&gt;B6R96_RS18000&lt;/b&gt;&lt;br&gt;lysine N(6)-hydroxylase/L-ornithine N(5)-oxygenase family protein&lt;br&gt;Location: 4037338 - 4036028" class="clusterblast-orf" id="dummy-1_h1_6_21" points="509,90 529,90 534,85 529,80 509,80 509,90 "  />
</g>
<g id="a1_0022"  >
<polygon style="fill:white; stroke-width:1; stroke:black; " locus_tag="B6R96_RS17995" description="&lt;b&gt;B6R96_RS17995&lt;/b&gt;&lt;br&gt;cupin domain-containing protein&lt;br&gt;Location: 4035973 - 4035605" class="clusterblast-orf" id="dummy-1_h1_6_22" points="535,90 537,90 542,85 537,80 535,80 535,90 "  />
</g>
<g id="a1_0023"  >
<polygon style="fill:white; stroke-width:1; stroke:black; " locus_tag="B6R96_RS17990" description="&lt;b&gt;B6R96_RS17990&lt;/b&gt;&lt;br&gt;class I tRNA ligase family protein&lt;br&gt;Location: 4035608 - 4033989" class="clusterblast-orf" id="dummy-1_h1_6_23" points="542,90 567,90 572,85 567,80 542,80 542,90 "  />
</g>
<g id="a1_0024"  >
<polygon style="fill:white; stroke-width:1; stroke:black; " locus_tag="B6R96_RS17985" description="&lt;b&gt;B6R96_RS17985&lt;/b&gt;&lt;br&gt;MFS transporter&lt;br&gt;Location: 4033973 - 4032639" class="clusterblast-orf" id="dummy-1_h1_6_24" points="572,90 592,90 597,85 592,80 572,80 572,90 "  />
</g>
<g id="a1_0025"  >
<polygon style="fill:white; stroke-width:1; stroke:black; " locus_tag="B6R96_RS17980" description="&lt;b&gt;B6R96_RS17980&lt;/b&gt;&lt;br&gt;ATP-grasp domain-containing protein&lt;br&gt;Location: 4032623 - 4031370" class="clusterblast-orf" id="dummy-1_h1_6_25" points="597,90 616,90 621,85 616,80 597,80 597,90 "  />
</g>
<g id="a1_0026"  >
<polygon style="fill:white; stroke-width:1; stroke:black; " locus_tag="B6R96_RS17975" description="&lt;b&gt;B6R96_RS17975&lt;/b&gt;&lt;br&gt;amidinotransferase&lt;br&gt;Location: 4031377 - 4030553" class="clusterblast-orf" id="dummy-1_h1_6_26" points="621,90 631,90 636,85 631,80 621,80 621,90 "  />
</g>
<g id="a1_0027"  >
<polygon style="fill:white; stroke-width:1; stroke:black; " locus_tag="B6R96_RS17970" description="&lt;b&gt;B6R96_RS17970&lt;/b&gt;&lt;br&gt;hypothetical protein&lt;br&gt;Location: 4030556 - 4030221" class="clusterblast-orf" id="dummy-1_h1_6_27" points="636,90 637,90 642,85 637,80 636,80 636,90 "  />
</g>
<g id="a1_0028"  >
<polygon style="fill:white; stroke-width:1; stroke:black; " locus_tag="B6R96_RS17965" description="&lt;b&gt;B6R96_RS17965&lt;/b&gt;&lt;br&gt;ABC transporter substrate-binding protein&lt;br&gt;Location: 4030224 - 4028446" class="clusterblast-orf" id="dummy-1_h1_6_28" points="642,90 670,90 675,85 670,80 642,80 642,90 "  />
</g>
<g id="a1_0029"  >
<polygon style="fill:white; stroke-width:1; stroke:black; " locus_tag="B6R96_RS17960" description="&lt;b&gt;B6R96_RS17960&lt;/b&gt;&lt;br&gt;hypothetical protein&lt;br&gt;Location: 4028446 - 4027943" class="clusterblast-orf" id="dummy-1_h1_6_29" points="675,90 680,90 685,85 680,80 675,80 675,90 "  />
</g>
<g id="a1_0030"  >
<polygon style="fill:white; stroke-width:1; stroke:black; " locus_tag="B6R96_RS17955" description="&lt;b&gt;B6R96_RS17955&lt;/b&gt;&lt;br&gt;ATP-grasp domain-containing protein&lt;br&gt;Location: 4027937 - 4026675" class="clusterblast-orf" id="dummy-1_h1_6_30" points="685,90 703,90 708,85 703,80 685,80 685,90 "  />
</g>
<g id="a1_0031"  >
<polygon style="fill:white; stroke-width:1; stroke:black; " locus_tag="B6R96_RS17950" description="&lt;b&gt;B6R96_RS17950&lt;/b&gt;&lt;br&gt;FAD-binding oxidoreductase&lt;br&gt;Location: 4026638 - 4025493" class="clusterblast-orf" id="dummy-1_h1_6_31" points="709,90 725,90 730,85 725,80 709,80 709,90 "  />
</g>
<g id="a1_0032"  >
<polygon style="fill:white; stroke-width:1; stroke:black; " locus_tag="B6R96_RS17945" description="&lt;b&gt;B6R96_RS17945&lt;/b&gt;&lt;br&gt;hypothetical protein&lt;br&gt;Location: 4025463 - 4024486" class="clusterblast-orf" id="dummy-1_h1_6_32" points="731,90 744,90 749,85 744,80 731,80 731,90 "  />
</g>
<g id="a1_0033"  >
<polygon style="fill:white; stroke-width:1; stroke:black; " locus_tag="B6R96_RS17940" description="&lt;b&gt;B6R96_RS17940&lt;/b&gt;&lt;br&gt;transcriptional regulator&lt;br&gt;Location: 4024330 - 4022867" class="clusterblast-orf" id="dummy-1_h1_6_33" points="752,85 757,80 780,80 780,90 757,90 752,85 "  />
</g>
</svg>
