<svg version="1.1" height="230" viewBox="0 0 800 230" width="800" xmlns="http://www.w3.org/2000/svg" y="0" xmlns:xlink="http://www.w3.org/1999/xlink" preserveAspectRatio="none" x="0"  >
<g class="clusterblast-cluster" label="Query sequence"  >
<text class="clusterblast-acc" y="20" x="5"  >
Query sequence</text>
<line style="stroke-width:1; stroke:grey; " x2="778.0" x1="10" y1="35" y2="35"  />
<polygon style="fill:white; stroke-width:1; stroke:black; " locus_tag="cds64041_64167" description="&lt;b&gt;cds64041_64167&lt;/b&gt;&lt;br&gt;histidine autokinase&lt;br&gt;Location: 64041 - 64167" class="clusterblast-orf" id="dummy-1_q0_0_all" points="4,40 9,40 14,35 9,30 4,30 4,40 "  />
<polygon style="fill:white; stroke-width:1; stroke:black; " locus_tag="cds64680_65739" description="&lt;b&gt;cds64680_65739&lt;/b&gt;&lt;br&gt;hypothetical protein&lt;br&gt;Location: 64680 - 65739" class="clusterblast-orf" id="dummy-1_q1_0_all" points="54,35 59,30 137,30 137,40 59,40 54,35 "  />
<polygon style="fill:#d81515; stroke-width:1; stroke:black; " locus_tag="cds65912_66254" description="&lt;b&gt;cds65912_66254&lt;/b&gt;&lt;br&gt;hypothetical protein&lt;br&gt;Location: 65912 - 66254" class="clusterblast-orf" id="dummy-1_q2_0_all" points="150,40 172,40 177,35 172,30 150,30 150,40 "  />
<polygon style="fill:#4dd815; stroke-width:1; stroke:black; " locus_tag="cds66341_67310" description="&lt;b&gt;cds66341_67310&lt;/b&gt;&lt;br&gt;hypothetical protein&lt;br&gt;Location: 66341 - 67310" class="clusterblast-orf" id="dummy-1_q3_0_all" points="184,40 254,40 259,35 254,30 184,30 184,40 "  />
<polygon style="fill:#1585d8; stroke-width:1; stroke:black; " locus_tag="cds68109_69231" description="&lt;b&gt;cds68109_69231&lt;/b&gt;&lt;br&gt;A-factor biosynthesis protein AfsA&lt;br&gt;Location: 68109 - 69231" class="clusterblast-orf" id="dummy-1_q4_0_all" points="321,40 404,40 409,35 404,30 321,30 321,40 "  />
<polygon style="fill:#d815bc; stroke-width:1; stroke:black; " locus_tag="cds69187_69535" description="&lt;b&gt;cds69187_69535&lt;/b&gt;&lt;br&gt;hypothetical protein&lt;br&gt;Location: 69187 - 69535" class="clusterblast-orf" id="dummy-1_q5_0_all" points="406,35 411,30 433,30 433,40 411,40 406,35 "  />
<polygon style="fill:#d815bc; stroke-width:1; stroke:black; " locus_tag="cds69534_69855" description="&lt;b&gt;cds69534_69855&lt;/b&gt;&lt;br&gt;hypothetical protein&lt;br&gt;Location: 69534 - 69855" class="clusterblast-orf" id="dummy-1_q6_0_all" points="433,35 438,30 458,30 458,40 438,40 433,35 "  />
<polygon style="fill:white; stroke-width:1; stroke:black; " locus_tag="cds70071_70233" description="&lt;b&gt;cds70071_70233&lt;/b&gt;&lt;br&gt;hypothetical protein&lt;br&gt;Location: 70071 - 70233" class="clusterblast-orf" id="dummy-1_q7_0_all" points="475,35 480,30 487,30 487,40 480,40 475,35 "  />
<polygon style="fill:#d8bc15; stroke-width:1; stroke:black; " locus_tag="cds70309_70558" description="&lt;b&gt;cds70309_70558&lt;/b&gt;&lt;br&gt;hypothetical protein&lt;br&gt;Location: 70309 - 70558" class="clusterblast-orf" id="dummy-1_q8_0_all" points="493,35 498,30 512,30 512,40 498,40 493,35 "  />
<polygon style="fill:#d8bc15; stroke-width:1; stroke:black; " locus_tag="cds70645_71065" description="&lt;b&gt;cds70645_71065&lt;/b&gt;&lt;br&gt;3-oxoacyl-[acyl-carrier protein] reductase (EC 1.1.1.100)&lt;br&gt;Location: 70645 - 71065" class="clusterblast-orf" id="dummy-1_q9_0_all" points="519,35 524,30 552,30 552,40 524,40 519,35 "  />
<polygon style="fill:white; stroke-width:1; stroke:black; " locus_tag="cds71175_71502" description="&lt;b&gt;cds71175_71502&lt;/b&gt;&lt;br&gt;hypothetical protein&lt;br&gt;Location: 71175 - 71502" class="clusterblast-orf" id="dummy-1_q10_0_all" points="561,35 566,30 586,30 586,40 566,40 561,35 "  />
<polygon style="fill:#15d885; stroke-width:1; stroke:black; " locus_tag="cds71637_72009" description="&lt;b&gt;cds71637_72009&lt;/b&gt;&lt;br&gt;Transcriptional regulator, TetR family&lt;br&gt;Location: 71637 - 72009" class="clusterblast-orf" id="dummy-1_q11_0_all" points="597,40 621,40 626,35 621,30 597,30 597,40 "  />
<polygon style="fill:#4d15d8; stroke-width:1; stroke:black; " locus_tag="cds72285_72675" description="&lt;b&gt;cds72285_72675&lt;/b&gt;&lt;br&gt;Acetyltransferase&lt;br&gt;Location: 72285 - 72675" class="clusterblast-orf" id="dummy-1_q12_0_all" points="647,35 652,30 678,30 678,40 652,40 647,35 "  />
<polygon style="fill:white; stroke-width:1; stroke:black; " locus_tag="cds72685_72805" description="&lt;b&gt;cds72685_72805&lt;/b&gt;&lt;br&gt;hypothetical protein&lt;br&gt;Location: 72685 - 72805" class="clusterblast-orf" id="dummy-1_q13_0_all" points="678,40 683,40 688,35 683,30 678,30 678,40 "  />
<polygon style="fill:white; stroke-width:1; stroke:black; " locus_tag="cds72956_73175" description="&lt;b&gt;cds72956_73175&lt;/b&gt;&lt;br&gt;hypothetical protein&lt;br&gt;Location: 72956 - 73175" class="clusterblast-orf" id="dummy-1_q14_0_all" points="699,35 704,30 717,30 717,40 704,40 699,35 "  />
<polygon style="fill:white; stroke-width:1; stroke:black; " locus_tag="cds73241_73577" description="&lt;b&gt;cds73241_73577&lt;/b&gt;&lt;br&gt;hypothetical protein&lt;br&gt;Location: 73241 - 73577" class="clusterblast-orf" id="dummy-1_q15_0_all" points="722,35 727,30 748,30 748,40 727,40 722,35 "  />
<polygon style="fill:white; stroke-width:1; stroke:black; " locus_tag="cds73676_73940" description="&lt;b&gt;cds73676_73940&lt;/b&gt;&lt;br&gt;FAD dependent oxidoreductase&lt;br&gt;Location: 73676 - 73940" class="clusterblast-orf" id="dummy-1_q16_0_all" points="756,40 771,40 776,35 771,30 756,30 756,40 "  />
</g>
<g class="clusterblast-cluster" description="NZ_CP022310 (3627022-3638015): Streptomyces asterosporus strain DSM 41452 chr... (33% of genes show similarity), butyrolactone" label="NZ_CP022310"  >
<text class="clusterblast-acc" y="70" x="5"  >
<a xlink:href="https://antismash-db.secondarymetabolites.org/area.html?record=NZ_CP022310&amp;start=3627022&amp;end=3638015" target="_blank">NZ_CP022310 (3627022-3638015)</a>: Streptomyces asterosporus strain DSM 41452 chr... (33% of genes show similarity), butyrolactone</text>
<line style="stroke-width:1; stroke:grey; " x2="778.0" x1="10" y1="85" y2="85"  />
</g>
<g id="a1_000"  >
<polygon style="fill:white; stroke-width:1; stroke:black; " locus_tag="CD934_RS15430" description="&lt;b&gt;CD934_RS15430&lt;/b&gt;&lt;br&gt;rhodanese-like domain-containing protein&lt;br&gt;Location: 3637233 - 3636904" class="clusterblast-orf" id="dummy-1_h1_10_0" points="0,85 5,80 25,80 25,90 5,90 0,85 "  />
</g>
<g id="a1_001"  >
<polygon style="fill:white; stroke-width:1; stroke:black; " locus_tag="CD934_RS15425" description="&lt;b&gt;CD934_RS15425&lt;/b&gt;&lt;br&gt;hypothetical protein&lt;br&gt;Location: 3636850 - 3636098" class="clusterblast-orf" id="dummy-1_h1_10_1" points="29,85 34,80 88,80 88,90 34,90 29,85 "  />
</g>
<g id="a1_002"  >
<polygon style="fill:white; stroke-width:1; stroke:black; " locus_tag="CD934_RS15420" description="&lt;b&gt;CD934_RS15420&lt;/b&gt;&lt;br&gt;DUF2252 family protein&lt;br&gt;Location: 3635633 - 3634257" class="clusterblast-orf" id="dummy-1_h1_10_2" points="124,85 129,80 232,80 232,90 129,90 124,85 "  />
</g>
<g id="a1_003"  >
<polygon style="fill:#15d885; stroke-width:1; stroke:black; " locus_tag="CD934_RS15415" description="&lt;b&gt;CD934_RS15415&lt;/b&gt;&lt;br&gt;TetR family transcriptional regulator&lt;br&gt;Location: 3633894 - 3633229&lt;br&gt;&lt;br&gt;&lt;b&gt;BlastP hit with cds71637_72009&lt;/b&gt;&lt;br&gt;Percentage identity: 38&lt;br&gt;Percentage coverage: 72&lt;br&gt;BLAST bit score: 56&lt;br&gt;E-value: 2.3e-06" class="clusterblast-orf" id="dummy-1_h1_10_3" points="260,85 265,80 312,80 312,90 265,90 260,85 "  />
</g>
<g id="a1_004"  >
<polygon style="fill:#1585d8; stroke-width:1; stroke:black; " locus_tag="CD934_RS15410" description="&lt;b&gt;CD934_RS15410&lt;/b&gt;&lt;br&gt;ScbA protein&lt;br&gt;Location: 3633015 - 3632023&lt;br&gt;&lt;br&gt;&lt;b&gt;BlastP hit with cds68109_69231&lt;/b&gt;&lt;br&gt;Percentage identity: 44&lt;br&gt;Percentage coverage: 75&lt;br&gt;BLAST bit score: 220&lt;br&gt;E-value: 3.6e-55" class="clusterblast-orf" id="dummy-1_h1_10_4" points="328,90 401,90 406,85 401,80 328,80 328,90 "  />
</g>
<g id="a1_005"  >
<polygon style="fill:#4dd815; stroke-width:1; stroke:black; " locus_tag="CD934_RS15405" description="&lt;b&gt;CD934_RS15405&lt;/b&gt;&lt;br&gt;NAD-dependent epimerase/dehydratase family protein&lt;br&gt;Location: 3632026 - 3631097&lt;br&gt;&lt;br&gt;&lt;b&gt;BlastP hit with cds66341_67310&lt;/b&gt;&lt;br&gt;Percentage identity: 42&lt;br&gt;Percentage coverage: 97&lt;br&gt;BLAST bit score: 176&lt;br&gt;E-value: 3.9e-42" class="clusterblast-orf" id="dummy-1_h1_10_5" points="406,90 473,90 478,85 473,80 406,80 406,90 "  />
</g>
<g id="a1_006"  >
<polygon style="fill:white; stroke-width:1; stroke:black; " locus_tag="CD934_RS15395" description="&lt;b&gt;CD934_RS15395&lt;/b&gt;&lt;br&gt;DUF3662 domain-containing protein&lt;br&gt;Location: 3630273 - 3629437" class="clusterblast-orf" id="dummy-1_h1_10_6" points="542,90 602,90 607,85 602,80 542,80 542,90 "  />
</g>
<g id="a1_007"  >
<polygon style="fill:white; stroke-width:1; stroke:black; " locus_tag="CD934_RS15390" description="&lt;b&gt;CD934_RS15390&lt;/b&gt;&lt;br&gt;FHA domain-containing protein&lt;br&gt;Location: 3629426 - 3628917" class="clusterblast-orf" id="dummy-1_h1_10_7" points="608,90 643,90 648,85 643,80 608,80 608,90 "  />
</g>
<g id="a1_008"  >
<polygon style="fill:white; stroke-width:1; stroke:black; " locus_tag="CD934_RS15385" description="&lt;b&gt;CD934_RS15385&lt;/b&gt;&lt;br&gt;Stp1/IreP family PP2C-type Ser/Thr phosphatase&lt;br&gt;Location: 3628775 - 3627231" class="clusterblast-orf" id="dummy-1_h1_10_8" points="659,90 775,90 780,85 775,80 659,80 659,90 "  />
</g>
</svg>
