<svg version="1.1" height="230" viewBox="0 0 800 230" width="800" xmlns="http://www.w3.org/2000/svg" y="0" xmlns:xlink="http://www.w3.org/1999/xlink" preserveAspectRatio="none" x="0"  >
<g class="clusterblast-cluster" label="Query sequence"  >
<text class="clusterblast-acc" y="20" x="5"  >
Query sequence</text>
<line style="stroke-width:1; stroke:grey; " x2="778.0" x1="10" y1="35" y2="35"  />
<polygon style="fill:white; stroke-width:1; stroke:black; " locus_tag="cds7749_9273" description="&lt;b&gt;cds7749_9273&lt;/b&gt;&lt;br&gt;hypothetical protein&lt;br&gt;Location: 7749 - 9273" class="clusterblast-orf" id="dummy-1_q0_0_all" points="275,40 287,40 292,35 287,30 275,30 275,40 "  />
<polygon style="fill:white; stroke-width:1; stroke:black; " locus_tag="cds9296_10133" description="&lt;b&gt;cds9296_10133&lt;/b&gt;&lt;br&gt;Putative serine/threonine protein kinase&lt;br&gt;Location: 9296 - 10133" class="clusterblast-orf" id="dummy-1_q1_0_all" points="292,40 296,40 301,35 296,30 292,30 292,40 "  />
<polygon style="fill:#d81515; stroke-width:1; stroke:black; " locus_tag="cds10207_10381" description="&lt;b&gt;cds10207_10381&lt;/b&gt;&lt;br&gt;hypothetical protein&lt;br&gt;Location: 10207 - 10381" class="clusterblast-orf" id="dummy-1_q2_0_all" points="302,35 304,30 304,40 302,35 "  />
<polygon style="fill:#5cd815; stroke-width:1; stroke:black; " locus_tag="cds10423_10807" description="&lt;b&gt;cds10423_10807&lt;/b&gt;&lt;br&gt;hypothetical protein; SCN 6&lt;br&gt;Location: 10423 - 10807" class="clusterblast-orf" id="dummy-1_q3_0_all" points="305,35 309,30 309,40 305,35 "  />
<polygon style="fill:white; stroke-width:1; stroke:black; " locus_tag="cds10810_11755" description="&lt;b&gt;cds10810_11755&lt;/b&gt;&lt;br&gt;hypothetical protein&lt;br&gt;Location: 10810 - 11755" class="clusterblast-orf" id="dummy-1_q4_0_all" points="309,35 314,30 319,30 319,40 314,40 309,35 "  />
<polygon style="fill:#15a3d8; stroke-width:1; stroke:black; " locus_tag="cds11837_12044" description="&lt;b&gt;cds11837_12044&lt;/b&gt;&lt;br&gt;Beta-lactamase (Cephalosporinase) (EC 3.5.2.6)&lt;br&gt;Location: 11837 - 12044" class="clusterblast-orf" id="dummy-1_q5_0_all" points="320,35 323,30 323,40 320,35 "  />
<polygon style="fill:#15a3d8; stroke-width:1; stroke:black; " locus_tag="cds12246_12447" description="&lt;b&gt;cds12246_12447&lt;/b&gt;&lt;br&gt;Beta-lactamase class C-like protein in cluster with YzbB&lt;br&gt;Location: 12246 - 12447" class="clusterblast-orf" id="dummy-1_q6_0_all" points="325,35 327,30 327,40 325,35 "  />
<polygon style="fill:white; stroke-width:1; stroke:black; " locus_tag="cds12468_12624" description="&lt;b&gt;cds12468_12624&lt;/b&gt;&lt;br&gt;hypothetical protein&lt;br&gt;Location: 12468 - 12624" class="clusterblast-orf" id="dummy-1_q7_0_all" points="327,40 329,35 327,30 327,40 "  />
<polygon style="fill:#15a3d8; stroke-width:1; stroke:black; " locus_tag="cds12634_13078" description="&lt;b&gt;cds12634_13078&lt;/b&gt;&lt;br&gt;Beta-lactamase class C-like protein in cluster with YzbB&lt;br&gt;Location: 12634 - 13078" class="clusterblast-orf" id="dummy-1_q8_0_all" points="329,35 334,30 334,30 334,40 334,40 329,35 "  />
<polygon style="fill:#15a3d8; stroke-width:1; stroke:black; " locus_tag="cds13062_13887" description="&lt;b&gt;cds13062_13887&lt;/b&gt;&lt;br&gt;Beta-lactamase class C-like protein in cluster with YzbB&lt;br&gt;Location: 13062 - 13887" class="clusterblast-orf" id="dummy-1_q9_0_all" points="334,35 339,30 343,30 343,40 339,40 334,35 "  />
<polygon style="fill:#c715d8; stroke-width:1; stroke:black; " locus_tag="cds13897_14233" description="&lt;b&gt;cds13897_14233&lt;/b&gt;&lt;br&gt;Phenylacetate-coenzyme A ligase (EC 6.2.1.30)&lt;br&gt;Location: 13897 - 14233" class="clusterblast-orf" id="dummy-1_q10_0_all" points="343,35 347,30 347,40 343,35 "  />
<polygon style="fill:#c715d8; stroke-width:1; stroke:black; " locus_tag="cds14217_15087" description="&lt;b&gt;cds14217_15087&lt;/b&gt;&lt;br&gt;Phenylacetate-coenzyme A ligase (EC 6.2.1.30)&lt;br&gt;Location: 14217 - 15087" class="clusterblast-orf" id="dummy-1_q11_0_all" points="347,35 352,30 356,30 356,40 352,40 347,35 "  />
<polygon style="fill:white; stroke-width:1; stroke:black; " locus_tag="cds15327_15738" description="&lt;b&gt;cds15327_15738&lt;/b&gt;&lt;br&gt;hypothetical protein&lt;br&gt;Location: 15327 - 15738" class="clusterblast-orf" id="dummy-1_q12_0_all" points="359,40 363,35 359,30 359,40 "  />
<polygon style="fill:#d88015; stroke-width:1; stroke:black; " locus_tag="cds15860_16733" description="&lt;b&gt;cds15860_16733&lt;/b&gt;&lt;br&gt;hypothetical protein&lt;br&gt;Location: 15860 - 16733" class="clusterblast-orf" id="dummy-1_q13_0_all" points="365,40 369,40 374,35 369,30 365,30 365,40 "  />
<polygon style="fill:#15d839; stroke-width:1; stroke:black; " locus_tag="cds16748_17177" description="&lt;b&gt;cds16748_17177&lt;/b&gt;&lt;br&gt;Ribosome-associated heat shock protein implicated in the recycling of the 50S subunit (S4 paralog)&lt;br&gt;Location: 16748 - 17177" class="clusterblast-orf" id="dummy-1_q14_0_all" points="375,40 379,35 375,30 375,40 "  />
<polygon style="fill:#1539d8; stroke-width:1; stroke:black; " locus_tag="cds17321_18353" description="&lt;b&gt;cds17321_18353&lt;/b&gt;&lt;br&gt;Germacradienol/germacrene D synthase (EC 4.2.3.22)&lt;br&gt;Location: 17321 - 18353" class="clusterblast-orf" id="dummy-1_q15_0_all" points="381,35 386,30 392,30 392,40 386,40 381,35 "  />
<polygon style="fill:#1539d8; stroke-width:1; stroke:black; " locus_tag="cds18371_18941" description="&lt;b&gt;cds18371_18941&lt;/b&gt;&lt;br&gt;Germacradienol/germacrene D synthase (EC 4.2.3.22)&lt;br&gt;Location: 18371 - 18941" class="clusterblast-orf" id="dummy-1_q16_0_all" points="393,35 398,30 399,30 399,40 398,40 393,35 "  />
<polygon style="fill:#1539d8; stroke-width:1; stroke:black; " locus_tag="cds19338_19569" description="&lt;b&gt;cds19338_19569&lt;/b&gt;&lt;br&gt;Germacradienol/germacrene D synthase (EC 4.2.3.22)&lt;br&gt;Location: 19338 - 19569" class="clusterblast-orf" id="dummy-1_q17_0_all" points="403,35 406,30 406,40 403,35 "  />
<polygon style="fill:white; stroke-width:1; stroke:black; " locus_tag="cds19665_19782" description="&lt;b&gt;cds19665_19782&lt;/b&gt;&lt;br&gt;hypothetical protein&lt;br&gt;Location: 19665 - 19782" class="clusterblast-orf" id="dummy-1_q18_0_all" points="407,35 408,30 408,40 407,35 "  />
<polygon style="fill:white; stroke-width:1; stroke:black; " locus_tag="cds19818_20073" description="&lt;b&gt;cds19818_20073&lt;/b&gt;&lt;br&gt;hypothetical protein&lt;br&gt;Location: 19818 - 20073" class="clusterblast-orf" id="dummy-1_q19_0_all" points="409,40 411,35 409,30 409,40 "  />
<polygon style="fill:#d81580; stroke-width:1; stroke:black; " locus_tag="cds20096_20483" description="&lt;b&gt;cds20096_20483&lt;/b&gt;&lt;br&gt;hypothetical protein&lt;br&gt;Location: 20096 - 20483" class="clusterblast-orf" id="dummy-1_q20_0_all" points="412,35 416,30 416,40 412,35 "  />
<polygon style="fill:#d81580; stroke-width:1; stroke:black; " locus_tag="cds20458_20824" description="&lt;b&gt;cds20458_20824&lt;/b&gt;&lt;br&gt;hypothetical protein&lt;br&gt;Location: 20458 - 20824" class="clusterblast-orf" id="dummy-1_q21_0_all" points="416,35 420,30 420,40 416,35 "  />
<polygon style="fill:#c7d815; stroke-width:1; stroke:black; " locus_tag="cds21162_21390" description="&lt;b&gt;cds21162_21390&lt;/b&gt;&lt;br&gt;Putative regulatory protein&lt;br&gt;Location: 21162 - 21390" class="clusterblast-orf" id="dummy-1_q22_0_all" points="423,40 426,35 423,30 423,40 "  />
<polygon style="fill:#c7d815; stroke-width:1; stroke:black; " locus_tag="cds21576_22275" description="&lt;b&gt;cds21576_22275&lt;/b&gt;&lt;br&gt;Putative regulatory protein&lt;br&gt;Location: 21576 - 22275" class="clusterblast-orf" id="dummy-1_q23_0_all" points="428,40 431,40 436,35 431,30 428,30 428,40 "  />
<polygon style="fill:#15d8a3; stroke-width:1; stroke:black; " locus_tag="cds22350_23682" description="&lt;b&gt;cds22350_23682&lt;/b&gt;&lt;br&gt;hypothetical protein&lt;br&gt;Location: 22350 - 23682" class="clusterblast-orf" id="dummy-1_q24_0_all" points="437,35 442,30 451,30 451,40 442,40 437,35 "  />
<polygon style="fill:#15d8a3; stroke-width:1; stroke:black; " locus_tag="cds23678_23828" description="&lt;b&gt;cds23678_23828&lt;/b&gt;&lt;br&gt;FIG01123342: hypothetical protein&lt;br&gt;Location: 23678 - 23828" class="clusterblast-orf" id="dummy-1_q25_0_all" points="451,35 453,30 453,40 451,35 "  />
<polygon style="fill:white; stroke-width:1; stroke:black; " locus_tag="cds24014_25160" description="&lt;b&gt;cds24014_25160&lt;/b&gt;&lt;br&gt;hypothetical protein&lt;br&gt;Location: 24014 - 25160" class="clusterblast-orf" id="dummy-1_q26_0_all" points="455,35 460,30 468,30 468,40 460,40 455,35 "  />
<polygon style="fill:#5c15d8; stroke-width:1; stroke:black; " locus_tag="cds25215_25845" description="&lt;b&gt;cds25215_25845&lt;/b&gt;&lt;br&gt;Nucleoside-diphosphate-sugar epimerases&lt;br&gt;Location: 25215 - 25845" class="clusterblast-orf" id="dummy-1_q27_0_all" points="468,40 470,40 475,35 470,30 468,30 468,40 "  />
<polygon style="fill:white; stroke-width:1; stroke:black; " locus_tag="cds26330_26783" description="&lt;b&gt;cds26330_26783&lt;/b&gt;&lt;br&gt;hypothetical protein&lt;br&gt;Location: 26330 - 26783" class="clusterblast-orf" id="dummy-1_q28_0_all" points="481,35 486,30 486,30 486,40 486,40 481,35 "  />
<polygon style="fill:white; stroke-width:1; stroke:black; " locus_tag="cds26779_27211" description="&lt;b&gt;cds26779_27211&lt;/b&gt;&lt;br&gt;hypothetical protein&lt;br&gt;Location: 26779 - 27211" class="clusterblast-orf" id="dummy-1_q29_0_all" points="486,35 490,30 490,40 486,35 "  />
<polygon style="fill:white; stroke-width:1; stroke:black; " locus_tag="cds27287_27479" description="&lt;b&gt;cds27287_27479&lt;/b&gt;&lt;br&gt;hypothetical protein&lt;br&gt;Location: 27287 - 27479" class="clusterblast-orf" id="dummy-1_q30_0_all" points="491,40 493,35 491,30 491,40 "  />
<polygon style="fill:white; stroke-width:1; stroke:black; " locus_tag="cds27568_28000" description="&lt;b&gt;cds27568_28000&lt;/b&gt;&lt;br&gt;Macrolide 2'-phosphotransferase, putative&lt;br&gt;Location: 27568 - 28000" class="clusterblast-orf" id="dummy-1_q31_0_all" points="494,35 499,30 499,30 499,40 499,40 494,35 "  />
<polygon style="fill:white; stroke-width:1; stroke:black; " locus_tag="cds27974_28127" description="&lt;b&gt;cds27974_28127&lt;/b&gt;&lt;br&gt;Macrolide 2'-phosphotransferase, putative&lt;br&gt;Location: 27974 - 28127" class="clusterblast-orf" id="dummy-1_q32_0_all" points="499,35 500,30 500,40 499,35 "  />
<polygon style="fill:white; stroke-width:1; stroke:black; " locus_tag="cds28219_28465" description="&lt;b&gt;cds28219_28465&lt;/b&gt;&lt;br&gt;Macrolide 2'-phosphotransferase, putative&lt;br&gt;Location: 28219 - 28465" class="clusterblast-orf" id="dummy-1_q33_0_all" points="501,35 504,30 504,40 501,35 "  />
</g>
<g class="clusterblast-cluster" description="NC_015953 (240431-310930): Streptomyces sp. SirexAA-E, complete sequence (10% of genes show similarity), T2PKS,terpene" label="NC_015953"  >
<text class="clusterblast-acc" y="70" x="5"  >
<a xlink:href="https://antismash-db.secondarymetabolites.org/area.html?record=NC_015953&amp;start=240431&amp;end=310930" target="_blank">NC_015953 (240431-310930)</a>: Streptomyces sp. SirexAA-E, complete sequence (10% of genes show similarity), T2PKS,terpene</text>
<line style="stroke-width:1; stroke:grey; " x2="778.0" x1="10" y1="85" y2="85"  />
</g>
<g id="a1_000"  >
<polygon style="fill:white; stroke-width:1; stroke:black; " locus_tag="SACTE_RS01320" description="&lt;b&gt;SACTE_RS01320&lt;/b&gt;&lt;br&gt;4Fe-4S dicluster domain-containing protein&lt;br&gt;Location: 310930 - 310022" class="clusterblast-orf" id="dummy-1_h1_6_0" points="0,90 5,90 10,85 5,80 0,80 0,90 "  />
</g>
<g id="a1_001"  >
<polygon style="fill:white; stroke-width:1; stroke:black; " locus_tag="SACTE_RS01315" description="&lt;b&gt;SACTE_RS01315&lt;/b&gt;&lt;br&gt;polysulfide reductase NrfD&lt;br&gt;Location: 310025 - 309108" class="clusterblast-orf" id="dummy-1_h1_6_1" points="10,90 15,90 20,85 15,80 10,80 10,90 "  />
</g>
<g id="a1_002"  >
<polygon style="fill:white; stroke-width:1; stroke:black; " locus_tag="SACTE_RS01310" description="&lt;b&gt;SACTE_RS01310&lt;/b&gt;&lt;br&gt;hypothetical protein&lt;br&gt;Location: 309096 - 308701" class="clusterblast-orf" id="dummy-1_h1_6_2" points="20,90 24,85 20,80 20,90 "  />
</g>
<g id="a1_003"  >
<polygon style="fill:white; stroke-width:1; stroke:black; " locus_tag="SACTE_RS01305" description="&lt;b&gt;SACTE_RS01305&lt;/b&gt;&lt;br&gt;2Fe-2S iron-sulfur cluster binding domain-containing protein&lt;br&gt;Location: 308661 - 308089" class="clusterblast-orf" id="dummy-1_h1_6_3" points="25,90 26,90 31,85 26,80 25,80 25,90 "  />
</g>
<g id="a1_004"  >
<polygon style="fill:white; stroke-width:1; stroke:black; " locus_tag="SACTE_RS01300" description="&lt;b&gt;SACTE_RS01300&lt;/b&gt;&lt;br&gt;xanthine dehydrogenase family protein subunit M&lt;br&gt;Location: 308092 - 307094" class="clusterblast-orf" id="dummy-1_h1_6_4" points="31,90 37,90 42,85 37,80 31,80 31,90 "  />
</g>
<g id="a1_005"  >
<polygon style="fill:white; stroke-width:1; stroke:black; " locus_tag="SACTE_RS01295" description="&lt;b&gt;SACTE_RS01295&lt;/b&gt;&lt;br&gt;xanthine dehydrogenase family protein molybdopterin-binding subunit&lt;br&gt;Location: 307051 - 304961" class="clusterblast-orf" id="dummy-1_h1_6_5" points="42,90 61,90 66,85 61,80 42,80 42,90 "  />
</g>
<g id="a1_006"  >
<polygon style="fill:white; stroke-width:1; stroke:black; " locus_tag="SACTE_RS01290" description="&lt;b&gt;SACTE_RS01290&lt;/b&gt;&lt;br&gt;ATP-binding protein&lt;br&gt;Location: 304811 - 304350" class="clusterblast-orf" id="dummy-1_h1_6_6" points="67,90 67,90 72,85 67,80 67,80 67,90 "  />
</g>
<g id="a1_007"  >
<polygon style="fill:white; stroke-width:1; stroke:black; " locus_tag="SACTE_RS01285" description="&lt;b&gt;SACTE_RS01285&lt;/b&gt;&lt;br&gt;NADP-dependent succinic semialdehyde dehydrogenase&lt;br&gt;Location: 304209 - 302791" class="clusterblast-orf" id="dummy-1_h1_6_7" points="74,90 85,90 90,85 85,80 74,80 74,90 "  />
</g>
<g id="a1_008"  >
<polygon style="fill:white; stroke-width:1; stroke:black; " locus_tag="SACTE_RS01280" description="&lt;b&gt;SACTE_RS01280&lt;/b&gt;&lt;br&gt;phosphoketolase family protein&lt;br&gt;Location: 302781 - 300394" class="clusterblast-orf" id="dummy-1_h1_6_8" points="90,90 111,90 116,85 111,80 90,80 90,90 "  />
</g>
<g id="a1_009"  >
<polygon style="fill:white; stroke-width:1; stroke:black; " locus_tag="SACTE_RS01275" description="&lt;b&gt;SACTE_RS01275&lt;/b&gt;&lt;br&gt;hypothetical protein&lt;br&gt;Location: 300306 - 299191" class="clusterblast-orf" id="dummy-1_h1_6_9" points="117,85 122,80 129,80 129,90 122,90 117,85 "  />
</g>
<g id="a1_0010"  >
<polygon style="fill:white; stroke-width:1; stroke:black; " locus_tag="SACTE_RS01270" description="&lt;b&gt;SACTE_RS01270&lt;/b&gt;&lt;br&gt;ribonuclease&lt;br&gt;Location: 298979 - 298170" class="clusterblast-orf" id="dummy-1_h1_6_10" points="132,85 137,80 141,80 141,90 137,90 132,85 "  />
</g>
<g id="a1_0011"  >
<polygon style="fill:white; stroke-width:1; stroke:black; " locus_tag="SACTE_RS01265" description="&lt;b&gt;SACTE_RS01265&lt;/b&gt;&lt;br&gt;hypothetical protein&lt;br&gt;Location: 297929 - 297717" class="clusterblast-orf" id="dummy-1_h1_6_11" points="143,90 146,85 143,80 143,90 "  />
</g>
<g id="a1_0012"  >
<polygon style="fill:white; stroke-width:1; stroke:black; " locus_tag="SACTE_RS01260" description="&lt;b&gt;SACTE_RS01260&lt;/b&gt;&lt;br&gt;methyltransferase&lt;br&gt;Location: 297655 - 296495" class="clusterblast-orf" id="dummy-1_h1_6_12" points="146,90 154,90 159,85 154,80 146,80 146,90 "  />
</g>
<g id="a1_0013"  >
<polygon style="fill:white; stroke-width:1; stroke:black; " locus_tag="SACTE_RS01255" description="&lt;b&gt;SACTE_RS01255&lt;/b&gt;&lt;br&gt;hypothetical protein&lt;br&gt;Location: 296488 - 296021" class="clusterblast-orf" id="dummy-1_h1_6_13" points="159,85 164,80 164,80 164,90 164,90 159,85 "  />
</g>
<g id="a1_0014"  >
<polygon style="fill:white; stroke-width:1; stroke:black; " locus_tag="SACTE_RS01250" description="&lt;b&gt;SACTE_RS01250&lt;/b&gt;&lt;br&gt;DUF2236 domain-containing protein&lt;br&gt;Location: 295858 - 294971" class="clusterblast-orf" id="dummy-1_h1_6_14" points="166,90 171,90 176,85 171,80 166,80 166,90 "  />
</g>
<g id="a1_0015"  >
<polygon style="fill:white; stroke-width:1; stroke:black; " locus_tag="SACTE_RS01245" description="&lt;b&gt;SACTE_RS01245&lt;/b&gt;&lt;br&gt;serine/threonine protein kinase&lt;br&gt;Location: 294943 - 292688" class="clusterblast-orf" id="dummy-1_h1_6_15" points="176,90 196,90 201,85 196,80 176,80 176,90 "  />
</g>
<g id="a1_0016"  >
<polygon style="fill:white; stroke-width:1; stroke:black; " locus_tag="SACTE_RS01240" description="&lt;b&gt;SACTE_RS01240&lt;/b&gt;&lt;br&gt;NAD(P)/FAD-dependent oxidoreductase&lt;br&gt;Location: 292620 - 291043" class="clusterblast-orf" id="dummy-1_h1_6_16" points="202,90 215,90 220,85 215,80 202,80 202,90 "  />
</g>
<g id="a1_0017"  >
<polygon style="fill:white; stroke-width:1; stroke:black; " locus_tag="SACTE_RS01235" description="&lt;b&gt;SACTE_RS01235&lt;/b&gt;&lt;br&gt;endo-1,4-beta-xylanase&lt;br&gt;Location: 290854 - 289478" class="clusterblast-orf" id="dummy-1_h1_6_17" points="222,85 227,80 237,80 237,90 227,90 222,85 "  />
</g>
<g id="a1_0018"  >
<polygon style="fill:white; stroke-width:1; stroke:black; " locus_tag="SACTE_RS01230" description="&lt;b&gt;SACTE_RS01230&lt;/b&gt;&lt;br&gt;SIMPL domain-containing protein&lt;br&gt;Location: 288981 - 288331" class="clusterblast-orf" id="dummy-1_h1_6_18" points="242,85 247,80 250,80 250,90 247,90 242,85 "  />
</g>
<g id="a1_0019"  >
<polygon style="fill:#15a3d8; stroke-width:1; stroke:black; " locus_tag="SACTE_RS01225" description="&lt;b&gt;SACTE_RS01225&lt;/b&gt;&lt;br&gt;serine hydrolase&lt;br&gt;Location: 288288 - 286426&lt;br&gt;&lt;br&gt;&lt;b&gt;BlastP hit with cds11837_12044&lt;/b&gt;&lt;br&gt;Percentage identity: 54&lt;br&gt;Percentage coverage: 104&lt;br&gt;BLAST bit score: 65&lt;br&gt;E-value: 2.7e-09&lt;br&gt;&lt;br&gt;&lt;b&gt;BlastP hit with cds12246_12447&lt;/b&gt;&lt;br&gt;Percentage identity: 68&lt;br&gt;Percentage coverage: 85&lt;br&gt;BLAST bit score: 85&lt;br&gt;E-value: 2.4e-15&lt;br&gt;&lt;br&gt;&lt;b&gt;BlastP hit with cds12634_13078&lt;/b&gt;&lt;br&gt;Percentage identity: 67&lt;br&gt;Percentage coverage: 75&lt;br&gt;BLAST bit score: 154&lt;br&gt;E-value: 9.5e-36&lt;br&gt;&lt;br&gt;&lt;b&gt;BlastP hit with cds13062_13887&lt;/b&gt;&lt;br&gt;Percentage identity: 71&lt;br&gt;Percentage coverage: 29&lt;br&gt;BLAST bit score: 118&lt;br&gt;E-value: 1.4e-24" class="clusterblast-orf" id="dummy-1_h1_6_19" points="250,85 255,80 271,80 271,90 255,90 250,85 "  />
</g>
<g id="a1_0020"  >
<polygon style="fill:white; stroke-width:1; stroke:black; " locus_tag="SACTE_RS01220" description="&lt;b&gt;SACTE_RS01220&lt;/b&gt;&lt;br&gt;ionic transporter y4hA&lt;br&gt;Location: 286145 - 285039" class="clusterblast-orf" id="dummy-1_h1_6_20" points="274,90 281,90 286,85 281,80 274,80 274,90 "  />
</g>
<g id="a1_0021"  >
<polygon style="fill:white; stroke-width:1; stroke:black; " locus_tag="SACTE_RS01215" description="&lt;b&gt;SACTE_RS01215&lt;/b&gt;&lt;br&gt;AMP-binding protein&lt;br&gt;Location: 284939 - 283428" class="clusterblast-orf" id="dummy-1_h1_6_21" points="287,90 299,90 304,85 299,80 287,80 287,90 "  />
</g>
<g id="a1_0022"  >
<polygon style="fill:#c715d8; stroke-width:1; stroke:black; " locus_tag="SACTE_RS01210" description="&lt;b&gt;SACTE_RS01210&lt;/b&gt;&lt;br&gt;phenylacetate--CoA ligase&lt;br&gt;Location: 283321 - 282032&lt;br&gt;&lt;br&gt;&lt;b&gt;BlastP hit with cds13897_14233&lt;/b&gt;&lt;br&gt;Percentage identity: 82&lt;br&gt;Percentage coverage: 100&lt;br&gt;BLAST bit score: 182&lt;br&gt;E-value: 2.5e-44&lt;br&gt;&lt;br&gt;&lt;b&gt;BlastP hit with cds14217_15087&lt;/b&gt;&lt;br&gt;Percentage identity: 62&lt;br&gt;Percentage coverage: 97&lt;br&gt;BLAST bit score: 316&lt;br&gt;E-value: 3.7e-84" class="clusterblast-orf" id="dummy-1_h1_6_22" points="305,85 310,80 319,80 319,90 310,90 305,85 "  />
</g>
<g id="a1_0023"  >
<polygon style="fill:white; stroke-width:1; stroke:black; " locus_tag="SACTE_RS32780" description="&lt;b&gt;SACTE_RS32780&lt;/b&gt;&lt;br&gt;alpha/beta hydrolase&lt;br&gt;Location: 281836 - 281251" class="clusterblast-orf" id="dummy-1_h1_6_23" points="321,85 326,80 328,80 328,90 326,90 321,85 "  />
</g>
<g id="a1_0024"  >
<polygon style="fill:white; stroke-width:1; stroke:black; " locus_tag="SACTE_RS01200" description="&lt;b&gt;SACTE_RS01200&lt;/b&gt;&lt;br&gt;FAD-dependent monooxygenase&lt;br&gt;Location: 280937 - 279303" class="clusterblast-orf" id="dummy-1_h1_6_24" points="331,85 336,80 349,80 349,90 336,90 331,85 "  />
</g>
<g id="a1_0025"  >
<polygon style="fill:white; stroke-width:1; stroke:black; " locus_tag="SACTE_RS01195" description="&lt;b&gt;SACTE_RS01195&lt;/b&gt;&lt;br&gt;TcmI family type II polyketide cyclase&lt;br&gt;Location: 279033 - 277915" class="clusterblast-orf" id="dummy-1_h1_6_25" points="352,90 360,90 365,85 360,80 352,80 352,90 "  />
</g>
<g id="a1_0026"  >
<polygon style="fill:white; stroke-width:1; stroke:black; " locus_tag="SACTE_RS01190" description="&lt;b&gt;SACTE_RS01190&lt;/b&gt;&lt;br&gt;cupin domain-containing protein&lt;br&gt;Location: 277839 - 277387" class="clusterblast-orf" id="dummy-1_h1_6_26" points="366,90 366,90 371,85 366,80 366,80 366,90 "  />
</g>
<g id="a1_0027"  >
<polygon style="fill:white; stroke-width:1; stroke:black; " locus_tag="SACTE_RS01185" description="&lt;b&gt;SACTE_RS01185&lt;/b&gt;&lt;br&gt;beta-ketoacyl-[acyl-carrier-protein] synthase family protein&lt;br&gt;Location: 277390 - 276122" class="clusterblast-orf" id="dummy-1_h1_6_27" points="371,90 380,90 385,85 380,80 371,80 371,90 "  />
</g>
<g id="a1_0028"  >
<polygon style="fill:white; stroke-width:1; stroke:black; " locus_tag="SACTE_RS01180" description="&lt;b&gt;SACTE_RS01180&lt;/b&gt;&lt;br&gt;polyketide beta-ketoacyl synthase&lt;br&gt;Location: 276125 - 274875" class="clusterblast-orf" id="dummy-1_h1_6_28" points="385,90 393,90 398,85 393,80 385,80 385,90 "  />
</g>
<g id="a1_0029"  >
<polygon style="fill:white; stroke-width:1; stroke:black; " locus_tag="SACTE_RS01175" description="&lt;b&gt;SACTE_RS01175&lt;/b&gt;&lt;br&gt;acyl carrier protein&lt;br&gt;Location: 274859 - 274605" class="clusterblast-orf" id="dummy-1_h1_6_29" points="399,90 401,85 399,80 399,90 "  />
</g>
<g id="a1_0030"  >
<polygon style="fill:white; stroke-width:1; stroke:black; " locus_tag="SACTE_RS01170" description="&lt;b&gt;SACTE_RS01170&lt;/b&gt;&lt;br&gt;polyketide cyclase&lt;br&gt;Location: 274603 - 274124" class="clusterblast-orf" id="dummy-1_h1_6_30" points="401,90 402,90 407,85 402,80 401,80 401,90 "  />
</g>
<g id="a1_0031"  >
<polygon style="fill:white; stroke-width:1; stroke:black; " locus_tag="SACTE_RS01165" description="&lt;b&gt;SACTE_RS01165&lt;/b&gt;&lt;br&gt;TcmI family type II polyketide cyclase&lt;br&gt;Location: 274105 - 273773" class="clusterblast-orf" id="dummy-1_h1_6_31" points="407,90 411,85 407,80 407,90 "  />
</g>
<g id="a1_0032"  >
<polygon style="fill:white; stroke-width:1; stroke:black; " locus_tag="SACTE_RS01160" description="&lt;b&gt;SACTE_RS01160&lt;/b&gt;&lt;br&gt;O-methyltransferase&lt;br&gt;Location: 273702 - 272608" class="clusterblast-orf" id="dummy-1_h1_6_32" points="411,85 416,80 424,80 424,90 416,90 411,85 "  />
</g>
<g id="a1_0033"  >
<polygon style="fill:white; stroke-width:1; stroke:black; " locus_tag="SACTE_RS01155" description="&lt;b&gt;SACTE_RS01155&lt;/b&gt;&lt;br&gt;hypothetical protein&lt;br&gt;Location: 272573 - 271494" class="clusterblast-orf" id="dummy-1_h1_6_33" points="424,85 429,80 436,80 436,90 429,90 424,85 "  />
</g>
<g id="a1_0034"  >
<polygon style="fill:white; stroke-width:1; stroke:black; " locus_tag="SACTE_RS01150" description="&lt;b&gt;SACTE_RS01150&lt;/b&gt;&lt;br&gt;ACT domain-containing protein&lt;br&gt;Location: 271335 - 270937" class="clusterblast-orf" id="dummy-1_h1_6_34" points="438,90 442,85 438,80 438,90 "  />
</g>
<g id="a1_0035"  >
<polygon style="fill:#d88015; stroke-width:1; stroke:black; " locus_tag="SACTE_RS01145" description="&lt;b&gt;SACTE_RS01145&lt;/b&gt;&lt;br&gt;hypothetical protein&lt;br&gt;Location: 270829 - 270329&lt;br&gt;&lt;br&gt;&lt;b&gt;BlastP hit with cds15860_16733&lt;/b&gt;&lt;br&gt;Percentage identity: 77&lt;br&gt;Percentage coverage: 59&lt;br&gt;BLAST bit score: 250&lt;br&gt;E-value: 2.5e-64" class="clusterblast-orf" id="dummy-1_h1_6_35" points="443,90 444,90 449,85 444,80 443,80 443,90 "  />
</g>
<g id="a1_0036"  >
<polygon style="fill:#1539d8; stroke-width:1; stroke:black; " locus_tag="SACTE_RS01140" description="&lt;b&gt;SACTE_RS01140&lt;/b&gt;&lt;br&gt;germacradienol/geosmin synthase&lt;br&gt;Location: 270366 - 268129&lt;br&gt;&lt;br&gt;&lt;b&gt;BlastP hit with cds17321_18353&lt;/b&gt;&lt;br&gt;Percentage identity: 69&lt;br&gt;Percentage coverage: 80&lt;br&gt;BLAST bit score: 410&lt;br&gt;E-value: 1.7e-112&lt;br&gt;&lt;br&gt;&lt;b&gt;BlastP hit with cds18371_18941&lt;/b&gt;&lt;br&gt;Percentage identity: 76&lt;br&gt;Percentage coverage: 99&lt;br&gt;BLAST bit score: 286&lt;br&gt;E-value: 2.1e-75&lt;br&gt;&lt;br&gt;&lt;b&gt;BlastP hit with cds19338_19569&lt;/b&gt;&lt;br&gt;Percentage identity: 80&lt;br&gt;Percentage coverage: 72&lt;br&gt;BLAST bit score: 105&lt;br&gt;E-value: 2e-21" class="clusterblast-orf" id="dummy-1_h1_6_36" points="448,85 453,80 473,80 473,90 453,90 448,85 "  />
</g>
<g id="a1_0037"  >
<polygon style="fill:white; stroke-width:1; stroke:black; " locus_tag="SACTE_RS01135" description="&lt;b&gt;SACTE_RS01135&lt;/b&gt;&lt;br&gt;N-acetylmuramoyl-L-alanine amidase&lt;br&gt;Location: 267892 - 266558" class="clusterblast-orf" id="dummy-1_h1_6_37" points="476,90 485,90 490,85 485,80 476,80 476,90 "  />
</g>
<g id="a1_0038"  >
<polygon style="fill:#d81580; stroke-width:1; stroke:black; " locus_tag="SACTE_RS01130" description="&lt;b&gt;SACTE_RS01130&lt;/b&gt;&lt;br&gt;aminoglycoside phosphotransferase family protein&lt;br&gt;Location: 266450 - 265323&lt;br&gt;&lt;br&gt;&lt;b&gt;BlastP hit with cds20096_20483&lt;/b&gt;&lt;br&gt;Percentage identity: 54&lt;br&gt;Percentage coverage: 63&lt;br&gt;BLAST bit score: 59&lt;br&gt;E-value: 3.6e-07&lt;br&gt;&lt;br&gt;&lt;b&gt;BlastP hit with cds20458_20824&lt;/b&gt;&lt;br&gt;Percentage identity: 55&lt;br&gt;Percentage coverage: 79&lt;br&gt;BLAST bit score: 86&lt;br&gt;E-value: 2.6e-15" class="clusterblast-orf" id="dummy-1_h1_6_38" points="492,85 497,80 504,80 504,90 497,90 492,85 "  />
</g>
<g id="a1_0039"  >
<polygon style="fill:#c7d815; stroke-width:1; stroke:black; " locus_tag="SACTE_RS01125" description="&lt;b&gt;SACTE_RS01125&lt;/b&gt;&lt;br&gt;hypothetical protein&lt;br&gt;Location: 265091 - 263598&lt;br&gt;&lt;br&gt;&lt;b&gt;BlastP hit with cds21162_21390&lt;/b&gt;&lt;br&gt;Percentage identity: 91&lt;br&gt;Percentage coverage: 75&lt;br&gt;BLAST bit score: 112&lt;br&gt;E-value: 2.1e-23&lt;br&gt;&lt;br&gt;&lt;b&gt;BlastP hit with cds21576_22275&lt;/b&gt;&lt;br&gt;Percentage identity: 59&lt;br&gt;Percentage coverage: 105&lt;br&gt;BLAST bit score: 240&lt;br&gt;E-value: 1.6e-61" class="clusterblast-orf" id="dummy-1_h1_6_39" points="507,90 518,90 523,85 518,80 507,80 507,90 "  />
</g>
<g id="a1_0040"  >
<polygon style="fill:#15d8a3; stroke-width:1; stroke:black; " locus_tag="SACTE_RS01120" description="&lt;b&gt;SACTE_RS01120&lt;/b&gt;&lt;br&gt;SpoIIE family protein phosphatase&lt;br&gt;Location: 263537 - 262107&lt;br&gt;&lt;br&gt;&lt;b&gt;BlastP hit with cds22350_23682&lt;/b&gt;&lt;br&gt;Percentage identity: 44&lt;br&gt;Percentage coverage: 56&lt;br&gt;BLAST bit score: 144&lt;br&gt;E-value: 2.3e-32&lt;br&gt;&lt;br&gt;&lt;b&gt;BlastP hit with cds23678_23828&lt;/b&gt;&lt;br&gt;Percentage identity: 68&lt;br&gt;Percentage coverage: 69&lt;br&gt;BLAST bit score: 55&lt;br&gt;E-value: 2e-06" class="clusterblast-orf" id="dummy-1_h1_6_40" points="524,85 529,80 540,80 540,90 529,90 524,85 "  />
</g>
<g id="a1_0041"  >
<polygon style="fill:white; stroke-width:1; stroke:black; " locus_tag="SACTE_RS01115" description="&lt;b&gt;SACTE_RS01115&lt;/b&gt;&lt;br&gt;50S ribosomal protein L33&lt;br&gt;Location: 261721 - 261557" class="clusterblast-orf" id="dummy-1_h1_6_41" points="544,90 546,85 544,80 544,90 "  />
</g>
<g id="a1_0042"  >
<polygon style="fill:white; stroke-width:1; stroke:black; " locus_tag="SACTE_RS01110" description="&lt;b&gt;SACTE_RS01110&lt;/b&gt;&lt;br&gt;tetratricopeptide repeat protein&lt;br&gt;Location: 261345 - 260845" class="clusterblast-orf" id="dummy-1_h1_6_42" points="548,85 553,80 554,80 554,90 553,90 548,85 "  />
</g>
<g id="a1_0043"  >
<polygon style="fill:white; stroke-width:1; stroke:black; " locus_tag="SACTE_RS01105" description="&lt;b&gt;SACTE_RS01105&lt;/b&gt;&lt;br&gt;VanZ family protein&lt;br&gt;Location: 260782 - 260129" class="clusterblast-orf" id="dummy-1_h1_6_43" points="554,90 557,90 562,85 557,80 554,80 554,90 "  />
</g>
<g id="a1_0044"  >
<polygon style="fill:white; stroke-width:1; stroke:black; " locus_tag="SACTE_RS01100" description="&lt;b&gt;SACTE_RS01100&lt;/b&gt;&lt;br&gt;cellulose 1,4-beta-cellobiosidase&lt;br&gt;Location: 260132 - 258396" class="clusterblast-orf" id="dummy-1_h1_6_44" points="562,85 567,80 581,80 581,90 567,90 562,85 "  />
</g>
<g id="a1_0045"  >
<polygon style="fill:white; stroke-width:1; stroke:black; " locus_tag="SACTE_RS01095" description="&lt;b&gt;SACTE_RS01095&lt;/b&gt;&lt;br&gt;cellulose 1,4-beta-cellobiosidase&lt;br&gt;Location: 257429 - 254478" class="clusterblast-orf" id="dummy-1_h1_6_45" points="591,90 619,90 624,85 619,80 591,80 591,90 "  />
</g>
<g id="a1_0046"  >
<polygon style="fill:white; stroke-width:1; stroke:black; " locus_tag="SACTE_RS01090" description="&lt;b&gt;SACTE_RS01090&lt;/b&gt;&lt;br&gt;DinB family protein&lt;br&gt;Location: 254370 - 253855" class="clusterblast-orf" id="dummy-1_h1_6_46" points="625,90 626,90 631,85 626,80 625,80 625,90 "  />
</g>
<g id="a1_0047"  >
<polygon style="fill:white; stroke-width:1; stroke:black; " locus_tag="SACTE_RS01085" description="&lt;b&gt;SACTE_RS01085&lt;/b&gt;&lt;br&gt;DUF4230 domain-containing protein&lt;br&gt;Location: 253775 - 253077" class="clusterblast-orf" id="dummy-1_h1_6_47" points="632,90 635,90 640,85 635,80 632,80 632,90 "  />
</g>
<g id="a1_0048"  >
<polygon style="fill:white; stroke-width:1; stroke:black; " locus_tag="SACTE_RS01080" description="&lt;b&gt;SACTE_RS01080&lt;/b&gt;&lt;br&gt;nuclear transport factor 2 family protein&lt;br&gt;Location: 252988 - 252566" class="clusterblast-orf" id="dummy-1_h1_6_48" points="641,90 645,85 641,80 641,90 "  />
</g>
<g id="a1_0049"  >
<polygon style="fill:white; stroke-width:1; stroke:black; " locus_tag="SACTE_RS01075" description="&lt;b&gt;SACTE_RS01075&lt;/b&gt;&lt;br&gt;TNT domain-containing protein&lt;br&gt;Location: 252495 - 251818" class="clusterblast-orf" id="dummy-1_h1_6_49" points="646,90 649,90 654,85 649,80 646,80 646,90 "  />
</g>
<g id="a1_0050"  >
<polygon style="fill:white; stroke-width:1; stroke:black; " locus_tag="SACTE_RS01070" description="&lt;b&gt;SACTE_RS01070&lt;/b&gt;&lt;br&gt;hypothetical protein&lt;br&gt;Location: 251811 - 251578" class="clusterblast-orf" id="dummy-1_h1_6_50" points="654,90 656,85 654,80 654,90 "  />
</g>
<g id="a1_0051"  >
<polygon style="fill:white; stroke-width:1; stroke:black; " locus_tag="SACTE_RS01065" description="&lt;b&gt;SACTE_RS01065&lt;/b&gt;&lt;br&gt;alpha/beta hydrolase&lt;br&gt;Location: 251468 - 250461" class="clusterblast-orf" id="dummy-1_h1_6_51" points="657,90 664,90 669,85 664,80 657,80 657,90 "  />
</g>
<g id="a1_0052"  >
<polygon style="fill:white; stroke-width:1; stroke:black; " locus_tag="SACTE_RS01060" description="&lt;b&gt;SACTE_RS01060&lt;/b&gt;&lt;br&gt;DUF664 domain-containing protein&lt;br&gt;Location: 250386 - 249877" class="clusterblast-orf" id="dummy-1_h1_6_52" points="669,90 670,90 675,85 670,80 669,80 669,90 "  />
</g>
<g id="a1_0053"  >
<polygon style="fill:white; stroke-width:1; stroke:black; " locus_tag="SACTE_RS01055" description="&lt;b&gt;SACTE_RS01055&lt;/b&gt;&lt;br&gt;AraC family transcriptional regulator&lt;br&gt;Location: 249916 - 249080" class="clusterblast-orf" id="dummy-1_h1_6_53" points="675,85 680,80 684,80 684,90 680,90 675,85 "  />
</g>
<g id="a1_0054"  >
<polygon style="fill:white; stroke-width:1; stroke:black; " locus_tag="SACTE_RS01050" description="&lt;b&gt;SACTE_RS01050&lt;/b&gt;&lt;br&gt;DUF2000 domain-containing protein&lt;br&gt;Location: 248989 - 248558" class="clusterblast-orf" id="dummy-1_h1_6_54" points="685,90 685,90 690,85 685,80 685,80 685,90 "  />
</g>
<g id="a1_0055"  >
<polygon style="fill:white; stroke-width:1; stroke:black; " locus_tag="SACTE_RS01045" description="&lt;b&gt;SACTE_RS01045&lt;/b&gt;&lt;br&gt;hypothetical protein&lt;br&gt;Location: 248435 - 248148" class="clusterblast-orf" id="dummy-1_h1_6_55" points="691,90 694,85 691,80 691,90 "  />
</g>
<g id="a1_0056"  >
<polygon style="fill:white; stroke-width:1; stroke:black; " locus_tag="SACTE_RS01040" description="&lt;b&gt;SACTE_RS01040&lt;/b&gt;&lt;br&gt;hypothetical protein&lt;br&gt;Location: 248131 - 247691" class="clusterblast-orf" id="dummy-1_h1_6_56" points="694,85 699,80 699,80 699,90 699,90 694,85 "  />
</g>
<g id="a1_0057"  >
<polygon style="fill:white; stroke-width:1; stroke:black; " locus_tag="SACTE_RS01035" description="&lt;b&gt;SACTE_RS01035&lt;/b&gt;&lt;br&gt;hypothetical protein&lt;br&gt;Location: 247582 - 247331" class="clusterblast-orf" id="dummy-1_h1_6_57" points="700,85 703,80 703,90 700,85 "  />
</g>
<g id="a1_0058"  >
<polygon style="fill:white; stroke-width:1; stroke:black; " locus_tag="SACTE_RS01030" description="&lt;b&gt;SACTE_RS01030&lt;/b&gt;&lt;br&gt;DUF5133 domain-containing protein&lt;br&gt;Location: 247059 - 246814" class="clusterblast-orf" id="dummy-1_h1_6_58" points="706,90 709,85 706,80 706,90 "  />
</g>
<g id="a1_0059"  >
<polygon style="fill:white; stroke-width:1; stroke:black; " locus_tag="SACTE_RS01025" description="&lt;b&gt;SACTE_RS01025&lt;/b&gt;&lt;br&gt;PepSY domain-containing protein&lt;br&gt;Location: 246600 - 245779" class="clusterblast-orf" id="dummy-1_h1_6_59" points="711,90 715,90 720,85 715,80 711,80 711,90 "  />
</g>
<g id="a1_0060"  >
<polygon style="fill:white; stroke-width:1; stroke:black; " locus_tag="SACTE_RS01020" description="&lt;b&gt;SACTE_RS01020&lt;/b&gt;&lt;br&gt;GNAT family N-acetyltransferase&lt;br&gt;Location: 245684 - 245184" class="clusterblast-orf" id="dummy-1_h1_6_60" points="721,85 726,80 727,80 727,90 726,90 721,85 "  />
</g>
<g id="a1_0061"  >
<polygon style="fill:white; stroke-width:1; stroke:black; " locus_tag="SACTE_RS01015" description="&lt;b&gt;SACTE_RS01015&lt;/b&gt;&lt;br&gt;hypothetical protein&lt;br&gt;Location: 244842 - 243730" class="clusterblast-orf" id="dummy-1_h1_6_61" points="731,90 738,90 743,85 738,80 731,80 731,90 "  />
</g>
<g id="a1_0062"  >
<polygon style="fill:white; stroke-width:1; stroke:black; " locus_tag="SACTE_RS01010" description="&lt;b&gt;SACTE_RS01010&lt;/b&gt;&lt;br&gt;VOC family protein&lt;br&gt;Location: 243037 - 242666" class="clusterblast-orf" id="dummy-1_h1_6_62" points="751,90 755,85 751,80 751,90 "  />
</g>
<g id="a1_0063"  >
<polygon style="fill:white; stroke-width:1; stroke:black; " locus_tag="SACTE_RS01005" description="&lt;b&gt;SACTE_RS01005&lt;/b&gt;&lt;br&gt;zinc-binding dehydrogenase&lt;br&gt;Location: 242608 - 241595" class="clusterblast-orf" id="dummy-1_h1_6_63" points="755,85 760,80 767,80 767,90 760,90 755,85 "  />
</g>
<g id="a1_0064"  >
<polygon style="fill:white; stroke-width:1; stroke:black; " locus_tag="SACTE_RS01000" description="&lt;b&gt;SACTE_RS01000&lt;/b&gt;&lt;br&gt;TetR/AcrR family transcriptional regulator&lt;br&gt;Location: 241427 - 240885" class="clusterblast-orf" id="dummy-1_h1_6_64" points="768,90 769,90 774,85 769,80 768,80 768,90 "  />
</g>
<g id="a1_0065"  >
<polygon style="fill:white; stroke-width:1; stroke:black; " locus_tag="SACTE_RS00995" description="&lt;b&gt;SACTE_RS00995&lt;/b&gt;&lt;br&gt;glyoxalase/bleomycin resistance/dioxygenase family protein&lt;br&gt;Location: 240830 - 240432" class="clusterblast-orf" id="dummy-1_h1_6_65" points="775,85 780,80 780,80 780,90 780,90 775,85 "  />
</g>
</svg>
