<svg version="1.1" height="230" viewBox="0 0 800 230" width="800" xmlns="http://www.w3.org/2000/svg" y="0" xmlns:xlink="http://www.w3.org/1999/xlink" preserveAspectRatio="none" x="0"  >
<g class="clusterblast-cluster" label="Query sequence"  >
<text class="clusterblast-acc" y="20" x="5"  >
Query sequence</text>
<line style="stroke-width:1; stroke:grey; " x2="778.0" x1="10" y1="35" y2="35"  />
<polygon style="fill:white; stroke-width:1; stroke:black; " locus_tag="cds20109_20682" description="&lt;b&gt;cds20109_20682&lt;/b&gt;&lt;br&gt;hypothetical protein&lt;br&gt;Location: 20109 - 20682" class="clusterblast-orf" id="dummy-1_q0_0_all" points="0,40 37,40 42,35 37,30 0,30 0,40 "  />
<polygon style="fill:white; stroke-width:1; stroke:black; " locus_tag="cds20867_22367" description="&lt;b&gt;cds20867_22367&lt;/b&gt;&lt;br&gt;hypothetical protein&lt;br&gt;Location: 20867 - 22367" class="clusterblast-orf" id="dummy-1_q1_0_all" points="55,40 158,40 163,35 158,30 55,30 55,40 "  />
<polygon style="fill:white; stroke-width:1; stroke:black; " locus_tag="cds22383_22644" description="&lt;b&gt;cds22383_22644&lt;/b&gt;&lt;br&gt;Glutamine--fructose-6-phosphate aminotransferase [isomerizing] (EC 2.6.1.16)&lt;br&gt;Location: 22383 - 22644" class="clusterblast-orf" id="dummy-1_q2_0_all" points="164,35 169,30 183,30 183,40 169,40 164,35 "  />
<polygon style="fill:white; stroke-width:1; stroke:black; " locus_tag="cds22782_23127" description="&lt;b&gt;cds22782_23127&lt;/b&gt;&lt;br&gt;Glutamine--fructose-6-phosphate aminotransferase [isomerizing] (EC 2.6.1.16)&lt;br&gt;Location: 22782 - 23127" class="clusterblast-orf" id="dummy-1_q3_0_all" points="193,35 198,30 218,30 218,40 198,40 193,35 "  />
<polygon style="fill:white; stroke-width:1; stroke:black; " locus_tag="cds23142_23373" description="&lt;b&gt;cds23142_23373&lt;/b&gt;&lt;br&gt;hypothetical protein&lt;br&gt;Location: 23142 - 23373" class="clusterblast-orf" id="dummy-1_q4_0_all" points="219,40 231,40 236,35 231,30 219,30 219,40 "  />
<polygon style="fill:white; stroke-width:1; stroke:black; " locus_tag="cds23440_23839" description="&lt;b&gt;cds23440_23839&lt;/b&gt;&lt;br&gt;Glutamine--fructose-6-phosphate aminotransferase [isomerizing] (EC 2.6.1.16)&lt;br&gt;Location: 23440 - 23839" class="clusterblast-orf" id="dummy-1_q5_0_all" points="241,35 246,30 270,30 270,40 246,40 241,35 "  />
<polygon style="fill:white; stroke-width:1; stroke:black; " locus_tag="cds23925_24204" description="&lt;b&gt;cds23925_24204&lt;/b&gt;&lt;br&gt;hypothetical protein&lt;br&gt;Location: 23925 - 24204" class="clusterblast-orf" id="dummy-1_q6_0_all" points="276,35 281,30 296,30 296,40 281,40 276,35 "  />
<polygon style="fill:#d81515; stroke-width:1; stroke:black; " locus_tag="cds24421_24775" description="&lt;b&gt;cds24421_24775&lt;/b&gt;&lt;br&gt;Desferrioxamine E biosynthesis protein DesD @ Siderophore synthetase superfamily, group C @ Siderophore synthetase component, ligase&lt;br&gt;Location: 24421 - 24775" class="clusterblast-orf" id="dummy-1_q7_0_all" points="312,35 317,30 337,30 337,40 317,40 312,35 "  />
<polygon style="fill:#d81515; stroke-width:1; stroke:black; " locus_tag="cds24995_25541" description="&lt;b&gt;cds24995_25541&lt;/b&gt;&lt;br&gt;Desferrioxamine E biosynthesis protein DesD @ Siderophore synthetase superfamily, group C @ Siderophore synthetase component, ligase&lt;br&gt;Location: 24995 - 25541" class="clusterblast-orf" id="dummy-1_q8_0_all" points="353,35 358,30 393,30 393,40 358,40 353,35 "  />
<polygon style="fill:#d81515; stroke-width:1; stroke:black; " locus_tag="cds25654_26203" description="&lt;b&gt;cds25654_26203&lt;/b&gt;&lt;br&gt;Desferrioxamine E biosynthesis protein DesD @ Siderophore synthetase superfamily, group C @ Siderophore synthetase component, ligase&lt;br&gt;Location: 25654 - 26203" class="clusterblast-orf" id="dummy-1_q9_0_all" points="401,35 406,30 440,30 440,40 406,40 401,35 "  />
<polygon style="fill:#15d815; stroke-width:1; stroke:black; " locus_tag="cds26199_26763" description="&lt;b&gt;cds26199_26763&lt;/b&gt;&lt;br&gt;Desferrioxamine E biosynthesis protein DesC @ Siderophore synthetase small component, acetyltransferase&lt;br&gt;Location: 26199 - 26763" class="clusterblast-orf" id="dummy-1_q10_0_all" points="440,35 445,30 481,30 481,40 445,40 440,35 "  />
<polygon style="fill:#1515d8; stroke-width:1; stroke:black; " locus_tag="cds26759_26996" description="&lt;b&gt;cds26759_26996&lt;/b&gt;&lt;br&gt;Desferrioxamine E biosynthesis protein DesB @ Siderophore biosynthesis protein, monooxygenase&lt;br&gt;Location: 26759 - 26996" class="clusterblast-orf" id="dummy-1_q11_0_all" points="480,35 485,30 498,30 498,40 485,40 480,35 "  />
<polygon style="fill:#1515d8; stroke-width:1; stroke:black; " locus_tag="cds27139_27901" description="&lt;b&gt;cds27139_27901&lt;/b&gt;&lt;br&gt;Desferrioxamine E biosynthesis protein DesB @ Siderophore biosynthesis protein, monooxygenase&lt;br&gt;Location: 27139 - 27901" class="clusterblast-orf" id="dummy-1_q12_0_all" points="508,35 513,30 563,30 563,40 513,40 508,35 "  />
<polygon style="fill:#d815d8; stroke-width:1; stroke:black; " locus_tag="cds28018_29461" description="&lt;b&gt;cds28018_29461&lt;/b&gt;&lt;br&gt;Desferrioxamine E biosynthesis protein DesA @ Siderophore biosynthesis L-2,4-diaminobutyrate decarboxylase&lt;br&gt;Location: 28018 - 29461" class="clusterblast-orf" id="dummy-1_q13_0_all" points="571,35 576,30 676,30 676,40 576,40 571,35 "  />
<polygon style="fill:#d8d815; stroke-width:1; stroke:black; " locus_tag="cds29649_29853" description="&lt;b&gt;cds29649_29853&lt;/b&gt;&lt;br&gt;Hypothetical protein associated with desferrioxamine E biosynthesis&lt;br&gt;Location: 29649 - 29853" class="clusterblast-orf" id="dummy-1_q14_0_all" points="689,35 694,30 704,30 704,40 694,40 689,35 "  />
<polygon style="fill:#15d8d8; stroke-width:1; stroke:black; " locus_tag="cds29886_30909" description="&lt;b&gt;cds29886_30909&lt;/b&gt;&lt;br&gt;Hypothetical protein associated with desferrioxamine E biosynthesis&lt;br&gt;Location: 29886 - 30909" class="clusterblast-orf" id="dummy-1_q15_0_all" points="706,35 711,30 780,30 780,40 711,40 706,35 "  />
</g>
<g class="clusterblast-cluster" description="BGC0001531_c1: bisucaberin B (50% of genes show similarity), Other" label="BGC0001531"  >
<text class="clusterblast-acc" y="70" x="5"  >
<a xlink:href="https://mibig.secondarymetabolites.org/go/BGC0001531/1" target="_blank">BGC0001531</a>:                                                                    bisucaberin B (50% of genes show similarity), Other</text>
<line style="stroke-width:1; stroke:grey; " x2="778.0" x1="10" y1="85" y2="85"  />
</g>
<g id="a1_000"  >
<polygon style="fill:#d81515; stroke-width:1; stroke:black; " locus_tag="BAX07670.1" description="&lt;b&gt;BAX07670.1&lt;/b&gt;&lt;br&gt;IucA/IucC&lt;br&gt;Location: 9953 - 8133&lt;br&gt;&lt;br&gt;&lt;b&gt;BlastP hit with cds24421_24775&lt;/b&gt;&lt;br&gt;Percentage identity: 54&lt;br&gt;Percentage coverage: 98&lt;br&gt;BLAST bit score: 136&lt;br&gt;E-value: 2.1e-32&lt;br&gt;&lt;br&gt;&lt;b&gt;BlastP hit with cds24995_25541&lt;/b&gt;&lt;br&gt;Percentage identity: 49&lt;br&gt;Percentage coverage: 82&lt;br&gt;BLAST bit score: 156&lt;br&gt;E-value: 3.1e-38&lt;br&gt;&lt;br&gt;&lt;b&gt;BlastP hit with cds25654_26203&lt;/b&gt;&lt;br&gt;Percentage identity: 47&lt;br&gt;Percentage coverage: 96&lt;br&gt;BLAST bit score: 159&lt;br&gt;E-value: 6.2e-39" class="clusterblast-orf" id="dummy-1_h1_5_0" points="70,85 75,80 202,80 202,90 75,90 70,85 "  />
</g>
<g id="a1_001"  >
<polygon style="fill:white; stroke-width:1; stroke:black; " locus_tag="BAX07669.1" description="&lt;b&gt;BAX07669.1&lt;/b&gt;&lt;br&gt;acetyltransferase&lt;br&gt;Location: 8143 - 7553" class="clusterblast-orf" id="dummy-1_h1_5_1" points="201,85 206,80 244,80 244,90 206,90 201,85 "  />
</g>
<g id="a1_002"  >
<polygon style="fill:#d81515; stroke-width:1; stroke:black; " locus_tag="BAX07668.1" description="&lt;b&gt;BAX07668.1&lt;/b&gt;&lt;br&gt;IucA/IucC&lt;br&gt;Location: 7550 - 5133&lt;br&gt;&lt;br&gt;&lt;b&gt;BlastP hit with cds24421_24775&lt;/b&gt;&lt;br&gt;Percentage identity: 57&lt;br&gt;Percentage coverage: 99&lt;br&gt;BLAST bit score: 135&lt;br&gt;E-value: 6.2e-32&lt;br&gt;&lt;br&gt;&lt;b&gt;BlastP hit with cds24995_25541&lt;/b&gt;&lt;br&gt;Percentage identity: 50&lt;br&gt;Percentage coverage: 82&lt;br&gt;BLAST bit score: 157&lt;br&gt;E-value: 1.8e-38&lt;br&gt;&lt;br&gt;&lt;b&gt;BlastP hit with cds25654_26203&lt;/b&gt;&lt;br&gt;Percentage identity: 46&lt;br&gt;Percentage coverage: 97&lt;br&gt;BLAST bit score: 155&lt;br&gt;E-value: 1.2e-37" class="clusterblast-orf" id="dummy-1_h1_5_2" points="244,85 249,80 418,80 418,90 249,90 244,85 "  />
</g>
<g id="a1_003"  >
<polygon style="fill:white; stroke-width:1; stroke:black; " locus_tag="BAX07667.1" description="&lt;b&gt;BAX07667.1&lt;/b&gt;&lt;br&gt;MFS transporter&lt;br&gt;Location: 5129 - 3936" class="clusterblast-orf" id="dummy-1_h1_5_3" points="419,85 424,80 505,80 505,90 424,90 419,85 "  />
</g>
<g id="a1_004"  >
<polygon style="fill:#1515d8; stroke-width:1; stroke:black; " locus_tag="BAX07666.1" description="&lt;b&gt;BAX07666.1&lt;/b&gt;&lt;br&gt;lysine-6-monooxygenase&lt;br&gt;Location: 3949 - 2627&lt;br&gt;&lt;br&gt;&lt;b&gt;BlastP hit with cds26759_26996&lt;/b&gt;&lt;br&gt;Percentage identity: 51&lt;br&gt;Percentage coverage: 97&lt;br&gt;BLAST bit score: 95&lt;br&gt;E-value: 4.7e-20&lt;br&gt;&lt;br&gt;&lt;b&gt;BlastP hit with cds27139_27901&lt;/b&gt;&lt;br&gt;Percentage identity: 59&lt;br&gt;Percentage coverage: 83&lt;br&gt;BLAST bit score: 269&lt;br&gt;E-value: 5.9e-72" class="clusterblast-orf" id="dummy-1_h1_5_4" points="504,85 509,80 599,80 599,90 509,90 504,85 "  />
</g>
<g id="a1_005"  >
<polygon style="fill:white; stroke-width:1; stroke:black; " locus_tag="BAX07665.1" description="&lt;b&gt;BAX07665.1&lt;/b&gt;&lt;br&gt;pyridoxal-dependent decarboxylase&lt;br&gt;Location: 2621 - 1113" class="clusterblast-orf" id="dummy-1_h1_5_5" points="600,85 605,80 709,80 709,90 605,90 600,85 "  />
</g>
</svg>
