<svg xmlns:xlink="http://www.w3.org/1999/xlink" version="1.1" y="0" height="230" xmlns="http://www.w3.org/2000/svg" preserveAspectRatio="none" x="0" width="800" viewBox="0 0 800 230"  >
<g label="Query sequence" class="clusterblast-cluster"  >
<text y="20" class="clusterblast-acc" x="5"  >
Query sequence</text>
<line style="stroke-width:1; stroke:grey; " y1="35" x1="10" y2="35" x2="778.0"  />
<polygon style="fill:#d81515; stroke-width:1; stroke:black; " class="clusterblast-orf" id="dummy-9_q0_0_all" locus_tag="cds1850767_1851091" points="369,40 370,35 369,30 369,40 " description="&lt;b&gt;cds1850767_1851091&lt;/b&gt;&lt;br&gt;hypothetical protein&lt;br&gt;Location: 1850767 - 1851091"  />
<polygon style="fill:#d81515; stroke-width:1; stroke:black; " class="clusterblast-orf" id="dummy-9_q1_0_all" locus_tag="cds1851359_1852118" points="371,40 375,35 371,30 371,40 " description="&lt;b&gt;cds1851359_1852118&lt;/b&gt;&lt;br&gt;Transcriptional regulator, LysR family&lt;br&gt;Location: 1851359 - 1852118"  />
<polygon style="fill:white; stroke-width:1; stroke:black; " class="clusterblast-orf" id="dummy-9_q2_0_all" locus_tag="cds1852068_1853415" points="374,35 379,30 381,30 381,40 379,40 374,35 " description="&lt;b&gt;cds1852068_1853415&lt;/b&gt;&lt;br&gt;hypothetical protein&lt;br&gt;Location: 1852068 - 1853415"  />
<polygon style="fill:#77d815; stroke-width:1; stroke:black; " class="clusterblast-orf" id="dummy-9_q3_0_all" locus_tag="cds1853411_1853999" points="381,35 383,30 383,40 381,35 " description="&lt;b&gt;cds1853411_1853999&lt;/b&gt;&lt;br&gt;hypothetical protein&lt;br&gt;Location: 1853411 - 1853999"  />
<polygon style="fill:#15d8d8; stroke-width:1; stroke:black; " class="clusterblast-orf" id="dummy-9_q4_0_all" locus_tag="cds1853995_1854736" points="383,35 387,30 387,40 383,35 " description="&lt;b&gt;cds1853995_1854736&lt;/b&gt;&lt;br&gt;hypothetical protein&lt;br&gt;Location: 1853995 - 1854736"  />
<polygon style="fill:#7715d8; stroke-width:1; stroke:black; " class="clusterblast-orf" id="dummy-9_q5_0_all" locus_tag="cds1854876_1855503" points="387,35 390,30 390,40 387,35 " description="&lt;b&gt;cds1854876_1855503&lt;/b&gt;&lt;br&gt;hypothetical protein&lt;br&gt;Location: 1854876 - 1855503"  />
<polygon style="fill:white; stroke-width:1; stroke:black; " class="clusterblast-orf" id="dummy-9_q6_0_all" locus_tag="cds1855509_1855638" points="390,40 391,35 390,30 390,40 " description="&lt;b&gt;cds1855509_1855638&lt;/b&gt;&lt;br&gt;hypothetical protein&lt;br&gt;Location: 1855509 - 1855638"  />
<polygon style="fill:#d8a715; stroke-width:1; stroke:black; " class="clusterblast-orf" id="dummy-9_q7_0_all" locus_tag="cds1856020_1856311" points="392,35 394,30 394,40 392,35 " description="&lt;b&gt;cds1856020_1856311&lt;/b&gt;&lt;br&gt;Phenylacetic acid degradation protein PaaY&lt;br&gt;Location: 1856020 - 1856311"  />
<polygon style="fill:#15d846; stroke-width:1; stroke:black; " class="clusterblast-orf" id="dummy-9_q8_0_all" locus_tag="cds1856325_1856748" points="394,35 396,30 396,40 394,35 " description="&lt;b&gt;cds1856325_1856748&lt;/b&gt;&lt;br&gt;Putative n-hydroxybenzoate hydroxylase&lt;br&gt;Location: 1856325 - 1856748"  />
<polygon style="fill:white; stroke-width:1; stroke:black; " class="clusterblast-orf" id="dummy-9_q9_0_all" locus_tag="cds1857005_1857755" points="397,40 400,35 397,30 397,40 " description="&lt;b&gt;cds1857005_1857755&lt;/b&gt;&lt;br&gt;hypothetical protein&lt;br&gt;Location: 1857005 - 1857755"  />
<polygon style="fill:#1546d8; stroke-width:1; stroke:black; " class="clusterblast-orf" id="dummy-9_q10_0_all" locus_tag="cds1857926_1858295" points="401,35 403,30 403,40 401,35 " description="&lt;b&gt;cds1857926_1858295&lt;/b&gt;&lt;br&gt;hypothetical protein&lt;br&gt;Location: 1857926 - 1858295"  />
<polygon style="fill:#d815a7; stroke-width:1; stroke:black; " class="clusterblast-orf" id="dummy-9_q11_0_all" locus_tag="cds1858448_1859546" points="403,35 408,30 408,30 408,40 408,40 403,35 " description="&lt;b&gt;cds1858448_1859546&lt;/b&gt;&lt;br&gt;4-hydroxyphenylacetate 3-monooxygenase (EC 1.14.14.9)&lt;br&gt;Location: 1858448 - 1859546"  />
<polygon style="fill:#d815a7; stroke-width:1; stroke:black; " class="clusterblast-orf" id="dummy-9_q12_0_all" locus_tag="cds1859542_1860037" points="408,35 411,30 411,40 408,35 " description="&lt;b&gt;cds1859542_1860037&lt;/b&gt;&lt;br&gt;4-hydroxyphenylacetate 3-monooxygenase (EC 1.14.14.9)&lt;br&gt;Location: 1859542 - 1860037"  />
</g>
<g label="NC_016582" class="clusterblast-cluster" description="NC_016582 (1341370-1513589): Streptomyces bingchenggensis BCW-1, complete seq... (1% of genes show similarity), NRPS,T1PKS,furan,hglE-KS"  >
<text y="70" class="clusterblast-acc" x="5"  >
<a xlink:href="https://antismash-db.secondarymetabolites.org/area.html?record=NC_016582&amp;start=1341370&amp;end=1513589" target="_blank">NC_016582 (1341370-1513589)</a>: Streptomyces bingchenggensis BCW-1, complete seq... (1% of genes show similarity), NRPS,T1PKS,furan,hglE-KS</text>
<line style="stroke-width:1; stroke:grey; " y1="85" x1="10" y2="85" x2="778.0"  />
</g>
<g id="a9_000"  >
<polygon style="fill:white; stroke-width:1; stroke:black; " class="clusterblast-orf" id="dummy-9_h9_6_0" locus_tag="SBI_RS05055" points="0,90 2,85 0,80 0,90 " description="&lt;b&gt;SBI_RS05055&lt;/b&gt;&lt;br&gt;redoxin domain-containing protein&lt;br&gt;Location: 1513589 - 1513014"  />
</g>
<g id="a9_001"  >
<polygon style="fill:white; stroke-width:1; stroke:black; " class="clusterblast-orf" id="dummy-9_h9_6_1" locus_tag="SBI_RS05050" points="3,90 6,90 11,85 6,80 3,80 3,90 " description="&lt;b&gt;SBI_RS05050&lt;/b&gt;&lt;br&gt;ABC transporter ATP-binding protein&lt;br&gt;Location: 1512921 - 1511113"  />
</g>
<g id="a9_002"  >
<polygon style="fill:white; stroke-width:1; stroke:black; " class="clusterblast-orf" id="dummy-9_h9_6_2" locus_tag="SBI_RS05045" points="11,90 13,85 11,80 11,90 " description="&lt;b&gt;SBI_RS05045&lt;/b&gt;&lt;br&gt;putative phage repressor&lt;br&gt;Location: 1511116 - 1510655"  />
</g>
<g id="a9_003"  >
<polygon style="fill:white; stroke-width:1; stroke:black; " class="clusterblast-orf" id="dummy-9_h9_6_3" locus_tag="SBI_RS05040" points="13,85 18,80 26,80 26,90 18,90 13,85 " description="&lt;b&gt;SBI_RS05040&lt;/b&gt;&lt;br&gt;AfsR/SARP family transcriptional regulator&lt;br&gt;Location: 1510633 - 1507781"  />
</g>
<g id="a9_004"  >
<polygon style="fill:white; stroke-width:1; stroke:black; " class="clusterblast-orf" id="dummy-9_h9_6_4" locus_tag="SBI_RS05035" points="26,90 29,85 26,80 26,90 " description="&lt;b&gt;SBI_RS05035&lt;/b&gt;&lt;br&gt;helix-turn-helix transcriptional regulator&lt;br&gt;Location: 1507631 - 1507176"  />
</g>
<g id="a9_005"  >
<polygon style="fill:white; stroke-width:1; stroke:black; " class="clusterblast-orf" id="dummy-9_h9_6_5" locus_tag="SBI_RS05030" points="29,85 30,80 30,90 29,85 " description="&lt;b&gt;SBI_RS05030&lt;/b&gt;&lt;br&gt;hypothetical protein&lt;br&gt;Location: 1507149 - 1506802"  />
</g>
<g id="a9_006"  >
<polygon style="fill:white; stroke-width:1; stroke:black; " class="clusterblast-orf" id="dummy-9_h9_6_6" locus_tag="SBI_RS05025" points="31,85 33,80 33,90 31,85 " description="&lt;b&gt;SBI_RS05025&lt;/b&gt;&lt;br&gt;NAD(P)H-binding protein&lt;br&gt;Location: 1506726 - 1506085"  />
</g>
<g id="a9_007"  >
<polygon style="fill:white; stroke-width:1; stroke:black; " class="clusterblast-orf" id="dummy-9_h9_6_7" locus_tag="SBI_RS05020" points="34,85 38,80 38,90 34,85 " description="&lt;b&gt;SBI_RS05020&lt;/b&gt;&lt;br&gt;EamA family transporter&lt;br&gt;Location: 1506082 - 1505141"  />
</g>
<g id="a9_008"  >
<polygon style="fill:white; stroke-width:1; stroke:black; " class="clusterblast-orf" id="dummy-9_h9_6_8" locus_tag="SBI_RS05015" points="38,90 40,85 38,80 38,90 " description="&lt;b&gt;SBI_RS05015&lt;/b&gt;&lt;br&gt;MarR family transcriptional regulator&lt;br&gt;Location: 1505026 - 1504598"  />
</g>
<g id="a9_009"  >
<polygon style="fill:white; stroke-width:1; stroke:black; " class="clusterblast-orf" id="dummy-9_h9_6_9" locus_tag="SBI_RS05010" points="41,85 45,80 45,90 41,85 " description="&lt;b&gt;SBI_RS05010&lt;/b&gt;&lt;br&gt;hypothetical protein&lt;br&gt;Location: 1504516 - 1503476"  />
</g>
<g id="a9_0010"  >
<polygon style="fill:white; stroke-width:1; stroke:black; " class="clusterblast-orf" id="dummy-9_h9_6_10" locus_tag="SBI_RS05005" points="45,85 50,80 51,80 51,90 50,90 45,85 " description="&lt;b&gt;SBI_RS05005&lt;/b&gt;&lt;br&gt;choline kinase&lt;br&gt;Location: 1503479 - 1502328"  />
</g>
<g id="a9_0011"  >
<polygon style="fill:white; stroke-width:1; stroke:black; " class="clusterblast-orf" id="dummy-9_h9_6_11" locus_tag="SBI_RS05000" points="53,85 55,80 55,90 53,85 " description="&lt;b&gt;SBI_RS05000&lt;/b&gt;&lt;br&gt;helix-turn-helix transcriptional regulator&lt;br&gt;Location: 1501873 - 1501322"  />
</g>
<g id="a9_0012"  >
<polygon style="fill:white; stroke-width:1; stroke:black; " class="clusterblast-orf" id="dummy-9_h9_6_12" locus_tag="SBI_RS50595" points="65,90 68,85 65,80 65,90 " description="&lt;b&gt;SBI_RS50595&lt;/b&gt;&lt;br&gt;hypothetical protein&lt;br&gt;Location: 1499142 - 1498567"  />
</g>
<g id="a9_0013"  >
<polygon style="fill:white; stroke-width:1; stroke:black; " class="clusterblast-orf" id="dummy-9_h9_6_13" locus_tag="SBI_RS49300" points="67,85 72,80 73,80 73,90 72,90 67,85 " description="&lt;b&gt;SBI_RS49300&lt;/b&gt;&lt;br&gt;hypothetical protein&lt;br&gt;Location: 1498619 - 1497291"  />
</g>
<g id="a9_0014"  >
<polygon style="fill:white; stroke-width:1; stroke:black; " class="clusterblast-orf" id="dummy-9_h9_6_14" locus_tag="SBI_RS04985" points="73,85 76,80 76,90 73,85 " description="&lt;b&gt;SBI_RS04985&lt;/b&gt;&lt;br&gt;hypothetical protein&lt;br&gt;Location: 1497298 - 1496774"  />
</g>
<g id="a9_0015"  >
<polygon style="fill:white; stroke-width:1; stroke:black; " class="clusterblast-orf" id="dummy-9_h9_6_15" locus_tag="SBI_RS04980" points="77,90 79,85 77,80 77,90 " description="&lt;b&gt;SBI_RS04980&lt;/b&gt;&lt;br&gt;hypothetical protein&lt;br&gt;Location: 1496516 - 1495992"  />
</g>
<g id="a9_0016"  >
<polygon style="fill:white; stroke-width:1; stroke:black; " class="clusterblast-orf" id="dummy-9_h9_6_16" locus_tag="SBI_RS04975" points="82,90 83,90 88,85 83,80 82,80 82,90 " description="&lt;b&gt;SBI_RS04975&lt;/b&gt;&lt;br&gt;ketoacyl synthase&lt;br&gt;Location: 1495479 - 1494139"  />
</g>
<g id="a9_0017"  >
<polygon style="fill:white; stroke-width:1; stroke:black; " class="clusterblast-orf" id="dummy-9_h9_6_17" locus_tag="SBI_RS04970" points="88,90 113,90 118,85 113,80 88,80 88,90 " description="&lt;b&gt;SBI_RS04970&lt;/b&gt;&lt;br&gt;type I polyketide synthase&lt;br&gt;Location: 1494066 - 1487422"  />
</g>
<g id="a9_0018"  >
<polygon style="fill:white; stroke-width:1; stroke:black; " class="clusterblast-orf" id="dummy-9_h9_6_18" locus_tag="SBI_RS04965" points="118,90 120,90 125,85 120,80 118,80 118,90 " description="&lt;b&gt;SBI_RS04965&lt;/b&gt;&lt;br&gt;hypothetical protein&lt;br&gt;Location: 1487355 - 1485922"  />
</g>
<g id="a9_0019"  >
<polygon style="fill:white; stroke-width:1; stroke:black; " class="clusterblast-orf" id="dummy-9_h9_6_19" locus_tag="SBI_RS04960" points="125,90 126,90 131,85 126,80 125,80 125,90 " description="&lt;b&gt;SBI_RS04960&lt;/b&gt;&lt;br&gt;DUF2029 domain-containing protein&lt;br&gt;Location: 1485925 - 1484654"  />
</g>
<g id="a9_0020"  >
<polygon style="fill:white; stroke-width:1; stroke:black; " class="clusterblast-orf" id="dummy-9_h9_6_20" locus_tag="SBI_RS04955" points="131,90 135,85 131,80 131,90 " description="&lt;b&gt;SBI_RS04955&lt;/b&gt;&lt;br&gt;flippase-like domain-containing protein&lt;br&gt;Location: 1484550 - 1483633"  />
</g>
<g id="a9_0021"  >
<polygon style="fill:white; stroke-width:1; stroke:black; " class="clusterblast-orf" id="dummy-9_h9_6_21" locus_tag="SBI_RS04950" points="137,90 144,90 149,85 144,80 137,80 137,90 " description="&lt;b&gt;SBI_RS04950&lt;/b&gt;&lt;br&gt;YfhO family protein&lt;br&gt;Location: 1483264 - 1480577"  />
</g>
<g id="a9_0022"  >
<polygon style="fill:white; stroke-width:1; stroke:black; " class="clusterblast-orf" id="dummy-9_h9_6_22" locus_tag="SBI_RS04945" points="149,90 149,90 154,85 149,80 149,80 149,90 " description="&lt;b&gt;SBI_RS04945&lt;/b&gt;&lt;br&gt;glycosyltransferase family 2 protein&lt;br&gt;Location: 1480548 - 1479571"  />
</g>
<g id="a9_0023"  >
<polygon style="fill:white; stroke-width:1; stroke:black; " class="clusterblast-orf" id="dummy-9_h9_6_23" locus_tag="SBI_RS53675" points="154,90 155,85 154,80 154,90 " description="&lt;b&gt;SBI_RS53675&lt;/b&gt;&lt;br&gt;GtrA family protein&lt;br&gt;Location: 1479541 - 1479182"  />
</g>
<g id="a9_0024"  >
<polygon style="fill:white; stroke-width:1; stroke:black; " class="clusterblast-orf" id="dummy-9_h9_6_24" locus_tag="SBI_RS04935" points="157,85 160,80 160,90 157,85 " description="&lt;b&gt;SBI_RS04935&lt;/b&gt;&lt;br&gt;response regulator transcription factor&lt;br&gt;Location: 1478776 - 1478126"  />
</g>
<g id="a9_0025"  >
<polygon style="fill:white; stroke-width:1; stroke:black; " class="clusterblast-orf" id="dummy-9_h9_6_25" locus_tag="SBI_RS04930" points="160,85 165,80 166,80 166,90 165,90 160,85 " description="&lt;b&gt;SBI_RS04930&lt;/b&gt;&lt;br&gt;two-component sensor histidine kinase&lt;br&gt;Location: 1478124 - 1476784"  />
</g>
<g id="a9_0026"  >
<polygon style="fill:white; stroke-width:1; stroke:black; " class="clusterblast-orf" id="dummy-9_h9_6_26" locus_tag="SBI_RS04925" points="167,90 171,85 167,80 167,90 " description="&lt;b&gt;SBI_RS04925&lt;/b&gt;&lt;br&gt;ATP-binding cassette domain-containing protein&lt;br&gt;Location: 1476681 - 1475770"  />
</g>
<g id="a9_0027"  >
<polygon style="fill:white; stroke-width:1; stroke:black; " class="clusterblast-orf" id="dummy-9_h9_6_27" locus_tag="SBI_RS04920" points="171,90 174,85 171,80 171,90 " description="&lt;b&gt;SBI_RS04920&lt;/b&gt;&lt;br&gt;ABC transporter permease subunit&lt;br&gt;Location: 1475773 - 1474982"  />
</g>
<g id="a9_0028"  >
<polygon style="fill:white; stroke-width:1; stroke:black; " class="clusterblast-orf" id="dummy-9_h9_6_28" locus_tag="SBI_RS04915" points="174,90 177,85 174,80 174,90 " description="&lt;b&gt;SBI_RS04915&lt;/b&gt;&lt;br&gt;GNAT family N-acetyltransferase&lt;br&gt;Location: 1474956 - 1474354"  />
</g>
<g id="a9_0029"  >
<polygon style="fill:white; stroke-width:1; stroke:black; " class="clusterblast-orf" id="dummy-9_h9_6_29" locus_tag="SBI_RS55875" points="177,90 179,90 184,85 179,80 177,80 177,90 " description="&lt;b&gt;SBI_RS55875&lt;/b&gt;&lt;br&gt;ABC transporter substrate-binding protein&lt;br&gt;Location: 1474319 - 1472823"  />
</g>
<g id="a9_0030"  >
<polygon style="fill:white; stroke-width:1; stroke:black; " class="clusterblast-orf" id="dummy-9_h9_6_30" locus_tag="SBI_RS55870" points="184,90 187,90 192,85 187,80 184,80 184,90 " description="&lt;b&gt;SBI_RS55870&lt;/b&gt;&lt;br&gt;ABC transporter permease subunit&lt;br&gt;Location: 1472817 - 1471021"  />
</g>
<g id="a9_0031"  >
<polygon style="fill:white; stroke-width:1; stroke:black; " class="clusterblast-orf" id="dummy-9_h9_6_31" locus_tag="SBI_RS04900" points="194,90 197,85 194,80 194,90 " description="&lt;b&gt;SBI_RS04900&lt;/b&gt;&lt;br&gt;NADPH-dependent FMN reductase&lt;br&gt;Location: 1470546 - 1469992"  />
</g>
<g id="a9_0032"  >
<polygon style="fill:white; stroke-width:1; stroke:black; " class="clusterblast-orf" id="dummy-9_h9_6_32" locus_tag="SBI_RS04895" points="197,90 197,90 202,85 197,80 197,80 197,90 " description="&lt;b&gt;SBI_RS04895&lt;/b&gt;&lt;br&gt;LLM class flavin-dependent oxidoreductase&lt;br&gt;Location: 1469922 - 1468798"  />
</g>
<g id="a9_0033"  >
<polygon style="fill:white; stroke-width:1; stroke:black; " class="clusterblast-orf" id="dummy-9_h9_6_33" locus_tag="SBI_RS04890" points="204,90 206,85 204,80 204,90 " description="&lt;b&gt;SBI_RS04890&lt;/b&gt;&lt;br&gt;nuclear transport factor 2 family protein&lt;br&gt;Location: 1468414 - 1467941"  />
</g>
<g id="a9_0034"  >
<polygon style="fill:white; stroke-width:1; stroke:black; " class="clusterblast-orf" id="dummy-9_h9_6_34" locus_tag="SBI_RS04885" points="207,90 209,85 207,80 207,90 " description="&lt;b&gt;SBI_RS04885&lt;/b&gt;&lt;br&gt;VOC family protein&lt;br&gt;Location: 1467791 - 1467399"  />
</g>
<g id="a9_0035"  >
<polygon style="fill:white; stroke-width:1; stroke:black; " class="clusterblast-orf" id="dummy-9_h9_6_35" locus_tag="SBI_RS04880" points="209,85 212,80 212,90 209,85 " description="&lt;b&gt;SBI_RS04880&lt;/b&gt;&lt;br&gt;hypothetical protein&lt;br&gt;Location: 1467334 - 1466585"  />
</g>
<g id="a9_0036"  >
<polygon style="fill:white; stroke-width:1; stroke:black; " class="clusterblast-orf" id="dummy-9_h9_6_36" locus_tag="SBI_RS04875" points="212,85 217,80 217,80 217,90 217,90 212,85 " description="&lt;b&gt;SBI_RS04875&lt;/b&gt;&lt;br&gt;hypothetical protein&lt;br&gt;Location: 1466588 - 1465476"  />
</g>
<g id="a9_0037"  >
<polygon style="fill:white; stroke-width:1; stroke:black; " class="clusterblast-orf" id="dummy-9_h9_6_37" locus_tag="SBI_RS04870" points="218,85 222,80 222,90 218,85 " description="&lt;b&gt;SBI_RS04870&lt;/b&gt;&lt;br&gt;SAM-dependent methyltransferase&lt;br&gt;Location: 1465350 - 1464490"  />
</g>
<g id="a9_0038"  >
<polygon style="fill:white; stroke-width:1; stroke:black; " class="clusterblast-orf" id="dummy-9_h9_6_38" locus_tag="SBI_RS04865" points="222,85 227,80 230,80 230,90 227,90 222,85 " description="&lt;b&gt;SBI_RS04865&lt;/b&gt;&lt;br&gt;GH3 auxin-responsive promoter family protein&lt;br&gt;Location: 1464493 - 1462706"  />
</g>
<g id="a9_0039"  >
<polygon style="fill:white; stroke-width:1; stroke:black; " class="clusterblast-orf" id="dummy-9_h9_6_39" locus_tag="SBI_RS04860" points="230,85 233,80 233,90 230,85 " description="&lt;b&gt;SBI_RS04860&lt;/b&gt;&lt;br&gt;hypothetical protein&lt;br&gt;Location: 1462719 - 1462075"  />
</g>
<g id="a9_0040"  >
<polygon style="fill:white; stroke-width:1; stroke:black; " class="clusterblast-orf" id="dummy-9_h9_6_40" locus_tag="SBI_RS04855" points="235,90 239,90 244,85 239,80 235,80 235,90 " description="&lt;b&gt;SBI_RS04855&lt;/b&gt;&lt;br&gt;transcriptional regulator&lt;br&gt;Location: 1461591 - 1459495"  />
</g>
<g id="a9_0041"  >
<polygon style="fill:white; stroke-width:1; stroke:black; " class="clusterblast-orf" id="dummy-9_h9_6_41" locus_tag="SBI_RS04850" points="244,85 248,80 248,90 244,85 " description="&lt;b&gt;SBI_RS04850&lt;/b&gt;&lt;br&gt;methyltransferase domain-containing protein&lt;br&gt;Location: 1459531 - 1458674"  />
</g>
<g id="a9_0042"  >
<polygon style="fill:white; stroke-width:1; stroke:black; " class="clusterblast-orf" id="dummy-9_h9_6_42" locus_tag="SBI_RS04845" points="248,90 250,90 255,85 250,80 248,80 248,90 " description="&lt;b&gt;SBI_RS04845&lt;/b&gt;&lt;br&gt;PLP-dependent aminotransferase family protein&lt;br&gt;Location: 1458675 - 1457110"  />
</g>
<g id="a9_0043"  >
<polygon style="fill:white; stroke-width:1; stroke:black; " class="clusterblast-orf" id="dummy-9_h9_6_43" locus_tag="SBI_RS04840" points="255,90 255,90 260,85 255,80 255,80 255,90 " description="&lt;b&gt;SBI_RS04840&lt;/b&gt;&lt;br&gt;CapA family protein&lt;br&gt;Location: 1457100 - 1455988"  />
</g>
<g id="a9_0044"  >
<polygon style="fill:white; stroke-width:1; stroke:black; " class="clusterblast-orf" id="dummy-9_h9_6_44" locus_tag="SBI_RS04835" points="261,90 264,85 261,80 261,90 " description="&lt;b&gt;SBI_RS04835&lt;/b&gt;&lt;br&gt;DUF2127 domain-containing protein&lt;br&gt;Location: 1455888 - 1455115"  />
</g>
<g id="a9_0045"  >
<polygon style="fill:white; stroke-width:1; stroke:black; " class="clusterblast-orf" id="dummy-9_h9_6_45" locus_tag="SBI_RS04830" points="265,90 269,85 265,80 265,90 " description="&lt;b&gt;SBI_RS04830&lt;/b&gt;&lt;br&gt;glucose-6-phosphate dehydrogenase assembly protein OpcA&lt;br&gt;Location: 1455025 - 1454087"  />
</g>
<g id="a9_0046"  >
<polygon style="fill:white; stroke-width:1; stroke:black; " class="clusterblast-orf" id="dummy-9_h9_6_46" locus_tag="SBI_RS04825" points="270,90 270,90 275,85 270,80 270,80 270,90 " description="&lt;b&gt;SBI_RS04825&lt;/b&gt;&lt;br&gt;LLM class flavin-dependent oxidoreductase&lt;br&gt;Location: 1453944 - 1452847"  />
</g>
<g id="a9_0047"  >
<polygon style="fill:white; stroke-width:1; stroke:black; " class="clusterblast-orf" id="dummy-9_h9_6_47" locus_tag="SBI_RS04820" points="275,90 278,85 275,80 275,90 " description="&lt;b&gt;SBI_RS04820&lt;/b&gt;&lt;br&gt;FMN reductase&lt;br&gt;Location: 1452817 - 1452078"  />
</g>
<g id="a9_0048"  >
<polygon style="fill:white; stroke-width:1; stroke:black; " class="clusterblast-orf" id="dummy-9_h9_6_48" locus_tag="SBI_RS50585" points="278,90 280,85 278,80 278,90 " description="&lt;b&gt;SBI_RS50585&lt;/b&gt;&lt;br&gt;tetratricopeptide repeat protein&lt;br&gt;Location: 1452052 - 1451627"  />
</g>
<g id="a9_0049"  >
<polygon style="fill:white; stroke-width:1; stroke:black; " class="clusterblast-orf" id="dummy-9_h9_6_49" locus_tag="SBI_RS04815" points="280,85 285,80 286,80 286,90 285,90 280,85 " description="&lt;b&gt;SBI_RS04815&lt;/b&gt;&lt;br&gt;CapA family protein&lt;br&gt;Location: 1451558 - 1450410"  />
</g>
<g id="a9_0050"  >
<polygon style="fill:white; stroke-width:1; stroke:black; " class="clusterblast-orf" id="dummy-9_h9_6_50" locus_tag="SBI_RS54680" points="287,90 318,90 323,85 318,80 287,80 287,90 " description="&lt;b&gt;SBI_RS54680&lt;/b&gt;&lt;br&gt;non-ribosomal peptide synthase&lt;br&gt;Location: 1450072 - 1442159"  />
</g>
<g id="a9_0051"  >
<polygon style="fill:white; stroke-width:1; stroke:black; " class="clusterblast-orf" id="dummy-9_h9_6_51" locus_tag="SBI_RS50555" points="315,90 324,90 329,85 324,80 315,80 315,90 " description="&lt;b&gt;SBI_RS50555&lt;/b&gt;&lt;br&gt;non-ribosomal peptide synthetase&lt;br&gt;Location: 1443831 - 1440772"  />
</g>
<g id="a9_0052"  >
<polygon style="fill:white; stroke-width:1; stroke:black; " class="clusterblast-orf" id="dummy-9_h9_6_52" locus_tag="SBI_RS04805" points="331,90 337,90 342,85 337,80 331,80 331,90 " description="&lt;b&gt;SBI_RS04805&lt;/b&gt;&lt;br&gt;ATP-dependent Clp protease ATP-binding subunit&lt;br&gt;Location: 1440425 - 1437885"  />
</g>
<g id="a9_0053"  >
<polygon style="fill:white; stroke-width:1; stroke:black; " class="clusterblast-orf" id="dummy-9_h9_6_53" locus_tag="SBI_RS04800" points="343,90 345,90 350,85 345,80 343,80 343,90 " description="&lt;b&gt;SBI_RS04800&lt;/b&gt;&lt;br&gt;AMP-binding protein&lt;br&gt;Location: 1437740 - 1436124"  />
</g>
<g id="a9_0054"  >
<polygon style="fill:white; stroke-width:1; stroke:black; " class="clusterblast-orf" id="dummy-9_h9_6_54" locus_tag="SBI_RS04795" points="351,90 351,90 356,85 351,80 351,80 351,90 " description="&lt;b&gt;SBI_RS04795&lt;/b&gt;&lt;br&gt;LacI family transcriptional regulator&lt;br&gt;Location: 1436029 - 1434911"  />
</g>
<g id="a9_0055"  >
<polygon style="fill:white; stroke-width:1; stroke:black; " class="clusterblast-orf" id="dummy-9_h9_6_55" locus_tag="SBI_RS04790" points="357,90 360,85 357,80 357,90 " description="&lt;b&gt;SBI_RS04790&lt;/b&gt;&lt;br&gt;ThuA domain-containing protein&lt;br&gt;Location: 1434748 - 1434080"  />
</g>
<g id="a9_0056"  >
<polygon style="fill:white; stroke-width:1; stroke:black; " class="clusterblast-orf" id="dummy-9_h9_6_56" locus_tag="SBI_RS04785" points="360,90 360,90 365,85 360,80 360,80 360,90 " description="&lt;b&gt;SBI_RS04785&lt;/b&gt;&lt;br&gt;hypothetical protein&lt;br&gt;Location: 1434012 - 1432783"  />
</g>
<g id="a9_0057"  >
<polygon style="fill:white; stroke-width:1; stroke:black; " class="clusterblast-orf" id="dummy-9_h9_6_57" locus_tag="SBI_RS04780" points="366,85 371,80 378,80 378,90 371,90 366,85 " description="&lt;b&gt;SBI_RS04780&lt;/b&gt;&lt;br&gt;SpoIIE family protein phosphatase&lt;br&gt;Location: 1432602 - 1430044"  />
</g>
<g id="a9_0058"  >
<polygon style="fill:white; stroke-width:1; stroke:black; " class="clusterblast-orf" id="dummy-9_h9_6_58" locus_tag="SBI_RS04775" points="379,85 383,80 383,90 379,85 " description="&lt;b&gt;SBI_RS04775&lt;/b&gt;&lt;br&gt;alpha-L-glutamate ligase&lt;br&gt;Location: 1429803 - 1428979"  />
</g>
<g id="a9_0059"  >
<polygon style="fill:white; stroke-width:1; stroke:black; " class="clusterblast-orf" id="dummy-9_h9_6_59" locus_tag="SBI_RS04770" points="383,85 387,80 387,90 383,85 " description="&lt;b&gt;SBI_RS04770&lt;/b&gt;&lt;br&gt;30S ribosomal protein S6 modification protein RimK&lt;br&gt;Location: 1428982 - 1428074"  />
</g>
<g id="a9_0060"  >
<polygon style="fill:white; stroke-width:1; stroke:black; " class="clusterblast-orf" id="dummy-9_h9_6_60" locus_tag="SBI_RS04765" points="387,85 391,80 391,90 387,85 " description="&lt;b&gt;SBI_RS04765&lt;/b&gt;&lt;br&gt;ABC transporter permease&lt;br&gt;Location: 1427962 - 1427099"  />
</g>
<g id="a9_0061"  >
<polygon style="fill:white; stroke-width:1; stroke:black; " class="clusterblast-orf" id="dummy-9_h9_6_61" locus_tag="SBI_RS04760" points="391,85 396,80 403,80 403,90 396,90 391,85 " description="&lt;b&gt;SBI_RS04760&lt;/b&gt;&lt;br&gt;alpha/beta fold hydrolase&lt;br&gt;Location: 1427102 - 1424391"  />
</g>
<g id="a9_0062"  >
<polygon style="fill:white; stroke-width:1; stroke:black; " class="clusterblast-orf" id="dummy-9_h9_6_62" locus_tag="SBI_RS04755" points="405,90 406,85 405,80 405,90 " description="&lt;b&gt;SBI_RS04755&lt;/b&gt;&lt;br&gt;hypothetical protein&lt;br&gt;Location: 1424130 - 1423852"  />
</g>
<g id="a9_0063"  >
<polygon style="fill:white; stroke-width:1; stroke:black; " class="clusterblast-orf" id="dummy-9_h9_6_63" locus_tag="SBI_RS04750" points="406,85 411,80 412,80 412,90 411,90 406,85 " description="&lt;b&gt;SBI_RS04750&lt;/b&gt;&lt;br&gt;class I SAM-dependent methyltransferase&lt;br&gt;Location: 1423769 - 1422561"  />
</g>
<g id="a9_0064"  >
<polygon style="fill:white; stroke-width:1; stroke:black; " class="clusterblast-orf" id="dummy-9_h9_6_64" locus_tag="SBI_RS04745" points="412,85 417,80 417,80 417,90 417,90 412,85 " description="&lt;b&gt;SBI_RS04745&lt;/b&gt;&lt;br&gt;glycosyltransferase family 1 protein&lt;br&gt;Location: 1422564 - 1421317"  />
</g>
<g id="a9_0065"  >
<polygon style="fill:white; stroke-width:1; stroke:black; " class="clusterblast-orf" id="dummy-9_h9_6_65" locus_tag="SBI_RS04740" points="417,85 421,80 421,90 417,85 " description="&lt;b&gt;SBI_RS04740&lt;/b&gt;&lt;br&gt;alpha/beta hydrolase&lt;br&gt;Location: 1421320 - 1420466"  />
</g>
<g id="a9_0066"  >
<polygon style="fill:white; stroke-width:1; stroke:black; " class="clusterblast-orf" id="dummy-9_h9_6_66" locus_tag="SBI_RS04735" points="421,85 422,80 422,90 421,85 " description="&lt;b&gt;SBI_RS04735&lt;/b&gt;&lt;br&gt;acyl carrier protein&lt;br&gt;Location: 1420462 - 1420208"  />
</g>
<g id="a9_0067"  >
<polygon style="fill:white; stroke-width:1; stroke:black; " class="clusterblast-orf" id="dummy-9_h9_6_67" locus_tag="SBI_RS04730" points="423,85 428,80 444,80 444,90 428,90 423,85 " description="&lt;b&gt;SBI_RS04730&lt;/b&gt;&lt;br&gt;type I polyketide synthase&lt;br&gt;Location: 1420120 - 1415465"  />
</g>
<g id="a9_0068"  >
<polygon style="fill:white; stroke-width:1; stroke:black; " class="clusterblast-orf" id="dummy-9_h9_6_68" locus_tag="SBI_RS04725" points="444,85 449,80 478,80 478,90 449,90 444,85 " description="&lt;b&gt;SBI_RS04725&lt;/b&gt;&lt;br&gt;type I polyketide synthase&lt;br&gt;Location: 1415408 - 1407996"  />
</g>
<g id="a9_0069"  >
<polygon style="fill:white; stroke-width:1; stroke:black; " class="clusterblast-orf" id="dummy-9_h9_6_69" locus_tag="SBI_RS04720" points="479,90 481,85 479,80 479,90 " description="&lt;b&gt;SBI_RS04720&lt;/b&gt;&lt;br&gt;hypothetical protein&lt;br&gt;Location: 1407665 - 1407285"  />
</g>
<g id="a9_0070"  >
<polygon style="fill:white; stroke-width:1; stroke:black; " class="clusterblast-orf" id="dummy-9_h9_6_70" locus_tag="SBI_RS04715" points="482,90 484,85 482,80 482,90 " description="&lt;b&gt;SBI_RS04715&lt;/b&gt;&lt;br&gt;TerD family protein&lt;br&gt;Location: 1407083 - 1406529"  />
</g>
<g id="a9_0071"  >
<polygon style="fill:white; stroke-width:1; stroke:black; " class="clusterblast-orf" id="dummy-9_h9_6_71" locus_tag="SBI_RS04710" points="485,90 487,85 485,80 485,90 " description="&lt;b&gt;SBI_RS04710&lt;/b&gt;&lt;br&gt;nucleoside deaminase&lt;br&gt;Location: 1406402 - 1405926"  />
</g>
<g id="a9_0072"  >
<polygon style="fill:white; stroke-width:1; stroke:black; " class="clusterblast-orf" id="dummy-9_h9_6_72" locus_tag="SBI_RS04705" points="487,85 488,80 488,90 487,85 " description="&lt;b&gt;SBI_RS04705&lt;/b&gt;&lt;br&gt;TetR/AcrR family transcriptional regulator&lt;br&gt;Location: 1405894 - 1405703"  />
</g>
<g id="a9_0073"  >
<polygon style="fill:white; stroke-width:1; stroke:black; " class="clusterblast-orf" id="dummy-9_h9_6_73" locus_tag="SBI_RS04700" points="489,85 492,80 492,90 489,85 " description="&lt;b&gt;SBI_RS04700&lt;/b&gt;&lt;br&gt;TetR/AcrR family transcriptional regulator&lt;br&gt;Location: 1405590 - 1404895"  />
</g>
<g id="a9_0074"  >
<polygon style="fill:white; stroke-width:1; stroke:black; " class="clusterblast-orf" id="dummy-9_h9_6_74" locus_tag="SBI_RS04695" points="492,90 494,90 499,85 494,80 492,80 492,90 " description="&lt;b&gt;SBI_RS04695&lt;/b&gt;&lt;br&gt;multidrug efflux MFS transporter&lt;br&gt;Location: 1404790 - 1403345"  />
</g>
<g id="a9_0075"  >
<polygon style="fill:white; stroke-width:1; stroke:black; " class="clusterblast-orf" id="dummy-9_h9_6_75" locus_tag="SBI_RS04690" points="499,90 500,85 499,80 499,90 " description="&lt;b&gt;SBI_RS04690&lt;/b&gt;&lt;br&gt;hypothetical protein&lt;br&gt;Location: 1403226 - 1402975"  />
</g>
<g id="a9_0076"  >
<polygon style="fill:white; stroke-width:1; stroke:black; " class="clusterblast-orf" id="dummy-9_h9_6_76" locus_tag="SBI_RS04685" points="501,90 501,90 506,85 501,80 501,80 501,90 " description="&lt;b&gt;SBI_RS04685&lt;/b&gt;&lt;br&gt;sigma-70 family RNA polymerase sigma factor&lt;br&gt;Location: 1402821 - 1401823"  />
</g>
<g id="a9_0077"  >
<polygon style="fill:white; stroke-width:1; stroke:black; " class="clusterblast-orf" id="dummy-9_h9_6_77" locus_tag="SBI_RS04680" points="505,85 507,80 507,90 505,85 " description="&lt;b&gt;SBI_RS04680&lt;/b&gt;&lt;br&gt;STAS domain-containing protein&lt;br&gt;Location: 1401924 - 1401460"  />
</g>
<g id="a9_0078"  >
<polygon style="fill:white; stroke-width:1; stroke:black; " class="clusterblast-orf" id="dummy-9_h9_6_78" locus_tag="SBI_RS04675" points="508,90 510,85 508,80 508,90 " description="&lt;b&gt;SBI_RS04675&lt;/b&gt;&lt;br&gt;GNAT family N-acetyltransferase&lt;br&gt;Location: 1401377 - 1400853"  />
</g>
<g id="a9_0079"  >
<polygon style="fill:white; stroke-width:1; stroke:black; " class="clusterblast-orf" id="dummy-9_h9_6_79" locus_tag="SBI_RS04670" points="510,90 512,90 517,85 512,80 510,80 510,90 " description="&lt;b&gt;SBI_RS04670&lt;/b&gt;&lt;br&gt;hypothetical protein&lt;br&gt;Location: 1400834 - 1399431"  />
</g>
<g id="a9_0080"  >
<polygon style="fill:white; stroke-width:1; stroke:black; " class="clusterblast-orf" id="dummy-9_h9_6_80" locus_tag="SBI_RS04665" points="516,85 521,80 525,80 525,90 521,90 516,85 " description="&lt;b&gt;SBI_RS04665&lt;/b&gt;&lt;br&gt;AMP-binding protein&lt;br&gt;Location: 1399501 - 1397555"  />
</g>
<g id="a9_0081"  >
<polygon style="fill:white; stroke-width:1; stroke:black; " class="clusterblast-orf" id="dummy-9_h9_6_81" locus_tag="SBI_RS04660" points="526,85 529,80 529,90 526,85 " description="&lt;b&gt;SBI_RS04660&lt;/b&gt;&lt;br&gt;hypothetical protein&lt;br&gt;Location: 1397357 - 1396656"  />
</g>
<g id="a9_0082"  >
<polygon style="fill:#d81515; stroke-width:1; stroke:black; " class="clusterblast-orf" id="dummy-9_h9_6_82" locus_tag="SBI_RS04655" points="530,85 534,80 534,90 530,85 " description="&lt;b&gt;SBI_RS04655&lt;/b&gt;&lt;br&gt;LysR family transcriptional regulator&lt;br&gt;Location: 1396548 - 1395637&lt;br&gt;&lt;br&gt;&lt;b&gt;BlastP hit with cds1851359_1852118&lt;/b&gt;&lt;br&gt;Percentage identity: 55&lt;br&gt;Percentage coverage: 44&lt;br&gt;BLAST bit score: 112&lt;br&gt;E-value: 5.4e-23"  />
</g>
<g id="a9_0083"  >
<polygon style="fill:#d81515; stroke-width:1; stroke:black; " class="clusterblast-orf" id="dummy-9_h9_6_83" locus_tag="SBI_RS04650" points="535,90 536,90 541,85 536,80 535,80 535,90 " description="&lt;b&gt;SBI_RS04650&lt;/b&gt;&lt;br&gt;MFS transporter&lt;br&gt;Location: 1395443 - 1394025&lt;br&gt;&lt;br&gt;&lt;b&gt;BlastP hit with cds1850767_1851091&lt;/b&gt;&lt;br&gt;Percentage identity: 52&lt;br&gt;Percentage coverage: 62&lt;br&gt;BLAST bit score: 63&lt;br&gt;E-value: 1.6e-08"  />
</g>
<g id="a9_0084"  >
<polygon style="fill:white; stroke-width:1; stroke:black; " class="clusterblast-orf" id="dummy-9_h9_6_84" locus_tag="SBI_RS04645" points="541,85 545,80 545,90 541,85 " description="&lt;b&gt;SBI_RS04645&lt;/b&gt;&lt;br&gt;class II fructose-bisphosphate aldolase&lt;br&gt;Location: 1394014 - 1393172"  />
</g>
<g id="a9_0085"  >
<polygon style="fill:white; stroke-width:1; stroke:black; " class="clusterblast-orf" id="dummy-9_h9_6_85" locus_tag="SBI_RS04640" points="545,85 549,80 549,90 545,85 " description="&lt;b&gt;SBI_RS04640&lt;/b&gt;&lt;br&gt;SIS domain-containing protein&lt;br&gt;Location: 1393087 - 1392197"  />
</g>
<g id="a9_0086"  >
<polygon style="fill:white; stroke-width:1; stroke:black; " class="clusterblast-orf" id="dummy-9_h9_6_86" locus_tag="SBI_RS04635" points="550,90 554,85 550,80 550,90 " description="&lt;b&gt;SBI_RS04635&lt;/b&gt;&lt;br&gt;DeoR/GlpR transcriptional regulator&lt;br&gt;Location: 1392011 - 1391226"  />
</g>
<g id="a9_0087"  >
<polygon style="fill:white; stroke-width:1; stroke:black; " class="clusterblast-orf" id="dummy-9_h9_6_87" locus_tag="SBI_RS04630" points="554,85 559,80 602,80 602,90 559,90 554,85 " description="&lt;b&gt;SBI_RS04630&lt;/b&gt;&lt;br&gt;hybrid non-ribosomal peptide synthetase/type I polyketide synthase&lt;br&gt;Location: 1391239 - 1380629"  />
</g>
<g id="a9_0088"  >
<polygon style="fill:white; stroke-width:1; stroke:black; " class="clusterblast-orf" id="dummy-9_h9_6_88" locus_tag="SBI_RS04625" points="602,85 607,80 608,80 608,90 607,90 602,85 " description="&lt;b&gt;SBI_RS04625&lt;/b&gt;&lt;br&gt;MFS transporter&lt;br&gt;Location: 1380592 - 1379342"  />
</g>
<g id="a9_0089"  >
<polygon style="fill:white; stroke-width:1; stroke:black; " class="clusterblast-orf" id="dummy-9_h9_6_89" locus_tag="SBI_RS04620" points="608,85 613,80 613,80 613,90 613,90 608,85 " description="&lt;b&gt;SBI_RS04620&lt;/b&gt;&lt;br&gt;MFS transporter&lt;br&gt;Location: 1379289 - 1378057"  />
</g>
<g id="a9_0090"  >
<polygon style="fill:white; stroke-width:1; stroke:black; " class="clusterblast-orf" id="dummy-9_h9_6_90" locus_tag="SBI_RS50550" points="614,85 616,80 616,90 614,85 " description="&lt;b&gt;SBI_RS50550&lt;/b&gt;&lt;br&gt;helix-turn-helix transcriptional regulator&lt;br&gt;Location: 1378022 - 1377540"  />
</g>
<g id="a9_0091"  >
<polygon style="fill:white; stroke-width:1; stroke:black; " class="clusterblast-orf" id="dummy-9_h9_6_91" locus_tag="SBI_RS04615" points="618,85 620,80 620,90 618,85 " description="&lt;b&gt;SBI_RS04615&lt;/b&gt;&lt;br&gt;NAD(P)H-dependent oxidoreductase&lt;br&gt;Location: 1377128 - 1376505"  />
</g>
<g id="a9_0092"  >
<polygon style="fill:white; stroke-width:1; stroke:black; " class="clusterblast-orf" id="dummy-9_h9_6_92" locus_tag="SBI_RS04610" points="621,85 626,80 638,80 638,90 626,90 621,85 " description="&lt;b&gt;SBI_RS04610&lt;/b&gt;&lt;br&gt;non-ribosomal peptide synthetase&lt;br&gt;Location: 1376444 - 1372689"  />
</g>
<g id="a9_0093"  >
<polygon style="fill:white; stroke-width:1; stroke:black; " class="clusterblast-orf" id="dummy-9_h9_6_93" locus_tag="SBI_RS04605" points="637,85 639,80 639,90 637,85 " description="&lt;b&gt;SBI_RS04605&lt;/b&gt;&lt;br&gt;amino acid adenylation&lt;br&gt;Location: 1372747 - 1372361"  />
</g>
<g id="a9_0094"  >
<polygon style="fill:white; stroke-width:1; stroke:black; " class="clusterblast-orf" id="dummy-9_h9_6_94" locus_tag="SBI_RS04600" points="639,85 644,80 651,80 651,90 644,90 639,85 " description="&lt;b&gt;SBI_RS04600&lt;/b&gt;&lt;br&gt;amino acid adenylation domain-containing protein&lt;br&gt;Location: 1372389 - 1369837"  />
</g>
<g id="a9_0095"  >
<polygon style="fill:white; stroke-width:1; stroke:black; " class="clusterblast-orf" id="dummy-9_h9_6_95" locus_tag="SBI_RS04595" points="650,85 655,80 660,80 660,90 655,90 650,85 " description="&lt;b&gt;SBI_RS04595&lt;/b&gt;&lt;br&gt;amino acid adenylation domain-containing protein&lt;br&gt;Location: 1369865 - 1367784"  />
</g>
<g id="a9_0096"  >
<polygon style="fill:white; stroke-width:1; stroke:black; " class="clusterblast-orf" id="dummy-9_h9_6_96" locus_tag="SBI_RS04590" points="660,85 665,80 666,80 666,90 665,90 660,85 " description="&lt;b&gt;SBI_RS04590&lt;/b&gt;&lt;br&gt;glutamate synthase&lt;br&gt;Location: 1367800 - 1366460"  />
</g>
<g id="a9_0097"  >
<polygon style="fill:white; stroke-width:1; stroke:black; " class="clusterblast-orf" id="dummy-9_h9_6_97" locus_tag="SBI_RS04585" points="666,85 670,80 670,90 666,85 " description="&lt;b&gt;SBI_RS04585&lt;/b&gt;&lt;br&gt;hypothetical protein&lt;br&gt;Location: 1366463 - 1365438"  />
</g>
<g id="a9_0098"  >
<polygon style="fill:white; stroke-width:1; stroke:black; " class="clusterblast-orf" id="dummy-9_h9_6_98" locus_tag="SBI_RS04580" points="672,90 672,90 677,85 672,80 672,80 672,90 " description="&lt;b&gt;SBI_RS04580&lt;/b&gt;&lt;br&gt;hypothetical protein&lt;br&gt;Location: 1365198 - 1363915"  />
</g>
<g id="a9_0099"  >
<polygon style="fill:white; stroke-width:1; stroke:black; " class="clusterblast-orf" id="dummy-9_h9_6_99" locus_tag="SBI_RS04575" points="678,90 680,90 685,85 680,80 678,80 678,90 " description="&lt;b&gt;SBI_RS04575&lt;/b&gt;&lt;br&gt;hypothetical protein&lt;br&gt;Location: 1363768 - 1362335"  />
</g>
<g id="a9_00100"  >
<polygon style="fill:white; stroke-width:1; stroke:black; " class="clusterblast-orf" id="dummy-9_h9_6_100" locus_tag="SBI_RS04570" points="685,90 686,90 691,85 686,80 685,80 685,90 " description="&lt;b&gt;SBI_RS04570&lt;/b&gt;&lt;br&gt;acyl--CoA ligase&lt;br&gt;Location: 1362299 - 1360818"  />
</g>
<g id="a9_00101"  >
<polygon style="fill:white; stroke-width:1; stroke:black; " class="clusterblast-orf" id="dummy-9_h9_6_101" locus_tag="SBI_RS04565" points="692,90 693,85 692,80 692,90 " description="&lt;b&gt;SBI_RS04565&lt;/b&gt;&lt;br&gt;hypothetical protein&lt;br&gt;Location: 1360797 - 1360531"  />
</g>
<g id="a9_00102"  >
<polygon style="fill:white; stroke-width:1; stroke:black; " class="clusterblast-orf" id="dummy-9_h9_6_102" locus_tag="SBI_RS49295" points="693,90 696,85 693,80 693,90 " description="&lt;b&gt;SBI_RS49295&lt;/b&gt;&lt;br&gt;dihydrodipicolinate reductase&lt;br&gt;Location: 1360541 - 1359732"  />
</g>
<g id="a9_00103"  >
<polygon style="fill:white; stroke-width:1; stroke:black; " class="clusterblast-orf" id="dummy-9_h9_6_103" locus_tag="SBI_RS53060" points="696,90 700,85 696,80 696,90 " description="&lt;b&gt;SBI_RS53060&lt;/b&gt;&lt;br&gt;class II aldolase/adducin family protein&lt;br&gt;Location: 1359817 - 1358957"  />
</g>
<g id="a9_00104"  >
<polygon style="fill:white; stroke-width:1; stroke:black; " class="clusterblast-orf" id="dummy-9_h9_6_104" locus_tag="SBI_RS04550" points="700,90 700,90 705,85 700,80 700,80 700,90 " description="&lt;b&gt;SBI_RS04550&lt;/b&gt;&lt;br&gt;acyl-CoA dehydrogenase&lt;br&gt;Location: 1358915 - 1357821"  />
</g>
<g id="a9_00105"  >
<polygon style="fill:white; stroke-width:1; stroke:black; " class="clusterblast-orf" id="dummy-9_h9_6_105" locus_tag="SBI_RS04545" points="705,90 706,90 711,85 706,80 705,80 705,90 " description="&lt;b&gt;SBI_RS04545&lt;/b&gt;&lt;br&gt;LLM class flavin-dependent oxidoreductase&lt;br&gt;Location: 1357773 - 1356592"  />
</g>
<g id="a9_00106"  >
<polygon style="fill:white; stroke-width:1; stroke:black; " class="clusterblast-orf" id="dummy-9_h9_6_106" locus_tag="SBI_RS04540" points="711,85 716,80 716,80 716,90 716,90 711,85 " description="&lt;b&gt;SBI_RS04540&lt;/b&gt;&lt;br&gt;type I glyceraldehyde-3-phosphate dehydrogenase&lt;br&gt;Location: 1356503 - 1355496"  />
</g>
<g id="a9_00107"  >
<polygon style="fill:white; stroke-width:1; stroke:black; " class="clusterblast-orf" id="dummy-9_h9_6_107" locus_tag="SBI_RS04535" points="716,85 721,80 721,80 721,90 721,90 716,85 " description="&lt;b&gt;SBI_RS04535&lt;/b&gt;&lt;br&gt;oxygenase&lt;br&gt;Location: 1355333 - 1354305"  />
</g>
<g id="a9_00108"  >
<polygon style="fill:white; stroke-width:1; stroke:black; " class="clusterblast-orf" id="dummy-9_h9_6_108" locus_tag="SBI_RS04530" points="722,90 723,85 722,80 722,90 " description="&lt;b&gt;SBI_RS04530&lt;/b&gt;&lt;br&gt;L-rhamnose mutarotase&lt;br&gt;Location: 1354162 - 1353809"  />
</g>
<g id="a9_00109"  >
<polygon style="fill:white; stroke-width:1; stroke:black; " class="clusterblast-orf" id="dummy-9_h9_6_109" locus_tag="SBI_RS49290" points="725,90 727,90 732,85 727,80 725,80 725,90 " description="&lt;b&gt;SBI_RS49290&lt;/b&gt;&lt;br&gt;S1 family peptidase&lt;br&gt;Location: 1353385 - 1351758"  />
</g>
<g id="a9_00110"  >
<polygon style="fill:white; stroke-width:1; stroke:black; " class="clusterblast-orf" id="dummy-9_h9_6_110" locus_tag="SBI_RS04520" points="733,85 737,80 737,90 733,85 " description="&lt;b&gt;SBI_RS04520&lt;/b&gt;&lt;br&gt;uracil-DNA glycosylase&lt;br&gt;Location: 1351609 - 1350842"  />
</g>
<g id="a9_00111"  >
<polygon style="fill:white; stroke-width:1; stroke:black; " class="clusterblast-orf" id="dummy-9_h9_6_111" locus_tag="SBI_RS04515" points="737,85 742,80 744,80 744,90 742,90 737,85 " description="&lt;b&gt;SBI_RS04515&lt;/b&gt;&lt;br&gt;DNA polymerase/3'-5' exonuclease PolX&lt;br&gt;Location: 1350845 - 1349103"  />
</g>
<g id="a9_00112"  >
<polygon style="fill:white; stroke-width:1; stroke:black; " class="clusterblast-orf" id="dummy-9_h9_6_112" locus_tag="SBI_RS50545" points="747,90 751,85 747,80 747,90 " description="&lt;b&gt;SBI_RS50545&lt;/b&gt;&lt;br&gt;transposase&lt;br&gt;Location: 1348535 - 1347744"  />
</g>
<g id="a9_00113"  >
<polygon style="fill:white; stroke-width:1; stroke:black; " class="clusterblast-orf" id="dummy-9_h9_6_113" locus_tag="SBI_RS04505" points="752,90 752,90 757,85 752,80 752,80 752,90 " description="&lt;b&gt;SBI_RS04505&lt;/b&gt;&lt;br&gt;hypothetical protein&lt;br&gt;Location: 1347533 - 1346379"  />
</g>
<g id="a9_00114"  >
<polygon style="fill:white; stroke-width:1; stroke:black; " class="clusterblast-orf" id="dummy-9_h9_6_114" locus_tag="SBI_RS04500" points="758,90 765,90 770,85 765,80 758,80 758,90 " description="&lt;b&gt;SBI_RS04500&lt;/b&gt;&lt;br&gt;exo-beta-D-glucosaminidase&lt;br&gt;Location: 1346130 - 1343407"  />
</g>
<g id="a9_00115"  >
<polygon style="fill:white; stroke-width:1; stroke:black; " class="clusterblast-orf" id="dummy-9_h9_6_115" locus_tag="SBI_RS04495" points="772,85 777,80 778,80 778,90 777,90 772,85 " description="&lt;b&gt;SBI_RS04495&lt;/b&gt;&lt;br&gt;alpha-L-fucosidase&lt;br&gt;Location: 1343028 - 1341682"  />
</g>
<g id="a9_00116"  >
<polygon style="fill:white; stroke-width:1; stroke:black; " class="clusterblast-orf" id="dummy-9_h9_6_116" locus_tag="SBI_RS54675" points="778,85 780,80 780,90 778,85 " description="&lt;b&gt;SBI_RS54675&lt;/b&gt;&lt;br&gt;hypothetical protein&lt;br&gt;Location: 1341676 - 1341371"  />
</g>
</svg>
