<svg xmlns:xlink="http://www.w3.org/1999/xlink" version="1.1" y="0" height="230" xmlns="http://www.w3.org/2000/svg" preserveAspectRatio="none" x="0" width="800" viewBox="0 0 800 230"  >
<g label="Query sequence" class="clusterblast-cluster"  >
<text y="20" class="clusterblast-acc" x="5"  >
Query sequence</text>
<line style="stroke-width:1; stroke:grey; " y1="35" x1="10" y2="35" x2="778.0"  />
<polygon style="fill:#d81515; stroke-width:1; stroke:black; " class="clusterblast-orf" id="dummy-2_q0_0_all" locus_tag="cds433694_434774" points="218,40 233,40 238,35 233,30 218,30 218,40 " description="&lt;b&gt;cds433694_434774&lt;/b&gt;&lt;br&gt;deoxyribodipyrimidine photolyase-related protein&lt;br&gt;Location: 433694 - 434774"  />
<polygon style="fill:#15d815; stroke-width:1; stroke:black; " class="clusterblast-orf" id="dummy-2_q1_0_all" locus_tag="cds435274_437233" points="247,35 252,30 283,30 283,40 252,40 247,35 " description="&lt;b&gt;cds435274_437233&lt;/b&gt;&lt;br&gt;phi-Carotenoid synthase (EC 1.3.-.- and EC 2.1.1-)&lt;br&gt;Location: 435274 - 437233"  />
<polygon style="fill:#15d815; stroke-width:1; stroke:black; " class="clusterblast-orf" id="dummy-2_q2_0_all" locus_tag="cds437477_438152" points="288,35 293,30 300,30 300,40 293,40 288,35 " description="&lt;b&gt;cds437477_438152&lt;/b&gt;&lt;br&gt;CrtT-methyltransferase-like protein&lt;br&gt;Location: 437477 - 438152"  />
<polygon style="fill:white; stroke-width:1; stroke:black; " class="clusterblast-orf" id="dummy-2_q3_0_all" locus_tag="cds438537_438795" points="307,40 307,40 312,35 307,30 307,30 307,40 " description="&lt;b&gt;cds438537_438795&lt;/b&gt;&lt;br&gt;hypothetical protein&lt;br&gt;Location: 438537 - 438795"  />
<polygon style="fill:white; stroke-width:1; stroke:black; " class="clusterblast-orf" id="dummy-2_q4_0_all" locus_tag="cds439084_440071" points="317,40 330,40 335,35 330,30 317,30 317,40 " description="&lt;b&gt;cds439084_440071&lt;/b&gt;&lt;br&gt;hypothetical protein&lt;br&gt;Location: 439084 - 440071"  />
<polygon style="fill:#1597d8; stroke-width:1; stroke:black; " class="clusterblast-orf" id="dummy-2_q5_0_all" locus_tag="cds440126_440333" points="336,40 340,35 336,30 336,40 " description="&lt;b&gt;cds440126_440333&lt;/b&gt;&lt;br&gt;Octaprenyl-diphosphate synthase (EC 2.5.1.-) / Dimethylallyltransferase (EC 2.5.1.1) / Geranyltranstransferase (farnesyldiphosphate synthase) (EC 2.5.1.10) / Geranylgeranyl pyrophosphate synthetase (EC 2.5.1.29)&lt;br&gt;Location: 440126 - 440333"  />
<polygon style="fill:#1597d8; stroke-width:1; stroke:black; " class="clusterblast-orf" id="dummy-2_q6_0_all" locus_tag="cds440412_441756" points="342,40 361,40 366,35 361,30 342,30 342,40 " description="&lt;b&gt;cds440412_441756&lt;/b&gt;&lt;br&gt;Geranylgeranyl diphosphate synthase (EC 2.5.1.29)&lt;br&gt;Location: 440412 - 441756"  />
<polygon style="fill:#1597d8; stroke-width:1; stroke:black; " class="clusterblast-orf" id="dummy-2_q7_0_all" locus_tag="cds441707_442781" points="365,40 380,40 385,35 380,30 365,30 365,40 " description="&lt;b&gt;cds441707_442781&lt;/b&gt;&lt;br&gt;Squalene/phytoene desaturase HopC&lt;br&gt;Location: 441707 - 442781"  />
<polygon style="fill:white; stroke-width:1; stroke:black; " class="clusterblast-orf" id="dummy-2_q8_0_all" locus_tag="cds442833_443112" points="386,35 391,30 391,30 391,40 391,40 386,35 " description="&lt;b&gt;cds442833_443112&lt;/b&gt;&lt;br&gt;hypothetical protein&lt;br&gt;Location: 442833 - 443112"  />
<polygon style="fill:#9715d8; stroke-width:1; stroke:black; " class="clusterblast-orf" id="dummy-2_q9_0_all" locus_tag="cds443353_443869" points="396,40 400,40 405,35 400,30 396,30 396,40 " description="&lt;b&gt;cds443353_443869&lt;/b&gt;&lt;br&gt;Phytoene synthase (EC 2.5.1.32)&lt;br&gt;Location: 443353 - 443869"  />
<polygon style="fill:#d89715; stroke-width:1; stroke:black; " class="clusterblast-orf" id="dummy-2_q10_0_all" locus_tag="cds443865_444201" points="405,40 406,40 411,35 406,30 405,30 405,40 " description="&lt;b&gt;cds443865_444201&lt;/b&gt;&lt;br&gt;CrtV-methyltransferase-like protein&lt;br&gt;Location: 443865 - 444201"  />
<polygon style="fill:#15d897; stroke-width:1; stroke:black; " class="clusterblast-orf" id="dummy-2_q11_0_all" locus_tag="cds444495_445695" points="417,35 422,30 439,30 439,40 422,40 417,35 " description="&lt;b&gt;cds444495_445695&lt;/b&gt;&lt;br&gt;Spore photoproduct lyase (EC 4.1.99.14)&lt;br&gt;Location: 444495 - 445695"  />
<polygon style="fill:white; stroke-width:1; stroke:black; " class="clusterblast-orf" id="dummy-2_q12_0_all" locus_tag="cds445832_446456" points="441,40 448,40 453,35 448,30 441,30 441,40 " description="&lt;b&gt;cds445832_446456&lt;/b&gt;&lt;br&gt;hypothetical protein&lt;br&gt;Location: 445832 - 446456"  />
<polygon style="fill:#1515d8; stroke-width:1; stroke:black; " class="clusterblast-orf" id="dummy-2_q13_0_all" locus_tag="cds446788_447538" points="459,35 464,30 473,30 473,40 464,40 459,35 " description="&lt;b&gt;cds446788_447538&lt;/b&gt;&lt;br&gt;RNA polymerase ECF-type sigma factor&lt;br&gt;Location: 446788 - 447538"  />
<polygon style="fill:white; stroke-width:1; stroke:black; " class="clusterblast-orf" id="dummy-2_q14_0_all" locus_tag="cds447564_448407" points="473,40 484,40 489,35 484,30 473,30 473,40 " description="&lt;b&gt;cds447564_448407&lt;/b&gt;&lt;br&gt;hypothetical protein&lt;br&gt;Location: 447564 - 448407"  />
<polygon style="fill:white; stroke-width:1; stroke:black; " class="clusterblast-orf" id="dummy-2_q15_0_all" locus_tag="cds448653_448941" points="493,40 493,40 498,35 493,30 493,30 493,40 " description="&lt;b&gt;cds448653_448941&lt;/b&gt;&lt;br&gt;hypothetical protein&lt;br&gt;Location: 448653 - 448941"  />
<polygon style="fill:#d81597; stroke-width:1; stroke:black; " class="clusterblast-orf" id="dummy-2_q16_0_all" locus_tag="cds448950_449136" points="499,40 502,35 499,30 499,40 " description="&lt;b&gt;cds448950_449136&lt;/b&gt;&lt;br&gt;Ribonuclease J2 (endoribonuclease in RNA processing)&lt;br&gt;Location: 448950 - 449136"  />
<polygon style="fill:#d81597; stroke-width:1; stroke:black; " class="clusterblast-orf" id="dummy-2_q17_0_all" locus_tag="cds449096_449612" points="501,40 506,40 511,35 506,30 501,30 501,40 " description="&lt;b&gt;cds449096_449612&lt;/b&gt;&lt;br&gt;Ribonuclease J2 (endoribonuclease in RNA processing)&lt;br&gt;Location: 449096 - 449612"  />
<polygon style="fill:#d81597; stroke-width:1; stroke:black; " class="clusterblast-orf" id="dummy-2_q18_0_all" locus_tag="cds449679_449925" points="512,40 516,35 512,30 512,40 " description="&lt;b&gt;cds449679_449925&lt;/b&gt;&lt;br&gt;Ribonuclease J2 (endoribonuclease in RNA processing)&lt;br&gt;Location: 449679 - 449925"  />
<polygon style="fill:#d81597; stroke-width:1; stroke:black; " class="clusterblast-orf" id="dummy-2_q19_0_all" locus_tag="cds449885_450629" points="516,40 524,40 529,35 524,30 516,30 516,40 " description="&lt;b&gt;cds449885_450629&lt;/b&gt;&lt;br&gt;Ribonuclease J (endonuclease and 5' exonuclease)&lt;br&gt;Location: 449885 - 450629"  />
<polygon style="fill:#97d815; stroke-width:1; stroke:black; " class="clusterblast-orf" id="dummy-2_q20_0_all" locus_tag="cds450726_451155" points="531,40 534,40 539,35 534,30 531,30 531,40 " description="&lt;b&gt;cds450726_451155&lt;/b&gt;&lt;br&gt;hypothetical protein&lt;br&gt;Location: 450726 - 451155"  />
<polygon style="fill:#97d815; stroke-width:1; stroke:black; " class="clusterblast-orf" id="dummy-2_q21_0_all" locus_tag="cds451144_451801" points="539,40 546,40 551,35 546,30 539,30 539,40 " description="&lt;b&gt;cds451144_451801&lt;/b&gt;&lt;br&gt;hypothetical protein&lt;br&gt;Location: 451144 - 451801"  />
<polygon style="fill:white; stroke-width:1; stroke:black; " class="clusterblast-orf" id="dummy-2_q22_0_all" locus_tag="cds452169_452361" points="558,40 561,35 558,30 558,40 " description="&lt;b&gt;cds452169_452361&lt;/b&gt;&lt;br&gt;hypothetical protein&lt;br&gt;Location: 452169 - 452361"  />
</g>
<g label="NZ_CP047144" class="clusterblast-cluster" description="NZ_CP047144 (7700759-7747106): Streptomyces sp. HF10 chromosome, complete genome (18% of genes show similarity), lanthipeptide,other,terpene"  >
<text y="70" class="clusterblast-acc" x="5"  >
<a xlink:href="https://antismash-db.secondarymetabolites.org/area.html?record=NZ_CP047144&amp;start=7700759&amp;end=7747106" target="_blank">NZ_CP047144 (7700759-7747106)</a>: Streptomyces sp. HF10 chromosome, complete genome (18% of genes show similarity), lanthipeptide,other,terpene</text>
<line style="stroke-width:1; stroke:grey; " y1="85" x1="10" y2="85" x2="778.0"  />
</g>
<g id="a2_000"  >
<polygon style="fill:white; stroke-width:1; stroke:black; " class="clusterblast-orf" id="dummy-2_h2_5_0" locus_tag="GR129_RS34350" points="0,85 5,80 6,80 6,90 5,90 0,85 " description="&lt;b&gt;GR129_RS34350&lt;/b&gt;&lt;br&gt;anti-sigma factor antagonist&lt;br&gt;Location: 7744972 - 7744619"  />
</g>
<g id="a2_001"  >
<polygon style="fill:white; stroke-width:1; stroke:black; " class="clusterblast-orf" id="dummy-2_h2_5_1" locus_tag="GR129_RS34345" points="12,90 12,90 17,85 12,80 12,80 12,90 " description="&lt;b&gt;GR129_RS34345&lt;/b&gt;&lt;br&gt;STAS domain-containing protein&lt;br&gt;Location: 7744300 - 7744007"  />
</g>
<g id="a2_002"  >
<polygon style="fill:white; stroke-width:1; stroke:black; " class="clusterblast-orf" id="dummy-2_h2_5_2" locus_tag="GR129_RS34340" points="19,90 22,90 27,85 22,80 19,80 19,90 " description="&lt;b&gt;GR129_RS34340&lt;/b&gt;&lt;br&gt;ATP-binding protein&lt;br&gt;Location: 7743919 - 7743482"  />
</g>
<g id="a2_003"  >
<polygon style="fill:white; stroke-width:1; stroke:black; " class="clusterblast-orf" id="dummy-2_h2_5_3" locus_tag="GR129_RS34335" points="28,85 33,80 44,80 44,90 33,90 28,85 " description="&lt;b&gt;GR129_RS34335&lt;/b&gt;&lt;br&gt;SigB/SigF/SigG family RNA polymerase sigma factor&lt;br&gt;Location: 7743396 - 7742551"  />
</g>
<g id="a2_004"  >
<polygon style="fill:white; stroke-width:1; stroke:black; " class="clusterblast-orf" id="dummy-2_h2_5_4" locus_tag="GR129_RS34330" points="50,85 55,80 56,80 56,90 55,90 50,85 " description="&lt;b&gt;GR129_RS34330&lt;/b&gt;&lt;br&gt;hypothetical protein&lt;br&gt;Location: 7742216 - 7741875"  />
</g>
<g id="a2_005"  >
<polygon style="fill:white; stroke-width:1; stroke:black; " class="clusterblast-orf" id="dummy-2_h2_5_5" locus_tag="GR129_RS34325" points="65,85 68,80 68,90 65,85 " description="&lt;b&gt;GR129_RS34325&lt;/b&gt;&lt;br&gt;hydrophobic protein&lt;br&gt;Location: 7741394 - 7741224"  />
</g>
<g id="a2_006"  >
<polygon style="fill:white; stroke-width:1; stroke:black; " class="clusterblast-orf" id="dummy-2_h2_5_6" locus_tag="GR129_RS34320" points="73,90 73,90 78,85 73,80 73,80 73,90 " description="&lt;b&gt;GR129_RS34320&lt;/b&gt;&lt;br&gt;hypothetical protein&lt;br&gt;Location: 7740970 - 7740707"  />
</g>
<g id="a2_007"  >
<polygon style="fill:white; stroke-width:1; stroke:black; " class="clusterblast-orf" id="dummy-2_h2_5_7" locus_tag="GR129_RS34315" points="80,85 85,80 85,80 85,90 85,90 80,85 " description="&lt;b&gt;GR129_RS34315&lt;/b&gt;&lt;br&gt;hypothetical protein&lt;br&gt;Location: 7740616 - 7740323"  />
</g>
<g id="a2_008"  >
<polygon style="fill:white; stroke-width:1; stroke:black; " class="clusterblast-orf" id="dummy-2_h2_5_8" locus_tag="GR129_RS34310" points="92,90 98,90 103,85 98,80 92,80 92,90 " description="&lt;b&gt;GR129_RS34310&lt;/b&gt;&lt;br&gt;DedA family protein&lt;br&gt;Location: 7739954 - 7739319"  />
</g>
<g id="a2_009"  >
<polygon style="fill:#15d897; stroke-width:1; stroke:black; " class="clusterblast-orf" id="dummy-2_h2_5_9" locus_tag="GR129_RS34305" points="105,85 110,80 127,80 127,90 110,90 105,85 " description="&lt;b&gt;GR129_RS34305&lt;/b&gt;&lt;br&gt;spore photoproduct lyase family protein&lt;br&gt;Location: 7739231 - 7738047&lt;br&gt;&lt;br&gt;&lt;b&gt;BlastP hit with cds444495_445695&lt;/b&gt;&lt;br&gt;Percentage identity: 88&lt;br&gt;Percentage coverage: 51&lt;br&gt;BLAST bit score: 387&lt;br&gt;E-value: 1.8e-105"  />
</g>
<g id="a2_0010"  >
<polygon style="fill:white; stroke-width:1; stroke:black; " class="clusterblast-orf" id="dummy-2_h2_5_10" locus_tag="GR129_RS34300" points="135,85 139,80 139,90 135,85 " description="&lt;b&gt;GR129_RS34300&lt;/b&gt;&lt;br&gt;HVA1 family protein&lt;br&gt;Location: 7737619 - 7737392"  />
</g>
<g id="a2_0011"  >
<polygon style="fill:white; stroke-width:1; stroke:black; " class="clusterblast-orf" id="dummy-2_h2_5_11" locus_tag="GR129_RS34295" points="144,85 149,80 191,80 191,90 149,90 144,85 " description="&lt;b&gt;GR129_RS34295&lt;/b&gt;&lt;br&gt;serine/threonine protein kinase&lt;br&gt;Location: 7737106 - 7734557"  />
</g>
<g id="a2_0012"  >
<polygon style="fill:white; stroke-width:1; stroke:black; " class="clusterblast-orf" id="dummy-2_h2_5_12" locus_tag="GR129_RS34290" points="191,85 194,80 194,90 191,85 " description="&lt;b&gt;GR129_RS34290&lt;/b&gt;&lt;br&gt;hypothetical protein&lt;br&gt;Location: 7734554 - 7734372"  />
</g>
<g id="a2_0013"  >
<polygon style="fill:#15d815; stroke-width:1; stroke:black; " class="clusterblast-orf" id="dummy-2_h2_5_13" locus_tag="GR129_RS34285" points="207,85 212,80 234,80 234,90 212,90 207,85 " description="&lt;b&gt;GR129_RS34285&lt;/b&gt;&lt;br&gt;FAD-dependent oxidoreductase&lt;br&gt;Location: 7733677 - 7732205&lt;br&gt;&lt;br&gt;&lt;b&gt;BlastP hit with cds435274_437233&lt;/b&gt;&lt;br&gt;Percentage identity: 49&lt;br&gt;Percentage coverage: 35&lt;br&gt;BLAST bit score: 184&lt;br&gt;E-value: 2.9e-44&lt;br&gt;&lt;br&gt;&lt;b&gt;BlastP hit with cds437477_438152&lt;/b&gt;&lt;br&gt;Percentage identity: 82&lt;br&gt;Percentage coverage: 17&lt;br&gt;BLAST bit score: 58&lt;br&gt;E-value: 1.1e-06"  />
</g>
<g id="a2_0014"  >
<polygon style="fill:#15d815; stroke-width:1; stroke:black; " class="clusterblast-orf" id="dummy-2_h2_5_14" locus_tag="GR129_RS34280" points="237,85 242,80 250,80 250,90 242,90 237,85 " description="&lt;b&gt;GR129_RS34280&lt;/b&gt;&lt;br&gt;class I SAM-dependent methyltransferase&lt;br&gt;Location: 7732058 - 7731330&lt;br&gt;&lt;br&gt;&lt;b&gt;BlastP hit with cds437477_438152&lt;/b&gt;&lt;br&gt;Percentage identity: 83&lt;br&gt;Percentage coverage: 59&lt;br&gt;BLAST bit score: 225&lt;br&gt;E-value: 5.1e-57"  />
</g>
<g id="a2_0015"  >
<polygon style="fill:white; stroke-width:1; stroke:black; " class="clusterblast-orf" id="dummy-2_h2_5_15" locus_tag="GR129_RS34275" points="250,85 255,80 273,80 273,90 255,90 250,85 " description="&lt;b&gt;GR129_RS34275&lt;/b&gt;&lt;br&gt;lycopene cyclase&lt;br&gt;Location: 7731333 - 7730069"  />
</g>
<g id="a2_0016"  >
<polygon style="fill:#1597d8; stroke-width:1; stroke:black; " class="clusterblast-orf" id="dummy-2_h2_5_16" locus_tag="GR129_RS34270" points="280,90 301,90 306,85 301,80 280,80 280,90 " description="&lt;b&gt;GR129_RS34270&lt;/b&gt;&lt;br&gt;polyprenyl synthetase family protein&lt;br&gt;Location: 7729714 - 7728311&lt;br&gt;&lt;br&gt;&lt;b&gt;BlastP hit with cds440126_440333&lt;/b&gt;&lt;br&gt;Percentage identity: 71&lt;br&gt;Percentage coverage: 87&lt;br&gt;BLAST bit score: 83&lt;br&gt;E-value: 9.5e-15&lt;br&gt;&lt;br&gt;&lt;b&gt;BlastP hit with cds440412_441756&lt;/b&gt;&lt;br&gt;Percentage identity: 44&lt;br&gt;Percentage coverage: 72&lt;br&gt;BLAST bit score: 162&lt;br&gt;E-value: 8.1e-38"  />
</g>
<g id="a2_0017"  >
<polygon style="fill:#1597d8; stroke-width:1; stroke:black; " class="clusterblast-orf" id="dummy-2_h2_5_17" locus_tag="GR129_RS34265" points="306,90 333,90 338,85 333,80 306,80 306,90 " description="&lt;b&gt;GR129_RS34265&lt;/b&gt;&lt;br&gt;phytoene desaturase&lt;br&gt;Location: 7728314 - 7726545&lt;br&gt;&lt;br&gt;&lt;b&gt;BlastP hit with cds440412_441756&lt;/b&gt;&lt;br&gt;Percentage identity: 87&lt;br&gt;Percentage coverage: 29&lt;br&gt;BLAST bit score: 222&lt;br&gt;E-value: 1.1e-55&lt;br&gt;&lt;br&gt;&lt;b&gt;BlastP hit with cds441707_442781&lt;/b&gt;&lt;br&gt;Percentage identity: 73&lt;br&gt;Percentage coverage: 68&lt;br&gt;BLAST bit score: 317&lt;br&gt;E-value: 1.2e-84"  />
</g>
<g id="a2_0018"  >
<polygon style="fill:#9715d8; stroke-width:1; stroke:black; " class="clusterblast-orf" id="dummy-2_h2_5_18" locus_tag="GR129_RS34260" points="338,90 352,90 357,85 352,80 338,80 338,90 " description="&lt;b&gt;GR129_RS34260&lt;/b&gt;&lt;br&gt;squalene/phytoene synthase family protein&lt;br&gt;Location: 7726548 - 7725514&lt;br&gt;&lt;br&gt;&lt;b&gt;BlastP hit with cds443353_443869&lt;/b&gt;&lt;br&gt;Percentage identity: 79&lt;br&gt;Percentage coverage: 63&lt;br&gt;BLAST bit score: 171&lt;br&gt;E-value: 6.7e-41"  />
</g>
<g id="a2_0019"  >
<polygon style="fill:#d89715; stroke-width:1; stroke:black; " class="clusterblast-orf" id="dummy-2_h2_5_19" locus_tag="GR129_RS34255" points="357,90 370,90 375,85 370,80 357,80 357,90 " description="&lt;b&gt;GR129_RS34255&lt;/b&gt;&lt;br&gt;Rieske 2Fe-2S domain-containing protein&lt;br&gt;Location: 7725517 - 7724510&lt;br&gt;&lt;br&gt;&lt;b&gt;BlastP hit with cds443865_444201&lt;/b&gt;&lt;br&gt;Percentage identity: 71&lt;br&gt;Percentage coverage: 94&lt;br&gt;BLAST bit score: 152&lt;br&gt;E-value: 2.7e-35"  />
</g>
<g id="a2_0020"  >
<polygon style="fill:white; stroke-width:1; stroke:black; " class="clusterblast-orf" id="dummy-2_h2_5_20" locus_tag="GR129_RS34250" points="378,85 383,80 386,80 386,90 383,90 378,85 " description="&lt;b&gt;GR129_RS34250&lt;/b&gt;&lt;br&gt;hypothetical protein&lt;br&gt;Location: 7724390 - 7723926"  />
</g>
<g id="a2_0021"  >
<polygon style="fill:white; stroke-width:1; stroke:black; " class="clusterblast-orf" id="dummy-2_h2_5_21" locus_tag="GR129_RS34245" points="389,90 393,85 389,80 389,90 " description="&lt;b&gt;GR129_RS34245&lt;/b&gt;&lt;br&gt;hypothetical protein&lt;br&gt;Location: 7723791 - 7723582"  />
</g>
<g id="a2_0022"  >
<polygon style="fill:white; stroke-width:1; stroke:black; " class="clusterblast-orf" id="dummy-2_h2_5_22" locus_tag="GR129_RS34240" points="395,85 400,80 412,80 412,90 400,90 395,85 " description="&lt;b&gt;GR129_RS34240&lt;/b&gt;&lt;br&gt;PAS domain-containing protein&lt;br&gt;Location: 7723473 - 7722535"  />
</g>
<g id="a2_0023"  >
<polygon style="fill:white; stroke-width:1; stroke:black; " class="clusterblast-orf" id="dummy-2_h2_5_23" locus_tag="GR129_RS34235" points="419,90 439,90 444,85 439,80 419,80 419,90 " description="&lt;b&gt;GR129_RS34235&lt;/b&gt;&lt;br&gt;ATP-grasp domain-containing protein&lt;br&gt;Location: 7722133 - 7720760"  />
</g>
<g id="a2_0024"  >
<polygon style="fill:white; stroke-width:1; stroke:black; " class="clusterblast-orf" id="dummy-2_h2_5_24" locus_tag="GR129_RS34230" points="444,90 476,90 481,85 476,80 444,80 444,90 " description="&lt;b&gt;GR129_RS34230&lt;/b&gt;&lt;br&gt;phosphoenolpyruvate synthase&lt;br&gt;Location: 7720763 - 7718751"  />
</g>
<g id="a2_0025"  >
<polygon style="fill:white; stroke-width:1; stroke:black; " class="clusterblast-orf" id="dummy-2_h2_5_25" locus_tag="GR129_RS34225" points="480,90 502,90 507,85 502,80 480,80 480,90 " description="&lt;b&gt;GR129_RS34225&lt;/b&gt;&lt;br&gt;MFS transporter&lt;br&gt;Location: 7718811 - 7717366"  />
</g>
<g id="a2_0026"  >
<polygon style="fill:white; stroke-width:1; stroke:black; " class="clusterblast-orf" id="dummy-2_h2_5_26" locus_tag="GR129_RS34220" points="514,90 539,90 544,85 539,80 514,80 514,90 " description="&lt;b&gt;GR129_RS34220&lt;/b&gt;&lt;br&gt;peptidase M4 family protein&lt;br&gt;Location: 7716987 - 7715344"  />
</g>
<g id="a2_0027"  >
<polygon style="fill:white; stroke-width:1; stroke:black; " class="clusterblast-orf" id="dummy-2_h2_5_27" locus_tag="GR129_RS34215" points="550,85 555,80 556,80 556,90 555,90 550,85 " description="&lt;b&gt;GR129_RS34215&lt;/b&gt;&lt;br&gt;hypothetical protein&lt;br&gt;Location: 7714987 - 7714688"  />
</g>
<g id="a2_0028"  >
<polygon style="fill:white; stroke-width:1; stroke:black; " class="clusterblast-orf" id="dummy-2_h2_5_28" locus_tag="GR129_RS34210" points="561,90 565,90 570,85 565,80 561,80 561,90 " description="&lt;b&gt;GR129_RS34210&lt;/b&gt;&lt;br&gt;hypothetical protein&lt;br&gt;Location: 7714442 - 7713906"  />
</g>
<g id="a2_0029"  >
<polygon style="fill:white; stroke-width:1; stroke:black; " class="clusterblast-orf" id="dummy-2_h2_5_29" locus_tag="GR129_RS34205" points="571,85 576,80 579,80 579,90 576,90 571,85 " description="&lt;b&gt;GR129_RS34205&lt;/b&gt;&lt;br&gt;helix-turn-helix transcriptional regulator&lt;br&gt;Location: 7713852 - 7713409"  />
</g>
<g id="a2_0030"  >
<polygon style="fill:white; stroke-width:1; stroke:black; " class="clusterblast-orf" id="dummy-2_h2_5_30" locus_tag="GR129_RS34200" points="592,90 595,90 600,85 595,80 592,80 592,90 " description="&lt;b&gt;GR129_RS34200&lt;/b&gt;&lt;br&gt;monooxygenase&lt;br&gt;Location: 7712737 - 7712276"  />
</g>
<g id="a2_0031"  >
<polygon style="fill:white; stroke-width:1; stroke:black; " class="clusterblast-orf" id="dummy-2_h2_5_31" locus_tag="GR129_RS34195" points="601,85 606,80 613,80 613,90 606,90 601,85 " description="&lt;b&gt;GR129_RS34195&lt;/b&gt;&lt;br&gt;1-acyl-sn-glycerol-3-phosphate acyltransferase&lt;br&gt;Location: 7712229 - 7711567"  />
</g>
<g id="a2_0032"  >
<polygon style="fill:white; stroke-width:1; stroke:black; " class="clusterblast-orf" id="dummy-2_h2_5_32" locus_tag="GR129_RS34185" points="622,85 627,80 668,80 668,90 627,90 622,85 " description="&lt;b&gt;GR129_RS34185&lt;/b&gt;&lt;br&gt;AMP-binding protein&lt;br&gt;Location: 7711096 - 7708580"  />
</g>
<g id="a2_0033"  >
<polygon style="fill:white; stroke-width:1; stroke:black; " class="clusterblast-orf" id="dummy-2_h2_5_33" locus_tag="GR129_RS34180" points="668,85 673,80 690,80 690,90 673,90 668,85 " description="&lt;b&gt;GR129_RS34180&lt;/b&gt;&lt;br&gt;acyl-protein synthase&lt;br&gt;Location: 7708583 - 7707417"  />
</g>
<g id="a2_0034"  >
<polygon style="fill:white; stroke-width:1; stroke:black; " class="clusterblast-orf" id="dummy-2_h2_5_34" locus_tag="GR129_RS34175" points="690,85 695,80 710,80 710,90 695,90 690,85 " description="&lt;b&gt;GR129_RS34175&lt;/b&gt;&lt;br&gt;GNAT family N-acetyltransferase&lt;br&gt;Location: 7707420 - 7706281"  />
</g>
<g id="a2_0035"  >
<polygon style="fill:white; stroke-width:1; stroke:black; " class="clusterblast-orf" id="dummy-2_h2_5_35" locus_tag="GR129_RS34170" points="710,85 715,80 736,80 736,90 715,90 710,85 " description="&lt;b&gt;GR129_RS34170&lt;/b&gt;&lt;br&gt;MFS transporter&lt;br&gt;Location: 7706284 - 7704914"  />
</g>
<g id="a2_0036"  >
<polygon style="fill:white; stroke-width:1; stroke:black; " class="clusterblast-orf" id="dummy-2_h2_5_36" locus_tag="GR129_RS34165" points="736,85 741,80 759,80 759,90 741,90 736,85 " description="&lt;b&gt;GR129_RS34165&lt;/b&gt;&lt;br&gt;phenylacetate--CoA ligase family protein&lt;br&gt;Location: 7704917 - 7703655"  />
</g>
<g id="a2_0037"  >
<polygon style="fill:white; stroke-width:1; stroke:black; " class="clusterblast-orf" id="dummy-2_h2_5_37" locus_tag="GR129_RS34160" points="769,90 775,90 780,85 775,80 769,80 769,90 " description="&lt;b&gt;GR129_RS34160&lt;/b&gt;&lt;br&gt;calcium sensor EFh&lt;br&gt;Location: 7703096 - 7702524"  />
</g>
</svg>
