<svg xmlns:xlink="http://www.w3.org/1999/xlink" version="1.1" y="0" height="350" xmlns="http://www.w3.org/2000/svg" preserveAspectRatio="none" x="0" width="800" viewBox="0 0 800 350"  >
<g label="Query sequence" class="clusterblast-cluster"  >
<text y="20" class="clusterblast-acc" x="5"  >
Query sequence</text>
<line style="stroke-width:1; stroke:grey; " y1="35" x1="10" y2="35" x2="778.0"  />
<polygon style="fill:white; stroke-width:1; stroke:black; " class="clusterblast-orf" id="knownclusterblast-2_q0_0_all" locus_tag="cds433694_434774" points="283,40 290,40 295,35 290,30 283,30 283,40 " description="&lt;b&gt;cds433694_434774&lt;/b&gt;&lt;br&gt;deoxyribodipyrimidine photolyase-related protein&lt;br&gt;Location: 433694 - 434774"  />
<polygon style="fill:white; stroke-width:1; stroke:black; " class="clusterblast-orf" id="knownclusterblast-2_q1_0_all" locus_tag="cds435274_437233" points="301,35 306,30 323,30 323,40 306,40 301,35 " description="&lt;b&gt;cds435274_437233&lt;/b&gt;&lt;br&gt;phi-Carotenoid synthase (EC 1.3.-.- and EC 2.1.1-)&lt;br&gt;Location: 435274 - 437233"  />
<polygon style="fill:#d81515; stroke-width:1; stroke:black; " class="clusterblast-orf" id="knownclusterblast-2_q2_0_all" locus_tag="cds437477_438152" points="326,35 331,30 334,30 334,40 331,40 326,35 " description="&lt;b&gt;cds437477_438152&lt;/b&gt;&lt;br&gt;CrtT-methyltransferase-like protein&lt;br&gt;Location: 437477 - 438152"  />
<polygon style="fill:white; stroke-width:1; stroke:black; " class="clusterblast-orf" id="knownclusterblast-2_q3_0_all" locus_tag="cds438537_438795" points="338,40 341,35 338,30 338,40 " description="&lt;b&gt;cds438537_438795&lt;/b&gt;&lt;br&gt;hypothetical protein&lt;br&gt;Location: 438537 - 438795"  />
<polygon style="fill:white; stroke-width:1; stroke:black; " class="clusterblast-orf" id="knownclusterblast-2_q4_0_all" locus_tag="cds439084_440071" points="345,40 351,40 356,35 351,30 345,30 345,40 " description="&lt;b&gt;cds439084_440071&lt;/b&gt;&lt;br&gt;hypothetical protein&lt;br&gt;Location: 439084 - 440071"  />
<polygon style="fill:#15d863; stroke-width:1; stroke:black; " class="clusterblast-orf" id="knownclusterblast-2_q5_0_all" locus_tag="cds440126_440333" points="356,40 359,35 356,30 356,40 " description="&lt;b&gt;cds440126_440333&lt;/b&gt;&lt;br&gt;Octaprenyl-diphosphate synthase (EC 2.5.1.-) / Dimethylallyltransferase (EC 2.5.1.1) / Geranyltranstransferase (farnesyldiphosphate synthase) (EC 2.5.1.10) / Geranylgeranyl pyrophosphate synthetase (EC 2.5.1.29)&lt;br&gt;Location: 440126 - 440333"  />
<polygon style="fill:#15d863; stroke-width:1; stroke:black; " class="clusterblast-orf" id="knownclusterblast-2_q6_0_all" locus_tag="cds440412_441756" points="360,40 370,40 375,35 370,30 360,30 360,40 " description="&lt;b&gt;cds440412_441756&lt;/b&gt;&lt;br&gt;Geranylgeranyl diphosphate synthase (EC 2.5.1.29)&lt;br&gt;Location: 440412 - 441756"  />
<polygon style="fill:#1563d8; stroke-width:1; stroke:black; " class="clusterblast-orf" id="knownclusterblast-2_q7_0_all" locus_tag="cds441707_442781" points="375,40 382,40 387,35 382,30 375,30 375,40 " description="&lt;b&gt;cds441707_442781&lt;/b&gt;&lt;br&gt;Squalene/phytoene desaturase HopC&lt;br&gt;Location: 441707 - 442781"  />
<polygon style="fill:white; stroke-width:1; stroke:black; " class="clusterblast-orf" id="knownclusterblast-2_q8_0_all" locus_tag="cds442833_443112" points="387,35 391,30 391,40 387,35 " description="&lt;b&gt;cds442833_443112&lt;/b&gt;&lt;br&gt;hypothetical protein&lt;br&gt;Location: 442833 - 443112"  />
<polygon style="fill:#b115d8; stroke-width:1; stroke:black; " class="clusterblast-orf" id="knownclusterblast-2_q9_0_all" locus_tag="cds443353_443869" points="393,40 394,40 399,35 394,30 393,30 393,40 " description="&lt;b&gt;cds443353_443869&lt;/b&gt;&lt;br&gt;Phytoene synthase (EC 2.5.1.32)&lt;br&gt;Location: 443353 - 443869"  />
<polygon style="fill:#b1d815; stroke-width:1; stroke:black; " class="clusterblast-orf" id="knownclusterblast-2_q10_0_all" locus_tag="cds443865_444201" points="399,40 403,35 399,30 399,40 " description="&lt;b&gt;cds443865_444201&lt;/b&gt;&lt;br&gt;CrtV-methyltransferase-like protein&lt;br&gt;Location: 443865 - 444201"  />
<polygon style="fill:white; stroke-width:1; stroke:black; " class="clusterblast-orf" id="knownclusterblast-2_q11_0_all" locus_tag="cds444495_445695" points="406,35 411,30 420,30 420,40 411,40 406,35 " description="&lt;b&gt;cds444495_445695&lt;/b&gt;&lt;br&gt;Spore photoproduct lyase (EC 4.1.99.14)&lt;br&gt;Location: 444495 - 445695"  />
<polygon style="fill:white; stroke-width:1; stroke:black; " class="clusterblast-orf" id="knownclusterblast-2_q12_0_all" locus_tag="cds445832_446456" points="422,40 424,40 429,35 424,30 422,30 422,40 " description="&lt;b&gt;cds445832_446456&lt;/b&gt;&lt;br&gt;hypothetical protein&lt;br&gt;Location: 445832 - 446456"  />
<polygon style="fill:white; stroke-width:1; stroke:black; " class="clusterblast-orf" id="knownclusterblast-2_q13_0_all" locus_tag="cds446788_447538" points="433,35 438,30 441,30 441,40 438,40 433,35 " description="&lt;b&gt;cds446788_447538&lt;/b&gt;&lt;br&gt;RNA polymerase ECF-type sigma factor&lt;br&gt;Location: 446788 - 447538"  />
<polygon style="fill:white; stroke-width:1; stroke:black; " class="clusterblast-orf" id="knownclusterblast-2_q14_0_all" locus_tag="cds447564_448407" points="441,40 446,40 451,35 446,30 441,30 441,40 " description="&lt;b&gt;cds447564_448407&lt;/b&gt;&lt;br&gt;hypothetical protein&lt;br&gt;Location: 447564 - 448407"  />
<polygon style="fill:white; stroke-width:1; stroke:black; " class="clusterblast-orf" id="knownclusterblast-2_q15_0_all" locus_tag="cds448653_448941" points="454,40 457,35 454,30 454,40 " description="&lt;b&gt;cds448653_448941&lt;/b&gt;&lt;br&gt;hypothetical protein&lt;br&gt;Location: 448653 - 448941"  />
<polygon style="fill:white; stroke-width:1; stroke:black; " class="clusterblast-orf" id="knownclusterblast-2_q16_0_all" locus_tag="cds448950_449136" points="457,40 459,35 457,30 457,40 " description="&lt;b&gt;cds448950_449136&lt;/b&gt;&lt;br&gt;Ribonuclease J2 (endoribonuclease in RNA processing)&lt;br&gt;Location: 448950 - 449136"  />
<polygon style="fill:white; stroke-width:1; stroke:black; " class="clusterblast-orf" id="knownclusterblast-2_q17_0_all" locus_tag="cds449096_449612" points="459,40 460,40 465,35 460,30 459,30 459,40 " description="&lt;b&gt;cds449096_449612&lt;/b&gt;&lt;br&gt;Ribonuclease J2 (endoribonuclease in RNA processing)&lt;br&gt;Location: 449096 - 449612"  />
<polygon style="fill:white; stroke-width:1; stroke:black; " class="clusterblast-orf" id="knownclusterblast-2_q18_0_all" locus_tag="cds449679_449925" points="466,40 468,35 466,30 466,40 " description="&lt;b&gt;cds449679_449925&lt;/b&gt;&lt;br&gt;Ribonuclease J2 (endoribonuclease in RNA processing)&lt;br&gt;Location: 449679 - 449925"  />
<polygon style="fill:white; stroke-width:1; stroke:black; " class="clusterblast-orf" id="knownclusterblast-2_q19_0_all" locus_tag="cds449885_450629" points="468,40 472,40 477,35 472,30 468,30 468,40 " description="&lt;b&gt;cds449885_450629&lt;/b&gt;&lt;br&gt;Ribonuclease J (endonuclease and 5' exonuclease)&lt;br&gt;Location: 449885 - 450629"  />
<polygon style="fill:white; stroke-width:1; stroke:black; " class="clusterblast-orf" id="knownclusterblast-2_q20_0_all" locus_tag="cds450726_451155" points="478,40 478,40 483,35 478,30 478,30 478,40 " description="&lt;b&gt;cds450726_451155&lt;/b&gt;&lt;br&gt;hypothetical protein&lt;br&gt;Location: 450726 - 451155"  />
<polygon style="fill:white; stroke-width:1; stroke:black; " class="clusterblast-orf" id="knownclusterblast-2_q21_0_all" locus_tag="cds451144_451801" points="482,40 485,40 490,35 485,30 482,30 482,40 " description="&lt;b&gt;cds451144_451801&lt;/b&gt;&lt;br&gt;hypothetical protein&lt;br&gt;Location: 451144 - 451801"  />
<polygon style="fill:white; stroke-width:1; stroke:black; " class="clusterblast-orf" id="knownclusterblast-2_q22_0_all" locus_tag="cds452169_452361" points="494,40 496,35 494,30 494,40 " description="&lt;b&gt;cds452169_452361&lt;/b&gt;&lt;br&gt;hypothetical protein&lt;br&gt;Location: 452169 - 452361"  />
</g>
<g label="BGC0000633" class="clusterblast-cluster" description="BGC0000633_c1: carotenoid (45% of genes show similarity), Terpene"  >
<text y="70" class="clusterblast-acc" x="5"  >
<a xlink:href="https://mibig.secondarymetabolites.org/go/BGC0000633/1" target="_blank">BGC0000633</a>:                                                                       carotenoid (45% of genes show similarity), Terpene</text>
<line style="stroke-width:1; stroke:grey; " y1="85" x1="10" y2="85" x2="778.0"  />
</g>
<g id="a2_000"  >
<polygon style="fill:white; stroke-width:1; stroke:black; " class="clusterblast-orf" id="knownclusterblast-2_all_2_1_0" locus_tag="BAB69138.1" points="308,90 312,85 308,80 308,90 " description="&lt;b&gt;BAB69138.1&lt;/b&gt;&lt;br&gt;hypothetical protein&lt;br&gt;Location: 1 - 363"  />
</g>
<g id="a2_001"  >
<polygon style="fill:white; stroke-width:1; stroke:black; " class="clusterblast-orf" id="knownclusterblast-2_all_2_1_1" locus_tag="BAB69139.1" points="313,85 318,80 319,80 319,90 318,90 313,85 " description="&lt;b&gt;BAB69139.1&lt;/b&gt;&lt;br&gt;integral membrane protein&lt;br&gt;Location: 419 - 967"  />
</g>
<g id="a2_002"  >
<polygon style="fill:white; stroke-width:1; stroke:black; " class="clusterblast-orf" id="knownclusterblast-2_all_2_1_2" locus_tag="BAB69140.1" points="321,85 326,80 338,80 338,90 326,90 321,85 " description="&lt;b&gt;BAB69140.1&lt;/b&gt;&lt;br&gt;phytoene desaturase&lt;br&gt;Location: 1122 - 2624"  />
</g>
<g id="a2_003"  >
<polygon style="fill:#d81515; stroke-width:1; stroke:black; " class="clusterblast-orf" id="knownclusterblast-2_all_2_1_3" locus_tag="BAB69141.1" points="338,85 343,80 347,80 347,90 343,90 338,85 " description="&lt;b&gt;BAB69141.1&lt;/b&gt;&lt;br&gt;methyltransferase&lt;br&gt;Location: 2678 - 3409&lt;br&gt;&lt;br&gt;&lt;b&gt;BlastP hit with cds437477_438152&lt;/b&gt;&lt;br&gt;Percentage identity: 74&lt;br&gt;Percentage coverage: 56&lt;br&gt;BLAST bit score: 199&lt;br&gt;E-value: 5.1e-51"  />
</g>
<g id="a2_004"  >
<polygon style="fill:white; stroke-width:1; stroke:black; " class="clusterblast-orf" id="knownclusterblast-2_all_2_1_4" locus_tag="BAB69142.1" points="347,85 352,80 363,80 363,90 352,90 347,85 " description="&lt;b&gt;BAB69142.1&lt;/b&gt;&lt;br&gt;lycopene cyclase&lt;br&gt;Location: 3453 - 4799"  />
</g>
<g id="a2_005"  >
<polygon style="fill:#15d863; stroke-width:1; stroke:black; " class="clusterblast-orf" id="knownclusterblast-2_all_2_1_5" locus_tag="BAB69143.1" points="366,90 374,90 379,85 374,80 366,80 366,90 " description="&lt;b&gt;BAB69143.1&lt;/b&gt;&lt;br&gt;geranylgeranyl pyrophosphase synthase&lt;br&gt;Location: 5061 - 6200&lt;br&gt;&lt;br&gt;&lt;b&gt;BlastP hit with cds440126_440333&lt;/b&gt;&lt;br&gt;Percentage identity: 64&lt;br&gt;Percentage coverage: 76&lt;br&gt;BLAST bit score: 66&lt;br&gt;E-value: 1.6e-11&lt;br&gt;&lt;br&gt;&lt;b&gt;BlastP hit with cds440412_441756&lt;/b&gt;&lt;br&gt;Percentage identity: 47&lt;br&gt;Percentage coverage: 64&lt;br&gt;BLAST bit score: 154&lt;br&gt;E-value: 3.8e-37"  />
</g>
<g id="a2_006"  >
<polygon style="fill:#1563d8; stroke-width:1; stroke:black; " class="clusterblast-orf" id="knownclusterblast-2_all_2_1_6" locus_tag="BAB69144.1" points="379,90 391,90 396,85 391,80 379,80 379,90 " description="&lt;b&gt;BAB69144.1&lt;/b&gt;&lt;br&gt;phytoene synthase&lt;br&gt;Location: 6197 - 7738&lt;br&gt;&lt;br&gt;&lt;b&gt;BlastP hit with cds441707_442781&lt;/b&gt;&lt;br&gt;Percentage identity: 71&lt;br&gt;Percentage coverage: 68&lt;br&gt;BLAST bit score: 316&lt;br&gt;E-value: 6e-86"  />
</g>
<g id="a2_007"  >
<polygon style="fill:#b115d8; stroke-width:1; stroke:black; " class="clusterblast-orf" id="knownclusterblast-2_all_2_1_7" locus_tag="BAB69145.1" points="396,90 403,90 408,85 403,80 396,80 396,90 " description="&lt;b&gt;BAB69145.1&lt;/b&gt;&lt;br&gt;phytoene synthase&lt;br&gt;Location: 7735 - 8763&lt;br&gt;&lt;br&gt;&lt;b&gt;BlastP hit with cds443353_443869&lt;/b&gt;&lt;br&gt;Percentage identity: 78&lt;br&gt;Percentage coverage: 63&lt;br&gt;BLAST bit score: 173&lt;br&gt;E-value: 2.3e-43"  />
</g>
<g id="a2_008"  >
<polygon style="fill:#b1d815; stroke-width:1; stroke:black; " class="clusterblast-orf" id="knownclusterblast-2_all_2_1_8" locus_tag="BAB69146.1" points="408,90 415,90 420,85 415,80 408,80 408,90 " description="&lt;b&gt;BAB69146.1&lt;/b&gt;&lt;br&gt;methyltransferase&lt;br&gt;Location: 8760 - 9839&lt;br&gt;&lt;br&gt;&lt;b&gt;BlastP hit with cds443865_444201&lt;/b&gt;&lt;br&gt;Percentage identity: 73&lt;br&gt;Percentage coverage: 94&lt;br&gt;BLAST bit score: 154&lt;br&gt;E-value: 1.2e-37"  />
</g>
<g id="a2_009"  >
<polygon style="fill:white; stroke-width:1; stroke:black; " class="clusterblast-orf" id="knownclusterblast-2_all_2_1_9" locus_tag="BAB69147.1" points="423,85 428,80 447,80 447,90 428,90 423,85 " description="&lt;b&gt;BAB69147.1&lt;/b&gt;&lt;br&gt;secreted protein&lt;br&gt;Location: 10060 - 12159"  />
</g>
<g id="a2_0010"  >
<polygon style="fill:white; stroke-width:1; stroke:black; " class="clusterblast-orf" id="knownclusterblast-2_all_2_1_10" locus_tag="BAB69148.1" points="448,85 453,80 471,80 471,90 453,90 448,85 " description="&lt;b&gt;BAB69148.1&lt;/b&gt;&lt;br&gt;beta-galactosidase&lt;br&gt;Location: 12242 - 14284"  />
</g>
<g label="BGC0001456" class="clusterblast-cluster" description="BGC0001456_c1: isorenieratene (62% of genes show similarity), Terpene"  >
<text y="120" class="clusterblast-acc" x="5"  >
<a xlink:href="https://mibig.secondarymetabolites.org/go/BGC0001456/1" target="_blank">BGC0001456</a>:                                                                   isorenieratene (62% of genes show similarity), Terpene</text>
<line style="stroke-width:1; stroke:grey; " y1="135" x1="10" y2="135" x2="778.0"  />
</g>
<g id="a2_000"  >
<polygon style="fill:white; stroke-width:1; stroke:black; " class="clusterblast-orf" id="knownclusterblast-2_all_2_2_0" locus_tag="crtaU" points="334,135 339,130 352,130 352,140 339,140 334,135 " description="&lt;b&gt;crtaU&lt;/b&gt;&lt;br&gt;isorenieratene synthase&lt;br&gt;Location: 9777 - 8149"  />
</g>
<g id="a2_001"  >
<polygon style="fill:#d81515; stroke-width:1; stroke:black; " class="clusterblast-orf" id="knownclusterblast-2_all_2_2_1" locus_tag="crtaT" points="352,135 357,130 361,130 361,140 357,140 352,135 " description="&lt;b&gt;crtaT&lt;/b&gt;&lt;br&gt;methyltransferase&lt;br&gt;Location: 8152 - 7418&lt;br&gt;&lt;br&gt;&lt;b&gt;BlastP hit with cds437477_438152&lt;/b&gt;&lt;br&gt;Percentage identity: 76&lt;br&gt;Percentage coverage: 59&lt;br&gt;BLAST bit score: 204&lt;br&gt;E-value: 1.6e-52"  />
</g>
<g id="a2_002"  >
<polygon style="fill:white; stroke-width:1; stroke:black; " class="clusterblast-orf" id="knownclusterblast-2_all_2_2_2" locus_tag="crtaY" points="361,135 366,130 375,130 375,140 366,140 361,135 " description="&lt;b&gt;crtaY&lt;/b&gt;&lt;br&gt;lycopene cyclase&lt;br&gt;Location: 7362 - 6172"  />
</g>
<g id="a2_003"  >
<polygon style="fill:white; stroke-width:1; stroke:black; " class="clusterblast-orf" id="knownclusterblast-2_all_2_2_3" locus_tag="crtaQ" points="378,135 383,130 385,130 385,140 383,140 378,135 " description="&lt;b&gt;crtaQ&lt;/b&gt;&lt;br&gt;RNA polymerase, sigma-24 subunit&lt;br&gt;Location: 5930 - 5310"  />
</g>
<g id="a2_004"  >
<polygon style="fill:#15d863; stroke-width:1; stroke:black; " class="clusterblast-orf" id="knownclusterblast-2_all_2_2_4" locus_tag="crtaE" points="389,140 399,140 404,135 399,130 389,130 389,140 " description="&lt;b&gt;crtaE&lt;/b&gt;&lt;br&gt;geranylgeranyl pyrophosphate synthase&lt;br&gt;Location: 4974 - 3583&lt;br&gt;&lt;br&gt;&lt;b&gt;BlastP hit with cds440126_440333&lt;/b&gt;&lt;br&gt;Percentage identity: 56&lt;br&gt;Percentage coverage: 93&lt;br&gt;BLAST bit score: 71&lt;br&gt;E-value: 8.3e-13&lt;br&gt;&lt;br&gt;&lt;b&gt;BlastP hit with cds440412_441756&lt;/b&gt;&lt;br&gt;Percentage identity: 46&lt;br&gt;Percentage coverage: 61&lt;br&gt;BLAST bit score: 163&lt;br&gt;E-value: 1.1e-39"  />
</g>
<g id="a2_005"  >
<polygon style="fill:#1563d8; stroke-width:1; stroke:black; " class="clusterblast-orf" id="knownclusterblast-2_all_2_2_5" locus_tag="crtaI" points="404,140 417,140 422,135 417,130 404,130 404,140 " description="&lt;b&gt;crtaI&lt;/b&gt;&lt;br&gt;phytoene desaturase&lt;br&gt;Location: 3586 - 2042&lt;br&gt;&lt;br&gt;&lt;b&gt;BlastP hit with cds441707_442781&lt;/b&gt;&lt;br&gt;Percentage identity: 70&lt;br&gt;Percentage coverage: 68&lt;br&gt;BLAST bit score: 314&lt;br&gt;E-value: 2.3e-85"  />
</g>
<g id="a2_006"  >
<polygon style="fill:#b115d8; stroke-width:1; stroke:black; " class="clusterblast-orf" id="knownclusterblast-2_all_2_2_6" locus_tag="crtaB" points="422,140 429,140 434,135 429,130 422,130 422,140 " description="&lt;b&gt;crtaB&lt;/b&gt;&lt;br&gt;phytoene / squalene synthase&lt;br&gt;Location: 2045 - 1014&lt;br&gt;&lt;br&gt;&lt;b&gt;BlastP hit with cds443353_443869&lt;/b&gt;&lt;br&gt;Percentage identity: 74&lt;br&gt;Percentage coverage: 53&lt;br&gt;BLAST bit score: 144&lt;br&gt;E-value: 1.9e-34"  />
</g>
<g id="a2_007"  >
<polygon style="fill:#b1d815; stroke-width:1; stroke:black; " class="clusterblast-orf" id="knownclusterblast-2_all_2_2_7" locus_tag="crtaV" points="434,140 440,140 445,135 440,130 434,130 434,140 " description="&lt;b&gt;crtaV&lt;/b&gt;&lt;br&gt;2Fe-2S ferredoxin&lt;br&gt;Location: 1017 - 1&lt;br&gt;&lt;br&gt;&lt;b&gt;BlastP hit with cds443865_444201&lt;/b&gt;&lt;br&gt;Percentage identity: 78&lt;br&gt;Percentage coverage: 94&lt;br&gt;BLAST bit score: 162&lt;br&gt;E-value: 4.5e-40"  />
</g>
<g label="BGC0001227" class="clusterblast-cluster" description="BGC0001227_c1: isorenieratene (36% of genes show similarity), Terpene"  >
<text y="170" class="clusterblast-acc" x="5"  >
<a xlink:href="https://mibig.secondarymetabolites.org/go/BGC0001227/1" target="_blank">BGC0001227</a>:                                                                   isorenieratene (36% of genes show similarity), Terpene</text>
<line style="stroke-width:1; stroke:grey; " y1="185" x1="10" y2="185" x2="778.0"  />
</g>
<g id="a2_000"  >
<polygon style="fill:white; stroke-width:1; stroke:black; " class="clusterblast-orf" id="knownclusterblast-2_all_2_3_0" locus_tag="B446_02770" points="320,190 327,190 332,185 327,180 320,180 320,190 " description="&lt;b&gt;B446_02770&lt;/b&gt;&lt;br&gt;putative regulatory protein&lt;br&gt;Location: 12144 - 11074"  />
</g>
<g id="a2_001"  >
<polygon style="fill:white; stroke-width:1; stroke:black; " class="clusterblast-orf" id="knownclusterblast-2_all_2_3_1" locus_tag="B446_02765" points="331,185 336,180 338,180 338,190 336,190 331,185 " description="&lt;b&gt;B446_02765&lt;/b&gt;&lt;br&gt;hypothetical protein&lt;br&gt;Location: 11170 - 10586"  />
</g>
<g id="a2_002"  >
<polygon style="fill:white; stroke-width:1; stroke:black; " class="clusterblast-orf" id="knownclusterblast-2_all_2_3_2" locus_tag="B446_02760" points="338,185 343,180 346,180 346,190 343,190 338,185 " description="&lt;b&gt;B446_02760&lt;/b&gt;&lt;br&gt;transcriptional regulator&lt;br&gt;Location: 10559 - 9843"  />
</g>
<g id="a2_003"  >
<polygon style="fill:white; stroke-width:1; stroke:black; " class="clusterblast-orf" id="knownclusterblast-2_all_2_3_3" locus_tag="B446_02755" points="348,185 353,180 357,180 357,190 353,190 348,185 " description="&lt;b&gt;B446_02755&lt;/b&gt;&lt;br&gt;hypothetical protein&lt;br&gt;Location: 9736 - 8897"  />
</g>
<g id="a2_004"  >
<polygon style="fill:white; stroke-width:1; stroke:black; " class="clusterblast-orf" id="knownclusterblast-2_all_2_3_4" locus_tag="B446_02750" points="358,185 363,180 376,180 376,190 363,190 358,185 " description="&lt;b&gt;B446_02750&lt;/b&gt;&lt;br&gt;beta-carotene desaturase/methylase&lt;br&gt;Location: 8856 - 7222"  />
</g>
<g id="a2_005"  >
<polygon style="fill:#d81515; stroke-width:1; stroke:black; " class="clusterblast-orf" id="knownclusterblast-2_all_2_3_5" locus_tag="B446_02745" points="376,185 381,180 385,180 385,190 381,190 376,185 " description="&lt;b&gt;B446_02745&lt;/b&gt;&lt;br&gt;methyltransferase&lt;br&gt;Location: 7225 - 6491&lt;br&gt;&lt;br&gt;&lt;b&gt;BlastP hit with cds437477_438152&lt;/b&gt;&lt;br&gt;Percentage identity: 71&lt;br&gt;Percentage coverage: 62&lt;br&gt;BLAST bit score: 205&lt;br&gt;E-value: 1.2e-52"  />
</g>
<g id="a2_006"  >
<polygon style="fill:white; stroke-width:1; stroke:black; " class="clusterblast-orf" id="knownclusterblast-2_all_2_3_6" locus_tag="B446_02740" points="387,185 392,180 401,180 401,190 392,190 387,185 " description="&lt;b&gt;B446_02740&lt;/b&gt;&lt;br&gt;lycopene cyclase&lt;br&gt;Location: 6279 - 5083"  />
</g>
<g id="a2_007"  >
<polygon style="fill:white; stroke-width:1; stroke:black; " class="clusterblast-orf" id="knownclusterblast-2_all_2_3_7" locus_tag="B446_02735" points="404,190 413,190 418,185 413,180 404,180 404,190 " description="&lt;b&gt;B446_02735&lt;/b&gt;&lt;br&gt;polyprenyl diphosphate synthase&lt;br&gt;Location: 4836 - 3565"  />
</g>
<g id="a2_008"  >
<polygon style="fill:#1563d8; stroke-width:1; stroke:black; " class="clusterblast-orf" id="knownclusterblast-2_all_2_3_8" locus_tag="B446_02730" points="419,190 431,190 436,185 431,180 419,180 419,190 " description="&lt;b&gt;B446_02730&lt;/b&gt;&lt;br&gt;phytoene desaturase&lt;br&gt;Location: 3532 - 2030&lt;br&gt;&lt;br&gt;&lt;b&gt;BlastP hit with cds441707_442781&lt;/b&gt;&lt;br&gt;Percentage identity: 64&lt;br&gt;Percentage coverage: 68&lt;br&gt;BLAST bit score: 289&lt;br&gt;E-value: 1e-77"  />
</g>
<g id="a2_009"  >
<polygon style="fill:#b115d8; stroke-width:1; stroke:black; " class="clusterblast-orf" id="knownclusterblast-2_all_2_3_9" locus_tag="B446_02725" points="436,190 442,190 447,185 442,180 436,180 436,190 " description="&lt;b&gt;B446_02725&lt;/b&gt;&lt;br&gt;phytoene synthase&lt;br&gt;Location: 2033 - 1017&lt;br&gt;&lt;br&gt;&lt;b&gt;BlastP hit with cds443353_443869&lt;/b&gt;&lt;br&gt;Percentage identity: 73&lt;br&gt;Percentage coverage: 63&lt;br&gt;BLAST bit score: 159&lt;br&gt;E-value: 5.8e-39"  />
</g>
<g id="a2_0010"  >
<polygon style="fill:#b1d815; stroke-width:1; stroke:black; " class="clusterblast-orf" id="knownclusterblast-2_all_2_3_10" locus_tag="B446_02720" points="447,190 454,190 459,185 454,180 447,180 447,190 " description="&lt;b&gt;B446_02720&lt;/b&gt;&lt;br&gt;iron-sulfur protein&lt;br&gt;Location: 1020 - 1&lt;br&gt;&lt;br&gt;&lt;b&gt;BlastP hit with cds443865_444201&lt;/b&gt;&lt;br&gt;Percentage identity: 71&lt;br&gt;Percentage coverage: 95&lt;br&gt;BLAST bit score: 155&lt;br&gt;E-value: 5.5e-38"  />
</g>
<g label="BGC0000664" class="clusterblast-cluster" description="BGC0000664_c1: isorenieratene (57% of genes show similarity), Terpene"  >
<text y="220" class="clusterblast-acc" x="5"  >
<a xlink:href="https://mibig.secondarymetabolites.org/go/BGC0000664/1" target="_blank">BGC0000664</a>:                                                                   isorenieratene (57% of genes show similarity), Terpene</text>
<line style="stroke-width:1; stroke:grey; " y1="235" x1="10" y2="235" x2="778.0"  />
</g>
<g id="a2_000"  >
<polygon style="fill:white; stroke-width:1; stroke:black; " class="clusterblast-orf" id="knownclusterblast-2_all_2_4_0" locus_tag="SGR_6830" points="342,240 351,240 356,235 351,230 342,230 342,240 " description="&lt;b&gt;SGR_6830&lt;/b&gt;&lt;br&gt;putative geranylgeranyl pyrophosphate synthase&lt;br&gt;Location: 8391 - 7114"  />
</g>
<g id="a2_001"  >
<polygon style="fill:#1563d8; stroke-width:1; stroke:black; " class="clusterblast-orf" id="knownclusterblast-2_all_2_4_1" locus_tag="SGR_6829" points="356,240 369,240 374,235 369,230 356,230 356,240 " description="&lt;b&gt;SGR_6829&lt;/b&gt;&lt;br&gt;putative phytoene dehydrogenase&lt;br&gt;Location: 7117 - 5594&lt;br&gt;&lt;br&gt;&lt;b&gt;BlastP hit with cds441707_442781&lt;/b&gt;&lt;br&gt;Percentage identity: 68&lt;br&gt;Percentage coverage: 68&lt;br&gt;BLAST bit score: 303&lt;br&gt;E-value: 4e-82"  />
</g>
<g id="a2_002"  >
<polygon style="fill:#b115d8; stroke-width:1; stroke:black; " class="clusterblast-orf" id="knownclusterblast-2_all_2_4_2" locus_tag="SGR_6828" points="373,240 380,240 385,235 380,230 373,230 373,240 " description="&lt;b&gt;SGR_6828&lt;/b&gt;&lt;br&gt;putative phytoene synthase&lt;br&gt;Location: 5597 - 4569&lt;br&gt;&lt;br&gt;&lt;b&gt;BlastP hit with cds443353_443869&lt;/b&gt;&lt;br&gt;Percentage identity: 62&lt;br&gt;Percentage coverage: 63&lt;br&gt;BLAST bit score: 138&lt;br&gt;E-value: 1.1e-32"  />
</g>
<g id="a2_003"  >
<polygon style="fill:#b1d815; stroke-width:1; stroke:black; " class="clusterblast-orf" id="knownclusterblast-2_all_2_4_3" locus_tag="SGR_6827" points="385,240 392,240 397,235 392,230 385,230 385,240 " description="&lt;b&gt;SGR_6827&lt;/b&gt;&lt;br&gt;putative methylesterase&lt;br&gt;Location: 4572 - 3556&lt;br&gt;&lt;br&gt;&lt;b&gt;BlastP hit with cds443865_444201&lt;/b&gt;&lt;br&gt;Percentage identity: 65&lt;br&gt;Percentage coverage: 94&lt;br&gt;BLAST bit score: 142&lt;br&gt;E-value: 3.7e-34"  />
</g>
<g id="a2_004"  >
<polygon style="fill:white; stroke-width:1; stroke:black; " class="clusterblast-orf" id="knownclusterblast-2_all_2_4_4" locus_tag="SGR_6826" points="397,235 402,230 415,230 415,240 402,240 397,235 " description="&lt;b&gt;SGR_6826&lt;/b&gt;&lt;br&gt;putative beta-carotene desaturase/methylase&lt;br&gt;Location: 3520 - 1964"  />
</g>
<g id="a2_005"  >
<polygon style="fill:#d81515; stroke-width:1; stroke:black; " class="clusterblast-orf" id="knownclusterblast-2_all_2_4_5" locus_tag="SGR_6825" points="415,235 420,230 423,230 423,240 420,240 415,235 " description="&lt;b&gt;SGR_6825&lt;/b&gt;&lt;br&gt;putative methyltransferase&lt;br&gt;Location: 1967 - 1239&lt;br&gt;&lt;br&gt;&lt;b&gt;BlastP hit with cds437477_438152&lt;/b&gt;&lt;br&gt;Percentage identity: 63&lt;br&gt;Percentage coverage: 56&lt;br&gt;BLAST bit score: 161&lt;br&gt;E-value: 1.2e-39"  />
</g>
<g id="a2_006"  >
<polygon style="fill:white; stroke-width:1; stroke:black; " class="clusterblast-orf" id="knownclusterblast-2_all_2_4_6" locus_tag="SGR_6824" points="423,235 428,230 437,230 437,240 428,240 423,235 " description="&lt;b&gt;SGR_6824&lt;/b&gt;&lt;br&gt;putative lycopene cyclase&lt;br&gt;Location: 1242 - 1"  />
</g>
<g label="BGC0000649" class="clusterblast-cluster" description="BGC0000649_c1: carotenoid (50% of genes show similarity), Terpene"  >
<text y="270" class="clusterblast-acc" x="5"  >
<a xlink:href="https://mibig.secondarymetabolites.org/go/BGC0000649/1" target="_blank">BGC0000649</a>:                                                                       carotenoid (50% of genes show similarity), Terpene</text>
<line style="stroke-width:1; stroke:grey; " y1="285" x1="10" y2="285" x2="778.0"  />
</g>
<g id="a2_000"  >
<polygon style="fill:white; stroke-width:1; stroke:black; " class="clusterblast-orf" id="knownclusterblast-2_all_2_5_0" locus_tag="AAG28698.1" points="329,290 342,290 347,285 342,280 329,280 329,290 " description="&lt;b&gt;AAG28698.1&lt;/b&gt;&lt;br&gt;FadD&lt;br&gt;Location: 149 - 1771"  />
</g>
<g id="a2_001"  >
<polygon style="fill:white; stroke-width:1; stroke:black; " class="clusterblast-orf" id="knownclusterblast-2_all_2_5_1" locus_tag="AAG28699.1" points="354,290 364,290 369,285 364,280 354,280 354,290 " description="&lt;b&gt;AAG28699.1&lt;/b&gt;&lt;br&gt;CrtE&lt;br&gt;Location: 2343 - 3620"  />
</g>
<g id="a2_002"  >
<polygon style="fill:#1563d8; stroke-width:1; stroke:black; " class="clusterblast-orf" id="knownclusterblast-2_all_2_5_2" locus_tag="AAG28700.1" points="369,290 381,290 386,285 381,280 369,280 369,290 " description="&lt;b&gt;AAG28700.1&lt;/b&gt;&lt;br&gt;CrtI&lt;br&gt;Location: 3617 - 5140&lt;br&gt;&lt;br&gt;&lt;b&gt;BlastP hit with cds441707_442781&lt;/b&gt;&lt;br&gt;Percentage identity: 67&lt;br&gt;Percentage coverage: 68&lt;br&gt;BLAST bit score: 302&lt;br&gt;E-value: 1.2e-81"  />
</g>
<g id="a2_003"  >
<polygon style="fill:#b115d8; stroke-width:1; stroke:black; " class="clusterblast-orf" id="knownclusterblast-2_all_2_5_3" locus_tag="AAG28701.1" points="386,290 393,290 398,285 393,280 386,280 386,290 " description="&lt;b&gt;AAG28701.1&lt;/b&gt;&lt;br&gt;CrtB&lt;br&gt;Location: 5137 - 6165&lt;br&gt;&lt;br&gt;&lt;b&gt;BlastP hit with cds443353_443869&lt;/b&gt;&lt;br&gt;Percentage identity: 54&lt;br&gt;Percentage coverage: 62&lt;br&gt;BLAST bit score: 112&lt;br&gt;E-value: 6.3e-25"  />
</g>
<g id="a2_004"  >
<polygon style="fill:#b1d815; stroke-width:1; stroke:black; " class="clusterblast-orf" id="knownclusterblast-2_all_2_5_4" locus_tag="AAG28702.1" points="398,290 404,290 409,285 404,280 398,280 398,290 " description="&lt;b&gt;AAG28702.1&lt;/b&gt;&lt;br&gt;CrtV&lt;br&gt;Location: 6162 - 7178&lt;br&gt;&lt;br&gt;&lt;b&gt;BlastP hit with cds443865_444201&lt;/b&gt;&lt;br&gt;Percentage identity: 64&lt;br&gt;Percentage coverage: 94&lt;br&gt;BLAST bit score: 141&lt;br&gt;E-value: 1.1e-33"  />
</g>
<g id="a2_005"  >
<polygon style="fill:white; stroke-width:1; stroke:black; " class="clusterblast-orf" id="knownclusterblast-2_all_2_5_5" locus_tag="AAG28703.1" points="410,285 415,280 428,280 428,290 415,290 410,285 " description="&lt;b&gt;AAG28703.1&lt;/b&gt;&lt;br&gt;CrtU&lt;br&gt;Location: 7228 - 8781"  />
</g>
<g id="a2_006"  >
<polygon style="fill:#d81515; stroke-width:1; stroke:black; " class="clusterblast-orf" id="knownclusterblast-2_all_2_5_6" locus_tag="AAG28704.1" points="428,285 433,280 436,280 436,290 433,290 428,285 " description="&lt;b&gt;AAG28704.1&lt;/b&gt;&lt;br&gt;CrtT&lt;br&gt;Location: 8781 - 9509&lt;br&gt;&lt;br&gt;&lt;b&gt;BlastP hit with cds437477_438152&lt;/b&gt;&lt;br&gt;Percentage identity: 63&lt;br&gt;Percentage coverage: 56&lt;br&gt;BLAST bit score: 161&lt;br&gt;E-value: 2e-39"  />
</g>
<g id="a2_007"  >
<polygon style="fill:white; stroke-width:1; stroke:black; " class="clusterblast-orf" id="knownclusterblast-2_all_2_5_7" locus_tag="AAG28705.1" points="436,285 441,280 450,280 450,290 441,290 436,285 " description="&lt;b&gt;AAG28705.1&lt;/b&gt;&lt;br&gt;CrtY&lt;br&gt;Location: 9506 - 10747"  />
</g>
<g label="BGC0001702" class="clusterblast-cluster" description="BGC0001702_c1: nocamycin (7% of genes show similarity), NRP + Polyketide"  >
<text y="320" class="clusterblast-acc" x="5"  >
<a xlink:href="https://mibig.secondarymetabolites.org/go/BGC0001702/1" target="_blank">BGC0001702</a>:                                                                        nocamycin (7% of genes show similarity), NRP + Polyketide</text>
<line style="stroke-width:1; stroke:grey; " y1="335" x1="10" y2="335" x2="778.0"  />
</g>
<g id="a2_000"  >
<polygon style="fill:#b1d815; stroke-width:1; stroke:black; " class="clusterblast-orf" id="knownclusterblast-2_all_2_6_0" locus_tag="ARS01487.1" points="0,340 6,340 11,335 6,330 0,330 0,340 " description="&lt;b&gt;ARS01487.1&lt;/b&gt;&lt;br&gt;2Fe-2S ferredoxin&lt;br&gt;Location: 68204 - 67236&lt;br&gt;&lt;br&gt;&lt;b&gt;BlastP hit with cds443865_444201&lt;/b&gt;&lt;br&gt;Percentage identity: 56&lt;br&gt;Percentage coverage: 93&lt;br&gt;BLAST bit score: 116&lt;br&gt;E-value: 2.8e-26"  />
</g>
<g id="a2_001"  >
<polygon style="fill:#d81515; stroke-width:1; stroke:black; " class="clusterblast-orf" id="knownclusterblast-2_all_2_6_1" locus_tag="ARS01486.1" points="13,335 18,330 21,330 21,340 18,340 13,335 " description="&lt;b&gt;ARS01486.1&lt;/b&gt;&lt;br&gt;ubiquinone biosynthesis methyltransferase UbiE&lt;br&gt;Location: 67047 - 66349&lt;br&gt;&lt;br&gt;&lt;b&gt;BlastP hit with cds437477_438152&lt;/b&gt;&lt;br&gt;Percentage identity: 58&lt;br&gt;Percentage coverage: 58&lt;br&gt;BLAST bit score: 138&lt;br&gt;E-value: 1.1e-32"  />
</g>
<g id="a2_002"  >
<polygon style="fill:white; stroke-width:1; stroke:black; " class="clusterblast-orf" id="knownclusterblast-2_all_2_6_2" locus_tag="ARS01485.1" points="22,340 26,335 22,330 22,340 " description="&lt;b&gt;ARS01485.1&lt;/b&gt;&lt;br&gt;Ohr subfamily peroxiredoxin&lt;br&gt;Location: 66254 - 65862"  />
</g>
<g id="a2_003"  >
<polygon style="fill:white; stroke-width:1; stroke:black; " class="clusterblast-orf" id="knownclusterblast-2_all_2_6_3" locus_tag="ARS01484.1" points="29,335 34,330 36,330 36,340 34,340 29,335 " description="&lt;b&gt;ARS01484.1&lt;/b&gt;&lt;br&gt;NcmK&lt;br&gt;Location: 65655 - 65014"  />
</g>
<g id="a2_004"  >
<polygon style="fill:white; stroke-width:1; stroke:black; " class="clusterblast-orf" id="knownclusterblast-2_all_2_6_4" locus_tag="ARS01483.1" points="37,340 57,340 62,335 57,330 37,330 37,340 " description="&lt;b&gt;ARS01483.1&lt;/b&gt;&lt;br&gt;NcmJ&lt;br&gt;Location: 64915 - 62774"  />
</g>
<g id="a2_005"  >
<polygon style="fill:white; stroke-width:1; stroke:black; " class="clusterblast-orf" id="knownclusterblast-2_all_2_6_5" locus_tag="ARS01482.1" points="63,340 65,340 70,335 65,330 63,330 63,340 " description="&lt;b&gt;ARS01482.1&lt;/b&gt;&lt;br&gt;NcmI&lt;br&gt;Location: 62631 - 62038"  />
</g>
<g id="a2_006"  >
<polygon style="fill:white; stroke-width:1; stroke:black; " class="clusterblast-orf" id="knownclusterblast-2_all_2_6_6" locus_tag="ARS01481.1" points="70,340 84,340 89,335 84,330 70,330 70,340 " description="&lt;b&gt;ARS01481.1&lt;/b&gt;&lt;br&gt;NcmH&lt;br&gt;Location: 62041 - 60410"  />
</g>
<g id="a2_007"  >
<polygon style="fill:white; stroke-width:1; stroke:black; " class="clusterblast-orf" id="knownclusterblast-2_all_2_6_7" locus_tag="ARS01480.1" points="91,335 96,330 105,330 105,340 96,340 91,335 " description="&lt;b&gt;ARS01480.1&lt;/b&gt;&lt;br&gt;NcmG&lt;br&gt;Location: 60164 - 58971"  />
</g>
<g id="a2_008"  >
<polygon style="fill:white; stroke-width:1; stroke:black; " class="clusterblast-orf" id="knownclusterblast-2_all_2_6_8" locus_tag="ARS01479.1" points="105,335 110,330 122,330 122,340 110,340 105,335 " description="&lt;b&gt;ARS01479.1&lt;/b&gt;&lt;br&gt;NcmF&lt;br&gt;Location: 58965 - 57502"  />
</g>
<g id="a2_009"  >
<polygon style="fill:white; stroke-width:1; stroke:black; " class="clusterblast-orf" id="knownclusterblast-2_all_2_6_9" locus_tag="ARS01478.1" points="122,335 127,330 131,330 131,340 127,340 122,335 " description="&lt;b&gt;ARS01478.1&lt;/b&gt;&lt;br&gt;NcmE&lt;br&gt;Location: 57505 - 56684"  />
</g>
<g id="a2_0010"  >
<polygon style="fill:white; stroke-width:1; stroke:black; " class="clusterblast-orf" id="knownclusterblast-2_all_2_6_10" locus_tag="ARS01477.1" points="132,335 137,330 224,330 224,340 137,340 132,335 " description="&lt;b&gt;ARS01477.1&lt;/b&gt;&lt;br&gt;NcmAV&lt;br&gt;Location: 56591 - 48552"  />
</g>
<g id="a2_0011"  >
<polygon style="fill:white; stroke-width:1; stroke:black; " class="clusterblast-orf" id="knownclusterblast-2_all_2_6_11" locus_tag="ARS01476.1" points="224,335 229,330 286,330 286,340 229,340 224,335 " description="&lt;b&gt;ARS01476.1&lt;/b&gt;&lt;br&gt;NcmAIV&lt;br&gt;Location: 48550 - 43190"  />
</g>
<g id="a2_0012"  >
<polygon style="fill:white; stroke-width:1; stroke:black; " class="clusterblast-orf" id="knownclusterblast-2_all_2_6_12" locus_tag="ARS01475.1" points="285,335 290,330 339,330 339,340 290,340 285,335 " description="&lt;b&gt;ARS01475.1&lt;/b&gt;&lt;br&gt;NcmAIII&lt;br&gt;Location: 43197 - 38533"  />
</g>
<g id="a2_0013"  >
<polygon style="fill:white; stroke-width:1; stroke:black; " class="clusterblast-orf" id="knownclusterblast-2_all_2_6_13" locus_tag="ARS01474.1" points="339,335 344,330 400,330 400,340 344,340 339,335 " description="&lt;b&gt;ARS01474.1&lt;/b&gt;&lt;br&gt;NcmAII&lt;br&gt;Location: 38533 - 33173"  />
</g>
<g id="a2_0014"  >
<polygon style="fill:white; stroke-width:1; stroke:black; " class="clusterblast-orf" id="knownclusterblast-2_all_2_6_14" locus_tag="ARS01473.1" points="400,335 405,330 569,330 569,340 405,340 400,335 " description="&lt;b&gt;ARS01473.1&lt;/b&gt;&lt;br&gt;NcmAI&lt;br&gt;Location: 33173 - 18426"  />
</g>
<g id="a2_0015"  >
<polygon style="fill:white; stroke-width:1; stroke:black; " class="clusterblast-orf" id="knownclusterblast-2_all_2_6_15" locus_tag="ARS01472.1" points="572,335 577,330 577,330 577,340 577,340 572,335 " description="&lt;b&gt;ARS01472.1&lt;/b&gt;&lt;br&gt;NcmQ&lt;br&gt;Location: 18112 - 17750"  />
</g>
<g id="a2_0016"  >
<polygon style="fill:white; stroke-width:1; stroke:black; " class="clusterblast-orf" id="knownclusterblast-2_all_2_6_16" locus_tag="ARS01471.1" points="578,340 582,340 587,335 582,330 578,330 578,340 " description="&lt;b&gt;ARS01471.1&lt;/b&gt;&lt;br&gt;NcmD&lt;br&gt;Location: 17652 - 16837"  />
</g>
<g id="a2_0017"  >
<polygon style="fill:white; stroke-width:1; stroke:black; " class="clusterblast-orf" id="knownclusterblast-2_all_2_6_17" locus_tag="ARS01470.1" points="587,335 592,330 625,330 625,340 592,340 587,335 " description="&lt;b&gt;ARS01470.1&lt;/b&gt;&lt;br&gt;NcmB&lt;br&gt;Location: 16840 - 13526"  />
</g>
<g id="a2_0018"  >
<polygon style="fill:white; stroke-width:1; stroke:black; " class="clusterblast-orf" id="knownclusterblast-2_all_2_6_18" locus_tag="ARS01469.1" points="625,335 630,330 634,330 634,340 630,340 625,335 " description="&lt;b&gt;ARS01469.1&lt;/b&gt;&lt;br&gt;NcmC&lt;br&gt;Location: 13515 - 12697"  />
</g>
<g id="a2_0019"  >
<polygon style="fill:white; stroke-width:1; stroke:black; " class="clusterblast-orf" id="knownclusterblast-2_all_2_6_19" locus_tag="ARS01468.1" points="634,335 639,330 644,330 644,340 639,340 634,335 " description="&lt;b&gt;ARS01468.1&lt;/b&gt;&lt;br&gt;NcmP&lt;br&gt;Location: 12700 - 11858"  />
</g>
<g id="a2_0020"  >
<polygon style="fill:white; stroke-width:1; stroke:black; " class="clusterblast-orf" id="knownclusterblast-2_all_2_6_20" locus_tag="ARS01467.1" points="644,335 649,330 657,330 657,340 649,340 644,335 " description="&lt;b&gt;ARS01467.1&lt;/b&gt;&lt;br&gt;NcmO&lt;br&gt;Location: 11843 - 10689"  />
</g>
<g id="a2_0021"  >
<polygon style="fill:white; stroke-width:1; stroke:black; " class="clusterblast-orf" id="knownclusterblast-2_all_2_6_21" locus_tag="ARS01466.1" points="662,335 667,330 693,330 693,340 667,340 662,335 " description="&lt;b&gt;ARS01466.1&lt;/b&gt;&lt;br&gt;NcmN&lt;br&gt;Location: 10284 - 7606"  />
</g>
<g id="a2_0022"  >
<polygon style="fill:white; stroke-width:1; stroke:black; " class="clusterblast-orf" id="knownclusterblast-2_all_2_6_22" locus_tag="ARS01465.1" points="700,340 712,340 717,335 712,330 700,330 700,340 " description="&lt;b&gt;ARS01465.1&lt;/b&gt;&lt;br&gt;NcmL&lt;br&gt;Location: 6996 - 5461"  />
</g>
<g id="a2_0023"  >
<polygon style="fill:white; stroke-width:1; stroke:black; " class="clusterblast-orf" id="knownclusterblast-2_all_2_6_23" locus_tag="ARS01464.1" points="717,340 720,340 725,335 720,330 717,330 717,340 " description="&lt;b&gt;ARS01464.1&lt;/b&gt;&lt;br&gt;NcmM&lt;br&gt;Location: 5444 - 4770"  />
</g>
<g id="a2_0024"  >
<polygon style="fill:white; stroke-width:1; stroke:black; " class="clusterblast-orf" id="knownclusterblast-2_all_2_6_24" locus_tag="ARS01463.1" points="730,335 735,330 745,330 745,340 735,340 730,335 " description="&lt;b&gt;ARS01463.1&lt;/b&gt;&lt;br&gt;hypothetical protein&lt;br&gt;Location: 4371 - 3004"  />
</g>
<g id="a2_0025"  >
<polygon style="fill:white; stroke-width:1; stroke:black; " class="clusterblast-orf" id="knownclusterblast-2_all_2_6_25" locus_tag="ARS01462.1" points="746,335 751,330 769,330 769,340 751,340 746,335 " description="&lt;b&gt;ARS01462.1&lt;/b&gt;&lt;br&gt;helicase&lt;br&gt;Location: 2918 - 924"  />
</g>
<g id="a2_0026"  >
<polygon style="fill:white; stroke-width:1; stroke:black; " class="clusterblast-orf" id="knownclusterblast-2_all_2_6_26" locus_tag="ARS01461.1" points="770,340 775,340 780,335 775,330 770,330 770,340 " description="&lt;b&gt;ARS01461.1&lt;/b&gt;&lt;br&gt;short-chain dehydrogenase&lt;br&gt;Location: 816 - 1"  />
</g>
</svg>
