<svg xmlns:xlink="http://www.w3.org/1999/xlink" version="1.1" y="0" height="50" xmlns="http://www.w3.org/2000/svg" preserveAspectRatio="none" x="0" width="800" viewBox="0 0 800 50"  >
<g label="Query sequence" class="clusterblast-cluster"  >
<text y="20" class="clusterblast-acc" x="5"  >
Query sequence</text>
<line style="stroke-width:1; stroke:grey; " y1="35" x1="10" y2="35" x2="778.0"  />
<polygon style="fill:white; stroke-width:1; stroke:black; " class="clusterblast-orf" id="subclusterblast-4_q0_0_all" locus_tag="cds642464_642944" points="0,40 4,35 0,30 0,40 " description="&lt;b&gt;cds642464_642944&lt;/b&gt;&lt;br&gt;Pyridoxal-5'-phosphate-dependent enzyme beta superfamily (fold type II)&lt;br&gt;Location: 642464 - 642944"  />
<polygon style="fill:white; stroke-width:1; stroke:black; " class="clusterblast-orf" id="subclusterblast-4_q1_0_all" locus_tag="cds642958_643378" points="5,40 9,35 5,30 5,40 " description="&lt;b&gt;cds642958_643378&lt;/b&gt;&lt;br&gt;Pyridoxal-5'-phosphate-dependent enzyme beta superfamily (fold type II)&lt;br&gt;Location: 642958 - 643378"  />
<polygon style="fill:white; stroke-width:1; stroke:black; " class="clusterblast-orf" id="subclusterblast-4_q2_0_all" locus_tag="cds643525_643840" points="10,40 14,35 10,30 10,40 " description="&lt;b&gt;cds643525_643840&lt;/b&gt;&lt;br&gt;Argininosuccinate lyase (EC 4.3.2.1)&lt;br&gt;Location: 643525 - 643840"  />
<polygon style="fill:white; stroke-width:1; stroke:black; " class="clusterblast-orf" id="subclusterblast-4_q3_0_all" locus_tag="cds643854_644403" points="14,40 14,40 19,35 14,30 14,30 14,40 " description="&lt;b&gt;cds643854_644403&lt;/b&gt;&lt;br&gt;Argininosuccinate lyase (EC 4.3.2.1)&lt;br&gt;Location: 643854 - 644403"  />
<polygon style="fill:white; stroke-width:1; stroke:black; " class="clusterblast-orf" id="subclusterblast-4_q4_0_all" locus_tag="cds644446_644719" points="20,40 23,35 20,30 20,40 " description="&lt;b&gt;cds644446_644719&lt;/b&gt;&lt;br&gt;Argininosuccinate lyase (EC 4.3.2.1)&lt;br&gt;Location: 644446 - 644719"  />
<polygon style="fill:white; stroke-width:1; stroke:black; " class="clusterblast-orf" id="subclusterblast-4_q5_0_all" locus_tag="cds644711_645530" points="22,40 26,40 31,35 26,30 22,30 22,40 " description="&lt;b&gt;cds644711_645530&lt;/b&gt;&lt;br&gt;Integral membrane protein&lt;br&gt;Location: 644711 - 645530"  />
<polygon style="fill:white; stroke-width:1; stroke:black; " class="clusterblast-orf" id="subclusterblast-4_q6_0_all" locus_tag="cds645505_647146" points="31,40 42,40 47,35 42,30 31,30 31,40 " description="&lt;b&gt;cds645505_647146&lt;/b&gt;&lt;br&gt;SAM-dependent methyltransferase&lt;br&gt;Location: 645505 - 647146"  />
<polygon style="fill:white; stroke-width:1; stroke:black; " class="clusterblast-orf" id="subclusterblast-4_q7_0_all" locus_tag="cds647142_647988" points="47,40 51,40 56,35 51,30 47,30 47,40 " description="&lt;b&gt;cds647142_647988&lt;/b&gt;&lt;br&gt;ABC transporter, substrate-binding protein (cluster 8, B12/iron complex)&lt;br&gt;Location: 647142 - 647988"  />
<polygon style="fill:white; stroke-width:1; stroke:black; " class="clusterblast-orf" id="subclusterblast-4_q8_0_all" locus_tag="cds647984_648326" points="56,40 59,35 56,30 56,40 " description="&lt;b&gt;cds647984_648326&lt;/b&gt;&lt;br&gt;ABC transporter, permease protein (cluster 8, B12/iron complex)&lt;br&gt;Location: 647984 - 648326"  />
<polygon style="fill:white; stroke-width:1; stroke:black; " class="clusterblast-orf" id="subclusterblast-4_q9_0_all" locus_tag="cds648524_649172" points="61,40 63,40 68,35 63,30 61,30 61,40 " description="&lt;b&gt;cds648524_649172&lt;/b&gt;&lt;br&gt;ABC transporter, permease protein (cluster 8, B12/iron complex)&lt;br&gt;Location: 648524 - 649172"  />
<polygon style="fill:white; stroke-width:1; stroke:black; " class="clusterblast-orf" id="subclusterblast-4_q10_0_all" locus_tag="cds649282_649456" points="69,40 71,35 69,30 69,40 " description="&lt;b&gt;cds649282_649456&lt;/b&gt;&lt;br&gt;ABC transporter, ATP-binding protein (cluster 8, B12/iron complex)&lt;br&gt;Location: 649282 - 649456"  />
<polygon style="fill:white; stroke-width:1; stroke:black; " class="clusterblast-orf" id="subclusterblast-4_q11_0_all" locus_tag="cds649538_649847" points="72,40 75,35 72,30 72,40 " description="&lt;b&gt;cds649538_649847&lt;/b&gt;&lt;br&gt;ABC transporter, ATP-binding protein (cluster 8, B12/iron complex)&lt;br&gt;Location: 649538 - 649847"  />
<polygon style="fill:white; stroke-width:1; stroke:black; " class="clusterblast-orf" id="subclusterblast-4_q12_0_all" locus_tag="cds649843_650437" points="75,40 76,40 81,35 76,30 75,30 75,40 " description="&lt;b&gt;cds649843_650437&lt;/b&gt;&lt;br&gt;hypothetical protein&lt;br&gt;Location: 649843 - 650437"  />
<polygon style="fill:white; stroke-width:1; stroke:black; " class="clusterblast-orf" id="subclusterblast-4_q13_0_all" locus_tag="cds650616_651846" points="82,40 90,40 95,35 90,30 82,30 82,40 " description="&lt;b&gt;cds650616_651846&lt;/b&gt;&lt;br&gt;Transcriptional regulator, AcrR family&lt;br&gt;Location: 650616 - 651846"  />
<polygon style="fill:white; stroke-width:1; stroke:black; " class="clusterblast-orf" id="subclusterblast-4_q14_0_all" locus_tag="cds651885_652023" points="95,35 97,30 97,40 95,35 " description="&lt;b&gt;cds651885_652023&lt;/b&gt;&lt;br&gt;hypothetical protein&lt;br&gt;Location: 651885 - 652023"  />
<polygon style="fill:white; stroke-width:1; stroke:black; " class="clusterblast-orf" id="subclusterblast-4_q15_0_all" locus_tag="cds652064_652376" points="97,40 100,35 97,30 97,40 " description="&lt;b&gt;cds652064_652376&lt;/b&gt;&lt;br&gt;hypothetical protein&lt;br&gt;Location: 652064 - 652376"  />
<polygon style="fill:white; stroke-width:1; stroke:black; " class="clusterblast-orf" id="subclusterblast-4_q16_0_all" locus_tag="cds652924_653206" points="106,35 109,30 109,40 106,35 " description="&lt;b&gt;cds652924_653206&lt;/b&gt;&lt;br&gt;hypothetical protein&lt;br&gt;Location: 652924 - 653206"  />
<polygon style="fill:white; stroke-width:1; stroke:black; " class="clusterblast-orf" id="subclusterblast-4_q17_0_all" locus_tag="cds653202_653709" points="109,35 114,30 114,30 114,40 114,40 109,35 " description="&lt;b&gt;cds653202_653709&lt;/b&gt;&lt;br&gt;Uncharacterized MFS-type transporter&lt;br&gt;Location: 653202 - 653709"  />
<polygon style="fill:white; stroke-width:1; stroke:black; " class="clusterblast-orf" id="subclusterblast-4_q18_0_all" locus_tag="cds653708_654512" points="114,35 119,30 122,30 122,40 119,40 114,35 " description="&lt;b&gt;cds653708_654512&lt;/b&gt;&lt;br&gt;Uncharacterized MFS-type transporter&lt;br&gt;Location: 653708 - 654512"  />
<polygon style="fill:white; stroke-width:1; stroke:black; " class="clusterblast-orf" id="subclusterblast-4_q19_0_all" locus_tag="cds654508_655333" points="122,35 127,30 130,30 130,40 127,40 122,35 " description="&lt;b&gt;cds654508_655333&lt;/b&gt;&lt;br&gt;hypothetical protein&lt;br&gt;Location: 654508 - 655333"  />
<polygon style="fill:white; stroke-width:1; stroke:black; " class="clusterblast-orf" id="subclusterblast-4_q20_0_all" locus_tag="cds655427_655676" points="131,35 134,30 134,40 131,35 " description="&lt;b&gt;cds655427_655676&lt;/b&gt;&lt;br&gt;Deacetylases, including yeast histone deacetylase and acetoin utilization protein&lt;br&gt;Location: 655427 - 655676"  />
<polygon style="fill:white; stroke-width:1; stroke:black; " class="clusterblast-orf" id="subclusterblast-4_q21_0_all" locus_tag="cds655663_655978" points="134,35 137,30 137,40 134,35 " description="&lt;b&gt;cds655663_655978&lt;/b&gt;&lt;br&gt;Deacetylases, including yeast histone deacetylase and acetoin utilization protein&lt;br&gt;Location: 655663 - 655978"  />
<polygon style="fill:white; stroke-width:1; stroke:black; " class="clusterblast-orf" id="subclusterblast-4_q22_0_all" locus_tag="cds655971_656322" points="137,35 140,30 140,40 137,35 " description="&lt;b&gt;cds655971_656322&lt;/b&gt;&lt;br&gt;Deacetylases, including yeast histone deacetylase and acetoin utilization protein&lt;br&gt;Location: 655971 - 656322"  />
<polygon style="fill:white; stroke-width:1; stroke:black; " class="clusterblast-orf" id="subclusterblast-4_q23_0_all" locus_tag="cds656321_656486" points="140,35 142,30 142,40 140,35 " description="&lt;b&gt;cds656321_656486&lt;/b&gt;&lt;br&gt;Deacetylases, including yeast histone deacetylase and acetoin utilization protein&lt;br&gt;Location: 656321 - 656486"  />
<polygon style="fill:white; stroke-width:1; stroke:black; " class="clusterblast-orf" id="subclusterblast-4_q24_0_all" locus_tag="cds656630_656783" points="144,35 145,30 145,40 144,35 " description="&lt;b&gt;cds656630_656783&lt;/b&gt;&lt;br&gt;hypothetical protein&lt;br&gt;Location: 656630 - 656783"  />
<polygon style="fill:white; stroke-width:1; stroke:black; " class="clusterblast-orf" id="subclusterblast-4_q25_0_all" locus_tag="cds656871_657447" points="146,35 151,30 152,30 152,40 151,40 146,35 " description="&lt;b&gt;cds656871_657447&lt;/b&gt;&lt;br&gt;8-amino-7-oxononanoate synthase (EC 2.3.1.47)&lt;br&gt;Location: 656871 - 657447"  />
<polygon style="fill:white; stroke-width:1; stroke:black; " class="clusterblast-orf" id="subclusterblast-4_q26_0_all" locus_tag="cds657475_658105" points="152,35 157,30 159,30 159,40 157,40 152,35 " description="&lt;b&gt;cds657475_658105&lt;/b&gt;&lt;br&gt;8-amino-7-oxononanoate synthase (EC 2.3.1.47)&lt;br&gt;Location: 657475 - 658105"  />
<polygon style="fill:white; stroke-width:1; stroke:black; " class="clusterblast-orf" id="subclusterblast-4_q27_0_all" locus_tag="cds658417_658630" points="162,35 164,30 164,40 162,35 " description="&lt;b&gt;cds658417_658630&lt;/b&gt;&lt;br&gt;8-amino-7-oxononanoate synthase (EC 2.3.1.47)&lt;br&gt;Location: 658417 - 658630"  />
<polygon style="fill:white; stroke-width:1; stroke:black; " class="clusterblast-orf" id="subclusterblast-4_q28_0_all" locus_tag="cds659278_659776" points="171,35 176,30 176,30 176,40 176,40 171,35 " description="&lt;b&gt;cds659278_659776&lt;/b&gt;&lt;br&gt;hypothetical protein&lt;br&gt;Location: 659278 - 659776"  />
<polygon style="fill:white; stroke-width:1; stroke:black; " class="clusterblast-orf" id="subclusterblast-4_q29_0_all" locus_tag="cds659772_660099" points="176,35 179,30 179,40 176,35 " description="&lt;b&gt;cds659772_660099&lt;/b&gt;&lt;br&gt;hypothetical protein&lt;br&gt;Location: 659772 - 660099"  />
<polygon style="fill:white; stroke-width:1; stroke:black; " class="clusterblast-orf" id="subclusterblast-4_q30_0_all" locus_tag="cds660095_660770" points="179,35 184,30 186,30 186,40 184,40 179,35 " description="&lt;b&gt;cds660095_660770&lt;/b&gt;&lt;br&gt;8-amino-7-oxononanoate synthase (EC 2.3.1.47)&lt;br&gt;Location: 660095 - 660770"  />
<polygon style="fill:white; stroke-width:1; stroke:black; " class="clusterblast-orf" id="subclusterblast-4_q31_0_all" locus_tag="cds660906_661602" points="187,35 192,30 194,30 194,40 192,40 187,35 " description="&lt;b&gt;cds660906_661602&lt;/b&gt;&lt;br&gt;hypothetical protein&lt;br&gt;Location: 660906 - 661602"  />
<polygon style="fill:white; stroke-width:1; stroke:black; " class="clusterblast-orf" id="subclusterblast-4_q32_0_all" locus_tag="cds661604_662282" points="194,35 199,30 201,30 201,40 199,40 194,35 " description="&lt;b&gt;cds661604_662282&lt;/b&gt;&lt;br&gt;DNA alkylation repair enzyme&lt;br&gt;Location: 661604 - 662282"  />
<polygon style="fill:white; stroke-width:1; stroke:black; " class="clusterblast-orf" id="subclusterblast-4_q33_0_all" locus_tag="cds662318_662687" points="201,35 205,30 205,40 201,35 " description="&lt;b&gt;cds662318_662687&lt;/b&gt;&lt;br&gt;Malonyl CoA-acyl carrier protein transacylase (EC 2.3.1.39)&lt;br&gt;Location: 662318 - 662687"  />
<polygon style="fill:white; stroke-width:1; stroke:black; " class="clusterblast-orf" id="subclusterblast-4_q34_0_all" locus_tag="cds662843_663812" points="207,35 212,30 217,30 217,40 212,40 207,35 " description="&lt;b&gt;cds662843_663812&lt;/b&gt;&lt;br&gt;Polyketide synthase modules and related proteins&lt;br&gt;Location: 662843 - 663812"  />
<polygon style="fill:white; stroke-width:1; stroke:black; " class="clusterblast-orf" id="subclusterblast-4_q35_0_all" locus_tag="cds663896_664055" points="217,35 219,30 219,40 217,35 " description="&lt;b&gt;cds663896_664055&lt;/b&gt;&lt;br&gt;hypothetical protein&lt;br&gt;Location: 663896 - 664055"  />
<polygon style="fill:white; stroke-width:1; stroke:black; " class="clusterblast-orf" id="subclusterblast-4_q36_0_all" locus_tag="cds664051_666166" points="219,35 224,30 241,30 241,40 224,40 219,35 " description="&lt;b&gt;cds664051_666166&lt;/b&gt;&lt;br&gt;hypothetical protein&lt;br&gt;Location: 664051 - 666166"  />
<polygon style="fill:white; stroke-width:1; stroke:black; " class="clusterblast-orf" id="subclusterblast-4_q37_0_all" locus_tag="cds666199_667516" points="241,35 246,30 254,30 254,40 246,40 241,35 " description="&lt;b&gt;cds666199_667516&lt;/b&gt;&lt;br&gt;hypothetical protein&lt;br&gt;Location: 666199 - 667516"  />
<polygon style="fill:white; stroke-width:1; stroke:black; " class="clusterblast-orf" id="subclusterblast-4_q38_0_all" locus_tag="cds667786_668455" points="257,35 262,30 264,30 264,40 262,40 257,35 " description="&lt;b&gt;cds667786_668455&lt;/b&gt;&lt;br&gt;hypothetical protein&lt;br&gt;Location: 667786 - 668455"  />
<polygon style="fill:white; stroke-width:1; stroke:black; " class="clusterblast-orf" id="subclusterblast-4_q39_0_all" locus_tag="cds668479_668686" points="264,35 266,30 266,40 264,35 " description="&lt;b&gt;cds668479_668686&lt;/b&gt;&lt;br&gt;Malonyl CoA-acyl carrier protein transacylase (EC 2.3.1.39)&lt;br&gt;Location: 668479 - 668686"  />
<polygon style="fill:white; stroke-width:1; stroke:black; " class="clusterblast-orf" id="subclusterblast-4_q40_0_all" locus_tag="cds668682_669390" points="266,35 271,30 273,30 273,40 271,40 266,35 " description="&lt;b&gt;cds668682_669390&lt;/b&gt;&lt;br&gt;Malonyl CoA-acyl carrier protein transacylase (EC 2.3.1.39)&lt;br&gt;Location: 668682 - 669390"  />
<polygon style="fill:white; stroke-width:1; stroke:black; " class="clusterblast-orf" id="subclusterblast-4_q41_0_all" locus_tag="cds669438_669729" points="274,35 277,30 277,40 274,35 " description="&lt;b&gt;cds669438_669729&lt;/b&gt;&lt;br&gt;hypothetical protein&lt;br&gt;Location: 669438 - 669729"  />
<polygon style="fill:white; stroke-width:1; stroke:black; " class="clusterblast-orf" id="subclusterblast-4_q42_0_all" locus_tag="cds669716_669923" points="277,35 279,30 279,40 277,35 " description="&lt;b&gt;cds669716_669923&lt;/b&gt;&lt;br&gt;hypothetical protein&lt;br&gt;Location: 669716 - 669923"  />
<polygon style="fill:white; stroke-width:1; stroke:black; " class="clusterblast-orf" id="subclusterblast-4_q43_0_all" locus_tag="cds670100_670877" points="281,35 286,30 288,30 288,40 286,40 281,35 " description="&lt;b&gt;cds670100_670877&lt;/b&gt;&lt;br&gt;hypothetical protein&lt;br&gt;Location: 670100 - 670877"  />
<polygon style="fill:white; stroke-width:1; stroke:black; " class="clusterblast-orf" id="subclusterblast-4_q44_0_all" locus_tag="cds670852_671515" points="288,35 293,30 295,30 295,40 293,40 288,35 " description="&lt;b&gt;cds670852_671515&lt;/b&gt;&lt;br&gt;Polyketide synthase modules and related proteins&lt;br&gt;Location: 670852 - 671515"  />
<polygon style="fill:white; stroke-width:1; stroke:black; " class="clusterblast-orf" id="subclusterblast-4_q45_0_all" locus_tag="cds671511_671925" points="295,35 299,30 299,40 295,35 " description="&lt;b&gt;cds671511_671925&lt;/b&gt;&lt;br&gt;hypothetical protein&lt;br&gt;Location: 671511 - 671925"  />
<polygon style="fill:white; stroke-width:1; stroke:black; " class="clusterblast-orf" id="subclusterblast-4_q46_0_all" locus_tag="cds671921_674066" points="299,35 304,30 321,30 321,40 304,40 299,35 " description="&lt;b&gt;cds671921_674066&lt;/b&gt;&lt;br&gt;hypothetical protein&lt;br&gt;Location: 671921 - 674066"  />
<polygon style="fill:white; stroke-width:1; stroke:black; " class="clusterblast-orf" id="subclusterblast-4_q47_0_all" locus_tag="cds674071_674329" points="321,35 324,30 324,40 321,35 " description="&lt;b&gt;cds674071_674329&lt;/b&gt;&lt;br&gt;hypothetical protein&lt;br&gt;Location: 674071 - 674329"  />
<polygon style="fill:white; stroke-width:1; stroke:black; " class="clusterblast-orf" id="subclusterblast-4_q48_0_all" locus_tag="cds674303_675374" points="323,35 328,30 334,30 334,40 328,40 323,35 " description="&lt;b&gt;cds674303_675374&lt;/b&gt;&lt;br&gt;hypothetical protein&lt;br&gt;Location: 674303 - 675374"  />
<polygon style="fill:white; stroke-width:1; stroke:black; " class="clusterblast-orf" id="subclusterblast-4_q49_0_all" locus_tag="cds675370_675505" points="334,35 335,30 335,40 334,35 " description="&lt;b&gt;cds675370_675505&lt;/b&gt;&lt;br&gt;hypothetical protein&lt;br&gt;Location: 675370 - 675505"  />
<polygon style="fill:white; stroke-width:1; stroke:black; " class="clusterblast-orf" id="subclusterblast-4_q50_0_all" locus_tag="cds675549_675993" points="336,35 340,30 340,40 336,35 " description="&lt;b&gt;cds675549_675993&lt;/b&gt;&lt;br&gt;Modular polyketide synthase&lt;br&gt;Location: 675549 - 675993"  />
<polygon style="fill:white; stroke-width:1; stroke:black; " class="clusterblast-orf" id="subclusterblast-4_q51_0_all" locus_tag="cds675961_676948" points="340,35 345,30 350,30 350,40 345,40 340,35 " description="&lt;b&gt;cds675961_676948&lt;/b&gt;&lt;br&gt;hypothetical protein&lt;br&gt;Location: 675961 - 676948"  />
<polygon style="fill:white; stroke-width:1; stroke:black; " class="clusterblast-orf" id="subclusterblast-4_q52_0_all" locus_tag="cds676966_677887" points="350,35 355,30 360,30 360,40 355,40 350,35 " description="&lt;b&gt;cds676966_677887&lt;/b&gt;&lt;br&gt;Malonyl CoA-acyl carrier protein transacylase (EC 2.3.1.39)&lt;br&gt;Location: 676966 - 677887"  />
<polygon style="fill:white; stroke-width:1; stroke:black; " class="clusterblast-orf" id="subclusterblast-4_q53_0_all" locus_tag="cds677951_678443" points="360,40 360,40 365,35 360,30 360,30 360,40 " description="&lt;b&gt;cds677951_678443&lt;/b&gt;&lt;br&gt;hypothetical protein&lt;br&gt;Location: 677951 - 678443"  />
<polygon style="fill:white; stroke-width:1; stroke:black; " class="clusterblast-orf" id="subclusterblast-4_q54_0_all" locus_tag="cds678515_678689" points="366,35 368,30 368,40 366,35 " description="&lt;b&gt;cds678515_678689&lt;/b&gt;&lt;br&gt;Malonyl CoA-acyl carrier protein transacylase (EC 2.3.1.39)&lt;br&gt;Location: 678515 - 678689"  />
<polygon style="fill:white; stroke-width:1; stroke:black; " class="clusterblast-orf" id="subclusterblast-4_q55_0_all" locus_tag="cds678709_679027" points="368,35 371,30 371,40 368,35 " description="&lt;b&gt;cds678709_679027&lt;/b&gt;&lt;br&gt;Polyketide synthase modules and related proteins&lt;br&gt;Location: 678709 - 679027"  />
<polygon style="fill:white; stroke-width:1; stroke:black; " class="clusterblast-orf" id="subclusterblast-4_q56_0_all" locus_tag="cds679337_679682" points="374,35 378,30 378,40 374,35 " description="&lt;b&gt;cds679337_679682&lt;/b&gt;&lt;br&gt;Polyketide synthase modules and related proteins&lt;br&gt;Location: 679337 - 679682"  />
<polygon style="fill:white; stroke-width:1; stroke:black; " class="clusterblast-orf" id="subclusterblast-4_q57_0_all" locus_tag="cds679844_680516" points="380,35 385,30 386,30 386,40 385,40 380,35 " description="&lt;b&gt;cds679844_680516&lt;/b&gt;&lt;br&gt;Malonyl CoA-acyl carrier protein transacylase (EC 2.3.1.39)&lt;br&gt;Location: 679844 - 680516"  />
<polygon style="fill:white; stroke-width:1; stroke:black; " class="clusterblast-orf" id="subclusterblast-4_q58_0_all" locus_tag="cds680687_682979" points="388,35 393,30 411,30 411,40 393,40 388,35 " description="&lt;b&gt;cds680687_682979&lt;/b&gt;&lt;br&gt;hypothetical protein&lt;br&gt;Location: 680687 - 682979"  />
<polygon style="fill:white; stroke-width:1; stroke:black; " class="clusterblast-orf" id="subclusterblast-4_q59_0_all" locus_tag="cds683013_683580" points="412,35 417,30 418,30 418,40 417,40 412,35 " description="&lt;b&gt;cds683013_683580&lt;/b&gt;&lt;br&gt;Polyketide synthase modules and related proteins&lt;br&gt;Location: 683013 - 683580"  />
<polygon style="fill:white; stroke-width:1; stroke:black; " class="clusterblast-orf" id="subclusterblast-4_q60_0_all" locus_tag="cds683585_683945" points="418,35 421,30 421,40 418,35 " description="&lt;b&gt;cds683585_683945&lt;/b&gt;&lt;br&gt;hypothetical protein&lt;br&gt;Location: 683585 - 683945"  />
<polygon style="fill:white; stroke-width:1; stroke:black; " class="clusterblast-orf" id="subclusterblast-4_q61_0_all" locus_tag="cds684048_684582" points="422,35 427,30 428,30 428,40 427,40 422,35 " description="&lt;b&gt;cds684048_684582&lt;/b&gt;&lt;br&gt;hypothetical protein&lt;br&gt;Location: 684048 - 684582"  />
<polygon style="fill:white; stroke-width:1; stroke:black; " class="clusterblast-orf" id="subclusterblast-4_q62_0_all" locus_tag="cds684697_685027" points="429,35 432,30 432,40 429,35 " description="&lt;b&gt;cds684697_685027&lt;/b&gt;&lt;br&gt;Malonyl CoA-acyl carrier protein transacylase (EC 2.3.1.39)&lt;br&gt;Location: 684697 - 685027"  />
<polygon style="fill:white; stroke-width:1; stroke:black; " class="clusterblast-orf" id="subclusterblast-4_q63_0_all" locus_tag="cds685098_685563" points="433,35 438,30 438,30 438,40 438,40 433,35 " description="&lt;b&gt;cds685098_685563&lt;/b&gt;&lt;br&gt;hypothetical protein&lt;br&gt;Location: 685098 - 685563"  />
<polygon style="fill:white; stroke-width:1; stroke:black; " class="clusterblast-orf" id="subclusterblast-4_q64_0_all" locus_tag="cds685562_687032" points="438,35 443,30 453,30 453,40 443,40 438,35 " description="&lt;b&gt;cds685562_687032&lt;/b&gt;&lt;br&gt;hypothetical protein&lt;br&gt;Location: 685562 - 687032"  />
<polygon style="fill:white; stroke-width:1; stroke:black; " class="clusterblast-orf" id="subclusterblast-4_q65_0_all" locus_tag="cds687182_688607" points="454,35 459,30 469,30 469,40 459,40 454,35 " description="&lt;b&gt;cds687182_688607&lt;/b&gt;&lt;br&gt;hypothetical protein&lt;br&gt;Location: 687182 - 688607"  />
<polygon style="fill:white; stroke-width:1; stroke:black; " class="clusterblast-orf" id="subclusterblast-4_q66_0_all" locus_tag="cds688981_690205" points="472,35 477,30 485,30 485,40 477,40 472,35 " description="&lt;b&gt;cds688981_690205&lt;/b&gt;&lt;br&gt;Putative hydroxylase&lt;br&gt;Location: 688981 - 690205"  />
<polygon style="fill:white; stroke-width:1; stroke:black; " class="clusterblast-orf" id="subclusterblast-4_q67_0_all" locus_tag="cds690477_690741" points="488,35 490,30 490,40 488,35 " description="&lt;b&gt;cds690477_690741&lt;/b&gt;&lt;br&gt;hypothetical protein&lt;br&gt;Location: 690477 - 690741"  />
<polygon style="fill:white; stroke-width:1; stroke:black; " class="clusterblast-orf" id="subclusterblast-4_q68_0_all" locus_tag="cds691266_691734" points="496,40 500,35 496,30 496,40 " description="&lt;b&gt;cds691266_691734&lt;/b&gt;&lt;br&gt;Vitamin B12 ABC transporter, substrate-binding protein BtuF&lt;br&gt;Location: 691266 - 691734"  />
<polygon style="fill:white; stroke-width:1; stroke:black; " class="clusterblast-orf" id="subclusterblast-4_q69_0_all" locus_tag="cds691811_692204" points="501,40 505,35 501,30 501,40 " description="&lt;b&gt;cds691811_692204&lt;/b&gt;&lt;br&gt;Vitamin B12 ABC transporter, substrate-binding protein BtuF&lt;br&gt;Location: 691811 - 692204"  />
<polygon style="fill:white; stroke-width:1; stroke:black; " class="clusterblast-orf" id="subclusterblast-4_q70_0_all" locus_tag="cds692170_692563" points="505,40 509,35 505,30 505,40 " description="&lt;b&gt;cds692170_692563&lt;/b&gt;&lt;br&gt;Vitamin B12 ABC transporter, B12-binding component BtuF&lt;br&gt;Location: 692170 - 692563"  />
<polygon style="fill:white; stroke-width:1; stroke:black; " class="clusterblast-orf" id="subclusterblast-4_q71_0_all" locus_tag="cds692571_693051" points="509,40 509,40 514,35 509,30 509,30 509,40 " description="&lt;b&gt;cds692571_693051&lt;/b&gt;&lt;br&gt;Vitamin B12 ABC transporter, permease component BtuC&lt;br&gt;Location: 692571 - 693051"  />
<polygon style="fill:white; stroke-width:1; stroke:black; " class="clusterblast-orf" id="subclusterblast-4_q72_0_all" locus_tag="cds693032_693536" points="514,40 514,40 519,35 514,30 514,30 514,40 " description="&lt;b&gt;cds693032_693536&lt;/b&gt;&lt;br&gt;Vitamin B12 ABC transporter, permease protein BtuC&lt;br&gt;Location: 693032 - 693536"  />
<polygon style="fill:white; stroke-width:1; stroke:black; " class="clusterblast-orf" id="subclusterblast-4_q73_0_all" locus_tag="cds693666_694698" points="520,40 526,40 531,35 526,30 520,30 520,40 " description="&lt;b&gt;cds693666_694698&lt;/b&gt;&lt;br&gt;Vitamin B12 ABC transporter, ATP-binding protein BtuD&lt;br&gt;Location: 693666 - 694698"  />
<polygon style="fill:white; stroke-width:1; stroke:black; " class="clusterblast-orf" id="subclusterblast-4_q74_0_all" locus_tag="cds694714_695203" points="531,40 531,40 536,35 531,30 531,30 531,40 " description="&lt;b&gt;cds694714_695203&lt;/b&gt;&lt;br&gt;hypothetical protein&lt;br&gt;Location: 694714 - 695203"  />
<polygon style="fill:white; stroke-width:1; stroke:black; " class="clusterblast-orf" id="subclusterblast-4_q75_0_all" locus_tag="cds695160_695631" points="535,40 535,40 540,35 535,30 535,30 535,40 " description="&lt;b&gt;cds695160_695631&lt;/b&gt;&lt;br&gt;hypothetical protein&lt;br&gt;Location: 695160 - 695631"  />
<polygon style="fill:white; stroke-width:1; stroke:black; " class="clusterblast-orf" id="subclusterblast-4_q76_0_all" locus_tag="cds695594_695822" points="540,40 542,35 540,30 540,40 " description="&lt;b&gt;cds695594_695822&lt;/b&gt;&lt;br&gt;hypothetical protein&lt;br&gt;Location: 695594 - 695822"  />
<polygon style="fill:white; stroke-width:1; stroke:black; " class="clusterblast-orf" id="subclusterblast-4_q77_0_all" locus_tag="cds696602_696986" points="550,40 554,35 550,30 550,40 " description="&lt;b&gt;cds696602_696986&lt;/b&gt;&lt;br&gt;Acyl-CoA hydrolase (EC 3.1.2.20)&lt;br&gt;Location: 696602 - 696986"  />
<polygon style="fill:white; stroke-width:1; stroke:black; " class="clusterblast-orf" id="subclusterblast-4_q78_0_all" locus_tag="cds697297_697465" points="557,35 559,30 559,40 557,35 " description="&lt;b&gt;cds697297_697465&lt;/b&gt;&lt;br&gt;integral membrane efflux protein&lt;br&gt;Location: 697297 - 697465"  />
<polygon style="fill:white; stroke-width:1; stroke:black; " class="clusterblast-orf" id="subclusterblast-4_q79_0_all" locus_tag="cds697510_698446" points="559,35 564,30 569,30 569,40 564,40 559,35 " description="&lt;b&gt;cds697510_698446&lt;/b&gt;&lt;br&gt;Uncharacterized MFS-type transporter&lt;br&gt;Location: 697510 - 698446"  />
<polygon style="fill:white; stroke-width:1; stroke:black; " class="clusterblast-orf" id="subclusterblast-4_q80_0_all" locus_tag="cds698671_699250" points="571,35 576,30 577,30 577,40 576,40 571,35 " description="&lt;b&gt;cds698671_699250&lt;/b&gt;&lt;br&gt;hypothetical protein&lt;br&gt;Location: 698671 - 699250"  />
<polygon style="fill:white; stroke-width:1; stroke:black; " class="clusterblast-orf" id="subclusterblast-4_q81_0_all" locus_tag="cds699246_699672" points="577,35 581,30 581,40 577,35 " description="&lt;b&gt;cds699246_699672&lt;/b&gt;&lt;br&gt;FIG01127596: hypothetical protein&lt;br&gt;Location: 699246 - 699672"  />
<polygon style="fill:white; stroke-width:1; stroke:black; " class="clusterblast-orf" id="subclusterblast-4_q82_0_all" locus_tag="cds700171_700801" points="586,35 591,30 593,30 593,40 591,40 586,35 " description="&lt;b&gt;cds700171_700801&lt;/b&gt;&lt;br&gt;hypothetical protein&lt;br&gt;Location: 700171 - 700801"  />
<polygon style="fill:white; stroke-width:1; stroke:black; " class="clusterblast-orf" id="subclusterblast-4_q83_0_all" locus_tag="cds701354_701546" points="598,35 600,30 600,40 598,35 " description="&lt;b&gt;cds701354_701546&lt;/b&gt;&lt;br&gt;hypothetical protein&lt;br&gt;Location: 701354 - 701546"  />
<polygon style="fill:white; stroke-width:1; stroke:black; " class="clusterblast-orf" id="subclusterblast-4_q84_0_all" locus_tag="cds701527_702727" points="600,35 605,30 612,30 612,40 605,40 600,35 " description="&lt;b&gt;cds701527_702727&lt;/b&gt;&lt;br&gt;hypothetical protein&lt;br&gt;Location: 701527 - 702727"  />
<polygon style="fill:white; stroke-width:1; stroke:black; " class="clusterblast-orf" id="subclusterblast-4_q85_0_all" locus_tag="cds703248_704145" points="618,40 622,40 627,35 622,30 618,30 618,40 " description="&lt;b&gt;cds703248_704145&lt;/b&gt;&lt;br&gt;hypothetical protein&lt;br&gt;Location: 703248 - 704145"  />
<polygon style="fill:white; stroke-width:1; stroke:black; " class="clusterblast-orf" id="subclusterblast-4_q86_0_all" locus_tag="cds704141_704927" points="627,40 630,40 635,35 630,30 627,30 627,40 " description="&lt;b&gt;cds704141_704927&lt;/b&gt;&lt;br&gt;hypothetical protein&lt;br&gt;Location: 704141 - 704927"  />
<polygon style="fill:white; stroke-width:1; stroke:black; " class="clusterblast-orf" id="subclusterblast-4_q87_0_all" locus_tag="cds705120_705915" points="637,35 642,30 645,30 645,40 642,40 637,35 " description="&lt;b&gt;cds705120_705915&lt;/b&gt;&lt;br&gt;Transcriptional regulator, LysR family&lt;br&gt;Location: 705120 - 705915"  />
<polygon style="fill:white; stroke-width:1; stroke:black; " class="clusterblast-orf" id="subclusterblast-4_q88_0_all" locus_tag="cds705953_706514" points="645,40 646,40 651,35 646,30 645,30 645,40 " description="&lt;b&gt;cds705953_706514&lt;/b&gt;&lt;br&gt;Putative oxidoreductase&lt;br&gt;Location: 705953 - 706514"  />
<polygon style="fill:white; stroke-width:1; stroke:black; " class="clusterblast-orf" id="subclusterblast-4_q89_0_all" locus_tag="cds707193_708903" points="658,35 663,30 675,30 675,40 663,40 658,35 " description="&lt;b&gt;cds707193_708903&lt;/b&gt;&lt;br&gt;N5,N10-methylenetetrahydromethanopterin reductase-related protein, SCO6416-type&lt;br&gt;Location: 707193 - 708903"  />
<polygon style="fill:white; stroke-width:1; stroke:black; " class="clusterblast-orf" id="subclusterblast-4_q90_0_all" locus_tag="cds708924_709113" points="675,40 677,35 675,30 675,40 " description="&lt;b&gt;cds708924_709113&lt;/b&gt;&lt;br&gt;hypothetical protein&lt;br&gt;Location: 708924 - 709113"  />
<polygon style="fill:white; stroke-width:1; stroke:black; " class="clusterblast-orf" id="subclusterblast-4_q91_0_all" locus_tag="cds709131_709230" points="677,40 678,35 677,30 677,40 " description="&lt;b&gt;cds709131_709230&lt;/b&gt;&lt;br&gt;hypothetical protein&lt;br&gt;Location: 709131 - 709230"  />
<polygon style="fill:white; stroke-width:1; stroke:black; " class="clusterblast-orf" id="subclusterblast-4_q92_0_all" locus_tag="cds709661_709880" points="683,35 685,30 685,40 683,35 " description="&lt;b&gt;cds709661_709880&lt;/b&gt;&lt;br&gt;Putative aminotransferase&lt;br&gt;Location: 709661 - 709880"  />
<polygon style="fill:white; stroke-width:1; stroke:black; " class="clusterblast-orf" id="subclusterblast-4_q93_0_all" locus_tag="cds709944_710937" points="686,35 691,30 696,30 696,40 691,40 686,35 " description="&lt;b&gt;cds709944_710937&lt;/b&gt;&lt;br&gt;Putative aminotransferase&lt;br&gt;Location: 709944 - 710937"  />
<polygon style="fill:white; stroke-width:1; stroke:black; " class="clusterblast-orf" id="subclusterblast-4_q94_0_all" locus_tag="cds710933_711803" points="696,35 701,30 704,30 704,40 701,40 696,35 " description="&lt;b&gt;cds710933_711803&lt;/b&gt;&lt;br&gt;N-carbamoylputrescine amidase (EC 3.5.1.53) @ Aliphatic amidase AmiE (EC 3.5.1.4)&lt;br&gt;Location: 710933 - 711803"  />
<polygon style="fill:white; stroke-width:1; stroke:black; " class="clusterblast-orf" id="subclusterblast-4_q95_0_all" locus_tag="cds711979_712189" points="706,35 708,30 708,40 706,35 " description="&lt;b&gt;cds711979_712189&lt;/b&gt;&lt;br&gt;hypothetical protein&lt;br&gt;Location: 711979 - 712189"  />
<polygon style="fill:white; stroke-width:1; stroke:black; " class="clusterblast-orf" id="subclusterblast-4_q96_0_all" locus_tag="cds712185_712836" points="708,35 713,30 715,30 715,40 713,40 708,35 " description="&lt;b&gt;cds712185_712836&lt;/b&gt;&lt;br&gt;hypothetical protein&lt;br&gt;Location: 712185 - 712836"  />
<polygon style="fill:white; stroke-width:1; stroke:black; " class="clusterblast-orf" id="subclusterblast-4_q97_0_all" locus_tag="cds712890_713112" points="716,35 718,30 718,40 716,35 " description="&lt;b&gt;cds712890_713112&lt;/b&gt;&lt;br&gt;hypothetical protein&lt;br&gt;Location: 712890 - 713112"  />
<polygon style="fill:white; stroke-width:1; stroke:black; " class="clusterblast-orf" id="subclusterblast-4_q98_0_all" locus_tag="cds713185_713293" points="719,35 720,30 720,40 719,35 " description="&lt;b&gt;cds713185_713293&lt;/b&gt;&lt;br&gt;hypothetical protein&lt;br&gt;Location: 713185 - 713293"  />
<polygon style="fill:white; stroke-width:1; stroke:black; " class="clusterblast-orf" id="subclusterblast-4_q99_0_all" locus_tag="cds713324_714272" points="720,35 725,30 730,30 730,40 725,40 720,35 " description="&lt;b&gt;cds713324_714272&lt;/b&gt;&lt;br&gt;Gamma-glutamyltranspeptidase (EC 2.3.2.2) @ Glutathione hydrolase (EC 3.4.19.13)&lt;br&gt;Location: 713324 - 714272"  />
<polygon style="fill:white; stroke-width:1; stroke:black; " class="clusterblast-orf" id="subclusterblast-4_q100_0_all" locus_tag="cds714341_715022" points="730,35 735,30 737,30 737,40 735,40 730,35 " description="&lt;b&gt;cds714341_715022&lt;/b&gt;&lt;br&gt;Gamma-glutamyltranspeptidase (EC 2.3.2.2) @ Glutathione hydrolase (EC 3.4.19.13)&lt;br&gt;Location: 714341 - 715022"  />
<polygon style="fill:white; stroke-width:1; stroke:black; " class="clusterblast-orf" id="subclusterblast-4_q101_0_all" locus_tag="cds715181_715505" points="739,35 742,30 742,40 739,35 " description="&lt;b&gt;cds715181_715505&lt;/b&gt;&lt;br&gt;hypothetical protein&lt;br&gt;Location: 715181 - 715505"  />
<polygon style="fill:white; stroke-width:1; stroke:black; " class="clusterblast-orf" id="subclusterblast-4_q102_0_all" locus_tag="cds715738_716131" points="744,40 748,35 744,30 744,40 " description="&lt;b&gt;cds715738_716131&lt;/b&gt;&lt;br&gt;putative secreted protein&lt;br&gt;Location: 715738 - 716131"  />
<polygon style="fill:white; stroke-width:1; stroke:black; " class="clusterblast-orf" id="subclusterblast-4_q103_0_all" locus_tag="cds716382_716781" points="751,40 755,35 751,30 751,40 " description="&lt;b&gt;cds716382_716781&lt;/b&gt;&lt;br&gt;putative lipoprotein&lt;br&gt;Location: 716382 - 716781"  />
<polygon style="fill:white; stroke-width:1; stroke:black; " class="clusterblast-orf" id="subclusterblast-4_q104_0_all" locus_tag="cds716777_716930" points="755,40 757,35 755,30 755,40 " description="&lt;b&gt;cds716777_716930&lt;/b&gt;&lt;br&gt;L,D-transpeptidase&lt;br&gt;Location: 716777 - 716930"  />
<polygon style="fill:white; stroke-width:1; stroke:black; " class="clusterblast-orf" id="subclusterblast-4_q105_0_all" locus_tag="cds716947_717598" points="757,40 758,40 763,35 758,30 757,30 757,40 " description="&lt;b&gt;cds716947_717598&lt;/b&gt;&lt;br&gt;L,D-transpeptidase&lt;br&gt;Location: 716947 - 717598"  />
<polygon style="fill:white; stroke-width:1; stroke:black; " class="clusterblast-orf" id="subclusterblast-4_q106_0_all" locus_tag="cds717594_718569" points="763,40 768,40 773,35 768,30 763,30 763,40 " description="&lt;b&gt;cds717594_718569&lt;/b&gt;&lt;br&gt;ABC transporter, ATP-binding protein&lt;br&gt;Location: 717594 - 718569"  />
<polygon style="fill:white; stroke-width:1; stroke:black; " class="clusterblast-orf" id="subclusterblast-4_q107_0_all" locus_tag="cds719014_719191" points="778,40 780,35 778,30 778,40 " description="&lt;b&gt;cds719014_719191&lt;/b&gt;&lt;br&gt;ABC transporter, ATP-binding protein&lt;br&gt;Location: 719014 - 719191"  />
</g>
</svg>
