<svg preserveAspectRatio="none" xmlns="http://www.w3.org/2000/svg" height="230" version="1.1" viewBox="0 0 800 230" y="0" xmlns:xlink="http://www.w3.org/1999/xlink" x="0" width="800"  >
<g class="clusterblast-cluster" label="Query sequence"  >
<text y="20" x="5" class="clusterblast-acc"  >
Query sequence</text>
<line x1="10" y1="35" style="stroke:grey; stroke-width:1; " y2="35" x2="778.0"  />
<polygon id="dummy-1_q0_0_all" style="stroke:black; stroke-width:1; fill:#d81515; " description="&lt;b&gt;cds0_510&lt;/b&gt;&lt;br&gt;hypothetical protein&lt;br&gt;Location: 0 - 510" locus_tag="cds0_510" points="378,40 382,35 378,30 378,40 " class="clusterblast-orf"  />
<polygon id="dummy-1_q1_0_all" style="stroke:black; stroke-width:1; fill:#77d815; " description="&lt;b&gt;cds557_1916&lt;/b&gt;&lt;br&gt;Uncharacterized oxidoreductase&lt;br&gt;Location: 557 - 1916" locus_tag="cds557_1916" points="382,40 386,40 391,35 386,30 382,30 382,40 " class="clusterblast-orf"  />
<polygon id="dummy-1_q2_0_all" style="stroke:black; stroke-width:1; fill:#15d8d8; " description="&lt;b&gt;cds1927_2551&lt;/b&gt;&lt;br&gt;Phenylacetic acid degradation protein PaaY&lt;br&gt;Location: 1927 - 2551" locus_tag="cds1927_2551" points="391,40 395,35 391,30 391,40 " class="clusterblast-orf"  />
<polygon id="dummy-1_q3_0_all" style="stroke:black; stroke-width:1; fill:#7715d8; " description="&lt;b&gt;cds2586_3366&lt;/b&gt;&lt;br&gt;hypothetical protein&lt;br&gt;Location: 2586 - 3366" locus_tag="cds2586_3366" points="396,40 396,40 401,35 396,30 396,30 396,40 " class="clusterblast-orf"  />
</g>
<g description="NZ_LIWA01000013 (4559-119964): Streptomyces sp. CB01883 scaffold13, whole gen... (2% of genes show similarity), NRPS,T1PKS,arylpolyene,butyrolactone,other" class="clusterblast-cluster" label="NZ_LIWA01000013"  >
<text y="70" x="5" class="clusterblast-acc"  >
<a xlink:href="https://antismash-db.secondarymetabolites.org/area.html?record=NZ_LIWA01000013&amp;start=4559&amp;end=119964" target="_blank">NZ_LIWA01000013 (4559-119964)</a>: Streptomyces sp. CB01883 scaffold13, whole gen... (2% of genes show similarity), NRPS,T1PKS,arylpolyene,butyrolactone,other</text>
<line x1="10" y1="85" style="stroke:grey; stroke-width:1; " y2="85" x2="778.0"  />
</g>
<g id="a1_000"  >
<polygon id="dummy-1_h1_5_0" style="stroke:black; stroke-width:1; fill:white; " description="&lt;b&gt;AMK32_RS39630&lt;/b&gt;&lt;br&gt;hypothetical protein&lt;br&gt;Location: 119848 - 119624" locus_tag="AMK32_RS39630" points="0,90 1,85 0,80 0,90 " class="clusterblast-orf"  />
</g>
<g id="a1_001"  >
<polygon id="dummy-1_h1_5_1" style="stroke:black; stroke-width:1; fill:white; " description="&lt;b&gt;AMK32_RS39625&lt;/b&gt;&lt;br&gt;hypothetical protein&lt;br&gt;Location: 119459 - 118464" locus_tag="AMK32_RS39625" points="2,90 4,90 9,85 4,80 2,80 2,90 " class="clusterblast-orf"  />
</g>
<g id="a1_002"  >
<polygon id="dummy-1_h1_5_2" style="stroke:black; stroke-width:1; fill:white; " description="&lt;b&gt;AMK32_RS39620&lt;/b&gt;&lt;br&gt;hypothetical protein&lt;br&gt;Location: 118391 - 118023" locus_tag="AMK32_RS39620" points="9,85 12,80 12,90 9,85 " class="clusterblast-orf"  />
</g>
<g id="a1_003"  >
<polygon id="dummy-1_h1_5_3" style="stroke:black; stroke-width:1; fill:white; " description="&lt;b&gt;AMK32_RS39615&lt;/b&gt;&lt;br&gt;methionine adenosyltransferase&lt;br&gt;Location: 117924 - 116698" locus_tag="AMK32_RS39615" points="13,85 18,80 21,80 21,90 18,90 13,85 " class="clusterblast-orf"  />
</g>
<g id="a1_004"  >
<polygon id="dummy-1_h1_5_4" style="stroke:black; stroke-width:1; fill:white; " description="&lt;b&gt;AMK32_RS39610&lt;/b&gt;&lt;br&gt;MFS transporter&lt;br&gt;Location: 116608 - 115349" locus_tag="AMK32_RS39610" points="22,85 27,80 30,80 30,90 27,90 22,85 " class="clusterblast-orf"  />
</g>
<g id="a1_005"  >
<polygon id="dummy-1_h1_5_5" style="stroke:black; stroke-width:1; fill:white; " description="&lt;b&gt;AMK32_RS39605&lt;/b&gt;&lt;br&gt;4-oxalocrotonate tautomerase family protein&lt;br&gt;Location: 115352 - 115146" locus_tag="AMK32_RS39605" points="30,85 31,80 31,90 30,85 " class="clusterblast-orf"  />
</g>
<g id="a1_006"  >
<polygon id="dummy-1_h1_5_6" style="stroke:black; stroke-width:1; fill:white; " description="&lt;b&gt;AMK32_RS39600&lt;/b&gt;&lt;br&gt;taurine dioxygenase&lt;br&gt;Location: 114841 - 113981" locus_tag="AMK32_RS39600" points="34,90 34,90 39,85 34,80 34,80 34,90 " class="clusterblast-orf"  />
</g>
<g id="a1_007"  >
<polygon id="dummy-1_h1_5_7" style="stroke:black; stroke-width:1; fill:white; " description="&lt;b&gt;AMK32_RS39595&lt;/b&gt;&lt;br&gt;aldolase&lt;br&gt;Location: 113984 - 113187" locus_tag="AMK32_RS39595" points="39,90 40,90 45,85 40,80 39,80 39,90 " class="clusterblast-orf"  />
</g>
<g id="a1_008"  >
<polygon id="dummy-1_h1_5_8" style="stroke:black; stroke-width:1; fill:white; " description="&lt;b&gt;AMK32_RS39590&lt;/b&gt;&lt;br&gt;cysteine synthase family protein&lt;br&gt;Location: 113119 - 112223" locus_tag="AMK32_RS39590" points="45,90 46,90 51,85 46,80 45,80 45,90 " class="clusterblast-orf"  />
</g>
<g id="a1_009"  >
<polygon id="dummy-1_h1_5_9" style="stroke:black; stroke-width:1; fill:white; " description="&lt;b&gt;AMK32_RS39585&lt;/b&gt;&lt;br&gt;asparagine synthase (glutamine-hydrolyzing)&lt;br&gt;Location: 112189 - 110342" locus_tag="AMK32_RS39585" points="52,90 59,90 64,85 59,80 52,80 52,90 " class="clusterblast-orf"  />
</g>
<g id="a1_0010"  >
<polygon id="dummy-1_h1_5_10" style="stroke:black; stroke-width:1; fill:white; " description="&lt;b&gt;AMK32_RS39580&lt;/b&gt;&lt;br&gt;hypothetical protein&lt;br&gt;Location: 110345 - 109284" locus_tag="AMK32_RS39580" points="64,90 66,90 71,85 66,80 64,80 64,90 " class="clusterblast-orf"  />
</g>
<g id="a1_0011"  >
<polygon id="dummy-1_h1_5_11" style="stroke:black; stroke-width:1; fill:white; " description="&lt;b&gt;AMK32_RS39575&lt;/b&gt;&lt;br&gt;acyl-CoA/acyl-ACP dehydrogenase&lt;br&gt;Location: 109287 - 108187" locus_tag="AMK32_RS39575" points="71,90 74,90 79,85 74,80 71,80 71,90 " class="clusterblast-orf"  />
</g>
<g id="a1_0012"  >
<polygon id="dummy-1_h1_5_12" style="stroke:black; stroke-width:1; fill:white; " description="&lt;b&gt;AMK32_RS39570&lt;/b&gt;&lt;br&gt;dihydroorotase family protein&lt;br&gt;Location: 108199 - 106787" locus_tag="AMK32_RS39570" points="79,90 83,90 88,85 83,80 79,80 79,90 " class="clusterblast-orf"  />
</g>
<g id="a1_0013"  >
<polygon id="dummy-1_h1_5_13" style="stroke:black; stroke-width:1; fill:#77d815; " description="&lt;b&gt;AMK32_RS39565&lt;/b&gt;&lt;br&gt;NAD(P)-binding protein&lt;br&gt;Location: 106785 - 104962&lt;br&gt;&lt;br&gt;&lt;b&gt;BlastP hit with cds557_1916&lt;/b&gt;&lt;br&gt;Percentage identity: 36&lt;br&gt;Percentage coverage: 90&lt;br&gt;BLAST bit score: 161&lt;br&gt;E-value: 1.4e-37" locus_tag="AMK32_RS39565" points="88,90 96,90 101,85 96,80 88,80 88,90 " class="clusterblast-orf"  />
</g>
<g id="a1_0014"  >
<polygon id="dummy-1_h1_5_14" style="stroke:black; stroke-width:1; fill:white; " description="&lt;b&gt;AMK32_RS39560&lt;/b&gt;&lt;br&gt;hypothetical protein&lt;br&gt;Location: 104897 - 104562" locus_tag="AMK32_RS39560" points="101,90 103,85 101,80 101,90 " class="clusterblast-orf"  />
</g>
<g id="a1_0015"  >
<polygon id="dummy-1_h1_5_15" style="stroke:black; stroke-width:1; fill:white; " description="&lt;b&gt;AMK32_RS42510&lt;/b&gt;&lt;br&gt;hypothetical protein&lt;br&gt;Location: 104443 - 104258" locus_tag="AMK32_RS42510" points="104,90 105,85 104,80 104,90 " class="clusterblast-orf"  />
</g>
<g id="a1_0016"  >
<polygon id="dummy-1_h1_5_16" style="stroke:black; stroke-width:1; fill:white; " description="&lt;b&gt;AMK32_RS39550&lt;/b&gt;&lt;br&gt;hypothetical protein&lt;br&gt;Location: 104126 - 103149" locus_tag="AMK32_RS39550" points="106,90 108,90 113,85 108,80 106,80 106,90 " class="clusterblast-orf"  />
</g>
<g id="a1_0017"  >
<polygon id="dummy-1_h1_5_17" style="stroke:black; stroke-width:1; fill:white; " description="&lt;b&gt;AMK32_RS39545&lt;/b&gt;&lt;br&gt;MFS transporter&lt;br&gt;Location: 103143 - 101776" locus_tag="AMK32_RS39545" points="113,90 117,90 122,85 117,80 113,80 113,90 " class="clusterblast-orf"  />
</g>
<g id="a1_0018"  >
<polygon id="dummy-1_h1_5_18" style="stroke:black; stroke-width:1; fill:white; " description="&lt;b&gt;AMK32_RS39540&lt;/b&gt;&lt;br&gt;hypothetical protein&lt;br&gt;Location: 101779 - 100754" locus_tag="AMK32_RS39540" points="122,90 124,90 129,85 124,80 122,80 122,90 " class="clusterblast-orf"  />
</g>
<g id="a1_0019"  >
<polygon id="dummy-1_h1_5_19" style="stroke:black; stroke-width:1; fill:white; " description="&lt;b&gt;AMK32_RS39535&lt;/b&gt;&lt;br&gt;glycosyltransferase family 2 protein&lt;br&gt;Location: 100743 - 99961" locus_tag="AMK32_RS39535" points="129,85 134,80 135,80 135,90 134,90 129,85 " class="clusterblast-orf"  />
</g>
<g id="a1_0020"  >
<polygon id="dummy-1_h1_5_20" style="stroke:black; stroke-width:1; fill:white; " description="&lt;b&gt;AMK32_RS39530&lt;/b&gt;&lt;br&gt;hypothetical protein&lt;br&gt;Location: 99964 - 98765" locus_tag="AMK32_RS39530" points="135,85 140,80 143,80 143,90 140,90 135,85 " class="clusterblast-orf"  />
</g>
<g id="a1_0021"  >
<polygon id="dummy-1_h1_5_21" style="stroke:black; stroke-width:1; fill:white; " description="&lt;b&gt;AMK32_RS39525&lt;/b&gt;&lt;br&gt;long-chain fatty acid--CoA ligase&lt;br&gt;Location: 98798 - 97425" locus_tag="AMK32_RS39525" points="142,85 147,80 152,80 152,90 147,90 142,85 " class="clusterblast-orf"  />
</g>
<g id="a1_0022"  >
<polygon id="dummy-1_h1_5_22" style="stroke:black; stroke-width:1; fill:white; " description="&lt;b&gt;AMK32_RS39520&lt;/b&gt;&lt;br&gt;thiamine pyrophosphate-binding protein&lt;br&gt;Location: 97428 - 95725" locus_tag="AMK32_RS39520" points="152,85 157,80 163,80 163,90 157,90 152,85 " class="clusterblast-orf"  />
</g>
<g id="a1_0023"  >
<polygon id="dummy-1_h1_5_23" style="stroke:black; stroke-width:1; fill:white; " description="&lt;b&gt;AMK32_RS39515&lt;/b&gt;&lt;br&gt;hypothetical protein&lt;br&gt;Location: 95728 - 94916" locus_tag="AMK32_RS39515" points="163,85 168,80 169,80 169,90 168,90 163,85 " class="clusterblast-orf"  />
</g>
<g id="a1_0024"  >
<polygon id="dummy-1_h1_5_24" style="stroke:black; stroke-width:1; fill:white; " description="&lt;b&gt;AMK32_RS39510&lt;/b&gt;&lt;br&gt;aldehyde dehydrogenase family protein&lt;br&gt;Location: 94919 - 93693" locus_tag="AMK32_RS39510" points="169,85 174,80 177,80 177,90 174,90 169,85 " class="clusterblast-orf"  />
</g>
<g id="a1_0025"  >
<polygon id="dummy-1_h1_5_25" style="stroke:black; stroke-width:1; fill:white; " description="&lt;b&gt;AMK32_RS39505&lt;/b&gt;&lt;br&gt;HAD-IIIC family phosphatase&lt;br&gt;Location: 93396 - 91264" locus_tag="AMK32_RS39505" points="179,90 189,90 194,85 189,80 179,80 179,90 " class="clusterblast-orf"  />
</g>
<g id="a1_0026"  >
<polygon id="dummy-1_h1_5_26" style="stroke:black; stroke-width:1; fill:white; " description="&lt;b&gt;AMK32_RS39500&lt;/b&gt;&lt;br&gt;NAD-dependent epimerase/dehydratase family protein&lt;br&gt;Location: 91204 - 90293" locus_tag="AMK32_RS39500" points="194,90 195,90 200,85 195,80 194,80 194,90 " class="clusterblast-orf"  />
</g>
<g id="a1_0027"  >
<polygon id="dummy-1_h1_5_27" style="stroke:black; stroke-width:1; fill:white; " description="&lt;b&gt;AMK32_RS39495&lt;/b&gt;&lt;br&gt;GNAT family N-acetyltransferase&lt;br&gt;Location: 90144 - 89224" locus_tag="AMK32_RS39495" points="201,90 203,90 208,85 203,80 201,80 201,90 " class="clusterblast-orf"  />
</g>
<g id="a1_0028"  >
<polygon id="dummy-1_h1_5_28" style="stroke:black; stroke-width:1; fill:white; " description="&lt;b&gt;AMK32_RS39490&lt;/b&gt;&lt;br&gt;ATP-grasp domain-containing protein&lt;br&gt;Location: 88990 - 87737" locus_tag="AMK32_RS39490" points="209,90 213,90 218,85 213,80 209,80 209,90 " class="clusterblast-orf"  />
</g>
<g id="a1_0029"  >
<polygon id="dummy-1_h1_5_29" style="stroke:black; stroke-width:1; fill:white; " description="&lt;b&gt;AMK32_RS39485&lt;/b&gt;&lt;br&gt;ATP-grasp domain-containing protein&lt;br&gt;Location: 87740 - 86472" locus_tag="AMK32_RS39485" points="218,90 221,90 226,85 221,80 218,80 218,90 " class="clusterblast-orf"  />
</g>
<g id="a1_0030"  >
<polygon id="dummy-1_h1_5_30" style="stroke:black; stroke-width:1; fill:white; " description="&lt;b&gt;AMK32_RS39480&lt;/b&gt;&lt;br&gt;serine acetyltransferase&lt;br&gt;Location: 86440 - 85751" locus_tag="AMK32_RS39480" points="226,90 226,90 231,85 226,80 226,80 226,90 " class="clusterblast-orf"  />
</g>
<g id="a1_0031"  >
<polygon id="dummy-1_h1_5_31" style="stroke:black; stroke-width:1; fill:white; " description="&lt;b&gt;AMK32_RS39475&lt;/b&gt;&lt;br&gt;cysteine synthase family protein&lt;br&gt;Location: 85686 - 84724" locus_tag="AMK32_RS39475" points="232,90 233,90 238,85 233,80 232,80 232,90 " class="clusterblast-orf"  />
</g>
<g id="a1_0032"  >
<polygon id="dummy-1_h1_5_32" style="stroke:black; stroke-width:1; fill:white; " description="&lt;b&gt;AMK32_RS39470&lt;/b&gt;&lt;br&gt;ATP-grasp domain-containing protein&lt;br&gt;Location: 84727 - 83495" locus_tag="AMK32_RS39470" points="238,90 241,90 246,85 241,80 238,80 238,90 " class="clusterblast-orf"  />
</g>
<g id="a1_0033"  >
<polygon id="dummy-1_h1_5_33" style="stroke:black; stroke-width:1; fill:white; " description="&lt;b&gt;AMK32_RS39465&lt;/b&gt;&lt;br&gt;MFS transporter&lt;br&gt;Location: 83485 - 82004" locus_tag="AMK32_RS39465" points="247,85 252,80 257,80 257,90 252,90 247,85 " class="clusterblast-orf"  />
</g>
<g id="a1_0034"  >
<polygon id="dummy-1_h1_5_34" style="stroke:black; stroke-width:1; fill:white; " description="&lt;b&gt;AMK32_RS39460&lt;/b&gt;&lt;br&gt;cytochrome P450&lt;br&gt;Location: 81795 - 80521" locus_tag="AMK32_RS39460" points="258,90 262,90 267,85 262,80 258,80 258,90 " class="clusterblast-orf"  />
</g>
<g id="a1_0035"  >
<polygon id="dummy-1_h1_5_35" style="stroke:black; stroke-width:1; fill:white; " description="&lt;b&gt;AMK32_RS39455&lt;/b&gt;&lt;br&gt;reactive intermediate/imine deaminase&lt;br&gt;Location: 80524 - 79496" locus_tag="AMK32_RS39455" points="267,90 269,90 274,85 269,80 267,80 267,90 " class="clusterblast-orf"  />
</g>
<g id="a1_0036"  >
<polygon id="dummy-1_h1_5_36" style="stroke:black; stroke-width:1; fill:white; " description="&lt;b&gt;AMK32_RS39450&lt;/b&gt;&lt;br&gt;AMP-binding protein&lt;br&gt;Location: 79499 - 78015" locus_tag="AMK32_RS39450" points="274,90 279,90 284,85 279,80 274,80 274,90 " class="clusterblast-orf"  />
</g>
<g id="a1_0037"  >
<polygon id="dummy-1_h1_5_37" style="stroke:black; stroke-width:1; fill:white; " description="&lt;b&gt;AMK32_RS39445&lt;/b&gt;&lt;br&gt;tyrosine 2,3-aminomutase&lt;br&gt;Location: 77933 - 76320" locus_tag="AMK32_RS39445" points="284,90 290,90 295,85 290,80 284,80 284,90 " class="clusterblast-orf"  />
</g>
<g id="a1_0038"  >
<polygon id="dummy-1_h1_5_38" style="stroke:black; stroke-width:1; fill:white; " description="&lt;b&gt;AMK32_RS39440&lt;/b&gt;&lt;br&gt;MFS transporter&lt;br&gt;Location: 76239 - 74662" locus_tag="AMK32_RS39440" points="296,85 301,80 306,80 306,90 301,90 296,85 " class="clusterblast-orf"  />
</g>
<g id="a1_0039"  >
<polygon id="dummy-1_h1_5_39" style="stroke:black; stroke-width:1; fill:white; " description="&lt;b&gt;AMK32_RS39435&lt;/b&gt;&lt;br&gt;macromomycin&lt;br&gt;Location: 74376 - 73936" locus_tag="AMK32_RS39435" points="308,90 311,85 308,80 308,90 " class="clusterblast-orf"  />
</g>
<g id="a1_0040"  >
<polygon id="dummy-1_h1_5_40" style="stroke:black; stroke-width:1; fill:white; " description="&lt;b&gt;AMK32_RS39430&lt;/b&gt;&lt;br&gt;FAD-binding protein&lt;br&gt;Location: 73777 - 72392" locus_tag="AMK32_RS39430" points="312,85 317,80 322,80 322,90 317,90 312,85 " class="clusterblast-orf"  />
</g>
<g id="a1_0041"  >
<polygon id="dummy-1_h1_5_41" style="stroke:black; stroke-width:1; fill:white; " description="&lt;b&gt;AMK32_RS39425&lt;/b&gt;&lt;br&gt;class I SAM-dependent methyltransferase&lt;br&gt;Location: 72341 - 70803" locus_tag="AMK32_RS39425" points="322,85 327,80 333,80 333,90 327,90 322,85 " class="clusterblast-orf"  />
</g>
<g id="a1_0042"  >
<polygon id="dummy-1_h1_5_42" style="stroke:black; stroke-width:1; fill:white; " description="&lt;b&gt;AMK32_RS39420&lt;/b&gt;&lt;br&gt;epoxide hydrolase&lt;br&gt;Location: 70516 - 69347" locus_tag="AMK32_RS39420" points="335,90 338,90 343,85 338,80 335,80 335,90 " class="clusterblast-orf"  />
</g>
<g id="a1_0043"  >
<polygon id="dummy-1_h1_5_43" style="stroke:black; stroke-width:1; fill:white; " description="&lt;b&gt;AMK32_RS39415&lt;/b&gt;&lt;br&gt;extracellular solute-binding protein&lt;br&gt;Location: 69293 - 67893" locus_tag="AMK32_RS39415" points="343,90 347,90 352,85 347,80 343,80 343,90 " class="clusterblast-orf"  />
</g>
<g id="a1_0044"  >
<polygon id="dummy-1_h1_5_44" style="stroke:black; stroke-width:1; fill:white; " description="&lt;b&gt;AMK32_RS39410&lt;/b&gt;&lt;br&gt;hypothetical protein&lt;br&gt;Location: 67816 - 67577" locus_tag="AMK32_RS39410" points="353,85 355,80 355,90 353,85 " class="clusterblast-orf"  />
</g>
<g id="a1_0045"  >
<polygon id="dummy-1_h1_5_45" style="stroke:black; stroke-width:1; fill:white; " description="&lt;b&gt;AMK32_RS39405&lt;/b&gt;&lt;br&gt;AMP-binding protein&lt;br&gt;Location: 67605 - 66298" locus_tag="AMK32_RS39405" points="354,85 359,80 363,80 363,90 359,90 354,85 " class="clusterblast-orf"  />
</g>
<g id="a1_0046"  >
<polygon id="dummy-1_h1_5_46" style="stroke:black; stroke-width:1; fill:white; " description="&lt;b&gt;AMK32_RS39400&lt;/b&gt;&lt;br&gt;aminodeoxychorismate/anthranilate synthase component II&lt;br&gt;Location: 66203 - 65487" locus_tag="AMK32_RS39400" points="364,85 369,80 369,80 369,90 369,90 364,85 " class="clusterblast-orf"  />
</g>
<g id="a1_0047"  >
<polygon id="dummy-1_h1_5_47" style="stroke:black; stroke-width:1; fill:white; " description="&lt;b&gt;AMK32_RS39395&lt;/b&gt;&lt;br&gt;anthranilate synthase component I family protein&lt;br&gt;Location: 65553 - 64075" locus_tag="AMK32_RS39395" points="368,85 373,80 378,80 378,90 373,90 368,85 " class="clusterblast-orf"  />
</g>
<g id="a1_0048"  >
<polygon id="dummy-1_h1_5_48" style="stroke:black; stroke-width:1; fill:white; " description="&lt;b&gt;AMK32_RS39390&lt;/b&gt;&lt;br&gt;phenylacetate--CoA ligase family protein&lt;br&gt;Location: 64058 - 62616" locus_tag="AMK32_RS39390" points="378,85 383,80 388,80 388,90 383,90 378,85 " class="clusterblast-orf"  />
</g>
<g id="a1_0049"  >
<polygon id="dummy-1_h1_5_49" style="stroke:black; stroke-width:1; fill:white; " description="&lt;b&gt;AMK32_RS39385&lt;/b&gt;&lt;br&gt;flavodoxin family protein&lt;br&gt;Location: 62619 - 61948" locus_tag="AMK32_RS39385" points="388,85 393,80 393,80 393,90 393,90 388,85 " class="clusterblast-orf"  />
</g>
<g id="a1_0050"  >
<polygon id="dummy-1_h1_5_50" style="stroke:black; stroke-width:1; fill:white; " description="&lt;b&gt;AMK32_RS39380&lt;/b&gt;&lt;br&gt;cytochrome P450&lt;br&gt;Location: 61700 - 60456" locus_tag="AMK32_RS39380" points="395,85 400,80 403,80 403,90 400,90 395,85 " class="clusterblast-orf"  />
</g>
<g id="a1_0051"  >
<polygon id="dummy-1_h1_5_51" style="stroke:black; stroke-width:1; fill:white; " description="&lt;b&gt;AMK32_RS39375&lt;/b&gt;&lt;br&gt;methyltransferase&lt;br&gt;Location: 60459 - 59494" locus_tag="AMK32_RS39375" points="403,85 408,80 410,80 410,90 408,90 403,85 " class="clusterblast-orf"  />
</g>
<g id="a1_0052"  >
<polygon id="dummy-1_h1_5_52" style="stroke:black; stroke-width:1; fill:white; " description="&lt;b&gt;AMK32_RS39370&lt;/b&gt;&lt;br&gt;MMPL family transporter&lt;br&gt;Location: 59323 - 57221" locus_tag="AMK32_RS39370" points="411,85 416,80 425,80 425,90 416,90 411,85 " class="clusterblast-orf"  />
</g>
<g id="a1_0053"  >
<polygon id="dummy-1_h1_5_53" style="stroke:black; stroke-width:1; fill:white; " description="&lt;b&gt;AMK32_RS39365&lt;/b&gt;&lt;br&gt;alpha/beta hydrolase&lt;br&gt;Location: 57014 - 56226" locus_tag="AMK32_RS39365" points="426,85 431,80 432,80 432,90 431,90 426,85 " class="clusterblast-orf"  />
</g>
<g id="a1_0054"  >
<polygon id="dummy-1_h1_5_54" style="stroke:black; stroke-width:1; fill:white; " description="&lt;b&gt;AMK32_RS39360&lt;/b&gt;&lt;br&gt;acyltransferase&lt;br&gt;Location: 56041 - 54746" locus_tag="AMK32_RS39360" points="433,85 438,80 442,80 442,90 438,90 433,85 " class="clusterblast-orf"  />
</g>
<g id="a1_0055"  >
<polygon id="dummy-1_h1_5_55" style="stroke:black; stroke-width:1; fill:white; " description="&lt;b&gt;AMK32_RS39355&lt;/b&gt;&lt;br&gt;non-ribosomal peptide synthetase&lt;br&gt;Location: 54507 - 52738" locus_tag="AMK32_RS39355" points="443,90 450,90 455,85 450,80 443,80 443,90 " class="clusterblast-orf"  />
</g>
<g id="a1_0056"  >
<polygon id="dummy-1_h1_5_56" style="stroke:black; stroke-width:1; fill:white; " description="&lt;b&gt;AMK32_RS39350&lt;/b&gt;&lt;br&gt;MbtH family protein&lt;br&gt;Location: 52741 - 52532" locus_tag="AMK32_RS39350" points="455,90 457,85 455,80 455,90 " class="clusterblast-orf"  />
</g>
<g id="a1_0057"  >
<polygon id="dummy-1_h1_5_57" style="stroke:black; stroke-width:1; fill:white; " description="&lt;b&gt;AMK32_RS39345&lt;/b&gt;&lt;br&gt;peptide synthase&lt;br&gt;Location: 52473 - 51100" locus_tag="AMK32_RS39345" points="457,90 462,90 467,85 462,80 457,80 457,90 " class="clusterblast-orf"  />
</g>
<g id="a1_0058"  >
<polygon id="dummy-1_h1_5_58" style="stroke:black; stroke-width:1; fill:white; " description="&lt;b&gt;AMK32_RS39340&lt;/b&gt;&lt;br&gt;acyl-CoA dehydrogenase&lt;br&gt;Location: 51054 - 49822" locus_tag="AMK32_RS39340" points="467,90 470,90 475,85 470,80 467,80 467,90 " class="clusterblast-orf"  />
</g>
<g id="a1_0059"  >
<polygon id="dummy-1_h1_5_59" style="stroke:black; stroke-width:1; fill:white; " description="&lt;b&gt;AMK32_RS39335&lt;/b&gt;&lt;br&gt;cytochrome P450&lt;br&gt;Location: 49750 - 48500" locus_tag="AMK32_RS39335" points="476,90 479,90 484,85 479,80 476,80 476,90 " class="clusterblast-orf"  />
</g>
<g id="a1_0060"  >
<polygon id="dummy-1_h1_5_60" style="stroke:black; stroke-width:1; fill:white; " description="&lt;b&gt;AMK32_RS39330&lt;/b&gt;&lt;br&gt;FAD-dependent oxidoreductase&lt;br&gt;Location: 48322 - 46976" locus_tag="AMK32_RS39330" points="485,85 490,80 495,80 495,90 490,90 485,85 " class="clusterblast-orf"  />
</g>
<g id="a1_0061"  >
<polygon id="dummy-1_h1_5_61" style="stroke:black; stroke-width:1; fill:white; " description="&lt;b&gt;AMK32_RS39325&lt;/b&gt;&lt;br&gt;SgcJ/EcaC family oxidoreductase&lt;br&gt;Location: 46944 - 46519" locus_tag="AMK32_RS39325" points="495,85 498,80 498,90 495,85 " class="clusterblast-orf"  />
</g>
<g id="a1_0062"  >
<polygon id="dummy-1_h1_5_62" style="stroke:black; stroke-width:1; fill:white; " description="&lt;b&gt;AMK32_RS39320&lt;/b&gt;&lt;br&gt;acyl-CoA dehydrogenase&lt;br&gt;Location: 46458 - 45277" locus_tag="AMK32_RS39320" points="498,85 503,80 506,80 506,90 503,90 498,85 " class="clusterblast-orf"  />
</g>
<g id="a1_0063"  >
<polygon id="dummy-1_h1_5_63" style="stroke:black; stroke-width:1; fill:white; " description="&lt;b&gt;AMK32_RS39315&lt;/b&gt;&lt;br&gt;Pyoverdin chromophore biosynthetic protein pvcC&lt;br&gt;Location: 45065 - 43485" locus_tag="AMK32_RS39315" points="508,90 513,90 518,85 513,80 508,80 508,90 " class="clusterblast-orf"  />
</g>
<g id="a1_0064"  >
<polygon id="dummy-1_h1_5_64" style="stroke:black; stroke-width:1; fill:white; " description="&lt;b&gt;AMK32_RS39310&lt;/b&gt;&lt;br&gt;thiamine pyrophosphate-binding protein&lt;br&gt;Location: 43477 - 41828" locus_tag="AMK32_RS39310" points="518,85 523,80 530,80 530,90 523,90 518,85 " class="clusterblast-orf"  />
</g>
<g id="a1_0065"  >
<polygon id="dummy-1_h1_5_65" style="stroke:black; stroke-width:1; fill:white; " description="&lt;b&gt;AMK32_RS39305&lt;/b&gt;&lt;br&gt;methyltransferase domain-containing protein&lt;br&gt;Location: 41707 - 40709" locus_tag="AMK32_RS39305" points="530,85 535,80 537,80 537,90 535,90 530,85 " class="clusterblast-orf"  />
</g>
<g id="a1_0066"  >
<polygon id="dummy-1_h1_5_66" style="stroke:black; stroke-width:1; fill:white; " description="&lt;b&gt;AMK32_RS39300&lt;/b&gt;&lt;br&gt;hypothetical protein&lt;br&gt;Location: 40582 - 40331" locus_tag="AMK32_RS39300" points="538,85 540,80 540,90 538,85 " class="clusterblast-orf"  />
</g>
<g id="a1_0067"  >
<polygon id="dummy-1_h1_5_67" style="stroke:black; stroke-width:1; fill:white; " description="&lt;b&gt;AMK32_RS39295&lt;/b&gt;&lt;br&gt;prephenate dehydrogenase/arogenate dehydrogenase family protein&lt;br&gt;Location: 40320 - 39427" locus_tag="AMK32_RS39295" points="540,85 545,80 546,80 546,90 545,90 540,85 " class="clusterblast-orf"  />
</g>
<g id="a1_0068"  >
<polygon id="dummy-1_h1_5_68" style="stroke:black; stroke-width:1; fill:white; " description="&lt;b&gt;AMK32_RS39290&lt;/b&gt;&lt;br&gt;TIGR03084 family protein&lt;br&gt;Location: 39297 - 38488" locus_tag="AMK32_RS39290" points="547,85 552,80 552,80 552,90 552,90 547,85 " class="clusterblast-orf"  />
</g>
<g id="a1_0069"  >
<polygon id="dummy-1_h1_5_69" style="stroke:black; stroke-width:1; fill:white; " description="&lt;b&gt;AMK32_RS39285&lt;/b&gt;&lt;br&gt;alkylhydroperoxidase&lt;br&gt;Location: 38431 - 37391" locus_tag="AMK32_RS39285" points="553,85 558,80 560,80 560,90 558,90 553,85 " class="clusterblast-orf"  />
</g>
<g id="a1_0070"  >
<polygon id="dummy-1_h1_5_70" style="stroke:black; stroke-width:1; fill:white; " description="&lt;b&gt;AMK32_RS39280&lt;/b&gt;&lt;br&gt;GMC family oxidoreductase&lt;br&gt;Location: 37281 - 35614" locus_tag="AMK32_RS39280" points="560,85 565,80 572,80 572,90 565,90 560,85 " class="clusterblast-orf"  />
</g>
<g id="a1_0071"  >
<polygon id="dummy-1_h1_5_71" style="stroke:black; stroke-width:1; fill:white; " description="&lt;b&gt;AMK32_RS39275&lt;/b&gt;&lt;br&gt;regulator&lt;br&gt;Location: 35617 - 35039" locus_tag="AMK32_RS39275" points="572,85 576,80 576,90 572,85 " class="clusterblast-orf"  />
</g>
<g id="a1_0072"  >
<polygon id="dummy-1_h1_5_72" style="stroke:black; stroke-width:1; fill:white; " description="&lt;b&gt;AMK32_RS39270&lt;/b&gt;&lt;br&gt;ParB N-terminal domain-containing protein&lt;br&gt;Location: 34720 - 33671" locus_tag="AMK32_RS39270" points="578,90 580,90 585,85 580,80 578,80 578,90 " class="clusterblast-orf"  />
</g>
<g id="a1_0073"  >
<polygon id="dummy-1_h1_5_73" style="stroke:black; stroke-width:1; fill:white; " description="&lt;b&gt;AMK32_RS39265&lt;/b&gt;&lt;br&gt;helix-turn-helix transcriptional regulator&lt;br&gt;Location: 33650 - 32874" locus_tag="AMK32_RS39265" points="585,90 585,90 590,85 585,80 585,80 585,90 " class="clusterblast-orf"  />
</g>
<g id="a1_0074"  >
<polygon id="dummy-1_h1_5_74" style="stroke:black; stroke-width:1; fill:white; " description="&lt;b&gt;AMK32_RS39260&lt;/b&gt;&lt;br&gt;cytochrome P450&lt;br&gt;Location: 32795 - 31446" locus_tag="AMK32_RS39260" points="591,85 596,80 600,80 600,90 596,90 591,85 " class="clusterblast-orf"  />
</g>
<g id="a1_0075"  >
<polygon id="dummy-1_h1_5_75" style="stroke:black; stroke-width:1; fill:#d81515; " description="&lt;b&gt;AMK32_RS39255&lt;/b&gt;&lt;br&gt;flavin reductase family protein&lt;br&gt;Location: 31449 - 30904&lt;br&gt;&lt;br&gt;&lt;b&gt;BlastP hit with cds0_510&lt;/b&gt;&lt;br&gt;Percentage identity: 36&lt;br&gt;Percentage coverage: 99&lt;br&gt;BLAST bit score: 94&lt;br&gt;E-value: 1e-17" locus_tag="AMK32_RS39255" points="600,85 604,80 604,90 600,85 " class="clusterblast-orf"  />
</g>
<g id="a1_0076"  >
<polygon id="dummy-1_h1_5_76" style="stroke:black; stroke-width:1; fill:white; " description="&lt;b&gt;AMK32_RS39250&lt;/b&gt;&lt;br&gt;acyl-CoA thioesterase&lt;br&gt;Location: 30907 - 30449" locus_tag="AMK32_RS39250" points="604,85 607,80 607,90 604,85 " class="clusterblast-orf"  />
</g>
<g id="a1_0077"  >
<polygon id="dummy-1_h1_5_77" style="stroke:black; stroke-width:1; fill:white; " description="&lt;b&gt;AMK32_RS39245&lt;/b&gt;&lt;br&gt;type I polyketide synthase&lt;br&gt;Location: 30445 - 24560" locus_tag="AMK32_RS39245" points="607,85 612,80 647,80 647,90 612,90 607,85 " class="clusterblast-orf"  />
</g>
<g id="a1_0078"  >
<polygon id="dummy-1_h1_5_78" style="stroke:black; stroke-width:1; fill:white; " description="&lt;b&gt;AMK32_RS39240&lt;/b&gt;&lt;br&gt;enediyne biosynthesis protein&lt;br&gt;Location: 24563 - 23445" locus_tag="AMK32_RS39240" points="647,85 652,80 654,80 654,90 652,90 647,85 " class="clusterblast-orf"  />
</g>
<g id="a1_0079"  >
<polygon id="dummy-1_h1_5_79" style="stroke:black; stroke-width:1; fill:white; " description="&lt;b&gt;AMK32_RS39235&lt;/b&gt;&lt;br&gt;CRTAC1 family protein&lt;br&gt;Location: 23442 - 21592" locus_tag="AMK32_RS39235" points="654,85 659,80 667,80 667,90 659,90 654,85 " class="clusterblast-orf"  />
</g>
<g id="a1_0080"  >
<polygon id="dummy-1_h1_5_80" style="stroke:black; stroke-width:1; fill:white; " description="&lt;b&gt;AMK32_RS39230&lt;/b&gt;&lt;br&gt;DUF1702 family protein&lt;br&gt;Location: 21535 - 20546" locus_tag="AMK32_RS39230" points="667,85 672,80 674,80 674,90 672,90 667,85 " class="clusterblast-orf"  />
</g>
<g id="a1_0081"  >
<polygon id="dummy-1_h1_5_81" style="stroke:black; stroke-width:1; fill:white; " description="&lt;b&gt;AMK32_RS39225&lt;/b&gt;&lt;br&gt;DUF1702 family protein&lt;br&gt;Location: 20455 - 19478" locus_tag="AMK32_RS39225" points="675,85 680,80 681,80 681,90 680,90 675,85 " class="clusterblast-orf"  />
</g>
<g id="a1_0082"  >
<polygon id="dummy-1_h1_5_82" style="stroke:black; stroke-width:1; fill:white; " description="&lt;b&gt;AMK32_RS39220&lt;/b&gt;&lt;br&gt;helix-turn-helix transcriptional regulator&lt;br&gt;Location: 19374 - 18931" locus_tag="AMK32_RS39220" points="682,85 685,80 685,90 682,85 " class="clusterblast-orf"  />
</g>
<g id="a1_0083"  >
<polygon id="dummy-1_h1_5_83" style="stroke:black; stroke-width:1; fill:white; " description="&lt;b&gt;AMK32_RS39215&lt;/b&gt;&lt;br&gt;transcriptional regulator&lt;br&gt;Location: 18856 - 17651" locus_tag="AMK32_RS39215" points="686,85 691,80 694,80 694,90 691,90 686,85 " class="clusterblast-orf"  />
</g>
<g id="a1_0084"  >
<polygon id="dummy-1_h1_5_84" style="stroke:black; stroke-width:1; fill:white; " description="&lt;b&gt;AMK32_RS39210&lt;/b&gt;&lt;br&gt;TetR/AcrR family transcriptional regulator&lt;br&gt;Location: 17208 - 16564" locus_tag="AMK32_RS39210" points="697,90 701,85 697,80 697,90 " class="clusterblast-orf"  />
</g>
<g id="a1_0085"  >
<polygon id="dummy-1_h1_5_85" style="stroke:black; stroke-width:1; fill:white; " description="&lt;b&gt;AMK32_RS39205&lt;/b&gt;&lt;br&gt;NAD-dependent epimerase/dehydratase family protein&lt;br&gt;Location: 16596 - 15625" locus_tag="AMK32_RS39205" points="701,85 706,80 708,80 708,90 706,90 701,85 " class="clusterblast-orf"  />
</g>
<g id="a1_0086"  >
<polygon id="dummy-1_h1_5_86" style="stroke:black; stroke-width:1; fill:white; " description="&lt;b&gt;AMK32_RS39200&lt;/b&gt;&lt;br&gt;TetR/AcrR family transcriptional regulator&lt;br&gt;Location: 15628 - 15002" locus_tag="AMK32_RS39200" points="707,85 712,80 712,80 712,90 712,90 707,85 " class="clusterblast-orf"  />
</g>
<g id="a1_0087"  >
<polygon id="dummy-1_h1_5_87" style="stroke:black; stroke-width:1; fill:white; " description="&lt;b&gt;AMK32_RS39195&lt;/b&gt;&lt;br&gt;transcriptional regulator&lt;br&gt;Location: 14821 - 13937" locus_tag="AMK32_RS39195" points="713,90 714,90 719,85 714,80 713,80 713,90 " class="clusterblast-orf"  />
</g>
<g id="a1_0088"  >
<polygon id="dummy-1_h1_5_88" style="stroke:black; stroke-width:1; fill:white; " description="&lt;b&gt;AMK32_RS41165&lt;/b&gt;&lt;br&gt;hypothetical protein&lt;br&gt;Location: 13481 - 12012" locus_tag="AMK32_RS41165" points="722,90 727,90 732,85 727,80 722,80 722,90 " class="clusterblast-orf"  />
</g>
<g id="a1_0089"  >
<polygon id="dummy-1_h1_5_89" style="stroke:black; stroke-width:1; fill:white; " description="&lt;b&gt;AMK32_RS39180&lt;/b&gt;&lt;br&gt;hypothetical protein&lt;br&gt;Location: 11961 - 11161" locus_tag="AMK32_RS39180" points="732,85 737,80 738,80 738,90 737,90 732,85 " class="clusterblast-orf"  />
</g>
<g id="a1_0090"  >
<polygon id="dummy-1_h1_5_90" style="stroke:black; stroke-width:1; fill:white; " description="&lt;b&gt;AMK32_RS39175&lt;/b&gt;&lt;br&gt;ParB/RepB/Spo0J family partition protein&lt;br&gt;Location: 10270 - 8963" locus_tag="AMK32_RS39175" points="744,85 749,80 753,80 753,90 749,90 744,85 " class="clusterblast-orf"  />
</g>
<g id="a1_0091"  >
<polygon id="dummy-1_h1_5_91" style="stroke:black; stroke-width:1; fill:white; " description="&lt;b&gt;AMK32_RS39170&lt;/b&gt;&lt;br&gt;ParA family protein&lt;br&gt;Location: 8966 - 7701" locus_tag="AMK32_RS39170" points="753,85 758,80 761,80 761,90 758,90 753,85 " class="clusterblast-orf"  />
</g>
<g id="a1_0092"  >
<polygon id="dummy-1_h1_5_92" style="stroke:black; stroke-width:1; fill:white; " description="&lt;b&gt;AMK32_RS39165&lt;/b&gt;&lt;br&gt;helix-turn-helix domain-containing protein&lt;br&gt;Location: 7194 - 5029" locus_tag="AMK32_RS39165" points="765,90 775,90 780,85 775,80 765,80 765,90 " class="clusterblast-orf"  />
</g>
</svg>
