<svg preserveAspectRatio="none" xmlns="http://www.w3.org/2000/svg" height="230" version="1.1" viewBox="0 0 800 230" y="0" xmlns:xlink="http://www.w3.org/1999/xlink" x="0" width="800"  >
<g class="clusterblast-cluster" label="Query sequence"  >
<text y="20" x="5" class="clusterblast-acc"  >
Query sequence</text>
<line x1="10" y1="35" style="stroke:grey; stroke-width:1; " y2="35" x2="778.0"  />
<polygon id="dummy-1_q0_0_all" style="stroke:black; stroke-width:1; fill:#d81515; " description="&lt;b&gt;cds0_216&lt;/b&gt;&lt;br&gt;hypothetical protein&lt;br&gt;Location: 0 - 216" locus_tag="cds0_216" points="336,40 340,35 336,30 336,40 " class="clusterblast-orf"  />
<polygon id="dummy-1_q1_0_all" style="stroke:black; stroke-width:1; fill:#d81515; " description="&lt;b&gt;cds300_924&lt;/b&gt;&lt;br&gt;hypothetical protein&lt;br&gt;Location: 300 - 924" locus_tag="cds300_924" points="342,40 349,40 354,35 349,30 342,30 342,40 " class="clusterblast-orf"  />
<polygon id="dummy-1_q2_0_all" style="stroke:black; stroke-width:1; fill:#15d863; " description="&lt;b&gt;cds1000_2035&lt;/b&gt;&lt;br&gt;hypothetical protein&lt;br&gt;Location: 1000 - 2035" locus_tag="cds1000_2035" points="355,40 370,40 375,35 370,30 355,30 355,40 " class="clusterblast-orf"  />
<polygon id="dummy-1_q3_0_all" style="stroke:black; stroke-width:1; fill:#1563d8; " description="&lt;b&gt;cds2115_2772&lt;/b&gt;&lt;br&gt;HAD-superfamily hydrolase subfamily IA, variant 3&lt;br&gt;Location: 2115 - 2772" locus_tag="cds2115_2772" points="376,40 384,40 389,35 384,30 376,30 376,40 " class="clusterblast-orf"  />
<polygon id="dummy-1_q4_0_all" style="stroke:black; stroke-width:1; fill:#b115d8; " description="&lt;b&gt;cds2816_4034&lt;/b&gt;&lt;br&gt;putative cytochrome P450 hydroxylase&lt;br&gt;Location: 2816 - 4034" locus_tag="cds2816_4034" points="390,40 408,40 413,35 408,30 390,30 390,40 " class="clusterblast-orf"  />
<polygon id="dummy-1_q5_0_all" style="stroke:black; stroke-width:1; fill:#b1d815; " description="&lt;b&gt;cds4105_5629&lt;/b&gt;&lt;br&gt;hypothetical protein&lt;br&gt;Location: 4105 - 5629" locus_tag="cds4105_5629" points="414,35 419,30 443,30 443,40 419,40 414,35 " class="clusterblast-orf"  />
</g>
<g description="NZ_CP043638 (3944933-3985968): Streptomyces sp. INR7 chromosome, complete genome (13% of genes show similarity), NRPS-like,butyrolactone" class="clusterblast-cluster" label="NZ_CP043638"  >
<text y="70" x="5" class="clusterblast-acc"  >
<a xlink:href="https://antismash-db.secondarymetabolites.org/area.html?record=NZ_CP043638&amp;start=3944933&amp;end=3985968" target="_blank">NZ_CP043638 (3944933-3985968)</a>: Streptomyces sp. INR7 chromosome, complete genome (13% of genes show similarity), NRPS-like,butyrolactone</text>
<line x1="10" y1="85" style="stroke:grey; stroke-width:1; " y2="85" x2="778.0"  />
</g>
<g id="a1_000"  >
<polygon id="dummy-1_h1_6_0" style="stroke:black; stroke-width:1; fill:white; " description="&lt;b&gt;F1D59_RS17780&lt;/b&gt;&lt;br&gt;decarboxylating 6-phosphogluconate dehydrogenase&lt;br&gt;Location: 3985968 - 3985093" locus_tag="F1D59_RS17780" points="0,90 11,90 16,85 11,80 0,80 0,90 " class="clusterblast-orf"  />
</g>
<g id="a1_001"  >
<polygon id="dummy-1_h1_6_1" style="stroke:black; stroke-width:1; fill:white; " description="&lt;b&gt;F1D59_RS17775&lt;/b&gt;&lt;br&gt;DNA replication/repair protein RecF&lt;br&gt;Location: 3985035 - 3983899" locus_tag="F1D59_RS17775" points="17,90 34,90 39,85 34,80 17,80 17,90 " class="clusterblast-orf"  />
</g>
<g id="a1_002"  >
<polygon id="dummy-1_h1_6_2" style="stroke:black; stroke-width:1; fill:white; " description="&lt;b&gt;F1D59_RS17770&lt;/b&gt;&lt;br&gt;DUF721 domain-containing protein&lt;br&gt;Location: 3983902 - 3983348" locus_tag="F1D59_RS17770" points="39,90 44,90 49,85 44,80 39,80 39,90 " class="clusterblast-orf"  />
</g>
<g id="a1_003"  >
<polygon id="dummy-1_h1_6_3" style="stroke:black; stroke-width:1; fill:white; " description="&lt;b&gt;F1D59_RS17765&lt;/b&gt;&lt;br&gt;DNA topoisomerase (ATP-hydrolyzing) subunit B&lt;br&gt;Location: 3983042 - 3981021" locus_tag="F1D59_RS17765" points="55,90 89,90 94,85 89,80 55,80 55,90 " class="clusterblast-orf"  />
</g>
<g id="a1_004"  >
<polygon id="dummy-1_h1_6_4" style="stroke:black; stroke-width:1; fill:white; " description="&lt;b&gt;F1D59_RS17760&lt;/b&gt;&lt;br&gt;DNA gyrase subunit A&lt;br&gt;Location: 3980977 - 3978371" locus_tag="F1D59_RS17760" points="94,90 139,90 144,85 139,80 94,80 94,90 " class="clusterblast-orf"  />
</g>
<g id="a1_005"  >
<polygon id="dummy-1_h1_6_5" style="stroke:black; stroke-width:1; fill:white; " description="&lt;b&gt;F1D59_RS17755&lt;/b&gt;&lt;br&gt;DUF3566 domain-containing protein&lt;br&gt;Location: 3978367 - 3977720" locus_tag="F1D59_RS17755" points="144,90 151,90 156,85 151,80 144,80 144,90 " class="clusterblast-orf"  />
</g>
<g id="a1_006"  >
<polygon id="dummy-1_h1_6_6" style="stroke:black; stroke-width:1; fill:white; " description="&lt;b&gt;F1D59_RS17745&lt;/b&gt;&lt;br&gt;hypothetical protein&lt;br&gt;Location: 3977499 - 3977248" locus_tag="F1D59_RS17745" points="160,90 160,90 165,85 160,80 160,80 160,90 " class="clusterblast-orf"  />
</g>
<g id="a1_007"  >
<polygon id="dummy-1_h1_6_7" style="stroke:black; stroke-width:1; fill:white; " description="&lt;b&gt;F1D59_RS17740&lt;/b&gt;&lt;br&gt;hypothetical protein&lt;br&gt;Location: 3977159 - 3975816" locus_tag="F1D59_RS17740" points="167,90 187,90 192,85 187,80 167,80 167,90 " class="clusterblast-orf"  />
</g>
<g id="a1_008"  >
<polygon id="dummy-1_h1_6_8" style="stroke:black; stroke-width:1; fill:white; " description="&lt;b&gt;F1D59_RS17735&lt;/b&gt;&lt;br&gt;serine/threonine protein kinase&lt;br&gt;Location: 3975829 - 3974519" locus_tag="F1D59_RS17735" points="192,85 197,80 217,80 217,90 197,90 192,85 " class="clusterblast-orf"  />
</g>
<g id="a1_009"  >
<polygon id="dummy-1_h1_6_9" style="stroke:black; stroke-width:1; fill:white; " description="&lt;b&gt;F1D59_RS17730&lt;/b&gt;&lt;br&gt;transcriptional regulator&lt;br&gt;Location: 3974474 - 3973926" locus_tag="F1D59_RS17730" points="218,85 223,80 228,80 228,90 223,90 218,85 " class="clusterblast-orf"  />
</g>
<g id="a1_0010"  >
<polygon id="dummy-1_h1_6_10" style="stroke:black; stroke-width:1; fill:#15d863; " description="&lt;b&gt;F1D59_RS17720&lt;/b&gt;&lt;br&gt;hypothetical protein&lt;br&gt;Location: 3973264 - 3972251&lt;br&gt;&lt;br&gt;&lt;b&gt;BlastP hit with cds1000_2035&lt;/b&gt;&lt;br&gt;Percentage identity: 55&lt;br&gt;Percentage coverage: 97&lt;br&gt;BLAST bit score: 336&lt;br&gt;E-value: 2.4e-90" locus_tag="F1D59_RS17720" points="241,90 255,90 260,85 255,80 241,80 241,90 " class="clusterblast-orf"  />
</g>
<g id="a1_0011"  >
<polygon id="dummy-1_h1_6_11" style="stroke:black; stroke-width:1; fill:#1563d8; " description="&lt;b&gt;F1D59_RS17715&lt;/b&gt;&lt;br&gt;HAD family phosphatase&lt;br&gt;Location: 3972196 - 3971552&lt;br&gt;&lt;br&gt;&lt;b&gt;BlastP hit with cds2115_2772&lt;/b&gt;&lt;br&gt;Percentage identity: 65&lt;br&gt;Percentage coverage: 98&lt;br&gt;BLAST bit score: 307&lt;br&gt;E-value: 1.3e-81" locus_tag="F1D59_RS17715" points="261,90 269,90 274,85 269,80 261,80 261,90 " class="clusterblast-orf"  />
</g>
<g id="a1_0012"  >
<polygon id="dummy-1_h1_6_12" style="stroke:black; stroke-width:1; fill:#b115d8; " description="&lt;b&gt;F1D59_RS17710&lt;/b&gt;&lt;br&gt;cytochrome P450&lt;br&gt;Location: 3971524 - 3970316&lt;br&gt;&lt;br&gt;&lt;b&gt;BlastP hit with cds2816_4034&lt;/b&gt;&lt;br&gt;Percentage identity: 65&lt;br&gt;Percentage coverage: 99&lt;br&gt;BLAST bit score: 529&lt;br&gt;E-value: 2.3e-148" locus_tag="F1D59_RS17710" points="274,90 292,90 297,85 292,80 274,80 274,90 " class="clusterblast-orf"  />
</g>
<g id="a1_0013"  >
<polygon id="dummy-1_h1_6_13" style="stroke:black; stroke-width:1; fill:#b1d815; " description="&lt;b&gt;F1D59_RS17705&lt;/b&gt;&lt;br&gt;FAD-dependent monooxygenase&lt;br&gt;Location: 3970229 - 3968718&lt;br&gt;&lt;br&gt;&lt;b&gt;BlastP hit with cds4105_5629&lt;/b&gt;&lt;br&gt;Percentage identity: 63&lt;br&gt;Percentage coverage: 98&lt;br&gt;BLAST bit score: 579&lt;br&gt;E-value: 2.4e-163" locus_tag="F1D59_RS17705" points="299,85 304,80 327,80 327,90 304,90 299,85 " class="clusterblast-orf"  />
</g>
<g id="a1_0014"  >
<polygon id="dummy-1_h1_6_14" style="stroke:black; stroke-width:1; fill:white; " description="&lt;b&gt;F1D59_RS17700&lt;/b&gt;&lt;br&gt;MFS transporter&lt;br&gt;Location: 3968525 - 3966960" locus_tag="F1D59_RS17700" points="331,85 336,80 361,80 361,90 336,90 331,85 " class="clusterblast-orf"  />
</g>
<g id="a1_0015"  >
<polygon id="dummy-1_h1_6_15" style="stroke:black; stroke-width:1; fill:white; " description="&lt;b&gt;F1D59_RS17695&lt;/b&gt;&lt;br&gt;helix-turn-helix transcriptional regulator&lt;br&gt;Location: 3966840 - 3966529" locus_tag="F1D59_RS17695" points="363,90 364,90 369,85 364,80 363,80 363,90 " class="clusterblast-orf"  />
</g>
<g id="a1_0016"  >
<polygon id="dummy-1_h1_6_16" style="stroke:black; stroke-width:1; fill:white; " description="&lt;b&gt;F1D59_RS17690&lt;/b&gt;&lt;br&gt;non-ribosomal peptide synthetase&lt;br&gt;Location: 3966346 - 3963497" locus_tag="F1D59_RS17690" points="372,90 422,90 427,85 422,80 372,80 372,90 " class="clusterblast-orf"  />
</g>
<g id="a1_0017"  >
<polygon id="dummy-1_h1_6_17" style="stroke:black; stroke-width:1; fill:white; " description="&lt;b&gt;F1D59_RS17685&lt;/b&gt;&lt;br&gt;NAD(P)-dependent oxidoreductase&lt;br&gt;Location: 3963503 - 3962577" locus_tag="F1D59_RS17685" points="427,90 439,90 444,85 439,80 427,80 427,90 " class="clusterblast-orf"  />
</g>
<g id="a1_0018"  >
<polygon id="dummy-1_h1_6_18" style="stroke:black; stroke-width:1; fill:white; " description="&lt;b&gt;F1D59_RS17680&lt;/b&gt;&lt;br&gt;methyltransferase&lt;br&gt;Location: 3962559 - 3961513" locus_tag="F1D59_RS17680" points="444,90 459,90 464,85 459,80 444,80 444,90 " class="clusterblast-orf"  />
</g>
<g id="a1_0019"  >
<polygon id="dummy-1_h1_6_19" style="stroke:black; stroke-width:1; fill:#b1d815; " description="&lt;b&gt;F1D59_RS17675&lt;/b&gt;&lt;br&gt;FAD-dependent monooxygenase&lt;br&gt;Location: 3961482 - 3960043&lt;br&gt;&lt;br&gt;&lt;b&gt;BlastP hit with cds4105_5629&lt;/b&gt;&lt;br&gt;Percentage identity: 38&lt;br&gt;Percentage coverage: 100&lt;br&gt;BLAST bit score: 204&lt;br&gt;E-value: 2.8e-50" locus_tag="F1D59_RS17675" points="465,90 487,90 492,85 487,80 465,80 465,90 " class="clusterblast-orf"  />
</g>
<g id="a1_0020"  >
<polygon id="dummy-1_h1_6_20" style="stroke:black; stroke-width:1; fill:white; " description="&lt;b&gt;F1D59_RS17670&lt;/b&gt;&lt;br&gt;FAD-binding oxidoreductase&lt;br&gt;Location: 3959769 - 3958660" locus_tag="F1D59_RS17670" points="498,90 514,90 519,85 514,80 498,80 498,90 " class="clusterblast-orf"  />
</g>
<g id="a1_0021"  >
<polygon id="dummy-1_h1_6_21" style="stroke:black; stroke-width:1; fill:white; " description="&lt;b&gt;F1D59_RS17665&lt;/b&gt;&lt;br&gt;transcriptional regulator&lt;br&gt;Location: 3958663 - 3957221" locus_tag="F1D59_RS17665" points="519,85 524,80 546,80 546,90 524,90 519,85 " class="clusterblast-orf"  />
</g>
<g id="a1_0022"  >
<polygon id="dummy-1_h1_6_22" style="stroke:black; stroke-width:1; fill:white; " description="&lt;b&gt;F1D59_RS17660&lt;/b&gt;&lt;br&gt;tetratricopeptide repeat protein&lt;br&gt;Location: 3956335 - 3953807" locus_tag="F1D59_RS17660" points="563,90 606,90 611,85 606,80 563,80 563,90 " class="clusterblast-orf"  />
</g>
<g id="a1_0023"  >
<polygon id="dummy-1_h1_6_23" style="stroke:black; stroke-width:1; fill:white; " description="&lt;b&gt;F1D59_RS17655&lt;/b&gt;&lt;br&gt;hypothetical protein&lt;br&gt;Location: 3953717 - 3953556" locus_tag="F1D59_RS17655" points="613,85 616,80 616,90 613,85 " class="clusterblast-orf"  />
</g>
<g id="a1_0024"  >
<polygon id="dummy-1_h1_6_24" style="stroke:black; stroke-width:1; fill:white; " description="&lt;b&gt;F1D59_RS17650&lt;/b&gt;&lt;br&gt;hypothetical protein&lt;br&gt;Location: 3953467 - 3952562" locus_tag="F1D59_RS17650" points="617,85 622,80 635,80 635,90 622,90 617,85 " class="clusterblast-orf"  />
</g>
<g id="a1_0025"  >
<polygon id="dummy-1_h1_6_25" style="stroke:black; stroke-width:1; fill:white; " description="&lt;b&gt;F1D59_RS17645&lt;/b&gt;&lt;br&gt;LysM peptidoglycan-binding domain-containing protein&lt;br&gt;Location: 3952377 - 3951853" locus_tag="F1D59_RS17645" points="638,90 643,90 648,85 643,80 638,80 638,90 " class="clusterblast-orf"  />
</g>
<g id="a1_0026"  >
<polygon id="dummy-1_h1_6_26" style="stroke:black; stroke-width:1; fill:white; " description="&lt;b&gt;F1D59_RS17640&lt;/b&gt;&lt;br&gt;DUF5324 family protein&lt;br&gt;Location: 3951780 - 3951082" locus_tag="F1D59_RS17640" points="649,85 654,80 663,80 663,90 654,90 649,85 " class="clusterblast-orf"  />
</g>
<g id="a1_0027"  >
<polygon id="dummy-1_h1_6_27" style="stroke:black; stroke-width:1; fill:white; " description="&lt;b&gt;F1D59_RS17635&lt;/b&gt;&lt;br&gt;peptidylprolyl isomerase&lt;br&gt;Location: 3950928 - 3950380" locus_tag="F1D59_RS17635" points="666,90 671,90 676,85 671,80 666,80 666,90 " class="clusterblast-orf"  />
</g>
<g id="a1_0028"  >
<polygon id="dummy-1_h1_6_28" style="stroke:black; stroke-width:1; fill:white; " description="&lt;b&gt;F1D59_RS17630&lt;/b&gt;&lt;br&gt;rhomboid family intramembrane serine protease&lt;br&gt;Location: 3950233 - 3949358" locus_tag="F1D59_RS17630" points="679,90 690,90 695,85 690,80 679,80 679,90 " class="clusterblast-orf"  />
</g>
<g id="a1_0029"  >
<polygon id="dummy-1_h1_6_29" style="stroke:black; stroke-width:1; fill:white; " description="&lt;b&gt;F1D59_RS17625&lt;/b&gt;&lt;br&gt;cell division protein CrgA&lt;br&gt;Location: 3949242 - 3948988" locus_tag="F1D59_RS17625" points="698,85 702,80 702,90 698,85 " class="clusterblast-orf"  />
</g>
<g id="a1_0030"  >
<polygon id="dummy-1_h1_6_30" style="stroke:black; stroke-width:1; fill:white; " description="&lt;b&gt;F1D59_RS17620&lt;/b&gt;&lt;br&gt;DUF881 domain-containing protein&lt;br&gt;Location: 3948896 - 3948123" locus_tag="F1D59_RS17620" points="704,90 714,90 719,85 714,80 704,80 704,90 " class="clusterblast-orf"  />
</g>
<g id="a1_0031"  >
<polygon id="dummy-1_h1_6_31" style="stroke:black; stroke-width:1; fill:white; " description="&lt;b&gt;F1D59_RS17615&lt;/b&gt;&lt;br&gt;class E sortase&lt;br&gt;Location: 3948151 - 3947393" locus_tag="F1D59_RS17615" points="718,90 728,90 733,85 728,80 718,80 718,90 " class="clusterblast-orf"  />
</g>
<g id="a1_0032"  >
<polygon id="dummy-1_h1_6_32" style="stroke:black; stroke-width:1; fill:white; " description="&lt;b&gt;F1D59_RS17610&lt;/b&gt;&lt;br&gt;hypothetical protein&lt;br&gt;Location: 3947303 - 3947127" locus_tag="F1D59_RS17610" points="734,90 738,85 734,80 734,90 " class="clusterblast-orf"  />
</g>
<g id="a1_0033"  >
<polygon id="dummy-1_h1_6_33" style="stroke:black; stroke-width:1; fill:white; " description="&lt;b&gt;F1D59_RS17605&lt;/b&gt;&lt;br&gt;aminodeoxychorismate/anthranilate synthase component II&lt;br&gt;Location: 3947130 - 3946492" locus_tag="F1D59_RS17605" points="738,90 745,90 750,85 745,80 738,80 738,90 " class="clusterblast-orf"  />
</g>
<g id="a1_0034"  >
<polygon id="dummy-1_h1_6_34" style="stroke:black; stroke-width:1; fill:white; " description="&lt;b&gt;F1D59_RS17600&lt;/b&gt;&lt;br&gt;class E sortase&lt;br&gt;Location: 3946495 - 3945674" locus_tag="F1D59_RS17600" points="750,90 760,90 765,85 760,80 750,80 750,90 " class="clusterblast-orf"  />
</g>
<g id="a1_0035"  >
<polygon id="dummy-1_h1_6_35" style="stroke:black; stroke-width:1; fill:white; " description="&lt;b&gt;F1D59_RS17595&lt;/b&gt;&lt;br&gt;class E sortase&lt;br&gt;Location: 3945737 - 3944934" locus_tag="F1D59_RS17595" points="764,90 775,90 780,85 775,80 764,80 764,90 " class="clusterblast-orf"  />
</g>
</svg>
