<svg preserveAspectRatio="none" xmlns="http://www.w3.org/2000/svg" height="230" version="1.1" viewBox="0 0 800 230" y="0" xmlns:xlink="http://www.w3.org/1999/xlink" x="0" width="800"  >
<g class="clusterblast-cluster" label="Query sequence"  >
<text y="20" x="5" class="clusterblast-acc"  >
Query sequence</text>
<line x1="10" y1="35" style="stroke:grey; stroke-width:1; " y2="35" x2="778.0"  />
<polygon id="dummy-1_q0_0_all" style="stroke:black; stroke-width:1; fill:#d81515; " description="&lt;b&gt;cds2925_3165&lt;/b&gt;&lt;br&gt;putative small membrane protein&lt;br&gt;Location: 2925 - 3165" locus_tag="cds2925_3165" points="21,40 38,40 43,35 38,30 21,30 21,40 " class="clusterblast-orf"  />
<polygon id="dummy-1_q1_0_all" style="stroke:black; stroke-width:1; fill:#3cd815; " description="&lt;b&gt;cds3441_4023&lt;/b&gt;&lt;br&gt;hypothetical protein&lt;br&gt;Location: 3441 - 4023" locus_tag="cds3441_4023" points="68,40 116,40 121,35 116,30 68,30 68,40 " class="clusterblast-orf"  />
<polygon id="dummy-1_q2_0_all" style="stroke:black; stroke-width:1; fill:#1563d8; " description="&lt;b&gt;cds4373_4649&lt;/b&gt;&lt;br&gt;hypothetical protein&lt;br&gt;Location: 4373 - 4649" locus_tag="cds4373_4649" points="153,40 173,40 178,35 173,30 153,30 153,40 " class="clusterblast-orf"  />
<polygon id="dummy-1_q3_0_all" style="stroke:black; stroke-width:1; fill:#b115d8; " description="&lt;b&gt;cds4848_5376&lt;/b&gt;&lt;br&gt;hypothetical protein&lt;br&gt;Location: 4848 - 5376" locus_tag="cds4848_5376" points="196,40 239,40 244,35 239,30 196,30 196,40 " class="clusterblast-orf"  />
<polygon id="dummy-1_q4_0_all" style="stroke:black; stroke-width:1; fill:#d81515; " description="&lt;b&gt;cds5681_6041&lt;/b&gt;&lt;br&gt;putative small membrane protein&lt;br&gt;Location: 5681 - 6041" locus_tag="cds5681_6041" points="272,40 300,40 305,35 300,30 272,30 272,40 " class="clusterblast-orf"  />
<polygon id="dummy-1_q5_0_all" style="stroke:black; stroke-width:1; fill:#d88a15; " description="&lt;b&gt;cds6133_6997&lt;/b&gt;&lt;br&gt;putative tyrosinase&lt;br&gt;Location: 6133 - 6997" locus_tag="cds6133_6997" points="313,35 318,30 392,30 392,40 318,40 313,35 " class="clusterblast-orf"  />
<polygon id="dummy-1_q6_0_all" style="stroke:black; stroke-width:1; fill:#15d863; " description="&lt;b&gt;cds6983_7601&lt;/b&gt;&lt;br&gt;hypothetical protein&lt;br&gt;Location: 6983 - 7601" locus_tag="cds6983_7601" points="391,35 396,30 447,30 447,40 396,40 391,35 " class="clusterblast-orf"  />
<polygon id="dummy-1_q7_0_all" style="stroke:black; stroke-width:1; fill:#3c15d8; " description="&lt;b&gt;cds7743_8202&lt;/b&gt;&lt;br&gt;hypothetical protein&lt;br&gt;Location: 7743 - 8202" locus_tag="cds7743_8202" points="460,40 496,40 501,35 496,30 460,30 460,40 " class="clusterblast-orf"  />
<polygon id="dummy-1_q8_0_all" style="stroke:black; stroke-width:1; fill:#d8158a; " description="&lt;b&gt;cds8203_8863&lt;/b&gt;&lt;br&gt;Integral membrane protein&lt;br&gt;Location: 8203 - 8863" locus_tag="cds8203_8863" points="502,40 557,40 562,35 557,30 502,30 502,40 " class="clusterblast-orf"  />
<polygon id="dummy-1_q9_0_all" style="stroke:black; stroke-width:1; fill:#b1d815; " description="&lt;b&gt;cds8959_9610&lt;/b&gt;&lt;br&gt;Lysine exporter protein LysE/YggA&lt;br&gt;Location: 8959 - 9610" locus_tag="cds8959_9610" points="570,35 575,30 630,30 630,40 575,40 570,35 " class="clusterblast-orf"  />
<polygon id="dummy-1_q10_0_all" style="stroke:black; stroke-width:1; fill:#15d8d8; " description="&lt;b&gt;cds9745_11038&lt;/b&gt;&lt;br&gt;Transcriptional regulator, GntR family domain / Aspartate aminotransferase (EC 2.6.1.1)&lt;br&gt;Location: 9745 - 11038" locus_tag="cds9745_11038" points="642,40 754,40 759,35 754,30 642,30 642,40 " class="clusterblast-orf"  />
</g>
<g description="NZ_JABBGE010000002 (698904-709303): Streptomyces sp. R302 contig2, whole geno... (50% of genes show similarity), melanin" class="clusterblast-cluster" label="NZ_JABBGE010000002"  >
<text y="70" x="5" class="clusterblast-acc"  >
<a xlink:href="https://antismash-db.secondarymetabolites.org/area.html?record=NZ_JABBGE010000002&amp;start=698904&amp;end=709303" target="_blank">NZ_JABBGE010000002 (698904-709303)</a>: Streptomyces sp. R302 contig2, whole geno... (50% of genes show similarity), melanin</text>
<line x1="10" y1="85" style="stroke:grey; stroke-width:1; " y2="85" x2="778.0"  />
</g>
<g id="a1_000"  >
<polygon id="dummy-1_h1_4_0" style="stroke:black; stroke-width:1; fill:white; " description="&lt;b&gt;HHL19_RS09025&lt;/b&gt;&lt;br&gt;hypothetical protein&lt;br&gt;Location: 708827 - 708099" locus_tag="HHL19_RS09025" points="0,90 61,90 66,85 61,80 0,80 0,90 " class="clusterblast-orf"  />
</g>
<g id="a1_001"  >
<polygon id="dummy-1_h1_4_1" style="stroke:black; stroke-width:1; fill:white; " description="&lt;b&gt;HHL19_RS09020&lt;/b&gt;&lt;br&gt;hypothetical protein&lt;br&gt;Location: 707740 - 707468" locus_tag="HHL19_RS09020" points="98,90 118,90 123,85 118,80 98,80 98,90 " class="clusterblast-orf"  />
</g>
<g id="a1_002"  >
<polygon id="dummy-1_h1_4_2" style="stroke:black; stroke-width:1; fill:white; " description="&lt;b&gt;HHL19_RS09015&lt;/b&gt;&lt;br&gt;hypothetical protein&lt;br&gt;Location: 707306 - 706452" locus_tag="HHL19_RS09015" points="138,90 211,90 216,85 211,80 138,80 138,90 " class="clusterblast-orf"  />
</g>
<g id="a1_003"  >
<polygon id="dummy-1_h1_4_3" style="stroke:black; stroke-width:1; fill:#b115d8; " description="&lt;b&gt;HHL19_RS09010&lt;/b&gt;&lt;br&gt;hypothetical protein&lt;br&gt;Location: 706328 - 705816&lt;br&gt;&lt;br&gt;&lt;b&gt;BlastP hit with cds4848_5376&lt;/b&gt;&lt;br&gt;Percentage identity: 46&lt;br&gt;Percentage coverage: 97&lt;br&gt;BLAST bit score: 126&lt;br&gt;E-value: 2.5e-27" locus_tag="HHL19_RS09010" points="227,90 268,90 273,85 268,80 227,80 227,90 " class="clusterblast-orf"  />
</g>
<g id="a1_004"  >
<polygon id="dummy-1_h1_4_4" style="stroke:black; stroke-width:1; fill:#d81515; " description="&lt;b&gt;HHL19_RS09005&lt;/b&gt;&lt;br&gt;chaplin&lt;br&gt;Location: 705527 - 705243&lt;br&gt;&lt;br&gt;&lt;b&gt;BlastP hit with cds2925_3165&lt;/b&gt;&lt;br&gt;Percentage identity: 64&lt;br&gt;Percentage coverage: 99&lt;br&gt;BLAST bit score: 72&lt;br&gt;E-value: 2.6e-11&lt;br&gt;&lt;br&gt;&lt;b&gt;BlastP hit with cds5681_6041&lt;/b&gt;&lt;br&gt;Percentage identity: 80&lt;br&gt;Percentage coverage: 66&lt;br&gt;BLAST bit score: 84&lt;br&gt;E-value: 9.8e-15" locus_tag="HHL19_RS09005" points="300,90 321,90 326,85 321,80 300,80 300,90 " class="clusterblast-orf"  />
</g>
<g id="a1_005"  >
<polygon id="dummy-1_h1_4_5" style="stroke:black; stroke-width:1; fill:#d88a15; " description="&lt;b&gt;HHL19_RS09000&lt;/b&gt;&lt;br&gt;tyrosinase family protein&lt;br&gt;Location: 705153 - 704287&lt;br&gt;&lt;br&gt;&lt;b&gt;BlastP hit with cds6133_6997&lt;/b&gt;&lt;br&gt;Percentage identity: 69&lt;br&gt;Percentage coverage: 100&lt;br&gt;BLAST bit score: 428&lt;br&gt;E-value: 6.7e-118" locus_tag="HHL19_RS09000" points="334,85 339,80 413,80 413,90 339,90 334,85 " class="clusterblast-orf"  />
</g>
<g id="a1_006"  >
<polygon id="dummy-1_h1_4_6" style="stroke:black; stroke-width:1; fill:#15d863; " description="&lt;b&gt;HHL19_RS08995&lt;/b&gt;&lt;br&gt;tyrosinase co-factor protein&lt;br&gt;Location: 704303 - 703905&lt;br&gt;&lt;br&gt;&lt;b&gt;BlastP hit with cds6983_7601&lt;/b&gt;&lt;br&gt;Percentage identity: 50&lt;br&gt;Percentage coverage: 72&lt;br&gt;BLAST bit score: 109&lt;br&gt;E-value: 4.9e-22" locus_tag="HHL19_RS08995" points="411,85 416,80 447,80 447,90 416,90 411,85 " class="clusterblast-orf"  />
</g>
<g id="a1_007"  >
<polygon id="dummy-1_h1_4_7" style="stroke:black; stroke-width:1; fill:#3c15d8; " description="&lt;b&gt;HHL19_RS08990&lt;/b&gt;&lt;br&gt;hypothetical protein&lt;br&gt;Location: 703695 - 703252&lt;br&gt;&lt;br&gt;&lt;b&gt;BlastP hit with cds7743_8202&lt;/b&gt;&lt;br&gt;Percentage identity: 60&lt;br&gt;Percentage coverage: 96&lt;br&gt;BLAST bit score: 178&lt;br&gt;E-value: 4.9e-43" locus_tag="HHL19_RS08990" points="466,90 502,90 507,85 502,80 466,80 466,90 " class="clusterblast-orf"  />
</g>
<g id="a1_008"  >
<polygon id="dummy-1_h1_4_8" style="stroke:black; stroke-width:1; fill:#d8158a; " description="&lt;b&gt;HHL19_RS08985&lt;/b&gt;&lt;br&gt;vitamin K epoxide reductase family protein&lt;br&gt;Location: 703234 - 702575&lt;br&gt;&lt;br&gt;&lt;b&gt;BlastP hit with cds8203_8863&lt;/b&gt;&lt;br&gt;Percentage identity: 78&lt;br&gt;Percentage coverage: 88&lt;br&gt;BLAST bit score: 324&lt;br&gt;E-value: 1e-86" locus_tag="HHL19_RS08985" points="508,90 563,90 568,85 563,80 508,80 508,90 " class="clusterblast-orf"  />
</g>
<g id="a1_009"  >
<polygon id="dummy-1_h1_4_9" style="stroke:black; stroke-width:1; fill:white; " description="&lt;b&gt;HHL19_RS08980&lt;/b&gt;&lt;br&gt;hypothetical protein&lt;br&gt;Location: 702573 - 701542" locus_tag="HHL19_RS08980" points="569,90 657,90 662,85 657,80 569,80 569,90 " class="clusterblast-orf"  />
</g>
<g id="a1_0010"  >
<polygon id="dummy-1_h1_4_10" style="stroke:black; stroke-width:1; fill:white; " description="&lt;b&gt;HHL19_RS08975&lt;/b&gt;&lt;br&gt;TetR family transcriptional regulator&lt;br&gt;Location: 701576 - 700959" locus_tag="HHL19_RS08975" points="659,85 664,80 715,80 715,90 664,90 659,85 " class="clusterblast-orf"  />
</g>
<g id="a1_0011"  >
<polygon id="dummy-1_h1_4_11" style="stroke:black; stroke-width:1; fill:white; " description="&lt;b&gt;HHL19_RS08970&lt;/b&gt;&lt;br&gt;hemolysin III family protein&lt;br&gt;Location: 700952 - 700254" locus_tag="HHL19_RS08970" points="716,85 721,80 780,80 780,90 721,90 716,85 " class="clusterblast-orf"  />
</g>
</svg>
