<svg preserveAspectRatio="none" xmlns="http://www.w3.org/2000/svg" height="230" version="1.1" viewBox="0 0 800 230" y="0" xmlns:xlink="http://www.w3.org/1999/xlink" x="0" width="800"  >
<g class="clusterblast-cluster" label="Query sequence"  >
<text y="20" x="5" class="clusterblast-acc"  >
Query sequence</text>
<line x1="10" y1="35" style="stroke:grey; stroke-width:1; " y2="35" x2="778.0"  />
<polygon id="dummy-1_q0_0_all" style="stroke:black; stroke-width:1; fill:#d81515; " description="&lt;b&gt;cds322_1147&lt;/b&gt;&lt;br&gt;Transcriptional regulator, AfsR family&lt;br&gt;Location: 322 - 1147" locus_tag="cds322_1147" points="319,40 323,40 328,35 323,30 319,30 319,40 " class="clusterblast-orf"  />
<polygon id="dummy-1_q1_0_all" style="stroke:black; stroke-width:1; fill:#3cd815; " description="&lt;b&gt;cds1367_1832&lt;/b&gt;&lt;br&gt;Hemoglobin-like protein HbO&lt;br&gt;Location: 1367 - 1832" locus_tag="cds1367_1832" points="331,40 331,40 336,35 331,30 331,30 331,40 " class="clusterblast-orf"  />
<polygon id="dummy-1_q2_0_all" style="stroke:black; stroke-width:1; fill:#1563d8; " description="&lt;b&gt;cds2343_3570&lt;/b&gt;&lt;br&gt;Uncharacterized MFS-type transporter&lt;br&gt;Location: 2343 - 3570" locus_tag="cds2343_3570" points="342,40 351,40 356,35 351,30 342,30 342,40 " class="clusterblast-orf"  />
<polygon id="dummy-1_q3_0_all" style="stroke:black; stroke-width:1; fill:#b115d8; " description="&lt;b&gt;cds3613_4363&lt;/b&gt;&lt;br&gt;hypothetical protein&lt;br&gt;Location: 3613 - 4363" locus_tag="cds3613_4363" points="356,40 360,40 365,35 360,30 356,30 356,40 " class="clusterblast-orf"  />
<polygon id="dummy-1_q4_0_all" style="stroke:black; stroke-width:1; fill:#d88a15; " description="&lt;b&gt;cds4433_5891&lt;/b&gt;&lt;br&gt;hypothetical protein&lt;br&gt;Location: 4433 - 5891" locus_tag="cds4433_5891" points="365,40 377,40 382,35 377,30 365,30 365,40 " class="clusterblast-orf"  />
<polygon id="dummy-1_q5_0_all" style="stroke:black; stroke-width:1; fill:white; " description="&lt;b&gt;cds5967_6117&lt;/b&gt;&lt;br&gt;hypothetical protein&lt;br&gt;Location: 5967 - 6117" locus_tag="cds5967_6117" points="383,40 385,35 383,30 383,40 " class="clusterblast-orf"  />
<polygon id="dummy-1_q6_0_all" style="stroke:black; stroke-width:1; fill:#15d863; " description="&lt;b&gt;cds6130_6538&lt;/b&gt;&lt;br&gt;RidA/YER057c/UK114 superfamily protein&lt;br&gt;Location: 6130 - 6538" locus_tag="cds6130_6538" points="385,40 389,35 385,30 385,40 " class="clusterblast-orf"  />
<polygon id="dummy-1_q7_0_all" style="stroke:black; stroke-width:1; fill:#3c15d8; " description="&lt;b&gt;cds6701_7289&lt;/b&gt;&lt;br&gt;Phosphopantothenoylcysteine decarboxylase (EC 4.1.1.36) / Phosphopantothenoylcysteine synthetase (EC 6.3.2.5)&lt;br&gt;Location: 6701 - 7289" locus_tag="cds6701_7289" points="391,35 396,30 398,30 398,40 396,40 391,35 " class="clusterblast-orf"  />
<polygon id="dummy-1_q8_0_all" style="stroke:black; stroke-width:1; fill:#d8158a; " description="&lt;b&gt;cds7602_10875&lt;/b&gt;&lt;br&gt;Polyketide synthase modules and related proteins&lt;br&gt;Location: 7602 - 10875" locus_tag="cds7602_10875" points="402,40 434,40 439,35 434,30 402,30 402,40 " class="clusterblast-orf"  />
<polygon id="dummy-1_q9_0_all" style="stroke:black; stroke-width:1; fill:#b1d815; " description="&lt;b&gt;cds10871_12524&lt;/b&gt;&lt;br&gt;hypothetical protein&lt;br&gt;Location: 10871 - 12524" locus_tag="cds10871_12524" points="439,40 453,40 458,35 453,30 439,30 439,40 " class="clusterblast-orf"  />
<polygon id="dummy-1_q10_0_all" style="stroke:black; stroke-width:1; fill:#15d8d8; " description="&lt;b&gt;cds12529_12778&lt;/b&gt;&lt;br&gt;FIG01122369: hypothetical protein&lt;br&gt;Location: 12529 - 12778" locus_tag="cds12529_12778" points="458,40 461,35 458,30 458,40 " class="clusterblast-orf"  />
</g>
<g description="NZ_KZ679082 (6519374-6587793): Streptomyces sp. CS149 scaffold00001, whole ge... (9% of genes show similarity), NRPS" class="clusterblast-cluster" label="NZ_KZ679082"  >
<text y="70" x="5" class="clusterblast-acc"  >
<a xlink:href="https://antismash-db.secondarymetabolites.org/area.html?record=NZ_KZ679082&amp;start=6519374&amp;end=6587793" target="_blank">NZ_KZ679082 (6519374-6587793)</a>: Streptomyces sp. CS149 scaffold00001, whole ge... (9% of genes show similarity), NRPS</text>
<line x1="10" y1="85" style="stroke:grey; stroke-width:1; " y2="85" x2="778.0"  />
</g>
<g id="a1_000"  >
<polygon id="dummy-1_h1_9_0" style="stroke:black; stroke-width:1; fill:white; " description="&lt;b&gt;C6W96_RS29255&lt;/b&gt;&lt;br&gt;polysaccharide deacetylase family protein&lt;br&gt;Location: 6519375 - 6520220" locus_tag="C6W96_RS29255" points="0,85 5,80 9,80 9,90 5,90 0,85 " class="clusterblast-orf"  />
</g>
<g id="a1_001"  >
<polygon id="dummy-1_h1_9_1" style="stroke:black; stroke-width:1; fill:white; " description="&lt;b&gt;C6W96_RS29260&lt;/b&gt;&lt;br&gt;DUF839 domain-containing protein&lt;br&gt;Location: 6520352 - 6521725" locus_tag="C6W96_RS29260" points="11,85 16,80 26,80 26,90 16,90 11,85 " class="clusterblast-orf"  />
</g>
<g id="a1_002"  >
<polygon id="dummy-1_h1_9_2" style="stroke:black; stroke-width:1; fill:white; " description="&lt;b&gt;C6W96_RS29265&lt;/b&gt;&lt;br&gt;OsmC family protein&lt;br&gt;Location: 6521899 - 6522324" locus_tag="C6W96_RS29265" points="28,85 33,80 33,80 33,90 33,90 28,85 " class="clusterblast-orf"  />
</g>
<g id="a1_003"  >
<polygon id="dummy-1_h1_9_3" style="stroke:black; stroke-width:1; fill:white; " description="&lt;b&gt;C6W96_RS29270&lt;/b&gt;&lt;br&gt;cell division protein ZapE&lt;br&gt;Location: 6522409 - 6523503" locus_tag="C6W96_RS29270" points="34,85 39,80 47,80 47,90 39,90 34,85 " class="clusterblast-orf"  />
</g>
<g id="a1_004"  >
<polygon id="dummy-1_h1_9_4" style="stroke:black; stroke-width:1; fill:white; " description="&lt;b&gt;C6W96_RS29275&lt;/b&gt;&lt;br&gt;pyrimidine reductase family protein&lt;br&gt;Location: 6523541 - 6524329" locus_tag="C6W96_RS29275" points="47,90 51,90 56,85 51,80 47,80 47,90 " class="clusterblast-orf"  />
</g>
<g id="a1_005"  >
<polygon id="dummy-1_h1_9_5" style="stroke:black; stroke-width:1; fill:white; " description="&lt;b&gt;C6W96_RS29280&lt;/b&gt;&lt;br&gt;hypothetical protein&lt;br&gt;Location: 6524474 - 6524944" locus_tag="C6W96_RS29280" points="58,90 58,90 63,85 58,80 58,80 58,90 " class="clusterblast-orf"  />
</g>
<g id="a1_006"  >
<polygon id="dummy-1_h1_9_6" style="stroke:black; stroke-width:1; fill:white; " description="&lt;b&gt;C6W96_RS29285&lt;/b&gt;&lt;br&gt;UDP-N-acetylmuramate--L-alanine ligase&lt;br&gt;Location: 6525018 - 6526418" locus_tag="C6W96_RS29285" points="64,90 75,90 80,85 75,80 64,80 64,90 " class="clusterblast-orf"  />
</g>
<g id="a1_007"  >
<polygon id="dummy-1_h1_9_7" style="stroke:black; stroke-width:1; fill:white; " description="&lt;b&gt;C6W96_RS29290&lt;/b&gt;&lt;br&gt;peptide-methionine (R)-S-oxide reductase MsrB&lt;br&gt;Location: 6526454 - 6526861" locus_tag="C6W96_RS29290" points="80,90 80,90 85,85 80,80 80,80 80,90 " class="clusterblast-orf"  />
</g>
<g id="a1_008"  >
<polygon id="dummy-1_h1_9_8" style="stroke:black; stroke-width:1; fill:white; " description="&lt;b&gt;C6W96_RS29295&lt;/b&gt;&lt;br&gt;glyoxalase&lt;br&gt;Location: 6527188 - 6527838" locus_tag="C6W96_RS29295" points="89,85 94,80 96,80 96,90 94,90 89,85 " class="clusterblast-orf"  />
</g>
<g id="a1_009"  >
<polygon id="dummy-1_h1_9_9" style="stroke:black; stroke-width:1; fill:white; " description="&lt;b&gt;C6W96_RS29300&lt;/b&gt;&lt;br&gt;hypothetical protein&lt;br&gt;Location: 6527900 - 6528370" locus_tag="C6W96_RS29300" points="97,85 102,80 102,80 102,90 102,90 97,85 " class="clusterblast-orf"  />
</g>
<g id="a1_0010"  >
<polygon id="dummy-1_h1_9_10" style="stroke:black; stroke-width:1; fill:white; " description="&lt;b&gt;C6W96_RS29305&lt;/b&gt;&lt;br&gt;hypothetical protein&lt;br&gt;Location: 6528594 - 6529433" locus_tag="C6W96_RS29305" points="105,90 109,90 114,85 109,80 105,80 105,90 " class="clusterblast-orf"  />
</g>
<g id="a1_0011"  >
<polygon id="dummy-1_h1_9_11" style="stroke:black; stroke-width:1; fill:white; " description="&lt;b&gt;C6W96_RS29310&lt;/b&gt;&lt;br&gt;hypothetical protein&lt;br&gt;Location: 6529414 - 6529773" locus_tag="C6W96_RS29310" points="114,85 118,80 118,90 114,85 " class="clusterblast-orf"  />
</g>
<g id="a1_0012"  >
<polygon id="dummy-1_h1_9_12" style="stroke:black; stroke-width:1; fill:white; " description="&lt;b&gt;C6W96_RS29315&lt;/b&gt;&lt;br&gt;MarR family transcriptional regulator&lt;br&gt;Location: 6529849 - 6530025" locus_tag="C6W96_RS29315" points="119,85 121,80 121,90 119,85 " class="clusterblast-orf"  />
</g>
<g id="a1_0013"  >
<polygon id="dummy-1_h1_9_13" style="stroke:black; stroke-width:1; fill:white; " description="&lt;b&gt;C6W96_RS29320&lt;/b&gt;&lt;br&gt;VOC family protein&lt;br&gt;Location: 6530048 - 6530288" locus_tag="C6W96_RS29320" points="121,90 124,85 121,80 121,90 " class="clusterblast-orf"  />
</g>
<g id="a1_0014"  >
<polygon id="dummy-1_h1_9_14" style="stroke:black; stroke-width:1; fill:white; " description="&lt;b&gt;C6W96_RS29325&lt;/b&gt;&lt;br&gt;hypothetical protein&lt;br&gt;Location: 6530577 - 6531029" locus_tag="C6W96_RS29325" points="127,90 127,90 132,85 127,80 127,80 127,90 " class="clusterblast-orf"  />
</g>
<g id="a1_0015"  >
<polygon id="dummy-1_h1_9_15" style="stroke:black; stroke-width:1; fill:white; " description="&lt;b&gt;C6W96_RS29330&lt;/b&gt;&lt;br&gt;hypothetical protein&lt;br&gt;Location: 6531200 - 6531799" locus_tag="C6W96_RS29330" points="134,90 136,90 141,85 136,80 134,80 134,90 " class="clusterblast-orf"  />
</g>
<g id="a1_0016"  >
<polygon id="dummy-1_h1_9_16" style="stroke:black; stroke-width:1; fill:white; " description="&lt;b&gt;C6W96_RS29335&lt;/b&gt;&lt;br&gt;hypothetical protein&lt;br&gt;Location: 6531872 - 6532318" locus_tag="C6W96_RS29335" points="142,90 142,90 147,85 142,80 142,80 142,90 " class="clusterblast-orf"  />
</g>
<g id="a1_0017"  >
<polygon id="dummy-1_h1_9_17" style="stroke:black; stroke-width:1; fill:white; " description="&lt;b&gt;C6W96_RS29340&lt;/b&gt;&lt;br&gt;hypothetical protein&lt;br&gt;Location: 6532369 - 6534861" locus_tag="C6W96_RS29340" points="148,85 153,80 176,80 176,90 153,90 148,85 " class="clusterblast-orf"  />
</g>
<g id="a1_0018"  >
<polygon id="dummy-1_h1_9_18" style="stroke:black; stroke-width:1; fill:white; " description="&lt;b&gt;C6W96_RS29345&lt;/b&gt;&lt;br&gt;2OG-Fe(II) oxygenase&lt;br&gt;Location: 6535100 - 6535837" locus_tag="C6W96_RS29345" points="179,90 182,90 187,85 182,80 179,80 179,90 " class="clusterblast-orf"  />
</g>
<g id="a1_0019"  >
<polygon id="dummy-1_h1_9_19" style="stroke:black; stroke-width:1; fill:white; " description="&lt;b&gt;C6W96_RS29350&lt;/b&gt;&lt;br&gt;hypothetical protein&lt;br&gt;Location: 6535834 - 6536415" locus_tag="C6W96_RS29350" points="187,90 189,90 194,85 189,80 187,80 187,90 " class="clusterblast-orf"  />
</g>
<g id="a1_0020"  >
<polygon id="dummy-1_h1_9_20" style="stroke:black; stroke-width:1; fill:white; " description="&lt;b&gt;C6W96_RS29355&lt;/b&gt;&lt;br&gt;DUF2791 family P-loop domain-containing protein&lt;br&gt;Location: 6536397 - 6539195" locus_tag="C6W96_RS29355" points="194,85 199,80 225,80 225,90 199,90 194,85 " class="clusterblast-orf"  />
</g>
<g id="a1_0021"  >
<polygon id="dummy-1_h1_9_21" style="stroke:black; stroke-width:1; fill:white; " description="&lt;b&gt;C6W96_RS29360&lt;/b&gt;&lt;br&gt;non-ribosomal peptide synthase&lt;br&gt;Location: 6539356 - 6540822" locus_tag="C6W96_RS29360" points="227,90 239,90 244,85 239,80 227,80 227,90 " class="clusterblast-orf"  />
</g>
<g id="a1_0022"  >
<polygon id="dummy-1_h1_9_22" style="stroke:black; stroke-width:1; fill:white; " description="&lt;b&gt;C6W96_RS29365&lt;/b&gt;&lt;br&gt;thioesterase&lt;br&gt;Location: 6540822 - 6541592" locus_tag="C6W96_RS29365" points="244,90 248,90 253,85 248,80 244,80 244,90 " class="clusterblast-orf"  />
</g>
<g id="a1_0023"  >
<polygon id="dummy-1_h1_9_23" style="stroke:black; stroke-width:1; fill:white; " description="&lt;b&gt;C6W96_RS29370&lt;/b&gt;&lt;br&gt;helix-turn-helix domain-containing protein&lt;br&gt;Location: 6541516 - 6542115" locus_tag="C6W96_RS29370" points="252,85 257,80 259,80 259,90 257,90 252,85 " class="clusterblast-orf"  />
</g>
<g id="a1_0024"  >
<polygon id="dummy-1_h1_9_24" style="stroke:black; stroke-width:1; fill:white; " description="&lt;b&gt;C6W96_RS29375&lt;/b&gt;&lt;br&gt;NAD(P)/FAD-dependent oxidoreductase&lt;br&gt;Location: 6542246 - 6543223" locus_tag="C6W96_RS29375" points="260,90 266,90 271,85 266,80 260,80 260,90 " class="clusterblast-orf"  />
</g>
<g id="a1_0025"  >
<polygon id="dummy-1_h1_9_25" style="stroke:black; stroke-width:1; fill:white; " description="&lt;b&gt;C6W96_RS29380&lt;/b&gt;&lt;br&gt;MFS transporter&lt;br&gt;Location: 6543289 - 6544764" locus_tag="C6W96_RS29380" points="272,90 284,90 289,85 284,80 272,80 272,90 " class="clusterblast-orf"  />
</g>
<g id="a1_0026"  >
<polygon id="dummy-1_h1_9_26" style="stroke:black; stroke-width:1; fill:#3cd815; " description="&lt;b&gt;C6W96_RS29385&lt;/b&gt;&lt;br&gt;oxidoreductase&lt;br&gt;Location: 6544854 - 6545318&lt;br&gt;&lt;br&gt;&lt;b&gt;BlastP hit with cds1367_1832&lt;/b&gt;&lt;br&gt;Percentage identity: 70&lt;br&gt;Percentage coverage: 99&lt;br&gt;BLAST bit score: 228&lt;br&gt;E-value: 3.2e-58" locus_tag="C6W96_RS29385" points="290,85 295,80 295,80 295,90 295,90 290,85 " class="clusterblast-orf"  />
</g>
<g id="a1_0027"  >
<polygon id="dummy-1_h1_9_27" style="stroke:black; stroke-width:1; fill:#3c15d8; " description="&lt;b&gt;C6W96_RS29390&lt;/b&gt;&lt;br&gt;flavoprotein&lt;br&gt;Location: 6545318 - 6545923&lt;br&gt;&lt;br&gt;&lt;b&gt;BlastP hit with cds6701_7289&lt;/b&gt;&lt;br&gt;Percentage identity: 68&lt;br&gt;Percentage coverage: 98&lt;br&gt;BLAST bit score: 259&lt;br&gt;E-value: 3.6e-67" locus_tag="C6W96_RS29390" points="295,85 300,80 302,80 302,90 300,90 295,85 " class="clusterblast-orf"  />
</g>
<g id="a1_0028"  >
<polygon id="dummy-1_h1_9_28" style="stroke:black; stroke-width:1; fill:#d8158a; " description="&lt;b&gt;C6W96_RS29395&lt;/b&gt;&lt;br&gt;holomycin non-ribosomal peptide synthase HlmE&lt;br&gt;Location: 6546087 - 6549377&lt;br&gt;&lt;br&gt;&lt;b&gt;BlastP hit with cds7602_10875&lt;/b&gt;&lt;br&gt;Percentage identity: 64&lt;br&gt;Percentage coverage: 101&lt;br&gt;BLAST bit score: 1346&lt;br&gt;E-value: 0.0" locus_tag="C6W96_RS29395" points="304,90 337,90 342,85 337,80 304,80 304,90 " class="clusterblast-orf"  />
</g>
<g id="a1_0029"  >
<polygon id="dummy-1_h1_9_29" style="stroke:black; stroke-width:1; fill:#b1d815; " description="&lt;b&gt;C6W96_RS29400&lt;/b&gt;&lt;br&gt;GMC family oxidoreductase&lt;br&gt;Location: 6549374 - 6551044&lt;br&gt;&lt;br&gt;&lt;b&gt;BlastP hit with cds10871_12524&lt;/b&gt;&lt;br&gt;Percentage identity: 63&lt;br&gt;Percentage coverage: 98&lt;br&gt;BLAST bit score: 652&lt;br&gt;E-value: 4.2e-185" locus_tag="C6W96_RS29400" points="342,90 356,90 361,85 356,80 342,80 342,90 " class="clusterblast-orf"  />
</g>
<g id="a1_0030"  >
<polygon id="dummy-1_h1_9_30" style="stroke:black; stroke-width:1; fill:#15d8d8; " description="&lt;b&gt;C6W96_RS29405&lt;/b&gt;&lt;br&gt;thioesterase&lt;br&gt;Location: 6551041 - 6551844&lt;br&gt;&lt;br&gt;&lt;b&gt;BlastP hit with cds12529_12778&lt;/b&gt;&lt;br&gt;Percentage identity: 63&lt;br&gt;Percentage coverage: 90&lt;br&gt;BLAST bit score: 87&lt;br&gt;E-value: 4.7e-16" locus_tag="C6W96_RS29405" points="361,90 365,90 370,85 365,80 361,80 361,90 " class="clusterblast-orf"  />
</g>
<g id="a1_0031"  >
<polygon id="dummy-1_h1_9_31" style="stroke:black; stroke-width:1; fill:white; " description="&lt;b&gt;C6W96_RS29410&lt;/b&gt;&lt;br&gt;acyl-CoA dehydrogenase&lt;br&gt;Location: 6551823 - 6552980" locus_tag="C6W96_RS29410" points="369,90 378,90 383,85 378,80 369,80 369,90 " class="clusterblast-orf"  />
</g>
<g id="a1_0032"  >
<polygon id="dummy-1_h1_9_32" style="stroke:black; stroke-width:1; fill:white; " description="&lt;b&gt;C6W96_RS29415&lt;/b&gt;&lt;br&gt;GNAT family N-acetyltransferase&lt;br&gt;Location: 6553063 - 6553926" locus_tag="C6W96_RS29415" points="384,90 388,90 393,85 388,80 384,80 384,90 " class="clusterblast-orf"  />
</g>
<g id="a1_0033"  >
<polygon id="dummy-1_h1_9_33" style="stroke:black; stroke-width:1; fill:#d81515; " description="&lt;b&gt;C6W96_RS29420&lt;/b&gt;&lt;br&gt;transcriptional regulator&lt;br&gt;Location: 6554143 - 6554934&lt;br&gt;&lt;br&gt;&lt;b&gt;BlastP hit with cds322_1147&lt;/b&gt;&lt;br&gt;Percentage identity: 39&lt;br&gt;Percentage coverage: 85&lt;br&gt;BLAST bit score: 137&lt;br&gt;E-value: 2.2e-30" locus_tag="C6W96_RS29420" points="396,90 400,90 405,85 400,80 396,80 396,90 " class="clusterblast-orf"  />
</g>
<g id="a1_0034"  >
<polygon id="dummy-1_h1_9_34" style="stroke:black; stroke-width:1; fill:white; " description="&lt;b&gt;C6W96_RS29425&lt;/b&gt;&lt;br&gt;TetR family transcriptional regulator&lt;br&gt;Location: 6554988 - 6555611" locus_tag="C6W96_RS29425" points="406,85 411,80 413,80 413,90 411,90 406,85 " class="clusterblast-orf"  />
</g>
<g id="a1_0035"  >
<polygon id="dummy-1_h1_9_35" style="stroke:black; stroke-width:1; fill:white; " description="&lt;b&gt;C6W96_RS29430&lt;/b&gt;&lt;br&gt;alpha/beta hydrolase&lt;br&gt;Location: 6555666 - 6556529" locus_tag="C6W96_RS29430" points="413,90 418,90 423,85 418,80 413,80 413,90 " class="clusterblast-orf"  />
</g>
<g id="a1_0036"  >
<polygon id="dummy-1_h1_9_36" style="stroke:black; stroke-width:1; fill:white; " description="&lt;b&gt;C6W96_RS29435&lt;/b&gt;&lt;br&gt;IS5 family transposase&lt;br&gt;Location: 6556586 - 6557415" locus_tag="C6W96_RS29435" points="424,85 429,80 433,80 433,90 429,90 424,85 " class="clusterblast-orf"  />
</g>
<g id="a1_0037"  >
<polygon id="dummy-1_h1_9_37" style="stroke:black; stroke-width:1; fill:white; " description="&lt;b&gt;C6W96_RS29440&lt;/b&gt;&lt;br&gt;AMP-binding protein&lt;br&gt;Location: 6557460 - 6558698" locus_tag="C6W96_RS29440" points="434,85 439,80 448,80 448,90 439,90 434,85 " class="clusterblast-orf"  />
</g>
<g id="a1_0038"  >
<polygon id="dummy-1_h1_9_38" style="stroke:black; stroke-width:1; fill:white; " description="&lt;b&gt;C6W96_RS29445&lt;/b&gt;&lt;br&gt;cysteine methyltransferase&lt;br&gt;Location: 6558824 - 6559414" locus_tag="C6W96_RS29445" points="449,85 454,80 456,80 456,90 454,90 449,85 " class="clusterblast-orf"  />
</g>
<g id="a1_0039"  >
<polygon id="dummy-1_h1_9_39" style="stroke:black; stroke-width:1; fill:white; " description="&lt;b&gt;C6W96_RS29450&lt;/b&gt;&lt;br&gt;RNA polymerase sigma factor&lt;br&gt;Location: 6559633 - 6560220" locus_tag="C6W96_RS29450" points="458,85 463,80 465,80 465,90 463,90 458,85 " class="clusterblast-orf"  />
</g>
<g id="a1_0040"  >
<polygon id="dummy-1_h1_9_40" style="stroke:black; stroke-width:1; fill:white; " description="&lt;b&gt;C6W96_RS29455&lt;/b&gt;&lt;br&gt;MFS transporter&lt;br&gt;Location: 6560406 - 6561869" locus_tag="C6W96_RS29455" points="467,90 479,90 484,85 479,80 467,80 467,90 " class="clusterblast-orf"  />
</g>
<g id="a1_0041"  >
<polygon id="dummy-1_h1_9_41" style="stroke:black; stroke-width:1; fill:white; " description="&lt;b&gt;C6W96_RS29460&lt;/b&gt;&lt;br&gt;SDR family oxidoreductase&lt;br&gt;Location: 6561869 - 6562642" locus_tag="C6W96_RS29460" points="484,90 488,90 493,85 488,80 484,80 484,90 " class="clusterblast-orf"  />
</g>
<g id="a1_0042"  >
<polygon id="dummy-1_h1_9_42" style="stroke:black; stroke-width:1; fill:white; " description="&lt;b&gt;C6W96_RS29465&lt;/b&gt;&lt;br&gt;cupin domain-containing protein&lt;br&gt;Location: 6562697 - 6563323" locus_tag="C6W96_RS29465" points="493,90 496,90 501,85 496,80 493,80 493,90 " class="clusterblast-orf"  />
</g>
<g id="a1_0043"  >
<polygon id="dummy-1_h1_9_43" style="stroke:black; stroke-width:1; fill:white; " description="&lt;b&gt;C6W96_RS29470&lt;/b&gt;&lt;br&gt;SAM-dependent methyltransferase&lt;br&gt;Location: 6563466 - 6564131" locus_tag="C6W96_RS29470" points="502,90 505,90 510,85 505,80 502,80 502,90 " class="clusterblast-orf"  />
</g>
<g id="a1_0044"  >
<polygon id="dummy-1_h1_9_44" style="stroke:black; stroke-width:1; fill:white; " description="&lt;b&gt;C6W96_RS29475&lt;/b&gt;&lt;br&gt;fructose-bisphosphate aldolase&lt;br&gt;Location: 6564162 - 6564974" locus_tag="C6W96_RS29475" points="510,90 514,90 519,85 514,80 510,80 510,90 " class="clusterblast-orf"  />
</g>
<g id="a1_0045"  >
<polygon id="dummy-1_h1_9_45" style="stroke:black; stroke-width:1; fill:white; " description="&lt;b&gt;C6W96_RS29480&lt;/b&gt;&lt;br&gt;3-dehydroquinate synthase II family protein&lt;br&gt;Location: 6564971 - 6566074" locus_tag="C6W96_RS29480" points="519,90 527,90 532,85 527,80 519,80 519,90 " class="clusterblast-orf"  />
</g>
<g id="a1_0046"  >
<polygon id="dummy-1_h1_9_46" style="stroke:black; stroke-width:1; fill:white; " description="&lt;b&gt;C6W96_RS29485&lt;/b&gt;&lt;br&gt;acyl--CoA ligase&lt;br&gt;Location: 6566157 - 6567935" locus_tag="C6W96_RS29485" points="533,90 548,90 553,85 548,80 533,80 533,90 " class="clusterblast-orf"  />
</g>
<g id="a1_0047"  >
<polygon id="dummy-1_h1_9_47" style="stroke:black; stroke-width:1; fill:white; " description="&lt;b&gt;C6W96_RS29490&lt;/b&gt;&lt;br&gt;methyltransferase&lt;br&gt;Location: 6567989 - 6569005" locus_tag="C6W96_RS29490" points="554,90 560,90 565,85 560,80 554,80 554,90 " class="clusterblast-orf"  />
</g>
<g id="a1_0048"  >
<polygon id="dummy-1_h1_9_48" style="stroke:black; stroke-width:1; fill:white; " description="&lt;b&gt;C6W96_RS34820&lt;/b&gt;&lt;br&gt;FAD-binding protein&lt;br&gt;Location: 6569002 - 6570861" locus_tag="C6W96_RS34820" points="565,90 581,90 586,85 581,80 565,80 565,90 " class="clusterblast-orf"  />
</g>
<g id="a1_0049"  >
<polygon id="dummy-1_h1_9_49" style="stroke:black; stroke-width:1; fill:white; " description="&lt;b&gt;C6W96_RS29500&lt;/b&gt;&lt;br&gt;monooxygenase&lt;br&gt;Location: 6570858 - 6572537" locus_tag="C6W96_RS29500" points="586,90 601,90 606,85 601,80 586,80 586,90 " class="clusterblast-orf"  />
</g>
<g id="a1_0050"  >
<polygon id="dummy-1_h1_9_50" style="stroke:black; stroke-width:1; fill:white; " description="&lt;b&gt;C6W96_RS29505&lt;/b&gt;&lt;br&gt;FAD/NAD(P)-binding protein&lt;br&gt;Location: 6572534 - 6574492" locus_tag="C6W96_RS29505" points="606,90 623,90 628,85 623,80 606,80 606,90 " class="clusterblast-orf"  />
</g>
<g id="a1_0051"  >
<polygon id="dummy-1_h1_9_51" style="stroke:black; stroke-width:1; fill:white; " description="&lt;b&gt;C6W96_RS29510&lt;/b&gt;&lt;br&gt;3-carboxy-cis,cis-muconate cycloisomerase&lt;br&gt;Location: 6574489 - 6575904" locus_tag="C6W96_RS29510" points="628,90 639,90 644,85 639,80 628,80 628,90 " class="clusterblast-orf"  />
</g>
<g id="a1_0052"  >
<polygon id="dummy-1_h1_9_52" style="stroke:black; stroke-width:1; fill:white; " description="&lt;b&gt;C6W96_RS29515&lt;/b&gt;&lt;br&gt;methionine adenosyltransferase&lt;br&gt;Location: 6575904 - 6577124" locus_tag="C6W96_RS29515" points="644,90 653,90 658,85 653,80 644,80 644,90 " class="clusterblast-orf"  />
</g>
<g id="a1_0053"  >
<polygon id="dummy-1_h1_9_53" style="stroke:black; stroke-width:1; fill:white; " description="&lt;b&gt;C6W96_RS29520&lt;/b&gt;&lt;br&gt;carbohydrate kinase family protein&lt;br&gt;Location: 6577156 - 6578160" locus_tag="C6W96_RS29520" points="658,90 665,90 670,85 665,80 658,80 658,90 " class="clusterblast-orf"  />
</g>
<g id="a1_0054"  >
<polygon id="dummy-1_h1_9_54" style="stroke:black; stroke-width:1; fill:white; " description="&lt;b&gt;C6W96_RS29525&lt;/b&gt;&lt;br&gt;nuclear transport factor 2 family protein&lt;br&gt;Location: 6578233 - 6578667" locus_tag="C6W96_RS29525" points="671,90 675,85 671,80 671,90 " class="clusterblast-orf"  />
</g>
<g id="a1_0055"  >
<polygon id="dummy-1_h1_9_55" style="stroke:black; stroke-width:1; fill:white; " description="&lt;b&gt;C6W96_RS29530&lt;/b&gt;&lt;br&gt;alpha/beta hydrolase&lt;br&gt;Location: 6578750 - 6579589" locus_tag="C6W96_RS29530" points="676,90 681,90 686,85 681,80 676,80 676,90 " class="clusterblast-orf"  />
</g>
<g id="a1_0056"  >
<polygon id="dummy-1_h1_9_56" style="stroke:black; stroke-width:1; fill:white; " description="&lt;b&gt;C6W96_RS29535&lt;/b&gt;&lt;br&gt;hypothetical protein&lt;br&gt;Location: 6579784 - 6580563" locus_tag="C6W96_RS29535" points="688,90 692,90 697,85 692,80 688,80 688,90 " class="clusterblast-orf"  />
</g>
<g id="a1_0057"  >
<polygon id="dummy-1_h1_9_57" style="stroke:black; stroke-width:1; fill:white; " description="&lt;b&gt;C6W96_RS29540&lt;/b&gt;&lt;br&gt;ABC transporter substrate-binding protein&lt;br&gt;Location: 6580573 - 6582825" locus_tag="C6W96_RS29540" points="697,90 718,90 723,85 718,80 697,80 697,90 " class="clusterblast-orf"  />
</g>
<g id="a1_0058"  >
<polygon id="dummy-1_h1_9_58" style="stroke:black; stroke-width:1; fill:white; " description="&lt;b&gt;C6W96_RS29545&lt;/b&gt;&lt;br&gt;ABC transporter substrate-binding protein&lt;br&gt;Location: 6582827 - 6585262" locus_tag="C6W96_RS29545" points="723,90 746,90 751,85 746,80 723,80 723,90 " class="clusterblast-orf"  />
</g>
<g id="a1_0059"  >
<polygon id="dummy-1_h1_9_59" style="stroke:black; stroke-width:1; fill:white; " description="&lt;b&gt;C6W96_RS29550&lt;/b&gt;&lt;br&gt;L-threonine 3-dehydrogenase&lt;br&gt;Location: 6585518 - 6586546" locus_tag="C6W96_RS29550" points="754,90 760,90 765,85 760,80 754,80 754,90 " class="clusterblast-orf"  />
</g>
<g id="a1_0060"  >
<polygon id="dummy-1_h1_9_60" style="stroke:black; stroke-width:1; fill:white; " description="&lt;b&gt;C6W96_RS29555&lt;/b&gt;&lt;br&gt;glycine C-acetyltransferase&lt;br&gt;Location: 6586591 - 6587793" locus_tag="C6W96_RS29555" points="766,90 775,90 780,85 775,80 766,80 766,90 " class="clusterblast-orf"  />
</g>
</svg>
