<svg preserveAspectRatio="none" xmlns="http://www.w3.org/2000/svg" height="230" version="1.1" viewBox="0 0 800 230" y="0" xmlns:xlink="http://www.w3.org/1999/xlink" x="0" width="800"  >
<g class="clusterblast-cluster" label="Query sequence"  >
<text y="20" x="5" class="clusterblast-acc"  >
Query sequence</text>
<line x1="10" y1="35" style="stroke:grey; stroke-width:1; " y2="35" x2="778.0"  />
<polygon id="dummy-1_q0_0_all" style="stroke:black; stroke-width:1; fill:#d81515; " description="&lt;b&gt;cds474_1365&lt;/b&gt;&lt;br&gt;putative regulatory protein&lt;br&gt;Location: 474 - 1365" locus_tag="cds474_1365" points="261,35 266,30 272,30 272,40 266,40 261,35 " class="clusterblast-orf"  />
<polygon id="dummy-1_q1_0_all" style="stroke:black; stroke-width:1; fill:white; " description="&lt;b&gt;cds1421_1556&lt;/b&gt;&lt;br&gt;hypothetical protein&lt;br&gt;Location: 1421 - 1556" locus_tag="cds1421_1556" points="273,35 275,30 275,40 273,35 " class="clusterblast-orf"  />
<polygon id="dummy-1_q2_0_all" style="stroke:black; stroke-width:1; fill:#33d815; " description="&lt;b&gt;cds1882_2089&lt;/b&gt;&lt;br&gt;hypothetical protein&lt;br&gt;Location: 1882 - 2089" locus_tag="cds1882_2089" points="279,40 282,35 279,30 279,40 " class="clusterblast-orf"  />
<polygon id="dummy-1_q3_0_all" style="stroke:black; stroke-width:1; fill:#15abd8; " description="&lt;b&gt;cds2257_3382&lt;/b&gt;&lt;br&gt;Carbamoyl-phosphate synthase small chain (EC 6.3.5.5)&lt;br&gt;Location: 2257 - 3382" locus_tag="cds2257_3382" points="284,40 293,40 298,35 293,30 284,30 284,40 " class="clusterblast-orf"  />
<polygon id="dummy-1_q4_0_all" style="stroke:black; stroke-width:1; fill:#8d15d8; " description="&lt;b&gt;cds3381_6693&lt;/b&gt;&lt;br&gt;Carbamoyl-phosphate synthase large chain (EC 6.3.5.5)&lt;br&gt;Location: 3381 - 6693" locus_tag="cds3381_6693" points="298,40 336,40 341,35 336,30 298,30 298,40 " class="clusterblast-orf"  />
<polygon id="dummy-1_q5_0_all" style="stroke:black; stroke-width:1; fill:#d86f15; " description="&lt;b&gt;cds6765_7767&lt;/b&gt;&lt;br&gt;Ornithine cyclodeaminase (EC 4.3.1.12)&lt;br&gt;Location: 6765 - 7767" locus_tag="cds6765_7767" points="342,40 350,40 355,35 350,30 342,30 342,40 " class="clusterblast-orf"  />
<polygon id="dummy-1_q6_0_all" style="stroke:black; stroke-width:1; fill:#15d851; " description="&lt;b&gt;cds7753_8758&lt;/b&gt;&lt;br&gt;2,3-diaminopropionate for siderophore biosynthesis protein SbnB&lt;br&gt;Location: 7753 - 8758" locus_tag="cds7753_8758" points="355,40 363,40 368,35 363,30 355,30 355,40 " class="clusterblast-orf"  />
<polygon id="dummy-1_q7_0_all" style="stroke:black; stroke-width:1; fill:#1551d8; " description="&lt;b&gt;cds8754_10476&lt;/b&gt;&lt;br&gt;hypothetical protein&lt;br&gt;Location: 8754 - 10476" locus_tag="cds8754_10476" points="368,40 385,40 390,35 385,30 368,30 368,40 " class="clusterblast-orf"  />
<polygon id="dummy-1_q8_0_all" style="stroke:black; stroke-width:1; fill:#d815c9; " description="&lt;b&gt;cds10508_12074&lt;/b&gt;&lt;br&gt;hypothetical protein&lt;br&gt;Location: 10508 - 12074" locus_tag="cds10508_12074" points="391,40 406,40 411,35 406,30 391,30 391,40 " class="clusterblast-orf"  />
<polygon id="dummy-1_q9_0_all" style="stroke:black; stroke-width:1; fill:#d8c915; " description="&lt;b&gt;cds12346_15514&lt;/b&gt;&lt;br&gt;Polyketide synthase modules and related proteins&lt;br&gt;Location: 12346 - 15514" locus_tag="cds12346_15514" points="415,40 451,40 456,35 451,30 415,30 415,40 " class="clusterblast-orf"  />
<polygon id="dummy-1_q10_0_all" style="stroke:black; stroke-width:1; fill:#d8c915; " description="&lt;b&gt;cds15506_16355&lt;/b&gt;&lt;br&gt;hypothetical protein&lt;br&gt;Location: 15506 - 16355" locus_tag="cds15506_16355" points="456,40 462,40 467,35 462,30 456,30 456,40 " class="clusterblast-orf"  />
<polygon id="dummy-1_q11_0_all" style="stroke:black; stroke-width:1; fill:#15d8ab; " description="&lt;b&gt;cds16363_17689&lt;/b&gt;&lt;br&gt;export protein&lt;br&gt;Location: 16363 - 17689" locus_tag="cds16363_17689" points="467,40 479,40 484,35 479,30 467,30 467,40 " class="clusterblast-orf"  />
<polygon id="dummy-1_q12_0_all" style="stroke:black; stroke-width:1; fill:#3315d8; " description="&lt;b&gt;cds17829_19185&lt;/b&gt;&lt;br&gt;N-acyl-L-amino acid amidohydrolase (EC 3.5.1.14)&lt;br&gt;Location: 17829 - 19185" locus_tag="cds17829_19185" points="486,40 499,40 504,35 499,30 486,30 486,40 " class="clusterblast-orf"  />
<polygon id="dummy-1_q13_0_all" style="stroke:black; stroke-width:1; fill:#d8156f; " description="&lt;b&gt;cds19260_19662&lt;/b&gt;&lt;br&gt;Transcriptional regulator, MecI family&lt;br&gt;Location: 19260 - 19662" locus_tag="cds19260_19662" points="504,40 505,40 510,35 505,30 504,30 504,40 " class="clusterblast-orf"  />
<polygon id="dummy-1_q14_0_all" style="stroke:black; stroke-width:1; fill:#8dd815; " description="&lt;b&gt;cds19667_20351&lt;/b&gt;&lt;br&gt;Peptidase M48, Ste24p precursor&lt;br&gt;Location: 19667 - 20351" locus_tag="cds19667_20351" points="510,40 514,40 519,35 514,30 510,30 510,40 " class="clusterblast-orf"  />
</g>
<g description="NZ_CP045803 (916201-978922): Streptomyces rimosus R6-500 chromosome (12% of genes show similarity), NRPS,thioamide-NRP" class="clusterblast-cluster" label="NZ_CP045803"  >
<text y="70" x="5" class="clusterblast-acc"  >
<a xlink:href="https://antismash-db.secondarymetabolites.org/area.html?record=NZ_CP045803&amp;start=916201&amp;end=978922" target="_blank">NZ_CP045803 (916201-978922)</a>: Streptomyces rimosus R6-500 chromosome (12% of genes show similarity), NRPS,thioamide-NRP</text>
<line x1="10" y1="85" style="stroke:grey; stroke-width:1; " y2="85" x2="778.0"  />
</g>
<g id="a1_000"  >
<polygon id="dummy-1_h1_6_0" style="stroke:black; stroke-width:1; fill:white; " description="&lt;b&gt;V519_RS04665&lt;/b&gt;&lt;br&gt;precorrin-3B synthase&lt;br&gt;Location: 978836 - 977370" locus_tag="V519_RS04665" points="0,85 5,80 19,80 19,90 5,90 0,85 " class="clusterblast-orf"  />
</g>
<g id="a1_001"  >
<polygon id="dummy-1_h1_6_1" style="stroke:black; stroke-width:1; fill:white; " description="&lt;b&gt;V519_RS04660&lt;/b&gt;&lt;br&gt;cobaltochelatase subunit CobN&lt;br&gt;Location: 977135 - 973464" locus_tag="V519_RS04660" points="22,90 64,90 69,85 64,80 22,80 22,90 " class="clusterblast-orf"  />
</g>
<g id="a1_002"  >
<polygon id="dummy-1_h1_6_2" style="stroke:black; stroke-width:1; fill:white; " description="&lt;b&gt;V519_RS04655&lt;/b&gt;&lt;br&gt;LCP family protein&lt;br&gt;Location: 973353 - 972019" locus_tag="V519_RS04655" points="71,85 76,80 88,80 88,90 76,90 71,85 " class="clusterblast-orf"  />
</g>
<g id="a1_003"  >
<polygon id="dummy-1_h1_6_3" style="stroke:black; stroke-width:1; fill:white; " description="&lt;b&gt;V519_RS04650&lt;/b&gt;&lt;br&gt;hypothetical protein&lt;br&gt;Location: 971783 - 971583" locus_tag="V519_RS04650" points="91,85 94,80 94,90 91,85 " class="clusterblast-orf"  />
</g>
<g id="a1_004"  >
<polygon id="dummy-1_h1_6_4" style="stroke:black; stroke-width:1; fill:#8dd815; " description="&lt;b&gt;V519_RS04645&lt;/b&gt;&lt;br&gt;M56 family metallopeptidase&lt;br&gt;Location: 971261 - 970296&lt;br&gt;&lt;br&gt;&lt;b&gt;BlastP hit with cds19667_20351&lt;/b&gt;&lt;br&gt;Percentage identity: 68&lt;br&gt;Percentage coverage: 103&lt;br&gt;BLAST bit score: 273&lt;br&gt;E-value: 1.7e-71" locus_tag="V519_RS04645" points="98,85 103,80 110,80 110,90 103,90 98,85 " class="clusterblast-orf"  />
</g>
<g id="a1_005"  >
<polygon id="dummy-1_h1_6_5" style="stroke:black; stroke-width:1; fill:#d8156f; " description="&lt;b&gt;V519_RS04640&lt;/b&gt;&lt;br&gt;BlaI/MecI/CopY family transcriptional regulator&lt;br&gt;Location: 970288 - 969857&lt;br&gt;&lt;br&gt;&lt;b&gt;BlastP hit with cds19260_19662&lt;/b&gt;&lt;br&gt;Percentage identity: 63&lt;br&gt;Percentage coverage: 93&lt;br&gt;BLAST bit score: 149&lt;br&gt;E-value: 2.8e-34" locus_tag="V519_RS04640" points="110,85 115,80 116,80 116,90 115,90 110,85 " class="clusterblast-orf"  />
</g>
<g id="a1_006"  >
<polygon id="dummy-1_h1_6_6" style="stroke:black; stroke-width:1; fill:white; " description="&lt;b&gt;V519_RS04635&lt;/b&gt;&lt;br&gt;TerD family protein&lt;br&gt;Location: 969685 - 969110" locus_tag="V519_RS04635" points="118,90 121,90 126,85 121,80 118,80 118,90 " class="clusterblast-orf"  />
</g>
<g id="a1_007"  >
<polygon id="dummy-1_h1_6_7" style="stroke:black; stroke-width:1; fill:white; " description="&lt;b&gt;V519_RS04630&lt;/b&gt;&lt;br&gt;TerB family tellurite resistance protein&lt;br&gt;Location: 968981 - 968526" locus_tag="V519_RS04630" points="127,85 132,80 133,80 133,90 132,90 127,85 " class="clusterblast-orf"  />
</g>
<g id="a1_008"  >
<polygon id="dummy-1_h1_6_8" style="stroke:black; stroke-width:1; fill:white; " description="&lt;b&gt;V519_RS04625&lt;/b&gt;&lt;br&gt;hypothetical protein&lt;br&gt;Location: 968304 - 966922" locus_tag="V519_RS04625" points="136,85 141,80 154,80 154,90 141,90 136,85 " class="clusterblast-orf"  />
</g>
<g id="a1_009"  >
<polygon id="dummy-1_h1_6_9" style="stroke:black; stroke-width:1; fill:white; " description="&lt;b&gt;V519_RS04620&lt;/b&gt;&lt;br&gt;hypothetical protein&lt;br&gt;Location: 966539 - 966048" locus_tag="V519_RS04620" points="159,90 161,90 166,85 161,80 159,80 159,90 " class="clusterblast-orf"  />
</g>
<g id="a1_0010"  >
<polygon id="dummy-1_h1_6_10" style="stroke:black; stroke-width:1; fill:white; " description="&lt;b&gt;V519_RS04615&lt;/b&gt;&lt;br&gt;MFS transporter&lt;br&gt;Location: 966031 - 964166" locus_tag="V519_RS04615" points="166,85 171,80 190,80 190,90 171,90 166,85 " class="clusterblast-orf"  />
</g>
<g id="a1_0011"  >
<polygon id="dummy-1_h1_6_11" style="stroke:black; stroke-width:1; fill:white; " description="&lt;b&gt;V519_RS04610&lt;/b&gt;&lt;br&gt;GNAT family N-acetyltransferase&lt;br&gt;Location: 963993 - 963391" locus_tag="V519_RS04610" points="192,85 197,80 200,80 200,90 197,90 192,85 " class="clusterblast-orf"  />
</g>
<g id="a1_0012"  >
<polygon id="dummy-1_h1_6_12" style="stroke:black; stroke-width:1; fill:white; " description="&lt;b&gt;V519_RS04605&lt;/b&gt;&lt;br&gt;sensor histidine kinase&lt;br&gt;Location: 963071 - 961767" locus_tag="V519_RS04605" points="204,85 209,80 221,80 221,90 209,90 204,85 " class="clusterblast-orf"  />
</g>
<g id="a1_0013"  >
<polygon id="dummy-1_h1_6_13" style="stroke:black; stroke-width:1; fill:white; " description="&lt;b&gt;V519_RS04600&lt;/b&gt;&lt;br&gt;MMPL family transporter&lt;br&gt;Location: 961669 - 960194" locus_tag="V519_RS04600" points="222,85 227,80 241,80 241,90 227,90 222,85 " class="clusterblast-orf"  />
</g>
<g id="a1_0014"  >
<polygon id="dummy-1_h1_6_14" style="stroke:black; stroke-width:1; fill:white; " description="&lt;b&gt;V519_RS04595&lt;/b&gt;&lt;br&gt;3-oxoacyl-ACP synthase&lt;br&gt;Location: 959883 - 958948" locus_tag="V519_RS04595" points="246,90 253,90 258,85 253,80 246,80 246,90 " class="clusterblast-orf"  />
</g>
<g id="a1_0015"  >
<polygon id="dummy-1_h1_6_15" style="stroke:black; stroke-width:1; fill:white; " description="&lt;b&gt;V519_RS04590&lt;/b&gt;&lt;br&gt;ATP-grasp domain-containing protein&lt;br&gt;Location: 958922 - 957528" locus_tag="V519_RS04590" points="258,90 271,90 276,85 271,80 258,80 258,90 " class="clusterblast-orf"  />
</g>
<g id="a1_0016"  >
<polygon id="dummy-1_h1_6_16" style="stroke:black; stroke-width:1; fill:white; " description="&lt;b&gt;V519_RS04585&lt;/b&gt;&lt;br&gt;type III PLP-dependent enzyme&lt;br&gt;Location: 957538 - 956246" locus_tag="V519_RS04585" points="276,90 288,90 293,85 288,80 276,80 276,90 " class="clusterblast-orf"  />
</g>
<g id="a1_0017"  >
<polygon id="dummy-1_h1_6_17" style="stroke:black; stroke-width:1; fill:white; " description="&lt;b&gt;V519_RS04580&lt;/b&gt;&lt;br&gt;acyl carrier protein&lt;br&gt;Location: 956216 - 955950" locus_tag="V519_RS04580" points="293,90 297,85 293,80 293,90 " class="clusterblast-orf"  />
</g>
<g id="a1_0018"  >
<polygon id="dummy-1_h1_6_18" style="stroke:black; stroke-width:1; fill:white; " description="&lt;b&gt;V519_RS04575&lt;/b&gt;&lt;br&gt;hypothetical protein&lt;br&gt;Location: 955953 - 955108" locus_tag="V519_RS04575" points="297,90 303,90 308,85 303,80 297,80 297,90 " class="clusterblast-orf"  />
</g>
<g id="a1_0019"  >
<polygon id="dummy-1_h1_6_19" style="stroke:black; stroke-width:1; fill:white; " description="&lt;b&gt;V519_RS04570&lt;/b&gt;&lt;br&gt;4'-phosphopantetheinyl transferase superfamily protein&lt;br&gt;Location: 955111 - 954386" locus_tag="V519_RS04570" points="307,90 312,90 317,85 312,80 307,80 307,90 " class="clusterblast-orf"  />
</g>
<g id="a1_0020"  >
<polygon id="dummy-1_h1_6_20" style="stroke:black; stroke-width:1; fill:white; " description="&lt;b&gt;V519_RS04565&lt;/b&gt;&lt;br&gt;response regulator transcription factor&lt;br&gt;Location: 954414 - 953761" locus_tag="V519_RS04565" points="317,85 322,80 325,80 325,90 322,90 317,85 " class="clusterblast-orf"  />
</g>
<g id="a1_0021"  >
<polygon id="dummy-1_h1_6_21" style="stroke:black; stroke-width:1; fill:#15d851; " description="&lt;b&gt;V519_RS04560&lt;/b&gt;&lt;br&gt;2,3-diaminopropionate biosynthesis protein SbnB&lt;br&gt;Location: 953497 - 952454&lt;br&gt;&lt;br&gt;&lt;b&gt;BlastP hit with cds7753_8758&lt;/b&gt;&lt;br&gt;Percentage identity: 48&lt;br&gt;Percentage coverage: 101&lt;br&gt;BLAST bit score: 272&lt;br&gt;E-value: 4.2e-71" locus_tag="V519_RS04560" points="328,90 337,90 342,85 337,80 328,80 328,90 " class="clusterblast-orf"  />
</g>
<g id="a1_0022"  >
<polygon id="dummy-1_h1_6_22" style="stroke:black; stroke-width:1; fill:#d86f15; " description="&lt;b&gt;V519_RS04555&lt;/b&gt;&lt;br&gt;2,3-diaminopropionate biosynthesis protein SbnA&lt;br&gt;Location: 952405 - 951422&lt;br&gt;&lt;br&gt;&lt;b&gt;BlastP hit with cds6765_7767&lt;/b&gt;&lt;br&gt;Percentage identity: 42&lt;br&gt;Percentage coverage: 91&lt;br&gt;BLAST bit score: 238&lt;br&gt;E-value: 1.1e-60" locus_tag="V519_RS04555" points="343,90 350,90 355,85 350,80 343,80 343,90 " class="clusterblast-orf"  />
</g>
<g id="a1_0023"  >
<polygon id="dummy-1_h1_6_23" style="stroke:black; stroke-width:1; fill:white; " description="&lt;b&gt;V519_RS04550&lt;/b&gt;&lt;br&gt;non-ribosomal peptide synthetase&lt;br&gt;Location: 951323 - 943401" locus_tag="V519_RS04550" points="357,90 454,90 459,85 454,80 357,80 357,90 " class="clusterblast-orf"  />
</g>
<g id="a1_0024"  >
<polygon id="dummy-1_h1_6_24" style="stroke:black; stroke-width:1; fill:#d8c915; " description="&lt;b&gt;V519_RS04545&lt;/b&gt;&lt;br&gt;non-ribosomal peptide synthetase&lt;br&gt;Location: 943371 - 936202&lt;br&gt;&lt;br&gt;&lt;b&gt;BlastP hit with cds12346_15514&lt;/b&gt;&lt;br&gt;Percentage identity: 38&lt;br&gt;Percentage coverage: 102&lt;br&gt;BLAST bit score: 625&lt;br&gt;E-value: 1e-176&lt;br&gt;&lt;br&gt;&lt;b&gt;BlastP hit with cds15506_16355&lt;/b&gt;&lt;br&gt;Percentage identity: 37&lt;br&gt;Percentage coverage: 67&lt;br&gt;BLAST bit score: 106&lt;br&gt;E-value: 4.4e-21" locus_tag="V519_RS04545" points="460,90 548,90 553,85 548,80 460,80 460,90 " class="clusterblast-orf"  />
</g>
<g id="a1_0025"  >
<polygon id="dummy-1_h1_6_25" style="stroke:black; stroke-width:1; fill:white; " description="&lt;b&gt;V519_RS04540&lt;/b&gt;&lt;br&gt;MbtH family protein&lt;br&gt;Location: 936159 - 935947" locus_tag="V519_RS04540" points="553,90 556,85 553,80 553,90 " class="clusterblast-orf"  />
</g>
<g id="a1_0026"  >
<polygon id="dummy-1_h1_6_26" style="stroke:black; stroke-width:1; fill:white; " description="&lt;b&gt;V519_RS04535&lt;/b&gt;&lt;br&gt;daunorubicin resistance protein DrrA family ABC transporter ATP-binding protein&lt;br&gt;Location: 935941 - 934976" locus_tag="V519_RS04535" points="556,90 564,90 569,85 564,80 556,80 556,90 " class="clusterblast-orf"  />
</g>
<g id="a1_0027"  >
<polygon id="dummy-1_h1_6_27" style="stroke:black; stroke-width:1; fill:white; " description="&lt;b&gt;V519_RS04530&lt;/b&gt;&lt;br&gt;ABC transporter permease&lt;br&gt;Location: 934983 - 934165" locus_tag="V519_RS04530" points="569,90 574,90 579,85 574,80 569,80 569,90 " class="clusterblast-orf"  />
</g>
<g id="a1_0028"  >
<polygon id="dummy-1_h1_6_28" style="stroke:black; stroke-width:1; fill:white; " description="&lt;b&gt;V519_RS04525&lt;/b&gt;&lt;br&gt;AfsR/SARP family transcriptional regulator&lt;br&gt;Location: 934057 - 933311" locus_tag="V519_RS04525" points="581,85 586,80 590,80 590,90 586,90 581,85 " class="clusterblast-orf"  />
</g>
<g id="a1_0029"  >
<polygon id="dummy-1_h1_6_29" style="stroke:black; stroke-width:1; fill:white; " description="&lt;b&gt;V519_RS04520&lt;/b&gt;&lt;br&gt;tetratricopeptide repeat protein&lt;br&gt;Location: 932751 - 931687" locus_tag="V519_RS04520" points="598,85 603,80 612,80 612,90 603,90 598,85 " class="clusterblast-orf"  />
</g>
<g id="a1_0030"  >
<polygon id="dummy-1_h1_6_30" style="stroke:black; stroke-width:1; fill:white; " description="&lt;b&gt;V519_RS04515&lt;/b&gt;&lt;br&gt;AAA family ATPase&lt;br&gt;Location: 931687 - 930359" locus_tag="V519_RS04515" points="612,85 617,80 629,80 629,90 617,90 612,85 " class="clusterblast-orf"  />
</g>
<g id="a1_0031"  >
<polygon id="dummy-1_h1_6_31" style="stroke:black; stroke-width:1; fill:white; " description="&lt;b&gt;V519_RS04510&lt;/b&gt;&lt;br&gt;D-alanyl-D-alanine carboxypeptidase&lt;br&gt;Location: 930141 - 929176" locus_tag="V519_RS04510" points="632,90 639,90 644,85 639,80 632,80 632,90 " class="clusterblast-orf"  />
</g>
<g id="a1_0032"  >
<polygon id="dummy-1_h1_6_32" style="stroke:black; stroke-width:1; fill:white; " description="&lt;b&gt;V519_RS04505&lt;/b&gt;&lt;br&gt;MFS transporter&lt;br&gt;Location: 929105 - 927858" locus_tag="V519_RS04505" points="645,85 650,80 661,80 661,90 650,90 645,85 " class="clusterblast-orf"  />
</g>
<g id="a1_0033"  >
<polygon id="dummy-1_h1_6_33" style="stroke:black; stroke-width:1; fill:white; " description="&lt;b&gt;V519_RS04500&lt;/b&gt;&lt;br&gt;MerR family transcriptional regulator&lt;br&gt;Location: 927782 - 927399" locus_tag="V519_RS04500" points="662,90 662,90 667,85 662,80 662,80 662,90 " class="clusterblast-orf"  />
</g>
<g id="a1_0034"  >
<polygon id="dummy-1_h1_6_34" style="stroke:black; stroke-width:1; fill:white; " description="&lt;b&gt;V519_RS04495&lt;/b&gt;&lt;br&gt;hypothetical protein&lt;br&gt;Location: 927307 - 926732" locus_tag="V519_RS04495" points="668,85 673,80 676,80 676,90 673,90 668,85 " class="clusterblast-orf"  />
</g>
<g id="a1_0035"  >
<polygon id="dummy-1_h1_6_35" style="stroke:black; stroke-width:1; fill:white; " description="&lt;b&gt;V519_RS04490&lt;/b&gt;&lt;br&gt;NAD-dependent epimerase/dehydratase family protein&lt;br&gt;Location: 926462 - 925521" locus_tag="V519_RS04490" points="679,90 687,90 692,85 687,80 679,80 679,90 " class="clusterblast-orf"  />
</g>
<g id="a1_0036"  >
<polygon id="dummy-1_h1_6_36" style="stroke:black; stroke-width:1; fill:white; " description="&lt;b&gt;V519_RS04485&lt;/b&gt;&lt;br&gt;aminotransferase class I/II-fold pyridoxal phosphate-dependent enzyme&lt;br&gt;Location: 925512 - 922036" locus_tag="V519_RS04485" points="692,90 732,90 737,85 732,80 692,80 692,90 " class="clusterblast-orf"  />
</g>
<g id="a1_0037"  >
<polygon id="dummy-1_h1_6_37" style="stroke:black; stroke-width:1; fill:white; " description="&lt;b&gt;V519_RS04480&lt;/b&gt;&lt;br&gt;hypothetical protein&lt;br&gt;Location: 922025 - 921462" locus_tag="V519_RS04480" points="737,85 742,80 744,80 744,90 742,90 737,85 " class="clusterblast-orf"  />
</g>
<g id="a1_0038"  >
<polygon id="dummy-1_h1_6_38" style="stroke:black; stroke-width:1; fill:white; " description="&lt;b&gt;V519_RS04475&lt;/b&gt;&lt;br&gt;helix-turn-helix transcriptional regulator&lt;br&gt;Location: 921448 - 921008" locus_tag="V519_RS04475" points="744,85 749,80 750,80 750,90 749,90 744,85 " class="clusterblast-orf"  />
</g>
<g id="a1_0039"  >
<polygon id="dummy-1_h1_6_39" style="stroke:black; stroke-width:1; fill:white; " description="&lt;b&gt;V519_RS04470&lt;/b&gt;&lt;br&gt;hypothetical protein&lt;br&gt;Location: 920672 - 919518" locus_tag="V519_RS04470" points="755,85 760,80 770,80 770,90 760,90 755,85 " class="clusterblast-orf"  />
</g>
<g id="a1_0040"  >
<polygon id="dummy-1_h1_6_40" style="stroke:black; stroke-width:1; fill:white; " description="&lt;b&gt;V519_RS04465&lt;/b&gt;&lt;br&gt;hypothetical protein&lt;br&gt;Location: 919477 - 918749" locus_tag="V519_RS04465" points="770,85 775,80 780,80 780,90 775,90 770,85 " class="clusterblast-orf"  />
</g>
</svg>
