<svg preserveAspectRatio="none" xmlns="http://www.w3.org/2000/svg" height="230" version="1.1" viewBox="0 0 800 230" y="0" xmlns:xlink="http://www.w3.org/1999/xlink" x="0" width="800"  >
<g class="clusterblast-cluster" label="Query sequence"  >
<text y="20" x="5" class="clusterblast-acc"  >
Query sequence</text>
<line x1="10" y1="35" style="stroke:grey; stroke-width:1; " y2="35" x2="778.0"  />
<polygon id="dummy-1_q0_0_all" style="stroke:black; stroke-width:1; fill:#d81515; " description="&lt;b&gt;cds271_1588&lt;/b&gt;&lt;br&gt;ABC transporter, substrate-binding protein (cluster 1, maltose/g3p/polyamine/iron)&lt;br&gt;Location: 271 - 1588" locus_tag="cds271_1588" points="0,35 5,30 106,30 106,40 5,40 0,35 " class="clusterblast-orf"  />
<polygon id="dummy-1_q1_0_all" style="stroke:black; stroke-width:1; fill:#3cd815; " description="&lt;b&gt;cds1885_2113&lt;/b&gt;&lt;br&gt;Dodecin, a flavin storage/sequestration protein&lt;br&gt;Location: 1885 - 2113" locus_tag="cds1885_2113" points="129,40 143,40 148,35 143,30 129,30 129,40 " class="clusterblast-orf"  />
<polygon id="dummy-1_q2_0_all" style="stroke:black; stroke-width:1; fill:white; " description="&lt;b&gt;cds2171_2312&lt;/b&gt;&lt;br&gt;hypothetical protein&lt;br&gt;Location: 2171 - 2312" locus_tag="cds2171_2312" points="152,40 158,40 163,35 158,30 152,30 152,40 " class="clusterblast-orf"  />
<polygon id="dummy-1_q3_0_all" style="stroke:black; stroke-width:1; fill:#1563d8; " description="&lt;b&gt;cds2751_3213&lt;/b&gt;&lt;br&gt;hypothetical protein&lt;br&gt;Location: 2751 - 3213" locus_tag="cds2751_3213" points="199,35 204,30 235,30 235,40 204,40 199,35 " class="clusterblast-orf"  />
<polygon id="dummy-1_q4_0_all" style="stroke:black; stroke-width:1; fill:#b115d8; " description="&lt;b&gt;cds3524_4010&lt;/b&gt;&lt;br&gt;hypothetical protein&lt;br&gt;Location: 3524 - 4010" locus_tag="cds3524_4010" points="260,40 294,40 299,35 294,30 260,30 260,40 " class="clusterblast-orf"  />
<polygon id="dummy-1_q5_0_all" style="stroke:black; stroke-width:1; fill:#d88a15; " description="&lt;b&gt;cds4059_4896&lt;/b&gt;&lt;br&gt;putative tyrosinase&lt;br&gt;Location: 4059 - 4896" locus_tag="cds4059_4896" points="303,35 308,30 370,30 370,40 308,40 303,35 " class="clusterblast-orf"  />
<polygon id="dummy-1_q6_0_all" style="stroke:black; stroke-width:1; fill:#15d863; " description="&lt;b&gt;cds4915_5320&lt;/b&gt;&lt;br&gt;Tyrosinase cofactor&lt;br&gt;Location: 4915 - 5320" locus_tag="cds4915_5320" points="372,35 377,30 404,30 404,40 377,40 372,35 " class="clusterblast-orf"  />
<polygon id="dummy-1_q7_0_all" style="stroke:black; stroke-width:1; fill:#3c15d8; " description="&lt;b&gt;cds5618_6362&lt;/b&gt;&lt;br&gt;Succinate dehydrogenase iron-sulfur protein (EC 1.3.5.1)&lt;br&gt;Location: 5618 - 6362" locus_tag="cds5618_6362" points="428,35 433,30 487,30 487,40 433,40 428,35 " class="clusterblast-orf"  />
<polygon id="dummy-1_q8_0_all" style="stroke:black; stroke-width:1; fill:#d8158a; " description="&lt;b&gt;cds6358_8311&lt;/b&gt;&lt;br&gt;Succinate dehydrogenase flavoprotein subunit (EC 1.3.5.1)&lt;br&gt;Location: 6358 - 8311" locus_tag="cds6358_8311" points="487,35 492,30 643,30 643,40 492,40 487,35 " class="clusterblast-orf"  />
<polygon id="dummy-1_q9_0_all" style="stroke:black; stroke-width:1; fill:#b1d815; " description="&lt;b&gt;cds8312_9044&lt;/b&gt;&lt;br&gt;Succinate dehydrogenase cytochrome b subunit&lt;br&gt;Location: 8312 - 9044" locus_tag="cds8312_9044" points="643,35 648,30 702,30 702,40 648,40 643,35 " class="clusterblast-orf"  />
<polygon id="dummy-1_q10_0_all" style="stroke:black; stroke-width:1; fill:#15d8d8; " description="&lt;b&gt;cds9137_10028&lt;/b&gt;&lt;br&gt;Transcriptional regulator, LysR family&lt;br&gt;Location: 9137 - 10028" locus_tag="cds9137_10028" points="709,40 775,40 780,35 775,30 709,30 709,40 " class="clusterblast-orf"  />
</g>
<g description="NZ_CP029195 (707969-717404): Streptomyces venezuelae strain ATCC 10595 chromo... (75% of genes show similarity), melanin" class="clusterblast-cluster" label="NZ_CP029195"  >
<text y="70" x="5" class="clusterblast-acc"  >
<a xlink:href="https://antismash-db.secondarymetabolites.org/area.html?record=NZ_CP029195&amp;start=707969&amp;end=717404" target="_blank">NZ_CP029195 (707969-717404)</a>: Streptomyces venezuelae strain ATCC 10595 chromo... (75% of genes show similarity), melanin</text>
<line x1="10" y1="85" style="stroke:grey; stroke-width:1; " y2="85" x2="778.0"  />
</g>
<g id="a1_000"  >
<polygon id="dummy-1_h1_8_0" style="stroke:black; stroke-width:1; fill:white; " description="&lt;b&gt;DEJ45_RS02960&lt;/b&gt;&lt;br&gt;MsnO8 family LLM class oxidoreductase&lt;br&gt;Location: 707970 - 708989" locus_tag="DEJ45_RS02960" points="12,90 89,90 94,85 89,80 12,80 12,90 " class="clusterblast-orf"  />
</g>
<g id="a1_001"  >
<polygon id="dummy-1_h1_8_1" style="stroke:black; stroke-width:1; fill:white; " description="&lt;b&gt;DEJ45_RS02965&lt;/b&gt;&lt;br&gt;ATP-binding cassette domain-containing protein&lt;br&gt;Location: 709026 - 711389" locus_tag="DEJ45_RS02965" points="97,90 281,90 286,85 281,80 97,80 97,90 " class="clusterblast-orf"  />
</g>
<g id="a1_002"  >
<polygon id="dummy-1_h1_8_2" style="stroke:black; stroke-width:1; fill:#d88a15; " description="&lt;b&gt;DEJ45_RS02970&lt;/b&gt;&lt;br&gt;tyrosinase family protein&lt;br&gt;Location: 711404 - 712231&lt;br&gt;&lt;br&gt;&lt;b&gt;BlastP hit with cds4059_4896&lt;/b&gt;&lt;br&gt;Percentage identity: 85&lt;br&gt;Percentage coverage: 99&lt;br&gt;BLAST bit score: 513&lt;br&gt;E-value: 1.5e-143" locus_tag="DEJ45_RS02970" points="287,85 292,80 353,80 353,90 292,90 287,85 " class="clusterblast-orf"  />
</g>
<g id="a1_003"  >
<polygon id="dummy-1_h1_8_3" style="stroke:black; stroke-width:1; fill:#15d863; " description="&lt;b&gt;DEJ45_RS02975&lt;/b&gt;&lt;br&gt;tyrosinase&lt;br&gt;Location: 712254 - 712643&lt;br&gt;&lt;br&gt;&lt;b&gt;BlastP hit with cds4915_5320&lt;/b&gt;&lt;br&gt;Percentage identity: 76&lt;br&gt;Percentage coverage: 98&lt;br&gt;BLAST bit score: 106&lt;br&gt;E-value: 2.1e-21" locus_tag="DEJ45_RS02975" points="355,85 360,80 386,80 386,90 360,90 355,85 " class="clusterblast-orf"  />
</g>
<g id="a1_004"  >
<polygon id="dummy-1_h1_8_4" style="stroke:black; stroke-width:1; fill:#3c15d8; " description="&lt;b&gt;DEJ45_RS02980&lt;/b&gt;&lt;br&gt;succinate dehydrogenase/fumarate reductase iron-sulfur subunit&lt;br&gt;Location: 712958 - 713707&lt;br&gt;&lt;br&gt;&lt;b&gt;BlastP hit with cds5618_6362&lt;/b&gt;&lt;br&gt;Percentage identity: 94&lt;br&gt;Percentage coverage: 100&lt;br&gt;BLAST bit score: 488&lt;br&gt;E-value: 2.7e-136" locus_tag="DEJ45_RS02980" points="411,85 416,80 471,80 471,90 416,90 411,85 " class="clusterblast-orf"  />
</g>
<g id="a1_005"  >
<polygon id="dummy-1_h1_8_5" style="stroke:black; stroke-width:1; fill:#d8158a; " description="&lt;b&gt;DEJ45_RS02985&lt;/b&gt;&lt;br&gt;fumarate reductase/succinate dehydrogenase flavoprotein subunit&lt;br&gt;Location: 713704 - 715650&lt;br&gt;&lt;br&gt;&lt;b&gt;BlastP hit with cds6358_8311&lt;/b&gt;&lt;br&gt;Percentage identity: 90&lt;br&gt;Percentage coverage: 99&lt;br&gt;BLAST bit score: 1198&lt;br&gt;E-value: 0.0" locus_tag="DEJ45_RS02985" points="471,85 476,80 626,80 626,90 476,90 471,85 " class="clusterblast-orf"  />
</g>
<g id="a1_006"  >
<polygon id="dummy-1_h1_8_6" style="stroke:black; stroke-width:1; fill:#b1d815; " description="&lt;b&gt;DEJ45_RS02990&lt;/b&gt;&lt;br&gt;succinate dehydrogenase&lt;br&gt;Location: 715652 - 716383&lt;br&gt;&lt;br&gt;&lt;b&gt;BlastP hit with cds8312_9044&lt;/b&gt;&lt;br&gt;Percentage identity: 74&lt;br&gt;Percentage coverage: 100&lt;br&gt;BLAST bit score: 351&lt;br&gt;E-value: 5.1e-95" locus_tag="DEJ45_RS02990" points="626,85 631,80 685,80 685,90 631,90 626,85 " class="clusterblast-orf"  />
</g>
<g id="a1_007"  >
<polygon id="dummy-1_h1_8_7" style="stroke:black; stroke-width:1; fill:#15d8d8; " description="&lt;b&gt;DEJ45_RS02995&lt;/b&gt;&lt;br&gt;LysR family transcriptional regulator&lt;br&gt;Location: 716475 - 717404&lt;br&gt;&lt;br&gt;&lt;b&gt;BlastP hit with cds9137_10028&lt;/b&gt;&lt;br&gt;Percentage identity: 89&lt;br&gt;Percentage coverage: 100&lt;br&gt;BLAST bit score: 482&lt;br&gt;E-value: 3.1e-134" locus_tag="DEJ45_RS02995" points="692,90 762,90 767,85 762,80 692,80 692,90 " class="clusterblast-orf"  />
</g>
</svg>
