<svg preserveAspectRatio="none" xmlns="http://www.w3.org/2000/svg" height="230" version="1.1" viewBox="0 0 800 230" y="0" xmlns:xlink="http://www.w3.org/1999/xlink" x="0" width="800"  >
<g class="clusterblast-cluster" label="Query sequence"  >
<text y="20" x="5" class="clusterblast-acc"  >
Query sequence</text>
<line x1="10" y1="35" style="stroke:grey; stroke-width:1; " y2="35" x2="778.0"  />
<polygon id="dummy-1_q0_0_all" style="stroke:black; stroke-width:1; fill:#d81515; " description="&lt;b&gt;cds0_216&lt;/b&gt;&lt;br&gt;hypothetical protein&lt;br&gt;Location: 0 - 216" locus_tag="cds0_216" points="174,40 186,40 191,35 186,30 174,30 174,40 " class="clusterblast-orf"  />
<polygon id="dummy-1_q1_0_all" style="stroke:black; stroke-width:1; fill:#d81515; " description="&lt;b&gt;cds300_924&lt;/b&gt;&lt;br&gt;hypothetical protein&lt;br&gt;Location: 300 - 924" locus_tag="cds300_924" points="197,40 240,40 245,35 240,30 197,30 197,40 " class="clusterblast-orf"  />
<polygon id="dummy-1_q2_0_all" style="stroke:black; stroke-width:1; fill:#15d863; " description="&lt;b&gt;cds1000_2035&lt;/b&gt;&lt;br&gt;hypothetical protein&lt;br&gt;Location: 1000 - 2035" locus_tag="cds1000_2035" points="251,40 325,40 330,35 325,30 251,30 251,40 " class="clusterblast-orf"  />
<polygon id="dummy-1_q3_0_all" style="stroke:black; stroke-width:1; fill:#1563d8; " description="&lt;b&gt;cds2115_2772&lt;/b&gt;&lt;br&gt;HAD-superfamily hydrolase subfamily IA, variant 3&lt;br&gt;Location: 2115 - 2772" locus_tag="cds2115_2772" points="337,40 382,40 387,35 382,30 337,30 337,40 " class="clusterblast-orf"  />
<polygon id="dummy-1_q4_0_all" style="stroke:black; stroke-width:1; fill:#b115d8; " description="&lt;b&gt;cds2816_4034&lt;/b&gt;&lt;br&gt;putative cytochrome P450 hydroxylase&lt;br&gt;Location: 2816 - 4034" locus_tag="cds2816_4034" points="390,40 479,40 484,35 479,30 390,30 390,40 " class="clusterblast-orf"  />
<polygon id="dummy-1_q5_0_all" style="stroke:black; stroke-width:1; fill:#b1d815; " description="&lt;b&gt;cds4105_5629&lt;/b&gt;&lt;br&gt;hypothetical protein&lt;br&gt;Location: 4105 - 5629" locus_tag="cds4105_5629" points="489,35 494,30 606,30 606,40 494,40 489,35 " class="clusterblast-orf"  />
</g>
<g description="NZ_CP045031 (74086-&gt;84261): Streptomyces sp. C8S0 chromosome (45% of genes show similarity), butyrolactone" class="clusterblast-cluster" label="NZ_CP045031"  >
<text y="70" x="5" class="clusterblast-acc"  >
<a xlink:href="https://antismash-db.secondarymetabolites.org/area.html?record=NZ_CP045031&amp;start=74086&amp;end=>84261" target="_blank">NZ_CP045031 (74086->84261)</a>: Streptomyces sp. C8S0 chromosome (45% of genes show similarity), butyrolactone</text>
<line x1="10" y1="85" style="stroke:grey; stroke-width:1; " y2="85" x2="778.0"  />
</g>
<g id="a1_000"  >
<polygon id="dummy-1_h1_1_0" style="stroke:black; stroke-width:1; fill:white; " description="&lt;b&gt;F9V55_RS00440&lt;/b&gt;&lt;br&gt;carbonic anhydrase&lt;br&gt;Location: 84261 - 83629" locus_tag="F9V55_RS00440" points="0,85 5,80 48,80 48,90 5,90 0,85 " class="clusterblast-orf"  />
</g>
<g id="a1_001"  >
<polygon id="dummy-1_h1_1_1" style="stroke:black; stroke-width:1; fill:white; " description="&lt;b&gt;F9V55_RS00435&lt;/b&gt;&lt;br&gt;helix-turn-helix domain-containing protein&lt;br&gt;Location: 83220 - 82750" locus_tag="F9V55_RS00435" points="79,90 110,90 115,85 110,80 79,80 79,90 " class="clusterblast-orf"  />
</g>
<g id="a1_002"  >
<polygon id="dummy-1_h1_1_2" style="stroke:black; stroke-width:1; fill:white; " description="&lt;b&gt;F9V55_RS00430&lt;/b&gt;&lt;br&gt;IS630 family transposase&lt;br&gt;Location: 82780 - 82640" locus_tag="F9V55_RS00430" points="113,90 119,90 124,85 119,80 113,80 113,90 " class="clusterblast-orf"  />
</g>
<g id="a1_003"  >
<polygon id="dummy-1_h1_1_3" style="stroke:black; stroke-width:1; fill:white; " description="&lt;b&gt;F9V55_RS00425&lt;/b&gt;&lt;br&gt;hypothetical protein&lt;br&gt;Location: 82444 - 82214" locus_tag="F9V55_RS00425" points="139,85 144,80 156,80 156,90 144,90 139,85 " class="clusterblast-orf"  />
</g>
<g id="a1_004"  >
<polygon id="dummy-1_h1_1_4" style="stroke:black; stroke-width:1; fill:white; " description="&lt;b&gt;F9V55_RS00420&lt;/b&gt;&lt;br&gt;hypothetical protein&lt;br&gt;Location: 81875 - 81290" locus_tag="F9V55_RS00420" points="182,85 187,80 227,80 227,90 187,90 182,85 " class="clusterblast-orf"  />
</g>
<g id="a1_005"  >
<polygon id="dummy-1_h1_1_5" style="stroke:black; stroke-width:1; fill:#d81515; " description="&lt;b&gt;F9V55_RS00415&lt;/b&gt;&lt;br&gt;hypothetical protein&lt;br&gt;Location: 81119 - 80751&lt;br&gt;&lt;br&gt;&lt;b&gt;BlastP hit with cds0_216&lt;/b&gt;&lt;br&gt;Percentage identity: 88&lt;br&gt;Percentage coverage: 72&lt;br&gt;BLAST bit score: 102&lt;br&gt;E-value: 1.6e-20&lt;br&gt;&lt;br&gt;&lt;b&gt;BlastP hit with cds300_924&lt;/b&gt;&lt;br&gt;Percentage identity: 74&lt;br&gt;Percentage coverage: 19&lt;br&gt;BLAST bit score: 67&lt;br&gt;E-value: 2.2e-09" locus_tag="F9V55_RS00415" points="240,90 264,90 269,85 264,80 240,80 240,90 " class="clusterblast-orf"  />
</g>
<g id="a1_006"  >
<polygon id="dummy-1_h1_1_6" style="stroke:black; stroke-width:1; fill:#15d863; " description="&lt;b&gt;F9V55_RS00410&lt;/b&gt;&lt;br&gt;hypothetical protein&lt;br&gt;Location: 80186 - 79061&lt;br&gt;&lt;br&gt;&lt;b&gt;BlastP hit with cds1000_2035&lt;/b&gt;&lt;br&gt;Percentage identity: 100&lt;br&gt;Percentage coverage: 26&lt;br&gt;BLAST bit score: 182&lt;br&gt;E-value: 7.6e-44" locus_tag="F9V55_RS00410" points="312,90 393,90 398,85 393,80 312,80 312,90 " class="clusterblast-orf"  />
</g>
<g id="a1_007"  >
<polygon id="dummy-1_h1_1_7" style="stroke:black; stroke-width:1; fill:#1563d8; " description="&lt;b&gt;F9V55_RS00405&lt;/b&gt;&lt;br&gt;HAD-IA family hydrolase&lt;br&gt;Location: 79064 - 78425&lt;br&gt;&lt;br&gt;&lt;b&gt;BlastP hit with cds2115_2772&lt;/b&gt;&lt;br&gt;Percentage identity: 52&lt;br&gt;Percentage coverage: 30&lt;br&gt;BLAST bit score: 59&lt;br&gt;E-value: 4.7e-07" locus_tag="F9V55_RS00405" points="398,90 442,90 447,85 442,80 398,80 398,90 " class="clusterblast-orf"  />
</g>
<g id="a1_008"  >
<polygon id="dummy-1_h1_1_8" style="stroke:black; stroke-width:1; fill:#b115d8; " description="&lt;b&gt;F9V55_RS00400&lt;/b&gt;&lt;br&gt;cytochrome P450&lt;br&gt;Location: 78408 - 77166&lt;br&gt;&lt;br&gt;&lt;b&gt;BlastP hit with cds2816_4034&lt;/b&gt;&lt;br&gt;Percentage identity: 99&lt;br&gt;Percentage coverage: 88&lt;br&gt;BLAST bit score: 719&lt;br&gt;E-value: 1.6e-205" locus_tag="F9V55_RS00400" points="448,90 538,90 543,85 538,80 448,80 448,90 " class="clusterblast-orf"  />
</g>
<g id="a1_009"  >
<polygon id="dummy-1_h1_1_9" style="stroke:black; stroke-width:1; fill:#b1d815; " description="&lt;b&gt;F9V55_RS00395&lt;/b&gt;&lt;br&gt;hypothetical protein&lt;br&gt;Location: 76635 - 75610&lt;br&gt;&lt;br&gt;&lt;b&gt;BlastP hit with cds4105_5629&lt;/b&gt;&lt;br&gt;Percentage identity: 95&lt;br&gt;Percentage coverage: 23&lt;br&gt;BLAST bit score: 225&lt;br&gt;E-value: 1.5e-56" locus_tag="F9V55_RS00395" points="584,85 589,80 663,80 663,90 589,90 584,85 " class="clusterblast-orf"  />
</g>
<g id="a1_0010"  >
<polygon id="dummy-1_h1_1_10" style="stroke:black; stroke-width:1; fill:white; " description="&lt;b&gt;F9V55_RS00390&lt;/b&gt;&lt;br&gt;MFS transporter&lt;br&gt;Location: 75570 - 74087" locus_tag="F9V55_RS00390" points="666,85 671,80 780,80 780,90 671,90 666,85 " class="clusterblast-orf"  />
</g>
</svg>
