<svg preserveAspectRatio="none" xmlns="http://www.w3.org/2000/svg" height="230" version="1.1" viewBox="0 0 800 230" y="0" xmlns:xlink="http://www.w3.org/1999/xlink" x="0" width="800"  >
<g class="clusterblast-cluster" label="Query sequence"  >
<text y="20" x="5" class="clusterblast-acc"  >
Query sequence</text>
<line x1="10" y1="35" style="stroke:grey; stroke-width:1; " y2="35" x2="778.0"  />
<polygon id="dummy-1_q0_0_all" style="stroke:black; stroke-width:1; fill:#d81515; " description="&lt;b&gt;cds2925_3165&lt;/b&gt;&lt;br&gt;putative small membrane protein&lt;br&gt;Location: 2925 - 3165" locus_tag="cds2925_3165" points="0,40 19,40 24,35 19,30 0,30 0,40 " class="clusterblast-orf"  />
<polygon id="dummy-1_q1_0_all" style="stroke:black; stroke-width:1; fill:white; " description="&lt;b&gt;cds3441_4023&lt;/b&gt;&lt;br&gt;hypothetical protein&lt;br&gt;Location: 3441 - 4023" locus_tag="cds3441_4023" points="50,40 101,40 106,35 101,30 50,30 50,40 " class="clusterblast-orf"  />
<polygon id="dummy-1_q2_0_all" style="stroke:black; stroke-width:1; fill:white; " description="&lt;b&gt;cds4373_4649&lt;/b&gt;&lt;br&gt;hypothetical protein&lt;br&gt;Location: 4373 - 4649" locus_tag="cds4373_4649" points="140,40 161,40 166,35 161,30 140,30 140,40 " class="clusterblast-orf"  />
<polygon id="dummy-1_q3_0_all" style="stroke:black; stroke-width:1; fill:white; " description="&lt;b&gt;cds4848_5376&lt;/b&gt;&lt;br&gt;hypothetical protein&lt;br&gt;Location: 4848 - 5376" locus_tag="cds4848_5376" points="185,40 231,40 236,35 231,30 185,30 185,40 " class="clusterblast-orf"  />
<polygon id="dummy-1_q4_0_all" style="stroke:black; stroke-width:1; fill:#d81515; " description="&lt;b&gt;cds5681_6041&lt;/b&gt;&lt;br&gt;putative small membrane protein&lt;br&gt;Location: 5681 - 6041" locus_tag="cds5681_6041" points="265,40 295,40 300,35 295,30 265,30 265,40 " class="clusterblast-orf"  />
<polygon id="dummy-1_q5_0_all" style="stroke:black; stroke-width:1; fill:#4dd815; " description="&lt;b&gt;cds6133_6997&lt;/b&gt;&lt;br&gt;putative tyrosinase&lt;br&gt;Location: 6133 - 6997" locus_tag="cds6133_6997" points="309,35 314,30 392,30 392,40 314,40 309,35 " class="clusterblast-orf"  />
<polygon id="dummy-1_q6_0_all" style="stroke:black; stroke-width:1; fill:#1585d8; " description="&lt;b&gt;cds6983_7601&lt;/b&gt;&lt;br&gt;hypothetical protein&lt;br&gt;Location: 6983 - 7601" locus_tag="cds6983_7601" points="391,35 396,30 450,30 450,40 396,40 391,35 " class="clusterblast-orf"  />
<polygon id="dummy-1_q7_0_all" style="stroke:black; stroke-width:1; fill:#d815bc; " description="&lt;b&gt;cds7743_8202&lt;/b&gt;&lt;br&gt;hypothetical protein&lt;br&gt;Location: 7743 - 8202" locus_tag="cds7743_8202" points="464,40 503,40 508,35 503,30 464,30 464,40 " class="clusterblast-orf"  />
<polygon id="dummy-1_q8_0_all" style="stroke:black; stroke-width:1; fill:#d8bc15; " description="&lt;b&gt;cds8203_8863&lt;/b&gt;&lt;br&gt;Integral membrane protein&lt;br&gt;Location: 8203 - 8863" locus_tag="cds8203_8863" points="508,40 566,40 571,35 566,30 508,30 508,40 " class="clusterblast-orf"  />
<polygon id="dummy-1_q9_0_all" style="stroke:black; stroke-width:1; fill:#15d885; " description="&lt;b&gt;cds8959_9610&lt;/b&gt;&lt;br&gt;Lysine exporter protein LysE/YggA&lt;br&gt;Location: 8959 - 9610" locus_tag="cds8959_9610" points="581,35 586,30 643,30 643,40 586,40 581,35 " class="clusterblast-orf"  />
<polygon id="dummy-1_q10_0_all" style="stroke:black; stroke-width:1; fill:#4d15d8; " description="&lt;b&gt;cds9745_11038&lt;/b&gt;&lt;br&gt;Transcriptional regulator, GntR family domain / Aspartate aminotransferase (EC 2.6.1.1)&lt;br&gt;Location: 9745 - 11038" locus_tag="cds9745_11038" points="656,40 775,40 780,35 775,30 656,30 656,40 " class="clusterblast-orf"  />
</g>
<g description="BGC0000911_c1: melanin (100% of genes show similarity), Other" class="clusterblast-cluster" label="BGC0000911"  >
<text y="70" x="5" class="clusterblast-acc"  >
<a xlink:href="https://mibig.secondarymetabolites.org/go/BGC0000911/1" target="_blank">BGC0000911</a>:                                                                          melanin (100% of genes show similarity), Other</text>
<line x1="10" y1="85" style="stroke:grey; stroke-width:1; " y2="85" x2="778.0"  />
</g>
<g id="a1_000"  >
<polygon id="dummy-1_h1_3_0" style="stroke:black; stroke-width:1; fill:#4dd815; " description="&lt;b&gt;SGR_527&lt;/b&gt;&lt;br&gt;putative tyrosinase&lt;br&gt;Location: 1 - 864&lt;br&gt;&lt;br&gt;&lt;b&gt;BlastP hit with cds6133_6997&lt;/b&gt;&lt;br&gt;Percentage identity: 59&lt;br&gt;Percentage coverage: 101&lt;br&gt;BLAST bit score: 352&lt;br&gt;E-value: 7.9e-97" locus_tag="SGR_527" points="328,85 333,80 411,80 411,90 333,90 328,85 " class="clusterblast-orf"  />
</g>
<g id="a1_001"  >
<polygon id="dummy-1_h1_3_1" style="stroke:black; stroke-width:1; fill:#1585d8; " description="&lt;b&gt;SGR_528&lt;/b&gt;&lt;br&gt;putative tyrosinase co-factor protein&lt;br&gt;Location: 884 - 1288&lt;br&gt;&lt;br&gt;&lt;b&gt;BlastP hit with cds6983_7601&lt;/b&gt;&lt;br&gt;Percentage identity: 51&lt;br&gt;Percentage coverage: 58&lt;br&gt;BLAST bit score: 84&lt;br&gt;E-value: 1.7e-16" locus_tag="SGR_528" points="413,85 418,80 451,80 451,90 418,90 413,85 " class="clusterblast-orf"  />
</g>
</svg>
