<svg preserveAspectRatio="none" xmlns="http://www.w3.org/2000/svg" height="230" version="1.1" viewBox="0 0 800 230" y="0" xmlns:xlink="http://www.w3.org/1999/xlink" x="0" width="800"  >
<g class="clusterblast-cluster" label="Query sequence"  >
<text y="20" x="5" class="clusterblast-acc"  >
Query sequence</text>
<line x1="10" y1="35" style="stroke:grey; stroke-width:1; " y2="35" x2="778.0"  />
<polygon id="dummy-1_q0_0_all" style="stroke:black; stroke-width:1; fill:white; " description="&lt;b&gt;cds2_1094&lt;/b&gt;&lt;br&gt;hypothetical protein&lt;br&gt;Location: 2 - 1094" locus_tag="cds2_1094" points="0,40 77,40 82,35 77,30 0,30 0,40 " class="clusterblast-orf"  />
<polygon id="dummy-1_q1_0_all" style="stroke:black; stroke-width:1; fill:white; " description="&lt;b&gt;cds1331_1808&lt;/b&gt;&lt;br&gt;hypothetical protein&lt;br&gt;Location: 1331 - 1808" locus_tag="cds1331_1808" points="100,40 130,40 135,35 130,30 100,30 100,40 " class="clusterblast-orf"  />
<polygon id="dummy-1_q2_0_all" style="stroke:black; stroke-width:1; fill:white; " description="&lt;b&gt;cds1871_3689&lt;/b&gt;&lt;br&gt;Glutamine--fructose-6-phosphate aminotransferase [isomerizing] (EC 2.6.1.16)&lt;br&gt;Location: 1871 - 3689" locus_tag="cds1871_3689" points="140,35 145,30 276,30 276,40 145,40 140,35 " class="clusterblast-orf"  />
<polygon id="dummy-1_q3_0_all" style="stroke:black; stroke-width:1; fill:white; " description="&lt;b&gt;cds3775_4054&lt;/b&gt;&lt;br&gt;hypothetical protein&lt;br&gt;Location: 3775 - 4054" locus_tag="cds3775_4054" points="282,35 287,30 303,30 303,40 287,40 282,35 " class="clusterblast-orf"  />
<polygon id="dummy-1_q4_0_all" style="stroke:black; stroke-width:1; fill:#d81515; " description="&lt;b&gt;cds4271_6056&lt;/b&gt;&lt;br&gt;Desferrioxamine E biosynthesis protein DesD @ Siderophore synthetase superfamily, group C @ Siderophore synthetase component, ligase&lt;br&gt;Location: 4271 - 6056" locus_tag="cds4271_6056" points="319,35 324,30 452,30 452,40 324,40 319,35 " class="clusterblast-orf"  />
<polygon id="dummy-1_q5_0_all" style="stroke:black; stroke-width:1; fill:#15d863; " description="&lt;b&gt;cds6052_6616&lt;/b&gt;&lt;br&gt;Desferrioxamine E biosynthesis protein DesC @ Siderophore synthetase small component, acetyltransferase&lt;br&gt;Location: 6052 - 6616" locus_tag="cds6052_6616" points="452,35 457,30 494,30 494,40 457,40 452,35 " class="clusterblast-orf"  />
<polygon id="dummy-1_q6_0_all" style="stroke:black; stroke-width:1; fill:#1563d8; " description="&lt;b&gt;cds6612_7887&lt;/b&gt;&lt;br&gt;Desferrioxamine E biosynthesis protein DesB @ Siderophore biosynthesis protein, monooxygenase&lt;br&gt;Location: 6612 - 7887" locus_tag="cds6612_7887" points="494,35 499,30 589,30 589,40 499,40 494,35 " class="clusterblast-orf"  />
<polygon id="dummy-1_q7_0_all" style="stroke:black; stroke-width:1; fill:#b115d8; " description="&lt;b&gt;cds7870_9313&lt;/b&gt;&lt;br&gt;Desferrioxamine E biosynthesis protein DesA @ Siderophore biosynthesis L-2,4-diaminobutyrate decarboxylase&lt;br&gt;Location: 7870 - 9313" locus_tag="cds7870_9313" points="588,35 593,30 696,30 696,40 593,40 588,35 " class="clusterblast-orf"  />
<polygon id="dummy-1_q8_0_all" style="stroke:black; stroke-width:1; fill:#b1d815; " description="&lt;b&gt;cds9575_10445&lt;/b&gt;&lt;br&gt;Hypothetical protein associated with desferrioxamine E biosynthesis&lt;br&gt;Location: 9575 - 10445" locus_tag="cds9575_10445" points="715,35 720,30 780,30 780,40 720,40 715,35 " class="clusterblast-orf"  />
</g>
<g description="BGC0001531_c1: bisucaberin B (50% of genes show similarity), Other" class="clusterblast-cluster" label="BGC0001531"  >
<text y="70" x="5" class="clusterblast-acc"  >
<a xlink:href="https://mibig.secondarymetabolites.org/go/BGC0001531/1" target="_blank">BGC0001531</a>:                                                                    bisucaberin B (50% of genes show similarity), Other</text>
<line x1="10" y1="85" style="stroke:grey; stroke-width:1; " y2="85" x2="778.0"  />
</g>
<g id="a1_000"  >
<polygon id="dummy-1_h1_7_0" style="stroke:black; stroke-width:1; fill:#d81515; " description="&lt;b&gt;BAX07670.1&lt;/b&gt;&lt;br&gt;IucA/IucC&lt;br&gt;Location: 9953 - 8133&lt;br&gt;&lt;br&gt;&lt;b&gt;BlastP hit with cds4271_6056&lt;/b&gt;&lt;br&gt;Percentage identity: 47&lt;br&gt;Percentage coverage: 99&lt;br&gt;BLAST bit score: 562&lt;br&gt;E-value: 7.9e-160" locus_tag="BAX07670.1" points="59,85 64,80 195,80 195,90 64,90 59,85 " class="clusterblast-orf"  />
</g>
<g id="a1_001"  >
<polygon id="dummy-1_h1_7_1" style="stroke:black; stroke-width:1; fill:white; " description="&lt;b&gt;BAX07669.1&lt;/b&gt;&lt;br&gt;acetyltransferase&lt;br&gt;Location: 8143 - 7553" locus_tag="BAX07669.1" points="195,85 200,80 239,80 239,90 200,90 195,85 " class="clusterblast-orf"  />
</g>
<g id="a1_002"  >
<polygon id="dummy-1_h1_7_2" style="stroke:black; stroke-width:1; fill:#d81515; " description="&lt;b&gt;BAX07668.1&lt;/b&gt;&lt;br&gt;IucA/IucC&lt;br&gt;Location: 7550 - 5133&lt;br&gt;&lt;br&gt;&lt;b&gt;BlastP hit with cds4271_6056&lt;/b&gt;&lt;br&gt;Percentage identity: 48&lt;br&gt;Percentage coverage: 99&lt;br&gt;BLAST bit score: 566&lt;br&gt;E-value: 4.2e-161" locus_tag="BAX07668.1" points="239,85 244,80 419,80 419,90 244,90 239,85 " class="clusterblast-orf"  />
</g>
<g id="a1_003"  >
<polygon id="dummy-1_h1_7_3" style="stroke:black; stroke-width:1; fill:white; " description="&lt;b&gt;BAX07667.1&lt;/b&gt;&lt;br&gt;MFS transporter&lt;br&gt;Location: 5129 - 3936" locus_tag="BAX07667.1" points="420,85 425,80 509,80 509,90 425,90 420,85 " class="clusterblast-orf"  />
</g>
<g id="a1_004"  >
<polygon id="dummy-1_h1_7_4" style="stroke:black; stroke-width:1; fill:#1563d8; " description="&lt;b&gt;BAX07666.1&lt;/b&gt;&lt;br&gt;lysine-6-monooxygenase&lt;br&gt;Location: 3949 - 2627&lt;br&gt;&lt;br&gt;&lt;b&gt;BlastP hit with cds6612_7887&lt;/b&gt;&lt;br&gt;Percentage identity: 56&lt;br&gt;Percentage coverage: 100&lt;br&gt;BLAST bit score: 501&lt;br&gt;E-value: 1.6e-141" locus_tag="BAX07666.1" points="508,85 513,80 607,80 607,90 513,90 508,85 " class="clusterblast-orf"  />
</g>
<g id="a1_005"  >
<polygon id="dummy-1_h1_7_5" style="stroke:black; stroke-width:1; fill:white; " description="&lt;b&gt;BAX07665.1&lt;/b&gt;&lt;br&gt;pyridoxal-dependent decarboxylase&lt;br&gt;Location: 2621 - 1113" locus_tag="BAX07665.1" points="607,85 612,80 720,80 720,90 612,90 607,85 " class="clusterblast-orf"  />
</g>
</svg>
