<svg preserveAspectRatio="none" xmlns="http://www.w3.org/2000/svg" height="230" version="1.1" viewBox="0 0 800 230" y="0" xmlns:xlink="http://www.w3.org/1999/xlink" x="0" width="800"  >
<g class="clusterblast-cluster" label="Query sequence"  >
<text y="20" x="5" class="clusterblast-acc"  >
Query sequence</text>
<line x1="10" y1="35" style="stroke:grey; stroke-width:1; " y2="35" x2="778.0"  />
<polygon id="dummy-1_q0_0_all" style="stroke:black; stroke-width:1; fill:white; " description="&lt;b&gt;cds2_143&lt;/b&gt;&lt;br&gt;hypothetical protein&lt;br&gt;Location: 2 - 143" locus_tag="cds2_143" points="262,35 265,30 265,40 262,35 " class="clusterblast-orf"  />
<polygon id="dummy-1_q1_0_all" style="stroke:black; stroke-width:1; fill:#d81515; " description="&lt;b&gt;cds272_1370&lt;/b&gt;&lt;br&gt;(2E,6E)-farnesyl diphosphate synthase (EC 2.5.1.10)&lt;br&gt;Location: 272 - 1370" locus_tag="cds272_1370" points="268,35 273,30 292,30 292,40 273,40 268,35 " class="clusterblast-orf"  />
<polygon id="dummy-1_q2_0_all" style="stroke:black; stroke-width:1; fill:#15d815; " description="&lt;b&gt;cds1366_2785&lt;/b&gt;&lt;br&gt;Squalene/phytoene desaturase HopC&lt;br&gt;Location: 1366 - 2785" locus_tag="cds1366_2785" points="292,35 297,30 323,30 323,40 297,40 292,35 " class="clusterblast-orf"  />
<polygon id="dummy-1_q3_0_all" style="stroke:black; stroke-width:1; fill:#1515d8; " description="&lt;b&gt;cds2781_3729&lt;/b&gt;&lt;br&gt;Phytoene synthase (EC 2.5.1.32)&lt;br&gt;Location: 2781 - 3729" locus_tag="cds2781_3729" points="322,35 327,30 343,30 343,40 327,40 322,35 " class="clusterblast-orf"  />
<polygon id="dummy-1_q4_0_all" style="stroke:black; stroke-width:1; fill:#d815d8; " description="&lt;b&gt;cds3737_4655&lt;/b&gt;&lt;br&gt;Squalene synthase (EC 2.5.1.21)&lt;br&gt;Location: 3737 - 4655" locus_tag="cds3737_4655" points="343,35 348,30 363,30 363,40 348,40 343,35 " class="clusterblast-orf"  />
<polygon id="dummy-1_q5_0_all" style="stroke:black; stroke-width:1; fill:white; " description="&lt;b&gt;cds4964_5765&lt;/b&gt;&lt;br&gt;ABC transporter, ATP-binding protein&lt;br&gt;Location: 4964 - 5765" locus_tag="cds4964_5765" points="370,35 375,30 387,30 387,40 375,40 370,35 " class="clusterblast-orf"  />
<polygon id="dummy-1_q6_0_all" style="stroke:black; stroke-width:1; fill:white; " description="&lt;b&gt;cds5757_6684&lt;/b&gt;&lt;br&gt;O-antigen export system, permease protein&lt;br&gt;Location: 5757 - 6684" locus_tag="cds5757_6684" points="387,35 392,30 407,30 407,40 392,40 387,35 " class="clusterblast-orf"  />
<polygon id="dummy-1_q7_0_all" style="stroke:black; stroke-width:1; fill:white; " description="&lt;b&gt;cds6746_7628&lt;/b&gt;&lt;br&gt;Putative glycosyltransferase&lt;br&gt;Location: 6746 - 7628" locus_tag="cds6746_7628" points="408,35 413,30 427,30 427,40 413,40 408,35 " class="clusterblast-orf"  />
<polygon id="dummy-1_q8_0_all" style="stroke:black; stroke-width:1; fill:white; " description="&lt;b&gt;cds7655_8435&lt;/b&gt;&lt;br&gt;CDP-alcohol phosphatidyltransferase family protein&lt;br&gt;Location: 7655 - 8435" locus_tag="cds7655_8435" points="428,35 433,30 445,30 445,40 433,40 428,35 " class="clusterblast-orf"  />
<polygon id="dummy-1_q9_0_all" style="stroke:black; stroke-width:1; fill:#d8d815; " description="&lt;b&gt;cds8412_9474&lt;/b&gt;&lt;br&gt;Glycerol-1-phosphate dehydrogenase [NAD(P)+] (EC 1.1.1.261)&lt;br&gt;Location: 8412 - 9474" locus_tag="cds8412_9474" points="444,35 449,30 467,30 467,40 449,40 444,35 " class="clusterblast-orf"  />
<polygon id="dummy-1_q10_0_all" style="stroke:black; stroke-width:1; fill:#15d8d8; " description="&lt;b&gt;cds9461_10211&lt;/b&gt;&lt;br&gt;putative nucleotide sugar-1-phosphate transferase&lt;br&gt;Location: 9461 - 10211" locus_tag="cds9461_10211" points="467,35 472,30 483,30 483,40 472,40 467,35 " class="clusterblast-orf"  />
<polygon id="dummy-1_q11_0_all" style="stroke:black; stroke-width:1; fill:white; " description="&lt;b&gt;cds10207_11785&lt;/b&gt;&lt;br&gt;hypothetical protein&lt;br&gt;Location: 10207 - 11785" locus_tag="cds10207_11785" points="483,35 488,30 517,30 517,40 488,40 483,35 " class="clusterblast-orf"  />
</g>
<g description="BGC0000807_c1: phosphonoglycans (6% of genes show similarity), Saccharide" class="clusterblast-cluster" label="BGC0000807"  >
<text y="70" x="5" class="clusterblast-acc"  >
<a xlink:href="https://mibig.secondarymetabolites.org/go/BGC0000807/1" target="_blank">BGC0000807</a>:                                                                 phosphonoglycans (6% of genes show similarity), Saccharide</text>
<line x1="10" y1="85" style="stroke:grey; stroke-width:1; " y2="85" x2="778.0"  />
</g>
<g id="a1_000"  >
<polygon id="dummy-1_h1_2_0" style="stroke:black; stroke-width:1; fill:white; " description="&lt;b&gt;Snas_5651&lt;/b&gt;&lt;br&gt;transcriptional regulator, GntR family&lt;br&gt;Location: 1 - 660" locus_tag="Snas_5651" points="0,85 5,80 14,80 14,90 5,90 0,85 " class="clusterblast-orf"  />
</g>
<g id="a1_001"  >
<polygon id="dummy-1_h1_2_1" style="stroke:black; stroke-width:1; fill:white; " description="&lt;b&gt;Snas_5652&lt;/b&gt;&lt;br&gt;Glyoxalase/bleomycin resistance protein/dioxygenase&lt;br&gt;Location: 739 - 1170" locus_tag="Snas_5652" points="15,90 20,90 25,85 20,80 15,80 15,90 " class="clusterblast-orf"  />
</g>
<g id="a1_002"  >
<polygon id="dummy-1_h1_2_2" style="stroke:black; stroke-width:1; fill:white; " description="&lt;b&gt;Snas_5653&lt;/b&gt;&lt;br&gt;NAD-dependent epimerase/dehydratase&lt;br&gt;Location: 1198 - 1866" locus_tag="Snas_5653" points="25,90 35,90 40,85 35,80 25,80 25,90 " class="clusterblast-orf"  />
</g>
<g id="a1_003"  >
<polygon id="dummy-1_h1_2_3" style="stroke:black; stroke-width:1; fill:white; " description="&lt;b&gt;Snas_5654&lt;/b&gt;&lt;br&gt;Radical SAM domain protein&lt;br&gt;Location: 2238 - 3587" locus_tag="Snas_5654" points="48,90 72,90 77,85 72,80 48,80 48,90 " class="clusterblast-orf"  />
</g>
<g id="a1_004"  >
<polygon id="dummy-1_h1_2_4" style="stroke:black; stroke-width:1; fill:white; " description="&lt;b&gt;Snas_5655&lt;/b&gt;&lt;br&gt;flavoprotein&lt;br&gt;Location: 3584 - 4303" locus_tag="Snas_5655" points="77,90 87,90 92,85 87,80 77,80 77,90 " class="clusterblast-orf"  />
</g>
<g id="a1_005"  >
<polygon id="dummy-1_h1_2_5" style="stroke:black; stroke-width:1; fill:white; " description="&lt;b&gt;Snas_5656&lt;/b&gt;&lt;br&gt;major facilitator superfamily MFS 1&lt;br&gt;Location: 4475 - 6463" locus_tag="Snas_5656" points="96,90 134,90 139,85 134,80 96,80 96,90 " class="clusterblast-orf"  />
</g>
<g id="a1_006"  >
<polygon id="dummy-1_h1_2_6" style="stroke:black; stroke-width:1; fill:white; " description="&lt;b&gt;Snas_5657&lt;/b&gt;&lt;br&gt;hypothetical protein&lt;br&gt;Location: 6621 - 6929" locus_tag="Snas_5657" points="143,85 148,80 149,80 149,90 148,90 143,85 " class="clusterblast-orf"  />
</g>
<g id="a1_007"  >
<polygon id="dummy-1_h1_2_7" style="stroke:black; stroke-width:1; fill:white; " description="&lt;b&gt;Snas_5658&lt;/b&gt;&lt;br&gt;hypothetical protein&lt;br&gt;Location: 6953 - 7543" locus_tag="Snas_5658" points="150,85 155,80 163,80 163,90 155,90 150,85 " class="clusterblast-orf"  />
</g>
<g id="a1_008"  >
<polygon id="dummy-1_h1_2_8" style="stroke:black; stroke-width:1; fill:white; " description="&lt;b&gt;Snas_5659&lt;/b&gt;&lt;br&gt;hypothetical protein&lt;br&gt;Location: 7565 - 8278" locus_tag="Snas_5659" points="163,85 168,80 178,80 178,90 168,90 163,85 " class="clusterblast-orf"  />
</g>
<g id="a1_009"  >
<polygon id="dummy-1_h1_2_9" style="stroke:black; stroke-width:1; fill:white; " description="&lt;b&gt;Snas_5660&lt;/b&gt;&lt;br&gt;hypothetical protein&lt;br&gt;Location: 8283 - 8603" locus_tag="Snas_5660" points="179,85 184,80 185,80 185,90 184,90 179,85 " class="clusterblast-orf"  />
</g>
<g id="a1_0010"  >
<polygon id="dummy-1_h1_2_10" style="stroke:black; stroke-width:1; fill:white; " description="&lt;b&gt;Snas_5661&lt;/b&gt;&lt;br&gt;hypothetical protein&lt;br&gt;Location: 8609 - 9025" locus_tag="Snas_5661" points="186,85 191,80 195,80 195,90 191,90 186,85 " class="clusterblast-orf"  />
</g>
<g id="a1_0011"  >
<polygon id="dummy-1_h1_2_11" style="stroke:black; stroke-width:1; fill:white; " description="&lt;b&gt;Snas_5662&lt;/b&gt;&lt;br&gt;hypothetical protein&lt;br&gt;Location: 9189 - 9905" locus_tag="Snas_5662" points="198,85 203,80 214,80 214,90 203,90 198,85 " class="clusterblast-orf"  />
</g>
<g id="a1_0012"  >
<polygon id="dummy-1_h1_2_12" style="stroke:black; stroke-width:1; fill:white; " description="&lt;b&gt;Snas_5663&lt;/b&gt;&lt;br&gt;iron-containing alcohol dehydrogenase&lt;br&gt;Location: 10124 - 11284" locus_tag="Snas_5663" points="218,85 223,80 243,80 243,90 223,90 218,85 " class="clusterblast-orf"  />
</g>
<g id="a1_0013"  >
<polygon id="dummy-1_h1_2_13" style="stroke:black; stroke-width:1; fill:white; " description="&lt;b&gt;Snas_5664&lt;/b&gt;&lt;br&gt;phosphonopyruvate decarboxylase&lt;br&gt;Location: 11374 - 12495" locus_tag="Snas_5664" points="245,85 250,80 270,80 270,90 250,90 245,85 " class="clusterblast-orf"  />
</g>
<g id="a1_0014"  >
<polygon id="dummy-1_h1_2_14" style="stroke:black; stroke-width:1; fill:white; " description="&lt;b&gt;Snas_5665&lt;/b&gt;&lt;br&gt;phosphoenolpyruvate phosphomutase&lt;br&gt;Location: 12492 - 13805" locus_tag="Snas_5665" points="269,85 274,80 298,80 298,90 274,90 269,85 " class="clusterblast-orf"  />
</g>
<g id="a1_0015"  >
<polygon id="dummy-1_h1_2_15" style="stroke:black; stroke-width:1; fill:white; " description="&lt;b&gt;Snas_5666&lt;/b&gt;&lt;br&gt;hypothetical protein&lt;br&gt;Location: 13947 - 15656" locus_tag="Snas_5666" points="301,85 306,80 338,80 338,90 306,90 301,85 " class="clusterblast-orf"  />
</g>
<g id="a1_0016"  >
<polygon id="dummy-1_h1_2_16" style="stroke:black; stroke-width:1; fill:white; " description="&lt;b&gt;Snas_5667&lt;/b&gt;&lt;br&gt;hypothetical protein&lt;br&gt;Location: 15807 - 17462" locus_tag="Snas_5667" points="341,85 346,80 377,80 377,90 346,90 341,85 " class="clusterblast-orf"  />
</g>
<g id="a1_0017"  >
<polygon id="dummy-1_h1_2_17" style="stroke:black; stroke-width:1; fill:white; " description="&lt;b&gt;Snas_5668&lt;/b&gt;&lt;br&gt;2-C-methyl-D-erythritol 4-phosphate cytidylyltransferase&lt;br&gt;Location: 17467 - 18186" locus_tag="Snas_5668" points="377,85 382,80 393,80 393,90 382,90 377,85 " class="clusterblast-orf"  />
</g>
<g id="a1_0018"  >
<polygon id="dummy-1_h1_2_18" style="stroke:black; stroke-width:1; fill:white; " description="&lt;b&gt;Snas_5669&lt;/b&gt;&lt;br&gt;CDP-alcohol phosphatidyltransferase&lt;br&gt;Location: 18183 - 19058" locus_tag="Snas_5669" points="392,85 397,80 411,80 411,90 397,90 392,85 " class="clusterblast-orf"  />
</g>
<g id="a1_0019"  >
<polygon id="dummy-1_h1_2_19" style="stroke:black; stroke-width:1; fill:white; " description="&lt;b&gt;Snas_5670&lt;/b&gt;&lt;br&gt;ABC transporter related protein&lt;br&gt;Location: 19223 - 19984" locus_tag="Snas_5670" points="415,90 426,90 431,85 426,80 415,80 415,90 " class="clusterblast-orf"  />
</g>
<g id="a1_0020"  >
<polygon id="dummy-1_h1_2_20" style="stroke:black; stroke-width:1; fill:white; " description="&lt;b&gt;Snas_5671&lt;/b&gt;&lt;br&gt;CDP-alcohol phosphatidyltransferase&lt;br&gt;Location: 19984 - 22041" locus_tag="Snas_5671" points="431,90 471,90 476,85 471,80 431,80 431,90 " class="clusterblast-orf"  />
</g>
<g id="a1_0021"  >
<polygon id="dummy-1_h1_2_21" style="stroke:black; stroke-width:1; fill:white; " description="&lt;b&gt;Snas_5672&lt;/b&gt;&lt;br&gt;UDP-N-acetylglucosamine--lysosomal-enzyme N-acetylglucosamine phosphotransferase&lt;br&gt;Location: 22391 - 24172" locus_tag="Snas_5672" points="483,90 517,90 522,85 517,80 483,80 483,90 " class="clusterblast-orf"  />
</g>
<g id="a1_0022"  >
<polygon id="dummy-1_h1_2_22" style="stroke:black; stroke-width:1; fill:white; " description="&lt;b&gt;Snas_5673&lt;/b&gt;&lt;br&gt;UDP-N-acetylglucosamine--lysosomal-enzyme N-acetylglucosamine phosphotransferase&lt;br&gt;Location: 24160 - 25809" locus_tag="Snas_5673" points="522,90 552,90 557,85 552,80 522,80 522,90 " class="clusterblast-orf"  />
</g>
<g id="a1_0023"  >
<polygon id="dummy-1_h1_2_23" style="stroke:black; stroke-width:1; fill:white; " description="&lt;b&gt;Snas_5674&lt;/b&gt;&lt;br&gt;glycosyl transferase group 1&lt;br&gt;Location: 25806 - 28094" locus_tag="Snas_5674" points="557,90 602,90 607,85 602,80 557,80 557,90 " class="clusterblast-orf"  />
</g>
<g id="a1_0024"  >
<polygon id="dummy-1_h1_2_24" style="stroke:black; stroke-width:1; fill:white; " description="&lt;b&gt;Snas_5675&lt;/b&gt;&lt;br&gt;LmbE family protein&lt;br&gt;Location: 28140 - 30254" locus_tag="Snas_5675" points="608,90 648,90 653,85 648,80 608,80 608,90 " class="clusterblast-orf"  />
</g>
<g id="a1_0025"  >
<polygon id="dummy-1_h1_2_25" style="stroke:black; stroke-width:1; fill:white; " description="&lt;b&gt;Snas_5676&lt;/b&gt;&lt;br&gt;hypothetical protein&lt;br&gt;Location: 30274 - 30852" locus_tag="Snas_5676" points="654,85 659,80 666,80 666,90 659,90 654,85 " class="clusterblast-orf"  />
</g>
<g id="a1_0026"  >
<polygon id="dummy-1_h1_2_26" style="stroke:black; stroke-width:1; fill:white; " description="&lt;b&gt;Snas_5677&lt;/b&gt;&lt;br&gt;Endonuclease/exonuclease/phosphatase&lt;br&gt;Location: 30965 - 31897" locus_tag="Snas_5677" points="669,85 674,80 689,80 689,90 674,90 669,85 " class="clusterblast-orf"  />
</g>
<g id="a1_0027"  >
<polygon id="dummy-1_h1_2_27" style="stroke:black; stroke-width:1; fill:white; " description="&lt;b&gt;Snas_5678&lt;/b&gt;&lt;br&gt;nucleotide sugar dehydrogenase&lt;br&gt;Location: 31957 - 33381" locus_tag="Snas_5678" points="690,85 695,80 721,80 721,90 695,90 690,85 " class="clusterblast-orf"  />
</g>
<g id="a1_0028"  >
<polygon id="dummy-1_h1_2_28" style="stroke:black; stroke-width:1; fill:white; " description="&lt;b&gt;Snas_5679&lt;/b&gt;&lt;br&gt;ABC-2 type transporter&lt;br&gt;Location: 33447 - 34331" locus_tag="Snas_5679" points="722,85 727,80 742,80 742,90 727,90 722,85 " class="clusterblast-orf"  />
</g>
<g id="a1_0029"  >
<polygon id="dummy-1_h1_2_29" style="stroke:black; stroke-width:1; fill:#d8d815; " description="&lt;b&gt;Snas_5680&lt;/b&gt;&lt;br&gt;3-dehydroquinate synthase&lt;br&gt;Location: 34318 - 35373&lt;br&gt;&lt;br&gt;&lt;b&gt;BlastP hit with cds8412_9474&lt;/b&gt;&lt;br&gt;Percentage identity: 51&lt;br&gt;Percentage coverage: 98&lt;br&gt;BLAST bit score: 354&lt;br&gt;E-value: 2.5e-97" locus_tag="Snas_5680" points="741,85 746,80 764,80 764,90 746,90 741,85 " class="clusterblast-orf"  />
</g>
<g id="a1_0030"  >
<polygon id="dummy-1_h1_2_30" style="stroke:black; stroke-width:1; fill:#15d8d8; " description="&lt;b&gt;Snas_5681&lt;/b&gt;&lt;br&gt;nucleotidyl transferase&lt;br&gt;Location: 35361 - 36089&lt;br&gt;&lt;br&gt;&lt;b&gt;BlastP hit with cds9461_10211&lt;/b&gt;&lt;br&gt;Percentage identity: 52&lt;br&gt;Percentage coverage: 99&lt;br&gt;BLAST bit score: 237&lt;br&gt;E-value: 3.2e-62" locus_tag="Snas_5681" points="764,85 769,80 780,80 780,90 769,90 764,85 " class="clusterblast-orf"  />
</g>
</svg>
