<svg preserveAspectRatio="none" xmlns="http://www.w3.org/2000/svg" height="230" version="1.1" viewBox="0 0 800 230" y="0" xmlns:xlink="http://www.w3.org/1999/xlink" x="0" width="800"  >
<g class="clusterblast-cluster" label="Query sequence"  >
<text y="20" x="5" class="clusterblast-acc"  >
Query sequence</text>
<line x1="10" y1="35" style="stroke:grey; stroke-width:1; " y2="35" x2="778.0"  />
<polygon id="dummy-1_q0_0_all" style="stroke:black; stroke-width:1; fill:white; " description="&lt;b&gt;cds1_529&lt;/b&gt;&lt;br&gt;FIG00824290: FHA domain protein&lt;br&gt;Location: 1 - 529" locus_tag="cds1_529" points="0,35 4,30 4,40 0,35 " class="clusterblast-orf"  />
<polygon id="dummy-1_q1_0_all" style="stroke:black; stroke-width:1; fill:white; " description="&lt;b&gt;cds1878_2199&lt;/b&gt;&lt;br&gt;hypothetical protein&lt;br&gt;Location: 1878 - 2199" locus_tag="cds1878_2199" points="17,35 20,30 20,40 17,35 " class="clusterblast-orf"  />
<polygon id="dummy-1_q2_0_all" style="stroke:black; stroke-width:1; fill:white; " description="&lt;b&gt;cds2270_2822&lt;/b&gt;&lt;br&gt;hypothetical protein&lt;br&gt;Location: 2270 - 2822" locus_tag="cds2270_2822" points="20,40 20,40 25,35 20,30 20,30 20,40 " class="clusterblast-orf"  />
<polygon id="dummy-1_q3_0_all" style="stroke:black; stroke-width:1; fill:white; " description="&lt;b&gt;cds2885_2999&lt;/b&gt;&lt;br&gt;hypothetical protein&lt;br&gt;Location: 2885 - 2999" locus_tag="cds2885_2999" points="26,40 27,35 26,30 26,40 " class="clusterblast-orf"  />
<polygon id="dummy-1_q4_0_all" style="stroke:black; stroke-width:1; fill:white; " description="&lt;b&gt;cds3041_3182&lt;/b&gt;&lt;br&gt;putative regulatory protein&lt;br&gt;Location: 3041 - 3182" locus_tag="cds3041_3182" points="27,35 29,30 29,40 27,35 " class="clusterblast-orf"  />
<polygon id="dummy-1_q5_0_all" style="stroke:black; stroke-width:1; fill:white; " description="&lt;b&gt;cds3245_3974&lt;/b&gt;&lt;br&gt;4'-phosphopantetheinyl transferase&lt;br&gt;Location: 3245 - 3974" locus_tag="cds3245_3974" points="29,35 34,30 36,30 36,40 34,40 29,35 " class="clusterblast-orf"  />
<polygon id="dummy-1_q6_0_all" style="stroke:black; stroke-width:1; fill:#d81515; " description="&lt;b&gt;cds4123_4531&lt;/b&gt;&lt;br&gt;Enoyl-CoA hydratase (EC 4.2.1.17)&lt;br&gt;Location: 4123 - 4531" locus_tag="cds4123_4531" points="37,35 41,30 41,40 37,35 " class="clusterblast-orf"  />
<polygon id="dummy-1_q7_0_all" style="stroke:black; stroke-width:1; fill:white; " description="&lt;b&gt;cds4570_5665&lt;/b&gt;&lt;br&gt;StaQ&lt;br&gt;Location: 4570 - 5665" locus_tag="cds4570_5665" points="41,35 46,30 51,30 51,40 46,40 41,35 " class="clusterblast-orf"  />
<polygon id="dummy-1_q8_0_all" style="stroke:black; stroke-width:1; fill:white; " description="&lt;b&gt;cds5712_5955&lt;/b&gt;&lt;br&gt;hypothetical protein&lt;br&gt;Location: 5712 - 5955" locus_tag="cds5712_5955" points="52,40 54,35 52,30 52,40 " class="clusterblast-orf"  />
<polygon id="dummy-1_q9_0_all" style="stroke:black; stroke-width:1; fill:white; " description="&lt;b&gt;cds6002_6311&lt;/b&gt;&lt;br&gt;hypothetical protein&lt;br&gt;Location: 6002 - 6311" locus_tag="cds6002_6311" points="54,35 57,30 57,40 54,35 " class="clusterblast-orf"  />
<polygon id="dummy-1_q10_0_all" style="stroke:black; stroke-width:1; fill:white; " description="&lt;b&gt;cds6526_7552&lt;/b&gt;&lt;br&gt;hypothetical protein&lt;br&gt;Location: 6526 - 7552" locus_tag="cds6526_7552" points="59,40 64,40 69,35 64,30 59,30 59,40 " class="clusterblast-orf"  />
<polygon id="dummy-1_q11_0_all" style="stroke:black; stroke-width:1; fill:white; " description="&lt;b&gt;cds7761_8058&lt;/b&gt;&lt;br&gt;hypothetical protein&lt;br&gt;Location: 7761 - 8058" locus_tag="cds7761_8058" points="70,40 73,35 70,30 70,40 " class="clusterblast-orf"  />
<polygon id="dummy-1_q12_0_all" style="stroke:black; stroke-width:1; fill:white; " description="&lt;b&gt;cds8093_8600&lt;/b&gt;&lt;br&gt;hypothetical protein&lt;br&gt;Location: 8093 - 8600" locus_tag="cds8093_8600" points="74,40 78,35 74,30 74,40 " class="clusterblast-orf"  />
<polygon id="dummy-1_q13_0_all" style="stroke:black; stroke-width:1; fill:white; " description="&lt;b&gt;cds8780_11906&lt;/b&gt;&lt;br&gt;Polyketide synthase modules and related proteins&lt;br&gt;Location: 8780 - 11906" locus_tag="cds8780_11906" points="80,40 103,40 108,35 103,30 80,30 80,40 " class="clusterblast-orf"  />
<polygon id="dummy-1_q14_0_all" style="stroke:black; stroke-width:1; fill:#4dd815; " description="&lt;b&gt;cds12026_13475&lt;/b&gt;&lt;br&gt;Transcriptional regulator, GntR family domain / Aspartate aminotransferase (EC 2.6.1.1)&lt;br&gt;Location: 12026 - 13475" locus_tag="cds12026_13475" points="109,40 118,40 123,35 118,30 109,30 109,40 " class="clusterblast-orf"  />
<polygon id="dummy-1_q15_0_all" style="stroke:black; stroke-width:1; fill:#1585d8; " description="&lt;b&gt;cds13471_14551&lt;/b&gt;&lt;br&gt;Naringenin-chalcone synthase (EC 2.3.1.74)&lt;br&gt;Location: 13471 - 14551" locus_tag="cds13471_14551" points="123,40 128,40 133,35 128,30 123,30 123,40 " class="clusterblast-orf"  />
<polygon id="dummy-1_q16_0_all" style="stroke:black; stroke-width:1; fill:#d815bc; " description="&lt;b&gt;cds14565_15222&lt;/b&gt;&lt;br&gt;hypothetical protein&lt;br&gt;Location: 14565 - 15222" locus_tag="cds14565_15222" points="133,40 134,40 139,35 134,30 133,30 133,40 " class="clusterblast-orf"  />
<polygon id="dummy-1_q17_0_all" style="stroke:black; stroke-width:1; fill:#d8bc15; " description="&lt;b&gt;cds15221_16520&lt;/b&gt;&lt;br&gt;hypothetical protein&lt;br&gt;Location: 15221 - 16520" locus_tag="cds15221_16520" points="139,40 146,40 151,35 146,30 139,30 139,40 " class="clusterblast-orf"  />
<polygon id="dummy-1_q18_0_all" style="stroke:black; stroke-width:1; fill:white; " description="&lt;b&gt;cds16581_17136&lt;/b&gt;&lt;br&gt;Adenylylsulfate kinase (EC 2.7.1.25)&lt;br&gt;Location: 16581 - 17136" locus_tag="cds16581_17136" points="151,40 151,40 156,35 151,30 151,30 151,40 " class="clusterblast-orf"  />
<polygon id="dummy-1_q19_0_all" style="stroke:black; stroke-width:1; fill:white; " description="&lt;b&gt;cds17132_18065&lt;/b&gt;&lt;br&gt;Sulfate adenylyltransferase subunit 2 (EC 2.7.7.4)&lt;br&gt;Location: 17132 - 18065" locus_tag="cds17132_18065" points="156,40 160,40 165,35 160,30 156,30 156,40 " class="clusterblast-orf"  />
<polygon id="dummy-1_q20_0_all" style="stroke:black; stroke-width:1; fill:white; " description="&lt;b&gt;cds18067_19417&lt;/b&gt;&lt;br&gt;Sulfate adenylyltransferase subunit 1 (EC 2.7.7.4)&lt;br&gt;Location: 18067 - 19417" locus_tag="cds18067_19417" points="165,40 172,40 177,35 172,30 165,30 165,40 " class="clusterblast-orf"  />
<polygon id="dummy-1_q21_0_all" style="stroke:black; stroke-width:1; fill:white; " description="&lt;b&gt;cds19436_20246&lt;/b&gt;&lt;br&gt;NG,NG-dimethylarginine dimethylaminohydrolase 1 (EC 3.5.3.18)&lt;br&gt;Location: 19436 - 20246" locus_tag="cds19436_20246" points="177,35 182,30 185,30 185,40 182,40 177,35 " class="clusterblast-orf"  />
<polygon id="dummy-1_q22_0_all" style="stroke:black; stroke-width:1; fill:white; " description="&lt;b&gt;cds20275_21460&lt;/b&gt;&lt;br&gt;Putative cytochrome P450 hydroxylase&lt;br&gt;Location: 20275 - 21460" locus_tag="cds20275_21460" points="185,35 190,30 196,30 196,40 190,40 185,35 " class="clusterblast-orf"  />
<polygon id="dummy-1_q23_0_all" style="stroke:black; stroke-width:1; fill:white; " description="&lt;b&gt;cds21520_21766&lt;/b&gt;&lt;br&gt;hypothetical protein&lt;br&gt;Location: 21520 - 21766" locus_tag="cds21520_21766" points="196,35 198,30 198,40 196,35 " class="clusterblast-orf"  />
<polygon id="dummy-1_q24_0_all" style="stroke:black; stroke-width:1; fill:white; " description="&lt;b&gt;cds21762_22482&lt;/b&gt;&lt;br&gt;hypothetical protein&lt;br&gt;Location: 21762 - 22482" locus_tag="cds21762_22482" points="198,35 203,30 205,30 205,40 203,40 198,35 " class="clusterblast-orf"  />
<polygon id="dummy-1_q25_0_all" style="stroke:black; stroke-width:1; fill:white; " description="&lt;b&gt;cds22478_22742&lt;/b&gt;&lt;br&gt;hypothetical protein&lt;br&gt;Location: 22478 - 22742" locus_tag="cds22478_22742" points="205,35 207,30 207,40 205,35 " class="clusterblast-orf"  />
<polygon id="dummy-1_q26_0_all" style="stroke:black; stroke-width:1; fill:white; " description="&lt;b&gt;cds22738_24925&lt;/b&gt;&lt;br&gt;Polyketide synthase modules and related proteins&lt;br&gt;Location: 22738 - 24925" locus_tag="cds22738_24925" points="207,35 212,30 227,30 227,40 212,40 207,35 " class="clusterblast-orf"  />
<polygon id="dummy-1_q27_0_all" style="stroke:black; stroke-width:1; fill:white; " description="&lt;b&gt;cds24939_26217&lt;/b&gt;&lt;br&gt;Siderophore biosynthesis protein, monooxygenase&lt;br&gt;Location: 24939 - 26217" locus_tag="cds24939_26217" points="227,35 232,30 239,30 239,40 232,40 227,35 " class="clusterblast-orf"  />
<polygon id="dummy-1_q28_0_all" style="stroke:black; stroke-width:1; fill:white; " description="&lt;b&gt;cds26472_27471&lt;/b&gt;&lt;br&gt;hypothetical protein&lt;br&gt;Location: 26472 - 27471" locus_tag="cds26472_27471" points="241,40 246,40 251,35 246,30 241,30 241,40 " class="clusterblast-orf"  />
<polygon id="dummy-1_q29_0_all" style="stroke:black; stroke-width:1; fill:white; " description="&lt;b&gt;cds27546_28305&lt;/b&gt;&lt;br&gt;Pyochelin biosynthetic protein PchC, predicted thioesterase&lt;br&gt;Location: 27546 - 28305" locus_tag="cds27546_28305" points="251,35 256,30 258,30 258,40 256,40 251,35 " class="clusterblast-orf"  />
<polygon id="dummy-1_q30_0_all" style="stroke:black; stroke-width:1; fill:white; " description="&lt;b&gt;cds28323_29610&lt;/b&gt;&lt;br&gt;hypothetical protein&lt;br&gt;Location: 28323 - 29610" locus_tag="cds28323_29610" points="258,35 263,30 270,30 270,40 263,40 258,35 " class="clusterblast-orf"  />
<polygon id="dummy-1_q31_0_all" style="stroke:black; stroke-width:1; fill:white; " description="&lt;b&gt;cds29735_30986&lt;/b&gt;&lt;br&gt;Diaminobutyrate--2-oxoglutarate transaminase (EC 2.6.1.76)&lt;br&gt;Location: 29735 - 30986" locus_tag="cds29735_30986" points="271,35 276,30 283,30 283,40 276,40 271,35 " class="clusterblast-orf"  />
<polygon id="dummy-1_q32_0_all" style="stroke:black; stroke-width:1; fill:white; " description="&lt;b&gt;cds31035_31935&lt;/b&gt;&lt;br&gt;hypothetical protein&lt;br&gt;Location: 31035 - 31935" locus_tag="cds31035_31935" points="283,35 288,30 291,30 291,40 288,40 283,35 " class="clusterblast-orf"  />
<polygon id="dummy-1_q33_0_all" style="stroke:black; stroke-width:1; fill:white; " description="&lt;b&gt;cds32456_32834&lt;/b&gt;&lt;br&gt;MbtH-like NRPS chaperone&lt;br&gt;Location: 32456 - 32834" locus_tag="cds32456_32834" points="296,40 300,35 296,30 296,40 " class="clusterblast-orf"  />
<polygon id="dummy-1_q34_0_all" style="stroke:black; stroke-width:1; fill:white; " description="&lt;b&gt;cds32922_34536&lt;/b&gt;&lt;br&gt;hypothetical protein&lt;br&gt;Location: 32922 - 34536" locus_tag="cds32922_34536" points="300,40 310,40 315,35 310,30 300,30 300,40 " class="clusterblast-orf"  />
<polygon id="dummy-1_q35_0_all" style="stroke:black; stroke-width:1; fill:white; " description="&lt;b&gt;cds34545_35391&lt;/b&gt;&lt;br&gt;Sulfatase modifying factor 1 precursor (C-alpha-formyglycine- generating enzyme 1)&lt;br&gt;Location: 34545 - 35391" locus_tag="cds34545_35391" points="315,40 318,40 323,35 318,30 315,30 315,40 " class="clusterblast-orf"  />
<polygon id="dummy-1_q36_0_all" style="stroke:black; stroke-width:1; fill:white; " description="&lt;b&gt;cds35425_36376&lt;/b&gt;&lt;br&gt;Cysteine synthase (EC 2.5.1.47)&lt;br&gt;Location: 35425 - 36376" locus_tag="cds35425_36376" points="323,40 327,40 332,35 327,30 323,30 323,40 " class="clusterblast-orf"  />
<polygon id="dummy-1_q37_0_all" style="stroke:black; stroke-width:1; fill:white; " description="&lt;b&gt;cds36372_37563&lt;/b&gt;&lt;br&gt;Putative cytochrome P450 hydroxylase&lt;br&gt;Location: 36372 - 37563" locus_tag="cds36372_37563" points="332,40 338,40 343,35 338,30 332,30 332,40 " class="clusterblast-orf"  />
<polygon id="dummy-1_q38_0_all" style="stroke:black; stroke-width:1; fill:white; " description="&lt;b&gt;cds37559_43919&lt;/b&gt;&lt;br&gt;Polyketide synthase modules and related proteins&lt;br&gt;Location: 37559 - 43919" locus_tag="cds37559_43919" points="343,40 396,40 401,35 396,30 343,30 343,40 " class="clusterblast-orf"  />
<polygon id="dummy-1_q39_0_all" style="stroke:black; stroke-width:1; fill:white; " description="&lt;b&gt;cds43921_46993&lt;/b&gt;&lt;br&gt;hypothetical protein&lt;br&gt;Location: 43921 - 46993" locus_tag="cds43921_46993" points="401,40 424,40 429,35 424,30 401,30 401,40 " class="clusterblast-orf"  />
<polygon id="dummy-1_q40_0_all" style="stroke:black; stroke-width:1; fill:white; " description="&lt;b&gt;cds46992_47262&lt;/b&gt;&lt;br&gt;Malonyl CoA-acyl carrier protein transacylase (EC 2.3.1.39)&lt;br&gt;Location: 46992 - 47262" locus_tag="cds46992_47262" points="429,40 431,35 429,30 429,40 " class="clusterblast-orf"  />
<polygon id="dummy-1_q41_0_all" style="stroke:black; stroke-width:1; fill:white; " description="&lt;b&gt;cds47258_53615&lt;/b&gt;&lt;br&gt;hypothetical protein&lt;br&gt;Location: 47258 - 53615" locus_tag="cds47258_53615" points="431,40 484,40 489,35 484,30 431,30 431,40 " class="clusterblast-orf"  />
<polygon id="dummy-1_q42_0_all" style="stroke:black; stroke-width:1; fill:white; " description="&lt;b&gt;cds53611_55927&lt;/b&gt;&lt;br&gt;hypothetical protein&lt;br&gt;Location: 53611 - 55927" locus_tag="cds53611_55927" points="489,40 506,40 511,35 506,30 489,30 489,40 " class="clusterblast-orf"  />
<polygon id="dummy-1_q43_0_all" style="stroke:black; stroke-width:1; fill:white; " description="&lt;b&gt;cds55997_56651&lt;/b&gt;&lt;br&gt;Thioesterase in siderophore biosynthesis gene cluster&lt;br&gt;Location: 55997 - 56651" locus_tag="cds55997_56651" points="511,35 516,30 517,30 517,40 516,40 511,35 " class="clusterblast-orf"  />
<polygon id="dummy-1_q44_0_all" style="stroke:black; stroke-width:1; fill:white; " description="&lt;b&gt;cds56846_57869&lt;/b&gt;&lt;br&gt;Ornithine cyclodeaminase (EC 4.3.1.12)&lt;br&gt;Location: 56846 - 57869" locus_tag="cds56846_57869" points="519,40 523,40 528,35 523,30 519,30 519,40 " class="clusterblast-orf"  />
<polygon id="dummy-1_q45_0_all" style="stroke:black; stroke-width:1; fill:white; " description="&lt;b&gt;cds57929_58148&lt;/b&gt;&lt;br&gt;hypothetical protein&lt;br&gt;Location: 57929 - 58148" locus_tag="cds57929_58148" points="529,35 531,30 531,40 529,35 " class="clusterblast-orf"  />
<polygon id="dummy-1_q46_0_all" style="stroke:black; stroke-width:1; fill:white; " description="&lt;b&gt;cds58408_60139&lt;/b&gt;&lt;br&gt;hypothetical protein&lt;br&gt;Location: 58408 - 60139" locus_tag="cds58408_60139" points="533,40 544,40 549,35 544,30 533,30 533,40 " class="clusterblast-orf"  />
<polygon id="dummy-1_q47_0_all" style="stroke:black; stroke-width:1; fill:white; " description="&lt;b&gt;cds60281_61616&lt;/b&gt;&lt;br&gt;O-acetylhomoserine sulfhydrylase (EC 2.5.1.49) @ O-succinylhomoserine sulfhydrylase (EC 2.5.1.48)&lt;br&gt;Location: 60281 - 61616" locus_tag="cds60281_61616" points="550,40 558,40 563,35 558,30 550,30 550,40 " class="clusterblast-orf"  />
<polygon id="dummy-1_q48_0_all" style="stroke:black; stroke-width:1; fill:white; " description="&lt;b&gt;cds61688_62549&lt;/b&gt;&lt;br&gt;hypothetical protein&lt;br&gt;Location: 61688 - 62549" locus_tag="cds61688_62549" points="563,40 566,40 571,35 566,30 563,30 563,40 " class="clusterblast-orf"  />
<polygon id="dummy-1_q49_0_all" style="stroke:black; stroke-width:1; fill:white; " description="&lt;b&gt;cds62567_63983&lt;/b&gt;&lt;br&gt;PROBABLE L-ORNITHINE 5-MONOOXYGENASE OXIDOREDUCTASE PROTEIN( EC:1.13.12.- )&lt;br&gt;Location: 62567 - 63983" locus_tag="cds62567_63983" points="571,40 579,40 584,35 579,30 571,30 571,40 " class="clusterblast-orf"  />
<polygon id="dummy-1_q50_0_all" style="stroke:black; stroke-width:1; fill:white; " description="&lt;b&gt;cds63982_65842&lt;/b&gt;&lt;br&gt;Polyketide synthase modules and related proteins&lt;br&gt;Location: 63982 - 65842" locus_tag="cds63982_65842" points="584,40 596,40 601,35 596,30 584,30 584,40 " class="clusterblast-orf"  />
<polygon id="dummy-1_q51_0_all" style="stroke:black; stroke-width:1; fill:white; " description="&lt;b&gt;cds65843_66452&lt;/b&gt;&lt;br&gt;hypothetical protein&lt;br&gt;Location: 65843 - 66452" locus_tag="cds65843_66452" points="601,40 602,40 607,35 602,30 601,30 601,40 " class="clusterblast-orf"  />
<polygon id="dummy-1_q52_0_all" style="stroke:black; stroke-width:1; fill:white; " description="&lt;b&gt;cds67037_68522&lt;/b&gt;&lt;br&gt;hypothetical protein&lt;br&gt;Location: 67037 - 68522" locus_tag="cds67037_68522" points="612,40 621,40 626,35 621,30 612,30 612,40 " class="clusterblast-orf"  />
<polygon id="dummy-1_q53_0_all" style="stroke:black; stroke-width:1; fill:white; " description="&lt;b&gt;cds68576_69473&lt;/b&gt;&lt;br&gt;hypothetical protein&lt;br&gt;Location: 68576 - 69473" locus_tag="cds68576_69473" points="626,40 629,40 634,35 629,30 626,30 626,40 " class="clusterblast-orf"  />
<polygon id="dummy-1_q54_0_all" style="stroke:black; stroke-width:1; fill:white; " description="&lt;b&gt;cds69629_69974&lt;/b&gt;&lt;br&gt;Rhodanese-related sulfurtransferase&lt;br&gt;Location: 69629 - 69974" locus_tag="cds69629_69974" points="636,40 639,35 636,30 636,40 " class="clusterblast-orf"  />
<polygon id="dummy-1_q55_0_all" style="stroke:black; stroke-width:1; fill:white; " description="&lt;b&gt;cds70027_71089&lt;/b&gt;&lt;br&gt;1,2-phenylacetyl-CoA epoxidase, subunit E (EC 1.14.13.149)&lt;br&gt;Location: 70027 - 71089" locus_tag="cds70027_71089" points="639,35 644,30 649,30 649,40 644,40 639,35 " class="clusterblast-orf"  />
<polygon id="dummy-1_q56_0_all" style="stroke:black; stroke-width:1; fill:white; " description="&lt;b&gt;cds71089_71584&lt;/b&gt;&lt;br&gt;1,2-phenylacetyl-CoA epoxidase, subunit D (EC 1.14.13.149)&lt;br&gt;Location: 71089 - 71584" locus_tag="cds71089_71584" points="649,35 654,30 654,30 654,40 654,40 649,35 " class="clusterblast-orf"  />
<polygon id="dummy-1_q57_0_all" style="stroke:black; stroke-width:1; fill:white; " description="&lt;b&gt;cds71577_72306&lt;/b&gt;&lt;br&gt;1,2-phenylacetyl-CoA epoxidase, subunit C (EC 1.14.13.149)&lt;br&gt;Location: 71577 - 72306" locus_tag="cds71577_72306" points="654,35 659,30 660,30 660,40 659,40 654,35 " class="clusterblast-orf"  />
<polygon id="dummy-1_q58_0_all" style="stroke:black; stroke-width:1; fill:white; " description="&lt;b&gt;cds72302_72590&lt;/b&gt;&lt;br&gt;1,2-phenylacetyl-CoA epoxidase, subunit B (EC 1.14.13.149)&lt;br&gt;Location: 72302 - 72590" locus_tag="cds72302_72590" points="660,35 663,30 663,40 660,35 " class="clusterblast-orf"  />
<polygon id="dummy-1_q59_0_all" style="stroke:black; stroke-width:1; fill:white; " description="&lt;b&gt;cds72586_73615&lt;/b&gt;&lt;br&gt;1,2-phenylacetyl-CoA epoxidase, subunit A (EC 1.14.13.149)&lt;br&gt;Location: 72586 - 73615" locus_tag="cds72586_73615" points="663,35 668,30 672,30 672,40 668,40 663,35 " class="clusterblast-orf"  />
<polygon id="dummy-1_q60_0_all" style="stroke:black; stroke-width:1; fill:white; " description="&lt;b&gt;cds73725_74448&lt;/b&gt;&lt;br&gt;putative membrane protein&lt;br&gt;Location: 73725 - 74448" locus_tag="cds73725_74448" points="673,40 675,40 680,35 675,30 673,30 673,40 " class="clusterblast-orf"  />
<polygon id="dummy-1_q61_0_all" style="stroke:black; stroke-width:1; fill:white; " description="&lt;b&gt;cds74444_76094&lt;/b&gt;&lt;br&gt;putative membrane protein&lt;br&gt;Location: 74444 - 76094" locus_tag="cds74444_76094" points="680,40 690,40 695,35 690,30 680,30 680,40 " class="clusterblast-orf"  />
<polygon id="dummy-1_q62_0_all" style="stroke:black; stroke-width:1; fill:white; " description="&lt;b&gt;cds76090_76798&lt;/b&gt;&lt;br&gt;tRNA/rRNA methyltransferase&lt;br&gt;Location: 76090 - 76798" locus_tag="cds76090_76798" points="695,40 696,40 701,35 696,30 695,30 695,40 " class="clusterblast-orf"  />
<polygon id="dummy-1_q63_0_all" style="stroke:black; stroke-width:1; fill:white; " description="&lt;b&gt;cds76888_78583&lt;/b&gt;&lt;br&gt;Phenylacetic acid degradation protein PaaN2, ring-opening aldehyde dehydrogenase (EC 1.2.1.3)&lt;br&gt;Location: 76888 - 78583" locus_tag="cds76888_78583" points="702,35 707,30 718,30 718,40 707,40 702,35 " class="clusterblast-orf"  />
<polygon id="dummy-1_q64_0_all" style="stroke:black; stroke-width:1; fill:white; " description="&lt;b&gt;cds78706_80248&lt;/b&gt;&lt;br&gt;3-hydroxybutyryl-CoA dehydrogenase precursor (EC 1.1.1.157)&lt;br&gt;Location: 78706 - 80248" locus_tag="cds78706_80248" points="719,40 728,40 733,35 728,30 719,30 719,40 " class="clusterblast-orf"  />
<polygon id="dummy-1_q65_0_all" style="stroke:black; stroke-width:1; fill:white; " description="&lt;b&gt;cds80247_80841&lt;/b&gt;&lt;br&gt;Transcriptional regulator, AcrR family&lt;br&gt;Location: 80247 - 80841" locus_tag="cds80247_80841" points="733,40 733,40 738,35 733,30 733,30 733,40 " class="clusterblast-orf"  />
<polygon id="dummy-1_q66_0_all" style="stroke:black; stroke-width:1; fill:white; " description="&lt;b&gt;cds81153_81684&lt;/b&gt;&lt;br&gt;Leucine-responsive regulatory protein, regulator for leucine (or lrp) regulon and high-affinity branched-chain amino acid transport system&lt;br&gt;Location: 81153 - 81684" locus_tag="cds81153_81684" points="741,35 746,30 746,30 746,40 746,40 741,35 " class="clusterblast-orf"  />
<polygon id="dummy-1_q67_0_all" style="stroke:black; stroke-width:1; fill:#15d885; " description="&lt;b&gt;cds81865_83008&lt;/b&gt;&lt;br&gt;Branched-chain alpha-keto acid dehydrogenase, E1 component, alpha subunit (EC 1.2.4.4)&lt;br&gt;Location: 81865 - 83008" locus_tag="cds81865_83008" points="748,40 753,40 758,35 753,30 748,30 748,40 " class="clusterblast-orf"  />
<polygon id="dummy-1_q68_0_all" style="stroke:black; stroke-width:1; fill:#4d15d8; " description="&lt;b&gt;cds83004_84009&lt;/b&gt;&lt;br&gt;Branched-chain alpha-keto acid dehydrogenase, E1 component, beta subunit (EC 1.2.4.4)&lt;br&gt;Location: 83004 - 84009" locus_tag="cds83004_84009" points="758,40 762,40 767,35 762,30 758,30 758,40 " class="clusterblast-orf"  />
<polygon id="dummy-1_q69_0_all" style="stroke:black; stroke-width:1; fill:white; " description="&lt;b&gt;cds84008_85376&lt;/b&gt;&lt;br&gt;Dihydrolipoamide acyltransferase component of branched-chain alpha-keto acid dehydrogenase complex (EC 2.3.1.168)&lt;br&gt;Location: 84008 - 85376" locus_tag="cds84008_85376" points="767,40 775,40 780,35 775,30 767,30 767,40 " class="clusterblast-orf"  />
</g>
<g description="AJ632270_c1: teicoplanin dihydroxyphenylglycine (100% of genes show similarity), DPG" class="clusterblast-cluster" label="AJ632270"  >
<text y="70" x="5" class="clusterblast-acc"  >
AJ632270_c1: teicoplanin dihydroxyphenylglycine (100% of genes show similarity), DPG</text>
<line x1="10" y1="85" style="stroke:grey; stroke-width:1; " y2="85" x2="778.0"  />
</g>
<g id="a1_000"  >
<polygon id="dummy-1_h1_3_0" style="stroke:black; stroke-width:1; fill:#1585d8; " description="&lt;b&gt;AJ632270_1_ORF17*&lt;/b&gt;&lt;br&gt;DpgA protein&lt;br&gt;Location: 66438 - 67559&lt;br&gt;&lt;br&gt;&lt;b&gt;BlastP hit with cds13471_14551&lt;/b&gt;&lt;br&gt;Percentage identity: 77&lt;br&gt;Percentage coverage: 97&lt;br&gt;BLAST bit score: 536&lt;br&gt;E-value: 0.0" locus_tag="AJ632270_1_ORF17*" points="372,90 377,90 382,85 377,80 372,80 372,90 " class="clusterblast-orf"  />
</g>
<g id="a1_001"  >
<polygon id="dummy-1_h1_3_1" style="stroke:black; stroke-width:1; fill:#d815bc; " description="&lt;b&gt;AJ632270_1_ORF18*&lt;/b&gt;&lt;br&gt;DpgB protein&lt;br&gt;Location: 67556 - 68221&lt;br&gt;&lt;br&gt;&lt;b&gt;BlastP hit with cds14565_15222&lt;/b&gt;&lt;br&gt;Percentage identity: 50&lt;br&gt;Percentage coverage: 95&lt;br&gt;BLAST bit score: 194&lt;br&gt;E-value: 2.03e-64" locus_tag="AJ632270_1_ORF18*" points="382,90 383,90 388,85 383,80 382,80 382,90 " class="clusterblast-orf"  />
</g>
<g id="a1_002"  >
<polygon id="dummy-1_h1_3_2" style="stroke:black; stroke-width:1; fill:#d8bc15; " description="&lt;b&gt;AJ632270_1_ORF19*&lt;/b&gt;&lt;br&gt;DpgC protein&lt;br&gt;Location: 68218 - 69519&lt;br&gt;&lt;br&gt;&lt;b&gt;BlastP hit with cds15221_16520&lt;/b&gt;&lt;br&gt;Percentage identity: 70&lt;br&gt;Percentage coverage: 95&lt;br&gt;BLAST bit score: 541&lt;br&gt;E-value: 0.0" locus_tag="AJ632270_1_ORF19*" points="388,90 395,90 400,85 395,80 388,80 388,90 " class="clusterblast-orf"  />
</g>
<g id="a1_003"  >
<polygon id="dummy-1_h1_3_3" style="stroke:black; stroke-width:1; fill:#d81515; " description="&lt;b&gt;AJ632270_1_ORF20*&lt;/b&gt;&lt;br&gt;DpgD protein&lt;br&gt;Location: 69548 - 70354&lt;br&gt;&lt;br&gt;&lt;b&gt;BlastP hit with cds4123_4531&lt;/b&gt;&lt;br&gt;Percentage identity: 60&lt;br&gt;Percentage coverage: 99&lt;br&gt;BLAST bit score: 168&lt;br&gt;E-value: 6.42e-55" locus_tag="AJ632270_1_ORF20*" points="400,90 402,90 407,85 402,80 400,80 400,90 " class="clusterblast-orf"  />
</g>
</svg>
