<svg preserveAspectRatio="none" xmlns="http://www.w3.org/2000/svg" height="50" version="1.1" viewBox="0 0 800 50" y="0" xmlns:xlink="http://www.w3.org/1999/xlink" x="0" width="800"  >
<g class="clusterblast-cluster" label="Query sequence"  >
<text y="20" x="5" class="clusterblast-acc"  >
Query sequence</text>
<line x1="10" y1="35" style="stroke:grey; stroke-width:1; " y2="35" x2="778.0"  />
<polygon id="subclusterblast-1_q0_0_all" style="stroke:black; stroke-width:1; fill:white; " description="&lt;b&gt;cds173_1268&lt;/b&gt;&lt;br&gt;Efflux ABC transporter, ATP-binding protein&lt;br&gt;Location: 173 - 1268" locus_tag="cds173_1268" points="0,35 5,30 62,30 62,40 5,40 0,35 " class="clusterblast-orf"  />
<polygon id="subclusterblast-1_q1_0_all" style="stroke:black; stroke-width:1; fill:white; " description="&lt;b&gt;cds1991_2147&lt;/b&gt;&lt;br&gt;hypothetical protein&lt;br&gt;Location: 1991 - 2147" locus_tag="cds1991_2147" points="103,35 108,30 112,30 112,40 108,40 103,35 " class="clusterblast-orf"  />
<polygon id="subclusterblast-1_q2_0_all" style="stroke:black; stroke-width:1; fill:white; " description="&lt;b&gt;cds2194_4864&lt;/b&gt;&lt;br&gt;hypothetical protein&lt;br&gt;Location: 2194 - 4864" locus_tag="cds2194_4864" points="114,35 119,30 265,30 265,40 119,40 114,35 " class="clusterblast-orf"  />
<polygon id="subclusterblast-1_q3_0_all" style="stroke:black; stroke-width:1; fill:white; " description="&lt;b&gt;cds5102_5291&lt;/b&gt;&lt;br&gt;hypothetical protein&lt;br&gt;Location: 5102 - 5291" locus_tag="cds5102_5291" points="279,35 284,30 289,30 289,40 284,40 279,35 " class="clusterblast-orf"  />
<polygon id="subclusterblast-1_q4_0_all" style="stroke:black; stroke-width:1; fill:white; " description="&lt;b&gt;cds5506_6256&lt;/b&gt;&lt;br&gt;hypothetical protein&lt;br&gt;Location: 5506 - 6256" locus_tag="cds5506_6256" points="301,40 339,40 344,35 339,30 301,30 301,40 " class="clusterblast-orf"  />
<polygon id="subclusterblast-1_q5_0_all" style="stroke:black; stroke-width:1; fill:white; " description="&lt;b&gt;cds6245_7970&lt;/b&gt;&lt;br&gt;hypothetical protein&lt;br&gt;Location: 6245 - 7970" locus_tag="cds6245_7970" points="343,35 348,30 441,30 441,40 348,40 343,35 " class="clusterblast-orf"  />
<polygon id="subclusterblast-1_q6_0_all" style="stroke:black; stroke-width:1; fill:white; " description="&lt;b&gt;cds8301_9516&lt;/b&gt;&lt;br&gt;hypothetical protein&lt;br&gt;Location: 8301 - 9516" locus_tag="cds8301_9516" points="459,40 523,40 528,35 523,30 459,30 459,40 " class="clusterblast-orf"  />
<polygon id="subclusterblast-1_q7_0_all" style="stroke:black; stroke-width:1; fill:white; " description="&lt;b&gt;cds9659_10196&lt;/b&gt;&lt;br&gt;Transcriptional regulator, AcrR family&lt;br&gt;Location: 9659 - 10196" locus_tag="cds9659_10196" points="536,40 561,40 566,35 561,30 536,30 536,40 " class="clusterblast-orf"  />
<polygon id="subclusterblast-1_q8_0_all" style="stroke:black; stroke-width:1; fill:white; " description="&lt;b&gt;cds10263_10575&lt;/b&gt;&lt;br&gt;two-component system regulatory protein&lt;br&gt;Location: 10263 - 10575" locus_tag="cds10263_10575" points="570,35 575,30 588,30 588,40 575,40 570,35 " class="clusterblast-orf"  />
<polygon id="subclusterblast-1_q9_0_all" style="stroke:black; stroke-width:1; fill:white; " description="&lt;b&gt;cds10921_11575&lt;/b&gt;&lt;br&gt;protein of unknown function DUF161&lt;br&gt;Location: 10921 - 11575" locus_tag="cds10921_11575" points="607,40 639,40 644,35 639,30 607,30 607,40 " class="clusterblast-orf"  />
<polygon id="subclusterblast-1_q10_0_all" style="stroke:black; stroke-width:1; fill:white; " description="&lt;b&gt;cds11666_12362&lt;/b&gt;&lt;br&gt;Uncharacterized SAM-dependent O-methyltransferase&lt;br&gt;Location: 11666 - 12362" locus_tag="cds11666_12362" points="649,40 684,40 689,35 684,30 649,30 649,40 " class="clusterblast-orf"  />
<polygon id="subclusterblast-1_q11_0_all" style="stroke:black; stroke-width:1; fill:white; " description="&lt;b&gt;cds12499_13978&lt;/b&gt;&lt;br&gt;Uncharacterized MFS-type transporter&lt;br&gt;Location: 12499 - 13978" locus_tag="cds12499_13978" points="696,40 775,40 780,35 775,30 696,30 696,40 " class="clusterblast-orf"  />
</g>
</svg>
