<svg xmlns:xlink="http://www.w3.org/1999/xlink" x="0" preserveAspectRatio="none" version="1.1" height="230" viewBox="0 0 800 230" y="0" xmlns="http://www.w3.org/2000/svg" width="800"  >
<g label="Query sequence" class="clusterblast-cluster"  >
<text class="clusterblast-acc" x="5" y="20"  >
Query sequence</text>
<line y2="35" x1="10" style="stroke-width:1; stroke:grey; " y1="35" x2="778.0"  />
<polygon style="fill:#d81515; stroke-width:1; stroke:black; " id="dummy-1_q0_0_all" class="clusterblast-orf" description="&lt;b&gt;cds70263_70437&lt;/b&gt;&lt;br&gt;hypothetical protein&lt;br&gt;Location: 70263 - 70437" locus_tag="cds70263_70437" points="85,35 90,30 91,30 91,40 90,40 85,35 "  />
<polygon style="fill:#56d815; stroke-width:1; stroke:black; " id="dummy-1_q1_0_all" class="clusterblast-orf" description="&lt;b&gt;cds70933_71752&lt;/b&gt;&lt;br&gt;hypothetical protein&lt;br&gt;Location: 70933 - 71752" locus_tag="cds70933_71752" points="106,35 111,30 130,30 130,40 111,40 106,35 "  />
<polygon style="fill:#1597d8; stroke-width:1; stroke:black; " id="dummy-1_q2_0_all" class="clusterblast-orf" description="&lt;b&gt;cds73138_73969&lt;/b&gt;&lt;br&gt;Phage shock protein A (IM30), suppresses sigma54-dependent transcription&lt;br&gt;Location: 73138 - 73969" locus_tag="cds73138_73969" points="172,35 177,30 198,30 198,40 177,40 172,35 "  />
<polygon style="fill:#9715d8; stroke-width:1; stroke:black; " id="dummy-1_q3_0_all" class="clusterblast-orf" description="&lt;b&gt;cds74173_74578&lt;/b&gt;&lt;br&gt;Putative transcriptional regulatory protein&lt;br&gt;Location: 74173 - 74578" locus_tag="cds74173_74578" points="204,35 209,30 216,30 216,40 209,40 204,35 "  />
<polygon style="fill:#d85615; stroke-width:1; stroke:black; " id="dummy-1_q4_0_all" class="clusterblast-orf" description="&lt;b&gt;cds74671_75184&lt;/b&gt;&lt;br&gt;Nicotinamide-nucleotide amidase (EC 3.5.1.42)&lt;br&gt;Location: 74671 - 75184" locus_tag="cds74671_75184" points="219,35 224,30 235,30 235,40 224,40 219,35 "  />
<polygon style="fill:#15d815; stroke-width:1; stroke:black; " id="dummy-1_q5_0_all" class="clusterblast-orf" description="&lt;b&gt;cds75195_75873&lt;/b&gt;&lt;br&gt;CDP-diacylglycerol--glycerol-3-phosphate 3-phosphatidyltransferase (EC 2.7.8.5)&lt;br&gt;Location: 75195 - 75873" locus_tag="cds75195_75873" points="235,35 240,30 255,30 255,40 240,40 235,35 "  />
<polygon style="fill:#1556d8; stroke-width:1; stroke:black; " id="dummy-1_q6_0_all" class="clusterblast-orf" description="&lt;b&gt;cds76040_76523&lt;/b&gt;&lt;br&gt;Acetyltransferase, GNAT family&lt;br&gt;Location: 76040 - 76523" locus_tag="cds76040_76523" points="260,40 270,40 275,35 270,30 260,30 260,40 "  />
<polygon style="fill:#d815d8; stroke-width:1; stroke:black; " id="dummy-1_q7_0_all" class="clusterblast-orf" description="&lt;b&gt;cds76570_76855&lt;/b&gt;&lt;br&gt;hypothetical protein&lt;br&gt;Location: 76570 - 76855" locus_tag="cds76570_76855" points="277,40 280,40 285,35 280,30 277,30 277,40 "  />
<polygon style="fill:#d89715; stroke-width:1; stroke:black; " id="dummy-1_q8_0_all" class="clusterblast-orf" description="&lt;b&gt;cds76866_78033&lt;/b&gt;&lt;br&gt;hypothetical protein&lt;br&gt;Location: 76866 - 78033" locus_tag="cds76866_78033" points="286,35 291,30 321,30 321,40 291,40 286,35 "  />
<polygon style="fill:#15d856; stroke-width:1; stroke:black; " id="dummy-1_q9_0_all" class="clusterblast-orf" description="&lt;b&gt;cds78386_79760&lt;/b&gt;&lt;br&gt;hypothetical protein&lt;br&gt;Location: 78386 - 79760" locus_tag="cds78386_79760" points="332,40 368,40 373,35 368,30 332,30 332,40 "  />
<polygon style="fill:#1515d8; stroke-width:1; stroke:black; " id="dummy-1_q10_0_all" class="clusterblast-orf" description="&lt;b&gt;cds79756_80821&lt;/b&gt;&lt;br&gt;hypothetical protein&lt;br&gt;Location: 79756 - 80821" locus_tag="cds79756_80821" points="373,40 400,40 405,35 400,30 373,30 373,40 "  />
<polygon style="fill:#d81597; stroke-width:1; stroke:black; " id="dummy-1_q11_0_all" class="clusterblast-orf" description="&lt;b&gt;cds81206_82136&lt;/b&gt;&lt;br&gt;Lauroyl/myristoyl acyltransferase involved in lipid A biosynthesis (Lauroyl/myristoyl acyltransferase)&lt;br&gt;Location: 81206 - 82136" locus_tag="cds81206_82136" points="417,40 440,40 445,35 440,30 417,30 417,40 "  />
<polygon style="fill:#d8d815; stroke-width:1; stroke:black; " id="dummy-1_q12_0_all" class="clusterblast-orf" description="&lt;b&gt;cds82522_82966&lt;/b&gt;&lt;br&gt;hypothetical protein&lt;br&gt;Location: 82522 - 82966" locus_tag="cds82522_82966" points="457,40 466,40 471,35 466,30 457,30 457,40 "  />
<polygon style="fill:white; stroke-width:1; stroke:black; " id="dummy-1_q13_0_all" class="clusterblast-orf" description="&lt;b&gt;cds82962_83289&lt;/b&gt;&lt;br&gt;hypothetical protein&lt;br&gt;Location: 82962 - 83289" locus_tag="cds82962_83289" points="470,40 475,40 480,35 475,30 470,30 470,40 "  />
<polygon style="fill:#15d897; stroke-width:1; stroke:black; " id="dummy-1_q14_0_all" class="clusterblast-orf" description="&lt;b&gt;cds83354_84092&lt;/b&gt;&lt;br&gt;hypothetical protein&lt;br&gt;Location: 83354 - 84092" locus_tag="cds83354_84092" points="482,35 487,30 505,30 505,40 487,40 482,35 "  />
<polygon style="fill:#5615d8; stroke-width:1; stroke:black; " id="dummy-1_q15_0_all" class="clusterblast-orf" description="&lt;b&gt;cds84142_84829&lt;/b&gt;&lt;br&gt;hypothetical protein&lt;br&gt;Location: 84142 - 84829" locus_tag="cds84142_84829" points="506,35 511,30 527,30 527,40 511,40 506,35 "  />
<polygon style="fill:#d81556; stroke-width:1; stroke:black; " id="dummy-1_q16_0_all" class="clusterblast-orf" description="&lt;b&gt;cds85113_85476&lt;/b&gt;&lt;br&gt;hypothetical protein&lt;br&gt;Location: 85113 - 85476" locus_tag="cds85113_85476" points="536,35 541,30 547,30 547,40 541,40 536,35 "  />
<polygon style="fill:#97d815; stroke-width:1; stroke:black; " id="dummy-1_q17_0_all" class="clusterblast-orf" description="&lt;b&gt;cds85854_86265&lt;/b&gt;&lt;br&gt;hypothetical protein&lt;br&gt;Location: 85854 - 86265" locus_tag="cds85854_86265" points="558,40 566,40 571,35 566,30 558,30 558,40 "  />
<polygon style="fill:#d8d815; stroke-width:1; stroke:black; " id="dummy-1_q18_0_all" class="clusterblast-orf" description="&lt;b&gt;cds86261_86711&lt;/b&gt;&lt;br&gt;hypothetical protein&lt;br&gt;Location: 86261 - 86711" locus_tag="cds86261_86711" points="570,40 579,40 584,35 579,30 570,30 570,40 "  />
<polygon style="fill:white; stroke-width:1; stroke:black; " id="dummy-1_q19_0_all" class="clusterblast-orf" description="&lt;b&gt;cds86740_87286&lt;/b&gt;&lt;br&gt;RNA polymerase sigma factor SigB&lt;br&gt;Location: 86740 - 87286" locus_tag="cds86740_87286" points="585,35 590,30 602,30 602,40 590,40 585,35 "  />
<polygon style="fill:white; stroke-width:1; stroke:black; " id="dummy-1_q20_0_all" class="clusterblast-orf" description="&lt;b&gt;cds87597_87753&lt;/b&gt;&lt;br&gt;hypothetical protein&lt;br&gt;Location: 87597 - 87753" locus_tag="cds87597_87753" points="611,40 611,40 616,35 611,30 611,30 611,40 "  />
<polygon style="fill:#15d8d8; stroke-width:1; stroke:black; " id="dummy-1_q21_0_all" class="clusterblast-orf" description="&lt;b&gt;cds87856_88564&lt;/b&gt;&lt;br&gt;Transcriptional regulator, AcrR family&lt;br&gt;Location: 87856 - 88564" locus_tag="cds87856_88564" points="619,40 635,40 640,35 635,30 619,30 619,40 "  />
<polygon style="fill:#15d8d8; stroke-width:1; stroke:black; " id="dummy-1_q22_0_all" class="clusterblast-orf" description="&lt;b&gt;cds89072_89810&lt;/b&gt;&lt;br&gt;Transcriptional regulator, AcrR family&lt;br&gt;Location: 89072 - 89810" locus_tag="cds89072_89810" points="656,35 661,30 678,30 678,40 661,40 656,35 "  />
<polygon style="fill:white; stroke-width:1; stroke:black; " id="dummy-1_q23_0_all" class="clusterblast-orf" description="&lt;b&gt;cds89937_90345&lt;/b&gt;&lt;br&gt;hypothetical protein&lt;br&gt;Location: 89937 - 90345" locus_tag="cds89937_90345" points="682,35 687,30 694,30 694,40 687,40 682,35 "  />
</g>
<g label="NZ_QGHB01000002" class="clusterblast-cluster" description="NZ_QGHB01000002 (230096-256868): Lechevalieria deserti strain DSM 45480 Ga021... (17% of genes show similarity), LAP,thiopeptide"  >
<text class="clusterblast-acc" x="5" y="70"  >
<a xlink:href="https://antismash-db.secondarymetabolites.org/area.html?record=NZ_QGHB01000002&amp;start=230096&amp;end=256868" target="_blank">NZ_QGHB01000002 (230096-256868)</a>: Lechevalieria deserti strain DSM 45480 Ga021... (17% of genes show similarity), LAP,thiopeptide</text>
<line y2="85" x1="10" style="stroke-width:1; stroke:grey; " y1="85" x2="778.0"  />
</g>
<g id="a1_000"  >
<polygon style="fill:white; stroke-width:1; stroke:black; " id="dummy-1_h1_10_0" class="clusterblast-orf" description="&lt;b&gt;C8D88_RS10470&lt;/b&gt;&lt;br&gt;Fpg/Nei family DNA glycosylase&lt;br&gt;Location: 230829 - 231590" locus_tag="C8D88_RS10470" points="0,90 18,90 23,85 18,80 0,80 0,90 "  />
</g>
<g id="a1_001"  >
<polygon style="fill:white; stroke-width:1; stroke:black; " id="dummy-1_h1_10_1" class="clusterblast-orf" description="&lt;b&gt;C8D88_RS10475&lt;/b&gt;&lt;br&gt;cytochrome P450&lt;br&gt;Location: 231623 - 232861" locus_tag="C8D88_RS10475" points="24,90 56,90 61,85 56,80 24,80 24,90 "  />
</g>
<g id="a1_002"  >
<polygon style="fill:white; stroke-width:1; stroke:black; " id="dummy-1_h1_10_2" class="clusterblast-orf" description="&lt;b&gt;C8D88_RS10480&lt;/b&gt;&lt;br&gt;RNA polymerase sigma factor&lt;br&gt;Location: 232913 - 233467" locus_tag="C8D88_RS10480" points="63,90 74,90 79,85 74,80 63,80 63,90 "  />
</g>
<g id="a1_003"  >
<polygon style="fill:white; stroke-width:1; stroke:black; " id="dummy-1_h1_10_3" class="clusterblast-orf" description="&lt;b&gt;C8D88_RS10485&lt;/b&gt;&lt;br&gt;hypothetical protein&lt;br&gt;Location: 233464 - 233982" locus_tag="C8D88_RS10485" points="79,90 90,90 95,85 90,80 79,80 79,90 "  />
</g>
<g id="a1_004"  >
<polygon style="fill:white; stroke-width:1; stroke:black; " id="dummy-1_h1_10_4" class="clusterblast-orf" description="&lt;b&gt;C8D88_RS10490&lt;/b&gt;&lt;br&gt;quinone-dependent dihydroorotate dehydrogenase&lt;br&gt;Location: 234032 - 235009" locus_tag="C8D88_RS10490" points="97,90 121,90 126,85 121,80 97,80 97,90 "  />
</g>
<g id="a1_005"  >
<polygon style="fill:white; stroke-width:1; stroke:black; " id="dummy-1_h1_10_5" class="clusterblast-orf" description="&lt;b&gt;C8D88_RS10495&lt;/b&gt;&lt;br&gt;nitrate reductase&lt;br&gt;Location: 235026 - 236279" locus_tag="C8D88_RS10495" points="127,85 132,80 165,80 165,90 132,90 127,85 "  />
</g>
<g id="a1_006"  >
<polygon style="fill:white; stroke-width:1; stroke:black; " id="dummy-1_h1_10_6" class="clusterblast-orf" description="&lt;b&gt;C8D88_RS10500&lt;/b&gt;&lt;br&gt;hypothetical protein&lt;br&gt;Location: 236446 - 237267" locus_tag="C8D88_RS10500" points="170,85 175,80 195,80 195,90 175,90 170,85 "  />
</g>
<g id="a1_007"  >
<polygon style="fill:#1597d8; stroke-width:1; stroke:black; " id="dummy-1_h1_10_7" class="clusterblast-orf" description="&lt;b&gt;C8D88_RS10505&lt;/b&gt;&lt;br&gt;PspA/IM30 family protein&lt;br&gt;Location: 237305 - 238156&lt;br&gt;&lt;br&gt;&lt;b&gt;BlastP hit with cds73138_73969&lt;/b&gt;&lt;br&gt;Percentage identity: 70&lt;br&gt;Percentage coverage: 102&lt;br&gt;BLAST bit score: 334&lt;br&gt;E-value: 1.3e-89" locus_tag="C8D88_RS10505" points="196,85 201,80 222,80 222,90 201,90 196,85 "  />
</g>
<g id="a1_008"  >
<polygon style="fill:#9715d8; stroke-width:1; stroke:black; " id="dummy-1_h1_10_8" class="clusterblast-orf" description="&lt;b&gt;C8D88_RS10510&lt;/b&gt;&lt;br&gt;helix-turn-helix transcriptional regulator&lt;br&gt;Location: 238515 - 238943&lt;br&gt;&lt;br&gt;&lt;b&gt;BlastP hit with cds74173_74578&lt;/b&gt;&lt;br&gt;Percentage identity: 77&lt;br&gt;Percentage coverage: 52&lt;br&gt;BLAST bit score: 98&lt;br&gt;E-value: 4.3e-19" locus_tag="C8D88_RS10510" points="233,85 238,80 246,80 246,90 238,90 233,85 "  />
</g>
<g id="a1_009"  >
<polygon style="fill:#d85615; stroke-width:1; stroke:black; " id="dummy-1_h1_10_9" class="clusterblast-orf" description="&lt;b&gt;C8D88_RS10515&lt;/b&gt;&lt;br&gt;CinA family protein&lt;br&gt;Location: 239046 - 239525&lt;br&gt;&lt;br&gt;&lt;b&gt;BlastP hit with cds74671_75184&lt;/b&gt;&lt;br&gt;Percentage identity: 60&lt;br&gt;Percentage coverage: 85&lt;br&gt;BLAST bit score: 153&lt;br&gt;E-value: 2.4e-35" locus_tag="C8D88_RS10515" points="249,85 254,80 263,80 263,90 254,90 249,85 "  />
</g>
<g id="a1_0010"  >
<polygon style="fill:#15d815; stroke-width:1; stroke:black; " id="dummy-1_h1_10_10" class="clusterblast-orf" description="&lt;b&gt;C8D88_RS10520&lt;/b&gt;&lt;br&gt;CDP-diacylglycerol--glycerol-3-phosphate 3-phosphatidyltransferase&lt;br&gt;Location: 239522 - 240100&lt;br&gt;&lt;br&gt;&lt;b&gt;BlastP hit with cds75195_75873&lt;/b&gt;&lt;br&gt;Percentage identity: 61&lt;br&gt;Percentage coverage: 84&lt;br&gt;BLAST bit score: 218&lt;br&gt;E-value: 4.8e-55" locus_tag="C8D88_RS10520" points="263,85 268,80 281,80 281,90 268,90 263,85 "  />
</g>
<g id="a1_0011"  >
<polygon style="fill:white; stroke-width:1; stroke:black; " id="dummy-1_h1_10_11" class="clusterblast-orf" description="&lt;b&gt;C8D88_RS10525&lt;/b&gt;&lt;br&gt;30S ribosomal protein S12 methylthiotransferase RimO&lt;br&gt;Location: 240097 - 241518" locus_tag="C8D88_RS10525" points="281,85 286,80 324,80 324,90 286,90 281,85 "  />
</g>
<g id="a1_0012"  >
<polygon style="fill:white; stroke-width:1; stroke:black; " id="dummy-1_h1_10_12" class="clusterblast-orf" description="&lt;b&gt;C8D88_RS10530&lt;/b&gt;&lt;br&gt;hypothetical protein&lt;br&gt;Location: 241565 - 242188" locus_tag="C8D88_RS10530" points="325,90 339,90 344,85 339,80 325,80 325,90 "  />
</g>
<g id="a1_0013"  >
<polygon style="fill:#1556d8; stroke-width:1; stroke:black; " id="dummy-1_h1_10_13" class="clusterblast-orf" description="&lt;b&gt;C8D88_RS10535&lt;/b&gt;&lt;br&gt;amino-acid N-acetyltransferase&lt;br&gt;Location: 242191 - 242694&lt;br&gt;&lt;br&gt;&lt;b&gt;BlastP hit with cds76040_76523&lt;/b&gt;&lt;br&gt;Percentage identity: 69&lt;br&gt;Percentage coverage: 100&lt;br&gt;BLAST bit score: 229&lt;br&gt;E-value: 1.9e-58" locus_tag="C8D88_RS10535" points="344,90 354,90 359,85 354,80 344,80 344,90 "  />
</g>
<g id="a1_0014"  >
<polygon style="fill:white; stroke-width:1; stroke:black; " id="dummy-1_h1_10_14" class="clusterblast-orf" description="&lt;b&gt;C8D88_RS10540&lt;/b&gt;&lt;br&gt;MerR family transcriptional regulator&lt;br&gt;Location: 242749 - 243609" locus_tag="C8D88_RS10540" points="361,90 382,90 387,85 382,80 361,80 361,90 "  />
</g>
<g id="a1_0015"  >
<polygon style="fill:white; stroke-width:1; stroke:black; " id="dummy-1_h1_10_15" class="clusterblast-orf" description="&lt;b&gt;C8D88_RS10545&lt;/b&gt;&lt;br&gt;hypothetical protein&lt;br&gt;Location: 243593 - 244381" locus_tag="C8D88_RS10545" points="387,90 405,90 410,85 405,80 387,80 387,90 "  />
</g>
<g id="a1_0016"  >
<polygon style="fill:white; stroke-width:1; stroke:black; " id="dummy-1_h1_10_16" class="clusterblast-orf" description="&lt;b&gt;C8D88_RS46670&lt;/b&gt;&lt;br&gt;hypothetical protein&lt;br&gt;Location: 244395 - 244538" locus_tag="C8D88_RS46670" points="411,90 415,85 411,80 411,90 "  />
</g>
<g id="a1_0017"  >
<polygon style="fill:white; stroke-width:1; stroke:black; " id="dummy-1_h1_10_17" class="clusterblast-orf" description="&lt;b&gt;C8D88_RS46675&lt;/b&gt;&lt;br&gt;hypothetical protein&lt;br&gt;Location: 244535 - 245059" locus_tag="C8D88_RS46675" points="415,90 426,90 431,85 426,80 415,80 415,90 "  />
</g>
<g id="a1_0018"  >
<polygon style="fill:white; stroke-width:1; stroke:black; " id="dummy-1_h1_10_18" class="clusterblast-orf" description="&lt;b&gt;C8D88_RS10550&lt;/b&gt;&lt;br&gt;hypothetical protein&lt;br&gt;Location: 245056 - 246210" locus_tag="C8D88_RS10550" points="431,90 461,90 466,85 461,80 431,80 431,90 "  />
</g>
<g id="a1_0019"  >
<polygon style="fill:white; stroke-width:1; stroke:black; " id="dummy-1_h1_10_19" class="clusterblast-orf" description="&lt;b&gt;C8D88_RS10555&lt;/b&gt;&lt;br&gt;nitroreductase family protein&lt;br&gt;Location: 246215 - 246868" locus_tag="C8D88_RS10555" points="466,90 481,90 486,85 481,80 466,80 466,90 "  />
</g>
<g id="a1_0020"  >
<polygon style="fill:white; stroke-width:1; stroke:black; " id="dummy-1_h1_10_20" class="clusterblast-orf" description="&lt;b&gt;C8D88_RS10560&lt;/b&gt;&lt;br&gt;phospholipase&lt;br&gt;Location: 246952 - 247419" locus_tag="C8D88_RS10560" points="488,90 498,90 503,85 498,80 488,80 488,90 "  />
</g>
<g id="a1_0021"  >
<polygon style="fill:white; stroke-width:1; stroke:black; " id="dummy-1_h1_10_21" class="clusterblast-orf" description="&lt;b&gt;C8D88_RS10565&lt;/b&gt;&lt;br&gt;DNA translocase FtsK 4TM domain-containing protein&lt;br&gt;Location: 247437 - 249827" locus_tag="C8D88_RS10565" points="503,85 508,80 576,80 576,90 508,90 503,85 "  />
</g>
<g id="a1_0022"  >
<polygon style="fill:white; stroke-width:1; stroke:black; " id="dummy-1_h1_10_22" class="clusterblast-orf" description="&lt;b&gt;C8D88_RS10570&lt;/b&gt;&lt;br&gt;1-acyl-sn-glycerol-3-phosphate acyltransferase&lt;br&gt;Location: 249892 - 250719" locus_tag="C8D88_RS10570" points="578,90 598,90 603,85 598,80 578,80 578,90 "  />
</g>
<g id="a1_0023"  >
<polygon style="fill:white; stroke-width:1; stroke:black; " id="dummy-1_h1_10_23" class="clusterblast-orf" description="&lt;b&gt;C8D88_RS10575&lt;/b&gt;&lt;br&gt;hypothetical protein&lt;br&gt;Location: 250712 - 251296" locus_tag="C8D88_RS10575" points="602,85 607,80 620,80 620,90 607,90 602,85 "  />
</g>
<g id="a1_0024"  >
<polygon style="fill:white; stroke-width:1; stroke:black; " id="dummy-1_h1_10_24" class="clusterblast-orf" description="&lt;b&gt;C8D88_RS10580&lt;/b&gt;&lt;br&gt;alpha/beta hydrolase&lt;br&gt;Location: 251340 - 252113" locus_tag="C8D88_RS10580" points="622,85 627,80 645,80 645,90 627,90 622,85 "  />
</g>
<g id="a1_0025"  >
<polygon style="fill:white; stroke-width:1; stroke:black; " id="dummy-1_h1_10_25" class="clusterblast-orf" description="&lt;b&gt;C8D88_RS10585&lt;/b&gt;&lt;br&gt;tetratricopeptide repeat protein&lt;br&gt;Location: 252123 - 254894" locus_tag="C8D88_RS10585" points="645,85 650,80 729,80 729,90 650,90 645,85 "  />
</g>
<g id="a1_0026"  >
<polygon style="fill:white; stroke-width:1; stroke:black; " id="dummy-1_h1_10_26" class="clusterblast-orf" description="&lt;b&gt;C8D88_RS10590&lt;/b&gt;&lt;br&gt;class I SAM-dependent methyltransferase&lt;br&gt;Location: 255033 - 255647" locus_tag="C8D88_RS10590" points="733,90 747,90 752,85 747,80 733,80 733,90 "  />
</g>
<g id="a1_0027"  >
<polygon style="fill:white; stroke-width:1; stroke:black; " id="dummy-1_h1_10_27" class="clusterblast-orf" description="&lt;b&gt;C8D88_RS10595&lt;/b&gt;&lt;br&gt;hypothetical protein&lt;br&gt;Location: 255644 - 256550" locus_tag="C8D88_RS10595" points="752,85 757,80 780,80 780,90 757,90 752,85 "  />
</g>
</svg>
