<svg xmlns:xlink="http://www.w3.org/1999/xlink" x="0" preserveAspectRatio="none" version="1.1" height="230" viewBox="0 0 800 230" y="0" xmlns="http://www.w3.org/2000/svg" width="800"  >
<g label="Query sequence" class="clusterblast-cluster"  >
<text class="clusterblast-acc" x="5" y="20"  >
Query sequence</text>
<line y2="35" x1="10" style="stroke-width:1; stroke:grey; " y1="35" x2="778.0"  />
<polygon style="fill:#d81515; stroke-width:1; stroke:black; " id="dummy-1_q0_0_all" class="clusterblast-orf" description="&lt;b&gt;cds44170_44854&lt;/b&gt;&lt;br&gt;Uracil-DNA glycosylase, family 1 (EC 3.2.2.27)&lt;br&gt;Location: 44170 - 44854" locus_tag="cds44170_44854" points="114,40 116,40 121,35 116,30 114,30 114,40 "  />
<polygon style="fill:#67d815; stroke-width:1; stroke:black; " id="dummy-1_q1_0_all" class="clusterblast-orf" description="&lt;b&gt;cds44967_45441&lt;/b&gt;&lt;br&gt;hypothetical protein&lt;br&gt;Location: 44967 - 45441" locus_tag="cds44967_45441" points="122,40 122,40 127,35 122,30 122,30 122,40 "  />
<polygon style="fill:#15b9d8; stroke-width:1; stroke:black; " id="dummy-1_q2_0_all" class="clusterblast-orf" description="&lt;b&gt;cds45477_45600&lt;/b&gt;&lt;br&gt;putative lipoprotein&lt;br&gt;Location: 45477 - 45600" locus_tag="cds45477_45600" points="127,35 128,30 128,40 127,35 "  />
<polygon style="fill:white; stroke-width:1; stroke:black; " id="dummy-1_q3_0_all" class="clusterblast-orf" description="&lt;b&gt;cds45917_46070&lt;/b&gt;&lt;br&gt;hypothetical protein&lt;br&gt;Location: 45917 - 46070" locus_tag="cds45917_46070" points="132,35 133,30 133,40 132,35 "  />
<polygon style="fill:#8615d8; stroke-width:1; stroke:black; " id="dummy-1_q4_0_all" class="clusterblast-orf" description="&lt;b&gt;cds46112_46625&lt;/b&gt;&lt;br&gt;Protein of unknown function DUF664&lt;br&gt;Location: 46112 - 46625" locus_tag="cds46112_46625" points="134,35 139,30 139,30 139,40 139,40 134,35 "  />
<polygon style="fill:#d83415; stroke-width:1; stroke:black; " id="dummy-1_q5_0_all" class="clusterblast-orf" description="&lt;b&gt;cds47597_49337&lt;/b&gt;&lt;br&gt;Apolipoprotein N-acyltransferase&lt;br&gt;Location: 47597 - 49337" locus_tag="cds47597_49337" points="148,35 153,30 166,30 166,40 153,40 148,35 "  />
<polygon style="fill:#49d815; stroke-width:1; stroke:black; " id="dummy-1_q6_0_all" class="clusterblast-orf" description="&lt;b&gt;cds49466_49958&lt;/b&gt;&lt;br&gt;hypothetical protein&lt;br&gt;Location: 49466 - 49958" locus_tag="cds49466_49958" points="167,35 172,30 172,30 172,40 172,40 167,35 "  />
<polygon style="fill:#159bd8; stroke-width:1; stroke:black; " id="dummy-1_q7_0_all" class="clusterblast-orf" description="&lt;b&gt;cds50052_50922&lt;/b&gt;&lt;br&gt;Universal stress protein family&lt;br&gt;Location: 50052 - 50922" locus_tag="cds50052_50922" points="173,35 178,30 182,30 182,40 178,40 173,35 "  />
<polygon style="fill:#a515d8; stroke-width:1; stroke:black; " id="dummy-1_q8_0_all" class="clusterblast-orf" description="&lt;b&gt;cds50996_52010&lt;/b&gt;&lt;br&gt;hypothetical protein&lt;br&gt;Location: 50996 - 52010" locus_tag="cds50996_52010" points="183,35 188,30 193,30 193,40 188,40 183,35 "  />
<polygon style="fill:#d85315; stroke-width:1; stroke:black; " id="dummy-1_q9_0_all" class="clusterblast-orf" description="&lt;b&gt;cds52231_52915&lt;/b&gt;&lt;br&gt;hypothetical protein&lt;br&gt;Location: 52231 - 52915" locus_tag="cds52231_52915" points="195,40 197,40 202,35 197,30 195,30 195,40 "  />
<polygon style="fill:#2ad815; stroke-width:1; stroke:black; " id="dummy-1_q10_0_all" class="clusterblast-orf" description="&lt;b&gt;cds53271_53910&lt;/b&gt;&lt;br&gt;RNA polymerase ECF-type sigma factor&lt;br&gt;Location: 53271 - 53910" locus_tag="cds53271_53910" points="206,40 207,40 212,35 207,30 206,30 206,40 "  />
<polygon style="fill:#157cd8; stroke-width:1; stroke:black; " id="dummy-1_q11_0_all" class="clusterblast-orf" description="&lt;b&gt;cds54033_55110&lt;/b&gt;&lt;br&gt;Pyridoxal-5'-phosphate-dependent enzyme beta superfamily (fold type II)&lt;br&gt;Location: 54033 - 55110" locus_tag="cds54033_55110" points="213,35 218,30 224,30 224,40 218,40 213,35 "  />
<polygon style="fill:#c415d8; stroke-width:1; stroke:black; " id="dummy-1_q12_0_all" class="clusterblast-orf" description="&lt;b&gt;cds55106_55433&lt;/b&gt;&lt;br&gt;Methyltransferase type 11&lt;br&gt;Location: 55106 - 55433" locus_tag="cds55106_55433" points="224,35 227,30 227,40 224,35 "  />
<polygon style="fill:white; stroke-width:1; stroke:black; " id="dummy-1_q13_0_all" class="clusterblast-orf" description="&lt;b&gt;cds55431_55596&lt;/b&gt;&lt;br&gt;hypothetical protein&lt;br&gt;Location: 55431 - 55596" locus_tag="cds55431_55596" points="227,40 229,35 227,30 227,40 "  />
<polygon style="fill:white; stroke-width:1; stroke:black; " id="dummy-1_q14_0_all" class="clusterblast-orf" description="&lt;b&gt;cds55679_55844&lt;/b&gt;&lt;br&gt;hypothetical protein&lt;br&gt;Location: 55679 - 55844" locus_tag="cds55679_55844" points="230,35 231,30 231,40 230,35 "  />
<polygon style="fill:#d87215; stroke-width:1; stroke:black; " id="dummy-1_q15_0_all" class="clusterblast-orf" description="&lt;b&gt;cds55844_60032&lt;/b&gt;&lt;br&gt;Assimilatory nitrate reductase large subunit (EC 1.7.99.4)&lt;br&gt;Location: 55844 - 60032" locus_tag="cds55844_60032" points="231,40 268,40 273,35 268,30 231,30 231,40 "  />
<polygon style="fill:#15d81f; stroke-width:1; stroke:black; " id="dummy-1_q16_0_all" class="clusterblast-orf" description="&lt;b&gt;cds60060_60627&lt;/b&gt;&lt;br&gt;phosphotransferase (aminonucleoside antibiotic resistance)&lt;br&gt;Location: 60060 - 60627" locus_tag="cds60060_60627" points="274,40 274,40 279,35 274,30 274,30 274,40 "  />
<polygon style="fill:#155dd8; stroke-width:1; stroke:black; " id="dummy-1_q17_0_all" class="clusterblast-orf" description="&lt;b&gt;cds61052_62207&lt;/b&gt;&lt;br&gt;Isovaleryl-CoA dehydrogenase (EC 1.3.8.4)&lt;br&gt;Location: 61052 - 62207" locus_tag="cds61052_62207" points="284,35 289,30 295,30 295,40 289,40 284,35 "  />
<polygon style="fill:#d815ce; stroke-width:1; stroke:black; " id="dummy-1_q18_0_all" class="clusterblast-orf" description="&lt;b&gt;cds62203_62953&lt;/b&gt;&lt;br&gt;Aspartate racemase (EC 5.1.1.13)&lt;br&gt;Location: 62203 - 62953" locus_tag="cds62203_62953" points="295,35 300,30 303,30 303,40 300,40 295,35 "  />
<polygon style="fill:#d89015; stroke-width:1; stroke:black; " id="dummy-1_q19_0_all" class="clusterblast-orf" description="&lt;b&gt;cds62949_65391&lt;/b&gt;&lt;br&gt;hypothetical protein&lt;br&gt;Location: 62949 - 65391" locus_tag="cds62949_65391" points="303,35 308,30 327,30 327,40 308,40 303,35 "  />
<polygon style="fill:#d89015; stroke-width:1; stroke:black; " id="dummy-1_q20_0_all" class="clusterblast-orf" description="&lt;b&gt;cds65392_67207&lt;/b&gt;&lt;br&gt;hypothetical protein&lt;br&gt;Location: 65392 - 67207" locus_tag="cds65392_67207" points="327,35 332,30 346,30 346,40 332,40 327,35 "  />
<polygon style="fill:#15d83e; stroke-width:1; stroke:black; " id="dummy-1_q21_0_all" class="clusterblast-orf" description="&lt;b&gt;cds67237_69097&lt;/b&gt;&lt;br&gt;Asparagine synthetase [glutamine-hydrolyzing] (EC 6.3.5.4)&lt;br&gt;Location: 67237 - 69097" locus_tag="cds67237_69097" points="346,35 351,30 365,30 365,40 351,40 346,35 "  />
<polygon style="fill:#d89015; stroke-width:1; stroke:black; " id="dummy-1_q22_0_all" class="clusterblast-orf" description="&lt;b&gt;cds69112_73024&lt;/b&gt;&lt;br&gt;Polyketide synthase modules and related proteins&lt;br&gt;Location: 69112 - 73024" locus_tag="cds69112_73024" points="365,35 370,30 404,30 404,40 370,40 365,35 "  />
<polygon style="fill:#d89015; stroke-width:1; stroke:black; " id="dummy-1_q23_0_all" class="clusterblast-orf" description="&lt;b&gt;cds73088_79454&lt;/b&gt;&lt;br&gt;Polyketide synthase modules and related proteins&lt;br&gt;Location: 73088 - 79454" locus_tag="cds73088_79454" points="405,35 410,30 469,30 469,40 410,40 405,35 "  />
<polygon style="fill:white; stroke-width:1; stroke:black; " id="dummy-1_q24_0_all" class="clusterblast-orf" description="&lt;b&gt;cds79518_79647&lt;/b&gt;&lt;br&gt;hypothetical protein&lt;br&gt;Location: 79518 - 79647" locus_tag="cds79518_79647" points="469,35 471,30 471,40 469,35 "  />
<polygon style="fill:#153ed8; stroke-width:1; stroke:black; " id="dummy-1_q25_0_all" class="clusterblast-orf" description="&lt;b&gt;cds79654_79861&lt;/b&gt;&lt;br&gt;MbtH-like NRPS chaperone&lt;br&gt;Location: 79654 - 79861" locus_tag="cds79654_79861" points="471,35 473,30 473,40 471,35 "  />
<polygon style="fill:#d815af; stroke-width:1; stroke:black; " id="dummy-1_q26_0_all" class="clusterblast-orf" description="&lt;b&gt;cds80003_81119&lt;/b&gt;&lt;br&gt;l-arginine:glycine amidinotransferase&lt;br&gt;Location: 80003 - 81119" locus_tag="cds80003_81119" points="474,35 479,30 485,30 485,40 479,40 474,35 "  />
<polygon style="fill:white; stroke-width:1; stroke:black; " id="dummy-1_q27_0_all" class="clusterblast-orf" description="&lt;b&gt;cds81144_81294&lt;/b&gt;&lt;br&gt;hypothetical protein&lt;br&gt;Location: 81144 - 81294" locus_tag="cds81144_81294" points="486,40 487,35 486,30 486,40 "  />
<polygon style="fill:white; stroke-width:1; stroke:black; " id="dummy-1_q28_0_all" class="clusterblast-orf" description="&lt;b&gt;cds81395_81554&lt;/b&gt;&lt;br&gt;hypothetical protein&lt;br&gt;Location: 81395 - 81554" locus_tag="cds81395_81554" points="488,40 490,35 488,30 488,40 "  />
<polygon style="fill:#d8af15; stroke-width:1; stroke:black; " id="dummy-1_q29_0_all" class="clusterblast-orf" description="&lt;b&gt;cds81579_82578&lt;/b&gt;&lt;br&gt;hypothetical protein&lt;br&gt;Location: 81579 - 82578" locus_tag="cds81579_82578" points="490,40 495,40 500,35 495,30 490,30 490,40 "  />
<polygon style="fill:#15d85d; stroke-width:1; stroke:black; " id="dummy-1_q30_0_all" class="clusterblast-orf" description="&lt;b&gt;cds82628_83120&lt;/b&gt;&lt;br&gt;hypothetical protein&lt;br&gt;Location: 82628 - 83120" locus_tag="cds82628_83120" points="501,40 505,35 501,30 501,40 "  />
<polygon style="fill:#151fd8; stroke-width:1; stroke:black; " id="dummy-1_q31_0_all" class="clusterblast-orf" description="&lt;b&gt;cds83116_84067&lt;/b&gt;&lt;br&gt;hypothetical protein&lt;br&gt;Location: 83116 - 84067" locus_tag="cds83116_84067" points="505,40 510,40 515,35 510,30 505,30 505,40 "  />
<polygon style="fill:#d81590; stroke-width:1; stroke:black; " id="dummy-1_q32_0_all" class="clusterblast-orf" description="&lt;b&gt;cds84063_84966&lt;/b&gt;&lt;br&gt;Coenzyme F420-dependent N5,N10-methylene tetrahydromethanopterin reductase and related flavin-dependent oxidoreductases&lt;br&gt;Location: 84063 - 84966" locus_tag="cds84063_84966" points="515,40 519,40 524,35 519,30 515,30 515,40 "  />
<polygon style="fill:#d8ce15; stroke-width:1; stroke:black; " id="dummy-1_q33_0_all" class="clusterblast-orf" description="&lt;b&gt;cds84962_85829&lt;/b&gt;&lt;br&gt;hypothetical protein&lt;br&gt;Location: 84962 - 85829" locus_tag="cds84962_85829" points="524,40 528,40 533,35 528,30 524,30 524,40 "  />
<polygon style="fill:#15d87c; stroke-width:1; stroke:black; " id="dummy-1_q34_0_all" class="clusterblast-orf" description="&lt;b&gt;cds85850_87641&lt;/b&gt;&lt;br&gt;Gamma-glutamyltranspeptidase (EC 2.3.2.2) @ Glutathione hydrolase (EC 3.4.19.13)&lt;br&gt;Location: 85850 - 87641" locus_tag="cds85850_87641" points="533,40 546,40 551,35 546,30 533,30 533,40 "  />
<polygon style="fill:#2a15d8; stroke-width:1; stroke:black; " id="dummy-1_q35_0_all" class="clusterblast-orf" description="&lt;b&gt;cds87825_88854&lt;/b&gt;&lt;br&gt;hypothetical protein&lt;br&gt;Location: 87825 - 88854" locus_tag="cds87825_88854" points="553,40 558,40 563,35 558,30 553,30 553,40 "  />
<polygon style="fill:#d81572; stroke-width:1; stroke:black; " id="dummy-1_q36_0_all" class="clusterblast-orf" description="&lt;b&gt;cds88858_89155&lt;/b&gt;&lt;br&gt;hypothetical protein&lt;br&gt;Location: 88858 - 89155" locus_tag="cds88858_89155" points="563,40 566,35 563,30 563,40 "  />
<polygon style="fill:#c4d815; stroke-width:1; stroke:black; " id="dummy-1_q37_0_all" class="clusterblast-orf" description="&lt;b&gt;cds89183_90464&lt;/b&gt;&lt;br&gt;hypothetical protein&lt;br&gt;Location: 89183 - 90464" locus_tag="cds89183_90464" points="566,40 574,40 579,35 574,30 566,30 566,40 "  />
<polygon style="fill:#15d89b; stroke-width:1; stroke:black; " id="dummy-1_q38_0_all" class="clusterblast-orf" description="&lt;b&gt;cds90768_91641&lt;/b&gt;&lt;br&gt;Undecaprenyl-diphosphatase (EC 3.6.1.27)&lt;br&gt;Location: 90768 - 91641" locus_tag="cds90768_91641" points="582,35 587,30 591,30 591,40 587,40 582,35 "  />
<polygon style="fill:#4915d8; stroke-width:1; stroke:black; " id="dummy-1_q39_0_all" class="clusterblast-orf" description="&lt;b&gt;cds91810_92533&lt;/b&gt;&lt;br&gt;Integral membrane protein&lt;br&gt;Location: 91810 - 92533" locus_tag="cds91810_92533" points="593,35 598,30 600,30 600,40 598,40 593,35 "  />
<polygon style="fill:#d81553; stroke-width:1; stroke:black; " id="dummy-1_q40_0_all" class="clusterblast-orf" description="&lt;b&gt;cds92555_93308&lt;/b&gt;&lt;br&gt;DNA alkylation repair enzyme&lt;br&gt;Location: 92555 - 93308" locus_tag="cds92555_93308" points="600,40 603,40 608,35 603,30 600,30 600,40 "  />
<polygon style="fill:white; stroke-width:1; stroke:black; " id="dummy-1_q41_0_all" class="clusterblast-orf" description="&lt;b&gt;cds93385_93694&lt;/b&gt;&lt;br&gt;hypothetical protein&lt;br&gt;Location: 93385 - 93694" locus_tag="cds93385_93694" points="609,35 612,30 612,40 609,35 "  />
<polygon style="fill:#a5d815; stroke-width:1; stroke:black; " id="dummy-1_q42_0_all" class="clusterblast-orf" description="&lt;b&gt;cds93658_94834&lt;/b&gt;&lt;br&gt;Translation elongation factor Tu&lt;br&gt;Location: 93658 - 94834" locus_tag="cds93658_94834" points="611,40 618,40 623,35 618,30 611,30 611,40 "  />
<polygon style="fill:#15d8b9; stroke-width:1; stroke:black; " id="dummy-1_q43_0_all" class="clusterblast-orf" description="&lt;b&gt;cds94867_95743&lt;/b&gt;&lt;br&gt;hypothetical protein&lt;br&gt;Location: 94867 - 95743" locus_tag="cds94867_95743" points="624,40 627,40 632,35 627,30 624,30 624,40 "  />
<polygon style="fill:#6715d8; stroke-width:1; stroke:black; " id="dummy-1_q44_0_all" class="clusterblast-orf" description="&lt;b&gt;cds95800_96898&lt;/b&gt;&lt;br&gt;hypothetical protein&lt;br&gt;Location: 95800 - 96898" locus_tag="cds95800_96898" points="633,35 638,30 644,30 644,40 638,40 633,35 "  />
<polygon style="fill:#d81534; stroke-width:1; stroke:black; " id="dummy-1_q45_0_all" class="clusterblast-orf" description="&lt;b&gt;cds97019_97457&lt;/b&gt;&lt;br&gt;Acyl-coenzyme A thioesterase PaaD (Pse.pu.) (E. coli PaaI)&lt;br&gt;Location: 97019 - 97457" locus_tag="cds97019_97457" points="645,40 645,40 650,35 645,30 645,30 645,40 "  />
<polygon style="fill:#86d815; stroke-width:1; stroke:black; " id="dummy-1_q46_0_all" class="clusterblast-orf" description="&lt;b&gt;cds97568_98099&lt;/b&gt;&lt;br&gt;Carbonic anhydrase-like protein MJ0304&lt;br&gt;Location: 97568 - 98099" locus_tag="cds97568_98099" points="651,35 656,30 656,30 656,40 656,40 651,35 "  />
<polygon style="fill:#15d8d8; stroke-width:1; stroke:black; " id="dummy-1_q47_0_all" class="clusterblast-orf" description="&lt;b&gt;cds98196_99009&lt;/b&gt;&lt;br&gt;putative sugar acetyltransferase&lt;br&gt;Location: 98196 - 99009" locus_tag="cds98196_99009" points="657,40 660,40 665,35 660,30 657,30 657,40 "  />
</g>
<g label="NZ_CP015726" class="clusterblast-cluster" description="NZ_CP015726 (9949648-10027267): Streptomyces sp. RTd22 chromosome, complete g... (25% of genes show similarity), NRPS"  >
<text class="clusterblast-acc" x="5" y="70"  >
<a xlink:href="https://antismash-db.secondarymetabolites.org/area.html?record=NZ_CP015726&amp;start=9949648&amp;end=10027267" target="_blank">NZ_CP015726 (9949648-10027267)</a>: Streptomyces sp. RTd22 chromosome, complete g... (25% of genes show similarity), NRPS</text>
<line y2="85" x1="10" style="stroke-width:1; stroke:grey; " y1="85" x2="778.0"  />
</g>
<g id="a1_000"  >
<polygon style="fill:white; stroke-width:1; stroke:black; " id="dummy-1_h1_7_0" class="clusterblast-orf" description="&lt;b&gt;A7B19_RS42325&lt;/b&gt;&lt;br&gt;alpha/beta hydrolase&lt;br&gt;Location: 9949649 - 9950680" locus_tag="A7B19_RS42325" points="0,85 5,80 10,80 10,90 5,90 0,85 "  />
</g>
<g id="a1_001"  >
<polygon style="fill:white; stroke-width:1; stroke:black; " id="dummy-1_h1_7_1" class="clusterblast-orf" description="&lt;b&gt;A7B19_RS42330&lt;/b&gt;&lt;br&gt;SDR family NAD(P)-dependent oxidoreductase&lt;br&gt;Location: 9951040 - 9951885" locus_tag="A7B19_RS42330" points="13,85 18,80 22,80 22,90 18,90 13,85 "  />
</g>
<g id="a1_002"  >
<polygon style="fill:white; stroke-width:1; stroke:black; " id="dummy-1_h1_7_2" class="clusterblast-orf" description="&lt;b&gt;A7B19_RS42335&lt;/b&gt;&lt;br&gt;helix-turn-helix domain-containing protein&lt;br&gt;Location: 9952171 - 9953100" locus_tag="A7B19_RS42335" points="25,90 29,90 34,85 29,80 25,80 25,90 "  />
</g>
<g id="a1_003"  >
<polygon style="fill:white; stroke-width:1; stroke:black; " id="dummy-1_h1_7_3" class="clusterblast-orf" description="&lt;b&gt;A7B19_RS50850&lt;/b&gt;&lt;br&gt;oxidoreductase&lt;br&gt;Location: 9953165 - 9953348" locus_tag="A7B19_RS50850" points="35,90 37,85 35,80 35,90 "  />
</g>
<g id="a1_004"  >
<polygon style="fill:white; stroke-width:1; stroke:black; " id="dummy-1_h1_7_4" class="clusterblast-orf" description="&lt;b&gt;A7B19_RS42340&lt;/b&gt;&lt;br&gt;flavin reductase family protein&lt;br&gt;Location: 9953882 - 9954511" locus_tag="A7B19_RS42340" points="42,90 43,90 48,85 43,80 42,80 42,90 "  />
</g>
<g id="a1_005"  >
<polygon style="fill:white; stroke-width:1; stroke:black; " id="dummy-1_h1_7_5" class="clusterblast-orf" description="&lt;b&gt;A7B19_RS42345&lt;/b&gt;&lt;br&gt;HAD family hydrolase&lt;br&gt;Location: 9954516 - 9955157" locus_tag="A7B19_RS42345" points="48,90 50,90 55,85 50,80 48,80 48,90 "  />
</g>
<g id="a1_006"  >
<polygon style="fill:#15d89b; stroke-width:1; stroke:black; " id="dummy-1_h1_7_6" class="clusterblast-orf" description="&lt;b&gt;A7B19_RS42350&lt;/b&gt;&lt;br&gt;undecaprenyl-diphosphate phosphatase&lt;br&gt;Location: 9955373 - 9956245&lt;br&gt;&lt;br&gt;&lt;b&gt;BlastP hit with cds90768_91641&lt;/b&gt;&lt;br&gt;Percentage identity: 75&lt;br&gt;Percentage coverage: 100&lt;br&gt;BLAST bit score: 430&lt;br&gt;E-value: 1.4e-118" locus_tag="A7B19_RS42350" points="57,85 62,80 66,80 66,90 62,90 57,85 "  />
</g>
<g id="a1_007"  >
<polygon style="fill:#4915d8; stroke-width:1; stroke:black; " id="dummy-1_h1_7_7" class="clusterblast-orf" description="&lt;b&gt;A7B19_RS42355&lt;/b&gt;&lt;br&gt;TVP38/TMEM64 family protein&lt;br&gt;Location: 9956411 - 9957136&lt;br&gt;&lt;br&gt;&lt;b&gt;BlastP hit with cds91810_92533&lt;/b&gt;&lt;br&gt;Percentage identity: 67&lt;br&gt;Percentage coverage: 94&lt;br&gt;BLAST bit score: 284&lt;br&gt;E-value: 9.9e-75" locus_tag="A7B19_RS42355" points="67,85 72,80 75,80 75,90 72,90 67,85 "  />
</g>
<g id="a1_008"  >
<polygon style="fill:#a5d815; stroke-width:1; stroke:black; " id="dummy-1_h1_7_8" class="clusterblast-orf" description="&lt;b&gt;A7B19_RS42360&lt;/b&gt;&lt;br&gt;elongation factor Tu&lt;br&gt;Location: 9957575 - 9958759&lt;br&gt;&lt;br&gt;&lt;b&gt;BlastP hit with cds93658_94834&lt;/b&gt;&lt;br&gt;Percentage identity: 90&lt;br&gt;Percentage coverage: 98&lt;br&gt;BLAST bit score: 678&lt;br&gt;E-value: 5e-193" locus_tag="A7B19_RS42360" points="79,90 86,90 91,85 86,80 79,80 79,90 "  />
</g>
<g id="a1_009"  >
<polygon style="fill:#15d8b9; stroke-width:1; stroke:black; " id="dummy-1_h1_7_9" class="clusterblast-orf" description="&lt;b&gt;A7B19_RS42365&lt;/b&gt;&lt;br&gt;hypothetical protein&lt;br&gt;Location: 9958838 - 9959695&lt;br&gt;&lt;br&gt;&lt;b&gt;BlastP hit with cds94867_95743&lt;/b&gt;&lt;br&gt;Percentage identity: 73&lt;br&gt;Percentage coverage: 98&lt;br&gt;BLAST bit score: 397&lt;br&gt;E-value: 1.3e-108" locus_tag="A7B19_RS42365" points="92,90 95,90 100,85 95,80 92,80 92,90 "  />
</g>
<g id="a1_0010"  >
<polygon style="fill:white; stroke-width:1; stroke:black; " id="dummy-1_h1_7_10" class="clusterblast-orf" description="&lt;b&gt;A7B19_RS42370&lt;/b&gt;&lt;br&gt;MFS transporter&lt;br&gt;Location: 9959719 - 9961014" locus_tag="A7B19_RS42370" points="101,85 106,80 114,80 114,90 106,90 101,85 "  />
</g>
<g id="a1_0011"  >
<polygon style="fill:#6715d8; stroke-width:1; stroke:black; " id="dummy-1_h1_7_11" class="clusterblast-orf" description="&lt;b&gt;A7B19_RS42375&lt;/b&gt;&lt;br&gt;hypothetical protein&lt;br&gt;Location: 9961074 - 9962144&lt;br&gt;&lt;br&gt;&lt;b&gt;BlastP hit with cds95800_96898&lt;/b&gt;&lt;br&gt;Percentage identity: 49&lt;br&gt;Percentage coverage: 53&lt;br&gt;BLAST bit score: 177&lt;br&gt;E-value: 2.6e-42" locus_tag="A7B19_RS42375" points="114,85 119,80 125,80 125,90 119,90 114,85 "  />
</g>
<g id="a1_0012"  >
<polygon style="fill:#d81534; stroke-width:1; stroke:black; " id="dummy-1_h1_7_12" class="clusterblast-orf" description="&lt;b&gt;A7B19_RS42380&lt;/b&gt;&lt;br&gt;DUF4442 domain-containing protein&lt;br&gt;Location: 9962229 - 9962681&lt;br&gt;&lt;br&gt;&lt;b&gt;BlastP hit with cds97019_97457&lt;/b&gt;&lt;br&gt;Percentage identity: 80&lt;br&gt;Percentage coverage: 98&lt;br&gt;BLAST bit score: 228&lt;br&gt;E-value: 3.9e-58" locus_tag="A7B19_RS42380" points="126,90 130,85 126,80 126,90 "  />
</g>
<g id="a1_0013"  >
<polygon style="fill:white; stroke-width:1; stroke:black; " id="dummy-1_h1_7_13" class="clusterblast-orf" description="&lt;b&gt;A7B19_RS42385&lt;/b&gt;&lt;br&gt;DedA family protein&lt;br&gt;Location: 9962863 - 9963540" locus_tag="A7B19_RS42385" points="132,90 134,90 139,85 134,80 132,80 132,90 "  />
</g>
<g id="a1_0014"  >
<polygon style="fill:#86d815; stroke-width:1; stroke:black; " id="dummy-1_h1_7_14" class="clusterblast-orf" description="&lt;b&gt;A7B19_RS42390&lt;/b&gt;&lt;br&gt;gamma carbonic anhydrase family protein&lt;br&gt;Location: 9963564 - 9964109&lt;br&gt;&lt;br&gt;&lt;b&gt;BlastP hit with cds97568_98099&lt;/b&gt;&lt;br&gt;Percentage identity: 77&lt;br&gt;Percentage coverage: 99&lt;br&gt;BLAST bit score: 203&lt;br&gt;E-value: 1.3e-50" locus_tag="A7B19_RS42390" points="139,85 144,80 145,80 145,90 144,90 139,85 "  />
</g>
<g id="a1_0015"  >
<polygon style="fill:white; stroke-width:1; stroke:black; " id="dummy-1_h1_7_15" class="clusterblast-orf" description="&lt;b&gt;A7B19_RS42395&lt;/b&gt;&lt;br&gt;EamA family transporter&lt;br&gt;Location: 9964149 - 9965015" locus_tag="A7B19_RS42395" points="145,85 150,80 154,80 154,90 150,90 145,85 "  />
</g>
<g id="a1_0016"  >
<polygon style="fill:white; stroke-width:1; stroke:black; " id="dummy-1_h1_7_16" class="clusterblast-orf" description="&lt;b&gt;A7B19_RS42400&lt;/b&gt;&lt;br&gt;helix-turn-helix domain-containing protein&lt;br&gt;Location: 9965131 - 9965703" locus_tag="A7B19_RS42400" points="155,90 156,90 161,85 156,80 155,80 155,90 "  />
</g>
<g id="a1_0017"  >
<polygon style="fill:white; stroke-width:1; stroke:black; " id="dummy-1_h1_7_17" class="clusterblast-orf" description="&lt;b&gt;A7B19_RS42405&lt;/b&gt;&lt;br&gt;hypothetical protein&lt;br&gt;Location: 9965748 - 9966302" locus_tag="A7B19_RS42405" points="161,90 162,90 167,85 162,80 161,80 161,90 "  />
</g>
<g id="a1_0018"  >
<polygon style="fill:white; stroke-width:1; stroke:black; " id="dummy-1_h1_7_18" class="clusterblast-orf" description="&lt;b&gt;A7B19_RS42410&lt;/b&gt;&lt;br&gt;GNAT family N-acetyltransferase&lt;br&gt;Location: 9966306 - 9966791" locus_tag="A7B19_RS42410" points="167,85 172,80 172,80 172,90 172,90 167,85 "  />
</g>
<g id="a1_0019"  >
<polygon style="fill:white; stroke-width:1; stroke:black; " id="dummy-1_h1_7_19" class="clusterblast-orf" description="&lt;b&gt;A7B19_RS42415&lt;/b&gt;&lt;br&gt;CoA-binding protein&lt;br&gt;Location: 9966833 - 9967243" locus_tag="A7B19_RS42415" points="172,85 176,80 176,90 172,85 "  />
</g>
<g id="a1_0020"  >
<polygon style="fill:#153ed8; stroke-width:1; stroke:black; " id="dummy-1_h1_7_20" class="clusterblast-orf" description="&lt;b&gt;A7B19_RS42420&lt;/b&gt;&lt;br&gt;MbtH family NRPS accessory protein&lt;br&gt;Location: 9967333 - 9967539&lt;br&gt;&lt;br&gt;&lt;b&gt;BlastP hit with cds79654_79861&lt;/b&gt;&lt;br&gt;Percentage identity: 55&lt;br&gt;Percentage coverage: 96&lt;br&gt;BLAST bit score: 77&lt;br&gt;E-value: 4e-13" locus_tag="A7B19_RS42420" points="177,85 179,80 179,90 177,85 "  />
</g>
<g id="a1_0021"  >
<polygon style="fill:white; stroke-width:1; stroke:black; " id="dummy-1_h1_7_21" class="clusterblast-orf" description="&lt;b&gt;A7B19_RS42425&lt;/b&gt;&lt;br&gt;MFS transporter&lt;br&gt;Location: 9967573 - 9968850" locus_tag="A7B19_RS42425" points="180,85 185,80 192,80 192,90 185,90 180,85 "  />
</g>
<g id="a1_0022"  >
<polygon style="fill:#d89015; stroke-width:1; stroke:black; " id="dummy-1_h1_7_22" class="clusterblast-orf" description="&lt;b&gt;A7B19_RS42430&lt;/b&gt;&lt;br&gt;non-ribosomal peptide synthetase&lt;br&gt;Location: 9968847 - 9988826&lt;br&gt;&lt;br&gt;&lt;b&gt;BlastP hit with cds69112_73024&lt;/b&gt;&lt;br&gt;Percentage identity: 42&lt;br&gt;Percentage coverage: 83&lt;br&gt;BLAST bit score: 678&lt;br&gt;E-value: 1.3e-192&lt;br&gt;&lt;br&gt;&lt;b&gt;BlastP hit with cds73088_79454&lt;/b&gt;&lt;br&gt;Percentage identity: 39&lt;br&gt;Percentage coverage: 103&lt;br&gt;BLAST bit score: 1147&lt;br&gt;E-value: 0.0" locus_tag="A7B19_RS42430" points="192,85 197,80 393,80 393,90 197,90 192,85 "  />
</g>
<g id="a1_0023"  >
<polygon style="fill:#d89015; stroke-width:1; stroke:black; " id="dummy-1_h1_7_23" class="clusterblast-orf" description="&lt;b&gt;A7B19_RS42435&lt;/b&gt;&lt;br&gt;non-ribosomal peptide synthetase&lt;br&gt;Location: 9988838 - 10007509&lt;br&gt;&lt;br&gt;&lt;b&gt;BlastP hit with cds62949_65391&lt;/b&gt;&lt;br&gt;Percentage identity: 33&lt;br&gt;Percentage coverage: 27&lt;br&gt;BLAST bit score: 68&lt;br&gt;E-value: 2.9e-09&lt;br&gt;&lt;br&gt;&lt;b&gt;BlastP hit with cds65392_67207&lt;/b&gt;&lt;br&gt;Percentage identity: 34&lt;br&gt;Percentage coverage: 96&lt;br&gt;BLAST bit score: 252&lt;br&gt;E-value: 1.4e-64&lt;br&gt;&lt;br&gt;&lt;b&gt;BlastP hit with cds69112_73024&lt;/b&gt;&lt;br&gt;Percentage identity: 41&lt;br&gt;Percentage coverage: 84&lt;br&gt;BLAST bit score: 642&lt;br&gt;E-value: 1e-181&lt;br&gt;&lt;br&gt;&lt;b&gt;BlastP hit with cds73088_79454&lt;/b&gt;&lt;br&gt;Percentage identity: 43&lt;br&gt;Percentage coverage: 81&lt;br&gt;BLAST bit score: 1143&lt;br&gt;E-value: 0.0" locus_tag="A7B19_RS42435" points="393,85 398,80 581,80 581,90 398,90 393,85 "  />
</g>
<g id="a1_0024"  >
<polygon style="fill:white; stroke-width:1; stroke:black; " id="dummy-1_h1_7_24" class="clusterblast-orf" description="&lt;b&gt;A7B19_RS42440&lt;/b&gt;&lt;br&gt;serine hydrolase&lt;br&gt;Location: 10007632 - 10009191" locus_tag="A7B19_RS42440" points="582,85 587,80 598,80 598,90 587,90 582,85 "  />
</g>
<g id="a1_0025"  >
<polygon style="fill:white; stroke-width:1; stroke:black; " id="dummy-1_h1_7_25" class="clusterblast-orf" description="&lt;b&gt;A7B19_RS50855&lt;/b&gt;&lt;br&gt;copper amine oxidase&lt;br&gt;Location: 10009046 - 10010245" locus_tag="A7B19_RS50855" points="596,85 601,80 608,80 608,90 601,90 596,85 "  />
</g>
<g id="a1_0026"  >
<polygon style="fill:white; stroke-width:1; stroke:black; " id="dummy-1_h1_7_26" class="clusterblast-orf" description="&lt;b&gt;A7B19_RS50860&lt;/b&gt;&lt;br&gt;hypothetical protein&lt;br&gt;Location: 10010260 - 10011102" locus_tag="A7B19_RS50860" points="609,85 614,80 617,80 617,90 614,90 609,85 "  />
</g>
<g id="a1_0027"  >
<polygon style="fill:white; stroke-width:1; stroke:black; " id="dummy-1_h1_7_27" class="clusterblast-orf" description="&lt;b&gt;A7B19_RS48630&lt;/b&gt;&lt;br&gt;helix-hairpin-helix domain-containing protein&lt;br&gt;Location: 10011480 - 10011887" locus_tag="A7B19_RS48630" points="621,90 625,85 621,80 621,90 "  />
</g>
<g id="a1_0028"  >
<polygon style="fill:white; stroke-width:1; stroke:black; " id="dummy-1_h1_7_28" class="clusterblast-orf" description="&lt;b&gt;A7B19_RS42455&lt;/b&gt;&lt;br&gt;hypothetical protein&lt;br&gt;Location: 10012032 - 10012310" locus_tag="A7B19_RS42455" points="626,90 629,85 626,80 626,90 "  />
</g>
<g id="a1_0029"  >
<polygon style="fill:white; stroke-width:1; stroke:black; " id="dummy-1_h1_7_29" class="clusterblast-orf" description="&lt;b&gt;A7B19_RS42460&lt;/b&gt;&lt;br&gt;YigZ family protein&lt;br&gt;Location: 10012331 - 10012960" locus_tag="A7B19_RS42460" points="629,90 631,90 636,85 631,80 629,80 629,90 "  />
</g>
<g id="a1_0030"  >
<polygon style="fill:white; stroke-width:1; stroke:black; " id="dummy-1_h1_7_30" class="clusterblast-orf" description="&lt;b&gt;A7B19_RS42465&lt;/b&gt;&lt;br&gt;HAMP domain-containing protein&lt;br&gt;Location: 10013006 - 10014502" locus_tag="A7B19_RS42465" points="636,85 641,80 651,80 651,90 641,90 636,85 "  />
</g>
<g id="a1_0031"  >
<polygon style="fill:white; stroke-width:1; stroke:black; " id="dummy-1_h1_7_31" class="clusterblast-orf" description="&lt;b&gt;A7B19_RS42470&lt;/b&gt;&lt;br&gt;response regulator transcription factor&lt;br&gt;Location: 10014499 - 10015287" locus_tag="A7B19_RS42470" points="651,85 656,80 659,80 659,90 656,90 651,85 "  />
</g>
<g id="a1_0032"  >
<polygon style="fill:white; stroke-width:1; stroke:black; " id="dummy-1_h1_7_32" class="clusterblast-orf" description="&lt;b&gt;A7B19_RS42475&lt;/b&gt;&lt;br&gt;carbonic anhydrase&lt;br&gt;Location: 10015463 - 10016065" locus_tag="A7B19_RS42475" points="661,90 662,90 667,85 662,80 661,80 661,90 "  />
</g>
<g id="a1_0033"  >
<polygon style="fill:white; stroke-width:1; stroke:black; " id="dummy-1_h1_7_33" class="clusterblast-orf" description="&lt;b&gt;A7B19_RS42480&lt;/b&gt;&lt;br&gt;transmembrane sulfate transporter&lt;br&gt;Location: 10016422 - 10018158" locus_tag="A7B19_RS42480" points="671,90 683,90 688,85 683,80 671,80 671,90 "  />
</g>
<g id="a1_0034"  >
<polygon style="fill:white; stroke-width:1; stroke:black; " id="dummy-1_h1_7_34" class="clusterblast-orf" description="&lt;b&gt;A7B19_RS42485&lt;/b&gt;&lt;br&gt;exonuclease subunit SbcD&lt;br&gt;Location: 10018311 - 10019470" locus_tag="A7B19_RS42485" points="689,90 696,90 701,85 696,80 689,80 689,90 "  />
</g>
<g id="a1_0035"  >
<polygon style="fill:white; stroke-width:1; stroke:black; " id="dummy-1_h1_7_35" class="clusterblast-orf" description="&lt;b&gt;A7B19_RS42490&lt;/b&gt;&lt;br&gt;SMC family ATPase&lt;br&gt;Location: 10019467 - 10022586" locus_tag="A7B19_RS42490" points="701,90 727,90 732,85 727,80 701,80 701,90 "  />
</g>
<g id="a1_0036"  >
<polygon style="fill:white; stroke-width:1; stroke:black; " id="dummy-1_h1_7_36" class="clusterblast-orf" description="&lt;b&gt;A7B19_RS42495&lt;/b&gt;&lt;br&gt;GNAT family N-acetyltransferase&lt;br&gt;Location: 10022588 - 10023064" locus_tag="A7B19_RS42495" points="732,85 737,80 737,80 737,90 737,90 732,85 "  />
</g>
<g id="a1_0037"  >
<polygon style="fill:white; stroke-width:1; stroke:black; " id="dummy-1_h1_7_37" class="clusterblast-orf" description="&lt;b&gt;A7B19_RS42500&lt;/b&gt;&lt;br&gt;ATP-grasp domain-containing protein&lt;br&gt;Location: 10023191 - 10024075" locus_tag="A7B19_RS42500" points="739,85 744,80 747,80 747,90 744,90 739,85 "  />
</g>
<g id="a1_0038"  >
<polygon style="fill:white; stroke-width:1; stroke:black; " id="dummy-1_h1_7_38" class="clusterblast-orf" description="&lt;b&gt;A7B19_RS42505&lt;/b&gt;&lt;br&gt;DUF885 domain-containing protein&lt;br&gt;Location: 10024152 - 10025834" locus_tag="A7B19_RS42505" points="748,85 753,80 765,80 765,90 753,90 748,85 "  />
</g>
<g id="a1_0039"  >
<polygon style="fill:white; stroke-width:1; stroke:black; " id="dummy-1_h1_7_39" class="clusterblast-orf" description="&lt;b&gt;A7B19_RS42510&lt;/b&gt;&lt;br&gt;GNAT family N-acetyltransferase&lt;br&gt;Location: 10025984 - 10027267" locus_tag="A7B19_RS42510" points="767,85 772,80 780,80 780,90 772,90 767,85 "  />
</g>
</svg>
