<svg xmlns:xlink="http://www.w3.org/1999/xlink" x="0" preserveAspectRatio="none" version="1.1" height="230" viewBox="0 0 800 230" y="0" xmlns="http://www.w3.org/2000/svg" width="800"  >
<g label="Query sequence" class="clusterblast-cluster"  >
<text class="clusterblast-acc" x="5" y="20"  >
Query sequence</text>
<line y2="35" x1="10" style="stroke-width:1; stroke:grey; " y1="35" x2="778.0"  />
<polygon style="fill:white; stroke-width:1; stroke:black; " id="dummy-1_q0_0_all" class="clusterblast-orf" description="&lt;b&gt;cds71147_71858&lt;/b&gt;&lt;br&gt;protein dithiol-disulfide isomerase&lt;br&gt;Location: 71147 - 71858" locus_tag="cds71147_71858" points="9,40 60,40 65,35 60,30 9,30 9,40 "  />
<polygon style="fill:#d81515; stroke-width:1; stroke:black; " id="dummy-1_q1_0_all" class="clusterblast-orf" description="&lt;b&gt;cds71927_72986&lt;/b&gt;&lt;br&gt;Cysteine desulfurase (EC 2.8.1.7)&lt;br&gt;Location: 71927 - 72986" locus_tag="cds71927_72986" points="70,40 148,40 153,35 148,30 70,30 70,40 "  />
<polygon style="fill:#3cd815; stroke-width:1; stroke:black; " id="dummy-1_q2_0_all" class="clusterblast-orf" description="&lt;b&gt;cds73060_73198&lt;/b&gt;&lt;br&gt;Transcriptional regulator, MarR family&lt;br&gt;Location: 73060 - 73198" locus_tag="cds73060_73198" points="158,35 163,30 169,30 169,40 163,40 158,35 "  />
<polygon style="fill:#1563d8; stroke-width:1; stroke:black; " id="dummy-1_q3_0_all" class="clusterblast-orf" description="&lt;b&gt;cds73296_73689&lt;/b&gt;&lt;br&gt;NADH:flavin oxidoreductase/NADH oxidase&lt;br&gt;Location: 73296 - 73689" locus_tag="cds73296_73689" points="177,40 202,40 207,35 202,30 177,30 177,40 "  />
<polygon style="fill:#b115d8; stroke-width:1; stroke:black; " id="dummy-1_q4_0_all" class="clusterblast-orf" description="&lt;b&gt;cds73759_74794&lt;/b&gt;&lt;br&gt;hypothetical protein&lt;br&gt;Location: 73759 - 74794" locus_tag="cds73759_74794" points="213,35 218,30 294,30 294,40 218,40 213,35 "  />
<polygon style="fill:#d88a15; stroke-width:1; stroke:black; " id="dummy-1_q5_0_all" class="clusterblast-orf" description="&lt;b&gt;cds74939_75833&lt;/b&gt;&lt;br&gt;Ectoine hydroxylase&lt;br&gt;Location: 74939 - 75833" locus_tag="cds74939_75833" points="305,35 310,30 375,30 375,40 310,40 305,35 "  />
<polygon style="fill:#15d863; stroke-width:1; stroke:black; " id="dummy-1_q6_0_all" class="clusterblast-orf" description="&lt;b&gt;cds75836_76235&lt;/b&gt;&lt;br&gt;L-ectoine synthase (EC 4.2.1.108)&lt;br&gt;Location: 75836 - 76235" locus_tag="cds75836_76235" points="375,35 380,30 406,30 406,40 380,40 375,35 "  />
<polygon style="fill:#3c15d8; stroke-width:1; stroke:black; " id="dummy-1_q7_0_all" class="clusterblast-orf" description="&lt;b&gt;cds76324_77587&lt;/b&gt;&lt;br&gt;Diaminobutyrate--2-oxoglutarate transaminase (EC 2.6.1.76)&lt;br&gt;Location: 76324 - 77587" locus_tag="cds76324_77587" points="413,35 418,30 511,30 511,40 418,40 413,35 "  />
<polygon style="fill:#d8158a; stroke-width:1; stroke:black; " id="dummy-1_q8_0_all" class="clusterblast-orf" description="&lt;b&gt;cds77740_78205&lt;/b&gt;&lt;br&gt;L-2,4-diaminobutyric acid acetyltransferase (EC 2.3.1.178)&lt;br&gt;Location: 77740 - 78205" locus_tag="cds77740_78205" points="523,35 528,30 559,30 559,40 528,40 523,35 "  />
<polygon style="fill:#b1d815; stroke-width:1; stroke:black; " id="dummy-1_q9_0_all" class="clusterblast-orf" description="&lt;b&gt;cds78578_79685&lt;/b&gt;&lt;br&gt;putative aspartate aminotransferase&lt;br&gt;Location: 78578 - 79685" locus_tag="cds78578_79685" points="588,35 593,30 675,30 675,40 593,40 588,35 "  />
<polygon style="fill:#15d8d8; stroke-width:1; stroke:black; " id="dummy-1_q10_0_all" class="clusterblast-orf" description="&lt;b&gt;cds79845_80922&lt;/b&gt;&lt;br&gt;Xaa-Pro dipeptidase (EC 3.4.13.9)&lt;br&gt;Location: 79845 - 80922" locus_tag="cds79845_80922" points="687,40 766,40 771,35 766,30 687,30 687,40 "  />
</g>
<g label="NZ_NNBN01000016" class="clusterblast-cluster" description="NZ_NNBN01000016 (68219-78618): Streptomyces sp. CB02613 scaffold16, whole gen... (100% of genes show similarity), ectoine"  >
<text class="clusterblast-acc" x="5" y="70"  >
<a xlink:href="https://antismash-db.secondarymetabolites.org/area.html?record=NZ_NNBN01000016&amp;start=68219&amp;end=78618" target="_blank">NZ_NNBN01000016 (68219-78618)</a>: Streptomyces sp. CB02613 scaffold16, whole gen... (100% of genes show similarity), ectoine</text>
<line y2="85" x1="10" style="stroke-width:1; stroke:grey; " y1="85" x2="778.0"  />
</g>
<g id="a1_000"  >
<polygon style="fill:#d81515; stroke-width:1; stroke:black; " id="dummy-1_h1_1_0" class="clusterblast-orf" description="&lt;b&gt;CG717_RS31090&lt;/b&gt;&lt;br&gt;aminotransferase class V-fold PLP-dependent enzyme&lt;br&gt;Location: 78543 - 77485&lt;br&gt;&lt;br&gt;&lt;b&gt;BlastP hit with cds71927_72986&lt;/b&gt;&lt;br&gt;Percentage identity: 98&lt;br&gt;Percentage coverage: 100&lt;br&gt;BLAST bit score: 665&lt;br&gt;E-value: 2.3e-189" locus_tag="CG717_RS31090" points="0,90 77,90 82,85 77,80 0,80 0,90 "  />
</g>
<g id="a1_001"  >
<polygon style="fill:#3cd815; stroke-width:1; stroke:black; " id="dummy-1_h1_1_1" class="clusterblast-orf" description="&lt;b&gt;CG717_RS31085&lt;/b&gt;&lt;br&gt;winged helix-turn-helix transcriptional regulator&lt;br&gt;Location: 77410 - 76895&lt;br&gt;&lt;br&gt;&lt;b&gt;BlastP hit with cds73060_73198&lt;/b&gt;&lt;br&gt;Percentage identity: 97&lt;br&gt;Percentage coverage: 78&lt;br&gt;BLAST bit score: 68&lt;br&gt;E-value: 2.1e-10" locus_tag="CG717_RS31085" points="88,85 93,80 128,80 128,90 93,90 88,85 "  />
</g>
<g id="a1_002"  >
<polygon style="fill:#1563d8; stroke-width:1; stroke:black; " id="dummy-1_h1_1_2" class="clusterblast-orf" description="&lt;b&gt;CG717_RS31080&lt;/b&gt;&lt;br&gt;alkene reductase&lt;br&gt;Location: 76696 - 75626&lt;br&gt;&lt;br&gt;&lt;b&gt;BlastP hit with cds73296_73689&lt;/b&gt;&lt;br&gt;Percentage identity: 95&lt;br&gt;Percentage coverage: 84&lt;br&gt;BLAST bit score: 207&lt;br&gt;E-value: 8.4e-52" locus_tag="CG717_RS31080" points="143,90 222,90 227,85 222,80 143,80 143,90 "  />
</g>
<g id="a1_003"  >
<polygon style="fill:#b115d8; stroke-width:1; stroke:black; " id="dummy-1_h1_1_3" class="clusterblast-orf" description="&lt;b&gt;CG717_RS31075&lt;/b&gt;&lt;br&gt;VOC family protein&lt;br&gt;Location: 75650 - 74616&lt;br&gt;&lt;br&gt;&lt;b&gt;BlastP hit with cds73759_74794&lt;/b&gt;&lt;br&gt;Percentage identity: 97&lt;br&gt;Percentage coverage: 100&lt;br&gt;BLAST bit score: 700&lt;br&gt;E-value: 1.1e-199" locus_tag="CG717_RS31075" points="225,85 230,80 306,80 306,90 230,90 225,85 "  />
</g>
<g id="a1_004"  >
<polygon style="fill:#d88a15; stroke-width:1; stroke:black; " id="dummy-1_h1_1_4" class="clusterblast-orf" description="&lt;b&gt;CG717_RS31070&lt;/b&gt;&lt;br&gt;ectoine hydroxylase&lt;br&gt;Location: 74515 - 73622&lt;br&gt;&lt;br&gt;&lt;b&gt;BlastP hit with cds74939_75833&lt;/b&gt;&lt;br&gt;Percentage identity: 99&lt;br&gt;Percentage coverage: 100&lt;br&gt;BLAST bit score: 602&lt;br&gt;E-value: 1.6e-170" locus_tag="CG717_RS31070" points="313,85 318,80 383,80 383,90 318,90 313,85 "  />
</g>
<g id="a1_005"  >
<polygon style="fill:#15d863; stroke-width:1; stroke:black; " id="dummy-1_h1_1_5" class="clusterblast-orf" description="&lt;b&gt;CG717_RS31065&lt;/b&gt;&lt;br&gt;ectoine synthase&lt;br&gt;Location: 73618 - 73220&lt;br&gt;&lt;br&gt;&lt;b&gt;BlastP hit with cds75836_76235&lt;/b&gt;&lt;br&gt;Percentage identity: 100&lt;br&gt;Percentage coverage: 100&lt;br&gt;BLAST bit score: 284&lt;br&gt;E-value: 5.5e-75" locus_tag="CG717_RS31065" points="383,85 388,80 414,80 414,90 388,90 383,85 "  />
</g>
<g id="a1_006"  >
<polygon style="fill:#3c15d8; stroke-width:1; stroke:black; " id="dummy-1_h1_1_6" class="clusterblast-orf" description="&lt;b&gt;CG717_RS31060&lt;/b&gt;&lt;br&gt;diaminobutyrate--2-oxoglutarate transaminase&lt;br&gt;Location: 73130 - 71868&lt;br&gt;&lt;br&gt;&lt;b&gt;BlastP hit with cds76324_77587&lt;/b&gt;&lt;br&gt;Percentage identity: 100&lt;br&gt;Percentage coverage: 100&lt;br&gt;BLAST bit score: 856&lt;br&gt;E-value: 1.1e-246" locus_tag="CG717_RS31060" points="421,85 426,80 520,80 520,90 426,90 421,85 "  />
</g>
<g id="a1_007"  >
<polygon style="fill:#d8158a; stroke-width:1; stroke:black; " id="dummy-1_h1_1_7" class="clusterblast-orf" description="&lt;b&gt;CG717_RS31055&lt;/b&gt;&lt;br&gt;diaminobutyrate acetyltransferase&lt;br&gt;Location: 71714 - 71184&lt;br&gt;&lt;br&gt;&lt;b&gt;BlastP hit with cds77740_78205&lt;/b&gt;&lt;br&gt;Percentage identity: 99&lt;br&gt;Percentage coverage: 100&lt;br&gt;BLAST bit score: 309&lt;br&gt;E-value: 1.9e-82" locus_tag="CG717_RS31055" points="532,85 537,80 573,80 573,90 537,90 532,85 "  />
</g>
<g id="a1_008"  >
<polygon style="fill:#b1d815; stroke-width:1; stroke:black; " id="dummy-1_h1_1_8" class="clusterblast-orf" description="&lt;b&gt;CG717_RS31050&lt;/b&gt;&lt;br&gt;alanine--glyoxylate aminotransferase family protein&lt;br&gt;Location: 70876 - 69770&lt;br&gt;&lt;br&gt;&lt;b&gt;BlastP hit with cds78578_79685&lt;/b&gt;&lt;br&gt;Percentage identity: 98&lt;br&gt;Percentage coverage: 100&lt;br&gt;BLAST bit score: 694&lt;br&gt;E-value: 6.4e-198" locus_tag="CG717_RS31050" points="597,85 602,80 683,80 683,90 602,90 597,85 "  />
</g>
<g id="a1_009"  >
<polygon style="fill:#15d8d8; stroke-width:1; stroke:black; " id="dummy-1_h1_1_9" class="clusterblast-orf" description="&lt;b&gt;CG717_RS31045&lt;/b&gt;&lt;br&gt;amidohydrolase family protein&lt;br&gt;Location: 69609 - 68533&lt;br&gt;&lt;br&gt;&lt;b&gt;BlastP hit with cds79845_80922&lt;/b&gt;&lt;br&gt;Percentage identity: 99&lt;br&gt;Percentage coverage: 100&lt;br&gt;BLAST bit score: 727&lt;br&gt;E-value: 6.6e-208" locus_tag="CG717_RS31045" points="696,90 775,90 780,85 775,80 696,80 696,90 "  />
</g>
</svg>
