<svg xmlns:xlink="http://www.w3.org/1999/xlink" x="0" preserveAspectRatio="none" version="1.1" height="230" viewBox="0 0 800 230" y="0" xmlns="http://www.w3.org/2000/svg" width="800"  >
<g label="Query sequence" class="clusterblast-cluster"  >
<text class="clusterblast-acc" x="5" y="20"  >
Query sequence</text>
<line y2="35" x1="10" style="stroke-width:1; stroke:grey; " y1="35" x2="778.0"  />
<polygon style="fill:#d81515; stroke-width:1; stroke:black; " id="dummy-3_q0_0_all" class="clusterblast-orf" description="&lt;b&gt;cds434043_434892&lt;/b&gt;&lt;br&gt;hypothetical protein&lt;br&gt;Location: 434043 - 434892" locus_tag="cds434043_434892" points="314,40 322,40 327,35 322,30 314,30 314,40 "  />
<polygon style="fill:#5cd815; stroke-width:1; stroke:black; " id="dummy-3_q1_0_all" class="clusterblast-orf" description="&lt;b&gt;cds434888_436388&lt;/b&gt;&lt;br&gt;hypothetical protein&lt;br&gt;Location: 434888 - 436388" locus_tag="cds434888_436388" points="327,40 345,40 350,35 345,30 327,30 327,40 "  />
<polygon style="fill:#15a3d8; stroke-width:1; stroke:black; " id="dummy-3_q2_0_all" class="clusterblast-orf" description="&lt;b&gt;cds436472_436736&lt;/b&gt;&lt;br&gt;hypothetical protein&lt;br&gt;Location: 436472 - 436736" locus_tag="cds436472_436736" points="351,40 355,35 351,30 351,40 "  />
<polygon style="fill:#c715d8; stroke-width:1; stroke:black; " id="dummy-3_q3_0_all" class="clusterblast-orf" description="&lt;b&gt;cds436739_437756&lt;/b&gt;&lt;br&gt;hypothetical protein&lt;br&gt;Location: 436739 - 437756" locus_tag="cds436739_437756" points="355,40 366,40 371,35 366,30 355,30 355,40 "  />
<polygon style="fill:#d88015; stroke-width:1; stroke:black; " id="dummy-3_q4_0_all" class="clusterblast-orf" description="&lt;b&gt;cds437745_438585&lt;/b&gt;&lt;br&gt;Tryptophan synthase alpha chain (EC 4.2.1.20)&lt;br&gt;Location: 437745 - 438585" locus_tag="cds437745_438585" points="371,40 379,40 384,35 379,30 371,30 371,40 "  />
<polygon style="fill:#15d839; stroke-width:1; stroke:black; " id="dummy-3_q5_0_all" class="clusterblast-orf" description="&lt;b&gt;cds438571_438946&lt;/b&gt;&lt;br&gt;L-ectoine synthase (EC 4.2.1.-)&lt;br&gt;Location: 438571 - 438946" locus_tag="cds438571_438946" points="384,40 385,40 390,35 385,30 384,30 384,40 "  />
<polygon style="fill:#1539d8; stroke-width:1; stroke:black; " id="dummy-3_q6_0_all" class="clusterblast-orf" description="&lt;b&gt;cds439076_440222&lt;/b&gt;&lt;br&gt;Butyryl-CoA dehydrogenase (EC 1.3.99.2)&lt;br&gt;Location: 439076 - 440222" locus_tag="cds439076_440222" points="392,40 404,40 409,35 404,30 392,30 392,40 "  />
<polygon style="fill:#d81580; stroke-width:1; stroke:black; " id="dummy-3_q7_0_all" class="clusterblast-orf" description="&lt;b&gt;cds440218_440920&lt;/b&gt;&lt;br&gt;hypothetical protein&lt;br&gt;Location: 440218 - 440920" locus_tag="cds440218_440920" points="409,40 415,40 420,35 415,30 409,30 409,40 "  />
<polygon style="fill:#c7d815; stroke-width:1; stroke:black; " id="dummy-3_q8_0_all" class="clusterblast-orf" description="&lt;b&gt;cds440969_441809&lt;/b&gt;&lt;br&gt;hypothetical protein&lt;br&gt;Location: 440969 - 441809" locus_tag="cds440969_441809" points="421,40 429,40 434,35 429,30 421,30 421,40 "  />
<polygon style="fill:#15d8a3; stroke-width:1; stroke:black; " id="dummy-3_q9_0_all" class="clusterblast-orf" description="&lt;b&gt;cds441805_442765&lt;/b&gt;&lt;br&gt;hypothetical protein&lt;br&gt;Location: 441805 - 442765" locus_tag="cds441805_442765" points="434,40 444,40 449,35 444,30 434,30 434,40 "  />
<polygon style="fill:#5c15d8; stroke-width:1; stroke:black; " id="dummy-3_q10_0_all" class="clusterblast-orf" description="&lt;b&gt;cds442894_443485&lt;/b&gt;&lt;br&gt;integral-membrane protein&lt;br&gt;Location: 442894 - 443485" locus_tag="cds442894_443485" points="451,40 455,40 460,35 455,30 451,30 451,40 "  />
<polygon style="fill:white; stroke-width:1; stroke:black; " id="dummy-3_q11_0_all" class="clusterblast-orf" description="&lt;b&gt;cds443481_443865&lt;/b&gt;&lt;br&gt;Mobile element protein&lt;br&gt;Location: 443481 - 443865" locus_tag="cds443481_443865" points="460,40 461,40 466,35 461,30 460,30 460,40 "  />
</g>
<g label="NZ_CP032543" class="clusterblast-cluster" description="NZ_CP032543 (6316602-6368005): Streptomyces griseus subsp. griseus strain ATC... (22% of genes show similarity), NRPS-like,arylpolyene,ectoine"  >
<text class="clusterblast-acc" x="5" y="70"  >
<a xlink:href="https://antismash-db.secondarymetabolites.org/area.html?record=NZ_CP032543&amp;start=6316602&amp;end=6368005" target="_blank">NZ_CP032543 (6316602-6368005)</a>: Streptomyces griseus subsp. griseus strain ATC... (22% of genes show similarity), NRPS-like,arylpolyene,ectoine</text>
<line y2="85" x1="10" style="stroke-width:1; stroke:grey; " y1="85" x2="778.0"  />
</g>
<g id="a3_000"  >
<polygon style="fill:#d81515; stroke-width:1; stroke:black; " id="dummy-3_h3_4_0" class="clusterblast-orf" description="&lt;b&gt;D6270_RS28355&lt;/b&gt;&lt;br&gt;hypothetical protein&lt;br&gt;Location: 6317081 - 6317929&lt;br&gt;&lt;br&gt;&lt;b&gt;BlastP hit with cds434043_434892&lt;/b&gt;&lt;br&gt;Percentage identity: 95&lt;br&gt;Percentage coverage: 100&lt;br&gt;BLAST bit score: 517&lt;br&gt;E-value: 6.3e-145" locus_tag="D6270_RS28355" points="0,90 8,90 13,85 8,80 0,80 0,90 "  />
</g>
<g id="a3_001"  >
<polygon style="fill:#5cd815; stroke-width:1; stroke:black; " id="dummy-3_h3_4_1" class="clusterblast-orf" description="&lt;b&gt;D6270_RS28360&lt;/b&gt;&lt;br&gt;AMP-binding protein&lt;br&gt;Location: 6317926 - 6319422&lt;br&gt;&lt;br&gt;&lt;b&gt;BlastP hit with cds434888_436388&lt;/b&gt;&lt;br&gt;Percentage identity: 93&lt;br&gt;Percentage coverage: 100&lt;br&gt;BLAST bit score: 920&lt;br&gt;E-value: 9.7e-266" locus_tag="D6270_RS28360" points="13,90 31,90 36,85 31,80 13,80 13,90 "  />
</g>
<g id="a3_002"  >
<polygon style="fill:#15a3d8; stroke-width:1; stroke:black; " id="dummy-3_h3_4_2" class="clusterblast-orf" description="&lt;b&gt;D6270_RS28365&lt;/b&gt;&lt;br&gt;acyl carrier protein&lt;br&gt;Location: 6319504 - 6319767&lt;br&gt;&lt;br&gt;&lt;b&gt;BlastP hit with cds436472_436736&lt;/b&gt;&lt;br&gt;Percentage identity: 98&lt;br&gt;Percentage coverage: 100&lt;br&gt;BLAST bit score: 171&lt;br&gt;E-value: 4.4e-41" locus_tag="D6270_RS28365" points="37,90 41,85 37,80 37,90 "  />
</g>
<g id="a3_003"  >
<polygon style="fill:#c715d8; stroke-width:1; stroke:black; " id="dummy-3_h3_4_3" class="clusterblast-orf" description="&lt;b&gt;D6270_RS28370&lt;/b&gt;&lt;br&gt;hypothetical protein&lt;br&gt;Location: 6319771 - 6320787&lt;br&gt;&lt;br&gt;&lt;b&gt;BlastP hit with cds436739_437756&lt;/b&gt;&lt;br&gt;Percentage identity: 95&lt;br&gt;Percentage coverage: 100&lt;br&gt;BLAST bit score: 619&lt;br&gt;E-value: 1.4e-175" locus_tag="D6270_RS28370" points="41,90 52,90 57,85 52,80 41,80 41,90 "  />
</g>
<g id="a3_004"  >
<polygon style="fill:#d88015; stroke-width:1; stroke:black; " id="dummy-3_h3_4_4" class="clusterblast-orf" description="&lt;b&gt;D6270_RS28375&lt;/b&gt;&lt;br&gt;tryptophan synthase subunit alpha&lt;br&gt;Location: 6320777 - 6321616&lt;br&gt;&lt;br&gt;&lt;b&gt;BlastP hit with cds437745_438585&lt;/b&gt;&lt;br&gt;Percentage identity: 93&lt;br&gt;Percentage coverage: 100&lt;br&gt;BLAST bit score: 496&lt;br&gt;E-value: 1.9e-138" locus_tag="D6270_RS28375" points="57,90 65,90 70,85 65,80 57,80 57,90 "  />
</g>
<g id="a3_005"  >
<polygon style="fill:#15d839; stroke-width:1; stroke:black; " id="dummy-3_h3_4_5" class="clusterblast-orf" description="&lt;b&gt;D6270_RS28380&lt;/b&gt;&lt;br&gt;cupin domain-containing protein&lt;br&gt;Location: 6321603 - 6321977&lt;br&gt;&lt;br&gt;&lt;b&gt;BlastP hit with cds438571_438946&lt;/b&gt;&lt;br&gt;Percentage identity: 100&lt;br&gt;Percentage coverage: 100&lt;br&gt;BLAST bit score: 261&lt;br&gt;E-value: 3.6e-68" locus_tag="D6270_RS28380" points="70,90 70,90 75,85 70,80 70,80 70,90 "  />
</g>
<g id="a3_006"  >
<polygon style="fill:#1539d8; stroke-width:1; stroke:black; " id="dummy-3_h3_4_6" class="clusterblast-orf" description="&lt;b&gt;D6270_RS28385&lt;/b&gt;&lt;br&gt;acyl-CoA dehydrogenase&lt;br&gt;Location: 6322109 - 6323254&lt;br&gt;&lt;br&gt;&lt;b&gt;BlastP hit with cds439076_440222&lt;/b&gt;&lt;br&gt;Percentage identity: 98&lt;br&gt;Percentage coverage: 100&lt;br&gt;BLAST bit score: 741&lt;br&gt;E-value: 3.6e-212" locus_tag="D6270_RS28385" points="77,90 90,90 95,85 90,80 77,80 77,90 "  />
</g>
<g id="a3_007"  >
<polygon style="fill:#d81580; stroke-width:1; stroke:black; " id="dummy-3_h3_4_7" class="clusterblast-orf" description="&lt;b&gt;D6270_RS28390&lt;/b&gt;&lt;br&gt;N-(5'-phosphoribosyl)anthranilate isomerase&lt;br&gt;Location: 6323251 - 6323952&lt;br&gt;&lt;br&gt;&lt;b&gt;BlastP hit with cds440218_440920&lt;/b&gt;&lt;br&gt;Percentage identity: 90&lt;br&gt;Percentage coverage: 100&lt;br&gt;BLAST bit score: 408&lt;br&gt;E-value: 5.8e-112" locus_tag="D6270_RS28390" points="95,90 101,90 106,85 101,80 95,80 95,90 "  />
</g>
<g id="a3_008"  >
<polygon style="fill:#c7d815; stroke-width:1; stroke:black; " id="dummy-3_h3_4_8" class="clusterblast-orf" description="&lt;b&gt;D6270_RS28395&lt;/b&gt;&lt;br&gt;indole-3-glycerol phosphate synthase&lt;br&gt;Location: 6324001 - 6324840&lt;br&gt;&lt;br&gt;&lt;b&gt;BlastP hit with cds440969_441809&lt;/b&gt;&lt;br&gt;Percentage identity: 94&lt;br&gt;Percentage coverage: 100&lt;br&gt;BLAST bit score: 502&lt;br&gt;E-value: 3.5e-140" locus_tag="D6270_RS28395" points="107,90 115,90 120,85 115,80 107,80 107,90 "  />
</g>
<g id="a3_009"  >
<polygon style="fill:#15d8a3; stroke-width:1; stroke:black; " id="dummy-3_h3_4_9" class="clusterblast-orf" description="&lt;b&gt;D6270_RS28400&lt;/b&gt;&lt;br&gt;alpha/beta hydrolase&lt;br&gt;Location: 6324984 - 6325859&lt;br&gt;&lt;br&gt;&lt;b&gt;BlastP hit with cds441805_442765&lt;/b&gt;&lt;br&gt;Percentage identity: 97&lt;br&gt;Percentage coverage: 91&lt;br&gt;BLAST bit score: 571&lt;br&gt;E-value: 5.4e-161" locus_tag="D6270_RS28400" points="122,90 130,90 135,85 130,80 122,80 122,90 "  />
</g>
<g id="a3_0010"  >
<polygon style="fill:#5c15d8; stroke-width:1; stroke:black; " id="dummy-3_h3_4_10" class="clusterblast-orf" description="&lt;b&gt;D6270_RS28405&lt;/b&gt;&lt;br&gt;DUF1772 domain-containing protein&lt;br&gt;Location: 6325989 - 6326579&lt;br&gt;&lt;br&gt;&lt;b&gt;BlastP hit with cds442894_443485&lt;/b&gt;&lt;br&gt;Percentage identity: 96&lt;br&gt;Percentage coverage: 100&lt;br&gt;BLAST bit score: 299&lt;br&gt;E-value: 1.9e-79" locus_tag="D6270_RS28405" points="138,90 142,90 147,85 142,80 138,80 138,90 "  />
</g>
<g id="a3_0011"  >
<polygon style="fill:white; stroke-width:1; stroke:black; " id="dummy-3_h3_4_11" class="clusterblast-orf" description="&lt;b&gt;D6270_RS28410&lt;/b&gt;&lt;br&gt;alpha/beta fold hydrolase&lt;br&gt;Location: 6326831 - 6328096" locus_tag="D6270_RS28410" points="151,90 165,90 170,85 165,80 151,80 151,90 "  />
</g>
<g id="a3_0012"  >
<polygon style="fill:white; stroke-width:1; stroke:black; " id="dummy-3_h3_4_12" class="clusterblast-orf" description="&lt;b&gt;D6270_RS28415&lt;/b&gt;&lt;br&gt;MBL fold metallo-hydrolase&lt;br&gt;Location: 6328109 - 6328762" locus_tag="D6270_RS28415" points="170,90 175,90 180,85 175,80 170,80 170,90 "  />
</g>
<g id="a3_0013"  >
<polygon style="fill:white; stroke-width:1; stroke:black; " id="dummy-3_h3_4_13" class="clusterblast-orf" description="&lt;b&gt;D6270_RS28420&lt;/b&gt;&lt;br&gt;exodeoxyribonuclease III&lt;br&gt;Location: 6328814 - 6329593" locus_tag="D6270_RS28420" points="181,90 188,90 193,85 188,80 181,80 181,90 "  />
</g>
<g id="a3_0014"  >
<polygon style="fill:white; stroke-width:1; stroke:black; " id="dummy-3_h3_4_14" class="clusterblast-orf" description="&lt;b&gt;D6270_RS28425&lt;/b&gt;&lt;br&gt;Clp protease&lt;br&gt;Location: 6329653 - 6330399" locus_tag="D6270_RS28425" points="194,90 201,90 206,85 201,80 194,80 194,90 "  />
</g>
<g id="a3_0015"  >
<polygon style="fill:white; stroke-width:1; stroke:black; " id="dummy-3_h3_4_15" class="clusterblast-orf" description="&lt;b&gt;D6270_RS28430&lt;/b&gt;&lt;br&gt;SDR family oxidoreductase&lt;br&gt;Location: 6330471 - 6331250" locus_tag="D6270_RS28430" points="207,85 212,80 219,80 219,90 212,90 207,85 "  />
</g>
<g id="a3_0016"  >
<polygon style="fill:white; stroke-width:1; stroke:black; " id="dummy-3_h3_4_16" class="clusterblast-orf" description="&lt;b&gt;D6270_RS28435&lt;/b&gt;&lt;br&gt;hypothetical protein&lt;br&gt;Location: 6331390 - 6331830" locus_tag="D6270_RS28435" points="221,90 223,90 228,85 223,80 221,80 221,90 "  />
</g>
<g id="a3_0017"  >
<polygon style="fill:white; stroke-width:1; stroke:black; " id="dummy-3_h3_4_17" class="clusterblast-orf" description="&lt;b&gt;D6270_RS28440&lt;/b&gt;&lt;br&gt;amino acid ABC transporter ATP-binding protein&lt;br&gt;Location: 6331948 - 6332691" locus_tag="D6270_RS28440" points="230,90 236,90 241,85 236,80 230,80 230,90 "  />
</g>
<g id="a3_0018"  >
<polygon style="fill:white; stroke-width:1; stroke:black; " id="dummy-3_h3_4_18" class="clusterblast-orf" description="&lt;b&gt;D6270_RS28445&lt;/b&gt;&lt;br&gt;glutamate ABC transporter substrate-binding protein&lt;br&gt;Location: 6332705 - 6333649" locus_tag="D6270_RS28445" points="242,90 251,90 256,85 251,80 242,80 242,90 "  />
</g>
<g id="a3_0019"  >
<polygon style="fill:white; stroke-width:1; stroke:black; " id="dummy-3_h3_4_19" class="clusterblast-orf" description="&lt;b&gt;D6270_RS28450&lt;/b&gt;&lt;br&gt;amino acid ABC transporter permease&lt;br&gt;Location: 6333667 - 6334311" locus_tag="D6270_RS28450" points="256,90 261,90 266,85 261,80 256,80 256,90 "  />
</g>
<g id="a3_0020"  >
<polygon style="fill:white; stroke-width:1; stroke:black; " id="dummy-3_h3_4_20" class="clusterblast-orf" description="&lt;b&gt;D6270_RS28455&lt;/b&gt;&lt;br&gt;amino acid ABC transporter permease&lt;br&gt;Location: 6334308 - 6335174" locus_tag="D6270_RS28455" points="266,90 275,90 280,85 275,80 266,80 266,90 "  />
</g>
<g id="a3_0021"  >
<polygon style="fill:white; stroke-width:1; stroke:black; " id="dummy-3_h3_4_21" class="clusterblast-orf" description="&lt;b&gt;D6270_RS28460&lt;/b&gt;&lt;br&gt;prolyl oligopeptidase family serine peptidase&lt;br&gt;Location: 6335207 - 6336802" locus_tag="D6270_RS28460" points="280,85 285,80 305,80 305,90 285,90 280,85 "  />
</g>
<g id="a3_0022"  >
<polygon style="fill:white; stroke-width:1; stroke:black; " id="dummy-3_h3_4_22" class="clusterblast-orf" description="&lt;b&gt;D6270_RS28465&lt;/b&gt;&lt;br&gt;L,D-transpeptidase&lt;br&gt;Location: 6336952 - 6338166" locus_tag="D6270_RS28465" points="307,85 312,80 326,80 326,90 312,90 307,85 "  />
</g>
<g id="a3_0023"  >
<polygon style="fill:white; stroke-width:1; stroke:black; " id="dummy-3_h3_4_23" class="clusterblast-orf" description="&lt;b&gt;D6270_RS28470&lt;/b&gt;&lt;br&gt;asparagine synthase (glutamine-hydrolyzing)&lt;br&gt;Location: 6338419 - 6340287" locus_tag="D6270_RS28470" points="330,85 335,80 359,80 359,90 335,90 330,85 "  />
</g>
<g id="a3_0024"  >
<polygon style="fill:white; stroke-width:1; stroke:black; " id="dummy-3_h3_4_24" class="clusterblast-orf" description="&lt;b&gt;D6270_RS28475&lt;/b&gt;&lt;br&gt;MFS transporter&lt;br&gt;Location: 6340330 - 6341802" locus_tag="D6270_RS28475" points="360,85 365,80 382,80 382,90 365,90 360,85 "  />
</g>
<g id="a3_0025"  >
<polygon style="fill:white; stroke-width:1; stroke:black; " id="dummy-3_h3_4_25" class="clusterblast-orf" description="&lt;b&gt;D6270_RS28480&lt;/b&gt;&lt;br&gt;hotdog fold thioesterase&lt;br&gt;Location: 6341992 - 6342444" locus_tag="D6270_RS28480" points="385,85 390,80 392,80 392,90 390,90 385,85 "  />
</g>
<g id="a3_0026"  >
<polygon style="fill:white; stroke-width:1; stroke:black; " id="dummy-3_h3_4_26" class="clusterblast-orf" description="&lt;b&gt;D6270_RS28485&lt;/b&gt;&lt;br&gt;acyl--CoA ligase&lt;br&gt;Location: 6342441 - 6344156" locus_tag="D6270_RS28485" points="392,85 397,80 419,80 419,90 397,90 392,85 "  />
</g>
<g id="a3_0027"  >
<polygon style="fill:white; stroke-width:1; stroke:black; " id="dummy-3_h3_4_27" class="clusterblast-orf" description="&lt;b&gt;D6270_RS28490&lt;/b&gt;&lt;br&gt;AMP-binding protein&lt;br&gt;Location: 6344533 - 6346872" locus_tag="D6270_RS28490" points="425,90 456,90 461,85 456,80 425,80 425,90 "  />
</g>
<g id="a3_0028"  >
<polygon style="fill:white; stroke-width:1; stroke:black; " id="dummy-3_h3_4_28" class="clusterblast-orf" description="&lt;b&gt;D6270_RS28495&lt;/b&gt;&lt;br&gt;3-oxoacyl-ACP synthase&lt;br&gt;Location: 6346869 - 6348005" locus_tag="D6270_RS28495" points="461,90 474,90 479,85 474,80 461,80 461,90 "  />
</g>
<g id="a3_0029"  >
<polygon style="fill:white; stroke-width:1; stroke:black; " id="dummy-3_h3_4_29" class="clusterblast-orf" description="&lt;b&gt;D6270_RS28500&lt;/b&gt;&lt;br&gt;hypothetical protein&lt;br&gt;Location: 6348002 - 6348958" locus_tag="D6270_RS28500" points="479,90 488,90 493,85 488,80 479,80 479,90 "  />
</g>
<g id="a3_0030"  >
<polygon style="fill:white; stroke-width:1; stroke:black; " id="dummy-3_h3_4_30" class="clusterblast-orf" description="&lt;b&gt;D6270_RS28505&lt;/b&gt;&lt;br&gt;acyl carrier protein&lt;br&gt;Location: 6348990 - 6349259" locus_tag="D6270_RS28505" points="494,90 498,85 494,80 494,90 "  />
</g>
<g id="a3_0031"  >
<polygon style="fill:white; stroke-width:1; stroke:black; " id="dummy-3_h3_4_31" class="clusterblast-orf" description="&lt;b&gt;D6270_RS28510&lt;/b&gt;&lt;br&gt;SDR family oxidoreductase&lt;br&gt;Location: 6349346 - 6350110" locus_tag="D6270_RS28510" points="499,90 506,90 511,85 506,80 499,80 499,90 "  />
</g>
<g id="a3_0032"  >
<polygon style="fill:white; stroke-width:1; stroke:black; " id="dummy-3_h3_4_32" class="clusterblast-orf" description="&lt;b&gt;D6270_RS28515&lt;/b&gt;&lt;br&gt;hypothetical protein&lt;br&gt;Location: 6350128 - 6350874" locus_tag="D6270_RS28515" points="511,85 516,80 523,80 523,90 516,90 511,85 "  />
</g>
<g id="a3_0033"  >
<polygon style="fill:white; stroke-width:1; stroke:black; " id="dummy-3_h3_4_33" class="clusterblast-orf" description="&lt;b&gt;D6270_RS28520&lt;/b&gt;&lt;br&gt;gamma-glutamyltransferase&lt;br&gt;Location: 6350979 - 6352796" locus_tag="D6270_RS28520" points="525,90 548,90 553,85 548,80 525,80 525,90 "  />
</g>
<g id="a3_0034"  >
<polygon style="fill:white; stroke-width:1; stroke:black; " id="dummy-3_h3_4_34" class="clusterblast-orf" description="&lt;b&gt;D6270_RS28525&lt;/b&gt;&lt;br&gt;hypothetical protein&lt;br&gt;Location: 6352956 - 6353696" locus_tag="D6270_RS28525" points="555,90 562,90 567,85 562,80 555,80 555,90 "  />
</g>
<g id="a3_0035"  >
<polygon style="fill:white; stroke-width:1; stroke:black; " id="dummy-3_h3_4_35" class="clusterblast-orf" description="&lt;b&gt;D6270_RS28530&lt;/b&gt;&lt;br&gt;type I methionyl aminopeptidase&lt;br&gt;Location: 6353715 - 6354482" locus_tag="D6270_RS28530" points="567,85 572,80 579,80 579,90 572,90 567,85 "  />
</g>
<g id="a3_0036"  >
<polygon style="fill:white; stroke-width:1; stroke:black; " id="dummy-3_h3_4_36" class="clusterblast-orf" description="&lt;b&gt;D6270_RS28535&lt;/b&gt;&lt;br&gt;helix-turn-helix transcriptional regulator&lt;br&gt;Location: 6354556 - 6354834" locus_tag="D6270_RS28535" points="580,90 584,85 580,80 580,90 "  />
</g>
<g id="a3_0037"  >
<polygon style="fill:white; stroke-width:1; stroke:black; " id="dummy-3_h3_4_37" class="clusterblast-orf" description="&lt;b&gt;D6270_RS28540&lt;/b&gt;&lt;br&gt;PPOX class F420-dependent oxidoreductase&lt;br&gt;Location: 6354863 - 6355243" locus_tag="D6270_RS28540" points="585,90 586,90 591,85 586,80 585,80 585,90 "  />
</g>
<g id="a3_0038"  >
<polygon style="fill:white; stroke-width:1; stroke:black; " id="dummy-3_h3_4_38" class="clusterblast-orf" description="&lt;b&gt;D6270_RS28545&lt;/b&gt;&lt;br&gt;hypothetical protein&lt;br&gt;Location: 6355428 - 6356888" locus_tag="D6270_RS28545" points="594,90 611,90 616,85 611,80 594,80 594,90 "  />
</g>
<g id="a3_0039"  >
<polygon style="fill:white; stroke-width:1; stroke:black; " id="dummy-3_h3_4_39" class="clusterblast-orf" description="&lt;b&gt;D6270_RS28550&lt;/b&gt;&lt;br&gt;aldo/keto reductase&lt;br&gt;Location: 6356941 - 6357584" locus_tag="D6270_RS28550" points="617,85 622,80 627,80 627,90 622,90 617,85 "  />
</g>
<g id="a3_0040"  >
<polygon style="fill:white; stroke-width:1; stroke:black; " id="dummy-3_h3_4_40" class="clusterblast-orf" description="&lt;b&gt;D6270_RS28555&lt;/b&gt;&lt;br&gt;acyltransferase&lt;br&gt;Location: 6357849 - 6358691" locus_tag="D6270_RS28555" points="631,90 639,90 644,85 639,80 631,80 631,90 "  />
</g>
<g id="a3_0041"  >
<polygon style="fill:white; stroke-width:1; stroke:black; " id="dummy-3_h3_4_41" class="clusterblast-orf" description="&lt;b&gt;D6270_RS28560&lt;/b&gt;&lt;br&gt;aspartate aminotransferase family protein&lt;br&gt;Location: 6358688 - 6359971" locus_tag="D6270_RS28560" points="644,90 659,90 664,85 659,80 644,80 644,90 "  />
</g>
<g id="a3_0042"  >
<polygon style="fill:white; stroke-width:1; stroke:black; " id="dummy-3_h3_4_42" class="clusterblast-orf" description="&lt;b&gt;D6270_RS28565&lt;/b&gt;&lt;br&gt;dihydropyrimidinase&lt;br&gt;Location: 6360159 - 6361559" locus_tag="D6270_RS28565" points="667,90 684,90 689,85 684,80 667,80 667,90 "  />
</g>
<g id="a3_0043"  >
<polygon style="fill:white; stroke-width:1; stroke:black; " id="dummy-3_h3_4_43" class="clusterblast-orf" description="&lt;b&gt;D6270_RS28570&lt;/b&gt;&lt;br&gt;TIGR03842 family LLM class F420-dependent oxidoreductase&lt;br&gt;Location: 6361570 - 6362583" locus_tag="D6270_RS28570" points="689,90 699,90 704,85 699,80 689,80 689,90 "  />
</g>
<g id="a3_0044"  >
<polygon style="fill:white; stroke-width:1; stroke:black; " id="dummy-3_h3_4_44" class="clusterblast-orf" description="&lt;b&gt;D6270_RS28575&lt;/b&gt;&lt;br&gt;hypothetical protein&lt;br&gt;Location: 6362705 - 6363469" locus_tag="D6270_RS28575" points="706,85 711,80 718,80 718,90 711,90 706,85 "  />
</g>
<g id="a3_0045"  >
<polygon style="fill:white; stroke-width:1; stroke:black; " id="dummy-3_h3_4_45" class="clusterblast-orf" description="&lt;b&gt;D6270_RS28580&lt;/b&gt;&lt;br&gt;hypothetical protein&lt;br&gt;Location: 6363698 - 6364090" locus_tag="D6270_RS28580" points="722,90 723,90 728,85 723,80 722,80 722,90 "  />
</g>
<g id="a3_0046"  >
<polygon style="fill:white; stroke-width:1; stroke:black; " id="dummy-3_h3_4_46" class="clusterblast-orf" description="&lt;b&gt;D6270_RS28585&lt;/b&gt;&lt;br&gt;amidase&lt;br&gt;Location: 6364239 - 6365738" locus_tag="D6270_RS28585" points="730,90 748,90 753,85 748,80 730,80 730,90 "  />
</g>
<g id="a3_0047"  >
<polygon style="fill:white; stroke-width:1; stroke:black; " id="dummy-3_h3_4_47" class="clusterblast-orf" description="&lt;b&gt;D6270_RS28590&lt;/b&gt;&lt;br&gt;sporulation delaying protein family toxin&lt;br&gt;Location: 6366079 - 6366726" locus_tag="D6270_RS28590" points="759,90 764,90 769,85 764,80 759,80 759,90 "  />
</g>
<g id="a3_0048"  >
<polygon style="fill:white; stroke-width:1; stroke:black; " id="dummy-3_h3_4_48" class="clusterblast-orf" description="&lt;b&gt;D6270_RS28595&lt;/b&gt;&lt;br&gt;SdpA family antimicrobial peptide system protein&lt;br&gt;Location: 6366838 - 6367428" locus_tag="D6270_RS28595" points="770,90 775,90 780,85 775,80 770,80 770,90 "  />
</g>
</svg>
