<svg xmlns:xlink="http://www.w3.org/1999/xlink" x="0" preserveAspectRatio="none" version="1.1" height="230" viewBox="0 0 800 230" y="0" xmlns="http://www.w3.org/2000/svg" width="800"  >
<g label="Query sequence" class="clusterblast-cluster"  >
<text class="clusterblast-acc" x="5" y="20"  >
Query sequence</text>
<line y2="35" x1="10" style="stroke-width:1; stroke:grey; " y1="35" x2="778.0"  />
<polygon style="fill:#d81515; stroke-width:1; stroke:black; " id="dummy-1_q0_0_all" class="clusterblast-orf" description="&lt;b&gt;cds1_3307&lt;/b&gt;&lt;br&gt;Polyketide synthase modules and related proteins&lt;br&gt;Location: 1 - 3307" locus_tag="cds1_3307" points="370,40 392,40 397,35 392,30 370,30 370,40 "  />
<polygon style="fill:#d81515; stroke-width:1; stroke:black; " id="dummy-1_q1_0_all" class="clusterblast-orf" description="&lt;b&gt;cds3303_4734&lt;/b&gt;&lt;br&gt;Long-chain-fatty-acid--CoA ligase (EC 6.2.1.3)&lt;br&gt;Location: 3303 - 4734" locus_tag="cds3303_4734" points="397,40 404,40 409,35 404,30 397,30 397,40 "  />
</g>
<g label="NZ_CP022685" class="clusterblast-cluster" description="NZ_CP022685 (8706665-8802139): Streptomyces formicae strain KY5 chromosome, c... (7% of genes show similarity), NRPS,T3PKS"  >
<text class="clusterblast-acc" x="5" y="70"  >
<a xlink:href="https://antismash-db.secondarymetabolites.org/area.html?record=NZ_CP022685&amp;start=8706665&amp;end=8802139" target="_blank">NZ_CP022685 (8706665-8802139)</a>: Streptomyces formicae strain KY5 chromosome, c... (7% of genes show similarity), NRPS,T3PKS</text>
<line y2="85" x1="10" style="stroke-width:1; stroke:grey; " y1="85" x2="778.0"  />
</g>
<g id="a1_000"  >
<polygon style="fill:white; stroke-width:1; stroke:black; " id="dummy-1_h1_2_0" class="clusterblast-orf" description="&lt;b&gt;KY5_RS37545&lt;/b&gt;&lt;br&gt;polysaccharide deacetylase family protein&lt;br&gt;Location: 8706666 - 8707511" locus_tag="KY5_RS37545" points="0,90 1,90 6,85 1,80 0,80 0,90 "  />
</g>
<g id="a1_001"  >
<polygon style="fill:white; stroke-width:1; stroke:black; " id="dummy-1_h1_2_1" class="clusterblast-orf" description="&lt;b&gt;KY5_RS37550&lt;/b&gt;&lt;br&gt;class F sortase&lt;br&gt;Location: 8707554 - 8708246" locus_tag="KY5_RS37550" points="7,85 12,80 12,80 12,90 12,90 7,85 "  />
</g>
<g id="a1_002"  >
<polygon style="fill:white; stroke-width:1; stroke:black; " id="dummy-1_h1_2_2" class="clusterblast-orf" description="&lt;b&gt;KY5_RS37555&lt;/b&gt;&lt;br&gt;hypothetical protein&lt;br&gt;Location: 8708595 - 8709086" locus_tag="KY5_RS37555" points="15,90 19,85 15,80 15,90 "  />
</g>
<g id="a1_003"  >
<polygon style="fill:white; stroke-width:1; stroke:black; " id="dummy-1_h1_2_3" class="clusterblast-orf" description="&lt;b&gt;KY5_RS37560&lt;/b&gt;&lt;br&gt;hypothetical protein&lt;br&gt;Location: 8709213 - 8709734" locus_tag="KY5_RS37560" points="20,85 25,80 25,80 25,90 25,90 20,85 "  />
</g>
<g id="a1_004"  >
<polygon style="fill:white; stroke-width:1; stroke:black; " id="dummy-1_h1_2_4" class="clusterblast-orf" description="&lt;b&gt;KY5_RS37565&lt;/b&gt;&lt;br&gt;esterase&lt;br&gt;Location: 8709948 - 8711237" locus_tag="KY5_RS37565" points="26,85 31,80 37,80 37,90 31,90 26,85 "  />
</g>
<g id="a1_005"  >
<polygon style="fill:white; stroke-width:1; stroke:black; " id="dummy-1_h1_2_5" class="clusterblast-orf" description="&lt;b&gt;KY5_RS37570&lt;/b&gt;&lt;br&gt;hypothetical protein&lt;br&gt;Location: 8711353 - 8711571" locus_tag="KY5_RS37570" points="38,85 40,80 40,90 38,85 "  />
</g>
<g id="a1_006"  >
<polygon style="fill:white; stroke-width:1; stroke:black; " id="dummy-1_h1_2_6" class="clusterblast-orf" description="&lt;b&gt;KY5_RS37575&lt;/b&gt;&lt;br&gt;polyprenol monophosphomannose synthase&lt;br&gt;Location: 8711772 - 8712545" locus_tag="KY5_RS37575" points="41,90 43,90 48,85 43,80 41,80 41,90 "  />
</g>
<g id="a1_007"  >
<polygon style="fill:white; stroke-width:1; stroke:black; " id="dummy-1_h1_2_7" class="clusterblast-orf" description="&lt;b&gt;KY5_RS37580&lt;/b&gt;&lt;br&gt;DUF4239 domain-containing protein&lt;br&gt;Location: 8712567 - 8713331" locus_tag="KY5_RS37580" points="48,85 53,80 54,80 54,90 53,90 48,85 "  />
</g>
<g id="a1_008"  >
<polygon style="fill:white; stroke-width:1; stroke:black; " id="dummy-1_h1_2_8" class="clusterblast-orf" description="&lt;b&gt;KY5_RS42000&lt;/b&gt;&lt;br&gt;hypothetical protein&lt;br&gt;Location: 8713348 - 8713950" locus_tag="KY5_RS42000" points="54,85 59,80 59,80 59,90 59,90 54,85 "  />
</g>
<g id="a1_009"  >
<polygon style="fill:white; stroke-width:1; stroke:black; " id="dummy-1_h1_2_9" class="clusterblast-orf" description="&lt;b&gt;KY5_RS37590&lt;/b&gt;&lt;br&gt;hypothetical protein&lt;br&gt;Location: 8714185 - 8715156" locus_tag="KY5_RS37590" points="61,90 64,90 69,85 64,80 61,80 61,90 "  />
</g>
<g id="a1_0010"  >
<polygon style="fill:white; stroke-width:1; stroke:black; " id="dummy-1_h1_2_10" class="clusterblast-orf" description="&lt;b&gt;KY5_RS37595&lt;/b&gt;&lt;br&gt;SAM-dependent methyltransferase&lt;br&gt;Location: 8715380 - 8716192" locus_tag="KY5_RS37595" points="71,90 72,90 77,85 72,80 71,80 71,90 "  />
</g>
<g id="a1_0011"  >
<polygon style="fill:white; stroke-width:1; stroke:black; " id="dummy-1_h1_2_11" class="clusterblast-orf" description="&lt;b&gt;KY5_RS37600&lt;/b&gt;&lt;br&gt;EAL domain-containing protein&lt;br&gt;Location: 8716189 - 8718324" locus_tag="KY5_RS37600" points="77,90 90,90 95,85 90,80 77,80 77,90 "  />
</g>
<g id="a1_0012"  >
<polygon style="fill:white; stroke-width:1; stroke:black; " id="dummy-1_h1_2_12" class="clusterblast-orf" description="&lt;b&gt;KY5_RS37605&lt;/b&gt;&lt;br&gt;hypothetical protein&lt;br&gt;Location: 8718331 - 8719092" locus_tag="KY5_RS37605" points="95,90 96,90 101,85 96,80 95,80 95,90 "  />
</g>
<g id="a1_0013"  >
<polygon style="fill:white; stroke-width:1; stroke:black; " id="dummy-1_h1_2_13" class="clusterblast-orf" description="&lt;b&gt;KY5_RS37610&lt;/b&gt;&lt;br&gt;hypothetical protein&lt;br&gt;Location: 8719072 - 8721903" locus_tag="KY5_RS37610" points="101,85 106,80 124,80 124,90 106,90 101,85 "  />
</g>
<g id="a1_0014"  >
<polygon style="fill:white; stroke-width:1; stroke:black; " id="dummy-1_h1_2_14" class="clusterblast-orf" description="&lt;b&gt;KY5_RS37615&lt;/b&gt;&lt;br&gt;LysR family transcriptional regulator&lt;br&gt;Location: 8721959 - 8722834" locus_tag="KY5_RS37615" points="124,85 129,80 132,80 132,90 129,90 124,85 "  />
</g>
<g id="a1_0015"  >
<polygon style="fill:white; stroke-width:1; stroke:black; " id="dummy-1_h1_2_15" class="clusterblast-orf" description="&lt;b&gt;KY5_RS37620&lt;/b&gt;&lt;br&gt;succinate dehydrogenase&lt;br&gt;Location: 8722930 - 8723637" locus_tag="KY5_RS37620" points="132,90 133,90 138,85 133,80 132,80 132,90 "  />
</g>
<g id="a1_0016"  >
<polygon style="fill:white; stroke-width:1; stroke:black; " id="dummy-1_h1_2_16" class="clusterblast-orf" description="&lt;b&gt;KY5_RS37625&lt;/b&gt;&lt;br&gt;fumarate reductase/succinate dehydrogenase flavoprotein subunit&lt;br&gt;Location: 8723641 - 8725599" locus_tag="KY5_RS37625" points="138,90 149,90 154,85 149,80 138,80 138,90 "  />
</g>
<g id="a1_0017"  >
<polygon style="fill:white; stroke-width:1; stroke:black; " id="dummy-1_h1_2_17" class="clusterblast-orf" description="&lt;b&gt;KY5_RS37630&lt;/b&gt;&lt;br&gt;succinate dehydrogenase/fumarate reductase iron-sulfur subunit&lt;br&gt;Location: 8725596 - 8726342" locus_tag="KY5_RS37630" points="154,90 155,90 160,85 155,80 154,80 154,90 "  />
</g>
<g id="a1_0018"  >
<polygon style="fill:white; stroke-width:1; stroke:black; " id="dummy-1_h1_2_18" class="clusterblast-orf" description="&lt;b&gt;KY5_RS37635&lt;/b&gt;&lt;br&gt;acyl-CoA synthetase&lt;br&gt;Location: 8726422 - 8727936" locus_tag="KY5_RS37635" points="161,90 168,90 173,85 168,80 161,80 161,90 "  />
</g>
<g id="a1_0019"  >
<polygon style="fill:white; stroke-width:1; stroke:black; " id="dummy-1_h1_2_19" class="clusterblast-orf" description="&lt;b&gt;KY5_RS37640&lt;/b&gt;&lt;br&gt;AraC family transcriptional regulator&lt;br&gt;Location: 8727956 - 8728834" locus_tag="KY5_RS37640" points="173,85 178,80 181,80 181,90 178,90 173,85 "  />
</g>
<g id="a1_0020"  >
<polygon style="fill:white; stroke-width:1; stroke:black; " id="dummy-1_h1_2_20" class="clusterblast-orf" description="&lt;b&gt;KY5_RS37645&lt;/b&gt;&lt;br&gt;excinuclease ABC subunit UvrA&lt;br&gt;Location: 8728927 - 8731284" locus_tag="KY5_RS37645" points="181,85 186,80 201,80 201,90 186,90 181,85 "  />
</g>
<g id="a1_0021"  >
<polygon style="fill:white; stroke-width:1; stroke:black; " id="dummy-1_h1_2_21" class="clusterblast-orf" description="&lt;b&gt;KY5_RS37650&lt;/b&gt;&lt;br&gt;alpha-hydroxy-acid oxidizing protein&lt;br&gt;Location: 8731480 - 8732577" locus_tag="KY5_RS37650" points="202,85 207,80 211,80 211,90 207,90 202,85 "  />
</g>
<g id="a1_0022"  >
<polygon style="fill:white; stroke-width:1; stroke:black; " id="dummy-1_h1_2_22" class="clusterblast-orf" description="&lt;b&gt;KY5_RS37655&lt;/b&gt;&lt;br&gt;4-hydroxyphenylpyruvate dioxygenase&lt;br&gt;Location: 8732558 - 8733664" locus_tag="KY5_RS37655" points="211,85 216,80 220,80 220,90 216,90 211,85 "  />
</g>
<g id="a1_0023"  >
<polygon style="fill:white; stroke-width:1; stroke:black; " id="dummy-1_h1_2_23" class="clusterblast-orf" description="&lt;b&gt;KY5_RS37660&lt;/b&gt;&lt;br&gt;prephenate dehydrogenase&lt;br&gt;Location: 8733818 - 8734975" locus_tag="KY5_RS37660" points="221,90 226,90 231,85 226,80 221,80 221,90 "  />
</g>
<g id="a1_0024"  >
<polygon style="fill:white; stroke-width:1; stroke:black; " id="dummy-1_h1_2_24" class="clusterblast-orf" description="&lt;b&gt;KY5_RS37665&lt;/b&gt;&lt;br&gt;aminotransferase class I/II-fold pyridoxal phosphate-dependent enzyme&lt;br&gt;Location: 8735116 - 8737515" locus_tag="KY5_RS37665" points="232,90 247,90 252,85 247,80 232,80 232,90 "  />
</g>
<g id="a1_0025"  >
<polygon style="fill:white; stroke-width:1; stroke:black; " id="dummy-1_h1_2_25" class="clusterblast-orf" description="&lt;b&gt;KY5_RS37670&lt;/b&gt;&lt;br&gt;type III polyketide synthase&lt;br&gt;Location: 8737577 - 8738650" locus_tag="KY5_RS37670" points="252,90 256,90 261,85 256,80 252,80 252,90 "  />
</g>
<g id="a1_0026"  >
<polygon style="fill:white; stroke-width:1; stroke:black; " id="dummy-1_h1_2_26" class="clusterblast-orf" description="&lt;b&gt;KY5_RS37675&lt;/b&gt;&lt;br&gt;enoyl-CoA hydratase/isomerase family protein&lt;br&gt;Location: 8738644 - 8739333" locus_tag="KY5_RS37675" points="261,90 261,90 266,85 261,80 261,80 261,90 "  />
</g>
<g id="a1_0027"  >
<polygon style="fill:white; stroke-width:1; stroke:black; " id="dummy-1_h1_2_27" class="clusterblast-orf" description="&lt;b&gt;KY5_RS37680&lt;/b&gt;&lt;br&gt;enoyl-CoA hydratase/isomerase family protein&lt;br&gt;Location: 8739330 - 8740688" locus_tag="KY5_RS37680" points="266,90 272,90 277,85 272,80 266,80 266,90 "  />
</g>
<g id="a1_0028"  >
<polygon style="fill:white; stroke-width:1; stroke:black; " id="dummy-1_h1_2_28" class="clusterblast-orf" description="&lt;b&gt;KY5_RS37685&lt;/b&gt;&lt;br&gt;alpha/beta hydrolase&lt;br&gt;Location: 8740701 - 8741546" locus_tag="KY5_RS37685" points="278,90 279,90 284,85 279,80 278,80 278,90 "  />
</g>
<g id="a1_0029"  >
<polygon style="fill:white; stroke-width:1; stroke:black; " id="dummy-1_h1_2_29" class="clusterblast-orf" description="&lt;b&gt;KY5_RS37690&lt;/b&gt;&lt;br&gt;MbtH family protein&lt;br&gt;Location: 8741583 - 8741807" locus_tag="KY5_RS37690" points="285,90 287,85 285,80 285,90 "  />
</g>
<g id="a1_0030"  >
<polygon style="fill:white; stroke-width:1; stroke:black; " id="dummy-1_h1_2_30" class="clusterblast-orf" description="&lt;b&gt;KY5_RS37695&lt;/b&gt;&lt;br&gt;ABC transporter ATP-binding protein&lt;br&gt;Location: 8741855 - 8743972" locus_tag="KY5_RS37695" points="287,90 299,90 304,85 299,80 287,80 287,90 "  />
</g>
<g id="a1_0031"  >
<polygon style="fill:white; stroke-width:1; stroke:black; " id="dummy-1_h1_2_31" class="clusterblast-orf" description="&lt;b&gt;KY5_RS37700&lt;/b&gt;&lt;br&gt;response regulator transcription factor&lt;br&gt;Location: 8744224 - 8744877" locus_tag="KY5_RS37700" points="306,90 307,90 312,85 307,80 306,80 306,90 "  />
</g>
<g id="a1_0032"  >
<polygon style="fill:white; stroke-width:1; stroke:black; " id="dummy-1_h1_2_32" class="clusterblast-orf" description="&lt;b&gt;KY5_RS37705&lt;/b&gt;&lt;br&gt;HAMP domain-containing histidine kinase&lt;br&gt;Location: 8744914 - 8746194" locus_tag="KY5_RS37705" points="312,90 317,90 322,85 317,80 312,80 312,90 "  />
</g>
<g id="a1_0033"  >
<polygon style="fill:white; stroke-width:1; stroke:black; " id="dummy-1_h1_2_33" class="clusterblast-orf" description="&lt;b&gt;KY5_RS42005&lt;/b&gt;&lt;br&gt;hypothetical protein&lt;br&gt;Location: 8746245 - 8746763" locus_tag="KY5_RS42005" points="323,85 327,80 327,90 323,85 "  />
</g>
<g id="a1_0034"  >
<polygon style="fill:#d81515; stroke-width:1; stroke:black; " id="dummy-1_h1_2_34" class="clusterblast-orf" description="&lt;b&gt;KY5_RS37710&lt;/b&gt;&lt;br&gt;amino acid adenylation domain-containing protein&lt;br&gt;Location: 8746773 - 8757635&lt;br&gt;&lt;br&gt;&lt;b&gt;BlastP hit with cds1_3307&lt;/b&gt;&lt;br&gt;Percentage identity: 41&lt;br&gt;Percentage coverage: 103&lt;br&gt;BLAST bit score: 673&lt;br&gt;E-value: 2.7e-191" locus_tag="KY5_RS37710" points="327,90 411,90 416,85 411,80 327,80 327,90 "  />
</g>
<g id="a1_0035"  >
<polygon style="fill:#d81515; stroke-width:1; stroke:black; " id="dummy-1_h1_2_35" class="clusterblast-orf" description="&lt;b&gt;KY5_RS37715&lt;/b&gt;&lt;br&gt;non-ribosomal peptide synthetase&lt;br&gt;Location: 8757632 - 8762248&lt;br&gt;&lt;br&gt;&lt;b&gt;BlastP hit with cds1_3307&lt;/b&gt;&lt;br&gt;Percentage identity: 41&lt;br&gt;Percentage coverage: 101&lt;br&gt;BLAST bit score: 686&lt;br&gt;E-value: 5.2e-195&lt;br&gt;&lt;br&gt;&lt;b&gt;BlastP hit with cds3303_4734&lt;/b&gt;&lt;br&gt;Percentage identity: 49&lt;br&gt;Percentage coverage: 93&lt;br&gt;BLAST bit score: 407&lt;br&gt;E-value: 1.5e-111" locus_tag="KY5_RS37715" points="416,90 449,90 454,85 449,80 416,80 416,90 "  />
</g>
<g id="a1_0036"  >
<polygon style="fill:#d81515; stroke-width:1; stroke:black; " id="dummy-1_h1_2_36" class="clusterblast-orf" description="&lt;b&gt;KY5_RS37720&lt;/b&gt;&lt;br&gt;non-ribosomal peptide synthetase&lt;br&gt;Location: 8762297 - 8776171&lt;br&gt;&lt;br&gt;&lt;b&gt;BlastP hit with cds1_3307&lt;/b&gt;&lt;br&gt;Percentage identity: 44&lt;br&gt;Percentage coverage: 100&lt;br&gt;BLAST bit score: 796&lt;br&gt;E-value: 2.7e-228&lt;br&gt;&lt;br&gt;&lt;b&gt;BlastP hit with cds3303_4734&lt;/b&gt;&lt;br&gt;Percentage identity: 45&lt;br&gt;Percentage coverage: 92&lt;br&gt;BLAST bit score: 388&lt;br&gt;E-value: 9.7e-106" locus_tag="KY5_RS37720" points="454,90 562,90 567,85 562,80 454,80 454,90 "  />
</g>
<g id="a1_0037"  >
<polygon style="fill:#d81515; stroke-width:1; stroke:black; " id="dummy-1_h1_2_37" class="clusterblast-orf" description="&lt;b&gt;KY5_RS37725&lt;/b&gt;&lt;br&gt;non-ribosomal peptide synthetase&lt;br&gt;Location: 8776224 - 8782598&lt;br&gt;&lt;br&gt;&lt;b&gt;BlastP hit with cds3303_4734&lt;/b&gt;&lt;br&gt;Percentage identity: 47&lt;br&gt;Percentage coverage: 92&lt;br&gt;BLAST bit score: 399&lt;br&gt;E-value: 5.5e-109" locus_tag="KY5_RS37725" points="568,90 615,90 620,85 615,80 568,80 568,90 "  />
</g>
<g id="a1_0038"  >
<polygon style="fill:white; stroke-width:1; stroke:black; " id="dummy-1_h1_2_38" class="clusterblast-orf" description="&lt;b&gt;KY5_RS37730&lt;/b&gt;&lt;br&gt;cytochrome P450&lt;br&gt;Location: 8782606 - 8783784" locus_tag="KY5_RS37730" points="620,90 625,90 630,85 625,80 620,80 620,90 "  />
</g>
<g id="a1_0039"  >
<polygon style="fill:white; stroke-width:1; stroke:black; " id="dummy-1_h1_2_39" class="clusterblast-orf" description="&lt;b&gt;KY5_RS37735&lt;/b&gt;&lt;br&gt;cytochrome P450&lt;br&gt;Location: 8783793 - 8784989" locus_tag="KY5_RS37735" points="630,90 634,90 639,85 634,80 630,80 630,90 "  />
</g>
<g id="a1_0040"  >
<polygon style="fill:white; stroke-width:1; stroke:black; " id="dummy-1_h1_2_40" class="clusterblast-orf" description="&lt;b&gt;KY5_RS37740&lt;/b&gt;&lt;br&gt;tryptophan 7-halogenase&lt;br&gt;Location: 8785054 - 8786667" locus_tag="KY5_RS37740" points="640,90 648,90 653,85 648,80 640,80 640,90 "  />
</g>
<g id="a1_0041"  >
<polygon style="fill:white; stroke-width:1; stroke:black; " id="dummy-1_h1_2_41" class="clusterblast-orf" description="&lt;b&gt;KY5_RS37745&lt;/b&gt;&lt;br&gt;flavin reductase&lt;br&gt;Location: 8786676 - 8787209" locus_tag="KY5_RS37745" points="653,90 653,90 658,85 653,80 653,80 653,90 "  />
</g>
<g id="a1_0042"  >
<polygon style="fill:white; stroke-width:1; stroke:black; " id="dummy-1_h1_2_42" class="clusterblast-orf" description="&lt;b&gt;KY5_RS37750&lt;/b&gt;&lt;br&gt;cation/H(+) antiporter&lt;br&gt;Location: 8787264 - 8788595" locus_tag="KY5_RS37750" points="658,90 664,90 669,85 664,80 658,80 658,90 "  />
</g>
<g id="a1_0043"  >
<polygon style="fill:white; stroke-width:1; stroke:black; " id="dummy-1_h1_2_43" class="clusterblast-orf" description="&lt;b&gt;KY5_RS37755&lt;/b&gt;&lt;br&gt;hypothetical protein&lt;br&gt;Location: 8788738 - 8789301" locus_tag="KY5_RS37755" points="670,90 670,90 675,85 670,80 670,80 670,90 "  />
</g>
<g id="a1_0044"  >
<polygon style="fill:white; stroke-width:1; stroke:black; " id="dummy-1_h1_2_44" class="clusterblast-orf" description="&lt;b&gt;KY5_RS37760&lt;/b&gt;&lt;br&gt;hypothetical protein&lt;br&gt;Location: 8789379 - 8790788" locus_tag="KY5_RS37760" points="675,90 682,90 687,85 682,80 675,80 675,90 "  />
</g>
<g id="a1_0045"  >
<polygon style="fill:white; stroke-width:1; stroke:black; " id="dummy-1_h1_2_45" class="clusterblast-orf" description="&lt;b&gt;KY5_RS37765&lt;/b&gt;&lt;br&gt;ABC transporter ATP-binding protein&lt;br&gt;Location: 8790785 - 8791534" locus_tag="KY5_RS37765" points="687,90 688,90 693,85 688,80 687,80 687,90 "  />
</g>
<g id="a1_0046"  >
<polygon style="fill:white; stroke-width:1; stroke:black; " id="dummy-1_h1_2_46" class="clusterblast-orf" description="&lt;b&gt;KY5_RS37770&lt;/b&gt;&lt;br&gt;ABC transporter permease&lt;br&gt;Location: 8791612 - 8792784" locus_tag="KY5_RS37770" points="693,90 698,90 703,85 698,80 693,80 693,90 "  />
</g>
<g id="a1_0047"  >
<polygon style="fill:white; stroke-width:1; stroke:black; " id="dummy-1_h1_2_47" class="clusterblast-orf" description="&lt;b&gt;KY5_RS37775&lt;/b&gt;&lt;br&gt;LLM class flavin-dependent oxidoreductase&lt;br&gt;Location: 8792852 - 8793904" locus_tag="KY5_RS37775" points="704,85 709,80 712,80 712,90 709,90 704,85 "  />
</g>
<g id="a1_0048"  >
<polygon style="fill:white; stroke-width:1; stroke:black; " id="dummy-1_h1_2_48" class="clusterblast-orf" description="&lt;b&gt;KY5_RS37780&lt;/b&gt;&lt;br&gt;hypothetical protein&lt;br&gt;Location: 8793994 - 8794482" locus_tag="KY5_RS37780" points="713,90 717,85 713,80 713,90 "  />
</g>
<g id="a1_0049"  >
<polygon style="fill:white; stroke-width:1; stroke:black; " id="dummy-1_h1_2_49" class="clusterblast-orf" description="&lt;b&gt;KY5_RS37785&lt;/b&gt;&lt;br&gt;dodecin domain-containing protein&lt;br&gt;Location: 8794568 - 8794783" locus_tag="KY5_RS37785" points="718,85 719,80 719,90 718,85 "  />
</g>
<g id="a1_0050"  >
<polygon style="fill:white; stroke-width:1; stroke:black; " id="dummy-1_h1_2_50" class="clusterblast-orf" description="&lt;b&gt;KY5_RS37790&lt;/b&gt;&lt;br&gt;extracellular solute-binding protein&lt;br&gt;Location: 8794821 - 8796266" locus_tag="KY5_RS37790" points="720,90 727,90 732,85 727,80 720,80 720,90 "  />
</g>
<g id="a1_0051"  >
<polygon style="fill:white; stroke-width:1; stroke:black; " id="dummy-1_h1_2_51" class="clusterblast-orf" description="&lt;b&gt;KY5_RS37795&lt;/b&gt;&lt;br&gt;L-histidine N(alpha)-methyltransferase&lt;br&gt;Location: 8796285 - 8797247" locus_tag="KY5_RS37795" points="732,85 737,80 740,80 740,90 737,90 732,85 "  />
</g>
<g id="a1_0052"  >
<polygon style="fill:white; stroke-width:1; stroke:black; " id="dummy-1_h1_2_52" class="clusterblast-orf" description="&lt;b&gt;KY5_RS37800&lt;/b&gt;&lt;br&gt;ergothioneine biosynthesis protein EgtC&lt;br&gt;Location: 8797244 - 8797999" locus_tag="KY5_RS37800" points="740,85 745,80 746,80 746,90 745,90 740,85 "  />
</g>
<g id="a1_0053"  >
<polygon style="fill:white; stroke-width:1; stroke:black; " id="dummy-1_h1_2_53" class="clusterblast-orf" description="&lt;b&gt;KY5_RS37805&lt;/b&gt;&lt;br&gt;ergothioneine biosynthesis protein EgtB&lt;br&gt;Location: 8797999 - 8799342" locus_tag="KY5_RS37805" points="746,85 751,80 757,80 757,90 751,90 746,85 "  />
</g>
<g id="a1_0054"  >
<polygon style="fill:white; stroke-width:1; stroke:black; " id="dummy-1_h1_2_54" class="clusterblast-orf" description="&lt;b&gt;KY5_RS37810&lt;/b&gt;&lt;br&gt;ergothioneine biosynthesis glutamate--cysteine ligase EgtA&lt;br&gt;Location: 8799339 - 8800715" locus_tag="KY5_RS37810" points="757,85 762,80 768,80 768,90 762,90 757,85 "  />
</g>
<g id="a1_0055"  >
<polygon style="fill:white; stroke-width:1; stroke:black; " id="dummy-1_h1_2_55" class="clusterblast-orf" description="&lt;b&gt;KY5_RS37815&lt;/b&gt;&lt;br&gt;TIGR02452 family protein&lt;br&gt;Location: 8800875 - 8801723" locus_tag="KY5_RS37815" points="769,90 771,90 776,85 771,80 769,80 769,90 "  />
</g>
<g id="a1_0056"  >
<polygon style="fill:white; stroke-width:1; stroke:black; " id="dummy-1_h1_2_56" class="clusterblast-orf" description="&lt;b&gt;KY5_RS37820&lt;/b&gt;&lt;br&gt;type II toxin-antitoxin system PemK/MazF family toxin&lt;br&gt;Location: 8801708 - 8802139" locus_tag="KY5_RS37820" points="776,85 780,80 780,90 776,85 "  />
</g>
</svg>
