<svg xmlns:xlink="http://www.w3.org/1999/xlink" x="0" preserveAspectRatio="none" version="1.1" height="230" viewBox="0 0 800 230" y="0" xmlns="http://www.w3.org/2000/svg" width="800"  >
<g label="Query sequence" class="clusterblast-cluster"  >
<text class="clusterblast-acc" x="5" y="20"  >
Query sequence</text>
<line y2="35" x1="10" style="stroke-width:1; stroke:grey; " y1="35" x2="778.0"  />
<polygon style="fill:white; stroke-width:1; stroke:black; " id="dummy-1_q0_0_all" class="clusterblast-orf" description="&lt;b&gt;cds33236_33665&lt;/b&gt;&lt;br&gt;hypothetical protein&lt;br&gt;Location: 33236 - 33665" locus_tag="cds33236_33665" points="229,35 233,30 233,40 229,35 "  />
<polygon style="fill:white; stroke-width:1; stroke:black; " id="dummy-1_q1_0_all" class="clusterblast-orf" description="&lt;b&gt;cds33746_34322&lt;/b&gt;&lt;br&gt;cell filamentation protein&lt;br&gt;Location: 33746 - 34322" locus_tag="cds33746_34322" points="233,35 238,30 238,30 238,40 238,40 233,35 "  />
<polygon style="fill:white; stroke-width:1; stroke:black; " id="dummy-1_q2_0_all" class="clusterblast-orf" description="&lt;b&gt;cds34318_34636&lt;/b&gt;&lt;br&gt;hypothetical protein&lt;br&gt;Location: 34318 - 34636" locus_tag="cds34318_34636" points="238,35 240,30 240,40 238,35 "  />
<polygon style="fill:#d81515; stroke-width:1; stroke:black; " id="dummy-1_q3_0_all" class="clusterblast-orf" description="&lt;b&gt;cds34684_37294&lt;/b&gt;&lt;br&gt;Phosphoenolpyruvate synthase (EC 2.7.9.2)&lt;br&gt;Location: 34684 - 37294" locus_tag="cds34684_37294" points="241,35 246,30 261,30 261,40 246,40 241,35 "  />
<polygon style="fill:white; stroke-width:1; stroke:black; " id="dummy-1_q4_0_all" class="clusterblast-orf" description="&lt;b&gt;cds37455_37764&lt;/b&gt;&lt;br&gt;hypothetical protein&lt;br&gt;Location: 37455 - 37764" locus_tag="cds37455_37764" points="263,40 265,35 263,30 263,40 "  />
<polygon style="fill:white; stroke-width:1; stroke:black; " id="dummy-1_q5_0_all" class="clusterblast-orf" description="&lt;b&gt;cds37804_38962&lt;/b&gt;&lt;br&gt;Lead, cadmium, zinc and mercury transporting ATPase (EC 3.6.3.3) (EC 3.6.3.5); Copper-translocating P-type ATPase (EC 3.6.3.4)&lt;br&gt;Location: 37804 - 38962" locus_tag="cds37804_38962" points="265,40 270,40 275,35 270,30 265,30 265,40 "  />
<polygon style="fill:white; stroke-width:1; stroke:black; " id="dummy-1_q6_0_all" class="clusterblast-orf" description="&lt;b&gt;cds38936_39989&lt;/b&gt;&lt;br&gt;Lead, cadmium, zinc and mercury transporting ATPase (EC 3.6.3.3) (EC 3.6.3.5); Copper-translocating P-type ATPase (EC 3.6.3.4)&lt;br&gt;Location: 38936 - 39989" locus_tag="cds38936_39989" points="274,40 278,40 283,35 278,30 274,30 274,40 "  />
<polygon style="fill:#54d815; stroke-width:1; stroke:black; " id="dummy-1_q7_0_all" class="clusterblast-orf" description="&lt;b&gt;cds40297_40963&lt;/b&gt;&lt;br&gt;Desferrioxamine E biosynthesis protein DesC @ Siderophore synthetase small component, acetyltransferase&lt;br&gt;Location: 40297 - 40963" locus_tag="cds40297_40963" points="285,40 285,40 290,35 285,30 285,30 285,40 "  />
<polygon style="fill:#15c1d8; stroke-width:1; stroke:black; " id="dummy-1_q8_0_all" class="clusterblast-orf" description="&lt;b&gt;cds40987_42808&lt;/b&gt;&lt;br&gt;hypothetical protein&lt;br&gt;Location: 40987 - 42808" locus_tag="cds40987_42808" points="290,40 300,40 305,35 300,30 290,30 290,40 "  />
<polygon style="fill:#8215d8; stroke-width:1; stroke:black; " id="dummy-1_q9_0_all" class="clusterblast-orf" description="&lt;b&gt;cds42804_45156&lt;/b&gt;&lt;br&gt;hypothetical protein&lt;br&gt;Location: 42804 - 45156" locus_tag="cds42804_45156" points="305,40 318,40 323,35 318,30 305,30 305,40 "  />
<polygon style="fill:#d84415; stroke-width:1; stroke:black; " id="dummy-1_q10_0_all" class="clusterblast-orf" description="&lt;b&gt;cds45152_46736&lt;/b&gt;&lt;br&gt;hypothetical protein&lt;br&gt;Location: 45152 - 46736" locus_tag="cds45152_46736" points="323,40 331,40 336,35 331,30 323,30 323,40 "  />
<polygon style="fill:#25d815; stroke-width:1; stroke:black; " id="dummy-1_q11_0_all" class="clusterblast-orf" description="&lt;b&gt;cds46825_48367&lt;/b&gt;&lt;br&gt;hypothetical protein&lt;br&gt;Location: 46825 - 48367" locus_tag="cds46825_48367" points="337,40 344,40 349,35 344,30 337,30 337,40 "  />
<polygon style="fill:#1592d8; stroke-width:1; stroke:black; " id="dummy-1_q12_0_all" class="clusterblast-orf" description="&lt;b&gt;cds48359_49673&lt;/b&gt;&lt;br&gt;Siderophore biosynthesis protein, monooxygenase&lt;br&gt;Location: 48359 - 49673" locus_tag="cds48359_49673" points="349,40 354,40 359,35 354,30 349,30 349,40 "  />
<polygon style="fill:#b115d8; stroke-width:1; stroke:black; " id="dummy-1_q13_0_all" class="clusterblast-orf" description="&lt;b&gt;cds49725_49968&lt;/b&gt;&lt;br&gt;hypothetical protein&lt;br&gt;Location: 49725 - 49968" locus_tag="cds49725_49968" points="359,40 361,35 359,30 359,40 "  />
<polygon style="fill:#d87315; stroke-width:1; stroke:black; " id="dummy-1_q14_0_all" class="clusterblast-orf" description="&lt;b&gt;cds49964_51131&lt;/b&gt;&lt;br&gt;Acyl-CoA dehydrogenase (EC 1.3.8.1), Mycobacterial subgroup FadE14&lt;br&gt;Location: 49964 - 51131" locus_tag="cds49964_51131" points="361,40 366,40 371,35 366,30 361,30 361,40 "  />
<polygon style="fill:#15d834; stroke-width:1; stroke:black; " id="dummy-1_q15_0_all" class="clusterblast-orf" description="&lt;b&gt;cds51127_52411&lt;/b&gt;&lt;br&gt;hypothetical protein&lt;br&gt;Location: 51127 - 52411" locus_tag="cds51127_52411" points="370,40 376,40 381,35 376,30 370,30 370,40 "  />
<polygon style="fill:#1563d8; stroke-width:1; stroke:black; " id="dummy-1_q16_0_all" class="clusterblast-orf" description="&lt;b&gt;cds52434_54072&lt;/b&gt;&lt;br&gt;Long-chain-fatty-acid--CoA ligase (EC 6.2.1.3)&lt;br&gt;Location: 52434 - 54072" locus_tag="cds52434_54072" points="381,40 389,40 394,35 389,30 381,30 381,40 "  />
<polygon style="fill:#d815d0; stroke-width:1; stroke:black; " id="dummy-1_q17_0_all" class="clusterblast-orf" description="&lt;b&gt;cds54182_55040&lt;/b&gt;&lt;br&gt;Efflux ABC transporter, permease protein&lt;br&gt;Location: 54182 - 55040" locus_tag="cds54182_55040" points="395,35 400,30 401,30 401,40 400,40 395,35 "  />
<polygon style="fill:#d8a215; stroke-width:1; stroke:black; " id="dummy-1_q18_0_all" class="clusterblast-orf" description="&lt;b&gt;cds55036_55858&lt;/b&gt;&lt;br&gt;hypothetical protein&lt;br&gt;Location: 55036 - 55858" locus_tag="cds55036_55858" points="401,35 406,30 408,30 408,40 406,40 401,35 "  />
<polygon style="fill:#15d863; stroke-width:1; stroke:black; " id="dummy-1_q19_0_all" class="clusterblast-orf" description="&lt;b&gt;cds55857_56811&lt;/b&gt;&lt;br&gt;Efflux ABC transporter, ATP-binding protein&lt;br&gt;Location: 55857 - 56811" locus_tag="cds55857_56811" points="408,35 413,30 415,30 415,40 413,40 408,35 "  />
<polygon style="fill:#1534d8; stroke-width:1; stroke:black; " id="dummy-1_q20_0_all" class="clusterblast-orf" description="&lt;b&gt;cds57013_57496&lt;/b&gt;&lt;br&gt;hypothetical protein&lt;br&gt;Location: 57013 - 57496" locus_tag="cds57013_57496" points="417,40 421,35 417,30 417,40 "  />
<polygon style="fill:#15d863; stroke-width:1; stroke:black; " id="dummy-1_q21_0_all" class="clusterblast-orf" description="&lt;b&gt;cds57617_58358&lt;/b&gt;&lt;br&gt;Efflux ABC transporter, ATP-binding protein&lt;br&gt;Location: 57617 - 58358" locus_tag="cds57617_58358" points="422,40 423,40 428,35 423,30 422,30 422,40 "  />
<polygon style="fill:#d815a2; stroke-width:1; stroke:black; " id="dummy-1_q22_0_all" class="clusterblast-orf" description="&lt;b&gt;cds58354_59143&lt;/b&gt;&lt;br&gt;hypothetical protein&lt;br&gt;Location: 58354 - 59143" locus_tag="cds58354_59143" points="427,40 429,40 434,35 429,30 427,30 427,40 "  />
<polygon style="fill:#d8d015; stroke-width:1; stroke:black; " id="dummy-1_q23_0_all" class="clusterblast-orf" description="&lt;b&gt;cds59233_60982&lt;/b&gt;&lt;br&gt;Iron siderophore ABC transporter, permease/ATP-binding protein IrtB&lt;br&gt;Location: 59233 - 60982" locus_tag="cds59233_60982" points="434,35 439,30 448,30 448,40 439,40 434,35 "  />
<polygon style="fill:#d8d015; stroke-width:1; stroke:black; " id="dummy-1_q24_0_all" class="clusterblast-orf" description="&lt;b&gt;cds60978_63600&lt;/b&gt;&lt;br&gt;Iron siderophore ABC transporter, permease/ATP-binding protein IrtA&lt;br&gt;Location: 60978 - 63600" locus_tag="cds60978_63600" points="448,35 453,30 469,30 469,40 453,40 448,35 "  />
<polygon style="fill:#15d892; stroke-width:1; stroke:black; " id="dummy-1_q25_0_all" class="clusterblast-orf" description="&lt;b&gt;cds63838_64012&lt;/b&gt;&lt;br&gt;hypothetical protein&lt;br&gt;Location: 63838 - 64012" locus_tag="cds63838_64012" points="471,40 472,35 471,30 471,40 "  />
<polygon style="fill:#2515d8; stroke-width:1; stroke:black; " id="dummy-1_q26_0_all" class="clusterblast-orf" description="&lt;b&gt;cds64008_64491&lt;/b&gt;&lt;br&gt;hypothetical protein&lt;br&gt;Location: 64008 - 64491" locus_tag="cds64008_64491" points="472,35 476,30 476,40 472,35 "  />
<polygon style="fill:#d81573; stroke-width:1; stroke:black; " id="dummy-1_q27_0_all" class="clusterblast-orf" description="&lt;b&gt;cds64768_66565&lt;/b&gt;&lt;br&gt;hypothetical protein&lt;br&gt;Location: 64768 - 66565" locus_tag="cds64768_66565" points="478,35 483,30 492,30 492,40 483,40 478,35 "  />
<polygon style="fill:#b1d815; stroke-width:1; stroke:black; " id="dummy-1_q28_0_all" class="clusterblast-orf" description="&lt;b&gt;cds66730_68962&lt;/b&gt;&lt;br&gt;Integral membrane protein&lt;br&gt;Location: 66730 - 68962" locus_tag="cds66730_68962" points="494,35 499,30 511,30 511,40 499,40 494,35 "  />
<polygon style="fill:#15d8c1; stroke-width:1; stroke:black; " id="dummy-1_q29_0_all" class="clusterblast-orf" description="&lt;b&gt;cds69061_69676&lt;/b&gt;&lt;br&gt;Transcriptional regulator, AcrR family&lt;br&gt;Location: 69061 - 69676" locus_tag="cds69061_69676" points="512,40 512,40 517,35 512,30 512,30 512,40 "  />
<polygon style="fill:#5415d8; stroke-width:1; stroke:black; " id="dummy-1_q30_0_all" class="clusterblast-orf" description="&lt;b&gt;cds69718_70183&lt;/b&gt;&lt;br&gt;hypothetical protein&lt;br&gt;Location: 69718 - 70183" locus_tag="cds69718_70183" points="517,35 521,30 521,40 517,35 "  />
<polygon style="fill:#d81544; stroke-width:1; stroke:black; " id="dummy-1_q31_0_all" class="clusterblast-orf" description="&lt;b&gt;cds70258_71395&lt;/b&gt;&lt;br&gt;hypothetical protein&lt;br&gt;Location: 70258 - 71395" locus_tag="cds70258_71395" points="521,35 526,30 530,30 530,40 526,40 521,35 "  />
<polygon style="fill:#82d815; stroke-width:1; stroke:black; " id="dummy-1_q32_0_all" class="clusterblast-orf" description="&lt;b&gt;cds71577_72666&lt;/b&gt;&lt;br&gt;Nucleoside-diphosphate-sugar epimerases&lt;br&gt;Location: 71577 - 72666" locus_tag="cds71577_72666" points="532,40 535,40 540,35 535,30 532,30 532,40 "  />
<polygon style="fill:white; stroke-width:1; stroke:black; " id="dummy-1_q33_0_all" class="clusterblast-orf" description="&lt;b&gt;cds72671_73859&lt;/b&gt;&lt;br&gt;Threonine dehydrogenase and related Zn-dependent dehydrogenases&lt;br&gt;Location: 72671 - 73859" locus_tag="cds72671_73859" points="540,35 545,30 550,30 550,40 545,40 540,35 "  />
</g>
<g label="NZ_CP018082" class="clusterblast-cluster" description="NZ_CP018082 (3763505-&gt;3862386): Nocardia mangyaensis strain Y48 chromosome, c... (27% of genes show similarity), NRPS,siderophore"  >
<text class="clusterblast-acc" x="5" y="70"  >
<a xlink:href="https://antismash-db.secondarymetabolites.org/area.html?record=NZ_CP018082&amp;start=3763505&amp;end=>3862386" target="_blank">NZ_CP018082 (3763505->3862386)</a>: Nocardia mangyaensis strain Y48 chromosome, c... (27% of genes show similarity), NRPS,siderophore</text>
<line y2="85" x1="10" style="stroke-width:1; stroke:grey; " y1="85" x2="778.0"  />
</g>
<g id="a1_000"  >
<polygon style="fill:white; stroke-width:1; stroke:black; " id="dummy-1_h1_2_0" class="clusterblast-orf" description="&lt;b&gt;BOX37_RS34070&lt;/b&gt;&lt;br&gt;IS3 family transposase&lt;br&gt;Location: 3862386 - 3862237" locus_tag="BOX37_RS34070" points="0,85 1,80 1,90 0,85 "  />
</g>
<g id="a1_001"  >
<polygon style="fill:white; stroke-width:1; stroke:black; " id="dummy-1_h1_2_1" class="clusterblast-orf" description="&lt;b&gt;BOX37_RS17360&lt;/b&gt;&lt;br&gt;thiamine pyrophosphate-binding protein&lt;br&gt;Location: 3861670 - 3860000" locus_tag="BOX37_RS17360" points="5,90 13,90 18,85 13,80 5,80 5,90 "  />
</g>
<g id="a1_002"  >
<polygon style="fill:white; stroke-width:1; stroke:black; " id="dummy-1_h1_2_2" class="clusterblast-orf" description="&lt;b&gt;BOX37_RS17355&lt;/b&gt;&lt;br&gt;cupin domain-containing protein&lt;br&gt;Location: 3860003 - 3859602" locus_tag="BOX37_RS17355" points="18,90 21,85 18,80 18,90 "  />
</g>
<g id="a1_003"  >
<polygon style="fill:white; stroke-width:1; stroke:black; " id="dummy-1_h1_2_3" class="clusterblast-orf" description="&lt;b&gt;BOX37_RS34065&lt;/b&gt;&lt;br&gt;hypothetical protein&lt;br&gt;Location: 3859385 - 3859236" locus_tag="BOX37_RS34065" points="23,90 24,85 23,80 23,90 "  />
</g>
<g id="a1_004"  >
<polygon style="fill:white; stroke-width:1; stroke:black; " id="dummy-1_h1_2_4" class="clusterblast-orf" description="&lt;b&gt;BOX37_RS34060&lt;/b&gt;&lt;br&gt;hypothetical protein&lt;br&gt;Location: 3858798 - 3857902" locus_tag="BOX37_RS34060" points="28,90 30,90 35,85 30,80 28,80 28,90 "  />
</g>
<g id="a1_005"  >
<polygon style="fill:white; stroke-width:1; stroke:black; " id="dummy-1_h1_2_5" class="clusterblast-orf" description="&lt;b&gt;BOX37_RS17340&lt;/b&gt;&lt;br&gt;3-deoxy-7-phosphoheptulonate synthase&lt;br&gt;Location: 3857728 - 3856643" locus_tag="BOX37_RS17340" points="36,90 40,90 45,85 40,80 36,80 36,90 "  />
</g>
<g id="a1_006"  >
<polygon style="fill:white; stroke-width:1; stroke:black; " id="dummy-1_h1_2_6" class="clusterblast-orf" description="&lt;b&gt;BOX37_RS17335&lt;/b&gt;&lt;br&gt;hypothetical protein&lt;br&gt;Location: 3856593 - 3855973" locus_tag="BOX37_RS17335" points="45,90 45,90 50,85 45,80 45,80 45,90 "  />
</g>
<g id="a1_007"  >
<polygon style="fill:white; stroke-width:1; stroke:black; " id="dummy-1_h1_2_7" class="clusterblast-orf" description="&lt;b&gt;BOX37_RS33365&lt;/b&gt;&lt;br&gt;IS481 family transposase&lt;br&gt;Location: 3855896 - 3854898" locus_tag="BOX37_RS33365" points="51,90 54,90 59,85 54,80 51,80 51,90 "  />
</g>
<g id="a1_008"  >
<polygon style="fill:white; stroke-width:1; stroke:black; " id="dummy-1_h1_2_8" class="clusterblast-orf" description="&lt;b&gt;BOX37_RS33360&lt;/b&gt;&lt;br&gt;AMP-binding protein&lt;br&gt;Location: 3854315 - 3852813" locus_tag="BOX37_RS33360" points="63,90 70,90 75,85 70,80 63,80 63,90 "  />
</g>
<g id="a1_009"  >
<polygon style="fill:white; stroke-width:1; stroke:black; " id="dummy-1_h1_2_9" class="clusterblast-orf" description="&lt;b&gt;BOX37_RS33355&lt;/b&gt;&lt;br&gt;acyl-CoA dehydrogenase family protein&lt;br&gt;Location: 3852482 - 3851307" locus_tag="BOX37_RS33355" points="78,90 82,90 87,85 82,80 78,80 78,90 "  />
</g>
<g id="a1_0010"  >
<polygon style="fill:white; stroke-width:1; stroke:black; " id="dummy-1_h1_2_10" class="clusterblast-orf" description="&lt;b&gt;BOX37_RS17325&lt;/b&gt;&lt;br&gt;SDR family oxidoreductase&lt;br&gt;Location: 3851293 - 3850481" locus_tag="BOX37_RS17325" points="87,90 88,90 93,85 88,80 87,80 87,90 "  />
</g>
<g id="a1_0011"  >
<polygon style="fill:white; stroke-width:1; stroke:black; " id="dummy-1_h1_2_11" class="clusterblast-orf" description="&lt;b&gt;BOX37_RS17320&lt;/b&gt;&lt;br&gt;hypothetical protein&lt;br&gt;Location: 3850448 - 3849159" locus_tag="BOX37_RS17320" points="94,90 99,90 104,85 99,80 94,80 94,90 "  />
</g>
<g id="a1_0012"  >
<polygon style="fill:white; stroke-width:1; stroke:black; " id="dummy-1_h1_2_12" class="clusterblast-orf" description="&lt;b&gt;BOX37_RS17315&lt;/b&gt;&lt;br&gt;IS630 family transposase&lt;br&gt;Location: 3849180 - 3848110" locus_tag="BOX37_RS17315" points="104,85 109,80 112,80 112,90 109,90 104,85 "  />
</g>
<g id="a1_0013"  >
<polygon style="fill:white; stroke-width:1; stroke:black; " id="dummy-1_h1_2_13" class="clusterblast-orf" description="&lt;b&gt;BOX37_RS17310&lt;/b&gt;&lt;br&gt;FAD-dependent oxidoreductase&lt;br&gt;Location: 3847992 - 3847153" locus_tag="BOX37_RS17310" points="113,90 115,90 120,85 115,80 113,80 113,90 "  />
</g>
<g id="a1_0014"  >
<polygon style="fill:white; stroke-width:1; stroke:black; " id="dummy-1_h1_2_14" class="clusterblast-orf" description="&lt;b&gt;BOX37_RS17300&lt;/b&gt;&lt;br&gt;helix-turn-helix domain-containing protein&lt;br&gt;Location: 3846018 - 3844786" locus_tag="BOX37_RS17300" points="129,90 133,90 138,85 133,80 129,80 129,90 "  />
</g>
<g id="a1_0015"  >
<polygon style="fill:white; stroke-width:1; stroke:black; " id="dummy-1_h1_2_15" class="clusterblast-orf" description="&lt;b&gt;BOX37_RS17295&lt;/b&gt;&lt;br&gt;non-ribosomal peptide synthetase&lt;br&gt;Location: 3844485 - 3841513" locus_tag="BOX37_RS17295" points="141,90 159,90 164,85 159,80 141,80 141,90 "  />
</g>
<g id="a1_0016"  >
<polygon style="fill:white; stroke-width:1; stroke:black; " id="dummy-1_h1_2_16" class="clusterblast-orf" description="&lt;b&gt;BOX37_RS17290&lt;/b&gt;&lt;br&gt;helix-turn-helix domain-containing protein&lt;br&gt;Location: 3840598 - 3840104" locus_tag="BOX37_RS17290" points="171,90 175,85 171,80 171,90 "  />
</g>
<g id="a1_0017"  >
<polygon style="fill:white; stroke-width:1; stroke:black; " id="dummy-1_h1_2_17" class="clusterblast-orf" description="&lt;b&gt;BOX37_RS17285&lt;/b&gt;&lt;br&gt;AMP-binding protein&lt;br&gt;Location: 3838380 - 3836767" locus_tag="BOX37_RS17285" points="189,90 197,90 202,85 197,80 189,80 189,90 "  />
</g>
<g id="a1_0018"  >
<polygon style="fill:white; stroke-width:1; stroke:black; " id="dummy-1_h1_2_18" class="clusterblast-orf" description="&lt;b&gt;BOX37_RS17280&lt;/b&gt;&lt;br&gt;salicylate synthase&lt;br&gt;Location: 3836711 - 3835362" locus_tag="BOX37_RS17280" points="202,85 207,80 213,80 213,90 207,90 202,85 "  />
</g>
<g id="a1_0019"  >
<polygon style="fill:#d8d015; stroke-width:1; stroke:black; " id="dummy-1_h1_2_19" class="clusterblast-orf" description="&lt;b&gt;BOX37_RS17275&lt;/b&gt;&lt;br&gt;ATP-binding cassette domain-containing protein&lt;br&gt;Location: 3835010 - 3832419&lt;br&gt;&lt;br&gt;&lt;b&gt;BlastP hit with cds60978_63600&lt;/b&gt;&lt;br&gt;Percentage identity: 74&lt;br&gt;Percentage coverage: 100&lt;br&gt;BLAST bit score: 1235&lt;br&gt;E-value: 0.0" locus_tag="BOX37_RS17275" points="215,90 231,90 236,85 231,80 215,80 215,90 "  />
</g>
<g id="a1_0020"  >
<polygon style="fill:#d8d015; stroke-width:1; stroke:black; " id="dummy-1_h1_2_20" class="clusterblast-orf" description="&lt;b&gt;BOX37_RS17270&lt;/b&gt;&lt;br&gt;ABC transporter ATP-binding protein&lt;br&gt;Location: 3832422 - 3830668&lt;br&gt;&lt;br&gt;&lt;b&gt;BlastP hit with cds59233_60982&lt;/b&gt;&lt;br&gt;Percentage identity: 73&lt;br&gt;Percentage coverage: 99&lt;br&gt;BLAST bit score: 768&lt;br&gt;E-value: 5.5e-220&lt;br&gt;&lt;br&gt;&lt;b&gt;BlastP hit with cds60978_63600&lt;/b&gt;&lt;br&gt;Percentage identity: 31&lt;br&gt;Percentage coverage: 65&lt;br&gt;BLAST bit score: 187&lt;br&gt;E-value: 4.6e-45" locus_tag="BOX37_RS17270" points="236,90 245,90 250,85 245,80 236,80 236,90 "  />
</g>
<g id="a1_0021"  >
<polygon style="fill:#54d815; stroke-width:1; stroke:black; " id="dummy-1_h1_2_21" class="clusterblast-orf" description="&lt;b&gt;BOX37_RS17265&lt;/b&gt;&lt;br&gt;non-ribosomal peptide synthetase&lt;br&gt;Location: 3830397 - 3826393&lt;br&gt;&lt;br&gt;&lt;b&gt;BlastP hit with cds40297_40963&lt;/b&gt;&lt;br&gt;Percentage identity: 72&lt;br&gt;Percentage coverage: 86&lt;br&gt;BLAST bit score: 296&lt;br&gt;E-value: 2.3e-78" locus_tag="BOX37_RS17265" points="252,90 278,90 283,85 278,80 252,80 252,90 "  />
</g>
<g id="a1_0022"  >
<polygon style="fill:#15c1d8; stroke-width:1; stroke:black; " id="dummy-1_h1_2_22" class="clusterblast-orf" description="&lt;b&gt;BOX37_RS17260&lt;/b&gt;&lt;br&gt;siderophore biosynthesis protein&lt;br&gt;Location: 3826396 - 3824564&lt;br&gt;&lt;br&gt;&lt;b&gt;BlastP hit with cds40987_42808&lt;/b&gt;&lt;br&gt;Percentage identity: 74&lt;br&gt;Percentage coverage: 96&lt;br&gt;BLAST bit score: 908&lt;br&gt;E-value: 4.6e-262" locus_tag="BOX37_RS17260" points="283,90 293,90 298,85 293,80 283,80 283,90 "  />
</g>
<g id="a1_0023"  >
<polygon style="fill:#8215d8; stroke-width:1; stroke:black; " id="dummy-1_h1_2_23" class="clusterblast-orf" description="&lt;b&gt;BOX37_RS17255&lt;/b&gt;&lt;br&gt;penicillin acylase family protein&lt;br&gt;Location: 3824567 - 3822210&lt;br&gt;&lt;br&gt;&lt;b&gt;BlastP hit with cds42804_45156&lt;/b&gt;&lt;br&gt;Percentage identity: 68&lt;br&gt;Percentage coverage: 97&lt;br&gt;BLAST bit score: 1065&lt;br&gt;E-value: 2.9e-309" locus_tag="BOX37_RS17255" points="298,90 311,90 316,85 311,80 298,80 298,90 "  />
</g>
<g id="a1_0024"  >
<polygon style="fill:#d84415; stroke-width:1; stroke:black; " id="dummy-1_h1_2_24" class="clusterblast-orf" description="&lt;b&gt;BOX37_RS17250&lt;/b&gt;&lt;br&gt;hypothetical protein&lt;br&gt;Location: 3822213 - 3820741&lt;br&gt;&lt;br&gt;&lt;b&gt;BlastP hit with cds45152_46736&lt;/b&gt;&lt;br&gt;Percentage identity: 61&lt;br&gt;Percentage coverage: 100&lt;br&gt;BLAST bit score: 575&lt;br&gt;E-value: 4.7e-162" locus_tag="BOX37_RS17250" points="316,90 323,90 328,85 323,80 316,80 316,90 "  />
</g>
<g id="a1_0025"  >
<polygon style="fill:#25d815; stroke-width:1; stroke:black; " id="dummy-1_h1_2_25" class="clusterblast-orf" description="&lt;b&gt;BOX37_RS17245&lt;/b&gt;&lt;br&gt;aspartate aminotransferase family protein&lt;br&gt;Location: 3820636 - 3819107&lt;br&gt;&lt;br&gt;&lt;b&gt;BlastP hit with cds46825_48367&lt;/b&gt;&lt;br&gt;Percentage identity: 82&lt;br&gt;Percentage coverage: 99&lt;br&gt;BLAST bit score: 820&lt;br&gt;E-value: 1.1e-235" locus_tag="BOX37_RS17245" points="329,90 336,90 341,85 336,80 329,80 329,90 "  />
</g>
<g id="a1_0026"  >
<polygon style="fill:#1592d8; stroke-width:1; stroke:black; " id="dummy-1_h1_2_26" class="clusterblast-orf" description="&lt;b&gt;BOX37_RS17240&lt;/b&gt;&lt;br&gt;SidA/IucD/PvdA family monooxygenase&lt;br&gt;Location: 3819114 - 3817801&lt;br&gt;&lt;br&gt;&lt;b&gt;BlastP hit with cds48359_49673&lt;/b&gt;&lt;br&gt;Percentage identity: 76&lt;br&gt;Percentage coverage: 100&lt;br&gt;BLAST bit score: 686&lt;br&gt;E-value: 1.6e-195" locus_tag="BOX37_RS17240" points="341,90 346,90 351,85 346,80 341,80 341,90 "  />
</g>
<g id="a1_0027"  >
<polygon style="fill:#b115d8; stroke-width:1; stroke:black; " id="dummy-1_h1_2_27" class="clusterblast-orf" description="&lt;b&gt;BOX37_RS17235&lt;/b&gt;&lt;br&gt;acyl carrier protein&lt;br&gt;Location: 3817632 - 3817384&lt;br&gt;&lt;br&gt;&lt;b&gt;BlastP hit with cds49725_49968&lt;/b&gt;&lt;br&gt;Percentage identity: 81&lt;br&gt;Percentage coverage: 100&lt;br&gt;BLAST bit score: 123&lt;br&gt;E-value: 1.3e-26" locus_tag="BOX37_RS17235" points="353,90 354,85 353,80 353,90 "  />
</g>
<g id="a1_0028"  >
<polygon style="fill:#d87315; stroke-width:1; stroke:black; " id="dummy-1_h1_2_28" class="clusterblast-orf" description="&lt;b&gt;BOX37_RS17230&lt;/b&gt;&lt;br&gt;acyl-CoA/acyl-ACP dehydrogenase&lt;br&gt;Location: 3817387 - 3816224&lt;br&gt;&lt;br&gt;&lt;b&gt;BlastP hit with cds49964_51131&lt;/b&gt;&lt;br&gt;Percentage identity: 77&lt;br&gt;Percentage coverage: 98&lt;br&gt;BLAST bit score: 589&lt;br&gt;E-value: 1.8e-166" locus_tag="BOX37_RS17230" points="354,90 359,90 364,85 359,80 354,80 354,90 "  />
</g>
<g id="a1_0029"  >
<polygon style="fill:#15d834; stroke-width:1; stroke:black; " id="dummy-1_h1_2_29" class="clusterblast-orf" description="&lt;b&gt;BOX37_RS17225&lt;/b&gt;&lt;br&gt;diacylglycerol O-acyltransferase&lt;br&gt;Location: 3816212 - 3814971&lt;br&gt;&lt;br&gt;&lt;b&gt;BlastP hit with cds51127_52411&lt;/b&gt;&lt;br&gt;Percentage identity: 71&lt;br&gt;Percentage coverage: 96&lt;br&gt;BLAST bit score: 592&lt;br&gt;E-value: 4e-167" locus_tag="BOX37_RS17225" points="364,90 369,90 374,85 369,80 364,80 364,90 "  />
</g>
<g id="a1_0030"  >
<polygon style="fill:#1563d8; stroke-width:1; stroke:black; " id="dummy-1_h1_2_30" class="clusterblast-orf" description="&lt;b&gt;BOX37_RS17220&lt;/b&gt;&lt;br&gt;AMP-binding protein&lt;br&gt;Location: 3814926 - 3813289&lt;br&gt;&lt;br&gt;&lt;b&gt;BlastP hit with cds52434_54072&lt;/b&gt;&lt;br&gt;Percentage identity: 71&lt;br&gt;Percentage coverage: 100&lt;br&gt;BLAST bit score: 727&lt;br&gt;E-value: 7.7e-208" locus_tag="BOX37_RS17220" points="374,90 382,90 387,85 382,80 374,80 374,90 "  />
</g>
<g id="a1_0031"  >
<polygon style="fill:#1534d8; stroke-width:1; stroke:black; " id="dummy-1_h1_2_31" class="clusterblast-orf" description="&lt;b&gt;BOX37_RS17215&lt;/b&gt;&lt;br&gt;hypothetical protein&lt;br&gt;Location: 3813184 - 3812702&lt;br&gt;&lt;br&gt;&lt;b&gt;BlastP hit with cds57013_57496&lt;/b&gt;&lt;br&gt;Percentage identity: 74&lt;br&gt;Percentage coverage: 100&lt;br&gt;BLAST bit score: 257&lt;br&gt;E-value: 1.1e-66" locus_tag="BOX37_RS17215" points="388,90 391,85 388,80 388,90 "  />
</g>
<g id="a1_0032"  >
<polygon style="fill:#15d863; stroke-width:1; stroke:black; " id="dummy-1_h1_2_32" class="clusterblast-orf" description="&lt;b&gt;BOX37_RS17210&lt;/b&gt;&lt;br&gt;ATP-binding cassette domain-containing protein&lt;br&gt;Location: 3812592 - 3811855&lt;br&gt;&lt;br&gt;&lt;b&gt;BlastP hit with cds55857_56811&lt;/b&gt;&lt;br&gt;Percentage identity: 33&lt;br&gt;Percentage coverage: 70&lt;br&gt;BLAST bit score: 117&lt;br&gt;E-value: 2.8e-24&lt;br&gt;&lt;br&gt;&lt;b&gt;BlastP hit with cds57617_58358&lt;/b&gt;&lt;br&gt;Percentage identity: 80&lt;br&gt;Percentage coverage: 99&lt;br&gt;BLAST bit score: 393&lt;br&gt;E-value: 1.2e-107" locus_tag="BOX37_RS17210" points="392,90 393,90 398,85 393,80 392,80 392,90 "  />
</g>
<g id="a1_0033"  >
<polygon style="fill:#d815a2; stroke-width:1; stroke:black; " id="dummy-1_h1_2_33" class="clusterblast-orf" description="&lt;b&gt;BOX37_RS17205&lt;/b&gt;&lt;br&gt;ABC transporter permease&lt;br&gt;Location: 3811855 - 3811067&lt;br&gt;&lt;br&gt;&lt;b&gt;BlastP hit with cds58354_59143&lt;/b&gt;&lt;br&gt;Percentage identity: 72&lt;br&gt;Percentage coverage: 100&lt;br&gt;BLAST bit score: 383&lt;br&gt;E-value: 1.3e-104" locus_tag="BOX37_RS17205" points="398,90 399,90 404,85 399,80 398,80 398,90 "  />
</g>
<g id="a1_0034"  >
<polygon style="fill:#d815d0; stroke-width:1; stroke:black; " id="dummy-1_h1_2_34" class="clusterblast-orf" description="&lt;b&gt;BOX37_RS17200&lt;/b&gt;&lt;br&gt;ABC transporter permease&lt;br&gt;Location: 3811030 - 3810218&lt;br&gt;&lt;br&gt;&lt;b&gt;BlastP hit with cds54182_55040&lt;/b&gt;&lt;br&gt;Percentage identity: 84&lt;br&gt;Percentage coverage: 92&lt;br&gt;BLAST bit score: 435&lt;br&gt;E-value: 5.4e-120" locus_tag="BOX37_RS17200" points="405,85 410,80 411,80 411,90 410,90 405,85 "  />
</g>
<g id="a1_0035"  >
<polygon style="fill:#d8a215; stroke-width:1; stroke:black; " id="dummy-1_h1_2_35" class="clusterblast-orf" description="&lt;b&gt;BOX37_RS17195&lt;/b&gt;&lt;br&gt;ABC transporter permease&lt;br&gt;Location: 3810221 - 3809403&lt;br&gt;&lt;br&gt;&lt;b&gt;BlastP hit with cds55036_55858&lt;/b&gt;&lt;br&gt;Percentage identity: 75&lt;br&gt;Percentage coverage: 97&lt;br&gt;BLAST bit score: 374&lt;br&gt;E-value: 8.3e-102" locus_tag="BOX37_RS17195" points="411,85 416,80 417,80 417,90 416,90 411,85 "  />
</g>
<g id="a1_0036"  >
<polygon style="fill:#15d863; stroke-width:1; stroke:black; " id="dummy-1_h1_2_36" class="clusterblast-orf" description="&lt;b&gt;BOX37_RS17190&lt;/b&gt;&lt;br&gt;ATP-binding cassette domain-containing protein&lt;br&gt;Location: 3809403 - 3808429&lt;br&gt;&lt;br&gt;&lt;b&gt;BlastP hit with cds55857_56811&lt;/b&gt;&lt;br&gt;Percentage identity: 84&lt;br&gt;Percentage coverage: 98&lt;br&gt;BLAST bit score: 499&lt;br&gt;E-value: 2e-139&lt;br&gt;&lt;br&gt;&lt;b&gt;BlastP hit with cds57617_58358&lt;/b&gt;&lt;br&gt;Percentage identity: 33&lt;br&gt;Percentage coverage: 106&lt;br&gt;BLAST bit score: 114&lt;br&gt;E-value: 1.8e-23" locus_tag="BOX37_RS17190" points="417,85 422,80 425,80 425,90 422,90 417,85 "  />
</g>
<g id="a1_0037"  >
<polygon style="fill:white; stroke-width:1; stroke:black; " id="dummy-1_h1_2_37" class="clusterblast-orf" description="&lt;b&gt;BOX37_RS17185&lt;/b&gt;&lt;br&gt;TetR family transcriptional regulator&lt;br&gt;Location: 3808145 - 3807501" locus_tag="BOX37_RS17185" points="427,85 432,80 432,80 432,90 432,90 427,85 "  />
</g>
<g id="a1_0038"  >
<polygon style="fill:white; stroke-width:1; stroke:black; " id="dummy-1_h1_2_38" class="clusterblast-orf" description="&lt;b&gt;BOX37_RS17180&lt;/b&gt;&lt;br&gt;FAD-binding protein&lt;br&gt;Location: 3807462 - 3806224" locus_tag="BOX37_RS17180" points="433,90 438,90 443,85 438,80 433,80 433,90 "  />
</g>
<g id="a1_0039"  >
<polygon style="fill:white; stroke-width:1; stroke:black; " id="dummy-1_h1_2_39" class="clusterblast-orf" description="&lt;b&gt;BOX37_RS17175&lt;/b&gt;&lt;br&gt;hypothetical protein&lt;br&gt;Location: 3806180 - 3804813" locus_tag="BOX37_RS17175" points="443,85 448,80 454,80 454,90 448,90 443,85 "  />
</g>
<g id="a1_0040"  >
<polygon style="fill:white; stroke-width:1; stroke:black; " id="dummy-1_h1_2_40" class="clusterblast-orf" description="&lt;b&gt;BOX37_RS17170&lt;/b&gt;&lt;br&gt;ABC transporter permease&lt;br&gt;Location: 3804802 - 3803966" locus_tag="BOX37_RS17170" points="454,85 459,80 460,80 460,90 459,90 454,85 "  />
</g>
<g id="a1_0041"  >
<polygon style="fill:#15d863; stroke-width:1; stroke:black; " id="dummy-1_h1_2_41" class="clusterblast-orf" description="&lt;b&gt;BOX37_RS17165&lt;/b&gt;&lt;br&gt;ATP-binding cassette domain-containing protein&lt;br&gt;Location: 3803944 - 3803006&lt;br&gt;&lt;br&gt;&lt;b&gt;BlastP hit with cds55857_56811&lt;/b&gt;&lt;br&gt;Percentage identity: 46&lt;br&gt;Percentage coverage: 100&lt;br&gt;BLAST bit score: 262&lt;br&gt;E-value: 7e-68&lt;br&gt;&lt;br&gt;&lt;b&gt;BlastP hit with cds57617_58358&lt;/b&gt;&lt;br&gt;Percentage identity: 35&lt;br&gt;Percentage coverage: 94&lt;br&gt;BLAST bit score: 119&lt;br&gt;E-value: 4.3e-25" locus_tag="BOX37_RS17165" points="461,85 466,80 468,80 468,90 466,90 461,85 "  />
</g>
<g id="a1_0042"  >
<polygon style="fill:white; stroke-width:1; stroke:black; " id="dummy-1_h1_2_42" class="clusterblast-orf" description="&lt;b&gt;BOX37_RS17160&lt;/b&gt;&lt;br&gt;glycosyltransferase family 1 protein&lt;br&gt;Location: 3803009 - 3801735" locus_tag="BOX37_RS17160" points="468,85 473,80 478,80 478,90 473,90 468,85 "  />
</g>
<g id="a1_0043"  >
<polygon style="fill:white; stroke-width:1; stroke:black; " id="dummy-1_h1_2_43" class="clusterblast-orf" description="&lt;b&gt;BOX37_RS17155&lt;/b&gt;&lt;br&gt;hypothetical protein&lt;br&gt;Location: 3801730 - 3800111" locus_tag="BOX37_RS17155" points="478,85 483,80 491,80 491,90 483,90 478,85 "  />
</g>
<g id="a1_0044"  >
<polygon style="fill:white; stroke-width:1; stroke:black; " id="dummy-1_h1_2_44" class="clusterblast-orf" description="&lt;b&gt;BOX37_RS17150&lt;/b&gt;&lt;br&gt;SnoaL-like domain-containing protein&lt;br&gt;Location: 3799564 - 3799193" locus_tag="BOX37_RS17150" points="495,90 498,85 495,80 495,90 "  />
</g>
<g id="a1_0045"  >
<polygon style="fill:white; stroke-width:1; stroke:black; " id="dummy-1_h1_2_45" class="clusterblast-orf" description="&lt;b&gt;BOX37_RS17145&lt;/b&gt;&lt;br&gt;hypothetical protein&lt;br&gt;Location: 3799188 - 3798850" locus_tag="BOX37_RS17145" points="498,85 501,80 501,90 498,85 "  />
</g>
<g id="a1_0046"  >
<polygon style="fill:white; stroke-width:1; stroke:black; " id="dummy-1_h1_2_46" class="clusterblast-orf" description="&lt;b&gt;BOX37_RS17140&lt;/b&gt;&lt;br&gt;2'-5' RNA ligase family protein&lt;br&gt;Location: 3798689 - 3797967" locus_tag="BOX37_RS17140" points="502,90 503,90 508,85 503,80 502,80 502,90 "  />
</g>
<g id="a1_0047"  >
<polygon style="fill:#b1d815; stroke-width:1; stroke:black; " id="dummy-1_h1_2_47" class="clusterblast-orf" description="&lt;b&gt;BOX37_RS17135&lt;/b&gt;&lt;br&gt;MMPL family transporter&lt;br&gt;Location: 3797768 - 3795603&lt;br&gt;&lt;br&gt;&lt;b&gt;BlastP hit with cds66730_68962&lt;/b&gt;&lt;br&gt;Percentage identity: 35&lt;br&gt;Percentage coverage: 96&lt;br&gt;BLAST bit score: 288&lt;br&gt;E-value: 1.6e-75" locus_tag="BOX37_RS17135" points="509,85 514,80 526,80 526,90 514,90 509,85 "  />
</g>
<g id="a1_0048"  >
<polygon style="fill:white; stroke-width:1; stroke:black; " id="dummy-1_h1_2_48" class="clusterblast-orf" description="&lt;b&gt;BOX37_RS17130&lt;/b&gt;&lt;br&gt;peptide synthetase&lt;br&gt;Location: 3795606 - 3794401" locus_tag="BOX37_RS17130" points="526,85 531,80 536,80 536,90 531,90 526,85 "  />
</g>
<g id="a1_0049"  >
<polygon style="fill:white; stroke-width:1; stroke:black; " id="dummy-1_h1_2_49" class="clusterblast-orf" description="&lt;b&gt;BOX37_RS17125&lt;/b&gt;&lt;br&gt;NAD-dependent epimerase/dehydratase family protein&lt;br&gt;Location: 3794371 - 3793328" locus_tag="BOX37_RS17125" points="536,85 541,80 544,80 544,90 541,90 536,85 "  />
</g>
<g id="a1_0050"  >
<polygon style="fill:white; stroke-width:1; stroke:black; " id="dummy-1_h1_2_50" class="clusterblast-orf" description="&lt;b&gt;BOX37_RS17120&lt;/b&gt;&lt;br&gt;AMP-binding protein&lt;br&gt;Location: 3793331 - 3791670" locus_tag="BOX37_RS17120" points="544,85 549,80 557,80 557,90 549,90 544,85 "  />
</g>
<g id="a1_0051"  >
<polygon style="fill:white; stroke-width:1; stroke:black; " id="dummy-1_h1_2_51" class="clusterblast-orf" description="&lt;b&gt;BOX37_RS17115&lt;/b&gt;&lt;br&gt;hypothetical protein&lt;br&gt;Location: 3791673 - 3790774" locus_tag="BOX37_RS17115" points="557,85 562,80 564,80 564,90 562,90 557,85 "  />
</g>
<g id="a1_0052"  >
<polygon style="fill:white; stroke-width:1; stroke:black; " id="dummy-1_h1_2_52" class="clusterblast-orf" description="&lt;b&gt;BOX37_RS17110&lt;/b&gt;&lt;br&gt;3-oxoacyl-ACP synthase&lt;br&gt;Location: 3790765 - 3789716" locus_tag="BOX37_RS17110" points="564,85 569,80 573,80 573,90 569,90 564,85 "  />
</g>
<g id="a1_0053"  >
<polygon style="fill:white; stroke-width:1; stroke:black; " id="dummy-1_h1_2_53" class="clusterblast-orf" description="&lt;b&gt;BOX37_RS17105&lt;/b&gt;&lt;br&gt;hypothetical protein&lt;br&gt;Location: 3789253 - 3787868" locus_tag="BOX37_RS17105" points="576,85 581,80 587,80 587,90 581,90 576,85 "  />
</g>
<g id="a1_0054"  >
<polygon style="fill:white; stroke-width:1; stroke:black; " id="dummy-1_h1_2_54" class="clusterblast-orf" description="&lt;b&gt;BOX37_RS17100&lt;/b&gt;&lt;br&gt;ABC transporter permease&lt;br&gt;Location: 3787857 - 3787033" locus_tag="BOX37_RS17100" points="587,85 592,80 594,80 594,90 592,90 587,85 "  />
</g>
<g id="a1_0055"  >
<polygon style="fill:#15d863; stroke-width:1; stroke:black; " id="dummy-1_h1_2_55" class="clusterblast-orf" description="&lt;b&gt;BOX37_RS17095&lt;/b&gt;&lt;br&gt;ATP-binding cassette domain-containing protein&lt;br&gt;Location: 3787003 - 3786041&lt;br&gt;&lt;br&gt;&lt;b&gt;BlastP hit with cds55857_56811&lt;/b&gt;&lt;br&gt;Percentage identity: 46&lt;br&gt;Percentage coverage: 99&lt;br&gt;BLAST bit score: 263&lt;br&gt;E-value: 2.4e-68&lt;br&gt;&lt;br&gt;&lt;b&gt;BlastP hit with cds57617_58358&lt;/b&gt;&lt;br&gt;Percentage identity: 33&lt;br&gt;Percentage coverage: 93&lt;br&gt;BLAST bit score: 110&lt;br&gt;E-value: 2e-22" locus_tag="BOX37_RS17095" points="594,85 599,80 602,80 602,90 599,90 594,85 "  />
</g>
<g id="a1_0056"  >
<polygon style="fill:white; stroke-width:1; stroke:black; " id="dummy-1_h1_2_56" class="clusterblast-orf" description="&lt;b&gt;BOX37_RS17090&lt;/b&gt;&lt;br&gt;glycosyltransferase family 1 protein&lt;br&gt;Location: 3786044 - 3784788" locus_tag="BOX37_RS17090" points="602,85 607,80 612,80 612,90 607,90 602,85 "  />
</g>
<g id="a1_0057"  >
<polygon style="fill:white; stroke-width:1; stroke:black; " id="dummy-1_h1_2_57" class="clusterblast-orf" description="&lt;b&gt;BOX37_RS17085&lt;/b&gt;&lt;br&gt;hypothetical protein&lt;br&gt;Location: 3784785 - 3783358" locus_tag="BOX37_RS17085" points="612,85 617,80 623,80 623,90 617,90 612,85 "  />
</g>
<g id="a1_0058"  >
<polygon style="fill:white; stroke-width:1; stroke:black; " id="dummy-1_h1_2_58" class="clusterblast-orf" description="&lt;b&gt;BOX37_RS17080&lt;/b&gt;&lt;br&gt;TVP38/TMEM64 family protein&lt;br&gt;Location: 3783027 - 3782368" locus_tag="BOX37_RS17080" points="626,85 631,80 631,80 631,90 631,90 626,85 "  />
</g>
<g id="a1_0059"  >
<polygon style="fill:white; stroke-width:1; stroke:black; " id="dummy-1_h1_2_59" class="clusterblast-orf" description="&lt;b&gt;BOX37_RS17075&lt;/b&gt;&lt;br&gt;methylmalonyl-CoA mutase&lt;br&gt;Location: 3782195 - 3780324" locus_tag="BOX37_RS17075" points="632,90 642,90 647,85 642,80 632,80 632,90 "  />
</g>
<g id="a1_0060"  >
<polygon style="fill:white; stroke-width:1; stroke:black; " id="dummy-1_h1_2_60" class="clusterblast-orf" description="&lt;b&gt;BOX37_RS17070&lt;/b&gt;&lt;br&gt;methylmalonyl-CoA mutase&lt;br&gt;Location: 3780324 - 3778060" locus_tag="BOX37_RS17070" points="647,90 660,90 665,85 660,80 647,80 647,90 "  />
</g>
<g id="a1_0061"  >
<polygon style="fill:white; stroke-width:1; stroke:black; " id="dummy-1_h1_2_61" class="clusterblast-orf" description="&lt;b&gt;BOX37_RS17065&lt;/b&gt;&lt;br&gt;methylmalonyl Co-A mutase-associated GTPase MeaB&lt;br&gt;Location: 3778063 - 3776966" locus_tag="BOX37_RS17065" points="665,90 668,90 673,85 668,80 665,80 665,90 "  />
</g>
<g id="a1_0062"  >
<polygon style="fill:white; stroke-width:1; stroke:black; " id="dummy-1_h1_2_62" class="clusterblast-orf" description="&lt;b&gt;BOX37_RS17060&lt;/b&gt;&lt;br&gt;hypothetical protein&lt;br&gt;Location: 3776765 - 3776436" locus_tag="BOX37_RS17060" points="675,90 678,85 675,80 675,90 "  />
</g>
<g id="a1_0063"  >
<polygon style="fill:white; stroke-width:1; stroke:black; " id="dummy-1_h1_2_63" class="clusterblast-orf" description="&lt;b&gt;BOX37_RS17055&lt;/b&gt;&lt;br&gt;helix-turn-helix transcriptional regulator&lt;br&gt;Location: 3776389 - 3776024" locus_tag="BOX37_RS17055" points="678,90 681,85 678,80 678,90 "  />
</g>
<g id="a1_0064"  >
<polygon style="fill:white; stroke-width:1; stroke:black; " id="dummy-1_h1_2_64" class="clusterblast-orf" description="&lt;b&gt;BOX37_RS17050&lt;/b&gt;&lt;br&gt;hypothetical protein&lt;br&gt;Location: 3776027 - 3775554" locus_tag="BOX37_RS17050" points="681,90 684,85 681,80 681,90 "  />
</g>
<g id="a1_0065"  >
<polygon style="fill:white; stroke-width:1; stroke:black; " id="dummy-1_h1_2_65" class="clusterblast-orf" description="&lt;b&gt;BOX37_RS17045&lt;/b&gt;&lt;br&gt;multicopper oxidase domain-containing protein&lt;br&gt;Location: 3775545 - 3774058" locus_tag="BOX37_RS17045" points="685,85 690,80 696,80 696,90 690,90 685,85 "  />
</g>
<g id="a1_0066"  >
<polygon style="fill:white; stroke-width:1; stroke:black; " id="dummy-1_h1_2_66" class="clusterblast-orf" description="&lt;b&gt;BOX37_RS17040&lt;/b&gt;&lt;br&gt;two-component sensor histidine kinase&lt;br&gt;Location: 3773898 - 3772765" locus_tag="BOX37_RS17040" points="698,90 701,90 706,85 701,80 698,80 698,90 "  />
</g>
<g id="a1_0067"  >
<polygon style="fill:white; stroke-width:1; stroke:black; " id="dummy-1_h1_2_67" class="clusterblast-orf" description="&lt;b&gt;BOX37_RS17035&lt;/b&gt;&lt;br&gt;response regulator transcription factor&lt;br&gt;Location: 3772768 - 3772139" locus_tag="BOX37_RS17035" points="706,90 706,90 711,85 706,80 706,80 706,90 "  />
</g>
<g id="a1_0068"  >
<polygon style="fill:white; stroke-width:1; stroke:black; " id="dummy-1_h1_2_68" class="clusterblast-orf" description="&lt;b&gt;BOX37_RS17030&lt;/b&gt;&lt;br&gt;esterase family protein&lt;br&gt;Location: 3771991 - 3770951" locus_tag="BOX37_RS17030" points="713,90 716,90 721,85 716,80 713,80 713,90 "  />
</g>
<g id="a1_0069"  >
<polygon style="fill:white; stroke-width:1; stroke:black; " id="dummy-1_h1_2_69" class="clusterblast-orf" description="&lt;b&gt;BOX37_RS17025&lt;/b&gt;&lt;br&gt;amidohydrolase&lt;br&gt;Location: 3770950 - 3770069" locus_tag="BOX37_RS17025" points="721,85 726,80 728,80 728,90 726,90 721,85 "  />
</g>
<g id="a1_0070"  >
<polygon style="fill:white; stroke-width:1; stroke:black; " id="dummy-1_h1_2_70" class="clusterblast-orf" description="&lt;b&gt;BOX37_RS17020&lt;/b&gt;&lt;br&gt;nucleoside hydrolase&lt;br&gt;Location: 3770072 - 3769029" locus_tag="BOX37_RS17020" points="728,85 733,80 736,80 736,90 733,90 728,85 "  />
</g>
<g id="a1_0071"  >
<polygon style="fill:white; stroke-width:1; stroke:black; " id="dummy-1_h1_2_71" class="clusterblast-orf" description="&lt;b&gt;BOX37_RS17015&lt;/b&gt;&lt;br&gt;hypothetical protein&lt;br&gt;Location: 3768878 - 3767136" locus_tag="BOX37_RS17015" points="737,85 742,80 751,80 751,90 742,90 737,85 "  />
</g>
<g id="a1_0072"  >
<polygon style="fill:white; stroke-width:1; stroke:black; " id="dummy-1_h1_2_72" class="clusterblast-orf" description="&lt;b&gt;BOX37_RS17010&lt;/b&gt;&lt;br&gt;hypothetical protein&lt;br&gt;Location: 3767153 - 3766536" locus_tag="BOX37_RS17010" points="751,90 751,90 756,85 751,80 751,80 751,90 "  />
</g>
<g id="a1_0073"  >
<polygon style="fill:white; stroke-width:1; stroke:black; " id="dummy-1_h1_2_73" class="clusterblast-orf" description="&lt;b&gt;BOX37_RS17005&lt;/b&gt;&lt;br&gt;DUF2784 domain-containing protein&lt;br&gt;Location: 3766529 - 3766149" locus_tag="BOX37_RS17005" points="756,85 759,80 759,90 756,85 "  />
</g>
<g id="a1_0074"  >
<polygon style="fill:white; stroke-width:1; stroke:black; " id="dummy-1_h1_2_74" class="clusterblast-orf" description="&lt;b&gt;BOX37_RS17000&lt;/b&gt;&lt;br&gt;SDR family oxidoreductase&lt;br&gt;Location: 3766076 - 3764646" locus_tag="BOX37_RS17000" points="759,85 764,80 771,80 771,90 764,90 759,85 "  />
</g>
<g id="a1_0075"  >
<polygon style="fill:white; stroke-width:1; stroke:black; " id="dummy-1_h1_2_75" class="clusterblast-orf" description="&lt;b&gt;BOX37_RS16995&lt;/b&gt;&lt;br&gt;TetR/AcrR family transcriptional regulator&lt;br&gt;Location: 3764659 - 3763859" locus_tag="BOX37_RS16995" points="770,90 772,90 777,85 772,80 770,80 770,90 "  />
</g>
<g id="a1_0076"  >
<polygon style="fill:white; stroke-width:1; stroke:black; " id="dummy-1_h1_2_76" class="clusterblast-orf" description="&lt;b&gt;BOX37_RS16990&lt;/b&gt;&lt;br&gt;hypothetical protein&lt;br&gt;Location: 3763862 - 3763506" locus_tag="BOX37_RS16990" points="777,85 780,80 780,90 777,85 "  />
</g>
</svg>
