<svg xmlns:xlink="http://www.w3.org/1999/xlink" x="0" preserveAspectRatio="none" version="1.1" height="230" viewBox="0 0 800 230" y="0" xmlns="http://www.w3.org/2000/svg" width="800"  >
<g label="Query sequence" class="clusterblast-cluster"  >
<text class="clusterblast-acc" x="5" y="20"  >
Query sequence</text>
<line y2="35" x1="10" style="stroke-width:1; stroke:grey; " y1="35" x2="778.0"  />
<polygon style="fill:#d81515; stroke-width:1; stroke:black; " id="dummy-1_q0_0_all" class="clusterblast-orf" description="&lt;b&gt;cds9386_10610&lt;/b&gt;&lt;br&gt;putative cytochrome P450&lt;br&gt;Location: 9386 - 10610" locus_tag="cds9386_10610" points="321,40 325,40 330,35 325,30 321,30 321,40 "  />
<polygon style="fill:#56d815; stroke-width:1; stroke:black; " id="dummy-1_q1_0_all" class="clusterblast-orf" description="&lt;b&gt;cds10650_11337&lt;/b&gt;&lt;br&gt;hypothetical protein&lt;br&gt;Location: 10650 - 11337" locus_tag="cds10650_11337" points="330,35 335,30 335,30 335,40 335,40 330,35 "  />
<polygon style="fill:white; stroke-width:1; stroke:black; " id="dummy-1_q2_0_all" class="clusterblast-orf" description="&lt;b&gt;cds11419_11563&lt;/b&gt;&lt;br&gt;hypothetical protein&lt;br&gt;Location: 11419 - 11563" locus_tag="cds11419_11563" points="335,40 336,35 335,30 335,40 "  />
<polygon style="fill:#1597d8; stroke-width:1; stroke:black; " id="dummy-1_q3_0_all" class="clusterblast-orf" description="&lt;b&gt;cds11612_12995&lt;/b&gt;&lt;br&gt;hypothetical protein&lt;br&gt;Location: 11612 - 12995" locus_tag="cds11612_12995" points="337,35 342,30 346,30 346,40 342,40 337,35 "  />
<polygon style="fill:#9715d8; stroke-width:1; stroke:black; " id="dummy-1_q4_0_all" class="clusterblast-orf" description="&lt;b&gt;cds13011_13785&lt;/b&gt;&lt;br&gt;hypothetical protein&lt;br&gt;Location: 13011 - 13785" locus_tag="cds13011_13785" points="346,35 351,30 352,30 352,40 351,40 346,35 "  />
<polygon style="fill:#d85615; stroke-width:1; stroke:black; " id="dummy-1_q5_0_all" class="clusterblast-orf" description="&lt;b&gt;cds13826_14453&lt;/b&gt;&lt;br&gt;hypothetical protein&lt;br&gt;Location: 13826 - 14453" locus_tag="cds13826_14453" points="352,35 356,30 356,40 352,35 "  />
<polygon style="fill:#15d815; stroke-width:1; stroke:black; " id="dummy-1_q6_0_all" class="clusterblast-orf" description="&lt;b&gt;cds14522_15317&lt;/b&gt;&lt;br&gt;transglutaminase domain protein&lt;br&gt;Location: 14522 - 15317" locus_tag="cds14522_15317" points="357,35 362,30 362,30 362,40 362,40 357,35 "  />
<polygon style="fill:#1556d8; stroke-width:1; stroke:black; " id="dummy-1_q7_0_all" class="clusterblast-orf" description="&lt;b&gt;cds15473_16598&lt;/b&gt;&lt;br&gt;Glycosyltransferase&lt;br&gt;Location: 15473 - 16598" locus_tag="cds15473_16598" points="363,40 366,40 371,35 366,30 363,30 363,40 "  />
<polygon style="fill:#d815d8; stroke-width:1; stroke:black; " id="dummy-1_q8_0_all" class="clusterblast-orf" description="&lt;b&gt;cds16594_18139&lt;/b&gt;&lt;br&gt;Exoenzymes regulatory protein AepA precursor&lt;br&gt;Location: 16594 - 18139" locus_tag="cds16594_18139" points="371,35 376,30 382,30 382,40 376,40 371,35 "  />
<polygon style="fill:#d89715; stroke-width:1; stroke:black; " id="dummy-1_q9_0_all" class="clusterblast-orf" description="&lt;b&gt;cds18487_19468&lt;/b&gt;&lt;br&gt;FIG01126363: hypothetical protein&lt;br&gt;Location: 18487 - 19468" locus_tag="cds18487_19468" points="384,40 386,40 391,35 386,30 384,30 384,40 "  />
<polygon style="fill:#15d856; stroke-width:1; stroke:black; " id="dummy-1_q10_0_all" class="clusterblast-orf" description="&lt;b&gt;cds19596_20787&lt;/b&gt;&lt;br&gt;Geranylgeranyl diphosphate synthase (EC 2.5.1.29)&lt;br&gt;Location: 19596 - 20787" locus_tag="cds19596_20787" points="392,40 395,40 400,35 395,30 392,30 392,40 "  />
<polygon style="fill:#1515d8; stroke-width:1; stroke:black; " id="dummy-1_q11_0_all" class="clusterblast-orf" description="&lt;b&gt;cds20806_21391&lt;/b&gt;&lt;br&gt;hypothetical protein&lt;br&gt;Location: 20806 - 21391" locus_tag="cds20806_21391" points="400,35 404,30 404,40 400,35 "  />
<polygon style="fill:#d81597; stroke-width:1; stroke:black; " id="dummy-1_q12_0_all" class="clusterblast-orf" description="&lt;b&gt;cds21493_21931&lt;/b&gt;&lt;br&gt;Transcriptional regulator, MarR family&lt;br&gt;Location: 21493 - 21931" locus_tag="cds21493_21931" points="405,35 408,30 408,40 405,35 "  />
<polygon style="fill:#d8d815; stroke-width:1; stroke:black; " id="dummy-1_q13_0_all" class="clusterblast-orf" description="&lt;b&gt;cds21976_22597&lt;/b&gt;&lt;br&gt;hypothetical protein&lt;br&gt;Location: 21976 - 22597" locus_tag="cds21976_22597" points="408,40 408,40 413,35 408,30 408,30 408,40 "  />
<polygon style="fill:#15d897; stroke-width:1; stroke:black; " id="dummy-1_q14_0_all" class="clusterblast-orf" description="&lt;b&gt;cds22778_23723&lt;/b&gt;&lt;br&gt;hypothetical protein&lt;br&gt;Location: 22778 - 23723" locus_tag="cds22778_23723" points="414,40 415,40 420,35 415,30 414,30 414,40 "  />
<polygon style="fill:#5615d8; stroke-width:1; stroke:black; " id="dummy-1_q15_0_all" class="clusterblast-orf" description="&lt;b&gt;cds23730_24720&lt;/b&gt;&lt;br&gt;TRAP transporter solute receptor, TAXI family precursor&lt;br&gt;Location: 23730 - 24720" locus_tag="cds23730_24720" points="421,35 426,30 427,30 427,40 426,40 421,35 "  />
<polygon style="fill:#d81556; stroke-width:1; stroke:black; " id="dummy-1_q16_0_all" class="clusterblast-orf" description="&lt;b&gt;cds24716_26840&lt;/b&gt;&lt;br&gt;TRAP-type uncharacterized transport system, fused permease component&lt;br&gt;Location: 24716 - 26840" locus_tag="cds24716_26840" points="427,35 432,30 442,30 442,40 432,40 427,35 "  />
<polygon style="fill:#97d815; stroke-width:1; stroke:black; " id="dummy-1_q17_0_all" class="clusterblast-orf" description="&lt;b&gt;cds26946_27672&lt;/b&gt;&lt;br&gt;putative membrane-associated phospholipid phosphatase, PAP2 superfamily&lt;br&gt;Location: 26946 - 27672" locus_tag="cds26946_27672" points="443,35 448,30 448,30 448,40 448,40 443,35 "  />
<polygon style="fill:#15d8d8; stroke-width:1; stroke:black; " id="dummy-1_q18_0_all" class="clusterblast-orf" description="&lt;b&gt;cds27965_29123&lt;/b&gt;&lt;br&gt;hypothetical protein&lt;br&gt;Location: 27965 - 29123" locus_tag="cds27965_29123" points="450,40 453,40 458,35 453,30 450,30 450,40 "  />
</g>
<g label="NZ_CP023778" class="clusterblast-cluster" description="NZ_CP023778 (5994862-6107669): Nocardia terpenica strain NC YFY NT001 chromos... (3% of genes show similarity), NRPS,terpene"  >
<text class="clusterblast-acc" x="5" y="70"  >
<a xlink:href="https://antismash-db.secondarymetabolites.org/area.html?record=NZ_CP023778&amp;start=5994862&amp;end=6107669" target="_blank">NZ_CP023778 (5994862-6107669)</a>: Nocardia terpenica strain NC YFY NT001 chromos... (3% of genes show similarity), NRPS,terpene</text>
<line y2="85" x1="10" style="stroke-width:1; stroke:grey; " y1="85" x2="778.0"  />
</g>
<g id="a1_000"  >
<polygon style="fill:white; stroke-width:1; stroke:black; " id="dummy-1_h1_4_0" class="clusterblast-orf" description="&lt;b&gt;CRH09_RS41015&lt;/b&gt;&lt;br&gt;hypothetical protein&lt;br&gt;Location: 6107669 - 6107478" locus_tag="CRH09_RS41015" points="0,85 1,80 1,90 0,85 "  />
</g>
<g id="a1_001"  >
<polygon style="fill:white; stroke-width:1; stroke:black; " id="dummy-1_h1_4_1" class="clusterblast-orf" description="&lt;b&gt;CRH09_RS41010&lt;/b&gt;&lt;br&gt;hypothetical protein&lt;br&gt;Location: 6107266 - 6106079" locus_tag="CRH09_RS41010" points="2,90 6,90 11,85 6,80 2,80 2,90 "  />
</g>
<g id="a1_002"  >
<polygon style="fill:white; stroke-width:1; stroke:black; " id="dummy-1_h1_4_2" class="clusterblast-orf" description="&lt;b&gt;CRH09_RS26905&lt;/b&gt;&lt;br&gt;AfsR/SARP family transcriptional regulator&lt;br&gt;Location: 6106278 - 6105550" locus_tag="CRH09_RS26905" points="9,85 14,80 14,80 14,90 14,90 9,85 "  />
</g>
<g id="a1_003"  >
<polygon style="fill:white; stroke-width:1; stroke:black; " id="dummy-1_h1_4_3" class="clusterblast-orf" description="&lt;b&gt;CRH09_RS26900&lt;/b&gt;&lt;br&gt;acyl carrier protein&lt;br&gt;Location: 6105019 - 6104774" locus_tag="CRH09_RS26900" points="18,90 20,85 18,80 18,90 "  />
</g>
<g id="a1_004"  >
<polygon style="fill:white; stroke-width:1; stroke:black; " id="dummy-1_h1_4_4" class="clusterblast-orf" description="&lt;b&gt;CRH09_RS26895&lt;/b&gt;&lt;br&gt;aminotransferase class I/II-fold pyridoxal phosphate-dependent enzyme&lt;br&gt;Location: 6104762 - 6102831" locus_tag="CRH09_RS26895" points="20,90 28,90 33,85 28,80 20,80 20,90 "  />
</g>
<g id="a1_005"  >
<polygon style="fill:white; stroke-width:1; stroke:black; " id="dummy-1_h1_4_5" class="clusterblast-orf" description="&lt;b&gt;CRH09_RS26890&lt;/b&gt;&lt;br&gt;amino acid adenylation domain-containing protein&lt;br&gt;Location: 6102834 - 6101218" locus_tag="CRH09_RS26890" points="33,90 39,90 44,85 39,80 33,80 33,90 "  />
</g>
<g id="a1_006"  >
<polygon style="fill:white; stroke-width:1; stroke:black; " id="dummy-1_h1_4_6" class="clusterblast-orf" description="&lt;b&gt;CRH09_RS26885&lt;/b&gt;&lt;br&gt;class I SAM-dependent methyltransferase&lt;br&gt;Location: 6101221 - 6100154" locus_tag="CRH09_RS26885" points="44,90 46,90 51,85 46,80 44,80 44,90 "  />
</g>
<g id="a1_007"  >
<polygon style="fill:white; stroke-width:1; stroke:black; " id="dummy-1_h1_4_7" class="clusterblast-orf" description="&lt;b&gt;CRH09_RS26880&lt;/b&gt;&lt;br&gt;phosphoenolpyruvate-utilizing enzyme&lt;br&gt;Location: 6100157 - 6097494" locus_tag="CRH09_RS26880" points="51,90 65,90 70,85 65,80 51,80 51,90 "  />
</g>
<g id="a1_008"  >
<polygon style="fill:white; stroke-width:1; stroke:black; " id="dummy-1_h1_4_8" class="clusterblast-orf" description="&lt;b&gt;CRH09_RS26875&lt;/b&gt;&lt;br&gt;polyketide synthase&lt;br&gt;Location: 6097477 - 6094715" locus_tag="CRH09_RS26875" points="70,90 84,90 89,85 84,80 70,80 70,90 "  />
</g>
<g id="a1_009"  >
<polygon style="fill:white; stroke-width:1; stroke:black; " id="dummy-1_h1_4_9" class="clusterblast-orf" description="&lt;b&gt;CRH09_RS26870&lt;/b&gt;&lt;br&gt;acyl-CoA dehydrogenase&lt;br&gt;Location: 6094718 - 6093561" locus_tag="CRH09_RS26870" points="89,90 92,90 97,85 92,80 89,80 89,90 "  />
</g>
<g id="a1_0010"  >
<polygon style="fill:white; stroke-width:1; stroke:black; " id="dummy-1_h1_4_10" class="clusterblast-orf" description="&lt;b&gt;CRH09_RS26865&lt;/b&gt;&lt;br&gt;RedY protein&lt;br&gt;Location: 6093549 - 6093235" locus_tag="CRH09_RS26865" points="97,90 99,85 97,80 97,90 "  />
</g>
<g id="a1_0011"  >
<polygon style="fill:white; stroke-width:1; stroke:black; " id="dummy-1_h1_4_11" class="clusterblast-orf" description="&lt;b&gt;CRH09_RS26860&lt;/b&gt;&lt;br&gt;MMPL family transporter&lt;br&gt;Location: 6093250 - 6091070" locus_tag="CRH09_RS26860" points="99,85 104,80 114,80 114,90 104,90 99,85 "  />
</g>
<g id="a1_0012"  >
<polygon style="fill:white; stroke-width:1; stroke:black; " id="dummy-1_h1_4_12" class="clusterblast-orf" description="&lt;b&gt;CRH09_RS26855&lt;/b&gt;&lt;br&gt;TetR/AcrR family transcriptional regulator&lt;br&gt;Location: 6091046 - 6090417" locus_tag="CRH09_RS26855" points="115,85 119,80 119,90 115,85 "  />
</g>
<g id="a1_0013"  >
<polygon style="fill:white; stroke-width:1; stroke:black; " id="dummy-1_h1_4_13" class="clusterblast-orf" description="&lt;b&gt;CRH09_RS26850&lt;/b&gt;&lt;br&gt;RedV protein&lt;br&gt;Location: 6090340 - 6089177" locus_tag="CRH09_RS26850" points="119,85 124,80 127,80 127,90 124,90 119,85 "  />
</g>
<g id="a1_0014"  >
<polygon style="fill:white; stroke-width:1; stroke:black; " id="dummy-1_h1_4_14" class="clusterblast-orf" description="&lt;b&gt;CRH09_RS26845&lt;/b&gt;&lt;br&gt;hypothetical protein&lt;br&gt;Location: 6089167 - 6088499" locus_tag="CRH09_RS26845" points="128,85 132,80 132,90 128,85 "  />
</g>
<g id="a1_0015"  >
<polygon style="fill:white; stroke-width:1; stroke:black; " id="dummy-1_h1_4_15" class="clusterblast-orf" description="&lt;b&gt;CRH09_RS26840&lt;/b&gt;&lt;br&gt;AMP-binding protein&lt;br&gt;Location: 6088167 - 6086095" locus_tag="CRH09_RS26840" points="134,90 144,90 149,85 144,80 134,80 134,90 "  />
</g>
<g id="a1_0016"  >
<polygon style="fill:white; stroke-width:1; stroke:black; " id="dummy-1_h1_4_16" class="clusterblast-orf" description="&lt;b&gt;CRH09_RS26835&lt;/b&gt;&lt;br&gt;3-oxoacyl-ACP reductase&lt;br&gt;Location: 6086093 - 6085050" locus_tag="CRH09_RS26835" points="149,90 151,90 156,85 151,80 149,80 149,90 "  />
</g>
<g id="a1_0017"  >
<polygon style="fill:white; stroke-width:1; stroke:black; " id="dummy-1_h1_4_17" class="clusterblast-orf" description="&lt;b&gt;CRH09_RS26830&lt;/b&gt;&lt;br&gt;aminotransferase class III-fold pyridoxal phosphate-dependent enzyme&lt;br&gt;Location: 6085027 - 6082409" locus_tag="CRH09_RS26830" points="156,90 169,90 174,85 169,80 156,80 156,90 "  />
</g>
<g id="a1_0018"  >
<polygon style="fill:white; stroke-width:1; stroke:black; " id="dummy-1_h1_4_18" class="clusterblast-orf" description="&lt;b&gt;CRH09_RS26825&lt;/b&gt;&lt;br&gt;hypothetical protein&lt;br&gt;Location: 6080539 - 6079994" locus_tag="CRH09_RS26825" points="187,85 191,80 191,90 187,85 "  />
</g>
<g id="a1_0019"  >
<polygon style="fill:white; stroke-width:1; stroke:black; " id="dummy-1_h1_4_19" class="clusterblast-orf" description="&lt;b&gt;CRH09_RS26820&lt;/b&gt;&lt;br&gt;hypothetical protein&lt;br&gt;Location: 6079824 - 6079051" locus_tag="CRH09_RS26820" points="192,85 197,80 198,80 198,90 197,90 192,85 "  />
</g>
<g id="a1_0020"  >
<polygon style="fill:white; stroke-width:1; stroke:black; " id="dummy-1_h1_4_20" class="clusterblast-orf" description="&lt;b&gt;CRH09_RS26815&lt;/b&gt;&lt;br&gt;lipase&lt;br&gt;Location: 6078737 - 6077802" locus_tag="CRH09_RS26815" points="200,85 205,80 206,80 206,90 205,90 200,85 "  />
</g>
<g id="a1_0021"  >
<polygon style="fill:white; stroke-width:1; stroke:black; " id="dummy-1_h1_4_21" class="clusterblast-orf" description="&lt;b&gt;CRH09_RS26810&lt;/b&gt;&lt;br&gt;MarR family transcriptional regulator&lt;br&gt;Location: 6076593 - 6076060" locus_tag="CRH09_RS26810" points="215,90 218,85 215,80 215,90 "  />
</g>
<g id="a1_0022"  >
<polygon style="fill:white; stroke-width:1; stroke:black; " id="dummy-1_h1_4_22" class="clusterblast-orf" description="&lt;b&gt;CRH09_RS26805&lt;/b&gt;&lt;br&gt;lipase&lt;br&gt;Location: 6075580 - 6074564" locus_tag="CRH09_RS26805" points="222,85 227,80 229,80 229,90 227,90 222,85 "  />
</g>
<g id="a1_0023"  >
<polygon style="fill:white; stroke-width:1; stroke:black; " id="dummy-1_h1_4_23" class="clusterblast-orf" description="&lt;b&gt;CRH09_RS26800&lt;/b&gt;&lt;br&gt;hypothetical protein&lt;br&gt;Location: 6073814 - 6072579" locus_tag="CRH09_RS26800" points="234,90 237,90 242,85 237,80 234,80 234,90 "  />
</g>
<g id="a1_0024"  >
<polygon style="fill:white; stroke-width:1; stroke:black; " id="dummy-1_h1_4_24" class="clusterblast-orf" description="&lt;b&gt;CRH09_RS26795&lt;/b&gt;&lt;br&gt;hypothetical protein&lt;br&gt;Location: 6072396 - 6071152" locus_tag="CRH09_RS26795" points="244,90 247,90 252,85 247,80 244,80 244,90 "  />
</g>
<g id="a1_0025"  >
<polygon style="fill:white; stroke-width:1; stroke:black; " id="dummy-1_h1_4_25" class="clusterblast-orf" description="&lt;b&gt;CRH09_RS26790&lt;/b&gt;&lt;br&gt;glycosyltransferase family 1 protein&lt;br&gt;Location: 6071155 - 6069908" locus_tag="CRH09_RS26790" points="252,90 256,90 261,85 256,80 252,80 252,90 "  />
</g>
<g id="a1_0026"  >
<polygon style="fill:white; stroke-width:1; stroke:black; " id="dummy-1_h1_4_26" class="clusterblast-orf" description="&lt;b&gt;CRH09_RS26785&lt;/b&gt;&lt;br&gt;ATP-binding cassette domain-containing protein&lt;br&gt;Location: 6069908 - 6068949" locus_tag="CRH09_RS26785" points="261,90 262,90 267,85 262,80 261,80 261,90 "  />
</g>
<g id="a1_0027"  >
<polygon style="fill:white; stroke-width:1; stroke:black; " id="dummy-1_h1_4_27" class="clusterblast-orf" description="&lt;b&gt;CRH09_RS26780&lt;/b&gt;&lt;br&gt;ABC transporter permease&lt;br&gt;Location: 6068952 - 6068110" locus_tag="CRH09_RS26780" points="267,90 268,90 273,85 268,80 267,80 267,90 "  />
</g>
<g id="a1_0028"  >
<polygon style="fill:white; stroke-width:1; stroke:black; " id="dummy-1_h1_4_28" class="clusterblast-orf" description="&lt;b&gt;CRH09_RS26775&lt;/b&gt;&lt;br&gt;hypothetical protein&lt;br&gt;Location: 6068091 - 6066742" locus_tag="CRH09_RS26775" points="273,90 278,90 283,85 278,80 273,80 273,90 "  />
</g>
<g id="a1_0029"  >
<polygon style="fill:white; stroke-width:1; stroke:black; " id="dummy-1_h1_4_29" class="clusterblast-orf" description="&lt;b&gt;CRH09_RS26770&lt;/b&gt;&lt;br&gt;CocE/NonD family hydrolase&lt;br&gt;Location: 6066666 - 6064450" locus_tag="CRH09_RS26770" points="283,85 288,80 299,80 299,90 288,90 283,85 "  />
</g>
<g id="a1_0030"  >
<polygon style="fill:white; stroke-width:1; stroke:black; " id="dummy-1_h1_4_30" class="clusterblast-orf" description="&lt;b&gt;CRH09_RS26765&lt;/b&gt;&lt;br&gt;IS630 family transposase&lt;br&gt;Location: 6064071 - 6063034" locus_tag="CRH09_RS26765" points="301,85 306,80 308,80 308,90 306,90 301,85 "  />
</g>
<g id="a1_0031"  >
<polygon style="fill:white; stroke-width:1; stroke:black; " id="dummy-1_h1_4_31" class="clusterblast-orf" description="&lt;b&gt;CRH09_RS26760&lt;/b&gt;&lt;br&gt;IS982 family transposase&lt;br&gt;Location: 6062877 - 6062598" locus_tag="CRH09_RS26760" points="309,85 311,80 311,90 309,85 "  />
</g>
<g id="a1_0032"  >
<polygon style="fill:white; stroke-width:1; stroke:black; " id="dummy-1_h1_4_32" class="clusterblast-orf" description="&lt;b&gt;CRH09_RS26755&lt;/b&gt;&lt;br&gt;hypothetical protein&lt;br&gt;Location: 6062369 - 6060819" locus_tag="CRH09_RS26755" points="313,85 318,80 324,80 324,90 318,90 313,85 "  />
</g>
<g id="a1_0033"  >
<polygon style="fill:white; stroke-width:1; stroke:black; " id="dummy-1_h1_4_33" class="clusterblast-orf" description="&lt;b&gt;CRH09_RS26750&lt;/b&gt;&lt;br&gt;hypothetical protein&lt;br&gt;Location: 6060816 - 6059968" locus_tag="CRH09_RS26750" points="324,85 329,80 330,80 330,90 329,90 324,85 "  />
</g>
<g id="a1_0034"  >
<polygon style="fill:white; stroke-width:1; stroke:black; " id="dummy-1_h1_4_34" class="clusterblast-orf" description="&lt;b&gt;CRH09_RS26745&lt;/b&gt;&lt;br&gt;hypothetical protein&lt;br&gt;Location: 6059395 - 6059126" locus_tag="CRH09_RS26745" points="334,90 335,85 334,80 334,90 "  />
</g>
<g id="a1_0035"  >
<polygon style="fill:white; stroke-width:1; stroke:black; " id="dummy-1_h1_4_35" class="clusterblast-orf" description="&lt;b&gt;CRH09_RS26740&lt;/b&gt;&lt;br&gt;TetR family transcriptional regulator&lt;br&gt;Location: 6058009 - 6057413" locus_tag="CRH09_RS26740" points="343,90 347,85 343,80 343,90 "  />
</g>
<g id="a1_0036"  >
<polygon style="fill:white; stroke-width:1; stroke:black; " id="dummy-1_h1_4_36" class="clusterblast-orf" description="&lt;b&gt;CRH09_RS41005&lt;/b&gt;&lt;br&gt;hypothetical protein&lt;br&gt;Location: 6057230 - 6056550" locus_tag="CRH09_RS41005" points="348,85 353,80 353,80 353,90 353,90 348,85 "  />
</g>
<g id="a1_0037"  >
<polygon style="fill:white; stroke-width:1; stroke:black; " id="dummy-1_h1_4_37" class="clusterblast-orf" description="&lt;b&gt;CRH09_RS26730&lt;/b&gt;&lt;br&gt;IS5 family transposase&lt;br&gt;Location: 6056290 - 6055488" locus_tag="CRH09_RS26730" points="355,90 356,90 361,85 356,80 355,80 355,90 "  />
</g>
<g id="a1_0038"  >
<polygon style="fill:white; stroke-width:1; stroke:black; " id="dummy-1_h1_4_38" class="clusterblast-orf" description="&lt;b&gt;CRH09_RS26725&lt;/b&gt;&lt;br&gt;tyrosine-type recombinase/integrase&lt;br&gt;Location: 6055060 - 6053908" locus_tag="CRH09_RS26725" points="364,90 366,90 371,85 366,80 364,80 364,90 "  />
</g>
<g id="a1_0039"  >
<polygon style="fill:white; stroke-width:1; stroke:black; " id="dummy-1_h1_4_39" class="clusterblast-orf" description="&lt;b&gt;CRH09_RS26720&lt;/b&gt;&lt;br&gt;hypothetical protein&lt;br&gt;Location: 6053911 - 6052298" locus_tag="CRH09_RS26720" points="371,90 378,90 383,85 378,80 371,80 371,90 "  />
</g>
<g id="a1_0040"  >
<polygon style="fill:white; stroke-width:1; stroke:black; " id="dummy-1_h1_4_40" class="clusterblast-orf" description="&lt;b&gt;CRH09_RS26715&lt;/b&gt;&lt;br&gt;SUMF1/EgtB/PvdO family nonheme iron enzyme&lt;br&gt;Location: 6052303 - 6051438" locus_tag="CRH09_RS26715" points="383,85 388,80 389,80 389,90 388,90 383,85 "  />
</g>
<g id="a1_0041"  >
<polygon style="fill:white; stroke-width:1; stroke:black; " id="dummy-1_h1_4_41" class="clusterblast-orf" description="&lt;b&gt;CRH09_RS26710&lt;/b&gt;&lt;br&gt;TetR/AcrR family transcriptional regulator&lt;br&gt;Location: 6050354 - 6049710" locus_tag="CRH09_RS26710" points="396,85 401,80 401,80 401,90 401,90 396,85 "  />
</g>
<g id="a1_0042"  >
<polygon style="fill:white; stroke-width:1; stroke:black; " id="dummy-1_h1_4_42" class="clusterblast-orf" description="&lt;b&gt;CRH09_RS26705&lt;/b&gt;&lt;br&gt;hypothetical protein&lt;br&gt;Location: 6049138 - 6048824" locus_tag="CRH09_RS26705" points="404,85 407,80 407,90 404,85 "  />
</g>
<g id="a1_0043"  >
<polygon style="fill:white; stroke-width:1; stroke:black; " id="dummy-1_h1_4_43" class="clusterblast-orf" description="&lt;b&gt;CRH09_RS26700&lt;/b&gt;&lt;br&gt;ATP-binding protein&lt;br&gt;Location: 6048852 - 6048517" locus_tag="CRH09_RS26700" points="406,85 409,80 409,90 406,85 "  />
</g>
<g id="a1_0044"  >
<polygon style="fill:white; stroke-width:1; stroke:black; " id="dummy-1_h1_4_44" class="clusterblast-orf" description="&lt;b&gt;CRH09_RS26695&lt;/b&gt;&lt;br&gt;hypothetical protein&lt;br&gt;Location: 6048353 - 6047922" locus_tag="CRH09_RS26695" points="410,85 413,80 413,90 410,85 "  />
</g>
<g id="a1_0045"  >
<polygon style="fill:white; stroke-width:1; stroke:black; " id="dummy-1_h1_4_45" class="clusterblast-orf" description="&lt;b&gt;CRH09_RS41000&lt;/b&gt;&lt;br&gt;hypothetical protein&lt;br&gt;Location: 6047842 - 6047504" locus_tag="CRH09_RS41000" points="413,85 416,80 416,90 413,85 "  />
</g>
<g id="a1_0046"  >
<polygon style="fill:white; stroke-width:1; stroke:black; " id="dummy-1_h1_4_46" class="clusterblast-orf" description="&lt;b&gt;CRH09_RS26685&lt;/b&gt;&lt;br&gt;hypothetical protein&lt;br&gt;Location: 6046620 - 6046402" locus_tag="CRH09_RS26685" points="422,90 423,85 422,80 422,90 "  />
</g>
<g id="a1_0047"  >
<polygon style="fill:#d89715; stroke-width:1; stroke:black; " id="dummy-1_h1_4_47" class="clusterblast-orf" description="&lt;b&gt;CRH09_RS26680&lt;/b&gt;&lt;br&gt;hypothetical protein&lt;br&gt;Location: 6046268 - 6045138&lt;br&gt;&lt;br&gt;&lt;b&gt;BlastP hit with cds18487_19468&lt;/b&gt;&lt;br&gt;Percentage identity: 33&lt;br&gt;Percentage coverage: 100&lt;br&gt;BLAST bit score: 172&lt;br&gt;E-value: 5.7e-41" locus_tag="CRH09_RS26680" points="424,90 427,90 432,85 427,80 424,80 424,90 "  />
</g>
<g id="a1_0048"  >
<polygon style="fill:white; stroke-width:1; stroke:black; " id="dummy-1_h1_4_48" class="clusterblast-orf" description="&lt;b&gt;CRH09_RS26670&lt;/b&gt;&lt;br&gt;terpene synthase&lt;br&gt;Location: 6044052 - 6042943" locus_tag="CRH09_RS26670" points="440,90 442,90 447,85 442,80 440,80 440,90 "  />
</g>
<g id="a1_0049"  >
<polygon style="fill:white; stroke-width:1; stroke:black; " id="dummy-1_h1_4_49" class="clusterblast-orf" description="&lt;b&gt;CRH09_RS26665&lt;/b&gt;&lt;br&gt;MFS transporter&lt;br&gt;Location: 6042520 - 6040937" locus_tag="CRH09_RS26665" points="450,90 456,90 461,85 456,80 450,80 450,90 "  />
</g>
<g id="a1_0050"  >
<polygon style="fill:#15d856; stroke-width:1; stroke:black; " id="dummy-1_h1_4_50" class="clusterblast-orf" description="&lt;b&gt;CRH09_RS26660&lt;/b&gt;&lt;br&gt;polyprenyl synthetase family protein&lt;br&gt;Location: 6040439 - 6039411&lt;br&gt;&lt;br&gt;&lt;b&gt;BlastP hit with cds19596_20787&lt;/b&gt;&lt;br&gt;Percentage identity: 53&lt;br&gt;Percentage coverage: 85&lt;br&gt;BLAST bit score: 336&lt;br&gt;E-value: 4.8e-90" locus_tag="CRH09_RS26660" points="465,90 467,90 472,85 467,80 465,80 465,90 "  />
</g>
<g id="a1_0051"  >
<polygon style="fill:white; stroke-width:1; stroke:black; " id="dummy-1_h1_4_51" class="clusterblast-orf" description="&lt;b&gt;CRH09_RS26655&lt;/b&gt;&lt;br&gt;terpene synthase&lt;br&gt;Location: 6039392 - 6038328" locus_tag="CRH09_RS26655" points="472,90 474,90 479,85 474,80 472,80 472,90 "  />
</g>
<g id="a1_0052"  >
<polygon style="fill:white; stroke-width:1; stroke:black; " id="dummy-1_h1_4_52" class="clusterblast-orf" description="&lt;b&gt;CRH09_RS26650&lt;/b&gt;&lt;br&gt;cyclic nucleotide-binding domain-containing protein&lt;br&gt;Location: 6038032 - 6036605" locus_tag="CRH09_RS26650" points="481,90 486,90 491,85 486,80 481,80 481,90 "  />
</g>
<g id="a1_0053"  >
<polygon style="fill:white; stroke-width:1; stroke:black; " id="dummy-1_h1_4_53" class="clusterblast-orf" description="&lt;b&gt;CRH09_RS40995&lt;/b&gt;&lt;br&gt;hypothetical protein&lt;br&gt;Location: 6036599 - 6035880" locus_tag="CRH09_RS40995" points="491,90 491,90 496,85 491,80 491,80 491,90 "  />
</g>
<g id="a1_0054"  >
<polygon style="fill:white; stroke-width:1; stroke:black; " id="dummy-1_h1_4_54" class="clusterblast-orf" description="&lt;b&gt;CRH09_RS26645&lt;/b&gt;&lt;br&gt;4-hydroxy-3-methylbut-2-enyl diphosphate reductase&lt;br&gt;Location: 6035759 - 6034788" locus_tag="CRH09_RS26645" points="497,90 499,90 504,85 499,80 497,80 497,90 "  />
</g>
<g id="a1_0055"  >
<polygon style="fill:white; stroke-width:1; stroke:black; " id="dummy-1_h1_4_55" class="clusterblast-orf" description="&lt;b&gt;CRH09_RS26640&lt;/b&gt;&lt;br&gt;1-deoxy-D-xylulose-5-phosphate synthase&lt;br&gt;Location: 6034767 - 6032929" locus_tag="CRH09_RS26640" points="504,90 512,90 517,85 512,80 504,80 504,90 "  />
</g>
<g id="a1_0056"  >
<polygon style="fill:white; stroke-width:1; stroke:black; " id="dummy-1_h1_4_56" class="clusterblast-orf" description="&lt;b&gt;CRH09_RS26635&lt;/b&gt;&lt;br&gt;flavodoxin-dependent (E)-4-hydroxy-3-methylbut-2-enyl-diphosphate synthase&lt;br&gt;Location: 6032932 - 6031811" locus_tag="CRH09_RS26635" points="517,90 519,90 524,85 519,80 517,80 517,90 "  />
</g>
<g id="a1_0057"  >
<polygon style="fill:white; stroke-width:1; stroke:black; " id="dummy-1_h1_4_57" class="clusterblast-orf" description="&lt;b&gt;CRH09_RS26630&lt;/b&gt;&lt;br&gt;polyprenyl synthetase family protein&lt;br&gt;Location: 6031814 - 6030738" locus_tag="CRH09_RS26630" points="524,90 527,90 532,85 527,80 524,80 524,90 "  />
</g>
<g id="a1_0058"  >
<polygon style="fill:white; stroke-width:1; stroke:black; " id="dummy-1_h1_4_58" class="clusterblast-orf" description="&lt;b&gt;CRH09_RS26625&lt;/b&gt;&lt;br&gt;IS110 family transposase&lt;br&gt;Location: 6030582 - 6029545" locus_tag="CRH09_RS26625" points="533,90 535,90 540,85 535,80 533,80 533,90 "  />
</g>
<g id="a1_0059"  >
<polygon style="fill:white; stroke-width:1; stroke:black; " id="dummy-1_h1_4_59" class="clusterblast-orf" description="&lt;b&gt;CRH09_RS26620&lt;/b&gt;&lt;br&gt;FAD-dependent oxidoreductase&lt;br&gt;Location: 6029161 - 6027425" locus_tag="CRH09_RS26620" points="543,90 550,90 555,85 550,80 543,80 543,90 "  />
</g>
<g id="a1_0060"  >
<polygon style="fill:white; stroke-width:1; stroke:black; " id="dummy-1_h1_4_60" class="clusterblast-orf" description="&lt;b&gt;CRH09_RS26615&lt;/b&gt;&lt;br&gt;DEAD/DEAH box helicase family protein&lt;br&gt;Location: 6027182 - 6024696" locus_tag="CRH09_RS26615" points="556,90 569,90 574,85 569,80 556,80 556,90 "  />
</g>
<g id="a1_0061"  >
<polygon style="fill:white; stroke-width:1; stroke:black; " id="dummy-1_h1_4_61" class="clusterblast-orf" description="&lt;b&gt;CRH09_RS26610&lt;/b&gt;&lt;br&gt;DUF1211 domain-containing protein&lt;br&gt;Location: 6024665 - 6024012" locus_tag="CRH09_RS26610" points="574,90 578,85 574,80 574,90 "  />
</g>
<g id="a1_0062"  >
<polygon style="fill:white; stroke-width:1; stroke:black; " id="dummy-1_h1_4_62" class="clusterblast-orf" description="&lt;b&gt;CRH09_RS40990&lt;/b&gt;&lt;br&gt;hypothetical protein&lt;br&gt;Location: 6023774 - 6022929" locus_tag="CRH09_RS40990" points="580,85 585,80 586,80 586,90 585,90 580,85 "  />
</g>
<g id="a1_0063"  >
<polygon style="fill:white; stroke-width:1; stroke:black; " id="dummy-1_h1_4_63" class="clusterblast-orf" description="&lt;b&gt;CRH09_RS26605&lt;/b&gt;&lt;br&gt;terpene cyclase/mutase family protein&lt;br&gt;Location: 6021608 - 6020016" locus_tag="CRH09_RS26605" points="595,85 600,80 606,80 606,90 600,90 595,85 "  />
</g>
<g id="a1_0064"  >
<polygon style="fill:white; stroke-width:1; stroke:black; " id="dummy-1_h1_4_64" class="clusterblast-orf" description="&lt;b&gt;CRH09_RS40985&lt;/b&gt;&lt;br&gt;hypothetical protein&lt;br&gt;Location: 6020019 - 6018820" locus_tag="CRH09_RS40985" points="606,85 611,80 614,80 614,90 611,90 606,85 "  />
</g>
<g id="a1_0065"  >
<polygon style="fill:white; stroke-width:1; stroke:black; " id="dummy-1_h1_4_65" class="clusterblast-orf" description="&lt;b&gt;CRH09_RS26590&lt;/b&gt;&lt;br&gt;IS701 family transposase&lt;br&gt;Location: 6017354 - 6017184" locus_tag="CRH09_RS26590" points="624,85 626,80 626,90 624,85 "  />
</g>
<g id="a1_0066"  >
<polygon style="fill:white; stroke-width:1; stroke:black; " id="dummy-1_h1_4_66" class="clusterblast-orf" description="&lt;b&gt;CRH09_RS26585&lt;/b&gt;&lt;br&gt;recombinase family protein&lt;br&gt;Location: 6016935 - 6014779" locus_tag="CRH09_RS26585" points="627,90 637,90 642,85 637,80 627,80 627,90 "  />
</g>
<g id="a1_0067"  >
<polygon style="fill:white; stroke-width:1; stroke:black; " id="dummy-1_h1_4_67" class="clusterblast-orf" description="&lt;b&gt;CRH09_RS40980&lt;/b&gt;&lt;br&gt;IS5 family transposase&lt;br&gt;Location: 6014797 - 6013981" locus_tag="CRH09_RS40980" points="642,85 647,80 648,80 648,90 647,90 642,85 "  />
</g>
<g id="a1_0068"  >
<polygon style="fill:white; stroke-width:1; stroke:black; " id="dummy-1_h1_4_68" class="clusterblast-orf" description="&lt;b&gt;CRH09_RS26570&lt;/b&gt;&lt;br&gt;hypothetical protein&lt;br&gt;Location: 6013939 - 6013172" locus_tag="CRH09_RS26570" points="648,85 653,80 653,80 653,90 653,90 648,85 "  />
</g>
<g id="a1_0069"  >
<polygon style="fill:white; stroke-width:1; stroke:black; " id="dummy-1_h1_4_69" class="clusterblast-orf" description="&lt;b&gt;CRH09_RS26565&lt;/b&gt;&lt;br&gt;MFS transporter&lt;br&gt;Location: 6012175 - 6010715" locus_tag="CRH09_RS26565" points="660,85 665,80 670,80 670,90 665,90 660,85 "  />
</g>
<g id="a1_0070"  >
<polygon style="fill:white; stroke-width:1; stroke:black; " id="dummy-1_h1_4_70" class="clusterblast-orf" description="&lt;b&gt;CRH09_RS26560&lt;/b&gt;&lt;br&gt;IS1380 family transposase&lt;br&gt;Location: 6009796 - 6008408" locus_tag="CRH09_RS26560" points="677,85 682,80 686,80 686,90 682,90 677,85 "  />
</g>
<g id="a1_0071"  >
<polygon style="fill:white; stroke-width:1; stroke:black; " id="dummy-1_h1_4_71" class="clusterblast-orf" description="&lt;b&gt;CRH09_RS26555&lt;/b&gt;&lt;br&gt;transposase&lt;br&gt;Location: 6008084 - 6007656" locus_tag="CRH09_RS26555" points="689,90 692,85 689,80 689,90 "  />
</g>
<g id="a1_0072"  >
<polygon style="fill:white; stroke-width:1; stroke:black; " id="dummy-1_h1_4_72" class="clusterblast-orf" description="&lt;b&gt;CRH09_RS26550&lt;/b&gt;&lt;br&gt;transposase&lt;br&gt;Location: 6007639 - 6007340" locus_tag="CRH09_RS26550" points="692,90 694,85 692,80 692,90 "  />
</g>
<g id="a1_0073"  >
<polygon style="fill:white; stroke-width:1; stroke:black; " id="dummy-1_h1_4_73" class="clusterblast-orf" description="&lt;b&gt;CRH09_RS26545&lt;/b&gt;&lt;br&gt;IS5 family transposase&lt;br&gt;Location: 6007021 - 6006204" locus_tag="CRH09_RS26545" points="696,90 697,90 702,85 697,80 696,80 696,90 "  />
</g>
<g id="a1_0074"  >
<polygon style="fill:#d89715; stroke-width:1; stroke:black; " id="dummy-1_h1_4_74" class="clusterblast-orf" description="&lt;b&gt;CRH09_RS40975&lt;/b&gt;&lt;br&gt;hypothetical protein&lt;br&gt;Location: 6006137 - 6004863&lt;br&gt;&lt;br&gt;&lt;b&gt;BlastP hit with cds18487_19468&lt;/b&gt;&lt;br&gt;Percentage identity: 31&lt;br&gt;Percentage coverage: 97&lt;br&gt;BLAST bit score: 130&lt;br&gt;E-value: 3.3e-28" locus_tag="CRH09_RS40975" points="702,85 707,80 711,80 711,90 707,90 702,85 "  />
</g>
<g id="a1_0075"  >
<polygon style="fill:white; stroke-width:1; stroke:black; " id="dummy-1_h1_4_75" class="clusterblast-orf" description="&lt;b&gt;CRH09_RS26535&lt;/b&gt;&lt;br&gt;cyclic nucleotide-binding domain-containing protein&lt;br&gt;Location: 6004657 - 6003228" locus_tag="CRH09_RS26535" points="712,85 717,80 722,80 722,90 717,90 712,85 "  />
</g>
<g id="a1_0076"  >
<polygon style="fill:white; stroke-width:1; stroke:black; " id="dummy-1_h1_4_76" class="clusterblast-orf" description="&lt;b&gt;CRH09_RS26530&lt;/b&gt;&lt;br&gt;IS1380 family transposase&lt;br&gt;Location: 6002706 - 6001320" locus_tag="CRH09_RS26530" points="726,85 731,80 735,80 735,90 731,90 726,85 "  />
</g>
<g id="a1_0077"  >
<polygon style="fill:white; stroke-width:1; stroke:black; " id="dummy-1_h1_4_77" class="clusterblast-orf" description="&lt;b&gt;CRH09_RS26525&lt;/b&gt;&lt;br&gt;IS630 family transposase&lt;br&gt;Location: 6001069 - 6000032" locus_tag="CRH09_RS26525" points="737,90 739,90 744,85 739,80 737,80 737,90 "  />
</g>
<g id="a1_0078"  >
<polygon style="fill:white; stroke-width:1; stroke:black; " id="dummy-1_h1_4_78" class="clusterblast-orf" description="&lt;b&gt;CRH09_RS26520&lt;/b&gt;&lt;br&gt;IS1380 family transposase&lt;br&gt;Location: 5999313 - 5997909" locus_tag="CRH09_RS26520" points="749,90 754,90 759,85 754,80 749,80 749,90 "  />
</g>
<g id="a1_0079"  >
<polygon style="fill:white; stroke-width:1; stroke:black; " id="dummy-1_h1_4_79" class="clusterblast-orf" description="&lt;b&gt;CRH09_RS26515&lt;/b&gt;&lt;br&gt;hypothetical protein&lt;br&gt;Location: 5997717 - 5997061" locus_tag="CRH09_RS26515" points="760,90 760,90 765,85 760,80 760,80 760,90 "  />
</g>
<g id="a1_0080"  >
<polygon style="fill:white; stroke-width:1; stroke:black; " id="dummy-1_h1_4_80" class="clusterblast-orf" description="&lt;b&gt;CRH09_RS26505&lt;/b&gt;&lt;br&gt;helix-turn-helix domain-containing protein&lt;br&gt;Location: 5995478 - 5994939" locus_tag="CRH09_RS26505" points="776,90 780,85 776,80 776,90 "  />
</g>
</svg>
