<svg xmlns:xlink="http://www.w3.org/1999/xlink" x="0" preserveAspectRatio="none" version="1.1" height="230" viewBox="0 0 800 230" y="0" xmlns="http://www.w3.org/2000/svg" width="800"  >
<g label="Query sequence" class="clusterblast-cluster"  >
<text class="clusterblast-acc" x="5" y="20"  >
Query sequence</text>
<line y2="35" x1="10" style="stroke-width:1; stroke:grey; " y1="35" x2="778.0"  />
<polygon style="fill:#d81515; stroke-width:1; stroke:black; " id="dummy-1_q0_0_all" class="clusterblast-orf" description="&lt;b&gt;cds18547_19342&lt;/b&gt;&lt;br&gt;Mobile element protein&lt;br&gt;Location: 18547 - 19342" locus_tag="cds18547_19342" points="317,40 323,40 328,35 323,30 317,30 317,40 "  />
<polygon style="fill:#3cd815; stroke-width:1; stroke:black; " id="dummy-1_q1_0_all" class="clusterblast-orf" description="&lt;b&gt;cds19490_19919&lt;/b&gt;&lt;br&gt;Aspartate 1-decarboxylase (EC 4.1.1.11)&lt;br&gt;Location: 19490 - 19919" locus_tag="cds19490_19919" points="330,40 331,40 336,35 331,30 330,30 330,40 "  />
<polygon style="fill:#1563d8; stroke-width:1; stroke:black; " id="dummy-1_q2_0_all" class="clusterblast-orf" description="&lt;b&gt;cds19957_20311&lt;/b&gt;&lt;br&gt;hypothetical protein&lt;br&gt;Location: 19957 - 20311" locus_tag="cds19957_20311" points="337,40 337,40 342,35 337,30 337,30 337,40 "  />
<polygon style="fill:#b115d8; stroke-width:1; stroke:black; " id="dummy-1_q3_0_all" class="clusterblast-orf" description="&lt;b&gt;cds20392_21163&lt;/b&gt;&lt;br&gt;Stage II sporulation protein E-like&lt;br&gt;Location: 20392 - 21163" locus_tag="cds20392_21163" points="343,35 348,30 354,30 354,40 348,40 343,35 "  />
<polygon style="fill:white; stroke-width:1; stroke:black; " id="dummy-1_q4_0_all" class="clusterblast-orf" description="&lt;b&gt;cds21378_21591&lt;/b&gt;&lt;br&gt;hypothetical protein&lt;br&gt;Location: 21378 - 21591" locus_tag="cds21378_21591" points="357,40 361,35 357,30 357,40 "  />
<polygon style="fill:#d88a15; stroke-width:1; stroke:black; " id="dummy-1_q5_0_all" class="clusterblast-orf" description="&lt;b&gt;cds21691_23056&lt;/b&gt;&lt;br&gt;Orn/DAP/Arg family decarboxylase&lt;br&gt;Location: 21691 - 23056" locus_tag="cds21691_23056" points="362,35 367,30 382,30 382,40 367,40 362,35 "  />
<polygon style="fill:#15d863; stroke-width:1; stroke:black; " id="dummy-1_q6_0_all" class="clusterblast-orf" description="&lt;b&gt;cds23114_23912&lt;/b&gt;&lt;br&gt;Encapsulating protein for a DyP-type peroxidase or ferritin-like protein oligomers&lt;br&gt;Location: 23114 - 23912" locus_tag="cds23114_23912" points="383,35 388,30 394,30 394,40 388,40 383,35 "  />
<polygon style="fill:#3c15d8; stroke-width:1; stroke:black; " id="dummy-1_q7_0_all" class="clusterblast-orf" description="&lt;b&gt;cds23911_25012&lt;/b&gt;&lt;br&gt;Predicted dye-decolorizing peroxidase (DyP), encapsulated subgroup&lt;br&gt;Location: 23911 - 25012" locus_tag="cds23911_25012" points="394,35 399,30 410,30 410,40 399,40 394,35 "  />
<polygon style="fill:#d8158a; stroke-width:1; stroke:black; " id="dummy-1_q8_0_all" class="clusterblast-orf" description="&lt;b&gt;cds25300_26743&lt;/b&gt;&lt;br&gt;6-phosphogluconate dehydrogenase, decarboxylating (EC 1.1.1.44)&lt;br&gt;Location: 25300 - 26743" locus_tag="cds25300_26743" points="414,35 419,30 435,30 435,40 419,40 414,35 "  />
<polygon style="fill:#b1d815; stroke-width:1; stroke:black; " id="dummy-1_q9_0_all" class="clusterblast-orf" description="&lt;b&gt;cds26895_27438&lt;/b&gt;&lt;br&gt;hypothetical protein&lt;br&gt;Location: 26895 - 27438" locus_tag="cds26895_27438" points="437,35 442,30 445,30 445,40 442,40 437,35 "  />
<polygon style="fill:#15d8d8; stroke-width:1; stroke:black; " id="dummy-1_q10_0_all" class="clusterblast-orf" description="&lt;b&gt;cds28239_28656&lt;/b&gt;&lt;br&gt;hypothetical protein&lt;br&gt;Location: 28239 - 28656" locus_tag="cds28239_28656" points="457,40 458,40 463,35 458,30 457,30 457,40 "  />
</g>
<g label="NZ_KZ819182" class="clusterblast-cluster" description="NZ_KZ819182 (7257301-7311610): Streptomyces sp. CS147 scaffold00001, whole ge... (20% of genes show similarity), NRPS,T1PKS,bacteriocin"  >
<text class="clusterblast-acc" x="5" y="70"  >
<a xlink:href="https://antismash-db.secondarymetabolites.org/area.html?record=NZ_KZ819182&amp;start=7257301&amp;end=7311610" target="_blank">NZ_KZ819182 (7257301-7311610)</a>: Streptomyces sp. CS147 scaffold00001, whole ge... (20% of genes show similarity), NRPS,T1PKS,bacteriocin</text>
<line y2="85" x1="10" style="stroke-width:1; stroke:grey; " y1="85" x2="778.0"  />
</g>
<g id="a1_000"  >
<polygon style="fill:white; stroke-width:1; stroke:black; " id="dummy-1_h1_4_0" class="clusterblast-orf" description="&lt;b&gt;DBP21_RS32515&lt;/b&gt;&lt;br&gt;hypothetical protein&lt;br&gt;Location: 7257302 - 7257727" locus_tag="DBP21_RS32515" points="0,85 5,80 6,80 6,90 5,90 0,85 "  />
</g>
<g id="a1_001"  >
<polygon style="fill:white; stroke-width:1; stroke:black; " id="dummy-1_h1_4_1" class="clusterblast-orf" description="&lt;b&gt;DBP21_RS32520&lt;/b&gt;&lt;br&gt;hypothetical protein&lt;br&gt;Location: 7257853 - 7258257" locus_tag="DBP21_RS32520" points="7,85 12,80 13,80 13,90 12,90 7,85 "  />
</g>
<g id="a1_002"  >
<polygon style="fill:white; stroke-width:1; stroke:black; " id="dummy-1_h1_4_2" class="clusterblast-orf" description="&lt;b&gt;DBP21_RS32525&lt;/b&gt;&lt;br&gt;NUDIX domain-containing protein&lt;br&gt;Location: 7258292 - 7258801" locus_tag="DBP21_RS32525" points="14,85 19,80 21,80 21,90 19,90 14,85 "  />
</g>
<g id="a1_003"  >
<polygon style="fill:white; stroke-width:1; stroke:black; " id="dummy-1_h1_4_3" class="clusterblast-orf" description="&lt;b&gt;DBP21_RS32530&lt;/b&gt;&lt;br&gt;hypothetical protein&lt;br&gt;Location: 7258899 - 7259798" locus_tag="DBP21_RS32530" points="23,85 28,80 36,80 36,90 28,90 23,85 "  />
</g>
<g id="a1_004"  >
<polygon style="fill:white; stroke-width:1; stroke:black; " id="dummy-1_h1_4_4" class="clusterblast-orf" description="&lt;b&gt;DBP21_RS32535&lt;/b&gt;&lt;br&gt;hypothetical protein&lt;br&gt;Location: 7259795 - 7260808" locus_tag="DBP21_RS32535" points="36,85 41,80 50,80 50,90 41,90 36,85 "  />
</g>
<g id="a1_005"  >
<polygon style="fill:white; stroke-width:1; stroke:black; " id="dummy-1_h1_4_5" class="clusterblast-orf" description="&lt;b&gt;DBP21_RS32540&lt;/b&gt;&lt;br&gt;SDR family oxidoreductase&lt;br&gt;Location: 7260877 - 7261668" locus_tag="DBP21_RS32540" points="51,85 56,80 63,80 63,90 56,90 51,85 "  />
</g>
<g id="a1_006"  >
<polygon style="fill:white; stroke-width:1; stroke:black; " id="dummy-1_h1_4_6" class="clusterblast-orf" description="&lt;b&gt;DBP21_RS32545&lt;/b&gt;&lt;br&gt;TetR/AcrR family transcriptional regulator&lt;br&gt;Location: 7261843 - 7262472" locus_tag="DBP21_RS32545" points="65,85 70,80 74,80 74,90 70,90 65,85 "  />
</g>
<g id="a1_007"  >
<polygon style="fill:white; stroke-width:1; stroke:black; " id="dummy-1_h1_4_7" class="clusterblast-orf" description="&lt;b&gt;DBP21_RS32550&lt;/b&gt;&lt;br&gt;inositol phosphorylceramide synthase&lt;br&gt;Location: 7262635 - 7263510" locus_tag="DBP21_RS32550" points="77,90 84,90 89,85 84,80 77,80 77,90 "  />
</g>
<g id="a1_008"  >
<polygon style="fill:white; stroke-width:1; stroke:black; " id="dummy-1_h1_4_8" class="clusterblast-orf" description="&lt;b&gt;DBP21_RS32555&lt;/b&gt;&lt;br&gt;hypothetical protein&lt;br&gt;Location: 7263507 - 7264484" locus_tag="DBP21_RS32555" points="89,90 98,90 103,85 98,80 89,80 89,90 "  />
</g>
<g id="a1_009"  >
<polygon style="fill:white; stroke-width:1; stroke:black; " id="dummy-1_h1_4_9" class="clusterblast-orf" description="&lt;b&gt;DBP21_RS32560&lt;/b&gt;&lt;br&gt;PadR family transcriptional regulator&lt;br&gt;Location: 7264497 - 7265030" locus_tag="DBP21_RS32560" points="104,85 109,80 111,80 111,90 109,90 104,85 "  />
</g>
<g id="a1_0010"  >
<polygon style="fill:white; stroke-width:1; stroke:black; " id="dummy-1_h1_4_10" class="clusterblast-orf" description="&lt;b&gt;DBP21_RS32565&lt;/b&gt;&lt;br&gt;NADPH-dependent 2,4-dienoyl-CoA reductase&lt;br&gt;Location: 7265078 - 7267093" locus_tag="DBP21_RS32565" points="112,85 117,80 141,80 141,90 117,90 112,85 "  />
</g>
<g id="a1_0011"  >
<polygon style="fill:white; stroke-width:1; stroke:black; " id="dummy-1_h1_4_11" class="clusterblast-orf" description="&lt;b&gt;DBP21_RS32570&lt;/b&gt;&lt;br&gt;DoxX family membrane protein&lt;br&gt;Location: 7267320 - 7267847" locus_tag="DBP21_RS32570" points="144,90 147,90 152,85 147,80 144,80 144,90 "  />
</g>
<g id="a1_0012"  >
<polygon style="fill:white; stroke-width:1; stroke:black; " id="dummy-1_h1_4_12" class="clusterblast-orf" description="&lt;b&gt;DBP21_RS32575&lt;/b&gt;&lt;br&gt;hypothetical protein&lt;br&gt;Location: 7268045 - 7268437" locus_tag="DBP21_RS32575" points="155,90 156,90 161,85 156,80 155,80 155,90 "  />
</g>
<g id="a1_0013"  >
<polygon style="fill:white; stroke-width:1; stroke:black; " id="dummy-1_h1_4_13" class="clusterblast-orf" description="&lt;b&gt;DBP21_RS32580&lt;/b&gt;&lt;br&gt;MMPL family transporter&lt;br&gt;Location: 7268453 - 7270540" locus_tag="DBP21_RS32580" points="161,85 166,80 191,80 191,90 166,90 161,85 "  />
</g>
<g id="a1_0014"  >
<polygon style="fill:white; stroke-width:1; stroke:black; " id="dummy-1_h1_4_14" class="clusterblast-orf" description="&lt;b&gt;DBP21_RS32585&lt;/b&gt;&lt;br&gt;winged helix-turn-helix transcriptional regulator&lt;br&gt;Location: 7270678 - 7271178" locus_tag="DBP21_RS32585" points="193,85 198,80 200,80 200,90 198,90 193,85 "  />
</g>
<g id="a1_0015"  >
<polygon style="fill:white; stroke-width:1; stroke:black; " id="dummy-1_h1_4_15" class="clusterblast-orf" description="&lt;b&gt;DBP21_RS32590&lt;/b&gt;&lt;br&gt;fasciclin domain-containing protein&lt;br&gt;Location: 7271223 - 7271801" locus_tag="DBP21_RS32590" points="201,85 206,80 209,80 209,90 206,90 201,85 "  />
</g>
<g id="a1_0016"  >
<polygon style="fill:white; stroke-width:1; stroke:black; " id="dummy-1_h1_4_16" class="clusterblast-orf" description="&lt;b&gt;DBP21_RS32595&lt;/b&gt;&lt;br&gt;DUF1206 domain-containing protein&lt;br&gt;Location: 7272054 - 7272896" locus_tag="DBP21_RS32595" points="213,90 220,90 225,85 220,80 213,80 213,90 "  />
</g>
<g id="a1_0017"  >
<polygon style="fill:white; stroke-width:1; stroke:black; " id="dummy-1_h1_4_17" class="clusterblast-orf" description="&lt;b&gt;DBP21_RS32600&lt;/b&gt;&lt;br&gt;DUF4383 domain-containing protein&lt;br&gt;Location: 7272881 - 7273423" locus_tag="DBP21_RS32600" points="225,85 230,80 233,80 233,90 230,90 225,85 "  />
</g>
<g id="a1_0018"  >
<polygon style="fill:white; stroke-width:1; stroke:black; " id="dummy-1_h1_4_18" class="clusterblast-orf" description="&lt;b&gt;DBP21_RS32605&lt;/b&gt;&lt;br&gt;MerR family transcriptional regulator&lt;br&gt;Location: 7273539 - 7274492" locus_tag="DBP21_RS32605" points="234,90 243,90 248,85 243,80 234,80 234,90 "  />
</g>
<g id="a1_0019"  >
<polygon style="fill:white; stroke-width:1; stroke:black; " id="dummy-1_h1_4_19" class="clusterblast-orf" description="&lt;b&gt;DBP21_RS32610&lt;/b&gt;&lt;br&gt;cysteine desulfurase-like protein&lt;br&gt;Location: 7274503 - 7275714" locus_tag="DBP21_RS32610" points="248,85 253,80 266,80 266,90 253,90 248,85 "  />
</g>
<g id="a1_0020"  >
<polygon style="fill:white; stroke-width:1; stroke:black; " id="dummy-1_h1_4_20" class="clusterblast-orf" description="&lt;b&gt;DBP21_RS32615&lt;/b&gt;&lt;br&gt;sterol desaturase family protein&lt;br&gt;Location: 7276269 - 7277210" locus_tag="DBP21_RS32615" points="274,90 282,90 287,85 282,80 274,80 274,90 "  />
</g>
<g id="a1_0021"  >
<polygon style="fill:white; stroke-width:1; stroke:black; " id="dummy-1_h1_4_21" class="clusterblast-orf" description="&lt;b&gt;DBP21_RS32620&lt;/b&gt;&lt;br&gt;hybrid non-ribosomal peptide synthetase/type I polyketide synthase&lt;br&gt;Location: 7277270 - 7286680" locus_tag="DBP21_RS32620" points="288,90 419,90 424,85 419,80 288,80 288,90 "  />
</g>
<g id="a1_0022"  >
<polygon style="fill:white; stroke-width:1; stroke:black; " id="dummy-1_h1_4_22" class="clusterblast-orf" description="&lt;b&gt;DBP21_RS32625&lt;/b&gt;&lt;br&gt;NAD(P)/FAD-dependent oxidoreductase&lt;br&gt;Location: 7286670 - 7288376" locus_tag="DBP21_RS32625" points="424,90 444,90 449,85 444,80 424,80 424,90 "  />
</g>
<g id="a1_0023"  >
<polygon style="fill:white; stroke-width:1; stroke:black; " id="dummy-1_h1_4_23" class="clusterblast-orf" description="&lt;b&gt;DBP21_RS32630&lt;/b&gt;&lt;br&gt;NAD(P)/FAD-dependent oxidoreductase&lt;br&gt;Location: 7288373 - 7290094" locus_tag="DBP21_RS32630" points="449,90 469,90 474,85 469,80 449,80 449,90 "  />
</g>
<g id="a1_0024"  >
<polygon style="fill:white; stroke-width:1; stroke:black; " id="dummy-1_h1_4_24" class="clusterblast-orf" description="&lt;b&gt;DBP21_RS32635&lt;/b&gt;&lt;br&gt;NADP-dependent oxidoreductase&lt;br&gt;Location: 7290091 - 7291146" locus_tag="DBP21_RS32635" points="474,90 484,90 489,85 484,80 474,80 474,90 "  />
</g>
<g id="a1_0025"  >
<polygon style="fill:white; stroke-width:1; stroke:black; " id="dummy-1_h1_4_25" class="clusterblast-orf" description="&lt;b&gt;DBP21_RS32640&lt;/b&gt;&lt;br&gt;cytochrome P450&lt;br&gt;Location: 7291245 - 7292396" locus_tag="DBP21_RS32640" points="490,90 502,90 507,85 502,80 490,80 490,90 "  />
</g>
<g id="a1_0026"  >
<polygon style="fill:white; stroke-width:1; stroke:black; " id="dummy-1_h1_4_26" class="clusterblast-orf" description="&lt;b&gt;DBP21_RS32645&lt;/b&gt;&lt;br&gt;D-galactonate dehydratase family protein&lt;br&gt;Location: 7292422 - 7293636" locus_tag="DBP21_RS32645" points="507,85 512,80 525,80 525,90 512,90 507,85 "  />
</g>
<g id="a1_0027"  >
<polygon style="fill:white; stroke-width:1; stroke:black; " id="dummy-1_h1_4_27" class="clusterblast-orf" description="&lt;b&gt;DBP21_RS32650&lt;/b&gt;&lt;br&gt;carbohydrate ABC transporter permease&lt;br&gt;Location: 7293675 - 7294520" locus_tag="DBP21_RS32650" points="526,85 531,80 538,80 538,90 531,90 526,85 "  />
</g>
<g id="a1_0028"  >
<polygon style="fill:white; stroke-width:1; stroke:black; " id="dummy-1_h1_4_28" class="clusterblast-orf" description="&lt;b&gt;DBP21_RS32655&lt;/b&gt;&lt;br&gt;sugar ABC transporter permease&lt;br&gt;Location: 7294517 - 7295470" locus_tag="DBP21_RS32655" points="538,85 543,80 552,80 552,90 543,90 538,85 "  />
</g>
<g id="a1_0029"  >
<polygon style="fill:white; stroke-width:1; stroke:black; " id="dummy-1_h1_4_29" class="clusterblast-orf" description="&lt;b&gt;DBP21_RS32660&lt;/b&gt;&lt;br&gt;extracellular solute-binding protein&lt;br&gt;Location: 7295503 - 7296819" locus_tag="DBP21_RS32660" points="552,85 557,80 571,80 571,90 557,90 552,85 "  />
</g>
<g id="a1_0030"  >
<polygon style="fill:white; stroke-width:1; stroke:black; " id="dummy-1_h1_4_30" class="clusterblast-orf" description="&lt;b&gt;DBP21_RS32665&lt;/b&gt;&lt;br&gt;FadR family transcriptional regulator&lt;br&gt;Location: 7297017 - 7297811" locus_tag="DBP21_RS32665" points="574,85 579,80 585,80 585,90 579,90 574,85 "  />
</g>
<g id="a1_0031"  >
<polygon style="fill:white; stroke-width:1; stroke:black; " id="dummy-1_h1_4_31" class="clusterblast-orf" description="&lt;b&gt;DBP21_RS32670&lt;/b&gt;&lt;br&gt;spore photoproduct lyase family protein&lt;br&gt;Location: 7297898 - 7299082" locus_tag="DBP21_RS32670" points="587,85 592,80 604,80 604,90 592,90 587,85 "  />
</g>
<g id="a1_0032"  >
<polygon style="fill:white; stroke-width:1; stroke:black; " id="dummy-1_h1_4_32" class="clusterblast-orf" description="&lt;b&gt;DBP21_RS32675&lt;/b&gt;&lt;br&gt;chitinase&lt;br&gt;Location: 7299234 - 7300106" locus_tag="DBP21_RS32675" points="606,85 611,80 619,80 619,90 611,90 606,85 "  />
</g>
<g id="a1_0033"  >
<polygon style="fill:white; stroke-width:1; stroke:black; " id="dummy-1_h1_4_33" class="clusterblast-orf" description="&lt;b&gt;DBP21_RS32680&lt;/b&gt;&lt;br&gt;hypothetical protein&lt;br&gt;Location: 7300353 - 7300823" locus_tag="DBP21_RS32680" points="622,90 624,90 629,85 624,80 622,80 622,90 "  />
</g>
<g id="a1_0034"  >
<polygon style="fill:white; stroke-width:1; stroke:black; " id="dummy-1_h1_4_34" class="clusterblast-orf" description="&lt;b&gt;DBP21_RS32685&lt;/b&gt;&lt;br&gt;DUF899 domain-containing protein&lt;br&gt;Location: 7301008 - 7301760" locus_tag="DBP21_RS32685" points="632,85 637,80 643,80 643,90 637,90 632,85 "  />
</g>
<g id="a1_0035"  >
<polygon style="fill:#3cd815; stroke-width:1; stroke:black; " id="dummy-1_h1_4_35" class="clusterblast-orf" description="&lt;b&gt;DBP21_RS32690&lt;/b&gt;&lt;br&gt;aspartate 1-decarboxylase&lt;br&gt;Location: 7302206 - 7302634&lt;br&gt;&lt;br&gt;&lt;b&gt;BlastP hit with cds19490_19919&lt;/b&gt;&lt;br&gt;Percentage identity: 98&lt;br&gt;Percentage coverage: 100&lt;br&gt;BLAST bit score: 270&lt;br&gt;E-value: 1.1e-70" locus_tag="DBP21_RS32690" points="649,90 650,90 655,85 650,80 649,80 649,90 "  />
</g>
<g id="a1_0036"  >
<polygon style="fill:#1563d8; stroke-width:1; stroke:black; " id="dummy-1_h1_4_36" class="clusterblast-orf" description="&lt;b&gt;DBP21_RS32695&lt;/b&gt;&lt;br&gt;N-acetyltransferase&lt;br&gt;Location: 7302673 - 7303026&lt;br&gt;&lt;br&gt;&lt;b&gt;BlastP hit with cds19957_20311&lt;/b&gt;&lt;br&gt;Percentage identity: 96&lt;br&gt;Percentage coverage: 100&lt;br&gt;BLAST bit score: 229&lt;br&gt;E-value: 1.9e-58" locus_tag="DBP21_RS32695" points="656,90 656,90 661,85 656,80 656,80 656,90 "  />
</g>
<g id="a1_0037"  >
<polygon style="fill:#b115d8; stroke-width:1; stroke:black; " id="dummy-1_h1_4_37" class="clusterblast-orf" description="&lt;b&gt;DBP21_RS32700&lt;/b&gt;&lt;br&gt;hypothetical protein&lt;br&gt;Location: 7303087 - 7303857&lt;br&gt;&lt;br&gt;&lt;b&gt;BlastP hit with cds20392_21163&lt;/b&gt;&lt;br&gt;Percentage identity: 97&lt;br&gt;Percentage coverage: 100&lt;br&gt;BLAST bit score: 495&lt;br&gt;E-value: 2.3e-138" locus_tag="DBP21_RS32700" points="662,85 667,80 673,80 673,90 667,90 662,85 "  />
</g>
<g id="a1_0038"  >
<polygon style="fill:#d88a15; stroke-width:1; stroke:black; " id="dummy-1_h1_4_38" class="clusterblast-orf" description="&lt;b&gt;DBP21_RS32710&lt;/b&gt;&lt;br&gt;diaminopimelate decarboxylase&lt;br&gt;Location: 7304390 - 7305754&lt;br&gt;&lt;br&gt;&lt;b&gt;BlastP hit with cds21691_23056&lt;/b&gt;&lt;br&gt;Percentage identity: 97&lt;br&gt;Percentage coverage: 100&lt;br&gt;BLAST bit score: 874&lt;br&gt;E-value: 5.6e-252" locus_tag="DBP21_RS32710" points="681,85 686,80 700,80 700,90 686,90 681,85 "  />
</g>
<g id="a1_0039"  >
<polygon style="fill:#15d863; stroke-width:1; stroke:black; " id="dummy-1_h1_4_39" class="clusterblast-orf" description="&lt;b&gt;DBP21_RS32715&lt;/b&gt;&lt;br&gt;bacteriocin family protein&lt;br&gt;Location: 7305813 - 7306610&lt;br&gt;&lt;br&gt;&lt;b&gt;BlastP hit with cds23114_23912&lt;/b&gt;&lt;br&gt;Percentage identity: 98&lt;br&gt;Percentage coverage: 100&lt;br&gt;BLAST bit score: 533&lt;br&gt;E-value: 1.4e-149" locus_tag="DBP21_RS32715" points="701,85 706,80 713,80 713,90 706,90 701,85 "  />
</g>
<g id="a1_0040"  >
<polygon style="fill:#3c15d8; stroke-width:1; stroke:black; " id="dummy-1_h1_4_40" class="clusterblast-orf" description="&lt;b&gt;DBP21_RS32720&lt;/b&gt;&lt;br&gt;Dyp-type peroxidase&lt;br&gt;Location: 7306610 - 7307710&lt;br&gt;&lt;br&gt;&lt;b&gt;BlastP hit with cds23911_25012&lt;/b&gt;&lt;br&gt;Percentage identity: 96&lt;br&gt;Percentage coverage: 100&lt;br&gt;BLAST bit score: 702&lt;br&gt;E-value: 2.3e-200" locus_tag="DBP21_RS32720" points="713,85 718,80 729,80 729,90 718,90 713,85 "  />
</g>
<g id="a1_0041"  >
<polygon style="fill:#d8158a; stroke-width:1; stroke:black; " id="dummy-1_h1_4_41" class="clusterblast-orf" description="&lt;b&gt;DBP21_RS32725&lt;/b&gt;&lt;br&gt;NADP-dependent phosphogluconate dehydrogenase&lt;br&gt;Location: 7307885 - 7309327&lt;br&gt;&lt;br&gt;&lt;b&gt;BlastP hit with cds25300_26743&lt;/b&gt;&lt;br&gt;Percentage identity: 99&lt;br&gt;Percentage coverage: 100&lt;br&gt;BLAST bit score: 942&lt;br&gt;E-value: 1.8e-272" locus_tag="DBP21_RS32725" points="731,85 736,80 752,80 752,90 736,90 731,85 "  />
</g>
<g id="a1_0042"  >
<polygon style="fill:#b1d815; stroke-width:1; stroke:black; " id="dummy-1_h1_4_42" class="clusterblast-orf" description="&lt;b&gt;DBP21_RS32730&lt;/b&gt;&lt;br&gt;hypothetical protein&lt;br&gt;Location: 7309476 - 7310018&lt;br&gt;&lt;br&gt;&lt;b&gt;BlastP hit with cds26895_27438&lt;/b&gt;&lt;br&gt;Percentage identity: 98&lt;br&gt;Percentage coverage: 100&lt;br&gt;BLAST bit score: 347&lt;br&gt;E-value: 9.4e-94" locus_tag="DBP21_RS32730" points="754,85 759,80 762,80 762,90 759,90 754,85 "  />
</g>
<g id="a1_0043"  >
<polygon style="fill:#15d8d8; stroke-width:1; stroke:black; " id="dummy-1_h1_4_43" class="clusterblast-orf" description="&lt;b&gt;DBP21_RS32735&lt;/b&gt;&lt;br&gt;hypothetical protein&lt;br&gt;Location: 7310250 - 7311227&lt;br&gt;&lt;br&gt;&lt;b&gt;BlastP hit with cds28239_28656&lt;/b&gt;&lt;br&gt;Percentage identity: 92&lt;br&gt;Percentage coverage: 88&lt;br&gt;BLAST bit score: 221&lt;br&gt;E-value: 5.9e-56" locus_tag="DBP21_RS32735" points="765,90 775,90 780,85 775,80 765,80 765,90 "  />
</g>
</svg>
