<svg xmlns:xlink="http://www.w3.org/1999/xlink" x="0" preserveAspectRatio="none" version="1.1" height="230" viewBox="0 0 800 230" y="0" xmlns="http://www.w3.org/2000/svg" width="800"  >
<g label="Query sequence" class="clusterblast-cluster"  >
<text class="clusterblast-acc" x="5" y="20"  >
Query sequence</text>
<line y2="35" x1="10" style="stroke-width:1; stroke:grey; " y1="35" x2="778.0"  />
<polygon style="fill:#d81515; stroke-width:1; stroke:black; " id="dummy-2_q0_0_all" class="clusterblast-orf" description="&lt;b&gt;cds37557_38598&lt;/b&gt;&lt;br&gt;Transcriptional regulator, AraC family&lt;br&gt;Location: 37557 - 38598" locus_tag="cds37557_38598" points="164,35 169,30 183,30 183,40 169,40 164,35 "  />
<polygon style="fill:#43d815; stroke-width:1; stroke:black; " id="dummy-2_q1_0_all" class="clusterblast-orf" description="&lt;b&gt;cds38594_39257&lt;/b&gt;&lt;br&gt;hypothetical protein&lt;br&gt;Location: 38594 - 39257" locus_tag="cds38594_39257" points="183,35 188,30 195,30 195,40 188,40 183,35 "  />
<polygon style="fill:#15b6d8; stroke-width:1; stroke:black; " id="dummy-2_q2_0_all" class="clusterblast-orf" description="&lt;b&gt;cds39428_41081&lt;/b&gt;&lt;br&gt;Uncharacterized MFS-type transporter&lt;br&gt;Location: 39428 - 41081" locus_tag="cds39428_41081" points="198,35 203,30 228,30 228,40 203,40 198,35 "  />
<polygon style="fill:#8815d8; stroke-width:1; stroke:black; " id="dummy-2_q3_0_all" class="clusterblast-orf" description="&lt;b&gt;cds41171_41789&lt;/b&gt;&lt;br&gt;Transcriptional regulator SCO0376, Xre-family with cupin domain&lt;br&gt;Location: 41171 - 41789" locus_tag="cds41171_41789" points="230,40 236,40 241,35 236,30 230,30 230,40 "  />
<polygon style="fill:#d85a15; stroke-width:1; stroke:black; " id="dummy-2_q4_0_all" class="clusterblast-orf" description="&lt;b&gt;cds41842_42982&lt;/b&gt;&lt;br&gt;hypothetical protein&lt;br&gt;Location: 41842 - 42982" locus_tag="cds41842_42982" points="242,35 247,30 262,30 262,40 247,40 242,35 "  />
<polygon style="fill:#15d82c; stroke-width:1; stroke:black; " id="dummy-2_q5_0_all" class="clusterblast-orf" description="&lt;b&gt;cds43381_44794&lt;/b&gt;&lt;br&gt;cellulose 1,4-beta-cellobiosidase&lt;br&gt;Location: 43381 - 44794" locus_tag="cds43381_44794" points="270,40 290,40 295,35 290,30 270,30 270,40 "  />
<polygon style="fill:#1571d8; stroke-width:1; stroke:black; " id="dummy-2_q6_0_all" class="clusterblast-orf" description="&lt;b&gt;cds44867_46796&lt;/b&gt;&lt;br&gt;hypothetical protein&lt;br&gt;Location: 44867 - 46796" locus_tag="cds44867_46796" points="297,35 302,30 331,30 331,40 302,40 297,35 "  />
<polygon style="fill:#cd15d8; stroke-width:1; stroke:black; " id="dummy-2_q7_0_all" class="clusterblast-orf" description="&lt;b&gt;cds47152_47893&lt;/b&gt;&lt;br&gt;Methyltransferase&lt;br&gt;Location: 47152 - 47893" locus_tag="cds47152_47893" points="338,40 346,40 351,35 346,30 338,30 338,40 "  />
<polygon style="fill:#d89f15; stroke-width:1; stroke:black; " id="dummy-2_q8_0_all" class="clusterblast-orf" description="&lt;b&gt;cds47963_49109&lt;/b&gt;&lt;br&gt;Putative RNA polymerase sigma factor&lt;br&gt;Location: 47963 - 49109" locus_tag="cds47963_49109" points="353,35 358,30 373,30 373,40 358,40 353,35 "  />
<polygon style="fill:#15d871; stroke-width:1; stroke:black; " id="dummy-2_q9_0_all" class="clusterblast-orf" description="&lt;b&gt;cds49116_49524&lt;/b&gt;&lt;br&gt;hypothetical protein&lt;br&gt;Location: 49116 - 49524" locus_tag="cds49116_49524" points="374,35 379,30 381,30 381,40 379,40 374,35 "  />
<polygon style="fill:#152cd8; stroke-width:1; stroke:black; " id="dummy-2_q10_0_all" class="clusterblast-orf" description="&lt;b&gt;cds49677_50886&lt;/b&gt;&lt;br&gt;Saccharopine dehydrogenase and related proteins&lt;br&gt;Location: 49677 - 50886" locus_tag="cds49677_50886" points="384,35 389,30 406,30 406,40 389,40 384,35 "  />
<polygon style="fill:#d8159f; stroke-width:1; stroke:black; " id="dummy-2_q11_0_all" class="clusterblast-orf" description="&lt;b&gt;cds51050_51788&lt;/b&gt;&lt;br&gt;Transcriptional regulator, AcrR family&lt;br&gt;Location: 51050 - 51788" locus_tag="cds51050_51788" points="409,40 417,40 422,35 417,30 409,30 409,40 "  />
<polygon style="fill:#cdd815; stroke-width:1; stroke:black; " id="dummy-2_q12_0_all" class="clusterblast-orf" description="&lt;b&gt;cds52188_52707&lt;/b&gt;&lt;br&gt;Integral membrane protein&lt;br&gt;Location: 52188 - 52707" locus_tag="cds52188_52707" points="429,40 434,40 439,35 434,30 429,30 429,40 "  />
<polygon style="fill:#15d8b6; stroke-width:1; stroke:black; " id="dummy-2_q13_0_all" class="clusterblast-orf" description="&lt;b&gt;cds52735_53284&lt;/b&gt;&lt;br&gt;hypothetical protein&lt;br&gt;Location: 52735 - 53284" locus_tag="cds52735_53284" points="439,35 444,30 449,30 449,40 444,40 439,35 "  />
<polygon style="fill:#4315d8; stroke-width:1; stroke:black; " id="dummy-2_q14_0_all" class="clusterblast-orf" description="&lt;b&gt;cds53366_55385&lt;/b&gt;&lt;br&gt;probable large, multifunctional secreted protein&lt;br&gt;Location: 53366 - 55385" locus_tag="cds53366_55385" points="450,35 455,30 487,30 487,40 455,40 450,35 "  />
<polygon style="fill:#4315d8; stroke-width:1; stroke:black; " id="dummy-2_q15_0_all" class="clusterblast-orf" description="&lt;b&gt;cds55395_56370&lt;/b&gt;&lt;br&gt;probable large, multifunctional secreted protein&lt;br&gt;Location: 55395 - 56370" locus_tag="cds55395_56370" points="487,35 492,30 505,30 505,40 492,40 487,35 "  />
<polygon style="fill:#d8155a; stroke-width:1; stroke:black; " id="dummy-2_q16_0_all" class="clusterblast-orf" description="&lt;b&gt;cds56856_60471&lt;/b&gt;&lt;br&gt;Polyketide synthase modules and related proteins&lt;br&gt;Location: 56856 - 60471" locus_tag="cds56856_60471" points="514,40 574,40 579,35 574,30 514,30 514,40 "  />
<polygon style="fill:#88d815; stroke-width:1; stroke:black; " id="dummy-2_q17_0_all" class="clusterblast-orf" description="&lt;b&gt;cds60507_61077&lt;/b&gt;&lt;br&gt;Mobile element protein&lt;br&gt;Location: 60507 - 61077" locus_tag="cds60507_61077" points="580,35 585,30 590,30 590,40 585,40 580,35 "  />
<polygon style="fill:white; stroke-width:1; stroke:black; " id="dummy-2_q18_0_all" class="clusterblast-orf" description="&lt;b&gt;cds61162_61990&lt;/b&gt;&lt;br&gt;hypothetical protein&lt;br&gt;Location: 61162 - 61990" locus_tag="cds61162_61990" points="592,40 602,40 607,35 602,30 592,30 592,40 "  />
<polygon style="fill:white; stroke-width:1; stroke:black; " id="dummy-2_q19_0_all" class="clusterblast-orf" description="&lt;b&gt;cds62163_62460&lt;/b&gt;&lt;br&gt;hypothetical protein&lt;br&gt;Location: 62163 - 62460" locus_tag="cds62163_62460" points="610,40 610,40 615,35 610,30 610,30 610,40 "  />
</g>
<g label="NZ_CP010833" class="clusterblast-cluster" description="NZ_CP010833 (7845610-7889219): Streptomyces sp. Tue 6075 strain Tue6075 chrom... (36% of genes show similarity), NRPS-like"  >
<text class="clusterblast-acc" x="5" y="70"  >
<a xlink:href="https://antismash-db.secondarymetabolites.org/area.html?record=NZ_CP010833&amp;start=7845610&amp;end=7889219" target="_blank">NZ_CP010833 (7845610-7889219)</a>: Streptomyces sp. Tue 6075 strain Tue6075 chrom... (36% of genes show similarity), NRPS-like</text>
<line y2="85" x1="10" style="stroke-width:1; stroke:grey; " y1="85" x2="778.0"  />
</g>
<g id="a2_000"  >
<polygon style="fill:white; stroke-width:1; stroke:black; " id="dummy-2_h2_5_0" class="clusterblast-orf" description="&lt;b&gt;TK78_RS34500&lt;/b&gt;&lt;br&gt;RNA 2',3'-cyclic phosphodiesterase&lt;br&gt;Location: 7845921 - 7846568" locus_tag="TK78_RS34500" points="0,85 5,80 11,80 11,90 5,90 0,85 "  />
</g>
<g id="a2_001"  >
<polygon style="fill:white; stroke-width:1; stroke:black; " id="dummy-2_h2_5_1" class="clusterblast-orf" description="&lt;b&gt;TK78_RS34505&lt;/b&gt;&lt;br&gt;VOC family protein&lt;br&gt;Location: 7846650 - 7847024" locus_tag="TK78_RS34505" points="13,85 18,80 19,80 19,90 18,90 13,85 "  />
</g>
<g id="a2_002"  >
<polygon style="fill:#15b6d8; stroke-width:1; stroke:black; " id="dummy-2_h2_5_2" class="clusterblast-orf" description="&lt;b&gt;TK78_RS34510&lt;/b&gt;&lt;br&gt;MFS transporter&lt;br&gt;Location: 7847101 - 7848735&lt;br&gt;&lt;br&gt;&lt;b&gt;BlastP hit with cds39428_41081&lt;/b&gt;&lt;br&gt;Percentage identity: 94&lt;br&gt;Percentage coverage: 97&lt;br&gt;BLAST bit score: 874&lt;br&gt;E-value: 3.9e-252" locus_tag="TK78_RS34510" points="21,85 26,80 50,80 50,90 26,90 21,85 "  />
</g>
<g id="a2_003"  >
<polygon style="fill:#8815d8; stroke-width:1; stroke:black; " id="dummy-2_h2_5_3" class="clusterblast-orf" description="&lt;b&gt;TK78_RS34515&lt;/b&gt;&lt;br&gt;helix-turn-helix transcriptional regulator&lt;br&gt;Location: 7848826 - 7849443&lt;br&gt;&lt;br&gt;&lt;b&gt;BlastP hit with cds41171_41789&lt;/b&gt;&lt;br&gt;Percentage identity: 97&lt;br&gt;Percentage coverage: 100&lt;br&gt;BLAST bit score: 378&lt;br&gt;E-value: 4.3e-103" locus_tag="TK78_RS34515" points="52,90 58,90 63,85 58,80 52,80 52,90 "  />
</g>
<g id="a2_004"  >
<polygon style="fill:#d85a15; stroke-width:1; stroke:black; " id="dummy-2_h2_5_4" class="clusterblast-orf" description="&lt;b&gt;TK78_RS34520&lt;/b&gt;&lt;br&gt;sugar dehydrogenase&lt;br&gt;Location: 7849524 - 7850663&lt;br&gt;&lt;br&gt;&lt;b&gt;BlastP hit with cds41842_42982&lt;/b&gt;&lt;br&gt;Percentage identity: 96&lt;br&gt;Percentage coverage: 100&lt;br&gt;BLAST bit score: 740&lt;br&gt;E-value: 6.1e-212" locus_tag="TK78_RS34520" points="65,85 70,80 85,80 85,90 70,90 65,85 "  />
</g>
<g id="a2_005"  >
<polygon style="fill:#15d82c; stroke-width:1; stroke:black; " id="dummy-2_h2_5_5" class="clusterblast-orf" description="&lt;b&gt;TK78_RS34525&lt;/b&gt;&lt;br&gt;glycoside hydrolase family 6 protein&lt;br&gt;Location: 7851165 - 7852457&lt;br&gt;&lt;br&gt;&lt;b&gt;BlastP hit with cds43381_44794&lt;/b&gt;&lt;br&gt;Percentage identity: 98&lt;br&gt;Percentage coverage: 91&lt;br&gt;BLAST bit score: 874&lt;br&gt;E-value: 4.4e-252" locus_tag="TK78_RS34525" points="94,90 113,90 118,85 113,80 94,80 94,90 "  />
</g>
<g id="a2_006"  >
<polygon style="fill:#1571d8; stroke-width:1; stroke:black; " id="dummy-2_h2_5_6" class="clusterblast-orf" description="&lt;b&gt;TK78_RS34530&lt;/b&gt;&lt;br&gt;HtaA domain-containing protein&lt;br&gt;Location: 7852540 - 7854468&lt;br&gt;&lt;br&gt;&lt;b&gt;BlastP hit with cds44867_46796&lt;/b&gt;&lt;br&gt;Percentage identity: 96&lt;br&gt;Percentage coverage: 100&lt;br&gt;BLAST bit score: 1160&lt;br&gt;E-value: 0.0" locus_tag="TK78_RS34530" points="119,85 124,80 154,80 154,90 124,90 119,85 "  />
</g>
<g id="a2_007"  >
<polygon style="fill:#cd15d8; stroke-width:1; stroke:black; " id="dummy-2_h2_5_7" class="clusterblast-orf" description="&lt;b&gt;TK78_RS34535&lt;/b&gt;&lt;br&gt;class I SAM-dependent methyltransferase&lt;br&gt;Location: 7854818 - 7855558&lt;br&gt;&lt;br&gt;&lt;b&gt;BlastP hit with cds47152_47893&lt;/b&gt;&lt;br&gt;Percentage identity: 97&lt;br&gt;Percentage coverage: 100&lt;br&gt;BLAST bit score: 493&lt;br&gt;E-value: 8.5e-138" locus_tag="TK78_RS34535" points="161,90 169,90 174,85 169,80 161,80 161,90 "  />
</g>
<g id="a2_008"  >
<polygon style="fill:#d89f15; stroke-width:1; stroke:black; " id="dummy-2_h2_5_8" class="clusterblast-orf" description="&lt;b&gt;TK78_RS34540&lt;/b&gt;&lt;br&gt;RNA polymerase subunit sigma-24&lt;br&gt;Location: 7855623 - 7856768&lt;br&gt;&lt;br&gt;&lt;b&gt;BlastP hit with cds47963_49109&lt;/b&gt;&lt;br&gt;Percentage identity: 97&lt;br&gt;Percentage coverage: 100&lt;br&gt;BLAST bit score: 708&lt;br&gt;E-value: 3.4e-202" locus_tag="TK78_RS34540" points="175,85 180,80 196,80 196,90 180,90 175,85 "  />
</g>
<g id="a2_009"  >
<polygon style="fill:#15d871; stroke-width:1; stroke:black; " id="dummy-2_h2_5_9" class="clusterblast-orf" description="&lt;b&gt;TK78_RS34545&lt;/b&gt;&lt;br&gt;hypothetical protein&lt;br&gt;Location: 7856776 - 7857183&lt;br&gt;&lt;br&gt;&lt;b&gt;BlastP hit with cds49116_49524&lt;/b&gt;&lt;br&gt;Percentage identity: 99&lt;br&gt;Percentage coverage: 100&lt;br&gt;BLAST bit score: 285&lt;br&gt;E-value: 1.9e-75" locus_tag="TK78_RS34545" points="196,85 201,80 203,80 203,90 201,90 196,85 "  />
</g>
<g id="a2_0010"  >
<polygon style="fill:#152cd8; stroke-width:1; stroke:black; " id="dummy-2_h2_5_10" class="clusterblast-orf" description="&lt;b&gt;TK78_RS34550&lt;/b&gt;&lt;br&gt;ATP-binding protein&lt;br&gt;Location: 7857348 - 7858556&lt;br&gt;&lt;br&gt;&lt;b&gt;BlastP hit with cds49677_50886&lt;/b&gt;&lt;br&gt;Percentage identity: 99&lt;br&gt;Percentage coverage: 100&lt;br&gt;BLAST bit score: 814&lt;br&gt;E-value: 4.6e-234" locus_tag="TK78_RS34550" points="206,85 211,80 228,80 228,90 211,90 206,85 "  />
</g>
<g id="a2_0011"  >
<polygon style="fill:#d8159f; stroke-width:1; stroke:black; " id="dummy-2_h2_5_11" class="clusterblast-orf" description="&lt;b&gt;TK78_RS34555&lt;/b&gt;&lt;br&gt;TetR/AcrR family transcriptional regulator&lt;br&gt;Location: 7858721 - 7859458&lt;br&gt;&lt;br&gt;&lt;b&gt;BlastP hit with cds51050_51788&lt;/b&gt;&lt;br&gt;Percentage identity: 98&lt;br&gt;Percentage coverage: 100&lt;br&gt;BLAST bit score: 456&lt;br&gt;E-value: 1.5e-126" locus_tag="TK78_RS34555" points="231,90 240,90 245,85 240,80 231,80 231,90 "  />
</g>
<g id="a2_0012"  >
<polygon style="fill:white; stroke-width:1; stroke:black; " id="dummy-2_h2_5_12" class="clusterblast-orf" description="&lt;b&gt;TK78_RS34560&lt;/b&gt;&lt;br&gt;winged helix DNA-binding domain-containing protein&lt;br&gt;Location: 7859536 - 7860626" locus_tag="TK78_RS34560" points="246,85 251,80 266,80 266,90 251,90 246,85 "  />
</g>
<g id="a2_0013"  >
<polygon style="fill:#cdd815; stroke-width:1; stroke:black; " id="dummy-2_h2_5_13" class="clusterblast-orf" description="&lt;b&gt;TK78_RS34565&lt;/b&gt;&lt;br&gt;DUF998 domain-containing protein&lt;br&gt;Location: 7860769 - 7861368&lt;br&gt;&lt;br&gt;&lt;b&gt;BlastP hit with cds52188_52707&lt;/b&gt;&lt;br&gt;Percentage identity: 96&lt;br&gt;Percentage coverage: 100&lt;br&gt;BLAST bit score: 323&lt;br&gt;E-value: 1.4e-86" locus_tag="TK78_RS34565" points="268,90 274,90 279,85 274,80 268,80 268,90 "  />
</g>
<g id="a2_0014"  >
<polygon style="fill:#15d8b6; stroke-width:1; stroke:black; " id="dummy-2_h2_5_14" class="clusterblast-orf" description="&lt;b&gt;TK78_RS34570&lt;/b&gt;&lt;br&gt;hypothetical protein&lt;br&gt;Location: 7861397 - 7861945&lt;br&gt;&lt;br&gt;&lt;b&gt;BlastP hit with cds52735_53284&lt;/b&gt;&lt;br&gt;Percentage identity: 84&lt;br&gt;Percentage coverage: 100&lt;br&gt;BLAST bit score: 322&lt;br&gt;E-value: 2.5e-86" locus_tag="TK78_RS34570" points="280,85 285,80 290,80 290,90 285,90 280,85 "  />
</g>
<g id="a2_0015"  >
<polygon style="fill:#4315d8; stroke-width:1; stroke:black; " id="dummy-2_h2_5_15" class="clusterblast-orf" description="&lt;b&gt;TK78_RS34575&lt;/b&gt;&lt;br&gt;DUF1080 domain-containing protein&lt;br&gt;Location: 7862027 - 7865029&lt;br&gt;&lt;br&gt;&lt;b&gt;BlastP hit with cds53366_55385&lt;/b&gt;&lt;br&gt;Percentage identity: 97&lt;br&gt;Percentage coverage: 100&lt;br&gt;BLAST bit score: 1349&lt;br&gt;E-value: 0.0&lt;br&gt;&lt;br&gt;&lt;b&gt;BlastP hit with cds55395_56370&lt;/b&gt;&lt;br&gt;Percentage identity: 95&lt;br&gt;Percentage coverage: 79&lt;br&gt;BLAST bit score: 475&lt;br&gt;E-value: 5.4e-132" locus_tag="TK78_RS34575" points="291,85 296,80 346,80 346,90 296,90 291,85 "  />
</g>
<g id="a2_0016"  >
<polygon style="fill:#d8155a; stroke-width:1; stroke:black; " id="dummy-2_h2_5_16" class="clusterblast-orf" description="&lt;b&gt;TK78_RS34580&lt;/b&gt;&lt;br&gt;amino acid adenylation domain-containing protein&lt;br&gt;Location: 7865611 - 7869219&lt;br&gt;&lt;br&gt;&lt;b&gt;BlastP hit with cds56856_60471&lt;/b&gt;&lt;br&gt;Percentage identity: 93&lt;br&gt;Percentage coverage: 100&lt;br&gt;BLAST bit score: 2168&lt;br&gt;E-value: 0.0" locus_tag="TK78_RS34580" points="356,90 416,90 421,85 416,80 356,80 356,90 "  />
</g>
<g id="a2_0017"  >
<polygon style="fill:white; stroke-width:1; stroke:black; " id="dummy-2_h2_5_17" class="clusterblast-orf" description="&lt;b&gt;TK78_RS34585&lt;/b&gt;&lt;br&gt;hypothetical protein&lt;br&gt;Location: 7869385 - 7869783" locus_tag="TK78_RS34585" points="424,85 429,80 432,80 432,90 429,90 424,85 "  />
</g>
<g id="a2_0018"  >
<polygon style="fill:white; stroke-width:1; stroke:black; " id="dummy-2_h2_5_18" class="clusterblast-orf" description="&lt;b&gt;TK78_RS35080&lt;/b&gt;&lt;br&gt;hypothetical protein&lt;br&gt;Location: 7870258 - 7870443" locus_tag="TK78_RS35080" points="440,90 444,85 440,80 440,90 "  />
</g>
<g id="a2_0019"  >
<polygon style="fill:white; stroke-width:1; stroke:black; " id="dummy-2_h2_5_19" class="clusterblast-orf" description="&lt;b&gt;TK78_RS34595&lt;/b&gt;&lt;br&gt;lamin tail domain-containing protein&lt;br&gt;Location: 7870871 - 7871368" locus_tag="TK78_RS34595" points="451,90 455,90 460,85 455,80 451,80 451,90 "  />
</g>
<g id="a2_0020"  >
<polygon style="fill:white; stroke-width:1; stroke:black; " id="dummy-2_h2_5_20" class="clusterblast-orf" description="&lt;b&gt;TK78_RS34600&lt;/b&gt;&lt;br&gt;hypothetical protein&lt;br&gt;Location: 7871484 - 7871705" locus_tag="TK78_RS34600" points="462,85 466,80 466,90 462,85 "  />
</g>
<g id="a2_0021"  >
<polygon style="fill:white; stroke-width:1; stroke:black; " id="dummy-2_h2_5_21" class="clusterblast-orf" description="&lt;b&gt;TK78_RS34605&lt;/b&gt;&lt;br&gt;caspase family protein&lt;br&gt;Location: 7871916 - 7873211" locus_tag="TK78_RS34605" points="470,85 475,80 494,80 494,90 475,90 470,85 "  />
</g>
<g id="a2_0022"  >
<polygon style="fill:white; stroke-width:1; stroke:black; " id="dummy-2_h2_5_22" class="clusterblast-orf" description="&lt;b&gt;TK78_RS35560&lt;/b&gt;&lt;br&gt;IS5 family transposase&lt;br&gt;Location: 7874207 - 7875011" locus_tag="TK78_RS35560" points="512,90 521,90 526,85 521,80 512,80 512,90 "  />
</g>
<g id="a2_0023"  >
<polygon style="fill:white; stroke-width:1; stroke:black; " id="dummy-2_h2_5_23" class="clusterblast-orf" description="&lt;b&gt;TK78_RS34620&lt;/b&gt;&lt;br&gt;hypothetical protein&lt;br&gt;Location: 7875048 - 7875512" locus_tag="TK78_RS34620" points="527,85 532,80 535,80 535,90 532,90 527,85 "  />
</g>
<g id="a2_0024"  >
<polygon style="fill:white; stroke-width:1; stroke:black; " id="dummy-2_h2_5_24" class="clusterblast-orf" description="&lt;b&gt;TK78_RS34625&lt;/b&gt;&lt;br&gt;response regulator&lt;br&gt;Location: 7876008 - 7877684" locus_tag="TK78_RS34625" points="544,90 570,90 575,85 570,80 544,80 544,90 "  />
</g>
<g id="a2_0025"  >
<polygon style="fill:white; stroke-width:1; stroke:black; " id="dummy-2_h2_5_25" class="clusterblast-orf" description="&lt;b&gt;TK78_RS34630&lt;/b&gt;&lt;br&gt;cyclic nucleotide-binding domain-containing protein&lt;br&gt;Location: 7877681 - 7879186" locus_tag="TK78_RS34630" points="575,90 597,90 602,85 597,80 575,80 575,90 "  />
</g>
<g id="a2_0026"  >
<polygon style="fill:white; stroke-width:1; stroke:black; " id="dummy-2_h2_5_26" class="clusterblast-orf" description="&lt;b&gt;TK78_RS34635&lt;/b&gt;&lt;br&gt;UBP-type zinc finger domain-containing protein&lt;br&gt;Location: 7879164 - 7879517" locus_tag="TK78_RS34635" points="602,90 603,90 608,85 603,80 602,80 602,90 "  />
</g>
<g id="a2_0027"  >
<polygon style="fill:white; stroke-width:1; stroke:black; " id="dummy-2_h2_5_27" class="clusterblast-orf" description="&lt;b&gt;TK78_RS34640&lt;/b&gt;&lt;br&gt;hypothetical protein&lt;br&gt;Location: 7879980 - 7880219" locus_tag="TK78_RS34640" points="616,90 616,90 621,85 616,80 616,80 616,90 "  />
</g>
<g id="a2_0028"  >
<polygon style="fill:white; stroke-width:1; stroke:black; " id="dummy-2_h2_5_28" class="clusterblast-orf" description="&lt;b&gt;TK78_RS35085&lt;/b&gt;&lt;br&gt;transposase family protein&lt;br&gt;Location: 7880497 - 7880850" locus_tag="TK78_RS35085" points="626,90 627,90 632,85 627,80 626,80 626,90 "  />
</g>
<g id="a2_0029"  >
<polygon style="fill:white; stroke-width:1; stroke:black; " id="dummy-2_h2_5_29" class="clusterblast-orf" description="&lt;b&gt;TK78_RS35090&lt;/b&gt;&lt;br&gt;transposase family protein&lt;br&gt;Location: 7880857 - 7881125" locus_tag="TK78_RS35090" points="632,90 632,90 637,85 632,80 632,80 632,90 "  />
</g>
<g id="a2_0030"  >
<polygon style="fill:white; stroke-width:1; stroke:black; " id="dummy-2_h2_5_30" class="clusterblast-orf" description="&lt;b&gt;TK78_RS34655&lt;/b&gt;&lt;br&gt;hypothetical protein&lt;br&gt;Location: 7881215 - 7881394" locus_tag="TK78_RS34655" points="639,90 642,85 639,80 639,90 "  />
</g>
<g id="a2_0031"  >
<polygon style="fill:white; stroke-width:1; stroke:black; " id="dummy-2_h2_5_31" class="clusterblast-orf" description="&lt;b&gt;TK78_RS34660&lt;/b&gt;&lt;br&gt;hypothetical protein&lt;br&gt;Location: 7881391 - 7881735" locus_tag="TK78_RS34660" points="642,90 643,90 648,85 643,80 642,80 642,90 "  />
</g>
<g id="a2_0032"  >
<polygon style="fill:white; stroke-width:1; stroke:black; " id="dummy-2_h2_5_32" class="clusterblast-orf" description="&lt;b&gt;TK78_RS34665&lt;/b&gt;&lt;br&gt;hypothetical protein&lt;br&gt;Location: 7882169 - 7882561" locus_tag="TK78_RS34665" points="656,90 658,90 663,85 658,80 656,80 656,90 "  />
</g>
<g id="a2_0033"  >
<polygon style="fill:white; stroke-width:1; stroke:black; " id="dummy-2_h2_5_33" class="clusterblast-orf" description="&lt;b&gt;TK78_RS35845&lt;/b&gt;&lt;br&gt;hypothetical protein&lt;br&gt;Location: 7883059 - 7883202" locus_tag="TK78_RS35845" points="672,90 675,85 672,80 672,90 "  />
</g>
<g id="a2_0034"  >
<polygon style="fill:white; stroke-width:1; stroke:black; " id="dummy-2_h2_5_34" class="clusterblast-orf" description="&lt;b&gt;TK78_RS34670&lt;/b&gt;&lt;br&gt;ATP-binding cassette domain-containing protein&lt;br&gt;Location: 7883849 - 7885759" locus_tag="TK78_RS34670" points="686,85 691,80 721,80 721,90 691,90 686,85 "  />
</g>
<g id="a2_0035"  >
<polygon style="fill:white; stroke-width:1; stroke:black; " id="dummy-2_h2_5_35" class="clusterblast-orf" description="&lt;b&gt;TK78_RS34675&lt;/b&gt;&lt;br&gt;winged helix-turn-helix transcriptional regulator&lt;br&gt;Location: 7886331 - 7887311" locus_tag="TK78_RS34675" points="731,85 736,80 749,80 749,90 736,90 731,85 "  />
</g>
<g id="a2_0036"  >
<polygon style="fill:white; stroke-width:1; stroke:black; " id="dummy-2_h2_5_36" class="clusterblast-orf" description="&lt;b&gt;TK78_RS34680&lt;/b&gt;&lt;br&gt;MFS transporter&lt;br&gt;Location: 7887400 - 7888716" locus_tag="TK78_RS34680" points="751,90 769,90 774,85 769,80 751,80 751,90 "  />
</g>
<g id="a2_0037"  >
<polygon style="fill:white; stroke-width:1; stroke:black; " id="dummy-2_h2_5_37" class="clusterblast-orf" description="&lt;b&gt;TK78_RS34685&lt;/b&gt;&lt;br&gt;NUDIX domain-containing protein&lt;br&gt;Location: 7888616 - 7888993" locus_tag="TK78_RS34685" points="773,85 778,80 780,80 780,90 778,90 773,85 "  />
</g>
</svg>
