<svg xmlns:xlink="http://www.w3.org/1999/xlink" x="0" preserveAspectRatio="none" version="1.1" height="230" viewBox="0 0 800 230" y="0" xmlns="http://www.w3.org/2000/svg" width="800"  >
<g label="Query sequence" class="clusterblast-cluster"  >
<text class="clusterblast-acc" x="5" y="20"  >
Query sequence</text>
<line y2="35" x1="10" style="stroke-width:1; stroke:grey; " y1="35" x2="778.0"  />
<polygon style="fill:white; stroke-width:1; stroke:black; " id="dummy-1_q0_0_all" class="clusterblast-orf" description="&lt;b&gt;cds0_825&lt;/b&gt;&lt;br&gt;hypothetical protein&lt;br&gt;Location: 0 - 825" locus_tag="cds0_825" points="292,35 297,30 301,30 301,40 297,40 292,35 "  />
<polygon style="fill:#d81515; stroke-width:1; stroke:black; " id="dummy-1_q1_0_all" class="clusterblast-orf" description="&lt;b&gt;cds1538_2723&lt;/b&gt;&lt;br&gt;Geranylgeranyl diphosphate synthase (EC 2.5.1.29)&lt;br&gt;Location: 1538 - 2723" locus_tag="cds1538_2723" points="309,40 317,40 322,35 317,30 309,30 309,40 "  />
<polygon style="fill:#77d815; stroke-width:1; stroke:black; " id="dummy-1_q2_0_all" class="clusterblast-orf" description="&lt;b&gt;cds2719_4282&lt;/b&gt;&lt;br&gt;Squalene/phytoene desaturase HopC&lt;br&gt;Location: 2719 - 4282" locus_tag="cds2719_4282" points="322,40 334,40 339,35 334,30 322,30 322,40 "  />
<polygon style="fill:#15d8d8; stroke-width:1; stroke:black; " id="dummy-1_q3_0_all" class="clusterblast-orf" description="&lt;b&gt;cds4278_5307&lt;/b&gt;&lt;br&gt;Phytoene synthase (EC 2.5.1.32)&lt;br&gt;Location: 4278 - 5307" locus_tag="cds4278_5307" points="339,40 345,40 350,35 345,30 339,30 339,40 "  />
<polygon style="fill:#7715d8; stroke-width:1; stroke:black; " id="dummy-1_q4_0_all" class="clusterblast-orf" description="&lt;b&gt;cds5303_6320&lt;/b&gt;&lt;br&gt;CrtV-methyltransferase-like protein&lt;br&gt;Location: 5303 - 6320" locus_tag="cds5303_6320" points="350,40 356,40 361,35 356,30 350,30 350,40 "  />
<polygon style="fill:#d87715; stroke-width:1; stroke:black; " id="dummy-1_q5_0_all" class="clusterblast-orf" description="&lt;b&gt;cds6390_7950&lt;/b&gt;&lt;br&gt;phi-Carotenoid synthase (EC 1.3.-.- and EC 2.1.1-)&lt;br&gt;Location: 6390 - 7950" locus_tag="cds6390_7950" points="361,35 366,30 378,30 378,40 366,40 361,35 "  />
<polygon style="fill:#15d815; stroke-width:1; stroke:black; " id="dummy-1_q6_0_all" class="clusterblast-orf" description="&lt;b&gt;cds8081_9317&lt;/b&gt;&lt;br&gt;Lycopene beta-cyclase (EC 5.5.1.19)&lt;br&gt;Location: 8081 - 9317" locus_tag="cds8081_9317" points="380,35 385,30 393,30 393,40 385,40 380,35 "  />
<polygon style="fill:#1577d8; stroke-width:1; stroke:black; " id="dummy-1_q7_0_all" class="clusterblast-orf" description="&lt;b&gt;cds9373_9862&lt;/b&gt;&lt;br&gt;Transcriptional regulator, MarR family&lt;br&gt;Location: 9373 - 9862" locus_tag="cds9373_9862" points="394,35 399,30 399,30 399,40 399,40 394,35 "  />
<polygon style="fill:#d815d8; stroke-width:1; stroke:black; " id="dummy-1_q8_0_all" class="clusterblast-orf" description="&lt;b&gt;cds9942_12072&lt;/b&gt;&lt;br&gt;transporter, MMPL family&lt;br&gt;Location: 9942 - 12072" locus_tag="cds9942_12072" points="400,40 418,40 423,35 418,30 400,30 400,40 "  />
<polygon style="fill:#d8d815; stroke-width:1; stroke:black; " id="dummy-1_q9_0_all" class="clusterblast-orf" description="&lt;b&gt;cds12164_12746&lt;/b&gt;&lt;br&gt;RNA polymerase ECF-type sigma factor&lt;br&gt;Location: 12164 - 12746" locus_tag="cds12164_12746" points="424,35 429,30 430,30 430,40 429,40 424,35 "  />
<polygon style="fill:#15d877; stroke-width:1; stroke:black; " id="dummy-1_q10_0_all" class="clusterblast-orf" description="&lt;b&gt;cds12898_13915&lt;/b&gt;&lt;br&gt;Transcriptional regulator&lt;br&gt;Location: 12898 - 13915" locus_tag="cds12898_13915" points="432,40 438,40 443,35 438,30 432,30 432,40 "  />
<polygon style="fill:#1515d8; stroke-width:1; stroke:black; " id="dummy-1_q11_0_all" class="clusterblast-orf" description="&lt;b&gt;cds13930_15460&lt;/b&gt;&lt;br&gt;Putative nucleoside-diphosphate-sugar epimerase&lt;br&gt;Location: 13930 - 15460" locus_tag="cds13930_15460" points="443,35 448,30 459,30 459,40 448,40 443,35 "  />
<polygon style="fill:white; stroke-width:1; stroke:black; " id="dummy-1_q12_0_all" class="clusterblast-orf" description="&lt;b&gt;cds15753_16635&lt;/b&gt;&lt;br&gt;hypothetical protein&lt;br&gt;Location: 15753 - 16635" locus_tag="cds15753_16635" points="462,40 467,40 472,35 467,30 462,30 462,40 "  />
<polygon style="fill:#d81577; stroke-width:1; stroke:black; " id="dummy-1_q13_0_all" class="clusterblast-orf" description="&lt;b&gt;cds16700_17273&lt;/b&gt;&lt;br&gt;hypothetical protein&lt;br&gt;Location: 16700 - 17273" locus_tag="cds16700_17273" points="473,40 474,40 479,35 474,30 473,30 473,40 "  />
<polygon style="fill:white; stroke-width:1; stroke:black; " id="dummy-1_q14_0_all" class="clusterblast-orf" description="&lt;b&gt;cds17418_18024&lt;/b&gt;&lt;br&gt;hypothetical protein&lt;br&gt;Location: 17418 - 18024" locus_tag="cds17418_18024" points="480,40 482,40 487,35 482,30 480,30 480,40 "  />
</g>
<g label="NC_017765" class="clusterblast-cluster" description="NC_017765 (1981958-2054213): Streptomyces hygroscopicus subsp. jinggangensis ... (23% of genes show similarity), NRPS,lanthipeptide,terpene"  >
<text class="clusterblast-acc" x="5" y="70"  >
<a xlink:href="https://antismash-db.secondarymetabolites.org/area.html?record=NC_017765&amp;start=1981958&amp;end=2054213" target="_blank">NC_017765 (1981958-2054213)</a>: Streptomyces hygroscopicus subsp. jinggangensis ... (23% of genes show similarity), NRPS,lanthipeptide,terpene</text>
<line y2="85" x1="10" style="stroke-width:1; stroke:grey; " y1="85" x2="778.0"  />
</g>
<g id="a1_000"  >
<polygon style="fill:white; stroke-width:1; stroke:black; " id="dummy-1_h1_2_0" class="clusterblast-orf" description="&lt;b&gt;SHJG_RS08550&lt;/b&gt;&lt;br&gt;permease&lt;br&gt;Location: 1981959 - 1983530" locus_tag="SHJG_RS08550" points="0,85 5,80 16,80 16,90 5,90 0,85 "  />
</g>
<g id="a1_001"  >
<polygon style="fill:white; stroke-width:1; stroke:black; " id="dummy-1_h1_2_1" class="clusterblast-orf" description="&lt;b&gt;SHJG_RS08555&lt;/b&gt;&lt;br&gt;MFS transporter&lt;br&gt;Location: 1983748 - 1984746" locus_tag="SHJG_RS08555" points="19,85 24,80 30,80 30,90 24,90 19,85 "  />
</g>
<g id="a1_002"  >
<polygon style="fill:white; stroke-width:1; stroke:black; " id="dummy-1_h1_2_2" class="clusterblast-orf" description="&lt;b&gt;SHJG_RS49560&lt;/b&gt;&lt;br&gt;hypothetical protein&lt;br&gt;Location: 1984897 - 1985113" locus_tag="SHJG_RS49560" points="31,85 34,80 34,90 31,85 "  />
</g>
<g id="a1_003"  >
<polygon style="fill:white; stroke-width:1; stroke:black; " id="dummy-1_h1_2_3" class="clusterblast-orf" description="&lt;b&gt;SHJG_RS49565&lt;/b&gt;&lt;br&gt;IS630 family transposase&lt;br&gt;Location: 1985444 - 1985557" locus_tag="SHJG_RS49565" points="37,90 38,85 37,80 37,90 "  />
</g>
<g id="a1_004"  >
<polygon style="fill:white; stroke-width:1; stroke:black; " id="dummy-1_h1_2_4" class="clusterblast-orf" description="&lt;b&gt;SHJG_RS08560&lt;/b&gt;&lt;br&gt;putative acyl-CoA oxidase&lt;br&gt;Location: 1985590 - 1987506" locus_tag="SHJG_RS08560" points="39,85 44,80 59,80 59,90 44,90 39,85 "  />
</g>
<g id="a1_005"  >
<polygon style="fill:white; stroke-width:1; stroke:black; " id="dummy-1_h1_2_5" class="clusterblast-orf" description="&lt;b&gt;SHJG_RS47000&lt;/b&gt;&lt;br&gt;DDE-type integrase/transposase/recombinase&lt;br&gt;Location: 1987594 - 1988154" locus_tag="SHJG_RS47000" points="60,85 65,80 66,80 66,90 65,90 60,85 "  />
</g>
<g id="a1_006"  >
<polygon style="fill:white; stroke-width:1; stroke:black; " id="dummy-1_h1_2_6" class="clusterblast-orf" description="&lt;b&gt;SHJG_RS48935&lt;/b&gt;&lt;br&gt;Tellurite resistance TerB&lt;br&gt;Location: 1988438 - 1988524" locus_tag="SHJG_RS48935" points="69,85 70,80 70,90 69,85 "  />
</g>
<g id="a1_007"  >
<polygon style="fill:white; stroke-width:1; stroke:black; " id="dummy-1_h1_2_7" class="clusterblast-orf" description="&lt;b&gt;SHJG_RS08570&lt;/b&gt;&lt;br&gt;sporulation protein&lt;br&gt;Location: 1988604 - 1989611" locus_tag="SHJG_RS08570" points="71,85 76,80 82,80 82,90 76,90 71,85 "  />
</g>
<g id="a1_008"  >
<polygon style="fill:white; stroke-width:1; stroke:black; " id="dummy-1_h1_2_8" class="clusterblast-orf" description="&lt;b&gt;NC_017765_allorf_01989632_01989838&lt;/b&gt;&lt;br&gt;&lt;br&gt;Location: 1989632 - 1989838" locus_tag="NC_017765_allorf_01989632_01989838" points="82,90 85,85 82,80 82,90 "  />
</g>
<g id="a1_009"  >
<polygon style="fill:white; stroke-width:1; stroke:black; " id="dummy-1_h1_2_9" class="clusterblast-orf" description="&lt;b&gt;SHJG_RS08575&lt;/b&gt;&lt;br&gt;peptidase E&lt;br&gt;Location: 1990191 - 1990931" locus_tag="SHJG_RS08575" points="88,90 91,90 96,85 91,80 88,80 88,90 "  />
</g>
<g id="a1_0010"  >
<polygon style="fill:white; stroke-width:1; stroke:black; " id="dummy-1_h1_2_10" class="clusterblast-orf" description="&lt;b&gt;SHJG_RS08580&lt;/b&gt;&lt;br&gt;type 2 lantipeptide synthetase LanM&lt;br&gt;Location: 1991071 - 1994205" locus_tag="SHJG_RS08580" points="98,90 127,90 132,85 127,80 98,80 98,90 "  />
</g>
<g id="a1_0011"  >
<polygon style="fill:white; stroke-width:1; stroke:black; " id="dummy-1_h1_2_11" class="clusterblast-orf" description="&lt;b&gt;SHJG_RS08585&lt;/b&gt;&lt;br&gt;LuxR family transcriptional regulator&lt;br&gt;Location: 1994467 - 1997382" locus_tag="SHJG_RS08585" points="135,90 161,90 166,85 161,80 135,80 135,90 "  />
</g>
<g id="a1_0012"  >
<polygon style="fill:white; stroke-width:1; stroke:black; " id="dummy-1_h1_2_12" class="clusterblast-orf" description="&lt;b&gt;SHJG_RS08590&lt;/b&gt;&lt;br&gt;hypothetical protein&lt;br&gt;Location: 1997670 - 1997876" locus_tag="SHJG_RS08590" points="169,85 171,80 171,90 169,85 "  />
</g>
<g id="a1_0013"  >
<polygon style="fill:white; stroke-width:1; stroke:black; " id="dummy-1_h1_2_13" class="clusterblast-orf" description="&lt;b&gt;NC_017765_allorf_01998108_01998287&lt;/b&gt;&lt;br&gt;&lt;br&gt;Location: 1998108 - 1998287" locus_tag="NC_017765_allorf_01998108_01998287" points="174,90 176,85 174,80 174,90 "  />
</g>
<g id="a1_0014"  >
<polygon style="fill:white; stroke-width:1; stroke:black; " id="dummy-1_h1_2_14" class="clusterblast-orf" description="&lt;b&gt;SHJG_RS08595&lt;/b&gt;&lt;br&gt;helix-turn-helix domain-containing protein&lt;br&gt;Location: 1998766 - 1999722" locus_tag="SHJG_RS08595" points="181,90 186,90 191,85 186,80 181,80 181,90 "  />
</g>
<g id="a1_0015"  >
<polygon style="fill:white; stroke-width:1; stroke:black; " id="dummy-1_h1_2_15" class="clusterblast-orf" description="&lt;b&gt;SHJG_RS08600&lt;/b&gt;&lt;br&gt;non-ribosomal peptide synthetase&lt;br&gt;Location: 1999815 - 2008652" locus_tag="SHJG_RS08600" points="192,85 197,80 288,80 288,90 197,90 192,85 "  />
</g>
<g id="a1_0016"  >
<polygon style="fill:white; stroke-width:1; stroke:black; " id="dummy-1_h1_2_16" class="clusterblast-orf" description="&lt;b&gt;SHJG_RS08605&lt;/b&gt;&lt;br&gt;glutamate mutase S-subunit&lt;br&gt;Location: 2009028 - 2009498" locus_tag="SHJG_RS08605" points="292,90 292,90 297,85 292,80 292,80 292,90 "  />
</g>
<g id="a1_0017"  >
<polygon style="fill:white; stroke-width:1; stroke:black; " id="dummy-1_h1_2_17" class="clusterblast-orf" description="&lt;b&gt;SHJG_RS08610&lt;/b&gt;&lt;br&gt;methylaspartate mutase&lt;br&gt;Location: 2009485 - 2010768" locus_tag="SHJG_RS08610" points="297,90 306,90 311,85 306,80 297,80 297,90 "  />
</g>
<g id="a1_0018"  >
<polygon style="fill:white; stroke-width:1; stroke:black; " id="dummy-1_h1_2_18" class="clusterblast-orf" description="&lt;b&gt;SHJG_RS08615&lt;/b&gt;&lt;br&gt;hypothetical protein&lt;br&gt;Location: 2010842 - 2011855" locus_tag="SHJG_RS08615" points="311,90 317,90 322,85 317,80 311,80 311,90 "  />
</g>
<g id="a1_0019"  >
<polygon style="fill:white; stroke-width:1; stroke:black; " id="dummy-1_h1_2_19" class="clusterblast-orf" description="&lt;b&gt;SHJG_RS08620&lt;/b&gt;&lt;br&gt;glutamate synthase&lt;br&gt;Location: 2011852 - 2013078" locus_tag="SHJG_RS08620" points="322,90 330,90 335,85 330,80 322,80 322,90 "  />
</g>
<g id="a1_0020"  >
<polygon style="fill:white; stroke-width:1; stroke:black; " id="dummy-1_h1_2_20" class="clusterblast-orf" description="&lt;b&gt;SHJG_RS08625&lt;/b&gt;&lt;br&gt;2,3-diaminopropionate biosynthesis protein SbnA&lt;br&gt;Location: 2013075 - 2014022" locus_tag="SHJG_RS08625" points="335,90 341,90 346,85 341,80 335,80 335,90 "  />
</g>
<g id="a1_0021"  >
<polygon style="fill:white; stroke-width:1; stroke:black; " id="dummy-1_h1_2_21" class="clusterblast-orf" description="&lt;b&gt;SHJG_RS08630&lt;/b&gt;&lt;br&gt;2,3-diaminopropionate biosynthesis protein SbnB&lt;br&gt;Location: 2014061 - 2015068" locus_tag="SHJG_RS08630" points="346,90 352,90 357,85 352,80 346,80 346,90 "  />
</g>
<g id="a1_0022"  >
<polygon style="fill:white; stroke-width:1; stroke:black; " id="dummy-1_h1_2_22" class="clusterblast-orf" description="&lt;b&gt;SHJG_RS08635&lt;/b&gt;&lt;br&gt;non-ribosomal peptide synthetase&lt;br&gt;Location: 2015586 - 2019575" locus_tag="SHJG_RS08635" points="363,85 368,80 406,80 406,90 368,90 363,85 "  />
</g>
<g id="a1_0023"  >
<polygon style="fill:white; stroke-width:1; stroke:black; " id="dummy-1_h1_2_23" class="clusterblast-orf" description="&lt;b&gt;SHJG_RS08640&lt;/b&gt;&lt;br&gt;non-ribosomal peptide synthetase&lt;br&gt;Location: 2019572 - 2027449" locus_tag="SHJG_RS08640" points="406,85 411,80 491,80 491,90 411,90 406,85 "  />
</g>
<g id="a1_0024"  >
<polygon style="fill:white; stroke-width:1; stroke:black; " id="dummy-1_h1_2_24" class="clusterblast-orf" description="&lt;b&gt;SHJG_RS08645&lt;/b&gt;&lt;br&gt;non-ribosomal peptide synthetase&lt;br&gt;Location: 2027497 - 2034066" locus_tag="SHJG_RS08645" points="491,85 496,80 562,80 562,90 496,90 491,85 "  />
</g>
<g id="a1_0025"  >
<polygon style="fill:white; stroke-width:1; stroke:black; " id="dummy-1_h1_2_25" class="clusterblast-orf" description="&lt;b&gt;SHJG_RS08650&lt;/b&gt;&lt;br&gt;MFS transporter&lt;br&gt;Location: 2034497 - 2035894" locus_tag="SHJG_RS08650" points="567,85 572,80 582,80 582,90 572,90 567,85 "  />
</g>
<g id="a1_0026"  >
<polygon style="fill:white; stroke-width:1; stroke:black; " id="dummy-1_h1_2_26" class="clusterblast-orf" description="&lt;b&gt;SHJG_RS08655&lt;/b&gt;&lt;br&gt;helix-turn-helix transcriptional regulator&lt;br&gt;Location: 2035900 - 2036517" locus_tag="SHJG_RS08655" points="582,85 587,80 588,80 588,90 587,90 582,85 "  />
</g>
<g id="a1_0027"  >
<polygon style="fill:#d87715; stroke-width:1; stroke:black; " id="dummy-1_h1_2_27" class="clusterblast-orf" description="&lt;b&gt;SHJG_RS08660&lt;/b&gt;&lt;br&gt;FAD-dependent oxidoreductase&lt;br&gt;Location: 2036856 - 2038310&lt;br&gt;&lt;br&gt;&lt;b&gt;BlastP hit with cds6390_7950&lt;/b&gt;&lt;br&gt;Percentage identity: 70&lt;br&gt;Percentage coverage: 92&lt;br&gt;BLAST bit score: 681&lt;br&gt;E-value: 7.9e-194" locus_tag="SHJG_RS08660" points="592,85 597,80 608,80 608,90 597,90 592,85 "  />
</g>
<g id="a1_0028"  >
<polygon style="fill:#15d815; stroke-width:1; stroke:black; " id="dummy-1_h1_2_28" class="clusterblast-orf" description="&lt;b&gt;SHJG_RS08665&lt;/b&gt;&lt;br&gt;lycopene cyclase&lt;br&gt;Location: 2038574 - 2039809&lt;br&gt;&lt;br&gt;&lt;b&gt;BlastP hit with cds8081_9317&lt;/b&gt;&lt;br&gt;Percentage identity: 55&lt;br&gt;Percentage coverage: 99&lt;br&gt;BLAST bit score: 413&lt;br&gt;E-value: 2.4e-113" locus_tag="SHJG_RS08665" points="611,85 616,80 624,80 624,90 616,90 611,85 "  />
</g>
<g id="a1_0029"  >
<polygon style="fill:#d81515; stroke-width:1; stroke:black; " id="dummy-1_h1_2_29" class="clusterblast-orf" description="&lt;b&gt;SHJG_RS08670&lt;/b&gt;&lt;br&gt;polyprenyl synthetase family protein&lt;br&gt;Location: 2040207 - 2041544&lt;br&gt;&lt;br&gt;&lt;b&gt;BlastP hit with cds1538_2723&lt;/b&gt;&lt;br&gt;Percentage identity: 48&lt;br&gt;Percentage coverage: 103&lt;br&gt;BLAST bit score: 297&lt;br&gt;E-value: 1.4e-78" locus_tag="SHJG_RS08670" points="628,90 638,90 643,85 638,80 628,80 628,90 "  />
</g>
<g id="a1_0030"  >
<polygon style="fill:#77d815; stroke-width:1; stroke:black; " id="dummy-1_h1_2_30" class="clusterblast-orf" description="&lt;b&gt;SHJG_RS08675&lt;/b&gt;&lt;br&gt;phytoene desaturase&lt;br&gt;Location: 2041541 - 2043304&lt;br&gt;&lt;br&gt;&lt;b&gt;BlastP hit with cds2719_4282&lt;/b&gt;&lt;br&gt;Percentage identity: 75&lt;br&gt;Percentage coverage: 95&lt;br&gt;BLAST bit score: 753&lt;br&gt;E-value: 9.6e-216" locus_tag="SHJG_RS08675" points="643,90 657,90 662,85 657,80 643,80 643,90 "  />
</g>
<g id="a1_0031"  >
<polygon style="fill:#15d8d8; stroke-width:1; stroke:black; " id="dummy-1_h1_2_31" class="clusterblast-orf" description="&lt;b&gt;SHJG_RS08680&lt;/b&gt;&lt;br&gt;phytoene/squalene synthase family protein&lt;br&gt;Location: 2043301 - 2044317&lt;br&gt;&lt;br&gt;&lt;b&gt;BlastP hit with cds4278_5307&lt;/b&gt;&lt;br&gt;Percentage identity: 71&lt;br&gt;Percentage coverage: 85&lt;br&gt;BLAST bit score: 405&lt;br&gt;E-value: 4.2e-111" locus_tag="SHJG_RS08680" points="662,90 668,90 673,85 668,80 662,80 662,90 "  />
</g>
<g id="a1_0032"  >
<polygon style="fill:#7715d8; stroke-width:1; stroke:black; " id="dummy-1_h1_2_32" class="clusterblast-orf" description="&lt;b&gt;SHJG_RS08685&lt;/b&gt;&lt;br&gt;Rieske 2Fe-2S domain-containing protein&lt;br&gt;Location: 2044314 - 2045321&lt;br&gt;&lt;br&gt;&lt;b&gt;BlastP hit with cds5303_6320&lt;/b&gt;&lt;br&gt;Percentage identity: 74&lt;br&gt;Percentage coverage: 99&lt;br&gt;BLAST bit score: 493&lt;br&gt;E-value: 1.2e-137" locus_tag="SHJG_RS08685" points="673,90 679,90 684,85 679,80 673,80 673,90 "  />
</g>
<g id="a1_0033"  >
<polygon style="fill:white; stroke-width:1; stroke:black; " id="dummy-1_h1_2_33" class="clusterblast-orf" description="&lt;b&gt;SHJG_RS50270&lt;/b&gt;&lt;br&gt;hypothetical protein&lt;br&gt;Location: 2045363 - 2045584" locus_tag="SHJG_RS50270" points="684,85 686,80 686,90 684,85 "  />
</g>
<g id="a1_0034"  >
<polygon style="fill:#15d877; stroke-width:1; stroke:black; " id="dummy-1_h1_2_34" class="clusterblast-orf" description="&lt;b&gt;SHJG_RS08690&lt;/b&gt;&lt;br&gt;MerR family transcriptional regulator&lt;br&gt;Location: 2045638 - 2046537&lt;br&gt;&lt;br&gt;&lt;b&gt;BlastP hit with cds12898_13915&lt;/b&gt;&lt;br&gt;Percentage identity: 53&lt;br&gt;Percentage coverage: 87&lt;br&gt;BLAST bit score: 295&lt;br&gt;E-value: 6.1e-78" locus_tag="SHJG_RS08690" points="687,85 692,80 697,80 697,90 692,90 687,85 "  />
</g>
<g id="a1_0035"  >
<polygon style="fill:#d8d815; stroke-width:1; stroke:black; " id="dummy-1_h1_2_35" class="clusterblast-orf" description="&lt;b&gt;SHJG_RS08695&lt;/b&gt;&lt;br&gt;sigma-70 family RNA polymerase sigma factor&lt;br&gt;Location: 2046822 - 2047415&lt;br&gt;&lt;br&gt;&lt;b&gt;BlastP hit with cds12164_12746&lt;/b&gt;&lt;br&gt;Percentage identity: 57&lt;br&gt;Percentage coverage: 87&lt;br&gt;BLAST bit score: 168&lt;br&gt;E-value: 8.4e-40" locus_tag="SHJG_RS08695" points="700,85 705,80 706,80 706,90 705,90 700,85 "  />
</g>
<g id="a1_0036"  >
<polygon style="fill:#d815d8; stroke-width:1; stroke:black; " id="dummy-1_h1_2_36" class="clusterblast-orf" description="&lt;b&gt;SHJG_RS08700&lt;/b&gt;&lt;br&gt;MMPL family transporter&lt;br&gt;Location: 2047588 - 2049720&lt;br&gt;&lt;br&gt;&lt;b&gt;BlastP hit with cds9942_12072&lt;/b&gt;&lt;br&gt;Percentage identity: 53&lt;br&gt;Percentage coverage: 98&lt;br&gt;BLAST bit score: 543&lt;br&gt;E-value: 2.7e-152" locus_tag="SHJG_RS08700" points="708,85 713,80 731,80 731,90 713,90 708,85 "  />
</g>
<g id="a1_0037"  >
<polygon style="fill:#1577d8; stroke-width:1; stroke:black; " id="dummy-1_h1_2_37" class="clusterblast-orf" description="&lt;b&gt;SHJG_RS08705&lt;/b&gt;&lt;br&gt;winged helix-turn-helix transcriptional regulator&lt;br&gt;Location: 2049970 - 2050380&lt;br&gt;&lt;br&gt;&lt;b&gt;BlastP hit with cds9373_9862&lt;/b&gt;&lt;br&gt;Percentage identity: 51&lt;br&gt;Percentage coverage: 81&lt;br&gt;BLAST bit score: 119&lt;br&gt;E-value: 2.9e-25" locus_tag="SHJG_RS08705" points="734,85 738,80 738,90 734,85 "  />
</g>
<g id="a1_0038"  >
<polygon style="fill:white; stroke-width:1; stroke:black; " id="dummy-1_h1_2_38" class="clusterblast-orf" description="&lt;b&gt;SHJG_RS08710&lt;/b&gt;&lt;br&gt;cysteine hydrolase&lt;br&gt;Location: 2050826 - 2051389" locus_tag="SHJG_RS08710" points="743,85 748,80 749,80 749,90 748,90 743,85 "  />
</g>
<g id="a1_0039"  >
<polygon style="fill:white; stroke-width:1; stroke:black; " id="dummy-1_h1_2_39" class="clusterblast-orf" description="&lt;b&gt;SHJG_RS08715&lt;/b&gt;&lt;br&gt;pantetheine-phosphate adenylyltransferase&lt;br&gt;Location: 2051473 - 2051937" locus_tag="SHJG_RS08715" points="750,85 755,80 755,80 755,90 755,90 750,85 "  />
</g>
<g id="a1_0040"  >
<polygon style="fill:white; stroke-width:1; stroke:black; " id="dummy-1_h1_2_40" class="clusterblast-orf" description="&lt;b&gt;SHJG_RS08720&lt;/b&gt;&lt;br&gt;hypothetical protein&lt;br&gt;Location: 2052214 - 2052756" locus_tag="SHJG_RS08720" points="758,85 763,80 764,80 764,90 763,90 758,85 "  />
</g>
<g id="a1_0041"  >
<polygon style="fill:white; stroke-width:1; stroke:black; " id="dummy-1_h1_2_41" class="clusterblast-orf" description="&lt;b&gt;SHJG_RS51060&lt;/b&gt;&lt;br&gt;IS5/IS1182 family transposase&lt;br&gt;Location: 2052805 - 2052918" locus_tag="SHJG_RS51060" points="764,90 766,85 764,80 764,90 "  />
</g>
<g id="a1_0042"  >
<polygon style="fill:white; stroke-width:1; stroke:black; " id="dummy-1_h1_2_42" class="clusterblast-orf" description="&lt;b&gt;SHJG_RS08725&lt;/b&gt;&lt;br&gt;MFS transporter&lt;br&gt;Location: 2053029 - 2054213" locus_tag="SHJG_RS08725" points="767,85 772,80 780,80 780,90 772,90 767,85 "  />
</g>
</svg>
