<svg xmlns:xlink="http://www.w3.org/1999/xlink" x="0" preserveAspectRatio="none" version="1.1" height="230" viewBox="0 0 800 230" y="0" xmlns="http://www.w3.org/2000/svg" width="800"  >
<g label="Query sequence" class="clusterblast-cluster"  >
<text class="clusterblast-acc" x="5" y="20"  >
Query sequence</text>
<line y2="35" x1="10" style="stroke-width:1; stroke:grey; " y1="35" x2="778.0"  />
<polygon style="fill:white; stroke-width:1; stroke:black; " id="dummy-1_q0_0_all" class="clusterblast-orf" description="&lt;b&gt;cds43423_44290&lt;/b&gt;&lt;br&gt;hypothetical protein&lt;br&gt;Location: 43423 - 44290" locus_tag="cds43423_44290" points="0,35 5,30 59,30 59,40 5,40 0,35 "  />
<polygon style="fill:#d81515; stroke-width:1; stroke:black; " id="dummy-1_q1_0_all" class="clusterblast-orf" description="&lt;b&gt;cds44337_44859&lt;/b&gt;&lt;br&gt;hypothetical protein&lt;br&gt;Location: 44337 - 44859" locus_tag="cds44337_44859" points="62,40 93,40 98,35 93,30 62,30 62,40 "  />
<polygon style="fill:#3cd815; stroke-width:1; stroke:black; " id="dummy-1_q2_0_all" class="clusterblast-orf" description="&lt;b&gt;cds44961_46788&lt;/b&gt;&lt;br&gt;Glutamine--fructose-6-phosphate aminotransferase [isomerizing] (EC 2.6.1.16)&lt;br&gt;Location: 44961 - 46788" locus_tag="cds44961_46788" points="105,35 110,30 229,30 229,40 110,40 105,35 "  />
<polygon style="fill:#1563d8; stroke-width:1; stroke:black; " id="dummy-1_q3_0_all" class="clusterblast-orf" description="&lt;b&gt;cds46862_47138&lt;/b&gt;&lt;br&gt;hypothetical protein&lt;br&gt;Location: 46862 - 47138" locus_tag="cds46862_47138" points="234,35 239,30 252,30 252,40 239,40 234,35 "  />
<polygon style="fill:#b115d8; stroke-width:1; stroke:black; " id="dummy-1_q4_0_all" class="clusterblast-orf" description="&lt;b&gt;cds47224_48106&lt;/b&gt;&lt;br&gt;hypothetical protein&lt;br&gt;Location: 47224 - 48106" locus_tag="cds47224_48106" points="258,35 263,30 318,30 318,40 263,40 258,35 "  />
<polygon style="fill:#d88a15; stroke-width:1; stroke:black; " id="dummy-1_q5_0_all" class="clusterblast-orf" description="&lt;b&gt;cds48211_49990&lt;/b&gt;&lt;br&gt;Desferrioxamine E biosynthesis protein DesD @ Siderophore synthetase superfamily, group C @ Siderophore synthetase component, ligase&lt;br&gt;Location: 48211 - 49990" locus_tag="cds48211_49990" points="325,35 330,30 446,30 446,40 330,40 325,35 "  />
<polygon style="fill:#15d863; stroke-width:1; stroke:black; " id="dummy-1_q6_0_all" class="clusterblast-orf" description="&lt;b&gt;cds49986_50556&lt;/b&gt;&lt;br&gt;Desferrioxamine E biosynthesis protein DesC @ Siderophore synthetase small component, acetyltransferase&lt;br&gt;Location: 49986 - 50556" locus_tag="cds49986_50556" points="446,35 451,30 484,30 484,40 451,40 446,35 "  />
<polygon style="fill:#3c15d8; stroke-width:1; stroke:black; " id="dummy-1_q7_0_all" class="clusterblast-orf" description="&lt;b&gt;cds50552_51830&lt;/b&gt;&lt;br&gt;Desferrioxamine E biosynthesis protein DesB @ Siderophore biosynthesis protein, monooxygenase&lt;br&gt;Location: 50552 - 51830" locus_tag="cds50552_51830" points="484,35 489,30 571,30 571,40 489,40 484,35 "  />
<polygon style="fill:#d8158a; stroke-width:1; stroke:black; " id="dummy-1_q8_0_all" class="clusterblast-orf" description="&lt;b&gt;cds51813_53262&lt;/b&gt;&lt;br&gt;Desferrioxamine E biosynthesis protein DesA @ Siderophore biosynthesis L-2,4-diaminobutyrate decarboxylase&lt;br&gt;Location: 51813 - 53262" locus_tag="cds51813_53262" points="570,35 575,30 668,30 668,40 575,40 570,35 "  />
<polygon style="fill:#b1d815; stroke-width:1; stroke:black; " id="dummy-1_q9_0_all" class="clusterblast-orf" description="&lt;b&gt;cds53418_54333&lt;/b&gt;&lt;br&gt;Hypothetical protein associated with desferrioxamine E biosynthesis&lt;br&gt;Location: 53418 - 54333" locus_tag="cds53418_54333" points="679,35 684,30 741,30 741,40 684,40 679,35 "  />
<polygon style="fill:#15d8d8; stroke-width:1; stroke:black; " id="dummy-1_q10_0_all" class="clusterblast-orf" description="&lt;b&gt;cds54464_54914&lt;/b&gt;&lt;br&gt;GCN5-related N-acetyltransferase&lt;br&gt;Location: 54464 - 54914" locus_tag="cds54464_54914" points="750,35 755,30 780,30 780,40 755,40 750,35 "  />
</g>
<g label="NZ_KZ819154" class="clusterblast-cluster" description="NZ_KZ819154 (5140716-5152495): Streptomyces sp. CS014 scaffold00001, whole ge... (100% of genes show similarity), siderophore"  >
<text class="clusterblast-acc" x="5" y="70"  >
<a xlink:href="https://antismash-db.secondarymetabolites.org/area.html?record=NZ_KZ819154&amp;start=5140716&amp;end=5152495" target="_blank">NZ_KZ819154 (5140716-5152495)</a>: Streptomyces sp. CS014 scaffold00001, whole ge... (100% of genes show similarity), siderophore</text>
<line y2="85" x1="10" style="stroke-width:1; stroke:grey; " y1="85" x2="778.0"  />
</g>
<g id="a1_000"  >
<polygon style="fill:#d81515; stroke-width:1; stroke:black; " id="dummy-1_h1_6_0" class="clusterblast-orf" description="&lt;b&gt;DBP12_RS22890&lt;/b&gt;&lt;br&gt;universal stress protein&lt;br&gt;Location: 5141839 - 5142360&lt;br&gt;&lt;br&gt;&lt;b&gt;BlastP hit with cds44337_44859&lt;/b&gt;&lt;br&gt;Percentage identity: 99&lt;br&gt;Percentage coverage: 100&lt;br&gt;BLAST bit score: 352&lt;br&gt;E-value: 2.8e-95" locus_tag="DBP12_RS22890" points="50,90 80,90 85,85 80,80 50,80 50,90 "  />
</g>
<g id="a1_001"  >
<polygon style="fill:#3cd815; stroke-width:1; stroke:black; " id="dummy-1_h1_6_1" class="clusterblast-orf" description="&lt;b&gt;DBP12_RS22895&lt;/b&gt;&lt;br&gt;glutamine--fructose-6-phosphate transaminase (isomerizing)&lt;br&gt;Location: 5142464 - 5144293&lt;br&gt;&lt;br&gt;&lt;b&gt;BlastP hit with cds44961_46788&lt;/b&gt;&lt;br&gt;Percentage identity: 99&lt;br&gt;Percentage coverage: 100&lt;br&gt;BLAST bit score: 1166&lt;br&gt;E-value: 0.0" locus_tag="DBP12_RS22895" points="92,85 97,80 216,80 216,90 97,90 92,85 "  />
</g>
<g id="a1_002"  >
<polygon style="fill:#1563d8; stroke-width:1; stroke:black; " id="dummy-1_h1_6_2" class="clusterblast-orf" description="&lt;b&gt;DBP12_RS22900&lt;/b&gt;&lt;br&gt;hypothetical protein&lt;br&gt;Location: 5144368 - 5144643&lt;br&gt;&lt;br&gt;&lt;b&gt;BlastP hit with cds46862_47138&lt;/b&gt;&lt;br&gt;Percentage identity: 100&lt;br&gt;Percentage coverage: 100&lt;br&gt;BLAST bit score: 180&lt;br&gt;E-value: 5.9e-44" locus_tag="DBP12_RS22900" points="221,85 226,80 240,80 240,90 226,90 221,85 "  />
</g>
<g id="a1_003"  >
<polygon style="fill:#b115d8; stroke-width:1; stroke:black; " id="dummy-1_h1_6_3" class="clusterblast-orf" description="&lt;b&gt;DBP12_RS22905&lt;/b&gt;&lt;br&gt;DUF4429 domain-containing protein&lt;br&gt;Location: 5144730 - 5145611&lt;br&gt;&lt;br&gt;&lt;b&gt;BlastP hit with cds47224_48106&lt;/b&gt;&lt;br&gt;Percentage identity: 99&lt;br&gt;Percentage coverage: 100&lt;br&gt;BLAST bit score: 582&lt;br&gt;E-value: 1.7e-164" locus_tag="DBP12_RS22905" points="246,85 251,80 306,80 306,90 251,90 246,85 "  />
</g>
<g id="a1_004"  >
<polygon style="fill:#d88a15; stroke-width:1; stroke:black; " id="dummy-1_h1_6_4" class="clusterblast-orf" description="&lt;b&gt;DBP12_RS22910&lt;/b&gt;&lt;br&gt;IucA/IucC family siderophore biosynthesis protein&lt;br&gt;Location: 5145717 - 5147495&lt;br&gt;&lt;br&gt;&lt;b&gt;BlastP hit with cds48211_49990&lt;/b&gt;&lt;br&gt;Percentage identity: 99&lt;br&gt;Percentage coverage: 100&lt;br&gt;BLAST bit score: 1184&lt;br&gt;E-value: 0.0" locus_tag="DBP12_RS22910" points="313,85 318,80 434,80 434,90 318,90 313,85 "  />
</g>
<g id="a1_005"  >
<polygon style="fill:#15d863; stroke-width:1; stroke:black; " id="dummy-1_h1_6_5" class="clusterblast-orf" description="&lt;b&gt;DBP12_RS22915&lt;/b&gt;&lt;br&gt;acetyltransferase&lt;br&gt;Location: 5147492 - 5148076&lt;br&gt;&lt;br&gt;&lt;b&gt;BlastP hit with cds49986_50556&lt;/b&gt;&lt;br&gt;Percentage identity: 94&lt;br&gt;Percentage coverage: 98&lt;br&gt;BLAST bit score: 360&lt;br&gt;E-value: 8.6e-98" locus_tag="DBP12_RS22915" points="433,85 438,80 473,80 473,90 438,90 433,85 "  />
</g>
<g id="a1_006"  >
<polygon style="fill:#3c15d8; stroke-width:1; stroke:black; " id="dummy-1_h1_6_6" class="clusterblast-orf" description="&lt;b&gt;DBP12_RS22920&lt;/b&gt;&lt;br&gt;lysine N(6)-hydroxylase/L-ornithine N(5)-oxygenase family protein&lt;br&gt;Location: 5148073 - 5149350&lt;br&gt;&lt;br&gt;&lt;b&gt;BlastP hit with cds50552_51830&lt;/b&gt;&lt;br&gt;Percentage identity: 97&lt;br&gt;Percentage coverage: 100&lt;br&gt;BLAST bit score: 857&lt;br&gt;E-value: 5e-247" locus_tag="DBP12_RS22920" points="473,85 478,80 559,80 559,90 478,90 473,85 "  />
</g>
<g id="a1_007"  >
<polygon style="fill:#d8158a; stroke-width:1; stroke:black; " id="dummy-1_h1_6_7" class="clusterblast-orf" description="&lt;b&gt;DBP12_RS22925&lt;/b&gt;&lt;br&gt;aspartate aminotransferase family protein&lt;br&gt;Location: 5149334 - 5150782&lt;br&gt;&lt;br&gt;&lt;b&gt;BlastP hit with cds51813_53262&lt;/b&gt;&lt;br&gt;Percentage identity: 99&lt;br&gt;Percentage coverage: 100&lt;br&gt;BLAST bit score: 945&lt;br&gt;E-value: 2.7e-273" locus_tag="DBP12_RS22925" points="558,85 563,80 657,80 657,90 563,90 558,85 "  />
</g>
<g id="a1_008"  >
<polygon style="fill:#b1d815; stroke-width:1; stroke:black; " id="dummy-1_h1_6_8" class="clusterblast-orf" description="&lt;b&gt;DBP12_RS22930&lt;/b&gt;&lt;br&gt;siderophore-interacting protein&lt;br&gt;Location: 5150939 - 5151853&lt;br&gt;&lt;br&gt;&lt;b&gt;BlastP hit with cds53418_54333&lt;/b&gt;&lt;br&gt;Percentage identity: 96&lt;br&gt;Percentage coverage: 100&lt;br&gt;BLAST bit score: 579&lt;br&gt;E-value: 1.5e-163" locus_tag="DBP12_RS22930" points="667,85 672,80 729,80 729,90 672,90 667,85 "  />
</g>
</svg>
