<svg xmlns:xlink="http://www.w3.org/1999/xlink" x="0" preserveAspectRatio="none" version="1.1" height="230" viewBox="0 0 800 230" y="0" xmlns="http://www.w3.org/2000/svg" width="800"  >
<g label="Query sequence" class="clusterblast-cluster"  >
<text class="clusterblast-acc" x="5" y="20"  >
Query sequence</text>
<line y2="35" x1="10" style="stroke-width:1; stroke:grey; " y1="35" x2="778.0"  />
<polygon style="fill:#d81515; stroke-width:1; stroke:black; " id="dummy-1_q0_0_all" class="clusterblast-orf" description="&lt;b&gt;cds9386_10610&lt;/b&gt;&lt;br&gt;putative cytochrome P450&lt;br&gt;Location: 9386 - 10610" locus_tag="cds9386_10610" points="262,40 273,40 278,35 273,30 262,30 262,40 "  />
<polygon style="fill:#56d815; stroke-width:1; stroke:black; " id="dummy-1_q1_0_all" class="clusterblast-orf" description="&lt;b&gt;cds10650_11337&lt;/b&gt;&lt;br&gt;hypothetical protein&lt;br&gt;Location: 10650 - 11337" locus_tag="cds10650_11337" points="278,35 283,30 287,30 287,40 283,40 278,35 "  />
<polygon style="fill:white; stroke-width:1; stroke:black; " id="dummy-1_q2_0_all" class="clusterblast-orf" description="&lt;b&gt;cds11419_11563&lt;/b&gt;&lt;br&gt;hypothetical protein&lt;br&gt;Location: 11419 - 11563" locus_tag="cds11419_11563" points="288,40 290,35 288,30 288,40 "  />
<polygon style="fill:#1597d8; stroke-width:1; stroke:black; " id="dummy-1_q3_0_all" class="clusterblast-orf" description="&lt;b&gt;cds11612_12995&lt;/b&gt;&lt;br&gt;hypothetical protein&lt;br&gt;Location: 11612 - 12995" locus_tag="cds11612_12995" points="291,35 296,30 309,30 309,40 296,40 291,35 "  />
<polygon style="fill:#9715d8; stroke-width:1; stroke:black; " id="dummy-1_q4_0_all" class="clusterblast-orf" description="&lt;b&gt;cds13011_13785&lt;/b&gt;&lt;br&gt;hypothetical protein&lt;br&gt;Location: 13011 - 13785" locus_tag="cds13011_13785" points="309,35 314,30 319,30 319,40 314,40 309,35 "  />
<polygon style="fill:#d85615; stroke-width:1; stroke:black; " id="dummy-1_q5_0_all" class="clusterblast-orf" description="&lt;b&gt;cds13826_14453&lt;/b&gt;&lt;br&gt;hypothetical protein&lt;br&gt;Location: 13826 - 14453" locus_tag="cds13826_14453" points="319,35 324,30 327,30 327,40 324,40 319,35 "  />
<polygon style="fill:#15d815; stroke-width:1; stroke:black; " id="dummy-1_q6_0_all" class="clusterblast-orf" description="&lt;b&gt;cds14522_15317&lt;/b&gt;&lt;br&gt;transglutaminase domain protein&lt;br&gt;Location: 14522 - 15317" locus_tag="cds14522_15317" points="328,35 333,30 339,30 339,40 333,40 328,35 "  />
<polygon style="fill:#1556d8; stroke-width:1; stroke:black; " id="dummy-1_q7_0_all" class="clusterblast-orf" description="&lt;b&gt;cds15473_16598&lt;/b&gt;&lt;br&gt;Glycosyltransferase&lt;br&gt;Location: 15473 - 16598" locus_tag="cds15473_16598" points="341,40 350,40 355,35 350,30 341,30 341,40 "  />
<polygon style="fill:#d815d8; stroke-width:1; stroke:black; " id="dummy-1_q8_0_all" class="clusterblast-orf" description="&lt;b&gt;cds16594_18139&lt;/b&gt;&lt;br&gt;Exoenzymes regulatory protein AepA precursor&lt;br&gt;Location: 16594 - 18139" locus_tag="cds16594_18139" points="355,35 360,30 375,30 375,40 360,40 355,35 "  />
<polygon style="fill:#d89715; stroke-width:1; stroke:black; " id="dummy-1_q9_0_all" class="clusterblast-orf" description="&lt;b&gt;cds18487_19468&lt;/b&gt;&lt;br&gt;FIG01126363: hypothetical protein&lt;br&gt;Location: 18487 - 19468" locus_tag="cds18487_19468" points="380,40 387,40 392,35 387,30 380,30 380,40 "  />
<polygon style="fill:#15d856; stroke-width:1; stroke:black; " id="dummy-1_q10_0_all" class="clusterblast-orf" description="&lt;b&gt;cds19596_20787&lt;/b&gt;&lt;br&gt;Geranylgeranyl diphosphate synthase (EC 2.5.1.29)&lt;br&gt;Location: 19596 - 20787" locus_tag="cds19596_20787" points="394,40 404,40 409,35 404,30 394,30 394,40 "  />
<polygon style="fill:#1515d8; stroke-width:1; stroke:black; " id="dummy-1_q11_0_all" class="clusterblast-orf" description="&lt;b&gt;cds20806_21391&lt;/b&gt;&lt;br&gt;hypothetical protein&lt;br&gt;Location: 20806 - 21391" locus_tag="cds20806_21391" points="410,35 415,30 417,30 417,40 415,40 410,35 "  />
<polygon style="fill:#d81597; stroke-width:1; stroke:black; " id="dummy-1_q12_0_all" class="clusterblast-orf" description="&lt;b&gt;cds21493_21931&lt;/b&gt;&lt;br&gt;Transcriptional regulator, MarR family&lt;br&gt;Location: 21493 - 21931" locus_tag="cds21493_21931" points="419,35 424,30 424,30 424,40 424,40 419,35 "  />
<polygon style="fill:#d8d815; stroke-width:1; stroke:black; " id="dummy-1_q13_0_all" class="clusterblast-orf" description="&lt;b&gt;cds21976_22597&lt;/b&gt;&lt;br&gt;hypothetical protein&lt;br&gt;Location: 21976 - 22597" locus_tag="cds21976_22597" points="425,40 428,40 433,35 428,30 425,30 425,40 "  />
<polygon style="fill:#15d897; stroke-width:1; stroke:black; " id="dummy-1_q14_0_all" class="clusterblast-orf" description="&lt;b&gt;cds22778_23723&lt;/b&gt;&lt;br&gt;hypothetical protein&lt;br&gt;Location: 22778 - 23723" locus_tag="cds22778_23723" points="435,40 442,40 447,35 442,30 435,30 435,40 "  />
<polygon style="fill:#5615d8; stroke-width:1; stroke:black; " id="dummy-1_q15_0_all" class="clusterblast-orf" description="&lt;b&gt;cds23730_24720&lt;/b&gt;&lt;br&gt;TRAP transporter solute receptor, TAXI family precursor&lt;br&gt;Location: 23730 - 24720" locus_tag="cds23730_24720" points="448,35 453,30 460,30 460,40 453,40 448,35 "  />
<polygon style="fill:#d81556; stroke-width:1; stroke:black; " id="dummy-1_q16_0_all" class="clusterblast-orf" description="&lt;b&gt;cds24716_26840&lt;/b&gt;&lt;br&gt;TRAP-type uncharacterized transport system, fused permease component&lt;br&gt;Location: 24716 - 26840" locus_tag="cds24716_26840" points="460,35 465,30 488,30 488,40 465,40 460,35 "  />
<polygon style="fill:#97d815; stroke-width:1; stroke:black; " id="dummy-1_q17_0_all" class="clusterblast-orf" description="&lt;b&gt;cds26946_27672&lt;/b&gt;&lt;br&gt;putative membrane-associated phospholipid phosphatase, PAP2 superfamily&lt;br&gt;Location: 26946 - 27672" locus_tag="cds26946_27672" points="489,35 494,30 499,30 499,40 494,40 489,35 "  />
<polygon style="fill:#15d8d8; stroke-width:1; stroke:black; " id="dummy-1_q18_0_all" class="clusterblast-orf" description="&lt;b&gt;cds27965_29123&lt;/b&gt;&lt;br&gt;hypothetical protein&lt;br&gt;Location: 27965 - 29123" locus_tag="cds27965_29123" points="502,40 512,40 517,35 512,30 502,30 502,40 "  />
</g>
<g label="NZ_ML123037" class="clusterblast-cluster" description="NZ_ML123037 (532719-592974): Streptomyces sp. ADI91-18 scaffold002, whole gen... (3% of genes show similarity), NRPS,terpene"  >
<text class="clusterblast-acc" x="5" y="70"  >
<a xlink:href="https://antismash-db.secondarymetabolites.org/area.html?record=NZ_ML123037&amp;start=532719&amp;end=592974" target="_blank">NZ_ML123037 (532719-592974)</a>: Streptomyces sp. ADI91-18 scaffold002, whole gen... (3% of genes show similarity), NRPS,terpene</text>
<line y2="85" x1="10" style="stroke-width:1; stroke:grey; " y1="85" x2="778.0"  />
</g>
<g id="a1_000"  >
<polygon style="fill:white; stroke-width:1; stroke:black; " id="dummy-1_h1_7_0" class="clusterblast-orf" description="&lt;b&gt;EES37_RS18395&lt;/b&gt;&lt;br&gt;DUF3995 domain-containing protein&lt;br&gt;Location: 532720 - 533253" locus_tag="EES37_RS18395" points="0,90 1,90 6,85 1,80 0,80 0,90 "  />
</g>
<g id="a1_001"  >
<polygon style="fill:white; stroke-width:1; stroke:black; " id="dummy-1_h1_7_1" class="clusterblast-orf" description="&lt;b&gt;EES37_RS18400&lt;/b&gt;&lt;br&gt;SnoaL-like domain-containing protein&lt;br&gt;Location: 533582 - 534010" locus_tag="EES37_RS18400" points="11,90 11,90 16,85 11,80 11,80 11,90 "  />
</g>
<g id="a1_002"  >
<polygon style="fill:white; stroke-width:1; stroke:black; " id="dummy-1_h1_7_2" class="clusterblast-orf" description="&lt;b&gt;EES37_RS18405&lt;/b&gt;&lt;br&gt;cell division protein ZapE&lt;br&gt;Location: 534264 - 535337" locus_tag="EES37_RS18405" points="19,90 28,90 33,85 28,80 19,80 19,90 "  />
</g>
<g id="a1_003"  >
<polygon style="fill:white; stroke-width:1; stroke:black; " id="dummy-1_h1_7_3" class="clusterblast-orf" description="&lt;b&gt;EES37_RS18410&lt;/b&gt;&lt;br&gt;hypothetical protein&lt;br&gt;Location: 535521 - 535808" locus_tag="EES37_RS18410" points="36,85 39,80 39,90 36,85 "  />
</g>
<g id="a1_004"  >
<polygon style="fill:white; stroke-width:1; stroke:black; " id="dummy-1_h1_7_4" class="clusterblast-orf" description="&lt;b&gt;EES37_RS38780&lt;/b&gt;&lt;br&gt;hypothetical protein&lt;br&gt;Location: 535851 - 536009" locus_tag="EES37_RS38780" points="40,85 42,80 42,90 40,85 "  />
</g>
<g id="a1_005"  >
<polygon style="fill:white; stroke-width:1; stroke:black; " id="dummy-1_h1_7_5" class="clusterblast-orf" description="&lt;b&gt;EES37_RS18415&lt;/b&gt;&lt;br&gt;Ig-like domain repeat protein&lt;br&gt;Location: 536239 - 536757" locus_tag="EES37_RS18415" points="45,85 50,80 52,80 52,90 50,90 45,85 "  />
</g>
<g id="a1_006"  >
<polygon style="fill:white; stroke-width:1; stroke:black; " id="dummy-1_h1_7_6" class="clusterblast-orf" description="&lt;b&gt;EES37_RS18420&lt;/b&gt;&lt;br&gt;Ig-like domain repeat protein&lt;br&gt;Location: 537295 - 537951" locus_tag="EES37_RS18420" points="59,85 64,80 67,80 67,90 64,90 59,85 "  />
</g>
<g id="a1_007"  >
<polygon style="fill:white; stroke-width:1; stroke:black; " id="dummy-1_h1_7_7" class="clusterblast-orf" description="&lt;b&gt;EES37_RS18425&lt;/b&gt;&lt;br&gt;guanine deaminase&lt;br&gt;Location: 538496 - 539827" locus_tag="EES37_RS18425" points="74,90 87,90 92,85 87,80 74,80 74,90 "  />
</g>
<g id="a1_008"  >
<polygon style="fill:white; stroke-width:1; stroke:black; " id="dummy-1_h1_7_8" class="clusterblast-orf" description="&lt;b&gt;EES37_RS18430&lt;/b&gt;&lt;br&gt;MFS transporter&lt;br&gt;Location: 539842 - 541156" locus_tag="EES37_RS18430" points="92,90 104,90 109,85 104,80 92,80 92,90 "  />
</g>
<g id="a1_009"  >
<polygon style="fill:white; stroke-width:1; stroke:black; " id="dummy-1_h1_7_9" class="clusterblast-orf" description="&lt;b&gt;EES37_RS18435&lt;/b&gt;&lt;br&gt;tetratricopeptide repeat protein&lt;br&gt;Location: 541375 - 543954" locus_tag="EES37_RS18435" points="112,85 117,80 145,80 145,90 117,90 112,85 "  />
</g>
<g id="a1_0010"  >
<polygon style="fill:white; stroke-width:1; stroke:black; " id="dummy-1_h1_7_10" class="clusterblast-orf" description="&lt;b&gt;EES37_RS18440&lt;/b&gt;&lt;br&gt;hypothetical protein&lt;br&gt;Location: 544052 - 544243" locus_tag="EES37_RS18440" points="146,85 149,80 149,90 146,85 "  />
</g>
<g id="a1_0011"  >
<polygon style="fill:white; stroke-width:1; stroke:black; " id="dummy-1_h1_7_11" class="clusterblast-orf" description="&lt;b&gt;EES37_RS18445&lt;/b&gt;&lt;br&gt;hypothetical protein&lt;br&gt;Location: 546365 - 546580" locus_tag="EES37_RS18445" points="176,90 179,85 176,80 176,90 "  />
</g>
<g id="a1_0012"  >
<polygon style="fill:white; stroke-width:1; stroke:black; " id="dummy-1_h1_7_12" class="clusterblast-orf" description="&lt;b&gt;EES37_RS18450&lt;/b&gt;&lt;br&gt;hypothetical protein&lt;br&gt;Location: 546699 - 547097" locus_tag="EES37_RS18450" points="180,90 181,90 186,85 181,80 180,80 180,90 "  />
</g>
<g id="a1_0013"  >
<polygon style="fill:white; stroke-width:1; stroke:black; " id="dummy-1_h1_7_13" class="clusterblast-orf" description="&lt;b&gt;EES37_RS18455&lt;/b&gt;&lt;br&gt;hypothetical protein&lt;br&gt;Location: 547674 - 548024" locus_tag="EES37_RS18455" points="193,90 193,90 198,85 193,80 193,80 193,90 "  />
</g>
<g id="a1_0014"  >
<polygon style="fill:white; stroke-width:1; stroke:black; " id="dummy-1_h1_7_14" class="clusterblast-orf" description="&lt;b&gt;EES37_RS18460&lt;/b&gt;&lt;br&gt;SDR family oxidoreductase&lt;br&gt;Location: 548221 - 549114" locus_tag="EES37_RS18460" points="200,85 205,80 212,80 212,90 205,90 200,85 "  />
</g>
<g id="a1_0015"  >
<polygon style="fill:white; stroke-width:1; stroke:black; " id="dummy-1_h1_7_15" class="clusterblast-orf" description="&lt;b&gt;EES37_RS18465&lt;/b&gt;&lt;br&gt;EF-hand domain-containing protein&lt;br&gt;Location: 549451 - 550044" locus_tag="EES37_RS18465" points="216,90 219,90 224,85 219,80 216,80 216,90 "  />
</g>
<g id="a1_0016"  >
<polygon style="fill:white; stroke-width:1; stroke:black; " id="dummy-1_h1_7_16" class="clusterblast-orf" description="&lt;b&gt;EES37_RS18470&lt;/b&gt;&lt;br&gt;methyltransferase domain-containing protein&lt;br&gt;Location: 550236 - 551060" locus_tag="EES37_RS18470" points="226,90 232,90 237,85 232,80 226,80 226,90 "  />
</g>
<g id="a1_0017"  >
<polygon style="fill:#d81515; stroke-width:1; stroke:black; " id="dummy-1_h1_7_17" class="clusterblast-orf" description="&lt;b&gt;EES37_RS18475&lt;/b&gt;&lt;br&gt;cytochrome P450&lt;br&gt;Location: 551093 - 552355&lt;br&gt;&lt;br&gt;&lt;b&gt;BlastP hit with cds9386_10610&lt;/b&gt;&lt;br&gt;Percentage identity: 45&lt;br&gt;Percentage coverage: 100&lt;br&gt;BLAST bit score: 359&lt;br&gt;E-value: 4.1e-97" locus_tag="EES37_RS18475" points="237,90 249,90 254,85 249,80 237,80 237,90 "  />
</g>
<g id="a1_0018"  >
<polygon style="fill:white; stroke-width:1; stroke:black; " id="dummy-1_h1_7_18" class="clusterblast-orf" description="&lt;b&gt;EES37_RS18480&lt;/b&gt;&lt;br&gt;non-ribosomal peptide synthetase&lt;br&gt;Location: 552370 - 559572" locus_tag="EES37_RS18480" points="254,90 342,90 347,85 342,80 254,80 254,90 "  />
</g>
<g id="a1_0019"  >
<polygon style="fill:white; stroke-width:1; stroke:black; " id="dummy-1_h1_7_19" class="clusterblast-orf" description="&lt;b&gt;EES37_RS18485&lt;/b&gt;&lt;br&gt;NAD(P)-binding protein&lt;br&gt;Location: 559595 - 562117" locus_tag="EES37_RS18485" points="347,90 375,90 380,85 375,80 347,80 347,90 "  />
</g>
<g id="a1_0020"  >
<polygon style="fill:white; stroke-width:1; stroke:black; " id="dummy-1_h1_7_20" class="clusterblast-orf" description="&lt;b&gt;EES37_RS18490&lt;/b&gt;&lt;br&gt;methyltransferase&lt;br&gt;Location: 562218 - 563051" locus_tag="EES37_RS18490" points="381,90 387,90 392,85 387,80 381,80 381,90 "  />
</g>
<g id="a1_0021"  >
<polygon style="fill:white; stroke-width:1; stroke:black; " id="dummy-1_h1_7_21" class="clusterblast-orf" description="&lt;b&gt;EES37_RS18495&lt;/b&gt;&lt;br&gt;acyl carrier protein&lt;br&gt;Location: 563097 - 563330" locus_tag="EES37_RS18495" points="393,85 396,80 396,90 393,85 "  />
</g>
<g id="a1_0022"  >
<polygon style="fill:white; stroke-width:1; stroke:black; " id="dummy-1_h1_7_22" class="clusterblast-orf" description="&lt;b&gt;EES37_RS18500&lt;/b&gt;&lt;br&gt;beta-ketoacyl-ACP synthase 3&lt;br&gt;Location: 563303 - 564343" locus_tag="EES37_RS18500" points="395,85 400,80 409,80 409,90 400,90 395,85 "  />
</g>
<g id="a1_0023"  >
<polygon style="fill:white; stroke-width:1; stroke:black; " id="dummy-1_h1_7_23" class="clusterblast-orf" description="&lt;b&gt;EES37_RS18510&lt;/b&gt;&lt;br&gt;FMN reductase&lt;br&gt;Location: 564730 - 565383" locus_tag="EES37_RS18510" points="414,85 419,80 422,80 422,90 419,90 414,85 "  />
</g>
<g id="a1_0024"  >
<polygon style="fill:white; stroke-width:1; stroke:black; " id="dummy-1_h1_7_24" class="clusterblast-orf" description="&lt;b&gt;EES37_RS18515&lt;/b&gt;&lt;br&gt;LLM class flavin-dependent oxidoreductase&lt;br&gt;Location: 565380 - 566481" locus_tag="EES37_RS18515" points="422,85 427,80 437,80 437,90 427,90 422,85 "  />
</g>
<g id="a1_0025"  >
<polygon style="fill:white; stroke-width:1; stroke:black; " id="dummy-1_h1_7_25" class="clusterblast-orf" description="&lt;b&gt;EES37_RS18520&lt;/b&gt;&lt;br&gt;hypothetical protein&lt;br&gt;Location: 566918 - 567361" locus_tag="EES37_RS18520" points="442,85 447,80 448,80 448,90 447,90 442,85 "  />
</g>
<g id="a1_0026"  >
<polygon style="fill:white; stroke-width:1; stroke:black; " id="dummy-1_h1_7_26" class="clusterblast-orf" description="&lt;b&gt;EES37_RS18530&lt;/b&gt;&lt;br&gt;helix-turn-helix domain-containing protein&lt;br&gt;Location: 567637 - 568587" locus_tag="EES37_RS18530" points="452,85 457,80 464,80 464,90 457,90 452,85 "  />
</g>
<g id="a1_0027"  >
<polygon style="fill:white; stroke-width:1; stroke:black; " id="dummy-1_h1_7_27" class="clusterblast-orf" description="&lt;b&gt;EES37_RS18535&lt;/b&gt;&lt;br&gt;alpha/beta hydrolase&lt;br&gt;Location: 568675 - 569238" locus_tag="EES37_RS18535" points="465,90 467,90 472,85 467,80 465,80 465,90 "  />
</g>
<g id="a1_0028"  >
<polygon style="fill:white; stroke-width:1; stroke:black; " id="dummy-1_h1_7_28" class="clusterblast-orf" description="&lt;b&gt;EES37_RS18540&lt;/b&gt;&lt;br&gt;hypothetical protein&lt;br&gt;Location: 569449 - 570102" locus_tag="EES37_RS18540" points="475,90 478,90 483,85 478,80 475,80 475,90 "  />
</g>
<g id="a1_0029"  >
<polygon style="fill:white; stroke-width:1; stroke:black; " id="dummy-1_h1_7_29" class="clusterblast-orf" description="&lt;b&gt;EES37_RS18545&lt;/b&gt;&lt;br&gt;hypothetical protein&lt;br&gt;Location: 570827 - 571060" locus_tag="EES37_RS18545" points="493,85 496,80 496,90 493,85 "  />
</g>
<g id="a1_0030"  >
<polygon style="fill:white; stroke-width:1; stroke:black; " id="dummy-1_h1_7_30" class="clusterblast-orf" description="&lt;b&gt;EES37_RS18550&lt;/b&gt;&lt;br&gt;GNAT family N-acetyltransferase&lt;br&gt;Location: 571329 - 571859" locus_tag="EES37_RS18550" points="499,85 504,80 506,80 506,90 504,90 499,85 "  />
</g>
<g id="a1_0031"  >
<polygon style="fill:white; stroke-width:1; stroke:black; " id="dummy-1_h1_7_31" class="clusterblast-orf" description="&lt;b&gt;EES37_RS18555&lt;/b&gt;&lt;br&gt;alpha/beta hydrolase&lt;br&gt;Location: 572597 - 573553" locus_tag="EES37_RS18555" points="516,85 521,80 528,80 528,90 521,90 516,85 "  />
</g>
<g id="a1_0032"  >
<polygon style="fill:white; stroke-width:1; stroke:black; " id="dummy-1_h1_7_32" class="clusterblast-orf" description="&lt;b&gt;EES37_RS18560&lt;/b&gt;&lt;br&gt;TetR family transcriptional regulator&lt;br&gt;Location: 573679 - 574302" locus_tag="EES37_RS18560" points="530,90 533,90 538,85 533,80 530,80 530,90 "  />
</g>
<g id="a1_0033"  >
<polygon style="fill:white; stroke-width:1; stroke:black; " id="dummy-1_h1_7_33" class="clusterblast-orf" description="&lt;b&gt;EES37_RS18565&lt;/b&gt;&lt;br&gt;helix-turn-helix transcriptional regulator&lt;br&gt;Location: 574354 - 575241" locus_tag="EES37_RS18565" points="538,85 543,80 550,80 550,90 543,90 538,85 "  />
</g>
<g id="a1_0034"  >
<polygon style="fill:white; stroke-width:1; stroke:black; " id="dummy-1_h1_7_34" class="clusterblast-orf" description="&lt;b&gt;EES37_RS18570&lt;/b&gt;&lt;br&gt;4-oxalocrotonate tautomerase family protein&lt;br&gt;Location: 575409 - 575633" locus_tag="EES37_RS18570" points="552,90 555,85 552,80 552,90 "  />
</g>
<g id="a1_0035"  >
<polygon style="fill:white; stroke-width:1; stroke:black; " id="dummy-1_h1_7_35" class="clusterblast-orf" description="&lt;b&gt;EES37_RS18575&lt;/b&gt;&lt;br&gt;chaplin&lt;br&gt;Location: 575766 - 575996" locus_tag="EES37_RS18575" points="557,85 560,80 560,90 557,85 "  />
</g>
<g id="a1_0036"  >
<polygon style="fill:white; stroke-width:1; stroke:black; " id="dummy-1_h1_7_36" class="clusterblast-orf" description="&lt;b&gt;EES37_RS18580&lt;/b&gt;&lt;br&gt;hypothetical protein&lt;br&gt;Location: 576322 - 576663" locus_tag="EES37_RS18580" points="564,90 568,85 564,80 564,90 "  />
</g>
<g id="a1_0037"  >
<polygon style="fill:white; stroke-width:1; stroke:black; " id="dummy-1_h1_7_37" class="clusterblast-orf" description="&lt;b&gt;EES37_RS18590&lt;/b&gt;&lt;br&gt;hypothetical protein&lt;br&gt;Location: 576954 - 577523" locus_tag="EES37_RS18590" points="572,90 574,90 579,85 574,80 572,80 572,90 "  />
</g>
<g id="a1_0038"  >
<polygon style="fill:white; stroke-width:1; stroke:black; " id="dummy-1_h1_7_38" class="clusterblast-orf" description="&lt;b&gt;EES37_RS18595&lt;/b&gt;&lt;br&gt;hypothetical protein&lt;br&gt;Location: 577580 - 577783" locus_tag="EES37_RS18595" points="580,90 583,85 580,80 580,90 "  />
</g>
<g id="a1_0039"  >
<polygon style="fill:white; stroke-width:1; stroke:black; " id="dummy-1_h1_7_39" class="clusterblast-orf" description="&lt;b&gt;EES37_RS18600&lt;/b&gt;&lt;br&gt;MarR family transcriptional regulator&lt;br&gt;Location: 577813 - 578343" locus_tag="EES37_RS18600" points="583,85 588,80 590,80 590,90 588,90 583,85 "  />
</g>
<g id="a1_0040"  >
<polygon style="fill:white; stroke-width:1; stroke:black; " id="dummy-1_h1_7_40" class="clusterblast-orf" description="&lt;b&gt;EES37_RS18605&lt;/b&gt;&lt;br&gt;MFS transporter&lt;br&gt;Location: 578476 - 579966" locus_tag="EES37_RS18605" points="592,90 606,90 611,85 606,80 592,80 592,90 "  />
</g>
<g id="a1_0041"  >
<polygon style="fill:white; stroke-width:1; stroke:black; " id="dummy-1_h1_7_41" class="clusterblast-orf" description="&lt;b&gt;EES37_RS18610&lt;/b&gt;&lt;br&gt;helix-turn-helix transcriptional regulator&lt;br&gt;Location: 580020 - 581000" locus_tag="EES37_RS18610" points="612,85 617,80 624,80 624,90 617,90 612,85 "  />
</g>
<g id="a1_0042"  >
<polygon style="fill:white; stroke-width:1; stroke:black; " id="dummy-1_h1_7_42" class="clusterblast-orf" description="&lt;b&gt;EES37_RS18615&lt;/b&gt;&lt;br&gt;aldo/keto reductase&lt;br&gt;Location: 581086 - 581994" locus_tag="EES37_RS18615" points="626,90 632,90 637,85 632,80 626,80 626,90 "  />
</g>
<g id="a1_0043"  >
<polygon style="fill:#d89715; stroke-width:1; stroke:black; " id="dummy-1_h1_7_43" class="clusterblast-orf" description="&lt;b&gt;EES37_RS18620&lt;/b&gt;&lt;br&gt;terpene cyclase&lt;br&gt;Location: 582074 - 583081&lt;br&gt;&lt;br&gt;&lt;b&gt;BlastP hit with cds18487_19468&lt;/b&gt;&lt;br&gt;Percentage identity: 31&lt;br&gt;Percentage coverage: 96&lt;br&gt;BLAST bit score: 124&lt;br&gt;E-value: 2.3e-26" locus_tag="EES37_RS18620" points="638,85 643,80 651,80 651,90 643,90 638,85 "  />
</g>
<g id="a1_0044"  >
<polygon style="fill:white; stroke-width:1; stroke:black; " id="dummy-1_h1_7_44" class="clusterblast-orf" description="&lt;b&gt;EES37_RS18625&lt;/b&gt;&lt;br&gt;hypothetical protein&lt;br&gt;Location: 584774 - 585221" locus_tag="EES37_RS18625" points="673,85 678,80 679,80 679,90 678,90 673,85 "  />
</g>
<g id="a1_0045"  >
<polygon style="fill:white; stroke-width:1; stroke:black; " id="dummy-1_h1_7_45" class="clusterblast-orf" description="&lt;b&gt;EES37_RS18630&lt;/b&gt;&lt;br&gt;DUF3494 domain-containing protein&lt;br&gt;Location: 585340 - 586665" locus_tag="EES37_RS18630" points="681,85 686,80 698,80 698,90 686,90 681,85 "  />
</g>
<g id="a1_0046"  >
<polygon style="fill:white; stroke-width:1; stroke:black; " id="dummy-1_h1_7_46" class="clusterblast-orf" description="&lt;b&gt;EES37_RS18635&lt;/b&gt;&lt;br&gt;hypothetical protein&lt;br&gt;Location: 587072 - 587263" locus_tag="EES37_RS18635" points="703,90 706,85 703,80 703,90 "  />
</g>
<g id="a1_0047"  >
<polygon style="fill:white; stroke-width:1; stroke:black; " id="dummy-1_h1_7_47" class="clusterblast-orf" description="&lt;b&gt;EES37_RS18640&lt;/b&gt;&lt;br&gt;hypothetical protein&lt;br&gt;Location: 587746 - 588195" locus_tag="EES37_RS18640" points="712,85 717,80 718,80 718,90 717,90 712,85 "  />
</g>
<g id="a1_0048"  >
<polygon style="fill:white; stroke-width:1; stroke:black; " id="dummy-1_h1_7_48" class="clusterblast-orf" description="&lt;b&gt;EES37_RS18645&lt;/b&gt;&lt;br&gt;alkene reductase&lt;br&gt;Location: 588776 - 589849" locus_tag="EES37_RS18645" points="725,85 730,80 739,80 739,90 730,90 725,85 "  />
</g>
<g id="a1_0049"  >
<polygon style="fill:white; stroke-width:1; stroke:black; " id="dummy-1_h1_7_49" class="clusterblast-orf" description="&lt;b&gt;EES37_RS18650&lt;/b&gt;&lt;br&gt;MerR family transcriptional regulator&lt;br&gt;Location: 589966 - 590448" locus_tag="EES37_RS18650" points="741,90 742,90 747,85 742,80 741,80 741,90 "  />
</g>
<g id="a1_0050"  >
<polygon style="fill:white; stroke-width:1; stroke:black; " id="dummy-1_h1_7_50" class="clusterblast-orf" description="&lt;b&gt;EES37_RS18655&lt;/b&gt;&lt;br&gt;GNAT family N-acetyltransferase&lt;br&gt;Location: 590675 - 591217" locus_tag="EES37_RS18655" points="750,90 752,90 757,85 752,80 750,80 750,90 "  />
</g>
<g id="a1_0051"  >
<polygon style="fill:white; stroke-width:1; stroke:black; " id="dummy-1_h1_7_51" class="clusterblast-orf" description="&lt;b&gt;EES37_RS18660&lt;/b&gt;&lt;br&gt;winged helix-turn-helix transcriptional regulator&lt;br&gt;Location: 591433 - 591954" locus_tag="EES37_RS18660" points="760,85 765,80 766,80 766,90 765,90 760,85 "  />
</g>
<g id="a1_0052"  >
<polygon style="fill:white; stroke-width:1; stroke:black; " id="dummy-1_h1_7_52" class="clusterblast-orf" description="&lt;b&gt;EES37_RS18665&lt;/b&gt;&lt;br&gt;S41 family peptidase&lt;br&gt;Location: 592069 - 592974" locus_tag="EES37_RS18665" points="768,90 775,90 780,85 775,80 768,80 768,90 "  />
</g>
</svg>
