<svg xmlns:xlink="http://www.w3.org/1999/xlink" x="0" preserveAspectRatio="none" version="1.1" height="230" viewBox="0 0 800 230" y="0" xmlns="http://www.w3.org/2000/svg" width="800"  >
<g label="Query sequence" class="clusterblast-cluster"  >
<text class="clusterblast-acc" x="5" y="20"  >
Query sequence</text>
<line y2="35" x1="10" style="stroke-width:1; stroke:grey; " y1="35" x2="778.0"  />
<polygon style="fill:#d81515; stroke-width:1; stroke:black; " id="dummy-1_q0_0_all" class="clusterblast-orf" description="&lt;b&gt;cds322_2155&lt;/b&gt;&lt;br&gt;Translation initiation factor 2&lt;br&gt;Location: 322 - 2155" locus_tag="cds322_2155" points="325,40 344,40 349,35 344,30 325,30 325,40 "  />
<polygon style="fill:#77d815; stroke-width:1; stroke:black; " id="dummy-1_q1_0_all" class="clusterblast-orf" description="&lt;b&gt;cds2280_2583&lt;/b&gt;&lt;br&gt;YlxP-like protein&lt;br&gt;Location: 2280 - 2583" locus_tag="cds2280_2583" points="350,40 354,35 350,30 350,40 "  />
<polygon style="fill:#15d8d8; stroke-width:1; stroke:black; " id="dummy-1_q2_0_all" class="clusterblast-orf" description="&lt;b&gt;cds2607_3057&lt;/b&gt;&lt;br&gt;Ribosome-binding factor A&lt;br&gt;Location: 2607 - 3057" locus_tag="cds2607_3057" points="354,40 355,40 360,35 355,30 354,30 354,40 "  />
<polygon style="fill:#7715d8; stroke-width:1; stroke:black; " id="dummy-1_q3_0_all" class="clusterblast-orf" description="&lt;b&gt;cds3142_4243&lt;/b&gt;&lt;br&gt;Cyclic-di-AMP phosphodiesterase MSMEG 2630&lt;br&gt;Location: 3142 - 4243" locus_tag="cds3142_4243" points="361,40 370,40 375,35 370,30 361,30 361,40 "  />
<polygon style="fill:#d8a715; stroke-width:1; stroke:black; " id="dummy-1_q4_0_all" class="clusterblast-orf" description="&lt;b&gt;cds4576_8047&lt;/b&gt;&lt;br&gt;Polyketide synthase modules and related proteins @ Long-chain fatty-acid-CoA ligase (EC 6.2.1.3), Mycobacterial subgroup FadD9&lt;br&gt;Location: 4576 - 8047" locus_tag="cds4576_8047" points="380,40 419,40 424,35 419,30 380,30 380,40 "  />
<polygon style="fill:#15d846; stroke-width:1; stroke:black; " id="dummy-1_q5_0_all" class="clusterblast-orf" description="&lt;b&gt;cds8056_8899&lt;/b&gt;&lt;br&gt;Transcriptional regulator, Xre family&lt;br&gt;Location: 8056 - 8899" locus_tag="cds8056_8899" points="424,35 429,30 435,30 435,40 429,40 424,35 "  />
<polygon style="fill:#1546d8; stroke-width:1; stroke:black; " id="dummy-1_q6_0_all" class="clusterblast-orf" description="&lt;b&gt;cds8895_9417&lt;/b&gt;&lt;br&gt;hypothetical protein&lt;br&gt;Location: 8895 - 9417" locus_tag="cds8895_9417" points="435,35 440,30 441,30 441,40 440,40 435,35 "  />
<polygon style="fill:#d815a7; stroke-width:1; stroke:black; " id="dummy-1_q7_0_all" class="clusterblast-orf" description="&lt;b&gt;cds9397_9730&lt;/b&gt;&lt;br&gt;hypothetical protein&lt;br&gt;Location: 9397 - 9730" locus_tag="cds9397_9730" points="441,35 445,30 445,40 441,35 "  />
<polygon style="fill:white; stroke-width:1; stroke:black; " id="dummy-1_q8_0_all" class="clusterblast-orf" description="&lt;b&gt;cds9908_10409&lt;/b&gt;&lt;br&gt;hypothetical protein&lt;br&gt;Location: 9908 - 10409" locus_tag="cds9908_10409" points="448,40 449,40 454,35 449,30 448,30 448,40 "  />
</g>
<g label="NZ_VMSD01000003" class="clusterblast-cluster" description="NZ_VMSD01000003 (664462-727013): Nocardia caishijiensis strain DSM 44831 Ga02... (10% of genes show similarity), NRPS"  >
<text class="clusterblast-acc" x="5" y="70"  >
<a xlink:href="https://antismash-db.secondarymetabolites.org/area.html?record=NZ_VMSD01000003&amp;start=664462&amp;end=727013" target="_blank">NZ_VMSD01000003 (664462-727013)</a>: Nocardia caishijiensis strain DSM 44831 Ga02... (10% of genes show similarity), NRPS</text>
<line y2="85" x1="10" style="stroke-width:1; stroke:grey; " y1="85" x2="778.0"  />
</g>
<g id="a1_000"  >
<polygon style="fill:white; stroke-width:1; stroke:black; " id="dummy-1_h1_9_0" class="clusterblast-orf" description="&lt;b&gt;FNL39_RS12780&lt;/b&gt;&lt;br&gt;YlxR family protein&lt;br&gt;Location: 726584 - 726255" locus_tag="FNL39_RS12780" points="0,90 4,85 0,80 0,90 "  />
</g>
<g id="a1_001"  >
<polygon style="fill:#d81515; stroke-width:1; stroke:black; " id="dummy-1_h1_9_1" class="clusterblast-orf" description="&lt;b&gt;FNL39_RS12775&lt;/b&gt;&lt;br&gt;translation initiation factor IF-2&lt;br&gt;Location: 726146 - 723171&lt;br&gt;&lt;br&gt;&lt;b&gt;BlastP hit with cds322_2155&lt;/b&gt;&lt;br&gt;Percentage identity: 92&lt;br&gt;Percentage coverage: 100&lt;br&gt;BLAST bit score: 1083&lt;br&gt;E-value: 0.0" locus_tag="FNL39_RS12775" points="5,90 38,90 43,85 38,80 5,80 5,90 "  />
</g>
<g id="a1_002"  >
<polygon style="fill:#77d815; stroke-width:1; stroke:black; " id="dummy-1_h1_9_2" class="clusterblast-orf" description="&lt;b&gt;FNL39_RS12770&lt;/b&gt;&lt;br&gt;DUF503 domain-containing protein&lt;br&gt;Location: 723081 - 722788&lt;br&gt;&lt;br&gt;&lt;b&gt;BlastP hit with cds2280_2583&lt;/b&gt;&lt;br&gt;Percentage identity: 72&lt;br&gt;Percentage coverage: 97&lt;br&gt;BLAST bit score: 144&lt;br&gt;E-value: 5.1e-33" locus_tag="FNL39_RS12770" points="44,90 48,85 44,80 44,90 "  />
</g>
<g id="a1_003"  >
<polygon style="fill:#15d8d8; stroke-width:1; stroke:black; " id="dummy-1_h1_9_3" class="clusterblast-orf" description="&lt;b&gt;FNL39_RS12765&lt;/b&gt;&lt;br&gt;30S ribosome-binding factor RbfA&lt;br&gt;Location: 722735 - 722289&lt;br&gt;&lt;br&gt;&lt;b&gt;BlastP hit with cds2607_3057&lt;/b&gt;&lt;br&gt;Percentage identity: 86&lt;br&gt;Percentage coverage: 99&lt;br&gt;BLAST bit score: 238&lt;br&gt;E-value: 5.1e-61" locus_tag="FNL39_RS12765" points="49,90 49,90 54,85 49,80 49,80 49,90 "  />
</g>
<g id="a1_004"  >
<polygon style="fill:#7715d8; stroke-width:1; stroke:black; " id="dummy-1_h1_9_4" class="clusterblast-orf" description="&lt;b&gt;FNL39_RS12760&lt;/b&gt;&lt;br&gt;bifunctional oligoribonuclease/PAP phosphatase NrnA&lt;br&gt;Location: 722279 - 721281&lt;br&gt;&lt;br&gt;&lt;b&gt;BlastP hit with cds3142_4243&lt;/b&gt;&lt;br&gt;Percentage identity: 68&lt;br&gt;Percentage coverage: 89&lt;br&gt;BLAST bit score: 419&lt;br&gt;E-value: 3.9e-115" locus_tag="FNL39_RS12760" points="54,90 62,90 67,85 62,80 54,80 54,90 "  />
</g>
<g id="a1_005"  >
<polygon style="fill:white; stroke-width:1; stroke:black; " id="dummy-1_h1_9_5" class="clusterblast-orf" description="&lt;b&gt;FNL39_RS12755&lt;/b&gt;&lt;br&gt;MATE family efflux transporter&lt;br&gt;Location: 721078 - 719750" locus_tag="FNL39_RS12755" points="70,90 82,90 87,85 82,80 70,80 70,90 "  />
</g>
<g id="a1_006"  >
<polygon style="fill:white; stroke-width:1; stroke:black; " id="dummy-1_h1_9_6" class="clusterblast-orf" description="&lt;b&gt;FNL39_RS12750&lt;/b&gt;&lt;br&gt;hypothetical protein&lt;br&gt;Location: 719576 - 718473" locus_tag="FNL39_RS12750" points="89,90 98,90 103,85 98,80 89,80 89,90 "  />
</g>
<g id="a1_007"  >
<polygon style="fill:white; stroke-width:1; stroke:black; " id="dummy-1_h1_9_7" class="clusterblast-orf" description="&lt;b&gt;FNL39_RS12745&lt;/b&gt;&lt;br&gt;hypothetical protein&lt;br&gt;Location: 718444 - 717557" locus_tag="FNL39_RS12745" points="103,85 108,80 115,80 115,90 108,90 103,85 "  />
</g>
<g id="a1_008"  >
<polygon style="fill:white; stroke-width:1; stroke:black; " id="dummy-1_h1_9_8" class="clusterblast-orf" description="&lt;b&gt;FNL39_RS12740&lt;/b&gt;&lt;br&gt;metallophosphoesterase&lt;br&gt;Location: 717402 - 716446" locus_tag="FNL39_RS12740" points="117,90 124,90 129,85 124,80 117,80 117,90 "  />
</g>
<g id="a1_009"  >
<polygon style="fill:white; stroke-width:1; stroke:black; " id="dummy-1_h1_9_9" class="clusterblast-orf" description="&lt;b&gt;FNL39_RS12735&lt;/b&gt;&lt;br&gt;4'-phosphopantetheinyl transferase superfamily protein&lt;br&gt;Location: 716289 - 715618" locus_tag="FNL39_RS12735" points="131,90 134,90 139,85 134,80 131,80 131,90 "  />
</g>
<g id="a1_0010"  >
<polygon style="fill:white; stroke-width:1; stroke:black; " id="dummy-1_h1_9_10" class="clusterblast-orf" description="&lt;b&gt;FNL39_RS12730&lt;/b&gt;&lt;br&gt;tRNA pseudouridine(55) synthase TruB&lt;br&gt;Location: 715618 - 714692" locus_tag="FNL39_RS12730" points="139,90 146,90 151,85 146,80 139,80 139,90 "  />
</g>
<g id="a1_0011"  >
<polygon style="fill:white; stroke-width:1; stroke:black; " id="dummy-1_h1_9_11" class="clusterblast-orf" description="&lt;b&gt;FNL39_RS12725&lt;/b&gt;&lt;br&gt;nitroreductase family deazaflavin-dependent oxidoreductase&lt;br&gt;Location: 714666 - 714244" locus_tag="FNL39_RS12725" points="151,85 156,80 157,80 157,90 156,90 151,85 "  />
</g>
<g id="a1_0012"  >
<polygon style="fill:white; stroke-width:1; stroke:black; " id="dummy-1_h1_9_12" class="clusterblast-orf" description="&lt;b&gt;FNL39_RS12720&lt;/b&gt;&lt;br&gt;TetR/AcrR family transcriptional regulator&lt;br&gt;Location: 714272 - 713568" locus_tag="FNL39_RS12720" points="156,90 160,90 165,85 160,80 156,80 156,90 "  />
</g>
<g id="a1_0013"  >
<polygon style="fill:white; stroke-width:1; stroke:black; " id="dummy-1_h1_9_13" class="clusterblast-orf" description="&lt;b&gt;FNL39_RS12715&lt;/b&gt;&lt;br&gt;hypothetical protein&lt;br&gt;Location: 713423 - 712629" locus_tag="FNL39_RS12715" points="167,90 172,90 177,85 172,80 167,80 167,90 "  />
</g>
<g id="a1_0014"  >
<polygon style="fill:white; stroke-width:1; stroke:black; " id="dummy-1_h1_9_14" class="clusterblast-orf" description="&lt;b&gt;FNL39_RS12710&lt;/b&gt;&lt;br&gt;winged helix-turn-helix transcriptional regulator&lt;br&gt;Location: 712625 - 711957" locus_tag="FNL39_RS12710" points="178,85 183,80 186,80 186,90 183,90 178,85 "  />
</g>
<g id="a1_0015"  >
<polygon style="fill:white; stroke-width:1; stroke:black; " id="dummy-1_h1_9_15" class="clusterblast-orf" description="&lt;b&gt;FNL39_RS12705&lt;/b&gt;&lt;br&gt;bifunctional riboflavin kinase/FAD synthetase&lt;br&gt;Location: 711807 - 710839" locus_tag="FNL39_RS12705" points="188,90 195,90 200,85 195,80 188,80 188,90 "  />
</g>
<g id="a1_0016"  >
<polygon style="fill:white; stroke-width:1; stroke:black; " id="dummy-1_h1_9_16" class="clusterblast-orf" description="&lt;b&gt;FNL39_RS12700&lt;/b&gt;&lt;br&gt;30S ribosomal protein S15&lt;br&gt;Location: 710679 - 710410" locus_tag="FNL39_RS12700" points="202,90 206,85 202,80 202,90 "  />
</g>
<g id="a1_0017"  >
<polygon style="fill:white; stroke-width:1; stroke:black; " id="dummy-1_h1_9_17" class="clusterblast-orf" description="&lt;b&gt;FNL39_RS12695&lt;/b&gt;&lt;br&gt;polyribonucleotide nucleotidyltransferase&lt;br&gt;Location: 710003 - 707730" locus_tag="FNL39_RS12695" points="211,90 235,90 240,85 235,80 211,80 211,90 "  />
</g>
<g id="a1_0018"  >
<polygon style="fill:white; stroke-width:1; stroke:black; " id="dummy-1_h1_9_18" class="clusterblast-orf" description="&lt;b&gt;FNL39_RS12690&lt;/b&gt;&lt;br&gt;amino acid adenylation domain-containing protein&lt;br&gt;Location: 707013 - 704839" locus_tag="FNL39_RS12690" points="249,90 272,90 277,85 272,80 249,80 249,90 "  />
</g>
<g id="a1_0019"  >
<polygon style="fill:white; stroke-width:1; stroke:black; " id="dummy-1_h1_9_19" class="clusterblast-orf" description="&lt;b&gt;FNL39_RS12685&lt;/b&gt;&lt;br&gt;hypothetical protein&lt;br&gt;Location: 701256 - 700072" locus_tag="FNL39_RS12685" points="322,90 333,90 338,85 333,80 322,80 322,90 "  />
</g>
<g id="a1_0020"  >
<polygon style="fill:white; stroke-width:1; stroke:black; " id="dummy-1_h1_9_20" class="clusterblast-orf" description="&lt;b&gt;FNL39_RS12680&lt;/b&gt;&lt;br&gt;amino acid adenylation domain-containing protein&lt;br&gt;Location: 699690 - 684463" locus_tag="FNL39_RS12680" points="342,90 532,90 537,85 532,80 342,80 342,90 "  />
</g>
<g id="a1_0021"  >
<polygon style="fill:white; stroke-width:1; stroke:black; " id="dummy-1_h1_9_21" class="clusterblast-orf" description="&lt;b&gt;FNL39_RS12675&lt;/b&gt;&lt;br&gt;insulinase family protein&lt;br&gt;Location: 683479 - 682148" locus_tag="FNL39_RS12675" points="549,90 561,90 566,85 561,80 549,80 549,90 "  />
</g>
<g id="a1_0022"  >
<polygon style="fill:white; stroke-width:1; stroke:black; " id="dummy-1_h1_9_22" class="clusterblast-orf" description="&lt;b&gt;FNL39_RS12670&lt;/b&gt;&lt;br&gt;sensor histidine kinase&lt;br&gt;Location: 682133 - 680949" locus_tag="FNL39_RS12670" points="566,85 571,80 581,80 581,90 571,90 566,85 "  />
</g>
<g id="a1_0023"  >
<polygon style="fill:white; stroke-width:1; stroke:black; " id="dummy-1_h1_9_23" class="clusterblast-orf" description="&lt;b&gt;FNL39_RS12665&lt;/b&gt;&lt;br&gt;ABC transporter permease subunit&lt;br&gt;Location: 680919 - 680080" locus_tag="FNL39_RS12665" points="582,85 587,80 593,80 593,90 587,90 582,85 "  />
</g>
<g id="a1_0024"  >
<polygon style="fill:white; stroke-width:1; stroke:black; " id="dummy-1_h1_9_24" class="clusterblast-orf" description="&lt;b&gt;FNL39_RS12660&lt;/b&gt;&lt;br&gt;ABC transporter ATP-binding protein&lt;br&gt;Location: 680083 - 679190" locus_tag="FNL39_RS12660" points="592,85 597,80 604,80 604,90 597,90 592,85 "  />
</g>
<g id="a1_0025"  >
<polygon style="fill:white; stroke-width:1; stroke:black; " id="dummy-1_h1_9_25" class="clusterblast-orf" description="&lt;b&gt;FNL39_RS12655&lt;/b&gt;&lt;br&gt;hypothetical protein&lt;br&gt;Location: 679110 - 677911" locus_tag="FNL39_RS12655" points="605,85 610,80 620,80 620,90 610,90 605,85 "  />
</g>
<g id="a1_0026"  >
<polygon style="fill:white; stroke-width:1; stroke:black; " id="dummy-1_h1_9_26" class="clusterblast-orf" description="&lt;b&gt;FNL39_RS12650&lt;/b&gt;&lt;br&gt;acetyl-CoA carboxylase biotin carboxylase subunit&lt;br&gt;Location: 677914 - 676523" locus_tag="FNL39_RS12650" points="620,85 625,80 638,80 638,90 625,90 620,85 "  />
</g>
<g id="a1_0027"  >
<polygon style="fill:white; stroke-width:1; stroke:black; " id="dummy-1_h1_9_27" class="clusterblast-orf" description="&lt;b&gt;FNL39_RS12645&lt;/b&gt;&lt;br&gt;acetyl-CoA carboxylase biotin carboxyl carrier protein subunit&lt;br&gt;Location: 676526 - 676056" locus_tag="FNL39_RS12645" points="638,85 643,80 644,80 644,90 643,90 638,85 "  />
</g>
<g id="a1_0028"  >
<polygon style="fill:white; stroke-width:1; stroke:black; " id="dummy-1_h1_9_28" class="clusterblast-orf" description="&lt;b&gt;FNL39_RS12640&lt;/b&gt;&lt;br&gt;acetyl-CoA carboxylase carboxyltransferase subunit beta&lt;br&gt;Location: 676035 - 674365" locus_tag="FNL39_RS12640" points="644,85 649,80 665,80 665,90 649,90 644,85 "  />
</g>
<g id="a1_0029"  >
<polygon style="fill:white; stroke-width:1; stroke:black; " id="dummy-1_h1_9_29" class="clusterblast-orf" description="&lt;b&gt;FNL39_RS12635&lt;/b&gt;&lt;br&gt;alpha/beta hydrolase&lt;br&gt;Location: 674368 - 673592" locus_tag="FNL39_RS12635" points="665,85 670,80 675,80 675,90 670,90 665,85 "  />
</g>
<g id="a1_0030"  >
<polygon style="fill:white; stroke-width:1; stroke:black; " id="dummy-1_h1_9_30" class="clusterblast-orf" description="&lt;b&gt;FNL39_RS12630&lt;/b&gt;&lt;br&gt;3-oxoacyl-ACP synthase&lt;br&gt;Location: 673576 - 672485" locus_tag="FNL39_RS12630" points="675,85 680,80 689,80 689,90 680,90 675,85 "  />
</g>
<g id="a1_0031"  >
<polygon style="fill:white; stroke-width:1; stroke:black; " id="dummy-1_h1_9_31" class="clusterblast-orf" description="&lt;b&gt;FNL39_RS12625&lt;/b&gt;&lt;br&gt;hypothetical protein&lt;br&gt;Location: 672455 - 670098" locus_tag="FNL39_RS12625" points="690,85 695,80 720,80 720,90 695,90 690,85 "  />
</g>
<g id="a1_0032"  >
<polygon style="fill:white; stroke-width:1; stroke:black; " id="dummy-1_h1_9_32" class="clusterblast-orf" description="&lt;b&gt;FNL39_RS12620&lt;/b&gt;&lt;br&gt;hypothetical protein&lt;br&gt;Location: 670091 - 668823" locus_tag="FNL39_RS12620" points="720,85 725,80 736,80 736,90 725,90 720,85 "  />
</g>
<g id="a1_0033"  >
<polygon style="fill:white; stroke-width:1; stroke:black; " id="dummy-1_h1_9_33" class="clusterblast-orf" description="&lt;b&gt;FNL39_RS12615&lt;/b&gt;&lt;br&gt;hypothetical protein&lt;br&gt;Location: 668826 - 668359" locus_tag="FNL39_RS12615" points="736,85 741,80 742,80 742,90 741,90 736,85 "  />
</g>
<g id="a1_0034"  >
<polygon style="fill:white; stroke-width:1; stroke:black; " id="dummy-1_h1_9_34" class="clusterblast-orf" description="&lt;b&gt;FNL39_RS12610&lt;/b&gt;&lt;br&gt;beta-ketoacyl-[acyl-carrier-protein] synthase family protein&lt;br&gt;Location: 668362 - 667109" locus_tag="FNL39_RS12610" points="742,85 747,80 758,80 758,90 747,90 742,85 "  />
</g>
<g id="a1_0035"  >
<polygon style="fill:white; stroke-width:1; stroke:black; " id="dummy-1_h1_9_35" class="clusterblast-orf" description="&lt;b&gt;FNL39_RS12605&lt;/b&gt;&lt;br&gt;hypothetical protein&lt;br&gt;Location: 667106 - 666666" locus_tag="FNL39_RS12605" points="758,85 763,80 764,80 764,90 763,90 758,85 "  />
</g>
<g id="a1_0036"  >
<polygon style="fill:white; stroke-width:1; stroke:black; " id="dummy-1_h1_9_36" class="clusterblast-orf" description="&lt;b&gt;FNL39_RS12600&lt;/b&gt;&lt;br&gt;acyl carrier protein&lt;br&gt;Location: 666662 - 666264" locus_tag="FNL39_RS12600" points="764,85 769,80 769,80 769,90 769,90 764,85 "  />
</g>
<g id="a1_0037"  >
<polygon style="fill:white; stroke-width:1; stroke:black; " id="dummy-1_h1_9_37" class="clusterblast-orf" description="&lt;b&gt;FNL39_RS12595&lt;/b&gt;&lt;br&gt;SDR family NAD(P)-dependent oxidoreductase&lt;br&gt;Location: 666210 - 665416" locus_tag="FNL39_RS12595" points="769,85 774,80 780,80 780,90 774,90 769,85 "  />
</g>
</svg>
