<svg xmlns:xlink="http://www.w3.org/1999/xlink" x="0" preserveAspectRatio="none" version="1.1" height="230" viewBox="0 0 800 230" y="0" xmlns="http://www.w3.org/2000/svg" width="800"  >
<g label="Query sequence" class="clusterblast-cluster"  >
<text class="clusterblast-acc" x="5" y="20"  >
Query sequence</text>
<line y2="35" x1="10" style="stroke-width:1; stroke:grey; " y1="35" x2="778.0"  />
<polygon style="fill:#d81515; stroke-width:1; stroke:black; " id="dummy-1_q0_0_all" class="clusterblast-orf" description="&lt;b&gt;cds2513_3140&lt;/b&gt;&lt;br&gt;Transcriptional regulator, AcrR family&lt;br&gt;Location: 2513 - 3140" locus_tag="cds2513_3140" points="0,40 0,40 5,35 0,30 0,30 0,40 "  />
<polygon style="fill:#67d815; stroke-width:1; stroke:black; " id="dummy-1_q1_0_all" class="clusterblast-orf" description="&lt;b&gt;cds3239_4982&lt;/b&gt;&lt;br&gt;ABC transporter, ATP-binding protein (cluster 8, B12/iron complex)&lt;br&gt;Location: 3239 - 4982" locus_tag="cds3239_4982" points="5,35 10,30 19,30 19,40 10,40 5,35 "  />
<polygon style="fill:#15b9d8; stroke-width:1; stroke:black; " id="dummy-1_q2_0_all" class="clusterblast-orf" description="&lt;b&gt;cds4978_6739&lt;/b&gt;&lt;br&gt;ABC transporter, ATP-binding protein (cluster 8, B12/iron complex)&lt;br&gt;Location: 4978 - 6739" locus_tag="cds4978_6739" points="19,35 24,30 34,30 34,40 24,40 19,35 "  />
<polygon style="fill:#8615d8; stroke-width:1; stroke:black; " id="dummy-1_q3_0_all" class="clusterblast-orf" description="&lt;b&gt;cds6857_7916&lt;/b&gt;&lt;br&gt;ABC transporter, substrate-binding protein (cluster 8, B12/iron complex)&lt;br&gt;Location: 6857 - 7916" locus_tag="cds6857_7916" points="35,40 38,40 43,35 38,30 35,30 35,40 "  />
<polygon style="fill:#d83415; stroke-width:1; stroke:black; " id="dummy-1_q4_0_all" class="clusterblast-orf" description="&lt;b&gt;cds7924_9028&lt;/b&gt;&lt;br&gt;ABC transporter, permease protein (cluster 8, B12/iron complex)&lt;br&gt;Location: 7924 - 9028" locus_tag="cds7924_9028" points="43,40 47,40 52,35 47,30 43,30 43,40 "  />
<polygon style="fill:#49d815; stroke-width:1; stroke:black; " id="dummy-1_q5_0_all" class="clusterblast-orf" description="&lt;b&gt;cds9024_9822&lt;/b&gt;&lt;br&gt;ABC transporter, ATP-binding protein (cluster 8, B12/iron complex)&lt;br&gt;Location: 9024 - 9822" locus_tag="cds9024_9822" points="52,40 53,40 58,35 53,30 52,30 52,40 "  />
<polygon style="fill:#159bd8; stroke-width:1; stroke:black; " id="dummy-1_q6_0_all" class="clusterblast-orf" description="&lt;b&gt;cds10085_10592&lt;/b&gt;&lt;br&gt;two-component system regulatory protein&lt;br&gt;Location: 10085 - 10592" locus_tag="cds10085_10592" points="60,40 60,40 65,35 60,30 60,30 60,40 "  />
<polygon style="fill:#a515d8; stroke-width:1; stroke:black; " id="dummy-1_q7_0_all" class="clusterblast-orf" description="&lt;b&gt;cds10767_11826&lt;/b&gt;&lt;br&gt;hypothetical protein&lt;br&gt;Location: 10767 - 11826" locus_tag="cds10767_11826" points="66,35 71,30 74,30 74,40 71,40 66,35 "  />
<polygon style="fill:#d85315; stroke-width:1; stroke:black; " id="dummy-1_q8_0_all" class="clusterblast-orf" description="&lt;b&gt;cds11830_13429&lt;/b&gt;&lt;br&gt;Putative oxidoreductase&lt;br&gt;Location: 11830 - 13429" locus_tag="cds11830_13429" points="75,35 80,30 87,30 87,40 80,40 75,35 "  />
<polygon style="fill:#2ad815; stroke-width:1; stroke:black; " id="dummy-1_q9_0_all" class="clusterblast-orf" description="&lt;b&gt;cds13622_15203&lt;/b&gt;&lt;br&gt;Aminotransferase, class III&lt;br&gt;Location: 13622 - 15203" locus_tag="cds13622_15203" points="89,40 97,40 102,35 97,30 89,30 89,40 "  />
<polygon style="fill:#157cd8; stroke-width:1; stroke:black; " id="dummy-1_q10_0_all" class="clusterblast-orf" description="&lt;b&gt;cds15285_16314&lt;/b&gt;&lt;br&gt;hypothetical protein&lt;br&gt;Location: 15285 - 16314" locus_tag="cds15285_16314" points="102,40 106,40 111,35 106,30 102,30 102,40 "  />
<polygon style="fill:#c415d8; stroke-width:1; stroke:black; " id="dummy-1_q11_0_all" class="clusterblast-orf" description="&lt;b&gt;cds16394_17783&lt;/b&gt;&lt;br&gt;Aldehyde dehydrogenase (EC 1.2.1.3)&lt;br&gt;Location: 16394 - 17783" locus_tag="cds16394_17783" points="111,35 116,30 122,30 122,40 116,40 111,35 "  />
<polygon style="fill:#d87215; stroke-width:1; stroke:black; " id="dummy-1_q12_0_all" class="clusterblast-orf" description="&lt;b&gt;cds17784_18894&lt;/b&gt;&lt;br&gt;hypothetical protein&lt;br&gt;Location: 17784 - 18894" locus_tag="cds17784_18894" points="122,35 127,30 131,30 131,40 127,40 122,35 "  />
<polygon style="fill:#15d81f; stroke-width:1; stroke:black; " id="dummy-1_q13_0_all" class="clusterblast-orf" description="&lt;b&gt;cds19111_20305&lt;/b&gt;&lt;br&gt;Putative hydroxylase&lt;br&gt;Location: 19111 - 20305" locus_tag="cds19111_20305" points="133,40 138,40 143,35 138,30 133,30 133,40 "  />
<polygon style="fill:#155dd8; stroke-width:1; stroke:black; " id="dummy-1_q14_0_all" class="clusterblast-orf" description="&lt;b&gt;cds20386_21628&lt;/b&gt;&lt;br&gt;hypothetical protein&lt;br&gt;Location: 20386 - 21628" locus_tag="cds20386_21628" points="143,35 148,30 153,30 153,40 148,40 143,35 "  />
<polygon style="fill:#d815ce; stroke-width:1; stroke:black; " id="dummy-1_q15_0_all" class="clusterblast-orf" description="&lt;b&gt;cds21632_23321&lt;/b&gt;&lt;br&gt;hypothetical protein&lt;br&gt;Location: 21632 - 23321" locus_tag="cds21632_23321" points="153,35 158,30 167,30 167,40 158,40 153,35 "  />
<polygon style="fill:#d89015; stroke-width:1; stroke:black; " id="dummy-1_q16_0_all" class="clusterblast-orf" description="&lt;b&gt;cds23317_23551&lt;/b&gt;&lt;br&gt;hypothetical protein&lt;br&gt;Location: 23317 - 23551" locus_tag="cds23317_23551" points="167,35 169,30 169,40 167,35 "  />
<polygon style="fill:#15d83e; stroke-width:1; stroke:black; " id="dummy-1_q17_0_all" class="clusterblast-orf" description="&lt;b&gt;cds23916_25191&lt;/b&gt;&lt;br&gt;hypothetical protein&lt;br&gt;Location: 23916 - 25191" locus_tag="cds23916_25191" points="172,40 177,40 182,35 177,30 172,30 172,40 "  />
<polygon style="fill:#153ed8; stroke-width:1; stroke:black; " id="dummy-1_q18_0_all" class="clusterblast-orf" description="&lt;b&gt;cds25187_26369&lt;/b&gt;&lt;br&gt;N-methyl-L-amino-acid oxidase (EC 1.5.3.2); N-methyl-L-tryptophan oxidase (EC 1.5.3.-)&lt;br&gt;Location: 25187 - 26369" locus_tag="cds25187_26369" points="182,40 186,40 191,35 186,30 182,30 182,40 "  />
<polygon style="fill:#d815af; stroke-width:1; stroke:black; " id="dummy-1_q19_0_all" class="clusterblast-orf" description="&lt;b&gt;cds26422_33913&lt;/b&gt;&lt;br&gt;Polyketide synthase modules and related proteins&lt;br&gt;Location: 26422 - 33913" locus_tag="cds26422_33913" points="192,40 247,40 252,35 247,30 192,30 192,40 "  />
<polygon style="fill:#d8af15; stroke-width:1; stroke:black; " id="dummy-1_q20_0_all" class="clusterblast-orf" description="&lt;b&gt;cds33960_37185&lt;/b&gt;&lt;br&gt;Polyketide synthase modules and related proteins&lt;br&gt;Location: 33960 - 37185" locus_tag="cds33960_37185" points="253,40 273,40 278,35 273,30 253,30 253,40 "  />
<polygon style="fill:#15d85d; stroke-width:1; stroke:black; " id="dummy-1_q21_0_all" class="clusterblast-orf" description="&lt;b&gt;cds37181_38366&lt;/b&gt;&lt;br&gt;Acyl-CoA dehydrogenase&lt;br&gt;Location: 37181 - 38366" locus_tag="cds37181_38366" points="278,40 283,40 288,35 283,30 278,30 278,40 "  />
<polygon style="fill:#151fd8; stroke-width:1; stroke:black; " id="dummy-1_q22_0_all" class="clusterblast-orf" description="&lt;b&gt;cds38358_39087&lt;/b&gt;&lt;br&gt;Thioesterase in siderophore biosynthesis gene cluster&lt;br&gt;Location: 38358 - 39087" locus_tag="cds38358_39087" points="288,40 289,40 294,35 289,30 288,30 288,40 "  />
<polygon style="fill:white; stroke-width:1; stroke:black; " id="dummy-1_q23_0_all" class="clusterblast-orf" description="&lt;b&gt;cds39216_39642&lt;/b&gt;&lt;br&gt;hypothetical protein&lt;br&gt;Location: 39216 - 39642" locus_tag="cds39216_39642" points="295,35 298,30 298,40 295,35 "  />
<polygon style="fill:white; stroke-width:1; stroke:black; " id="dummy-1_q24_0_all" class="clusterblast-orf" description="&lt;b&gt;cds39783_40692&lt;/b&gt;&lt;br&gt;Transcriptional regulator, PaaX family&lt;br&gt;Location: 39783 - 40692" locus_tag="cds39783_40692" points="299,35 304,30 307,30 307,40 304,40 299,35 "  />
<polygon style="fill:white; stroke-width:1; stroke:black; " id="dummy-1_q25_0_all" class="clusterblast-orf" description="&lt;b&gt;cds40688_41333&lt;/b&gt;&lt;br&gt;hypothetical protein&lt;br&gt;Location: 40688 - 41333" locus_tag="cds40688_41333" points="307,35 312,30 312,30 312,40 312,40 307,35 "  />
<polygon style="fill:white; stroke-width:1; stroke:black; " id="dummy-1_q26_0_all" class="clusterblast-orf" description="&lt;b&gt;cds41422_42487&lt;/b&gt;&lt;br&gt;hypothetical protein&lt;br&gt;Location: 41422 - 42487" locus_tag="cds41422_42487" points="313,40 316,40 321,35 316,30 313,30 313,40 "  />
<polygon style="fill:white; stroke-width:1; stroke:black; " id="dummy-1_q27_0_all" class="clusterblast-orf" description="&lt;b&gt;cds42815_43319&lt;/b&gt;&lt;br&gt;hypothetical protein&lt;br&gt;Location: 42815 - 43319" locus_tag="cds42815_43319" points="324,35 328,30 328,40 324,35 "  />
<polygon style="fill:white; stroke-width:1; stroke:black; " id="dummy-1_q28_0_all" class="clusterblast-orf" description="&lt;b&gt;cds43306_43459&lt;/b&gt;&lt;br&gt;hypothetical protein&lt;br&gt;Location: 43306 - 43459" locus_tag="cds43306_43459" points="328,35 329,30 329,40 328,35 "  />
<polygon style="fill:white; stroke-width:1; stroke:black; " id="dummy-1_q29_0_all" class="clusterblast-orf" description="&lt;b&gt;cds43790_45098&lt;/b&gt;&lt;br&gt;putative secreted hydrolase&lt;br&gt;Location: 43790 - 45098" locus_tag="cds43790_45098" points="332,35 337,30 342,30 342,40 337,40 332,35 "  />
<polygon style="fill:white; stroke-width:1; stroke:black; " id="dummy-1_q30_0_all" class="clusterblast-orf" description="&lt;b&gt;cds45424_45538&lt;/b&gt;&lt;br&gt;hypothetical protein&lt;br&gt;Location: 45424 - 45538" locus_tag="cds45424_45538" points="345,35 346,30 346,40 345,35 "  />
<polygon style="fill:white; stroke-width:1; stroke:black; " id="dummy-1_q31_0_all" class="clusterblast-orf" description="&lt;b&gt;cds45651_45855&lt;/b&gt;&lt;br&gt;hypothetical protein&lt;br&gt;Location: 45651 - 45855" locus_tag="cds45651_45855" points="347,40 348,35 347,30 347,40 "  />
<polygon style="fill:white; stroke-width:1; stroke:black; " id="dummy-1_q32_0_all" class="clusterblast-orf" description="&lt;b&gt;cds46311_47139&lt;/b&gt;&lt;br&gt;putative endo alpha-1,4 polygalactosaminidase&lt;br&gt;Location: 46311 - 47139" locus_tag="cds46311_47139" points="352,35 357,30 359,30 359,40 357,40 352,35 "  />
<polygon style="fill:white; stroke-width:1; stroke:black; " id="dummy-1_q33_0_all" class="clusterblast-orf" description="&lt;b&gt;cds47135_47798&lt;/b&gt;&lt;br&gt;Phage-related protein, tail component&lt;br&gt;Location: 47135 - 47798" locus_tag="cds47135_47798" points="359,35 364,30 364,30 364,40 364,40 359,35 "  />
<polygon style="fill:#d81590; stroke-width:1; stroke:black; " id="dummy-1_q34_0_all" class="clusterblast-orf" description="&lt;b&gt;cds47794_48721&lt;/b&gt;&lt;br&gt;hypothetical protein&lt;br&gt;Location: 47794 - 48721" locus_tag="cds47794_48721" points="364,35 369,30 371,30 371,40 369,40 364,35 "  />
<polygon style="fill:#d8ce15; stroke-width:1; stroke:black; " id="dummy-1_q35_0_all" class="clusterblast-orf" description="&lt;b&gt;cds48728_49442&lt;/b&gt;&lt;br&gt;putative mannose-1-phosphate guanyltransferase&lt;br&gt;Location: 48728 - 49442" locus_tag="cds48728_49442" points="371,35 376,30 377,30 377,40 376,40 371,35 "  />
<polygon style="fill:#15d87c; stroke-width:1; stroke:black; " id="dummy-1_q36_0_all" class="clusterblast-orf" description="&lt;b&gt;cds49474_50476&lt;/b&gt;&lt;br&gt;putative UDP-glucose 4-epimerase&lt;br&gt;Location: 49474 - 50476" locus_tag="cds49474_50476" points="377,35 382,30 385,30 385,40 382,40 377,35 "  />
<polygon style="fill:white; stroke-width:1; stroke:black; " id="dummy-1_q37_0_all" class="clusterblast-orf" description="&lt;b&gt;cds50587_51994&lt;/b&gt;&lt;br&gt;hypothetical protein&lt;br&gt;Location: 50587 - 51994" locus_tag="cds50587_51994" points="386,35 391,30 398,30 398,40 391,40 386,35 "  />
<polygon style="fill:white; stroke-width:1; stroke:black; " id="dummy-1_q38_0_all" class="clusterblast-orf" description="&lt;b&gt;cds51990_53514&lt;/b&gt;&lt;br&gt;Putative glycosyltransferase&lt;br&gt;Location: 51990 - 53514" locus_tag="cds51990_53514" points="398,35 403,30 410,30 410,40 403,40 398,35 "  />
<polygon style="fill:white; stroke-width:1; stroke:black; " id="dummy-1_q39_0_all" class="clusterblast-orf" description="&lt;b&gt;cds53612_55757&lt;/b&gt;&lt;br&gt;hypothetical protein&lt;br&gt;Location: 53612 - 55757" locus_tag="cds53612_55757" points="411,35 416,30 428,30 428,40 416,40 411,35 "  />
<polygon style="fill:white; stroke-width:1; stroke:black; " id="dummy-1_q40_0_all" class="clusterblast-orf" description="&lt;b&gt;cds56243_56771&lt;/b&gt;&lt;br&gt;hypothetical protein&lt;br&gt;Location: 56243 - 56771" locus_tag="cds56243_56771" points="432,35 436,30 436,40 432,35 "  />
<polygon style="fill:white; stroke-width:1; stroke:black; " id="dummy-1_q41_0_all" class="clusterblast-orf" description="&lt;b&gt;cds57543_58575&lt;/b&gt;&lt;br&gt;hypothetical protein&lt;br&gt;Location: 57543 - 58575" locus_tag="cds57543_58575" points="442,40 446,40 451,35 446,30 442,30 442,40 "  />
<polygon style="fill:white; stroke-width:1; stroke:black; " id="dummy-1_q42_0_all" class="clusterblast-orf" description="&lt;b&gt;cds58571_59177&lt;/b&gt;&lt;br&gt;hypothetical protein&lt;br&gt;Location: 58571 - 59177" locus_tag="cds58571_59177" points="451,40 455,35 451,30 451,40 "  />
<polygon style="fill:white; stroke-width:1; stroke:black; " id="dummy-1_q43_0_all" class="clusterblast-orf" description="&lt;b&gt;cds59259_59691&lt;/b&gt;&lt;br&gt;Mobile element protein&lt;br&gt;Location: 59259 - 59691" locus_tag="cds59259_59691" points="456,40 460,35 456,30 456,40 "  />
<polygon style="fill:white; stroke-width:1; stroke:black; " id="dummy-1_q44_0_all" class="clusterblast-orf" description="&lt;b&gt;cds59969_60914&lt;/b&gt;&lt;br&gt;transcriptional regulator&lt;br&gt;Location: 59969 - 60914" locus_tag="cds59969_60914" points="462,40 464,40 469,35 464,30 462,30 462,40 "  />
<polygon style="fill:#2a15d8; stroke-width:1; stroke:black; " id="dummy-1_q45_0_all" class="clusterblast-orf" description="&lt;b&gt;cds60919_61693&lt;/b&gt;&lt;br&gt;hypothetical protein&lt;br&gt;Location: 60919 - 61693" locus_tag="cds60919_61693" points="469,40 471,40 476,35 471,30 469,30 469,40 "  />
<polygon style="fill:white; stroke-width:1; stroke:black; " id="dummy-1_q46_0_all" class="clusterblast-orf" description="&lt;b&gt;cds61784_63095&lt;/b&gt;&lt;br&gt;ABC1 family protein&lt;br&gt;Location: 61784 - 63095" locus_tag="cds61784_63095" points="476,40 482,40 487,35 482,30 476,30 476,40 "  />
<polygon style="fill:#d81572; stroke-width:1; stroke:black; " id="dummy-1_q47_0_all" class="clusterblast-orf" description="&lt;b&gt;cds63297_64332&lt;/b&gt;&lt;br&gt;hypothetical protein&lt;br&gt;Location: 63297 - 64332" locus_tag="cds63297_64332" points="489,40 492,40 497,35 492,30 489,30 489,40 "  />
<polygon style="fill:white; stroke-width:1; stroke:black; " id="dummy-1_q48_0_all" class="clusterblast-orf" description="&lt;b&gt;cds64328_65030&lt;/b&gt;&lt;br&gt;hypothetical protein&lt;br&gt;Location: 64328 - 65030" locus_tag="cds64328_65030" points="497,40 497,40 502,35 497,30 497,30 497,40 "  />
<polygon style="fill:white; stroke-width:1; stroke:black; " id="dummy-1_q49_0_all" class="clusterblast-orf" description="&lt;b&gt;cds65158_65956&lt;/b&gt;&lt;br&gt;Transcriptional regulator, AraC family&lt;br&gt;Location: 65158 - 65956" locus_tag="cds65158_65956" points="504,35 509,30 510,30 510,40 509,40 504,35 "  />
<polygon style="fill:#c4d815; stroke-width:1; stroke:black; " id="dummy-1_q50_0_all" class="clusterblast-orf" description="&lt;b&gt;cds66311_67367&lt;/b&gt;&lt;br&gt;hypothetical protein&lt;br&gt;Location: 66311 - 67367" locus_tag="cds66311_67367" points="513,35 518,30 521,30 521,40 518,40 513,35 "  />
<polygon style="fill:white; stroke-width:1; stroke:black; " id="dummy-1_q51_0_all" class="clusterblast-orf" description="&lt;b&gt;cds67446_67569&lt;/b&gt;&lt;br&gt;hypothetical protein&lt;br&gt;Location: 67446 - 67569" locus_tag="cds67446_67569" points="522,35 523,30 523,40 522,35 "  />
<polygon style="fill:white; stroke-width:1; stroke:black; " id="dummy-1_q52_0_all" class="clusterblast-orf" description="&lt;b&gt;cds67643_68522&lt;/b&gt;&lt;br&gt;Short-chain dehydrogenase/reductase SDR&lt;br&gt;Location: 67643 - 68522" locus_tag="cds67643_68522" points="523,35 528,30 531,30 531,40 528,40 523,35 "  />
<polygon style="fill:white; stroke-width:1; stroke:black; " id="dummy-1_q53_0_all" class="clusterblast-orf" description="&lt;b&gt;cds68518_69154&lt;/b&gt;&lt;br&gt;Uncharacterized peroxidase-related&lt;br&gt;Location: 68518 - 69154" locus_tag="cds68518_69154" points="531,35 536,30 536,30 536,40 536,40 531,35 "  />
<polygon style="fill:white; stroke-width:1; stroke:black; " id="dummy-1_q54_0_all" class="clusterblast-orf" description="&lt;b&gt;cds69410_70958&lt;/b&gt;&lt;br&gt;Oxidoreductase, GMC family&lt;br&gt;Location: 69410 - 70958" locus_tag="cds69410_70958" points="538,35 543,30 550,30 550,40 543,40 538,35 "  />
<polygon style="fill:#15d89b; stroke-width:1; stroke:black; " id="dummy-1_q55_0_all" class="clusterblast-orf" description="&lt;b&gt;cds71240_73220&lt;/b&gt;&lt;br&gt;UnbV&lt;br&gt;Location: 71240 - 73220" locus_tag="cds71240_73220" points="552,40 563,40 568,35 563,30 552,30 552,40 "  />
<polygon style="fill:#4915d8; stroke-width:1; stroke:black; " id="dummy-1_q56_0_all" class="clusterblast-orf" description="&lt;b&gt;cds73216_74236&lt;/b&gt;&lt;br&gt;UnbU&lt;br&gt;Location: 73216 - 74236" locus_tag="cds73216_74236" points="568,40 572,40 577,35 572,30 568,30 568,40 "  />
<polygon style="fill:#d81553; stroke-width:1; stroke:black; " id="dummy-1_q57_0_all" class="clusterblast-orf" description="&lt;b&gt;cds74232_80118&lt;/b&gt;&lt;br&gt;Polyketide synthase&lt;br&gt;Location: 74232 - 80118" locus_tag="cds74232_80118" points="576,40 619,40 624,35 619,30 576,30 576,40 "  />
<polygon style="fill:#a5d815; stroke-width:1; stroke:black; " id="dummy-1_q58_0_all" class="clusterblast-orf" description="&lt;b&gt;cds80114_80591&lt;/b&gt;&lt;br&gt;4-hydroxybenzoyl-CoA thioesterase family active site&lt;br&gt;Location: 80114 - 80591" locus_tag="cds80114_80591" points="624,40 628,35 624,30 624,40 "  />
<polygon style="fill:#15d8b9; stroke-width:1; stroke:black; " id="dummy-1_q59_0_all" class="clusterblast-orf" description="&lt;b&gt;cds80596_81166&lt;/b&gt;&lt;br&gt;NADH-FMN oxidoreductase&lt;br&gt;Location: 80596 - 81166" locus_tag="cds80596_81166" points="628,40 632,35 628,30 628,40 "  />
<polygon style="fill:#6715d8; stroke-width:1; stroke:black; " id="dummy-1_q60_0_all" class="clusterblast-orf" description="&lt;b&gt;cds81320_82718&lt;/b&gt;&lt;br&gt;Cytochrome P450-related protein&lt;br&gt;Location: 81320 - 82718" locus_tag="cds81320_82718" points="634,35 639,30 645,30 645,40 639,40 634,35 "  />
<polygon style="fill:#d81534; stroke-width:1; stroke:black; " id="dummy-1_q61_0_all" class="clusterblast-orf" description="&lt;b&gt;cds82714_83698&lt;/b&gt;&lt;br&gt;UnbL&lt;br&gt;Location: 82714 - 83698" locus_tag="cds82714_83698" points="645,35 650,30 653,30 653,40 650,40 645,35 "  />
<polygon style="fill:#86d815; stroke-width:1; stroke:black; " id="dummy-1_q62_0_all" class="clusterblast-orf" description="&lt;b&gt;cds83964_84933&lt;/b&gt;&lt;br&gt;hypothetical protein&lt;br&gt;Location: 83964 - 84933" locus_tag="cds83964_84933" points="655,40 658,40 663,35 658,30 655,30 655,40 "  />
<polygon style="fill:#15d8d8; stroke-width:1; stroke:black; " id="dummy-1_q63_0_all" class="clusterblast-orf" description="&lt;b&gt;cds84980_85631&lt;/b&gt;&lt;br&gt;Transcriptional regulator, AcrR family&lt;br&gt;Location: 84980 - 85631" locus_tag="cds84980_85631" points="663,35 668,30 668,30 668,40 668,40 663,35 "  />
<polygon style="fill:white; stroke-width:1; stroke:black; " id="dummy-1_q64_0_all" class="clusterblast-orf" description="&lt;b&gt;cds85711_87097&lt;/b&gt;&lt;br&gt;Lignostilbene-alpha,beta-dioxygenase and related enzymes&lt;br&gt;Location: 85711 - 87097" locus_tag="cds85711_87097" points="669,40 675,40 680,35 675,30 669,30 669,40 "  />
<polygon style="fill:white; stroke-width:1; stroke:black; " id="dummy-1_q65_0_all" class="clusterblast-orf" description="&lt;b&gt;cds87223_88597&lt;/b&gt;&lt;br&gt;Uncharacterized MFS-type transporter&lt;br&gt;Location: 87223 - 88597" locus_tag="cds87223_88597" points="681,35 686,30 692,30 692,40 686,40 681,35 "  />
<polygon style="fill:white; stroke-width:1; stroke:black; " id="dummy-1_q66_0_all" class="clusterblast-orf" description="&lt;b&gt;cds88891_89248&lt;/b&gt;&lt;br&gt;Transcriptional regulator, ArsR family&lt;br&gt;Location: 88891 - 89248" locus_tag="cds88891_89248" points="694,35 697,30 697,40 694,35 "  />
<polygon style="fill:white; stroke-width:1; stroke:black; " id="dummy-1_q67_0_all" class="clusterblast-orf" description="&lt;b&gt;cds89244_89691&lt;/b&gt;&lt;br&gt;hypothetical protein&lt;br&gt;Location: 89244 - 89691" locus_tag="cds89244_89691" points="697,35 701,30 701,40 697,35 "  />
<polygon style="fill:white; stroke-width:1; stroke:black; " id="dummy-1_q68_0_all" class="clusterblast-orf" description="&lt;b&gt;cds90162_90504&lt;/b&gt;&lt;br&gt;Glyoxalase/bleomycin resistance protein/dioxygenase&lt;br&gt;Location: 90162 - 90504" locus_tag="cds90162_90504" points="705,40 707,35 705,30 705,40 "  />
<polygon style="fill:white; stroke-width:1; stroke:black; " id="dummy-1_q69_0_all" class="clusterblast-orf" description="&lt;b&gt;cds90694_91198&lt;/b&gt;&lt;br&gt;hypothetical protein&lt;br&gt;Location: 90694 - 91198" locus_tag="cds90694_91198" points="709,35 713,30 713,40 709,35 "  />
<polygon style="fill:white; stroke-width:1; stroke:black; " id="dummy-1_q70_0_all" class="clusterblast-orf" description="&lt;b&gt;cds91302_91575&lt;/b&gt;&lt;br&gt;Gfa-like protein&lt;br&gt;Location: 91302 - 91575" locus_tag="cds91302_91575" points="714,35 716,30 716,40 714,35 "  />
<polygon style="fill:white; stroke-width:1; stroke:black; " id="dummy-1_q71_0_all" class="clusterblast-orf" description="&lt;b&gt;cds91976_92216&lt;/b&gt;&lt;br&gt;hypothetical protein&lt;br&gt;Location: 91976 - 92216" locus_tag="cds91976_92216" points="719,35 721,30 721,40 719,35 "  />
<polygon style="fill:white; stroke-width:1; stroke:black; " id="dummy-1_q72_0_all" class="clusterblast-orf" description="&lt;b&gt;cds92235_93708&lt;/b&gt;&lt;br&gt;hypothetical protein&lt;br&gt;Location: 92235 - 93708" locus_tag="cds92235_93708" points="721,40 728,40 733,35 728,30 721,30 721,40 "  />
<polygon style="fill:white; stroke-width:1; stroke:black; " id="dummy-1_q73_0_all" class="clusterblast-orf" description="&lt;b&gt;cds93704_95522&lt;/b&gt;&lt;br&gt;hypothetical protein&lt;br&gt;Location: 93704 - 95522" locus_tag="cds93704_95522" points="733,40 743,40 748,35 743,30 733,30 733,40 "  />
<polygon style="fill:white; stroke-width:1; stroke:black; " id="dummy-1_q74_0_all" class="clusterblast-orf" description="&lt;b&gt;cds95518_97678&lt;/b&gt;&lt;br&gt;hypothetical protein&lt;br&gt;Location: 95518 - 97678" locus_tag="cds95518_97678" points="748,40 760,40 765,35 760,30 748,30 748,40 "  />
<polygon style="fill:white; stroke-width:1; stroke:black; " id="dummy-1_q75_0_all" class="clusterblast-orf" description="&lt;b&gt;cds97674_98154&lt;/b&gt;&lt;br&gt;hypothetical protein&lt;br&gt;Location: 97674 - 98154" locus_tag="cds97674_98154" points="765,40 769,35 765,30 765,40 "  />
<polygon style="fill:white; stroke-width:1; stroke:black; " id="dummy-1_q76_0_all" class="clusterblast-orf" description="&lt;b&gt;cds98157_98640&lt;/b&gt;&lt;br&gt;FKBP-type peptidyl-prolyl cis-trans isomerase SlyD (EC 5.2.1.8)&lt;br&gt;Location: 98157 - 98640" locus_tag="cds98157_98640" points="769,35 773,30 773,40 769,35 "  />
<polygon style="fill:white; stroke-width:1; stroke:black; " id="dummy-1_q77_0_all" class="clusterblast-orf" description="&lt;b&gt;cds98972_99479&lt;/b&gt;&lt;br&gt;hypothetical protein&lt;br&gt;Location: 98972 - 99479" locus_tag="cds98972_99479" points="776,40 780,35 776,30 776,40 "  />
</g>
<g label="BGC0000112" class="clusterblast-cluster" description="BGC0000112_c1: neocarzinostatin (28% of genes show similarity), Polyketide:Iterative type I + Polyketide:Enediyne type I"  >
<text class="clusterblast-acc" x="5" y="70"  >
<a xlink:href="https://mibig.secondarymetabolites.org/go/BGC0000112/1" target="_blank">BGC0000112</a>:                                                                 neocarzinostatin (28% of genes show similarity), Polyketide:Iterative type I + Polyketide:Enediyne type I</text>
<line y2="85" x1="10" style="stroke-width:1; stroke:grey; " y1="85" x2="778.0"  />
</g>
<g id="a1_000"  >
<polygon style="fill:#86d815; stroke-width:1; stroke:black; " id="dummy-1_h1_3_0" class="clusterblast-orf" description="&lt;b&gt;AAM78025.1&lt;/b&gt;&lt;br&gt;Unknown&lt;br&gt;Location: 62616 - 61642&lt;br&gt;&lt;br&gt;&lt;b&gt;BlastP hit with cds83964_84933&lt;/b&gt;&lt;br&gt;Percentage identity: 53&lt;br&gt;Percentage coverage: 92&lt;br&gt;BLAST bit score: 306&lt;br&gt;E-value: 5.6e-83" locus_tag="AAM78025.1" points="138,90 140,90 145,85 140,80 138,80 138,90 "  />
</g>
<g id="a1_001"  >
<polygon style="fill:white; stroke-width:1; stroke:black; " id="dummy-1_h1_3_1" class="clusterblast-orf" description="&lt;b&gt;AAM78024.1&lt;/b&gt;&lt;br&gt;Unknown&lt;br&gt;Location: 61515 - 60721" locus_tag="AAM78024.1" points="147,90 148,90 153,85 148,80 147,80 147,90 "  />
</g>
<g id="a1_002"  >
<polygon style="fill:white; stroke-width:1; stroke:black; " id="dummy-1_h1_3_2" class="clusterblast-orf" description="&lt;b&gt;AAM78023.1&lt;/b&gt;&lt;br&gt;transcriptional regulator&lt;br&gt;Location: 60411 - 59458" locus_tag="AAM78023.1" points="155,85 160,80 163,80 163,90 160,90 155,85 "  />
</g>
<g id="a1_003"  >
<polygon style="fill:white; stroke-width:1; stroke:black; " id="dummy-1_h1_3_3" class="clusterblast-orf" description="&lt;b&gt;AAM78022.1&lt;/b&gt;&lt;br&gt;butyrolactone receptor&lt;br&gt;Location: 59338 - 58712" locus_tag="AAM78022.1" points="164,90 164,90 169,85 164,80 164,80 164,90 "  />
</g>
<g id="a1_004"  >
<polygon style="fill:white; stroke-width:1; stroke:black; " id="dummy-1_h1_3_4" class="clusterblast-orf" description="&lt;b&gt;AAM78021.1&lt;/b&gt;&lt;br&gt;NDP-hexose-2,3-dehydratase&lt;br&gt;Location: 58715 - 57735" locus_tag="AAM78021.1" points="169,90 172,90 177,85 172,80 169,80 169,90 "  />
</g>
<g id="a1_005"  >
<polygon style="fill:white; stroke-width:1; stroke:black; " id="dummy-1_h1_3_5" class="clusterblast-orf" description="&lt;b&gt;AAM78020.1&lt;/b&gt;&lt;br&gt;transcriptional regulator&lt;br&gt;Location: 57690 - 57070" locus_tag="AAM78020.1" points="177,85 182,80 182,80 182,90 182,90 177,85 "  />
</g>
<g id="a1_006"  >
<polygon style="fill:white; stroke-width:1; stroke:black; " id="dummy-1_h1_3_6" class="clusterblast-orf" description="&lt;b&gt;AAM78019.1&lt;/b&gt;&lt;br&gt;transcriptional regulator&lt;br&gt;Location: 56764 - 55586" locus_tag="AAM78019.1" points="185,90 189,90 194,85 189,80 185,80 185,90 "  />
</g>
<g id="a1_007"  >
<polygon style="fill:white; stroke-width:1; stroke:black; " id="dummy-1_h1_3_7" class="clusterblast-orf" description="&lt;b&gt;AAM78018.1&lt;/b&gt;&lt;br&gt;transposase&lt;br&gt;Location: 55470 - 54268" locus_tag="AAM78018.1" points="195,85 200,80 205,80 205,90 200,90 195,85 "  />
</g>
<g id="a1_008"  >
<polygon style="fill:white; stroke-width:1; stroke:black; " id="dummy-1_h1_3_8" class="clusterblast-orf" description="&lt;b&gt;AAM78017.1&lt;/b&gt;&lt;br&gt;Unknown&lt;br&gt;Location: 53972 - 53529" locus_tag="AAM78017.1" points="207,90 211,85 207,80 207,90 "  />
</g>
<g id="a1_009"  >
<polygon style="fill:white; stroke-width:1; stroke:black; " id="dummy-1_h1_3_9" class="clusterblast-orf" description="&lt;b&gt;AAM78016.1&lt;/b&gt;&lt;br&gt;Unknown&lt;br&gt;Location: 53426 - 52446" locus_tag="AAM78016.1" points="212,90 214,90 219,85 214,80 212,80 212,90 "  />
</g>
<g id="a1_0010"  >
<polygon style="fill:#d81534; stroke-width:1; stroke:black; " id="dummy-1_h1_3_10" class="clusterblast-orf" description="&lt;b&gt;AAM78015.1&lt;/b&gt;&lt;br&gt;Unknown&lt;br&gt;Location: 52362 - 51376&lt;br&gt;&lt;br&gt;&lt;b&gt;BlastP hit with cds82714_83698&lt;/b&gt;&lt;br&gt;Percentage identity: 54&lt;br&gt;Percentage coverage: 98&lt;br&gt;BLAST bit score: 349&lt;br&gt;E-value: 5.8e-96" locus_tag="AAM78015.1" points="220,90 223,90 228,85 223,80 220,80 220,90 "  />
</g>
<g id="a1_0011"  >
<polygon style="fill:#15d89b; stroke-width:1; stroke:black; " id="dummy-1_h1_3_11" class="clusterblast-orf" description="&lt;b&gt;AAM78014.1&lt;/b&gt;&lt;br&gt;Unknown&lt;br&gt;Location: 51379 - 49469&lt;br&gt;&lt;br&gt;&lt;b&gt;BlastP hit with cds71240_73220&lt;/b&gt;&lt;br&gt;Percentage identity: 47&lt;br&gt;Percentage coverage: 99&lt;br&gt;BLAST bit score: 584&lt;br&gt;E-value: 1.7e-166" locus_tag="AAM78014.1" points="228,90 238,90 243,85 238,80 228,80 228,90 "  />
</g>
<g id="a1_0012"  >
<polygon style="fill:#4915d8; stroke-width:1; stroke:black; " id="dummy-1_h1_3_12" class="clusterblast-orf" description="&lt;b&gt;AAM78013.1&lt;/b&gt;&lt;br&gt;putative transporter&lt;br&gt;Location: 49472 - 48378&lt;br&gt;&lt;br&gt;&lt;b&gt;BlastP hit with cds73216_74236&lt;/b&gt;&lt;br&gt;Percentage identity: 56&lt;br&gt;Percentage coverage: 90&lt;br&gt;BLAST bit score: 321&lt;br&gt;E-value: 1.8e-87" locus_tag="AAM78013.1" points="243,90 247,90 252,85 247,80 243,80 243,90 "  />
</g>
<g id="a1_0013"  >
<polygon style="fill:#d81553; stroke-width:1; stroke:black; " id="dummy-1_h1_3_13" class="clusterblast-orf" description="&lt;b&gt;AAM78012.1&lt;/b&gt;&lt;br&gt;warhead-forming iterative polyketide synthase&lt;br&gt;Location: 48381 - 42448&lt;br&gt;&lt;br&gt;&lt;b&gt;BlastP hit with cds74232_80118&lt;/b&gt;&lt;br&gt;Percentage identity: 53&lt;br&gt;Percentage coverage: 101&lt;br&gt;BLAST bit score: 1845&lt;br&gt;E-value: 0.0" locus_tag="AAM78012.1" points="252,90 295,90 300,85 295,80 252,80 252,90 "  />
</g>
<g id="a1_0014"  >
<polygon style="fill:#a5d815; stroke-width:1; stroke:black; " id="dummy-1_h1_3_14" class="clusterblast-orf" description="&lt;b&gt;AAM78011.1&lt;/b&gt;&lt;br&gt;thioesterase&lt;br&gt;Location: 42458 - 41997&lt;br&gt;&lt;br&gt;&lt;b&gt;BlastP hit with cds80114_80591&lt;/b&gt;&lt;br&gt;Percentage identity: 78&lt;br&gt;Percentage coverage: 87&lt;br&gt;BLAST bit score: 229&lt;br&gt;E-value: 4.2e-60" locus_tag="AAM78011.1" points="300,90 304,85 300,80 300,90 "  />
</g>
<g id="a1_0015"  >
<polygon style="fill:#15d8b9; stroke-width:1; stroke:black; " id="dummy-1_h1_3_15" class="clusterblast-orf" description="&lt;b&gt;AAM78010.1&lt;/b&gt;&lt;br&gt;flavin reductase&lt;br&gt;Location: 42000 - 41452&lt;br&gt;&lt;br&gt;&lt;b&gt;BlastP hit with cds80596_81166&lt;/b&gt;&lt;br&gt;Percentage identity: 52&lt;br&gt;Percentage coverage: 83&lt;br&gt;BLAST bit score: 153&lt;br&gt;E-value: 4.6e-37" locus_tag="AAM78010.1" points="303,90 303,90 308,85 303,80 303,80 303,90 "  />
</g>
<g id="a1_0016"  >
<polygon style="fill:#6715d8; stroke-width:1; stroke:black; " id="dummy-1_h1_3_16" class="clusterblast-orf" description="&lt;b&gt;AAM78009.1&lt;/b&gt;&lt;br&gt;cytochrome P-450&lt;br&gt;Location: 41455 - 40103&lt;br&gt;&lt;br&gt;&lt;b&gt;BlastP hit with cds81320_82718&lt;/b&gt;&lt;br&gt;Percentage identity: 56&lt;br&gt;Percentage coverage: 95&lt;br&gt;BLAST bit score: 480&lt;br&gt;E-value: 3.1e-135" locus_tag="AAM78009.1" points="308,90 314,90 319,85 314,80 308,80 308,90 "  />
</g>
<g id="a1_0017"  >
<polygon style="fill:white; stroke-width:1; stroke:black; " id="dummy-1_h1_3_17" class="clusterblast-orf" description="&lt;b&gt;AAM78008.1&lt;/b&gt;&lt;br&gt;transcriptional regulator&lt;br&gt;Location: 40043 - 39249" locus_tag="AAM78008.1" points="319,85 324,80 326,80 326,90 324,90 319,85 "  />
</g>
<g id="a1_0018"  >
<polygon style="fill:white; stroke-width:1; stroke:black; " id="dummy-1_h1_3_18" class="clusterblast-orf" description="&lt;b&gt;AAM78007.1&lt;/b&gt;&lt;br&gt;transcriptional regulator&lt;br&gt;Location: 39205 - 38141" locus_tag="AAM78007.1" points="326,85 331,80 335,80 335,90 331,90 326,85 "  />
</g>
<g id="a1_0019"  >
<polygon style="fill:white; stroke-width:1; stroke:black; " id="dummy-1_h1_3_19" class="clusterblast-orf" description="&lt;b&gt;AAM78006.1&lt;/b&gt;&lt;br&gt;Unknown&lt;br&gt;Location: 37873 - 37274" locus_tag="AAM78006.1" points="337,90 337,90 342,85 337,80 337,80 337,90 "  />
</g>
<g id="a1_0020"  >
<polygon style="fill:white; stroke-width:1; stroke:black; " id="dummy-1_h1_3_20" class="clusterblast-orf" description="&lt;b&gt;AAM78005.1&lt;/b&gt;&lt;br&gt;oxidoreductase&lt;br&gt;Location: 37277 - 35619" locus_tag="AAM78005.1" points="341,90 350,90 355,85 350,80 341,80 341,90 "  />
</g>
<g id="a1_0021"  >
<polygon style="fill:#2a15d8; stroke-width:1; stroke:black; " id="dummy-1_h1_3_21" class="clusterblast-orf" description="&lt;b&gt;AAM78004.1&lt;/b&gt;&lt;br&gt;Unknown&lt;br&gt;Location: 35482 - 34679&lt;br&gt;&lt;br&gt;&lt;b&gt;BlastP hit with cds60919_61693&lt;/b&gt;&lt;br&gt;Percentage identity: 48&lt;br&gt;Percentage coverage: 99&lt;br&gt;BLAST bit score: 244&lt;br&gt;E-value: 1.6e-64" locus_tag="AAM78004.1" points="356,90 357,90 362,85 357,80 356,80 356,90 "  />
</g>
<g id="a1_0022"  >
<polygon style="fill:white; stroke-width:1; stroke:black; " id="dummy-1_h1_3_22" class="clusterblast-orf" description="&lt;b&gt;AAM78003.1&lt;/b&gt;&lt;br&gt;hydroxylase&lt;br&gt;Location: 34574 - 33249" locus_tag="AAM78003.1" points="363,85 368,80 374,80 374,90 368,90 363,85 "  />
</g>
<g id="a1_0023"  >
<polygon style="fill:white; stroke-width:1; stroke:black; " id="dummy-1_h1_3_23" class="clusterblast-orf" description="&lt;b&gt;AAM78002.1&lt;/b&gt;&lt;br&gt;epoxide hydrolase&lt;br&gt;Location: 33018 - 31855" locus_tag="AAM78002.1" points="376,90 380,90 385,85 380,80 376,80 376,90 "  />
</g>
<g id="a1_0024"  >
<polygon style="fill:white; stroke-width:1; stroke:black; " id="dummy-1_h1_3_24" class="clusterblast-orf" description="&lt;b&gt;AAM78001.1&lt;/b&gt;&lt;br&gt;oxidase&lt;br&gt;Location: 31648 - 30272" locus_tag="AAM78001.1" points="387,85 392,80 398,80 398,90 392,90 387,85 "  />
</g>
<g id="a1_0025"  >
<polygon style="fill:white; stroke-width:1; stroke:black; " id="dummy-1_h1_3_25" class="clusterblast-orf" description="&lt;b&gt;AAM78000.1&lt;/b&gt;&lt;br&gt;transcriptional regulator&lt;br&gt;Location: 29980 - 29363" locus_tag="AAM78000.1" points="400,85 405,80 405,80 405,90 405,90 400,85 "  />
</g>
<g id="a1_0026"  >
<polygon style="fill:white; stroke-width:1; stroke:black; " id="dummy-1_h1_3_26" class="clusterblast-orf" description="&lt;b&gt;AAM77999.1&lt;/b&gt;&lt;br&gt;transmembrane transporter&lt;br&gt;Location: 28810 - 27326" locus_tag="AAM77999.1" points="410,90 417,90 422,85 417,80 410,80 410,90 "  />
</g>
<g id="a1_0027"  >
<polygon style="fill:white; stroke-width:1; stroke:black; " id="dummy-1_h1_3_27" class="clusterblast-orf" description="&lt;b&gt;AAM77998.1&lt;/b&gt;&lt;br&gt;hydroxylase&lt;br&gt;Location: 27212 - 26841" locus_tag="AAM77998.1" points="422,90 425,85 422,80 422,90 "  />
</g>
<g id="a1_0028"  >
<polygon style="fill:white; stroke-width:1; stroke:black; " id="dummy-1_h1_3_28" class="clusterblast-orf" description="&lt;b&gt;AAM77997.1&lt;/b&gt;&lt;br&gt;cytochrome P-450&lt;br&gt;Location: 26526 - 25294" locus_tag="AAM77997.1" points="428,90 433,90 438,85 433,80 428,80 428,90 "  />
</g>
<g id="a1_0029"  >
<polygon style="fill:white; stroke-width:1; stroke:black; " id="dummy-1_h1_3_29" class="clusterblast-orf" description="&lt;b&gt;AAM77996.1&lt;/b&gt;&lt;br&gt;esterase/hydrolase&lt;br&gt;Location: 25094 - 24324" locus_tag="AAM77996.1" points="439,90 441,90 446,85 441,80 439,80 439,90 "  />
</g>
<g id="a1_0030"  >
<polygon style="fill:white; stroke-width:1; stroke:black; " id="dummy-1_h1_3_30" class="clusterblast-orf" description="&lt;b&gt;AAM77995.1&lt;/b&gt;&lt;br&gt;epoxide hydrolase&lt;br&gt;Location: 23826 - 22669" locus_tag="AAM77995.1" points="450,85 455,80 459,80 459,90 455,90 450,85 "  />
</g>
<g id="a1_0031"  >
<polygon style="fill:white; stroke-width:1; stroke:black; " id="dummy-1_h1_3_31" class="clusterblast-orf" description="&lt;b&gt;AAM77994.1&lt;/b&gt;&lt;br&gt;neocarzinostatin apoprotein&lt;br&gt;Location: 21822 - 21379" locus_tag="AAM77994.1" points="466,90 469,85 466,80 466,90 "  />
</g>
<g id="a1_0032"  >
<polygon style="fill:white; stroke-width:1; stroke:black; " id="dummy-1_h1_3_32" class="clusterblast-orf" description="&lt;b&gt;AAM77993.1&lt;/b&gt;&lt;br&gt;Unknown&lt;br&gt;Location: 21287 - 20394" locus_tag="AAM77993.1" points="470,85 475,80 477,80 477,90 475,90 470,85 "  />
</g>
<g id="a1_0033"  >
<polygon style="fill:white; stroke-width:1; stroke:black; " id="dummy-1_h1_3_33" class="clusterblast-orf" description="&lt;b&gt;AAM77992.1&lt;/b&gt;&lt;br&gt;glycosyltransferase&lt;br&gt;Location: 20397 - 19189" locus_tag="AAM77992.1" points="477,85 482,80 487,80 487,90 482,90 477,85 "  />
</g>
<g id="a1_0034"  >
<polygon style="fill:white; stroke-width:1; stroke:black; " id="dummy-1_h1_3_34" class="clusterblast-orf" description="&lt;b&gt;AAM77991.1&lt;/b&gt;&lt;br&gt;N-methyltransferase&lt;br&gt;Location: 18964 - 18245" locus_tag="AAM77991.1" points="489,90 490,90 495,85 490,80 489,80 489,90 "  />
</g>
<g id="a1_0035"  >
<polygon style="fill:#15d87c; stroke-width:1; stroke:black; " id="dummy-1_h1_3_35" class="clusterblast-orf" description="&lt;b&gt;AAM77990.1&lt;/b&gt;&lt;br&gt;NDP-hexose-4,6-dehydratase&lt;br&gt;Location: 18102 - 17107&lt;br&gt;&lt;br&gt;&lt;b&gt;BlastP hit with cds49474_50476&lt;/b&gt;&lt;br&gt;Percentage identity: 67&lt;br&gt;Percentage coverage: 98&lt;br&gt;BLAST bit score: 440&lt;br&gt;E-value: 2.6e-123" locus_tag="AAM77990.1" points="496,90 499,90 504,85 499,80 496,80 496,90 "  />
</g>
<g id="a1_0036"  >
<polygon style="fill:#d8ce15; stroke-width:1; stroke:black; " id="dummy-1_h1_3_36" class="clusterblast-orf" description="&lt;b&gt;AAM77989.1&lt;/b&gt;&lt;br&gt;NDP-hexose synthetase&lt;br&gt;Location: 17083 - 16379&lt;br&gt;&lt;br&gt;&lt;b&gt;BlastP hit with cds48728_49442&lt;/b&gt;&lt;br&gt;Percentage identity: 67&lt;br&gt;Percentage coverage: 99&lt;br&gt;BLAST bit score: 331&lt;br&gt;E-value: 9.1e-91" locus_tag="AAM77989.1" points="504,90 505,90 510,85 505,80 504,80 504,90 "  />
</g>
<g id="a1_0037"  >
<polygon style="fill:white; stroke-width:1; stroke:black; " id="dummy-1_h1_3_37" class="clusterblast-orf" description="&lt;b&gt;AAM77988.1&lt;/b&gt;&lt;br&gt;membrane protein&lt;br&gt;Location: 16281 - 14119" locus_tag="AAM77988.1" points="510,90 523,90 528,85 523,80 510,80 510,90 "  />
</g>
<g id="a1_0038"  >
<polygon style="fill:#d815ce; stroke-width:1; stroke:black; " id="dummy-1_h1_3_38" class="clusterblast-orf" description="&lt;b&gt;AAM77987.1&lt;/b&gt;&lt;br&gt;adenylate ligase&lt;br&gt;Location: 14059 - 12383&lt;br&gt;&lt;br&gt;&lt;b&gt;BlastP hit with cds21632_23321&lt;/b&gt;&lt;br&gt;Percentage identity: 46&lt;br&gt;Percentage coverage: 96&lt;br&gt;BLAST bit score: 421&lt;br&gt;E-value: 2.7e-117" locus_tag="AAM77987.1" points="528,85 533,80 542,80 542,90 533,90 528,85 "  />
</g>
<g id="a1_0039"  >
<polygon style="fill:white; stroke-width:1; stroke:black; " id="dummy-1_h1_3_39" class="clusterblast-orf" description="&lt;b&gt;AAM77986.1&lt;/b&gt;&lt;br&gt;iterative type I polyketide synthase&lt;br&gt;Location: 11919 - 6658" locus_tag="AAM77986.1" points="545,90 583,90 588,85 583,80 545,80 545,90 "  />
</g>
<g id="a1_0040"  >
<polygon style="fill:white; stroke-width:1; stroke:black; " id="dummy-1_h1_3_40" class="clusterblast-orf" description="&lt;b&gt;AAM77985.1&lt;/b&gt;&lt;br&gt;Unknown&lt;br&gt;Location: 6124 - 5690" locus_tag="AAM77985.1" points="592,85 596,80 596,90 592,85 "  />
</g>
<g id="a1_0041"  >
<polygon style="fill:white; stroke-width:1; stroke:black; " id="dummy-1_h1_3_41" class="clusterblast-orf" description="&lt;b&gt;AAM77984.1&lt;/b&gt;&lt;br&gt;O-methyltransferase&lt;br&gt;Location: 5576 - 4578" locus_tag="AAM77984.1" points="596,85 601,80 605,80 605,90 601,90 596,85 "  />
</g>
<g id="a1_0042"  >
<polygon style="fill:white; stroke-width:1; stroke:black; " id="dummy-1_h1_3_42" class="clusterblast-orf" description="&lt;b&gt;AAM77983.1&lt;/b&gt;&lt;br&gt;Unknown&lt;br&gt;Location: 4447 - 3404" locus_tag="AAM77983.1" points="606,85 611,80 614,80 614,90 611,90 606,85 "  />
</g>
<g id="a1_0043"  >
<polygon style="fill:white; stroke-width:1; stroke:black; " id="dummy-1_h1_3_43" class="clusterblast-orf" description="&lt;b&gt;AAM77982.1&lt;/b&gt;&lt;br&gt;Unknown&lt;br&gt;Location: 3407 - 2727" locus_tag="AAM77982.1" points="614,85 619,80 619,80 619,90 619,90 614,85 "  />
</g>
<g id="a1_0044"  >
<polygon style="fill:white; stroke-width:1; stroke:black; " id="dummy-1_h1_3_44" class="clusterblast-orf" description="&lt;b&gt;AAM77981.1&lt;/b&gt;&lt;br&gt;aminotransferase&lt;br&gt;Location: 2654 - 1074" locus_tag="AAM77981.1" points="620,85 625,80 633,80 633,90 625,90 620,85 "  />
</g>
<g id="a1_0045"  >
<polygon style="fill:#d81590; stroke-width:1; stroke:black; " id="dummy-1_h1_3_45" class="clusterblast-orf" description="&lt;b&gt;AAM77980.1&lt;/b&gt;&lt;br&gt;NDP-hexose-4-ketoreductase&lt;br&gt;Location: 798 - 1&lt;br&gt;&lt;br&gt;&lt;b&gt;BlastP hit with cds47794_48721&lt;/b&gt;&lt;br&gt;Percentage identity: 75&lt;br&gt;Percentage coverage: 83&lt;br&gt;BLAST bit score: 368&lt;br&gt;E-value: 8.7e-102" locus_tag="AAM77980.1" points="635,85 640,80 641,80 641,90 640,90 635,85 "  />
</g>
</svg>
