<svg xmlns:xlink="http://www.w3.org/1999/xlink" x="0" preserveAspectRatio="none" version="1.1" height="230" viewBox="0 0 800 230" y="0" xmlns="http://www.w3.org/2000/svg" width="800"  >
<g label="Query sequence" class="clusterblast-cluster"  >
<text class="clusterblast-acc" x="5" y="20"  >
Query sequence</text>
<line y2="35" x1="10" style="stroke-width:1; stroke:grey; " y1="35" x2="778.0"  />
<polygon style="fill:#d81515; stroke-width:1; stroke:black; " id="dummy-1_q0_0_all" class="clusterblast-orf" description="&lt;b&gt;cds1_3307&lt;/b&gt;&lt;br&gt;Polyketide synthase modules and related proteins&lt;br&gt;Location: 1 - 3307" locus_tag="cds1_3307" points="362,40 396,40 401,35 396,30 362,30 362,40 "  />
<polygon style="fill:#d81515; stroke-width:1; stroke:black; " id="dummy-1_q1_0_all" class="clusterblast-orf" description="&lt;b&gt;cds3303_4734&lt;/b&gt;&lt;br&gt;Long-chain-fatty-acid--CoA ligase (EC 6.2.1.3)&lt;br&gt;Location: 3303 - 4734" locus_tag="cds3303_4734" points="401,40 412,40 417,35 412,30 401,30 401,40 "  />
</g>
<g label="BGC0001968" class="clusterblast-cluster" description="BGC0001968_c1: cadaside A / cadaside B (14% of genes show similarity), NRP"  >
<text class="clusterblast-acc" x="5" y="70"  >
<a xlink:href="https://mibig.secondarymetabolites.org/go/BGC0001968/1" target="_blank">BGC0001968</a>:                                                          cadaside A / cadaside B (14% of genes show similarity), NRP</text>
<line y2="85" x1="10" style="stroke-width:1; stroke:grey; " y1="85" x2="778.0"  />
</g>
<g id="a1_000"  >
<polygon style="fill:white; stroke-width:1; stroke:black; " id="dummy-1_h1_6_0" class="clusterblast-orf" description="&lt;b&gt;QBC75013.1&lt;/b&gt;&lt;br&gt;cytochrome P450&lt;br&gt;Location: 3001 - 4227" locus_tag="QBC75013.1" points="0,90 9,90 14,85 9,80 0,80 0,90 "  />
</g>
<g id="a1_001"  >
<polygon style="fill:white; stroke-width:1; stroke:black; " id="dummy-1_h1_6_1" class="clusterblast-orf" description="&lt;b&gt;QBC75014.1&lt;/b&gt;&lt;br&gt;alpha/beta hydrolase&lt;br&gt;Location: 4248 - 5054" locus_tag="QBC75014.1" points="14,90 18,90 23,85 18,80 14,80 14,90 "  />
</g>
<g id="a1_002"  >
<polygon style="fill:white; stroke-width:1; stroke:black; " id="dummy-1_h1_6_2" class="clusterblast-orf" description="&lt;b&gt;QBC75015.1&lt;/b&gt;&lt;br&gt;ABC transporter permease&lt;br&gt;Location: 5077 - 5925" locus_tag="QBC75015.1" points="24,85 29,80 34,80 34,90 29,90 24,85 "  />
</g>
<g id="a1_003"  >
<polygon style="fill:white; stroke-width:1; stroke:black; " id="dummy-1_h1_6_3" class="clusterblast-orf" description="&lt;b&gt;QBC75016.1&lt;/b&gt;&lt;br&gt;daunorubicin/doxorubicin resistance ABC transporter&lt;br&gt;Location: 5955 - 6893" locus_tag="QBC75016.1" points="34,85 39,80 45,80 45,90 39,90 34,85 "  />
</g>
<g id="a1_004"  >
<polygon style="fill:white; stroke-width:1; stroke:black; " id="dummy-1_h1_6_4" class="clusterblast-orf" description="&lt;b&gt;QBC75017.1&lt;/b&gt;&lt;br&gt;acyl-CoA synthase&lt;br&gt;Location: 7390 - 9141" locus_tag="QBC75017.1" points="51,90 66,90 71,85 66,80 51,80 51,90 "  />
</g>
<g id="a1_005"  >
<polygon style="fill:white; stroke-width:1; stroke:black; " id="dummy-1_h1_6_5" class="clusterblast-orf" description="&lt;b&gt;QBC75018.1&lt;/b&gt;&lt;br&gt;acyl-CoA dehydrogenase&lt;br&gt;Location: 9218 - 10921" locus_tag="QBC75018.1" points="72,90 87,90 92,85 87,80 72,80 72,90 "  />
</g>
<g id="a1_006"  >
<polygon style="fill:white; stroke-width:1; stroke:black; " id="dummy-1_h1_6_6" class="clusterblast-orf" description="&lt;b&gt;QBC75019.1&lt;/b&gt;&lt;br&gt;acyl-CoA dehydrogenase&lt;br&gt;Location: 10918 - 12654" locus_tag="QBC75019.1" points="92,90 107,90 112,85 107,80 92,80 92,90 "  />
</g>
<g id="a1_007"  >
<polygon style="fill:white; stroke-width:1; stroke:black; " id="dummy-1_h1_6_7" class="clusterblast-orf" description="&lt;b&gt;QBC75020.1&lt;/b&gt;&lt;br&gt;acyl carrier protein&lt;br&gt;Location: 12742 - 13032" locus_tag="QBC75020.1" points="113,90 116,85 113,80 113,90 "  />
</g>
<g id="a1_008"  >
<polygon style="fill:#d81515; stroke-width:1; stroke:black; " id="dummy-1_h1_6_8" class="clusterblast-orf" description="&lt;b&gt;QBC75021.1&lt;/b&gt;&lt;br&gt;non-ribosomal peptide synthetase&lt;br&gt;Location: 13041 - 34754&lt;br&gt;&lt;br&gt;&lt;b&gt;BlastP hit with cds1_3307&lt;/b&gt;&lt;br&gt;Percentage identity: 46&lt;br&gt;Percentage coverage: 101&lt;br&gt;BLAST bit score: 880&lt;br&gt;E-value: 3.2e-255&lt;br&gt;&lt;br&gt;&lt;b&gt;BlastP hit with cds3303_4734&lt;/b&gt;&lt;br&gt;Percentage identity: 50&lt;br&gt;Percentage coverage: 93&lt;br&gt;BLAST bit score: 410&lt;br&gt;E-value: 5.3e-114" locus_tag="QBC75021.1" points="117,90 365,90 370,85 365,80 117,80 117,90 "  />
</g>
<g id="a1_009"  >
<polygon style="fill:#d81515; stroke-width:1; stroke:black; " id="dummy-1_h1_6_9" class="clusterblast-orf" description="&lt;b&gt;QBC75022.1&lt;/b&gt;&lt;br&gt;non-ribosomal peptide synthetase&lt;br&gt;Location: 34763 - 51889&lt;br&gt;&lt;br&gt;&lt;b&gt;BlastP hit with cds3303_4734&lt;/b&gt;&lt;br&gt;Percentage identity: 52&lt;br&gt;Percentage coverage: 94&lt;br&gt;BLAST bit score: 442&lt;br&gt;E-value: 7.4e-124" locus_tag="QBC75022.1" points="370,90 565,90 570,85 565,80 370,80 370,90 "  />
</g>
<g id="a1_0010"  >
<polygon style="fill:#d81515; stroke-width:1; stroke:black; " id="dummy-1_h1_6_10" class="clusterblast-orf" description="&lt;b&gt;QBC75023.1&lt;/b&gt;&lt;br&gt;non-ribosomal peptide synthetase&lt;br&gt;Location: 51886 - 60240&lt;br&gt;&lt;br&gt;&lt;b&gt;BlastP hit with cds3303_4734&lt;/b&gt;&lt;br&gt;Percentage identity: 49&lt;br&gt;Percentage coverage: 95&lt;br&gt;BLAST bit score: 425&lt;br&gt;E-value: 1.6e-118" locus_tag="QBC75023.1" points="570,90 662,90 667,85 662,80 570,80 570,90 "  />
</g>
<g id="a1_0011"  >
<polygon style="fill:white; stroke-width:1; stroke:black; " id="dummy-1_h1_6_11" class="clusterblast-orf" description="&lt;b&gt;QBC75024.1&lt;/b&gt;&lt;br&gt;MbtH-like protein&lt;br&gt;Location: 60264 - 60485" locus_tag="QBC75024.1" points="667,90 670,85 667,80 667,90 "  />
</g>
<g id="a1_0012"  >
<polygon style="fill:white; stroke-width:1; stroke:black; " id="dummy-1_h1_6_12" class="clusterblast-orf" description="&lt;b&gt;QBC75025.1&lt;/b&gt;&lt;br&gt;phosphatase PAP2 family protein&lt;br&gt;Location: 60664 - 61395" locus_tag="QBC75025.1" points="672,90 675,90 680,85 675,80 672,80 672,90 "  />
</g>
<g id="a1_0013"  >
<polygon style="fill:white; stroke-width:1; stroke:black; " id="dummy-1_h1_6_13" class="clusterblast-orf" description="&lt;b&gt;QBC75026.1&lt;/b&gt;&lt;br&gt;alpha-ketoglutarate-dependent taurine dioxygenase&lt;br&gt;Location: 61437 - 62378" locus_tag="QBC75026.1" points="681,90 687,90 692,85 687,80 681,80 681,90 "  />
</g>
<g id="a1_0014"  >
<polygon style="fill:white; stroke-width:1; stroke:black; " id="dummy-1_h1_6_14" class="clusterblast-orf" description="&lt;b&gt;QBC75027.1&lt;/b&gt;&lt;br&gt;branched-chain amino acid aminotransferase&lt;br&gt;Location: 62433 - 63494" locus_tag="QBC75027.1" points="692,85 697,80 705,80 705,90 697,90 692,85 "  />
</g>
<g id="a1_0015"  >
<polygon style="fill:white; stroke-width:1; stroke:black; " id="dummy-1_h1_6_15" class="clusterblast-orf" description="&lt;b&gt;QBC75028.1&lt;/b&gt;&lt;br&gt;ketosteroid isomerase&lt;br&gt;Location: 63513 - 63899" locus_tag="QBC75028.1" points="705,85 710,80 710,80 710,90 710,90 705,85 "  />
</g>
<g id="a1_0016"  >
<polygon style="fill:white; stroke-width:1; stroke:black; " id="dummy-1_h1_6_16" class="clusterblast-orf" description="&lt;b&gt;QBC75029.1&lt;/b&gt;&lt;br&gt;phosphatase PAP2 family protein&lt;br&gt;Location: 64083 - 64778" locus_tag="QBC75029.1" points="712,90 715,90 720,85 715,80 712,80 712,90 "  />
</g>
<g id="a1_0017"  >
<polygon style="fill:white; stroke-width:1; stroke:black; " id="dummy-1_h1_6_17" class="clusterblast-orf" description="&lt;b&gt;QBC75030.1&lt;/b&gt;&lt;br&gt;sensor histidine kinase&lt;br&gt;Location: 65164 - 66618" locus_tag="QBC75030.1" points="724,90 736,90 741,85 736,80 724,80 724,90 "  />
</g>
<g id="a1_0018"  >
<polygon style="fill:white; stroke-width:1; stroke:black; " id="dummy-1_h1_6_18" class="clusterblast-orf" description="&lt;b&gt;QBC75031.1&lt;/b&gt;&lt;br&gt;DNA-binding response regulator&lt;br&gt;Location: 66711 - 67349" locus_tag="QBC75031.1" points="742,90 745,90 750,85 745,80 742,80 742,90 "  />
</g>
<g id="a1_0019"  >
<polygon style="fill:white; stroke-width:1; stroke:black; " id="dummy-1_h1_6_19" class="clusterblast-orf" description="&lt;b&gt;QBC75032.1&lt;/b&gt;&lt;br&gt;succinate-semialdehyde dehydrogenase&lt;br&gt;Location: 67625 - 68755" locus_tag="QBC75032.1" points="753,90 761,90 766,85 761,80 753,80 753,90 "  />
</g>
<g id="a1_0020"  >
<polygon style="fill:white; stroke-width:1; stroke:black; " id="dummy-1_h1_6_20" class="clusterblast-orf" description="&lt;b&gt;QBC75033.1&lt;/b&gt;&lt;br&gt;SDR family NAD(P)-dependent oxidoreductase&lt;br&gt;Location: 69171 - 69896" locus_tag="QBC75033.1" points="771,85 776,80 780,80 780,90 776,90 771,85 "  />
</g>
</svg>
