<svg xmlns:xlink="http://www.w3.org/1999/xlink" x="0" preserveAspectRatio="none" version="1.1" height="230" viewBox="0 0 800 230" y="0" xmlns="http://www.w3.org/2000/svg" width="800"  >
<g label="Query sequence" class="clusterblast-cluster"  >
<text class="clusterblast-acc" x="5" y="20"  >
Query sequence</text>
<line y2="35" x1="10" style="stroke-width:1; stroke:grey; " y1="35" x2="778.0"  />
<polygon style="fill:white; stroke-width:1; stroke:black; " id="dummy-1_q0_0_all" class="clusterblast-orf" description="&lt;b&gt;cds325449_326502&lt;/b&gt;&lt;br&gt;Two-component system sensor histidine kinase&lt;br&gt;Location: 325449 - 326502" locus_tag="cds325449_326502" points="0,35 5,30 16,30 16,40 5,40 0,35 "  />
<polygon style="fill:white; stroke-width:1; stroke:black; " id="dummy-1_q1_0_all" class="clusterblast-orf" description="&lt;b&gt;cds326896_327583&lt;/b&gt;&lt;br&gt;Two-component transcriptional response regulator SCO5283, OmpR family&lt;br&gt;Location: 326896 - 327583" locus_tag="cds326896_327583" points="22,35 27,30 33,30 33,40 27,40 22,35 "  />
<polygon style="fill:white; stroke-width:1; stroke:black; " id="dummy-1_q2_0_all" class="clusterblast-orf" description="&lt;b&gt;cds327701_328535&lt;/b&gt;&lt;br&gt;putative secreted protein&lt;br&gt;Location: 327701 - 328535" locus_tag="cds327701_328535" points="35,40 43,40 48,35 43,30 35,30 35,40 "  />
<polygon style="fill:white; stroke-width:1; stroke:black; " id="dummy-1_q3_0_all" class="clusterblast-orf" description="&lt;b&gt;cds328531_329215&lt;/b&gt;&lt;br&gt;Arsenate reductase (EC 1.20.4.4) thioredoxin-coupled, LMWP family&lt;br&gt;Location: 328531 - 329215" locus_tag="cds328531_329215" points="48,35 53,30 58,30 58,40 53,40 48,35 "  />
<polygon style="fill:white; stroke-width:1; stroke:black; " id="dummy-1_q4_0_all" class="clusterblast-orf" description="&lt;b&gt;cds329247_329919&lt;/b&gt;&lt;br&gt;Arsenical resistance operon repressor / Arsenate reductase (EC 1.20.4.4) thioredoxin-coupled, LMWP family&lt;br&gt;Location: 329247 - 329919" locus_tag="cds329247_329919" points="59,35 64,30 69,30 69,40 64,40 59,35 "  />
<polygon style="fill:white; stroke-width:1; stroke:black; " id="dummy-1_q5_0_all" class="clusterblast-orf" description="&lt;b&gt;cds330044_330587&lt;/b&gt;&lt;br&gt;hypothetical protein&lt;br&gt;Location: 330044 - 330587" locus_tag="cds330044_330587" points="71,40 74,40 79,35 74,30 71,30 71,40 "  />
<polygon style="fill:white; stroke-width:1; stroke:black; " id="dummy-1_q6_0_all" class="clusterblast-orf" description="&lt;b&gt;cds330750_331311&lt;/b&gt;&lt;br&gt;Copper metallochaperone PCu(A)C, inserts Cu(I) into cytochrome oxidase subunit II&lt;br&gt;Location: 330750 - 331311" locus_tag="cds330750_331311" points="82,40 86,40 91,35 86,30 82,30 82,40 "  />
<polygon style="fill:white; stroke-width:1; stroke:black; " id="dummy-1_q7_0_all" class="clusterblast-orf" description="&lt;b&gt;cds331303_332509&lt;/b&gt;&lt;br&gt;Putative Dyp-type peroxidase, associated with bacterial analog of Cox17 protein&lt;br&gt;Location: 331303 - 332509" locus_tag="cds331303_332509" points="91,40 104,40 109,35 104,30 91,30 91,40 "  />
<polygon style="fill:white; stroke-width:1; stroke:black; " id="dummy-1_q8_0_all" class="clusterblast-orf" description="&lt;b&gt;cds332683_333019&lt;/b&gt;&lt;br&gt;Protein of unknown function UPF0060&lt;br&gt;Location: 332683 - 333019" locus_tag="cds332683_333019" points="112,40 112,40 117,35 112,30 112,30 112,40 "  />
<polygon style="fill:white; stroke-width:1; stroke:black; " id="dummy-1_q9_0_all" class="clusterblast-orf" description="&lt;b&gt;cds333063_333795&lt;/b&gt;&lt;br&gt;Transcriptional regulator, AcrR family&lt;br&gt;Location: 333063 - 333795" locus_tag="cds333063_333795" points="118,35 123,30 129,30 129,40 123,40 118,35 "  />
<polygon style="fill:white; stroke-width:1; stroke:black; " id="dummy-1_q10_0_all" class="clusterblast-orf" description="&lt;b&gt;cds333948_334842&lt;/b&gt;&lt;br&gt;hypothetical protein&lt;br&gt;Location: 333948 - 334842" locus_tag="cds333948_334842" points="132,40 141,40 146,35 141,30 132,30 132,40 "  />
<polygon style="fill:white; stroke-width:1; stroke:black; " id="dummy-1_q11_0_all" class="clusterblast-orf" description="&lt;b&gt;cds334908_335259&lt;/b&gt;&lt;br&gt;Integral membrane protein&lt;br&gt;Location: 334908 - 335259" locus_tag="cds334908_335259" points="147,35 152,30 152,30 152,40 152,40 147,35 "  />
<polygon style="fill:white; stroke-width:1; stroke:black; " id="dummy-1_q12_0_all" class="clusterblast-orf" description="&lt;b&gt;cds335328_336324&lt;/b&gt;&lt;br&gt;hypothetical protein&lt;br&gt;Location: 335328 - 336324" locus_tag="cds335328_336324" points="153,35 158,30 169,30 169,40 158,40 153,35 "  />
<polygon style="fill:white; stroke-width:1; stroke:black; " id="dummy-1_q13_0_all" class="clusterblast-orf" description="&lt;b&gt;cds336574_337567&lt;/b&gt;&lt;br&gt;ADP-heptose--lipooligosaccharide heptosyltransferase II&lt;br&gt;Location: 336574 - 337567" locus_tag="cds336574_337567" points="172,40 183,40 188,35 183,30 172,30 172,40 "  />
<polygon style="fill:white; stroke-width:1; stroke:black; " id="dummy-1_q14_0_all" class="clusterblast-orf" description="&lt;b&gt;cds337582_337894&lt;/b&gt;&lt;br&gt;Transcriptional regulator, ArsR family&lt;br&gt;Location: 337582 - 337894" locus_tag="cds337582_337894" points="188,35 193,30 193,30 193,40 193,40 188,35 "  />
<polygon style="fill:white; stroke-width:1; stroke:black; " id="dummy-1_q15_0_all" class="clusterblast-orf" description="&lt;b&gt;cds338098_338779&lt;/b&gt;&lt;br&gt;hypothetical protein&lt;br&gt;Location: 338098 - 338779" locus_tag="cds338098_338779" points="196,40 202,40 207,35 202,30 196,30 196,40 "  />
<polygon style="fill:white; stroke-width:1; stroke:black; " id="dummy-1_q16_0_all" class="clusterblast-orf" description="&lt;b&gt;cds338959_340042&lt;/b&gt;&lt;br&gt;hypothetical protein&lt;br&gt;Location: 338959 - 340042" locus_tag="cds338959_340042" points="209,40 221,40 226,35 221,30 209,30 209,40 "  />
<polygon style="fill:white; stroke-width:1; stroke:black; " id="dummy-1_q17_0_all" class="clusterblast-orf" description="&lt;b&gt;cds339992_340193&lt;/b&gt;&lt;br&gt;hypothetical protein&lt;br&gt;Location: 339992 - 340193" locus_tag="cds339992_340193" points="225,35 229,30 229,40 225,35 "  />
<polygon style="fill:white; stroke-width:1; stroke:black; " id="dummy-1_q18_0_all" class="clusterblast-orf" description="&lt;b&gt;cds340508_340844&lt;/b&gt;&lt;br&gt;FIG00820327: hypothetical protein&lt;br&gt;Location: 340508 - 340844" locus_tag="cds340508_340844" points="234,40 234,40 239,35 234,30 234,30 234,40 "  />
<polygon style="fill:white; stroke-width:1; stroke:black; " id="dummy-1_q19_0_all" class="clusterblast-orf" description="&lt;b&gt;cds340871_342608&lt;/b&gt;&lt;br&gt;Cytochrome c oxidase polypeptide I (EC 1.9.3.1)&lt;br&gt;Location: 340871 - 342608" locus_tag="cds340871_342608" points="239,35 244,30 266,30 266,40 244,40 239,35 "  />
<polygon style="fill:#d81515; stroke-width:1; stroke:black; " id="dummy-1_q20_0_all" class="clusterblast-orf" description="&lt;b&gt;cds342733_343621&lt;/b&gt;&lt;br&gt;Efflux ABC transporter, permease protein&lt;br&gt;Location: 342733 - 343621" locus_tag="cds342733_343621" points="268,35 273,30 282,30 282,40 273,40 268,35 "  />
<polygon style="fill:#15d863; stroke-width:1; stroke:black; " id="dummy-1_q21_0_all" class="clusterblast-orf" description="&lt;b&gt;cds343688_344675&lt;/b&gt;&lt;br&gt;Efflux ABC transporter, ATP-binding protein&lt;br&gt;Location: 343688 - 344675" locus_tag="cds343688_344675" points="283,35 288,30 298,30 298,40 288,40 283,35 "  />
<polygon style="fill:white; stroke-width:1; stroke:black; " id="dummy-1_q22_0_all" class="clusterblast-orf" description="&lt;b&gt;cds344671_358297&lt;/b&gt;&lt;br&gt;Polyketide synthase modules and related proteins&lt;br&gt;Location: 344671 - 358297" locus_tag="cds344671_358297" points="298,35 303,30 510,30 510,40 303,40 298,35 "  />
<polygon style="fill:white; stroke-width:1; stroke:black; " id="dummy-1_q23_0_all" class="clusterblast-orf" description="&lt;b&gt;cds358721_360416&lt;/b&gt;&lt;br&gt;Apolipoprotein N-acyltransferase (EC 2.3.1.-) in lipid-linked oligosaccharide synthesis cluster&lt;br&gt;Location: 358721 - 360416" locus_tag="cds358721_360416" points="516,35 521,30 543,30 543,40 521,40 516,35 "  />
<polygon style="fill:white; stroke-width:1; stroke:black; " id="dummy-1_q24_0_all" class="clusterblast-orf" description="&lt;b&gt;cds360455_360833&lt;/b&gt;&lt;br&gt;hypothetical protein&lt;br&gt;Location: 360455 - 360833" locus_tag="cds360455_360833" points="543,40 544,40 549,35 544,30 543,30 543,40 "  />
<polygon style="fill:white; stroke-width:1; stroke:black; " id="dummy-1_q25_0_all" class="clusterblast-orf" description="&lt;b&gt;cds360982_362641&lt;/b&gt;&lt;br&gt;Exoenzymes regulatory protein AepA in lipid-linked oligosaccharide synthesis cluster&lt;br&gt;Location: 360982 - 362641" locus_tag="cds360982_362641" points="551,35 556,30 577,30 577,40 556,40 551,35 "  />
<polygon style="fill:white; stroke-width:1; stroke:black; " id="dummy-1_q26_0_all" class="clusterblast-orf" description="&lt;b&gt;cds362764_363259&lt;/b&gt;&lt;br&gt;O-antigen flippase Wzx&lt;br&gt;Location: 362764 - 363259" locus_tag="cds362764_363259" points="579,40 582,40 587,35 582,30 579,30 579,40 "  />
<polygon style="fill:#1563d8; stroke-width:1; stroke:black; " id="dummy-1_q27_0_all" class="clusterblast-orf" description="&lt;b&gt;cds363443_364133&lt;/b&gt;&lt;br&gt;Two-component transcriptional response regulator, LuxR family&lt;br&gt;Location: 363443 - 364133" locus_tag="cds363443_364133" points="590,35 595,30 600,30 600,40 595,40 590,35 "  />
<polygon style="fill:white; stroke-width:1; stroke:black; " id="dummy-1_q28_0_all" class="clusterblast-orf" description="&lt;b&gt;cds364137_365382&lt;/b&gt;&lt;br&gt;Two-component system sensor histidine kinase&lt;br&gt;Location: 364137 - 365382" locus_tag="cds364137_365382" points="600,35 605,30 620,30 620,40 605,40 600,35 "  />
<polygon style="fill:white; stroke-width:1; stroke:black; " id="dummy-1_q29_0_all" class="clusterblast-orf" description="&lt;b&gt;cds365398_366274&lt;/b&gt;&lt;br&gt;putative membrane protein&lt;br&gt;Location: 365398 - 366274" locus_tag="cds365398_366274" points="620,40 629,40 634,35 629,30 620,30 620,40 "  />
<polygon style="fill:white; stroke-width:1; stroke:black; " id="dummy-1_q30_0_all" class="clusterblast-orf" description="&lt;b&gt;cds366455_367841&lt;/b&gt;&lt;br&gt;Transcriptional regulator, AcrR family&lt;br&gt;Location: 366455 - 367841" locus_tag="cds366455_367841" points="636,35 641,30 658,30 658,40 641,40 636,35 "  />
<polygon style="fill:#b115d8; stroke-width:1; stroke:black; " id="dummy-1_q31_0_all" class="clusterblast-orf" description="&lt;b&gt;cds367999_369556&lt;/b&gt;&lt;br&gt;TldD family protein, Actinobacterial subgroup&lt;br&gt;Location: 367999 - 369556" locus_tag="cds367999_369556" points="660,40 680,40 685,35 680,30 660,30 660,40 "  />
<polygon style="fill:#b1d815; stroke-width:1; stroke:black; " id="dummy-1_q32_0_all" class="clusterblast-orf" description="&lt;b&gt;cds369552_370959&lt;/b&gt;&lt;br&gt;TldE/PmbA family protein, Actinobacterial subgroup&lt;br&gt;Location: 369552 - 370959" locus_tag="cds369552_370959" points="685,40 701,40 706,35 701,30 685,30 685,40 "  />
<polygon style="fill:white; stroke-width:1; stroke:black; " id="dummy-1_q33_0_all" class="clusterblast-orf" description="&lt;b&gt;cds371059_372061&lt;/b&gt;&lt;br&gt;Peptidase S1 and S6, chymotrypsin/Hap&lt;br&gt;Location: 371059 - 372061" locus_tag="cds371059_372061" points="708,40 718,40 723,35 718,30 708,30 708,40 "  />
<polygon style="fill:white; stroke-width:1; stroke:black; " id="dummy-1_q34_0_all" class="clusterblast-orf" description="&lt;b&gt;cds372068_372338&lt;/b&gt;&lt;br&gt;hypothetical protein&lt;br&gt;Location: 372068 - 372338" locus_tag="cds372068_372338" points="724,35 728,30 728,40 724,35 "  />
<polygon style="fill:white; stroke-width:1; stroke:black; " id="dummy-1_q35_0_all" class="clusterblast-orf" description="&lt;b&gt;cds372415_373183&lt;/b&gt;&lt;br&gt;Methionine aminopeptidase (EC 3.4.11.18)&lt;br&gt;Location: 372415 - 373183" locus_tag="cds372415_373183" points="729,40 736,40 741,35 736,30 729,30 729,40 "  />
<polygon style="fill:white; stroke-width:1; stroke:black; " id="dummy-1_q36_0_all" class="clusterblast-orf" description="&lt;b&gt;cds373260_373980&lt;/b&gt;&lt;br&gt;hypothetical protein&lt;br&gt;Location: 373260 - 373980" locus_tag="cds373260_373980" points="742,35 747,30 753,30 753,40 747,40 742,35 "  />
<polygon style="fill:white; stroke-width:1; stroke:black; " id="dummy-1_q37_0_all" class="clusterblast-orf" description="&lt;b&gt;cds374097_374682&lt;/b&gt;&lt;br&gt;Transcriptional regulator, PadR family&lt;br&gt;Location: 374097 - 374682" locus_tag="cds374097_374682" points="755,40 759,40 764,35 759,30 755,30 755,40 "  />
<polygon style="fill:white; stroke-width:1; stroke:black; " id="dummy-1_q38_0_all" class="clusterblast-orf" description="&lt;b&gt;cds374691_375075&lt;/b&gt;&lt;br&gt;hypothetical protein&lt;br&gt;Location: 374691 - 375075" locus_tag="cds374691_375075" points="764,40 765,40 770,35 765,30 764,30 764,40 "  />
<polygon style="fill:white; stroke-width:1; stroke:black; " id="dummy-1_q39_0_all" class="clusterblast-orf" description="&lt;b&gt;cds375147_375678&lt;/b&gt;&lt;br&gt;hypothetical protein&lt;br&gt;Location: 375147 - 375678" locus_tag="cds375147_375678" points="771,35 776,30 780,30 780,40 776,40 771,35 "  />
</g>
<g label="BGC0000200" class="clusterblast-cluster" description="BGC0000200_c1: arixanthomycin A / arixanthomycin B / arixanthomycin C (5% of genes show similarity), Polyketide:Type II + Saccharide:Hybrid/tailoring"  >
<text class="clusterblast-acc" x="5" y="70"  >
<a xlink:href="https://mibig.secondarymetabolites.org/go/BGC0000200/1" target="_blank">BGC0000200</a>:                           arixanthomycin A / arixanthomycin B / arixanthomycin C (5% of genes show similarity), Polyketide:Type II + Saccharide:Hybrid/tailoring</text>
<line y2="85" x1="10" style="stroke-width:1; stroke:grey; " y1="85" x2="778.0"  />
</g>
<g id="a1_000"  >
<polygon style="fill:white; stroke-width:1; stroke:black; " id="dummy-1_h1_4_0" class="clusterblast-orf" description="&lt;b&gt;arx1&lt;/b&gt;&lt;br&gt;NAD-dependent epimerase/dehydratase&lt;br&gt;Location: 1 - 1059" locus_tag="arx1" points="141,85 146,80 158,80 158,90 146,90 141,85 "  />
</g>
<g id="a1_001"  >
<polygon style="fill:white; stroke-width:1; stroke:black; " id="dummy-1_h1_4_1" class="clusterblast-orf" description="&lt;b&gt;arx2&lt;/b&gt;&lt;br&gt;hypothetical protein&lt;br&gt;Location: 1062 - 1796" locus_tag="arx2" points="158,85 163,80 169,80 169,90 163,90 158,85 "  />
</g>
<g id="a1_002"  >
<polygon style="fill:white; stroke-width:1; stroke:black; " id="dummy-1_h1_4_2" class="clusterblast-orf" description="&lt;b&gt;arx3&lt;/b&gt;&lt;br&gt;glycosyltransferase&lt;br&gt;Location: 1822 - 2988" locus_tag="arx3" points="170,85 175,80 188,80 188,90 175,90 170,85 "  />
</g>
<g id="a1_003"  >
<polygon style="fill:white; stroke-width:1; stroke:black; " id="dummy-1_h1_4_3" class="clusterblast-orf" description="&lt;b&gt;arx4&lt;/b&gt;&lt;br&gt;short-chain dehydrogenase/reductase SDR&lt;br&gt;Location: 3207 - 3887" locus_tag="arx4" points="191,90 197,90 202,85 197,80 191,80 191,90 "  />
</g>
<g id="a1_004"  >
<polygon style="fill:white; stroke-width:1; stroke:black; " id="dummy-1_h1_4_4" class="clusterblast-orf" description="&lt;b&gt;arx5&lt;/b&gt;&lt;br&gt;amidotransferase&lt;br&gt;Location: 3911 - 5761" locus_tag="arx5" points="202,90 226,90 231,85 226,80 202,80 202,90 "  />
</g>
<g id="a1_005"  >
<polygon style="fill:white; stroke-width:1; stroke:black; " id="dummy-1_h1_4_5" class="clusterblast-orf" description="&lt;b&gt;arx6&lt;/b&gt;&lt;br&gt;O-methyltransferase&lt;br&gt;Location: 5791 - 6855" locus_tag="arx6" points="231,90 243,90 248,85 243,80 231,80 231,90 "  />
</g>
<g id="a1_006"  >
<polygon style="fill:white; stroke-width:1; stroke:black; " id="dummy-1_h1_4_6" class="clusterblast-orf" description="&lt;b&gt;arx7&lt;/b&gt;&lt;br&gt;ABC transporter&lt;br&gt;Location: 6917 - 7744" locus_tag="arx7" points="249,85 254,80 262,80 262,90 254,90 249,85 "  />
</g>
<g id="a1_007"  >
<polygon style="fill:#15d863; stroke-width:1; stroke:black; " id="dummy-1_h1_4_7" class="clusterblast-orf" description="&lt;b&gt;arx8&lt;/b&gt;&lt;br&gt;ABC transporter ATP-binding protein&lt;br&gt;Location: 7741 - 8697&lt;br&gt;&lt;br&gt;&lt;b&gt;BlastP hit with cds343688_344675&lt;/b&gt;&lt;br&gt;Percentage identity: 52&lt;br&gt;Percentage coverage: 97&lt;br&gt;BLAST bit score: 308&lt;br&gt;E-value: 1.1e-83" locus_tag="arx8" points="262,85 267,80 276,80 276,90 267,90 262,85 "  />
</g>
<g id="a1_008"  >
<polygon style="fill:white; stroke-width:1; stroke:black; " id="dummy-1_h1_4_8" class="clusterblast-orf" description="&lt;b&gt;arx9&lt;/b&gt;&lt;br&gt;glycosyltransferase&lt;br&gt;Location: 8694 - 9872" locus_tag="arx9" points="276,85 281,80 295,80 295,90 281,90 276,85 "  />
</g>
<g id="a1_009"  >
<polygon style="fill:white; stroke-width:1; stroke:black; " id="dummy-1_h1_4_9" class="clusterblast-orf" description="&lt;b&gt;arx10&lt;/b&gt;&lt;br&gt;FAD-binding monooxygenase&lt;br&gt;Location: 9874 - 11460" locus_tag="arx10" points="295,85 300,80 319,80 319,90 300,90 295,85 "  />
</g>
<g id="a1_0010"  >
<polygon style="fill:white; stroke-width:1; stroke:black; " id="dummy-1_h1_4_10" class="clusterblast-orf" description="&lt;b&gt;arx11&lt;/b&gt;&lt;br&gt;hypothetical protein&lt;br&gt;Location: 12253 - 13065" locus_tag="arx11" points="332,85 337,80 344,80 344,90 337,90 332,85 "  />
</g>
<g id="a1_0011"  >
<polygon style="fill:white; stroke-width:1; stroke:black; " id="dummy-1_h1_4_11" class="clusterblast-orf" description="&lt;b&gt;arx12&lt;/b&gt;&lt;br&gt;O-methyltransferase&lt;br&gt;Location: 13091 - 14125" locus_tag="arx12" points="345,85 350,80 361,80 361,90 350,90 345,85 "  />
</g>
<g id="a1_0012"  >
<polygon style="fill:white; stroke-width:1; stroke:black; " id="dummy-1_h1_4_12" class="clusterblast-orf" description="&lt;b&gt;arx13&lt;/b&gt;&lt;br&gt;dehydrogenase&lt;br&gt;Location: 14331 - 15218" locus_tag="arx13" points="364,90 373,90 378,85 373,80 364,80 364,90 "  />
</g>
<g id="a1_0013"  >
<polygon style="fill:white; stroke-width:1; stroke:black; " id="dummy-1_h1_4_13" class="clusterblast-orf" description="&lt;b&gt;arx14&lt;/b&gt;&lt;br&gt;cyclase&lt;br&gt;Location: 15240 - 15575" locus_tag="arx14" points="378,90 378,90 383,85 378,80 378,80 378,90 "  />
</g>
<g id="a1_0014"  >
<polygon style="fill:white; stroke-width:1; stroke:black; " id="dummy-1_h1_4_14" class="clusterblast-orf" description="&lt;b&gt;arx15&lt;/b&gt;&lt;br&gt;cyclase&lt;br&gt;Location: 15572 - 16003" locus_tag="arx15" points="383,90 385,90 390,85 385,80 383,80 383,90 "  />
</g>
<g id="a1_0015"  >
<polygon style="fill:white; stroke-width:1; stroke:black; " id="dummy-1_h1_4_15" class="clusterblast-orf" description="&lt;b&gt;arx16&lt;/b&gt;&lt;br&gt;beta-ketoacyl synthase alpha&lt;br&gt;Location: 16000 - 17268" locus_tag="arx16" points="390,90 404,90 409,85 404,80 390,80 390,90 "  />
</g>
<g id="a1_0016"  >
<polygon style="fill:white; stroke-width:1; stroke:black; " id="dummy-1_h1_4_16" class="clusterblast-orf" description="&lt;b&gt;arx17&lt;/b&gt;&lt;br&gt;beta-ketoacyl synthase beta&lt;br&gt;Location: 17272 - 18510" locus_tag="arx17" points="410,90 424,90 429,85 424,80 410,80 410,90 "  />
</g>
<g id="a1_0017"  >
<polygon style="fill:white; stroke-width:1; stroke:black; " id="dummy-1_h1_4_17" class="clusterblast-orf" description="&lt;b&gt;arx18&lt;/b&gt;&lt;br&gt;acyl carrier protein&lt;br&gt;Location: 18510 - 18773" locus_tag="arx18" points="429,90 433,85 429,80 429,90 "  />
</g>
<g id="a1_0018"  >
<polygon style="fill:white; stroke-width:1; stroke:black; " id="dummy-1_h1_4_18" class="clusterblast-orf" description="&lt;b&gt;arx19&lt;/b&gt;&lt;br&gt;cyclase&lt;br&gt;Location: 18775 - 19236" locus_tag="arx19" points="433,90 435,90 440,85 435,80 433,80 433,90 "  />
</g>
<g id="a1_0019"  >
<polygon style="fill:white; stroke-width:1; stroke:black; " id="dummy-1_h1_4_19" class="clusterblast-orf" description="&lt;b&gt;arx20&lt;/b&gt;&lt;br&gt;monooxygenase&lt;br&gt;Location: 19243 - 19701" locus_tag="arx20" points="440,90 442,90 447,85 442,80 440,80 440,90 "  />
</g>
<g id="a1_0020"  >
<polygon style="fill:white; stroke-width:1; stroke:black; " id="dummy-1_h1_4_20" class="clusterblast-orf" description="&lt;b&gt;arx21&lt;/b&gt;&lt;br&gt;3-oxoacyl-ACP reductase&lt;br&gt;Location: 19725 - 20483" locus_tag="arx21" points="448,90 454,90 459,85 454,80 448,80 448,90 "  />
</g>
<g id="a1_0021"  >
<polygon style="fill:white; stroke-width:1; stroke:black; " id="dummy-1_h1_4_21" class="clusterblast-orf" description="&lt;b&gt;arx22&lt;/b&gt;&lt;br&gt;monooxygenase&lt;br&gt;Location: 20483 - 20836" locus_tag="arx22" points="459,90 460,90 465,85 460,80 459,80 459,90 "  />
</g>
<g id="a1_0022"  >
<polygon style="fill:white; stroke-width:1; stroke:black; " id="dummy-1_h1_4_22" class="clusterblast-orf" description="&lt;b&gt;arx23&lt;/b&gt;&lt;br&gt;monooxygenase&lt;br&gt;Location: 20833 - 21144" locus_tag="arx23" points="465,90 465,90 470,85 465,80 465,80 465,90 "  />
</g>
<g id="a1_0023"  >
<polygon style="fill:white; stroke-width:1; stroke:black; " id="dummy-1_h1_4_23" class="clusterblast-orf" description="&lt;b&gt;arx24&lt;/b&gt;&lt;br&gt;NDP-4-ketoreductase&lt;br&gt;Location: 21158 - 21961" locus_tag="arx24" points="470,90 477,90 482,85 477,80 470,80 470,90 "  />
</g>
<g id="a1_0024"  >
<polygon style="fill:white; stroke-width:1; stroke:black; " id="dummy-1_h1_4_24" class="clusterblast-orf" description="&lt;b&gt;arx25&lt;/b&gt;&lt;br&gt;hypothetical protein&lt;br&gt;Location: 22020 - 22475" locus_tag="arx25" points="483,85 488,80 490,80 490,90 488,90 483,85 "  />
</g>
<g id="a1_0025"  >
<polygon style="fill:white; stroke-width:1; stroke:black; " id="dummy-1_h1_4_25" class="clusterblast-orf" description="&lt;b&gt;arx26&lt;/b&gt;&lt;br&gt;hypothetical protein&lt;br&gt;Location: 22478 - 22858" locus_tag="arx26" points="490,85 495,80 496,80 496,90 495,90 490,85 "  />
</g>
<g id="a1_0026"  >
<polygon style="fill:white; stroke-width:1; stroke:black; " id="dummy-1_h1_4_26" class="clusterblast-orf" description="&lt;b&gt;arx27&lt;/b&gt;&lt;br&gt;3-oxoacyl-ACP reductase&lt;br&gt;Location: 22858 - 23595" locus_tag="arx27" points="496,85 501,80 508,80 508,90 501,90 496,85 "  />
</g>
<g id="a1_0027"  >
<polygon style="fill:white; stroke-width:1; stroke:black; " id="dummy-1_h1_4_27" class="clusterblast-orf" description="&lt;b&gt;arx28&lt;/b&gt;&lt;br&gt;putative peptide transporter&lt;br&gt;Location: 23592 - 25082" locus_tag="arx28" points="508,85 513,80 531,80 531,90 513,90 508,85 "  />
</g>
<g id="a1_0028"  >
<polygon style="fill:white; stroke-width:1; stroke:black; " id="dummy-1_h1_4_28" class="clusterblast-orf" description="&lt;b&gt;arx29&lt;/b&gt;&lt;br&gt;CurD-like protein&lt;br&gt;Location: 25098 - 25478" locus_tag="arx29" points="531,85 536,80 537,80 537,90 536,90 531,85 "  />
</g>
<g id="a1_0029"  >
<polygon style="fill:white; stroke-width:1; stroke:black; " id="dummy-1_h1_4_29" class="clusterblast-orf" description="&lt;b&gt;arx30&lt;/b&gt;&lt;br&gt;FAD-binding monooxygenase&lt;br&gt;Location: 25490 - 27076" locus_tag="arx30" points="537,85 542,80 562,80 562,90 542,90 537,85 "  />
</g>
<g id="a1_0030"  >
<polygon style="fill:#1563d8; stroke-width:1; stroke:black; " id="dummy-1_h1_4_30" class="clusterblast-orf" description="&lt;b&gt;arx31&lt;/b&gt;&lt;br&gt;LuxR family transcriptional regulator&lt;br&gt;Location: 27260 - 27943&lt;br&gt;&lt;br&gt;&lt;b&gt;BlastP hit with cds363443_364133&lt;/b&gt;&lt;br&gt;Percentage identity: 51&lt;br&gt;Percentage coverage: 95&lt;br&gt;BLAST bit score: 203&lt;br&gt;E-value: 4.7e-52" locus_tag="arx31" points="565,85 570,80 575,80 575,90 570,90 565,85 "  />
</g>
<g id="a1_0031"  >
<polygon style="fill:white; stroke-width:1; stroke:black; " id="dummy-1_h1_4_31" class="clusterblast-orf" description="&lt;b&gt;arx32&lt;/b&gt;&lt;br&gt;two-component system histidine kinase&lt;br&gt;Location: 27940 - 29121" locus_tag="arx32" points="575,85 580,80 594,80 594,90 580,90 575,85 "  />
</g>
<g id="a1_0032"  >
<polygon style="fill:white; stroke-width:1; stroke:black; " id="dummy-1_h1_4_32" class="clusterblast-orf" description="&lt;b&gt;arx33&lt;/b&gt;&lt;br&gt;F420-dependent reductase&lt;br&gt;Location: 29300 - 30136" locus_tag="arx33" points="596,90 604,90 609,85 604,80 596,80 596,90 "  />
</g>
<g id="a1_0033"  >
<polygon style="fill:white; stroke-width:1; stroke:black; " id="dummy-1_h1_4_33" class="clusterblast-orf" description="&lt;b&gt;arx34&lt;/b&gt;&lt;br&gt;putative methyltransferase&lt;br&gt;Location: 30183 - 31214" locus_tag="arx34" points="610,90 621,90 626,85 621,80 610,80 610,90 "  />
</g>
<g id="a1_0034"  >
<polygon style="fill:white; stroke-width:1; stroke:black; " id="dummy-1_h1_4_34" class="clusterblast-orf" description="&lt;b&gt;arx35&lt;/b&gt;&lt;br&gt;biotin carboxyl carrier protein&lt;br&gt;Location: 31436 - 31963" locus_tag="arx35" points="629,90 633,90 638,85 633,80 629,80 629,90 "  />
</g>
</svg>
