<svg xmlns:xlink="http://www.w3.org/1999/xlink" x="0" preserveAspectRatio="none" version="1.1" height="230" viewBox="0 0 800 230" y="0" xmlns="http://www.w3.org/2000/svg" width="800"  >
<g label="Query sequence" class="clusterblast-cluster"  >
<text class="clusterblast-acc" x="5" y="20"  >
Query sequence</text>
<line y2="35" x1="10" style="stroke-width:1; stroke:grey; " y1="35" x2="778.0"  />
<polygon style="fill:white; stroke-width:1; stroke:black; " id="dummy-1_q0_0_all" class="clusterblast-orf" description="&lt;b&gt;cds44170_44854&lt;/b&gt;&lt;br&gt;Uracil-DNA glycosylase, family 1 (EC 3.2.2.27)&lt;br&gt;Location: 44170 - 44854" locus_tag="cds44170_44854" points="0,40 4,40 9,35 4,30 0,30 0,40 "  />
<polygon style="fill:white; stroke-width:1; stroke:black; " id="dummy-1_q1_0_all" class="clusterblast-orf" description="&lt;b&gt;cds44967_45441&lt;/b&gt;&lt;br&gt;hypothetical protein&lt;br&gt;Location: 44967 - 45441" locus_tag="cds44967_45441" points="11,40 13,40 18,35 13,30 11,30 11,40 "  />
<polygon style="fill:white; stroke-width:1; stroke:black; " id="dummy-1_q2_0_all" class="clusterblast-orf" description="&lt;b&gt;cds45477_45600&lt;/b&gt;&lt;br&gt;putative lipoprotein&lt;br&gt;Location: 45477 - 45600" locus_tag="cds45477_45600" points="18,35 20,30 20,40 18,35 "  />
<polygon style="fill:white; stroke-width:1; stroke:black; " id="dummy-1_q3_0_all" class="clusterblast-orf" description="&lt;b&gt;cds45917_46070&lt;/b&gt;&lt;br&gt;hypothetical protein&lt;br&gt;Location: 45917 - 46070" locus_tag="cds45917_46070" points="24,35 27,30 27,40 24,35 "  />
<polygon style="fill:white; stroke-width:1; stroke:black; " id="dummy-1_q4_0_all" class="clusterblast-orf" description="&lt;b&gt;cds46112_46625&lt;/b&gt;&lt;br&gt;Protein of unknown function DUF664&lt;br&gt;Location: 46112 - 46625" locus_tag="cds46112_46625" points="27,35 32,30 35,30 35,40 32,40 27,35 "  />
<polygon style="fill:white; stroke-width:1; stroke:black; " id="dummy-1_q5_0_all" class="clusterblast-orf" description="&lt;b&gt;cds47597_49337&lt;/b&gt;&lt;br&gt;Apolipoprotein N-acyltransferase&lt;br&gt;Location: 47597 - 49337" locus_tag="cds47597_49337" points="48,35 53,30 73,30 73,40 53,40 48,35 "  />
<polygon style="fill:white; stroke-width:1; stroke:black; " id="dummy-1_q6_0_all" class="clusterblast-orf" description="&lt;b&gt;cds49466_49958&lt;/b&gt;&lt;br&gt;hypothetical protein&lt;br&gt;Location: 49466 - 49958" locus_tag="cds49466_49958" points="75,35 80,30 82,30 82,40 80,40 75,35 "  />
<polygon style="fill:white; stroke-width:1; stroke:black; " id="dummy-1_q7_0_all" class="clusterblast-orf" description="&lt;b&gt;cds50052_50922&lt;/b&gt;&lt;br&gt;Universal stress protein family&lt;br&gt;Location: 50052 - 50922" locus_tag="cds50052_50922" points="83,35 88,30 96,30 96,40 88,40 83,35 "  />
<polygon style="fill:white; stroke-width:1; stroke:black; " id="dummy-1_q8_0_all" class="clusterblast-orf" description="&lt;b&gt;cds50996_52010&lt;/b&gt;&lt;br&gt;hypothetical protein&lt;br&gt;Location: 50996 - 52010" locus_tag="cds50996_52010" points="97,35 102,30 111,30 111,40 102,40 97,35 "  />
<polygon style="fill:white; stroke-width:1; stroke:black; " id="dummy-1_q9_0_all" class="clusterblast-orf" description="&lt;b&gt;cds52231_52915&lt;/b&gt;&lt;br&gt;hypothetical protein&lt;br&gt;Location: 52231 - 52915" locus_tag="cds52231_52915" points="114,40 119,40 124,35 119,30 114,30 114,40 "  />
<polygon style="fill:white; stroke-width:1; stroke:black; " id="dummy-1_q10_0_all" class="clusterblast-orf" description="&lt;b&gt;cds53271_53910&lt;/b&gt;&lt;br&gt;RNA polymerase ECF-type sigma factor&lt;br&gt;Location: 53271 - 53910" locus_tag="cds53271_53910" points="129,40 133,40 138,35 133,30 129,30 129,40 "  />
<polygon style="fill:white; stroke-width:1; stroke:black; " id="dummy-1_q11_0_all" class="clusterblast-orf" description="&lt;b&gt;cds54033_55110&lt;/b&gt;&lt;br&gt;Pyridoxal-5'-phosphate-dependent enzyme beta superfamily (fold type II)&lt;br&gt;Location: 54033 - 55110" locus_tag="cds54033_55110" points="140,35 145,30 155,30 155,40 145,40 140,35 "  />
<polygon style="fill:white; stroke-width:1; stroke:black; " id="dummy-1_q12_0_all" class="clusterblast-orf" description="&lt;b&gt;cds55106_55433&lt;/b&gt;&lt;br&gt;Methyltransferase type 11&lt;br&gt;Location: 55106 - 55433" locus_tag="cds55106_55433" points="155,35 160,30 160,30 160,40 160,40 155,35 "  />
<polygon style="fill:white; stroke-width:1; stroke:black; " id="dummy-1_q13_0_all" class="clusterblast-orf" description="&lt;b&gt;cds55431_55596&lt;/b&gt;&lt;br&gt;hypothetical protein&lt;br&gt;Location: 55431 - 55596" locus_tag="cds55431_55596" points="160,40 162,35 160,30 160,40 "  />
<polygon style="fill:white; stroke-width:1; stroke:black; " id="dummy-1_q14_0_all" class="clusterblast-orf" description="&lt;b&gt;cds55679_55844&lt;/b&gt;&lt;br&gt;hypothetical protein&lt;br&gt;Location: 55679 - 55844" locus_tag="cds55679_55844" points="163,35 166,30 166,40 163,35 "  />
<polygon style="fill:white; stroke-width:1; stroke:black; " id="dummy-1_q15_0_all" class="clusterblast-orf" description="&lt;b&gt;cds55844_60032&lt;/b&gt;&lt;br&gt;Assimilatory nitrate reductase large subunit (EC 1.7.99.4)&lt;br&gt;Location: 55844 - 60032" locus_tag="cds55844_60032" points="166,40 220,40 225,35 220,30 166,30 166,40 "  />
<polygon style="fill:white; stroke-width:1; stroke:black; " id="dummy-1_q16_0_all" class="clusterblast-orf" description="&lt;b&gt;cds60060_60627&lt;/b&gt;&lt;br&gt;phosphotransferase (aminonucleoside antibiotic resistance)&lt;br&gt;Location: 60060 - 60627" locus_tag="cds60060_60627" points="226,40 229,40 234,35 229,30 226,30 226,40 "  />
<polygon style="fill:white; stroke-width:1; stroke:black; " id="dummy-1_q17_0_all" class="clusterblast-orf" description="&lt;b&gt;cds61052_62207&lt;/b&gt;&lt;br&gt;Isovaleryl-CoA dehydrogenase (EC 1.3.8.4)&lt;br&gt;Location: 61052 - 62207" locus_tag="cds61052_62207" points="240,35 245,30 256,30 256,40 245,40 240,35 "  />
<polygon style="fill:white; stroke-width:1; stroke:black; " id="dummy-1_q18_0_all" class="clusterblast-orf" description="&lt;b&gt;cds62203_62953&lt;/b&gt;&lt;br&gt;Aspartate racemase (EC 5.1.1.13)&lt;br&gt;Location: 62203 - 62953" locus_tag="cds62203_62953" points="256,35 261,30 267,30 267,40 261,40 256,35 "  />
<polygon style="fill:white; stroke-width:1; stroke:black; " id="dummy-1_q19_0_all" class="clusterblast-orf" description="&lt;b&gt;cds62949_65391&lt;/b&gt;&lt;br&gt;hypothetical protein&lt;br&gt;Location: 62949 - 65391" locus_tag="cds62949_65391" points="267,35 272,30 301,30 301,40 272,40 267,35 "  />
<polygon style="fill:white; stroke-width:1; stroke:black; " id="dummy-1_q20_0_all" class="clusterblast-orf" description="&lt;b&gt;cds65392_67207&lt;/b&gt;&lt;br&gt;hypothetical protein&lt;br&gt;Location: 65392 - 67207" locus_tag="cds65392_67207" points="301,35 306,30 327,30 327,40 306,40 301,35 "  />
<polygon style="fill:white; stroke-width:1; stroke:black; " id="dummy-1_q21_0_all" class="clusterblast-orf" description="&lt;b&gt;cds67237_69097&lt;/b&gt;&lt;br&gt;Asparagine synthetase [glutamine-hydrolyzing] (EC 6.3.5.4)&lt;br&gt;Location: 67237 - 69097" locus_tag="cds67237_69097" points="328,35 333,30 354,30 354,40 333,40 328,35 "  />
<polygon style="fill:#d81515; stroke-width:1; stroke:black; " id="dummy-1_q22_0_all" class="clusterblast-orf" description="&lt;b&gt;cds69112_73024&lt;/b&gt;&lt;br&gt;Polyketide synthase modules and related proteins&lt;br&gt;Location: 69112 - 73024" locus_tag="cds69112_73024" points="354,35 359,30 410,30 410,40 359,40 354,35 "  />
<polygon style="fill:#d81515; stroke-width:1; stroke:black; " id="dummy-1_q23_0_all" class="clusterblast-orf" description="&lt;b&gt;cds73088_79454&lt;/b&gt;&lt;br&gt;Polyketide synthase modules and related proteins&lt;br&gt;Location: 73088 - 79454" locus_tag="cds73088_79454" points="411,35 416,30 502,30 502,40 416,40 411,35 "  />
<polygon style="fill:white; stroke-width:1; stroke:black; " id="dummy-1_q24_0_all" class="clusterblast-orf" description="&lt;b&gt;cds79518_79647&lt;/b&gt;&lt;br&gt;hypothetical protein&lt;br&gt;Location: 79518 - 79647" locus_tag="cds79518_79647" points="502,35 504,30 504,40 502,35 "  />
<polygon style="fill:#4dd815; stroke-width:1; stroke:black; " id="dummy-1_q25_0_all" class="clusterblast-orf" description="&lt;b&gt;cds79654_79861&lt;/b&gt;&lt;br&gt;MbtH-like NRPS chaperone&lt;br&gt;Location: 79654 - 79861" locus_tag="cds79654_79861" points="504,35 507,30 507,40 504,35 "  />
<polygon style="fill:white; stroke-width:1; stroke:black; " id="dummy-1_q26_0_all" class="clusterblast-orf" description="&lt;b&gt;cds80003_81119&lt;/b&gt;&lt;br&gt;l-arginine:glycine amidinotransferase&lt;br&gt;Location: 80003 - 81119" locus_tag="cds80003_81119" points="509,35 514,30 525,30 525,40 514,40 509,35 "  />
<polygon style="fill:white; stroke-width:1; stroke:black; " id="dummy-1_q27_0_all" class="clusterblast-orf" description="&lt;b&gt;cds81144_81294&lt;/b&gt;&lt;br&gt;hypothetical protein&lt;br&gt;Location: 81144 - 81294" locus_tag="cds81144_81294" points="526,40 528,35 526,30 526,40 "  />
<polygon style="fill:white; stroke-width:1; stroke:black; " id="dummy-1_q28_0_all" class="clusterblast-orf" description="&lt;b&gt;cds81395_81554&lt;/b&gt;&lt;br&gt;hypothetical protein&lt;br&gt;Location: 81395 - 81554" locus_tag="cds81395_81554" points="529,40 531,35 529,30 529,40 "  />
<polygon style="fill:white; stroke-width:1; stroke:black; " id="dummy-1_q29_0_all" class="clusterblast-orf" description="&lt;b&gt;cds81579_82578&lt;/b&gt;&lt;br&gt;hypothetical protein&lt;br&gt;Location: 81579 - 82578" locus_tag="cds81579_82578" points="532,40 541,40 546,35 541,30 532,30 532,40 "  />
<polygon style="fill:#1585d8; stroke-width:1; stroke:black; " id="dummy-1_q30_0_all" class="clusterblast-orf" description="&lt;b&gt;cds82628_83120&lt;/b&gt;&lt;br&gt;hypothetical protein&lt;br&gt;Location: 82628 - 83120" locus_tag="cds82628_83120" points="547,40 549,40 554,35 549,30 547,30 547,40 "  />
<polygon style="fill:#d815bc; stroke-width:1; stroke:black; " id="dummy-1_q31_0_all" class="clusterblast-orf" description="&lt;b&gt;cds83116_84067&lt;/b&gt;&lt;br&gt;hypothetical protein&lt;br&gt;Location: 83116 - 84067" locus_tag="cds83116_84067" points="554,40 562,40 567,35 562,30 554,30 554,40 "  />
<polygon style="fill:#d8bc15; stroke-width:1; stroke:black; " id="dummy-1_q32_0_all" class="clusterblast-orf" description="&lt;b&gt;cds84063_84966&lt;/b&gt;&lt;br&gt;Coenzyme F420-dependent N5,N10-methylene tetrahydromethanopterin reductase and related flavin-dependent oxidoreductases&lt;br&gt;Location: 84063 - 84966" locus_tag="cds84063_84966" points="567,40 575,40 580,35 575,30 567,30 567,40 "  />
<polygon style="fill:#15d885; stroke-width:1; stroke:black; " id="dummy-1_q33_0_all" class="clusterblast-orf" description="&lt;b&gt;cds84962_85829&lt;/b&gt;&lt;br&gt;hypothetical protein&lt;br&gt;Location: 84962 - 85829" locus_tag="cds84962_85829" points="580,40 587,40 592,35 587,30 580,30 580,40 "  />
<polygon style="fill:#4d15d8; stroke-width:1; stroke:black; " id="dummy-1_q34_0_all" class="clusterblast-orf" description="&lt;b&gt;cds85850_87641&lt;/b&gt;&lt;br&gt;Gamma-glutamyltranspeptidase (EC 2.3.2.2) @ Glutathione hydrolase (EC 3.4.19.13)&lt;br&gt;Location: 85850 - 87641" locus_tag="cds85850_87641" points="592,40 613,40 618,35 613,30 592,30 592,40 "  />
<polygon style="fill:white; stroke-width:1; stroke:black; " id="dummy-1_q35_0_all" class="clusterblast-orf" description="&lt;b&gt;cds87825_88854&lt;/b&gt;&lt;br&gt;hypothetical protein&lt;br&gt;Location: 87825 - 88854" locus_tag="cds87825_88854" points="621,40 630,40 635,35 630,30 621,30 621,40 "  />
<polygon style="fill:white; stroke-width:1; stroke:black; " id="dummy-1_q36_0_all" class="clusterblast-orf" description="&lt;b&gt;cds88858_89155&lt;/b&gt;&lt;br&gt;hypothetical protein&lt;br&gt;Location: 88858 - 89155" locus_tag="cds88858_89155" points="635,40 639,35 635,30 635,40 "  />
<polygon style="fill:white; stroke-width:1; stroke:black; " id="dummy-1_q37_0_all" class="clusterblast-orf" description="&lt;b&gt;cds89183_90464&lt;/b&gt;&lt;br&gt;hypothetical protein&lt;br&gt;Location: 89183 - 90464" locus_tag="cds89183_90464" points="640,40 653,40 658,35 653,30 640,30 640,40 "  />
<polygon style="fill:white; stroke-width:1; stroke:black; " id="dummy-1_q38_0_all" class="clusterblast-orf" description="&lt;b&gt;cds90768_91641&lt;/b&gt;&lt;br&gt;Undecaprenyl-diphosphatase (EC 3.6.1.27)&lt;br&gt;Location: 90768 - 91641" locus_tag="cds90768_91641" points="662,35 667,30 675,30 675,40 667,40 662,35 "  />
<polygon style="fill:white; stroke-width:1; stroke:black; " id="dummy-1_q39_0_all" class="clusterblast-orf" description="&lt;b&gt;cds91810_92533&lt;/b&gt;&lt;br&gt;Integral membrane protein&lt;br&gt;Location: 91810 - 92533" locus_tag="cds91810_92533" points="677,35 682,30 688,30 688,40 682,40 677,35 "  />
<polygon style="fill:white; stroke-width:1; stroke:black; " id="dummy-1_q40_0_all" class="clusterblast-orf" description="&lt;b&gt;cds92555_93308&lt;/b&gt;&lt;br&gt;DNA alkylation repair enzyme&lt;br&gt;Location: 92555 - 93308" locus_tag="cds92555_93308" points="688,40 694,40 699,35 694,30 688,30 688,40 "  />
<polygon style="fill:white; stroke-width:1; stroke:black; " id="dummy-1_q41_0_all" class="clusterblast-orf" description="&lt;b&gt;cds93385_93694&lt;/b&gt;&lt;br&gt;hypothetical protein&lt;br&gt;Location: 93385 - 93694" locus_tag="cds93385_93694" points="700,35 704,30 704,40 700,35 "  />
<polygon style="fill:white; stroke-width:1; stroke:black; " id="dummy-1_q42_0_all" class="clusterblast-orf" description="&lt;b&gt;cds93658_94834&lt;/b&gt;&lt;br&gt;Translation elongation factor Tu&lt;br&gt;Location: 93658 - 94834" locus_tag="cds93658_94834" points="704,40 715,40 720,35 715,30 704,30 704,40 "  />
<polygon style="fill:white; stroke-width:1; stroke:black; " id="dummy-1_q43_0_all" class="clusterblast-orf" description="&lt;b&gt;cds94867_95743&lt;/b&gt;&lt;br&gt;hypothetical protein&lt;br&gt;Location: 94867 - 95743" locus_tag="cds94867_95743" points="721,40 728,40 733,35 728,30 721,30 721,40 "  />
<polygon style="fill:white; stroke-width:1; stroke:black; " id="dummy-1_q44_0_all" class="clusterblast-orf" description="&lt;b&gt;cds95800_96898&lt;/b&gt;&lt;br&gt;hypothetical protein&lt;br&gt;Location: 95800 - 96898" locus_tag="cds95800_96898" points="734,35 739,30 750,30 750,40 739,40 734,35 "  />
<polygon style="fill:white; stroke-width:1; stroke:black; " id="dummy-1_q45_0_all" class="clusterblast-orf" description="&lt;b&gt;cds97019_97457&lt;/b&gt;&lt;br&gt;Acyl-coenzyme A thioesterase PaaD (Pse.pu.) (E. coli PaaI)&lt;br&gt;Location: 97019 - 97457" locus_tag="cds97019_97457" points="751,40 753,40 758,35 753,30 751,30 751,40 "  />
<polygon style="fill:white; stroke-width:1; stroke:black; " id="dummy-1_q46_0_all" class="clusterblast-orf" description="&lt;b&gt;cds97568_98099&lt;/b&gt;&lt;br&gt;Carbonic anhydrase-like protein MJ0304&lt;br&gt;Location: 97568 - 98099" locus_tag="cds97568_98099" points="759,35 764,30 767,30 767,40 764,40 759,35 "  />
<polygon style="fill:white; stroke-width:1; stroke:black; " id="dummy-1_q47_0_all" class="clusterblast-orf" description="&lt;b&gt;cds98196_99009&lt;/b&gt;&lt;br&gt;putative sugar acetyltransferase&lt;br&gt;Location: 98196 - 99009" locus_tag="cds98196_99009" points="768,40 775,40 780,35 775,30 768,30 768,40 "  />
</g>
<g label="BGC0001967" class="clusterblast-cluster" description="BGC0001967_c1: acyldepsipeptide 1 (10% of genes show similarity), NRP"  >
<text class="clusterblast-acc" x="5" y="70"  >
<a xlink:href="https://mibig.secondarymetabolites.org/go/BGC0001967/1" target="_blank">BGC0001967</a>:                                                               acyldepsipeptide 1 (10% of genes show similarity), NRP</text>
<line y2="85" x1="10" style="stroke-width:1; stroke:grey; " y1="85" x2="778.0"  />
</g>
<g id="a1_000"  >
<polygon style="fill:white; stroke-width:1; stroke:black; " id="dummy-1_h1_10_0" class="clusterblast-orf" description="&lt;b&gt;QED88063.1&lt;/b&gt;&lt;br&gt;ClpPADEP&lt;br&gt;Location: 36333 - 35713" locus_tag="QED88063.1" points="133,85 138,80 142,80 142,90 138,90 133,85 "  />
</g>
<g id="a1_001"  >
<polygon style="fill:white; stroke-width:1; stroke:black; " id="dummy-1_h1_10_1" class="clusterblast-orf" description="&lt;b&gt;QED88062.1&lt;/b&gt;&lt;br&gt;hypothetical protein&lt;br&gt;Location: 35069 - 34464" locus_tag="QED88062.1" points="151,90 155,90 160,85 155,80 151,80 151,90 "  />
</g>
<g id="a1_002"  >
<polygon style="fill:white; stroke-width:1; stroke:black; " id="dummy-1_h1_10_2" class="clusterblast-orf" description="&lt;b&gt;QED88061.1&lt;/b&gt;&lt;br&gt;transposase&lt;br&gt;Location: 34443 - 34138" locus_tag="QED88061.1" points="160,85 164,80 164,90 160,85 "  />
</g>
<g id="a1_003"  >
<polygon style="fill:white; stroke-width:1; stroke:black; " id="dummy-1_h1_10_3" class="clusterblast-orf" description="&lt;b&gt;QED88060.1&lt;/b&gt;&lt;br&gt;transposase&lt;br&gt;Location: 33627 - 33112" locus_tag="QED88060.1" points="172,85 177,80 179,80 179,90 177,90 172,85 "  />
</g>
<g id="a1_004"  >
<polygon style="fill:white; stroke-width:1; stroke:black; " id="dummy-1_h1_10_4" class="clusterblast-orf" description="&lt;b&gt;QED88059.1&lt;/b&gt;&lt;br&gt;transposase&lt;br&gt;Location: 32742 - 32164" locus_tag="QED88059.1" points="184,90 188,90 193,85 188,80 184,80 184,90 "  />
</g>
<g id="a1_005"  >
<polygon style="fill:white; stroke-width:1; stroke:black; " id="dummy-1_h1_10_5" class="clusterblast-orf" description="&lt;b&gt;QED88058.1&lt;/b&gt;&lt;br&gt;hypothetical protein&lt;br&gt;Location: 32076 - 31807" locus_tag="QED88058.1" points="194,85 198,80 198,90 194,85 "  />
</g>
<g id="a1_006"  >
<polygon style="fill:white; stroke-width:1; stroke:black; " id="dummy-1_h1_10_6" class="clusterblast-orf" description="&lt;b&gt;QED88057.1&lt;/b&gt;&lt;br&gt;transposase&lt;br&gt;Location: 31676 - 30990" locus_tag="QED88057.1" points="199,85 204,80 209,80 209,90 204,90 199,85 "  />
</g>
<g id="a1_007"  >
<polygon style="fill:white; stroke-width:1; stroke:black; " id="dummy-1_h1_10_7" class="clusterblast-orf" description="&lt;b&gt;QED88056.1&lt;/b&gt;&lt;br&gt;MbtH-like protein&lt;br&gt;Location: 30871 - 30635" locus_tag="QED88056.1" points="211,85 214,80 214,90 211,85 "  />
</g>
<g id="a1_008"  >
<polygon style="fill:#d81515; stroke-width:1; stroke:black; " id="dummy-1_h1_10_8" class="clusterblast-orf" description="&lt;b&gt;QED88055.1&lt;/b&gt;&lt;br&gt;nonribosomal peptide synthetase&lt;br&gt;Location: 30604 - 23462&lt;br&gt;&lt;br&gt;&lt;b&gt;BlastP hit with cds69112_73024&lt;/b&gt;&lt;br&gt;Percentage identity: 49&lt;br&gt;Percentage coverage: 85&lt;br&gt;BLAST bit score: 925&lt;br&gt;E-value: 7.8e-269&lt;br&gt;&lt;br&gt;&lt;b&gt;BlastP hit with cds73088_79454&lt;/b&gt;&lt;br&gt;Percentage identity: 46&lt;br&gt;Percentage coverage: 101&lt;br&gt;BLAST bit score: 1566&lt;br&gt;E-value: 0.0" locus_tag="QED88055.1" points="215,85 220,80 316,80 316,90 220,90 215,85 "  />
</g>
<g id="a1_009"  >
<polygon style="fill:#d81515; stroke-width:1; stroke:black; " id="dummy-1_h1_10_9" class="clusterblast-orf" description="&lt;b&gt;QED88054.1&lt;/b&gt;&lt;br&gt;nonribosomal peptide synthetase&lt;br&gt;Location: 23465 - 9456&lt;br&gt;&lt;br&gt;&lt;b&gt;BlastP hit with cds69112_73024&lt;/b&gt;&lt;br&gt;Percentage identity: 49&lt;br&gt;Percentage coverage: 71&lt;br&gt;BLAST bit score: 783&lt;br&gt;E-value: 4.8e-226&lt;br&gt;&lt;br&gt;&lt;b&gt;BlastP hit with cds73088_79454&lt;/b&gt;&lt;br&gt;Percentage identity: 46&lt;br&gt;Percentage coverage: 100&lt;br&gt;BLAST bit score: 1644&lt;br&gt;E-value: 0.0" locus_tag="QED88054.1" points="316,85 321,80 515,80 515,90 321,90 316,85 "  />
</g>
<g id="a1_0010"  >
<polygon style="fill:white; stroke-width:1; stroke:black; " id="dummy-1_h1_10_10" class="clusterblast-orf" description="&lt;b&gt;QED88053.1&lt;/b&gt;&lt;br&gt;3-oxoacyl-ACP reductase&lt;br&gt;Location: 9420 - 8635" locus_tag="QED88053.1" points="516,85 521,80 527,80 527,90 521,90 516,85 "  />
</g>
<g id="a1_0011"  >
<polygon style="fill:white; stroke-width:1; stroke:black; " id="dummy-1_h1_10_11" class="clusterblast-orf" description="&lt;b&gt;QED88052.1&lt;/b&gt;&lt;br&gt;3-oxoacyl-ACP synthase beta&lt;br&gt;Location: 8638 - 7517" locus_tag="QED88052.1" points="527,85 532,80 543,80 543,90 532,90 527,85 "  />
</g>
<g id="a1_0012"  >
<polygon style="fill:white; stroke-width:1; stroke:black; " id="dummy-1_h1_10_12" class="clusterblast-orf" description="&lt;b&gt;QED88051.1&lt;/b&gt;&lt;br&gt;3-oxoacyl-ACP synthase alpha&lt;br&gt;Location: 7520 - 6258" locus_tag="QED88051.1" points="543,85 548,80 561,80 561,90 548,90 543,85 "  />
</g>
<g id="a1_0013"  >
<polygon style="fill:white; stroke-width:1; stroke:black; " id="dummy-1_h1_10_13" class="clusterblast-orf" description="&lt;b&gt;QED88050.1&lt;/b&gt;&lt;br&gt;acyl carrier protein&lt;br&gt;Location: 6218 - 5958" locus_tag="QED88050.1" points="562,85 565,80 565,90 562,85 "  />
</g>
<g id="a1_0014"  >
<polygon style="fill:white; stroke-width:1; stroke:black; " id="dummy-1_h1_10_14" class="clusterblast-orf" description="&lt;b&gt;QED88049.1&lt;/b&gt;&lt;br&gt;alcohol dehydrogenase&lt;br&gt;Location: 5329 - 4214" locus_tag="QED88049.1" points="574,85 579,80 590,80 590,90 579,90 574,85 "  />
</g>
<g id="a1_0015"  >
<polygon style="fill:white; stroke-width:1; stroke:black; " id="dummy-1_h1_10_15" class="clusterblast-orf" description="&lt;b&gt;QED88048.1&lt;/b&gt;&lt;br&gt;leucine hydroxylase&lt;br&gt;Location: 4217 - 3393" locus_tag="QED88048.1" points="590,85 595,80 602,80 602,90 595,90 590,85 "  />
</g>
<g id="a1_0016"  >
<polygon style="fill:white; stroke-width:1; stroke:black; " id="dummy-1_h1_10_16" class="clusterblast-orf" description="&lt;b&gt;QED88047.1&lt;/b&gt;&lt;br&gt;putative XRE family transcriptional regulator&lt;br&gt;Location: 2717 - 2211" locus_tag="QED88047.1" points="611,90 614,90 619,85 614,80 611,80 611,90 "  />
</g>
<g id="a1_0017"  >
<polygon style="fill:white; stroke-width:1; stroke:black; " id="dummy-1_h1_10_17" class="clusterblast-orf" description="&lt;b&gt;QED88046.1&lt;/b&gt;&lt;br&gt;putative regulator component&lt;br&gt;Location: 1971 - 1450" locus_tag="QED88046.1" points="622,90 624,90 629,85 624,80 622,80 622,90 "  />
</g>
<g id="a1_0018"  >
<polygon style="fill:white; stroke-width:1; stroke:black; " id="dummy-1_h1_10_18" class="clusterblast-orf" description="&lt;b&gt;QED88045.1&lt;/b&gt;&lt;br&gt;putative regulator component&lt;br&gt;Location: 1463 - 297" locus_tag="QED88045.1" points="629,90 641,90 646,85 641,80 629,80 629,90 "  />
</g>
</svg>
