<svg xmlns:xlink="http://www.w3.org/1999/xlink" x="0" preserveAspectRatio="none" version="1.1" height="230" viewBox="0 0 800 230" y="0" xmlns="http://www.w3.org/2000/svg" width="800"  >
<g label="Query sequence" class="clusterblast-cluster"  >
<text class="clusterblast-acc" x="5" y="20"  >
Query sequence</text>
<line y2="35" x1="10" style="stroke-width:1; stroke:grey; " y1="35" x2="778.0"  />
<polygon style="fill:white; stroke-width:1; stroke:black; " id="dummy-2_q0_0_all" class="clusterblast-orf" description="&lt;b&gt;cds179906_180311&lt;/b&gt;&lt;br&gt;Integral membrane protein&lt;br&gt;Location: 179906 - 180311" locus_tag="cds179906_180311" points="0,35 5,30 7,30 7,40 5,40 0,35 "  />
<polygon style="fill:white; stroke-width:1; stroke:black; " id="dummy-2_q1_0_all" class="clusterblast-orf" description="&lt;b&gt;cds180346_180856&lt;/b&gt;&lt;br&gt;Putative MutT-family protein&lt;br&gt;Location: 180346 - 180856" locus_tag="cds180346_180856" points="7,35 12,30 16,30 16,40 12,40 7,35 "  />
<polygon style="fill:white; stroke-width:1; stroke:black; " id="dummy-2_q2_0_all" class="clusterblast-orf" description="&lt;b&gt;cds180953_181853&lt;/b&gt;&lt;br&gt;hypothetical protein&lt;br&gt;Location: 180953 - 181853" locus_tag="cds180953_181853" points="18,35 23,30 34,30 34,40 23,40 18,35 "  />
<polygon style="fill:white; stroke-width:1; stroke:black; " id="dummy-2_q3_0_all" class="clusterblast-orf" description="&lt;b&gt;cds181849_182863&lt;/b&gt;&lt;br&gt;NrtR-regulated hypothetical OrfX&lt;br&gt;Location: 181849 - 182863" locus_tag="cds181849_182863" points="34,35 39,30 51,30 51,40 39,40 34,35 "  />
<polygon style="fill:white; stroke-width:1; stroke:black; " id="dummy-2_q4_0_all" class="clusterblast-orf" description="&lt;b&gt;cds182931_183723&lt;/b&gt;&lt;br&gt;Oxidoreductase, short-chain dehydrogenase/reductase family&lt;br&gt;Location: 182931 - 183723" locus_tag="cds182931_183723" points="52,35 57,30 66,30 66,40 57,40 52,35 "  />
<polygon style="fill:white; stroke-width:1; stroke:black; " id="dummy-2_q5_0_all" class="clusterblast-orf" description="&lt;b&gt;cds183912_184542&lt;/b&gt;&lt;br&gt;Transcriptional regulator, AcrR family&lt;br&gt;Location: 183912 - 184542" locus_tag="cds183912_184542" points="70,35 75,30 81,30 81,40 75,40 70,35 "  />
<polygon style="fill:white; stroke-width:1; stroke:black; " id="dummy-2_q6_0_all" class="clusterblast-orf" description="&lt;b&gt;cds184704_185580&lt;/b&gt;&lt;br&gt;hypothetical protein&lt;br&gt;Location: 184704 - 185580" locus_tag="cds184704_185580" points="83,40 94,40 99,35 94,30 83,30 83,40 "  />
<polygon style="fill:white; stroke-width:1; stroke:black; " id="dummy-2_q7_0_all" class="clusterblast-orf" description="&lt;b&gt;cds185576_186554&lt;/b&gt;&lt;br&gt;Integral membrane protein&lt;br&gt;Location: 185576 - 186554" locus_tag="cds185576_186554" points="99,40 111,40 116,35 111,30 99,30 99,40 "  />
<polygon style="fill:white; stroke-width:1; stroke:black; " id="dummy-2_q8_0_all" class="clusterblast-orf" description="&lt;b&gt;cds186644_187178&lt;/b&gt;&lt;br&gt;Transcriptional regulator, PadR family&lt;br&gt;Location: 186644 - 187178" locus_tag="cds186644_187178" points="117,35 122,30 127,30 127,40 122,40 117,35 "  />
<polygon style="fill:white; stroke-width:1; stroke:black; " id="dummy-2_q9_0_all" class="clusterblast-orf" description="&lt;b&gt;cds187225_189241&lt;/b&gt;&lt;br&gt;2,4-dienoyl-CoA reductase [NADPH] (EC 1.3.1.34)&lt;br&gt;Location: 187225 - 189241" locus_tag="cds187225_189241" points="127,35 132,30 163,30 163,40 132,40 127,35 "  />
<polygon style="fill:white; stroke-width:1; stroke:black; " id="dummy-2_q10_0_all" class="clusterblast-orf" description="&lt;b&gt;cds189313_189490&lt;/b&gt;&lt;br&gt;hypothetical protein&lt;br&gt;Location: 189313 - 189490" locus_tag="cds189313_189490" points="164,40 167,35 164,30 164,40 "  />
<polygon style="fill:white; stroke-width:1; stroke:black; " id="dummy-2_q11_0_all" class="clusterblast-orf" description="&lt;b&gt;cds189467_189995&lt;/b&gt;&lt;br&gt;Membrane protein, distant similarity to thiosulphate:quinone oxidoreductase DoxD&lt;br&gt;Location: 189467 - 189995" locus_tag="cds189467_189995" points="167,40 171,40 176,35 171,30 167,30 167,40 "  />
<polygon style="fill:white; stroke-width:1; stroke:black; " id="dummy-2_q12_0_all" class="clusterblast-orf" description="&lt;b&gt;cds189994_190567&lt;/b&gt;&lt;br&gt;Integral membrane protein&lt;br&gt;Location: 189994 - 190567" locus_tag="cds189994_190567" points="176,40 181,40 186,35 181,30 176,30 176,40 "  />
<polygon style="fill:white; stroke-width:1; stroke:black; " id="dummy-2_q13_0_all" class="clusterblast-orf" description="&lt;b&gt;cds190584_192672&lt;/b&gt;&lt;br&gt;transporter, MMPL family&lt;br&gt;Location: 190584 - 192672" locus_tag="cds190584_192672" points="186,35 191,30 222,30 222,40 191,40 186,35 "  />
<polygon style="fill:white; stroke-width:1; stroke:black; " id="dummy-2_q14_0_all" class="clusterblast-orf" description="&lt;b&gt;cds192811_193312&lt;/b&gt;&lt;br&gt;Transcriptional regulator, MarR family&lt;br&gt;Location: 192811 - 193312" locus_tag="cds192811_193312" points="225,35 230,30 234,30 234,40 230,40 225,35 "  />
<polygon style="fill:white; stroke-width:1; stroke:black; " id="dummy-2_q15_0_all" class="clusterblast-orf" description="&lt;b&gt;cds193356_193935&lt;/b&gt;&lt;br&gt;hypothetical protein&lt;br&gt;Location: 193356 - 193935" locus_tag="cds193356_193935" points="234,35 239,30 245,30 245,40 239,40 234,35 "  />
<polygon style="fill:white; stroke-width:1; stroke:black; " id="dummy-2_q16_0_all" class="clusterblast-orf" description="&lt;b&gt;cds194186_194963&lt;/b&gt;&lt;br&gt;hypothetical protein&lt;br&gt;Location: 194186 - 194963" locus_tag="cds194186_194963" points="249,40 257,40 262,35 257,30 249,30 249,40 "  />
<polygon style="fill:white; stroke-width:1; stroke:black; " id="dummy-2_q17_0_all" class="clusterblast-orf" description="&lt;b&gt;cds194947_195490&lt;/b&gt;&lt;br&gt;hypothetical protein&lt;br&gt;Location: 194947 - 195490" locus_tag="cds194947_195490" points="262,35 267,30 272,30 272,40 267,40 262,35 "  />
<polygon style="fill:white; stroke-width:1; stroke:black; " id="dummy-2_q18_0_all" class="clusterblast-orf" description="&lt;b&gt;cds195632_196589&lt;/b&gt;&lt;br&gt;Transcriptional regulator&lt;br&gt;Location: 195632 - 196589" locus_tag="cds195632_196589" points="274,40 286,40 291,35 286,30 274,30 274,40 "  />
<polygon style="fill:white; stroke-width:1; stroke:black; " id="dummy-2_q19_0_all" class="clusterblast-orf" description="&lt;b&gt;cds196624_196900&lt;/b&gt;&lt;br&gt;Cysteine desulfurase (EC 2.8.1.7)&lt;br&gt;Location: 196624 - 196900" locus_tag="cds196624_196900" points="291,35 296,30 296,30 296,40 296,40 291,35 "  />
<polygon style="fill:#d81515; stroke-width:1; stroke:black; " id="dummy-2_q20_0_all" class="clusterblast-orf" description="&lt;b&gt;cds197418_198360&lt;/b&gt;&lt;br&gt;Fatty acid hydroxylase family (carotene hydroxylase/sterol desaturase)&lt;br&gt;Location: 197418 - 198360" locus_tag="cds197418_198360" points="305,40 317,40 322,35 317,30 305,30 305,40 "  />
<polygon style="fill:#15d863; stroke-width:1; stroke:black; " id="dummy-2_q21_0_all" class="clusterblast-orf" description="&lt;b&gt;cds198419_207842&lt;/b&gt;&lt;br&gt;Capsular polysaccharide biosynthesis fatty acid synthase WcbR&lt;br&gt;Location: 198419 - 207842" locus_tag="cds198419_207842" points="323,40 482,40 487,35 482,30 323,30 323,40 "  />
<polygon style="fill:#1563d8; stroke-width:1; stroke:black; " id="dummy-2_q22_0_all" class="clusterblast-orf" description="&lt;b&gt;cds207831_209541&lt;/b&gt;&lt;br&gt;putative FAD-dependent oxidoreductase&lt;br&gt;Location: 207831 - 209541" locus_tag="cds207831_209541" points="487,40 512,40 517,35 512,30 487,30 487,40 "  />
<polygon style="fill:#1563d8; stroke-width:1; stroke:black; " id="dummy-2_q23_0_all" class="clusterblast-orf" description="&lt;b&gt;cds209537_211259&lt;/b&gt;&lt;br&gt;putative FAD-dependent oxidoreductase&lt;br&gt;Location: 209537 - 211259" locus_tag="cds209537_211259" points="517,40 542,40 547,35 542,30 517,30 517,40 "  />
<polygon style="fill:#b115d8; stroke-width:1; stroke:black; " id="dummy-2_q24_0_all" class="clusterblast-orf" description="&lt;b&gt;cds211255_212311&lt;/b&gt;&lt;br&gt;Putative oxidoreductase&lt;br&gt;Location: 211255 - 212311" locus_tag="cds211255_212311" points="547,40 560,40 565,35 560,30 547,30 547,40 "  />
<polygon style="fill:#b1d815; stroke-width:1; stroke:black; " id="dummy-2_q25_0_all" class="clusterblast-orf" description="&lt;b&gt;cds212364_213561&lt;/b&gt;&lt;br&gt;putative cytochrome P450&lt;br&gt;Location: 212364 - 213561" locus_tag="cds212364_213561" points="566,40 582,40 587,35 582,30 566,30 566,40 "  />
<polygon style="fill:white; stroke-width:1; stroke:black; " id="dummy-2_q26_0_all" class="clusterblast-orf" description="&lt;b&gt;cds213584_214799&lt;/b&gt;&lt;br&gt;Mannonate dehydratase (EC 4.2.1.8)&lt;br&gt;Location: 213584 - 214799" locus_tag="cds213584_214799" points="587,35 592,30 609,30 609,40 592,40 587,35 "  />
<polygon style="fill:white; stroke-width:1; stroke:black; " id="dummy-2_q27_0_all" class="clusterblast-orf" description="&lt;b&gt;cds215091_215889&lt;/b&gt;&lt;br&gt;Transcriptional regulator, GntR family&lt;br&gt;Location: 215091 - 215889" locus_tag="cds215091_215889" points="614,35 619,30 628,30 628,40 619,40 614,35 "  />
<polygon style="fill:white; stroke-width:1; stroke:black; " id="dummy-2_q28_0_all" class="clusterblast-orf" description="&lt;b&gt;cds215975_217160&lt;/b&gt;&lt;br&gt;Spore photoproduct lyase (EC 4.1.99.14)&lt;br&gt;Location: 215975 - 217160" locus_tag="cds215975_217160" points="629,35 634,30 650,30 650,40 634,40 629,35 "  />
<polygon style="fill:white; stroke-width:1; stroke:black; " id="dummy-2_q29_0_all" class="clusterblast-orf" description="&lt;b&gt;cds217312_218185&lt;/b&gt;&lt;br&gt;Chitinase (EC 3.2.1.14)&lt;br&gt;Location: 217312 - 218185" locus_tag="cds217312_218185" points="653,35 658,30 668,30 668,40 658,40 653,35 "  />
<polygon style="fill:white; stroke-width:1; stroke:black; " id="dummy-2_q30_0_all" class="clusterblast-orf" description="&lt;b&gt;cds218493_218898&lt;/b&gt;&lt;br&gt;hypothetical protein&lt;br&gt;Location: 218493 - 218898" locus_tag="cds218493_218898" points="673,40 675,40 680,35 675,30 673,30 673,40 "  />
<polygon style="fill:white; stroke-width:1; stroke:black; " id="dummy-2_q31_0_all" class="clusterblast-orf" description="&lt;b&gt;cds219082_219835&lt;/b&gt;&lt;br&gt;hypothetical protein&lt;br&gt;Location: 219082 - 219835" locus_tag="cds219082_219835" points="683,35 688,30 697,30 697,40 688,40 683,35 "  />
<polygon style="fill:white; stroke-width:1; stroke:black; " id="dummy-2_q32_0_all" class="clusterblast-orf" description="&lt;b&gt;cds220469_221606&lt;/b&gt;&lt;br&gt;hypothetical protein&lt;br&gt;Location: 220469 - 221606" locus_tag="cds220469_221606" points="708,40 722,40 727,35 722,30 708,30 708,40 "  />
<polygon style="fill:white; stroke-width:1; stroke:black; " id="dummy-2_q33_0_all" class="clusterblast-orf" description="&lt;b&gt;cds221970_223833&lt;/b&gt;&lt;br&gt;hypothetical protein&lt;br&gt;Location: 221970 - 223833" locus_tag="cds221970_223833" points="734,35 739,30 766,30 766,40 739,40 734,35 "  />
<polygon style="fill:white; stroke-width:1; stroke:black; " id="dummy-2_q34_0_all" class="clusterblast-orf" description="&lt;b&gt;cds224311_224596&lt;/b&gt;&lt;br&gt;hypothetical protein&lt;br&gt;Location: 224311 - 224596" locus_tag="cds224311_224596" points="775,40 775,40 780,35 775,30 775,30 775,40 "  />
</g>
<g label="BGC0000666" class="clusterblast-cluster" description="BGC0000666_c1: xiamycin A (9% of genes show similarity), Terpene"  >
<text class="clusterblast-acc" x="5" y="70"  >
<a xlink:href="https://mibig.secondarymetabolites.org/go/BGC0000666/1" target="_blank">BGC0000666</a>:                                                                       xiamycin A (9% of genes show similarity), Terpene</text>
<line y2="85" x1="10" style="stroke-width:1; stroke:grey; " y1="85" x2="778.0"  />
</g>
<g id="a2_000"  >
<polygon style="fill:#1563d8; stroke-width:1; stroke:black; " id="dummy-2_h2_8_0" class="clusterblast-orf" description="&lt;b&gt;AFK78065.1&lt;/b&gt;&lt;br&gt;putative Ox3&lt;br&gt;Location: 1 - 1644&lt;br&gt;&lt;br&gt;&lt;b&gt;BlastP hit with cds207831_209541&lt;/b&gt;&lt;br&gt;Percentage identity: 46&lt;br&gt;Percentage coverage: 93&lt;br&gt;BLAST bit score: 473&lt;br&gt;E-value: 6.1e-133&lt;br&gt;&lt;br&gt;&lt;b&gt;BlastP hit with cds209537_211259&lt;/b&gt;&lt;br&gt;Percentage identity: 76&lt;br&gt;Percentage coverage: 95&lt;br&gt;BLAST bit score: 891&lt;br&gt;E-value: 9.4e-259" locus_tag="AFK78065.1" points="133,90 157,90 162,85 157,80 133,80 133,90 "  />
</g>
<g id="a2_001"  >
<polygon style="fill:#b115d8; stroke-width:1; stroke:black; " id="dummy-2_h2_8_1" class="clusterblast-orf" description="&lt;b&gt;AFK78066.1&lt;/b&gt;&lt;br&gt;putative alcohol dehydrogenase zinc-binding domain protein&lt;br&gt;Location: 1641 - 2696&lt;br&gt;&lt;br&gt;&lt;b&gt;BlastP hit with cds211255_212311&lt;/b&gt;&lt;br&gt;Percentage identity: 72&lt;br&gt;Percentage coverage: 100&lt;br&gt;BLAST bit score: 528&lt;br&gt;E-value: 9.8e-150" locus_tag="AFK78066.1" points="162,90 175,90 180,85 175,80 162,80 162,90 "  />
</g>
<g id="a2_002"  >
<polygon style="fill:white; stroke-width:1; stroke:black; " id="dummy-2_h2_8_2" class="clusterblast-orf" description="&lt;b&gt;AFK78067.1&lt;/b&gt;&lt;br&gt;XiaA&lt;br&gt;Location: 2693 - 3784" locus_tag="AFK78067.1" points="180,90 194,90 199,85 194,80 180,80 180,90 "  />
</g>
<g id="a2_003"  >
<polygon style="fill:white; stroke-width:1; stroke:black; " id="dummy-2_h2_8_3" class="clusterblast-orf" description="&lt;b&gt;AFK78068.1&lt;/b&gt;&lt;br&gt;XiaB&lt;br&gt;Location: 3843 - 4337" locus_tag="AFK78068.1" points="200,85 205,80 209,80 209,90 205,90 200,85 "  />
</g>
<g id="a2_004"  >
<polygon style="fill:white; stroke-width:1; stroke:black; " id="dummy-2_h2_8_4" class="clusterblast-orf" description="&lt;b&gt;AFK78069.1&lt;/b&gt;&lt;br&gt;XiaC&lt;br&gt;Location: 4502 - 5278" locus_tag="AFK78069.1" points="212,85 217,80 225,80 225,90 217,90 212,85 "  />
</g>
<g id="a2_005"  >
<polygon style="fill:white; stroke-width:1; stroke:black; " id="dummy-2_h2_8_5" class="clusterblast-orf" description="&lt;b&gt;AFK78070.1&lt;/b&gt;&lt;br&gt;XiaD&lt;br&gt;Location: 5512 - 6504" locus_tag="AFK78070.1" points="229,90 242,90 247,85 242,80 229,80 229,90 "  />
</g>
<g id="a2_006"  >
<polygon style="fill:white; stroke-width:1; stroke:black; " id="dummy-2_h2_8_6" class="clusterblast-orf" description="&lt;b&gt;AFK78071.1&lt;/b&gt;&lt;br&gt;XiaE&lt;br&gt;Location: 6517 - 8334" locus_tag="AFK78071.1" points="247,90 274,90 279,85 274,80 247,80 247,90 "  />
</g>
<g id="a2_007"  >
<polygon style="fill:white; stroke-width:1; stroke:black; " id="dummy-2_h2_8_7" class="clusterblast-orf" description="&lt;b&gt;AFK78072.1&lt;/b&gt;&lt;br&gt;XiaF&lt;br&gt;Location: 8331 - 9482" locus_tag="AFK78072.1" points="279,90 294,90 299,85 294,80 279,80 279,90 "  />
</g>
<g id="a2_008"  >
<polygon style="fill:white; stroke-width:1; stroke:black; " id="dummy-2_h2_8_8" class="clusterblast-orf" description="&lt;b&gt;AFK78073.1&lt;/b&gt;&lt;br&gt;XiaG&lt;br&gt;Location: 9930 - 10652" locus_tag="AFK78073.1" points="306,90 314,90 319,85 314,80 306,80 306,90 "  />
</g>
<g id="a2_009"  >
<polygon style="fill:white; stroke-width:1; stroke:black; " id="dummy-2_h2_8_9" class="clusterblast-orf" description="&lt;b&gt;AFK78074.1&lt;/b&gt;&lt;br&gt;terpene cyclase&lt;br&gt;Location: 10645 - 11445" locus_tag="AFK78074.1" points="319,85 324,80 333,80 333,90 324,90 319,85 "  />
</g>
<g id="a2_0010"  >
<polygon style="fill:white; stroke-width:1; stroke:black; " id="dummy-2_h2_8_10" class="clusterblast-orf" description="&lt;b&gt;AFK78075.1&lt;/b&gt;&lt;br&gt;oxidative terpene cyclase&lt;br&gt;Location: 11512 - 12705" locus_tag="AFK78075.1" points="334,85 339,80 355,80 355,90 339,90 334,85 "  />
</g>
<g id="a2_0011"  >
<polygon style="fill:white; stroke-width:1; stroke:black; " id="dummy-2_h2_8_11" class="clusterblast-orf" description="&lt;b&gt;AFK78076.1&lt;/b&gt;&lt;br&gt;XiaJ&lt;br&gt;Location: 12708 - 13097" locus_tag="AFK78076.1" points="355,85 360,80 362,80 362,90 360,90 355,85 "  />
</g>
<g id="a2_0012"  >
<polygon style="fill:white; stroke-width:1; stroke:black; " id="dummy-2_h2_8_12" class="clusterblast-orf" description="&lt;b&gt;AFK78077.1&lt;/b&gt;&lt;br&gt;C,N- and N,N dimerization&lt;br&gt;Location: 13100 - 14890" locus_tag="AFK78077.1" points="362,85 367,80 393,80 393,90 367,90 362,85 "  />
</g>
<g id="a2_0013"  >
<polygon style="fill:white; stroke-width:1; stroke:black; " id="dummy-2_h2_8_13" class="clusterblast-orf" description="&lt;b&gt;AFK78078.1&lt;/b&gt;&lt;br&gt;XiaL&lt;br&gt;Location: 14890 - 15123" locus_tag="AFK78078.1" points="393,85 397,80 397,90 393,85 "  />
</g>
<g id="a2_0014"  >
<polygon style="fill:white; stroke-width:1; stroke:black; " id="dummy-2_h2_8_14" class="clusterblast-orf" description="&lt;b&gt;AFK78079.1&lt;/b&gt;&lt;br&gt;carboxylase&lt;br&gt;Location: 15149 - 16318" locus_tag="AFK78079.1" points="398,85 403,80 418,80 418,90 403,90 398,85 "  />
</g>
<g id="a2_0015"  >
<polygon style="fill:white; stroke-width:1; stroke:black; " id="dummy-2_h2_8_15" class="clusterblast-orf" description="&lt;b&gt;AFK78080.1&lt;/b&gt;&lt;br&gt;XiaN&lt;br&gt;Location: 16457 - 17482" locus_tag="AFK78080.1" points="420,85 425,80 438,80 438,90 425,90 420,85 "  />
</g>
<g id="a2_0016"  >
<polygon style="fill:white; stroke-width:1; stroke:black; " id="dummy-2_h2_8_16" class="clusterblast-orf" description="&lt;b&gt;AFK78081.1&lt;/b&gt;&lt;br&gt;epoxidase&lt;br&gt;Location: 17610 - 19766" locus_tag="AFK78081.1" points="441,85 446,80 478,80 478,90 446,90 441,85 "  />
</g>
<g id="a2_0017"  >
<polygon style="fill:white; stroke-width:1; stroke:black; " id="dummy-2_h2_8_17" class="clusterblast-orf" description="&lt;b&gt;AFK78082.1&lt;/b&gt;&lt;br&gt;XiaP&lt;br&gt;Location: 19795 - 20802" locus_tag="AFK78082.1" points="479,85 484,80 496,80 496,90 484,90 479,85 "  />
</g>
<g id="a2_0018"  >
<polygon style="fill:white; stroke-width:1; stroke:black; " id="dummy-2_h2_8_18" class="clusterblast-orf" description="&lt;b&gt;AFK78083.1&lt;/b&gt;&lt;br&gt;XiaQ&lt;br&gt;Location: 20897 - 23875" locus_tag="AFK78083.1" points="498,85 503,80 550,80 550,90 503,90 498,85 "  />
</g>
<g id="a2_0019"  >
<polygon style="fill:white; stroke-width:1; stroke:black; " id="dummy-2_h2_8_19" class="clusterblast-orf" description="&lt;b&gt;AFK78084.1&lt;/b&gt;&lt;br&gt;XiaR&lt;br&gt;Location: 24018 - 26792" locus_tag="AFK78084.1" points="552,90 596,90 601,85 596,80 552,80 552,90 "  />
</g>
<g id="a2_0020"  >
<polygon style="fill:white; stroke-width:1; stroke:black; " id="dummy-2_h2_8_20" class="clusterblast-orf" description="&lt;b&gt;AFK78085.1&lt;/b&gt;&lt;br&gt;putative bacillolysin&lt;br&gt;Location: 27049 - 27486" locus_tag="AFK78085.1" points="605,90 608,90 613,85 608,80 605,80 605,90 "  />
</g>
<g id="a2_0021"  >
<polygon style="fill:white; stroke-width:1; stroke:black; " id="dummy-2_h2_8_21" class="clusterblast-orf" description="&lt;b&gt;AFK78086.1&lt;/b&gt;&lt;br&gt;putative sodium-coupled permease&lt;br&gt;Location: 27845 - 29371" locus_tag="AFK78086.1" points="619,90 641,90 646,85 641,80 619,80 619,90 "  />
</g>
</svg>
