<svg xmlns:xlink="http://www.w3.org/1999/xlink" x="0" preserveAspectRatio="none" version="1.1" height="50" viewBox="0 0 800 50" y="0" xmlns="http://www.w3.org/2000/svg" width="800"  >
<g label="Query sequence" class="clusterblast-cluster"  >
<text class="clusterblast-acc" x="5" y="20"  >
Query sequence</text>
<line y2="35" x1="10" style="stroke-width:1; stroke:grey; " y1="35" x2="778.0"  />
<polygon style="fill:white; stroke-width:1; stroke:black; " id="subclusterblast-1_q0_0_all" class="clusterblast-orf" description="&lt;b&gt;cds189209_190481&lt;/b&gt;&lt;br&gt;L,D-transpeptidase&lt;br&gt;Location: 189209 - 190481" locus_tag="cds189209_190481" points="0,40 47,40 52,35 47,30 0,30 0,40 "  />
<polygon style="fill:white; stroke-width:1; stroke:black; " id="subclusterblast-1_q1_0_all" class="clusterblast-orf" description="&lt;b&gt;cds190571_191339&lt;/b&gt;&lt;br&gt;Enoyl-CoA hydratase (EC 4.2.1.17)&lt;br&gt;Location: 190571 - 191339" locus_tag="cds190571_191339" points="56,40 83,40 88,35 83,30 56,30 56,40 "  />
<polygon style="fill:white; stroke-width:1; stroke:black; " id="subclusterblast-1_q2_0_all" class="clusterblast-orf" description="&lt;b&gt;cds191652_192180&lt;/b&gt;&lt;br&gt;Putative regulatory protein&lt;br&gt;Location: 191652 - 192180" locus_tag="cds191652_192180" points="101,40 117,40 122,35 117,30 101,30 101,40 "  />
<polygon style="fill:white; stroke-width:1; stroke:black; " id="subclusterblast-1_q3_0_all" class="clusterblast-orf" description="&lt;b&gt;cds192580_193414&lt;/b&gt;&lt;br&gt;Polysaccharide deacetylase&lt;br&gt;Location: 192580 - 193414" locus_tag="cds192580_193414" points="139,40 168,40 173,35 168,30 139,30 139,40 "  />
<polygon style="fill:white; stroke-width:1; stroke:black; " id="subclusterblast-1_q4_0_all" class="clusterblast-orf" description="&lt;b&gt;cds193453_193669&lt;/b&gt;&lt;br&gt;putative calcium-binding protein&lt;br&gt;Location: 193453 - 193669" locus_tag="cds193453_193669" points="175,40 179,40 184,35 179,30 175,30 175,40 "  />
<polygon style="fill:white; stroke-width:1; stroke:black; " id="subclusterblast-1_q5_0_all" class="clusterblast-orf" description="&lt;b&gt;cds193828_194890&lt;/b&gt;&lt;br&gt;Copper resistance protein CopD&lt;br&gt;Location: 193828 - 194890" locus_tag="cds193828_194890" points="190,40 229,40 234,35 229,30 190,30 190,40 "  />
<polygon style="fill:white; stroke-width:1; stroke:black; " id="subclusterblast-1_q6_0_all" class="clusterblast-orf" description="&lt;b&gt;cds194896_196402&lt;/b&gt;&lt;br&gt;putative carboxylesterase&lt;br&gt;Location: 194896 - 196402" locus_tag="cds194896_196402" points="234,35 239,30 297,30 297,40 239,40 234,35 "  />
<polygon style="fill:white; stroke-width:1; stroke:black; " id="subclusterblast-1_q7_0_all" class="clusterblast-orf" description="&lt;b&gt;cds196461_198987&lt;/b&gt;&lt;br&gt;hypothetical protein&lt;br&gt;Location: 196461 - 198987" locus_tag="cds196461_198987" points="299,35 304,30 403,30 403,40 304,40 299,35 "  />
<polygon style="fill:white; stroke-width:1; stroke:black; " id="subclusterblast-1_q8_0_all" class="clusterblast-orf" description="&lt;b&gt;cds199075_200083&lt;/b&gt;&lt;br&gt;(+)-caryolan-1-ol synthase (EC 4.2.1.138) @ (+)-beta-caryophyllene synthase (EC 4.2.3.89)&lt;br&gt;Location: 199075 - 200083" locus_tag="cds199075_200083" points="407,35 412,30 448,30 448,40 412,40 407,35 "  />
<polygon style="fill:white; stroke-width:1; stroke:black; " id="subclusterblast-1_q9_0_all" class="clusterblast-orf" description="&lt;b&gt;cds200435_201758&lt;/b&gt;&lt;br&gt;hypothetical protein&lt;br&gt;Location: 200435 - 201758" locus_tag="cds200435_201758" points="463,35 468,30 518,30 518,40 468,40 463,35 "  />
<polygon style="fill:white; stroke-width:1; stroke:black; " id="subclusterblast-1_q10_0_all" class="clusterblast-orf" description="&lt;b&gt;cds201762_202338&lt;/b&gt;&lt;br&gt;FHA-domain-containing protein&lt;br&gt;Location: 201762 - 202338" locus_tag="cds201762_202338" points="518,35 523,30 541,30 541,40 523,40 518,35 "  />
<polygon style="fill:white; stroke-width:1; stroke:black; " id="subclusterblast-1_q11_0_all" class="clusterblast-orf" description="&lt;b&gt;cds202334_204296&lt;/b&gt;&lt;br&gt;T6SS baseplate protein J-like component&lt;br&gt;Location: 202334 - 204296" locus_tag="cds202334_204296" points="541,35 546,30 622,30 622,40 546,40 541,35 "  />
<polygon style="fill:white; stroke-width:1; stroke:black; " id="subclusterblast-1_q12_0_all" class="clusterblast-orf" description="&lt;b&gt;cds204295_204757&lt;/b&gt;&lt;br&gt;T6SS lysozyme-like component TssE&lt;br&gt;Location: 204295 - 204757" locus_tag="cds204295_204757" points="622,35 627,30 641,30 641,40 627,40 622,35 "  />
<polygon style="fill:white; stroke-width:1; stroke:black; " id="subclusterblast-1_q13_0_all" class="clusterblast-orf" description="&lt;b&gt;cds204753_205071&lt;/b&gt;&lt;br&gt;T6SS PAAR-repeat protein&lt;br&gt;Location: 204753 - 205071" locus_tag="cds204753_205071" points="641,35 646,30 654,30 654,40 646,40 641,35 "  />
<polygon style="fill:white; stroke-width:1; stroke:black; " id="subclusterblast-1_q14_0_all" class="clusterblast-orf" description="&lt;b&gt;cds205144_206926&lt;/b&gt;&lt;br&gt;VgrG protein&lt;br&gt;Location: 205144 - 206926" locus_tag="cds205144_206926" points="657,35 662,30 731,30 731,40 662,40 657,35 "  />
<polygon style="fill:white; stroke-width:1; stroke:black; " id="subclusterblast-1_q15_0_all" class="clusterblast-orf" description="&lt;b&gt;cds206922_207645&lt;/b&gt;&lt;br&gt;FIG00613121: hypothetical protein&lt;br&gt;Location: 206922 - 207645" locus_tag="cds206922_207645" points="730,35 735,30 760,30 760,40 735,40 730,35 "  />
<polygon style="fill:white; stroke-width:1; stroke:black; " id="subclusterblast-1_q16_0_all" class="clusterblast-orf" description="&lt;b&gt;cds207694_208120&lt;/b&gt;&lt;br&gt;hypothetical protein&lt;br&gt;Location: 207694 - 208120" locus_tag="cds207694_208120" points="762,35 767,30 780,30 780,40 767,40 762,35 "  />
</g>
</svg>
