<svg height="230" x="0" viewBox="0 0 800 230" y="0" width="800" xmlns="http://www.w3.org/2000/svg" preserveAspectRatio="none" version="1.1" xmlns:xlink="http://www.w3.org/1999/xlink"  >
<g label="Query sequence" class="clusterblast-cluster"  >
<text y="20" x="5" class="clusterblast-acc"  >
Query sequence</text>
<line y1="35" y2="35" x2="778.0" x1="10" style="stroke-width:1; stroke:grey; "  />
<polygon id="dummy-1_q0_0_all" locus_tag="cds83025_83952" description="&lt;b&gt;cds83025_83952&lt;/b&gt;&lt;br&gt;Permease of the drug/metabolite transporter (DMT) superfamily&lt;br&gt;Location: 83025 - 83952" points="120,40 124,40 129,35 124,30 120,30 120,40 " class="clusterblast-orf" style="stroke-width:1; stroke:black; fill:white; "  />
<polygon id="dummy-1_q1_0_all" locus_tag="cds83999_84209" description="&lt;b&gt;cds83999_84209&lt;/b&gt;&lt;br&gt;hypothetical protein&lt;br&gt;Location: 83999 - 84209" points="129,40 131,35 129,30 129,40 " class="clusterblast-orf" style="stroke-width:1; stroke:black; fill:white; "  />
<polygon id="dummy-1_q2_0_all" locus_tag="cds84314_85619" description="&lt;b&gt;cds84314_85619&lt;/b&gt;&lt;br&gt;COG1649 predicted glycoside hydrolase&lt;br&gt;Location: 84314 - 85619" points="132,35 137,30 145,30 145,40 137,40 132,35 " class="clusterblast-orf" style="stroke-width:1; stroke:black; fill:white; "  />
<polygon id="dummy-1_q3_0_all" locus_tag="cds85820_86678" description="&lt;b&gt;cds85820_86678&lt;/b&gt;&lt;br&gt;3-hydroxybutyryl-CoA dehydrogenase (EC 1.1.1.157); 3-hydroxyacyl-CoA dehydrogenase (EC 1.1.1.35)&lt;br&gt;Location: 85820 - 86678" points="147,40 150,40 155,35 150,30 147,30 147,40 " class="clusterblast-orf" style="stroke-width:1; stroke:black; fill:white; "  />
<polygon id="dummy-1_q4_0_all" locus_tag="cds86817_87102" description="&lt;b&gt;cds86817_87102&lt;/b&gt;&lt;br&gt;hypothetical protein&lt;br&gt;Location: 86817 - 87102" points="156,35 159,30 159,40 156,35 " class="clusterblast-orf" style="stroke-width:1; stroke:black; fill:#d81515; "  />
<polygon id="dummy-1_q5_0_all" locus_tag="cds87098_88748" description="&lt;b&gt;cds87098_88748&lt;/b&gt;&lt;br&gt;hypothetical protein&lt;br&gt;Location: 87098 - 88748" points="159,35 164,30 175,30 175,40 164,40 159,35 " class="clusterblast-orf" style="stroke-width:1; stroke:black; fill:#58d815; "  />
<polygon id="dummy-1_q6_0_all" locus_tag="cds88737_89685" description="&lt;b&gt;cds88737_89685&lt;/b&gt;&lt;br&gt;hypothetical protein&lt;br&gt;Location: 88737 - 89685" points="175,35 180,30 184,30 184,40 180,40 175,35 " class="clusterblast-orf" style="stroke-width:1; stroke:black; fill:#15c4d8; "  />
<polygon id="dummy-1_q7_0_all" locus_tag="cds89734_90496" description="&lt;b&gt;cds89734_90496&lt;/b&gt;&lt;br&gt;Oxidoreductase, short-chain dehydrogenase/reductase family&lt;br&gt;Location: 89734 - 90496" points="185,35 190,30 192,30 192,40 190,40 185,35 " class="clusterblast-orf" style="stroke-width:1; stroke:black; fill:#8115d8; "  />
<polygon id="dummy-1_q8_0_all" locus_tag="cds90498_92193" description="&lt;b&gt;cds90498_92193&lt;/b&gt;&lt;br&gt;hypothetical protein&lt;br&gt;Location: 90498 - 92193" points="192,35 197,30 208,30 208,40 197,40 192,35 " class="clusterblast-orf" style="stroke-width:1; stroke:black; fill:#d83e15; "  />
<polygon id="dummy-1_q9_0_all" locus_tag="cds92203_92794" description="&lt;b&gt;cds92203_92794&lt;/b&gt;&lt;br&gt;dTDP-4-dehydrorhamnose 3,5-epimerase (EC 5.1.3.13)&lt;br&gt;Location: 92203 - 92794" points="208,35 213,30 214,30 214,40 213,40 208,35 " class="clusterblast-orf" style="stroke-width:1; stroke:black; fill:#30d815; "  />
<polygon id="dummy-1_q10_0_all" locus_tag="cds92781_93963" description="&lt;b&gt;cds92781_93963&lt;/b&gt;&lt;br&gt;Glycosyltransferase&lt;br&gt;Location: 92781 - 93963" points="214,35 219,30 225,30 225,40 219,40 214,35 " class="clusterblast-orf" style="stroke-width:1; stroke:black; fill:#159cd8; "  />
<polygon id="dummy-1_q11_0_all" locus_tag="cds94109_95333" description="&lt;b&gt;cds94109_95333&lt;/b&gt;&lt;br&gt;hypothetical protein&lt;br&gt;Location: 94109 - 95333" points="227,40 234,40 239,35 234,30 227,30 227,40 " class="clusterblast-orf" style="stroke-width:1; stroke:black; fill:#159cd8; "  />
<polygon id="dummy-1_q12_0_all" locus_tag="cds95375_96704" description="&lt;b&gt;cds95375_96704&lt;/b&gt;&lt;br&gt;hypothetical protein&lt;br&gt;Location: 95375 - 96704" points="239,40 247,40 252,35 247,30 239,30 239,40 " class="clusterblast-orf" style="stroke-width:1; stroke:black; fill:#a915d8; "  />
<polygon id="dummy-1_q13_0_all" locus_tag="cds96709_97918" description="&lt;b&gt;cds96709_97918&lt;/b&gt;&lt;br&gt;hypothetical protein&lt;br&gt;Location: 96709 - 97918" points="252,40 258,40 263,35 258,30 252,30 252,40 " class="clusterblast-orf" style="stroke-width:1; stroke:black; fill:#159cd8; "  />
<polygon id="dummy-1_q14_0_all" locus_tag="cds97907_98942" description="&lt;b&gt;cds97907_98942&lt;/b&gt;&lt;br&gt;hypothetical protein&lt;br&gt;Location: 97907 - 98942" points="263,40 268,40 273,35 268,30 263,30 263,40 " class="clusterblast-orf" style="stroke-width:1; stroke:black; fill:#d86615; "  />
<polygon id="dummy-1_q15_0_all" locus_tag="cds98914_100141" description="&lt;b&gt;cds98914_100141&lt;/b&gt;&lt;br&gt;C-methyltransferase&lt;br&gt;Location: 98914 - 100141" points="273,35 278,30 285,30 285,40 278,40 273,35 " class="clusterblast-orf" style="stroke-width:1; stroke:black; fill:#15d823; "  />
<polygon id="dummy-1_q16_0_all" locus_tag="cds100303_102793" description="&lt;b&gt;cds100303_102793&lt;/b&gt;&lt;br&gt;Excinuclease ABC subunit A&lt;br&gt;Location: 100303 - 102793" points="287,35 292,30 311,30 311,40 292,40 287,35 " class="clusterblast-orf" style="stroke-width:1; stroke:black; fill:#1573d8; "  />
<polygon id="dummy-1_q17_0_all" locus_tag="cds102903_103461" description="&lt;b&gt;cds102903_103461&lt;/b&gt;&lt;br&gt;hypothetical protein&lt;br&gt;Location: 102903 - 103461" points="312,40 312,40 317,35 312,30 312,30 312,40 " class="clusterblast-orf" style="stroke-width:1; stroke:black; fill:#d215d8; "  />
<polygon id="dummy-1_q18_0_all" locus_tag="cds103457_104429" description="&lt;b&gt;cds103457_104429&lt;/b&gt;&lt;br&gt;Efflux ABC transporter, ATP-binding protein&lt;br&gt;Location: 103457 - 104429" points="317,40 321,40 326,35 321,30 317,30 317,40 " class="clusterblast-orf" style="stroke-width:1; stroke:black; fill:#d88e15; "  />
<polygon id="dummy-1_q19_0_all" locus_tag="cds104443_105199" description="&lt;b&gt;cds104443_105199&lt;/b&gt;&lt;br&gt;Efflux ABC transporter, permease protein&lt;br&gt;Location: 104443 - 105199" points="326,40 329,40 334,35 329,30 326,30 326,40 " class="clusterblast-orf" style="stroke-width:1; stroke:black; fill:#15d84b; "  />
<polygon id="dummy-1_q20_0_all" locus_tag="cds105252_106482" description="&lt;b&gt;cds105252_106482&lt;/b&gt;&lt;br&gt;hypothetical protein&lt;br&gt;Location: 105252 - 106482" points="334,35 339,30 346,30 346,40 339,40 334,35 " class="clusterblast-orf" style="stroke-width:1; stroke:black; fill:#154bd8; "  />
<polygon id="dummy-1_q21_0_all" locus_tag="cds106511_107492" description="&lt;b&gt;cds106511_107492&lt;/b&gt;&lt;br&gt;Potassium channel beta chain&lt;br&gt;Location: 106511 - 107492" points="346,35 351,30 356,30 356,40 351,40 346,35 " class="clusterblast-orf" style="stroke-width:1; stroke:black; fill:#d815b7; "  />
<polygon id="dummy-1_q22_0_all" locus_tag="cds107498_109007" description="&lt;b&gt;cds107498_109007&lt;/b&gt;&lt;br&gt;Rifampin monooxygenase&lt;br&gt;Location: 107498 - 109007" points="356,35 361,30 370,30 370,40 361,40 356,35 " class="clusterblast-orf" style="stroke-width:1; stroke:black; fill:#d83e15; "  />
<polygon id="dummy-1_q23_0_all" locus_tag="cds109019_110192" description="&lt;b&gt;cds109019_110192&lt;/b&gt;&lt;br&gt;hypothetical protein&lt;br&gt;Location: 109019 - 110192" points="371,35 376,30 382,30 382,40 376,40 371,35 " class="clusterblast-orf" style="stroke-width:1; stroke:black; fill:#159cd8; "  />
<polygon id="dummy-1_q24_0_all" locus_tag="cds110232_111258" description="&lt;b&gt;cds110232_111258&lt;/b&gt;&lt;br&gt;O-methyltransferase, family 2&lt;br&gt;Location: 110232 - 111258" points="382,35 387,30 392,30 392,40 387,40 382,35 " class="clusterblast-orf" style="stroke-width:1; stroke:black; fill:#d8b715; "  />
<polygon id="dummy-1_q25_0_all" locus_tag="cds111268_112024" description="&lt;b&gt;cds111268_112024&lt;/b&gt;&lt;br&gt;hypothetical protein&lt;br&gt;Location: 111268 - 112024" points="392,35 397,30 400,30 400,40 397,40 392,35 " class="clusterblast-orf" style="stroke-width:1; stroke:black; fill:#15d873; "  />
<polygon id="dummy-1_q26_0_all" locus_tag="cds112032_113061" description="&lt;b&gt;cds112032_113061&lt;/b&gt;&lt;br&gt;hypothetical protein&lt;br&gt;Location: 112032 - 113061" points="400,35 405,30 410,30 410,40 405,40 400,35 " class="clusterblast-orf" style="stroke-width:1; stroke:black; fill:#1523d8; "  />
<polygon id="dummy-1_q27_0_all" locus_tag="cds113489_114434" description="&lt;b&gt;cds113489_114434&lt;/b&gt;&lt;br&gt;hypothetical protein&lt;br&gt;Location: 113489 - 114434" points="414,40 418,40 423,35 418,30 414,30 414,40 " class="clusterblast-orf" style="stroke-width:1; stroke:black; fill:#d8158e; "  />
<polygon id="dummy-1_q28_0_all" locus_tag="cds114406_115165" description="&lt;b&gt;cds114406_115165&lt;/b&gt;&lt;br&gt;Macrocin O-methyltransferase (EC 2.1.1.101)&lt;br&gt;Location: 114406 - 115165" points="423,35 428,30 430,30 430,40 428,40 423,35 " class="clusterblast-orf" style="stroke-width:1; stroke:black; fill:#d2d815; "  />
<polygon id="dummy-1_q29_0_all" locus_tag="cds115401_116409" description="&lt;b&gt;cds115401_116409&lt;/b&gt;&lt;br&gt;Glucose-1-phosphate thymidylyltransferase (EC 2.7.7.24)&lt;br&gt;Location: 115401 - 116409" points="432,40 437,40 442,35 437,30 432,30 432,40 " class="clusterblast-orf" style="stroke-width:1; stroke:black; fill:#15d89c; "  />
<polygon id="dummy-1_q30_0_all" locus_tag="cds116405_117386" description="&lt;b&gt;cds116405_117386&lt;/b&gt;&lt;br&gt;dTDP-glucose 4,6-dehydratase (EC 4.2.1.46)&lt;br&gt;Location: 116405 - 117386" points="442,40 446,40 451,35 446,30 442,30 442,40 " class="clusterblast-orf" style="stroke-width:1; stroke:black; fill:#3015d8; "  />
<polygon id="dummy-1_q31_0_all" locus_tag="cds117382_118651" description="&lt;b&gt;cds117382_118651&lt;/b&gt;&lt;br&gt;Polyketide beta-ketoacyl synthase WhiE-KS paralog&lt;br&gt;Location: 117382 - 118651" points="451,40 459,40 464,35 459,30 451,30 451,40 " class="clusterblast-orf" style="stroke-width:1; stroke:black; fill:#d81566; "  />
<polygon id="dummy-1_q32_0_all" locus_tag="cds118647_119856" description="&lt;b&gt;cds118647_119856&lt;/b&gt;&lt;br&gt;Polyketide chain length factor WhiE-CLF paralog&lt;br&gt;Location: 118647 - 119856" points="463,40 470,40 475,35 470,30 463,30 463,40 " class="clusterblast-orf" style="stroke-width:1; stroke:black; fill:#d81566; "  />
<polygon id="dummy-1_q33_0_all" locus_tag="cds119906_120023" description="&lt;b&gt;cds119906_120023&lt;/b&gt;&lt;br&gt;hypothetical protein&lt;br&gt;Location: 119906 - 120023" points="476,40 477,35 476,30 476,40 " class="clusterblast-orf" style="stroke-width:1; stroke:black; fill:white; "  />
<polygon id="dummy-1_q34_0_all" locus_tag="cds120074_120506" description="&lt;b&gt;cds120074_120506&lt;/b&gt;&lt;br&gt;Hydroxylacyl-CoA dehydrogenase&lt;br&gt;Location: 120074 - 120506" points="477,35 481,30 481,40 477,35 " class="clusterblast-orf" style="stroke-width:1; stroke:black; fill:#d83e15; "  />
<polygon id="dummy-1_q35_0_all" locus_tag="cds120538_121822" description="&lt;b&gt;cds120538_121822&lt;/b&gt;&lt;br&gt;2-polyprenyl-6-methoxyphenol hydroxylase and related FAD-dependent oxidoreductases&lt;br&gt;Location: 120538 - 121822" points="482,35 487,30 494,30 494,40 487,40 482,35 " class="clusterblast-orf" style="stroke-width:1; stroke:black; fill:#d83e15; "  />
<polygon id="dummy-1_q36_0_all" locus_tag="cds121818_122577" description="&lt;b&gt;cds121818_122577&lt;/b&gt;&lt;br&gt;hypothetical protein&lt;br&gt;Location: 121818 - 122577" points="494,35 499,30 501,30 501,40 499,40 494,35 " class="clusterblast-orf" style="stroke-width:1; stroke:black; fill:#15d873; "  />
<polygon id="dummy-1_q37_0_all" locus_tag="cds122588_123581" description="&lt;b&gt;cds122588_123581&lt;/b&gt;&lt;br&gt;hypothetical protein&lt;br&gt;Location: 122588 - 123581" points="502,35 507,30 511,30 511,40 507,40 502,35 " class="clusterblast-orf" style="stroke-width:1; stroke:black; fill:#a9d815; "  />
<polygon id="dummy-1_q38_0_all" locus_tag="cds123568_124954" description="&lt;b&gt;cds123568_124954&lt;/b&gt;&lt;br&gt;2,3-dehydratase&lt;br&gt;Location: 123568 - 124954" points="511,35 516,30 524,30 524,40 516,40 511,35 " class="clusterblast-orf" style="stroke-width:1; stroke:black; fill:#15d8c4; "  />
<polygon id="dummy-1_q39_0_all" locus_tag="cds125133_125394" description="&lt;b&gt;cds125133_125394&lt;/b&gt;&lt;br&gt;Acyl carrier protein&lt;br&gt;Location: 125133 - 125394" points="526,40 529,35 526,30 526,40 " class="clusterblast-orf" style="stroke-width:1; stroke:black; fill:#5815d8; "  />
<polygon id="dummy-1_q40_0_all" locus_tag="cds125390_126149" description="&lt;b&gt;cds125390_126149&lt;/b&gt;&lt;br&gt;putative polyketide synthase&lt;br&gt;Location: 125390 - 126149" points="529,40 531,40 536,35 531,30 529,30 529,40 " class="clusterblast-orf" style="stroke-width:1; stroke:black; fill:#d8153e; "  />
<polygon id="dummy-1_q41_0_all" locus_tag="cds126211_126985" description="&lt;b&gt;cds126211_126985&lt;/b&gt;&lt;br&gt;FIG00816365: hypothetical protein&lt;br&gt;Location: 126211 - 126985" points="536,40 539,40 544,35 539,30 536,30 536,40 " class="clusterblast-orf" style="stroke-width:1; stroke:black; fill:#81d815; "  />
<polygon id="dummy-1_q42_0_all" locus_tag="cds127112_127358" description="&lt;b&gt;cds127112_127358&lt;/b&gt;&lt;br&gt;hypothetical protein&lt;br&gt;Location: 127112 - 127358" points="545,35 548,30 548,40 545,35 " class="clusterblast-orf" style="stroke-width:1; stroke:black; fill:white; "  />
<polygon id="dummy-1_q43_0_all" locus_tag="cds127407_127938" description="&lt;b&gt;cds127407_127938&lt;/b&gt;&lt;br&gt;Nudix hydrolase family protein&lt;br&gt;Location: 127407 - 127938" points="548,35 553,30 553,30 553,40 553,40 548,35 " class="clusterblast-orf" style="stroke-width:1; stroke:black; fill:white; "  />
<polygon id="dummy-1_q44_0_all" locus_tag="cds128025_129378" description="&lt;b&gt;cds128025_129378&lt;/b&gt;&lt;br&gt;Transcriptional regulator&lt;br&gt;Location: 128025 - 129378" points="554,35 559,30 567,30 567,40 559,40 554,35 " class="clusterblast-orf" style="stroke-width:1; stroke:black; fill:white; "  />
<polygon id="dummy-1_q45_0_all" locus_tag="cds129793_132307" description="&lt;b&gt;cds129793_132307&lt;/b&gt;&lt;br&gt;Phenylalanyl-tRNA synthetase beta chain (EC 6.1.1.20)&lt;br&gt;Location: 129793 - 132307" points="571,35 576,30 595,30 595,40 576,40 571,35 " class="clusterblast-orf" style="stroke-width:1; stroke:black; fill:white; "  />
<polygon id="dummy-1_q46_0_all" locus_tag="cds132306_133446" description="&lt;b&gt;cds132306_133446&lt;/b&gt;&lt;br&gt;Phenylalanyl-tRNA synthetase alpha chain (EC 6.1.1.20)&lt;br&gt;Location: 132306 - 133446" points="595,35 600,30 606,30 606,40 600,40 595,35 " class="clusterblast-orf" style="stroke-width:1; stroke:black; fill:white; "  />
<polygon id="dummy-1_q47_0_all" locus_tag="cds133613_134783" description="&lt;b&gt;cds133613_134783&lt;/b&gt;&lt;br&gt;PAS/PAC sensor signal transduction histidine kinase&lt;br&gt;Location: 133613 - 134783" points="608,35 613,30 619,30 619,40 613,40 608,35 " class="clusterblast-orf" style="stroke-width:1; stroke:black; fill:white; "  />
<polygon id="dummy-1_q48_0_all" locus_tag="cds134956_135802" description="&lt;b&gt;cds134956_135802&lt;/b&gt;&lt;br&gt;putative rRNA methylase&lt;br&gt;Location: 134956 - 135802" points="621,35 626,30 629,30 629,40 626,40 621,35 " class="clusterblast-orf" style="stroke-width:1; stroke:black; fill:white; "  />
<polygon id="dummy-1_q49_0_all" locus_tag="cds135920_136304" description="&lt;b&gt;cds135920_136304&lt;/b&gt;&lt;br&gt;LSU ribosomal protein L20p&lt;br&gt;Location: 135920 - 136304" points="630,35 634,30 634,40 630,35 " class="clusterblast-orf" style="stroke-width:1; stroke:black; fill:white; "  />
<polygon id="dummy-1_q50_0_all" locus_tag="cds136411_136606" description="&lt;b&gt;cds136411_136606&lt;/b&gt;&lt;br&gt;LSU ribosomal protein L35p&lt;br&gt;Location: 136411 - 136606" points="635,35 637,30 637,40 635,35 " class="clusterblast-orf" style="stroke-width:1; stroke:black; fill:white; "  />
<polygon id="dummy-1_q51_0_all" locus_tag="cds136727_137495" description="&lt;b&gt;cds136727_137495&lt;/b&gt;&lt;br&gt;Translation initiation factor 3&lt;br&gt;Location: 136727 - 137495" points="638,35 643,30 645,30 645,40 643,40 638,35 " class="clusterblast-orf" style="stroke-width:1; stroke:black; fill:white; "  />
<polygon id="dummy-1_q52_0_all" locus_tag="cds137771_138140" description="&lt;b&gt;cds137771_138140&lt;/b&gt;&lt;br&gt;Uncharacterized protein SCO1601&lt;br&gt;Location: 137771 - 138140" points="648,40 652,35 648,30 648,40 " class="clusterblast-orf" style="stroke-width:1; stroke:black; fill:white; "  />
<polygon id="dummy-1_q53_0_all" locus_tag="cds138237_138951" description="&lt;b&gt;cds138237_138951&lt;/b&gt;&lt;br&gt;Aquaporin Z&lt;br&gt;Location: 138237 - 138951" points="653,35 658,30 659,30 659,40 658,40 653,35 " class="clusterblast-orf" style="stroke-width:1; stroke:black; fill:white; "  />
</g>
<g description="NC_021985 (3040813-3123634): Streptomyces collinus Tu 365, complete sequence (31% of genes show similarity), NRPS,PKS-like,T2PKS,oligosaccharide,thiopeptide" label="NC_021985" class="clusterblast-cluster"  >
<text y="70" x="5" class="clusterblast-acc"  >
<a xlink:href="https://antismash-db.secondarymetabolites.org/area.html?record=NC_021985&amp;start=3040813&amp;end=3123634" target="_blank">NC_021985 (3040813-3123634)</a>: Streptomyces collinus Tu 365, complete sequence (31% of genes show similarity), NRPS,PKS-like,T2PKS,oligosaccharide,thiopeptide</text>
<line y1="85" y2="85" x2="778.0" x1="10" style="stroke-width:1; stroke:grey; "  />
</g>
<g id="a1_000"  >
<polygon id="dummy-1_h1_6_0" locus_tag="B446_RS13485" description="&lt;b&gt;B446_RS13485&lt;/b&gt;&lt;br&gt;hypothetical protein&lt;br&gt;Location: 3123634 - 3122951" points="0,90 1,90 6,85 1,80 0,80 0,90 " class="clusterblast-orf" style="stroke-width:1; stroke:black; fill:white; "  />
</g>
<g id="a1_001"  >
<polygon id="dummy-1_h1_6_1" locus_tag="B446_RS13480" description="&lt;b&gt;B446_RS13480&lt;/b&gt;&lt;br&gt;DegV family protein&lt;br&gt;Location: 3122878 - 3122033" points="7,90 10,90 15,85 10,80 7,80 7,90 " class="clusterblast-orf" style="stroke-width:1; stroke:black; fill:white; "  />
</g>
<g id="a1_002"  >
<polygon id="dummy-1_h1_6_2" locus_tag="B446_RS36445" description="&lt;b&gt;B446_RS36445&lt;/b&gt;&lt;br&gt;ComEA family DNA-binding protein&lt;br&gt;Location: 3121909 - 3120677" points="16,90 23,90 28,85 23,80 16,80 16,90 " class="clusterblast-orf" style="stroke-width:1; stroke:black; fill:white; "  />
</g>
<g id="a1_003"  >
<polygon id="dummy-1_h1_6_3" locus_tag="B446_RS13470" description="&lt;b&gt;B446_RS13470&lt;/b&gt;&lt;br&gt;ComEC/Rec2 family competence protein&lt;br&gt;Location: 3120680 - 3117894" points="28,90 50,90 55,85 50,80 28,80 28,90 " class="clusterblast-orf" style="stroke-width:1; stroke:black; fill:white; "  />
</g>
<g id="a1_004"  >
<polygon id="dummy-1_h1_6_4" locus_tag="B446_RS13465" description="&lt;b&gt;B446_RS13465&lt;/b&gt;&lt;br&gt;arylamine N-acetyltransferase&lt;br&gt;Location: 3117782 - 3116925" points="56,90 59,90 64,85 59,80 56,80 56,90 " class="clusterblast-orf" style="stroke-width:1; stroke:black; fill:white; "  />
</g>
<g id="a1_005"  >
<polygon id="dummy-1_h1_6_5" locus_tag="B446_RS13460" description="&lt;b&gt;B446_RS13460&lt;/b&gt;&lt;br&gt;hypothetical protein&lt;br&gt;Location: 3116868 - 3116674" points="65,85 67,80 67,90 65,85 " class="clusterblast-orf" style="stroke-width:1; stroke:black; fill:white; "  />
</g>
<g id="a1_006"  >
<polygon id="dummy-1_h1_6_6" locus_tag="B446_RS13455" description="&lt;b&gt;B446_RS13455&lt;/b&gt;&lt;br&gt;acyl-CoA carboxylase subunit beta&lt;br&gt;Location: 3116639 - 3115077" points="67,85 72,80 82,80 82,90 72,90 67,85 " class="clusterblast-orf" style="stroke-width:1; stroke:black; fill:white; "  />
</g>
<g id="a1_007"  >
<polygon id="dummy-1_h1_6_7" locus_tag="B446_RS13450" description="&lt;b&gt;B446_RS13450&lt;/b&gt;&lt;br&gt;Gfo/Idh/MocA family oxidoreductase&lt;br&gt;Location: 3115027 - 3114050&lt;br&gt;&lt;br&gt;&lt;b&gt;BlastP hit with cds122588_123581&lt;/b&gt;&lt;br&gt;Percentage identity: 49&lt;br&gt;Percentage coverage: 97&lt;br&gt;BLAST bit score: 277&lt;br&gt;E-value: 2.2e-72" points="83,85 88,80 92,80 92,90 88,90 83,85 " class="clusterblast-orf" style="stroke-width:1; stroke:black; fill:#a9d815; "  />
</g>
<g id="a1_008"  >
<polygon id="dummy-1_h1_6_8" locus_tag="B446_RS13445" description="&lt;b&gt;B446_RS13445&lt;/b&gt;&lt;br&gt;NDP-hexose 2,3-dehydratase&lt;br&gt;Location: 3114057 - 3112564&lt;br&gt;&lt;br&gt;&lt;b&gt;BlastP hit with cds123568_124954&lt;/b&gt;&lt;br&gt;Percentage identity: 50&lt;br&gt;Percentage coverage: 98&lt;br&gt;BLAST bit score: 425&lt;br&gt;E-value: 9.1e-117" points="92,85 97,80 106,80 106,90 97,90 92,85 " class="clusterblast-orf" style="stroke-width:1; stroke:black; fill:#15d8c4; "  />
</g>
<g id="a1_009"  >
<polygon id="dummy-1_h1_6_9" locus_tag="B446_RS13440" description="&lt;b&gt;B446_RS13440&lt;/b&gt;&lt;br&gt;lipopolysaccharide biosynthesis protein RfbH&lt;br&gt;Location: 3112484 - 3111183" points="107,85 112,80 120,80 120,90 112,90 107,85 " class="clusterblast-orf" style="stroke-width:1; stroke:black; fill:white; "  />
</g>
<g id="a1_0010"  >
<polygon id="dummy-1_h1_6_10" locus_tag="B446_RS13435" description="&lt;b&gt;B446_RS13435&lt;/b&gt;&lt;br&gt;NAD-dependent epimerase/dehydratase family protein&lt;br&gt;Location: 3111144 - 3110197" points="120,85 125,80 129,80 129,90 125,90 120,85 " class="clusterblast-orf" style="stroke-width:1; stroke:black; fill:white; "  />
</g>
<g id="a1_0011"  >
<polygon id="dummy-1_h1_6_11" locus_tag="B446_RS13430" description="&lt;b&gt;B446_RS13430&lt;/b&gt;&lt;br&gt;dTDP-4-dehydrorhamnose 3,5-epimerase family protein&lt;br&gt;Location: 3110074 - 3109460" points="130,90 131,90 136,85 131,80 130,80 130,90 " class="clusterblast-orf" style="stroke-width:1; stroke:black; fill:white; "  />
</g>
<g id="a1_0012"  >
<polygon id="dummy-1_h1_6_12" locus_tag="B446_RS13425" description="&lt;b&gt;B446_RS13425&lt;/b&gt;&lt;br&gt;FAD-dependent oxidoreductase&lt;br&gt;Location: 3109366 - 3107822&lt;br&gt;&lt;br&gt;&lt;b&gt;BlastP hit with cds90498_92193&lt;/b&gt;&lt;br&gt;Percentage identity: 53&lt;br&gt;Percentage coverage: 97&lt;br&gt;BLAST bit score: 508&lt;br&gt;E-value: 5.8e-142&lt;br&gt;&lt;br&gt;&lt;b&gt;BlastP hit with cds107498_109007&lt;/b&gt;&lt;br&gt;Percentage identity: 35&lt;br&gt;Percentage coverage: 100&lt;br&gt;BLAST bit score: 196&lt;br&gt;E-value: 4.4e-48" points="137,85 142,80 152,80 152,90 142,90 137,85 " class="clusterblast-orf" style="stroke-width:1; stroke:black; fill:#d83e15; "  />
</g>
<g id="a1_0013"  >
<polygon id="dummy-1_h1_6_13" locus_tag="B446_RS13420" description="&lt;b&gt;B446_RS13420&lt;/b&gt;&lt;br&gt;dTDP-glucose 4,6-dehydratase&lt;br&gt;Location: 3107825 - 3106833&lt;br&gt;&lt;br&gt;&lt;b&gt;BlastP hit with cds116405_117386&lt;/b&gt;&lt;br&gt;Percentage identity: 66&lt;br&gt;Percentage coverage: 100&lt;br&gt;BLAST bit score: 451&lt;br&gt;E-value: 8.3e-125" points="152,85 157,80 162,80 162,90 157,90 152,85 " class="clusterblast-orf" style="stroke-width:1; stroke:black; fill:#3015d8; "  />
</g>
<g id="a1_0014"  >
<polygon id="dummy-1_h1_6_14" locus_tag="B446_RS13415" description="&lt;b&gt;B446_RS13415&lt;/b&gt;&lt;br&gt;glucose-1-phosphate thymidylyltransferase&lt;br&gt;Location: 3106836 - 3105769&lt;br&gt;&lt;br&gt;&lt;b&gt;BlastP hit with cds115401_116409&lt;/b&gt;&lt;br&gt;Percentage identity: 56&lt;br&gt;Percentage coverage: 73&lt;br&gt;BLAST bit score: 277&lt;br&gt;E-value: 1.3e-72" points="162,85 167,80 172,80 172,90 167,90 162,85 " class="clusterblast-orf" style="stroke-width:1; stroke:black; fill:#15d89c; "  />
</g>
<g id="a1_0015"  >
<polygon id="dummy-1_h1_6_15" locus_tag="B446_RS13410" description="&lt;b&gt;B446_RS13410&lt;/b&gt;&lt;br&gt;NADPH-dependent FMN reductase&lt;br&gt;Location: 3105729 - 3105193" points="172,85 177,80 177,80 177,90 177,90 172,85 " class="clusterblast-orf" style="stroke-width:1; stroke:black; fill:white; "  />
</g>
<g id="a1_0016"  >
<polygon id="dummy-1_h1_6_16" locus_tag="B446_RS13405" description="&lt;b&gt;B446_RS13405&lt;/b&gt;&lt;br&gt;LLM class flavin-dependent oxidoreductase&lt;br&gt;Location: 3105175 - 3104036" points="178,85 183,80 189,80 189,90 183,90 178,85 " class="clusterblast-orf" style="stroke-width:1; stroke:black; fill:white; "  />
</g>
<g id="a1_0017"  >
<polygon id="dummy-1_h1_6_17" locus_tag="B446_RS13400" description="&lt;b&gt;B446_RS13400&lt;/b&gt;&lt;br&gt;AMP-binding protein&lt;br&gt;Location: 3103812 - 3102268" points="191,90 201,90 206,85 201,80 191,80 191,90 " class="clusterblast-orf" style="stroke-width:1; stroke:black; fill:white; "  />
</g>
<g id="a1_0018"  >
<polygon id="dummy-1_h1_6_18" locus_tag="B446_RS13395" description="&lt;b&gt;B446_RS13395&lt;/b&gt;&lt;br&gt;pyridoxal-dependent decarboxylase&lt;br&gt;Location: 3102271 - 3102011" points="206,90 208,85 206,80 206,90 " class="clusterblast-orf" style="stroke-width:1; stroke:black; fill:white; "  />
</g>
<g id="a1_0019"  >
<polygon id="dummy-1_h1_6_19" locus_tag="B446_RS13390" description="&lt;b&gt;B446_RS13390&lt;/b&gt;&lt;br&gt;DUF1205 domain-containing protein&lt;br&gt;Location: 3101760 - 3100591&lt;br&gt;&lt;br&gt;&lt;b&gt;BlastP hit with cds92781_93963&lt;/b&gt;&lt;br&gt;Percentage identity: 36&lt;br&gt;Percentage coverage: 102&lt;br&gt;BLAST bit score: 174&lt;br&gt;E-value: 1.8e-41&lt;br&gt;&lt;br&gt;&lt;b&gt;BlastP hit with cds94109_95333&lt;/b&gt;&lt;br&gt;Percentage identity: 36&lt;br&gt;Percentage coverage: 100&lt;br&gt;BLAST bit score: 195&lt;br&gt;E-value: 7.9e-48&lt;br&gt;&lt;br&gt;&lt;b&gt;BlastP hit with cds96709_97918&lt;/b&gt;&lt;br&gt;Percentage identity: 32&lt;br&gt;Percentage coverage: 100&lt;br&gt;BLAST bit score: 174&lt;br&gt;E-value: 2.4e-41&lt;br&gt;&lt;br&gt;&lt;b&gt;BlastP hit with cds109019_110192&lt;/b&gt;&lt;br&gt;Percentage identity: 34&lt;br&gt;Percentage coverage: 103&lt;br&gt;BLAST bit score: 189&lt;br&gt;E-value: 7.1e-46" points="211,85 216,80 222,80 222,90 216,90 211,85 " class="clusterblast-orf" style="stroke-width:1; stroke:black; fill:#159cd8; "  />
</g>
<g id="a1_0020"  >
<polygon id="dummy-1_h1_6_20" locus_tag="B446_RS36440" description="&lt;b&gt;B446_RS36440&lt;/b&gt;&lt;br&gt;MFS transporter&lt;br&gt;Location: 3100703 - 3099033" points="221,85 226,80 237,80 237,90 226,90 221,85 " class="clusterblast-orf" style="stroke-width:1; stroke:black; fill:white; "  />
</g>
<g id="a1_0021"  >
<polygon id="dummy-1_h1_6_21" locus_tag="B446_RS13380" description="&lt;b&gt;B446_RS13380&lt;/b&gt;&lt;br&gt;DUF1205 domain-containing protein&lt;br&gt;Location: 3099036 - 3097867&lt;br&gt;&lt;br&gt;&lt;b&gt;BlastP hit with cds92781_93963&lt;/b&gt;&lt;br&gt;Percentage identity: 33&lt;br&gt;Percentage coverage: 101&lt;br&gt;BLAST bit score: 148&lt;br&gt;E-value: 1.1e-33" points="237,85 242,80 248,80 248,90 242,90 237,85 " class="clusterblast-orf" style="stroke-width:1; stroke:black; fill:#159cd8; "  />
</g>
<g id="a1_0022"  >
<polygon id="dummy-1_h1_6_22" locus_tag="B446_RS13375" description="&lt;b&gt;B446_RS13375&lt;/b&gt;&lt;br&gt;DUF1205 domain-containing protein&lt;br&gt;Location: 3097879 - 3096713&lt;br&gt;&lt;br&gt;&lt;b&gt;BlastP hit with cds92781_93963&lt;/b&gt;&lt;br&gt;Percentage identity: 32&lt;br&gt;Percentage coverage: 101&lt;br&gt;BLAST bit score: 146&lt;br&gt;E-value: 4.1e-33&lt;br&gt;&lt;br&gt;&lt;b&gt;BlastP hit with cds94109_95333&lt;/b&gt;&lt;br&gt;Percentage identity: 34&lt;br&gt;Percentage coverage: 100&lt;br&gt;BLAST bit score: 179&lt;br&gt;E-value: 7.6e-43&lt;br&gt;&lt;br&gt;&lt;b&gt;BlastP hit with cds96709_97918&lt;/b&gt;&lt;br&gt;Percentage identity: 34&lt;br&gt;Percentage coverage: 99&lt;br&gt;BLAST bit score: 173&lt;br&gt;E-value: 4.1e-41&lt;br&gt;&lt;br&gt;&lt;b&gt;BlastP hit with cds109019_110192&lt;/b&gt;&lt;br&gt;Percentage identity: 32&lt;br&gt;Percentage coverage: 100&lt;br&gt;BLAST bit score: 169&lt;br&gt;E-value: 7.6e-40" points="248,85 253,80 259,80 259,90 253,90 248,85 " class="clusterblast-orf" style="stroke-width:1; stroke:black; fill:#159cd8; "  />
</g>
<g id="a1_0023"  >
<polygon id="dummy-1_h1_6_23" locus_tag="B446_RS13370" description="&lt;b&gt;B446_RS13370&lt;/b&gt;&lt;br&gt;non-ribosomal peptide synthetase&lt;br&gt;Location: 3096725 - 3093564" points="259,85 264,80 290,80 290,90 264,90 259,85 " class="clusterblast-orf" style="stroke-width:1; stroke:black; fill:white; "  />
</g>
<g id="a1_0024"  >
<polygon id="dummy-1_h1_6_24" locus_tag="B446_RS13365" description="&lt;b&gt;B446_RS13365&lt;/b&gt;&lt;br&gt;DUF1205 domain-containing protein&lt;br&gt;Location: 3093567 - 3092365&lt;br&gt;&lt;br&gt;&lt;b&gt;BlastP hit with cds92781_93963&lt;/b&gt;&lt;br&gt;Percentage identity: 36&lt;br&gt;Percentage coverage: 107&lt;br&gt;BLAST bit score: 161&lt;br&gt;E-value: 1.6e-37&lt;br&gt;&lt;br&gt;&lt;b&gt;BlastP hit with cds94109_95333&lt;/b&gt;&lt;br&gt;Percentage identity: 37&lt;br&gt;Percentage coverage: 101&lt;br&gt;BLAST bit score: 192&lt;br&gt;E-value: 8.7e-47&lt;br&gt;&lt;br&gt;&lt;b&gt;BlastP hit with cds96709_97918&lt;/b&gt;&lt;br&gt;Percentage identity: 34&lt;br&gt;Percentage coverage: 100&lt;br&gt;BLAST bit score: 170&lt;br&gt;E-value: 4.6e-40&lt;br&gt;&lt;br&gt;&lt;b&gt;BlastP hit with cds109019_110192&lt;/b&gt;&lt;br&gt;Percentage identity: 35&lt;br&gt;Percentage coverage: 105&lt;br&gt;BLAST bit score: 173&lt;br&gt;E-value: 5.2e-41" points="290,85 295,80 301,80 301,90 295,90 290,85 " class="clusterblast-orf" style="stroke-width:1; stroke:black; fill:#159cd8; "  />
</g>
<g id="a1_0025"  >
<polygon id="dummy-1_h1_6_25" locus_tag="B446_RS13360" description="&lt;b&gt;B446_RS13360&lt;/b&gt;&lt;br&gt;ABC transporter permease&lt;br&gt;Location: 3092225 - 3091512" points="303,85 308,80 309,80 309,90 308,90 303,85 " class="clusterblast-orf" style="stroke-width:1; stroke:black; fill:white; "  />
</g>
<g id="a1_0026"  >
<polygon id="dummy-1_h1_6_26" locus_tag="B446_RS13355" description="&lt;b&gt;B446_RS13355&lt;/b&gt;&lt;br&gt;ABC transporter ATP-binding protein&lt;br&gt;Location: 3091512 - 3090580&lt;br&gt;&lt;br&gt;&lt;b&gt;BlastP hit with cds103457_104429&lt;/b&gt;&lt;br&gt;Percentage identity: 36&lt;br&gt;Percentage coverage: 92&lt;br&gt;BLAST bit score: 137&lt;br&gt;E-value: 2e-30" points="309,85 314,80 318,80 318,90 314,90 309,85 " class="clusterblast-orf" style="stroke-width:1; stroke:black; fill:#d88e15; "  />
</g>
<g id="a1_0027"  >
<polygon id="dummy-1_h1_6_27" locus_tag="B446_RS13350" description="&lt;b&gt;B446_RS13350&lt;/b&gt;&lt;br&gt;DUF1205 domain-containing protein&lt;br&gt;Location: 3090527 - 3089361&lt;br&gt;&lt;br&gt;&lt;b&gt;BlastP hit with cds92781_93963&lt;/b&gt;&lt;br&gt;Percentage identity: 33&lt;br&gt;Percentage coverage: 101&lt;br&gt;BLAST bit score: 146&lt;br&gt;E-value: 4.1e-33&lt;br&gt;&lt;br&gt;&lt;b&gt;BlastP hit with cds96709_97918&lt;/b&gt;&lt;br&gt;Percentage identity: 34&lt;br&gt;Percentage coverage: 101&lt;br&gt;BLAST bit score: 151&lt;br&gt;E-value: 1.7e-34&lt;br&gt;&lt;br&gt;&lt;b&gt;BlastP hit with cds109019_110192&lt;/b&gt;&lt;br&gt;Percentage identity: 36&lt;br&gt;Percentage coverage: 101&lt;br&gt;BLAST bit score: 157&lt;br&gt;E-value: 3e-36" points="319,85 324,80 330,80 330,90 324,90 319,85 " class="clusterblast-orf" style="stroke-width:1; stroke:black; fill:#159cd8; "  />
</g>
<g id="a1_0028"  >
<polygon id="dummy-1_h1_6_28" locus_tag="B446_RS13345" description="&lt;b&gt;B446_RS13345&lt;/b&gt;&lt;br&gt;glycosyltransferase family 1 protein&lt;br&gt;Location: 3089373 - 3088165" points="330,85 335,80 342,80 342,90 335,90 330,85 " class="clusterblast-orf" style="stroke-width:1; stroke:black; fill:white; "  />
</g>
<g id="a1_0029"  >
<polygon id="dummy-1_h1_6_29" locus_tag="B446_RS13340" description="&lt;b&gt;B446_RS13340&lt;/b&gt;&lt;br&gt;secondary metabolite biosynthesis protein&lt;br&gt;Location: 3087923 - 3086865" points="344,90 349,90 354,85 349,80 344,80 344,90 " class="clusterblast-orf" style="stroke-width:1; stroke:black; fill:white; "  />
</g>
<g id="a1_0030"  >
<polygon id="dummy-1_h1_6_30" locus_tag="B446_RS13335" description="&lt;b&gt;B446_RS13335&lt;/b&gt;&lt;br&gt;NAD-dependent epimerase/dehydratase family protein&lt;br&gt;Location: 3086830 - 3086075&lt;br&gt;&lt;br&gt;&lt;b&gt;BlastP hit with cds111268_112024&lt;/b&gt;&lt;br&gt;Percentage identity: 49&lt;br&gt;Percentage coverage: 97&lt;br&gt;BLAST bit score: 223&lt;br&gt;E-value: 2.8e-56&lt;br&gt;&lt;br&gt;&lt;b&gt;BlastP hit with cds121818_122577&lt;/b&gt;&lt;br&gt;Percentage identity: 51&lt;br&gt;Percentage coverage: 97&lt;br&gt;BLAST bit score: 226&lt;br&gt;E-value: 2.6e-57" points="355,90 357,90 362,85 357,80 355,80 355,90 " class="clusterblast-orf" style="stroke-width:1; stroke:black; fill:#15d873; "  />
</g>
<g id="a1_0031"  >
<polygon id="dummy-1_h1_6_31" locus_tag="B446_RS13330" description="&lt;b&gt;B446_RS13330&lt;/b&gt;&lt;br&gt;hypothetical protein&lt;br&gt;Location: 3086009 - 3085338" points="363,90 364,90 369,85 364,80 363,80 363,90 " class="clusterblast-orf" style="stroke-width:1; stroke:black; fill:white; "  />
</g>
<g id="a1_0032"  >
<polygon id="dummy-1_h1_6_32" locus_tag="B446_RS13325" description="&lt;b&gt;B446_RS13325&lt;/b&gt;&lt;br&gt;hypothetical protein&lt;br&gt;Location: 3085281 - 3084046&lt;br&gt;&lt;br&gt;&lt;b&gt;BlastP hit with cds120538_121822&lt;/b&gt;&lt;br&gt;Percentage identity: 56&lt;br&gt;Percentage coverage: 97&lt;br&gt;BLAST bit score: 426&lt;br&gt;E-value: 3.8e-117" points="370,85 375,80 381,80 381,90 375,90 370,85 " class="clusterblast-orf" style="stroke-width:1; stroke:black; fill:#d83e15; "  />
</g>
<g id="a1_0033"  >
<polygon id="dummy-1_h1_6_33" locus_tag="B446_RS36080" description="&lt;b&gt;B446_RS36080&lt;/b&gt;&lt;br&gt;cyclase&lt;br&gt;Location: 3084049 - 3083222" points="381,85 386,80 389,80 389,90 386,90 381,85 " class="clusterblast-orf" style="stroke-width:1; stroke:black; fill:white; "  />
</g>
<g id="a1_0034"  >
<polygon id="dummy-1_h1_6_34" locus_tag="B446_RS13315" description="&lt;b&gt;B446_RS13315&lt;/b&gt;&lt;br&gt;aldo/keto reductase&lt;br&gt;Location: 3083210 - 3082188&lt;br&gt;&lt;br&gt;&lt;b&gt;BlastP hit with cds106511_107492&lt;/b&gt;&lt;br&gt;Percentage identity: 53&lt;br&gt;Percentage coverage: 99&lt;br&gt;BLAST bit score: 307&lt;br&gt;E-value: 1.5e-81" points="390,85 395,80 399,80 399,90 395,90 390,85 " class="clusterblast-orf" style="stroke-width:1; stroke:black; fill:#d815b7; "  />
</g>
<g id="a1_0035"  >
<polygon id="dummy-1_h1_6_35" locus_tag="B446_RS13310" description="&lt;b&gt;B446_RS13310&lt;/b&gt;&lt;br&gt;antibiotic biosynthesis monooxygenase&lt;br&gt;Location: 3082174 - 3081611" points="400,85 405,80 405,80 405,90 405,90 400,85 " class="clusterblast-orf" style="stroke-width:1; stroke:black; fill:white; "  />
</g>
<g id="a1_0036"  >
<polygon id="dummy-1_h1_6_36" locus_tag="B446_RS13305" description="&lt;b&gt;B446_RS13305&lt;/b&gt;&lt;br&gt;acyl--CoA ligase&lt;br&gt;Location: 3081595 - 3080102&lt;br&gt;&lt;br&gt;&lt;b&gt;BlastP hit with cds87098_88748&lt;/b&gt;&lt;br&gt;Percentage identity: 53&lt;br&gt;Percentage coverage: 92&lt;br&gt;BLAST bit score: 428&lt;br&gt;E-value: 7.5e-118" points="405,85 410,80 420,80 420,90 410,90 405,85 " class="clusterblast-orf" style="stroke-width:1; stroke:black; fill:#58d815; "  />
</g>
<g id="a1_0037"  >
<polygon id="dummy-1_h1_6_37" locus_tag="B446_RS13300" description="&lt;b&gt;B446_RS13300&lt;/b&gt;&lt;br&gt;actinorhodin polyketide synthase bifunctional cyclase/dehydratase&lt;br&gt;Location: 3080109 - 3079162&lt;br&gt;&lt;br&gt;&lt;b&gt;BlastP hit with cds88737_89685&lt;/b&gt;&lt;br&gt;Percentage identity: 40&lt;br&gt;Percentage coverage: 96&lt;br&gt;BLAST bit score: 227&lt;br&gt;E-value: 2.5e-57" points="419,85 424,80 429,80 429,90 424,90 419,85 " class="clusterblast-orf" style="stroke-width:1; stroke:black; fill:#15c4d8; "  />
</g>
<g id="a1_0038"  >
<polygon id="dummy-1_h1_6_38" locus_tag="B446_RS13295" description="&lt;b&gt;B446_RS13295&lt;/b&gt;&lt;br&gt;3-oxoacyl-ACP reductase FabG&lt;br&gt;Location: 3079102 - 3078311&lt;br&gt;&lt;br&gt;&lt;b&gt;BlastP hit with cds89734_90496&lt;/b&gt;&lt;br&gt;Percentage identity: 34&lt;br&gt;Percentage coverage: 102&lt;br&gt;BLAST bit score: 106&lt;br&gt;E-value: 3e-21" points="429,85 434,80 437,80 437,90 434,90 429,85 " class="clusterblast-orf" style="stroke-width:1; stroke:black; fill:#8115d8; "  />
</g>
<g id="a1_0039"  >
<polygon id="dummy-1_h1_6_39" locus_tag="B446_RS13290" description="&lt;b&gt;B446_RS13290&lt;/b&gt;&lt;br&gt;nuclear transport factor 2 family protein&lt;br&gt;Location: 3078107 - 3077667&lt;br&gt;&lt;br&gt;&lt;b&gt;BlastP hit with cds120074_120506&lt;/b&gt;&lt;br&gt;Percentage identity: 49&lt;br&gt;Percentage coverage: 88&lt;br&gt;BLAST bit score: 131&lt;br&gt;E-value: 4.9e-29" points="439,90 443,85 439,80 439,90 " class="clusterblast-orf" style="stroke-width:1; stroke:black; fill:#d83e15; "  />
</g>
<g id="a1_0040"  >
<polygon id="dummy-1_h1_6_40" locus_tag="B446_RS13285" description="&lt;b&gt;B446_RS13285&lt;/b&gt;&lt;br&gt;acyl carrier protein&lt;br&gt;Location: 3077481 - 3077218&lt;br&gt;&lt;br&gt;&lt;b&gt;BlastP hit with cds125133_125394&lt;/b&gt;&lt;br&gt;Percentage identity: 51&lt;br&gt;Percentage coverage: 93&lt;br&gt;BLAST bit score: 81&lt;br&gt;E-value: 3.5e-14" points="445,85 447,80 447,90 445,85 " class="clusterblast-orf" style="stroke-width:1; stroke:black; fill:#5815d8; "  />
</g>
<g id="a1_0041"  >
<polygon id="dummy-1_h1_6_41" locus_tag="B446_RS13280" description="&lt;b&gt;B446_RS13280&lt;/b&gt;&lt;br&gt;ketosynthase chain-length factor&lt;br&gt;Location: 3077191 - 3075965&lt;br&gt;&lt;br&gt;&lt;b&gt;BlastP hit with cds118647_119856&lt;/b&gt;&lt;br&gt;Percentage identity: 60&lt;br&gt;Percentage coverage: 100&lt;br&gt;BLAST bit score: 462&lt;br&gt;E-value: 5.8e-128" points="448,85 453,80 459,80 459,90 453,90 448,85 " class="clusterblast-orf" style="stroke-width:1; stroke:black; fill:#d81566; "  />
</g>
<g id="a1_0042"  >
<polygon id="dummy-1_h1_6_42" locus_tag="B446_RS13275" description="&lt;b&gt;B446_RS13275&lt;/b&gt;&lt;br&gt;beta-ketoacyl-[acyl-carrier-protein] synthase family protein&lt;br&gt;Location: 3075968 - 3074679&lt;br&gt;&lt;br&gt;&lt;b&gt;BlastP hit with cds117382_118651&lt;/b&gt;&lt;br&gt;Percentage identity: 68&lt;br&gt;Percentage coverage: 99&lt;br&gt;BLAST bit score: 569&lt;br&gt;E-value: 2.1e-160" points="459,85 464,80 472,80 472,90 464,90 459,85 " class="clusterblast-orf" style="stroke-width:1; stroke:black; fill:#d81566; "  />
</g>
<g id="a1_0043"  >
<polygon id="dummy-1_h1_6_43" locus_tag="B446_RS13270" description="&lt;b&gt;B446_RS13270&lt;/b&gt;&lt;br&gt;thioesterase&lt;br&gt;Location: 3074618 - 3073833" points="472,85 477,80 480,80 480,90 477,90 472,85 " class="clusterblast-orf" style="stroke-width:1; stroke:black; fill:white; "  />
</g>
<g id="a1_0044"  >
<polygon id="dummy-1_h1_6_44" locus_tag="B446_RS13265" description="&lt;b&gt;B446_RS13265&lt;/b&gt;&lt;br&gt;cyclase family protein&lt;br&gt;Location: 3073812 - 3073042&lt;br&gt;&lt;br&gt;&lt;b&gt;BlastP hit with cds126211_126985&lt;/b&gt;&lt;br&gt;Percentage identity: 65&lt;br&gt;Percentage coverage: 100&lt;br&gt;BLAST bit score: 345&lt;br&gt;E-value: 3.9e-93" points="480,85 485,80 488,80 488,90 485,90 480,85 " class="clusterblast-orf" style="stroke-width:1; stroke:black; fill:#81d815; "  />
</g>
<g id="a1_0045"  >
<polygon id="dummy-1_h1_6_45" locus_tag="B446_RS13260" description="&lt;b&gt;B446_RS13260&lt;/b&gt;&lt;br&gt;AfsR/SARP family transcriptional regulator&lt;br&gt;Location: 3072897 - 3072079&lt;br&gt;&lt;br&gt;&lt;b&gt;BlastP hit with cds113489_114434&lt;/b&gt;&lt;br&gt;Percentage identity: 49&lt;br&gt;Percentage coverage: 75&lt;br&gt;BLAST bit score: 222&lt;br&gt;E-value: 7.9e-56" points="489,85 494,80 497,80 497,90 494,90 489,85 " class="clusterblast-orf" style="stroke-width:1; stroke:black; fill:#d8158e; "  />
</g>
<g id="a1_0046"  >
<polygon id="dummy-1_h1_6_46" locus_tag="B446_RS39200" description="&lt;b&gt;B446_RS39200&lt;/b&gt;&lt;br&gt;hypothetical protein&lt;br&gt;Location: 3071778 - 3071635" points="500,90 501,85 500,80 500,90 " class="clusterblast-orf" style="stroke-width:1; stroke:black; fill:white; "  />
</g>
<g id="a1_0047"  >
<polygon id="dummy-1_h1_6_47" locus_tag="B446_RS13255" description="&lt;b&gt;B446_RS13255&lt;/b&gt;&lt;br&gt;TOMM precursor leader peptide-binding protein&lt;br&gt;Location: 3071635 - 3069353" points="501,90 518,90 523,85 518,80 501,80 501,90 " class="clusterblast-orf" style="stroke-width:1; stroke:black; fill:white; "  />
</g>
<g id="a1_0048"  >
<polygon id="dummy-1_h1_6_48" locus_tag="B446_RS13250" description="&lt;b&gt;B446_RS13250&lt;/b&gt;&lt;br&gt;hypothetical protein&lt;br&gt;Location: 3069309 - 3068632" points="524,90 525,90 530,85 525,80 524,80 524,90 " class="clusterblast-orf" style="stroke-width:1; stroke:black; fill:white; "  />
</g>
<g id="a1_0049"  >
<polygon id="dummy-1_h1_6_49" locus_tag="B446_RS38170" description="&lt;b&gt;B446_RS38170&lt;/b&gt;&lt;br&gt;two-component system histidine kinase&lt;br&gt;Location: 3068580 - 3066211" points="531,90 549,90 554,85 549,80 531,80 531,90 " class="clusterblast-orf" style="stroke-width:1; stroke:black; fill:white; "  />
</g>
<g id="a1_0050"  >
<polygon id="dummy-1_h1_6_50" locus_tag="B446_RS13240" description="&lt;b&gt;B446_RS13240&lt;/b&gt;&lt;br&gt;response regulator transcription factor&lt;br&gt;Location: 3066176 - 3065562" points="554,85 559,80 560,80 560,90 559,90 554,85 " class="clusterblast-orf" style="stroke-width:1; stroke:black; fill:white; "  />
</g>
<g id="a1_0051"  >
<polygon id="dummy-1_h1_6_51" locus_tag="B446_RS13235" description="&lt;b&gt;B446_RS13235&lt;/b&gt;&lt;br&gt;hypothetical protein&lt;br&gt;Location: 3065308 - 3065015" points="562,90 565,85 562,80 562,90 " class="clusterblast-orf" style="stroke-width:1; stroke:black; fill:white; "  />
</g>
<g id="a1_0052"  >
<polygon id="dummy-1_h1_6_52" locus_tag="B446_RS13230" description="&lt;b&gt;B446_RS13230&lt;/b&gt;&lt;br&gt;AMP-binding protein&lt;br&gt;Location: 3064909 - 3063197" points="566,90 578,90 583,85 578,80 566,80 566,90 " class="clusterblast-orf" style="stroke-width:1; stroke:black; fill:white; "  />
</g>
<g id="a1_0053"  >
<polygon id="dummy-1_h1_6_53" locus_tag="B446_RS13225" description="&lt;b&gt;B446_RS13225&lt;/b&gt;&lt;br&gt;acyl-CoA dehydrogenase&lt;br&gt;Location: 3063200 - 3061479" points="583,90 594,90 599,85 594,80 583,80 583,90 " class="clusterblast-orf" style="stroke-width:1; stroke:black; fill:white; "  />
</g>
<g id="a1_0054"  >
<polygon id="dummy-1_h1_6_54" locus_tag="B446_RS13220" description="&lt;b&gt;B446_RS13220&lt;/b&gt;&lt;br&gt;4'-phosphopantetheinyl transferase superfamily protein&lt;br&gt;Location: 3061449 - 3060655" points="600,90 602,90 607,85 602,80 600,80 600,90 " class="clusterblast-orf" style="stroke-width:1; stroke:black; fill:white; "  />
</g>
<g id="a1_0055"  >
<polygon id="dummy-1_h1_6_55" locus_tag="B446_RS13215" description="&lt;b&gt;B446_RS13215&lt;/b&gt;&lt;br&gt;hypothetical protein&lt;br&gt;Location: 3060599 - 3060354" points="608,90 610,85 608,80 608,90 " class="clusterblast-orf" style="stroke-width:1; stroke:black; fill:white; "  />
</g>
<g id="a1_0056"  >
<polygon id="dummy-1_h1_6_56" locus_tag="B446_RS13210" description="&lt;b&gt;B446_RS13210&lt;/b&gt;&lt;br&gt;DNA polymerase III subunit delta&lt;br&gt;Location: 3060317 - 3059316" points="610,90 615,90 620,85 615,80 610,80 610,90 " class="clusterblast-orf" style="stroke-width:1; stroke:black; fill:white; "  />
</g>
<g id="a1_0057"  >
<polygon id="dummy-1_h1_6_57" locus_tag="B446_RS13205" description="&lt;b&gt;B446_RS13205&lt;/b&gt;&lt;br&gt;nuclear transport factor 2 family protein&lt;br&gt;Location: 3059216 - 3058821" points="621,90 625,85 621,80 621,90 " class="clusterblast-orf" style="stroke-width:1; stroke:black; fill:white; "  />
</g>
<g id="a1_0058"  >
<polygon id="dummy-1_h1_6_58" locus_tag="B446_RS13200" description="&lt;b&gt;B446_RS13200&lt;/b&gt;&lt;br&gt;30S ribosomal protein S20&lt;br&gt;Location: 3058627 - 3058361" points="627,85 629,80 629,90 627,85 " class="clusterblast-orf" style="stroke-width:1; stroke:black; fill:white; "  />
</g>
<g id="a1_0059"  >
<polygon id="dummy-1_h1_6_59" locus_tag="B446_RS13195" description="&lt;b&gt;B446_RS13195&lt;/b&gt;&lt;br&gt;elongation factor 4&lt;br&gt;Location: 3058134 - 3056260" points="631,90 645,90 650,85 645,80 631,80 631,90 " class="clusterblast-orf" style="stroke-width:1; stroke:black; fill:white; "  />
</g>
<g id="a1_0060"  >
<polygon id="dummy-1_h1_6_60" locus_tag="B446_RS13190" description="&lt;b&gt;B446_RS13190&lt;/b&gt;&lt;br&gt;long-chain fatty acid--CoA ligase&lt;br&gt;Location: 3055998 - 3054127" points="652,90 665,90 670,85 665,80 652,80 652,90 " class="clusterblast-orf" style="stroke-width:1; stroke:black; fill:white; "  />
</g>
<g id="a1_0061"  >
<polygon id="dummy-1_h1_6_61" locus_tag="B446_RS13185" description="&lt;b&gt;B446_RS13185&lt;/b&gt;&lt;br&gt;SpoIIE family protein phosphatase&lt;br&gt;Location: 3053942 - 3052074" points="672,90 685,90 690,85 685,80 672,80 672,90 " class="clusterblast-orf" style="stroke-width:1; stroke:black; fill:white; "  />
</g>
<g id="a1_0062"  >
<polygon id="dummy-1_h1_6_62" locus_tag="B446_RS13180" description="&lt;b&gt;B446_RS13180&lt;/b&gt;&lt;br&gt;coproporphyrinogen III oxidase&lt;br&gt;Location: 3052046 - 3050814" points="690,90 697,90 702,85 697,80 690,80 690,90 " class="clusterblast-orf" style="stroke-width:1; stroke:black; fill:white; "  />
</g>
<g id="a1_0063"  >
<polygon id="dummy-1_h1_6_63" locus_tag="B446_RS13175" description="&lt;b&gt;B446_RS13175&lt;/b&gt;&lt;br&gt;Uma2 family endonuclease&lt;br&gt;Location: 3050693 - 3050115" points="703,90 704,90 709,85 704,80 703,80 703,90 " class="clusterblast-orf" style="stroke-width:1; stroke:black; fill:white; "  />
</g>
<g id="a1_0064"  >
<polygon id="dummy-1_h1_6_64" locus_tag="B446_RS13170" description="&lt;b&gt;B446_RS13170&lt;/b&gt;&lt;br&gt;DUF3097 domain-containing protein&lt;br&gt;Location: 3050137 - 3049328" points="709,85 714,80 716,80 716,90 714,90 709,85 " class="clusterblast-orf" style="stroke-width:1; stroke:black; fill:white; "  />
</g>
<g id="a1_0065"  >
<polygon id="dummy-1_h1_6_65" locus_tag="B446_RS13165" description="&lt;b&gt;B446_RS13165&lt;/b&gt;&lt;br&gt;MBL fold metallo-hydrolase&lt;br&gt;Location: 3049293 - 3048565" points="717,85 722,80 724,80 724,90 722,90 717,85 " class="clusterblast-orf" style="stroke-width:1; stroke:black; fill:white; "  />
</g>
<g id="a1_0066"  >
<polygon id="dummy-1_h1_6_66" locus_tag="B446_RS13160" description="&lt;b&gt;B446_RS13160&lt;/b&gt;&lt;br&gt;heat-inducible transcriptional repressor HrcA&lt;br&gt;Location: 3048402 - 3047386" points="725,90 730,90 735,85 730,80 725,80 725,90 " class="clusterblast-orf" style="stroke-width:1; stroke:black; fill:white; "  />
</g>
<g id="a1_0067"  >
<polygon id="dummy-1_h1_6_67" locus_tag="B446_RS13155" description="&lt;b&gt;B446_RS13155&lt;/b&gt;&lt;br&gt;molecular chaperone DnaJ&lt;br&gt;Location: 3047385 - 3046249" points="735,90 741,90 746,85 741,80 735,80 735,90 " class="clusterblast-orf" style="stroke-width:1; stroke:black; fill:white; "  />
</g>
<g id="a1_0068"  >
<polygon id="dummy-1_h1_6_68" locus_tag="B446_RS13150" description="&lt;b&gt;B446_RS13150&lt;/b&gt;&lt;br&gt;nitronate monooxygenase&lt;br&gt;Location: 3046080 - 3044992" points="748,90 753,90 758,85 753,80 748,80 748,90 " class="clusterblast-orf" style="stroke-width:1; stroke:black; fill:white; "  />
</g>
<g id="a1_0069"  >
<polygon id="dummy-1_h1_6_69" locus_tag="B446_RS13145" description="&lt;b&gt;B446_RS13145&lt;/b&gt;&lt;br&gt;16S rRNA (uracil(1498)-N(3))-methyltransferase&lt;br&gt;Location: 3044995 - 3044249" points="758,90 760,90 765,85 760,80 758,80 758,90 " class="clusterblast-orf" style="stroke-width:1; stroke:black; fill:white; "  />
</g>
<g id="a1_0070"  >
<polygon id="dummy-1_h1_6_70" locus_tag="B446_RS13140" description="&lt;b&gt;B446_RS13140&lt;/b&gt;&lt;br&gt;VOC family protein&lt;br&gt;Location: 3044234 - 3043842" points="766,90 769,85 766,80 766,90 " class="clusterblast-orf" style="stroke-width:1; stroke:black; fill:white; "  />
</g>
<g id="a1_0071"  >
<polygon id="dummy-1_h1_6_71" locus_tag="B446_RS13135" description="&lt;b&gt;B446_RS13135&lt;/b&gt;&lt;br&gt;hypothetical protein&lt;br&gt;Location: 3043300 - 3042794" points="775,90 775,90 780,85 775,80 775,80 775,90 " class="clusterblast-orf" style="stroke-width:1; stroke:black; fill:white; "  />
</g>
</svg>
