<svg height="230" x="0" viewBox="0 0 800 230" y="0" width="800" xmlns="http://www.w3.org/2000/svg" preserveAspectRatio="none" version="1.1" xmlns:xlink="http://www.w3.org/1999/xlink"  >
<g label="Query sequence" class="clusterblast-cluster"  >
<text y="20" x="5" class="clusterblast-acc"  >
Query sequence</text>
<line y1="35" y2="35" x2="778.0" x1="10" style="stroke-width:1; stroke:grey; "  />
<polygon id="dummy-1_q0_0_all" locus_tag="cds21511_21694" description="&lt;b&gt;cds21511_21694&lt;/b&gt;&lt;br&gt;hypothetical protein&lt;br&gt;Location: 21511 - 21694" points="293,35 294,30 294,40 293,35 " class="clusterblast-orf" style="stroke-width:1; stroke:black; fill:#d81515; "  />
<polygon id="dummy-1_q1_0_all" locus_tag="cds21823_23029" description="&lt;b&gt;cds21823_23029&lt;/b&gt;&lt;br&gt;Integral membrane protein&lt;br&gt;Location: 21823 - 23029" points="295,40 299,40 304,35 299,30 295,30 295,40 " class="clusterblast-orf" style="stroke-width:1; stroke:black; fill:#5cd815; "  />
<polygon id="dummy-1_q2_0_all" locus_tag="cds23159_23351" description="&lt;b&gt;cds23159_23351&lt;/b&gt;&lt;br&gt;putative small hydrophilic protein&lt;br&gt;Location: 23159 - 23351" points="305,40 307,35 305,30 305,40 " class="clusterblast-orf" style="stroke-width:1; stroke:black; fill:#15a3d8; "  />
<polygon id="dummy-1_q3_0_all" locus_tag="cds23451_24459" description="&lt;b&gt;cds23451_24459&lt;/b&gt;&lt;br&gt;DNA-dependent DNA polymerase beta chain&lt;br&gt;Location: 23451 - 24459" points="307,35 312,30 315,30 315,40 312,40 307,35 " class="clusterblast-orf" style="stroke-width:1; stroke:black; fill:#9115d8; "  />
<polygon id="dummy-1_q4_0_all" locus_tag="cds24571_26101" description="&lt;b&gt;cds24571_26101&lt;/b&gt;&lt;br&gt;hypothetical protein&lt;br&gt;Location: 24571 - 26101" points="316,35 321,30 327,30 327,40 321,40 316,35 " class="clusterblast-orf" style="stroke-width:1; stroke:black; fill:#d84a15; "  />
<polygon id="dummy-1_q5_0_all" locus_tag="cds26368_26986" description="&lt;b&gt;cds26368_26986&lt;/b&gt;&lt;br&gt;hypothetical protein&lt;br&gt;Location: 26368 - 26986" points="329,40 329,40 334,35 329,30 329,30 329,40 " class="clusterblast-orf" style="stroke-width:1; stroke:black; fill:#27d815; "  />
<polygon id="dummy-1_q6_0_all" locus_tag="cds27071_29684" description="&lt;b&gt;cds27071_29684&lt;/b&gt;&lt;br&gt;hypothetical protein&lt;br&gt;Location: 27071 - 29684" points="334,40 349,40 354,35 349,30 334,30 334,40 " class="clusterblast-orf" style="stroke-width:1; stroke:black; fill:#156ed8; "  />
<polygon id="dummy-1_q7_0_all" locus_tag="cds29711_31073" description="&lt;b&gt;cds29711_31073&lt;/b&gt;&lt;br&gt;Ferredoxin--NADP(+) reductase, actinobacterial (eukaryote-like) type (EC 1.18.1.2)&lt;br&gt;Location: 29711 - 31073" points="354,35 359,30 364,30 364,40 359,40 354,35 " class="clusterblast-orf" style="stroke-width:1; stroke:black; fill:#c715d8; "  />
<polygon id="dummy-1_q8_0_all" locus_tag="cds31719_32556" description="&lt;b&gt;cds31719_32556&lt;/b&gt;&lt;br&gt;hypothetical protein&lt;br&gt;Location: 31719 - 32556" points="369,40 371,40 376,35 371,30 369,30 369,40 " class="clusterblast-orf" style="stroke-width:1; stroke:black; fill:#d88015; "  />
<polygon id="dummy-1_q9_0_all" locus_tag="cds32717_34358" description="&lt;b&gt;cds32717_34358&lt;/b&gt;&lt;br&gt;Cholesterol oxidase (EC 1.1.3.6) @ Steroid Delta(5)-&gt;Delta(4)-isomerase (EC 5.3.3.1)&lt;br&gt;Location: 32717 - 34358" points="377,40 384,40 389,35 384,30 377,30 377,40 " class="clusterblast-orf" style="stroke-width:1; stroke:black; fill:#15d839; "  />
<polygon id="dummy-1_q10_0_all" locus_tag="cds34431_34911" description="&lt;b&gt;cds34431_34911&lt;/b&gt;&lt;br&gt;hypothetical protein&lt;br&gt;Location: 34431 - 34911" points="390,35 393,30 393,40 390,35 " class="clusterblast-orf" style="stroke-width:1; stroke:black; fill:#1539d8; "  />
<polygon id="dummy-1_q11_0_all" locus_tag="cds34907_35987" description="&lt;b&gt;cds34907_35987&lt;/b&gt;&lt;br&gt;Oxidoreductase&lt;br&gt;Location: 34907 - 35987" points="393,35 398,30 401,30 401,40 398,40 393,35 " class="clusterblast-orf" style="stroke-width:1; stroke:black; fill:#d815b5; "  />
<polygon id="dummy-1_q12_0_all" locus_tag="cds36188_37271" description="&lt;b&gt;cds36188_37271&lt;/b&gt;&lt;br&gt;hypothetical protein&lt;br&gt;Location: 36188 - 37271" points="403,40 406,40 411,35 406,30 403,30 403,40 " class="clusterblast-orf" style="stroke-width:1; stroke:black; fill:#d8b515; "  />
<polygon id="dummy-1_q13_0_all" locus_tag="cds37378_40330" description="&lt;b&gt;cds37378_40330&lt;/b&gt;&lt;br&gt;Secreted protein&lt;br&gt;Location: 37378 - 40330" points="412,35 417,30 434,30 434,40 417,40 412,35 " class="clusterblast-orf" style="stroke-width:1; stroke:black; fill:#15d86e; "  />
<polygon id="dummy-1_q14_0_all" locus_tag="cds40494_41304" description="&lt;b&gt;cds40494_41304&lt;/b&gt;&lt;br&gt;Similar to 1,4-dihydroxy-2-naphthoate octaprenyltransferase&lt;br&gt;Location: 40494 - 41304" points="435,35 440,30 441,30 441,40 440,40 435,35 " class="clusterblast-orf" style="stroke-width:1; stroke:black; fill:#2715d8; "  />
<polygon id="dummy-1_q15_0_all" locus_tag="cds41509_42562" description="&lt;b&gt;cds41509_42562&lt;/b&gt;&lt;br&gt;Naringenin-chalcone synthase (EC 2.3.1.74)&lt;br&gt;Location: 41509 - 42562" points="443,40 446,40 451,35 446,30 443,30 443,40 " class="clusterblast-orf" style="stroke-width:1; stroke:black; fill:#d81580; "  />
<polygon id="dummy-1_q16_0_all" locus_tag="cds42575_43103" description="&lt;b&gt;cds42575_43103&lt;/b&gt;&lt;br&gt;Isoprenylcysteine carboxyl methyltransferase&lt;br&gt;Location: 42575 - 43103" points="451,40 455,35 451,30 451,40 " class="clusterblast-orf" style="stroke-width:1; stroke:black; fill:#c7d815; "  />
<polygon id="dummy-1_q17_0_all" locus_tag="cds43099_44116" description="&lt;b&gt;cds43099_44116&lt;/b&gt;&lt;br&gt;monooxygenase, FAD-binding&lt;br&gt;Location: 43099 - 44116" points="455,40 457,40 462,35 457,30 455,30 455,40 " class="clusterblast-orf" style="stroke-width:1; stroke:black; fill:#15d8a3; "  />
<polygon id="dummy-1_q18_0_all" locus_tag="cds44245_45925" description="&lt;b&gt;cds44245_45925&lt;/b&gt;&lt;br&gt;Uncharacterized MFS-type transporter&lt;br&gt;Location: 44245 - 45925" points="463,40 471,40 476,35 471,30 463,30 463,40 " class="clusterblast-orf" style="stroke-width:1; stroke:black; fill:#5c15d8; "  />
<polygon id="dummy-1_q19_0_all" locus_tag="cds45928_46402" description="&lt;b&gt;cds45928_46402&lt;/b&gt;&lt;br&gt;lyase&lt;br&gt;Location: 45928 - 46402" points="476,40 479,35 476,30 476,40 " class="clusterblast-orf" style="stroke-width:1; stroke:black; fill:#d8154a; "  />
<polygon id="dummy-1_q20_0_all" locus_tag="cds46497_46896" description="&lt;b&gt;cds46497_46896&lt;/b&gt;&lt;br&gt;hypothetical protein&lt;br&gt;Location: 46497 - 46896" points="480,40 483,35 480,30 480,40 " class="clusterblast-orf" style="stroke-width:1; stroke:black; fill:#91d815; "  />
<polygon id="dummy-1_q21_0_all" locus_tag="cds47143_47347" description="&lt;b&gt;cds47143_47347&lt;/b&gt;&lt;br&gt;Cold shock protein of CSP family&lt;br&gt;Location: 47143 - 47347" points="485,40 486,35 485,30 485,40 " class="clusterblast-orf" style="stroke-width:1; stroke:black; fill:#15d8d8; "  />
</g>
<g description="NZ_JNLT01000009 (140434-244710): Streptomyces sp. CNS654 CD02DRAFT scaffold00... (39% of genes show similarity), NRPS,T3PKS" label="NZ_JNLT01000009" class="clusterblast-cluster"  >
<text y="70" x="5" class="clusterblast-acc"  >
<a xlink:href="https://antismash-db.secondarymetabolites.org/area.html?record=NZ_JNLT01000009&amp;start=140434&amp;end=244710" target="_blank">NZ_JNLT01000009 (140434-244710)</a>: Streptomyces sp. CNS654 CD02DRAFT scaffold00... (39% of genes show similarity), NRPS,T3PKS</text>
<line y1="85" y2="85" x2="778.0" x1="10" style="stroke-width:1; stroke:grey; "  />
</g>
<g id="a1_000"  >
<polygon id="dummy-1_h1_2_0" locus_tag="CD02_RS0117110" description="&lt;b&gt;CD02_RS0117110&lt;/b&gt;&lt;br&gt;FUSC family protein&lt;br&gt;Location: 244477 - 243272&lt;br&gt;&lt;br&gt;&lt;b&gt;BlastP hit with cds21823_23029&lt;/b&gt;&lt;br&gt;Percentage identity: 99&lt;br&gt;Percentage coverage: 100&lt;br&gt;BLAST bit score: 688&lt;br&gt;E-value: 2.9e-196" points="0,90 4,90 9,85 4,80 0,80 0,90 " class="clusterblast-orf" style="stroke-width:1; stroke:black; fill:#5cd815; "  />
</g>
<g id="a1_001"  >
<polygon id="dummy-1_h1_2_1" locus_tag="CD02_RS0117105" description="&lt;b&gt;CD02_RS0117105&lt;/b&gt;&lt;br&gt;hypothetical protein&lt;br&gt;Location: 243140 - 242949&lt;br&gt;&lt;br&gt;&lt;b&gt;BlastP hit with cds23159_23351&lt;/b&gt;&lt;br&gt;Percentage identity: 98&lt;br&gt;Percentage coverage: 100&lt;br&gt;BLAST bit score: 82&lt;br&gt;E-value: 2e-14" points="10,90 11,85 10,80 10,90 " class="clusterblast-orf" style="stroke-width:1; stroke:black; fill:#15a3d8; "  />
</g>
<g id="a1_002"  >
<polygon id="dummy-1_h1_2_2" locus_tag="CD02_RS0117100" description="&lt;b&gt;CD02_RS0117100&lt;/b&gt;&lt;br&gt;PHP domain-containing protein&lt;br&gt;Location: 242847 - 241840&lt;br&gt;&lt;br&gt;&lt;b&gt;BlastP hit with cds23451_24459&lt;/b&gt;&lt;br&gt;Percentage identity: 98&lt;br&gt;Percentage coverage: 100&lt;br&gt;BLAST bit score: 656&lt;br&gt;E-value: 1.3e-186" points="12,85 17,80 19,80 19,90 17,90 12,85 " class="clusterblast-orf" style="stroke-width:1; stroke:black; fill:#9115d8; "  />
</g>
<g id="a1_003"  >
<polygon id="dummy-1_h1_2_3" locus_tag="CD02_RS0117095" description="&lt;b&gt;CD02_RS0117095&lt;/b&gt;&lt;br&gt;transcriptional regulator&lt;br&gt;Location: 241727 - 240216&lt;br&gt;&lt;br&gt;&lt;b&gt;BlastP hit with cds24571_26101&lt;/b&gt;&lt;br&gt;Percentage identity: 96&lt;br&gt;Percentage coverage: 100&lt;br&gt;BLAST bit score: 775&lt;br&gt;E-value: 3.9e-222" points="20,85 25,80 31,80 31,90 25,90 20,85 " class="clusterblast-orf" style="stroke-width:1; stroke:black; fill:#d84a15; "  />
</g>
<g id="a1_004"  >
<polygon id="dummy-1_h1_2_4" locus_tag="CD02_RS0117090" description="&lt;b&gt;CD02_RS0117090&lt;/b&gt;&lt;br&gt;hypothetical protein&lt;br&gt;Location: 239948 - 239331&lt;br&gt;&lt;br&gt;&lt;b&gt;BlastP hit with cds26368_26986&lt;/b&gt;&lt;br&gt;Percentage identity: 99&lt;br&gt;Percentage coverage: 100&lt;br&gt;BLAST bit score: 354&lt;br&gt;E-value: 8.7e-96" points="33,90 33,90 38,85 33,80 33,80 33,90 " class="clusterblast-orf" style="stroke-width:1; stroke:black; fill:#27d815; "  />
</g>
<g id="a1_005"  >
<polygon id="dummy-1_h1_2_5" locus_tag="CD02_RS0117085" description="&lt;b&gt;CD02_RS0117085&lt;/b&gt;&lt;br&gt;SpoIIE family protein phosphatase&lt;br&gt;Location: 239281 - 236627&lt;br&gt;&lt;br&gt;&lt;b&gt;BlastP hit with cds27071_29684&lt;/b&gt;&lt;br&gt;Percentage identity: 99&lt;br&gt;Percentage coverage: 100&lt;br&gt;BLAST bit score: 1738&lt;br&gt;E-value: 0.0" points="38,90 53,90 58,85 53,80 38,80 38,90 " class="clusterblast-orf" style="stroke-width:1; stroke:black; fill:#156ed8; "  />
</g>
<g id="a1_006"  >
<polygon id="dummy-1_h1_2_6" locus_tag="CD02_RS0117080" description="&lt;b&gt;CD02_RS0117080&lt;/b&gt;&lt;br&gt;FAD-dependent oxidoreductase&lt;br&gt;Location: 236599 - 235238&lt;br&gt;&lt;br&gt;&lt;b&gt;BlastP hit with cds29711_31073&lt;/b&gt;&lt;br&gt;Percentage identity: 100&lt;br&gt;Percentage coverage: 100&lt;br&gt;BLAST bit score: 920&lt;br&gt;E-value: 6.7e-266" points="59,85 64,80 69,80 69,90 64,90 59,85 " class="clusterblast-orf" style="stroke-width:1; stroke:black; fill:#c715d8; "  />
</g>
<g id="a1_007"  >
<polygon id="dummy-1_h1_2_7" locus_tag="CD02_RS0117075" description="&lt;b&gt;CD02_RS0117075&lt;/b&gt;&lt;br&gt;transglycosylase SLT domain-containing protein&lt;br&gt;Location: 234591 - 233755&lt;br&gt;&lt;br&gt;&lt;b&gt;BlastP hit with cds31719_32556&lt;/b&gt;&lt;br&gt;Percentage identity: 97&lt;br&gt;Percentage coverage: 100&lt;br&gt;BLAST bit score: 326&lt;br&gt;E-value: 3.5e-87" points="74,90 75,90 80,85 75,80 74,80 74,90 " class="clusterblast-orf" style="stroke-width:1; stroke:black; fill:#d88015; "  />
</g>
<g id="a1_008"  >
<polygon id="dummy-1_h1_2_8" locus_tag="CD02_RS0117070" description="&lt;b&gt;CD02_RS0117070&lt;/b&gt;&lt;br&gt;GMC family oxidoreductase&lt;br&gt;Location: 233446 - 231950&lt;br&gt;&lt;br&gt;&lt;b&gt;BlastP hit with cds32717_34358&lt;/b&gt;&lt;br&gt;Percentage identity: 99&lt;br&gt;Percentage coverage: 91&lt;br&gt;BLAST bit score: 1022&lt;br&gt;E-value: 1.5e-296" points="82,90 88,90 93,85 88,80 82,80 82,90 " class="clusterblast-orf" style="stroke-width:1; stroke:black; fill:#15d839; "  />
</g>
<g id="a1_009"  >
<polygon id="dummy-1_h1_2_9" locus_tag="CD02_RS0117065" description="&lt;b&gt;CD02_RS0117065&lt;/b&gt;&lt;br&gt;carboxymuconolactone decarboxylase family protein&lt;br&gt;Location: 231876 - 231397&lt;br&gt;&lt;br&gt;&lt;b&gt;BlastP hit with cds34431_34911&lt;/b&gt;&lt;br&gt;Percentage identity: 98&lt;br&gt;Percentage coverage: 100&lt;br&gt;BLAST bit score: 327&lt;br&gt;E-value: 6.8e-88" points="94,85 98,80 98,90 94,85 " class="clusterblast-orf" style="stroke-width:1; stroke:black; fill:#1539d8; "  />
</g>
<g id="a1_0010"  >
<polygon id="dummy-1_h1_2_10" locus_tag="CD02_RS0117060" description="&lt;b&gt;CD02_RS0117060&lt;/b&gt;&lt;br&gt;dihydrodipicolinate reductase&lt;br&gt;Location: 231400 - 230321&lt;br&gt;&lt;br&gt;&lt;b&gt;BlastP hit with cds34907_35987&lt;/b&gt;&lt;br&gt;Percentage identity: 99&lt;br&gt;Percentage coverage: 100&lt;br&gt;BLAST bit score: 705&lt;br&gt;E-value: 2.7e-201" points="98,85 103,80 106,80 106,90 103,90 98,85 " class="clusterblast-orf" style="stroke-width:1; stroke:black; fill:#d815b5; "  />
</g>
<g id="a1_0011"  >
<polygon id="dummy-1_h1_2_11" locus_tag="CD02_RS0117055" description="&lt;b&gt;CD02_RS0117055&lt;/b&gt;&lt;br&gt;hypothetical protein&lt;br&gt;Location: 230119 - 229037&lt;br&gt;&lt;br&gt;&lt;b&gt;BlastP hit with cds36188_37271&lt;/b&gt;&lt;br&gt;Percentage identity: 96&lt;br&gt;Percentage coverage: 100&lt;br&gt;BLAST bit score: 722&lt;br&gt;E-value: 2.8e-206" points="107,90 110,90 115,85 110,80 107,80 107,90 " class="clusterblast-orf" style="stroke-width:1; stroke:black; fill:#d8b515; "  />
</g>
<g id="a1_0012"  >
<polygon id="dummy-1_h1_2_12" locus_tag="CD02_RS0117050" description="&lt;b&gt;CD02_RS0117050&lt;/b&gt;&lt;br&gt;APHP domain-containing protein&lt;br&gt;Location: 228931 - 225980&lt;br&gt;&lt;br&gt;&lt;b&gt;BlastP hit with cds37378_40330&lt;/b&gt;&lt;br&gt;Percentage identity: 98&lt;br&gt;Percentage coverage: 100&lt;br&gt;BLAST bit score: 1816&lt;br&gt;E-value: 0.0" points="116,85 121,80 138,80 138,90 121,90 116,85 " class="clusterblast-orf" style="stroke-width:1; stroke:black; fill:#15d86e; "  />
</g>
<g id="a1_0013"  >
<polygon id="dummy-1_h1_2_13" locus_tag="CD02_RS0117045" description="&lt;b&gt;CD02_RS0117045&lt;/b&gt;&lt;br&gt;UbiA family prenyltransferase&lt;br&gt;Location: 225815 - 224829&lt;br&gt;&lt;br&gt;&lt;b&gt;BlastP hit with cds40494_41304&lt;/b&gt;&lt;br&gt;Percentage identity: 97&lt;br&gt;Percentage coverage: 100&lt;br&gt;BLAST bit score: 485&lt;br&gt;E-value: 4.3e-135" points="139,85 144,80 147,80 147,90 144,90 139,85 " class="clusterblast-orf" style="stroke-width:1; stroke:black; fill:#2715d8; "  />
</g>
<g id="a1_0014"  >
<polygon id="dummy-1_h1_2_14" locus_tag="CD02_RS0117040" description="&lt;b&gt;CD02_RS0117040&lt;/b&gt;&lt;br&gt;stilbene synthase&lt;br&gt;Location: 224710 - 223658&lt;br&gt;&lt;br&gt;&lt;b&gt;BlastP hit with cds41509_42562&lt;/b&gt;&lt;br&gt;Percentage identity: 99&lt;br&gt;Percentage coverage: 100&lt;br&gt;BLAST bit score: 708&lt;br&gt;E-value: 3.1e-202" points="148,90 151,90 156,85 151,80 148,80 148,90 " class="clusterblast-orf" style="stroke-width:1; stroke:black; fill:#d81580; "  />
</g>
<g id="a1_0015"  >
<polygon id="dummy-1_h1_2_15" locus_tag="CD02_RS0117035" description="&lt;b&gt;CD02_RS0117035&lt;/b&gt;&lt;br&gt;isoprenylcysteine carboxyl methyltransferase family protein&lt;br&gt;Location: 223644 - 223117&lt;br&gt;&lt;br&gt;&lt;b&gt;BlastP hit with cds42575_43103&lt;/b&gt;&lt;br&gt;Percentage identity: 98&lt;br&gt;Percentage coverage: 100&lt;br&gt;BLAST bit score: 347&lt;br&gt;E-value: 5.3e-94" points="156,90 160,85 156,80 156,90 " class="clusterblast-orf" style="stroke-width:1; stroke:black; fill:#c7d815; "  />
</g>
<g id="a1_0016"  >
<polygon id="dummy-1_h1_2_16" locus_tag="CD02_RS0117030" description="&lt;b&gt;CD02_RS0117030&lt;/b&gt;&lt;br&gt;FAD-binding protein&lt;br&gt;Location: 223120 - 222104&lt;br&gt;&lt;br&gt;&lt;b&gt;BlastP hit with cds43099_44116&lt;/b&gt;&lt;br&gt;Percentage identity: 99&lt;br&gt;Percentage coverage: 100&lt;br&gt;BLAST bit score: 647&lt;br&gt;E-value: 8.2e-184" points="160,90 162,90 167,85 162,80 160,80 160,90 " class="clusterblast-orf" style="stroke-width:1; stroke:black; fill:#15d8a3; "  />
</g>
<g id="a1_0017"  >
<polygon id="dummy-1_h1_2_17" locus_tag="CD02_RS0117025" description="&lt;b&gt;CD02_RS0117025&lt;/b&gt;&lt;br&gt;MFS transporter&lt;br&gt;Location: 221974 - 220316&lt;br&gt;&lt;br&gt;&lt;b&gt;BlastP hit with cds44245_45925&lt;/b&gt;&lt;br&gt;Percentage identity: 99&lt;br&gt;Percentage coverage: 94&lt;br&gt;BLAST bit score: 978&lt;br&gt;E-value: 2.6e-283" points="168,90 176,90 181,85 176,80 168,80 168,90 " class="clusterblast-orf" style="stroke-width:1; stroke:black; fill:#5c15d8; "  />
</g>
<g id="a1_0018"  >
<polygon id="dummy-1_h1_2_18" locus_tag="CD02_RS0117020" description="&lt;b&gt;CD02_RS0117020&lt;/b&gt;&lt;br&gt;glyoxalase&lt;br&gt;Location: 220312 - 219830&lt;br&gt;&lt;br&gt;&lt;b&gt;BlastP hit with cds45928_46402&lt;/b&gt;&lt;br&gt;Percentage identity: 96&lt;br&gt;Percentage coverage: 90&lt;br&gt;BLAST bit score: 295&lt;br&gt;E-value: 2.2e-78" points="181,90 184,85 181,80 181,90 " class="clusterblast-orf" style="stroke-width:1; stroke:black; fill:#d8154a; "  />
</g>
<g id="a1_0019"  >
<polygon id="dummy-1_h1_2_19" locus_tag="CD02_RS0117015" description="&lt;b&gt;CD02_RS0117015&lt;/b&gt;&lt;br&gt;hypothetical protein&lt;br&gt;Location: 219734 - 219336&lt;br&gt;&lt;br&gt;&lt;b&gt;BlastP hit with cds46497_46896&lt;/b&gt;&lt;br&gt;Percentage identity: 99&lt;br&gt;Percentage coverage: 100&lt;br&gt;BLAST bit score: 274&lt;br&gt;E-value: 5.7e-72" points="185,90 188,85 185,80 185,90 " class="clusterblast-orf" style="stroke-width:1; stroke:black; fill:#91d815; "  />
</g>
<g id="a1_0020"  >
<polygon id="dummy-1_h1_2_20" locus_tag="CD02_RS0117010" description="&lt;b&gt;CD02_RS0117010&lt;/b&gt;&lt;br&gt;cold-shock protein&lt;br&gt;Location: 219088 - 218885&lt;br&gt;&lt;br&gt;&lt;b&gt;BlastP hit with cds47143_47347&lt;/b&gt;&lt;br&gt;Percentage identity: 100&lt;br&gt;Percentage coverage: 100&lt;br&gt;BLAST bit score: 141&lt;br&gt;E-value: 2.2e-32" points="190,90 191,85 190,80 190,90 " class="clusterblast-orf" style="stroke-width:1; stroke:black; fill:#15d8d8; "  />
</g>
<g id="a1_0021"  >
<polygon id="dummy-1_h1_2_21" locus_tag="CD02_RS0117005" description="&lt;b&gt;CD02_RS0117005&lt;/b&gt;&lt;br&gt;hypothetical protein&lt;br&gt;Location: 218590 - 218342" points="194,85 195,80 195,90 194,85 " class="clusterblast-orf" style="stroke-width:1; stroke:black; fill:white; "  />
</g>
<g id="a1_0022"  >
<polygon id="dummy-1_h1_2_22" locus_tag="CD02_RS0117000" description="&lt;b&gt;CD02_RS0117000&lt;/b&gt;&lt;br&gt;DUF5133 domain-containing protein&lt;br&gt;Location: 217985 - 217758" points="198,90 200,85 198,80 198,90 " class="clusterblast-orf" style="stroke-width:1; stroke:black; fill:white; "  />
</g>
<g id="a1_0023"  >
<polygon id="dummy-1_h1_2_23" locus_tag="CD02_RS0116995" description="&lt;b&gt;CD02_RS0116995&lt;/b&gt;&lt;br&gt;glutamate--cysteine ligase&lt;br&gt;Location: 217730 - 216639" points="200,90 203,90 208,85 203,80 200,80 200,90 " class="clusterblast-orf" style="stroke-width:1; stroke:black; fill:white; "  />
</g>
<g id="a1_0024"  >
<polygon id="dummy-1_h1_2_24" locus_tag="CD02_RS0116990" description="&lt;b&gt;CD02_RS0116990&lt;/b&gt;&lt;br&gt;type 1 glutamine amidotransferase&lt;br&gt;Location: 216589 - 216026" points="209,90 213,85 209,80 209,90 " class="clusterblast-orf" style="stroke-width:1; stroke:black; fill:white; "  />
</g>
<g id="a1_0025"  >
<polygon id="dummy-1_h1_2_25" locus_tag="CD02_RS0116985" description="&lt;b&gt;CD02_RS0116985&lt;/b&gt;&lt;br&gt;LD-carboxypeptidase&lt;br&gt;Location: 215971 - 214943" points="213,85 218,80 221,80 221,90 218,90 213,85 " class="clusterblast-orf" style="stroke-width:1; stroke:black; fill:white; "  />
</g>
<g id="a1_0026"  >
<polygon id="dummy-1_h1_2_26" locus_tag="CD02_RS0116980" description="&lt;b&gt;CD02_RS0116980&lt;/b&gt;&lt;br&gt;hypothetical protein&lt;br&gt;Location: 214908 - 214282" points="221,85 226,80 226,80 226,90 226,90 221,85 " class="clusterblast-orf" style="stroke-width:1; stroke:black; fill:white; "  />
</g>
<g id="a1_0027"  >
<polygon id="dummy-1_h1_2_27" locus_tag="CD02_RS0116975" description="&lt;b&gt;CD02_RS0116975&lt;/b&gt;&lt;br&gt;siderophore-interacting protein&lt;br&gt;Location: 213976 - 213077" points="228,90 230,90 235,85 230,80 228,80 228,90 " class="clusterblast-orf" style="stroke-width:1; stroke:black; fill:white; "  />
</g>
<g id="a1_0028"  >
<polygon id="dummy-1_h1_2_28" locus_tag="CD02_RS0116970" description="&lt;b&gt;CD02_RS0116970&lt;/b&gt;&lt;br&gt;iron chelate uptake ABC transporter family permease subunit&lt;br&gt;Location: 212773 - 211703" points="237,90 240,90 245,85 240,80 237,80 237,90 " class="clusterblast-orf" style="stroke-width:1; stroke:black; fill:white; "  />
</g>
<g id="a1_0029"  >
<polygon id="dummy-1_h1_2_29" locus_tag="CD02_RS0116965" description="&lt;b&gt;CD02_RS0116965&lt;/b&gt;&lt;br&gt;iron chelate uptake ABC transporter family permease subunit&lt;br&gt;Location: 211706 - 210552" points="245,90 249,90 254,85 249,80 245,80 245,90 " class="clusterblast-orf" style="stroke-width:1; stroke:black; fill:white; "  />
</g>
<g id="a1_0030"  >
<polygon id="dummy-1_h1_2_30" locus_tag="CD02_RS0116960" description="&lt;b&gt;CD02_RS0116960&lt;/b&gt;&lt;br&gt;MbtH family protein&lt;br&gt;Location: 210364 - 210146" points="255,90 257,85 255,80 255,90 " class="clusterblast-orf" style="stroke-width:1; stroke:black; fill:white; "  />
</g>
<g id="a1_0031"  >
<polygon id="dummy-1_h1_2_31" locus_tag="CD02_RS0116955" description="&lt;b&gt;CD02_RS0116955&lt;/b&gt;&lt;br&gt;multicopper oxidase domain-containing protein&lt;br&gt;Location: 210149 - 208122" points="257,90 267,90 272,85 267,80 257,80 257,90 " class="clusterblast-orf" style="stroke-width:1; stroke:black; fill:white; "  />
</g>
<g id="a1_0032"  >
<polygon id="dummy-1_h1_2_32" locus_tag="CD02_RS0116950" description="&lt;b&gt;CD02_RS0116950&lt;/b&gt;&lt;br&gt;non-ribosomal peptide synthetase&lt;br&gt;Location: 207862 - 190457" points="274,90 399,90 404,85 399,80 274,80 274,90 " class="clusterblast-orf" style="stroke-width:1; stroke:black; fill:white; "  />
</g>
<g id="a1_0033"  >
<polygon id="dummy-1_h1_2_33" locus_tag="CD02_RS0116945" description="&lt;b&gt;CD02_RS0116945&lt;/b&gt;&lt;br&gt;non-ribosomal peptide synthetase&lt;br&gt;Location: 190460 - 174903" points="404,90 516,90 521,85 516,80 404,80 404,90 " class="clusterblast-orf" style="stroke-width:1; stroke:black; fill:white; "  />
</g>
<g id="a1_0034"  >
<polygon id="dummy-1_h1_2_34" locus_tag="CD02_RS0116940" description="&lt;b&gt;CD02_RS0116940&lt;/b&gt;&lt;br&gt;non-ribosomal peptide synthetase&lt;br&gt;Location: 174906 - 159511" points="521,90 631,90 636,85 631,80 521,80 521,90 " class="clusterblast-orf" style="stroke-width:1; stroke:black; fill:white; "  />
</g>
<g id="a1_0035"  >
<polygon id="dummy-1_h1_2_35" locus_tag="CD02_RS0116935" description="&lt;b&gt;CD02_RS0116935&lt;/b&gt;&lt;br&gt;ABC transporter substrate-binding protein&lt;br&gt;Location: 159380 - 158388" points="637,85 642,80 645,80 645,90 642,90 637,85 " class="clusterblast-orf" style="stroke-width:1; stroke:black; fill:white; "  />
</g>
<g id="a1_0036"  >
<polygon id="dummy-1_h1_2_36" locus_tag="CD02_RS0116930" description="&lt;b&gt;CD02_RS0116930&lt;/b&gt;&lt;br&gt;siderophore-interacting protein&lt;br&gt;Location: 158246 - 157449" points="646,90 647,90 652,85 647,80 646,80 646,90 " class="clusterblast-orf" style="stroke-width:1; stroke:black; fill:white; "  />
</g>
<g id="a1_0037"  >
<polygon id="dummy-1_h1_2_37" locus_tag="CD02_RS0116925" description="&lt;b&gt;CD02_RS0116925&lt;/b&gt;&lt;br&gt;alpha/beta hydrolase&lt;br&gt;Location: 157440 - 156568" points="652,90 654,90 659,85 654,80 652,80 652,90 " class="clusterblast-orf" style="stroke-width:1; stroke:black; fill:white; "  />
</g>
<g id="a1_0038"  >
<polygon id="dummy-1_h1_2_38" locus_tag="CD02_RS0116920" description="&lt;b&gt;CD02_RS0116920&lt;/b&gt;&lt;br&gt;ABC transporter ATP-binding protein&lt;br&gt;Location: 156571 - 154856" points="659,90 666,90 671,85 666,80 659,80 659,90 " class="clusterblast-orf" style="stroke-width:1; stroke:black; fill:white; "  />
</g>
<g id="a1_0039"  >
<polygon id="dummy-1_h1_2_39" locus_tag="CD02_RS0116915" description="&lt;b&gt;CD02_RS0116915&lt;/b&gt;&lt;br&gt;ABC transporter ATP-binding protein&lt;br&gt;Location: 154863 - 153145" points="671,90 679,90 684,85 679,80 671,80 671,90 " class="clusterblast-orf" style="stroke-width:1; stroke:black; fill:white; "  />
</g>
<g id="a1_0040"  >
<polygon id="dummy-1_h1_2_40" locus_tag="CD02_RS0116910" description="&lt;b&gt;CD02_RS0116910&lt;/b&gt;&lt;br&gt;FABP family protein&lt;br&gt;Location: 153018 - 152455" points="685,90 689,85 685,80 685,90 " class="clusterblast-orf" style="stroke-width:1; stroke:black; fill:white; "  />
</g>
<g id="a1_0041"  >
<polygon id="dummy-1_h1_2_41" locus_tag="CD02_RS0116905" description="&lt;b&gt;CD02_RS0116905&lt;/b&gt;&lt;br&gt;DUF4190 domain-containing protein&lt;br&gt;Location: 152366 - 151938" points="690,90 693,85 690,80 690,90 " class="clusterblast-orf" style="stroke-width:1; stroke:black; fill:white; "  />
</g>
<g id="a1_0042"  >
<polygon id="dummy-1_h1_2_42" locus_tag="CD02_RS0116900" description="&lt;b&gt;CD02_RS0116900&lt;/b&gt;&lt;br&gt;glyoxalase/bleomycin resistance/dioxygenase family protein&lt;br&gt;Location: 151886 - 151500" points="694,90 697,85 694,80 694,90 " class="clusterblast-orf" style="stroke-width:1; stroke:black; fill:white; "  />
</g>
<g id="a1_0043"  >
<polygon id="dummy-1_h1_2_43" locus_tag="CD02_RS0116895" description="&lt;b&gt;CD02_RS0116895&lt;/b&gt;&lt;br&gt;sugar kinase&lt;br&gt;Location: 151136 - 150204" points="699,85 704,80 706,80 706,90 704,90 699,85 " class="clusterblast-orf" style="stroke-width:1; stroke:black; fill:white; "  />
</g>
<g id="a1_0044"  >
<polygon id="dummy-1_h1_2_44" locus_tag="CD02_RS0116890" description="&lt;b&gt;CD02_RS0116890&lt;/b&gt;&lt;br&gt;zinc-dependent alcohol dehydrogenase family protein&lt;br&gt;Location: 150207 - 149218" points="706,85 711,80 714,80 714,90 711,90 706,85 " class="clusterblast-orf" style="stroke-width:1; stroke:black; fill:white; "  />
</g>
<g id="a1_0045"  >
<polygon id="dummy-1_h1_2_45" locus_tag="CD02_RS0116885" description="&lt;b&gt;CD02_RS0116885&lt;/b&gt;&lt;br&gt;carbohydrate ABC transporter permease&lt;br&gt;Location: 149221 - 148313" points="714,85 719,80 720,80 720,90 719,90 714,85 " class="clusterblast-orf" style="stroke-width:1; stroke:black; fill:white; "  />
</g>
<g id="a1_0046"  >
<polygon id="dummy-1_h1_2_46" locus_tag="CD02_RS0116880" description="&lt;b&gt;CD02_RS0116880&lt;/b&gt;&lt;br&gt;sugar ABC transporter permease&lt;br&gt;Location: 148316 - 147354" points="720,85 725,80 728,80 728,90 725,90 720,85 " class="clusterblast-orf" style="stroke-width:1; stroke:black; fill:white; "  />
</g>
<g id="a1_0047"  >
<polygon id="dummy-1_h1_2_47" locus_tag="CD02_RS0116875" description="&lt;b&gt;CD02_RS0116875&lt;/b&gt;&lt;br&gt;sugar ABC transporter substrate-binding protein&lt;br&gt;Location: 147357 - 145993" points="728,85 733,80 738,80 738,90 733,90 728,85 " class="clusterblast-orf" style="stroke-width:1; stroke:black; fill:white; "  />
</g>
<g id="a1_0048"  >
<polygon id="dummy-1_h1_2_48" locus_tag="CD02_RS0116870" description="&lt;b&gt;CD02_RS0116870&lt;/b&gt;&lt;br&gt;DeoR/GlpR transcriptional regulator&lt;br&gt;Location: 145879 - 145118" points="739,85 744,80 744,80 744,90 744,90 739,85 " class="clusterblast-orf" style="stroke-width:1; stroke:black; fill:white; "  />
</g>
<g id="a1_0049"  >
<polygon id="dummy-1_h1_2_49" locus_tag="CD02_RS0116865" description="&lt;b&gt;CD02_RS0116865&lt;/b&gt;&lt;br&gt;Rieske 2Fe-2S domain-containing protein&lt;br&gt;Location: 144814 - 143720" points="747,85 752,80 755,80 755,90 752,90 747,85 " class="clusterblast-orf" style="stroke-width:1; stroke:black; fill:white; "  />
</g>
<g id="a1_0050"  >
<polygon id="dummy-1_h1_2_50" locus_tag="CD02_RS0116860" description="&lt;b&gt;CD02_RS0116860&lt;/b&gt;&lt;br&gt;LLM class F420-dependent oxidoreductase&lt;br&gt;Location: 143486 - 142587" points="757,85 762,80 763,80 763,90 762,90 757,85 " class="clusterblast-orf" style="stroke-width:1; stroke:black; fill:white; "  />
</g>
<g id="a1_0051"  >
<polygon id="dummy-1_h1_2_51" locus_tag="CD02_RS0116855" description="&lt;b&gt;CD02_RS0116855&lt;/b&gt;&lt;br&gt;erythromycin esterase family protein&lt;br&gt;Location: 142469 - 141267" points="764,85 769,80 773,80 773,90 769,90 764,85 " class="clusterblast-orf" style="stroke-width:1; stroke:black; fill:white; "  />
</g>
<g id="a1_0052"  >
<polygon id="dummy-1_h1_2_52" locus_tag="CD02_RS0116850" description="&lt;b&gt;CD02_RS0116850&lt;/b&gt;&lt;br&gt;MerR family DNA-binding transcriptional regulator&lt;br&gt;Location: 141208 - 140435" points="774,90 775,90 780,85 775,80 774,80 774,90 " class="clusterblast-orf" style="stroke-width:1; stroke:black; fill:white; "  />
</g>
</svg>
