<svg height="230" x="0" viewBox="0 0 800 230" y="0" width="800" xmlns="http://www.w3.org/2000/svg" preserveAspectRatio="none" version="1.1" xmlns:xlink="http://www.w3.org/1999/xlink"  >
<g label="Query sequence" class="clusterblast-cluster"  >
<text y="20" x="5" class="clusterblast-acc"  >
Query sequence</text>
<line y1="35" y2="35" x2="778.0" x1="10" style="stroke-width:1; stroke:grey; "  />
<polygon id="dummy-1_q0_0_all" locus_tag="cds101585_102548" description="&lt;b&gt;cds101585_102548&lt;/b&gt;&lt;br&gt;1D-myo-inositol 2-acetamido-2-deoxy-alpha-D-glucopyranoside deacetylase (EC 3.5.1.103)&lt;br&gt;Location: 101585 - 102548" points="155,40 185,40 190,35 185,30 155,30 155,40 " class="clusterblast-orf" style="stroke-width:1; stroke:black; fill:#d81515; "  />
<polygon id="dummy-1_q1_0_all" locus_tag="cds102544_103018" description="&lt;b&gt;cds102544_103018&lt;/b&gt;&lt;br&gt;Integral membrane protein&lt;br&gt;Location: 102544 - 103018" points="190,40 202,40 207,35 202,30 190,30 190,40 " class="clusterblast-orf" style="stroke-width:1; stroke:black; fill:#3cd815; "  />
<polygon id="dummy-1_q2_0_all" locus_tag="cds103337_105488" description="&lt;b&gt;cds103337_105488&lt;/b&gt;&lt;br&gt;hypothetical protein&lt;br&gt;Location: 103337 - 105488" points="219,40 292,40 297,35 292,30 219,30 219,40 " class="clusterblast-orf" style="stroke-width:1; stroke:black; fill:#1563d8; "  />
<polygon id="dummy-1_q3_0_all" locus_tag="cds105597_107382" description="&lt;b&gt;cds105597_107382&lt;/b&gt;&lt;br&gt;putative secreted protein&lt;br&gt;Location: 105597 - 107382" points="301,35 306,30 365,30 365,40 306,40 301,35 " class="clusterblast-orf" style="stroke-width:1; stroke:black; fill:#b115d8; "  />
<polygon id="dummy-1_q4_0_all" locus_tag="cds107691_108198" description="&lt;b&gt;cds107691_108198&lt;/b&gt;&lt;br&gt;hypothetical protein&lt;br&gt;Location: 107691 - 108198" points="377,40 390,40 395,35 390,30 377,30 377,40 " class="clusterblast-orf" style="stroke-width:1; stroke:black; fill:#d88a15; "  />
<polygon id="dummy-1_q5_0_all" locus_tag="cds108297_108882" description="&lt;b&gt;cds108297_108882&lt;/b&gt;&lt;br&gt;putative sugar acetyltransferase&lt;br&gt;Location: 108297 - 108882" points="398,35 403,30 420,30 420,40 403,40 398,35 " class="clusterblast-orf" style="stroke-width:1; stroke:black; fill:#15d863; "  />
<polygon id="dummy-1_q6_0_all" locus_tag="cds108878_110132" description="&lt;b&gt;cds108878_110132&lt;/b&gt;&lt;br&gt;Integral membrane protein&lt;br&gt;Location: 108878 - 110132" points="420,35 425,30 465,30 465,40 425,40 420,35 " class="clusterblast-orf" style="stroke-width:1; stroke:black; fill:#3c15d8; "  />
<polygon id="dummy-1_q7_0_all" locus_tag="cds110289_111279" description="&lt;b&gt;cds110289_111279&lt;/b&gt;&lt;br&gt;Transcriptional regulator, ArsR family&lt;br&gt;Location: 110289 - 111279" points="471,40 502,40 507,35 502,30 471,30 471,40 " class="clusterblast-orf" style="stroke-width:1; stroke:black; fill:#d8158a; "  />
<polygon id="dummy-1_q8_0_all" locus_tag="cds111497_114356" description="&lt;b&gt;cds111497_114356&lt;/b&gt;&lt;br&gt;Lanthionine biosynthesis protein LanL&lt;br&gt;Location: 111497 - 114356" points="514,40 613,40 618,35 613,30 514,30 514,40 " class="clusterblast-orf" style="stroke-width:1; stroke:black; fill:#b1d815; "  />
<polygon id="dummy-1_q9_0_all" locus_tag="cds114401_114533" description="&lt;b&gt;cds114401_114533&lt;/b&gt;&lt;br&gt;Lanthionine precursor peptide LanA&lt;br&gt;Location: 114401 - 114533" points="620,40 620,40 625,35 620,30 620,30 620,40 " class="clusterblast-orf" style="stroke-width:1; stroke:black; fill:#15d8d8; "  />
</g>
<g description="NZ_LIPC01000001 (768970-790488): Streptomyces sp. TSRI0445 scaffold1, whole g... (55% of genes show similarity), lanthipeptide" label="NZ_LIPC01000001" class="clusterblast-cluster"  >
<text y="70" x="5" class="clusterblast-acc"  >
<a xlink:href="https://antismash-db.secondarymetabolites.org/area.html?record=NZ_LIPC01000001&amp;start=768970&amp;end=790488" target="_blank">NZ_LIPC01000001 (768970-790488)</a>: Streptomyces sp. TSRI0445 scaffold1, whole g... (55% of genes show similarity), lanthipeptide</text>
<line y1="85" y2="85" x2="778.0" x1="10" style="stroke-width:1; stroke:grey; "  />
</g>
<g id="a1_000"  >
<polygon id="dummy-1_h1_3_0" locus_tag="AMK14_RS03485" description="&lt;b&gt;AMK14_RS03485&lt;/b&gt;&lt;br&gt;N-acetyl-1-D-myo-inositol-2-amino-2-deoxy-alpha- D-glucopyranoside deacetylase&lt;br&gt;Location: 790488 - 789541&lt;br&gt;&lt;br&gt;&lt;b&gt;BlastP hit with cds101585_102548&lt;/b&gt;&lt;br&gt;Percentage identity: 96&lt;br&gt;Percentage coverage: 92&lt;br&gt;BLAST bit score: 564&lt;br&gt;E-value: 5.1e-159" points="0,90 29,90 34,85 29,80 0,80 0,90 " class="clusterblast-orf" style="stroke-width:1; stroke:black; fill:#d81515; "  />
</g>
<g id="a1_001"  >
<polygon id="dummy-1_h1_3_1" locus_tag="AMK14_RS03480" description="&lt;b&gt;AMK14_RS03480&lt;/b&gt;&lt;br&gt;hypothetical protein&lt;br&gt;Location: 789544 - 789071&lt;br&gt;&lt;br&gt;&lt;b&gt;BlastP hit with cds102544_103018&lt;/b&gt;&lt;br&gt;Percentage identity: 98&lt;br&gt;Percentage coverage: 100&lt;br&gt;BLAST bit score: 291&lt;br&gt;E-value: 4.1e-77" points="34,90 46,90 51,85 46,80 34,80 34,90 " class="clusterblast-orf" style="stroke-width:1; stroke:black; fill:#3cd815; "  />
</g>
<g id="a1_002"  >
<polygon id="dummy-1_h1_3_2" locus_tag="AMK14_RS03470" description="&lt;b&gt;AMK14_RS03470&lt;/b&gt;&lt;br&gt;hypothetical protein&lt;br&gt;Location: 788895 - 786670&lt;br&gt;&lt;br&gt;&lt;b&gt;BlastP hit with cds103337_105488&lt;/b&gt;&lt;br&gt;Percentage identity: 89&lt;br&gt;Percentage coverage: 101&lt;br&gt;BLAST bit score: 775&lt;br&gt;E-value: 3.2e-222" points="57,90 133,90 138,85 133,80 57,80 57,90 " class="clusterblast-orf" style="stroke-width:1; stroke:black; fill:#1563d8; "  />
</g>
<g id="a1_003"  >
<polygon id="dummy-1_h1_3_3" locus_tag="AMK14_RS03465" description="&lt;b&gt;AMK14_RS03465&lt;/b&gt;&lt;br&gt;coagulation factor 5/8 type domain-containing protein&lt;br&gt;Location: 786461 - 784668&lt;br&gt;&lt;br&gt;&lt;b&gt;BlastP hit with cds105597_107382&lt;/b&gt;&lt;br&gt;Percentage identity: 97&lt;br&gt;Percentage coverage: 101&lt;br&gt;BLAST bit score: 1190&lt;br&gt;E-value: 0.0" points="145,85 150,80 210,80 210,90 150,90 145,85 " class="clusterblast-orf" style="stroke-width:1; stroke:black; fill:#b115d8; "  />
</g>
<g id="a1_004"  >
<polygon id="dummy-1_h1_3_4" locus_tag="AMK14_RS03460" description="&lt;b&gt;AMK14_RS03460&lt;/b&gt;&lt;br&gt;DUF4265 domain-containing protein&lt;br&gt;Location: 784369 - 783863&lt;br&gt;&lt;br&gt;&lt;b&gt;BlastP hit with cds107691_108198&lt;/b&gt;&lt;br&gt;Percentage identity: 92&lt;br&gt;Percentage coverage: 100&lt;br&gt;BLAST bit score: 332&lt;br&gt;E-value: 1.7e-89" points="221,90 235,90 240,85 235,80 221,80 221,90 " class="clusterblast-orf" style="stroke-width:1; stroke:black; fill:#d88a15; "  />
</g>
<g id="a1_005"  >
<polygon id="dummy-1_h1_3_5" locus_tag="AMK14_RS03455" description="&lt;b&gt;AMK14_RS03455&lt;/b&gt;&lt;br&gt;sugar O-acetyltransferase&lt;br&gt;Location: 783821 - 783237&lt;br&gt;&lt;br&gt;&lt;b&gt;BlastP hit with cds108297_108882&lt;/b&gt;&lt;br&gt;Percentage identity: 96&lt;br&gt;Percentage coverage: 100&lt;br&gt;BLAST bit score: 340&lt;br&gt;E-value: 9.5e-92" points="241,85 246,80 262,80 262,90 246,90 241,85 " class="clusterblast-orf" style="stroke-width:1; stroke:black; fill:#15d863; "  />
</g>
<g id="a1_006"  >
<polygon id="dummy-1_h1_3_6" locus_tag="AMK14_RS03450" description="&lt;b&gt;AMK14_RS03450&lt;/b&gt;&lt;br&gt;MFS transporter&lt;br&gt;Location: 783240 - 782002&lt;br&gt;&lt;br&gt;&lt;b&gt;BlastP hit with cds108878_110132&lt;/b&gt;&lt;br&gt;Percentage identity: 94&lt;br&gt;Percentage coverage: 98&lt;br&gt;BLAST bit score: 683&lt;br&gt;E-value: 9.8e-195" points="262,85 267,80 307,80 307,90 267,90 262,85 " class="clusterblast-orf" style="stroke-width:1; stroke:black; fill:#3c15d8; "  />
</g>
<g id="a1_007"  >
<polygon id="dummy-1_h1_3_7" locus_tag="AMK14_RS03445" description="&lt;b&gt;AMK14_RS03445&lt;/b&gt;&lt;br&gt;helix-turn-helix domain-containing protein&lt;br&gt;Location: 781859 - 780882&lt;br&gt;&lt;br&gt;&lt;b&gt;BlastP hit with cds110289_111279&lt;/b&gt;&lt;br&gt;Percentage identity: 93&lt;br&gt;Percentage coverage: 99&lt;br&gt;BLAST bit score: 602&lt;br&gt;E-value: 1.7e-170" points="312,90 343,90 348,85 343,80 312,80 312,90 " class="clusterblast-orf" style="stroke-width:1; stroke:black; fill:#d8158a; "  />
</g>
<g id="a1_008"  >
<polygon id="dummy-1_h1_3_8" locus_tag="AMK14_RS03440" description="&lt;b&gt;AMK14_RS03440&lt;/b&gt;&lt;br&gt;protein kinase/lanthionine synthetase C family protein&lt;br&gt;Location: 780663 - 777868&lt;br&gt;&lt;br&gt;&lt;b&gt;BlastP hit with cds111497_114356&lt;/b&gt;&lt;br&gt;Percentage identity: 92&lt;br&gt;Percentage coverage: 100&lt;br&gt;BLAST bit score: 1505&lt;br&gt;E-value: 0.0" points="356,90 452,90 457,85 452,80 356,80 356,90 " class="clusterblast-orf" style="stroke-width:1; stroke:black; fill:#b1d815; "  />
</g>
<g id="a1_009"  >
<polygon id="dummy-1_h1_3_9" locus_tag="AMK14_RS03435" description="&lt;b&gt;AMK14_RS03435&lt;/b&gt;&lt;br&gt;SapB/AmfS family lantipeptide&lt;br&gt;Location: 777822 - 777691&lt;br&gt;&lt;br&gt;&lt;b&gt;BlastP hit with cds114401_114533&lt;/b&gt;&lt;br&gt;Percentage identity: 100&lt;br&gt;Percentage coverage: 100&lt;br&gt;BLAST bit score: 85&lt;br&gt;E-value: 1.6e-15" points="459,90 463,85 459,80 459,90 " class="clusterblast-orf" style="stroke-width:1; stroke:black; fill:#15d8d8; "  />
</g>
<g id="a1_0010"  >
<polygon id="dummy-1_h1_3_10" locus_tag="AMK14_RS03430" description="&lt;b&gt;AMK14_RS03430&lt;/b&gt;&lt;br&gt;ABC transporter ATP-binding protein&lt;br&gt;Location: 777581 - 775857" points="467,90 525,90 530,85 525,80 467,80 467,90 " class="clusterblast-orf" style="stroke-width:1; stroke:black; fill:white; "  />
</g>
<g id="a1_0011"  >
<polygon id="dummy-1_h1_3_11" locus_tag="AMK14_RS03425" description="&lt;b&gt;AMK14_RS03425&lt;/b&gt;&lt;br&gt;ABC transporter ATP-binding protein&lt;br&gt;Location: 775860 - 774004" points="530,90 592,90 597,85 592,80 530,80 530,90 " class="clusterblast-orf" style="stroke-width:1; stroke:black; fill:white; "  />
</g>
<g id="a1_0012"  >
<polygon id="dummy-1_h1_3_12" locus_tag="AMK14_RS03420" description="&lt;b&gt;AMK14_RS03420&lt;/b&gt;&lt;br&gt;response regulator transcription factor&lt;br&gt;Location: 774035 - 773430" points="596,85 601,80 618,80 618,90 601,90 596,85 " class="clusterblast-orf" style="stroke-width:1; stroke:black; fill:white; "  />
</g>
<g id="a1_0013"  >
<polygon id="dummy-1_h1_3_13" locus_tag="AMK14_RS03415" description="&lt;b&gt;AMK14_RS03415&lt;/b&gt;&lt;br&gt;tetratricopeptide repeat protein&lt;br&gt;Location: 773127 - 772246" points="629,85 634,80 661,80 661,90 634,90 629,85 " class="clusterblast-orf" style="stroke-width:1; stroke:black; fill:white; "  />
</g>
<g id="a1_0014"  >
<polygon id="dummy-1_h1_3_14" locus_tag="AMK14_RS03410" description="&lt;b&gt;AMK14_RS03410&lt;/b&gt;&lt;br&gt;GNAT family N-acetyltransferase&lt;br&gt;Location: 772175 - 771180" points="663,85 668,80 699,80 699,90 668,90 663,85 " class="clusterblast-orf" style="stroke-width:1; stroke:black; fill:white; "  />
</g>
<g id="a1_0015"  >
<polygon id="dummy-1_h1_3_15" locus_tag="AMK14_RS03405" description="&lt;b&gt;AMK14_RS03405&lt;/b&gt;&lt;br&gt;ferredoxin family protein&lt;br&gt;Location: 771062 - 770742" points="704,90 710,90 715,85 710,80 704,80 704,90 " class="clusterblast-orf" style="stroke-width:1; stroke:black; fill:white; "  />
</g>
<g id="a1_0016"  >
<polygon id="dummy-1_h1_3_16" locus_tag="AMK14_RS03400" description="&lt;b&gt;AMK14_RS03400&lt;/b&gt;&lt;br&gt;succinyldiaminopimelate transaminase&lt;br&gt;Location: 770631 - 769537" points="719,90 754,90 759,85 754,80 719,80 719,90 " class="clusterblast-orf" style="stroke-width:1; stroke:black; fill:white; "  />
</g>
<g id="a1_0017"  >
<polygon id="dummy-1_h1_3_17" locus_tag="AMK14_RS03395" description="&lt;b&gt;AMK14_RS03395&lt;/b&gt;&lt;br&gt;hypothetical protein&lt;br&gt;Location: 769438 - 768971" points="763,85 768,80 780,80 780,90 768,90 763,85 " class="clusterblast-orf" style="stroke-width:1; stroke:black; fill:white; "  />
</g>
</svg>
