<svg height="230" x="0" viewBox="0 0 800 230" y="0" width="800" xmlns="http://www.w3.org/2000/svg" preserveAspectRatio="none" version="1.1" xmlns:xlink="http://www.w3.org/1999/xlink"  >
<g label="Query sequence" class="clusterblast-cluster"  >
<text y="20" x="5" class="clusterblast-acc"  >
Query sequence</text>
<line y1="35" y2="35" x2="778.0" x1="10" style="stroke-width:1; stroke:grey; "  />
<polygon id="dummy-1_q0_0_all" locus_tag="cds95330_95456" description="&lt;b&gt;cds95330_95456&lt;/b&gt;&lt;br&gt;hypothetical protein&lt;br&gt;Location: 95330 - 95456" points="0,40 6,40 11,35 6,30 0,30 0,40 " class="clusterblast-orf" style="stroke-width:1; stroke:black; fill:white; "  />
<polygon id="dummy-1_q1_0_all" locus_tag="cds95513_95711" description="&lt;b&gt;cds95513_95711&lt;/b&gt;&lt;br&gt;FIG01126409: hypothetical protein&lt;br&gt;Location: 95513 - 95711" points="15,35 20,30 32,30 32,40 20,40 15,35 " class="clusterblast-orf" style="stroke-width:1; stroke:black; fill:#d81515; "  />
<polygon id="dummy-1_q2_0_all" locus_tag="cds95719_96388" description="&lt;b&gt;cds95719_96388&lt;/b&gt;&lt;br&gt;putative integral membrane protein&lt;br&gt;Location: 95719 - 96388" points="32,35 37,30 87,30 87,40 37,40 32,35 " class="clusterblast-orf" style="stroke-width:1; stroke:black; fill:#3cd815; "  />
<polygon id="dummy-1_q3_0_all" locus_tag="cds96384_97287" description="&lt;b&gt;cds96384_97287&lt;/b&gt;&lt;br&gt;Efflux ABC transporter, ATP-binding protein&lt;br&gt;Location: 96384 - 97287" points="87,35 92,30 161,30 161,40 92,40 87,35 " class="clusterblast-orf" style="stroke-width:1; stroke:black; fill:#1563d8; "  />
<polygon id="dummy-1_q4_0_all" locus_tag="cds97304_97979" description="&lt;b&gt;cds97304_97979&lt;/b&gt;&lt;br&gt;hypothetical protein&lt;br&gt;Location: 97304 - 97979" points="162,35 167,30 218,30 218,40 167,40 162,35 " class="clusterblast-orf" style="stroke-width:1; stroke:black; fill:#b115d8; "  />
<polygon id="dummy-1_q5_0_all" locus_tag="cds98020_98779" description="&lt;b&gt;cds98020_98779&lt;/b&gt;&lt;br&gt;hypothetical protein&lt;br&gt;Location: 98020 - 98779" points="221,40 278,40 283,35 278,30 221,30 221,40 " class="clusterblast-orf" style="stroke-width:1; stroke:black; fill:#d88a15; "  />
<polygon id="dummy-1_q6_0_all" locus_tag="cds98977_99727" description="&lt;b&gt;cds98977_99727&lt;/b&gt;&lt;br&gt;putative secreted protein&lt;br&gt;Location: 98977 - 99727" points="300,40 356,40 361,35 356,30 300,30 300,40 " class="clusterblast-orf" style="stroke-width:1; stroke:black; fill:#15d863; "  />
<polygon id="dummy-1_q7_0_all" locus_tag="cds99848_101177" description="&lt;b&gt;cds99848_101177&lt;/b&gt;&lt;br&gt;hypothetical protein&lt;br&gt;Location: 99848 - 101177" points="371,40 475,40 480,35 475,30 371,30 371,40 " class="clusterblast-orf" style="stroke-width:1; stroke:black; fill:#3c15d8; "  />
<polygon id="dummy-1_q8_0_all" locus_tag="cds101182_102235" description="&lt;b&gt;cds101182_102235&lt;/b&gt;&lt;br&gt;hypothetical protein&lt;br&gt;Location: 101182 - 102235" points="481,40 562,40 567,35 562,30 481,30 481,40 " class="clusterblast-orf" style="stroke-width:1; stroke:black; fill:#d8158a; "  />
<polygon id="dummy-1_q9_0_all" locus_tag="cds102384_103947" description="&lt;b&gt;cds102384_103947&lt;/b&gt;&lt;br&gt;putative secreted tripeptidylaminopeptidase&lt;br&gt;Location: 102384 - 103947" points="579,40 702,40 707,35 702,30 579,30 579,40 " class="clusterblast-orf" style="stroke-width:1; stroke:black; fill:#b1d815; "  />
<polygon id="dummy-1_q10_0_all" locus_tag="cds104106_104835" description="&lt;b&gt;cds104106_104835&lt;/b&gt;&lt;br&gt;Coproheme decarboxylase HemQ (no EC)&lt;br&gt;Location: 104106 - 104835" points="720,35 725,30 780,30 780,40 725,40 720,35 " class="clusterblast-orf" style="stroke-width:1; stroke:black; fill:#15d8d8; "  />
</g>
<g description="NZ_KL573543 (113020-124370): Streptomyces baarnensis strain NRRL B-2842 P144 ... (100% of genes show similarity), bacteriocin" label="NZ_KL573543" class="clusterblast-cluster"  >
<text y="70" x="5" class="clusterblast-acc"  >
<a xlink:href="https://antismash-db.secondarymetabolites.org/area.html?record=NZ_KL573543&amp;start=113020&amp;end=124370" target="_blank">NZ_KL573543 (113020-124370)</a>: Streptomyces baarnensis strain NRRL B-2842 P144 ... (100% of genes show similarity), bacteriocin</text>
<line y1="85" y2="85" x2="778.0" x1="10" style="stroke-width:1; stroke:grey; "  />
</g>
<g id="a1_000"  >
<polygon id="dummy-1_h1_8_0" locus_tag="BG84_RS0110645" description="&lt;b&gt;BG84_RS0110645&lt;/b&gt;&lt;br&gt;hypothetical protein&lt;br&gt;Location: 113534 - 113767&lt;br&gt;&lt;br&gt;&lt;b&gt;BlastP hit with cds95513_95711&lt;/b&gt;&lt;br&gt;Percentage identity: 81&lt;br&gt;Percentage coverage: 98&lt;br&gt;BLAST bit score: 117&lt;br&gt;E-value: 5.7e-25" points="0,85 5,80 20,80 20,90 5,90 0,85 " class="clusterblast-orf" style="stroke-width:1; stroke:black; fill:#d81515; "  />
</g>
<g id="a1_001"  >
<polygon id="dummy-1_h1_8_1" locus_tag="BG84_RS0110650" description="&lt;b&gt;BG84_RS0110650&lt;/b&gt;&lt;br&gt;hypothetical protein&lt;br&gt;Location: 113777 - 114439&lt;br&gt;&lt;br&gt;&lt;b&gt;BlastP hit with cds95719_96388&lt;/b&gt;&lt;br&gt;Percentage identity: 78&lt;br&gt;Percentage coverage: 100&lt;br&gt;BLAST bit score: 287&lt;br&gt;E-value: 8.3e-76" points="20,85 25,80 75,80 75,90 25,90 20,85 " class="clusterblast-orf" style="stroke-width:1; stroke:black; fill:#3cd815; "  />
</g>
<g id="a1_002"  >
<polygon id="dummy-1_h1_8_2" locus_tag="BG84_RS0110655" description="&lt;b&gt;BG84_RS0110655&lt;/b&gt;&lt;br&gt;ATP-binding cassette domain-containing protein&lt;br&gt;Location: 114436 - 115407&lt;br&gt;&lt;br&gt;&lt;b&gt;BlastP hit with cds96384_97287&lt;/b&gt;&lt;br&gt;Percentage identity: 76&lt;br&gt;Percentage coverage: 99&lt;br&gt;BLAST bit score: 417&lt;br&gt;E-value: 1.2e-114" points="75,85 80,80 154,80 154,90 80,90 75,85 " class="clusterblast-orf" style="stroke-width:1; stroke:black; fill:#1563d8; "  />
</g>
<g id="a1_003"  >
<polygon id="dummy-1_h1_8_3" locus_tag="BG84_RS0110660" description="&lt;b&gt;BG84_RS0110660&lt;/b&gt;&lt;br&gt;AIM24 family protein&lt;br&gt;Location: 115458 - 116132&lt;br&gt;&lt;br&gt;&lt;b&gt;BlastP hit with cds97304_97979&lt;/b&gt;&lt;br&gt;Percentage identity: 99&lt;br&gt;Percentage coverage: 100&lt;br&gt;BLAST bit score: 440&lt;br&gt;E-value: 7.7e-122" points="158,85 163,80 214,80 214,90 163,90 158,85 " class="clusterblast-orf" style="stroke-width:1; stroke:black; fill:#b115d8; "  />
</g>
<g id="a1_004"  >
<polygon id="dummy-1_h1_8_4" locus_tag="BG84_RS0110665" description="&lt;b&gt;BG84_RS0110665&lt;/b&gt;&lt;br&gt;peptidyl-tRNA hydrolase&lt;br&gt;Location: 116203 - 116925&lt;br&gt;&lt;br&gt;&lt;b&gt;BlastP hit with cds98020_98779&lt;/b&gt;&lt;br&gt;Percentage identity: 93&lt;br&gt;Percentage coverage: 96&lt;br&gt;BLAST bit score: 456&lt;br&gt;E-value: 1.2e-126" points="220,90 274,90 279,85 274,80 220,80 220,90 " class="clusterblast-orf" style="stroke-width:1; stroke:black; fill:#d88a15; "  />
</g>
<g id="a1_005"  >
<polygon id="dummy-1_h1_8_5" locus_tag="BG84_RS0110670" description="&lt;b&gt;BG84_RS0110670&lt;/b&gt;&lt;br&gt;DUF4142 domain-containing protein&lt;br&gt;Location: 117141 - 117890&lt;br&gt;&lt;br&gt;&lt;b&gt;BlastP hit with cds98977_99727&lt;/b&gt;&lt;br&gt;Percentage identity: 97&lt;br&gt;Percentage coverage: 100&lt;br&gt;BLAST bit score: 466&lt;br&gt;E-value: 1.5e-129" points="296,90 353,90 358,85 353,80 296,80 296,90 " class="clusterblast-orf" style="stroke-width:1; stroke:black; fill:#15d863; "  />
</g>
<g id="a1_006"  >
<polygon id="dummy-1_h1_8_6" locus_tag="BG84_RS0110675" description="&lt;b&gt;BG84_RS0110675&lt;/b&gt;&lt;br&gt;DUF692 domain-containing protein&lt;br&gt;Location: 118021 - 119370&lt;br&gt;&lt;br&gt;&lt;b&gt;BlastP hit with cds99848_101177&lt;/b&gt;&lt;br&gt;Percentage identity: 82&lt;br&gt;Percentage coverage: 102&lt;br&gt;BLAST bit score: 663&lt;br&gt;E-value: 1.5e-188" points="369,90 474,90 479,85 474,80 369,80 369,90 " class="clusterblast-orf" style="stroke-width:1; stroke:black; fill:#3c15d8; "  />
</g>
<g id="a1_007"  >
<polygon id="dummy-1_h1_8_7" locus_tag="BG84_RS0110680" description="&lt;b&gt;BG84_RS0110680&lt;/b&gt;&lt;br&gt;TIGR04222 domain-containing membrane protein&lt;br&gt;Location: 119286 - 120416&lt;br&gt;&lt;br&gt;&lt;b&gt;BlastP hit with cds101182_102235&lt;/b&gt;&lt;br&gt;Percentage identity: 74&lt;br&gt;Percentage coverage: 71&lt;br&gt;BLAST bit score: 346&lt;br&gt;E-value: 2.4e-93" points="473,90 560,90 565,85 560,80 473,80 473,90 " class="clusterblast-orf" style="stroke-width:1; stroke:black; fill:#d8158a; "  />
</g>
<g id="a1_008"  >
<polygon id="dummy-1_h1_8_8" locus_tag="BG84_RS0110685" description="&lt;b&gt;BG84_RS0110685&lt;/b&gt;&lt;br&gt;alpha/beta hydrolase&lt;br&gt;Location: 120576 - 122138&lt;br&gt;&lt;br&gt;&lt;b&gt;BlastP hit with cds102384_103947&lt;/b&gt;&lt;br&gt;Percentage identity: 93&lt;br&gt;Percentage coverage: 100&lt;br&gt;BLAST bit score: 961&lt;br&gt;E-value: 4e-278" points="578,90 702,90 707,85 702,80 578,80 578,90 " class="clusterblast-orf" style="stroke-width:1; stroke:black; fill:#b1d815; "  />
</g>
<g id="a1_009"  >
<polygon id="dummy-1_h1_8_9" locus_tag="BG84_RS0110690" description="&lt;b&gt;BG84_RS0110690&lt;/b&gt;&lt;br&gt;chlorite dismutase family protein&lt;br&gt;Location: 122287 - 123015&lt;br&gt;&lt;br&gt;&lt;b&gt;BlastP hit with cds104106_104835&lt;/b&gt;&lt;br&gt;Percentage identity: 99&lt;br&gt;Percentage coverage: 100&lt;br&gt;BLAST bit score: 495&lt;br&gt;E-value: 2.2e-138" points="719,85 724,80 779,80 779,90 724,90 719,85 " class="clusterblast-orf" style="stroke-width:1; stroke:black; fill:#15d8d8; "  />
</g>
</svg>
