<svg height="230" x="0" viewBox="0 0 800 230" y="0" width="800" xmlns="http://www.w3.org/2000/svg" preserveAspectRatio="none" version="1.1" xmlns:xlink="http://www.w3.org/1999/xlink"  >
<g label="Query sequence" class="clusterblast-cluster"  >
<text y="20" x="5" class="clusterblast-acc"  >
Query sequence</text>
<line y1="35" y2="35" x2="778.0" x1="10" style="stroke-width:1; stroke:grey; "  />
<polygon id="dummy-1_q0_0_all" locus_tag="cds101585_102548" description="&lt;b&gt;cds101585_102548&lt;/b&gt;&lt;br&gt;1D-myo-inositol 2-acetamido-2-deoxy-alpha-D-glucopyranoside deacetylase (EC 3.5.1.103)&lt;br&gt;Location: 101585 - 102548" points="154,40 184,40 189,35 184,30 154,30 154,40 " class="clusterblast-orf" style="stroke-width:1; stroke:black; fill:#d81515; "  />
<polygon id="dummy-1_q1_0_all" locus_tag="cds102544_103018" description="&lt;b&gt;cds102544_103018&lt;/b&gt;&lt;br&gt;Integral membrane protein&lt;br&gt;Location: 102544 - 103018" points="189,40 201,40 206,35 201,30 189,30 189,40 " class="clusterblast-orf" style="stroke-width:1; stroke:black; fill:#3cd815; "  />
<polygon id="dummy-1_q2_0_all" locus_tag="cds103337_105488" description="&lt;b&gt;cds103337_105488&lt;/b&gt;&lt;br&gt;hypothetical protein&lt;br&gt;Location: 103337 - 105488" points="218,40 291,40 296,35 291,30 218,30 218,40 " class="clusterblast-orf" style="stroke-width:1; stroke:black; fill:#1563d8; "  />
<polygon id="dummy-1_q3_0_all" locus_tag="cds105597_107382" description="&lt;b&gt;cds105597_107382&lt;/b&gt;&lt;br&gt;putative secreted protein&lt;br&gt;Location: 105597 - 107382" points="300,35 305,30 365,30 365,40 305,40 300,35 " class="clusterblast-orf" style="stroke-width:1; stroke:black; fill:#b115d8; "  />
<polygon id="dummy-1_q4_0_all" locus_tag="cds107691_108198" description="&lt;b&gt;cds107691_108198&lt;/b&gt;&lt;br&gt;hypothetical protein&lt;br&gt;Location: 107691 - 108198" points="376,40 390,40 395,35 390,30 376,30 376,40 " class="clusterblast-orf" style="stroke-width:1; stroke:black; fill:#d88a15; "  />
<polygon id="dummy-1_q5_0_all" locus_tag="cds108297_108882" description="&lt;b&gt;cds108297_108882&lt;/b&gt;&lt;br&gt;putative sugar acetyltransferase&lt;br&gt;Location: 108297 - 108882" points="399,35 404,30 420,30 420,40 404,40 399,35 " class="clusterblast-orf" style="stroke-width:1; stroke:black; fill:#15d863; "  />
<polygon id="dummy-1_q6_0_all" locus_tag="cds108878_110132" description="&lt;b&gt;cds108878_110132&lt;/b&gt;&lt;br&gt;Integral membrane protein&lt;br&gt;Location: 108878 - 110132" points="420,35 425,30 465,30 465,40 425,40 420,35 " class="clusterblast-orf" style="stroke-width:1; stroke:black; fill:#3c15d8; "  />
<polygon id="dummy-1_q7_0_all" locus_tag="cds110289_111279" description="&lt;b&gt;cds110289_111279&lt;/b&gt;&lt;br&gt;Transcriptional regulator, ArsR family&lt;br&gt;Location: 110289 - 111279" points="471,40 502,40 507,35 502,30 471,30 471,40 " class="clusterblast-orf" style="stroke-width:1; stroke:black; fill:#d8158a; "  />
<polygon id="dummy-1_q8_0_all" locus_tag="cds111497_114356" description="&lt;b&gt;cds111497_114356&lt;/b&gt;&lt;br&gt;Lanthionine biosynthesis protein LanL&lt;br&gt;Location: 111497 - 114356" points="515,40 614,40 619,35 614,30 515,30 515,40 " class="clusterblast-orf" style="stroke-width:1; stroke:black; fill:#b1d815; "  />
<polygon id="dummy-1_q9_0_all" locus_tag="cds114401_114533" description="&lt;b&gt;cds114401_114533&lt;/b&gt;&lt;br&gt;Lanthionine precursor peptide LanA&lt;br&gt;Location: 114401 - 114533" points="621,40 621,40 626,35 621,30 621,30 621,40 " class="clusterblast-orf" style="stroke-width:1; stroke:black; fill:#15d8d8; "  />
</g>
<g description="NZ_LIXK01000001 (846090-868838): Streptomyces sp. CB02130 scaffold1, whole ge... (52% of genes show similarity), lanthipeptide" label="NZ_LIXK01000001" class="clusterblast-cluster"  >
<text y="70" x="5" class="clusterblast-acc"  >
<a xlink:href="https://antismash-db.secondarymetabolites.org/area.html?record=NZ_LIXK01000001&amp;start=846090&amp;end=868838" target="_blank">NZ_LIXK01000001 (846090-868838)</a>: Streptomyces sp. CB02130 scaffold1, whole ge... (52% of genes show similarity), lanthipeptide</text>
<line y1="85" y2="85" x2="778.0" x1="10" style="stroke-width:1; stroke:grey; "  />
</g>
<g id="a1_000"  >
<polygon id="dummy-1_h1_10_0" locus_tag="AMK23_RS04035" description="&lt;b&gt;AMK23_RS04035&lt;/b&gt;&lt;br&gt;N-acetyl-1-D-myo-inositol-2-amino-2-deoxy-alpha- D-glucopyranoside deacetylase&lt;br&gt;Location: 846359 - 847294&lt;br&gt;&lt;br&gt;&lt;b&gt;BlastP hit with cds101585_102548&lt;/b&gt;&lt;br&gt;Percentage identity: 89&lt;br&gt;Percentage coverage: 100&lt;br&gt;BLAST bit score: 567&lt;br&gt;E-value: 6e-160" points="0,90 29,90 34,85 29,80 0,80 0,90 " class="clusterblast-orf" style="stroke-width:1; stroke:black; fill:#d81515; "  />
</g>
<g id="a1_001"  >
<polygon id="dummy-1_h1_10_1" locus_tag="AMK23_RS04040" description="&lt;b&gt;AMK23_RS04040&lt;/b&gt;&lt;br&gt;hypothetical protein&lt;br&gt;Location: 847291 - 847764&lt;br&gt;&lt;br&gt;&lt;b&gt;BlastP hit with cds102544_103018&lt;/b&gt;&lt;br&gt;Percentage identity: 98&lt;br&gt;Percentage coverage: 100&lt;br&gt;BLAST bit score: 292&lt;br&gt;E-value: 3.1e-77" points="33,90 46,90 51,85 46,80 33,80 33,90 " class="clusterblast-orf" style="stroke-width:1; stroke:black; fill:#3cd815; "  />
</g>
<g id="a1_002"  >
<polygon id="dummy-1_h1_10_2" locus_tag="AMK23_RS04045" description="&lt;b&gt;AMK23_RS04045&lt;/b&gt;&lt;br&gt;hypothetical protein&lt;br&gt;Location: 847999 - 848196" points="59,85 64,80 66,80 66,90 64,90 59,85 " class="clusterblast-orf" style="stroke-width:1; stroke:black; fill:white; "  />
</g>
<g id="a1_003"  >
<polygon id="dummy-1_h1_10_3" locus_tag="AMK23_RS04050" description="&lt;b&gt;AMK23_RS04050&lt;/b&gt;&lt;br&gt;hypothetical protein&lt;br&gt;Location: 848195 - 850129&lt;br&gt;&lt;br&gt;&lt;b&gt;BlastP hit with cds103337_105488&lt;/b&gt;&lt;br&gt;Percentage identity: 88&lt;br&gt;Percentage coverage: 95&lt;br&gt;BLAST bit score: 712&lt;br&gt;E-value: 4.4e-203" points="66,90 132,90 137,85 132,80 66,80 66,90 " class="clusterblast-orf" style="stroke-width:1; stroke:black; fill:#1563d8; "  />
</g>
<g id="a1_004"  >
<polygon id="dummy-1_h1_10_4" locus_tag="AMK23_RS04055" description="&lt;b&gt;AMK23_RS04055&lt;/b&gt;&lt;br&gt;coagulation factor 5/8 type domain-containing protein&lt;br&gt;Location: 850214 - 851998&lt;br&gt;&lt;br&gt;&lt;b&gt;BlastP hit with cds105597_107382&lt;/b&gt;&lt;br&gt;Percentage identity: 99&lt;br&gt;Percentage coverage: 100&lt;br&gt;BLAST bit score: 1215&lt;br&gt;E-value: 0.0" points="140,85 145,80 205,80 205,90 145,90 140,85 " class="clusterblast-orf" style="stroke-width:1; stroke:black; fill:#b115d8; "  />
</g>
<g id="a1_005"  >
<polygon id="dummy-1_h1_10_5" locus_tag="AMK23_RS04060" description="&lt;b&gt;AMK23_RS04060&lt;/b&gt;&lt;br&gt;DUF4265 domain-containing protein&lt;br&gt;Location: 852297 - 852803&lt;br&gt;&lt;br&gt;&lt;b&gt;BlastP hit with cds107691_108198&lt;/b&gt;&lt;br&gt;Percentage identity: 91&lt;br&gt;Percentage coverage: 100&lt;br&gt;BLAST bit score: 331&lt;br&gt;E-value: 5e-89" points="216,90 229,90 234,85 229,80 216,80 216,90 " class="clusterblast-orf" style="stroke-width:1; stroke:black; fill:#d88a15; "  />
</g>
<g id="a1_006"  >
<polygon id="dummy-1_h1_10_6" locus_tag="AMK23_RS04065" description="&lt;b&gt;AMK23_RS04065&lt;/b&gt;&lt;br&gt;sugar O-acetyltransferase&lt;br&gt;Location: 852885 - 853469&lt;br&gt;&lt;br&gt;&lt;b&gt;BlastP hit with cds108297_108882&lt;/b&gt;&lt;br&gt;Percentage identity: 97&lt;br&gt;Percentage coverage: 100&lt;br&gt;BLAST bit score: 344&lt;br&gt;E-value: 6.5e-93" points="237,85 242,80 258,80 258,90 242,90 237,85 " class="clusterblast-orf" style="stroke-width:1; stroke:black; fill:#15d863; "  />
</g>
<g id="a1_007"  >
<polygon id="dummy-1_h1_10_7" locus_tag="AMK23_RS04070" description="&lt;b&gt;AMK23_RS04070&lt;/b&gt;&lt;br&gt;hypothetical protein&lt;br&gt;Location: 853466 - 854725&lt;br&gt;&lt;br&gt;&lt;b&gt;BlastP hit with cds108878_110132&lt;/b&gt;&lt;br&gt;Percentage identity: 94&lt;br&gt;Percentage coverage: 100&lt;br&gt;BLAST bit score: 699&lt;br&gt;E-value: 1.7e-199" points="258,85 263,80 304,80 304,90 263,90 258,85 " class="clusterblast-orf" style="stroke-width:1; stroke:black; fill:#3c15d8; "  />
</g>
<g id="a1_008"  >
<polygon id="dummy-1_h1_10_8" locus_tag="AMK23_RS04075" description="&lt;b&gt;AMK23_RS04075&lt;/b&gt;&lt;br&gt;helix-turn-helix transcriptional regulator&lt;br&gt;Location: 854895 - 855872&lt;br&gt;&lt;br&gt;&lt;b&gt;BlastP hit with cds110289_111279&lt;/b&gt;&lt;br&gt;Percentage identity: 90&lt;br&gt;Percentage coverage: 99&lt;br&gt;BLAST bit score: 583&lt;br&gt;E-value: 1.4e-164" points="310,90 341,90 346,85 341,80 310,80 310,90 " class="clusterblast-orf" style="stroke-width:1; stroke:black; fill:#d8158a; "  />
</g>
<g id="a1_009"  >
<polygon id="dummy-1_h1_10_9" locus_tag="AMK23_RS04080" description="&lt;b&gt;AMK23_RS04080&lt;/b&gt;&lt;br&gt;protein kinase/lanthionine synthetase C family protein&lt;br&gt;Location: 856091 - 858838&lt;br&gt;&lt;br&gt;&lt;b&gt;BlastP hit with cds111497_114356&lt;/b&gt;&lt;br&gt;Percentage identity: 91&lt;br&gt;Percentage coverage: 99&lt;br&gt;BLAST bit score: 1512&lt;br&gt;E-value: 0.0" points="354,90 449,90 454,85 449,80 354,80 354,90 " class="clusterblast-orf" style="stroke-width:1; stroke:black; fill:#b1d815; "  />
</g>
<g id="a1_0010"  >
<polygon id="dummy-1_h1_10_10" locus_tag="AMK23_RS04085" description="&lt;b&gt;AMK23_RS04085&lt;/b&gt;&lt;br&gt;SapB/AmfS family lantipeptide&lt;br&gt;Location: 858920 - 859051&lt;br&gt;&lt;br&gt;&lt;b&gt;BlastP hit with cds114401_114533&lt;/b&gt;&lt;br&gt;Percentage identity: 100&lt;br&gt;Percentage coverage: 100&lt;br&gt;BLAST bit score: 85&lt;br&gt;E-value: 1.6e-15" points="457,90 457,90 462,85 457,80 457,80 457,90 " class="clusterblast-orf" style="stroke-width:1; stroke:black; fill:#15d8d8; "  />
</g>
<g id="a1_0011"  >
<polygon id="dummy-1_h1_10_11" locus_tag="AMK23_RS04090" description="&lt;b&gt;AMK23_RS04090&lt;/b&gt;&lt;br&gt;ABC transporter ATP-binding protein&lt;br&gt;Location: 859144 - 860892" points="465,90 524,90 529,85 524,80 465,80 465,90 " class="clusterblast-orf" style="stroke-width:1; stroke:black; fill:white; "  />
</g>
<g id="a1_0012"  >
<polygon id="dummy-1_h1_10_12" locus_tag="AMK23_RS04095" description="&lt;b&gt;AMK23_RS04095&lt;/b&gt;&lt;br&gt;ABC transporter ATP-binding protein&lt;br&gt;Location: 860889 - 862778" points="529,90 592,90 597,85 592,80 529,80 529,90 " class="clusterblast-orf" style="stroke-width:1; stroke:black; fill:white; "  />
</g>
<g id="a1_0013"  >
<polygon id="dummy-1_h1_10_13" locus_tag="AMK23_RS04100" description="&lt;b&gt;AMK23_RS04100&lt;/b&gt;&lt;br&gt;response regulator transcription factor&lt;br&gt;Location: 862747 - 863352" points="596,85 601,80 618,80 618,90 601,90 596,85 " class="clusterblast-orf" style="stroke-width:1; stroke:black; fill:white; "  />
</g>
<g id="a1_0014"  >
<polygon id="dummy-1_h1_10_14" locus_tag="AMK23_RS04105" description="&lt;b&gt;AMK23_RS04105&lt;/b&gt;&lt;br&gt;tetratricopeptide repeat protein&lt;br&gt;Location: 863655 - 864536" points="629,85 634,80 661,80 661,90 634,90 629,85 " class="clusterblast-orf" style="stroke-width:1; stroke:black; fill:white; "  />
</g>
<g id="a1_0015"  >
<polygon id="dummy-1_h1_10_15" locus_tag="AMK23_RS04110" description="&lt;b&gt;AMK23_RS04110&lt;/b&gt;&lt;br&gt;GNAT family N-acetyltransferase&lt;br&gt;Location: 864607 - 865602" points="664,85 669,80 700,80 700,90 669,90 664,85 " class="clusterblast-orf" style="stroke-width:1; stroke:black; fill:white; "  />
</g>
<g id="a1_0016"  >
<polygon id="dummy-1_h1_10_16" locus_tag="AMK23_RS04115" description="&lt;b&gt;AMK23_RS04115&lt;/b&gt;&lt;br&gt;ferredoxin family protein&lt;br&gt;Location: 865720 - 866040" points="705,90 711,90 716,85 711,80 705,80 705,90 " class="clusterblast-orf" style="stroke-width:1; stroke:black; fill:white; "  />
</g>
<g id="a1_0017"  >
<polygon id="dummy-1_h1_10_17" locus_tag="AMK23_RS04120" description="&lt;b&gt;AMK23_RS04120&lt;/b&gt;&lt;br&gt;succinyldiaminopimelate transaminase&lt;br&gt;Location: 866151 - 867245" points="720,90 755,90 760,85 755,80 720,80 720,90 " class="clusterblast-orf" style="stroke-width:1; stroke:black; fill:white; "  />
</g>
<g id="a1_0018"  >
<polygon id="dummy-1_h1_10_18" locus_tag="AMK23_RS04125" description="&lt;b&gt;AMK23_RS04125&lt;/b&gt;&lt;br&gt;hypothetical protein&lt;br&gt;Location: 867312 - 867779" points="762,85 767,80 780,80 780,90 767,90 762,85 " class="clusterblast-orf" style="stroke-width:1; stroke:black; fill:white; "  />
</g>
</svg>
