<svg height="230" x="0" viewBox="0 0 800 230" y="0" width="800" xmlns="http://www.w3.org/2000/svg" preserveAspectRatio="none" version="1.1" xmlns:xlink="http://www.w3.org/1999/xlink"  >
<g label="Query sequence" class="clusterblast-cluster"  >
<text y="20" x="5" class="clusterblast-acc"  >
Query sequence</text>
<line y1="35" y2="35" x2="778.0" x1="10" style="stroke-width:1; stroke:grey; "  />
<polygon id="dummy-1_q0_0_all" locus_tag="cds33837_34689" description="&lt;b&gt;cds33837_34689&lt;/b&gt;&lt;br&gt;Trehalose-6-phosphate phosphatase (EC 3.1.3.12)&lt;br&gt;Location: 33837 - 34689" points="249,40 255,40 260,35 255,30 249,30 249,40 " class="clusterblast-orf" style="stroke-width:1; stroke:black; fill:#d81515; "  />
<polygon id="dummy-1_q1_0_all" locus_tag="cds34797_36189" description="&lt;b&gt;cds34797_36189&lt;/b&gt;&lt;br&gt;Alpha,alpha-trehalose-phosphate synthase [UDP-forming] (EC 2.4.1.15)&lt;br&gt;Location: 34797 - 36189" points="261,35 266,30 279,30 279,40 266,40 261,35 " class="clusterblast-orf" style="stroke-width:1; stroke:black; fill:#54d815; "  />
<polygon id="dummy-1_q2_0_all" locus_tag="cds36310_37261" description="&lt;b&gt;cds36310_37261&lt;/b&gt;&lt;br&gt;Glucosyl-3-phosphoglycerate synthase (EC 2.4.1.266)&lt;br&gt;Location: 36310 - 37261" points="281,35 286,30 293,30 293,40 286,40 281,35 " class="clusterblast-orf" style="stroke-width:1; stroke:black; fill:#15c1d8; "  />
<polygon id="dummy-1_q3_0_all" locus_tag="cds37560_38856" description="&lt;b&gt;cds37560_38856&lt;/b&gt;&lt;br&gt;Threonine-synthase-like protein 1&lt;br&gt;Location: 37560 - 38856" points="297,40 309,40 314,35 309,30 297,30 297,40 " class="clusterblast-orf" style="stroke-width:1; stroke:black; fill:#8215d8; "  />
<polygon id="dummy-1_q4_0_all" locus_tag="cds38891_39170" description="&lt;b&gt;cds38891_39170&lt;/b&gt;&lt;br&gt;MoaD/ThiS family protein clustered with threonine synthase&lt;br&gt;Location: 38891 - 39170" points="314,40 318,35 314,30 314,40 " class="clusterblast-orf" style="stroke-width:1; stroke:black; fill:#d84415; "  />
<polygon id="dummy-1_q5_0_all" locus_tag="cds39623_39830" description="&lt;b&gt;cds39623_39830&lt;/b&gt;&lt;br&gt;Cold shock protein of CSP family&lt;br&gt;Location: 39623 - 39830" points="324,40 327,35 324,30 324,40 " class="clusterblast-orf" style="stroke-width:1; stroke:black; fill:#25d815; "  />
<polygon id="dummy-1_q6_0_all" locus_tag="cds40061_40214" description="&lt;b&gt;cds40061_40214&lt;/b&gt;&lt;br&gt;hypothetical protein&lt;br&gt;Location: 40061 - 40214" points="330,35 332,30 332,40 330,35 " class="clusterblast-orf" style="stroke-width:1; stroke:black; fill:white; "  />
<polygon id="dummy-1_q7_0_all" locus_tag="cds40214_41837" description="&lt;b&gt;cds40214_41837&lt;/b&gt;&lt;br&gt;Heat shock protein 60 kDa family chaperone GroEL&lt;br&gt;Location: 40214 - 41837" points="332,40 348,40 353,35 348,30 332,30 332,40 " class="clusterblast-orf" style="stroke-width:1; stroke:black; fill:#1592d8; "  />
<polygon id="dummy-1_q8_0_all" locus_tag="cds42084_42594" description="&lt;b&gt;cds42084_42594&lt;/b&gt;&lt;br&gt;hypothetical protein&lt;br&gt;Location: 42084 - 42594" points="356,40 358,40 363,35 358,30 356,30 356,40 " class="clusterblast-orf" style="stroke-width:1; stroke:black; fill:#b115d8; "  />
<polygon id="dummy-1_q9_0_all" locus_tag="cds43174_43306" description="&lt;b&gt;cds43174_43306&lt;/b&gt;&lt;br&gt;hypothetical protein&lt;br&gt;Location: 43174 - 43306" points="370,40 372,35 370,30 370,40 " class="clusterblast-orf" style="stroke-width:1; stroke:black; fill:#d87315; "  />
<polygon id="dummy-1_q10_0_all" locus_tag="cds43356_45306" description="&lt;b&gt;cds43356_45306&lt;/b&gt;&lt;br&gt;Asparagine synthetase [glutamine-hydrolyzing] (EC 6.3.5.4)&lt;br&gt;Location: 43356 - 45306" points="372,40 393,40 398,35 393,30 372,30 372,40 " class="clusterblast-orf" style="stroke-width:1; stroke:black; fill:#15d834; "  />
<polygon id="dummy-1_q11_0_all" locus_tag="cds45334_45586" description="&lt;b&gt;cds45334_45586&lt;/b&gt;&lt;br&gt;hypothetical protein&lt;br&gt;Location: 45334 - 45586" points="398,40 401,35 398,30 398,40 " class="clusterblast-orf" style="stroke-width:1; stroke:black; fill:#1563d8; "  />
<polygon id="dummy-1_q12_0_all" locus_tag="cds45582_46092" description="&lt;b&gt;cds45582_46092&lt;/b&gt;&lt;br&gt;hypothetical protein&lt;br&gt;Location: 45582 - 46092" points="401,40 403,40 408,35 403,30 401,30 401,40 " class="clusterblast-orf" style="stroke-width:1; stroke:black; fill:#d815d0; "  />
<polygon id="dummy-1_q13_0_all" locus_tag="cds46279_47908" description="&lt;b&gt;cds46279_47908&lt;/b&gt;&lt;br&gt;Efflux ABC transporter, permease/ATP-binding protein SCO0742&lt;br&gt;Location: 46279 - 47908" points="410,40 427,40 432,35 427,30 410,30 410,40 " class="clusterblast-orf" style="stroke-width:1; stroke:black; fill:#d8a215; "  />
<polygon id="dummy-1_q14_0_all" locus_tag="cds47972_48560" description="&lt;b&gt;cds47972_48560&lt;/b&gt;&lt;br&gt;hypothetical protein&lt;br&gt;Location: 47972 - 48560" points="432,35 437,30 440,30 440,40 437,40 432,35 " class="clusterblast-orf" style="stroke-width:1; stroke:black; fill:#15d863; "  />
<polygon id="dummy-1_q15_0_all" locus_tag="cds48736_49327" description="&lt;b&gt;cds48736_49327&lt;/b&gt;&lt;br&gt;Protein tyrosine phosphatase (EC 3.1.3.48)&lt;br&gt;Location: 48736 - 49327" points="442,40 445,40 450,35 445,30 442,30 442,40 " class="clusterblast-orf" style="stroke-width:1; stroke:black; fill:#1534d8; "  />
<polygon id="dummy-1_q16_0_all" locus_tag="cds49476_49977" description="&lt;b&gt;cds49476_49977&lt;/b&gt;&lt;br&gt;RNA polymerase ECF-type sigma factor&lt;br&gt;Location: 49476 - 49977" points="452,40 454,40 459,35 454,30 452,30 452,40 " class="clusterblast-orf" style="stroke-width:1; stroke:black; fill:#d815a2; "  />
<polygon id="dummy-1_q17_0_all" locus_tag="cds49969_50494" description="&lt;b&gt;cds49969_50494&lt;/b&gt;&lt;br&gt;hypothetical protein&lt;br&gt;Location: 49969 - 50494" points="458,40 460,40 465,35 460,30 458,30 458,40 " class="clusterblast-orf" style="stroke-width:1; stroke:black; fill:#d8d015; "  />
<polygon id="dummy-1_q18_0_all" locus_tag="cds50624_51848" description="&lt;b&gt;cds50624_51848&lt;/b&gt;&lt;br&gt;hypothetical protein&lt;br&gt;Location: 50624 - 51848" points="467,40 478,40 483,35 478,30 467,30 467,40 " class="clusterblast-orf" style="stroke-width:1; stroke:black; fill:#15d892; "  />
<polygon id="dummy-1_q19_0_all" locus_tag="cds51890_52469" description="&lt;b&gt;cds51890_52469&lt;/b&gt;&lt;br&gt;Transcriptional regulator, AcrR family&lt;br&gt;Location: 51890 - 52469" points="483,35 488,30 491,30 491,40 488,40 483,35 " class="clusterblast-orf" style="stroke-width:1; stroke:black; fill:#2515d8; "  />
<polygon id="dummy-1_q20_0_all" locus_tag="cds52560_53007" description="&lt;b&gt;cds52560_53007&lt;/b&gt;&lt;br&gt;putative membrane protein&lt;br&gt;Location: 52560 - 53007" points="492,40 493,40 498,35 493,30 492,30 492,40 " class="clusterblast-orf" style="stroke-width:1; stroke:black; fill:#d81573; "  />
<polygon id="dummy-1_q21_0_all" locus_tag="cds53043_53295" description="&lt;b&gt;cds53043_53295&lt;/b&gt;&lt;br&gt;Transcriptional regulator, MarR family&lt;br&gt;Location: 53043 - 53295" points="498,35 502,30 502,40 498,35 " class="clusterblast-orf" style="stroke-width:1; stroke:black; fill:#b1d815; "  />
<polygon id="dummy-1_q22_0_all" locus_tag="cds53309_53987" description="&lt;b&gt;cds53309_53987&lt;/b&gt;&lt;br&gt;Putative reductase&lt;br&gt;Location: 53309 - 53987" points="502,40 506,40 511,35 506,30 502,30 502,40 " class="clusterblast-orf" style="stroke-width:1; stroke:black; fill:#15d8c1; "  />
<polygon id="dummy-1_q23_0_all" locus_tag="cds54031_54235" description="&lt;b&gt;cds54031_54235&lt;/b&gt;&lt;br&gt;hypothetical protein&lt;br&gt;Location: 54031 - 54235" points="511,35 514,30 514,40 511,35 " class="clusterblast-orf" style="stroke-width:1; stroke:black; fill:#5415d8; "  />
<polygon id="dummy-1_q24_0_all" locus_tag="cds54309_54519" description="&lt;b&gt;cds54309_54519&lt;/b&gt;&lt;br&gt;hypothetical protein&lt;br&gt;Location: 54309 - 54519" points="515,35 518,30 518,40 515,35 " class="clusterblast-orf" style="stroke-width:1; stroke:black; fill:#d81544; "  />
<polygon id="dummy-1_q25_0_all" locus_tag="cds54515_55517" description="&lt;b&gt;cds54515_55517&lt;/b&gt;&lt;br&gt;hypothetical protein&lt;br&gt;Location: 54515 - 55517" points="517,35 522,30 531,30 531,40 522,40 517,35 " class="clusterblast-orf" style="stroke-width:1; stroke:black; fill:#82d815; "  />
</g>
<g description="NZ_LZRD01000023 (81612-142442): Streptomyces sp. PTY087I2 A3Q37 contig000023,... (43% of genes show similarity), NRPS,lassopeptide" label="NZ_LZRD01000023" class="clusterblast-cluster"  >
<text y="70" x="5" class="clusterblast-acc"  >
<a xlink:href="https://antismash-db.secondarymetabolites.org/area.html?record=NZ_LZRD01000023&amp;start=81612&amp;end=142442" target="_blank">NZ_LZRD01000023 (81612-142442)</a>: Streptomyces sp. PTY087I2 A3Q37 contig000023,... (43% of genes show similarity), NRPS,lassopeptide</text>
<line y1="85" y2="85" x2="778.0" x1="10" style="stroke-width:1; stroke:grey; "  />
</g>
<g id="a1_000"  >
<polygon id="dummy-1_h1_5_0" locus_tag="A3Q37_RS25190" description="&lt;b&gt;A3Q37_RS25190&lt;/b&gt;&lt;br&gt;dTMP kinase&lt;br&gt;Location: 142391 - 139116" points="0,90 37,90 42,85 37,80 0,80 0,90 " class="clusterblast-orf" style="stroke-width:1; stroke:black; fill:white; "  />
</g>
<g id="a1_001"  >
<polygon id="dummy-1_h1_5_1" locus_tag="A3Q37_RS25185" description="&lt;b&gt;A3Q37_RS25185&lt;/b&gt;&lt;br&gt;DNA polymerase III subunit delta'&lt;br&gt;Location: 138948 - 137743" points="44,90 55,90 60,85 55,80 44,80 44,90 " class="clusterblast-orf" style="stroke-width:1; stroke:black; fill:white; "  />
</g>
<g id="a1_002"  >
<polygon id="dummy-1_h1_5_2" locus_tag="A3Q37_RS25180" description="&lt;b&gt;A3Q37_RS25180&lt;/b&gt;&lt;br&gt;alpha/beta hydrolase&lt;br&gt;Location: 137602 - 136073" points="62,90 77,90 82,85 77,80 62,80 62,90 " class="clusterblast-orf" style="stroke-width:1; stroke:black; fill:white; "  />
</g>
<g id="a1_003"  >
<polygon id="dummy-1_h1_5_3" locus_tag="A3Q37_RS36900" description="&lt;b&gt;A3Q37_RS36900&lt;/b&gt;&lt;br&gt;helix-turn-helix domain-containing protein&lt;br&gt;Location: 134706 - 134047" points="99,90 103,90 108,85 103,80 99,80 99,90 " class="clusterblast-orf" style="stroke-width:1; stroke:black; fill:white; "  />
</g>
<g id="a1_004"  >
<polygon id="dummy-1_h1_5_4" locus_tag="A3Q37_RS25170" description="&lt;b&gt;A3Q37_RS25170&lt;/b&gt;&lt;br&gt;serine/threonine protein kinase&lt;br&gt;Location: 133345 - 131266" points="117,90 139,90 144,85 139,80 117,80 117,90 " class="clusterblast-orf" style="stroke-width:1; stroke:black; fill:white; "  />
</g>
<g id="a1_005"  >
<polygon id="dummy-1_h1_5_5" locus_tag="A3Q37_RS25165" description="&lt;b&gt;A3Q37_RS25165&lt;/b&gt;&lt;br&gt;dihydrouridine synthase&lt;br&gt;Location: 131226 - 130210" points="145,85 150,80 158,80 158,90 150,90 145,85 " class="clusterblast-orf" style="stroke-width:1; stroke:black; fill:white; "  />
</g>
<g id="a1_006"  >
<polygon id="dummy-1_h1_5_6" locus_tag="A3Q37_RS25160" description="&lt;b&gt;A3Q37_RS25160&lt;/b&gt;&lt;br&gt;hypothetical protein&lt;br&gt;Location: 130096 - 129188" points="159,85 164,80 171,80 171,90 164,90 159,85 " class="clusterblast-orf" style="stroke-width:1; stroke:black; fill:white; "  />
</g>
<g id="a1_007"  >
<polygon id="dummy-1_h1_5_7" locus_tag="A3Q37_RS25155" description="&lt;b&gt;A3Q37_RS25155&lt;/b&gt;&lt;br&gt;GntR family transcriptional regulator&lt;br&gt;Location: 129086 - 128331" points="172,85 177,80 182,80 182,90 177,90 172,85 " class="clusterblast-orf" style="stroke-width:1; stroke:black; fill:white; "  />
</g>
<g id="a1_008"  >
<polygon id="dummy-1_h1_5_8" locus_tag="A3Q37_RS25150" description="&lt;b&gt;A3Q37_RS25150&lt;/b&gt;&lt;br&gt;hypothetical protein&lt;br&gt;Location: 128215 - 127925" points="184,90 188,85 184,80 184,90 " class="clusterblast-orf" style="stroke-width:1; stroke:black; fill:white; "  />
</g>
<g id="a1_009"  >
<polygon id="dummy-1_h1_5_9" locus_tag="A3Q37_RS25145" description="&lt;b&gt;A3Q37_RS25145&lt;/b&gt;&lt;br&gt;diaminopimelate epimerase&lt;br&gt;Location: 127928 - 127044" points="187,90 194,90 199,85 194,80 187,80 187,90 " class="clusterblast-orf" style="stroke-width:1; stroke:black; fill:white; "  />
</g>
<g id="a1_0010"  >
<polygon id="dummy-1_h1_5_10" locus_tag="A3Q37_RS25140" description="&lt;b&gt;A3Q37_RS25140&lt;/b&gt;&lt;br&gt;helix-turn-helix transcriptional regulator&lt;br&gt;Location: 127041 - 126181" points="199,85 204,80 210,80 210,90 204,90 199,85 " class="clusterblast-orf" style="stroke-width:1; stroke:black; fill:white; "  />
</g>
<g id="a1_0011"  >
<polygon id="dummy-1_h1_5_11" locus_tag="A3Q37_RS25135" description="&lt;b&gt;A3Q37_RS25135&lt;/b&gt;&lt;br&gt;hypothetical protein&lt;br&gt;Location: 126040 - 125846" points="212,85 215,80 215,90 212,85 " class="clusterblast-orf" style="stroke-width:1; stroke:black; fill:white; "  />
</g>
<g id="a1_0012"  >
<polygon id="dummy-1_h1_5_12" locus_tag="A3Q37_RS25130" description="&lt;b&gt;A3Q37_RS25130&lt;/b&gt;&lt;br&gt;GntR family transcriptional regulator&lt;br&gt;Location: 125486 - 125082" points="219,85 224,80 224,80 224,90 224,90 219,85 " class="clusterblast-orf" style="stroke-width:1; stroke:black; fill:white; "  />
</g>
<g id="a1_0013"  >
<polygon id="dummy-1_h1_5_13" locus_tag="A3Q37_RS25125" description="&lt;b&gt;A3Q37_RS25125&lt;/b&gt;&lt;br&gt;transporter&lt;br&gt;Location: 125036 - 124041" points="225,85 230,80 238,80 238,90 230,90 225,85 " class="clusterblast-orf" style="stroke-width:1; stroke:black; fill:white; "  />
</g>
<g id="a1_0014"  >
<polygon id="dummy-1_h1_5_14" locus_tag="A3Q37_RS25120" description="&lt;b&gt;A3Q37_RS25120&lt;/b&gt;&lt;br&gt;ABC transporter ATP-binding protein&lt;br&gt;Location: 124044 - 123100" points="238,85 243,80 250,80 250,90 243,90 238,85 " class="clusterblast-orf" style="stroke-width:1; stroke:black; fill:white; "  />
</g>
<g id="a1_0015"  >
<polygon id="dummy-1_h1_5_15" locus_tag="A3Q37_RS37360" description="&lt;b&gt;A3Q37_RS37360&lt;/b&gt;&lt;br&gt;non-ribosomal peptide synthetase&lt;br&gt;Location: 122442 - 121675" points="259,90 264,90 269,85 264,80 259,80 259,90 " class="clusterblast-orf" style="stroke-width:1; stroke:black; fill:white; "  />
</g>
<g id="a1_0016"  >
<polygon id="dummy-1_h1_5_16" locus_tag="A3Q37_RS37355" description="&lt;b&gt;A3Q37_RS37355&lt;/b&gt;&lt;br&gt;hypothetical protein&lt;br&gt;Location: 120216 - 119887" points="288,90 292,85 288,80 288,90 " class="clusterblast-orf" style="stroke-width:1; stroke:black; fill:white; "  />
</g>
<g id="a1_0017"  >
<polygon id="dummy-1_h1_5_17" locus_tag="A3Q37_RS25110" description="&lt;b&gt;A3Q37_RS25110&lt;/b&gt;&lt;br&gt;non-ribosomal peptide synthetase&lt;br&gt;Location: 118787 - 116388" points="306,90 332,90 337,85 332,80 306,80 306,90 " class="clusterblast-orf" style="stroke-width:1; stroke:black; fill:white; "  />
</g>
<g id="a1_0018"  >
<polygon id="dummy-1_h1_5_18" locus_tag="A3Q37_RS35985" description="&lt;b&gt;A3Q37_RS35985&lt;/b&gt;&lt;br&gt;non-ribosomal peptide synthetase&lt;br&gt;Location: 116367 - 115204" points="338,90 348,90 353,85 348,80 338,80 338,90 " class="clusterblast-orf" style="stroke-width:1; stroke:black; fill:white; "  />
</g>
<g id="a1_0019"  >
<polygon id="dummy-1_h1_5_19" locus_tag="A3Q37_RS25105" description="&lt;b&gt;A3Q37_RS25105&lt;/b&gt;&lt;br&gt;non-ribosomal peptide synthetase&lt;br&gt;Location: 115214 - 108852" points="353,90 430,90 435,85 430,80 353,80 353,90 " class="clusterblast-orf" style="stroke-width:1; stroke:black; fill:white; "  />
</g>
<g id="a1_0020"  >
<polygon id="dummy-1_h1_5_20" locus_tag="A3Q37_RS25100" description="&lt;b&gt;A3Q37_RS25100&lt;/b&gt;&lt;br&gt;pyridoxal-phosphate dependent enzyme&lt;br&gt;Location: 108855 - 107872" points="435,90 443,90 448,85 443,80 435,80 435,90 " class="clusterblast-orf" style="stroke-width:1; stroke:black; fill:white; "  />
</g>
<g id="a1_0021"  >
<polygon id="dummy-1_h1_5_21" locus_tag="A3Q37_RS25095" description="&lt;b&gt;A3Q37_RS25095&lt;/b&gt;&lt;br&gt;4'-phosphopantetheinyl transferase superfamily protein&lt;br&gt;Location: 107648 - 107073" points="451,90 454,90 459,85 454,80 451,80 451,90 " class="clusterblast-orf" style="stroke-width:1; stroke:black; fill:white; "  />
</g>
<g id="a1_0022"  >
<polygon id="dummy-1_h1_5_22" locus_tag="A3Q37_RS25090" description="&lt;b&gt;A3Q37_RS25090&lt;/b&gt;&lt;br&gt;LuxR family transcriptional regulator&lt;br&gt;Location: 107017 - 106013" points="459,85 464,80 472,80 472,90 464,90 459,85 " class="clusterblast-orf" style="stroke-width:1; stroke:black; fill:white; "  />
</g>
<g id="a1_0023"  >
<polygon id="dummy-1_h1_5_23" locus_tag="A3Q37_RS25085" description="&lt;b&gt;A3Q37_RS25085&lt;/b&gt;&lt;br&gt;hypothetical protein&lt;br&gt;Location: 105836 - 105510" points="475,90 479,85 475,80 475,90 " class="clusterblast-orf" style="stroke-width:1; stroke:black; fill:white; "  />
</g>
<g id="a1_0024"  >
<polygon id="dummy-1_h1_5_24" locus_tag="A3Q37_RS25080" description="&lt;b&gt;A3Q37_RS25080&lt;/b&gt;&lt;br&gt;hypothetical protein&lt;br&gt;Location: 105362 - 105156" points="481,90 483,85 481,80 481,90 " class="clusterblast-orf" style="stroke-width:1; stroke:black; fill:white; "  />
</g>
<g id="a1_0025"  >
<polygon id="dummy-1_h1_5_25" locus_tag="A3Q37_RS25075" description="&lt;b&gt;A3Q37_RS25075&lt;/b&gt;&lt;br&gt;MFS transporter&lt;br&gt;Location: 105046 - 103787" points="485,90 496,90 501,85 496,80 485,80 485,90 " class="clusterblast-orf" style="stroke-width:1; stroke:black; fill:white; "  />
</g>
<g id="a1_0026"  >
<polygon id="dummy-1_h1_5_26" locus_tag="A3Q37_RS25070" description="&lt;b&gt;A3Q37_RS25070&lt;/b&gt;&lt;br&gt;trehalose-phosphatase&lt;br&gt;Location: 103691 - 102840&lt;br&gt;&lt;br&gt;&lt;b&gt;BlastP hit with cds33837_34689&lt;/b&gt;&lt;br&gt;Percentage identity: 92&lt;br&gt;Percentage coverage: 100&lt;br&gt;BLAST bit score: 512&lt;br&gt;E-value: 3.5e-143" points="503,90 509,90 514,85 509,80 503,80 503,90 " class="clusterblast-orf" style="stroke-width:1; stroke:black; fill:#d81515; "  />
</g>
<g id="a1_0027"  >
<polygon id="dummy-1_h1_5_27" locus_tag="A3Q37_RS25065" description="&lt;b&gt;A3Q37_RS25065&lt;/b&gt;&lt;br&gt;trehalose-6-phosphate synthase&lt;br&gt;Location: 102787 - 101396&lt;br&gt;&lt;br&gt;&lt;b&gt;BlastP hit with cds34797_36189&lt;/b&gt;&lt;br&gt;Percentage identity: 97&lt;br&gt;Percentage coverage: 100&lt;br&gt;BLAST bit score: 907&lt;br&gt;E-value: 6e-262" points="514,85 519,80 532,80 532,90 519,90 514,85 " class="clusterblast-orf" style="stroke-width:1; stroke:black; fill:#54d815; "  />
</g>
<g id="a1_0028"  >
<polygon id="dummy-1_h1_5_28" locus_tag="A3Q37_RS25060" description="&lt;b&gt;A3Q37_RS25060&lt;/b&gt;&lt;br&gt;glucosyl-3-phosphoglycerate synthase&lt;br&gt;Location: 101303 - 100353&lt;br&gt;&lt;br&gt;&lt;b&gt;BlastP hit with cds36310_37261&lt;/b&gt;&lt;br&gt;Percentage identity: 97&lt;br&gt;Percentage coverage: 100&lt;br&gt;BLAST bit score: 603&lt;br&gt;E-value: 1.3e-170" points="534,85 539,80 546,80 546,90 539,90 534,85 " class="clusterblast-orf" style="stroke-width:1; stroke:black; fill:#15c1d8; "  />
</g>
<g id="a1_0029"  >
<polygon id="dummy-1_h1_5_29" locus_tag="A3Q37_RS25055" description="&lt;b&gt;A3Q37_RS25055&lt;/b&gt;&lt;br&gt;threonine synthase&lt;br&gt;Location: 100053 - 98758&lt;br&gt;&lt;br&gt;&lt;b&gt;BlastP hit with cds37560_38856&lt;/b&gt;&lt;br&gt;Percentage identity: 98&lt;br&gt;Percentage coverage: 100&lt;br&gt;BLAST bit score: 845&lt;br&gt;E-value: 2e-243" points="550,90 562,90 567,85 562,80 550,80 550,90 " class="clusterblast-orf" style="stroke-width:1; stroke:black; fill:#8215d8; "  />
</g>
<g id="a1_0030"  >
<polygon id="dummy-1_h1_5_30" locus_tag="A3Q37_RS25050" description="&lt;b&gt;A3Q37_RS25050&lt;/b&gt;&lt;br&gt;MoaD/ThiS family protein&lt;br&gt;Location: 98722 - 98444&lt;br&gt;&lt;br&gt;&lt;b&gt;BlastP hit with cds38891_39170&lt;/b&gt;&lt;br&gt;Percentage identity: 100&lt;br&gt;Percentage coverage: 100&lt;br&gt;BLAST bit score: 184&lt;br&gt;E-value: 4.1e-45" points="567,90 571,85 567,80 567,90 " class="clusterblast-orf" style="stroke-width:1; stroke:black; fill:#d84415; "  />
</g>
<g id="a1_0031"  >
<polygon id="dummy-1_h1_5_31" locus_tag="A3Q37_RS25045" description="&lt;b&gt;A3Q37_RS25045&lt;/b&gt;&lt;br&gt;cold-shock protein&lt;br&gt;Location: 98025 - 97819&lt;br&gt;&lt;br&gt;&lt;b&gt;BlastP hit with cds39623_39830&lt;/b&gt;&lt;br&gt;Percentage identity: 100&lt;br&gt;Percentage coverage: 100&lt;br&gt;BLAST bit score: 142&lt;br&gt;E-value: 1.7e-32" points="576,90 579,85 576,80 576,90 " class="clusterblast-orf" style="stroke-width:1; stroke:black; fill:#25d815; "  />
</g>
<g id="a1_0032"  >
<polygon id="dummy-1_h1_5_32" locus_tag="A3Q37_RS25040" description="&lt;b&gt;A3Q37_RS25040&lt;/b&gt;&lt;br&gt;chaperonin GroEL&lt;br&gt;Location: 97475 - 95853&lt;br&gt;&lt;br&gt;&lt;b&gt;BlastP hit with cds40214_41837&lt;/b&gt;&lt;br&gt;Percentage identity: 100&lt;br&gt;Percentage coverage: 100&lt;br&gt;BLAST bit score: 992&lt;br&gt;E-value: 2.2e-287" points="583,90 599,90 604,85 599,80 583,80 583,90 " class="clusterblast-orf" style="stroke-width:1; stroke:black; fill:#1592d8; "  />
</g>
<g id="a1_0033"  >
<polygon id="dummy-1_h1_5_33" locus_tag="A3Q37_RS25035" description="&lt;b&gt;A3Q37_RS25035&lt;/b&gt;&lt;br&gt;hypothetical protein&lt;br&gt;Location: 95617 - 95171&lt;br&gt;&lt;br&gt;&lt;b&gt;BlastP hit with cds42084_42594&lt;/b&gt;&lt;br&gt;Percentage identity: 86&lt;br&gt;Percentage coverage: 86&lt;br&gt;BLAST bit score: 257&lt;br&gt;E-value: 9.2e-67" points="607,90 608,90 613,85 608,80 607,80 607,90 " class="clusterblast-orf" style="stroke-width:1; stroke:black; fill:#b115d8; "  />
</g>
<g id="a1_0034"  >
<polygon id="dummy-1_h1_5_34" locus_tag="A3Q37_RS36590" description="&lt;b&gt;A3Q37_RS36590&lt;/b&gt;&lt;br&gt;putative RiPP precursor&lt;br&gt;Location: 94647 - 94516&lt;br&gt;&lt;br&gt;&lt;b&gt;BlastP hit with cds43174_43306&lt;/b&gt;&lt;br&gt;Percentage identity: 95&lt;br&gt;Percentage coverage: 100&lt;br&gt;BLAST bit score: 85&lt;br&gt;E-value: 1.6e-15" points="620,90 622,85 620,80 620,90 " class="clusterblast-orf" style="stroke-width:1; stroke:black; fill:#d87315; "  />
</g>
<g id="a1_0035"  >
<polygon id="dummy-1_h1_5_35" locus_tag="A3Q37_RS25030" description="&lt;b&gt;A3Q37_RS25030&lt;/b&gt;&lt;br&gt;asparagine synthetase B family protein&lt;br&gt;Location: 94452 - 92416&lt;br&gt;&lt;br&gt;&lt;b&gt;BlastP hit with cds43356_45306&lt;/b&gt;&lt;br&gt;Percentage identity: 86&lt;br&gt;Percentage coverage: 104&lt;br&gt;BLAST bit score: 1147&lt;br&gt;E-value: 0.0" points="623,90 644,90 649,85 644,80 623,80 623,90 " class="clusterblast-orf" style="stroke-width:1; stroke:black; fill:#15d834; "  />
</g>
<g id="a1_0036"  >
<polygon id="dummy-1_h1_5_36" locus_tag="A3Q37_RS25025" description="&lt;b&gt;A3Q37_RS25025&lt;/b&gt;&lt;br&gt;lasso peptide biosynthesis PqqD family chaperone&lt;br&gt;Location: 92370 - 92119&lt;br&gt;&lt;br&gt;&lt;b&gt;BlastP hit with cds45334_45586&lt;/b&gt;&lt;br&gt;Percentage identity: 93&lt;br&gt;Percentage coverage: 100&lt;br&gt;BLAST bit score: 147&lt;br&gt;E-value: 5e-34" points="650,90 653,85 650,80 650,90 " class="clusterblast-orf" style="stroke-width:1; stroke:black; fill:#1563d8; "  />
</g>
<g id="a1_0037"  >
<polygon id="dummy-1_h1_5_37" locus_tag="A3Q37_RS25020" description="&lt;b&gt;A3Q37_RS25020&lt;/b&gt;&lt;br&gt;lasso peptide biosynthesis B2 protein&lt;br&gt;Location: 92122 - 91613&lt;br&gt;&lt;br&gt;&lt;b&gt;BlastP hit with cds45582_46092&lt;/b&gt;&lt;br&gt;Percentage identity: 84&lt;br&gt;Percentage coverage: 86&lt;br&gt;BLAST bit score: 240&lt;br&gt;E-value: 1.2e-61" points="653,90 655,90 660,85 655,80 653,80 653,90 " class="clusterblast-orf" style="stroke-width:1; stroke:black; fill:#d815d0; "  />
</g>
<g id="a1_0038"  >
<polygon id="dummy-1_h1_5_38" locus_tag="A3Q37_RS25015" description="&lt;b&gt;A3Q37_RS25015&lt;/b&gt;&lt;br&gt;ABC transporter ATP-binding protein&lt;br&gt;Location: 91698 - 89824&lt;br&gt;&lt;br&gt;&lt;b&gt;BlastP hit with cds46279_47908&lt;/b&gt;&lt;br&gt;Percentage identity: 95&lt;br&gt;Percentage coverage: 100&lt;br&gt;BLAST bit score: 944&lt;br&gt;E-value: 4e-273" points="658,90 678,90 683,85 678,80 658,80 658,90 " class="clusterblast-orf" style="stroke-width:1; stroke:black; fill:#d8a215; "  />
</g>
<g id="a1_0039"  >
<polygon id="dummy-1_h1_5_39" locus_tag="A3Q37_RS25010" description="&lt;b&gt;A3Q37_RS25010&lt;/b&gt;&lt;br&gt;hypothetical protein&lt;br&gt;Location: 89809 - 88679" points="683,90 693,90 698,85 693,80 683,80 683,90 " class="clusterblast-orf" style="stroke-width:1; stroke:black; fill:white; "  />
</g>
<g id="a1_0040"  >
<polygon id="dummy-1_h1_5_40" locus_tag="A3Q37_RS25005" description="&lt;b&gt;A3Q37_RS25005&lt;/b&gt;&lt;br&gt;Uma2 family endonuclease&lt;br&gt;Location: 87911 - 87324&lt;br&gt;&lt;br&gt;&lt;b&gt;BlastP hit with cds47972_48560&lt;/b&gt;&lt;br&gt;Percentage identity: 93&lt;br&gt;Percentage coverage: 100&lt;br&gt;BLAST bit score: 386&lt;br&gt;E-value: 1.5e-105" points="708,85 713,80 715,80 715,90 713,90 708,85 " class="clusterblast-orf" style="stroke-width:1; stroke:black; fill:#15d863; "  />
</g>
<g id="a1_0041"  >
<polygon id="dummy-1_h1_5_41" locus_tag="A3Q37_RS25000" description="&lt;b&gt;A3Q37_RS25000&lt;/b&gt;&lt;br&gt;GNAT family N-acetyltransferase&lt;br&gt;Location: 87111 - 86557&lt;br&gt;&lt;br&gt;&lt;b&gt;BlastP hit with cds48736_49327&lt;/b&gt;&lt;br&gt;Percentage identity: 92&lt;br&gt;Percentage coverage: 94&lt;br&gt;BLAST bit score: 354&lt;br&gt;E-value: 4.9e-96" points="718,90 720,90 725,85 720,80 718,80 718,90 " class="clusterblast-orf" style="stroke-width:1; stroke:black; fill:#1534d8; "  />
</g>
<g id="a1_0042"  >
<polygon id="dummy-1_h1_5_42" locus_tag="A3Q37_RS24995" description="&lt;b&gt;A3Q37_RS24995&lt;/b&gt;&lt;br&gt;SigE family RNA polymerase sigma factor&lt;br&gt;Location: 86398 - 85898&lt;br&gt;&lt;br&gt;&lt;b&gt;BlastP hit with cds49476_49977&lt;/b&gt;&lt;br&gt;Percentage identity: 100&lt;br&gt;Percentage coverage: 100&lt;br&gt;BLAST bit score: 336&lt;br&gt;E-value: 2e-90" points="727,90 729,90 734,85 729,80 727,80 727,90 " class="clusterblast-orf" style="stroke-width:1; stroke:black; fill:#d815a2; "  />
</g>
<g id="a1_0043"  >
<polygon id="dummy-1_h1_5_43" locus_tag="A3Q37_RS24990" description="&lt;b&gt;A3Q37_RS24990&lt;/b&gt;&lt;br&gt;hypothetical protein&lt;br&gt;Location: 85905 - 85405&lt;br&gt;&lt;br&gt;&lt;b&gt;BlastP hit with cds49969_50494&lt;/b&gt;&lt;br&gt;Percentage identity: 91&lt;br&gt;Percentage coverage: 20&lt;br&gt;BLAST bit score: 62&lt;br&gt;E-value: 3.4e-08" points="734,90 735,90 740,85 735,80 734,80 734,90 " class="clusterblast-orf" style="stroke-width:1; stroke:black; fill:#d8d015; "  />
</g>
<g id="a1_0044"  >
<polygon id="dummy-1_h1_5_44" locus_tag="A3Q37_RS24985" description="&lt;b&gt;A3Q37_RS24985&lt;/b&gt;&lt;br&gt;hypothetical protein&lt;br&gt;Location: 85285 - 84050&lt;br&gt;&lt;br&gt;&lt;b&gt;BlastP hit with cds50624_51848&lt;/b&gt;&lt;br&gt;Percentage identity: 92&lt;br&gt;Percentage coverage: 101&lt;br&gt;BLAST bit score: 748&lt;br&gt;E-value: 2.4e-214" points="742,90 753,90 758,85 753,80 742,80 742,90 " class="clusterblast-orf" style="stroke-width:1; stroke:black; fill:#15d892; "  />
</g>
<g id="a1_0045"  >
<polygon id="dummy-1_h1_5_45" locus_tag="A3Q37_RS24980" description="&lt;b&gt;A3Q37_RS24980&lt;/b&gt;&lt;br&gt;TetR/AcrR family transcriptional regulator&lt;br&gt;Location: 83998 - 83420&lt;br&gt;&lt;br&gt;&lt;b&gt;BlastP hit with cds51890_52469&lt;/b&gt;&lt;br&gt;Percentage identity: 92&lt;br&gt;Percentage coverage: 100&lt;br&gt;BLAST bit score: 334&lt;br&gt;E-value: 6.7e-90" points="758,85 763,80 766,80 766,90 763,90 758,85 " class="clusterblast-orf" style="stroke-width:1; stroke:black; fill:#2515d8; "  />
</g>
<g id="a1_0046"  >
<polygon id="dummy-1_h1_5_46" locus_tag="A3Q37_RS24975" description="&lt;b&gt;A3Q37_RS24975&lt;/b&gt;&lt;br&gt;DUF1772 domain-containing protein&lt;br&gt;Location: 83327 - 82881&lt;br&gt;&lt;br&gt;&lt;b&gt;BlastP hit with cds52560_53007&lt;/b&gt;&lt;br&gt;Percentage identity: 90&lt;br&gt;Percentage coverage: 100&lt;br&gt;BLAST bit score: 254&lt;br&gt;E-value: 6.8e-66" points="767,90 768,90 773,85 768,80 767,80 767,90 " class="clusterblast-orf" style="stroke-width:1; stroke:black; fill:#d81573; "  />
</g>
<g id="a1_0047"  >
<polygon id="dummy-1_h1_5_47" locus_tag="A3Q37_RS24970" description="&lt;b&gt;A3Q37_RS24970&lt;/b&gt;&lt;br&gt;MarR family transcriptional regulator&lt;br&gt;Location: 82846 - 82382&lt;br&gt;&lt;br&gt;&lt;b&gt;BlastP hit with cds53043_53295&lt;/b&gt;&lt;br&gt;Percentage identity: 87&lt;br&gt;Percentage coverage: 100&lt;br&gt;BLAST bit score: 149&lt;br&gt;E-value: 1.7e-34" points="773,85 778,80 780,80 780,90 778,90 773,85 " class="clusterblast-orf" style="stroke-width:1; stroke:black; fill:#b1d815; "  />
</g>
</svg>
