<svg height="230" x="0" viewBox="0 0 800 230" y="0" width="800" xmlns="http://www.w3.org/2000/svg" preserveAspectRatio="none" version="1.1" xmlns:xlink="http://www.w3.org/1999/xlink"  >
<g label="Query sequence" class="clusterblast-cluster"  >
<text y="20" x="5" class="clusterblast-acc"  >
Query sequence</text>
<line y1="35" y2="35" x2="778.0" x1="10" style="stroke-width:1; stroke:grey; "  />
<polygon id="dummy-1_q0_0_all" locus_tag="cds35971_36481" description="&lt;b&gt;cds35971_36481&lt;/b&gt;&lt;br&gt;hypothetical protein&lt;br&gt;Location: 35971 - 36481" points="234,35 237,30 237,40 234,35 " class="clusterblast-orf" style="stroke-width:1; stroke:black; fill:#d81515; "  />
<polygon id="dummy-1_q1_0_all" locus_tag="cds36603_37524" description="&lt;b&gt;cds36603_37524&lt;/b&gt;&lt;br&gt;Efflux ABC transporter, ATP-binding protein&lt;br&gt;Location: 36603 - 37524" points="238,40 238,40 243,35 238,30 238,30 238,40 " class="clusterblast-orf" style="stroke-width:1; stroke:black; fill:#5cd815; "  />
<polygon id="dummy-1_q2_0_all" locus_tag="cds37520_39182" description="&lt;b&gt;cds37520_39182&lt;/b&gt;&lt;br&gt;Efflux ABC transporter, permease protein&lt;br&gt;Location: 37520 - 39182" points="243,40 248,40 253,35 248,30 243,30 243,40 " class="clusterblast-orf" style="stroke-width:1; stroke:black; fill:white; "  />
<polygon id="dummy-1_q3_0_all" locus_tag="cds39214_40654" description="&lt;b&gt;cds39214_40654&lt;/b&gt;&lt;br&gt;Integral membrane protein&lt;br&gt;Location: 39214 - 40654" points="254,35 259,30 262,30 262,40 259,40 254,35 " class="clusterblast-orf" style="stroke-width:1; stroke:black; fill:white; "  />
<polygon id="dummy-1_q4_0_all" locus_tag="cds40841_42113" description="&lt;b&gt;cds40841_42113&lt;/b&gt;&lt;br&gt;hypothetical protein&lt;br&gt;Location: 40841 - 42113" points="264,40 266,40 271,35 266,30 264,30 264,40 " class="clusterblast-orf" style="stroke-width:1; stroke:black; fill:white; "  />
<polygon id="dummy-1_q5_0_all" locus_tag="cds42112_42640" description="&lt;b&gt;cds42112_42640&lt;/b&gt;&lt;br&gt;hypothetical protein&lt;br&gt;Location: 42112 - 42640" points="271,40 275,35 271,30 271,40 " class="clusterblast-orf" style="stroke-width:1; stroke:black; fill:white; "  />
<polygon id="dummy-1_q6_0_all" locus_tag="cds43346_44009" description="&lt;b&gt;cds43346_44009&lt;/b&gt;&lt;br&gt;Uncharacterized nucleoside diphosphate sugar transferase SCO3743&lt;br&gt;Location: 43346 - 44009" points="279,35 283,30 283,40 279,35 " class="clusterblast-orf" style="stroke-width:1; stroke:black; fill:white; "  />
<polygon id="dummy-1_q7_0_all" locus_tag="cds44005_44767" description="&lt;b&gt;cds44005_44767&lt;/b&gt;&lt;br&gt;Putative glycosyltransferase&lt;br&gt;Location: 44005 - 44767" points="283,35 288,30 288,30 288,40 288,40 283,35 " class="clusterblast-orf" style="stroke-width:1; stroke:black; fill:white; "  />
<polygon id="dummy-1_q8_0_all" locus_tag="cds44838_45693" description="&lt;b&gt;cds44838_45693&lt;/b&gt;&lt;br&gt;Two-component transcriptional response regulator SCO3741, OmpR family&lt;br&gt;Location: 44838 - 45693" points="288,40 288,40 293,35 288,30 288,30 288,40 " class="clusterblast-orf" style="stroke-width:1; stroke:black; fill:white; "  />
<polygon id="dummy-1_q9_0_all" locus_tag="cds45689_46796" description="&lt;b&gt;cds45689_46796&lt;/b&gt;&lt;br&gt;Two-component system sensor histidine kinase SCO3740&lt;br&gt;Location: 45689 - 46796" points="293,40 295,40 300,35 295,30 293,30 293,40 " class="clusterblast-orf" style="stroke-width:1; stroke:black; fill:white; "  />
<polygon id="dummy-1_q10_0_all" locus_tag="cds46776_47892" description="&lt;b&gt;cds46776_47892&lt;/b&gt;&lt;br&gt;epimerase&lt;br&gt;Location: 46776 - 47892" points="300,35 305,30 307,30 307,40 305,40 300,35 " class="clusterblast-orf" style="stroke-width:1; stroke:black; fill:white; "  />
<polygon id="dummy-1_q11_0_all" locus_tag="cds48270_49632" description="&lt;b&gt;cds48270_49632&lt;/b&gt;&lt;br&gt;Siderophore biosynthesis protein, monooxygenase&lt;br&gt;Location: 48270 - 49632" points="309,40 312,40 317,35 312,30 309,30 309,40 " class="clusterblast-orf" style="stroke-width:1; stroke:black; fill:#15a3d8; "  />
<polygon id="dummy-1_q12_0_all" locus_tag="cds49711_50806" description="&lt;b&gt;cds49711_50806&lt;/b&gt;&lt;br&gt;ABC-type Fe3+-siderophore transport system, permease component&lt;br&gt;Location: 49711 - 50806" points="318,40 320,40 325,35 320,30 318,30 318,40 " class="clusterblast-orf" style="stroke-width:1; stroke:black; fill:#c715d8; "  />
<polygon id="dummy-1_q13_0_all" locus_tag="cds50802_51921" description="&lt;b&gt;cds50802_51921&lt;/b&gt;&lt;br&gt;ABC-type Fe3+-siderophore transport system, permease 2 component&lt;br&gt;Location: 50802 - 51921" points="325,40 326,40 331,35 326,30 325,30 325,40 " class="clusterblast-orf" style="stroke-width:1; stroke:black; fill:#d88015; "  />
<polygon id="dummy-1_q14_0_all" locus_tag="cds51958_52888" description="&lt;b&gt;cds51958_52888&lt;/b&gt;&lt;br&gt;ABC-type Fe3+-siderophore transport system, ATPase component&lt;br&gt;Location: 51958 - 52888" points="332,40 332,40 337,35 332,30 332,30 332,40 " class="clusterblast-orf" style="stroke-width:1; stroke:black; fill:#15d839; "  />
<polygon id="dummy-1_q15_0_all" locus_tag="cds52976_54029" description="&lt;b&gt;cds52976_54029&lt;/b&gt;&lt;br&gt;ABC transporter, substrate-binding protein (cluster 8, B12/iron complex)&lt;br&gt;Location: 52976 - 54029" points="338,40 339,40 344,35 339,30 338,30 338,40 " class="clusterblast-orf" style="stroke-width:1; stroke:black; fill:#1539d8; "  />
<polygon id="dummy-1_q16_0_all" locus_tag="cds54075_55860" description="&lt;b&gt;cds54075_55860&lt;/b&gt;&lt;br&gt;Heterodimeric efflux ABC transporter, permease/ATP-binding subunit 2&lt;br&gt;Location: 54075 - 55860" points="345,40 351,40 356,35 351,30 345,30 345,40 " class="clusterblast-orf" style="stroke-width:1; stroke:black; fill:#d81580; "  />
<polygon id="dummy-1_q17_0_all" locus_tag="cds55919_66932" description="&lt;b&gt;cds55919_66932&lt;/b&gt;&lt;br&gt;Siderophore biosynthesis non-ribosomal peptide synthetase modules&lt;br&gt;Location: 55919 - 66932" points="356,40 418,40 423,35 418,30 356,30 356,40 " class="clusterblast-orf" style="stroke-width:1; stroke:black; fill:#c7d815; "  />
<polygon id="dummy-1_q18_0_all" locus_tag="cds66937_68638" description="&lt;b&gt;cds66937_68638&lt;/b&gt;&lt;br&gt;Heterodimeric efflux ABC transporter, permease/ATP-binding subunit 1&lt;br&gt;Location: 66937 - 68638" points="424,40 429,40 434,35 429,30 424,30 424,40 " class="clusterblast-orf" style="stroke-width:1; stroke:black; fill:#15d8a3; "  />
<polygon id="dummy-1_q19_0_all" locus_tag="cds68698_69790" description="&lt;b&gt;cds68698_69790&lt;/b&gt;&lt;br&gt;Putative esterase&lt;br&gt;Location: 68698 - 69790" points="434,35 439,30 441,30 441,40 439,40 434,35 " class="clusterblast-orf" style="stroke-width:1; stroke:black; fill:#5c15d8; "  />
<polygon id="dummy-1_q20_0_all" locus_tag="cds69916_70339" description="&lt;b&gt;cds69916_70339&lt;/b&gt;&lt;br&gt;Transcriptional regulator, MarR family&lt;br&gt;Location: 69916 - 70339" points="442,35 444,30 444,40 442,35 " class="clusterblast-orf" style="stroke-width:1; stroke:black; fill:white; "  />
<polygon id="dummy-1_q21_0_all" locus_tag="cds70538_71840" description="&lt;b&gt;cds70538_71840&lt;/b&gt;&lt;br&gt;Enolase (EC 4.2.1.11)&lt;br&gt;Location: 70538 - 71840" points="446,40 449,40 454,35 449,30 446,30 446,40 " class="clusterblast-orf" style="stroke-width:1; stroke:black; fill:white; "  />
<polygon id="dummy-1_q22_0_all" locus_tag="cds72033_74226" description="&lt;b&gt;cds72033_74226&lt;/b&gt;&lt;br&gt;putative secreted protein&lt;br&gt;Location: 72033 - 74226" points="455,35 460,30 468,30 468,40 460,40 455,35 " class="clusterblast-orf" style="stroke-width:1; stroke:black; fill:white; "  />
<polygon id="dummy-1_q23_0_all" locus_tag="cds75296_76310" description="&lt;b&gt;cds75296_76310&lt;/b&gt;&lt;br&gt;putative secreted protein&lt;br&gt;Location: 75296 - 76310" points="475,40 476,40 481,35 476,30 475,30 475,40 " class="clusterblast-orf" style="stroke-width:1; stroke:black; fill:white; "  />
<polygon id="dummy-1_q24_0_all" locus_tag="cds76379_77339" description="&lt;b&gt;cds76379_77339&lt;/b&gt;&lt;br&gt;Secreted protein&lt;br&gt;Location: 76379 - 77339" points="481,35 486,30 487,30 487,40 486,40 481,35 " class="clusterblast-orf" style="stroke-width:1; stroke:black; fill:white; "  />
<polygon id="dummy-1_q25_0_all" locus_tag="cds77606_78059" description="&lt;b&gt;cds77606_78059&lt;/b&gt;&lt;br&gt;hypothetical protein&lt;br&gt;Location: 77606 - 78059" points="489,40 492,35 489,30 489,40 " class="clusterblast-orf" style="stroke-width:1; stroke:black; fill:white; "  />
<polygon id="dummy-1_q26_0_all" locus_tag="cds78055_80227" description="&lt;b&gt;cds78055_80227&lt;/b&gt;&lt;br&gt;hypothetical protein&lt;br&gt;Location: 78055 - 80227" points="492,40 500,40 505,35 500,30 492,30 492,40 " class="clusterblast-orf" style="stroke-width:1; stroke:black; fill:white; "  />
<polygon id="dummy-1_q27_0_all" locus_tag="cds80252_81962" description="&lt;b&gt;cds80252_81962&lt;/b&gt;&lt;br&gt;hypothetical protein&lt;br&gt;Location: 80252 - 81962" points="505,35 510,30 516,30 516,40 510,40 505,35 " class="clusterblast-orf" style="stroke-width:1; stroke:black; fill:white; "  />
<polygon id="dummy-1_q28_0_all" locus_tag="cds82149_83043" description="&lt;b&gt;cds82149_83043&lt;/b&gt;&lt;br&gt;Substrate-specific component CbrT of predicted cobalamin ECF transporter&lt;br&gt;Location: 82149 - 83043" points="517,35 522,30 522,30 522,40 522,40 517,35 " class="clusterblast-orf" style="stroke-width:1; stroke:black; fill:white; "  />
<polygon id="dummy-1_q29_0_all" locus_tag="cds83039_84722" description="&lt;b&gt;cds83039_84722&lt;/b&gt;&lt;br&gt;Duplicated ATPase component CbrU of energizing module of predicted cobalamin ECF transporter&lt;br&gt;Location: 83039 - 84722" points="522,35 527,30 533,30 533,40 527,40 522,35 " class="clusterblast-orf" style="stroke-width:1; stroke:black; fill:white; "  />
<polygon id="dummy-1_q30_0_all" locus_tag="cds84718_85921" description="&lt;b&gt;cds84718_85921&lt;/b&gt;&lt;br&gt;Transmembrane component CbrV of energizing module of predicted cobalamin ECF transporter&lt;br&gt;Location: 84718 - 85921" points="533,35 538,30 540,30 540,40 538,40 533,35 " class="clusterblast-orf" style="stroke-width:1; stroke:black; fill:white; "  />
<polygon id="dummy-1_q31_0_all" locus_tag="cds85910_86831" description="&lt;b&gt;cds85910_86831&lt;/b&gt;&lt;br&gt;hypothetical protein&lt;br&gt;Location: 85910 - 86831" points="540,35 545,30 545,30 545,40 545,40 540,35 " class="clusterblast-orf" style="stroke-width:1; stroke:black; fill:white; "  />
</g>
<g description="BGC0000144_c1: salinomycin (4% of genes show similarity), Polyketide:Modular type I" label="BGC0000144" class="clusterblast-cluster"  >
<text y="70" x="5" class="clusterblast-acc"  >
<a xlink:href="https://mibig.secondarymetabolites.org/go/BGC0000144/1" target="_blank">BGC0000144</a>:                                                                      salinomycin (4% of genes show similarity), Polyketide:Modular type I</text>
<line y1="85" y2="85" x2="778.0" x1="10" style="stroke-width:1; stroke:grey; "  />
</g>
<g id="a1_000"  >
<polygon id="dummy-1_h1_6_0" locus_tag="AEZ53933.1" description="&lt;b&gt;AEZ53933.1&lt;/b&gt;&lt;br&gt;putative alkyl hydroperoxide reductase subunit C protein&lt;br&gt;Location: 239 - 694" points="0,85 2,80 2,90 0,85 " class="clusterblast-orf" style="stroke-width:1; stroke:black; fill:white; "  />
</g>
<g id="a1_001"  >
<polygon id="dummy-1_h1_6_1" locus_tag="AEZ53934.1" description="&lt;b&gt;AEZ53934.1&lt;/b&gt;&lt;br&gt;putative membrane protein&lt;br&gt;Location: 824 - 1201" points="3,85 5,80 5,90 3,85 " class="clusterblast-orf" style="stroke-width:1; stroke:black; fill:white; "  />
</g>
<g id="a1_002"  >
<polygon id="dummy-1_h1_6_2" locus_tag="AEZ53935.1" description="&lt;b&gt;AEZ53935.1&lt;/b&gt;&lt;br&gt;putative transcription regulator&lt;br&gt;Location: 1418 - 1918" points="7,90 10,85 7,80 7,90 " class="clusterblast-orf" style="stroke-width:1; stroke:black; fill:white; "  />
</g>
<g id="a1_003"  >
<polygon id="dummy-1_h1_6_3" locus_tag="AEZ53936.1" description="&lt;b&gt;AEZ53936.1&lt;/b&gt;&lt;br&gt;putative amidinotransferase&lt;br&gt;Location: 2137 - 2913" points="11,90 11,90 16,85 11,80 11,80 11,90 " class="clusterblast-orf" style="stroke-width:1; stroke:black; fill:white; "  />
</g>
<g id="a1_004"  >
<polygon id="dummy-1_h1_6_4" locus_tag="AEZ53937.1" description="&lt;b&gt;AEZ53937.1&lt;/b&gt;&lt;br&gt;putative ornithine aminotransferase&lt;br&gt;Location: 2910 - 4139" points="16,90 18,90 23,85 18,80 16,80 16,90 " class="clusterblast-orf" style="stroke-width:1; stroke:black; fill:white; "  />
</g>
<g id="a1_005"  >
<polygon id="dummy-1_h1_6_5" locus_tag="AEZ53938.1" description="&lt;b&gt;AEZ53938.1&lt;/b&gt;&lt;br&gt;putative zinc-binding dehydrogenase family oxidoreductase&lt;br&gt;Location: 4218 - 5267" points="24,85 29,80 30,80 30,90 29,90 24,85 " class="clusterblast-orf" style="stroke-width:1; stroke:black; fill:white; "  />
</g>
<g id="a1_006"  >
<polygon id="dummy-1_h1_6_6" locus_tag="AEZ53939.1" description="&lt;b&gt;AEZ53939.1&lt;/b&gt;&lt;br&gt;putative glucose-6-phosphate 1-dehydrogenase&lt;br&gt;Location: 5560 - 7008" points="32,90 36,90 41,85 36,80 32,80 32,90 " class="clusterblast-orf" style="stroke-width:1; stroke:black; fill:white; "  />
</g>
<g id="a1_007"  >
<polygon id="dummy-1_h1_6_7" locus_tag="AEZ53940.1" description="&lt;b&gt;AEZ53940.1&lt;/b&gt;&lt;br&gt;putative membrane protein&lt;br&gt;Location: 7005 - 8204" points="41,90 43,90 48,85 43,80 41,80 41,90 " class="clusterblast-orf" style="stroke-width:1; stroke:black; fill:white; "  />
</g>
<g id="a1_008"  >
<polygon id="dummy-1_h1_6_8" locus_tag="AEZ53941.1" description="&lt;b&gt;AEZ53941.1&lt;/b&gt;&lt;br&gt;putative regulatory protein&lt;br&gt;Location: 8477 - 9460" points="50,85 55,80 56,80 56,90 55,90 50,85 " class="clusterblast-orf" style="stroke-width:1; stroke:black; fill:white; "  />
</g>
<g id="a1_009"  >
<polygon id="dummy-1_h1_6_9" locus_tag="AEZ53942.1" description="&lt;b&gt;AEZ53942.1&lt;/b&gt;&lt;br&gt;putative transcriptional regulator&lt;br&gt;Location: 10037 - 10519&lt;br&gt;&lt;br&gt;&lt;b&gt;BlastP hit with cds35971_36481&lt;/b&gt;&lt;br&gt;Percentage identity: 54&lt;br&gt;Percentage coverage: 97&lt;br&gt;BLAST bit score: 168&lt;br&gt;E-value: 9.5e-42" points="60,90 63,85 60,80 60,90 " class="clusterblast-orf" style="stroke-width:1; stroke:black; fill:#d81515; "  />
</g>
<g id="a1_0010"  >
<polygon id="dummy-1_h1_6_10" locus_tag="AEZ53943.1" description="&lt;b&gt;AEZ53943.1&lt;/b&gt;&lt;br&gt;putative 3-hydroxybutyryl-CoA dehydrogenase&lt;br&gt;Location: 10611 - 12329" points="63,85 68,80 74,80 74,90 68,90 63,85 " class="clusterblast-orf" style="stroke-width:1; stroke:black; fill:white; "  />
</g>
<g id="a1_0011"  >
<polygon id="dummy-1_h1_6_11" locus_tag="AEZ53944.1" description="&lt;b&gt;AEZ53944.1&lt;/b&gt;&lt;br&gt;putative 3-oxoacyl-(acyl-carrier-protein ) synthase III&lt;br&gt;Location: 12326 - 13354" points="74,85 79,80 80,80 80,90 79,90 74,85 " class="clusterblast-orf" style="stroke-width:1; stroke:black; fill:white; "  />
</g>
<g id="a1_0012"  >
<polygon id="dummy-1_h1_6_12" locus_tag="AEZ53945.1" description="&lt;b&gt;AEZ53945.1&lt;/b&gt;&lt;br&gt;polyketide synthase&lt;br&gt;Location: 13658 - 28435" points="82,90 167,90 172,85 167,80 82,80 82,90 " class="clusterblast-orf" style="stroke-width:1; stroke:black; fill:white; "  />
</g>
<g id="a1_0013"  >
<polygon id="dummy-1_h1_6_13" locus_tag="AEZ53946.1" description="&lt;b&gt;AEZ53946.1&lt;/b&gt;&lt;br&gt;polyketide synthase&lt;br&gt;Location: 28468 - 40221" points="173,90 240,90 245,85 240,80 173,80 173,90 " class="clusterblast-orf" style="stroke-width:1; stroke:black; fill:white; "  />
</g>
<g id="a1_0014"  >
<polygon id="dummy-1_h1_6_14" locus_tag="AEZ53947.1" description="&lt;b&gt;AEZ53947.1&lt;/b&gt;&lt;br&gt;polyketide synthase&lt;br&gt;Location: 40244 - 48322" points="245,90 289,90 294,85 289,80 245,80 245,90 " class="clusterblast-orf" style="stroke-width:1; stroke:black; fill:white; "  />
</g>
<g id="a1_0015"  >
<polygon id="dummy-1_h1_6_15" locus_tag="AEZ53948.1" description="&lt;b&gt;AEZ53948.1&lt;/b&gt;&lt;br&gt;polyketide synthase&lt;br&gt;Location: 48450 - 53378" points="295,90 320,90 325,85 320,80 295,80 295,90 " class="clusterblast-orf" style="stroke-width:1; stroke:black; fill:white; "  />
</g>
<g id="a1_0016"  >
<polygon id="dummy-1_h1_6_16" locus_tag="AEZ53949.1" description="&lt;b&gt;AEZ53949.1&lt;/b&gt;&lt;br&gt;polyketide synthase&lt;br&gt;Location: 53431 - 64683" points="326,90 390,90 395,85 390,80 326,80 326,90 " class="clusterblast-orf" style="stroke-width:1; stroke:black; fill:white; "  />
</g>
<g id="a1_0017"  >
<polygon id="dummy-1_h1_6_17" locus_tag="AEZ53950.1" description="&lt;b&gt;AEZ53950.1&lt;/b&gt;&lt;br&gt;polyketide synthase&lt;br&gt;Location: 64798 - 69105" points="395,90 417,90 422,85 417,80 395,80 395,90 " class="clusterblast-orf" style="stroke-width:1; stroke:black; fill:white; "  />
</g>
<g id="a1_0018"  >
<polygon id="dummy-1_h1_6_18" locus_tag="AEZ53951.1" description="&lt;b&gt;AEZ53951.1&lt;/b&gt;&lt;br&gt;polyketide synthase&lt;br&gt;Location: 69148 - 74082" points="422,90 447,90 452,85 447,80 422,80 422,90 " class="clusterblast-orf" style="stroke-width:1; stroke:black; fill:white; "  />
</g>
<g id="a1_0019"  >
<polygon id="dummy-1_h1_6_19" locus_tag="AEZ53952.1" description="&lt;b&gt;AEZ53952.1&lt;/b&gt;&lt;br&gt;polyketide synthase&lt;br&gt;Location: 74150 - 85324" points="453,90 516,90 521,85 516,80 453,80 453,90 " class="clusterblast-orf" style="stroke-width:1; stroke:black; fill:white; "  />
</g>
<g id="a1_0020"  >
<polygon id="dummy-1_h1_6_20" locus_tag="AEZ53953.1" description="&lt;b&gt;AEZ53953.1&lt;/b&gt;&lt;br&gt;polyketide synthase&lt;br&gt;Location: 85352 - 92290" points="521,90 559,90 564,85 559,80 521,80 521,90 " class="clusterblast-orf" style="stroke-width:1; stroke:black; fill:white; "  />
</g>
<g id="a1_0021"  >
<polygon id="dummy-1_h1_6_21" locus_tag="AEZ53954.1" description="&lt;b&gt;AEZ53954.1&lt;/b&gt;&lt;br&gt;putative epoxide hydrolase&lt;br&gt;Location: 92379 - 92765" points="564,90 567,85 564,80 564,90 " class="clusterblast-orf" style="stroke-width:1; stroke:black; fill:white; "  />
</g>
<g id="a1_0022"  >
<polygon id="dummy-1_h1_6_22" locus_tag="AEZ53955.1" description="&lt;b&gt;AEZ53955.1&lt;/b&gt;&lt;br&gt;putative thioesterase&lt;br&gt;Location: 92807 - 93604" points="567,90 567,90 572,85 567,80 567,80 567,90 " class="clusterblast-orf" style="stroke-width:1; stroke:black; fill:white; "  />
</g>
<g id="a1_0023"  >
<polygon id="dummy-1_h1_6_23" locus_tag="AEZ53956.1" description="&lt;b&gt;AEZ53956.1&lt;/b&gt;&lt;br&gt;putative O-methyltransferase-like protein&lt;br&gt;Location: 93645 - 94460" points="572,90 572,90 577,85 572,80 572,80 572,90 " class="clusterblast-orf" style="stroke-width:1; stroke:black; fill:white; "  />
</g>
<g id="a1_0024"  >
<polygon id="dummy-1_h1_6_24" locus_tag="AEZ53957.1" description="&lt;b&gt;AEZ53957.1&lt;/b&gt;&lt;br&gt;putative ferridoxin protein&lt;br&gt;Location: 94655 - 94936" points="578,85 580,80 580,90 578,85 " class="clusterblast-orf" style="stroke-width:1; stroke:black; fill:white; "  />
</g>
<g id="a1_0025"  >
<polygon id="dummy-1_h1_6_25" locus_tag="AEZ53958.1" description="&lt;b&gt;AEZ53958.1&lt;/b&gt;&lt;br&gt;putative cytochrome P450&lt;br&gt;Location: 94933 - 96156" points="580,85 585,80 588,80 588,90 585,90 580,85 " class="clusterblast-orf" style="stroke-width:1; stroke:black; fill:white; "  />
</g>
<g id="a1_0026"  >
<polygon id="dummy-1_h1_6_26" locus_tag="AEZ53959.1" description="&lt;b&gt;AEZ53959.1&lt;/b&gt;&lt;br&gt;putative ABC transporter ATP-binding protein&lt;br&gt;Location: 96333 - 97292&lt;br&gt;&lt;br&gt;&lt;b&gt;BlastP hit with cds36603_37524&lt;/b&gt;&lt;br&gt;Percentage identity: 64&lt;br&gt;Percentage coverage: 100&lt;br&gt;BLAST bit score: 383&lt;br&gt;E-value: 4.4e-106" points="589,90 590,90 595,85 590,80 589,80 589,90 " class="clusterblast-orf" style="stroke-width:1; stroke:black; fill:#5cd815; "  />
</g>
<g id="a1_0027"  >
<polygon id="dummy-1_h1_6_27" locus_tag="AEZ53960.1" description="&lt;b&gt;AEZ53960.1&lt;/b&gt;&lt;br&gt;putative antibiotic ABC transporter efflux pump&lt;br&gt;Location: 97289 - 98929" points="595,90 600,90 605,85 600,80 595,80 595,90 " class="clusterblast-orf" style="stroke-width:1; stroke:black; fill:white; "  />
</g>
<g id="a1_0028"  >
<polygon id="dummy-1_h1_6_28" locus_tag="AEZ53961.1" description="&lt;b&gt;AEZ53961.1&lt;/b&gt;&lt;br&gt;putative epoxide hydrolase&lt;br&gt;Location: 99101 - 99550" points="606,85 608,80 608,90 606,85 " class="clusterblast-orf" style="stroke-width:1; stroke:black; fill:white; "  />
</g>
<g id="a1_0029"  >
<polygon id="dummy-1_h1_6_29" locus_tag="AEZ53962.1" description="&lt;b&gt;AEZ53962.1&lt;/b&gt;&lt;br&gt;putative epoxide hydrolase&lt;br&gt;Location: 99543 - 100004" points="608,85 611,80 611,90 608,85 " class="clusterblast-orf" style="stroke-width:1; stroke:black; fill:white; "  />
</g>
<g id="a1_0030"  >
<polygon id="dummy-1_h1_6_30" locus_tag="AEZ53963.1" description="&lt;b&gt;AEZ53963.1&lt;/b&gt;&lt;br&gt;epoxidase&lt;br&gt;Location: 100184 - 101638" points="612,90 616,90 621,85 616,80 612,80 612,90 " class="clusterblast-orf" style="stroke-width:1; stroke:black; fill:white; "  />
</g>
<g id="a1_0031"  >
<polygon id="dummy-1_h1_6_31" locus_tag="AEZ53964.1" description="&lt;b&gt;AEZ53964.1&lt;/b&gt;&lt;br&gt;putative transcriptional regulator&lt;br&gt;Location: 102168 - 104888" points="624,90 636,90 641,85 636,80 624,80 624,90 " class="clusterblast-orf" style="stroke-width:1; stroke:black; fill:white; "  />
</g>
<g id="a1_0032"  >
<polygon id="dummy-1_h1_6_32" locus_tag="AEZ53965.1" description="&lt;b&gt;AEZ53965.1&lt;/b&gt;&lt;br&gt;putative thioesterase&lt;br&gt;Location: 105116 - 105877" points="643,90 647,85 643,80 643,90 " class="clusterblast-orf" style="stroke-width:1; stroke:black; fill:white; "  />
</g>
<g id="a1_0033"  >
<polygon id="dummy-1_h1_6_33" locus_tag="AEZ53966.1" description="&lt;b&gt;AEZ53966.1&lt;/b&gt;&lt;br&gt;putative peptide synthetase&lt;br&gt;Location: 106029 - 108617" points="648,90 659,90 664,85 659,80 648,80 648,90 " class="clusterblast-orf" style="stroke-width:1; stroke:black; fill:white; "  />
</g>
<g id="a1_0034"  >
<polygon id="dummy-1_h1_6_34" locus_tag="AEZ53967.1" description="&lt;b&gt;AEZ53967.1&lt;/b&gt;&lt;br&gt;hypothetical protein&lt;br&gt;Location: 108679 - 108927" points="664,85 666,80 666,90 664,85 " class="clusterblast-orf" style="stroke-width:1; stroke:black; fill:white; "  />
</g>
<g id="a1_0035"  >
<polygon id="dummy-1_h1_6_35" locus_tag="AEZ53968.1" description="&lt;b&gt;AEZ53968.1&lt;/b&gt;&lt;br&gt;putative SARP family transcriptional regulator&lt;br&gt;Location: 109104 - 111671" points="667,85 672,80 683,80 683,90 672,90 667,85 " class="clusterblast-orf" style="stroke-width:1; stroke:black; fill:white; "  />
</g>
<g id="a1_0036"  >
<polygon id="dummy-1_h1_6_36" locus_tag="AEZ53969.1" description="&lt;b&gt;AEZ53969.1&lt;/b&gt;&lt;br&gt;putative AMP-binding domain-containing protein&lt;br&gt;Location: 111987 - 113780" points="685,90 691,90 696,85 691,80 685,80 685,90 " class="clusterblast-orf" style="stroke-width:1; stroke:black; fill:white; "  />
</g>
<g id="a1_0037"  >
<polygon id="dummy-1_h1_6_37" locus_tag="AEZ53970.1" description="&lt;b&gt;AEZ53970.1&lt;/b&gt;&lt;br&gt;putative acyl-CoA dehydrogenase&lt;br&gt;Location: 113774 - 115492" points="696,90 701,90 706,85 701,80 696,80 696,90 " class="clusterblast-orf" style="stroke-width:1; stroke:black; fill:white; "  />
</g>
<g id="a1_0038"  >
<polygon id="dummy-1_h1_6_38" locus_tag="AEZ53971.1" description="&lt;b&gt;AEZ53971.1&lt;/b&gt;&lt;br&gt;putative peptide carrier protein&lt;br&gt;Location: 115524 - 115814" points="706,90 708,85 706,80 706,90 " class="clusterblast-orf" style="stroke-width:1; stroke:black; fill:white; "  />
</g>
<g id="a1_0039"  >
<polygon id="dummy-1_h1_6_39" locus_tag="AEZ53972.1" description="&lt;b&gt;AEZ53972.1&lt;/b&gt;&lt;br&gt;putative 4'-phosphopantetheinyl transferase&lt;br&gt;Location: 115811 - 116650" points="708,90 708,90 713,85 708,80 708,80 708,90 " class="clusterblast-orf" style="stroke-width:1; stroke:black; fill:white; "  />
</g>
<g id="a1_0040"  >
<polygon id="dummy-1_h1_6_40" locus_tag="AEZ53973.1" description="&lt;b&gt;AEZ53973.1&lt;/b&gt;&lt;br&gt;putative gamma-butyrolactone biosynthesis protein&lt;br&gt;Location: 116675 - 117658" points="713,85 718,80 719,80 719,90 718,90 713,85 " class="clusterblast-orf" style="stroke-width:1; stroke:black; fill:white; "  />
</g>
<g id="a1_0041"  >
<polygon id="dummy-1_h1_6_41" locus_tag="AEZ53974.1" description="&lt;b&gt;AEZ53974.1&lt;/b&gt;&lt;br&gt;hypothetical protein&lt;br&gt;Location: 117832 - 118878" points="720,85 725,80 727,80 727,90 725,90 720,85 " class="clusterblast-orf" style="stroke-width:1; stroke:black; fill:white; "  />
</g>
<g id="a1_0042"  >
<polygon id="dummy-1_h1_6_42" locus_tag="AEZ53975.1" description="&lt;b&gt;AEZ53975.1&lt;/b&gt;&lt;br&gt;putative secreted protein&lt;br&gt;Location: 119021 - 120190" points="728,85 733,80 735,80 735,90 733,90 728,85 " class="clusterblast-orf" style="stroke-width:1; stroke:black; fill:white; "  />
</g>
<g id="a1_0043"  >
<polygon id="dummy-1_h1_6_43" locus_tag="AEZ53976.1" description="&lt;b&gt;AEZ53976.1&lt;/b&gt;&lt;br&gt;putative beta-hexosaminidase&lt;br&gt;Location: 120227 - 121783" points="735,85 740,80 745,80 745,90 740,90 735,85 " class="clusterblast-orf" style="stroke-width:1; stroke:black; fill:white; "  />
</g>
<g id="a1_0044"  >
<polygon id="dummy-1_h1_6_44" locus_tag="AEZ53977.1" description="&lt;b&gt;AEZ53977.1&lt;/b&gt;&lt;br&gt;putative sugar transporter membrane protein&lt;br&gt;Location: 121828 - 122730" points="745,85 750,80 751,80 751,90 750,90 745,85 " class="clusterblast-orf" style="stroke-width:1; stroke:black; fill:white; "  />
</g>
<g id="a1_0045"  >
<polygon id="dummy-1_h1_6_45" locus_tag="AEZ53978.1" description="&lt;b&gt;AEZ53978.1&lt;/b&gt;&lt;br&gt;putative sugar transporter membrane protein&lt;br&gt;Location: 122727 - 123713" points="751,85 756,80 757,80 757,90 756,90 751,85 " class="clusterblast-orf" style="stroke-width:1; stroke:black; fill:white; "  />
</g>
<g id="a1_0046"  >
<polygon id="dummy-1_h1_6_46" locus_tag="AEZ53979.1" description="&lt;b&gt;AEZ53979.1&lt;/b&gt;&lt;br&gt;putative sugar transporter sugar binding protein&lt;br&gt;Location: 123761 - 125026" points="757,85 762,80 765,80 765,90 762,90 757,85 " class="clusterblast-orf" style="stroke-width:1; stroke:black; fill:white; "  />
</g>
<g id="a1_0047"  >
<polygon id="dummy-1_h1_6_47" locus_tag="AEZ53980.1" description="&lt;b&gt;AEZ53980.1&lt;/b&gt;&lt;br&gt;putative hydrolase&lt;br&gt;Location: 125286 - 126194" points="766,85 771,80 772,80 772,90 771,90 766,85 " class="clusterblast-orf" style="stroke-width:1; stroke:black; fill:white; "  />
</g>
<g id="a1_0048"  >
<polygon id="dummy-1_h1_6_48" locus_tag="AEZ53981.1" description="&lt;b&gt;AEZ53981.1&lt;/b&gt;&lt;br&gt;putative transcriptional regulator&lt;br&gt;Location: 126616 - 127455" points="774,90 775,90 780,85 775,80 774,80 774,90 " class="clusterblast-orf" style="stroke-width:1; stroke:black; fill:white; "  />
</g>
</svg>
