<svg height="50" x="0" viewBox="0 0 800 50" y="0" width="800" xmlns="http://www.w3.org/2000/svg" preserveAspectRatio="none" version="1.1" xmlns:xlink="http://www.w3.org/1999/xlink"  >
<g label="Query sequence" class="clusterblast-cluster"  >
<text y="20" x="5" class="clusterblast-acc"  >
Query sequence</text>
<line y1="35" y2="35" x2="778.0" x1="10" style="stroke-width:1; stroke:grey; "  />
<polygon id="subclusterblast-1_q0_0_all" locus_tag="cds153_3018" description="&lt;b&gt;cds153_3018&lt;/b&gt;&lt;br&gt;hypothetical protein&lt;br&gt;Location: 153 - 3018" points="0,40 169,40 174,35 169,30 0,30 0,40 " class="clusterblast-orf" style="stroke-width:1; stroke:black; fill:white; "  />
<polygon id="subclusterblast-1_q1_0_all" locus_tag="cds3017_5183" description="&lt;b&gt;cds3017_5183&lt;/b&gt;&lt;br&gt;hypothetical protein&lt;br&gt;Location: 3017 - 5183" points="174,40 300,40 305,35 300,30 174,30 174,40 " class="clusterblast-orf" style="stroke-width:1; stroke:black; fill:white; "  />
<polygon id="subclusterblast-1_q2_0_all" locus_tag="cds5202_5970" description="&lt;b&gt;cds5202_5970&lt;/b&gt;&lt;br&gt;Efflux ABC transporter, ATP-binding protein&lt;br&gt;Location: 5202 - 5970" points="307,40 348,40 353,35 348,30 307,30 307,40 " class="clusterblast-orf" style="stroke-width:1; stroke:black; fill:white; "  />
<polygon id="subclusterblast-1_q3_0_all" locus_tag="cds5966_6839" description="&lt;b&gt;cds5966_6839&lt;/b&gt;&lt;br&gt;Efflux ABC transporter, permease protein&lt;br&gt;Location: 5966 - 6839" points="353,40 401,40 406,35 401,30 353,30 353,40 " class="clusterblast-orf" style="stroke-width:1; stroke:black; fill:white; "  />
<polygon id="subclusterblast-1_q4_0_all" locus_tag="cds6926_7124" description="&lt;b&gt;cds6926_7124&lt;/b&gt;&lt;br&gt;hypothetical protein&lt;br&gt;Location: 6926 - 7124" points="411,35 416,30 423,30 423,40 416,40 411,35 " class="clusterblast-orf" style="stroke-width:1; stroke:black; fill:white; "  />
<polygon id="subclusterblast-1_q5_0_all" locus_tag="cds7155_7815" description="&lt;b&gt;cds7155_7815&lt;/b&gt;&lt;br&gt;hypothetical protein&lt;br&gt;Location: 7155 - 7815" points="425,35 430,30 465,30 465,40 430,40 425,35 " class="clusterblast-orf" style="stroke-width:1; stroke:black; fill:white; "  />
<polygon id="subclusterblast-1_q6_0_all" locus_tag="cds8077_9241" description="&lt;b&gt;cds8077_9241&lt;/b&gt;&lt;br&gt;Two-component system sensor histidine kinase&lt;br&gt;Location: 8077 - 9241" points="481,35 486,30 552,30 552,40 486,40 481,35 " class="clusterblast-orf" style="stroke-width:1; stroke:black; fill:white; "  />
<polygon id="subclusterblast-1_q7_0_all" locus_tag="cds9237_9888" description="&lt;b&gt;cds9237_9888&lt;/b&gt;&lt;br&gt;Two-component transcriptional response regulator, LuxR family&lt;br&gt;Location: 9237 - 9888" points="551,35 556,30 591,30 591,40 556,40 551,35 " class="clusterblast-orf" style="stroke-width:1; stroke:black; fill:white; "  />
<polygon id="subclusterblast-1_q8_0_all" locus_tag="cds9911_10133" description="&lt;b&gt;cds9911_10133&lt;/b&gt;&lt;br&gt;hypothetical protein&lt;br&gt;Location: 9911 - 10133" points="592,35 597,30 606,30 606,40 597,40 592,35 " class="clusterblast-orf" style="stroke-width:1; stroke:black; fill:white; "  />
<polygon id="subclusterblast-1_q9_0_all" locus_tag="cds10376_11669" description="&lt;b&gt;cds10376_11669&lt;/b&gt;&lt;br&gt;Putative sensor and ATPase, component of G-protein-coupled receptor (GPCR) system&lt;br&gt;Location: 10376 - 11669" points="621,40 694,40 699,35 694,30 621,30 621,40 " class="clusterblast-orf" style="stroke-width:1; stroke:black; fill:white; "  />
<polygon id="subclusterblast-1_q10_0_all" locus_tag="cds11665_12070" description="&lt;b&gt;cds11665_12070&lt;/b&gt;&lt;br&gt;Roadblock/LC7 protein, putative GTPase-activating (GAP) component of G-protein-coupled receptor (GPCR) system&lt;br&gt;Location: 11665 - 12070" points="699,40 718,40 723,35 718,30 699,30 699,40 " class="clusterblast-orf" style="stroke-width:1; stroke:black; fill:white; "  />
<polygon id="subclusterblast-1_q11_0_all" locus_tag="cds12066_12441" description="&lt;b&gt;cds12066_12441&lt;/b&gt;&lt;br&gt;DUF742 protein, component of G-protein-coupled receptor (GPCR) system&lt;br&gt;Location: 12066 - 12441" points="723,40 741,40 746,35 741,30 723,30 723,40 " class="clusterblast-orf" style="stroke-width:1; stroke:black; fill:white; "  />
<polygon id="subclusterblast-1_q12_0_all" locus_tag="cds12415_13006" description="&lt;b&gt;cds12415_13006&lt;/b&gt;&lt;br&gt;Small Ras-like GTPase, component of G-protein-coupled receptor (GPCR) system&lt;br&gt;Location: 12415 - 13006" points="744,40 775,40 780,35 775,30 744,30 744,40 " class="clusterblast-orf" style="stroke-width:1; stroke:black; fill:white; "  />
</g>
</svg>
