<svg xmlns:xlink="http://www.w3.org/1999/xlink" preserveAspectRatio="none" width="800" xmlns="http://www.w3.org/2000/svg" y="0" height="230" x="0" version="1.1" viewBox="0 0 800 230"  >
<g class="clusterblast-cluster" label="Query sequence"  >
<text y="20" x="5" class="clusterblast-acc"  >
Query sequence</text>
<line x2="778.0" x1="10" y1="35" y2="35" style="stroke:grey; stroke-width:1; "  />
<polygon description="&lt;b&gt;cds0_4074&lt;/b&gt;&lt;br&gt;Polyketide synthase modules and related proteins&lt;br&gt;Location: 0 - 4074" points="286,35 291,30 320,30 320,40 291,40 286,35 " locus_tag="cds0_4074" id="dummy-1_q0_0_all" style="fill:#d81515; stroke-width:1; stroke:black; " class="clusterblast-orf"  />
<polygon description="&lt;b&gt;cds4074_5361&lt;/b&gt;&lt;br&gt;Polyketide synthase modules and related proteins&lt;br&gt;Location: 4074 - 5361" points="320,35 325,30 331,30 331,40 325,40 320,35 " locus_tag="cds4074_5361" id="dummy-1_q1_0_all" style="fill:#d81515; stroke-width:1; stroke:black; " class="clusterblast-orf"  />
<polygon description="&lt;b&gt;cds5357_7037&lt;/b&gt;&lt;br&gt;Polyketide synthase modules and related proteins&lt;br&gt;Location: 5357 - 7037" points="331,35 336,30 345,30 345,40 336,40 331,35 " locus_tag="cds5357_7037" id="dummy-1_q2_0_all" style="fill:#d81515; stroke-width:1; stroke:black; " class="clusterblast-orf"  />
<polygon description="&lt;b&gt;cds7225_7699&lt;/b&gt;&lt;br&gt;hypothetical protein&lt;br&gt;Location: 7225 - 7699" points="347,35 351,30 351,40 347,35 " locus_tag="cds7225_7699" id="dummy-1_q3_0_all" style="fill:#15d815; stroke-width:1; stroke:black; " class="clusterblast-orf"  />
<polygon description="&lt;b&gt;cds7685_7910&lt;/b&gt;&lt;br&gt;Polymyxin synthetase PmxB&lt;br&gt;Location: 7685 - 7910" points="351,35 353,30 353,40 351,35 " locus_tag="cds7685_7910" id="dummy-1_q4_0_all" style="fill:#1515d8; stroke-width:1; stroke:black; " class="clusterblast-orf"  />
<polygon description="&lt;b&gt;cds7906_24562&lt;/b&gt;&lt;br&gt;Polyketide synthase modules and related proteins&lt;br&gt;Location: 7906 - 24562" points="353,35 358,30 493,30 493,40 358,40 353,35 " locus_tag="cds7906_24562" id="dummy-1_q5_0_all" style="fill:#d81515; stroke-width:1; stroke:black; " class="clusterblast-orf"  />
</g>
<g description="NZ_CP016915 (1867402-1961095): Ralstonia solanacearum strain CQPS-1 plasmid u... (7% of genes show similarity), NRPS,T1PKS" class="clusterblast-cluster" label="NZ_CP016915"  >
<text y="70" x="5" class="clusterblast-acc"  >
<a xlink:href="https://antismash-db.secondarymetabolites.org/area.html?record=NZ_CP016915&amp;start=1867402&amp;end=1961095" target="_blank">NZ_CP016915 (1867402-1961095)</a>: Ralstonia solanacearum strain CQPS-1 plasmid u... (7% of genes show similarity), NRPS,T1PKS</text>
<line x2="778.0" x1="10" y1="85" y2="85" style="stroke:grey; stroke-width:1; "  />
</g>
<g id="a1_000"  >
<polygon description="&lt;b&gt;BC350_RS25580&lt;/b&gt;&lt;br&gt;CynX/NimT family MFS transporter&lt;br&gt;Location: 1867817 - 1869040" points="0,90 5,90 10,85 5,80 0,80 0,90 " locus_tag="BC350_RS25580" id="dummy-1_h1_3_0" style="fill:white; stroke-width:1; stroke:black; " class="clusterblast-orf"  />
</g>
<g id="a1_001"  >
<polygon description="&lt;b&gt;BC350_RS25585&lt;/b&gt;&lt;br&gt;DNA-3-methyladenine glycosylase I&lt;br&gt;Location: 1869050 - 1869622" points="10,85 15,80 15,80 15,90 15,90 10,85 " locus_tag="BC350_RS25585" id="dummy-1_h1_3_1" style="fill:white; stroke-width:1; stroke:black; " class="clusterblast-orf"  />
</g>
<g id="a1_002"  >
<polygon description="&lt;b&gt;BC350_RS25590&lt;/b&gt;&lt;br&gt;magnesium and cobalt transport protein CorA&lt;br&gt;Location: 1869632 - 1870603" points="15,85 20,80 23,80 23,90 20,90 15,85 " locus_tag="BC350_RS25590" id="dummy-1_h1_3_2" style="fill:white; stroke-width:1; stroke:black; " class="clusterblast-orf"  />
</g>
<g id="a1_003"  >
<polygon description="&lt;b&gt;BC350_RS25595&lt;/b&gt;&lt;br&gt;MarR family transcriptional regulator&lt;br&gt;Location: 1870621 - 1871097" points="23,85 27,80 27,90 23,85 " locus_tag="BC350_RS25595" id="dummy-1_h1_3_3" style="fill:white; stroke-width:1; stroke:black; " class="clusterblast-orf"  />
</g>
<g id="a1_004"  >
<polygon description="&lt;b&gt;BC350_RS25600&lt;/b&gt;&lt;br&gt;MFS transporter&lt;br&gt;Location: 1871269 - 1872861" points="29,85 34,80 42,80 42,90 34,90 29,85 " locus_tag="BC350_RS25600" id="dummy-1_h1_3_4" style="fill:white; stroke-width:1; stroke:black; " class="clusterblast-orf"  />
</g>
<g id="a1_005"  >
<polygon description="&lt;b&gt;BC350_RS25605&lt;/b&gt;&lt;br&gt;LysR family transcriptional regulator&lt;br&gt;Location: 1873351 - 1874243" points="46,85 51,80 54,80 54,90 51,90 46,85 " locus_tag="BC350_RS25605" id="dummy-1_h1_3_5" style="fill:white; stroke-width:1; stroke:black; " class="clusterblast-orf"  />
</g>
<g id="a1_006"  >
<polygon description="&lt;b&gt;BC350_RS25610&lt;/b&gt;&lt;br&gt;hydrolase&lt;br&gt;Location: 1874423 - 1875061" points="55,90 56,90 61,85 56,80 55,80 55,90 " locus_tag="BC350_RS25610" id="dummy-1_h1_3_6" style="fill:white; stroke-width:1; stroke:black; " class="clusterblast-orf"  />
</g>
<g id="a1_007"  >
<polygon description="&lt;b&gt;BC350_RS25615&lt;/b&gt;&lt;br&gt;transposase&lt;br&gt;Location: 1875150 - 1875416" points="61,85 64,80 64,90 61,85 " locus_tag="BC350_RS25615" id="dummy-1_h1_3_7" style="fill:white; stroke-width:1; stroke:black; " class="clusterblast-orf"  />
</g>
<g id="a1_008"  >
<polygon description="&lt;b&gt;BC350_RS25620&lt;/b&gt;&lt;br&gt;MarR family transcriptional regulator&lt;br&gt;Location: 1875772 - 1876227" points="67,85 70,80 70,90 67,85 " locus_tag="BC350_RS25620" id="dummy-1_h1_3_8" style="fill:white; stroke-width:1; stroke:black; " class="clusterblast-orf"  />
</g>
<g id="a1_009"  >
<polygon description="&lt;b&gt;BC350_RS25625&lt;/b&gt;&lt;br&gt;transposase&lt;br&gt;Location: 1876351 - 1876684" points="71,90 74,85 71,80 71,90 " locus_tag="BC350_RS25625" id="dummy-1_h1_3_9" style="fill:white; stroke-width:1; stroke:black; " class="clusterblast-orf"  />
</g>
<g id="a1_0010"  >
<polygon description="&lt;b&gt;BC350_RS25630&lt;/b&gt;&lt;br&gt;porin&lt;br&gt;Location: 1877071 - 1878134" points="78,90 81,90 86,85 81,80 78,80 78,90 " locus_tag="BC350_RS25630" id="dummy-1_h1_3_10" style="fill:white; stroke-width:1; stroke:black; " class="clusterblast-orf"  />
</g>
<g id="a1_0011"  >
<polygon description="&lt;b&gt;BC350_RS25635&lt;/b&gt;&lt;br&gt;copper homeostasis membrane protein CopD&lt;br&gt;Location: 1878317 - 1879246" points="88,85 93,80 96,80 96,90 93,90 88,85 " locus_tag="BC350_RS25635" id="dummy-1_h1_3_11" style="fill:white; stroke-width:1; stroke:black; " class="clusterblast-orf"  />
</g>
<g id="a1_0012"  >
<polygon description="&lt;b&gt;BC350_RS25640&lt;/b&gt;&lt;br&gt;copper homeostasis periplasmic binding protein CopC&lt;br&gt;Location: 1879251 - 1879637" points="96,85 99,80 99,90 96,85 " locus_tag="BC350_RS25640" id="dummy-1_h1_3_12" style="fill:white; stroke-width:1; stroke:black; " class="clusterblast-orf"  />
</g>
<g id="a1_0013"  >
<polygon description="&lt;b&gt;BC350_RS25645&lt;/b&gt;&lt;br&gt;copper resistance protein B&lt;br&gt;Location: 1879675 - 1880709" points="99,85 104,80 108,80 108,90 104,90 99,85 " locus_tag="BC350_RS25645" id="dummy-1_h1_3_13" style="fill:white; stroke-width:1; stroke:black; " class="clusterblast-orf"  />
</g>
<g id="a1_0014"  >
<polygon description="&lt;b&gt;BC350_RS25650&lt;/b&gt;&lt;br&gt;copper resistance system multicopper oxidase&lt;br&gt;Location: 1880706 - 1882531" points="108,85 113,80 124,80 124,90 113,90 108,85 " locus_tag="BC350_RS25650" id="dummy-1_h1_3_14" style="fill:white; stroke-width:1; stroke:black; " class="clusterblast-orf"  />
</g>
<g id="a1_0015"  >
<polygon description="&lt;b&gt;BC350_RS25655&lt;/b&gt;&lt;br&gt;heavy metal response regulator transcription factor&lt;br&gt;Location: 1882785 - 1883471" points="126,90 126,90 131,85 126,80 126,80 126,90 " locus_tag="BC350_RS25655" id="dummy-1_h1_3_15" style="fill:white; stroke-width:1; stroke:black; " class="clusterblast-orf"  />
</g>
<g id="a1_0016"  >
<polygon description="&lt;b&gt;BC350_RS25660&lt;/b&gt;&lt;br&gt;heavy metal sensor histidine kinase&lt;br&gt;Location: 1883468 - 1884868" points="131,90 138,90 143,85 138,80 131,80 131,90 " locus_tag="BC350_RS25660" id="dummy-1_h1_3_16" style="fill:white; stroke-width:1; stroke:black; " class="clusterblast-orf"  />
</g>
<g id="a1_0017"  >
<polygon description="&lt;b&gt;BC350_RS25665&lt;/b&gt;&lt;br&gt;AraC family transcriptional regulator&lt;br&gt;Location: 1884926 - 1885942" points="144,85 149,80 152,80 152,90 149,90 144,85 " locus_tag="BC350_RS25665" id="dummy-1_h1_3_17" style="fill:white; stroke-width:1; stroke:black; " class="clusterblast-orf"  />
</g>
<g id="a1_0018"  >
<polygon description="&lt;b&gt;BC350_RS26815&lt;/b&gt;&lt;br&gt;hypothetical protein&lt;br&gt;Location: 1885911 - 1886159" points="152,90 154,85 152,80 152,90 " locus_tag="BC350_RS26815" id="dummy-1_h1_3_18" style="fill:white; stroke-width:1; stroke:black; " class="clusterblast-orf"  />
</g>
<g id="a1_0019"  >
<polygon description="&lt;b&gt;BC350_RS25670&lt;/b&gt;&lt;br&gt;acyl-CoA dehydrogenase&lt;br&gt;Location: 1886208 - 1887341" points="155,90 159,90 164,85 159,80 155,80 155,90 " locus_tag="BC350_RS25670" id="dummy-1_h1_3_19" style="fill:white; stroke-width:1; stroke:black; " class="clusterblast-orf"  />
</g>
<g id="a1_0020"  >
<polygon description="&lt;b&gt;BC350_RS25675&lt;/b&gt;&lt;br&gt;AMP-binding protein&lt;br&gt;Location: 1887403 - 1889106" points="165,90 174,90 179,85 174,80 165,80 165,90 " locus_tag="BC350_RS25675" id="dummy-1_h1_3_20" style="fill:white; stroke-width:1; stroke:black; " class="clusterblast-orf"  />
</g>
<g id="a1_0021"  >
<polygon description="&lt;b&gt;BC350_RS25680&lt;/b&gt;&lt;br&gt;CoA-acylating methylmalonate-semialdehyde dehydrogenase&lt;br&gt;Location: 1889208 - 1890755" points="180,90 188,90 193,85 188,80 180,80 180,90 " locus_tag="BC350_RS25680" id="dummy-1_h1_3_21" style="fill:white; stroke-width:1; stroke:black; " class="clusterblast-orf"  />
</g>
<g id="a1_0022"  >
<polygon description="&lt;b&gt;BC350_RS25685&lt;/b&gt;&lt;br&gt;3-hydroxyisobutyrate dehydrogenase&lt;br&gt;Location: 1890777 - 1891673" points="193,90 196,90 201,85 196,80 193,80 193,90 " locus_tag="BC350_RS25685" id="dummy-1_h1_3_22" style="fill:white; stroke-width:1; stroke:black; " class="clusterblast-orf"  />
</g>
<g id="a1_0023"  >
<polygon description="&lt;b&gt;BC350_RS25690&lt;/b&gt;&lt;br&gt;enoyl-CoA hydratase&lt;br&gt;Location: 1891670 - 1892470" points="201,90 202,90 207,85 202,80 201,80 201,90 " locus_tag="BC350_RS25690" id="dummy-1_h1_3_23" style="fill:white; stroke-width:1; stroke:black; " class="clusterblast-orf"  />
</g>
<g id="a1_0024"  >
<polygon description="&lt;b&gt;BC350_RS25695&lt;/b&gt;&lt;br&gt;enoyl-CoA hydratase/isomerase family protein&lt;br&gt;Location: 1892467 - 1893639" points="207,90 212,90 217,85 212,80 207,80 207,90 " locus_tag="BC350_RS25695" id="dummy-1_h1_3_24" style="fill:white; stroke-width:1; stroke:black; " class="clusterblast-orf"  />
</g>
<g id="a1_0025"  >
<polygon description="&lt;b&gt;BC350_RS25700&lt;/b&gt;&lt;br&gt;1-aminocyclopropane-1-carboxylate deaminase&lt;br&gt;Location: 1893725 - 1894741" points="218,85 223,80 226,80 226,90 223,90 218,85 " locus_tag="BC350_RS25700" id="dummy-1_h1_3_25" style="fill:white; stroke-width:1; stroke:black; " class="clusterblast-orf"  />
</g>
<g id="a1_0026"  >
<polygon description="&lt;b&gt;BC350_RS25705&lt;/b&gt;&lt;br&gt;Lrp/AsnC family transcriptional regulator&lt;br&gt;Location: 1894955 - 1895410" points="228,90 232,85 228,80 228,90 " locus_tag="BC350_RS25705" id="dummy-1_h1_3_26" style="fill:white; stroke-width:1; stroke:black; " class="clusterblast-orf"  />
</g>
<g id="a1_0027"  >
<polygon description="&lt;b&gt;BC350_RS25710&lt;/b&gt;&lt;br&gt;hypothetical protein&lt;br&gt;Location: 1895623 - 1895934" points="234,85 236,80 236,90 234,85 " locus_tag="BC350_RS25710" id="dummy-1_h1_3_27" style="fill:white; stroke-width:1; stroke:black; " class="clusterblast-orf"  />
</g>
<g id="a1_0028"  >
<polygon description="&lt;b&gt;BC350_RS25715&lt;/b&gt;&lt;br&gt;non-ribosomal peptide synthetase&lt;br&gt;Location: 1896208 - 1914069&lt;br&gt;&lt;br&gt;&lt;b&gt;BlastP hit with cds0_4074&lt;/b&gt;&lt;br&gt;Percentage identity: 32&lt;br&gt;Percentage coverage: 69&lt;br&gt;BLAST bit score: 406&lt;br&gt;E-value: 1.3e-110&lt;br&gt;&lt;br&gt;&lt;b&gt;BlastP hit with cds7906_24562&lt;/b&gt;&lt;br&gt;Percentage identity: 35&lt;br&gt;Percentage coverage: 101&lt;br&gt;BLAST bit score: 2517&lt;br&gt;E-value: 0.0" points="239,85 244,80 389,80 389,90 244,90 239,85 " locus_tag="BC350_RS25715" id="dummy-1_h1_3_28" style="fill:#d81515; stroke-width:1; stroke:black; " class="clusterblast-orf"  />
</g>
<g id="a1_0029"  >
<polygon description="&lt;b&gt;BC350_RS25720&lt;/b&gt;&lt;br&gt;hybrid non-ribosomal peptide synthetase/type I polyketide synthase&lt;br&gt;Location: 1914069 - 1941095&lt;br&gt;&lt;br&gt;&lt;b&gt;BlastP hit with cds0_4074&lt;/b&gt;&lt;br&gt;Percentage identity: 36&lt;br&gt;Percentage coverage: 69&lt;br&gt;BLAST bit score: 498&lt;br&gt;E-value: 2.5e-138&lt;br&gt;&lt;br&gt;&lt;b&gt;BlastP hit with cds4074_5361&lt;/b&gt;&lt;br&gt;Percentage identity: 46&lt;br&gt;Percentage coverage: 80&lt;br&gt;BLAST bit score: 313&lt;br&gt;E-value: 2.7e-83&lt;br&gt;&lt;br&gt;&lt;b&gt;BlastP hit with cds5357_7037&lt;/b&gt;&lt;br&gt;Percentage identity: 38&lt;br&gt;Percentage coverage: 102&lt;br&gt;BLAST bit score: 337&lt;br&gt;E-value: 3e-90&lt;br&gt;&lt;br&gt;&lt;b&gt;BlastP hit with cds7906_24562&lt;/b&gt;&lt;br&gt;Percentage identity: 39&lt;br&gt;Percentage coverage: 97&lt;br&gt;BLAST bit score: 2986&lt;br&gt;E-value: 0.0" points="389,85 394,80 617,80 617,90 394,90 389,85 " locus_tag="BC350_RS25720" id="dummy-1_h1_3_29" style="fill:#d81515; stroke-width:1; stroke:black; " class="clusterblast-orf"  />
</g>
<g id="a1_0030"  >
<polygon description="&lt;b&gt;BC350_RS25725&lt;/b&gt;&lt;br&gt;MbtH family protein&lt;br&gt;Location: 1941926 - 1942132&lt;br&gt;&lt;br&gt;&lt;b&gt;BlastP hit with cds7685_7910&lt;/b&gt;&lt;br&gt;Percentage identity: 55&lt;br&gt;Percentage coverage: 72&lt;br&gt;BLAST bit score: 66&lt;br&gt;E-value: 1.7e-09" points="624,90 626,85 624,80 624,90 " locus_tag="BC350_RS25725" id="dummy-1_h1_3_30" style="fill:#1515d8; stroke-width:1; stroke:black; " class="clusterblast-orf"  />
</g>
<g id="a1_0031"  >
<polygon description="&lt;b&gt;BC350_RS25730&lt;/b&gt;&lt;br&gt;MBL fold metallo-hydrolase&lt;br&gt;Location: 1942360 - 1943973" points="628,90 636,90 641,85 636,80 628,80 628,90 " locus_tag="BC350_RS25730" id="dummy-1_h1_3_31" style="fill:white; stroke-width:1; stroke:black; " class="clusterblast-orf"  />
</g>
<g id="a1_0032"  >
<polygon description="&lt;b&gt;BC350_RS25735&lt;/b&gt;&lt;br&gt;cyclic peptide export ABC transporter&lt;br&gt;Location: 1944083 - 1945750" points="642,90 651,90 656,85 651,80 642,80 642,90 " locus_tag="BC350_RS25735" id="dummy-1_h1_3_32" style="fill:white; stroke-width:1; stroke:black; " class="clusterblast-orf"  />
</g>
<g id="a1_0033"  >
<polygon description="&lt;b&gt;BC350_RS25740&lt;/b&gt;&lt;br&gt;YciI family protein&lt;br&gt;Location: 1946118 - 1946549" points="659,90 663,85 659,80 659,90 " locus_tag="BC350_RS25740" id="dummy-1_h1_3_33" style="fill:white; stroke-width:1; stroke:black; " class="clusterblast-orf"  />
</g>
<g id="a1_0034"  >
<polygon description="&lt;b&gt;BC350_RS25745&lt;/b&gt;&lt;br&gt;RNA polymerase sigma factor&lt;br&gt;Location: 1946580 - 1947854" points="663,90 669,90 674,85 669,80 663,80 663,90 " locus_tag="BC350_RS25745" id="dummy-1_h1_3_34" style="fill:white; stroke-width:1; stroke:black; " class="clusterblast-orf"  />
</g>
<g id="a1_0035"  >
<polygon description="&lt;b&gt;BC350_RS25750&lt;/b&gt;&lt;br&gt;acyltransferase&lt;br&gt;Location: 1947944 - 1949122" points="675,90 680,90 685,85 680,80 675,80 675,90 " locus_tag="BC350_RS25750" id="dummy-1_h1_3_35" style="fill:white; stroke-width:1; stroke:black; " class="clusterblast-orf"  />
</g>
<g id="a1_0036"  >
<polygon description="&lt;b&gt;BC350_RS26820&lt;/b&gt;&lt;br&gt;hypothetical protein&lt;br&gt;Location: 1949339 - 1955011" points="687,85 692,80 734,80 734,90 692,90 687,85 " locus_tag="BC350_RS26820" id="dummy-1_h1_3_36" style="fill:white; stroke-width:1; stroke:black; " class="clusterblast-orf"  />
</g>
<g id="a1_0037"  >
<polygon description="&lt;b&gt;BC350_RS26825&lt;/b&gt;&lt;br&gt;hypothetical protein&lt;br&gt;Location: 1955029 - 1955511" points="735,85 739,80 739,90 735,85 " locus_tag="BC350_RS26825" id="dummy-1_h1_3_37" style="fill:white; stroke-width:1; stroke:black; " class="clusterblast-orf"  />
</g>
<g id="a1_0038"  >
<polygon description="&lt;b&gt;BC350_RS25760&lt;/b&gt;&lt;br&gt;glycosyltransferase&lt;br&gt;Location: 1955754 - 1956989" points="741,85 746,80 751,80 751,90 746,90 741,85 " locus_tag="BC350_RS25760" id="dummy-1_h1_3_38" style="fill:white; stroke-width:1; stroke:black; " class="clusterblast-orf"  />
</g>
<g id="a1_0039"  >
<polygon description="&lt;b&gt;BC350_RS25765&lt;/b&gt;&lt;br&gt;lipopolysaccharide heptosyltransferase I&lt;br&gt;Location: 1957811 - 1958809" points="758,85 763,80 766,80 766,90 763,90 758,85 " locus_tag="BC350_RS25765" id="dummy-1_h1_3_39" style="fill:white; stroke-width:1; stroke:black; " class="clusterblast-orf"  />
</g>
<g id="a1_0040"  >
<polygon description="&lt;b&gt;BC350_RS25770&lt;/b&gt;&lt;br&gt;hypothetical protein&lt;br&gt;Location: 1959320 - 1959970" points="771,85 776,80 776,80 776,90 776,90 771,85 " locus_tag="BC350_RS25770" id="dummy-1_h1_3_40" style="fill:white; stroke-width:1; stroke:black; " class="clusterblast-orf"  />
</g>
<g id="a1_0041"  >
<polygon description="&lt;b&gt;BC350_RS25775&lt;/b&gt;&lt;br&gt;PAAR domain-containing protein&lt;br&gt;Location: 1960064 - 1960357" points="777,85 779,80 779,90 777,85 " locus_tag="BC350_RS25775" id="dummy-1_h1_3_41" style="fill:white; stroke-width:1; stroke:black; " class="clusterblast-orf"  />
</g>
</svg>
