<svg xmlns:xlink="http://www.w3.org/1999/xlink" preserveAspectRatio="none" width="800" xmlns="http://www.w3.org/2000/svg" y="0" height="230" x="0" version="1.1" viewBox="0 0 800 230"  >
<g class="clusterblast-cluster" label="Query sequence"  >
<text y="20" x="5" class="clusterblast-acc"  >
Query sequence</text>
<line x2="778.0" x1="10" y1="35" y2="35" style="stroke:grey; stroke-width:1; "  />
<polygon description="&lt;b&gt;cds2618_3380&lt;/b&gt;&lt;br&gt;Precorrin-6A synthase (deacetylating) (EC 2.1.1.152)&lt;br&gt;Location: 2618 - 3380" points="285,35 289,30 289,40 285,35 " locus_tag="cds2618_3380" id="dummy-1_q0_0_all" style="fill:#d81515; stroke-width:1; stroke:black; " class="clusterblast-orf"  />
<polygon description="&lt;b&gt;cds3424_4246&lt;/b&gt;&lt;br&gt;Thymidylate synthase (EC 2.1.1.45)&lt;br&gt;Location: 3424 - 4246" points="289,40 289,40 294,35 289,30 289,30 289,40 " locus_tag="cds3424_4246" id="dummy-1_q1_0_all" style="fill:#54d815; stroke-width:1; stroke:black; " class="clusterblast-orf"  />
<polygon description="&lt;b&gt;cds4242_4749&lt;/b&gt;&lt;br&gt;Dihydrofolate reductase (EC 1.5.1.3)&lt;br&gt;Location: 4242 - 4749" points="294,40 296,35 294,30 294,40 " locus_tag="cds4242_4749" id="dummy-1_q2_0_all" style="fill:#15c1d8; stroke-width:1; stroke:black; " class="clusterblast-orf"  />
<polygon description="&lt;b&gt;cds4866_5193&lt;/b&gt;&lt;br&gt;hypothetical protein&lt;br&gt;Location: 4866 - 5193" points="297,40 298,35 297,30 297,40 " locus_tag="cds4866_5193" id="dummy-1_q3_0_all" style="fill:#8215d8; stroke-width:1; stroke:black; " class="clusterblast-orf"  />
<polygon description="&lt;b&gt;cds5288_6293&lt;/b&gt;&lt;br&gt;Predicted dye-decolorizing peroxidase (DyP), encapsulated subgroup&lt;br&gt;Location: 5288 - 6293" points="299,40 299,40 304,35 299,30 299,30 299,40 " locus_tag="cds5288_6293" id="dummy-1_q4_0_all" style="fill:#d84415; stroke-width:1; stroke:black; " class="clusterblast-orf"  />
<polygon description="&lt;b&gt;cds6296_7094&lt;/b&gt;&lt;br&gt;Encapsulating protein for a DyP-type peroxidase or ferritin-like protein oligomers&lt;br&gt;Location: 6296 - 7094" points="304,40 308,35 304,30 304,40 " locus_tag="cds6296_7094" id="dummy-1_q5_0_all" style="fill:#25d815; stroke-width:1; stroke:black; " class="clusterblast-orf"  />
<polygon description="&lt;b&gt;cds7342_7876&lt;/b&gt;&lt;br&gt;hypothetical protein&lt;br&gt;Location: 7342 - 7876" points="310,40 312,35 310,30 310,40 " locus_tag="cds7342_7876" id="dummy-1_q6_0_all" style="fill:#1592d8; stroke-width:1; stroke:black; " class="clusterblast-orf"  />
<polygon description="&lt;b&gt;cds7904_8300&lt;/b&gt;&lt;br&gt;Putative MutT-family protein&lt;br&gt;Location: 7904 - 8300" points="312,40 314,35 312,30 312,40 " locus_tag="cds7904_8300" id="dummy-1_q7_0_all" style="fill:#b115d8; stroke-width:1; stroke:black; " class="clusterblast-orf"  />
<polygon description="&lt;b&gt;cds8289_9912&lt;/b&gt;&lt;br&gt;Uncharacterized MFS-type transporter&lt;br&gt;Location: 8289 - 9912" points="314,35 319,30 323,30 323,40 319,40 314,35 " locus_tag="cds8289_9912" id="dummy-1_q8_0_all" style="fill:#d87315; stroke-width:1; stroke:black; " class="clusterblast-orf"  />
<polygon description="&lt;b&gt;cds10163_11909&lt;/b&gt;&lt;br&gt;Tellurium resistance protein TerA&lt;br&gt;Location: 10163 - 11909" points="324,40 328,40 333,35 328,30 324,30 324,40 " locus_tag="cds10163_11909" id="dummy-1_q9_0_all" style="fill:#15d834; stroke-width:1; stroke:black; " class="clusterblast-orf"  />
<polygon description="&lt;b&gt;cds11910_12567&lt;/b&gt;&lt;br&gt;transcription regulator AmtR&lt;br&gt;Location: 11910 - 12567" points="333,35 336,30 336,40 333,35 " locus_tag="cds11910_12567" id="dummy-1_q10_0_all" style="fill:#1563d8; stroke-width:1; stroke:black; " class="clusterblast-orf"  />
<polygon description="&lt;b&gt;cds12687_12810&lt;/b&gt;&lt;br&gt;hypothetical protein&lt;br&gt;Location: 12687 - 12810" points="337,35 338,30 338,40 337,35 " locus_tag="cds12687_12810" id="dummy-1_q11_0_all" style="fill:white; stroke-width:1; stroke:black; " class="clusterblast-orf"  />
<polygon description="&lt;b&gt;cds12825_14358&lt;/b&gt;&lt;br&gt;Sodium/proline symporter&lt;br&gt;Location: 12825 - 14358" points="338,40 341,40 346,35 341,30 338,30 338,40 " locus_tag="cds12825_14358" id="dummy-1_q12_0_all" style="fill:#d815d0; stroke-width:1; stroke:black; " class="clusterblast-orf"  />
<polygon description="&lt;b&gt;cds14354_14510&lt;/b&gt;&lt;br&gt;hypothetical protein&lt;br&gt;Location: 14354 - 14510" points="346,40 346,35 346,30 346,40 " locus_tag="cds14354_14510" id="dummy-1_q13_0_all" style="fill:#d8a215; stroke-width:1; stroke:black; " class="clusterblast-orf"  />
<polygon description="&lt;b&gt;cds14572_15325&lt;/b&gt;&lt;br&gt;Urea carboxylase-related aminomethyltransferase&lt;br&gt;Location: 14572 - 15325" points="347,40 351,35 347,30 347,40 " locus_tag="cds14572_15325" id="dummy-1_q14_0_all" style="fill:#15d863; stroke-width:1; stroke:black; " class="clusterblast-orf"  />
<polygon description="&lt;b&gt;cds15392_16010&lt;/b&gt;&lt;br&gt;Urea carboxylase-related aminomethyltransferase&lt;br&gt;Location: 15392 - 16010" points="351,40 354,35 351,30 351,40 " locus_tag="cds15392_16010" id="dummy-1_q15_0_all" style="fill:#1534d8; stroke-width:1; stroke:black; " class="clusterblast-orf"  />
<polygon description="&lt;b&gt;cds16006_18115&lt;/b&gt;&lt;br&gt;Urea carboxylase (EC 6.3.4.6)&lt;br&gt;Location: 16006 - 18115" points="354,40 360,40 365,35 360,30 354,30 354,40 " locus_tag="cds16006_18115" id="dummy-1_q16_0_all" style="fill:#d815a2; stroke-width:1; stroke:black; " class="clusterblast-orf"  />
<polygon description="&lt;b&gt;cds18111_19725&lt;/b&gt;&lt;br&gt;Allophanate hydrolase (EC 3.5.1.54)&lt;br&gt;Location: 18111 - 19725" points="365,40 368,40 373,35 368,30 365,30 365,40 " locus_tag="cds18111_19725" id="dummy-1_q17_0_all" style="fill:#d8d015; stroke-width:1; stroke:black; " class="clusterblast-orf"  />
<polygon description="&lt;b&gt;cds19736_20900&lt;/b&gt;&lt;br&gt;Epoxide hydrolase (EC 3.3.2.9)&lt;br&gt;Location: 19736 - 20900" points="373,35 378,30 379,30 379,40 378,40 373,35 " locus_tag="cds19736_20900" id="dummy-1_q18_0_all" style="fill:#15d892; stroke-width:1; stroke:black; " class="clusterblast-orf"  />
<polygon description="&lt;b&gt;cds20966_21914&lt;/b&gt;&lt;br&gt;Transcriptional regulator, YafY family&lt;br&gt;Location: 20966 - 21914" points="380,40 384,35 380,30 380,40 " locus_tag="cds20966_21914" id="dummy-1_q19_0_all" style="fill:#2515d8; stroke-width:1; stroke:black; " class="clusterblast-orf"  />
<polygon description="&lt;b&gt;cds21910_22393&lt;/b&gt;&lt;br&gt;Transcriptional regulator, MarR family&lt;br&gt;Location: 21910 - 22393" points="384,35 387,30 387,40 384,35 " locus_tag="cds21910_22393" id="dummy-1_q20_0_all" style="fill:#d81573; stroke-width:1; stroke:black; " class="clusterblast-orf"  />
<polygon description="&lt;b&gt;cds22504_23644&lt;/b&gt;&lt;br&gt;hypothetical protein&lt;br&gt;Location: 22504 - 23644" points="387,40 388,40 393,35 388,30 387,30 387,40 " locus_tag="cds22504_23644" id="dummy-1_q21_0_all" style="fill:#b1d815; stroke-width:1; stroke:black; " class="clusterblast-orf"  />
<polygon description="&lt;b&gt;cds23616_25035&lt;/b&gt;&lt;br&gt;hypothetical protein&lt;br&gt;Location: 23616 - 25035" points="393,35 398,30 400,30 400,40 398,40 393,35 " locus_tag="cds23616_25035" id="dummy-1_q22_0_all" style="fill:#15d8c1; stroke-width:1; stroke:black; " class="clusterblast-orf"  />
<polygon description="&lt;b&gt;cds25221_26784&lt;/b&gt;&lt;br&gt;hypothetical protein&lt;br&gt;Location: 25221 - 26784" points="401,35 406,30 409,30 409,40 406,40 401,35 " locus_tag="cds25221_26784" id="dummy-1_q23_0_all" style="fill:#5415d8; stroke-width:1; stroke:black; " class="clusterblast-orf"  />
<polygon description="&lt;b&gt;cds26783_27548&lt;/b&gt;&lt;br&gt;ATP-binding transport protein NatA&lt;br&gt;Location: 26783 - 27548" points="409,35 413,30 413,40 409,35 " locus_tag="cds26783_27548" id="dummy-1_q24_0_all" style="fill:#d81544; stroke-width:1; stroke:black; " class="clusterblast-orf"  />
<polygon description="&lt;b&gt;cds27927_43224&lt;/b&gt;&lt;br&gt;Siderophore biosynthesis non-ribosomal peptide synthetase modules&lt;br&gt;Location: 27927 - 43224" points="415,35 420,30 494,30 494,40 420,40 415,35 " locus_tag="cds27927_43224" id="dummy-1_q25_0_all" style="fill:#82d815; stroke-width:1; stroke:black; " class="clusterblast-orf"  />
</g>
<g description="NZ_CP006850 (7372077-7523891): Nocardia nova SH22a chromosome, complete genome (26% of genes show similarity), NRPS,bacteriocin" class="clusterblast-cluster" label="NZ_CP006850"  >
<text y="70" x="5" class="clusterblast-acc"  >
<a xlink:href="https://antismash-db.secondarymetabolites.org/area.html?record=NZ_CP006850&amp;start=7372077&amp;end=7523891" target="_blank">NZ_CP006850 (7372077-7523891)</a>: Nocardia nova SH22a chromosome, complete genome (26% of genes show similarity), NRPS,bacteriocin</text>
<line x2="778.0" x1="10" y1="85" y2="85" style="stroke:grey; stroke-width:1; "  />
</g>
<g id="a1_000"  >
<polygon description="&lt;b&gt;NONO_RS33575&lt;/b&gt;&lt;br&gt;DUF2630 family protein&lt;br&gt;Location: 7372078 - 7372323" points="0,90 1,85 0,80 0,90 " locus_tag="NONO_RS33575" id="dummy-1_h1_10_0" style="fill:white; stroke-width:1; stroke:black; " class="clusterblast-orf"  />
</g>
<g id="a1_001"  >
<polygon description="&lt;b&gt;NONO_RS33580&lt;/b&gt;&lt;br&gt;carboxylesterase/lipase family protein&lt;br&gt;Location: 7372340 - 7373845" points="1,90 4,90 9,85 4,80 1,80 1,90 " locus_tag="NONO_RS33580" id="dummy-1_h1_10_1" style="fill:white; stroke-width:1; stroke:black; " class="clusterblast-orf"  />
</g>
<g id="a1_002"  >
<polygon description="&lt;b&gt;NONO_RS33585&lt;/b&gt;&lt;br&gt;Fpg/Nei family DNA glycosylase&lt;br&gt;Location: 7373849 - 7374715" points="9,85 13,80 13,90 9,85 " locus_tag="NONO_RS33585" id="dummy-1_h1_10_2" style="fill:white; stroke-width:1; stroke:black; " class="clusterblast-orf"  />
</g>
<g id="a1_003"  >
<polygon description="&lt;b&gt;NONO_RS38500&lt;/b&gt;&lt;br&gt;hypothetical protein&lt;br&gt;Location: 7374754 - 7375695" points="13,85 18,80 18,80 18,90 18,90 13,85 " locus_tag="NONO_RS38500" id="dummy-1_h1_10_3" style="fill:white; stroke-width:1; stroke:black; " class="clusterblast-orf"  />
</g>
<g id="a1_004"  >
<polygon description="&lt;b&gt;NONO_RS33595&lt;/b&gt;&lt;br&gt;precorrin-6A synthase (deacetylating)&lt;br&gt;Location: 7375820 - 7376578&lt;br&gt;&lt;br&gt;&lt;b&gt;BlastP hit with cds2618_3380&lt;/b&gt;&lt;br&gt;Percentage identity: 69&lt;br&gt;Percentage coverage: 100&lt;br&gt;BLAST bit score: 347&lt;br&gt;E-value: 7.7e-94" points="19,85 23,80 23,90 19,85 " locus_tag="NONO_RS33595" id="dummy-1_h1_10_4" style="fill:#d81515; stroke-width:1; stroke:black; " class="clusterblast-orf"  />
</g>
<g id="a1_005"  >
<polygon description="&lt;b&gt;NONO_RS33600&lt;/b&gt;&lt;br&gt;thymidylate synthase&lt;br&gt;Location: 7376675 - 7377538&lt;br&gt;&lt;br&gt;&lt;b&gt;BlastP hit with cds3424_4246&lt;/b&gt;&lt;br&gt;Percentage identity: 85&lt;br&gt;Percentage coverage: 96&lt;br&gt;BLAST bit score: 496&lt;br&gt;E-value: 1.5e-138" points="23,90 23,90 28,85 23,80 23,80 23,90 " locus_tag="NONO_RS33600" id="dummy-1_h1_10_5" style="fill:#54d815; stroke-width:1; stroke:black; " class="clusterblast-orf"  />
</g>
<g id="a1_006"  >
<polygon description="&lt;b&gt;NONO_RS33605&lt;/b&gt;&lt;br&gt;dihydrofolate reductase&lt;br&gt;Location: 7377535 - 7378041&lt;br&gt;&lt;br&gt;&lt;b&gt;BlastP hit with cds4242_4749&lt;/b&gt;&lt;br&gt;Percentage identity: 69&lt;br&gt;Percentage coverage: 93&lt;br&gt;BLAST bit score: 235&lt;br&gt;E-value: 4.8e-60" points="28,90 30,85 28,80 28,90 " locus_tag="NONO_RS33605" id="dummy-1_h1_10_6" style="fill:#15c1d8; stroke-width:1; stroke:black; " class="clusterblast-orf"  />
</g>
<g id="a1_007"  >
<polygon description="&lt;b&gt;NONO_RS33610&lt;/b&gt;&lt;br&gt;LuxR family transcriptional regulator&lt;br&gt;Location: 7378177 - 7378503&lt;br&gt;&lt;br&gt;&lt;b&gt;BlastP hit with cds4866_5193&lt;/b&gt;&lt;br&gt;Percentage identity: 85&lt;br&gt;Percentage coverage: 100&lt;br&gt;BLAST bit score: 176&lt;br&gt;E-value: 1e-42" points="31,90 33,85 31,80 31,90 " locus_tag="NONO_RS33610" id="dummy-1_h1_10_7" style="fill:#8215d8; stroke-width:1; stroke:black; " class="clusterblast-orf"  />
</g>
<g id="a1_008"  >
<polygon description="&lt;b&gt;NONO_RS33615&lt;/b&gt;&lt;br&gt;Dyp-type peroxidase&lt;br&gt;Location: 7378609 - 7379637&lt;br&gt;&lt;br&gt;&lt;b&gt;BlastP hit with cds5288_6293&lt;/b&gt;&lt;br&gt;Percentage identity: 74&lt;br&gt;Percentage coverage: 102&lt;br&gt;BLAST bit score: 488&lt;br&gt;E-value: 6.3e-136" points="33,90 33,90 38,85 33,80 33,80 33,90 " locus_tag="NONO_RS33615" id="dummy-1_h1_10_8" style="fill:#d84415; stroke-width:1; stroke:black; " class="clusterblast-orf"  />
</g>
<g id="a1_009"  >
<polygon description="&lt;b&gt;NONO_RS33620&lt;/b&gt;&lt;br&gt;bacteriocin family protein&lt;br&gt;Location: 7379634 - 7380434&lt;br&gt;&lt;br&gt;&lt;b&gt;BlastP hit with cds6296_7094&lt;/b&gt;&lt;br&gt;Percentage identity: 85&lt;br&gt;Percentage coverage: 100&lt;br&gt;BLAST bit score: 450&lt;br&gt;E-value: 8.9e-125" points="38,90 42,85 38,80 38,90 " locus_tag="NONO_RS33620" id="dummy-1_h1_10_9" style="fill:#25d815; stroke-width:1; stroke:black; " class="clusterblast-orf"  />
</g>
<g id="a1_0010"  >
<polygon description="&lt;b&gt;NONO_RS33625&lt;/b&gt;&lt;br&gt;hypothetical protein&lt;br&gt;Location: 7380599 - 7381129&lt;br&gt;&lt;br&gt;&lt;b&gt;BlastP hit with cds7342_7876&lt;/b&gt;&lt;br&gt;Percentage identity: 63&lt;br&gt;Percentage coverage: 98&lt;br&gt;BLAST bit score: 218&lt;br&gt;E-value: 4.9e-55" points="43,90 46,85 43,80 43,90 " locus_tag="NONO_RS33625" id="dummy-1_h1_10_10" style="fill:#1592d8; stroke-width:1; stroke:black; " class="clusterblast-orf"  />
</g>
<g id="a1_0011"  >
<polygon description="&lt;b&gt;NONO_RS33630&lt;/b&gt;&lt;br&gt;NUDIX domain-containing protein&lt;br&gt;Location: 7381163 - 7381558&lt;br&gt;&lt;br&gt;&lt;b&gt;BlastP hit with cds7904_8300&lt;/b&gt;&lt;br&gt;Percentage identity: 80&lt;br&gt;Percentage coverage: 100&lt;br&gt;BLAST bit score: 221&lt;br&gt;E-value: 5.6e-56" points="46,90 48,85 46,80 46,90 " locus_tag="NONO_RS33630" id="dummy-1_h1_10_11" style="fill:#b115d8; stroke-width:1; stroke:black; " class="clusterblast-orf"  />
</g>
<g id="a1_0012"  >
<polygon description="&lt;b&gt;NONO_RS33635&lt;/b&gt;&lt;br&gt;MFS transporter&lt;br&gt;Location: 7381548 - 7383203&lt;br&gt;&lt;br&gt;&lt;b&gt;BlastP hit with cds8289_9912&lt;/b&gt;&lt;br&gt;Percentage identity: 51&lt;br&gt;Percentage coverage: 101&lt;br&gt;BLAST bit score: 480&lt;br&gt;E-value: 1.6e-133" points="48,85 53,80 57,80 57,90 53,90 48,85 " locus_tag="NONO_RS33635" id="dummy-1_h1_10_12" style="fill:#d87315; stroke-width:1; stroke:black; " class="clusterblast-orf"  />
</g>
<g id="a1_0013"  >
<polygon description="&lt;b&gt;NONO_RS33640&lt;/b&gt;&lt;br&gt;hypothetical protein&lt;br&gt;Location: 7383564 - 7384238" points="59,90 62,85 59,80 59,90 " locus_tag="NONO_RS33640" id="dummy-1_h1_10_13" style="fill:white; stroke-width:1; stroke:black; " class="clusterblast-orf"  />
</g>
<g id="a1_0014"  >
<polygon description="&lt;b&gt;NONO_RS33645&lt;/b&gt;&lt;br&gt;MarR family transcriptional regulator&lt;br&gt;Location: 7384275 - 7384754&lt;br&gt;&lt;br&gt;&lt;b&gt;BlastP hit with cds21910_22393&lt;/b&gt;&lt;br&gt;Percentage identity: 66&lt;br&gt;Percentage coverage: 95&lt;br&gt;BLAST bit score: 201&lt;br&gt;E-value: 7.4e-50" points="62,85 65,80 65,90 62,85 " locus_tag="NONO_RS33645" id="dummy-1_h1_10_14" style="fill:#d81573; stroke-width:1; stroke:black; " class="clusterblast-orf"  />
</g>
<g id="a1_0015"  >
<polygon description="&lt;b&gt;NONO_RS33650&lt;/b&gt;&lt;br&gt;lipase&lt;br&gt;Location: 7384859 - 7385974&lt;br&gt;&lt;br&gt;&lt;b&gt;BlastP hit with cds22504_23644&lt;/b&gt;&lt;br&gt;Percentage identity: 62&lt;br&gt;Percentage coverage: 96&lt;br&gt;BLAST bit score: 437&lt;br&gt;E-value: 1.1e-120" points="65,90 66,90 71,85 66,80 65,80 65,90 " locus_tag="NONO_RS33650" id="dummy-1_h1_10_15" style="fill:#b1d815; stroke-width:1; stroke:black; " class="clusterblast-orf"  />
</g>
<g id="a1_0016"  >
<polygon description="&lt;b&gt;NONO_RS33655&lt;/b&gt;&lt;br&gt;hypothetical protein&lt;br&gt;Location: 7386006 - 7387583&lt;br&gt;&lt;br&gt;&lt;b&gt;BlastP hit with cds25221_26784&lt;/b&gt;&lt;br&gt;Percentage identity: 64&lt;br&gt;Percentage coverage: 100&lt;br&gt;BLAST bit score: 637&lt;br&gt;E-value: 1.3e-180" points="71,85 76,80 79,80 79,90 76,90 71,85 " locus_tag="NONO_RS33655" id="dummy-1_h1_10_16" style="fill:#5415d8; stroke-width:1; stroke:black; " class="clusterblast-orf"  />
</g>
<g id="a1_0017"  >
<polygon description="&lt;b&gt;NONO_RS33660&lt;/b&gt;&lt;br&gt;ABC transporter ATP-binding protein&lt;br&gt;Location: 7387568 - 7388335&lt;br&gt;&lt;br&gt;&lt;b&gt;BlastP hit with cds26783_27548&lt;/b&gt;&lt;br&gt;Percentage identity: 84&lt;br&gt;Percentage coverage: 100&lt;br&gt;BLAST bit score: 421&lt;br&gt;E-value: 7.2e-116" points="79,85 83,80 83,90 79,85 " locus_tag="NONO_RS33660" id="dummy-1_h1_10_17" style="fill:#d81544; stroke-width:1; stroke:black; " class="clusterblast-orf"  />
</g>
<g id="a1_0018"  >
<polygon description="&lt;b&gt;NONO_RS33665&lt;/b&gt;&lt;br&gt;non-ribosomal peptide synthetase&lt;br&gt;Location: 7388488 - 7438773&lt;br&gt;&lt;br&gt;&lt;b&gt;BlastP hit with cds27927_43224&lt;/b&gt;&lt;br&gt;Percentage identity: 62&lt;br&gt;Percentage coverage: 97&lt;br&gt;BLAST bit score: 5716&lt;br&gt;E-value: 0.0" points="84,85 89,80 342,80 342,90 89,90 84,85 " locus_tag="NONO_RS33665" id="dummy-1_h1_10_18" style="fill:#82d815; stroke-width:1; stroke:black; " class="clusterblast-orf"  />
</g>
<g id="a1_0019"  >
<polygon description="&lt;b&gt;NONO_RS33670&lt;/b&gt;&lt;br&gt;precorrin-4 C(11)-methyltransferase&lt;br&gt;Location: 7439119 - 7439886" points="344,85 348,80 348,90 344,85 " locus_tag="NONO_RS33670" id="dummy-1_h1_10_19" style="fill:white; stroke-width:1; stroke:black; " class="clusterblast-orf"  />
</g>
<g id="a1_0020"  >
<polygon description="&lt;b&gt;NONO_RS33675&lt;/b&gt;&lt;br&gt;PPOX class F420-dependent oxidoreductase&lt;br&gt;Location: 7439999 - 7440424" points="348,85 351,80 351,90 348,85 " locus_tag="NONO_RS33675" id="dummy-1_h1_10_20" style="fill:white; stroke-width:1; stroke:black; " class="clusterblast-orf"  />
</g>
<g id="a1_0021"  >
<polygon description="&lt;b&gt;NONO_RS33680&lt;/b&gt;&lt;br&gt;response regulator transcription factor&lt;br&gt;Location: 7440506 - 7441123" points="351,85 354,80 354,90 351,85 " locus_tag="NONO_RS33680" id="dummy-1_h1_10_21" style="fill:white; stroke-width:1; stroke:black; " class="clusterblast-orf"  />
</g>
<g id="a1_0022"  >
<polygon description="&lt;b&gt;NONO_RS33685&lt;/b&gt;&lt;br&gt;sensor histidine kinase&lt;br&gt;Location: 7441120 - 7442325" points="354,85 359,80 360,80 360,90 359,90 354,85 " locus_tag="NONO_RS33685" id="dummy-1_h1_10_22" style="fill:white; stroke-width:1; stroke:black; " class="clusterblast-orf"  />
</g>
<g id="a1_0023"  >
<polygon description="&lt;b&gt;NONO_RS33690&lt;/b&gt;&lt;br&gt;NAD(P)H-binding protein&lt;br&gt;Location: 7442581 - 7443420" points="362,90 366,85 362,80 362,90 " locus_tag="NONO_RS33690" id="dummy-1_h1_10_23" style="fill:white; stroke-width:1; stroke:black; " class="clusterblast-orf"  />
</g>
<g id="a1_0024"  >
<polygon description="&lt;b&gt;NONO_RS33695&lt;/b&gt;&lt;br&gt;hemerythrin domain-containing protein&lt;br&gt;Location: 7443434 - 7444039" points="366,90 369,85 366,80 366,90 " locus_tag="NONO_RS33695" id="dummy-1_h1_10_24" style="fill:white; stroke-width:1; stroke:black; " class="clusterblast-orf"  />
</g>
<g id="a1_0025"  >
<polygon description="&lt;b&gt;NONO_RS33700&lt;/b&gt;&lt;br&gt;alpha/beta fold hydrolase&lt;br&gt;Location: 7444071 - 7444973" points="369,90 369,90 374,85 369,80 369,80 369,90 " locus_tag="NONO_RS33700" id="dummy-1_h1_10_25" style="fill:white; stroke-width:1; stroke:black; " class="clusterblast-orf"  />
</g>
<g id="a1_0026"  >
<polygon description="&lt;b&gt;NONO_RS33705&lt;/b&gt;&lt;br&gt;ABC transporter permease&lt;br&gt;Location: 7445052 - 7446101" points="374,90 375,90 380,85 375,80 374,80 374,90 " locus_tag="NONO_RS33705" id="dummy-1_h1_10_26" style="fill:white; stroke-width:1; stroke:black; " class="clusterblast-orf"  />
</g>
<g id="a1_0027"  >
<polygon description="&lt;b&gt;NONO_RS33710&lt;/b&gt;&lt;br&gt;ABC transporter ATP-binding protein&lt;br&gt;Location: 7446128 - 7446853" points="380,90 384,85 380,80 380,90 " locus_tag="NONO_RS33710" id="dummy-1_h1_10_27" style="fill:white; stroke-width:1; stroke:black; " class="clusterblast-orf"  />
</g>
<g id="a1_0028"  >
<polygon description="&lt;b&gt;NONO_RS33715&lt;/b&gt;&lt;br&gt;AAA family ATPase&lt;br&gt;Location: 7447105 - 7447803" points="385,90 389,85 385,80 385,90 " locus_tag="NONO_RS33715" id="dummy-1_h1_10_28" style="fill:white; stroke-width:1; stroke:black; " class="clusterblast-orf"  />
</g>
<g id="a1_0029"  >
<polygon description="&lt;b&gt;NONO_RS33720&lt;/b&gt;&lt;br&gt;hypothetical protein&lt;br&gt;Location: 7447866 - 7448177" points="389,85 390,80 390,90 389,85 " locus_tag="NONO_RS33720" id="dummy-1_h1_10_29" style="fill:white; stroke-width:1; stroke:black; " class="clusterblast-orf"  />
</g>
<g id="a1_0030"  >
<polygon description="&lt;b&gt;NONO_RS33725&lt;/b&gt;&lt;br&gt;acetoacetate--CoA ligase&lt;br&gt;Location: 7448335 - 7450281" points="391,85 396,80 401,80 401,90 396,90 391,85 " locus_tag="NONO_RS33725" id="dummy-1_h1_10_30" style="fill:white; stroke-width:1; stroke:black; " class="clusterblast-orf"  />
</g>
<g id="a1_0031"  >
<polygon description="&lt;b&gt;NONO_RS33730&lt;/b&gt;&lt;br&gt;CoA ester lyase&lt;br&gt;Location: 7450410 - 7451222" points="402,85 406,80 406,90 402,85 " locus_tag="NONO_RS33730" id="dummy-1_h1_10_31" style="fill:white; stroke-width:1; stroke:black; " class="clusterblast-orf"  />
</g>
<g id="a1_0032"  >
<polygon description="&lt;b&gt;NONO_RS33735&lt;/b&gt;&lt;br&gt;MaoC family dehydratase&lt;br&gt;Location: 7451225 - 7451704" points="406,85 409,80 409,90 406,85 " locus_tag="NONO_RS33735" id="dummy-1_h1_10_32" style="fill:white; stroke-width:1; stroke:black; " class="clusterblast-orf"  />
</g>
<g id="a1_0033"  >
<polygon description="&lt;b&gt;NONO_RS33740&lt;/b&gt;&lt;br&gt;acyl-CoA dehydrogenase&lt;br&gt;Location: 7451722 - 7452882" points="409,85 414,80 415,80 415,90 414,90 409,85 " locus_tag="NONO_RS33740" id="dummy-1_h1_10_33" style="fill:white; stroke-width:1; stroke:black; " class="clusterblast-orf"  />
</g>
<g id="a1_0034"  >
<polygon description="&lt;b&gt;NONO_RS33745&lt;/b&gt;&lt;br&gt;acetyl/propionyl/methylcrotonyl-CoA carboxylase subunit alpha&lt;br&gt;Location: 7452879 - 7454918" points="415,85 420,80 425,80 425,90 420,90 415,85 " locus_tag="NONO_RS33745" id="dummy-1_h1_10_34" style="fill:white; stroke-width:1; stroke:black; " class="clusterblast-orf"  />
</g>
<g id="a1_0035"  >
<polygon description="&lt;b&gt;NONO_RS33750&lt;/b&gt;&lt;br&gt;methylcrotonoyl-CoA carboxylase&lt;br&gt;Location: 7454923 - 7456500" points="425,85 430,80 433,80 433,90 430,90 425,85 " locus_tag="NONO_RS33750" id="dummy-1_h1_10_35" style="fill:white; stroke-width:1; stroke:black; " class="clusterblast-orf"  />
</g>
<g id="a1_0036"  >
<polygon description="&lt;b&gt;NONO_RS33755&lt;/b&gt;&lt;br&gt;TetR/AcrR family transcriptional regulator&lt;br&gt;Location: 7456595 - 7457188" points="434,90 437,85 434,80 434,90 " locus_tag="NONO_RS33755" id="dummy-1_h1_10_36" style="fill:white; stroke-width:1; stroke:black; " class="clusterblast-orf"  />
</g>
<g id="a1_0037"  >
<polygon description="&lt;b&gt;NONO_RS33760&lt;/b&gt;&lt;br&gt;SRPBCC family protein&lt;br&gt;Location: 7457199 - 7457642" points="437,85 439,80 439,90 437,85 " locus_tag="NONO_RS33760" id="dummy-1_h1_10_37" style="fill:white; stroke-width:1; stroke:black; " class="clusterblast-orf"  />
</g>
<g id="a1_0038"  >
<polygon description="&lt;b&gt;NONO_RS33765&lt;/b&gt;&lt;br&gt;TetR family transcriptional regulator&lt;br&gt;Location: 7458166 - 7459353" points="442,90 443,90 448,85 443,80 442,80 442,90 " locus_tag="NONO_RS33765" id="dummy-1_h1_10_38" style="fill:white; stroke-width:1; stroke:black; " class="clusterblast-orf"  />
</g>
<g id="a1_0039"  >
<polygon description="&lt;b&gt;NONO_RS33770&lt;/b&gt;&lt;br&gt;NUDIX hydrolase&lt;br&gt;Location: 7459383 - 7460093" points="448,85 452,80 452,90 448,85 " locus_tag="NONO_RS33770" id="dummy-1_h1_10_39" style="fill:white; stroke-width:1; stroke:black; " class="clusterblast-orf"  />
</g>
<g id="a1_0040"  >
<polygon description="&lt;b&gt;NONO_RS33775&lt;/b&gt;&lt;br&gt;MbtH family protein&lt;br&gt;Location: 7460244 - 7460462" points="452,85 454,80 454,90 452,85 " locus_tag="NONO_RS33775" id="dummy-1_h1_10_40" style="fill:white; stroke-width:1; stroke:black; " class="clusterblast-orf"  />
</g>
<g id="a1_0041"  >
<polygon description="&lt;b&gt;NONO_RS33780&lt;/b&gt;&lt;br&gt;amino acid adenylation domain-containing protein&lt;br&gt;Location: 7460869 - 7486284&lt;br&gt;&lt;br&gt;&lt;b&gt;BlastP hit with cds27927_43224&lt;/b&gt;&lt;br&gt;Percentage identity: 49&lt;br&gt;Percentage coverage: 81&lt;br&gt;BLAST bit score: 3382&lt;br&gt;E-value: 0.0" points="456,85 461,80 586,80 586,90 461,90 456,85 " locus_tag="NONO_RS33780" id="dummy-1_h1_10_41" style="fill:#82d815; stroke-width:1; stroke:black; " class="clusterblast-orf"  />
</g>
<g id="a1_0042"  >
<polygon description="&lt;b&gt;NONO_RS33785&lt;/b&gt;&lt;br&gt;amino acid adenylation domain-containing protein&lt;br&gt;Location: 7486354 - 7504158&lt;br&gt;&lt;br&gt;&lt;b&gt;BlastP hit with cds27927_43224&lt;/b&gt;&lt;br&gt;Percentage identity: 47&lt;br&gt;Percentage coverage: 82&lt;br&gt;BLAST bit score: 3100&lt;br&gt;E-value: 0.0" points="587,85 592,80 678,80 678,90 592,90 587,85 " locus_tag="NONO_RS33785" id="dummy-1_h1_10_42" style="fill:#82d815; stroke-width:1; stroke:black; " class="clusterblast-orf"  />
</g>
<g id="a1_0043"  >
<polygon description="&lt;b&gt;NONO_RS33790&lt;/b&gt;&lt;br&gt;hypothetical protein&lt;br&gt;Location: 7504616 - 7505983" points="680,85 685,80 687,80 687,90 685,90 680,85 " locus_tag="NONO_RS33790" id="dummy-1_h1_10_43" style="fill:white; stroke-width:1; stroke:black; " class="clusterblast-orf"  />
</g>
<g id="a1_0044"  >
<polygon description="&lt;b&gt;NONO_RS33795&lt;/b&gt;&lt;br&gt;mycofactocin system glycosyltransferase&lt;br&gt;Location: 7506130 - 7507527" points="688,85 693,80 695,80 695,90 693,90 688,85 " locus_tag="NONO_RS33795" id="dummy-1_h1_10_44" style="fill:white; stroke-width:1; stroke:black; " class="clusterblast-orf"  />
</g>
<g id="a1_0045"  >
<polygon description="&lt;b&gt;NONO_RS33800&lt;/b&gt;&lt;br&gt;TetR family transcriptional regulator&lt;br&gt;Location: 7507902 - 7508525" points="697,90 701,85 697,80 697,90 " locus_tag="NONO_RS33800" id="dummy-1_h1_10_45" style="fill:white; stroke-width:1; stroke:black; " class="clusterblast-orf"  />
</g>
<g id="a1_0046"  >
<polygon description="&lt;b&gt;NONO_RS33805&lt;/b&gt;&lt;br&gt;ferredoxin--NADP reductase&lt;br&gt;Location: 7508562 - 7509623" points="701,90 701,90 706,85 701,80 701,80 701,90 " locus_tag="NONO_RS33805" id="dummy-1_h1_10_46" style="fill:white; stroke-width:1; stroke:black; " class="clusterblast-orf"  />
</g>
<g id="a1_0047"  >
<polygon description="&lt;b&gt;NONO_RS33810&lt;/b&gt;&lt;br&gt;DNA alkylation repair protein&lt;br&gt;Location: 7509849 - 7510589" points="707,85 711,80 711,90 707,85 " locus_tag="NONO_RS33810" id="dummy-1_h1_10_47" style="fill:white; stroke-width:1; stroke:black; " class="clusterblast-orf"  />
</g>
<g id="a1_0048"  >
<polygon description="&lt;b&gt;NONO_RS33815&lt;/b&gt;&lt;br&gt;glutamate racemase&lt;br&gt;Location: 7510764 - 7511564" points="712,85 716,80 716,90 712,85 " locus_tag="NONO_RS33815" id="dummy-1_h1_10_48" style="fill:white; stroke-width:1; stroke:black; " class="clusterblast-orf"  />
</g>
<g id="a1_0049"  >
<polygon description="&lt;b&gt;NONO_RS33820&lt;/b&gt;&lt;br&gt;FAD-dependent oxidoreductase&lt;br&gt;Location: 7511641 - 7512825" points="717,85 722,80 723,80 723,90 722,90 717,85 " locus_tag="NONO_RS33820" id="dummy-1_h1_10_49" style="fill:white; stroke-width:1; stroke:black; " class="clusterblast-orf"  />
</g>
<g id="a1_0050"  >
<polygon description="&lt;b&gt;NONO_RS33825&lt;/b&gt;&lt;br&gt;hypothetical protein&lt;br&gt;Location: 7513035 - 7513382" points="724,90 726,85 724,80 724,90 " locus_tag="NONO_RS33825" id="dummy-1_h1_10_50" style="fill:white; stroke-width:1; stroke:black; " class="clusterblast-orf"  />
</g>
<g id="a1_0051"  >
<polygon description="&lt;b&gt;NONO_RS33830&lt;/b&gt;&lt;br&gt;TetR/AcrR family transcriptional regulator&lt;br&gt;Location: 7513382 - 7514011" points="726,90 729,85 726,80 726,90 " locus_tag="NONO_RS33830" id="dummy-1_h1_10_51" style="fill:white; stroke-width:1; stroke:black; " class="clusterblast-orf"  />
</g>
<g id="a1_0052"  >
<polygon description="&lt;b&gt;NONO_RS33835&lt;/b&gt;&lt;br&gt;SgcJ/EcaC family oxidoreductase&lt;br&gt;Location: 7514023 - 7514463" points="729,85 731,80 731,90 729,85 " locus_tag="NONO_RS33835" id="dummy-1_h1_10_52" style="fill:white; stroke-width:1; stroke:black; " class="clusterblast-orf"  />
</g>
<g id="a1_0053"  >
<polygon description="&lt;b&gt;NONO_RS33840&lt;/b&gt;&lt;br&gt;SDR family NAD(P)-dependent oxidoreductase&lt;br&gt;Location: 7514460 - 7515191" points="731,85 735,80 735,90 731,85 " locus_tag="NONO_RS33840" id="dummy-1_h1_10_53" style="fill:white; stroke-width:1; stroke:black; " class="clusterblast-orf"  />
</g>
<g id="a1_0054"  >
<polygon description="&lt;b&gt;NONO_RS39425&lt;/b&gt;&lt;br&gt;SgcJ/EcaC family oxidoreductase&lt;br&gt;Location: 7515188 - 7515826" points="735,85 738,80 738,90 735,85 " locus_tag="NONO_RS39425" id="dummy-1_h1_10_54" style="fill:white; stroke-width:1; stroke:black; " class="clusterblast-orf"  />
</g>
<g id="a1_0055"  >
<polygon description="&lt;b&gt;NONO_RS33850&lt;/b&gt;&lt;br&gt;MarR family transcriptional regulator&lt;br&gt;Location: 7515925 - 7516404" points="739,90 741,85 739,80 739,90 " locus_tag="NONO_RS33850" id="dummy-1_h1_10_55" style="fill:white; stroke-width:1; stroke:black; " class="clusterblast-orf"  />
</g>
<g id="a1_0056"  >
<polygon description="&lt;b&gt;NONO_RS33855&lt;/b&gt;&lt;br&gt;TetR/AcrR family transcriptional regulator&lt;br&gt;Location: 7516424 - 7517065" points="741,85 744,80 744,90 741,85 " locus_tag="NONO_RS33855" id="dummy-1_h1_10_56" style="fill:white; stroke-width:1; stroke:black; " class="clusterblast-orf"  />
</g>
<g id="a1_0057"  >
<polygon description="&lt;b&gt;NONO_RS33860&lt;/b&gt;&lt;br&gt;MFS transporter&lt;br&gt;Location: 7517124 - 7518551&lt;br&gt;&lt;br&gt;&lt;b&gt;BlastP hit with cds8289_9912&lt;/b&gt;&lt;br&gt;Percentage identity: 32&lt;br&gt;Percentage coverage: 82&lt;br&gt;BLAST bit score: 169&lt;br&gt;E-value: 1e-39" points="745,90 747,90 752,85 747,80 745,80 745,90 " locus_tag="NONO_RS33860" id="dummy-1_h1_10_57" style="fill:#d87315; stroke-width:1; stroke:black; " class="clusterblast-orf"  />
</g>
<g id="a1_0058"  >
<polygon description="&lt;b&gt;NONO_RS33865&lt;/b&gt;&lt;br&gt;cupin domain-containing protein&lt;br&gt;Location: 7518563 - 7518943" points="752,90 754,85 752,80 752,90 " locus_tag="NONO_RS33865" id="dummy-1_h1_10_58" style="fill:white; stroke-width:1; stroke:black; " class="clusterblast-orf"  />
</g>
<g id="a1_0059"  >
<polygon description="&lt;b&gt;NONO_RS33870&lt;/b&gt;&lt;br&gt;hypothetical protein&lt;br&gt;Location: 7519084 - 7520997" points="755,90 760,90 765,85 760,80 755,80 755,90 " locus_tag="NONO_RS33870" id="dummy-1_h1_10_59" style="fill:white; stroke-width:1; stroke:black; " class="clusterblast-orf"  />
</g>
<g id="a1_0060"  >
<polygon description="&lt;b&gt;NONO_RS33875&lt;/b&gt;&lt;br&gt;class I SAM-dependent methyltransferase&lt;br&gt;Location: 7521064 - 7521801" points="765,90 769,85 765,80 765,90 " locus_tag="NONO_RS33875" id="dummy-1_h1_10_60" style="fill:white; stroke-width:1; stroke:black; " class="clusterblast-orf"  />
</g>
<g id="a1_0061"  >
<polygon description="&lt;b&gt;NONO_RS33880&lt;/b&gt;&lt;br&gt;hypothetical protein&lt;br&gt;Location: 7521820 - 7522152" points="769,85 771,80 771,90 769,85 " locus_tag="NONO_RS33880" id="dummy-1_h1_10_61" style="fill:white; stroke-width:1; stroke:black; " class="clusterblast-orf"  />
</g>
<g id="a1_0062"  >
<polygon description="&lt;b&gt;NONO_RS33885&lt;/b&gt;&lt;br&gt;hypothetical protein&lt;br&gt;Location: 7522149 - 7522628" points="771,85 773,80 773,90 771,85 " locus_tag="NONO_RS33885" id="dummy-1_h1_10_62" style="fill:white; stroke-width:1; stroke:black; " class="clusterblast-orf"  />
</g>
<g id="a1_0063"  >
<polygon description="&lt;b&gt;NONO_RS33890&lt;/b&gt;&lt;br&gt;hydrolase&lt;br&gt;Location: 7522806 - 7523891" points="774,85 779,80 780,80 780,90 779,90 774,85 " locus_tag="NONO_RS33890" id="dummy-1_h1_10_63" style="fill:white; stroke-width:1; stroke:black; " class="clusterblast-orf"  />
</g>
</svg>
