<svg xmlns:xlink="http://www.w3.org/1999/xlink" preserveAspectRatio="none" width="800" xmlns="http://www.w3.org/2000/svg" y="0" height="230" x="0" version="1.1" viewBox="0 0 800 230"  >
<g class="clusterblast-cluster" label="Query sequence"  >
<text y="20" x="5" class="clusterblast-acc"  >
Query sequence</text>
<line x2="778.0" x1="10" y1="35" y2="35" style="stroke:grey; stroke-width:1; "  />
<polygon description="&lt;b&gt;cds120_1665&lt;/b&gt;&lt;br&gt;Propionyl-CoA carboxylase beta chain (EC 6.4.1.3)&lt;br&gt;Location: 120 - 1665" points="261,35 266,30 289,30 289,40 266,40 261,35 " locus_tag="cds120_1665" id="dummy-1_q0_0_all" style="fill:#d81515; stroke-width:1; stroke:black; " class="clusterblast-orf"  />
<polygon description="&lt;b&gt;cds1684_6967&lt;/b&gt;&lt;br&gt;Polyketide synthase in FadD32 cluster&lt;br&gt;Location: 1684 - 6967" points="289,35 294,30 384,30 384,40 294,40 289,35 " locus_tag="cds1684_6967" id="dummy-1_q1_0_all" style="fill:#4dd815; stroke-width:1; stroke:black; " class="clusterblast-orf"  />
<polygon description="&lt;b&gt;cds7066_8989&lt;/b&gt;&lt;br&gt;Polyketide synthase modules and related proteins @ Long-chain fatty-acid-AMP ligase, Mycobacterial subgroup FadD32&lt;br&gt;Location: 7066 - 8989" points="385,35 390,30 420,30 420,40 390,40 385,35 " locus_tag="cds7066_8989" id="dummy-1_q2_0_all" style="fill:#1585d8; stroke-width:1; stroke:black; " class="clusterblast-orf"  />
<polygon description="&lt;b&gt;cds9213_10233&lt;/b&gt;&lt;br&gt;FMN reductase&lt;br&gt;Location: 9213 - 10233" points="424,35 429,30 442,30 442,40 429,40 424,35 " locus_tag="cds9213_10233" id="dummy-1_q3_0_all" style="fill:#d815bc; stroke-width:1; stroke:black; " class="clusterblast-orf"  />
<polygon description="&lt;b&gt;cds10407_11382&lt;/b&gt;&lt;br&gt;phospholipase/thioesterase&lt;br&gt;Location: 10407 - 11382" points="445,35 450,30 463,30 463,40 450,40 445,35 " locus_tag="cds10407_11382" id="dummy-1_q4_0_all" style="fill:#d8bc15; stroke-width:1; stroke:black; " class="clusterblast-orf"  />
<polygon description="&lt;b&gt;cds11378_11909&lt;/b&gt;&lt;br&gt;hypothetical protein&lt;br&gt;Location: 11378 - 11909" points="463,35 468,30 472,30 472,40 468,40 463,35 " locus_tag="cds11378_11909" id="dummy-1_q5_0_all" style="fill:#15d885; stroke-width:1; stroke:black; " class="clusterblast-orf"  />
<polygon description="&lt;b&gt;cds12130_14485&lt;/b&gt;&lt;br&gt;probable antigen 85 complex protein&lt;br&gt;Location: 12130 - 14485" points="476,35 481,30 518,30 518,40 481,40 476,35 " locus_tag="cds12130_14485" id="dummy-1_q6_0_all" style="fill:#4d15d8; stroke-width:1; stroke:black; " class="clusterblast-orf"  />
</g>
<g description="NZ_QQAZ01000008 (294204-339550): Nocardia mexicana strain DSM 44952 Ga0244508... (37% of genes show similarity), T1PKS" class="clusterblast-cluster" label="NZ_QQAZ01000008"  >
<text y="70" x="5" class="clusterblast-acc"  >
<a xlink:href="https://antismash-db.secondarymetabolites.org/area.html?record=NZ_QQAZ01000008&amp;start=294204&amp;end=339550" target="_blank">NZ_QQAZ01000008 (294204-339550)</a>: Nocardia mexicana strain DSM 44952 Ga0244508... (37% of genes show similarity), T1PKS</text>
<line x2="778.0" x1="10" y1="85" y2="85" style="stroke:grey; stroke-width:1; "  />
</g>
<g id="a1_000"  >
<polygon description="&lt;b&gt;DFR68_RS26670&lt;/b&gt;&lt;br&gt;arabinosyltransferase domain-containing protein&lt;br&gt;Location: 338290 - 334997" points="0,90 53,90 58,85 53,80 0,80 0,90 " locus_tag="DFR68_RS26670" id="dummy-1_h1_5_0" style="fill:white; stroke-width:1; stroke:black; " class="clusterblast-orf"  />
</g>
<g id="a1_001"  >
<polygon description="&lt;b&gt;DFR68_RS26665&lt;/b&gt;&lt;br&gt;arabinosyltransferase&lt;br&gt;Location: 334773 - 331396" points="62,90 118,90 123,85 118,80 62,80 62,90 " locus_tag="DFR68_RS26665" id="dummy-1_h1_5_1" style="fill:white; stroke-width:1; stroke:black; " class="clusterblast-orf"  />
</g>
<g id="a1_002"  >
<polygon description="&lt;b&gt;DFR68_RS41205&lt;/b&gt;&lt;br&gt;hypothetical protein&lt;br&gt;Location: 331216 - 330938" points="126,90 126,90 131,85 126,80 126,80 126,90 " locus_tag="DFR68_RS41205" id="dummy-1_h1_5_2" style="fill:white; stroke-width:1; stroke:black; " class="clusterblast-orf"  />
</g>
<g id="a1_003"  >
<polygon description="&lt;b&gt;DFR68_RS41790&lt;/b&gt;&lt;br&gt;hypothetical protein&lt;br&gt;Location: 330651 - 330496" points="136,85 139,80 139,90 136,85 " locus_tag="DFR68_RS41790" id="dummy-1_h1_5_3" style="fill:white; stroke-width:1; stroke:black; " class="clusterblast-orf"  />
</g>
<g id="a1_004"  >
<polygon description="&lt;b&gt;DFR68_RS26650&lt;/b&gt;&lt;br&gt;hypothetical protein&lt;br&gt;Location: 329935 - 329402" points="149,90 154,90 159,85 154,80 149,80 149,90 " locus_tag="DFR68_RS26650" id="dummy-1_h1_5_4" style="fill:white; stroke-width:1; stroke:black; " class="clusterblast-orf"  />
</g>
<g id="a1_005"  >
<polygon description="&lt;b&gt;DFR68_RS26645&lt;/b&gt;&lt;br&gt;helix-turn-helix transcriptional regulator&lt;br&gt;Location: 329405 - 328566" points="158,90 169,90 174,85 169,80 158,80 158,90 " locus_tag="DFR68_RS26645" id="dummy-1_h1_5_5" style="fill:white; stroke-width:1; stroke:black; " class="clusterblast-orf"  />
</g>
<g id="a1_006"  >
<polygon description="&lt;b&gt;DFR68_RS26640&lt;/b&gt;&lt;br&gt;hypothetical protein&lt;br&gt;Location: 328461 - 327955" points="175,90 179,90 184,85 179,80 175,80 175,90 " locus_tag="DFR68_RS26640" id="dummy-1_h1_5_6" style="fill:white; stroke-width:1; stroke:black; " class="clusterblast-orf"  />
</g>
<g id="a1_007"  >
<polygon description="&lt;b&gt;DFR68_RS41785&lt;/b&gt;&lt;br&gt;hypothetical protein&lt;br&gt;Location: 327931 - 327788" points="185,90 187,85 185,80 185,90 " locus_tag="DFR68_RS41785" id="dummy-1_h1_5_7" style="fill:white; stroke-width:1; stroke:black; " class="clusterblast-orf"  />
</g>
<g id="a1_008"  >
<polygon description="&lt;b&gt;DFR68_RS26635&lt;/b&gt;&lt;br&gt;alpha/beta hydrolase&lt;br&gt;Location: 327690 - 326899" points="189,90 198,90 203,85 198,80 189,80 189,90 " locus_tag="DFR68_RS26635" id="dummy-1_h1_5_8" style="fill:white; stroke-width:1; stroke:black; " class="clusterblast-orf"  />
</g>
<g id="a1_009"  >
<polygon description="&lt;b&gt;DFR68_RS26630&lt;/b&gt;&lt;br&gt;hypothetical protein&lt;br&gt;Location: 326794 - 326594" points="205,85 209,80 209,90 205,85 " locus_tag="DFR68_RS26630" id="dummy-1_h1_5_9" style="fill:white; stroke-width:1; stroke:black; " class="clusterblast-orf"  />
</g>
<g id="a1_0010"  >
<polygon description="&lt;b&gt;DFR68_RS26625&lt;/b&gt;&lt;br&gt;response regulator transcription factor&lt;br&gt;Location: 326407 - 325709" points="212,90 220,90 225,85 220,80 212,80 212,90 " locus_tag="DFR68_RS26625" id="dummy-1_h1_5_10" style="fill:white; stroke-width:1; stroke:black; " class="clusterblast-orf"  />
</g>
<g id="a1_0011"  >
<polygon description="&lt;b&gt;DFR68_RS26620&lt;/b&gt;&lt;br&gt;HAMP domain-containing histidine kinase&lt;br&gt;Location: 325475 - 324327" points="229,90 244,90 249,85 244,80 229,80 229,90 " locus_tag="DFR68_RS26620" id="dummy-1_h1_5_11" style="fill:white; stroke-width:1; stroke:black; " class="clusterblast-orf"  />
</g>
<g id="a1_0012"  >
<polygon description="&lt;b&gt;DFR68_RS26610&lt;/b&gt;&lt;br&gt;DUF4173 domain-containing protein&lt;br&gt;Location: 323086 - 321809" points="272,90 289,90 294,85 289,80 272,80 272,90 " locus_tag="DFR68_RS26610" id="dummy-1_h1_5_12" style="fill:white; stroke-width:1; stroke:black; " class="clusterblast-orf"  />
</g>
<g id="a1_0013"  >
<polygon description="&lt;b&gt;DFR68_RS26605&lt;/b&gt;&lt;br&gt;acyl-CoA carboxylase subunit beta&lt;br&gt;Location: 321206 - 319662&lt;br&gt;&lt;br&gt;&lt;b&gt;BlastP hit with cds120_1665&lt;/b&gt;&lt;br&gt;Percentage identity: 88&lt;br&gt;Percentage coverage: 100&lt;br&gt;BLAST bit score: 900&lt;br&gt;E-value: 6.3e-260" points="305,85 310,80 333,80 333,90 310,90 305,85 " locus_tag="DFR68_RS26605" id="dummy-1_h1_5_13" style="fill:#d81515; stroke-width:1; stroke:black; " class="clusterblast-orf"  />
</g>
<g id="a1_0014"  >
<polygon description="&lt;b&gt;DFR68_RS26600&lt;/b&gt;&lt;br&gt;acyltransferase domain-containing protein&lt;br&gt;Location: 319550 - 314205&lt;br&gt;&lt;br&gt;&lt;b&gt;BlastP hit with cds1684_6967&lt;/b&gt;&lt;br&gt;Percentage identity: 74&lt;br&gt;Percentage coverage: 103&lt;br&gt;BLAST bit score: 2490&lt;br&gt;E-value: 0.0" points="335,85 340,80 430,80 430,90 340,90 335,85 " locus_tag="DFR68_RS26600" id="dummy-1_h1_5_14" style="fill:#4dd815; stroke-width:1; stroke:black; " class="clusterblast-orf"  />
</g>
<g id="a1_0015"  >
<polygon description="&lt;b&gt;DFR68_RS26595&lt;/b&gt;&lt;br&gt;AMP-binding protein&lt;br&gt;Location: 314088 - 312166&lt;br&gt;&lt;br&gt;&lt;b&gt;BlastP hit with cds7066_8989&lt;/b&gt;&lt;br&gt;Percentage identity: 87&lt;br&gt;Percentage coverage: 100&lt;br&gt;BLAST bit score: 1128&lt;br&gt;E-value: 0.0" points="433,85 438,80 467,80 467,90 438,90 433,85 " locus_tag="DFR68_RS26595" id="dummy-1_h1_5_15" style="fill:#1585d8; stroke-width:1; stroke:black; " class="clusterblast-orf"  />
</g>
<g id="a1_0016"  >
<polygon description="&lt;b&gt;DFR68_RS26590&lt;/b&gt;&lt;br&gt;LLM class F420-dependent oxidoreductase&lt;br&gt;Location: 311944 - 310928&lt;br&gt;&lt;br&gt;&lt;b&gt;BlastP hit with cds9213_10233&lt;/b&gt;&lt;br&gt;Percentage identity: 77&lt;br&gt;Percentage coverage: 99&lt;br&gt;BLAST bit score: 526&lt;br&gt;E-value: 2.1e-147" points="471,85 476,80 489,80 489,90 476,90 471,85 " locus_tag="DFR68_RS26590" id="dummy-1_h1_5_16" style="fill:#d815bc; stroke-width:1; stroke:black; " class="clusterblast-orf"  />
</g>
<g id="a1_0017"  >
<polygon description="&lt;b&gt;DFR68_RS26585&lt;/b&gt;&lt;br&gt;cutinase family protein&lt;br&gt;Location: 310786 - 309800&lt;br&gt;&lt;br&gt;&lt;b&gt;BlastP hit with cds10407_11382&lt;/b&gt;&lt;br&gt;Percentage identity: 77&lt;br&gt;Percentage coverage: 82&lt;br&gt;BLAST bit score: 426&lt;br&gt;E-value: 2.2e-117" points="492,85 497,80 509,80 509,90 497,90 492,85 " locus_tag="DFR68_RS26585" id="dummy-1_h1_5_17" style="fill:#d8bc15; stroke-width:1; stroke:black; " class="clusterblast-orf"  />
</g>
<g id="a1_0018"  >
<polygon description="&lt;b&gt;DFR68_RS26580&lt;/b&gt;&lt;br&gt;DUF732 domain-containing protein&lt;br&gt;Location: 309803 - 309294&lt;br&gt;&lt;br&gt;&lt;b&gt;BlastP hit with cds11378_11909&lt;/b&gt;&lt;br&gt;Percentage identity: 45&lt;br&gt;Percentage coverage: 99&lt;br&gt;BLAST bit score: 131&lt;br&gt;E-value: 7.9e-29" points="509,85 514,80 518,80 518,90 514,90 509,85 " locus_tag="DFR68_RS26580" id="dummy-1_h1_5_18" style="fill:#15d885; stroke-width:1; stroke:black; " class="clusterblast-orf"  />
</g>
<g id="a1_0019"  >
<polygon description="&lt;b&gt;DFR68_RS26575&lt;/b&gt;&lt;br&gt;esterase&lt;br&gt;Location: 309161 - 307341&lt;br&gt;&lt;br&gt;&lt;b&gt;BlastP hit with cds12130_14485&lt;/b&gt;&lt;br&gt;Percentage identity: 72&lt;br&gt;Percentage coverage: 77&lt;br&gt;BLAST bit score: 876&lt;br&gt;E-value: 1.5e-252" points="521,85 526,80 553,80 553,90 526,90 521,85 " locus_tag="DFR68_RS26575" id="dummy-1_h1_5_19" style="fill:#4d15d8; stroke-width:1; stroke:black; " class="clusterblast-orf"  />
</g>
<g id="a1_0020"  >
<polygon description="&lt;b&gt;DFR68_RS26570&lt;/b&gt;&lt;br&gt;esterase family protein&lt;br&gt;Location: 306825 - 305788&lt;br&gt;&lt;br&gt;&lt;b&gt;BlastP hit with cds12130_14485&lt;/b&gt;&lt;br&gt;Percentage identity: 38&lt;br&gt;Percentage coverage: 42&lt;br&gt;BLAST bit score: 206&lt;br&gt;E-value: 1.1e-50" points="563,85 568,80 581,80 581,90 568,90 563,85 " locus_tag="DFR68_RS26570" id="dummy-1_h1_5_20" style="fill:#4d15d8; stroke-width:1; stroke:black; " class="clusterblast-orf"  />
</g>
<g id="a1_0021"  >
<polygon description="&lt;b&gt;DFR68_RS26565&lt;/b&gt;&lt;br&gt;esterase family protein&lt;br&gt;Location: 305442 - 304522&lt;br&gt;&lt;br&gt;&lt;b&gt;BlastP hit with cds12130_14485&lt;/b&gt;&lt;br&gt;Percentage identity: 38&lt;br&gt;Percentage coverage: 36&lt;br&gt;BLAST bit score: 176&lt;br&gt;E-value: 1.2e-41" points="587,85 592,80 604,80 604,90 592,90 587,85 " locus_tag="DFR68_RS26565" id="dummy-1_h1_5_21" style="fill:#4d15d8; stroke-width:1; stroke:black; " class="clusterblast-orf"  />
</g>
<g id="a1_0022"  >
<polygon description="&lt;b&gt;DFR68_RS26560&lt;/b&gt;&lt;br&gt;esterase family protein&lt;br&gt;Location: 304120 - 303041&lt;br&gt;&lt;br&gt;&lt;b&gt;BlastP hit with cds12130_14485&lt;/b&gt;&lt;br&gt;Percentage identity: 33&lt;br&gt;Percentage coverage: 46&lt;br&gt;BLAST bit score: 157&lt;br&gt;E-value: 4.6e-36" points="611,85 616,80 630,80 630,90 616,90 611,85 " locus_tag="DFR68_RS26560" id="dummy-1_h1_5_22" style="fill:#4d15d8; stroke-width:1; stroke:black; " class="clusterblast-orf"  />
</g>
<g id="a1_0023"  >
<polygon description="&lt;b&gt;DFR68_RS26555&lt;/b&gt;&lt;br&gt;esterase family protein&lt;br&gt;Location: 302687 - 301590&lt;br&gt;&lt;br&gt;&lt;b&gt;BlastP hit with cds12130_14485&lt;/b&gt;&lt;br&gt;Percentage identity: 34&lt;br&gt;Percentage coverage: 47&lt;br&gt;BLAST bit score: 169&lt;br&gt;E-value: 1.2e-39" points="637,85 642,80 656,80 656,90 642,90 637,85 " locus_tag="DFR68_RS26555" id="dummy-1_h1_5_23" style="fill:#4d15d8; stroke-width:1; stroke:black; " class="clusterblast-orf"  />
</g>
<g id="a1_0024"  >
<polygon description="&lt;b&gt;DFR68_RS26550&lt;/b&gt;&lt;br&gt;hypothetical protein&lt;br&gt;Location: 301404 - 299443" points="660,85 665,80 695,80 695,90 665,90 660,85 " locus_tag="DFR68_RS26550" id="dummy-1_h1_5_24" style="fill:white; stroke-width:1; stroke:black; " class="clusterblast-orf"  />
</g>
<g id="a1_0025"  >
<polygon description="&lt;b&gt;DFR68_RS26545&lt;/b&gt;&lt;br&gt;decaprenyl-phosphate phosphoribosyltransferase&lt;br&gt;Location: 299390 - 298458" points="696,85 701,80 712,80 712,90 701,90 696,85 " locus_tag="DFR68_RS26545" id="dummy-1_h1_5_25" style="fill:white; stroke-width:1; stroke:black; " class="clusterblast-orf"  />
</g>
<g id="a1_0026"  >
<polygon description="&lt;b&gt;DFR68_RS26540&lt;/b&gt;&lt;br&gt;phosphatase PAP2 family protein&lt;br&gt;Location: 298456 - 297857" points="712,85 717,80 723,80 723,90 717,90 712,85 " locus_tag="DFR68_RS26540" id="dummy-1_h1_5_26" style="fill:white; stroke-width:1; stroke:black; " class="clusterblast-orf"  />
</g>
<g id="a1_0027"  >
<polygon description="&lt;b&gt;DFR68_RS26535&lt;/b&gt;&lt;br&gt;galactofuranosyltransferase GlfT2&lt;br&gt;Location: 297860 - 295911" points="723,85 728,80 758,80 758,90 728,90 723,85 " locus_tag="DFR68_RS26535" id="dummy-1_h1_5_27" style="fill:white; stroke-width:1; stroke:black; " class="clusterblast-orf"  />
</g>
<g id="a1_0028"  >
<polygon description="&lt;b&gt;DFR68_RS26530&lt;/b&gt;&lt;br&gt;UDP-galactopyranose mutase&lt;br&gt;Location: 295899 - 294700" points="758,85 763,80 780,80 780,90 763,90 758,85 " locus_tag="DFR68_RS26530" id="dummy-1_h1_5_28" style="fill:white; stroke-width:1; stroke:black; " class="clusterblast-orf"  />
</g>
</svg>
