<svg xmlns:xlink="http://www.w3.org/1999/xlink" preserveAspectRatio="none" width="800" xmlns="http://www.w3.org/2000/svg" y="0" height="230" x="0" version="1.1" viewBox="0 0 800 230"  >
<g class="clusterblast-cluster" label="Query sequence"  >
<text y="20" x="5" class="clusterblast-acc"  >
Query sequence</text>
<line x2="778.0" x1="10" y1="35" y2="35" style="stroke:grey; stroke-width:1; "  />
<polygon description="&lt;b&gt;cds1_214&lt;/b&gt;&lt;br&gt;hypothetical protein&lt;br&gt;Location: 1 - 214" points="329,35 331,30 331,40 329,35 " locus_tag="cds1_214" id="dummy-1_q0_0_all" style="fill:#d81515; stroke-width:1; stroke:black; " class="clusterblast-orf"  />
<polygon description="&lt;b&gt;cds311_9626&lt;/b&gt;&lt;br&gt;Polyketide synthase modules and related proteins&lt;br&gt;Location: 311 - 9626" points="332,35 337,30 451,30 451,40 337,40 332,35 " locus_tag="cds311_9626" id="dummy-1_q1_0_all" style="fill:#15d8d8; stroke-width:1; stroke:black; " class="clusterblast-orf"  />
</g>
<g description="NZ_QQAZ01000001 (569981-632913): Nocardia mexicana strain DSM 44952 Ga0244508... (4% of genes show similarity), NRPS,terpene" class="clusterblast-cluster" label="NZ_QQAZ01000001"  >
<text y="70" x="5" class="clusterblast-acc"  >
<a xlink:href="https://antismash-db.secondarymetabolites.org/area.html?record=NZ_QQAZ01000001&amp;start=569981&amp;end=632913" target="_blank">NZ_QQAZ01000001 (569981-632913)</a>: Nocardia mexicana strain DSM 44952 Ga0244508... (4% of genes show similarity), NRPS,terpene</text>
<line x2="778.0" x1="10" y1="85" y2="85" style="stroke:grey; stroke-width:1; "  />
</g>
<g id="a1_000"  >
<polygon description="&lt;b&gt;DFR68_RS02385&lt;/b&gt;&lt;br&gt;MoxR family ATPase&lt;br&gt;Location: 570451 - 571638" points="0,85 5,80 15,80 15,90 5,90 0,85 " locus_tag="DFR68_RS02385" id="dummy-1_h1_3_0" style="fill:white; stroke-width:1; stroke:black; " class="clusterblast-orf"  />
</g>
<g id="a1_001"  >
<polygon description="&lt;b&gt;DFR68_RS02390&lt;/b&gt;&lt;br&gt;C40 family peptidase&lt;br&gt;Location: 571863 - 573299" points="17,85 22,80 36,80 36,90 22,90 17,85 " locus_tag="DFR68_RS02390" id="dummy-1_h1_3_1" style="fill:white; stroke-width:1; stroke:black; " class="clusterblast-orf"  />
</g>
<g id="a1_002"  >
<polygon description="&lt;b&gt;DFR68_RS02395&lt;/b&gt;&lt;br&gt;hypothetical protein&lt;br&gt;Location: 573603 - 574163" points="40,85 45,80 47,80 47,90 45,90 40,85 " locus_tag="DFR68_RS02395" id="dummy-1_h1_3_2" style="fill:white; stroke-width:1; stroke:black; " class="clusterblast-orf"  />
</g>
<g id="a1_003"  >
<polygon description="&lt;b&gt;DFR68_RS02400&lt;/b&gt;&lt;br&gt;aconitate hydratase&lt;br&gt;Location: 574464 - 577277" points="50,90 81,90 86,85 81,80 50,80 50,90 " locus_tag="DFR68_RS02400" id="dummy-1_h1_3_3" style="fill:white; stroke-width:1; stroke:black; " class="clusterblast-orf"  />
</g>
<g id="a1_004"  >
<polygon description="&lt;b&gt;DFR68_RS02405&lt;/b&gt;&lt;br&gt;TetR/AcrR family transcriptional regulator&lt;br&gt;Location: 577383 - 577949" points="88,90 90,90 95,85 90,80 88,80 88,90 " locus_tag="DFR68_RS02405" id="dummy-1_h1_3_4" style="fill:white; stroke-width:1; stroke:black; " class="clusterblast-orf"  />
</g>
<g id="a1_005"  >
<polygon description="&lt;b&gt;DFR68_RS02410&lt;/b&gt;&lt;br&gt;hypothetical protein&lt;br&gt;Location: 578043 - 578840" points="96,85 101,80 106,80 106,90 101,90 96,85 " locus_tag="DFR68_RS02410" id="dummy-1_h1_3_5" style="fill:white; stroke-width:1; stroke:black; " class="clusterblast-orf"  />
</g>
<g id="a1_006"  >
<polygon description="&lt;b&gt;DFR68_RS02415&lt;/b&gt;&lt;br&gt;acyl-CoA thioesterase&lt;br&gt;Location: 579202 - 579618" points="111,90 111,90 116,85 111,80 111,80 111,90 " locus_tag="DFR68_RS02415" id="dummy-1_h1_3_6" style="fill:white; stroke-width:1; stroke:black; " class="clusterblast-orf"  />
</g>
<g id="a1_007"  >
<polygon description="&lt;b&gt;DFR68_RS02420&lt;/b&gt;&lt;br&gt;hypothetical protein&lt;br&gt;Location: 579815 - 580282" points="118,90 119,90 124,85 119,80 118,80 118,90 " locus_tag="DFR68_RS02420" id="dummy-1_h1_3_7" style="fill:white; stroke-width:1; stroke:black; " class="clusterblast-orf"  />
</g>
<g id="a1_008"  >
<polygon description="&lt;b&gt;DFR68_RS02425&lt;/b&gt;&lt;br&gt;hypothetical protein&lt;br&gt;Location: 580295 - 581260" points="125,90 132,90 137,85 132,80 125,80 125,90 " locus_tag="DFR68_RS02425" id="dummy-1_h1_3_8" style="fill:white; stroke-width:1; stroke:black; " class="clusterblast-orf"  />
</g>
<g id="a1_009"  >
<polygon description="&lt;b&gt;DFR68_RS02430&lt;/b&gt;&lt;br&gt;MarR family transcriptional regulator&lt;br&gt;Location: 581254 - 581757" points="137,85 142,80 143,80 143,90 142,90 137,85 " locus_tag="DFR68_RS02430" id="dummy-1_h1_3_9" style="fill:white; stroke-width:1; stroke:black; " class="clusterblast-orf"  />
</g>
<g id="a1_0010"  >
<polygon description="&lt;b&gt;DFR68_RS02435&lt;/b&gt;&lt;br&gt;cupin domain-containing protein&lt;br&gt;Location: 581828 - 582331" points="144,90 145,90 150,85 145,80 144,80 144,90 " locus_tag="DFR68_RS02435" id="dummy-1_h1_3_10" style="fill:white; stroke-width:1; stroke:black; " class="clusterblast-orf"  />
</g>
<g id="a1_0011"  >
<polygon description="&lt;b&gt;DFR68_RS02440&lt;/b&gt;&lt;br&gt;hypothetical protein&lt;br&gt;Location: 582408 - 582647" points="151,85 154,80 154,90 151,85 " locus_tag="DFR68_RS02440" id="dummy-1_h1_3_11" style="fill:white; stroke-width:1; stroke:black; " class="clusterblast-orf"  />
</g>
<g id="a1_0012"  >
<polygon description="&lt;b&gt;DFR68_RS02445&lt;/b&gt;&lt;br&gt;dihydrofolate reductase&lt;br&gt;Location: 582830 - 583438" points="157,90 159,90 164,85 159,80 157,80 157,90 " locus_tag="DFR68_RS02445" id="dummy-1_h1_3_12" style="fill:white; stroke-width:1; stroke:black; " class="clusterblast-orf"  />
</g>
<g id="a1_0013"  >
<polygon description="&lt;b&gt;DFR68_RS02450&lt;/b&gt;&lt;br&gt;ABC-F family ATP-binding cassette domain-containing protein&lt;br&gt;Location: 583448 - 585079" points="165,85 170,80 185,80 185,90 170,90 165,85 " locus_tag="DFR68_RS02450" id="dummy-1_h1_3_13" style="fill:white; stroke-width:1; stroke:black; " class="clusterblast-orf"  />
</g>
<g id="a1_0014"  >
<polygon description="&lt;b&gt;DFR68_RS02455&lt;/b&gt;&lt;br&gt;SDR family oxidoreductase&lt;br&gt;Location: 585236 - 586000" points="187,90 192,90 197,85 192,80 187,80 187,90 " locus_tag="DFR68_RS02455" id="dummy-1_h1_3_14" style="fill:white; stroke-width:1; stroke:black; " class="clusterblast-orf"  />
</g>
<g id="a1_0015"  >
<polygon description="&lt;b&gt;DFR68_RS02460&lt;/b&gt;&lt;br&gt;lycopene cyclase&lt;br&gt;Location: 586059 - 587150" points="198,90 207,90 212,85 207,80 198,80 198,90 " locus_tag="DFR68_RS02460" id="dummy-1_h1_3_15" style="fill:white; stroke-width:1; stroke:black; " class="clusterblast-orf"  />
</g>
<g id="a1_0016"  >
<polygon description="&lt;b&gt;DFR68_RS02465&lt;/b&gt;&lt;br&gt;protein phosphatase 2C domain-containing protein&lt;br&gt;Location: 587300 - 587998&lt;br&gt;&lt;br&gt;&lt;b&gt;BlastP hit with cds1_214&lt;/b&gt;&lt;br&gt;Percentage identity: 63&lt;br&gt;Percentage coverage: 72&lt;br&gt;BLAST bit score: 56&lt;br&gt;E-value: 1e-06" points="213,85 218,80 222,80 222,90 218,90 213,85 " locus_tag="DFR68_RS02465" id="dummy-1_h1_3_16" style="fill:#d81515; stroke-width:1; stroke:black; " class="clusterblast-orf"  />
</g>
<g id="a1_0017"  >
<polygon description="&lt;b&gt;DFR68_RS02470&lt;/b&gt;&lt;br&gt;ECF RNA polymerase sigma factor SigK&lt;br&gt;Location: 588738 - 589343" points="232,90 234,90 239,85 234,80 232,80 232,90 " locus_tag="DFR68_RS02470" id="dummy-1_h1_3_17" style="fill:white; stroke-width:1; stroke:black; " class="clusterblast-orf"  />
</g>
<g id="a1_0018"  >
<polygon description="&lt;b&gt;DFR68_RS02475&lt;/b&gt;&lt;br&gt;zf-HC2 domain-containing protein&lt;br&gt;Location: 589358 - 589735" points="240,90 244,85 240,80 240,90 " locus_tag="DFR68_RS02475" id="dummy-1_h1_3_18" style="fill:white; stroke-width:1; stroke:black; " class="clusterblast-orf"  />
</g>
<g id="a1_0019"  >
<polygon description="&lt;b&gt;DFR68_RS02480&lt;/b&gt;&lt;br&gt;zf-HC2 domain-containing protein&lt;br&gt;Location: 589764 - 589985" points="245,85 248,80 248,90 245,85 " locus_tag="DFR68_RS02480" id="dummy-1_h1_3_19" style="fill:white; stroke-width:1; stroke:black; " class="clusterblast-orf"  />
</g>
<g id="a1_0020"  >
<polygon description="&lt;b&gt;DFR68_RS02485&lt;/b&gt;&lt;br&gt;non-ribosomal peptide synthetase&lt;br&gt;Location: 589982 - 612913&lt;br&gt;&lt;br&gt;&lt;b&gt;BlastP hit with cds311_9626&lt;/b&gt;&lt;br&gt;Percentage identity: 42&lt;br&gt;Percentage coverage: 82&lt;br&gt;BLAST bit score: 1569&lt;br&gt;E-value: 0.0" points="248,85 253,80 539,80 539,90 253,90 248,85 " locus_tag="DFR68_RS02485" id="dummy-1_h1_3_20" style="fill:#15d8d8; stroke-width:1; stroke:black; " class="clusterblast-orf"  />
</g>
<g id="a1_0021"  >
<polygon description="&lt;b&gt;DFR68_RS02490&lt;/b&gt;&lt;br&gt;Ku protein&lt;br&gt;Location: 613130 - 614035" points="542,90 548,90 553,85 548,80 542,80 542,90 " locus_tag="DFR68_RS02490" id="dummy-1_h1_3_21" style="fill:white; stroke-width:1; stroke:black; " class="clusterblast-orf"  />
</g>
<g id="a1_0022"  >
<polygon description="&lt;b&gt;DFR68_RS02495&lt;/b&gt;&lt;br&gt;GNAT family N-acetyltransferase&lt;br&gt;Location: 614080 - 614610" points="554,90 555,90 560,85 555,80 554,80 554,90 " locus_tag="DFR68_RS02495" id="dummy-1_h1_3_22" style="fill:white; stroke-width:1; stroke:black; " class="clusterblast-orf"  />
</g>
<g id="a1_0023"  >
<polygon description="&lt;b&gt;DFR68_RS02500&lt;/b&gt;&lt;br&gt;hypothetical protein&lt;br&gt;Location: 614688 - 615170" points="561,90 562,90 567,85 562,80 561,80 561,90 " locus_tag="DFR68_RS02500" id="dummy-1_h1_3_23" style="fill:white; stroke-width:1; stroke:black; " class="clusterblast-orf"  />
</g>
<g id="a1_0024"  >
<polygon description="&lt;b&gt;DFR68_RS02505&lt;/b&gt;&lt;br&gt;methionine ABC transporter substrate-binding protein&lt;br&gt;Location: 615230 - 616096" points="568,85 573,80 579,80 579,90 573,90 568,85 " locus_tag="DFR68_RS02505" id="dummy-1_h1_3_24" style="fill:white; stroke-width:1; stroke:black; " class="clusterblast-orf"  />
</g>
<g id="a1_0025"  >
<polygon description="&lt;b&gt;DFR68_RS02510&lt;/b&gt;&lt;br&gt;methionine ABC transporter substrate-binding protein&lt;br&gt;Location: 616227 - 617099" points="581,90 587,90 592,85 587,80 581,80 581,90 " locus_tag="DFR68_RS02510" id="dummy-1_h1_3_25" style="fill:white; stroke-width:1; stroke:black; " class="clusterblast-orf"  />
</g>
<g id="a1_0026"  >
<polygon description="&lt;b&gt;DFR68_RS02515&lt;/b&gt;&lt;br&gt;methionine ABC transporter ATP-binding protein&lt;br&gt;Location: 617096 - 618115" points="592,90 600,90 605,85 600,80 592,80 592,90 " locus_tag="DFR68_RS02515" id="dummy-1_h1_3_26" style="fill:white; stroke-width:1; stroke:black; " class="clusterblast-orf"  />
</g>
<g id="a1_0027"  >
<polygon description="&lt;b&gt;DFR68_RS02520&lt;/b&gt;&lt;br&gt;ABC transporter permease&lt;br&gt;Location: 618112 - 618789" points="605,90 608,90 613,85 608,80 605,80 605,90 " locus_tag="DFR68_RS02520" id="dummy-1_h1_3_27" style="fill:white; stroke-width:1; stroke:black; " class="clusterblast-orf"  />
</g>
<g id="a1_0028"  >
<polygon description="&lt;b&gt;DFR68_RS02525&lt;/b&gt;&lt;br&gt;acyl-CoA dehydrogenase family protein&lt;br&gt;Location: 618791 - 620053" points="613,85 618,80 629,80 629,90 618,90 613,85 " locus_tag="DFR68_RS02525" id="dummy-1_h1_3_28" style="fill:white; stroke-width:1; stroke:black; " class="clusterblast-orf"  />
</g>
<g id="a1_0029"  >
<polygon description="&lt;b&gt;DFR68_RS02530&lt;/b&gt;&lt;br&gt;phosphotransferase family protein&lt;br&gt;Location: 620059 - 620997" points="630,85 635,80 641,80 641,90 635,90 630,85 " locus_tag="DFR68_RS02530" id="dummy-1_h1_3_29" style="fill:white; stroke-width:1; stroke:black; " class="clusterblast-orf"  />
</g>
<g id="a1_0030"  >
<polygon description="&lt;b&gt;DFR68_RS02535&lt;/b&gt;&lt;br&gt;hypothetical protein&lt;br&gt;Location: 621057 - 621347" points="642,85 646,80 646,90 642,85 " locus_tag="DFR68_RS02535" id="dummy-1_h1_3_30" style="fill:white; stroke-width:1; stroke:black; " class="clusterblast-orf"  />
</g>
<g id="a1_0031"  >
<polygon description="&lt;b&gt;DFR68_RS02540&lt;/b&gt;&lt;br&gt;class I SAM-dependent methyltransferase&lt;br&gt;Location: 621592 - 622161" points="649,85 654,80 656,80 656,90 654,90 649,85 " locus_tag="DFR68_RS02540" id="dummy-1_h1_3_31" style="fill:white; stroke-width:1; stroke:black; " class="clusterblast-orf"  />
</g>
<g id="a1_0032"  >
<polygon description="&lt;b&gt;DFR68_RS02545&lt;/b&gt;&lt;br&gt;DUF4189 domain-containing protein&lt;br&gt;Location: 622360 - 622779" points="659,85 664,80 664,80 664,90 664,90 659,85 " locus_tag="DFR68_RS02545" id="dummy-1_h1_3_32" style="fill:white; stroke-width:1; stroke:black; " class="clusterblast-orf"  />
</g>
<g id="a1_0033"  >
<polygon description="&lt;b&gt;DFR68_RS02550&lt;/b&gt;&lt;br&gt;helix-turn-helix domain-containing protein&lt;br&gt;Location: 622877 - 623371" points="665,85 670,80 672,80 672,90 670,90 665,85 " locus_tag="DFR68_RS02550" id="dummy-1_h1_3_33" style="fill:white; stroke-width:1; stroke:black; " class="clusterblast-orf"  />
</g>
<g id="a1_0034"  >
<polygon description="&lt;b&gt;DFR68_RS02555&lt;/b&gt;&lt;br&gt;cytosine permease&lt;br&gt;Location: 623613 - 625052" points="675,90 688,90 693,85 688,80 675,80 675,90 " locus_tag="DFR68_RS02555" id="dummy-1_h1_3_34" style="fill:white; stroke-width:1; stroke:black; " class="clusterblast-orf"  />
</g>
<g id="a1_0035"  >
<polygon description="&lt;b&gt;DFR68_RS02560&lt;/b&gt;&lt;br&gt;isopenicillin N synthase family oxygenase&lt;br&gt;Location: 625109 - 626152" points="694,90 702,90 707,85 702,80 694,80 694,90 " locus_tag="DFR68_RS02560" id="dummy-1_h1_3_35" style="fill:white; stroke-width:1; stroke:black; " class="clusterblast-orf"  />
</g>
<g id="a1_0036"  >
<polygon description="&lt;b&gt;DFR68_RS02565&lt;/b&gt;&lt;br&gt;adenosine deaminase&lt;br&gt;Location: 626281 - 627324" points="709,90 717,90 722,85 717,80 709,80 709,90 " locus_tag="DFR68_RS02565" id="dummy-1_h1_3_36" style="fill:white; stroke-width:1; stroke:black; " class="clusterblast-orf"  />
</g>
<g id="a1_0037"  >
<polygon description="&lt;b&gt;DFR68_RS02570&lt;/b&gt;&lt;br&gt;hypothetical protein&lt;br&gt;Location: 627346 - 627708" points="722,85 727,80 727,80 727,90 727,90 722,85 " locus_tag="DFR68_RS02570" id="dummy-1_h1_3_37" style="fill:white; stroke-width:1; stroke:black; " class="clusterblast-orf"  />
</g>
<g id="a1_0038"  >
<polygon description="&lt;b&gt;DFR68_RS02575&lt;/b&gt;&lt;br&gt;metal-sulfur cluster assembly factor&lt;br&gt;Location: 627768 - 628124" points="727,85 732,80 732,80 732,90 732,90 727,85 " locus_tag="DFR68_RS02575" id="dummy-1_h1_3_38" style="fill:white; stroke-width:1; stroke:black; " class="clusterblast-orf"  />
</g>
<g id="a1_0039"  >
<polygon description="&lt;b&gt;DFR68_RS02580&lt;/b&gt;&lt;br&gt;SUF system NifU family Fe-S cluster assembly protein&lt;br&gt;Location: 628121 - 628600" points="732,85 737,80 738,80 738,90 737,90 732,85 " locus_tag="DFR68_RS02580" id="dummy-1_h1_3_39" style="fill:white; stroke-width:1; stroke:black; " class="clusterblast-orf"  />
</g>
<g id="a1_0040"  >
<polygon description="&lt;b&gt;DFR68_RS02585&lt;/b&gt;&lt;br&gt;cysteine desulfurase&lt;br&gt;Location: 628604 - 629884" points="738,85 743,80 754,80 754,90 743,90 738,85 " locus_tag="DFR68_RS02585" id="dummy-1_h1_3_40" style="fill:white; stroke-width:1; stroke:black; " class="clusterblast-orf"  />
</g>
<g id="a1_0041"  >
<polygon description="&lt;b&gt;DFR68_RS02590&lt;/b&gt;&lt;br&gt;Fe-S cluster assembly ATPase SufC&lt;br&gt;Location: 629886 - 630656" points="754,85 759,80 764,80 764,90 759,90 754,85 " locus_tag="DFR68_RS02590" id="dummy-1_h1_3_41" style="fill:white; stroke-width:1; stroke:black; " class="clusterblast-orf"  />
</g>
<g id="a1_0042"  >
<polygon description="&lt;b&gt;DFR68_RS02595&lt;/b&gt;&lt;br&gt;Fe-S cluster assembly protein SufD&lt;br&gt;Location: 630688 - 631866" points="765,85 770,80 780,80 780,90 770,90 765,85 " locus_tag="DFR68_RS02595" id="dummy-1_h1_3_42" style="fill:white; stroke-width:1; stroke:black; " class="clusterblast-orf"  />
</g>
</svg>
