<svg xmlns:xlink="http://www.w3.org/1999/xlink" preserveAspectRatio="none" width="800" xmlns="http://www.w3.org/2000/svg" y="0" height="230" x="0" version="1.1" viewBox="0 0 800 230"  >
<g class="clusterblast-cluster" label="Query sequence"  >
<text y="20" x="5" class="clusterblast-acc"  >
Query sequence</text>
<line x2="778.0" x1="10" y1="35" y2="35" style="stroke:grey; stroke-width:1; "  />
<polygon description="&lt;b&gt;cds0_678&lt;/b&gt;&lt;br&gt;A-factor biosynthesis protein AfsA&lt;br&gt;Location: 0 - 678" points="359,35 364,30 365,30 365,40 364,40 359,35 " locus_tag="cds0_678" id="dummy-1_q0_0_all" style="fill:#d81515; stroke-width:1; stroke:black; " class="clusterblast-orf"  />
<polygon description="&lt;b&gt;cds1682_2345&lt;/b&gt;&lt;br&gt;Two-component transcriptional response regulator, LuxR family&lt;br&gt;Location: 1682 - 2345" points="372,35 377,30 377,30 377,40 377,40 372,35 " locus_tag="cds1682_2345" id="dummy-1_q1_0_all" style="fill:#4dd815; stroke-width:1; stroke:black; " class="clusterblast-orf"  />
<polygon description="&lt;b&gt;cds2341_4171&lt;/b&gt;&lt;br&gt;Two-component system sensor histidine kinase&lt;br&gt;Location: 2341 - 4171" points="377,35 382,30 391,30 391,40 382,40 377,35 " locus_tag="cds2341_4171" id="dummy-1_q2_0_all" style="fill:#1585d8; stroke-width:1; stroke:black; " class="clusterblast-orf"  />
<polygon description="&lt;b&gt;cds4368_4680&lt;/b&gt;&lt;br&gt;hypothetical protein&lt;br&gt;Location: 4368 - 4680" points="393,35 395,30 395,40 393,35 " locus_tag="cds4368_4680" id="dummy-1_q3_0_all" style="fill:#d815bc; stroke-width:1; stroke:black; " class="clusterblast-orf"  />
<polygon description="&lt;b&gt;cds4895_6050&lt;/b&gt;&lt;br&gt;hypothetical protein&lt;br&gt;Location: 4895 - 6050" points="397,35 402,30 405,30 405,40 402,40 397,35 " locus_tag="cds4895_6050" id="dummy-1_q4_0_all" style="fill:#d8bc15; stroke-width:1; stroke:black; " class="clusterblast-orf"  />
<polygon description="&lt;b&gt;cds6096_7365&lt;/b&gt;&lt;br&gt;2-methylisoborneol synthase (EC 4.2.3.118)&lt;br&gt;Location: 6096 - 7365" points="406,35 411,30 415,30 415,40 411,40 406,35 " locus_tag="cds6096_7365" id="dummy-1_q5_0_all" style="fill:#15d885; stroke-width:1; stroke:black; " class="clusterblast-orf"  />
<polygon description="&lt;b&gt;cds7580_7943&lt;/b&gt;&lt;br&gt;Putative transmembrane protein&lt;br&gt;Location: 7580 - 7943" points="417,40 420,35 417,30 417,40 " locus_tag="cds7580_7943" id="dummy-1_q6_0_all" style="fill:#4d15d8; stroke-width:1; stroke:black; " class="clusterblast-orf"  />
</g>
<g description="NZ_SDLS01000005 (60284-164306): Amycolatopsis sp. CFH S0740 Scaffold5, whole ... (4% of genes show similarity), T1PKS,butyrolactone" class="clusterblast-cluster" label="NZ_SDLS01000005"  >
<text y="70" x="5" class="clusterblast-acc"  >
<a xlink:href="https://antismash-db.secondarymetabolites.org/area.html?record=NZ_SDLS01000005&amp;start=60284&amp;end=164306" target="_blank">NZ_SDLS01000005 (60284-164306)</a>: Amycolatopsis sp. CFH S0740 Scaffold5, whole ... (4% of genes show similarity), T1PKS,butyrolactone</text>
<line x2="778.0" x1="10" y1="85" y2="85" style="stroke:grey; stroke-width:1; "  />
</g>
<g id="a1_000"  >
<polygon description="&lt;b&gt;EIZ45_RS10890&lt;/b&gt;&lt;br&gt;Lrp/AsnC family transcriptional regulator&lt;br&gt;Location: 61079 - 61510" points="0,90 3,85 0,80 0,90 " locus_tag="EIZ45_RS10890" id="dummy-1_h1_3_0" style="fill:white; stroke-width:1; stroke:black; " class="clusterblast-orf"  />
</g>
<g id="a1_001"  >
<polygon description="&lt;b&gt;EIZ45_RS10895&lt;/b&gt;&lt;br&gt;GNAT family N-acetyltransferase&lt;br&gt;Location: 61518 - 62006" points="3,85 7,80 7,90 3,85 " locus_tag="EIZ45_RS10895" id="dummy-1_h1_3_1" style="fill:white; stroke-width:1; stroke:black; " class="clusterblast-orf"  />
</g>
<g id="a1_002"  >
<polygon description="&lt;b&gt;EIZ45_RS10900&lt;/b&gt;&lt;br&gt;VOC family protein&lt;br&gt;Location: 62044 - 62766" points="7,85 12,80 12,80 12,90 12,90 7,85 " locus_tag="EIZ45_RS10900" id="dummy-1_h1_3_2" style="fill:white; stroke-width:1; stroke:black; " class="clusterblast-orf"  />
</g>
<g id="a1_003"  >
<polygon description="&lt;b&gt;EIZ45_RS10905&lt;/b&gt;&lt;br&gt;GNAT family N-acetyltransferase&lt;br&gt;Location: 62918 - 63604" points="13,90 14,90 19,85 14,80 13,80 13,90 " locus_tag="EIZ45_RS10905" id="dummy-1_h1_3_3" style="fill:white; stroke-width:1; stroke:black; " class="clusterblast-orf"  />
</g>
<g id="a1_004"  >
<polygon description="&lt;b&gt;EIZ45_RS10910&lt;/b&gt;&lt;br&gt;thioesterase&lt;br&gt;Location: 63859 - 64629" points="21,90 21,90 26,85 21,80 21,80 21,90 " locus_tag="EIZ45_RS10910" id="dummy-1_h1_3_4" style="fill:white; stroke-width:1; stroke:black; " class="clusterblast-orf"  />
</g>
<g id="a1_005"  >
<polygon description="&lt;b&gt;EIZ45_RS10915&lt;/b&gt;&lt;br&gt;acyl-CoA carboxylase subunit beta&lt;br&gt;Location: 64622 - 66190" points="26,90 33,90 38,85 33,80 26,80 26,90 " locus_tag="EIZ45_RS10915" id="dummy-1_h1_3_5" style="fill:white; stroke-width:1; stroke:black; " class="clusterblast-orf"  />
</g>
<g id="a1_006"  >
<polygon description="&lt;b&gt;EIZ45_RS46070&lt;/b&gt;&lt;br&gt;hypothetical protein&lt;br&gt;Location: 66440 - 66715" points="40,90 42,85 40,80 40,90 " locus_tag="EIZ45_RS46070" id="dummy-1_h1_3_6" style="fill:white; stroke-width:1; stroke:black; " class="clusterblast-orf"  />
</g>
<g id="a1_007"  >
<polygon description="&lt;b&gt;EIZ45_RS46075&lt;/b&gt;&lt;br&gt;hypothetical protein&lt;br&gt;Location: 66733 - 66891" points="42,90 44,85 42,80 42,90 " locus_tag="EIZ45_RS46075" id="dummy-1_h1_3_7" style="fill:white; stroke-width:1; stroke:black; " class="clusterblast-orf"  />
</g>
<g id="a1_008"  >
<polygon description="&lt;b&gt;EIZ45_RS10925&lt;/b&gt;&lt;br&gt;response regulator transcription factor&lt;br&gt;Location: 67234 - 67887&lt;br&gt;&lt;br&gt;&lt;b&gt;BlastP hit with cds1682_2345&lt;/b&gt;&lt;br&gt;Percentage identity: 45&lt;br&gt;Percentage coverage: 98&lt;br&gt;BLAST bit score: 180&lt;br&gt;E-value: 1.9e-43" points="46,85 51,80 51,80 51,90 51,90 46,85 " locus_tag="EIZ45_RS10925" id="dummy-1_h1_3_8" style="fill:#4dd815; stroke-width:1; stroke:black; " class="clusterblast-orf"  />
</g>
<g id="a1_009"  >
<polygon description="&lt;b&gt;EIZ45_RS10930&lt;/b&gt;&lt;br&gt;sensor histidine kinase&lt;br&gt;Location: 67911 - 69026&lt;br&gt;&lt;br&gt;&lt;b&gt;BlastP hit with cds2341_4171&lt;/b&gt;&lt;br&gt;Percentage identity: 38&lt;br&gt;Percentage coverage: 38&lt;br&gt;BLAST bit score: 137&lt;br&gt;E-value: 3.8e-30" points="51,85 56,80 60,80 60,90 56,90 51,85 " locus_tag="EIZ45_RS10930" id="dummy-1_h1_3_9" style="fill:#1585d8; stroke-width:1; stroke:black; " class="clusterblast-orf"  />
</g>
<g id="a1_0010"  >
<polygon description="&lt;b&gt;EIZ45_RS10935&lt;/b&gt;&lt;br&gt;DUF1205 domain-containing protein&lt;br&gt;Location: 69017 - 70288" points="60,85 65,80 69,80 69,90 65,90 60,85 " locus_tag="EIZ45_RS10935" id="dummy-1_h1_3_10" style="fill:white; stroke-width:1; stroke:black; " class="clusterblast-orf"  />
</g>
<g id="a1_0011"  >
<polygon description="&lt;b&gt;EIZ45_RS10940&lt;/b&gt;&lt;br&gt;proline iminopeptidase-family hydrolase&lt;br&gt;Location: 70524 - 71456" points="71,90 73,90 78,85 73,80 71,80 71,90 " locus_tag="EIZ45_RS10940" id="dummy-1_h1_3_11" style="fill:white; stroke-width:1; stroke:black; " class="clusterblast-orf"  />
</g>
<g id="a1_0012"  >
<polygon description="&lt;b&gt;EIZ45_RS10945&lt;/b&gt;&lt;br&gt;ACP S-malonyltransferase&lt;br&gt;Location: 71494 - 72408" points="79,90 81,90 86,85 81,80 79,80 79,90 " locus_tag="EIZ45_RS10945" id="dummy-1_h1_3_12" style="fill:white; stroke-width:1; stroke:black; " class="clusterblast-orf"  />
</g>
<g id="a1_0013"  >
<polygon description="&lt;b&gt;EIZ45_RS10950&lt;/b&gt;&lt;br&gt;phosphopantetheine-binding protein&lt;br&gt;Location: 72401 - 72646" points="85,85 87,80 87,90 85,85 " locus_tag="EIZ45_RS10950" id="dummy-1_h1_3_13" style="fill:white; stroke-width:1; stroke:black; " class="clusterblast-orf"  />
</g>
<g id="a1_0014"  >
<polygon description="&lt;b&gt;EIZ45_RS10955&lt;/b&gt;&lt;br&gt;AMP-binding protein&lt;br&gt;Location: 72881 - 74377" points="89,90 95,90 100,85 95,80 89,80 89,90 " locus_tag="EIZ45_RS10955" id="dummy-1_h1_3_14" style="fill:white; stroke-width:1; stroke:black; " class="clusterblast-orf"  />
</g>
<g id="a1_0015"  >
<polygon description="&lt;b&gt;EIZ45_RS10960&lt;/b&gt;&lt;br&gt;AMP-binding protein&lt;br&gt;Location: 74565 - 76046" points="102,90 108,90 113,85 108,80 102,80 102,90 " locus_tag="EIZ45_RS10960" id="dummy-1_h1_3_15" style="fill:white; stroke-width:1; stroke:black; " class="clusterblast-orf"  />
</g>
<g id="a1_0016"  >
<polygon description="&lt;b&gt;EIZ45_RS10965&lt;/b&gt;&lt;br&gt;decarboxylase&lt;br&gt;Location: 76043 - 77257" points="113,90 117,90 122,85 117,80 113,80 113,90 " locus_tag="EIZ45_RS10965" id="dummy-1_h1_3_16" style="fill:white; stroke-width:1; stroke:black; " class="clusterblast-orf"  />
</g>
<g id="a1_0017"  >
<polygon description="&lt;b&gt;EIZ45_RS10970&lt;/b&gt;&lt;br&gt;cobalamin B12-binding domain-containing protein&lt;br&gt;Location: 77254 - 77730" points="122,90 126,85 122,80 122,90 " locus_tag="EIZ45_RS10970" id="dummy-1_h1_3_17" style="fill:white; stroke-width:1; stroke:black; " class="clusterblast-orf"  />
</g>
<g id="a1_0018"  >
<polygon description="&lt;b&gt;EIZ45_RS10975&lt;/b&gt;&lt;br&gt;methylaspartate mutase&lt;br&gt;Location: 77727 - 78995" points="126,90 131,90 136,85 131,80 126,80 126,90 " locus_tag="EIZ45_RS10975" id="dummy-1_h1_3_18" style="fill:white; stroke-width:1; stroke:black; " class="clusterblast-orf"  />
</g>
<g id="a1_0019"  >
<polygon description="&lt;b&gt;EIZ45_RS10980&lt;/b&gt;&lt;br&gt;cytochrome P450&lt;br&gt;Location: 78992 - 80188" points="135,90 140,90 145,85 140,80 135,80 135,90 " locus_tag="EIZ45_RS10980" id="dummy-1_h1_3_19" style="fill:white; stroke-width:1; stroke:black; " class="clusterblast-orf"  />
</g>
<g id="a1_0020"  >
<polygon description="&lt;b&gt;EIZ45_RS10985&lt;/b&gt;&lt;br&gt;SDR family NAD(P)-dependent oxidoreductase&lt;br&gt;Location: 80285 - 96064" points="145,90 260,90 265,85 260,80 145,80 145,90 " locus_tag="EIZ45_RS10985" id="dummy-1_h1_3_20" style="fill:white; stroke-width:1; stroke:black; " class="clusterblast-orf"  />
</g>
<g id="a1_0021"  >
<polygon description="&lt;b&gt;EIZ45_RS10990&lt;/b&gt;&lt;br&gt;MBL fold metallo-hydrolase&lt;br&gt;Location: 96341 - 96775" points="267,85 270,80 270,90 267,85 " locus_tag="EIZ45_RS10990" id="dummy-1_h1_3_21" style="fill:white; stroke-width:1; stroke:black; " class="clusterblast-orf"  />
</g>
<g id="a1_0022"  >
<polygon description="&lt;b&gt;EIZ45_RS10995&lt;/b&gt;&lt;br&gt;TetR/AcrR family transcriptional regulator&lt;br&gt;Location: 96773 - 96970" points="270,90 272,85 270,80 270,90 " locus_tag="EIZ45_RS10995" id="dummy-1_h1_3_22" style="fill:white; stroke-width:1; stroke:black; " class="clusterblast-orf"  />
</g>
<g id="a1_0023"  >
<polygon description="&lt;b&gt;EIZ45_RS11000&lt;/b&gt;&lt;br&gt;hypothetical protein&lt;br&gt;Location: 97049 - 97390" points="273,85 275,80 275,90 273,85 " locus_tag="EIZ45_RS11000" id="dummy-1_h1_3_23" style="fill:white; stroke-width:1; stroke:black; " class="clusterblast-orf"  />
</g>
<g id="a1_0024"  >
<polygon description="&lt;b&gt;EIZ45_RS11005&lt;/b&gt;&lt;br&gt;HNH endonuclease&lt;br&gt;Location: 97550 - 98818" points="276,85 281,80 286,80 286,90 281,90 276,85 " locus_tag="EIZ45_RS11005" id="dummy-1_h1_3_24" style="fill:white; stroke-width:1; stroke:black; " class="clusterblast-orf"  />
</g>
<g id="a1_0025"  >
<polygon description="&lt;b&gt;EIZ45_RS11010&lt;/b&gt;&lt;br&gt;helix-turn-helix transcriptional regulator&lt;br&gt;Location: 99107 - 101695" points="288,90 303,90 308,85 303,80 288,80 288,90 " locus_tag="EIZ45_RS11010" id="dummy-1_h1_3_25" style="fill:white; stroke-width:1; stroke:black; " class="clusterblast-orf"  />
</g>
<g id="a1_0026"  >
<polygon description="&lt;b&gt;EIZ45_RS11015&lt;/b&gt;&lt;br&gt;hypothetical protein&lt;br&gt;Location: 101692 - 101892" points="308,90 309,85 308,80 308,90 " locus_tag="EIZ45_RS11015" id="dummy-1_h1_3_26" style="fill:white; stroke-width:1; stroke:black; " class="clusterblast-orf"  />
</g>
<g id="a1_0027"  >
<polygon description="&lt;b&gt;EIZ45_RS11020&lt;/b&gt;&lt;br&gt;NAD-dependent epimerase/dehydratase family protein&lt;br&gt;Location: 101946 - 102905" points="310,85 315,80 317,80 317,90 315,90 310,85 " locus_tag="EIZ45_RS11020" id="dummy-1_h1_3_27" style="fill:white; stroke-width:1; stroke:black; " class="clusterblast-orf"  />
</g>
<g id="a1_0028"  >
<polygon description="&lt;b&gt;EIZ45_RS11025&lt;/b&gt;&lt;br&gt;nucleotide sugar dehydrogenase&lt;br&gt;Location: 102921 - 104213" points="317,85 322,80 327,80 327,90 322,90 317,85 " locus_tag="EIZ45_RS11025" id="dummy-1_h1_3_28" style="fill:white; stroke-width:1; stroke:black; " class="clusterblast-orf"  />
</g>
<g id="a1_0029"  >
<polygon description="&lt;b&gt;EIZ45_RS11030&lt;/b&gt;&lt;br&gt;PIG-L family deacetylase&lt;br&gt;Location: 104278 - 104952" points="327,85 332,80 333,80 333,90 332,90 327,85 " locus_tag="EIZ45_RS11030" id="dummy-1_h1_3_29" style="fill:white; stroke-width:1; stroke:black; " class="clusterblast-orf"  />
</g>
<g id="a1_0030"  >
<polygon description="&lt;b&gt;EIZ45_RS11035&lt;/b&gt;&lt;br&gt;DUF1205 domain-containing protein&lt;br&gt;Location: 105307 - 106521" points="335,85 340,80 344,80 344,90 340,90 335,85 " locus_tag="EIZ45_RS11035" id="dummy-1_h1_3_30" style="fill:white; stroke-width:1; stroke:black; " class="clusterblast-orf"  />
</g>
<g id="a1_0031"  >
<polygon description="&lt;b&gt;EIZ45_RS11040&lt;/b&gt;&lt;br&gt;SDR family NAD(P)-dependent oxidoreductase&lt;br&gt;Location: 106848 - 112118" points="347,90 382,90 387,85 382,80 347,80 347,90 " locus_tag="EIZ45_RS11040" id="dummy-1_h1_3_31" style="fill:white; stroke-width:1; stroke:black; " class="clusterblast-orf"  />
</g>
<g id="a1_0032"  >
<polygon description="&lt;b&gt;EIZ45_RS11045&lt;/b&gt;&lt;br&gt;hypothetical protein&lt;br&gt;Location: 112219 - 112482" points="388,85 390,80 390,90 388,85 " locus_tag="EIZ45_RS11045" id="dummy-1_h1_3_32" style="fill:white; stroke-width:1; stroke:black; " class="clusterblast-orf"  />
</g>
<g id="a1_0033"  >
<polygon description="&lt;b&gt;EIZ45_RS11050&lt;/b&gt;&lt;br&gt;thioesterase&lt;br&gt;Location: 112589 - 113404" points="391,85 396,80 397,80 397,90 396,90 391,85 " locus_tag="EIZ45_RS11050" id="dummy-1_h1_3_33" style="fill:white; stroke-width:1; stroke:black; " class="clusterblast-orf"  />
</g>
<g id="a1_0034"  >
<polygon description="&lt;b&gt;EIZ45_RS11055&lt;/b&gt;&lt;br&gt;acyltransferase domain-containing protein&lt;br&gt;Location: 113686 - 121962" points="399,90 457,90 462,85 457,80 399,80 399,90 " locus_tag="EIZ45_RS11055" id="dummy-1_h1_3_34" style="fill:white; stroke-width:1; stroke:black; " class="clusterblast-orf"  />
</g>
<g id="a1_0035"  >
<polygon description="&lt;b&gt;EIZ45_RS11060&lt;/b&gt;&lt;br&gt;DUF1707 domain-containing protein&lt;br&gt;Location: 122213 - 122629" points="464,90 467,85 464,80 464,90 " locus_tag="EIZ45_RS11060" id="dummy-1_h1_3_35" style="fill:white; stroke-width:1; stroke:black; " class="clusterblast-orf"  />
</g>
<g id="a1_0036"  >
<polygon description="&lt;b&gt;EIZ45_RS11065&lt;/b&gt;&lt;br&gt;DUF1205 domain-containing protein&lt;br&gt;Location: 122773 - 123669" points="468,90 470,90 475,85 470,80 468,80 468,90 " locus_tag="EIZ45_RS11065" id="dummy-1_h1_3_36" style="fill:white; stroke-width:1; stroke:black; " class="clusterblast-orf"  />
</g>
<g id="a1_0037"  >
<polygon description="&lt;b&gt;EIZ45_RS11070&lt;/b&gt;&lt;br&gt;SDR family NAD(P)-dependent oxidoreductase&lt;br&gt;Location: 123905 - 129145" points="476,90 511,90 516,85 511,80 476,80 476,90 " locus_tag="EIZ45_RS11070" id="dummy-1_h1_3_37" style="fill:white; stroke-width:1; stroke:black; " class="clusterblast-orf"  />
</g>
<g id="a1_0038"  >
<polygon description="&lt;b&gt;EIZ45_RS11075&lt;/b&gt;&lt;br&gt;SDR family NAD(P)-dependent oxidoreductase&lt;br&gt;Location: 129157 - 133905" points="516,90 547,90 552,85 547,80 516,80 516,90 " locus_tag="EIZ45_RS11075" id="dummy-1_h1_3_38" style="fill:white; stroke-width:1; stroke:black; " class="clusterblast-orf"  />
</g>
<g id="a1_0039"  >
<polygon description="&lt;b&gt;EIZ45_RS11080&lt;/b&gt;&lt;br&gt;SDR family NAD(P)-dependent oxidoreductase&lt;br&gt;Location: 133939 - 144306" points="553,90 626,90 631,85 626,80 553,80 553,90 " locus_tag="EIZ45_RS11080" id="dummy-1_h1_3_39" style="fill:white; stroke-width:1; stroke:black; " class="clusterblast-orf"  />
</g>
<g id="a1_0040"  >
<polygon description="&lt;b&gt;EIZ45_RS11085&lt;/b&gt;&lt;br&gt;ATP-binding cassette domain-containing protein&lt;br&gt;Location: 144419 - 145342" points="632,90 634,90 639,85 634,80 632,80 632,90 " locus_tag="EIZ45_RS11085" id="dummy-1_h1_3_40" style="fill:white; stroke-width:1; stroke:black; " class="clusterblast-orf"  />
</g>
<g id="a1_0041"  >
<polygon description="&lt;b&gt;EIZ45_RS11090&lt;/b&gt;&lt;br&gt;ABC transporter permease&lt;br&gt;Location: 145342 - 146169" points="639,90 640,90 645,85 640,80 639,80 639,90 " locus_tag="EIZ45_RS11090" id="dummy-1_h1_3_41" style="fill:white; stroke-width:1; stroke:black; " class="clusterblast-orf"  />
</g>
<g id="a1_0042"  >
<polygon description="&lt;b&gt;EIZ45_RS11095&lt;/b&gt;&lt;br&gt;TetR/AcrR family transcriptional regulator&lt;br&gt;Location: 146518 - 147147" points="648,85 653,80 653,80 653,90 653,90 648,85 " locus_tag="EIZ45_RS11095" id="dummy-1_h1_3_42" style="fill:white; stroke-width:1; stroke:black; " class="clusterblast-orf"  />
</g>
<g id="a1_0043"  >
<polygon description="&lt;b&gt;EIZ45_RS11100&lt;/b&gt;&lt;br&gt;TetR/AcrR family transcriptional regulator&lt;br&gt;Location: 147285 - 147995" points="654,85 659,80 659,80 659,90 659,90 654,85 " locus_tag="EIZ45_RS11100" id="dummy-1_h1_3_43" style="fill:white; stroke-width:1; stroke:black; " class="clusterblast-orf"  />
</g>
<g id="a1_0044"  >
<polygon description="&lt;b&gt;EIZ45_RS11110&lt;/b&gt;&lt;br&gt;hypothetical protein&lt;br&gt;Location: 148340 - 148570" points="662,90 664,85 662,80 662,90 " locus_tag="EIZ45_RS11110" id="dummy-1_h1_3_44" style="fill:white; stroke-width:1; stroke:black; " class="clusterblast-orf"  />
</g>
<g id="a1_0045"  >
<polygon description="&lt;b&gt;EIZ45_RS11115&lt;/b&gt;&lt;br&gt;ABC transporter ATP-binding protein&lt;br&gt;Location: 148567 - 149337" points="664,90 665,90 670,85 665,80 664,80 664,90 " locus_tag="EIZ45_RS11115" id="dummy-1_h1_3_45" style="fill:white; stroke-width:1; stroke:black; " class="clusterblast-orf"  />
</g>
<g id="a1_0046"  >
<polygon description="&lt;b&gt;EIZ45_RS11120&lt;/b&gt;&lt;br&gt;ABC transporter permease&lt;br&gt;Location: 149352 - 151886" points="670,90 684,90 689,85 684,80 670,80 670,90 " locus_tag="EIZ45_RS11120" id="dummy-1_h1_3_46" style="fill:white; stroke-width:1; stroke:black; " class="clusterblast-orf"  />
</g>
<g id="a1_0047"  >
<polygon description="&lt;b&gt;EIZ45_RS11125&lt;/b&gt;&lt;br&gt;DUF1205 domain-containing protein&lt;br&gt;Location: 151981 - 152868" points="690,90 691,90 696,85 691,80 690,80 690,90 " locus_tag="EIZ45_RS11125" id="dummy-1_h1_3_47" style="fill:white; stroke-width:1; stroke:black; " class="clusterblast-orf"  />
</g>
<g id="a1_0048"  >
<polygon description="&lt;b&gt;EIZ45_RS11130&lt;/b&gt;&lt;br&gt;SAM-dependent methyltransferase&lt;br&gt;Location: 153357 - 153500" points="700,90 701,85 700,80 700,90 " locus_tag="EIZ45_RS11130" id="dummy-1_h1_3_48" style="fill:white; stroke-width:1; stroke:black; " class="clusterblast-orf"  />
</g>
<g id="a1_0049"  >
<polygon description="&lt;b&gt;EIZ45_RS11135&lt;/b&gt;&lt;br&gt;AfsR/SARP family transcriptional regulator&lt;br&gt;Location: 153588 - 154355" points="702,85 707,80 708,80 708,90 707,90 702,85 " locus_tag="EIZ45_RS11135" id="dummy-1_h1_3_49" style="fill:white; stroke-width:1; stroke:black; " class="clusterblast-orf"  />
</g>
<g id="a1_0050"  >
<polygon description="&lt;b&gt;EIZ45_RS11140&lt;/b&gt;&lt;br&gt;TetR/AcrR family transcriptional regulator&lt;br&gt;Location: 154619 - 155248" points="710,90 714,85 710,80 710,90 " locus_tag="EIZ45_RS11140" id="dummy-1_h1_3_50" style="fill:white; stroke-width:1; stroke:black; " class="clusterblast-orf"  />
</g>
<g id="a1_0051"  >
<polygon description="&lt;b&gt;EIZ45_RS11145&lt;/b&gt;&lt;br&gt;TetR/AcrR family transcriptional regulator&lt;br&gt;Location: 155377 - 156003" points="715,85 720,80 720,80 720,90 720,90 715,85 " locus_tag="EIZ45_RS11145" id="dummy-1_h1_3_51" style="fill:white; stroke-width:1; stroke:black; " class="clusterblast-orf"  />
</g>
<g id="a1_0052"  >
<polygon description="&lt;b&gt;EIZ45_RS11150&lt;/b&gt;&lt;br&gt;hypothetical protein&lt;br&gt;Location: 156187 - 157155&lt;br&gt;&lt;br&gt;&lt;b&gt;BlastP hit with cds0_678&lt;/b&gt;&lt;br&gt;Percentage identity: 32&lt;br&gt;Percentage coverage: 88&lt;br&gt;BLAST bit score: 82&lt;br&gt;E-value: 5.4e-14" points="722,90 724,90 729,85 724,80 722,80 722,90 " locus_tag="EIZ45_RS11150" id="dummy-1_h1_3_52" style="fill:#d81515; stroke-width:1; stroke:black; " class="clusterblast-orf"  />
</g>
<g id="a1_0053"  >
<polygon description="&lt;b&gt;EIZ45_RS11155&lt;/b&gt;&lt;br&gt;NAD(P)-dependent oxidoreductase&lt;br&gt;Location: 157164 - 158117" points="729,90 731,90 736,85 731,80 729,80 729,90 " locus_tag="EIZ45_RS11155" id="dummy-1_h1_3_53" style="fill:white; stroke-width:1; stroke:black; " class="clusterblast-orf"  />
</g>
<g id="a1_0054"  >
<polygon description="&lt;b&gt;EIZ45_RS11160&lt;/b&gt;&lt;br&gt;ribonuclease Z&lt;br&gt;Location: 158232 - 159140" points="737,90 739,90 744,85 739,80 737,80 737,90 " locus_tag="EIZ45_RS11160" id="dummy-1_h1_3_54" style="fill:white; stroke-width:1; stroke:black; " class="clusterblast-orf"  />
</g>
<g id="a1_0055"  >
<polygon description="&lt;b&gt;EIZ45_RS11165&lt;/b&gt;&lt;br&gt;aminoglycoside phosphotransferase family protein&lt;br&gt;Location: 159137 - 159717" points="744,90 748,85 744,80 744,90 " locus_tag="EIZ45_RS11165" id="dummy-1_h1_3_55" style="fill:white; stroke-width:1; stroke:black; " class="clusterblast-orf"  />
</g>
<g id="a1_0056"  >
<polygon description="&lt;b&gt;EIZ45_RS11170&lt;/b&gt;&lt;br&gt;dihydrofolate reductase&lt;br&gt;Location: 159835 - 160455" points="749,90 749,90 754,85 749,80 749,80 749,90 " locus_tag="EIZ45_RS11170" id="dummy-1_h1_3_56" style="fill:white; stroke-width:1; stroke:black; " class="clusterblast-orf"  />
</g>
<g id="a1_0057"  >
<polygon description="&lt;b&gt;EIZ45_RS11175&lt;/b&gt;&lt;br&gt;hypothetical protein&lt;br&gt;Location: 160475 - 160798" points="754,90 757,85 754,80 754,90 " locus_tag="EIZ45_RS11175" id="dummy-1_h1_3_57" style="fill:white; stroke-width:1; stroke:black; " class="clusterblast-orf"  />
</g>
<g id="a1_0058"  >
<polygon description="&lt;b&gt;EIZ45_RS11180&lt;/b&gt;&lt;br&gt;RNA polymerase sigma factor&lt;br&gt;Location: 160795 - 162012" points="757,90 761,90 766,85 761,80 757,80 757,90 " locus_tag="EIZ45_RS11180" id="dummy-1_h1_3_58" style="fill:white; stroke-width:1; stroke:black; " class="clusterblast-orf"  />
</g>
<g id="a1_0059"  >
<polygon description="&lt;b&gt;EIZ45_RS11185&lt;/b&gt;&lt;br&gt;GNAT family N-acetyltransferase&lt;br&gt;Location: 162041 - 162643" points="766,85 771,80 771,80 771,90 771,90 766,85 " locus_tag="EIZ45_RS11185" id="dummy-1_h1_3_59" style="fill:white; stroke-width:1; stroke:black; " class="clusterblast-orf"  />
</g>
<g id="a1_0060"  >
<polygon description="&lt;b&gt;EIZ45_RS11190&lt;/b&gt;&lt;br&gt;alpha/beta hydrolase fold domain-containing protein&lt;br&gt;Location: 162852 - 163823" points="772,90 775,90 780,85 775,80 772,80 772,90 " locus_tag="EIZ45_RS11190" id="dummy-1_h1_3_60" style="fill:white; stroke-width:1; stroke:black; " class="clusterblast-orf"  />
</g>
</svg>
