<svg xmlns:xlink="http://www.w3.org/1999/xlink" preserveAspectRatio="none" width="800" xmlns="http://www.w3.org/2000/svg" y="0" height="230" x="0" version="1.1" viewBox="0 0 800 230"  >
<g class="clusterblast-cluster" label="Query sequence"  >
<text y="20" x="5" class="clusterblast-acc"  >
Query sequence</text>
<line x2="778.0" x1="10" y1="35" y2="35" style="stroke:grey; stroke-width:1; "  />
<polygon description="&lt;b&gt;cds149_314&lt;/b&gt;&lt;br&gt;hypothetical protein&lt;br&gt;Location: 149 - 314" points="311,35 313,30 313,40 311,35 " locus_tag="cds149_314" id="dummy-1_q0_0_all" style="fill:white; stroke-width:1; stroke:black; " class="clusterblast-orf"  />
<polygon description="&lt;b&gt;cds323_437&lt;/b&gt;&lt;br&gt;hypothetical protein&lt;br&gt;Location: 323 - 437" points="313,35 314,30 314,40 313,35 " locus_tag="cds323_437" id="dummy-1_q1_0_all" style="fill:white; stroke-width:1; stroke:black; " class="clusterblast-orf"  />
<polygon description="&lt;b&gt;cds685_1480&lt;/b&gt;&lt;br&gt;hypothetical protein&lt;br&gt;Location: 685 - 1480" points="317,35 322,30 326,30 326,40 322,40 317,35 " locus_tag="cds685_1480" id="dummy-1_q2_0_all" style="fill:white; stroke-width:1; stroke:black; " class="clusterblast-orf"  />
<polygon description="&lt;b&gt;cds1590_2652&lt;/b&gt;&lt;br&gt;hypothetical protein&lt;br&gt;Location: 1590 - 2652" points="327,40 334,40 339,35 334,30 327,30 327,40 " locus_tag="cds1590_2652" id="dummy-1_q3_0_all" style="fill:#d81515; stroke-width:1; stroke:black; " class="clusterblast-orf"  />
<polygon description="&lt;b&gt;cds2784_2949&lt;/b&gt;&lt;br&gt;hypothetical protein&lt;br&gt;Location: 2784 - 2949" points="340,35 342,30 342,40 340,35 " locus_tag="cds2784_2949" id="dummy-1_q4_0_all" style="fill:white; stroke-width:1; stroke:black; " class="clusterblast-orf"  />
<polygon description="&lt;b&gt;cds2988_3402&lt;/b&gt;&lt;br&gt;hypothetical protein&lt;br&gt;Location: 2988 - 3402" points="343,40 347,35 343,30 343,40 " locus_tag="cds2988_3402" id="dummy-1_q5_0_all" style="fill:white; stroke-width:1; stroke:black; " class="clusterblast-orf"  />
<polygon description="&lt;b&gt;cds4117_5200&lt;/b&gt;&lt;br&gt;Pyridoxal 5-phosphate (PLP)-dependent ornithine decarboxylase (EC 4.1.1.17)&lt;br&gt;Location: 4117 - 5200" points="355,35 360,30 368,30 368,40 360,40 355,35 " locus_tag="cds4117_5200" id="dummy-1_q6_0_all" style="fill:white; stroke-width:1; stroke:black; " class="clusterblast-orf"  />
<polygon description="&lt;b&gt;cds5207_5360&lt;/b&gt;&lt;br&gt;hypothetical protein&lt;br&gt;Location: 5207 - 5360" points="368,40 369,35 368,30 368,40 " locus_tag="cds5207_5360" id="dummy-1_q7_0_all" style="fill:white; stroke-width:1; stroke:black; " class="clusterblast-orf"  />
<polygon description="&lt;b&gt;cds5374_7003&lt;/b&gt;&lt;br&gt;hypothetical protein&lt;br&gt;Location: 5374 - 7003" points="369,40 383,40 388,35 383,30 369,30 369,40 " locus_tag="cds5374_7003" id="dummy-1_q8_0_all" style="fill:#15d815; stroke-width:1; stroke:black; " class="clusterblast-orf"  />
<polygon description="&lt;b&gt;cds7016_8606&lt;/b&gt;&lt;br&gt;2,3-dihydroxybenzoate-AMP ligase (EC 2.7.7.58)&lt;br&gt;Location: 7016 - 8606" points="388,40 401,40 406,35 401,30 388,30 388,40 " locus_tag="cds7016_8606" id="dummy-1_q9_0_all" style="fill:#15d815; stroke-width:1; stroke:black; " class="clusterblast-orf"  />
<polygon description="&lt;b&gt;cds8614_10066&lt;/b&gt;&lt;br&gt;Amidase family protein SACE 5032&lt;br&gt;Location: 8614 - 10066" points="406,35 411,30 422,30 422,40 411,40 406,35 " locus_tag="cds8614_10066" id="dummy-1_q10_0_all" style="fill:white; stroke-width:1; stroke:black; " class="clusterblast-orf"  />
<polygon description="&lt;b&gt;cds10219_11146&lt;/b&gt;&lt;br&gt;hypothetical protein&lt;br&gt;Location: 10219 - 11146" points="424,40 429,40 434,35 429,30 424,30 424,40 " locus_tag="cds10219_11146" id="dummy-1_q11_0_all" style="fill:white; stroke-width:1; stroke:black; " class="clusterblast-orf"  />
<polygon description="&lt;b&gt;cds11406_12186&lt;/b&gt;&lt;br&gt;hypothetical protein&lt;br&gt;Location: 11406 - 12186" points="437,40 441,40 446,35 441,30 437,30 437,40 " locus_tag="cds11406_12186" id="dummy-1_q12_0_all" style="fill:white; stroke-width:1; stroke:black; " class="clusterblast-orf"  />
<polygon description="&lt;b&gt;cds12270_13152&lt;/b&gt;&lt;br&gt;Dehydrogenase, putative&lt;br&gt;Location: 12270 - 13152" points="447,35 452,30 457,30 457,40 452,40 447,35 " locus_tag="cds12270_13152" id="dummy-1_q13_0_all" style="fill:#1515d8; stroke-width:1; stroke:black; " class="clusterblast-orf"  />
<polygon description="&lt;b&gt;cds13234_13651&lt;/b&gt;&lt;br&gt;Transcriptional regulator, ArsR family&lt;br&gt;Location: 13234 - 13651" points="458,40 462,35 458,30 458,40 " locus_tag="cds13234_13651" id="dummy-1_q14_0_all" style="fill:white; stroke-width:1; stroke:black; " class="clusterblast-orf"  />
<polygon description="&lt;b&gt;cds13699_14188&lt;/b&gt;&lt;br&gt;NLP/P60 family protein&lt;br&gt;Location: 13699 - 14188" points="463,35 468,30 468,30 468,40 468,40 463,35 " locus_tag="cds13699_14188" id="dummy-1_q15_0_all" style="fill:white; stroke-width:1; stroke:black; " class="clusterblast-orf"  />
</g>
<g description="NZ_CP050692 (8157648-8227375): Streptomyces antibioticus strain DSM 41481 chr... (5% of genes show similarity), NRPS,other" class="clusterblast-cluster" label="NZ_CP050692"  >
<text y="70" x="5" class="clusterblast-acc"  >
<a xlink:href="https://antismash-db.secondarymetabolites.org/area.html?record=NZ_CP050692&amp;start=8157648&amp;end=8227375" target="_blank">NZ_CP050692 (8157648-8227375)</a>: Streptomyces antibioticus strain DSM 41481 chr... (5% of genes show similarity), NRPS,other</text>
<line x2="778.0" x1="10" y1="85" y2="85" style="stroke:grey; stroke-width:1; "  />
</g>
<g id="a1_000"  >
<polygon description="&lt;b&gt;HCX60_RS37140&lt;/b&gt;&lt;br&gt;MerR family transcriptional regulator&lt;br&gt;Location: 8227153 - 8226776" points="0,85 4,80 4,90 0,85 " locus_tag="HCX60_RS37140" id="dummy-1_h1_3_0" style="fill:white; stroke-width:1; stroke:black; " class="clusterblast-orf"  />
</g>
<g id="a1_001"  >
<polygon description="&lt;b&gt;HCX60_RS37135&lt;/b&gt;&lt;br&gt;NAD(P)-dependent oxidoreductase&lt;br&gt;Location: 8226716 - 8225802&lt;br&gt;&lt;br&gt;&lt;b&gt;BlastP hit with cds12270_13152&lt;/b&gt;&lt;br&gt;Percentage identity: 44&lt;br&gt;Percentage coverage: 97&lt;br&gt;BLAST bit score: 208&lt;br&gt;E-value: 6.5e-52" points="4,90 10,90 15,85 10,80 4,80 4,90 " locus_tag="HCX60_RS37135" id="dummy-1_h1_3_1" style="fill:#1515d8; stroke-width:1; stroke:black; " class="clusterblast-orf"  />
</g>
<g id="a1_002"  >
<polygon description="&lt;b&gt;HCX60_RS37130&lt;/b&gt;&lt;br&gt;DinB family protein&lt;br&gt;Location: 8225767 - 8225297" points="15,85 20,80 20,80 20,90 20,90 15,85 " locus_tag="HCX60_RS37130" id="dummy-1_h1_3_2" style="fill:white; stroke-width:1; stroke:black; " class="clusterblast-orf"  />
</g>
<g id="a1_003"  >
<polygon description="&lt;b&gt;HCX60_RS37125&lt;/b&gt;&lt;br&gt;DUF4177 domain-containing protein&lt;br&gt;Location: 8225122 - 8224907" points="22,85 25,80 25,90 22,85 " locus_tag="HCX60_RS37125" id="dummy-1_h1_3_3" style="fill:white; stroke-width:1; stroke:black; " class="clusterblast-orf"  />
</g>
<g id="a1_004"  >
<polygon description="&lt;b&gt;HCX60_RS37120&lt;/b&gt;&lt;br&gt;hypothetical protein&lt;br&gt;Location: 8224757 - 8224344" points="26,90 26,90 31,85 26,80 26,80 26,90 " locus_tag="HCX60_RS37120" id="dummy-1_h1_3_4" style="fill:white; stroke-width:1; stroke:black; " class="clusterblast-orf"  />
</g>
<g id="a1_005"  >
<polygon description="&lt;b&gt;HCX60_RS37115&lt;/b&gt;&lt;br&gt;VOC family protein&lt;br&gt;Location: 8224122 - 8223682" points="34,90 38,85 34,80 34,90 " locus_tag="HCX60_RS37115" id="dummy-1_h1_3_5" style="fill:white; stroke-width:1; stroke:black; " class="clusterblast-orf"  />
</g>
<g id="a1_006"  >
<polygon description="&lt;b&gt;HCX60_RS37110&lt;/b&gt;&lt;br&gt;IS256 family transposase&lt;br&gt;Location: 8223586 - 8222570" points="40,90 46,90 51,85 46,80 40,80 40,90 " locus_tag="HCX60_RS37110" id="dummy-1_h1_3_6" style="fill:white; stroke-width:1; stroke:black; " class="clusterblast-orf"  />
</g>
<g id="a1_007"  >
<polygon description="&lt;b&gt;HCX60_RS37105&lt;/b&gt;&lt;br&gt;hypothetical protein&lt;br&gt;Location: 8222573 - 8222106" points="51,90 51,90 56,85 51,80 51,80 51,90 " locus_tag="HCX60_RS37105" id="dummy-1_h1_3_7" style="fill:white; stroke-width:1; stroke:black; " class="clusterblast-orf"  />
</g>
<g id="a1_008"  >
<polygon description="&lt;b&gt;HCX60_RS37100&lt;/b&gt;&lt;br&gt;hypothetical protein&lt;br&gt;Location: 8221534 - 8221091" points="63,90 63,90 68,85 63,80 63,80 63,90 " locus_tag="HCX60_RS37100" id="dummy-1_h1_3_8" style="fill:white; stroke-width:1; stroke:black; " class="clusterblast-orf"  />
</g>
<g id="a1_009"  >
<polygon description="&lt;b&gt;HCX60_RS37095&lt;/b&gt;&lt;br&gt;helix-turn-helix transcriptional regulator&lt;br&gt;Location: 8220821 - 8220534" points="71,85 74,80 74,90 71,85 " locus_tag="HCX60_RS37095" id="dummy-1_h1_3_9" style="fill:white; stroke-width:1; stroke:black; " class="clusterblast-orf"  />
</g>
<g id="a1_0010"  >
<polygon description="&lt;b&gt;HCX60_RS37090&lt;/b&gt;&lt;br&gt;DUF2975 domain-containing protein&lt;br&gt;Location: 8220534 - 8220043" points="74,85 79,80 79,80 79,90 79,90 74,85 " locus_tag="HCX60_RS37090" id="dummy-1_h1_3_10" style="fill:white; stroke-width:1; stroke:black; " class="clusterblast-orf"  />
</g>
<g id="a1_0011"  >
<polygon description="&lt;b&gt;HCX60_RS37085&lt;/b&gt;&lt;br&gt;SDR family oxidoreductase&lt;br&gt;Location: 8219886 - 8219131" points="81,85 86,80 90,80 90,90 86,90 81,85 " locus_tag="HCX60_RS37085" id="dummy-1_h1_3_11" style="fill:white; stroke-width:1; stroke:black; " class="clusterblast-orf"  />
</g>
<g id="a1_0012"  >
<polygon description="&lt;b&gt;HCX60_RS37080&lt;/b&gt;&lt;br&gt;MarR family transcriptional regulator&lt;br&gt;Location: 8219013 - 8218489" points="91,90 92,90 97,85 92,80 91,80 91,90 " locus_tag="HCX60_RS37080" id="dummy-1_h1_3_12" style="fill:white; stroke-width:1; stroke:black; " class="clusterblast-orf"  />
</g>
<g id="a1_0013"  >
<polygon description="&lt;b&gt;HCX60_RS37075&lt;/b&gt;&lt;br&gt;DUF1801 domain-containing protein&lt;br&gt;Location: 8218445 - 8218080" points="97,90 101,85 97,80 97,90 " locus_tag="HCX60_RS37075" id="dummy-1_h1_3_13" style="fill:white; stroke-width:1; stroke:black; " class="clusterblast-orf"  />
</g>
<g id="a1_0014"  >
<polygon description="&lt;b&gt;HCX60_RS37070&lt;/b&gt;&lt;br&gt;GNAT family N-acetyltransferase&lt;br&gt;Location: 8217980 - 8217525" points="102,85 107,80 108,80 108,90 107,90 102,85 " locus_tag="HCX60_RS37070" id="dummy-1_h1_3_14" style="fill:white; stroke-width:1; stroke:black; " class="clusterblast-orf"  />
</g>
<g id="a1_0015"  >
<polygon description="&lt;b&gt;HCX60_RS37065&lt;/b&gt;&lt;br&gt;LysE family translocator&lt;br&gt;Location: 8217424 - 8216753" points="109,85 114,80 116,80 116,90 114,90 109,85 " locus_tag="HCX60_RS37065" id="dummy-1_h1_3_15" style="fill:white; stroke-width:1; stroke:black; " class="clusterblast-orf"  />
</g>
<g id="a1_0016"  >
<polygon description="&lt;b&gt;HCX60_RS37060&lt;/b&gt;&lt;br&gt;ankyrin repeat domain-containing protein&lt;br&gt;Location: 8216706 - 8216260" points="117,85 122,80 122,80 122,90 122,90 117,85 " locus_tag="HCX60_RS37060" id="dummy-1_h1_3_16" style="fill:white; stroke-width:1; stroke:black; " class="clusterblast-orf"  />
</g>
<g id="a1_0017"  >
<polygon description="&lt;b&gt;HCX60_RS37055&lt;/b&gt;&lt;br&gt;carbohydrate-binding protein&lt;br&gt;Location: 8215919 - 8209125" points="126,90 197,90 202,85 197,80 126,80 126,90 " locus_tag="HCX60_RS37055" id="dummy-1_h1_3_17" style="fill:white; stroke-width:1; stroke:black; " class="clusterblast-orf"  />
</g>
<g id="a1_0018"  >
<polygon description="&lt;b&gt;HCX60_RS37050&lt;/b&gt;&lt;br&gt;hypothetical protein&lt;br&gt;Location: 8209060 - 8208425" points="203,85 208,80 210,80 210,90 208,90 203,85 " locus_tag="HCX60_RS37050" id="dummy-1_h1_3_18" style="fill:white; stroke-width:1; stroke:black; " class="clusterblast-orf"  />
</g>
<g id="a1_0019"  >
<polygon description="&lt;b&gt;HCX60_RS37045&lt;/b&gt;&lt;br&gt;hypothetical protein&lt;br&gt;Location: 8208428 - 8207865" points="210,85 215,80 216,80 216,90 215,90 210,85 " locus_tag="HCX60_RS37045" id="dummy-1_h1_3_19" style="fill:white; stroke-width:1; stroke:black; " class="clusterblast-orf"  />
</g>
<g id="a1_0020"  >
<polygon description="&lt;b&gt;HCX60_RS37040&lt;/b&gt;&lt;br&gt;MbtH family protein&lt;br&gt;Location: 8207855 - 8207655" points="216,85 218,80 218,90 216,85 " locus_tag="HCX60_RS37040" id="dummy-1_h1_3_20" style="fill:white; stroke-width:1; stroke:black; " class="clusterblast-orf"  />
</g>
<g id="a1_0021"  >
<polygon description="&lt;b&gt;HCX60_RS37035&lt;/b&gt;&lt;br&gt;hypothetical protein&lt;br&gt;Location: 8207608 - 8207402" points="219,85 221,80 221,90 219,85 " locus_tag="HCX60_RS37035" id="dummy-1_h1_3_21" style="fill:white; stroke-width:1; stroke:black; " class="clusterblast-orf"  />
</g>
<g id="a1_0022"  >
<polygon description="&lt;b&gt;HCX60_RS37030&lt;/b&gt;&lt;br&gt;acyl--CoA ligase&lt;br&gt;Location: 8207375 - 8205972" points="221,85 226,80 237,80 237,90 226,90 221,85 " locus_tag="HCX60_RS37030" id="dummy-1_h1_3_22" style="fill:white; stroke-width:1; stroke:black; " class="clusterblast-orf"  />
</g>
<g id="a1_0023"  >
<polygon description="&lt;b&gt;HCX60_RS37025&lt;/b&gt;&lt;br&gt;non-ribosomal peptide synthetase&lt;br&gt;Location: 8205564 - 8197606&lt;br&gt;&lt;br&gt;&lt;b&gt;BlastP hit with cds7016_8606&lt;/b&gt;&lt;br&gt;Percentage identity: 31&lt;br&gt;Percentage coverage: 98&lt;br&gt;BLAST bit score: 147&lt;br&gt;E-value: 3.2e-33" points="242,90 326,90 331,85 326,80 242,80 242,90 " locus_tag="HCX60_RS37025" id="dummy-1_h1_3_23" style="fill:#15d815; stroke-width:1; stroke:black; " class="clusterblast-orf"  />
</g>
<g id="a1_0024"  >
<polygon description="&lt;b&gt;HCX60_RS37020&lt;/b&gt;&lt;br&gt;non-ribosomal peptide synthetase&lt;br&gt;Location: 8197609 - 8184902&lt;br&gt;&lt;br&gt;&lt;b&gt;BlastP hit with cds5374_7003&lt;/b&gt;&lt;br&gt;Percentage identity: 36&lt;br&gt;Percentage coverage: 80&lt;br&gt;BLAST bit score: 242&lt;br&gt;E-value: 7.5e-62" points="331,90 469,90 474,85 469,80 331,80 331,90 " locus_tag="HCX60_RS37020" id="dummy-1_h1_3_24" style="fill:#15d815; stroke-width:1; stroke:black; " class="clusterblast-orf"  />
</g>
<g id="a1_0025"  >
<polygon description="&lt;b&gt;HCX60_RS37015&lt;/b&gt;&lt;br&gt;hypothetical protein&lt;br&gt;Location: 8184828 - 8184196" points="475,90 477,90 482,85 477,80 475,80 475,90 " locus_tag="HCX60_RS37015" id="dummy-1_h1_3_25" style="fill:white; stroke-width:1; stroke:black; " class="clusterblast-orf"  />
</g>
<g id="a1_0026"  >
<polygon description="&lt;b&gt;HCX60_RS37010&lt;/b&gt;&lt;br&gt;alpha/beta hydrolase&lt;br&gt;Location: 8184191 - 8183259" points="482,90 487,90 492,85 487,80 482,80 482,90 " locus_tag="HCX60_RS37010" id="dummy-1_h1_3_26" style="fill:white; stroke-width:1; stroke:black; " class="clusterblast-orf"  />
</g>
<g id="a1_0027"  >
<polygon description="&lt;b&gt;HCX60_RS37005&lt;/b&gt;&lt;br&gt;tryptophan 2,3-dioxygenase&lt;br&gt;Location: 8183262 - 8182399" points="492,90 497,90 502,85 497,80 492,80 492,90 " locus_tag="HCX60_RS37005" id="dummy-1_h1_3_27" style="fill:white; stroke-width:1; stroke:black; " class="clusterblast-orf"  />
</g>
<g id="a1_0028"  >
<polygon description="&lt;b&gt;HCX60_RS37000&lt;/b&gt;&lt;br&gt;kynureninase&lt;br&gt;Location: 8182314 - 8181052" points="503,90 512,90 517,85 512,80 503,80 503,90 " locus_tag="HCX60_RS37000" id="dummy-1_h1_3_28" style="fill:white; stroke-width:1; stroke:black; " class="clusterblast-orf"  />
</g>
<g id="a1_0029"  >
<polygon description="&lt;b&gt;HCX60_RS36995&lt;/b&gt;&lt;br&gt;methyltransferase domain-containing protein&lt;br&gt;Location: 8180987 - 8179947" points="518,90 524,90 529,85 524,80 518,80 518,90 " locus_tag="HCX60_RS36995" id="dummy-1_h1_3_29" style="fill:white; stroke-width:1; stroke:black; " class="clusterblast-orf"  />
</g>
<g id="a1_0030"  >
<polygon description="&lt;b&gt;HCX60_RS36990&lt;/b&gt;&lt;br&gt;cytochrome P450&lt;br&gt;Location: 8179845 - 8178619" points="531,90 539,90 544,85 539,80 531,80 531,90 " locus_tag="HCX60_RS36990" id="dummy-1_h1_3_30" style="fill:white; stroke-width:1; stroke:black; " class="clusterblast-orf"  />
</g>
<g id="a1_0031"  >
<polygon description="&lt;b&gt;HCX60_RS36985&lt;/b&gt;&lt;br&gt;ferredoxin&lt;br&gt;Location: 8178538 - 8178332" points="545,85 547,80 547,90 545,85 " locus_tag="HCX60_RS36985" id="dummy-1_h1_3_31" style="fill:white; stroke-width:1; stroke:black; " class="clusterblast-orf"  />
</g>
<g id="a1_0032"  >
<polygon description="&lt;b&gt;HCX60_RS36980&lt;/b&gt;&lt;br&gt;LmbU family transcriptional regulator&lt;br&gt;Location: 8178296 - 8177649" points="548,85 553,80 555,80 555,90 553,90 548,85 " locus_tag="HCX60_RS36980" id="dummy-1_h1_3_32" style="fill:white; stroke-width:1; stroke:black; " class="clusterblast-orf"  />
</g>
<g id="a1_0033"  >
<polygon description="&lt;b&gt;HCX60_RS36975&lt;/b&gt;&lt;br&gt;TetR/AcrR family transcriptional regulator&lt;br&gt;Location: 8177443 - 8176601" points="557,85 562,80 567,80 567,90 562,90 557,85 " locus_tag="HCX60_RS36975" id="dummy-1_h1_3_33" style="fill:white; stroke-width:1; stroke:black; " class="clusterblast-orf"  />
</g>
<g id="a1_0034"  >
<polygon description="&lt;b&gt;HCX60_RS36970&lt;/b&gt;&lt;br&gt;siderophore-interacting protein&lt;br&gt;Location: 8176486 - 8175602" points="568,90 573,90 578,85 573,80 568,80 568,90 " locus_tag="HCX60_RS36970" id="dummy-1_h1_3_34" style="fill:white; stroke-width:1; stroke:black; " class="clusterblast-orf"  />
</g>
<g id="a1_0035"  >
<polygon description="&lt;b&gt;HCX60_RS36965&lt;/b&gt;&lt;br&gt;ATP-binding cassette domain-containing protein&lt;br&gt;Location: 8175516 - 8174533" points="579,90 585,90 590,85 585,80 579,80 579,90 " locus_tag="HCX60_RS36965" id="dummy-1_h1_3_35" style="fill:white; stroke-width:1; stroke:black; " class="clusterblast-orf"  />
</g>
<g id="a1_0036"  >
<polygon description="&lt;b&gt;HCX60_RS36960&lt;/b&gt;&lt;br&gt;ABC transporter permease&lt;br&gt;Location: 8174543 - 8173776" points="590,90 594,90 599,85 594,80 590,80 590,90 " locus_tag="HCX60_RS36960" id="dummy-1_h1_3_36" style="fill:white; stroke-width:1; stroke:black; " class="clusterblast-orf"  />
</g>
<g id="a1_0037"  >
<polygon description="&lt;b&gt;HCX60_RS36955&lt;/b&gt;&lt;br&gt;excinuclease ABC subunit UvrA&lt;br&gt;Location: 8173637 - 8171376" points="600,90 621,90 626,85 621,80 600,80 600,90 " locus_tag="HCX60_RS36955" id="dummy-1_h1_3_37" style="fill:white; stroke-width:1; stroke:black; " class="clusterblast-orf"  />
</g>
<g id="a1_0038"  >
<polygon description="&lt;b&gt;HCX60_RS36950&lt;/b&gt;&lt;br&gt;protein kinase&lt;br&gt;Location: 8171310 - 8169211" points="626,85 631,80 650,80 650,90 631,90 626,85 " locus_tag="HCX60_RS36950" id="dummy-1_h1_3_38" style="fill:white; stroke-width:1; stroke:black; " class="clusterblast-orf"  />
</g>
<g id="a1_0039"  >
<polygon description="&lt;b&gt;HCX60_RS36945&lt;/b&gt;&lt;br&gt;alpha/beta hydrolase&lt;br&gt;Location: 8169212 - 8168220" points="650,90 656,90 661,85 656,80 650,80 650,90 " locus_tag="HCX60_RS36945" id="dummy-1_h1_3_39" style="fill:white; stroke-width:1; stroke:black; " class="clusterblast-orf"  />
</g>
<g id="a1_0040"  >
<polygon description="&lt;b&gt;HCX60_RS36940&lt;/b&gt;&lt;br&gt;hypothetical protein&lt;br&gt;Location: 8168133 - 8167915" points="662,85 664,80 664,90 662,85 " locus_tag="HCX60_RS36940" id="dummy-1_h1_3_40" style="fill:white; stroke-width:1; stroke:black; " class="clusterblast-orf"  />
</g>
<g id="a1_0041"  >
<polygon description="&lt;b&gt;HCX60_RS36935&lt;/b&gt;&lt;br&gt;hypothetical protein&lt;br&gt;Location: 8167617 - 8167414" points="668,90 670,85 668,80 668,90 " locus_tag="HCX60_RS36935" id="dummy-1_h1_3_41" style="fill:white; stroke-width:1; stroke:black; " class="clusterblast-orf"  />
</g>
<g id="a1_0042"  >
<polygon description="&lt;b&gt;HCX60_RS36930&lt;/b&gt;&lt;br&gt;SDR family oxidoreductase&lt;br&gt;Location: 8167393 - 8166500" points="670,90 675,90 680,85 675,80 670,80 670,90 " locus_tag="HCX60_RS36930" id="dummy-1_h1_3_42" style="fill:white; stroke-width:1; stroke:black; " class="clusterblast-orf"  />
</g>
<g id="a1_0043"  >
<polygon description="&lt;b&gt;HCX60_RS36925&lt;/b&gt;&lt;br&gt;polyisoprenoid-binding protein&lt;br&gt;Location: 8166340 - 8165789" points="682,85 687,80 688,80 688,90 687,90 682,85 " locus_tag="HCX60_RS36925" id="dummy-1_h1_3_43" style="fill:white; stroke-width:1; stroke:black; " class="clusterblast-orf"  />
</g>
<g id="a1_0044"  >
<polygon description="&lt;b&gt;HCX60_RS36920&lt;/b&gt;&lt;br&gt;hypothetical protein&lt;br&gt;Location: 8164910 - 8164509" points="698,90 698,90 703,85 698,80 698,80 698,90 " locus_tag="HCX60_RS36920" id="dummy-1_h1_3_44" style="fill:white; stroke-width:1; stroke:black; " class="clusterblast-orf"  />
</g>
<g id="a1_0045"  >
<polygon description="&lt;b&gt;HCX60_RS36915&lt;/b&gt;&lt;br&gt;diguanylate cyclase&lt;br&gt;Location: 8164171 - 8163545" points="706,85 711,80 713,80 713,90 711,90 706,85 " locus_tag="HCX60_RS36915" id="dummy-1_h1_3_45" style="fill:white; stroke-width:1; stroke:black; " class="clusterblast-orf"  />
</g>
<g id="a1_0046"  >
<polygon description="&lt;b&gt;HCX60_RS36910&lt;/b&gt;&lt;br&gt;EamA family transporter&lt;br&gt;Location: 8163487 - 8162525" points="714,85 719,80 725,80 725,90 719,90 714,85 " locus_tag="HCX60_RS36910" id="dummy-1_h1_3_46" style="fill:white; stroke-width:1; stroke:black; " class="clusterblast-orf"  />
</g>
<g id="a1_0047"  >
<polygon description="&lt;b&gt;HCX60_RS36905&lt;/b&gt;&lt;br&gt;TetR/AcrR family transcriptional regulator&lt;br&gt;Location: 8162528 - 8161917" points="725,85 730,80 732,80 732,90 730,90 725,85 " locus_tag="HCX60_RS36905" id="dummy-1_h1_3_47" style="fill:white; stroke-width:1; stroke:black; " class="clusterblast-orf"  />
</g>
<g id="a1_0048"  >
<polygon description="&lt;b&gt;HCX60_RS36900&lt;/b&gt;&lt;br&gt;DUF4259 domain-containing protein&lt;br&gt;Location: 8161867 - 8161337" points="732,85 737,80 738,80 738,90 737,90 732,85 " locus_tag="HCX60_RS36900" id="dummy-1_h1_3_48" style="fill:white; stroke-width:1; stroke:black; " class="clusterblast-orf"  />
</g>
<g id="a1_0049"  >
<polygon description="&lt;b&gt;HCX60_RS36895&lt;/b&gt;&lt;br&gt;sporulation protein&lt;br&gt;Location: 8161179 - 8160214" points="740,90 746,90 751,85 746,80 740,80 740,90 " locus_tag="HCX60_RS36895" id="dummy-1_h1_3_49" style="fill:white; stroke-width:1; stroke:black; " class="clusterblast-orf"  />
</g>
<g id="a1_0050"  >
<polygon description="&lt;b&gt;HCX60_RS36890&lt;/b&gt;&lt;br&gt;sensor histidine kinase KdpD&lt;br&gt;Location: 8160181 - 8157662" points="751,85 756,80 780,80 780,90 756,90 751,85 " locus_tag="HCX60_RS36890" id="dummy-1_h1_3_50" style="fill:white; stroke-width:1; stroke:black; " class="clusterblast-orf"  />
</g>
</svg>
