<svg xmlns:xlink="http://www.w3.org/1999/xlink" preserveAspectRatio="none" width="800" xmlns="http://www.w3.org/2000/svg" y="0" height="230" x="0" version="1.1" viewBox="0 0 800 230"  >
<g class="clusterblast-cluster" label="Query sequence"  >
<text y="20" x="5" class="clusterblast-acc"  >
Query sequence</text>
<line x2="778.0" x1="10" y1="35" y2="35" style="stroke:grey; stroke-width:1; "  />
<polygon description="&lt;b&gt;cds2_512&lt;/b&gt;&lt;br&gt;hypothetical protein&lt;br&gt;Location: 2 - 512" points="360,35 364,30 364,40 360,35 " locus_tag="cds2_512" id="dummy-1_q0_0_all" style="fill:#d81515; stroke-width:1; stroke:black; " class="clusterblast-orf"  />
<polygon description="&lt;b&gt;cds508_2206&lt;/b&gt;&lt;br&gt;Heterodimeric efflux ABC transporter, permease/ATP-binding subunit 1&lt;br&gt;Location: 508 - 2206" points="364,35 369,30 379,30 379,40 369,40 364,35 " locus_tag="cds508_2206" id="dummy-1_q1_0_all" style="fill:#d81515; stroke-width:1; stroke:black; " class="clusterblast-orf"  />
<polygon description="&lt;b&gt;cds2193_2316&lt;/b&gt;&lt;br&gt;hypothetical protein&lt;br&gt;Location: 2193 - 2316" points="378,35 379,30 379,40 378,35 " locus_tag="cds2193_2316" id="dummy-1_q2_0_all" style="fill:white; stroke-width:1; stroke:black; " class="clusterblast-orf"  />
<polygon description="&lt;b&gt;cds2369_6983&lt;/b&gt;&lt;br&gt;hypothetical protein&lt;br&gt;Location: 2369 - 6983" points="380,40 415,40 420,35 415,30 380,30 380,40 " locus_tag="cds2369_6983" id="dummy-1_q3_0_all" style="fill:#15d8d8; stroke-width:1; stroke:black; " class="clusterblast-orf"  />
</g>
<g description="NZ_SOAV01000001 (705630-797415): Streptomyces sp. BK208 Ga0307686 101, whole ... (7% of genes show similarity), NRPS,T1PKS,terpene" class="clusterblast-cluster" label="NZ_SOAV01000001"  >
<text y="70" x="5" class="clusterblast-acc"  >
<a xlink:href="https://antismash-db.secondarymetabolites.org/area.html?record=NZ_SOAV01000001&amp;start=705630&amp;end=797415" target="_blank">NZ_SOAV01000001 (705630-797415)</a>: Streptomyces sp. BK208 Ga0307686 101, whole ... (7% of genes show similarity), NRPS,T1PKS,terpene</text>
<line x2="778.0" x1="10" y1="85" y2="85" style="stroke:grey; stroke-width:1; "  />
</g>
<g id="a1_000"  >
<polygon description="&lt;b&gt;EV562_RS03580&lt;/b&gt;&lt;br&gt;purine/pyrimidine permease&lt;br&gt;Location: 797239 - 795905" points="0,90 6,90 11,85 6,80 0,80 0,90 " locus_tag="EV562_RS03580" id="dummy-1_h1_3_0" style="fill:white; stroke-width:1; stroke:black; " class="clusterblast-orf"  />
</g>
<g id="a1_001"  >
<polygon description="&lt;b&gt;EV562_RS03575&lt;/b&gt;&lt;br&gt;amidohydrolase family protein&lt;br&gt;Location: 795908 - 794481" points="11,90 18,90 23,85 18,80 11,80 11,90 " locus_tag="EV562_RS03575" id="dummy-1_h1_3_1" style="fill:white; stroke-width:1; stroke:black; " class="clusterblast-orf"  />
</g>
<g id="a1_002"  >
<polygon description="&lt;b&gt;EV562_RS03570&lt;/b&gt;&lt;br&gt;sulfite exporter TauE/SafE family protein&lt;br&gt;Location: 794484 - 793774" points="23,90 24,90 29,85 24,80 23,80 23,90 " locus_tag="EV562_RS03570" id="dummy-1_h1_3_2" style="fill:white; stroke-width:1; stroke:black; " class="clusterblast-orf"  />
</g>
<g id="a1_003"  >
<polygon description="&lt;b&gt;EV562_RS03565&lt;/b&gt;&lt;br&gt;substrate-binding domain-containing protein&lt;br&gt;Location: 793688 - 792651" points="30,85 35,80 39,80 39,90 35,90 30,85 " locus_tag="EV562_RS03565" id="dummy-1_h1_3_3" style="fill:white; stroke-width:1; stroke:black; " class="clusterblast-orf"  />
</g>
<g id="a1_004"  >
<polygon description="&lt;b&gt;EV562_RS03560&lt;/b&gt;&lt;br&gt;hypothetical protein&lt;br&gt;Location: 792444 - 792031" points="41,85 44,80 44,90 41,85 " locus_tag="EV562_RS03560" id="dummy-1_h1_3_4" style="fill:white; stroke-width:1; stroke:black; " class="clusterblast-orf"  />
</g>
<g id="a1_005"  >
<polygon description="&lt;b&gt;EV562_RS03555&lt;/b&gt;&lt;br&gt;DUF4397 domain-containing protein&lt;br&gt;Location: 791902 - 791069" points="45,85 50,80 52,80 52,90 50,90 45,85 " locus_tag="EV562_RS03555" id="dummy-1_h1_3_5" style="fill:white; stroke-width:1; stroke:black; " class="clusterblast-orf"  />
</g>
<g id="a1_006"  >
<polygon description="&lt;b&gt;EV562_RS03550&lt;/b&gt;&lt;br&gt;sigma-70 family RNA polymerase sigma factor&lt;br&gt;Location: 790958 - 790332" points="53,85 58,80 59,80 59,90 58,90 53,85 " locus_tag="EV562_RS03550" id="dummy-1_h1_3_6" style="fill:white; stroke-width:1; stroke:black; " class="clusterblast-orf"  />
</g>
<g id="a1_007"  >
<polygon description="&lt;b&gt;EV562_RS03545&lt;/b&gt;&lt;br&gt;MerR family transcriptional regulator&lt;br&gt;Location: 790168 - 789164" points="60,90 64,90 69,85 64,80 60,80 60,90 " locus_tag="EV562_RS03545" id="dummy-1_h1_3_7" style="fill:white; stroke-width:1; stroke:black; " class="clusterblast-orf"  />
</g>
<g id="a1_008"  >
<polygon description="&lt;b&gt;EV562_RS03540&lt;/b&gt;&lt;br&gt;FAD-dependent oxidoreductase&lt;br&gt;Location: 788932 - 787682" points="71,90 77,90 82,85 77,80 71,80 71,90 " locus_tag="EV562_RS03540" id="dummy-1_h1_3_8" style="fill:white; stroke-width:1; stroke:black; " class="clusterblast-orf"  />
</g>
<g id="a1_009"  >
<polygon description="&lt;b&gt;EV562_RS03535&lt;/b&gt;&lt;br&gt;FAD-dependent oxidoreductase&lt;br&gt;Location: 787261 - 785684" points="85,90 94,90 99,85 94,80 85,80 85,90 " locus_tag="EV562_RS03535" id="dummy-1_h1_3_9" style="fill:white; stroke-width:1; stroke:black; " class="clusterblast-orf"  />
</g>
<g id="a1_0010"  >
<polygon description="&lt;b&gt;EV562_RS03530&lt;/b&gt;&lt;br&gt;Rieske (2Fe-2S) protein&lt;br&gt;Location: 785564 - 784554" points="100,85 105,80 108,80 108,90 105,90 100,85 " locus_tag="EV562_RS03530" id="dummy-1_h1_3_10" style="fill:white; stroke-width:1; stroke:black; " class="clusterblast-orf"  />
</g>
<g id="a1_0011"  >
<polygon description="&lt;b&gt;EV562_RS03525&lt;/b&gt;&lt;br&gt;phytoene/squalene synthase family protein&lt;br&gt;Location: 784557 - 783562" points="108,85 113,80 117,80 117,90 113,90 108,85 " locus_tag="EV562_RS03525" id="dummy-1_h1_3_11" style="fill:white; stroke-width:1; stroke:black; " class="clusterblast-orf"  />
</g>
<g id="a1_0012"  >
<polygon description="&lt;b&gt;EV562_RS03520&lt;/b&gt;&lt;br&gt;phytoene desaturase&lt;br&gt;Location: 783575 - 782007" points="117,85 122,80 130,80 130,90 122,90 117,85 " locus_tag="EV562_RS03520" id="dummy-1_h1_3_12" style="fill:white; stroke-width:1; stroke:black; " class="clusterblast-orf"  />
</g>
<g id="a1_0013"  >
<polygon description="&lt;b&gt;EV562_RS03515&lt;/b&gt;&lt;br&gt;polyprenyl synthetase family protein&lt;br&gt;Location: 782010 - 780868" points="130,85 135,80 140,80 140,90 135,90 130,85 " locus_tag="EV562_RS03515" id="dummy-1_h1_3_13" style="fill:white; stroke-width:1; stroke:black; " class="clusterblast-orf"  />
</g>
<g id="a1_0014"  >
<polygon description="&lt;b&gt;EV562_RS03510&lt;/b&gt;&lt;br&gt;cryptochrome/photolyase family protein&lt;br&gt;Location: 780710 - 779214" points="141,85 146,80 154,80 154,90 146,90 141,85 " locus_tag="EV562_RS03510" id="dummy-1_h1_3_14" style="fill:white; stroke-width:1; stroke:black; " class="clusterblast-orf"  />
</g>
<g id="a1_0015"  >
<polygon description="&lt;b&gt;EV562_RS03505&lt;/b&gt;&lt;br&gt;SDR family oxidoreductase&lt;br&gt;Location: 778905 - 777982" points="157,85 162,80 165,80 165,90 162,90 157,85 " locus_tag="EV562_RS03505" id="dummy-1_h1_3_15" style="fill:white; stroke-width:1; stroke:black; " class="clusterblast-orf"  />
</g>
<g id="a1_0016"  >
<polygon description="&lt;b&gt;EV562_RS03500&lt;/b&gt;&lt;br&gt;amino acid adenylation domain-containing protein&lt;br&gt;Location: 777415 - 771848&lt;br&gt;&lt;br&gt;&lt;b&gt;BlastP hit with cds2369_6983&lt;/b&gt;&lt;br&gt;Percentage identity: 33&lt;br&gt;Percentage coverage: 103&lt;br&gt;BLAST bit score: 583&lt;br&gt;E-value: 5.1e-164" points="170,90 212,90 217,85 212,80 170,80 170,90 " locus_tag="EV562_RS03500" id="dummy-1_h1_3_16" style="fill:#15d8d8; stroke-width:1; stroke:black; " class="clusterblast-orf"  />
</g>
<g id="a1_0017"  >
<polygon description="&lt;b&gt;EV562_RS03495&lt;/b&gt;&lt;br&gt;NAD-dependent dehydratase&lt;br&gt;Location: 771848 - 770730" points="217,90 222,90 227,85 222,80 217,80 217,90 " locus_tag="EV562_RS03495" id="dummy-1_h1_3_17" style="fill:white; stroke-width:1; stroke:black; " class="clusterblast-orf"  />
</g>
<g id="a1_0018"  >
<polygon description="&lt;b&gt;EV562_RS03490&lt;/b&gt;&lt;br&gt;cupin domain-containing protein&lt;br&gt;Location: 770625 - 770236" points="228,90 231,85 228,80 228,90 " locus_tag="EV562_RS03490" id="dummy-1_h1_3_18" style="fill:white; stroke-width:1; stroke:black; " class="clusterblast-orf"  />
</g>
<g id="a1_0019"  >
<polygon description="&lt;b&gt;EV562_RS03485&lt;/b&gt;&lt;br&gt;radical SAM protein&lt;br&gt;Location: 770117 - 768498" points="232,90 241,90 246,85 241,80 232,80 232,90 " locus_tag="EV562_RS03485" id="dummy-1_h1_3_19" style="fill:white; stroke-width:1; stroke:black; " class="clusterblast-orf"  />
</g>
<g id="a1_0020"  >
<polygon description="&lt;b&gt;EV562_RS03480&lt;/b&gt;&lt;br&gt;ABC transporter ATP-binding protein&lt;br&gt;Location: 768192 - 766459&lt;br&gt;&lt;br&gt;&lt;b&gt;BlastP hit with cds508_2206&lt;/b&gt;&lt;br&gt;Percentage identity: 46&lt;br&gt;Percentage coverage: 101&lt;br&gt;BLAST bit score: 447&lt;br&gt;E-value: 2.1e-123" points="249,90 259,90 264,85 259,80 249,80 249,90 " locus_tag="EV562_RS03480" id="dummy-1_h1_3_20" style="fill:#d81515; stroke-width:1; stroke:black; " class="clusterblast-orf"  />
</g>
<g id="a1_0021"  >
<polygon description="&lt;b&gt;EV562_RS03475&lt;/b&gt;&lt;br&gt;ABC transporter ATP-binding protein&lt;br&gt;Location: 766462 - 764753&lt;br&gt;&lt;br&gt;&lt;b&gt;BlastP hit with cds2_512&lt;/b&gt;&lt;br&gt;Percentage identity: 48&lt;br&gt;Percentage coverage: 99&lt;br&gt;BLAST bit score: 136&lt;br&gt;E-value: 3.1e-30&lt;br&gt;&lt;br&gt;&lt;b&gt;BlastP hit with cds508_2206&lt;/b&gt;&lt;br&gt;Percentage identity: 35&lt;br&gt;Percentage coverage: 98&lt;br&gt;BLAST bit score: 255&lt;br&gt;E-value: 1.5e-65" points="264,90 273,90 278,85 273,80 264,80 264,90 " locus_tag="EV562_RS03475" id="dummy-1_h1_3_21" style="fill:#d81515; stroke-width:1; stroke:black; " class="clusterblast-orf"  />
</g>
<g id="a1_0022"  >
<polygon description="&lt;b&gt;EV562_RS03470&lt;/b&gt;&lt;br&gt;amino acid adenylation domain-containing protein&lt;br&gt;Location: 764735 - 760080&lt;br&gt;&lt;br&gt;&lt;b&gt;BlastP hit with cds2369_6983&lt;/b&gt;&lt;br&gt;Percentage identity: 40&lt;br&gt;Percentage coverage: 103&lt;br&gt;BLAST bit score: 837&lt;br&gt;E-value: 1.5e-240" points="278,90 313,90 318,85 313,80 278,80 278,90 " locus_tag="EV562_RS03470" id="dummy-1_h1_3_22" style="fill:#15d8d8; stroke-width:1; stroke:black; " class="clusterblast-orf"  />
</g>
<g id="a1_0023"  >
<polygon description="&lt;b&gt;EV562_RS03465&lt;/b&gt;&lt;br&gt;thioesterase&lt;br&gt;Location: 760008 - 759280" points="319,90 320,90 325,85 320,80 319,80 319,90 " locus_tag="EV562_RS03465" id="dummy-1_h1_3_23" style="fill:white; stroke-width:1; stroke:black; " class="clusterblast-orf"  />
</g>
<g id="a1_0024"  >
<polygon description="&lt;b&gt;EV562_RS03460&lt;/b&gt;&lt;br&gt;AMP-binding protein&lt;br&gt;Location: 759230 - 757641" points="326,90 334,90 339,85 334,80 326,80 326,90 " locus_tag="EV562_RS03460" id="dummy-1_h1_3_24" style="fill:white; stroke-width:1; stroke:black; " class="clusterblast-orf"  />
</g>
<g id="a1_0025"  >
<polygon description="&lt;b&gt;EV562_RS03455&lt;/b&gt;&lt;br&gt;TetR/AcrR family transcriptional regulator&lt;br&gt;Location: 757603 - 756938" points="340,85 345,80 345,80 345,90 345,90 340,85 " locus_tag="EV562_RS03455" id="dummy-1_h1_3_25" style="fill:white; stroke-width:1; stroke:black; " class="clusterblast-orf"  />
</g>
<g id="a1_0026"  >
<polygon description="&lt;b&gt;EV562_RS03450&lt;/b&gt;&lt;br&gt;TetR family transcriptional regulator&lt;br&gt;Location: 756770 - 756063" points="347,85 352,80 353,80 353,90 352,90 347,85 " locus_tag="EV562_RS03450" id="dummy-1_h1_3_26" style="fill:white; stroke-width:1; stroke:black; " class="clusterblast-orf"  />
</g>
<g id="a1_0027"  >
<polygon description="&lt;b&gt;EV562_RS03445&lt;/b&gt;&lt;br&gt;DHA2 family efflux MFS transporter permease subunit&lt;br&gt;Location: 755927 - 754404" points="354,90 362,90 367,85 362,80 354,80 354,90 " locus_tag="EV562_RS03445" id="dummy-1_h1_3_27" style="fill:white; stroke-width:1; stroke:black; " class="clusterblast-orf"  />
</g>
<g id="a1_0028"  >
<polygon description="&lt;b&gt;EV562_RS03440&lt;/b&gt;&lt;br&gt;salicylate synthase&lt;br&gt;Location: 753646 - 752270" points="374,90 380,90 385,85 380,80 374,80 374,90 " locus_tag="EV562_RS03440" id="dummy-1_h1_3_28" style="fill:white; stroke-width:1; stroke:black; " class="clusterblast-orf"  />
</g>
<g id="a1_0029"  >
<polygon description="&lt;b&gt;EV562_RS03435&lt;/b&gt;&lt;br&gt;AfsR/SARP family transcriptional regulator&lt;br&gt;Location: 752220 - 750241" points="386,90 398,90 403,85 398,80 386,80 386,90 " locus_tag="EV562_RS03435" id="dummy-1_h1_3_29" style="fill:white; stroke-width:1; stroke:black; " class="clusterblast-orf"  />
</g>
<g id="a1_0030"  >
<polygon description="&lt;b&gt;EV562_RS03430&lt;/b&gt;&lt;br&gt;cytochrome P450&lt;br&gt;Location: 750066 - 748879" points="404,85 409,80 415,80 415,90 409,90 404,85 " locus_tag="EV562_RS03430" id="dummy-1_h1_3_30" style="fill:white; stroke-width:1; stroke:black; " class="clusterblast-orf"  />
</g>
<g id="a1_0031"  >
<polygon description="&lt;b&gt;EV562_RS03425&lt;/b&gt;&lt;br&gt;alpha/beta hydrolase&lt;br&gt;Location: 748832 - 747882" points="415,85 420,80 423,80 423,90 420,90 415,85 " locus_tag="EV562_RS03425" id="dummy-1_h1_3_31" style="fill:white; stroke-width:1; stroke:black; " class="clusterblast-orf"  />
</g>
<g id="a1_0032"  >
<polygon description="&lt;b&gt;EV562_RS03420&lt;/b&gt;&lt;br&gt;pyridine nucleotide-disulfide oxidoreductase&lt;br&gt;Location: 747853 - 746453" points="423,85 428,80 435,80 435,90 428,90 423,85 " locus_tag="EV562_RS03420" id="dummy-1_h1_3_32" style="fill:white; stroke-width:1; stroke:black; " class="clusterblast-orf"  />
</g>
<g id="a1_0033"  >
<polygon description="&lt;b&gt;EV562_RS03415&lt;/b&gt;&lt;br&gt;long-chain fatty acid--CoA ligase&lt;br&gt;Location: 746397 - 745129" points="436,85 441,80 447,80 447,90 441,90 436,85 " locus_tag="EV562_RS03415" id="dummy-1_h1_3_33" style="fill:white; stroke-width:1; stroke:black; " class="clusterblast-orf"  />
</g>
<g id="a1_0034"  >
<polygon description="&lt;b&gt;EV562_RS03410&lt;/b&gt;&lt;br&gt;flavin reductase family protein&lt;br&gt;Location: 745132 - 744539" points="447,85 452,80 452,80 452,90 452,90 447,85 " locus_tag="EV562_RS03410" id="dummy-1_h1_3_34" style="fill:white; stroke-width:1; stroke:black; " class="clusterblast-orf"  />
</g>
<g id="a1_0035"  >
<polygon description="&lt;b&gt;EV562_RS03405&lt;/b&gt;&lt;br&gt;thioesterase&lt;br&gt;Location: 744537 - 743740" points="452,85 457,80 459,80 459,90 457,90 452,85 " locus_tag="EV562_RS03405" id="dummy-1_h1_3_35" style="fill:white; stroke-width:1; stroke:black; " class="clusterblast-orf"  />
</g>
<g id="a1_0036"  >
<polygon description="&lt;b&gt;EV562_RS03400&lt;/b&gt;&lt;br&gt;type I polyketide synthase&lt;br&gt;Location: 743743 - 741299" points="459,85 464,80 480,80 480,90 464,90 459,85 " locus_tag="EV562_RS03400" id="dummy-1_h1_3_36" style="fill:white; stroke-width:1; stroke:black; " class="clusterblast-orf"  />
</g>
<g id="a1_0037"  >
<polygon description="&lt;b&gt;EV562_RS03395&lt;/b&gt;&lt;br&gt;SDR family NAD(P)-dependent oxidoreductase&lt;br&gt;Location: 741287 - 732012" points="480,85 485,80 559,80 559,90 485,90 480,85 " locus_tag="EV562_RS03395" id="dummy-1_h1_3_37" style="fill:white; stroke-width:1; stroke:black; " class="clusterblast-orf"  />
</g>
<g id="a1_0038"  >
<polygon description="&lt;b&gt;EV562_RS03390&lt;/b&gt;&lt;br&gt;SDR family NAD(P)-dependent oxidoreductase&lt;br&gt;Location: 731939 - 725631" points="560,85 565,80 614,80 614,90 565,90 560,85 " locus_tag="EV562_RS03390" id="dummy-1_h1_3_38" style="fill:white; stroke-width:1; stroke:black; " class="clusterblast-orf"  />
</g>
<g id="a1_0039"  >
<polygon description="&lt;b&gt;EV562_RS03385&lt;/b&gt;&lt;br&gt;FAD-dependent oxidoreductase&lt;br&gt;Location: 725466 - 723805" points="616,85 621,80 630,80 630,90 621,90 616,85 " locus_tag="EV562_RS03385" id="dummy-1_h1_3_39" style="fill:white; stroke-width:1; stroke:black; " class="clusterblast-orf"  />
</g>
<g id="a1_0040"  >
<polygon description="&lt;b&gt;EV562_RS03380&lt;/b&gt;&lt;br&gt;LuxR family transcriptional regulator&lt;br&gt;Location: 723684 - 720829" points="631,85 636,80 655,80 655,90 636,90 631,85 " locus_tag="EV562_RS03380" id="dummy-1_h1_3_40" style="fill:white; stroke-width:1; stroke:black; " class="clusterblast-orf"  />
</g>
<g id="a1_0041"  >
<polygon description="&lt;b&gt;EV562_RS03375&lt;/b&gt;&lt;br&gt;cation/H(+) antiporter&lt;br&gt;Location: 720775 - 719516" points="656,85 661,80 667,80 667,90 661,90 656,85 " locus_tag="EV562_RS03375" id="dummy-1_h1_3_41" style="fill:white; stroke-width:1; stroke:black; " class="clusterblast-orf"  />
</g>
<g id="a1_0042"  >
<polygon description="&lt;b&gt;EV562_RS03370&lt;/b&gt;&lt;br&gt;NAD(P)/FAD-dependent oxidoreductase&lt;br&gt;Location: 719475 - 718192" points="667,85 672,80 678,80 678,90 672,90 667,85 " locus_tag="EV562_RS03370" id="dummy-1_h1_3_42" style="fill:white; stroke-width:1; stroke:black; " class="clusterblast-orf"  />
</g>
<g id="a1_0043"  >
<polygon description="&lt;b&gt;EV562_RS03360&lt;/b&gt;&lt;br&gt;hypothetical protein&lt;br&gt;Location: 717245 - 716664" points="686,85 691,80 691,80 691,90 691,90 686,85 " locus_tag="EV562_RS03360" id="dummy-1_h1_3_43" style="fill:white; stroke-width:1; stroke:black; " class="clusterblast-orf"  />
</g>
<g id="a1_0044"  >
<polygon description="&lt;b&gt;EV562_RS03355&lt;/b&gt;&lt;br&gt;DUF1918 domain-containing protein&lt;br&gt;Location: 716426 - 715532" points="693,90 696,90 701,85 696,80 693,80 693,90 " locus_tag="EV562_RS03355" id="dummy-1_h1_3_44" style="fill:white; stroke-width:1; stroke:black; " class="clusterblast-orf"  />
</g>
<g id="a1_0045"  >
<polygon description="&lt;b&gt;EV562_RS03350&lt;/b&gt;&lt;br&gt;universal stress protein&lt;br&gt;Location: 715320 - 714862" points="703,85 707,80 707,90 703,85 " locus_tag="EV562_RS03350" id="dummy-1_h1_3_45" style="fill:white; stroke-width:1; stroke:black; " class="clusterblast-orf"  />
</g>
<g id="a1_0046"  >
<polygon description="&lt;b&gt;EV562_RS03345&lt;/b&gt;&lt;br&gt;nicotinate phosphoribosyltransferase&lt;br&gt;Location: 714728 - 713415" points="708,85 713,80 719,80 719,90 713,90 708,85 " locus_tag="EV562_RS03345" id="dummy-1_h1_3_46" style="fill:white; stroke-width:1; stroke:black; " class="clusterblast-orf"  />
</g>
<g id="a1_0047"  >
<polygon description="&lt;b&gt;EV562_RS03340&lt;/b&gt;&lt;br&gt;hydrogenase expression/formation protein HypE&lt;br&gt;Location: 713149 - 712117" points="721,85 726,80 730,80 730,90 726,90 721,85 " locus_tag="EV562_RS03340" id="dummy-1_h1_3_47" style="fill:white; stroke-width:1; stroke:black; " class="clusterblast-orf"  />
</g>
<g id="a1_0048"  >
<polygon description="&lt;b&gt;EV562_RS03335&lt;/b&gt;&lt;br&gt;universal stress protein&lt;br&gt;Location: 711587 - 710706" points="735,90 737,90 742,85 737,80 735,80 735,90 " locus_tag="EV562_RS03335" id="dummy-1_h1_3_48" style="fill:white; stroke-width:1; stroke:black; " class="clusterblast-orf"  />
</g>
<g id="a1_0049"  >
<polygon description="&lt;b&gt;EV562_RS03330&lt;/b&gt;&lt;br&gt;response regulator transcription factor&lt;br&gt;Location: 710513 - 709821" points="744,90 745,90 750,85 745,80 744,80 744,90 " locus_tag="EV562_RS03330" id="dummy-1_h1_3_49" style="fill:white; stroke-width:1; stroke:black; " class="clusterblast-orf"  />
</g>
<g id="a1_0050"  >
<polygon description="&lt;b&gt;EV562_RS03325&lt;/b&gt;&lt;br&gt;GAF domain-containing sensor histidine kinase&lt;br&gt;Location: 709679 - 707925" points="751,90 761,90 766,85 761,80 751,80 751,90 " locus_tag="EV562_RS03325" id="dummy-1_h1_3_50" style="fill:white; stroke-width:1; stroke:black; " class="clusterblast-orf"  />
</g>
<g id="a1_0051"  >
<polygon description="&lt;b&gt;EV562_RS03315&lt;/b&gt;&lt;br&gt;universal stress protein&lt;br&gt;Location: 707268 - 706363" points="772,90 774,90 779,85 774,80 772,80 772,90 " locus_tag="EV562_RS03315" id="dummy-1_h1_3_51" style="fill:white; stroke-width:1; stroke:black; " class="clusterblast-orf"  />
</g>
</svg>
