<svg xmlns:xlink="http://www.w3.org/1999/xlink" preserveAspectRatio="none" width="800" xmlns="http://www.w3.org/2000/svg" y="0" height="230" x="0" version="1.1" viewBox="0 0 800 230"  >
<g class="clusterblast-cluster" label="Query sequence"  >
<text y="20" x="5" class="clusterblast-acc"  >
Query sequence</text>
<line x2="778.0" x1="10" y1="35" y2="35" style="stroke:grey; stroke-width:1; "  />
<polygon description="&lt;b&gt;cds2_512&lt;/b&gt;&lt;br&gt;hypothetical protein&lt;br&gt;Location: 2 - 512" points="364,35 368,30 368,40 364,35 " locus_tag="cds2_512" id="dummy-1_q0_0_all" style="fill:#d81515; stroke-width:1; stroke:black; " class="clusterblast-orf"  />
<polygon description="&lt;b&gt;cds508_2206&lt;/b&gt;&lt;br&gt;Heterodimeric efflux ABC transporter, permease/ATP-binding subunit 1&lt;br&gt;Location: 508 - 2206" points="368,35 373,30 380,30 380,40 373,40 368,35 " locus_tag="cds508_2206" id="dummy-1_q1_0_all" style="fill:#d81515; stroke-width:1; stroke:black; " class="clusterblast-orf"  />
<polygon description="&lt;b&gt;cds2193_2316&lt;/b&gt;&lt;br&gt;hypothetical protein&lt;br&gt;Location: 2193 - 2316" points="380,35 381,30 381,40 380,35 " locus_tag="cds2193_2316" id="dummy-1_q2_0_all" style="fill:white; stroke-width:1; stroke:black; " class="clusterblast-orf"  />
<polygon description="&lt;b&gt;cds2369_6983&lt;/b&gt;&lt;br&gt;hypothetical protein&lt;br&gt;Location: 2369 - 6983" points="381,40 410,40 415,35 410,30 381,30 381,40 " locus_tag="cds2369_6983" id="dummy-1_q3_0_all" style="fill:#15d8d8; stroke-width:1; stroke:black; " class="clusterblast-orf"  />
</g>
<g description="NZ_BBUY01000009 (141483-249853): Streptomyces sp. NBRC 110611, whole genome s... (7% of genes show similarity), NRPS,T1PKS" class="clusterblast-cluster" label="NZ_BBUY01000009"  >
<text y="70" x="5" class="clusterblast-acc"  >
<a xlink:href="https://antismash-db.secondarymetabolites.org/area.html?record=NZ_BBUY01000009&amp;start=141483&amp;end=249853" target="_blank">NZ_BBUY01000009 (141483-249853)</a>: Streptomyces sp. NBRC 110611, whole genome s... (7% of genes show similarity), NRPS,T1PKS</text>
<line x2="778.0" x1="10" y1="85" y2="85" style="stroke:grey; stroke-width:1; "  />
</g>
<g id="a1_000"  >
<polygon description="&lt;b&gt;AZE13_RS20855&lt;/b&gt;&lt;br&gt;sigma-70 family RNA polymerase sigma factor&lt;br&gt;Location: 249164 - 248067" points="0,85 5,80 8,80 8,90 5,90 0,85 " locus_tag="AZE13_RS20855" id="dummy-1_h1_1_0" style="fill:white; stroke-width:1; stroke:black; " class="clusterblast-orf"  />
</g>
<g id="a1_001"  >
<polygon description="&lt;b&gt;AZE13_RS20850&lt;/b&gt;&lt;br&gt;hypothetical protein&lt;br&gt;Location: 247989 - 247459" points="8,85 12,80 12,90 8,85 " locus_tag="AZE13_RS20850" id="dummy-1_h1_1_1" style="fill:white; stroke-width:1; stroke:black; " class="clusterblast-orf"  />
</g>
<g id="a1_002"  >
<polygon description="&lt;b&gt;AZE13_RS20845&lt;/b&gt;&lt;br&gt;peptidase&lt;br&gt;Location: 247399 - 247052" points="13,85 15,80 15,90 13,85 " locus_tag="AZE13_RS20845" id="dummy-1_h1_1_2" style="fill:white; stroke-width:1; stroke:black; " class="clusterblast-orf"  />
</g>
<g id="a1_003"  >
<polygon description="&lt;b&gt;AZE13_RS20840&lt;/b&gt;&lt;br&gt;PQQ-binding-like beta-propeller repeat protein&lt;br&gt;Location: 246912 - 244537" points="16,90 29,90 34,85 29,80 16,80 16,90 " locus_tag="AZE13_RS20840" id="dummy-1_h1_1_3" style="fill:white; stroke-width:1; stroke:black; " class="clusterblast-orf"  />
</g>
<g id="a1_004"  >
<polygon description="&lt;b&gt;AZE13_RS20835&lt;/b&gt;&lt;br&gt;hypothetical protein&lt;br&gt;Location: 244404 - 243910" points="35,85 38,80 38,90 35,85 " locus_tag="AZE13_RS20835" id="dummy-1_h1_1_4" style="fill:white; stroke-width:1; stroke:black; " class="clusterblast-orf"  />
</g>
<g id="a1_005"  >
<polygon description="&lt;b&gt;AZE13_RS20830&lt;/b&gt;&lt;br&gt;GTP cyclohydrolase II&lt;br&gt;Location: 243531 - 242881" points="41,85 46,80 46,80 46,90 46,90 41,85 " locus_tag="AZE13_RS20830" id="dummy-1_h1_1_5" style="fill:white; stroke-width:1; stroke:black; " class="clusterblast-orf"  />
</g>
<g id="a1_006"  >
<polygon description="&lt;b&gt;AZE13_RS20825&lt;/b&gt;&lt;br&gt;creatininase family protein&lt;br&gt;Location: 242591 - 241851" points="48,90 48,90 53,85 48,80 48,80 48,90 " locus_tag="AZE13_RS20825" id="dummy-1_h1_1_6" style="fill:white; stroke-width:1; stroke:black; " class="clusterblast-orf"  />
</g>
<g id="a1_007"  >
<polygon description="&lt;b&gt;AZE13_RS34220&lt;/b&gt;&lt;br&gt;RibD family protein&lt;br&gt;Location: 241780 - 240926" points="54,90 55,90 60,85 55,80 54,80 54,90 " locus_tag="AZE13_RS34220" id="dummy-1_h1_1_7" style="fill:white; stroke-width:1; stroke:black; " class="clusterblast-orf"  />
</g>
<g id="a1_008"  >
<polygon description="&lt;b&gt;AZE13_RS20815&lt;/b&gt;&lt;br&gt;flippase-like domain-containing protein&lt;br&gt;Location: 240988 - 239990" points="60,85 65,80 67,80 67,90 65,90 60,85 " locus_tag="AZE13_RS20815" id="dummy-1_h1_1_8" style="fill:white; stroke-width:1; stroke:black; " class="clusterblast-orf"  />
</g>
<g id="a1_009"  >
<polygon description="&lt;b&gt;AZE13_RS20810&lt;/b&gt;&lt;br&gt;class I SAM-dependent methyltransferase&lt;br&gt;Location: 239964 - 239035" points="67,85 72,80 74,80 74,90 72,90 67,85 " locus_tag="AZE13_RS20810" id="dummy-1_h1_1_9" style="fill:white; stroke-width:1; stroke:black; " class="clusterblast-orf"  />
</g>
<g id="a1_0010"  >
<polygon description="&lt;b&gt;AZE13_RS20805&lt;/b&gt;&lt;br&gt;glycosyltransferase family 4 protein&lt;br&gt;Location: 239107 - 238007" points="74,85 79,80 82,80 82,90 79,90 74,85 " locus_tag="AZE13_RS20805" id="dummy-1_h1_1_10" style="fill:white; stroke-width:1; stroke:black; " class="clusterblast-orf"  />
</g>
<g id="a1_0011"  >
<polygon description="&lt;b&gt;AZE13_RS20800&lt;/b&gt;&lt;br&gt;6-carboxytetrahydropterin synthase&lt;br&gt;Location: 237992 - 237594" points="82,85 85,80 85,90 82,85 " locus_tag="AZE13_RS20800" id="dummy-1_h1_1_11" style="fill:white; stroke-width:1; stroke:black; " class="clusterblast-orf"  />
</g>
<g id="a1_0012"  >
<polygon description="&lt;b&gt;AZE13_RS20795&lt;/b&gt;&lt;br&gt;zinc-binding alcohol dehydrogenase&lt;br&gt;Location: 237473 - 236544" points="86,85 91,80 93,80 93,90 91,90 86,85 " locus_tag="AZE13_RS20795" id="dummy-1_h1_1_12" style="fill:white; stroke-width:1; stroke:black; " class="clusterblast-orf"  />
</g>
<g id="a1_0013"  >
<polygon description="&lt;b&gt;AZE13_RS20790&lt;/b&gt;&lt;br&gt;CDP-alcohol phosphatidyltransferase family protein&lt;br&gt;Location: 236406 - 235675" points="94,90 94,90 99,85 94,80 94,80 94,90 " locus_tag="AZE13_RS20790" id="dummy-1_h1_1_13" style="fill:white; stroke-width:1; stroke:black; " class="clusterblast-orf"  />
</g>
<g id="a1_0014"  >
<polygon description="&lt;b&gt;AZE13_RS35730&lt;/b&gt;&lt;br&gt;ParB N-terminal domain-containing protein&lt;br&gt;Location: 235276 - 234281" points="102,90 104,90 109,85 104,80 102,80 102,90 " locus_tag="AZE13_RS35730" id="dummy-1_h1_1_14" style="fill:white; stroke-width:1; stroke:black; " class="clusterblast-orf"  />
</g>
<g id="a1_0015"  >
<polygon description="&lt;b&gt;AZE13_RS20780&lt;/b&gt;&lt;br&gt;ketoacyl-ACP synthase III&lt;br&gt;Location: 233391 - 232315" points="116,90 119,90 124,85 119,80 116,80 116,90 " locus_tag="AZE13_RS20780" id="dummy-1_h1_1_15" style="fill:white; stroke-width:1; stroke:black; " class="clusterblast-orf"  />
</g>
<g id="a1_0016"  >
<polygon description="&lt;b&gt;AZE13_RS20775&lt;/b&gt;&lt;br&gt;acyl carrier protein&lt;br&gt;Location: 232154 - 231921" points="125,90 127,85 125,80 125,90 " locus_tag="AZE13_RS20775" id="dummy-1_h1_1_16" style="fill:white; stroke-width:1; stroke:black; " class="clusterblast-orf"  />
</g>
<g id="a1_0017"  >
<polygon description="&lt;b&gt;AZE13_RS20770&lt;/b&gt;&lt;br&gt;beta-ketoacyl-[acyl-carrier-protein] synthase family protein&lt;br&gt;Location: 231921 - 230701" points="127,90 131,90 136,85 131,80 127,80 127,90 " locus_tag="AZE13_RS20770" id="dummy-1_h1_1_17" style="fill:white; stroke-width:1; stroke:black; " class="clusterblast-orf"  />
</g>
<g id="a1_0018"  >
<polygon description="&lt;b&gt;AZE13_RS20765&lt;/b&gt;&lt;br&gt;methylmalonyl-CoA epimerase&lt;br&gt;Location: 230559 - 230065" points="137,90 140,85 137,80 137,90 " locus_tag="AZE13_RS20765" id="dummy-1_h1_1_18" style="fill:white; stroke-width:1; stroke:black; " class="clusterblast-orf"  />
</g>
<g id="a1_0019"  >
<polygon description="&lt;b&gt;AZE13_RS20760&lt;/b&gt;&lt;br&gt;type I polyketide synthase&lt;br&gt;Location: 229853 - 221214" points="142,90 201,90 206,85 201,80 142,80 142,90 " locus_tag="AZE13_RS20760" id="dummy-1_h1_1_19" style="fill:white; stroke-width:1; stroke:black; " class="clusterblast-orf"  />
</g>
<g id="a1_0020"  >
<polygon description="&lt;b&gt;AZE13_RS20755&lt;/b&gt;&lt;br&gt;type I polyketide synthase&lt;br&gt;Location: 221211 - 216337" points="206,90 236,90 241,85 236,80 206,80 206,90 " locus_tag="AZE13_RS20755" id="dummy-1_h1_1_20" style="fill:white; stroke-width:1; stroke:black; " class="clusterblast-orf"  />
</g>
<g id="a1_0021"  >
<polygon description="&lt;b&gt;AZE13_RS20750&lt;/b&gt;&lt;br&gt;amino acid adenylation domain-containing protein&lt;br&gt;Location: 216274 - 212960&lt;br&gt;&lt;br&gt;&lt;b&gt;BlastP hit with cds2369_6983&lt;/b&gt;&lt;br&gt;Percentage identity: 31&lt;br&gt;Percentage coverage: 60&lt;br&gt;BLAST bit score: 288&lt;br&gt;E-value: 4.4e-75" points="242,90 261,90 266,85 261,80 242,80 242,90 " locus_tag="AZE13_RS20750" id="dummy-1_h1_1_21" style="fill:#15d8d8; stroke-width:1; stroke:black; " class="clusterblast-orf"  />
</g>
<g id="a1_0022"  >
<polygon description="&lt;b&gt;AZE13_RS20745&lt;/b&gt;&lt;br&gt;type I polyketide synthase&lt;br&gt;Location: 212825 - 207111" points="267,90 304,90 309,85 304,80 267,80 267,90 " locus_tag="AZE13_RS20745" id="dummy-1_h1_1_22" style="fill:white; stroke-width:1; stroke:black; " class="clusterblast-orf"  />
</g>
<g id="a1_0023"  >
<polygon description="&lt;b&gt;AZE13_RS20740&lt;/b&gt;&lt;br&gt;non-ribosomal peptide synthetase&lt;br&gt;Location: 207114 - 202444" points="309,90 339,90 344,85 339,80 309,80 309,90 " locus_tag="AZE13_RS20740" id="dummy-1_h1_1_23" style="fill:white; stroke-width:1; stroke:black; " class="clusterblast-orf"  />
</g>
<g id="a1_0024"  >
<polygon description="&lt;b&gt;AZE13_RS20735&lt;/b&gt;&lt;br&gt;non-ribosomal peptide synthetase&lt;br&gt;Location: 202379 - 197682" points="344,90 374,90 379,85 374,80 344,80 344,90 " locus_tag="AZE13_RS20735" id="dummy-1_h1_1_24" style="fill:white; stroke-width:1; stroke:black; " class="clusterblast-orf"  />
</g>
<g id="a1_0025"  >
<polygon description="&lt;b&gt;AZE13_RS20730&lt;/b&gt;&lt;br&gt;cyclic peptide export ABC transporter&lt;br&gt;Location: 197680 - 195989" points="379,90 386,90 391,85 386,80 379,80 379,90 " locus_tag="AZE13_RS20730" id="dummy-1_h1_1_25" style="fill:white; stroke-width:1; stroke:black; " class="clusterblast-orf"  />
</g>
<g id="a1_0026"  >
<polygon description="&lt;b&gt;AZE13_RS20725&lt;/b&gt;&lt;br&gt;thioesterase&lt;br&gt;Location: 195999 - 195244" points="391,90 392,90 397,85 392,80 391,80 391,90 " locus_tag="AZE13_RS20725" id="dummy-1_h1_1_26" style="fill:white; stroke-width:1; stroke:black; " class="clusterblast-orf"  />
</g>
<g id="a1_0027"  >
<polygon description="&lt;b&gt;AZE13_RS20720&lt;/b&gt;&lt;br&gt;non-ribosomal peptide synthetase&lt;br&gt;Location: 195163 - 192122" points="398,90 415,90 420,85 415,80 398,80 398,90 " locus_tag="AZE13_RS20720" id="dummy-1_h1_1_27" style="fill:white; stroke-width:1; stroke:black; " class="clusterblast-orf"  />
</g>
<g id="a1_0028"  >
<polygon description="&lt;b&gt;AZE13_RS20715&lt;/b&gt;&lt;br&gt;TauD/TfdA family dioxygenase&lt;br&gt;Location: 192074 - 191079" points="420,90 423,90 428,85 423,80 420,80 420,90 " locus_tag="AZE13_RS20715" id="dummy-1_h1_1_28" style="fill:white; stroke-width:1; stroke:black; " class="clusterblast-orf"  />
</g>
<g id="a1_0029"  >
<polygon description="&lt;b&gt;AZE13_RS20710&lt;/b&gt;&lt;br&gt;penicillin acylase family protein&lt;br&gt;Location: 190950 - 188521" points="429,90 441,90 446,85 441,80 429,80 429,90 " locus_tag="AZE13_RS20710" id="dummy-1_h1_1_29" style="fill:white; stroke-width:1; stroke:black; " class="clusterblast-orf"  />
</g>
<g id="a1_0030"  >
<polygon description="&lt;b&gt;AZE13_RS20705&lt;/b&gt;&lt;br&gt;response regulator transcription factor&lt;br&gt;Location: 188357 - 187788" points="448,90 452,85 448,80 448,90 " locus_tag="AZE13_RS20705" id="dummy-1_h1_1_30" style="fill:white; stroke-width:1; stroke:black; " class="clusterblast-orf"  />
</g>
<g id="a1_0031"  >
<polygon description="&lt;b&gt;AZE13_RS20700&lt;/b&gt;&lt;br&gt;hypothetical protein&lt;br&gt;Location: 187765 - 187466" points="452,85 454,80 454,90 452,85 " locus_tag="AZE13_RS20700" id="dummy-1_h1_1_31" style="fill:white; stroke-width:1; stroke:black; " class="clusterblast-orf"  />
</g>
<g id="a1_0032"  >
<polygon description="&lt;b&gt;AZE13_RS20695&lt;/b&gt;&lt;br&gt;carbamoyltransferase&lt;br&gt;Location: 187394 - 185595" points="455,85 460,80 468,80 468,90 460,90 455,85 " locus_tag="AZE13_RS20695" id="dummy-1_h1_1_32" style="fill:white; stroke-width:1; stroke:black; " class="clusterblast-orf"  />
</g>
<g id="a1_0033"  >
<polygon description="&lt;b&gt;AZE13_RS20690&lt;/b&gt;&lt;br&gt;alpha/beta hydrolase&lt;br&gt;Location: 185318 - 184371" points="470,90 472,90 477,85 472,80 470,80 470,90 " locus_tag="AZE13_RS20690" id="dummy-1_h1_1_33" style="fill:white; stroke-width:1; stroke:black; " class="clusterblast-orf"  />
</g>
<g id="a1_0034"  >
<polygon description="&lt;b&gt;AZE13_RS20685&lt;/b&gt;&lt;br&gt;salicylate synthase&lt;br&gt;Location: 184394 - 183066" points="477,85 482,80 487,80 487,90 482,90 477,85 " locus_tag="AZE13_RS20685" id="dummy-1_h1_1_34" style="fill:white; stroke-width:1; stroke:black; " class="clusterblast-orf"  />
</g>
<g id="a1_0035"  >
<polygon description="&lt;b&gt;AZE13_RS20680&lt;/b&gt;&lt;br&gt;asparagine synthase (glutamine-hydrolyzing)&lt;br&gt;Location: 182970 - 181120" points="487,85 492,80 501,80 501,90 492,90 487,85 " locus_tag="AZE13_RS20680" id="dummy-1_h1_1_35" style="fill:white; stroke-width:1; stroke:black; " class="clusterblast-orf"  />
</g>
<g id="a1_0036"  >
<polygon description="&lt;b&gt;AZE13_RS20675&lt;/b&gt;&lt;br&gt;AMP-binding protein&lt;br&gt;Location: 181063 - 179465" points="501,85 506,80 513,80 513,90 506,90 501,85 " locus_tag="AZE13_RS20675" id="dummy-1_h1_1_36" style="fill:white; stroke-width:1; stroke:black; " class="clusterblast-orf"  />
</g>
<g id="a1_0037"  >
<polygon description="&lt;b&gt;AZE13_RS20670&lt;/b&gt;&lt;br&gt;thioesterase&lt;br&gt;Location: 179291 - 178506" points="515,85 520,80 520,80 520,90 520,90 515,85 " locus_tag="AZE13_RS20670" id="dummy-1_h1_1_37" style="fill:white; stroke-width:1; stroke:black; " class="clusterblast-orf"  />
</g>
<g id="a1_0038"  >
<polygon description="&lt;b&gt;AZE13_RS20665&lt;/b&gt;&lt;br&gt;amino acid adenylation domain-containing protein&lt;br&gt;Location: 178509 - 173986&lt;br&gt;&lt;br&gt;&lt;b&gt;BlastP hit with cds2369_6983&lt;/b&gt;&lt;br&gt;Percentage identity: 40&lt;br&gt;Percentage coverage: 103&lt;br&gt;BLAST bit score: 852&lt;br&gt;E-value: 7.7e-245" points="520,85 525,80 554,80 554,90 525,90 520,85 " locus_tag="AZE13_RS20665" id="dummy-1_h1_1_38" style="fill:#15d8d8; stroke-width:1; stroke:black; " class="clusterblast-orf"  />
</g>
<g id="a1_0039"  >
<polygon description="&lt;b&gt;AZE13_RS20660&lt;/b&gt;&lt;br&gt;ABC transporter ATP-binding protein&lt;br&gt;Location: 173841 - 172132&lt;br&gt;&lt;br&gt;&lt;b&gt;BlastP hit with cds2_512&lt;/b&gt;&lt;br&gt;Percentage identity: 49&lt;br&gt;Percentage coverage: 99&lt;br&gt;BLAST bit score: 145&lt;br&gt;E-value: 5.1e-33&lt;br&gt;&lt;br&gt;&lt;b&gt;BlastP hit with cds508_2206&lt;/b&gt;&lt;br&gt;Percentage identity: 34&lt;br&gt;Percentage coverage: 102&lt;br&gt;BLAST bit score: 257&lt;br&gt;E-value: 4e-66" points="555,85 560,80 567,80 567,90 560,90 555,85 " locus_tag="AZE13_RS20660" id="dummy-1_h1_1_39" style="fill:#d81515; stroke-width:1; stroke:black; " class="clusterblast-orf"  />
</g>
<g id="a1_0040"  >
<polygon description="&lt;b&gt;AZE13_RS20655&lt;/b&gt;&lt;br&gt;ABC transporter ATP-binding protein&lt;br&gt;Location: 172132 - 170255&lt;br&gt;&lt;br&gt;&lt;b&gt;BlastP hit with cds508_2206&lt;/b&gt;&lt;br&gt;Percentage identity: 48&lt;br&gt;Percentage coverage: 100&lt;br&gt;BLAST bit score: 482&lt;br&gt;E-value: 4.5e-134" points="567,85 572,80 581,80 581,90 572,90 567,85 " locus_tag="AZE13_RS20655" id="dummy-1_h1_1_40" style="fill:#d81515; stroke-width:1; stroke:black; " class="clusterblast-orf"  />
</g>
<g id="a1_0041"  >
<polygon description="&lt;b&gt;AZE13_RS20650&lt;/b&gt;&lt;br&gt;saccharopine dehydrogenase NADP-binding domain-containing protein&lt;br&gt;Location: 169905 - 168736" points="584,85 589,80 592,80 592,90 589,90 584,85 " locus_tag="AZE13_RS20650" id="dummy-1_h1_1_41" style="fill:white; stroke-width:1; stroke:black; " class="clusterblast-orf"  />
</g>
<g id="a1_0042"  >
<polygon description="&lt;b&gt;AZE13_RS20645&lt;/b&gt;&lt;br&gt;amino acid adenylation domain-containing protein&lt;br&gt;Location: 168739 - 163217&lt;br&gt;&lt;br&gt;&lt;b&gt;BlastP hit with cds2369_6983&lt;/b&gt;&lt;br&gt;Percentage identity: 33&lt;br&gt;Percentage coverage: 98&lt;br&gt;BLAST bit score: 573&lt;br&gt;E-value: 6.9e-161" points="592,85 597,80 633,80 633,90 597,90 592,85 " locus_tag="AZE13_RS20645" id="dummy-1_h1_1_42" style="fill:#15d8d8; stroke-width:1; stroke:black; " class="clusterblast-orf"  />
</g>
<g id="a1_0043"  >
<polygon description="&lt;b&gt;AZE13_RS20640&lt;/b&gt;&lt;br&gt;fatty acyl-AMP ligase&lt;br&gt;Location: 163196 - 161484" points="633,85 638,80 646,80 646,90 638,90 633,85 " locus_tag="AZE13_RS20640" id="dummy-1_h1_1_43" style="fill:white; stroke-width:1; stroke:black; " class="clusterblast-orf"  />
</g>
<g id="a1_0044"  >
<polygon description="&lt;b&gt;AZE13_RS20635&lt;/b&gt;&lt;br&gt;aminotransferase class III-fold pyridoxal phosphate-dependent enzyme&lt;br&gt;Location: 161487 - 158758" points="646,85 651,80 666,80 666,90 651,90 646,85 " locus_tag="AZE13_RS20635" id="dummy-1_h1_1_44" style="fill:white; stroke-width:1; stroke:black; " class="clusterblast-orf"  />
</g>
<g id="a1_0045"  >
<polygon description="&lt;b&gt;AZE13_RS20630&lt;/b&gt;&lt;br&gt;acyl carrier protein&lt;br&gt;Location: 158761 - 158501" points="666,85 668,80 668,90 666,85 " locus_tag="AZE13_RS20630" id="dummy-1_h1_1_45" style="fill:white; stroke-width:1; stroke:black; " class="clusterblast-orf"  />
</g>
<g id="a1_0046"  >
<polygon description="&lt;b&gt;AZE13_RS20625&lt;/b&gt;&lt;br&gt;4'-phosphopantetheinyl transferase superfamily protein&lt;br&gt;Location: 158474 - 157908" points="668,85 672,80 672,90 668,85 " locus_tag="AZE13_RS20625" id="dummy-1_h1_1_46" style="fill:white; stroke-width:1; stroke:black; " class="clusterblast-orf"  />
</g>
<g id="a1_0047"  >
<polygon description="&lt;b&gt;AZE13_RS20620&lt;/b&gt;&lt;br&gt;hypothetical protein&lt;br&gt;Location: 157897 - 157643" points="672,85 674,80 674,90 672,85 " locus_tag="AZE13_RS20620" id="dummy-1_h1_1_47" style="fill:white; stroke-width:1; stroke:black; " class="clusterblast-orf"  />
</g>
<g id="a1_0048"  >
<polygon description="&lt;b&gt;AZE13_RS20615&lt;/b&gt;&lt;br&gt;alpha/beta hydrolase&lt;br&gt;Location: 157650 - 156781" points="674,85 679,80 680,80 680,90 679,90 674,85 " locus_tag="AZE13_RS20615" id="dummy-1_h1_1_48" style="fill:white; stroke-width:1; stroke:black; " class="clusterblast-orf"  />
</g>
<g id="a1_0049"  >
<polygon description="&lt;b&gt;AZE13_RS20610&lt;/b&gt;&lt;br&gt;nitronate monooxygenase&lt;br&gt;Location: 156794 - 155790" points="680,85 685,80 688,80 688,90 685,90 680,85 " locus_tag="AZE13_RS20610" id="dummy-1_h1_1_49" style="fill:white; stroke-width:1; stroke:black; " class="clusterblast-orf"  />
</g>
<g id="a1_0050"  >
<polygon description="&lt;b&gt;AZE13_RS20605&lt;/b&gt;&lt;br&gt;hypothetical protein&lt;br&gt;Location: 155790 - 154963" points="688,85 693,80 694,80 694,90 693,90 688,85 " locus_tag="AZE13_RS20605" id="dummy-1_h1_1_50" style="fill:white; stroke-width:1; stroke:black; " class="clusterblast-orf"  />
</g>
<g id="a1_0051"  >
<polygon description="&lt;b&gt;AZE13_RS20600&lt;/b&gt;&lt;br&gt;acetyl xylan esterase&lt;br&gt;Location: 154966 - 154721" points="694,85 696,80 696,90 694,85 " locus_tag="AZE13_RS20600" id="dummy-1_h1_1_51" style="fill:white; stroke-width:1; stroke:black; " class="clusterblast-orf"  />
</g>
<g id="a1_0052"  >
<polygon description="&lt;b&gt;AZE13_RS20595&lt;/b&gt;&lt;br&gt;diiron oxygenase&lt;br&gt;Location: 154724 - 153846" points="696,85 701,80 702,80 702,90 701,90 696,85 " locus_tag="AZE13_RS20595" id="dummy-1_h1_1_52" style="fill:white; stroke-width:1; stroke:black; " class="clusterblast-orf"  />
</g>
<g id="a1_0053"  >
<polygon description="&lt;b&gt;AZE13_RS20590&lt;/b&gt;&lt;br&gt;hypothetical protein&lt;br&gt;Location: 153810 - 152935" points="702,85 707,80 709,80 709,90 707,90 702,85 " locus_tag="AZE13_RS20590" id="dummy-1_h1_1_53" style="fill:white; stroke-width:1; stroke:black; " class="clusterblast-orf"  />
</g>
<g id="a1_0054"  >
<polygon description="&lt;b&gt;AZE13_RS20585&lt;/b&gt;&lt;br&gt;MFS transporter&lt;br&gt;Location: 152566 - 151097" points="711,85 716,80 722,80 722,90 716,90 711,85 " locus_tag="AZE13_RS20585" id="dummy-1_h1_1_54" style="fill:white; stroke-width:1; stroke:black; " class="clusterblast-orf"  />
</g>
<g id="a1_0055"  >
<polygon description="&lt;b&gt;AZE13_RS20580&lt;/b&gt;&lt;br&gt;TetR/AcrR family transcriptional regulator&lt;br&gt;Location: 150926 - 150180" points="724,90 724,90 729,85 724,80 724,80 724,90 " locus_tag="AZE13_RS20580" id="dummy-1_h1_1_55" style="fill:white; stroke-width:1; stroke:black; " class="clusterblast-orf"  />
</g>
<g id="a1_0056"  >
<polygon description="&lt;b&gt;AZE13_RS20575&lt;/b&gt;&lt;br&gt;hypothetical protein&lt;br&gt;Location: 150049 - 149828" points="730,85 732,80 732,90 730,85 " locus_tag="AZE13_RS20575" id="dummy-1_h1_1_56" style="fill:white; stroke-width:1; stroke:black; " class="clusterblast-orf"  />
</g>
<g id="a1_0057"  >
<polygon description="&lt;b&gt;AZE13_RS20570&lt;/b&gt;&lt;br&gt;helix-turn-helix domain-containing protein&lt;br&gt;Location: 149657 - 148815" points="733,90 734,90 739,85 734,80 733,80 733,90 " locus_tag="AZE13_RS20570" id="dummy-1_h1_1_57" style="fill:white; stroke-width:1; stroke:black; " class="clusterblast-orf"  />
</g>
<g id="a1_0058"  >
<polygon description="&lt;b&gt;AZE13_RS20565&lt;/b&gt;&lt;br&gt;DUF397 domain-containing protein&lt;br&gt;Location: 148833 - 148471" points="739,90 742,85 739,80 739,90 " locus_tag="AZE13_RS20565" id="dummy-1_h1_1_58" style="fill:white; stroke-width:1; stroke:black; " class="clusterblast-orf"  />
</g>
<g id="a1_0059"  >
<polygon description="&lt;b&gt;AZE13_RS20560&lt;/b&gt;&lt;br&gt;dihydroxy-acid dehydratase&lt;br&gt;Location: 148239 - 146389" points="743,85 748,80 757,80 757,90 748,90 743,85 " locus_tag="AZE13_RS20560" id="dummy-1_h1_1_59" style="fill:white; stroke-width:1; stroke:black; " class="clusterblast-orf"  />
</g>
<g id="a1_0060"  >
<polygon description="&lt;b&gt;AZE13_RS20555&lt;/b&gt;&lt;br&gt;sugar phosphate isomerase/epimerase&lt;br&gt;Location: 146205 - 145381" points="758,85 763,80 764,80 764,90 763,90 758,85 " locus_tag="AZE13_RS20555" id="dummy-1_h1_1_60" style="fill:white; stroke-width:1; stroke:black; " class="clusterblast-orf"  />
</g>
<g id="a1_0061"  >
<polygon description="&lt;b&gt;AZE13_RS20550&lt;/b&gt;&lt;br&gt;Ppx/GppA family phosphatase&lt;br&gt;Location: 145268 - 144327" points="765,85 770,80 772,80 772,90 770,90 765,85 " locus_tag="AZE13_RS20550" id="dummy-1_h1_1_61" style="fill:white; stroke-width:1; stroke:black; " class="clusterblast-orf"  />
</g>
<g id="a1_0062"  >
<polygon description="&lt;b&gt;AZE13_RS20545&lt;/b&gt;&lt;br&gt;hypothetical protein&lt;br&gt;Location: 144176 - 143340" points="773,90 775,90 780,85 775,80 773,80 773,90 " locus_tag="AZE13_RS20545" id="dummy-1_h1_1_62" style="fill:white; stroke-width:1; stroke:black; " class="clusterblast-orf"  />
</g>
</svg>
