<svg xmlns:xlink="http://www.w3.org/1999/xlink" preserveAspectRatio="none" width="800" xmlns="http://www.w3.org/2000/svg" y="0" height="50" x="0" version="1.1" viewBox="0 0 800 50"  >
<g class="clusterblast-cluster" label="Query sequence"  >
<text y="20" x="5" class="clusterblast-acc"  >
Query sequence</text>
<line x2="778.0" x1="10" y1="35" y2="35" style="stroke:grey; stroke-width:1; "  />
<polygon description="&lt;b&gt;cds0_132&lt;/b&gt;&lt;br&gt;Flavodoxin reductases (ferredoxin-NADPH reductases) family 1; Vanillate O-demethylase oxidoreductase (EC 1.14.13.-)&lt;br&gt;Location: 0 - 132" points="0,35 4,30 4,40 0,35 " locus_tag="cds0_132" id="knownclusterblast-1_q0_0_all" style="fill:white; stroke-width:1; stroke:black; " class="clusterblast-orf"  />
<polygon description="&lt;b&gt;cds486_16809&lt;/b&gt;&lt;br&gt;Siderophore biosynthesis non-ribosomal peptide synthetase modules&lt;br&gt;Location: 486 - 16809" points="14,40 489,40 494,35 489,30 14,30 14,40 " locus_tag="cds486_16809" id="knownclusterblast-1_q1_0_all" style="fill:white; stroke-width:1; stroke:black; " class="clusterblast-orf"  />
<polygon description="&lt;b&gt;cds16813_17080&lt;/b&gt;&lt;br&gt;hypothetical protein&lt;br&gt;Location: 16813 - 17080" points="494,35 499,30 502,30 502,40 499,40 494,35 " locus_tag="cds16813_17080" id="knownclusterblast-1_q2_0_all" style="fill:white; stroke-width:1; stroke:black; " class="clusterblast-orf"  />
<polygon description="&lt;b&gt;cds17248_18643&lt;/b&gt;&lt;br&gt;Probable NreB protein&lt;br&gt;Location: 17248 - 18643" points="507,40 543,40 548,35 543,30 507,30 507,40 " locus_tag="cds17248_18643" id="knownclusterblast-1_q3_0_all" style="fill:white; stroke-width:1; stroke:black; " class="clusterblast-orf"  />
<polygon description="&lt;b&gt;cds18690_18924&lt;/b&gt;&lt;br&gt;hypothetical protein&lt;br&gt;Location: 18690 - 18924" points="549,35 554,30 556,30 556,40 554,40 549,35 " locus_tag="cds18690_18924" id="knownclusterblast-1_q4_0_all" style="fill:white; stroke-width:1; stroke:black; " class="clusterblast-orf"  />
<polygon description="&lt;b&gt;cds18926_20195&lt;/b&gt;&lt;br&gt;hypothetical protein&lt;br&gt;Location: 18926 - 20195" points="556,35 561,30 594,30 594,40 561,40 556,35 " locus_tag="cds18926_20195" id="knownclusterblast-1_q5_0_all" style="fill:white; stroke-width:1; stroke:black; " class="clusterblast-orf"  />
<polygon description="&lt;b&gt;cds20218_21073&lt;/b&gt;&lt;br&gt;hypothetical protein&lt;br&gt;Location: 20218 - 21073" points="594,35 599,30 619,30 619,40 599,40 594,35 " locus_tag="cds20218_21073" id="knownclusterblast-1_q6_0_all" style="fill:white; stroke-width:1; stroke:black; " class="clusterblast-orf"  />
<polygon description="&lt;b&gt;cds21140_22682&lt;/b&gt;&lt;br&gt;hypothetical protein&lt;br&gt;Location: 21140 - 22682" points="621,35 626,30 667,30 667,40 626,40 621,35 " locus_tag="cds21140_22682" id="knownclusterblast-1_q7_0_all" style="fill:white; stroke-width:1; stroke:black; " class="clusterblast-orf"  />
<polygon description="&lt;b&gt;cds22724_23939&lt;/b&gt;&lt;br&gt;hypothetical protein&lt;br&gt;Location: 22724 - 23939" points="668,35 673,30 704,30 704,40 673,40 668,35 " locus_tag="cds22724_23939" id="knownclusterblast-1_q8_0_all" style="fill:white; stroke-width:1; stroke:black; " class="clusterblast-orf"  />
<polygon description="&lt;b&gt;cds23935_25468&lt;/b&gt;&lt;br&gt;hypothetical protein&lt;br&gt;Location: 23935 - 25468" points="704,35 709,30 749,30 749,40 709,40 704,35 " locus_tag="cds23935_25468" id="knownclusterblast-1_q9_0_all" style="fill:white; stroke-width:1; stroke:black; " class="clusterblast-orf"  />
<polygon description="&lt;b&gt;cds25464_26139&lt;/b&gt;&lt;br&gt;HAD-superfamily hydrolase subfamily IA, variant 3&lt;br&gt;Location: 25464 - 26139" points="749,35 754,30 768,30 768,40 754,40 749,35 " locus_tag="cds25464_26139" id="knownclusterblast-1_q10_0_all" style="fill:white; stroke-width:1; stroke:black; " class="clusterblast-orf"  />
<polygon description="&lt;b&gt;cds26135_26525&lt;/b&gt;&lt;br&gt;A-factor biosynthesis protein AfsA&lt;br&gt;Location: 26135 - 26525" points="768,35 773,30 780,30 780,40 773,40 768,35 " locus_tag="cds26135_26525" id="knownclusterblast-1_q11_0_all" style="fill:white; stroke-width:1; stroke:black; " class="clusterblast-orf"  />
</g>
</svg>
