<svg xmlns:xlink="http://www.w3.org/1999/xlink" preserveAspectRatio="none" width="800" xmlns="http://www.w3.org/2000/svg" y="0" height="230" x="0" version="1.1" viewBox="0 0 800 230"  >
<g class="clusterblast-cluster" label="Query sequence"  >
<text y="20" x="5" class="clusterblast-acc"  >
Query sequence</text>
<line x2="778.0" x1="10" y1="35" y2="35" style="stroke:grey; stroke-width:1; "  />
<polygon description="&lt;b&gt;cds2_248&lt;/b&gt;&lt;br&gt;hypothetical protein&lt;br&gt;Location: 2 - 248" points="0,35 5,30 16,30 16,40 5,40 0,35 " locus_tag="cds2_248" id="dummy-1_q0_0_all" style="fill:white; stroke-width:1; stroke:black; " class="clusterblast-orf"  />
<polygon description="&lt;b&gt;cds537_1536&lt;/b&gt;&lt;br&gt;Putative transmembrane protein&lt;br&gt;Location: 537 - 1536" points="35,40 95,40 100,35 95,30 35,30 35,40 " locus_tag="cds537_1536" id="dummy-1_q1_0_all" style="fill:white; stroke-width:1; stroke:black; " class="clusterblast-orf"  />
<polygon description="&lt;b&gt;cds1678_2611&lt;/b&gt;&lt;br&gt;hypothetical protein&lt;br&gt;Location: 1678 - 2611" points="109,40 164,40 169,35 164,30 109,30 109,40 " locus_tag="cds1678_2611" id="dummy-1_q2_0_all" style="fill:white; stroke-width:1; stroke:black; " class="clusterblast-orf"  />
<polygon description="&lt;b&gt;cds2690_2792&lt;/b&gt;&lt;br&gt;hypothetical protein&lt;br&gt;Location: 2690 - 2792" points="174,35 179,30 181,30 181,40 179,40 174,35 " locus_tag="cds2690_2792" id="dummy-1_q3_0_all" style="fill:white; stroke-width:1; stroke:black; " class="clusterblast-orf"  />
<polygon description="&lt;b&gt;cds2803_2923&lt;/b&gt;&lt;br&gt;hypothetical protein&lt;br&gt;Location: 2803 - 2923" points="182,35 187,30 189,30 189,40 187,40 182,35 " locus_tag="cds2803_2923" id="dummy-1_q4_0_all" style="fill:white; stroke-width:1; stroke:black; " class="clusterblast-orf"  />
<polygon description="&lt;b&gt;cds2960_3053&lt;/b&gt;&lt;br&gt;hypothetical protein&lt;br&gt;Location: 2960 - 3053" points="192,35 197,30 198,30 198,40 197,40 192,35 " locus_tag="cds2960_3053" id="dummy-1_q5_0_all" style="fill:white; stroke-width:1; stroke:black; " class="clusterblast-orf"  />
<polygon description="&lt;b&gt;cds3114_3330&lt;/b&gt;&lt;br&gt;MbtH-like NRPS chaperone&lt;br&gt;Location: 3114 - 3330" points="202,35 207,30 216,30 216,40 207,40 202,35 " locus_tag="cds3114_3330" id="dummy-1_q6_0_all" style="fill:#d81515; stroke-width:1; stroke:black; " class="clusterblast-orf"  />
<polygon description="&lt;b&gt;cds3412_12040&lt;/b&gt;&lt;br&gt;Polyketide synthase modules and related proteins&lt;br&gt;Location: 3412 - 12040" points="221,35 226,30 780,30 780,40 226,40 221,35 " locus_tag="cds3412_12040" id="dummy-1_q7_0_all" style="fill:#15d8d8; stroke-width:1; stroke:black; " class="clusterblast-orf"  />
</g>
<g description="BGC0001085_c1: teleocidin B1 (50% of genes show similarity), NRP + Terpene" class="clusterblast-cluster" label="BGC0001085"  >
<text y="70" x="5" class="clusterblast-acc"  >
<a xlink:href="https://mibig.secondarymetabolites.org/go/BGC0001085/1" target="_blank">BGC0001085</a>:                                                                    teleocidin B1 (50% of genes show similarity), NRP + Terpene</text>
<line x2="778.0" x1="10" y1="85" y2="85" style="stroke:grey; stroke-width:1; "  />
</g>
<g id="a1_000"  >
<polygon description="&lt;b&gt;BAP27940.1&lt;/b&gt;&lt;br&gt;cytochrome P-450&lt;br&gt;Location: 1 - 1197" points="45,85 50,80 122,80 122,90 50,90 45,85 " locus_tag="BAP27940.1" id="dummy-1_h1_1_0" style="fill:white; stroke-width:1; stroke:black; " class="clusterblast-orf"  />
</g>
<g id="a1_001"  >
<polygon description="&lt;b&gt;BAP27941.1&lt;/b&gt;&lt;br&gt;MbtH&lt;br&gt;Location: 1194 - 1424&lt;br&gt;&lt;br&gt;&lt;b&gt;BlastP hit with cds3114_3330&lt;/b&gt;&lt;br&gt;Percentage identity: 62&lt;br&gt;Percentage coverage: 92&lt;br&gt;BLAST bit score: 100&lt;br&gt;E-value: 1.3e-21" points="122,85 127,80 137,80 137,90 127,90 122,85 " locus_tag="BAP27941.1" id="dummy-1_h1_1_1" style="fill:#d81515; stroke-width:1; stroke:black; " class="clusterblast-orf"  />
</g>
<g id="a1_002"  >
<polygon description="&lt;b&gt;BAP27942.1&lt;/b&gt;&lt;br&gt;nonribosomal peptide synthetase&lt;br&gt;Location: 1497 - 9014&lt;br&gt;&lt;br&gt;&lt;b&gt;BlastP hit with cds3412_12040&lt;/b&gt;&lt;br&gt;Percentage identity: 47&lt;br&gt;Percentage coverage: 40&lt;br&gt;BLAST bit score: 852&lt;br&gt;E-value: 1.4e-246" points="142,85 147,80 629,80 629,90 147,90 142,85 " locus_tag="BAP27942.1" id="dummy-1_h1_1_2" style="fill:#15d8d8; stroke-width:1; stroke:black; " class="clusterblast-orf"  />
</g>
<g id="a1_003"  >
<polygon description="&lt;b&gt;BAP27943.1&lt;/b&gt;&lt;br&gt;tryptophan dimethylallyltransferase&lt;br&gt;Location: 9471 - 10646" points="658,90 729,90 734,85 729,80 658,80 658,90 " locus_tag="BAP27943.1" id="dummy-1_h1_1_3" style="fill:white; stroke-width:1; stroke:black; " class="clusterblast-orf"  />
</g>
</svg>
