<svg xmlns:xlink="http://www.w3.org/1999/xlink" preserveAspectRatio="none" width="800" xmlns="http://www.w3.org/2000/svg" y="0" height="50" x="0" version="1.1" viewBox="0 0 800 50"  >
<g class="clusterblast-cluster" label="Query sequence"  >
<text y="20" x="5" class="clusterblast-acc"  >
Query sequence</text>
<line x2="778.0" x1="10" y1="35" y2="35" style="stroke:grey; stroke-width:1; "  />
<polygon description="&lt;b&gt;cds0_159&lt;/b&gt;&lt;br&gt;SSU ribosomal protein S14p (S29e) @ SSU ribosomal protein S14p (S29e), zinc-dependent&lt;br&gt;Location: 0 - 159" points="0,35 5,30 6,30 6,40 5,40 0,35 " locus_tag="cds0_159" id="subclusterblast-1_q0_0_all" style="fill:white; stroke-width:1; stroke:black; " class="clusterblast-orf"  />
<polygon description="&lt;b&gt;cds163_727&lt;/b&gt;&lt;br&gt;LSU ribosomal protein L5p (L11e)&lt;br&gt;Location: 163 - 727" points="6,35 11,30 27,30 27,40 11,40 6,35 " locus_tag="cds163_727" id="subclusterblast-1_q1_0_all" style="fill:white; stroke-width:1; stroke:black; " class="clusterblast-orf"  />
<polygon description="&lt;b&gt;cds726_1041&lt;/b&gt;&lt;br&gt;LSU ribosomal protein L24p (L26e)&lt;br&gt;Location: 726 - 1041" points="27,35 32,30 38,30 38,40 32,40 27,35 " locus_tag="cds726_1041" id="subclusterblast-1_q2_0_all" style="fill:white; stroke-width:1; stroke:black; " class="clusterblast-orf"  />
<polygon description="&lt;b&gt;cds1043_1412&lt;/b&gt;&lt;br&gt;LSU ribosomal protein L14p (L23e)&lt;br&gt;Location: 1043 - 1412" points="38,35 43,30 52,30 52,40 43,40 38,35 " locus_tag="cds1043_1412" id="subclusterblast-1_q3_0_all" style="fill:white; stroke-width:1; stroke:black; " class="clusterblast-orf"  />
<polygon description="&lt;b&gt;cds1769_3842&lt;/b&gt;&lt;br&gt;Metallopeptidase&lt;br&gt;Location: 1769 - 3842" points="65,40 137,40 142,35 137,30 65,30 65,40 " locus_tag="cds1769_3842" id="subclusterblast-1_q4_0_all" style="fill:white; stroke-width:1; stroke:black; " class="clusterblast-orf"  />
<polygon description="&lt;b&gt;cds3947_6005&lt;/b&gt;&lt;br&gt;Metallopeptidase&lt;br&gt;Location: 3947 - 6005" points="146,40 217,40 222,35 217,30 146,30 146,40 " locus_tag="cds3947_6005" id="subclusterblast-1_q5_0_all" style="fill:white; stroke-width:1; stroke:black; " class="clusterblast-orf"  />
<polygon description="&lt;b&gt;cds6026_6380&lt;/b&gt;&lt;br&gt;YjbR family protein&lt;br&gt;Location: 6026 - 6380" points="223,35 228,30 236,30 236,40 228,40 223,35 " locus_tag="cds6026_6380" id="subclusterblast-1_q6_0_all" style="fill:white; stroke-width:1; stroke:black; " class="clusterblast-orf"  />
<polygon description="&lt;b&gt;cds6439_6661&lt;/b&gt;&lt;br&gt;hypothetical protein&lt;br&gt;Location: 6439 - 6661" points="238,40 241,40 246,35 241,30 238,30 238,40 " locus_tag="cds6439_6661" id="subclusterblast-1_q7_0_all" style="fill:white; stroke-width:1; stroke:black; " class="clusterblast-orf"  />
<polygon description="&lt;b&gt;cds6741_7845&lt;/b&gt;&lt;br&gt;hypothetical protein&lt;br&gt;Location: 6741 - 7845" points="249,40 285,40 290,35 285,30 249,30 249,40 " locus_tag="cds6741_7845" id="subclusterblast-1_q8_0_all" style="fill:white; stroke-width:1; stroke:black; " class="clusterblast-orf"  />
<polygon description="&lt;b&gt;cds8007_8268&lt;/b&gt;&lt;br&gt;hypothetical protein&lt;br&gt;Location: 8007 - 8268" points="296,40 300,40 305,35 300,30 296,30 296,40 " locus_tag="cds8007_8268" id="subclusterblast-1_q9_0_all" style="fill:white; stroke-width:1; stroke:black; " class="clusterblast-orf"  />
<polygon description="&lt;b&gt;cds8305_10285&lt;/b&gt;&lt;br&gt;Glycosyltransferase&lt;br&gt;Location: 8305 - 10285" points="307,40 375,40 380,35 375,30 307,30 307,40 " locus_tag="cds8305_10285" id="subclusterblast-1_q10_0_all" style="fill:white; stroke-width:1; stroke:black; " class="clusterblast-orf"  />
<polygon description="&lt;b&gt;cds10281_12408&lt;/b&gt;&lt;br&gt;Glycogen debranching enzyme&lt;br&gt;Location: 10281 - 12408" points="380,40 453,40 458,35 453,30 380,30 380,40 " locus_tag="cds10281_12408" id="subclusterblast-1_q11_0_all" style="fill:white; stroke-width:1; stroke:black; " class="clusterblast-orf"  />
<polygon description="&lt;b&gt;cds12480_15939&lt;/b&gt;&lt;br&gt;Peptide synthetase MbtE @ Siderophore biosynthesis non-ribosomal peptide synthetase modules&lt;br&gt;Location: 12480 - 15939" points="461,35 466,30 589,30 589,40 466,40 461,35 " locus_tag="cds12480_15939" id="subclusterblast-1_q12_0_all" style="fill:white; stroke-width:1; stroke:black; " class="clusterblast-orf"  />
<polygon description="&lt;b&gt;cds15995_16649&lt;/b&gt;&lt;br&gt;Lysine N-acyltransferase MbtK (EC 2.3.1.-) @ Siderophore synthetase small component, acetyltransferase&lt;br&gt;Location: 15995 - 16649" points="591,40 610,40 615,35 610,30 591,30 591,40 " locus_tag="cds15995_16649" id="subclusterblast-1_q13_0_all" style="fill:white; stroke-width:1; stroke:black; " class="clusterblast-orf"  />
<polygon description="&lt;b&gt;cds16797_18081&lt;/b&gt;&lt;br&gt;L-lysine 6-monooxygenase (EC 1.14.13.59) in siderophore biosynthesis =&gt; MbtG&lt;br&gt;Location: 16797 - 18081" points="621,35 626,30 668,30 668,40 626,40 621,35 " locus_tag="cds16797_18081" id="subclusterblast-1_q14_0_all" style="fill:white; stroke-width:1; stroke:black; " class="clusterblast-orf"  />
<polygon description="&lt;b&gt;cds18277_18730&lt;/b&gt;&lt;br&gt;hypothetical protein&lt;br&gt;Location: 18277 - 18730" points="675,40 687,40 692,35 687,30 675,30 675,40 " locus_tag="cds18277_18730" id="subclusterblast-1_q15_0_all" style="fill:white; stroke-width:1; stroke:black; " class="clusterblast-orf"  />
<polygon description="&lt;b&gt;cds18822_19761&lt;/b&gt;&lt;br&gt;Pseudouridine synthase (EC 4.2.1.70), PA2043 type&lt;br&gt;Location: 18822 - 19761" points="695,40 725,40 730,35 725,30 695,30 695,40 " locus_tag="cds18822_19761" id="subclusterblast-1_q16_0_all" style="fill:white; stroke-width:1; stroke:black; " class="clusterblast-orf"  />
<polygon description="&lt;b&gt;cds19817_20582&lt;/b&gt;&lt;br&gt;Integral membrane protein&lt;br&gt;Location: 19817 - 20582" points="732,40 755,40 760,35 755,30 732,30 732,40 " locus_tag="cds19817_20582" id="subclusterblast-1_q17_0_all" style="fill:white; stroke-width:1; stroke:black; " class="clusterblast-orf"  />
<polygon description="&lt;b&gt;cds20697_21108&lt;/b&gt;&lt;br&gt;hypothetical protein&lt;br&gt;Location: 20697 - 21108" points="765,40 775,40 780,35 775,30 765,30 765,40 " locus_tag="cds20697_21108" id="subclusterblast-1_q18_0_all" style="fill:white; stroke-width:1; stroke:black; " class="clusterblast-orf"  />
</g>
</svg>
