<svg y="0" version="1.1" preserveAspectRatio="none" xmlns="http://www.w3.org/2000/svg" height="230" x="0" viewBox="0 0 800 230" xmlns:xlink="http://www.w3.org/1999/xlink" width="800"  >
<g class="clusterblast-cluster" label="Query sequence"  >
<text y="20" class="clusterblast-acc" x="5"  >
Query sequence</text>
<line x2="778.0" y2="35" y1="35" x1="10" style="stroke:grey; stroke-width:1; "  />
<polygon description="&lt;b&gt;cds0_168&lt;/b&gt;&lt;br&gt;hypothetical protein&lt;br&gt;Location: 0 - 168" locus_tag="cds0_168" points="341,35 344,30 344,40 341,35 " style="fill:white; stroke:black; stroke-width:1; " id="dummy-1_q0_0_all" class="clusterblast-orf"  />
<polygon description="&lt;b&gt;cds178_1195&lt;/b&gt;&lt;br&gt;Putative oxidoreductase YncB&lt;br&gt;Location: 178 - 1195" locus_tag="cds178_1195" points="345,35 350,30 364,30 364,40 350,40 345,35 " style="fill:#d81515; stroke:black; stroke-width:1; " id="dummy-1_q1_0_all" class="clusterblast-orf"  />
<polygon description="&lt;b&gt;cds1191_2403&lt;/b&gt;&lt;br&gt;Probable nikkomycin biosynthesis protein, carboxylase&lt;br&gt;Location: 1191 - 2403" locus_tag="cds1191_2403" points="364,35 369,30 387,30 387,40 369,40 364,35 " style="fill:#15d863; stroke:black; stroke-width:1; " id="dummy-1_q2_0_all" class="clusterblast-orf"  />
<polygon description="&lt;b&gt;cds2399_3359&lt;/b&gt;&lt;br&gt;3-oxoacyl-[acyl-carrier-protein] synthase (EC 2.3.1.41)&lt;br&gt;Location: 2399 - 3359" locus_tag="cds2399_3359" points="387,35 392,30 406,30 406,40 392,40 387,35 " style="fill:#1563d8; stroke:black; stroke-width:1; " id="dummy-1_q3_0_all" class="clusterblast-orf"  />
<polygon description="&lt;b&gt;cds3346_4210&lt;/b&gt;&lt;br&gt;dioxygenase, TauD/TfdA family&lt;br&gt;Location: 3346 - 4210" locus_tag="cds3346_4210" points="405,35 410,30 422,30 422,40 410,40 405,35 " style="fill:#b115d8; stroke:black; stroke-width:1; " id="dummy-1_q4_0_all" class="clusterblast-orf"  />
<polygon description="&lt;b&gt;cds4246_5056&lt;/b&gt;&lt;br&gt;5-aminolevulinate synthase (EC 2.3.1.37)&lt;br&gt;Location: 4246 - 5056" locus_tag="cds4246_5056" points="423,35 428,30 438,30 438,40 428,40 423,35 " style="fill:#b1d815; stroke:black; stroke-width:1; " id="dummy-1_q5_0_all" class="clusterblast-orf"  />
</g>
<g description="NZ_JABUMN010000014 (20184-61153): Burkholderia cepacia strain 2424 NODE 14 le... (12% of genes show similarity), PKS-like" class="clusterblast-cluster" label="NZ_JABUMN010000014"  >
<text y="70" class="clusterblast-acc" x="5"  >
<a xlink:href="https://antismash-db.secondarymetabolites.org/area.html?record=NZ_JABUMN010000014&amp;start=20184&amp;end=61153" target="_blank">NZ_JABUMN010000014 (20184-61153)</a>: Burkholderia cepacia strain 2424 NODE 14 le... (12% of genes show similarity), PKS-like</text>
<line x2="778.0" y2="85" y1="85" x1="10" style="stroke:grey; stroke-width:1; "  />
</g>
<g id="a1_000"  >
<polygon description="&lt;b&gt;HT749_RS19140&lt;/b&gt;&lt;br&gt;WD40 repeat domain-containing protein&lt;br&gt;Location: 60979 - 60023" locus_tag="HT749_RS19140" points="0,90 13,90 18,85 13,80 0,80 0,90 " style="fill:white; stroke:black; stroke-width:1; " id="dummy-1_h1_9_0" class="clusterblast-orf"  />
</g>
<g id="a1_001"  >
<polygon description="&lt;b&gt;HT749_RS19135&lt;/b&gt;&lt;br&gt;EAL domain-containing protein&lt;br&gt;Location: 60002 - 57489" locus_tag="HT749_RS19135" points="18,85 23,80 66,80 66,90 23,90 18,85 " style="fill:white; stroke:black; stroke-width:1; " id="dummy-1_h1_9_1" class="clusterblast-orf"  />
</g>
<g id="a1_002"  >
<polygon description="&lt;b&gt;HT749_RS19130&lt;/b&gt;&lt;br&gt;porin&lt;br&gt;Location: 56827 - 55661" locus_tag="HT749_RS19130" points="79,85 84,80 101,80 101,90 84,90 79,85 " style="fill:white; stroke:black; stroke-width:1; " id="dummy-1_h1_9_2" class="clusterblast-orf"  />
</g>
<g id="a1_003"  >
<polygon description="&lt;b&gt;HT749_RS19125&lt;/b&gt;&lt;br&gt;hypothetical protein&lt;br&gt;Location: 53917 - 53702" locus_tag="HT749_RS19125" points="135,90 139,85 135,80 135,90 " style="fill:white; stroke:black; stroke-width:1; " id="dummy-1_h1_9_3" class="clusterblast-orf"  />
</g>
<g id="a1_004"  >
<polygon description="&lt;b&gt;HT749_RS19120&lt;/b&gt;&lt;br&gt;hypothetical protein&lt;br&gt;Location: 53556 - 52486" locus_tag="HT749_RS19120" points="142,90 157,90 162,85 157,80 142,80 142,90 " style="fill:white; stroke:black; stroke-width:1; " id="dummy-1_h1_9_4" class="clusterblast-orf"  />
</g>
<g id="a1_005"  >
<polygon description="&lt;b&gt;HT749_RS19115&lt;/b&gt;&lt;br&gt;hypothetical protein&lt;br&gt;Location: 52242 - 51820" locus_tag="HT749_RS19115" points="167,85 172,80 175,80 175,90 172,90 167,85 " style="fill:white; stroke:black; stroke-width:1; " id="dummy-1_h1_9_5" class="clusterblast-orf"  />
</g>
<g id="a1_006"  >
<polygon description="&lt;b&gt;HT749_RS19110&lt;/b&gt;&lt;br&gt;helix-turn-helix transcriptional regulator&lt;br&gt;Location: 51701 - 51348" locus_tag="HT749_RS19110" points="177,85 182,80 184,80 184,90 182,90 177,85 " style="fill:white; stroke:black; stroke-width:1; " id="dummy-1_h1_9_6" class="clusterblast-orf"  />
</g>
<g id="a1_007"  >
<polygon description="&lt;b&gt;HT749_RS19105&lt;/b&gt;&lt;br&gt;NADPH:quinone reductase&lt;br&gt;Location: 51204 - 50176" locus_tag="HT749_RS19105" points="187,90 202,90 207,85 202,80 187,80 187,90 " style="fill:white; stroke:black; stroke-width:1; " id="dummy-1_h1_9_7" class="clusterblast-orf"  />
</g>
<g id="a1_008"  >
<polygon description="&lt;b&gt;HT749_RS19100&lt;/b&gt;&lt;br&gt;DUF1330 domain-containing protein&lt;br&gt;Location: 50033 - 49743" locus_tag="HT749_RS19100" points="209,85 214,80 215,80 215,90 214,90 209,85 " style="fill:white; stroke:black; stroke-width:1; " id="dummy-1_h1_9_8" class="clusterblast-orf"  />
</g>
<g id="a1_009"  >
<polygon description="&lt;b&gt;HT749_RS19095&lt;/b&gt;&lt;br&gt;aldo/keto reductase&lt;br&gt;Location: 49648 - 48593" locus_tag="HT749_RS19095" points="217,85 222,80 237,80 237,90 222,90 217,85 " style="fill:white; stroke:black; stroke-width:1; " id="dummy-1_h1_9_9" class="clusterblast-orf"  />
</g>
<g id="a1_0010"  >
<polygon description="&lt;b&gt;HT749_RS19090&lt;/b&gt;&lt;br&gt;flavodoxin family protein&lt;br&gt;Location: 48510 - 47920" locus_tag="HT749_RS19090" points="239,85 244,80 250,80 250,90 244,90 239,85 " style="fill:white; stroke:black; stroke-width:1; " id="dummy-1_h1_9_10" class="clusterblast-orf"  />
</g>
<g id="a1_0011"  >
<polygon description="&lt;b&gt;HT749_RS19085&lt;/b&gt;&lt;br&gt;LysR family transcriptional regulator&lt;br&gt;Location: 47801 - 46896" locus_tag="HT749_RS19085" points="252,90 264,90 269,85 264,80 252,80 252,90 " style="fill:white; stroke:black; stroke-width:1; " id="dummy-1_h1_9_11" class="clusterblast-orf"  />
</g>
<g id="a1_0012"  >
<polygon description="&lt;b&gt;HT749_RS19080&lt;/b&gt;&lt;br&gt;MFS transporter&lt;br&gt;Location: 46631 - 45429" locus_tag="HT749_RS19080" points="275,85 280,80 298,80 298,90 280,90 275,85 " style="fill:white; stroke:black; stroke-width:1; " id="dummy-1_h1_9_12" class="clusterblast-orf"  />
</g>
<g id="a1_0013"  >
<polygon description="&lt;b&gt;HT749_RS19075&lt;/b&gt;&lt;br&gt;alanine--glyoxylate aminotransferase family protein&lt;br&gt;Location: 45436 - 44231" locus_tag="HT749_RS19075" points="297,85 302,80 321,80 321,90 302,90 297,85 " style="fill:white; stroke:black; stroke-width:1; " id="dummy-1_h1_9_13" class="clusterblast-orf"  />
</g>
<g id="a1_0014"  >
<polygon description="&lt;b&gt;HT749_RS19070&lt;/b&gt;&lt;br&gt;phenylacetate--CoA ligase family protein&lt;br&gt;Location: 44234 - 42357" locus_tag="HT749_RS19070" points="320,85 325,80 356,80 356,90 325,90 320,85 " style="fill:white; stroke:black; stroke-width:1; " id="dummy-1_h1_9_14" class="clusterblast-orf"  />
</g>
<g id="a1_0015"  >
<polygon description="&lt;b&gt;HT749_RS19065&lt;/b&gt;&lt;br&gt;hypothetical protein&lt;br&gt;Location: 42310 - 41150&lt;br&gt;&lt;br&gt;&lt;b&gt;BlastP hit with cds1191_2403&lt;/b&gt;&lt;br&gt;Percentage identity: 42&lt;br&gt;Percentage coverage: 98&lt;br&gt;BLAST bit score: 299&lt;br&gt;E-value: 5e-79" locus_tag="HT749_RS19065" points="357,85 362,80 380,80 380,90 362,90 357,85 " style="fill:#15d863; stroke:black; stroke-width:1; " id="dummy-1_h1_9_15" class="clusterblast-orf"  />
</g>
<g id="a1_0016"  >
<polygon description="&lt;b&gt;HT749_RS19060&lt;/b&gt;&lt;br&gt;3-oxoacyl-ACP synthase&lt;br&gt;Location: 41153 - 40185&lt;br&gt;&lt;br&gt;&lt;b&gt;BlastP hit with cds2399_3359&lt;/b&gt;&lt;br&gt;Percentage identity: 44&lt;br&gt;Percentage coverage: 98&lt;br&gt;BLAST bit score: 258&lt;br&gt;E-value: 7.8e-67" locus_tag="HT749_RS19060" points="380,85 385,80 398,80 398,90 385,90 380,85 " style="fill:#1563d8; stroke:black; stroke-width:1; " id="dummy-1_h1_9_16" class="clusterblast-orf"  />
</g>
<g id="a1_0017"  >
<polygon description="&lt;b&gt;HT749_RS19055&lt;/b&gt;&lt;br&gt;TauD/TfdA family dioxygenase&lt;br&gt;Location: 40188 - 39355&lt;br&gt;&lt;br&gt;&lt;b&gt;BlastP hit with cds3346_4210&lt;/b&gt;&lt;br&gt;Percentage identity: 53&lt;br&gt;Percentage coverage: 97&lt;br&gt;BLAST bit score: 335&lt;br&gt;E-value: 4.5e-90" locus_tag="HT749_RS19055" points="398,85 403,80 414,80 414,90 403,90 398,85 " style="fill:#b115d8; stroke:black; stroke-width:1; " id="dummy-1_h1_9_17" class="clusterblast-orf"  />
</g>
<g id="a1_0018"  >
<polygon description="&lt;b&gt;HT749_RS19050&lt;/b&gt;&lt;br&gt;5-aminolevulinate synthase&lt;br&gt;Location: 39337 - 38147&lt;br&gt;&lt;br&gt;&lt;b&gt;BlastP hit with cds4246_5056&lt;/b&gt;&lt;br&gt;Percentage identity: 54&lt;br&gt;Percentage coverage: 99&lt;br&gt;BLAST bit score: 297&lt;br&gt;E-value: 1.7e-78" locus_tag="HT749_RS19050" points="414,85 419,80 437,80 437,90 419,90 414,85 " style="fill:#b1d815; stroke:black; stroke-width:1; " id="dummy-1_h1_9_18" class="clusterblast-orf"  />
</g>
<g id="a1_0019"  >
<polygon description="&lt;b&gt;HT749_RS19045&lt;/b&gt;&lt;br&gt;NADP-dependent oxidoreductase&lt;br&gt;Location: 37994 - 36945&lt;br&gt;&lt;br&gt;&lt;b&gt;BlastP hit with cds178_1195&lt;/b&gt;&lt;br&gt;Percentage identity: 56&lt;br&gt;Percentage coverage: 96&lt;br&gt;BLAST bit score: 352&lt;br&gt;E-value: 5.5e-95" locus_tag="HT749_RS19045" points="440,85 445,80 460,80 460,90 445,90 440,85 " style="fill:#d81515; stroke:black; stroke-width:1; " id="dummy-1_h1_9_19" class="clusterblast-orf"  />
</g>
<g id="a1_0020"  >
<polygon description="&lt;b&gt;HT749_RS19040&lt;/b&gt;&lt;br&gt;SgrR family transcriptional regulator&lt;br&gt;Location: 36848 - 34992" locus_tag="HT749_RS19040" points="462,90 493,90 498,85 493,80 462,80 462,90 " style="fill:white; stroke:black; stroke-width:1; " id="dummy-1_h1_9_20" class="clusterblast-orf"  />
</g>
<g id="a1_0021"  >
<polygon description="&lt;b&gt;HT749_RS19035&lt;/b&gt;&lt;br&gt;helix-turn-helix transcriptional regulator&lt;br&gt;Location: 34881 - 34501" locus_tag="HT749_RS19035" points="500,85 505,80 507,80 507,90 505,90 500,85 " style="fill:white; stroke:black; stroke-width:1; " id="dummy-1_h1_9_21" class="clusterblast-orf"  />
</g>
<g id="a1_0022"  >
<polygon description="&lt;b&gt;HT749_RS19030&lt;/b&gt;&lt;br&gt;NAD(P)-binding domain-containing protein&lt;br&gt;Location: 34419 - 33793" locus_tag="HT749_RS19030" points="509,90 516,90 521,85 516,80 509,80 509,90 " style="fill:white; stroke:black; stroke-width:1; " id="dummy-1_h1_9_22" class="clusterblast-orf"  />
</g>
<g id="a1_0023"  >
<polygon description="&lt;b&gt;HT749_RS19025&lt;/b&gt;&lt;br&gt;LysR family transcriptional regulator&lt;br&gt;Location: 33585 - 32680" locus_tag="HT749_RS19025" points="525,85 530,80 542,80 542,90 530,90 525,85 " style="fill:white; stroke:black; stroke-width:1; " id="dummy-1_h1_9_23" class="clusterblast-orf"  />
</g>
<g id="a1_0024"  >
<polygon description="&lt;b&gt;HT749_RS19020&lt;/b&gt;&lt;br&gt;short chain dehydrogenase&lt;br&gt;Location: 32573 - 31965" locus_tag="HT749_RS19020" points="544,90 551,90 556,85 551,80 544,80 544,90 " style="fill:white; stroke:black; stroke-width:1; " id="dummy-1_h1_9_24" class="clusterblast-orf"  />
</g>
<g id="a1_0025"  >
<polygon description="&lt;b&gt;HT749_RS19015&lt;/b&gt;&lt;br&gt;hypothetical protein&lt;br&gt;Location: 31971 - 31492" locus_tag="HT749_RS19015" points="556,85 561,80 565,80 565,90 561,90 556,85 " style="fill:white; stroke:black; stroke-width:1; " id="dummy-1_h1_9_25" class="clusterblast-orf"  />
</g>
<g id="a1_0026"  >
<polygon description="&lt;b&gt;HT749_RS19010&lt;/b&gt;&lt;br&gt;hypothetical protein&lt;br&gt;Location: 31480 - 31307" locus_tag="HT749_RS19010" points="565,90 568,85 565,80 565,90 " style="fill:white; stroke:black; stroke-width:1; " id="dummy-1_h1_9_26" class="clusterblast-orf"  />
</g>
<g id="a1_0027"  >
<polygon description="&lt;b&gt;HT749_RS19005&lt;/b&gt;&lt;br&gt;LysR family transcriptional regulator&lt;br&gt;Location: 31185 - 30262" locus_tag="HT749_RS19005" points="571,85 576,80 588,80 588,90 576,90 571,85 " style="fill:white; stroke:black; stroke-width:1; " id="dummy-1_h1_9_27" class="clusterblast-orf"  />
</g>
<g id="a1_0028"  >
<polygon description="&lt;b&gt;HT749_RS19000&lt;/b&gt;&lt;br&gt;LysE family transporter&lt;br&gt;Location: 30194 - 29577" locus_tag="HT749_RS19000" points="590,90 596,90 601,85 596,80 590,80 590,90 " style="fill:white; stroke:black; stroke-width:1; " id="dummy-1_h1_9_28" class="clusterblast-orf"  />
</g>
<g id="a1_0029"  >
<polygon description="&lt;b&gt;HT749_RS18995&lt;/b&gt;&lt;br&gt;NAD(P)H-dependent oxidoreductase&lt;br&gt;Location: 29483 - 28851" locus_tag="HT749_RS18995" points="603,85 608,80 615,80 615,90 608,90 603,85 " style="fill:white; stroke:black; stroke-width:1; " id="dummy-1_h1_9_29" class="clusterblast-orf"  />
</g>
<g id="a1_0030"  >
<polygon description="&lt;b&gt;HT749_RS18990&lt;/b&gt;&lt;br&gt;LysR family transcriptional regulator&lt;br&gt;Location: 28718 - 27840" locus_tag="HT749_RS18990" points="618,90 630,90 635,85 630,80 618,80 618,90 " style="fill:white; stroke:black; stroke-width:1; " id="dummy-1_h1_9_30" class="clusterblast-orf"  />
</g>
<g id="a1_0031"  >
<polygon description="&lt;b&gt;HT749_RS18985&lt;/b&gt;&lt;br&gt;coniferyl aldehyde dehydrogenase&lt;br&gt;Location: 27819 - 26344" locus_tag="HT749_RS18985" points="635,85 640,80 663,80 663,90 640,90 635,85 " style="fill:white; stroke:black; stroke-width:1; " id="dummy-1_h1_9_31" class="clusterblast-orf"  />
</g>
<g id="a1_0032"  >
<polygon description="&lt;b&gt;HT749_RS18980&lt;/b&gt;&lt;br&gt;TetR/AcrR family transcriptional regulator&lt;br&gt;Location: 26244 - 25573" locus_tag="HT749_RS18980" points="665,90 673,90 678,85 673,80 665,80 665,90 " style="fill:white; stroke:black; stroke-width:1; " id="dummy-1_h1_9_32" class="clusterblast-orf"  />
</g>
<g id="a1_0033"  >
<polygon description="&lt;b&gt;HT749_RS18975&lt;/b&gt;&lt;br&gt;type 1 glutamine amidotransferase domain-containing protein&lt;br&gt;Location: 25440 - 24757" locus_tag="HT749_RS18975" points="681,90 689,90 694,85 689,80 681,80 681,90 " style="fill:white; stroke:black; stroke-width:1; " id="dummy-1_h1_9_33" class="clusterblast-orf"  />
</g>
<g id="a1_0034"  >
<polygon description="&lt;b&gt;HT749_RS18970&lt;/b&gt;&lt;br&gt;MerR family transcriptional regulator&lt;br&gt;Location: 24736 - 24260" locus_tag="HT749_RS18970" points="694,85 699,80 703,80 703,90 699,90 694,85 " style="fill:white; stroke:black; stroke-width:1; " id="dummy-1_h1_9_34" class="clusterblast-orf"  />
</g>
<g id="a1_0035"  >
<polygon description="&lt;b&gt;HT749_RS18965&lt;/b&gt;&lt;br&gt;saccharopine dehydrogenase NADP-binding domain-containing protein&lt;br&gt;Location: 24132 - 22888" locus_tag="HT749_RS18965" points="706,85 711,80 730,80 730,90 711,90 706,85 " style="fill:white; stroke:black; stroke-width:1; " id="dummy-1_h1_9_35" class="clusterblast-orf"  />
</g>
<g id="a1_0036"  >
<polygon description="&lt;b&gt;HT749_RS18960&lt;/b&gt;&lt;br&gt;acetoacetate decarboxylase family protein&lt;br&gt;Location: 22830 - 21913" locus_tag="HT749_RS18960" points="731,85 736,80 748,80 748,90 736,90 731,85 " style="fill:white; stroke:black; stroke-width:1; " id="dummy-1_h1_9_36" class="clusterblast-orf"  />
</g>
<g id="a1_0037"  >
<polygon description="&lt;b&gt;HT749_RS18955&lt;/b&gt;&lt;br&gt;MerR family transcriptional regulator&lt;br&gt;Location: 21736 - 21287" locus_tag="HT749_RS18955" points="752,85 757,80 760,80 760,90 757,90 752,85 " style="fill:white; stroke:black; stroke-width:1; " id="dummy-1_h1_9_37" class="clusterblast-orf"  />
</g>
<g id="a1_0038"  >
<polygon description="&lt;b&gt;HT749_RS18950&lt;/b&gt;&lt;br&gt;alpha/beta hydrolase&lt;br&gt;Location: 21118 - 20288" locus_tag="HT749_RS18950" points="764,90 775,90 780,85 775,80 764,80 764,90 " style="fill:white; stroke:black; stroke-width:1; " id="dummy-1_h1_9_38" class="clusterblast-orf"  />
</g>
</svg>
