<svg y="0" version="1.1" preserveAspectRatio="none" xmlns="http://www.w3.org/2000/svg" height="230" x="0" viewBox="0 0 800 230" xmlns:xlink="http://www.w3.org/1999/xlink" width="800"  >
<g class="clusterblast-cluster" label="Query sequence"  >
<text y="20" class="clusterblast-acc" x="5"  >
Query sequence</text>
<line x2="778.0" y2="35" y1="35" x1="10" style="stroke:grey; stroke-width:1; "  />
<polygon description="&lt;b&gt;cds44896_45100&lt;/b&gt;&lt;br&gt;hypothetical protein&lt;br&gt;Location: 44896 - 45100" locus_tag="cds44896_45100" points="0,35 5,30 6,30 6,40 5,40 0,35 " style="fill:white; stroke:black; stroke-width:1; " id="dummy-1_q0_0_all" class="clusterblast-orf"  />
<polygon description="&lt;b&gt;cds45114_45531&lt;/b&gt;&lt;br&gt;hypothetical protein&lt;br&gt;Location: 45114 - 45531" locus_tag="cds45114_45531" points="6,35 11,30 19,30 19,40 11,40 6,35 " style="fill:white; stroke:black; stroke-width:1; " id="dummy-1_q1_0_all" class="clusterblast-orf"  />
<polygon description="&lt;b&gt;cds45527_45833&lt;/b&gt;&lt;br&gt;hypothetical protein&lt;br&gt;Location: 45527 - 45833" locus_tag="cds45527_45833" points="19,35 24,30 28,30 28,40 24,40 19,35 " style="fill:white; stroke:black; stroke-width:1; " id="dummy-1_q2_0_all" class="clusterblast-orf"  />
<polygon description="&lt;b&gt;cds45906_46215&lt;/b&gt;&lt;br&gt;hypothetical protein&lt;br&gt;Location: 45906 - 46215" locus_tag="cds45906_46215" points="30,35 35,30 39,30 39,40 35,40 30,35 " style="fill:white; stroke:black; stroke-width:1; " id="dummy-1_q3_0_all" class="clusterblast-orf"  />
<polygon description="&lt;b&gt;cds46296_46641&lt;/b&gt;&lt;br&gt;hypothetical protein&lt;br&gt;Location: 46296 - 46641" locus_tag="cds46296_46641" points="42,35 47,30 52,30 52,40 47,40 42,35 " style="fill:white; stroke:black; stroke-width:1; " id="dummy-1_q4_0_all" class="clusterblast-orf"  />
<polygon description="&lt;b&gt;cds46757_46907&lt;/b&gt;&lt;br&gt;hypothetical protein&lt;br&gt;Location: 46757 - 46907" locus_tag="cds46757_46907" points="56,35 60,30 60,40 56,35 " style="fill:white; stroke:black; stroke-width:1; " id="dummy-1_q5_0_all" class="clusterblast-orf"  />
<polygon description="&lt;b&gt;cds46903_47359&lt;/b&gt;&lt;br&gt;hypothetical protein&lt;br&gt;Location: 46903 - 47359" locus_tag="cds46903_47359" points="60,35 65,30 74,30 74,40 65,40 60,35 " style="fill:white; stroke:black; stroke-width:1; " id="dummy-1_q6_0_all" class="clusterblast-orf"  />
<polygon description="&lt;b&gt;cds47382_47877&lt;/b&gt;&lt;br&gt;hypothetical protein&lt;br&gt;Location: 47382 - 47877" locus_tag="cds47382_47877" points="74,35 79,30 89,30 89,40 79,40 74,35 " style="fill:white; stroke:black; stroke-width:1; " id="dummy-1_q7_0_all" class="clusterblast-orf"  />
<polygon description="&lt;b&gt;cds47894_48320&lt;/b&gt;&lt;br&gt;hypothetical protein&lt;br&gt;Location: 47894 - 48320" locus_tag="cds47894_48320" points="90,35 95,30 102,30 102,40 95,40 90,35 " style="fill:white; stroke:black; stroke-width:1; " id="dummy-1_q8_0_all" class="clusterblast-orf"  />
<polygon description="&lt;b&gt;cds48381_48720&lt;/b&gt;&lt;br&gt;hypothetical protein&lt;br&gt;Location: 48381 - 48720" locus_tag="cds48381_48720" points="104,35 109,30 114,30 114,40 109,40 104,35 " style="fill:white; stroke:black; stroke-width:1; " id="dummy-1_q9_0_all" class="clusterblast-orf"  />
<polygon description="&lt;b&gt;cds48839_49673&lt;/b&gt;&lt;br&gt;hypothetical protein&lt;br&gt;Location: 48839 - 49673" locus_tag="cds48839_49673" points="118,35 123,30 143,30 143,40 123,40 118,35 " style="fill:white; stroke:black; stroke-width:1; " id="dummy-1_q10_0_all" class="clusterblast-orf"  />
<polygon description="&lt;b&gt;cds49764_50910&lt;/b&gt;&lt;br&gt;hypothetical protein&lt;br&gt;Location: 49764 - 50910" locus_tag="cds49764_50910" points="146,35 151,30 180,30 180,40 151,40 146,35 " style="fill:white; stroke:black; stroke-width:1; " id="dummy-1_q11_0_all" class="clusterblast-orf"  />
<polygon description="&lt;b&gt;cds50982_52083&lt;/b&gt;&lt;br&gt;hypothetical protein&lt;br&gt;Location: 50982 - 52083" locus_tag="cds50982_52083" points="182,35 187,30 215,30 215,40 187,40 182,35 " style="fill:white; stroke:black; stroke-width:1; " id="dummy-1_q12_0_all" class="clusterblast-orf"  />
<polygon description="&lt;b&gt;cds52130_52472&lt;/b&gt;&lt;br&gt;hypothetical protein&lt;br&gt;Location: 52130 - 52472" locus_tag="cds52130_52472" points="217,35 222,30 227,30 227,40 222,40 217,35 " style="fill:white; stroke:black; stroke-width:1; " id="dummy-1_q13_0_all" class="clusterblast-orf"  />
<polygon description="&lt;b&gt;cds52618_53182&lt;/b&gt;&lt;br&gt;hypothetical protein&lt;br&gt;Location: 52618 - 53182" locus_tag="cds52618_53182" points="231,35 236,30 248,30 248,40 236,40 231,35 " style="fill:white; stroke:black; stroke-width:1; " id="dummy-1_q14_0_all" class="clusterblast-orf"  />
<polygon description="&lt;b&gt;cds53486_54581&lt;/b&gt;&lt;br&gt;hypothetical protein associated with LanBC&lt;br&gt;Location: 53486 - 54581" locus_tag="cds53486_54581" points="257,35 262,30 290,30 290,40 262,40 257,35 " style="fill:#d81515; stroke:black; stroke-width:1; " id="dummy-1_q15_0_all" class="clusterblast-orf"  />
<polygon description="&lt;b&gt;cds54582_56673&lt;/b&gt;&lt;br&gt;O-methyltransferase clustered with LanBC&lt;br&gt;Location: 54582 - 56673" locus_tag="cds54582_56673" points="290,35 295,30 353,30 353,40 295,40 290,35 " style="fill:#15d815; stroke:black; stroke-width:1; " id="dummy-1_q16_0_all" class="clusterblast-orf"  />
<polygon description="&lt;b&gt;cds56688_57951&lt;/b&gt;&lt;br&gt;Lanthionine biosynthesis cyclase LanC&lt;br&gt;Location: 56688 - 57951" locus_tag="cds56688_57951" points="353,35 358,30 391,30 391,40 358,40 353,35 " style="fill:#1515d8; stroke:black; stroke-width:1; " id="dummy-1_q17_0_all" class="clusterblast-orf"  />
<polygon description="&lt;b&gt;cds57937_61039&lt;/b&gt;&lt;br&gt;Lanthionine biosynthesis protein LanB&lt;br&gt;Location: 57937 - 61039" locus_tag="cds57937_61039" points="391,35 396,30 484,30 484,40 396,40 391,35 " style="fill:#d815d8; stroke:black; stroke-width:1; " id="dummy-1_q18_0_all" class="clusterblast-orf"  />
<polygon description="&lt;b&gt;cds61125_61302&lt;/b&gt;&lt;br&gt;FIG01124359: hypothetical protein&lt;br&gt;Location: 61125 - 61302" locus_tag="cds61125_61302" points="486,35 491,30 492,30 492,40 491,40 486,35 " style="fill:#d8d815; stroke:black; stroke-width:1; " id="dummy-1_q19_0_all" class="clusterblast-orf"  />
<polygon description="&lt;b&gt;cds61344_61476&lt;/b&gt;&lt;br&gt;FIG01124359: hypothetical protein&lt;br&gt;Location: 61344 - 61476" locus_tag="cds61344_61476" points="493,35 497,30 497,40 493,35 " style="fill:#d8d815; stroke:black; stroke-width:1; " id="dummy-1_q20_0_all" class="clusterblast-orf"  />
<polygon description="&lt;b&gt;cds61576_61753&lt;/b&gt;&lt;br&gt;hypothetical protein&lt;br&gt;Location: 61576 - 61753" locus_tag="cds61576_61753" points="500,35 505,30 505,30 505,40 505,40 500,35 " style="fill:#15d8d8; stroke:black; stroke-width:1; " id="dummy-1_q21_0_all" class="clusterblast-orf"  />
<polygon description="&lt;b&gt;cds61749_61866&lt;/b&gt;&lt;br&gt;hypothetical protein&lt;br&gt;Location: 61749 - 61866" locus_tag="cds61749_61866" points="505,35 508,30 508,40 505,35 " style="fill:white; stroke:black; stroke-width:1; " id="dummy-1_q22_0_all" class="clusterblast-orf"  />
<polygon description="&lt;b&gt;cds62030_62663&lt;/b&gt;&lt;br&gt;conserved hypothetical protein&lt;br&gt;Location: 62030 - 62663" locus_tag="cds62030_62663" points="513,35 518,30 532,30 532,40 518,40 513,35 " style="fill:white; stroke:black; stroke-width:1; " id="dummy-1_q23_0_all" class="clusterblast-orf"  />
<polygon description="&lt;b&gt;cds62659_63040&lt;/b&gt;&lt;br&gt;hypothetical protein&lt;br&gt;Location: 62659 - 63040" locus_tag="cds62659_63040" points="532,35 537,30 544,30 544,40 537,40 532,35 " style="fill:white; stroke:black; stroke-width:1; " id="dummy-1_q24_0_all" class="clusterblast-orf"  />
<polygon description="&lt;b&gt;cds63036_63468&lt;/b&gt;&lt;br&gt;hypothetical protein&lt;br&gt;Location: 63036 - 63468" locus_tag="cds63036_63468" points="543,35 548,30 556,30 556,40 548,40 543,35 " style="fill:white; stroke:black; stroke-width:1; " id="dummy-1_q25_0_all" class="clusterblast-orf"  />
<polygon description="&lt;b&gt;cds63464_63950&lt;/b&gt;&lt;br&gt;hypothetical protein&lt;br&gt;Location: 63464 - 63950" locus_tag="cds63464_63950" points="556,35 561,30 571,30 571,40 561,40 556,35 " style="fill:white; stroke:black; stroke-width:1; " id="dummy-1_q26_0_all" class="clusterblast-orf"  />
<polygon description="&lt;b&gt;cds64210_65572&lt;/b&gt;&lt;br&gt;hypothetical protein&lt;br&gt;Location: 64210 - 65572" locus_tag="cds64210_65572" points="579,40 614,40 619,35 614,30 579,30 579,40 " style="fill:white; stroke:black; stroke-width:1; " id="dummy-1_q27_0_all" class="clusterblast-orf"  />
<polygon description="&lt;b&gt;cds65568_66417&lt;/b&gt;&lt;br&gt;hypothetical protein&lt;br&gt;Location: 65568 - 66417" locus_tag="cds65568_66417" points="619,40 640,40 645,35 640,30 619,30 619,40 " style="fill:white; stroke:black; stroke-width:1; " id="dummy-1_q28_0_all" class="clusterblast-orf"  />
<polygon description="&lt;b&gt;cds66489_66747&lt;/b&gt;&lt;br&gt;hypothetical protein&lt;br&gt;Location: 66489 - 66747" locus_tag="cds66489_66747" points="647,35 652,30 655,30 655,40 652,40 647,35 " style="fill:white; stroke:black; stroke-width:1; " id="dummy-1_q29_0_all" class="clusterblast-orf"  />
<polygon description="&lt;b&gt;cds66755_67469&lt;/b&gt;&lt;br&gt;hypothetical protein&lt;br&gt;Location: 66755 - 67469" locus_tag="cds66755_67469" points="655,35 660,30 676,30 676,40 660,40 655,35 " style="fill:white; stroke:black; stroke-width:1; " id="dummy-1_q30_0_all" class="clusterblast-orf"  />
<polygon description="&lt;b&gt;cds67562_67925&lt;/b&gt;&lt;br&gt;hypothetical protein&lt;br&gt;Location: 67562 - 67925" locus_tag="cds67562_67925" points="679,35 684,30 690,30 690,40 684,40 679,35 " style="fill:white; stroke:black; stroke-width:1; " id="dummy-1_q31_0_all" class="clusterblast-orf"  />
<polygon description="&lt;b&gt;cds67990_70921&lt;/b&gt;&lt;br&gt;hypothetical protein&lt;br&gt;Location: 67990 - 70921" locus_tag="cds67990_70921" points="692,35 697,30 780,30 780,40 697,40 692,35 " style="fill:white; stroke:black; stroke-width:1; " id="dummy-1_q32_0_all" class="clusterblast-orf"  />
</g>
<g description="NZ_CP015588 (1753512-1779966): Streptomyces alfalfae strain ACCC40021 chromos... (17% of genes show similarity), lanthipeptide" class="clusterblast-cluster" label="NZ_CP015588"  >
<text y="70" class="clusterblast-acc" x="5"  >
<a xlink:href="https://antismash-db.secondarymetabolites.org/area.html?record=NZ_CP015588&amp;start=1753512&amp;end=1779966" target="_blank">NZ_CP015588 (1753512-1779966)</a>: Streptomyces alfalfae strain ACCC40021 chromos... (17% of genes show similarity), lanthipeptide</text>
<line x2="778.0" y2="85" y1="85" x1="10" style="stroke:grey; stroke-width:1; "  />
</g>
<g id="a1_000"  >
<polygon description="&lt;b&gt;A7J05_RS07270&lt;/b&gt;&lt;br&gt;STAS domain-containing protein&lt;br&gt;Location: 1778659 - 1778354" locus_tag="A7J05_RS07270" points="31,90 36,90 41,85 36,80 31,80 31,90 " style="fill:white; stroke:black; stroke-width:1; " id="dummy-1_h1_6_0" class="clusterblast-orf"  />
</g>
<g id="a1_001"  >
<polygon description="&lt;b&gt;A7J05_RS39410&lt;/b&gt;&lt;br&gt;hypothetical protein&lt;br&gt;Location: 1777513 - 1777223" locus_tag="A7J05_RS39410" points="66,90 69,90 74,85 69,80 66,80 66,90 " style="fill:white; stroke:black; stroke-width:1; " id="dummy-1_h1_6_1" class="clusterblast-orf"  />
</g>
<g id="a1_002"  >
<polygon description="&lt;b&gt;A7J05_RS39745&lt;/b&gt;&lt;br&gt;hypothetical protein&lt;br&gt;Location: 1777201 - 1777043" locus_tag="A7J05_RS39745" points="75,90 75,90 80,85 75,80 75,80 75,90 " style="fill:white; stroke:black; stroke-width:1; " id="dummy-1_h1_6_2" class="clusterblast-orf"  />
</g>
<g id="a1_003"  >
<polygon description="&lt;b&gt;A7J05_RS07260&lt;/b&gt;&lt;br&gt;hypothetical protein&lt;br&gt;Location: 1776931 - 1776716" locus_tag="A7J05_RS07260" points="83,85 88,80 90,80 90,90 88,90 83,85 " style="fill:white; stroke:black; stroke-width:1; " id="dummy-1_h1_6_3" class="clusterblast-orf"  />
</g>
<g id="a1_004"  >
<polygon description="&lt;b&gt;A7J05_RS07250&lt;/b&gt;&lt;br&gt;hypothetical protein&lt;br&gt;Location: 1776165 - 1775605" locus_tag="A7J05_RS07250" points="106,85 111,80 123,80 123,90 111,90 106,85 " style="fill:white; stroke:black; stroke-width:1; " id="dummy-1_h1_6_4" class="clusterblast-orf"  />
</g>
<g id="a1_005"  >
<polygon description="&lt;b&gt;A7J05_RS07245&lt;/b&gt;&lt;br&gt;hypothetical protein&lt;br&gt;Location: 1775400 - 1775191" locus_tag="A7J05_RS07245" points="129,90 130,90 135,85 130,80 129,80 129,90 " style="fill:white; stroke:black; stroke-width:1; " id="dummy-1_h1_6_5" class="clusterblast-orf"  />
</g>
<g id="a1_006"  >
<polygon description="&lt;b&gt;A7J05_RS07240&lt;/b&gt;&lt;br&gt;restriction endonuclease&lt;br&gt;Location: 1775113 - 1774424" locus_tag="A7J05_RS07240" points="138,90 153,90 158,85 153,80 138,80 138,90 " style="fill:white; stroke:black; stroke-width:1; " id="dummy-1_h1_6_6" class="clusterblast-orf"  />
</g>
<g id="a1_007"  >
<polygon description="&lt;b&gt;A7J05_RS07235&lt;/b&gt;&lt;br&gt;HNH endonuclease&lt;br&gt;Location: 1774050 - 1773394" locus_tag="A7J05_RS07235" points="169,90 184,90 189,85 184,80 169,80 169,90 " style="fill:white; stroke:black; stroke-width:1; " id="dummy-1_h1_6_7" class="clusterblast-orf"  />
</g>
<g id="a1_008"  >
<polygon description="&lt;b&gt;A7J05_RS07230&lt;/b&gt;&lt;br&gt;nucleotidyl transferase AbiEii/AbiGii toxin family protein&lt;br&gt;Location: 1773367 - 1772704" locus_tag="A7J05_RS07230" points="190,85 195,80 210,80 210,90 195,90 190,85 " style="fill:white; stroke:black; stroke-width:1; " id="dummy-1_h1_6_8" class="clusterblast-orf"  />
</g>
<g id="a1_009"  >
<polygon description="&lt;b&gt;A7J05_RS07225&lt;/b&gt;&lt;br&gt;hypothetical protein&lt;br&gt;Location: 1772707 - 1772351" locus_tag="A7J05_RS07225" points="210,85 215,80 220,80 220,90 215,90 210,85 " style="fill:white; stroke:black; stroke-width:1; " id="dummy-1_h1_6_9" class="clusterblast-orf"  />
</g>
<g id="a1_0010"  >
<polygon description="&lt;b&gt;A7J05_RS38660&lt;/b&gt;&lt;br&gt;IS5/IS1182 family transposase&lt;br&gt;Location: 1772261 - 1772145" locus_tag="A7J05_RS38660" points="223,85 227,80 227,90 223,85 " style="fill:white; stroke:black; stroke-width:1; " id="dummy-1_h1_6_10" class="clusterblast-orf"  />
</g>
<g id="a1_0011"  >
<polygon description="&lt;b&gt;A7J05_RS07220&lt;/b&gt;&lt;br&gt;transposase&lt;br&gt;Location: 1771874 - 1771116" locus_tag="A7J05_RS07220" points="235,90 252,90 257,85 252,80 235,80 235,90 " style="fill:white; stroke:black; stroke-width:1; " id="dummy-1_h1_6_11" class="clusterblast-orf"  />
</g>
<g id="a1_0012"  >
<polygon description="&lt;b&gt;A7J05_RS07215&lt;/b&gt;&lt;br&gt;hypothetical protein&lt;br&gt;Location: 1771086 - 1769968&lt;br&gt;&lt;br&gt;&lt;b&gt;BlastP hit with cds53486_54581&lt;/b&gt;&lt;br&gt;Percentage identity: 58&lt;br&gt;Percentage coverage: 98&lt;br&gt;BLAST bit score: 413&lt;br&gt;E-value: 2.8e-113" locus_tag="A7J05_RS07215" points="258,85 263,80 292,80 292,90 263,90 258,85 " style="fill:#d81515; stroke:black; stroke-width:1; " id="dummy-1_h1_6_12" class="clusterblast-orf"  />
</g>
<g id="a1_0013"  >
<polygon description="&lt;b&gt;A7J05_RS07210&lt;/b&gt;&lt;br&gt;methyltransferase, FxLD system&lt;br&gt;Location: 1769966 - 1767876&lt;br&gt;&lt;br&gt;&lt;b&gt;BlastP hit with cds54582_56673&lt;/b&gt;&lt;br&gt;Percentage identity: 72&lt;br&gt;Percentage coverage: 100&lt;br&gt;BLAST bit score: 990&lt;br&gt;E-value: 8.2e-287" locus_tag="A7J05_RS07210" points="292,85 297,80 355,80 355,90 297,90 292,85 " style="fill:#15d815; stroke:black; stroke-width:1; " id="dummy-1_h1_6_13" class="clusterblast-orf"  />
</g>
<g id="a1_0014"  >
<polygon description="&lt;b&gt;A7J05_RS07205&lt;/b&gt;&lt;br&gt;lanthionine synthetase C family protein&lt;br&gt;Location: 1767857 - 1766598&lt;br&gt;&lt;br&gt;&lt;b&gt;BlastP hit with cds56688_57951&lt;/b&gt;&lt;br&gt;Percentage identity: 73&lt;br&gt;Percentage coverage: 100&lt;br&gt;BLAST bit score: 618&lt;br&gt;E-value: 5.1e-175" locus_tag="A7J05_RS07205" points="355,85 360,80 393,80 393,90 360,90 355,85 " style="fill:#1515d8; stroke:black; stroke-width:1; " id="dummy-1_h1_6_14" class="clusterblast-orf"  />
</g>
<g id="a1_0015"  >
<polygon description="&lt;b&gt;A7J05_RS07200&lt;/b&gt;&lt;br&gt;lantibiotic dehydratase&lt;br&gt;Location: 1766611 - 1763513&lt;br&gt;&lt;br&gt;&lt;b&gt;BlastP hit with cds57937_61039&lt;/b&gt;&lt;br&gt;Percentage identity: 63&lt;br&gt;Percentage coverage: 99&lt;br&gt;BLAST bit score: 1286&lt;br&gt;E-value: 0.0" locus_tag="A7J05_RS07200" points="392,85 397,80 485,80 485,90 397,90 392,85 " style="fill:#d815d8; stroke:black; stroke-width:1; " id="dummy-1_h1_6_15" class="clusterblast-orf"  />
</g>
<g id="a1_0016"  >
<polygon description="&lt;b&gt;A7J05_RS07195&lt;/b&gt;&lt;br&gt;FxLD family lantipeptide&lt;br&gt;Location: 1763430 - 1763299&lt;br&gt;&lt;br&gt;&lt;b&gt;BlastP hit with cds61125_61302&lt;/b&gt;&lt;br&gt;Percentage identity: 78&lt;br&gt;Percentage coverage: 69&lt;br&gt;BLAST bit score: 65&lt;br&gt;E-value: 2.3e-09&lt;br&gt;&lt;br&gt;&lt;b&gt;BlastP hit with cds61344_61476&lt;/b&gt;&lt;br&gt;Percentage identity: 79&lt;br&gt;Percentage coverage: 100&lt;br&gt;BLAST bit score: 70&lt;br&gt;E-value: 4e-11" locus_tag="A7J05_RS07195" points="488,85 492,80 492,90 488,85 " style="fill:#d8d815; stroke:black; stroke-width:1; " id="dummy-1_h1_6_16" class="clusterblast-orf"  />
</g>
<g id="a1_0017"  >
<polygon description="&lt;b&gt;A7J05_RS39740&lt;/b&gt;&lt;br&gt;FxLD family lantipeptide&lt;br&gt;Location: 1763191 - 1763012" locus_tag="A7J05_RS39740" points="495,85 500,80 500,80 500,90 500,90 495,85 " style="fill:white; stroke:black; stroke-width:1; " id="dummy-1_h1_6_17" class="clusterblast-orf"  />
</g>
<g id="a1_0018"  >
<polygon description="&lt;b&gt;A7J05_RS07185&lt;/b&gt;&lt;br&gt;peptide transporter permease SapC&lt;br&gt;Location: 1762809 - 1762453" locus_tag="A7J05_RS07185" points="506,85 511,80 517,80 517,90 511,90 506,85 " style="fill:white; stroke:black; stroke-width:1; " id="dummy-1_h1_6_18" class="clusterblast-orf"  />
</g>
<g id="a1_0019"  >
<polygon description="&lt;b&gt;A7J05_RS07180&lt;/b&gt;&lt;br&gt;hypothetical protein&lt;br&gt;Location: 1762416 - 1761841" locus_tag="A7J05_RS07180" points="518,85 523,80 535,80 535,90 523,90 518,85 " style="fill:white; stroke:black; stroke-width:1; " id="dummy-1_h1_6_19" class="clusterblast-orf"  />
</g>
<g id="a1_0020"  >
<polygon description="&lt;b&gt;A7J05_RS07175&lt;/b&gt;&lt;br&gt;hypothetical protein&lt;br&gt;Location: 1761844 - 1761275" locus_tag="A7J05_RS07175" points="535,85 540,80 552,80 552,90 540,90 535,85 " style="fill:white; stroke:black; stroke-width:1; " id="dummy-1_h1_6_20" class="clusterblast-orf"  />
</g>
<g id="a1_0021"  >
<polygon description="&lt;b&gt;A7J05_RS07170&lt;/b&gt;&lt;br&gt;hypothetical protein&lt;br&gt;Location: 1761185 - 1760706" locus_tag="A7J05_RS07170" points="555,85 560,80 569,80 569,90 560,90 555,85 " style="fill:white; stroke:black; stroke-width:1; " id="dummy-1_h1_6_21" class="clusterblast-orf"  />
</g>
<g id="a1_0022"  >
<polygon description="&lt;b&gt;A7J05_RS07165&lt;/b&gt;&lt;br&gt;hypothetical protein&lt;br&gt;Location: 1760690 - 1759809" locus_tag="A7J05_RS07165" points="570,85 575,80 596,80 596,90 575,90 570,85 " style="fill:white; stroke:black; stroke-width:1; " id="dummy-1_h1_6_22" class="clusterblast-orf"  />
</g>
<g id="a1_0023"  >
<polygon description="&lt;b&gt;A7J05_RS07160&lt;/b&gt;&lt;br&gt;acyl-CoA dehydrogenase family protein&lt;br&gt;Location: 1759682 - 1758429" locus_tag="A7J05_RS07160" points="600,85 605,80 638,80 638,90 605,90 600,85 " style="fill:white; stroke:black; stroke-width:1; " id="dummy-1_h1_6_23" class="clusterblast-orf"  />
</g>
<g id="a1_0024"  >
<polygon description="&lt;b&gt;A7J05_RS07155&lt;/b&gt;&lt;br&gt;GAF domain-containing protein&lt;br&gt;Location: 1758347 - 1757706" locus_tag="A7J05_RS07155" points="640,85 645,80 659,80 659,90 645,90 640,85 " style="fill:white; stroke:black; stroke-width:1; " id="dummy-1_h1_6_24" class="clusterblast-orf"  />
</g>
<g id="a1_0025"  >
<polygon description="&lt;b&gt;A7J05_RS07150&lt;/b&gt;&lt;br&gt;ATP/GTP-binding protein&lt;br&gt;Location: 1757706 - 1757119" locus_tag="A7J05_RS07150" points="659,85 664,80 677,80 677,90 664,90 659,85 " style="fill:white; stroke:black; stroke-width:1; " id="dummy-1_h1_6_25" class="clusterblast-orf"  />
</g>
<g id="a1_0026"  >
<polygon description="&lt;b&gt;A7J05_RS07145&lt;/b&gt;&lt;br&gt;DUF742 domain-containing protein&lt;br&gt;Location: 1757075 - 1756668" locus_tag="A7J05_RS07145" points="678,85 683,80 690,80 690,90 683,90 678,85 " style="fill:white; stroke:black; stroke-width:1; " id="dummy-1_h1_6_26" class="clusterblast-orf"  />
</g>
<g id="a1_0027"  >
<polygon description="&lt;b&gt;A7J05_RS07140&lt;/b&gt;&lt;br&gt;roadblock/LC7 domain-containing protein&lt;br&gt;Location: 1756671 - 1756156" locus_tag="A7J05_RS07140" points="690,85 695,80 706,80 706,90 695,90 690,85 " style="fill:white; stroke:black; stroke-width:1; " id="dummy-1_h1_6_27" class="clusterblast-orf"  />
</g>
<g id="a1_0028"  >
<polygon description="&lt;b&gt;A7J05_RS07135&lt;/b&gt;&lt;br&gt;ATP-binding protein&lt;br&gt;Location: 1756088 - 1754760" locus_tag="A7J05_RS07135" points="708,85 713,80 748,80 748,90 713,90 708,85 " style="fill:white; stroke:black; stroke-width:1; " id="dummy-1_h1_6_28" class="clusterblast-orf"  />
</g>
</svg>
