<svg y="0" version="1.1" preserveAspectRatio="none" xmlns="http://www.w3.org/2000/svg" height="230" x="0" viewBox="0 0 800 230" xmlns:xlink="http://www.w3.org/1999/xlink" width="800"  >
<g class="clusterblast-cluster" label="Query sequence"  >
<text y="20" class="clusterblast-acc" x="5"  >
Query sequence</text>
<line x2="778.0" y2="35" y1="35" x1="10" style="stroke:grey; stroke-width:1; "  />
<polygon description="&lt;b&gt;cds1_895&lt;/b&gt;&lt;br&gt;FIG01124710: hypothetical protein&lt;br&gt;Location: 1 - 895" locus_tag="cds1_895" points="224,35 229,30 292,30 292,40 229,40 224,35 " style="fill:#d81515; stroke:black; stroke-width:1; " id="dummy-1_q0_0_all" class="clusterblast-orf"  />
<polygon description="&lt;b&gt;cds1028_1799&lt;/b&gt;&lt;br&gt;putative secreted protein&lt;br&gt;Location: 1028 - 1799" locus_tag="cds1028_1799" points="302,35 307,30 359,30 359,40 307,40 302,35 " style="fill:#77d815; stroke:black; stroke-width:1; " id="dummy-1_q1_0_all" class="clusterblast-orf"  />
<polygon description="&lt;b&gt;cds1974_2115&lt;/b&gt;&lt;br&gt;hypothetical protein&lt;br&gt;Location: 1974 - 2115" locus_tag="cds1974_2115" points="373,40 378,40 383,35 378,30 373,30 373,40 " style="fill:white; stroke:black; stroke-width:1; " id="dummy-1_q2_0_all" class="clusterblast-orf"  />
<polygon description="&lt;b&gt;cds2178_2892&lt;/b&gt;&lt;br&gt;SC1B5.06c, unknown, len: 249 aa&lt;br&gt;Location: 2178 - 2892" locus_tag="cds2178_2892" points="388,35 393,30 442,30 442,40 393,40 388,35 " style="fill:#15d8d8; stroke:black; stroke-width:1; " id="dummy-1_q3_0_all" class="clusterblast-orf"  />
<polygon description="&lt;b&gt;cds2953_3628&lt;/b&gt;&lt;br&gt;DUF124 domain-containing protein&lt;br&gt;Location: 2953 - 3628" locus_tag="cds2953_3628" points="446,40 492,40 497,35 492,30 446,30 446,40 " style="fill:#7715d8; stroke:black; stroke-width:1; " id="dummy-1_q4_0_all" class="clusterblast-orf"  />
<polygon description="&lt;b&gt;cds3630_3951&lt;/b&gt;&lt;br&gt;hypothetical protein&lt;br&gt;Location: 3630 - 3951" locus_tag="cds3630_3951" points="497,35 502,30 521,30 521,40 502,40 497,35 " style="fill:white; stroke:black; stroke-width:1; " id="dummy-1_q5_0_all" class="clusterblast-orf"  />
<polygon description="&lt;b&gt;cds4284_4416&lt;/b&gt;&lt;br&gt;FIG00816680: hypothetical protein&lt;br&gt;Location: 4284 - 4416" locus_tag="cds4284_4416" points="546,35 551,30 556,30 556,40 551,40 546,35 " style="fill:white; stroke:black; stroke-width:1; " id="dummy-1_q6_0_all" class="clusterblast-orf"  />
</g>
<g description="NZ_CM002280 (1752464-1764060): Streptomyces niveus NCIMB 11891 chromosome, wh... (40% of genes show similarity), bacteriocin" class="clusterblast-cluster" label="NZ_CM002280"  >
<text y="70" class="clusterblast-acc" x="5"  >
<a xlink:href="https://antismash-db.secondarymetabolites.org/area.html?record=NZ_CM002280&amp;start=1752464&amp;end=1764060" target="_blank">NZ_CM002280 (1752464-1764060)</a>: Streptomyces niveus NCIMB 11891 chromosome, wh... (40% of genes show similarity), bacteriocin</text>
<line x2="778.0" y2="85" y1="85" x1="10" style="stroke:grey; stroke-width:1; "  />
</g>
<g id="a1_000"  >
<polygon description="&lt;b&gt;M877_RS50540&lt;/b&gt;&lt;br&gt;chlorite dismutase family protein&lt;br&gt;Location: 1763475 - 1762759" locus_tag="M877_RS50540" points="0,90 48,90 53,85 48,80 0,80 0,90 " style="fill:white; stroke:black; stroke-width:1; " id="dummy-1_h1_5_0" class="clusterblast-orf"  />
</g>
<g id="a1_001"  >
<polygon description="&lt;b&gt;M877_RS50535&lt;/b&gt;&lt;br&gt;DinB family protein&lt;br&gt;Location: 1762437 - 1761925" locus_tag="M877_RS50535" points="77,90 111,90 116,85 111,80 77,80 77,90 " style="fill:white; stroke:black; stroke-width:1; " id="dummy-1_h1_5_1" class="clusterblast-orf"  />
</g>
<g id="a1_002"  >
<polygon description="&lt;b&gt;M877_RS50530&lt;/b&gt;&lt;br&gt;alpha/beta hydrolase&lt;br&gt;Location: 1761872 - 1760211" locus_tag="M877_RS50530" points="120,85 125,80 245,80 245,90 125,90 120,85 " style="fill:white; stroke:black; stroke-width:1; " id="dummy-1_h1_5_2" class="clusterblast-orf"  />
</g>
<g id="a1_003"  >
<polygon description="&lt;b&gt;M877_RS50525&lt;/b&gt;&lt;br&gt;TIGR04222 domain-containing membrane protein&lt;br&gt;Location: 1760031 - 1759066" locus_tag="M877_RS50525" points="258,85 263,80 331,80 331,90 263,90 258,85 " style="fill:white; stroke:black; stroke-width:1; " id="dummy-1_h1_5_3" class="clusterblast-orf"  />
</g>
<g id="a1_004"  >
<polygon description="&lt;b&gt;M877_RS50520&lt;/b&gt;&lt;br&gt;DUF692 domain-containing protein&lt;br&gt;Location: 1759060 - 1757465&lt;br&gt;&lt;br&gt;&lt;b&gt;BlastP hit with cds1_895&lt;/b&gt;&lt;br&gt;Percentage identity: 78&lt;br&gt;Percentage coverage: 91&lt;br&gt;BLAST bit score: 434&lt;br&gt;E-value: 9.6e-120" locus_tag="M877_RS50520" points="331,85 336,80 451,80 451,90 336,90 331,85 " style="fill:#d81515; stroke:black; stroke-width:1; " id="dummy-1_h1_5_4" class="clusterblast-orf"  />
</g>
<g id="a1_005"  >
<polygon description="&lt;b&gt;M877_RS50515&lt;/b&gt;&lt;br&gt;DUF4142 domain-containing protein&lt;br&gt;Location: 1757314 - 1756523&lt;br&gt;&lt;br&gt;&lt;b&gt;BlastP hit with cds1028_1799&lt;/b&gt;&lt;br&gt;Percentage identity: 83&lt;br&gt;Percentage coverage: 99&lt;br&gt;BLAST bit score: 397&lt;br&gt;E-value: 1.1e-108" locus_tag="M877_RS50515" points="462,85 467,80 522,80 522,90 467,90 462,85 " style="fill:#77d815; stroke:black; stroke-width:1; " id="dummy-1_h1_5_5" class="clusterblast-orf"  />
</g>
<g id="a1_006"  >
<polygon description="&lt;b&gt;M877_RS50510&lt;/b&gt;&lt;br&gt;peptidyl-tRNA hydrolase&lt;br&gt;Location: 1756398 - 1755592&lt;br&gt;&lt;br&gt;&lt;b&gt;BlastP hit with cds2178_2892&lt;/b&gt;&lt;br&gt;Percentage identity: 67&lt;br&gt;Percentage coverage: 98&lt;br&gt;BLAST bit score: 306&lt;br&gt;E-value: 1.8e-81" locus_tag="M877_RS50510" points="531,85 536,80 592,80 592,90 536,90 531,85 " style="fill:#15d8d8; stroke:black; stroke-width:1; " id="dummy-1_h1_5_6" class="clusterblast-orf"  />
</g>
<g id="a1_007"  >
<polygon description="&lt;b&gt;M877_RS50505&lt;/b&gt;&lt;br&gt;AIM24 family protein&lt;br&gt;Location: 1755514 - 1754837&lt;br&gt;&lt;br&gt;&lt;b&gt;BlastP hit with cds2953_3628&lt;/b&gt;&lt;br&gt;Percentage identity: 83&lt;br&gt;Percentage coverage: 100&lt;br&gt;BLAST bit score: 384&lt;br&gt;E-value: 5e-105" locus_tag="M877_RS50505" points="598,90 643,90 648,85 643,80 598,80 598,90 " style="fill:#7715d8; stroke:black; stroke-width:1; " id="dummy-1_h1_5_7" class="clusterblast-orf"  />
</g>
<g id="a1_008"  >
<polygon description="&lt;b&gt;M877_RS83480&lt;/b&gt;&lt;br&gt;hypothetical protein&lt;br&gt;Location: 1754785 - 1753280" locus_tag="M877_RS83480" points="652,90 760,90 765,85 760,80 652,80 652,90 " style="fill:white; stroke:black; stroke-width:1; " id="dummy-1_h1_5_8" class="clusterblast-orf"  />
</g>
<g id="a1_009"  >
<polygon description="&lt;b&gt;M877_RS83035&lt;/b&gt;&lt;br&gt;hypothetical protein&lt;br&gt;Location: 1753253 - 1753092" locus_tag="M877_RS83035" points="767,90 775,90 780,85 775,80 767,80 767,90 " style="fill:white; stroke:black; stroke-width:1; " id="dummy-1_h1_5_9" class="clusterblast-orf"  />
</g>
</svg>
