<svg y="0" version="1.1" preserveAspectRatio="none" xmlns="http://www.w3.org/2000/svg" height="230" x="0" viewBox="0 0 800 230" xmlns:xlink="http://www.w3.org/1999/xlink" width="800"  >
<g class="clusterblast-cluster" label="Query sequence"  >
<text y="20" class="clusterblast-acc" x="5"  >
Query sequence</text>
<line x2="778.0" y2="35" y1="35" x1="10" style="stroke:grey; stroke-width:1; "  />
<polygon description="&lt;b&gt;cds1_1321&lt;/b&gt;&lt;br&gt;export protein&lt;br&gt;Location: 1 - 1321" locus_tag="cds1_1321" points="260,35 265,30 276,30 276,40 265,40 260,35 " style="fill:#d81515; stroke:black; stroke-width:1; " id="dummy-1_q0_0_all" class="clusterblast-orf"  />
<polygon description="&lt;b&gt;cds1329_2178&lt;/b&gt;&lt;br&gt;Peptide synthetase&lt;br&gt;Location: 1329 - 2178" locus_tag="cds1329_2178" points="276,35 281,30 287,30 287,40 281,40 276,35 " style="fill:#5cd815; stroke:black; stroke-width:1; " id="dummy-1_q1_0_all" class="clusterblast-orf"  />
<polygon description="&lt;b&gt;cds2170_5335&lt;/b&gt;&lt;br&gt;Polyketide synthase modules and related proteins&lt;br&gt;Location: 2170 - 5335" locus_tag="cds2170_5335" points="287,35 292,30 325,30 325,40 292,40 287,35 " style="fill:#15a3d8; stroke:black; stroke-width:1; " id="dummy-1_q2_0_all" class="clusterblast-orf"  />
<polygon description="&lt;b&gt;cds5605_7171&lt;/b&gt;&lt;br&gt;macromolecule metabolism; macromolecule synthesis, modification&lt;br&gt;Location: 5605 - 7171" locus_tag="cds5605_7171" points="329,35 334,30 348,30 348,40 334,40 329,35 " style="fill:#c715d8; stroke:black; stroke-width:1; " id="dummy-1_q3_0_all" class="clusterblast-orf"  />
<polygon description="&lt;b&gt;cds7203_8934&lt;/b&gt;&lt;br&gt;hypothetical protein&lt;br&gt;Location: 7203 - 8934" locus_tag="cds7203_8934" points="348,35 353,30 370,30 370,40 353,40 348,35 " style="fill:#d88015; stroke:black; stroke-width:1; " id="dummy-1_q4_0_all" class="clusterblast-orf"  />
<polygon description="&lt;b&gt;cds8930_9935&lt;/b&gt;&lt;br&gt;2,3-diaminopropionate for siderophore biosynthesis protein SbnB&lt;br&gt;Location: 8930 - 9935" locus_tag="cds8930_9935" points="369,35 374,30 382,30 382,40 374,40 369,35 " style="fill:#15d839; stroke:black; stroke-width:1; " id="dummy-1_q5_0_all" class="clusterblast-orf"  />
<polygon description="&lt;b&gt;cds9921_10923&lt;/b&gt;&lt;br&gt;Ornithine cyclodeaminase (EC 4.3.1.12)&lt;br&gt;Location: 9921 - 10923" locus_tag="cds9921_10923" points="382,35 387,30 394,30 394,40 387,40 382,35 " style="fill:#1539d8; stroke:black; stroke-width:1; " id="dummy-1_q6_0_all" class="clusterblast-orf"  />
<polygon description="&lt;b&gt;cds10996_14308&lt;/b&gt;&lt;br&gt;Carbamoyl-phosphate synthase large chain (EC 6.3.5.5)&lt;br&gt;Location: 10996 - 14308" locus_tag="cds10996_14308" points="395,35 400,30 435,30 435,40 400,40 395,35 " style="fill:#d81580; stroke:black; stroke-width:1; " id="dummy-1_q7_0_all" class="clusterblast-orf"  />
<polygon description="&lt;b&gt;cds14307_15432&lt;/b&gt;&lt;br&gt;Carbamoyl-phosphate synthase small chain (EC 6.3.5.5)&lt;br&gt;Location: 14307 - 15432" locus_tag="cds14307_15432" points="435,35 440,30 449,30 449,40 440,40 435,35 " style="fill:#c7d815; stroke:black; stroke-width:1; " id="dummy-1_q8_0_all" class="clusterblast-orf"  />
<polygon description="&lt;b&gt;cds15600_15807&lt;/b&gt;&lt;br&gt;hypothetical protein&lt;br&gt;Location: 15600 - 15807" locus_tag="cds15600_15807" points="451,35 454,30 454,40 451,35 " style="fill:#15d8a3; stroke:black; stroke-width:1; " id="dummy-1_q9_0_all" class="clusterblast-orf"  />
<polygon description="&lt;b&gt;cds16057_16210&lt;/b&gt;&lt;br&gt;hypothetical protein&lt;br&gt;Location: 16057 - 16210" locus_tag="cds16057_16210" points="457,40 459,35 457,30 457,40 " style="fill:white; stroke:black; stroke-width:1; " id="dummy-1_q10_0_all" class="clusterblast-orf"  />
<polygon description="&lt;b&gt;cds16325_17216&lt;/b&gt;&lt;br&gt;hypothetical protein&lt;br&gt;Location: 16325 - 17216" locus_tag="cds16325_17216" points="460,40 466,40 471,35 466,30 460,30 460,40 " style="fill:#5c15d8; stroke:black; stroke-width:1; " id="dummy-1_q11_0_all" class="clusterblast-orf"  />
<polygon description="&lt;b&gt;cds17663_18140&lt;/b&gt;&lt;br&gt;Glycerol-3-phosphate cytidylyltransferase (EC 2.7.7.39)&lt;br&gt;Location: 17663 - 18140" locus_tag="cds17663_18140" points="477,40 477,40 482,35 477,30 477,30 477,40 " style="fill:white; stroke:black; stroke-width:1; " id="dummy-1_q12_0_all" class="clusterblast-orf"  />
<polygon description="&lt;b&gt;cds18153_18909&lt;/b&gt;&lt;br&gt;CDP-alcohol phosphatidyltransferase family protein&lt;br&gt;Location: 18153 - 18909" locus_tag="cds18153_18909" points="483,35 488,30 492,30 492,40 488,40 483,35 " style="fill:white; stroke:black; stroke-width:1; " id="dummy-1_q13_0_all" class="clusterblast-orf"  />
<polygon description="&lt;b&gt;cds19064_19754&lt;/b&gt;&lt;br&gt;hypothetical protein&lt;br&gt;Location: 19064 - 19754" locus_tag="cds19064_19754" points="494,35 499,30 502,30 502,40 499,40 494,35 " style="fill:white; stroke:black; stroke-width:1; " id="dummy-1_q14_0_all" class="clusterblast-orf"  />
<polygon description="&lt;b&gt;cds20176_21145&lt;/b&gt;&lt;br&gt;Cell envelope-associated transcriptional attenuator LytR-CpsA-Psr, subfamily A1&lt;br&gt;Location: 20176 - 21145" locus_tag="cds20176_21145" points="507,35 512,30 519,30 519,40 512,40 507,35 " style="fill:white; stroke:black; stroke-width:1; " id="dummy-1_q15_0_all" class="clusterblast-orf"  />
</g>
<g description="NC_013510 (2188347-2253164): Thermomonospora curvata DSM 43183, complete sequ... (11% of genes show similarity), NRPS" class="clusterblast-cluster" label="NC_013510"  >
<text y="70" class="clusterblast-acc" x="5"  >
<a xlink:href="https://antismash-db.secondarymetabolites.org/area.html?record=NC_013510&amp;start=2188347&amp;end=2253164" target="_blank">NC_013510 (2188347-2253164)</a>: Thermomonospora curvata DSM 43183, complete sequ... (11% of genes show similarity), NRPS</text>
<line x2="778.0" y2="85" y1="85" x1="10" style="stroke:grey; stroke-width:1; "  />
</g>
<g id="a1_000"  >
<polygon description="&lt;b&gt;TCUR_RS09425&lt;/b&gt;&lt;br&gt;MBL fold metallo-hydrolase&lt;br&gt;Location: 2252458 - 2250500" locus_tag="TCUR_RS09425" points="0,90 18,90 23,85 18,80 0,80 0,90 " style="fill:white; stroke:black; stroke-width:1; " id="dummy-1_h1_6_0" class="clusterblast-orf"  />
</g>
<g id="a1_001"  >
<polygon description="&lt;b&gt;TCUR_RS24865&lt;/b&gt;&lt;br&gt;hypothetical protein&lt;br&gt;Location: 2250468 - 2249659" locus_tag="TCUR_RS24865" points="24,85 29,80 34,80 34,90 29,90 24,85 " style="fill:white; stroke:black; stroke-width:1; " id="dummy-1_h1_6_1" class="clusterblast-orf"  />
</g>
<g id="a1_002"  >
<polygon description="&lt;b&gt;TCUR_RS27025&lt;/b&gt;&lt;br&gt;hypothetical protein&lt;br&gt;Location: 2249434 - 2249276" locus_tag="TCUR_RS27025" points="37,90 38,85 37,80 37,90 " style="fill:white; stroke:black; stroke-width:1; " id="dummy-1_h1_6_2" class="clusterblast-orf"  />
</g>
<g id="a1_003"  >
<polygon description="&lt;b&gt;TCUR_RS26430&lt;/b&gt;&lt;br&gt;hypothetical protein&lt;br&gt;Location: 2248282 - 2247545" locus_tag="TCUR_RS26430" points="51,90 55,90 60,85 55,80 51,80 51,90 " style="fill:white; stroke:black; stroke-width:1; " id="dummy-1_h1_6_3" class="clusterblast-orf"  />
</g>
<g id="a1_004"  >
<polygon description="&lt;b&gt;TCUR_RS27320&lt;/b&gt;&lt;br&gt;nucleoside triphosphate pyrophosphohydrolase&lt;br&gt;Location: 2247122 - 2246808" locus_tag="TCUR_RS27320" points="65,90 69,85 65,80 65,90 " style="fill:white; stroke:black; stroke-width:1; " id="dummy-1_h1_6_4" class="clusterblast-orf"  />
</g>
<g id="a1_005"  >
<polygon description="&lt;b&gt;TCUR_RS09410&lt;/b&gt;&lt;br&gt;NUDIX hydrolase&lt;br&gt;Location: 2246858 - 2246322" locus_tag="TCUR_RS09410" points="68,90 70,90 75,85 70,80 68,80 68,90 " style="fill:white; stroke:black; stroke-width:1; " id="dummy-1_h1_6_5" class="clusterblast-orf"  />
</g>
<g id="a1_006"  >
<polygon description="&lt;b&gt;TCUR_RS09405&lt;/b&gt;&lt;br&gt;PIG-L family deacetylase&lt;br&gt;Location: 2246294 - 2245479" locus_tag="TCUR_RS09405" points="75,85 80,80 85,80 85,90 80,90 75,85 " style="fill:white; stroke:black; stroke-width:1; " id="dummy-1_h1_6_6" class="clusterblast-orf"  />
</g>
<g id="a1_007"  >
<polygon description="&lt;b&gt;TCUR_RS09400&lt;/b&gt;&lt;br&gt;class II glutamine amidotransferase&lt;br&gt;Location: 2245395 - 2244520" locus_tag="TCUR_RS09400" points="86,85 91,80 97,80 97,90 91,90 86,85 " style="fill:white; stroke:black; stroke-width:1; " id="dummy-1_h1_6_7" class="clusterblast-orf"  />
</g>
<g id="a1_008"  >
<polygon description="&lt;b&gt;TCUR_RS09395&lt;/b&gt;&lt;br&gt;SPFH domain-containing protein&lt;br&gt;Location: 2244376 - 2243447" locus_tag="TCUR_RS09395" points="99,90 105,90 110,85 105,80 99,80 99,90 " style="fill:white; stroke:black; stroke-width:1; " id="dummy-1_h1_6_8" class="clusterblast-orf"  />
</g>
<g id="a1_009"  >
<polygon description="&lt;b&gt;TCUR_RS09390&lt;/b&gt;&lt;br&gt;hypothetical protein&lt;br&gt;Location: 2243437 - 2243204" locus_tag="TCUR_RS09390" points="110,90 113,85 110,80 110,90 " style="fill:white; stroke:black; stroke-width:1; " id="dummy-1_h1_6_9" class="clusterblast-orf"  />
</g>
<g id="a1_0010"  >
<polygon description="&lt;b&gt;TCUR_RS09385&lt;/b&gt;&lt;br&gt;GPP34 family phosphoprotein&lt;br&gt;Location: 2243200 - 2242577" locus_tag="TCUR_RS09385" points="113,90 116,90 121,85 116,80 113,80 113,90 " style="fill:white; stroke:black; stroke-width:1; " id="dummy-1_h1_6_10" class="clusterblast-orf"  />
</g>
<g id="a1_0011"  >
<polygon description="&lt;b&gt;TCUR_RS09380&lt;/b&gt;&lt;br&gt;diiron oxygenase&lt;br&gt;Location: 2242485 - 2241514" locus_tag="TCUR_RS09380" points="122,85 127,80 134,80 134,90 127,90 122,85 " style="fill:white; stroke:black; stroke-width:1; " id="dummy-1_h1_6_11" class="clusterblast-orf"  />
</g>
<g id="a1_0012"  >
<polygon description="&lt;b&gt;TCUR_RS09375&lt;/b&gt;&lt;br&gt;TetR/AcrR family transcriptional regulator&lt;br&gt;Location: 2241306 - 2240680" locus_tag="TCUR_RS09375" points="136,90 139,90 144,85 139,80 136,80 136,90 " style="fill:white; stroke:black; stroke-width:1; " id="dummy-1_h1_6_12" class="clusterblast-orf"  />
</g>
<g id="a1_0013"  >
<polygon description="&lt;b&gt;TCUR_RS09370&lt;/b&gt;&lt;br&gt;hypothetical protein&lt;br&gt;Location: 2240620 - 2240381" locus_tag="TCUR_RS09370" points="145,90 147,85 145,80 145,90 " style="fill:white; stroke:black; stroke-width:1; " id="dummy-1_h1_6_13" class="clusterblast-orf"  />
</g>
<g id="a1_0014"  >
<polygon description="&lt;b&gt;TCUR_RS09365&lt;/b&gt;&lt;br&gt;exonuclease domain-containing protein&lt;br&gt;Location: 2240315 - 2239734" locus_tag="TCUR_RS09365" points="148,90 150,90 155,85 150,80 148,80 148,90 " style="fill:white; stroke:black; stroke-width:1; " id="dummy-1_h1_6_14" class="clusterblast-orf"  />
</g>
<g id="a1_0015"  >
<polygon description="&lt;b&gt;TCUR_RS09360&lt;/b&gt;&lt;br&gt;mechanosensitive ion channel&lt;br&gt;Location: 2239673 - 2238711" locus_tag="TCUR_RS09360" points="156,85 161,80 168,80 168,90 161,90 156,85 " style="fill:white; stroke:black; stroke-width:1; " id="dummy-1_h1_6_15" class="clusterblast-orf"  />
</g>
<g id="a1_0016"  >
<polygon description="&lt;b&gt;TCUR_RS09355&lt;/b&gt;&lt;br&gt;CocE/NonD family hydrolase&lt;br&gt;Location: 2238465 - 2236828" locus_tag="TCUR_RS09355" points="171,90 186,90 191,85 186,80 171,80 171,90 " style="fill:white; stroke:black; stroke-width:1; " id="dummy-1_h1_6_16" class="clusterblast-orf"  />
</g>
<g id="a1_0017"  >
<polygon description="&lt;b&gt;TCUR_RS09350&lt;/b&gt;&lt;br&gt;peroxiredoxin&lt;br&gt;Location: 2236810 - 2236355" locus_tag="TCUR_RS09350" points="191,85 196,80 197,80 197,90 196,90 191,85 " style="fill:white; stroke:black; stroke-width:1; " id="dummy-1_h1_6_17" class="clusterblast-orf"  />
</g>
<g id="a1_0018"  >
<polygon description="&lt;b&gt;TCUR_RS09345&lt;/b&gt;&lt;br&gt;hypothetical protein&lt;br&gt;Location: 2236338 - 2235691" locus_tag="TCUR_RS09345" points="197,85 202,80 205,80 205,90 202,90 197,85 " style="fill:white; stroke:black; stroke-width:1; " id="dummy-1_h1_6_18" class="clusterblast-orf"  />
</g>
<g id="a1_0019"  >
<polygon description="&lt;b&gt;TCUR_RS09340&lt;/b&gt;&lt;br&gt;glycosyltransferase&lt;br&gt;Location: 2235456 - 2234209" locus_tag="TCUR_RS09340" points="208,90 218,90 223,85 218,80 208,80 208,90 " style="fill:white; stroke:black; stroke-width:1; " id="dummy-1_h1_6_19" class="clusterblast-orf"  />
</g>
<g id="a1_0020"  >
<polygon description="&lt;b&gt;TCUR_RS09335&lt;/b&gt;&lt;br&gt;thioesterase&lt;br&gt;Location: 2234189 - 2233449" locus_tag="TCUR_RS09335" points="223,85 228,80 232,80 232,90 228,90 223,85 " style="fill:white; stroke:black; stroke-width:1; " id="dummy-1_h1_6_20" class="clusterblast-orf"  />
</g>
<g id="a1_0021"  >
<polygon description="&lt;b&gt;TCUR_RS09330&lt;/b&gt;&lt;br&gt;MbtH family protein&lt;br&gt;Location: 2233420 - 2233205" locus_tag="TCUR_RS09330" points="233,85 235,80 235,90 233,85 " style="fill:white; stroke:black; stroke-width:1; " id="dummy-1_h1_6_21" class="clusterblast-orf"  />
</g>
<g id="a1_0022"  >
<polygon description="&lt;b&gt;TCUR_RS09325&lt;/b&gt;&lt;br&gt;non-ribosomal peptide synthetase&lt;br&gt;Location: 2233164 - 2229217&lt;br&gt;&lt;br&gt;&lt;b&gt;BlastP hit with cds1329_2178&lt;/b&gt;&lt;br&gt;Percentage identity: 32&lt;br&gt;Percentage coverage: 89&lt;br&gt;BLAST bit score: 113&lt;br&gt;E-value: 3.6e-23" locus_tag="TCUR_RS09325" points="236,85 241,80 284,80 284,90 241,90 236,85 " style="fill:#5cd815; stroke:black; stroke-width:1; " id="dummy-1_h1_6_22" class="clusterblast-orf"  />
</g>
<g id="a1_0023"  >
<polygon description="&lt;b&gt;TCUR_RS09320&lt;/b&gt;&lt;br&gt;non-ribosomal peptide synthetase&lt;br&gt;Location: 2229220 - 2221376&lt;br&gt;&lt;br&gt;&lt;b&gt;BlastP hit with cds2170_5335&lt;/b&gt;&lt;br&gt;Percentage identity: 38&lt;br&gt;Percentage coverage: 102&lt;br&gt;BLAST bit score: 625&lt;br&gt;E-value: 1e-176" locus_tag="TCUR_RS09320" points="284,85 289,80 380,80 380,90 289,90 284,85 " style="fill:#15a3d8; stroke:black; stroke-width:1; " id="dummy-1_h1_6_23" class="clusterblast-orf"  />
</g>
<g id="a1_0024"  >
<polygon description="&lt;b&gt;TCUR_RS09315&lt;/b&gt;&lt;br&gt;non-ribosomal peptide synthetase&lt;br&gt;Location: 2221379 - 2210247&lt;br&gt;&lt;br&gt;&lt;b&gt;BlastP hit with cds2170_5335&lt;/b&gt;&lt;br&gt;Percentage identity: 38&lt;br&gt;Percentage coverage: 102&lt;br&gt;BLAST bit score: 620&lt;br&gt;E-value: 3.4e-175" locus_tag="TCUR_RS09315" points="380,85 385,80 517,80 517,90 385,90 380,85 " style="fill:#15a3d8; stroke:black; stroke-width:1; " id="dummy-1_h1_6_24" class="clusterblast-orf"  />
</g>
<g id="a1_0025"  >
<polygon description="&lt;b&gt;TCUR_RS09310&lt;/b&gt;&lt;br&gt;amino acid adenylation domain-containing protein&lt;br&gt;Location: 2209844 - 2208348" locus_tag="TCUR_RS09310" points="522,85 527,80 540,80 540,90 527,90 522,85 " style="fill:white; stroke:black; stroke-width:1; " id="dummy-1_h1_6_25" class="clusterblast-orf"  />
</g>
<g id="a1_0026"  >
<polygon description="&lt;b&gt;TCUR_RS09305&lt;/b&gt;&lt;br&gt;2,3-diaminopropionate biosynthesis protein SbnA&lt;br&gt;Location: 2207994 - 2206993&lt;br&gt;&lt;br&gt;&lt;b&gt;BlastP hit with cds9921_10923&lt;/b&gt;&lt;br&gt;Percentage identity: 49&lt;br&gt;Percentage coverage: 85&lt;br&gt;BLAST bit score: 265&lt;br&gt;E-value: 8.7e-69" locus_tag="TCUR_RS09305" points="544,90 552,90 557,85 552,80 544,80 544,90 " style="fill:#1539d8; stroke:black; stroke-width:1; " id="dummy-1_h1_6_26" class="clusterblast-orf"  />
</g>
<g id="a1_0027"  >
<polygon description="&lt;b&gt;TCUR_RS09300&lt;/b&gt;&lt;br&gt;2,3-diaminopropionate biosynthesis protein SbnB&lt;br&gt;Location: 2206949 - 2205924&lt;br&gt;&lt;br&gt;&lt;b&gt;BlastP hit with cds8930_9935&lt;/b&gt;&lt;br&gt;Percentage identity: 51&lt;br&gt;Percentage coverage: 102&lt;br&gt;BLAST bit score: 296&lt;br&gt;E-value: 3.5e-78" locus_tag="TCUR_RS09300" points="557,90 565,90 570,85 565,80 557,80 557,90 " style="fill:#15d839; stroke:black; stroke-width:1; " id="dummy-1_h1_6_27" class="clusterblast-orf"  />
</g>
<g id="a1_0028"  >
<polygon description="&lt;b&gt;TCUR_RS25550&lt;/b&gt;&lt;br&gt;DNA-binding response regulator&lt;br&gt;Location: 2205834 - 2205357" locus_tag="TCUR_RS25550" points="571,90 572,90 577,85 572,80 571,80 571,90 " style="fill:white; stroke:black; stroke-width:1; " id="dummy-1_h1_6_28" class="clusterblast-orf"  />
</g>
<g id="a1_0029"  >
<polygon description="&lt;b&gt;TCUR_RS09290&lt;/b&gt;&lt;br&gt;hypothetical protein&lt;br&gt;Location: 2205313 - 2204955" locus_tag="TCUR_RS09290" points="577,90 577,90 582,85 577,80 577,80 577,90 " style="fill:white; stroke:black; stroke-width:1; " id="dummy-1_h1_6_29" class="clusterblast-orf"  />
</g>
<g id="a1_0030"  >
<polygon description="&lt;b&gt;TCUR_RS09285&lt;/b&gt;&lt;br&gt;hypothetical protein&lt;br&gt;Location: 2204925 - 2204683" locus_tag="TCUR_RS09285" points="582,90 585,85 582,80 582,90 " style="fill:white; stroke:black; stroke-width:1; " id="dummy-1_h1_6_30" class="clusterblast-orf"  />
</g>
<g id="a1_0031"  >
<polygon description="&lt;b&gt;TCUR_RS09280&lt;/b&gt;&lt;br&gt;acyl-CoA/acyl-ACP dehydrogenase&lt;br&gt;Location: 2204641 - 2203532" locus_tag="TCUR_RS09280" points="585,90 594,90 599,85 594,80 585,80 585,90 " style="fill:white; stroke:black; stroke-width:1; " id="dummy-1_h1_6_31" class="clusterblast-orf"  />
</g>
<g id="a1_0032"  >
<polygon description="&lt;b&gt;TCUR_RS09275&lt;/b&gt;&lt;br&gt;ADP-ribosylglycohydrolase family protein&lt;br&gt;Location: 2203505 - 2202501" locus_tag="TCUR_RS09275" points="599,90 607,90 612,85 607,80 599,80 599,90 " style="fill:white; stroke:black; stroke-width:1; " id="dummy-1_h1_6_32" class="clusterblast-orf"  />
</g>
<g id="a1_0033"  >
<polygon description="&lt;b&gt;TCUR_RS09270&lt;/b&gt;&lt;br&gt;class II aldolase/adducin family protein&lt;br&gt;Location: 2202339 - 2201695" locus_tag="TCUR_RS09270" points="614,85 619,80 622,80 622,90 619,90 614,85 " style="fill:white; stroke:black; stroke-width:1; " id="dummy-1_h1_6_33" class="clusterblast-orf"  />
</g>
<g id="a1_0034"  >
<polygon description="&lt;b&gt;TCUR_RS09265&lt;/b&gt;&lt;br&gt;ACT domain-containing protein&lt;br&gt;Location: 2201445 - 2200741" locus_tag="TCUR_RS09265" points="625,85 630,80 633,80 633,90 630,90 625,85 " style="fill:white; stroke:black; stroke-width:1; " id="dummy-1_h1_6_34" class="clusterblast-orf"  />
</g>
<g id="a1_0035"  >
<polygon description="&lt;b&gt;TCUR_RS09260&lt;/b&gt;&lt;br&gt;nucleotide exchange factor GrpE&lt;br&gt;Location: 2200488 - 2199790" locus_tag="TCUR_RS09260" points="636,90 640,90 645,85 640,80 636,80 636,90 " style="fill:white; stroke:black; stroke-width:1; " id="dummy-1_h1_6_35" class="clusterblast-orf"  />
</g>
<g id="a1_0036"  >
<polygon description="&lt;b&gt;TCUR_RS09255&lt;/b&gt;&lt;br&gt;Hsp70 family protein&lt;br&gt;Location: 2199786 - 2198203" locus_tag="TCUR_RS09255" points="645,90 659,90 664,85 659,80 645,80 645,90 " style="fill:white; stroke:black; stroke-width:1; " id="dummy-1_h1_6_36" class="clusterblast-orf"  />
</g>
<g id="a1_0037"  >
<polygon description="&lt;b&gt;TCUR_RS09250&lt;/b&gt;&lt;br&gt;hypothetical protein&lt;br&gt;Location: 2198187 - 2195587" locus_tag="TCUR_RS09250" points="665,90 691,90 696,85 691,80 665,80 665,90 " style="fill:white; stroke:black; stroke-width:1; " id="dummy-1_h1_6_37" class="clusterblast-orf"  />
</g>
<g id="a1_0038"  >
<polygon description="&lt;b&gt;TCUR_RS09245&lt;/b&gt;&lt;br&gt;50S ribosome-binding GTPase&lt;br&gt;Location: 2195584 - 2194352" locus_tag="TCUR_RS09245" points="696,90 707,90 712,85 707,80 696,80 696,90 " style="fill:white; stroke:black; stroke-width:1; " id="dummy-1_h1_6_38" class="clusterblast-orf"  />
</g>
<g id="a1_0039"  >
<polygon description="&lt;b&gt;TCUR_RS27015&lt;/b&gt;&lt;br&gt;hypothetical protein&lt;br&gt;Location: 2194348 - 2191994" locus_tag="TCUR_RS27015" points="712,90 735,90 740,85 735,80 712,80 712,90 " style="fill:white; stroke:black; stroke-width:1; " id="dummy-1_h1_6_39" class="clusterblast-orf"  />
</g>
<g id="a1_0040"  >
<polygon description="&lt;b&gt;TCUR_RS09235&lt;/b&gt;&lt;br&gt;hypothetical protein&lt;br&gt;Location: 2191989 - 2190238" locus_tag="TCUR_RS09235" points="740,90 757,90 762,85 757,80 740,80 740,90 " style="fill:white; stroke:black; stroke-width:1; " id="dummy-1_h1_6_40" class="clusterblast-orf"  />
</g>
<g id="a1_0041"  >
<polygon description="&lt;b&gt;TCUR_RS09230&lt;/b&gt;&lt;br&gt;malonic semialdehyde reductase&lt;br&gt;Location: 2190119 - 2189493" locus_tag="TCUR_RS09230" points="763,90 766,90 771,85 766,80 763,80 763,90 " style="fill:white; stroke:black; stroke-width:1; " id="dummy-1_h1_6_41" class="clusterblast-orf"  />
</g>
<g id="a1_0042"  >
<polygon description="&lt;b&gt;TCUR_RS09225&lt;/b&gt;&lt;br&gt;TetR family transcriptional regulator&lt;br&gt;Location: 2189411 - 2188806" locus_tag="TCUR_RS09225" points="772,85 777,80 780,80 780,90 777,90 772,85 " style="fill:white; stroke:black; stroke-width:1; " id="dummy-1_h1_6_42" class="clusterblast-orf"  />
</g>
</svg>
