<svg y="0" version="1.1" preserveAspectRatio="none" xmlns="http://www.w3.org/2000/svg" height="230" x="0" viewBox="0 0 800 230" xmlns:xlink="http://www.w3.org/1999/xlink" width="800"  >
<g class="clusterblast-cluster" label="Query sequence"  >
<text y="20" class="clusterblast-acc" x="5"  >
Query sequence</text>
<line x2="778.0" y2="35" y1="35" x1="10" style="stroke:grey; stroke-width:1; "  />
<polygon description="&lt;b&gt;cds0_279&lt;/b&gt;&lt;br&gt;Tyrosinase cofactor&lt;br&gt;Location: 0 - 279" locus_tag="cds0_279" points="353,40 357,40 362,35 357,30 353,30 353,40 " style="fill:#d81515; stroke:black; stroke-width:1; " id="dummy-1_q0_0_all" class="clusterblast-orf"  />
<polygon description="&lt;b&gt;cds298_1159&lt;/b&gt;&lt;br&gt;putative tyrosinase&lt;br&gt;Location: 298 - 1159" locus_tag="cds298_1159" points="362,40 383,40 388,35 383,30 362,30 362,40 " style="fill:#15d815; stroke:black; stroke-width:1; " id="dummy-1_q1_0_all" class="clusterblast-orf"  />
<polygon description="&lt;b&gt;cds1212_2415&lt;/b&gt;&lt;br&gt;hypothetical protein&lt;br&gt;Location: 1212 - 2415" locus_tag="cds1212_2415" points="390,35 395,30 426,30 426,40 395,40 390,35 " style="fill:#1515d8; stroke:black; stroke-width:1; " id="dummy-1_q2_0_all" class="clusterblast-orf"  />
</g>
<g description="NZ_CP020555 (541182-568054): Streptomyces sp. Sge12 chromosome, complete genome (12% of genes show similarity), melanin" class="clusterblast-cluster" label="NZ_CP020555"  >
<text y="70" class="clusterblast-acc" x="5"  >
<a xlink:href="https://antismash-db.secondarymetabolites.org/area.html?record=NZ_CP020555&amp;start=541182&amp;end=568054" target="_blank">NZ_CP020555 (541182-568054)</a>: Streptomyces sp. Sge12 chromosome, complete genome (12% of genes show similarity), melanin</text>
<line x2="778.0" y2="85" y1="85" x1="10" style="stroke:grey; stroke-width:1; "  />
</g>
<g id="a1_000"  >
<polygon description="&lt;b&gt;B6R96_RS02495&lt;/b&gt;&lt;br&gt;hypothetical protein&lt;br&gt;Location: 541491 - 542552" locus_tag="B6R96_RS02495" points="0,90 27,90 32,85 27,80 0,80 0,90 " style="fill:white; stroke:black; stroke-width:1; " id="dummy-1_h1_2_0" class="clusterblast-orf"  />
</g>
<g id="a1_001"  >
<polygon description="&lt;b&gt;B6R96_RS02500&lt;/b&gt;&lt;br&gt;hypothetical protein&lt;br&gt;Location: 542587 - 543423" locus_tag="B6R96_RS02500" points="33,85 38,80 58,80 58,90 38,90 33,85 " style="fill:white; stroke:black; stroke-width:1; " id="dummy-1_h1_2_1" class="clusterblast-orf"  />
</g>
<g id="a1_002"  >
<polygon description="&lt;b&gt;B6R96_RS02505&lt;/b&gt;&lt;br&gt;hypothetical protein&lt;br&gt;Location: 543634 - 543834" locus_tag="B6R96_RS02505" points="64,85 69,80 70,80 70,90 69,90 64,85 " style="fill:white; stroke:black; stroke-width:1; " id="dummy-1_h1_2_2" class="clusterblast-orf"  />
</g>
<g id="a1_003"  >
<polygon description="&lt;b&gt;B6R96_RS02510&lt;/b&gt;&lt;br&gt;MerR family DNA-binding transcriptional regulator&lt;br&gt;Location: 543912 - 544652" locus_tag="B6R96_RS02510" points="73,85 78,80 95,80 95,90 78,90 73,85 " style="fill:white; stroke:black; stroke-width:1; " id="dummy-1_h1_2_3" class="clusterblast-orf"  />
</g>
<g id="a1_004"  >
<polygon description="&lt;b&gt;B6R96_RS02515&lt;/b&gt;&lt;br&gt;erythromycin esterase family protein&lt;br&gt;Location: 544711 - 545955" locus_tag="B6R96_RS02515" points="97,90 129,90 134,85 129,80 97,80 97,90 " style="fill:white; stroke:black; stroke-width:1; " id="dummy-1_h1_2_4" class="clusterblast-orf"  />
</g>
<g id="a1_005"  >
<polygon description="&lt;b&gt;B6R96_RS02520&lt;/b&gt;&lt;br&gt;tyrosinase&lt;br&gt;Location: 546183 - 546569&lt;br&gt;&lt;br&gt;&lt;b&gt;BlastP hit with cds0_279&lt;/b&gt;&lt;br&gt;Percentage identity: 59&lt;br&gt;Percentage coverage: 98&lt;br&gt;BLAST bit score: 81&lt;br&gt;E-value: 3.8e-14" locus_tag="B6R96_RS02520" points="141,90 148,90 153,85 148,80 141,80 141,90 " style="fill:#d81515; stroke:black; stroke-width:1; " id="dummy-1_h1_2_5" class="clusterblast-orf"  />
</g>
<g id="a1_006"  >
<polygon description="&lt;b&gt;B6R96_RS02525&lt;/b&gt;&lt;br&gt;tyrosinase family protein&lt;br&gt;Location: 546566 - 547414&lt;br&gt;&lt;br&gt;&lt;b&gt;BlastP hit with cds298_1159&lt;/b&gt;&lt;br&gt;Percentage identity: 78&lt;br&gt;Percentage coverage: 94&lt;br&gt;BLAST bit score: 475&lt;br&gt;E-value: 4.7e-132" locus_tag="B6R96_RS02525" points="153,90 173,90 178,85 173,80 153,80 153,90 " style="fill:#15d815; stroke:black; stroke-width:1; " id="dummy-1_h1_2_6" class="clusterblast-orf"  />
</g>
<g id="a1_007"  >
<polygon description="&lt;b&gt;B6R96_RS02530&lt;/b&gt;&lt;br&gt;response regulator&lt;br&gt;Location: 547369 - 548073" locus_tag="B6R96_RS02530" points="177,85 182,80 198,80 198,90 182,90 177,85 " style="fill:white; stroke:black; stroke-width:1; " id="dummy-1_h1_2_7" class="clusterblast-orf"  />
</g>
<g id="a1_008"  >
<polygon description="&lt;b&gt;B6R96_RS02535&lt;/b&gt;&lt;br&gt;sensor histidine kinase&lt;br&gt;Location: 548070 - 549725" locus_tag="B6R96_RS02535" points="198,85 203,80 248,80 248,90 203,90 198,85 " style="fill:white; stroke:black; stroke-width:1; " id="dummy-1_h1_2_8" class="clusterblast-orf"  />
</g>
<g id="a1_009"  >
<polygon description="&lt;b&gt;B6R96_RS02540&lt;/b&gt;&lt;br&gt;cation:dicarboxylase symporter family transporter&lt;br&gt;Location: 549882 - 551171" locus_tag="B6R96_RS02540" points="253,90 287,90 292,85 287,80 253,80 253,90 " style="fill:white; stroke:black; stroke-width:1; " id="dummy-1_h1_2_9" class="clusterblast-orf"  />
</g>
<g id="a1_0010"  >
<polygon description="&lt;b&gt;B6R96_RS02545&lt;/b&gt;&lt;br&gt;S8 family serine peptidase&lt;br&gt;Location: 551599 - 553371" locus_tag="B6R96_RS02545" points="305,90 353,90 358,85 353,80 305,80 305,90 " style="fill:white; stroke:black; stroke-width:1; " id="dummy-1_h1_2_10" class="clusterblast-orf"  />
</g>
<g id="a1_0011"  >
<polygon description="&lt;b&gt;B6R96_RS02550&lt;/b&gt;&lt;br&gt;alpha/beta fold hydrolase&lt;br&gt;Location: 553388 - 554785" locus_tag="B6R96_RS02550" points="359,85 364,80 401,80 401,90 364,90 359,85 " style="fill:white; stroke:black; stroke-width:1; " id="dummy-1_h1_2_11" class="clusterblast-orf"  />
</g>
<g id="a1_0012"  >
<polygon description="&lt;b&gt;B6R96_RS02555&lt;/b&gt;&lt;br&gt;(2Fe-2S)-binding protein&lt;br&gt;Location: 554892 - 555599" locus_tag="B6R96_RS02555" points="404,85 409,80 426,80 426,90 409,90 404,85 " style="fill:white; stroke:black; stroke-width:1; " id="dummy-1_h1_2_12" class="clusterblast-orf"  />
</g>
<g id="a1_0013"  >
<polygon description="&lt;b&gt;B6R96_RS02560&lt;/b&gt;&lt;br&gt;GNAT family N-acetyltransferase&lt;br&gt;Location: 556132 - 556818" locus_tag="B6R96_RS02560" points="442,90 457,90 462,85 457,80 442,80 442,90 " style="fill:white; stroke:black; stroke-width:1; " id="dummy-1_h1_2_13" class="clusterblast-orf"  />
</g>
<g id="a1_0014"  >
<polygon description="&lt;b&gt;B6R96_RS02565&lt;/b&gt;&lt;br&gt;hypothetical protein&lt;br&gt;Location: 556880 - 557908" locus_tag="B6R96_RS02565" points="464,85 469,80 495,80 495,90 469,90 464,85 " style="fill:white; stroke:black; stroke-width:1; " id="dummy-1_h1_2_14" class="clusterblast-orf"  />
</g>
<g id="a1_0015"  >
<polygon description="&lt;b&gt;B6R96_RS02570&lt;/b&gt;&lt;br&gt;hypothetical protein&lt;br&gt;Location: 558430 - 559458" locus_tag="B6R96_RS02570" points="511,90 537,90 542,85 537,80 511,80 511,90 " style="fill:white; stroke:black; stroke-width:1; " id="dummy-1_h1_2_15" class="clusterblast-orf"  />
</g>
<g id="a1_0016"  >
<polygon description="&lt;b&gt;B6R96_RS02575&lt;/b&gt;&lt;br&gt;carboxylesterase/lipase family protein&lt;br&gt;Location: 559436 - 560902" locus_tag="B6R96_RS02575" points="542,85 547,80 586,80 586,90 547,90 542,85 " style="fill:white; stroke:black; stroke-width:1; " id="dummy-1_h1_2_16" class="clusterblast-orf"  />
</g>
<g id="a1_0017"  >
<polygon description="&lt;b&gt;B6R96_RS02580&lt;/b&gt;&lt;br&gt;hypothetical protein&lt;br&gt;Location: 561002 - 561325" locus_tag="B6R96_RS02580" points="589,90 594,90 599,85 594,80 589,80 589,90 " style="fill:white; stroke:black; stroke-width:1; " id="dummy-1_h1_2_17" class="clusterblast-orf"  />
</g>
<g id="a1_0018"  >
<polygon description="&lt;b&gt;B6R96_RS02585&lt;/b&gt;&lt;br&gt;chaplin&lt;br&gt;Location: 561423 - 561710" locus_tag="B6R96_RS02585" points="602,90 605,90 610,85 605,80 602,80 602,90 " style="fill:white; stroke:black; stroke-width:1; " id="dummy-1_h1_2_18" class="clusterblast-orf"  />
</g>
<g id="a1_0019"  >
<polygon description="&lt;b&gt;B6R96_RS02590&lt;/b&gt;&lt;br&gt;tyrosinase family protein&lt;br&gt;Location: 561792 - 562655&lt;br&gt;&lt;br&gt;&lt;b&gt;BlastP hit with cds298_1159&lt;/b&gt;&lt;br&gt;Percentage identity: 52&lt;br&gt;Percentage coverage: 100&lt;br&gt;BLAST bit score: 309&lt;br&gt;E-value: 3.4e-82" locus_tag="B6R96_RS02590" points="613,85 618,80 639,80 639,90 618,90 613,85 " style="fill:#15d815; stroke:black; stroke-width:1; " id="dummy-1_h1_2_19" class="clusterblast-orf"  />
</g>
<g id="a1_0020"  >
<polygon description="&lt;b&gt;B6R96_RS02595&lt;/b&gt;&lt;br&gt;hypothetical protein&lt;br&gt;Location: 562686 - 563054" locus_tag="B6R96_RS02595" points="640,85 645,80 651,80 651,90 645,90 640,85 " style="fill:white; stroke:black; stroke-width:1; " id="dummy-1_h1_2_20" class="clusterblast-orf"  />
</g>
<g id="a1_0021"  >
<polygon description="&lt;b&gt;B6R96_RS02600&lt;/b&gt;&lt;br&gt;GNAT family N-acetyltransferase&lt;br&gt;Location: 563115 - 563654" locus_tag="B6R96_RS02600" points="653,85 658,80 669,80 669,90 658,90 653,85 " style="fill:white; stroke:black; stroke-width:1; " id="dummy-1_h1_2_21" class="clusterblast-orf"  />
</g>
<g id="a1_0022"  >
<polygon description="&lt;b&gt;B6R96_RS02605&lt;/b&gt;&lt;br&gt;acyl-CoA/acyl-ACP dehydrogenase&lt;br&gt;Location: 563966 - 565150" locus_tag="B6R96_RS02605" points="678,85 683,80 714,80 714,90 683,90 678,85 " style="fill:white; stroke:black; stroke-width:1; " id="dummy-1_h1_2_22" class="clusterblast-orf"  />
</g>
<g id="a1_0023"  >
<polygon description="&lt;b&gt;B6R96_RS02610&lt;/b&gt;&lt;br&gt;acyl-CoA dehydrogenase&lt;br&gt;Location: 565147 - 566340" locus_tag="B6R96_RS02610" points="714,85 719,80 750,80 750,90 719,90 714,85 " style="fill:white; stroke:black; stroke-width:1; " id="dummy-1_h1_2_23" class="clusterblast-orf"  />
</g>
<g id="a1_0024"  >
<polygon description="&lt;b&gt;B6R96_RS02615&lt;/b&gt;&lt;br&gt;NADPH:quinone oxidoreductase family protein&lt;br&gt;Location: 566337 - 567314" locus_tag="B6R96_RS02615" points="750,85 755,80 780,80 780,90 755,90 750,85 " style="fill:white; stroke:black; stroke-width:1; " id="dummy-1_h1_2_24" class="clusterblast-orf"  />
</g>
</svg>
