<svg y="0" version="1.1" preserveAspectRatio="none" xmlns="http://www.w3.org/2000/svg" height="230" x="0" viewBox="0 0 800 230" xmlns:xlink="http://www.w3.org/1999/xlink" width="800"  >
<g class="clusterblast-cluster" label="Query sequence"  >
<text y="20" class="clusterblast-acc" x="5"  >
Query sequence</text>
<line x2="778.0" y2="35" y1="35" x1="10" style="stroke:grey; stroke-width:1; "  />
<polygon description="&lt;b&gt;cds1_2236&lt;/b&gt;&lt;br&gt;Germacradienol/germacrene D synthase (EC 4.2.3.22)&lt;br&gt;Location: 1 - 2236" locus_tag="cds1_2236" points="279,35 284,30 366,30 366,40 284,40 279,35 " style="fill:#d81515; stroke:black; stroke-width:1; " id="dummy-1_q0_0_all" class="clusterblast-orf"  />
<polygon description="&lt;b&gt;cds2494_3610&lt;/b&gt;&lt;br&gt;hypothetical protein&lt;br&gt;Location: 2494 - 3610" locus_tag="cds2494_3610" points="377,35 382,30 420,30 420,40 382,40 377,35 " style="fill:#77d815; stroke:black; stroke-width:1; " id="dummy-1_q1_0_all" class="clusterblast-orf"  />
<polygon description="&lt;b&gt;cds3841_5335&lt;/b&gt;&lt;br&gt;Putative regulatory protein&lt;br&gt;Location: 3841 - 5335" locus_tag="cds3841_5335" points="429,40 483,40 488,35 483,30 429,30 429,40 " style="fill:#15d8d8; stroke:black; stroke-width:1; " id="dummy-1_q2_0_all" class="clusterblast-orf"  />
<polygon description="&lt;b&gt;cds5487_5667&lt;/b&gt;&lt;br&gt;Putative uncharacterized protein SCO3284&lt;br&gt;Location: 5487 - 5667" locus_tag="cds5487_5667" points="494,35 499,30 501,30 501,40 499,40 494,35 " style="fill:#7715d8; stroke:black; stroke-width:1; " id="dummy-1_q3_0_all" class="clusterblast-orf"  />
</g>
<g description="NZ_CP017316 (138392-158240): Streptomyces rubrolavendulae strain MJM4426 chro... (21% of genes show similarity), terpene" class="clusterblast-cluster" label="NZ_CP017316"  >
<text y="70" class="clusterblast-acc" x="5"  >
<a xlink:href="https://antismash-db.secondarymetabolites.org/area.html?record=NZ_CP017316&amp;start=138392&amp;end=158240" target="_blank">NZ_CP017316 (138392-158240)</a>: Streptomyces rubrolavendulae strain MJM4426 chro... (21% of genes show similarity), terpene</text>
<line x2="778.0" y2="85" y1="85" x1="10" style="stroke:grey; stroke-width:1; "  />
</g>
<g id="a1_000"  >
<polygon description="&lt;b&gt;A4G23_RS00625&lt;/b&gt;&lt;br&gt;hypothetical protein&lt;br&gt;Location: 158240 - 158061" locus_tag="A4G23_RS00625" points="0,85 5,80 7,80 7,90 5,90 0,85 " style="fill:white; stroke:black; stroke-width:1; " id="dummy-1_h1_1_0" class="clusterblast-orf"  />
</g>
<g id="a1_001"  >
<polygon description="&lt;b&gt;A4G23_RS00620&lt;/b&gt;&lt;br&gt;antitoxin&lt;br&gt;Location: 157783 - 157583" locus_tag="A4G23_RS00620" points="17,85 22,80 25,80 25,90 22,90 17,85 " style="fill:white; stroke:black; stroke-width:1; " id="dummy-1_h1_1_1" class="clusterblast-orf"  />
</g>
<g id="a1_002"  >
<polygon description="&lt;b&gt;A4G23_RS00615&lt;/b&gt;&lt;br&gt;serine hydrolase&lt;br&gt;Location: 157464 - 155602" locus_tag="A4G23_RS00615" points="30,85 35,80 103,80 103,90 35,90 30,85 " style="fill:white; stroke:black; stroke-width:1; " id="dummy-1_h1_1_2" class="clusterblast-orf"  />
</g>
<g id="a1_003"  >
<polygon description="&lt;b&gt;A4G23_RS00610&lt;/b&gt;&lt;br&gt;penicillin amidase&lt;br&gt;Location: 155393 - 152928" locus_tag="A4G23_RS00610" points="111,85 116,80 208,80 208,90 116,90 111,85 " style="fill:white; stroke:black; stroke-width:1; " id="dummy-1_h1_1_3" class="clusterblast-orf"  />
</g>
<g id="a1_004"  >
<polygon description="&lt;b&gt;A4G23_RS00605&lt;/b&gt;&lt;br&gt;phenylacetate--CoA ligase&lt;br&gt;Location: 152846 - 151551" locus_tag="A4G23_RS00605" points="211,85 216,80 262,80 262,90 216,90 211,85 " style="fill:white; stroke:black; stroke-width:1; " id="dummy-1_h1_1_4" class="clusterblast-orf"  />
</g>
<g id="a1_005"  >
<polygon description="&lt;b&gt;A4G23_RS00600&lt;/b&gt;&lt;br&gt;hypothetical protein&lt;br&gt;Location: 150828 - 150328" locus_tag="A4G23_RS00600" points="291,90 305,90 310,85 305,80 291,80 291,90 " style="fill:white; stroke:black; stroke-width:1; " id="dummy-1_h1_1_5" class="clusterblast-orf"  />
</g>
<g id="a1_006"  >
<polygon description="&lt;b&gt;A4G23_RS00595&lt;/b&gt;&lt;br&gt;RNA-binding S4 domain-containing protein&lt;br&gt;Location: 150268 - 149855" locus_tag="A4G23_RS00595" points="313,90 324,90 329,85 324,80 313,80 313,90 " style="fill:white; stroke:black; stroke-width:1; " id="dummy-1_h1_1_6" class="clusterblast-orf"  />
</g>
<g id="a1_007"  >
<polygon description="&lt;b&gt;A4G23_RS00590&lt;/b&gt;&lt;br&gt;germacradienol/geosmin synthase&lt;br&gt;Location: 149833 - 147572&lt;br&gt;&lt;br&gt;&lt;b&gt;BlastP hit with cds1_2236&lt;/b&gt;&lt;br&gt;Percentage identity: 82&lt;br&gt;Percentage coverage: 96&lt;br&gt;BLAST bit score: 1228&lt;br&gt;E-value: 0.0" locus_tag="A4G23_RS00590" points="330,85 335,80 419,80 419,90 335,90 330,85 " style="fill:#d81515; stroke:black; stroke-width:1; " id="dummy-1_h1_1_7" class="clusterblast-orf"  />
</g>
<g id="a1_008"  >
<polygon description="&lt;b&gt;A4G23_RS00585&lt;/b&gt;&lt;br&gt;aminoglycoside phosphotransferase family protein&lt;br&gt;Location: 147256 - 146141&lt;br&gt;&lt;br&gt;&lt;b&gt;BlastP hit with cds2494_3610&lt;/b&gt;&lt;br&gt;Percentage identity: 84&lt;br&gt;Percentage coverage: 100&lt;br&gt;BLAST bit score: 636&lt;br&gt;E-value: 2.1e-180" locus_tag="A4G23_RS00585" points="431,85 436,80 475,80 475,90 436,90 431,85 " style="fill:#77d815; stroke:black; stroke-width:1; " id="dummy-1_h1_1_8" class="clusterblast-orf"  />
</g>
<g id="a1_009"  >
<polygon description="&lt;b&gt;A4G23_RS00580&lt;/b&gt;&lt;br&gt;hypothetical protein&lt;br&gt;Location: 145910 - 144420&lt;br&gt;&lt;br&gt;&lt;b&gt;BlastP hit with cds3841_5335&lt;/b&gt;&lt;br&gt;Percentage identity: 83&lt;br&gt;Percentage coverage: 100&lt;br&gt;BLAST bit score: 832&lt;br&gt;E-value: 2.7e-239" locus_tag="A4G23_RS00580" points="484,90 538,90 543,85 538,80 484,80 484,90 " style="fill:#15d8d8; stroke:black; stroke-width:1; " id="dummy-1_h1_1_9" class="clusterblast-orf"  />
</g>
<g id="a1_0010"  >
<polygon description="&lt;b&gt;A4G23_RS00575&lt;/b&gt;&lt;br&gt;SpoIIE family protein phosphatase&lt;br&gt;Location: 144040 - 142598" locus_tag="A4G23_RS00575" points="558,85 563,80 614,80 614,90 563,90 558,85 " style="fill:white; stroke:black; stroke-width:1; " id="dummy-1_h1_1_10" class="clusterblast-orf"  />
</g>
<g id="a1_0011"  >
<polygon description="&lt;b&gt;A4G23_RS00570&lt;/b&gt;&lt;br&gt;NAD-dependent epimerase/dehydratase family protein&lt;br&gt;Location: 142211 - 141177" locus_tag="A4G23_RS00570" points="629,90 665,90 670,85 665,80 629,80 629,90 " style="fill:white; stroke:black; stroke-width:1; " id="dummy-1_h1_1_11" class="clusterblast-orf"  />
</g>
<g id="a1_0012"  >
<polygon description="&lt;b&gt;A4G23_RS00565&lt;/b&gt;&lt;br&gt;VOC family protein&lt;br&gt;Location: 140993 - 140124" locus_tag="A4G23_RS00565" points="677,85 682,80 711,80 711,90 682,90 677,85 " style="fill:white; stroke:black; stroke-width:1; " id="dummy-1_h1_1_12" class="clusterblast-orf"  />
</g>
<g id="a1_0013"  >
<polygon description="&lt;b&gt;A4G23_RS00560&lt;/b&gt;&lt;br&gt;hypothetical protein&lt;br&gt;Location: 139898 - 138393" locus_tag="A4G23_RS00560" points="720,90 774,90 779,85 774,80 720,80 720,90 " style="fill:white; stroke:black; stroke-width:1; " id="dummy-1_h1_1_13" class="clusterblast-orf"  />
</g>
</svg>
