<svg y="0" version="1.1" preserveAspectRatio="none" xmlns="http://www.w3.org/2000/svg" height="230" x="0" viewBox="0 0 800 230" xmlns:xlink="http://www.w3.org/1999/xlink" width="800"  >
<g class="clusterblast-cluster" label="Query sequence"  >
<text y="20" class="clusterblast-acc" x="5"  >
Query sequence</text>
<line x2="778.0" y2="35" y1="35" x1="10" style="stroke:grey; stroke-width:1; "  />
<polygon description="&lt;b&gt;cds2_407&lt;/b&gt;&lt;br&gt;Integral membrane protein&lt;br&gt;Location: 2 - 407" locus_tag="cds2_407" points="321,35 326,30 329,30 329,40 326,40 321,35 " style="fill:#d81515; stroke:black; stroke-width:1; " id="dummy-1_q0_0_all" class="clusterblast-orf"  />
<polygon description="&lt;b&gt;cds558_855&lt;/b&gt;&lt;br&gt;hypothetical protein&lt;br&gt;Location: 558 - 855" locus_tag="cds558_855" points="332,35 337,30 338,30 338,40 337,40 332,35 " style="fill:#15d815; stroke:black; stroke-width:1; " id="dummy-1_q1_0_all" class="clusterblast-orf"  />
<polygon description="&lt;b&gt;cds895_1039&lt;/b&gt;&lt;br&gt;hypothetical protein&lt;br&gt;Location: 895 - 1039" locus_tag="cds895_1039" points="338,35 341,30 341,40 338,35 " style="fill:white; stroke:black; stroke-width:1; " id="dummy-1_q2_0_all" class="clusterblast-orf"  />
<polygon description="&lt;b&gt;cds1035_1974&lt;/b&gt;&lt;br&gt;hypothetical protein&lt;br&gt;Location: 1035 - 1974" locus_tag="cds1035_1974" points="341,35 346,30 359,30 359,40 346,40 341,35 " style="fill:#1515d8; stroke:black; stroke-width:1; " id="dummy-1_q3_0_all" class="clusterblast-orf"  />
<polygon description="&lt;b&gt;cds1970_3068&lt;/b&gt;&lt;br&gt;Efflux ABC transporter, ATP-binding protein&lt;br&gt;Location: 1970 - 3068" locus_tag="cds1970_3068" points="359,35 364,30 381,30 381,40 364,40 359,35 " style="fill:#d815d8; stroke:black; stroke-width:1; " id="dummy-1_q4_0_all" class="clusterblast-orf"  />
<polygon description="&lt;b&gt;cds3367_3523&lt;/b&gt;&lt;br&gt;hypothetical protein&lt;br&gt;Location: 3367 - 3523" locus_tag="cds3367_3523" points="386,35 389,30 389,40 386,35 " style="fill:#d8d815; stroke:black; stroke-width:1; " id="dummy-1_q5_0_all" class="clusterblast-orf"  />
<polygon description="&lt;b&gt;cds3570_6240&lt;/b&gt;&lt;br&gt;hypothetical protein&lt;br&gt;Location: 3570 - 6240" locus_tag="cds3570_6240" points="390,35 395,30 442,30 442,40 395,40 390,35 " style="fill:#15d8d8; stroke:black; stroke-width:1; " id="dummy-1_q6_0_all" class="clusterblast-orf"  />
<polygon description="&lt;b&gt;cds6871_7078&lt;/b&gt;&lt;br&gt;hypothetical protein&lt;br&gt;Location: 6871 - 7078" locus_tag="cds6871_7078" points="454,35 458,30 458,40 454,35 " style="fill:white; stroke:black; stroke-width:1; " id="dummy-1_q7_0_all" class="clusterblast-orf"  />
</g>
<g description="NZ_CP034350 (40773-82168): Streptomyces sp. W1SF4 chromosome, complete genome (10% of genes show similarity), lanthipeptide,other" class="clusterblast-cluster" label="NZ_CP034350"  >
<text y="70" class="clusterblast-acc" x="5"  >
<a xlink:href="https://antismash-db.secondarymetabolites.org/area.html?record=NZ_CP034350&amp;start=40773&amp;end=82168" target="_blank">NZ_CP034350 (40773-82168)</a>: Streptomyces sp. W1SF4 chromosome, complete genome (10% of genes show similarity), lanthipeptide,other</text>
<line x2="778.0" y2="85" y1="85" x1="10" style="stroke:grey; stroke-width:1; "  />
</g>
<g id="a1_000"  >
<polygon description="&lt;b&gt;D1J60_RS00455&lt;/b&gt;&lt;br&gt;protein kinase&lt;br&gt;Location: 81319 - 80102" locus_tag="D1J60_RS00455" points="0,90 18,90 23,85 18,80 0,80 0,90 " style="fill:white; stroke:black; stroke-width:1; " id="dummy-1_h1_4_0" class="clusterblast-orf"  />
</g>
<g id="a1_001"  >
<polygon description="&lt;b&gt;D1J60_RS00450&lt;/b&gt;&lt;br&gt;hypothetical protein&lt;br&gt;Location: 79932 - 79627" locus_tag="D1J60_RS00450" points="26,90 27,90 32,85 27,80 26,80 26,90 " style="fill:white; stroke:black; stroke-width:1; " id="dummy-1_h1_4_1" class="clusterblast-orf"  />
</g>
<g id="a1_002"  >
<polygon description="&lt;b&gt;D1J60_RS00445&lt;/b&gt;&lt;br&gt;hypothetical protein&lt;br&gt;Location: 79622 - 78345" locus_tag="D1J60_RS00445" points="32,85 37,80 57,80 57,90 37,90 32,85 " style="fill:white; stroke:black; stroke-width:1; " id="dummy-1_h1_4_2" class="clusterblast-orf"  />
</g>
<g id="a1_003"  >
<polygon description="&lt;b&gt;D1J60_RS00440&lt;/b&gt;&lt;br&gt;hypothetical protein&lt;br&gt;Location: 78004 - 77720" locus_tag="D1J60_RS00440" points="64,90 64,90 69,85 64,80 64,80 64,90 " style="fill:white; stroke:black; stroke-width:1; " id="dummy-1_h1_4_3" class="clusterblast-orf"  />
</g>
<g id="a1_004"  >
<polygon description="&lt;b&gt;D1J60_RS00430&lt;/b&gt;&lt;br&gt;PRC-barrel domain containing protein&lt;br&gt;Location: 77571 - 77221" locus_tag="D1J60_RS00430" points="72,85 77,80 79,80 79,90 77,90 72,85 " style="fill:white; stroke:black; stroke-width:1; " id="dummy-1_h1_4_4" class="clusterblast-orf"  />
</g>
<g id="a1_005"  >
<polygon description="&lt;b&gt;D1J60_RS00420&lt;/b&gt;&lt;br&gt;hypothetical protein&lt;br&gt;Location: 76546 - 75227" locus_tag="D1J60_RS00420" points="92,85 97,80 118,80 118,90 97,90 92,85 " style="fill:white; stroke:black; stroke-width:1; " id="dummy-1_h1_4_5" class="clusterblast-orf"  />
</g>
<g id="a1_006"  >
<polygon description="&lt;b&gt;D1J60_RS00415&lt;/b&gt;&lt;br&gt;hypothetical protein&lt;br&gt;Location: 74905 - 74711" locus_tag="D1J60_RS00415" points="124,90 128,85 124,80 124,90 " style="fill:white; stroke:black; stroke-width:1; " id="dummy-1_h1_4_6" class="clusterblast-orf"  />
</g>
<g id="a1_007"  >
<polygon description="&lt;b&gt;D1J60_RS00410&lt;/b&gt;&lt;br&gt;IS5 family transposase&lt;br&gt;Location: 74657 - 73778" locus_tag="D1J60_RS00410" points="129,90 141,90 146,85 141,80 129,80 129,90 " style="fill:white; stroke:black; stroke-width:1; " id="dummy-1_h1_4_7" class="clusterblast-orf"  />
</g>
<g id="a1_008"  >
<polygon description="&lt;b&gt;D1J60_RS00405&lt;/b&gt;&lt;br&gt;hypothetical protein&lt;br&gt;Location: 73704 - 73411" locus_tag="D1J60_RS00405" points="147,90 148,90 153,85 148,80 147,80 147,90 " style="fill:white; stroke:black; stroke-width:1; " id="dummy-1_h1_4_8" class="clusterblast-orf"  />
</g>
<g id="a1_009"  >
<polygon description="&lt;b&gt;D1J60_RS00400&lt;/b&gt;&lt;br&gt;SsgA family sporulation/cell division regulator&lt;br&gt;Location: 73038 - 72610" locus_tag="D1J60_RS00400" points="160,90 164,90 169,85 164,80 160,80 160,90 " style="fill:white; stroke:black; stroke-width:1; " id="dummy-1_h1_4_9" class="clusterblast-orf"  />
</g>
<g id="a1_0010"  >
<polygon description="&lt;b&gt;D1J60_RS00395&lt;/b&gt;&lt;br&gt;hypothetical protein&lt;br&gt;Location: 72430 - 72119" locus_tag="D1J60_RS00395" points="172,90 173,90 178,85 173,80 172,80 172,90 " style="fill:white; stroke:black; stroke-width:1; " id="dummy-1_h1_4_10" class="clusterblast-orf"  />
</g>
<g id="a1_0011"  >
<polygon description="&lt;b&gt;D1J60_RS00390&lt;/b&gt;&lt;br&gt;erythromycin esterase family protein&lt;br&gt;Location: 71785 - 70373" locus_tag="D1J60_RS00390" points="185,90 207,90 212,85 207,80 185,80 185,90 " style="fill:white; stroke:black; stroke-width:1; " id="dummy-1_h1_4_11" class="clusterblast-orf"  />
</g>
<g id="a1_0012"  >
<polygon description="&lt;b&gt;D1J60_RS00385&lt;/b&gt;&lt;br&gt;hypothetical protein&lt;br&gt;Location: 70024 - 69500" locus_tag="D1J60_RS00385" points="219,90 224,90 229,85 224,80 219,80 219,90 " style="fill:white; stroke:black; stroke-width:1; " id="dummy-1_h1_4_12" class="clusterblast-orf"  />
</g>
<g id="a1_0013"  >
<polygon description="&lt;b&gt;D1J60_RS00380&lt;/b&gt;&lt;br&gt;hypothetical protein&lt;br&gt;Location: 69584 - 69063" locus_tag="D1J60_RS00380" points="228,90 233,90 238,85 233,80 228,80 228,90 " style="fill:white; stroke:black; stroke-width:1; " id="dummy-1_h1_4_13" class="clusterblast-orf"  />
</g>
<g id="a1_0014"  >
<polygon description="&lt;b&gt;D1J60_RS00375&lt;/b&gt;&lt;br&gt;hypothetical protein&lt;br&gt;Location: 68994 - 68518" locus_tag="D1J60_RS00375" points="239,85 244,80 248,80 248,90 244,90 239,85 " style="fill:white; stroke:black; stroke-width:1; " id="dummy-1_h1_4_14" class="clusterblast-orf"  />
</g>
<g id="a1_0015"  >
<polygon description="&lt;b&gt;D1J60_RS00370&lt;/b&gt;&lt;br&gt;cupin domain-containing protein&lt;br&gt;Location: 68068 - 67544" locus_tag="D1J60_RS00370" points="257,90 262,90 267,85 262,80 257,80 257,90 " style="fill:white; stroke:black; stroke-width:1; " id="dummy-1_h1_4_15" class="clusterblast-orf"  />
</g>
<g id="a1_0016"  >
<polygon description="&lt;b&gt;D1J60_RS00365&lt;/b&gt;&lt;br&gt;VOC family protein&lt;br&gt;Location: 66834 - 66430" locus_tag="D1J60_RS00365" points="281,85 286,80 289,80 289,90 286,90 281,85 " style="fill:white; stroke:black; stroke-width:1; " id="dummy-1_h1_4_16" class="clusterblast-orf"  />
</g>
<g id="a1_0017"  >
<polygon description="&lt;b&gt;D1J60_RS00360&lt;/b&gt;&lt;br&gt;hypothetical protein&lt;br&gt;Location: 66371 - 66033" locus_tag="D1J60_RS00360" points="290,85 295,80 297,80 297,90 295,90 290,85 " style="fill:white; stroke:black; stroke-width:1; " id="dummy-1_h1_4_17" class="clusterblast-orf"  />
</g>
<g id="a1_0018"  >
<polygon description="&lt;b&gt;D1J60_RS00355&lt;/b&gt;&lt;br&gt;MFS transporter&lt;br&gt;Location: 65496 - 64255" locus_tag="D1J60_RS00355" points="307,85 312,80 331,80 331,90 312,90 307,85 " style="fill:white; stroke:black; stroke-width:1; " id="dummy-1_h1_4_18" class="clusterblast-orf"  />
</g>
<g id="a1_0019"  >
<polygon description="&lt;b&gt;D1J60_RS00350&lt;/b&gt;&lt;br&gt;phosphoenolpyruvate synthase&lt;br&gt;Location: 64171 - 62240" locus_tag="D1J60_RS00350" points="333,85 338,80 370,80 370,90 338,90 333,85 " style="fill:white; stroke:black; stroke-width:1; " id="dummy-1_h1_4_19" class="clusterblast-orf"  />
</g>
<g id="a1_0020"  >
<polygon description="&lt;b&gt;D1J60_RS00345&lt;/b&gt;&lt;br&gt;ATP-grasp domain-containing protein&lt;br&gt;Location: 62168 - 60774" locus_tag="D1J60_RS00345" points="372,85 377,80 399,80 399,90 377,90 372,85 " style="fill:white; stroke:black; stroke-width:1; " id="dummy-1_h1_4_20" class="clusterblast-orf"  />
</g>
<g id="a1_0021"  >
<polygon description="&lt;b&gt;D1J60_RS00340&lt;/b&gt;&lt;br&gt;ester cyclase&lt;br&gt;Location: 60406 - 59984" locus_tag="D1J60_RS00340" points="406,90 409,90 414,85 409,80 406,80 406,90 " style="fill:white; stroke:black; stroke-width:1; " id="dummy-1_h1_4_21" class="clusterblast-orf"  />
</g>
<g id="a1_0022"  >
<polygon description="&lt;b&gt;D1J60_RS00335&lt;/b&gt;&lt;br&gt;hypothetical protein&lt;br&gt;Location: 59832 - 58912" locus_tag="D1J60_RS00335" points="417,85 422,80 435,80 435,90 422,90 417,85 " style="fill:white; stroke:black; stroke-width:1; " id="dummy-1_h1_4_22" class="clusterblast-orf"  />
</g>
<g id="a1_0023"  >
<polygon description="&lt;b&gt;D1J60_RS00330&lt;/b&gt;&lt;br&gt;VOC family protein&lt;br&gt;Location: 58550 - 58428" locus_tag="D1J60_RS00330" points="442,85 444,80 444,90 442,85 " style="fill:white; stroke:black; stroke-width:1; " id="dummy-1_h1_4_23" class="clusterblast-orf"  />
</g>
<g id="a1_0024"  >
<polygon description="&lt;b&gt;D1J60_RS00320&lt;/b&gt;&lt;br&gt;ABC transporter permease&lt;br&gt;Location: 58095 - 57229&lt;br&gt;&lt;br&gt;&lt;b&gt;BlastP hit with cds1035_1974&lt;/b&gt;&lt;br&gt;Percentage identity: 78&lt;br&gt;Percentage coverage: 86&lt;br&gt;BLAST bit score: 409&lt;br&gt;E-value: 3.5e-112" locus_tag="D1J60_RS00320" points="451,85 456,80 468,80 468,90 456,90 451,85 " style="fill:#1515d8; stroke:black; stroke-width:1; " id="dummy-1_h1_4_24" class="clusterblast-orf"  />
</g>
<g id="a1_0025"  >
<polygon description="&lt;b&gt;D1J60_RS00315&lt;/b&gt;&lt;br&gt;ATP-binding cassette domain-containing protein&lt;br&gt;Location: 57232 - 56111&lt;br&gt;&lt;br&gt;&lt;b&gt;BlastP hit with cds1970_3068&lt;/b&gt;&lt;br&gt;Percentage identity: 76&lt;br&gt;Percentage coverage: 96&lt;br&gt;BLAST bit score: 530&lt;br&gt;E-value: 1.6e-148" locus_tag="D1J60_RS00315" points="468,85 473,80 489,80 489,90 473,90 468,85 " style="fill:#d815d8; stroke:black; stroke-width:1; " id="dummy-1_h1_4_25" class="clusterblast-orf"  />
</g>
<g id="a1_0026"  >
<polygon description="&lt;b&gt;D1J60_RS37080&lt;/b&gt;&lt;br&gt;hypothetical protein&lt;br&gt;Location: 55824 - 55669&lt;br&gt;&lt;br&gt;&lt;b&gt;BlastP hit with cds3367_3523&lt;/b&gt;&lt;br&gt;Percentage identity: 86&lt;br&gt;Percentage coverage: 100&lt;br&gt;BLAST bit score: 94&lt;br&gt;E-value: 4.1e-18" locus_tag="D1J60_RS37080" points="495,85 498,80 498,90 495,85 " style="fill:#d8d815; stroke:black; stroke-width:1; " id="dummy-1_h1_4_26" class="clusterblast-orf"  />
</g>
<g id="a1_0027"  >
<polygon description="&lt;b&gt;D1J60_RS00310&lt;/b&gt;&lt;br&gt;protein kinase/lanthionine synthetase C family protein&lt;br&gt;Location: 55624 - 52964&lt;br&gt;&lt;br&gt;&lt;b&gt;BlastP hit with cds3570_6240&lt;/b&gt;&lt;br&gt;Percentage identity: 81&lt;br&gt;Percentage coverage: 100&lt;br&gt;BLAST bit score: 1329&lt;br&gt;E-value: 0.0" locus_tag="D1J60_RS00310" points="499,85 504,80 551,80 551,90 504,90 499,85 " style="fill:#15d8d8; stroke:black; stroke-width:1; " id="dummy-1_h1_4_27" class="clusterblast-orf"  />
</g>
<g id="a1_0028"  >
<polygon description="&lt;b&gt;D1J60_RS37075&lt;/b&gt;&lt;br&gt;hypothetical protein&lt;br&gt;Location: 52372 - 52124" locus_tag="D1J60_RS37075" points="562,90 562,90 567,85 562,80 562,80 562,90 " style="fill:white; stroke:black; stroke-width:1; " id="dummy-1_h1_4_28" class="clusterblast-orf"  />
</g>
<g id="a1_0029"  >
<polygon description="&lt;b&gt;D1J60_RS37070&lt;/b&gt;&lt;br&gt;transposase&lt;br&gt;Location: 52112 - 51738" locus_tag="D1J60_RS37070" points="567,85 572,80 574,80 574,90 572,90 567,85 " style="fill:white; stroke:black; stroke-width:1; " id="dummy-1_h1_4_29" class="clusterblast-orf"  />
</g>
<g id="a1_0030"  >
<polygon description="&lt;b&gt;D1J60_RS37065&lt;/b&gt;&lt;br&gt;hypothetical protein&lt;br&gt;Location: 51548 - 51075" locus_tag="D1J60_RS37065" points="578,90 582,90 587,85 582,80 578,80 578,90 " style="fill:white; stroke:black; stroke-width:1; " id="dummy-1_h1_4_30" class="clusterblast-orf"  />
</g>
<g id="a1_0031"  >
<polygon description="&lt;b&gt;D1J60_RS00285&lt;/b&gt;&lt;br&gt;YcxB family protein&lt;br&gt;Location: 50900 - 50373" locus_tag="D1J60_RS00285" points="591,90 596,90 601,85 596,80 591,80 591,90 " style="fill:white; stroke:black; stroke-width:1; " id="dummy-1_h1_4_31" class="clusterblast-orf"  />
</g>
<g id="a1_0032"  >
<polygon description="&lt;b&gt;D1J60_RS00280&lt;/b&gt;&lt;br&gt;hypothetical protein&lt;br&gt;Location: 50324 - 49899" locus_tag="D1J60_RS00280" points="602,90 605,90 610,85 605,80 602,80 602,90 " style="fill:white; stroke:black; stroke-width:1; " id="dummy-1_h1_4_32" class="clusterblast-orf"  />
</g>
<g id="a1_0033"  >
<polygon description="&lt;b&gt;D1J60_RS00275&lt;/b&gt;&lt;br&gt;hypothetical protein&lt;br&gt;Location: 49437 - 49246" locus_tag="D1J60_RS00275" points="619,85 623,80 623,90 619,85 " style="fill:white; stroke:black; stroke-width:1; " id="dummy-1_h1_4_33" class="clusterblast-orf"  />
</g>
<g id="a1_0034"  >
<polygon description="&lt;b&gt;D1J60_RS00270&lt;/b&gt;&lt;br&gt;helix-turn-helix domain-containing protein&lt;br&gt;Location: 48371 - 46107" locus_tag="D1J60_RS00270" points="640,85 645,80 684,80 684,90 645,90 640,85 " style="fill:white; stroke:black; stroke-width:1; " id="dummy-1_h1_4_34" class="clusterblast-orf"  />
</g>
<g id="a1_0035"  >
<polygon description="&lt;b&gt;D1J60_RS00265&lt;/b&gt;&lt;br&gt;hypothetical protein&lt;br&gt;Location: 45917 - 45504" locus_tag="D1J60_RS00265" points="687,85 692,80 695,80 695,90 692,90 687,85 " style="fill:white; stroke:black; stroke-width:1; " id="dummy-1_h1_4_35" class="clusterblast-orf"  />
</g>
<g id="a1_0036"  >
<polygon description="&lt;b&gt;D1J60_RS00260&lt;/b&gt;&lt;br&gt;phosphatidylinositol-specific phospholipase C domain-containing protein&lt;br&gt;Location: 44786 - 43233" locus_tag="D1J60_RS00260" points="709,90 735,90 740,85 735,80 709,80 709,90 " style="fill:white; stroke:black; stroke-width:1; " id="dummy-1_h1_4_36" class="clusterblast-orf"  />
</g>
<g id="a1_0037"  >
<polygon description="&lt;b&gt;D1J60_RS00255&lt;/b&gt;&lt;br&gt;GYD domain-containing protein&lt;br&gt;Location: 42899 - 42573" locus_tag="D1J60_RS00255" points="746,85 751,80 752,80 752,90 751,90 746,85 " style="fill:white; stroke:black; stroke-width:1; " id="dummy-1_h1_4_37" class="clusterblast-orf"  />
</g>
<g id="a1_0038"  >
<polygon description="&lt;b&gt;D1J60_RS00250&lt;/b&gt;&lt;br&gt;polyphosphate kinase 2&lt;br&gt;Location: 42318 - 41863" locus_tag="D1J60_RS00250" points="757,85 762,80 766,80 766,90 762,90 757,85 " style="fill:white; stroke:black; stroke-width:1; " id="dummy-1_h1_4_38" class="clusterblast-orf"  />
</g>
<g id="a1_0039"  >
<polygon description="&lt;b&gt;D1J60_RS00245&lt;/b&gt;&lt;br&gt;EF-hand domain-containing protein&lt;br&gt;Location: 41384 - 41181" locus_tag="D1J60_RS00245" points="776,90 780,85 776,80 776,90 " style="fill:white; stroke:black; stroke-width:1; " id="dummy-1_h1_4_39" class="clusterblast-orf"  />
</g>
</svg>
