<svg y="0" version="1.1" preserveAspectRatio="none" xmlns="http://www.w3.org/2000/svg" height="230" x="0" viewBox="0 0 800 230" xmlns:xlink="http://www.w3.org/1999/xlink" width="800"  >
<g class="clusterblast-cluster" label="Query sequence"  >
<text y="20" class="clusterblast-acc" x="5"  >
Query sequence</text>
<line x2="778.0" y2="35" y1="35" x1="10" style="stroke:grey; stroke-width:1; "  />
<polygon description="&lt;b&gt;cds1_1540&lt;/b&gt;&lt;br&gt;Squalene/phytoene desaturase HopC&lt;br&gt;Location: 1 - 1540" locus_tag="cds1_1540" points="348,40 396,40 401,35 396,30 348,30 348,40 " style="fill:#d81515; stroke:black; stroke-width:1; " id="dummy-1_q0_0_all" class="clusterblast-orf"  />
<polygon description="&lt;b&gt;cds1536_2448&lt;/b&gt;&lt;br&gt;Phytoene synthase (EC 2.5.1.32)&lt;br&gt;Location: 1536 - 2448" locus_tag="cds1536_2448" points="400,40 426,40 431,35 426,30 400,30 400,40 " style="fill:#15d8d8; stroke:black; stroke-width:1; " id="dummy-1_q1_0_all" class="clusterblast-orf"  />
</g>
<g description="NZ_CP023700 (1047600-1070618): Streptomyces viridosporus T7A strain ATCC 3911... (8% of genes show similarity), terpene" class="clusterblast-cluster" label="NZ_CP023700"  >
<text y="70" class="clusterblast-acc" x="5"  >
<a xlink:href="https://antismash-db.secondarymetabolites.org/area.html?record=NZ_CP023700&amp;start=1047600&amp;end=1070618" target="_blank">NZ_CP023700 (1047600-1070618)</a>: Streptomyces viridosporus T7A strain ATCC 3911... (8% of genes show similarity), terpene</text>
<line x2="778.0" y2="85" y1="85" x1="10" style="stroke:grey; stroke-width:1; "  />
</g>
<g id="a1_000"  >
<polygon description="&lt;b&gt;CP969_RS04990&lt;/b&gt;&lt;br&gt;hypothetical protein&lt;br&gt;Location: 1047601 - 1047927" locus_tag="CP969_RS04990" points="0,90 6,90 11,85 6,80 0,80 0,90 " style="fill:white; stroke:black; stroke-width:1; " id="dummy-1_h1_9_0" class="clusterblast-orf"  />
</g>
<g id="a1_001"  >
<polygon description="&lt;b&gt;CP969_RS04995&lt;/b&gt;&lt;br&gt;hypothetical protein&lt;br&gt;Location: 1047977 - 1049050" locus_tag="CP969_RS04995" points="12,90 44,90 49,85 44,80 12,80 12,90 " style="fill:white; stroke:black; stroke-width:1; " id="dummy-1_h1_9_1" class="clusterblast-orf"  />
</g>
<g id="a1_002"  >
<polygon description="&lt;b&gt;CP969_RS05000&lt;/b&gt;&lt;br&gt;ATP-binding protein&lt;br&gt;Location: 1049369 - 1049791" locus_tag="CP969_RS05000" points="59,90 69,90 74,85 69,80 59,80 59,90 " style="fill:white; stroke:black; stroke-width:1; " id="dummy-1_h1_9_2" class="clusterblast-orf"  />
</g>
<g id="a1_003"  >
<polygon description="&lt;b&gt;CP969_RS05005&lt;/b&gt;&lt;br&gt;adenosylcobinamide amidohydrolase&lt;br&gt;Location: 1049878 - 1050570" locus_tag="CP969_RS05005" points="77,90 95,90 100,85 95,80 77,80 77,90 " style="fill:white; stroke:black; stroke-width:1; " id="dummy-1_h1_9_3" class="clusterblast-orf"  />
</g>
<g id="a1_004"  >
<polygon description="&lt;b&gt;CP969_RS05010&lt;/b&gt;&lt;br&gt;SpoIIE family protein phosphatase&lt;br&gt;Location: 1050794 - 1052476" locus_tag="CP969_RS05010" points="108,90 160,90 165,85 160,80 108,80 108,90 " style="fill:white; stroke:black; stroke-width:1; " id="dummy-1_h1_9_4" class="clusterblast-orf"  />
</g>
<g id="a1_005"  >
<polygon description="&lt;b&gt;CP969_RS05015&lt;/b&gt;&lt;br&gt;cobalamin-binding protein&lt;br&gt;Location: 1052365 - 1053558" locus_tag="CP969_RS05015" points="161,90 196,90 201,85 196,80 161,80 161,90 " style="fill:white; stroke:black; stroke-width:1; " id="dummy-1_h1_9_5" class="clusterblast-orf"  />
</g>
<g id="a1_006"  >
<polygon description="&lt;b&gt;CP969_RS05020&lt;/b&gt;&lt;br&gt;STAS domain-containing protein&lt;br&gt;Location: 1053555 - 1053953" locus_tag="CP969_RS05020" points="201,90 210,90 215,85 210,80 201,80 201,90 " style="fill:white; stroke:black; stroke-width:1; " id="dummy-1_h1_9_6" class="clusterblast-orf"  />
</g>
<g id="a1_007"  >
<polygon description="&lt;b&gt;CP969_RS05025&lt;/b&gt;&lt;br&gt;FAD-dependent oxidoreductase&lt;br&gt;Location: 1054142 - 1055707" locus_tag="CP969_RS05025" points="221,85 226,80 274,80 274,90 226,90 221,85 " style="fill:white; stroke:black; stroke-width:1; " id="dummy-1_h1_9_7" class="clusterblast-orf"  />
</g>
<g id="a1_008"  >
<polygon description="&lt;b&gt;CP969_RS05030&lt;/b&gt;&lt;br&gt;methyltransferase domain-containing protein&lt;br&gt;Location: 1055704 - 1056435" locus_tag="CP969_RS05030" points="274,85 279,80 299,80 299,90 279,90 274,85 " style="fill:white; stroke:black; stroke-width:1; " id="dummy-1_h1_9_8" class="clusterblast-orf"  />
</g>
<g id="a1_009"  >
<polygon description="&lt;b&gt;CP969_RS05035&lt;/b&gt;&lt;br&gt;lycopene cyclase&lt;br&gt;Location: 1056485 - 1057684" locus_tag="CP969_RS05035" points="301,85 306,80 341,80 341,90 306,90 301,85 " style="fill:white; stroke:black; stroke-width:1; " id="dummy-1_h1_9_9" class="clusterblast-orf"  />
</g>
<g id="a1_0010"  >
<polygon description="&lt;b&gt;CP969_RS05040&lt;/b&gt;&lt;br&gt;polyprenyl synthetase family protein&lt;br&gt;Location: 1057956 - 1059317" locus_tag="CP969_RS05040" points="350,90 392,90 397,85 392,80 350,80 350,90 " style="fill:white; stroke:black; stroke-width:1; " id="dummy-1_h1_9_10" class="clusterblast-orf"  />
</g>
<g id="a1_0011"  >
<polygon description="&lt;b&gt;CP969_RS05045&lt;/b&gt;&lt;br&gt;phytoene desaturase&lt;br&gt;Location: 1059314 - 1060843&lt;br&gt;&lt;br&gt;&lt;b&gt;BlastP hit with cds1_1540&lt;/b&gt;&lt;br&gt;Percentage identity: 86&lt;br&gt;Percentage coverage: 100&lt;br&gt;BLAST bit score: 871&lt;br&gt;E-value: 5.3e-251" locus_tag="CP969_RS05045" points="396,90 443,90 448,85 443,80 396,80 396,90 " style="fill:#d81515; stroke:black; stroke-width:1; " id="dummy-1_h1_9_11" class="clusterblast-orf"  />
</g>
<g id="a1_0012"  >
<polygon description="&lt;b&gt;CP969_RS05050&lt;/b&gt;&lt;br&gt;phytoene/squalene synthase family protein&lt;br&gt;Location: 1060840 - 1061853&lt;br&gt;&lt;br&gt;&lt;b&gt;BlastP hit with cds1536_2448&lt;/b&gt;&lt;br&gt;Percentage identity: 82&lt;br&gt;Percentage coverage: 98&lt;br&gt;BLAST bit score: 487&lt;br&gt;E-value: 7.5e-136" locus_tag="CP969_RS05050" points="448,90 477,90 482,85 477,80 448,80 448,90 " style="fill:#15d8d8; stroke:black; stroke-width:1; " id="dummy-1_h1_9_12" class="clusterblast-orf"  />
</g>
<g id="a1_0013"  >
<polygon description="&lt;b&gt;CP969_RS05055&lt;/b&gt;&lt;br&gt;Rieske (2Fe-2S) protein&lt;br&gt;Location: 1061850 - 1062863" locus_tag="CP969_RS05055" points="482,90 512,90 517,85 512,80 482,80 482,90 " style="fill:white; stroke:black; stroke-width:1; " id="dummy-1_h1_9_13" class="clusterblast-orf"  />
</g>
<g id="a1_0014"  >
<polygon description="&lt;b&gt;CP969_RS05060&lt;/b&gt;&lt;br&gt;SDR family oxidoreductase&lt;br&gt;Location: 1062896 - 1063777" locus_tag="CP969_RS05060" points="518,85 523,80 548,80 548,90 523,90 518,85 " style="fill:white; stroke:black; stroke-width:1; " id="dummy-1_h1_9_14" class="clusterblast-orf"  />
</g>
<g id="a1_0015"  >
<polygon description="&lt;b&gt;CP969_RS05065&lt;/b&gt;&lt;br&gt;hypothetical protein&lt;br&gt;Location: 1063796 - 1064290" locus_tag="CP969_RS05065" points="548,85 553,80 565,80 565,90 553,90 548,85 " style="fill:white; stroke:black; stroke-width:1; " id="dummy-1_h1_9_15" class="clusterblast-orf"  />
</g>
<g id="a1_0016"  >
<polygon description="&lt;b&gt;CP969_RS05070&lt;/b&gt;&lt;br&gt;NAD(P)-binding protein&lt;br&gt;Location: 1064392 - 1066041" locus_tag="CP969_RS05070" points="569,85 574,80 624,80 624,90 574,90 569,85 " style="fill:white; stroke:black; stroke-width:1; " id="dummy-1_h1_9_16" class="clusterblast-orf"  />
</g>
<g id="a1_0017"  >
<polygon description="&lt;b&gt;CP969_RS05075&lt;/b&gt;&lt;br&gt;SRPBCC family protein&lt;br&gt;Location: 1066034 - 1066540" locus_tag="CP969_RS05075" points="624,85 629,80 641,80 641,90 629,90 624,85 " style="fill:white; stroke:black; stroke-width:1; " id="dummy-1_h1_9_17" class="clusterblast-orf"  />
</g>
<g id="a1_0018"  >
<polygon description="&lt;b&gt;CP969_RS05080&lt;/b&gt;&lt;br&gt;DUF2236 domain-containing protein&lt;br&gt;Location: 1066663 - 1067535" locus_tag="CP969_RS05080" points="645,85 650,80 675,80 675,90 650,90 645,85 " style="fill:white; stroke:black; stroke-width:1; " id="dummy-1_h1_9_18" class="clusterblast-orf"  />
</g>
<g id="a1_0019"  >
<polygon description="&lt;b&gt;CP969_RS05085&lt;/b&gt;&lt;br&gt;hypothetical protein&lt;br&gt;Location: 1067672 - 1067938" locus_tag="CP969_RS05085" points="680,85 685,80 689,80 689,90 685,90 680,85 " style="fill:white; stroke:black; stroke-width:1; " id="dummy-1_h1_9_19" class="clusterblast-orf"  />
</g>
<g id="a1_0020"  >
<polygon description="&lt;b&gt;CP969_RS05090&lt;/b&gt;&lt;br&gt;restriction endonuclease&lt;br&gt;Location: 1067979 - 1068863" locus_tag="CP969_RS05090" points="690,85 695,80 720,80 720,90 695,90 690,85 " style="fill:white; stroke:black; stroke-width:1; " id="dummy-1_h1_9_20" class="clusterblast-orf"  />
</g>
<g id="a1_0021"  >
<polygon description="&lt;b&gt;CP969_RS05095&lt;/b&gt;&lt;br&gt;CsbD family protein&lt;br&gt;Location: 1068988 - 1069161" locus_tag="CP969_RS05095" points="724,85 729,80 730,80 730,90 729,90 724,85 " style="fill:white; stroke:black; stroke-width:1; " id="dummy-1_h1_9_21" class="clusterblast-orf"  />
</g>
<g id="a1_0022"  >
<polygon description="&lt;b&gt;CP969_RS05100&lt;/b&gt;&lt;br&gt;GAF and ANTAR domain-containing protein&lt;br&gt;Location: 1069344 - 1070009" locus_tag="CP969_RS05100" points="736,90 754,90 759,85 754,80 736,80 736,90 " style="fill:white; stroke:black; stroke-width:1; " id="dummy-1_h1_9_22" class="clusterblast-orf"  />
</g>
<g id="a1_0023"  >
<polygon description="&lt;b&gt;CP969_RS05105&lt;/b&gt;&lt;br&gt;hypothetical protein&lt;br&gt;Location: 1070076 - 1070618" locus_tag="CP969_RS05105" points="761,85 766,80 780,80 780,90 766,90 761,85 " style="fill:white; stroke:black; stroke-width:1; " id="dummy-1_h1_9_23" class="clusterblast-orf"  />
</g>
</svg>
