<svg y="0" version="1.1" preserveAspectRatio="none" xmlns="http://www.w3.org/2000/svg" height="230" x="0" viewBox="0 0 800 230" xmlns:xlink="http://www.w3.org/1999/xlink" width="800"  >
<g class="clusterblast-cluster" label="Query sequence"  >
<text y="20" class="clusterblast-acc" x="5"  >
Query sequence</text>
<line x2="778.0" y2="35" y1="35" x1="10" style="stroke:grey; stroke-width:1; "  />
<polygon description="&lt;b&gt;cds2_407&lt;/b&gt;&lt;br&gt;Integral membrane protein&lt;br&gt;Location: 2 - 407" locus_tag="cds2_407" points="1,35 6,30 45,30 45,40 6,40 1,35 " style="fill:white; stroke:black; stroke-width:1; " id="dummy-1_q0_0_all" class="clusterblast-orf"  />
<polygon description="&lt;b&gt;cds558_855&lt;/b&gt;&lt;br&gt;hypothetical protein&lt;br&gt;Location: 558 - 855" locus_tag="cds558_855" points="62,35 67,30 95,30 95,40 67,40 62,35 " style="fill:white; stroke:black; stroke-width:1; " id="dummy-1_q1_0_all" class="clusterblast-orf"  />
<polygon description="&lt;b&gt;cds895_1039&lt;/b&gt;&lt;br&gt;hypothetical protein&lt;br&gt;Location: 895 - 1039" locus_tag="cds895_1039" points="99,35 104,30 115,30 115,40 104,40 99,35 " style="fill:white; stroke:black; stroke-width:1; " id="dummy-1_q2_0_all" class="clusterblast-orf"  />
<polygon description="&lt;b&gt;cds1035_1974&lt;/b&gt;&lt;br&gt;hypothetical protein&lt;br&gt;Location: 1035 - 1974" locus_tag="cds1035_1974" points="114,35 119,30 218,30 218,40 119,40 114,35 " style="fill:#d81515; stroke:black; stroke-width:1; " id="dummy-1_q3_0_all" class="clusterblast-orf"  />
<polygon description="&lt;b&gt;cds1970_3068&lt;/b&gt;&lt;br&gt;Efflux ABC transporter, ATP-binding protein&lt;br&gt;Location: 1970 - 3068" locus_tag="cds1970_3068" points="218,35 223,30 339,30 339,40 223,40 218,35 " style="fill:#77d815; stroke:black; stroke-width:1; " id="dummy-1_q4_0_all" class="clusterblast-orf"  />
<polygon description="&lt;b&gt;cds3367_3523&lt;/b&gt;&lt;br&gt;hypothetical protein&lt;br&gt;Location: 3367 - 3523" locus_tag="cds3367_3523" points="372,35 377,30 389,30 389,40 377,40 372,35 " style="fill:#15d8d8; stroke:black; stroke-width:1; " id="dummy-1_q5_0_all" class="clusterblast-orf"  />
<polygon description="&lt;b&gt;cds3570_6240&lt;/b&gt;&lt;br&gt;hypothetical protein&lt;br&gt;Location: 3570 - 6240" locus_tag="cds3570_6240" points="394,35 399,30 688,30 688,40 399,40 394,35 " style="fill:#7715d8; stroke:black; stroke-width:1; " id="dummy-1_q6_0_all" class="clusterblast-orf"  />
<polygon description="&lt;b&gt;cds6871_7078&lt;/b&gt;&lt;br&gt;hypothetical protein&lt;br&gt;Location: 6871 - 7078" locus_tag="cds6871_7078" points="758,35 763,30 781,30 781,40 763,40 758,35 " style="fill:white; stroke:black; stroke-width:1; " id="dummy-1_q7_0_all" class="clusterblast-orf"  />
</g>
<g description="BGC0000579_c1: SSV-2083 (18% of genes show similarity), RiPP:Lanthipeptide" class="clusterblast-cluster" label="BGC0000579"  >
<text y="70" class="clusterblast-acc" x="5"  >
<a xlink:href="https://mibig.secondarymetabolites.org/go/BGC0000579/1" target="_blank">BGC0000579</a>:                                                                         SSV-2083 (18% of genes show similarity), RiPP:Lanthipeptide</text>
<line x2="778.0" y2="85" y1="85" x1="10" style="stroke:grey; stroke-width:1; "  />
</g>
<g id="a1_000"  >
<polygon description="&lt;b&gt;SSEG_RS34105&lt;/b&gt;&lt;br&gt;thioredoxin domain-containing protein&lt;br&gt;Location: 6125 - 5307" locus_tag="SSEG_RS34105" points="52,85 57,80 142,80 142,90 57,90 52,85 " style="fill:white; stroke:black; stroke-width:1; " id="dummy-1_h1_2_0" class="clusterblast-orf"  />
</g>
<g id="a1_001"  >
<polygon description="&lt;b&gt;SSEG_RS34100&lt;/b&gt;&lt;br&gt;DoxX family membrane protein&lt;br&gt;Location: 5303 - 4815" locus_tag="SSEG_RS34100" points="143,85 148,80 196,80 196,90 148,90 143,85 " style="fill:white; stroke:black; stroke-width:1; " id="dummy-1_h1_2_1" class="clusterblast-orf"  />
</g>
<g id="a1_002"  >
<polygon description="&lt;b&gt;SSEG_RS34095&lt;/b&gt;&lt;br&gt;ABC transporter permease subunit&lt;br&gt;Location: 4779 - 3895&lt;br&gt;&lt;br&gt;&lt;b&gt;BlastP hit with cds1035_1974&lt;/b&gt;&lt;br&gt;Percentage identity: 47&lt;br&gt;Percentage coverage: 89&lt;br&gt;BLAST bit score: 208&lt;br&gt;E-value: 2e-53" locus_tag="SSEG_RS34095" points="200,85 205,80 298,80 298,90 205,90 200,85 " style="fill:#d81515; stroke:black; stroke-width:1; " id="dummy-1_h1_2_2" class="clusterblast-orf"  />
</g>
<g id="a1_003"  >
<polygon description="&lt;b&gt;SSEG_RS34090&lt;/b&gt;&lt;br&gt;daunorubicin resistance protein DrrA family ABC transporter ATP-binding protein&lt;br&gt;Location: 3889 - 2912&lt;br&gt;&lt;br&gt;&lt;b&gt;BlastP hit with cds1970_3068&lt;/b&gt;&lt;br&gt;Percentage identity: 56&lt;br&gt;Percentage coverage: 86&lt;br&gt;BLAST bit score: 329&lt;br&gt;E-value: 5.3e-90" locus_tag="SSEG_RS34090" points="298,85 303,80 406,80 406,90 303,90 298,85 " style="fill:#77d815; stroke:black; stroke-width:1; " id="dummy-1_h1_2_3" class="clusterblast-orf"  />
</g>
<g id="a1_004"  >
<polygon description="&lt;b&gt;SSEG_RS34085&lt;/b&gt;&lt;br&gt;lasso peptide biosynthesis B2 protein&lt;br&gt;Location: 2915 - 2418" locus_tag="SSEG_RS34085" points="406,85 411,80 461,80 461,90 411,90 406,85 " style="fill:white; stroke:black; stroke-width:1; " id="dummy-1_h1_2_4" class="clusterblast-orf"  />
</g>
<g id="a1_005"  >
<polygon description="&lt;b&gt;SSEG_RS34080&lt;/b&gt;&lt;br&gt;lasso peptide biosynthesis PqqD family chaperone&lt;br&gt;Location: 2421 - 2158" locus_tag="SSEG_RS34080" points="460,85 465,80 489,80 489,90 465,90 460,85 " style="fill:white; stroke:black; stroke-width:1; " id="dummy-1_h1_2_5" class="clusterblast-orf"  />
</g>
<g id="a1_006"  >
<polygon description="&lt;b&gt;SSEG_09672&lt;/b&gt;&lt;br&gt;predicted protein&lt;br&gt;Location: 2161 - 839" locus_tag="SSEG_09672" points="489,85 494,80 635,80 635,90 494,90 489,85 " style="fill:white; stroke:black; stroke-width:1; " id="dummy-1_h1_2_6" class="clusterblast-orf"  />
</g>
<g id="a1_007"  >
<polygon description="&lt;b&gt;SSEG_RS34075&lt;/b&gt;&lt;br&gt;asparagine synthase&lt;br&gt;Location: 2161 - 714" locus_tag="SSEG_RS34075" points="489,85 494,80 648,80 648,90 494,90 489,85 " style="fill:white; stroke:black; stroke-width:1; " id="dummy-1_h1_2_7" class="clusterblast-orf"  />
</g>
<g id="a1_008"  >
<polygon description="&lt;b&gt;SSEG_RS34070&lt;/b&gt;&lt;br&gt;asparagine synthase&lt;br&gt;Location: 613 - 295" locus_tag="SSEG_RS34070" points="660,85 665,80 695,80 695,90 665,90 660,85 " style="fill:white; stroke:black; stroke-width:1; " id="dummy-1_h1_2_8" class="clusterblast-orf"  />
</g>
<g id="a1_009"  >
<polygon description="&lt;b&gt;SSEG_RS44950&lt;/b&gt;&lt;br&gt;lasso RiPP family leader peptide-containing protein&lt;br&gt;Location: 171 - 37" locus_tag="SSEG_RS44950" points="708,85 713,80 723,80 723,90 713,90 708,85 " style="fill:white; stroke:black; stroke-width:1; " id="dummy-1_h1_2_9" class="clusterblast-orf"  />
</g>
<g id="a1_0010"  >
<polygon description="&lt;b&gt;SSEG_05172&lt;/b&gt;&lt;br&gt;hypothetical protein&lt;br&gt;Location: 171 - 1" locus_tag="SSEG_05172" points="708,85 713,80 727,80 727,90 713,90 708,85 " style="fill:white; stroke:black; stroke-width:1; " id="dummy-1_h1_2_10" class="clusterblast-orf"  />
</g>
</svg>
