<svg y="0" version="1.1" preserveAspectRatio="none" xmlns="http://www.w3.org/2000/svg" height="200" x="0" viewBox="0 0 800 200" xmlns:xlink="http://www.w3.org/1999/xlink" width="800"  >
<g class="clusterblast-cluster" label="Query sequence"  >
<text y="20" class="clusterblast-acc" x="5"  >
Query sequence</text>
<line x2="778.0" y2="35" y1="35" x1="10" style="stroke:grey; stroke-width:1; "  />
<polygon description="&lt;b&gt;cds0_279&lt;/b&gt;&lt;br&gt;Tyrosinase cofactor&lt;br&gt;Location: 0 - 279" locus_tag="cds0_279" points="374,40 378,35 374,30 374,40 " style="fill:#d81515; stroke:black; stroke-width:1; " id="knownclusterblast-1_q0_0_all" class="clusterblast-orf"  />
<polygon description="&lt;b&gt;cds298_1159&lt;/b&gt;&lt;br&gt;putative tyrosinase&lt;br&gt;Location: 298 - 1159" locus_tag="cds298_1159" points="378,40 384,40 389,35 384,30 378,30 378,40 " style="fill:#15d8d8; stroke:black; stroke-width:1; " id="knownclusterblast-1_q1_0_all" class="clusterblast-orf"  />
<polygon description="&lt;b&gt;cds1212_2415&lt;/b&gt;&lt;br&gt;hypothetical protein&lt;br&gt;Location: 1212 - 2415" locus_tag="cds1212_2415" points="390,35 395,30 405,30 405,40 395,40 390,35 " style="fill:white; stroke:black; stroke-width:1; " id="knownclusterblast-1_q2_0_all" class="clusterblast-orf"  />
</g>
<g description="BGC0000908_c1: melanin (28% of genes show similarity), Other" class="clusterblast-cluster" label="BGC0000908"  >
<text y="70" class="clusterblast-acc" x="5"  >
<a xlink:href="https://mibig.secondarymetabolites.org/go/BGC0000908/1" target="_blank">BGC0000908</a>:                                                                          melanin (28% of genes show similarity), Other</text>
<line x2="778.0" y2="85" y1="85" x1="10" style="stroke:grey; stroke-width:1; "  />
</g>
<g id="a1_000"  >
<polygon description="&lt;b&gt;BAB69179.1&lt;/b&gt;&lt;br&gt;membrane transport protein&lt;br&gt;Location: 6497 - 4941" locus_tag="BAB69179.1" points="348,85 353,80 368,80 368,90 353,90 348,85 " style="fill:white; stroke:black; stroke-width:1; " id="knownclusterblast-1_all_1_1_0" class="clusterblast-orf"  />
</g>
<g id="a1_001"  >
<polygon description="&lt;b&gt;BAB69178.1&lt;/b&gt;&lt;br&gt;putative hydroxylase&lt;br&gt;Location: 4877 - 3672" locus_tag="BAB69178.1" points="369,85 374,80 384,80 384,90 374,90 369,85 " style="fill:white; stroke:black; stroke-width:1; " id="knownclusterblast-1_all_1_1_1" class="clusterblast-orf"  />
</g>
<g id="a1_002"  >
<polygon description="&lt;b&gt;BAB69177.1&lt;/b&gt;&lt;br&gt;hypothetical protein&lt;br&gt;Location: 3518 - 3051" locus_tag="BAB69177.1" points="386,90 387,90 392,85 387,80 386,80 386,90 " style="fill:white; stroke:black; stroke-width:1; " id="knownclusterblast-1_all_1_1_2" class="clusterblast-orf"  />
</g>
<g id="a1_003"  >
<polygon description="&lt;b&gt;BAB69176.1&lt;/b&gt;&lt;br&gt;tyrosinase co-factor protein&lt;br&gt;Location: 2769 - 2413&lt;br&gt;&lt;br&gt;&lt;b&gt;BlastP hit with cds0_279&lt;/b&gt;&lt;br&gt;Percentage identity: 66&lt;br&gt;Percentage coverage: 96&lt;br&gt;BLAST bit score: 112&lt;br&gt;E-value: 3.4e-25" locus_tag="BAB69176.1" points="396,90 400,85 396,80 396,90 " style="fill:#d81515; stroke:black; stroke-width:1; " id="knownclusterblast-1_all_1_1_3" class="clusterblast-orf"  />
</g>
<g id="a1_004"  >
<polygon description="&lt;b&gt;BAB69175.1&lt;/b&gt;&lt;br&gt;tyrosinase&lt;br&gt;Location: 2377 - 1553&lt;br&gt;&lt;br&gt;&lt;b&gt;BlastP hit with cds298_1159&lt;/b&gt;&lt;br&gt;Percentage identity: 79&lt;br&gt;Percentage coverage: 94&lt;br&gt;BLAST bit score: 472&lt;br&gt;E-value: 5.2e-133" locus_tag="BAB69175.1" points="401,90 406,90 411,85 406,80 401,80 401,90 " style="fill:#15d8d8; stroke:black; stroke-width:1; " id="knownclusterblast-1_all_1_1_4" class="clusterblast-orf"  />
</g>
<g id="a1_005"  >
<polygon description="&lt;b&gt;BAB69174.1&lt;/b&gt;&lt;br&gt;ribonuclease H&lt;br&gt;Location: 1411 - 701" locus_tag="BAB69174.1" points="413,85 418,80 422,80 422,90 418,90 413,85 " style="fill:white; stroke:black; stroke-width:1; " id="knownclusterblast-1_all_1_1_5" class="clusterblast-orf"  />
</g>
<g id="a1_006"  >
<polygon description="&lt;b&gt;BAB69173.1&lt;/b&gt;&lt;br&gt;hypothetical protein&lt;br&gt;Location: 492 - 1" locus_tag="BAB69173.1" points="425,90 426,90 431,85 426,80 425,80 425,90 " style="fill:white; stroke:black; stroke-width:1; " id="knownclusterblast-1_all_1_1_6" class="clusterblast-orf"  />
</g>
<g description="BGC0000422_c1: saframycin A / saframycin B (4% of genes show similarity), NRP" class="clusterblast-cluster" label="BGC0000422"  >
<text y="120" class="clusterblast-acc" x="5"  >
<a xlink:href="https://mibig.secondarymetabolites.org/go/BGC0000422/1" target="_blank">BGC0000422</a>:                                                      saframycin A / saframycin B (4% of genes show similarity), NRP</text>
<line x2="778.0" y2="135" y1="135" x1="10" style="stroke:grey; stroke-width:1; "  />
</g>
<g id="a1_000"  >
<polygon description="&lt;b&gt;ABQ41268.1&lt;/b&gt;&lt;br&gt;hypothetical protein&lt;br&gt;Location: 60995 - 60426" locus_tag="ABQ41268.1" points="0,140 2,140 7,135 2,130 0,130 0,140 " style="fill:white; stroke:black; stroke-width:1; " id="knownclusterblast-1_all_1_2_0" class="clusterblast-orf"  />
</g>
<g id="a1_001"  >
<polygon description="&lt;b&gt;ABQ41267.1&lt;/b&gt;&lt;br&gt;neuromedin U receptor 1&lt;br&gt;Location: 60475 - 60002" locus_tag="ABQ41267.1" points="6,135 11,130 12,130 12,140 11,140 6,135 " style="fill:white; stroke:black; stroke-width:1; " id="knownclusterblast-1_all_1_2_1" class="clusterblast-orf"  />
</g>
<g id="a1_002"  >
<polygon description="&lt;b&gt;ABQ41266.1&lt;/b&gt;&lt;br&gt;unknonw&lt;br&gt;Location: 59604 - 58327" locus_tag="ABQ41266.1" points="17,135 22,130 34,130 34,140 22,140 17,135 " style="fill:white; stroke:black; stroke-width:1; " id="knownclusterblast-1_all_1_2_2" class="clusterblast-orf"  />
</g>
<g id="a1_003"  >
<polygon description="&lt;b&gt;ABQ41265.1&lt;/b&gt;&lt;br&gt;hypothetical protein&lt;br&gt;Location: 58239 - 57871" locus_tag="ABQ41265.1" points="35,140 35,140 40,135 35,130 35,130 35,140 " style="fill:white; stroke:black; stroke-width:1; " id="knownclusterblast-1_all_1_2_3" class="clusterblast-orf"  />
</g>
<g id="a1_004"  >
<polygon description="&lt;b&gt;ABQ41264.1&lt;/b&gt;&lt;br&gt;putative DNA ligase&lt;br&gt;Location: 57681 - 57211" locus_tag="ABQ41264.1" points="42,135 47,130 48,130 48,140 47,140 42,135 " style="fill:white; stroke:black; stroke-width:1; " id="knownclusterblast-1_all_1_2_4" class="clusterblast-orf"  />
</g>
<g id="a1_005"  >
<polygon description="&lt;b&gt;ABI22148.1&lt;/b&gt;&lt;br&gt;putative RNA polymerase ECF-subfamily sigma factor&lt;br&gt;Location: 56869 - 55865" locus_tag="ABI22148.1" points="52,140 60,140 65,135 60,130 52,130 52,140 " style="fill:white; stroke:black; stroke-width:1; " id="knownclusterblast-1_all_1_2_5" class="clusterblast-orf"  />
</g>
<g id="a1_006"  >
<polygon description="&lt;b&gt;ABI22147.1&lt;/b&gt;&lt;br&gt;cofilin&lt;br&gt;Location: 55959 - 55498" locus_tag="ABI22147.1" points="64,135 69,130 70,130 70,140 69,140 64,135 " style="fill:white; stroke:black; stroke-width:1; " id="knownclusterblast-1_all_1_2_6" class="clusterblast-orf"  />
</g>
<g id="a1_007"  >
<polygon description="&lt;b&gt;ABI22146.1&lt;/b&gt;&lt;br&gt;oxygenase&lt;br&gt;Location: 55132 - 54002" locus_tag="ABI22146.1" points="75,135 80,130 89,130 89,140 80,140 75,135 " style="fill:white; stroke:black; stroke-width:1; " id="knownclusterblast-1_all_1_2_7" class="clusterblast-orf"  />
</g>
<g id="a1_008"  >
<polygon description="&lt;b&gt;ABI22145.1&lt;/b&gt;&lt;br&gt;SAM-dependent methyltransferase&lt;br&gt;Location: 53694 - 52690" locus_tag="ABI22145.1" points="93,140 101,140 106,135 101,130 93,130 93,140 " style="fill:white; stroke:black; stroke-width:1; " id="knownclusterblast-1_all_1_2_8" class="clusterblast-orf"  />
</g>
<g id="a1_009"  >
<polygon description="&lt;b&gt;ABI22144.1&lt;/b&gt;&lt;br&gt;putative S-adenosylmethionine synthetase&lt;br&gt;Location: 52669 - 51464" locus_tag="ABI22144.1" points="106,140 117,140 122,135 117,130 106,130 106,140 " style="fill:white; stroke:black; stroke-width:1; " id="knownclusterblast-1_all_1_2_9" class="clusterblast-orf"  />
</g>
<g id="a1_0010"  >
<polygon description="&lt;b&gt;ABI22143.1&lt;/b&gt;&lt;br&gt;putative adenosine kinase&lt;br&gt;Location: 51462 - 50479" locus_tag="ABI22143.1" points="122,140 130,140 135,135 130,130 122,130 122,140 " style="fill:white; stroke:black; stroke-width:1; " id="knownclusterblast-1_all_1_2_10" class="clusterblast-orf"  />
</g>
<g id="a1_0011"  >
<polygon description="&lt;b&gt;ABI22142.1&lt;/b&gt;&lt;br&gt;putative methionine synthase&lt;br&gt;Location: 50383 - 47000" locus_tag="ABI22142.1" points="136,140 174,140 179,135 174,130 136,130 136,140 " style="fill:white; stroke:black; stroke-width:1; " id="knownclusterblast-1_all_1_2_11" class="clusterblast-orf"  />
</g>
<g id="a1_0012"  >
<polygon description="&lt;b&gt;ABI22141.1&lt;/b&gt;&lt;br&gt;N5, N10-methylen-tetrahydrofolate reductase&lt;br&gt;Location: 46964 - 46023" locus_tag="ABI22141.1" points="180,140 187,140 192,135 187,130 180,130 180,140 " style="fill:white; stroke:black; stroke-width:1; " id="knownclusterblast-1_all_1_2_12" class="clusterblast-orf"  />
</g>
<g id="a1_0013"  >
<polygon description="&lt;b&gt;ABI22140.1&lt;/b&gt;&lt;br&gt;putative adenosylhomocysteinase&lt;br&gt;Location: 45993 - 44539" locus_tag="ABI22140.1" points="192,140 206,140 211,135 206,130 192,130 192,140 " style="fill:white; stroke:black; stroke-width:1; " id="knownclusterblast-1_all_1_2_13" class="clusterblast-orf"  />
</g>
<g id="a1_0014"  >
<polygon description="&lt;b&gt;ABI22139.1&lt;/b&gt;&lt;br&gt;prephenate dehydrogenase&lt;br&gt;Location: 44512 - 43343" locus_tag="ABI22139.1" points="211,140 221,140 226,135 221,130 211,130 211,140 " style="fill:white; stroke:black; stroke-width:1; " id="knownclusterblast-1_all_1_2_14" class="clusterblast-orf"  />
</g>
<g id="a1_0015"  >
<polygon description="&lt;b&gt;ABI22138.1&lt;/b&gt;&lt;br&gt;transcriptional regulatory protein&lt;br&gt;Location: 43202 - 42666" locus_tag="ABI22138.1" points="228,135 233,130 235,130 235,140 233,140 228,135 " style="fill:white; stroke:black; stroke-width:1; " id="knownclusterblast-1_all_1_2_15" class="clusterblast-orf"  />
</g>
<g id="a1_0016"  >
<polygon description="&lt;b&gt;ABI22137.1&lt;/b&gt;&lt;br&gt;SAM-dependent methyltransferase&lt;br&gt;Location: 42574 - 41474" locus_tag="ABI22137.1" points="236,135 241,130 250,130 250,140 241,140 236,135 " style="fill:white; stroke:black; stroke-width:1; " id="knownclusterblast-1_all_1_2_16" class="clusterblast-orf"  />
</g>
<g id="a1_0017"  >
<polygon description="&lt;b&gt;ABI22136.1&lt;/b&gt;&lt;br&gt;MbtH-like domain protein&lt;br&gt;Location: 41441 - 41220" locus_tag="ABI22136.1" points="251,135 253,130 253,140 251,135 " style="fill:white; stroke:black; stroke-width:1; " id="knownclusterblast-1_all_1_2_17" class="clusterblast-orf"  />
</g>
<g id="a1_0018"  >
<polygon description="&lt;b&gt;ABI22135.1&lt;/b&gt;&lt;br&gt;putative peptidase&lt;br&gt;Location: 41223 - 38854" locus_tag="ABI22135.1" points="253,135 258,130 284,130 284,140 258,140 253,135 " style="fill:white; stroke:black; stroke-width:1; " id="knownclusterblast-1_all_1_2_18" class="clusterblast-orf"  />
</g>
<g id="a1_0019"  >
<polygon description="&lt;b&gt;ABI22134.1&lt;/b&gt;&lt;br&gt;hypothetical protein&lt;br&gt;Location: 38857 - 37760" locus_tag="ABI22134.1" points="284,135 289,130 298,130 298,140 289,140 284,135 " style="fill:white; stroke:black; stroke-width:1; " id="knownclusterblast-1_all_1_2_19" class="clusterblast-orf"  />
</g>
<g id="a1_0020"  >
<polygon description="&lt;b&gt;ABI22133.1&lt;/b&gt;&lt;br&gt;putative non-ribosomal peptide synthetase&lt;br&gt;Location: 37763 - 33306" locus_tag="ABI22133.1" points="298,135 303,130 355,130 355,140 303,140 298,135 " style="fill:white; stroke:black; stroke-width:1; " id="knownclusterblast-1_all_1_2_20" class="clusterblast-orf"  />
</g>
<g id="a1_0021"  >
<polygon description="&lt;b&gt;ABI22132.1&lt;/b&gt;&lt;br&gt;putative non-ribosomal peptide synthetase&lt;br&gt;Location: 33309 - 30061" locus_tag="ABI22132.1" points="355,135 360,130 397,130 397,140 360,140 355,135 " style="fill:white; stroke:black; stroke-width:1; " id="knownclusterblast-1_all_1_2_21" class="clusterblast-orf"  />
</g>
<g id="a1_0022"  >
<polygon description="&lt;b&gt;ABI22131.1&lt;/b&gt;&lt;br&gt;putative non-ribosomal peptide synthetase&lt;br&gt;Location: 29924 - 24414" locus_tag="ABI22131.1" points="398,135 403,130 469,130 469,140 403,140 398,135 " style="fill:white; stroke:black; stroke-width:1; " id="knownclusterblast-1_all_1_2_22" class="clusterblast-orf"  />
</g>
<g id="a1_0023"  >
<polygon description="&lt;b&gt;ABI22130.1&lt;/b&gt;&lt;br&gt;cytochrome P450 hydroxylase&lt;br&gt;Location: 24390 - 22963" locus_tag="ABI22130.1" points="469,140 483,140 488,135 483,130 469,130 469,140 " style="fill:white; stroke:black; stroke-width:1; " id="knownclusterblast-1_all_1_2_23" class="clusterblast-orf"  />
</g>
<g id="a1_0024"  >
<polygon description="&lt;b&gt;ABI22129.1&lt;/b&gt;&lt;br&gt;oxidoreductase&lt;br&gt;Location: 22831 - 21317" locus_tag="ABI22129.1" points="490,140 504,140 509,135 504,130 490,130 490,140 " style="fill:white; stroke:black; stroke-width:1; " id="knownclusterblast-1_all_1_2_24" class="clusterblast-orf"  />
</g>
<g id="a1_0025"  >
<polygon description="&lt;b&gt;ABI22128.1&lt;/b&gt;&lt;br&gt;ferredoxin-like protein&lt;br&gt;Location: 21241 - 21056" locus_tag="ABI22128.1" points="510,135 512,130 512,140 510,135 " style="fill:white; stroke:black; stroke-width:1; " id="knownclusterblast-1_all_1_2_25" class="clusterblast-orf"  />
</g>
<g id="a1_0026"  >
<polygon description="&lt;b&gt;ABI22127.1&lt;/b&gt;&lt;br&gt;cytochrome P450 hydroxylase&lt;br&gt;Location: 21002 - 19815" locus_tag="ABI22127.1" points="513,135 518,130 528,130 528,140 518,140 513,135 " style="fill:white; stroke:black; stroke-width:1; " id="knownclusterblast-1_all_1_2_26" class="clusterblast-orf"  />
</g>
<g id="a1_0027"  >
<polygon description="&lt;b&gt;ABI22126.1&lt;/b&gt;&lt;br&gt;pyridoxamine 5'-phosphate oxidase-related protein&lt;br&gt;Location: 19631 - 19134" locus_tag="ABI22126.1" points="531,140 532,140 537,135 532,130 531,130 531,140 " style="fill:white; stroke:black; stroke-width:1; " id="knownclusterblast-1_all_1_2_27" class="clusterblast-orf"  />
</g>
<g id="a1_0028"  >
<polygon description="&lt;b&gt;ABI22125.1&lt;/b&gt;&lt;br&gt;hypothetical protein&lt;br&gt;Location: 19137 - 18655" locus_tag="ABI22125.1" points="537,140 538,140 543,135 538,130 537,130 537,140 " style="fill:white; stroke:black; stroke-width:1; " id="knownclusterblast-1_all_1_2_28" class="clusterblast-orf"  />
</g>
<g id="a1_0029"  >
<polygon description="&lt;b&gt;ABI22124.1&lt;/b&gt;&lt;br&gt;SAM-dependent methyltransferase&lt;br&gt;Location: 18502 - 17903" locus_tag="ABI22124.1" points="545,140 548,140 553,135 548,130 545,130 545,140 " style="fill:white; stroke:black; stroke-width:1; " id="knownclusterblast-1_all_1_2_29" class="clusterblast-orf"  />
</g>
<g id="a1_0030"  >
<polygon description="&lt;b&gt;ABI22123.1&lt;/b&gt;&lt;br&gt;monooxygenase&lt;br&gt;Location: 17827 - 16262" locus_tag="ABI22123.1" points="554,140 569,140 574,135 569,130 554,130 554,140 " style="fill:white; stroke:black; stroke-width:1; " id="knownclusterblast-1_all_1_2_30" class="clusterblast-orf"  />
</g>
<g id="a1_0031"  >
<polygon description="&lt;b&gt;ABI22122.1&lt;/b&gt;&lt;br&gt;UV-repair protein&lt;br&gt;Location: 16191 - 13732" locus_tag="ABI22122.1" points="575,140 601,140 606,135 601,130 575,130 575,140 " style="fill:white; stroke:black; stroke-width:1; " id="knownclusterblast-1_all_1_2_31" class="clusterblast-orf"  />
</g>
<g id="a1_0032"  >
<polygon description="&lt;b&gt;ABI22121.1&lt;/b&gt;&lt;br&gt;transmembrane efflux protein&lt;br&gt;Location: 13620 - 12181" locus_tag="ABI22121.1" points="608,135 613,130 626,130 626,140 613,140 608,135 " style="fill:white; stroke:black; stroke-width:1; " id="knownclusterblast-1_all_1_2_32" class="clusterblast-orf"  />
</g>
<g id="a1_0033"  >
<polygon description="&lt;b&gt;ABI22120.1&lt;/b&gt;&lt;br&gt;oxidoreductase&lt;br&gt;Location: 12147 - 10609" locus_tag="ABI22120.1" points="627,135 632,130 646,130 646,140 632,140 627,135 " style="fill:white; stroke:black; stroke-width:1; " id="knownclusterblast-1_all_1_2_33" class="clusterblast-orf"  />
</g>
<g id="a1_0034"  >
<polygon description="&lt;b&gt;ABI22119.1&lt;/b&gt;&lt;br&gt;transcriptional regulatory protein&lt;br&gt;Location: 10439 - 9930" locus_tag="ABI22119.1" points="649,135 654,130 655,130 655,140 654,140 649,135 " style="fill:white; stroke:black; stroke-width:1; " id="knownclusterblast-1_all_1_2_34" class="clusterblast-orf"  />
</g>
<g id="a1_0035"  >
<polygon description="&lt;b&gt;ABI22118.1&lt;/b&gt;&lt;br&gt;oxidoreductase&lt;br&gt;Location: 9727 - 8813" locus_tag="ABI22118.1" points="658,135 663,130 669,130 669,140 663,140 658,135 " style="fill:white; stroke:black; stroke-width:1; " id="knownclusterblast-1_all_1_2_35" class="clusterblast-orf"  />
</g>
<g id="a1_0036"  >
<polygon description="&lt;b&gt;ABI22117.1&lt;/b&gt;&lt;br&gt;transcriptional regulator&lt;br&gt;Location: 8816 - 8229" locus_tag="ABI22117.1" points="669,135 674,130 677,130 677,140 674,140 669,135 " style="fill:white; stroke:black; stroke-width:1; " id="knownclusterblast-1_all_1_2_36" class="clusterblast-orf"  />
</g>
<g id="a1_0037"  >
<polygon description="&lt;b&gt;ABI22116.1&lt;/b&gt;&lt;br&gt;hypothetical protein&lt;br&gt;Location: 8062 - 7628" locus_tag="ABI22116.1" points="679,135 684,130 685,130 685,140 684,140 679,135 " style="fill:white; stroke:black; stroke-width:1; " id="knownclusterblast-1_all_1_2_37" class="clusterblast-orf"  />
</g>
<g id="a1_0038"  >
<polygon description="&lt;b&gt;ABQ41263.1&lt;/b&gt;&lt;br&gt;glyoxalase/bleomycin resistance protein/dioxygenase&lt;br&gt;Location: 7598 - 7185" locus_tag="ABQ41263.1" points="685,135 690,130 690,130 690,140 690,140 685,135 " style="fill:white; stroke:black; stroke-width:1; " id="knownclusterblast-1_all_1_2_38" class="clusterblast-orf"  />
</g>
<g id="a1_0039"  >
<polygon description="&lt;b&gt;ABQ42336.1&lt;/b&gt;&lt;br&gt;hypothetical protein&lt;br&gt;Location: 7125 - 6490" locus_tag="ABQ42336.1" points="691,135 696,130 699,130 699,140 696,140 691,135 " style="fill:white; stroke:black; stroke-width:1; " id="knownclusterblast-1_all_1_2_39" class="clusterblast-orf"  />
</g>
<g id="a1_0040"  >
<polygon description="&lt;b&gt;ABQ41262.1&lt;/b&gt;&lt;br&gt;hypothetical protein&lt;br&gt;Location: 6405 - 6034" locus_tag="ABQ41262.1" points="700,135 705,130 705,130 705,140 705,140 700,135 " style="fill:white; stroke:black; stroke-width:1; " id="knownclusterblast-1_all_1_2_40" class="clusterblast-orf"  />
</g>
<g id="a1_0041"  >
<polygon description="&lt;b&gt;ABQ41261.1&lt;/b&gt;&lt;br&gt;putative methyltransferase&lt;br&gt;Location: 5921 - 5283" locus_tag="ABQ41261.1" points="707,140 710,140 715,135 710,130 707,130 707,140 " style="fill:white; stroke:black; stroke-width:1; " id="knownclusterblast-1_all_1_2_41" class="clusterblast-orf"  />
</g>
<g id="a1_0042"  >
<polygon description="&lt;b&gt;ABQ41260.1&lt;/b&gt;&lt;br&gt;hypothetical protein&lt;br&gt;Location: 5161 - 3929" locus_tag="ABQ41260.1" points="716,135 721,130 732,130 732,140 721,140 716,135 " style="fill:white; stroke:black; stroke-width:1; " id="knownclusterblast-1_all_1_2_42" class="clusterblast-orf"  />
</g>
<g id="a1_0043"  >
<polygon description="&lt;b&gt;ABQ41259.1&lt;/b&gt;&lt;br&gt;putative transcriptional regulator&lt;br&gt;Location: 3703 - 2141" locus_tag="ABQ41259.1" points="735,135 740,130 755,130 755,140 740,140 735,135 " style="fill:white; stroke:black; stroke-width:1; " id="knownclusterblast-1_all_1_2_43" class="clusterblast-orf"  />
</g>
<g id="a1_0044"  >
<polygon description="&lt;b&gt;ABQ41258.1&lt;/b&gt;&lt;br&gt;putative translation initiation inhibitor&lt;br&gt;Location: 2169 - 1663" locus_tag="ABQ41258.1" points="755,140 756,140 761,135 756,130 755,130 755,140 " style="fill:white; stroke:black; stroke-width:1; " id="knownclusterblast-1_all_1_2_44" class="clusterblast-orf"  />
</g>
<g id="a1_0045"  >
<polygon description="&lt;b&gt;ABQ41257.1&lt;/b&gt;&lt;br&gt;tyrosinase co-factor&lt;br&gt;Location: 1488 - 1066&lt;br&gt;&lt;br&gt;&lt;b&gt;BlastP hit with cds0_279&lt;/b&gt;&lt;br&gt;Percentage identity: 46&lt;br&gt;Percentage coverage: 92&lt;br&gt;BLAST bit score: 72&lt;br&gt;E-value: 3.9e-13" locus_tag="ABQ41257.1" points="764,140 764,140 769,135 764,130 764,130 764,140 " style="fill:#d81515; stroke:black; stroke-width:1; " id="knownclusterblast-1_all_1_2_45" class="clusterblast-orf"  />
</g>
<g id="a1_0046"  >
<polygon description="&lt;b&gt;ABQ41256.1&lt;/b&gt;&lt;br&gt;tyrosinase&lt;br&gt;Location: 1069 - 245&lt;br&gt;&lt;br&gt;&lt;b&gt;BlastP hit with cds298_1159&lt;/b&gt;&lt;br&gt;Percentage identity: 69&lt;br&gt;Percentage coverage: 94&lt;br&gt;BLAST bit score: 421&lt;br&gt;E-value: 1.4e-117" locus_tag="ABQ41256.1" points="769,140 775,140 780,135 775,130 769,130 769,140 " style="fill:#15d8d8; stroke:black; stroke-width:1; " id="knownclusterblast-1_all_1_2_46" class="clusterblast-orf"  />
</g>
<g description="BGC0000912_c1: melanin (100% of genes show similarity), Other" class="clusterblast-cluster" label="BGC0000912"  >
<text y="170" class="clusterblast-acc" x="5"  >
<a xlink:href="https://mibig.secondarymetabolites.org/go/BGC0000912/1" target="_blank">BGC0000912</a>:                                                                          melanin (100% of genes show similarity), Other</text>
<line x2="778.0" y2="185" y1="185" x1="10" style="stroke:grey; stroke-width:1; "  />
</g>
<g id="a1_000"  >
<polygon description="&lt;b&gt;SGR_2446&lt;/b&gt;&lt;br&gt;putative tyrosinase co-factor protein&lt;br&gt;Location: 1 - 423&lt;br&gt;&lt;br&gt;&lt;b&gt;BlastP hit with cds0_279&lt;/b&gt;&lt;br&gt;Percentage identity: 58&lt;br&gt;Percentage coverage: 93&lt;br&gt;BLAST bit score: 72&lt;br&gt;E-value: 3e-13" locus_tag="SGR_2446" points="381,190 382,190 387,185 382,180 381,180 381,190 " style="fill:#d81515; stroke:black; stroke-width:1; " id="knownclusterblast-1_all_1_3_0" class="clusterblast-orf"  />
</g>
<g id="a1_001"  >
<polygon description="&lt;b&gt;SGR_2447&lt;/b&gt;&lt;br&gt;putative tyrosinase&lt;br&gt;Location: 441 - 1265&lt;br&gt;&lt;br&gt;&lt;b&gt;BlastP hit with cds298_1159&lt;/b&gt;&lt;br&gt;Percentage identity: 63&lt;br&gt;Percentage coverage: 95&lt;br&gt;BLAST bit score: 365&lt;br&gt;E-value: 6.9e-101" locus_tag="SGR_2447" points="387,190 393,190 398,185 393,180 387,180 387,190 " style="fill:#15d8d8; stroke:black; stroke-width:1; " id="knownclusterblast-1_all_1_3_1" class="clusterblast-orf"  />
</g>
</svg>
