<svg y="0" version="1.1" preserveAspectRatio="none" xmlns="http://www.w3.org/2000/svg" height="230" x="0" viewBox="0 0 800 230" xmlns:xlink="http://www.w3.org/1999/xlink" width="800"  >
<g class="clusterblast-cluster" label="Query sequence"  >
<text y="20" class="clusterblast-acc" x="5"  >
Query sequence</text>
<line x2="778.0" y2="35" y1="35" x1="10" style="stroke:grey; stroke-width:1; "  />
<polygon description="&lt;b&gt;cds1475_1949&lt;/b&gt;&lt;br&gt;Acetyltransferase&lt;br&gt;Location: 1475 - 1949" locus_tag="cds1475_1949" points="1,40 69,40 74,35 69,30 1,30 1,40 " style="fill:white; stroke:black; stroke-width:1; " id="dummy-1_q0_0_all" class="clusterblast-orf"  />
<polygon description="&lt;b&gt;cds2124_2808&lt;/b&gt;&lt;br&gt;Transcriptional regulator, AcrR family&lt;br&gt;Location: 2124 - 2808" locus_tag="cds2124_2808" points="100,35 105,30 205,30 205,40 105,40 100,35 " style="fill:#d81515; stroke:black; stroke-width:1; " id="dummy-1_q1_0_all" class="clusterblast-orf"  />
<polygon description="&lt;b&gt;cds3051_3825&lt;/b&gt;&lt;br&gt;Oxidoreductase, short-chain dehydrogenase/reductase family&lt;br&gt;Location: 3051 - 3825" locus_tag="cds3051_3825" points="242,40 356,40 361,35 356,30 242,30 242,40 " style="fill:#15d815; stroke:black; stroke-width:1; " id="dummy-1_q2_0_all" class="clusterblast-orf"  />
<polygon description="&lt;b&gt;cds3969_4119&lt;/b&gt;&lt;br&gt;hypothetical protein&lt;br&gt;Location: 3969 - 4119" locus_tag="cds3969_4119" points="383,40 401,40 406,35 401,30 383,30 383,40 " style="fill:white; stroke:black; stroke-width:1; " id="dummy-1_q3_0_all" class="clusterblast-orf"  />
<polygon description="&lt;b&gt;cds4425_5013&lt;/b&gt;&lt;br&gt;Putative reductase&lt;br&gt;Location: 4425 - 5013" locus_tag="cds4425_5013" points="452,40 537,40 542,35 537,30 452,30 452,40 " style="fill:white; stroke:black; stroke-width:1; " id="dummy-1_q4_0_all" class="clusterblast-orf"  />
<polygon description="&lt;b&gt;cds5128_6091&lt;/b&gt;&lt;br&gt;A-factor biosynthesis protein AfsA&lt;br&gt;Location: 5128 - 6091" locus_tag="cds5128_6091" points="560,35 565,30 707,30 707,40 565,40 560,35 " style="fill:#1515d8; stroke:black; stroke-width:1; " id="dummy-1_q5_0_all" class="clusterblast-orf"  />
<polygon description="&lt;b&gt;cds6414_6573&lt;/b&gt;&lt;br&gt;hypothetical protein&lt;br&gt;Location: 6414 - 6573" locus_tag="cds6414_6573" points="757,40 776,40 781,35 776,30 757,30 757,40 " style="fill:white; stroke:black; stroke-width:1; " id="dummy-1_q6_0_all" class="clusterblast-orf"  />
</g>
<g description="BGC0000849_c1: SCB1 / SCB2 / SCB3 (100% of genes show similarity), Other:Butyrolactone" class="clusterblast-cluster" label="BGC0000849"  >
<text y="70" class="clusterblast-acc" x="5"  >
<a xlink:href="https://mibig.secondarymetabolites.org/go/BGC0000849/1" target="_blank">BGC0000849</a>:                                                               SCB1 / SCB2 / SCB3 (100% of genes show similarity), Other:Butyrolactone</text>
<line x2="778.0" y2="85" y1="85" x1="10" style="stroke:grey; stroke-width:1; "  />
</g>
<g id="a1_000"  >
<polygon description="&lt;b&gt;CAB60184.1&lt;/b&gt;&lt;br&gt;gamma-butyrolactone binding protein&lt;br&gt;Location: 1 - 648&lt;br&gt;&lt;br&gt;&lt;b&gt;BlastP hit with cds2124_2808&lt;/b&gt;&lt;br&gt;Percentage identity: 49&lt;br&gt;Percentage coverage: 92&lt;br&gt;BLAST bit score: 192&lt;br&gt;E-value: 6.3e-49" locus_tag="CAB60184.1" points="259,85 264,80 358,80 358,90 264,90 259,85 " style="fill:#d81515; stroke:black; stroke-width:1; " id="dummy-1_h1_1_0" class="clusterblast-orf"  />
</g>
<g id="a1_001"  >
<polygon description="&lt;b&gt;CAB60185.1&lt;/b&gt;&lt;br&gt;ScbA protein&lt;br&gt;Location: 766 - 1710&lt;br&gt;&lt;br&gt;&lt;b&gt;BlastP hit with cds5128_6091&lt;/b&gt;&lt;br&gt;Percentage identity: 50&lt;br&gt;Percentage coverage: 91&lt;br&gt;BLAST bit score: 278&lt;br&gt;E-value: 1.6e-74" locus_tag="CAB60185.1" points="376,90 515,90 520,85 515,80 376,80 376,90 " style="fill:#1515d8; stroke:black; stroke-width:1; " id="dummy-1_h1_1_1" class="clusterblast-orf"  />
</g>
</svg>
