<svg y="0" version="1.1" preserveAspectRatio="none" xmlns="http://www.w3.org/2000/svg" height="50" x="0" viewBox="0 0 800 50" xmlns:xlink="http://www.w3.org/1999/xlink" width="800"  >
<g class="clusterblast-cluster" label="Query sequence"  >
<text y="20" class="clusterblast-acc" x="5"  >
Query sequence</text>
<line x2="778.0" y2="35" y1="35" x1="10" style="stroke:grey; stroke-width:1; "  />
<polygon description="&lt;b&gt;cds0_225&lt;/b&gt;&lt;br&gt;hypothetical protein&lt;br&gt;Location: 0 - 225" locus_tag="cds0_225" points="0,35 5,30 14,30 14,40 5,40 0,35 " style="fill:white; stroke:black; stroke-width:1; " id="knownclusterblast-1_q0_0_all" class="clusterblast-orf"  />
<polygon description="&lt;b&gt;cds221_1967&lt;/b&gt;&lt;br&gt;Phenylacetic acid degradation protein PaaN2, ring-opening aldehyde dehydrogenase (EC 1.2.1.3)&lt;br&gt;Location: 221 - 1967" locus_tag="cds221_1967" points="14,35 19,30 119,30 119,40 19,40 14,35 " style="fill:white; stroke:black; stroke-width:1; " id="knownclusterblast-1_q1_0_all" class="clusterblast-orf"  />
<polygon description="&lt;b&gt;cds2458_3352&lt;/b&gt;&lt;br&gt;Siderophore biosynthesis non-ribosomal peptide synthetase modules&lt;br&gt;Location: 2458 - 3352" locus_tag="cds2458_3352" points="149,35 154,30 203,30 203,40 154,40 149,35 " style="fill:white; stroke:black; stroke-width:1; " id="knownclusterblast-1_q2_0_all" class="clusterblast-orf"  />
<polygon description="&lt;b&gt;cds3348_4557&lt;/b&gt;&lt;br&gt;2-polyprenyl-6-methoxyphenol hydroxylase and related FAD-dependent oxidoreductases&lt;br&gt;Location: 3348 - 4557" locus_tag="cds3348_4557" points="203,35 208,30 276,30 276,40 208,40 203,35 " style="fill:white; stroke:black; stroke-width:1; " id="knownclusterblast-1_q3_0_all" class="clusterblast-orf"  />
<polygon description="&lt;b&gt;cds4568_11861&lt;/b&gt;&lt;br&gt;Siderophore biosynthesis non-ribosomal peptide synthetase modules&lt;br&gt;Location: 4568 - 11861" locus_tag="cds4568_11861" points="277,35 282,30 719,30 719,40 282,40 277,35 " style="fill:white; stroke:black; stroke-width:1; " id="knownclusterblast-1_q4_0_all" class="clusterblast-orf"  />
<polygon description="&lt;b&gt;cds12068_12869&lt;/b&gt;&lt;br&gt;3-oxoadipate enol-lactone hydrolase/4-carboxymuconolactone decarboxylase&lt;br&gt;Location: 12068 - 12869" locus_tag="cds12068_12869" points="732,40 775,40 780,35 775,30 732,30 732,40 " style="fill:white; stroke:black; stroke-width:1; " id="knownclusterblast-1_q5_0_all" class="clusterblast-orf"  />
</g>
</svg>
