<svg y="0" version="1.1" preserveAspectRatio="none" xmlns="http://www.w3.org/2000/svg" height="230" x="0" viewBox="0 0 800 230" xmlns:xlink="http://www.w3.org/1999/xlink" width="800"  >
<g class="clusterblast-cluster" label="Query sequence"  >
<text y="20" class="clusterblast-acc" x="5"  >
Query sequence</text>
<line x2="778.0" y2="35" y1="35" x1="10" style="stroke:grey; stroke-width:1; "  />
<polygon description="&lt;b&gt;cds18_354&lt;/b&gt;&lt;br&gt;Oxidoreductase, GMC family&lt;br&gt;Location: 18 - 354" locus_tag="cds18_354" points="302,35 307,30 309,30 309,40 307,40 302,35 " style="fill:#d81515; stroke:black; stroke-width:1; " id="dummy-1_q0_0_all" class="clusterblast-orf"  />
<polygon description="&lt;b&gt;cds350_3629&lt;/b&gt;&lt;br&gt;Polyketide synthase modules and related proteins&lt;br&gt;Location: 350 - 3629" locus_tag="cds350_3629" points="308,35 313,30 372,30 372,40 313,40 308,35 " style="fill:#77d815; stroke:black; stroke-width:1; " id="dummy-1_q1_0_all" class="clusterblast-orf"  />
<polygon description="&lt;b&gt;cds3680_3905&lt;/b&gt;&lt;br&gt;hypothetical protein&lt;br&gt;Location: 3680 - 3905" locus_tag="cds3680_3905" points="373,40 377,35 373,30 373,40 " style="fill:white; stroke:black; stroke-width:1; " id="dummy-1_q2_0_all" class="clusterblast-orf"  />
<polygon description="&lt;b&gt;cds3939_4533&lt;/b&gt;&lt;br&gt;Phosphopantothenoylcysteine decarboxylase (EC 4.1.1.36) / Phosphopantothenoylcysteine synthetase (EC 6.3.2.5)&lt;br&gt;Location: 3939 - 4533" locus_tag="cds3939_4533" points="378,40 384,40 389,35 384,30 378,30 378,40 " style="fill:#15d8d8; stroke:black; stroke-width:1; " id="dummy-1_q3_0_all" class="clusterblast-orf"  />
<polygon description="&lt;b&gt;cds4783_5191&lt;/b&gt;&lt;br&gt;RidA/YER057c/UK114 superfamily protein&lt;br&gt;Location: 4783 - 5191" locus_tag="cds4783_5191" points="394,35 399,30 402,30 402,40 399,40 394,35 " style="fill:white; stroke:black; stroke-width:1; " id="dummy-1_q4_0_all" class="clusterblast-orf"  />
<polygon description="&lt;b&gt;cds5336_6794&lt;/b&gt;&lt;br&gt;Putative oxidoreductase&lt;br&gt;Location: 5336 - 6794" locus_tag="cds5336_6794" points="404,35 409,30 433,30 433,40 409,40 404,35 " style="fill:#7715d8; stroke:black; stroke-width:1; " id="dummy-1_q5_0_all" class="clusterblast-orf"  />
<polygon description="&lt;b&gt;cds6862_7612&lt;/b&gt;&lt;br&gt;hypothetical protein&lt;br&gt;Location: 6862 - 7612" locus_tag="cds6862_7612" points="434,35 439,30 448,30 448,40 439,40 434,35 " style="fill:white; stroke:black; stroke-width:1; " id="dummy-1_q6_0_all" class="clusterblast-orf"  />
<polygon description="&lt;b&gt;cds7657_8884&lt;/b&gt;&lt;br&gt;Uncharacterized MFS-type transporter&lt;br&gt;Location: 7657 - 8884" locus_tag="cds7657_8884" points="449,35 454,30 473,30 473,40 454,40 449,35 " style="fill:white; stroke:black; stroke-width:1; " id="dummy-1_q7_0_all" class="clusterblast-orf"  />
<polygon description="&lt;b&gt;cds8880_9117&lt;/b&gt;&lt;br&gt;hypothetical protein&lt;br&gt;Location: 8880 - 9117" locus_tag="cds8880_9117" points="473,35 477,30 477,40 473,35 " style="fill:white; stroke:black; stroke-width:1; " id="dummy-1_q8_0_all" class="clusterblast-orf"  />
</g>
<g description="BGC0001193_c1: thiolutin (12% of genes show similarity), NRP" class="clusterblast-cluster" label="BGC0001193"  >
<text y="70" class="clusterblast-acc" x="5"  >
<a xlink:href="https://mibig.secondarymetabolites.org/go/BGC0001193/1" target="_blank">BGC0001193</a>:                                                                        thiolutin (12% of genes show similarity), NRP</text>
<line x2="778.0" y2="85" y1="85" x1="10" style="stroke:grey; stroke-width:1; "  />
</g>
<g id="a1_000"  >
<polygon description="&lt;b&gt;AJI44190.1&lt;/b&gt;&lt;br&gt;hypothetical protein&lt;br&gt;Location: 40556 - 36576" locus_tag="AJI44190.1" points="0,90 71,90 76,85 71,80 0,80 0,90 " style="fill:white; stroke:black; stroke-width:1; " id="dummy-1_h1_2_0" class="clusterblast-orf"  />
</g>
<g id="a1_001"  >
<polygon description="&lt;b&gt;AJI44189.1&lt;/b&gt;&lt;br&gt;hypothetical protein&lt;br&gt;Location: 36606 - 35017" locus_tag="AJI44189.1" points="76,85 81,80 106,80 106,90 81,90 76,85 " style="fill:white; stroke:black; stroke-width:1; " id="dummy-1_h1_2_1" class="clusterblast-orf"  />
</g>
<g id="a1_002"  >
<polygon description="&lt;b&gt;AJI44188.1&lt;/b&gt;&lt;br&gt;hypothetical protein&lt;br&gt;Location: 34984 - 34160" locus_tag="AJI44188.1" points="107,85 112,80 123,80 123,90 112,90 107,85 " style="fill:white; stroke:black; stroke-width:1; " id="dummy-1_h1_2_2" class="clusterblast-orf"  />
</g>
<g id="a1_003"  >
<polygon description="&lt;b&gt;AJI44187.1&lt;/b&gt;&lt;br&gt;hypothetical protein&lt;br&gt;Location: 34125 - 32665" locus_tag="AJI44187.1" points="123,85 128,80 152,80 152,90 128,90 123,85 " style="fill:white; stroke:black; stroke-width:1; " id="dummy-1_h1_2_3" class="clusterblast-orf"  />
</g>
<g id="a1_004"  >
<polygon description="&lt;b&gt;AJI44186.1&lt;/b&gt;&lt;br&gt;hypothetical protein&lt;br&gt;Location: 31991 - 29514" locus_tag="AJI44186.1" points="165,85 170,80 212,80 212,90 170,90 165,85 " style="fill:white; stroke:black; stroke-width:1; " id="dummy-1_h1_2_4" class="clusterblast-orf"  />
</g>
<g id="a1_005"  >
<polygon description="&lt;b&gt;AJI44185.1&lt;/b&gt;&lt;br&gt;hypothetical protein&lt;br&gt;Location: 29517 - 28756" locus_tag="AJI44185.1" points="212,85 217,80 227,80 227,90 217,90 212,85 " style="fill:white; stroke:black; stroke-width:1; " id="dummy-1_h1_2_5" class="clusterblast-orf"  />
</g>
<g id="a1_006"  >
<polygon description="&lt;b&gt;AJI44184.1&lt;/b&gt;&lt;br&gt;drug resistance transporter EmrB/QacA&lt;br&gt;Location: 28592 - 26997" locus_tag="AJI44184.1" points="230,90 256,90 261,85 256,80 230,80 230,90 " style="fill:white; stroke:black; stroke-width:1; " id="dummy-1_h1_2_6" class="clusterblast-orf"  />
</g>
<g id="a1_007"  >
<polygon description="&lt;b&gt;AJI44183.1&lt;/b&gt;&lt;br&gt;thioredoxin reductase&lt;br&gt;Location: 26871 - 25921" locus_tag="AJI44183.1" points="263,85 268,80 281,80 281,90 268,90 263,85 " style="fill:white; stroke:black; stroke-width:1; " id="dummy-1_h1_2_7" class="clusterblast-orf"  />
</g>
<g id="a1_008"  >
<polygon description="&lt;b&gt;AJI44182.1&lt;/b&gt;&lt;br&gt;putative regulatory protein&lt;br&gt;Location: 25832 - 25245" locus_tag="AJI44182.1" points="283,90 289,90 294,85 289,80 283,80 283,90 " style="fill:white; stroke:black; stroke-width:1; " id="dummy-1_h1_2_8" class="clusterblast-orf"  />
</g>
<g id="a1_009"  >
<polygon description="&lt;b&gt;AJI44181.1&lt;/b&gt;&lt;br&gt;hypothetical protein&lt;br&gt;Location: 25058 - 23643&lt;br&gt;&lt;br&gt;&lt;b&gt;BlastP hit with cds5336_6794&lt;/b&gt;&lt;br&gt;Percentage identity: 70&lt;br&gt;Percentage coverage: 97&lt;br&gt;BLAST bit score: 663&lt;br&gt;E-value: 2.7e-190" locus_tag="AJI44181.1" points="298,90 320,90 325,85 320,80 298,80 298,90 " style="fill:#7715d8; stroke:black; stroke-width:1; " id="dummy-1_h1_2_9" class="clusterblast-orf"  />
</g>
<g id="a1_0010"  >
<polygon description="&lt;b&gt;AJI44180.1&lt;/b&gt;&lt;br&gt;globin&lt;br&gt;Location: 23315 - 22872" locus_tag="AJI44180.1" points="332,85 337,80 340,80 340,90 337,90 332,85 " style="fill:white; stroke:black; stroke-width:1; " id="dummy-1_h1_2_10" class="clusterblast-orf"  />
</g>
<g id="a1_0011"  >
<polygon description="&lt;b&gt;AJI44179.1&lt;/b&gt;&lt;br&gt;hypothetical protein&lt;br&gt;Location: 22827 - 21685" locus_tag="AJI44179.1" points="341,85 346,80 363,80 363,90 346,90 341,85 " style="fill:white; stroke:black; stroke-width:1; " id="dummy-1_h1_2_11" class="clusterblast-orf"  />
</g>
<g id="a1_0012"  >
<polygon description="&lt;b&gt;AJI44178.1&lt;/b&gt;&lt;br&gt;hypothetical protein&lt;br&gt;Location: 21683 - 20937" locus_tag="AJI44178.1" points="363,85 368,80 377,80 377,90 368,90 363,85 " style="fill:white; stroke:black; stroke-width:1; " id="dummy-1_h1_2_12" class="clusterblast-orf"  />
</g>
<g id="a1_0013"  >
<polygon description="&lt;b&gt;AJI44177.1&lt;/b&gt;&lt;br&gt;glucose-methanol-choline oxidoreductase&lt;br&gt;Location: 20931 - 19381" locus_tag="AJI44177.1" points="378,85 383,80 407,80 407,90 383,90 378,85 " style="fill:white; stroke:black; stroke-width:1; " id="dummy-1_h1_2_13" class="clusterblast-orf"  />
</g>
<g id="a1_0014"  >
<polygon description="&lt;b&gt;AJI44176.1&lt;/b&gt;&lt;br&gt;nonribosomal peptide synthetase&lt;br&gt;Location: 19384 - 16250&lt;br&gt;&lt;br&gt;&lt;b&gt;BlastP hit with cds350_3629&lt;/b&gt;&lt;br&gt;Percentage identity: 61&lt;br&gt;Percentage coverage: 96&lt;br&gt;BLAST bit score: 1266&lt;br&gt;E-value: 0.0" locus_tag="AJI44176.1" points="407,85 412,80 468,80 468,90 412,90 407,85 " style="fill:#77d815; stroke:black; stroke-width:1; " id="dummy-1_h1_2_14" class="clusterblast-orf"  />
</g>
<g id="a1_0015"  >
<polygon description="&lt;b&gt;AJI44175.1&lt;/b&gt;&lt;br&gt;phosphopantothenoylcysteine decarboxylase&lt;br&gt;Location: 15913 - 15332&lt;br&gt;&lt;br&gt;&lt;b&gt;BlastP hit with cds3939_4533&lt;/b&gt;&lt;br&gt;Percentage identity: 65&lt;br&gt;Percentage coverage: 96&lt;br&gt;BLAST bit score: 250&lt;br&gt;E-value: 2.9e-66" locus_tag="AJI44175.1" points="474,90 480,90 485,85 480,80 474,80 474,90 " style="fill:#15d8d8; stroke:black; stroke-width:1; " id="dummy-1_h1_2_15" class="clusterblast-orf"  />
</g>
<g id="a1_0016"  >
<polygon description="&lt;b&gt;AJI44174.1&lt;/b&gt;&lt;br&gt;streptomycin biosynthesis operon regulator&lt;br&gt;Location: 15279 - 14314" locus_tag="AJI44174.1" points="487,85 492,80 505,80 505,90 492,90 487,85 " style="fill:white; stroke:black; stroke-width:1; " id="dummy-1_h1_2_16" class="clusterblast-orf"  />
</g>
<g id="a1_0017"  >
<polygon description="&lt;b&gt;AJI44191.1&lt;/b&gt;&lt;br&gt;hypothetical protein&lt;br&gt;Location: 13524 - 12859" locus_tag="AJI44191.1" points="520,90 528,90 533,85 528,80 520,80 520,90 " style="fill:white; stroke:black; stroke-width:1; " id="dummy-1_h1_2_17" class="clusterblast-orf"  />
</g>
<g id="a1_0018"  >
<polygon description="&lt;b&gt;AJI44173.1&lt;/b&gt;&lt;br&gt;ferredoxin&lt;br&gt;Location: 12107 - 11901" locus_tag="AJI44173.1" points="548,90 552,85 548,80 548,90 " style="fill:white; stroke:black; stroke-width:1; " id="dummy-1_h1_2_18" class="clusterblast-orf"  />
</g>
<g id="a1_0019"  >
<polygon description="&lt;b&gt;AJI44172.1&lt;/b&gt;&lt;br&gt;ferredoxin reductase&lt;br&gt;Location: 11886 - 10714" locus_tag="AJI44172.1" points="552,90 569,90 574,85 569,80 552,80 552,90 " style="fill:white; stroke:black; stroke-width:1; " id="dummy-1_h1_2_19" class="clusterblast-orf"  />
</g>
<g id="a1_0020"  >
<polygon description="&lt;b&gt;AJI44171.1&lt;/b&gt;&lt;br&gt;cytochrome P450 hydroxylase&lt;br&gt;Location: 10681 - 9461" locus_tag="AJI44171.1" points="575,90 594,90 599,85 594,80 575,80 575,90 " style="fill:white; stroke:black; stroke-width:1; " id="dummy-1_h1_2_20" class="clusterblast-orf"  />
</g>
<g id="a1_0021"  >
<polygon description="&lt;b&gt;AJI44170.1&lt;/b&gt;&lt;br&gt;hypothetical protein&lt;br&gt;Location: 9277 - 7727" locus_tag="AJI44170.1" points="602,85 607,80 632,80 632,90 607,90 602,85 " style="fill:white; stroke:black; stroke-width:1; " id="dummy-1_h1_2_21" class="clusterblast-orf"  />
</g>
<g id="a1_0022"  >
<polygon description="&lt;b&gt;AJI44169.1&lt;/b&gt;&lt;br&gt;2-keto-3-deoxy-D-arabino-heptulosonate-7&lt;br&gt;Location: 7544 - 6516" locus_tag="AJI44169.1" points="636,85 641,80 655,80 655,90 641,90 636,85 " style="fill:white; stroke:black; stroke-width:1; " id="dummy-1_h1_2_22" class="clusterblast-orf"  />
</g>
<g id="a1_0023"  >
<polygon description="&lt;b&gt;AJI44168.1&lt;/b&gt;&lt;br&gt;hypothetical protein&lt;br&gt;Location: 6523 - 5138" locus_tag="AJI44168.1" points="655,85 660,80 682,80 682,90 660,90 655,85 " style="fill:white; stroke:black; stroke-width:1; " id="dummy-1_h1_2_23" class="clusterblast-orf"  />
</g>
<g id="a1_0024"  >
<polygon description="&lt;b&gt;AJI44167.1&lt;/b&gt;&lt;br&gt;long-chain-fatty-acid-CoA ligase&lt;br&gt;Location: 5129 - 72" locus_tag="AJI44167.1" points="682,85 687,80 780,80 780,90 687,90 682,85 " style="fill:white; stroke:black; stroke-width:1; " id="dummy-1_h1_2_24" class="clusterblast-orf"  />
</g>
</svg>
