<svg y="0" version="1.1" preserveAspectRatio="none" xmlns="http://www.w3.org/2000/svg" height="50" x="0" viewBox="0 0 800 50" xmlns:xlink="http://www.w3.org/1999/xlink" width="800"  >
<g class="clusterblast-cluster" label="Query sequence"  >
<text y="20" class="clusterblast-acc" x="5"  >
Query sequence</text>
<line x2="778.0" y2="35" y1="35" x1="10" style="stroke:grey; stroke-width:1; "  />
<polygon description="&lt;b&gt;cds1475_1949&lt;/b&gt;&lt;br&gt;Acetyltransferase&lt;br&gt;Location: 1475 - 1949" locus_tag="cds1475_1949" points="1,40 69,40 74,35 69,30 1,30 1,40 " style="fill:white; stroke:black; stroke-width:1; " id="subclusterblast-1_q0_0_all" class="clusterblast-orf"  />
<polygon description="&lt;b&gt;cds2124_2808&lt;/b&gt;&lt;br&gt;Transcriptional regulator, AcrR family&lt;br&gt;Location: 2124 - 2808" locus_tag="cds2124_2808" points="100,35 105,30 205,30 205,40 105,40 100,35 " style="fill:white; stroke:black; stroke-width:1; " id="subclusterblast-1_q1_0_all" class="clusterblast-orf"  />
<polygon description="&lt;b&gt;cds3051_3825&lt;/b&gt;&lt;br&gt;Oxidoreductase, short-chain dehydrogenase/reductase family&lt;br&gt;Location: 3051 - 3825" locus_tag="cds3051_3825" points="242,40 356,40 361,35 356,30 242,30 242,40 " style="fill:white; stroke:black; stroke-width:1; " id="subclusterblast-1_q2_0_all" class="clusterblast-orf"  />
<polygon description="&lt;b&gt;cds3969_4119&lt;/b&gt;&lt;br&gt;hypothetical protein&lt;br&gt;Location: 3969 - 4119" locus_tag="cds3969_4119" points="383,40 401,40 406,35 401,30 383,30 383,40 " style="fill:white; stroke:black; stroke-width:1; " id="subclusterblast-1_q3_0_all" class="clusterblast-orf"  />
<polygon description="&lt;b&gt;cds4425_5013&lt;/b&gt;&lt;br&gt;Putative reductase&lt;br&gt;Location: 4425 - 5013" locus_tag="cds4425_5013" points="452,40 537,40 542,35 537,30 452,30 452,40 " style="fill:white; stroke:black; stroke-width:1; " id="subclusterblast-1_q4_0_all" class="clusterblast-orf"  />
<polygon description="&lt;b&gt;cds5128_6091&lt;/b&gt;&lt;br&gt;A-factor biosynthesis protein AfsA&lt;br&gt;Location: 5128 - 6091" locus_tag="cds5128_6091" points="560,35 565,30 707,30 707,40 565,40 560,35 " style="fill:white; stroke:black; stroke-width:1; " id="subclusterblast-1_q5_0_all" class="clusterblast-orf"  />
<polygon description="&lt;b&gt;cds6414_6573&lt;/b&gt;&lt;br&gt;hypothetical protein&lt;br&gt;Location: 6414 - 6573" locus_tag="cds6414_6573" points="757,40 776,40 781,35 776,30 757,30 757,40 " style="fill:white; stroke:black; stroke-width:1; " id="subclusterblast-1_q6_0_all" class="clusterblast-orf"  />
</g>
</svg>
